<svg id="Construction_Tool" height="512" viewBox="-70.866 -70.866 850.394 850.394" width="512"
     xmlns="http://www.w3.org/2000/svg">
    <g>
        <path d="m81.915 549.277c-.316 30.75-.898 88 48.75 108.004 68.57 22.875 158.219 18.063 222 20.25 72.141-.441 146.043 5.961 217.489-17.961 54.246-18.77 54.945-71.449 55.32-99.754.996-32.953 3.059-65.254 3.004-99.372 37.461-4.457 59.504-38.148 70.488-54.93 30.895-50.41-8.387-87.184-26.816-108.574-44.059-51-97.895-103.828-158.098-156.199-74.824-64.508-153.179-137.137-250.277-59.683-12.676-49.402-65.629-51.32-102.152-50.184-42.16-.137-89.121 1.859-103.676 50.246-9.336 28.316-5.914 69.957 18.984 92.727.289 24.258 1.441 48.316 2.648 71.844-3.148 3.367-6.281 6.75-9.398 10.137-28.238 36.207-78.402 73.051-71.27 121.461 9.051 45.738 48.652 80.504 80.98 84.09-.085 28.226 1.931 58.043 2.024 87.898z"
              fill="none"/>
        <g>
            <path d="m118.439 407.116c-.852 42.035-.152 84.11 1.648 126.103 1.18 27.594-6.059 76.102 24.871 88.566 25.191 10.145 56.281 11.008 82.949 13.23 43.535 3.617 87.344 4.316 131.012 4.238 62.605-.105 138.496 4.996 198.723-15.848 34.594-11.969 28.223-48.375 30.008-80.188 2.578-45.793 3.164-91.833 2.117-137.731 4.324 4.016 8.633 8.043 12.996 12.016 1.227 1.117 2.527 1.867 3.844 2.316.277.129.516.289.813.402 28.02 10.52 46.07-15.098 59.516-35.648 15.609-23.875-9.227-45.887-23.691-62.559-45.371-52.297-95.52-100.855-147.555-146.469-37.668-33.02-80.453-72.379-128.965-88.336-38.415-12.629-83.852 27.395-111.368 48.297-17.152 13.031-33.789 26.781-50.059 40.988-.684-8.32-1.363-16.637-2.176-24.945 1.301-.234 2.586-.523 3.879-.797.953-.066 1.941-.23 3.004-.617 2.109-.496 3.691-1.465 4.891-2.672 18.227-12.871 19.137-53.887 5.078-68.602-9.902-10.359-31.496-8.965-44.285-9.449-20.195-.766-40.578.043-60.566 3.063-27.828 4.207-29.715 55.813-13.031 72.496 3.277 3.277 7.941 5.234 13.113 6.527-.488 35.984 1.555 71.738 3.398 107.676.016.285.086.523.121.793-6.855 7.211-13.66 14.461-20.375 21.766-19.672 21.391-38.371 43.664-55.762 66.941-18.379 24.605 8.238 55 27.578 69.289 16.16 11.935 33.356 2.357 48.274-10.846z"
                  fill="#68182b"/>
            <path d="m399.291 618.105c-10.984-.043-21.789-.09-32.281.008-19.137.184-38.555.328-58.047.18-4.383-50.098-3.289-100.492-2.598-150.724.078-5.742-2.043-65.16-.699-65.688 13.594-5.387 30.855-4.535 45.215-4.793 14.625-.258 29.485.383 43.918 2.844 13.957 2.371 6.773 43.293 6.93 56.945.632 53.732 2.226 107.639-2.438 161.228z"
                  fill="#ff2e60"/>
            <path d="m115.493 125.315c-1.746-8.066-4.668-30.609 5.238-32.496 21.023-4 43.902-2.988 65.148-1.848 8.008.43 19.582-.875 20.617 8.723.449 4.133 2.453 28.422-2.094 30.098-21.332 5.023-44.535 3.785-66.242 2.484-7.401-.441-20.823 1.563-22.667-6.961z"
                  fill="#ff7a0d"/>
            <path d="m185.759 193.956c-16.082 14.734-31.77 29.902-47.09 45.426-1.465-28.543-2.684-57.027-2.371-85.641 4.953.09 9.637.066 13.426.23 10.699.469 21.66.625 32.543-.02 1.258 13.329 2.148 26.685 3.492 40.005z"
                  fill="#dda96b"/>
            <path d="m60.802 359.323c14.492-29.754 47.863-58.059 70.359-81.875 50.078-52.996 104.461-104.348 164.898-145.414 16.066-10.91 37.371-26.277 57.688-26.078 21.145.211 45.833 21.086 62.086 32.492 48.703 34.156 92.695 75.672 135.16 117.148 19.77 19.309 38.957 39.203 57.723 59.484 8.199 8.867 16.195 17.918 24.113 27.031 4.199 4.848 8.293 9.789 12.379 14.734 13.145 15.938-12.555 46.645-29.906 43.551-65.172-59.523-125.621-123.496-196.508-176.699-22.156-16.625-52.344-41.898-81.317-28.211-41.371 19.551-77.52 54.176-111.824 83.727-39.551 34.086-77.902 69.57-115.949 105.324-4.734 4.445-9.457 8.898-14.199 13.348-16.723 15.704-41.765-24.07-34.703-38.562z"
                  fill="#ff7a0d"/>
            <path d="m230.544 499.844c.016 2.34.016 4.688.027 7.035 0 .625-.02 1.078-.039 1.547-6.961 2.563-17.832 1.59-23.941 1.59-5.434 0-10.957-.25-16.336-1.051-1.719-.254-3.414-.656-5.102-1.074.059-8.754.074-17.508.082-26.254 0-6.903-.008-13.798-.027-20.7 0-2.34-.016-4.684-.02-7.031-.008-.613.02-1.055.039-1.516 6.32-2.254 15.867-1.543 21.375-1.621 6.98-.109 16.719-.66 23.984 1.852-.016 2.074-.023 4.152-.027 6.227-.027 6.766-.027 13.535-.027 20.298-.007 6.901 0 13.795.012 20.698z"
                  fill="#ffc522"/>
            <path d="m568.138 504.215c1.082-39.673 1.383-79.353.047-119.017-40.031-38.109-79.141-77.109-121.68-112.668-18.219-15.219-36.656-30.473-56.559-43.48-8.918-5.824-23.668-17.934-35.133-17.23-27.344 1.688-62.754 39.129-82.121 55.156-43.523 36.023-85.43 73.992-126.746 112.516-1.805 1.68-3.797 3.715-5.895 5.906-1.461 42.668-1.25 85.453.336 128.11.801 21.457 1.648 42.953 3.633 64.336 1.77 18.934 5.934 24.523 23.996 28.258 38.945 8.059 79.445 10.949 119.859 11.875-6.113-70.41-1.262-141.114-2.25-211.665-.5-35.094 45.762-30.777 71.719-30.316 17.496.316 37.184.145 53.723 6.691 14.879 5.895 11.477 19.578 11.477 33.25.027 67.337 3.691 135.013-2.188 202.196 42.828-.098 87.168-1.688 126.266-13.328 29.138-8.68 20.817-75 21.516-100.59zm-316.5-4.371c.043 12.438.887 23.551-13.301 27.797-13.848 4.148-29.914 4.34-44.191 2.875-8.887-.91-25.32-2.223-28.992-12.59-.699-1.371-1.133-2.98-1.105-4.891.184-17.363.117-34.734.066-52.099-.027-12.438-.883-23.551 13.309-27.797 14.305-4.277 74.586-11.355 74.297 14.609-.2 17.364-.122 34.732-.083 52.096zm285.715 0c.035 12.438.883 23.551-13.301 27.797-13.855 4.148-29.914 4.34-44.203 2.875-8.879-.91-25.293-2.223-28.984-12.57-.707-1.379-1.137-2.992-1.113-4.91.203-17.363.125-34.734.078-52.099-.035-12.438-.883-23.551 13.301-27.797 14.313-4.285 74.582-11.355 74.297 14.609-.192 17.363-.118 34.731-.075 52.095z"
                  fill="#dda96b"/>
            <path d="m516.26 499.844c0 2.34.016 4.688.02 7.035 0 .625-.02 1.078-.039 1.555-6.965 2.555-17.836 1.582-23.941 1.582-5.43 0-10.953-.25-16.332-1.051-1.723-.254-3.414-.656-5.109-1.074.066-8.754.078-17.508.086-26.254 0-6.903-.008-13.798-.02-20.7-.008-2.34-.016-4.684-.027-7.031 0-.613.02-1.055.039-1.516 6.32-2.254 15.867-1.543 21.379-1.621 6.98-.109 16.715-.66 23.98 1.852-.016 2.074-.02 4.152-.027 6.227-.02 6.766-.027 13.535-.027 20.298-.006 6.901-.002 13.795.018 20.698z"
                  fill="#ffc522"/>
            <path d="m394.799 399.933c-14.434-2.461-29.293-3.102-43.918-2.844-14.359.258-31.621-.594-45.215 4.793-1.344.527.777 59.945.699 65.688-.094 6.414-.184 12.829-.277 19.247.68-3.859 1.293-7.719 2.012-11.579 5.102-27.449 9.266-62.836 43.223-66.344 20.059-2.074 41.813 3.719 52.036 19.547.428-13.883-.779-27.184-8.56-28.508z"
                  fill="#ea0f4d"/>
            <path d="m363.654 429.417c-14.93 7.703-14.106 25.191-14.758 42.285-.883 23.423-.566 46.927-.152 70.356.281 16.465-.402 33.922 2.32 50.137 2.418 14.422 22.762 17.785 31.653 10.684 8.352-6.672 6.738-19.359 7.105-30.242 1.359-39.012 1.406-78.844.574-117.993-.633-29.942-13.547-32.032-26.742-25.227z"
                  fill="#f69"/>
            <path d="m113.923 114.276c.336 4.395 1.016 8.457 1.57 11.039 1.844 8.523 15.266 6.52 22.668 6.961 21.707 1.301 44.91 2.539 66.242-2.484 1.691-.625 2.477-4.383 2.77-9.07-3.086 6.031-15.168 7.016-20.336 7.27-7.938.391-16.039.199-23.988.254-8.063.059-16.125-.109-24.172-.484-12.402-.572-19.797-3.673-24.754-13.486z"
                  fill="#ef6200"/>
            <path d="m635.756 392.257c-7.191-.164-14.488-2.848-22.379-9.391-9.281-7.715-17.691-16.566-26.602-24.715-20.082-18.336-40.566-36.223-61.016-54.137-38.883-34.082-78.02-67.883-117.164-101.668-21.355-18.43-43.445-28.793-71.25-18.773-16.984 6.125-31.813 18.582-46.074 29.336-15.504 11.688-30.535 23.98-45.414 36.438-49.652 41.574-94.781 87.738-142.922 130.867-11.027 9.875-22.715 11.258-34.863 8.031 7.516 10.734 18.613 17.922 27.434 9.641 4.742-4.449 9.465-8.902 14.199-13.348 38.047-35.754 76.398-71.238 115.949-105.324 34.305-29.551 70.453-64.176 111.824-83.727 28.973-13.688 59.161 11.586 81.317 28.211 70.887 53.203 131.336 117.176 196.508 176.699 6.472 1.157 14.105-2.406 20.453-8.14z"
                  fill="#ef6200"/>
            <path d="m158.767 95.862c-22.227.402-33.875 5.395-34.098 10.379-.496 10.59 71.297 10.863 71.758-.102.238-5.382-11.977-10.742-37.66-10.277z"
                  fill="#ffb85a"/>
            <path d="m632.83 342.112c-7.918-9.113-15.914-18.164-24.113-27.031-18.766-20.281-37.953-40.176-57.723-59.484-42.465-41.477-86.457-82.992-135.16-117.148-16.254-11.406-40.941-32.281-62.086-32.492-20.316-.199-41.621 15.168-57.688 26.078-60.438 41.066-114.82 92.418-164.898 145.414-22.496 23.816-55.867 52.121-70.359 81.875-1.582 3.246-1.484 7.781-.297 12.652 9.984-31.738 41.66-57.469 63.789-80.004 27.492-27.996 55.613-55.387 85.539-80.789 35.621-30.246 72.195-61.957 112.457-85.891 38.43-22.844 70.598 4.109 101.5 27 51.773 38.328 97.973 84.188 143.477 129.645 20.711 20.691 41.027 41.938 59.234 64.891 7.164 9.039 13.957 18.563 19 28.965.34.703.504 1.449.789 2.168 3.309-7.43 3.742-15.262-1.082-21.113-4.086-4.947-8.18-9.888-12.379-14.736z"
                  fill="#ffb85a"/>
            <path d="m230.56 460.245c0-.469 0-.93 0-1.398.004-2.074.012-4.152.027-6.227-7.266-2.512-17.004-1.961-23.984-1.852-5.508.078-15.055-.633-21.375 1.621-.02.461-.047.902-.039 1.516.004 2.348.02 4.691.02 7.031.012 2.406.004 4.82.012 7.227 10.948-9.086 30.19-11.715 45.339-7.918z"
                  fill="#ffa222"/>
            <path d="m516.295 452.62c-7.266-2.512-17-1.961-23.98-1.852-5.512.078-15.059-.633-21.379 1.621-.02.461-.039.902-.039 1.516.012 2.348.02 4.691.027 7.031v2.547c13.461-6.969 30.93-5.445 45.336.594 0-1.75 0-3.488.008-5.23.007-2.075.011-4.153.027-6.227z"
                  fill="#ffa222"/>
            <path d="m190.255 508.965c5.379.801 10.902 1.051 16.336 1.051 6.109 0 16.98.973 23.941-1.59.02-.469.039-.922.039-1.547-.012-2.348-.012-4.695-.027-7.035 0-.336 0-.672 0-1.008-14.969 7.922-31.27 10.598-45.363-1.18-.008 3.414 0 6.82-.027 10.234 1.687.419 3.382.821 5.101 1.075z"
                  fill="#fbe134"/>
            <path d="m475.967 508.965c5.379.801 10.902 1.051 16.332 1.051 6.105 0 16.977.973 23.941-1.582.02-.477.039-.93.039-1.555-.004-2.348-.02-4.695-.02-7.035 0-1.121 0-2.234 0-3.355-5.094 4.227-11.184 6.875-19.793 7.699-9.777.938-17.918-.375-25.582-5.137-.008 2.949-.008 5.895-.027 8.84 1.695.418 3.387.82 5.11 1.074z"
                  fill="#fbe134"/>
            <g fill="#c48d51">
                <path d="m225.443 534.148c7.695-1.254 13.145-4.207 17.039-8.203-1.23.633-2.563 1.223-4.145 1.695-13.848 4.148-29.914 4.34-44.191 2.875-8.887-.91-25.32-2.223-28.992-12.59-.699-1.371-1.133-2.98-1.105-4.891.184-17.363.117-34.734.066-52.099-.016-7.809-.352-15.094 2.914-20.484-4.793 5.344-5.758 11.516-6.094 19.859-.59 14.727-.684 29.485-.77 44.224-.047 8.75.211 22.02 10.238 25.902 17.098 6.619 37.165 6.627 55.04 3.712z"/>
                <path d="m174.693 365.694c24.027-22.578 48.918-44.246 74.094-65.523 24.805-20.969 49.898-42.246 77.301-59.77 13.387-8.555 28.043-15.363 43.989-10.578 13.453 4.039 25.66 15.496 36.195 24.152 36.32 29.84 71.684 60.973 106.918 92.086 16.848 14.871 37.469 30.211 48.602 49.965 5.008 8.887 5.551 20.082 7.164 29.941-.105-13.59-.309-27.184-.77-40.77-40.031-38.109-79.141-77.109-121.68-112.668-18.219-15.219-36.656-30.473-56.559-43.48-8.918-5.824-23.668-17.934-35.133-17.23-27.344 1.688-62.754 39.129-82.121 55.156-43.523 36.023-85.43 73.992-126.746 112.516-1.805 1.68-3.797 3.715-5.895 5.906-.316 9.219-.512 18.441-.676 27.672 1.602-5.754 3.695-11.367 6.664-16.719 6.617-11.949 18.832-21.421 28.653-30.656z"/>
                <path d="m136.298 153.741c-.094 8.152-.027 16.293.102 24.43 5.223-6.844 13.277-11.09 22.973-14.004 7.762-2.332 15.801-1.66 23.605-1.977-.234-2.75-.445-5.496-.711-8.238-10.883.645-21.844.488-32.543.02-3.789-.164-8.473-.141-13.426-.231z"/>
                <path d="m447.385 456.554c-.793 17.48-1.082 35.177-.246 52.657 1.34 27.934 32.742 25.199 54.266 25.023 11.844-.105 24.75-2.152 31.969-12.277.141-.195.199-.48.332-.684-1.98 2.73-4.934 4.957-9.652 6.367-13.855 4.148-29.914 4.34-44.203 2.875-8.879-.91-25.293-2.223-28.984-12.57-.707-1.379-1.137-2.992-1.113-4.91.203-17.363.125-34.734.078-52.099-.02-8.285-.305-15.93 3.637-21.402-4.436 3.711-5.784 10.363-6.084 17.02z"/>
            </g>
            <path d="m420.013 303.827c-11.66-10.59-24.031-20.395-36.031-30.605-22.84-19.438-35.25-25.719-68.891 3.555-8.594 7.48-16.961 15.32-24.98 23.348-30.523 30.52-24.785 45.008 17.422 48.227 18.871 1.43 37.781.934 56.676 1.438 17.203.453 33.063-.035 45.594-2.039 28.601-4.561 39.867-16.982 10.21-43.924z"
                  fill="#f4c38e"/>
        </g>
    </g>
</svg>