<svg id="Hip_Hop_Style" height="512" viewBox="0 0 1200 1200" width="512" xmlns="http://www.w3.org/2000/svg"><g><path d="m405.703 1042.944c186.535 21.119 414.983-70.395 540.078-176.518 11.129-10.321 27.832-25.811 35.07-46.412 53.018-11.196 134.721-32.55 141.012-93.093 5.6-285.808 6.17-476.359-323.307-512.194-3.023-33.921-34.305-57.273-69.418-60.064-25.875-1.909-54.5-1.324-83.097 24.47-10.226 10.261-15.876 23.796-16.658 37.906-98.997 13.843-210.576 45.501-263.827 143.674-43.938 96.571-42.971 213.613-43.191 325.615-63.791 16.203-141.086 41.216-206.773 87.678-34.264 26.309-47.857 75.984-32.287 130.182 45.559 111.965 276.81 135.25 322.398 138.756z" fill="#fff"/><g><path d="m408.012 1016.938c76.806 6.82 154.686.09 228.576-22.295 103.977-31.599 207.959-76.594 291.441-147.362 13.391-12.417 31.139-29.349 30.234-49.268 40.157-8.267 132.602-25.405 137.631-73.79 3.565-105.472 3.645-213.985-25.045-316.319-26.764-99.198-132.392-143.107-224.986-159.48-25.9-5.104-52.12-8.482-78.449-10.382 17.148-30.23-10.334-55.396-40.613-57.37-20.717-2.343-46.898 1.48-62.268 16.896-11.469 11.504-11.595 28.72-3.882 41.841-100.194 11.385-219.539 37.611-271.856 133.207-18.252 35.639-25.414 76.994-30.784 116.272-9.703 72.099-11.415 145.124-8.95 217.77-75.881 18.067-153.08 42.882-217.452 87.967-5.493 4.269-10.737 9.483-14.962 15.354-9.805 13.622-19.553 53.034-9.157 84.37 34.866 85.687 217.016 116.165 300.522 122.589z" fill="#68182b"/><path d="m1084.291 725.302c-8.914 42.229-114.391 58.704-152.426 65.171-12.574 1.938-25.186 3.629-37.828 5.104-22.877 2.674-28.721 3.357-27.873-13.577.422-8.381.871-16.762 1.336-25.141.689-12.518 3.395-13.127 16.725-13.346 57.829-.942 117.932-6.636 170.451-31.44 6.344-2.998 12.51-6.319 18.475-9.964 7.383-4.507 12.332-7.362 12.188-.279-.157 7.835-.337 15.696-1.048 23.472z" fill="#ceffff"/><path d="m1085.84 677.136c-.176 9.056-5.99 12.563-14.537 17.895-52.129 32.521-116.396 39.271-177.525 41.159-14.922.461-25.346 3.801-24.686-7.62.209-3.708.418-7.416.627-11.124 60.502-1.605 121.326-11.552 178.301-32.271 13-4.856 25.745-10.46 37.963-17.053-.035 3.006-.084 6.01-.143 9.014z" fill="#fac135"/><path d="m927.586 485.195c-3.135-79.012-10.81-135.239-68.699-189.473-10.924-10.238-6.988-8.79 6.865-4.518 186.074 57.366 185.775 196.609 185.533 367.639-.019 10.712-1.695 13.555-10.614 16.769-32.428 11.69-66.208 19.273-100.311 24.256-9.573 1.398-12.811 1.973-11.915-15.39 3.411-66.36 2.471-132.938-.859-199.283z" fill="#ff5671"/><path d="m813.905 254.47c39.174 5.577 77.984 14.819 114.748 28.693 45.793 17.281 89.469 45.65 114.699 88.703 37.223 68.58 39.713 176.417 42.545 254.11.092 5.997.289 10.75.398 14.584.328 11.898-.246 14.961-7.658 18.887-2.645 1.403-6.158 2.914-10.815 4.977-8.022 3.555-9.665 3.397-9.657-9.852.076-118.846 4.043-266.46-110.963-333.899-35.303-21.36-74.948-35.138-114.516-46.194-8.42-5.867-17.207-11.219-26.273-16.082-10.108-5.42-5.913-5.833 7.492-3.927z" fill="#ceffff"/><path d="m780.746 253.612c60.869 25.745 114.693 75.903 130.342 141.625 5.916 26.5 7.434 54.195 9.082 81.222 2.285 37.402 3.252 74.892 3.402 112.361.127 31.962-.264 63.987-1.979 95.926-.748 13.907-2.107 17.946-12.045 18.925-7.568.751-15.158 1.3-22.756 1.678-12.424.623-16.438.872-15.924-8.613 5.141-95.467 7.358-192.096-6.973-286.897-5.041-30.858-14.309-61.411-32.561-87.163-20.734-29.249-50.184-50.543-80.766-68.674 1.429-.827 2.809-1.713 4.139-2.653 8.241-5.805 18.428-.953 26.039 2.263z" fill="#ceffff"/><path d="m757.038 233.808c-4.255 6.816-11.711 11.234-21.931 14.98-22.76 5.626-49.932 4.291-62.967-13.429-4.1-5.57-2.558-6.042 3.709-3.732 12.586 4.637 27.607 5.264 39.503 5.012 13.386-.387 27.243-1.922 39.526-7.544 7.28-3.339 6.357-2.015 2.16 4.713z" fill="#fac135"/><path d="m678.237 200.927c10.991-7.346 26.766-9.388 38.782-9.325 10.618.057 25.444 2.305 34.877 9.555 7.366 5.662 7.636 11.904.175 16.337-17.227 10.242-49.155 8.486-65.854 4.846-1.971-.616-5.42-1.462-8.779-2.636-11.839-4.144-8.58-12.516.799-18.777z" fill="#ff5671"/><path d="m747.518 828.936c-30.912 16.922-62.389 32.651-95.627 44.861-109.049 41.573-229.928 34.962-341.111 5.145-19.242-5.336-39.014-11.526-56.214-21.908-42.055-23.865.016-44.834 25.457-56.352 26.417-12.377 54.139-22.441 82.225-30.436 2.044-.582 4.089-1.154 6.134-1.714 18.141-2.179 11.65-4.295 23.944 1.165 89.851 39.902 215.907 43.714 312.773 46.348 15.163.152 30.341.116 45.515-.122 20.966-.321 12.091 4.698-3.096 13.013z" fill="#ceffff"/><path d="m365.917 753.528c2.595 2.275 5.374 4.369 8.239 6.303-26.719 6.629-52.959 15.851-78.308 26.393-21.091 9.667-44.854 17.677-60.769 35.268-32.675 45.502 94.449 69.554 122.152 75.219 89.461 17.242 183.433 20.978 270.996-7.609 50.871-15.779 98.17-39.854 144.297-66.107 10.23-5.823 18.48-8.174 26.426-8.518 2.346-.104 4.69-.211 7.033-.323 19.066-.929 16.965 1.243 2.432 10.128-176.025 107.564-329.18 134.578-533.449 73.475-66.605-20.786-148.639-59.234-40.547-104.891 34.898-16.223 71.873-28.512 109.058-38.295 15.09-3.969 18.953-4.1 22.44-1.043z" fill="#ff5671"/><path d="m127.569 814.548c9.281-11.367 22.052-19.051 34.633-26.217 58.15-33.021 122.172-55.181 187.238-69.959.137 6.031 1.002 12.192 3.275 17.81 3.713 9.188-1.709 9.256-12.227 11.985-29.148 7.576-57.873 17.171-85.717 28.43-92.494 34.979-116.237 76.691-10.908 117.725 60.691 22.774 125.258 34.33 189.652 40.244 143.173 14.529 267.846-37.439 386.896-109.251 17.879-10.782 24.601-13.528 42.102-15.087 8.631-.769 17.25-1.621 25.857-2.563 20.705-2.263 19.68-.985 2.811 12.297-14.391 11.336-29.4 21.902-44.734 31.869-187.619 122.279-405.471 155.65-616.287 74.006-37.75-14.369-142.38-59.243-102.591-111.289z" fill="#00ebed"/><path d="m123.545 875.475c18.599 21.247 45.016 35.701 70.264 47.474 107.266 47.862 229.439 68.425 346.334 56.219 132.652-19.177 262.42-72.897 366.994-157.294 16.55-13.348 19.057-18.226 30.429-20.611 13.214-2.771 8.253 5.959 2.956 14.582-15.765 25.674-54.367 50.061-75.93 64.48-96.007 59.9-203.953 103.704-315.813 122.101-108.636 13.755-221.874 1.272-325.097-35.266-42.231-16.696-104.785-41.495-107.955-93.778-.963-14.747 2.091-3.243 7.818 2.093z" fill="#fac135"/><path d="m862.705 538.702c-4.859-71.465-.256-157.078-45.945-216.4-21.168-26.604-50.019-45.814-79.227-62.596-22.049 6.537-48.989 5.041-67.604-9.604-29.391 2.532-58.558 7.077-87.301 13.746-185.647 42.308-209.236 128.504-220.608 303.358-3.104 52.58-3.348 105.399-.654 157.998.857 5.412 3.105 9.795 6.613 14.009 40.373 40.584 139.574 50.941 195.438 57.593 96.432 9.818 193.763 10.209 290.392 2.717 4.24-86.888 11.885-173.755 8.896-260.821zm-199.174-10.654c-5.846 1.554-11.74 2.082-17.586 1.866-.274.54-.627 1.07-1.139 1.569-35.279 34.475-68.721 70.75-102.199 106.956-16.811 18.183-33.633 36.352-50.6 54.391-8.787 10.444-19.869 21.632-34.768 19.352-7.484 6.958-14.93 13.964-22.672 20.634-6.078 5.237-12.422 11.695-21.155 9.402-11.44-3.407-19.272-16.92-16.952-28.547 3.982-11.403 14.611-19.197 23.446-26.865-19.565-30.342-11.349-54.439 11.179-79.097 14.832-18.675 29.94-37.132 45.306-55.373 29.548-35.081 59.997-69.476 92.099-102.247-.256-7.639.456-15.446 2.332-23.283 18.539-76.634 109.93-83.156 142.738-13.845 17.343 42.54-3.98 101.827-50.029 115.087z" fill="#00ebed"/><path d="m622.336 379.694c27.135-10.261 60.871 3.92 75.775 28.075 12.584 20.636 12.727 46.961 3.551 69.167-9.239 22.36-17.824 24.464-35.385 15.005-28.497-15.344-50.06-42.308-61.217-72.838-7.825-21.406-9.298-29.362 17.276-39.409z" fill="#d5d5d5"/><path d="m590.565 407.935c.848-1.462 1.744-2.892 2.684-4.291 10.314 45.639 43.16 86.997 87.891 102.312-1.897 1.607-3.885 3.105-5.968 4.459-9.854 6.401-15.437 7.036-28.538.148-25.771-13.555-45.689-38.443-55.967-65.98-5.407-14.494-6.247-26.059-.102-36.648z" fill="#afafaf"/><path d="m586.031 451.622c5.135 11.999 12.082 23.267 20.146 33.431 7.979 10.061 17.539 19.426 28.381 26.695 6.381 4.279 6.725 6.67-.486 4.887-5.01-1.238-9.912-3.094-14.596-5.453-23.627-12.338-38.342-34.38-39.588-60.143-.536-11.171-.651-15.308 6.143.583z" fill="#d5d5d5"/><path d="m584.573 538.994c-6.523 6.805-8.644 7.854-13.475.996-4.62-6.555-8.603-10.739-11.697-13.627-8.378-7.813-10.256-6.154-.705-16.37 4.254-4.554 10.779-11.468 20.01-22.631 26.372 42.37 39.572 16.506 5.867 51.632z" fill="#fac135"/><path d="m556.426 569.112c-4.297 4.68-8.695 11.646-15.309 13.104-10.268 2.267-19.449-8.234-20.283-17.708-.592-6.72 2.732-11.522 6.832-16.467 2.053-2.474 4.09-4.956 6.125-7.445 11.295-13.813 13.453-16.613 21.984-8.374 3.982 3.85 7.471 8.209 10.592 12.819 6.202 9.154-.013 13.258-9.941 24.071z" fill="#d5d5d5"/><path d="m437.996 617.4c41.928-52.679 85.557-104.1 132.317-152.571 1.179 5.473 2.864 10.793 5.106 15.875-12.74 14.012-24.908 28.514-36.877 43.19-8.59 12.734-24.549 23.114-24.668 39.712-.008 17.519 21.236 33.729 36.664 21.568 21.115-20.824 40.474-43.973 61.855-64.781.43.233.832.501 1.271.73 5.873 2.959 12.035 5.312 18.349 6.856-42.896 42.3-83.236 87.07-124.263 131.155-8.195 8.813-16.409 17.607-24.652 26.373-4.947 5.255-9.834 12.371-17.053 14.639-22.879 4.974-42.553-22.31-45.385-42.541-2.232-16.856 7.477-27.772 17.336-40.205z" fill="#ff5671"/><path d="m407.932 715.271c3.115-4.697 7.002-8.853 11.176-12.702 7.143-6.594 10.217-4.167 12.979-1.804 10.576 9.023 12.145 8.03-.041 18.96-1.494 1.291-2.967 2.618-4.447 3.936-7.299 6.494-12.424 9.795-17.351 2.289-2.326-3.544-3.389-7.969-2.316-10.679z" fill="#fac135"/><path d="m809.576 746.276c-16.178 27.537-42.881 36.631-72.707 41.76-74.43 12.797-152.104 8.792-226.574-1.439-27.49-3.777-54.703-8.866-81.826-14.479 44.711 14.535 98.863 20.391 134.948 24.688 96.432 9.818 193.763 10.209 290.392 2.717 4.24-86.887 11.885-173.754 8.896-260.82-4.859-71.465-.256-157.078-45.945-216.4-11.643-14.634-25.652-26.979-40.727-37.966 14.904 15.968 28.482 32.822 36.859 53.727 13.26 33.099 14.012 68.207 14.701 103.299 1.429 72.407 9.904 144.708 4.02 217.128-2.439 30.03-6.517 61.374-22.037 87.785z" fill="#00afb3"/><path d="m406.53 677.251c4.698 19.116-24.467 28.588-16.223 48.018 3.604 8.494 10.795 13.92 18.889 15.146-9.064-5.062-14.756-16.613-12.734-26.743 3.982-11.403 14.611-19.197 23.446-26.865-19.565-30.342-11.349-54.439 11.179-79.097 14.832-18.675 29.94-37.132 45.306-55.373 29.548-35.081 59.997-69.476 92.099-102.247-.256-7.639.456-15.446 2.332-23.283 18.539-76.634 109.93-83.156 142.738-13.845 6.121 15.017 7.404 32.116 4.504 48.544 6.406-19.197 8.869-39.347-.115-58.708-10.893-23.478-32.029-43.134-57.777-48.51-23.693-4.947-53.662 4.528-71.57 20.316-7.84 6.912-13.99 16.557-17.906 26.17-5.994 14.708-7.004 30.535-15.654 44.152-7.911 12.456-19.256 23.382-29.066 34.313-14.414 16.063-28.818 32.134-43.113 48.302-14.438 16.325-28.793 32.735-42.68 49.535-13.404 16.218-28.232 33.238-37.611 52.072-8.362 16.783-.119 31.526 3.956 48.103z" fill="#00afb3"/><path d="m254.772 776.596c27.844-11.259 56.568-20.854 85.717-28.43 10.518-2.729 15.939-2.797 12.227-11.985-.207-.508-.344-1.043-.525-1.561-47.457 13.696-94.084 27.591-137.342 52.129-16.17 9.172-39.105 21.713-43.291 41.636-1.305 6.207.543 11.838 4.024 16.753-6.931-24.2 23.764-47.582 79.19-68.542z" fill="#00afb3"/><path d="m846.448 851.831c15.334-9.967 30.344-20.533 44.734-31.869 15.723-12.378 17.662-14.326 1.094-12.702-13.391 11.59-27.749 22.116-42.377 31.999-38.805 26.219-80.717 47.91-123.265 67.354-104.783 47.881-220.509 65.07-334.987 53.393-34.725-3.542-69.236-10.225-103.405-17.236-7.769-1.594-15.819-3.116-23.907-4.787 200.06 65.573 404.614 29.532 582.113-86.152z" fill="#00afb3"/><path d="m361.365 725.204c.857 5.412 3.105 9.795 6.613 14.009 3.63 3.647 7.752 7.043 12.256 10.223-1.275-2.301-2.498-4.635-3.656-7.014-8.91-18.298-8.963-37.51-8.179-57.391 1.319-33.507 3.392-67.055 5.37-100.533 2.408-40.71 5.16-81.776 14.238-121.644 8.947-39.289 22.393-78.417 49.043-109.359 38.293-44.458 96.808-63.626 151.972-77.179 31.618-7.769 63.723-12.84 95.856-17.771-5.35-2.083-10.4-4.864-14.949-8.444-29.391 2.532-58.558 7.077-87.301 13.746-185.647 42.309-209.236 128.505-220.608 303.359-3.104 52.58-3.348 105.399-.655 157.998z" fill="#88f9f9"/><path d="m204.686 915.319c-2.91-1.752-5.817-3.515-8.731-5.255-21.923-13.095-43.356-27.162-58.551-48.077-7.155-9.854-11.518-21.157-8.089-33.248 3.271-11.543 14.35-20.456 23.453-27.44 19.313-14.812 43.15-24.618 65.435-33.856 42.683-17.696 87.071-31.121 131.682-43.021-.231-2.017-.399-4.038-.444-6.049-65.066 14.778-129.088 36.938-187.238 69.959-12.581 7.166-25.352 14.85-34.633 26.217-32.675 42.739 32.024 80.627 77.116 100.77z" fill="#88f9f9"/><path d="m663.531 528.048c-5.846 1.554-11.74 2.082-17.586 1.866-.274.54-.627 1.07-1.139 1.569-35.279 34.475-68.721 70.75-102.199 106.956-16.811 18.183-33.633 36.352-50.6 54.391-8.787 10.444-19.869 21.632-34.768 19.352-7.484 6.958-14.93 13.964-22.672 20.634-2.332 2.008-4.704 4.189-7.234 5.993 4.762-1.772 9.164-5.064 13.823-8.5 10.71-7.896 24.071-7.309 34.76-15.393 12.552-9.493 23.534-21.933 34.62-33.032 32.443-32.494 63.914-65.958 95.504-99.274 10.602-11.181 21.154-22.417 31.926-33.436 9.532-9.75 24.336-11.74 36.424-17.047 10.982-4.821 20.753-12.003 28.758-20.89 11.482-12.748 17.129-32.873 15.168-51.11-4.958 30.637-24.535 59.21-54.785 67.921z" fill="#88f9f9"/><path d="m433.516 934.565c-64.395-5.914-128.961-17.47-189.652-40.244-5.67-2.211-10.895-4.421-15.828-6.634 25.453 17.032 56.214 27.313 85.029 34.613 26.838 6.795 54.277 10.37 81.691 13.9 36.118 4.65 72.418 7.92 108.865 7.342 68.447-1.084 134.311-21.629 196.832-48.231 31.416-13.368 61.926-28.827 91.693-45.521 22.213-12.458 43.615-26.237 65.592-39.063-14.106 1.672-21.178 4.85-37.326 14.589-119.05 71.81-243.723 123.778-386.896 109.249z" fill="#88f9f9"/><g fill="#df3f58"><path d="m1051.301 645.99c-5.338 7.839-12.238 14.644-20.939 19.883-16.043 9.658-41.005 12.959-59.242 9.141-27.817-5.824-25.018-44.359-25.074-66.077-.072-28.513-.618-56.985-1.668-85.484-1.862-50.46-5.441-103.401-24.592-150.692-11.559-28.538-30.694-57.613-57.667-73.923 54.915 53.28 62.394 108.858 65.468 186.358 3.33 66.345 4.27 132.923.859 199.283-.896 17.362 2.342 16.788 11.915 15.39 34.103-4.982 67.883-12.565 100.311-24.256 8.919-3.214 10.596-6.057 10.614-16.769.005-4.307.01-8.588.015-12.854z"/><path d="m231.729 845.548c1.203 1.875 2.586 3.613 4.092 5.248-7.142-8.543-8.65-18.29-.74-29.305 15.914-17.591 39.678-25.601 60.769-35.268 25.349-10.542 51.589-19.764 78.308-26.393-1.947-1.315-3.83-2.734-5.667-4.203-24.935 6.953-49.452 15.334-73.441 25.068-17.744 7.198-36.336 14.744-52.124 25.729-13.86 9.641-20.937 23.927-11.197 39.124z"/><path d="m420.662 657.606c2.832 20.231 22.506 47.515 45.385 42.541 7.219-2.268 12.105-9.384 17.053-14.639 8.243-8.766 16.457-17.561 24.652-26.373 41.026-44.085 81.367-88.855 124.263-131.155-1.958-.479-3.895-1.062-5.819-1.688-32.496 29.906-61.879 64.037-91.992 96.042-15.227 16.18-30.418 32.388-45.547 48.657-7.527 8.09-14.43 17.096-25.64 20.033-24.554 6.434-36.903-19.168-42.464-41.877-.293 2.662-.287 5.462.109 8.459z"/><path d="m520.918 538.759c-6.2 8.261-10.223 15.906-8.771 26.34.677 4.859 2.802 8.89 5.911 11.916-2.588-4.021-4.187-8.655-4.184-13.408.119-16.598 16.078-26.978 24.668-39.712 11.969-14.677 24.137-29.179 36.877-43.19-.4-.91-.689-1.863-1.057-2.79-7.825 10.51-18.668 19.815-27.22 29.257-9.083 10.035-18.101 20.765-26.224 31.587z"/><path d="m677.438 219.704c3.359 1.174 6.809 2.02 8.779 2.636 16.698 3.641 48.627 5.396 65.854-4.846 6.303-3.744 7.027-8.776 2.679-13.663-6.685 11.307-24.357 15.352-36.331 16.073-12.4.747-43.479.599-45.604-14.34-4.637 5.294-4.461 10.961 4.623 14.14z"/></g><path d="m1037.42 586.326c-1.156-26.529-3.621-53.14-7.215-79.445-5.709-41.784-12.707-89.771-46.354-115.448-12.855-9.811-14.432-1.189-12.61 5.795 5.462 20.953 6.87 42.67 8.206 64.478 1.982 32.376 2.419 64.829 3.629 97.239.605 16.213 1.49 32.412 2.73 48.59.793 10.377 1.245 20.689 5.355 30.37 6.904 16.251 22.719 11.437 33.512 2.199 14.03-12.007 13.466-37.253 12.747-53.778z" fill="#ff9780"/><path d="m808.416 824.28c10.056-6.148 14.146-9.078 9.404-9.996-22.789 16.316-48.588 29.246-73.896 41.005-54.546 25.347-111.229 47.788-170.194 59.745-98.858 20.042-189.131 3.002-246.06-3.245 178.643 41.659 320.192 10.602 480.746-87.509z" fill="#df3f58"/><path d="m485.092 578.991c-7.9 9.458-16.287 18.403-24.727 27.432-8.695 9.307-18.127 19.044-22.224 31.351-5.015 15.066 6.839 38.428 24.475 32.441 9.287-3.15 17.22-11.929 23.573-18.899 8.162-8.959 16.262-18.709 23.595-28.358 14.067-18.502-9.429-29.745-17.906-43.997-1.86-3.127-3.35-4.083-6.786.03z" fill="#ff9780"/><path d="m559.401 526.363c3.095 2.888 7.077 7.072 11.697 13.627 4.831 6.858 6.951 5.809 13.475-.996 23.818-24.82 24.197-19.21 13.074-28.718-.228 4.326-1.516 8.561-4.131 12.943-4.336 7.27-11.894 11.34-19.988 7.785-8.441-3.706-13.409-12.865-13.922-21.985-.306.326-.627.67-.91.974-9.551 10.216-7.673 8.557.705 16.37z" fill="#ee9e2b"/><path d="m548.779 1002.426c111.86-18.396 219.807-62.2 315.813-122.101 21.563-14.42 60.165-38.807 75.93-64.48 2.059-3.35 4.051-6.707 4.961-9.41-14.557 18.813-36.23 34.319-53.039 46.329-35.623 25.452-74.549 46.419-113.846 65.575-35.805 17.455-71.918 32.104-110.04 43.843-66.054 20.339-131.949 36.082-201.323 37.883-71.545 1.855-141.434-10.674-210.338-28.901-37.431-9.901-79.84-22.838-113.073-46.224 22.712 19.599 54.847 32.331 79.858 42.221 103.223 36.537 216.461 49.019 325.097 35.265z" fill="#ee9e2b"/><path d="m408.901 723.44c.385.859.822 1.709 1.347 2.51 4.927 7.506 10.052 4.205 17.351-2.289 1.48-1.317 2.953-2.645 4.447-3.936 10.347-9.282 10.75-9.983 4.17-15.504-6.788 10.34-16.727 18.875-27.315 19.219z" fill="#ee9e2b"/><path d="m682.228 244.493c14.337 8.799 34.962 8.725 52.88 4.295 10.22-3.747 17.676-8.165 21.931-14.98 4.196-6.728 5.12-8.052-2.159-4.713-1.1.504-2.226.938-3.35 1.376-16.592 15.086-47.032 18.423-69.302 14.022z" fill="#ee9e2b"/><path d="m1085.553 679.942c-27.223 15.073-55.9 26.523-86.98 33.996-25.18 6.053-50.854 9.277-76.55 12.172-17.061 1.92-35.743 4.533-52.837.789-.031.556-.063 1.113-.094 1.671-.66 11.421 9.764 8.081 24.686 7.62 61.129-1.889 125.396-8.639 177.525-41.159 7.596-4.737 13.008-8.06 14.25-15.089z" fill="#ee9e2b"/><path d="m254.566 857.034c17.2 10.382 36.972 16.572 56.214 21.908 111.184 29.817 232.063 36.429 341.111-5.145 33.238-12.21 64.715-27.939 95.627-44.861 7.205-3.943 12.938-7.135 14.791-9.379-19.334 10.807-39.733 19.726-60.322 27.918-29.811 11.861-60.213 22.628-91.158 31.141-47.904 13.178-98.365 17.526-147.944 16.641-58.002-1.039-119.033-9.242-173.222-30.708-14.152-5.605-41.885-15.723-42.033-34.53-.057-7.326 5.475-13.598 10.91-18.52-20.165 11.83-35.071 27.887-3.974 45.535z" fill="#a9cddd"/><path d="m1084.291 725.302c.063-.686.074-1.381.127-2.068-12.164 10.958-27.082 19.372-41.641 25.851-26.127 11.623-53.916 17.903-81.657 24.242-26.493 6.049-78.812 18.113-93.985-9.595-.33 6.089-.663 12.179-.971 18.269-.848 16.935 4.996 16.251 27.873 13.577 12.643-1.476 25.254-3.166 37.828-5.104 38.036-6.467 143.512-22.942 152.426-65.172z" fill="#a9cddd"/><path d="m821.739 267.333c3.699 2.308 7.374 4.657 10.947 7.146 39.567 11.057 79.213 24.834 114.516 46.194 115.006 67.439 111.039 215.054 110.963 333.899-.008 13.249 1.635 13.406 9.657 9.852.919-.407 1.763-.778 2.597-1.146-8.641-19.991-4.883-45.98-5.174-66.691-.42-29.788-2.139-59.551-5.385-89.166-5.078-46.327-14.9-91.498-40.24-131.261-43.186-67.764-122.719-94.123-197.881-108.827z" fill="#a9cddd"/><path d="m754.709 251.347c-1.33.94-2.71 1.826-4.139 2.653 30.582 18.131 60.031 39.426 80.766 68.674 18.252 25.751 27.52 56.304 32.561 87.163 14.331 94.802 12.113 191.431 6.973 286.897-.514 9.485 3.5 9.236 15.924 8.613 3.639-.181 7.276-.407 10.91-.67-3.959-2.107-7.502-4.774-10.263-8.35-12.466-16.144-6.015-47.107-5.572-65.511 1.322-55.052.71-110.263-2.464-165.247-2.186-37.89-4.813-77.442-20.404-112.596-10.628-23.964-26.234-41.861-45.014-59.823-17.654-16.885-39.135-27.858-58.322-42.317-.315.19-.645.296-.956.514z" fill="#a9cddd"/><path d="m603.776 831.579c-107.547-3.96-163.102-20.432-191.255-30.551-18.401-6.617-26.292-11.901-49.155-7.447-8.525 1.66-16.899 4.367-24.408 7.052-10.103 3.611-25.814 10.074-26.475 22.702-.709 13.553 19.58 22.33 29.504 26.355 42.617 17.285 93.824 18.418 139.156 18.387 42.887-.029 88.355-5.26 129.197-20.771 44.84-17.032 15.15-14.926-6.564-15.727z" fill="#e9fffb"/><path d="m928.653 283.164c-7.197-2.717-14.494-5.204-21.833-7.571 17.649 7.722 34.901 16.339 51.614 25.561 35.611 19.651 66.1 46.457 84.484 83.245 10.498 21.007 16.049 43.993 20.688 66.873 5.684 28.046 9.939 56.374 13.734 84.728 2.879 21.497 5.312 43.049 7.63 64.611-2.815-74.53-8.29-167.341-41.618-228.743-25.231-43.054-68.906-71.423-114.699-88.704z" fill="#e9fffb"/><path d="m803.453 269.442c15.398 9.422 30.049 19.391 43.046 31.98 18.083 17.524 33.737 38.484 45.026 61.009 7.543 15.043 12.572 30.908 15.755 47.411 5.044 26.174 6.64 53.057 8.392 79.605 3.092 46.88 5.242 93.83 7.68 140.748.203-13.795.277-27.591.221-41.375-.15-37.47-1.117-74.959-3.402-112.361-1.648-27.026-3.166-54.721-9.082-81.222-15.648-65.722-69.473-115.88-130.342-141.625-1.309-.554-2.713-1.147-4.151-1.734 9.05 5.732 17.865 12.064 26.857 17.564z" fill="#e9fffb"/><path d="m1054.676 712.074c-52.52 24.805-112.622 30.498-170.451 31.44-9.916.162-13.948.551-15.65 5.887 16.318 2.6 32.963 2.895 49.467 1.662 25.354-1.889 51.356-5.65 76.258-10.765 31.367-6.44 65.256-19.362 88.391-42.677-2.143.069-5.443 1.987-9.539 4.488-5.966 3.646-12.132 6.967-18.476 9.965z" fill="#e9fffb"/><path d="m580.878 459.835c3.808 21.942 17.71 40.439 38.599 51.348 4.684 2.359 9.586 4.215 14.596 5.453 7.211 1.783 6.867-.607.486-4.887-3.443-2.309-6.703-4.886-9.879-7.573-10.34-3.505-19.881-8.851-28.215-17.641-7.213-7.608-12.18-16.856-15.587-26.7z" fill="#bebebe"/><path d="m544.594 570.541c-9.096 4.594-17.574 1.271-21.279-8.12-.773-1.959-1.139-3.856-1.271-5.721-.958 2.359-1.466 4.897-1.21 7.808.834 9.474 10.016 19.975 20.283 17.708 6.613-1.457 11.012-8.424 15.309-13.104 9.928-10.813 16.143-14.917 9.941-24.071-.494-.733-1.063-1.407-1.578-2.127-2.896 11.547-8.859 21.903-20.195 27.627z" fill="#bebebe"/><path d="m666.278 491.94c17.561 9.459 26.146 7.355 35.385-15.005 1.619-3.919 2.93-7.969 3.953-12.091-4.418 5.61-9.941 10.204-17.775 12.914-18.992 6.566-38.697-8.547-50.975-21.468-11.348-11.94-20.457-29.143-24.481-45.05-.566-2.242-.908-4.407-1.063-6.508-.107-2.629.002-5.235.359-7.796.953-5.788 3.465-10.999 6.963-15.766-22.668 9.388-21.021 17.587-13.582 37.931 11.156 30.531 32.719 57.495 61.216 72.839z" fill="#bebebe"/><path d="m635.136 492.262c-7.081-1.909-14.071-4.481-20.751-7.675 9.175 10.577 20.045 19.559 32.248 25.977 13.102 6.888 18.685 6.253 28.538-.148 2.083-1.354 4.07-2.852 5.968-4.459-7.184-2.46-14.022-5.655-20.551-9.37-8.73-.615-17.377-2.146-25.452-4.325z" fill="#999"/><path d="m593.248 403.645c-.939 1.399-1.836 2.829-2.684 4.291-6.145 10.589-5.305 22.154.102 36.648 2.447 6.553 5.453 12.948 8.939 19.083-1.061-5.033-1.961-10.104-2.605-15.237-1.221-9.753-.492-18.902 1.168-27.87-1.978-5.544-3.627-11.195-4.92-16.915z" fill="#cecece"/><path d="m733.459 197.899c-13.236-2.611-29.444-2.004-39.324.722-15.732 4.342-8.596 8.954-.234 10.625 11.855 2.374 30.469 1.355 40.484-.868 13.173-2.93 8.496-8.624-.926-10.479z" fill="#ff9780"/></g></g></svg>