<svg id="Layer_1" height="512" viewBox="0 0 1000 1000" width="512" xmlns="http://www.w3.org/2000/svg"><g><path d="m916.996 536.83c3.518-10.422 6.197-21.611 8.001-33.422 19.505-127.717-52.901-260.915-120.831-336.173-30.578-33.874-80.705-74.653-145.869-76.565-1.493-.045-3-.066-4.5-.066-60.029 0-119.779 34.299-145.295 83.404-33.703 64.859-11.586 152.391 24.871 222.193-5.456 1.414-10.826 3.504-16.074 6.254-4.268 2.236-8.201 4.82-11.906 7.617 3.719-26.432 3.67-51.777-.574-74.79-12.209-66.196-73.26-108.97-155.533-108.97-36.176 0-71.075 8.879-98.269 25.005-49.104 29.12-83.846 78.786-108.628 118.802-34.347 55.461-56.683 116.988-66.388 182.879-6.525 44.297-4.331 83.041 6.513 115.441-11.844 11.854-19.496 28.146-25.895 43.209-13.171 31.02-14.159 58.023-2.936 80.262 25.688 50.91 92.605 78.83 148.035 97.465 27.844 9.361 56.476 15.604 85.102 18.555 7.398.762 15.41 1.467 23.876 1.467h.003c21.408 0 37.521-4.727 49.25-14.447 22.861-18.949 33.244-46.588 41.182-71.006l.475-1.455c4.432-13.605 10.472-32.139 7.877-49.92 33.701-18.668 59.891-46.844 77.488-67.607 13.566-16.006 44.661-58.25 40.414-104.664-.283-3.092-.754-6.123-1.354-9.109 18.935 20.285 41.029 37.646 64.497 50.396-2.123 15.564 2.475 31.385 5.887 43.117l.856 2.963c5.897 20.592 16.276 50.486 38.183 72.27 16.197 16.107 38.777 17.969 54.354 17.969h.005c4.42 0 8.758-.16 12.873-.326 26.242-1.07 53.852-6.43 89.521-17.373 71.957-22.084 121.084-52.576 150.182-93.223 22.162-30.953 6.855-71.172 1.826-84.391-7.77-20.409-16.756-35.546-27.219-45.761zm-430.676-1.654c-6.256-3.818-12.75-6.66-19.499-8.313 3.355-6.471 6.459-12.986 9.422-19.512 2.26 9.434 5.629 18.813 10.077 27.825z" fill="#fff"/><g><path d="m893.352 543.594c5.943-13.236 9.928-27.684 12.289-43.143 17.189-112.559-42.275-238.406-116.011-320.096-34.209-37.896-79.577-68.576-131.906-70.113-51.304-1.504-107.896 26.701-131.847 72.795-35.908 69.102 1.182 168.874 41.488 233.109-12.93-3.869-26.433-3.971-40.975 3.652-42.151 22.095-40.357 74.355-20.268 111.045 23.139 42.254 63.909 81.17 108.588 100.824-10.064 14.297-3.112 34.914 1.383 50.604 6.539 22.824 16.082 46.789 33.166 63.775 13.389 13.314 35.182 12.674 52.627 11.963 28.687-1.168 57.256-8.145 84.574-16.527 51.095-15.68 108-41.193 140.007-85.9 13.903-19.42 7.221-45.598-.554-66.025-5.881-15.453-16.339-37.893-32.561-45.963z" fill="#68182b"/><path d="m725.332 448.851c-28.189-1.271-59.367-3.076-86.133-12.99 12.133-37.953 47.174-67.346 72.088-98.25 36.723-3.802 72.6-18.354 109.075-22.041-18.128 45.664-56.433 87.572-84.882 121.436-3.343 3.979-6.737 7.921-10.148 11.845z" fill="#fcf29a"/><path d="m726.191 452.253c27.531 1.584 55.111 2.547 82.532 5.641 11.337 1.277 22.55 3.27 33.642 5.807-25.574 37.627-58.572 72.165-82.013 111.485-32.239-6.109-64.976-9.996-97.36-16.705-5.857-1.213-11.619-2.637-17.326-4.191 21.195-37.257 51.409-69.569 80.525-102.037z" fill="#fcf29a"/><path d="m709.769 334.375c-.858.085-1.716.216-2.575.29-28.898 2.487-57.467-4.701-85.145-12.113-6.899-1.849-14.153-3.881-21.348-6.328 13.221-24.682 30.881-47.656 44.185-71.805 3.974-7.213 7.749-14.494 11.286-21.852 2.217.128 4.416.229 6.588.306 34.808 1.231 71.955-15.581 107.152-15.885-8.969 46.363-31.45 89.923-60.143 127.387z" fill="#fcf29a"/><path d="m631.002 261.406c-11 17.906-23.356 35.338-33.311 53.758-6.944-2.492-13.77-5.418-20.104-9-11.994-6.779-18.005-16.979-19.764-36.514-2.118-23.559-.803-46.448 5.139-67.197 4.15-14.501 9.094-7.865 17.544-1.841 20.327 14.495 47.154 19.94 72.063 21.704-6.489 13.352-13.758 26.386-21.567 39.09z" fill="#fcf29a"/><path d="m588.463 344.121c2.861-8.635 6.553-16.973 10.771-25.107 1.435.515 2.869 1.036 4.295 1.533 24.983 8.702 51.722 14.92 78.033 17.398 8.536.803 17.007.717 25.431.047-2.121 2.703-4.264 5.383-6.445 8.019-22.79 27.537-52.891 54.028-64.379 88.629-17.939-7.162-28.702-17.167-36.489-31.949-2.615-4.97-5.167-10.065-7.639-15.262-6.713-14.125-9.1-26.644-3.578-43.308z" fill="#fcf29a"/><path d="m635.108 437.785c-1.185 4.027-2.032 8.199-2.667 12.46-1.463-.609-2.926-1.272-4.385-1.96-4.98-6.729-9.932-14.043-14.773-21.84 6.781 4.598 14.113 8.326 21.825 11.34z" fill="#fcf29a"/><path d="m635.172 460.941c6.548 3.416 7.236-6.725.537-9.393.578-4.301 1.484-8.481 2.641-12.569 26.617 9.615 57.174 11.495 84.188 13.065-28.766 32.877-58.895 64.385-80.129 101.366-19.586-5.58-38.376-13.111-56.811-22.24-11.198-5.545-24.333-12.102-35.178-20.701-14-11.106-20.475-35.354-5.172-52.063 9.547-10.426 22.662-13.738 36.162-13.189 10.07.409 27.281 1.909 53.762 15.724z" fill="#fcf29a"/><path d="m872.414 339.765c7.221 19.119 9.47 30.551 3.473 54.043-6.154 24.114-17.545 45.908-31.355 66.688-7.823-1.757-15.727-3.167-23.615-4.419-25.988-4.121-52.484-5.086-78.729-6.447-4.252-.22-8.648-.416-13.101-.613 7.843-8.774 15.583-17.573 23.015-26.498 25.309-30.391 56.066-67.227 71.729-107.246 7.695-.627 15.416-.734 23.182-.133 16.756 1.309 19.407 8.766 25.401 24.625z" fill="#fcf29a"/><path d="m776.781 182.766c7.573 7.911 14.738 16.274 21.526 24.915-8.03-2.51-16.157-3.609-24.345-3.717 1.252-7.002 2.206-14.07 2.819-21.198z" fill="#fcf29a"/><path d="m785.635 208.085c16.021 2.523 20.988 10.25 29.16 22.125 1.702 2.477 3.377 4.959 5.027 7.45 8.973 13.539 12.225 21.281 10.219 40.239-1.229 11.6-4.151 23.041-8.338 34.264-36.016 3.411-71.52 17.278-107.482 21.711 1.279-1.65 2.572-3.299 3.78-4.963 26.417-36.359 46.928-77.734 55.394-121.896 4.108.098 8.191.438 12.24 1.07z" fill="#fcf29a"/><path d="m706.528 132.509c3.452 1.354 6.82 2.848 10.085 4.482 13.609 6.818 26.235 15.354 37.989 25.103 14.81 12.273 19.062 20.418 17.546 31.573-.465 3.436-1.005 6.856-1.619 10.264-29.117.541-58.919 12.439-87.68 15-7.98.713-16.529.956-25.281.664 11.787-25.046 20.71-51.007 24.953-78.373 2.245-14.481 8.961-14.611 24.007-8.713z" fill="#fcf29a"/><path d="m668.182 123.519c12.568 1.221 12.789 4 11.438 13.73-3.987 28.73-13.234 56.097-25.645 82.195-25.783-1.325-52.924-7.742-72.789-22.667-9.127-6.858-11.212-17.735 1.745-34.564 27.458-35.657 60.028-41.145 85.251-38.694z" fill="#fcf29a"/><path d="m543.415 175.798c15.378-23.732 39.842-39.332 67.066-47.135-55.475 33.957-67.188 96.986-56.728 161.682.008.154.021.307.074.463 8.878 54.367 33.346 109.842 60.606 150.145-9.284-5.471-18.567-11.596-28.05-16.671-.113-.212-.203-.419-.347-.63-44.24-64.344-89.661-175.27-42.621-247.854z" fill="#ff8f5b"/><path d="m596.24 317.929c-7.126 13.6-12.819 27.781-15.648 43.109-7.82-19.888-14.207-40.703-18.376-61.488 9.796 8.354 21.875 13.877 34.024 18.379z" fill="#fcf29a"/><path d="m643.85 557.578c37.529 10.344 76.271 14.324 114.426 21.189-6.221 10.785-11.678 21.947-16.049 33.641-4.99 13.363-7.006 14.711-24.17 16.74-4.229.5-8.445.932-12.637 1.303-18.74 1.654-36.289 1.371-53.041-1.332-4.008-1.354-7.985-3.025-11.896-4.908-13.01-6.258-18.832-11.652-13.64-27.695 4.416-13.655 10.204-26.573 17.007-38.938z" fill="#fcf29a"/><path d="m745.689 612.99c4.375-11.674 9.826-22.814 16.035-33.574 17.645 3.262 35.148 7.248 52.337 12.816 12.196 3.951 8.521 7.074-2.323 12.111-15.604 7.248-32.185 12.762-49.088 16.893-11.921 2.916-22.027 5.28-16.961-8.246z" fill="#fcf29a"/><path d="m843.418 276.551c3.865 7.091 7.709 14.573 11.459 22.374 5.5 11.443 6.459 14.074-6.365 12.971-7.816-.672-15.598-.633-23.354-.05 4.293-11.669 7.239-23.6 8.368-35.711 1.414-15.182 3.113-12.014 9.892.416z" fill="#fcf29a"/><path d="m577.723 595.996c-41.438-32.234-102.961-102.865-60.188-155.441 20.846-25.624 47.559-15.521 72.688-1.306-13.307-1.726-26.731-.315-39.435 6.271-26.17 13.57-30.474 46.092-22.642 71.512 9.9 32.133 37.215 60.965 62.012 82.4 6.988 6.039 15.592 12.762 25.023 18.967-12.761-5.487-25.183-12.854-37.458-22.403z" fill="#ff8f5b"/><path d="m606.637 603.572c-22.869-15.727-42.258-37.834-57.703-60.66-9.973-14.738-17.324-31.906-17.481-48.661 7.501 12.631 20.418 21.538 32.81 29.208 21.125 13.078 44.607 23.359 68.256 30.801 2.699.85 5.418 1.605 8.132 2.381-6.72 12.098-12.458 24.801-16.878 38.338-4.652 14.214-6.464 15.935-17.136 8.593z" fill="#fcf29a"/><path d="m671.893 745.07c-20.971-3.721-31.426-29.613-38.365-47.098-5.369-13.529-20.328-48.91-7.584-61.828 10.76 3.816 22.355 5.957 34.254 6.928-6.544 22.006-.934 48.07 6.209 68.912 4.888 14.271 10.768 26.764 20.645 34.848-5.113-.312-10.177-.879-15.159-1.762z" fill="#ff8f5b"/><path d="m905.994 662.633c-30.043 32.801-75.791 52.096-117.037 65.961-11.971 4.025-24.676 7.939-37.707 11.127-26.402 6.457-60.307 8.855-71.662-13.654-3.189-6.318-5.662-13.402-8.116-20.568-6.213-18.143-10.789-42.9-4.324-61.982 20.487.92 41.509-1.258 60.308-4.025 42.148-6.207 84.021-18.551 119.912-42.059 18.027-11.809 31.313-26.537 40.826-43.596 15.703 6.877 25.594 35.031 30.346 49.195 7.955 23.722 4.103 41.425-12.546 59.601z" fill="#ff8f5b"/><path d="m894.016 505.113c-6.547 31.113-21.574 58.842-48.605 79.438-8.189 6.234-17.105 8.748-28.335 4.967-17.501-5.885-35.315-10.154-53.294-13.656 23.425-39.299 56.343-73.803 81.891-111.418 4.85 1.164 9.682 2.412 14.48 3.809 9.238 2.689 18.16 6.33 26.914 10.293 10.058 4.549 9.878 12.661 6.949 26.567z" fill="#fcf29a"/><path d="m898.018 459.219c.371 17.796-6.696 17.489-14.555 13.921-5.475-2.475-11.154-4.461-16.818-6.439-6.175-2.156-12.491-3.875-18.859-5.395 17.965-27.025 31.839-55.791 35.537-89.152 8.493 28.679 14.101 58.465 14.695 87.065z" fill="#fcf29a"/><path d="m615.182 618.4c-9.432-6.205-18.035-12.928-25.023-18.967-24.797-21.436-52.111-50.268-62.012-82.4-.425-1.381-.799-2.791-1.151-4.211 1.108 13.463 4.909 26.928 9.979 38.451 1.833 4.164 3.87 8.234 6.061 12.225 11.441 12.807 23.76 23.996 34.688 32.498 12.274 9.549 24.696 16.916 37.458 22.404z" fill="#ff564d"/><path d="m666.406 711.984c-5.701-16.637-10.408-36.596-8.752-55.168-8.451 15.975-9.477 37.791-7.219 54.455 1.268 9.359 3.893 19.08 8.181 27.752 3.897 2.988 8.279 5.16 13.276 6.047 4.982.883 10.047 1.449 15.158 1.762-9.876-8.084-15.756-20.576-20.644-34.848z" fill="#ff564d"/><path d="m586.385 424.282c9.482 5.075 18.766 11.2 28.05 16.671-27.261-40.303-51.729-95.777-60.606-150.145-.054-.156-.066-.309-.074-.463-4.361-26.979-4.787-53.633.129-78.047-14.1 34.91-15.719 74.793-9.475 112.001 2.335 13.913 5 27.886 8.698 41.532 9.979 21.406 21.488 41.178 32.932 57.82.143.212.232.419.346.631z" fill="#ff564d"/><path d="m788.957 728.594c41.246-13.865 86.994-33.16 117.037-65.961 16.648-18.176 20.501-35.879 12.545-59.602-1.512-4.504-3.546-10.424-6.116-16.621 1.376 20.072-3.018 39.836-16.409 56.988-10.503 13.451-26.154 24.049-39.932 33.783-14.083 9.953-29.102 18.529-44.676 25.91-30.951 14.668-66.824 23.482-101.107 18.324-16.113-2.424-30.403-10.176-38.75-24.471-1.924-3.291-3.678-7.023-5.256-10.914 1.352 6.898 3.152 13.551 5.179 19.467 2.454 7.166 4.927 14.25 8.116 20.568 11.355 22.51 45.26 20.111 71.662 13.654 13.031-3.186 25.736-7.1 37.707-11.125z" fill="#ff564d"/><path d="m869.762 603.789c-13.166 12.949-28.229 23.6-45.21 31.391-23.804 10.926-49.894 14.674-75.472 18.98-64.84 10.93-63.08 35.926-28.628 45 53.7 14.148 132.644-31.121 156.448-63.371 5.762-7.805 11.605-19.055 10.789-29.211-.982-12.232-10.64-9.963-17.927-2.789z" fill="#fcc571"/><g fill="#f4b079"><path d="m639.199 435.861c26.766 9.914 57.943 11.719 86.133 12.99 3.411-3.924 6.805-7.866 10.148-11.846 13.807-16.434 29.922-34.773 44.939-54.504-17.98 19.646-39.65 35.808-64.323 42.567-14.271 3.91-32.095 6.584-46.001.185-14.322-6.592-11.721-20.81-5.244-34.281-11.023 13.92-20.449 28.614-25.652 44.889z"/><path d="m581.186 196.778c19.865 14.925 47.006 21.342 72.789 22.667 9.016-18.957 16.326-38.592 21.198-58.924-7.497 14.066-18.618 26.455-31.223 33.482-25.88 14.43-63.671-3.217-61.08-31.705-12.886 16.781-10.796 27.633-1.684 34.48z"/><path d="m606.637 603.572c10.672 7.342 12.484 5.621 17.135-8.594 2.973-9.105 6.586-17.805 10.648-26.225-2.286 1.93-4.67 3.752-7.223 5.396-14.135 9.119-30.709 4.779-44.147-3.035-14.642-8.512-27.905-21.066-38.438-35.098 1.379 2.344 2.807 4.654 4.322 6.895 15.445 22.827 34.834 44.935 57.703 60.661z"/><path d="m811.738 604.344c4.075-1.893 7.136-3.514 8.723-5.012-8.627 3.744-17.527 6.857-26.65 9.119-8.01 1.986-16.209 2.762-24.428 2.168-8.027-.58-15.664-4.705-17.146-13.039-2.369 5.043-4.582 10.166-6.547 15.41-5.066 13.525 5.039 11.162 16.961 8.246 16.903-4.131 33.484-9.644 49.087-16.892z"/><path d="m760.353 575.186c9.636-16.164 20.91-31.506 32.597-46.602-16.827 12.604-37.758 25.295-58.938 27.025-17.065 1.393-36.678-3.832-50.135-14.484-11.04-8.74-11.311-19.502-8.193-30.557-11.045 13.984-21.313 28.422-30.018 43.721 5.707 1.555 11.469 2.979 17.326 4.191 32.385 6.709 65.121 10.596 97.361 16.706z"/><path d="m686.405 320.092c-16.011 2.138-35.343-3.915-48.846-12.128-12.495-7.602-14.742-19.266-12.479-31.399-8.496 13.024-17.105 26.082-24.379 39.659 7.194 2.447 14.448 4.479 21.348 6.328 27.678 7.412 56.246 14.601 85.145 12.113.859-.074 1.717-.205 2.575-.29 10.261-13.397 19.708-27.587 28.046-42.394-14.252 14.595-31.444 25.446-51.41 28.111z"/><path d="m556.94 245.493c-.14 7.936.151 16.001.884 24.157 1.759 19.534 7.77 29.734 19.764 36.514 6.334 3.582 13.159 6.508 20.104 9 9.954-18.42 22.311-35.852 33.311-53.758.985-1.603 1.935-3.227 2.904-4.838-7.84 8.264-17.072 15.365-28.089 21.387-16.292 8.904-32.007 7.877-42.302-9.016-4.286-7.033-5.903-15.148-6.576-23.446z"/><path d="m550.42 510.469c10.845 8.6 23.979 15.156 35.178 20.701 18.435 9.129 37.225 16.66 56.811 22.24 12.578-21.91 28.311-41.883 45-61.374-25.543 14.823-52.97 26.532-81.717 29.254-23.426 2.217-48.301-8.457-57.287-31.223-7.48-18.96 3.301-34.002 17.977-43.621-7.911 1.77-15.211 5.491-21.133 11.959-15.304 16.71-8.829 40.958 5.171 52.064z"/><path d="m714.221 333.875c35.963-4.433 71.467-18.3 107.482-21.711 4.187-11.223 7.109-22.664 8.338-34.264 1.877-17.744-.853-25.664-8.565-37.703 1.569 9.069 1.108 18.25-3.195 28.221-6.304 14.594-19.419 25.791-34.026 31.443-11.833 4.578-29.211 7.097-37.009-5.395-1.466-2.346-2.413-4.766-3.013-7.227-7.766 14.482-16.598 28.414-26.231 41.672-1.209 1.665-2.502 3.313-3.781 4.964z"/><path d="m894.016 505.113c2.93-13.907 3.109-22.018-6.949-26.569-2.361-1.068-4.737-2.107-7.128-3.117 9.368 32.846-10.888 66.678-37.562 85.838-13.572 9.75-30.816 14.83-46.525 7.014-10.082-5.016-13.092-12.803-12.783-21.387-6.852 9.438-13.373 19.049-19.287 28.969 17.979 3.502 35.793 7.771 53.294 13.656 11.229 3.781 20.146 1.268 28.335-4.967 27.03-20.595 42.058-48.323 48.605-79.437z"/><path d="m839.967 420.097c-15.648 13.871-38.385 21.83-57.357 9.91-11.854-7.448-13.984-18.555-11.735-30.313-6.382 7.942-12.731 15.572-18.772 22.824-7.432 8.925-15.172 17.724-23.015 26.498 4.452.197 8.849.394 13.101.613 26.244 1.361 52.74 2.326 78.729 6.447 7.889 1.252 15.792 2.662 23.615 4.419 13.811-20.78 25.201-42.574 31.355-66.688 5.682-22.258 3.953-33.701-2.384-51.104.076 29.013-11.084 57.489-33.537 77.394z"/><path d="m718.057 629.148c17.164-2.029 19.18-3.377 24.17-16.74 4.371-11.693 9.828-22.855 16.049-33.641-5.903-1.061-11.824-2.045-17.75-3.002 3.002 47.18-109.298 62.822-109.479 9.084-1.499 3.836-2.925 7.711-4.204 11.666-5.192 16.043.63 21.438 13.64 27.695 3.911 1.883 7.889 3.555 11.896 4.908 16.752 2.703 34.301 2.986 53.041 1.332 4.191-.37 8.408-.802 12.637-1.302z"/><path d="m588.463 344.121c-5.521 16.664-3.135 29.184 3.577 43.308 2.472 5.196 5.023 10.292 7.639 15.262 7.787 14.782 18.55 24.787 36.489 31.949 8.612-25.937 27.681-47.316 46.291-67.995-5.33 3.979-10.767 7.807-16.271 11.443-15.186 10.029-35.437 19.624-53.489 11.543-21.214-9.499-22.388-37.219-18.997-59.043-1.948 4.437-3.718 8.941-5.239 13.533z"/><path d="m864.281 435.552c.009-.201-.007-.392.007-.592.047-.756.2-1.535.283-2.303-4.963 9.824-10.606 19.352-16.786 28.648 6.368 1.52 12.685 3.238 18.859 5.395 5.664 1.979 11.344 3.965 16.818 6.439 7.858 3.568 14.926 3.875 14.555-13.921-.067-3.198-.216-6.415-.404-9.638-1.923 1.315-3.902 2.514-5.939 3.551-13.653 6.954-26.727-3.048-27.393-17.579z"/><path d="m657.568 219.595c8.752.292 17.301.049 25.281-.664 28.761-2.561 58.563-14.459 87.68-15 .614-3.407 1.154-6.828 1.619-10.264 1.516-11.155-2.736-19.3-17.546-31.573-.515-.427-1.057-.818-1.574-1.241 3.8 21.771-19.952 38.256-43.614 38.105-13.65-.088-25.752-6.82-29.91-20.248-1.68-5.424-1.723-10.996-1.174-16.613-4.85 19.803-12.01 38.904-20.762 57.498z"/><path d="m831.215 290.772c-1.502 7.104-3.504 14.14-6.057 21.074 7.756-.583 15.537-.622 23.354.05 12.019 1.034 11.932-1.213 7.344-10.92-1.091.418-2.147.893-3.295 1.213-10.957 3.058-17.924-2.965-21.346-11.417z"/><path d="m568.344 324.519c3.485 12.363 7.566 24.617 12.248 36.52 2.094-11.34 5.762-22.053 10.412-32.367-8.274 2.115-16.634 1.167-22.66-4.153z"/></g><path d="m762.912 467.191c-24.26-2.09-27.837-4.088-44.656 11.701-12.323 11.572-22.449 28.131-15.693 41.067 8.378 16.045 32.616 12.711 46.889 8.477 15.821-4.691 36.904-20.166 42.857-35.903 7.183-18.996-11.348-23.782-29.397-25.342z" fill="#fff8d0"/><path d="m853.225 348.527c-7.25-11.149-19.339-7.725-32.26 10.975-2.728 3.94-5.752 7.771-9.134 11.68-6.351 7.342-13.802 14.709-16.849 24.131-5.449 16.838 17.053 16.85 26.92 13.496 20.9-7.104 43.186-42.03 31.323-60.282z" fill="#fff8d0"/><path d="m694.42 395.69c2.801 8.167 13.717 10.739 21.233 10.299 12.515-.735 24.504-8.491 34.245-15.693 56.803-42.009 40.629-59.146-6.424-49.983-22.023 4.288-57.253 31.491-49.054 55.377z" fill="#fff8d0"/><path d="m633.071 340.623c-5.999-2.818-11.853-3.859-17.726-.457-13.078 7.576-4.894 28.131 2.691 36.182 11.027 11.704 33.51 3.344 43.584-5.444 14.71-12.829 5.67-20.242-12.054-23.438-5.883-1.06-11.154-4.336-16.495-6.843z" fill="#fff8d0"/><path d="m650.613 262.75c-16.726 32.594 11.686 52.045 53.637 26.954 15.779-9.438 39.645-34.843 26.926-54.616-4.311-6.697-14.674-5.63-21.295-4.998-6.619.632-13.177 1.731-19.77 2.561-20.227 2.551-26.527 6.604-34.392 20.68-1.729 3.096-3.462 6.21-5.106 9.419z" fill="#fff8d0"/><path d="m628.248 183.722c19.482.856 36.471-20.145 33.539-38.877-3.711-23.722-44.765-4.809-57.051 11.623-12.563 16.802 10.144 26.664 23.512 27.254z" fill="#fff8d0"/><path d="m701.03 183.015c9.843 5.613 25.075 3.395 33.109-4.436 12.411-12.092-16.269-39.873-34.506-28.248-11.274 7.19-9.68 26.364 1.397 32.684z" fill="#fff8d0"/><path d="m614.718 248.322c4.637-4.141 8.89-11.17 6.071-17.471-3.109-6.952-10.697-10.441-17.558-12.646-14.378-4.621-44.308 3.609-23.896 34.99 8.667 13.322 26.777 2.81 35.383-4.873z" fill="#fff8d0"/><path d="m797.096 273.073c8.315-6.989 15.83-20.575 13.492-31.747-1.438-6.869-7.183-12.184-13.787-14.083-11.387-3.278-13.006-.249-16.822 13.067-1.707 5.956-3.588 11.738-6.563 17.58-2.233 4.385-6.208 11.879-3.599 16.875 5.579 10.678 20.665 3.866 27.279-1.692z" fill="#fff8d0"/><path d="m619.105 465.796c-27.958-9.643-75.102 3.83-46.346 25.923 15.729 12.082 43.838 10.83 60.662 1.062 23.005-13.356-5.425-23.926-14.316-26.985z" fill="#fff8d0"/><path d="m857.623 486.263c-3.551-.703-6.643.158-9.361 1.813-5.75 1.367-11.167 6.81-14.927 10.547-6.843 6.799-13.175 15.356-16.719 24.37-4.796 12.195-1.2 26.51 14.288 19.789 15.077-6.541 27.038-21.607 32.512-36.811 2.006-5.569 2.131-18.139-5.793-19.708z" fill="#fff8d0"/><path d="m685.553 573.404c-8.66-2.15-18.225-3.324-26.921-.836-13.126 3.752-12.548 18.443-2.3 24.566 11.742 7.018 30.365 7.109 43.286 4.023 38.578-9.227 6.431-22.673-14.065-27.753z" fill="#fff8d0"/><path d="m911.22 638.361c-29.567 38.045-72.497 61.35-116.692 78.496-.353.137-.586-.438-.256-.609 20.6-10.609 41.877-20.26 61.541-32.58 20.805-13.035 36.678-29.836 55.178-45.535.161-.139.355.064.229.228z" fill="#68182b"/><path d="m792.095 717.148c.148-.023.286.146.157.27-.344.328-.367.814-.76 1.074-.596.396-1.194.691-1.854.973-1.369.584-2.531.869-4.027.822-.238-.006-.42-.33-.209-.506 1.098-.91 2.193-1.512 3.508-2.047.652-.262 1.455-.729 2.18-.729.408.001.498.218 1.005.143z" fill="#68182b"/><path d="m568.532 211.109c-1.521 14.436-3.071 28.549-2.55 43.106.371 10.335 1.334 20.611 1.194 30.96-.005.348-.536.436-.618.082-5.301-22.744-7.086-52.18 1.709-74.186.051-.126.284-.126.265.038z" fill="#68182b"/><path d="m889.374 495.484c-.427 14.678-8.122 29.991-15.588 42.313-8.091 13.352-17.146 26.17-29.235 36.199-.313.26-.705-.133-.445-.445 9.789-11.816 19.544-23.861 27.317-37.135 7.702-13.148 12.622-26.695 17.668-40.971.052-.147.288-.133.283.039z" fill="#68182b"/><path d="m841.949 575.559c.127-.064.246.043.225.174-.283 1.748-1.672 3.971-3.602 4.104-.158.012-.317-.148-.306-.307.127-1.868 2.171-3.173 3.683-3.971z" fill="#68182b"/></g><g><path d="m207.959 870.814c26.193 8.807 53.381 14.803 80.867 17.637 17.901 1.844 43.678 3.811 58.627-8.578 18.607-15.422 27.782-39.605 35.055-61.98 5.309-16.338 13.476-39.922 2.662-55.225 34.318-14.463 62.513-41.637 86.863-70.367 31.531-37.205 57.107-97.932 11.074-135.551-17.211-14.063-34.22-14.332-50.873-8.881 37.474-59.492 65.962-140.538 53.327-209.034-17.894-97.008-152.378-113.479-224.556-70.676-43.33 25.695-75.949 70.252-101.971 112.269-33.172 53.565-54.496 113.2-63.662 175.423-5.682 38.574-5.586 82.566 10.672 119.184-15.668 8.178-25.063 29.342-31.402 44.268-8.428 19.846-13.613 43.705-3.479 63.785 23.515 46.601 90.926 72.305 136.796 87.726z" fill="#68182b"/><path d="m383.788 533.268c-9.681-21.949-22.103-42.999-34.623-63.709 30.233-8.789 59.457-19.93 84.738-38.643 14.495-10.732 6.496 10.23 1.313 26.698-7.124 22.633-16.096 44.72-26.39 66.048-10.503 21.762-16.613 28.693-25.038 9.606z" fill="#fcf29a"/><path d="m435.725 425.114c-26.061 20.539-56.64 32.286-88.382 41.432-6.501-10.733-12.986-21.388-19.087-32.036-15.221-26.568-31.271-56.89-41.128-88.321 2.134-.362 4.269-.72 6.396-1.1 36.878-6.603 77.201-9.38 111.138-25.169 11.729 21.029 25.813 41.064 36.997 62.592 9.458 18.196 11.306 29.017-5.934 42.602z" fill="#fcf29a"/><path d="m444.562 289.749c12.469 11.151 22.198 25.333 27.63 42.857 12.293 39.669 1.664 84.687-10.911 122.869-11.097 33.698-27.169 69.962-47.346 99.296-.337.49-.554.975-.72 1.453-7.078 3.756-14.083 7.994-20.998 12.094 28.583-39.168 45.824-91.022 57.17-135.688 11.1-43.691 18.619-101.492-4.83-142.834-.002-.015.005-.031.005-.047z" fill="#ff8f5b"/><path d="m449.853 323.928c2.683 12.683 3.515 26.058 3.097 39.514-.693 22.336-3.137 25.765-15.426 4.688-9.742-16.715-20.643-32.851-29.973-49.635 7.944-3.92 15.502-8.612 22.561-14.283 12.947-10.398 15.601.137 19.741 19.716z" fill="#fcf29a"/><path d="m410.868 269.039c5.312 2.197 19.37 9.744 27.123 23.301-9.478 9.74-20.296 17.321-32.067 23.227-5.714-10.551-10.706-21.405-14.343-32.852-7.992-25.192.988-21.237 19.287-13.676z" fill="#fcf29a"/><path d="m299.537 264.573c11.968-3.897 24.646-6.386 38.112-7.165 36.721-2.115 45.599 9.722 50.238 24.709 3.768 12.179 9.062 23.67 15.126 34.825-35.518 16.838-78.671 20.009-116.919 26.017-4.416-14.77-7.376-29.766-8.176-44.715-.971-18.108 1.774-27.222 21.619-33.671z" fill="#fcf29a"/><path d="m494.432 594.693c11.587 35.615-13.645 69.527-35.24 95.01-23.553 27.793-49.988 50.762-83.909 64.906-11.457 4.777-24.085 7.307-37.137 8.369 50.487-15.375 93.601-54.465 123.634-97.441 16.872-24.141 29.519-52.723 13.321-80.627-10.964-18.883-30.389-25.197-49.927-23.635 29.758-12.832 59.309 2.827 69.258 33.418z" fill="#ff8f5b"/><path d="m427.888 680.461c-30.517 9.541-64.606 11.322-95.391 15.816-.801.117-1.624.236-2.433.354-16.825-15.92-31.554-34.777-44.309-54.686 5.287-1.203 10.516-2.387 15.582-3.555 48.178-11.102 98.148-17.971 138.236-46.555 15.801-11.27 25.371-12.902 32.074 1.32 2.188 4.648 3.704 9.998 4.385 16.092 1.512 13.537-3.789 27.402-11.418 40.256-10.834 18.265-19.059 25.435-36.726 30.958z" fill="#fcf29a"/><path d="m427.994 696.293c-6.624 6.998-13.656 13.682-21.045 19.934-13.634 11.537-26.812 15.625-41.81 6.924-11.328-6.568-21.93-14.531-31.825-23.525.034-.006.069-.012.103-.018 31.25-4.734 65.475-6.447 96.293-16.154 16.884-5.325 4.623 6.148-1.716 12.839z" fill="#fcf29a"/><path d="m325.918 697.232c-19.602 2.842-40.564 6.096-58.279 14.58-15.268 7.313-29.145 17.504-44.148 25.295-12.68-11.289-23.448-25.123-31.818-37.928-4.596-7.035-8.729-14.354-12.564-21.838 31.244-17.432 68.941-26.777 103.206-34.611 12.571 19.704 27.07 38.473 43.603 54.502z" fill="#fcf29a"/><path d="m441.551 586.182c-44.873 34.314-103.518 39.068-157.613 52.902-13.926-22.17-25.441-45.502-34.677-67.424-9.292-22.055-16.56-45.104-22.657-68.445 19.045-6.077 38.411-11.321 57.484-16.481 20.348-5.505 41.195-10.38 61.651-16.199 12.874 21.232 25.593 42.668 35.383 65.172 7.647 17.566 6.991 27.615-4.925 41.605-3.964 2.029-7.895 3.844-11.789 5.287-6.896 2.559-4.471 9.109 2.507 6.523 13.351-4.949 25.055-8.004 36.482-15.404 11.774-4.744 24.569-6.301 36.122-4.213 13.622 2.456 13.156 8.167 2.032 16.677z" fill="#fcf29a"/><path d="m317.352 422.05c8.182 15.287 17.374 30.342 26.563 45.478-25.206 7.104-51.034 12.784-75.808 20.121-14.138 4.187-28.276 8.341-42.228 12.813-4.286-16.682-8-33.494-11.362-50.213-5.602-27.867-9.812-57.455-8.415-86.414 4.734-1.682 9.527-3.176 14.279-4.566 20.744-6.078 42.271-9.006 63.581-12.539 8.357 26.527 20.98 52.131 33.39 75.32z" fill="#fcf29a"/><path d="m248.288 578.168c8.801 20.168 19.531 41.418 32.283 61.779-33.529 8.844-71.213 17.369-102.889 34.543-9.166-18.385-16.475-37.777-23.245-57.043-7.753-22.063-15.019-46.342-19.678-71.182 26.505-18.895 56.854-31.686 88.267-41.916 6.719 25.311 14.967 50.237 25.262 73.819z" fill="#fcf29a"/><path d="m218.956 739.359c-10.152 4.039-29.165-3.027-38.1-7.561-13.907-7.059-26.947-15.607-38.512-25.928 9.629-10.594 21.069-19.342 33.666-26.697 11.198 22.362 25.274 44.251 42.946 60.186z" fill="#fcf29a"/><path d="m141.584 437.302c4.717-10.196 9.811-20.221 15.229-30.052 9.465-17.175 27.901-35.322 45.917-42.167-.943 25.093 2.199 50.534 6.404 75.096 3.492 20.396 7.855 41.021 13.174 61.426-31.34 10.213-61.568 22.322-88.227 40.859-2.365-13.434-3.929-27.002-4.348-40.455-.996-32.189 2.982-45.551 11.851-64.707z" fill="#fcf29a"/><path d="m110.415 534.703c3.715-21.488 9.56-42.614 17.041-63.208-2.75 23.921-.918 48.769 3.566 73.228-8.833 6.379-17.288 13.439-25.207 21.469 1.24-10.917 2.877-21.516 4.6-31.489z" fill="#fcf29a"/><path d="m103.575 606.004c-.264-22.203 6.991-40.639 20.818-51.869 2.412-1.957 4.861-3.855 7.351-5.695 5.31 27.34 13.679 54.086 22.329 78.295 5.35 14.971 12.075 32.281 20.47 49.461-6.984 3.967-13.641 8.387-19.867 13.361-8.718 6.963-21.607 11.781-34.021-9.969-12.367-21.67-16.775-47.488-17.08-73.584z" fill="#fcf29a"/><path d="m368.241 824.256c-6.344 18.301-16.867 44.537-36.957 51.213-6.256 2.08-12.953 3.254-19.906 3.756 9.568-7.109 15.458-18.297 20.585-31.742 8.401-22.035 14.974-50.684 7.542-74.217 1.992-.15 4.002-.209 5.984-.4 9.866-.953 19.281-2.99 28.295-5.91.004.006.006.01.011.014 12.7 12.184-.916 43.903-5.554 57.286z" fill="#ff8f5b"/><path d="m221.792 741.797c4.412 3.738 9.039 7.096 13.895 10.008-7.357-1.846-14.68-3.98-21.918-6.396 2.722-1.102 5.392-2.315 8.023-3.612z" fill="#fcf29a"/><path d="m226.302 739.531c11.247-6.004 21.877-13.283 32.97-19.631 21.027-12.033 46.062-16.037 69.842-19.637 10.66 9.947 22.143 18.736 34.477 25.912 14.674 8.531 11.926 14.436-10.688 23.973-16.44 6.939-33.819 11.365-51.874 12.473-7.158-.607-14.246-1.455-21.141-2.434-18.341-2.609-33.052-3.392-53.586-20.656z" fill="#fcf29a"/><path d="m237.518 300.837c5.726-4.99 11.666-9.666 17.834-13.963 19.668-13.709 18.156 4.671 19.994 20.635 1.391 12.063 4.069 24.087 7.631 35.939-.654.105-1.326.203-1.979.311-25.156 4.198-50.332 8.021-74.547 16.299-.035.011-.063.026-.1.037 1.764-26.974 11.049-41.725 31.167-59.258z" fill="#fcf29a"/><path d="m189.242 355.639c5.472-7.727 11.226-15.239 17.218-22.503-1.913 9.33-3.058 18.783-3.57 28.297-11.811 4.534-20.898 10.482-29.443 17.785 5.091-8.015 10.35-15.892 15.795-23.579z" fill="#fcf29a"/><path d="m79.92 739.418c3.582-15.061 14.914-46.293 31.186-54.146 1.704 3.074 3.496 6.102 5.471 9.037 21.213 31.52 58.617 49.578 93.371 61.676 38.587 13.432 81.417 19.848 122.55 17.746 6.525 18.098 2.134 40.244-2.541 58.059-2.433 9.271-5.46 18.764-10.007 26.877-12.179 21.73-38.564 20.9-70.461 12.488-11.791-3.107-23.014-6.617-32.912-9.656-42.816-13.139-86.526-33.152-119.258-64.35-17.834-17.001-23.119-33.678-17.399-57.731z" fill="#ff8f5b"/><path d="m467.444 656.941c-1.808 2.918-3.703 5.789-5.664 8.596-30.033 42.977-73.146 82.066-123.634 97.441 13.052-1.063 25.68-3.592 37.137-8.369 16.847-7.025 31.841-16.234 45.558-27.121 5.354-5.299 10.438-10.848 15.219-16.52 12.872-15.273 23.654-32.689 30.49-51.49.292-.804.595-1.691.894-2.537z" fill="#ff564d"/><path d="m342.049 785.211c2.649 20.813-3.064 43.852-10.087 62.271-5.127 13.445-11.017 24.633-20.585 31.742 6.953-.502 13.65-1.676 19.906-3.756 1.236-.41 2.436-.898 3.602-1.451 3.34-6.086 6.086-12.307 8.118-18.271 6.769-19.855 9.757-50.482-.954-70.535z" fill="#ff564d"/><path d="m319.95 858.666c4.547-8.113 7.574-17.605 10.007-26.877 1.844-7.025 3.614-14.727 4.718-22.584-4.65 7.473-11.293 14.281-16.249 18.857-12.952 11.957-30.083 18.008-47.313 20.033-29.829 3.51-60.658-6.264-87.757-17.809-24.866-10.596-49.095-24.635-69.749-42.127-11.983-10.15-21.254-22.678-26.46-37.531-3.011-8.592-3.535-17.283-2.757-25.939-1.997 5.555-3.515 10.721-4.469 14.729-5.721 24.053-.436 40.73 17.398 57.73 32.731 31.197 76.441 51.211 119.258 64.35 9.898 3.039 21.121 6.549 32.912 9.656 31.896 8.412 58.282 9.242 70.461-12.488z" fill="#ff564d"/><path d="m413.215 556.225c.166-.479.383-.963.72-1.453 8.919-12.965 16.981-27.318 24.223-42.174 4.122-12.135 7.597-24.499 10.641-36.86 7.027-28.545 11.841-58.375 13.853-87.702 1.043-15.228 1.271-36.491-4.143-53.729 4.189 32.94-1.631 68.84-9.121 98.324-11.346 44.666-28.587 96.52-57.17 135.688 6.914-4.1 13.919-8.339 20.997-12.094z" fill="#ff564d"/><path d="m288.387 791.477c-41.615-5.543-104.868-30.039-123.752-41.916-9.688-6.094-19.182-12.482-28.945-18.453-4.633-2.83-11.516-6.854-17.256-5.637-15.316 3.242-12.197 24.592-7.193 34.955 7.856 16.271 23.807 27.016 39.016 35.68 18.51 10.547 38.003 19.17 58.529 24.902 43.783 12.234 65.373 8.377 85.959-8.854 13-10.879 4.529-19.228-6.358-20.677z" fill="#fcc571"/><g fill="#f4b079"><path d="m134.759 546.266c4.659 24.84 11.925 49.119 19.678 71.182 6.771 19.266 14.079 38.658 23.245 57.043 31.676-17.174 69.359-25.699 102.889-34.543-5.574-8.9-10.689-17.973-15.5-27.047-4.409 11.123-12.012 20.773-23.305 27.426-22.419 13.213-55.601 9.688-71.121-11.883-11.252-15.635-13.667-37.455-14.236-56.115-.535-17.551 3.404-33.697 13.355-46.732-12.192 6.014-23.948 12.786-35.005 20.669z"/><path d="m406.949 716.227c2.505-2.119 4.906-4.354 7.326-6.566-5.011 2.631-10.191 4.916-15.569 6.684-11.338 3.721-23.279 3.572-33.724-2.496-6.147-3.572-9.132-10.469-9.038-17.225-7.615.924-15.158 1.867-22.527 2.984-.033.006-.068.012-.103.018 9.896 8.994 20.497 16.957 31.825 23.525 14.998 8.701 28.176 4.613 41.81-6.924z"/><path d="m360.588 434.284c-22.791-4.239-35.66-26.085-43.23-45.933-5.323-13.959-10.914-33.187-3.279-46.609-6.926 1.058-13.8 2.137-20.555 3.347-2.127.38-4.262.737-6.396 1.1 9.856 31.432 25.907 61.753 41.128 88.321 5.873 10.251 12.105 20.51 18.36 30.836.803.229 1.595.498 2.403.694 31.141-9.075 61.105-20.751 86.705-40.926 3.182-2.507 5.705-4.921 7.658-7.302-24.7 14.996-56.442 21.373-82.794 16.472z"/><path d="m302.237 263.786c-.895.274-1.814.499-2.7.787-19.845 6.449-22.59 15.563-21.618 33.671.8 14.949 3.76 29.945 8.176 44.715 38.248-6.008 81.401-9.179 116.919-26.017-3.728-6.856-7.105-13.865-10.076-21.06-1.203 4.695-3.249 9.099-7.024 13.232-6.335 6.937-16.139 10.305-24.879 12.821-14.115 4.065-30.131 6.474-44.74 7.272-23.797 1.297-33.688-15.217-30.23-36.693 1.97-12.237 7.958-21.306 16.172-28.728z"/><path d="m272.397 601.641c-10.229-11.652-15.029-28.758-19.006-43.42-4.713-17.387-4.321-34.363 5.957-49.537 6.088-8.984 14.559-16.104 24.129-21.784-18.875 5.107-38.029 10.304-56.873 16.315 6.098 23.342 13.365 46.391 22.657 68.445 9.235 21.922 20.751 45.254 34.677 67.424 46.59-11.914 96.53-17.143 138.164-40.27-16.449 6.879-34.154 11.143-51.521 15.432-31.173 7.703-74.283 14.629-98.184-12.605z"/><path d="m301.028 762.621c18.055-1.107 35.434-5.533 51.874-12.473 22.614-9.537 25.362-15.441 10.688-23.973-4.545-2.645-8.935-5.574-13.25-8.635.423 9.385-.96 17.26-10.584 23.629-13.746 9.096-32.248 11.039-48.252 10.742-10.515-.193-21.45-1.49-30.686-6.852-10.732-6.23-9.426-15.422-4.112-23.635-10.171 5.975-20.031 12.568-30.404 18.105 20.534 17.264 35.245 18.047 53.585 20.656 6.895.981 13.983 1.829 21.141 2.436z"/><path d="m154.675 689.557c6.227-4.975 12.883-9.395 19.867-13.361-3.007-6.152-5.726-12.285-8.317-18.357-.396 1.326-.853 2.654-1.465 4-5.063 11.152-18.383 13.098-28.539 8.773-11.352-4.832-17.648-18.447-21.583-29.273-7.666-21.092-9.21-43.592-5.905-65.455-3.527 8.805-5.291 18.988-5.158 30.121.306 26.096 4.713 51.914 17.08 73.584 12.413 21.749 25.303 16.931 34.02 9.968z"/><path d="m391.91 502.145c-14.433-2.049-22.37-16.688-22.313-29.961.014-3.333.66-6.563 1.747-9.654-7.302 2.539-14.708 4.857-22.179 7.029 12.521 20.711 24.942 41.76 34.623 63.709 8.426 19.088 14.535 12.156 25.039-9.605 4.477-9.275 8.648-18.719 12.58-28.262-8.61 5.393-18.432 8.316-29.497 6.744z"/><path d="m473.889 599.043c-3.51 34.57-35.059 59.184-68.063 70.572-17.293 5.969-35.896 8.123-54.107 6.734-11.395-.865-22.229-4.916-28.607-14.842-5.698-8.863-4.994-18.775-1.146-27.67-6.891 1.48-13.775 2.975-20.627 4.553-5.066 1.168-10.295 2.352-15.582 3.555 12.755 19.908 27.483 38.766 44.309 54.686.809-.117 1.632-.236 2.433-.354 30.784-4.494 64.874-6.275 95.391-15.816 17.667-5.523 25.892-12.693 36.728-30.957 7.629-12.854 12.93-26.719 11.418-40.256-.413-3.682-1.162-7.059-2.147-10.205z"/><path d="m427.251 340.863c-5.938-10.156-6.318-21.891-2.681-32.475-5.428 3.852-11.117 7.195-17.02 10.107 9.33 16.784 20.23 32.92 29.973 49.635 12.289 21.076 14.732 17.647 15.426-4.688.088-2.79.085-5.572.059-8.352-1.574.564-3.245.976-5.058 1.169-9.323.994-16.625-8.427-20.699-15.396z"/><path d="m218.956 739.359c-5.529-4.986-10.67-10.605-15.518-16.59-9.085 2.363-19.103.949-28.331-4.043-9.528-5.156-15.993-17.371-15.529-28.52-6.197 4.74-12.001 9.908-17.233 15.664 11.564 10.32 24.604 18.869 38.512 25.928 8.934 4.534 27.946 11.6 38.099 7.561z"/><path d="m220.381 359.269c-4.752 1.391-9.545 2.885-14.279 4.566-1.396 28.959 2.813 58.547 8.415 86.414 3.362 16.719 7.076 33.531 11.362 50.213 13.951-4.473 28.09-8.627 42.228-12.813 24.773-7.337 50.602-13.018 75.808-20.121-6.609-10.888-13.207-21.735-19.442-32.655-2.867 11.436-9.613 21.277-21.38 28.578-18.273 11.34-42.705 12.238-61.571 2.037-19.888-10.75-23.539-39.63-24.223-59.697-.571-16.711 1.806-36.074 12.829-49.124-3.264.807-6.518 1.655-9.747 2.602z"/><path d="m129.735 502.01c.419 13.453 1.982 27.021 4.348 40.455 26.658-18.537 56.887-30.646 88.227-40.859-4.039-15.499-7.522-31.121-10.495-46.674-2.776 8.416-7.326 16.344-14.722 23.732-13.852 13.84-43.055 21.553-56.714 3.195-6.359-8.547-6.587-19.893-4.228-31.686-5.022 13.609-7.18 27.215-6.416 51.837z"/><path d="m206.352 360.095c.036-.011.064-.026.1-.037 24.215-8.277 49.391-12.101 74.547-16.299.652-.107 1.324-.205 1.979-.311-2.393-7.965-4.342-16.01-5.814-24.092-5.935 10.488-15.486 18.426-28.16 21.238-12.615 2.797-23.506-3.668-24.33-17.176-.271-4.43.829-8.773 2.655-12.92-13.145 13.831-19.545 27.677-20.977 49.597z"/><path d="m391.581 282.714c3.637 11.446 8.629 22.301 14.343 32.852 11.369-5.703 21.818-13.016 31.061-22.28-5.696 3.103-12.079 4.868-19.636 4.849-16.478-.041-29.43-20.891-19.799-34.102-8.723-2.375-11.649.773-5.969 18.681z"/><path d="m223.491 737.107c15.004-7.791 28.881-17.982 44.148-25.295 17.715-8.484 38.678-11.738 58.279-14.58-8.914-8.643-17.188-18.121-24.934-28.07-6.256 23.912-31.553 40.807-56.833 41.717-15.398.555-32.866-6.254-38.268-21.701-3.005-8.594-.187-18.258 5.284-26.373-11.126 4.172-21.951 8.898-32.061 14.537 3.836 7.484 7.969 14.803 12.564 21.838 8.372 12.804 19.141 26.638 31.821 37.927z"/><path d="m200.903 362.302c-4.82-.666-9.032-2.691-11.82-6.434-5.386 7.613-10.594 15.412-15.637 23.35 8.038-6.871 16.644-12.494 27.457-16.916z"/></g><path d="m422.093 613.979c-31 17.498-48.144 21.668-56.927 24.131-19.988 5.613-19.361 13.584-9.967 20.223 6.233 4.41 15.584 6 22.748 5.273 20.559-2.09 38.551-10.383 52.675-24.521 10.792-10.804 5.789-33.185-8.529-25.106z" fill="#fff8d0"/><path d="m229.522 667.027c-11.74 8.643-2.772 23.703 9.249 25.609 12.988 2.063 32.511-3.426 38.533-16.123 8.579-18.087-23.323-27.488-47.782-9.486z" fill="#fff8d0"/><path d="m239.995 592.959c-.492-13.223-8.091-25.512-15.613-35.848-3.399-4.674-7.461-8.709-11.49-12.764-13.033-13.109-22.035-18.293-27.371 5.756-1.73 7.791-1.765 16.328-1.616 22.9.364 16.117 3.519 43.643 21.362 50.148 20.669 7.537 35.446-10.885 34.728-30.192z" fill="#fff8d0"/><path d="m352.916 519.336c-10.263-28.815-12.674-38.181-41.87-23.165-16.308 8.383-29.932 21.485-34.274 40.006-4.333 18.482 2.546 40.836 21.324 47.887 19.907 7.479 49.585-8.223 56.927-27.363 4.915-12.814 2.358-24.822-2.107-37.365z" fill="#fff8d0"/><path d="m256.965 450.942c17.303 8.171 42.63-3.667 44.111-23.263.936-12.377-8.612-33.512-24.344-50.111-11.124-11.738-23.586-14.584-32.864.805-4.524 7.502-6.984 16.896-7.888 24.084-2.203 17.514 3.813 40.375 20.985 48.485z" fill="#fff8d0"/><path d="m337.784 373.14c-4.605 20.357 13.929 37.994 32.41 41.256 17.459 3.086 41.783-1.126 51.889-17.104 7.615-12.043 2.354-25.751-5.885-37.748-15.463-22.514-13.492-27.572-48.293-15.407-14.297 4.999-26.754 14.124-30.121 29.003z" fill="#fff8d0"/><path d="m414.201 457.578c-6.976-1.396-16.344 3.621-22.091 7.065-6.62 3.964-12.163 10.492-9.361 18.538 3.256 9.346 12.455 8.32 19.253 3.58 3.895-2.715 6.463-6.326 8.448-10.576 2.253-4.82 4.799-11.771 2.503-16.912-.048-.104-.162-.115-.252-.168.546-.338 1.142-.625 1.635-1.018.177-.138.076-.466-.135-.509z" fill="#fff8d0"/><path d="m326.639 311.05c12.195 3.485 28.527.924 37.762-8.125 4.06-3.977 4.894-10.442 3.441-16.375-2.615-10.691-11.992-14.582-26.967-13.533-10.51.73-21.692 4.408-26.578 11.48-8.189 11.849.387 23.137 12.342 26.553z" fill="#fff8d0"/><path d="m248.2 328.786c6.591-.628 11.925-7.425 14.107-13.169.443-1.16.828-2.615 1.08-4.187 2.305-14.38-2.975-16.188-15.547-7.235-3.559 2.529-7.088 5.918-8.799 10.004-2.652 6.325 1.506 15.315 9.159 14.587z" fill="#fff8d0"/><path d="m169.15 424.062c-5.013 5.549-8.977 12.236-11.571 18.807-3.063 7.756-5.961 24.657 5.514 27.924 23.184 6.605 31.428-21.689 28.169-41.359-4.004-24.167-6.426-22.746-22.112-5.372z" fill="#fff8d0"/><path d="m137.639 609.436c-1.205-2.322-2.358-4.648-3.429-7.02-8.956-19.771-13.155-15.604-16.109 3.072-.864 5.469-.819 11.15-.202 16.746.886 8.072 5.464 24.58 15.821 25.35 10.397.771 12.761-11.418 11.735-19.428-.837-6.535-4.84-12.994-7.816-18.72z" fill="#fff8d0"/><path d="m305 739c8.113-.467 21.275-1.92 24.143-11.154.908-2.932-.1-5.967-2.128-8.561-6.802-8.703-22.905-9.982-33.798-1.615-14.982 11.516-12.412 22.715 11.783 21.33z" fill="#fff8d0"/><path d="m95.165 778.143c-10.205-18.291-6.631-36.68 1.475-55.141.059-.133.23-.029.215.09-1.373 9.883-5.422 19.504-5.449 29.59-.031 11.84 4.172 22.5 11.808 31.549 12.712 15.057 28.576 24.814 44.675 35.746.182.125.069.473-.158.379-20.118-8.362-41.658-22.663-52.566-42.213z" fill="#68182b"/><path d="m150.574 822.736c-.228-.275-.024-.811.385-.662 1.788.65 3.399 1.664 5.062 2.578 1.6.881 3.033 1.586 4.311 2.91.219.227.072.662-.268.645-3.481-.186-7.304-2.824-9.49-5.471z" fill="#68182b"/><path d="m140.934 465.546c1.461-12.365 6.863-24.082 12.006-35.301 5.045-11.006 10.15-24.437 18.893-33.137.15-.148.371.041.283.219-10.988 22.225-23.914 44.229-30.545 68.305-.095.342-.682.285-.637-.086z" fill="#68182b"/><path d="m287.158 278.769c-.13.063-.286-.106-.162-.212 12.757-11.095 33.568-14.663 49.985-14.767.313-.002.383.472.074.549-17.271 4.282-33.655 6.571-49.897 14.43z" fill="#68182b"/><path d="m340.436 263.891c-.212.003-.275-.278-.104-.384 2.329-1.476 4.883-1.703 7.472-.866.274.087.274.466 0 .554-2.429.789-4.835.668-7.368.696z" fill="#68182b"/><path d="m280.821 754.457c-.133-.035-.109-.264.033-.246 17.803 2.23 34.072-1.631 51.447-4.75.293-.051.518.363.217.512-15.531 7.683-35.08 9.074-51.697 4.484z" fill="#68182b"/><path d="m335.194 749.084c-.171-.025-.207-.268-.1-.377 1.576-1.563 3.506-1.764 5.629-1.773.221 0 .264.271.104.385-1.752 1.265-3.428 2.093-5.633 1.765z" fill="#68182b"/></g></g></svg>