<svg id="Puppies" height="512" viewBox="0 0 1200 1200" width="512" xmlns="http://www.w3.org/2000/svg"><g><path d="m854.216 400.094-6.574-2.041c-48.201-15.076-100.165-23.045-150.281-23.045-6.879 0-13.8.148-20.641.443-5.459-11.869-10.779-24.639-16.109-38.66 4.139-11.568 2.719-23.527-4.285-33.953-10.11-15.059-17.899-27.389-23.002-43.512 2.912-9.246 1.941-18.641-2.957-26.73-4.195-6.93-3.195-11.762.996-24.91 3.771-11.826 8.465-26.547 3.737-44.242-5.88-22.031-18.716-37.502-37.12-44.738-16.492-6.486-34.977-9.639-56.51-9.639-27.699 0-56.193 5.418-79.092 9.77-53.746 10.215-105.529 28.674-153.912 54.869-22.379 12.115-81.826 44.301-72.539 99.688 3.775 22.523 20.312 33.086 32.385 40.803 8.01 5.115 12.955 8.504 14.102 12.4l.652 2.23c2.66 9.148 5.824 20.025 15.473 27.641 2.098 7.965 5.352 17.076 10.996 26.227 2.598 4.209 5.355 7.68 7.791 10.742 3.564 4.482 5.625 7.17 6.549 10.256l1.081 3.674c3.183 10.895 6.726 23.045 17.866 31.867 27.535 53.771 30.783 97.914 10.609 142.721-13.542 30.07-34.002 58.363-53.789 85.723-8.59 11.879-17.475 24.162-25.775 36.551-24.893 37.135-47.738 77.928-46.365 124.549.908 31.021 16.975 59.572 43.992 79.633-9.723 14.648-15.68 30.051-17.77 46.008-6.07 46.426 17.477 90.246 62.992 117.219 21.911 12.986 46.963 19.297 76.586 19.299h.01c31.605 0 63.249-7.273 92.949-14.727 16.314-4.092 32.545-8.508 48.242-12.777 46.548-12.666 90.514-24.629 137.619-29.129 48.137-4.6 98.484-12.217 138.533-49.563 38.333-35.742 62.709-93.275 72.454-171.002 2.208-17.609 3.681-35.205 5.104-52.223 2.264-27.035 4.412-52.707 9.273-78.566 10.088-7.881 15.125-19.633 14.236-33.377-1.193-18.541.007-32.92 4.14-48.053 10.016-8.973 11.735-19.523 11.759-25.613.029-8.221 3.922-12.582 15.039-22.953 6.857-6.398 14.629-13.648 20.789-23.656 11.528-18.734 12.156-42.723 1.637-62.602-20.469-38.692-74.87-55.491-110.87-66.602z" fill="#fff"/><g><g><path d="m606.654 266.43c4.677 16.545 10.368 29.314 17.913 40.195 1.288 1.863 2.669 3.525 3.973 5.104 4.752 5.74 9.238 11.164 3.704 20.537-24.665 41.76-75.737 66.023-114.239 79.027-31.674 10.697-63.93 16.121-95.863 16.121-13.912 0-27.689-1.068-40.947-3.178l-1.029-.162c-10.99-1.734-22.355-3.529-26.762-16.043-1.059-3.012-1.867-6.078-2.648-9.045-1.111-4.221-2.16-8.205-3.889-12.131-1.662-3.771-4.678-7.225-7.594-10.566l-1.859-2.148c-6.227-7.342-10.259-15.924-13.07-27.828-.098-.416.014-.857.303-1.174.249-.277.602-.432.969-.432.057 0 .112.004.17.012 12.186 1.605 24.945 2.418 37.92 2.418 62.126 0 131.65-18.438 195.767-51.916l1.181-.615c8.437-4.387 30.847-16.039 43.833-28.752.247-.242.575-.375.913-.375.112 0 .225.018.335.045.443.119.793.464.919.906zm-58.926 477.97c.039.004.074.006.111.006.384 0 .75-.172 1-.469 9.215-10.998 17.135-23.191 23.537-36.24.166-.34.178-.734.031-1.082-27.292-64.947-88.881-134.848-159.613-134.848-8.865 0-17.809 1.096-26.58 3.256-.424.105-.768.414-.916.826-5.419 14.998-12.865 30.381-22.764 47.027-.244.412-.244.926.003 1.338.235.396.661.637 1.12.637.018 0 .035-.002.057-.002 1.936-.082 3.873-.121 5.803-.121 74.308 0 142.539 59.783 177.195 119.029.213.368.594.608 1.016.643zm63.003 88.116c-16.049-34.547-41.473-57.041-73.525-65.055-.105-.025-.211-.039-.316-.039-.307 0-.605.107-.842.307-12.88 10.873-27.674 21.189-45.229 31.541-.412.242-.657.689-.642 1.166.017.477.29.908.718 1.123 30.738 15.508 56.873 46.541 73.583 87.381 11.866 29.006 29.338 84.619 13.011 131.166-.16.455-.057.959.27 1.314.25.273.601.424.963.424.107 0 .215-.014.321-.041 10.96-2.793 20.788-5.043 30.042-6.885.443-.088.887-.758 1.043-1.18 24.828-50.611 25.086-128.521.603-181.222zm277.17-239.442c-.123 0-.248.018-.369.053-15.082 4.428-34.681 4.781-45.211 4.971l-2.724.053c-3.425.076-6.878.117-10.353.117-86.034 0-166.227-23.045-220.012-63.223-.227-.172-.502-.262-.78-.262-.14 0-.281.023-.416.07-.407.135-.72.463-.839.875-3.009 10.441-2.854 19.707-2.689 29.518.113 6.654.228 13.535-.748 20.814-.45 3.338-1.73 6.703-3.084 10.264-1.868 4.912-3.802 9.992-3.447 15.166.529 7.719 8.596 13.953 14.482 18.504l1.563 1.215c37.294 29.328 86.193 48.24 137.686 53.252 11.563 1.125 22.02 1.672 31.969 1.672 19.004 0 35.759-2.002 51.225-6.121 1.757-.469 3.942-.982 6.406-1.563 9.816-2.314 23.258-5.48 32.857-10.879l-.689-1.109 1.145.861c4.908-2.848 8.063-5.893 9.643-9.307 2.129-4.607 1.146-10.65.197-16.492-.488-2.99-.947-5.818-.918-8.158.138-11.816 2.159-24.09 6.362-38.623.132-.457.005-.951-.333-1.287-.251-.246-.583-.381-.923-.381z" fill="#91deff"/><path d="m870.171 675.914c.393.299.584.797.494 1.281-4.455 23.789-7.184 49.607-10.071 76.943-2.321 21.953-4.718 44.654-8.124 66.768-.1.639-.648 1.105-1.291 1.107-.01 0-2.233-.021-2.233-.021-31.718 0-60.14 13.197-82.195 38.166-30.337 34.346-46.005 88.172-39.913 137.129.08.65-.336 1.264-.973 1.428l-2.136.555c-1.904.502-3.812 1.004-5.815 1.422-17.656 3.701-35.974 5.352-53.687 6.947-8.194.74-16.669 1.504-24.935 2.461-6.185.715-12.51 1.635-19.337 2.811-.074.014-.148.02-.223.02-.397 0-.778-.182-1.028-.5-.296-.379-.359-.887-.168-1.328 23.018-52.779 22.255-129.012-1.811-181.262-15.846-34.404-40.746-57.633-72.004-67.178-.445-.135-.785-.498-.891-.953-.104-.455.041-.93.383-1.25 32.01-29.816 49.664-70.686 55.562-128.621.052-.504.392-.934.87-1.1.14-.049.285-.074.43-.074.346 0 .686.141.936.396 33.608 34.52 91.084 50.518 133.379 57.861 16.029 2.783 32.293 4.195 48.342 4.195 32.66 0 62.077-5.994 85.072-17.334.184-.09.382-.135.578-.135.278 0 .556.09.789.266zm-387.841 128.828c-.161-.07-.335-.104-.506-.104-.22 0-.44.057-.639.168-16.991 9.521-34.8 18.305-52.022 26.801-4.507 2.221-9.006 4.441-13.49 6.672-3.962 1.971-8.063 3.98-12.264 6.037-14.578 7.137-29.656 14.518-44.58 23.092-.43.244-.684.715-.652 1.209.029.496.338.932.794 1.125 31.888 13.469 48.96 57.555 53.433 70.742 12.674 37.379 12.545 79.186-.371 120.902-.125.414-.043.861.227 1.201.25.313.626.492 1.021.492.031 0 .065-.002.098-.004 36.412-2.729 73.004-13.99 108.394-24.883 12.833-3.951 24.956-7.682 37.002-10.998 3.171-.875 6.343-1.736 9.519-2.584.418-.111.82-.664.963-1.074 29.801-72.655-16.506-189.21-86.927-218.794zm461.952-301.195c-2.32 15.555-13.926 25.063-25.151 34.256-4.108 3.367-7.989 6.545-11.448 10.012-3.771 3.777-4.727 10.934-5.65 17.854-.904 6.773-1.759 13.172-5.415 15.889-9.351 6.943-26.964 8.119-39.823 8.98-2.144.141-4.143.277-5.936.424-6.289.529-12.84.787-20.021.787-.002 0-.002 0-.002 0-7.765 0-16.308-.305-26.883-.961-44.544-2.76-128.707-14.457-191.908-61.797-9.07-7.391-6.322-16.17-3.668-24.66 1.633-5.213 3.32-10.604 2.211-15.619-1.461-6.609-4.344-12.797-7.135-18.781-6.689-14.352-13.008-27.908.879-44.549 17.113-20.502 51.913-23.131 80.32-23.131 6.357 0 12.422.143 17.931.271l5.3.121c44.266.898 91.328 9.057 139.879 24.246l1.268.395c33.07 10.337 101.883 31.845 95.252 76.263zm-46.484-38.512c-34.989-20.439-77.01-30.131-113.647-37.609-31.428-6.418-61.251-9.672-88.643-9.672-10.831 0-21.526.506-31.782 1.504-32.635 3.441-48.468 13.32-48.392 30.203.083 18.381 31.14 31.379 47.822 38.361 2.118.889 4.05 1.695 5.718 2.426 40.982 17.953 103.742 39.357 170.009 39.357 8.854 0 17.625-.398 26.06-1.18 44.119-4.088 57.389-16.191 60.752-25.627 6.336-17.769-15.932-30.775-27.897-37.763z" fill="#ffa3bc"/><path d="m656.186 397.412c-.2.371-.567.621-.985.674-34.058 4.254-54.905 15.9-63.736 35.602-7.238 16.152.252 31.885 8.534 45.143 6.632 10.615 3.861 20.006 1.417 28.291-2.271 7.699-4.232 14.346.715 21.215.261.363.319.832.152 1.248-3.458 9.264-6.588 19.479-6.343 31.744.063 3.148.368 6.16.663 9.074.661 6.508 1.284 12.652-.656 19.828-.523 1.943-1.084 3.826-1.629 5.658-2.889 9.723-5.172 17.402-.291 25.633.172.289.227.637.148.967l-.186.568c-2.196 27.691-7.609 51.709-16.541 73.406-.197.479-.66.797-1.18.807-.01 0-.019.002-.027.002-.508 0-.972-.297-1.186-.758-30.227-65.385-92.154-131.359-162.369-131.359-7.49 0-15.063.742-22.509 2.207-.083.016-.169.025-.252.025-.364 0-.718-.154-.97-.432-.305-.34-.413-.814-.281-1.252 1.8-5.936 3.217-11.494 4.336-16.994 9.096-44.719-7.863-86.506-23.656-117.914-.227-.455-.17-1.002.145-1.4.252-.314.629-.494 1.023-.494.102 0 .201.014.303.037 15.348 3.68 31.97 5.547 49.408 5.547 30.651 0 64.098-5.648 99.408-16.791 33.48-10.564 80.129-31.932 112.242-73.736.248-.322.633-.51 1.035-.51.063 0 .128.006.191.016.467.07.863.387 1.029.83 7.221 19.137 14.441 36.123 22.075 51.93.184.378.173.819-.027 1.188zm-372.953-108.135c-12.881-7.566-25.048-14.713-19.926-37.955 6.955-31.564 54.822-53.293 83.424-66.275l6.303-2.873c36.361-16.74 76.621-29.17 123.078-37.998 20.061-3.814 43.348-7.883 65.863-7.883 20.088 0 36.301 3.174 49.561 9.699 27.85 13.703 14.985 50.488 10.381 61.436-5.51 13.096-5.09 21.973 1.609 33.912 1.894 3.373 2.188 7.061.877 10.961-6.858 20.391-56.721 42.104-73.104 49.238l-2.368 1.035c-55.782 24.588-114.64 38.133-165.716 38.133-.006 0-.004 0-.012 0-12.947-.004-25.592-.855-37.584-2.537-11.202-1.727-14.694-11.645-18.072-21.234-1.662-4.715-3.377-9.594-5.992-13.166-4.779-6.538-11.663-10.582-18.322-14.493zm.385-22.806c6.5 10.012 19.053 14.676 39.5 14.676 6.357 0 12.714-.43 18.32-.809 1.977-.135 3.873-.262 5.67-.365 72.992-4.195 142.063-23.109 194.487-53.262 22.267-12.809 48.72-32.135 48.295-51.463-.36-16.211-17.632-20.232-34.481-22.031-5.77-.615-11.871-.928-18.133-.928-31.828 0-64.649 7.777-98.277 16.439-50.697 13.063-92.14 30.287-126.699 52.664-9.553 6.225-39.854 27.872-28.682 45.079zm85.348 364.892c-3.764 0-7.564.162-11.293.479-.406.035-.775.258-.994.604-5.198 8.248-10.988 16.906-18.221 27.246-3.143 4.5-6.561 9.295-10.156 14.34-13.884 19.48-31.162 43.727-45.125 68.604-.223.393-.223.877-.004 1.271.221.396.629.65 1.082.67 49.447 2.273 97.441 34.752 128.385 86.881.242.408.674.641 1.122.641.193 0 .39-.043.573-.135l5.746-2.811c28.555-13.965 58.08-28.406 84.936-46.381 14.162-9.479 26.73-20.061 37.355-31.453.389-.418.461-1.039.18-1.535-33.548-58.946-100.233-118.421-173.586-118.421z" fill="#ffa3bc"/><path d="m919.257 498.445c-4.864 17.043-53.541 23.305-54.031 23.365-8.45 1.055-17.353 1.588-26.46 1.588h-.002c-41.497 0-84.343-11.191-117.034-20.941-22.133-6.602-43.396-14.721-63.201-24.129-6.071-2.885-12.307-6.279-19.06-10.381-7.167-4.354-14.339-12.6-14.214-21.213.059-3.891 1.734-9.441 9.389-13.789 8.063-4.572 19.104-6.051 28.818-7.074 10.511-1.021 21.414-1.541 32.414-1.541 42.258 0 87.893 7.4 139.51 22.623 26.514 7.82 54.004 17.445 75.43 34.777 7.121 5.762 9.96 11.385 8.441 16.715zm-347.538-335.601c-9.289-2.65-19.565-3.939-31.418-3.939-15.864 0-31.713 2.309-46.478 4.805-73.111 12.352-131.432 33.105-178.297 63.447-.287.186-28.801 19.172-27.578 32.98.355 4.016 3.072 7.125 8.078 9.248 9.879 4.186 20.912 4.723 29.424 4.723h.002c2.593 0 5.17-.057 7.709-.129 21.953-.615 44.883-3.092 68.15-7.355 46.216-8.467 99.174-20.844 141.549-48.422.424-.279 42.564-28.223 39.958-45.533-.694-4.618-4.427-7.923-11.099-9.825z" fill="#ff5671"/><path d="m398.245 923.756c-8.039-17.068-18.713-33.375-32.553-42.906-9.555 6.217-19.665 16.543-18.977 28.813.701 12.506 12.936 18.871 24.242 18.691 9.046-.147 18.33-2.153 27.288-4.598z" fill="#ecfffe"/><g fill="#73bcd8"><path d="m546.712 743.758c.213.367.594.607 1.016.643.039.004.074.006.111.006.384 0 .75-.172 1-.469 3.182-3.797 6.148-7.783 9.013-11.854-9.757-17.457-24.481-33.168-37.382-47.26-20.359-22.234-45.861-40.908-72.996-53.893-13.803-6.604-46.52-21.406-75.119-25.865-2.992 5.811-6.188 11.703-9.82 17.811-.244.412-.244.926.003 1.338.235.396.661.637 1.12.637.018 0 .035-.002.057-.002 1.936-.082 3.873-.121 5.803-.121 74.306 0 142.538 59.783 177.194 119.029z"/><path d="m649.84 634.836c-18.022-9.043-36.235-21.217-47.95-37.85-.328-.469-.604-.965-.92-1.441-.1.264-.191.518-.293.779-1.868 4.912-3.802 9.992-3.447 15.166.529 7.719 8.596 13.953 14.482 18.504l1.563 1.215c37.294 29.328 86.193 48.24 137.686 53.252 11.563 1.125 22.02 1.672 31.969 1.672 19.004 0 35.759-2.002 51.225-6.121 1.757-.469 3.942-.982 6.406-1.563 9.816-2.314 23.258-5.48 32.857-10.879l-.689-1.109 1.145.861c4.908-2.848 8.063-5.893 9.643-9.307 2.129-4.607 1.146-10.65.197-16.492-.049-.299-.083-.572-.131-.869-35.049 8.986-70.932 14.797-107.436 17.129-43.073 2.75-87.47-3.463-126.307-22.947z"/><path d="m534.161 809.305c-8.352-6.953-18.584-13.686-29.576-18.537-4.407 2.838-8.963 5.67-13.766 8.502-.412.242-.657.689-.642 1.166.017.477.29.908.718 1.123 30.738 15.508 56.873 46.541 73.583 87.381 11.866 29.006 29.338 84.619 13.011 131.166-.16.455-.057.959.27 1.314.25.273.601.424.963.424.107 0 .215-.014.321-.041 8.257-2.104 15.873-3.9 23.085-5.445 8.684-39.336 1.604-84.096-11.932-121.67-11.461-31.821-29.84-63.575-56.035-85.383z"/><path d="m353.403 408.031c4.406 12.514 15.771 14.309 26.762 16.043l1.029.162c13.258 2.109 27.035 3.178 40.947 3.178 31.934 0 64.189-5.424 95.863-16.121 38.502-13.004 89.574-37.268 114.239-79.027 4.695-7.955 2.161-13.059-1.612-17.932-.511.799-.984 1.617-1.507 2.41-20.712 31.527-57.048 53.961-90.106 70.512-34.924 17.48-75.166 27.225-114.117 27.426-17.223.09-47.553-1.268-72.121-8.629.209.658.391 1.322.623 1.978z"/></g><path d="m306.739 897.553c-24.596-11.502-40.473-27.418-47.182-47.299-8.68-25.723-2.568-57.949 18.682-98.52.225-.432.67-.701 1.156-.701h.011c48.702.416 96.251 31.51 127.19 83.182.188.313.236.689.133 1.039-.104.352-.348.641-.674.803-14.875 7.342-30.758 15.352-46.109 24.17-21.748 12.494-38.68 24.627-51.755 37.088-.247.236-.571.363-.899.363-.188 0-.375-.041-.553-.125zm98.119 164.756c-.143.564-.658 1.213-1.238 1.23-2.174.066-4.344.102-6.512.102h-.005c-12.14 0-23.233-1.057-33.909-3.234-30.953-6.313-58.834-26.656-72.768-53.092-11.758-22.314-12.855-47.344-3.085-70.477 9.862-23.35 29.329-43.469 61.261-63.311.209-.131.447-.199.688-.199.174 0 .346.037.511.105.052.023.364.188.413.215 29.506 7.594 47.832 45.006 58.025 75.064 14.827 43.733 4.245 89.942-3.381 113.597zm445.657-233.237c.248.295.549.682.484 1.063-10.799 63.881-33.764 140.494-116.189 166.094-.125.041-.256.063-.387.063-.249 0-.494-.072-.708-.209-.323-.213-.54-.555-.587-.939-5.732-46.434 9.235-97.555 38.129-130.232 20.998-23.748 47.99-36.301 78.064-36.301.385-.002.945.17 1.194.461z" fill="#fef49c"/><g fill="#d1ffff"><path d="m537.206 767.461c-.105-.025-.211-.039-.316-.039-.307 0-.605.107-.842.307-1.972 1.664-4.078 3.295-6.143 4.934 22.377 11.686 45.178 21.598 64.604 39.678 5.182 4.822 9.805 10.082 13.996 15.654-16.127-31.975-40.676-52.88-71.299-60.534z"/><path d="m829.245 598.268c-86.034 0-166.227-23.045-220.012-63.223-.227-.172-.502-.262-.78-.262-.14 0-.281.023-.416.07-.407.135-.72.463-.839.875-1.925 6.68-2.55 12.877-2.709 19.045 11.488 8.564 23.838 15.721 33.938 21.533 37.847 21.771 82.81 28.504 125.8 29.193 24.732.395 49.661-1.828 73.404-7.326-2.782.05-5.571.095-8.386.095z"/><path d="m490.473 599.688c-23.463-17.076-49.855-27.92-77.679-27.92-8.865 0-17.809 1.096-26.58 3.256-.424.105-.768.414-.916.826-.355.979-.793 1.98-1.164 2.965 30.42.65 60.871 4.289 89.736 13.885 5.91 1.966 11.391 4.343 16.603 6.988z"/><path d="m483.284 345.188c34.945-12.084 68.03-31.625 94.484-57.459 2.084-2.035 4.061-4.098 5.987-6.174-9.341 5.893-18.398 10.605-23.104 13.051l-1.181.615c-64.116 33.479-133.641 51.916-195.767 51.916-12.975 0-25.734-.813-37.92-2.418-.058-.008-.113-.012-.17-.012-.367 0-.72.154-.969.432-.289.316-.4.758-.303 1.174.691 2.918 1.455 5.633 2.306 8.186 13.741 3.572 27.927 5.518 40.56 6.928 38.892 4.341 79.446-3.573 116.077-16.239z"/></g><g fill="#f6b279"><path d="m397.108 1063.641c2.168 0 4.338-.035 6.512-.102.58-.018 1.096-.666 1.238-1.23 7.529-23.35 17.891-68.682 3.891-111.912.938 25.564-5.963 52.57-27.303 68.314-37.963 28.006-71.076 1.119-97.607-27.885 1.592 5.607 3.764 11.131 6.588 16.488 13.934 26.436 41.814 46.779 72.768 53.092 10.676 2.178 21.77 3.234 33.909 3.234h.004z"/><path d="m795.445 929.336c-16.772 18.211-37.427 29.313-60.919 36.154-.767.225-1.54.34-2.313.477-.522 9.791-.271 19.584.915 29.176.047.385.264.727.587.939.214.137.459.209.708.209.131 0 .262-.021.387-.063 75.5-23.447 101.101-89.691 113.172-149.754-13.745 29.776-29.936 58.325-52.537 82.862z"/></g><g><path d="m323.278 759.752c18.184 16.889 33.527 35.6 36.512 63.061 1.775 16.373-3.705 31.707-12.822 45.211 4.137-2.588 8.428-5.182 12.979-7.797 15.352-8.818 31.234-16.828 46.109-24.17.326-.162.57-.451.674-.803.104-.35.055-.727-.133-1.039-21.486-35.883-50.989-61.811-83.319-74.463z" fill="#f6b279"/></g><g fill="#e23f58"><path d="m788.097 460.547c-35.642-7.461-74.622-7.172-110.861-4.424-13.568 1.029-27.525 4.311-39.774 10.465.668.475 1.335.949 2.008 1.359 6.753 4.102 12.988 7.496 19.06 10.381 19.805 9.408 41.068 17.527 63.201 24.129 32.691 9.75 75.537 20.941 117.034 20.941h.002c9.107 0 18.01-.533 26.46-1.588.317-.037 20.701-2.666 36.429-9.107-26.151-28.803-92.321-47.711-113.559-52.156z"/><path d="m531.823 187.334c-33.066 2.842-65.816 10.744-97.754 19.533-34.6 9.525-100.219 27.805-117.09 66.979 2.984.195 5.855.262 8.471.262h.002c2.593 0 5.17-.057 7.709-.129 21.953-.615 44.883-3.092 68.15-7.355 46.216-8.467 99.174-20.844 141.549-48.422.323-.213 24.953-16.555 35.43-31.979-16.674-1.475-34.143.052-46.467 1.111z"/></g><g fill="#f07493"><g><path d="m558.773 1027.195c3.171-.875 6.343-1.736 9.519-2.584.418-.111.82-.664.963-1.074 2.662-6.492 4.692-13.346 6.177-20.445-3.101.383-6.271.727-9.332 1.135-29.305 3.9-57.087 14.92-85.812 21.33-24.535 5.475-43.343-.785-48.609-37.592-3.668-25.639-15.295-56.881-34.035-79.887 7.801 13.361 12.674 26.252 14.76 32.406 12.674 37.379 12.545 79.186-.371 120.902-.125.414-.043.861.227 1.201.25.313.626.492 1.021.492.031 0 .065-.002.098-.004 36.412-2.729 73.004-13.99 108.394-24.883 12.831-3.95 24.955-7.68 37-10.997z"/><path d="m848.945 821.992s2.224.021 2.233.021c.643-.002 1.191-.469 1.291-1.107 3.406-22.113 5.803-44.814 8.124-66.768 2.888-27.336 5.616-53.154 10.071-76.943.09-.484-.102-.982-.494-1.281-.232-.176-.511-.266-.789-.266-.196 0-.395.045-.578.135-22.995 11.34-52.412 17.334-85.072 17.334-16.049 0-32.313-1.412-48.342-4.195-33.403-5.799-76.233-17.041-109.341-38.5 9.208 11.197 20.987 20.656 34.36 28.83 27.307 16.693 60.713 17.988 91.533 22.447 38.77 5.611 71.643 16.994 73.904 61.578 1.084 21.391-4.157 43.219-11.67 64.441 10.998-3.78 22.64-5.726 34.77-5.726z"/><path d="m616.726 829.84c24.065 52.25 24.828 128.482 1.811 181.262-.191.441-.128.949.168 1.328.25.318.631.5 1.028.5.074 0 .148-.006.223-.02 6.827-1.176 13.152-2.096 19.337-2.811 8.266-.957 16.74-1.721 24.935-2.461 17.713-1.596 36.03-3.246 53.687-6.947 2.004-.418 3.911-.92 5.815-1.422l2.136-.555c.637-.164 1.053-.777.973-1.428-1.344-10.793-1.57-21.82-.873-32.822-3.432 2.246-6.953 4.41-10.625 6.432-8.001 4.404-16.334 8.086-24.91 11.197-30.004 10.902-34.633-6.891-33.123-33.207.807-14.102.25-28.275-1.426-42.102-3.746-30.902-14.095-60.35-32.21-85.77-8.37-11.746-21.34-24.629-35.96-32.9 11.573 11.12 21.359 25.107 29.014 41.726z"/></g><g><path d="m633.11 343.463c-.063-.01-.129-.016-.191-.016-.402 0-.787.188-1.035.51-30.752 40.033-74.804 61.297-107.886 72.307 10.494-2.758 20.661-6.332 30.979-10.822 13.02-5.664 43.365-25.621 57.615-14.471 4.459 3.49 7.792 8.789 10.412 14.824 8.998-3.584 19.699-6.148 32.195-7.709.418-.053.785-.303.985-.674.2-.369.212-.811.029-1.189-7.634-15.807-14.854-32.793-22.075-51.93-.164-.443-.561-.76-1.028-.83z"/><path d="m542.552 749.783c-3.324-5.84-6.984-11.682-10.934-17.475-29.008 30.41-62.191 56.666-96.896 75.066-12.631 6.699-25.849 4.99-38.742.012 5.957 7.477 11.561 15.479 16.66 24.07.242.408.674.641 1.122.641.193 0 .39-.043.573-.135l5.746-2.811c28.555-13.965 58.08-28.406 84.936-46.381 14.162-9.479 26.73-20.061 37.355-31.453.389-.417.461-1.038.18-1.534z"/><path d="m575.056 696.514c.214.461.678.758 1.186.758.009 0 .018-.002.027-.002.52-.01.982-.328 1.18-.807 5.031-12.219 8.905-25.211 11.756-39.141-5.92 9.775-12.336 19.422-19.193 28.885 1.759 3.432 3.454 6.869 5.044 10.307z"/></g><path d="m490.185 304.377c-29.835 14.4-61.201 25.412-93.484 32.77-5.383 1.229-10.797 2.18-16.221 3.037 46.83-2.641 98.852-15.746 148.452-37.609l2.368-1.035c16.383-7.135 66.245-28.848 73.104-49.238 1.311-3.9 1.017-7.588-.877-10.961-.936-1.668-1.721-3.27-2.41-4.84-9.168 7.096-18.817 13.715-28.512 20.35-26.242 17.958-53.792 33.708-82.42 47.526z"/><path d="m830.835 591.748h.002c7.182 0 13.732-.258 20.021-.787 1.793-.146 3.792-.283 5.936-.424 12.859-.861 30.473-2.037 39.823-8.98 3.656-2.717 4.511-9.115 5.415-15.889.618-4.623 1.268-9.328 2.745-13.084-73.942 39.164-219.485 7.441-261.839-4.041 57.62 31.123 123.414 39.914 161.014 42.244 10.575.656 19.118.961 26.883.961z"/></g></g><g fill="#68182b"><path d="m542.245 227.842c16.38-9.422 49.436-30.535 48.949-52.623-.406-18.395-21.016-21.738-35.646-23.299-38.43-4.102-80.015 6.049-116.876 15.545-44.234 11.396-88.602 27.916-127.084 52.832-11.701 7.625-40.658 29.031-29.066 46.885 12.613 19.424 44.801 15.236 64.66 14.094 66.172-3.801 137.316-20.219 195.063-53.434zm-245.709 40.34c-22.246-9.428 12.631-35.326 19.703-39.934 52.83-34.201 116.17-52.838 177.802-63.252 24.552-4.148 52.909-7.861 77.32-.898 31.639 9.029-18.989 46.357-29.214 53.008-41.379 26.932-93.096 39.441-141.072 48.234-22.42 4.109-45.164 6.695-67.951 7.336-12.183.342-25.232.318-36.588-4.494z"/><path d="m898.456 463.908c-34.313-20.043-75.517-29.896-114.045-37.762-39.512-8.068-80.59-12.104-120.812-8.188-18.519 1.951-49.681 7.42-49.571 31.508.098 21.537 38.699 35.133 54.322 41.979 59.928 26.252 130.96 44.371 196.713 38.281 17.18-1.592 54.715-6.445 61.861-26.49 6.598-18.504-15.238-31.601-28.468-39.328zm-33.393 56.608c-47.545 5.928-97.668-5.801-142.961-19.309-21.551-6.43-42.701-14.408-63.014-24.057-6.504-3.09-12.793-6.584-18.943-10.318-11.664-7.086-21.211-23.465-4.857-32.75 8.089-4.59 19.355-5.969 28.312-6.912 57.593-5.607 116.269 4.771 171.417 21.035 25.945 7.652 53.681 17.313 74.979 34.539 29.827 24.131-28.566 35.731-44.933 37.772z"/><path d="m947.778 475.85c-17.827-33.695-72.906-48.762-105.983-59.107-53.964-16.881-112.067-24.502-168.542-21.521-2.762.146-5.624.346-8.527.584-9.565-19.41-17.789-39.379-25.272-59.68-.038-.1-.112-.154-.155-.248 4.792-7.324 5.76-14.697.771-22.123-12.358-18.406-21.789-33.635-27.492-55.771 3.107-5.221 3.955-10.428 1.039-15.244-16.474-27.203 9.879-46.861 2.565-74.244-3.724-13.947-11.462-26.098-25.367-31.566-38.475-15.127-85.56-6.311-124.78 1.145-51.611 9.809-102.061 27.848-148.246 52.854-29.164 15.789-68.943 41.098-62.551 79.229 4.443 26.506 39.006 27.268 45.961 50.914 3.551 12.068 5.037 19.197 14.531 22.795 2.088 10.389 4.904 19.527 10.469 28.547 5.582 9.045 13.25 15.029 16.434 25.662 3.936 13.137 5.75 22.48 15.626 27.988.093.314.108.621.276.941 28.209 53.646 38.393 106.049 12.75 162.99-20.377 45.256-53.695 84.168-81.154 125.137-22.475 33.531-44.281 71.48-43.057 113.074.998 34.021 24.342 60.58 53.402 75.063-14.092 15.193-24.617 32.932-27.334 53.691-5.482 41.908 18.495 77.055 53.557 97.832 46.975 27.836 105.23 14.861 154.798 2.426 63.367-15.895 123.346-36.158 188.764-42.406 46.45-4.439 91.649-11.389 127.04-44.391 42.398-39.535 59.446-103.809 66.381-159.119 5.881-46.885 6.377-93.162 16.094-139.705.031-.154-.016-.277.005-.426 1.516-.938 3.063-1.834 4.533-2.834 6.231-4.246 8.341-10.229 7.87-17.504-1.396-21.666.055-40.004 6.742-61.074 5.521-3.328 9.093-7.818 9.115-13.918.095-27.453 25.66-35.561 38.733-56.807 8.083-13.139 8.068-29.835 1.004-43.184zm-645.168-172.852c-14.178-19.387-45.576-17.148-38.027-51.395 7.34-33.311 61.361-55.521 88.998-68.246 39.023-17.963 80.654-29.895 122.774-37.9 34.429-6.543 81.544-14.563 114.605 1.707 23.341 11.486 17.704 40.857 9.753 59.758-5.606 13.324-5.344 22.547 1.675 35.057 12.869 22.943-60.239 53.344-73.983 59.4-61.168 26.961-135.662 44.889-202.602 35.498-15.866-2.447-15.257-23.023-23.193-33.879zm52.026 104.6c-2.496-7.084-3.533-14.363-6.576-21.268-2.115-4.807-6.301-9.086-9.65-13.033-6.912-8.148-10.428-17.254-12.795-27.283 78.548 10.338 165.225-13.484 234.461-49.635 7.621-3.979 31.551-16.109 45.322-29.594 4.081 14.434 9.431 28.084 18.098 40.584 6.07 8.762 14.09 13.283 7.625 24.232-23.553 39.875-71.348 64.207-113.533 78.455-43.389 14.652-90.896 20.092-136.188 12.893-11.364-1.806-22.487-3.205-26.764-15.351zm15.886 22.609c48.793 11.705 102.412 3.592 149.514-11.268 43.127-13.609 85.047-37.949 112.883-74.186 6.658 17.65 13.912 35.043 22.119 52.035-25.958 3.244-53.776 11.848-64.766 36.365-7.316 16.328-.072 32.455 8.619 46.369 12.201 19.533-8.859 34.248 2.18 49.576-.014.033-.041.049-.053.082-4 10.781-6.613 20.695-6.383 32.174.199 10.07 2.801 18.359.051 28.535-3.291 12.18-7.931 21.932-1.783 32.297-.061.256-.188.461-.211.742-2.127 26.789-7.402 51.057-16.451 73.035-32.281-69.83-103.259-146.219-186.315-129.885 1.698-5.604 3.183-11.297 4.364-17.109 8.494-41.76-5.238-81.906-23.768-118.762zm16.004 146.084c83.65-20.613 155.686 61.836 184.678 130.83-6.289 12.82-14.01 24.813-23.365 35.979-36.672-62.693-108.109-122.77-184.182-119.555 8.989-15.115 16.914-30.772 22.869-47.254zm-46.998 84.15c6.268-8.963 12.42-18.043 18.256-27.299 76.233-6.477 147.997 54.676 183.632 117.285-10.517 11.277-22.823 21.686-37.126 31.26-28.551 19.109-59.627 33.967-90.528 49.104-27.566-46.439-74.12-84.975-129.446-87.518 17.464-31.117 39.677-60.607 55.212-82.832zm-60.132 91.899c53.979.459 99.301 37.82 126.082 82.545-15.613 7.707-31.133 15.566-46.181 24.211-17.429 10.012-36.296 22.303-52.005 37.275-67.324-31.484-56.514-89.396-27.896-144.031zm124.183 309.894c-13.505.414-26.92-.416-40.125-3.107-55.27-11.27-98.419-66.117-74.909-121.781 11.208-26.533 34.599-46.461 60.745-62.711.238.102.407.262.682.33 29.771 7.631 47.964 47.43 57.031 74.166 12.15 35.842 8.018 77.406-3.387 112.777-.039.117-.008.211-.037.326zm164.468-39.191c-.042.105-.056.205-.093.309-3.177.85-6.354 1.711-9.527 2.586-45.682 12.58-95.865 32.146-145.146 35.836 12.246-39.555 13.744-82.234.359-121.707-8.811-25.98-27.177-60.129-54.16-71.527 19.279-11.074 39.373-20.43 56.775-29.092 21.891-10.893 44.164-21.508 65.569-33.502 70.802 29.742 114.992 146.958 86.223 217.097zm40.784-9.404c-10.097 2.008-20.123 4.355-30.109 6.898 14.594-41.604 2.943-93.037-13.035-132.094-14.59-35.656-39.199-70.391-74.204-88.051 15.921-9.387 31.235-19.705 45.407-31.664 95.791 23.945 108.343 170.484 72.067 244.434-.079.162-.065.315-.126.477zm125.592-18.655c-8.848-71.697 32.833-165.365 115.289-165.068-12.523 74.082-38.432 141.195-115.289 165.068zm116.756-174.277c-89.949-1.693-135.305 99.039-125.638 176.742-2.617.666-5.165 1.393-7.896 1.965-25.758 5.398-52.406 6.369-78.505 9.387-6.508.754-12.973 1.715-19.408 2.822 34.442-78.977 19.856-221.365-74.628-250.207 36.947-34.42 51.021-80.834 55.971-129.445 33.141 34.037 89.695 50.529 134.092 58.238 41.906 7.273 94.192 6.48 134.215-13.254-8.121 43.365-10.649 94.703-18.203 143.752zm30.309-187.357c-.083 6.959 3.87 17.563.841 24.117-1.581 3.42-4.902 6.285-9.111 8.727-.18.074-.338.174-.504.277-11.826 6.646-30.368 10.006-38.897 12.279-26.862 7.154-55.271 7.082-82.73 4.412-48.663-4.736-98.493-22.693-137.005-52.979-5.482-4.311-15.012-10.943-15.549-18.783-.58-8.463 5.412-16.908 6.521-25.168 2.385-17.779-1.648-32.621 3.399-50.143 63.185 47.201 153.767 65.133 231.174 63.365 9.051-.207 31.535-.162 48.274-5.076-3.685 12.749-6.255 25.556-6.413 38.972zm61.503-129.996c-3.066 20.549-23.113 30.393-36.232 43.539-7.902 7.916-4.271 28.678-10.92 33.615-10.586 7.861-32.77 8.123-45.088 9.154-15.527 1.305-31.191.785-46.719-.178-65.042-4.029-138.281-21.896-191.205-61.539-13.758-11.211 2.041-25.904-.965-39.516-4.963-22.449-25.626-39.326-6.527-62.211 21.43-25.678 72.854-22.875 102.521-22.271 47.401.963 94.372 10.063 139.517 24.188 31.282 9.785 102.171 31.322 95.618 75.219z"/><path d="m499.251 441.625c22.271-4.305 43.211-12.627 59.731-28.391.515-.492-.155-1.373-.763-.99-18.391 11.654-39.228 19.457-60.376 24.279-20.573 4.691-41.524 4.758-62.194 8.207-.291.051-.294.543 0 .59 20.657 3.268 43.221.25 63.602-3.695z"/><path d="m568.427 409.117c1.207-.516 2.325-1.148 3.47-1.791 1.804-1.004 3.832-2.336 4.808-4.215.254-.488-.157-.961-.67-.873-2.258.389-4.385 1.768-6.28 2.986-.979.629-1.887 1.266-2.764 2.033-.785.686-1.044 1.572-1.736 2.271-.223.225.059.559.329.424.808-.409 1.973-.464 2.843-.835z"/><path d="m688.116 691.641c40.361 26.793 99.684 29.381 144.604 14.771.793-.256.451-1.326-.334-1.213-49.097 6.998-97.479 2.758-144.061-14.053-.301-.107-.451.333-.209.495z"/><path d="m411.644 903.422c24.447 39.551 27.141 82.621 20.411 127.84-.117.789.944 1.117 1.214.332 13.787-39.871 12.365-98.025-21.09-128.584-.28-.258-.746.07-.535.412z"/><path d="m412.333 801.135c-9.43-19.068-30.549-39.27-52.589-41.688-.271-.029-.364.385-.138.504 20.443 10.674 35.396 26.1 51.823 41.881.488.469 1.191-.119.904-.697z"/></g></g></g></svg>