<svg id="Winter" height="512" viewBox="0 0 1200 1200" width="512" xmlns="http://www.w3.org/2000/svg"><g><path d="m997.656 553.135c-14.64-11.178-42.718-19.917-43.442-38.16-1.034-26.051-6.267-51.823-14.587-76.5-28.483-84.484-89.389-162.808-151.112-225.761-23.879-24.354-50.115-46.073-82.314-58.304-17.91-6.805-36.902-10.497-56.078-10.497-11.578 0-23.156 1.196-34.525 3.369-21.535 4.115-18.77 6.559-28.913-12.838-47.215-90.307-144.425-69.7-223.265-35.99-36.458 15.586-77.539 34.85-102.333 67.071-27.621 35.896-22.675 82.29-8.732 122.608 4.495 13 12.885 16.894-1.342 23.746-9.609 4.627-19.021 9.671-28.118 15.243-21.785 13.346-41.193 29.935-57.055 50.013-27.254 34.495-44.052 76.792-43.278 121.093.845 48.511 18.115 92.706 13.04 142.028-5.181 50.352-19.925 99.186-24.672 149.619-6.876 73.062 9.716 164.465 83.83 198.32 14.036 42.712 33.53 75.176 82.953 76.381 36.051.865 105.923-7.848 114.489-52.293 24.097 31.088 55.189 57.965 92.11 72.464 16.919 6.645 35.128 10.175 53.331 9.379 21.034 14.479 46.433 24.423 71.041 30.86 94.002 24.594 160.104-41.705 217.225-105.849 31.297-35.142 64.197-60.134 107.213-79.29 43.357-19.31 88.754-38.207 119.91-75.677 45.047-54.175 46.77-154.546 19.502-217.172-16.213-37.229-42.697-69.289-74.878-93.863z" fill="#fff"/><g><path d="m208.247 965.607c2.665 1.123 5.399 2.101 8.147 3.047 2.257 10.183 6.134 20.063 10.148 29.638 3.447 8.228 6.813 17.207 11.873 24.623 8.588 12.588 25.842 15.219 39.932 15.563 17.771.432 35.924-2.676 52.956-7.607 7.072-2.047 14.088-4.493 20.733-7.682 4.4-2.113 9.638-4.848 12.23-9.197 2.55-4.283 2.813-10.414 3.429-15.248.992-7.808 1.271-15.676.958-23.539-.468-11.773-1.621-24.515-5.831-35.633 1.734-1.609 3.492-3.197 5.125-4.91 2.876-3.018 5.536-6.225 8.089-9.515 6.827 27.261 21.902 52.542 39.255 74.258 20.746 25.968 47.377 48.794 78.566 61.042 15.842 6.223 33.116 9.159 50.073 6.955.432-.056.834-.154 1.216-.281 14.502 11.983 32.557 19.674 49.992 26.175 23.69 8.831 48.261 14 73.5 9.843 46.23-7.614 83.426-41.059 113.848-74.479 16.443-18.061 32.055-36.904 49.422-54.107 17.994-17.822 37.861-32.554 60.361-44.222 43.196-22.401 91.859-36.154 128.322-69.847 16.561-15.302 29.623-34.8 35.521-56.709 2.721-10.105 3.551-20.199 2.705-30.123-.209-2.464 1.631-16.48 2.268-20.068 11.793-66.346-20.967-131.975-72.158-174.061-18.659-15.338-39.35-27.861-61.314-37.868 3.846-47.503-8.789-93.684-30.018-136.035-22.569-45.034-52.818-86.99-84.619-125.914-15.68-19.192-32.068-37.998-49.758-55.376-8.895-8.736-18.298-17.133-28.34-24.634-19.051-14.232-46.439-27.927-78.126-29.512-31.024-1.549-63.453 8.23-77.921 17.288-7.067-28.18-20.6-57.01-41.901-76.036-21.389-19.103-49.199-18.841-76.095-14.866-33.815 4.996-66.808 16.514-97.839 30.602-27.286 12.391-56.015 27.481-76.999 49.356-8.507 8.868-17.677 24.903-18.896 43.802-1.3 20.164 3.85 41.694 9.928 59.27 4.617 13.348 10.98 28.16 19.548 41.25-26.941 10.258-53.559 22.529-76.749 39.797-17.744 13.215-32.824 29.822-44.73 48.465-.018.025-.029.049-.045.074-3.675 5.756-7.07 11.693-10.117 17.803-14.085 28.232-19.055 58.227-14.836 89.477 2.195 16.267 6.058 32.226 9.042 48.351 3.25 17.553 4.644 35.187 4.124 53.039-1.925 66.329-25.803 129.809-27.701 196.181-1.623 56.611 14.978 127.256 72.682 151.57z" fill="#68182b"/><path d="m248.938 1017.804c-5.172-6.097-15.444-30.456-19.741-45.403 9.716 2.316 19.764 3.604 29.898 3.913.861 9.411 3.454 18.709 6.966 27.423 3.308 8.212 7.45 16.17 12.75 23.277-10.518-.035-23.189-1.333-29.873-9.21z" fill="#fbf199"/><path d="m325.373 991.647c-.239 6.901-.679 13.817-1.408 20.696-.841 7.908-3.465 9.689-12.403 11.448-3.794.744-7.61 1.367-11.441 1.857-9.253 1.181-14.243-.108-18.875-7.214-3.571-5.473-6.503-11.392-8.869-17.406-3.105-7.896-5.438-16.238-6.29-24.716 20.083-.288 40.253-4.362 58.607-12.192 1.053 9.112.994 18.418.679 27.527z" fill="#fbf199"/><path d="m357.225 998.391c-.584 5.251-1.603 9.971-8.889 13.801-5.365 2.824-11.145 4.839-16.924 6.629-.434.135-.881.234-1.317.366 1.188-9.134 1.869-18.345 2.186-27.539.351-10.15.274-20.452-1.075-30.555 7.821-3.81 15.246-8.298 22.116-13.495 3.867 12.705 5.669 34.951 3.903 50.793z" fill="#fbf199"/><path d="m462.497 1029.618c-25.527-19.019-46.745-44.647-61.596-72.737-7.454-14.098-13.231-29.123-15.911-44.886-.002-.014-.009-.024-.012-.038 8.937-15.205 14.673-32.264 16.24-49.896.708-7.989.319-15.723-.857-23.267 4.016-22.9 19.177-42.757 39.797-53.472 12.215-6.348 24.99-7.967 38.601-7.832 14.38.144 28.347-.634 42.185-4.884 13.658-4.193 26.253-11.113 37.107-20.366 11.655 1.897 23.231.953 34.953-.569 3.796-.492 7.605-.886 11.415-1.254-1.281 17.033-1.012 34.233 1.609 51.123 1.902 12.244 5.277 24.816 11.92 35.409 6.625 10.56 16.684 17.904 28.174 19.332-26.572 26.472-50.835 55.326-78.709 80.493-18.176 16.406-37.114 32.997-45.767 56.633-8.037 21.961-2.615 44.512 11.956 62.301.241.293.52.54.762.83-26.197.374-51.016-11.386-71.867-26.92z" fill="#fac135"/><path d="m484.713 157.84c-12.705 11.76-28.808 19.934-44.346 27.279-17.434 8.241-35.559 15.111-54.063 20.543-14.252 4.185-29.136 8.064-44.069 8.388-16.033.07-27.856-7.049-13.02-22.808 11.751-12.482 27.996-20.663 43.195-28.086 16.939-8.271 34.571-15.136 52.65-20.467 12.39-3.652 25.165-6.888 38.04-8.219 37.692-3.908 36.49 9.595 21.613 23.37z" fill="#808080"/><path d="m513.797 206.573c9.91 18.102 16.537 37.967 21.358 58.115 3.607 15.05 4.976 13.452-10.524 22.855-3.895 2.361-7.839 4.646-11.808 6.868-20.458 11.461-32.473 19.46-40.701 4.493-7.2-13.101-13.656-26.638-19.885-40.181-8.452-18.383-16.377-37.008-23.935-55.774 5.145-2.136 10.256-4.349 15.307-6.685 13.146-6.083 26.629-12.82 38.511-21.468 14.671 3.125 25.138 19.835 31.677 31.777z" fill="#fbf199"/><path d="m353.969 224.688c11.432-1.403 22.772-4.281 33.737-7.44 11.589-3.34 22.995-7.326 34.222-11.763 7.526 18.661 15.393 37.192 23.775 55.483 6.719 14.657 13.699 29.307 21.573 43.422 5.01 8.992-3.523 14.256-19.5 20.298-1.12-.034-28.095 9.714-32.462 11.032-12.957 3.906-20.354 5.134-27.802-3.627-6.427-7.564-11.75-16.109-16.557-24.769-10.328-18.61-19.883-40.084-21.329-61.595-.478-7.117-.091-15.234 4.343-21.041z" fill="#fbf199"/><path d="m405.27 350.321c11.07-2.774 22.019-6.105 32.842-9.84-5.374 13.955-9.642 28.311-12.892 42.897-18.083-.899-36.862.319-53.455-8.142-5.163-2.635-10.153-6.144-13.505-10.911-1.57-2.233-2.638-4.473-3.326-6.782 17.009.712 34.987-3.372 50.336-7.222z" fill="#ceffff"/><path d="m429.871 432.159c1.968-33.201 9.562-66.362 22.741-96.929 15.43-5.925 30.555-12.669 45.295-19.968 21.115-10.459 42.934-22.251 61.222-37.598-2.03 12.068-8.224 23.424-14.911 33.534-11.578 17.501-24.479 42.205-29.531 53.626-8.961 20.25-16.351 49.624-17.481 54.512-4.079 17.636-5.406 36.103-12.878 52.725-14.767 1.36-29.736 4.621-41.661 12.665-1.875 1.266-3.634 2.669-5.327 4.135-2.968-5.431-4.619-11.7-5.781-17.634-2.505-12.794-2.455-26.102-1.688-39.068z" fill="#ceffff"/><path d="m702.939 791.35c.048-6.834.524-13.701 1.29-20.541 1.484-13.231 4.756-16.775 14.855-14.045 2.463.667 4.913 1.389 7.346 2.172 11.672 3.753 23.229 7.844 34.885 11.641 2.642.861 5.385 1.833 8.178 2.764-22.887 10.426-45.234 21.819-66.262 35.621.241-5.748-.332-11.626-.292-17.612z" fill="#fac135"/><path d="m748.253 796.2c10.996-5.716 13.711-1.524 20.103 7.355 6.147 8.547 13.584 16.101 21.589 23.175 4.559 4.027 9.313 7.926 13.387 12.462 6.969 7.751-.986 11.093-7.287 15.725-7.42 5.46-14.404 11.486-20.932 17.999-8.516 8.644-16.631 17.787-24.666 27.049-9.531 10.986-15 13.867-23.849 7.81-9.921-6.786-17.782-16.505-23.382-27.173-7.178-13.676-12.561-28.509-22.506-40.477 20.855-17.263 43.607-31.492 67.543-43.925z" fill="#fbf199"/><path d="m692.696 771.928c-.521 5.146-.91 10.304-1.152 15.467-.475 10.064 2.761 21.908-2.178 31.205-5.426 3.975-10.775 8.093-15.977 12.478-9.312 7.85-18.705 16.069-29.269 13.092-7.317-2.06-13.429-7.808-17.765-15.638-5.592-10.099-8.217-21.859-9.674-33.219-1.947-15.15-1.837-30.584-.623-45.817 10.585-.686 21.196-.979 31.797-.818 10.391.157 20.855.535 31.27 1.426 15.708 1.336 15.198 5.868 13.571 21.824z" fill="#ceffff"/><path d="m667.206 851.956c8.576-8.005 12.586-2.896 18.776 9.151 4.614 8.979 8.437 18.451 13.575 27.108 6.426 10.831 15.09 20.244 25.682 26.817 7.133 4.428 4.609 8.763-1.376 15.34-10.803 11.864-22.075 23.207-34.544 33.178-11.416 9.129-18.115 11.276-28.516 1.447-7.598-7.187-14.129-15.799-20.326-23.752-6.318-8.109-12.889-15.95-20.479-22.658-7.393-6.539-8.211-9.41-2.17-15.846 16.158-17.213 32.101-34.669 49.378-50.785z" fill="#fbf199"/><path d="m636.843 947.735c6.208 7.976 12.854 16.467 20.551 23.539 6.131 5.636 8.535 8.1-.787 13.195-3.45 1.887-6.877 3.818-10.207 5.925-7.938 5.02-15.514 10.783-22.267 17.314-7.53 7.286-14.952 16.197-19.015 26.211-12.842 2.768-26.505-2.469-37.571-8.861-22.336-12.903-35.466-31.738-25.819-45.398 7.394-10.471 17.074-19.627 26.314-27.989 9.559-8.653 18.873-17.485 27.989-26.53 9.192-9.118 10.853-8.524 17.659-2.824 8.756 7.335 16.031 16.275 23.153 25.418z" fill="#fbf199"/><path d="m623.036 1026.105c10.689-14.157 25.857-24.699 41.455-32.77 39.598-20.482 67.498-55.197 96.405-88.064 7.257-8.25 14.644-16.386 22.358-24.216 16.427-16.396 35.764-28.594 56.934-37.935 19.127-8.441 39.141-14.668 58.389-22.815 19.852-8.398 38.21-19.055 54.385-33.39 11.185-9.912 23.574-19.834 37.874-24.828 4.47-1.561 9.048-2.691 13.778-2.586 3.229.072 6.179.771 8.688 2.361 2.029 1.286 3.691 3.114 4.988 6.125.951 2.209 1.445 5.928 1.338 9.278-.799 24.508-23.58 46.583-42.062 60.05-36.792 26.813-81.817 36.297-122.919 54.268-19.136 8.369-37.396 18.835-52.852 33.002-12.24 11.219-22.676 24.207-32.764 37.343-21.223 27.63-41.322 57.499-70.685 77.265-15.862 10.676-33.851 18.025-52.729 21.209-9 1.521-26.684 3.51-31.278-6.967-3.754-8.564 3.432-20.361 8.697-27.33z" fill="#808080"/><path d="m1007.278 748.164c-6.756-.674-13.549.639-20.009 2.948-11.079 3.955-11.554 3.979-13.843-4.441-1.662-6.12-4.637-11.97-8.084-17.328-3.094-4.812-6.27-9.66-9.132-14.67-5.354-9.37-6.674-14.417 6.065-16.899 6.253-1.221 12.656-1.659 19.131-1.115 19.26 1.621 34.822 13.104 45.518 28.689 8.154 11.881 15.139 24.244 18.592 37.626 2.633 10.176-.205 14.426-8.025 14.052-2.635-.123-6.434-.268-6.609-.268-.133-14.07-7.283-26.957-23.604-28.594z" fill="#fbf199"/><path d="m957.048 729.239c4.293 6.661 8.771 13.913 10.339 21.682 1.479 7.34-2.734 11.889-10.107 17.688-10.396 8.178-20.063 17.306-31.224 24.537-6.021 3.904-12.27 7.326-18.647 10.48-.899-3.629-2.737-6.981-5.484-9.809-3.169-3.262-7.187-5.23-10.848-7.82-10.206-7.229-18.552-16.933-24.421-27.953-4.528-8.491-5.379-11.657 6.425-17.036 10.164-4.628 20.233-9.46 30.14-14.647 9.529-4.99 18.87-10.314 27.99-16.013 12.535-7.751 12.28-4.349 18.287 6.465 2.357 4.248 4.939 8.378 7.55 12.426z" fill="#fbf199"/><path d="m881.974 787.655c4.016 3.321 8.538 5.729 12.633 8.876 9.924 7.618-.92 13.498-9.215 16.833-18.541 7.45-37.609 13.793-55.74 22.132-12.305 5.657-14.697 6.417-21.148-.925-3.512-4.003-7.758-7.528-11.504-10.818-8.595-7.551-16.613-15.39-23.139-24.472-5.939-8.258-6.979-12.557 6.744-18.676 2.293-1.023 35.746-15.077 59.785-25.313 12.464-5.314 15.367-3.582 19.234 4.107 5.434 10.809 12.988 20.516 22.35 28.256z" fill="#fbf199"/><path d="m827.415 748.432c-13.516 5.698-27.053 11.336-40.488 17.16-5.348-.214-13.021-3.067-18.893-4.938-9.976-3.175-19.861-6.624-29.789-9.941-8.197-2.739-16.455-5.698-24.912-7.544-12.75-2.784-26.232-3.789-39.217-4.787-15.93-1.224-31.927-1.586-47.893-.97-16.154.625-32.05 3.53-48.144 4.383-17.063.906-37.371-2.451-47.159-18.172-6.251-10.044-6.737-23.37-1.412-33.93 13.157 14.578 29.444 26.196 48.002 33.736 18.295 7.435 38.211 10.583 57.906 10.477 15.914-.087 31.501-2.878 47.208-5.058 33.931-4.703 68.292-9.34 101.151-18.974 16.861-4.938 25.455-3.856 35.398 4.951 3.49 3.093 6.756 6.47 9.807 10.097 1.307 1.552 2.593 3.193 3.838 4.934 7.372 10.288 6.464 13.575-5.403 18.576z" fill="#ceffff"/><path d="m697.37 715.312c-29.197 4.031-58.701 10.101-88.164 5.098-32.871-5.581-62.49-23.274-81.285-51.063-2.971-4.391-5.557-9.01-7.979-13.719 11.441-2.006 19.456-9.84 26.292-19.433 9.406-13.197 15.947-28.58 21.288-43.804 5.291-15.077 9.431-30.809 10.933-46.754 1.073-11.374.715-23.021-8.486-31.011-.112-.097-.243-.173-.355-.27 11.219-.846 22.403.666 33.674 3.202 8.771 1.975 51.016 9.805 53.393 10.164 20.553 3.11 41.474 5.307 62.238 4.232 6.267-.324 13.08-1.06 19.777-2.46 9.23 13.433 21.211 23.703 36.445 30.017 12.893 5.34 27.107 7.681 39.215 14.841 14.389 8.511 23.082 24.205 26.862 40.137 3.378 14.238.333 27.903-7.618 40.046-4.189 6.397-9.184 12.265-14.637 17.761-19.255 19.411-59.857 34.488-121.593 43.016z" fill="#67d5e8"/><path d="m514.503 482.822c17.601.836 34.987 4.144 51.807 9.478 10.495 3.326 20.674 7.463 30.562 12.217-14.153-2.498-28.407-2.867-42.488.666-10.303-4.374-21.819-6.562-32.448-7.733-15.606-1.722-33.651-1.313-46.968 8.075-12.246 8.639-21.281 21.369-28.085 34.875-3.737 7.409-5.442 7.326-9.395 1.707-3.917-5.567-6.121-12.17-5.806-19.462.537-12.411 8.711-23.182 19.068-29.424 21.78-13.134 50.972-10.997 63.753-10.399z" fill="#ceffff"/><path d="m496.991 471.275c5.545-15.199 7.324-31.241 10.917-47.143.785-3.468 1.675-6.915 2.561-10.362 7.108 2.647 14.156 5.451 21.077 8.559 6.357 2.856 12.559 6.038 18.94 8.815-8.815 13.065-16.429 26.977-23.033 41.196-7.999-.884-16.066-1.327-24.188-1.219-2.053.025-4.16.084-6.274.154z" fill="#fac135"/><path d="m489.424 578.421c3.829-8.032 7.014-16.424 9.318-25.023.169-.627.331-1.266.495-1.905 11.518.962 22.988 4.244 34.004 7.542 4.877 1.459 9.771 2.997 14.609 4.684 14.479 5.051 13.591 10.679 9.701 22.352-1.952 5.854-4.124 11.639-6.562 17.306-6.099 14.185-8.729 15.93-22.604 11.16-16.341-5.614-32.098-13.755-45.877-23.772 2.648-3.911 4.899-8.112 6.916-12.344z" fill="#fbf199"/><path d="m474.995 589.517c-3.58 4.576-11.952 8.898-11.43-3.944.218-5.365 1.751-10.805 3.195-15.833 1.994-6.939 4.54-13.724 7.699-20.22 2.246-4.619 4.749-9.177 7.767-13.341.98-1.356 2.118-2.802 3.4-4.09 5.399-5.415 9.467-1.963 9.03 6.006-.247 4.567-1.426 9.193-2.574 13.47-2.112 7.863-4.936 15.559-8.408 22.921-2.432 5.161-5.122 10.491-8.679 15.031z" fill="#808080"/><path d="m535.079 552.373c-11.158-3.339-22.7-6.47-34.348-7.609.841-4.716 1.181-9.532.329-14.178-.832-4.518-3.708-9.04-8.754-9.177-1.97-.052-3.875.503-5.658 1.414-.04-.119-.515-1.743-.89-3.775-.992-5.379 3.519-7.996 9.476-9.363 4.292-.983 8.864-1.421 13.775-1.437 14.047-.047 29.114 2.35 42.068 8.228.216.117.434.225.67.308.724.34 1.473.641 2.183 1.003 4.43 2.247 9.757 5.201 12.069 9.838 1.109 2.222 1.401 7.556 1.349 11.05-.119 8.042-1.374 16.087-3.175 23.994-9.441-4.081-19.279-7.359-29.094-10.296z" fill="#fbf199"/><path d="m449.241 564.226c5.015-14.911 12.642-29.824 23.427-41.409 1.958-2.104 3.998-3.863 6.087-5.453.056.652.079 1.307.162 1.957.344 2.687.854 5.352 2.136 7.702-.724.708-1.417 1.428-2.035 2.136-3.776 4.317-6.721 9.419-9.334 14.5-3.978 7.727-7.187 15.896-9.584 24.247-1.925 6.708-3.789 14.007-3.348 21.095-3.299 2.258-6.47 4.745-9.393 7.452-1.106 1.025-2.206 2.127-3.276 3.27-1.825-11.774 1.488-24.587 5.158-35.497z" fill="#fbf199"/><path d="m452.692 601.309c2.728-2.474 5.514-4.909 5.707-5.051 1.347 2.865 3.593 5.175 6.982 5.771 4.956.872 9.656-2.24 12.887-5.698.025-.027.045-.059.068-.086 18.07 13.281 39.725 23.406 61.563 28.932-4.288 7.259-9.75 14.813-17.013 17.98-12.984 5.662-31.581-2.494-43.105-8.258-7.856-3.926-17.807-9.336-25.219-16.354-6.619-6.265-8.429-11.295-1.87-17.236z" fill="#fbf199"/><path d="m729.204 519.567c-20.33 2.586-41.316.949-61.711-1.844-3.863-.529-7.703-1.1-11.516-1.689-7.391-1.147-27.484-7.443-41.213-15.224 3.625-7.108 7.74-13.895 11.484-20.98 1.826-3.452 3.494-7.002 5.074-10.596 14.719-6.08 24.57-17.58 30.428-32.633 6.152-15.806 8.072-32.927 14.451-48.654 9.004-22.196 18.979-4.889 29.283 6.256 14.369 15.545 28.563 31.223 40.508 48.753 8.133 11.934 15.982 24.949 19.189 39.192.979 4.34 1.396 10.182.689 13.82-.881 4.542-2.486 7.906-5.107 10.76-7.518 8.182-20.139 11.387-31.559 12.839z" fill="#67d5e8"/><path d="m627.782 443.486c-2.285 10.695-6.373 20.888-11.473 30.535-3.836 7.252-8.051 14.193-11.733 21.486-20.641-10.148-42.547-17.652-65.144-21.498 8.176-16.948 17.744-33.224 29.134-48.22 8.57-11.279 18.873-23.651 33.402-26.903 16.688-3.735 24.27 5.698 26.889 21.833 1.228 7.554.453 15.623-1.075 22.767z" fill="#ceffff"/><path d="m606.479 386.817c-15.284.362-28.774 10.31-38.452 21.398-3.747 4.292-7.291 8.768-10.708 13.343-7.371-2.982-14.434-6.728-21.704-9.95-7.263-3.218-14.643-6.164-22.086-8.938 3.465-11.891 7.501-23.618 12.358-34.999 3.906-9.154 8.332-18.092 13.2-26.774 17.931 8.098 35.468 17.636 51.144 29.512 6.37 4.828 12.72 10.254 17.973 16.494-.578-.02-1.141-.099-1.725-.086z" fill="#ceffff"/><path d="m438.645 559.634c-3.956 11.021-7.081 23.483-6.649 35.374.427 11.792 3.472 19.945 13.078 29.79 6.432 6.593 14.428 11.945 21.994 16.323 11.887 6.877 25.992 13.119 40.096 14.637.049.123.072.242.128.366 4.005 8.622 8.891 16.71 14.506 24.2-7.243 11.403-9.568 25.561-5.521 38.684 4.877 15.809 17.929 26.553 33.294 31.25-9.496 7.276-20.288 12.714-31.808 16.092-14.942 4.385-29.59 4.002-44.976 4.229-25.165.368-48.308 12.05-63.725 31.978-5.091 6.58-9.154 13.893-11.981 21.666-4.338-14.82-11.34-28.963-18.929-42.83-7.025-12.838-14.398-25.637-19.37-39.448-3.587-9.959-6.278-20.314-8.981-30.544-5.307-20.078-9.862-40.352-14.245-60.648-4.342-20.104-8.471-40.267-12.802-60.386-3.958-18.387-5.147-33.57 20.978-42.589 9.523-3.29 19.552-3.816 29.541-3.935 17.121-.205 33.681-.544 48.202-9.157 2.616 9.897 8.895 18.548 17.17 24.948z" fill="#67d5e8"/><path d="m685.415 1076.694c-2.255 11.151-7.962 13.505-21.836 15.401-12.021 1.644-24.266 1.314-36.471-1.232-23.221-4.846-47.843-14.048-67.598-27.322-17.971-12.077-32.833-31.893-29.957-54.604 1.274-10.112 6.559-2.31 10.452 1.934 7.67 8.36 16.152 15.904 26.228 21.367 10.936 5.925 24.057 10.649 36.644 9.158-.184.868-.427 1.723-.553 2.604-1.713 11.925 4.057 22.2 15.408 26.489 15.718 5.938 35.248 1.104 50.51-3.875 6.001-1.958 11.725-4.34 17.242-7.02 1.142 5.47 1.076 11.429-.069 17.1z" fill="#fbf199"/><path d="m787.917 1005.324c-24.999 28.25-51.148 57.043-85.07 74.203-8.229 4.167-11.367 3.769-10.19-5.428.749-5.86.587-11.988-.884-17.754 26.164-14.355 47.066-36.291 65.596-60.165 5.754-7.414 11.371-14.985 17.076-22.476 3.039 4.281 11.655 13.411 12.391 14.113 8.105 7.706 9.027 8.519 1.081 17.507z" fill="#fbf199"/><path d="m863.292 934.029c-7.495 4.885-14.736 10.169-21.652 15.982-11.345 9.527-21.77 20.039-31.818 30.907-7.747 8.381-12.432 7.763-20.279-.119-3.936-3.953-7.568-8.228-10.646-12.888 15.418-19.88 31.888-38.76 53.74-52.114 8.354-5.104 17.038-9.476 25.912-13.425 4.641 4.345 8.42 9.436 11.209 15.046 4.878 9.808 2.49 10.776-6.466 16.611z" fill="#fbf199"/><path d="m901.259 913.108c-2.915 1.369-5.805 2.774-8.674 4.214-9.608 4.823-13.051 4.502-16.109-1.968-2.777-5.876-6.523-11.295-11.059-15.954 34.285-14.307 70.988-23.254 103.123-42.381.477-.283.953-.587 1.431-.875.132.241.243.49.425.718 4.58 5.736 9.424 11.435 15.467 15.5-26.452 16.496-56.634 27.596-84.604 40.746z" fill="#fbf199"/><path d="m1047.452 788.04c-2.262 21.241-13.051 41.353-27.479 56.821-4.854 5.205-10.045 9.953-15.495 14.338-9.817 7.903-13.995 9.025-19.901 3.368-3.229-3.087-6.057-6.555-8.844-10.038 23.225-15.057 46.137-36.327 53.546-63.395.503-1.837.863-3.708 1.138-5.583 5.779 1.239 11.875.775 17.377-1.325-.039 1.919-.132 3.85-.342 5.814z" fill="#fbf199"/><path d="m1051.368 710.369c1.095 11.123.953 22.275-.421 33.3-.837-1.853-1.657-3.708-2.618-5.531-10.002-19.001-23.354-37.929-43.477-47.007-17.102-7.713-36.504-7.793-54.283-2.324-8.857 2.723-17.299 6.734-25.17 11.601-23.777 14.853-49.053 26.878-74.748 38.085-.898-2.605-2.164-5.129-3.463-7.463-2.723-4.902-6.082-9.453-9.66-13.762-6.01-7.24-13.1-13.809-20.977-19.109 4.84-2.08 9.645-4.279 14.375-6.694 24.957-12.738 47.137-30.498 63.65-53.241 18.017-24.812 27.672-54.348 31.709-84.519 62.458 29.803 118.004 84.808 125.083 156.664z" fill="#fac135"/><path d="m916.904 516.678c1.097 34.13-5.538 69.97-22.241 100.005-13.045 23.458-32.242 42.605-55.012 56.675-8.549 5.283-17.434 9.836-26.547 13.834 19.992-17.142 38.482-38.229 36.326-64.771-1.338-16.484-8.951-34.146-20.797-45.778-10.699-10.503-24.822-14.735-38.732-19.176-8.367-2.671-16.59-5.705-24.063-10.396-8.008-5.028-14.499-11.781-19.965-19.383 15.926-4.716 29.72-14.108 31.654-32.469 1.313-12.478-3.262-25.017-8.611-36.06-3.147-6.501-6.795-12.752-10.766-18.806-7.572-11.533-16.162-27.58-12.562-43.289 3.663-15.988 14.306-29.617 32.374-34.042 32.196-7.884 64.451 11.796 84.759 35.212 10.124 11.668 19.776 24.382 33.558 31.81 11.782 27.505 19.661 56.58 20.625 86.634z" fill="#fac135"/><path d="m719.253 202.643c5.665 3.782 11.086 7.893 16.24 12.12 17.932 14.713 33.781 31.853 49.088 49.222 32.336 36.687 61.389 76.234 86.742 118.05 7.055 11.637 13.648 23.69 19.537 36.078-9.103-7.349-16.395-16.939-24.117-25.757-11.611-13.26-25.45-23.971-41.775-30.804-29.253-12.244-68.557-9.424-82.841 23.139-3.827 8.727-5.365 18.286-4.976 27.784-13.05-15.585-28.096-29.516-38.833-46.889-11.733-18.985-20.078-40.015-25.661-61.586-5.916-22.84-9.361-47.699-5.246-71.164 1.324-7.546 3.568-15.126 7.053-21.904 10.92-21.23 30.359-17.929 44.789-8.289z" fill="#67d5e8"/><path d="m582.112 202.924c-.188-1.102-.414-2.22-.621-3.328 13.103-9.316 29.338-13.701 45.063-15.972 17.737-2.561 36.529-2.557 54.058 1.419.248.056.488.142.735.2-26.353 19.169-29.403 58.769-25.808 89.584 3.512 30.116 12.61 61.955 28.158 89.231-22.845 21.931-17.873 58.42-35.383 83.671-3.504 5.05-8.076 8.942-13.225 11.969 1.236-3.53 2.369-7.092 3.242-10.719 3.537-14.708 4.243-31.461-3.223-45.138-2.248-4.119-5.303-7.641-8.887-10.42-6.068-12.743-17.094-22.862-28.081-31.344-16.24-12.541-34.389-22.653-53.08-31.117 4.16-6.467 8.559-12.768 12.579-19.343 8.165-13.35 14.713-29.298 13.566-45.252 4.877-5.277 9.058-11.228 10.874-18.266 3.791-14.661 2.556-30.419.033-45.175z" fill="#fac135"/><path d="m542.758 135.408c9.523 13.465 16.593 28.63 21.695 44.278 4.859 14.909 8.223 30.542 8.439 46.266.258 18.916-4.093 28.019-12.422 35.92-11.581 10.989-15.572 13.364-19.242-1.477-5.181-21.003-12.375-41.688-23.15-60.301-6.69-11.556-16.4-25.095-29.397-30.422 1.804-1.518 3.564-3.083 5.257-4.718 7.144-6.896 15.494-17.951 11.405-28.277 10.227-13.392 24.512-19.499 37.415-1.269z" fill="#fbf199"/><path d="m308.643 171.818c11.331-8.716 23.683-16.148 36.264-22.905 28.76-15.444 59.578-27.568 91.23-35.59 23.548-5.968 52.524-12.363 76.282-3.912 4.15 1.475 7.994 3.669 11.589 6.265-7.936 1.511-15.763 6.82-22.694 15.027-7.646-7.515-21.477-8.421-31.263-8.221-13.402.276-26.964 3.393-39.858 6.809-20.15 5.343-39.779 12.714-58.647 21.561-17.879 8.381-37.321 17.946-50.908 32.709-4.896 5.322-9.395 12.358-9.896 19.565-14.697.697-22.858 3.378-31.382 12.988 2.254-17.103 9.326-28.949 29.283-44.296z" fill="#fbf199"/><path d="m281.115 252.691c-3.135-15.644-1.307-28.108 6.874-35.527 6.24-5.658 15.343-6.874 23.609-7.173.403 1.192.924 2.375 1.628 3.54 5.808 9.625 18.67 12.078 29.01 12.033 1.05-.022 2.103-.099 3.152-.153-6.53 13.904-1.39 33.767 2.784 46.907 6.86 21.597 17.427 43.026 31.445 60.95 5.75 7.328 7.607 10.749-11.426 12.147-5.59.409-11.176.472-16.728.092-25.959-1.783-42.336-24.351-53.41-45.753-7.278-14.075-13.601-30.389-16.938-47.063z" fill="#fbf199"/><path d="m263.229 347.808c13.099-6.577 26.61-12.229 40.334-17.355 7.654 9.436 16.741 17.311 27.533 22.023 3.785 1.653 7.749 2.82 11.819 3.646 1.864 12.257 10.553 22.183 21.396 28.182 18.207 10.081 38.497 9.483 58.568 10.454-2.383 13.013-3.953 26.179-4.632 39.408-1.057 20.611-.727 45.376 11.061 63.408-7.688 10.494-9.726 21.038-9.078 29.844-15.968 10.996-35.464 8.887-54.193 9.694-9.966.43-19.857 1.907-29.05 5.938-8.28 3.63-15.25 9.146-21.297 15.648-2.829-12.151-5.797-24.268-9.039-36.318-8.894-33.055-24.331-88.861-55.578-113.911-18.401-14.749-43.669-13.049-54.308-9.708 8.73-10.932 27.681-31.48 66.464-50.953z" fill="#fac135"/><path d="m161.349 473.942c1.37-8.287 3.533-16.388 6.357-24.261 9.332-25.995 26.415-44.913 52.675-42.311 10.501 1.041 20.007 6.573 27.553 13.881 21.877 21.176 32.482 53.458 41.191 81.795 7.281 23.696 13.173 47.739 18.524 71.923 3.218 14.54.603 23.764-15.075 34.744-13.101 9.175-29.151 14.144-45.266 13.51-13.231-.521-26.284-5.057-38.913-8.687-4.751-1.364-9.514-2.728-14.304-3.982-16.577-4.353-19.042-4.299-20.035-19.141-.518-7.753-1.388-15.507-2.681-23.255-5.196-31.15-15.289-62.348-10.026-94.216z" fill="#67d5e8"/><path d="m150.346 776.432c5.041-37.831 14.569-75.287 20.105-113.016 2.456-16.736 4.009-33.498 4.192-50.259 12.687 2.077 25.097 6.103 37.411 9.619 13.099 3.739 26.492 7.785 40.251 7.378 23.487-.692 46.063-11.99 60.702-30.206 9.658 46.063 18.439 92.348 32.165 137.382 5.579 18.307 6.649 23.061-7.349 32.514-12.736 8.602-24.385 18.887-37.346 27.271-26.867 17.385-58.263 22.338-89.737 17.765-13.971-2.03-27.785-5.472-41.231-9.937-15.08-4.999-21.21-13.179-19.163-28.511z" fill="#fac135"/><path d="m173.57 813.483c26.505 8.226 54.382 12.448 81.86 8.307 14.113-2.125 27.715-6.789 40.197-13.699 10.965-6.066 20.85-13.771 30.715-21.442 26.604-20.693 32.138-17.738 41.195-1.004 4.617 8.531 9.177 17.104 13.096 26.006 11.059 25.118 12.341 51.808 2.663 77.6-19.975 53.237-77.028 79-131.302 74.781-29.854-2.32-57.276-13.482-75.573-37.93-17.007-22.721-25.597-50.955-28.324-78.947-3.164-32.482 2.276-40.874 25.473-33.672z" fill="#67d5e8"/><path d="m1004.853 691.131c20.123 9.078 33.475 28.006 43.477 47.007.961 1.823 1.781 3.679 2.618 5.531 1.374-11.024 1.516-22.177.421-33.3-1.229-12.467-3.945-24.412-7.875-35.822-4.832 2.848-10.537 4.51-17.385 4.386-23.08-.421-41.791-18.095-65.436-17.618-23.135.465-47.483 17.564-66.015 29.713-16.856 11.049-35.937 26.834-56.274 27.344 3.244 3.99 6.307 8.163 8.805 12.658 1.299 2.334 2.564 4.857 3.463 7.463 25.695-11.207 50.971-23.232 74.748-38.085 7.871-4.866 16.313-8.878 25.17-11.601 17.779-5.469 37.181-5.389 54.283 2.324z" fill="#ee9e2b"/><path d="m502.511 451.141c-1.441 6.813-3.121 13.555-5.521 20.134 2.114-.07 4.221-.128 6.274-.155 8.122-.108 16.19.335 24.188 1.219 5.082-10.94 10.778-21.691 17.142-32.021-13.509 8.173-29.807 14.778-42.083 10.823z" fill="#ee9e2b"/><path d="m429.151 963.775c-21.518-18.615-30.438-46.134-34.051-73.729-2.656 7.604-6.036 14.958-10.122 21.911.002.014.009.024.012.038 2.68 15.763 8.457 30.788 15.911 44.886 14.851 28.09 36.069 53.719 61.596 72.737 20.852 15.534 45.67 27.294 71.867 26.921-.243-.29-.521-.537-.762-.83-14.571-17.789-19.993-40.34-11.956-62.301 8.653-23.636 27.591-40.227 45.767-56.633 27.874-25.167 52.137-54.021 78.709-80.493-8.553-1.063-16.309-5.413-22.45-11.92-5.966 20.047-22.446 37.876-38.983 49.823-24.477 17.688-48.211 32.414-66.461 57.071-9.487 12.815-18.196 26.774-34.175 31.925-19.038 6.134-41.167-7.527-54.902-19.406z" fill="#ee9e2b"/><path d="m636.237 290.84c3.438 27.924 15.3 55.097 14.771 83.475-.245 13.25-4.347 27.497-12.451 38.043 3.545 11.774 2.609 24.841-.225 36.622-.873 3.627-2.006 7.189-3.242 10.719 5.148-3.027 9.721-6.919 13.225-11.969 17.51-25.25 12.538-61.74 35.383-83.671-15.548-27.276-24.646-59.115-28.158-89.231-3.035-26.015-1.273-58.243 15.186-79.2-9.727 6.022-17.264 16.532-22.729 26.042-12.115 21.087-14.687 45.37-11.76 69.17z" fill="#ee9e2b"/><path d="m789.901 557.466c13.91 4.441 28.033 8.673 38.732 19.176 11.846 11.633 19.459 29.294 20.797 45.778 2.156 26.541-16.334 47.629-36.326 64.771 9.113-3.998 17.998-8.551 26.547-13.834 22.77-14.069 41.967-33.217 55.012-56.675 16.703-30.035 23.338-65.875 22.241-100.005-.402-12.529-2.063-24.877-4.652-37.022.405 9.076.345 18.171-.526 27.294-2.434 25.511-12.053 62.216-34.447 77.405-12.536 8.505-22.365 1.444-30.971-7.971-6.397-7-12.35-12.292-21.031-16.28-12.784-5.874-29.816-8.63-44.641-5.889 3.052 1.165 6.14 2.254 9.265 3.252z" fill="#ee9e2b"/><path d="m703.22 783.644c-.129 2.57-.262 5.141-.28 7.706-.04 5.986.532 11.864.292 17.611 21.027-13.802 43.375-25.195 66.262-35.621-2.793-.931-5.536-1.902-8.178-2.764-4.194-1.367-8.373-2.788-12.553-4.202-12.362 11.062-30.201 18.369-45.543 17.27z" fill="#ee9e2b"/><path d="m229.002 398.135c7.571 1.709 15.289 4.897 22.071 10.335 31.247 25.05 46.685 80.855 55.578 113.911 3.242 12.05 6.21 24.167 9.039 36.318 6.047-6.503 13.018-12.019 21.297-15.648 9.193-4.032 19.084-5.509 29.05-5.938 18.729-.807 38.226 1.302 54.193-9.694-.648-8.806 1.39-19.35 9.078-29.844-5.791-8.857-8.806-19.341-10.261-30.157-8.23 14.657-18.579 27.859-33.233 36.226-13.732 7.843-31.203 8.203-45.868 3.056-13.71-4.813-22.921-16.833-30.006-28.877-11.896-20.222-18.893-43.714-36.824-59.799-10.366-9.302-28.149-19.842-44.114-19.889z" fill="#ee9e2b"/><path d="m300.478 797.115c12.961-8.385 24.609-18.67 37.346-27.271 13.998-9.453 12.928-14.207 7.349-32.514-12.422-40.755-20.798-82.535-29.435-124.247-8.021 16.087-5.064 41.458-5.774 56.567-1.493 31.634-4.731 65.993-23.523 92.613-21.07 29.849-63.822 39.023-94.491 19.305-17.133-11.017-28.509-29.037-34.25-48.778-2.792 14.518-5.408 29.051-7.353 43.642-2.047 15.332 4.083 23.513 19.163 28.512 13.447 4.465 27.26 7.906 41.231 9.937 31.474 4.572 62.87-.381 89.737-17.766z" fill="#ee9e2b"/><path d="m807.104 391.868c-13.363-2.04-27.6 3.305-32.154 16.694-4.803 14.128 7.345 33.462 15.631 43.837 12.838 16.081 29.217 28.374 44.589 41.857 6.679 5.858 22.853 21.823 31.445 40.273 5.093 10.951 8.319 13.42 13.556-.31 20.64-54.134-14.075-133.343-73.067-142.351z" fill="#fbe134"/><path d="m620.339 196.086c-6.494-.288-11.381 4.104-15.41 8.682-16.444 18.682 5.432 43.626-20.357 85.047-8.272 13.287-4.295 26.439 2.517 40.02 4.27 8.514 13.683 22.095 25.063 19.736 10.32-2.139 11.768-11.745 11.244-20.933-.326-5.728-1.752-11.423-3.248-16.935-2.861-10.551-4.144-20.89-3.887-31.825.553-23.53 2.968-48.493 12.74-70.136 4.217-9.335 1.652-13.202-8.662-13.656z" fill="#fbe134"/><path d="m382.439 418.416c-6.552-5.794-15.632-8.842-23.543-12.235-10.544-4.522-18.504-10.73-25.859-19.53-12.973-15.52-23.582-28.306-45.417-27.263-8.432.402-21.594 4.396-31.27 10.785-10.856 7.175-7.792 10.49 1.277 11.054 35.569 2.215 54.19 51.657 71.643 77.109 7.13 10.398 16.22 21.813 28.78 25.538 12.597 3.74 22.188-8.21 27.481-17.813 8.556-15.528 11.248-34.963-3.092-47.645z" fill="#fbe134"/><path d="m277.384 647.822c-16.006 7.128-35.201 7.036-52.331 5.811-14.733-1.055-27.353 4.635-36.068 16.519-18.309 24.965-11.763 67.966 10.663 87.983 24.007 21.428 55.771 7.767 72.041-15.379 10.859-15.448 17.389-34.715 21.099-53.053 1.835-9.062 2.397-18.357 1.59-27.562-1.525-17.36-9.623-17.602-16.994-14.319z" fill="#fbe134"/><path d="m525.9 786.648c-36.95 2.36-76.616 30.617-90.41 64.719-16.572 40.979 5.728 76.528 25.32 95.66 9.775 9.541 13.696 1.556 17.679-5.874 9.57-17.856 28.977-31.784 44.452-42.335 17.389-11.855 34.87-23.373 47.548-40.521 24.388-32.988-7.679-74.006-44.589-71.649z" fill="#fbe134"/><path d="m985.864 615.117c-7.596-10.939-21.059-23.862-35.615-20.195-8.479 2.136-13.391 11.291-16.488 18.606-4.954 11.692-9.824 22.221-16.263 32.171-4.911 7.592-4.54 13.236 6.29 8.17 5.36-2.506 10.703-5.073 16.248-6.434 10.364-2.543 20.791-4.421 31.424-2.764 5.83.908 11.43 1.83 17.291.688 14.541-2.838 1.107-24.492-2.887-30.242z" fill="#fbe134"/><path d="m508.911 352.505c-5.383 9.757-8.491 21.158-12.332 31.563-7.801 21.131-8.997 44.233-17.782 64.971-8.941 21.11-34.223 29.318-48.509 13.584.324 2.885.713 5.761 1.269 8.605 1.163 5.935 2.813 12.204 5.781 17.634 1.693-1.466 3.452-2.87 5.327-4.135 11.925-8.043 26.894-11.304 41.661-12.665 7.472-16.622 8.799-35.088 12.878-52.725 1.131-4.888 8.521-34.263 17.481-54.512 5.053-11.421 17.953-36.125 29.531-53.626 6.688-10.11 12.881-21.466 14.911-33.534-18.289 15.347-40.107 27.139-61.222 37.598-7.997 3.96-16.114 7.737-24.324 11.326 5.376-1.077 10.582-2.862 15.855-4.895 4.821-1.86 9.588-3.814 14.461-5.537 6.793-2.399 22.725-9.307 19.622 8.336-1.759 10.018-9.8 19.301-14.608 28.012z" fill="#a9cddd"/><path d="m607.549 738.176c-28.005 2.568-66.812 2.57-80.792-25.037.816 3.692 2.161 7.266 4.165 10.483 9.788 15.721 30.096 19.078 47.159 18.172 16.094-.853 31.989-3.758 48.144-4.383 15.966-.616 31.963-.254 47.893.97 12.984.998 26.467 2.003 39.217 4.787 8.457 1.846 16.715 4.805 24.912 7.544 9.928 3.317 19.813 6.767 29.789 9.941 5.871 1.871 13.545 4.725 18.893 4.938 13.436-5.824 26.973-11.462 40.488-17.16 11.867-5.001 12.775-8.288 5.404-18.576-1.245-1.74-2.531-3.382-3.838-4.934-.637-.756-1.32-1.453-1.975-2.188-.078 4.18-1.359 8.275-4.715 12.084-5.568 6.318-13.496 10.944-20.803 14.99-8.183 4.53-16.748 5.365-25.906 4.47-22.17-2.168-43.824-10.364-65.766-14.202-34.026-5.954-68.012-5.038-102.269-1.899z" fill="#a9cddd"/><path d="m527.053 389.102c-2.577-4.189-3.748-9.055-4.124-14.153-3.564 9.082-6.669 18.347-9.401 27.721 7.443 2.775 14.823 5.721 22.086 8.938 7.271 3.222 14.333 6.968 21.704 9.95 3.418-4.576 6.962-9.051 10.708-13.343 6.944-7.956 15.874-15.262 25.997-18.925-10.596.133-22.875 6.84-31.434 9.595-13.796 4.44-27.256 3.676-35.536-9.783z" fill="#a9cddd"/><path d="m363.036 369.429c2.653 2.287 5.638 4.229 8.729 5.808 16.593 8.461 35.372 7.243 53.455 8.142 2.026-9.089 4.495-18.074 7.333-26.943-7.67 6-16.321 10.364-27.058 13.036-12.54 3.12-29.194 4.577-42.459-.043z" fill="#a9cddd"/><path d="m568.202 470.906c-9.17-4.457-13.708-12.835-15.232-22.015-4.904 8.151-9.401 16.546-13.537 25.118 22.597 3.845 44.503 11.349 65.144 21.498 3.683-7.293 7.897-14.234 11.733-21.486 5.1-9.646 9.188-19.84 11.473-30.535 1.039-4.862 1.674-10.153 1.621-15.417-2.412 12.286-8.508 23.919-18.025 33.729-11.62 11.975-27.907 16.533-43.177 9.108z" fill="#a9cddd"/><path d="m679.126 750.103c-5.322-.454-10.658-.771-15.99-.998 8.172 1.819 15.64 5.354 20.504 13.087 9.273 14.74.645 41.771-7.65 55.107-7.354 11.826-21.559 16.647-34.814 14.498-7.391-1.199-13.316-4.855-17.948-9.865.931 2.258 1.952 4.473 3.13 6.6 4.336 7.83 10.447 13.578 17.765 15.638 10.563 2.978 19.957-5.242 29.269-13.092 5.201-4.385 10.551-8.503 15.977-12.478 4.938-9.297 1.703-21.141 2.178-31.205.242-5.163.631-10.321 1.152-15.467 1.624-15.956 2.134-20.488-13.573-21.825z" fill="#a9cddd"/><path d="m495.583 492.221c-26.049 4.221-49.702 26.548-52.048 53.226.992-.846 2.042-2.465 3.346-5.048 6.804-13.505 15.839-26.235 28.085-34.875 13.317-9.388 31.362-9.797 46.968-8.075 10.629 1.172 22.145 3.359 32.448 7.733 5.604-1.405 11.232-2.172 16.874-2.453-25.064-6.723-50.105-14.65-75.673-10.508z" fill="#a9cddd"/><path d="m497.695 338.208c-1.266-4.185-7.886-3.946-14.445-2.557-11.156 2.358-18.587 4.578-26.836 26.037-9.413 24.495-17.915 62.718-16.894 79.36.333 5.383 3.173 15.786 10.616 15.073 9.683-.926 11.354-14.441 12.703-21.963 3.773-21.034 8.569-41.418 17.701-60.873 4.072-8.673 9.696-16.306 14.59-24.479 1.904-3.182 3.689-6.886 2.565-10.598z" fill="#e9fffb"/><path d="m538.884 363.177c-3.848 10.076-.526 21.574 13.6 21.115 6.438-.207 17.144-2.61 17.651-10.521.475-7.425-9.813-11.718-16.986-15.68-7.321-4.043-10.784-4.028-14.265 5.086z" fill="#e9fffb"/><path d="m584.606 419.67c-6.692 5.97-12.17 15.133-14.59 20.958-5.234 12.597 3.135 22.559 16.063 21.457 15.625-1.334 25.985-16.056 27.774-30.52.514-4.162-.273-8.234-2.191-11.697-5.784-10.436-14.547-11.365-27.056-.198z" fill="#e9fffb"/><path d="m673.017 774.995c-2.002-9.291-10.65-12.345-19.883-12.685-15.826-.582-21.07 1.968-20.43 22.091.557 17.585 3.697 39.396 21.453 29.869 11.853-6.361 21.722-25.987 18.86-39.275z" fill="#e9fffb"/><g fill="#f3af79"><path d="m796.999 823.753c3.746 3.29 7.992 6.815 11.504 10.818 6.451 7.342 8.844 6.582 21.148.925 18.131-8.339 37.199-14.682 55.74-22.132 3.57-1.435 7.605-3.346 10.261-5.66-18.433.54-36.111 8.487-52.77 16.755-17.922 8.898-32.894 3.989-48.731-6.18-3.895-2.5-7.71-5.236-11.321-8.2 4.425 4.767 9.177 9.287 14.169 13.674z"/><path d="m351.464 345.507c5.552.38 11.138.317 16.728-.092 19.033-1.398 17.175-4.819 11.426-12.147-5.876-7.515-11.108-15.667-15.754-24.168-1.201 9.318-7.738 17.09-18.259 17.155-9.858.061-19.703-5.59-27.638-10.899-16.712-11.176-25.061-29.522-33.003-47.604 3.454 11.327 8.027 22.212 13.092 32.003 11.072 21.401 27.449 43.969 53.408 45.752z"/><path d="m941.026 890.363c-14.496 6.701-28.033 14.652-43.078 20.26-8.191 3.055-17.697 4.491-24.33-2.857-1.693-1.875-3.027-3.314-4.703-4.408 2.984 3.682 5.537 7.713 7.561 11.997 3.059 6.47 6.501 6.791 16.109 1.968 2.869-1.439 5.759-2.845 8.674-4.214 27.971-13.15 58.152-24.25 84.604-40.746-2.168-1.459-4.143-3.175-6.045-4.98-5.514 12.229-28.092 18.033-38.792 22.98z"/><path d="m571.831 1015.076c-14.198-3.544-27.645-16.893-32.149-31.473-5.02 13.178 7.604 29.75 27.865 41.455 11.065 6.393 24.729 11.629 37.571 8.861 4.063-10.014 11.484-18.925 19.015-26.211 6.753-6.531 14.329-12.295 22.267-17.314 2.255-1.428 4.563-2.759 6.885-4.067-3.434-.4-6.919-.81-10.506-1.062-11.749-.825-20.842 4.133-29.756 11.209-12.382 9.835-23.787 22.949-41.192 18.602z"/><path d="m525.506 603.04c-13.78-2.247-30.638-11.61-35.821-25.194-.09.189-.171.387-.261.576-2.017 4.232-4.268 8.433-6.915 12.343 13.78 10.018 29.536 18.158 45.877 23.772 13.874 4.77 16.505 3.024 22.604-11.16.625-1.452 1.183-2.93 1.774-4.398-7.73 4.248-16.833 5.761-27.258 4.061z"/><path d="m551.519 550.093c-7.088-.394-14.194-2.728-21.014-4.549-5.156-1.378-10.353-2.188-15.602-3.087-6.386-1.095-10.373-3.339-13.402-7.108.081 3.132-.214 6.294-.771 9.415 11.648 1.14 23.19 4.27 34.348 7.609 9.815 2.937 19.653 6.215 29.094 10.294 1.229-5.399 2.17-10.863 2.703-16.346-4.099 2.819-8.934 4.129-15.356 3.772z"/><path d="m330.095 1019.187c.437-.132.884-.231 1.317-.366 5.779-1.79 11.559-3.805 16.924-6.629 7.286-3.83 8.304-8.55 8.889-13.801.043-.373.057-.789.095-1.169-3.387 3.511-7.567 6.026-12.298 6.296-7.421.428-10.92-5.654-12.714-13.042-.014.39-.014.782-.027 1.172-.317 9.194-.998 18.405-2.186 27.539z"/><path d="m979.753 857.408c1.533 1.788 3.121 3.529 4.824 5.159 5.906 5.657 10.084 4.535 19.901-3.368 5.45-4.385 10.641-9.133 15.495-14.338 13.139-14.088 23.184-32.041 26.596-51.18-4.599 10.708-10.299 20.98-16.822 30.537-10.744 15.741-29.156 38.331-49.994 33.19z"/><path d="m272.376 1001.029c2.365 6.015 5.298 11.934 8.869 17.406 4.632 7.105 9.622 8.395 18.875 7.214 3.832-.49 7.647-1.113 11.441-1.857 8.938-1.759 11.563-3.54 12.403-11.448.085-.803.13-1.609.207-2.415-5.285 9.056-22.586 9.339-30.845 7.846-9.687-1.749-16.696-9.343-21.452-18.133.174.458.323.93.502 1.387z"/><path d="m886.32 773.554c-8.8-5.95-16.597-11.603-21.894-20.112.541 1.356 1.301 2.865 2.229 4.604 5.869 11.021 14.215 20.724 24.421 27.953 3.661 2.59 7.679 4.559 10.848 7.82 2.747 2.827 4.585 6.18 5.484 9.809 6.378-3.154 12.626-6.576 18.647-10.48 11.16-7.231 20.828-16.359 31.224-24.537 7.373-5.8 11.587-10.349 10.107-17.688-.853-4.221-2.575-8.284-4.647-12.188 1.668 23.917-20.65 45.245-44.551 47.073-11.609.887-22.673-6.037-31.868-12.254z"/><path d="m640.478 941.246c6.197 7.953 12.729 16.565 20.326 23.752 10.4 9.829 17.1 7.682 28.516-1.447 11.334-9.063 21.652-19.283 31.553-29.973-11.349 7.998-23.295 15.122-35.672 19.687-24.848 9.163-42.006-18.048-61.746-31.4 6.147 5.938 11.694 12.543 17.023 19.381z"/><path d="m541.229 260.396c3.67 14.841 7.661 12.466 19.242 1.477 8.329-7.902 12.68-17.004 12.422-35.92-.137-10.044-1.57-20.051-3.845-29.855-.025.706 0 1.417-.034 2.123-.494 10.13-2.777 20.159-7.546 29.136-7.455 14.025-20.778 10.065-29.807 1.766 3.834 10.193 6.957 20.692 9.568 31.273z"/><path d="m809.821 980.919c10.049-10.868 20.474-21.38 31.818-30.907 6.916-5.813 14.157-11.098 21.652-15.982 8.956-5.835 11.344-6.804 6.465-16.61-.033-.067-.076-.13-.107-.196-4.65 11.604-26.605 22.114-33.818 28.813-15.451 14.354-31.371 40.719-53.046 27.095 2.122 2.671 4.353 5.255 6.757 7.67 7.848 7.88 12.532 8.498 20.279.117z"/><path d="m703.216 880.602c5.6 10.668 13.461 20.387 23.382 27.173 8.849 6.058 14.317 3.177 23.849-7.81 8.035-9.262 16.15-18.405 24.666-27.049 6.527-6.513 13.512-12.539 20.932-17.999 2.059-1.513 4.285-2.892 6.12-4.328-19.64 3.852-37.802 10.155-52.74 26.842-5.153 5.759-9.838 11.63-16.032 16.359-12.275 9.37-21.822-8.28-26.502-16.192-4.125-6.976-6.952-14.385-11.883-20.901-2.061-2.724-4.676-4.839-7.414-6.81 5.948 9.779 10.296 20.564 15.622 30.715z"/><path d="m967.569 722.934c-5.316-5.763-10.126-11.875-15.201-17.798.121 2.523 1.623 5.653 3.843 9.537 2.862 5.01 6.038 9.858 9.132 14.67 3.447 5.358 6.422 11.208 8.084 17.328 2.289 8.421 2.764 8.396 13.843 4.441 6.46-2.31 13.253-3.622 20.009-2.948 16.32 1.637 23.471 14.524 23.604 28.594.108 0 1.611.055 3.359.127 5.33-9.908-4.645-26.04-12.783-31.188-9.604-6.076-23.754-2.322-34.294-4.823-8.856-2.103-13.793-11.647-19.596-17.94z"/><path d="m505.111 274.501c-19.215 10.816-38.646 2.042-51.434-12.685 5.788 12.507 11.794 24.985 18.446 37.087 8.228 14.967 20.243 6.969 40.701-4.493 3.969-2.222 7.913-4.506 11.808-6.868 15.5-9.403 14.131-7.805 10.524-22.855-2.086-8.72-4.54-17.377-7.423-25.871-.929 14.656-8.816 27.913-22.622 35.685z"/><path d="m294.667 205.645c4.506-1.479 9.645-2.212 16.076-2.519.501-7.207 5.001-14.243 9.896-19.565 13.586-14.763 33.028-24.328 50.908-32.709 18.868-8.846 38.497-16.218 58.647-21.561 12.894-3.416 26.456-6.532 39.858-6.809 9.786-.2 23.617.706 31.263 8.221 2.528-2.993 5.177-5.59 7.904-7.767-7.967-1.025-15.273-5.042-23.397-5.887-12.226-1.273-24.254-1.048-36.455.391-21.896 2.582-43.046 9.973-63.149 18.751-21.193 9.253-42.387 20.818-60.729 34.951-12.272 9.455-19.306 24.649-30.822 34.503z"/><path d="m271.769 1015.922c-3.348 1.803-8.057 1.594-11.461.926-6-1.178-10.751-5.792-14.644-10.156-3.789-4.246-6.726-9.105-9.356-14.129 4.434 11.019 9.478 21.524 12.63 25.241 6.683 7.877 19.354 9.175 29.874 9.21-2.62-3.512-4.951-7.236-7.043-11.092z"/><path d="m387.513 332.094c7.448 8.761 14.845 7.533 27.802 3.627 4.367-1.317 31.342-11.065 32.462-11.032 15.977-6.042 24.51-11.306 19.5-20.298-7.645-13.704-14.438-27.911-20.978-42.138-.25 16.95-3.267 32.531-16.563 45.818-17.704 17.692-42.372 13.984-58.821-.821.014.025.027.049.041.074 4.807 8.66 10.13 17.205 16.557 24.77z"/><path d="m611.704 1079.273c-15.86-3.825-30.777-10.566-45.434-17.571-8.878-4.241-17.258-8.702-24.679-14.501 5.055 6.341 11.27 11.873 17.919 16.34 19.754 13.274 44.377 22.477 67.598 27.322 12.205 2.547 24.449 2.876 36.471 1.232 13.874-1.896 19.581-4.25 21.836-15.401.363-1.795.576-3.616.718-5.442-21.366 16.57-48.679 14.234-74.429 8.021z"/><path d="m535.27 632.228c-13.316 5.015-26.438 4.594-42.246.014-7.96-2.308-39.729-13.62-43.541-26.928-2.21 4.329-.006 8.417 5.08 13.231 7.412 7.018 17.362 12.428 25.219 16.354 11.524 5.764 30.121 13.92 43.105 8.258 4.884-2.131 8.936-6.257 12.383-10.929z"/><path d="m751.117 1034.645c-11.032 11.016-22.172 21.748-35.237 30.37-8.281 5.464-16.719 7.982-22.264-2.692-.303-.584-.627-1.05-.969-1.463.611 4.389.564 8.889.009 13.24-1.177 9.196 1.961 9.595 10.19 5.428 33.922-17.16 60.071-45.953 85.07-74.203 7.072-7.999 7.085-9.551 1.297-15.217-3.046 17.787-26.657 33.111-38.096 44.537z"/><path d="m444.478 582.51c-.947 5.761-1.264 11.603-.396 17.211 1.07-1.142 2.17-2.244 3.276-3.27 2.923-2.707 6.094-5.194 9.393-7.452-.428-6.881 1.322-13.95 3.184-20.494-8.181 15.608-11.526 20.103-15.457 14.005z"/></g><path d="m566.234 1032.238c-10.076-5.463-18.558-13.007-26.228-21.367-3.893-4.243-9.177-12.046-10.452-1.934-.178 1.4-.286 2.791-.331 4.169 6.249.854 13.665 9.08 17.342 11.963 7.673 6.011 16.492 11.027 25.415 14.886 8.232 3.561 19.716 6.904 30.178 6.566.045-.839.045-1.664.168-2.521.126-.882.369-1.736.553-2.604-12.588 1.492-25.71-3.233-36.645-9.158z" fill="#fff7cf"/><path d="m514.382 143.332c.562-8.84 2.645-15.039 8.95-19.166-6.566.816-12.799 5.718-17.987 12.512 4.088 10.326-4.261 21.38-11.405 28.277-1.693 1.635-3.454 3.2-5.257 4.718 12.997 5.327 22.707 18.866 29.397 30.422 4.047 6.994 7.591 14.277 10.71 21.763 2.655-13.582-6.193-25.52-14.529-35.77-4.392-5.399-8.003-10.888-8.646-18.007-.524-5.786 4.563-11.738 6.991-16.686 1.045-2.126 1.628-5.74 1.776-8.063z" fill="#fff7cf"/><path d="m520.651 558.498c5.635.189 11.059.873 16.42 1.766-1.28-.394-2.552-.846-3.83-1.228-11.016-3.299-22.486-6.58-34.004-7.542-.164.639-.326 1.277-.495 1.905-.485 1.814-1.032 3.616-1.597 5.413 7.305-2.173 16.747-.541 23.506-.314z" fill="#fff7cf"/><path d="m353.969 224.688c-4.435 5.806-4.821 13.924-4.342 21.041.261 3.895.868 7.78 1.617 11.655.135-1.585.315-3.177.576-4.781 2.194-13.546 15.693-18.972 26.496-24.515 10.598-5.438 21.914-10.646 33.946-11.522 7.169-.521 12.719 2.597 17.234 7.16-2.541-6.072-5.104-12.137-7.567-18.241-11.228 4.437-22.633 8.423-34.222 11.763-10.965 3.159-22.306 6.037-33.738 7.44z" fill="#fff7cf"/><path d="m342.236 225.563c-10.34.045-23.202-2.408-29.01-12.033-.704-1.165-1.225-2.348-1.628-3.54-7.081.257-14.765 1.208-20.746 5.026 5.444-2.019 11.479-1.5 17.355 3.652 3.153 2.764 5.723 6.546 9.404 8.675 2.909 1.682 5.511 2.647 8.808 3.526 8.862 2.356 9.757 9.008 10.827 16.278 1.999 13.56 8.322 30.557 17.414 42.79-2.429-5.817-4.61-11.709-6.487-17.621-4.174-13.141-9.314-33.003-2.784-46.907-1.051.055-2.103.132-3.153.154z" fill="#fff7cf"/><path d="m961.151 698.023c7.492.473 14.857 1.143 22.174 3.52 10.974 3.568 21.41 10.078 30.166 17.467 8.329 7.029 14.561 16.607 20.387 25.7 5.387 8.41 10.688 16.523 12.448 26.116.247-2.073.022-4.635-.81-7.853-3.453-13.382-10.438-25.745-18.592-37.626-10.695-15.586-26.258-27.068-45.518-28.689-6.475-.544-12.878-.105-19.131 1.115-.402.08-.751.167-1.124.25z" fill="#fff7cf"/><path d="m903.22 726.361c-9.906 5.188-19.976 10.02-30.14 14.647-1.115.509-2.083.991-2.979 1.466 10.18.133 22.275-4.016 29.723-7.173 9.678-4.104 18.525-9.448 27.773-14.371 9.99-5.318 19.736-1.036 27.717 5.559-2.008-3.171-3.986-6.38-5.816-9.676-6.007-10.813-5.752-14.216-18.287-6.465-9.121 5.699-18.462 11.023-27.991 16.013z" fill="#fff7cf"/><path d="m596.031 925.141c-9.116 9.045-18.43 17.877-27.989 26.53-5.597 5.065-11.297 10.472-16.611 16.235 12.779-4.383 24.549-15.667 34.411-22.817 13.238-9.6 24.873-13.033 39.958-4.162 4.641 2.729 9.191 6.224 13.57 10.026-.844-1.074-1.703-2.156-2.527-3.218-7.122-9.144-14.396-18.083-23.152-25.419-6.807-5.7-8.467-6.294-17.66 2.825z" fill="#fff7cf"/><path d="m840.39 755.293c-24.039 10.235-57.492 24.289-59.785 25.313-2.387 1.064-4.301 2.071-5.846 3.057 6.889-.639 14.141-3.131 19.951-4.813 12.655-3.666 24.002-10.846 36.693-14.545 16.615-4.841 23.51 7.34 35.105 15.627 5.971 4.268 12.861 7.827 19.844 10.939-1.492-1.012-2.971-2.051-4.379-3.216-9.361-7.74-16.916-17.447-22.35-28.255-3.866-7.689-6.769-9.421-19.233-4.107z" fill="#fff7cf"/><path d="m618.403 902.131c8.541-5.831 16.498-12.024 24.445-19.26 9.118-8.305 16.791-22.028 30.219-23.43 13.484-1.41 18.696 24.797 25.498 33.116 4.39 5.37 9.801 11.94 16.525 14.78-6.082-5.495-11.301-11.989-15.533-19.122-5.139-8.657-8.961-18.129-13.575-27.108-6.19-12.048-10.2-17.156-18.776-9.151-17.072 15.925-32.842 33.159-48.803 50.175z" fill="#fff7cf"/><path d="m695.429 828.68c5.502-3.182 11.053-6.282 16.533-9.426 11.846-6.794 33.435-20.834 46.568-12.786 14.203 8.702 23.775 26.734 41.09 29.065-3.139-3.028-6.414-5.922-9.676-8.803-8.005-7.074-15.441-14.628-21.589-23.175-6.392-8.88-9.106-13.071-20.103-7.355-18.421 9.569-36.129 20.218-52.823 32.48z" fill="#fff7cf"/><path d="m443.61 196.263c-5.05 2.336-10.162 4.549-15.307 6.685 4.32 10.724 8.801 21.381 13.389 31.994-.171-.76-.315-1.513-.437-2.264-.207-1.275-.308-2.53-.314-3.769-.016-.456-.022-.91-.021-1.362.012-.228.002-.457.018-.684.641-8.158 5.278-15.451 10.717-21.839 4.216-4.954 9.368-9.148 14.357-13.285 9.674-8.019 18.269-9.867 30.024-9.386-4.131-3.661-8.759-6.458-13.917-7.558-11.88 8.648-25.364 15.386-38.509 21.468z" fill="#fff7cf"/><path d="m231.801 972.949c5.57 4.139 12.373 5.546 19.091 7.421 7.259 2.028 9.204 11.745 12.226 17.578.765 1.478 1.572 2.923 2.411 4.345-3.225-8.301-5.62-17.081-6.434-25.979-9.237-.284-18.387-1.421-27.294-3.365z" fill="#fff7cf"/><path d="m267.364 984.306c5.624-5.224 27.467-7.675 30.384-8.291 7.463-1.574 19.683-6.544 27.609-3.175-.137-2.917-.33-5.829-.663-8.719-18.354 7.83-38.524 11.904-58.607 12.192.27 2.685.733 5.345 1.277 7.993z" fill="#fff7cf"/><path d="m896.975 889.549c12.272-3.411 24.247-7.958 36.275-12.131 10.991-3.814 30.468-8.123 39.849-17.257-.91-1.093-1.819-2.19-2.703-3.299-.182-.228-.293-.477-.425-.718-.478.288-.954.592-1.431.875-27.289 16.242-57.862 25.165-87.461 36.242 5.322-1.126 10.645-2.253 15.896-3.712z" fill="#fff7cf"/><path d="m553.929 517.786c-.71-.362-1.459-.663-2.183-1.003-.236-.083-.455-.191-.67-.308-12.954-5.878-28.021-8.275-42.068-8.228-4.911.016-9.482.454-13.775 1.437-5.923 1.358-10.407 3.96-9.48 9.278 7.445-10.034 27.651-6.197 37.948-5.478 16.109 1.129 29.174 5.793 42.09 13.796-2.401-4.432-7.546-7.306-11.862-9.494z" fill="#fff7cf"/><path d="m523.786 620.251c-16.215-5.806-31.848-14.009-45.45-24.007-.023.027-.043.059-.068.086-.71.76-1.502 1.495-2.343 2.184 12.935 10.764 30.596 18.868 47.861 21.737z" fill="#fff7cf"/><path d="m332.45 983.788c.929-5.942 2.588-11.846 5.478-16.905 3.848-6.739 10.294-10.708 16.557-14.82-.366-1.57-.746-3.098-1.162-4.465-6.87 5.197-14.295 9.686-22.116 13.495 1.002 7.503 1.296 15.115 1.243 22.695z" fill="#fff7cf"/><path d="m992.554 840.316c6.785-3.957 13.08-8.797 18.949-14.891 9.861-10.242 19.119-26.725 21.727-41.48-.939-.113-1.884-.193-2.813-.394-.274 1.875-.635 3.746-1.138 5.583-5.591 20.423-20.008 37.54-36.725 51.182z" fill="#fff7cf"/><path d="m757.368 996.181c-15.459 19.921-32.623 38.423-53.064 52.367 13.088-5.968 24.538-13.739 34.484-25.358 13.574-15.855 24.247-31.176 42.513-41.313-2.572-2.852-5.376-6.085-6.856-8.172-5.706 7.49-11.323 15.062-17.077 22.476z" fill="#fff7cf"/><path d="m478.754 517.363c-2.089 1.59-4.129 3.349-6.087 5.453-4.682 5.028-8.734 10.708-12.271 16.719 5.534-5.1 11.968-9.068 18.914-10.683.546-.609 1.122-1.223 1.742-1.831-1.281-2.35-1.792-5.015-2.136-7.702-.083-.649-.105-1.303-.162-1.956z" fill="#fff7cf"/><path d="m858.548 902.373c-8.874 3.949-17.559 8.32-25.912 13.425-19.721 12.053-35.048 28.616-49.186 46.343 10.211-6.858 19.551-14.027 28.478-23.092 15.149-15.39 29.493-28.365 51.024-31.949-1.379-1.647-2.822-3.245-4.404-4.727z" fill="#fff7cf"/><path d="m667.493 517.724c20.395 2.792 41.381 4.43 61.711 1.844 11.42-1.453 24.041-4.657 31.561-12.838 2.621-2.854 4.227-6.217 5.107-10.76.707-3.638.289-9.48-.689-13.82-1.113-4.94-2.809-9.723-4.857-14.374.428 11.185-2.359 22.147-10.404 31.16-11.471 12.852-32.486 11.014-47.594 8.048-14.348-2.815-28.973-8.034-41.148-16.163-10.543-7.041-16.037-16.926-18.506-28.086-3.418 2.562-7.164 4.771-11.35 6.501-1.58 3.593-3.248 7.144-5.074 10.596-3.744 7.085-7.859 13.872-11.484 20.98 13.729 7.781 33.822 14.077 41.213 15.224 3.811.588 7.651 1.159 11.514 1.688z" fill="#65b0b9"/><path d="m527.921 669.346c18.794 27.789 48.414 45.482 81.285 51.063 29.463 5.003 58.967-1.066 88.164-5.098 61.736-8.527 102.338-23.604 121.594-43.017 5.453-5.496 10.447-11.363 14.637-17.761 7.951-12.143 10.996-25.808 7.618-40.046-.729-3.069-1.698-6.114-2.798-9.116-.047 5.624-.636 11.43-2.003 17.556-5.617 25.128-22.22 43.855-44.481 55.848-22.193 11.955-47.966 16.617-72.739 19.446-21.923 2.503-44.276 3.714-66.298 1.963-23.857-1.896-46.891-9.292-64.446-26.062-19.831-18.945-16.278-47.164-12.264-71.523 3.202-19.429 10.299-50.15 2.204-71.521.668 4.697.526 9.645.063 14.558-1.502 15.945-5.642 31.677-10.933 46.754-5.341 15.224-11.882 30.607-21.288 43.804-6.836 9.593-14.851 17.427-26.292 19.433 2.421 4.709 5.007 9.328 7.977 13.719z" fill="#65b0b9"/><path d="m408.868 540.089c-11.209 3.339-23.249 3.604-35.594 3.753-9.988.119-20.018.645-29.541 3.935-26.125 9.019-24.936 24.202-20.978 42.589 4.331 20.119 8.46 40.282 12.802 60.386 4.383 20.297 8.938 40.57 14.245 60.648 2.703 10.229 5.395 20.585 8.981 30.544 4.972 13.812 12.345 26.61 19.37 39.448 7.589 13.867 14.591 28.01 18.929 42.83 2.827-7.773 6.89-15.086 11.981-21.666 15.417-19.928 38.56-31.609 63.725-31.978 15.386-.228 30.033.155 44.976-4.229 5.111-1.498 10.047-3.468 14.821-5.757-7.439 1.454-15.091 2.23-23.056 2.26-19.746.076-39.428-5.676-59.192-2.589-10.521 1.646-20.029 5.914-30.303 8.469-14.692 3.652-26.658-4.73-34.604-16.113-12.435-17.813-18.439-42.525-24.407-63.161-6.015-20.796-10.442-42.148-13.262-63.612-2.197-16.732-1.902-34.447 6.946-49.32 11.137-18.722 39.254-21.909 54.161-36.437z" fill="#65b0b9"/><path d="m176.421 926.102c18.297 24.447 45.72 35.609 75.573 37.93 54.273 4.219 111.327-21.544 131.302-74.781 9.678-25.792 8.396-52.481-2.663-77.6-3.919-8.902-8.479-17.475-13.096-26.006-9.058-16.734-14.592-19.689-41.195 1.004-.688.535-1.383 1.065-2.071 1.601 11.185-1.522 22.086-.193 30.96 8.072 14.747 13.737 16.275 40.757 15.536 59.491-1.545 39.102-26.087 73.473-62.673 87.143-67.822 25.342-141.486-28.286-159.783-94.082 2.907 27.426 11.452 54.972 28.11 77.228z" fill="#65b0b9"/><path d="m698.318 365.585c10.737 17.374 25.783 31.304 38.833 46.889-.39-9.498 1.148-19.058 4.976-27.784 14.284-32.563 53.588-35.383 82.841-23.139 16.325 6.833 30.164 17.544 41.775 30.804 4.824 5.507 9.525 11.266 14.561 16.643-3.969-6.643-8.343-13.078-12.967-19.406-15.193-20.793-33.934-40.29-59.42-47.395-20.682-5.768-41.807 4.032-61.416 9.354-24.004 6.514-42.473 1.947-55.447-19.766-9.105-15.235-13.195-33.502-16.48-50.757-3.6-18.907-5.327-37.838-6.143-56.916-.809 2.885-1.508 5.799-2.02 8.722-4.115 23.465-.67 48.324 5.246 71.164 5.583 21.572 13.928 42.602 25.661 61.587z" fill="#65b0b9"/><path d="m243.184 448.552c14.443 21.563 23.159 46.392 30.33 71.159 7.504 25.925 11.032 55.906-13.064 74.168-16.434 12.453-38.214 18.32-59.138 18.687 2.361.661 4.731 1.295 7.083 1.972 12.629 3.63 25.682 8.165 38.913 8.687 16.114.634 32.165-4.335 45.266-13.51 15.678-10.98 18.293-20.204 15.075-34.744-5.352-24.185-11.243-48.227-18.524-71.923-8.709-28.338-19.313-60.62-41.191-81.795-7.546-7.308-17.052-12.84-27.553-13.881-9.293-.922-17.416.897-24.472 4.727 19.369 3.688 36.659 20.607 47.275 36.453z" fill="#65b0b9"/><path d="m786.264 623.961c-4.462-14.48-20.834-18.791-35.695-19.792-26.909-1.811-52.968 1.354-79.823-3.594-13.739-2.532-27.063-6.714-38.875-13.55-15.367-8.9-20.28-8.419-21.258 2.593-1.318 14.862-5.928 29.37-5.76 44.876.191 17.52 11.742 30.326 28.438 38.302 19.334 9.237 43.412 10.427 64.849 9.867 24.976-.65 51.314-7.146 71.53-20.575 13.893-9.229 21.278-22.921 16.594-38.127z" fill="#a6f4ff"/><path d="m734.038 456.87c-5.891-8.968-15.005-15.829-22.105-23.822-4.332-4.875-8.416-9.973-12.456-15.089-3.261-4.128-7.888-11.947-13.854 4.691-6.824 19.046-13.631 39.37-.703 56.889 9.391 12.723 35.398 20.175 49.697 12.086 13.636-7.71 6.042-24.674-.579-34.755z" fill="#a6f4ff"/><path d="m799.729 301.663c-13.484-20.132-29.182-39.5-47.605-54.746-20.971-17.354-38.658-21.349-41.159 4.936-2.011 21.144-3.159 55.704 16.353 69.634 9.691 6.919 24.154-.049 33.822-3.083 10.031-3.146 21.221-4.502 32.115-4.055 9.793.399 13.004-2.936 6.474-12.686z" fill="#a6f4ff"/><path d="m480.976 687.203c-9.154-16.684-31.027-24.309-45.686-34.848-12.966-9.32-23.008-21.877-28.473-36.896-4.453-12.241-2.912-25.756-1.028-38.733.596-4.113 2.166-14.634-10.6-7.51-11.466 6.399-20.503 15.657-24.931 28.899-5.66 16.939-1.477 36.186 1.327 53.262 3.301 20.09 7.72 40.254 17.013 58.511 8.862 17.407 22.937 27.015 41.605 31.551 14.96 3.634 32.117 2.914 44.344-7.288 12.934-10.794 14.068-33.026 6.429-46.948z" fill="#a6f4ff"/><path d="m216.337 458.401c-17.233-29.093-36.393-25.509-41.11 11.675-1.317 10.402-1.362 21.01-.994 31.547.596 17.198 1.696 35.758 11.637 50.442 8.315 12.278 23.341 8.884 35.544 5.649 11.295-2.996 18.03-11.273 19.792-22.64 3.471-22.37-17.711-64.584-24.869-76.673z" fill="#a6f4ff"/><path d="m339.18 839.064c-11.891-11.561-33.431-5.436-47.098-1.552-19.24 5.469-36.726 11.788-56.709 14.191-14.333 1.725-31.96 3.73-47.42.511-17.47-3.639-20.656-3.376-10.108 14.321 16.076 26.966 42.889 47.771 73.378 55.223 28.075 6.863 56.093-2.159 75.701-21.329 3.031-2.83 5.768-5.936 8.23-9.264.155-.214.319-.423.472-.637.69-.92 1.327-1.887 1.981-2.838 1.871-2.709 3.654-5.502 5.23-8.455 7.26-13.589 7.835-28.993-3.657-40.171z" fill="#a6f4ff"/><path d="m411.724 168.133c-25.781 9.507-53.831 24.447-73.253 45.775 1.224.09 2.474.148 3.765.142 14.933-.324 29.817-4.203 44.069-8.388 18.504-5.433 36.628-12.302 54.063-20.543 15.538-7.345 31.641-15.519 44.346-27.279 1.837-1.7 3.461-3.396 4.832-5.057-26.699-.407-54.674 6.818-77.822 15.35z" fill="#515151"/><path d="m463.936 581.731c-.184 1.279-.319 2.563-.371 3.841-.522 12.842 7.85 8.521 11.43 3.944 3.558-4.54 6.247-9.87 8.68-15.032 3.447-7.311 6.254-14.952 8.36-22.757-7.241 12.402-16.427 23.769-28.099 30.004z" fill="#515151"/><path d="m990.836 762.088c-14.3 4.994-26.689 14.916-37.874 24.828-16.175 14.335-34.533 24.991-54.385 33.39-19.248 8.147-39.262 14.374-58.389 22.815-21.17 9.341-40.507 21.539-56.934 37.935-7.715 7.83-15.102 15.966-22.358 24.216-28.907 32.867-56.808 67.582-96.405 88.064-15.598 8.07-30.766 18.612-41.455 32.77-5.266 6.969-12.451 18.766-8.696 27.33.483 1.103 1.138 2.035 1.884 2.877 6.854-14.659 21.02-26.917 33.976-34.704 20.481-12.307 41.877-20.618 60.399-36.169 38.641-32.447 64.525-77.523 104.914-108.146 17.746-13.458 38.137-22.795 59.189-29.761 20.905-6.918 42.58-11.232 62.748-20.285 31.036-13.927 44.982-47.647 70.296-67.422-1.015-.176-2.051-.299-3.132-.324-4.73-.106-9.308 1.025-13.778 2.586z" fill="#515151"/></g></g></svg>