<svg id="Puppies" height="512" viewBox="0 0 1200 1200" width="512" xmlns="http://www.w3.org/2000/svg"><g><path d="m284.991 868.829c3.504 29.793 7.866 66.867 29.442 93.588 43.731 54.17 129.363 62.717 175.366 67.309 24.472 2.443 49.887 3.68 75.539 3.682h.014c53.595 0 109.546-5.348 166.289-15.889 40.756-7.574 87.939-18.518 128.898-42.275 54.885-31.832 57.273-100.225 58.422-133.094 2.265-64.83-10.699-139.428-39.561-227.826l-.207-.684c-.258-.877-.525-1.75-.748-2.379-.126-.377-.266-.758-.418-1.133l-2.006-6.088c-10.164-30.35-22.811-68.12-53.494-90.444-23.981-17.452-53.203-24.863-82.798-29.201 11.923-35.716 16.368-76.082 11.947-112.337-11.666-95.694-76.849-172.067-174.362-204.302-.623-.207-1.255-.381-1.896-.521-.713-.16-1.41-.275-2.037-.352-1.234-.193-2.479-.29-3.715-.29-8.565 0-16.303 4.603-20.497 12.103-4.425 7.414-4.533 16.535-.211 24.109 30.284 53.166-1.94 95.07-39.257 143.592-26.337 34.249-53.572 69.66-59.662 111.882-2.163 15.01-1.821 29.476 1.01 43.235-44.328 11.304-90.59 29.854-121.088 76.692-22.111 33.951-36.008 77.605-43.734 137.383-2.976 23.021-4.718 46.555-5.179 69.982-.1.689-.162 1.369-.187 2.002-.119 3.217-.1 6.506.069 10.311-.003 24.142 1.362 48.008 4.061 70.945z" fill="#fff"/><g><g><path d="m636.689 936.802c.24.217.551.332.865.332.104 0 .205-.014.306-.039 14.823-3.584 30.384-5.48 45.003-5.48 14.054 0 26.824 1.721 37.957 5.113.124.039.252.059.381.059.289 0 .575-.096.807-.281.338-.264.521-.676.494-1.104-2.871-48.008-26.538-88.449-63.304-108.176-.191-.102-.402-.156-.616-.156-.102 0-.202.014-.301.037-3.558.84-7.124 1.613-10.693 2.311-.58.115-1.012.605-1.05 1.195-.513 7.604-3.276 15.148-8.212 22.42-3.02 4.449-7.479 8.854-12.896 12.746-.523.375-.694 1.082-.397 1.656 10.571 20.57 14.245 42.891 11.228 68.236-.053.426.106.848.428 1.131z" fill="#ff5671"/><path d="m510.14 699.526c-11.537-5.996-23.284-9.166-33.975-9.166-21.307 0-35.956 12.273-41.254 34.557-7.145 30.059-.825 59.59 17.791 83.152 20.969 26.533 54.85 42.373 90.637 42.373h.008c3.253 0 6.543-.135 9.781-.395.373-.033.717-.221.941-.523.223-.301.309-.684.23-1.051-1.386-6.523-1.408-13.537-.065-20.844.124-.674-.295-1.328-.958-1.5-45.885-11.848-83.975-60.506-84.912-108.467-.018-.91.245-1.648.778-2.191.58-.592 1.466-.932 2.433-.932 1.234 0 3.342.668 3.391 3.174.281 14.414 4.422 29.744 11.971 44.334.225.432.672.703 1.16.705 26.136.012 60.12 11.131 77.122 35.943.228.332.596.543.999.564.024.002.051.004.078.004.373 0 .73-.162.979-.441 3.139-3.561 6.6-6.498 10.285-8.732.447-.27.69-.783.616-1.303-5.04-34.856-32.381-70.729-68.036-89.261z" fill="#ff5671"/><path d="m493.599 769.532c-.027-.004-.052-.006-.078-.006-.461 0-.891.246-1.125.646-.249.422-.24.949.025 1.361 15.478 24.246 38.242 41.809 62.463 48.188.112.029.223.045.333.045.554 0 1.062-.354 1.241-.9 1.358-4.148 3.139-8.254 5.298-12.207.221-.406.167-.947-.069-1.346-14.35-24.248-45.646-34.431-68.088-35.781z" fill="#ff7cc7"/><path d="m510.773 961.464c.009.434.235.836.602 1.07.214.135.457.205.702.205.178 0 .357-.039.524-.111 17.901-7.852 40.516-12.385 69.139-13.857.376-.021.727-.203.961-.5.231-.297.326-.68.254-1.051-4.167-21.781-7.402-45.211-2.888-68.939.128-.672-.28-1.326-.939-1.504-6.726-1.824-12.273-5.383-16.487-10.582-2.172-2.676-3.969-5.625-5.496-9.018-.211-.471-.679-.771-1.189-.771-.045 0-.092.006-.137.01-3.794.402-7.823.629-12.316.691-.42.004-.812.211-1.053.557-.094.135-.164.271-.199.389-21.931 25.135-32.52 59.928-31.478 103.411z" fill="#ff5671"/><path d="m634.541 846.89c7.003-11.936 7.358-24.623 1.001-35.725-7.079-12.355-21.573-20.66-36.074-20.66-12.176 0-22.882 5.766-30.184 16.295-9.313 15.209-14.276 37.039-4.369 51.529 5.817 8.506 14.758 13.002 25.855 13.002 16.779 0 35.595-10.508 43.771-24.441z" fill="#ff5671"/><path d="m646.612 822.517c.218.15.477.229.737.229.086 0 .172-.008.257-.025 44.499-8.939 75.097-24.848 93.542-48.635 15.93-20.547 26.406-51.27 13.898-73.6-7.539-13.459-21.533-20.871-39.4-20.871-14 0-29.476 4.691-41.398 12.545-29.783 19.621-49.837 54.475-55.02 95.615-.07.559.223 1.098.729 1.34 4.601 2.219 8.747 4.992 12.32 8.254.242.219.558.342.879.342.097 0 .193-.012.29-.035.416-.094.761-.387.92-.781 16.049-39.689 50.017-70.201 90.866-81.621.342-.094.675-.143.989-.143 1.794 0 2.824 1.551 3.022 2.992.088.652.188 2.834-2.267 3.52-8.75 2.443-17.479 5.988-25.952 10.527-.385.207-.639.59-.684 1.021-3.582 35.576-23.86 64.529-55.639 79.439-.618.291-.908 1.012-.663 1.652.901 2.34 1.583 4.822 2.023 7.379.064.348.259.656.551.856z" fill="#ff5671"/><path d="m692.928 739.425c.084-.514-.142-1.025-.575-1.307-.218-.143-.466-.215-.713-.215-.249 0-.499.072-.715.215-24.196 15.861-42.714 39.164-52.146 65.619-.144.402.164 1.195.413 1.543.262.361.521.725.768 1.098.247.377.663.59 1.09.59.189 0 .381-.043.563-.129 28.114-13.391 46.339-37.332 51.315-67.414z" fill="#ff7cc7"/><path d="m586.49 575.124 1.785-.014c1.055-.014 2.089-.074 3.123-.133l1.441-.079c.36-.019.699-.185.934-.458.233-.277.342-.637.301-.996-1.668-14.372-4.499-28.997-7.238-43.139-2.473-12.769-5.03-25.97-6.779-39.159-4.711-35.535 2.93-83.351 37.873-112.16-2.624 4.314-5.522 8.502-8.341 12.572-4.767 6.885-9.697 14.006-13.395 21.873-5.006 10.635-8.439 21.846-9.933 32.418-2.912 20.613.566 40.641 4.357 57.512.904 4.025 1.826 8.053 2.751 12.08 4.29 18.704 8.725 38.048 11.077 57.067.043.35.228.667.508.881.228.174.504.266.787.266.065 0 .133-.008.198-.016 82.782-12.691 126.735-105.397 119.981-184.013-7.713-89.77-61.023-159.709-146.264-191.885-.15-.057-.306-.086-.461-.086-.354 0-.699.144-.949.411-.361.382-.459.944-.242 1.426 28.603 64.179-14.702 127.271-55.626 175.063-39.711 46.383-53.851 87.574-43.222 125.932 12.368 44.644 55.502 74.637 107.334 74.637z" fill="#ff821d"/><path d="m599.216 645.128c6.198-19.082 8.224-39.82 6.196-63.4-.063-.708.455-1.336 1.16-1.41 8.379-.896 16.49-2.478 24.108-4.703 21.29-6.219 40.062-18.617 55.796-36.85.25-.287.611-.454.989-.454.027 0 .054.002.081.005 28.238 1.765 66.914 4.184 96.754 21.589 5.172 3.016 9.167 7.022 12.576 12.612 3.758 6.162 4.93 12.059 3.479 17.524-2.648 9.979-13.161 16.493-22.806 21.813-9.276 5.121-19.044 8.811-30.854 12.777-39.69 13.326-84.778 20.174-146.194 22.203-.013 0-.029.002-.042.002-.41 0-.797-.193-1.044-.521-.256-.339-.331-.781-.199-1.187zm-5.572-63.977c-.006 0-2.504.023-2.504.023-33.449 0-65.67-11.393-88.404-31.254-.24-.209-.547-.324-.859-.324-.076 0-.154.009-.231.022-33.522 6.064-75.242 13.613-103.76 35.483-8.747 6.708-12.539 13.43-11.272 19.977 2.788 14.422 29.83 23.441 41.328 26.65 38.52 10.75 81.788 15.756 136.165 15.756 6.285 0 12.555-.066 18.79-.188l3.762-.084c.545-.012 1.023-.361 1.203-.875 6.78-19.438 9.031-39.77 7.086-63.984-.058-.679-.624-1.202-1.304-1.202z" fill="#ad8353"/><path d="m860.953 655.159c.152-.566.663-.961 1.25-.967.004-.002.007-.002.012-.002.582 0 1.095.387 1.254.947 9.424 32.932 16.791 67.279 21.891 102.094 9.936 85.316-90.102 114.059-166.212 128.262-.079.014-.159.021-.238.021-.521 0-1.003-.314-1.208-.811-10.251-24.984-26.595-45.225-47.26-58.533-.43-.277-.658-.777-.584-1.285.071-.506.434-.924.924-1.064 38.773-11.311 66.853-30.523 83.457-57.107 7.563-12.109 12.141-27.256 12.563-41.555.016-.555.381-1.037.909-1.205 54.277-17.279 85.65-40.426 93.242-68.795zm-240.537 93.584c-.023 0-.045.002-.068.002-17.024.881-32.848 1.488-48.374 1.859-.463.012-.889.268-1.11.674-.226.406-.216.902.022 1.301 7.035 11.773 11.654 23.07 13.354 32.666.067.373.292.699.616.893.205.123.436.188.67.188.137 0 .274-.023.407-.066 4.16-1.367 8.559-2.063 13.071-2.063 4.118 0 8.3.576 12.433 1.715.115.031.229.047.347.047.252 0 .499-.074.715-.213.313-.205.521-.537.576-.904 1.72-11.793 4.603-23.348 8.567-34.35.147-.41.081-.869-.181-1.221-.245-.333-.634-.528-1.045-.528zm-34.639 148.416h.011c13.564-.164 27.363-.611 41.019-1.332.384-.02.742-.211.973-.521.234-.309.315-.703.228-1.082-1.792-7.631-4.668-15.383-8.547-23.035-.16-.314-.437-.549-.771-.654-.128-.043-.261-.063-.394-.063-.211 0-.423.051-.611.152-9.078 4.824-19.04 7.479-28.05 7.479-.576 0-1.757-.033-1.772-.033-.62 0-1.158.439-1.279 1.053-1.117 5.613-1.826 11.219-2.109 16.662-.018.361.112.713.362.973.245.255.584.401.94.401zm-211.948-26.998c38.864 12.813 82.987 20.725 138.859 24.895.032.002.065.006.097.006.547 0 1.041-.346 1.229-.867 4.708-13.09 11.119-24.953 19.057-35.266.293-.379.354-.893.158-1.33-.198-.439-.619-.734-1.1-.768-37.904-2.711-70.413-20.563-89.193-48.973-12.318-18.639-19.061-42.863-18.032-64.803.029-.648-.419-1.219-1.055-1.342-58.313-11.361-92.349-32.201-101.165-61.943-.166-.555-.677-.934-1.253-.934-.013 0-.028.002-.045.002-.594.02-1.1.438-1.228 1.018-5.59 24.928-9.215 52.426-10.773 81.73-.528 9.967-.877 20.191-1.039 30.412-.023 38.06 21.396 63.628 65.483 78.163z" fill="#ff7cc7"/><path d="m334.234 689.786c-7.901-13.088-9.253-28.643-4.012-46.232 3.145-9.379 6.632-18.422 10.378-26.922 25.514-57.901 74.125-79.309 139.263-93.638.094-.02.188-.031.28-.031.466 0 .906.252 1.141.673 3.715 6.676 8.234 12.912 13.431 18.535.324.35.432.846.281 1.298s-.533.784-1 .872c-37 6.839-78.827 16.227-106.92 41.219-6.429 5.719-9.316 11.853-8.586 18.232.975 8.48 8.629 17.4 20.477 23.854 42.904 23.373 100.821 26.525 151.818 26.525 9.872 0 19.492-.117 28.719-.23l11.494-.176c.621.082 1.006.117 1.391.117.434 0 .854-.045 1.252-.135 56.896-1.18 129.344-6.336 187.33-36.24 14.198-7.324 23.368-18.147 25.161-29.697 1.495-9.637-2.314-19.313-11.012-27.986-23.449-23.379-69.954-25.994-100.727-27.727-.479-.026-.904-.314-1.107-.748-.204-.434-.154-.944.131-1.331 4.846-6.56 9.312-13.674 13.276-21.145.229-.43.675-.695 1.153-.695.045 0 .092.006.137.01 28.239 2.99 60.996 8.008 89.857 22.548 28.641 14.424 39.9 46.855 49.832 75.467l2.379 6.822c.45 1.27.873 2.557 1.298 3.846l.938 2.816c5.517 15.918 4.999 30.641-1.54 43.75-14.281 28.639-53.988 44.227-82.613 53.461-.131.039-.266.063-.4.063-.25 0-.495-.072-.709-.211-.33-.213-.546-.563-.589-.951-1.117-10.09-4.485-18.648-10.011-25.438-9.206-11.309-22.197-17.045-38.609-17.045-16.218 0-31.625 5.561-41.697 10.227-26.809 12.418-42.4 38.195-50.762 57.637-.195.455-.634.762-1.129.789-20.192 1.078-38.608 1.787-56.295 2.158-.357.01-.666.109-1.096.264-.144.051-.292.078-.44.078-.42 0-.827-.205-1.077-.568-20.696-30.176-57.743-62.65-90.176-62.65-17.594 0-31.56 9.488-41.51 28.205-3.908 7.348-6.566 15.607-7.897 24.543-.052.354-.247.668-.54.873-.221.158-.483.24-.751.24-.083 0-.169-.008-.252-.023-47.829-9.443-77.255-24.26-89.96-45.303zm556.167 109.24c-.057-.611-.53-1.1-1.14-1.174-.055-.006-.108-.01-.16-.01-.549 0-1.046.346-1.23.871-20.917 59.305-104.718 81.443-165.934 92.936-.373.072-.694.299-.885.625s-.232.721-.111 1.08c5.316 15.643 8.166 32.018 8.465 48.672.014.803-.225 1.451-.752 2.041-.047.055-.337.414-.375.475-.494.607-1.1.914-1.799.914-.351 0-.733-.076-1.131-.23-12.002-4.596-26.341-6.926-42.621-6.926-15.791 0-32.992 2.32-48.718 6.648-.308.166-.697.248-1.376.248-.016 0-.598.025-.663.031-1.757 0-2.679-1.398-2.96-2.814-.002-.014-.035-.459-.038-.475-.013-.16-.033-.316-.011-.537.009-.162-.002-.313-.034-.406 2.211-13.404 2.476-25.678.81-37.52-.092-.648-.646-1.125-1.293-1.125-.022 0-.047.002-.072.002-13.988.766-28.375 1.238-42.763 1.406-.346.004-.679.148-.922.398-.24.248-.373.584-.366.93.279 15.67 3.125 31.186 6.013 46.059-.002.021-.021.469-.021.492-.011.43-.061.748-.184 1.1-.048.158-.129.301-.421.852-.589.953-1.457 1.459-2.579 1.502-21.559.83-53.064 3.414-77.736 16.213-.191.078-.385.121-.668.184-.314.086-.625.131-.924.131-.625 0-1.208-.188-1.809-.609-.66-.402-1.11-1.018-1.354-1.889-.064-.209-.137-.406-.202-.705-1.25-23.74 1.003-45.709 6.694-65.297.11-.379.045-.785-.18-1.109s-.583-.527-.975-.557c-50.279-3.797-108.106-9.771-158.099-32.768-18.43-8.48-31.989-20.334-40.305-35.234-.236-.422-.677-.67-1.14-.67-.122 0-.243.018-.365.051-.584.172-.973.723-.939 1.328 1.345 23.814 4.169 45.031 8.635 64.865 5.512 24.496 14.228 49.447 40.463 66.023 56.564 35.744 131.126 40.564 196.6 40.564 4.529 0 9.016-.025 13.443-.066 91.368-.848 166.842-11.74 230.738-33.301 21.677-7.313 51.364-17.33 68.577-36.992 28.797-32.887 26.812-93.496 22.817-136.227z" fill="#86e4c7"/><path d="m861.454 914.376c-14.011 15.248-30.399 28.031-48.794 37.576-22.524 11.688-47.415 18.111-72.148 23.186-52.618 10.801-106.361 14.967-160.001 15.906-52.021.912-105.47.502-155.311-16.232-25.327-8.502-49.246-21.193-70.662-37.152-13.126-9.779-27.069-21.391-36.066-35.613 5.562 23.51 14.599 47.105 39.757 63.002 56.564 35.744 131.126 40.564 196.6 40.564 4.529 0 9.016-.025 13.443-.066 91.368-.848 166.842-11.74 230.738-33.301 21.677-7.313 51.364-17.33 68.577-36.992 14.45-16.504 21.145-39.994 23.729-64.701-7.823 15.921-17.861 30.764-29.862 43.823z" fill="#39b78a"/><g fill="#e23f58"><path d="m579.127 876.776c-6.726-1.824-12.273-5.383-16.487-10.582-2.172-2.676-3.969-5.625-5.496-9.018-.211-.471-.679-.771-1.189-.771-.045 0-.092.006-.137.01-3.794.402-7.823.629-12.316.691-.42.004-.812.211-1.053.557-.094.135-.164.271-.199.389-.342.393-.654.805-.99 1.201 1.217 1.973 2.532 3.875 3.979 5.707 3.645 4.627 8.017 8.516 12.847 11.877 4.796 3.338 10.22 5.916 15.808 7.607 1.525.461 3.24.949 5.039 1.346.313-2.498.659-5.002 1.136-7.51.126-.672-.282-1.326-.942-1.504z"/><path d="m658.582 827.069c-.102 0-.202.014-.301.037-3.18.75-6.366 1.428-9.558 2.066-.667 1.348-1.304 2.715-1.88 4.121-.303.746-.658 1.457-.994 2.182-1.158 5.953-3.643 11.84-7.523 17.557-3.02 4.449-7.479 8.854-12.896 12.746-.523.375-.694 1.082-.397 1.656 1.825 3.553 3.37 7.182 4.785 10.846.402-.264.8-.486 1.205-.779 2.847-2.064 5.633-4.238 8.149-6.701 4.654-4.553 8.502-10.061 11.994-15.533 3.247-5.09 5.973-11.52 7.977-17.711.982-3.033 1.247-6.223 1.236-9.395 0-.08-.002-.166-.002-.248-.398-.221-.776-.473-1.179-.688-.191-.101-.402-.156-.616-.156z"/><path d="m659.554 806.304c4.171-2.268 7.944-4.965 11.718-7.855 7.613-5.83 14.677-12.262 21.364-19.137 13.287-13.664 25.284-29.047 33.28-46.484 1.639-3.57 1.322-7.725-1.457-10.402-7.904 2.398-15.774 5.641-23.434 9.744-.385.207-.639.59-.684 1.021-3.285 32.617-20.634 59.631-47.979 75.396.263.018.549.063.778.041 2.366-.199 4.374-1.215 6.414-2.324z"/><path d="m452.703 808.069c18.745 23.721 47.816 38.857 79.336 41.807-4.084-2.982-9.067-5.219-13.025-7.434-6.764-3.787-13.431-7.715-19.864-12.049-13.161-8.863-25.401-19.406-35.481-31.701-9.809-11.965-17.924-26.15-22.226-41.055-2.092-7.246-3.236-14.598-3.767-22.113-.359-5.115.6-11.35-1.055-16.43-.637 1.865-1.226 3.787-1.709 5.822-7.145 30.06-.826 59.591 17.791 83.153z"/><path d="m566.112 786.585c-7.038-7.207-15.003-13.602-23.46-19.068-16.789-10.854-36.606-18.268-56.626-19.592-1.896-.125-3.463.439-4.709 1.393 1.595 4.277 3.45 8.537 5.62 12.73.225.432.672.703 1.16.705 26.136.012 60.12 11.131 77.122 35.943.228.332.596.543.999.564.024.002.051.004.078.004.373 0 .73-.162.979-.441 1.654-1.879 3.406-3.57 5.226-5.09-1.951-2.568-4.23-4.935-6.389-7.148z"/></g><g fill="#895725"><path d="m427.941 631.729c38.52 10.75 81.788 15.756 136.165 15.756 6.285 0 12.555-.066 18.79-.188l3.762-.084c.545-.012 1.023-.361 1.203-.875 6.346-18.195 8.676-37.217 7.357-59.428-42.328 2.428-84.426 8.569-125.666 18.537-4.639 1.123-9.296 2.271-13.948 3.459 21.233-9.752 43.569-17.041 64.522-27.363 1.149-.567.271-2.072-.803-1.908-24.363 3.688-47.947 11.192-70.383 21.336-11.012 4.979-21.733 10.629-31.771 17.373-2.988 2.01-5.902 4.164-8.761 6.387 7.293 3.313 14.754 5.665 19.533 6.998z"/><path d="m777.55 611.854c3.715-2.049 7.549-4.283 11.022-6.814-.056-.037-.109-.08-.166-.115-10.396-6.494-21.392-11.911-32.709-16.59-22.691-9.385-46.379-15.15-71.016-12.663-2.178.221-2.734 3.15-.525 3.886 11.564 3.859 23.285 7.407 34.922 11.188-19.399-2.736-39.07-3.967-58.544-4.648-18.275-.639-36.562-.488-54.815.29 1.385 21.651-.718 40.935-6.502 58.741-.132.406-.058.848.198 1.188.247.328.634.521 1.044.521.014 0 .029-.002.042-.002 61.416-2.029 106.504-8.877 146.194-22.203 11.811-3.968 21.578-7.657 30.855-12.779z"/></g><g fill="#f26200"><path d="m686.873 524.777c-4.666 2.94-9.397 5.777-14.248 8.401-7.396 3.998-15.019 7.572-22.819 10.715-23.101 9.318-45.236-24.042-50.593-64.188-2.146-16.088-.947-32.18 3.282-47.828 2.108-7.808 5.01-15.322 8.511-22.61 3.513-7.315 8.14-14.146 11.526-21.473 1.637-3.54-.982-8.571-4.621-8.778-2.619 4.303-5.512 8.481-8.322 12.543-4.767 6.885-9.697 14.006-13.395 21.873-5.006 10.635-8.439 21.846-9.933 32.418-2.912 20.613.566 40.641 4.357 57.512.904 4.025 1.826 8.053 2.751 12.08 4.29 18.704 8.725 38.048 11.077 57.067.043.35.228.667.508.881.228.174.504.266.787.266.065 0 .133-.008.198-.016 33.666-5.164 60.912-23.56 80.934-48.863z"/><path d="m515.153 552.372c19.244 14.379 44.056 22.752 71.337 22.752l1.785-.014c1.055-.014 2.089-.074 3.123-.133l1.441-.079c.36-.019.699-.185.934-.458.233-.277.342-.637.301-.996-.562-4.838-1.283-9.701-2.062-14.568-5.793.721-11.601 1.299-17.432 1.553-10.357.451-20.996.321-31.245-1.365-5.444-.897-10.87-2.217-16.114-3.938-3.93-1.289-7.958-3.292-12.068-2.754z"/><path d="m589.86 416.676c6.202-14.068 15.283-27.135 28.035-37.66-.996-.053-2.055.184-3.141 1-11.728 8.819-19.542 22.836-24.894 36.66z"/></g><path d="m568.136 758.005c-11.983-23.811-32.912-45.441-57.996-58.479-11.537-5.996-23.284-9.166-33.975-9.166-16.696 0-29.279 7.568-36.505 21.553 5.57-2.689 11.497-4.504 17.659-5.404 15.893-2.326 32.385-.209 47.577 4.74 15.36 5.004 29.892 13.398 41.905 24.203 6.16 5.543 11.852 11.689 17.104 18.092 1.307 1.594 2.776 3.051 4.231 4.461z" fill="#ff9a83"/><path d="m755.799 710.366c1.257.664 2.46 1.402 3.667 2.135-.884-4.184-2.296-8.227-4.419-12.016-7.539-13.459-21.533-20.871-39.4-20.871-14 0-29.476 4.691-41.398 12.545-19.417 12.793-34.66 32.084-44.381 55.342 4.958-5.393 10.33-10.477 15.771-15.334 12.367-11.033 26.732-20.318 42.516-25.617 14.601-4.898 30.854-6.365 46.035-3.504 7.507 1.414 14.842 3.748 21.609 7.32z" fill="#ff9a83"/><path d="m579.087 831.241c.539-1.008 7.316-10.416 8.887-11.828.784-.709 1.609-1.369 2.421-2.043.635-.529-.886.625.205-.145.485-.344.967-.693 1.459-1.025 1.831-1.23 3.758-2.334 5.784-3.205-1.5.646.377-.111.551-.178.953-.359 1.871-.768 2.825-1.137-.943.363-.256.074.311-.082 11.266-3.076 10.442-6.969 9.586-8.055-.706-.896-5.595-7.953-18.202-3.799-21.521 7.092-26.559 28.758-26.653 31.912-.36 12.167 8.403 7.849 12.826-.415z" fill="#ff9a83"/><path d="m535.616 882.431c-2.847 3.35-5.57 6.609-7.592 10.877-2.028 4.275-3.356 9.188-4.351 13.975-.977 4.701-1.279 9.564-1.289 14.414-.004 2.51.067 5.045.364 7.531.279 2.34.448 5.018 1.124 7.227.143.457.731.566.835 0 .409-2.264.437-4.701.708-7 .279-2.365.585-4.736.951-7.086.699-4.469 1.727-8.846 2.674-13.238.951-4.414 2.211-8.695 3.369-13.023 1.202-4.492 1.982-9.172 3.327-13.588.028-.089-.07-.146-.12-.089z" fill="#ff9a83"/><path d="m641.663 884.208c-.427 1.039-.787 1.258-.808 2.4-.014.846.039 1.807.228 2.633.349 1.521 1.07 3.018 1.585 4.494 1.172 3.354 2.004 6.773 2.888 10.209 1.788 6.959 2.408 14.092 1.239 21.205-.055.322.363.436.485.133 2.896-7.096 4.549-14.787 4.142-22.473-.199-3.793-1.188-7.598-2.57-11.131-.694-1.779-1.459-3.914-2.768-5.35-.596-.65-1.421-1.332-2.182-1.768-.789-.451-1.344-.283-2.205-.381-.015.002-.029.015-.034.029z" fill="#ff9a83"/><g fill="#39b78a"><path d="m578.197 724.997c-8.676.557-17.545 1.061-26.523 1.457 5.053 5.736 9.658 11.633 13.645 17.445.25.363.657.568 1.077.568.148 0 .297-.027.44-.078.43-.154.738-.254 1.096-.264 17.688-.371 36.103-1.08 56.295-2.158.495-.027.934-.334 1.129-.789 2.967-6.896 6.863-14.59 11.828-22.201-20.09 2.854-39.974 4.795-58.987 6.02z"/><path d="m851.349 616.87c-.425-1.289-.848-2.576-1.298-3.846l-2.379-6.822c-.922-2.652-1.861-5.344-2.817-8.043-.4 35.02-27.373 57.08-55.526 73.418-10.933 6.346-22.522 11.965-34.549 16.98.545.604 1.123 1.162 1.645 1.803 5.525 6.789 8.894 15.348 10.011 25.438.043.389.259.738.589.951.214.139.459.211.709.211.135 0 .27-.023.4-.063 28.625-9.234 68.332-24.822 82.613-53.461 6.539-13.109 7.057-27.832 1.54-43.75z"/><path d="m424.444 735.11c.268 0 .53-.082.751-.24.293-.205.488-.52.54-.873.839-5.623 2.26-10.939 4.131-15.969-16.508-4.043-32.444-9.66-47.366-17.396-26.23-13.598-43.783-38.049-49.432-64.984-.956 2.629-1.943 5.217-2.846 7.906-5.241 17.59-3.89 33.145 4.012 46.232 12.705 21.043 42.131 35.859 89.958 45.301.083.016.169.023.252.023z"/></g><g fill="#b7f2da"><path d="m380.44 610.198c-1.774 7.135.326 15.461 8.655 25.105 25.758 29.826 86.059 29.982 121.763 32.557 88.267 6.361 173.525 7.377 254.664-31.934 13.822-6.699 33.658-20.084 35.947-36.181-4.344 6.874-11.36 13.046-20.499 17.761-57.985 29.904-130.434 35.061-187.33 36.24-.398.09-.818.135-1.252.135-.385 0-.77-.035-1.391-.117l-11.494.176c-9.227.113-18.847.23-28.719.23-50.997 0-108.914-3.152-151.818-26.525-8.882-4.837-15.405-11.062-18.526-17.447z"/><path d="m629.738 903.476c-.092-.648-.646-1.125-1.293-1.125-.022 0-.047.002-.072.002-13.988.766-28.375 1.238-42.763 1.406-.346.004-.679.148-.922.398-.24.248-.373.584-.366.93.117 6.594.753 13.146 1.592 19.648 14.943-.16 29.887-.795 44.793-1.744.217-6.693-.076-13.178-.969-19.515z"/><path d="m507.093 920.72c1.068-6.051 2.393-11.936 4.039-17.602.11-.379.045-.785-.18-1.109s-.583-.527-.975-.557c-50.279-3.797-108.106-9.771-158.099-32.768-2.06-.947-4.036-1.953-5.975-2.984 20.967 16.07 47.489 25.721 71.686 34.393 28.993 10.39 59.004 16.904 89.504 20.627z"/><path d="m881.44 812.591c-28.162 48.977-103.324 68.512-159.503 79.059-.373.072-.694.299-.885.625s-.232.721-.111 1.08c2.213 6.51 3.893 13.17 5.244 19.902 48.569-7.023 97.705-21.061 133.083-56.613 13.27-13.334 21.295-29.329 22.172-44.053z"/></g><g fill="#fdce1a"><path d="m560.904 348.278c19.217-26.132 31.623-53.026 31.657-85.753.007-8.003-1.851-19.314-5.806-29.669 4.793 52.331-30.582 102.231-64.378 141.7-39.711 46.383-53.851 87.574-43.222 125.932 1.168 4.214 2.692 8.248 4.39 12.188-1.673-23.645 1.282-47.427 10.801-69.857 15.075-35.532 43.966-63.827 66.558-94.541z"/><path d="m639.448 260.492c5.421 14.448 13.845 27.844 20.737 41.648 8.511 17.042 13.636 35.922 18.36 54.291 4.767 18.535 5.985 37.639 5.633 56.695-.362 19.537 1.558 39.643.337 59.017-.157 2.493 3.378 3.254 4.559 1.234 10.521-18.001 18.065-32.446 20.492-53.54 2.406-20.922-.877-43.119-4.918-63.631-7.007-35.588-28.916-81.662-64.314-96.6-.492-.206-1.065.408-.886.886z"/><path d="m682.976 502.023c2.557-4.189 3.627-10.442.618-14.68-1.664-2.342-4.421-2.702-6.625-.854-3.02 2.529-5.178 6.619-6.346 10.326-.888 2.819.533 6.217 3.105 7.631.514.281 1.066.484 1.615.682 2.861 1.033 6.146-.665 7.633-3.105z"/></g><g fill="#f85094"><path d="m585.242 887.353c-.364 2.838-.625 5.658-.77 8.432-.018.361.112.713.362.973.247.256.587.402.942.402h.011c13.564-.164 27.363-.611 41.019-1.332.384-.02.742-.211.973-.521.234-.309.315-.703.228-1.082-.834-3.555-1.929-7.139-3.227-10.723-1.759.217-3.52.48-5.278.684-11.193 1.29-22.655 2.35-34.26 3.167z"/><path d="m373.829 870.161c38.864 12.813 82.987 20.725 138.859 24.895.032.002.065.006.097.006.547 0 1.041-.346 1.229-.867.717-1.996 1.551-3.908 2.348-5.846-50.002-2.373-99.67-12.328-142.146-35.918-31.73-17.621-50.269-46.549-59.135-81.314-2.544-9.975-3.611-20.299-4.174-30.719-.628 6.949-1.14 14.012-1.522 21.189-.528 9.967-.877 20.191-1.039 30.412-.023 38.059 21.396 63.627 65.483 78.162z"/><path d="m709.477 867.962c3.051 5.309 5.821 10.881 8.225 16.742.205.496.687.811 1.208.811.079 0 .159-.008.238-.021 76.11-14.203 176.147-42.945 166.212-128.262-.533-3.637-1.191-7.238-1.773-10.863-5.431 22.148-14.93 43.268-32.375 62.824-24.715 27.711-60.727 38.039-95.199 47.158-15.357 4.06-30.898 7.978-46.536 11.611z"/></g></g><g fill="#68182b"><path d="m860.712 620.169c-.283-.906-.521-1.795-.843-2.715-.025-.074-.079-.109-.108-.182-.686-2.088-1.362-4.191-2.058-6.264-9.807-29.281-20.854-62.777-46.697-81.58-27.423-19.955-65.571-25.146-98.795-28.7 18.627-39.904 24.741-87.642 20.028-126.301-11.274-92.479-75.193-159.693-161.068-188.08-.002 0-.002 0-.002 0-.162-.036-.319-.041-.481-.057-2.163-.485-3.762.59-4.556 2.209-.853 1.264-1.143 2.891-.16 4.613 60.438 106.09-82.895 173.27-96.551 267.96-2.966 20.569-.266 38.882 6.523 54.69-51.575 11.376-99.313 26.655-129.574 73.128-24.477 37.584-35.059 85.385-40.724 129.205-2.981 23.07-4.654 46.285-5.05 69.518-.045.238-.158.426-.167.689-.117 3.129-.056 6.158.083 9.143-.02 23.074 1.226 46.146 3.924 69.098 3.225 27.408 7.223 61.271 25.23 83.572 36.621 45.361 108.102 54.738 162.076 60.125 78.404 7.824 158.977 2.395 236.32-11.973 41.829-7.775 85.525-18.432 122.651-39.965 41.199-23.895 47.134-72.668 48.677-116.838 2.576-73.67-15.829-151.311-38.678-221.295zm1.503 35.328c9.541 33.336 16.844 67.732 21.854 101.924 10.188 87.492-97.371 114.139-165.159 126.787-9.812-23.906-25.72-44.939-47.762-59.135 33.634-9.811 65.104-27.098 84.196-57.666 7.272-11.645 12.316-27.09 12.762-42.211 37.071-11.8 84.169-32.564 94.109-69.699zm-236.023 211.34c5.365-3.854 9.978-8.307 13.213-13.07 5.323-7.84 7.936-15.648 8.435-23.066 3.585-.703 7.167-1.479 10.742-2.324 39.232 21.051 60.02 63.676 62.619 107.104-25.738-7.844-57.523-5.971-83.646.348 2.879-24.178-.075-47.029-11.363-68.992zm-49.309-77.861c-3.763 2.279-7.317 5.275-10.587 8.982-16.498-24.076-50.004-36.498-78.199-36.51-7.188-13.889-11.536-28.938-11.826-43.76-.117-5.932-9.327-5.943-9.211 0 .934 47.783 39.339 97.684 85.891 109.705-1.311 7.141-1.4 14.412.072 21.352-69.68 5.652-134.188-50.553-116.841-123.525 8.94-37.609 43.318-40.146 73.355-24.535 32.757 17.023 61.99 51.23 67.346 88.291zm-4.878-37.067c16.146-.385 32.283-1.025 48.411-1.859-4.16 11.539-6.989 23.34-8.631 34.602-8.538-2.348-17.651-2.463-26.258.367-1.778-10.036-6.588-21.51-13.522-33.11zm-11.395 54.125c-2.146 3.93-3.979 8.105-5.393 12.426-24.747-6.52-47.125-24.803-61.696-47.627 25.129 1.514 54.098 13.27 67.041 35.146.014.024.034.032.048.055zm-17.09 52.375c4.159-.057 8.313-.258 12.435-.697 1.464 3.254 3.304 6.387 5.672 9.307 4.684 5.775 10.638 9.25 17.159 11.018-4.468 23.48-1.554 46.219 2.888 69.43-23.225 1.195-48.205 4.586-69.597 13.967-.875-36.537 6.562-74.33 31.155-102.521.14-.162.173-.34.288-.504zm22.473-.818c-10.009-14.637-4.014-36.363 4.405-50.109 25.855-37.271 86.617-1.473 63.017 38.748-12.239 20.857-51.042 35.314-67.422 11.361zm135.649-124.27c8.156-4.371 16.751-7.924 25.687-10.422 5.714-1.598 3.283-10.484-2.446-8.883-41.228 11.523-75.729 42.826-91.726 82.387-3.739-3.412-8.034-6.25-12.633-8.465 4.67-37.07 22.678-73.76 54.442-94.689 23.427-15.434 63.322-20.008 78.944 7.875 12.752 22.768.67 53.508-13.794 72.16-22.017 28.395-58.647 41.301-92.767 48.154-.451-2.623-1.146-5.176-2.091-7.627 32.599-15.294 52.786-44.759 56.384-80.49zm-60.593 72.34c-.33-.504-.689-.992-1.041-1.484 9.485-26.602 28.098-49.539 51.632-64.967-4.918 29.728-23.074 53.346-50.591 66.451zm-53.188 73.715c10.178.383 20.988-2.578 30.434-7.598 3.78 7.457 6.629 15.025 8.441 22.744-13.645.721-27.297 1.166-40.959 1.33.283-5.455.984-10.945 2.084-16.476zm-64.491-503.97c41.606-48.594 84.5-112.105 55.825-176.443 82.902 31.295 137.608 99.786 145.426 190.775 6.781 78.961-37.157 170.081-118.881 182.61-2.857-23.121-8.67-46.215-13.85-69.272-4.218-18.783-7.054-37.824-4.337-57.044 1.558-11.034 5.091-21.994 9.819-32.046 6.232-13.246 15.845-24.137 23.081-36.703.459-.798-.543-1.416-1.187-.917-34.261 26.731-45.961 73.802-40.503 114.952 3.703 27.939 10.858 55.078 14.014 82.276-1.507.071-2.993.188-4.522.211-48.052.677-94.723-26.318-107.841-73.667-12.921-46.631 13.955-90.861 42.956-124.732zm83.342 206.209c8.224-.88 16.384-2.427 24.335-4.749 22.781-6.654 41.492-19.953 56.419-37.25 32.277 2.02 67.772 4.849 96.178 21.414 5.253 3.065 8.995 7.046 12.118 12.166 12.051 19.752-6.596 30.76-18.842 37.516-9.693 5.35-20.175 9.168-30.641 12.684-46.443 15.592-96.781 20.514-145.821 22.135 6.927-21.321 8.087-42.63 6.254-63.916zm-20.084 64.294c-1.252.027-2.509.061-3.76.086-51.415.986-104.821-1.639-154.577-15.523-21.36-5.961-59.479-21.43-29.612-44.332 28.086-21.54 69.059-29.06 103.197-35.236 23.953 20.928 57.771 32.133 91.768 31.555 1.683 20.933.482 41.952-7.016 63.45zm-255.155-1.982c3.044-9.076 6.465-18.018 10.321-26.77 26.444-60.012 78.373-79.694 138.349-92.888 3.789 6.81 8.352 13.095 13.614 18.788-36.938 6.826-79.124 16.24-107.55 41.525-18.78 16.707-5.522 34.592 12.134 44.209 52.473 28.586 126.827 27.105 184.527 26.412 2.699-.031 5.429-.084 8.154-.135.953.162 1.942.166 2.9-.047 62.628-1.273 131.741-7.525 187.645-36.355 24.852-12.818 36.631-37.677 14.473-59.768-23.451-23.382-68.285-26.232-101.574-28.105 4.938-6.687 9.403-13.816 13.379-21.31 30.641 3.245 61.643 8.428 89.407 22.415 30.448 15.336 40.999 51.589 51.568 81.559.773 2.195 1.476 4.441 2.23 6.652 19.271 55.613-40.325 81.676-83.319 95.543-1.062-9.582-4.236-18.67-10.297-26.115-20.4-25.064-55.77-19.27-81.867-7.182-23.779 11.016-40.715 33.432-51.411 58.307-18.74 1.002-37.488 1.764-56.253 2.158-.575.012-1.045.174-1.509.34-33.788-49.262-101.814-94.697-133.917-34.32-4.131 7.768-6.732 16.223-8.034 24.963-46.34-9.144-110.98-29.429-92.97-89.876zm-20.784 117.73c1.445-27.189 4.729-54.697 10.741-81.516 11.324 38.199 61.827 54.994 102.168 62.854-1.083 23.15 6.178 47.32 18.248 65.582 20.198 30.557 54.773 47.021 90.189 49.557-8.396 10.908-14.688 22.936-19.251 35.621-46.93-3.504-93.729-10.057-138.547-24.832-38.083-12.557-64.613-34.873-64.586-76.924.161-10.162.505-20.297 1.038-30.342zm555.915 172.737c-16.707 19.086-44.787 28.779-68.013 36.615-73.291 24.73-153.384 32.518-230.332 33.23-68.332.635-149.742-2.639-209.334-40.295-24.445-15.447-33.742-37.895-39.888-65.205-4.756-21.131-7.371-42.834-8.603-64.654 8.492 15.223 22.226 27.193 40.898 35.783 48.699 22.404 105.489 28.881 158.546 32.885-6.13 21.094-7.908 43.645-6.745 65.73.004.07.04.115.047.184.038.293.126.568.218.854.326 1.178 1.003 2.049 1.918 2.604 1.039.738 2.341 1.016 3.758.621.286-.061.556-.125.821-.236.058-.029.109-.02.168-.049 22.852-11.885 51.727-15.086 77.115-16.064 1.752-.068 2.924-.959 3.641-2.121.077-.104.119-.229.189-.34.14-.277.29-.541.375-.842.16-.438.221-.912.234-1.422 0-.035.002-.068 0-.104.002-.336.074-.639.002-1-3.045-15.313-5.725-30.338-5.994-45.502 14.281-.17 28.553-.631 42.819-1.408 1.693 12.031 1.295 24.395-.805 37.123-.031.195.029.355.018.545-.031.299.007.594.029.895.029.229.014.473.072.686.456 2.135 2.219 3.896 4.775 3.596.745.029 1.469-.064 2.099-.406 27.397-7.475 63.516-9.885 90.248.35 1.934.74 3.444.104 4.409-1.076.029-.025.052-.051.079-.074.09-.119.18-.23.261-.357.646-.727 1.102-1.664 1.079-2.934-.299-16.65-3.187-33.34-8.531-49.07 59.929-11.252 145.716-33.652 166.923-93.783 4.033 43.108 5.841 102.873-22.496 135.241z"/><path d="m516.037 530.61c-8.379-13.97-14.614-29.685-17.497-45.715-3.116-17.337.851-33.305 5.681-49.796.078-.268-.288-.502-.481-.279-23.438 26.775-11.938 73.947 11.309 96.554.509.494 1.361-.143.988-.764z"/><path d="m700.067 462.409c9.746-31.558 15.374-74.714.524-105.499-.164-.339-.68-.096-.592.25 8.862 34.445-.038 70.289-1.275 105.066-.029.793 1.121.903 1.343.183z"/></g></g></g></svg>