<svg id="Cinema" height="512" viewBox="-70.866 -70.866 850.394 850.394" width="512" xmlns="http://www.w3.org/2000/svg"><g><path d="m624.129 369.677c-8.773-11.246-25.121-24.461-54.164-26.684 1.688-27.441 1.477-53.711-.633-79.285 42.367-66.762 19.973-149.738 10.793-215.316-21.492-81.59-89.016-58.969-133.078-54.5-83.57 7.82-170.844 3.863-255.532-7.336-41.449 0-69.219 22.848-78.191 64.316-2.305 17.211-26.281 180.746 18.188 222.078-1.516 23.531-1.457 47.645.191 72.719-46.953 9.645-60.25 47.375-63.922 64.922-10.297 64.574 29.551 93.109 87.633 103.566 20.125 19.707 41.93 37.426 63.59 53.395-31.039 21.211-69.129 22-84.105 66.188-12.734 44.785 28.629 90.426 75.703 88.297 53.293-3.27 103.344-39.992 146.739-63.594 58.891 32.426 152.309 102.684 210.41 34.656 12.605-16.176 17.727-36.281 14.055-55.121-11.152-47.16-55.852-50.156-85.707-70.434 22.867-16.719 45.254-34.738 65.707-54.852 10.031-2.18 19.102-4.766 27.449-7.805 52.905-18.863 69.944-92.667 34.874-135.21zm-204.391-15.087c-23.777 1.047-47.594 1.579-71.008 1.579-22.387 0-44.816-.484-66.984-1.442-1.152-13.598-1.801-26.762-1.926-39.605 24.441 1.926 49.57 2.902 74.813 2.902 21.996 0 44.5-.738 67.023-2.207-.145 12.543-.785 25.422-1.918 38.773z" fill="#fff"/><g><path d="m593.961 393.216c-10.188-13.051-31.035-13.406-45.578-11.336-6.953.988-13.922 1.824-20.891 2.656 0-.035.016-.059.023-.094 5.82-44.454 7.328-88.329 2.16-132.918 38.219-36.895 25.023-117.582 17.844-164.59-1.527-10.031-2.359-20.25-4.605-29.617-5.406-22.543-17.555-35.82-50.23-30.906-14.344 2.152-32.398 4.746-42.328 5.609-68.719 5.965-138.406 5.102-207.122-.375-11.238-.898-23.773-3.949-36.195-5.645-34.426-4.707-50.137 4.418-56.313 32.965-3.203 14.805-10.797 87.703-4.48 152.766 1.961 20.27 6.559 33.484 25.16 43.738 0 0 .004 0 .004.004-4.574 42.688-3.117 84.766 2.367 127.356-30.824-3.516-60.859-1.109-68.535 35.59-7.5 35.898 19.891 50.867 49.559 56.695 6.336 1.246 12.707 2.324 19.109 3.301.074.086.125.18.203.266 34.02 35.277 74.988 64.559 116.379 91.758-32.68 19.715-65.989 38.336-100.168 55.352-8.773 4.328-15.781 8.422-18.609 18.391-2.367 8.344.855 18.055 5.945 24.691 13.199 17.199 36.656 17.594 55.344 10.777 43.731-17.051 84.602-41.746 124.586-66.129 40.758 25.723 83.27 50.797 128.066 67.18 17.328 5.891 39.781 4.414 51.91-11.121 5.324-6.836 8.363-15.625 6.672-24.316-2.039-10.508-9.789-15.043-18.688-19.414-33.996-16.953-68.133-35.176-101.352-55.035 41.227-27.563 82.984-56.52 117.453-92.133.391-.402.672-.824.984-1.242 11.602-1.996 22.953-4.66 33.648-8.555.332-.117.594-.289.898-.43.539-.184 1.082-.355 1.629-.633 27.561-13.934 33.416-51.196 15.151-74.606zm-236.543 133.828c-17.512-12.609-34.414-25.906-50.578-39.953 34.383.758 68.801.547 103.184-.52-16.708 14.5-34.477 27.703-52.606 40.473zm97.453-141.184c-.48 3.941-.855 5.176-5.266 5.453-4.039.254-8.082.504-12.129.723-61.594 3.309-123.555 3.258-185.165-.531-5.906-.363-5.234-1.879-5.781-6.238-4.746-37.29-6.461-74.29-3.617-111.719 11.266 1.117 22.379 1.926 32.747 2.828 50.387 4.406 101.391 4.379 151.809.68 9.574-.703 20.25-1.305 31.199-2.387 2.738 37.257.957 74.085-3.797 111.191z" fill="#68182b"/><path d="m164.042 178.833c-1.832-25.828 3.961-98.758 7.051-111.145 5.566-22.289 19.25-20.73 39.453-18.32 4.324.516 8.648 1.004 12.965 1.492 51.997 5.832 104.614 6.715 156.879 5.758 23.355-.426 46.684-1.711 69.965-3.504 7.379-.566 28.895-5.438 46.355-5.703 23.809-.344 23.336 4.047 26.902 16.992 7.043 25.609 7.527 64.105 8.574 89.945.77 18.961 2.156 40.441-3.527 58.746-6.48 20.891-14.898 27.133-34.219 33.105-15.172 4.688-32.199 6.145-46.492 7.832-36.918 4.355-74.348 4.875-111.48 4.285-37.148-.594-74.532-3.059-111.204-9.203-11.898-1.992-23.648-4.754-35.113-8.512-27.105-8.878-24.394-37.683-26.109-61.768z" fill="#00ebed"/><path d="m479.551 271.907c10.566-1.84 20.879-4.469 30.223-8.383 3.535 39.398 2.031 78.316-2.938 117.668-.594 4.629-1.008 5.695-4.535 6.039-7.516.727-15.031 1.383-22.539 1.984-3.367.27-4.105-.898-3.664-4.379 4.773-37.671 6.46-75.074 3.453-112.929z" fill="#ffc522"/><path d="m225.175 383.126c.645 5.254-.633 6.434-6.43 5.949-5.629-.473-11.75-1.344-18.133-2.332-5.438-.852-5.504-1.785-6.203-7.5-4.766-38.555-6.168-76.711-2.742-115.313 9.711 3.145 19.926 5.445 30.348 7.063-3.063 37.586-1.488 74.715 3.16 112.133z" fill="#ffc522"/><path d="m155.605 453.829c-13.613-2.672-25.242-4.563-29.504-19.672-10.207-36.137 32.316-31.117 53.477-28.266 50.18 6.77 100.961 8.762 151.54 9.395 55.512.691 111.094-1.496 166.379-6.383 22.59-1.988 50.059-10.148 72.48-6.008 23.797 4.395 13.508 37.902-1.059 46.234-57.133 20.216-128.469 16.036-187.918 17.067-74.399 1.285-152.083 2.028-225.395-12.367z" fill="#00ebed"/><path d="m227.402 659.31c-9.836 3.586-19.031 5.563-28.785.445-8.367-4.375-7.293-11 2.359-15.746 37.316-18.582 73.645-39.012 109.208-60.762 6.254 4.027 12.504 8.035 18.715 12.008 2.93 1.879 5.906 3.777 8.852 5.664-35.419 21.613-71.779 43.348-110.349 58.391z" fill="#ffc522"/><path d="m514.898 644.067c9.641 4.727 11.199 9.203 4.348 14.371-8.375 6.32-18.754 5.063-27.988 1.918-53.625-19.609-103.766-52.918-151.715-83.313-41.402-26.25-84.258-53.746-121.805-86.262-8.602-7.457-6.906-7.879 5.16-7 17.188 1.246 34.426 1.949 51.579 2.484.406.547.855 1.086 1.41 1.602 69.332 64.681 154.554 114.071 239.011 156.2z" fill="#ffc522"/><path d="m500.844 488.091c-30.051 26.137-63.539 48.703-96.504 70.645-9.715-6.102-19.313-12.383-28.785-18.832 23.465-16.762 46.352-34.363 66.945-54.613 7.766-.367 15.531-.68 23.281-1.133 9.816-.582 19.98-1.063 30.262-1.695 7.82-.489 11.801-.466 4.801 5.628z" fill="#ffc522"/><g fill="#ffa222"><path d="m227.402 659.31c38.571-15.043 74.93-36.777 110.348-58.391-2.867-1.84-5.762-3.688-8.621-5.52-21.973 14.484-44.199 27.555-67.614 39.789-14.285 7.469-29.137 13.711-44.402 18.852-5.984 2.012-12.223 4.504-18.551 5.684.02.012.035.02.055.031 9.753 5.117 18.949 3.141 28.785-.445z"/><path d="m217.738 490.782c37.547 32.516 80.403 60.012 121.805 86.262 47.949 30.395 98.09 63.703 151.715 83.313 9.234 3.145 19.613 4.402 27.988-1.918.891-.668 1.625-1.324 2.23-1.973-13.824 3.184-27.16-.512-42.457-7.492-16.348-7.457-32.32-15.715-48.113-24.281-32.25-17.484-63.52-36.781-94.285-56.754-24.434-15.867-48.469-32.352-72.133-49.348-11.465-8.238-31.719-20.109-39.946-34.711-.547-.039-1.094-.059-1.645-.098-12.066-.879-13.761-.457-5.159 7z"/><path d="m190.945 273.793c13.137-2.336 23.141 7.449 29.84 19.348.258-7.371.625-14.746 1.23-22.148-10.422-1.617-20.637-3.918-30.348-7.063-.289 3.289-.5 6.574-.722 9.863z"/><path d="m447.945 518.403c-17.246 12.188-34.844 23.793-53.316 33.98 3.25 2.102 6.434 4.297 9.711 6.352 32.965-21.941 66.453-44.508 96.504-70.645 7-6.094 3.02-6.117-4.801-5.629-.473.027-.941.055-1.414.082-13.606 13.954-31.438 25.079-46.684 35.86z"/><path d="m479.551 271.907c.652 8.195 1.043 16.355 1.266 24.516 5.789-12.379 18.035-16.824 30.125-16.465-.301-5.473-.672-10.949-1.168-16.434-9.345 3.914-19.657 6.543-30.223 8.383z"/></g><path d="m201.343 643.825c19.172-5.102 38.129-14.84 55.504-22.336 21.133-9.121 42.309-19.266 60.192-33.84-2.289-1.473-4.563-2.926-6.855-4.402-35.446 21.68-71.653 42.039-108.841 60.578z" fill="#fbe134"/><path d="m200.613 386.743c6.383.988 12.504 1.859 18.133 2.332 5.797.484 7.074-.695 6.43-5.949-.047-.379-.086-.754-.133-1.137-12.129-.281-22.512-9.34-28.313-19.695-2.621-4.691-4.27-9.696-5.43-14.852.77 10.586 1.797 21.172 3.109 31.801.7 5.715.766 6.649 6.204 7.5z" fill="#fbe134"/><path d="m375.554 539.903c2.141 1.457 4.355 2.82 6.52 4.266 18.066-11.254 56.734-38.211 78.086-59.734-5.887.297-11.773.578-17.66.855-20.594 20.25-43.481 37.852-66.946 54.613z" fill="#fbe134"/><path d="m274.476 486.267c-2.031-.066-4.074-.164-6.105-.23 12.348 15.352 25.715 29.156 42.082 41.246 24.621 18.18 50.281 35.332 75.863 52.113 36.672 24.055 79.941 52.992 124.777 62.734-83.207-41.715-166.918-90.551-235.207-154.262-.554-.515-1.003-1.055-1.41-1.601z" fill="#fbe134"/><path d="m479.761 389.216c7.508-.602 15.023-1.258 22.539-1.984 3.527-.344 3.941-1.41 4.535-6.039 2.094-16.625 3.531-33.168 4.277-49.708-.91 4.73-1.852 9.465-2.82 14.191-1.516 7.422-3.836 14.536-7.516 21.18-4.832 8.719-14.371 11.781-24.035 12.426-.215 1.852-.406 3.703-.645 5.555-.44 3.48.298 4.648 3.665 4.379z" fill="#fbe134"/><path d="m382.941 247.243c-31.813 1.199-63.684 1.078-95.488-.227-31.727-1.297-70.907-1.305-96.918-22.109-22.098-17.672-18.895-52.652-18.668-78.098.277-30.547 2.188-61.113 4.785-91.563-2.328 2.941-4.191 6.961-5.559 12.441-3.09 12.387-8.883 85.316-7.051 111.145 1.715 24.086-.996 52.891 26.109 61.77 11.465 3.758 23.215 6.52 35.113 8.512 36.672 6.145 74.055 8.609 111.204 9.203 37.133.59 74.563.07 111.48-4.285 14.293-1.688 31.32-3.145 46.492-7.832 19.32-5.973 27.738-12.215 34.219-33.105 5.684-18.305 4.297-39.785 3.527-58.746-.813-20.039-1.324-47.625-4.777-70.973.992 14.824 1.316 29.648 1.586 43.664.477 24.563-1.133 49.492-7.777 73.227-6.934 24.766-23.492 34.992-47.555 39.086-29.913 5.085-60.444 6.749-90.722 7.89z" fill="#19bfbb"/><path d="m583.664 415.974c-5.988 13.941-16.387 23.266-34.488 29.379-22.926 7.738-48.176 9.012-72.035 11.938-45.75 5.629-92.82 3.949-138.785 2.734-43.367-1.141-86.516-4.422-129.793-7.133-24.289-1.523-70.328-2.598-83.809-25.957.211 2.219.602 4.582 1.348 7.223 4.262 15.109 15.891 17 29.504 19.672 73.313 14.395 150.997 13.652 225.395 12.367 59.449-1.031 130.785 3.148 187.918-17.066 9.452-5.407 17.038-21.388 14.745-33.157z" fill="#19bfbb"/><path d="m446.957 81.782c-32.512 4.535-65.137 6.496-98.207 6.664-21.27.105-42.551-.535-63.809-1.207-18.547-.594-44.184-4.469-62.458-.633-22.848 4.793-23.051 35.168-24.738 54.289-2.578 29.27 11.93 48.891 38.609 53.336 64.118 10.676 159.825 7.617 235.016-3.488 24.719-3.645 30.488-29.504 24.918-69.617-2.628-18.926-4.562-45.606-49.331-39.344z" fill="#6cfffb"/><path d="m497.496 408.903c-55.285 4.887-110.867 7.074-166.379 6.383-50.578-.633-101.36-2.625-151.54-9.395-13.637-1.84-36.082-4.508-47.633 3.449 12.098-2.512 25.395-.805 37.613.578 20.691 2.336 41.324 5.043 62.07 6.902 40.875 3.672 82.297 4.516 123.325 4.766 39.504.238 78.992-1.508 118.402-4.035 34.797-2.219 69.723-11.961 104.52-11.305-2.055-1.563-4.629-2.746-7.898-3.352-22.422-4.139-49.89 4.021-72.48 6.009z" fill="#6cfffb"/></g></g></svg>