<svg id="Layer_1" height="512" viewBox="0 0 1000 1000" width="512" xmlns="http://www.w3.org/2000/svg"><g><path d="m260.321 256.715c-3.904 145.246-6.556 292.932-9.119 435.753l-.295 16.463c-13.438 9.674-23.406 25.297-25.299 41.024-2.014 16.726 4.922 31.906 19.023 41.649 16.523 11.416 34.252 21.086 51.397 30.438 7.304 3.982 14.585 7.954 21.72 12.033l30.494 17.475c47.848 27.438 97.324 55.812 146.793 82.472 16.667 8.981 34.766 17.294 54.181 17.294h.002c15.631 0 30.615-5.439 44.539-16.168 17.605-13.565 35.742-27.161 53.287-40.309 8.97-6.724 17.939-13.449 26.887-20.202l9.377-7.07c23.17-17.465 47.13-35.526 70.152-54.244 21.273-17.299 22.212-36.113 20.879-45.79-2.17-15.731-12.611-29.738-29.125-39.531-4.713-69.654-12.158-139.928-19.37-208.004-1.954-18.449-3.908-36.896-5.811-55.332-2.151-20.868-4.108-41.813-6.067-62.776-4.309-46.113-8.763-93.796-15.367-140.485-3.801-26.849-22.331-28.936-27.922-28.936-.758 0-1.516.029-2.275.09-2.814-3.009-6.016-5.426-9.404-7.475.068-6.063.821-14.661 1.125-18.124.319-3.634.531-6.47.547-7.854.156-14.471-3.036-28.502-8.99-39.51-1.066-1.972-2.128-3.85-3.191-5.648 3.496-10.993 1.898-20.37-.535-26.952-10.549-28.536-50.127-42.799-86.396-53.927-2.257-.693-4.318-1.325-6.127-1.898l-3.756-1.194c-28.504-9.073-57.981-18.455-90.361-20.836-4.111-.302-8.312-.454-12.49-.454-37.857 0-72.254 12.435-97.989 23.27-6.835 2.872-12.733 6.54-17.618 10.943-34.56 9.819-37.891 41.442-40.132 62.726-.221 2.109-.445 4.237-.694 6.371-.428 3.674-1.217 8.383-2.056 13.368-2.78 16.568-6.155 36.674-2.558 53.215-.779.347-1.558.694-2.338 1.043-14.658 6.58-24.541 15.408-25.118 37.092z" fill="#fff"/><g><path d="m727.396 740.87c-.331-.144-.656-.231-.982-.314-5.795-91.458-16.456-182.76-25.857-273.881-6.947-67.336-11.855-135.445-21.345-202.525-1.269-8.959-4.671-15.617-15.291-10.078-1.61.84-3.222 1.682-4.835 2.52-1.889-9.64-6.73-13.631-16.817-18.099-5.563-2.465-1.239-34.259-1.181-39.604.11-10.029-1.842-21.122-6.633-29.979-1.939-3.584-4.774-8.527-8.248-13.33 24.137-38.084-50.986-57.58-76.707-65.749-29.785-9.465-58.22-18.854-89.623-21.163-35.43-2.604-69.205 7.761-101.448 21.333-6.674 2.809-11.661 6.389-15.239 10.706-.173.021-.338.014-.515.05-28.264 5.557-27.991 29.115-30.834 53.507-2.03 17.423-9.973 47.775-3.696 64.397 1.457 3.861 3.28 7.188 5.212 10.287-6.653 2.784-13.314 5.582-19.898 8.541-10.121 4.542-13.249 7.912-13.563 19.752-4.148 154.375-6.834 308.827-9.611 463.233-20.206 7.725-37.439 39.186-14.521 55.021 22.547 15.579 47.932 27.984 71.707 41.582 58.727 33.589 117.295 67.608 176.855 99.706 27.25 14.687 50.914 23.325 77.48 2.855 26.57-20.476 53.557-40.422 80.33-60.63 26.518-20.016 53.188-39.916 78.972-60.881 25.572-20.792 13.412-45.515-13.712-57.257zm-277.116-557.601c-8.333-3.039-13.969-4.649-21.074-1.521-2.191.965-4.375 1.961-6.588 2.838-.065.027-.124.063-.189.09-6.912-7.664-7.886-18.264-8.032-28.236 3.976 1.402 7.78 2.766 11.257 3.865 19.453 6.159 38.428 13.577 56.846 22.355 13.079 6.234 24.596 14.869 38.406 19.533 10.18 3.436 17.164-2.895 25.924-3.426 2.475 4.284 4.557 8.222 4.952 11.284.22 1.707.474 3.663.737 5.728-33.882-11.316-68.669-20.268-102.239-32.51z" fill="#68182b"/><path d="m430.584 194.272c-.095-.174-.229-.329-.33-.5 1.725-.719 3.463-1.41 5.174-2.165.668-.297 1.336-.592 2.004-.886-.176.08-.117.063.059-.005 37.552 14.575 76.912 24.247 115.031 37.171.495.168.965.254 1.42.297 1.965 19.887 2.624 45.191-7.212 55.784-11.12 11.977-15.847 21.504-15.282 38.072-2.239 1.063-4.468 2.149-6.712 3.202-51.995-19.862-105.559-35.885-158.319-53.902 15.809-7.077 31.547-14.305 47.119-21.896 7.874-3.841 20.33-7.448 22.328-17.151 2.699-13.085 1.134-26.283-5.28-38.021z" fill="#e5e5e5"/><path d="m626.568 179.829c6.373 15.693 1.806 33.127 2.195 49.789.254 10.891 1.854 12.449-8.049 17.135-10.623 5.028-21.346 10.291-29.734 18.062-.297.276.021.7.369.632 11.904-2.3 23.186-7.971 34.371-13.265 9.512-4.493 12.327-4.057 18.18.45 2.213 1.699 3.911 4.187 4.322 8.564.031.344.11.654.188.965-34.979 18.338-69.83 37.043-105.334 54.321 1.031-12.071 6.971-17.39 14.775-27.778 7.664-10.201 6.519-25.771 6.998-37.845.689-17.397.629-36.31-3.924-53.222-2.933-10.883-17.844-19.246-4.223-25.621 9.567-4.479 19.138-8.959 28.708-13.438 3.749-1.754 7.497-3.508 11.245-5.264 14.303-6.694 25.784 16.351 29.913 26.515z" fill="#ab8153"/><path d="m367.491 98.577c46.215-19.455 91.432-22.868 140.029-10.299 9.09 2.351 46.07 12.523 74.8 25.685 14.397 6.598 7.034 8.514-3.394 11.983-15.473 5.156-30.596 12.424-43.346 21.421-6.847 4.832-11.038 7.43-21.016 5.968-6.781-.994-15.519-6.71-21.033-10.56-10.295-7.183-23.83-11.409-35.584-15.538-31.551-11.082-74.628-23.494-108.727-13.711 3.476-7.026 10.777-11.794 18.271-14.949z" fill="#ff5671"/><path d="m362.333 117.64c13.162-1.538 26.18.692 40.173 2.995 27.076 4.452 53.752 11.882 78.706 23.364 18.25 8.396 29.457 24.713 50.515 14.318 9.9-4.888 18.556-12.135 28.675-16.992 9.667-4.637 19.737-8.624 30.073-11.597 13.775-3.962 17.998-2.111 23.827 5.111 3.022 3.749 4.417 7.535 3.601 11.286-4.824-4.324-10.254-7.133-15.979-6.225-11.859 1.885-23.343 9.215-34.061 14.229-8.347 3.908-21.351 7.549-28.106 14.306-5.35 5.35-2.363 13.425 1.973 21.438-1.617 1.77-4.164 3.384-17.765 1.216-9.774-1.558-20.202-9.937-28.627-14.805-16.102-9.31-34.334-15.817-51.779-22.096-19.604-7.052-39.605-12.885-60.068-16.793-6.24-1.189-12.696.15-18.881.976-6.5 1.809-11.38-.216-14.639-6.066-4.818-8.636.538-13.278 12.362-14.665z" fill="#ffa1ba"/><path d="m319.88 193.287c1.338-20.364-2.507-63.412 16.651-77.426-.735 4.475-.783 9.372-.197 14.726 2.518 23.024 22.857 19.615 40.414 17.885 7.949-.785 17.122 1.299 26.104 4.09.016 10.128.188 21.362 4.977 30.535 4.663 8.934 12.311 14.85 16.025 24.357 8.488 21.727-5.817 27.021-21.488 34.66-17.049 8.313-34.351 16.119-51.71 23.764-3.919-1.376-7.83-2.774-11.733-4.185.639-13.02 4.834-18.778 19.57-25.338 13.998-6.229 28.078-12.831 39.975-21.276.76-.54.291-1.645-.625-1.48-20.787 3.729-41.469 14.816-60.96 23.773-1.167-2.251-2.127-3.33-4.427-6.024-14.359-16.816-13.743-20.29-12.576-38.061z" fill="#ab8153"/><g fill="#e5e5e5"><path d="m734.34 758.188c21.97 17.931-10.49 39.277-29.527 53.972-23.66 18.267-47.559 36.227-71.438 54.204-18.369 13.834-36.788 27.604-55.067 41.558-27.397 20.913-49.136 9.316-75.839-5.234-44.295-24.135-88.052-49.284-131.883-74.254-22.188-12.642-44.354-25.317-66.509-38.018-8.956-5.134-17.906-10.274-26.852-15.422-3.32-1.911-6.64-3.824-9.959-5.74-19.633-11.329-8.461-31.447 5.527-37.48.07.038.146.063.219.097 11.332 8.83 24.962 15.443 37.301 22.607 27.318 15.862 54.824 31.407 82.367 46.876 47.499 26.676 94.926 55.227 144.326 78.463 11.237 5.284 15.479 3.922 25.918-3.29 52.269-36.103 103.612-75.013 152.246-115.885 9.685-8.149 11.583-8.652 19.17-2.454z"/><path d="m319.782 238.632c3.535 5.424 6.496 11.081 7.321 18.737-9.006-3.346-17.972-6.788-26.88-10.37 6.479-2.883 13.022-5.633 19.559-8.367z"/><path d="m714.221 729.845c-5.813-86.162-15.789-172.182-24.646-258.038-6.266-60.694-11.433-127.16-19.114-187.03-2.46-19.15-.845-20.73-19.507-10.949-34.803 18.26-69.504 36.824-104.871 53.941-12.998 6.294-13.092 10.278-12.289 25.927 8.822 171.069 18.699 342.553 21.945 513.79 50.959-35.146 101.021-72.933 148.525-112.68 9.789-8.195 10.794-12.641 9.957-24.961zm-29.811-140.6c-8.783 37.6-51.334 57.049-85.997 62.725-33.694 5.516-38.507-22.935-33.753-50.244 2.377-13.661 6.436-20.434 19.235-26.249 11.234-5.104 23.37-6.608 34.308-12.729 11.604-6.494 21.866-14.221 31.559-23.313 33.088-27.715 40.207 26.021 34.648 49.81z"/><path d="m673.025 588.258c-2.213 10.749-10.436 19.728-18.174 26.921-10.469 9.729-61.467 37.396-75.543 21.947-5.752-6.31-.857-14.203 7.848-20.598 13.32-9.795 27.617-18.146 42.461-25.615 9.078-4.564 19.193-9.595 29.537-13.025 14.387-4.784 15.266 3.615 13.871 10.37z"/><path d="m657.901 547.575c11.942-10.002 15.055 5.954 15.725 19.849-15.03 2.109-29.687 9.15-43.226 15.458-19.689 9.176-38.475 20.595-55.392 34.258.054-3.265.229-6.521.454-9.664 1.154-16.112 8.968-20.547 23.973-25.134 22.598-6.91 41.28-18.644 58.466-34.767z"/><path d="m522.476 357.448c-.851-16.496.342-20.779-15.714-26.662-54.796-20.054-158.699-54.834-199.789-69.333-13.76-4.857-15.576-3.506-15.979 11.909-3.794 144.654-6.364 289.371-8.964 434.053-.292 16.184 2.391 19.536 16.51 27.586 8.091 4.612 16.589 8.973 24.074 13.292 28.126 16.222 56.381 32.224 84.718 48.074 45.088 25.226 90.084 52.162 136.959 74.127-3.16-170.988-12.992-342.225-21.815-513.046zm-16.222 476.218c-66.22-37.551-134.41-71.708-200.011-110.347-8.865-5.217-10.254-5.053-9.938-20.521 2.472-118.588 4.633-237.178 7.031-355.756.221-10.654 4.393-13.425 13.475-10.274 60.343 20.933 121.682 39.493 181.51 61.831 10.454 3.91 11.306 6.965 11.567 17.529 3.323 135.573 8.682 271.107 11.425 406.69.222 10.943-2.825 17.785-15.059 10.848z"/><path d="m334.17 726.173c-7.742-4.416-15.441-8.909-23.118-13.438 3.146-2.779 6.301-5.55 9.446-8.329 4.896 6.957 9.791 13.917 14.684 20.876-.337.297-.674.594-1.012.891z"/><path d="m324.395 700.97c4.586-4.052 9.182-8.091 13.77-12.143 4.895 6.96 9.788 13.919 14.682 20.879-4.588 4.05-9.182 8.091-13.767 12.141-4.896-6.96-9.79-13.92-14.685-20.877z"/><path d="m426.6 610.839c4.889 6.967 9.766 13.939 14.65 20.908-4.453 3.926-8.905 7.854-13.359 11.781-4.9-6.958-9.762-13.939-14.671-20.891 4.459-3.932 8.921-7.865 13.38-11.798z"/><path d="m410.221 618.386c-4.914-6.951-9.846-13.888-14.764-20.834 4.498-3.969 8.998-7.934 13.497-11.9 4.894 6.969 9.769 13.953 14.659 20.924-4.466 3.935-8.929 7.872-13.392 11.81z"/><path d="m412.849 582.216c4.587-4.043 9.175-8.088 13.762-12.132 4.889 6.972 9.771 13.946 14.659 20.92-4.588 4.043-9.172 8.091-13.76 12.136-4.892-6.971-9.765-13.955-14.661-20.924z"/><path d="m412.858 541.468c4.597-4.052 9.193-8.106 13.791-12.156 4.887 6.971 9.775 13.941 14.659 20.917-4.597 4.05-9.19 8.104-13.788 12.156-4.892-6.971-9.769-13.948-14.662-20.917z"/><path d="m423.623 565.821c-4.589 4.047-9.181 8.095-13.771 12.143-4.896-6.967-9.818-13.913-14.716-20.877 4.608-4.063 9.218-8.124 13.825-12.186 4.895 6.969 9.77 13.949 14.662 20.92z"/><path d="m392.137 552.835c-4.898-6.967-9.816-13.917-14.718-20.881 4.604-4.062 9.212-8.118 13.817-12.177 4.898 6.964 9.832 13.903 14.725 20.872-4.607 4.061-9.216 8.122-13.824 12.186z"/><path d="m405.958 581.397c-4.504 3.969-9.006 7.938-13.508 11.908-4.92-6.945-9.84-13.895-14.766-20.838 4.518-3.982 9.038-7.963 13.555-11.947 4.898 6.965 9.822 13.911 14.719 20.877z"/><path d="m406.326 621.819c-4.626 4.081-9.253 8.16-13.878 12.242-4.921-6.949-9.838-13.897-14.761-20.841 4.623-4.081 9.251-8.156 13.876-12.235 4.918 6.947 9.852 13.883 14.763 20.834z"/><path d="m409.323 626.076c4.909 6.95 9.773 13.931 14.671 20.888-4.599 4.055-9.197 8.108-13.794 12.165-4.908-6.946-9.833-13.881-14.746-20.822 4.623-4.078 9.246-8.154 13.869-12.231z"/><path d="m426.985 651.226c4.896 6.957 9.787 13.919 14.672 20.887-4.594 4.051-9.188 8.103-13.782 12.152-4.899-6.955-9.764-13.938-14.67-20.888 4.591-4.052 9.185-8.103 13.78-12.151z"/><path d="m430.883 647.787c4.45-3.925 8.9-7.853 13.353-11.776 4.887 6.969 9.769 13.939 14.65 20.908-4.446 3.919-8.89 7.839-13.333 11.758-4.884-6.969-9.774-13.931-14.67-20.89z"/><path d="m430.497 607.401c4.588-4.044 9.172-8.092 13.762-12.135 4.885 6.969 9.769 13.938 14.65 20.908-4.588 4.043-9.172 8.091-13.762 12.137-4.887-6.968-9.762-13.944-14.65-20.91z"/><path d="m430.508 566.648c4.596-4.052 9.189-8.106 13.789-12.156 4.883 6.973 9.776 13.941 14.658 20.915-4.598 4.052-9.189 8.108-13.789 12.16-4.885-6.972-9.767-13.948-14.658-20.919z"/><path d="m430.545 525.876c4.57-4.027 9.137-8.055 13.707-12.08 4.891 6.969 9.776 13.938 14.665 20.908-4.571 4.025-9.139 8.059-13.71 12.089-4.886-6.976-9.773-13.946-14.662-20.917z"/><path d="m427.56 521.612c-4.892-6.974-9.771-13.951-14.663-20.922 4.564-4.022 9.129-8.046 13.695-12.068 4.894 6.969 9.777 13.941 14.671 20.912-4.569 4.024-9.136 8.053-13.703 12.078z"/><path d="m423.661 525.048c-4.601 4.055-9.201 8.111-13.803 12.168-4.895-6.969-9.826-13.908-14.724-20.872 4.618-4.072 9.241-8.146 13.862-12.218 4.894 6.972 9.776 13.949 14.665 20.922z"/><path d="m392.134 512.091c-4.901-6.969-9.827-13.919-14.733-20.883 4.631-4.082 9.26-8.16 13.891-12.24 4.899 6.969 9.814 13.929 14.713 20.902-4.624 4.074-9.25 8.147-13.871 12.221z"/><path d="m388.237 515.524c-4.604 4.06-9.212 8.116-13.817 12.177-4.904-6.966-9.815-13.926-14.724-20.89 4.6-4.059 9.207-8.113 13.811-12.17 4.904 6.964 9.831 13.916 14.73 20.883z"/><path d="m388.243 556.269c-4.522 3.984-9.045 7.969-13.566 11.956-4.925-6.944-9.84-13.899-14.768-20.841 4.535-4.002 9.078-7.996 13.613-11.996 4.902 6.964 9.82 13.914 14.721 20.881z"/><path d="m388.555 596.74c-4.624 4.079-9.252 8.153-13.877 12.232-4.922-6.944-9.836-13.899-14.76-20.843 4.621-4.077 9.248-8.149 13.871-12.229 4.925 6.946 9.846 13.892 14.766 20.84z"/><path d="m388.552 637.495c-4.7 4.146-9.403 8.288-14.104 12.438-4.899-6.967-9.807-13.929-14.706-20.893 4.682-4.131 9.367-8.258 14.049-12.389 4.923 6.947 9.841 13.895 14.761 20.844z"/><path d="m388.24 678.492c-4.614 4.075-9.235 8.143-13.852 12.215-4.892-6.962-9.782-13.921-14.675-20.881 4.609-4.07 9.225-8.134 13.836-12.204 4.893 6.96 9.802 13.908 14.691 20.87z"/><path d="m377.444 654.187c4.704-4.148 9.41-8.295 14.115-12.446 4.916 6.941 9.84 13.874 14.746 20.822-4.722 4.165-9.446 8.329-14.168 12.496-4.89-6.962-9.801-13.913-14.693-20.872z"/><path d="m409.307 666.813c4.909 6.951 9.771 13.933 14.671 20.888-4.728 4.172-9.456 8.338-14.185 12.51-4.889-6.964-9.771-13.933-14.662-20.896 4.725-4.169 9.452-8.334 14.176-12.502z"/><path d="m426.971 691.962c4.896 6.962 9.79 13.928 14.677 20.896-4.735 4.176-9.472 8.352-14.205 12.527-4.891-6.969-9.771-13.946-14.661-20.914 4.728-4.171 9.46-8.34 14.189-12.509z"/><path d="m430.866 688.526c4.594-4.053 9.188-8.103 13.781-12.154 4.885 6.973 9.805 13.921 14.673 20.905-4.592 4.048-9.183 8.098-13.774 12.146-4.889-6.969-9.781-13.938-14.68-20.897z"/><path d="m462.28 701.563c4.87 6.993 9.669 14.031 14.521 21.036-4.529 3.994-9.058 7.987-13.586 11.981-4.871-6.98-9.793-13.926-14.68-20.897 4.583-4.039 9.164-8.079 13.745-12.12z"/><path d="m448.544 672.936c4.443-3.917 8.884-7.836 13.33-11.753 4.884 6.973 9.772 13.943 14.657 20.919-4.439 3.91-8.873 7.823-13.309 11.733-4.866-6.982-9.794-13.926-14.678-20.899z"/><path d="m448.135 632.575c4.588-4.046 9.172-8.094 13.762-12.137 4.882 6.969 9.771 13.936 14.652 20.906-4.592 4.045-9.177 8.093-13.766 12.138-4.882-6.97-9.764-13.939-14.648-20.907z"/><path d="m448.155 591.831c4.597-4.052 9.188-8.108 13.787-12.158 4.882 6.971 9.764 13.941 14.644 20.912-4.595 4.05-9.184 8.104-13.78 12.152-4.882-6.968-9.766-13.937-14.651-20.906z"/><path d="m448.194 551.054c4.574-4.027 9.141-8.062 13.712-12.089 4.889 6.969 9.78 13.938 14.666 20.906-4.573 4.029-9.144 8.067-13.717 12.1-4.884-6.976-9.774-13.945-14.661-20.917z"/><path d="m448.149 510.36c4.578-4.032 9.149-8.068 13.726-12.099 4.891 6.967 9.793 13.924 14.679 20.891-4.582 4.036-9.156 8.079-13.738 12.115-4.89-6.97-9.776-13.939-14.667-20.907z"/><path d="m448.097 469.673c4.603-4.055 9.201-8.113 13.804-12.166 4.894 6.967 9.789 13.931 14.68 20.897-4.605 4.05-9.199 8.11-13.8 12.163-4.892-6.966-9.79-13.928-14.684-20.894z"/><path d="m458.883 494.003c-4.578 4.029-9.146 8.066-13.723 12.096-4.891-6.971-9.775-13.944-14.671-20.912 4.571-4.025 9.139-8.055 13.71-12.08 4.894 6.965 9.792 13.927 14.684 20.896z"/><path d="m427.501 480.925c-4.897-6.973-9.809-13.936-14.708-20.906 4.57-4.029 9.143-8.061 13.717-12.088 4.899 6.973 9.799 13.943 14.697 20.916-4.57 4.025-9.136 8.052-13.706 12.078z"/><path d="m423.604 484.36c-4.568 4.023-9.136 8.051-13.703 12.076-4.897-6.974-9.811-13.934-14.713-20.904 4.569-4.027 9.139-8.055 13.708-12.08 4.899 6.971 9.812 13.936 14.708 20.908z"/><path d="m392.193 471.278c-4.901-6.971-9.806-13.939-14.716-20.906 4.565-4.022 9.128-8.046 13.693-12.066 4.904 6.969 9.826 13.922 14.729 20.893-4.57 4.027-9.139 8.052-13.706 12.079z"/><path d="m388.295 474.712c-4.629 4.081-9.264 8.16-13.895 12.244-4.906-6.967-9.821-13.924-14.732-20.886 4.637-4.089 9.275-8.177 13.914-12.265 4.908 6.967 9.812 13.936 14.713 20.907z"/><path d="m356.668 461.817c-4.911-6.957-9.813-13.921-14.729-20.876 4.644-4.095 9.287-8.186 13.928-12.278 4.916 6.958 9.811 13.927 14.718 20.889-4.638 4.088-9.278 8.176-13.917 12.265z"/><path d="m370.506 490.39c-4.603 4.057-9.208 8.11-13.809 12.17-4.911-6.965-9.813-13.931-14.727-20.891 4.599-4.057 9.201-8.108 13.803-12.165 4.911 6.962 9.827 13.919 14.733 20.886z"/><path d="m370.525 531.133c-4.54 4.005-9.085 8.001-13.624 12.006-4.93-6.946-9.848-13.897-14.777-20.843 4.557-4.019 9.119-8.032 13.675-12.051 4.909 6.964 9.819 13.924 14.726 20.888z"/><path d="m370.782 571.658c-4.621 4.077-9.25 8.149-13.873 12.226-4.926-6.945-9.838-13.898-14.764-20.847 4.621-4.077 9.248-8.145 13.869-12.222 4.927 6.944 9.842 13.897 14.768 20.843z"/><path d="m370.786 612.406c-4.68 4.129-9.361 8.251-14.039 12.379-4.901-6.966-9.804-13.933-14.708-20.896 4.659-4.11 9.325-8.215 13.984-12.325 4.925 6.943 9.839 13.896 14.763 20.842z"/><path d="m370.554 653.366c-4.61 4.069-9.227 8.131-13.834 12.201-4.899-6.969-9.793-13.942-14.694-20.908 4.604-4.063 9.217-8.12 13.82-12.184 4.902 6.964 9.809 13.924 14.708 20.891z"/><path d="m370.493 694.144c-4.582 4.045-9.17 8.081-13.752 12.127-4.891-6.96-9.787-13.92-14.68-20.879 4.583-4.048 9.172-8.084 13.756-12.13 4.892 6.96 9.785 13.919 14.676 20.882z"/><path d="m373.487 698.402c4.891 6.962 9.785 13.919 14.674 20.881-4.58 4.043-9.165 8.081-13.746 12.125-4.891-6.962-9.788-13.92-14.679-20.882 4.581-4.043 9.167-8.081 13.751-12.124z"/><path d="m377.381 694.966c4.616-4.074 9.239-8.145 13.855-12.217 4.891 6.962 9.771 13.933 14.66 20.896-4.613 4.068-9.227 8.134-13.839 12.204-4.888-6.963-9.785-13.921-14.676-20.883z"/><path d="m408.885 707.907c4.891 6.969 9.77 13.946 14.658 20.914-4.601 4.062-9.205 8.118-13.809 12.18-4.891-6.969-9.793-13.929-14.684-20.895 4.611-4.068 9.225-8.131 13.835-12.199z"/><path d="m426.532 733.085c4.889 6.971 9.773 13.942 14.66 20.913-4.592 4.052-9.188 8.1-13.78 12.151-4.889-6.969-9.796-13.924-14.685-20.893 4.602-4.058 9.205-8.111 13.805-12.171z"/><path d="m430.429 729.649c4.735-4.178 9.474-8.354 14.212-12.529 4.884 6.971 9.807 13.914 14.677 20.896-4.743 4.183-9.487 8.363-14.229 12.545-4.887-6.97-9.771-13.943-14.66-20.912z"/><path d="m462.284 742.296c4.873 6.993 9.674 14.031 14.529 21.034-4.693 4.138-9.385 8.272-14.075 12.41-4.886-6.974-9.774-13.944-14.661-20.915 4.736-4.178 9.47-8.351 14.207-12.529z"/><path d="m466.188 738.855c4.523-3.989 9.048-7.979 13.572-11.968 4.848 7.007 9.696 14.017 14.521 21.039-4.521 3.986-9.043 7.974-13.568 11.963-4.854-7.001-9.653-14.042-14.525-21.034z"/><path d="m466.183 698.123c4.445-3.919 8.889-7.841 13.335-11.758 4.881 6.976 9.774 13.941 14.656 20.917-4.492 3.957-8.98 7.917-13.47 11.877-4.852-7.004-9.651-14.045-14.521-21.036z"/><path d="m465.772 657.746c4.589-4.046 9.174-8.093 13.764-12.138 4.884 6.975 9.775 13.943 14.658 20.916-4.592 4.046-9.176 8.096-13.766 12.141-4.885-6.975-9.772-13.945-14.656-20.919z"/><path d="m465.793 617.001c4.595-4.048 9.184-8.103 13.777-12.15 4.883 6.974 9.764 13.944 14.645 20.915-4.592 4.046-9.178 8.098-13.77 12.143-4.88-6.971-9.769-13.937-14.652-20.908z"/><path d="m465.841 576.234c4.575-4.032 9.144-8.07 13.722-12.101 4.884 6.967 9.774 13.931 14.66 20.899-4.582 4.034-9.156 8.079-13.738 12.116-4.88-6.972-9.764-13.943-14.644-20.914z"/><path d="m465.805 535.529c4.583-4.036 9.158-8.082 13.742-12.118 4.889 6.969 9.793 13.924 14.682 20.893-4.59 4.041-9.171 8.09-13.758 12.131-4.888-6.971-9.779-13.938-14.666-20.906z"/><path d="m465.774 494.826c4.601-4.052 9.194-8.113 13.797-12.163 4.889 6.967 9.787 13.926 14.676 20.893-4.604 4.05-9.193 8.11-13.793 12.16-4.889-6.966-9.791-13.924-14.68-20.89z"/><path d="m465.801 454.071c4.598-4.048 9.189-8.104 13.791-12.152 4.889 6.967 9.781 13.932 14.672 20.897-4.601 4.045-9.188 8.106-13.787 12.151-4.891-6.965-9.785-13.929-14.676-20.896z"/><path d="m462.807 449.813c-4.896-6.974-9.795-13.948-14.694-20.922 4.601-4.048 9.194-8.106 13.796-12.156 4.896 6.976 9.795 13.95 14.689 20.927-4.599 4.046-9.189 8.103-13.791 12.151z"/><path d="m458.911 453.248c-4.605 4.052-9.201 8.111-13.805 12.165-4.899-6.975-9.799-13.945-14.699-20.919 4.605-4.054 9.203-8.115 13.809-12.167 4.9 6.973 9.797 13.945 14.695 20.921z"/><path d="m427.417 440.237c-4.902-6.973-9.798-13.951-14.702-20.922 4.607-4.057 9.206-8.117 13.813-12.174 4.902 6.973 9.797 13.951 14.697 20.926-4.605 4.055-9.206 8.114-13.808 12.17z"/><path d="m423.516 443.671c-4.573 4.029-9.146 8.064-13.723 12.096-4.9-6.971-9.822-13.926-14.727-20.895 4.585-4.041 9.166-8.082 13.75-12.12 4.905 6.971 9.802 13.946 14.7 20.919z"/><path d="m392.067 430.618c-4.902-6.965-9.813-13.922-14.72-20.887 4.597-4.049 9.188-8.102 13.784-12.151 4.904 6.967 9.793 13.944 14.695 20.913-4.587 4.041-9.171 8.084-13.759 12.125z"/><path d="m388.172 434.052c-4.563 4.021-9.127 8.043-13.689 12.066-4.907-6.963-9.807-13.931-14.721-20.886 4.563-4.023 9.125-8.044 13.688-12.064 4.907 6.962 9.82 13.919 14.722 20.884z"/><path d="m356.754 420.989c-4.916-6.955-9.856-13.891-14.779-20.841 4.586-4.041 9.168-8.082 13.754-12.122 4.91 6.959 9.814 13.926 14.724 20.887-4.568 4.025-9.134 8.051-13.699 12.076z"/><path d="m352.86 424.421c-4.64 4.09-9.281 8.178-13.92 12.268-4.916-6.955-9.805-13.928-14.729-20.879 4.623-4.076 9.248-8.15 13.872-12.228 4.923 6.948 9.863 13.884 14.777 20.839z"/><path d="m352.774 465.251c-4.601 4.057-9.203 8.107-13.803 12.164-4.91-6.958-9.804-13.929-14.719-20.884 4.596-4.054 9.196-8.104 13.793-12.156 4.916 6.955 9.818 13.919 14.729 20.876z"/><path d="m352.801 505.993c-4.561 4.021-9.125 8.036-13.686 12.06-4.93-6.946-9.854-13.895-14.776-20.846 4.576-4.036 9.159-8.067 13.735-12.104 4.914 6.96 9.818 13.925 14.727 20.89z"/><path d="m353.005 546.572c-4.621 4.074-9.247 8.143-13.867 12.22-4.925-6.949-9.845-13.899-14.765-20.85 4.613-4.075 9.239-8.141 13.855-12.213 4.931 6.947 9.849 13.897 14.777 20.843z"/><path d="m353.016 587.318c-4.656 4.105-9.318 8.207-13.973 12.315-4.906-6.964-9.805-13.935-14.713-20.898 4.637-4.093 9.282-8.174 13.919-12.267 4.927 6.949 9.839 13.902 14.767 20.85z"/><path d="m352.85 628.219c-4.604 4.063-9.213 8.12-13.815 12.184-4.904-6.969-9.791-13.946-14.697-20.91 4.599-4.062 9.206-8.108 13.804-12.168 4.904 6.963 9.806 13.928 14.708 20.894z"/><path d="m352.823 669.003c-4.582 4.045-9.172 8.084-13.754 12.129-4.902-6.966-9.796-13.939-14.7-20.905 4.585-4.048 9.177-8.084 13.762-12.132 4.902 6.967 9.792 13.939 14.692 20.908z"/><path d="m347.35 733.604c-1.758-2.502-3.52-5.001-5.277-7.501 4.585-4.05 9.179-8.091 13.766-12.141 4.891 6.962 9.789 13.919 14.68 20.881-2.709 2.391-5.424 4.778-8.133 7.171-5.027-2.781-10.03-5.596-15.036-8.41z"/><path d="m367.202 744.664c2.102-1.855 4.209-3.708 6.31-5.563 3.449 4.908 6.903 9.811 10.351 14.72-5.567-3.032-11.113-6.099-16.661-9.157z"/><path d="m377.409 735.665c4.58-4.043 9.165-8.08 13.745-12.123 4.894 6.967 9.796 13.926 14.685 20.895-4.578 4.041-9.164 8.075-13.744 12.118-4.891-6.966-9.794-13.924-14.686-20.89z"/><path d="m508.315 759.159c-2.376-3.471-4.79-6.92-7.171-10.387 2.249-1.983 4.498-3.967 6.748-5.95.145 5.447.284 10.893.423 16.337z"/><path d="m507.72 736.078c-3.18 2.802-6.356 5.604-9.534 8.405-4.828-7.02-9.674-14.029-14.521-21.038 4.499-3.964 8.996-7.934 13.496-11.899 3.432 4.906 6.874 9.804 10.305 14.708.09 3.274.164 6.55.254 9.824z"/><path d="m507.195 716.87c-2.043-2.921-4.094-5.84-6.139-8.761 1.914-1.687 3.828-3.375 5.741-5.062.134 4.608.271 9.216.398 13.823z"/><path d="m506.604 696.319c-2.845 2.508-5.688 5.02-8.534 7.526-4.881-6.976-9.774-13.943-14.656-20.917 4.59-4.045 9.177-8.095 13.766-12.141 3.021 4.313 6.044 8.619 9.062 12.933.124 4.201.24 8.399.362 12.599z"/><path d="m505.973 674.337c-1.631-2.33-3.263-4.654-4.893-6.984 1.52-1.34 3.039-2.683 4.56-4.023.11 3.669.225 7.337.333 11.007z"/><path d="m505.436 656.612c-2.449 2.157-4.896 4.318-7.344 6.477-4.884-6.976-9.774-13.943-14.659-20.917 4.592-4.046 9.178-8.098 13.77-12.143 2.588 3.696 5.173 7.392 7.761 11.086.159 5.167.315 10.333.472 15.497z"/><path d="m504.678 631.702c-1.194-1.705-2.387-3.406-3.578-5.109 1.111-.98 2.222-1.961 3.332-2.938.082 2.682.162 5.365.246 8.047z"/><path d="m504.226 616.938c-2.04 1.797-4.075 3.596-6.112 5.39-4.882-6.971-9.764-13.941-14.643-20.914 4.582-4.037 9.156-8.082 13.741-12.118 2.146 3.06 4.294 6.12 6.44 9.181.192 6.153.382 12.308.574 18.461z"/><path d="m503.359 589.067c-.748-1.07-1.5-2.139-2.25-3.209.699-.616 1.396-1.232 2.096-1.846.051 1.684.104 3.372.154 5.055z"/><path d="m502.995 577.298c-1.626 1.433-3.249 2.867-4.875 4.3-4.886-6.969-9.776-13.933-14.661-20.901 4.59-4.041 9.17-8.093 13.76-12.134 1.704 2.429 3.413 4.853 5.117 7.281.219 7.153.437 14.303.659 21.454z"/><path d="m502.049 546.455c-.311-.442-.623-.886-.934-1.329.291-.256.58-.512.871-.769.022.7.042 1.399.063 2.098z"/><path d="m501.781 537.641c-1.22 1.075-2.437 2.151-3.658 3.227-4.887-6.969-9.791-13.924-14.68-20.892 4.601-4.051 9.192-8.111 13.793-12.161 1.266 1.806 2.537 3.608 3.802 5.415.241 8.134.495 16.273.743 24.411z"/><path d="m500.601 497.952c-.818.722-1.638 1.445-2.458 2.167-4.889-6.966-9.786-13.926-14.675-20.892 4.599-4.046 9.187-8.104 13.786-12.15.855 1.219 1.712 2.438 2.568 3.656.253 9.075.516 18.145.779 27.219z"/><path d="m499.469 458.229c-.436.382-.871.769-1.309 1.153-4.889-6.969-9.781-13.933-14.672-20.899 4.599-4.043 9.184-8.102 13.781-12.145.479.681.957 1.359 1.434 2.039.253 9.951.495 19.901.766 29.852z"/><path d="m498.253 410.858c.061 2.517.13 5.033.193 7.549-.09.079-.178.158-.268.236-2.47-3.518-4.938-7.033-7.407-10.551 2.495.923 4.995 1.831 7.482 2.766z"/><path d="m482.252 404.942c4.009 5.712 8.018 11.424 12.029 17.137-4.6 4.043-9.186 8.103-13.783 12.146-4.898-6.976-9.793-13.95-14.693-20.927 3.846-3.381 7.682-6.774 11.529-10.158 1.644.592 3.276 1.207 4.918 1.802z"/><path d="m471.749 401.167c-2.979 2.622-5.952 5.25-8.934 7.873-3.43-4.883-6.854-9.767-10.283-14.648 6.42 2.221 12.819 4.493 19.217 6.775z"/><path d="m444.231 391.559c4.898 6.971 9.791 13.946 14.687 20.917-4.603 4.047-9.194 8.106-13.796 12.156-4.899-6.973-9.795-13.951-14.697-20.924 4.6-4.05 9.191-8.106 13.791-12.154.004.002.011.005.015.005z"/><path d="m438.577 389.629c-3.718 3.27-7.428 6.548-11.143 9.82-4.164-5.923-8.318-11.851-12.482-17.771 7.883 2.624 15.758 5.277 23.625 7.951z"/><path d="m423.538 402.883c-4.607 4.057-9.209 8.118-13.814 12.174-4.902-6.966-9.791-13.944-14.692-20.91 4.605-4.059 9.208-8.12 13.815-12.179 4.902 6.969 9.79 13.946 14.691 20.915z"/><path d="m405.086 378.386c-4.351 3.832-8.697 7.67-13.049 11.502-4.828-6.856-9.633-13.729-14.461-20.582 9.171 3.024 18.342 6.047 27.51 9.08z"/><path d="m388.141 393.323c-4.599 4.051-9.195 8.104-13.793 12.156-4.907-6.961-9.812-13.928-14.725-20.888 4.607-4.061 9.215-8.122 13.822-12.183 4.907 6.967 9.792 13.946 14.696 20.915z"/><path d="m343.554 357.999c8.595 2.881 17.193 5.746 25.802 8.59.366.52.73 1.041 1.097 1.561-4.609 4.062-9.218 8.127-13.827 12.188-4.913-6.955-9.802-13.928-14.719-20.881.551-.486 1.099-.972 1.647-1.458z"/><path d="m352.731 383.773c-4.59 4.043-9.177 8.089-13.764 12.132-4.922-6.944-9.843-13.893-14.773-20.832 4.605-4.061 9.21-8.122 13.815-12.184 4.917 6.954 9.809 13.927 14.722 20.884z"/><path d="m314.833 348.22c5.644 1.954 11.288 3.913 16.947 5.831 1.08 1.526 2.152 3.058 3.232 4.587-4.61 4.063-9.218 8.127-13.828 12.192-2.207-3.105-4.402-6.222-6.613-9.325.088-4.428.172-8.858.262-13.285z"/><path d="m314.401 370.187c.967 1.359 1.924 2.719 2.891 4.077-1.009.889-2.016 1.776-3.023 2.665.044-2.246.087-4.495.132-6.742z"/><path d="m314.13 383.948c2.056-1.814 4.112-3.629 6.171-5.441 4.932 6.939 9.849 13.886 14.771 20.832-4.619 4.072-9.24 8.145-13.861 12.219-2.479-3.498-4.936-7.016-7.416-10.515.114-5.698.223-11.396.335-17.095z"/><path d="m313.625 409.757c1.235 1.742 2.458 3.492 3.692 5.234-1.289 1.137-2.574 2.27-3.863 3.405.056-2.88.113-5.758.171-8.639z"/><path d="m313.317 425.414c2.332-2.058 4.666-4.112 7-6.17 4.922 6.95 9.811 13.923 14.729 20.879-4.596 4.052-9.197 8.102-13.793 12.156-2.75-3.891-5.482-7.794-8.234-11.683.097-5.06.198-10.12.298-15.182z"/><path d="m312.846 449.313c1.507 2.131 3.004 4.268 4.512 6.399-1.572 1.388-3.146 2.771-4.719 4.157.069-3.517.141-7.037.207-10.556z"/><path d="m312.5 466.889c2.617-2.31 5.239-4.614 7.854-6.921 4.918 6.952 9.809 13.924 14.722 20.881-4.58 4.041-9.166 8.074-13.746 12.115-3.029-4.274-6.064-8.545-9.089-12.819.086-4.419.174-8.837.259-13.256z"/><path d="m312.071 488.829c1.785 2.522 3.578 5.043 5.365 7.566-1.869 1.65-3.742 3.297-5.61 4.947.081-4.171.164-8.342.245-12.513z"/><path d="m311.686 508.358c2.919-2.574 5.84-5.143 8.759-7.717 4.925 6.947 9.849 13.896 14.776 20.842-4.617 4.075-9.24 8.139-13.856 12.213-3.297-4.661-6.606-9.318-9.901-13.982.074-3.784.15-7.568.222-11.356z"/><path d="m311.293 528.405c2.057 2.907 4.119 5.814 6.176 8.723-2.154 1.9-4.311 3.796-6.465 5.698.093-4.807.197-9.613.289-14.421z"/><path d="m310.866 549.844c3.202-2.826 6.41-5.644 9.613-8.471 4.92 6.951 9.84 13.901 14.764 20.85-4.632 4.089-9.273 8.167-13.907 12.255-3.558-5.043-7.102-10.098-10.661-15.142.062-3.164.128-6.328.191-9.492z"/><path d="m310.501 568.058c2.315 3.283 4.623 6.571 6.937 9.856-2.419 2.134-4.844 4.264-7.261 6.399.107-5.418.218-10.837.324-16.255z"/><path d="m310.036 591.332c3.465-3.059 6.936-6.105 10.398-9.163 4.908 6.964 9.807 13.935 14.713 20.898-4.6 4.059-9.204 8.106-13.803 12.166-3.824-5.431-7.632-10.877-11.459-16.308.049-2.529.102-5.061.151-7.593z"/><path d="m309.709 607.659c2.584 3.666 5.156 7.342 7.738 11.01-2.699 2.381-5.402 4.756-8.1 7.137.122-6.049.243-12.098.362-18.147z"/><path d="m309.208 632.826c3.741-3.303 7.49-6.597 11.231-9.9 4.906 6.966 9.793 13.944 14.697 20.91-4.584 4.048-9.176 8.086-13.762 12.134-4.097-5.819-8.183-11.648-12.279-17.468.036-1.892.075-3.784.113-5.676z"/><path d="m308.92 647.231c2.855 4.057 5.703 8.117 8.559 12.174-2.984 2.636-5.975 5.262-8.959 7.9.135-6.692.266-13.382.4-20.074z"/><path d="m308.378 674.325c4.027-3.557 8.065-7.105 12.093-10.663 4.904 6.967 9.801 13.939 14.7 20.906-4.587 4.052-9.184 8.093-13.771 12.145-4.367-6.204-8.728-12.412-13.097-18.616.028-1.257.051-2.514.075-3.772z"/><path d="m308.129 686.823c3.127 4.441 6.248 8.885 9.374 13.326-3.267 2.887-6.544 5.766-9.813 8.654.153-7.327.288-14.654.439-21.98z"/><path d="m419.523 773.103c-7.938-4.272-15.868-8.561-23.795-12.854 4.364-3.854 8.735-7.701 13.103-11.556 4.891 6.969 9.795 13.924 14.684 20.893-1.329 1.174-2.661 2.345-3.992 3.517z"/><path d="m424.38 775.718c.71-.625 1.419-1.248 2.127-1.873 1.136 1.619 2.276 3.233 3.411 4.853-1.845-.992-3.691-1.986-5.538-2.98z"/><path d="m440.077 784.171c-3.221-4.592-6.455-9.173-9.674-13.762 4.592-4.053 9.186-8.098 13.777-12.147 4.886 6.973 9.774 13.941 14.658 20.917-3.546 3.128-7.094 6.256-10.643 9.383-2.706-1.461-5.411-2.932-8.118-4.391z"/><path d="m453.043 791.185c2.928-2.582 5.855-5.163 8.783-7.745 4.732 6.758 9.477 13.508 14.205 20.268-7.652-4.192-15.31-8.371-22.988-12.523z"/><path d="m465.724 780.004c4.682-4.131 9.366-8.257 14.05-12.388 4.85 7.006 9.693 14.014 14.526 21.033-4.64 4.088-9.278 8.179-13.915 12.27-4.882-6.976-9.777-13.942-14.661-20.915z"/><path d="m509.775 822.479c-7.813-4.419-15.637-8.806-23.492-13.144-.969-1.385-1.943-2.768-2.912-4.153 4.631-4.083 9.26-8.165 13.888-12.246 4.075 5.923 8.203 11.813 12.259 17.747.084 3.932.176 7.863.257 11.796z"/><path d="m509.314 801.296c-2.703-3.943-5.444-7.863-8.152-11.801 2.582-2.277 5.164-4.556 7.745-6.831.149 6.211.27 12.421.407 18.632z"/><path d="m508.748 775.909c-3.516 3.099-7.032 6.199-10.546 9.298-4.832-7.019-9.674-14.027-14.526-21.032 4.522-3.986 9.044-7.976 13.566-11.963 3.759 5.477 7.573 10.913 11.317 16.398.06 2.433.13 4.866.189 7.299z"/></g><path d="m423.854 207.454c-3.715-9.508-11.362-15.424-16.025-24.357-4.788-9.173-4.961-20.407-4.977-30.535-8.981-2.791-18.154-4.875-26.104-4.09-17.557 1.73-37.896 5.14-40.414-17.885-.084-.771-.057-1.465-.115-2.219-2.271 9.919-2.738 20.699 5.84 25.626 8.358 4.801 17.137 3.775 26.415 2.642 7.349-.899 14.692-1.938 20.85 3.4 4.804 4.162 5.455 12.975 6.48 18.835 1.565 8.94 4.347 15.59 10.52 22.198 14.371 15.391-2.688 24.648-15.003 31.021-10.07 5.212-19.154 12.085-29.132 17.47-7.485 4.039-14.571 3.639-21.729 2.867-.867 2.66-1.361 5.667-1.537 9.267 3.903 1.41 7.814 2.809 11.733 4.185 17.359-7.645 34.661-15.45 51.71-23.764 15.671-7.639 29.976-12.934 21.488-34.661z" fill="#875725"/><path d="m557.852 288.704c-7.805 10.389-13.744 15.707-14.775 27.778 35.504-17.278 70.355-35.983 105.334-54.321-.077-.311-.156-.621-.188-.965-.411-4.378-2.109-6.865-4.322-8.564-.775-.599-1.494-1.113-2.188-1.565-4.045 13.523-23.063 19.233-35.243 24.454-7.187 3.081-13.827 7.283-21.062 10.319-4.398 1.849-13.025 5.7-13.494-3.872-.229-4.718 1.986-10.007 3.402-14.435 5.656-17.684 5.26-37.582 2.434-55.722-1.648-10.575-6.006-20.164-8.709-30.422-2.109-8.008 2.876-14.169 8.864-19.299-7.067 3.311-14.136 6.618-21.202 9.926-13.621 6.375 1.29 14.738 4.223 25.621 4.553 16.912 4.613 35.824 3.924 53.222-.48 12.074.666 27.644-6.998 37.845z" fill="#875725"/><path d="m380.545 188.364c-1.943-3.496-2.769-6.871-3.012-10.299-.609-8.609-1.736-15.592-13.512-14.729-4.376.319-8.75 1.039-12.332 1.514-5.828.77-12.762 3.566-15.973 8.819-7.173 11.731-7.933 30.536-.689 42.448 7.668 12.607 33.552-1.768 42.58-5.912 4.034-1.854 8.352-5.914 7.459-10.825-.741-4.094-2.518-7.404-4.521-11.016z" fill="#d5bb8a"/><path d="m616.521 182.237c-4.019-12.442-16.874-22.199-27.668-12.172-6.271 5.824-7.234 14.594-3.82 25.041 4.029 12.338 6.218 22.395 5.598 35.502-.217 4.504 2.034 11.09 7.323 11.828 16.917 2.358 19.819-12.575 20.96-25.734 1.003-11.564 1.209-23.314-2.393-34.465z" fill="#d5bb8a"/><path d="m554.353 323.671c-2.761 1.358-5.503 2.758-8.271 4.098-12.998 6.294-13.092 10.278-12.289 25.927 8.822 171.069 18.699 342.553 21.945 513.79 50.959-35.146 101.021-72.933 148.525-112.68 9.789-8.194 10.794-12.641 9.957-24.961-.771-11.421-1.623-22.835-2.527-34.251-3.514 43.954-27.807 61.565-39.731 71.244-13.265 10.767-27.856 19.883-42.56 28.522-47.637 27.986-59.438 30.894-69.221-77.9-3.195-35.491-16.04-288.609-17.376-323.691-.662-17.407-3.487-53.345 11.548-70.098z" fill="#bfbfbf"/><path d="m737.155 760.856c-5.588 12.251-15.338 22.385-25.298 31.18-22.117 19.539-47.939 35.604-71.5 53.356-27.418 20.656-56.705 45.578-89.443 57.156-24.447 8.644-46.41-10.982-66.373-22.322-36.287-20.613-72.953-40.557-109.383-60.919-19.736-11.031-39.438-22.129-59.009-33.455-16.454-9.521-34.382-18.761-48.423-31.701-3.674-3.387-6.26-7.017-8.029-10.808-4.937 8.354-4.68 18.842 7.568 25.909 3.319 1.916 6.639 3.829 9.959 5.74 8.945 5.147 17.896 10.288 26.852 15.422 22.154 12.7 44.321 25.376 66.509 38.018 43.831 24.97 87.588 50.119 131.883 74.254 26.703 14.551 48.441 26.147 75.839 5.234 18.279-13.953 36.698-27.724 55.067-41.558 23.879-17.978 47.777-35.938 71.438-54.204 18.102-13.971 48.304-33.956 32.343-51.302z" fill="#bfbfbf"/><path d="m659.154 577.888c-10.344 3.431-20.459 8.461-29.537 13.025-14.844 7.469-29.141 15.82-42.461 25.615-8.705 6.395-13.6 14.288-7.848 20.598 1.9 2.084 4.51 3.33 7.564 3.996-17.908-15.748 84.176-76.127 82.971-44.236 1.428-2.74 2.559-5.605 3.182-8.628 1.395-6.755.516-15.154-13.871-10.37z" fill="#bfbfbf"/><path d="m585.971 608.867c13.944-10.04 28.885-18.74 44.43-25.985 13.539-6.308 28.195-13.349 43.226-15.458-.173-3.593-.515-7.317-1.126-10.701-6.776.571-58.923 26.071-86.53 52.144z" fill="#bfbfbf"/><path d="m544.292 870.494c-3.161-170.988-12.993-342.226-21.816-513.046-.851-16.496.342-20.779-15.714-26.662-9.563-3.499-20.644-7.455-32.605-11.666 38.166 23.517 41.143 48.971 43.425 91.99 4.716 89.052 8.595 178.15 12.365 267.247 1.738 41.074 3.421 82.152 4.842 123.238.523 15.108 6.477 52.644-18.49 47.056-14.795-3.311-29.77-13.535-43.201-20.523-43.906-22.845-87.593-46.732-131.894-69.205 21.985 12.583 44.022 25.079 66.128 37.444 45.088 25.226 90.085 52.162 136.96 74.127z" fill="#bfbfbf"/><path d="m451.713 229.007c16.441 3.465 32.553 8.507 48.391 14.079 15.962 5.619 31.674 12.028 46.902 19.419 2.22 1.078 4.59 2.19 6.998 3.369 1.826-11.563 1.131-25.617-.063-37.689-.455-.043-.925-.129-1.42-.297-38.119-12.924-77.479-22.596-115.031-37.171-.176.067-.234.085-.059.005-.668.294-1.336.589-2.004.886-1.711.755-3.449 1.446-5.174 2.165.101.171.235.326.33.5 5.414 9.909 7.335 20.862 6.19 31.908 5.087.775 10.114 1.81 14.94 2.826z" fill="#bfbfbf"/><path d="m590.3 119.682c-8.671-.585-17.808 1.735-26.833 4.938-10.068 3.572-19.729 8.162-29.908 11.434-15.246 4.9-25.378.185-39.542-5.833-27.641-11.74-55.459-23.427-85.562-26.808-13.735-1.543-44.326-2.496-56.605 9.473 33.666-8.455 75.346 3.551 106.098 14.352 11.754 4.129 25.289 8.355 35.584 15.538 5.514 3.85 14.251 9.565 21.033 10.56 9.978 1.462 14.169-1.136 21.016-5.968 12.75-8.997 27.873-16.265 43.346-21.421 6.565-2.186 11.903-3.757 11.373-6.265z" fill="#e03f58"/><path d="m618.094 143.513c-3.355-3.049-7.26-5.291-11.7-6.254-17.825-3.867-39.286 9.803-53.957 18.053-9.278 5.219-18.292 11.169-28.187 15.184-15.293 6.206-33.806-6.313-46.796-13.357-22.271-12.078-47.184-19.01-71.872-24.016-10.126-2.053-20.677-4.691-31.067-4.199-5.145.246-19.026 2.827-25.997-.402.266 1.174.687 2.411 1.452 3.785 3.259 5.851 8.139 7.875 14.639 6.066 6.185-.825 12.641-2.165 18.881-.976 20.463 3.908 40.465 9.741 60.068 16.793 17.445 6.278 35.678 12.786 51.779 22.096 8.425 4.868 18.853 13.247 28.627 14.805 13.601 2.168 16.147.554 17.765-1.216-4.336-8.013-7.322-16.088-1.973-21.438 6.756-6.757 19.76-10.397 28.106-14.306 10.718-5.015 22.201-12.345 34.061-14.229 5.726-.908 11.155 1.9 15.979 6.225.189-.871.234-1.741.192-2.614z" fill="#ee7491"/><path d="m546.926 344.244c-.371.13-.592-.437-.264-.625 27.506-15.923 56.271-32.214 85.924-43.795.473-.185.73.54.332.789-26.647 16.663-56.301 33.198-85.992 43.631z" fill="#68182b"/><path d="m636.548 298.271c-.278.121-.611-.216-.349-.454 1.572-1.421 2.325-2.757 4.379-3.665 1.668-.738 3.146-1.1 4.859-.385.4.166.57.615.254.962-1.12 1.224-2.422 1.644-3.947 2.192-1.643.594-3.629.654-5.196 1.35z" fill="#68182b"/><path d="m516.002 880.865c.553.344.066 1.169-.509.868-68.901-35.846-136.23-74.537-203.499-113.344-.447-.259-.055-.902.4-.684 35.338 16.9 69.406 36.646 103.643 55.637 33.641 18.657 67.303 37.184 99.965 57.523z" fill="#68182b"/><path d="m525.979 886.313c.172.473-.34.88-.773.773-2.021-.487-4.504-1.297-5.7-3.168-.353-.553.126-1.131.684-1.191 2.519-.27 4.97 1.302 5.789 3.586z" fill="#68182b"/><path d="m656.588 819.464c-.409.197-.78-.277-.479-.621 9.082-10.468 20.99-18.882 31.727-27.56 10.818-8.747 21.647-16.984 33.453-24.38.449-.281.955.371.566.735-11.799 11.059-24.097 21.299-36.774 31.337-9.058 7.171-18.034 15.399-28.493 20.489z" fill="#68182b"/></g></g></svg>