<?xml version="1.0" encoding="UTF-8"?>
<!-- Generator: Adobe Illustrator 27.1.1, SVG Export Plug-In . SVG Version: 6.00 Build 0)  -->
<svg xmlns="http://www.w3.org/2000/svg" xmlns:xlink="http://www.w3.org/1999/xlink" version="1.1" id="Capa_1" x="0px" y="0px" viewBox="0 0 512 512" style="enable-background:new 0 0 512 512;" xml:space="preserve" width="512" height="512">
<g>
	<g>
		<path style="fill:#FFCB00;" d="M512,276.52H27.48V138.878c0-13.18,10.684-23.864,23.864-23.864h436.791    c13.18,0,23.864,10.684,23.864,23.864V276.52z"/>
		<g>
			<path d="M424.497,210.109H114.983c-6.657,0-12.053-5.396-12.053-12.053c0-6.657,5.396-12.053,12.053-12.053h309.514     c6.656,0,12.053,5.396,12.053,12.053C436.55,204.713,431.154,210.109,424.497,210.109z"/>
			<g>
				<path d="M424.497,161.416h-4.518l-99.886-10.306l-200.452,10.306h-4.658c-6.657,0-12.053-5.396-12.053-12.053      c0-6.657,5.396-12.053,12.053-12.053h309.514c6.656,0,12.053,5.396,12.053,12.053      C436.55,156.02,431.154,161.416,424.497,161.416z"/>
				<g>
					<path style="fill:#FFA367;" d="M406.177,161.416V93.907h0.243c10.65,0,20.28-4.305,27.247-11.301       c6.996-6.967,11.301-16.597,11.301-27.247c0-21.3-17.249-38.577-38.548-38.577H133.066c-10.65,0-20.28,4.305-27.276,11.301       c-6.967,6.997-11.273,16.626-11.273,27.276c0,21.3,17.249,38.548,38.549,38.548h0.236v67.509H406.177z"/>
					<g>
						<path style="fill:#C5552E;" d="M331.492,78.227H208.458c-13.127,0-23.768,10.641-23.768,23.768l4.107,59.421h162.356        l4.107-59.421C355.259,88.868,344.618,78.227,331.492,78.227z"/>
						<g>
							
								<ellipse transform="matrix(0.7071 -0.7071 0.7071 0.7071 -18.2635 192.9252)" style="fill:#FFA367;" cx="223.75" cy="118.509" rx="17.127" ry="17.127"/>
							
								<ellipse transform="matrix(0.2298 -0.9732 0.9732 0.2298 116.9661 412.0731)" style="fill:#FFA367;" cx="318.821" cy="132.14" rx="13.855" ry="13.855"/>
							<path style="fill:#FFA367;" d="M258.353,161.416c0-7.529,6.103-13.632,13.632-13.632s13.632,6.103,13.632,13.632H258.353z"/>
						</g>
					</g>
					<path style="fill:#C5552E;" d="M419.867,161.416h-27.38V93.906c0-7.56,6.128-13.69,13.69-13.69       c6.89,0,13.123-2.582,17.792-7.271c4.727-4.71,7.31-10.941,7.31-17.587c0-13.723-11.152-24.888-24.858-24.888H133.067       c-6.644,0-12.896,2.59-17.599,7.293c-4.674,4.695-7.262,10.953-7.262,17.595c0,13.707,11.152,24.858,24.861,24.858       c7.561,0,13.925,6.13,13.925,13.69v67.509h-27.38v-55.612c-22.374-5.997-38.786-26.341-38.786-50.445       c0-13.932,5.42-27.048,15.259-36.935c9.901-9.896,23.024-15.333,36.981-15.333H406.42c28.805,0,52.238,23.446,52.238,52.267       c0,13.979-5.444,27.1-15.329,36.947c-6.575,6.604-14.644,11.227-23.462,13.557V161.416z"/>
				</g>
			</g>
		</g>
	</g>
	<g>
		<g>
			<g>
				<path style="fill:#FF862C;" d="M35.435,417.296H7.955c-4.393,0-7.955-3.561-7.955-7.955V354.38c0-4.393,3.562-7.955,7.955-7.955      h27.48V417.296z"/>
				<g>
					<path style="fill:#FFE6B3;" d="M35.989,362.452c0,0.63-0.219,1.205-0.547,1.643c-0.493,0.684-1.287,1.095-2.191,1.095H0.012       v-5.476h33.239c0.904,0,1.698,0.438,2.191,1.095C35.77,361.275,35.989,361.85,35.989,362.452z"/>
					<path style="fill:#FFE6B3;" d="M35.989,381.864c0,0.603-0.219,1.177-0.547,1.643c-0.493,0.657-1.287,1.095-2.191,1.095H0.012       v-5.476h33.239c0.904,0,1.698,0.438,2.191,1.095C35.77,380.687,35.989,381.262,35.989,381.864z"/>
					<path style="fill:#FFE6B3;" d="M35.989,401.249c0,0.63-0.219,1.205-0.547,1.643c-0.493,0.684-1.287,1.095-2.191,1.095H0.012       v-5.476h33.239c0.904,0,1.698,0.438,2.191,1.095C35.77,400.072,35.989,400.647,35.989,401.249z"/>
				</g>
			</g>
			<path style="fill:#FF862C;" d="M69.535,293.021v24.104H12.066C5.41,317.124,0,311.743,0,305.087c0-3.342,1.36-6.345,3.54-8.526     s5.212-3.54,8.526-3.54H69.535z"/>
		</g>
		<g>
			<path d="M157.157,470.813v6.741c0,17.306-14.02,31.355-31.326,31.355s-31.326-14.049-31.326-31.355v-6.741H157.157z"/>
			<path d="M444.976,470.813v6.741c0,17.306-14.02,31.355-31.326,31.355c-17.306,0-31.326-14.049-31.326-31.355v-6.741H444.976z"/>
		</g>
		<g>
			<g>
				<path style="fill:#006E4B;" d="M489.1,470.81H50.38c-12.647,0-22.9-10.253-22.9-22.9V256.512c0-12.647,10.253-22.9,22.9-22.9      H489.1c12.647,0,22.9,10.253,22.9,22.9V447.91C512,460.557,501.747,470.81,489.1,470.81z"/>
				<g>
					
						<ellipse transform="matrix(0.9239 -0.3827 0.3827 0.9239 -93.4098 40.752)" cx="55.732" cy="255.178" rx="12.952" ry="12.951"/>
					
						<ellipse transform="matrix(0.9239 -0.3827 0.3827 0.9239 -87.9797 68.0511)" cx="127.068" cy="255.178" rx="12.952" ry="12.951"/>
					
						<ellipse transform="matrix(0.9239 -0.3827 0.3827 0.9239 -82.5496 95.3501)" cx="198.404" cy="255.178" rx="12.952" ry="12.951"/>
					
						<ellipse transform="matrix(0.9239 -0.3827 0.3827 0.9239 -77.1195 122.6491)" cx="269.74" cy="255.178" rx="12.952" ry="12.951"/>
					<circle cx="55.732" cy="352.211" r="12.951"/>
					<circle cx="127.068" cy="352.211" r="12.951"/>
					<circle cx="91.4" cy="303.694" r="12.951"/>
					<circle cx="198.404" cy="352.211" r="12.951"/>
					<circle cx="162.736" cy="303.694" r="12.951"/>
					<circle cx="269.74" cy="352.211" r="12.951"/>
					<circle cx="234.072" cy="303.694" r="12.951"/>
					
						<ellipse transform="matrix(0.9239 -0.3827 0.3827 0.9239 -71.6894 149.9482)" cx="341.076" cy="255.178" rx="12.952" ry="12.951"/>
					
						<ellipse transform="matrix(0.9239 -0.3827 0.3827 0.9239 -66.2593 177.2472)" cx="412.412" cy="255.178" rx="12.952" ry="12.951"/>
					
						<ellipse transform="matrix(0.2298 -0.9732 0.9732 0.2298 124.2542 667.3572)" cx="483.748" cy="255.178" rx="12.951" ry="12.951"/>
					<circle cx="341.076" cy="352.211" r="12.951"/>
					<circle cx="305.408" cy="303.694" r="12.951"/>
					<circle cx="412.412" cy="352.211" r="12.951"/>
					<circle cx="376.744" cy="303.694" r="12.951"/>
					<circle cx="483.748" cy="352.211" r="12.951"/>
					<circle cx="448.08" cy="303.694" r="12.951"/>
					<circle cx="55.732" cy="449.244" r="12.951"/>
					<circle cx="127.068" cy="449.244" r="12.951"/>
					
						<ellipse transform="matrix(0.7071 -0.7071 0.7071 0.7071 -256.5867 182.0002)" cx="91.4" cy="400.728" rx="12.951" ry="12.951"/>
					<circle cx="198.404" cy="449.244" r="12.951"/>
					
						<ellipse transform="matrix(0.2298 -0.9732 0.9732 0.2298 -264.6607 467.0419)" cx="162.736" cy="400.728" rx="12.951" ry="12.951"/>
					<circle cx="269.74" cy="449.244" r="12.951"/>
					
						<ellipse transform="matrix(0.2298 -0.9732 0.9732 0.2298 -209.7145 536.4695)" cx="234.072" cy="400.728" rx="12.951" ry="12.951"/>
					<circle cx="341.076" cy="449.244" r="12.951"/>
					
						<ellipse transform="matrix(0.2298 -0.9732 0.9732 0.2298 -154.7683 605.897)" cx="305.408" cy="400.728" rx="12.951" ry="12.951"/>
					<circle cx="412.412" cy="449.244" r="12.951"/>
					
						<ellipse transform="matrix(0.2298 -0.9732 0.9732 0.2298 -99.8221 675.3246)" cx="376.744" cy="400.728" rx="12.951" ry="12.951"/>
					<circle cx="483.748" cy="449.244" r="12.951"/>
					
						<ellipse transform="matrix(0.1602 -0.9871 0.9871 0.1602 -19.2479 778.8322)" cx="448.08" cy="400.728" rx="12.951" ry="12.952"/>
				</g>
			</g>
			<g>
				<g>
					<path style="fill:#FFE6B3;" d="M429.102,430.927H110.378c-8.763,0-15.867-7.104-15.867-15.867V289.362       c0-8.763,7.104-15.867,15.867-15.867h318.724c8.763,0,15.867,7.104,15.867,15.867V415.06       C444.969,423.823,437.865,430.927,429.102,430.927z"/>
					<g>
						<polygon style="fill:#FF862C;" points="143.892,273.496 94.5,322.122 94.5,314.428 136.062,273.496       "/>
						<polygon style="fill:#FF862C;" points="196.297,273.496 94.5,373.705 94.5,366.039 188.521,273.496       "/>
						<path style="fill:#FF862C;" d="M248.729,273.496L96.745,423.153c-1.041-1.725-1.753-3.641-2.027-5.695l146.235-143.962        H248.729z"/>
						<polygon style="fill:#FF862C;" points="301.189,273.496 141.237,430.929 133.434,430.929 293.358,273.496       "/>
						<polygon style="fill:#FF862C;" points="353.593,273.496 193.669,430.929 185.865,430.929 345.79,273.496       "/>
						<polygon style="fill:#FF862C;" points="406.026,273.496 246.101,430.929 238.325,430.929 398.25,273.496       "/>
						<path style="fill:#FF862C;" d="M444.768,286.994L298.533,430.929h-7.803l152.012-149.657        C443.782,282.996,444.467,284.913,444.768,286.994z"/>
						<polygon style="fill:#FF862C;" points="444.96,330.719 444.96,338.413 350.965,430.929 343.162,430.929       "/>
						<polygon style="fill:#FF862C;" points="444.96,382.33 444.96,390.024 403.397,430.929 395.594,430.929       "/>
					</g>
				</g>
				<path style="fill:#FFCB00;" d="M345.627,385.321H193.853c-18.286,0-33.11-14.824-33.11-33.11c0-18.286,14.824-33.11,33.11-33.11      h151.773c18.286,0,33.11,14.824,33.11,33.11S363.913,385.321,345.627,385.321z"/>
			</g>
		</g>
		<g>
			<path d="M27.479,416.324c-1.513,0-2.738-1.226-2.738-2.738v-63.451c0-1.512,1.225-2.738,2.738-2.738     c1.513,0,2.738,1.226,2.738,2.738v63.451C30.217,415.098,28.992,416.324,27.479,416.324z"/>
			<path d="M27.479,315.254c-1.513,0-2.738-1.226-2.738-2.738v-14.888c0-1.512,1.225-2.738,2.738-2.738     c1.513,0,2.738,1.226,2.738,2.738v14.888C30.217,314.028,28.992,315.254,27.479,315.254z"/>
		</g>
	</g>
</g>















</svg>
