<svg id="Kitchen" height="512" viewBox="0 0 708.662 708.662" width="512" xmlns="http://www.w3.org/2000/svg"><g><path d="m521.054 318.438c-60.53-5.771-129.727 15.094-180.516 35.23-14.813-84.816-52.25-263.307-170.129-252.526-51.287 4.688-91.529 48.604-87.621 100.781 3.836 51.155 71.574 96.57 111.623 48.918 27.679 73.62 29.309 154.063 54.881 227.49 25.391 72.92 91.498 123.326 168.55 129.127 73.194 5.508 141.53-32.375 180.01-94.02 25.319-40.574 39.831-101.389 16.623-144.09-14.678-26.998-35.651-45.404-93.421-50.91z" fill="#fff"/><g><path d="m564.271 360.247c-24.286-12.472-48.705-13.585-75.299-11.135-32.589 3.016-65.025 9.404-96.53 18.232-15.397 4.322-30.644 9.283-45.425 15.398-4.566 1.883-9.092 3.836-13.545 5.951-13.344 6.318-16.725 5.59-18.547-8.32-.527-4.051-1.114-8.09-1.752-12.119-1.469-9.324-3.179-18.606-5.063-27.85-4.99-24.682-11.115-49.16-18.607-73.204-7.957-25.542-17.422-50.902-30.076-74.521-10.61-19.803-24.085-39.705-43.148-52.259-8.199-5.396-17.22-8.595-26.898-9.86-32.82-3.604-64.438 12.826-74.592 45.263-6.397 20.439-2.742 48.604 17.859 59.78 10.416 5.649 26.25 6.439 36.141-.759 5.508-4.029 7.705-10.215 8.09-16.826.303-5.294-1.621-11.389-.74-16.41.426-2.42 2.35-3.432 5.123-5.376 13.232-9.253 18.77.577 24.297 9.466 2.309 3.695 4.373 7.522 6.297 11.42 10.174 20.541 17.018 42.793 23.336 64.761 7.248 25.208 13.363 50.74 18.951 76.373 4.444 20.439 8.523 40.961 12.279 61.553 1.873 10.254 3.23 20.691 5.498 30.877 7.775 34.938 28.771 70.592 57.178 92.643 28.135 21.846 65.026 34.785 100.581 35.25 39.573.516 79.744-13.717 109.305-40.16 25.27-22.607 45.852-54.607 54.648-87.357 8.856-32.985 3.897-73.733-29.361-90.811z" fill="#68182b"/><path d="m571.197 386.265c-8.646-11.58-24.277-16.836-37.691-20.338-8.261-2.156-17.756-2.064-27.121-1.752-29.075.982-58.109 6.186-86.375 12.816-29.178 6.844-58.92 15.287-85.567 29.268-6.014 3.148-11.309 5.094-18.121 3.008-17.615-5.406-16.41-21.381-18.566-35.484-7.006-45.019-18.183-90.019-34.279-132.66-8.494-22.495-18.729-44.827-32.973-64.306-10.104-13.799-24.945-27.941-41.123-30.058-16.623-1.822-33.276.76-45.84 12.544-14.082 13.222-21.613 38.338-10.104 55.538 4.545 6.804 12.018 9.871 20.5 8.605 5.123-.77 6.764-2.105 6.793-7.249.021-5.982-1.336-11.885-.354-17.857 2.359-14.376 23.426-25.451 36.9-21.686 8.23 2.309 14.275 9.415 19.074 16.077 11.156 15.499 17.999 34.39 24.215 52.278 15.885 45.719 26.393 93.392 35.818 140.79 6.682 33.621 9.536 68.992 26.109 99.576 8.463 15.611 19.113 30.219 32.517 41.963 11.733 10.266 26.554 18.082 40.941 23.902 36.789 14.871 77.68 14.547 114.316-.83 29.754-12.492 52.057-35.211 69.055-62.119 17.655-27.96 34.329-71.958 11.876-102.026zm-44.363 25.845c-18.344 12.26-39.461 20.42-60.752 25.877-19.256 4.939-39.077 7.725-58.899 8.98-9.558.607-19.134.84-28.711.719-8.575-.102-17.646-.295-25.917-2.855-4.818-1.498-10.266-4.16-11.764-9.436-1.447-5.123 1.58-9.91 5.031-13.424 6.308-6.418 14.165-9.576 22.536-12.301 25.351-8.26 51.915-13.424 78.115-18.172 13.697-2.48 27.455-4.688 41.285-6.367 9.566-1.164 19.396-2.41 29.055-1.844 7.512.619 17.625 2.684 19.934 11.188 2.085 7.684-4.142 13.79-9.913 17.635z" fill="#e5e5e5"/><path d="m526.894 399.062c-1.164 2.48-4.059 4.08-6.235 5.498-3.856 2.49-7.815 4.809-11.864 6.965-15.692 8.342-32.619 14.133-49.881 18.223-17.23 4.09-34.814 6.459-52.48 7.553-8.362.506-16.734.738-25.107.697-8.048-.041-16.34-.029-24.195-1.994-3.898-.973-9.872-5.012 1.742-12.057 5.426-3.301 12.289-5.072 18.818-6.986 23.012-6.742 46.65-11.582 70.229-15.883 13.373-2.43 26.809-4.658 40.313-6.287 9.416-1.135 19.084-2.34 28.58-1.783 2.975.243 12.42 1.083 10.08 6.054z" fill="#edb298"/><path d="m439.842 414.905c-23.133 5.123-49.01 11.684-71.463 22.738 4.313.303 8.666.334 12.947.354 8.373.041 16.745-.191 25.107-.697 17.666-1.094 35.25-3.463 52.48-7.553 17.262-4.09 34.188-9.881 49.881-18.223 4.049-2.156 8.008-4.475 11.864-6.965.081-.061.173-.123.263-.172-27.273.182-54.788 4.708-81.079 10.518z" fill="#dd9173"/><path d="m578.617 400.429c1.408 9.07 1.174 18.76-.83 29.135-4.576 23.629-17.008 46.064-31.768 64.844-37.549 47.773-105.033 66.219-162.314 48.846-31.202-9.455-58.475-30.855-74.491-59.244-16.572-29.389-20.277-64.74-26.797-97.287-11.744-58.646-24.428-118.356-48.432-173.379-7.836-17.97-16.37-41.203-38.703-42.823-9-.658-20.398 5.295-25.734 13.637 7.938-6.419 19.307-9.851 27.729-7.502 8.23 2.309 14.275 9.415 19.074 16.077 11.156 15.499 17.999 34.39 24.215 52.278 15.885 45.719 26.393 93.392 35.818 140.79 6.682 33.621 9.536 68.992 26.109 99.576 8.463 15.611 19.113 30.219 32.517 41.963 11.733 10.266 26.554 18.082 40.941 23.902 36.789 14.871 77.68 14.547 114.316-.83 29.754-12.492 52.057-35.211 69.055-62.119 15.053-23.833 29.287-59.286 19.295-87.864z" fill="#c6c6c6"/><path d="m370.261 452.161c45.789 2.945 98.25-3.119 139.575-24.023 8.677-4.395 31.94-17.535 28.884-30.32-.619-2.563-1.723-4.566-3.149-6.156.496.85.901 1.781 1.175 2.814 2.086 7.684-4.141 13.789-9.912 17.635-18.344 12.26-39.461 20.42-60.752 25.877-19.256 4.939-39.077 7.725-58.899 8.98-9.558.607-19.134.84-28.711.719-8.575-.102-17.646-.295-25.917-2.855-4.818-1.498-10.266-4.16-11.764-9.436-1.094-3.877.375-7.563 2.652-10.65-4.738 4.131-7.502 9.436-5.184 15.742 3.857 10.488 23.104 11.095 32.002 11.673z" fill="#c6c6c6"/><path d="m532.777 464.005c-39.848 21.047-84.979 40.758-167.234 32.648-15.833-1.559-11.418 3.221-4.939 9.213 24.529 22.637 65.986 29.471 97.076 25.127 32.922-4.605 70.896-25.885 82.963-58.564 5.113-13.821 2.451-13.891-7.866-8.424z" fill="#f4f4f4"/></g></g></svg>