<svg id="Office_Supplies" height="512" viewBox="0 0 708.662 708.662" width="512" xmlns="http://www.w3.org/2000/svg"><g><path d="m559.684 190.017c3.938-35.514-10.58-73.234-41.771-92.277-30.896-18.86-76.443-22.556-104.213 4.06-4.596 4.403-4.131 5.72-10.832 6.499-5.154.598-10.256 1.6-15.236 3.037-7.896 2.288-15.166 5.842-21.615 10.984-6.275 5.021-18.637-2.177-26.979-3.361-11.309-1.609-22.818-1.295-34.107.294-5.012.709-9.982 1.671-14.912 2.824-2.572-2.672-5.346-5.173-8.301-7.42-6.742-5.112-14.467-8.849-22.729-10.741-18.182-4.182-39.959-2.126-57.006 5.507-11.207 5.012-20.836 13.039-27.639 23.274-4.029 6.064-7.076 12.786-9.07 19.792-1.67 5.892-1.225 29.126-4.93 30.563-29.795 11.551-36.699 48.907-25.807 76.424 3.361 8.494 11.814 14.902 11.795 23.72-.031 10.975.588 21.928 1.568 32.852 1.57 17.524 3.969 34.978 6.227 52.431 5.982 46.336 15.449 91.771 24.045 137.642 6.145 32.74 11.52 72.021 38.439 94.98 26.918 22.961 66.553 23.912 100.104 23.649 35.949-.283 72.284 2.784 108.151.061 35.494-2.703 71.059-12.25 88.197-46.073 13.121-25.876 15.207-55.275 20.045-83.398 6.844-39.736 11.328-79.846 14.852-120.007 1.428-16.248 2.947-32.498 3.99-48.766.729-11.42 1.193-22.859 1.143-34.299-.039-8.504 8.191-11.299 13.182-18.203 17.36-23.964 18.566-65.197-6.591-84.048z" fill="#fff"/><g><path d="m541.036 212.795c-4.223-2.905-9.617-4.809-15.57-6.044 11.277-28.002 5.063-65.055-20.217-82.225-25.633-17.412-69.074-19.366-80.363 13.06-10.902-1.225-21.998-.638-32.254 2.997-11.045 3.928-18.516 14.861-23.436 26.301-3.949-5.071-8.424-9.364-13.283-12.026-23.487-12.878-53.12-7.138-77.083 1.032-7.521-11.936-16.045-23.021-31.393-24.064-19.568-1.315-40.9 1.711-50.77 20.795-8.646 16.704-4.658 37.134 2.418 54.04-6.408.456-12.816.992-19.203 1.711-19.367 2.166-21.615 13.191-20.178 30.614 1.084 13.15 7.775 20.237 16.967 24.135-3.066 31.728 1.965 64.741 5.902 96.166 5.508 43.886 13.01 87.58 22.373 130.798 5.316 24.53 9.365 63.577 25.947 83.794 22.313 27.203 85.506 20.663 116.383 21.129 36.588.546 87.479 5.932 121.516-10.134 27.039-12.767 30.27-65.633 34.652-90.476 7.422-42.064 12.088-84.686 15.723-127.225 2.824-33.095 6.479-67.617 3.301-100.823-.021-.283-.102-.526-.152-.79 1.154-.101 2.309-.142 3.463-.263 17.848-1.782 21.693-14.518 22.99-28.69.943-10.418 1.63-17.373-7.733-23.812z" fill="#68182b"/><path d="m502.677 142.608c12.848 10.397 14.305 35.302 9.486 52.846-2.309 8.383-5.264 9.01-15.469 8.929-6.641-.05-12.695.051-17.252-.161-.434-.021-.869-.03-1.305-.051 4.555-14.265 5.223-30.351-2.127-43.876-6.357-11.724-20.236-15.419-32.314-18.892-.76-.223-1.539-.395-2.309-.607 10.813-21.838 44.959-11.41 61.29 1.812z" fill="#7e71ff"/><path d="m400.833 154.828c10.438-3.706 23.273-1.175 33.701.992 7.816 1.619 15.551 4.221 22.697 7.754 9.557 4.718 9.416 19.843 6.977 30.918-1.408 6.368-6.014 8.939-12.533 8.747-22.264-.688-44.555-.972-66.838-1.013.092-.891.082-1.832-.152-2.845-.992-4.333-2.621-9.202-4.748-14.112 3.148-11.611 8.687-26.109 20.896-30.441z" fill="#00ebed"/><path d="m341.041 166.095c10.994 2.642 19.702 15.297 24.581 27.061 3.543 8.534 1.701 9.07-6.934 9.111-4.709.01-9.426.03-14.133.061-13.201.081-26.402.253-39.605.466-.039-.071-.049-.152-.08-.223-5.264-11.065-11.166-21.867-17.393-32.457 17.564-5.568 35.16-8.443 53.564-4.019z" fill="#ff7a0d"/><path d="m218.19 152.064c12.129-8.727 33.732-6.419 42.277 5.436 8.018 11.116 15.104 23.244 21.553 35.585 4.547 8.677 3.666 10.053-6.57 10.326-16.855.436-33.721 1.022-50.568 1.802-6.57.294-10.143-2.095-12.967-10.144-5.194-14.852-7.26-33.267 6.275-43.005z" fill="#ff2e60"/><path d="m531.975 235.017c-2.865 11.703-10.326 14.629-24.602 15.499-13.363.811-26.746 1.245-40.119 1.65-35.637 1.094-71.291 1.417-106.938 1.528-36.395.112-72.79-.182-109.165-1.053-14.305-.334-28.609-.84-42.904-1.559-13.02-.658-26.291.749-31.15-11.086-2.643-6.459-1.326-12.756 6.307-15.205 16.695-5.355 53.98-3.938 60.531-4.191 35.625-1.356 71.291-1.894 106.936-2.116 36.042-.232 72.102.051 108.122 1.145 7.117.212 49.707-1.65 67.191 3.32 6.539 1.863 7.168 6.469 5.791 12.068z" fill="#e5e5e5"/><path d="m192.303 270.653c7.766 9.962 15.844 19.711 24.318 29.166-7.766 5.608-15.936 10.701-24.469 15.338-.851-15.025-.871-29.907.151-44.504z" fill="#e5e5e5"/><path d="m473.44 301.418c-11.541 12.756-23.518 25.157-35.777 37.296-4.971-4.444-9.9-8.849-14.74-13.07-6.105-5.314-12.199-10.68-18.242-16.116 12.826-12.301 25.217-24.985 37.012-38.126 9.769 10.954 20.337 21.007 31.747 30.016z" fill="#e5e5e5"/><path d="m452.382 268.77c11.441-.294 22.881-.639 34.311-1.073 5.254-.203 10.518-.445 15.783-.719-7.219 9.253-14.689 18.334-22.486 27.182-9.81-7.714-19.013-16.178-27.608-25.39z" fill="#e5e5e5"/><path d="m354.283 430.466c10.741 9.436 21.575 18.77 32.487 28.013-.881.8-1.762 1.609-2.643 2.409-10.527 9.668-21.168 19.215-31.87 28.69-10.215-9.102-20.379-18.263-30.461-27.496-.518-.476-1.055-.951-1.57-1.428 11.462-9.951 22.809-20.013 34.057-30.188z" fill="#e5e5e5"/><path d="m313.1 454.146c-11.805-10.762-23.709-21.604-35.564-32.589 11.521-9.657 22.85-19.519 34.066-29.318 2.045 1.863 4.1 3.726 6.145 5.579 9.699 8.808 19.479 17.554 29.299 26.25-11.198 10.144-22.516 20.176-33.946 30.078z" fill="#e5e5e5"/><path d="m361.573 423.855c8.109-7.381 16.178-14.791 24.195-22.242 2.945-2.733 5.902-5.497 8.857-8.251 10.752 9.364 21.615 18.77 32.629 28.022-11.074 10.256-22.191 20.39-33.225 30.462-10.903-9.242-21.716-18.575-32.456-27.991z" fill="#e5e5e5"/><path d="m394.313 380.293c-4.232-3.695-8.453-7.37-12.676-11.005-7.258-6.267-14.568-12.553-21.877-18.861 12.787-11.207 25.471-22.596 37.883-34.259 7.502 6.742 15.055 13.435 22.637 20.035 3.463 3.017 6.975 6.125 10.529 9.283-12.068 11.785-24.297 23.357-36.496 34.807z" fill="#e5e5e5"/><path d="m378.499 379.371c2.896 2.501 5.813 5.042 8.727 7.573-1.406 1.315-2.814 2.642-4.211 3.958-9.496 8.898-19.082 17.747-28.711 26.544-8.555-7.552-17.078-15.124-25.541-22.747-3.26-2.937-6.551-5.893-9.82-8.849 2.582-2.247 5.162-4.505 7.744-6.732 8.523-7.38 17.109-14.79 25.684-22.241 8.725 7.531 17.462 15.023 26.128 22.494z" fill="#e5e5e5"/><path d="m327.324 365.715c-5.164 4.515-10.357 9.091-15.561 13.677-12.604-11.369-25.248-22.89-37.701-34.674 3.281-2.896 6.52-5.74 9.729-8.514 7.654-6.611 15.268-13.333 22.82-20.116 12.533 11.673 25.35 23.072 38.268 34.289-5.863 5.133-11.724 10.235-17.555 15.338z" fill="#e5e5e5"/><path d="m304.504 385.79c-11.166 9.84-22.453 19.7-33.975 29.288-12.574-11.764-24.984-23.751-37.033-36.021 11.553-8.798 22.668-18.506 33.42-28.013 12.422 11.785 25.026 23.326 37.588 34.746z" fill="#e5e5e5"/><path d="m305.731 460.543c-8.91 7.634-17.91 15.155-26.98 22.586-11.814-11.368-23.375-23.051-34.572-35.058 8.777-6.51 17.383-13.303 25.865-20.268 11.896 11.025 23.841 21.918 35.687 32.74z" fill="#e5e5e5"/><path d="m294.412 511.192c5.152 4.809 10.396 9.709 15.691 14.618-2.105 1.752-4.191 3.544-6.307 5.285-7.371 6.063-14.912 12.462-22.709 18.607-11.469-9.426-22.271-19.6-32.152-30.604 9.881-7.572 19.641-15.327 29.318-23.173 5.357 5.123 10.743 10.216 16.159 15.267z" fill="#e5e5e5"/><path d="m305.213 507.953c-6.51-5.974-12.988-12.027-19.428-18.132 9.102-7.491 18.111-15.095 27.051-22.778.689.638 1.398 1.275 2.086 1.913 9.932 9.121 19.953 18.142 30.037 27.102-9 7.896-18.102 15.671-27.254 23.386-4.189-3.858-8.361-7.705-12.492-11.491z" fill="#e5e5e5"/><path d="m352.248 502.536c8.991 7.917 18.051 15.753 27.192 23.487-8.867 8.119-17.969 16.127-27.313 23.791-9.283-7.653-18.314-15.651-27.152-23.72 9.181-7.735 18.264-15.611 27.273-23.558z" fill="#e5e5e5"/><path d="m359.569 496.088c8.199-7.289 16.369-14.619 24.488-21.989 3.391-3.077 6.824-6.175 10.234-9.263 8.889 7.451 17.818 14.852 26.828 22.141-6.084 5.831-12.199 11.622-18.334 17.342-5.324 4.971-10.74 10.032-16.207 15.104-9.091-7.674-18.091-15.459-27.009-23.335z" fill="#e5e5e5"/><path d="m405.733 514.827c7.764-7.128 15.479-14.366 23.133-21.686 9.697 7.755 19.467 15.408 29.328 22.931-11.057 11.834-22.891 22.899-35.363 33.226-6.316-5.042-12.473-10.194-18.525-15.125-3.463-2.814-6.865-5.71-10.297-8.564 3.939-3.625 7.845-7.229 11.724-10.782z" fill="#e5e5e5"/><path d="m428.177 480.204c-8.93-7.239-17.777-14.579-26.584-21.969 11.105-10.043 22.271-20.167 33.348-30.432 8.27 6.823 16.684 13.444 25.207 19.872-10.378 11.107-21.069 21.939-31.971 32.529z" fill="#e5e5e5"/><path d="m434.382 414.784c-11.033-9.243-21.896-18.647-32.648-28.032 12.209-11.41 24.418-22.961 36.436-34.746 10.479 9.285 21.361 18.7 32.629 27.253-11.835 12.109-24.025 23.933-36.417 35.525z" fill="#e5e5e5"/><path d="m397.43 302.886c-11.682-10.681-23.102-21.645-34.096-33.014 22.402-.05 44.816-.242 67.221-.647-10.619 11.562-21.705 22.769-33.125 33.661z" fill="#e5e5e5"/><path d="m390.364 309.528c-12.502 11.703-25.279 23.122-38.116 34.4-12.969-11.258-25.836-22.708-38.43-34.421 13.172-12.047 25.988-24.479 38.217-37.417 12.27 12.958 25.128 25.38 38.329 37.438z" fill="#e5e5e5"/><path d="m306.631 302.816c-11.389-10.822-22.414-21.979-32.982-33.47 22.342.385 44.705.537 67.059.547-10.985 11.329-22.405 22.263-34.077 32.923z" fill="#e5e5e5"/><path d="m299.463 309.396c-6.074 5.467-12.189 10.873-18.314 16.248-4.586 4.02-9.252 8.211-13.971 12.442-12.451-11.966-24.609-24.226-36.283-36.87 11.309-8.96 21.797-18.952 31.496-29.825 11.793 13.131 24.215 25.766 37.072 38.005z" fill="#e5e5e5"/><path d="m224.235 294.039c-7.664-8.564-14.963-17.393-22.029-26.362 8.209.313 16.471.111 23.629.395 8.584.334 17.17.567 25.754.79-8.515 9.12-17.636 17.523-27.354 25.177z" fill="#e5e5e5"/><path d="m192.862 325.847c10.699-5.518 20.844-11.805 30.441-18.8 11.834 12.826 24.145 25.259 36.748 37.396-10.699 9.526-21.795 19.034-33.297 27.628-11.51-11.996-22.596-24.307-33.053-37.023-.304-3.066-.597-6.133-.839-9.201z" fill="#e5e5e5"/><path d="m195.676 352.483c7.461 8.635 15.225 17.058 23.162 25.36-5.76 3.979-11.652 7.542-17.625 10.802-2.105-11.997-3.988-24.075-5.537-36.162z" fill="#e5e5e5"/><path d="m203.147 399.355c-.041-.202-.07-.415-.111-.617 7.693-3.989 15.205-8.706 22.545-13.91 12.158 12.401 24.682 24.53 37.387 36.415-8.332 6.783-16.785 13.403-25.4 19.711-12.128-13.373-23.681-27.213-34.421-41.599z" fill="#e5e5e5"/><path d="m207.135 420.149c7.27 9 14.811 17.788 22.586 26.373-5 3.522-10.072 6.904-15.195 10.184-2.43-11.945-4.942-24.154-7.391-36.557z" fill="#e5e5e5"/><path d="m216.59 466.941c6.691-4.201 13.273-8.646 19.752-13.262 11.318 12.158 23.012 23.973 34.938 35.523-9.467 7.654-18.992 15.227-28.65 22.606-8.98-10.802-17.078-22.343-23.994-34.744-.688-3.38-1.366-6.761-2.046-10.123z" fill="#e5e5e5"/><path d="m228.871 522.075c-1.59-5.902-3.047-11.854-4.424-17.828 3.311 4.586 6.781 9.041 10.387 13.384-1.984 1.488-3.969 2.967-5.963 4.444z" fill="#e5e5e5"/><path d="m239.571 554.947c-2.965-7.481-5.557-15.146-7.885-22.92 3.168-2.329 6.326-4.688 9.465-7.057 9.85 11.035 20.602 21.29 32.012 30.786-6.592 4.88-13.373 9.455-20.42 13.354-6.094-3.472-10.762-8.058-13.172-14.163z" fill="#e5e5e5"/><path d="m263.807 573.817c5.822-3.645 11.451-7.704 16.947-11.905 7.746 6.084 15.742 11.854 23.902 17.342-14.193-.344-28.863-1.67-40.849-5.437z" fill="#e5e5e5"/><path d="m288.66 555.736c4.404-3.513 8.738-7.056 13.041-10.488 5.244-4.201 10.416-8.493 15.59-12.775 8.787 8.048 17.797 16.005 27.041 23.659-8.949 6.995-18.184 13.494-27.68 19.366-9.595-6.185-18.96-12.756-27.992-19.762z" fill="#e5e5e5"/><path d="m347.278 578.809c-4.951-.041-11.258.162-18.324.324 7.855-5.225 15.51-10.863 22.98-16.806 7.34 5.811 14.862 11.288 22.557 16.421-9.07.111-18.143.131-27.213.061z" fill="#e5e5e5"/><path d="m387.276 575.407c-9.484-5.882-18.646-12.412-27.545-19.418 9.262-7.704 18.262-15.742 27.09-23.801 3.533 2.956 7.047 5.933 10.609 8.858 5.771 4.728 11.652 9.658 17.666 14.508-8.959 7.026-18.252 13.627-27.82 19.853z" fill="#e5e5e5"/><path d="m416.989 577.239c-5.334.345-10.68.607-16.016.841 7.523-5.184 14.791-10.701 21.93-16.381 6.529 5.001 13.271 9.719 20.246 13.85-8.838 1.245-18.191 1.164-26.16 1.69z" fill="#e5e5e5"/><path d="m472.204 555.828c-2.914 8.261-8.482 13.15-15.326 16.116-9.152-4.525-17.859-10.266-26.201-16.552 12.422-10.418 24.197-21.574 35.23-33.449 4.475 3.361 8.971 6.682 13.475 9.992-2.075 8.08-4.424 16.057-7.178 23.893z" fill="#e5e5e5"/><path d="m481.862 521.741c-3.158-2.339-6.336-4.667-9.475-7.036 4.92-5.568 9.697-11.277 14.305-17.14-1.428 8.1-3.008 16.168-4.83 24.176z" fill="#e5e5e5"/><path d="m490.083 476.843c-7.896 11.146-16.379 21.826-25.42 32.011-9.668-7.38-19.256-14.892-28.762-22.495 10.963-10.67 21.686-21.613 32.092-32.841 7.604 5.527 15.348 10.771 23.215 15.783-.375 2.511-.75 5.02-1.125 7.542z" fill="#e5e5e5"/><path d="m492.766 458.741c-6.125-3.988-12.18-8.119-18.143-12.411 8.291-9.192 16.33-18.588 24.033-28.235-1.901 13.727-3.917 27.303-5.89 40.646z" fill="#e5e5e5"/><path d="m501.188 399.021c-10.74 14.396-22.303 28.205-34.43 41.538-8.363-6.267-16.604-12.756-24.723-19.418 12.533-11.764 24.844-23.76 36.77-36.061 7.309 5.144 14.781 9.811 22.404 13.759-.011.061-.021.122-.021.182z" fill="#e5e5e5"/><path d="m502.485 388.433c-5.73-3.148-11.369-6.57-16.887-10.367 6.936-7.34 13.666-14.821 20.217-22.414-.9 10.933-2.045 21.877-3.33 32.781z" fill="#e5e5e5"/><path d="m506.989 339.18c-9.344 11.328-19.174 22.333-29.398 33.054-11.258-8.413-22.109-17.697-32.619-27.021 12.402-12.33 24.5-24.944 36.172-37.903 8.414 6.105 17.281 11.633 26.555 16.613-.173 5.073-.405 10.164-.71 15.257z" fill="#e5e5e5"/><path d="m487.723 300.011c6.662-7.603 13.102-15.368 19.367-23.254.811 11.946 1.053 24.054.881 36.232-7.015-3.988-13.767-8.311-20.248-12.978z" fill="#e5e5e5"/><path d="m512.163 195.454c.729-2.662 1.295-5.507 1.721-8.423-2.945 6.146-7.725 10.174-17.361 7.775-14.123-3.523-10.498-20.956-15.004-30.989-6.682-14.892-19.762-23.618-35.342-21.694 11.449 3.3 23.902 7.238 29.834 18.172 7.35 13.525 6.682 29.611 2.127 43.876.436.021.871.03 1.305.051 4.557.212 10.611.111 17.252.161 10.204.08 13.159-.547 15.468-8.929z" fill="#5e5af2"/><path d="m513.813 164.981c-1.508-9.172-5.021-17.423-11.137-22.373-15.195-12.3-45.799-22.161-58.688-5.861 16.279-7.836 35.494-1.853 51.561 5.78 9.194 4.373 14.823 12.867 18.264 22.454z" fill="#a8a6ff"/><path d="m465.471 185.826c-3.076 6.085-7.674 10.539-16.268 11.065-9.305.577-18.668-.202-27.932-1.093-12.148-1.185-29.551-1.924-30.24-18.365-.283-6.874 2.35-14.345 5.963-20.743-9.557 5.73-14.264 18.273-17.059 28.579 2.127 4.91 3.756 9.779 4.748 14.112.234 1.013.244 1.954.152 2.845 22.283.041 44.574.324 66.838 1.013 6.52.192 11.125-2.379 12.533-8.747.597-2.713 1.054-5.68 1.265-8.666z" fill="#19bfbb"/><path d="m438.999 163.22c-2.42-.598-8.281-2.086-13.809-2.552-8.93-.759-13.303 2.754-14.477 8.615-1.074 5.305 1.924 10.883 8.918 12.938 8.586 2.521 34.766 6.863 37.955-4.718 2.612-9.474-10.509-12.298-18.587-14.283z" fill="#6cfffb"/><g fill="#c6c6c6"><path d="m531.499 236.496c-9.607 9.03-26.787 9.283-41.051 10.336-19.621 1.458-39.352 1.509-59.021 1.741-38.572.456-77.143.598-115.715.354-26.797-.172-53.594-.526-80.381-1.145-16.523-.385-45.891 2.714-59.043-10.245.203.811.477 1.641.811 2.46 4.859 11.835 18.131 10.428 31.15 11.086 14.295.719 28.6 1.225 42.904 1.559 36.375.871 72.77 1.165 109.165 1.053 35.646-.111 71.301-.435 106.938-1.528 13.373-.405 26.756-.84 40.119-1.65 13.616-.831 20.975-3.625 24.124-14.021z"/><path d="m392.116 297.895c1.781 1.65 3.523 3.352 5.314 4.991 1.52-1.447 2.977-2.945 4.484-4.403 9.82-9.517 19.428-19.235 28.641-29.258-3.887.071-7.775.102-11.672.152-5.387 5.942-10.844 11.824-16.371 17.646-5.334 5.618-6.691 5.952-12.26.84-6.449-5.912-12.816-11.896-19.021-18.03-2.633.01-5.266.04-7.896.04 9.302 9.618 18.961 18.901 28.781 28.022z"/><path d="m305.375 364.358c-8.717-8.038-17.371-16.148-25.916-24.359-1.793 1.569-3.574 3.118-5.396 4.718 12.453 11.785 25.098 23.305 37.701 34.674 5.203-4.586 10.396-9.162 15.561-13.677 5.83-5.103 11.691-10.205 17.555-15.338-1.449-1.255-2.877-2.541-4.324-3.796-6.631 5.963-13.363 11.855-20.125 17.707-6.136 5.295-7.817 6.763-15.056.071z"/><path d="m339.381 491.025c-5.102 4.444-10.234 8.849-15.377 13.232-6.682 5.689-6.521 5.993-12.857.323-6.916-6.195-13.729-12.502-20.439-18.91-1.65 1.376-3.271 2.783-4.922 4.15 6.439 6.104 12.918 12.158 19.428 18.132 2.299 2.105 4.627 4.262 6.955 6.397 1.844 1.701 3.676 3.382 5.537 5.093 1.762-1.488 3.494-3.018 5.256-4.516 7.369-6.246 14.729-12.503 21.998-18.87-1.874-1.659-3.716-3.36-5.579-5.031z"/><path d="m426.03 341.276c-8.281 8.189-16.684 16.249-25.146 24.236-5.65 5.346-7.4 4.891-13.373-.283-7.482-6.499-14.943-13.03-22.354-19.6-1.803 1.59-3.584 3.21-5.396 4.799 7.309 6.308 14.619 12.594 21.877 18.861 2.643 2.278 5.295 4.586 7.938 6.895 1.58 1.366 3.158 2.733 4.738 4.11 1.689-1.579 3.371-3.189 5.051-4.769 10.52-9.901 21.037-19.883 31.445-30.038-1.61-1.438-3.18-2.804-4.78-4.211z"/><path d="m460.147 447.676c-1.883-1.427-3.746-2.895-5.619-4.333-6.418 6.763-12.918 13.435-19.498 20.035-5.699 5.689-7.814 6.135-13.85 1.245-4.697-3.796-9.373-7.603-14.051-11.45-1.842 1.681-3.686 3.392-5.537 5.063 8.807 7.39 17.654 14.729 26.584 21.969 10.903-10.591 21.594-21.423 31.971-32.529z"/><path d="m308.078 560.313c-4.232-3.301-8.412-6.672-12.533-10.113-2.287 1.853-4.555 3.685-6.885 5.537 6.217 4.829 12.645 9.375 19.154 13.809 2.938 1.995 5.852 4.029 8.838 5.953 2.066-1.275 4.07-2.693 6.115-4.029 7.34-4.799 14.559-9.86 21.564-15.337-2.531-2.096-5.012-4.263-7.502-6.398-5.215 3.826-10.51 7.521-15.875 11.126-6.124 4.118-7.317 3.785-12.876-.548z"/><path d="m494.993 397.999c-7.035 8.494-14.314 16.765-21.705 24.935-5.447 6.004-6.813 6.834-12.705 2.379-4.262-3.219-8.504-6.469-12.695-9.769-1.965 1.853-3.877 3.745-5.852 5.598 6.287 5.163 12.676 10.185 19.113 15.115 1.873 1.438 3.727 2.896 5.609 4.303 1.893-2.086 3.746-4.202 5.617-6.308 10.074-11.379 19.752-23.082 28.813-35.23 0-.061.01-.121.021-.182-1.59-.82-3.139-1.803-4.719-2.684-.505.618-.991 1.236-1.497 1.843z"/><path d="m443.231 556.466c-2.43-1.914-4.83-3.878-7.25-5.801-1.791 1.559-3.492 3.209-5.305 4.728 6.592 4.971 13.424 9.566 20.512 13.525 1.883 1.063 3.775 2.075 5.689 3.026 6.844-2.966 12.412-7.855 15.326-16.116 2.369-6.723 4.385-13.566 6.236-20.471-7.43 7.765-15.135 15.206-22.959 22.293-3.917 3.574-6.823 3.108-12.249-1.184z"/><path d="m465.038 374.755c-7.725 7.796-15.57 15.47-23.479 23.072-5.912 5.699-8.473 5.882-14.617.84-6.742-5.527-13.436-11.105-20.086-16.755-1.711 1.61-3.412 3.24-5.123 4.84 10.752 9.385 21.615 18.789 32.648 28.032 1.914-1.792 3.777-3.624 5.68-5.416 10.428-9.871 20.725-19.863 30.736-30.108-1.933-1.468-3.847-2.987-5.759-4.505z"/><path d="m470.028 285.889c3.25 2.854 6.57 5.608 9.961 8.271 7.797-8.848 15.268-17.929 22.486-27.182-2.664.131-5.336.242-8.008.364-2.775 3.452-5.609 6.863-8.475 10.235-3.594 4.201-7.471 3.685-11.682.242-3.768-3.088-7.514-6.205-11.188-9.385-3.584.102-7.158.243-10.742.335 5.621 6.024 11.504 11.734 17.648 17.12z"/><path d="m455.046 491.765c-1.338-1.022-2.652-2.055-3.969-3.088-3.25-2.571-6.469-5.193-9.709-7.774-1.832 1.812-3.625 3.665-5.467 5.456 9.506 7.604 19.094 15.115 28.762 22.495 9.041-10.185 17.523-20.865 25.42-32.011.375-2.521.75-5.031 1.125-7.542-1.428-.911-2.826-1.863-4.232-2.784-5.254 7.978-11.004 15.682-17.09 23.112-4.848 5.933-7.299 7.947-14.84 2.136z"/><path d="m458.194 516.072c-2.33-1.782-4.617-3.625-6.936-5.427-7.553 7.856-15.389 15.368-23.336 22.535-5.557 5.012-6.428 5.832-12.633.811-5.387-4.354-10.771-8.717-16.127-13.121-1.723 1.58-3.422 3.148-5.154 4.738 3.432 2.854 6.834 5.75 10.297 8.564 6.053 4.931 12.209 10.083 18.525 15.125 12.473-10.325 24.307-21.391 35.364-33.225z"/><path d="m368.446 578.758c2.016-.01 4.029.01 6.045-.01-.982-.658-1.943-1.377-2.936-2.045-1.023.689-2.066 1.377-3.109 2.055z"/><path d="m223.94 439.962c-3.744 2.571-7.49 5.143-11.268 7.653.619 3.037 1.246 6.095 1.854 9.091 5.123-3.279 10.195-6.661 15.195-10.184-1.953-2.157-3.857-4.374-5.781-6.56z"/><path d="m273.162 555.757c-2.045-1.701-4.051-3.462-6.055-5.214-1.539 1.175-3.088 2.339-4.646 3.482-3.857 2.855-6.094 2.724-10.387-1.225-6.863-6.327-13.617-12.897-20.086-19.822 2.258 7.44 4.738 14.791 7.582 21.969 1.965 4.96 5.457 8.878 9.963 12.057 1.012.739 2.064 1.458 3.209 2.106 3.514-1.944 6.955-4.06 10.346-6.287 3.412-2.247 6.764-4.616 10.074-7.066z"/><path d="m213.371 372.001c-4.404 3.159-8.879 6.187-13.395 9.183.355 2.136.699 4.272 1.055 6.408v-.01c.061.354.121.708.182 1.063 5.973-3.26 11.865-6.823 17.625-10.802-1.842-1.934-3.644-3.898-5.467-5.842z"/><path d="m211.133 293.451c-6.256 4.364-12.744 8.393-19.387 12.169.102 3.169.223 6.348.406 9.537 8.533-4.637 16.703-9.729 24.469-15.338-1.873-2.096-3.654-4.242-5.488-6.368z"/><path d="m229.498 510.747c-.982.658-1.953 1.347-2.945 1.994.77 3.108 1.488 6.246 2.318 9.334 1.994-1.478 3.979-2.956 5.963-4.444-1.853-2.237-3.564-4.586-5.336-6.884z"/><path d="m292.67 578.667c3.988.283 8.008.485 11.986.587-2.014-1.356-3.988-2.784-5.982-4.181-2.004 1.204-3.978 2.43-6.004 3.594z"/><path d="m433.341 576.449c3.279-.192 6.58-.445 9.809-.9-1.639-.972-3.229-2.065-4.838-3.098-1.641 1.346-3.311 2.672-4.971 3.998z"/><path d="m381.637 561.497c-5.184-3.614-10.316-7.31-15.357-11.126-2.186 1.873-4.332 3.776-6.549 5.618 8.898 7.006 18.061 13.536 27.545 19.418 9.568-6.227 18.861-12.827 27.82-19.853-2.328-1.873-4.605-3.756-6.895-5.64-4.555 3.676-9.213 7.229-13.92 10.711-6.478 4.79-7.329 4.557-12.644.872z"/><path d="m373.266 520.688c-4.84 4.12-9.73 8.14-14.67 12.098-5.821 4.667-7.137 6.054-13.657.729-4.871-3.968-9.709-8.008-14.527-12.118-1.822 1.55-3.605 3.159-5.438 4.698 6.5 5.933 13.15 11.783 19.893 17.534 2.42 2.065 4.809 4.16 7.26 6.186 9.344-7.664 18.446-15.672 27.313-23.791-2.074-1.762-4.109-3.574-6.174-5.336z"/><path d="m260.051 344.444c-1.689-1.64-3.34-3.32-5.021-4.971-7.5 6.297-15.164 12.412-22.93 18.385-5.123 3.948-5.537 4.657-10.174-.304-9.75-10.427-19.033-21.24-28.053-32.285-.344.183-.668.395-1.012.577.242 3.067.535 6.135.84 9.202 10.457 12.716 21.543 25.027 33.053 37.023 11.502-8.593 22.598-18.101 33.297-27.627z"/><path d="m470.26 356.624c-6.975-5.255-13.85-10.651-20.561-16.229-1.59 1.6-3.129 3.229-4.729 4.818 10.51 9.324 21.361 18.608 32.619 27.021 1.883-1.984 3.695-4.029 5.559-6.023 8.209-8.828 16.227-17.798 23.84-27.031.193-3.189.314-6.368.445-9.557-5.932 6.813-22.262 24.378-24.326 26.504-4.88 5.012-7.653 4.425-12.847.497z"/><path d="m384.128 460.888c.881-.8 1.762-1.609 2.643-2.409-1.832-1.549-3.613-3.139-5.436-4.688-7.432 6.661-14.873 13.313-22.344 19.934-5.842 5.163-7.907 6.529-15.479-.071-6.074-5.295-12.119-10.619-18.102-15.985-.305-.273-.598-.547-.891-.819-1.447 1.265-2.846 2.551-4.293 3.806.516.477 1.053.952 1.57 1.428 10.082 9.233 20.246 18.395 30.461 27.496 10.703-9.477 21.343-19.024 31.871-28.692z"/><path d="m386.579 519.423c5.467-5.072 10.883-10.134 16.207-15.104 6.135-5.72 12.25-11.511 18.334-17.342-1.861-1.509-3.695-3.067-5.557-4.586-7.006 6.661-14.043 13.303-21.209 19.802-7.412 6.712-8.688 7.451-14.963 2.196-5.012-4.19-10.004-8.402-14.975-12.654-1.619 1.448-3.229 2.916-4.848 4.354 6.975 6.165 14.051 12.219 21.127 18.253 1.976 1.679 3.909 3.41 5.884 5.081z"/><path d="m231.797 434.455c1.912 2.176 3.826 4.353 5.77 6.499 8.615-6.308 17.068-12.928 25.4-19.711-1.912-1.792-3.785-3.624-5.689-5.427-4.262 3.229-8.555 6.378-12.877 9.507-5.75 4.16-7.725 4.343-13.061-1.681-4.98-5.639-9.92-11.309-14.77-17.049-2.957-3.492-5.871-7.025-8.777-10.568-1.59.891-3.158 1.883-4.758 2.713.041.202.07.415.111.617 9.01 12.079 18.637 23.75 28.651 35.1z"/><path d="m310.104 525.811c-1.863-1.73-3.676-3.432-5.527-5.152-5.053 4.191-10.164 8.301-15.287 12.392-5.893 4.707-7.492 5.224-13.637-.446-6.652-6.145-13.191-12.522-19.479-19.234-2.42 1.893-4.799 3.856-7.238 5.729 8.1 9.021 16.846 17.453 26.039 25.4 2.023 1.752 4.049 3.503 6.113 5.204 7.797-6.146 15.338-12.544 22.709-18.607 2.115-1.743 4.201-3.534 6.307-5.286z"/><path d="m271.28 489.203c-1.844-1.781-3.645-3.624-5.477-5.426-.963.77-1.904 1.569-2.865 2.328-3.787 2.997-7.604 5.943-11.451 8.849-5.547 4.201-7.268 4.971-11.764-.607-7.471-9.283-14.406-18.982-20.52-29.105-.871.557-1.732 1.144-2.613 1.7.68 3.361 1.357 6.742 2.045 10.124 6.916 12.401 15.014 23.942 23.994 34.744 9.658-7.38 19.184-14.953 28.651-22.607z"/><path d="m236.403 296.65c-1.822 1.529-3.635 3.078-5.508 4.566 11.674 12.645 23.832 24.904 36.283 36.87 1.834-1.64 3.615-3.209 5.428-4.829 2.854-2.562 5.74-5.152 8.543-7.613 6.125-5.375 12.24-10.781 18.314-16.248-1.701-1.62-3.33-3.311-5.012-4.95-3.633 3.371-7.268 6.722-10.902 10.063-3.473 3.189-7.006 6.308-10.549 9.405-4.85 4.241-5.152 4.637-9.506.324-9.152-9.062-18.203-18.243-27.091-27.588z"/><path d="m229.549 289.513c7.703-6.438 15.125-13.242 22.039-20.652-3.148-.081-6.297-.203-9.445-.294-4.02 3.624-8.129 7.107-12.311 10.509-4.818 3.918-5.598 4.525-9.566.162-3.422-3.767-6.824-7.543-10.113-11.39-2.633-.03-5.285-.07-7.947-.172 7.066 8.97 14.365 17.798 22.029 26.362 1.832-1.437 3.523-3.037 5.314-4.525z"/><path d="m366.665 419.178c-1.701 1.549-3.381 3.118-5.092 4.678 10.74 9.415 21.553 18.749 32.457 27.991 11.033-10.072 22.15-20.206 33.225-30.462-1.852-1.559-3.645-3.158-5.496-4.718-6.418 6.023-12.898 11.986-19.408 17.939-7.156 6.55-8.645 7.4-16.086 1.185-6.571-5.508-13.11-11.035-19.6-16.613z"/><path d="m306.631 302.816c11.672-10.66 23.092-21.594 34.076-32.923-3.574 0-7.146-.03-10.721-.04-5.982 6.216-12.129 12.3-18.355 18.293-4.211 4.05-5.445 3.999-9.707 0-6.592-6.186-13.152-12.401-19.641-18.698-2.885-.04-5.76-.051-8.635-.102 10.569 11.491 21.594 22.648 32.983 33.47z"/><path d="m319.256 304.375c-1.822 1.701-3.596 3.452-5.438 5.133 12.594 11.713 25.461 23.163 38.43 34.421 12.836-11.278 25.614-22.697 38.116-34.4-1.711-1.56-3.361-3.189-5.061-4.769-3.393 3.361-6.783 6.712-10.266 10.002-4.77 4.505-9.588 8.98-14.438 13.435-6.924 6.388-6.956 7.208-14.051.86-.709-.628-1.418-1.266-2.127-1.894-8.442-7.542-16.835-15.145-25.165-22.788z"/><path d="m324.004 381.447c-1.691 1.468-3.373 2.936-5.063 4.403 3.27 2.956 6.561 5.912 9.82 8.849 6.822 6.145 13.707 12.239 20.58 18.334 1.66 1.468 3.301 2.945 4.961 4.413 1.67-1.528 3.321-3.087 5.002-4.616 7.938-7.289 15.863-14.578 23.709-21.928 1.396-1.316 2.805-2.643 4.211-3.958-1.588-1.377-3.178-2.754-4.768-4.131-3.32 3.078-17.645 16.289-21.523 19.771-4.828 4.354-7.217 5.335-12.311.881-5.141-4.514-21.52-19.214-24.618-22.018z"/><path d="m282.08 417.689c-1.518 1.286-3.016 2.592-4.545 3.867 11.855 10.984 23.76 21.827 35.564 32.589 11.43-9.901 22.748-19.934 33.945-30.078-1.682-1.498-3.352-3.017-5.031-4.515-7.25 6.429-14.568 12.766-21.928 19.073-6.723 5.76-8.201 6.65-14.559.84-7.875-7.207-15.7-14.445-23.446-21.776z"/><path d="m487.723 300.011c6.48 4.667 13.232 8.99 20.248 12.979.041-3.026-.02-6.033-.029-9.051-4.881-3.472-9.689-7.056-14.447-10.69-1.924 2.257-3.817 4.535-5.772 6.762z"/><path d="m238.701 374.968c-1.732 1.366-3.453 2.754-5.205 4.09 12.049 12.27 24.459 24.257 37.033 36.021 1.559-1.286 3.078-2.622 4.617-3.918 9.91-8.362 19.701-16.856 29.357-25.37-1.477-1.347-2.955-2.713-4.434-4.06-7.016 5.861-14.111 11.632-21.26 17.321-6.955 5.538-9.688 6.257-15.338.739-8.35-8.17-16.611-16.44-24.77-24.823z"/><path d="m400.973 578.08c1.773-.081 3.545-.192 5.326-.284-.891-.547-1.803-1.073-2.693-1.619-.881.627-1.74 1.285-2.633 1.903z"/><path d="m328.953 579.133c1.631-.041 3.199-.081 4.738-.111-.779-.517-1.529-1.073-2.299-1.59-.819.556-1.609 1.154-2.439 1.701z"/><path d="m409.225 305.023c-1.529 1.487-3.008 3.026-4.545 4.505 6.043 5.437 12.137 10.802 18.242 16.116 3.24 2.825 6.57 5.802 9.871 8.758 1.639 1.447 3.229 2.845 4.869 4.313 12.26-12.139 24.236-24.54 35.777-37.296-1.732-1.366-3.412-2.805-5.104-4.222-7.277 7.957-14.689 15.804-22.211 23.568-6.287 6.479-9.141 8.817-13.363 5.062-7.733-6.884-15.639-13.809-23.536-20.804z"/><path d="m472.387 514.705c3.139 2.369 6.316 4.697 9.475 7.036.648-2.845 1.236-5.72 1.822-8.585-2.084-1.498-4.17-2.986-6.246-4.505-1.701 2.004-3.31 4.09-5.051 6.054z"/><path d="m480.192 439.982c-1.854 2.115-3.676 4.252-5.568 6.348 5.963 4.292 12.018 8.423 18.143 12.411.09-.638.191-1.285.283-1.913.344-2.328.688-4.678 1.033-7.006-4.658-3.229-9.295-6.509-13.891-9.84z"/><path d="m263.807 573.817c5.145 1.609 10.844 2.713 16.725 3.543-3.32-2.662-6.621-5.365-9.881-8.108-2.258 1.559-4.526 3.118-6.844 4.565z"/><path d="m244.178 448.071c11.197 12.007 22.758 23.689 34.572 35.058 9.07-7.431 18.07-14.952 26.98-22.586-1.813-1.649-3.645-3.351-5.467-5.011-4.678 3.928-9.396 7.815-14.123 11.673-6.592 5.396-7.533 6.61-13.789.323-7.703-7.744-15.307-15.601-22.727-23.618-1.821 1.387-3.614 2.805-5.446 4.161z"/><path d="m485.598 378.065c5.518 3.797 11.156 7.219 16.887 10.367.324-2.784.617-5.589.92-8.383-4.078-2.643-8.068-5.427-12.086-8.18-1.904 2.067-3.787 4.152-5.721 6.196z"/></g><path d="m358.688 202.267c3.037-.021 5.182-.111 6.6-.577-8.463-4.15-18.942-5.123-28.61-5.568-9.029-.404-19.934 1.114-27.525-5.203-4.293-3.563-6.844-10.033-11.096-14.031-2.826-2.673-6.135-4.455-9.537-4.921 5.832 9.992 11.389 20.177 16.35 30.604.031.07.041.151.08.223 13.203-.213 26.404-.385 39.605-.466 4.707-.031 9.424-.051 14.133-.061z" fill="#ef6200"/><path d="m341.041 166.095c-16.318-3.928-32-2.096-47.592 2.247 14.215.132 28.205-1.326 42.408 1.64 10.033 2.096 17.666 7.279 24.764 13.333-4.97-8.21-11.673-15.316-19.58-17.22z" fill="#ffb85a"/><path d="m278.932 187.355c-.395 1.073-.83 2.136-1.336 3.188-5.396 11.187-24.205 8.747-34.471 8.241-28.205-1.387-32.285-26.23-24.135-47.228-.264.172-.547.324-.801.507-13.535 9.738-11.469 28.153-6.275 43.005 2.824 8.049 6.396 10.438 12.967 10.144 16.848-.779 33.713-1.366 50.568-1.802 10.236-.273 11.117-1.649 6.57-10.326-1.001-1.922-2.054-3.826-3.087-5.729z" fill="#ea0f4d"/><path d="m242.385 157.166c-7.541-2.511-12.775 3.726-13.676 10.448-.84 6.307 1.762 16.37 8.797 17.686 3.625.679 7.705-1.721 10.975-2.936 1.74-.647 4.516-1.883 7.258-2.632 4.395-1.205 7.775-2.511 2.814-9.385-4.18-5.791-9.172-10.863-16.168-13.181z" fill="#f69"/></g></g></svg>