<svg id="Hip_Hop_Style" height="512" viewBox="0 0 1200 1200" width="512" xmlns="http://www.w3.org/2000/svg"><g><path d="m152.24 797.561c34.994 34.551 81.332 64.832 126.455 96.844-32.354 155.355 130.08 182.07 233.215 198.472 98.527 15.547 286.387 13.411 344.756-49.738 28.398-29.019 27.029-69.443 23.686-96.868 11.221-15.381 15.408-33.127 18.911-47.971 1.126-4.801 2.188-9.251 3.399-13.424-3.514 25.195-7.382 53.326 1.703 81.25-9.154 20.998-20.355 40.957-20.338 67.368 4.92 49.113 58.646 70.019 99.801 70.569 64.631-.978 68.631-47.091 83.367-96.52 22.811-23.859 29.017-55.487 33.507-82.316 54.359-258.349 30.437-419.095-161.577-619.23-32.246-34.958-65.193-65.144-116.436-76.625.506-10.807.082-21.364-1.271-31.571-2.412-30.876-17.784-51.386-51.246-66.873-72.802-39.568-169.463-43.409-252.882-22.377-38.072 5.698-60.65 34.152-71.41 76.207-48.695.29-84.109 17.672-100.691 49.207-42.338 34.888-83.383 78.344-125.514 132.917-57.381 76.62-135.373 190.338-145.701 294.748-1.567 59.954 42.699 102.083 78.266 135.931z" fill="#fff"/><g><path d="m1086.515 592.767c-31.145-101.235-91.104-193.464-165.863-268.322-8.826-8.839-33.922-35.956-50.971-47.194-22.363-14.745-50.164-22.62-75.445-27.67.119-.688.254-1.381.364-2.064 2.429-15.286 2.974-30.919.936-46.282-1.378-10.391-3.675-23.446-11.882-30.865-7.344-6.638-17.016-11.699-25.687-16.363-69.859-36.943-153.809-38.969-229.553-21.189-8.692 2.069-18.968 3.558-26.819 8.015-18.766 12.716-27.682 36.532-32.174 57.917-.797 4.268-1.374 8.729-1.658 13.238-37.408-3.989-85.817 1.289-101.535 38.511-47.361 38.245-88.546 83.974-125.672 132.06-56.783 75.645-130.105 184.759-140.482 279.756-1.336 51.128 41.672 89.059 75.777 121.689 37.979 33.106 77.118 64.563 121.717 88.748 2.051 5.687 4.773 11.02 8.137 15.942-3.193 25.055-6.025 51.069-1.156 76.097 18.896 71.318 148.289 92.729 211.271 102.273 88.755 11.07 252.222 19.769 322.184-42.178 22.344-22.835 19.114-57.471 14.878-86.856 16.79-15.386 18.616-39.446 24.636-60.179 5.928-24.387 10.942-48.992 15.386-73.687 9.971-55.735 17.376-111.964 22.246-168.385 1.324-15.36 2.343-30.341 15.015-6.13 22.36 42.723 15.003 86.587 11.619 136.092-2.729 32.727-6.434 65.363-10.25 97.98-2.847 33.815-13.955 70.253.899 102.634-7.956 21.729-22.442 43.343-22.298 66.981 5.693 30.449 42.153 42.805 69.551 44.521 25.635 1.212 45.141-8.502 49.678-35.649 4.871-15.959 10.58-31.59 14.145-47.926 1.617-2.249 4.367-3.961 6.195-6.324 19.053-21.234 22.016-49.982 27.008-76.897 17.903-104.16 38.303-214.223 9.803-318.294zm-776.826 47.436c-6.482-3.998-13.166-7.614-20.051-10.697 4.885-13.948 12.121-27.061 19.811-39.628 4.631-7.571 9.527-14.987 14.641-22.248-4.987 24.151-9.901 48.323-14.401 72.573z" fill="#68182b"/><path d="m328.639 986.686c-9.89-10.367-13.784-23.314-14.915-36.883-1.327-15.914 4.441-11.734 11.785-5.838 29.053 23.328 64.709 38.205 100.68 46.752-.205 15.75.5 31.521 2.09 47.143-35.698-10.934-73.346-23.684-99.64-51.174z" fill="#fac135"/><path d="m330.351 913.665c18.969 14.396 40.986 24.518 63.176 32.855 11.304 4.248 22.789 8.032 34.404 11.437-.794 8.534-1.313 17.11-1.574 25.706-36.232-9.201-73.469-24.161-101.697-49.42-6.664-5.962-9.34-11.441-9.615-20.468-.46-14.607 5.017-7.911 15.306-.11z" fill="#ffa0b9"/><path d="m440.136 1041.098c-2.906-26.478-3.23-53.43-.967-79.982 22.404 6.233 46.094 10.504 68.661 14.518-2.731 26.229-1.563 52.854 1.794 78.991-23.172-3.337-46.47-7.673-69.488-13.527z" fill="#00ebed"/><path d="m623.933 1024.785c-.368 12.8-.85 25.849-3.359 38.459-33.12-.279-66.259-2.618-99.053-6.96-3.885-26.113-4.752-52.85-2.313-79.14 17.992 2.532 36.033 4.476 53.986 5.959 17.016 1.28 34.021 2.372 51.137 2.827-.099 12.953-.025 25.905-.398 38.855z" fill="#7761d3"/><path d="m627.691 245.692c-3.164-6.2-7.081-11.9-11.521-16.593-15.766-16.663-37.205-25.136-56.736-36.372-9.672-5.563-12.08-7.884 1.844-10.319 44.838-7.834 91.813-4.533 135.248 8.628 7.65 2.316 15.178 4.974 22.578 7.956 11.887 4.781 3.844 8.116-2.098 10.641-6.566 2.789-13.348 5.244-20.35 7.389-23.94 7.342-50.26 11.238-68.965 28.67z" fill="#a2603f"/><path d="m633.392 289.883c3.028-9.56-.252-10.076 13.781-10.533 1.363-.047 2.723-.107 4.084-.191 41.85-3.463 84.17-12.853 122.21-31.184 8.723-4.201 9.944-1.93 8.251 5.653-.58 2.582-1.242 5.145-2.002 7.681-3.08 10.286-7.934 22.107-17.563 27.908-35.414 20.729-78.905 29.015-119.496 24.524-2.662-.625-5.191-1.516-7.537-2.689-10.022-5.023-7.409-9.244-4.773-14.034 1.259-2.287 2.266-4.675 3.045-7.135z" fill="#fac135"/><path d="m666.357 326.172c-.385 36.828-3.989 73.542-9.701 109.914-12.711 80.062-33.981 158.412-50.032 237.813-18.189 87.972-29.642 177.584-29.557 267.492.014 18.704 4.329 31.04-14.319 29.307-4.426-.41-8.854-.857-13.276-1.336-12.491-1.352-15.073-2.415-15.229-25.086-.619-89.301 9.642-177.986 26.842-265.664 23.225-119.733 60.064-237.948 63.338-360.688 11.637 8.113 27.09 8.684 41.934 8.248z" fill="#fac135"/><path d="m842.945 991.291c-1.232 7.407-3.695 14.329-8.489 20.278-44.667 48.262-140.187 49.902-202.227 51.697 2.66-14.158 3.468-28.702 3.632-43.277 62.25 4.677 126.752-4.312 184.098-29.451 4.709-2.172 9.373-4.529 13.891-7.14 5.924-3.429 12.378-11.864 9.095 7.893z" fill="#fac135"/><path d="m831.075 977.227c-15.428 9.308-33.28 15.424-49.988 20.418-31.273 9.344-63.857 14.704-96.439 16.335-16.24.812-32.531.562-48.727-.906.006-9.026-.1-18.017-.065-26.907 40.433.566 80.983-1.854 120.632-8.953 30.037-5.566 60.57-13.354 86.174-30.754.354 2.531.645 5.068.872 7.611 1.205 13.438 1.731 14.596-12.459 23.156z" fill="#ffa0b9"/><path d="m1016.443 1045.429c-6.268 30.402-50.771 22.058-71.25 12.073-21.092-10.188-29.811-24.107-18.836-46.628 21.906 27.222 59.756 33.536 92.559 26.17-.878 2.782-1.723 5.57-2.473 8.385z" fill="#fac135"/><path d="m1026.768 1012.385c-4.331 14.344-1.916 18.65-25.29 20.313-21.006 1.502-42.498-2.953-58.932-15.527-11.633-8.896-11.746-18.088-5.748-32.084.909-2.118 1.822-4.234 2.734-6.35 1.683 2.41 3.469 4.754 5.429 6.964 21.38 24.101 56.784 30.817 84.48 17.407-.848 3.106-1.743 6.194-2.673 9.277z" fill="#ffa0b9"/><path d="m1071.786 584.219c11.881 38.104 16.555 77.861 16.869 117.706.162 20.275-5.375 19.619-15.873 7.458-30.057-34.82-37.25-89.762-20.27-132.429 6.533-16.413 11.928-16.276 19.274 7.265z" fill="#fac135"/><path d="m888.169 309.361c8.051 7.355 16.229 14.776 23.975 22.487 57.686 57.725 105.393 125.875 139.247 200.282 5.693 12.512 1.437 18.478-3.204 26.898-29.41 53.333-18.277 130.571 28.589 170.167 15.068 12.727 11.358 8.055 9.907 27.914-2.709 37.061-7.803 73.932-13.93 110.574-2.848 17.008-5.93 33.977-9.13 50.923-4.142 32.486-15.12 70.696-51.479 78.802-38.803 9.361-75.739-24.854-75.737-63.443 4.457-80.039 20.801-159.567 20.732-240.061.99-80.039-61.908-123.538-110.957-176.003-24.201-32.959-20.279-78.411-15.532-116.895 5.353-29.442 15.062-78.48 41.119-95.517 6.012-3.364 11.95-.142 16.4 3.872z" fill="#7761d3"/><path d="m782.925 194.575c1.909 7.803 2.412 16.028 2.338 24.18-.137 15.064 1.523 15.109-16.619 23.813-33.537 16.089-70.819 24.425-107.529 28.887-8.54.856-17.17 1.124-25.803.863-.092-1.369-.232-2.743-.416-4.115-1.327-9.898.266-15.122 10.408-21.373 17.922-11.05 40.701-14.131 60.539-20.65 23.107-7.591 43.992-18.83 62.15-34.317 9.528-8.123 12.299-8.07 14.932 2.712z" fill="#ffa0b9"/><path d="m534.927 143.113c73.99-16.465 157.042-14.115 223.756 24.558 10.051 5.829 6.923 11.307-.961 17.717-6.474 5.262-13.281 9.948-20.413 14.097-60.729-28.704-131.759-35.817-196.952-19.692-7.137-5.752-13.115-12.882-18.072-20.659-6.528-10.233-3.12-12.419 12.642-16.021z" fill="#ffa0b9"/><path d="m490.88 170.942c1.723-3.562 3.684-7.068 5.983-10.251 5.739-7.951 10.582-2.924 15.878 5.125 14.899 22.635 38.635 37.759 63.145 49.238 19.672 9.582 39.883 24.387 46.146 45.841 2.938 10.052-1.758 10.567-9.424 9.469-32.254-4.623-63.514-17.009-89.27-36.793-12.176-9.35-23.662-20.962-31.299-34.56-6.799-12.115-6.923-16.167-1.159-28.069z" fill="#ffa0b9"/><path d="m479.599 206.012c1.274-8.826 2.685-9.403 8.59.022 6.1 9.737 13.975 18.453 22.475 25.981 18.629 16.496 41.047 28.49 64.555 36.417 12.125 4.086 24.695 7.131 37.427 8.975 7.778 1.124 13.701.974 8.156 12.808-7.12 15.197-25.441 18.77-41.202 11.846-26.521-9.04-52.223-21.417-73.345-40.101-21.013-16.376-30.093-32.22-26.656-55.948z" fill="#fac135"/><path d="m425.345 766.442c2.672.68 5.336 1.391 7.986 2.144-10.195 8.212-14.883 24.257-17.59 35.854-4.833 20.703-6.268 43.121-2.467 64.111.84 4.645 2.055 9.432 3.939 13.884-3.432-.299-6.85-.706-10.25-1.221-8.441-1.272-13.254-6.573-14.974-16.966-2.485-15.018-2.755-30.418-.983-45.518 1.646-14.023 5.195-28.424 11.561-41.279 8.821-17.817 10.53-14.127 22.778-11.009z" fill="#fac135"/><path d="m391.794 712.4c-1.309-2.172-5.521-3.796-2.119-5.599 12.865-14.376 25.732-28.75 38.6-43.123 6.656-7.434 12.9-17.016 23.703-10.978 8.072 4.515 13.568 13.438 15.664 22.269 3.137 13.213-4.63 21.846-12.502 31.604-11.666 14.464-24.418 28.11-38.387 40.384-6.4-12.76-15.402-23.738-24.959-34.557z" fill="#ffa0b9"/><path d="m434.443 785.997c9.101-15.774 15.165-13.254 20.321.882 7.747 21.257 2.056 57.222-10.028 79.19-11.215 20.385-17.705 15.066-20.428-1.129-3.965-23.565-.803-59.978 10.135-78.943z" fill="#a2603f"/><path d="m384.419 816.172c-2.631 20.175-1.676 41.029 3.168 60.858-6.129-1.728-12.117-3.863-17.957-6.382-3.561-1.548-7.156-3.162-10.588-5.069-5.607-3.395-7.307-12.284-8.252-18.796-2.715-28.019 6.056-76.475 37.121-85.78 5.465-1.376 10.67-.58 16.047.545-11.232 15.966-17.029 35.378-19.539 54.624z" fill="#ffa0b9"/><path d="m137.048 575.33c49.861-111.781 124.111-213.659 213.994-296.599 14.717-13.586 9.998 4.45 10.064 9.867 1.002 73.601-10.393 146.707-24.713 218.716-.42 2.146-.845 4.291-1.271 6.436-4.462 22.328-7.814 29.596-20.004 46.736-5.467 7.682-10.691 15.534-15.613 23.58-7.982 13.049-15.391 26.717-20.553 41.168-8.014-2.817-16.268-4.873-24.771-5.853-23.815-2.743-43.759 9.909-63.309 23.053-6.119 4.113-3.187 9.847 2.986 5.698 16.797-11.293 35.654-18.979 56.191-17.618 52.551 6.436 93.559 47.546 128.408 84.241 9.924 10.853 20.061 22.058 26.961 35.091-3.348-.614-6.699-1.055-10.027-1.138-47.973-2.591-73.285 94.051-45.43 124.437-29.383 2.313-57.623-15.334-80.929-31.108-25.132-17.063-49.446-35.387-72.513-55.159-10.141-8.693-20.184-17.694-29.791-27.14-10.834-10.654-7.609-9.441-5.773-23.182 5.607-41.957-.63-98.783-23.416-133.786-6.208-9.542-4.985-17.357-.491-27.44z" fill="#7761d3"/><path d="m134.806 723.807c-12.482-16.334-22.951-34.418-23.373-55.26-.039-16.271 3.545-32.294 8.334-47.854 4.584-14.896 6.573-16.235 13.777-1.801 13.758 27.544 18.865 64.068 17.747 96.092-.823 23.546-2.059 27.693-16.485 8.823z" fill="#fac135"/><path d="m896.069 584.296c-23.995-26.608-57.431-47.361-71.31-81.508-19.125-54.813-6.667-140.48 23.487-189.551 5.604-8.347 13.585-17.481 23.645-20.002-22.255-18.191-52.578-26.898-80.046-32.419-4.142 16.116-11.922 32.536-27.368 40.231-27.972 15.41-59.335 23.687-91.201 24.83-3.209 169.889-69.306 330.856-83.433 499.608-4.178 41.77-6.086 83.729-5.736 125.689.186 22.291 5.588 21.887 25.847 22.527 74.099 2.356 153.438 1.891 220.257-32.871 13.858-8.01 24.57-19.23 28.223-35.616 13.294-46.774 22.365-94.772 29.849-142.779 7.088-45.472 12.476-91.217 16.28-137.083 1.958-23.669 6.774-25.376-8.494-41.056zm-92.693 321.941c-9.579-3.575-18.789-9.648-27.227-15.338-48.451-32.936-83.639-82.865-105.287-136.811-6.474-16.223-17.029-36.604-5.801-52.985 8.143-11.884 23.648-20.021 38.176-18.237 21.135 2.078 22.711 27.019 32.264 41.654 23.118 43.924 55.836 84.184 96.82 112.573 25.948 17.392 2.937 79.378-28.945 69.144z" fill="#ff5671"/><path d="m826.509 847.035c9.61 7.016 5.569 23.804 1.438 32.655-4.423 10.061-14.056 21.316-25.556 13.379-35.975-18.459-65.533-48.107-88.094-81.334-17.637-25.98-31.537-54.555-40.781-84.579-8.777-18.162 12.662-36.262 30.123-32.601 7.128 1.684 8.868 8.093 11.508 14.137 24.183 54.582 62.163 104.107 111.362 138.343z" fill="#ffa0b9"/><path d="m612.982 313.442c-29.604 14.25-95.559-24.76-117.385-45.578-13.586-11.513-27.26-25.428-27.766-44.389-21.395-2.651-44.973-2.388-64.824 6.33-24.183 9.359-32.232 33.588-30.404 57.844.578 41.304-2.691 82.551-8.191 123.463-9.658 71.85-26.328 142.426-40.113 213.537-3.545 18.299-3.118 22.14 14.947 36.951 3.896 3.195 7.697 6.44 11.396 9.689 10.414 9.142 20.383 18.807 29.918 28.869 8.348-10.465 17.936-20.081 26.705-30.247 7.826-8.255 14.74-17.487 23.01-25.257 21.33-17.775 45.829 9.883 49.083 30.418 3.415 15.145-5.9 28.191-15.471 38.893-11.669 14.549-24.448 28.272-38.433 40.629 8.548 1.983 18.327 3.686 25.746 8.416 34.479 20.045 16.494 126.231-22.645 131.514-20.957.551-42.869-4.475-62.217-12.762-8.035 2.465-16.451 3.68-24.863 3.302-9.637-.432-18.977-2.521-28.035-5.662 23.422 34.915 66.783 50.671 105.162 63.595 25.498 8.043 51.616 14.199 78.022 18.875 30.825 5.459 26.19-1.006 26.069-20.473-.289-47.576 2.348-95.134 7.775-142.418 16.695-163.667 77.718-320.523 82.514-485.539zm-147.961 193.242c-1.02.195-1.514.47-1.65.541-1.438 5.557-3.102 11.167-4.156 16.858-3.699 17.742-5.847 35.687-8.032 53.66-1.277 10.492-8.065 17.903-18.044 21.117-18.088 5.825-45.482-3.542-45.256-25.667.994-15.863 4.205-31.676 5.984-47.505 7.09-52.4 15.369-104.646 21.594-157.161 6.91-40.316 89.008-26.02 115.072-13.285 7.025 2.896 13.865 6.971 19.377 12.174 7.535 7.115 12.584 16.343 12.222 27.548.564 34.052-4.459 68.589-12.567 101.531-14.802 31.018-59.118 7.431-84.544 10.189z" fill="#ff5671"/><path d="m540.993 374.739c-23.67-20.813-83.259-26.296-105.076-15.622-12.848 5.233-9.003 19.948-11.596 30.868-6.336 49.031-13.881 97.897-20.456 146.898-.931 13.107-5.192 26.557-4.122 39.633 2.301 9.313 15.332 14.104 25.945 12.592 12.783-1.816 14.611-9.971 15.266-20.773.111-1.816.217-3.579.419-5.191 1.046-8.273 2.196-16.537 3.544-24.767 1.326-8.111 2.828-16.202 4.709-24.205 1.121-4.767 1.73-11.059 5.275-14.787 4.744-4.987 12.693-4.774 19.006-4.212 9.287.828 18.452 2.764 27.66 4.151 16.781 2.312 37.613 6.296 39.482-16.582 3.361-16.446 6.168-33.034 7.936-49.731.779-9.004 1.729-18.452 1.908-27.755.307-15.874.372-21.48-9.9-30.517zm-22.648 39.859c-2.638 15.417-2.723 31.605-7.126 46.539-10.72 20.442-51.757 10.289-52.96-12.27.867-16.55 3.834-32.99 6.669-49.309 1.495-7.285 8.201-11.771 15.185-12.891 16.877-2.866 41.999 7.538 38.232 27.931z" fill="#00ebed"/><path d="m470.579 440.108c.962-10.131 2.184-20.314 4.117-30.264 1.985-10.237 5.172-12.906 15.357-11.901 6.768 1.067 14.41 4.461 16.732 9.66 1.332 6.182-1.016 12.714-1.488 18.942-1.549 9.66-2.186 19.519-4.119 29.087-2.48 5.025-8.881 5.325-13.793 4.753-2.838-.337-6.063-1.322-8.964-2.693-8.453-4.005-9.005-5.28-7.842-17.584z" fill="#ff5671"/><path d="m480.113 386.668c16.877-2.867 41.999 7.538 38.232 27.93-2.638 15.417-2.723 31.605-7.126 46.539-1.239 2.363-2.919 4.271-4.859 5.846 2.515-.883 4.685-1.987 5.933-3.314 7.033-7.479 7.613-21.067 9.151-30.672 3.625-22.605.569-43.543-24.029-49.609-12.569-3.101-28.495-1.318-30.991 12.244 2.691-4.955 8.077-8.065 13.689-8.964z" fill="#00afb3"/><path d="m399.743 576.516c2.301 9.313 15.332 14.104 25.945 12.592.426-.061.744-.184 1.145-.258-6.803-2.71-12.129-7.311-14.658-15.462-2.396-7.72-1.177-16.638-.217-24.497 3.168-25.912 6.402-51.852 10.135-77.689 3.6-24.906 8.191-49.657 11.705-74.584 1.908-13.552 3.622-30.817 13.27-40.986-4.298.861-8.116 2.001-11.15 3.485-12.848 5.233-9.003 19.948-11.596 30.868-6.336 49.031-13.881 97.897-20.456 146.898-.931 13.107-5.193 26.557-4.123 39.633z" fill="#00afb3"/><path d="m509.624 1054.625c-3.177-24.742-4.351-49.919-2.154-74.786-8.911 9.57-8.364 28.623-10.86 40.037-3.989 18.255-23.265 18.051-38.224 15.377-10.064-1.797-16.029-8.377-20.031-16.425.41 7.448.971 14.88 1.781 22.271 23.018 5.853 46.316 10.189 69.488 13.526z" fill="#00afb3"/><path d="m481.175 980.068c-4.336-1.413-8.889-2.273-13.311-3.059-5.188-.919-10.91-2.154-15.41 1.237-7.377 5.554-4.236 20.123-2.592 27.548 2.367 10.686 14.602 19.118 25.301 13.434 5.148-2.731 7.146-6.337 8.058-12.053.938-5.885.729-11.187 2.275-16.325 1.511-5.025.218-9.309-4.321-10.782z" fill="#88f9f9"/><path d="m540.993 374.739c-12.842-11.293-36.248-18.032-58.47-20.166 9.303 2.728 18.444 5.975 27.659 9.557 9.685 3.765 18.672 8.415 26.48 15.356 1.07.951 1.994 2.006 2.803 3.13.051.07.093.14.141.209.82 1.221 1.454 2.546 2.109 3.859 3.399 7.717 3.137 17.506 3.008 25.383-.34 20.82-2.227 41.807-6.636 62.18-2.617 12.1-10.026 20.249-19.068 26.869 11.205.133 20.791-3.204 22.03-18.374 3.361-16.446 6.168-33.034 7.936-49.731.779-9.004 1.729-18.452 1.908-27.755.307-15.874.372-21.48-9.9-30.517z" fill="#88f9f9"/><path d="m459.12 415.891c-3.158 11.604-6.01 23.791-4.563 35.851 1.85 15.426 21.453 22.736 35.08 20.684.527-.079.988-.207 1.482-.311-15.014.497-32.09-8.808-32.861-23.247.803-15.307 3.404-30.512 6.033-45.62-2.453 3.673-3.885 7.916-5.171 12.643z" fill="#88f9f9"/><path d="m848.662 473.01c-12.397-30.607-5.158-64.18-1.69-95.67 1.956-17.762 4.256-38.542 10.416-57.226-15.541 22.284-22.514 57.66-26.737 80.891-4.747 38.483-8.669 83.936 15.532 116.895 49.049 52.466 111.947 95.964 110.957 176.003.068 80.493-16.275 160.021-20.732 240.061-.002 38.59 36.935 72.805 75.737 63.443 11.79-2.629 20.879-8.455 27.962-16.194-15.854 7.829-33.107 10.717-51.139 2.282-30.684-14.354-36.251-49.111-36.018-79.342.509-65.81 15.874-130.906 19.08-196.628 1.383-28.349.875-59.11-10.384-85.676-11.531-27.208-31.122-49.244-51.268-70.402-22.557-23.691-49.197-47.53-61.716-78.437z" fill="#584ab9"/><path d="m521.521 1056.284c32.794 4.342 65.933 6.681 99.053 6.96 1.417-7.117 2.154-14.374 2.625-21.646-4.612 5.646-10.599 10.013-18.797 12.063-18.021 4.511-39.32 1.255-56.934-3.152-21.725-5.433-23.82-21.075-25.57-40.467-.677-7.504-.67-16.152-3.413-23.476-1.46 23.236-.385 46.719 3.036 69.718z" fill="#584ab9"/><path d="m271.49 598.215c-12.033 9.148-27.648 11.761-41.234 17.9-8.898 4.021-16.986 9.482-23.786 16.318 14.731-8.729 30.171-15.073 47.712-13.051 8.504.979 16.758 3.035 24.771 5.853 5.162-14.451 12.57-28.12 20.553-41.168 4.922-8.046 10.146-15.898 15.613-23.58 12.189-17.141 15.542-24.408 20.004-46.736.427-2.145.852-4.29 1.271-6.436 11.949-60.086 21.83-120.938 24.205-182.2-4.262 23.417-9.254 46.765-12.842 70.18-6.04 39.404-12.914 79.023-25.188 117.032-10.011 31.003-24.398 65.601-51.079 85.888z" fill="#584ab9"/><path d="m374.683 749.1c-27.018 5.085-36.441 27.445-42.833 51.367-3.237 12.127-6.206 25.709-14.47 35.544-9.371 11.155-25.446 3.647-35.461-2.199-18.141-10.589-34.766-24.411-51.219-37.361-14.963-11.778-30.602-23.631-43.579-37.641-24.81-26.781-14.397-70.113-23.28-103.231-3.42-12.754-8.813-28.088-18.395-38.434 16.27 34.877 20.402 82.8 15.51 119.412-1.836 13.74-5.061 12.527 5.773 23.182 9.607 9.445 19.65 18.446 29.791 27.14 23.066 19.772 47.381 38.097 72.513 55.159 23.306 15.774 51.546 33.422 80.929 31.108-26.469-28.873-4.914-117.502 38.453-124.041-4.541-.773-9.145-.868-13.732-.005z" fill="#584ab9"/><path d="m610.284 998.917c-2.951-4.629-10.461-4.239-15.008-4.293-12.484-.145-24.654.125-36.86-1.395-9.125-1.133-15.977-3.085-14.511 12.876.857 9.361 5.015 19.698 9.101 24.85 9.962 12.575 35.178 9.101 48.157 4.669 13.713-4.68 16.498-25.123 9.121-36.707z" fill="#9386f1"/><path d="m194.234 485.617c19.742-26.918 40.656-52.939 61.861-78.714 31.318-38.07 65.535-72.052 104.963-98.966.097-6.443.137-12.888.049-19.339-.066-5.417 4.652-23.454-10.064-9.867-86.404 79.729-158.295 176.987-208.028 283.693 16.189-26.16 32.922-51.857 51.219-76.807z" fill="#9386f1"/><path d="m250.05 630.515c-16.115-1.068-31.178 3.479-45.043 10.924 34.216-7.794 74.275 11.262 102.766 27.034 26.44 14.641 51.985 32.205 75.633 51.739-1.646-1.831-3.297-3.652-4.947-5.456-34.85-36.695-75.858-77.805-128.409-84.241z" fill="#9386f1"/><path d="m1076.776 729.194c-46.866-39.596-57.999-116.834-28.589-170.167 4.641-8.421 8.897-14.387 3.204-26.898-33.854-74.406-81.562-142.557-139.247-200.282-7.066-7.036-14.494-13.818-21.856-20.542 16.132 19.907 32.493 39.628 48.011 60.032 21.186 27.854 40.146 57.318 59.179 86.662 9.708 14.962 19.837 30.539 26.21 47.273 6.895 18.105 2.339 38.564-.807 56.909-5.438 31.696-9.305 64.667-4.482 96.654 4.5 29.836 22.555 50.391 38.538 74.744 5.456 8.309 12.651 19.433 13.163 29.55.25 4.954.131 9.938.072 14.895-.566 48.711-4.528 97.602-11.364 145.819-1.849 13.042-4.134 25.994-6.688 38.895 6.348-13.691 9.638-29.484 11.504-44.134 3.2-16.946 6.282-33.915 9.13-50.923 6.127-36.643 11.221-73.514 13.93-110.574 1.45-19.858 5.16-15.186-9.908-27.913z" fill="#9386f1"/><path d="m372.816 688.048c-.936.499-1.91.929-2.867 1.39 3.574 3.539 7.154 7.071 10.611 10.722 8.348-10.465 17.936-20.081 26.705-30.247 7.826-8.255 14.74-17.487 23.01-25.257 15.832-13.193 33.4-1.354 42.742 14.021-8.152-15.429-24.842-27.137-41.375-22.898-15.432 3.956-24.99 18.975-34.164 30.665-6.949 8.852-14.66 16.266-24.662 21.604z" fill="#df3f58"/><path d="m383.741 546.543c-2.84 19.6-3.172 42.783 19.219 50.529 2.191.758 4.271 1.239 6.293 1.572-11.736-3.58-21.506-12.211-21.371-25.451.994-15.863 4.205-31.676 5.984-47.505 7.09-52.4 15.369-104.646 21.594-157.161 6.91-40.316 89.008-26.02 115.072-13.285 7.025 2.896 13.865 6.971 19.377 12.174 3.551 3.353 6.52 7.194 8.66 11.47-7.317-34.391-58.283-44.656-88.485-45.335-22.294-.501-51.481 3.236-61.61 26.003-3.816 8.574-4.267 18.657-4.959 27.879-1.383 18.378-4.212 36.638-6.73 54.888-4.786 34.675-8.026 69.606-13.044 104.222z" fill="#df3f58"/><path d="m494.657 282.148c18.221 17.692 42.435 29.237 66.426 36.714 12.242 3.816 25.379 8.005 33.109 18.945 9.916 14.039 5.332 39.381 3.078 55.144-4.115 28.782-8.547 57.645-13.869 86.231-23.533 126.412-60.146 249.686-69.74 378.5-1.174 15.756-1.873 31.546-2.271 47.341-.33 13.192 2.071 31.102-10.162 39.954-7.102 5.141-17.832 3.967-26.021 3.309-10.141-.816-20.271-2.144-30.391-3.198-28.65-2.983-55.713-12.087-81.536-24.178 17.794 9.152 37.11 15.954 55.323 22.087 25.498 8.043 51.616 14.199 78.022 18.875 30.825 5.459 26.19-1.006 26.069-20.473-.289-47.576 2.348-95.134 7.775-142.418 16.693-163.667 77.716-320.523 82.512-485.539-29.604 14.25-95.559-24.76-117.385-45.578-10.244-8.682-20.534-18.734-25.193-31.284.237 17.124 12.622 34.268 24.254 45.568z" fill="#df3f58"/><path d="m589.843 825.485c-4.178 41.77-6.086 83.729-5.736 125.689.186 22.291 5.588 21.887 25.847 22.527 59.958 1.906 123.344 1.949 180.757-16.514-5.186.948-10.396 1.813-15.653 2.507-23.406 3.097-47.298 3.314-70.874 4.646-21.379 1.205-43.205 1.764-64.266-2.719-9.613-2.046-18.961-5.719-26.629-11.961-10.492-8.542-12.066-21.094-13.311-33.731-3.461-35.16 2.006-70.954 6.832-105.712 4.922-35.455 9.098-70.938 15.342-106.202 12.856-72.587 30.686-144.183 44.311-216.619 4.578-24.347 6.874-48.99 11.034-73.396 4.198-24.652 10.418-51.636 28.191-70.277 8.087-8.48 19.829-13.706 29.892-19.436 9.521-5.421 18.861-11.106 27.44-17.942 5.429-4.324 9.86-9.148 13.301-14.375-3.356 3.625-7.22 6.775-11.844 9.078-27.972 15.41-59.335 23.687-91.201 24.83-3.209 169.888-69.306 330.855-83.433 499.607z" fill="#df3f58"/><path d="m354.644 894.043c9.035-.394 18.127 1.795 26.893 3.727 20.775 4.578 40.658 7.958 59.738-3.654 31.953-19.446 38.746-69.954 26.912-102.42-.262-.718-.566-1.365-.853-2.046 8.5 38.461-9.001 100.856-38.778 104.875-20.957.551-42.869-4.475-62.217-12.762-8.035 2.465-16.451 3.68-24.863 3.302-9.637-.432-18.977-2.521-28.035-5.662 2.968 4.425 6.262 8.538 9.822 12.381 4.344 1.174 8.846 1.914 13.5 2.379 5.932.591 11.947.137 17.881-.12z" fill="#df3f58"/><path d="m478.422 457.692c2.901 1.371 6.126 2.356 8.964 2.693 4.912.572 11.313.272 13.793-4.753 1.934-9.568 2.57-19.427 4.119-29.087.473-6.229 2.82-12.761 1.488-18.942-1.214-2.714-3.89-4.925-7.123-6.579.504.948.996 1.908 1.398 2.934 2.293 5.836 1.1 13.753.528 19.881-.573 6.159-1.595 12.25-2.997 18.271-3.812 16.353-21.043 13.011-28.39 3.049-.379 7.651 1.123 9.171 8.22 12.533z" fill="#df3f58"/><path d="m737.568 706.063c-4.707-14.856-14.761-28.756-31.576-30.168-18.455-1.549-37.993 7.678-44.209 25.963-1.344 3.961-1.749 8.053-1.463 12.199.482-4.483 1.924-8.844 4.742-12.954 8.143-11.884 23.648-20.021 38.176-18.237 21.135 2.078 22.711 27.019 32.264 41.654 23.118 43.924 55.836 84.184 96.82 112.573 10.422 6.984 12.934 21.164 10.157 34.969 4.792-11.425 5.588-23.865-1.947-35.202-5.562-8.363-14.737-14.277-22.517-20.357-12.277-9.6-22.545-21.594-32.421-33.572-19.141-23.227-38.843-47.876-48.026-76.868z" fill="#df3f58"/><path d="m463.887 713.966c-11.669 14.549-24.448 28.272-38.433 40.629 3.371.782 6.934 1.527 10.469 2.426 1.041-1.884 2.275-3.764 3.764-5.646 3.682-4.656 8.145-8.718 12.484-12.742 8.766-8.129 17.783-15.879 24.277-26.033 6.685-10.449 7.504-23.197 3.442-34.205 1.484 13.734-7.141 25.66-16.003 35.571z" fill="#ff9780"/><path d="m562.131 394.965c.564 34.052-4.459 68.589-12.567 101.531-14.801 31.017-59.117 7.43-84.543 10.188-1.02.195-1.514.47-1.65.541-1.438 5.557-3.102 11.167-4.156 16.858-3.699 17.742-5.847 35.687-8.032 53.66-.993 8.171-5.362 14.44-11.944 18.347 3.123-1.198 6.111-2.831 8.844-5.053 9.746-7.918 10.125-23.15 11.336-34.515 1.242-11.675.33-41.292 17.19-41.438 16.831-.146 33.224 5.032 50.186 3.76 31.468-2.359 32.64-43.363 36.177-66.493 2.646-17.299 6.294-41.065-.879-58.905.002.509.057 1 .038 1.519z" fill="#ff9780"/><path d="m685.252 794.44c23.608 42.07 54.075 88.917 97.966 111.757 18.349 9.55 36.832 7.027 48.463-10.521-7.252 8.961-17.24 14.112-28.305 10.562-9.579-3.575-18.789-9.648-27.227-15.338-48.451-32.936-83.639-82.865-105.287-136.811-3.449-8.642-8.027-18.462-9.883-28.23-.555 5.503.389 11.444 1.576 16.656 4.166 18.31 13.583 35.686 22.697 51.925z" fill="#ff9780"/><path d="m324.298 624.649c-3.186 16.439-3.118 21.233 10.019 32.773-1.157-8.94-1.718-17.957-1.145-27.123 1.583-25.305 10.214-51.203 15.864-75.836 10.454-45.556 15.745-91.817 21.918-138.091 2.93-21.96 6.078-43.815 8.191-65.875 2.316-24.191 4.689-48.357 11.281-71.829 5.656-20.141 16.799-32.691 34.799-42.834 9.219-5.194 19.066-9.139 28.666-13.564-17.354-.91-35.268.677-50.885 7.536-24.183 9.359-32.232 33.588-30.404 57.844.578 41.304-2.691 82.551-8.191 123.463-9.658 71.849-26.328 142.425-40.113 213.536z" fill="#ff9780"/><path d="m832.927 548.198c20.125 23.506 40.512 45.053 48.568 75.86 8.313 31.799 4.423 66.254 1.961 98.572-4.896 64.305-13.416 128.516-27.944 191.389 1.189-2.773 2.222-5.665 2.921-8.804 13.294-46.774 22.365-94.772 29.849-142.779 7.088-45.472 12.476-91.217 16.28-137.083 1.959-23.669 6.775-25.376-8.493-41.056-23.995-26.608-57.431-47.361-71.31-81.508-19.125-54.813-6.667-140.48 23.487-189.551 2.854-4.25 6.327-8.693 10.373-12.372-12.593 5.431-22.857 16.08-31.288 27.328-15.707 20.948-24.133 44.827-28.441 70.457-4.656 27.699-4.404 56.633.079 84.325 4.106 25.378 17.54 46.048 33.958 65.222z" fill="#ff9780"/><g fill="#ed7490"><path d="m756.562 240.723c-15.527 8.216-33.047 12.451-49.943 16.831-17.172 4.452-57.369 16.782-71.137-.461-1.131 3.103-1.189 6.611-.586 11.11.184 1.372.324 2.746.416 4.115 8.633.261 17.263-.007 25.803-.863 36.71-4.462 73.992-12.797 107.529-28.887 18.143-8.704 16.482-8.749 16.619-23.813.012-1.288-.02-2.581-.04-3.872-6.807 10.853-16.013 19.148-28.661 25.84z"/><path d="m729.144 818.157c-13.449-17.611-23.411-37.078-32.771-57.08-8.645-18.473-18.521-39.614-15.896-59.924-7.563 6.35-11.72 16.152-6.959 26.003 9.244 30.024 23.145 58.599 40.781 84.579 22.561 33.227 52.119 62.875 88.094 81.334 11.135 7.686 20.508-2.624 25.105-12.422-35.163 18.001-78.905-37.023-98.354-62.49z"/><path d="m842.661 946.46c-25.604 17.4-56.137 25.188-86.174 30.754-39.648 7.1-80.199 9.52-120.632 8.953-.014 3.537.011 7.139.026 10.705 6.264-3.926 15.336-4.423 22.33-4.823 13.387-.767 26.777-1.433 40.149-2.415 23.991-1.766 48.079-4.019 71.698-8.684 23.445-4.633 53.391-13.314 73.03-30.746-.141-1.248-.252-2.499-.427-3.744z"/><path d="m523.339 233.572c25.756 19.784 57.016 32.17 89.27 36.793 7.666 1.098 12.361.583 9.424-9.469-.152-.524-.353-1.025-.521-1.542-3.222 3.404-7.361 5.239-14.182 5.267-8.125.029-16.51-3.117-24.107-5.676-15.026-5.062-29.609-10.452-43.266-18.639-13.973-8.376-26.374-21.529-35.844-34.623-9.655-13.351-11.848-26.02-10.103-40.56-1.12 1.898-2.173 3.841-3.13 5.82-5.764 11.902-5.641 15.954 1.16 28.07 7.637 13.597 19.123 25.209 31.299 34.559z"/><path d="m330.351 913.665c-3.965-3.006-7.205-5.833-9.677-7.355 11.554 16.843 28.437 27.052 47.979 35.988 12.548 5.738 25.574 10.353 38.736 14.445 7.283 2.262 13.918 4.699 19.938 9.064.191-2.618.361-5.24.604-7.851-11.615-3.404-23.101-7.188-34.404-11.437-22.19-8.337-44.207-18.458-63.176-32.854z"/><path d="m944.961 985.701c-1.464-1.651-2.806-3.389-4.104-5.159 3.694 18.379 23.22 28.777 40.134 34.313 14.18 4.645 31.447 5.089 45.328-.912.146-.514.284-1.015.448-1.557.931-3.083 1.825-6.172 2.674-9.277-27.696 13.409-63.1 6.693-84.48-17.408z"/><path d="m467.642 674.969c-1.85-7.797-6.359-15.653-12.943-20.497 6.725 16.173 3.171 32.95-5.97 49.053-9.097 16.028-21.915 26.146-36.487 35.483 1.592 2.591 3.137 5.211 4.512 7.949 13.969-12.273 26.721-25.92 38.387-40.384 7.871-9.758 15.638-18.391 12.501-31.604z"/><path d="m350.79 846.783c.945 6.512 2.645 15.401 8.252 18.796 3.432 1.907 7.027 3.521 10.588 5.069 1.285.556 2.607 1.019 3.91 1.538-10.857-13.936-15.881-30.436-15.125-49.851.652-16.769 5.943-36.118 14.135-52.183-18.613 17.847-23.959 53.938-21.76 76.631z"/><path d="m522.84 159.942c4.851 7.457 10.634 14.304 17.517 19.851 65.193-16.125 136.223-9.012 196.952 19.692 5.153-2.998 10.076-6.382 14.888-9.955-7.463 1.716-14.848 1.007-23.494-2.087-8.735-3.125-17.235-6.764-26.066-9.662-19.127-6.276-38.906-10.528-58.848-13.166-20.519-2.714-41.415-2.89-61.854.49-12.693 2.1-24.677 7.115-37.769 5.127-7.558-1.147-14.789-5.013-20.698-9.712-.226-.18-.414-.389-.628-.578z"/></g><path d="m534.927 143.113c-9.029 2.064-13.986 3.67-15.363 6.582 34.184-13.654 76.25-13.116 111.826-12.147 47.551 1.295 92.811 13.962 133.591 38.09.144-2.665-1.661-5.28-6.298-7.967-66.714-38.673-149.766-41.023-223.756-24.558z" fill="#ffe1dc"/><path d="m684.648 1013.98c32.582-1.631 65.166-6.991 96.439-16.335 16.708-4.994 34.561-11.11 49.988-20.418.972-.586 1.862-1.133 2.701-1.656-22.981 9.968-47.717 16.689-70.995 22.158-22.626 5.315-45.695 8.953-68.872 10.694-17.097 1.284-40.426 3.613-58.006-2.812.011 2.496.02 4.959.018 7.462 16.195 1.469 32.486 1.719 48.727.907z" fill="#ffe1dc"/><path d="m705.843 226.18c-19.631 6.452-42.127 9.562-59.961 20.333 7.383-2.426 15.379-3.681 22.429-5.215 18.14-3.946 36.235-9.726 53.642-16.127 14.359-5.285 28.479-11.642 40.27-21.549 5.271-4.427 9.273-10.238 12.355-16.557-1.768.931-3.881 2.494-6.584 4.799-18.159 15.486-39.044 26.725-62.151 34.316z" fill="#ffe1dc"/><path d="m426.827 973.343c-22.242 4.335-47.025-9.946-66.137-20.283-19.006-10.281-36.219-23.627-45.618-42.531-.048.951-.069 1.994-.028 3.247.275 9.026 2.951 14.506 9.615 20.468 28.229 25.259 65.465 40.219 101.697 49.42.104-3.445.282-6.886.471-10.321z" fill="#ffe1dc"/><path d="m973.831 1027.177c-10.845-3.114-20.971-8.819-28.861-16.895-6.686-6.841-9.091-14.825-8.977-23.229-5.145 12.898-4.523 21.646 6.553 30.116 16.434 12.574 37.926 17.029 58.932 15.527 10.817-.77 16.082-2.123 19.077-4.756-14.958 4.691-32.826 3.231-46.724-.763z" fill="#ffe1dc"/><path d="m715.148 708.692c-2.64-6.044-4.38-12.453-11.508-14.137-2.456-.516-4.99-.559-7.509-.272 7.839 10.081 12.653 26.408 16.89 34.886 10.394 20.796 23.872 39.617 38.678 57.46 14.173 17.085 29.172 33.928 47.441 46.729 8.529 5.977 17.639 11.098 26.26 16.941 2.294 1.554 4.355 3.193 6.326 4.871-.823-3.24-2.436-6.105-5.217-8.136-49.199-34.235-87.179-83.76-111.361-138.342z" fill="#ffe1dc"/><path d="m575.886 215.054c-21.389-10.018-42.183-22.817-57.033-40.955 8.215 13.303 20.947 23.845 34.088 32.45 11.999 7.857 25.017 13.798 37.689 20.429 12.31 6.438 21.01 16.215 28.795 27.029-8.163-17.775-26.051-30.435-43.539-38.953z" fill="#ffe1dc"/><path d="m391.794 712.4c2.422 2.741 4.804 5.493 7.119 8.282.223-3.164.639-6.33 1.469-9.523 2.771-10.66 10.52-19.909 17.301-28.238 6.086-7.468 11.156-18.462 17.731-27.148-2.474 2.384-4.782 5.275-7.14 7.906-12.867 14.373-25.734 28.747-38.6 43.123-3.401 1.802.812 3.426 2.12 5.598z" fill="#ffe1dc"/><path d="m384.419 816.172c2.51-19.246 8.307-38.657 19.539-54.624-2.35-.492-4.666-.882-6.984-1.096-3.99 7.414-7.559 14.675-10.129 23.271-3.672 12.287-5.588 24.889-6.219 37.67-.506 10.229.406 21.259 3.049 31.785-1.103-12.332-.848-24.793.744-37.006z" fill="#ffe1dc"/><path d="m328.639 986.686c26.294 27.489 63.942 40.239 99.64 51.174-1.049-10.316-1.674-20.701-1.947-31.099-17.451 9.515-40.617 6.37-60.508-2.541-23.139-10.368-40.404-26.395-51.283-47.869 1.771 11.152 5.816 21.653 14.098 30.335z" fill="#ee9e2b"/><path d="m398.956 785.731c-4.131 10.607-6.646 21.916-7.949 33-1.771 15.1-1.502 30.5.983 45.518 1.72 10.393 6.532 15.693 14.974 16.966 3.4.515 6.818.922 10.25 1.221-.461-1.091-.771-2.241-1.158-3.366-5.871-2.85-10.936-7.189-14.848-13.96-6.51-11.263-7.305-25.666-7.393-38.326-.084-12.563 1.984-25.043 4.275-37.351.235-1.256.564-2.473.866-3.702z" fill="#ee9e2b"/><path d="m935.301 1020.136c9.957 13.998 25.813 21.97 43.988 25.563 11.158 2.205 25.079 3.535 36.962.357.049-.223.144-.4.191-.628.75-2.815 1.596-5.604 2.473-8.385-28.693 6.444-61.244 2.421-83.614-16.907z" fill="#ee9e2b"/><path d="m533.51 272.629c-22.479-12.73-44.235-28.347-54.313-51.843 1.646 16.029 10.732 28.45 27.058 41.175 21.122 18.684 46.823 31.061 73.345 40.101 13.723 6.028 29.381 4.09 37.903-6.542-28.347 8.237-59.829-9.203-83.993-22.891z" fill="#ee9e2b"/><path d="m756.719 1043.848c-26.419 6.355-53.763 8.857-80.87 9.73-13.582.438-29.623-1.088-41.188-8.626-.553 6.152-1.297 12.273-2.433 18.313 62.04-1.795 157.56-3.436 202.227-51.697 1.437-1.783 2.606-3.679 3.654-5.623-23.507 18.482-52.006 30.837-81.39 37.903z" fill="#ee9e2b"/><path d="m1072.782 709.383c10.498 12.161 16.035 12.817 15.873-7.458-.014-1.553-.076-3.104-.104-4.655-.445.204-.832.477-1.305.654-10.557 3.958-19.615-12.858-23.637-19.689-7.115-12.082-11.021-25.853-13.495-39.556-3.337-18.5-2.724-37.076.142-55.397-13.921 41.654-6.067 92.974 22.526 126.101z" fill="#ee9e2b"/><path d="m635.12 311.052c2.346 1.174 4.875 2.064 7.537 2.689 40.591 4.49 84.082-3.796 119.496-24.524 9.252-5.574 14.074-16.694 17.172-26.68-15.941 17.324-33.533 31.488-57.701 39.961-17.587 6.166-36.815 8.066-55.344 7.857-7.988-.09-16.4-.486-23.558-4.274-2.676-1.693-4.944-3.832-6.698-6.49-1.533-2.736-2.368-5.887-2.858-9.1-.747 2.244-1.666 4.432-2.819 6.528-2.636 4.789-5.249 9.01 4.773 14.033z" fill="#ee9e2b"/><path d="m111.513 665.344c-.027 1.068-.082 2.133-.08 3.203.422 20.842 10.891 38.926 23.373 55.26 14.426 18.869 15.662 14.723 16.485-8.823.371-10.618-.019-21.733-1.104-32.851-1.508 13.141-5.381 33.177-15.763 27.418-13.872-7.693-19.782-26.349-22.911-44.207z" fill="#ee9e2b"/><path d="m649.395 325.866c6.397 12.363 6.743 29.159 6.577 41.877-.256 19.5-3.422 38.922-7.067 58.039-13.562 71.086-31.784 141.152-46.63 211.986-14.792 70.561-26.607 141.796-31.005 213.823-2.339 38.306 2.964 80.898-5.521 119.258 15.143.119 11.331-11.84 11.317-29.457-.085-89.908 11.367-179.521 29.557-267.492 16.051-79.401 37.321-157.751 50.032-237.813 5.712-36.372 9.316-73.086 9.701-109.914-5.648.165-11.38.176-16.961-.307z" fill="#ee9e2b"/><path d="m136.413 670.499c-.938-9.087-2.246-18.352-4.578-27.287-3.465-13.266-6.592-10.773-9.277-.699-2.299 8.63-3.457 17.58-1.74 26.273.692 3.51 5.403 20.973 11.875 19.774 6.548-1.212 4.13-14.083 3.72-18.061z" fill="#fbe134"/><path d="m1080.523 659.772c-2.346-23.655-8.503-47.21-10.39-55.684-4.193-18.831-9.62-18.493-11.027.516-1.214 16.395-.024 33.07 4.473 48.684 7.49 26.039 19.661 33.871 16.944 6.484z" fill="#fbe134"/><path d="m561.083 678.612c-12.479 63.605-21.232 127.744-24.902 192.261.932-7.571 1.905-15.138 2.926-22.698 8.201-60.743 19.802-120.98 33.703-180.664 14-60.104 29.627-119.458 41.293-180.116 10.275-53.434 26.025-109.744 20.008-164.605-3.43-1.201-6.689-2.775-9.689-4.866-3.274 122.74-40.114 240.955-63.339 360.688z" fill="#fbe134"/><path d="m635.861 1019.989c-.034 2.92-.117 5.837-.212 8.751 6.314-1.36 13.251-1.426 18.521-1.621 15.495-.573 30.865.442 46.385-.603 30.051-2.028 60.586-6.724 88.665-17.958 13.237-5.296 26.104-12.077 37.054-21.086-2.092 1.06-4.196 2.087-6.314 3.065-57.347 25.14-121.849 34.129-184.099 29.452z" fill="#fbe134"/><path d="m320.15 940.356c1.197 1.714 2.463 3.394 3.982 4.949.98 1.006 1.994 1.973 3.004 2.943 11.039 11.332 24.003 19.991 39.31 27.76 12.721 6.457 26.106 11.439 39.772 15.482 6.955 2.058 13.641 3.699 19.979 5.979-.006-2.251-.037-4.502-.008-6.753-35.971-8.547-71.627-23.424-100.68-46.752-2.107-1.691-4.077-3.223-5.795-4.198.151.19.285.404.436.59z" fill="#fbe134"/><path d="m634.785 284.542c7.063-2.712 16.348-1.687 23.653-2.217 14.023-1.017 27.963-3.101 41.763-5.734 19.745-3.767 39.464-7.909 57.657-16.746 7.188-3.492 13.611-7.984 19.144-13.325-1.023.344-2.154.789-3.535 1.455-38.04 18.331-80.36 27.721-122.21 31.184-1.361.083-2.721.144-4.084.191-10.737.348-11.34.749-12.388 5.192z" fill="#fbe134"/><path d="m926.357 1010.875c-10.975 22.521-2.256 36.439 18.836 46.628 17.347 8.457 51.848 15.642 65.83-.805-2.638 1.281-5.395 2.438-8.496 3.316-10.807 3.063-22.574 2.161-33.419-.035-9.714-1.971-18.866-6.182-27.229-11.404-12.736-7.953-16.489-21.459-12.768-34.577-.929-1.028-1.875-2.03-2.754-3.123z" fill="#fbe134"/><path d="m415.741 804.44c2.707-11.598 7.395-27.643 17.59-35.854-2.572-.731-5.156-1.419-7.746-2.078-12.635 15.302-17.627 37.021-18.951 56.186-.691 9.978.287 25.493 5.419 37.505-2.132-18.509-.509-37.778 3.688-55.759z" fill="#fbe134"/><path d="m538.943 258.143c14.891 8.693 31.342 15.055 48.018 19.305 11.369 2.901 26.069 1.683 35.258 9.27 2.768-8.298-2.66-8.312-9.573-9.31-12.731-1.844-25.302-4.889-37.427-8.975-23.508-7.927-45.926-19.921-64.555-36.417-5.821-5.156-11.299-10.908-16.166-17.124 10.479 17.864 25.16 31.992 44.445 43.251z" fill="#fbe134"/><path d="m559.433 192.727c19.531 11.236 40.971 19.709 56.736 36.372 4.44 4.693 8.357 10.393 11.521 16.593 18.705-17.432 45.025-21.329 68.965-28.67 7.002-2.146 13.783-4.601 20.35-7.389 1.655-.704 3.459-1.471 4.965-2.314-19.951 3.099-41.361 2.08-60.426 5.498-5.32.954-11.021 2.572-16.605 4.839-14.61 5.926-13.564 10.209-22.76-.254-2.512-2.855-5.271-5.561-8.328-8.079-16.525-13.62-37.043-12.712-56.232-17.654.572.339 1.175.69 1.814 1.058z" fill="#81391c"/><path d="m441.286 850.129c5.74-20.292 8.87-50.97-.465-72.708-1.953 1.756-4.066 4.569-6.379 8.576-10.938 18.965-14.1 55.378-10.135 78.943.927 5.515 2.303 9.722 4.143 12.13 6.42-7.913 10.569-18.927 12.836-26.941z" fill="#81391c"/><path d="m454.764 786.879c-2.55-6.991-5.325-11.126-8.576-11.628 15.964 30.406 7.792 64.9-5.073 96.73 1.148-1.668 2.35-3.604 3.621-5.912 12.084-21.969 17.775-57.934 10.028-79.19z" fill="#f5995a"/><path d="m660.33 189.053c20.696 2.159 41.233 5.172 61.227 11.063-.711-.367-1.495-.74-2.454-1.125-7.4-2.982-14.928-5.64-22.578-7.956-43.436-13.162-90.41-16.463-135.248-8.628-4.733.828-7.542 1.646-8.857 2.58 36.149-1.425 71.759.294 107.91 4.066z" fill="#f5995a"/></g></g></svg>