<?xml version="1.0" encoding="UTF-8"?>
<!-- Generator: Adobe Illustrator 16.0.0, SVG Export Plug-In . SVG Version: 6.00 Build 0)  -->
<svg xmlns="http://www.w3.org/2000/svg" xmlns:xlink="http://www.w3.org/1999/xlink" version="1.1" id="Bathroom" x="0px"
     y="0px" width="512" height="512" viewBox="0 0 1200 1200" xml:space="preserve">
<g>
	<path fill="none"
          d="M1002.636,649.016c18.655-34.41,15.944-77.297-3.22-110.885c-45.93-80.491-145.096-74.063-220.02-46.162   c-0.102-6.84-0.367-22.895-0.285-23.806c0.588-6.54,3.959-4.385,9.838-10.042c7.802-7.512,9.984-19.28,10.822-29.628   c0.943-11.655-0.783-24.031-6.943-34.16c-2.918-4.798-6.834-8.951-11.565-11.997c-8.449-5.439-5.709-15.973-6.148-25.87   c-0.358-8.092-0.733-16.183-1.116-24.274c6.28-0.914,12.536-2.23,18.52-4.391c12.23-4.414,23.02-12.877,27.717-25.328   c9.564-25.342-10.475-58.233-26.178-77.163c-7.619-9.184-16.646-17.235-26.9-23.372c-0.446-12.854-1.66-26.207-8.676-37.361   c-14.047-22.331-45.051-30.418-66.629-13.819c-9.014,6.933-14.748,17.32-16.714,28.439c-1.074,6.069-1.06,12.309-0.125,18.396   c0.705,6.904-4.392,6.981-9.58,10.763c-20.399,14.866-40.824,40.678-46.626,65.708c-6.178,26.624,14.951,45.051,38.088,52.235   c6.561,2.038,13.297,3.352,20.064,4.474c9.817,1.629,6.197,8.265,6.446,17.073c0.295,10.481,5.361,49.355-14.207,37.768   c-21.15-12.53-41.796-2.82-62.975,3.722c-23.684-21.061-60.875-21.275-82.957,2.292c-22.782-7.087-47.958-15.011-67.665,3.471   c-18.494,17.341-21.154,49.121-5.801,69.305c15.279,20.086,40.639,20.073,62.754,13.384c9.159,9.15,8.249,8.647,6.111,21.746   c-0.992,6.085-2,12.167-2.896,18.268c-2.104,14.321-0.979,15.264-13.049,22.111c-12.799,7.261-14.162,12.214-29.792,10.929   c-15.034-1.235-30.013-3.104-44.901-5.507c-27.303-4.408-54.026-11.755-81.508-15.111c-48.147-5.88-102.813-1.25-136.94,37.421   c-15.101,17.109-23.782,38.226-24.775,61.117c-0.657,15.157,2.004,30.366,7.343,44.544c-2.688,15.223-4.588,30.594-5.419,46.031   c-1.709,31.77,1.391,64.248,11.817,94.15c10.166,29.154,25.665,49.55,36.987,61.875c5.781,6.293,11.987,12.197,18.542,17.679   c3.537,9.616,8.56,18.531,15.173,26.387c7.508,8.916,16.807,14.62,25.793,21.722c-0.767,10.575-21.468,20.699-26.111,33.1   c-20.791,55.48,63.688,64.275,96.486,44.104c22.103-13.595,26.781-40.504,32.321-63.762   c56.429,12.577,138.631,14.791,153.916,15.084c12.021,0.231,9.313,19.033,12.115,29.977c6.688,26.094,23.265,52.438,52.177,56.072   c25.689,3.229,45.495-13.823,70.604-4.81c12.678,4.556,25.606,8.392,39.252,6.771c12.215-1.451,24.34-11.42,36.172-11.42   c20.936,0,44.285,4.756,58.965-14.398c2.238-2.922,4.031-6.17,5.389-9.587c6.476,3.098,13.431,5.141,20.502,6.313   c12.355,2.053,25.181,1.721,37.259-1.693c23.92-6.759,42.34-28.56,31.826-54.044c-4.73-11.467-14.337-20.021-24.818-26.209   c-2.006-10.046,21.746-22.997,28.381-32.019c6.572-8.938,9.209-19.729,17.408-27.03c10.557-9.4,20.158-19.88,28.473-31.316   c19.191-26.396,30.514-57.458,35.641-89.553c3.14-19.641,4.015-39.599,3.293-59.459   C1003.69,690.696,994.921,663.245,1002.636,649.016z M685.498,496.23c-4.196-8.986-10.73-16.73-18.339-23.027   c5.156-2.718,9.738-6.465,13.475-10.932C689.407,467.199,685.461,486.229,685.498,496.23z"/>
    <g>
		<path fill="#68182B"
              d="M240.326,845.977c9.094,12.474,19.875,23.481,31.979,33.047c2.536,4.32,3.724,10.26,6.22,14.254    c5.308,10.155,12.669,17.987,22.044,24.472c6.111,4.226,13.918,8.548,16.107,16.256c2.086,7.344-0.437,17.663-2.859,24.653    c-1.619,4.666-2.908,4.064-7.377,6.717c-19.178,9.665-27.21,31.688-1.103,39.681c16.505,5.289,38.32,2.325,52.17-8.396    c12.316-12.502,14.734-32.062,18.765-48.514c1.269-6.811,2.363-13.781,2.764-20.731c65.181,16.315,133.292,19.968,200.271,20.173    c2.714,27.238,3.034,60.023,24.608,79.781c18.611,14.396,40.761,0.617,60.525-3.098c21.953-2.88,40.792,15.937,62.956,10.418    c10.828-2.372,20.26-9.507,31.391-10.693c15.914-1.214,42.964,8.402,47.841-13.582c-0.339-21.26-26.771-25.735-39.789-37.824    c-10.716-9.289-18.146-21.238-23.009-34.325c20.91-2.903,41.688-6.656,62.175-11.763c1.543,21.143,5.5,44.543,15.94,63.317    c8.205,14.524,30.441,18.677,45.715,17.438c11.918-0.964,32.654-7.336,28.375-23.479c-2.571-9.707-13.344-16.667-21.764-20.787    c-1.674-0.822-1.428-0.375-2.443-2.602c-2.651-6.962-3.877-14.572-3.94-22.019c0.076-8.938,7.137-14.246,13.943-18.851    c10.401-7.039,18.768-14.975,24.655-26.244c2.125-4.249,4.343-9.183,5.783-14.282c23-17.939,41.469-40.64,53.012-67.554    c21.677-50.96,19.253-108.254,10.322-161.852c31.533-40.426,17.974-101.764-23.082-130.758    c-63.662-46.31-130.117-20.174-195.197,5.754c-0.102-26.399-0.575-52.794-1.317-79.183c8.252-0.789,18.215,1.677,19.832-9.285    c3.119-11.744,3.237-32.926-11.037-36.862c-3.371-0.542-6.904-0.187-10.326-0.335c-1.102-28.931-2.418-57.855-3.859-86.773    c17.343-1.97,52.261-1.833,49.677-26.714c-8.638-28.829-25.736-57.777-54.812-69.337c-1.102-11.252-0.041-22.915-3.266-33.82    c-4.021-12.958-18.906-22.084-31.992-16.483c-11.387,4.628-14.879,17.663-13.012,28.89c0.719,6.972,1.354,13.955,1.94,20.941    c-28.546,9.861-47.947,36.168-58.546,63.496c-4.35,18.732,20.478,26.03,34.608,28.62c9.706,1.81,19.533,3.097,29.401,3.953    c1.093,29.275,1.828,58.565,2.33,87.856c-3.946,0.046-7.948,0.239-11.489,1.265c-9.88,4.646-13.228,18.336-11.623,28.409    c2.885,14.498,10.438,16.524,23.711,16.14c0.307,31.966,0.409,63.933,0.446,95.898c-19.957,6.292-40.084,12.055-60.435,16.937    c-6.767,1.641-13.578,3.117-20.378,4.599c-7.393-6.886-19.544-10.859-28.358-13.02c-0.573-9.935-2.008-19.862-3.557-29.705    c6.625,0.293,14.281,0.8,19.354,5.603c3.687,3.688,4.386,8.985,8.746,12.333c15.254,11.705,42.379,2.199,44.501-17.418    c1.769-16.344-11.519-29.278-24.58-36.746c-16.585-9.482-36.649-13.385-55.572-10.415c-0.189-1.247-0.397-2.491-0.519-3.749    c9.978-2.791,22.229-8.853,22.037-20.597c0.105-0.819-0.736-2.44,0.742-1.717c10.288,2.837,20.232,6.997,30.939,8.047    c34.289,6.37,39.969-49.219,7.688-53.702c-16.793-1.32-31.311,10.362-47.775,11.379c-0.918,0.052-1.744,0.39-2.491,0.84    c-6.499-9.334-16.671-16.221-28.003-17.727c-15.42-2.325-30.967,6.239-37.233,20.599c-14.426-1.637-27.813-8.895-42.256-10.746    c-33.884-6.466-39.792,51.497-6.129,53.607c13.265,0.842,25.59-5.271,38.167-8.373c1.208,10.676,12.538,17.241,23.001,19.43    c-0.889,10.154-3.175,20.491-4.831,30.601c-2.677,16.43-5.559,32.947-6.047,49.625c-13.395,4.21-30.204,9.728-35.811,23.783    c-36.107-1.106-71.924-5.946-107.266-13.367c-58.488-13.787-140.646-25.344-176.148,35.853    c-12.099,23.08-10.825,50.363-0.436,73.688C204.041,729.765,203.53,795.501,240.326,845.977z"/>
        <path fill="#67D5E8"
              d="M372.425,702.129c-20.53-5.237-41.684-10.896-60.941-20.095c-3.771-1.801-5.919-3.994,0.55-5.578    c35.906-8.787,73.983,4.051,109.525,10.711c38.207,7.158,76.999,11.573,115.91,11.306c86.349-0.596,169.803-25.15,249.693-56.177    c35.66-13.598,75.98-26.393,113.847-15.172c1.373,0.406,1.67,2.279,0.504,3.111c-60.129,42.987-132.234,66.541-204.267,80.514    c-1.043,0.202-2.12-0.205-2.813-1.009c-21.335-24.728-34.839-9.563-60.89-6.233c-12.931,1.989-25.81-0.044-38.654-1.188    c-12.413-1.104-32.32,1.603-43.45,6.594c-5.582,2.506-10.776,5.711-15.058,10.021c-2.538,2.956-4.113,4.488-8.209,4.357    C475.714,721.611,423.312,715.108,372.425,702.129z"/>
        <path fill="#8EDBFF"
              d="M918.274,614.4c-3.129,3.867-8.314,5.428-13.039,3.878c-56.557-18.536-114.986,13.978-167.906,31.834    c-60.175,20.771-122.75,36.176-186.608,38.227c-39.653,1.319-79.266-2.299-118.3-9.188c-43.683-7.711-89.621-24.321-133.051-9.064    c-3.717,1.307-7.898,0.586-11.015-1.826c-36.086-27.955-14.494-59.91,27.239-67.715c44.197-8.542,87.133,10.651,130.624,15.767    c43.438,6.616,87.416,8.944,131.235,5.09c46.96-4.136,93.045-14.816,137.935-28.999c49.531-14.062,95.896-41.399,148.061-44.434    C910.248,543.881,952.555,571.991,918.274,614.4z"/>
        <path fill="#FF8E5B"
              d="M597.677,712.722c15.619,1.729,31.886,2.281,47.251-1.036c0.44-0.095,0.906-0.032,1.301,0.186    c15.466,8.566,24.736,26.086,30.7,42.059c22.346,55.842,8.688,117.823,27.256,174.332c1.424,4.068,6.555,13.494,1.617,16.608    c-9.463,3.39-19.837-3.09-28.278-7.063c-0.045-0.02-0.086-0.041-0.126-0.063c-9.255-5.057-17.085-13.301-28.366-10.273    c-6.877,1.625-12.276,6.756-18.833,8.988c-6.593,1.711-6.204-13.816-6.525-17.783c-7.449-60.657,20.036-156.141-27.48-202.805    C594.946,714.644,595.939,712.529,597.677,712.722z"/>
        <path fill="#FAC135"
              d="M550.297,720.669c8.321-5.168,18.307-8.07,27.869-9.125c1.112-0.123,2.255,0.118,3.225,0.679    c34.458,19.943,37.076,66.282,37.12,102.287c1.823,20.305-9.381,122.694,7.38,127.61c6.143,2.296,12.938-3.421,18.01-6.123    c10.158-6.621,17.509-2.084,26.044,4.306c11.444,8.146,45.371,22.477,43.349-3.057c-3.279-12.583-8.982-24.659-10.611-37.761    c-9.178-60.104,2.521-143.83-47.269-188.557c-2.878-1.37-1.723-1.812,0.835-2.417c38.202-17.575,54.387,56.521,60.616,82.262    c3.781,17.82,6.314,35.901,7.685,54.065c2.035,29.821-1.33,60.446,7.725,89.411c2.478,8.828,6.232,17.434,11.029,25.309    c1.664,2.735,0.561,6.419-2.451,7.505c-7.123,2.568-12.367,8.299-17.102,14.299c-0.285,0.36-0.627,0.704-0.992,0.98    c-28.689,21.815-43.868-35.245-87.585-5.414c-12.771,8.07-27.992,3.242-40.976-2.437c-1.644-0.717-2.813-2.243-3.067-4.02    c-1.405-9.767-1.904-19.745-2.319-29.552c-4.359-63.441,20.826-169.598-38.722-211.562    C547.03,727.207,547.12,722.643,550.297,720.669z"/>
        <path fill="#8EDBFF"
              d="M575.666,789.808c3.705,16.921,4.711,34.471,4.753,51.979c0.01,3.975-3.188,7.188-7.162,7.13    c-119.034-1.793-245.116-12.665-349.286-74.574c-1.607-0.954-3.163-3.261-3.432-5.108c-3.253-22.499-2.759-45.337-0.062-67.872    c0.994-8.313,6.651-10.093,12.213-3.834c12.189,13.714,49.457,34.191,77.171,45.179c81.518,32.313,171.555,43.028,258.822,41.688    C571.805,784.343,574.998,786.759,575.666,789.808z"/>
        <path fill="#67D5E8"
              d="M333.87,996.339c-10.711,1.961-28.974,2.959-35.348-7.55c-1.645-5.229,6.617-10.893,10.354-13.318    c3.282-2.132,7.27-3.526,10.096-6.222c3.813,0.936,7.568,2.178,11.184,3.695c6.996,2.771,16.998,9.094,19.345,14.392    C353.493,991.63,337.47,995.222,333.87,996.339z"/>
        <path fill="#CEFFFF"
              d="M367.889,938.802c-1.8,11.408-4.285,22.737-8.091,33.648c-1.218,3.484-5.57,4.489-8.302,2.005    c-3.024-2.755-6.522-5.046-10.115-7.001c-4.217-2.293-8.69-4.282-13.294-5.853c-2.453-0.834-3.846-3.416-3.226-5.932    c1.99-8.068,3.519-17.08,1.135-24.868c-7.262-19.105-31.062-23.333-38.952-42.507c-10.347-19.203-8.472-35.637,17.463-30.884    C342.556,864.034,378.502,897.644,367.889,938.802z"/>
        <path fill="#67D5E8"
              d="M381.896,917.979c-1.461-0.363-2.498-1.625-2.674-3.12c-3.939-33.742-37.687-59.923-69.953-66.553    c-10.738-2.24-24.838-2.966-32.918,5.981c-1.592,1.764-2.756,3.678-3.567,5.695c-0.951,2.354-3.922,3.146-5.757,1.39    c-14.655-14.009-26.61-30.526-34.729-49.333c-3.264-7.561-5.853-15.355-7.881-23.293c-0.795-3.104,2.542-5.582,5.306-3.965    c33.079,19.338,69.767,32.505,106.64,42.334c78.243,20.646,159.562,27.674,240.312,27.809c1.992,0.005,3.597,1.64,3.557,3.633    c-0.524,25.223-1.854,50.254-1.405,75.519c0.034,1.997-1.562,3.637-3.558,3.625C510.532,937.372,444.863,933.706,381.896,917.979z    "/>
        <path fill="#67D5E8"
              d="M882.786,992.904c-12.059,8.045-31.637,5.422-43.801-0.771c-4.342-2.211-6.686-4.337-8.676-7.684    c0.955-0.418,1.817-1.117,2.488-2.021c8.752-11.918,25.704-14.61,38.635-9.467C880.309,978.553,893.196,985.958,882.786,992.904z"/>
        <path fill="#CEFFFF"
              d="M878.145,910.123c-21.381,11.956-23.307,28.607-16.818,50.709c-37.602-3.034-32.119,35.376-41.709-8.61    c-13.977-46.938,7.707-78.465,52.888-92.923C922.592,844.327,903.52,893.761,878.145,910.123z"/>
        <path fill="#67D5E8"
              d="M938.946,838.021c-7.281,10.048-15.916,19.146-25.35,27.246c-0.381-2.799-1.23-5.517-2.76-8.053    c-21.918-28.41-81.134,6.582-95.105,30.756c-6.02,8.904-8.805,18.366-9.572,28.346c-21.508,5.505-43.373,9.521-65.364,12.509    c-4.613-16.806-5.429-34.302-5.298-51.643c0.103-10.923-0.342-21.838-1.166-32.728c37.781-5.131,75.363-12.09,112.183-22.057    c31.6-8.554,62.983-19.194,92.129-34.25c7.391-3.818,14.619-7.959,21.58-12.506c5.742-3.749,7.332-4.12,5.362,3.819    C960.422,800.263,951.932,820.097,938.946,838.021z"/>
        <path fill="#8EDBFF"
              d="M969.243,761.198c-0.09,0.57-0.405,1.088-0.87,1.431c-49.97,36.648-111.9,52.432-171.587,65.397    c-20.125,4.096-40.397,7.463-60.743,10.268c-1.193,0.164-2.281-0.699-2.4-1.897c-2.225-22.515-5.512-44.76-11.389-67.097    c-0.304-1.147,0.379-2.313,1.537-2.579c82.405-18.931,177.043-46.436,240.575-104.337c1.257-1.145,3.275-0.448,3.519,1.231    C972.5,695.564,974.264,729.161,969.243,761.198z"/>
        <path fill="#8EDBFF"
              d="M707.469,198.541c-1.008-8.244-2.666-19.65,6.512-23.694c4.445-2.008,11.75-0.517,15.881,4.952    c6.799,9.527,4.148,22.19,5.574,33.2c-8.924-1.935-17.938-1.841-26.66-0.058C708.364,208.14,707.944,203.338,707.469,198.541z"/>
        <path fill="#67D5E8"
              d="M704.444,224.012c32.314-10.502,62.66,11.474,76.85,39.674c1.302,2.583-1.223,5.43-3.975,4.543    c-17.287-5.574-35.537-7.369-53.586-8.494c-19.363-0.543-39.02-0.613-58.021,3.562c-2.859,0.628-5.08-2.525-3.474-4.973    C672.474,242.735,686.469,229.602,704.444,224.012z"/>
        <path fill="#8EDBFF"
              d="M652.283,279.283c23.722-15.257,79.448-10.246,107.065-5.358c31.963,4.605,48.164,21.769,5,27.146    c-28.713,3.227-58.104,2.452-86.514-2.845C670.672,297.252,641.572,289.689,652.283,279.283z"/>
        <path fill="#CEFFFF"
              d="M740.77,312.662c1.432,28.742,2.738,57.489,3.834,86.247c-9.27,0.046-18.541,0.232-27.793,0.501    c-0.496-29.014-1.229-58.025-2.303-87.025C723.254,312.854,732.02,312.96,740.77,312.662z"/>
        <path fill="#8EDBFF"
              d="M698.157,435.038c-7.95-4.799-5.487-19.022,0.597-24.835c21.491-1.54,43.143-1.567,64.686-1.297    c4.414,3.249,7.49,26.857-0.646,26.265C741.282,436.188,719.666,435.99,698.157,435.038z"/>
        <path fill="#CEFFFF"
              d="M717.411,445.519c9.525,0.134,19.14,0.302,28.73,0.166c0.77,27.449,1.274,54.905,1.344,82.363    c-9.817,3.535-19.705,6.867-29.635,10.075C717.811,507.255,717.709,476.385,717.411,445.519z"/>
        <path fill="#67D5E8"
              d="M627.779,487.422c15.36,4.792,41.353,24.116,25.627,41.108c-8.006,6.293-24.137,7.176-27.872-4.313    c-12.546-23.903-44.031-5.137-57.604-20.884c-6.603-9.421,7.615-16.715,14.604-18.76    C597.51,480.606,613.326,482.054,627.779,487.422z"/>
        <path fill="#8EDBFF"
              d="M641.678,411.886c17.867-4.811,24.353,21.242,12.779,31.3c-10.032,6.273-22.823,0.172-33.136-2.678    c-17.291-5.731-12.702-0.037-18.298-17.806C616.521,421.251,628.334,414.035,641.678,411.886z"/>
        <path fill="#8EDBFF"
              d="M512.842,443.895c-11.129,2.886-27.855,11.427-37.217,1.241c-5.51-7.245-4.937-20.673,2.567-27.123    c9.908-6.42,23.569,1.104,33.843,3.689c5.567,1.771,11.188,3.439,16.934,4.438c-1.828,4.893-3.314,9.909-4.645,14.771    C520.409,441.264,516.399,442.746,512.842,443.895z"/>
        <path fill="#67D5E8"
              d="M536.35,456.265c-2.937-2.348-4.591-5.276-3.464-9.211c4.313-15.913,9.718-39.331,30.049-41.234    c10.215-0.934,19.775,4.152,26.094,12.01c6.986,8.696,7.992,20.282,10.3,30.764c0.212,1.758-0.303,2.728-1.271,4.338    C584.193,465.601,551.965,466.023,536.35,456.265z"/>
        <path fill="#CEFFFF"
              d="M545.461,540.867c1.899-23.055,7.308-45.583,10.141-68.517c7.299,0.732,14.773,0.458,21.969-0.656    c0.17,1.321,0.322,2.643,0.525,3.961c-9.093,2.979-18.066,8.409-20.771,18.197c-4.516,16.558,13.779,26.633,27.967,25.98    c1.503,9.699,2.937,19.429,3.653,29.214c0.101,3.741,0.368,7.946-0.028,11.505c-6.325,4.246-14.686,4.574-22.061,4.41    c-7.056-0.358-15.749-0.891-21.213-5.844C544.1,553.141,545.098,546.933,545.461,540.867z"/>
        <path fill="#E2E2E2"
              d="M513.541,571.492c6.43-5.091,14.483-8.232,22.395-10.553c1.44,5.066,5.507,8.025,10.266,9.999    c13.943,5.858,49.127,8.49,52.621-11.024c32.109,6.84,33.846,27.948,0.188,33.14c-24.814,4.544-51.172,4.515-75.355-3.189    C515.129,587.372,501.254,580.036,513.541,571.492z"/>
        <path fill="#CEFFFF"
              d="M220.972,609.719c23.569-57.305,98.393-54.517,149.303-43.045c41.709,9.275,83.906,16.587,126.688,17.881    c1.621,0.048,3.183,0.813,4.03,2.195c6.481,10.566,24.798,14.503,35.022,16.416c24.286,4.121,87.359,7.413,96.836-21.308    c0.658-2.269,0.903-4.393,0.803-6.38c-0.119-2.377,1.648-4.419,3.969-4.945c26.685-6.061,53.934-13.246,79.309-21.687    c69.736-19.934,144.221-70.262,216.164-30.851c46.215,23.757,67.199,83.423,33.992,126.746    c-13.558,18.979-33.234,31.556-53.207,42.871c-59.056,33.408-124.308,55.14-190.529,69.162c-2.547,0.54-5.068-0.942-5.916-3.403    c-3.934-11.416-8.814-22.396-14.992-32.529c-0.201-0.33-0.424-0.655-0.629-0.984c62.971-11.645,221.299-57.774,237.699-125.88    c6.199-26.73-17.119-48.411-41.742-53.076c-47.133-11.305-93.721,9.577-136.969,25.496    c-49.313,18.15-99.957,33.501-152.005,41.388c-45.498,6.895-91.686,7.261-137.375,2.03c-47.78-3.496-93.47-22.506-141.563-20.99    c-26.215,1.796-64.723,12.84-69.347,43.73c-6.044,75.435,179.089,93.831,234.334,98.922c13.916,1.018,27.854,1.635,41.803,1.94    c0.813,0.021,1.615,0.216,2.332,0.599c13.607,7.241,23.681,19.428,29.771,33.431c1.451,3.339-1.028,7.12-4.67,7.169    c-99.694,1.327-201.313-14.682-291.317-58.924C234.322,697.673,205.916,651.968,220.972,609.719z"/>
        <path fill="#FBF199"
              d="M763.967,982.903c6.918,6.313,49.524,23.416,25.908,31.991c-8.777,1.781-18.216-0.952-27.072-0.934    c-10.597,0.022-19.496,4.463-29.097,8.313c-33.813,12.686-48.853-20.974-89.986-2.523c-32.156,13.264-44.184-5.369-49.983-34.787    c15.206,6.662,33.544,9.621,47.856-0.469c5.779-3.745,12.081-6.524,19.087-6.496c15.25,0.064,24.608,13.42,38.418,17.646    c10.395,3.18,22.233,1.665,30.358-5.936c4.492-4.202,6.759-9.651,12.632-12.394C751.188,972.836,757.567,976.624,763.967,982.903z    "/>
        <path fill="#BEBEBE"
              d="M623.527,576.835c-11.14,11.148-27.832,12.962-44.212,12.987c-12.05,0.019-23.838-1.124-35.519-4.186    c-5.889-1.542-11.612-3.843-17.024-6.601c-4.883-2.49-8.369-5.954-7.716-11.229c-1.93,1.108-3.787,2.315-5.515,3.685    c-12.287,8.544,1.588,15.88,10.112,18.372c24.185,7.704,50.541,7.733,75.355,3.189C616.058,590.423,623.99,583.71,623.527,576.835    z"/>
        <path fill="#F3AF79"
              d="M598.266,986.781c6.223,6.47,15.764,9.878,24.515,10.288c6.717,0.313,13.274-2.688,19.282-5.308    c13.509-5.894,23.354-8.174,36.671-0.01c13.271,8.137,31.199,15.356,46.521,8.004c8.455-4.056,13.862-12.261,22.807-15.379    c4.902-1.71,10.225-2.035,15.623-1.735c-6.31-6.114-12.631-9.74-21.598-5.324c-5.873,2.741-8.14,8.19-12.632,12.394    c-8.125,7.6-19.965,9.114-30.358,5.936c-13.81-4.228-23.168-17.582-38.418-17.646c-7.006-0.028-13.308,2.751-19.087,6.496    C628.675,993.604,612.481,992.065,598.266,986.781z"/>
        <path fill="#FFF7CF"
              d="M643.72,1019.751c41.135-18.449,56.173,15.209,89.986,2.523c9.601-3.851,18.5-8.29,29.097-8.313    c8.856-0.02,18.295,2.715,27.072,0.933c2.327-0.845,3.987-1.772,5.127-2.767c-2.734,0.55-5.675,0.732-8.92,0.52    c-10.41-0.686-20.117-4.355-30.658-4.354c-6.886,0.003-13.39,2.73-19.582,5.429c-5.873,2.561-11.316,4.896-17.744,5.539    c-6.746,0.675-13.479-3.036-19.338-5.804c-7.742-3.658-15.151-7.303-23.645-8.849c-8.146-1.481-16.771,1.477-24.291,4.216    c-24.724,8.998-35.828,12.285-48.056,2.152C610.483,1023.479,622.843,1028.361,643.72,1019.751z"/>
        <path fill="#65B0B9"
              d="M372.425,702.129c50.888,12.979,103.289,19.482,155.747,21.163c4.096,0.131,5.671-1.401,8.209-4.356    c1.938-1.953,4.086-3.65,6.352-5.188c-26.351-1.094-52.271-2.396-78.574-6.317c-28.867-4.306-57.528-9.958-86.447-13.926    c-13.698-1.882-27.996-3.075-41.936-1.808C347.861,695.749,360.25,699.024,372.425,702.129z"/>
        <path fill="#65B0B9"
              d="M667.492,262.954c18.447-3.791,37.479-3.745,56.239-3.219c18.049,1.125,36.299,2.92,53.586,8.494    c2.752,0.887,5.275-1.96,3.976-4.543c-8.226-16.345-21.896-30.548-38.209-37.598c4.942,3.373,9.909,6.634,14.25,10.847    c3.981,3.871,11.692,16.223,2.545,19.704c-5.435,2.066-13.148,0.468-18.863,0.12c-6.154-0.374-12.31-0.721-18.471-0.952    C706.389,255.202,682.923,253.827,667.492,262.954z"/>
        <path fill="#65B0B9"
              d="M532.886,447.054c-1.127,3.935,0.527,6.863,3.464,9.211c15.614,9.76,47.843,9.336,61.706-3.334    c0.97-1.61,1.483-2.581,1.271-4.338c-0.804-3.653-1.459-7.438-2.255-11.19c-0.952,4.672-2.713,9.136-5.752,12.657    c-5.875,6.809-20.587,6.115-28.557,5.782c-9.118-0.382-19.399-3.672-23.17-12.791c-2.224-5.37-1.008-12.232,0.713-18.706    C536.861,431.734,534.769,440.109,532.886,447.054z"/>
        <path fill="#65B0B9"
              d="M605,504.398c-5.063-0.021-10.138,0.739-15.197,0.949c-7.322,0.307-21.346-2.48-22.267-11.086    c-1.645,2.666-1.949,5.732,0.393,9.072c13.572,15.747,45.058-3.021,57.604,20.884c3.735,11.487,19.866,10.604,27.872,4.313    c2.697-2.915,4.146-5.898,4.649-8.866c-4.155,7.875-15.49,9.674-23.208,5.923c-6.52-3.171-8.654-13.12-14.272-17.742    C616.467,504.466,610.016,504.417,605,504.398z"/>
        <path fill="#65B0B9"
              d="M804.813,666.876c-25.557,11.361-51.455,21.908-78.547,29.037c-12.332,3.246-25.023,5.426-37.639,7.887    c1.877,1.658,3.807,3.624,5.805,5.94c0.693,0.804,1.771,1.211,2.813,1.009c68.035-13.197,136.123-34.964,194.138-73.56    c-4.99,0.246-9.979,0.718-14.959,1.49C851.528,642.54,827.581,656.757,804.813,666.876z"/>
        <path fill="#65B0B9"
              d="M838.987,992.134c11.072,5.638,28.273,8.287,40.369,2.654c-3.723,0.656-7.512,1.061-11.477,1.012    c-13.937-0.178-27.431-9.048-25.004-21.675c-3.88,1.96-7.39,4.646-10.076,8.306c-0.67,0.902-1.533,1.603-2.488,2.021    C832.301,987.797,834.645,989.923,838.987,992.134z"/>
        <path fill="#65B0B9"
              d="M735.918,896.989c0.62,10.742,2.016,21.422,4.875,31.836c21.991-2.987,43.856-7.004,65.364-12.509    c0.547-7.126,2.152-13.981,5.201-20.565C786.12,903.347,759.041,905.269,735.918,896.989z"/>
        <path fill="#65B0B9"
              d="M333.87,996.339c3.601-1.117,19.623-4.709,15.63-9.003c-2.054-4.638-9.97-10.058-16.603-13.195    c0.326,0.649,0.683,1.268,0.969,1.962c2.95,7.226-3.756,11.965-9.399,14.167c-7.847,3.064-16.057,2.339-24.098,0.877    C307.902,999.097,324.049,998.138,333.87,996.339z"/>
        <path fill="#65B0B9"
              d="M476.976,917.386c-24.916-2.893-50.085-6.78-73.998-14.528c-12.113-3.925-23.413-9.214-34.195-15.434    c5.506,8.3,9.283,17.528,10.439,27.436c0.176,1.496,1.213,2.757,2.674,3.121c62.967,15.727,128.637,19.393,193.371,19.721    c1.996,0.012,3.592-1.628,3.558-3.625c-0.104-5.938-0.099-11.863-0.041-17.782c-7.584,1.269-15.051,2.201-22.023,2.926    C530.25,921.974,503.385,920.452,476.976,917.386z"/>
        <path fill="#A6F4FF"
              d="M550.712,423.377c-1.349,3.028-1.598,6.517,0.781,8.911c3.87,3.895,25.75,3.618,28.836,0.241    c2.024-2.214,2.068-4.813,1.255-7.338C577.629,412.938,557.791,407.479,550.712,423.377z"/>
        <path fill="#A6F4FF"
              d="M716.61,229.536c-10.938-0.542-22.131,4.485-30.834,11.68c-8.975,7.423-0.619,6.496,3.219,5.887    c11.793-1.881,24.058-0.771,35.939-0.362c3.064,0.106,14.205,0.838,14.205-4.555C739.139,233.1,723.11,229.858,716.61,229.536z"/>
        <path fill="#A6F4FF"
              d="M230.443,785.182c22.494,26.924,60.295,39.389,92.563,49.662c49.922,15.897,99.632,26.323,151.8,31.231    c34.744,3.271,70.146,5.851,105.13,3.504c0.104-3.673,0.217-7.343,0.295-11.021c0.04-1.993-1.563-3.628-3.557-3.633    c-80.75-0.135-162.067-7.163-240.312-27.809C299.755,817.358,263.336,804.294,230.443,785.182z"/>
        <path fill="#A6F4FF"
              d="M627.779,487.422c-14.451-5.368-30.269-6.815-45.246-2.847c-2.744,0.804-6.596,2.425-9.87,4.659    c16.057-4.53,34.917-3.157,50.375,0.713c14.021,3.511,26.033,12.098,34.711,23.344    C654.679,501.388,638.599,490.796,627.779,487.422z"/>
        <path fill="#A6F4FF"
              d="M846.512,822.4c-36.818,9.966-74.4,16.925-112.183,22.056c0.425,5.594,0.736,11.194,0.937,16.799    c40.221-2.688,80.315-14.073,118-26.237c24.598-7.938,49.129-16.426,71.172-30.182c10.434-6.511,22.799-15.536,31.295-26.437    c-5.576,3.455-11.26,6.737-17.092,9.751C909.495,803.205,878.112,813.847,846.512,822.4z"/>
        <path fill="#73B9D5"
              d="M708.776,212.941c4.035-0.825,8.135-1.245,12.256-1.313c-7.01-10.748-11.059-23.919-8.072-36.242    c-7.995,4.431-6.456,15.24-5.489,23.154C707.944,203.338,708.364,208.14,708.776,212.941z"/>
        <path fill="#73B9D5"
              d="M735.143,431.077c-6.957-0.308-13.924-0.267-20.879-0.582c-4.008-0.181-7.965-0.768-11.861-1.69    c-5.318-1.259-7.602-5.039-8.604-9.46c-1.511,6.011-0.609,12.692,4.36,15.693c21.508,0.952,43.125,1.149,64.636,0.133    c3.479,0.254,4.896-3.926,5.049-9.04c-2.857,2.012-5.99,3.627-9.563,4.545C751.075,432.526,742.491,431.401,735.143,431.077z"/>
        <path fill="#73B9D5"
              d="M475.625,445.136c9.36,10.186,26.088,1.645,37.217-1.241c3.558-1.147,7.567-2.631,11.482-2.983    c0.493-1.802,1.036-3.637,1.583-5.468c-6.627-0.297-13.456,2.032-19.844,4.201c-8.324,2.824-18.341,5.849-25.609-1.049    c-3.834-3.637-6-9.562-6.206-15.332C470.788,430.183,471.345,439.508,475.625,445.136z"/>
        <path fill="#73B9D5"
              d="M627.166,435.472c-7.041-2.477-14.679-6.187-22.334-6.702c2.929,10.314,1.582,6.797,16.489,11.738    c10.313,2.85,23.104,8.951,33.136,2.678c4.564-3.967,6.281-10.416,5.637-16.483c-1.944,4.948-5.693,9.034-11.362,11.243    C641.837,440.631,633.741,437.787,627.166,435.472z"/>
        <path fill="#73B9D5"
              d="M219.463,711.215c-1.729,19.321-1.702,38.792,1.076,58.019c0.269,1.849,1.823,4.154,3.432,5.108    c104.17,61.909,230.252,72.781,349.286,74.574c3.975,0.06,7.172-3.155,7.162-7.13c-0.026-10.857-0.427-21.729-1.607-32.459    c-9.838,12.506-32.662,26.529-73.646,25.839c-81.333-1.372-187.48-23.008-238.667-49.984    C235.273,768.729,220.833,752.833,219.463,711.215z"/>
        <path fill="#73B9D5"
              d="M886.133,791.681c-31.513,10.217-65.162,18.359-97.822,23.676c-19.393,3.154-42.146,5.295-54.652-12.611    c-2.229-3.191-4.149-6.524-6.096-9.81c2.742,14.438,4.641,28.894,6.08,43.461c0.119,1.198,1.207,2.063,2.4,1.897    c20.346-2.805,40.618-6.172,60.743-10.268c59.687-12.967,121.617-28.749,171.587-65.397c0.465-0.343,0.78-0.859,0.87-1.431    c1.826-11.662,2.734-23.535,2.955-35.458c-4.514,9.771-10.239,18.99-17.883,27.351C936.36,772.729,910.95,783.636,886.133,791.681    z"/>
        <path fill="#73B9D5"
              d="M706.221,282.184c13.529,1.817,39.668,2.912,52.067-8.435c-20.782-3.593-56.295-7.11-82.803-2.48    C684.254,277.828,697.397,280.998,706.221,282.184z"/>
        <path fill="#73B9D5"
              d="M288.355,668.259c3.115,2.412,7.298,3.133,11.015,1.826c43.43-15.257,89.368,1.354,133.051,9.064    c39.034,6.891,78.646,10.509,118.3,9.188c63.858-2.051,126.434-17.455,186.608-38.227c52.92-17.856,111.351-50.37,167.906-31.834    c4.725,1.55,9.91-0.011,13.039-3.878c7.369-9.114,11.178-17.563,12.188-25.179c-9.629,16.279-31.503,13.341-53.604,11.622    c-10.586-0.825-21.426-0.02-31.912,1.507c-52.377,7.629-101.75,29.385-151.793,45.625    c-56.638,18.379-115.905,27.896-175.502,25.987c-30.908-0.991-61.928-5.44-91.612-14.18    c-29.037-8.551-57.195-17.263-87.734-13.295c-15.504,2.016-31.971,8.214-47.547,4.102c-10.23-2.698-16.379-12.479-18.26-23.063    C266.847,639.851,270.638,654.533,288.355,668.259z"/>
        <path fill="#CEFFFF"
              d="M643.232,417.51c-4.244-0.854-8.896,0.582-13.227,2.45c-5.038,2.172-7.349,4.597,1.301,6.42    c1.947,0.409,3.865,0.713,5.491,1.029c3.027,0.59,10.06,2.288,12.277-0.952C651.739,422.565,646.683,418.206,643.232,417.51z"/>
        <path fill="#CEFFFF"
              d="M501.547,423.373c-3.305-1.349-6.809-2.267-10.196-2.39c-3.147-0.115-9.795,2.687-8.591,6.867    c1.302,4.517,7.049,5.689,11.112,5.329c2.78-0.247,5.505-1.602,8.029-2.697C508.722,427.519,507.334,425.734,501.547,423.373z"/>
        <path fill="#CEFFFF"
              d="M766.987,417.076c-0.813-3.856-2.104-7.108-3.547-8.17c-21.543-0.271-43.193-0.243-64.686,1.297    c-1.619,1.548-2.97,3.699-3.949,6.104C718.342,411.412,742.963,414.642,766.987,417.076z"/>
        <path fill="#CEFFFF"
              d="M723.791,766.721c-1.158,0.268-1.841,1.432-1.537,2.579c0.469,1.777,0.893,3.556,1.328,5.33    c20.426-2.096,40.698-6.714,60.344-12.045c29.061-7.889,57.506-18.295,84.994-30.569c20.764-9.271,40.787-20.158,58.78-34.137    c9.271-7.202,20.611-16.946,28.188-28.232C892.606,722.571,802.637,748.606,723.791,766.721z"/>
        <path fill="#CEFFFF"
              d="M677.836,298.226c28.409,5.296,57.801,6.071,86.514,2.845c14.838-1.849,22.662-5.09,25.24-8.737    c-6.004,1.755-12.322,2.737-17.468,3.573c-11.709,1.904-23.557,2.309-35.399,2.59c-29.49,0.706-60.145-1.353-86.778-14.55    C650.147,291.896,671.794,297.404,677.836,298.226z"/>
        <path fill="#CEFFFF"
              d="M315.594,600.544c-9.362,1.75-17.7,4.725-24.609,8.589c16.412-3.63,33.628-3.491,50.735-0.482    c30.711,5.397,61.135,12.307,91.912,17.36c57.112,9.381,117.104,12.451,174.79,7.441c27.771-2.412,55.235-7.688,81.926-15.726    c27.021-8.139,52.354-20.571,78.289-31.514c43.733-18.454,91.287-37.942,139.67-31.228c-12.252-5.851-28.262-8.469-44.857-7.019    c-52.164,3.034-98.528,30.373-148.061,44.434c-44.89,14.182-90.975,24.863-137.935,28.999    c-43.819,3.854-87.797,1.526-131.235-5.089C402.727,611.195,359.793,592.002,315.594,600.544z"/>
        <path fill="#CEFFFF"
              d="M309.355,752.379c52.546,23.686,109.638,38.483,167.182,42.132c26.605,1.688,54.634,1.414,80.765-4.416    c5.211-1.162,10.695-2.383,16.205-3.787c-1.336-1.188-3.082-1.942-4.821-1.916c-87.269,1.343-177.306-9.375-258.822-41.687    c-27.714-10.986-64.98-31.465-77.171-45.179c-1.764-1.983-3.519-3.072-5.148-3.488    C243.75,722.462,282.101,740.093,309.355,752.379z"/>
        <path fill="#FF564D"
              d="M602.06,722.427c39.219,48.585,14.496,138.295,21.613,196.248c0.24,2.974,0.083,12.438,2.765,16.273    c-0.487-6.479-0.528-13.027-0.714-19.451c-0.392-13.563-0.021-27.15,0.55-40.703c0.938-22.368,2.966-44.682,3.702-67.058    c0.563-17.171-0.416-36.006-4.72-52.641C622.109,742.935,613.256,730.302,602.06,722.427z"/>
        <path fill="#FBC471"
              d="M607.335,713.593c3.5,1.847,7.288,3.22,11.439,4.231c13.33,3.251,24.783,2.59,35.314,13.005    c8.534,8.438,13.627,21.051,18.14,31.93c5.705,13.756,8.993,28.486,11.301,43.15c4.678,29.697,1.051,60.238,7.655,89.668    c2.287,10.177,6.021,21.755,12.451,30.814c-17.673-56.007-4.605-117.232-26.707-172.464c-5.964-15.973-15.234-33.49-30.7-42.059    c-0.395-0.218-0.859-0.279-1.301-0.186C632.706,714.323,619.919,714.495,607.335,713.593z"/>
        <path fill="#A9CDDD"
              d="M272.765,715.692c90.006,44.241,191.623,60.251,291.317,58.924c3.642-0.049,6.121-3.83,4.671-7.169    c-2.023-4.652-4.527-9.076-7.414-13.214c-20.452,6.731-42.91,7.715-65.559,7.313c-43.938-0.781-86.704-7.55-128.859-19.875    c-20.598-6.022-40.799-13.396-60.514-21.856c-18.64-7.999-37.515-16.699-52.982-30.033c-23.85-20.558-33.354-49.099-32.863-78.793    C206.511,652.88,234.707,697.854,272.765,715.692z"/>
        <path fill="#A9CDDD"
              d="M555.601,472.351c-1.233,9.988-2.955,19.901-4.664,29.813c1.825-1.792,3.754-3.467,5.791-4.982    c0.104-1.082,0.284-2.186,0.596-3.329c2.705-9.788,11.68-15.219,20.771-18.197c-0.203-1.318-0.355-2.64-0.525-3.961    C570.375,472.81,562.9,473.083,555.601,472.351z"/>
        <path fill="#A9CDDD"
              d="M878.897,697.396c-29.553,14.885-60.904,26.237-92.5,35.949c-23.346,7.177-51.773,13.874-74.959,4.822    c2.205,4.96,4.215,10.028,5.998,15.204c0.848,2.461,3.369,3.943,5.916,3.403c66.223-14.022,131.475-35.754,190.529-69.162    c19.973-11.315,39.649-23.893,53.207-42.871c15.832-20.656,19.323-45.025,13.653-67.449c0.041,0.73,0.111,1.45,0.134,2.188    c0.612,20.313-7.082,39.888-18.904,56.098C941.653,663.44,909.102,682.181,878.897,697.396z"/>
        <path fill="#A9CDDD"
              d="M741.418,326.377c-0.22-4.572-0.423-9.144-0.648-13.716c-8.75,0.299-17.516,0.193-26.262-0.277    c0.184,4.948,0.303,9.897,0.467,14.847c4.453-1.802,9.305-2.813,14.012-3.157C733.555,323.741,737.663,324.662,741.418,326.377z"/>
        <path fill="#A9CDDD"
              d="M306.948,857.892c21.305,9.519,37.484,29.468,46.142,51.591c6.21,15.869,7.166,33.219,1.818,49.425    c-1.549,4.692-3.684,9.126-6.192,13.367c0.938,0.717,1.914,1.392,2.782,2.182c2.73,2.484,7.084,1.479,8.302-2.005    c3.806-10.911,6.291-22.24,8.091-33.648C378.274,898.526,344.073,865.495,306.948,857.892z"/>
        <path fill="#A9CDDD"
              d="M746.352,454.854c-0.08-3.055-0.125-6.111-0.209-9.168c-9.592,0.136-19.205-0.032-28.73-0.166    c0.039,3.974,0.05,7.947,0.082,11.92C726.704,453.268,736.813,452.219,746.352,454.854z"/>
        <path fill="#A9CDDD"
              d="M819.616,952.222c7.088,32.511,5.961,20.016,20.063,12.506c-10.176-19.62-16.955-41.594-10.484-62.549    c4.242-13.737,17.742-24.732,28.846-33.102c6.345-4.78,13.07-8.461,20.152-11.244c-1.801,0.397-3.668,0.862-5.688,1.466    C827.323,873.757,805.641,905.282,819.616,952.222z"/>
        <path fill="#E9FFFB"
              d="M374.175,720.802c36.229,7.967,73.252,12.981,110.234,15.656c20.548,1.488,41.156,2.029,61.757,2.146    c-2.283-1.669-4.65-3.238-7.184-4.587c-0.717-0.382-1.521-0.577-2.332-0.598c-13.947-0.307-27.887-0.924-41.803-1.94    c-46.111-4.248-182.69-17.776-223.081-65.996C288.674,698.819,340.424,713.382,374.175,720.802z"/>
        <path fill="#E9FFFB"
              d="M939.514,593.979c-16.4,68.104-174.729,114.235-237.699,125.88c0.205,0.329,0.428,0.654,0.629,0.984    c1.08,1.77,2.068,3.597,3.07,5.414c19.811-5.354,39.526-11.049,59.139-16.973c32.939-9.952,66.168-20.285,97.873-33.75    c28.637-12.16,57.482-32.733,73.855-59.57c7.899-12.951,9.819-26.776,5.162-41.188c-2.722-8.415-8.191-15.909-15.648-19.931    C936.709,564.623,943.118,578.431,939.514,593.979z"/>
        <path fill="#E9FFFB"
              d="M901.424,861.604c-0.232,2.219-0.578,4.449-1.136,6.692c-2.52,10.137-9.666,16.484-17.723,22.435    c-10.975,8.103-23.352,15.522-26.953,29.594c-2.072,8.098-0.934,17.081,2.572,24.42c-1.027-14.318,4.117-25.762,19.959-34.62    C895.365,899.02,909.656,872.702,901.424,861.604z"/>
        <path fill="#E9FFFB"
              d="M287.045,888.296c7.892,19.174,31.69,23.4,38.952,42.507c1.496,4.893,1.448,10.267,0.715,15.583    c1.979-4.496,3.275-9.207,3.761-13.672c1.881-17.362-14.221-23.915-25.213-33.227c-10.387-8.799-22.782-23.955-21.816-37.859    C279.251,867.371,281.165,877.378,287.045,888.296z"/>
        <path fill="#E9FFFB"
              d="M701.313,560.962c33.805-8.93,65.756-22.071,98.502-34.084c24.748-9.08,50.213-15.072,76.58-16.693    c18.482-1.136,36.273,1.413,53.541,6.204c-70.961-36.275-144.287,12.816-213.004,32.458c-25.375,8.44-52.624,15.625-79.309,21.687    c-2.319,0.525-4.088,2.568-3.969,4.945c0.037,0.72-0.025,1.477-0.085,2.23C656.207,572.354,678.846,566.896,701.313,560.962z"/>
        <path fill="#E9FFFB"
              d="M253.942,573.053c23.329-7.231,50.321-7.097,73.157-5.313c47.305,3.69,92.938,18.6,140.16,22.702    c8.162,0.709,23.623,1.935,36.043-0.732c-0.865-0.929-1.661-1.903-2.31-2.959c-0.849-1.382-2.41-2.146-4.03-2.195    c-42.781-1.293-84.979-8.605-126.688-17.881C334.612,558.636,287.234,554.895,253.942,573.053z"/>
        <path fill="#EE9E2B"
              d="M588.808,940.923c0.415,9.806,0.914,19.785,2.319,29.552c0.256,1.775,1.425,3.303,3.067,4.02    c12.983,5.679,28.204,10.507,40.976,2.437c43.717-29.831,58.896,27.229,87.585,5.414c0.364-0.276,0.706-0.62,0.991-0.98    c3.738-4.738,7.814-9.283,12.865-12.263c-4.1-0.002-8.383,0.938-13.059,3.246c-4.197,2.071-7.814,4.438-12.406,5.742    c-6.465,1.836-13.082-1.741-18.398-4.972c-7.048-4.282-13.133-9.405-20.894-12.438c-16.445-6.424-32.291,5.507-46.925,11.165    c-25.276,9.778-29.582-20.857-29.436-38.16c0.391-45.92,3.807-91.133-3.653-136.729c-2.858-17.46-8.072-34.628-19.033-48.764    c-4.722-6.092-11.345-12.961-18.956-15.923C608.488,776.024,584.546,878.88,588.808,940.923z"/>
        <path fill="#EE9E2B"
              d="M658.882,714.257c45.736,45.446,34.843,126.578,43.798,185.229c1.629,13.102,7.332,25.178,10.611,37.761    c0.25,3.138-0.052,5.669-0.779,7.688c3.223-3.268,3.33-9.364,2.861-13.437c-0.578-5.02-2.759-9.962-4.269-14.752    c-2.359-7.486-3.463-15.636-4.41-23.393c-3.559-29.172-2.762-58.677-6.125-87.873    C696.948,774.032,687.809,731.933,658.882,714.257z"/>
        <path fill="#FBE134"
              d="M568.974,713.204c45.526,9.223,43.763,66.351,42.329,120.05c-0.762,28.513-3.979,56.794,1.787,85.036    c0.968,4.735,3.699,13.33,7.777,17.84c-9.158-23.067-0.76-103.834-2.357-121.62c-0.044-36.005-2.661-82.344-37.12-102.287    c-0.97-0.561-2.111-0.802-3.226-0.679C575.118,711.88,572.041,712.479,568.974,713.204z"/>
        <path fill="#FBE134"
              d="M662.432,706.442c35.969,24.733,46.904,69.258,53.039,111.348c6.621,45.441-2.076,98.256,25.717,138.016    c-3.775-6.832-6.826-14.1-8.916-21.555c-9.055-28.965-5.689-59.59-7.725-89.411c-1.369-18.164-3.902-36.245-7.685-54.065    C710.981,766.471,696.215,699.101,662.432,706.442z"/>
	</g>
</g>
</svg>
