<svg viewBox="0 0 512 512" xmlns="http://www.w3.org/2000/svg"><g id="Biceps_arm_muscle" data-name="Biceps arm muscle"><path d="m451.19 315.43c-1.55-23.08-18.39-37.73-25.73-44.12-37.9-33-93.27-24.45-104.43-22.71-58.27 9.11-93.64 49.12-104.44 62.44-6.3-35.52-28.92-65.19-62.7-79.46q-7.48-33.5-15-67h-72.33c-37.45 95.79-29.26 199.61 22.83 289 4.82 11.43 18 18 31.2 15.57l44.52-8.25c28.24 20 67.72 20.12 96.06-1.14 7.36 4.57 55.37 33.33 117.27 19.3a147 147 0 0 0 81.38-49.95 37 37 0 0 0 4.55-41.11q-10.53-20.31-21.05-40.61c3.39-5.92 8.85-17.48 7.87-31.96z" fill="#e67925"/><path d="m63 189.2 3.13-76.32a38 38 0 0 1 12.53-26.72l56.21-50.5a25.51 25.51 0 0 1 26.72-4.66l59.07 24.14a9.24 9.24 0 0 1 5.6 6.69 18.56 18.56 0 0 1 -.59 9.65c-3.38 9.91-13.77 12.39-14.38 12.52 2.55-10.76 13.79-16.84 23.46-13.62 9 3 14.4 13.29 11.35 23.08q-8.13 20.63-16.27 41.25c-10 11.81-26.47 15.4-33.86 1.7a12.14 12.14 0 0 1 -7.95 4.35c3.47 11.2-1 23.23-12 28.66l-15.9 1.14c-.43 12.38-7.84 22.68-19.2 27.72z" fill="#e67925"/><g fill="#68003c"><path d="m196.16 137.15a.5.5 0 0 1 -.41-.79 26.83 26.83 0 0 0 3.48-24.25.51.51 0 0 1 .34-.64 19 19 0 0 0 8.9-5.11c7.76-8.07 4.52-20.29 4.37-20.81a.51.51 0 0 1 .33-.61 17.36 17.36 0 0 0 12.14-15.59.5.5 0 0 1 1 .07 18.36 18.36 0 0 1 -12.39 16.33c.57 2.44 2.65 13.63-4.73 21.3a19.93 19.93 0 0 1 -8.85 5.25 27.79 27.79 0 0 1 -3.78 24.63.49.49 0 0 1 -.4.22z"/><path d="m188 141.26c-.17 0 3.29 1.52-75.7-33.72a.5.5 0 1 1 .41-.91l75.49 33.67a.5.5 0 0 1 -.2.96z"/><path d="m200.13 112.6c-.17 0 3 1.41-70-31.55a.49.49 0 0 1 -.25-.66.5.5 0 0 1 .66-.25l69.81 31.5a.5.5 0 0 1 -.22.96z"/><path d="m213.47 85.83c-.17 0 2.85 1.31-67.47-30a.5.5 0 0 1 .41-.91l67.26 30a.5.5 0 0 1 -.2.91z"/><path d="m160.11 171.06c-.18 0 .34.25-6.59-3.51a9.55 9.55 0 0 1 -2.63-14.69l-46.31-19.58a.5.5 0 1 1 .39-.93l47 19.87a.5.5 0 0 1 .17.81 8.55 8.55 0 0 0 1.9 13.65l6.35 3.44a.5.5 0 0 1 -.28.94z"/><path d="m113.51 202a62.21 62.21 0 0 1 -8.81-.6.5.5 0 0 1 -.42-.56.51.51 0 0 1 .56-.43c19.52 2.79 40.61-5.23 40.82-5.31a.5.5 0 1 1 .36.93c-.18.09-15.7 5.97-32.51 5.97z"/><path d="m200.13 413a.5.5 0 0 1 -.43-.75c23.29-39.51 16.46-100.49 16.39-101.1a.52.52 0 0 1 .44-.56.51.51 0 0 1 .56.44c.07.62 6.93 61.93-16.53 101.73a.51.51 0 0 1 -.43.24z"/><path d="m290.51 386a57.16 57.16 0 0 1 -9.3-.76.51.51 0 0 1 -.41-.58.51.51 0 0 1 .58-.41c29.51 4.93 55-16.06 55.22-16.27a.39.39 0 0 1 .34-.12c56.53 2.8 105.67-20.72 106.16-20.95a.5.5 0 1 1 .43.9c-.49.23-49.73 23.79-106.44 21.06-1.95 1.58-21.93 17.13-46.58 17.13z"/></g></g></svg>