<svg viewBox="0 0 512 512" xmlns="http://www.w3.org/2000/svg"><g id="Working_on_a_blueprint" data-name="Working on a blueprint"><path d="m69 120.4v254.89a24.14 24.14 0 0 0 24.14 24.14h352.44v-279z" fill="#fdc500"/><g fill="#2351fb"><path d="m74.74 364.48a35 35 0 0 1 35-35h12.62v-250.16h-12.57a50.82 50.82 0 0 0 -50.79 50.82v235.41a33.88 33.88 0 0 0 33.88 33.88h16.85a35 35 0 0 1 -34.99-34.95z"/><path d="m368 198.21a1 1 0 0 1 -1-1v-30.82h-89.78a1 1 0 0 1 0-2h90.78a1 1 0 0 1 1 1v31.82a1 1 0 0 1 -1 1z"/><path d="m368 355.44h-224.84a1 1 0 0 1 -1-1v-125.44a1 1 0 0 1 2 0v124.44h222.84v-117a1 1 0 0 1 2 0v118a1 1 0 0 1 -1 1z"/><path d="m277.22 230h-43.55a1 1 0 0 1 0-2h42.55v-61.61h-132.06v61.61h39.44a1 1 0 0 1 0 2h-40.44a1 1 0 0 1 -1-1v-63.61a1 1 0 0 1 1-1h134.06a1 1 0 0 1 1 1v63.61a1 1 0 0 1 -1 1z"/><path d="m412.53 166.39h-44.53a1 1 0 0 1 0-2h44.49a1 1 0 0 1 0 2z"/><path d="m412.53 264.82h-44.53a1 1 0 0 1 0-2h44.49a1 1 0 0 1 0 2z"/><path d="m271.66 303.55a1 1 0 0 1 -1-1v-43.49h-126.5v42.49h27.42a1 1 0 0 1 0 2h-28.42a1 1 0 0 1 -1-1v-44.49a1 1 0 0 1 1-1h128.5a1 1 0 0 1 1 1v44.49a1 1 0 0 1 -1 1z"/><path d="m271.66 303.55h-29.66a1 1 0 1 1 0-2h29.65a1 1 0 0 1 0 2z"/><path d="m210.19 230a1 1 0 0 1 -1-1v-63.61a1 1 0 0 1 2 0v63.61a1 1 0 0 1 -1 1z"/><path d="m182.08 234a1 1 0 0 1 -.93-1.36l4-10.2a1 1 0 0 1 1.86.73l-4 10.2a1 1 0 0 1 -.93.63z"/><path d="m232.15 234a1 1 0 0 1 -.93-1.36l4-10.2a1 1 0 0 1 1.3-.56 1 1 0 0 1 .56 1.29l-4 10.2a1 1 0 0 1 -.93.63z"/><path d="m170.06 308.64a1 1 0 0 1 -.93-1.36l4-10.2a1 1 0 0 1 1.3-.56 1 1 0 0 1 .56 1.3l-3.99 10.18a1 1 0 0 1 -.94.64z"/><path d="m240 308.64a1 1 0 0 1 -.93-1.36l4-10.2a1 1 0 0 1 1.86.74l-4 10.19a1 1 0 0 1 -.93.63z"/><path d="m363.5 199.44a1 1 0 0 1 -.21-2l11.42-2.44a1 1 0 0 1 .43 1.95c-12.29 2.66-11.48 2.49-11.64 2.49z"/><path d="m363.5 239.12a1 1 0 0 1 -.21-2l11.42-2.47a1 1 0 0 1 .43 1.95c-12.29 2.69-11.48 2.52-11.64 2.52z"/></g><path d="m408 144.87-155.89-131.11-105.62 108.24zm-153.81-88.87 58.81 49.49-98.73-8.62z" fill="#e67925"/><path d="m384.27 143.3a.49.49 0 0 1 -.5-.54l.65-7.53a.52.52 0 0 1 .55-.45.5.5 0 0 1 .45.54l-.66 7.53a.49.49 0 0 1 -.49.45z" fill="#68003c"/><path d="m367.74 141.86a.49.49 0 0 1 -.5-.54l.66-7.53a.51.51 0 0 1 .54-.46.5.5 0 0 1 .45.55l-.66 7.52a.5.5 0 0 1 -.49.46z" fill="#68003c"/><path d="m351.21 140.42a.5.5 0 0 1 -.5-.55l1.43-16.34a.51.51 0 0 1 .54-.46.5.5 0 0 1 .45.55l-1.43 16.38a.5.5 0 0 1 -.49.42z" fill="#68003c"/><path d="m334.68 139a.49.49 0 0 1 -.5-.54l.66-7.53a.5.5 0 0 1 .54-.45.49.49 0 0 1 .45.54l-.66 7.53a.49.49 0 0 1 -.49.45z" fill="#68003c"/><path d="m318.15 137.53a.5.5 0 0 1 -.5-.55l.66-7.52a.5.5 0 1 1 1 .08l-.66 7.53a.5.5 0 0 1 -.5.46z" fill="#68003c"/><path d="m301.62 136.08a.49.49 0 0 1 -.5-.54l1.43-16.34a.5.5 0 1 1 1 .08l-1.43 16.35a.49.49 0 0 1 -.5.45z" fill="#68003c"/><path d="m285.09 134.64a.49.49 0 0 1 -.5-.54l.66-7.53a.5.5 0 1 1 1 .09l-.66 7.52a.5.5 0 0 1 -.5.46z" fill="#68003c"/><path d="m268.56 133.2a.5.5 0 0 1 -.5-.55l.66-7.53a.5.5 0 0 1 1 .09l-.65 7.53a.52.52 0 0 1 -.51.46z" fill="#68003c"/><path d="m252 131.75a.5.5 0 0 1 -.5-.54l1.5-16.34a.51.51 0 0 1 .54-.46.5.5 0 0 1 .45.54l-1.42 16.35a.51.51 0 0 1 -.57.45z" fill="#68003c"/><path d="m235.5 130.31a.5.5 0 0 1 -.5-.55l.66-7.52a.52.52 0 0 1 .54-.46.5.5 0 0 1 .45.54l-.65 7.53a.52.52 0 0 1 -.5.46z" fill="#68003c"/><path d="m219 128.87a.51.51 0 0 1 -.5-.55l.66-7.53a.51.51 0 0 1 .54-.45.49.49 0 0 1 .45.54l-.65 7.53a.52.52 0 0 1 -.5.46z" fill="#68003c"/><path d="m202.44 127.42a.5.5 0 0 1 -.5-.54l1.43-16.35a.52.52 0 0 1 .54-.45.49.49 0 0 1 .45.54l-1.42 16.38a.52.52 0 0 1 -.5.42z" fill="#68003c"/><path d="m185.91 126a.5.5 0 0 1 -.5-.55l.66-7.52a.51.51 0 0 1 .54-.46.5.5 0 0 1 .45.54l-.65 7.53a.51.51 0 0 1 -.5.46z" fill="#68003c"/><path d="m169.38 124.53a.5.5 0 0 1 -.5-.54l.66-7.53a.5.5 0 0 1 .54-.45.49.49 0 0 1 .45.54l-.65 7.53a.5.5 0 0 1 -.5.45z" fill="#68003c"/><path d="m296.15 337.7q2.18 19.33 4.34 38.67a14.64 14.64 0 0 0 2.06 6l23.71 38.79a21 21 0 0 0 9.33 8.23l34.27 15.39 12.23 46.7a5.64 5.64 0 0 0 5.35 4.2 91.49 91.49 0 0 0 63.56-23.77 6.16 6.16 0 0 0 1.16-7.72l-40-67.32-27.75-64.52a10.36 10.36 0 0 0 -8.4-6.21l-8.84-1a20.85 20.85 0 0 0 -21.87-12.75l-34.21 4.26 39.7 60.24c-7.88 6.91-18.57 3.53-23-5.77-4.41-13.83-2.06-6.73-10.71-32.18-1.56-7.56-8.42-11.69-13.68-10.26-3.6 1.02-6.4 4.63-7.25 9.02z" fill="#e67925"/><path d="m396.87 417.89a8.92 8.92 0 0 1 -13.54 11.57l-103.44-121.15q-4.11-12.24-8.23-24.5l21.77 12.94z" fill="#68003c"/><path d="m364.36 349.41-20.21-30.15-33.35-23.1c-6-2.49-12.23.15-14 4.56-1.2 3-.27 6.71 2.11 9.55l25 19.57 31.22 39.16q4.62-9.8 9.23-19.59z" fill="#e67925"/><path d="m369.49 351.67c-.37 0 1.37 2-25.68-32.05l-7.7-5.32a.51.51 0 0 1 -.12-.7.49.49 0 0 1 .69-.13l7.76 5.37c.1.07-1.06-1.36 25.45 32a.5.5 0 0 1 -.4.83z" fill="#68003c"/><path d="m386.49 348.14c-.35 0 .92 1.33-19.72-22.64a.5.5 0 0 1 .76-.65l19.34 22.47a.5.5 0 0 1 -.38.82z" fill="#68003c"/></g></svg>