<svg id="Shelter" height="512" viewBox="0 0 512 512" width="512" xmlns="http://www.w3.org/2000/svg" xmlns:xlink="http://www.w3.org/1999/xlink"><clipPath id="clip-path"><rect height="130.68" rx="3.48" width="104.92" x="122.5" y="199.29"/></clipPath><path d="m422.55 78.94h14.18v403.06h-14.18z" fill="#287eef"/><path d="m422.55 139.28h14.18v32.48h-14.18z" fill="#1573d8"/><circle cx="429.64" cy="91.32" fill="#e73f46" r="59.32"/><path d="m465.46 54.4c-.64 20.4-6.5 65.5-44.08 87.73a51.45 51.45 0 0 0 44.08-87.73z" fill="#cc3745"/><rect fill="#edebeb" height="67.69" rx="9.25" width="57.05" x="401.11" y="56.18"/><rect fill="#edebeb" height="22.8" rx="5.54" width="12.42" x="406.77" y="107.06"/><rect fill="#edebeb" height="22.8" rx="5.54" width="12.42" x="439.75" y="107.06"/><circle cx="412.3" cy="113.22" fill="#e73f46" r="5.23"/><circle cx="446.94" cy="113.22" fill="#e73f46" r="5.23"/><rect fill="#edebeb" height="23.14" rx="5.66" width="45.27" x="407.07" y="52.78"/><rect fill="#e73f46" height="38.11" rx="4.54" width="45.4" x="406.93" y="61.5"/><path d="m149.56 400a8.4 8.4 0 0 1 -8.4-8.4v-54.6a8.4 8.4 0 0 1 16.8 0v54.54a8.4 8.4 0 0 1 -8.4 8.46z" fill="#e73f46"/><g fill="#287eef"><rect height="141.88" rx="3.1" width="116.12" x="116.9" y="193.69"/><rect height="6.07" rx="2.71" width="41.16" x="87.77" y="193.69"/><rect height="6.07" rx="2.71" width="41.16" x="87.77" y="329.51"/></g><rect fill="#86ebf9" height="130.68" rx="3.48" width="104.92" x="122.5" y="199.29"/><rect fill="#1573d8" height="284.94" rx="5.33" transform="matrix(-1 0 0 -1 169.86 589.71)" width="25.84" x="72.01" y="152.38"/><rect fill="#287eef" height="102.36" rx="5.33" transform="matrix(-1 0 0 -1 396.76 861.64)" width="323.14" x="36.81" y="379.64"/><path d="m27.05 184.13a11.75 11.75 0 0 1 3.2-16.32c93.63-62.9 203.92-81.62 308.63-54.55a11.76 11.76 0 0 1 -5.88 22.74c-98-25.34-201.41-8-289.62 51.31a11.76 11.76 0 0 1 -16.33-3.18z" fill="#e73f46"/><g clip-path="url(#clip-path)"><path d="m203.48 181-108.99 121.53 13.87 11.2 105.98-120.04h15.19l-117.11 135.82 4.47 6.06 129.94-138.84-13.82-22.45z" fill="#edebeb"/></g><path d="m182.23 345.44h-53.76a8.41 8.41 0 0 1 -8.33-7.26l-11.57-84.38a8.4 8.4 0 0 1 16.65-2.28l10.57 77.12h46.44a8.4 8.4 0 1 1 0 16.8z" fill="#e73f46"/><path d="m54.21 395a1.45 1.45 0 0 1 2.29-1.21 477.88 477.88 0 0 0 163.7 74 1.46 1.46 0 0 1 -.36 2.87l-163.12-.66a1.45 1.45 0 0 1 -1.45-1.43q-.54-36.79-1.06-73.57z" fill="#1573d8"/><path d="m141.16 345.44.09 12.44 16.75-5.88v-6.56z" fill="#cc3745"/></svg>