<svg id="School" height="512" viewBox="-70.866 -70.866 850.394 850.394" width="512" xmlns="http://www.w3.org/2000/svg"><g><path d="m76.413 526.873c-109.824-191.894-27.769-471.176 210.11-502.531 89.628-14.43 184.774 32.09 188.965 118.289 22.031-27.336 53.855-53.891 77.691-74.816 10.523-9.313 23.383-23.219 49.129-23.785 29.078-.109 53.863 22.852 55.887 51.758 1.18 20.379-6.203 32.746-10.879 48.273-14.598 49.992-33.914 103.277-69.43 146.016 30.195 14.195 54.059 34.578 71.133 60.82 43.145 64.188 41.219 161.25-3.277 223.727-56.32 77.586-144.137 112.699-247.556 112.285-139.398.843-251.351-44.087-321.773-160.036z" fill="#fff"/><g><path d="m109.433 507.533c12.961 22.121 29.418 42.191 48.102 59.723 18.93 17.77 39.992 34.566 63.332 46.133 51.141 25.359 110.684 34.016 167.242 35.148 55.125 1.113 109.017-6.551 157.427-34.48 26.75-15.434 51.086-35.855 68.797-61.297 17.938-25.77 27.047-57.5 27.863-88.746.844-32.223-7.633-65.148-25.258-92.25-18.207-27.992-44.652-44.98-76.023-55.207-9.547-3.109-19.27-5.633-29.02-8.016 18.453-20.082 36.066-40.902 51.477-63.453 23.949-35.047 36.191-76.125 48.602-116.266 2.789-9.039 8.746-20.691 8.055-30.23-.645-8.797-7.809-15.711-16.59-16.262-10.523-.652-17.832 7.961-25.051 14.273-8.027 7.031-16.09 14.023-24.105 21.074-23.328 20.52-45.477 41.73-62.957 67.59-20.863 30.867-36.54 64.836-50.911 99.227-17.574-12.863-24.98-31.879-20.191-55.309 7.063-34.48 25.684-69.734 12.777-105.293-20.219-55.672-89.207-69.031-141.097-61.664-63.719 9.043-126.828 42.059-166.043 93.723-38.352 50.527-59.023 117.914-59.418 181.066-.191 31.457 4.887 63.879 12.551 94.34 6.677 26.551 16.576 52.516 30.439 76.176z" fill="#68182b"/><path d="m233.921 173.502c19.215-15.148 42.66-12.375 56.848 8.121 11.895 17.199 3.922 41.84-12.406 52.781-16.508 11.063-42.98 7.477-54.633-8.906-12.653-17.785-4.449-38.727 10.191-51.996z" fill="#ff7a0d"/><path d="m170.999 338.396c19.223-15.152 42.656-12.375 56.844 8.117 11.898 17.199 3.934 41.844-12.398 52.781-16.508 11.066-42.98 7.477-54.633-8.906-12.656-17.781-4.446-38.726 10.187-51.992z" fill="#00ebed"/><path d="m334.156 478.865c11.898 17.199 3.926 41.844-12.398 52.781-16.508 11.066-42.98 7.473-54.633-8.906-12.656-17.785-4.453-38.727 10.188-51.996 19.221-15.156 42.655-12.375 56.843 8.121z" fill="#ffc522"/><path d="m618.367 430.908c-5.887-28.793-20.492-58.188-44.898-75.617-20.633-14.738-45.488-21.32-69.984-27.145-6.48-1.547-9.711-.285-15.168 5.375-4.852 5.016-9.715 10.016-14.586 15 1.641 4.625 2.895 9.387 3.445 14.273 2.887 25.398-17.7 47.996-40.294 56.078-5.203 1.82-6.938 2.668-12.004 4.977-4.352 1.977-8.773 3.961-12.895 6.387-5.609 3.309-11.094 5.656-17.738 4.238-6.996-1.488-12.332-6.941-14.535-13.609-1.488-4.516-.711-9.039-.758-13.652-.047-4.656-.391-9.309-.746-13.949-.789-10.461-2.141-20.512-.172-30.957 4.57-24.223 24.629-44.293 49.359-46 1.582-3.91 3.172-7.824 4.762-11.742-6.711-4.133-12.988-9.094-18.094-15.039-19.625-22.855-18.512-51.543-10.93-79.113 8.074-29.387 22.418-62.813 4.191-91.305-13.145-20.555-37.961-31.137-61.015-35.719-27.25-5.418-55.746-1.238-82.203 6.219-58.82 16.586-109.543 52.914-139.273 106.723-29.465 53.34-41.949 115.34-35.094 175.809 5.898 51.977 20.539 103.359 51.852 145.934 27.949 37.996 68.027 70.539 112.488 86.695 50.23 18.246 105.289 24.145 158.48 22.57 52.063-1.543 100.919-14.18 143.571-45.293 22.504-16.414 42.508-38.055 53.406-63.965 11.435-27.185 14.739-58.239 8.833-87.173zm-364.02-287.414c19.426-2.324 38.898 4.746 52.055 23.758 17.871 25.828 12.992 65.004-14.047 83.129-25.91 17.363-66.008 15.043-85.078-11.766-11.77-16.539-13.145-35.691-6.844-52.801 7.113-19.339 31.324-39.613 53.914-42.32zm-24.91 271.781c-25.918 17.359-66.004 15.039-85.078-11.77-11.789-16.559-13.16-35.734-6.832-52.855 8.473-22.918 26.422-36.25 47.078-41.063 21.59-5.023 44.168 1.313 58.871 22.559 17.871 25.825 13 65.008-14.039 83.129zm106.312 132.348c-25.918 17.363-66.012 15.043-85.078-11.766-10.438-14.668-12.703-31.375-8.691-46.906 6.738-26.117 25.004-40.078 45.262-46.043 22.66-6.672 47.012-.871 62.547 21.586 17.878 25.828 12.999 65.008-14.04 83.129zm169.231 23.863c-25.918 17.363-66.009 15.043-85.079-11.766-13.047-18.324-13.328-39.863-4.535-58.277 8.883-18.605 24.152-30.691 44.355-35.543 21.72-5.211 44.509 1.066 59.306 22.457 17.863 25.829 12.992 65.008-14.047 83.129z" fill="#dda96b"/><path d="m446.546 494.607c19.215-15.148 42.669-12.375 56.849 8.121 11.895 17.195 3.926 41.844-12.406 52.777-16.508 11.07-42.981 7.477-54.634-8.902-12.653-17.781-4.446-38.726 10.191-51.996z" fill="#ff2e60"/><path d="m547.933 151.799c11.488-10.828 23.445-21.145 35.344-31.52 16.949-14.793 10.945-5.445 6.574 8.703-10.988 35.559-22.07 71.688-42.961 102.902-23.914 35.734-54.004 66.828-83.966 97.508-3.809-4.441-8.773-7.695-14.211-9.867 24.673-60.808 50.666-121.984 99.22-167.726z" fill="#5cffcd"/><path d="m443.968 340.658c1.898 1.141 3.809 3.129 5.129 5.129 2.438 3.699 4.137 7.035 5.402 11.02 2.941 9.266 2.52 16.031-2.648 24.617-4.695 7.813-12.18 14.102-20.574 17.105-7.395 2.594-14.598 5.883-21.66 9.258-1.773.844-3.551 1.688-5.301 2.59-4.578 2.387-4.199 1.23-4.25-3.645-.031-2.012-.152-4.031-.262-6.027-.402-7.285-1.129-14.539-1.711-21.813-1.352-16.965 7.551-35.551 23.91-40.34 7.308-2.136 15.304-1.898 21.965 2.106z" fill="#e5e5e5"/><path d="m267.124 522.74c11.652 16.379 38.125 19.973 54.633 8.906 15.918-10.66 23.836-34.336 13.203-51.457 2.793 23.449-11.742 45.746-39.68 45.133-23.945-.52-32.199-22.879-28.012-42.508-7.464 12.161-9.425 26.887-.144 39.926z" fill="#ffa222"/><path d="m311.714 474.838c-6.352-3.348-12.469-3.449-19.09-.871-11.891 4.648-18.039 18.512-9.367 28.945 6.988 8.41 21.102 7.289 29.461 2.031 13.137-8.281 10.527-24.035-1.004-30.105z" fill="#fbe134"/><path d="m505.398 525.615c-3.91 17.203-21.418 24.453-37.359 25.121-19.466.816-31.196-17.621-30.696-35.156.152-5.266 1.734-10.684 4.191-15.82-11.305 13.16-16.293 31.219-5.18 46.844 11.652 16.379 38.126 19.973 54.634 8.902 14.527-9.727 22.398-30.289 15.594-46.82.344 5.57.121 11.168-1.184 16.929z" fill="#ea0f4d"/><path d="m473.941 496.795c-9.618-.078-17.735 7.461-20.661 16.156-3.406 10.117 3.613 18.621 12.816 21.699 11.728 3.922 23.802-3.953 26.083-15.723 1.915-9.87-4.843-22.019-18.238-22.132z" fill="#f69"/><g fill="#c48d51"><path d="m219.82 154.193c-19.734 15.207-28.32 41.059-21.785 63.582-2.328-10.719-1.379-21.707 2.398-31.961 7.113-19.34 31.324-39.613 53.914-42.32 19.426-2.324 38.898 4.746 52.055 23.758 15.07 21.777 13.898 52.996-3.023 73.133 21.855-18.449 20.98-52.586 5.438-76.387-20.497-31.398-61.673-30.855-88.997-9.805z"/><path d="m421.831 562.127c-.645-.805-1.324-1.559-1.93-2.406-13.047-18.324-13.328-39.863-4.535-58.277 8.883-18.605 24.152-30.691 44.355-35.543 21.72-5.211 44.509 1.066 59.306 22.457 13.125 18.977 13.93 45.141 2.73 64.883 17.855-24.574 14.332-57.066-9.25-79.656-24.594-23.566-65.517-16.734-87.563 6.203-20.594 21.437-25.168 60.784-3.113 82.339z"/><path d="m89.738 372.139c5.898 51.977 20.539 103.359 51.852 145.934 27.949 37.996 68.027 70.539 112.488 86.695 50.23 18.246 105.289 24.145 158.48 22.57 52.063-1.543 100.919-14.18 143.571-45.293 22.504-16.414 42.508-38.055 53.406-63.965 3.309-7.859 5.848-16.066 7.77-24.422-1.82 4.117-3.762 8.227-5.945 12.301-19.234 35.949-51.41 63.723-87.313 82.125-41.035 21.027-90.462 27.18-135.966 27.363-47.414.184-96.003-8.57-139.628-27.266-77.707-33.313-129.633-108.848-146.051-190.141-15.223-75.398 1.625-155.375 40.453-221.082 6.781-11.477 14.422-22.383 22.688-32.781-15.977 14.949-29.773 32.359-40.711 52.152-29.466 53.341-41.95 115.341-35.094 175.81z"/><path d="m155.464 314.615c-25.227 20.922-37.199 61.207-14.371 88.215 3.23 3.82 7.164 7.02 11.504 9.723-3.039-2.625-5.816-5.633-8.238-9.047-11.789-16.559-13.16-35.734-6.832-52.855 8.473-22.918 26.422-36.25 47.078-41.063 21.59-5.023 44.168 1.313 58.871 22.559 9.52 13.75 12.52 31.281 9.223 47.414 5.051-18.813 1.207-41.566-8.746-55.875-19.012-27.336-63.887-29.481-88.489-9.071z"/><path d="m259.488 448.92c-28.121 19.992-31.258 63.871-8.059 88.359.422.449.93.801 1.371 1.227-.715-.875-1.465-1.711-2.129-2.648-10.438-14.668-12.703-31.375-8.691-46.906 6.738-26.117 25.004-40.078 45.262-46.043 22.66-6.672 47.012-.871 62.547 21.586 10.207 14.738 12.968 33.816 8.46 50.855 6.887-18.266 4.52-40.254-6.335-57.254-20.118-31.492-65.2-28.539-92.426-9.176z"/></g><path d="m233.898 100.217c35.301-9.992 73.25-12.887 107.383-7.445 26.003 4.148 52.218 16.371 62.152 42.32 12.492 32.625-8.008 71.512-13.012 103.855-5.734 37.07 12.598 58.18 38.965 72.453.922-2.281 1.848-4.555 2.77-6.836-6.711-4.133-12.988-9.094-18.094-15.039-19.625-22.855-18.512-51.543-10.93-79.113 8.074-29.387 22.418-62.813 4.191-91.305-13.145-20.555-37.961-31.137-61.015-35.719-27.25-5.418-55.746-1.238-82.203 6.219-10.352 2.918-20.43 6.485-30.207 10.61z" fill="#f4c38e"/><path d="m488.316 333.521c-.012.016-.031.035-.047.051 12.277 3.754 24.113 7.375 34.418 11.492 28.91 11.551 55.883 27.93 73.531 54.184 14.488 21.555 21.355 48.383 24.309 74.75 1.371-14.406.715-28.996-2.16-43.09-5.887-28.793-20.492-58.188-44.898-75.617-20.633-14.738-45.488-21.32-69.984-27.145-6.481-1.546-9.712-.285-15.169 5.375z" fill="#f4c38e"/><path d="m278.363 234.404c16.328-10.941 24.301-35.582 12.406-52.781-.906-1.301-1.84-2.531-2.816-3.688 2.645 4.652 3.914 10.102 4.422 15.34 1.559 15.91-8.047 28.918-22.313 34.742-14.461 5.898-31.773 2.813-41.297-9.938-8.371-11.207-6.336-27.535.594-39.918-11.617 13.191-16.891 31.508-5.629 47.336 11.652 16.384 38.125 19.97 54.633 8.907z" fill="#ef6200"/><path d="m256.964 173.971c-10.25 2.234-18.82 11.629-18.867 22.316-.051 12.039 14.656 16.832 24.41 14.996 14.32-2.695 21.152-9.641 19.824-18.758-1.425-9.726-11.918-21.484-25.367-18.554z" fill="#ffb85a"/><path d="m579.297 161.99c-13.004 28.289-29.414 55.488-46.953 79.793-15.109 20.922-32.801 39.738-53.57 55.078-8.516 6.289-18.341 13.074-28.665 19.238-.465 1.145-.934 2.285-1.395 3.426 5.438 2.172 10.402 5.426 14.211 9.867 29.962-30.68 60.052-61.773 83.966-97.508 14.425-21.55 24.132-45.46 32.406-69.894z" fill="#27d89d"/><path d="m160.812 390.389c11.652 16.383 38.125 19.973 54.633 8.906 16.332-10.938 24.297-35.582 12.398-52.781-1.496-2.156-3.113-4.074-4.793-5.84 10.375 23.777-.098 53.051-30.238 55.066-23.98 1.609-36.387-21.809-33.465-42.461-6.09 11.578-7.106 25.067 1.465 37.11z" fill="#19bfbb"/><path d="m193.425 342.307c-7.137.535-13.922 6.758-14.918 13.918-1.707 12.176 9.375 18.738 19.902 16.516 18.582-3.915 12.618-31.747-4.984-30.434z" fill="#6cfffb"/><path d="m431.276 398.529c8.395-3.004 15.879-9.293 20.574-17.105 5.168-8.586 5.59-15.352 2.648-24.617-1.266-3.984-2.965-7.32-5.402-11.02-1.32-2-3.23-3.988-5.129-5.129-2.617-1.574-5.473-2.418-8.379-2.914 12.188 10.605 18.086 25.43 9.313 42.262-6.035 11.59-22.832 15.902-32.082 24.34-1.25 1.141-2.496 2.391-3.723 3.695.172-.086.348-.168.52-.254 7.062-3.375 14.266-6.664 21.66-9.258z" fill="#c6c6c6"/><path d="m426.221 348.01c-16.715-2.574-22.855 21.078-20.199 36.27 1.031 5.859 1.984 5.977 7.859 2.082 8.32-5.531 18.199-9.207 23.488-18.152 5.727-9.696-2.058-18.794-11.148-20.2z" fill="#f4f4f4"/></g></g></svg>