<svg id="Layer_1" enable-background="new 0 0 170 170" viewBox="0 0 170 170" xmlns="http://www.w3.org/2000/svg"><g id="_x32_2"><g><path d="m79.0975494 55.7033806c-11.5229034 8.9910011-22.2570991 14.4760017-23.9986991 12.2448997-1.7288017-2.225296 6.1899986-11.3070984 17.703701-20.2947998 11.3345947-8.847599 21.914299-14.2961998 23.9079971-12.3476982.0321045.0299988.0550995.0635986.0814972.1063004.0321045.0299988.0551071.0634995.0780029.0970001 1.407898 2.4073982-6.4469986 11.3500977-17.7724991 20.1942978z" fill="#2a3134"/></g><g><path d="m140.8080444 135.473175c1.7703857 4.9825592 2.1294708 5.2467346 2.1013031 6.364212-.0139923 1.4214935-.8927917 2.7577972-2.3115997 3.2843018l-32.0007019 11.8748932c-1.848999.6860962-3.8946991-.2523041-4.5774002-2.0921021l-1.8851929-5.0802002z" fill="#cbdbf4"/></g><g><path d="m140.8080444 135.473175c1.7703857 4.9825592 2.1294708 5.2467346 2.1013031 6.364212-14.1051178-2.5178528-27.8381042 2.8439941-39.766098 10.7054901l-1.0087967-2.7185974z" fill="#bbcfef"/></g><g><path d="m136.5976563 146.6059875 2.0753937 5.5928955c.5570984 1.5010986-.2086029 3.1703033-1.7098083 3.7274017l-18.5724945 6.8918915c-1.5010986.5570068-3.1702957-.2085876-3.7272949-1.7097931l-2.0754013-5.592804z" fill="#70444d"/></g><g><path d="m136.5976563 146.6059875 1.9972992 5.3822937c-9.4182434-1.7445679-18.4451904 2.014679-24.0097046 8.9096069l-1.9972-5.382309z" fill="#5b353d"/></g><g><path d="m141.2729492 89.3541794c-1.3722076 6.2369003-4.0756073 12.1138-5.6190033 18.3101044-.5271912 2.1430969-.9062958 4.3769989-1.0385895 6.6025009-.2476044 4.2158966.4064941 8.419899 2.5653992 11.9926987l-38.3075027 14.2152023c-1.0548019-6.2944031-5.7613068-11.4002075-10.9731064-15.0898056-5.2118988-3.6894989-11.0945969-6.3802948-16.2030945-10.2122955-15.8449097-11.8952484-23.4347153-35.6864243-12.229702-56.081501 4.7757988-8.7391014 12.4305-15.9223022 21.6209984-19.7806015l3.5882034-1.331501c14.6717987-4.7467003 31.7612-1.0699997 43.1779938 9.2938004 11.4169083 10.3637999 16.7338028 27.0214003 13.4184036 42.0813979z" fill="#ffb63c"/></g><g><path d="m137.1807556 126.2594833-38.3075027 14.2152023c-1.0548019-6.2944031-5.7613068-11.4002075-10.9731064-15.0898056-5.2118988-3.6894989-11.0945969-6.3802948-16.2030945-10.2122955-15.8449097-11.8952484-23.4347153-35.6864243-12.229702-56.081501-.5236015 20.6472969 11.0452003 41.3270988 29.1548958 51.3734016 13.8656998 7.6742935 30.9994049 8.803894 45.9931107 3.8022995-.2476044 4.2158967.4064941 8.4198991 2.5653991 11.9926987z" fill="#ffa20d"/></g><g><path d="m109.7880096 137.7049713c-2.7910156-10.7997971-5.6591797-21.8984299-10.2421875-32.2294846-14.507843 2.0871964-21.1052933-10.0988617-16.75-14.8945313 2.1630096-2.3885498 7.0817642-2.6838989 11.2080078 1.4511719 2.5544968 2.5576096 5.1575775 7.8146439 6.7255859 11.2060547 3.4497452-.7085037 7.5617905-2.3420105 10.3808594-3.8496094-.8925781-2.5527344-1.8017578-5.4980469-1.8291016-8.5595703-.0759964-8.1520844 6.3054428-12.2570953 10.4335938-10.0449219 2.6425781 1.4140625 3.2158203 4.7421875 2.9033203 7.1621094-.5448456 4.2136765-3.2751541 8.8313522-9.0595703 12.3486328 4.0214844 11.0126953 9.6328125 21.5302734 15.0644531 31.7138596.2607422.4873047.0761719 1.0927734-.4111328 1.3525391-.4902344.2617188-1.09375.0742188-1.3525391-.4111328-5.4150391-10.150383-11.0058594-20.6308517-15.0664063-31.6601486-1.1572266.6064453-2.4248047 1.1884766-3.8212891 1.7568359-2.2919922.9335938-4.4101563 1.6162109-6.4023438 2.0576172 4.5332031 10.3447266 7.3818359 21.3691406 10.1542969 32.1005783.1386719.5341797-.1826172 1.0800781-.7177734 1.2177734-.5187758.1387482-1.0774077-.1728363-1.2177733-.7177734zm-11.1103515-34.1328049c-1.4494858-3.0906143-3.8388062-7.8743896-6.0898438-10.1269531-1.4990234-1.5029297-3.2636719-2.4199219-4.9677734-2.5830078-8.3268128-.7527084-3.872757 14.4714584 11.0576172 12.7099609zm18.6513672-21.3720703c-2.7529144 0-6.0986404 3.056488-6.0478516 8.6113281.0234375 2.6240234.7949219 5.2412109 1.5917969 7.5556641 9.9027481-6.2419357 9.2231598-16.1669922 4.4560547-16.1669922z"/></g><g><path d="m141.1134491 126.0809784 1.9803009 5.3365021c.5773926 1.5561066-.2169952 3.2879944-1.7731018 3.8654938l-39.6987991 14.7315063c-1.5560989.5774078-3.288002-.2169952-3.8655014-1.7731018l-1.9802017-5.3365021c-.4245987-1.1441956-.1049957-2.3874969.7114029-3.1902924.2993011-.2881012.649704-.5223083 1.0616989-.6752014l39.6987991-14.7314987c1.5561065-.5774002 3.2880096.2169953 3.8654022 1.7730942z" fill="#ebf2ff"/></g><g><path d="m142.9918518 131.1428833.1018982.2745972c.5773926 1.5561066-.2169952 3.2879944-1.7731018 3.8654938l-39.6987991 14.7315063c-1.5560989.5774078-3.288002-.2169952-3.8655014-1.7731018l-1.9802017-5.3365021c-.4245987-1.1441956-.1049957-2.3874969.7114029-3.1902924l.1139984.0825958c.6460037 2.2180023 2.846405 3.7133942 5.1098022 4.1439972 7.9036941 1.5036469 27.9399872-8.8948669 41.2805023-12.798294z" fill="#dbe6fa"/></g><g><path d="m97.0921478 6.9999819 2.2408981 2.8705997c-.100235.0545502-6.6645279 3.6268625-5.8082962 3.1609001l-7.9897003 13.5306997-39.0630989 29.3299008c-24.1133041 7.3846817-1.3006821.3983383-13.9377022 4.2686996-.8405991 1.1016998-3.5754986 4.6464005-3.5754986 4.6464005l-2.2409-2.8706017c13.3408546-28.0226822 8.9206314-18.7347488 21.5654984-45.290596z" fill="#181e1e"/></g><g><path d="m48.7098503 58.7545815-19.7548008 6.051403 21.5636006-45.2942028 48.809597-9.6415997-11.5523987 19.5594006z" fill="#2a3134"/></g><g><g><path d="m33.7942505 47.0727806-.5111008 1.0810013c-.6530724.8825073-.5285606 2.3358955-.2455025 3.4019012 1.7270203 6.5924416 8.6870003 11.1201439 11.7987022 17.2811012.1608009.3108978.0690994.6827011-.1964989.8899994-.3492126.2729797-.8744736.1697159-1.0831032-.2458038-1.922554-3.7826614-5.1788292-6.7641716-7.9546967-10.2599983-1.6395378-2.078064-3.4800186-4.9190254-4.0058022-7.5312996-.5042992-2.1254997-.1245995-3.9224014 1.0341988-4.9543991.381283-.3440247 1.0047686-.1849594 1.1638033.3374977z" fill="#ffde9b"/></g></g><g><path d="m50.2874489 72.0568848c1.7020988 3.9277954 2.7143021 8.1484985 2.9803009 12.4152985-1.6091194-.2292252-2.021656-3.0129776-3.8724022-2.4792023-.508297.1876984-.7955971.9030991-.4364967 1.3048019-.4272003.2333984-.8851013-.236702-1.1140022-.6582031-.2117462-.4202728-.5836029-.9297485-1.0471001-.8286972-.3215675.0708008-.3859901.2369537-3.2355003 3.171402.3390999-3.0839005-.2331009-6.2749023-1.6375999-9.0527039-.7677994-1.5195007-1.8740997-3.1113968-1.5774002-4.8981018.2003021-1.2112961 1.2422028-2.9521942 2.2777023-3.6877975 3.3017005-2.3409959 6.5685004 2.1932983 7.6624984 4.7132034z" fill="#ff6161"/></g><g><path d="m96.7114487 35.3046837c-1.9899979-1.9500008-12.5699997 3.5-23.909996 12.3499985-11.5100022 8.9901008-19.4300042 18.0699958-17.7000046 20.2900962l-12.0799981-15.4700965c-.2099991-.2798996-.2800026-.6599007-.2099991-1.1399002.5-3.3400002 7.8199997-11.2901001 17.9099998-19.160099 11.3300018-8.8499012 21.9199982-14.2899017 23.9000015-12.3499012l9.1199951 11.6800003z" fill="#4f575f"/></g><g><path d="m44.6375504 75.1759796c1.1084175 2.0251236 2.5577507 5.0272064 3.0886993 7.2652054-.4902153-.8091812-.9258919-.7828751-1.3957024-.3201065-.0094185-1.1091156-.5391197-4.1178436-1.6929969-6.9450989z" fill="#f04444"/></g><g><path d="m46.5058479 73.2355804c1.7934723 2.7080612 4.2712097 6.6363525 5.1211014 9.9618988-.2294006-.2938004-.4542999-.5820007-.7358017-.8260956-.384697-.3181-.9095001-.5360031-1.3901978-.4062042-1.0055007-2.9072952-2.0009002-5.8134994-2.9951019-8.729599z" fill="#f04444"/></g><g opacity=".4"><g><path d="m107.7738495 46.5537834c5.4680176.2423897 9.3768463 4.2074127 13.0024109 7.859787 2.0431137 2.0582314 5.2253342-1.1235123 3.1819763-3.1819801-4.5479202-4.5815582-9.4207687-8.8779831-16.1843872-9.1778069-2.8953781-.1283493-2.8891068 4.3719292 0 4.5z" fill="#fff"/></g></g><g opacity=".4"><g><path d="m125.8280563 61.0701714c1.3787918 1.7808037 1.7633209 2.6964111 3.1684952 2.6964111 1.3041687 0 2.2996674-1.1410675 2.25-2.25-.0462799-1.0333557-.5700989-1.4761009-2.2365112-3.6283913-.3269348-.4222527-1.0864563-.659008-1.5909882-.659008-1.3041687 0-2.299675 1.1410675-2.25 2.25.0285492.6374092.2723618 1.0916061.6590042 1.5909882z" fill="#fff"/></g></g><g><path d="m96.7114487 35.3046837c-1.9899979-1.9500008-12.5699997 3.5-23.909996 12.3499985-11.5100022 8.9901008-19.4300042 18.0699958-17.7000046 20.2900962l-12.0799981-15.4700965c-.2099991-.2798996-.2800026-.6599007-.2099991-1.1399002 19.2875443 1.644062 36.4955025-10.5461426 50.9299965-19.8299999z" fill="#3d4449"/></g><g opacity=".4"><g><path d="m66.8478699 36.7045898c2.0018234-1.4792747 4.0868378-2.8254814 6.2588959-4.0410995 2.5273895-1.4144859.2611465-5.3028965-2.2712326-3.8856182-2.1720581 1.21562-4.2570801 2.5618248-6.2589035 4.0411015-.9757996.7210808-1.4674225 1.949646-.8071899 3.0784264.5629271.9624251 2.0955657 1.5334891 3.0784301.8071898z" fill="#fff"/></g></g><g opacity=".4"><g><path d="m78.898468 29.6490917c.3225632-.215271.645134-.4305305.9676971-.6458015.9774628-.6523323 1.4927597-2.0150642.8071899-3.0784264-.6282043-.9743977-2.0313568-1.5059757-3.0784225-.8071918-.3225632.215271-.645134.4305305-.9677048.6458015-.9774551.6523323-1.4927521 2.0150642-.8071899 3.0784264.628212.9743976 2.0313645 1.5059757 3.0784302.8071918z" fill="#fff"/></g></g></g></svg>