<?xml version="1.0" encoding="UTF-8"?>
<!-- Generator: Adobe Illustrator 25.2.3, SVG Export Plug-In . SVG Version: 6.00 Build 0)  -->
<svg xmlns="http://www.w3.org/2000/svg" xmlns:xlink="http://www.w3.org/1999/xlink" version="1.1" id="Capa_1" x="0px" y="0px" viewBox="0 0 512 512" style="enable-background:new 0 0 512 512;" xml:space="preserve" width="512" height="512">
<g>
	<path style="fill:#FFC700;" d="M506.954,319.537C479.158,429.34,344.262,489.909,205.664,454.824   C67.066,419.733-22.753,302.266,5.048,192.465C32.843,82.658,167.739,22.091,306.337,57.177   C444.932,92.268,534.748,209.729,506.954,319.537z"/>
	<path style="fill:#000B38;" d="M224.253,293.692c0,0,22.002-60.321,100.063-49.677   C324.316,244.015,253.351,210.663,224.253,293.692z"/>
	<g>
		<path style="fill:#FFFFFF;" d="M215.435,264.118c-10.244,44.486-34.333,76.925-53.81,72.445    c-19.483-4.482-26.978-44.185-16.737-88.678c10.231-44.493,34.327-76.93,53.804-72.45    C218.174,179.916,225.666,219.619,215.435,264.118z"/>
		<path style="fill:#000B38;" d="M209.83,272.546c-2.227,8.911-8.363,15.068-13.699,13.735c-5.339-1.339-7.858-9.648-5.631-18.57    c2.227-8.91,8.367-15.068,13.699-13.735C209.535,255.308,212.054,263.621,209.83,272.546z"/>
	</g>
	<g>
		<path style="fill:#000B38;" d="M289.412,326.62l13.765,88.019l20.631,1.721c0,0,12.04-11.455,12.04-12.03    c0-0.572,1.008-11.646,1.008-11.646l-2.872-17.379l-8.312-27.108l-20.199-38.003l-12.902-16.418l-3.157-1.915l2.156,18.139    l-1.151,11.459L289.412,326.62z"/>
		<path style="fill:#000B38;" d="M287.794,287.027c0,0,12.993,77.395-39.75,41.755c0,0,52.902,43.843,44.334-33.095    c0,0,32.865,35.64,41.274,89.617c8.406,53.972-56.948,17.308-56.948,17.308s50.069,34.121,61.152,3.052    C348.937,374.61,307.251,302.273,287.794,287.027z"/>
		<path style="fill:#000B38;" d="M283.969,295.113c0,0,5.586-13.179,30.956,0.953c0,0-19.921-21.77-34.534-10.315L283.969,295.113z"/>
		<path style="fill:#FFFFFF;" d="M291.876,328.429l2,8.546l17.862-14.984l-19.36-26.304    C292.378,295.687,296.171,315.822,291.876,328.429z"/>
		<path style="fill:#FF7777;" d="M336.855,385.508c0,0,3.144,27.207-16.779,30.27C320.076,415.778,317.229,375.169,336.855,385.508z    "/>
	</g>
</g>















</svg>
