<?xml version="1.0" encoding="UTF-8"?>
<!-- Generator: Adobe Illustrator 26.0.3, SVG Export Plug-In . SVG Version: 6.00 Build 0)  -->
<svg xmlns="http://www.w3.org/2000/svg" xmlns:xlink="http://www.w3.org/1999/xlink" version="1.1" id="Capa_1" x="0px" y="0px" viewBox="0 0 512 512" style="enable-background:new 0 0 512 512;" xml:space="preserve" width="512" height="512">
<g>
	<g>
		<polygon style="fill:#009C77;" points="11.537,38.111 502.623,65.119 461.741,475.544 6.023,473.685   "/>
		<polygon style="opacity:0.2;fill:#FFFFFF;" points="502.623,65.119 461.741,475.544 6.023,473.685   "/>
	</g>
	<g>
		<polygon style="fill:#FF6700;" points="322.396,414.114 397.982,449.353 448.984,360.039 457.008,380.734 423.127,472.792     318.156,469.732   "/>
		<g>
			<g>
				<path style="fill:#FFFFFF;" d="M497.983,159.024l-12.863,80.358c-1.174,12.743-22.89,23.29-33.765,33.447      c0,0-141.662-51.193-85.08-122.924c4.209-1.601,8.456-3.119,12.78-4.518C455.783,120.518,497.983,159.024,497.983,159.024z"/>
				<path style="fill:#009C77;" d="M376.476,155.477c4.911,49.011,58.027,73.824,101.745,78.348c1.026,0.109,2.26-1.369,0.778-1.52      c-43.201-4.471-95.482-29.007-100.331-77.413C378.572,153.94,376.374,154.469,376.476,155.477L376.476,155.477z"/>
				<path style="fill:#009C77;" d="M390.368,167.499c7.247,12.17,27.4,17.937,39.971,22.439c20.128,7.203,42.094,6.299,62.811,2.766      c1.145-0.193,1.719-1.733,0.227-1.476c-21.035,3.578-41.166,3.491-61.749-2.679c-11.355-3.404-32.778-11.123-39.245-21.985      C391.92,165.788,389.814,166.567,390.368,167.499L390.368,167.499z"/>
				<path style="fill:#009C77;" d="M406.351,143.184c-1.703,13.64,17.988,24.948,28.787,28.218      c17.211,5.216,34.962,5.728,52.801,6.26c0.421,0.014,2.489-0.801,1.436-0.834c-16.231-0.484-32.355-1.027-48.186-4.947      c-11.936-2.954-34.528-14.231-32.648-29.282C408.567,142.395,406.43,142.563,406.351,143.184L406.351,143.184z"/>
			</g>
			<path style="fill:#FFBC8C;" d="M487.09,239.024l-5.144,40.122c-14.621,3.253-29.097,0.134-29.097,0.134l13.024,39.346     l-5.948,8.449l-10.937-5.317l-20.451-13.556c0,0-42.473,27.442-57.657,20.502c-7.674-3.505-6.105-7.657-2.682-10.941     c-24.5-1.811-106.553-10.566-115.947-46.379c-10.454-39.805,43.449-94.558,114.025-121.48     c6.71,80.171,88.232,106.871,88.232,106.871c10.875-10.157,21.591-15.552,30.613-17.394     C485.807,239.254,486.43,239.125,487.09,239.024z"/>
			<g>
				<path style="fill:#00133E;" d="M362.821,287.405c-3.393,0-7.187-0.406-11.371-1.218l-0.654-0.126l1.121-17.498      c-4.516,1.069-22.249,4.664-25.076-3.905c-0.561-1.699-0.356-3.063,0.607-4.054c3.166-3.242,14.093-0.75,18.587,0.456      c-1.628-3.233-4.415-10.921-0.974-21.121l1.432,0.484c-4.25,12.601,1.683,21.347,1.742,21.437l1.237,1.778l-2.074-0.624      c-4.342-1.302-16.196-4.09-18.864-1.355c-0.203,0.207-0.813,0.834-0.256,2.525c2.733,8.284,24.052,2.718,24.269,2.668      l1.013-0.271l-1.17,18.248c12.593,2.329,21.321,0.843,25.96-4.437c6.824-7.766,2.434-21.314,2.39-21.448l1.437-0.479      c0.195,0.588,4.701,14.513-2.689,22.923C375.967,285.395,370.383,287.405,362.821,287.405z"/>
				<path style="fill:#00133E;" d="M376.927,330.589c-2.406,0-4.559-0.364-6.362-1.187c-3.949-1.809-5.949-4.009-5.948-6.546      c0.004-5.126,8.494-9.729,11.08-11.014l-12.951-24.508l1.335-0.705l13.696,25.91l-0.729,0.333      c-3.036,1.386-10.916,5.879-10.919,9.983c0,1.89,1.705,3.631,5.066,5.168c14.625,6.688,56.508-20.177,56.928-20.449l0.414-0.271      l20.864,13.824l-0.836,1.263l-20.038-13.279C424.392,311.745,394.214,330.587,376.927,330.589z"/>
				<path style="fill:#00133E;" d="M436.463,278.578c-35.451-34.573-60.352-15.664-60.598-15.468l-0.937-1.187      c0.259-0.204,26.201-19.922,62.589,15.574L436.463,278.578z"/>
			</g>
			<path style="fill:#00133E;" d="M357.205,249.055c-1.558-6.372-1.061-13.032,0.134-19.418c1.266-6.764,7.622-23.08,17.065-15.44     c8.721,7.047,5.875,25.575,6.002,35.298c0.025,1.98,4.419,1.081,4.398-0.49c-0.132-9.969,3.21-38.954-12.66-39.27     c-18.758-0.375-22.732,26.566-19.323,40.494C353.232,251.9,357.619,250.752,357.205,249.055L357.205,249.055z"/>
			<g>
				<path style="fill:#00133E;" d="M312.388,250.718c-1.56-6.372-1.06-13.032,0.136-19.416c1.267-6.767,7.622-23.083,17.065-15.443      c8.718,7.05,5.875,25.572,5.999,35.298c0.025,1.982,4.419,1.083,4.4-0.49c-0.13-9.967,3.208-38.951-12.659-39.268      c-18.758-0.378-22.736,26.566-19.323,40.494C308.415,253.566,312.804,252.418,312.388,250.718L312.388,250.718z"/>
				<path style="fill:#00133E;" d="M295.922,246.743c3.172,2.609,7.465,3.653,11.516,3.323c2.541-0.207,3.308-3.673,0.33-3.432      c-3.07,0.252-6.107-0.568-8.5-2.537C297.644,242.756,293.901,245.077,295.922,246.743L295.922,246.743z"/>
				<path style="fill:#00133E;" d="M296.535,236.95c0.686,4.112,6.31,6.677,9.818,7.811c1.671,0.543,5.169-1.884,2.592-2.716      c-2.81-0.913-7.481-2.99-8.028-6.268C300.614,233.96,296.219,235.043,296.535,236.95L296.535,236.95z"/>
			</g>
			<path style="fill:#00133E;" d="M381.681,245.951c6.295,0.509,11.908-1.99,16.131-6.585c0.851-0.924-3.27-0.35-3.95,0.392     c-2.67,2.906-5.215,4.824-9.314,4.488C383.67,244.176,379.538,245.771,381.681,245.951L381.681,245.951z"/>
			<path style="fill:#00133E;" d="M381.973,242.487c3.168-0.3,6.414-1.237,8.852-3.365c2.448-2.136,3.348-5.454,3.841-8.539     c0.053-0.33-4.183-0.075-4.382,1.176c-0.567,3.555-2.104,8.729-6.369,9.135c-0.962,0.093-2.175,0.389-2.941,1.013     C380.205,242.532,381.663,242.518,381.973,242.487L381.973,242.487z"/>
			<polygon style="fill:#FFFFFF;" points="354.082,185.335 398.61,206.568 350.944,193.849    "/>
			<polygon style="fill:#FFFFFF;" points="299.963,201.573 340.138,196.61 302.076,210.401    "/>
			<path style="fill:#00133E;" d="M479.824,250.615c-9.607-1.056-16.319,5.734-14.865,14.138     c1.457,8.399,18.395,13.388,13.385-1.207l5.17,0.745l-7.114-2.651c0,0,4.933,9.485-2.241,9.737     c-7.177,0.263-10.618-9.535-6.569-14.552c3.063-3.777,10.571-7.705,17.773-1.271l-0.294-2.746     C483.607,251.673,481.886,250.839,479.824,250.615z"/>
		</g>
		<g>
			<path style="fill:#FF6700;" d="M410.716,476.653l23.195-69.893c0,0-67.971-14.723,21.7-87.035l25.947,0.859l-17.39,158.757     L410.716,476.653z"/>
			<path style="fill:#00133E;" d="M412.151,477.126l-2.87-0.952l22.686-68.353c-5.077-1.445-20.286-6.898-23.614-20.941     c-4.092-17.263,11.487-40.25,46.307-68.334l1.898,2.357c-42.143,33.985-47.875,54.257-45.263,65.279     c3.49,14.723,22.74,19.057,22.935,19.097l1.646,0.358L412.151,477.126z"/>
			<polygon style="fill:#00133E;" points="458.891,361.444 436.081,336.841 438.298,334.786 458.5,356.57 479.582,324.954      482.1,326.634    "/>
			
				<rect x="443.399" y="338.281" transform="matrix(0.5851 -0.811 0.811 0.5851 -88.4858 506.6383)" style="fill:#00133E;" width="14.956" height="3.025"/>
			
				<rect x="446.432" y="341.732" transform="matrix(0.3944 -0.9189 0.9189 0.3944 -39.2944 626.8644)" style="fill:#00133E;" width="19.034" height="3.024"/>
			
				<rect x="460.998" y="332.971" transform="matrix(0.9792 -0.2027 0.2027 0.9792 -59.6859 100.8262)" style="fill:#00133E;" width="3.026" height="17.8"/>
			<polygon style="fill:#00133E;" points="468.3,342.771 464.521,327.745 467.455,327 471.234,342.034    "/>
			
				<rect x="471.056" y="317.527" transform="matrix(0.9127 -0.4086 0.4086 0.9127 -92.2328 221.6176)" style="fill:#00133E;" width="3.024" height="18.295"/>
			
				<rect x="438.843" y="333.151" transform="matrix(0.6573 -0.7536 0.7536 0.6573 -99.2023 451.1672)" style="fill:#00133E;" width="15.285" height="3.024"/>
		</g>
		<g>
			<polygon style="fill:#93BD35;" points="457.683,346.438 433.802,322.042 448.759,312.498 453.149,318.022 453.669,308.587      481.24,305.667    "/>
			<polygon style="fill:#00133E;" points="452.939,334.263 442.397,331.53 442.775,330.069 451,332.196 447.304,313.097      448.79,312.806    "/>
			<polygon style="fill:#00133E;" points="458.597,332.891 453.682,308.654 455.163,308.36 459.585,330.158 477.468,315.816      478.414,316.997    "/>
		</g>
	</g>
	<g>
		<g>
			<path style="fill:#FFFFFF;" d="M104.732,236.533c-17.729-33.221-45.562-50.742-54.921-35.724     c-15.265-17.179,5.657-20.953,5.657-20.953s-21.389-15.252-17.341-24.41c3.949-8.936,24.238,1.38,25.199,1.859     c-0.439-0.714-7.6-11.425-6.074-14.539c1.547-3.203,15.087,2.573,15.087,2.573s-1.049-24.225,10.073-26.927     c2.846-0.697,5.867,1.993,8.799,6.397l20.486,11.39c0,0,28.341,6.065,30.611,16.866     C144.608,163.831,104.732,236.533,104.732,236.533z"/>
			<path style="fill:#FFBC8C;" d="M254.323,227.005l-12.822,4.091c-12.012,27.588-63.485,62.519-82.911,74.983l0.006,0.031     c1.783,5.347,0.322,10.493-5.217,11.627c-11.187,2.343-13.931-9.166-13.931-9.166l-27.756,42.879l-22.284,13.01L85.526,345.1     l22.653-98.192c-1.477,0.706-48.941,23.564-60.706-13.368c-4.111-12.945-2.573-24.819,2.338-32.731     c9.359-15.017,30.786-15.768,48.515,17.453c0,0,23.199-46.569,20.901-57.334c-2.271-10.801-11.754,3.891-11.754,3.891     s-7.726-27.196-16.26-40.01c16.297-49.391,72.686-85.61,124.196-53.96c20.439,12.565,34.246,35.352,37.035,60.343     C257.66,177.928,254.161,226.084,254.323,227.005z"/>
			<g>
				<path style="fill:#00133E;" d="M156.43,219.242l-11.206-64.162l74.014-11.588l4.293,66.142L156.43,219.242z M152.246,160.105      l9.135,52.317l55.749-7.982l-3.502-53.952L152.246,160.105z"/>
				<path style="fill:#00133E;" d="M230.061,209.018l-5.746-66.43l74.802-5.12l-2.678,65.134L230.061,209.018z M230.872,148.204      l4.688,54.204l55.048-5.325l2.185-53.12L230.872,148.204z"/>
				
					<rect x="86.718" y="194.662" transform="matrix(0.9828 -0.1849 0.1849 0.9828 -34.468 25.7775)" style="fill:#00133E;" width="68.505" height="6.048"/>
				
					<rect x="218.596" y="177.414" transform="matrix(0.9884 -0.152 0.152 0.9884 -24.8172 36.2367)" style="fill:#00133E;" width="12.019" height="6.053"/>
			</g>
			<g>
				<path style="fill:#FFFFFF;" d="M166.187,251.765l-13.958,31.902h-0.031c-16.108,1.282-42.875-2.447-0.07-52.857      C152.128,230.81,151.248,247.454,166.187,251.765z"/>
				<path style="fill:#00133E;" d="M112.643,352.068l-1.905-1.234l29.207-45.083l0.619,2.562c0.103,0.426,2.636,10.398,12.57,8.326      c4.299-0.893,5.008-4.272,5.049-6.207c0.123-5.991-5.253-13.85-14.162-16.095l-2.57-0.652l14.778-9.284      c-7.958,1.081-21.781,1.66-26.64-6.263c-5.322-8.684,1.97-24.855,21.673-48.061l2.166-2.551l-0.168,3.343      c-0.005,0.112-0.472,11.375,7.755,17.212c7.675,5.445,20.275,4.695,37.452-2.206l2.375-10.462l2.212,0.504l-2.636,11.616      l-0.547,0.224c-18.237,7.43-31.756,8.152-40.188,2.161c-6.512-4.631-8.173-11.999-8.578-16.126      c-21.832,26.28-22.758,37.971-19.58,43.162c5.973,9.751,29.741,4.261,29.98,4.199l6.655-1.573l-21.179,13.312      c8.543,3.239,13.602,11.294,13.47,17.582c-0.094,4.379-2.656,7.517-6.856,8.388c-8.824,1.831-12.864-4.267-14.417-7.752      L112.643,352.068z"/>
				
					<rect x="120.969" y="255.994" transform="matrix(0.6342 -0.7732 0.7732 0.6342 -146.5821 202.9289)" style="fill:#00133E;" width="40.391" height="0.757"/>
				<polygon style="fill:#00133E;" points="133.408,280.532 132.788,280.101 156.533,246.065 157.152,246.499     "/>
				<polygon style="fill:#00133E;" points="146.549,284.023 145.861,283.704 161.529,249.8 162.218,250.114     "/>
				<polygon style="fill:#00133E;" points="161.737,261.83 138.595,248.524 138.973,247.871 162.115,261.175     "/>
				<path style="fill:#00133E;" d="M114.851,259.764l-2.044-0.986c16.462-34.158,46.554-31.807,46.855-31.784l-0.204,2.259      C159.162,229.228,130.61,227.067,114.851,259.764z"/>
				<path style="fill:#00133E;" d="M254.485,227.927c0,0-59.912,15.871-63.166,6.694c-3.253-9.144,13.566-15.491,20.026-4.768      c0,0-16.358-8.517-18.443,4.236l59.857-6.988l-0.315-95.907C262.698,176.861,254.485,227.927,254.485,227.927z"/>
			</g>
			<path style="fill:#00133E;" d="M179.527,187.981c0.491,4.636-1.461,8.642-4.362,8.953c-2.904,0.305-5.651-3.203-6.144-7.845     c-0.491-4.636,1.46-8.645,4.36-8.953C176.285,179.828,179.034,183.34,179.527,187.981z"/>
			<path style="fill:#00133E;" d="M247.344,179.266c0.493,4.636-1.457,8.645-4.36,8.953c-2.9,0.311-5.65-3.203-6.142-7.842     c-0.491-4.636,1.459-8.646,4.362-8.953C244.105,171.113,246.854,174.627,247.344,179.266z"/>
			<path style="fill:#FFFFFF;" d="M165.321,177.928l-8.525-3.108c0.15-0.406,3.746-9.995,13.73-13.939     c7.531-2.987,16.378-1.954,26.291,3.049l-4.09,8.099c-7.496-3.782-13.84-4.695-18.864-2.71     C167.728,171.746,165.344,177.869,165.321,177.928z"/>
			<path style="fill:#FFFFFF;" d="M259.713,168.918c-2.689-4.953-5.999-7.931-9.841-8.844c-6.324-1.498-12.607,2.794-12.668,2.833     l-5.234-7.408c0.385-0.274,9.559-6.677,19.9-4.275c6.502,1.512,11.824,6.008,15.818,13.365L259.713,168.918z"/>
			<path style="fill:#00133E;" d="M50.419,235.541c0,0-0.892-23.234,11.469-27.924c12.369-4.692,23.444,4.261,24.241,18.357     c0.798,14.096-19.996,27.459-18.097,2.192l-6.595,2.816l8.554-6.523c0,0-3.462,16.938,6.119,15.129     c9.583-1.798,10.962-18.786,3.974-25.673C73.099,207.041,55.685,202.117,50.419,235.541z"/>
		</g>
		<g>
			<polygon style="fill:#93BD35;" points="126.737,347.057 137.619,473.175 11.718,473.475 12.962,348.381 73.528,324.895      97.015,354.16    "/>
			<polygon style="fill:#00133E;" points="144.337,458.869 30.534,453.407 53.375,350.559 56.329,351.214 34.266,450.563      144.482,455.848    "/>
		</g>
		<g>
			<polygon style="fill:#FFFFFF;" points="84.082,377.951 65.971,325.494 81.674,308.626 105.891,325.446 101.061,348.017      122.123,327.91 138.182,339.512 125.749,354.901    "/>
			<path style="fill:#00133E;" d="M88.299,353.899l-0.654-0.826c-7.566-9.592-20.3-25.765-20.549-26.311l1.344-0.689     c0.479,0.759,11.826,15.199,19.74,25.239l17.077-26.275l1.268,0.82L88.299,353.899z"/>
			<polygon style="fill:#00133E;" points="103.248,357.844 121.474,327.524 122.771,328.299 106.092,356.049 125.676,354.151      125.821,355.657    "/>
		</g>
	</g>
	<g>
		<g>
			<path style="fill:#91400C;" d="M234.473,447.229l-8.249,28.169l-93.437-0.193c-7.17,0.37-20.003-2.167-25.312-9.211     c-4.047-6.014,16.392-24.976,18.762-31.308c2.103-5.151,1.065-4.281-3.285-5.737c-5.071-1.349-10.566,0.753-13.106-5.423     c-2.026-4.745,0.826-10.006,2.685-13.979c1.578-2.898,3.555-6.912,6.015-10.672c0,0,10.905-1.37,19.925-6.673     c0.518-0.269,8.295,1.627,8.84,1.297C152.631,410.392,175.374,445.838,234.473,447.229z"/>
			<path style="fill:#E28749;" d="M134.281,471.389c-21.687-1.915,9.455-27.294,8.756-35.62c-0.554-6.601-3.596-10.096-7.74-15.16     c-10.227-12.509-8.809-26.538,0.931-38.66c0.634-0.79-1.584-0.658-2.051-0.079c-4.864,6.056-9.615,13.601-8.421,21.871     c2.222,15.362,20.317,25.477,11.306,41.191c-4.227,7.377-24.173,25.941-3.616,27.758     C134.321,472.767,135.763,471.521,134.281,471.389L134.281,471.389z"/>
			<path style="fill:#E28749;" d="M143.216,472.338c9.842,4.894,22.054,0.008,28.502-7.971c5.955-7.369,0.407-19.791-2.419-27.033     c-7.103-18.198-11.551-34.049,7.154-47.235c0.925-0.65-1.278-0.406-1.691-0.115c-9.07,6.392-14.026,13.458-14.599,24.763     c-0.397,7.881,4.018,16.12,6.945,23.175c1.919,4.622,3.303,9.172,4.398,14.046c3.108,13.844-13.903,25.732-26.231,19.6     C144.683,471.274,142.896,472.179,143.216,472.338L143.216,472.338z"/>
		</g>
		<g>
			<path style="fill:#91400C;" d="M356.089,418.7c-3.598,9.113-20.702,9.012-16.416,20.726     c4.285,11.711,22.575,12.083,15.829,27.616c-1.695,3.861-3.925,6.649-6.571,8.634l-108.956-0.243l-10.603-23.638     c14.8-2.996,59.71-27.09,77.806-67.889c1.765,0.91,16.371,3.325,17.88,3.775c9.207,3.068,18.657,4.44,18.657,4.44     c1.972,3.077,4.118,6.103,6.349,9.334C353.59,406.009,358.102,412.403,356.089,418.7z"/>
			<path style="fill:#E28749;" d="M335.683,477.302c28.23-25.997-52.206-24.897-19.119-50.699     c19.119-14.902,21.343-33.92,11.031-55.391c-0.287-0.599-2.402,0.148-2.191,0.588c5.433,11.313,8.172,22.073,5.193,34.62     c-3.133,13.2-16.004,18.105-23.846,27.613c-15.381,18.654,53.71,18.716,26.934,43.378     C333.16,477.893,335.271,477.677,335.683,477.302L335.683,477.302z"/>
			<path style="fill:#E28749;" d="M283.062,475.174c5.476-1.565,16.945-7.385,14.54-14.905c-2.219-6.94-7.983-10.944-13.052-15.868     c-10.11-9.818-6.358-23.332-0.225-33.999c0.256-0.445-1.828-0.271-2.175,0.33c-6.162,10.717-8.759,20.541-2,31.678     c1.802,2.973,5.038,5.395,7.578,7.691c9.674,8.754,10.25,19.855-4.901,24.195C281.542,474.665,281.769,475.544,283.062,475.174     L283.062,475.174z"/>
		</g>
		<g>
			<path style="fill:#FFBC8C;" d="M347.984,383.002c-1.201,3.315-2.573,6.445-4.268,9.118c-4.054,6.484-9.907,10.118-19.113,7.05     c-1.509-0.451-3.318-1.142-5.083-2.052c-18.096,40.799-63.3,53.076-78.1,56.071l-1.445,22.243l-13.752-0.034l-2.202-20.76     c-59.099-1.391-77.138-35.53-82.459-52.423c-0.546,0.33-1.057,0.661-1.575,0.929c-9.02,5.302-15.861,2.164-21.442-4.269     c-1.727-1.946-3.305-4.211-4.81-6.638c-4.68-8.265-12.337-30.267,0.844-35.074c4.247-1.54,8.536-0.115,12.475,2.634l17.916-7.855     c13.745-6.352,95.552-71.937,95.552-71.937l74.582,55.379l16.585,15.605c2.445-1.66,5.151-2.522,8.113-2.108     C353.7,350.848,350.829,373.97,347.984,383.002z"/>
			<g>
				<path style="fill:#00133E;" d="M193.935,379.18c-1.865-7.271-0.796-15.701,1.858-22.635c2.895-7.559,10.725-10.851,15.048-3.119      c4.17,7.464,4.499,17.671,4.255,26.028c-0.06,2.164,4.313,1.052,4.368-0.84c0.274-9.493,0.237-27.912-10.062-32.596      c-5.501-2.506-11.764,1.727-15.113,5.75c-5.96,7.167-6.784,20.477-4.59,29.041C190.184,382.693,194.441,381.151,193.935,379.18      L193.935,379.18z"/>
				<path style="fill:#00133E;" d="M179.261,376.783c2.237,2.607,6.554,1.324,9.45,0.983c0.833-0.098,2.172-1.534,0.703-1.361      c-2.521,0.297-6.291,1.551-8.223-0.7C180.697,375.126,178.662,376.087,179.261,376.783L179.261,376.783z"/>
				<path style="fill:#00133E;" d="M179.653,369.272c0.837,3.522,5.522,5.233,8.753,5.398c0.508,0.028,2.279-0.98,1.712-1.005      c-3.101-0.168-7.551-1.848-8.347-5.204C181.683,368.077,179.533,368.746,179.653,369.272L179.653,369.272z"/>
				<path style="fill:#00133E;" d="M182.737,363.788c0.003,3.617,3.744,6.165,7.002,6.688c0.87,0.143,2.476-1.285,1.142-1.495      c-2.71-0.439-5.968-2.606-5.968-5.63C184.915,362.304,182.739,362.892,182.737,363.788L182.737,363.788z"/>
			</g>
			<g>
				<path style="fill:#00133E;" d="M268.708,374.913c1.14-7.419-0.763-15.701-4.097-22.341c-3.634-7.232-11.756-9.723-15.283-1.601      c-3.409,7.839-2.719,18.027-1.646,26.328c0.281,2.142-4.181,1.464-4.425-0.403c-1.219-9.418-3.018-27.756,6.765-33.442      c5.225-3.04,11.88,0.549,15.606,4.222c6.648,6.532,8.791,19.704,7.461,28.442C272.796,378.035,268.405,376.926,268.708,374.913      L268.708,374.913z"/>
				<path style="fill:#00133E;" d="M283.076,371.067c-1.964,2.816-6.392,1.974-9.309,1.918c-0.839-0.014-2.311-1.307-0.832-1.282      c2.538,0.042,6.414,0.918,8.111-1.512C281.483,369.56,283.602,370.314,283.076,371.067L283.076,371.067z"/>
				<path style="fill:#00133E;" d="M281.938,363.634c-0.482,3.586-4.975,5.753-8.172,6.243c-0.503,0.076-2.36-0.747-1.8-0.831      c3.068-0.47,7.325-2.587,7.78-6.014C279.8,362.643,282.007,363.093,281.938,363.634L281.938,363.634z"/>
				<path style="fill:#00133E;" d="M278.321,358.485c0.362,3.598-3.109,6.501-6.298,7.349c-0.855,0.227-2.592-1.027-1.288-1.378      c2.653-0.703,5.682-3.183,5.382-6.19C276.011,357.225,278.23,357.592,278.321,358.485L278.321,358.485z"/>
			</g>
			<path style="fill:#00133E;" d="M221.218,386.593c-0.185-0.566-1.026-3.458,0.554-4.731c0.879-0.703,2.038-0.56,3.022-0.216     c0.092-0.792,0.35-1.708,0.957-2.55c1.054-1.459,2.821-2.296,5.254-2.481c2.328-0.179,4.1,0.381,5.295,1.663     c0.855,0.918,1.232,2.035,1.39,2.998c1.183-0.579,2.521-0.915,3.448-0.241c1.316,0.963,0.683,2.959,0.476,3.62l-2.162-0.683     c0.157-0.501,0.21-0.823,0.224-1.019c-0.539,0.118-1.579,0.633-2.404,1.215l-2.136,1.509l0.358-2.595     c0.003-0.017,0.27-2.061-0.862-3.264c-0.703-0.75-1.876-1.075-3.452-0.943c-1.727,0.137-2.93,0.647-3.575,1.531     c-0.878,1.198-0.512,2.794-0.508,2.811l0.613,2.581l-2.287-1.336c-1.702-0.991-2.237-0.831-2.244-0.826     c-0.175,0.224-0.085,1.392,0.196,2.262L221.218,386.593z"/>
			<g>
				<path style="fill:#00133E;" d="M218.416,390.068c0,0,9.279,23.539,22.498-2.388c0,0,9.116,44.85-9.708,48.37      C212.385,439.568,218.416,390.068,218.416,390.068z"/>
				<path style="fill:#FFFFFF;" d="M219.534,395.491c0,0,10.45,15.563,20.442-3.371l-0.426,17.005l2.399,11.154      c0,0-10.707,31.191-22.415,1.237l2.132-10.325L219.534,395.491z"/>
				<polyline style="fill:#00133E;" points="219.534,409.814 226.224,411.95 218.361,411.398     "/>
				<polyline style="fill:#00133E;" points="241.221,407.473 234.473,411.191 241.221,409.814     "/>
			</g>
			<path style="fill:#91400C;" d="M187.758,344.431l-2.404-1.839c0.157-0.204,15.586-20.006,33.116-8.99l-1.611,2.565     C201.679,326.62,188.318,343.703,187.758,344.431z"/>
			<path style="fill:#91400C;" d="M270.766,340.201c-6.813-7.853-13.266-11.728-19.186-11.423c-6.07,0.277-9.53,4.995-9.565,5.042     l-2.465-1.753c0.171-0.244,4.289-5.938,11.838-6.313c6.945-0.367,14.191,3.855,21.662,12.464L270.766,340.201z"/>
			<path style="fill:#00133E;" d="M113.861,389.665c0,0-0.652-14.001,5.727-16.722c6.386-2.727,12.211,2.755,12.737,11.252     c0.53,8.497-10.16,16.369-9.379,1.167l-3.403,1.646l4.386-3.855c0,0-1.659,10.171,3.301,9.155c4.965-1,5.541-11.218,1.858-15.426     C125.404,372.685,116.324,369.58,113.861,389.665z"/>
			<path style="fill:#00133E;" d="M348.191,378.743c0,0-2.298-13.827-9.106-15.149c-6.817-1.327-11.358,5.252-10.093,13.674     c1.261,8.418,13.368,13.875,9.412-0.826l3.673,0.896l-5.098-2.85c0,0,3.757,9.597-1.303,9.645     c-5.063,0.065-7.775-9.807-5.055-14.695C333.343,364.563,341.572,359.619,348.191,378.743z"/>
		</g>
		<g>
			<path style="fill:#91400C;" d="M331.69,350.99c-4.793,3.248-8.577,9.485-11.197,14.844c-56.12-23.187-80.771-80.07-80.771-80.07     c-57.543,60.036-87.468,79.605-101.213,85.957c-2.882-3.95-6.921-8.785-11.455-11.924     c14.022-23.847,54.229-82.407,112.666-84.683C291.552,273.118,319.645,322.003,331.69,350.99z"/>
			<g>
				<path style="fill:#E28749;" d="M245.775,281.892c4.864,34.231,46.526,57.754,74.092,70.198c0.928,0.42,2.539-0.915,1.263-1.489      c-27.111-12.24-68.367-35.55-73.164-69.299C247.82,280.277,245.622,280.826,245.775,281.892L245.775,281.892z"/>
				<path style="fill:#E28749;" d="M257.048,290.202c10.439,23.509,40.067,36.58,62.835,43.319c0.595,0.173,2.57-0.736,1.767-0.974      c-22.582-6.683-52.04-19.572-62.411-42.933C258.94,288.939,256.8,289.645,257.048,290.202L257.048,290.202z"/>
				<path style="fill:#E28749;" d="M134.681,355.375c40.123-8.208,74.705-39.909,97.292-72.267c0.193-0.274-1.786-0.173-2.164,0.37      c-21.984,31.49-55.66,63.026-94.739,71.019C134.182,354.68,133.151,355.688,134.681,355.375L134.681,355.375z"/>
				<path style="fill:#E28749;" d="M153.83,342.885c23.734-12.604,49.21-32.412,58.56-58.398c0.437-1.207-1.76-1.218-2.101-0.271      c-9.169,25.48-34.121,44.951-57.439,57.334C151.531,342.25,152.718,343.476,153.83,342.885L153.83,342.885z"/>
			</g>
		</g>
	</g>
	<path style="fill:#00133E;" d="M4.538,29.485L0,479.13l467.712,3.385L512,60.32L4.538,29.485z M460.055,466.84l-441.179-1.025   L19.902,46.14l475.437,24.309L460.055,466.84z"/>
</g>















</svg>
