<?xml version="1.0" encoding="UTF-8"?>
<!-- Generator: Adobe Illustrator 26.0.3, SVG Export Plug-In . SVG Version: 6.00 Build 0)  -->
<svg xmlns="http://www.w3.org/2000/svg" xmlns:xlink="http://www.w3.org/1999/xlink" version="1.1" id="Capa_1" x="0px" y="0px" viewBox="0 0 512 512" style="enable-background:new 0 0 512 512;" xml:space="preserve" width="512" height="512">
<g>
	<polygon style="fill:#009B77;" points="10.157,88.179 497.688,60.94 481.067,438.592 30.077,450.135  "/>
	<g>
		<polygon style="opacity:0.3;fill:#FFFFFF;" points="440.44,64.633 394.112,139.498 410.367,246.419 399.433,248.602     398.67,242.811 383.455,244.866 384.726,251.538 364.137,255.646 363.3,249.331 348.086,251.386 349.457,258.576 222.408,283.931     221.875,279.875 206.661,281.931 207.606,286.886 184.981,291.4 184.469,287.537 169.254,289.593 170.164,294.358     149.172,298.549 148.105,290.47 132.891,292.526 134.593,301.458 119.633,304.443 98.183,169.301 125.622,159.393 21.238,86.794     10.157,88.179 34.779,406.123 132.891,387.962 121.986,319.274 137.541,316.927 151.437,389.903 161.239,389.903 151.325,314.849     173.432,311.516 187.801,386.968 197.606,386.968 187.361,309.414 211.209,305.817 225.204,379.307 235.008,379.307     225.026,303.734 354.342,284.232 366.632,348.76 376.437,348.76 367.646,282.225 389.931,278.865 401.998,342.242     411.802,342.242 403.168,276.868 414.732,275.126 427.513,359.202 485.845,361.962 502.611,60.94   "/>
		<polygon style="fill:#009B77;" points="35.548,185.283 87.719,178.595 96.953,267.79 46.629,272.291   "/>
		<path style="fill:#009B77;" d="M419.665,218.526c0-1.999-13.389-51.816-13.389-51.816l73.405-16.205l-1.846,53.331"/>
	</g>
	<g>
		<polygon style="fill:#FFFFFF;" points="30.285,386.269 485.845,329.951 485.222,436.745 36.472,450.135   "/>
		<path style="fill:#FFFFFF;" d="M494.301,332.098l-49.553,16.62c0,0-10.174-36.419,13.079-27.297c0,0-3.229-6.558,0-7.637    c3.233-1.076,14.161,6.463,14.161,6.463s-1.265-20.313,17.373-21.392"/>
		<path style="fill:#FFFFFF;" d="M26.469,357.952c0,0,16.927-7.795,32.318,11.876c0,0,1.385-3.77,3.845-3.591    c2.464,0.178,4.463,10.018,4.463,10.018s9.696-19.325,27.24-6.426c0,0,15.238-24.506,23.236,8.276    c8.004,32.787-88.488,16.781-88.488,16.781"/>
		<path style="fill:#009B77;" d="M37.597,407.657c6.18-10.006,17.872-3.645,22.734,2.592c0.619,0.795,2.469,0.342,2.581-0.691    c0.749-6.981,10.423,0.245,11.577,1.922c0.553,0.802,2.561,0.335,2.583-0.69c0.126-6.298,5.818-12.906,11.366-6.873    c1.435,1.559,3.289,3.156,4.557,4.87c3.496,4.729,18.853-4.524,17.992,8.361c-0.095,1.39,2.63,1.004,2.708-0.204    c0.351-5.215-3.37-7.58-7.97-9.11c-3.189-1.06-7.184-0.316-10.411-0.493c-1.419-0.077-4.779-4.989-5.904-6.211    c-8.02-8.722-14.894,2.178-15.051,9.862c0.86-0.229,1.721-0.46,2.58-0.69c-3.348-4.865-15.779-9.483-16.737-0.541    c0.859-0.231,1.72-0.461,2.579-0.691c-6.897-8.851-21.045-12.561-27.742-1.719C34.255,408.62,36.985,408.648,37.597,407.657    L37.597,407.657z"/>
		<path style="fill:#009B77;" d="M405.362,389.74c-1.671-3.155,0.169-3.828,5.521-2.019c0.552,0.433,2.545,0.257,2.58-0.692    c0.264-7.259,1.881-13.369,10.236-16.073c7.415-2.401,17.216,0.385,20.635,7.67c0.412,0.875,2.187,0.326,2.588-0.319    c4.44-7.198,12.974,6.284,13.417,9.553c0.127,0.933,2.816,0.311,2.677-0.719c-1.015-7.483-12.946-18.066-18.591-8.915    c0.862-0.107,1.724-0.213,2.584-0.318c-3.822-8.138-13.236-9.915-21.449-8.853c-9.952,1.285-14.433,8.939-14.777,18.298    c0.86-0.231,1.721-0.461,2.58-0.691c-2.491-1.953-5.511-3.859-8.66-1.904c-1.768,1.098-4.079,4.371-1.822,6.042    C403.66,391.376,406.123,390.303,405.362,389.74L405.362,389.74z"/>
		<path style="fill:#009B77;" d="M450.089,357.901c-0.1-4.821,4.616-8.619,8.096-3.591c0.397,0.575,2.325-0.168,2.653-0.608    c4.884-6.568,18.154-13.553,24.813-6.697c0.447,0.461,2.869-0.531,2.527-0.882c-7.73-7.965-24.705,0.998-29.972,8.079    c0.885-0.204,1.769-0.408,2.654-0.609c-4.388-6.343-13.596-2.285-13.448,5.026C447.421,358.984,450.103,358.597,450.089,357.901    L450.089,357.901z"/>
	</g>
	<g>
		<g>
			<path style="fill:#00133E;" d="M191.188,372.756c-6.055,4.209-21.847,13.519-43.138,13.519c0,0-2.162-11.543,0-14.775     c1.699-2.568,16.249-4.562,22.142-5.264c0.02,0,0.02,0,0.02,0L191.188,372.756z"/>
			<path style="fill:#FFFFFF;" d="M140.81,386.276c0,0,1.847-8.043,13.621-2.217c0,0,0.231-5.037,3.001-4.452     c2.769,0.584,2.308,4.452,2.308,4.452s10.388-11.796,21.93-2.177C181.67,381.882,149.813,396.514,140.81,386.276z"/>
			<path style="fill:#00133E;" d="M152.006,138.401c-0.185,8.808-1.811,46.413-3.286,47.408c-2.069,1.367-5.702,0.092-5.702,0.092     l-7.4,4.748c-3.455-4.322-10.901-8.172-8.603-11.648l2.992-15.533L152.006,138.401z"/>
			<path style="fill:#00133E;" d="M133.423,192.363c0,0-1.54,15.391,0.617,14.929c2.153-0.462,6.769-5.54,6.769-5.54     s-2.924,13.079,0,13.696c2.925,0.615,14.775-9.234,14.775-9.234s-1.079,5.082,0.768,4.616c1.847-0.461,6.618-6.002,6.618-6.002     l-16.004-14.774L133.423,192.363z"/>
			<path style="fill:#FFBB8B;" d="M186.518,208.453l-9.203,13.694l-12.2-10.776l-19.226-17.929c0,0-20.537,12.684-27.48,0     c-4.562-8.366,1.219-14.739,8.606-14.442c3.806,0.147,8.032,2.047,11.487,6.369l2.547-12.483c0,0,2.771,8.31,4.84,6.943     c1.476-0.995,2.031-16.639,2.216-25.447l51.062-25.67c5.113,5.578,11.706,16.234,18.041,36.566     C228.937,202.913,193.053,189.618,186.518,208.453z"/>
			<g>
				<path style="fill:#FFFFFF;" d="M169.897,194.366l1.752,4.688c-17.266,7.128-7.09-17.377-7.09-17.377s1.183,6.835,8.919,6.888      L169.897,194.366z"/>
				<path style="fill:#00133E;" d="M181.901,178.482c-3.215,0-5.616-0.56-6.385-2.033c-1.409-2.703-0.415-4.032,0.304-4.585      c1.909-1.46,6.095-0.645,8.627,1.677l-0.937,1.02c-2.189-2.009-5.592-2.559-6.844-1.598c-0.83,0.637-0.415,1.898,0.076,2.845      c1.801,3.441,20.246-0.487,31.861-3.871c-2.607-18.577-10.105-22.858-10.178-22.9l0.652-1.22      c0.338,0.179,8.342,4.641,10.981,24.527l0.078,0.588l-0.568,0.168C205.767,174.223,190.759,178.481,181.901,178.482z"/>
				<path style="fill:#00133E;" d="M166.31,201.04c-1.51,0-2.725-0.425-3.626-1.276c-4.529-4.286,1.001-17.788,1.238-18.359      l0.906-2.182l0.417,2.327c0.007,0.04,0.737,3.908,4.429,5.554c4.178,1.864,10.661,0.244,18.765-4.686l-1.644-4.368l1.295-0.488      l2.048,5.436l-0.485,0.301c-8.875,5.499-15.798,7.204-20.565,5.061c-2.556-1.147-3.893-3.142-4.57-4.635      c-1.587,4.463-3.643,12.423-0.881,15.033c1.609,1.52,4.775,1.151,9.42-1.091l0.602,1.248      C170.72,200.331,168.265,201.04,166.31,201.04z"/>
				<polyline style="fill:#00133E;" points="161.582,194.308 167.01,194.308 161.582,192.749     "/>
				<path style="fill:#00133E;" d="M166.78,179.591l-5.197,2.886c0,0,1.62-4.501,5.428-3.808L166.78,179.591z"/>
			</g>
			<path style="fill:#00133E;" d="M169.445,170.395c-0.337-1.428-0.5-2.901-0.581-4.364c-0.126-2.272,0.231-8.345,3.82-7.946     c3.477,0.388,5.612,6.511,6.533,9.321c0.154,0.474,1.487,0.094,1.337-0.359c-1.064-3.245-4.012-11.004-8.655-9.641     c-5.37,1.576-4.803,9.044-3.792,13.348C168.217,171.224,169.559,170.878,169.445,170.395L169.445,170.395z"/>
			<path style="fill:#00133E;" d="M184.702,165.877c-0.741-3.14-1.823-11.551,2.842-12.273c3.5-0.54,6.114,6.795,6.928,9.285     c0.181,0.55,1.513,0.176,1.339-0.359c-1.059-3.232-4.036-11.066-8.675-9.705c-5.366,1.576-4.783,9.121-3.775,13.411     C183.493,166.787,184.833,166.437,184.702,165.877L184.702,165.877z"/>
			<path style="fill:#00133E;" d="M201.754,269.933l0.793,2.456l-1.331,0.148l-20.009,16.181l-14.598-12.103l-2.104,0.242v-6.077     c-22.661,5.54-40.869-3.749-38.708-15.236c1.994-10.581,23.139-25.151,30.157-29.732c0,0,13.547-5.189,23.584-9.309     c5.165-2.12,21.639,5.867,21.639,5.867c3.953,3.102,10.639,10.794,11.656,23.555C214.217,263.47,201.754,269.933,201.754,269.933     z"/>
			<path style="fill:#E18649;" d="M210.673,359.794l-17.544,13.554l-1.923-0.591c0,0,0,0-0.019,0l-22.754-6.3l-1.825-89.841     l34.607-4.078L210.673,359.794z"/>
			<path style="fill:#00133E;" d="M202.539,231.684c0,0,7.216,7.77,21.067-4.539l3.384,17.697c0,0-12.616,23.544-21.699,5.694     L202.539,231.684z"/>
			<g>
				<path style="fill:#FF6700;" d="M201.754,222.066c0,0-0.426,0.238-1.221,0.627c-5.983,2.991-32.447,15.18-44.579,3.12      c-0.131-0.129-0.259-0.239-0.369-0.367l1.071-12.928l8.862-1.201l20.999-2.864l8.622-1.162L201.754,222.066z"/>
				<polyline style="fill:#FF6700;" points="186.823,224.374 190.055,250.535 204.524,247.149 195.674,221.604     "/>
				<polyline style="fill:#FF6700;" points="199.136,218.526 209.754,238.53 199.136,244.841 192.404,221.604     "/>
			</g>
			<path style="fill:#00133E;" d="M162.276,158.971c1.124-2.751,2.007-5.108,4.38-7.069c2.156-1.782,4.885-2.702,7.553-3.383     c0.561-0.143,2.653-0.792,2.404-1.732c-0.255-0.948-2.385-0.441-2.949-0.297c-3.734,0.954-7.27,2.339-10.488,4.481     c-3.356,2.231-4.743,5.257-6.205,8.843C156.465,161.058,161.665,160.471,162.276,158.971L162.276,158.971z"/>
			<path style="fill:#00133E;" d="M182.044,143.377c3.785-3.75,8.372-2.805,12.471-0.096c1.394,0.922,6.089-1.229,5.011-1.941     c-7.147-4.724-16.29-3.827-22.387,2.215c-0.913,0.905,0.786,1.199,1.345,1.178C179.731,144.689,181.142,144.271,182.044,143.377     L182.044,143.377z"/>
			<path style="fill:#009B77;" d="M172.663,268.611l-1.84-0.142l0.855-11.105l-23.449-2.376l-0.002-0.834     c-0.002-0.337,0.07-8.386,8.668-18.082l1.382,1.225c-6.552,7.387-7.872,13.807-8.137,16.027l23.518,2.385L172.663,268.611z"/>
			
				<rect x="189.077" y="279.942" transform="matrix(0.9986 -0.0534 0.0534 0.9986 -17.093 10.6185)" style="fill:#00133E;" width="1.845" height="89.95"/>
			<path style="fill:#00133E;" d="M120.027,194.772c0,0-1.261-7.279,3.189-9.508c4.451-2.231,8.966-0.08,9.826,4.319     c0.862,4.395-6.411,9.878-6.701,1.791l-2.364,1.291l2.949-2.578c0,0-0.623,5.55,2.899,4.4c3.523-1.151,3.365-6.596,0.469-8.343     C127.398,184.401,120.67,183.904,120.027,194.772z"/>
			<g>
				<path style="fill:#FF6700;" d="M201.754,127.421l-2.587,1.291l-51.062,25.67l-18.098,9.085l-1.311,0.664      c0,0-8.884-49.176,19.503-56.324C176.58,100.645,201.754,127.421,201.754,127.421z"/>
				
					<rect x="123.214" y="135.278" transform="matrix(0.8815 -0.4721 0.4721 0.8815 -45.388 91.5124)" style="fill:#FFFFFF;" width="72.897" height="1.846"/>
				
					<rect x="124.218" y="140.403" transform="matrix(0.8813 -0.4725 0.4725 0.8813 -47.4427 93.7422)" style="fill:#FFFFFF;" width="77.392" height="1.848"/>
				<path style="fill:#FFFFFF;" d="M133.772,145.787l-0.029-1.847l1.847-0.028l0.028,1.847L133.772,145.787z M133.717,142.094      l-0.027-1.846l1.847-0.027l0.026,1.846L133.717,142.094z M133.662,138.401l-0.029-1.846l1.847-0.028l0.028,1.847      L133.662,138.401z M133.607,134.708l-0.029-1.846l1.847-0.027l0.028,1.845L133.607,134.708z M133.553,131.015l-0.027-1.847      l1.847-0.027l0.026,1.847L133.553,131.015z M133.498,127.322l-0.027-1.847l1.847-0.028l0.026,1.847L133.498,127.322z       M133.443,123.629l-0.02-1.273l1.847-0.027l0.019,1.273L133.443,123.629z"/>
				<path style="fill:#FFFFFF;" d="M161.701,131.15l-1.22-1.386l1.385-1.222l1.22,1.384L161.701,131.15z M159.257,128.381      l-1.22-1.385l1.385-1.222l1.222,1.385L159.257,128.381z M156.812,125.611l-1.223-1.383l1.385-1.223l1.224,1.384L156.812,125.611      z M154.367,122.845l-1.222-1.386l1.386-1.222l1.22,1.384L154.367,122.845z M151.925,120.075l-1.223-1.383l1.385-1.224      l1.223,1.386L151.925,120.075z M149.478,117.307l-1.223-1.385l1.385-1.223l1.223,1.385L149.478,117.307z M147.033,114.538      l-1.22-1.385l1.385-1.22l1.222,1.384L147.033,114.538z M144.59,111.77l-0.317-0.358l1.385-1.222l0.317,0.358L144.59,111.77z"/>
				<path style="fill:#FFFFFF;" d="M145.232,139.747l-0.499-1.777l1.778-0.501l0.499,1.778L145.232,139.747z M144.233,136.192      l-0.497-1.778l1.778-0.5l0.5,1.778L144.233,136.192z M143.236,132.636l-0.499-1.779l1.777-0.499l0.499,1.779L143.236,132.636z       M142.239,129.079l-0.501-1.778l1.778-0.499l0.5,1.778L142.239,129.079z M141.239,125.524l-0.5-1.778l1.779-0.5l0.499,1.778      L141.239,125.524z M140.242,121.968l-0.5-1.778l1.777-0.5l0.501,1.778L140.242,121.968z M139.243,118.412l-0.5-1.778l1.777-0.5      l0.499,1.777L139.243,118.412z"/>
				<path style="fill:#FFFFFF;" d="M179.469,123.168l-1.647-0.835l0.833-1.648l1.647,0.833L179.469,123.168z M176.175,121.498      l-1.649-0.834l0.833-1.648l1.649,0.834L176.175,121.498z M172.88,119.828l-1.648-0.834l0.834-1.648l1.647,0.834L172.88,119.828z       M169.585,118.161l-1.649-0.835l0.833-1.647l1.649,0.835L169.585,118.161z M166.289,116.492l-1.647-0.834l0.833-1.648      l1.647,0.834L166.289,116.492z M162.996,114.823l-1.65-0.834l0.834-1.649l1.649,0.835L162.996,114.823z M159.699,113.153      l-1.647-0.833l0.833-1.649l1.648,0.834L159.699,113.153z M156.406,111.485l-1.649-0.836l0.833-1.647l1.649,0.836      L156.406,111.485z"/>
			</g>
		</g>
		<g>
			<g>
				<path style="fill:#90400C;" d="M391.078,215.97c-5.541-7.626-21.881-8.533-33.847-9.438l-2.785-12.394l-3.261,0.042      l-4.178-12.059c6.078,0.036,10.268-9.459,13.628-17.084c4.155-9.438,3.467-9.204-3.53-12.287      c-7.001-3.101-4.67,1.227-8.845,10.682c-1.145,2.604-8.347,9.524-8.532,12.055c-28.568,0.204-32.956-0.859-32.956-0.859      c-12.167,20.978-33.349-10.29-33.349-10.29c0.404-1.608,0.885-3.177,1.423-4.728c8.474-24.654,50.543-51.43,98.059-39.575      c0,0-5.409,43.618,1.977,49.75c7.387,6.114,22.178-5.576,6.24,19.816c0,0,13.925-3.545,16.233,2.143      c2.309,5.705-10.783,14.015-10.783,14.015S400.18,206.665,391.078,215.97z"/>
				<path style="opacity:0.2;fill:#FFFFFF;" d="M305.539,132.58c-0.833,7.388,9.056,16.574,14.424,20.267      c9.599,6.605,20.193,8.63,31.695,8.323c0.509-0.014,1.416-0.808,0.511-0.784c-10.39,0.277-20.055-1.371-29.058-6.765      c-5.635-3.376-17.077-13.693-16.235-21.202C306.938,131.864,305.592,132.111,305.539,132.58L305.539,132.58z"/>
				<path style="opacity:0.2;fill:#FFFFFF;" d="M311.425,132.333c2.32,8.444,12.432,12.61,20.03,14.504      c9.651,2.406,20.002-0.977,28.801-4.714c0.859-0.367,0.072-0.803-0.525-0.549c-13.056,5.546-41.681,9.648-46.969-9.601      C312.636,131.508,311.296,131.869,311.425,132.333L311.425,132.333z"/>
				<path style="opacity:0.2;fill:#FFFFFF;" d="M360.47,165.564c-1.223,6.339-2.717,12.392,0.91,18.133      c1.149,1.819,2.808,1.827,4.659,2.255c7.685,1.774,3.808,7.409,2.24,11.423c-3.129,8.023-2.651,17.392,7.178,18.36      c0.646,0.064,1.371-0.87,0.466-0.958c-15.088-1.488-4.598-18.445-3.633-26.241c0.099-0.808-0.296-2.547-1.247-2.884      c-3.727-1.316-9.126-2.814-10.381-6.701c-1.259-3.907,0.397-9.519,1.161-13.494C361.95,164.799,360.582,164.975,360.47,165.564      L360.47,165.564z"/>
				<path style="opacity:0.2;fill:#FFFFFF;" d="M367.874,176.075c13.868,1.887,7.446,10.553,4.502,18.982      c-1.13,3.236,0.476,4.941,3.592,4.977c0.714,0.007,1.43-0.158,2.118-0.334c4.769-1.229,8.294,0.475,5.537,5.444      c-2.896,5.214-6.577,9.771-5.719,16.062c0.045,0.31,1.393,0.023,1.34-0.359c-1.166-8.512,5.902-13.301,7.779-20.821      c0.604-2.421-2.515-2.347-3.9-2.116c-3.836,0.638-10.743,0.699-8.705-5.128c1.094-3.132,2.851-6.067,4.066-9.162      c2.361-5.999-5.59-7.565-9.752-8.132C368.417,175.446,367.181,175.981,367.874,176.075L367.874,176.075z"/>
			</g>
			<polygon style="fill:#00133E;" points="382.575,334.099 385.345,347.334 343.334,349.027    "/>
			<polygon style="fill:#FF6700;" points="341.024,349.027 385.345,345.026 386.885,350.719 341.024,352.413    "/>
			<path style="fill:#E18649;" d="M389.5,236.764c4.31,13.851-6.926,18.294-6.926,18.294l2.618,89.121L355.337,331.1l1.692-85.72     L389.5,236.764z"/>
			
				<rect x="365.57" y="253.739" transform="matrix(0.9998 -0.0216 0.0216 0.9998 -6.2308 7.9704)" style="fill:#00133E;" width="1.847" height="78.369"/>
			<path style="fill:#FF6700;" d="M368.881,249.174c-21.09,0.941-18.468-9.103-18.468-9.103l-3.693-0.923l2.418-6.039l-7.811-12.557     l3.398-11.026l-8.939-4.854l1.329-1.09l0.673-13.673l15.339,0.451l2.974-2.456l4.579,11.503     c11.966,0.905,24.858,8.938,30.398,16.564c1.144,1.57,1.975,3.123,2.42,4.581C396.266,229.637,389.968,248.234,368.881,249.174z"/>
			<path style="fill:#FFBB8B;" d="M353.126,190.359l-16.011,13.222c-9.197-0.557-26.298-0.557-42.566,5.096     c-22.307,7.755-27.535-20.48-21.126-44.34c5.927-0.389,15.883-5.005,28.051-25.984c0,0,10.638,28.162,39.206,27.959     c-0.571,6.703,2.032,12.669,7.111,14.902c1.366,0.592,2.789,0.887,4.246,0.906L353.126,190.359z"/>
			<g>
				<path style="fill:#00133E;" d="M368.01,169.711c-3.36,7.625-9.895,12.445-15.973,12.409c-1.457-0.019-2.88-0.314-4.246-0.906      c-5.079-2.232-7.681-8.198-7.111-14.902c0.185-2.531,0.83-5.171,1.975-7.775c4.175-9.455,13.222-14.607,20.224-11.506      C369.875,150.116,372.165,160.273,368.01,169.711z"/>
				<path style="fill:#00133E;" d="M309.384,125.302c7.459-15.919,28.768-9.51,36.659,1.917c6.511,9.428,7.302,22.738,7.111,33.772      c-0.032,2.016,4.027,1.348,4.056-0.349c0.261-15.236-1.749-32.718-14.61-42.704c-10.897-8.462-30.935-6.019-37.031,6.988      C304.625,126.944,308.675,126.811,309.384,125.302L309.384,125.302z"/>
			</g>
			<g>
				<path style="fill:#FFFFFF;" d="M323.745,199.278l-12.777-8.126c1.956-1.737,3.341-5.006,2.159-11.246      c0,0,6.887-0.776,12.003,7.997C328.307,193.331,326.607,197.337,323.745,199.278z"/>
				<path style="fill:#00133E;" d="M319.594,201.274c-0.63,0-1.252-0.08-1.847-0.252l0.386-1.332      c2.268,0.659,5.165-0.37,6.731-2.384c1.83-2.345,1.711-5.562-0.326-9.056c-3.894-6.674-8.739-7.582-10.581-7.672      c0.771,4.751,0.098,8.303-2,10.566c-2.755,2.972-6.887,2.539-7.065,2.521l-0.755-0.086l0.657-3.143      c-4.805,2.476-8.119,1.621-9.391,1.096c-1.292-0.534-2.189-1.388-2.406-2.291c-0.112-0.461-0.005-0.907,0.298-1.251      c0.806-0.915,3.041-0.928,4.381-0.845l-0.588-15.686l1.385-0.052l0.645,17.27l-0.797-0.087      c-1.801-0.195-3.749-0.041-3.991,0.322c0.099,0.369,0.635,0.941,1.603,1.342c1.186,0.492,4.495,1.304,9.487-1.763l1.371-0.841      l-0.974,4.657c1.19-0.034,3.503-0.347,5.131-2.111c1.895-2.052,2.399-5.473,1.503-10.168l-0.14-0.735l0.742-0.084      c0.305-0.041,7.397-0.713,12.68,8.343c3.161,5.419,1.495,8.971,0.222,10.606C324.433,200.113,321.957,201.274,319.594,201.274z"/>
				<polygon style="fill:#00133E;" points="325.653,198.091 312.65,188.749 312.921,188.374 325.925,197.715     "/>
				
					<rect x="320.12" y="181.831" transform="matrix(0.4638 -0.886 0.886 0.4638 3.7882 385.4991)" style="fill:#00133E;" width="0.462" height="15.578"/>
				
					<rect x="318.988" y="179.499" transform="matrix(0.3297 -0.9441 0.9441 0.3297 38.8414 425.6967)" style="fill:#00133E;" width="0.463" height="11.991"/>
				<polygon style="fill:#00133E;" points="314.887,193.582 314.451,193.428 318.687,181.339 319.122,181.493     "/>
				<path style="fill:#00133E;" d="M309.708,179.887l1.259,0.935c0,0,1.913-2.464,8.253-1.923      C319.22,178.899,312.631,177.26,309.708,179.887z"/>
			</g>
			<path style="fill:#00133E;" d="M350.189,240.967l-4.719-1.18l5.633-14.091l3.446,1.095c0.393-0.63,1.138-1.476,2.492-2.139     c2.734-1.339,8.251-1.974,19.131,2.243l-6.616-17.027l1.72-0.671l8.175,21.038l-2.002-0.835     c-11.442-4.77-16.916-4.343-19.494-3.14c-1.672,0.782-2.025,1.865-2.039,1.91l-0.278,0.886l-3.458-1.079l-4.213,10.532     l2.668,0.667L350.189,240.967z"/>
			<g>
				<path style="fill:#00133E;" d="M305.66,179.428c-0.741-3.14-1.82-11.551,2.844-12.273c3.498-0.54,6.112,6.795,6.928,9.285      c0.181,0.55,1.514,0.176,1.337-0.359c-1.059-3.232-4.035-11.066-8.671-9.704c-5.367,1.575-4.784,9.12-3.774,13.41      C304.454,180.337,305.793,179.988,305.66,179.428L305.66,179.428z"/>
				<path style="fill:#00133E;" d="M315.494,175.749c2.221,0.724,3.694-1.922,4.495-3.525c0.293-0.587-1.047-0.439-1.247-0.038      c-0.368,0.732-1.403,3.158-2.432,2.823C315.875,174.866,314.739,175.502,315.494,175.749L315.494,175.749z"/>
				<path style="fill:#00133E;" d="M315.277,174.019c2.273-0.229,2.57-2.688,2.848-4.51c0.067-0.44-1.268-0.192-1.33,0.198      c-0.095,0.624-0.184,1.246-0.331,1.861c-0.102,0.436-0.412,1.767-0.976,1.822C314.885,173.451,314.342,174.114,315.277,174.019      L315.277,174.019z"/>
			</g>
			<g>
				<path style="fill:#00133E;" d="M284.073,185.877c-0.738-3.14-1.82-11.551,2.844-12.273c3.501-0.542,6.114,6.795,6.928,9.285      c0.181,0.549,1.513,0.176,1.337-0.359c-1.056-3.232-4.036-11.066-8.672-9.706c-5.366,1.576-4.783,9.121-3.774,13.411      C282.866,186.787,284.206,186.437,284.073,185.877L284.073,185.877z"/>
				<path style="fill:#00133E;" d="M277.883,184.976c1.022,1.615,3.339,1.303,4.914,0.845c0.785-0.227,0.637-0.802-0.155-0.573      c-1.254,0.364-2.725,0.469-3.513-0.77C278.923,184.152,277.621,184.566,277.883,184.976L277.883,184.976z"/>
				<path style="fill:#00133E;" d="M277.838,181.734c0.121,1.569,2.639,1.767,3.82,1.846c0.316,0.022,0.682-0.071,0.944-0.253      c0.214-0.147,0.174-0.32-0.091-0.338c-1.054-0.072-3.227-0.223-3.336-1.615C279.151,181.078,277.806,181.33,277.838,181.734      L277.838,181.734z"/>
			</g>
			<polygon style="fill:#90400C;" points="275.957,169.972 290.105,165.626 277.476,173.34    "/>
			<polygon style="fill:#90400C;" points="298.162,159.741 315.382,160.893 298.308,163.432    "/>
			<path style="opacity:0.2;fill:#FFFFFF;" d="M354.828,176.41c-6.011-0.433-6.94-8.054-6.618-12.468     c0.352-4.836,3.255-9.319,6.301-12.892c1.071-1.258-1.506-1.435-2.196-0.626c-4.205,4.933-7.044,10.468-6.878,17.082     c0.13,5.087,3.051,10.266,8.411,10.651C355.021,178.241,356.641,176.541,354.828,176.41L354.828,176.41z"/>
			<path style="fill:#90400C;" d="M300.037,134.568c-1.129,6.735-0.148,13.472,4.743,18.504c4.436,4.564,11.645,5.925,17.651,6.788     c0.623,0.091,3.101-0.965,1.716-1.165c-5.681-0.816-11.202-2.198-15.864-5.696c-5.771-4.332-6.704-12.271-5.599-18.875     C302.805,133.397,300.153,133.874,300.037,134.568L300.037,134.568z"/>
			<polygon style="fill:#00133E;" points="352.21,227.42 349.888,208.576 341.165,201.29 342.348,199.873 351.629,207.625      354.043,227.193    "/>
		</g>
		<g>
			<path style="fill:#FFFFFF;" d="M376.118,383.505l-185.593,4.451c-12.06-50.842,15.917-73.241,33.406-81.994     c0,0,6.321-5.915,8.702-6.025c-0.423,3.362,1.023,7.106,5.88,5.224c0.83-0.352,0.676-0.332,1.397-1.073     c2.658-0.369,4.733-0.071,5.381-1.973c0.885-2.994-3.085-2.389-5.617-3.332c1.35-2.695,3.37-4.054,0.344-5.624     c-1.128-0.573-0.206-3.836-0.206-3.836l-14.087-34.425l37.776-48.366l48.259,6.982c52.409,20.077,19.115,76.733,19.115,76.733     C403.357,313.163,376.118,383.505,376.118,383.505z"/>
			<polygon style="fill:#90400C;" points="219.911,317.172 188.232,280.955 176.206,281.623 175.59,278.235 188.725,278.794      176.361,264.194 179.131,260.673 187.592,272.425 189.902,261.694 192.363,262.462 188.725,274.946 220.835,315.325    "/>
			<polygon style="fill:#90400C;" points="352.874,306.399 378.881,276.85 375.345,264.251 378.881,264.251 380.424,274.946      399.043,257.326 402.737,259 386.885,272.291 402.121,274.08 399.966,277.929 386.116,274.08 354.107,307.629    "/>
			<path style="fill:#FF6700;" d="M301.474,204.966c-1.242,8.548-33.284,15.681-47.321,34.848l-11.754,13.646l-2.587,35.862     c-1.311,0.276-2.476,1.089-3.268,2.196c-1.68-2.308-4.986-2.623-7.425-1.311c-5.284-11.005-16.304-37.836-12.244-63.063     C220.568,204.06,280.073,199.758,301.474,204.966z"/>
			<path style="fill:#FFFFFF;" d="M313.126,212.72l-1.366,0.793l-69.361,39.947l1.088-15.312     c14.037-19.167,46.464-29.879,57.987-33.183c2.623-0.757,4.155-1.13,4.155-1.13L313.126,212.72z"/>
			<g>
				<path style="fill:#FFFFFF;" d="M248.383,304.392c-0.647,1.902-3.787,4.727-6.445,5.096c-0.722,0.741-1.812,1.33-2.642,1.682      c-4.857,1.882-8.771-0.776-8.349-4.138c-2.381,0.111-5.352,0.315-7.015-1.07c-0.721-0.61-1.183-1.479-1.257-2.788      c-0.164-2.512,2.251-3.565,4.393-3.474c-1.18-1.937-1.309-4.838-0.532-6.683c0.516-1.275,1.456-2.217,2.584-2.809      c2.44-1.311,5.745-0.997,7.425,1.311c0.792-1.107,1.956-1.92,3.268-2.196c1.052-0.223,2.215-0.112,3.343,0.461      c3.027,1.57,3.434,5.079,2.085,7.773C247.772,298.501,249.268,301.398,248.383,304.392z"/>
				<path style="fill:#009B77;" d="M248.424,304.408c-1.162,2.572-3.719,4.616-6.456,5.305l0.132-0.066      c-3.205,3.711-11.925,3.564-11.486-2.657l0.35,0.379c-9.026,1.513-11.819-7.261-3.886-7.881l-0.189,0.322      c-4.51-6.758,4.383-14.961,10.05-8.578l-0.792,0.004c4.577-6.023,12.948,0.015,9.298,6.425l-0.126-0.316      C248.02,298.468,249.283,301.68,248.424,304.408z M248.34,304.377c0.803-2.742-0.607-5.815-3.382-6.702      c1.259-2.614,0.751-6.151-2.032-7.486c-2.312-1.224-4.973-0.023-6.345,2.039c-5.324-6.303-13.236,1.158-9.199,7.666      c-7.603,0.008-5.667,8.816,3.925,6.777c-0.528,5.702,7.376,5.684,10.467,2.66C244.509,308.767,247.15,306.957,248.34,304.377z"/>
				<path style="fill:#009B77;" d="M235.717,297.379c-3.432,0.788-3.66,5.751-2.326,8.323c1.781,3.425,6.283,3.191,8.346,0.339      c0.847-1.168,1.651-3.852,0.833-5.19c-0.511-0.836-1.608-1.408-2.289-0.325c-2.493,3.965,1.336,8.255,5.521,6.636      c0.346-0.134,0.036-0.396-0.231-0.293c-2.663,1.031-4.452-0.294-5.33-2.425c-0.207-0.62-0.274-1.258-0.2-1.917      c-0.052-1.572,1.677-2.599,2.168-0.982c0.87,2.901-1.719,6.445-4.663,6.357c-4.555-0.134-6.504-9.086-1.74-10.182      C236.14,297.645,236.045,297.303,235.717,297.379L235.717,297.379z"/>
				<path style="fill:#009B77;" d="M229.503,304.376c-3.27,1.253-4.276-1.544-1.706-3.275c0.947-0.639,2.142-0.871,3.262-0.901      c0.743-0.021,1.386,0.205,1.929,0.675c0.961,1.033,0.179,2.515-1.824,1.301c-1.206-0.836-1.756-2.582-2.137-3.929      c-0.276-0.992-0.29-2.049-0.233-3.066c0.116-2.137,2.118-6.01,5.334-3.915c0.151,0.098,0.632-0.119,0.5-0.205      c-3.963-2.576-6.509,2.35-6.381,5.798c0.086,2.3,1.285,5.223,3.532,6.126c0.747,0.299,2.006-0.139,2.235-0.944      c0.345-1.221-1.331-2.023-2.252-2.089c-1.699-0.124-3.3,0.342-4.709,1.29c-1.163,0.785-1.797,2.225-0.907,3.452      c0.7,0.966,2.771,0.186,3.566-0.118C230.062,304.441,229.736,304.286,229.503,304.376L229.503,304.376z"/>
				<path style="fill:#009B77;" d="M235.674,298.695c-2.634,3.033,1.021,5.989,3.872,3.595c1.973-1.658,3.777-8.172,0.285-9.198      c-2.81-0.825-2.846,4.682,0.424,5.03c4.048,0.43,5.04-4.4,3.872-7.446c-0.214-0.552-1.543-0.166-1.34,0.359      c0.602,1.569,0.607,3.334-0.005,4.903c-0.652,1.671-2.561,1.402-3.642,0.038c-0.798-1.007-0.345-2.514,0.545-1.607      c1.135,1.155,0.665,3.536,0.312,4.9c-0.264,1.028-0.814,2.072-1.633,2.759c-2.32,1.951-2.42-2.052-1.592-3.007      C237.318,298.393,236.028,298.285,235.674,298.695L235.674,298.695z"/>
				<path style="fill:#009B77;" d="M242.878,304.42c-0.44,1.825,3.189,2.318,3.537,0.572c0.154-0.771-0.317-1.893-1.131-2.153      c-0.481-0.154-0.992,0.101-0.855,0.687c0.431,1.815,3.01,1.183,3.291-0.397c0.255-1.444-1.558-4.854-3.31-4.369      c-0.328,0.091-0.233,0.444,0.096,0.352c1.556-0.43,4.019,4.774,1.694,5.131c-0.503,0.078-0.985-0.223-1.19-0.667      c-0.362-0.799,0.481,0.065,0.604,0.235c1.496,2.03-2.661,2.486-2.194,0.566C243.48,304.124,242.935,304.192,242.878,304.42      L242.878,304.42z"/>
				<path style="fill:#009B77;" d="M231.259,298.481c-1.243,0.126-1.218-1.435-1.078-2.215c0.219-1.228,1.922-2.329,2.907-1.207      c0.34,0.389,0.268,1.053,0.173,1.504c-0.084,0.522-0.627,0.714-0.862,0.228c-0.19-0.352-0.148-0.873-0.114-1.238      c0.171-1.916,2.219-3.336,4.034-2.646c0.16,0.059,0.645-0.175,0.426-0.257c-2.242-0.853-4.553,0.674-4.996,2.972      c-0.433,2.257,1.982,2.391,2.125,0.277c0.153-2.217-2.582-1.668-3.619-0.733c-1.15,1.033-0.978,3.8,0.93,3.607      C231.445,298.747,231.633,298.442,231.259,298.481L231.259,298.481z"/>
			</g>
			<path style="fill:#FF6700;" d="M289.241,252.882l35.896-10.701l-29.434,19.474C295.703,261.655,289.587,262.809,289.241,252.882z     "/>
			<path style="fill:#00133E;" d="M277.059,249.168c0,4.019-1.549,7.271-3.462,7.271c-1.913,0-3.46-3.252-3.46-7.271     c0-4.014,1.547-7.271,3.46-7.271C275.51,241.896,277.059,245.153,277.059,249.168z"/>
			<path style="fill:#00133E;" d="M306.403,237.045c1.467,3.737,1.214,7.333-0.565,8.033c-1.779,0.7-4.415-1.763-5.882-5.502     c-1.466-3.739-1.215-7.336,0.566-8.035C302.299,230.843,304.935,233.305,306.403,237.045z"/>
			<g>
				<path style="fill:#00133E;" d="M263.501,263.483c0,0.988-0.799,1.789-1.786,1.789c-0.991,0-1.79-0.801-1.79-1.789      c0-0.989,0.799-1.79,1.79-1.79C262.702,261.694,263.501,262.495,263.501,263.483z"/>
				<path style="fill:#00133E;" d="M268.289,269.579c0,0.988-0.802,1.789-1.79,1.789c-0.99,0-1.79-0.801-1.79-1.789      c0-0.988,0.8-1.789,1.79-1.789C267.487,267.79,268.289,268.591,268.289,269.579z"/>
				<path style="fill:#00133E;" d="M277.352,273.156c0,0.986-0.8,1.79-1.79,1.79c-0.987,0-1.788-0.804-1.788-1.79      c0-0.988,0.8-1.789,1.788-1.789C276.552,271.367,277.352,272.169,277.352,273.156z"/>
				<path style="fill:#00133E;" d="M286.148,274.08c0,0.989-0.802,1.79-1.79,1.79c-0.987,0-1.79-0.801-1.79-1.79      c0-0.987,0.803-1.789,1.79-1.789C285.346,272.291,286.148,273.092,286.148,274.08z"/>
				<path style="fill:#00133E;" d="M295.457,273.156c0,0.986-0.799,1.79-1.786,1.79c-0.991,0-1.79-0.804-1.79-1.79      c0-0.988,0.799-1.789,1.79-1.789C294.659,271.367,295.457,272.169,295.457,273.156z"/>
				<path style="fill:#00133E;" d="M304.97,270.501c0,0.99-0.801,1.79-1.789,1.79c-0.987,0-1.788-0.8-1.788-1.79      c0-0.987,0.8-1.788,1.788-1.788C304.168,268.713,304.97,269.514,304.97,270.501z"/>
				<path style="fill:#00133E;" d="M311.056,267.062c0,0.988-0.802,1.788-1.79,1.788c-0.988,0-1.79-0.8-1.79-1.788      c0-0.99,0.802-1.79,1.79-1.79C310.253,265.272,311.056,266.072,311.056,267.062z"/>
				<path style="fill:#00133E;" d="M316.71,262.462c0,0.986-0.799,1.789-1.789,1.789c-0.989,0-1.788-0.802-1.788-1.789      c0-0.989,0.799-1.789,1.788-1.789C315.911,260.673,316.71,261.473,316.71,262.462z"/>
				<path style="fill:#00133E;" d="M320.691,255.538c0,0.986-0.799,1.789-1.788,1.789c-0.99,0-1.789-0.802-1.789-1.789      c0-0.988,0.799-1.789,1.789-1.789C319.892,253.749,320.691,254.55,320.691,255.538z"/>
			</g>
			
				<rect x="226.537" y="235.244" transform="matrix(0.8631 -0.505 0.505 0.8631 -81.8973 170.2061)" style="fill:#FF6700;" width="92.939" height="1.847"/>
		</g>
		<g>
			<path style="fill:#E18649;" d="M234.07,209.016L256,198.52c0,0,3.925,14.515-6.08,20.646     C239.917,225.298,234.07,209.016,234.07,209.016z"/>
			
				<rect x="235.299" y="206.645" transform="matrix(0.9039 -0.4277 0.4277 0.9039 -65.094 125.3907)" style="fill:#00133E;" width="22.445" height="1.846"/>
			
				<rect x="238.613" y="211.985" transform="matrix(0.8231 -0.5679 0.5679 0.8231 -76.9502 178.7958)" style="fill:#00133E;" width="19.784" height="1.847"/>
		</g>
		<path style="fill:#00133E;" d="M325.788,233.452l14.312-18.619l10.658,14.735l-2.347,7.272c0,0-1.847,2.002-3.539-2.925    C344.873,233.914,332.253,252.998,325.788,233.452z"/>
	</g>
	<g>
		<g>
			<path style="fill:#FFBB8B;" d="M346.572,364.411c-12.78,10.156-23.713,0.627-23.713,0.627     c-6.095,6.02-9.012,11.173-10.433,14.608l-4.746,9.655l-11.486-5.12c-2.787-1.459-7.24-3.298-15.181-3.611     c-24.32-0.961-37.247-9.992-38.023-17.23c-0.442-4.303,4.746-4.841,10.472-3.455c-0.391-6.611-0.371-18.616,3.267-30.323     l6.013-11.578c0,0,1.696,6.979,4.207,7.513c1.607,0.333,5.437-4.27,10.146-9.312c11.339,7.664,26.754,9.88,40.124,10.728     c-1.975,12.3,12.023,11.734,12.023,11.734c13.665-12.708,19.195,6.907,21.801,12.927v0.021     C352.664,355.344,351.465,360.513,346.572,364.411z"/>
			<path style="fill:#90400C;" d="M354.107,340.864c-0.923,1.552-6.926,0.701-6.926,0.701s6.13,3.269,3.86,10.008     c-2.606-6.02-12.504-8.328-26.169,4.38c0,0-10.472-10.085-8.497-22.385c0,0,13.987-10.229,20.007-11.009     c2.496-0.323,10.06,9.375,11.272,9.202C350.666,334.92,354.678,339.904,354.107,340.864z"/>
			<path style="fill:#009B77;" d="M317.947,378.112c0,0,0.019,1.552-0.538,3.785c0,0,6.023,9.987-5.95,14.558     c-0.27,0.103-3.974,1.289-4.23,1.383c-6.373,2.603-11.59-3.938-13.751-7.484c-1.514-2.456-2.162-4.818-2.162-4.818l5.317-1.478     l15.793-4.413L317.947,378.112z"/>
			<path style="fill:#90400C;" d="M276.748,322.139c-4.709,5.041-11.635,12.058-13.242,11.725c-2.511-0.533,0-10.377,0-10.377     s-3.102,3.102-6.778,6.075c-3.805,3.121-8.217,6.095-10.34,5.302c-4.155-1.534,9.601-16.769,9.601-16.769     s-8.844,0.923-9.601-0.923c-0.776-1.847,13.537-3.546,13.537-3.546s-11.229-1.218-10.472-3.989     c0.572-2.052,9.839-1.869,14.53-1.647c0.113,0.211,10.81,2.375,10.926,2.583C278.064,316.219,276.748,322.139,276.748,322.139z"/>
			<path style="fill:#E18649;" d="M317.35,381.882c-0.909,3.751-3.479,9.448-10.652,12.87c-0.25,0.126-0.483,0.233-0.732,0.325     l-0.002-0.01c-6.373,2.603-10.324-1.166-12.485-4.712l-2.162,17.62l3.382,0.534l0.022,0.058l-6.723,11.635l43.501-3.054     C347.35,390.966,325.796,383.663,317.35,381.882z"/>
			<polygon style="fill:#009B77;" points="292.778,387.021 286.009,409.277 295.282,413.893 298.242,389.348    "/>
			<polygon style="fill:#00133E;" points="318.34,405.025 298.742,402.575 298.973,400.743 316.31,402.909 315.252,390.347      317.09,390.192    "/>
			<path style="fill:#00133E;" d="M295.572,410.358c7.826,4.972,14.234,8.095,23.42,3.988c8.755-3.915,10.664-12.411,7.851-20.87     c-0.205-0.617-1.54-0.248-1.338,0.358c2.818,8.478,0.943,15.284-7.109,19.715c-8.13,4.473-15.045,0.319-21.792-3.969     C296.1,409.263,294.93,409.948,295.572,410.358L295.572,410.358z"/>
			<g>
				<path style="fill:#FFFFFF;" d="M302.233,379.386c-1.811-5.004-5.026-8.771-7.332-11.024c1.569-1.515,2.639-4.266,2.271-9.161      c0,0,7.868,5.375,8.938,11.21C306.85,374.509,304.965,378.444,302.233,379.386z"/>
				<path style="fill:#00133E;" d="M300.983,380.071c-0.949,0-1.916-0.322-2.848-0.965l0.524-0.758      c1.827,1.258,3.323,0.803,4.258,0.2c2.175-1.403,3.322-4.789,2.734-8.049c-0.819-4.521-5.979-8.831-7.966-10.344      c0.171,4.251-0.805,7.244-2.905,8.904c-3.013,2.38-7.156,1.085-7.332,1.027l0.281-0.879c0.037,0.016,3.862,1.199,6.482-0.878      c2-1.583,2.839-4.642,2.494-9.09l-0.073-0.959l0.792,0.54c0.328,0.223,8.056,5.546,9.136,11.514      c0.652,3.611-0.668,7.391-3.143,8.988C302.643,379.823,301.819,380.071,300.983,380.071z"/>
				<polyline style="fill:#00133E;" points="304.629,366.78 301.205,372.88 305.263,367.929     "/>
				<path style="fill:#00133E;" d="M296.1,359.053c-0.675,0-1.282-0.249-1.385-0.292l0.366-0.848      c0.298,0.126,1.167,0.387,1.635,0.057c0.291-0.206,0.417-0.656,0.374-1.334l0.921-0.059c0.067,1.022-0.19,1.746-0.764,2.149      C296.896,358.973,296.486,359.053,296.1,359.053z"/>
			</g>
			<path style="fill:#00133E;" d="M284.164,366.398c-2.026,0-4.636-0.25-5.924-1.395c-0.547-0.487-0.826-1.095-0.826-1.806     c0-3.837,4.189-9.432,4.367-9.669l0.6,0.453c-0.043,0.056-4.217,5.631-4.217,9.216c0,0.495,0.187,0.902,0.573,1.245     c1.678,1.493,6.29,1.225,7.697,1.104c-0.119-0.433-0.326-0.894-0.573-0.961c-0.193-0.057-0.55,0.193-0.934,0.669l-0.585-0.469     c0.616-0.771,1.19-1.066,1.715-0.925c0.905,0.247,1.156,1.679,1.2,1.963l0.055,0.382l-0.383,0.045     C286.819,366.264,285.646,366.398,284.164,366.398z"/>
			<g>
				<path style="fill:#FFFFFF;" d="M278.78,351.875c-2.159,7.692-7.225,12.998-11.318,11.847c-4.089-1.148-5.655-8.315-3.494-16.007      c2.158-7.692,7.225-12.996,11.318-11.847C279.375,337.016,280.941,344.183,278.78,351.875z"/>
				<path style="fill:#00133E;" d="M278.737,349.796c0,2.453-1.573,4.443-3.508,4.443c-1.937,0-3.508-1.99-3.508-4.443      c0-2.457,1.571-4.444,3.508-4.444C277.163,345.352,278.737,347.339,278.737,349.796z"/>
			</g>
			<g>
				<path style="fill:#FFFFFF;" d="M299.865,353.882c-5.262,1.33-9.231,4.249-11.559,6.391c-1.846-2.456-3.267-6.131-3.765-10.34      c-0.922-7.943,1.735-14.775,5.943-15.274c4.232-0.498,8.406,5.54,9.345,13.462C300.073,350.135,300.073,352.094,299.865,353.882      z"/>
				<path style="fill:#00133E;" d="M298.789,347.891c0,2.456-1.57,4.444-3.508,4.444c-1.937,0-3.51-1.988-3.51-4.444      c0-2.453,1.573-4.443,3.51-4.443C297.219,343.448,298.789,345.438,298.789,347.891z"/>
			</g>
			<path style="fill:#90400C;" d="M265.389,337.764l-1.542-1.018c0.064-0.099,6.716-9.952,16.78-5.27l-0.778,1.675     C271.211,329.135,265.624,337.409,265.389,337.764z"/>
			<path style="fill:#90400C;" d="M296.864,335.24c-6.114-6.98-13.677-4.158-13.753-4.127l-0.669-1.722     c0.091-0.032,8.86-3.306,15.809,4.631L296.864,335.24z"/>
			<path style="fill:#00133E;" d="M349.378,359.423c0,0-2.27-6.44-8.603-5.926c-6.331,0.514-10.486,4.544-9.227,8.486     c1.256,3.938,12.541,4.566,8.727-2.019l3.417-0.187l-4.76-0.535c0,0,3.578,4.095-1.116,4.99     c-4.696,0.897-7.309-3.518-4.832-6.397C335.461,354.959,343.045,351.108,349.378,359.423z"/>
			<g>
				<path style="fill:#FF6700;" d="M304.629,405.965l-29.624-18.003c0,0-37.859,11.696-30.778,48.783l100.183-3.385l5.847-26.009      l-55.864,9.85L304.629,405.965z"/>
				<path style="fill:#00133E;" d="M284.278,433.693l-1.847-0.054c0.586-19.942,15.759-30.338,15.914-30.439l1.028,1.534      C299.227,404.832,284.834,414.728,284.278,433.693z"/>
				
					<rect x="263.871" y="402.268" transform="matrix(0.1978 -0.9802 0.9802 0.1978 -201.4267 598.2538)" style="fill:#00133E;" width="1.848" height="39.845"/>
				
					<rect x="268.907" y="391.074" transform="matrix(0.2531 -0.9674 0.9674 0.2531 -195.6049 567.6294)" style="fill:#00133E;" width="1.848" height="38.855"/>
				
					<rect x="265.432" y="396.333" transform="matrix(0.2386 -0.9711 0.9711 0.2386 -201.5744 575.6909)" style="fill:#00133E;" width="1.846" height="40.129"/>
				<polygon style="fill:#00133E;" points="293.637,431.572 292.461,430.148 311.246,414.671 308.014,425.007 324.577,412.384       321.979,422.992 337.063,410.122 335.525,423.215 349.554,406.752 350.96,407.948 332.983,429.047 334.678,414.583       318.828,428.11 321.541,417.019 304.52,429.991 307.633,420.041     "/>
				<polyline style="fill:#00133E;" points="293.049,434.206 304.629,424.395 302.052,432.822 317.947,422.188 315.094,431.552       332.408,419.65 331.322,430.86 346.603,418.25 342.565,432.822     "/>
			</g>
			<path style="fill:#00133E;" d="M288.675,394.495l14.363,8.766c0,0-4.296,9.333-11.347,8.265     C284.641,410.455,288.675,394.495,288.675,394.495z"/>
			<path style="fill:#00133E;" d="M272.523,385.085l14.363,8.763c0,0-4.297,9.335-11.346,8.266     C268.49,401.046,272.523,385.085,272.523,385.085z"/>
			<g>
				<path style="fill:#00133E;" d="M349.286,332.093c0,0-0.501,0.09-1.405,0.22c-4.137,0.592-16.897,2.178-31.505,1.254      c-13.37-0.848-28.289-3.765-39.629-11.429c-5.32-3.582-9.843-8.217-13.04-14.166c-0.073-0.112-0.148-0.239-0.202-0.349      c0,0,35.751-26.374,74.59-25.153C338.096,282.47,353.238,292.554,349.286,332.093z"/>
				<g>
					
						<rect x="328.829" y="280.622" transform="matrix(0.5347 -0.845 0.845 0.5347 -81.0742 417.6957)" style="fill:#FF6700;" width="19.854" height="3.692"/>
					
						<rect x="336.159" y="272.014" transform="matrix(0.5915 -0.8063 0.8063 0.5915 -89.9615 388.0826)" style="fill:#FF6700;" width="3.693" height="21.616"/>
					
						<rect x="327.246" y="280.872" transform="matrix(0.9615 -0.2748 0.2748 0.9615 -64.6742 103.8839)" style="fill:#FF6700;" width="22.212" height="3.694"/>
					
						<rect x="336.464" y="271.077" transform="matrix(0.9737 -0.2279 0.2279 0.9737 -55.3953 84.5202)" style="fill:#FF6700;" width="3.693" height="22.137"/>
				</g>
				<path style="fill:#FF6700;" d="M330.267,322.384c-34.798,0-55.893-20.983-56.138-21.232l1.316-1.295      c0.283,0.286,28.846,28.635,74.294,18.489l0.404,1.801C343.112,321.718,336.47,322.384,330.267,322.384z"/>
				<g>
					<path style="fill:#FF6700;" d="M269.37,306.272c-0.443-0.444-0.666-0.689-0.666-0.689l1.371-1.239       c0.009,0.009,0.208,0.232,0.602,0.625L269.37,306.272z"/>
					<path style="fill:#FF6700;" d="M329.897,329.061l-0.341-0.001v-1.846l0.348,0.001c0.49,0,0.995-0.003,1.499-0.013l0.029,1.847       C330.915,329.057,330.406,329.061,329.897,329.061z M327.676,329.036c-0.633-0.012-1.259-0.034-1.88-0.058l0.076-1.845       c0.607,0.026,1.223,0.044,1.842,0.057L327.676,329.036z M333.311,329.004l-0.062-1.843c0.609-0.022,1.223-0.048,1.842-0.079       l0.094,1.845C334.556,328.958,333.931,328.984,333.311,329.004z M323.92,328.884c-0.632-0.036-1.256-0.08-1.877-0.129       l0.148-1.842c0.607,0.049,1.218,0.092,1.836,0.128L323.92,328.884z M337.06,328.815l-0.127-1.843       c0.61-0.042,1.224-0.089,1.84-0.141l0.16,1.839C338.305,328.724,337.681,328.772,337.06,328.815z M320.171,328.59       c-0.629-0.063-1.252-0.13-1.869-0.204l0.217-1.833c0.607,0.071,1.219,0.137,1.835,0.198L320.171,328.59z M340.798,328.494       l-0.187-1.838c0.609-0.062,1.22-0.129,1.83-0.204l0.223,1.833C342.039,328.361,341.418,328.43,340.798,328.494z        M316.436,328.148c-0.625-0.088-1.245-0.18-1.859-0.277l0.291-1.824c0.602,0.095,1.209,0.186,1.825,0.271L316.436,328.148z        M344.525,328.047l-0.247-1.831c0.604-0.082,1.213-0.17,1.827-0.262l0.276,1.825       C345.758,327.873,345.142,327.963,344.525,328.047z M312.726,327.557c-0.621-0.111-1.237-0.228-1.846-0.352l0.358-1.81       c0.6,0.12,1.202,0.235,1.813,0.344L312.726,327.557z M309.035,326.818c-0.62-0.137-1.229-0.278-1.831-0.425l0.436-1.794       c0.593,0.142,1.19,0.283,1.794,0.417L309.035,326.818z M305.38,325.928c-0.611-0.163-1.216-0.331-1.813-0.502l0.509-1.775       c0.586,0.168,1.181,0.333,1.778,0.49L305.38,325.928z M301.765,324.889c-0.604-0.189-1.202-0.382-1.79-0.579l0.583-1.752       c0.578,0.194,1.163,0.382,1.756,0.566L301.765,324.889z M298.194,323.698c-0.597-0.214-1.184-0.432-1.763-0.652l0.657-1.725       c0.566,0.217,1.145,0.429,1.731,0.638L298.194,323.698z M294.682,322.358c-0.588-0.239-1.168-0.481-1.74-0.727l0.734-1.695       c0.554,0.241,1.12,0.477,1.699,0.709L294.682,322.358z M291.222,320.868c-0.579-0.262-1.147-0.529-1.704-0.799l0.801-1.663       c0.545,0.262,1.102,0.524,1.669,0.783L291.222,320.868z M287.838,319.234c-0.572-0.29-1.128-0.582-1.671-0.873l0.871-1.628       c0.533,0.285,1.076,0.57,1.633,0.852L287.838,319.234z M284.513,317.45c-0.554-0.316-1.097-0.632-1.626-0.944l0.944-1.587       c0.517,0.307,1.051,0.616,1.596,0.926L284.513,317.45z M281.279,315.522c-0.545-0.343-1.074-0.684-1.585-1.019l1.018-1.542       c0.5,0.328,1.017,0.661,1.552,0.997L281.279,315.522z M278.132,313.448c-0.534-0.37-1.047-0.737-1.535-1.094l1.088-1.493       c0.479,0.351,0.978,0.706,1.501,1.068L278.132,313.448z M275.086,311.223c-0.525-0.405-1.018-0.795-1.48-1.168l1.162-1.437       c0.452,0.366,0.933,0.747,1.444,1.141L275.086,311.223z M272.155,308.841c-0.533-0.459-1.007-0.882-1.416-1.258l1.25-1.361       c0.397,0.366,0.856,0.776,1.371,1.219L272.155,308.841z"/>
					<polygon style="fill:#FF6700;" points="348.271,327.474 347.959,325.652 348.866,325.496 349.188,327.313      "/>
				</g>
			</g>
		</g>
		<path style="fill:#FFFFFF;" d="M238.532,436.745c0,0-4.155-18.005,17.468-7.079c0,0,1.462-7.081,7.925-1.54    c0,0,2.002-9.048,8.465-9.832c6.463-0.787,11.081,9.226,11.081,9.226s12.233-6.779,11.811,5.84L238.532,436.745z"/>
		<path style="fill:#FFFFFF;" d="M316.634,433.665c0,0-4.541-6.615-2.387-7.693c2.157-1.077,8.773,1.525,8.773,1.525    s-2.168-7.835,2.687-8.605c4.855-0.769,9.318,6.772,9.318,6.772s0.616-4.617,3.232-4.617c2.616,0,2.769,5.204,2.769,5.204    s8.773-14.438,15.236-3.666c0,0,19.851-10.464,13.083,9.542L316.634,433.665z"/>
	</g>
	<path style="fill:#00133E;" d="M0,76.175l26.317,385.041l464.908-17.083L512,50.784L0,76.175z M475.065,425.203L47.09,438.592   L17.544,102.954l473.218-33.242L475.065,425.203z"/>
</g>















</svg>
