<svg id="Magic" height="512" viewBox="0 0 1200 1200" width="512" xmlns="http://www.w3.org/2000/svg">
    <g>
        <path d="m1010.415 132.886c-28.005-28.464-70.444-42.869-104.318-9.689-49.942-30.041-112.431-45.814-182.231-45.814-221.066.089-471.408 159.137-515.978 381.402-14.533 85.334-4.215 161.872-6.939 245.478-.889 33.476-3.328 72.587-14.687 108.845-1.219 3.89-2.53 7.679-3.931 11.344-2.863.801-5.617 1.671-8.291 2.619-28.861 10.238-53.934 30.245-72.689 57.963-70.492 80.362 86.404 171.089 150.482 197.765 132.951 60.329 285.875 56.543 395.287-42.083 15.593 7.73 32.021 12.16 48.39 12.97 121.239.052 181.917-140.63 185.517-239.44 23.137-16.327 44.449-36.207 65.129-55.874 37.871-35.642 77.031-72.497 105.605-118.973 29.645-47.75 57.746-126.724 62.551-182.225 12.554-103.721-30.231-254.629-103.897-324.288zm-527.093 796.241c-16.903 20.368-21.322 23.028-42.996 25.882-22 2.854-44.701.081-66.194-7.074 6.597-4.171 12.54-8.354 17.231-12.087 28.77-21.129 32.607-60.934 38.916-94.324 1.627-9.895 11.099-26.993 16.084-31.605 20.289-1.956 47.721 10.14 56.219 28.336 13.39 25.48 2.034 66.967-19.26 90.872zm85.464-512.761c-32.545 26.966-55.822 63.862-67.381 106.843-17.889 63.006 10.377 46.57-44.311 50.6-19.264 1.961-37.732 6.729-54.887 14.171-3.387.708-11.301 7.259-11.303 3.604-3.424-94.866-1.884-190.531 55.889-271.677 6.278-9.28 13.229-18.547 20.656-27.546 31.934-38.684 31.934-38.684 63.478-51.784 43.798-17.974 85.892-27.575 129.815-27.985 59.785.158 107.585 20.861 153.089 62.443 2.085 1.921 4.198 3.929 6.359 6.04-15.251 6.679-31.794 11.673-49.097 16.899-84.035 24.355-147.203 57.017-202.307 118.392zm291.213 167.318c-14.77 15.975-31.148 29.501-48.73 40.242-53.907 15.847-95.399-17.832-70.334-70.797 5.381-10.376 13.326-20.05 23.611-28.747 11.461-9.696 11.461-9.696 22.385-12.012 15.004-3.211 33.584-6.605 49.434-11.779 33.467-10.846 58.018-22.198 72.976-33.746-.023 42.733-16.97 81.776-49.342 116.839z"
              fill="none"/>
        <g>
            <path d="m1064.266 273.595c-15.621-43.646-37.741-89.399-71.833-121.78-10.347-9.829-23.064-19.595-37.611-21.616-19.055-2.651-32.184 13.353-44.652 25.352-.321.308-.627.632-.946.941-61.767-44.505-141.813-57.062-216.394-51.921-86.447 5.959-170.68 34.732-244.434 79.856-69.605 42.588-132.293 100.16-173.689 171.024-19.512 33.401-34.119 69.956-41.139 108.066-7.014 38.071-7.574 77.106-7.324 115.704.271 41.909 1.92 83.824.807 125.734-1.036 38.975-4.16 78.56-15.873 115.955-2.617 8.355-5.691 16.557-9.33 24.521-.221.486-.357.963-.449 1.435-6.301 1.145-12.531 2.647-18.631 4.81-25.992 9.22-46.475 27.437-61.361 50.35-4.309 3.77-7.816 8.348-9.795 13.965-9.401 26.674 17.633 54.879 35.139 71.058 33.291 30.772 74.025 53.883 115.443 71.782 47.648 20.593 98.695 34.955 150.701 37.822 59.142 3.258 119.608-11.607 170.682-41.596 21.907-12.862 42.064-28.695 59.754-46.926 15.793 11.134 34.005 18.512 53.471 19.475 18.775.928 37.387-4.379 53.771-13.344 39.354-21.538 66.37-61.767 83.077-102.34 9.902-24.045 16.24-49.416 19.248-75.23 1.242-10.639 2.755-22.168 1.68-32.871-.09-.904-.263-1.79-.44-2.674 22.678-15.217 43.831-32.599 63.249-51.76.387-.229.769-.504 1.135-.85 40.049-37.846 81.893-75.471 111.001-122.815 14.78-24.043 26.134-50.03 35.78-76.505 11.229-30.813 19.748-61.945 23.033-94.654 6.114-60.935-3.49-123.473-24.07-180.968zm-536.394 629.346c-5.229 15.611-13.852 30.075-24.459 42.857-19.624 23.648-29.595 31.135-59.684 35.097-23.25 3.058-47.308.701-69.74-5.681-13.054-3.713-26.004-8.818-37.17-16.655-5.068-3.56-10.911-8.673-12.418-14.573 16.881-5.943 38.906-19.18 50.703-28.567 11.367-9.046 17.789-21.974 21.297-35.839 3.695-14.612 4.902-29.726 8.541-44.357 2.779-11.178 7.047-21.511 13.082-30.852 12.602-19.506 20.332-23.852 49.113-18.973 24.432 4.141 47.41 19.184 58.629 40.854 12.122 23.416 10.268 52.316 2.106 76.689zm121.069-522.668c-22.802 15.699-43.445 34.24-61.906 54.844-.036.041-.057.084-.09.125-30.033 24.316-50.258 57.307-60.325 94.746-3.301 12.278-5.521 24.806-7.054 37.418-1.36 11.184-2.246 22.367-4.673 33.332-9.269.131-18.425-1.09-27.704-1.564-9.146-.469-18.335-.314-27.451.611-16.296 1.657-32.104 5.624-47.141 12.147-17.414 7.554-32.895 18.331-47.061 30.722-.125-60.418-4.309-121.211 2.016-181.389 5.889-56.078 26.059-109.346 57.617-155.988 6.905-10.206 14.313-20.047 22.146-29.536 35.482-42.983 38.246-44.593 73.602-59.276 39.057-16.218 80.585-26.786 122.346-29.424 32.523-2.056 65.156 1.497 96.056 12.082 34.487 11.814 65.485 32.106 92.2 56.707 6.797 6.26 13.293 12.826 19.617 19.561-.432 1.932-.885 3.856-1.361 5.771-1.488 5.966-3.33 11.729-5.529 17.29-27.238 14.443-57.895 21.703-87.057 31.15-38.09 12.34-75.137 27.876-108.248 50.671zm283.713 118.154c-6.777 39.214-26.646 73.954-53.482 102.979-16.738 18.109-36.183 34.168-57.557 46.759-.064.019-.125.016-.193.036-33.781 9.828-74.234 8.687-98.36-20.438-20.247-24.443-19.396-59.498-5.303-86.655 7.38-14.228 17.798-26.401 29.925-36.659 17.439-14.752 18.457-14.324 36.689-18.229 14.733-3.152 29.586-5.813 43.941-10.465 16.527-5.356 48.164-16.523 65.064-29.572 7.165-5.534 13.105-12.018 17.576-19.928 3.818-6.762 6.6-14.021 9.71-21.124 1.025 1.518 1.96 3.061 2.761 4.533 14.104 25.98 14.127 60.425 9.229 88.763z"
                  fill="#68182b"/>
            <path d="m365.724 862.575c5.49-24.185 17.018-45.554 37.59-60.153 1.314-.932 2.658-1.809 4.008-2.682-4.951 7.94-8.855 16.521-11.629 25.667-4.395 14.504-5.875 29.595-8.881 44.397-2.717 13.373-7.043 26.418-17.631 35.641-4.594 4.001-9.734 7.518-15.081 10.77 6.815-16.959 7.606-35.955 11.624-53.64z"
                  fill="#00ebed"/>
            <path d="m389.17 1003.756c-27.357.9-56.542-4.046-80.966-16.846-7.58-3.973-16.16-9.062-20.648-16.648-3.124-5.277-2.332-9.546 2.813-13.893 6.357-5.369 14.396-7.535 22.574-9.48 3.326 14.434 21.545 24.778 33.332 30.283 25.104 11.73 53.615 17.085 81.258 16.453 4.039-.092 8.072-.335 12.098-.711-15.966 6.478-32.984 10.265-50.461 10.842z"
                  fill="#00ebed"/>
            <path d="m982.235 321.802c-4.618-17.402-10.187-34.686-17.644-51.096-5.254-11.567-11.387-23.496-20.267-32.745-2.946-3.069-6.206-5.912-10.188-7.549-2.732-1.124-5.65-1.398-8.652-.473-3.198.985-6.387 3.801-8.845 6.886-5.704 7.169-8.876 16.177-11.333 24.886-7.257 25.721-9.797 52.468-18.639 77.806-6.72 19.256-16.173 38.32-31.36 52.309-21.652 19.943-50.903 28.992-78.836 36.09-31.569 8.018-63.826 13.826-94.334 25.542-32.05 12.31-60.635 32.07-79.357 61.31-11.502 17.963-19.001 38.117-23.843 58.822-5.475 23.4-9.672 46.807-20.32 68.601-7.734 15.821-18.847 30.081-34.065 39.277-15.71 9.499-34.223 12.901-52.345 13.616-11.127.438-22.176.178-33.262 1.529-9.447 1.15-18.836 3.188-27.839 6.291-14.81 5.104-28.259 13.515-38.906 25.043-19.835 21.478-28.16 50.705-34.679 78.499-6.24 26.591-10.236 55.036-23.357 79.364-5.652 10.483-13.447 19.86-23.633 26.192-8.9 5.532-19.379 8.635-29.449 11.171-15.744 3.969-31.943 5.791-48.063 7.482-6.57.689-16.119.809-23.816 3.19-11.414 3.534-15.304 10.121-7.045 22.403 6.506 9.676 16.166 17.445 25.469 24.276 13.727 10.081 28.531 18.687 43.678 26.429 37.004 18.918 76.828 32.949 117.541 41.313 41.781 8.583 85.514 11.002 127.006-.326 25.74-7.031 50.029-18.135 71.613-33.883 17.635-12.862 33.056-28.396 48.135-44.111-7.303-14.313-13.455-29.368-19.486-43.791-14.122-33.773-26.379-68.508-35.514-103.972-7.166-27.815-14.822-59.274-9.595-88.096 1.642-9.056 5.442-18.39 13.304-23.743 7.978-5.434 18.625-6.684 27.993-7.347 30.503-2.159 62.026 3.696 91.671 10.274 34.967 7.758 69.535 18.367 102.334 32.826 13.317 5.871 26.453 12.457 38.527 20.619 18.025-13.082 35.148-27.379 51.051-42.984 40.494-39.744 72.556-87.222 95.962-138.833 9.64-21.253 16.836-42.995 21.072-65.965 4.079-22.113 5.774-44.64 5.885-67.111.213-43.729-5.354-87.745-16.569-130.021zm-448.435 597.167c-13.15 28.836-35.914 53.265-62.421 70.334-29.876 19.24-64.163 27.942-99.577 25.689-27.313-1.738-57.621-8.417-80.195-24.738-7.271-5.255-14.83-12.156-16.912-21.279-2.045-8.969 2.512-16.945 9.485-22.311 14.032-10.799 33.483-8.522 47.606-18.676 6.879-4.941 10.834-12.564 13.313-20.48 6.656-21.259 6.807-43.943 14.412-65.027 10.386-28.787 31.813-49.344 59.303-62.166 4.531-2.041 9.17-3.732 14.012-4.882 44.688-10.589 94.523 14.478 108.645 58.915 8.701 27.386 4.08 58.851-7.671 84.621zm401.95-386.718c-13.856 39.232-41.079 73.892-72.744 100.459-25.386 21.3-54.759 38.827-87.003 47.256-29.229 7.642-63.469 10.384-90.369-6.044-41.227-25.177-43.579-83.396-19.627-121.312 5.764-8.923 12.078-17.508 19.137-25.454 22.761-25.622 52.412-41.479 85.363-49.795 23.881-6.026 51.47-7.352 72.699-20.891 14.088-8.985 20.076-23.674 26.494-38.473 5.764-13.289 14.455-29.031 29.343-33.7 24.216-7.596 37.86 23.058 42.671 41.233 9.156 34.606 5.878 73.193-5.964 106.721z"
                  fill="#ff1250"/>
            <path d="m882.318 417.9c4.234-8.815 12.658-23.342 23.858-23.178 2.082.031 4.032.701 5.86 1.743-3.295 7.2-6.083 14.634-9.762 21.654-3.967 7.567-9.111 13.798-15.881 19.017-5.97 4.605-12.561 8.521-19.469 11.813 6.355-9.543 10.345-20.541 15.394-31.049z"
                  fill="#00ebed"/>
            <path d="m669.083 571.412c1.9-4.521 4.248-8.852 6.863-12.991 14.133-21.88 32.12-40.208 54.088-52.999-20.328 20.857-34.419 47.425-34.196 77.436.266 35.473 22.384 66.439 56.068 77.725 10.67 3.576 21.801 4.961 32.963 4.857-24.031 8.443-51.446 12.6-75.765 6.023-20.563-5.561-36.715-20.217-43.317-40.583-6.249-19.277-4.524-40.89 3.296-59.468z"
                  fill="#00ebed"/>
            <path d="m236.564 743.666c3.318-40.893 2.465-82 1.762-122.975-.682-39.557-1.631-79.288 1.74-118.754 3.207-37.523 12.063-73.993 27.748-108.308 33.393-73.039 90.849-133.622 156.098-179.403 69.768-48.951 150.338-82.395 234.838-94.551 76.064-10.942 159.787-4.923 227.112 35.092 5.188 3.083 10.198 6.436 15.127 9.908-4.057 4.022-8.153 8.008-12.159 12.082-.064.064-.101.135-.162.202-4.764 4.183-8.916 9.147-12.383 14.347-14.025 21.021-17.73 45.96-22.363 70.379-24.58-25.184-52.594-47.276-84.422-62.533-30.473-14.607-63.549-22.629-97.299-23.989-68.546-2.761-138.844 18.892-198.701 51.218-61.168 33.035-115.049 80.386-153.896 138.174-19.721 29.338-35.396 61.449-46.019 95.182-11.72 37.213-16.12 75.869-16.774 114.768-1.361 80.574 12.612 164.764-11.48 243.26-2.629 8.563-5.799 16.933-9.412 25.125-7.172.662-14.357 1.25-21.496 2.077 13.473-32.087 19.34-66.735 22.141-101.301z"
                  fill="#ffe10e"/>
            <path d="m835.896 315.131c-3.636 5.771-7.922 11.174-13.064 16.097-10.557 10.103-23.316 17.582-36.512 23.7-30.611 14.188-64.03 21.65-96.182 31.439-19.691 5.992-39.451 12.774-58.221 21.499 22.19-18.407 46.627-33.912 73.113-46.132 32.348-14.924 66.66-24.199 100.412-35.252 10.284-3.368 20.508-7.052 30.454-11.351z"
                  fill="#00ebed"/>
            <path d="m511.648 612.326c-2.714 7.674-6.664 15.119-13.039 20.323-6.375 5.206-14.645 7.321-22.715 7.843-11.754.758-23.439-1.344-35.158-1.906-11.465-.549-22.987-.314-34.389 1.106-8.785 1.093-17.5 2.876-25.936 5.5 11.205-8.999 23.285-16.829 36.608-22.714 14.281-6.307 29.786-10.09 45.324-11.421 8.909-.763 17.868-.806 26.79-.261 7.548.46 14.997 1.381 22.515 1.53z"
                  fill="#00ebed"/>
            <path d="m353.984 653.414c-4.422 4.319-8.752 8.733-12.949 13.251-.227.245-.396.501-.572.755-19.186 17.188-31.328 40.782-39.561 65.307-9.969 29.697-14.626 60.809-23.713 90.746-1.326 4.367-2.793 8.813-4.457 13.211-7.805 2.348-15.787 3.773-23.844 4.806 28.504-70.59 21.588-149.075 19.744-223.644-.984-39.785-.971-80.088 6.868-119.271 6.86-34.302 19.028-67.393 35.759-98.101 32.895-60.372 82.429-110.946 140.248-147.811.527-.336 1.066-.652 1.595-.985-30.28 33.296-55.554 70.959-72.866 112.741-10.887 26.28-18.451 53.869-22.383 82.045-4.355 31.221-5.098 62.816-5.02 94.3.096 37.553 1.418 75.094 1.151 112.65z"
                  fill="#fac135"/>
            <path d="m190.95 861.14c15.689-4.556 32-5.565 48.223-7.104 1.17.299 2.377.229 3.438-.34 8.141-.82 16.244-1.861 24.225-3.611-7.031 13.705-16.855 25.538-31.58 31.105-28.691 10.85-60.723 1.386-90.128 9.051 12.49-13.407 27.83-23.875 45.822-29.101z"
                  fill="#00ebed"/>
            <path d="m672.007 1010.791c-18.422-6.89-27.44-13.805-37.724-31.479-6.42-11.034-12.037-22.543-17.371-34.135-14.029-30.48-25.979-62.005-36.021-94.017-9.401-29.968-18.259-61.375-19.693-92.924-.342-7.546-.438-15.439 1.163-22.885 2.093-9.726 3.964-6.921 6.752-.233 14.877 35.647 31.576 70.554 49.787 104.609 22.193 41.492 46.598 82.004 74.602 119.861 12.71 17.177 26.247 33.771 40.929 49.309-19.616 7.997-41.127 9.861-62.424 1.894z"
                  fill="#ffe10e"/>
            <path d="m842.116 829.607c-1.115 12.393-3.16 24.686-5.988 36.799-10.271 44.005-31.275 87.689-64.85 118.654-9.1 8.394-19.307 15.535-30.193 20.857-29.019-30.277-53.556-64.756-75.895-100.15-24.764-39.236-46.9-80.156-66.857-122.035-8.556-17.963-16.691-36.123-24.296-54.506-3.515-8.479-3.513-10.354 4.204-12.49 10.061-2.784 20.837-2.809 31.473-2.456 14.567.485 29.08 2.271 43.447 4.673 33.443 5.595 66.506 14.301 98.441 25.691 26.426 9.424 54.965 20.559 76.652 38.898 17.97 15.191 16.153 20.634 13.862 46.065z"
                  fill="#fac135"/>
            <path d="m905.879 744.613c-17.392 16.793-36.163 32.072-56.174 45.629-4.754-7.701-11.671-13.955-18.974-19.361 40.113-29.509 75.336-65.119 103.827-106.042 17.344-24.908 32.146-51.546 44.515-79.254 9.478-21.234 16.55-42.95 20.696-65.854 8.174-45.143 7.427-91.797 1.386-137.15-5.22-39.189-14.086-78.854-30.443-115.013-5.477-12.113-11.967-24.389-21.162-34.132-5.963-6.321-14.142-12.132-23.287-10.735-11.355 1.735-18.479 13.393-22.637 22.972-10.164 23.418-11.883 49.93-18.313 74.463-5.894 22.478-14.663 46.104-31.108 63.117-9.84 10.178-22.008 17.641-34.863 23.404-28.901 12.957-60.818 18.199-91.385 25.75-32.613 8.057-65.659 18.33-93.066 38.42-32.264 23.652-52.011 58.574-61.653 96.965-6.033 24.022-9.593 48.416-20.587 70.912-7.848 16.057-19.096 30.242-35.059 38.777-17.459 9.334-37.215 10.666-56.619 10.85-20.223.191-40.762 2.96-59.484 10.918-28.953 12.305-47.785 36.631-58.895 65.402-10.76 27.877-14.737 57.662-22.623 86.357-6.422 23.373-16.422 48.641-40.273 58.875-14.811 6.352-31.086 9.42-46.971 11.58-13.244 1.801-26.811 2.182-39.938 4.711-8.164 1.574-18.141 5.018-21.174 13.65-2.762 7.861 1.675 16.16 6.301 22.313 7.76 10.322 18.121 18.583 28.558 26.045 30.921 22.102 66.491 38.188 102.276 50.612 41.098 14.266 84.744 23.813 128.404 23.734 48.736-.087 97.471-15.12 136.553-44.546 16.445-12.383 31.039-26.857 45.291-41.647 4.025 7.364 8.373 14.495 13.291 21.124.761 1.025 1.545 2.058 2.357 3.069-40.148 41.063-92.488 67.815-148.66 79.297-51.143 10.454-103.35 5.395-153.4-8.282-47.373-12.947-93.16-33.066-134.45-59.692-16.69-10.765-32.739-22.685-47.026-36.519-10.441-10.107-20.83-21.601-26.58-35.146-6.779-15.973-2.77-27.04 12.157-34.67 12.681-6.479 27.577-7.123 41.528-7.359 23.764-.405 50.118 1.723 71.28-11.205 10.638-6.499 18.915-16.133 25.067-26.881 14.271-24.932 19.382-54.418 25.898-82.035 6.936-29.391 14.566-59.895 32.232-84.928 19.992-28.334 52.014-41.145 85.854-42.986 11.813-.643 23.668-.195 35.433.949 10.499 1.023 20.908 1.752 31.353-.24 19.258-3.675 31.369-17.902 37.563-35.819 4.432-12.826 6.026-26.439 7.342-39.876 1.215-12.403 3.191-24.719 6.141-36.832 4.999-20.52 12.863-40.266 24.497-57.946 19.755-30.024 49.486-50.61 81.986-64.901 31.72-13.948 65.567-22.176 98.645-32.16 29.469-8.891 60.015-19.104 84.026-39.077 11.609-9.655 21.018-21.83 27.143-35.647.379-.855.709-1.723 1.066-2.584.647-.787.984-1.685 1.074-2.613 11.06-28.54 11.158-60.044 22.246-88.604 3.897-10.041 10.203-21.396 18.768-28.959.392-.245.775-.537 1.143-.91.123-.126.248-.25.369-.373 2.824-2.271 5.859-4.167 9.149-5.42 10.487-3.994 21.286-1.392 31.266 4.421 13.375 7.789 24.233 19.84 33.315 32.194 12.482 16.971 22.496 35.729 30.934 54.995 20.656 47.161 32.209 98.852 35.261 150.169 3.495 58.771-5.579 116.188-27.789 170.742-23.386 57.433-59.005 109.916-103.598 152.982z"
                  fill="#67d5e8"/>
            <path d="m1078.105 437.672c-1.621 31.039-7.797 61.166-17.662 90.602-9.072 27.064-19.538 53.752-33.365 78.775-12.412 22.461-27.726 42.635-44.543 61.579 31.146-48.794 54.073-104.14 62.575-161.359 8.272-55.663 4.655-112.865-8.298-167.544-10.703-45.182-27.656-91.125-55.159-128.938-14.868-20.445-38.048-45.819-65.571-45.046 6.09-5.927 12.301-11.725 18.754-17.225 14.124-12.03 27.51-7.742 45.055 7.438 14.541 12.588 26.298 28.241 36.549 44.414 13.256 20.912 24.172 43.331 33.063 66.423 20.858 54.178 31.635 112.785 28.602 170.881z"
                  fill="#00ebed"/>
            <path d="m666.007 552.61c5.764-8.923 12.078-17.508 19.137-25.454 22.761-25.622 52.412-41.479 85.363-49.795 23.881-6.026 51.47-7.352 72.699-20.891 14.088-8.985 20.076-23.674 26.494-38.473 5.764-13.289 14.455-29.031 29.343-33.7 23.71-7.437 37.263 21.763 42.333 40.049-3.758-20.04-13.971-45.257-37.055-47.382-22.314-2.055-34.77 18.854-41.745 36.389-6.366 15.998-16.798 29.657-31.85 38.404-12.809 7.443-30.542 9.602-44.784 13.373-47.982 12.698-93.588 33.565-123.285 75.387-25.91 36.486-26.877 86.748 5.255 117.796-23.456-28.947-21.76-74.273-1.905-105.703z"
                  fill="#ce064e"/>
            <path d="m495.851 1047.941c25.74-7.031 50.029-18.135 71.613-33.883 17.635-12.862 33.056-28.396 48.135-44.111-7.303-14.313-13.455-29.368-19.486-43.791-14.122-33.773-26.379-68.508-35.514-103.972-5.65-21.931-11.578-46.124-11.281-69.506-3.188 15.075.09 32.524 1.916 47.501 4.195 34.424 13.17 68.129 22.979 101.32 9.178 31.061 19.512 62.456-5.279 89.04-19.471 20.878-49.564 34.28-76.32 42.697-47.182 14.846-100.994 12.3-149.232 4.854-12.035-1.857-24.159-4.187-36.203-7.08 20.15 7.164 40.789 12.968 61.668 17.256 41.779 8.584 85.512 11.003 127.004-.325z"
                  fill="#ce064e"/>
            <path d="m976.925 303.584c6.52 30.494 9.166 62.111 10.756 93.92 3.295 65.871-1.864 134.151-31.814 193.971-13.898 27.76-33.179 53.511-53.385 76.934-20.744 24.049-47.018 52.213-80.621 53.951-16.213.84-32.572-3.49-48.524-5.814-16.703-2.438-33.705-3.184-50.478-5.232-27.92-3.414-55.965-6.414-84.107-6.409 15.301 2.017 30.494 5.103 45.221 8.37 34.967 7.758 69.535 18.367 102.334 32.826 13.317 5.871 26.453 12.457 38.527 20.619 18.025-13.082 35.148-27.379 51.051-42.984 40.494-39.744 72.556-87.222 95.962-138.833 9.64-21.253 16.836-42.995 21.072-65.965 4.079-22.113 5.774-44.64 5.885-67.111.214-43.731-5.353-87.747-16.568-130.022-1.622-6.107-3.416-12.178-5.311-18.221z"
                  fill="#ce064e"/>
            <path d="m543.519 826.389c-6.178-24.651-23.836-43.524-46.463-54.152-42.268-19.855-96.186-5.201-124.366 31.288-17.896 23.17-26.046 49.945-30.601 78.482-1.982 12.429-4.311 25.527-12.904 35.252-7.605 8.611-21.953 9.162-32.041 13.717-16.586 7.491-29.9 19.812-24.234 39.251 1.957 6.712 6.936 11.754 13.137 15.636-5.23-4.563-9.805-10.108-11.352-16.889-2.045-8.969 2.512-16.945 9.485-22.311 14.032-10.799 33.483-8.522 47.606-18.676 6.879-4.941 10.834-12.564 13.313-20.48 6.656-21.259 6.807-43.943 14.412-65.027 10.386-28.787 31.813-49.344 59.303-62.166 4.531-2.041 9.17-3.732 14.012-4.882 44.688-10.589 94.523 14.478 108.645 58.915 4.686 14.749 5.48 30.681 3.406 46.271 4.888-17.296 2.487-38.888-1.358-54.229z"
                  fill="#ce064e"/>
            <path d="m828.255 783.543c-.29-.244-.609-.458-.901-.699 3.044 8.19 5.243 16.81 6.157 26.144 2.826 28.886-6.389 58.308-21.284 82.775-13.497 22.17-35.376 45.366-62.355 48.813-18.69 2.389-34.187-11.054-46.985-22.713-31.146-28.376-56.988-63.154-81.227-97.403-6.33-8.942-12.543-18.003-18.612-27.164 18.738 38.531 39.277 76.239 62.144 112.472 22.339 35.395 46.876 69.873 75.895 100.15 10.887-5.322 21.094-12.464 30.193-20.857 33.574-30.965 54.578-74.649 64.85-118.654 2.828-12.113 4.873-24.406 5.988-36.799 2.289-25.432 4.106-30.875-13.863-46.065z"
                  fill="#ee9e2b"/>
            <path d="m451.507 252.664c-57.819 36.864-107.354 87.438-140.248 147.811-16.73 30.708-28.898 63.799-35.759 98.101-7.839 39.183-7.853 79.485-6.868 119.271 1.428 57.711 5.818 117.752-5.45 174.68 7.252-14.082 11.972-29.582 14.985-44.969 6.051-30.902 4.994-62.689 5.297-94.002.371-38.477 4.516-76.87 12.859-114.438 11.502-51.808 35.639-99.204 63.601-143.921 6.886-11.008 13.905-22.28 21.405-33.24 17.275-40.788 42.095-77.644 71.772-110.276-.528.33-1.067.647-1.594.983z"
                  fill="#ee9e2b"/>
            <path d="m792.013 798.521c-5.998-16.934-30.273-25.556-45.08-31.856-33.732-14.355-68.895-24.14-104.844-30.364-35.354-6.117-24.395 10.019-12.578 22.98 34.05 37.358 77.346 85.21 93.968 102.1 9.716 9.877 25.968 26.342 41.407 19.562 13.143-5.771 19.592-25.733 23.539-38.088 4.223-13.22 8.41-30.72 3.588-44.334z"
                  fill="#fbe134"/>
            <path d="m352.833 540.764c-.078-31.483.664-63.079 5.02-94.3.412-2.957.889-5.902 1.381-8.847-29.253 59.669-4.746 133.589-25.426 196.005-6.339 19.139-16.905 36.256-24.701 54.734-8.334 19.757-12.361 41.256-15.211 62.398-.48 3.57-.829 7.145-1.195 10.715 2.412-9.667 5.023-19.279 8.201-28.744 8.232-24.524 20.375-48.119 39.561-65.307.176-.254.346-.51.572-.755 4.197-4.518 8.527-8.932 12.949-13.251.267-37.554-1.055-75.095-1.151-112.648z"
                  fill="#fbe134"/>
            <path d="m872.064 180.758c-22.094 11.302-42.079 15.174-66.424 7.678-30.669-9.442-59.891-21.799-92.058-25.746-31.665-3.885-63.974-1.571-95.431 3.155-61.601 9.255-119.941 33.147-173.271 64.831-50.615 30.069-93.313 66.433-126.508 115.393-22.271 32.855-39.319 69.248-51.65 106.92-14.52 44.344-18.381 89.836-17.818 136.301.623 51.701 5.641 103.314 1.682 155.002-2.631 34.351-10.98 67.658-23.584 99.406 2.973-.271 5.945-.535 8.916-.809 3.613-8.192 6.783-16.563 9.412-25.125 24.093-78.496 10.119-162.686 11.48-243.26.654-38.898 5.055-77.555 16.774-114.768 10.622-33.732 26.298-65.844 46.019-95.182 38.848-57.788 92.729-105.139 153.896-138.174 59.857-32.326 130.155-53.979 198.701-51.218 33.75 1.36 66.826 9.382 97.299 23.989 31.828 15.257 59.842 37.35 84.422 62.533 4.633-24.419 8.338-49.358 22.363-70.379 3.467-5.199 7.619-10.164 12.383-14.347.062-.067.098-.138.162-.202 1.271-1.293 2.572-2.555 3.859-3.834-6.966 1.338-13.702 4.297-20.624 7.836z"
                  fill="#f7b001"/>
            <path d="m693.501 959.59c-28.004-37.857-52.408-78.369-74.602-119.861-12.365-23.121-23.966-46.664-34.84-70.535 13.197 43.859 30.797 86.453 51.235 127.339 13.135 26.273 27.775 51.159 44.415 75.317 9.382 13.615 14.785 26.994 12.308 43.547 14.573 1.49 28.942-1.008 42.412-6.498-14.681-15.538-28.218-32.133-40.928-49.309z"
                  fill="#f7b001"/>
            <path d="m876.197 161.995c7.053 2.06 14.045 4.212 21 6.449 1.269-1.253 2.525-2.514 3.792-3.769-4.929-3.473-9.939-6.825-15.127-9.908-67.325-40.015-151.048-46.034-227.112-35.092-57.686 8.297-113.529 26.531-165.365 52.832 22.463-9.629 45.461-17.765 68.378-24.463 68.618-20.059 143.089-19.144 213.223-8.764 34.232 5.067 68.009 13.023 101.211 22.715z"
                  fill="#f8f383"/>
            <path d="m634.283 979.312c3.222 5.538 6.343 9.932 9.646 13.689-8.369-12.584-14.339-27.379-19.925-40.662-13.895-33.049-25.008-67.301-36.164-101.344-11.035-33.678-21.719-72.049-15.24-107.807-1.149-2.694-2.359-5.365-3.488-8.07-2.788-6.688-4.659-9.492-6.752.233-1.602 7.445-1.505 15.339-1.163 22.885 1.435 31.549 10.292 62.956 19.693 92.924 10.043 32.012 21.992 63.536 36.021 94.017 5.335 11.592 10.953 23.101 17.372 34.135z"
                  fill="#f8f383"/>
            <g fill="#00afb3">
                <path d="m403.314 802.422c-20.572 14.6-32.1 35.969-37.59 60.153-.541 2.382-1.018 4.788-1.465 7.207 2.654-5.334 5.503-10.603 8.582-15.808 6.849-11.588 14.744-24.124 24.707-34.039 2.575-7.107 5.824-13.862 9.773-20.195-1.349.873-2.693 1.75-4.007 2.682z"/>
                <path d="m912.036 396.466c-1.828-1.042-3.778-1.712-5.86-1.743-11.2-.164-19.624 14.362-23.858 23.178-.432.896-.828 1.813-1.246 2.716 7.861-6.139 17.055-10.744 26.059-12.876 1.626-3.763 3.2-7.55 4.905-11.275z"/>
                <path d="m454.718 631.679c-21.438 1.222-45.822 1.359-65.537 11.141 5.656-1.358 11.393-2.408 17.166-3.128 11.401-1.421 22.924-1.655 34.389-1.106 11.719.563 23.404 2.664 35.158 1.906 8.07-.521 16.34-2.637 22.715-7.843 4.564-3.726 7.85-8.622 10.365-13.908-16.105 8.923-36.401 11.921-54.256 12.938z"/>
                <path d="m676.568 598.402c4.248-17.78 13.658-38.016 26.871-53.57 6.061-14.623 15.367-27.89 26.596-39.41-21.968 12.791-39.955 31.119-54.088 52.999-2.615 4.14-4.963 8.471-6.863 12.991-7.82 18.578-9.545 40.191-3.296 59.468 2.705 8.345 7.081 15.661 12.64 21.856-5.302-17.043-6.495-34.933-1.86-54.334z"/>
                <path d="m736.083 364.033c-25.316 8.493-50.688 15.536-72.716 31.133 8.874-3.155 17.823-6.076 26.771-8.799 32.151-9.789 65.57-17.252 96.182-31.439 13.195-6.118 25.955-13.598 36.512-23.7 5.143-4.923 9.429-10.326 13.064-16.097-3.957 1.712-7.986 3.261-12.019 4.797-17.877 26-60.522 34.955-87.794 44.105z"/>
                <path d="m309.892 977.101c-4.197-10.213-.967-18.176 5.621-23.817-1.148-2.035-2.055-4.16-2.57-6.396-8.178 1.945-16.217 4.111-22.574 9.48-5.145 4.347-5.937 8.615-2.813 13.893 4.488 7.587 13.068 12.676 20.648 16.648 4.168 2.184 8.512 4.057 12.922 5.795-4.878-4.255-8.73-9.509-11.234-15.603z"/>
                <path d="m1009.986 257.174c-1.588-2.493-3.271-4.953-4.934-7.42 14.304 28.521 24.515 59.389 31.76 89.971 12.953 54.679 16.57 111.881 8.298 167.544-8.502 57.22-31.43 112.565-62.575 161.359 16.817-18.944 32.131-39.118 44.543-61.579 4.747-8.588 9.071-17.385 13.105-26.314 4.25-14.012 7.773-28.328 10.366-43.102 8.35-47.592 8.246-96.583 3.083-144.509-5.123-47.575-17.76-95.294-43.646-135.95z"/>
                <path d="m209.052 877.02c-16.305 3.067-32.727 5.431-48.533 10.618 24.945-2.381 50.982 2.537 74.736-6.447 10.949-4.139 19.182-11.751 25.576-21.014-16.035 8.889-35.179 13.717-51.779 16.843z"/>
            </g>
            <path d="m427.532 993.625c-9.352.214-18.799-.316-28.186-1.488-12.98 5.262-26.871 8.527-41.242 10.074 10.383 1.398 20.85 1.882 31.065 1.545 17.477-.576 34.495-4.363 50.46-10.842-4.024.376-8.057.619-12.097.711z"
                  fill="#88f9f9"/>
            <path d="m369.181 905.445c10.588-9.223 14.914-22.268 17.631-35.641 1.762-8.678 3.01-17.449 4.618-26.15-4.274 10.617-6.767 22.262-10.679 32.653-4.828 12.819-12.916 21.183-22.688 27.445-1.068 4.238-2.336 8.409-3.964 12.462 5.348-3.251 10.488-6.768 15.082-10.769z"
                  fill="#88f9f9"/>
            <path d="m784.869 665.439c-10.031.092-20.018-1.111-29.685-3.931-14.274 6.229-29.498 9.864-45.126 10.159 24.082 6.218 51.091 2.108 74.811-6.228z"
                  fill="#88f9f9"/>
            <path d="m211.665 856.902c-6.982.973-13.908 2.262-20.715 4.238-17.992 5.226-33.332 15.693-45.823 29.102 2.7-.703 5.429-1.223 8.169-1.668 15.988-14.711 36.766-25.072 58.369-31.672z"
                  fill="#88f9f9"/>
            <path d="m1078.01 397.414c-2.417-44.662-12.464-88.952-28.509-130.622-8.891-23.092-19.807-45.511-33.063-66.423-10.251-16.173-22.008-31.826-36.549-44.414-16.734-14.479-29.686-19.012-43.104-8.965 20.738 7.014 38.977 23.93 53.323 39.077 22.608 23.869 39.243 52.311 52.794 82.083 14.889 32.716 25.162 66.94 31.164 102.35 1.517 8.943 2.793 17.92 3.944 26.914z"
                  fill="#88f9f9"/>
            <path d="m634.646 1000.528c-.813-1.012-1.597-2.044-2.357-3.069-1.121-1.514-2.12-3.135-3.186-4.695-29.916 29.707-66.354 52.93-105.411 69.203-28.785 11.992-59.286 19.691-90.231 23.377 17.549-.234 35.1-1.957 52.525-5.519 56.171-11.481 108.511-38.233 148.66-79.297z"
                  fill="#65b0b9"/>
            <path d="m1037.597 462.495c-8.291 46.476-22.711 92.042-41.425 135.255-20.036 46.266-46.082 87.615-80.964 124.053-21.775 22.749-45.119 43.45-69.427 62.951 1.423 1.746 2.741 3.572 3.924 5.488 20.011-13.557 38.782-28.836 56.174-45.629 44.593-43.066 80.212-95.549 103.596-152.984 16.936-41.602 26.21-84.871 28.122-129.134z"
                  fill="#65b0b9"/>
            <path d="m171.615 939.824c3.033-8.633 13.01-12.076 21.174-13.65 13.127-2.529 26.693-2.91 39.938-4.711 15.885-2.16 32.16-5.229 46.971-11.58 23.852-10.234 33.852-35.502 40.273-58.875 7.886-28.695 11.863-58.48 22.623-86.357 11.109-28.771 29.941-53.098 58.895-65.402 18.723-7.958 39.262-10.727 59.484-10.918 19.404-.184 39.16-1.516 56.619-10.85 15.963-8.535 27.211-22.721 35.059-38.777 10.994-22.496 14.554-46.89 20.587-70.912 9.643-38.391 29.39-73.313 61.653-96.965 27.407-20.09 60.453-30.363 93.066-38.42 30.566-7.551 62.483-12.793 91.385-25.75 12.855-5.764 25.023-13.227 34.863-23.404 16.445-17.013 25.215-40.64 31.108-63.117 6.431-24.533 8.149-51.045 18.313-74.463 4.158-9.579 11.281-21.236 22.637-22.972 9.137-1.395 17.307 4.403 23.268 10.715-5.793-6.789-13.166-12.053-22.125-14.497-20.445-5.577-33.042 10.472-38.245 27.762-15.05 49.999-16.694 113.326-66.522 143.551-23.013 13.959-52.129 17.415-77.99 22.74-30.771 6.334-61.447 13.238-90.414 25.682-25.057 10.765-47.946 26.508-64.649 48.228-14.948 19.442-22.68 43.358-29.172 66.673-6.64 23.85-10.229 48.625-18.735 71.928-4.284 11.736-10.564 22.579-19.551 31.319-11.523 11.21-27.127 14.394-42.402 16.881-29.881 4.866-61.658 3.81-89.867 16.263-25.586 11.293-44.421 30.48-56.35 55.645-20.174 42.557-14.279 94.883-41.98 134.239-10.762 15.286-27.277 23.898-44.893 28.858-10.563 2.976-21.526 4.523-32.403 5.764-10.505 1.199-24.13-.377-33.726 4.721-11.437 6.078-12.83 14.848-9.555 23.415.135-.928.34-1.85.663-2.764z"
                  fill="#65b0b9"/>
        </g>
    </g>
</svg>