<svg id="Layer_1" enable-background="new 0 0 512 512" viewBox="0 0 512 512" xmlns="http://www.w3.org/2000/svg">
    <g id="_x32_0_Care"/>
    <g id="_x31_9_Health"/>
    <g id="_x31_8_World_Health_Day"/>
    <g id="_x31_7_World_Health_Day"/>
    <g id="_x31_5_Healthy"/>
    <g id="_x31_4_World_Health_Day"/>
    <g id="_x31_3_World_Health_Day"/>
    <g id="_x31_2_World_Health_Day"/>
    <g id="_x31_1_Fruits"/>
    <g id="_x31_0_Exercise"/>
    <g id="_x30_9_World_Health_Day"/>
    <g id="_x30_8_World_Health_Day"/>
    <g id="_x30_7_Healthy"/>
    <g id="_x30_6_World_Health_Day"/>
    <g id="_x30_5_World_Health_Day"/>
    <g id="_x30_4_Water"/>
    <g id="_x30_3_World_Health_Day"/>
    <g id="_x30_2_World_Health_Day"/>
    <g id="_x30_1_World_Health_Day"/>
    <g>
        <path d="m497.474 107.009c-10.815-21.924-27.806-40.242-49.135-52.972-21.517-12.842-45.394-18.782-69.047-17.172-35.728 2.429-81.653 25.292-108.611 58.002-26.959-32.71-72.884-55.572-108.611-58.002-23.655-1.607-47.53 4.329-69.047 17.172-21.329 12.731-38.32 31.049-49.135 52.972-14.546 29.486-18.256 63.978-10.731 99.745 6.321 30.037 20.201 60.318 40.139 87.569 20.962 28.65 50.019 60.424 86.362 94.439 38.772 36.289 60.743 60.388 84.687 78.435l7.748 7.617c8.659 8.512 22.239 9.415 31.949 2.125l12.975-9.742c23.944-18.047 53.766-40.871 92.539-77.16 36.343-34.015 60.267-65.121 81.229-93.771 19.94-27.251 31.1-59.474 37.421-89.511 7.524-35.768 3.814-70.259-10.732-99.746z"
              fill="#b9eeea"/>
        <path d="m468.113 100.546c-10.815-21.924-27.806-40.242-49.135-52.972-21.517-12.842-45.394-18.782-69.047-17.172-35.728 2.429-81.653 25.292-108.611 58.002-26.959-32.71-72.884-55.572-108.611-58.002-23.655-1.607-47.53 4.329-69.047 17.172-21.329 12.731-38.32 31.049-49.135 52.972-14.547 29.486-18.257 63.978-10.732 99.746 6.321 30.037 20.201 60.318 40.139 87.569 20.962 28.65 50.019 60.424 86.362 94.439 38.772 36.289 75.454 65.419 99.398 83.466l6.818 5.139c2.846 2.145 6.768 2.145 9.613 0l6.818-5.139c23.944-18.047 60.626-47.177 99.398-83.466 36.343-34.015 65.399-65.789 86.361-94.439 19.939-27.251 33.819-57.531 40.14-87.569 7.528-35.768 3.817-70.26-10.729-99.746z"
              fill="#dbfffd"/>
        <g>
            <path d="m450.793 109.091c-18.679-37.862-59.374-62.152-99.551-59.42s-95.946 36.484-109.922 76.565c-13.975-40.081-69.744-73.833-109.922-76.565-40.177-2.732-80.872 21.558-99.551 59.42-27.47 55.684-6.158 121.124 27.675 167.365 43.587 59.572 119.741 127.113 181.798 173.886 62.057-46.773 138.211-114.315 181.798-173.886 33.833-46.241 55.145-111.681 27.675-167.365z"
                  fill="#ff4f29"/>
            <path d="m326.823 216.824h-52.426v-52.425c0-2.467-2-4.467-4.467-4.467h-57.22c-2.467 0-4.467 2-4.467 4.467v52.425h-52.426c-2.467 0-4.467 2-4.467 4.467v57.22c0 2.467 2 4.467 4.467 4.467h52.426v52.425c0 2.467 2 4.467 4.467 4.467h57.22c2.467 0 4.467-2 4.467-4.467v-52.425h52.426c2.467 0 4.467-2 4.467-4.467v-57.22c0-2.466-2-4.467-4.467-4.467z"
                  fill="#fbf1ee"/>
        </g>
    </g>
</svg>