<svg id="construction_equipment" height="512" viewBox="0 0 1200 1200" width="512" xmlns="http://www.w3.org/2000/svg">
    <g>
        <path d="m203.909 972.426c17.525 19.52 54.572 26.232 78.17 35.253 27.854 10.646 69.214 35.622 99.924 31.546 26.619-3.535 53.377-25.072 61.541-50.584 4.984-15.573 4.268-33.746 1.551-49.652-1.547-9.066-4.096-17.984-7.783-26.419 10.475-5.599 20.961-11.175 31.443-16.759 17.109-9.117 34.205-18.257 51.213-27.561 18.02-9.856 29.101-8.245 49.129-8.949 12.143-.426 16.223-2.436 26.748 3.658 7.655 4.434 16.114 7.415 24.889 8.589 18.999 2.543 37.971-3.516 53.728-13.958 13.671-9.059 25.233-21.24 34.3-34.859 7.88-11.836 35.242-3.801 50.301-4.984 33.482-2.633 65.963-13.849 94.875-30.752 122.646-71.707 173.552-242.295 164.063-376.796-4.416-62.605-24.625-125.776-70.025-170.863-55.639-55.257-141.536-66.326-216.164-75.152-94.402-11.164-194.057-1.775-255.7 78.25-14.063 18.258-25.574 38.386-35.229 59.28-11.152 24.133-16.459 51.888-29.342 74.821-11.68 20.789-18.804 42.403-16.49 66.482 2.625 27.323-1.746 53.91-1.847 81.588-.106 28.923 1.042 59.492 6.835 87.904-12.92 22.198-22.033 46.707-27.566 71.76-5.646 25.551-7.672 52.348-3.437 78.275 3.011 18.439 3.548 16.308-15.011 21.851-15.629 4.667-31.26 9.329-46.889 13.993-28.977 8.648-57.953 17.299-86.917 25.991-20.941 1.101-31.431 19.03-35.499 37.288-7.551 33.88-5.303 83.546 19.189 110.759 4.357 4.853-.121-.135 0 0z"
              fill="none"/>
        <g>
            <path d="m220.555 957.471c2.23 2.482 4.84 4.24 7.902 5.516 38.418 15 76.959 29.696 115.538 44.271 11.526 3.317 22.757 11.412 35.067 9.781 24.23-6.68 45.438-22.199 45.275-49.509 1.291-21.368-3.656-47.054-18.521-63.445 41.986-22.69 84.375-44.638 126.01-67.973 21.059 1.357 42.434 1.777 63.305-1.827 38.73 38.909 89.508-3.023 105.454-43.868 98.369 25.542 195.83-40.632 238.736-127.03 65.824-117.35 94.998-330.629-24.119-423.119-26.686-20.523-58.808-32.516-92.01-36.885-59.237-13.388-120.612-23.956-181.549-19.82-30.79 2.089-61.803 8.099-89.594 21.959-63.582 34.233-96.009 105.796-115.301 172.26-18.513 30.479-24.644 46.695-16.061 82.191-7.488 46.971-6.143 94.721.42 141.748 0 5.388 3.035 11.964 1.424 16.829-28.619 45.51-47.117 125.477-20.061 174.713-59.682 17.877-119.405 35.613-179.078 53.526-5.665-.651-10.232 2.724-12.991 7.681-11.433 25.188-7.928 81.856 10.154 103.001z"
                  fill="#68182b"/>
            <path d="m692.251 638.266c-17.191-17.361-45.588-16.814-63.493-.785-16.688 15.432-26.55 38.057-33.434 59.291-11.899 40.454-22.804 98.705 8.74 132.624 10.928 10.363 25.83 12.561 39.846 7.764 58.57-18.668 89.732-155.423 48.341-198.894zm-81.376 116.247c2.433-31.637 14.825-97.233 54.964-97.842 45.063 6.522 31.432 74.823 21.221 105.05-20.311 64.056-79.542 68.865-76.185-7.208z"
                  fill="#ceffff"/>
            <path d="m684.392 750.88c-6.414 19.79-15.01 42.942-35.277 52.083-24.43 9.506-33.754-22.499-32.504-41.09-1.559-30.115 21.664-128.705 65.615-90.516 15.24 23.182 8.344 54.287 2.166 79.523z"
                  fill="#fac135"/>
            <path d="m414.582 965.151c.37 14.353-6.396 28.313-19.591 34.806 2.625-7.34 3.66-15.589 4.148-21.912 1.496-19.406-1.137-40.609-9.711-58.242-5.824-6.721 2.288-7.513 7.427-10.857 14.095 13.943 18.359 37.122 17.727 56.205z"
                  fill="#808080"/>
            <path d="m459.927 829.374c13.148 3.82 25.896 8.69 38.566 13.821-9.145 4.965-18.294 9.923-27.469 14.832-14.357-5.596-29.199-9.811-44.029-13.982 10.965-4.918 21.93-9.837 32.932-14.671z"
                  fill="#aa8053"/>
            <path d="m418.559 847.82c52.575 17.622 60.146 5.914 6.605 34.688-41.308-23.848-64.316-8.994-6.605-34.688z"
                  fill="#a2603f"/>
            <path d="m373.699 868.351c15.493 4.497 30.587 10.431 45.058 17.58-12.846 6.869-25.674 13.778-38.455 20.771-12.311-10.371-29.211-13.638-43.695-20.087 12.231-6.34 24.611-12.405 37.092-18.264z"
                  fill="#aa8053"/>
            <path d="m505.184 839.568c-12.188-4.99-24.422-9.797-36.961-13.803 11.419-4.988 22.828-9.995 34.283-14.896 39.624 14.457 39.171 8.44 2.678 28.699z"
                  fill="#a2603f"/>
            <path d="m545.87 801.229c4.071 2.068 9.179 4.135 11.332 8.369-3.541 3.985-10.445 6.913-15.929 9.947-10.065-4.351-20.077-8.681-30.446-12.2 11.746-3.901 23.219-14.638 35.043-6.116z"
                  fill="#aa8053"/>
            <path d="m569.003 826.975c-6.908.258-13.826.268-20.738.086 4.606-2.517 9.182-5.121 13.35-8.133 18.917-17.842-18.146-30.49-31.592-33.759-83.773-22.974-96.656 19.265-85.523-25.901 29.115-13.055 98.383 4.354 129.695 16.354.855 17.439 4.525 35.241 14.057 49.89-6.374.904-12.863 1.225-19.249 1.463z"
                  fill="#ff8e5b"/>
            <path d="m448.346 736.441c2.425-16.78 4.24-33.715 3.445-50.697 43.787 9.31 89.322 14.797 133.934 8.74-7.795 24.049-12.027 49.511-11.727 74.754-20.633-7.781-42.143-13.413-63.921-16.785-21.128-3.271-42.898-4.594-64.114-1.365.855-4.873 1.669-9.753 2.383-14.647z"
                  fill="#ff5671"/>
            <path d="m700.595 632.92c-18.295-86.604 11.505-219.858 66.68-289.336 40.783-47.409 104.922-36.5 124.623 23.873 15.602 48.239 9.27 100.692.368 149.674-.568-11.006-.821-22.029-.784-33.04-.902-33.774 9.756-75.968-17.482-102.167-7.649-6.499-16.609-5.803-25.904-3.652-24.148 6.166-47.49 15.442-72.045 20.224-19.768 4.3-25.699 51.913-29.537 69.441-3.222 21.329-4.016 42.937-2.709 64.458.655 32.716 8.049 84.443 53.646 71.263 3.991 23.983 8.75 48.437 20.766 69.976-15.191 13.418-34.08 25.07-54.922 25.15-18.064.072-33.464-9.646-44.137-23.697-2.307-15.415-7.686-30.773-18.563-42.167z"
                  fill="#fbf199"/>
            <path d="m850.454 420.228c8.986 63.378 1.584 128.858 17.131 191.461.904 13.178 21.682 41.748 2.373 47.328-18.738 1.853-21.555-25.751-25.697-39.001-9.313-41.392-9.275-84.607-11.201-126.792-2.865-31.563.146-67.007-16.494-95.153 7.404-2.5 15.354-4.624 23.043-7.363 7.199 7.25 9.282 20.259 10.845 29.52z"
                  fill="#8edbff"/>
            <path d="m772.744 412.457c13.524-16.06 13.815 21.227 14.563 28.516 1.635 21.98 2.234 44.017 2.93 66.04.914 28.925 2.035 58.071 5.834 86.817-9.533 2.56-20.257 3.11-27.938-4.036-12.775-13.363-11.98-33.892-14.026-51.144-2.875-42.312.103-87.52 18.637-126.193z"
                  fill="#8edbff"/>
            <path d="m720.247 685.37c11.098 11.505 25.457 19.108 42.063 19.332 22.325.302 42.633-11.689 59.047-25.96 3.818 5.778 8.296 11.019 13.571 15.454-31.082 27.124-75.588 44.668-114.666 24.255-.511-10.208 1.315-22.191-.015-33.081z"
                  fill="#ff801d"/>
            <path d="m845.967 690.216c-62.149-44.603-36.278-212.283-53.372-280.826-.648-1.418-1.457-2.808-2.402-4.107 6.768-1.683 13.486-3.525 20.177-5.476 7.142 7.841 9.431 20.4 11.21 30.23 3.438 18.995 4.369 38.446 5.301 57.693 2.125 43.882 1.926 88.71 11.227 131.844 4.654 16.057 6.832 39.448 25.377 45.105 7.563 1.696 15.686-1.537 19.126-8.678 4.569-9.479-1.02-18.956-4.104-27.907-7.28-21.14-10.683-43.517-12.891-65.694-4.704-44.435-2.999-89.313-8.009-133.704-1.645-13.292-3.574-28.913-11.955-39.93 46.361-16.171 36.201 62.61 36.018 88.783-.549 42.267 2.843 84.849 12.963 125.968 3.719 18.007 12.32 35.354 11.281 54.31-.051 31.913-33.148 50.884-59.947 32.389z"
                  fill="#ceffff"/>
            <path d="m901.013 587.212c-3.408-16.445-5.773-33.084-7.289-49.816 6.715-26.941 10.976-54.488 12.616-82.208 1.522-25.756 1.231-52.058-5.121-77.214-14.112-64.313-76.829-93.475-129.03-47.957-49.145 50.013-69.74 130.949-79.718 198.7-4.048 32.275-5.489 65.533.651 97.631-9.412-6.891-20.573-10.438-31.898-10.615-10.748-94.766 12.744-198.116 63.436-278.906 62.623-99.147 184.58-68.233 200.864 46.089 10.371 68.426-.82 139.683-24.511 204.296z"
                  fill="#ff801d"/>
            <path d="m961.896 313.809c70.932 157.815-16.072 471.068-219.676 472.271-12.732-.079-25.302-1.76-37.629-4.852.951-2.35 1.865-4.689 2.715-7 5.408-14.716 9.145-30.072 11.279-45.638 42.963 20.28 90.941 1.581 124.621-28.557 31.148 19.604 70.055-1.94 72.254-38.229 2.289-20.082-5.949-38.634-10.563-57.761 36.611-89.585 66.316-261.026-29.877-322.1-163.441-79.624-234.53 192.37-225.952 310.045.426 8.186 1.281 16.327 2.396 24.439-30.64 4.117-48.988 34.467-59.612 61.194-61.055-139.836 15.096-465.976 200.515-465.801 70.685-3.528 140.081 37.326 169.529 101.989z"
                  fill="#ff8e5b"/>
            <path d="m492.071 276.232c56.378-99.147 185.264-91.007 282.437-72.82-18.435 2.265-36.55 7.064-53.488 14.65-39.743 17.858-68.987 52.748-91.31 89.199-15.674-10.015-34.76-15.35-52.639-19.278-22.529-4.948-45.926-7.711-69.011-6.96-6.729.22-13.532.798-20.221 1.935 1.406-2.247 2.773-4.515 4.232-6.726z"
                  fill="#ff5671"/>
            <path d="m465.227 325.237c4.735-10.453 9.984-20.678 15.67-30.652 17.848-5.037 37.457-4.387 55.711-2.835 30.188 2.991 61.523 8.55 88.031 24.008-60.013 109.678-88.487 254.324-38.755 372.727-44.789 6.28-90.601.623-134.54-8.883-.856-23.125-15.533-42.166-18.362-64.513-6.484-43.352-10.42-87.732-5.326-131.429 6.609 19.158 12.754 39.019 22.266 56.961 4.813 8.527 14.025 13.789 22.796 17.397 20.547 8.357 69.054 16.098 63.267-19.409.203-37.437 7.217-74.62 15.883-110.931 7.132-28.516 15.428-57.503 29.773-83.336 2.758-4.967 9.757-18.178 3.742-22.375-19.154-13.371-89.351-16.78-102.627-8.754-10.475 9.067-17.848 24.729-26.762 35.821 2.731-8.066 5.718-16.037 9.233-23.797z"
                  fill="#fac135"/>
            <path d="m524.149 375.211c-22.465-4.464-45.957-8.456-68.939-7.452 7.558-11.374 15.391-22.549 23.338-33.651 1.682-2.348 3.309-4.772 5.008-7.131 3.484-4.851 5.682-6.2 10.111-6.887 22.789-3.535 46.641-.173 69.096 4.204-13.836-.127-19.766 12.866-24.554 23.787-4.773 8.987-9.511 18.013-14.06 27.13z"
                  fill="#a2603f"/>
            <path d="m538.664 368.455c5.618-10.477 10.907-21.384 16.743-31.629 5.647-4.175 13.914-2.645 20.568-2.671-13.41 22.813-22.059 48.267-29.107 73.655-10.65 39.327-18.502 79.563-20.734 120.335-8.838-30.106-17.979-61.468-15.432-92.808 5.205-23.703 17.178-45.346 27.962-66.882z"
                  fill="#83e1c4"/>
            <path d="m507.326 495.124c4.64 18.983 9.189 38.429 16.556 56.499-18.813 8.002-43.023 1.663-59.49-9.368-7.508-5.894-10.375-16.05-13.857-24.572-4.271-10.447-8.463-21.202-12.164-32.136 21.756 7.397 48.554 6.202 68.955 9.577z"
                  fill="#a2603f"/>
            <path d="m437.876 395.952c2.682-14.708 62.953-.15 75.814 1.496-11.543 22.514-16.697 47.372-11.356 72.408-23.898.275-48.118-2.344-71.134-8.894-6.119-22.302-7.283-45.358 6.676-65.01z"
                  fill="#ff5671"/>
            <path d="m401.848 705.444c3.871-25.633 11.553-51.507 24.523-74.153 16.688 36.794 18.945 62.768 12.457 102.527-1.684 16.961-8.004 33.645-7.116 50.699-6.481 1.944-12.972 3.88-19.458 5.82-15.563-24.553-14.583-57.211-10.406-84.893z"
                  fill="#ceffff"/>
            <path d="m409.257 801.546c37.55-14.319 78.238-18.394 117.23-7.216-51.736 21.83-103.195 44.332-154.037 68.178-14.535 6.787-28.984 13.809-43.197 21.258-29.145-11.379-58.568-21.569-88.086-31.989 56.017-16.791 112.065-33.47 168.09-50.231z"
                  fill="#fac135"/>
            <path d="m216.895 864.631c.643-2.928 2.287-6.219 4.023-7.83.447-.313 1.279-.373.35-.24 9.352 1.857 18.561 5.748 27.777 8.563 37.342 12.7 74.373 26.384 110.848 41.399 31.859 9.89 33.127 60.324 26.586 87.268-6.396 23.661-19.979 10.03-35.784 5.491-39.948-15.063-79.816-30.347-119.614-45.812-18.219-14.771-20.479-67.276-14.186-88.839z"
                  fill="#d5d5d5"/>
            <path d="m451.167 373.939c23.393-1.641 47.35 2.232 70.316 6.765-1.818 3.726-3.61 7.463-5.34 11.228-12.895-2.535-25.867-4.688-38.926-6.172-10.73-1.22-21.616-2.031-32.44-1.648 2.081-3.422 4.214-6.81 6.39-10.173z"
                  fill="#ffe10e"/>
            <path d="m505.725 487.871c-23.426.191-47.254-2.316-69.66-9.315-1.137-3.62-2.184-7.259-3.168-10.909 10.793 3.063 22.098 4.672 33.148 6.039 12.272 1.515 24.876 2.718 37.289 2.124.723 4.043 1.534 8.067 2.391 12.061z"
                  fill="#ffe10e"/>
            <path d="m329.253 883.766c14.213-7.449 28.662-14.471 43.197-21.258 50.842-23.846 102.301-46.348 154.037-68.178-27.76-7.957-56.372-8.151-84.107-2.455 4.409-.313 8.834-.439 13.271-.338 6.465.148 13.846.715 19.512 4.147 7.428 4.497-5.08 11.825-8.664 13.599-22.25 11.007-44.633 21.756-67.08 32.355-13.025 6.15-26.084 12.231-39.236 18.104-9.65 4.311-19.545 9.553-30.227 10.396-16.328 1.292-33.215-2.376-49.279-4.746-.588-.088-1.186-.182-1.777-.274 16.851 6.008 33.65 12.128 50.353 18.648z"
                  fill="#ee9e2b"/>
            <path d="m429.83 591.757c.958 7.8 1.993 15.586 3.151 23.332 2.829 22.347 17.506 41.388 18.362 64.513 43.939 9.506 89.751 15.163 134.54 8.883-47.266-112.534-23.863-248.753 30.094-356.145-20.187 19.652-30.993 51.117-38.579 76.154-13.432 44.334-20.047 91.426-23.168 137.57-1.838 27.239-.953 54.538 2.316 81.635 1.414 11.708 5.223 23.655-.549 34.751-5.541 10.653-19.166 13.779-30.023 14.824-11.406 1.097-23.156-.709-34.481-1.983-14.991-1.685-27.149-6.685-35.904-19.464-11.468-16.74-18.513-36.524-23.782-55.969-.728-2.686-1.355-5.393-1.977-8.101z"
                  fill="#ee9e2b"/>
            <path d="m616.611 761.873c-1.25 18.591 8.074 50.596 32.504 41.09 20.268-9.141 28.863-32.293 35.277-52.083 6.178-25.236 13.074-56.341-2.166-79.522-3.768-3.273-7.373-5.477-10.835-6.869 14.728 26.428 9.454 59.936.349 87.885-4.996 15.333-27.379 55.478-43.508 26.115-6.186-11.26-8.867-24.078-10.258-37.004-1.156 8.099-1.629 15.252-1.363 20.388z"
                  fill="#ee9e2b"/>
            <path d="m643.765 699.262c-6.236 17.622-14.589 47.014-9.468 61.56 1.328 3.776 5.665 9.694 10.493 7.502 10.145-4.612 14.348-18.396 16.984-28.269 2.59-9.69 6.025-24.052 5.424-36.768-1.445-30.586-16.076-24.816-23.433-4.025z"
                  fill="#fbe134"/>
            <path d="m540.273 612.766c-1.103-11.422-4.45-21.315-13.671-28.849-12.289-10.04-31.471 6.711-62.535-3.151-15.777-5.01-17.672-7.284-13.446 12.449 4.229 19.719 10.377 40.565 26.421 52.53 15.531 11.586 50.355 22.605 61.578-.002 4.884-9.841 2.659-22.567 1.653-32.977z"
                  fill="#fbe134"/>
            <path d="m416.686 803.795c-16.291 4.771-32.435 10.038-48.679 14.971-19.328 5.873-39.442 10.036-58.413 16.971-2.775 1.014-16.684 4.333-13.57 9.648 3.816 6.516 19.148 6.544 25.52 7.383 22.412 2.949 43.695-10.006 63.377-19.201 17.836-8.336 35.563-16.971 52.977-26.175 15.614-8.247-3.824-8.689-21.212-3.597z"
                  fill="#fbe134"/>
            <path d="m720.263 718.451c39.078 20.413 83.584 2.869 114.666-24.255-2.581-2.171-4.965-4.54-7.18-7.063-16.838 14.941-36.898 25.573-61.157 28.436-16.665 1.966-32.649-.661-46.255-7.952-.148 3.737-.246 7.392-.074 10.834z"
                  fill="#ef6200"/>
            <path d="m661.224 615.732c3.827.06 7.629.537 11.355 1.365-7.115-45.413-3.389-93.323 2.426-138.586 2.836-22.104 6.82-44.109 12.385-65.694-24.166 64.598-33.768 135.885-26.166 202.915z"
                  fill="#ef6200"/>
            <path d="m921.556 443.44c-1.541 42.758-9.503 85.733-23.724 126.306.952 5.842 1.979 11.67 3.181 17.466 23.691-64.613 34.882-135.87 24.511-204.297-2.213-15.525-6.429-29.455-12.124-41.787 8.455 33.33 9.336 69.53 8.156 102.312z"
                  fill="#ef6200"/>
            <path d="m732.695 368.411c-23.106 39.89-33.483 87.532-39.402 132.776-2.866 21.913-5.25 45.917-4.145 69.432.385-14.036 1.586-28.06 3.323-41.902 9.978-67.751 30.573-148.687 79.718-198.7 52.201-45.518 114.918-16.356 129.03 47.957 2.513 9.949 4.05 20.08 4.929 30.284-.39-16.865-2.381-33.449-8.225-49.896-11.643-32.753-40.521-59.754-76.685-58.382-39.981 1.519-70.055 36.513-88.543 68.431z"
                  fill="#facb1a"/>
            <path d="m530.022 785.169c13.445 3.269 50.509 15.917 31.592 33.759-4.168 3.012-8.743 5.616-13.35 8.133 6.912.182 13.83.172 20.738-.086 3.672-.137 7.373-.342 11.072-.629-6.816-6.472-7.35-16.591-10.521-24.973-5.173-13.678-19.862-18.756-32.716-22.661-27.275-8.286-63.164-10.167-90.304 2.513 9.942-.698 34.659-9.446 83.489 3.944z"
                  fill="#ff564d"/>
            <path d="m961.896 313.809c-6.846-15.034-15.875-28.759-26.554-40.962 32.731 47.808 45.624 108.025 45.8 166.914.252 84.511-23.805 172.1-69.303 243.481-39.998 62.756-128.914 104.309-202.297 84.325-.732 2.224-1.428 4.464-2.236 6.661-.85 2.311-1.764 4.65-2.715 7 12.327 3.092 24.896 4.772 37.629 4.852 203.603-1.203 290.607-314.455 219.676-472.271z"
                  fill="#ff564d"/>
            <path d="m643.992 618.078c2.415-.703 4.884-1.301 7.472-1.65-1.115-8.112-1.971-16.254-2.396-24.439-8.578-117.675 62.512-389.669 225.953-310.043 7.714 4.897 14.535 10.574 20.689 16.792-3.377-4.949-7.221-9.61-11.734-13.798-32.604-30.255-82.827-26.639-120.666-9.629-88.537 39.797-136.992 220.131-119.318 342.767z"
                  fill="#ff564d"/>
            <path d="m792.367 211.821c-185.419-.175-261.57 325.964-200.515 465.801 2.357-5.931 5.119-12.031 8.289-17.993-9.223-32.12-12.445-66.202-13.324-99.258-.981-36.86 1.318-74.013 9.293-110.063 19.836-89.662 69.719-195.216 163.608-225.556 53.127-17.167 106.801-2.812 152.104 25.77-33.434-26.373-76.194-40.861-119.455-38.701z"
                  fill="#fbc471"/>
            <path d="m732.654 406.472c2.637-7.694 5.748-15.199 8.938-22.672-38.174 73.028-56.197 177.161-40.996 249.121 10.877 11.395 16.256 26.752 18.563 42.168 10.673 14.051 26.072 23.77 44.137 23.697 20.842-.08 39.73-11.732 54.922-25.15-1.572-2.818-3.007-5.691-4.346-8.603-4.38 3.698-9.08 7.013-14.195 9.772-18.57 10.02-39.518 6.643-55.33-6.571-26.848-22.438-35.048-65.655-37.564-98.59-2.734-35.78 2.508-71.642 10.115-106.523 4.179-19.172 9.397-38.086 15.756-56.649z"
                  fill="#f3af79"/>
            <path d="m774.481 336.059c10.29-8.093 21.657-14.486 35.255-17.069 29.563-5.618 56.945 8.061 71.424 33.68 13.795 24.411 17.18 54.41 17.232 81.923.033 18.893-2.588 36.768-6.863 54.398.043 9.381.254 18.768.737 28.141 8.901-48.982 15.233-101.435-.368-149.674-18.578-56.928-76.657-69.853-117.417-31.399z"
                  fill="#fff7cf"/>
            <g fill="#a9cddd">
                <path d="m792.595 409.39c17.094 68.543-8.777 236.224 53.372 280.826 25.173 17.374 55.89 1.685 59.571-26.729-4.917 14.726-14.811 25.91-33.195 27.428-19.719 1.624-34.579-15.054-42.391-31.064-8.595-17.617-11.137-38.058-14.271-57.184-6.205-37.875-9.785-76.152-9.727-114.535.042-28.054.624-57.925-9.281-84.537-2.158.569-4.313 1.151-6.48 1.688.945 1.299 1.754 2.689 2.402 4.107z"/>
                <path d="m595.324 696.771c-11.899 40.454-22.804 98.705 8.74 132.624 10.928 10.363 25.83 12.561 39.846 7.764 31.832-10.146 55.533-55.173 63.927-101.146-3.652 10.641-7.935 21.017-12.618 30.91-11.48 24.254-32.588 58.808-61.961 62.486-35.368 4.434-43.063-51.098-43.961-75.187-.877-23.564 3.695-46.396 10.029-68.816-1.429 3.802-2.784 7.605-4.002 11.365z"/>
                <path d="m406.024 777.92c1.699 4.306 3.731 8.475 6.23 12.418 6.486-1.94 12.977-3.876 19.458-5.82-.888-17.055 5.433-33.738 7.116-50.699 4.861-29.791 4.811-51.842-2.539-76.506 3.18 42.599.536 91.689-30.265 120.607z"/>
                <path d="m857.607 428.697c5.01 44.391 3.305 89.269 8.009 133.704 2.208 22.177 5.61 44.555 12.891 65.694 2.437 7.069 6.415 14.468 5.735 21.937.654-1.492 1.242-3.111 1.699-4.934 2.681-10.675-4.133-24.539-6.432-34.793-3.796-16.922-6.307-34.105-8.291-51.323-3.453-29.979-5.51-60.344-6.146-90.514-.541-25.656-.65-51.653-10.559-75.761-.782-1.906-1.705-3.737-2.65-5.557-1.959.356-4.002.846-6.211 1.617 8.38 11.017 10.31 26.638 11.955 39.93z"/>
            </g>
            <path d="m628.758 637.48c-9.374 8.666-16.54 19.632-22.287 31.318 1.985-2.539 4.022-5.045 6.104-7.529 7.412-8.853 14.688-17.287 24.332-23.83 15.756-10.688 36.217-9.73 50.799 2.168 12.285 10.021 18.536 25.84 22.139 41.229-2.367-17.428-8.016-32.512-17.594-42.571-17.191-17.361-45.588-16.814-63.493-.785z"
                  fill="#e9fffb"/>
            <path d="m523.882 551.623c-1.656-4.063-3.152-8.203-4.559-12.386-.217.501-.385 1.02-.619 1.515-5.561 11.692-20.973 7.916-30.969 5.328-9.816-2.544-18.98-7.095-26.439-13.989-4.434-4.102-7.705-9.177-10.758-14.398 3.48 8.521 6.348 18.671 13.854 24.563 16.466 11.03 40.677 17.369 59.49 9.367z"
                  fill="#81391c"/>
            <path d="m460.716 367.663c21.219-.218 42.758 3.44 63.434 7.548 4.549-9.117 9.287-18.143 14.06-27.13 3.221-7.348 6.972-15.618 13.288-20.213-5.586 1.764-10.717 5.069-15.256 9.542-4.693 4.628-8.438 10.345-12.226 15.699-2.878 4.071-5.646 8.113-9.698 11.114-4.394 3.25-12 1.854-17.014 1.376-12.221-1.168-24.88-1.637-36.588 2.064z"
                  fill="#81391c"/>
            <path d="m505.184 839.568c23.547-13.072 32.063-15.207 24.515-18.959-6.831 4.766-13.952 8.608-22.771 10.418-9.799 2.013-19.334-.632-28.979-1.979 9.173 3.24 18.219 6.827 27.235 10.52z"
                  fill="#81391c"/>
            <path d="m386.893 866.87c5.963 2.245 20.395 5.317 38.271 15.638 34.696-18.646 43.699-20.294 31.452-23.939-8.218 10.665-25.886 16.944-37.403 14.549-11.042-2.297-21.222-6.735-32.32-6.248z"
                  fill="#81391c"/>
            <path d="m526.116 811.21c-3.535-1.305-7.02-2.055-10.508-2.144 8.677 3.171 17.16 6.805 25.665 10.479 5.483-3.034 12.388-5.962 15.929-9.947-.715-1.407-1.775-2.56-2.998-3.567-2 2.518-4.59 4.571-7.67 6.39-7.402 4.365-13.442 1.36-20.418-1.211z"
                  fill="#865725"/>
            <path d="m380.302 906.702c12.781-6.993 25.609-13.902 38.455-20.771-3.074-1.519-6.191-2.953-9.321-4.36-2.575 4.395-6.626 7.918-11.431 10.931-9.816 6.16-19.597 6.942-30.176 2.302-8.697-3.814-19.021-10.67-28.226-6.948 13.777 5.654 29.222 9.177 40.699 18.846z"
                  fill="#865725"/>
            <path d="m471.024 858.027c9.175-4.909 18.324-9.867 27.469-14.832-2.922-1.184-5.852-2.348-8.787-3.494-3.705 4.593-9.04 8.07-14.287 10.141-8.93 3.521-18.346-1.02-26.988-3.135-5.318-1.303-11.943-2.534-17.854-1.644 13.635 3.849 27.246 7.82 40.447 12.964z"
                  fill="#865725"/>
            <path d="m231.081 953.471c39.798 15.465 79.666 30.749 119.614 45.812 15.806 4.539 29.388 18.17 35.784-5.491 6.154-25.355 5.389-71.506-21.277-85.1 2.09 2.674 4.027 5.473 5.697 8.422 8.172 14.439 9.582 32.027 9.164 48.264-.21 8.142-.354 17.347-3.676 24.893-3.299 7.504-14.799 2.801-20.447 1.387-7.999-2.007-15.865-4.559-23.727-7.034-23.893-7.517-47.795-15.427-71.015-24.841-14.077-5.709-27.024-13.632-35.706-26.469-5.766-8.525-9.189-18.077-11.292-28 1.504 19.844 6.695 39.899 16.881 48.157z"
                  fill="#bebebe"/>
            <path d="m356.784 946.359c-1.623-10.897-4.453-28.64-15.232-34.063-9.248-4.651-19.287-7.987-28.973-11.578-22.16-8.219-44.434-16.144-66.726-23.995-10.245-3.609-16.423-5.854-16.454 7.562-.035 13.134 4.104 27.243 11.164 37.31 9.908 14.117 29.529 19.419 44.523 25.858 10.168 4.367 20.473 8.271 30.892 11.986 8.749 3.123 19.472 7.163 28.786 7.948 13.245 1.117 13.566-10.668 12.02-21.028z"
                  fill="#efefef"/>
            <path d="m398.649 983.141c-.62 5.323-1.693 11.323-3.658 16.816 13.195-6.492 19.961-20.453 19.591-34.806.083-2.521.075-5.117-.022-7.752-.98 2.237-2.042 4.468-3.23 6.696-3.286 6.151-7.525 13.066-12.681 19.046z"
                  fill="#515151"/>
            <path d="m391.499 924.567c2.457-4.134 5.826-7.694 9.789-10.495-1.36-1.811-2.822-3.536-4.433-5.127-5.139 3.345-13.251 4.137-7.427 10.857.754 1.553 1.407 3.162 2.071 4.765z"
                  fill="#a0a0a0"/>
            <path d="m844.261 620.016c2.414 7.721 4.4 20.286 9.326 29.086-3.48-13.039-5.144-26.596-6.603-40.736-2.978-28.853-6.628-57.41-6.784-86.479-.148-27.385-1.73-54.675-5.594-81.798-2.047-14.371-3.771-30.823-10.094-44.544-2.688.825-5.355 1.652-7.947 2.527 16.641 28.146 13.629 63.59 16.494 95.153 1.927 42.184 1.889 85.399 11.202 126.791z"
                  fill="#73b9d5"/>
            <path d="m790.238 507.012c-.695-22.022-1.295-44.059-2.93-66.04-.748-7.29-1.039-44.576-14.563-28.516-1.282 2.673-2.472 5.385-3.608 8.118 6.889 9.988 6.742 26.824 7.182 37.299.85 20.19 2.604 40.349 4.115 60.5 1.646 21.954 3.275 44.004 5.578 65.899.383 3.641.83 7.367 1.378 11.114 2.925-.257 5.854-.799 8.683-1.558-3.8-28.745-4.921-57.891-5.835-86.816z"
                  fill="#73b9d5"/>
            <path d="m517.604 497.485c2.579 10.329 5.566 20.565 8.529 30.659 2.232-40.772 10.084-81.008 20.734-120.335 5.84-21.024 12.818-42.072 22.646-61.651-26.869 30.554-34.908 73.771-43.898 112.491-2.991 12.897-5.61 25.847-8.011 38.836z"
                  fill="#39b487"/>
            <path d="m477.344 483.995c-13.768-1.474-29.198-3.707-42.382-9.24.374 1.264.705 2.538 1.103 3.801 22.406 6.999 46.234 9.506 69.66 9.315-.24-1.122-.439-2.262-.672-3.39-9.136.589-18.289.524-27.709-.486z"
                  fill="#f7b001"/>
            <path d="m446.676 381.087c-.626 1.012-1.28 2.007-1.898 3.024 10.824-.383 21.71.428 32.44 1.648 13.059 1.484 26.031 3.637 38.926 6.172.53-1.157 1.1-2.298 1.641-3.448-22.806-6.948-47.603-9.132-71.109-7.396z"
                  fill="#f7b001"/>
            <path d="m431.2 460.962c23.016 6.55 47.235 9.169 71.134 8.894-2.079-9.745-2.55-19.461-1.69-29.023-10.383 8.567-22.626 14.084-37.733 13.613-19.53-.607-31.784-12.02-35.829-27.78-.831 11.258.984 22.874 4.118 34.296z"
                  fill="#df3f58"/>
            <path d="m519.854 739.406c-15.79-.443-31.656-2.797-47.18-5.584-8.308-1.492-16.219-4.162-21.48-11.191-.346-.459-.605-.959-.885-1.449-.567 5.098-1.23 10.187-1.963 15.26-.715 4.894-1.528 9.773-2.383 14.646 21.216-3.229 42.986-1.906 64.114 1.365 21.778 3.372 43.288 9.004 63.921 16.785-.162-13.524 1.018-27.105 3.31-40.503-17.398 8.411-37.682 11.228-57.454 10.671z"
                  fill="#df3f58"/>
            <path d="m741.281 203.585c-31.099 3.958-61.977 21.585-85.26 41.904-11.03 9.627-20.461 20.843-32.215 29.681-16.581 12.466-34.141 10.209-53.54 7.104-20.066-3.213-47.541-8.091-68.839-.842 2.214-.156 4.43-.337 6.633-.409 23.085-.751 46.481 2.012 69.011 6.96 17.879 3.928 36.965 9.263 52.639 19.278 22.322-36.451 51.566-71.341 91.31-89.199 16.26-7.282 33.606-11.969 51.275-14.34-10.271-1.255-20.634-1.457-31.014-.137z"
                  fill="#df3f58"/>
            <path d="m683.702 202.86c-27.076-3.452-55.707-.513-81.632 6.479-15.326 4.132-53.826 14.027-54.635 34.738-.868 22.287 42.593 20.506 55 16.048 14.898-5.353 27.127-19.319 39.672-28.397 13.172-9.531 27.496-17.01 42.629-22.665 8.008-2.995 8.777-4.95-1.034-6.203z"
                  fill="#ff9780"/>
            <path d="m491.948 402.771c-11.842-3.081-24.703-6.106-36.461-3.657-11.637 2.421-14.104 17.732-10.73 27.14 4.033 11.241 18.047 15.082 28.598 13.278 14.234-2.433 17.365-17.584 22.65-29.12 2.058-4.48.442-6.471-4.057-7.641z"
                  fill="#ff9780"/>
            <path d="m563.032 704.84c-24.207-.053-48.133-.431-72.23-3.814-6.865-.964-30.813-8.711-28.576 5.603 1.473 9.419 11.754 11.979 19.566 14.448 12.826 4.053 26.52 5.472 39.912 5.709 12.281.216 25.408-1.014 37.049-5.117 5.051-1.781 8.096-5.74 10.186-10.289 2.148-4.681.868-6.526-5.907-6.54z"
                  fill="#ff9780"/>
        </g>
    </g>
</svg>