<svg id="Layer_1" enable-background="new 0 0 512 512" height="512" viewBox="0 0 512 512" width="512" xmlns="http://www.w3.org/2000/svg"><g><path d="m117.7376 420.0758c-4.5006 2.1659-8.4142 3.9636-12.2414 5.9298-1.7282.888-3.3001.9913-5.142.3844-28.1956-9.2889-56.4076-18.5289-84.6146-27.7834-3.0187-.9904-3.8439-2.0352-3.8813-4.9697-.9296-72.773-1.8564-145.546-2.7804-218.319-.3252-25.6051-.6308-51.2105-.9885-76.8152-.021-1.5003.2509-2.3973 1.8023-3.0646 48.9003-21.0322 97.8397-41.9769 146.593-63.3453 7.6524-3.354 14.8867-3.9869 22.9681-2.8914 27.2874 3.6985 54.6411 6.9083 81.9611 10.371 4.291.5439 8.5273 1.5091 12.8119 2.1199 1.7387.248 2.2699 1.2011 2.317 2.6991.0637 2.0202.0945 4.0416.119 6.0627.1046 8.6101.1994 17.2202.3075 25.8303.0055.434.1013.8667.1737 1.4501 7.0976.8871 14.1408 1.7688 21.1845 2.6478 15.5201 1.9371 31.0423 3.8573 46.5581 5.827 2.206.2801 4.2172.083 6.3066-.8318 10.7522-4.7073 21.5678-9.2697 32.3411-13.9296 3.2901-1.423 6.5331-1.9694 10.2134-1.4967 29.4683 3.7856 58.9645 7.354 88.4437 11.0568 4.5167.5673 8.9817 1.5359 13.4872 2.2075 1.6244.242 2.3674 1.0415 2.4445 2.6025.0443.8959.1177 1.7915.1272 2.6878.8351 78.9895 1.6617 157.9791 2.4984 236.9686.1816 17.1453.2542 34.2939.6663 51.434.1771 7.363.375 6.4286-5.9151 9.4651-43.3011 20.9034-86.6299 41.7492-129.9511 62.6108-12.7331 6.1319-25.4944 12.2058-38.1815 18.4314-2.0682 1.0149-3.8707 1.051-5.9631.3615-17.9655-5.9202-35.9563-11.7634-53.9114-17.7148-1.5672-.5193-2.8145-.4242-4.2424.2673-17.2973 8.3765-34.6221 16.6965-51.9076 25.0977-1.7463.8489-3.3055.9859-5.141.3815-28.1956-9.2858-56.406-18.5267-84.6122-27.78-3.0601-1.004-3.8388-2.0325-3.8457-5.2136-.0163-7.3903-.0053-14.781-.0053-22.7395zm17.7551-30.7451c-3.6346-1.4091-7.2692-2.8185-11.1408-4.3196 0 2.0791-.0176 3.7124.0028 5.3449.2051 16.3776.4021 32.7551.6692 49.1316.0128.7867.4776 2.0588 1.0391 2.2638 3.6402 1.3296 7.3659 2.4258 11.0634 3.5985 19.9492 6.5688 39.898 13.1385 59.848 19.7048 2.4692.8126 4.9447 1.6065 7.7442 2.5153 0-1.0586.0037-1.7871-.0004-2.5154-.0933-16.6165-.2145-33.233-.2408-49.8497-.0028-1.714-.5275-2.4528-2.1594-2.9988-15.3849-5.1487-30.7456-10.3701-46.0979-15.6158-6.9271-2.3669-13.8192-4.8365-20.7274-7.2596zm112.6049 46.5503c.4033.1812.7943.4008 1.2121.5383 19.7346 6.49 39.4702 12.9771 59.2092 19.4533 3.8883 1.2756 7.7914 2.5066 11.8186 3.8001.056-.7514.1308-1.2615.1269-1.7713-.1302-17.0541-.2885-34.1082-.3682-51.1624-.0068-1.4484-.6437-1.8884-1.8352-2.2878-14.0975-4.7248-28.1991-9.4384-42.2607-14.268-9.6099-3.3006-19.1589-6.7788-28.735-10.1777-2.3285-.9225-4.6569-1.8451-7.2541-2.8741 0 1.1547-.0076 1.8929.0011 2.631.1655 13.8412.3365 27.6824.4982 41.5237.0419 3.5916.0166 7.1845.1228 10.7738.0184.6203.4008 1.6034.8559 1.7733 2.1571.8053 4.3976 1.3867 6.6084 2.0478zm-223.7334-42.2294c.1232.083.2354.1994.3712.244 24.0697 7.9017 48.1407 15.7995 72.2151 23.6869.5919.194 1.2229.2686 1.9858.4307 0-1.0101.0054-1.7535-.0007-2.4968-.1369-16.6081-.3053-33.2158-.3681-49.824-.0065-1.741-.5867-2.4177-2.1849-2.9414-11.9284-3.9084-23.8524-7.8346-35.7208-11.9205-11.5125-3.9633-22.9574-8.1234-34.4319-12.1974-2.519-1.0067-5.038-2.0133-7.7363-3.0917-.0478.8554-.1068 1.366-.1006 1.8756.199 16.6439.4046 33.2876.6083 49.9314.0631 5.1537.0617 5.154 5.1399 6.3115.0699.016.1483-.0046.223-.0083zm222.8614-250.7789c-3.3083-1.0291-6.6168-2.0583-10.2611-3.1919 0 1.9902-.0161 3.5451.0024 5.0998.2969 24.9017.6061 49.8032.8936 74.705.0776 6.7106.049 6.7109 6.6502 8.3403.6993.2203 1.3909.4693 2.099.6567 23.1882 6.1395 46.3776 12.275 69.57 18.3991.7654.2021 1.5637.2787 2.2041.3892 0-28.2786 0-56.3651 0-84.1606-1.6018-.546-2.6978-.9884-3.8306-1.2951-10.963-2.9682-21.9599-5.8154-32.8922-8.8922-11.5097-3.239-22.9595-6.6912-34.4354-10.0503zm-118.2013 92.882c24.3904 7.4854 49.1614 13.5034 73.7018 19.5237 0-28.3592 0-56.3901 0-84.2278-1.7117-.6095-2.9328-1.1318-4.2011-1.4825-16.1323-4.4616-32.2797-8.8687-48.4048-13.3556-7.0472-1.961-14.0525-4.0722-21.0768-6.1152-2.4991-.8157-4.9982-1.6314-7.7677-2.5355 0 1.0445-.0064 1.6283.001 2.2119.3194 25.7743.6461 51.5486.9561 77.3228.0833 6.9214.0603 6.9216 6.7915 8.6582zm-107.324-135.5896c-2.028-.6599-4.056-1.3198-6.3509-2.0665 0 1.0205-.0066 1.6818.001 2.3429.2121 18.4128.4194 36.8256.6416 55.2382.1075 8.9068.2166 17.8138.4132 26.7188.0174.7832.5054 2.0011 1.0943 2.2446 1.9128.7914 3.9743 1.2236 5.9784 1.794.4184.1568.8269.351 1.2567.4649 23.2615 6.1612 46.5243 12.3175 69.7897 18.4633.8324.2199 1.6935.3311 2.365.4594 0-28.2886 0-56.3844 0-84.2344-1.7006-.5946-2.925-1.1036-4.1932-1.4538-16.064-4.4346-32.1462-8.8042-48.198-13.2828-7.6275-2.1282-15.2002-4.453-22.7978-6.6886zm161.2409 301.6835c7.045 2.3354 14.0899 4.6707 21.4244 7.1021 0-1.2372.0049-1.9745-.0008-2.7118-.2323-30.0689-.4663-60.1378-.6987-90.2068-.1411-18.2509-.2814-36.5018-.416-54.7529-.0073-.9804.1164-1.8695-1.2639-2.187-6.1837-1.4229-12.345-2.9428-18.5145-4.4277-5.3998-1.4252-10.8167-2.7901-16.1964-4.288-12.5759-3.5019-25.1338-7.0678-37.699-10.6077-2.346-.8212-4.6918-1.6423-7.214-2.5252 0 1.2759-.0096 2.1715.0014 3.0668.3188 25.9031.6321 51.8064.9626 77.7092.2626 20.5876.5371 41.175.86 61.7617.0114.7326.4184 1.9089.9385 2.1101 3.1954 1.2366 6.4765 2.2517 9.7292 3.3405 5.9196 2.0723 11.8314 4.167 17.7605 6.2119 10.1033 3.4848 20.2172 6.9383 30.3267 10.4048zm-156.7645-67.057c8.227 2.9024 16.4404 5.8442 24.6848 8.6963 8.6723 2.9999 17.3745 5.9141 26.0636 8.8658 7.1021 2.3637 14.2044 4.7273 21.5613 7.1758 0-2.0482.0097-3.5402-.0015-5.032-.335-44.589-.6713-89.1781-1.0106-133.7671-.0234-3.0674-.0096-6.1375-.1602-9.1991-.0302-.6152-.6243-1.6004-1.1355-1.733-5.4903-1.4252-11.0161-2.7135-16.5322-4.0392-9.6729-2.5376-19.3669-4.9986-29.0129-7.6354-8.9272-2.4404-17.8028-5.069-26.7012-7.6147-2.3516-.8444-4.7031-1.6886-7.4314-2.6682 0 1.2882-.0107 2.23.0016 3.1714.3631 27.7468.7405 55.4935 1.0894 83.2404.235 18.6973.4223 37.3953.6736 56.0923.0096.7107.2878 1.8629.7471 2.0475 2.3323.9379 4.7659 1.6245 7.1641 2.3992zm221.0285 41.3567c.6836.286 1.3541.6101 2.0527.8527 11.2298 3.9009 22.4548 7.8159 33.699 11.675 6.784 2.3283 13.5993 4.566 20.4005 6.8444 5.4711 1.8207 10.9422 3.6415 16.673 5.5487 0-1.4216.0059-2.3137-.0009-3.2056-.2883-37.5887-.5809-75.1773-.8645-112.7659-.0792-10.4828-.1098-20.9662-.2423-31.4483-.0099-.7828-.516-2.1111-1.0407-2.251-5.7008-1.5197-11.4516-2.8525-17.1888-4.2362-6.0537-1.5813-12.1281-3.0877-18.1565-4.7599-12.3494-3.4256-24.674-6.9402-37.0089-10.4182-2.3732-.832-4.7465-1.6639-7.4467-2.6104 0 1.188-.0095 2.0617.0014 2.9353.3158 25.2898.6303 50.5796.9523 75.8692.2698 21.1742.5387 42.3486.8634 63.5219.0126.8154.3954 2.0981.9636 2.3472 2.0311.8906 4.2165 1.4293 6.3434 2.1011zm80.5417 82.8144c1.1915-.5253 1.9413-.8297 2.6689-1.1801 16.5181-7.9575 33.0323-15.923 49.5503-23.8806 37.3459-17.9914 74.6887-35.9894 112.0581-53.9316 1.5271-.7332 2.0085-1.5895 1.9809-3.2354-.2077-12.3509-.3273-24.7032-.4633-37.0553-.14-12.7265-.2607-25.4532-.4016-38.1797-.3027-27.3263-.6179-54.6522-.9176-81.9785-.1527-13.9246-.2872-27.8494-.4218-41.7742-.2144-22.1608-.4134-44.322-.6375-66.4827-.0675-6.6618-.2381-13.3227-.2715-19.9844-.0094-1.8642-.778-2.2523-2.356-1.677-.7022.2559-1.3884.5583-2.0719.862-6.1539 2.7338-12.295 5.4964-18.4597 8.2057-31.3007 13.7571-62.5864 27.5491-93.9211 41.2283-15.1465 6.6121-30.3859 13.0118-45.5928 19.4851-2.1127.8993-3.1678 2.4171-3.0979 4.6973.1008 3.2888.3051 6.5763.3329 9.8654.1599 18.9417.2713 37.8839.4179 56.8257.1356 17.5187.3009 35.0375.442 52.5562.1581 19.6154.3087 39.2309.4536 58.8463.1649 22.3111.3332 44.6223.4749 66.9336.0995 15.6494.1572 31.2991.2327 46.9486.0039.8104.0005 1.6209.0005 2.9053zm-221.5298-41.498c3.3724-1.6091 6.2246-3.061 9.1554-4.3315 1.5314-.6637 2.0156-1.576 1.9858-3.2437-.2889-16.1695-.5013-32.3405-.7107-48.5113-.6238-48.1389-1.2375-96.2778-1.8527-144.4169-.2937-22.9839-.5806-45.9678-.8764-68.9517-.0154-1.1964-.1726-2.2733 1.349-2.9209 3.6332-1.5462 7.1485-3.3674 10.7648-4.9558 6.7805-2.9781 13.5945-5.8797 20.4018-8.7962 40.497-17.3502 80.9923-34.7044 121.51-52.0061 1.4456-.6173 1.7923-1.4053 1.7647-2.86-.1681-8.833-.2418-17.668-.3592-26.5022-.0317-2.3911-.5693-2.7458-2.8546-1.7776-2.6169 1.1086-5.1931 2.3128-7.7946 3.4578-36.2864 15.9706-72.5513 31.9904-108.873 47.8801-14.2481 6.2333-28.6224 12.1785-42.9447 18.242-2.1162.8959-3.1256 2.4793-3.0723 4.7375.0563 2.3942.231 4.7866.2504 7.1807.3422 42.2267.6783 84.4536.9961 126.6805.396 52.6349.7745 105.2701 1.1595 157.905.0063.8827.0007 1.7655.0007 3.1903zm123.8233-257.1399c-6.3407 2.5325-12.1214 4.7611-17.8279 7.166-1.8935.7979-2.5763 2.5723-2.5363 4.6308.1959 10.1036.4337 20.2072.5296 30.312.1943 20.4405.3019 40.8817.4539 61.3225.1648 22.1624.3468 44.3248.5078 66.4872.1407 19.3922.2545 38.7845.395 58.1766.1829 25.2325.3791 50.4647.5769 75.697.0059.765.093 1.5295.1664 2.6697 14.3421-6.9123 28.2938-13.6364 42.7897-20.6228-1.4871-.5551-2.2952-.8897-3.124-1.1608-4.9059-1.6041-9.8202-3.1822-14.7243-4.7916-2.9394-.9648-3.8508-2.2061-3.8893-5.2536-.2957-23.3579-.5764-46.7159-.8813-70.0738-.2522-19.3145-.5441-38.6284-.7954-57.9431-.3401-26.1278-.6715-52.2557-.9818-78.3839-.2393-20.1398-.4434-40.2801-.6554-60.4201-.026-2.4602-.0036-4.9211-.0036-7.8121zm-201.0585-65.3875c1.2062.4251 1.8735.6974 2.5619.897 7.5311 2.1817 15.0407 4.4433 22.6044 6.5057 13.8329 3.7718 27.6779 7.5043 41.5728 11.0377 2.0368.5179 4.4673.1979 6.5502-.3562 2.5746-.6846 4.9983-1.9707 7.449-3.0811 9.6684-4.3807 19.3298-8.7769 28.9781-13.2011 9.7834-4.4862 19.5489-9.0117 29.321-13.5224 1.002-.4623 1.9682-.7229 1.8038-2.3468-.5113-5.0474-.8732-10.1141-1.1368-15.1815-.4076-7.8347-.6616-15.6773-1.0355-23.514-.0975-2.0427-.3978-4.0758-.6342-6.4013-46.0452 19.7358-91.8082 39.3506-138.0347 59.164zm221.6609 41.5117c.534.3768.638.4985.7658.5336 21.6769 5.9656 43.3634 11.8966 65.0247 17.918 2.9933.8321 5.7073.5488 8.4779-.7073 12.1877-5.5253 24.411-10.9717 36.5936-16.5081 9.4624-4.3003 18.8946-8.6682 28.3007-13.0901.6811-.3202 1.5067-1.349 1.4748-2.0101-.2634-5.4402-.7953-10.867-1.0877-16.3063-.4053-7.5375-.6496-15.0834-1.0154-22.6233-.0987-2.0342-.3868-4.0593-.6098-6.3084-46.035 19.7263-91.8282 39.3492-137.9246 59.102zm-115.8583 7.938c.7653.294 1.0997.4556 1.4519.5529 21.3141 5.8973 42.6153 11.8426 63.9662 17.6034 2.2675.6118 5.0899.8372 7.2039.0422 7.0585-2.6542 13.9308-5.8115 20.8148-8.909.7045-.3171 1.4021-1.5152 1.4286-2.3264.1293-3.9631-.0258-7.935.0611-11.9007.016-.7312.4982-1.8266 1.0798-2.1113 4.3608-2.1343 8.7683-4.1815 13.2222-6.1153 9.6701-4.1987 19.3708-8.3271 29.0754-12.4459 1.2011-.5098 1.7058-1.1907 1.6049-2.5414-.2449-3.2785-.3503-6.5674-.5132-9.8521-.3147-6.3459-.6209-12.6923-.9601-19.037-.0337-.6289-.2712-1.2469-.4659-2.0955-45.9981 19.7157-91.7442 39.3232-137.9696 59.1361zm116.0072-98.1318c-.0287-.2137-.0573-.4272-.086-.6407-26.843-3.3348-53.6859-6.6697-80.5956-10.0129.5689 15.3682 1.128 30.4754 1.6962 45.8238 26.4711-11.7868 52.7283-23.4785 78.9854-35.1702zm222.6883 41.0638c-27.7121-3.44-54.7732-6.7992-81.7808-10.1517.5631 15.4735 1.1087 30.4631 1.6671 45.8087 26.659-11.8653 53.1052-23.6361 80.1137-35.657zm-197.5746-2.3213c.4789 10.7812.9429 21.2273 1.4192 31.952 19.0831-8.186 37.7708-16.2024 56.4585-24.2188-.0357-.1782-.0716-.3563-.1072-.5346-19.1426-2.3852-38.2852-4.7705-57.7705-7.1986z" fill="#050403"/><path d="m327.7469 458.9627c0-1.2844.0034-2.0949-.0006-2.9052-.0755-15.6495-.1332-31.2993-.2327-46.9486-.1417-22.3113-.3101-44.6224-.4749-66.9336-.1449-19.6153-.2955-39.2308-.4536-58.8463-.1411-17.5187-.3064-35.0375-.442-52.5562-.1466-18.9419-.258-37.884-.4179-56.8257-.0278-3.2891-.2321-6.5765-.3329-9.8654-.0699-2.2802.9852-3.798 3.0979-4.6973 15.2069-6.4732 30.4463-12.873 45.5928-19.4851 31.3347-13.6792 62.6205-27.4712 93.9211-41.2283 6.1646-2.7094 12.3058-5.4719 18.4597-8.2057.6835-.3037 1.3696-.6061 2.0719-.862 1.578-.5752 2.3466-.1871 2.356 1.677.0334 6.6617.2041 13.3226.2715 19.9844.2241 22.1607.4231 44.3218.6375 66.4827.1346 13.9248.2691 27.8495.4218 41.7742.2997 27.3262.6149 54.6522.9176 81.9785.141 12.7264.2616 25.4532.4016 38.1797.136 12.3521.2556 24.7044.4633 37.0553.0276 1.6458-.4537 2.5022-1.9809 3.2354-37.3695 17.9423-74.7122 35.9403-112.0581 53.9316-16.518 7.9576-33.0322 15.9232-49.5503 23.8806-.7275.3503-1.4773.6547-2.6688 1.18z" fill="#c91600"/><path d="m106.2171 417.4647c0-1.4248.0056-2.3076-.0008-3.1903-.385-52.6349-.7635-105.2701-1.1595-157.905-.3178-42.2269-.6538-84.4538-.9961-126.6805-.0193-2.3941-.194-4.7865-.2504-7.1807-.0532-2.2582.9561-3.8416 3.0723-4.7375 14.3223-6.0635 28.6966-12.0087 42.9447-18.242 36.3217-15.8897 72.5866-31.9095 108.873-47.8801 2.6016-1.145 5.1777-2.3492 7.7946-3.4578 2.2853-.9681 2.8228-.6135 2.8546 1.7776.1174 8.8342.1911 17.6692.3592 26.5022.0276 1.4546-.3191 2.2427-1.7647 2.86-40.5177 17.3017-81.013 34.6559-121.51 52.0061-6.8073 2.9165-13.6214 5.8181-20.4018 8.7962-3.6163 1.5884-7.1316 3.4096-10.7648 4.9558-1.5216.6476-1.3644 1.7246-1.349 2.9209.2958 22.9839.5827 45.9678.8764 68.9517.6152 48.1391 1.2289 96.2779 1.8527 144.4169.2094 16.1708.4218 32.3418.7107 48.5113.0298 1.6677-.4544 2.58-1.9858 3.2437-2.9307 1.2704-5.7829 2.7223-9.1553 4.3315z" fill="#fbbe00"/><g fill="#c7e7f6"><path d="m245.5279 231.9841c12.3348 3.478 24.6595 6.9926 37.0089 10.4182 6.0284 1.6722 12.1028 3.1786 18.1565 4.7599.0004 6.8024.0357 13.6051-.0431 20.4065-.0097.8366-.6291 1.6661-.9564 2.4756.2923 1.0908.888 2.401.9526 3.7371.1513 3.1322.0484 6.2766.0484 9.4162v4.8915c-1.5771-.3965-2.8041-.7051-4.0309-1.0136-1.4488-.5796-2.8537-1.3351-4.3536-1.7107-10.8359-2.7142-21.691-5.3516-32.5399-8.0132-1.7899-.4105-3.5798-.8209-5.3698-1.2313-.0426.2117-.0854.4235-.128.6353 1.6827.4491 3.3653.8983 5.048 1.3474 12.4453 3.3124 24.8905 6.6248 37.3358 9.9371.9522.3944 1.9493.71 2.8389 1.2147.491.2783 1.12.8579 1.1439 1.3291.2035 4.0187.2823 8.0439.3984 12.067-14.4958-4.3765-29.0264-8.6221-43.8372-11.8607.476.6012 1.0441.8946 1.646 1.0776 8.4998 2.5844 16.9771 5.2488 25.5173 7.693 5.5858 1.5987 11.2644 2.8729 16.9014 4.2925.1028 6.8571.1791 13.7148.3167 20.5713.115 5.7385.3098 11.4754.4547 17.2133.1601 6.3357.2899 12.672.459 19.0075.1252 4.6918.3209 9.3817.4337 14.0737.1667 6.9333.2878 13.8675.4283 20.8013-6.8012-2.2784-13.6165-4.5161-20.4005-6.8444-11.2442-3.8591-22.4692-7.7741-33.699-11.675-.6986-.2426-1.3691-.5667-2.0527-.8527-.1406-2.5266-.34-5.0515-.4105-7.58-.1832-6.5677-.329-13.1366-.4541-19.7056-.1692-8.8886-.3431-17.7776-.447-26.6671-.1797-15.4007-.3743-30.8018-.4369-46.2032-.0598-14.669.0409-29.3388.0711-44.0083zm12.9118 27.2128c.4986.104.9972.2082 1.4958.3122.0491-.1633.0982-.3267.1473-.49-.4044-.1725-.8091-.3451-1.2137-.5175-1.7587-.4217-3.5176-.8434-5.2763-1.2649-.0498.1892-.0996.3786-.1494.568 1.6654.4639 3.3308.9281 4.9963 1.3922zm38.1527 9.9283c.0445-.1945.0891-.3889.1335-.5834-11.7479-4.7968-24.0941-7.2851-36.4821-9.6123-.0642.2444-.1286.4887-.1928.7332 12.1805 3.1541 24.361 6.3083 36.5414 9.4625z"/><path d="m23.9322 190.5088c8.8984 2.5457 17.774 5.1743 26.7012 7.6147 9.6459 2.6368 19.34 5.0978 29.0129 7.6354-.1509 7.2641-.3017 14.5282-.4491 21.6224-.9156.2039-1.5335.3414-1.7628.3925.6622 1.1777 1.5981 2.0969 1.6336 3.0495.0965 2.584-.1784 5.1829-.3259 7.7747-.1459 2.5666-.3158 5.1318-.4791 7.7581-1.0092-.046-1.6618-.0756-2.3144-.1054-1.4794-.7542-2.8814-1.8095-4.451-2.2139-10.163-2.6175-20.3625-5.093-30.55-7.6151-2.8621-.766-5.6726-1.8248-8.7581-1.3974 2.7743.7371 5.5484 1.4742 8.3227 2.2113 1.2247.3212 2.449.6441 3.6741.9633 10.5896 2.7589 21.1793 5.5171 31.769 8.2756 2.3025.9257 2.5735 2.7511 2.367 4.9429-.2825 2.9978-.3781 6.0134-.5536 9.0214-5.3016-1.5272-10.5922-3.0932-15.9069-4.5727-8.8941-2.4758-17.8037-4.8963-26.7067-7.34-1.2502-.2062-2.5006-.4124-3.7509-.6186-.0231.1454-.0463.2907-.0694.4361 1.2782.3309 2.5564.6619 3.8344.9928 1.2433.4738 2.4606 1.0374 3.734 1.4072 12.9751 3.7677 25.9593 7.5038 38.9411 11.2487-.3064 30.1205-.6126 60.2409-.919 90.3613-8.6891-2.9517-17.3913-5.8658-26.0636-8.8658-8.2444-2.8521-16.4577-5.7939-24.6846-8.6963.0023-6.0287.0539-12.058-.0035-18.0861-.1153-12.1125-.2677-24.2247-.4491-36.3364-.0995-6.6467-.2913-13.2921-.4379-19.9381-.1533-6.9455-.2919-13.8912-.4561-20.8364-.1325-5.5981-.2976-11.1954-.4416-16.793-.1554-6.0469-.347-12.0932-.4395-18.1411-.0722-4.7161-.0163-9.4343-.0172-14.1516zm47.9598 36.1192c.0596-.1764.1191-.3527.1787-.5291-11.5579-5.247-24.0975-6.5217-36.2345-9.4251-.0628.2516-.1256.5033-.1884.7549 12.0813 3.0664 24.1629 6.1329 36.2442 9.1993z"/><path d="m129.5762 239.7688c12.5652 3.5399 25.1231 7.1058 37.699 10.6077 5.3796 1.4979 10.7965 2.8628 16.1964 4.288-.1637 3.4679-.3295 6.9359-.4908 10.4038-.1544 3.3199-.2752 6.6418-.4862 9.9579-.0325.512-.4697.9982-.7196 1.4962-4.2139-1.4065-8.3876-2.9524-12.6529-4.1801-4.2352-1.2189-8.5492-2.1772-12.8533-3.1397-4.2575-.9519-8.5458-1.7662-12.8206-2.6411-.0617.2878-.1232.5754-.1849.863 4.233 1.0381 8.484 2.008 12.6951 3.1284 8.8672 2.3593 17.7132 4.7975 26.568 7.2033-.1579 5.7806-.3158 11.561-.4738 17.3416l-.0474.1177.1053.0708c-.3549-.1214-.71-.2427-1.065-.3641-1.7412-.666-3.4356-1.5212-5.2315-1.9669-10.943-2.7162-21.9091-5.339-32.8675-7.9929-1.5345-.3961-3.0691-.7921-4.6036-1.1881-.0563.2286-.1125.4571-.1687.6856 1.5877.4359 3.1755.8719 4.7633 1.3078 12.5252 3.2831 25.0506 6.5661 37.5759 9.8487.5301.1712 1.06.3425 1.5901.514.0072.0891.0241.1764.0504.2618-.0418 4.3113-.0837 8.6227-.1256 12.9341-11.0607-3.0546-22.1212-6.1105-33.1826-9.1624-2.7006-.7451-5.4049-1.4767-8.1075-2.2144-1.0786-.2038-2.1571-.4074-3.2358-.6111-.0349.1684-.0696.3369-.1044.5052 1.119.2973 2.2379.5945 3.3569.8918 2.0852.6924 4.1523 1.4463 6.2586 2.0671 11.7191 3.4538 23.4478 6.8752 35.1731 10.3078-.1833 6.4185-.5271 12.8374-.5151 19.2556.0217 11.5867.2032 23.1739.416 34.7592.225 12.2422.5644 24.4824.8537 36.7235-10.1095-3.4666-20.2234-6.9202-30.3268-10.4049-5.929-2.0449-11.8409-4.1396-17.7605-6.2119-.2769-7.894-.5445-15.7882-.8334-23.6818-.2917-7.9698-.5912-15.9392-.9121-23.9077-.2789-6.9225-.5898-13.8438-.8916-20.7654-.4481-10.2704-.896-20.5408-1.3529-30.811-.288-6.4732-.6956-12.9431-.864-19.4192-.2327-8.9568-.2909-17.9183-.4237-26.8779zm12.4647 27.1204c.3628.0209.7257.0418 1.0885.0627.0155-.1434.0309-.2866.0464-.43-.3651-.1256-.7303-.2513-1.0954-.377-1.4412-.3216-2.8824-.6432-4.3236-.9649-.0415.1722-.0831.3444-.1246.5165 1.4696.3976 2.9391.7951 4.4087 1.1927z"/></g><path d="m230.0404 160.3248c0 2.891-.0224 5.3518.0035 7.8121.212 20.14.416 40.2803.6554 60.4201.3103 26.1282.6417 52.2562.9818 78.3839.2513 19.3146.5432 38.6286.7954 57.9431.305 23.3579.5857 46.7159.8813 70.0738.0385 3.0475.9499 4.2889 3.8893 5.2536 4.904 1.6094 9.8184 3.1875 14.7243 4.7916.8288.2711 1.6369.6057 3.124 1.1608-14.4959 6.9864-28.4477 13.7105-42.7897 20.6228-.0734-1.1402-.1605-1.9047-.1664-2.6697-.1979-25.2324-.394-50.4645-.5769-75.697-.1406-19.3921-.2543-38.7844-.395-58.1766-.161-22.1624-.3429-44.3248-.5078-66.4872-.152-20.4408-.2595-40.882-.4539-61.3225-.096-10.1047-.3338-20.2083-.5296-30.312-.0399-2.0585.6428-3.8329 2.5363-4.6308 5.7066-2.4049 11.4873-4.6334 17.828-7.166z" fill="#2273b3"/><path d="m28.9819 94.9373c46.2265-19.8135 91.9895-39.4282 138.0346-59.1639.2364 2.3255.5367 4.3586.6342 6.4013.3739 7.8367.6279 15.6793 1.0355 23.514.2636 5.0675.6255 10.1341 1.1368 15.1815.1644 1.624-.8017 1.8845-1.8038 2.3468-9.7721 4.5107-19.5376 9.0363-29.321 13.5224-9.6483 4.4242-19.3098 8.8203-28.9781 13.2011-2.4507 1.1104-4.8744 2.3965-7.449 3.0811-2.0829.5541-4.5134.8741-6.5502.3562-13.8949-3.5334-27.7399-7.266-41.5728-11.0377-7.5637-2.0624-15.0733-4.324-22.6044-6.5057-.6883-.1996-1.3556-.472-2.5618-.8971z" fill="#6f3f34"/><path d="m250.6428 136.449c46.0964-19.7528 91.8896-39.3757 137.9246-59.1021.223 2.2491.5111 4.2742.6098 6.3084.3658 7.5399.6101 15.0858 1.0154 22.6233.2924 5.4393.8243 10.8661 1.0877 16.3063.0319.661-.7937 1.6899-1.4748 2.0101-9.4062 4.422-18.8383 8.7899-28.3007 13.0901-12.1826 5.5364-24.4059 10.9828-36.5936 16.5081-2.7706 1.2562-5.4846 1.5394-8.4779.7073-21.6613-6.0213-43.3478-11.9524-65.0247-17.918-.1277-.035-.2318-.1567-.7658-.5335z" fill="#6f3f34"/><path d="m21.7003 100.1651c7.5976 2.2356 15.1704 4.5604 22.7979 6.6886 16.0518 4.4785 32.134 8.8481 48.198 13.2828 1.2682.3501 2.4926.8592 4.1932 1.4538v84.2344c-.6715-.1283-1.5326-.2395-2.365-.4594-23.2654-6.1458-46.5282-12.3021-69.7897-18.4633-.4299-.1139-.8383-.3081-1.2567-.4649-.148-7.3015-.2827-14.6032-.4484-21.9043-.1266-5.5838-.324-11.1663-.4344-16.7506-.3136-15.872-.5987-31.7447-.8949-47.6171zm62.7326 70.1729c.2523-1.092.6586-2.0277.6545-2.9616-.0367-8.3772-.1854-16.7541-.2046-25.1314-.0047-2.0356-1.0929-2.538-2.8029-2.9484-16.6463-3.995-33.2751-8.0626-49.9064-12.1198-1.0323-.2518-2.0438-.5896-3.6721-1.0645 0 9.2584.0659 18.0806-.06 26.9-.023 1.6059.574 2.0823 1.8815 2.4019 4.1377 1.0112 8.2891 1.9799 12.3897 3.1272 13.8191 3.8665 27.6186 7.8032 41.7203 11.7966z" fill="#fcd500"/><path d="m129.0433 150.0973c7.0243 2.043 14.0296 4.1542 21.0768 6.1152 16.1251 4.4869 32.2725 8.894 48.4048 13.3556 1.2683.3507 2.4893.873 4.2011 1.4825v84.2278c-24.5404-6.0204-49.3114-12.0383-73.7015-19.524.1487-16.2964.3419-32.5921.4217-48.8884.0276-5.6721-.2742-11.345-.337-17.0184-.0728-6.5829-.0482-13.1668-.0659-19.7503zm8.4129 26.8637c-.7699-.4539-1.5397-.9077-2.3096-1.3617-.2478.1043-.4957.2084-.7433.3126 0 8.7413.0778 17.4839-.0669 26.2228-.0284 1.7075.3885 2.3327 1.9676 2.7596 12.7646 3.4514 25.5091 6.9772 38.2584 10.4846 5.2323 1.4394 10.4616 2.8896 15.8062 4.3663.2604-1.2612.6599-2.2782.6497-3.2911-.0853-8.4483-.2735-16.8956-.3573-25.3441-.0141-1.4262-.6369-1.9387-1.9182-2.2137-16.8044-3.6059-33.0779-9.4719-50.1875-11.7819-.3663-.0511-.7327-.1023-1.0991-.1534z" fill="#4193c8"/><path d="m134.7845 144.387c46.2254-19.8129 91.9714-39.4205 137.9697-59.136.1946.8486.4321 1.4666.4659 2.0955.3391 6.3447.6454 12.691.9601 19.037.1629 3.2847.2683 6.5736.5132 9.8521.1009 1.3507-.4038 2.0317-1.6049 2.5414-9.7046 4.1188-19.4053 8.2472-29.0754 12.4459-4.454 1.9339-8.8614 3.9811-13.2222 6.1153-.5816.2847-1.0638 1.3801-1.0798 2.1113-.0869 3.9657.0682 7.9376-.0611 11.9007-.0265.8112-.7241 2.0092-1.4286 2.3264-6.8839 3.0975-13.7563 6.2548-20.8148 8.909-2.114.795-4.9364.5696-7.2039-.0422-21.3509-5.7608-42.6521-11.7061-63.9662-17.6034-.3523-.0974-.6866-.259-1.452-.553z" fill="#6f3f34"/><path d="m247.2256 142.8727c11.4759 3.3591 22.9258 6.8112 34.4354 10.0504 10.9323 3.0767 21.9291 5.924 32.8922 8.8922 1.1328.3067 2.2289.7491 3.8306 1.2951v84.1606c-.6404-.1105-1.4388-.1871-2.2041-.3892-23.1923-6.1241-46.3817-12.2596-69.57-18.3991-.708-.1874-1.3997-.4364-2.099-.6567.3099-.5737.8747-1.1402.8911-1.722.2035-7.2336.3086-14.47.4783-21.7046.1118-4.7687.2799-9.5363.4352-14.3038.2962-9.0872.6829-18.1724.8755-27.2618.1412-6.6509.0322-13.3072.0348-19.9611zm3.431 25.2753c-.0325.1867-.1589.5977-.167 1.011-.1603 8.2287-.2118 16.4614-.5219 24.6844-.0797 2.1156.6366 2.8172 2.5225 3.3197 11.6981 3.1175 23.3713 6.3287 35.0441 9.5406 6.1045 1.6797 12.191 3.4243 18.4651 5.1903.3024-1.201.7449-2.1281.7357-3.0506-.0869-8.6753-.2189-17.3508-.4644-26.0227-.0165-.5861-.9633-1.4557-1.6382-1.6581-2.5029-.7508-5.0823-1.2418-7.6165-1.8944-10.1357-2.6099-20.2438-5.3312-30.4061-7.8322-5.1693-1.272-10.4325-2.1634-15.9533-3.288z" fill="#dd2311"/><path d="m26.2299 338.6333c11.4745 4.0738 22.9194 8.2339 34.4319 12.1972 11.8684 4.0859 23.7924 8.0121 35.7208 11.9205 1.5983.5237 2.1785 1.2004 2.1849 2.9414.0628 16.6082.2312 33.2159.3681 49.824.0061.7433.0007 1.4868.0007 2.4968-.7629-.1622-1.3939-.2367-1.9858-.4307-24.0744-7.8873-48.1454-15.7851-72.2151-23.6869-.1358-.0446-.248-.161-.3712-.244.622-18.3393 1.2438-36.6789 1.8657-55.0183zm31.2002 51.8982c9.0523.1184 14.6824-6.4254 13.3323-14.438-1.1859-7.0389-5.7632-10.995-13.849-12.3635-4.7043-.7961-8.7368.1863-11.5774 4.0415-3.1977 4.34-3.882 9.2628-1.4761 14.1902 2.8965 5.9321 8.2215 8.121 13.5702 8.5698z" fill="#fcd500"/><path d="m247.2654 380.0055c9.5761 3.3989 19.1251 6.8771 28.735 10.1777 14.0615 4.8297 28.1631 9.5432 42.2607 14.268 1.1916.3994 1.8285.8394 1.8352 2.2878.0797 17.0543.2379 34.1083.3682 51.1624.0039.5098-.0708 1.0199-.1269 1.7713-4.0272-1.2936-7.9303-2.5245-11.8186-3.8001-19.7391-6.4762-39.4746-12.9633-59.2092-19.4533-.4179-.1375-.8088-.3571-1.212-.5383-.1348-8.417-.2777-16.834-.4025-25.2513-.1515-10.2079-.2874-20.416-.4299-30.6242zm32.4377 52.1549c9.1119.2289 15.0823-7.9119 12.0732-16.7266-2.1396-6.2675-6.6999-9.2246-13.3344-10.304-8.9801-1.461-15.153 5.8027-14.245 14.1568.78 7.1769 7.3947 12.6702 15.5062 12.8738z" fill="#dd2311"/><path d="m182.0526 295.098c.1579-5.7806.3158-11.561.4738-17.3416.4052.0625.8102.1252 1.2154.1877.0397-.1339.0792-.2679.1188-.4016-.6952-.34-1.3904-.68-2.0856-1.0199.2499-.498.6871-.9842.7196-1.4962.211-3.3162.3318-6.6381.4862-9.9579.1613-3.4679.3271-6.9359.4908-10.4038 6.1695 1.4849 12.3309 3.0049 18.5145 4.4277 1.3804.3175 1.2566 1.2066 1.2639 2.187.1346 18.251.2749 36.502.416 54.7529.2324 30.0689.4664 60.1378.6987 90.2068.0058.7373.0008 1.4745.0008 2.7118-7.3345-2.4313-14.3795-4.7667-21.4244-7.102-.2893-12.2411-.6287-24.4813-.8537-36.7235-.2128-11.5853-.3943-23.1725-.416-34.7592-.012-6.4182.3318-12.8371.5151-19.2556 1.2962.2307 2.5924.4616 3.8886.6925.0144-.1894.0288-.3788.0432-.5682-1.3633-.6361-2.7266-1.2723-4.09-1.9083.0419-4.3113.0838-8.6228.1257-12.9339 1.1297.3119 2.2593.6235 3.389.9353.07-.1736.1399-.3473.2097-.5209-1.2332-.5698-2.4667-1.1393-3.7001-1.7091z" fill="#b2def3"/><path d="m135.4927 389.3307c6.9082 2.423 13.8003 4.8926 20.7276 7.2596 15.3523 5.2457 30.713 10.467 46.0979 15.6158 1.6319.546 2.1566 1.2848 2.1594 2.9988.0262 16.6167.1475 33.2332.2408 49.8497.0041.7284.0004 1.4568.0004 2.5154-2.7995-.9088-5.2751-1.7027-7.7442-2.5153-19.9499-6.5662-39.8987-13.136-59.8478-19.7047-.1359-5.583-.2653-11.1661-.41-16.7489-.1583-6.1064-.3294-12.2125-.5007-18.3185-.0103-.3709-.0933-.7397-.105-1.1105-.2097-6.6138-.4133-13.2276-.6184-19.8414zm41.2786 38.6823c.1068-3.9344-1.248-7.3079-3.8573-10.225-2.9322-3.2781-6.7439-4.3481-10.965-4.8568-5.284-.6366-10.0788 1.8105-12.2321 6.7072-4.6109 10.4851 3.6511 21.109 15.7765 20.2867 6.5797-.4461 11.1976-5.3223 11.2779-11.9121z" fill="#4193c8"/><path d="m75.9486 246.2507c.6526.0298 1.3052.0594 2.3144.1054.1633-2.6263.3332-5.1915.4791-7.7581.1475-2.5918.4224-5.1907.3259-7.7747-.0354-.9526-.9714-1.8718-1.6336-3.0495.2293-.0511.8472-.1885 1.7628-.3925.1473-7.0942.2982-14.3583.4491-21.6224 5.5161 1.3257 11.042 2.614 16.5322 4.0392.5112.1327 1.1053 1.1179 1.1355 1.733.1506 3.0616.1368 6.1317.1602 9.1991.3393 44.589.6756 89.1781 1.0106 133.7671.0113 1.4919.0015 2.9839.0015 5.032-7.357-2.4484-14.4592-4.812-21.5613-7.1758.3064-30.1205.6126-60.2409.919-90.3613.7272.1218 1.4545.2434 2.1817.3652.0896-.1985.1794-.3973.269-.5958-.8421-.441-1.6842-.8819-2.5262-1.3229.1756-3.008.2711-6.0236.5536-9.0214.2065-2.1917-.0645-4.0172-2.367-4.9429l-.0764-.1098z" fill="#b2ddf2"/><path d="m296.6639 287.0755c1.2268.3085 2.4538.617 4.0309 1.0136 0-1.6638 0-3.2775 0-4.8915 0-3.1395.1029-6.284-.0484-9.4162-.0646-1.3361-.6603-2.6463-.9526-3.7371.3273-.8095.9467-1.6391.9564-2.4756.0788-6.8014.0435-13.6041.0431-20.4065 5.7371 1.3838 11.4879 2.7166 17.1888 4.2362.5247.1399 1.0308 1.4682 1.0407 2.251.1325 10.4821.1631 20.9655.2423 31.4483.2837 37.5886.5762 75.1772.8645 112.7659.0068.8919.0009 1.784.0009 3.2056-5.7308-1.9072-11.2019-3.728-16.673-5.5487-.1406-6.9339-.2616-13.868-.4283-20.8013-.1128-4.692-.3085-9.3819-.4337-14.0737-.1691-6.3355-.2989-12.6718-.459-19.0075-.1449-5.7379-.3397-11.4748-.4547-17.2133-.1376-6.8565-.2139-13.7142-.3168-20.5708.2272-.1037.4543-.2079.6815-.312-.1129-.0014-.2775.0971-.2837.0879-.2176-.3201-.4204-.6503-.6252-.979-.1161-4.0231-.1949-8.0482-.3984-12.067-.0239-.4712-.6529-1.0508-1.1439-1.3291-.8896-.5047-1.8867-.8203-2.8389-1.2145.0026-.3218.0052-.6432.0075-.9647z" fill="#b2ddf2"/><path d="m250.7917 46.2552c-26.2571 11.6917-52.5143 23.3834-78.9853 35.1703-.5682-15.3485-1.1273-30.4556-1.6962-45.8238 26.9097 3.3432 53.7525 6.678 80.5956 10.0129.0286.2134.0572.427.0859.6406z" fill="#87574c"/><path d="m473.48 87.319c-27.0086 12.021-53.4548 23.7917-80.1136 35.657-.5584-15.3456-1.1041-30.3352-1.6671-45.8087 27.0075 3.3524 54.0686 6.7117 81.7807 10.1517z" fill="#87574c"/><path d="m129.5762 239.7688c.1328 8.9596.1909 17.9211.4238 26.8782.1684 6.4761.5759 12.9459.864 19.4192.4568 10.2701.9048 20.5406 1.3529 30.811.3019 6.9216.6128 13.8429.8916 20.7654.3209 7.9685.6204 15.938.9121 23.9077.2889 7.8936.5565 15.7878.8334 23.6818-3.2527-1.0888-6.5338-2.1039-9.7292-3.3405-.5201-.2012-.9271-1.3775-.9385-2.1101-.3229-20.5867-.5974-41.1741-.86-61.7617-.3305-25.9028-.6438-51.8061-.9626-77.7092-.011-.8953-.0014-1.7909-.0014-3.0668 2.5221.8827 4.868 1.7038 7.2139 2.525z" fill="#e9f4f9"/><path d="m23.9322 190.5088c.0008 4.7173-.055 9.4355.0169 14.1517.0924 6.0479.2841 12.0942.4395 18.1411.144 5.5977.3091 11.1949.4416 16.793.1643 6.9452.3029 13.8909.4561 20.8364.1466 6.646.3384 13.2914.4379 19.9381.1813 12.1117.3338 24.2238.4491 36.3364.0574 6.0281.0058 12.0574.0035 18.0861-2.3983-.7747-4.8319-1.4612-7.1643-2.3993-.4594-.1846-.7375-1.3368-.7471-2.0475-.2513-18.697-.4386-37.395-.6736-56.0923-.3489-27.7469-.7262-55.4936-1.0894-83.2404-.0123-.9415-.0016-1.8832-.0016-3.1714 2.7283.9795 5.0798 1.8237 7.4314 2.6681z" fill="#e9f4f9"/><path d="m245.5279 231.9841c-.0302 14.6695-.131 29.3393-.0713 44.0084.0627 15.4014.2573 30.8025.4369 46.2032.1039 8.8895.2777 17.7784.447 26.6671.1252 6.5691.271 13.138.4541 19.7056.0706 2.5284.27 5.0534.4105 7.58-2.1269-.6718-4.3123-1.2105-6.3433-2.101-.5682-.2491-.9511-1.5318-.9636-2.3472-.3247-21.1734-.5936-42.3477-.8634-63.5219-.3221-25.2896-.6365-50.5794-.9523-75.8692-.0109-.8736-.0014-1.7473-.0014-2.9353 2.7003.9464 5.0736 1.7783 7.4468 2.6103z" fill="#e9f4f9"/><path d="m275.9054 84.9977c19.4854 2.4281 38.6279 4.8134 57.7704 7.1986.0357.1782.0715.3563.1072.5346-18.6877 8.0163-37.3754 16.0328-56.4585 24.2188-.4763-10.7247-.9403-21.1708-1.4191-31.952z" fill="#87574c"/><path d="m247.2256 142.8727c-.0025 6.6539.1064 13.3102-.0347 19.9611-.1926 9.0893-.5793 18.1746-.8755 27.2618-.1554 4.7676-.3235 9.5351-.4352 14.3038-.1696 7.2346-.2748 14.4709-.4783 21.7046-.0164.5819-.5812 1.1483-.8911 1.722-6.6012-1.6295-6.5726-1.6297-6.6502-8.3403-.2875-24.9018-.5967-49.8034-.8936-74.705-.0185-1.5547-.0024-3.1096-.0024-5.0998 3.6442 1.1335 6.9526 2.1627 10.261 3.1918z" fill="#f24635"/><path d="m135.4927 389.3307c.2051 6.6138.4087 13.2276.6183 19.8414.0117.3709.0947.7397.105 1.1105.1713 6.106.3424 12.2121.5007 18.3185.1447 5.5827.2741 11.1659.41 16.7489-3.6977-1.1728-7.4233-2.269-11.0636-3.5986-.5615-.205-1.0263-1.4772-1.0391-2.2638-.2672-16.3765-.4642-32.754-.6692-49.1316-.0205-1.6326-.0028-3.2658-.0028-5.3449 3.8715 1.5012 7.5061 2.9105 11.1407 4.3196z" fill="#74d9eb"/><path d="m129.0433 150.0973c.0176 6.5835-.0069 13.1673.0659 19.7502.0628 5.6735.3647 11.3464.337 17.0184-.0797 16.2963-.2729 32.592-.4217 48.8884-6.7315-1.7363-6.7085-1.7366-6.7918-8.6579-.3101-25.7743-.6368-51.5486-.9561-77.3228-.0073-.5836-.001-1.1674-.001-2.2119 2.7696.9042 5.2687 1.7199 7.7677 2.5356z" fill="#74d9eb"/><path d="m21.7003 100.1651c.2962 15.8723.5813 31.7451.8949 47.6172.1104 5.5843.3078 11.1667.4344 16.7506.1657 7.3011.3003 14.6028.4484 21.9043-2.0042-.5704-4.0656-1.0026-5.9784-1.794-.5889-.2436-1.0769-1.4614-1.0943-2.2446-.1966-8.905-.3057-17.812-.4132-26.7188-.2221-18.4126-.4295-36.8254-.6416-55.2382-.0076-.661-.001-1.3224-.001-2.3429 2.2948.7466 4.3228 1.4065 6.3508 2.0664z" fill="#fbeb00"/><path d="m247.2654 380.0055c.1425 10.2082.2784 20.4164.4299 30.6243.1247 8.4173.2677 16.8343.4025 25.2513-2.2109-.661-4.4514-1.2425-6.6084-2.0478-.4551-.1699-.8376-1.153-.8559-1.7733-.1061-3.5893-.0809-7.1823-.1228-10.7738-.1617-13.8412-.3326-27.6825-.4982-41.5237-.0087-.7381-.0011-1.4763-.0011-2.631 2.597 1.0289 4.9255 1.9514 7.254 2.874z" fill="#f24635"/><path d="m26.2299 338.6333c-.6219 18.3394-1.2438 36.6789-1.8657 55.0183-.0747.0037-.1531.0243-.2231.0083-5.0782-1.1575-5.0768-1.1578-5.1399-6.3115-.2036-16.6437-.4093-33.2875-.6083-49.9314-.0062-.5096.0528-1.0202.1006-1.8756 2.6984 1.0785 5.2174 2.0851 7.7364 3.0919z" fill="#fbeb00"/><path d="m301.0376 302.6508c.2048.3287.4076.6589.6252.979.0062.0092.1707-.0894.2837-.0879-.2272.1041-.4543.2083-.6814.312-5.6371-1.4202-11.3156-2.6944-16.9014-4.2931-8.5402-2.4442-17.0175-5.1087-25.5173-7.693-.6019-.183-1.1699-.4764-1.646-1.0776 14.8108 3.2385 29.3415 7.484 43.8372 11.8606z" fill="#0c1112"/><path d="m296.5924 269.1252c-12.1805-3.1542-24.3609-6.3084-36.5413-9.4626.0642-.2444.1286-.4887.1928-.7332 12.3879 2.3272 24.7342 4.8156 36.4821 9.6123-.0445.1945-.0891.389-.1336.5835z" fill="#1e2527"/><path d="m296.6639 287.0755c-.0024.3215-.0049.643-.0075.9646-12.4453-3.3124-24.8905-6.6248-37.3353-9.9371.1502-.2504.2996-.501.4492-.7515 10.8489 2.6617 21.704 5.2991 32.5399 8.0132 1.5.3757 2.9049 1.1312 4.3537 1.7108z" fill="#1e2527"/><path d="m259.7704 277.3515c-.1496.2505-.299.5012-.4492.7515-1.6832-.4492-3.3659-.8984-5.0486-1.3475.0426-.2118.0854-.4237.128-.6353 1.79.4104 3.5799.8208 5.3698 1.2313z" fill="#6f3f34"/><path d="m258.4397 259.1969c-1.6655-.4641-3.3309-.9282-4.9963-1.3922.0498-.1894.0996-.3788.1494-.568 1.7587.4215 3.5176.8432 5.277 1.265-.1429.2318-.2865.4634-.4301.6952z" fill="#6f3f34"/><path d="m258.4397 259.1969c.1436-.2318.2872-.4633.4301-.6952.4039.1723.8085.3449 1.213.5174-.0491.1633-.0982.3267-.1473.49-.4986-.1041-.9972-.2082-1.4958-.3122z" fill="#1e2527"/><path d="m77.7686 260.4388c.842.441 1.6841.8819 2.5262 1.3229-.0896.1985-.1794.3973-.269.5958-.7272-.1218-1.4545-.2434-2.1817-.3652-12.9818-3.745-25.9659-7.481-38.9411-11.2487-1.2734-.3698-2.4906-.9334-3.734-1.4072-.0047-.2701-.0095-.5402-.0141-.8103 8.903 2.4438 17.8126 4.8642 26.7067 7.34 5.3148 1.4795 10.6054 3.0455 15.907 4.5727z" fill="#0c1112"/><path d="m71.892 226.628c-12.0814-3.0664-24.1629-6.1328-36.2442-9.1993.0628-.2516.1256-.5033.1884-.7549 12.137 2.9034 24.6766 4.1781 36.2345 9.4251-.0596.1764-.1191.3527-.1787.5291z" fill="#1e2527"/><path d="m75.9486 246.2507-.0697.114.0764.1098c-10.5897-2.7585-21.1793-5.5167-31.769-8.2756-1.2251-.3192-2.4494-.6421-3.6735-.9633.1454-.2711.2902-.5425.4348-.8139 10.1876 2.5221 20.387 4.9976 30.55 7.6151 1.5696.4043 2.9716 1.4597 4.451 2.2139z" fill="#1e2527"/><path d="m40.9475 236.4217c-.1447.2714-.2895.5428-.4348.814-2.7749-.7372-5.549-1.4743-8.3233-2.2115 3.0855-.4273 5.8961.6314 8.7581 1.3975z" fill="#6f3f34"/><path d="m35.155 248.5261c.0047.2701.0095.5402.0141.8103-1.2781-.3309-2.5562-.6619-3.8344-.9928.0231-.1454.0463-.2907.0694-.4361 1.2502.2062 2.5006.4124 3.7509.6186z" fill="#1e2527"/><path d="m182.0284 309.3265c1.3634.636 2.7267 1.2722 4.09 1.9083-.0144.1894-.0288.3788-.0432.5682-1.2962-.2309-2.5924-.4618-3.8886-.6925-11.7253-3.4326-23.454-6.854-35.1731-10.3078-2.1063-.6208-4.1734-1.3747-6.2586-2.0671-.0055-.2619-.011-.524-.0166-.7859 2.7026.7377 5.4069 1.4693 8.1075 2.2144 11.0614 3.0519 22.1219 6.1078 33.1826 9.1624z" fill="#0c1112"/><path d="m181.7749 276.5225c.6952.34 1.3904.68 2.0856 1.0199-.0397.1338-.0792.2677-.1188.4016-.4052-.0625-.8102-.1252-1.2154-.1877-8.8548-2.4058-17.7008-4.8441-26.568-7.2033-4.2111-1.1204-8.4622-2.0902-12.6951-3.1284.0617-.2876.1232-.5753.1849-.863 4.2747.8748 8.563 1.6891 12.8206 2.6411 4.3041.9625 8.6181 1.9207 12.8533 3.1397 4.2653 1.2277 8.439 2.7737 12.6529 4.1801z" fill="#1e2527"/><path d="m180.5134 295.6169c-12.5252-3.2829-25.0506-6.5659-37.5751-9.8487.0031-.2684.0056-.537.0082-.8056 10.9584 2.6539 21.9245 5.2768 32.8675 7.9929 1.7959.4457 3.4902 1.3009 5.2315 1.9669-.1774.2315-.3547.4631-.5321.6945z" fill="#1e2527"/><path d="m142.9465 284.9626c-.0025.2686-.0051.5371-.0082.8056-1.5885-.4362-3.1763-.8722-4.764-1.3081.0562-.2285.1123-.457.1687-.6856 1.5344.396 3.069.792 4.6035 1.1881z" fill="#6f3f34"/><path d="m142.0409 266.8892c-1.4696-.3976-2.9391-.7951-4.4087-1.1927.0415-.1721.0831-.3443.1246-.5165 1.4412.3216 2.8824.6432 4.3241.965-.0129.2481-.0265.4962-.04.7442z" fill="#6f3f34"/><path d="m182.0526 295.098c1.2335.5697 2.4669 1.1393 3.7004 1.7089-.0699.1736-.1397.3473-.2097.5209-1.1297-.3118-2.2593-.6234-3.389-.9353-.0264-.0855-.0433-.1729-.0509-.2621.0023-.2814.0048-.5627.0072-.844l-.1053-.0708z" fill="#6f3f34"/><path d="m140.7383 297.9496c.0056.2619.0111.524.0166.7859-1.119-.2972-2.2379-.5945-3.3569-.8918.0349-.1684.0696-.3369.1044-.5052 1.0788.2037 2.1573.4073 3.2359.6111z" fill="#1e2527"/><path d="m182.1104 295.2866c-.0024.2813-.0049.5625-.0072.844-.5296-.1714-1.0596-.3427-1.5897-.5139.1773-.2312.3545-.4628.5319-.6942.355.1213.7101.2427 1.065.3641z" fill="#1e2527"/><path d="m142.0409 266.8892c.0135-.248.0271-.4961.0401-.7442.3645.1255.7298.2512 1.0949.3768-.0155.1434-.0309.2867-.0464.43-.3629-.0209-.7258-.0418-1.0886-.0626z" fill="#1e2527"/><path d="m84.4329 170.338c-14.1018-3.9933-27.9012-7.9301-41.7203-11.7966-4.1006-1.1474-8.252-2.1161-12.3897-3.1272-1.3075-.3195-1.9045-.796-1.8815-2.4019.1259-8.8195.06-17.6416.06-26.9 1.6283.4749 2.6398.8128 3.6721 1.0645 16.6313 4.0571 33.2601 8.1247 49.9064 12.1198 1.71.4104 2.7983.9128 2.8029 2.9484.0192 8.3773.1679 16.7542.2046 25.1314.0041.9339-.4022 1.8695-.6545 2.9616zm-1.3159-28.3744c-17.6548-4.7492-35.0256-9.422-52.5383-14.1329 0 8.2647.0593 16.1175-.0473 23.9681-.0229 1.6823.4633 2.3498 2.0888 2.6642 12.628 2.4429 25.0695 5.6084 37.3086 9.5905 4.288 1.395 8.7022 2.4023 13.1881 3.6217.0001-8.7949.0001-17.2344.0001-25.7116z" fill="#161405"/><path d="m137.4561 176.961c.3665.0511.7329.1023 1.099.1524.5654.4113 1.074 1.03 1.7054 1.2041 7.3426 2.0253 14.7005 3.9956 22.0608 5.9566 8.7893 2.3417 17.5846 4.66 26.593 7.0457v25.6938c-.9639-.2557-1.7476-.4478-2.5221-.6716-8.894-2.5716-17.7434-5.3119-26.6933-7.6713-7.1439-1.8833-14.4055-3.3234-21.6255-4.9112-1.18-.2595-1.7671-.6369-1.7527-2.0267.08-7.7751.0289-15.5518.1009-23.3271.0044-.4849.6743-.9633 1.0345-1.4447z" fill="#e5fbda"/><path d="m137.4561 176.961c-.3602.4814-1.0301.9598-1.0346 1.4446-.072 7.7753-.0209 15.552-.1009 23.3271-.0144 1.3898.5727 1.7672 1.7527 2.0267 7.2201 1.5878 14.4817 3.0279 21.6255 4.9112 8.9499 2.3594 17.7993 5.0996 26.6933 7.6713.7745.2238 1.5582.4159 2.5221.6716 0-8.7413 0-17.2372 0-25.6938-9.0083-2.3856-17.8037-4.7039-26.593-7.0457-7.3602-1.961-14.7182-3.9312-22.0608-5.9566-.6314-.1741-1.14-.7928-1.7054-1.2041 17.1099 2.311 33.3834 8.1769 50.1878 11.7829 1.2813.2751 1.9041.7875 1.9182 2.2137.0838 8.4485.2721 16.8958.3573 25.3441.0102 1.0129-.3894 2.0298-.6497 3.2911-5.3445-1.4767-10.5739-2.927-15.8062-4.3663-12.7493-3.5074-25.4939-7.0332-38.2584-10.4846-1.5791-.4269-1.996-1.0521-1.9676-2.7596.1447-8.7389.0669-17.4815.0669-26.2228.2477-.1042.4955-.2083.7433-.3126.7699.454 1.5398.9079 2.3095 1.3618z" fill="#0c1112"/><path d="m250.6566 168.148c5.5208 1.1246 10.784 2.016 15.9533 3.2881 10.1623 2.5009 20.2704 5.2223 30.4061 7.8322 2.5342.6526 5.1136 1.1436 7.6165 1.8944.6749.2024 1.6217 1.072 1.6382 1.6581.2456 8.6719.3775 17.3474.4644 26.0227.0092.9225-.4333 1.8496-.7357 3.0506-6.2741-1.7659-12.3607-3.5106-18.4651-5.1903-11.6728-3.2119-23.346-6.4231-35.0441-9.5406-1.8859-.5025-2.6022-1.2041-2.5225-3.3197.3101-8.2229.3616-16.4556.5219-24.6844.0081-.4135.1346-.8244.167-1.0111zm1.5495 1.2492c-.035.6452-.0867 1.1574-.0872 1.6697-.01 7.4031.0573 14.8073-.0687 22.2083-.0308 1.8064.5511 2.4325 2.2445 2.7732 5.5652 1.1196 11.1515 2.1998 16.6313 3.6631 9.3775 2.504 18.6782 5.2954 28.0172 7.9448 1.8464.5237 3.7198.9516 5.7603 1.4693 0-6.3886.015-12.5124-.0076-18.6359-.0085-2.3138.7632-5.3405-.3944-6.7465-1.2342-1.4988-4.3253-1.4809-6.613-2.0976-15.0574-4.0594-30.1167-8.1114-45.4824-12.2484z" fill="#150a07"/><path d="m57.4301 390.5315c-5.3487-.4488-10.6738-2.6377-13.5701-8.5698-2.4059-4.9275-1.7216-9.8503 1.4761-14.1902 2.8406-3.8552 6.8731-4.8376 11.5774-4.0415 8.0858 1.3685 12.6631 5.3246 13.849 12.3635 1.35 8.0125-4.28 14.5564-13.3324 14.438zm4.7566-22.2165c-2.3556-.8492-4.6909-1.7608-7.0725-2.5291-2.1672-.6991-4.1537-.0916-5.8329 1.3448-3.2564 2.7852-4.6125 6.4601-3.998 10.5981.6358 4.2824 3.1672 7.282 7.3979 8.6633 4.1192 2.1049 9.2379 1.7321 12.1508-.8852 5.2177-4.6883 3.8605-13.5087-2.6453-17.1919z" fill="#0c0605"/><path d="m279.7031 432.1604c-8.1115-.2036-14.7262-5.6969-15.5063-12.8738-.908-8.354 5.2649-15.6177 14.245-14.1568 6.6346 1.0793 11.1948 4.0365 13.3344 10.304 3.0092 8.8147-2.9612 16.9555-12.0731 16.7266zm-.1253-3.0561c7.5366.5551 12.2029-6.5655 9.0556-13.8099-2.1526-4.9547-6.367-6.8527-11.3207-7.6641-3.4532-1.0585-6.2171-.1435-8.287 2.9587-2.5225 3.7807-3.3365 7.8903-1.0805 12.0208 2.4597 4.5035 6.5252 6.5308 11.6326 6.4945z" fill="#0c0605"/><path d="m176.7735 428.0121c-.0826 6.5907-4.7004 11.4669-11.2802 11.913-12.1254.8223-20.3874-9.8016-15.7765-20.2867 2.1533-4.8967 6.9481-7.3438 12.2321-6.7072 4.2211.5086 8.0328 1.5786 10.965 4.8568 2.6094 2.9171 3.9642 6.2906 3.8596 10.2241zm-13.5269-12.0174c-4.346-1.7672-6.8822-1.2429-9.5584 1.9758-5.5744 6.7041-2.2906 16.2294 6.3529 18.4276.9314.2382 1.8501.5785 2.7966.6986 7.1212.9038 12.1992-4.6037 10.7858-11.6592-1.0214-5.0986-4.8931-8.6217-10.3769-9.4428z" fill="#0c0605"/><path d="m83.117 141.9636v25.7116c-4.4859-1.2195-8.9001-2.2267-13.1881-3.6217-12.2391-3.9821-24.6807-7.1476-37.3086-9.5905-1.6255-.3144-2.1117-.982-2.0888-2.6642.1066-7.8506.0473-15.7034.0473-23.9681 17.5126 4.7109 34.8834 9.3837 52.5382 14.1329z" fill="#e5fbda"/><path d="m252.2061 169.3972c15.3657 4.137 30.425 8.1889 45.4823 12.2483 2.2877.6167 5.3788.5988 6.613 2.0976 1.1577 1.4059.386 4.4327.3944 6.7465.0226 6.1235.0076 12.2473.0076 18.6359-2.0404-.5177-3.9139-.9456-5.7603-1.4693-9.339-2.6494-18.6397-5.4408-28.0172-7.9448-5.4799-1.4634-11.0661-2.5435-16.6313-3.6631-1.6934-.3407-2.2753-.9667-2.2445-2.7732.126-7.401.0587-14.8051.0687-22.2083.0006-.5122.0523-1.0243.0873-1.6696z" fill="#e5fbda"/><path d="m52.6812 386.3921c-4.2307-1.3812-6.7621-4.3809-7.3979-8.6633-.6145-4.138.7416-7.813 3.998-10.5981 1.6793-1.4364 3.6658-2.0439 5.8329-1.3448 2.3815.7683 4.7169 1.68 7.0725 2.5291-.1514 1.5475-.1936 3.1153-.4757 4.6386-.7027 3.7946-3.7578 5.9348-6.1019 8.6064-1.2231 1.3939-1.9674 3.2078-2.9279 4.8321z" fill="#b2b7bd"/><path d="m52.6812 386.3921c.9605-1.6242 1.7048-3.4382 2.9278-4.8321 2.3441-2.6715 5.3993-4.8117 6.1019-8.6064.2821-1.5233.3243-3.0911.4757-4.6386 6.5058 3.6832 7.8631 12.5036 2.6453 17.1919-2.9128 2.6172-8.0315 2.9901-12.1507.8852z" fill="#989da4"/><path d="m279.5778 429.1043c-5.1074.0363-9.1729-1.991-11.6326-6.4944-2.2561-4.1305-1.442-8.2401 1.0805-12.0208 2.0699-3.1023 4.8338-4.0172 8.287-2.9587 1.5952 1.9269 3.1899 3.8543 4.7856 5.7809 4.2786 5.1654 4.7496 8.3557-.0758 12.6343-.9623.8532-1.6372 2.0307-2.4447 3.0587z" fill="#b2b7bd"/><path d="m279.5778 429.1043c.8075-1.028 1.4824-2.2055 2.4447-3.0588 4.8254-4.2786 4.3544-7.4689.0758-12.6343-1.5957-1.9265-3.1905-3.8539-4.7856-5.7809 4.9537.8113 9.1681 2.7094 11.3207 7.6641 3.1473 7.2444-1.519 14.365-9.0556 13.8099z" fill="#989da4"/><path d="m160.041 436.3981c-8.6435-2.1982-11.9273-11.7235-6.3529-18.4276 2.6762-3.2187 5.2124-3.743 9.5584-1.9756.9646 2.8777 2.064 5.7188 2.8607 8.6422 1.0697 3.926-.0049 6.4626-3.2554 8.9464-1.0442.7978-1.8798 1.8686-2.8108 2.8146z" fill="#b2b7bd"/><path d="m160.041 436.3981c.931-.946 1.7666-2.0167 2.8108-2.8146 3.2505-2.4837 4.3251-5.0204 3.2554-8.9464-.7967-2.9235-1.8961-5.7645-2.8607-8.6422 5.4838.8209 9.3555 4.344 10.3768 9.4426 1.4134 7.0555-3.6647 12.563-10.7858 11.6592-.9464-.1201-1.865-.4604-2.7965-.6986z" fill="#989da4"/></g></svg>