<svg id="Слой_1" height="512" viewBox="0 0 512 512" width="512" xmlns="http://www.w3.org/2000/svg"><g id="_x31_"><ellipse cx="261.464" cy="468.164" fill="#c7d1ea" rx="120.307" ry="17.34"/><path d="m370.013 187.244c.185-3.197.663-7.138-.455-10.134-.102-.273-.375-.441-.666-.431-.555.018-1.462.03-2.001.128-1.027.21-2.151.605-3.189.756-2.634.561-4.281-3.08-2.201-4.706 4.291-4.58 13.129-5.263 15.477 1.495 1.884 4.657 1.569 9.526.597 14.272-.945 4.757-8.348 3.365-7.562-1.38z" fill="#f4ab8c"/><path d="m373.061 193.138c-.453 0-.905-.04-1.345-.12-3.029-.551-4.835-2.795-4.395-5.457.007-.042.016-.083.026-.124.688-2.607 1.525-7.238 1.08-9.399-.447.013-.992.036-1.296.092-.375.077-.795.191-1.218.304-.657.178-1.336.361-2.02.459-1.706.368-3.461-.543-4.272-2.281-.799-1.714-.41-3.605.966-4.743 2.861-3.002 7.369-4.463 11.247-3.639 3.091.656 5.368 2.674 6.414 5.682 1.697 4.191 1.903 8.831.643 14.982-.575 2.897-3.221 4.244-5.83 4.244zm-3.097-5.084c-.245 1.729 1.643 2.211 2.233 2.319 1.366.25 3.676-.077 4.06-2.01 1.148-5.609.986-9.773-.524-13.507-.952-2.735-2.946-3.677-4.457-3.998-2.973-.63-6.591.568-8.793 2.918-.047.051-.099.098-.153.14-.697.545-.348 1.394-.272 1.558.106.228.521.959 1.365.774.612-.092 1.185-.246 1.793-.409.477-.129.952-.256 1.408-.348.594-.108 1.365-.13 1.985-.148l.242-.007c.845-.018 1.664.494 1.967 1.303 1.202 3.224-.566 10.313-.854 11.415zm-1.026-10.032h-.006z" fill="#ce795f"/><path d="m393.555 175.741c-1.726 10.321-6.286 20.565-14.283 27.566-3.578 2.546-11.028 9.517-14.386 3.588-1.784-5.999 6.898-5.67 9.867-9.087 6.866-5.333 11.042-13.535 13.218-21.854.051-4.137 5.758-4.482 5.584-.213z" fill="#f4ab8c"/><path d="m389.396 169.86c-1.242 10.41-5.34 20.926-13.241 28.119-3.526 2.64-11.012 9.651-14.387 3.703-1.788-5.976 6.86-5.643 9.762-9.114 6.737-5.448 10.524-13.869 12.297-22.234-.141-4.133 5.542-4.744 5.569-.474z" fill="#f4ab8c"/><path d="m384.337 188.426c-.205 0-.413-.047-.608-.147-.662-.336-.925-1.146-.589-1.807 2.484-4.883 4.181-10.649 4.911-16.682-.03-1.033-.534-1.69-1.357-1.764-.938-.094-2.093.62-2.419 2.364-.136.73-.842 1.209-1.568 1.074-.73-.136-1.211-.838-1.075-1.568.605-3.242 3.12-4.744 5.3-4.548 1.882.168 3.789 1.625 3.807 4.502.001.056-.003.112-.009.168-.761 6.376-2.557 12.487-5.195 17.673-.237.466-.708.735-1.198.735z" fill="#ce795f"/><path d="m382.87 164.772c.577 10.378-1.736 21.505-8.794 29.496-3.198 3.045-10.108 10.588-13.939 4.93-.995-1.978-.086-4.416 1.957-5.264 11.122-4.566 15.345-17.594 15.378-28.801-.235-3.453 5.174-3.81 5.398-.361z" fill="#f4ab8c"/><path d="m380.471 184.529c-.148 0-.299-.024-.447-.077-.7-.247-1.067-1.014-.82-1.715 1.876-5.315 2.68-11.502 2.324-17.89-.031-.475-.232-.804-.613-.991-.488-.241-1.173-.195-1.625.108-.353.237-.509.59-.476 1.078-.009 4.282-.592 10.57-3.297 16.761-.298.68-1.091.987-1.77.694-.68-.298-.991-1.089-.694-1.77 1.967-4.5 3.058-10.04 3.075-15.598-.095-1.351.51-2.624 1.664-3.398 1.259-.845 2.951-.957 4.31-.287 1.246.614 2.015 1.795 2.108 3.241.376 6.752-.479 13.3-2.472 18.948-.195.551-.713.896-1.267.896z" fill="#ce795f"/><path d="m372.159 189.524c-2.222-.618-5.771-2.066-7.322-2.753-1.626-2.835-.565-9.553-5.299-9.689-1.666.168-2.725 1.783-2.39 3.39.125 1.687-.218 3.819-.122 5.89.077 3.871.456 11.646.456 11.646 2.926 14.952 12.136 12.185 17.253 8.531.001-.001 1.736-15.622-2.576-17.015z" fill="#f4ab8c"/><path d="m366.954 210.769c-.877 0-1.772-.117-2.664-.393-3.075-.952-5.405-3.539-6.925-7.69-.771-2.108-1.219-4.422-1.33-6.876-.133-2.941-.303-6.962-.352-9.421-.096-2.082.115-5.834.124-5.993.351-3.588 2.149-4.505 3.596-4.651.058-.006.115-.01.174-.006 4.275.124 5.014 4.175 5.553 7.133.19 1.044.386 2.119.696 2.865 1.107.477 2.715 1.129 4.203 1.672.042.015.083.032.124.052.143.069 3.514 1.746 4.15 6.596.096.736-.422 1.41-1.158 1.506-.738.1-1.41-.421-1.507-1.158-.409-3.116-2.281-4.313-2.617-4.503-1.737-.636-3.618-1.41-4.727-1.902-.261-.116-.479-.312-.621-.56-.647-1.126-.909-2.564-1.186-4.085-.594-3.257-1.079-4.824-2.898-4.925-.34.047-.914.262-1.101 2.173.001 0-.208 3.724-.117 5.698.05 2.466.218 6.463.351 9.388.099 2.18.492 4.223 1.169 6.074 1.216 3.322 2.964 5.356 5.195 6.046 3.5 1.088 7.37-1.291 8.871-2.363.604-.431 1.444-.29 1.875.313.431.604.291 1.443-.313 1.875-1.478 1.053-4.865 3.135-8.565 3.135z" fill="#ce795f"/><path d="m374.737 207.883c-.422 0-.839-.198-1.1-.57-.427-.608-.282-1.446.325-1.873 13.501-9.504 17.257-23.962 18.251-29.833.023-.912-.225-1.535-.638-1.596-.522-.084-1.498.531-1.897 2.086-.184.719-.919 1.15-1.636.968-.719-.185-1.152-.917-.968-1.636.779-3.036 3.058-4.344 4.892-4.078 1.427.21 3.051 1.5 2.93 4.445-.003.056-.008.111-.018.167-1.028 6.148-4.973 21.54-19.37 31.676-.233.164-.503.244-.771.244z" fill="#ce795f"/><path d="m300.655 396.242c-53.532 47.355-130.528 4.946-130.528-46.527 0-12.257 1.177-25.196 2.967-37.791 5.736-40.286 17.767-77.088 17.767-77.088l92.645-15.439 3.715-.618c0-.001 66.96 130.113 13.434 177.463z" fill="#e6ecff"/><path d="m170.352 354.552c.048 28.241 15.969 82.318 25.577 106.475h49.834v-50.235z" fill="#f7941f"/><path d="m173.096 313.267c-.063 0-.127-.004-.191-.013-.734-.105-1.245-.785-1.141-1.521 5.687-39.94 17.699-76.947 17.82-77.316.23-.705.99-1.096 1.695-.859.706.23 1.091.989.86 1.695-.12.367-12.061 37.16-17.714 76.86-.096.67-.671 1.154-1.329 1.154z" fill="#8196c9"/><path d="m307.001 363.303c.549 1.647 29.647 97.724 29.647 97.724h-53.254l-29.647-54.627z" fill="#f7941f"/><path d="m336.648 462.371h-53.254c-.493 0-.946-.27-1.181-.703l-29.647-54.626c-.309-.569-.168-1.278.336-1.685l53.255-43.098c.343-.278.8-.369 1.222-.246.423.124.759.448.898.866.548 1.646 28.469 93.835 29.657 97.759.124.407.046.848-.207 1.19-.253.341-.654.543-1.079.543zm-52.454-2.688h50.643c-3.618-11.945-24.738-81.671-28.534-94.085l-50.841 41.145z" fill="#a55a0f"/><path d="m283.393 461.027s18.688-15.098 35.559-19.49c15.306-3.985 28.049 1.746 30.281 20.473.389 3.26-1.983 6.154-5.09 6.154h-56.467c-2.365 0-4.283-2.028-4.283-4.529z" fill="#492727"/><path d="m288.98 218.778s31.551 38.124 45.842 21.786c14.292-16.338 22.187-36.552 22.187-36.552s6.071 6.301 19.387 3.464c0 0 9.209 100.342-62.537 91.534.001 0-23.918-59.882-24.879-80.232z" fill="#e6ecff"/><path d="m322.437 300.897c-2.818 0-5.732-.184-8.741-.554-.487-.06-.903-.38-1.085-.836-.98-2.453-24.013-60.325-24.974-80.666-.027-.578.318-1.108.857-1.318.543-.207 1.152-.049 1.521.397.208.251 21.006 25.168 35.724 25.369 3.283.015 5.909-1.138 8.072-3.61 13.957-15.956 21.862-36.771 21.94-36.98.162-.432.535-.751.987-.845.453-.089.921.052 1.241.386.245.25 6.24 6.199 18.59 3.571.378-.081.77.006 1.08.234.31.229.506.58.539.964.196 2.257 4.504 55.565-21.825 80.978-8.895 8.584-20.279 12.91-33.926 12.91zm-7.623-3.129c16.368 1.843 29.719-2.101 39.678-11.711 23.025-22.218 21.618-68.452 21.117-77.327-9.445 1.578-15.413-1.493-18.033-3.357-2.238 5.411-9.827 22.456-21.74 36.075-2.677 3.06-6.089 4.619-10.134 4.529-12.718-.174-28.591-16.131-34.954-23.139 3.129 21.396 21.505 68.442 24.066 74.93z" fill="#8196c9"/><path d="m300.655 396.242c-53.532 47.355-130.528 4.946-130.528-46.527 0-12.257 1.177-25.196 2.967-37.791 34.964-1.874 32.168-67.481 32.168-67.481l15.225-1.611s5.637 29.336 7.284 52.12c1.125 15.567 54.352 5.307 56.631-6.348 2.301-11.769-11.612-58.984-11.612-58.984l10.715-10.223 3.715-.618c.001-.001 66.961 130.113 13.435 177.463z" fill="#f7941f"/><path d="m247.808 418.184c-8.692 0-17.521-1.432-26.267-4.344-.704-.234-1.085-.995-.851-1.699.235-.704.995-1.085 1.7-.85 27.35 9.102 55.551 3.249 77.374-16.056 27.131-24 22.021-70.4 12.957-105.1-8.99-34.415-23.549-64.434-26.256-69.869l-2.331.388-9.823 9.371c1.714 5.844 11.717 40.544 12.084 55.585.26 10.658-21.053 17.438-35.54 18.664-14.278 1.212-23.406-2.203-24.414-9.128-2.866-19.684-6.304-44.896-7.111-50.841l-12.687 1.342c.216 9.386.088 64.568-32.37 67.538-1.861 13.378-2.804 25.663-2.804 36.53 0 .742-.602 1.344-1.344 1.344s-1.344-.602-1.344-1.344c0-11.283 1.003-24.062 2.982-37.981.09-.635.618-1.118 1.259-1.152 33.236-1.782 30.924-65.439 30.897-66.082-.03-.709.496-1.319 1.201-1.394l15.225-1.61c.723-.072 1.376.437 1.473 1.157.04.294 4.029 29.766 7.282 52.106.919 6.309 11.719 7.665 21.528 6.839 15.766-1.335 33.262-8.428 33.079-15.921-.384-15.746-12.088-55.276-12.206-55.674-.144-.483-.005-1.007.36-1.355l10.715-10.223c.195-.185.442-.309.707-.353l3.714-.619c.575-.095 1.148.192 1.415.71.168.326 16.924 33.102 26.895 71.252 13.286 50.828 8.525 88.116-13.765 107.835-15.581 13.785-34.315 20.934-53.734 20.934z" fill="#a55a0f"/><path d="m245.763 462.371h-49.833c-.55 0-1.045-.336-1.249-.848-9.102-22.885-25.849-82.717-25.898-111.806-.001-.742.6-1.345 1.342-1.346h.002c.741 0 1.343.601 1.344 1.342.048 28.42 16.269 86.657 25.374 109.97h47.575v-42.901c0-.742.602-1.344 1.344-1.344s1.344.602 1.344 1.344v44.246c-.001.741-.603 1.343-1.345 1.343z" fill="#a55a0f"/><path d="m248.909 461.58c0-.441-.042-.88-.132-1.312-.729-3.501-5.117-17.907-27.932-17.907-22.348 0-27.014 13.823-27.881 17.678-.127.566-.174 1.144-.147 1.724l.006.121c.163 3.514 3.06 6.28 6.578 6.28h42.924c3.636 0 6.584-2.948 6.584-6.584z" fill="#492727"/><path d="m344.144 469.509h-56.468c-3.102 0-5.626-2.635-5.626-5.874v-2.608c0-.406.184-.791.5-1.045.772-.624 19.109-15.331 36.065-19.745 8.705-2.266 16.288-1.43 21.926 2.417 5.591 3.815 8.964 10.274 10.028 19.198.24 2.014-.376 4.018-1.691 5.5-1.236 1.39-2.918 2.157-4.734 2.157zm-59.406-7.83v1.956c0 1.757 1.318 3.186 2.938 3.186h56.468c1.038 0 2.005-.445 2.723-1.254.806-.906 1.182-2.145 1.033-3.397-.968-8.118-3.954-13.937-8.874-17.295-4.98-3.397-11.803-4.101-19.734-2.038-14.893 3.877-31.489 16.45-34.554 18.842z" fill="#302121"/><path d="m242.324 469.509h-42.924c-4.245 0-7.724-3.321-7.92-7.562l-.006-.116c-.033-.716.028-1.416.179-2.086.987-4.393 6.012-18.728 29.192-18.728 24.075 0 28.587 15.808 29.247 18.976.106.512.16 1.045.16 1.587.001 4.372-3.557 7.929-7.928 7.929zm-21.479-25.804c-21.185 0-25.693 12.728-26.57 16.629-.098.438-.137.899-.116 1.368l.006.116c.13 2.807 2.429 5.003 5.235 5.003h42.923c2.89 0 5.241-2.351 5.241-5.241 0-.358-.035-.708-.104-1.039-.822-3.949-5.173-16.836-26.615-16.836z" fill="#302121"/><circle cx="211.85" cy="304.01" fill="#f2bf30" r="4.941"/><circle cx="299.642" cy="288.719" fill="#f2bf30" r="4.941"/><path d="m211.85 310.295c-3.466 0-6.285-2.82-6.285-6.285 0-3.466 2.82-6.285 6.285-6.285 3.466 0 6.285 2.82 6.285 6.285.001 3.466-2.819 6.285-6.285 6.285zm0-9.882c-1.984 0-3.597 1.613-3.597 3.597s1.613 3.597 3.597 3.597 3.597-1.613 3.597-3.597-1.613-3.597-3.597-3.597z" fill="#a55a0f"/><path d="m299.642 295.004c-3.466 0-6.285-2.82-6.285-6.285 0-3.466 2.82-6.285 6.285-6.285 3.466 0 6.285 2.82 6.285 6.285 0 3.466-2.819 6.285-6.285 6.285zm0-9.882c-1.984 0-3.597 1.613-3.597 3.597s1.613 3.597 3.597 3.597 3.597-1.613 3.597-3.597-1.613-3.597-3.597-3.597z" fill="#a55a0f"/><path d="m171.1 363.807s95.86 17.729 150.312-19.621c0 0 .662-5.894-.539-16.275 0 0-46.825 32.507-150.464 20.402 0 .001-.2 8.792.691 15.494z" fill="#db7712"/><path d="m223.192 369.259c-29.32 0-51.872-4.045-52.336-4.131-.591-.109-1.038-.597-1.094-1.195-.745-7.923-.697-15.553-.696-15.63.003-.382.168-.744.454-.997s.664-.366 1.046-.329c101.832 11.896 149.077-19.85 149.542-20.172.389-.267.89-.314 1.32-.119s.727.601.781 1.07c1.205 10.413.568 16.333.54 16.58-.044.388-.254.738-.575.958-28.123 19.29-67.464 23.965-98.982 23.965zm-50.846-6.601c10.317 1.72 97.297 14.898 147.781-19.222.112-1.579.322-6.214-.364-13.261-8.047 4.714-42.113 22.15-105.137 22.152-13.044.001-27.315-.745-42.868-2.505.023 2.427.129 7.489.588 12.836z" fill="#a55a0f"/><path d="m227.322 394.55-18.377.911c-3.48.173-6.442-2.509-6.614-5.989l-1.944-39.206c-.173-3.48 2.509-6.442 5.989-6.614l18.378-.911c3.48-.173 6.442 2.509 6.614 5.989l1.944 39.206c.171 3.48-2.51 6.442-5.99 6.614z" fill="#db7712"/><path d="m208.628 396.814c-4.049 0-7.438-3.189-7.641-7.276l-1.944-39.206c-.101-2.041.599-4.001 1.971-5.516s3.253-2.406 5.295-2.506l18.377-.912c4.214-.228 7.815 3.051 8.024 7.266l1.944 39.206c.101 2.041-.599 4.001-1.971 5.516s-3.253 2.406-5.295 2.506l-18.377.912c-.128.007-.256.01-.383.01zm16.439-52.738c-.082 0-.165.002-.248.006l-18.377.912c-1.325.066-2.544.643-3.435 1.626-.89.984-1.345 2.254-1.279 3.579l1.944 39.206c.136 2.734 2.466 4.809 5.206 4.714l18.377-.912h.001c1.324-.066 2.544-.643 3.434-1.626.89-.984 1.345-2.254 1.279-3.579l-1.944-39.206c-.132-2.651-2.332-4.72-4.958-4.72z" fill="#a55a0f"/><path d="m282.987 363.658-19.952 3.426c-3.007.516-5.864-1.503-6.38-4.51l-2.112-12.299c-.516-3.007 1.503-5.864 4.51-6.38l19.952-3.426c3.007-.516 5.864 1.503 6.38 4.51l2.112 12.299c.517 3.007-1.503 5.863-4.51 6.38z" fill="#f2bf30"/><path d="m265.854 362.861c-.93 0-1.835-.287-2.61-.834-.99-.7-1.648-1.743-1.853-2.939l-1.221-7.109c-.205-1.194.067-2.397.767-3.387s1.743-1.649 2.938-1.853l11.534-1.98c1.194-.206 2.397.067 3.387.766.99.7 1.648 1.743 1.853 2.938l1.221 7.11c.423 2.466-1.239 4.817-3.704 5.24l-11.534 1.98c-.26.046-.52.068-.778.068zm10.327-15.48c-.105 0-.211.009-.317.026l-11.535 1.98c-.487.084-.912.352-1.197.755-.286.404-.396.894-.313 1.382l1.221 7.109c.084.487.352.913.755 1.198.404.286.893.394 1.381.313l11.534-1.98c1.006-.173 1.683-1.131 1.511-2.137l-1.221-7.11c-.084-.486-.352-.912-.755-1.196-.316-.224-.685-.34-1.064-.34zm1.757 12.108h.011z" fill="#a55a0f"/><path d="m262.098 368.509c-3.282 0-6.193-2.366-6.767-5.709l-2.112-12.298c-.311-1.807.101-3.629 1.161-5.128 1.059-1.497 2.638-2.494 4.447-2.804l19.951-3.426c3.733-.642 7.292 1.875 7.933 5.607l2.112 12.299c.641 3.732-1.874 7.29-5.607 7.932l-19.952 3.426c-.392.068-.782.101-1.166.101zm17.844-26.777c-.234 0-.471.02-.71.061l-19.951 3.426c-1.101.189-2.062.795-2.707 1.707s-.896 2.021-.707 3.122l2.112 12.298c.391 2.272 2.56 3.801 4.829 3.414l19.951-3.426c2.272-.391 3.803-2.557 3.413-4.829l-2.112-12.299c-.348-2.034-2.121-3.474-4.118-3.474zm3.045 21.926h.011z" fill="#a55a0f"/><path d="m255.592 357.736c-.643 0-1.212-.464-1.323-1.119-.124-.732.368-1.426 1.1-1.55l15.427-2.616c.728-.118 1.425.369 1.549 1.1.124.732-.368 1.426-1.1 1.55l-15.427 2.616c-.075.012-.152.019-.226.019z" fill="#a55a0f"/><path d="m216.848 370.445c-12.981 0-17.582-19.062-17.772-19.874-.169-.722.28-1.445 1.003-1.613.716-.17 1.445.278 1.614 1.001.042.179 4.302 17.797 15.154 17.797 10.729 0 13.161-18.996 13.184-19.188.089-.738.756-1.265 1.496-1.173.737.089 1.261.759 1.173 1.495-.105.881-2.747 21.555-15.852 21.555z" fill="#a55a0f"/><path d="m308.93 352.831c-.002 0-.004 0-.007 0-.742-.003-1.341-.609-1.338-1.351.044-9.21-2.42-15.654-2.445-15.718-.268-.691.073-1.471.764-1.74.691-.27 1.47.072 1.74.762.109.279 2.676 6.955 2.629 16.709-.003.74-.604 1.338-1.343 1.338z" fill="#a55a0f"/><path d="m217.472 374.886c-.698 0-1.287-.54-1.339-1.247l-.626-8.646c-.053-.74.503-1.384 1.243-1.438.729-.046 1.384.504 1.437 1.244l.626 8.646c.053.74-.503 1.384-1.243 1.438-.032.002-.064.003-.098.003z" fill="#a55a0f"/><path d="m164.606 321.746c8.244 4.178 17.362 6.83 26.593 7.514 3.456.208 3.457 5.566.028 5.794-3.831.403-7.762.479-11.614.254-6.775-.475-13.569-1.538-20.024-3.725-7.682-2.948-1.889-14.331 5.017-9.837z" fill="#f4ab8c"/><path d="m166.413 328.445c8.244 4.177 17.362 6.829 26.593 7.514 3.456.208 3.457 5.566.028 5.794-3.831.403-7.762.479-11.614.254-6.775-.475-13.569-1.538-20.024-3.725-7.682-2.948-1.889-14.331 5.017-9.837z" fill="#f4ab8c"/><path d="m167.07 330.892c6.627 6.134 15.143 10.393 24.108 11.697 3.422.485 2.993 5.817-.437 5.77-3.983.116-8.015-.262-11.918-1.119-7.19-1.691-14.279-4.516-20.223-8.981-7.242-5.784 3.743-15.345 8.47-7.367z" fill="#f4ab8c"/><path d="m162.554 336.654c6.627 6.134 15.144 10.393 24.108 11.697 3.422.485 2.993 5.817-.437 5.77-3.983.116-8.015-.262-11.918-1.119-7.19-1.691-16.992-6.406-22.936-10.871-7.242-5.785 6.456-13.455 11.183-5.477z" fill="#f4ab8c"/><path d="m185.089 336.787c-1.059 0-2.202-.035-3.574-.108-3.322-.175-7.566-1.263-7.745-1.309-.719-.185-1.151-.919-.965-1.636.184-.719.915-1.152 1.637-.966.041.011 4.165 1.066 7.215 1.227 3.875.203 5.753.11 9.43-.277 1.306-.088 1.365-1.32 1.365-1.566-.001-.246-.069-1.474-1.333-1.55-10.632-.787-19.497-3.047-27.12-6.909-.662-.335-.927-1.143-.591-1.806.335-.662 1.143-.928 1.806-.591 7.299 3.698 15.832 5.865 26.085 6.625 2.507.151 3.834 2.24 3.841 4.223.006 1.986-1.305 4.084-3.822 4.252-2.455.257-4.184.391-6.229.391z" fill="#ce795f"/><path d="m185.525 343.571c-1.422 0-2.849-.067-4.26-.23-5.179-.602-8.823-1.696-8.975-1.742-.71-.215-1.111-.965-.896-1.675.215-.711.967-1.112 1.675-.896.035.01 3.582 1.072 8.506 1.643 3.716.433 7.636.132 11.318-.255 1.306-.087 1.365-1.319 1.365-1.565-.001-.246-.069-1.475-1.333-1.55-1.839-.137-3.687-.35-5.514-.636-.733-.115-1.235-.803-1.12-1.536s.795-1.234 1.535-1.119c1.755.275 3.531.48 5.278.61 2.506.15 3.834 2.238 3.841 4.223.006 1.986-1.305 4.084-3.823 4.251-2.44.257-5.011.477-7.597.477z" fill="#ce795f"/><path d="m189.299 349.723c-3.59 0-7.218-.393-10.764-1.171-2.907-.684-5.682-1.522-8.269-2.498-.694-.261-1.045-1.037-.783-1.731.262-.695 1.04-1.045 1.732-.783 2.478.934 5.142 1.739 7.917 2.392 3.782.829 7.68 1.193 11.572 1.084h.026c1.286 0 1.442-1.205 1.461-1.449s.05-1.471-1.2-1.647c-.899-.131-1.792-.29-2.662-.473-.726-.153-1.191-.867-1.038-1.592.153-.726.864-1.183 1.592-1.039.814.172 1.652.321 2.49.443 2.496.354 3.65 2.54 3.497 4.516-.153 1.978-1.609 4.003-4.146 3.929-.475.013-.95.019-1.425.019z" fill="#ce795f"/><path d="m184.773 355.486c-3.588 0-7.211-.394-10.754-1.172-7.567-1.779-17.335-7.343-23.218-11.762-.593-.445-.713-1.288-.267-1.881s1.287-.715 1.882-.267c5.666 4.255 15.03 9.604 22.2 11.29 3.782.83 7.686 1.2 11.571 1.084 1.264.03 1.468-1.204 1.487-1.449.019-.244.05-1.471-1.2-1.647-.735-.105-1.246-.785-1.142-1.52s.782-1.248 1.519-1.142c2.501.355 3.655 2.541 3.503 4.517-.153 1.978-1.648 4.015-4.146 3.929-.478.012-.956.02-1.435.02z" fill="#ce795f"/><path d="m173.535 233.834s-46.05 21.223-53.736 52.333c-9.271 37.525 31.572 55.964 31.572 55.964s4.298-13.278 16.869-19.237c0 0-11.043-8.636-11.043-19.342s30.57-27.542 30.57-27.542l5.141-34.588z" fill="#e6ecff"/><path d="m151.37 343.474c-.189 0-.377-.039-.552-.118-.418-.19-41.754-19.341-32.324-57.511 7.752-31.378 52.574-52.355 54.478-53.232.676-.31 1.473-.014 1.783.658.311.674.017 1.472-.657 1.783-.455.21-45.553 21.317-52.994 51.435-7.966 32.245 22.776 50.253 29.536 53.776 1.441-3.5 5.867-12.43 15.219-17.655-3.163-2.913-10.005-10.235-10.005-19.058 0-11.178 28.066-26.956 31.266-28.72.649-.354 1.467-.12 1.826.529.358.651.121 1.468-.529 1.826-8.309 4.577-29.874 18.236-29.874 26.364 0 9.936 10.422 18.2 10.527 18.283.367.287.559.743.508 1.206-.052.463-.339.867-.76 1.066-11.874 5.629-16.125 18.311-16.167 18.439-.118.363-.386.658-.735.813-.174.079-.36.116-.546.116z" fill="#8196c9"/><path d="m141.661 337.685c-.101 0-.203-.011-.305-.035-.723-.168-1.173-.89-1.005-1.613 4.187-18.025 19.118-23.026 19.751-23.23.705-.227 1.463.161 1.691.867s-.16 1.462-.865 1.69c-.159.053-14.13 4.796-17.96 21.282-.143.62-.696 1.039-1.307 1.039z" fill="#8196c9"/><path d="m306.064 141.669c-3.419-5.085-29.636-79.706-95.069-65.93-65.598 13.811-62.738 107.844-58.854 121.854 25.337 103.222 210.857 41.967 153.923-55.924z" fill="#f4ab8c"/><path d="m224.668 252.461c-5.983 0-11.923-.528-17.719-1.629-29.167-5.534-49.096-24.329-56.113-52.918-2.543-9.171-5.217-57.234 15.497-91.291 10.578-17.393 25.511-28.227 44.386-32.201 25.286-5.32 47.781 1.641 66.857 20.699 15.207 15.192 24.028 34.065 27.794 42.125.839 1.795 1.501 3.213 1.811 3.673.016.024.031.049.046.074 14.75 25.361 14.545 51.098-.577 72.47-16.867 23.839-49.957 38.998-81.982 38.998zm2.166-177.09c-5.045 0-10.231.56-15.562 1.683-18.119 3.814-32.466 14.232-42.643 30.966-20.267 33.323-17.683 80.234-15.193 89.214 6.762 27.547 25.941 45.631 54.014 50.958 35.854 6.806 77.556-8.794 97.005-36.281 10.239-14.471 18.628-38.279.467-69.531-.424-.646-1.018-1.918-1.989-3.995-19.574-41.886-45.125-63.014-76.099-63.014z" fill="#ce795f"/><path d="m255.154 183.441c6.12 7.631 17.265 8.858 24.899 2.737 2.748-2.204 5.001-5.605 6.461-9.409 1.37-5.803.86-11.919-2.432-15.87-4.639-5.57-19.701-4.771-27.335 1.349-2.326 1.865-4.054 4.196-5.164 6.752-.951 4.926.186 10.22 3.571 14.441z" fill="#fffffd"/><ellipse cx="268.588" cy="173.613" fill="#22213f" rx="12.436" ry="12.231" transform="matrix(.979 -.206 .206 .979 -30.006 59.058)"/><ellipse cx="204.11" cy="155.901" fill="#22213f" rx="10.21" ry="3.916" transform="matrix(.905 -.426 .426 .905 -46.95 101.724)"/><path d="m261.463 133.683c.079 2.161-4.425 4.081-10.06 4.288-5.635.206-10.268-1.378-10.347-3.54-.079-2.161 4.425-4.081 10.06-4.288 5.635-.206 10.268 1.379 10.347 3.54z" fill="#22213f"/><path d="m198.004 162.853c-2.929 0-3.979-1.245-4.35-2.033-1.47-3.125 3.02-7.235 8.216-9.679 2.613-1.23 5.275-1.996 7.495-2.159 3.574-.265 4.795 1.139 5.2 2 1.47 3.125-3.02 7.235-8.216 9.679-2.613 1.23-5.275 1.996-7.495 2.159-.299.022-.583.033-.85.033zm12.23-11.217c-.203 0-.427.008-.672.025-1.872.138-4.259.835-6.548 1.912-5.211 2.451-7.246 5.427-6.928 6.102.077.164.718.603 2.57.465 1.872-.138 4.259-.835 6.547-1.912 5.212-2.451 7.246-5.426 6.928-6.102-.066-.142-.555-.49-1.897-.49z" fill="#151533"/><path d="m250.421 139.333c-2.505 0-4.856-.339-6.71-.973-3.397-1.162-3.963-2.93-3.998-3.88-.127-3.449 5.615-5.469 11.353-5.68 5.737-.216 11.612 1.383 11.739 4.833s-5.615 5.47-11.353 5.681c-.346.012-.69.019-1.031.019zm1.707-7.865c-.313 0-.633.006-.963.018-5.756.212-8.793 2.15-8.766 2.896.007.182.422.834 2.182 1.436 1.777.609 4.248.903 6.773.81 5.756-.212 8.793-2.15 8.766-2.896-.026-.703-2.847-2.264-7.992-2.264z" fill="#151533"/><path d="m245.674 193.161c.639 3.037-2.24 6.213-6.431 7.096-4.191.882-8.107-.864-8.746-3.901s.068-16.059 4.259-16.941 10.279 10.71 10.918 13.746z" fill="#dd8c6f"/><path d="m237.11 201.826c-3.936 0-7.268-2.061-7.927-5.193-.551-2.616-.336-17.346 5.297-18.533 2.431-.512 5.182 1.497 8.184 5.97 2.253 3.357 3.969 7.117 4.326 8.814.401 1.901-.211 3.867-1.723 5.536-1.403 1.548-3.444 2.667-5.746 3.153-.817.17-1.626.253-2.411.253zm-1.891-21.113c-.067 0-.129.007-.186.019-2.747.578-3.902 12.106-3.22 15.348.477 2.267 3.754 3.578 7.154 2.861 1.752-.368 3.282-1.195 4.308-2.327.917-1.012 1.302-2.14 1.084-3.177-.253-1.202-1.797-4.695-3.928-7.87-2.421-3.607-4.27-4.854-5.212-4.854z" fill="#ce795f"/><path d="m300.695 86.697c-8.015-18.392-26.559-29.847-48.022-23.142.826-7.359 3.384-11.987 3.384-11.987-6.71 3.44-10.645 8.479-12.492 11.382-7.822-5.822-28.672-18.327-58.147-13.197 0 0 7.176 3.293 12.161 9.522 0 0-19.283-8.322-53.073 17.353 0 0 4.708 6.38 11 8.61 0 0-36.964 38.11-4.954 98.332 0 0 8.797-15.753 17.586-39.078 31.106-13.979 59.096-38.221 59.096-38.221-8.388 13.169-27.458 28.513-27.458 28.513 44.4-6.679 57.843-39.988 57.843-39.988s19.443 30.342 52.978 55.702c-.001-.001-1.11-43.626-9.902-63.801z" fill="#22213f"/><path d="m150.551 184.914c-.004 0-.009 0-.014 0-.492-.006-.942-.279-1.173-.713-16.752-31.516-14.48-56.971-9.624-72.776 4.167-13.562 10.746-22.376 13.516-25.675-5.665-2.739-9.649-8.076-9.832-8.324-.437-.592-.317-1.424.268-1.868 24.934-18.945 42.11-19.715 49.831-18.642-4.184-3.848-8.612-5.917-8.667-5.942-.534-.246-.847-.81-.771-1.394.076-.583.522-1.05 1.102-1.151 28.709-4.996 49.452 6.525 58.039 12.614 2.109-3 6.037-7.501 12.218-10.671.525-.27 1.164-.164 1.576.26.411.423.498 1.066.214 1.585-.022.04-1.984 3.668-2.946 9.477 19.936-5.24 38.893 4.401 47.639 24.468 8.796 20.184 9.967 62.511 10.012 64.302.013.516-.271.994-.73 1.23-.459.235-1.013.186-1.424-.124-28.459-21.521-47.024-46.916-51.973-54.082-3.983 7.635-19.866 32.913-57.838 38.625-.603.093-1.187-.234-1.431-.788-.244-.556-.085-1.206.388-1.588.146-.117 11.436-9.246 20.323-19.313-10.686 8.246-29.757 21.858-50.058 31.064-8.661 22.87-17.386 38.581-17.474 38.738-.236.424-.685.688-1.171.688zm-4.122-108.052c1.571 1.825 5.183 5.57 9.525 7.108.431.153.754.515.859.959.105.445-.024.914-.342 1.243-.091.094-9.136 9.58-14.202 26.174-4.554 14.917-6.708 38.75 8.301 68.346 2.693-5.123 9.538-18.703 16.31-36.674.126-.334.38-.605.707-.752 30.56-13.733 58.488-37.771 58.767-38.011.504-.439 1.253-.437 1.758-.002.505.437.614 1.177.255 1.74-6.173 9.692-17.811 20.351-23.876 25.587 39.198-8.083 51.755-37.975 51.882-38.288.189-.465.622-.787 1.122-.834.493-.043.984.19 1.255.612.189.294 18.824 29.069 50.397 53.623-.428-9.978-2.382-43.703-9.685-60.458-7.042-16.162-24.118-29.356-46.389-22.397-.436.138-.906.044-1.256-.246-.351-.289-.531-.735-.48-1.186.397-3.536 1.177-6.46 1.905-8.587-4.442 3.075-7.183 6.713-8.544 8.852-.201.315-.523.533-.89.601-.37.064-.747-.022-1.046-.244-7.159-5.328-26.246-16.902-53.249-13.53 2.612 1.642 6.201 4.298 9.114 7.938.385.481.394 1.163.019 1.654-.374.491-1.034.662-1.601.419-.18-.075-18.668-7.433-50.616 16.353z" fill="#151533"/><path d="m259.555 173.894c.371 1.764-.758 3.495-2.522 3.867-1.764.371-3.495-.758-3.867-2.522-.371-1.764.758-3.495 2.522-3.867 1.764-.371 3.495.758 3.867 2.522z" fill="#fffffd"/><path d="m132.042 145.541c.655 3.103 4.579 4.115 6.625 1.692 10.747-12.736 40.485-43.623 83.441-53.769 40.026-9.453 70.863 7.076 84.487 16.588 2.862 1.998 6.7-.55 5.971-3.963-5.342-25.008-26.284-87.663-100.989-76.859-80.697 11.669-85.537 87.884-79.535 116.311z" fill="#f2bf30"/><path d="m135.789 149.925c-.42 0-.845-.052-1.267-.159-1.929-.485-3.384-1.998-3.795-3.948-3.245-15.37-4.065-52.053 16.057-80.87 14.279-20.449 36.014-32.915 64.6-37.049 32.676-4.724 58.823 3.835 77.71 25.446 15.636 17.892 22.241 40.549 24.786 52.463.448 2.098-.42 4.222-2.21 5.411-1.79 1.19-4.083 1.164-5.844-.065-14.422-10.068-44.44-25.589-83.409-16.382-42.522 10.042-72.015 40.639-82.722 53.327-.995 1.178-2.419 1.826-3.906 1.826zm-2.432-4.662c.201.952.882 1.661 1.821 1.897.923.234 1.845-.063 2.462-.794 10.879-12.893 40.856-43.983 84.159-54.209 39.992-9.445 70.775 6.466 85.565 16.794 1.03.718 2.132.486 2.819.029.688-.457 1.33-1.382 1.068-2.609-5.62-26.307-26.572-86.362-99.482-75.811-27.821 4.024-48.944 16.113-62.781 35.929-19.595 28.06-18.793 63.798-15.631 78.774z" fill="#e29700"/><path d="m193.838 96.117s-3.309-33.908-2.805-62.064c0 0 11.465-8.122 29.455-5.786 0 0 16.194 23.743 29.582 57.098z" fill="#edac0a"/><path d="m193.838 97.461c-.288 0-.571-.093-.805-.268-.303-.226-.496-.57-.533-.946-.033-.34-3.311-34.307-2.811-62.219.008-.427.218-.825.567-1.073.486-.343 12.099-8.396 30.405-6.022.38.05.721.259.937.576.163.239 16.43 24.247 29.719 57.354.149.373.125.793-.068 1.145-.192.353-.533.601-.927.676l-56.232 10.753c-.083.017-.168.024-.252.024zm-1.474-62.669c-.377 24.312 2.063 52.987 2.675 59.727l53.171-10.168c-12.001-29.447-26.154-51.291-28.499-54.827-14.768-1.732-24.928 3.783-27.347 5.268z" fill="#e29700"/><path d="m312.267 104.731c-7.573-5.064-50.816-27.938-96.616-16.446s-78.869 51.137-83.609 57.256c-4.313 5.568.208 12.438 7.342 7.905 1.397-.887 35.884-40.879 82.06-50.375 47.573-9.783 86.867 11.584 86.867 11.584 1.972.814 3.443 1.33 4.343 1.401 6.988.55 7.804-5.847-.387-11.325z" fill="#edac0a"/><path d="m135.003 156.269c-1.912 0-3.42-.802-4.399-1.876-2.265-2.487-2.112-6.466.375-9.675 1.436-1.854 35.726-45.538 84.344-57.737 43.222-10.844 86.083 8.87 97.69 16.632 4.944 3.307 7.331 7.336 6.227 10.515-.802 2.312-3.297 3.541-6.691 3.267-.983-.077-2.359-.511-4.751-1.497-.044-.019-.087-.04-.129-.062-.389-.212-39.439-21.013-85.955-11.448-18.622 3.829-47.582 15.342-79.802 48.446-1.234 1.268-1.535 1.574-1.808 1.747-1.9 1.207-3.622 1.688-5.101 1.688zm106.964-69.796c-8.468 0-17.22.915-25.989 3.115-47.727 11.976-81.461 54.953-82.873 56.775-1.951 2.519-1.633 4.99-.513 6.219 1.295 1.422 3.566 1.32 6.072-.271.076-.071.681-.694 1.323-1.352 32.696-33.592 62.197-45.299 81.187-49.204 46.573-9.574 85.818 10.682 87.712 11.683.791.326 2.939 1.204 3.875 1.278 2.097.16 3.566-.385 3.942-1.469.534-1.538-.86-4.51-5.182-7.4-8.997-6.015-37.194-19.374-69.554-19.374z" fill="#e29700"/><path d="m332.202 160.382c-1.761 8.627-8.833 16.501-15.303 15.18s-9.888-11.338-8.127-19.964c1.761-8.627 8.035-12.596 14.505-11.276 6.47 1.322 10.686 7.433 8.925 16.06z" fill="#f4ab8c"/><path d="m317.357 177.189c-.562 0-1.117-.054-1.661-.165-.727-.149-1.196-.858-1.048-1.586s.856-1.199 1.586-1.048c5.473 1.115 13.006-6.22 14.651-14.278 1.508-7.387-1.658-13.204-7.877-14.474-6.216-1.267-11.411 2.841-12.92 10.229-.148.727-.856 1.196-1.586 1.048-.727-.149-1.196-.858-1.048-1.586 1.802-8.823 8.419-13.886 16.091-12.324 7.673 1.567 11.773 8.823 9.972 17.645-1.824 8.944-9.478 16.538-16.16 16.539z" fill="#ce795f"/><path d="m135.433 201.808c5.09 7.184 14.736 11.539 20.124 7.722s4.478-14.362-.612-21.546-12.432-8.287-17.82-4.47c-5.389 3.817-6.782 11.11-1.692 18.294z" fill="#f4ab8c"/><g fill="#ce795f"><path d="m152.451 212.194c-6.4 0-14.301-4.227-18.115-9.609-2.622-3.701-3.77-7.625-3.321-11.348.428-3.556 2.322-6.688 5.333-8.82 3.01-2.134 6.595-2.881 10.089-2.106 3.661.81 6.983 3.196 9.604 6.895.429.606.286 1.445-.32 1.873-.608.43-1.445.286-1.873-.319-2.23-3.147-4.993-5.162-7.992-5.826-2.746-.612-5.571-.014-7.954 1.674-2.383 1.689-3.881 4.157-4.218 6.95-.368 3.049.616 6.325 2.845 9.471 4.776 6.741 15.573 10.632 20.269 7.305.606-.432 1.444-.287 1.873.319s.286 1.445-.32 1.873c-1.627 1.156-3.672 1.668-5.9 1.668z"/><path d="m314.607 166.739c-.742 0-1.343-.601-1.344-1.343 0-.371.036-9.114 3.949-12.957 3.427-3.368 7.943-1.851 9.853-.579.618.411.785 1.246.373 1.864-.41.619-1.245.786-1.864.373-.148-.097-3.761-2.409-6.479.259-2.586 2.541-3.147 8.829-3.144 11.038.001.742-.6 1.344-1.343 1.345 0 0 0 0-.001 0z"/><path d="m315.201 161.236c-.284 0-.57-.089-.813-.276-.591-.449-.705-1.292-.255-1.883 1.562-2.05 3.375-3.165 5.39-3.315 3.074-.227 5.391 1.975 5.487 2.07.533.518.544 1.368.026 1.901-.516.529-1.362.541-1.896.031-.036-.034-1.576-1.451-3.438-1.32-1.207.097-2.362.858-3.432 2.263-.264.346-.664.529-1.069.529z"/><path d="m153.584 200.573c-.511 0-1-.293-1.225-.788-.915-2.014-4.034-7.51-7.429-8.749-3.618-1.317-5.91 2.29-6.006 2.446-.393.63-1.222.824-1.851.431-.63-.391-.824-1.221-.432-1.851 1.212-1.947 4.695-5.199 9.209-3.551 5.153 1.88 8.804 9.826 8.957 10.164.307.676.007 1.471-.669 1.778-.18.082-.369.12-.554.12z"/><path d="m142.234 198.477c-.165 0-.332-.03-.493-.095-.688-.272-1.026-1.045-.757-1.735.049-.126 1.236-3.088 4.139-4.155 1.894-.7 4.008-.432 6.278.786.654.352.899 1.167.547 1.821-.351.655-1.167.896-1.82.548-1.554-.837-2.92-1.053-4.06-.64-1.764.638-2.576 2.606-2.584 2.626-.212.524-.717.844-1.25.844z"/><path d="m268.991 191.408c-5.588 0-11.127-2.439-14.886-7.127-1.612-2.009-2.781-4.275-3.475-6.735-1.685-5.971.356-12.363 5.2-16.285 8.361-6.703 24.194-7.335 29.284-1.222 2.049 2.46 3.234 5.817 3.426 9.709.241 4.911-1.237 9.807-4.161 13.787-1.062 1.446-2.235 2.687-3.484 3.691-3.51 2.814-7.721 4.182-11.904 4.182zm4.073-32.913c-5.405 0-11.56 1.661-15.478 4.802-4.072 3.297-5.762 8.582-4.369 13.518.595 2.111 1.6 4.057 2.985 5.784.001 0 .001 0 .001.001 5.644 7.037 15.968 8.175 23.01 2.53 1.067-.857 2.077-1.929 3.001-3.187 2.559-3.482 3.853-7.766 3.642-12.062-.163-3.305-1.133-6.113-2.806-8.121-1.839-2.207-5.674-3.265-9.986-3.265z"/></g><path d="m234.561 221.388c-13.254 0-19.964-10.502-20.053-10.646-.391-.631-.196-1.46.434-1.85.632-.391 1.458-.196 1.85.434.456.73 11.136 17.238 33.142 4.755.645-.367 1.465-.14 1.832.506.366.645.14 1.465-.506 1.832-6.397 3.628-11.966 4.969-16.699 4.969z" fill="#151533"/><path d="m181.978 193.398c-.45 0-.89-.226-1.144-.637-.39-.632-.195-1.46.436-1.85 10.909-6.745 24.058-6.352 30.582-5.595-2.184-1.999-4.205-3.406-4.234-3.426-.61-.422-.763-1.259-.341-1.869.423-.611 1.26-.763 1.87-.342.179.125 4.422 3.074 7.5 6.72.371.44.421 1.067.123 1.56s-.876.742-1.439.619c-.186-.04-18.746-3.976-32.647 4.62-.22.135-.464.2-.706.2z" fill="#22213f"/><path d="m369.387 221.306c-10.83 0-17.518-6.686-17.859-7.035-.519-.53-.509-1.382.022-1.901.529-.517 1.38-.511 1.899.021.391.397 9.391 9.301 23.341 5.1.715-.211 1.46.189 1.674.9.214.71-.189 1.46-.899 1.674-2.931.881-5.666 1.241-8.178 1.241z" fill="#8196c9"/><path d="m349.101 462.371h-65.707c-.742 0-1.344-.602-1.344-1.344s.602-1.344 1.344-1.344h65.707c.742 0 1.344.602 1.344 1.344s-.602 1.344-1.344 1.344z" fill="#302121"/><path d="m321.401 456.606c-.039 0-.078-.002-.118-.006-.739-.064-1.287-.716-1.222-1.454.955-11.002 9.366-15.658 9.724-15.851.653-.351 1.469-.108 1.821.545s.109 1.467-.541 1.819c-.306.168-7.499 4.203-8.326 13.719-.061.7-.648 1.228-1.338 1.228z" fill="#302121"/><path d="m308.389 456.606c-.05 0-.101-.003-.152-.009-.738-.083-1.268-.749-1.185-1.486.919-8.143 7.976-13.593 8.276-13.82.591-.449 1.431-.334 1.881.256s.336 1.432-.253 1.882c-.064.05-6.445 5.001-7.233 11.984-.078.686-.659 1.193-1.334 1.193z" fill="#302121"/><path d="m248.909 463.108h-56.092c-.742 0-1.344-.602-1.344-1.344s.602-1.344 1.344-1.344h56.092c.742 0 1.344.602 1.344 1.344s-.602 1.344-1.344 1.344z" fill="#302121"/></g></svg>