<svg id="Layer_1" enable-background="new 0 0 55 55" viewBox="0 0 55 55" xmlns="http://www.w3.org/2000/svg"><g id="_x33_4"><g><path d="m41.0385857 40.8746109c1.675087-1.5565491 3.4107361-3.1891403 4.0667648-5.4178276.5382576.8129768 1.076519 1.6259499 1.6147804 2.4389267-1.2520599 2.0800819-1.8749924 4.5809937-3.6019173 5.6345062-.8265266.5042267-1.8233528.6240501-2.7854614.7323837" fill="#19345d"/></g><g><path d="m29.180397 9.3422203c-.3773346.5030909-.9719162.7889366-1.5778732.937582-3.3264141.8317623-3.782568-2.9346986-.4002247-4.9279766.3957863.0465965.5871639.4654927.731781.754602 0 .0567884.2000561.3887825.5602455 1.4178529.1000004.2856159.338253 1.0189066.3544464 1.326293.011446.011445.011446.0343351.011446.0457106.0114441.1944256.0343342.3658905.0114441.5603161z" fill="#19345d"/></g><g><path d="m29.180397 9.3422203c-.3773346.5030909-.9719162.7889366-1.5778732.937582-3.3264141.8317623-3.782568-2.9346986-.4002247-4.9279766.3957863.0465965.5871639.4654927.731781.754602-.2972908.011445-.5945816.1715355-.8118267.377336-.3904991.372838-.7317123 1.1827822-.7317123 1.6235838 0 .6617527.4108524.9349117 1.0747833.9604721.490572.0272818 1.0172768-.0705986 1.3834476-.2172461.011446.011445.011446.0343351.011446.0457106.0114441.1944256.0343342.3658905.0114441.5603161z"/></g><g><path d="m40.225441 49.3148994c-.1486435.1143112-.2972908.2286911-.4687538.3201103-.1486473.0800476-.2972908.1029358-.4344902.2058029-.4726906.3781738-.5903358.7582703-1.2006073 1.0634041-.5723724.3012695-1.3214874.3660049-1.955143.4687576-.8548355.119278-1.8377037.298687-2.4925652-.2743988-.2325401-.1938667-.55933-.5309525-.6402893-.8346481-.1693497-.6493149.2940826-2.1100731-.2401352-2.789856-.0821915-.0959053-2.9529705-3.8218651-3.0299931-3.9218636-.7431564-.9604034-1.4863834-1.9208755-2.2295399-2.881279-1.5645809-2.0408058-7.0414963-9.1333466-7.3176765-9.4900608-.2451839-.3162537-9.694417-12.5407581-10.0388622-13.0002537-.1029358-.7889366-.2401361-1.5778732-.1600904-2.3668098.1555595-1.6148529.4659977-3.2474766 1.5092735-4.5163755.8298111-1.0602674.9843235-.8321924 1.5892487-.7889366 11.9725142 1.1117554 20.7221413-1.0996389 21.1754646-1.0633373.2515831.011445.537426.1486454.7774925.2286901 1.6235847.5144663 2.9728394 1.6692944 3.7845955 3.1328573 1.2685051 2.2830782 1.1890869 5.5841208 1.2805824 8.1980333.4027557 10.7715225 1.4655876 16.037981 1.8180084 23.4736767.1089907 2.0058709.0010577 3.5652734-1.7265195 4.8364869z" fill="#095da4"/></g><g><path d="m33.9389343 11.6872139c-.4067535.7884159.1971169 1.7217159.4180679 2.3872805.3432732 1.0340214.2341766 1.9415693.1129036 5.6259394-.0095863.2912178-.1730003.3248081-.334465.188509-.308918-.2607727-.374733-.7033215-.4197044-1.1050816-.6893272-6.1582842-.8116646-6.5807409-.5715866-7.3591814.1820374-.5902491.6820869-1.1287336 1.2992821-1.1532927"/></g><g><path d="m38.1215897 50.9042168c-.5723724.3012695-1.3214874.3660049-1.955143.4687576-1.2382584.1727753-2.0610237.3191109-2.8698997-.6517372.0457115-.7660446.4459343-1.4978256.7432251-2.2296104 1.025959-2.4129219.8774376-4.6089325 1.0518951-4.8707504.0571556-.0800438.171463-.1029358.2401352-.0457802.0390472.0587502.0023651-.0452232.3086662 1.6007652.0343323.2286911.0571556.4802017.1257553.708889.0457802.1257553.125824.2400665.1600876.3773384.4328232 1.5342598.870079 3.7581253 2.1952782 4.642128z" fill="#19345d"/></g><g><path d="m35.8005562 49.2577438c0 .823204-.1715355 1.5778732-.7660446 1.9780312-.4230461.2858467-.9604721.2515106-1.463562.2172432-25.7121449-2.0268669-24.0608406-1.8341064-24.5483932-2.069519-1.0519619-.4916458-.8689814-1.875164-.8347168-2.8470116.0343351-1.3606262.0800457-2.7098083.1258249-4.0704384.1257553-4.2305298.2515106-8.4725037.3772659-12.7030334.1258259-4.1161499 0-8.3123436.6746273-12.3599625.3773355-2.2409849.9947367-4.6878405 2.8927212-5.9341583 1.2234278-.800312 2.7441463-.9375124 4.1962643-1.0518923 2.25243-.1714659 4.4934845-.3544464 6.7344704-.5259113 1.7036991-.1372709 3.4187717-.2630262 5.1109562-.0343351 2.5988007.3687916 5.0875225 1.6845284 5.8770046 4.1961946.2714348.8380089.088665 1.2750635.194355 2.8584566.1029358 1.7608528.3429985 3.533083.4001541 5.3053112.2106133 6.529211-.0172806 12.7494373.3544464 18.934412.4436807 7.2293434.6746263 6.8420791.6746263 8.1066131z" fill="#095da4"/></g><g><path d="m11.4952116 22.7485619c.6186533-.7368546-.1119738-1.8947468.4036417-2.6849117.0854979-.1310234.2257519-.2495708.3808889-.2293358.6212578.0810337.5442829 2.2977219-.1372051 2.9099808-.1692963.1520977-.4196281.231514-.6310463.1472702"/></g><g><path d="m23.1658764 22.7870483c.7036667-.8672085.2728615-2.5716877.6020184-2.8462715.1375237-.1147213.4239464-.0810928.5608311.3461819.2022896.6314335.0375118 1.3150826-.1279125 1.9571609-.0767269.2978077-.1593056.6071129-.360075.8400669-.2007713.2329559-.5573101.3626175-.8244896.210331"/></g><g><path d="m35.8005562 49.2577438c-.102932.0571556-.2057991.1028671-.3087349.1486473-2.446785 1.120491-5.5224876 1.0404472-7.6377869-.6289177-1.6235828-1.2691383-2.5040092-3.3043213-2.77841-5.3395767-.2744007-2.0466309 0-4.1161499.320179-6.1514053.8575382-5.3166847 2.1152306-10.5877323 3.9903946-15.6300182.6174011-1.680809 1.3948936-3.4301491 2.9041653-4.3791752.6060295-.3887119 1.4292297-.5831356 2.0809669-.3658905.1029358 1.7608528.3429985 3.533083.4001541 5.3053112.2106133 6.529211-.0172806 12.7494373.3544464 18.934412.4436799 7.2293434.6746255 6.8420791.6746255 8.1066131z" fill="#28b6f4"/></g><g><path d="m30.312336 25.6354218c-.137888.9184036-1.1834373.8946247-1.554985.0685997-.3054771-.6107693-.3540382-2.1382656.3544464-3.1671219l.3086662-.1715355c.0114441.011446.0228901.011446.0343342.0228901.5673961.3240146.9329795 2.7557602.8575382 3.2471676z" fill="#19345d"/></g><g><path d="m30.312336 25.2009315c.0578003.3475113-.0177841.7983551-.3201809 1.0061817-.3441906.2486019-.9602718.1072502-1.2348042-.5030918-.3054771-.6107693-.3540382-2.1382656.3544464-3.1671219l.3086662-.1715355c.0114441.011446.0228901.011446.0343342.0228901l.0342655.1486454c.4054947 1.0812016-.1116142 2.2647572.2172451 2.5040112.1856099.1297779.3695622.0024567.6060277.1600208z"/></g><g><path d="m29.2832623 49.6236343c-3.5824471-.0844269-13.7589073-.45718-17.2879372-1.0405159-.6974468-.1143112-1.3606281-.3201103-2.0466299-.3430023-.5716915-.0343323-1.2463179-.1829796-1.5893183-.6746254-.2858458-.4001541-.2858458-.926136-.2744007-1.4177818.2421408-10.1722755.243392-9.3923225.3201113-19.5861511 0-1.871603.5975542-2.3274288 2.2296095-2.2296085 18.9194374.9692326 18.4538765 1.0024643 18.8315468.9604721.38871-.0228901.7317123-.0457115.9146919.3544445.4116001.9146919.3086662 2.0238094.2858448 3.0413685v.5603161c.0571556 1.3948917.1028652 2.789856.1486454 4.1847496.1028652 2.7784119.1943569 5.5682678.2972908 8.3581238.0571556 1.5893173.1028652 3.1671906.1600208 4.7565079.0741596 2.1483954.2128582 3.1195258-1.9894752 3.0757025z" fill="#e2212e"/></g><g><path d="m31.2727375 46.5479317c-7.3286972 3.7017212-15.5067282 2.4330597-18.5570755-.0572243-1.1204929-.9146919-1.9323196-2.2867622-1.9094296-3.7388115.0351791-2.3266754 2.1157198-4.7860794 6.4829588-5.0194664 4.68964-.2842789 7.7961807 1.5356064 9.7301979-2.6983681.4116001-.926136.6860008-1.9208717 1.0862274-2.8470116.5830669-1.3263607 1.4634933-2.5268993 2.5611649-3.4988155v.5603161c.0571556 1.3948917.1028652 2.789856.1486454 4.1847496.1028652 2.7784119.1943569 5.5682678.2972908 8.3581238.0571547 1.5893173.1028643 3.1671905.1600199 4.7565079z" fill="#f72f43"/></g><g><path d="m29.4662437 25.2924213c-.1600914 1.1204929-.3201809 2.25243-.7088928 3.315836-.4344902 1.2233582-1.2463169 2.6297665-2.5612354 3.007103-1.5892487.4458656-3.2471676.5259094-4.8821945.5945129-3.2106667.1440811-9.7369366.4654045-12.9431-1.0862293.011445-1.520649.0228205-3.0413666.0342655-4.5620861 0-1.871603.5975542-2.3274288 2.2296095-2.2296085 18.9194384.9692325 18.4538755 1.0024642 18.8315477.960472z"/></g><g><path d="m38.384613 12.0749207c-.0343361-.0228901-.0685997-.0457096-.1029358-.0685997-.1829109-.1372004-.4001541-.205801-.5716896-.3315563-1.7526169-1.286108-3.7637711-.4846134-4.2076416.8460922-.0228882.0571556-.0457077.1143103-.0914879.1372004-.0799751.0571556-.1714668.0228205-.2400665-.0343351-.4498024-.38978-.3043938-1.9528112.8232002-2.7555208.0914917-.0571556.1944275-.1257553.2744026-.205801.1025505-.0878887.3181267-.5091152.8347168-.720336 1.1772881-.5352898 2.8788757.4648857 3.2243462 2.7440758v.0343351c.0228195.1143102.0113755.2515105.0571556.3544454z" fill="#19345d"/></g><g><path d="m38.384613 12.0749207c-.0343361-.0228901-.0685997-.0457096-.1029358-.0685997-.1829109-.1372004-.4001541-.205801-.5716896-.3315563-1.7526169-1.286108-3.7637711-.4846134-4.2076416.8460922-.0228882.0571556-.0457077.1143103-.0914879.1372004-.0799751.0571556-.1714668.0228205-.2400665-.0343351-.4498024-.38978-.3043938-1.9528112.8232002-2.7555208.0914917-.0571556.1944275-.1257553.2744026-.205801.1025505-.0878887.3181267-.5091152.8347168-.720336.6226807-.2831202 1.3779793-.0996609 1.9323196.3315554-1.2006073-.0685997-2.4011459.6402912-2.8813477 1.7379637-.0228882.0571556-.0457077.1257553-.0228882.1829109.0343323.0800447.1371994.1029348.2172432.0800447.0685997-.0228901.1372032-.0800447.1944275-.1372004.4687538-.3773355 1.120491-.4802008 1.7150726-.388711.769104.1330748 1.7740021.703373 2.069519.9718475.0228197.1143103.0113757.2515106.0571558.3544455z"/></g><g><path d="m38.4989243 34.5080833c-.3542709.3544121-1.0044708.3238602-1.36063.3773346-.5336952.0790329-1.1911926.3872337-1.8179359.194355-.0572281-.022892-.1372032-.0685997-.1715355-.1257553-.022892-.0457802-.022892-.1029358-.022892-.1600914v-.0685997c0-.1715355.022892-.3429985.0685997-.5030899.0914917-.3315582.2630272-.6402931.5030937-.8918037.0457802-.0572243.0914879-.1029358.1371994-.1486435.1029358-.0800476.2058678-.1600914.320179-.2058716.022892-.0113754.0343361-.0113754.0571556-.0228195.1029358-.0343361.2286911-.0457802.3316269-.022892.0799751.022892.1600189.0457115.2286186.0686035.1600914.0571518.3201828.1486435.4688263.2057991l1.4177856.4573822c.1143074.2858429.0457077.6288452-.1600914.8460922z" fill="#19345d"/></g><g><path d="m38.4989243 34.5080833c-.3542709.3544121-1.0044708.3238602-1.36063.3773346-.5336952.0790329-1.1911926.3872337-1.8179359.194355-.0572281-.022892-.1372032-.0685997-.1715355-.1257553-.022892-.0457802-.022892-.1029358-.022892-.1600914.4459381-.0685997.8804283-.1371994 1.3263626-.2172432.2850075-.0475502.5899239-.1031342.7088928-.3887138.0685997-.2058678-.0343361-.4459343-.194355-.6060257-.1600914-.1486435-.3658905-.2515106-.537426-.3887787-.0800476-.0685997-.1600914-.1485748-.217247-.2400665.1029358-.0343361.2286911-.0457802.3316269-.022892.0799751.022892.1600189.0457115.2286186.0686035.1600914.0571518.3201828.1486435.4688263.2057991l1.4177856.4573822c.1143074.2858429.0457077.6288452-.1600914.8460922z"/></g><g><path d="m47.4858932 49.0747643c.022892.2286911-.1485748.4344902-.38871.4573822l-2.3324738.1829109c-.2858467.0228882-.5145378-.2400665-.4459381-.5259132 1.5360985-7.1306839-1.1694832-12.1627312-.7203369-25.474596l2.9270592.2972889c-.3491364 2.1638374-.3227501 3.7518425-.240139 5.0537319.2278938 3.3282452.6205635 3.2545376 1.1319389 5.3853588 1.2238503 5.1401061-.2747917 9.582077.0685997 14.6238365z" fill="#d0dcee"/></g><g><path d="m47.4858932 49.0747643c.022892.2286911-.1485748.4344902-.38871.4573822l-2.3324738.1829109c-.2858467.0228882-.5145378-.2400665-.4459381-.5259132 1.5360985-7.1306839-1.1694832-12.1627312-.7203369-25.474596l2.9270592.2972889c-.1532707.9499149-.2419472 1.8955307-.2858467 2.9041672-3.238121 2.2813721 1.8385887 10.2861137.2172432 16.3618011-.2564964.9355431-1.1980362 3.1691895.3315582 4.0704384.194355.1143837.4230461.1829834.6517372.240139 0 .4916457.0114441.9832915.0457077 1.4863815z" fill="#a5c0dd"/></g><g><path d="m46.5254936 24.011837c-.1143837.7088928-.1943588 1.4177837-.240139 2.1381207-1.5427589-.0996304-2.0572128.1672287-2.7327003.6174011 0-1.0175571.0114441-2.0351849.0457802-3.0528107z"/></g><g><path d="m46.9404793 25.6478157c-.2535744.4028072-.8411446.2610855-3.1499634.1700439-.4545708-.0239468-.7913818-.0927143-.8600464-.5500488-.3999634-3.5199585-1-7.0199585-1.6299438-10.5099478-.2687531-1.507576-1.4108276-5.5321369-2.4800415-7.4100342-.3900146-.7000122-.8599854-1.3699951-1.4500122-1.9400024l-.0799561-.4799804c.8899803-.7037721 1.8172226-1.4119208 2.9899902-1.3699951 1.0503235.0313842 1.9929733.7953873 2.4799805 1.5899658.5830879.9136004.8245773 1.8423905 1.0900269 2.8600464 2.7024117 10.3675852 2.2895241 9.3631163 2.7699585 13.6399527.2569962 2.3768559.2806778 2.9894485.3500366 3.2900391.0599975.2399901.1199951.4799803-.0300293.7099608z" fill="#19345d"/></g><g><path d="m42.0434532 4.3113785c-.1143799-.011445-.2286911-.0343351-.3316269-.0457802-1.6641769-.2128348-3.2508202 1.2323041-2.8927231 3.0871472-.3887787-.7088919-.8575363-1.3720732-1.4521179-1.9437647l-.0800438-.4802008c.8947868-.7063732 1.8370552-1.4194102 2.9956551-1.3720732.6631813.02289 1.2691383.3201808 1.7608566.7546717z"/></g><g><path d="m41.6174545 3.9878056c-.4467392-.2802453-.9588013-.2597432-1.4568138-.1473978-1.1762161.2653384-2.191597 1.12324-2.9165649 2.0927768-.6655197.8900328-1.1682396 2.8605299-1.0863037 2.8656683-2.8648033-.1796713-3.9390297.2396059-4.1053009.0648108-.1884212-.1980782 1.8913422-2.8888836 1.96978-2.9898276.8132515-1.0465894 1.1925888-1.295321 2.6773567-1.6630111 1.1992225-.2969771 4.1067428-1.2992037 4.9178466-.2230194z" fill="#095da4"/></g><g><path d="m27.3281231 5.3973236c-.0228901 0-.3087349.2459664-.343071.2718039-.1028652.0906272-.1714649.1553388-.2400646.2848406-.6174717 1.0097027-1.0176277 2.1748238-1.1548271 3.3916979-1.8294544-.0129585-3.6702843.0387955-5.488224.1941338.1428432-.7816496.3145123-1.5012159.617403-2.2783298.6312733-1.539525.5214539-1.5310993 4.6992855-1.8641462.1607933-.0170838 1.6916961-.164426 1.9094982-.0000002z" fill="#095da4"/></g><g><path d="m29.569109 22.7312546c-.1523514 1.2495022.0566597 3.3465023-1.1776485 6.3572044-1.0414143 2.5351505-2.2074318 2.3864498-5.0194664 2.6068764-2.7669659.1944256-5.5340023.2401352-8.3124132.1371994-1.3834476-.0571537-2.7555208-.182909-4.139039-.2858448-1.0290022-.0685997-2.2181654-.4230461-2.9613218-1.1890926-.9604721-.9947376-1.0176272-2.5840569-.6746264-3.9217949.2858458-1.0976715.7660465-2.1266747 1.1204929-3.2014561.1861448-.5207539.2683125-.6974468 1.1091166-.6974468 4.4003534-.0621204 18.9841957-.2397079 19.0030136-.2401352.2703667 0 .9002953-.0747662 1.0290031.1829109.0343332.0685997.0343332.1715336.0228891.2515793z" fill="#ff9f1c"/></g><g><path d="m29.4776192 24.1490383c-.0342655.4573803-.0571556.9261379-.1257553 1.3835182-.2198315 1.5538406-.9131908 4.2718658-2.092411 5.2938671-4.1215096 1.0476456-8.6363506.827898-12.8630533.1257553-1.3440895-.231842-2.8388815-.5884094-3.4529676-1.8637199-.5602465-1.1548271.011445-2.6183205 1.0061817-3.4415932.9947376-.8118267 2.3095856-1.131937 3.5787935-1.326292 2.3324747-.3773365 4.6878405-.4688263 7.0432062-.5716915 2.3096541-.0914898 4.6764659-.1715355 6.9060058.400156z" fill="#ffca28"/></g><g><path d="m42.2720718 48.8804092c-2.5479546 1.5290489-2.8511353 1.8076248-3.6016121 2.0009193-.4688263.1257553-.9604721.217247-1.4292297.1371994-.4802017-.0685997-.949028-.320179-1.1777153-.7432251-.1829109-.3086662-.2058029-.6860008-.217247-1.0518913 0-1.7836761-.2057991-3.5902405-.3086662-5.3739128-.4874992-8.5555725-.4357834-8.1342125-.514534-8.5753708-.0571556-.2743988.0457077-.3772659.3658905-.411602 5.4872742-.6652908 5.5826645-.7589645 6.0255775-.4687538.7432251.4687538.8461609 1.6921844.9947357 2.4696732.643055 3.5169411.4327621 5.0627632.6060295 7.4891434.0571518.8460922.1143074 1.6922531.1715317 2.5383453.1017876 1.2238998-.1635513 1.5303955-.9147606 1.9894752z" fill="#e2212e"/></g><g><path d="m42.8895454 41.2426224c-.2630272.1028633-.5374298.1829109-.8003845.2743988-.7339859.2385406-1.6596184.8534241-2.5154533.411602-.8973579-.4766617-.4023399-1.8724442-1.1090508-4.6992874-.2142448-.8566971-.1973991-1.9526863-.8232689-2.6412086 2.9887505-.3494301 3.3244324-.488369 3.7731476-.194355.7432251.4687538.8461609 1.6921844.9947357 2.4696732.1944275 1.0633392.343071 2.1266747.4231186 3.201458.0228196.3887824.0457077.7889365.0571556 1.177719z"/></g><g><path d="m43.6899261 40.6594849c-.9033165.605957-1.9780998.9032478-3.0299911 1.2005386-.9761276.3030472-1.3156967-.0151367-1.4635658-.9604034-.5646706-3.630806-.7575531-6.0152626-2.035183-7.3977203-.2515793-.2629547-.537426-.4802017-.8918724-.5716934 1.4064064-.171463 2.7555923-.5488014 4.150486-.7660446.6258812-.1042976 1.2550392.0665474 1.7036285.3773346 1.5976295 1.0528984 1.2518044 2.984478 1.3149147 4.3105049.1434708 2.4762381 1.4767724 3.0147399.2515831 3.8074836z" fill="#ff9f1c"/></g><g><path d="m36.5204964 8.967824c-.8989563-.3507767-2.5518417.6092691-2.8599854 2.5900269-.1799927 1.1799927-.6400146 2.4400024-1.0599976 3.5700073-.6500225 1.7399893-1.6400127 3.4299917-3.2000103 4.419982-2.2066154 1.4543953-5.0247612 1.1939793-12.1099854 1.2299805-.0100098 0-.0100098 0-.0100098 0h-2.4100342c-.0799561 0-.1599731.0100098-.25.0100098-2.8495598-.0067272-3.9776812.1113091-5.039978-.3800049-.5800171-.2699585-1.1099854-.7999878-1.2799683-1.4400024-.1600342-.5799561.1199951-1.3899536.2199707-1.9899902.3739347-2.1326275 1.6286926-5.3235397 3.4400024-6.4699697 1.2493277-.7777176 2.8374643-.8463087 6.0100098-.9700317.736824-.0433893 9.327179-.3599854 9.4899902-.3599854 1.4076252-.0525093 4.2908173-.4199829 5.4000225-.4199829 3.1254847-.0695307 3.3601611-.0507844 3.6599734.2099607z" fill="#e2212e"/></g><g><path d="m34.3141747 9.959691c-.3579063.4769659-.5614929.9991035-.6517372 1.6006937-.1829796 1.1777182-.6402893 2.4354105-1.0633354 3.5673485-.6517372 1.7379627-1.6350307 3.4301472-3.201458 4.4248848-2.2062111 1.4325676-4.7165813 1.1804085-12.1084538 1.2234268-.0114441 0-.0114441 0-.0114441 0-1.1548271-.2858448-2.3210306-.6631813-3.2815027-1.326292-.9490271-.6517372-1.7150736-1.6350288-1.8979845-2.7784119-.2972908-1.7379637.8117571-3.4759274 2.2981405-4.4363298 1.475008-.9604721 3.2701273-1.2920275 5.0194654-1.5664282 4.9279767-.754672 9.924553-1.143383 14.8983098-.7088919z" fill="#f72f43"/></g><g><path d="m31.5368443 8.8339415c-.5710831.1318436-1.4994087.7342129-1.9842072 1.5047998-.7970009 1.2668371-1.0333214 2.6875963-1.4349728 4.0807734-.9145947 3.2117929-2.4623508 10.9372263-2.5954323 16.6590919-.1025295 3.9975262-.2163467 7.9950504-.3077049 11.9924564-.0006924.0302429-.0144062.058403-.0375843.0778427-2.0428295 1.7132568-.3659992 1.5970345-2.8250523-.1640511-.0360317-.0258026-.0548916-.0655823-.055254-.1099014-.0232353-2.8423805-.0775642-5.4630203.069849-8.320488.0571556-.9832916.2286911-1.9780312.2629566-2.9727688.149065-6.0312347 1.5348244-9.9639149 1.669363-11.3080692.1028652-.937582.2972908-1.9323196.5145359-2.8470116.5382366-2.8258801 1.1394329-5.7382793 2.8584557-8.0380135 1.3377381-.0571535 2.5273095-.4517258 3.8650476-.5546606z" fill="#19345d"/></g><g><path d="m31.4805202 8.8378191c-.7803478.1734695-1.3127403.136116-1.9700317 1.0700073-.8682747 1.1161909-1.2525883 3.1176329-1.5999756 4.3099976-.4899902 1.7200317-.8500366 3.5200186-1.2000122 5.2800283-1.7267895 8.6324368-1.3682499 12.2999115-1.687336 22.9832268-.0198975.6662254.0554695.2579956-.7805443 1.1478577-.1341724.1428108-.2632484.2904243-.3865948.442688-.143095.1766396-.0944366.1566238-.4036751-.1510811-.3554554-.3536949-.7396221-.6872978-1.151823-.9726791-.0300293-2.8699951-.2900391-5.7200317-.1400146-8.6000366.0599976-.9799805.2299805-1.9799805.2600098-2.9699707.0299683-.9299927.0799561-1.8500366.1699829-2.7900391.450861-4.4180813 1.2368412-7.0457497 1.3999634-7.8499756.1789436-.9386349.0990791-1.3415966.6200562-3.5200195.5312843-2.8339577 1.1408443-5.7204857 2.8499756-8.0399771 1.3400268-.0499878 2.6799926-.2399903 4.0200194-.3400269z" fill="#095da4"/></g><g><path d="m40.6941986 30.0831966c-1.0175591.4802017-2.3095856.4344902-3.178566-.2744007-.9718475-.7889366-1.2234306-2.1495647-1.3720741-3.3844376-.4001541-3.3272133-.5259094-6.7116508.0457802-10.0045967.1600189-.9146929.3772659-1.8408298.9375114-2.5840569.4116707-.5488014 1.0519638-.9604025 1.7265205-1.0290022 1.2685051 2.2830782 1.1890869 5.5841208 1.2805824 8.1980333.1412927 3.7787782.405613 7.5007993.5602456 9.0784608z" fill="#28b6f4"/></g><g><path d="m8.2019739 23.8482189c.0621347-.2401485.2882776-1.0053883.4404545-1.199894.0578508-.0739422.1398134-.1335468.2329931-.1450176" fill="none"/></g><g><path d="m44.15868 39.6418571c-.514534.1829796-1.0862274.2058029-1.6235809.1486473-2.6010246-.2801285-3.4759293-2.0590324-3.4759293-4.66502 0-1.6850395.5410957-2.4546814 2.5726128-2.8355675.5843887.1947174 1.2696037.7908592 1.5664253 1.6464729.3316269.9375839.1944275 1.9552078.2401352 2.9156113.0906867 1.5651742.6113738 2.2817994.7203369 2.789856z" fill="#ffca28"/></g><g><path d="m43.1868324 47.714138c-.0572243.0457764-.1143799.102932-.1715317.1486435-1.1319389.949028-2.5726128 1.6235847-4.0475502 1.5207176-.6174736-.0457077-1.2805824-.2629547-1.6693649-.7774925-1.2757568-1.7364807-1.3872223-4.5088806-1.3262939-6.6544952.0307274-1.0622559.3848686-3.0865021 1.4063377-2.789856.901474.2576485.5780487 2.6155128 1.8979874 3.5787964.8142815.6030693 2.247406.6224899 3.6359482-.7660484.2097816 4.820343.3496131 5.1630592.2744674 5.7397346z" fill="#f72f43"/></g><g><path d="m20.9904957 17.7648525c.2932873.120348.6774673.1619759.8860779-.0767345.1843166-.2109127.1370144-.5372677.0297565-.7960205-.5044632-1.2169762-1.9767818-1.6109734-2.4070225-1.2376261-.2160263.1874609-.2122898.5402575-.069891.7883158.2841836.4950504 1.045477 1.1104946 1.5610791 1.3220653z" fill="#e2212e"/></g><g><path d="m20.7711639 13.6024313c.1808949-.2069969-.1463413-.8357344-.7418461-.9101658-.0904102-.0113001-.190937-.0063744-.2597523.0533419-.0910187.0789814-.0894432.227623-.0294476.3321362.1640188.2857217.8002759.7887563 1.031046.5246877z" fill="#e2212e"/></g><g><path d="m17.2892742 28.2765179c.5692158.8091488 1.8138771 1.0537701 1.5053005.2136784-.2915878-.7938423-1.1521454-1.1543007-1.5135994-.9697533-.296648.1514625-.1831131.483982.0082989.7560749z" fill="#ff9f1c"/></g><g><path d="m17.3853016 26.3399639c.2856731.406086.9103298.5288525.7554646.1072388-.1463394-.3984051-.5782261-.5793095-.7596283-.4866886-.1488781.0760135-.091898.2428951.0041637.3794498z" fill="#ff9f1c"/></g><g><path d="m20.4303875 45.8556137c1.3875237.4630852.7559624-1.8815575-.9399223-2.0041466-.4193916-.0303192-.6010628.1550407-.6296272.5505829-.0559674.7750817.9636897 1.2513581 1.5695495 1.4535637z" fill="#e2212e"/></g><g><path d="m19.0008259 42.309597c.834774.2786064.4426689-1.1187248-.5586166-1.1911049-.2492523-.0180206-.3572235.092144-.3742008.3272209-.0332623.4606514.5727424.7437096.9328174.863884z" fill="#e2212e"/></g><g><path d="m37.9959793 24.9689369c.0321312.2028885.0926399.4417877.2861862.5106106.6057854.215414 1.0767365-1.4006672.2807922-2.4705334-.3848228-.517252-.7915955-.1413326-.805912.3787842-.0140762.5114765.1590004 1.0764484.2389336 1.5811386z" fill="#095da4"/></g><g><path d="m38.7632217 21.8334942c.0189743.1198139.0547066.260891.1690025.3015327.3434258.1221218.645462-.8142242.1658173-1.4589348-.227253-.3054543-.4674644-.0834618-.4759178.2236862-.0083122.302044.093895.6356793.141098.9337159z" fill="#095da4"/></g><g><path d="m46.870472 24.1278572c-1.1618423.2613411-2.0942574-.3354416-2.6499634-1.3600464-.8778152-1.6989441-1.1676064-6.5055904-1.2999878-8.4299917-.0971107-1.4288025-.5290108-6.7201333.539978-7.6999512.477417 1.4318609 2.4500122 9.5961485 2.4500122 9.6799917.5029068 2.1752453.7325745 5.9811383.959961 7.8099976z" fill="#095da4"/></g><g><path d="m29.5104885 9.9078264c-.8682747 1.1161909-1.2525883 3.1176329-1.5999756 4.3099976-.4899902 1.7200317-.8500366 3.5200186-1.2000122 5.2800283-1.5067673 7.5325203-1.4119587 10.5566788-1.6699829 22.3999634-.2600098-.1300049-.5-.289978-.7000122-.5099487-1.2602406-1.3697586-1.2239437-4.9909935-1.0700073-6.8600464.1500244-1.7600098.2600098-3.5299683.5200195-5.2799683.8399658-5.6600342 1.4199829-11.3500366 3.5299683-16.7300415.4237423-1.1122703 1.0403118-2.2985859 2.1900024-2.6099844z" fill="#28b6f4"/></g><g><circle cx="23.771" cy="34.64" r=".371"/></g><g><path d="m18.4605007 9.5178118c-1.35219 1.0727005-1.6875305 3.1885405-2.1799927 4.9000244-.603569 2.1309862-1.0147934 4.3709822-1.4100342 6.3599844-.6399536 3.3900146-1.1099854 6.8600464-1.1900024 10.3000488-.0999756 4-.2099609 8-.3099976 11.9899902 0 .0299683-.0099487.0599976-.0299683.0799561-1.567131 1.3122101-.9366751 1.5633278-1.7299805.7700195-.3522177-.3520203-.7222147-.6465302-1.1000366-.9299927 0-.0100098 0-.0100098-.0100098-.0100098-.0199585-.0299683-.039978-.0599976-.039978-.0999756-.0300293-2.8500366-.0800171-5.4700317.0700073-8.3200073.0499878-.9899902.2299805-1.9799805.2600098-2.9799805.1229887-5.6695461 1.5114851-9.9537868 1.6699829-11.3000488.0999756-.9400024.2999878-1.9400024.5100098-2.8499756.5324526-2.7386446 1.0789928-5.4959202 2.6799927-7.7800283.233924-.0119895 2.5553227-.1300048 2.8099976-.1300048z" fill="#19345d"/></g><g><path d="m17.9705105 9.5378313c-1.0979786 1.0979776-1.5928116 3.6255245-1.9000244 4.6799927-.5979557 2.0990267-1.008728 4.3438063-1.4099731 6.3500357-.0100098.0700073-.0300293.1499634-.0400391.2199707-1.1965389 6.4266567-1.1586361 9.1233006-1.4199829 21.1099854 0 .1900024-.0100098.3900146-.0200195.5800171 0 .1000366 0 .2000122-.0099487.289978 0 .0800171-.0100098.1400146-.0700073.2000122-.3380842.3219719-.614069.5167122-1.0800171 1.1000366-.0300293.039978-.0700073.1099854-.1199951.1099854-.0265894.0132942-.0465775-.0166893-.0700073-.039978-.1035824-.0691948-.6778479-.7371254-1.3200073-1.1500244 0-.0100098 0-.0100098-.0100098-.0100098-.0100098-.0100098-.0299683-.0200195-.039978-.0299683v-.0700073c-.0300293-2.8500366-.289978-5.6700439-.1400146-8.5300293.0599976-.9799805.2300415-1.9799805.2600098-2.9699707.2086353-6.4613571 1.5382681-9.7922649 1.6699829-11.3099976.1000366-.9400024.3000488-1.9299927.5200195-2.8500366.4910851-2.6189356 1.0465508-5.3005371 2.5100098-7.5399771.3132398-.0391846 2.3738019-.1276837 2.6900022-.1400147z" fill="#095da4"/></g><g><path d="m17.6713696 9.9078264c-.8682747 1.1161909-1.2525864 3.1176329-1.5999756 4.3099976-.5961885 2.092824-1.0039625 4.3196783-1.4100342 6.3500357-1.2351637 6.562212-1.1963463 9.2300529-1.4599609 21.3299561-.9374256-.4687119-1.2953243-1.2974663-1.5300293-2.3299561-.3800049-1.6700439-.3800049-3.3400269-.2399902-5.0400391.1500244-1.7600098.2600098-3.5299683.5200195-5.2799683.8399658-5.6600342 1.4199829-11.3500366 3.5299683-16.7300415.4237432-1.1122703 1.0403117-2.2985859 2.1900024-2.6099844z" fill="#28b6f4"/></g><g><path d="m41.6305847 37.1590576c.1705055.041954.3199501-.0548706.2979851-.3319588-.0259132-.3269615-.1858368-.6412964-.4348602-.854744-.2512779-.2153778-.636097-.0558777-.57901.3017349.0460968.2887536.4496879.8194734.7158851.8849679z" fill="#ff9f1c"/></g><g><path d="m42.1084404 35.5122375c.099617.0245094.1860008-.0324326.1732712-.1930275-.0150681-.1901207-.1080589-.3729019-.2528648-.4970169-.1461105-.1252365-.369873-.0324936-.3366776.1754532.0268021.1679039.2614822.4765053.4162712.5145912z" fill="#ff9f1c"/></g><g><path d="m25.8438625 37.6097298c-.4898434-.0165787-4.5590153-.1542969-4.2993164-.1455078-.1381836-.0048828-.2460938-.1206055-.2416992-.2583008l.1450195-4.2910156c.0053711-.1381836.1342773-.2250977.2583008-.2416992 4.4290257.1761246 4.3336773.0834541 4.4658203.2241211.1321278.1420746.0455761.0429039-.078125 4.4707031-.0024414.0664063-.0307617.1289063-.0791016.1743164-.0463866.043457-.1074218.0673828-.1708984.0673828zm-4.0327148-.6367188 3.7915039.128418.128418-3.7919922-3.7919922-.1279297z" fill="#f2f8fd"/></g><g><path d="m23.8023586 34.807972c-.0039063 0-.0073242 0-.0112305-.0004883-.1381836-.0058594-.2446289-.1230469-.2382813-.2607422l.0649414-1.409668c.0063477-.1381836.1342773-.2607422.2607422-.2382813.1381836.0058594.2446289.1230469.2382813.2607422l-.0649414 1.409668c-.0058593.1342774-.1166992.2387696-.2495117.2387696z" fill="#f2f8fd"/></g><g><circle cx="11.904" cy="34.64" r=".371"/></g><g><path d="m13.9771633 37.6097298c-.4898434-.0165749-4.5595036-.1542969-4.2998047-.1455078-.1394501-.005127-.2457647-.1210976-.2416992-.2583008l.1455078-4.2910156c.0053711-.1381836.1323242-.2250977.2583008-.2416992l4.2910156.1450195c.1381836.0048828.2460938.1206055.2416992.2583008l-.1450195 4.2915039c-.0049438.1344718-.1143036.2416992-.25.2416992zm-4.0332031-.6367188 3.7919922.128418.1279297-3.7919922-3.7915039-.1279297z" fill="#f2f8fd"/></g><g><path d="m11.9351711 34.807972c-.0039063 0-.0073242 0-.0112305-.0004883-.1381836-.0058594-.2446289-.1230469-.2382813-.2607422l.0649414-1.409668c.0146809-.3462296.5137386-.2967529.4990234.0224609l-.0649414 1.409668c-.0058592.1342774-.1166991.2387696-.2495116.2387696z" fill="#f2f8fd"/></g></g></svg>