<svg height="512" viewBox="0 0 512 512" width="512" xmlns="http://www.w3.org/2000/svg">
    <g id="Stickers">
        <path d="m456.02945 111.62985-172.45258-99.79192a43.48025 43.48025 0 0 0 -59.03216 15.32948l-.27388.45905-24.861-14.49407a45.43989 45.43989 0 0 0 -60.46783 13.71808l-38.37412 56.48284a45.47243 45.47243 0 0 0 14.06861 64.41069l27.88314 16.8651-102.08631 171.05563a42.95188 42.95188 0 0 0 -5.69376 16.2114c-5.779 21.02324 4.16762 46.38635 22.37111 56.20294l171.92463 92.70982a43.361 43.361 0 0 0 57.6352-15.537l32.55717-53.14892 30.10087 18.55574a43.265 43.265 0 0 0 59.23455-13.23318l37.15541-57.48534a43.24227 43.24227 0 0 0 -14.34765-60.759l-31.55985-18.62639 71.4971-116.71645c13.52106-22.07388 9.32134-57.97049-15.27865-72.2085z"
              fill="none"/>
        <path d="m54.02868 351.02087 185.6619-302.86836a25.7821 25.7821 0 0 1 35.05225-9.10251l176.23493 93.91951c12.543 7.25823 12.85891 29.298 5.28906 41.65546l-184.63752 301.41324a25.7821 25.7821 0 0 1 -34.22223 9.22547l-171.92452-92.71011c-12.92033-6.96727-18.97655-28.92767-11.45387-41.5327z"
              fill="#1d1d3d"/>
        <path d="m55.58052 344.70271 184.11006-308.49548a25.7821 25.7821 0 0 1 35.05225-9.10257l172.452 99.7923a25.78209 25.78209 0 0 1 9.072 35.78268l-184.63753 301.41328a25.7821 25.7821 0 0 1 -34.22223 9.22547l-171.92452-92.7101a25.7821 25.7821 0 0 1 -9.90203-35.90558z"
              fill="#00abfe"/>
        <path d="m445.74506 156.23617-184.63988 301.40683a13.42948 13.42948 0 0 1 -17.83251 4.81539l-171.92258-92.72567a13.40759 13.40759 0 0 1 -5.16809-18.69688l184.11076-308.49742a13.41494 13.41494 0 0 1 18.27347-4.74477l48.78817 28.23927-3.62758 7.03885a15.5062 15.5062 0 0 0 5.939 20.47913l53.096 31.13941a15.50621 15.50621 0 0 0 21.71362-6.441l2.94-5.88007 43.60245 25.223a13.44515 13.44515 0 0 1 4.72717 18.64393z"
              fill="#fff"/>
        <path d="m196.46784 427.2608-63.53418-35.44238a2.49979 2.49979 0 0 1 2.43555-4.36622l63.53418 35.44239a2.49978 2.49978 0 1 1 -2.43555 4.36621z"
              fill="#b2aca3"/>
        <path d="m347.02589 273.37312 53.82119-89.81512a27.79758 27.79758 0 0 0 -9.84314-38.30257l-200.47805-116.88562a27.79758 27.79758 0 0 0 -36.99407 8.39276l-38.374 56.48265a27.79758 27.79758 0 0 0 8.60674 39.40662l200.66015 121.36723 8.99469 18.72705a7.7345 7.7345 0 0 0 13.60649.627z"
              fill="#a369f7"/>
        <path d="m171.42534 58.47129-3.66077 5.96784a7.50682 7.50682 0 0 0 2.601 10.40038l182.9593 107.30965a7.50681 7.50681 0 0 0 10.41773-2.93552l3.37682-6.31525a7.50681 7.50681 0 0 0 -2.82679-10.01771l-182.67536-106.96224a7.50681 7.50681 0 0 0 -10.19193 2.55285z"
              fill="#fff"/>
        <path d="m143.20373 99.27317-3.66073 5.96783a7.5068 7.5068 0 0 0 2.601 10.40038l182.95925 107.30962a7.5068 7.5068 0 0 0 10.41773-2.93552l3.37682-6.31525a7.50681 7.50681 0 0 0 -2.82679-10.01771l-182.67535-106.9622a7.50681 7.50681 0 0 0 -10.19193 2.55285z"
              fill="#fff"/>
        <path d="m123.10713 297.41563 55.00609-79.58426a25.63611 25.63611 0 0 1 34.119-7.50174l210.17353 124.04115a25.63612 25.63612 0 0 1 8.50021 35.994l-37.15649 57.48592a25.63611 25.63611 0 0 1 -35.09134 7.83936l-205.28613-126.5537-24.17193-.06483a7.4309 7.4309 0 0 1 -6.09294-11.6559z"
              fill="#ff605b"/>
        <path d="m177.25443 295.56475a158.46457 158.46457 0 0 0 16.82917 11.79189c4.80223-5.00277 8.742-9.81991 12.68185-14.63705 6.43965 4.179 11.94824 8.18828 17.45684 12.19757a209.93429 209.93429 0 0 0 15.02631-16.81185l-19.93225-13.06264c5.03707-6.24492 9.34446-12.9516 13.89515-19.48892-7.04413-3.63248-13.8227-7.90411-21.50911-12.087-3.8746 4.65768-7.6454 9.4017-11.54124 14.62481-5.90376-3.5-11.80752-7.00008-18.78508-10.701-3.20058 4.9703-6.23225 10.04936-9.38036 15.55735q8.88087 6.49434 17.39134 13.54193a143.51612 143.51612 0 0 0 -12.13262 19.07491z"
              fill="#fff"/>
        <path d="m399.58966 358.914-6.68119 9.98587c-40.3676-25.175-82.95626-51.05956-125.87142-76.391 2.36939-3.98907 3.99426-7.28226 4.49632-10.92426a1035.3282 1035.3282 0 0 1 128.05629 77.32939z"
              fill="#7ad001"/>
        <path d="m318.79133 353.88535-67.83017-38.96925c3.03336-4.23252 5.73134-8.14572 7.45948-13.47438q34.66724 20.5225 69.30322 41.06792a94.65847 94.65847 0 0 1 -8.93253 11.37571z"
              fill="#bd3234"/>
        <path d="m94.30554 348.73787 127.03076 69.71322a13.62162 13.62162 0 0 0 18.70918-5.79456l.51374-1.01592a13.62161 13.62161 0 0 0 -5.69634-18.13967l-127.54449-68.69733a13.6216 13.6216 0 0 0 -18.77268 6.16757 13.62161 13.62161 0 0 0 5.75983 17.76669z"
              fill="#eae5db"/>
        <path d="m266.10148 409.97546.02463.01309c12.62469 6.71285 5.20618 20.00428 5.24234 19.62482a13.84584 13.84584 0 0 1 -19.20732 5.39718 13.84583 13.84583 0 0 1 -5.3779-18.13442c.1-.08484 6.75628-13.58013 19.31825-6.90067z"
              fill="#7ad001"/>
        <path d="m257.946 412.38 9.489 15.508h-16.076l5.039-5.449z" fill="#fff"/>
    </g>
</svg>