<svg id="Sport_Items" height="512" viewBox="0 0 1200 1200" width="512" xmlns="http://www.w3.org/2000/svg"><g><path d="m247.819 651.893c57.472 27.49 122.256 36.734 185.445 36.734 22.568 0 45.133-1.166 67.605-3.186 35.529-3.191 54.896-21.129 65.309 16.605 13.926 50.484 54.413 111.543 113.276 111.543 56.638 0 55.321 4.457 92.534 59.36 22.225 32.788 63.037 134.229 110.268 134.229 43.694 0 100.365-54.893 131.664-78.803 38.012-29.037 75.332-58.786 47.48-111.234-30.479-57.401-65.287-112.305-94.904-170.348-24.82-48.646-47.533-107.051-83.414-148.959-21.414-25.012-55.24-36.869-87.446-37.533-4.481-28.148-17.325-52.916-41.78-68.559-48.895-31.274-108.615-43.575-159.639-71.641-54.268-29.851-95.4-86.681-151.797-110.274-255.751-106.987-447.771 320.976-194.601 442.066z" fill="#fff"/><g><path d="m1024.673 806.835c-16.152-26.892-32.23-53.665-46.922-81.386-28.465-53.725-54.918-108.523-84.244-161.791-9.072-16.485-17.938-34.454-30.258-48.843-17.092-19.964-46.574-28.817-72.178-28.421-6.656.103-13.383.886-20.118 2.183.646-12.763-.382-25.021-3.989-36.575-5.979-19.136-11.32-28.122-27.178-38.265-30.579-19.562-68.873-28.945-101.963-43.336-52.877-22.993-103.756-51.69-146.068-91.3-19.074-17.854-34.82-34.899-59.412-45.187-24.266-10.153-51.221-13.73-77.385-11.961-54.326 3.674-102.643 30.458-137.977 71.37-33.363 38.632-67.99 94.413-64.893 148.057-2.535 79.767 30.576 150.409 106.996 186.959 73.102 34.965 160.053 38.227 239.451 31.098 29.449-2.645 59.406-6.514 88.072-14.259-5.75 53.933 29.481 122.788 73.771 138.853 16.082 5.833 28.951 3.425 45.07-.998 26.832-7.365 35.335 6.645 51.65 26.23 41.419 49.723 72.113 107.68 109.041 160.641 9.498 13.476 17.195 13.672 30.262 6.336 13.816-7.751 34.832-20.268 36.064-21.092 29.91-19.955 58.605-42.075 87.062-64.009 11.06-8.522 24.936-18.36 26.39-33.476 1.719-17.796-12.684-36.576-21.244-50.828zm-313.031-327.009c-12.654-11.635-28.56-16.406-48.905-7.938-27.087 11.277-51.755 32.534-44.726 62.821-65.998 33.525-140.045 46.406-214.828 43.143-46.557-2.033-101.154-9.046-147.511-29.26-34.921-15.228-50.028-27.454-53.349-53.424-7.203-56.439 20.813-115.224 58.176-156.55 47.107-52.105 119.227-63.106 178.644-26.208 52.312 32.486 87.591 85.42 145.702 109.416 23.978 9.901 49.461 14.999 74.367 21.916 15.494 4.304 55.416 10.18 63.434 28.529-4.059 2.958-7.917 5.491-11.004 7.555z" fill="#68182b"/><path d="m1029.228 838.238c-20.822-44.252-50.17-85.137-72.793-128.701-23.488-45.225-46.058-90.947-70.469-135.686-8.619-15.799-17.018-32.514-27.899-46.918-17.758-23.507-51.418-32.862-79.868-27.791-54.933 9.791-111.545 45.315-149.123 88.557 15.965-2.009 32.89 6.454 46.313 17.622 43.785 36.443 72.986 90.068 105.633 135.984 44.43 62.486 87.904 128.045 140.613 183.967 3.91 4.484 7.639 10.898 9.28 16.947 28.112-19 55.333-39.707 82.083-60.494 16.837-13.088 26.133-22.442 16.23-43.487zm-128.831-194.328c-.78 8.559-7.081 14.379-13.965 18.713-23.381 13.246-44.82 27.338-65.713 44.307-15.248 12.041-29.123 12.408-39.119-3.543-8.891-14.936-16.926-30.203-27.385-44.149-8.182-11.136-4.499-21.112 8.041-27.812 25.361-13.148 50.213-28.053 73.896-44.024 6.676-4.374 15.196-9.667 23.59-7.729 6.371 1.471 10.281 6.829 13.545 12.085 7.391 11.076 13.982 22.535 21.27 33.638 3.489 5.567 6.452 11.782 5.84 18.514z" fill="#ff5671"/><path d="m868.569 659.746c-19.617 11.751-38 24.432-55.988 39.043-7.602 6.002-15.797 7.15-21.039-1.215-4.445-7.463-8.684-15.005-13.117-22.426-5.934-9.939-5.014-12.871 5.898-19.115 18.867-10.789 38.021-21.072 56.48-32.57 5.88-3.633 13.641-8.4 18.82-1.238 4.313 6.479 8.572 12.971 12.535 19.64 6.803 11.465 5.997 12.135-3.589 17.881z" fill="#fac135"/><path d="m768.067 641.367c25.361-13.148 50.213-28.053 73.896-44.024 3.656-2.396 10.156-7.599 15.021-6.515 3.045.682 4.865 4.334 6.361 6.742 7.391 11.074 13.982 22.533 21.27 33.636 1.928 3.074 4.18 6.561 4.369 10.295.182 3.586-1.873 6.258-4.466 8.41-5.552-10.841-12.175-21.027-18.929-31.176-7.76-10.719-18.494-7.281-28.275-1.238-22.367 13.932-45.754 26.082-68.416 39.514-.636.377-1.006.871-1.27 1.398-1.16-1.66-2.252-3.357-3.473-4.983-1.18-1.61-3.105-3.899-2.816-6.081.389-2.917 4.551-4.814 6.728-5.978z" fill="#a2603f"/><path d="m405.696 649.879c-75.184-3.945-163.264-22.503-210.576-86.891-16.395-22.312-25.383-47.663-29.375-74.064 32.064 58.434 112.634 83.855 174.07 93.926 112.561 18.451 231.568 2.119 326.586-63.576 3.09 4.652 5.521 9.971 7.588 14.394-16.961 11.556-32.826 24.659-46.943 39.464-18.74 19.665-32.221 34.774-38.252 59.499-58.34 16.977-122.869 20.409-183.098 17.248z" fill="#a2603f"/><path d="m641.735 497.66c7.963-7.418 18.496-13.024 28.799-16.532 23.596-8.034 37.412 7.724 47.936 26.424-9.533 4.774-18.676 9.919-27.162 14.98-2.588 1.543-5.117 3.182-7.664 4.792-5.49-11.349-12.557-24.771-24.922-29.174-5.575-1.983-11.326-1.733-16.987-.49z" fill="#ff5671"/><path d="m658.39 510.772c-9.654 6.571-19.534 12.624-29.621 18.174-2.679-22.375 17.206-26.323 29.621-18.174z" fill="#ff5671"/><path d="m754.479 450.649c4.977 12.701 5.809 26.496 4.808 40.683-10.31 2.858-20.528 6.782-30.431 11.269-2.879-5.136-6.002-9.933-9.396-14.243 13.695-9.638 29.173-23.358 35.019-37.709z" fill="#a2603f"/><path d="m185.595 360.528c26.688-50.076 65.256-96.934 120.135-116.722 47.764-17.225 107.09-15.595 148.711 15.945 19.084 14.459 34.649 33.447 53.5 48.443 18.17 14.455 37.453 27.4 57.555 39.01 37.959 21.924 78.416 38.569 119.123 54.584 14.969 5.889 30.508 11.284 44.594 19.143 15.143 8.451 22.477 18.466 11.939 33.737-2.5 3.616-5.766 7.047-9.307 10.218-4.088-7.045-10.826-11.473-18.648-15.257-22.693-10.974-48.625-16.553-72.908-22.788-26.064-6.692-51.661-13.883-75.112-27.495-29.585-17.171-52.366-42.326-77.847-64.646-37.688-33.013-82.891-62.063-135.178-56.28-50.438 5.581-91.049 36.401-119.354 76.794-30.219 43.125-50.428 97.423-40.567 149.838-8.696-9.46-23.448-23.56-27.103-58.2-3.021-28.64 5.733-58.682 20.467-86.324z" fill="#aa8053"/><path d="m913.493 933.412c-42.319-44.896-79.84-96.986-115.215-147.456-32.641-46.569-63.121-96.993-99.678-140.542-15.693-18.695-63.299-72.521-86.781-33.996-23.379 38.348-11.354 92.361 13.369 127.232 11.029 15.555 26.819 33.357 46.691 36.959 17.426 3.16 32.219-7.056 49.254-7.546 11.535-.333 19.738 5.091 27.34 13.521 14.553 16.142 28.225 33.189 40.783 50.931 30.373 42.897 56.752 88.446 86.814 131.565.004.006.01.008.012.014 5.813 8.242 11.563 4.099 21.754-1.379 4.84-2.598 9.648-5.264 14.375-8.066.007-.004.012-.004.018-.009 7.872-4.747 9.928-11.286 1.264-21.228zm-194.681-207.17c-3.971 22.903-28.281 31.814-48.729 24.531-25.115-8.947-40.244-37.895-46.237-65.263-4.728-21.581-4.493-42.944 8.799-53.28 9.804-7.625 24.538-5.645 40.091 6.264 23.122 17.696 51.417 56.929 46.076 87.748z" fill="#ff5671"/><path d="m663.399 733.749c-20.729-17.304-31.004-48.007-31.055-74.12.516-6.825 1.543-18.623 9.899-21.445 6.015-2.033 14.021 3.01 18.581 5.928-7.041 5.59-10.01 15.971-10.484 25.043-1.425 27.249 14.6 52.301 31.932 72.366-6.912-.73-13.839-3.572-18.873-7.772z" fill="#a2603f"/><path d="m706.63 728.103c-5.091 13.897-16.02 13.339-25.814.839-10.908-13.928-19.971-29.631-22.801-47.143-.699-4.324-1.16-11.33-.205-17.92 3.018-20.822 16.105-11.759 27.215 3.477 10.744 14.737 28.523 41.871 21.605 60.747z" fill="#fac135"/><g fill="#81391c"><path d="m728.856 502.601c9.902-4.486 20.121-8.41 30.431-11.269.416-5.911.485-11.747.099-17.472-9.672 10.049-21.123 18.169-34.323 22.479 1.299 2.034 2.581 4.099 3.793 6.262z"/><path d="m761.341 647.346c-.289 2.182 1.637 4.471 2.816 6.081 1.221 1.626 2.313 3.323 3.473 4.983.264-.527.634-1.021 1.27-1.398 7.639-4.527 15.363-8.9 23.1-13.254 3.986-8.295 8.625-16.238 14.059-23.598-12.477 7.457-25.168 14.561-37.99 21.207-2.179 1.164-6.341 3.061-6.728 5.979z"/><path d="m651.757 659.802c1.544-6.149 4.393-11.979 9.068-15.69-4.561-2.918-12.566-7.961-18.581-5.928-8.356 2.822-9.384 14.62-9.899 21.445.008 4.205.311 8.533.852 12.9 4.689-5.531 11.273-9.75 18.56-12.727z"/><path d="m214.198 584.583c49.57 47.099 125.5 61.833 191.498 65.296 60.229 3.161 124.758-.271 183.098-17.248 1.158-4.752 2.676-9.066 4.369-13.209-55.498 15.82-113.527 22.305-172.324 21.527-70.717-.937-147.9-14.685-206.641-56.366z"/></g><path d="m339.815 582.85c-17.678-2.898-36.939-7.076-56.174-12.936 2.637 1.153 5.288 2.278 7.948 3.371 60.46 24.834 124.862 32.369 189.655 25.068 33.691-3.796 66.848-11.704 99.17-21.81 23.551-7.362 47.41-15.203 70.131-25.232 7.527-6.236 15.35-12.129 23.443-17.643-2.066-4.423-4.498-9.741-7.588-14.394-95.016 65.695-214.024 82.027-326.585 63.576z" fill="#f5995a"/><path d="m651.45 515.258c2.312-1.5 4.652-2.93 6.939-4.486-8.475-5.563-20.418-5.476-26.303 2.249 6.671-1.565 13.327-.72 19.364 2.237z" fill="#df3f58"/><path d="m658.722 498.15c12.365 4.403 19.432 17.825 24.922 29.174 2.547-1.61 5.076-3.249 7.664-4.792 8.486-5.062 17.629-10.206 27.162-14.98-1.422-2.525-2.91-4.987-4.467-7.353-4.939 3.533-10.399 6.001-16.997 6.669-10.097 1.021-19.04-4.893-27.802-8.839-6.775-3.051-14.643-4.131-21.197-1.208 3.597-.217 7.191.076 10.715 1.329z" fill="#df3f58"/><path d="m913.493 933.412c-.793-.844-1.561-1.729-2.35-2.576-.238 15.963-17.904 28.66-34.281 17.559-16.08-10.9-26.871-29.826-37.076-45.867-21.948-34.508-45.318-68.135-66.027-103.414-8.715-14.85-18.248-28.326-31.48-35.322-2.111-1.189-4.35-2.104-6.679-2.793-.72-.211-1.417-.48-2.159-.637-.172-.035-.344-.045-.517-.078-5.653-1.482-11.873-1.975-18.925-1.008-9.367 1.287-18.461 4.391-27.725 6.25-13.754 2.764-25.922-.225-38.018-7.012-7.783-4.365-14.488-10.064-20.574-16.434 10.865 14.644 25.773 30.191 44.197 33.529 17.426 3.16 32.219-7.056 49.254-7.546 11.535-.333 19.738 5.091 27.34 13.521 14.553 16.142 28.225 33.189 40.783 50.931 30.373 42.897 56.752 88.446 86.814 131.565.004.006.01.008.012.014 5.813 8.242 11.563 4.099 21.754-1.379 4.84-2.598 9.648-5.264 14.375-8.066.007-.004.012-.004.018-.009 7.872-4.747 9.928-11.286 1.264-21.228z" fill="#df3f58"/><path d="m1012.997 881.725c16.838-13.088 26.134-22.441 16.23-43.486-.564-1.199-1.195-2.373-1.771-3.566-1.586 12.322-5.95 23.842-16.275 33.41-8.463 7.841-18.785 14.367-28.149 21.113-10.872 7.836-22.644 14.865-35.812 17.876-26.711 6.11-48.266-24.302-61.785-42.603-16.572-22.434-34.059-44.139-50.59-66.605-34.936-47.479-68.314-95.957-104.59-142.451-15.195-19.473-31.129-39.43-51.061-54.28-10.523-7.84-27.875-19.266-41.598-13.458 13.309 1.189 26.736 8.45 37.791 17.646 43.785 36.443 72.986 90.068 105.633 135.984 44.43 62.486 87.904 128.045 140.613 183.967 3.91 4.484 7.639 10.898 9.28 16.947 28.113-19 55.334-39.707 82.084-60.494z" fill="#df3f58"/><path d="m975.745 778.338c-13.789-20.836-26.232-42.738-38.459-64.517-10.744-19.147-22.15-25.899-32.639-26.323-8.239-.332-56.115 19.91-38.299 60.135 6.992 15.789 18.434 30.453 28.949 44.044 7.17 9.269 14.582 18.412 22.518 27.038 10.645 11.566 24.146 19.531 37.746 13.463 22.731-10.139 40.432-23.242 20.184-53.84z" fill="#ff9780"/><path d="m836.837 536.488c-14.77-18.097-45.145-24.443-82.627-10.472-8.518 3.178-20.029 8.698-23.416 17.962-4.531 12.386 5.786 23.559 13.841 31.828 11.115 11.412 23.931 15.126 39.294 11.855 15.735-3.351 32.463-12.361 45.546-21.501 10.272-7.179 16.395-18.602 7.362-29.672z" fill="#ff9780"/><path d="m791.542 697.574c5.242 8.365 13.438 7.217 21.039 1.215 17.988-14.611 36.371-27.292 55.988-39.043 9.586-5.746 10.392-6.416 3.59-17.882-.371-.626-.773-1.232-1.152-1.854-11.231 8.789-21.85 18.56-33.938 26.146-11.214 7.041-23.358 13.886-35.915 18.143-7.473 2.531-13.471.947-18.805-2.447 3.049 5.238 6.078 10.495 9.193 15.722z" fill="#ee9e2b"/><path d="m667.14 697.496c-4.21-6.375-7.357-13.191-9.639-20.281.135 1.698.305 3.285.514 4.584 2.83 17.512 11.893 33.215 22.801 47.143 9.795 12.5 20.724 13.059 25.814-.839 3.08-8.409 1.248-18.457-2.666-28.317 1.105 12.637-.639 22.955-9.009 23.98-9.964 1.22-23.548-19.807-27.815-26.27z" fill="#ee9e2b"/><path d="m725.128 446.82c-22.73-16.809-51.68-23.813-78.438-31.153-35.275-9.674-67.748-21.207-98.258-41.802-52.287-35.291-87.412-92.632-151.969-107.866-50.264-11.862-105.412 9.053-141.424 43.981-33.945 32.925-53.536 78.235-59.857 125.156 7.174-28.594 20.841-55.982 37.615-79.922 28.305-40.393 68.916-71.213 119.354-76.794 52.287-5.784 97.49 23.267 135.178 56.28 25.48 22.32 48.262 47.476 77.847 64.646 23.451 13.611 49.048 20.802 75.112 27.495 24.283 6.235 50.215 11.814 72.908 22.788 7.822 3.784 14.561 8.212 18.648 15.257 2.316-2.073 4.488-4.268 6.434-6.546-4.123-4.27-8.582-8.143-13.15-11.52z" fill="#865725"/><path d="m305.729 243.806c-39.857 14.371-71.076 43.051-95.424 76.844 4.807-5.313 9.74-10.501 14.732-15.579 24.527-24.946 52.9-44.712 86.102-56.234 64.271-22.305 126.357 3.537 173.205 48.773 16.742 16.166 32.061 31.927 51.461 45.077 22.431 15.203 47.016 27.114 72.275 36.794 21.271 8.154 42.92 13.168 64.835 17.668-36.741-14.625-73.103-30.123-107.421-49.945-20.102-11.61-39.385-24.556-57.555-39.01-18.851-14.996-34.416-33.984-53.5-48.443-41.62-31.54-100.946-33.169-148.71-15.945z" fill="#d4ba89"/></g></g></svg>