<svg id="Sport_Items" height="512" viewBox="0 0 1200 1200" width="512" xmlns="http://www.w3.org/2000/svg">
    <g>
        <path d="m222.48 1058.009c101.104 38.869 154.354-60.76 184.565-138.121 199.115 146.383 489.995 76.055 595.486-147.748 27.504-58.35 41.156-123.371 37.551-187.883-1.631-29.154-9.957-43.451 3.131-68.548 7.172-13.758 10.113-30.606 12.889-45.745 21.959-119.764-95.074-98.693-163.57-144.251 26.053-11.841 51.447-73.808 52.209-101.487 1.357-49.198-59.83-77.021-99.145-87.707-56.795-15.437-92.104 27.099-110.916 75.854-15.281 39.605 21.283 52.79-33.189 48.924-37.203-2.642-74.717-.166-111.255 7.317-123.379 25.277-233.066 110.729-286.281 225.301-28.668 61.721-38.896 131.58-30.485 199.047 5.763 46.234-24.071 46.295-55.965 76.652-22.36 21.283-41.792 45.881-55.796 73.471-37.86 74.578-26.468 181.383 60.771 214.924z"
              fill="none"/>
        <g>
            <path d="m1026.721 483.01c5.221-23.726 12.723-55.98-2.699-77.536-12.318-17.22-34.107-17.771-53.214-21.369-18.486-3.48-38.085-8.987-57.067-9.358-3.17-2.795-6.404-5.55-9.727-8.244-16.934-13.717-34.967-25.607-53.779-35.794 4.098-8.347 9.373-17.646 13.352-27.132 12.773 1.893 22.822-.735 29.883-13.238 4.586-8.122 6.713-17.823 9.98-26.479 3.912-10.37 10.49-19.898 13.568-30.545 9.734-33.656-32.998-54.262-58.359-64.658-23.605-9.673-57.453-19.716-72.246 7.331-12.048 22.039-46.799 56.522-21.812 78.573-7.688 11.996-12.665 26.826-18.036 39.032-99.16-19.555-205.832.661-290.341 59.985-67.156 48.868-121.08 114.522-145.178 194.928-17.886 59.679-19.234 126.449-2.595 187.226-50.313 27.928-97.086 67.207-123.463 119.172-23.422 46.141-28.187 106.004 5.739 148.598 30.64 38.475 86.501 49.225 126.242 18.412 44.041-34.145 56.551-95.682 79.551-144.222 66.929 60.329 159.473 93.249 249.228 94.177 151.294 1.559 286.065-91.609 342.223-231.645 29.144-72.666 34.768-151.508 14.852-222.919 15.544-2.896 20.365-18.246 23.898-34.295zm-704.633 424.608c-8.295 26.85-23.237 88.219-58.777 84.271-16.58-1.84-19.986-13.656-23.91-28.98-3.144-12.268-3.727-25.139-2.924-37.732 1.219-19.105 6.065-38.172 13.232-55.877 15.025-37.126 41.082-68.299 73.977-90.83 8.773 19.689 19.644 37.992 32.259 54.859-17.04 22.213-25.657 47.754-33.857 74.289z"
                  fill="#68182b"/>
            <path d="m933.742 456.656c-34.424-62.397-89.463-105.918-152.641-133.811-41.055-18.125-96.367-30.438-159.674-21.678-56.597 7.835-111.517 28.743-159.391 62.352-74.495 54.206-131.595 130.809-148.266 222.754-4.649 25.646-6.356 52.063-4.96 78.325 3.42 64.324 28.508 118.541 79.73 165.186 47.429 43.188 107.32 71.552 172.967 81.648 164.276 25.262 359.906-63.674 401.103-235.553 17.548-73.199 7.548-153.218-28.868-219.223zm-44.554 225.993c-44.375 106.971-149.939 175.247-265.325 173.774-101.585-1.297-209.318-54.16-250.775-151-50.655-118.326 5.301-244.991 104.881-315.991 103.188-70.188 247.812-68.263 346.578 9.838 86.973 68.775 106.122 183.388 64.641 283.379z"
                  fill="#fac135"/>
            <path d="m613.021 559.623c10.463-6.532 25.124-7.153 34.353 2.244 9.141 9.307 6.104 24.276-2.814 32.624-8.66 8.104-22.645 8.722-32.537 2.557-14.695-9.158-11.421-27.889.998-37.425z"
                  fill="#ff801d"/>
            <path d="m420.682 663.101c57.127-24.568 113.681-50.428 171.098-74.329 1.027 3.508 2.764 6.933 5.312 10.175-56.417 27.443-115.175 49.113-173.601 71.843-16.864 6.415-18.995-.561-2.809-7.689z"
                  fill="#ff801d"/>
            <path d="m984.18 398.292c22.742 4.153 36.109 13.26 37 38.254.471 13.173-1.191 64.125-21.807 69.281-14.075-43.795-38.055-84.424-72.438-118.657 19.198 2.204 38.806 7.753 57.245 11.122z"
                  fill="#aa8053"/>
            <path d="m851.172 344.36c120.182 68.202 173.814 199.234 144.242 332.926-31.689 143.258-147.455 258.69-294.091 279.49-126.512 17.945-268.083-31.512-342.271-138.746-6.976-10.084-13.114-20.664-18.614-31.557 45.882 62.809 112.496 107.166 189.443 125.732 87.275 21.059 181.839 10.102 262.688-28.592 76.298-36.514 142.698-100.711 169.909-182.092 23.734-70.986 19.934-151.498-9.182-220.304-34.831-82.311-103.082-138.037-182.946-170.283 27.935 7.733 55.111 18.835 80.822 33.426z"
                  fill="#ff801d"/>
            <path d="m796.354 181.8c14.098-21.855 48.328-7.688 66.885 1.547 17.146 8.531 48.551 24.593 42.678 46.907-2.17 8.246-7.854 16.064-11.098 23.998-1.502 3.668-2.781 8.154-4.232 12.741-15.27-38.483-73.342-66.401-113.323-55.326 6.551-12.067 15.16-23.773 19.09-29.867z"
                  fill="#ff5671"/>
            <path d="m769.289 231.905c1.873-10.547 11.143-15.305 25.232-15.6 30.703-.647 67.545 17.245 84.111 42.214 8.495 12.799 8.252 22.408 1.602 28.792-3.205 3.083-7.293 4.992-12.691 4.938 1.412-5.275 2.125-10.51 1.686-15.569-1.59-18.334-19.516-28.376-34.795-34.501-17.203-6.897-39.377-14.484-56.121-2.633-2.388 1.691-4.566 3.652-6.592 5.799-2.855-3.385-3.387-8.08-2.432-13.44z"
                  fill="#ff801d"/>
            <path d="m774.322 261.792c11.346-18.668 25.791-18.635 45.326-12.64 15.855 4.868 40.271 13.672 37.631 34.045-1.861 14.378-10.732 28.76-17.219 42.155-26.164-13.094-53.754-22.855-82.053-29.354 5.083-11.553 9.798-23.483 16.315-34.206z"
                  fill="#aa8053"/>
            <path d="m311.76 747.085c2.195 6.966 4.705 13.809 7.393 20.568-36.076 24.295-64.324 58.004-80.548 98.586-14.668 36.697-26.006 99.359 6.222 128.486 25.438 22.99 53.31-2.953 66.957-27.646 21.877-39.587 24.072-87.628 51.426-124.419 7.645 9.416 15.832 18.352 24.518 26.793-18.813 38.621-29.422 82.787-54.248 117.947-14.916 21.121-35.443 38.508-62.012 41.009-29.754 2.802-59.493-13.229-75.963-37.794-63.35-94.48 38.085-198.704 116.255-243.53z"
                  fill="#aa8053"/>
            <path d="m664.303 476.433c4.608-13.782 10.754-27.105 16.979-40.217 5.549-11.691 11.039-25.711 19.871-35.403 11.186-10.762 11.322-2.411 9.938 4.612-2.199 11.133-8.289 22.459-12.836 32.129-6.175 13.13-12.941 25.999-20.292 38.506-.931 1.5-2.263 3.523-3.87 5.401-5.607 6.541-13.311 6.744-9.79-5.028z"
                  fill="#fac135"/>
            <path d="m579.34 720.577c-2.08 11.352-8.322 22.939-12.963 32.807-6.176 13.127-12.939 25.996-20.293 38.503-2.385 3.853-7.449 11.174-12.947 10.53-3.328-.389-1.514-7.475-.711-10.156 4.609-13.781 10.754-27.104 16.979-40.216 5.549-11.69 11.04-25.714 19.873-35.405 7.884-7.587 12.023-6.729 10.062 3.937z"
                  fill="#fac135"/>
            <path d="m771.582 616.185c14.502.648 28.984 2.852 43.287 5.222 12.752 2.114 27.735 3.539 39.5 9.323 8.146 4.715 11.564 9.418-.205 10.725-11.758 1.295-24.982-1.566-36.088-3.371-14.189-2.305-28.291-5.258-42.213-8.843-1.85-.523-4.281-1.288-6.592-2.383-12.583-5.975-6.251-10.777 2.311-10.673z"
                  fill="#fac135"/>
            <path d="m780.529 383.993c-93.111-50.583-209.449-44-296.748 15.381-57.337 40.879-101.768 98.572-114.125 169.098-10.395 59.334 1.107 123.553 36.9 172.586 58.143 79.646 166.399 114.576 261.81 101.035 110.934-15.742 200.877-101.293 224.916-210.43 22.31-101.282-21.503-198.101-112.753-247.67zm-360.573 120.756c15.479 1.315 30.898 4.276 46.093 7.429 11.067 2.296 23.126 4.331 33.941 8.541 10.376 4.036 21.249 9.341 21.304 21.322.061 12.466-17.142 14.43-25.183 14.594-25.098.519-53.66-9.425-75.915-16.123-9.439-3.083-21.375-9.901-21.652-21.266-.282-11.485 12.107-14.981 21.412-14.497zm170.281 219.137c-2.106 9.525-6.469 18.789-10.322 27.467-7.055 15.875-15.084 31.369-23.889 46.345-5.209 8.415-14.816 18.471-25.891 15.862-11.174-2.631-11.486-15.414-8.811-24.359 4.916-14.699 11.5-28.979 18.139-42.966 5.359-11.295 10.766-23.991 18.639-34.067 4.113-5.25 12.963-15.125 23.551-12.4 11.017 2.833 10.32 16.26 8.584 24.118zm58.827-118.275c-12.18 8.916-29.736 9.229-42.597 1.561-58.393 28.718-119.332 51.149-179.917 74.72-8.588 3.268-26.457 7.732-29.976-5.064-3.054-11.105 9.813-19.932 18.293-23.667 58.739-25.26 116.888-51.854 175.944-76.378 2.678-21.803 23.824-32.992 37.44-33.397 11.36-.337 22.671 3.994 30.033 13.573 11.745 15.278 5.595 37.805-9.22 48.652zm72.481-195.185c-2.258 8.693-6.219 17.144-9.754 25.1-7.057 15.875-15.084 31.369-23.888 46.345-5.212 8.414-14.816 18.47-25.894 15.862-11.172-2.631-11.486-15.417-8.809-24.36 4.916-14.699 11.498-28.98 18.139-42.967 5.021-10.583 10.082-22.39 17.175-32.125 4.522-6.211 14.646-17.009 25.015-14.342 11.461 2.948 10.106 18.439 8.016 26.487zm129.088 242.975c-25.314 1.832-55.053-7.193-77.829-13.059-9.487-2.678-21.794-9.213-22.262-20.544-.475-11.495 11.666-15.242 21.04-15.127 24.855 1.11 55.79 3.229 80.113 12.512 8.254 3.152 22.066 7.727 22.406 20.903.325 12.685-13.374 14.587-23.468 15.315z"
                  fill="#67d5e8"/>
            <path d="m419.956 516.261c14.451 1.228 28.846 4.077 43.032 7.019 12.698 2.631 27.519 4.688 39.071 10.953 7.393 4.697 10.225 8.156 4.449 9.91-13.105 2.696-28.461-1.567-41.227-4.169-14.156-2.885-28.193-6.4-42.025-10.564-2.049-.67-5.104-1.797-7.762-3.407-5.262-3.182-10.308-10.504 4.462-9.742z"
                  fill="#fac135"/>
            <path d="m921.35 779.243c-33.244 44.664-78.849 80.475-128.78 104.371-80.849 38.693-175.413 49.65-262.688 28.592-76.947-18.566-143.562-62.924-189.443-125.732 5.5 10.893 11.639 21.473 18.614 31.557 43.921 63.486 111.464 106.709 185.515 127.699 35.57 5.25 71.991 4.961 107.779.337 105.163-13.583 217.784-69.984 269.003-166.824z"
                  fill="#ef6200"/>
            <path d="m822.086 237.627c4.287 1.401 8.447 2.988 12.348 4.551 15.279 6.125 33.205 16.167 34.795 34.501.439 5.059-.273 10.294-1.686 15.569 5.398.054 9.486-1.855 12.691-4.938.922-.886 1.689-1.848 2.36-2.858-.819-5.388-3.019-11.034-6.519-16.508-7-10.955-17.195-17.449-28.777-22.688-7.589-3.435-16.482-6.952-25.212-7.629z"
                  fill="#ef6200"/>
            <path d="m454.422 658.822c48.148-18.587 96.203-37.274 142.669-59.875-1.849-2.352-3.259-4.803-4.29-7.31-20.385 8.835-40.275 19.752-60.035 29.203-25.922 12.397-52.766 24.281-78.344 37.982z"
                  fill="#ef6200"/>
            <path d="m612.021 597.047c9.893 6.165 23.877 5.547 32.537-2.557 6.385-5.977 9.725-15.343 7.771-23.6-2.957 6.69-8.039 12.314-15.442 15.329-14.968 6.092-27.888-4.769-31.272-18.106-5.529 9.737-4.65 22.044 6.406 28.934z"
                  fill="#ef6200"/>
            <path d="m851.172 344.36c-25.711-14.591-52.887-25.693-80.822-33.426 53.344 21.537 101.438 53.614 137.922 97.027 22.674 22.792 42.021 48.44 56.689 77.388 19.574 38.63 32.354 80.968 38.352 123.849 1.312-108.598-52.526-208.306-152.141-264.838z"
                  fill="#facb1a"/>
            <path d="m769.289 231.905c-.205 1.148-.303 2.25-.364 3.332 14.223-13.447 34.497-16.503 55-14.56-9.87-2.996-19.928-4.572-29.403-4.372-14.09.295-23.36 5.053-25.233 15.6z"
                  fill="#facb1a"/>
            <path d="m890.586 266.993c1.451-4.587 2.73-9.073 4.232-12.741 3.244-7.933 8.928-15.752 11.098-23.998 1.682-6.391.24-12.25-2.982-17.586-12.369 9.257-27.883 15.293-43.734 17.463 14.247 9.898 25.747 22.65 31.386 36.862z"
                  fill="#df3f58"/>
            <path d="m796.354 181.8c-1.437 2.228-3.508 5.219-5.863 8.691 11.766-4.904 24.809-7.499 37.039-8.999 9.365-1.149 19.031-1.653 28.718-1.469-19.195-8.695-47.418-17.564-59.894 1.777z"
                  fill="#ff9780"/>
            <g fill="#ee9e2b">
                <path d="m457.188 538.134c2.701.601 5.384 1.286 8.094 1.839 12.766 2.602 28.121 6.865 41.227 4.169 5.775-1.754 2.943-5.212-4.449-9.91-2.34-1.269-4.836-2.328-7.396-3.29-8.053 3.494-16.764 5.7-26.418 6.651-3.687.364-7.372.503-11.058.541z"/>
                <path d="m962.611 675.88c17.547-73.2 7.547-153.219-28.869-219.224-15.378-27.876-34.895-51.957-57.387-72.589 18.629 21.666 33.768 46.158 45.529 72.167 24.906 55.081 33.828 119.399 26.623 179.275-7.633 63.445-38.098 121.957-83.226 166.783-44.714 44.415-104.522 71.475-165.126 86.17-105.269 25.529-222.058 7.851-303.225-67.869-76.488-71.356-90.853-180.73-71.179-279.805-5.058 14.708-9.148 29.855-11.981 45.486-4.649 25.646-6.356 52.063-4.96 78.325 3.42 64.324 28.508 118.541 79.73 165.186 47.429 43.188 107.32 71.552 172.967 81.648 164.277 25.261 359.907-63.674 401.104-235.553z"/>
                <path d="m532.426 792.261c-.803 2.682-2.617 9.768.711 10.156 5.498.644 10.563-6.678 12.947-10.53.066-.11.122-.222.188-.333-2.717-7.223-4.252-14.777-4.709-22.453-3.357 7.605-6.508 15.302-9.137 23.16z"/>
                <path d="m818.076 638.083c11.105 1.805 24.33 4.666 36.088 3.371 11.77-1.307 8.352-6.01.205-10.725-3.643-1.79-7.609-3.13-11.707-4.234-9.453 4.756-19.668 8.348-30.027 10.576 1.816.317 3.619.717 5.441 1.012z"/>
                <path d="m674.092 481.461c1.607-1.878 2.939-3.902 3.87-5.401 5.439-9.256 10.447-18.761 15.243-28.372-7.342 6.458-15.572 11.936-24.35 16.476-1.619 4.057-3.172 8.136-4.553 12.269-3.52 11.772 4.184 11.569 9.79 5.028z"/>
            </g>
            <path d="m390.502 737.925c-6.643-10.217-12.508-21.039-17.414-32.502-50.655-118.326 5.301-244.991 104.881-315.991 103.188-70.188 247.812-68.263 346.578 9.838 86.973 68.775 106.122 183.388 64.641 283.379-8.644 20.836-19.635 40.182-32.543 57.854 51.445-62.162 73.24-147.616 55.172-227.75-22.428-99.467-110.158-163.61-205.928-184.224-109.796-23.634-226.719 24.052-296.275 110.409-65.461 81.273-85.729 203.535-23.85 292.517 1.533 2.204 3.119 4.357 4.738 6.47z"
                  fill="#fbe134"/>
            <path d="m1000.064 455.172c-9.504-.964-18.029-3.008-25.895-6.245 10.402 18.145 18.863 37.175 25.203 56.9 14.514-3.629 19.627-29.954 21.223-49.821-6.993.29-14.029-.175-20.531-.834z"
                  fill="#865725"/>
            <path d="m818.533 315.483c7.27 3.054 14.453 6.33 21.527 9.869 6.486-13.396 15.357-27.777 17.219-42.155 1.744-13.47-8.348-21.864-19.963-27.425 5.375 20.06-3.841 43.19-18.783 59.711z"
                  fill="#865725"/>
            <path d="m227.274 854.903c-20.156 39.883-27.934 94.388 6.679 128.877 1.573 1.568 3.173 3.012 4.778 4.314-24.477-31.186-13.766-87.73-.126-121.855 16.224-40.582 44.472-74.291 80.548-98.586-1.438-3.613-2.809-7.26-4.125-10.926-35.338 26.596-67.658 58.413-87.754 98.176z"
                  fill="#865725"/>
            <path d="m271.467 1028.41c26.568-2.501 47.096-19.888 62.012-41.009 24.826-35.16 35.436-79.326 54.248-117.947-6.127-5.954-11.908-12.242-17.523-18.684-8.068 14.578-14.223 30.132-18.574 46.642-7.584 28.782-11.953 58.735-26.229 85.259-16.498 30.658-49.205 47.849-83.484 38.93-14.577-3.791-27.77-11.479-39.025-21.537 17.134 19.089 42.841 30.771 68.575 28.346z"
                  fill="#865725"/>
            <path d="m888.309 650.792c-8.424 18.813-18.57 36.943-30.564 53.381-20.225 27.715-47.066 50.283-74.912 69.967-24.89 17.596-50.936 32.336-79.848 42.237-56.362 19.3-120.005 20.85-176.654 2.026-55.897-18.574-99.568-62.379-130.785-111.012-9.086-14.158-17.393-29.525-24.031-45.597 6.234 28.446 17.787 55.626 35.043 79.263 58.143 79.646 166.399 114.576 261.81 101.035 104.361-14.81 190.13-91.409 219.941-191.3z"
                  fill="#65b0b9"/>
            <path d="m442.673 443.832c45.616-39.343 102.22-64.202 160.891-76.284 56.828-11.704 118.037-9.935 171.57 13.91 1.869.832 3.702 1.736 5.546 2.62-.052-.027-.099-.059-.151-.086-93.111-50.583-209.449-44-296.748 15.381-34.447 24.56-64.168 55.228-85.142 91.062 13.273-16.804 27.764-32.571 44.034-46.603z"
                  fill="#a6f4ff"/>
        </g>
    </g>
</svg>