<svg id="Birthday" height="512" viewBox="0 0 1000 1000" width="512" xmlns="http://www.w3.org/2000/svg"><g><path d="m939.784 254.221c-2.857-1.572-5.699-3.025-8.502-4.453-6.874-3.504-12.808-6.529-17.528-10.963-2.859-2.688-3.613-8.293-4.51-17.203-.443-4.379-.9-8.908-1.871-13.621-4.573-22.209-16.228-38.461-36.673-51.145-16.135-10.008-32.914-13.197-47.717-16.012-24.141-4.588-35.102-7.459-41.953-27.428-1.189-3.467-2.457-8.084-3.801-12.975-7.209-26.25-19.276-70.189-60.409-70.189-5.004 0-10.242.738-15.563 2.192-62.27 17.014-63.99 85.915-65.375 141.278-.537 21.527-1.088 43.621-5.02 59.727-8.195.504-15.879 3.012-22.771 7.393-4.381-1.621-8.707-3.086-12.947-4.379-16.895-5.148-34.334-7.76-51.83-7.76-40.824 0-81.738 13.736-121.609 40.832-63.871 43.404-147.508 114.42-183.242 206.232-.102.262-.197.527-.289.793-11.916 35.011-12.48 73.519-1.738 112.023-8.24 11.025-14.867 27.564-9.49 50.209-8.357 1.742-17.25 2.578-27.066 2.578-15.033 0-30.271-1.926-46.406-3.969-17.072-2.158-34.727-4.391-53.143-4.391-3.229 0-6.461.066-9.713.215-30.43 1.385-67.395 15.715-71.41 51.531-3.121 27.828 13.822 54.561 46.488 73.346 18.953 10.893 22.867 14.459 25.184 30.881 3.08 21.867 11.67 38.568 26.26 51.057 15.533 13.295 35.156 16.359 52.305 17.605 2.943.213 6.057.314 9.801.314 1.795 0 3.58-.023 5.361-.045 1.609-.021 3.213-.043 4.818-.043 4.191 0 8.648.129 12.855 1.061 7.127 1.58 11.553 15.713 15.107 27.068.875 2.791 1.717 5.48 2.576 7.984 21.4 62.459 53.15 75.695 76.016 75.801h.23c16.785 0 47.25-8.801 62.711-67.738 6.633-25.283 6.25-50.713 5.879-75.307-.285-18.914-.557-37.055 2.344-54.025 2.09.238 4.141.357 6.146.357 10.002 0 19.111-2.98 26.682-8.59 20.813 7.229 42.059 10.885 63.338 10.885 26.504 0 51.834-5.705 75.285-16.957 59.578-28.578 109.193-79.436 141.33-115.205 37.184-41.387 76.875-91.154 89.337-146.49 6.66-29.563 4.605-61.186-6.098-94.127 5.365-10.35 8.789-23.965 5.381-40.629 5.986-2.514 14.025-3.781 24.037-3.781 15.641 0 33.088 3.123 47.104 5.633 3.557.639 6.92 1.238 10.029 1.756 3.984.66 8.039 1.408 12.133 2.162 14.365 2.646 29.217 5.385 44.481 5.387h.004c22.634 0 40.976-6.223 56.067-19.02 13.592-11.521 20.166-26.982 18.508-43.529-2.465-24.613-22.428-46.023-41.123-56.326z" fill="#fff"/><g><path d="m930.335 271.374c-10.616-5.85-20.968-9.82-29.988-18.299-11.533-10.838-9.318-27.393-12.152-41.143-3.619-17.576-12.646-29.045-27.814-38.455-35.725-22.16-80.811-4.002-97.871-53.725-8.485-24.727-14.919-79.688-56.091-68.438-76.193 20.817-35.512 149.81-62.316 203.069-11.531-3.188-22.922-1.582-32.477 8.902-7.258-3.068-14.652-5.813-22.191-8.109-55.613-16.955-110.068-1.17-156.723 30.533-71.207 48.395-144.129 115.256-176 197.141-12.475 36.654-10.311 74.833 1.711 110.621-18.65 16.525-16.111 37.822-5.941 57.922-54.082 21.924-105.521-1.148-160.973 1.377-20.645.939-50.096 9.668-52.84 34.152-2.732 24.355 17.523 43.109 36.787 54.186 21.59 12.41 31.293 20.158 34.814 45.127 2.178 15.467 7.576 28.615 19.602 38.91 11.244 9.625 26.783 11.92 40.99 12.951 12.127.883 23.58-.975 35.652 1.701 21.104 4.674 26.139 30.793 31.975 47.822 8.652 25.254 26.135 62.422 57.58 62.566 26.043.119 38.613-32.928 43.91-53.127 12.684-48.334-3.268-101.223 13.145-148.535 16.52 7.264 32.121 7.771 41.84-6.945 43.471 18.289 92.084 19.828 135.162-.84 52.066-24.977 97.104-68.199 135.23-110.639 34.805-38.738 73.131-85.883 84.803-137.707 6.953-30.865 2.398-62.678-8.559-92.219 11.131-14.785 10.578-30.49 4.133-45.783 23.745-26.156 77.382-13.107 107.187-8.16 32.43 5.381 69.253 16.285 96.818-7.088 26.562-22.52 3.283-55.268-19.403-67.768z" fill="#68182b"/><path d="m688.926 301.167c18.422 19.047 59.771 57.391 47.307 85.889-6.008-13.533-13.225-26.477-21.213-38.447-22.92-34.361-55.254-62.244-92.316-80.281 20.124-16.566 53.167 19.34 66.222 32.839z" fill="#ff905b"/><path d="m333.723 853.764c-.713 22.609-7.061 93.773-45.535 83.875-35.01-9.006-38.695-66.621-54.865-92.188-3.758-5.939-8.43-10.037-13.715-12.891 2.041-.303 4.037-.609 5.941-.902 19.918-3.051 39.984-8.762 54.344-23.537.635-.654-.164-1.518-.918-1.186-17.625 7.75-36.695 13.354-55.598 16.852-7.709 1.428-15.504 2.34-23.313 3.084-19.854-2.514-42.643.889-59.326-8.109-15.521-8.371-17.461-24.479-20.365-40.295-.852-13.096.139-26.467.691-39.49.633-14.867-.264-34.52-16.121-41.258-.84-.355-1.672.563-1.002 1.301 12.4 13.666 9.721 36.313 8.127 54.727-.682-1.041-1.369-2.078-2.172-3.055-17.752-21.576-56.725-24.557-60.057-57.848-4.186-41.869 80.527-26.891 99.959-23.965 37.773 5.686 72.541 7.16 108.373-7.504 6.924 10.959 15.508 21.217 23.355 29.723-6.02 3.33-12.418 5.818-18.754 8.678-.281.125-.152.504.078.59 7.297 2.725 16.09-.506 23.135-4.529.865.898 1.715 1.777 2.545 2.625.754.77 1.604 1.633 2.498 2.535-16.52 10.32-35.525 16.693-53.697 23.303-13.287 4.832-36.02 8.92-41.879 23.656-5.604 14.09 19.842 16.184 27.285 14.771 17.162-3.254 33.293-16.07 43.275-29.949.688-.955-.637-2.156-1.574-1.572-12.563 7.793-23.447 17.432-37.781 21.986-6.744 2.143-14.691 2.463-21.188-.631-7.135-3.396 16.984-13.766 19.467-14.705 24.15-9.152 50.404-16.498 72.234-30.795 2.035 1.969 4.244 4.064 6.607 6.246-12.994 15.766-26.016 32.5-33.547 51.51-.313.793.84 1.375 1.383.807 13.865-14.541 25.611-31.152 38.506-46.602 9.719 8.533 21.148 17.52 32.65 24.191-12.869 34.783-7.902 74.178-9.046 110.551z" fill="#fcc335"/><path d="m292.893 686.455c-18.289-18.695-50.236-55.691-30.045-80.879 22.813 56.502 69.781 105.615 121.453 131.09-19.479 22.65-80.346-38.904-91.408-50.211z" fill="#ff905b"/><path d="m455.057 744.336c-115.711-5.006-225.863-144.967-187.246-258.423 5.826-14.967 13.203-29.18 21.664-42.77-14.326 69.13 21.195 141.195 67.982 192.462 47.016 51.518 126.967 94.963 197.795 77.596-30.125 19.455-63.443 32.725-100.195 31.135z" fill="#7761d5"/><path d="m614.725 665.361c-12.291 11.502-25.32 22.934-39.049 33.426-72.26 33.637-158.633-11.934-209.885-64.41-51.984-53.232-90.723-135.953-64.1-209.41 13.08-18.102 27.975-35.014 43.676-50.941-.73 30.621 14.949 62.348 28.338 88.486 19.678 38.416 46.275 73.023 75.867 104.275 42.346 44.721 107.387 98.604 173.801 90.363-2.873 2.764-5.756 5.506-8.648 8.211z" fill="#fcc335"/><path d="m632.063 648.664c-65.877 14.598-130.512-39.129-173.404-82.422-27.359-27.617-51.098-58.631-70.73-92.166-17.375-29.676-39.973-71.465-35.053-107.543 6.658-6.529 13.414-12.914 20.211-19.127 22.906-20.936 47.527-41.848 74.371-57.99-2.34 73.158 48.441 142.076 95.648 193.16 38.223 41.365 103.061 89.818 163.406 76.708-21.073 32.425-47.092 62.269-74.449 89.38z" fill="#7761d5"/><path d="m726.498 524.693c-4.457 8.871-9.371 17.553-14.605 26.08-62.076 18.66-128.211-34.455-167.369-76.83-45.748-49.508-94.059-117.818-90.004-188.619 25.906-14.527 53.861-24.352 84.316-25.385 9.115 43.424 41.582 81.918 70.967 113.266 36.945 39.408 81.576 74.689 131.434 96.279-1.104 18.786-5.798 37.416-14.739 55.209z" fill="#fcc335"/><path d="m618.184 371.971c-29.688-30.365-62.623-69.219-72.326-112.119.299.002.594-.008.895-.004 21.357.355 42.623 5.447 62.854 14.105.881.662 1.951 1.107 3.082 1.275 71.781 32.203 129.43 110.057 128.709 186.869-46.752-20.671-87.716-53.817-123.214-90.126z" fill="#7761d5"/><path d="m915.146 342.04c-9.766 1.047-20.429-.775-30.065-2.09-26.273-3.582-66.422-15.334-100.4-13.32 11.465-4.004 23.643-6.016 34.773-10.742.193-.08.1-.338-.051-.396-13.83-5.227-30.48.473-43.6 5.404-13.203 4.965-25.565 12.1-36.808 20.607-6.633-10.664-15.395-20.91-24.164-30.27 19.914-16.951 42.371-30.381 64.671-43.938 13.982-8.498 34.773-18.656 42.221-34.105 7.463-15.473-15.334-11.439-22.387-9.316-9.195 2.77-18.025 7.123-26.379 11.801-4.803 2.689-11.49 5.75-14.45 10.6-.248.404.16.975.629.818 12.028-4.051 23.657-9.609 35.825-13.553 6.17-2.002 12.643-4.408 19.209-4.377.125.041.188.053.291.084-.473 1.623-2.031 3.311-2.998 4.43-2.434 2.822-5.426 5.193-8.309 7.531-29.568 23.959-65.118 38.973-94.028 64.045-2.473-2.549-4.908-5.023-7.256-7.396 13.404-19.121 32.326-41.848 30.205-65.639-.033-.367-.494-.527-.703-.191-7.438 11.971-12.904 25.236-20.252 37.346-4.695 7.738-10.023 15.043-15.189 22.461-.805-.822-1.6-1.635-2.365-2.428-9.725-10.055-23.857-23.301-38.672-30.756 13.391-26.824 12.684-59.24 13.521-88.527.977-34.018.158-83.637 32.373-104.637 32.02-20.874 44.221 30.205 48.818 50.613 3.18 14.113 9.5 26.4 19.265 37.029 2.477 2.693 5.207 4.98 8.127 6.963-11.266-.266-22.614.578-33.015 3.709-.289.088-.328.557 0 .625 15.564 3.141 31.823 3.48 47.604 5.209 9.43 1.035 18.732 2.695 28.059 4.063 9.197 1.584 18.271 3.121 26.393 5.803 29.693 9.809 28.092 36.672 34.641 59.832 1.232 7.525 2.891 14.988 4.299 21.766 3.107 14.961 10.852 29.645 25.272 36.086.51.229 1.328-.307.885-.885-8.032-10.43-13.351-21.135-17.067-33.135 1.15 1.068 2.361 2.109 3.701 3.086 16.196 11.779 36.766 16.248 48.416 33.691 15.202 22.757-12.867 40.145-31.04 42.099z" fill="#fcc335"/><path d="m709.127 305.252c28.91-25.072 64.46-40.086 94.028-64.045 2.883-2.338 5.875-4.709 8.309-7.531.967-1.119 2.525-2.807 2.998-4.43-.104-.031-.166-.043-.291-.084-4.725-.021-9.395 1.229-13.945 2.672-3.811 4.592-7.127 9.918-11.053 13.922-9.031 9.213-21.455 15.473-32.919 21.055-4.861 2.367-31.879 15.75-41.822 13.324-4.217 6.174-8.623 12.105-12.561 17.721 2.348 2.373 4.783 4.848 7.256 7.396z" fill="#f0a02b"/><path d="m544.523 473.944c39.158 42.375 105.293 95.49 167.369 76.83 5.234-8.527 10.148-17.209 14.605-26.08 8.941-17.793 13.635-36.423 14.738-55.208-9.023-3.908-17.867-8.277-26.533-13.025-15.441 9.49-32.654 16.223-49.563 19.85-33.461 7.178-67.699-1.367-97.178-17.547-29.605-16.248-54.412-40.598-75.418-66.738-10.754-13.379-19.83-27.512-28.314-42.014 15.97 46.686 48.74 89.783 80.294 123.932z" fill="#f0a02b"/><path d="m291.58 742.221c6.814-3.969 16.055-3.982 23.369-1.984 10.889 2.979 15.438 14.838 17.637 24.662 1.281 5.727 1.861 11.547 2.115 17.414 1.125-13.395 3.428-26.549 8.07-39.1-11.502-6.672-22.932-15.658-32.65-24.191-6.328 7.582-12.379 15.441-18.541 23.199z" fill="#f0a02b"/><path d="m897.771 266.249c-1.34-.977-2.551-2.018-3.701-3.086 1.818 5.871 4.035 11.426 6.752 16.797 5.169 4.75 10.97 8.838 16.075 12.139 6.152 3.979 13.558 7.193 16.138 14.67 3.141 9.113-8.767 16.463-15.427 19.109-16.483 6.551-36.358 4.734-53.353 1.572-17.189-3.199-34.553-8.555-51.463-9.131-9.229 3.094-18.889 5.09-28.111 8.311 33.979-2.014 74.127 9.738 100.4 13.32 9.637 1.314 20.3 3.137 30.065 2.09 18.173-1.953 46.241-19.342 31.04-42.1-11.65-17.443-32.219-21.912-48.415-33.691z" fill="#f0a02b"/><path d="m737.648 79.254c2.277 8.584 2.682 18.045 3.326 26.34 1.209 15.586 2.371 31.879 11.215 45.27 2.633 3.986 6.74 7.287 11.382 9.582 4.451-.318 8.939-.461 13.428-.355-2.92-1.982-5.65-4.27-8.127-6.963-9.765-10.629-16.085-22.916-19.265-37.029-2.07-9.192-5.691-24.589-11.959-36.845z" fill="#f0a02b"/><path d="m674.066 271.395c7.414 5.977 14.141 12.469 19.5 18.01.766.793 1.561 1.605 2.365 2.428 5.166-7.418 10.494-14.723 15.189-22.461 3.85-6.344 7.189-13 10.559-19.627-6.516 7.051-15.563 12.729-23.455 16.74-7.585 3.855-15.863 5.18-24.158 4.91z" fill="#f0a02b"/><path d="m233.322 845.451c16.17 25.566 19.855 83.182 54.865 92.188 20.289 5.219 31.639-12.107 37.943-32.967-7.713 7.152-17.406 12.361-28.033 12.383-9.008.016-16.777-6.783-22.371-13.049-19.875-22.26-24.074-59.729-9.436-85.363-12.244 7.23-26.512 10.838-40.742 13.016-1.904.293-3.9.6-5.941.902 5.286 2.853 9.957 6.951 13.715 12.89z" fill="#f0a02b"/><path d="m267.305 726.494c10.072-4.248 22.543-9.643 31.949-17.441-.705-.67-1.418-1.348-2.082-1.992-21.83 14.297-48.084 21.643-72.234 30.795-2.482.939-26.602 11.309-19.467 14.705 1.658.789 3.406 1.352 5.207 1.723 1.744-10.481 51.72-25.721 56.627-27.79z" fill="#f0a02b"/><path d="m112.068 753.746c.816-9.432 1.904-19.971 1.117-29.85-4.252-3.41-9.936-5.334-14.947-7.035-15.457-5.242-30.598-15.393-30.115-33.504.199-7.564 4.17-13.441 9.697-17.902-17 2.943-29.662 10.578-27.98 27.389 3.332 33.291 42.305 36.271 60.057 57.848.802.976 1.49 2.013 2.171 3.054z" fill="#f0a02b"/><path d="m297.215 512.404c9.947 45.779 36.768 89.398 68.576 121.973 51.252 52.477 137.625 98.047 209.885 64.41 13.729-10.492 26.758-21.924 39.049-33.426 2.893-2.705 5.775-5.447 8.648-8.211-20.963 2.604-41.789-.998-61.809-8.535-15.475 10.006-34.557 14.359-52.598 16.422-36.52 4.174-72.332-6.625-103.256-25.668-49.263-30.334-81.521-77.316-108.495-126.965z" fill="#f0a02b"/><g fill="#fde334"><path d="m860.812 280.038c-3.162-.137-4.068 3.9-1.918 5.693.096.127.242.311.49.613.586.486 1.174.949 1.82 1.352 1.121.695 2.293 1.186 3.529 1.645 3.121 1.154 7.631.779 9.943-1.748 1.727-1.891 1.711-4.512 0-6.404-1.889-2.086-5.125-2.654-7.832-2.305-1.893.242-4.1.438-5.967 1.156-.021 0-.044-.002-.065-.002z"/><path d="m700.432 108.016c-.014-.07-.012-.139-.023-.209-.069-.166-.085-.174.023.209z"/><path d="m700.072 102.483c-.047.986-.02 2.002.072 2.986.027.787.125 1.564.264 2.338.229.58 1.176 3.449.783 1.904 1.084 4.238 6.244 5.127 9.26 2.445-.693.668-.355.432 1.01-.713 1.152-.986 1.664-2.043 2.229-3.428.639-1.564.816-3.09 1.004-4.777.201-1.795-.127-4.361-1.148-5.889-.83-1.244-1.588-2.143-2.824-3.012 1.359.957-.703-.541-1.127-.859-2.289-1.734-5.975-.395-7.273 1.908-.391.615-.348.621.129.016-.605.549-1.043 1.199-1.309 1.947-.744 1.734-.982 3.278-1.07 5.134z"/><path d="m701.568 227.846c12.748-9.004 13.43-26.799 14.99-41.273 2.131-19.768 4.26-41.922-7.23-59.244-1.424-2.148-5.34-2.17-5.916.773-3.607 18.385-2.686 37.377-5.57 55.939-2.158 13.9-8.896 29.332-1.539 42.424.961 1.713 3.57 2.578 5.265 1.381z"/><path d="m558.861 377.815c19.127 22.66 45.439 50.355 75.738 55.77 3.289.59 7.246-2.91 4.834-6.289-16.361-22.928-42.262-38.146-61.77-58.545-22.402-23.428-37.037-52.992-59.477-76.186-2.336-2.416-5.637.15-5.172 3.01 5.125 31.441 25.779 58.468 45.847 82.24z"/><path d="m227.063 697.303c3.105-2.027 1.652-6.199-1.779-6.57-12.486-1.354-23.895.875-36.168 2.971-15.697 2.68-30.994 1.033-46.727.555-3.059-.092-4.51 3.809-2.441 5.896 20.306 20.501 65.603 11.202 87.115-2.852z"/><path d="m428.492 582.078c3.426 1.953 6.791-2.547 4.143-5.369-18.975-20.199-38.705-40.287-55.131-62.652-17.021-23.179-25.129-49.359-37.934-74.613-1.41-2.785-5.572-1.342-5.631 1.525-1.138 55.77 48.811 115.043 94.553 141.109z"/><path d="m444.779 586.783c-2.047-.654-4.023 1.451-3.451 3.453.145-.785.123-.568-.063.654.01.574.121 1.129.338 1.656.346 1.039.613 2.033 1.076 3.047.951 2.08 2.373 3.656 4.148 5.063 2.43 1.92 5.66 2.381 8.041 0 2.088-2.088 2.328-5.992 0-8.041-1.664-1.465-3.203-2.934-5.104-4.109-.756-.467-1.586-.744-2.375-1.131-.889-.436-1.784-.33-2.61-.592z"/><path d="m250.004 683.266c-2.924-1.66-6.113-.988-9.021.373-1.113.52-2.072 1.094-3.072 1.805-1.119.795-1.629 1.836-2.557 2.766-1.756 1.764-1.221 5.734 1.619 6.135 1.23.174 2.277.84 3.566.805 1.406-.033 2.758-.168 4.148-.418 2.74-.492 5.949-1.871 7.133-4.535 1.108-2.498.778-5.459-1.816-6.931z"/><path d="m298.008 832.607c-5.201 6.508-6.748 15.168-7.803 23.289-1.547 11.904-.973 20.063 5.842 30.035 1.564 2.289 5.451 2.225 6.182-.807 2.158-8.943 3.285-16.381 3.666-25.652.35-8.564 1.182-18.58-3.195-26.26-.878-1.538-3.477-2.124-4.692-.605z"/><path d="m784.341 286.2c-3.119 2.164-1.125 6.502 2.496 5.92 20.096-3.236 41.814.641 61.125-5.377 2.938-.916 3.684-5.037.867-6.641-19.115-10.887-46.879-6.109-64.488 6.098z"/></g><path d="m303.385 672.125c4.436 14.906 11.27 29.32 19.576 42.344 22.02 18.391 49.422 36.057 61.34 22.197-29.789-14.686-57.981-37.256-80.916-64.541z" fill="#ff564d"/><path d="m684.922 312.317c11.223 11.035 21.355 23.184 30.098 36.291 7.988 11.971 15.205 24.914 21.213 38.447 7.494-17.131-4.465-37.818-19.195-55.732-9.559-6.967-20.534-13.832-32.116-19.006z" fill="#ff564d"/><path d="m609.619 612.053c-51.832-3.432-95.863-35.543-130.572-71.809-32.504-33.961-57.141-75.781-71.443-120.482-6.934-21.664-10.41-44.162-10.666-66.873-.113-10.023 1.186-19.568 2.945-29.002-9.193 7.666-18.119 15.59-26.797 23.52-6.797 6.213-13.553 12.598-20.211 19.127-4.92 36.078 17.678 77.867 35.053 107.543 19.633 33.535 43.371 64.548 70.73 92.166 42.893 43.293 107.527 97.02 173.404 82.422 13.559-13.438 26.785-27.553 39.25-42.314-19.839 4.729-40.242 7.12-61.693 5.702z" fill="#584abb"/><path d="m505.051 737.465c-45.846-5.348-89.811-20.146-129.676-43.982-41.893-25.047-76.949-61.102-98.115-105.182-8.77-18.264-14.369-38.662-17.23-59.027-3.277 102.9 93.742 210.682 195.027 215.063 17.431.753 34.082-1.866 49.994-6.872z" fill="#584abb"/><path d="m589.787 329.85c-13.857-13.047-24.387-28.426-35.029-43.756 14.436 32.471 39.928 61.838 63.426 85.877 35.498 36.309 76.463 69.455 123.213 90.127.191-20.352-3.75-40.768-10.93-60.395-21.389-4.299-42.602-10.904-63.986-20.609-28.001-12.707-54.329-30.189-76.694-51.244z" fill="#584abb"/><path d="m428.203 336.2c-3.393 44.355 17.725 90.699 40.619 127.49 23.926 38.439 54.764 69.726 97.426 85.589 3.5 1.299 6.15-3.715 3.57-6.135-31.301-29.381-62.695-59.99-85.807-96.406-22.375-35.262-32.813-74.602-49.908-112.139-1.423-3.124-5.685-1.222-5.9 1.601z" fill="#9588f3"/><path d="m576.098 554.189c.17.33.344.658.518.986-.117-.879-.232-1.76-.348-2.639-.744 5.086 3.463 8.27 7.211 10.945 2.027 1.447 4.881 2.271 7.209 3.09 3.078 1.084 5.725.043 8.178-1.793 1.445-1.082 2.264-2.928 1.215-4.629-.979-1.58-1.857-3.34-3.523-4.314-1.781-1.043-3.969-1.408-5.852-2.244-3.512-1.563-8.08-4.609-12.045-3.449.883.113 1.764.229 2.643.346-.34-.162-.682-.322-1.023-.48-2.752-1.297-5.67 1.344-4.183 4.181z" fill="#9588f3"/><path d="m273.963 541.133c.279 12.645 6.139 25.486 10.982 37.006 4.918 11.689 10.746 23.215 21.563 30.326 3.094 2.035 5.689-1.785 4.529-4.527-4.971-11.752-12.209-22.365-17.338-34.104-4.541-10.389-7.24-21.957-14.395-30.912-1.747-2.195-5.398-.326-5.341 2.211z" fill="#9588f3"/><path d="m315.338 619.424c-.117 2.756 1.975 4.676 3.787 6.467 1.877 1.857 4.039 3.047 6.643 3.459 2.492.395 4.246-1.357 3.85-3.85-.592-3.725-2.828-5.924-5.703-8.133-2.581-1.984-8.39-2.365-8.577 2.057z" fill="#9588f3"/><path d="m585.889 299.114c12.867 11.422 27.945 20.648 41.332 31.566 13.699 11.178 24.768 21.492 40.637 29.379 3.203 1.596 6.824-1.658 4.971-4.971-15.535-27.779-50.945-59.982-84.881-60.947-2.462-.07-3.969 3.279-2.059 4.973z" fill="#9588f3"/><path d="m300.803 789.053c-3.666 1.879-6.178 3.828-9.029 6.789-1.213 1.262-2.311 2.619-3.584 3.83-1.104 1.049-2.486 1.582-3.271 2.932-.055.094-.045.232.041.307 2.363 2.111 6.512-.367 8.615-1.811 1.793-1.234 3.697-2.961 4.9-4.789 1.338-2.035 2.055-4.285 3.115-6.471.254-.522-.258-1.059-.787-.787z" fill="#68182b"/><path d="m487.492 574.871c-18.383-16.703-34.711-35.209-51.164-53.76-.197-.221-.529.061-.396.307 21.352 39.104 57.193 71.213 94.672 94.383.695.432 1.465-.564.871-1.129-14.356-13.668-29.307-26.467-43.983-39.801z" fill="#68182b"/><path d="m543.832 621.064c-.83-.828-2.043-1.324-3.043-1.908-1.641-.961-3.346-1.48-5.201-1.469-.158 0-.33.176-.262.342.678 1.619 1.557 2.734 3.016 3.824.936.699 1.955 1.414 3.037 1.865 1.258.521 2.15.215 3.463.307.494.035.633-.572.367-.891-.541-.642-.775-1.464-1.377-2.07z" fill="#68182b"/><path d="m488.824 367.934c-9.273-18.654-13.346-38.984-21.822-57.742-.166-.369-.684-.148-.705.191-1.191 19.191 8.029 40.068 15.627 57.252 10.207 23.09 23.621 44.014 40.682 62.574.549.596 1.496-.172 1.104-.85-11.761-20.37-24.411-40.347-34.886-61.425z" fill="#68182b"/><path d="m635.77 378.018c10.588 14.762 25.291 26.805 39.447 37.988 15.281 12.078 32.133 25.137 51.211 30.092.635.164 1.193-.672.666-1.143-13.592-12.1-30.154-20.654-45.006-31.166-15.922-11.273-30.092-24.873-46.023-36.066-.172-.121-.419.121-.295.295z" fill="#68182b"/><path d="m320.707 540.398c-7.852-17.473-10.781-35.975-16.986-53.882-.123-.354-.605-.281-.635.086-1.561 18.781 5.426 38.89 12.018 56.16 7.609 19.934 19.063 37.629 32.787 53.838.41.482 1.129-.135.848-.654-9.829-18.257-19.528-36.632-28.032-55.548z" fill="#68182b"/><path d="m304.188 481.268c.797-3.381 1.145-8.096-.82-11.1-.207-.313-.635-.313-.842 0-2.031 3.1-1.525 8.107.182 11.293.327.61 1.319.481 1.48-.193z" fill="#68182b"/></g></g></svg>