<svg id="Travel" height="512" viewBox="-70.866 -70.866 850.394 850.394" width="512" xmlns="http://www.w3.org/2000/svg">
    <g>
        <path d="m69.483 577.956c15.203 136.199 173.043 114.785 195.441 25.352 62.355 1.992 120.863 1.457 185.988-1.059 14.461 70.234 117.836 97.598 166.163 45.438 16.797-17.516 26.727-41.918 29.652-72.762 71.91-40.09 35.219-170.984 22.648-196.738-6.348-10.27-2.453-11.234 6.047-16.953 29.582-23.136 35.746-73.042 22.773-103.371-13.875-32.426-45.852-51.781-85.551-51.781-12.547 0-25.19 1.949-37.183 5.578-2.152-4.918-4.344-9.945-6.578-15.102-12.66-35.137-36.16-71.129-76.063-78.34-5.313-21.477-16.164-46.406-41.699-62.66-39.328-23.742-73.398-20.887-108.289-21.84-63.469-3.844-118.113 28.637-129.887 88.156-41.895 14.309-69.656 48.152-84.043 88.051-40.664-11.086-90.281 2.285-112.109 36.418-26.75 42.43-9.457 104.453 33.137 125.292-28.834 65.981-42.502 178.024 19.553 206.321z"
              fill="none"/>
        <g>
            <path d="m65.374 465.058c-3.172 27.992-5.449 71.766 29.277 81.727 3.949 1.133 7.973 2.063 11.973 3.039-.898 37.078 7.504 82.238 51.41 86.141 22.637 2.02 41.535-3.953 58.031-20.023 12.426-12.109 14.941-34.238 16.078-52.262 3.836.172 7.688.336 11.492.508 69.07 3.086 138.367 2.48 207.43-.242 10.855-.43 21.754-.902 32.66-1.438 1.082 17.105 3.305 37.336 13.633 50.273 13.02 16.316 32.941 24.121 53.367 23.824 48.925-.707 59.687-46.359 58.569-87.512 64.98-13.664 41.852-112.871 24.48-156.871-7.488-19-19.25-33.031-33.355-47.035 18.379.02 37.344-3.082 51.43-14.098 14.688-11.488 17.988-42.223 11.168-58.172-16.68-38.973-77.019-34.207-106.042-8.816-7.91-17.371-15.629-34.836-23.211-52.344-4.988-11.531-9.352-22.961-15.891-32.805-9.242-13.922-17.086-18.457-29.75-22.277-9.203-2.781-18.727-4.926-28.457-6.586-3.176-23.262-7.832-48.715-29.09-62.25-22.207-14.133-47.414-15.145-73.246-15.664-21.32-.43-52.996-1.059-72.371 9.875-27.77 15.668-34.391 39.91-38.477 70.105-25.344 5.145-48.359 15.758-64.793 38.457-14.492 20.023-22.313 47.977-30.676 72.086-28.168-23.887-81.02-26.48-102.594 5.195-10.586 15.535-5.809 45.629 5.781 59.367 13.059 15.48 36.531 18.559 57.578 18.023-3.75 5.719-7.699 11.417-12.074 17.148-22.127 28.97-30.319 67.275-34.33 102.627z"
                  fill="#68182b"/>
            <path d="m209.526 573.831c-3.996 23.262-14.563 42.113-44.313 41.68-28.262-.41-35.836-24.184-37.32-48.133-.641-10.508 4.199-12.223 13.574-10.852 19.465 2.848 39.219 4.465 58.883 5.598 9.321.539 10.977 1.238 9.176 11.707z"
                  fill="#dda96b"/>
            <path d="m588.35 561.569c-.395 21.277-4.578 47.113-25.879 52.656-17.508 4.555-34.988-.832-47.676-13.203-6.547-6.383-8.691-19.078-9.594-30.605-.719-9.059 1.043-9.137 10.246-9.777 20.762-1.43 41.5-3.375 62.059-6.234 11.032-1.552 10.969.659 10.844 7.163z"
                  fill="#dda96b"/>
            <g fill="#ff7a0d">
                <path d="m628.291 505.21c-3.598 22.703-22.348 23.422-39.312 26.223-119.848 19.789-247.613 17.02-368.461 10.52-27.824-1.488-55.691-3.73-83.273-7.75-9.793-1.434-19.512-3.324-29.137-5.617-11.176-2.656-17.301-10.586-20.418-20.73-2.723-8.879 1.223-9.949 10.617-7.594 26.949 6.723 56.797 7.527 83.316 9.457 57.824 4.219 115.922 5.109 173.879 4.945 58.191-.164 116.445-1.848 174.492-6.105 27.66-2.027 58.965-2.898 87.089-9.984 7.844-1.978 12.098.975 11.208 6.635z"/>
                <path d="m574.022 277.015c18.879-13.77 55.608-17.57 68.624 1.523 9.387 13.762-1.227 37.785-15.379 41.91-9.98 2.91-20.414 3.797-30.816 3.613-7.64-.137-12.933-1.684-16.413-9.039-3.492-7.355-6.609-14.898-9.656-21.75-3.215-7.21-4.133-10.593 3.64-16.257z"/>
                <path d="m270.171 137.195c4.188-18.523 12.488-33.555 34.492-39.379 16.914-4.473 35.297-4.465 52.668-4.547 14.117-.066 28.305 1.066 42.188 3.59 21.891 3.98 31.453 20.09 36.234 38.781 2.953 11.578-1.082 10.969-15.715 10.168-32.418-1.785-65.477-.152-95.551.75-12.688.379-25.824.52-38.91 1.188-13.234.668-18.024 1.05-15.406-10.551z"/>
                <path d="m111.514 323.851c-7.395-.02-14.766-.582-22.305-1.816-19.266-3.164-24.414-14.945-24.984-32.898-1.023-32.039 49.051-26.063 71.105-11.461 7.723 5.113 5.465 11.934 1.707 20.473-2.266 5.168-4.609 10.211-7.059 15.176-4.62 9.35-7.1 10.557-18.464 10.526z"/>
            </g>
            <path d="m189.932 306.929c2.867-17.129 7.738-33.902 13.797-50.152 7.172-19.234 18.199-38.641 36.137-49.504 10.215-6.184 25.438-6.766 36.859-8.051 35.977-4.043 72.586-4.109 108.723-3.039 29.191.867 69.25-1.414 92.426 19.336 14.707 13.172 22.746 34.215 28.992 52.344 2.938 8.551 10.598 27.781 10.27 42.117-.313 14.121-9.977 16.75-21.926 19.313-54.883 11.734-118.105 6.926-172.641 6.039-33.738-.547-67.613-1.945-101.129-6.055-13.664-1.676-34.949-1.774-31.508-22.348z"
                  fill="#e5e5e5"/>
            <path d="m133.249 421.698c2.746-5.215 7.047-7.789 13.465-8.102 15.016-.73 34.508 9.242 45.559 14.047 7.695 3.344 53.688 31.199 24.789 37.395-15.461 3.316-32.535 2.223-48.191 1.445-10.246-.508-20.402-1.859-30.434-3.977-17.239-3.628-12.165-27.558-5.188-40.808z"
                  fill="#ff2e60"/>
            <path d="m570.503 413.886c7.691 1.063 8.363 3.035 10.953 7.699 6.461 11.648 11.023 30.832-.211 39.402-6.484 4.957-22.301 4.422-29.734 5.094-15.918 1.449-32.09 1.277-47.988-.191-11.16-1.035-19.523-8.852-9.844-20.488 5.848-7.012 15.559-11.324 23.547-15.359 11.839-5.978 36.585-18.454 53.277-16.157z"
                  fill="#ff2e60"/>
            <path d="m624.314 433.616c-4.785-21.332-11.289-44.988-26.57-61.496-7.179-7.758-15.511-14.16-21.245-23.148-17.008-26.656-29.832-56.172-42.68-84.98-8.129-18.223-15.82-48.332-29.281-68.645-7.863-11.867-16.539-17.254-32.762-21.234-49.242-12.094-106.973-8.434-155.625-6.141-28.848 1.355-59.117 2.301-87.141 9.91-33.52 9.105-44.098 55.184-54.813 83.406-10.645 28.039-19.875 58.645-35.363 84.535-20.438 34.148-43.449 59.449-49.902 100.945-.926 5.926-2.281 13.98-3.164 22.742-1.074 10.531 1.836 14.645 11.227 17.309 30.043 8.504 64.156 9.004 94.18 10.891 56.617 3.559 113.406 4.645 170.129 4.27 56.25-.367 112.59-1.777 168.691-6.078 26.617-2.035 56.262-2.828 83.222-9.465 9.676-2.379 15.977-6.77 15.438-18.383-.556-11.598-1.81-23.153-4.341-34.438zm-416.073-213.097c22.504-30.707 53.113-33.434 88.836-35.688 45.117-2.84 91.484-3.586 136.434 2.004 36.77 4.578 60.664 18.648 76.301 54.082 8.383 19.008 25.219 54.18 18.555 78.238-4.059 14.68-12.117 17.316-25.172 20.199-30.824 6.82-64.16 7.039-95.156 8.02-47.742 1.504-95.699 1.469-143.387-1.582-18.641-1.195-73.563 2.219-83.926-18.727-14.04-28.374 10.39-83.175 27.515-106.546zm17.773 255.332c-29.125 8.523-66.398 5.176-95.398-2.281-24.043-6.184-17.195-40.914-7.305-59.418 4.668-8.723 10.281-11.918 20.32-13.051 24.359-2.777 57.879 14.539 74.332 25.852 12.614 8.675 35.106 40.98 8.051 48.898zm221.168-18.657c-3.52 10.863-10.422 16.559-21.805 19.91-11.367 3.332-24.957 3.586-35.188 4.309-25.016 1.781-50.391 2.281-75.402.066-13.164-1.172-35.055-.957-45.188-11.219-12.402-12.578-13.051-30.809.094-42.895 11.555-10.625 36.164-9.391 50.387-10.07 25.344-1.215 50.898-1.555 76.227.184 13.527.938 31.602.477 42.402 10.238 9.134 8.255 11.774 19.282 8.473 29.477zm132.395 17.516c-28.172 5.945-62.879 9.355-90.945 1.141-10.258-3.008-14.352-17.203-11.18-26.473 4-11.688 12.98-19.234 23.664-25.129 18.727-10.336 52.512-29.051 76.109-22.004 9.055 2.703 10.625 4.828 15.18 13.625 10.519 20.363 13.663 53.258-12.828 58.84z"
                  fill="#ffc522"/>
            <path d="m430.464 460.905c-17.617 12.215-52.563 8.902-72.582 9.238-23.559.395-57.781 3.254-79.117-8.684-11.148-6.242-1.457-25.938 9.34-28.305 5.688-1.246 11.566-1.676 17.352-2.215 15.824-1.469 31.777-1.762 47.66-1.891 15.98-.141 31.965.316 47.91 1.414 9.55.658 54.612 4.475 29.437 30.443z"
                  fill="#00ebed"/>
            <path d="m278.764 461.46c21.336 11.938 55.559 9.078 79.117 8.684 20.02-.336 54.965 2.977 72.582-9.238 6.875-7.09 8.492-12.523 7.043-16.703-14.785 20.73-48.668 17.168-72.18 18.121-14.789.602-29.445-.262-44.188-1.258-16.156-1.094-40.473-3.277-43.563-19.715-4.58 6.914-5.834 16.179 1.189 20.109z"
                  fill="#19bfbb"/>
            <path d="m409.647 439.351c-12.34-1.285-29.09-1.902-45.707-2.055-23.098-.219-45.93.461-56.313 1.488-14.297 1.41-19.02 7.477-.477 9.156 13.242 1.199 32.965 2.016 52.473 1.535 18.898-.473 38.918-1.496 50.961-3.09 12.887-1.706 8.93-6.007-.937-7.034z"
                  fill="#6cfffb"/>
            <path d="m138.436 462.507c10.031 2.117 20.188 3.469 30.434 3.977 15.656.777 32.73 1.871 48.191-1.445 9.836-2.109 10.984-6.73 7.934-12.035-9.383 11.93-37.27 10.496-48.52 9.715-12.375-.855-25.895-3.723-36.887-9.676-.965-.52-1.719-1.191-2.539-1.82-2.094-1.797-3.926-3.836-5.449-6.129-1.738-3.039-2.773-6.473-3.391-10.047-2.988 11.991-2.054 24.87 10.227 27.46z"
                  fill="#ea0f4d"/>
            <path d="m503.522 465.89c15.898 1.469 32.07 1.641 47.988.191 7.434-.672 23.25-.137 29.734-5.094 6.633-5.059 7.688-13.816 6.164-22.539-9.945 11.852-30.051 16.559-44.441 17.547-14.105.965-39.328 3.996-52.512-5.465-3.741 8.762 3.645 14.485 13.067 15.36z"
                  fill="#ea0f4d"/>
            <path d="m199.401 441.772c-12.297-7.113-32.504-17.266-45.559-19.211-12.535-1.879-15.398 10.738-9.902 16.387 2.605 2.684 6.742 4.359 11.586 5.676 13.273 3.613 27.207 5.301 41.008 4.984 8.406-.191 15.73-.382 2.867-7.836z"
                  fill="#f69"/>
            <path d="m549.268 423.44c-11.754 4.77-24.957 10.273-36.379 17.129-5.676 3.402-5.09 6.27 1.402 6.16 14.238-.238 39.48-1.313 52.082-5.836 7.758-2.773 8.898-9.207 5.52-14.66-4.515-7.261-15.312-5.765-22.625-2.793z"
                  fill="#f69"/>
            <path d="m642.646 278.539c-1.133-1.664-2.504-3.094-3.973-4.418 5.859 17.07-4.938 31.953-23.641 37.695-18.883 5.793-32.487-4.602-44.042-17.152 2.852 6.484 5.785 13.48 9.047 20.359 3.48 7.355 8.773 8.902 16.413 9.039 10.402.184 20.836-.703 30.816-3.613 14.154-4.125 24.767-28.149 15.38-41.91z"
                  fill="#ef6200"/>
            <path d="m285.577 147.746c13.086-.668 26.223-.809 38.91-1.188 30.074-.902 63.133-2.535 95.551-.75 14.633.801 18.668 1.41 15.715-10.168-1.465-5.719-3.457-11.129-6.027-16.09.238 1.844.527 3.652.582 5.625.473 18.855-18.762 15.082-28.418 14.82-16.703-.453-33.395-.742-50.105-.645-17.109.098-34.219.129-51.328.605-18.75.516-22.504-8.832-23.051-22.246-3.375 5.766-5.621 12.359-7.234 19.484-2.619 11.603 2.171 11.221 15.405 10.553z"
                  fill="#ef6200"/>
            <path d="m627.525 508.831c-15.496 12.324-33.776 14.996-54.19 17.895-22.207 3.156-44.555 5.328-66.906 7.172-48.191 3.988-96.59 5.781-144.934 6.32-49.73.555-99.508-.719-149.129-4.098-23.004-1.57-45.949-3.824-68.816-6.746-14.676-1.879-35.125-3.637-50.824-11.02 3.527 4.938 8.488 8.59 15.383 10.23 9.625 2.293 19.344 4.184 29.137 5.617 27.582 4.02 55.449 6.262 83.273 7.75 120.848 6.5 248.613 9.27 368.461-10.52 16.01-2.643 33.588-3.452 38.545-22.6z"
                  fill="#ef6200"/>
            <path d="m64.569 284.171c-.246 1.555-.398 3.18-.344 4.965.57 17.953 5.719 29.734 24.984 32.898 7.539 1.234 14.91 1.797 22.305 1.816 11.363.031 13.844-1.176 18.465-10.527 2.168-4.398 4.227-8.887 6.25-13.441-12.805 9.633-25.125 16.086-44.164 12.543-16.183-3.011-23.551-14.648-27.496-28.254z"
                  fill="#ef6200"/>
            <path d="m385.257 103.554c-21.355-2.867-50.469-1.832-68.074 2.258-22.27 5.152-26.129 13.457-.445 14.824 20.742 1.105 56.223-.277 69.785-.832 28.503-1.156 25.675-12.621-1.266-16.25z"
                  fill="#ffb85a"/>
            <path d="m117.885 279.355c-10.824-4.074-24.828-6.883-34.605-2.727-11.813 5.023-5.324 14.961 3.43 19.449 7.23 3.715 24.918 4.371 34.566.16 9.547-4.163 5.899-13.394-3.391-16.882z"
                  fill="#ffb85a"/>
            <path d="m615.146 275.218c-9.426-.469-19.367 1.531-27.069 5.418-5.949 3-6.289 8.602-.832 12.316 6.887 4.684 17.604 8.188 25.991 6.563 4.684-.906 9.945-3.496 13.387-7.129 8.195-8.629-3.719-16.777-11.477-17.168z"
                  fill="#ffb85a"/>
            <path d="m626.873 499.812c-1.805-1.82-5.148-2.414-9.789-1.238-28.124 7.086-59.429 7.957-87.089 9.984-58.047 4.258-116.301 5.941-174.492 6.105-57.957.164-116.055-.727-173.879-4.945-26.52-1.93-56.367-2.734-83.316-9.457-5.582-1.398-9.188-1.535-10.668.402 35.18 15.191 81.016 14.25 117.027 15.844 55.465 2.441 111.109 5.301 166.629 5.762 54.379.457 109.793-2.602 163.953-7.5 19.695-1.785 39.332-4.766 58.902-7.648 10.937-1.606 22.175-3.618 32.722-7.309z"
                  fill="#ffb85a"/>
            <path d="m184.249 260.582c-4.211 11.75-8.293 26.23-7.367 39.313 2.336-28.145 18.789-62.219 31.359-79.375 22.504-30.707 53.113-33.434 88.836-35.688 45.117-2.84 91.484-3.586 136.434 2.004 36.77 4.578 60.664 18.648 76.301 54.082 8.383 19.008 25.219 54.18 18.555 78.238-.492 1.777-1.047 3.363-1.66 4.809 13.711-17.953 1.172-53.094-6.027-70.832-12.125-29.859-27.203-55.012-58.625-66.395-37.18-13.469-83.164-10.508-122.02-9.652-31.156.68-67.773-2.336-96.969 10.879-32.302 14.613-47.243 40.32-58.817 72.617z"
                  fill="#ffa222"/>
            <path d="m123.311 414.151c4.668-8.723 10.281-11.918 20.32-13.051 24.359-2.777 57.879 14.539 74.332 25.852 9.164 6.301 23.445 25.043 20.258 37.875 12.625-15.773-17.707-41.406-30.195-49.219-17.988-11.254-67.32-33.492-84.168-9.082-7.629 11.051-15.691 37.293-8.137 52.391-4.035-13.469 1.086-32.605 7.59-44.766z"
                  fill="#ffa222"/>
            <path d="m444.327 463.604c10.402-13.313 4.371-37.438-12.734-43.871-20.77-7.816-45.563-7.512-67.461-7.805-26.449-.348-53.848.43-79.902 5.313-25.797 4.84-32.895 33.699-17.688 49.32-9.238-12.273-8.766-28.238 3.152-39.195 11.555-10.625 36.164-9.391 50.387-10.07 25.344-1.215 50.898-1.555 76.227.184 13.527.938 31.602.477 42.402 10.238 9.133 8.254 11.773 19.281 8.473 29.477-.774 2.386-1.743 4.488-2.856 6.409z"
                  fill="#ffa222"/>
            <path d="m588.643 401.448c-24.379-17.105-67.375 5.887-89.043 18.809-7.844 4.672-19.57 11.699-22.141 21.258-1.168 4.336-1.809 9.934-1.023 15.121-.055-2.551.258-5.051 1.016-7.258 4-11.688 12.98-19.234 23.664-25.129 18.727-10.336 52.512-29.051 76.109-22.004 9.055 2.703 10.625 4.828 15.18 13.625 7.245 14.023 10.987 33.98 3.968 46.883 12.176-15.371 6.25-51.496-7.73-61.305z"
                  fill="#ffa222"/>
            <path d="m619.674 415.257c1.953 19.844.906 39.836-7.594 55.492-6.742 12.43-29.093 12.023-40.796 13.309-15.609 1.719-31.262 3.02-46.926 4.172-63.695 4.707-127.695 6.02-191.539 5.867-49.652-.117-99.371-1.066-148.945-3.969-20.016-1.172-40.434-1.945-60.172-5.531-19.277-3.508-31.25-12.789-36.527-26.371-.508 3.539-1.008 7.32-1.406 11.285-1.074 10.531 1.836 14.645 11.227 17.309 30.043 8.504 64.156 9.004 94.18 10.891 56.617 3.559 113.406 4.645 170.129 4.27 56.25-.367 112.59-1.777 168.691-6.078 26.617-2.035 56.262-2.828 83.222-9.465 9.676-2.379 15.977-6.77 15.438-18.383-.555-11.598-1.809-23.152-4.34-34.438-1.346-6.005-2.869-12.196-4.642-18.36z"
                  fill="#fbe134"/>
            <path d="m524.964 327.324c-4.578 7.641-11.66 9.797-21.77 12.031-30.824 6.82-64.16 7.039-95.156 8.02-47.742 1.504-95.699 1.469-143.387-1.582-18.641-1.195-73.563 2.219-83.926-18.727-.711-1.43-1.25-2.969-1.766-4.523 1.332 10.156 6.344 19.316 17.215 22.883 34.848 11.433 75.445 10.187 111.711 10.964 44.148.949 88.309-1.426 132.402-3.277 24.746-1.039 56.18-1.078 77.289-15.883 4.52-3.172 6.751-6.547 7.388-9.906z"
                  fill="#fbe134"/>
            <path d="m276.725 199.222c-11.422 1.285-26.645 1.867-36.859 8.051-15.734 9.535-26.148 25.633-33.313 42.43 11.898-16.289 25.844-30.504 44.266-37.305 30.121-11.125 69.281-6.793 100.73-6.262 38.113.645 84.914-3.102 120.055 14.207 9.32 4.59 17.184 11.5 24.035 19.695-4.648-9.25-10.355-17.887-17.766-24.52-23.176-20.75-63.234-18.469-92.426-19.336-36.136-1.069-72.745-1.003-108.722 3.04z"
                  fill="#c6c6c6"/>
            <path d="m478.612 282.968c-3.641-7.891-8.18-17.199-14.566-23.531-13.508-13.398-71.246-18.207-110.586-19.07-32.648-.719-65.695 1.457-89.418 6.797-17.918 4.035-33.047 18.23-39.602 35.418-7.469 19.574 8.031 23.84 24.836 26.586 37.539 6.137 153.102 7.223 218.797-.387 18.457-2.137 17.309-11.121 10.539-25.813z"
                  fill="#f4f4f4"/>
            <path d="m205.229 589.854c1.945-4.938 3.324-10.34 4.297-16.023 1.801-10.469.145-11.168-9.176-11.707-19.664-1.133-39.418-2.75-58.883-5.598-9.375-1.371-14.215.344-13.574 10.852.02.277.047.555.066.828 29.333-.019 58.716 2.856 77.27 21.648z"
                  fill="#c48d51"/>
            <path d="m505.202 570.417c.398 5.047 1.063 10.297 2.195 15.16 18.848-18.066 51.563-22.531 80.91-22.387.012-.539.031-1.086.043-1.621.125-6.504.188-8.715-10.844-7.164-20.559 2.859-41.297 4.805-62.059 6.234-9.202.641-10.964.719-10.245 9.778z"
                  fill="#c48d51"/>
            <path d="m565.499 573.21c-6.453.648-12.715 2.402-18.898 4.688-5.645 2.098-13.441 4.992-17.133 10.035-8.563 11.691 6.762 16.129 16.098 17.406 12.703 1.742 24.41-2.195 29.07-14.645.711-1.898 1.691-6.133 1.73-10.008.055-6.796-4.922-8.082-10.867-7.476z"
                  fill="#f4c38e"/>
            <path d="m184.28 584.655c-14.734-10.164-50.465-16.785-44.152 3.57 3.977 12.824 17.898 17.148 29.898 17.879 7.016.43 15.918-1.938 19.398-7.691 3.352-5.547-1.078-10.945-5.144-13.758z"
                  fill="#f4c38e"/>
        </g>
    </g>
</svg>