<svg id="Travel" height="512" viewBox="0 0 1000 1000" width="512" xmlns="http://www.w3.org/2000/svg">
    <g>
        <path d="m184.428 512.801c31.942 101.357 64.971 206.168 99.344 308.723 3.364 10.027 12.598 16.764 22.975 16.764h.002c2.436 0 4.854-.375 7.183-1.115 35.063-11.146 70.116-22.336 105.159-33.545-.59 44.65-.904 82.977-.98 118.961-.023 13.115 10.67 23.979 23.838 24.217 60.826 1.08 121.654 2.063 182.48 2.973 46.424.695 92.853 1.336 139.281 1.834 6.966.072 14.393.439 22.257.83 9.617.477 19.562.967 29.662.967 16.489 0 40.901-1.184 62.442-11.414 36.943-17.555 37.164-64.182 37.295-92.041.011-2.141.02-4.203.045-6.164.176-13.658.184-27.318.193-40.979l.014-13.773c.146-74.916.146-149.838.13-224.754-.005-19.457.036-38.92.079-58.385.102-48.416.207-98.479-.426-147.857-.645-37.383-1.621-93.873-62.137-105.189-10.119-1.891-21.344-2.771-35.328-2.771-6.352 0-12.721.172-19.043.346-5.648.152-11.258.311-16.777.322-26.716.059-53.432.076-80.15.084h-7.15c-18.104 0-78.535-.066-78.535-.066-11.614-34.338-23.235-68.67-34.944-102.973-1.151-3.375-2.282-6.783-3.421-10.205-7.061-21.254-14.359-43.232-27.777-62.931-8.721-12.803-25.542-28.065-56.167-28.065-26.864 0-55.765 11.618-78.983 20.956-7.275 2.926-14.146 5.687-19.771 7.596-100.157 33.976-200.658 67.753-294.352 99.192-12.764 4.287-19.738 17.945-15.549 30.449 34.251 102.2 67.222 206.829 99.111 308.013z"
              fill="none"/>
        <g>
            <path d="m442.619 583.719c-.335 0-.665-.131-.915-.377-10.308-10.125-19.786-23.139-28.167-38.676-.342-.635-.105-1.424.524-1.768 9.051-4.934 18.864-9.135 29.163-12.482.133-.043.27-.064.404-.064.277 0 .549.09.778.258.339.252.535.652.526 1.072l-1.01 50.758c-.01.52-.328.984-.813 1.182-.157.062-.324.097-.49.097z"
                  fill="#67d8eb"/>
            <path d="m351.616 433.066c-6.772 0-13.656-.43-20.46-1.279-.35-.043-.664-.225-.877-.504s-.305-.631-.255-.979c3.737-25.869 17.135-50.307 35.837-65.365.238-.191.528-.291.818-.291.236 0 .475.066.686.195.471.291.709.85.59 1.389-1.219 5.623-1.981 12.162-2.27 19.436-.541 13.811.614 28.967 3.438 45.049.063.355-.026.725-.245 1.012-.218.291-.549.475-.908.514-5.409.548-10.912.823-16.354.823z"
                  fill="#67d8eb"/>
            <path d="m340.162 498.141c-.543 0-1.049-.342-1.235-.879-4.575-13.209-7.71-26.686-9.315-40.059-.684-5.674-.859-11.6-.529-17.611.021-.361.189-.697.469-.928.235-.197.531-.307.836-.307.054 0 .105.006.16.012 7.029.865 14.137 1.305 21.123 1.305 5.932 0 11.918-.318 17.794-.939.045-.006.092-.01.14-.01.609 0 1.148.43 1.274 1.041 2.809 13.475 6.692 27.725 11.88 43.566.223.686-.148 1.42-.832 1.645-15.464 5.109-29.004 9.396-41.389 13.107-.128.039-.253.057-.376.057z"
                  fill="#67d8eb"/>
            <path d="m377.489 430.984c-.607 0-1.149-.428-1.274-1.041-4.779-23.049-8.939-52.098 1.391-72.313.125-.221.588-.863.811-.98 2.855-1.508 5.909-2.852 9.075-3.992.144-.051.292-.078.442-.078.106 0 .215.014.318.041 14.52 3.645 35.979 35.252 36.191 35.568 3.955 5.871 7.826 12.473 11.83 20.176.324.625.098 1.393-.515 1.738-18.756 10.617-38.29 17.639-58.058 20.863-.069.013-.141.018-.211.018z"
                  fill="#67d8eb"/>
            <path d="m377.48 560.768c-.342 0-.682-.135-.938-.396-14.027-14.488-25.91-33.303-34.359-54.406-.136-.34-.125-.723.035-1.053s.449-.578.801-.684c12.338-3.709 25.756-7.963 41.02-13.006.135-.045.275-.068.41-.068.541 0 1.047.342 1.234.881 1.35 3.928 2.719 7.816 4.104 11.648 4.963 13.713 9.779 25.412 14.727 35.768.287.604.072 1.328-.499 1.678-8.983 5.482-17.616 11.977-25.655 19.297-.251.227-.565.341-.88.341z"
                  fill="#67d8eb"/>
            <path d="m322.002 430.398c-4.693-.844-9.587-1.957-14.957-3.402-.353-.098-.649-.336-.818-.66-.168-.326-.193-.705-.07-1.049 8.402-23.072 23.285-42.719 43.045-56.822.229-.162.494-.242.758-.242.359 0 .717.15.974.438.445.498.44 1.248-.005 1.744-14.352 15.883-24.083 36.803-27.404 58.902-.052.35-.242.662-.531.869-.223.158-.49.244-.76.244-.078 0-.156-.006-.232-.022z"
                  fill="#67d8eb"/>
            <path d="m304.369 508.152c-.58 0-1.108-.389-1.262-.975-3.186-12.055-4.791-24.424-4.775-36.764.018-12.492 1.68-24.693 4.939-36.26.162-.574.687-.953 1.258-.953.112 0 .229.016.344.047 5.984 1.631 11.422 2.871 16.619 3.783.658.117 1.123.711 1.076 1.379l-.08 1.045c-.058.758-.115 1.516-.147 2.277-.739 18.406 2.393 38.32 9.063 57.592.117.336.091.711-.074 1.027-.166.316-.453.553-.795.654-9.213 2.666-17.664 4.992-25.84 7.104-.107.031-.218.044-.326.044z"
                  fill="#67d8eb"/>
            <path d="m356.134 583.98c-.261 0-.522-.078-.749-.234-22.671-15.865-40.28-39.895-49.586-67.664-.116-.342-.082-.717.09-1.035.174-.318.471-.551.822-.641 8.394-2.174 17.006-4.545 26.328-7.252.123-.035.244-.053.365-.053.52 0 1.005.313 1.209.816 8.736 21.574 21.604 41.221 37.207 56.814.508.508.51 1.332.007 1.842-4.947 5.002-9.741 10.529-14.659 16.898-.256.334-.643.509-1.034.509z"
                  fill="#67d8eb"/>
            <path d="m421.041 604.631c-20.593 0-40.068-5.33-57.881-15.84-.32-.191-.549-.51-.617-.877-.072-.369.02-.748.246-1.045 4.514-5.848 9.162-11.188 13.813-15.879.254-.256.588-.387.926-.387.309 0 .616.111.865.328 18.262 16.154 39.359 26.422 61.016 29.693.637.098 1.109.645 1.111 1.289 0 .646-.471 1.195-1.109 1.293-6.133.946-12.313 1.425-18.37 1.425z"
                  fill="#67d8eb"/>
            <path d="m440.221 594.18c-20.897-2.967-40.088-12.195-57.038-27.428-.274-.248-.432-.6-.434-.969 0-.371.157-.725.432-.973 7.339-6.623 15.271-12.572 23.575-17.674.207-.125.445-.193.684-.193.117 0 .233.016.348.047.35.098.642.336.811.658 9.862 18.92 20.553 33.398 32.678 44.266.429.383.555 1.002.313 1.523-.217.465-.682.756-1.184.756-.062 0-.123-.005-.185-.013z"
                  fill="#67d8eb"/>
            <path d="m410.509 537.207c-.133 0-.268-.023-.396-.063-.34-.109-.621-.352-.778-.67-6.627-13.568-12.676-29.156-17.983-46.33-.209-.676.162-1.398.835-1.623 11.452-3.828 22.876-7.715 34.276-11.598l17.827-6.059c.138-.045.276-.07.419-.07.273 0 .543.088.769.252.345.252.544.652.535 1.076l-.207 11.953c-.218 12.615-.437 25.232-.679 37.85-.01.564-.383 1.057-.92 1.223-11.554 3.553-22.682 8.23-33.073 13.898-.194.106-.409.161-.625.161z"
                  fill="#67d8eb"/>
            <path d="m389.958 482.248c-.209 0-.419-.053-.606-.15-.315-.168-.549-.455-.648-.797-3.348-11.645-6.458-24.01-9.788-38.91l-.682-3.068c-.076-.35-.045-.885.157-1.182.2-.297.477-.668.83-.727 20.266-3.357 40.24-10.531 59.371-21.322.198-.109.418-.168.641-.168.131 0 .262.02.39.061.344.105.628.35.784.674 2.117 4.35 4.186 8.713 6.195 13.08.084.178.124.371.119.566l-.535 32.047c-.009.551-.363 1.037-.886 1.215-6.876 2.324-13.759 4.668-20.649 7.016-11.402 3.881-22.826 7.771-34.279 11.598-.136.044-.274.067-.414.067z"
                  fill="#67d8eb"/>
            <path d="m443.204 405.441c-.119 0-.236-.018-.353-.049-.355-.1-.65-.344-.814-.674-9.222-18.477-22.291-41.199-41.658-53.02-.473-.289-.711-.842-.599-1.381.11-.539.551-.951 1.097-1.027 2.976-.416 6.016-.627 9.033-.627 12.328 0 24.797 3.451 37.059 10.256.418.232.676.676.672 1.156-.112 10.695-.261 21.395-.412 32.092l-.146 10.365c-.005.436-.228.838-.594 1.076l-2.591 1.633c-.21.132-.451.2-.694.2z"
                  fill="#67d8eb"/>
            <path d="m446.125 350.895c-.092 0-.184-.021-.271-.064-.414-.201-2.139-.961-2.139-.961-.594-.275-.893-.945-.701-1.568.17-.555.684-.924 1.248-.924.068 0 .141.006.213.018l2.19.385c.627.113 1.081.662 1.075 1.301-.008.447-.244 1.158-.625 1.393-.297.183-.655.42-.99.42z"
                  fill="#91deff"/>
            <g fill="#ff821d">
                <path d="m760.05 634.225c-.335 0-.659-.129-.903-.363-.257-.248-.403-.59-.403-.945.052-21.883-3.782-43.006-11.396-62.779-.236-.619.023-1.316.606-1.623 4.714-2.494 9.472-5.268 14.146-8.244.218-.137.461-.205.702-.205.395 0 .784.18 1.041.518 15.145 19.975 24.254 44.271 26.343 70.27.056.713-.472 1.342-1.185 1.404-9.798.887-19.52 1.547-28.894 1.967-.019-.002-.037 0-.057 0z"/>
                <path d="m709.272 635.135c-.701-.004-1.276-.559-1.302-1.26-.563-15.566-2.184-31.379-4.814-47.002-.115-.67.309-1.314.969-1.482 12.26-3.08 24.326-7.41 35.862-12.873.175-.084.366-.125.558-.125.162 0 .326.031.48.092.336.133.602.4.734.736 7.406 18.795 10.964 38.859 10.732 60.02-.01.699-.564 1.27-1.264 1.291-12.123.406-24.877.605-38.99.605z"/>
                <path d="m734.553 707.24c-.174 0-.352-.037-.52-.109-9.316-4.043-19.063-7.381-28.971-9.928-.66-.168-1.078-.818-.962-1.49 2.854-16.203 4.212-33.916 4.044-52.641-.006-.35.132-.684.377-.932s.578-.387.927-.387l2.476.002c14.068 0 26.781-.195 38.871-.602.013 0 .029-.002.042-.002.353 0 .69.143.938.396.256.264.389.625.363.992-1.41 21.943-7.08 44.053-16.404 63.945-.222.477-.691.756-1.181.756z"/>
                <path d="m745.071 562.377c-.142 0-.283-.025-.421-.07-.342-.117-.62-.371-.769-.699-3.477-7.695-7.542-15.078-12.085-21.943-2.763-4.176-5.811-8.016-9.315-11.74-.445-.471-.475-1.199-.069-1.709.254-.318.634-.492 1.021-.492.225 0 .452.059.659.18 8.556 5.004 16.736 10.998 24.316 17.814 3.252 2.926 6.451 6.156 9.51 9.605.256.289.371.674.316 1.053-.056.381-.273.715-.6.92-3.929 2.461-7.949 4.789-11.947 6.926-.191.1-.404.155-.616.155z"/>
                <path d="m702.766 578.871c-.246 0-.488-.07-.699-.203-.302-.193-.514-.502-.583-.855-2.57-13.199-5.739-25.73-9.417-37.25-3.818-11.947-8.406-21.115-13.637-27.248-.348-.408-.411-.992-.157-1.465.229-.426.675-.689 1.151-.689.052 0 1.012.111 1.012.111 1.004.117 2.006.232 2.998.406 27.461 4.799 44.893 31.457 54.681 52.977.296.646.016 1.412-.628 1.719-11.078 5.268-22.652 9.459-34.397 12.457-.11.026-.217.04-.324.04z"/>
                <path d="m694.852 694.861c-11.69-2.316-23.576-3.49-35.328-3.49-9.429 0-18.894.758-28.127 2.256-.069.01-.139.018-.209.018-.281 0-.555-.092-.782-.264-.286-.211-.47-.531-.513-.883-.587-4.754-1.102-9.482-1.588-14.137-1.205-11.494-1.868-23.551-1.977-35.836-.002-.348.135-.684.381-.932.244-.246.578-.387.926-.387l4.318.014c7.928.021 15.846.043 23.743.1 6.636.049 13.29.117 19.954.182 7.625.076 15.267.156 22.914.203.713.006 1.293.584 1.297 1.297.111 17.787-1.054 34.869-3.465 50.775-.054.354-.249.668-.539.871-.223.156-.484.238-.752.238-.084.001-.167-.007-.253-.025z"/>
                <path d="m677.445 634.904c-7.27-.07-14.529-.139-21.768-.182-7.371-.045-14.762-.063-22.162-.082l-5.815-.012c-.349-.004-.684-.145-.927-.393-.244-.25-.38-.586-.373-.936.234-14.695 1.34-29.328 3.285-43.492.047-.35.234-.664.518-.873.227-.166.499-.256.775-.256.07 0 .14.006.211.018 9.29 1.518 18.813 2.289 28.305 2.289 11.641 0 23.424-1.154 35.019-3.432.083-.016.169-.025.251-.025.275 0 .543.088.768.25.295.213.485.539.528.9.558 4.584 1.065 9.129 1.534 13.527 1.129 10.623 1.859 21.229 2.172 31.527.011.355-.121.701-.371.955-.245.248-.582.393-.934.393 0 .002-14.023-.109-21.016-.176z"/>
                <path d="m659.588 584.373c-9.203 0-18.441-.754-27.455-2.242-.34-.057-.646-.248-.848-.529-.203-.281-.283-.631-.228-.973 2.096-12.689 4.78-24.758 7.976-35.869 4.65-14.094 12.071-32.768 22.928-32.768 6.275 0 12.457 5.988 18.897 18.309 8.524 16.297 12.062 35.881 13.979 49.191.1.688-.357 1.332-1.036 1.467-11.33 2.264-22.844 3.414-34.213 3.414z"/>
                <path d="m622.896 580.348c-12.108-2.715-23.966-6.818-35.24-12.197-.641-.305-.92-1.07-.627-1.717 2.621-5.781 5.297-10.834 8.182-15.451 9.856-15.764 26.563-28.648 45.83-35.348.143-.049.286-.074.43-.074.378 0 .747.168 1.001.469.349.416.402 1.002.14 1.475-4.125 7.379-6.938 16.156-8.99 22.566l-.977 3.014c-3.285 11.426-6.041 23.623-8.176 36.207-.059.354-.261.666-.558.865-.218.146-.472.223-.729.223-.094-.001-.19-.013-.286-.032z"/>
                <path d="m590.892 705.324c-.479 0-.938-.268-1.167-.723-9.327-18.578-14.902-40.258-16.125-62.691-.02-.367.115-.723.369-.984.247-.254.584-.395.936-.395.014 0 .024.002.037.002 15.863.465 31.422.584 43.207.635.715.004 1.293.582 1.299 1.297.115 17.451 1.417 34.744 3.87 51.395.102.68-.342 1.32-1.015 1.467-10.5 2.287-20.898 5.615-30.898 9.893-.167.069-.341.104-.513.104z"/>
                <path d="m618.168 634.59c-17.53-.076-30.962-.279-43.545-.656-.707-.021-1.266-.598-1.269-1.303-.021-20.014 3.477-39.916 10.11-57.553.128-.342.393-.613.732-.75.155-.063.322-.098.488-.098.191 0 .383.043.561.129 11.76 5.586 24.127 9.824 36.758 12.6.666.146 1.109.781 1.012 1.459-2.074 14.561-3.265 29.662-3.537 44.889-.011.713-.594 1.283-1.304 1.283z"/>
                <path d="m579.072 563.551c-.22 0-.436-.057-.631-.164-3.884-2.152-7.758-4.506-11.522-6.994-.304-.199-.509-.516-.569-.873-.059-.357.031-.723.254-1.012 2.869-3.736 5.865-7.283 8.9-10.535 14.412-13.789 30.615-23.752 48.214-29.664.138-.047.278-.07.416-.07.506 0 .983.297 1.196.783.27.619.025 1.342-.566 1.668-13.769 7.576-25.99 18.334-35.345 31.109-3.382 4.621-6.472 9.678-9.181 15.033-.16.318-.443.557-.781.66-.125.037-.256.059-.385.059z"/>
                <path d="m564.844 633.619c-9.047-.363-18.176-.889-27.137-1.564-.35-.025-.676-.193-.9-.461-.227-.27-.334-.617-.301-.967 2.377-24.316 10.917-48.023 24.701-68.563.252-.377.666-.58 1.086-.58.248 0 .502.07.725.219 4.205 2.814 8.533 5.451 12.859 7.84.583.318.83 1.025.578 1.639-7.351 17.887-10.896 39.012-10.256 61.094.012.363-.128.713-.387.967-.245.242-.573.379-.918.379-.017-.001-.033-.003-.05-.003z"/>
                <path d="m562.275 720.885c-.389 0-.771-.176-1.027-.502-17.533-22.41-26.291-50.246-25.329-80.5.011-.357.166-.691.432-.93.241-.217.551-.336.872-.336.034 0 .065.002.1.004 9.158.697 18.614 1.238 28.104 1.605.661.025 1.198.543 1.252 1.201 1.807 22.807 7.814 45.521 17.378 65.695.306.646.036 1.418-.606 1.73-6.922 3.389-13.803 7.363-20.447 11.809-.225.152-.477.224-.729.224z"/>
                <path d="m631.006 763.211c-23.033-5.053-43.41-15.68-58.931-30.729-1.664-1.613-3.268-3.262-4.81-4.939-.262-.281-.383-.664-.336-1.043.047-.383.259-.723.58-.934 6.205-4.066 12.591-7.705 18.979-10.814.186-.09.379-.133.572-.133.463 0 .91.25 1.146.684 3.67 6.748 7.672 12.996 11.896 18.568 8.573 11.313 19.563 20.615 31.78 26.904.582.299.852.984.629 1.604-.188.525-.688.863-1.227.863-.092 0-.186-.012-.278-.031z"/>
                <path d="m638.926 757.457c-.18 0-.359-.039-.531-.115-16.602-7.387-31.494-22.344-44.265-44.455-.187-.324-.225-.713-.105-1.068s.384-.641.73-.787c9.267-3.904 18.851-6.967 28.486-9.104.095-.02.188-.031.283-.031.257 0 .511.076.727.223.296.197.499.508.56.859 1.502 8.633 3.252 16.957 5.205 24.746 2.928 11.674 6.219 20.768 10.057 27.801.268.49.191 1.1-.187 1.512-.254.271-.603.419-.96.419z"/>
                <path d="m663.58 760.41c-9.674 0-19.023-10.928-23.258-21.719-4.035-10.273-6.951-22.029-9.184-36.996-.105-.707.375-1.365 1.079-1.482 8.987-1.48 18.196-2.229 27.373-2.229 11.364 0 22.866 1.146 34.19 3.408.699.141 1.158.816 1.027 1.518-1.725 9.256-3.595 17.258-5.715 24.461-2.546 8.645-6.771 16.119-10.959 22.912-4.142 6.719-9.037 10.127-14.553 10.127z"/>
                <path d="m681.205 760.68c-.434 0-.853-.219-1.098-.6-.313-.484-.27-1.121.107-1.561 7.248-8.412 11.973-20.188 15.277-29.504 2.604-7.34 4.892-15.512 6.799-24.293.074-.348.287-.648.591-.834.207-.127.445-.195.684-.195.11 0 .221.016.329.043 9.176 2.385 18.266 5.504 27.015 9.273.335.145.597.422.716.77.121.346.09.727-.084 1.047-2.754 5.119-5.361 9.498-7.971 13.398-13.261 17.381-26.982 27.959-41.994 32.4-.124.036-.248.056-.371.056z"/>
                <path d="m704.508 759.961c-.481 0-.936-.268-1.162-.715-.291-.566-.127-1.262.387-1.641 8.566-6.326 17.201-15.158 25.666-26.248.166-.217.301-.438.406-.658 2.656-4.043 5.188-8.326 7.832-13.248.234-.438.684-.689 1.15-.689.193 0 .389.043.572.133 5.881 2.875 11.695 6.084 17.281 9.533.338.209.563.557.609.951.05.393-.083.787-.359 1.07-13.856 14.207-31.834 25.082-51.989 31.451-.13.041-.262.061-.393.061z"/>
                <path d="m762.223 721.922c-.241 0-.482-.068-.697-.203-6.2-3.918-12.622-7.51-19.085-10.682-.639-.313-.908-1.082-.604-1.727 9.643-20.523 15.39-43.77 16.624-67.229.036-.67.575-1.205 1.245-1.234 9.615-.43 19.546-1.105 29.514-2.018.041-.004.08-.006.119-.006.322 0 .633.119.875.338.271.242.426.588.43.951.404 30.51-9.332 59.393-27.413 81.332-.258.31-.631.478-1.008.478z"/>
                <path d="m535.726 385.9c-.722 0-1.307-.584-1.307-1.307v-10.24c0-.721.585-1.307 1.307-1.307h5.495c4.734 0 7.45 2.354 7.45 6.453 0 4.006-2.786 6.4-7.45 6.4h-5.495zm45.231 2.848c.434 0 .839-.217 1.082-.576.242-.359.292-.816.131-1.219l-4.498-11.188c-.2-.494-.68-.82-1.212-.82-.533 0-1.012.326-1.212.82l-4.498 11.188c-.161.402-.111.859.131 1.219.243.359.648.576 1.082.576zm98.82-2.848c4.664 0 7.449-2.395 7.449-6.4 0-4.1-2.717-6.453-7.449-6.453h-5.496c-.722 0-1.307.586-1.307 1.307v10.24c0 .723.585 1.307 1.307 1.307h5.496zm49.832-1.853c0-6.547-4.521-11.299-10.748-11.299s-10.746 4.752-10.746 11.299c0 6.545 4.52 11.299 10.746 11.299s10.748-4.754 10.748-11.299zm103.411 43.031c.715 0 1.297-.574 1.306-1.291.292-24.912.435-51.207.448-82.754 0-.719-.58-1.301-1.298-1.307l-50.487-.393c-49.693-.398-101.077-.813-151.623-.813-48.335 0-91.027.381-130.521 1.166-.708.014-1.277.594-1.279 1.305-.012 31.551-.152 57.85-.447 82.764-.002.35.133.686.378.934s.58.389.929.389zm-96.03-43.031c0 9.781-7.623 16.877-18.129 16.877-10.504 0-18.127-7.096-18.127-16.877 0-9.783 7.623-16.879 18.127-16.879 10.506 0 18.129 7.096 18.129 16.879zm-103.549 8.924c3.246 1.791 7.308 2.871 10.948 2.871 5.786 0 7-2.26 7-4.152 0-3.238-3.829-4.094-7.882-5-6.799-1.518-11.998-3.182-11.998-9.488 0-6.191 5.433-10.033 14.18-10.033 4.039 0 7.987.844 11.029 2.336l-2.053 4.949c-3.08-1.463-6.111-2.203-9.028-2.203-6.271 0-6.95 3.113-6.95 4.451 0 3.148 3.777 3.967 7.775 4.836 6.832 1.48 12.058 3.115 12.058 9.402 0 6.066-5.565 9.984-14.181 9.984-4.867 0-9.855-1.174-13.087-3.037zm-32.342 0c3.249 1.791 7.31 2.871 10.948 2.871 5.786 0 7.003-2.26 7.003-4.152 0-3.238-3.829-4.094-7.882-5-6.8-1.518-11.999-3.182-11.999-9.488 0-6.191 5.433-10.033 14.179-10.033 4.038 0 7.986.844 11.031 2.336l-2.055 4.949c-3.079-1.463-6.11-2.203-9.027-2.203-6.271 0-6.95 3.113-6.95 4.451 0 3.148 3.778 3.967 7.776 4.836 6.831 1.48 12.057 3.115 12.057 9.402 0 6.066-5.564 9.984-14.18 9.984-4.868 0-9.855-1.174-13.088-3.037zm187.653 7.254v-25.818c0-.723-.585-1.307-1.307-1.307h-9.434v-5.232h28.711v5.232h-9.383c-.723 0-1.307.584-1.307 1.307v25.818zm-22.914 0-5.955-8.723c-.244-.357-.646-.57-1.078-.57h-5.397c-.722 0-1.307.584-1.307 1.307v7.986h-7.281v-32.357h14.682c8.911 0 14.229 4.348 14.229 11.633 0 4.523-2.109 7.938-6.103 9.863-.345.168-.599.473-.694.842-.1.367-.029.76.184 1.072l6.141 8.947zm-100.145 0v-32.357h14.682c8.912 0 14.229 4.348 14.229 11.633 0 7.145-5.45 11.582-14.229 11.582h-6.094c-.722 0-1.307.584-1.307 1.307v7.836h-7.281zm-78.213 0-2.417-5.977c-.2-.492-.677-.816-1.21-.816h-14.787c-.533 0-1.01.324-1.21.816l-2.417 5.977h-7.209l14.283-32.357h8.043l14.328 32.357zm-60.342 0v-32.357h14.679c8.912 0 14.232 4.348 14.232 11.633 0 7.145-5.453 11.582-14.232 11.582h-6.091c-.722 0-1.307.584-1.307 1.307v7.836h-7.281zm231.764-14.325c4.664 0 7.45-2.395 7.45-6.4 0-4.1-2.716-6.453-7.45-6.453h-5.495c-.722 0-1.307.586-1.307 1.307v10.24c0 .723.585 1.307 1.307 1.307h5.495z"/>
            </g>
            <path d="m817.684 924.566c-19.615-.09-39.229-.289-58.842-.494-46.617-.5-93.233-1.168-139.849-1.865-57.36-.861-114.727-1.799-172.085-2.811-.713-.012-1.285-.594-1.285-1.309.117-43.686.572-91.375 1.391-145.795.002-.193.049-.387.135-.563.44-.883.445-1.99.016-3.033-.067-.164-.102-.34-.097-.518.856-56.139 1.932-110.229 3.247-175.105.097-.543.1-.822.045-1.146 1.928-96.387 4.133-205.354 4.416-312.508.002-.719.588-1.301 1.307-1.301h.002c68.468.119 136.931.186 205.398.201l22.371.002c40.408 0 80.822-.023 121.229-.148 3.137-.008 6.395-.084 9.729-.162 3.751-.09 7.596-.18 11.47-.18 15.896 0 33.879 1.486 46.729 12.514 15.074 12.939 14.965 39.738 14.886 59.307-.014 3.088-.024 6.016.021 8.703 1.209 94.307.881 190.221.56 282.98-.122 35.607-.245 71.213-.284 106.811-.028 26.371-.061 52.744-.164 79.113-.018 4.561.113 9.391.246 14.369.639 23.611 1.359 50.375-12.879 68.246-10.326 12.961-29.421 14.748-48.517 14.748zm-154.273-423.101c-34.19 0-67.063 13.436-92.563 37.828-50.159 53.76-55.063 131.094-11.871 188.01.254.418.463.684.73.943l.599.756c.789 1.021 1.576 2.041 2.401 3.047 21.787 26.467 54.479 41.043 92.054 41.043 36.323 0 75.028-13.855 103.535-37.068 28.214-22.975 41.933-58.438 38.63-99.857.276-1.342.195-2.262-.188-3.027-.068-.141-.113-.293-.132-.451-3.399-33.033-17.459-65.359-38.569-88.691-24.811-27.43-58.418-42.533-94.626-42.533zm-32.852-167.553c-49.819 0-93.733.408-134.254 1.25-.682.016-1.253.227-1.855.688-1.023.65-1.471 1.484-1.471 2.613-.005 36.104-.162 65.313-.502 91.93-.011.902.272 1.619.863 2.199 0 0 .392.293.395.293.694.568 1.297.791 2.043.791h341.807c.861 0 1.563-.279 2.149-.855.167-.152.247-.281.337-.414.578-.725.803-1.318.814-2.047.338-26.604.494-55.805.497-91.896 0-.84-.263-1.51-.827-2.104-.003-.004-.4-.365-.402-.365-.695-.584-1.325-.824-2.078-.83-18.716-.133-37.436-.283-56.158-.436-49.608-.403-100.905-.817-151.358-.817z"
                  fill="#67d8eb"/>
            <path d="m309.715 809.605c-.547 0-1.055-.346-1.239-.893-33.755-100.893-66.28-204.07-97.733-303.854-31.492-99.9-64.059-203.203-97.855-304.207-.227-.684.142-1.422.822-1.65 99.633-33.436 182.07-61.201 259.44-87.377 25.022-8.469 50.044-16.953 75.047-25.48l4.462-1.535c14.024-4.841 28.525-9.849 42.292-9.849 14.821 0 26.085 5.959 34.435 18.216 10.622 15.6 16.666 34.592 22.514 52.959 1.563 4.912 3.111 9.779 4.727 14.512 11.425 33.465 22.752 66.961 34.08 100.457l3.045 9.002c.135.398.07.838-.176 1.18-.244.34-.641.545-1.061.545l-41.756-.025c-33.084-.016-66.17-.031-99.254-.09-1.783 0-3.295 1.512-3.297 3.301-.047 21.65-.221 43.299-.408 64.947-.006.381-.176.744-.469.988-.236.199-.535.307-.838.307-.072 0-.145-.008-.217-.021-8.445-1.418-16.895-2.137-25.11-2.137-69.652 0-121.509 49.764-129.038 123.838-5.018 49.375 18.889 99.232 60.906 127.018.195.129.353.309.453.518.504 1.039 1.786 1.834 3.117 1.934.205.016.404.078.58.188 19.941 12.15 42.493 18.572 65.223 18.572 6.458 0 13.002-.516 19.446-1.537.067-.012.138-.018.204-.018.313 0 .619.113.857.32.293.254.457.625.447 1.012-1.005 49.68-2.055 102.668-2.881 156.252-.006.559-.373 1.053-.906 1.223-43.141 13.814-86.297 27.596-129.464 41.324-.132.041-.264.06-.395.06zm185.485-678.978c-.335 0-.692.063-1.068.184-17.706 5.84-35.425 11.662-53.149 17.482-89.029 29.252-181.092 59.498-270.667 91.82-.019.014-.651.424-.671.436-.89.412-2.486 1.402-1.751 3.584 11.776 34.904 20.698 61.816 28.927 87.26.107.334.301.604.549.945.4.699 1.105 1.633 2.377 1.633.34 0 .701-.064 1.082-.193l323.851-109.315c.219-.072.412-.209.656-.383 1.127-.633 2.387-1.641 1.738-3.643-8.29-25.627-17.48-53.346-28.92-87.23-.072-.211-.204-.402-.375-.645-.523-.931-1.244-1.935-2.579-1.935z"
                  fill="#ff821d"/>
            <path d="m202.945 326.037c-.201 0-.402-.047-.586-.139-.311-.158-.547-.432-.654-.766-7.639-23.531-16.16-49.234-26.051-78.576-.229-.674.125-1.404.793-1.645 88.487-31.834 179.379-61.699 267.276-90.58l47.91-15.758c.137-.045.274-.066.409-.066.547 0 1.053.344 1.236.891 10.1 29.951 18.374 54.914 26.045 78.559.22.68-.146 1.41-.824 1.641l-315.136 106.369c-.136.045-.275.07-.418.07zm17.143-34.06 6.9-2.328-2.505-7.426c-.231-.684.138-1.426.819-1.656l5.77-1.947c4.15-1.4 7.244-3.602 8.951-6.363 1.66-2.688 1.947-5.855.83-9.164-1.657-4.914-5.488-7.619-10.785-7.619-1.998 0-4.16.387-6.42 1.148l-13.907 4.695zm29.459-9.944 6.832-2.305.377-6.438c.031-.531.383-.99.887-1.16l14.012-4.73c.137-.047.277-.068.418-.068.373 0 .736.162.988.455l4.203 4.891 7.014-2.369-23.924-26.078-7.62 2.572zm37.801-15.228c1.107.221 2.377.336 3.73.336 3.082 0 6.505-.586 9.639-1.643 8.164-2.754 12.184-8.25 10.246-13.994-1.275-3.777-4.062-5.459-9.037-5.459-1.802 0-3.631.205-5.397.406-1.563.174-3.013.334-4.237.334-.953 0-3.855 0-4.674-2.428-.441-1.309-.191-2.643.705-3.756.871-1.08 2.369-1.982 4.453-2.688 1.922-.646 4.045-.977 6.307-.977.959 0 1.945.059 2.951.178l.363-5.346c-.815-.107-1.68-.16-2.576-.16-2.786 0-5.768.508-8.621 1.473-4.35 1.469-7.559 3.66-9.283 6.346-1.518 2.363-1.844 5.023-.941 7.695 1.307 3.873 4.047 5.527 9.166 5.525 1.77 0 3.568-.193 5.236-.369 1.533-.164 2.967-.313 4.186-.313.996 0 4.029 0 4.881 2.525.605 1.797.176 4.324-5.305 6.174-2.199.742-4.701 1.133-7.236 1.133-1.389 0-2.768-.121-4.057-.352zm30.642-10.344c1.107.221 2.379.336 3.736.336 3.081 0 6.502-.582 9.633-1.641 4.332-1.461 7.539-3.664 9.273-6.375 1.519-2.369 1.854-5.004.971-7.619-1.275-3.775-4.063-5.459-9.038-5.459-1.802 0-3.628.205-5.395.402-1.563.176-3.013.336-4.237.336-.953 0-3.855 0-4.676-2.428-.428-1.271-.781-4.438 5.16-6.441 1.922-.65 4.045-.979 6.307-.979.959 0 1.945.059 2.951.178l.363-5.346c-.815-.107-1.674-.16-2.572-.16-2.785 0-5.77.51-8.625 1.473-4.35 1.469-7.559 3.662-9.283 6.346-1.52 2.365-1.846 5.025-.943 7.697 1.307 3.871 4.047 5.525 9.165 5.525 1.77 0 3.569-.193 5.237-.371 1.533-.162 2.963-.311 4.182-.311.999 0 4.033 0 4.885 2.527.436 1.289.133 2.596-.859 3.672-.898.977-2.352 1.793-4.443 2.498-2.197.742-4.699 1.137-7.234 1.137-1.391 0-2.77-.123-4.059-.354zm33.377-8.797 6.9-2.33-2.505-7.424c-.231-.684.138-1.424.818-1.656l5.772-1.949c4.148-1.4 7.242-3.6 8.949-6.361 1.66-2.688 1.947-5.855.83-9.162-1.657-4.916-5.486-7.623-10.78-7.623-1.999 0-4.159.387-6.422 1.15l-13.913 4.693zm46.466-49.459c-2.197 0-4.438.381-6.661 1.131-9.952 3.359-14.906 12.525-11.777 21.789 2.357 6.988 8.457 11.328 15.916 11.328 2.196 0 4.436-.381 6.655-1.129 9.955-3.359 14.909-12.525 11.78-21.793-2.358-6.986-8.455-11.326-15.913-11.326zm28.504 24.152 6.901-2.326-2.555-7.57c-.231-.684.137-1.422.818-1.654l5.113-1.727c.138-.045.279-.07.418-.07.279 0 .559.092.787.266l8.434 6.361 7.029-2.373-8.68-6.516c-.305-.227-.493-.578-.518-.959-.025-.379.117-.75.389-1.018 3.166-3.104 4.074-7.012 2.629-11.297-1.658-4.916-5.486-7.621-10.783-7.621-1.998 0-4.159.387-6.42 1.148l-13.912 4.695zm32.132-39.402c.199 0 .397.047.58.137.31.152.546.422.656.752l8.257 24.465 6.901-2.33-8.258-24.463c-.109-.328-.088-.688.068-.998.152-.311.422-.547.75-.656l8.893-3-1.674-4.961-27.204 9.182 1.673 4.961 8.938-3.018c.139-.047.277-.071.42-.071zm-234.824 92.701 5.208-1.756c4.419-1.494 6.292-4.652 5.011-8.449-.945-2.793-3.008-4.332-5.809-4.332-1.012 0-2.127.203-3.314.604l-5.206 1.756c-.326.111-.599.348-.751.658-.155.311-.178.67-.068.998l3.275 9.703c.184.543.691.889 1.236.889.136 0 .279-.024.418-.071zm35.246-8.89 8.521-2.877c.41-.139.725-.473.842-.891.115-.418.014-.865-.268-1.193l-7.842-9.164c-.252-.297-.615-.459-.991-.459-.14 0-.28.023-.419.07-.503.17-.854.631-.885 1.162l-.682 12.039c-.023.436.168.85.512 1.113.232.176.512.268.793.268.139 0 .281-.021.419-.068zm96.033-35.422 5.208-1.758c4.417-1.492 6.29-4.648 5.01-8.447-.944-2.793-3.007-4.332-5.808-4.332-1.012 0-2.128.203-3.314.604l-5.206 1.758c-.326.109-.599.346-.751.656-.155.311-.178.67-.068.998l3.275 9.703c.109.328.346.598.656.75.182.09.38.139.58.139.141-.001.281-.026.418-.071zm45.259-5.309c2.809-.947 5.023-2.867 6.24-5.404 1.241-2.588 1.358-5.691.328-8.738-1.637-4.85-5.552-7.865-10.218-7.865-1.196 0-2.399.201-3.578.6-5.898 1.99-8.659 7.938-6.568 14.141 1.64 4.852 5.555 7.865 10.221 7.865 1.193-.001 2.396-.2 3.575-.599zm29.712-19.998 5.207-1.756c4.417-1.494 6.29-4.65 5.011-8.449-.944-2.793-3.007-4.332-5.809-4.332-1.012 0-2.127.205-3.314.605l-5.206 1.758c-.681.23-1.05.971-.818 1.654l3.274 9.701c.185.545.692.889 1.237.889.136 0 .278-.023.418-.07z"
                  fill="#67d8eb"/>
            <path d="m863.072 919.18c-10.229 4.605-23.209 5.443-36.194 5.443l-9.194-.057c-19.615-.09-39.229-.289-58.842-.494-46.617-.5-93.233-1.168-139.849-1.865-57.36-.861-114.727-1.799-172.085-2.811-.713-.012-1.285-.594-1.285-1.309.006-1.365.012-2.771.017-4.143.425-.037.85-.105 1.276-.143.066-10.719.131-21.436.189-32.154.135-24.936.248-49.873.344-74.809.105-27.342.217-54.684.326-82.025.723-41.475 1.563-83.639 2.539-131.74.097-.543.1-.822.045-1.146 1.928-96.387 4.133-205.354 4.416-312.508.002-.719.588-1.301 1.307-1.301h.002c2.606.004 5.213.002 7.818.006 1.912 21.945 1.512 44.266 1.86 66.229.394 24.775.274 49.551.252 74.328-.085 89.871-.509 179.746-.155 269.613.176 44.885-.063 89.773-.234 134.656-.087 22.635-.19 45.27-.31 67.904-.038 7.322-.083 14.643-.126 21.963 4.614-.133 9.242-.213 13.885-.303 17.954-.344 35.91-.604 53.865-.729 64.561-.449 129.134.209 193.673 1.975 32.079.879 64.149 2.029 96.211 3.459 13.418.597 26.833 1.269 40.249 1.961zm-200.072-141.463c3.418-.746 7.254-2.947 9.5-5.729-5.94.703-11.871 1.104-17.739 1.104-37.575 0-70.267-14.576-92.054-41.043-.825-1.006-1.612-2.025-2.401-3.047l-.599-.756c-.268-.26-.477-.525-.73-.943-30.964-40.803-37.201-92.098-19.777-137.678-4.861 5.535-8.086 12.664-10.721 19.381-3.742 9.547-5.791 19.621-7.021 29.77-2.35 19.418-.436 39.582 5.741 58.158 12.374 37.203 41.854 65.535 79.194 77.258 17.886 5.615 38.161 7.552 56.607 3.525z"
                  fill="#65b3bc"/>
            <path d="m440.618 758.391c-.045 2.869-.093 5.73-.138 8.605-.006.559-.373 1.053-.906 1.223-43.141 13.814-86.297 27.596-129.464 41.324-.133.043-.265.063-.396.063-.547 0-1.055-.346-1.239-.893-33.755-100.893-66.28-204.07-97.733-303.854-31.492-99.9-64.059-203.203-97.855-304.207-.227-.684.142-1.422.822-1.65 1.357-.455 2.677-.898 4.025-1.352 6.268 15.758 11.146 32.238 16.387 48.135 7.787 23.627 16.01 47.127 23.938 70.721 28.207 83.955 56.521 167.875 85.892 251.436 14.747 41.951 29.707 83.83 44.881 125.629 7.587 20.9 15.228 41.779 22.923 62.643 4.902 13.289 10.125 26.539 14.975 39.898 1.852-.592 3.691-1.186 5.488-1.795 12.301-4.166 24.623-8.252 36.963-12.299 22.132-7.262 44.264-14.521 66.395-21.781 1.579-.518 3.285-1.184 5.042-1.846zm2.743-147.647c.01-.373-.157-.725-.434-.98-3.96.02-8.032.891-11.965 1.029-1.338.047-2.686.002-4.032-.006-1.509.057-3.022.18-4.524.18-22.729 0-45.281-6.422-65.223-18.572-.176-.109-.375-.172-.58-.188-1.331-.1-2.613-.895-3.117-1.934-.101-.209-.258-.389-.453-.518-20.174-13.342-36.113-31.799-46.741-52.818 2.962 7.342 6.29 14.531 10.171 21.4 16.85 29.828 43.194 53.846 75.922 64.863 9.199 3.096 18.825 4.945 28.506 5.643 6.798.49 14.994.844 22.123-.861.116-5.783.233-11.537.347-17.238z"
                  fill="#f26200"/>
            <path d="m592.619 266.563-1.914-5.658c-11.328-33.496-22.655-66.992-34.08-100.457-1.615-4.732-3.164-9.6-4.727-14.512-5.848-18.367-11.892-37.359-22.514-52.959-8.35-12.257-19.613-18.216-34.435-18.216-13.767 0-28.268 5.008-42.292 9.849l-4.462 1.535c-25.003 8.527-50.024 17.012-75.047 25.48-29.975 10.141-60.728 20.525-92.929 31.383 5.73-.291 11.428-1.896 16.998-3.209 7.387-1.742 14.771-3.504 22.146-5.293 14.748-3.58 29.461-7.311 44.191-10.965 26.923-6.682 54.064-15.055 81.629-18.65 23.534-3.07 49.043-1.574 67.748 14.719 19.687 17.148 32.24 42.709 43.846 65.635 13.391 26.45 24.702 53.862 35.842 81.318z"
                  fill="#fdce1a"/>
            <path d="m792.139 289.295c30.41 3.455 65.964 10.354 76.311 43.373 13.574 43.326 9.804 94.898 9.266 139.707-1.164 96.973-.35 325.354.181 434.045 11.647-17.752 10.976-42.658 10.378-64.791-.133-4.979-.264-9.809-.246-14.369.104-26.369.136-52.742.164-79.113.039-35.598.162-71.203.284-106.811.321-92.76.649-188.674-.56-282.98-.045-2.688-.034-5.615-.021-8.703.079-19.568.188-46.367-14.886-59.307-12.85-11.027-30.832-12.514-46.729-12.514-3.874 0-7.719.09-11.47.18-3.335.078-6.593.154-9.729.162-39.615.121-79.236.145-118.855.146 35.369 3.407 70.711 6.971 105.912 10.975z"
                  fill="#a9f7ff"/>
            <g fill="#68182b">
                <path d="m895.822 358.377c-.659-38.156-1.807-77.982-46.156-86.275-21.83-4.082-45.39-1.82-67.508-1.773-26.727.059-53.457.076-80.188.086-33.246.012-66.494-.061-99.743-.08-13.107-38.752-26.21-77.504-39.424-116.217-7.931-23.232-14.917-47.98-28.851-68.438-28.899-42.432-96.363-4.233-132.445 8.006-98.069 33.268-196.232 66.268-294.409 99.213-2.276.764-4.048 3.189-3.218 5.664 68.623 204.752 129.831 411.98 198.453 616.73.773 2.305 3.176 4.008 5.664 3.217 43.701-13.893 87.379-27.85 131.053-41.83-.72 48.648-1.257 97.293-1.36 145.941-.005 2.543 2.101 4.561 4.605 4.605 60.806 1.078 121.616 2.063 182.425 2.973 46.396.695 92.795 1.336 139.194 1.83 33.351.354 74.767 6.996 105.753-7.725 28.041-13.32 25.837-55.318 26.162-80.768.234-18.178.17-36.359.205-54.539.146-74.902.146-149.807.131-224.711-.015-68.624.536-137.288-.343-205.909zm-586.107 449.922c-67.548-201.9-128.033-406.164-195.59-608.061 86.512-29.033 173.004-58.133 259.442-87.377 25.025-8.469 50.046-16.953 75.05-25.482 27.432-9.354 59.967-22.622 79.688 6.334 13.353 19.604 19.46 44.822 27.086 67.158 12.445 36.459 24.779 72.959 37.123 109.453-47.002-.033-94.004-.031-141.008-.115-2.514-.004-4.601 2.1-4.605 4.605-.047 21.646-.22 43.291-.408 64.938-82.057-13.801-147.234 39.908-155.664 122.854-5.332 52.469 20.848 101.367 61.484 128.238.718 1.479 2.4 2.531 4.192 2.666 24.786 15.104 54.499 22.127 85.552 17.209-1.055 52.086-2.08 104.17-2.88 156.256-43.141 13.814-86.295 27.595-129.462 41.324zm-2.678-292.629c8.814-2.281 17.602-4.717 26.367-7.262 8.637 21.328 21.466 41.229 37.494 57.248-5.213 5.27-10.105 10.982-14.765 17.02-22.67-15.865-39.924-39.639-49.096-67.006zm36.358-10.191c13.735-4.129 27.416-8.512 41.055-13.018 1.352 3.934 2.723 7.83 4.11 11.666 4.212 11.637 9.053 23.906 14.776 35.887-9.221 5.625-17.826 12.133-25.855 19.449-14.639-15.121-26.075-33.977-34.086-53.984zm-43.756-35.061c.018-12.684 1.73-24.699 4.891-35.91 5.592 1.525 11.174 2.832 16.736 3.811-.078 1.121-.184 2.236-.229 3.363-.768 19.047 2.522 38.969 9.133 58.068-8.576 2.486-17.174 4.867-25.801 7.096-3.094-11.709-4.749-23.953-4.73-36.428zm31.267-13.369c-.695-5.785-.84-11.607-.52-17.385 13.222 1.629 26.322 1.736 39.215.367 3.089 14.832 7.27 29.516 11.915 43.707-13.739 4.537-27.519 8.949-41.354 13.096-4.562-13.168-7.68-26.664-9.256-39.785zm114.873-54.535c-.855.557-1.717 1.082-2.575 1.621-10.272-20.578-23.491-42.164-42.146-53.551 14.104-1.975 29.469.703 45.276 9.479-.146 14.15-.361 28.3-.555 42.451zm-1.957 119.386c-11.805 3.631-22.9 8.32-33.313 14-7.202-14.746-13.065-30.463-17.909-46.141 17.428-5.824 34.789-11.791 52.109-17.658-.291 16.6-.567 33.2-.887 49.799zm-.193 9.756c-.33 16.92-.668 33.838-1.01 50.756-11.031-10.836-20.188-24.01-27.933-38.367 9.096-4.959 18.757-9.076 28.943-12.389zm-64.86-173.431c.081-.154.173-.271.257-.42 2.881-1.521 5.857-2.818 8.908-3.918 13.511 3.391 33.812 32.637 35.428 35.035 4.324 6.416 8.174 13.158 11.754 20.047-18.454 10.447-37.736 17.465-57.624 20.709-4.781-23.061-8.851-51.635 1.277-71.453zm60.463 59.005c2.111 4.34 4.176 8.697 6.185 13.055-.165 10.682-.353 21.363-.535 32.043-18.255 6.174-36.552 12.477-54.924 18.613-3.845-13.377-7.022-26.551-9.769-38.838-.247-1.102-.501-2.252-.756-3.402 20.663-3.422 40.709-10.703 59.799-21.471zm-72.552-51.275c-1.635 7.541-2.123 15.211-2.298 19.66-.587 14.943.796 30.176 3.456 45.326-11.992 1.217-24.182 1.092-36.521-.449 3.704-25.64 16.74-49.541 35.363-64.537zm40.759 182.295c8.766 16.813 19.496 32.564 32.965 44.637-21.832-3.1-40.683-13.027-56.35-27.105 7.28-6.571 15.074-12.425 23.385-17.532zm38.99-198.59c-.724-.355-1.446-.645-2.167-.977.721.119 1.447.25 2.172.381-.002.2-.002.397-.005.596zm-124.197 79.453c-4.926-.885-9.881-2.041-14.848-3.379 8.471-23.268 23.427-42.541 42.574-56.205-14.323 15.856-24.315 36.903-27.726 59.584zm55.295 142.797c17.59 15.559 38.516 26.506 61.686 30.006-27.979 4.309-53.783-1.502-75.389-14.25 4.315-5.59 8.862-10.873 13.703-15.756zm496.847 337.153c-12.41 15.578-39.077 14.277-56.685 14.197-19.612-.09-39.223-.287-58.834-.494-46.615-.498-93.229-1.166-139.842-1.863-57.361-.861-114.725-1.799-172.084-2.811.129-48.594.657-97.188 1.388-145.777.642-1.289.592-2.807.054-4.113.893-58.369 2.064-116.732 3.248-175.1.105-.461.107-.92.026-1.395 2.106-104.092 4.16-208.186 4.437-312.283 68.467.119 136.933.188 205.4.203 47.867.01 95.736-.002 143.604-.146 21.733-.063 49.35-3.355 67.073 11.857 16.921 14.523 14.11 47.244 14.452 67.039 1.666 129.889.42 259.875.274 389.768-.029 26.371-.062 52.74-.164 79.111-.101 25.941 4.579 60.56-12.347 81.807z"/>
                <path d="m797.906 632.555c-3.418-33.186-17.63-65.924-38.9-89.434-51.455-56.877-135.447-56.063-189.061-4.77-49.94 53.52-56.057 131.695-12.008 189.74.236.408.531.77.857 1.088.957 1.238 1.902 2.48 2.904 3.699 49.422 60.037 142.113 49.189 197.422 4.156 30.969-25.217 42.119-63.186 39.106-100.973.319-1.209.202-2.465-.32-3.506zm-37.856.365c.05-21.605-3.741-43.141-11.483-63.254 4.825-2.555 9.572-5.326 14.236-8.295 15.234 20.09 24.076 44.602 26.082 69.584-9.58.867-19.194 1.531-28.835 1.965zm-37.564 94.578c-11.727 15.367-25.182 27.111-41.281 31.875 7.189-8.348 11.932-19.813 15.518-29.922 2.771-7.807 5.01-16.01 6.843-24.451 9.078 2.359 18.046 5.426 26.827 9.209-2.454 4.557-5.051 9.023-7.907 13.289zm-160.195-164.709c4.248 2.842 8.567 5.475 12.957 7.896-7.773 18.916-10.977 40.176-10.354 61.629-9.051-.363-18.081-.881-27.09-1.561 2.346-23.997 10.853-47.646 24.487-67.964zm14.166-17.926c14.555-13.922 30.758-23.633 47.677-29.318-13.665 7.52-26.08 18.25-35.767 31.482-3.518 4.803-6.603 9.896-9.295 15.217-3.863-2.141-7.676-4.455-11.434-6.939 2.773-3.612 5.708-7.106 8.819-10.442zm119.839 57.481c1.097 10.33 1.844 20.848 2.165 31.432-14.297-.092-28.576-.271-42.773-.359-9.305-.057-18.637-.07-27.982-.094.231-14.484 1.304-28.994 3.273-43.338 21.102 3.451 42.662 2.998 63.785-1.148.556 4.577 1.064 9.116 1.532 13.507zm-1.191 91.238c-21.162-4.195-42.77-4.674-63.918-1.244-.584-4.744-1.1-9.467-1.585-14.111-1.229-11.74-1.864-23.693-1.968-35.713 9.368.027 18.725.045 28.053.113 14.229.104 28.537.291 42.868.385.106 16.92-.926 33.918-3.45 50.57zm-53.569 44.633c-4.556-11.607-7.231-24.141-9.106-36.713 20.219-3.328 40.857-2.873 61.096 1.17-1.533 8.23-3.344 16.383-5.685 24.332-2.427 8.24-6.366 15.375-10.816 22.594-12.789 20.736-29.768 3.195-35.489-11.383zm-9.19-157.373c2.004-12.129 4.599-24.096 7.942-35.719 6.86-20.787 19.804-51.721 39.415-14.217 7.627 14.582 11.4 31.826 13.842 48.773-20.274 4.053-40.945 4.507-61.199 1.163zm-.94-38.166c-3.412 11.854-6.128 24.033-8.224 36.396-11.904-2.666-23.615-6.686-34.964-12.1 2.398-5.293 5.059-10.434 8.1-15.297 10.123-16.193 26.738-28.406 45.152-34.809-4.894 8.761-7.978 19.484-10.064 25.81zm61.904-2.512c-2.786-8.719-7.178-19.832-13.886-27.697 1.264.152 2.534.279 3.785.498 26.008 4.543 43.215 29.141 53.718 52.229-11.104 5.281-22.545 9.406-34.161 12.371-2.546-13.075-5.713-25.678-9.456-37.401zm-108.624 35.373c11.996 5.699 24.406 9.922 37.037 12.697-2.115 14.854-3.277 29.939-3.548 45.049-14.504-.063-29.021-.221-43.514-.654-.02-19.625 3.299-39.207 10.025-57.092zm33.455 66.936c.115 17.324 1.388 34.623 3.887 51.578-10.569 2.301-20.982 5.625-31.136 9.967-9.435-18.797-14.796-40.303-15.987-62.18 14.402.422 28.827.572 43.236.635zm5.383 60.73c1.46 8.391 3.182 16.688 5.226 24.838 1.586 6.322 4.855 18.359 10.176 28.109-18.992-8.453-33.434-26.201-43.665-43.916 9.24-3.892 18.686-6.908 28.263-9.031zm81.863-7.264c2.991-16.99 4.226-34.881 4.062-52.879 13.802.021 27.611-.139 41.389-.604-1.412 21.979-7.036 43.742-16.284 63.477-9.527-4.132-19.283-7.454-29.167-9.994zm3.888-62.111c-.576-15.924-2.247-31.824-4.833-47.17 12.296-3.09 24.39-7.414 36.103-12.961.049.127.107.26.157.385 7.345 18.656 10.706 38.865 10.483 59.145-13.951.468-27.933.627-41.91.601zm47.666-79.639c-3.9 2.441-7.858 4.738-11.87 6.881-3.458-7.654-7.511-15.061-12.186-22.125-2.933-4.432-6.109-8.363-9.453-11.916 8.358 4.889 16.44 10.768 24.104 17.658 3.333 2.999 6.46 6.18 9.405 9.502zm-219.718 85.735c9.359.713 18.745 1.244 28.154 1.607 1.832 23.135 7.988 46.088 17.498 66.15-7.029 3.441-13.905 7.418-20.6 11.896-18.142-23.186-25.951-51.37-25.052-79.653zm31.002 86.734c6.142-4.023 12.427-7.613 18.836-10.732 3.629 6.674 7.631 12.969 12 18.734 8.73 11.516 19.748 20.854 32.225 27.275-21.88-4.801-42.313-14.889-58.302-30.391-1.646-1.595-3.232-3.226-4.759-4.886zm136.283 31.998c10.059-7.428 18.756-17.109 25.93-26.508.227-.297.406-.594.546-.887 2.819-4.27 5.386-8.691 7.804-13.193 5.826 2.848 11.555 6.002 17.168 9.471-14.239 14.598-32.099 25.002-51.448 31.117zm57.715-38.041c-6.259-3.953-12.67-7.543-19.207-10.75 9.944-21.164 15.519-44.34 16.748-67.713 9.891-.441 19.748-1.125 29.574-2.021.383 28.926-8.425 57.807-27.115 80.484z"/>
                <path d="m535.726 401.531v-9.143h6.091c9.544 0 15.539-4.947 15.539-12.889 0-7.992-5.995-12.939-15.539-12.939h-15.985v34.971zm0-27.177h5.495c4.096 0 6.144 1.898 6.144 5.146 0 3.197-2.048 5.094-6.144 5.094h-5.495z"/>
                <path d="m566.318 401.531 2.748-6.793h14.787l2.748 6.793h10.289l-15.484-34.971h-9.742l-15.438 34.971zm10.142-25.279 4.497 11.189h-8.994z"/>
                <path d="m612.047 394.535c-4.045 0-8.441-1.396-11.539-3.447l-3.246 7.297c3.297 2.297 8.993 3.846 14.738 3.846 10.391 0 15.486-5.195 15.486-11.291 0-12.889-19.833-8.891-19.833-14.238 0-1.746 1.497-3.145 5.644-3.145 3.05 0 6.346.896 9.692 2.695l3.05-7.342c-3.45-1.998-8.146-3.049-12.691-3.049-10.392 0-15.484 5.098-15.484 11.34 0 12.988 19.88 8.943 19.88 14.488-.001 1.698-1.599 2.846-5.697 2.846z"/>
                <path d="m644.39 394.535c-4.046 0-8.444-1.396-11.54-3.447l-3.247 7.297c3.296 2.297 8.992 3.846 14.737 3.846 10.392 0 15.486-5.195 15.486-11.291 0-12.889-19.832-8.891-19.832-14.238 0-1.746 1.5-3.145 5.644-3.145 3.05 0 6.346.896 9.694 2.695l3.047-7.342c-3.447-1.998-8.145-3.049-12.689-3.049-10.391 0-15.486 5.098-15.486 11.34 0 12.988 19.881 8.943 19.881 14.488-.001 1.698-1.601 2.846-5.695 2.846z"/>
                <path d="m674.281 392.389h6.094c9.543 0 15.536-4.947 15.536-12.889 0-7.992-5.993-12.939-15.536-12.939h-15.988v34.971h9.895v-9.143zm0-18.035h5.496c4.094 0 6.143 1.898 6.143 5.146 0 3.197-2.049 5.094-6.143 5.094h-5.496z"/>
                <path d="m718.861 402.23c11.191 0 19.436-7.695 19.436-18.184 0-10.49-8.244-18.186-19.436-18.186-11.189 0-19.434 7.695-19.434 18.186.001 10.489 8.245 18.184 19.434 18.184zm0-28.175c5.295 0 9.441 3.947 9.441 9.992 0 6.043-4.146 9.992-9.441 9.992-5.296 0-9.44-3.949-9.44-9.992 0-6.045 4.144-9.992 9.44-9.992z"/>
                <path d="m753.407 392.238h5.397l6.343 9.293h10.589l-7.542-10.99c4.345-2.1 6.843-5.895 6.843-11.041 0-7.992-5.992-12.939-15.536-12.939h-15.987v34.971h9.894v-9.294zm0-17.884h5.495c4.098 0 6.145 1.898 6.145 5.146 0 3.197-2.047 5.094-6.145 5.094h-5.495z"/>
                <path d="m787.445 401.531h9.895v-27.125h10.689v-7.845h-31.324v7.845h10.74z"/>
                <path d="m841.363 335.275c-.144-.135-.301-.236-.461-.35-.717-.611-1.611-1.059-2.819-1.068-113.884-.795-227.937-2.367-341.806 0-1.102.023-1.93.426-2.622.957-1.138.717-1.983 1.891-1.983 3.648-.002 30.639-.11 61.279-.5 91.914-.018 1.383.5 2.408 1.256 3.148.006.008.011.016.018.023.166.16.355.281.549.412.713.59 1.596 1.021 2.783 1.021h341.807c1.338 0 2.329-.508 3.064-1.232.027-.021.055-.037.079-.059.173-.18.304-.375.44-.578.576-.707 1.006-1.574 1.021-2.736.389-30.635.496-61.275.498-91.914 0-1.307-.492-2.273-1.187-3.004-.047-.059-.084-.123-.137-.182zm-7.896 7.758c-.012 27.58-.124 55.162-.447 82.738-110.867 0-221.732 0-332.596 0 .324-27.59.436-55.186.447-82.779 110.808-2.201 221.779-.754 332.596.041z"/>
                <path d="m219.27 293.631 9.373-3.162-2.922-8.664 5.77-1.949c9.045-3.053 13.141-9.656 10.6-17.182-2.555-7.57-9.816-10.342-18.859-7.289l-15.145 5.113zm5.888-30.672c3.881-1.311 6.429-.166 7.467 2.91 1.023 3.029-.313 5.482-4.191 6.793l-5.207 1.758-3.273-9.703z"/>
                <path d="m258.061 273.367 14.012-4.729 4.775 5.559 9.748-3.293-25.855-28.182-9.23 3.115-3.442 38.072 9.563-3.227zm1.092-19.879 7.841 9.164-8.521 2.875z"/>
                <path d="m303.207 254.91c.541 1.609-.605 3.209-4.486 4.52-3.834 1.293-8.445 1.377-12.037.426l-.74 7.951c3.857 1.121 9.748.766 15.192-1.07 9.845-3.324 13.011-9.877 11.063-15.652-4.124-12.211-21.637-2.08-23.346-7.145-.561-1.658.412-3.461 4.34-4.789 2.89-.973 6.301-1.178 10.047-.543l.54-7.932c-3.908-.791-8.69-.285-12.999 1.17-9.846 3.322-13.041 9.781-11.043 15.695 4.153 12.307 21.695 2.115 23.469 7.369z"/>
                <path d="m333.848 244.568c.543 1.607-.605 3.209-4.484 4.518-3.832 1.295-8.445 1.379-12.037.424l-.742 7.953c3.859 1.121 9.75.768 15.194-1.068 9.845-3.324 13.011-9.879 11.062-15.652-4.122-12.211-21.635-2.082-23.346-7.148-.559-1.654.416-3.459 4.342-4.785 2.89-.975 6.299-1.18 10.047-.545l.54-7.932c-3.905-.791-8.693-.283-12.999 1.17-9.846 3.322-13.043 9.783-11.046 15.697 4.152 12.304 21.696 2.113 23.469 7.368z"/>
                <path d="m359.923 246.154-2.923-8.662 5.771-1.949c9.042-3.053 13.139-9.656 10.598-17.182-2.555-7.572-9.814-10.344-18.857-7.289l-15.148 5.111 11.185 33.137zm-3.485-27.506c3.881-1.313 6.429-.168 7.467 2.908 1.021 3.029-.313 5.482-4.191 6.791l-5.207 1.76-3.274-9.703z"/>
                <path d="m402.385 232.561c10.604-3.58 15.953-13.508 12.599-23.447s-13.627-14.594-24.229-11.014-15.951 13.506-12.597 23.445c3.354 9.937 13.626 14.594 24.227 11.016zm-9.012-26.698c5.018-1.693 10.209.721 12.141 6.447 1.935 5.725-.732 10.795-5.749 12.486-5.017 1.693-10.207-.721-12.141-6.447-1.932-5.728.733-10.792 5.749-12.486z"/>
                <path d="m434.893 220.85-2.973-8.807 5.113-1.727 8.984 6.777 10.031-3.387-10.661-8.002c3.444-3.379 4.599-7.771 2.952-12.648-2.555-7.572-9.815-10.342-18.857-7.291l-15.148 5.113 11.185 33.135zm-3.485-27.508c3.883-1.311 6.428-.166 7.467 2.91 1.021 3.027-.311 5.48-4.191 6.793l-5.207 1.756-3.274-9.701z"/>
                <path d="m458.469 184.262 8.675 25.701 9.374-3.166-8.675-25.699 10.128-3.418-2.51-7.434-29.678 10.018 2.51 7.433z"/>
                <path d="m526.261 225.027c1.683-.881 2.822-2.625 2.056-4.992-9.432-29.152-19.125-58.219-28.925-87.246-.157-.465-.423-.795-.668-1.156-.874-1.695-2.62-2.844-4.999-2.061-108.156 35.666-216.719 70.654-323.852 109.314-.377.135-.625.367-.93.561-1.832.822-3.125 2.615-2.287 5.104 9.795 29.031 19.494 58.094 28.923 87.246.171.529.456.924.739 1.316.898 1.619 2.615 2.682 4.928 1.9 107.953-36.428 215.902-72.877 323.852-109.314.47-.156.802-.424 1.163-.672zm-349.37 21.114c104.286-37.52 209.896-71.639 315.152-106.326 8.813 26.139 17.528 52.309 26.039 78.545-105.044 35.459-210.088 70.926-315.137 106.371-8.519-26.251-17.238-52.436-26.054-78.59z"/>
            </g>
        </g>
    </g>
</svg>