<svg id="svg8" height="512" viewBox="0 0 135.46666 135.46666" width="512" xmlns="http://www.w3.org/2000/svg" xmlns:svg="http://www.w3.org/2000/svg"><clipPath id="clipPath5136"><rect id="rect5138" height="89.013" rx="7.858" width="87.501" x="-68.036" y="22.301"/></clipPath><clipPath id="clipPath3786"><path id="rect3788" d="m84.667 15.119h79.375v72.571h-79.375z" paint-order="fill markers stroke"/></clipPath><g id="layer1"><g id="g4582" transform="matrix(1.02 0 0 1.02 -11.216 .017)"><g id="g10621" stroke-linecap="round" stroke-linejoin="round"><g stroke-width=".981"><path id="path4337" d="m17.486058 53.947353s.852178-11.270566 9.370628-14.546891c8.518451-3.276328 13.367415.786316 13.367415.786316s-.786319-7.207918 4.71791-11.008457c5.504231-3.800539 10.353195.524211 10.353195.524211s-2.227904-13.62952 10.877406-19.7890152c13.105309-6.1594948 21.2306 5.1110702 21.2306 5.1110702s4.455804-5.3731762 12.187936-2.358955c7.732132 3.01422 5.635282 14.02268 5.635282 14.02268s4.58685-4.455804 11.66372-.917373c7.07687 3.538433 4.98002 14.677947 4.98002 14.677947s15.49188-1.376316 15.49188 8.944242c0 10.320561-6.44922 11.893197-6.44922 11.893197s3.93159 10.6153-9.96003 11.663725c-13.89163 1.048425-19.13376-9.697927-19.13376-9.697927s-2.621051 4.586858-8.12528 5.635283c-5.504231 1.048424-8.911611-2.621063-8.911611-2.621063s-1.572638 5.897388-6.683707 7.470026c-5.111069 1.572636-15.726369-7.732132-15.726369-7.732132s-2.09685 4.193699-6.552656 4.193699c-4.455804 0-5.111069-2.621063-5.111069-2.621063s-2.09685 4.455806-10.091087 4.980017c-7.994239.524214-11.532672-10.484246-11.532672-10.484246s-11.598531 2.752114-11.598531-8.125291z" fill="#7738c7"/><path id="path4339" d="m94.742289 45.166807s.261988 3.931406-4.32487 5.110884c-4.586858 1.179477-7.339201-2.751821-7.339201-2.751821s.524582 7.863121-9.566504 10.091025c-10.09109 2.227901-12.581348-6.290673-12.581348-6.290673s-1.048546 6.945639-5.635404 7.731956c-4.586858.786319-3.669093-2.751819-3.669093-2.751819s-2.096767 2.227906-4.848881 1.310536c-2.752114-.917373-3.800858-7.469951-3.800858-7.469951 0-.000003-.917521 3.276239-13.498618 3.538342-5.687188.118485-9.154991-1.611639-11.253579-3.542398-.614599 2.186614-.737873 3.804405-.737873 3.804405 0 10.877406 11.598696 8.125219 11.598696 8.125219s3.53807 11.008499 11.532308 10.484285c7.994237-.524211 10.09153-4.980137 10.09153-4.980137s.655084 2.621074 5.110888 2.621074c4.455806 0 6.552676-4.193613 6.552676-4.193613s10.61536 9.305099 15.726429 7.732464c5.111069-1.572639 6.683428-7.47046 6.683428-7.47046s3.407514 3.669495 8.911743 2.621071c5.504231-1.048425 8.125212-5.634897 8.125212-5.634897s5.2424 10.746186 19.13403 9.697762c13.89162-1.048425 9.95976-11.663565 9.95976-11.663565s4.576-1.117288 6.01853-7.638711c-10.80541 3.699179-13.61973-4.942636-13.61973-4.942636s-1.70354 4.718242-13.62937 6.421929c-11.925827 1.703692-14.939901-9.960271-14.939901-9.960271z" fill="#171d8f"/><path id="path4344" d="m89.350499 41.52124s-2.40938 7.969494-9.683858 8.293834c-7.274481.324339-10.286207-3.660409-10.286207-3.660409s3.428734 2.224045 9.498523.64868c6.069789-1.575366 10.471542-5.282105 10.471542-5.282105z" fill="#171d8f"/><path id="path4346" d="m64.993133 17.973283c-5.700807 2.2279-9.370295 12.31899-1.965795 9.23924 7.404499-3.079747 7.797659-11.663722 1.965795-9.23924z" fill="#fff"/><path id="path4348" d="m88.779269 18.563021c-8.190818-.262106-2.621062 5.438701 2.752115 4.521331 5.373174-.917371 2.293428-4.586858-2.752115-4.521331z" fill="#fff"/></g><path id="path4350" d="m62.402158 63.345852s4.911432 1.581964 9.359522 1.230417c4.44809-.351548 6.7648-2.460834 6.7648-2.460834s4.35541 2.988156 8.15482 1.933512c3.79941-1.054642 3.98475-1.14253 3.98475-1.14253l-11.61423 23.993126h15.59898l-12.20073 20.041877h10.16202l-13.06523 17.80224-.13106-11.39015h-16.567329l10.000739-16.428013h-19.899241z" fill="#ffc517" stroke-width=".955"/><path id="path4944-2" d="m78.52643 62.115435s-2.31643 2.109286-6.76452 2.460834c-4.448093.351547-9.359735-1.230417-9.359735-1.230417l-2.260243 8.029432c3.313546.687564 7.676249 1.291241 11.600218 1.015573 7.07687-.497162 8.71511-6.152083 8.71511-6.152083s2.42467 2.299384 7.79784 1.242912c.0757-.01489.14815-.03692.22248-.05479l2.18828-4.520339s-.1849.08782-3.98432 1.142462c-3.7994 1.054643-8.15511-1.933581-8.15511-1.933581z" fill="#ffac17" stroke-width=".955"/><path id="path4958" d="m73.25421 86.684443c-6.618175-.124291-10.8774 1.864362-5.766331 1.926508 5.111071.06215 10.156611-1.677926 5.766331-1.926508z" fill="#fff" stroke-width=".955"/><path id="path4960" d="m74.63027 89.41884c-1.11395.06215-3.60396 3.045127.13105 1.988654 3.73501-1.05647 3.73501-3.293707-.13105-1.988654z" fill="#fff" stroke-width=".955"/><path id="path4962" d="m83.24844 109.28128c-1.11395.0621-3.60396 3.04513.13105 1.98866 3.73502-1.05647 3.73502-3.29371-.13105-1.98866z" fill="#fff" stroke-width=".955"/><path id="path10560" d="m26.258234 75.59036s-7.784156 9.822863-6.301459 14.363621c1.482696 4.540758 7.50615 4.44809 9.730194-1.575365 2.224045-6.023453 1.575365-18.719041 0-16.95834-1.575364 1.760701-3.428735 4.170084-3.428735 4.170084z" fill="#7738c7" stroke-width=".981"/><path id="path10562" d="m21.557768 82.89206c-1.293145 2.553292-2.197479 5.235037-1.600921 7.061994 1.482696 4.540758 7.506151 4.447875 9.730195-1.575581.296649-.803423.540345-1.727683.739393-2.718375-.941667 1.030833-2.217239 1.944931-3.89005 2.209061-3.304697.521792-4.781213-1.255333-4.978617-4.977099z" fill="#171d8f" stroke-width=".981"/><path id="path10567" d="m49.45463 105.99467s-7.784156 9.82286-6.301459 14.36362c1.482696 4.54076 7.50615 4.44809 9.730194-1.57536 2.224045-6.02346 1.575365-18.71904 0-16.95834-1.575364 1.7607-3.428735 4.17008-3.428735 4.17008z" fill="#7738c7" stroke-width=".981"/><path id="path10569" d="m44.754164 113.29637c-1.293145 2.55329-2.197479 5.23504-1.600921 7.062 1.482696 4.54075 7.506151 4.44787 9.730195-1.57559.296649-.80342.540345-1.72768.739393-2.71837-.941667 1.03083-2.217239 1.94493-3.89005 2.20906-3.304697.52179-4.781213-1.25533-4.978617-4.9771z" fill="#171d8f" stroke-width=".981"/><path id="path10571" d="m42.56452 87.491945s-5.807319 7.328281-4.701162 10.715885c1.106155 3.3876 5.599914 3.31847 7.259147-1.175287 1.659235-4.493763 1.175291-13.96522 0-12.651659-1.17529 1.313558-2.557985 3.111061-2.557985 3.111061z" fill="#7738c7" stroke-width=".732"/><path id="path10573" d="m39.057768 92.939331c-.964742 1.904865-1.639415 3.905567-1.194357 5.268559 1.106156 3.3876 5.599915 3.3183 7.259149-1.175459.221313-.599386.403121-1.288924.551619-2.028022-.702524.769044-1.654156 1.451002-2.902146 1.648055-2.465448.389278-3.566993-.936531-3.714265-3.713133z" fill="#171d8f" stroke-width=".732"/><path id="path10575" d="m28.279734 108.32939s-5.807319 7.32828-4.701162 10.71588c1.106155 3.3876 5.599914 3.31847 7.259147-1.17529 1.659235-4.49376 1.175291-13.96522 0-12.65166-1.17529 1.31356-2.557985 3.11107-2.557985 3.11107z" fill="#7738c7" stroke-width=".732"/><path id="path10577" d="m24.772982 113.77677c-.964742 1.90487-1.639415 3.90557-1.194357 5.26856 1.106156 3.3876 5.599915 3.3183 7.259149-1.17546.221313-.59938.403121-1.28892.551619-2.02802-.702524.76904-1.654156 1.451-2.902146 1.64805-2.465448.38928-3.566993-.93653-3.714265-3.71313z" fill="#171d8f" stroke-width=".732"/><path id="path10579" d="m104.10376 73.493511s-7.784151 9.822863-6.301454 14.363621c1.482696 4.540758 7.506144 4.44809 9.730194-1.575365 2.22404-6.023453 1.57536-18.719041 0-16.95834-1.57537 1.760701-3.42874 4.170084-3.42874 4.170084z" fill="#7738c7" stroke-width=".981"/><path id="path10581" d="m99.403299 80.795211c-1.293145 2.553292-2.197479 5.235037-1.600921 7.061994 1.482696 4.540758 7.506152 4.447875 9.730192-1.575581.29665-.803423.54035-1.727683.73939-2.718375-.94166 1.030833-2.21724 1.944931-3.89005 2.209061-3.30469.521792-4.781207-1.255333-4.978611-4.977099z" fill="#171d8f" stroke-width=".981"/><path id="path10583" d="m127.30016 103.89782s-7.78416 9.82286-6.30146 14.36362 7.50615 4.44809 9.73019-1.57536c2.22405-6.02346 1.57537-18.719039 0-16.958339-1.57536 1.760699-3.42873 4.170079-3.42873 4.170079z" fill="#7738c7" stroke-width=".981"/><path id="path10585" d="m122.59969 111.19952c-1.29314 2.55329-2.19748 5.23504-1.60092 7.062 1.4827 4.54075 7.50615 4.44787 9.7302-1.57559.29665-.80342.54034-1.72768.73939-2.71837-.94167 1.03083-2.21724 1.94493-3.89005 2.20906-3.3047.52179-4.78121-1.25533-4.97862-4.9771z" fill="#171d8f" stroke-width=".981"/><path id="path10587" d="m120.41005 85.395096s-5.80732 7.328281-4.70116 10.715885c1.10615 3.3876 5.59991 3.31847 7.25914-1.175287 1.65924-4.493763 1.17529-13.96522 0-12.651659-1.17529 1.313558-2.55798 3.111061-2.55798 3.111061z" fill="#7738c7" stroke-width=".732"/><path id="path10589" d="m116.9033 90.842482c-.96475 1.904865-1.63942 3.905567-1.19436 5.268559 1.10616 3.3876 5.59991 3.3183 7.25915-1.175459.22131-.599386.40312-1.288924.55162-2.028022-.70253.769044-1.65416 1.451002-2.90215 1.648055-2.46545.389278-3.56699-.936531-3.71426-3.713133z" fill="#171d8f" stroke-width=".732"/><path id="path10591" d="m106.12526 106.23254s-5.80731 7.32828-4.70116 10.71588c1.10616 3.3876 5.59991 3.31847 7.25915-1.17529 1.65923-4.49376 1.17529-13.96522 0-12.65166s-2.55799 3.11107-2.55799 3.11107z" fill="#7738c7" stroke-width=".732"/><path id="path10593" d="m102.61851 111.67992c-.96474 1.90487-1.63941 3.90557-1.19436 5.26856 1.10616 3.3876 5.59992 3.3183 7.25915-1.17546.22132-.59938.40312-1.28892.55162-2.02802-.70252.76904-1.65415 1.451-2.90214 1.64805-2.46545.38928-3.567-.93653-3.71427-3.71313z" fill="#171d8f" stroke-width=".732"/></g></g></g></svg>