<svg id="Construction_Tool" height="512" viewBox="-70.866 -70.866 850.394 850.394" width="512"
     xmlns="http://www.w3.org/2000/svg">
    <g>
        <path d="m690.731 110.364c-20.645-23.543-68.141-35.625-96.43-8.883 10.184-10.563 16.305-23.305 17.273-36.973-9.515-140.73-281.007-75.847-234.784 126.622-66.809 52.016-131.235 123.129-183.067 191.664-79.77-25.703-175.441 36.523-192.008 119.508-5.719 26.27-8 63.512 13.641 91.785 22.891 30.875 71.406 38.707 98.789 10.281 8.578-8.555 12.672-17.949 15.379-24.164.719-2.242 2.109-4.504 4.484-5.07 4.91-1.313 11.797-2.98 14.719.363-.012.395-.098 1.172-.422 2.293-1.41 4.871-2.582 6.355-2.531 6.355-42.598 16.281-59.82 61.555-34.469 100.961 9.605 18.816 47.641 39.426 86.332 33.117 96.52-5.973 163.668-107.488 135.074-199.797 62.68-52.273 115.336-107.988 162.051-163.77 28.242-34.25 12.242-28.957 56.98-26.012 82.637.441 151.023-57.867 158.164-139.324 3.552-33.596-2.878-60.139-19.175-78.956zm-107.551 5.512c-4.391 7.324-6.07 12.684-8.801 18.879-.582.496-2.043 1.457-4.672 2.461-3.25.949-3.496 1.805-5.172-.211-1.527-1.875-1.922-12.297 1.961-16.488 2.668-1.422 5.41-2.668 8.066-4.137 7.398-4.016 13.73-8.867 19.07-14.262-3.901 3.813-7.432 8.356-10.452 13.758z"
              fill="none"/>
        <g>
            <path d="m123.024 538.478c16.02-4.801 33.074-5.051 47.105 5.207 15.117 11.047 20.016 27.242 14.926 44.773-2.398 8.266-5.973 16.34-12.059 22.57-6.168 6.328-13.789 9.324-21.547 13.176-15.043 7.461-17.125 26.457-8.32 39.656 11.043 16.539 32.734 18.008 50.844 16.27 21.305-2.051 42.473-9.242 59.82-21.965 34.516-25.32 51.5-70.566 46.102-112.57-1.844-14.355-14.047-37.348-.426-49.609 30.359-23.703 58.415-50.426 85.54-77.723 27.938-28.102 55.035-57.195 80.156-87.855 9.422-11.496 18.711-23.211 26.961-35.582 9.289-13.922 28.387-7.438 42.004-5.617 42.563 5.668 88.898-9.453 115.27-44.41 12.969-17.195 20.219-38.191 22.453-59.496 1.719-16.289 1.254-36.836-9.992-49.82-1.367-1.57-30.805-25.09-45.848.051-4.297 7.18-5.793 15.434-11 22.254-5.484 7.18-13.344 12.02-21.695 15.195-17.941 6.828-34.785 4.133-47.816-11.055-11.391-13.27-12.215-30.699-8.152-47.012 2.266-9.109 7.133-17.113 14.113-23.387 4.328-3.902 9.813-6.055 14.848-8.781 17.188-9.328 27.613-26.441.648-46.461-16.129-11.961-41.422-9.492-59.73-4.816-21.086 5.371-41.262 16.855-56.035 32.918-29.715 32.309-37.66 79.855-26.242 121.461 2.289 8.332 3.203 19.859-3.414 26.711-5.129 5.301-12.609 9.379-18.391 14.012-14.906 11.961-29.125 24.773-42.981 37.93-31.613 30.027-61.48 61.992-89.543 95.359-12.992 15.449-25.594 31.258-37.508 47.566-13.406 18.355-22.996 18.121-39.773 12.254-39.332-13.785-85.25 5.832-113.285 33.859-15.414 15.414-26.309 35.609-30.949 56.91-4.086 18.758-5.734 44.211 6.645 60.379 9.445 12.348 29.074 18.727 41.363 6.453 6.168-6.156 7.535-15.668 12.789-22.629 5.763-7.649 13.939-13.426 23.119-16.176z"
                  fill="#68182b"/>
            <path d="m82.481 542.915c-2.781 3.77-5.102 7.738-7.043 12.004-2.793 6.18-6.438 12.324-13.398 2.641-5.043-7.047-4.801-18.336-4.496-26.586.414-11 3.012-22.035 7.219-32.199 14.719-35.551 53.918-62.832 92.777-62.305 9.359.133 17.84 2.391 26.316 6.234 17.281 7.832 38.719-1.297 47.059-10.309 6.145-6.637 10.895-15.082 16.348-22.32 24.105-31.988 50.73-62.168 78.344-91.152 26.645-27.973 54.446-55.324 84.797-79.305 5.344-4.219 11.922-7.832 16.617-12.742 6.637-6.953 9.664-16.973 10.555-26.348 1-10.594-2.633-19.922-4.637-30.125-1.945-9.859-2.387-20.012-1.727-30.031 2.816-42.676 30.875-78.727 72.867-88.883 7.816-1.895 26.32-5.27 37.164-.621 14.73 6.316 7.031 11.551-1.258 16.078-8.348 4.547-15.578 10.91-21.34 18.43-22.957 29.98-18.793 76.281 10.883 99.957 28.891 23.055 73.625 11.801 94.07-17.406 1.953-2.781 3.652-5.73 5.137-8.789 6.262-12.805 15.98-17.164 20.375-4.41 1.199 3.488 1.582 7.398 1.898 10.91.969 10.633.059 21.359-2.465 31.715-10.125 41.48-45.488 68.594-87.695 71.68-9.152.672-18.465.434-27.516-1.129-10.133-1.738-18.598-4.047-28.957-2.328-7.785 1.293-15.914 3.883-22.234 8.73-5.176 3.961-8.215 9.992-11.926 15.246-19.148 27.172-41.719 52.113-64.277 76.449-26.477 28.582-54.012 56.27-82.891 82.426-12.473 11.297-25.227 22.285-38.496 32.641-9.07 7.055-16.211 27.805-9.129 50.457 5.891 18.855 5.746 39.129.434 58.105-11.25 40.184-45.992 68.344-88.031 69.82-7.293.258-16.824.816-23.191-3.316-7.555-4.898-7.395-11.422 1.484-15.426 3.117-1.414 6.176-2.957 9.09-4.758 7.652-4.719 14.172-10.766 19.344-18.113 8.715-12.395 14.234-29.262 13.832-44.535-.574-21.66-14.008-40.422-32.543-51-29.97-17.106-73.157-6.817-93.36 20.613z"
                  fill="#e5e5e5"/>
            <path d="m648.544 197.353c2.523-10.355 3.434-21.082 2.465-31.715-.316-3.512-.699-7.422-1.898-10.91-4.395-12.754-14.113-8.395-20.375 4.41-1.484 3.059-3.184 6.008-5.137 8.789-20.445 29.207-65.18 40.461-94.07 17.406-12.742-10.164-20.742-24.508-23.953-39.93.195 9.387 2.051 18.52 5.992 26.207 11.816 23.051 34.652 33.719 59.793 35.141 25.938 1.469 43.855-13.059 57.41-31.066 10.684-14.23 11.699-14.527 13.266 1.055.613 6.059.383 12.023-.895 16.875-5.055 19.223-15.332 35.984-31.133 47.164-16.949 11.992-40.711 16.48-60.75 15.746-14.141-.512-30.98-9.148-45.07-6.848-25.66 4.18-35.207 24.488-51.109 43.414-88.879 105.746-129.629 138.414-157.29 162.41-21.535 18.672-37.949 23.063-36.445 53.523.625 12.715 5.895 27.074 8.383 39.504 3.746 18.637.609 40.652-7.414 57.883-10.684 22.969-43.328 44.438-70.137 46.273-24.863 1.723-13.949-8.555-2.578-18.219 28.063-23.797 45.664-66.016 27.152-99.082-26.012-46.477-93.762-40.715-122.758-2.695 22.277-19.473 57.973-25.152 83.848-10.387 18.535 10.578 31.969 29.34 32.543 51 .402 15.273-5.117 32.141-13.832 44.535-5.172 7.348-11.691 13.395-19.344 18.113-2.914 1.801-5.973 3.344-9.09 4.758-8.879 4.004-9.039 10.527-1.484 15.426 6.367 4.133 15.898 3.574 23.191 3.316 42.039-1.477 76.781-29.637 88.031-69.82 5.313-18.977 5.457-39.25-.434-58.105-7.082-22.652.059-43.402 9.129-50.457 13.27-10.355 26.023-21.344 38.496-32.641 28.879-26.156 56.415-53.844 82.891-82.426 22.559-24.336 45.129-49.277 64.277-76.449 3.711-5.254 6.75-11.285 11.926-15.246 6.32-4.848 14.449-7.438 22.234-8.73 10.359-1.719 18.824.59 28.957 2.328 9.051 1.563 18.363 1.801 27.516 1.129 42.207-3.086 77.571-30.199 87.696-71.679z"
                  fill="#c6c6c6"/>
            <path d="m428.692 241.767c13.719-12.609 25.23-24.969 22.031-44.449-5.898-35.852-12.543-67.836 3.605-102.563 7.602-16.332 18.621-28.012 31.637-36.832-31.789 14.918-52.367 46.266-54.754 82.449-.66 10.02-.219 20.172 1.727 30.031 2.004 10.203 5.637 19.531 4.637 30.125-.891 9.375-3.918 19.395-10.555 26.348-4.695 4.91-11.273 8.523-16.617 12.742-30.352 23.98-58.153 51.332-84.797 79.305-27.613 28.984-54.238 59.164-78.344 91.152-5.453 7.238-10.203 15.684-16.348 22.32-8.34 9.012-29.777 18.141-47.059 10.309-8.477-3.844-16.957-6.102-26.316-6.234-38.859-.527-78.059 26.754-92.777 62.305-1.285 3.113-2.367 6.316-3.336 9.566 15.254-27.633 40.691-49.691 71.91-56.969 28.391-6.617 52.609 12.961 79.852 9.156 11.582-1.613 20.738-11.984 27.941-20.145 15.039-17.027 28.215-35.813 42.922-53.16 25.66-30.285 53.094-58.992 81.551-86.652 20.614-20.039 41.934-39.351 63.09-58.804z"
                  fill="#f4f4f4"/>
        </g>
    </g>
</svg>