<?xml version="1.0" encoding="UTF-8"?>
<!-- Generator: Adobe Illustrator 25.3.1, SVG Export Plug-In . SVG Version: 6.00 Build 0)  -->
<svg xmlns="http://www.w3.org/2000/svg" xmlns:xlink="http://www.w3.org/1999/xlink" version="1.1" id="Capa_1" x="0px" y="0px" viewBox="0 0 512 512" style="enable-background:new 0 0 512 512;" xml:space="preserve" width="512" height="512">
<g>
	<path style="fill-rule:evenodd;clip-rule:evenodd;fill:#7BEFE5;" d="M443.819,74.062c-3.201-7.796-6.649-15.483-9.949-23.23   c-5.621-13.215-11.339-26.383-16.747-39.679c-2.082-5.117-5.576-7.577-10.912-7.905c-15.008-0.924-30.011-1.889-45.019-2.802   c-2.426-0.148-4.862-0.133-7.296-0.217c-0.405-0.012-0.82-0.149-1.23-0.23c-12.572,0-25.143,0-37.715,0   c-2.162,0.11-4.327,0.225-6.495,0.342c-12.002,0.63-24.017,1.096-36.003,1.944c-11.163,0.787-22.326,1.754-33.443,3.052   c-14.111,1.647-28.224,3.391-42.244,5.66c-17.525,2.848-35.033,5.881-52.401,9.54c-19.737,4.165-39.318,9.093-58.954,13.741   c-4.258,1.011-8.465,2.223-12.689,3.349c-3.656,0.972-5.424,2.953-5.962,6.68c-0.063,0.56-0.127,1.12-0.19,1.679   c-0.176,1.551-0.351,3.102-0.527,4.653c-0.266,2.352-0.533,4.703-0.799,7.055c-0.336,2.962-0.671,5.923-1.007,8.885   c-0.383,3.381-0.766,6.763-1.149,10.144c-0.409,3.611-0.818,7.221-1.227,10.832c-0.413,3.649-0.827,7.299-1.24,10.948   c-0.396,3.498-0.792,6.996-1.189,10.493c-0.357,3.156-0.715,6.311-1.072,9.467c-0.661,5.837-1.498,11.673-1.966,17.529   c-0.094,1.181-0.167,2.364-0.212,3.547c-0.024,0.646-0.037,1.311,0.183,1.919c0.19,0.525,0.542,0.975,0.903,1.401   c1.471,1.738,3.179,3.231,4.922,4.687c2.201,1.855,4.389,3.726,6.562,5.614c4.344,3.774,8.63,7.615,12.847,11.53   c4.155,3.856,8.244,7.784,12.258,11.787c21.894,21.843,41.227,45.777,58.571,71.35c11.267,16.613,21.692,33.74,31.582,51.198   c0.216,0.375,0.37,0.784,0.554,1.172c0.098,0,0.194,0,0.296,0c14.241-23.244,33.3-40.64,59.931-49.039   c-25.686-44.886-53.982-87.815-88.129-127.059c62.421-9.578,124.786-16.694,187.961-19.169   c-13.677,22.804-26.048,45.996-37.275,69.797c-11.24,23.797-21.298,48.088-30.437,72.848c27.05,1.989,48.736,14.224,66.959,33.818   c0.639-1.458,1.267-2.743,1.776-4.074c6.154-16.162,13.059-31.997,20.861-47.43c14.135-27.946,31.148-54.038,50.67-78.521   c9.337-11.71,19.19-22.88,29.288-33.924c2.531-2.769,5.014-5.583,7.391-8.486c0.914-1.117,1.852-2.34,1.964-3.779   c0.095-1.214-0.416-2.384-0.907-3.499C450.915,92.605,447.502,83.27,443.819,74.062z"/>
	<path style="fill:#29ADFC;" d="M406.211,3.249c-15.008-0.924-30.011-1.889-45.019-2.802c-2.426-0.148-4.862-0.133-7.296-0.217   c-0.405-0.012-0.82-0.149-1.23-0.23c-12.572,0-25.143,0-37.715,0c-2.162,0.11-4.327,0.225-6.495,0.342   c-12.002,0.63-24.017,1.096-36.003,1.944c-11.163,0.787-22.326,1.754-33.443,3.052c-14.111,1.647-28.224,3.391-42.244,5.66   c-17.525,2.848-35.033,5.881-52.401,9.54c-19.737,4.165-39.318,9.093-58.954,13.741c-4.258,1.011-8.465,2.223-12.689,3.349   c-2.373,0.63-3.944,1.695-4.905,3.382c4.205,2.173,21.972,16.855,89.189,83.04c61.83-9.482,123.607-16.534,186.18-19.056   c6.439-11.415,36.277-62.782,71.121-98.334C412.287,4.557,409.627,3.459,406.211,3.249z"/>
	<path style="fill-rule:evenodd;clip-rule:evenodd;fill:#074784;" d="M177.446,121.012c-12.553-15.653-44.795-52.529-94.224-86.192   c-3.507,0.888-6.998,1.873-10.5,2.807c-2.373,0.63-3.944,1.695-4.905,3.382c4.146,2.14,21.452,16.424,86.259,80.161   c0.996,0.958,1.981,1.924,2.956,2.876C163.836,123.003,170.642,121.998,177.446,121.012z"/>
	<path style="fill-rule:evenodd;clip-rule:evenodd;fill:#074784;" d="M399.026,2.8c-40.844,42.546-64.685,84.718-74.018,103.066   c6.053-0.326,12.108-0.627,18.177-0.873c6.439-11.415,36.277-62.782,71.121-98.334c-2.018-2.101-4.679-3.2-8.095-3.41   C403.811,3.1,401.42,2.946,399.026,2.8z"/>
	<g>
		<path style="fill:#FFFFFF;" d="M160.82,37.195c0.152-0.042,0.856-0.23,2.055-0.547c0.445-0.115,0.956-0.253,1.531-0.408    c1.204-0.325,2.66-0.719,4.368-1.134l1.737-0.434c2.196-0.55,4.674-1.171,7.455-1.809c1.78-0.421,3.672-0.864,5.665-1.33    c1.294-0.295,2.639-0.551,3.939-0.799c0.785-0.15,1.585-0.303,2.395-0.467l0.303-0.059c4.221-0.819,9.004-1.749,14.004-2.621    c4.598-0.87,9.364-1.535,14.41-2.239l1.636-0.229c1.574-0.206,3.163-0.431,4.764-0.658l0.236-0.033    c3.979-0.564,8.077-1.146,12.219-1.493c5.883-0.59,11.86-1.185,17.833-1.776l17.882-1.115c4.171-0.329,8.334-0.424,12.36-0.516    l0.249-0.006c1.59-0.036,3.167-0.071,4.729-0.122l0.292-0.008c4.448-0.114,8.592-0.222,12.646-0.222    c1.104,0,2.199,0.008,3.28,0.026c5.225,0.016,10.041,0.126,14.529,0.237c0.751,0.019,1.49,0.034,2.219,0.048    c1.457,0.027,2.869,0.056,4.236,0.116c2.047,0.112,3.995,0.221,5.82,0.325c2.986,0.146,5.653,0.329,7.796,0.477l1.654,0.112    c5.124,0.361,8.111,0.65,8.235,0.662c-0.037,0.004-3.076,0.353-8.222,0.804l-1.618,0.14c-2.284,0.198-4.872,0.424-7.813,0.62    c-3.633,0.276-7.736,0.585-12.212,0.919c-4.191,0.339-9.174,0.727-14.438,1.032c-2.614,0.146-5.298,0.368-7.892,0.582    c-2.694,0.222-5.433,0.446-8.204,0.609c-6.842,0.448-13.801,0.989-21.169,1.562l-0.227,0.018c-4.486,0.35-9.012,0.702-13.54,1.034    c-4.077,0.36-8.154,0.701-12.202,1.039l-0.551,0.046c-7.759,0.647-15.025,1.255-22.14,1.966c-2.627,0.285-5.241,0.497-7.77,0.701    c-2.944,0.238-5.638,0.456-8.285,0.77c-4.981,0.555-9.561,0.972-13.988,1.375l-0.401,0.038c-4.174,0.362-8.278,0.768-12.186,1.2    c-2.834,0.312-5.377,0.543-7.62,0.747l-1.801,0.164c-1.778,0.175-3.3,0.287-4.532,0.378l-3.604,0.275H160.82z"/>
		<path style="fill:#FFFFFF;" d="M160.82,37.195c7.716-2.123,15.485-4.059,23.278-5.88c3.92-0.839,7.846-1.588,11.778-2.341    c3.935-0.729,7.847-1.585,11.81-2.163c15.791-2.703,31.727-4.43,47.658-5.982l11.982-0.768l5.991-0.382l6.005-0.261    c8.008-0.434,16.003-0.484,24.017-0.658c4.008,0,8.008,0.093,12.011,0.142c4.008,0.055,7.996,0.108,12.015,0.229    c7.997,0.389,15.992,0.874,23.98,1.548l0.005,0.995c-7.928,0.813-15.881,1.417-23.818,1.986l-23.83,1.692l-47.643,3.471    c-15.872,1.305-31.725,2.703-47.591,4.12l-23.786,2.197c-7.926,0.731-15.854,1.532-23.799,2.057h0L160.82,37.195z M160.82,37.195    l0.064,0h0c7.941-0.606,15.852-1.487,23.774-2.299l23.762-2.44l23.788-2.189l23.798-2.107l47.64-3.64l23.818-1.775    c7.945-0.597,15.87-1.229,23.781-2.066l0.005,0.995c-7.959-0.7-15.941-1.212-23.929-1.629c-3.98-0.134-7.995-0.201-11.989-0.27    c-3.998-0.062-8-0.17-11.995-0.183c-7.988,0.146-16.004,0.169-23.982,0.573l-5.989,0.239l-5.99,0.361l-11.98,0.726    c-15.932,1.493-31.845,3.173-47.629,5.801c-3.964,0.536-7.885,1.353-11.825,2.041c-3.935,0.712-7.878,1.423-11.793,2.219    C176.343,33.295,168.558,35.151,160.82,37.195z"/>
	</g>
	<path style="fill-rule:evenodd;clip-rule:evenodd;fill:#A089E4;" d="M446.761,306.039c4.276,2.03,4.652,5.947,0.825,8.71   l-41.238,29.783c-3.824,2.764-4.809,8.2-2.186,12.078l28.28,41.83c2.623,3.877,0.905,7.503-3.816,8.055l-50.941,5.959   c-4.718,0.551-8.276,4.8-7.903,9.436l4.026,50.056c0.373,4.636-2.927,7.002-7.334,5.258l-47.522-18.815   c-4.41-1.745-9.637,0.288-11.621,4.511l-21.394,45.602c-1.981,4.23-5.999,4.687-8.918,1.014l-31.132-39.103   c-2.924-3.671-8.457-4.43-12.303-1.69l-40.953,29.204c-3.843,2.742-7.485,1.206-8.103-3.407l-6.556-49.152   c-0.618-4.615-4.99-8.048-9.725-7.633l-50.451,4.44c-4.735,0.419-7.046-2.728-5.137-6.989l20.337-45.398   c1.912-4.261-0.027-9.405-4.306-11.436l-45.57-21.597c-4.279-2.031-4.649-5.949-0.825-8.711l41.24-29.786   c3.821-2.763,4.809-8.195,2.184-12.078l-28.277-41.828c-2.623-3.877-0.905-7.503,3.813-8.057l50.941-5.959   c4.721-0.55,8.276-4.799,7.903-9.435l-4.026-50.053c-0.373-4.636,2.929-7.005,7.334-5.261l47.522,18.817   c4.41,1.741,9.637-0.29,11.618-4.515l21.396-45.601c1.984-4.225,5.997-4.681,8.918-1.013l31.132,39.102   c2.924,3.671,8.457,4.432,12.297,1.694l40.958-29.207c3.843-2.74,7.488-1.206,8.103,3.403l6.559,49.157   c0.615,4.609,4.993,8.046,9.728,7.628l50.446-4.438c4.735-0.417,7.046,2.725,5.134,6.986l-20.334,45.401   c-1.912,4.262,0.029,9.405,4.309,11.436L446.761,306.039z"/>
	<path style="fill-rule:evenodd;clip-rule:evenodd;fill:#FFA4AC;" d="M401.079,319.591c6.644,76.13-49.953,145.381-126.4,154.683   c-76.457,9.3-143.813-44.879-150.457-121.005c-6.641-76.127,49.953-145.382,126.403-154.679   C327.077,189.288,394.441,243.469,401.079,319.591z"/>
	<path style="fill-rule:evenodd;clip-rule:evenodd;fill:#FC6084;" d="M385.227,321.538c5.605,65.192-44.774,124.712-112.524,132.952   c-67.75,8.246-127.215-37.921-132.82-103.106c-5.608-65.188,44.769-124.715,112.518-132.955   C320.148,210.191,379.619,256.355,385.227,321.538z"/>
	<g>
		<path style="fill:#F9D555;" d="M334.89,371.151c-0.133-1.645-1.583-2.829-3.221-2.633l-35.52,4.261    c-1.638,0.197-3.002-0.992-3.03-2.642l-2.094-122.395c-0.028-1.65-1.39-2.824-3.026-2.609l-64.53,8.482    c-1.636,0.215-3.571,1.602-4.301,3.082l-30.558,61.985c-0.73,1.48,0.015,2.841,1.655,3.025l31.084,3.488    c1.64,0.184,3.573-0.879,4.296-2.362l16.454-33.76c0.723-1.483,1.482-1.357,1.687,0.28l10.898,87.139    c0.205,1.637-0.972,3.098-2.616,3.247l-41.594,3.755c-1.643,0.148-2.854,1.613-2.691,3.255l3.208,32.238    c0.163,1.642,1.637,2.82,3.275,2.618l120.504-14.869c1.638-0.202,2.868-1.713,2.735-3.358L334.89,371.151z"/>
	</g>
	<path style="fill:#FFFFFF;" d="M204.88,303.866c3.308-10.34,6.636-20.728,11.484-30.442c4.893-9.803,11.572-15.814,22.717-17.067   c3.751-0.422,7.537-0.401,11.305-0.307c2.521,0.063,6.829,1.126,9.188,0.434c0,0-1.225,0.36-3.392,0.871   c-8.396,1.98-19.544,2.078-26.677,7.3c-3.803,2.784-5.93,7.078-8.069,11.145c-2.148,4.084-4.633,7.947-6.788,12.03   c-1.012,1.917-2.013,3.732-2.935,5.386c-0.469,0.831-0.887,1.636-1.334,2.377C208.595,298.383,206.731,301.12,204.88,303.866z"/>
	<path style="fill:#FFFFFF;" d="M215.009,391.095c0,0,0.626-0.285,1.731-0.66c1.102-0.393,2.684-0.876,4.591-1.355   c3.803-0.955,8.91-1.75,14.047-2.085c1.281-0.091,2.548-0.222,3.81-0.279c1.254-0.079,2.498-0.108,3.701-0.127   c2.405-0.031,4.66,0.06,6.61,0.217c1.946,0.17,3.579,0.393,4.729,0.603c1.15,0.201,1.816,0.381,1.816,0.381   s-0.618,0.302-1.71,0.719c-1.089,0.427-2.658,0.964-4.554,1.505c-3.787,1.077-8.905,2.046-14.055,2.52   c-5.134,0.33-10.3,0.198-14.196-0.258c-1.949-0.228-3.579-0.505-4.721-0.75C215.666,391.291,215.009,391.095,215.009,391.095z"/>
	<path style="fill:#FFFFFF;" d="M282.892,288.76c0,0,0.277,1.036,0.65,2.869c0.384,1.833,0.858,4.454,1.326,7.613   c0.932,6.319,1.694,14.791,1.997,23.312c0.083,2.122,0.208,4.231,0.255,6.32c0.072,2.09,0.093,4.143,0.104,6.145   c0.013,3.989-0.085,7.736-0.258,10.962c-0.181,3.226-0.418,5.938-0.634,7.845c-0.208,1.905-0.389,3.006-0.389,3.006   s-0.304-1.021-0.708-2.833c-0.421-1.815-0.948-4.411-1.478-7.558c-1.052-6.29-1.989-14.784-2.436-23.322   c-0.293-8.52-0.133-17.089,0.346-23.551c0.245-3.231,0.53-5.934,0.778-7.828C282.689,289.846,282.892,288.76,282.892,288.76z"/>
	<path style="fill-rule:evenodd;clip-rule:evenodd;fill:#074784;" d="M338.456,282.222c0.242,19.546,7.563,27.972,20.909,29.701   c-13.661,1.044-21.335,9.854-22.502,29.285c-0.538-19.025-6.631-28.976-20.738-30.095   C329.545,309.664,337.284,301.43,338.456,282.222z"/>
	<path style="fill-rule:evenodd;clip-rule:evenodd;fill:#FFFFFF;" d="M168.083,323.308c2.815,20.18,10.769,27.976,23.476,28.108   c-12.633,2.772-18.648,12.841-17.168,33.083c-3.017-19.605-10.026-29.14-23.367-28.542   C163.38,352.788,169.532,343.311,168.083,323.308z"/>
	<path style="fill-rule:evenodd;clip-rule:evenodd;fill:#074784;" d="M273.502,437.944c0.16,4.105-3.033,7.561-7.139,7.724   c-4.103,0.163-7.56-3.037-7.725-7.138c-0.16-4.109,3.036-7.563,7.139-7.722C269.881,430.643,273.337,433.832,273.502,437.944z"/>
	<path style="fill-rule:evenodd;clip-rule:evenodd;fill:#074784;" d="M182.133,288.463c0.165,4.111-3.03,7.577-7.147,7.737   c-4.111,0.165-7.579-3.04-7.741-7.146c-0.16-4.122,3.044-7.578,7.15-7.741C178.511,281.15,181.973,284.346,182.133,288.463z"/>
	<path style="fill-rule:evenodd;clip-rule:evenodd;fill:#FFFFFF;" d="M324.899,265.795c0,2.482-2.013,4.495-4.492,4.495   c-2.482,0-4.495-2.013-4.495-4.495c0-2.482,2.013-4.492,4.495-4.492C322.886,261.303,324.899,263.313,324.899,265.795z"/>
	<path style="fill-rule:evenodd;clip-rule:evenodd;fill:#FFFFFF;" d="M373.225,361.457c0,2.482-2.013,4.495-4.495,4.495   c-2.479,0-4.492-2.013-4.492-4.495c0-2.479,2.013-4.49,4.492-4.49C371.212,356.967,373.225,358.978,373.225,361.457z"/>
	<path style="fill-rule:evenodd;clip-rule:evenodd;fill:#FFA3AB;" d="M196.898,417.367c0,2.949-2.391,5.338-5.334,5.338   c-2.951,0-5.339-2.389-5.339-5.338c0-2.947,2.388-5.333,5.339-5.333C194.507,412.035,196.898,414.421,196.898,417.367z"/>
	<path style="fill-rule:evenodd;clip-rule:evenodd;fill:#FFA3AB;" d="M267.862,231.056c0,2.949-2.386,5.34-5.334,5.34   c-2.948,0-5.334-2.391-5.334-5.34c0-2.946,2.386-5.335,5.334-5.335C265.476,225.721,267.862,228.11,267.862,231.056z"/>
	<path style="fill-rule:evenodd;clip-rule:evenodd;fill:#FFA3AB;" d="M325.743,425.392c0,2.949-2.391,5.338-5.336,5.338   c-2.948,0-5.337-2.389-5.337-5.338c0-2.945,2.389-5.333,5.337-5.333C323.352,420.059,325.743,422.447,325.743,425.392z"/>
	<path style="fill-rule:evenodd;clip-rule:evenodd;fill:#FFFFFF;" d="M237.558,347.226c0,2.948-2.389,5.337-5.337,5.337   c-2.945,0-5.336-2.389-5.336-5.337c0-2.946,2.391-5.335,5.336-5.335C235.17,341.891,237.558,344.28,237.558,347.226z"/>
</g>















</svg>
