<?xml version="1.0" encoding="UTF-8"?>
<!-- Generator: Adobe Illustrator 25.3.1, SVG Export Plug-In . SVG Version: 6.00 Build 0)  -->
<svg xmlns="http://www.w3.org/2000/svg" xmlns:xlink="http://www.w3.org/1999/xlink" version="1.1" id="Capa_1" x="0px" y="0px" viewBox="0 0 512 512" style="enable-background:new 0 0 512 512;" xml:space="preserve" width="512" height="512">
<g>
	<path style="fill-rule:evenodd;clip-rule:evenodd;fill:#074784;" d="M479.416,170.903c-0.015,11.813-57.949,24.673-131.046,24.601   c-73.097-0.077-134.352-9.218-134.328-21.035c0.024-11.803,60.073-23.443,133.172-23.371   C420.309,151.165,479.445,159.095,479.416,170.903z"/>
	<g>
		<path style="fill-rule:evenodd;clip-rule:evenodd;fill:#E16B56;" d="M283.597,228.117c3.467-1.49,6.94-2.97,10.405-4.464    c0.87-0.332,1.74-0.668,2.609-1.005c2.487-1.057,4.969-2.119,7.452-3.181c0.271,0.086,0.531,0.178,0.795,0.279    c3.996,9.689,8.04,19.358,11.959,29.07c0.695,1.725,0.887,3.648,1.312,5.483c-2.484,1.149-4.967,2.307-7.454,3.455    C301.648,247.878,292.623,237.997,283.597,228.117z"/>
		<path style="fill-rule:evenodd;clip-rule:evenodd;fill:#B25746;" d="M318.13,254.299c-0.425-1.836-0.617-3.758-1.312-5.483    c-3.919-9.713-7.963-19.382-11.959-29.07c1.338-0.774,2.677-1.552,4.018-2.331c0.853-0.404,1.706-0.803,2.564-1.206    c3.472-1.49,6.947-2.98,10.422-4.469c0.836,13.461,1.672,26.908,2.504,40.364c-1.819,0.802-3.64,1.61-5.464,2.417    C318.646,254.453,318.387,254.38,318.13,254.299z"/>
		<g>
			<path style="fill-rule:evenodd;clip-rule:evenodd;fill:#F9D455;" d="M309.458,210.282c0.808,1.913,1.329,3.946,1.982,5.926     c3.472-1.49,6.947-2.98,10.422-4.469c-0.039-0.308-0.015-0.658-0.135-0.937c-24.157-56.747-48.325-113.49-72.504-170.228     c-0.06-0.135-0.204-0.245-0.31-0.365c-3.23,1.547-6.462,3.095-9.693,4.638c12.791,30.186,25.562,60.371,38.37,90.542     C288.197,160.359,298.856,185.311,309.458,210.282z"/>
			<path style="fill-rule:evenodd;clip-rule:evenodd;fill:#F9D455;" d="M296.612,222.647c2.487-1.057,4.969-2.119,7.452-3.181     c0.271,0.086,0.531,0.178,0.795,0.279c1.338-0.774,2.677-1.552,4.018-2.331c-1.336-2.336-2.912-4.566-3.96-7.021     c-23.26-54.446-46.465-108.915-69.675-163.375c-1.139,0.351-2.28,0.692-3.419,1.043c-0.593-0.053-1.194-0.101-1.785-0.149     c-1.754,1.144-3.508,2.292-5.255,3.446c23.205,54.517,46.417,109.03,69.567,163.567     C295.391,217.38,295.874,220.072,296.612,222.647z"/>
			<path style="fill-rule:evenodd;clip-rule:evenodd;fill:#F9D455;" d="M211.447,59.345c23.52,55.267,47.049,110.534,70.586,165.792     c0.44,1.028,1.041,1.994,1.564,2.98c3.467-1.49,6.94-2.97,10.405-4.464c-1.286-2.571-2.711-5.089-3.842-7.738     c-22.816-53.518-45.605-107.05-68.404-160.578c-0.377-0.889-0.86-1.725-1.288-2.591c-3.33,1.293-6.656,2.586-9.987,3.873     C210.801,57.533,211.07,58.461,211.447,59.345z"/>
		</g>
		<path style="fill-rule:evenodd;clip-rule:evenodd;fill:#074780;" d="M318.13,254.299l-7.454,3.455    c4.784,5.349,9.573,10.698,14.36,16.047c0,0,0.964,0.62,1.103-0.726c-0.279-2.513-0.548-5.022-0.824-7.531    c-0.315-4.484-0.634-8.968-0.949-13.442C322.546,252.905,319.954,253.491,318.13,254.299z"/>
		<path style="fill-rule:evenodd;clip-rule:evenodd;fill:#FF8084;" d="M324.365,252.103l-13.689,5.652    c0,0-16.333-16.527-27.079-29.638l38.264-16.378C321.862,211.738,323.784,231.961,324.365,252.103z"/>
		<path style="fill-rule:evenodd;clip-rule:evenodd;fill:#F0844F;" d="M292.878,224.214c-0.404-0.808-0.822-1.61-1.24-2.413    c-0.903-1.745-1.841-3.542-2.634-5.392c-16.191-37.971-32.362-75.952-48.537-113.927l-19.87-46.655    c-0.226-0.533-0.493-1.048-0.762-1.562l-0.089-0.168c-0.135-0.264-0.274-0.524-0.404-0.788l-0.654-1.307    c2.138-0.692,6.8-2.191,6.8-2.191l9.665,22.712c20.151,47.343,40.273,94.618,60.352,141.912c0.755,1.778,1.221,3.638,1.675,5.44    l0.031,0.125c0.197,0.774,0.389,1.543,0.608,2.302l0.315,1.101l-4.746,1.831L292.878,224.214z"/>
		<path style="fill-rule:evenodd;clip-rule:evenodd;fill:#F0844F;" d="M307.785,218.039c-0.416-0.731-0.855-1.447-1.297-2.168    c-0.971-1.581-1.975-3.22-2.725-4.983c-20.737-48.534-41.431-97.093-62.12-145.646l-8.007-18.791l6.202-3.364l13.42,31.671    c8.49,20.045,16.982,40.095,25.49,60.14c5.161,12.159,10.337,24.313,15.516,36.462c5.462,12.822,10.914,25.625,16.35,38.432    c0.579,1.365,1.014,2.778,1.43,4.148c0.197,0.639,0.387,1.259,0.591,1.874l0.348,1.057l-4.621,2.182L307.785,218.039z"/>
		<path style="fill-rule:evenodd;clip-rule:evenodd;fill:#FC6084;" d="M205.57,44.831c0.755,4.229,3.023,8.285,4.808,12.063    c0.027,0.058,0.603,1.345,0.646,1.326l38.711-16.441c-1.091-2.624-2.199-5.238-3.266-7.867c-1.151-2.831-2.348-5.786-4.717-7.824    c-2.047-1.764-4.755-2.869-7.466-2.932c-1.49-0.029-3.189,0.187-4.606,0.678c-5.878,2.018-11.616,4.647-17.215,7.338    c-4.056,1.951-7.156,6.286-7.154,10.871C205.31,42.976,205.402,43.908,205.57,44.831z"/>
	</g>
	<path style="fill:#F0844F;" d="M299.634,158.932l-15.302,3.225l-26.713,5.632c2.146,5.051,4.299,10.097,6.447,15.148l27.792-3.143   l15.898-1.797C305.048,171.643,302.34,165.29,299.634,158.932z"/>
	<path style="fill-rule:evenodd;clip-rule:evenodd;fill:#7BEFE5;" d="M456.685,50.791c-12.808,46.655-25.485,92.854-38.368,139.773   c-13.949-3.898-26.891-7.574-39.876-11.116c-5.234-1.422-6.769-3.941-5.123-9.544c13.127-44.694,25.867-89.509,38.966-134.218   c2.97-10.14,7.021-19.867,14.881-27.557c5.303-5.181,14.098-6.622,20.975-4.268c9.794,3.355,10.337,12.928,10.222,21.891   c-0.062,4.671-0.956,13.13-0.956,13.13s8.112,5.584,11.659,10.515c1.35,1.879,2.465,5.969,1.783,8.583   c-9.554,36.409-19.387,72.746-29.304,109.059c-1.048,3.835-1.829,9.141-7.197,8.41c-1.084-0.154-2.499-7.468-1.617-10.933   c7.648-30.109,15.794-60.092,23.765-90.129c1.379-5.195,2.497-10.467,3.967-15.638C461.596,54.755,460.253,52.275,456.685,50.791z"/>
	<g>
		<path style="fill-rule:evenodd;clip-rule:evenodd;fill:#FC6084;" d="M325.673,287.57c5.743-73.299,11.479-146.429,17.224-219.747    c2.393,0.346,4.801,0.692,7.242,1.048c-5.729,73.179-11.462,146.328-17.19,219.488    C330.579,288.098,328.152,287.839,325.673,287.57z"/>
		<path style="fill-rule:evenodd;clip-rule:evenodd;fill:#FC6084;" d="M320.893,286.729c-1.872-0.226-3.698-0.452-5.515-0.673    c5.726-73.092,11.462-146.218,17.21-219.675c1.701,0.356,3.6,0.745,5.488,1.134C332.362,140.42,326.629,213.569,320.893,286.729z"/>
		<path style="fill-rule:evenodd;clip-rule:evenodd;fill:#FC6084;" d="M355.147,69.519c1.689,0.12,3.532,0.26,5.233,0.38    c-5.752,73.4-11.491,146.53-17.238,219.839c-1.605-0.24-3.475-0.514-5.207-0.769C343.666,215.871,349.404,142.707,355.147,69.519z    "/>
		<path style="fill-rule:evenodd;clip-rule:evenodd;fill:#FF8084;" d="M343.041,294.903c-0.099,1.552-0.212,3.234-0.317,4.82    c-9.415-1.254-18.757-2.509-28.105-3.758c0.175-1.331,0.399-3.047,0.618-4.719C324.211,292.433,333.617,293.664,343.041,294.903z"/>
		<path style="fill-rule:evenodd;clip-rule:evenodd;fill:#FFA4AC;" d="M341.676,304.424c0.488,0.038,0.793,0.038,1.089,0.077    c3.64,0.562,4.068,0.197,4.342-3.374c0.618-8.175,1.288-16.326,1.922-24.505c1.56-19.939,3.105-39.879,4.667-59.818    c1.158-14.816,2.321-29.638,3.489-44.459c1.288-16.34,2.595-32.675,3.878-49.02c1.122-14.206,2.283-28.403,3.273-42.623    c0.399-5.647,1.692-11.25,0.264-17.032c-0.37-1.495-0.615-3.032-0.875-4.556c-1.961-11.539-3.912-23.068-5.858-34.607    c-1.264-7.435-2.466-14.884-3.852-22.304c-0.154-0.851-1.273-2.066-2.047-2.191c-0.786-0.12-2.208,0.682-2.477,1.432    c-2.268,6.176-4.316,12.433-6.459,18.666c-3.859,11.188-7.757,22.367-11.577,33.574c-1.245,3.643-2.984,7.257-3.347,11.049    c-1.56,16.268-2.684,32.579-3.965,48.871c-1.435,18.243-2.869,36.486-4.299,54.734c-1.283,16.397-2.547,32.805-3.825,49.212    c-1.452,18.675-2.929,37.341-4.364,56.026c-0.25,3.196-0.327,6.421-0.485,9.636l-0.668,9.256    c-0.197,0.918-0.452,1.749-0.541,2.586c-0.516,4.969-0.471,5.003,5.042,5.979c-0.661,6.56-1.324,13.139-1.968,19.584    c9.203,1.202,18.123,2.374,27.148,3.561C340.679,317.611,341.179,311.041,341.676,304.424z M360.38,69.898    c-5.752,73.4-11.491,146.53-17.238,219.839c-1.605-0.24-3.475-0.514-5.207-0.769c5.731-73.097,11.469-146.261,17.212-219.449    C356.836,69.639,358.679,69.778,360.38,69.898z M350.139,68.87c-5.729,73.179-11.462,146.328-17.19,219.488    c-2.369-0.259-4.796-0.519-7.276-0.788c5.743-73.299,11.479-146.429,17.224-219.747C345.29,68.168,347.698,68.514,350.139,68.87z     M315.378,286.056c5.726-73.092,11.462-146.218,17.21-219.675c1.701,0.356,3.6,0.745,5.488,1.134    c-5.714,72.905-11.447,146.054-17.183,219.214C319.021,286.503,317.195,286.277,315.378,286.056z M314.619,295.965    c0.175-1.331,0.399-3.047,0.618-4.719c8.975,1.187,18.38,2.417,27.804,3.657c-0.099,1.552-0.212,3.234-0.317,4.82    C333.309,298.469,323.966,297.215,314.619,295.965z"/>
	</g>
	<g>
		<path style="fill:#FC6084;" d="M323.736,179.385c0.519-6.642,1.043-13.293,1.562-19.939l-4.82,0.831    c-0.212,2.686-0.423,5.368-0.635,8.059c-0.283,3.595-0.557,7.19-0.836,10.784L323.736,179.385z"/>
		<path style="fill:#FC6084;" d="M353.744,154.52c-0.692,8.809-1.384,17.623-2.071,26.437l4.813,0.274    c0.231-2.965,0.464-5.926,0.699-8.886c0.49-6.229,0.981-12.452,1.475-18.68L353.744,154.52z"/>
		<path style="fill:#FC6084;" d="M334.104,179.972c0.584-7.449,1.17-14.908,1.752-22.357l-4.907,0.846    c-0.558,7.079-1.11,14.158-1.668,21.237L334.104,179.972z"/>
		<path style="fill:#FC6084;" d="M343.291,156.327c-0.629,8.016-1.259,16.032-1.884,24.053l5.022,0.279    c0.658-8.401,1.317-16.811,1.975-25.216L343.291,156.327z"/>
	</g>
	<g>
		<path style="fill:#29ADFC;" d="M439.062,140.011c-2.134,8.16-4.256,16.33-6.332,24.505c-0.882,3.465-3.859,10.996,1.617,10.933    c5.416-0.072,6.149-4.575,7.197-8.41c2.622-9.602,5.241-19.209,7.846-28.816L439.062,140.011z"/>
		<path style="fill:#29ADFC;" d="M431.853,141.261l-52.847,9.146c-1.896,6.497-3.78,13.004-5.688,19.497    c-1.646,5.604-0.111,8.122,5.123,9.544c6.757,1.845,13.509,3.725,20.396,5.656l20.66,1.158    C423.63,171.206,427.749,156.216,431.853,141.261z"/>
	</g>
	<path style="fill-rule:evenodd;clip-rule:evenodd;fill:#A089E4;" d="M479.551,170.735l-265.508,4.464l42.229,279.888   c0,0,0.014,0,0.019,0.01c2.172,10.544,44.536,20.362,95.478,20.406c51.324,0.053,92.248-9.828,93.791-20.459   c0.015-0.01,0.034-0.014,0.05-0.019L479.551,170.735z"/>
	<path style="fill-rule:evenodd;clip-rule:evenodd;fill:#7BEFE5;" d="M252.355,429.131c18.291,3.604,104.864,18.527,196.554-1.74   l24.534-205.483l0.586-5.522c0,0-77.662,26.874-253.119,4.345L252.355,429.131z"/>
	<path style="fill-rule:evenodd;clip-rule:evenodd;fill:#F18545;" d="M250.267,415.29c18.217,2.821,109.537,15.316,200.3-1.802   l21.088-176.629c-4.296,1.216-80.918,21.953-247.763,3.643L250.267,415.29z"/>
	<path style="fill-rule:evenodd;clip-rule:evenodd;fill:#D1AD55;" d="M298.193,344.817c0,10.487-5.712,18.997-12.764,18.997   c-7.05,0-12.762-8.511-12.762-18.997c0-10.491,5.712-18.997,12.762-18.997C292.481,325.819,298.193,334.326,298.193,344.817z"/>
	<path style="fill-rule:evenodd;clip-rule:evenodd;fill:#FFFFFF;" d="M429.767,384.009c0.149,3.758-2.773,6.915-6.526,7.065   c-3.751,0.149-6.911-2.768-7.06-6.522c-0.149-3.753,2.773-6.911,6.524-7.06C426.456,377.343,429.618,380.26,429.767,384.009z"/>
	<path style="fill-rule:evenodd;clip-rule:evenodd;fill:#FFFFFF;" d="M385.645,283.903c0.147,3.753-2.771,6.911-6.522,7.06   c-3.753,0.154-6.915-2.768-7.065-6.522c-0.149-3.753,2.773-6.911,6.527-7.06C382.336,277.228,385.496,280.154,385.645,283.903z"/>
	<path style="fill-rule:evenodd;clip-rule:evenodd;fill:#FFFFFF;" d="M352.511,318.467c0.075,1.855-1.367,3.412-3.22,3.484   c-1.85,0.077-3.41-1.365-3.482-3.215c-0.077-1.855,1.367-3.412,3.217-3.484C350.879,315.175,352.436,316.616,352.511,318.467z"/>
	<path style="fill-rule:evenodd;clip-rule:evenodd;fill:#FFFFFF;" d="M453.748,256.774c0.096,2.408-1.781,4.436-4.191,4.532   c-2.408,0.101-4.436-1.773-4.532-4.186c-0.094-2.408,1.783-4.441,4.191-4.532C451.624,252.492,453.652,254.366,453.748,256.774z"/>
	<path style="fill-rule:evenodd;clip-rule:evenodd;fill:#FFA3AB;" d="M406.406,340.069c0.769,2.657-0.764,5.435-3.419,6.204   c-2.655,0.769-5.435-0.764-6.204-3.422c-0.766-2.658,0.767-5.431,3.424-6.199C402.862,335.883,405.637,337.411,406.406,340.069z"/>
	<path style="fill-rule:evenodd;clip-rule:evenodd;fill:#FFA3AB;" d="M303.003,258.134c0.769,2.658-0.762,5.435-3.417,6.204   c-2.658,0.769-5.435-0.764-6.204-3.422c-0.769-2.658,0.764-5.435,3.422-6.199C299.461,253.948,302.234,255.476,303.003,258.134z"/>
	<path style="fill-rule:evenodd;clip-rule:evenodd;fill:#074784;" d="M342.032,281.904c0.18,4.513-3.33,8.319-7.85,8.497   c-4.515,0.183-8.321-3.34-8.502-7.853c-0.178-4.522,3.34-8.319,7.855-8.497C338.052,273.873,341.854,277.381,342.032,281.904z"/>
	<path style="fill-rule:evenodd;clip-rule:evenodd;fill:#FFFFFF;" d="M371.419,351.579c0.142,18.195,6.279,26.024,17.517,27.619   c-11.512,0.985-18.01,9.203-19.055,27.297c-0.389-17.714-5.488-26.97-17.368-27.994   C363.821,377.132,370.372,369.456,371.419,351.579z"/>
	<path style="fill-rule:evenodd;clip-rule:evenodd;fill:#074784;" d="M432.905,270.807c-2.12,21.189,4.777,31.204,19.012,34.703   c-14.912-0.538-24.301,8.064-27.934,28.96c1.737-20.665-3.64-32.18-18.779-35.112C419.91,299.421,429.296,291.458,432.905,270.807z   "/>
	<path style="fill-rule:evenodd;clip-rule:evenodd;fill:#074784;" d="M228.902,273.695l27.369,181.392c0,0,0.014,0,0.019,0.01   c1.591,7.713,24.721,15.042,56.98,18.435c1.92-4.263,3.753-8.578,5.486-12.947c15.624-39.403,23.763-79.047,13.923-119.517   C321.049,291.309,275.348,264.891,228.902,273.695z"/>
	<path style="fill:#7BEFE5;" d="M363.418,191.386c0,0,0.341-0.091,0.976-0.265c0.634-0.139,1.564-0.404,2.749-0.634   c1.187-0.245,2.624-0.562,4.272-0.846c1.653-0.293,3.515-0.586,5.541-0.889c2.026-0.288,4.219-0.567,6.536-0.817   c2.321-0.235,4.758-0.519,7.281-0.716c2.523-0.221,5.135-0.37,7.771-0.558c2.643-0.192,5.325-0.303,8.011-0.418   c2.679-0.115,5.354-0.269,7.992-0.317c2.639-0.067,5.236-0.139,7.749-0.202c2.511-0.072,4.962,0,7.267-0.062   c2.309-0.038,4.505-0.034,6.541,0c2.04,0.072,3.909,0.091,5.565,0.101c1.66,0.024,3.126,0.11,4.332,0.168   c1.206,0.038,2.168,0.149,2.819,0.192c0.658,0.067,1.009,0.106,1.009,0.106s-0.32,0.139-0.916,0.408   c-0.603,0.24-1.478,0.649-2.614,1.062c-1.134,0.433-2.513,0.971-4.114,1.514c-0.798,0.269-1.653,0.557-2.547,0.855   c-0.908,0.274-1.865,0.509-2.864,0.783c-1.999,0.519-4.176,1.052-6.488,1.567c-2.311,0.529-4.767,0.884-7.315,1.283   c-2.544,0.38-5.183,0.774-7.869,0.966c-2.684,0.25-5.418,0.428-8.148,0.591c-2.73,0.067-5.46,0.149-8.151,0.144   c-1.346,0.019-2.677,0-3.994-0.053c-1.312-0.038-2.614-0.077-3.893-0.154c-5.113-0.216-9.869-0.702-13.942-1.235   c-4.076-0.524-7.459-1.177-9.83-1.692c-1.185-0.221-2.117-0.485-2.751-0.629C363.759,191.477,363.418,191.386,363.418,191.386z"/>
	<path style="fill-rule:evenodd;clip-rule:evenodd;fill:#FC6084;" d="M38.663,390.958c-4.181-15.715-6.738-30.565-6.123-45.583   c1.353-45.516,41.575-81.872,97.588-75.769c20.978,2.297,39.891-0.529,58.941-9.222c54.03-24.457,115.708-0.221,129.498,54.364   c9.84,37.452,1.704,74.135-13.92,110.597c-5.387,12.548-11.611,24.678-18.993,36.053c-15.379,23.659-35.683,36.299-60.813,37.942   c-16.902,1.12-33.309,4.094-49.428,9.136c-25.236,7.93-47.871,2.542-68.993-16.792c-25.925-23.779-47.854-51.826-62.351-86.029   C41.919,400.555,40.253,395.293,38.663,390.958z"/>
	<path style="fill-rule:evenodd;clip-rule:evenodd;fill:#074784;" d="M160.587,240.074c-1.725-7.425-1.893-14.706-2.504-22.251   c-0.754-9.371-3.037-19.05-11.81-21.16c-4.02-0.966-8.112,0.5-11.782,2.196l0,0c-0.344,0.154-0.687,0.312-1.019,0.476   c-6.868,3.278-17.2,6.017-11.498,15.384c5.899,9.698,11.414,19.637,16.924,29.561c3.037,5.469,6.822,10.789,5.565,17.656   c1.202,2.35,0.745,6.118,4.633,6.233c2.984,0.096,4.39-2.432,5.844-4.585c1.079-1.596,2.177-3.23,3.302-4.859v-0.005   c1.562-2.278,3.181-4.546,4.912-6.69C164.504,250.353,161.048,242.077,160.587,240.074z"/>
	<path style="fill-rule:evenodd;clip-rule:evenodd;fill:#7BEFE5;" d="M225.348,198.099c-1.172-1.327-2.915-0.067-4.332,0.404   c-18.421,6.123-33.554,17.936-46.4,32.281c-5.07,5.656-9.441,11.952-12.558,18.901c-2.612,5.83-3.758,13.831-11.702,8.675   c-6.435-4.176-11.957-10.895-18.087-15.653c-6.435-4.998-13.219-9.549-20.297-13.581c-7.103-4.047-14.475-7.617-22.138-10.487   c-5.049-1.889-25.69-11.942-22.388,1.096c2.35,9.28,11.976,17.556,18.012,24.639c10.779,12.654,23.034,24.755,39.093,30.272   c29.236,10.049,69.418-5.181,84.958-31.598c7.341-12.471,10.916-27.038,15.557-40.653   C225.545,200.988,225.927,198.758,225.348,198.099z"/>
	<path style="fill:#FFFFFF;" d="M232.711,263.367c0,0,0.757-0.418,2.088-0.995c0.654-0.317,1.485-0.586,2.509-0.827   c0.509-0.134,1.054-0.245,1.64-0.374c9.733-2.152,20.161,2.291,27.835,8.054c2.413,1.812,4.496,3.696,6.151,5.455   c1.668,1.749,2.922,3.359,3.765,4.546c0.836,1.187,1.266,1.942,1.266,1.942s-0.86-0.115-2.275-0.437   c-6.555-1.492-12.666-4.672-18.81-7.319C248.859,269.956,240.748,266.688,232.711,263.367z"/>
	<path style="fill:#FFFFFF;" d="M294.137,294.634c0,0,0.106,0.014,0.312,0.038c0.192,0.029,0.531,0.043,0.853,0.125   c0.697,0.135,1.595,0.394,2.535,0.788c0.461,0.202,0.932,0.442,1.389,0.721c0.457,0.26,0.896,0.682,1.317,1.086   c0.846,0.841,1.583,1.86,2.177,2.96c0.507,1.091,0.846,2.254,0.995,3.402c0.072,0.577,0.106,1.144,0.079,1.701   c-0.043,0.567-0.127,1.115-0.233,1.629c-0.106,0.504-0.272,0.99-0.423,1.418c-0.125,0.418-0.322,0.808-0.471,1.125   c-0.13,0.308-0.327,0.577-0.421,0.745c-0.106,0.173-0.163,0.264-0.163,0.264s-0.103-0.034-0.305-0.11   c-0.183-0.077-0.514-0.168-0.812-0.322c-0.315-0.144-0.721-0.312-1.081-0.538c-0.389-0.212-0.822-0.447-1.216-0.726   c-0.399-0.279-0.798-0.586-1.173-0.923c-0.373-0.341-0.793-0.683-1.141-1.072c-0.718-0.759-1.285-1.648-1.723-2.59   c-0.466-0.875-0.793-1.831-0.942-2.84c-0.096-0.509-0.074-1.019-0.158-1.552c-0.062-0.533-0.082-1.062-0.077-1.567   c0.034-1.019,0.178-1.942,0.346-2.634c0.058-0.327,0.187-0.639,0.24-0.831C294.103,294.74,294.137,294.634,294.137,294.634z"/>
	<path style="fill-rule:evenodd;clip-rule:evenodd;fill:#FFA4AC;" d="M158.876,426.742c1.37,7.05-7.603,14.72-20.043,17.123   c-12.44,2.422-23.633-1.336-24.993-8.386c-1.372-7.05,7.603-14.725,20.038-17.142C146.316,415.929,157.506,419.687,158.876,426.742   z"/>
	<path style="fill-rule:evenodd;clip-rule:evenodd;fill:#FFA4AC;" d="M272.434,404.15c1.37,7.06-7.603,14.74-20.041,17.147   c-12.438,2.408-23.63-1.355-24.995-8.401c-1.37-7.05,7.608-14.72,20.041-17.142C259.878,393.351,271.069,397.109,272.434,404.15z"/>
	<path style="fill:#FFA4AC;" d="M134.955,496.903c-0.668,0.144-1.391,0.01-1.987-0.408l-2.605-1.845   c-0.577-0.428-1.189-0.87-1.879-1.37c-1.502-1.081-3.357-2.417-5.45-4.061l-1.603-1.245c-2.785-2.143-5.942-4.58-9.417-7.497   c-24.872-20.88-47.931-45.892-58.777-77.105c-11.823-34.028-6.894-74.699,20.359-100.038c16.14-15.007,40.098-22.374,61.818-17.844   c0.466,0.091,0.889,0.183,1.286,0.25l3.179,0.678c1.221,0.255,2.071,1.355,2.009,2.6c-0.053,1.154-0.884,2.119-1.999,2.355   c-0.082,0.019-0.166,0.029-0.25,0.039c0,0-3.152,0.348-3.172,0.351c-12.241,1.353-24.114,4.696-34.607,11.26l-1.146,0.711   c-3.674,2.561-9.249,6.718-13.923,12.356c-4.402,5.238-8.057,11.13-10.888,17.527c-11.108,25.1-6.1,54.733,4.954,78.918   c11.892,26.017,30.766,48.255,48.223,70.626c4.729,6.06,7.303,9.641,7.411,9.794c0.721,0.999,0.613,2.379-0.26,3.263   C135.871,496.576,135.424,496.807,134.955,496.903z"/>
	<path style="fill-rule:evenodd;clip-rule:evenodd;fill:#FFFFFF;" d="M154.839,406.413c-15.672,0.38-30.161-13.202-30.541-28.619   c-0.389-15.941,11.808-28.835,27.662-29.234c15.432-0.399,30.085,14.807,30.368,31.526   C182.562,393.515,169.463,406.058,154.839,406.413z"/>
	<path style="fill-rule:evenodd;clip-rule:evenodd;fill:#074784;" d="M161.351,335.619c-1.571,2.686-4.948,1.153-6.915,0.481   c-5.464-1.865-11.947-1.634-17.306,1.495c-2.266,1.331-4.287,2.994-5.964,4.993c-1.216,1.466-2.288,3.042-3.153,4.71   c-0.678,1.293-1.134,3.532-2.403,4.421c-1.05,0.721-2.807,0.293-3.359-0.716c-0.731-1.384,0.043-3.725,0.471-5.2   c1.591-5.406,5.111-8.958,9.737-12.25c5.512-3.917,12.832-6.68,19.267-4.916c3.388,0.932,7.915,2.023,9.621,5.282   C161.69,334.556,161.63,335.133,161.351,335.619z"/>
	<path style="fill-rule:evenodd;clip-rule:evenodd;fill:#074784;" d="M192.272,328.539c2.199,2.014,4.929-0.634,6.565-1.966   c4.575-3.696,10.674-5.748,16.527-4.633c2.473,0.471,4.815,1.355,6.925,2.677c1.538,0.966,2.97,2.1,4.239,3.383   c0.978,1.009,2.014,2.989,3.443,3.378c1.175,0.327,2.703-0.697,2.934-1.86c0.298-1.567-1.057-3.542-1.874-4.791   c-2.96-4.604-7.216-6.776-12.433-8.29c-6.204-1.802-13.783-1.884-19.284,2.057c-2.895,2.076-6.812,4.705-7.509,8.42   C191.671,327.641,191.868,328.179,192.272,328.539z"/>
	<path style="fill-rule:evenodd;clip-rule:evenodd;fill:#074784;" d="M154.45,364.156c8.242-0.149,15.131,7.19,15.215,16.22   c0.067,7.132-6.409,13.461-13.858,13.543c-7.946,0.091-15.506-7.141-15.705-15.028C139.903,371.081,146.513,364.285,154.45,364.156   z"/>
	<path style="fill-rule:evenodd;clip-rule:evenodd;fill:#FFFFFF;" d="M212.509,393.711c15.672,0.385,30.162-13.202,30.544-28.619   c0.392-15.941-11.81-28.83-27.665-29.234c-15.432-0.394-30.08,14.812-30.363,31.531   C184.792,380.813,197.885,393.356,212.509,393.711z"/>
	<path style="fill-rule:evenodd;clip-rule:evenodd;fill:#074784;" d="M212.898,351.459c-8.242-0.149-15.129,7.189-15.213,16.215   c-0.067,7.132,6.409,13.466,13.858,13.543c7.944,0.091,15.506-7.137,15.705-15.023   C227.448,358.384,220.838,351.588,212.898,351.459z"/>
	<g>
		<path style="fill:#074784;" d="M174.161,417.899c2.324,12.337,12.598,26.35,26.708,22.27c12.63-3.657,12.303-20.886,10.222-30.993    c-1.004-4.887-8.439-2.72-7.44,2.143c1.302,6.329,2.562,18.229-4.928,21.41c-9.479,4.018-15.823-10.078-17.126-16.974    C180.675,410.859,173.243,413.031,174.161,417.899L174.161,417.899z"/>
	</g>
	<path style="fill:#FFFFFF;" d="M88.048,230.137c0.938,0.893,4.714,1.139,6.064,1.628c12.062,4.364,22.471,12.958,30.882,22.476   c1.644,1.86,2.951,3.47,3.84,4.642c0.899,1.163,1.365,1.893,1.365,1.893s-0.808-0.283-2.153-0.884   c-1.355-0.591-3.254-1.509-5.402-2.744C110.037,249.899,98.554,240.136,88.048,230.137z"/>
	<path style="fill:#FFFFFF;" d="M208.248,218.022c-8.54,15.294-20.319,28.77-34.334,39.278c1.084-0.813,1.963-4.014,2.638-5.26   c1.067-1.972,2.205-3.905,3.41-5.796c2.409-3.782,5.086-7.394,8.002-10.801C193.814,228.607,200.505,222.608,208.248,218.022z"/>
</g>















</svg>
