<svg width="349" height="289" viewBox="0 0 349 289" fill="none" xmlns="http://www.w3.org/2000/svg">
<path d="M129.18 263.298C117.318 263.298 108.492 257.998 99.9313 252.855C94.6633 249.692 89.6865 246.702 84.0343 244.895C77.8545 242.936 70.9444 242.965 64.2538 242.995C59.602 242.986 54.8869 243.041 50.3238 243.092C42.7594 243.176 34.9376 243.261 27.2128 243.092C18.9097 242.868 11.8181 240.098 7.22543 235.284C2.39638 230.402 -0.0983416 224.241 0.00296708 217.46C0.0958334 211.375 2.36684 205.099 6.39808 199.787C6.41074 199.77 6.41918 199.758 6.43185 199.741C15.3977 188.251 28.7915 179.201 45.1655 173.581C60.5054 168.315 77.8545 166.406 94.0174 168.209C96.3349 168.467 98.0022 170.557 97.7447 172.875C97.4873 175.194 95.402 176.866 93.0803 176.604C78.1331 174.94 62.0883 176.701 47.9051 181.57C33.0929 186.654 21.0583 194.724 13.1056 204.914C7.90504 211.78 5.93375 221.999 13.2449 229.364C13.266 229.385 13.2871 229.406 13.3082 229.431C16.3052 232.586 21.4466 234.486 27.4154 234.646C34.9798 234.815 42.7299 234.731 50.2267 234.646C54.8152 234.596 59.564 234.541 64.2369 234.549C71.2103 234.515 79.1377 234.482 86.5881 236.846C93.1858 238.954 98.8211 242.34 104.271 245.613C112.84 250.76 120.936 255.621 131.797 254.743C134.131 254.565 136.158 256.288 136.343 258.611C136.533 260.933 134.798 262.973 132.477 263.159C131.35 263.251 130.248 263.294 129.172 263.294L129.18 263.298Z" fill="#E91E63"/>
<path d="M130.737 245.102C119.88 242.572 111.324 242.496 107.331 254.802C105.528 259.996 105.617 266.533 109.948 270.455C112.793 273.167 127.897 284.137 131.493 284.762C141.759 286.359 154.937 254.05 146.63 249.012C144.836 247.923 133.903 245.866 130.868 245.136L130.737 245.106V245.102Z" fill="#546E7A"/>
<path d="M147.997 270.897C152.356 261.089 151.743 251.295 146.628 249.02C141.514 246.745 133.834 252.851 129.475 262.658C125.117 272.466 125.73 282.26 130.845 284.535C135.959 286.81 143.639 280.704 147.997 270.897Z" fill="#7295A6"/>
<path d="M157.382 267.698C157.382 267.698 157.344 267.685 157.323 267.681L142.435 263.15C141.384 262.829 140.793 261.719 141.109 260.667C141.43 259.616 142.528 259.02 143.591 259.341L158.48 263.872C159.531 264.193 160.122 265.304 159.805 266.355C159.493 267.386 158.416 267.977 157.382 267.698Z" fill="#546E7A"/>
<path d="M149.881 281.599C149.783 281.574 149.686 281.536 149.589 281.494L135.381 275.147C134.376 274.699 133.929 273.521 134.376 272.52C134.824 271.52 135.997 271.068 137.002 271.515L151.21 277.862C152.215 278.31 152.662 279.488 152.215 280.489C151.81 281.397 150.809 281.853 149.881 281.599Z" fill="#546E7A"/>
<path d="M69.8257 216.319C66.8751 215.34 64.8152 212.667 64.621 209.567L59.9102 134.6L248.365 183.669V274.4C247.268 274.915 244.528 274.353 240.354 272.846L69.8257 216.319Z" fill="#5082F0"/>
<path d="M248.365 274.395C249.37 274.205 250.797 273.449 252.945 271.722L301.02 232.091C302.641 230.757 303.638 228.81 303.777 226.716L309.34 142.518L248.365 183.669V274.399V274.395Z" fill="#416AC4"/>
<path d="M248.366 201.514L309.48 160.169C310.763 159.303 311.548 157.872 311.591 156.326L312.03 140.702L248.361 183.669V201.518L248.366 201.514Z" fill="#5082F0"/>
<path d="M248.365 201.514L60.442 150.034C57.9473 149.35 56.1617 147.154 56.0055 144.57L55.5243 136.627C55.4103 134.743 57.1706 133.299 58.9941 133.781L248.365 183.669V201.518V201.514Z" fill="#92BEF3"/>
<path d="M58.2007 133.57L126.204 101.379V151.483L58.2007 133.57Z" fill="#5082F0"/>
<path d="M126.204 101.379L312.034 140.698L248.365 183.665L126.204 151.483V101.379Z" fill="#416AC4"/>
<path d="M311.206 145.402L142.865 106.185C133.089 103.909 127.073 94.0571 129.513 84.3151L147.496 13.5539C149.404 5.93176 156.85 1.05867 164.591 2.36351L336.533 31.3234C344.976 32.7465 350.501 40.9555 348.64 49.3124L329.353 133.984C327.534 142.176 319.378 147.311 311.206 145.406V145.402Z" fill="#416AC4"/>
<path d="M310.404 145.651L129.813 103.579C122.73 101.928 118.373 94.7918 120.138 87.7355L140.455 7.65037C141.734 2.53657 146.731 -0.736085 151.928 0.142254L333.524 30.7279C339.167 31.678 342.865 37.1676 341.62 42.7586L319.564 139.887C318.644 144.025 314.528 146.614 310.4 145.655L310.404 145.651Z" fill="#5082F0"/>
<path d="M310.024 141.23L132.422 100.269C126.905 98.9976 123.502 93.4404 124.878 87.9424L143.899 13.0217C145.178 7.90791 150.176 4.63525 155.377 5.51359L330.995 35.1322C334.828 35.7783 337.335 39.507 336.491 43.2991L314.946 138.126C314.452 140.347 312.245 141.741 310.029 141.23H310.024Z" fill="#416AC4"/>
<path d="M330.991 35.1322L155.372 5.51362C154.84 5.42494 154.309 5.37849 153.785 5.37427C153.785 5.37427 165.347 18.6592 167.006 20.1287C168.792 21.708 170.37 19.698 172.173 21.2604C179.467 27.5903 186.82 33.8781 193.659 40.7063C194.397 41.4453 194.397 42.6952 193.659 43.4342C192.92 44.1732 191.67 44.169 190.932 43.4342C187.103 39.6126 310.02 141.234 310.02 141.234C312.236 141.745 314.444 140.351 314.938 138.13L336.483 43.3033C337.327 39.507 334.82 35.7825 330.987 35.1365L330.991 35.1322Z" fill="#3557A1"/>
<path d="M310.016 141.221L140.45 101.696L161.67 17.992C162.084 16.3451 163.701 15.2936 165.372 15.5935L335.892 45.9764L314.942 138.122C314.448 140.347 312.232 141.741 310.011 141.226L310.016 141.221Z" fill="#6E97F0"/>
<path d="M163.119 40.3882L329.112 71.7346L328.847 73.1371L162.855 41.7908C162.469 41.7179 162.213 41.343 162.286 40.9571C162.359 40.5712 162.734 40.3154 163.119 40.3882Z" fill="#416AC4"/>
<path d="M324.406 96.2867L158.893 62.4748C158.509 62.3946 158.255 62.0188 158.327 61.6303C158.399 61.2418 158.77 60.9926 159.159 61.0729L324.672 94.8847L324.406 96.2867Z" fill="#416AC4"/>
<path d="M317.639 120.986L152.506 85.2314C152.122 85.1469 151.869 84.7669 151.94 84.3784C152.012 83.9899 152.384 83.7449 152.768 83.8294L317.901 119.584L317.635 120.986H317.639Z" fill="#416AC4"/>
<path d="M207.909 212.118L205.664 213.372L183.713 174.282L185.959 173.027L207.909 178.88V212.118Z" fill="#C2C2C2"/>
<path d="M205.664 213.372L183.713 207.038V174.281L205.664 180.134V213.372Z" fill="#D1D1D1"/>
<path d="M202.722 206.185L201.227 207.012L186.656 181.063L188.15 180.231L202.722 184.116V206.185Z" fill="#C2C2C2"/>
<path d="M201.227 207.012L186.656 202.811V181.063L201.227 184.948V207.012Z" fill="#DADADA"/>
<path d="M196.297 201.827L195.326 202.367L188.715 186.321L189.686 185.78L199.175 188.31L197.795 191.19C196.326 194.251 195.769 197.651 196.191 200.978L196.301 201.827H196.297Z" fill="#C2C2C2"/>
<path d="M195.313 202.367L190.121 200.915L189.192 198.575C188.048 195.704 187.711 192.558 188.209 189.471L188.715 186.317L198.205 188.846L197.027 191.126C195.406 194.268 194.76 197.807 195.182 201.274L195.313 202.367Z" fill="#E4E5E5"/>
<path d="M111.945 184.623L109.868 185.776L89.6064 149.696L91.6833 148.539L111.945 153.94V184.623Z" fill="#C2C2C2"/>
<path d="M109.868 185.776L89.6064 179.931V149.696L109.868 155.097V185.776Z" fill="#D1D1D1"/>
<path d="M107.154 179.142L105.778 179.91L92.3247 155.959L93.7008 155.19L107.154 158.775V179.142Z" fill="#C2C2C2"/>
<path d="M105.778 179.91L92.3247 176.03V155.959L105.778 159.544V179.91Z" fill="#DADADA"/>
<path d="M101.223 175.122L100.328 175.62L94.2246 160.806L95.1195 160.308L103.878 162.643L102.604 165.299C101.249 168.124 100.734 171.262 101.122 174.336L101.223 175.122Z" fill="#C2C2C2"/>
<path d="M100.316 175.62L95.5245 174.281L94.6676 172.123C93.6123 169.471 93.2999 166.57 93.76 163.72L94.2286 160.811L102.988 163.146L101.903 165.249C100.404 168.15 99.8132 171.414 100.202 174.615L100.324 175.624L100.316 175.62Z" fill="#E4E5E5"/>
<path d="M55.6469 138.679L246.626 189.082C247.732 189.374 248.914 189.184 249.873 188.563L311.886 145.85L304.368 144.249L248.1 182.22C247.129 182.875 245.926 183.078 244.794 182.782L63.7981 135.048C63.2155 134.896 63.1438 134.102 63.6883 133.844L126.2 102.152C124.98 101.274 123.372 101.147 122.025 101.814L58.1965 133.574C55.0053 134.157 55.5203 136.631 55.6427 138.684L55.6469 138.679Z" fill="#99C8FF"/>
<mask id="mask0_343_743" style="mask-type:luminance" maskUnits="userSpaceOnUse" x="59" y="24" width="259" height="159">
<path d="M63.8019 135.043L244.798 182.778C245.989 182.997 247.116 182.917 248.104 182.216L304.372 144.245L317.909 77.4699L99.0742 24.9131L59.9058 71.0175L63.7977 135.048L63.8019 135.043Z" fill="white"/>
</mask>
<g mask="url(#mask0_343_743)">
<path d="M88.9058 87.6215C89.8133 90.9828 90.4001 96.6033 90.7251 100.543C90.915 102.857 93.1523 104.437 95.3937 103.829L98.2051 103.068C98.2051 103.068 99.9737 90.6154 98.4668 85.0371L88.9058 87.6215Z" fill="#FF9A07"/>
<path d="M96.0776 85.6832C97.5846 91.2615 95.8159 103.714 95.8159 103.714L98.2051 103.068C98.2051 103.068 99.9738 90.6154 98.4668 85.0371L96.0776 85.6832Z" fill="#C5142C"/>
<path d="M81.527 86.4053C79.2222 87.0303 76.8372 85.6579 76.2125 83.3523C75.5877 81.0466 76.9596 78.6607 79.2644 78.0358C80.2564 77.7697 81.2737 78.3525 81.5396 79.3448C81.8056 80.3372 82.5654 83.1369 82.8313 84.1293C83.0973 85.1216 82.5147 86.1393 81.5227 86.4053H81.527Z" fill="#FF9A07"/>
<path d="M105.626 178.031L148.653 166.406C152.612 165.338 154.955 161.258 153.887 157.293L141.586 111.734C140.755 108.651 139.429 105.72 137.665 103.056L123.021 80.9663L108.678 84.8428L107.175 110.775C106.989 113.967 104.782 116.683 101.696 117.519L97.3017 118.705C89.3828 120.846 84.693 129.005 86.8332 136.927L96.5166 172.795C97.5846 176.756 101.662 179.1 105.626 178.031Z" fill="#B4F1E2"/>
<path d="M137.66 103.06L123.017 80.9705L115.845 82.9087L130.489 104.998C132.253 107.658 133.578 110.589 134.41 113.676L146.711 159.236C147.779 163.197 145.436 167.276 141.476 168.348L148.648 166.41C152.608 165.342 154.95 161.263 153.882 157.297L141.582 111.738C140.75 108.655 139.425 105.724 137.66 103.06Z" fill="#8CD1C0"/>
<path d="M129.218 75.4429L125.989 63.4882C125.453 61.5077 123.414 60.3338 121.434 60.8701L79.6022 72.1745L77.8589 75.2107L81.7339 89.5597L84.769 91.3037L126.601 79.9993C128.581 79.463 129.754 77.4234 129.218 75.4429Z" fill="#FF9A07"/>
<path d="M121.438 60.8701L116.656 62.1623C118.636 61.626 120.674 62.7999 121.21 64.7804L124.44 76.7351C124.976 78.7156 123.802 80.7552 121.823 81.2915L126.605 79.9993C128.585 79.463 129.758 77.4234 129.222 75.4429L125.993 63.4882C125.457 61.5077 123.418 60.3338 121.438 60.8701Z" fill="#FF9A07"/>
<path d="M138.897 158.78L110.214 166.528C107.572 167.242 104.853 165.68 104.144 163.036L96.3983 134.342C95.6849 131.699 97.2467 128.979 99.8892 128.27L128.572 120.521C131.215 119.807 133.933 121.37 134.642 124.013L142.388 152.707C143.102 155.351 141.54 158.07 138.897 158.784V158.78Z" fill="#F8F8F9"/>
<path d="M115.701 131.771L66.7862 156.301C65.9589 156.715 64.9458 156.368 64.5237 155.524C64.1016 154.679 64.4266 153.657 65.2539 153.243L114.169 128.713C115.001 128.295 116.01 128.646 116.432 129.49C116.854 130.335 116.529 131.352 115.697 131.771H115.701ZM114.308 150.355L116.461 147.699L121.767 152.006L119.614 154.662L114.308 150.355ZM68.2932 105.826L74.4055 102.76L79.7664 113.456L73.6541 116.522L68.2932 105.826ZM82.8099 173.137L79.3949 173.272L79.1206 166.44L82.5355 166.304L82.8099 173.137Z" fill="#455A64"/>
<path d="M114.938 133.662C116.826 133.662 118.357 132.131 118.357 130.242C118.357 128.353 116.826 126.822 114.938 126.822C113.049 126.822 111.519 128.353 111.519 130.242C111.519 132.131 113.049 133.662 114.938 133.662Z" fill="#E91E63"/>
<path d="M66.052 158.18C67.9403 158.18 69.4712 156.649 69.4712 154.76C69.4712 152.87 67.9403 151.339 66.052 151.339C64.1636 151.339 62.6328 152.87 62.6328 154.76C62.6328 156.649 64.1636 158.18 66.052 158.18Z" fill="#E91E63"/>
<path d="M89.3151 121.552C88.665 123.752 87.2805 125.728 85.2923 127.092L114.76 150.714L116.913 148.045L114.001 141.272L89.3151 121.552ZM74.4354 129.013C76.5882 129.807 78.9985 129.879 81.2779 129.102L82.5654 166.854L79.142 166.98L75.4569 160.595L74.4312 129.013H74.4354Z" fill="#B0BEC5"/>
<path d="M75.178 111.936C70.1168 114.474 68.0695 120.639 70.6064 125.702C73.1434 130.766 79.3063 132.814 84.3675 130.276C89.4287 127.738 91.476 121.573 88.9391 116.509C86.4021 111.446 80.2392 109.398 75.178 111.936ZM82.0712 125.69C79.5427 126.957 76.457 125.935 75.1907 123.405C73.9243 120.876 74.9458 117.789 77.4743 116.522C80.0028 115.255 83.0885 116.277 84.3549 118.807C85.6212 121.336 84.5997 124.423 82.0712 125.69ZM85.14 139.448L91.2523 136.382L95.845 145.55L89.7327 148.615L85.14 139.448Z" fill="#ABABAB"/>
<path d="M186.546 124.482L179.172 127.928C178.053 128.452 176.727 127.97 176.208 126.851L171.489 116.746C170.978 115.656 171.43 114.356 172.502 113.811L182.785 108.596C183.612 108.115 184.587 108.309 185.271 108.917C185.955 109.525 186.2 110.488 185.887 111.349C185.845 111.472 184.676 115.205 187.622 121.518C188.146 122.637 187.665 123.963 186.546 124.482ZM224.739 79.9486L213.823 85.0497L210.045 76.9631L220.961 71.862L227.006 71.9887L228.5 75.1938L224.735 79.9486H224.739ZM183.714 79.4292L203.916 69.9871L215.246 94.2427L195.043 103.685L183.714 79.4292ZM193.802 162.187C194.845 164.417 193.878 167.077 191.649 168.12L169.425 178.508C167.196 179.551 164.537 178.584 163.494 176.355L160.662 170.291C159.619 168.061 160.586 165.401 162.814 164.358L185.039 153.97C187.268 152.927 189.927 153.894 190.97 156.123L193.802 162.187Z" fill="#37474F"/>
<path d="M135.444 96.6582C133.215 97.7012 130.746 107.675 134.916 116.607C139.087 125.538 148.319 130.039 150.552 128.996L135.448 96.6582H135.444ZM155.043 127.43C155.748 127.759 156.457 128.903 156.807 130.267C157.23 131.897 160.425 155.993 162.181 164.658L183.671 154.612C182.544 154.164 182.185 153.78 182.071 152.834C181.316 146.559 178.091 121.653 178.082 121.632C178.074 121.488 177.85 116.231 180.856 114.829L178.306 113.148L151.024 125.901L153.574 127.582C154.477 127.159 154.891 127.354 155.043 127.425V127.43Z" fill="#FF9800"/>
<path d="M215.246 94.2386L203.916 69.9829L213.751 75.2361L217.529 83.3227L215.246 94.2386Z" fill="#8F8F8F"/>
<path d="M201.105 100.847C202.147 103.077 201.181 105.737 198.952 106.78L150.547 128.996L135.444 96.6583L183.848 74.4422C186.077 73.3992 188.736 74.3662 189.779 76.5959L201.109 100.852L201.105 100.847Z" fill="#FFC107"/>
<path d="M227.868 112.696L210.316 177.453L225.694 182.436L243.081 117.481L227.872 112.696H227.868Z" fill="#FFC107"/>
<path d="M266.74 102.557L254.71 98.8287C254.03 100.759 251.641 101.202 250.894 100.949L248.062 100.015C248.154 99.175 248.003 98.322 247.593 97.5535C247.074 96.5569 246.217 95.8221 245.179 95.4843L237.732 93.0182C237.69 93.0013 237.606 92.9802 237.538 92.9675L235.972 92.4481C232.739 91.3797 229.716 90.3789 228.948 90.1256C222.388 87.9508 206.833 95.9277 205.081 96.844L203.722 97.5619L205.368 100.683C205.368 100.683 206.428 100.463 206.377 100.488C206.677 100.459 212.084 99.3777 221.054 102.579C225.077 104.014 229.695 106.295 228.859 109.086C228.842 109.153 228.754 109.504 228.399 110.737C228.366 110.855 228.366 110.944 228.344 111.054L227.344 114.521L242.696 118.95L243.925 114.706C243.937 114.677 243.925 114.652 243.933 114.622L244.579 112.371C244.68 112.405 245.212 112.582 247.348 113.288C248.15 113.554 249.775 115.226 248.952 117.485C249.341 117.616 261.173 121.573 261.173 121.573L266.745 102.553L266.74 102.557Z" fill="#ABABAB"/>
<path d="M254.71 98.8331C254.03 100.763 251.641 101.206 250.894 100.953L248.074 100.024L244.579 112.38C244.689 112.414 245.233 112.595 247.344 113.292C248.146 113.558 249.771 115.23 248.948 117.489L254.714 98.8289L254.71 98.8331Z" fill="#546E7A"/>
<path d="M180.379 108.862L189.505 122.696L182.739 127.143C178.188 122.282 177.108 114.918 180.383 108.862H180.379Z" fill="#B3B3B3"/>
<path d="M192.975 127.552L196.947 133.477L193.946 135.487L189.927 129.49L192.924 127.48L192.975 127.552Z" fill="#8F8F8F"/>
<path d="M198.834 123.515L202.852 129.511L199.855 131.522L199.805 131.45L195.833 125.529L198.834 123.515Z" fill="#8F8F8F"/>
<path d="M199.805 131.45L199.856 131.521L196.947 133.477L192.975 127.552L192.924 127.48L195.833 125.529L199.805 131.45Z" fill="#BABABA"/>
<path d="M196.947 133.477L199.856 131.521L202.853 129.511L198.834 123.515L195.837 125.529L192.929 127.48L189.932 129.49L193.95 135.487L196.951 133.477H196.947ZM209.011 115.074C209.197 116.311 209.281 117.544 209.138 118.739C209.037 119.609 208.382 122.426 208.382 122.426V122.438L204.739 137.505C203.866 141.116 203.646 144.853 204.081 148.539L203.604 148.594L192.405 150.292C191.008 145.757 188.598 141.576 185.322 138.088L177.99 130.259L181.59 127.894L182.726 127.147L189.493 122.7L200.869 115.226L192.021 101.726C200.257 100.991 207.745 106.793 208.999 115.082L209.011 115.074Z" fill="#CCCCCC"/>
<path d="M203.608 148.59L204.085 148.535C204.123 148.873 204.165 149.211 204.22 149.553L204.642 152.348L204.03 152.441L193.633 154.016L193.321 154.075C193.097 152.792 192.789 151.529 192.409 150.292L203.608 148.594V148.59Z" fill="#BABABA"/>
<path d="M204.642 152.348L210.522 191.198L209.91 191.291L199.513 192.866L199.21 192.912L193.448 154.823C193.41 154.574 193.372 154.325 193.325 154.076L193.638 154.016L204.034 152.441L204.646 152.348H204.642Z" fill="#FF9A07"/>
<path d="M171.413 101.426C171.709 106.029 169.682 110.171 166.394 112.802C161.852 116.434 159.294 122.008 159.294 127.822V185.569C159.294 188.698 160.071 191.768 161.498 194.551C162.439 196.384 162.967 198.461 162.967 200.661C162.967 208.216 156.723 214.314 149.117 214.073L153.068 206.539C154.592 203.638 153.473 200.053 150.569 198.529C149.691 198.068 148.745 197.849 147.817 197.849C145.685 197.849 143.621 199.006 142.561 201.029L138.657 208.478C137.23 206.497 136.331 204.115 136.166 201.548C135.871 196.949 137.897 192.803 141.185 190.172C145.727 186.54 148.285 180.97 148.285 175.151V117.405C148.285 114.28 147.513 111.206 146.086 108.423C145.145 106.59 144.613 104.513 144.613 102.313C144.613 94.7538 150.86 88.6561 158.467 88.8968L154.516 96.4302C152.992 99.3313 154.11 102.921 157.015 104.441C157.897 104.901 158.838 105.121 159.767 105.121C161.903 105.121 163.963 103.964 165.026 101.941L168.931 94.492C170.354 96.4725 171.257 98.8541 171.422 101.422L171.413 101.426ZM156.044 176.634V126.332C156.044 125.082 155.031 124.073 153.785 124.073C153.165 124.073 152.599 124.326 152.19 124.736C151.78 125.145 151.527 125.711 151.527 126.336V176.638C151.527 177.888 152.54 178.897 153.785 178.897C155.031 178.897 156.044 177.884 156.044 176.638V176.634Z" fill="#EDEDED"/>
<path d="M156.044 126.332V176.634C156.044 177.884 155.031 178.893 153.786 178.893C152.54 178.893 151.527 177.879 151.527 176.634V126.332C151.527 125.707 151.781 125.141 152.19 124.731C152.6 124.322 153.165 124.068 153.786 124.068C155.035 124.068 156.044 125.082 156.044 126.328V126.332Z" fill="#BABABA"/>
<path d="M267.162 164.244L265.643 166.761L260.206 166.115L248.838 159.223L245.752 154.701L247.276 152.188L255.153 156.964L259.286 159.468L267.162 164.244Z" fill="#FF9A07"/>
<path d="M258.015 169.729L242.756 194.923C242.524 195.303 242.266 195.649 241.975 195.966L241.612 195.645L231.152 189.302L230.839 189.184C230.983 188.791 231.164 188.407 231.392 188.035L246.652 162.842L247.04 163.079L257.5 169.421L258.015 169.734V169.729Z" fill="#FF9A07"/>
<path d="M260.206 166.115L258.015 169.729L257.496 169.417L247.036 163.074L246.647 162.842L248.838 159.223L260.206 166.115Z" fill="#CC6606"/>
<path d="M299.134 94.0063L296.437 103.436L291.916 105.919L291.776 105.834L259.286 159.468L255.153 156.964L287.644 103.33L287.505 103.246L287.614 98.0856L294.723 91.3291L299.134 94.0063Z" fill="#CCCCCC"/>
</g>
</svg>
