<svg id="Layer_1" enable-background="new 0 0 3000 3000" height="512" viewBox="0 0 3000 3000" width="512"
     xmlns="http://www.w3.org/2000/svg">
    <g>
        <path d="m2122.73 1198h-349.06l23.56 318.73c23.83 322.36 101.25 638.5 229.07 935.4l106.15 246.56c29.7 69-48.03 134.68-111.1 93.87l-423.4-273.96c-22.87-14.8-44.87-30.7-65.92-47.61-.01-.01-.03-.02-.04-.02-139.8-112.24-238.31-269-278.19-445.41l-187.05-827.56h-321.07c-78.28 0-118.97-93.29-65.7-150.66l707.91-762.46.01-.01c36.15-38.93 98.04-38.07 133.09 1.87l669.13 762.47c50.85 57.94 9.7 148.79-67.39 148.79z"
              fill="#6ea4f1"/>
    </g>
    <g opacity=".11">
        <path d="m2122.73 1198h-349.06l23.56 318.73c23.83 322.36 101.25 638.5 229.07 935.4l106.15 246.56c29.7 69-48.03 134.68-111.1 93.87l-423.4-273.96c-22.87-14.8-44.87-30.7-65.92-47.61 664.04 433.84 97.97-1239.85 97.97-1321.85s222-70 343-96-585-768-585-768-.04-.09-.11-.26l.01-.01c36.15-38.93 98.04-38.07 133.09 1.87l669.13 762.47c50.85 57.94 9.7 148.79-67.39 148.79z"
              fill="#6ea4f1;"/>
    </g>
    <g>
        <path d="m1898.2 2101.39c-3.5 0-6.94-1.67-9.07-4.77-37.49-54.48-70.1-224.98-96.91-506.74-19.87-208.75-29.11-404.42-29.2-406.37-.14-3 .96-5.93 3.03-8.11 2.08-2.17 4.95-3.41 7.96-3.41h368.55c22.13 0 41.63-12.48 50.89-32.58s6.08-43.03-8.29-59.85l-633.52-741.42c-.08-.09-.16-.19-.23-.28-33.85-42.38-65.1-63.24-95.52-63.8-31.53-.53-65.37 20.72-103.55 65.1-.09.11-.18.21-.28.31l-310.68 334.63c-4.13 4.45-11.09 4.71-15.55.58-4.45-4.13-4.71-11.09-.58-15.55l310.54-334.48c20.97-24.36 40.54-42.03 59.81-54.02 20.39-12.69 40.8-18.93 60.67-18.57 37.34.68 74.04 24.2 112.2 71.92l633.4 741.29c20.02 23.43 24.44 55.37 11.54 83.35-12.9 27.99-40.05 45.37-70.87 45.37h-357c2.29 44.92 11.5 214.58 28.56 393.88 32.95 346.21 68.83 460.97 93.13 496.28 3.44 5 2.18 11.85-2.83 15.3-1.88 1.31-4.05 1.94-6.2 1.94z"/>
    </g>
    <g opacity=".11">
        <path d="m1751.63 2425.16-35.25-26.33s-.21.23-.55.78c.13-.21 13.49-22.35 19.49-97.92 9.8-123.54-7.17-294.87-23.12-416.85-1.58-12.05 6.91-23.09 18.96-24.67 12.05-1.56 23.09 6.92 24.67 18.96 58.46 446.97 2.38 537.22-4.2 546.03z"
              fill="#6ea4f1;"/>
    </g>
    <g opacity=".11">
        <path d="m1720.76 1785.32c-11.11 0-20.66-8.39-21.85-19.69l-20.57-194.64c-1.28-12.08 7.48-22.91 19.57-24.19s22.91 7.48 24.19 19.57l20.57 194.64c1.28 12.08-7.48 22.91-19.57 24.19-.79.08-1.57.12-2.34.12z"
              fill="#6ea4f1;"/>
    </g>
    <g opacity=".11">
        <path d="m1622 1298.01c-8.96 0-17.38-5.51-20.65-14.42-.71-1.92-17.47-47.67-31.18-97.22-8.2-29.62-13.58-54.48-15.99-73.87-3.96-31.82-.2-50.92 12.2-61.94 20.08-17.85 59.57-22.81 87.53-24.99 29.71-2.31 55.64-1.59 56.73-1.56 12.15.36 21.7 10.49 21.34 22.64-.36 12.14-10.45 21.7-22.64 21.34-.24-.01-24.98-.69-52.38 1.47-40.28 3.17-54.96 9.78-59.67 12.75-1.12 5.34-3.12 28.14 17.54 100.45 12.79 44.76 27.66 85.34 27.81 85.74 4.19 11.4-1.66 24.05-13.06 28.24-2.49.93-5.06 1.37-7.58 1.37z"
              fill="#6ea4f1;"/>
    </g>
    <g opacity=".11">
        <path d="m1799.97 1036c-10.63 0-19.99-7.73-21.7-18.56-1.9-12 6.29-23.27 18.29-25.17l85.71-13.57-179.44-263.31c-6.84-10.04-4.25-23.73 5.79-30.57s23.73-4.25 30.57 5.79l179.61 263.55c8.5 12.47 10 28.2 4.02 42.05-5.99 13.86-18.46 23.54-33.37 25.9l-85.99 13.62c-1.18.18-2.34.27-3.49.27z"
              fill="#6ea4f1;"/>
    </g>
    <g opacity=".11">
        <path d="m1662.99 1478.01c-9.73 0-18.63-6.5-21.25-16.35l-21-79c-3.12-11.74 3.87-23.79 15.61-26.91s23.79 3.87 26.91 15.61l21 79c3.12 11.74-3.87 23.79-15.61 26.91-1.89.5-3.79.74-5.66.74z"
              fill="#6ea4f1;"/>
    </g>
    <g opacity=".33">
        <path d="m909.99 1082c-18.81 0-37.63-7.03-52.2-21.16-29.74-28.84-30.47-76.32-1.63-106.05l288-297c28.84-29.74 76.32-30.47 106.05-1.63 29.74 28.84 30.47 76.32 1.63 106.05l-288 297c-14.71 15.17-34.27 22.79-53.85 22.79z"
              fill="#6ea4f1;"/>
    </g>
</svg>