<?xml version="1.0" encoding="iso-8859-1"?>
<!-- Generator: Adobe Illustrator 28.0.0, SVG Export Plug-In . SVG Version: 6.00 Build 0)  -->
<svg xmlns="http://www.w3.org/2000/svg" xmlns:xlink="http://www.w3.org/1999/xlink" version="1.1" id="Layer_1" x="0px" y="0px" viewBox="0 0 512 512" style="enable-background:new 0 0 512 512;" xml:space="preserve">
<g>
	<g>
		<polygon style="fill:#4E2957;" points="494.835,380.957 492.233,393.898 173.417,508.049 0,129.408 8.297,126.609 201.61,423.267       "/>
		<polygon style="fill:#6D75FE;" points="494.835,380.957 178.225,495.702 8.297,126.609 300.18,28.427   "/>
	</g>
	<g>
		<path style="fill:#EDDED1;" d="M35.131,134.895L314.996,33.377c0,0,74.632,182.734,197.004,280.962    c0,0-157.228,40.062-295.098,149.812C216.902,464.15,104.274,392.263,35.131,134.895z"/>
		<g>
			<path style="fill:#F66057;" d="M100.633,194.92c1.173,2.812,2.515,6.424,0.174,9.008c-5.173,4.002-11.817,7.763-17.324,11.292     c-3.879-7.828-7.669-15.381-11.161-23.395c4.618-1.605,8.744-3.031,13.512-4.439c2.482-0.662,5.804-1.858,8.281-1.61     c1.295,0.335,2.75,1.5,3.543,2.556C98.812,190.1,99.811,192.983,100.633,194.92z M92.546,198.553     c-0.186-0.478-0.443-1.075-0.672-1.532c-0.947-1.607-2.302-4.017-4.566-3.323c-2.144,0.538-4.617,1.507-6.595,2.27     c1.695,3.322,3.243,6.467,4.807,9.846c2.289-1.219,5.914-2.829,7.201-5.232C93.018,199.845,92.797,199.263,92.546,198.553z"/>
			<path style="fill:#F66057;" d="M130.735,196.831l-4.746,2.715c-1.576-1.978-3.156-3.917-4.696-5.921l-8.04,3.46l0.682,4.81     l-5.106,1.977c-2.298-7.748-4.459-15.389-6.749-23.126c4.737-2.935,9.859-5.036,15.128-6.814     C121.666,181.606,125.886,189.392,130.735,196.831z M118.386,189.564c-0.862-1.36-2.02-3.916-3.341-4.883     c-0.219,0.008-0.627,0.134-0.897,0.196c-0.95,0.363-2.157,0.603-2.844,1.37c0.028,1.794,0.553,4.165,0.781,5.953L118.386,189.564     z"/>
			<path style="fill:#F66057;" d="M137.622,166.289c0.791,2.769,2.021,5.375,2.942,8.086l-3.73,1.294     c1.205,3.403,2.51,6.712,3.892,10.045l3.407-1.243c0.851,2.414,1.664,4.951,3.001,7.151l-11.826,4.809     c-0.846-2.171-1.669-4.217-2.645-6.331l2.141-0.871c-1.825-4.062-3.688-7.964-5.595-11.977l-3.305,0.822     c-0.809-1.824-1.568-3.622-2.376-5.447C128.308,170.566,132.904,168.524,137.622,166.289z"/>
			<path style="fill:#F66057;" d="M167.086,181.909c-5.114,2.435-10.118,4.785-15.271,7.135     c-3.526-8.386-6.732-16.612-10.396-24.953c2.941-1.191,5.714-2.415,8.566-3.778c1.346,6.402,3.306,12.642,5.529,18.791     c2.946-1.021,5.738-2.181,8.674-3.206L167.086,181.909z"/>
			<path style="fill:#F66057;" d="M189.673,164.613c1.23,3.297,0.865,8.021-2.283,10.151c-1.495,0.909-3.49,1.715-5.098,2.391     c-3.747,1.665-7.546,3.108-11.373,4.603c-0.901-1.773-1.671-3.446-2.657-5.19c4.49-2.055,9.112-3.923,13.516-6.151     c0.272-0.167,0.663-0.447,0.86-0.733c0.116-0.164,0.202-0.328,0.261-0.505c0.1-1.162-1.167-2.432-1.572-3.469     c-3.21,1.582-6.398,3.264-9.756,4.542c-2.309,0.93-4.178-0.062-5.619-1.902c-2.349-3.855-3.892-8.085-5.719-12.199     c2.203-0.597,4.432-1.256,6.605-1.95c1.113,2.445,1.976,5.81,4.192,7.474c2.67,1.517,5.819-0.071,7.942-1.839     c-1.473-3.237-2.718-6.409-4.32-9.575c2.36-1.008,4.622-2.157,7.191-2.595c0.737,1.9,1.557,3.771,2.376,5.635     C185.909,157.136,188.091,160.736,189.673,164.613z"/>
			<path style="fill:#F66057;" d="M222.592,139.155l0.898,2.321l-6.27,2.812c1.776,5.76,4.195,11.272,5.85,17.062     c-2.089,0.955-4.209,1.878-6.379,2.627c-1.873-5.442-3.885-10.791-6.386-15.982c-2.01,0.857-4.027,1.746-6.108,2.444     c-1.399-3.208-2.654-6.405-3.963-9.64c6.671-2.44,13.281-4.652,19.958-7.047C221.101,135.583,221.858,137.264,222.592,139.155z"/>
			<path style="fill:#F66057;" d="M254.332,148.934l-4.744,2.715c-1.578-1.98-3.16-3.916-4.698-5.921l-8.04,3.461l0.683,4.809     l-5.106,1.979c-2.298-7.75-4.463-15.389-6.751-23.128c4.738-2.933,9.861-5.039,15.128-6.813     C245.263,133.709,249.485,141.495,254.332,148.934z M241.983,141.667c-0.864-1.359-2.019-3.916-3.341-4.883     c-0.218,0.007-0.626,0.134-0.897,0.196c-0.951,0.362-2.156,0.605-2.846,1.37c0.03,1.796,0.555,4.163,0.783,5.953L241.983,141.667     z"/>
			<path style="fill:#F66057;" d="M280.455,132.215c1.847,4.795-3.856,7.217-7.418,8.997c-5.039,2.279-9.882,4.085-15.051,5.736     c-0.809-2.283-1.74-4.488-2.796-6.624c5.047-1.88,10.126-3.522,15.136-5.518c0.371-0.207,0.846-0.415,1.042-0.752     c0.155-0.853-0.58-1.911-1.186-2.472c-0.166-0.027-0.465,0.065-0.675,0.128c-0.159,0.047-0.306,0.093-0.444,0.132     c-0.138,0.042-0.219,0.064-0.238,0.074c-2.925,0.857-5.711,1.954-8.633,2.813c-1.286,0.328-2.751,0.849-4.064,0.926     c-3.352-0.005-5.8-5.177-6.267-8.003c-1.621-8.812,13.768-12.57,20.26-13.74c0.891,2.604,1.878,5.182,3.212,7.598     c-4.182,1.734-8.322,3.359-12.48,5.183c-1.291,0.51-2.495,1.118-3.857,1.757c-0.01,0.741,0.341,2.012,0.9,2.514     c1.024-0.173,2.833-0.723,3.844-0.995c3.601-0.991,7.885-2.448,11.632-2.754C276.388,127.163,279.321,129.507,280.455,132.215z"/>
			<path style="fill:#F66057;" d="M311.464,126.72c-1.946,1.309-3.851,2.534-5.879,3.724c-4.22-2.987-8.207-5.897-12.532-8.72     l-2.209,4.825l2.521,7.489c-1.92,0.678-3.859,1.303-5.632,2.297c-4.27-7.697-8.101-15.607-11.549-23.705     c3.36-1.191,6.549-2.458,9.911-3.648l2.781,7.768c1.461-3.429,2.434-6.758,3.685-10.275c2.062-0.954,4.206-1.96,6.249-2.958     l0.818,2.505l-4.189,10.051C300.768,119.796,305.987,123.194,311.464,126.72z"/>
			<path style="fill:#F66057;" d="M335.226,110.99c1.845,4.794-3.856,7.216-7.418,8.997c-5.039,2.276-9.883,4.086-15.053,5.736     c-0.809-2.283-1.739-4.489-2.796-6.624c5.048-1.88,10.126-3.522,15.137-5.517c0.233-0.121,0.445-0.241,0.64-0.364     c0.191-0.127,0.328-0.255,0.404-0.389c0.152-0.854-0.581-1.911-1.188-2.472c-0.164-0.027-0.466,0.066-0.674,0.128     c-0.205,0.062-0.537,0.158-0.685,0.206c-2.921,0.858-5.713,1.954-8.631,2.813c-1.285,0.328-2.751,0.849-4.064,0.926     c-3.35-0.004-5.801-5.178-6.267-8.003c-1.617-8.815,13.766-12.567,20.262-13.741c0.887,2.606,1.876,5.183,3.212,7.598     c-4.184,1.736-8.322,3.359-12.482,5.185c-1.29,0.511-2.494,1.118-3.855,1.757c-0.001,0.782,0.324,1.964,0.897,2.514     c1.025-0.174,2.835-0.722,3.846-0.995c3.602-0.99,7.886-2.449,11.632-2.754C331.157,105.937,334.09,108.284,335.226,110.99z"/>
		</g>
		<path style="fill:#F66057;" d="M215.653,438.842l-1.209-1.27c-0.866-0.907-86.934-92.029-118.148-195.743l-0.426-1.419    l1.366-0.572l248.71-104.363l0.622,1.551c0.394,0.98,40.25,98.663,118.422,158.998l2.283,1.763l-2.678,1.07    c-1.894,0.755-189.994,76.317-247.752,138.699L215.653,438.842z M99.879,242.298c29.311,95.749,105.329,180.421,115.761,191.729    c55.719-58.57,222.032-127.743,245.083-137.155c-72.034-56.78-111.165-144.402-116.565-157.077L99.879,242.298z"/>
		<polygon style="fill:#F66057;" points="120.325,252.467 167.382,225.303 191.115,268.244 139.669,293.212   "/>
		<polygon style="fill:#F66057;" points="153.251,312.967 200.307,283.334 224.04,327.712 176.1,356.181   "/>
		<polygon style="fill:#F66057;" points="188.645,370.586 232.059,338.529 259.435,379.367 215.397,410.92   "/>
		
			<rect x="181.677" y="194.767" transform="matrix(0.905 -0.4255 0.4255 0.905 -60.877 126.8531)" style="fill:#4E2957;" width="143.715" height="9.877"/>
		
			<rect x="193.824" y="228.047" transform="matrix(0.9022 -0.4313 0.4313 0.9022 -77.9521 122.1502)" style="fill:#4E2957;" width="73.166" height="9.879"/>
		
			<rect x="218.419" y="270.439" transform="matrix(0.8971 -0.4417 0.4417 0.8971 -93.5569 148.9583)" style="fill:#4E2957;" width="109.334" height="9.877"/>
		
			<rect x="252.736" y="327.475" transform="matrix(0.8939 -0.4483 0.4483 0.8939 -119.2008 161.2255)" style="fill:#4E2957;" width="56.476" height="9.877"/>
		
			<rect x="260.547" y="329.704" transform="matrix(0.8952 -0.4457 0.4457 0.8952 -115.1202 179.7319)" style="fill:#4E2957;" width="128.105" height="9.878"/>
		<g>
			<g>
				<path style="fill:#EDDED1;" d="M149.347,269.799c1.931,2.469-1.433,3.625-3.319,4.435c-1.937,0.779-2.643-2.086-3.331-3.434      c-0.683-2.03,2.415-2.551,3.771-3.389C148.132,266.507,148.659,268.787,149.347,269.799z"/>
				<path style="fill:#EDDED1;" d="M157.996,265.527c1.927,2.47-1.431,3.625-3.318,4.434c-1.935,0.781-2.648-2.085-3.331-3.431      c-0.686-2.031,2.412-2.551,3.768-3.391C156.782,262.236,157.307,264.515,157.996,265.527z"/>
				<path style="fill:#EDDED1;" d="M166.646,261.256c1.924,2.473-1.431,3.62-3.319,4.436c-1.936,0.774-2.648-2.083-3.331-3.434      c-0.693-2.028,2.414-2.55,3.768-3.39C165.43,257.963,165.955,260.244,166.646,261.256z"/>
			</g>
		</g>
		<g>
			<g>
				<path style="fill:#EDDED1;" d="M185.504,329.703c2.097,2.332-1.179,3.712-3.003,4.654c-1.879,0.907-2.784-1.899-3.559-3.196      c-0.888-1.609,1.516-2.299,2.45-3.079C183.427,326.428,184.509,327.827,185.504,329.703z"/>
				<path style="fill:#EDDED1;" d="M193.838,324.848c2.099,2.33-1.18,3.714-3.003,4.653c-1.878,0.908-2.784-1.897-3.559-3.196      c-0.823-1.979,2.232-2.71,3.527-3.64C192.402,321.649,193.083,323.885,193.838,324.848z"/>
				<path style="fill:#EDDED1;" d="M202.176,319.992c2.093,2.334-1.183,3.71-3.007,4.653c-1.88,0.906-2.781-1.898-3.56-3.196      c-0.821-1.982,2.231-2.709,3.527-3.642C200.739,316.791,201.415,319.032,202.176,319.992z"/>
			</g>
		</g>
		<g>
			<g>
				<path style="fill:#EDDED1;" d="M224.299,385.713c2.246,2.188-0.935,3.782-2.694,4.838c-1.816,1.028-2.901-1.714-3.759-2.958      c-0.951-1.921,2.052-2.851,3.282-3.862C222.658,382.612,223.483,384.8,224.299,385.713z"/>
				<path style="fill:#EDDED1;" d="M232.305,380.327c2.237,2.192-0.937,3.785-2.701,4.837c-1.813,1.031-2.898-1.716-3.755-2.958      c-0.954-1.922,2.051-2.846,3.283-3.862C230.666,377.228,231.482,379.417,232.305,380.327z"/>
				<path style="fill:#EDDED1;" d="M240.305,374.942c2.244,2.188-0.935,3.782-2.694,4.837c-1.819,1.032-2.896-1.716-3.762-2.957      c-0.945-1.922,2.052-2.852,3.286-3.862C238.66,371.839,239.49,374.032,240.305,374.942z"/>
			</g>
		</g>
	</g>
	<g>
		<path style="fill:#FEB44C;" d="M237.622,25.693l-13.85,5.606c-13.68-23.49-47.163-33.837-79.987-23.117    c-36.682,11.979-58.587,45.684-48.997,75.325l-18.5,7.489l29.633,56.521L258.475,93.74L237.622,25.693z"/>
		<path style="fill:#4E2957;" d="M121.391,99.465c-0.688-0.838-16.794-20.67-13.549-34.991c1.087-4.796,4.177-8.416,9.185-10.759    c4.031-1.889,7.947-1.898,11.64-0.029c12.722,6.438,18.242,33.592,18.471,34.745l-3.228,0.641    c-0.053-0.267-5.434-26.734-16.731-32.45c-2.782-1.406-5.645-1.381-8.756,0.072c-4.095,1.918-6.505,4.698-7.368,8.503    c-2.892,12.752,12.723,31.985,12.882,32.176L121.391,99.465z"/>
		<path style="fill:#4E2957;" d="M193.018,72.194c-0.688-0.837-16.794-20.67-13.549-34.991c1.087-4.796,4.177-8.416,9.185-10.759    c4.031-1.889,7.949-1.898,11.64-0.029c12.722,6.439,18.242,33.593,18.471,34.745l-3.228,0.641    c-0.053-0.267-5.434-26.734-16.731-32.45c-2.781-1.407-5.644-1.381-8.755,0.072c-4.095,1.918-6.505,4.698-7.368,8.503    c-2.892,12.752,12.723,31.985,12.882,32.176L193.018,72.194z"/>
		<g>
			<path style="fill:#4E2957;" d="M145.522,63.025l33.525-9.083c0,0,3.704,50.24-6.173,51.475     C162.996,106.652,145.522,63.025,145.522,63.025z"/>
			<path style="fill:#EDDED1;" d="M149.826,64.466l21.401-5.556l1.029,12.239l-9.971,4.223l15.116-1.405     c0,0,1.852,24.865-5.35,27.128C164.848,103.359,149.826,64.466,149.826,64.466z"/>
		</g>
		<path style="fill:#F66057;" d="M120.218,105.594c0.942,2.979-2.553,6.742-7.809,8.405c-5.257,1.662-10.281,0.595-11.223-2.386    c-0.942-2.979,2.553-6.743,7.809-8.405C114.252,101.545,119.274,102.613,120.218,105.594z"/>
		<path style="fill:#F66057;" d="M241.438,59.773c0.942,2.979-2.553,6.742-7.809,8.405c-5.257,1.662-10.281,0.595-11.223-2.386    c-0.942-2.979,2.553-6.743,7.809-8.405C235.472,55.725,240.495,56.792,241.438,59.773z"/>
		<path style="fill:#EDDED1;" d="M108.305,144.442L81.098,92.58l17.812-6.68c-1.637-5.215-5.892-22.425,2.247-40.362    c6.984-15.391,21.21-27.111,42.285-34.834l1.132,3.09c-20.194,7.402-33.787,18.525-40.399,33.064    c-8.993,19.768-1.73,39.239-1.656,39.433l0.593,1.548l-17.365,6.513l25.474,48.56L108.305,144.442z"/>
	</g>
</g>
<g>
</g>
<g>
</g>
<g>
</g>
<g>
</g>
<g>
</g>
<g>
</g>
<g>
</g>
<g>
</g>
<g>
</g>
<g>
</g>
<g>
</g>
<g>
</g>
<g>
</g>
<g>
</g>
<g>
</g>
</svg>
