<svg id="Sport" height="512" viewBox="-70.866 -70.866 850.394 850.394" width="512" xmlns="http://www.w3.org/2000/svg">
    <g>
        <path d="m644.069 136.49c-10.777-78.43-97.996-109.059-154.234-53.293-4.035-3.422-19.051-3.988-17.133-8.781 14.348-22.094 18.016-48.383 10.07-72.133-7.738-23.117-25.422-40.738-49.809-49.609-56.41-17.418-125.433-23.879-181.695 14.117-33.32 24.086-39.582 70.52-17.613 104.02-10.875 3.133-21.5 6.75-31.855 10.855-21.879-17.375-43.652-25.879-66.047-25.879-42.266-.406-82.5 34.113-87.121 76.156-2.75 20.09 1.363 41.563 11.047 60.723-1.754 2.441-3.461 4.898-5.121 7.363-89.621 132.957-82.891 323.25 15.66 442.633 202.688 230.766 621.125 138.105 645.734-202.5 7.441-89.133-21.918-178.739-81.121-250.153 7.937-17.179 11.226-35.64 9.238-53.519z"
              fill="none"/>
        <g>
            <path d="m586.905 193.923c26.051-29.234 27.723-69.566-5.77-93.527-31.102-22.234-64.195 6.195-82.461 28.855-21.75-10.969-44.793-19.582-68.793-25.355-10.402-2.223-20.855-4.031-31.32-5.484 1.023-7.074-.059-14.121-2.742-20.602 21.617-3.559 35.953-10.645 44.785-24.23 14.707-22.648 9.75-53.855-20.719-64.941-39.238-14.273-110.484-17.871-145.503 8.66-31.219 23.656-10.648 67.809 21.918 74.844 4.895 1.063 10.082 2.074 15.461 3.012-3.188 6.441-4.75 13.527-4.203 20.73-39.715 3.594-78.086 13.625-113.109 30.871-21.734-22.586-51.625-44.059-82.977-25.895-36.5 21.152-29.863 67.094-4.277 93.281-7.359 8.516-14.363 17.574-20.902 27.277-78.294 116.141-76.005 288.532 13.437 396.88 80.031 96.945 223.336 129.938 342.472 104 134.848-29.356 224.449-151.211 235.621-285.309 7.676-92.02-28.91-179.614-90.926-243.059z"
                  fill="#68182b"/>
            <path d="m424.276 124.236c-18.93-4.047-38.047-7.422-57.395-8.66-72.621-4.633-150.679 9.246-208.253 56.852-65.746 54.359-100.117 136.847-105.719 221.109-10.566 158.836 92.047 285.352 249.004 311.234 153.675 25.332 301.679-52.875 344.113-207.992 44.836-163.899-57.199-332.946-221.75-372.543zm165.27 406.563c-61.691 118.184-202.426 160.109-325.73 118.758-134.652-45.152-201.07-176.879-160.895-313.606 41.574-141.457 175.184-196.277 312.957-167.996 18.961 4.516 37.754 10.289 55.293 18.926 126.347 62.152 184.882 216.512 118.375 343.918z"
                  fill="#ff7a0d"/>
            <path d="m405.155 6.06c1.496.387 2.992.797 4.477 1.23 22.984 6.738 23.566 31.188 5.227 43.441-2.73 1.305-5.609 2.352-8.602 3.215-4.293 1.227-6.238 1.867-5.578-4.77 1.18-11.715 1.484-24.082-.078-35.688-.93-6.877-1.602-9.03 4.554-7.428z"
                  fill="#ff7a0d"/>
            <path d="m306.378 11.865c-2.297 11.676-2.375 23.832-.863 35.715.586 4.59-.008 5.941-4.074 4.641-11.352-3.598-20.012-10.328-20.727-23.043-.633-11.367 7.918-18.266 20.047-22.438 5.602-1.934 6.75-.614 5.617 5.125z"
                  fill="#00ebed"/>
            <path d="m559.303 113.998c34.648 4.77 29.895 45.703 12.691 65.016-.121.133-.188.273-.297.402-16.703-15.082-34.938-28.516-54.418-39.984 10.634-13.165 24.739-27.813 42.024-25.434z"
                  fill="#dda96b"/>
            <path d="m361.241 51.087c.746-14.086.68-28.383.613-42.512-.035-6.207 1.23-7.789 6.09-7.68 3.824.094 7.633.352 11.43.719 4.504.449 6.574 2.809 7.563 7.602 2.734 13.281 2.418 28.285.887 41.91-.684 6-.512 6.059-6.539 6.262-5.027.172-10.082.125-15.039-.012-4.13-.105-5.302-.48-5.005-6.289z"
                  fill="#00ebed"/>
            <path d="m372.921 79.974c3.344 3.926 5.656 11.316 4.621 16.023-16.414-1.457-32.792-1.93-49.015-1.383-.5-7.91 2.113-11.418 6.188-16.211 12.53 1.352 25.503 2.013 38.206 1.571z"
                  fill="#ffc522"/>
            <path d="m320.073 8.275c1.559-5.418 2.27-6.203 7.973-6.719 5.477-.488 10.941-.75 16.074-.863 5.078-.117 5.039 1.313 5.07 7.758.066 14.027.141 28.215-.586 42.223-.277 5.254-1.668 5.996-6.117 5.926-5.332-.094-11.426-.172-17.668-.566-4.758-.293-5.449-.719-6.418-7.043-2.089-13.501-2.062-27.74 1.672-40.716z"
                  fill="#ff7a0d"/>
            <path d="m130.073 115.435c16.578-5.324 33.426 9.809 45.141 21.746-19.223 11.391-37.211 25.215-53.633 41.531-17.804-19.464-23.234-53.078 8.492-63.277z"
                  fill="#dda96b"/>
            <path d="m410.276 188.294c-133.113-27.32-264.839 31.324-291.898 173.743-25.18 132.539 47.75 248.742 181.992 275.371 123.656 24.535 251.902-31.145 287.417-159.383 36.122-130.41-48.3-258.973-177.511-289.731zm10.555 125.036c-5.078 28.84-13.152 57.11-26.184 83.348 11.293 14.301 15.465 34.691 3.527 50.352-14.555 19.078-38.695 25.512-60.3 13.352-22.02-12.395-32.902-39.488-17.668-61.984 5.582-8.238 12.5-13.824 20.156-16.953 2.625-30.766 12.895-60.977 27.246-88.18 7.855-14.898 20.797-44.863 42.629-39.477 21.441 5.284 12.981 45.983 10.594 59.542z"
                  fill="#e5e5e5"/>
            <path d="m351.413 443.482c-13.344-4.328-20.645-17.77-14.992-30.809 6.641-15.305 21.964-16.082 35.128-9.129 25.219 15.919 6.864 48.716-20.136 39.938z"
                  fill="#ffc522"/>
            <path d="m403.331 299.744c-1.973 14.012-6.859 28.727-9.699 39.809-3.844 15.008-9.168 29.661-15.848 43.645-5.352-2.34-10.75-3.824-16.055-4.445 1.902-16.543 6.484-32.383 12.199-48.18 4.246-11.719 9.887-22.859 15.691-33.867 11.622-22.037 17.618-24.931 13.712 3.038z"
                  fill="#ffc522"/>
            <path d="m300.37 637.408c123.656 24.535 251.902-31.145 287.417-159.383 20.375-73.559 2.391-146.516-40.344-201.676 24.688 44.516 36.453 95.622 33.305 148.047-5.211 86.563-62.965 149.211-143.035 176.469-75.793 25.797-168.296 20.84-230.753-32.914-57.098-49.137-80.109-131.75-69.379-204.695 8.543-58.063 41.871-112.458 86.668-151.567-52.793 29.078-92.371 79.281-105.871 150.348-25.18 132.539 47.75 248.742 181.992 275.371z"
                  fill="#c6c6c6"/>
            <path d="m533.569 393.689c-7.164-20.469-31.859-44.364-55.469-33.969-22.523 9.922-25.57 43.699-29.051 65.379-9.848 61.316-84.176 100.098-143.101 60.941-32.285-21.465-43.863-72.082-25.785-104.137 13.551-24.027 40.328-30.692 44.848-58.872 7.613-47.461-37.895-79.934-80.953-61.91-88.711 37.133-101.848 204.872-5.887 289.524 56.953 50.238 145.519 48.891 211.636 14.527 61.106-31.756 107.93-102.385 83.762-171.483z"
                  fill="#f4f4f4"/>
            <path d="m232.995 173.556c-69.047 27.813-118.59 85.746-137.133 157.504-11.43 44.2-10.793 91.75.883 136.055-8.676-41.203-7.125-85.898 6.176-131.165 41.574-141.457 175.184-196.277 312.957-167.996 18.961 4.516 37.754 10.289 55.293 18.926 52.184 25.668 92.746 67.082 117.762 115.809-20.609-48.297-53.32-87.332-101.223-115.43-78.7-46.16-171.062-47.394-254.715-13.703z"
                  fill="#ef6200"/>
            <path d="m406.257 53.947c2.992-.863 5.871-1.91 8.602-3.215 11.563-7.727 15.582-20.297 11.23-30.219-.441 4.199-2.047 8.414-4.805 12.508-4.902 7.297-12.621 11.125-20.004 8.566-.16 2.551-.352 5.09-.602 7.59-.66 6.637 1.286 5.996 5.579 4.77z"
                  fill="#ef6200"/>
            <path d="m318.402 48.99c.969 6.324 1.66 6.75 6.418 7.043 6.242.395 12.336.473 17.668.566 4.449.07 5.84-.672 6.117-5.926.406-7.938.547-15.922.586-23.91-.621 1.379-1.254 2.742-1.898 4.043-6.848 13.703-21.746 13.715-30.105 4.527.171 4.583.514 9.165 1.214 13.657z"
                  fill="#ef6200"/>
            <path d="m645.635 470.26c-13.586 69.117-50.34 134.168-108.184 175.367-73.762 52.543-174.668 64.191-261.496 45.031-93.52-20.633-163.246-85.371-201.387-171.547-6.949-15.695-12.793-31.941-17.594-48.516 21.498 121.469 114.385 212.645 244.939 234.176 153.675 25.332 301.679-52.875 344.113-207.992 14.328-52.387 13.598-105.27.68-154.309 6.972 41.977 7.363 84.903-1.071 127.79z"
                  fill="#ef6200"/>
            <path d="m378.675 409.814c1.063 9.484-1.844 19.004-10.941 24.383-8.945 5.285-19.656.348-26.183-6.23-3.168-3.191-5.313-6.848-6.559-10.711-2.398 11.477 4.641 22.406 16.422 26.227 23.807 7.742 40.846-16.833 27.261-33.669z"
                  fill="#ffa222"/>
            <path d="m328.527 94.615c16.223-.547 32.601-.074 49.015 1.383.461-2.09.18-4.715-.477-7.316-9.004-1.363-18.984-.527-27.796-.566-6.945-.035-13.82.441-20.586 1.555-.211 1.455-.277 3.065-.156 4.944z"
                  fill="#ffa222"/>
            <path d="m369.471 380.275c2.777.75 5.551 1.715 8.313 2.922 6.68-13.984 12.004-28.637 15.848-43.645 2.84-11.082 7.727-25.797 9.699-39.809.547-3.918.883-7.16 1.047-9.902-8.188 31.575-19.903 61.219-34.907 90.434z"
                  fill="#ffa222"/>
            <path d="m362.737 406.104c-1.656-.652-3.242-1.055-4.363-1.129-7.734-.52-14.636 4.266-12.902 12.563 1.664 7.953 12.097 10.926 18.886 8.375 10.176-3.813 7.602-16.165-1.621-19.809z"
                  fill="#fbe134"/>
            <path d="m280.82 29.947c1.031 12.188 9.512 18.754 20.621 22.273 4.066 1.301 4.66-.051 4.074-4.641-.48-3.816-.738-7.66-.871-11.5-3.219 3.309-7.43 5.008-12.586 4.145-6.008-1.008-9.168-5.312-11.238-10.277z"
                  fill="#19bfbb"/>
            <path d="m387.823 51.126c.727-6.484 1.148-13.289 1.129-20.066-.469 1.793-.977 3.582-1.57 5.348-1.336 3.969-6.348 17.25-13.473 11.527-2.973-2.383-4.758-6.898-6.164-10.309-3.715-9.043-3.184-19.262-5.891-28.484.066 13.941.117 28.051-.613 41.945-.297 5.809.875 6.184 5.004 6.289 4.957.137 10.012.184 15.039.012 6.027-.203 5.855-.262 6.539-6.262z"
                  fill="#19bfbb"/>
            <path d="m121.581 178.712c15.598-15.5 32.645-28.668 50.785-39.723-10.297-1.281-20.309 4.73-28.324 11.016-3.891 3.043-7.359 6.512-11.301 9.516-11.645 8.879-18.746-7.316-20.742-13.867-2.293-7.523.145-15.531 4.199-22.434-15.414 14.321-9.144 39.613 5.383 55.492z"
                  fill="#c48d51"/>
            <path d="m571.698 179.416c.109-.129.176-.27.297-.402 12.422-13.945 18.258-39.102 7.551-53.84 2.66 6.441 3.469 12.984 1.434 21.344-4.668 19.176-22.762 12.438-34.219 4.832-7.82-5.18-16.367-11.035-25.496-9.434 17.968 10.921 34.882 23.46 50.433 37.5z"
                  fill="#c48d51"/>
            <path d="m122.152 141.025c.109 5.254 3.859 8.082 8.773 5.816 6.598-3.035 12.199-7.762 18.371-11.656 4.039-2.551 6.109-5.492 2.207-8.238-11.555-8.11-29.695-2.27-29.351 14.078z"
                  fill="#f4c38e"/>
            <path d="m560.979 123.544c-6.367-1.398-13.031.52-18.168 4.41-6.328 4.797-3.617 6.5 1.762 9.063 3.609 1.727 7.109 3.691 10.398 5.973 3.219 2.227 6.172 4.383 10.25 4.191 5.461-.262 7.914-6.055 7.813-10.781-.152-6.922-5.762-11.477-12.055-12.856z"
                  fill="#f4c38e"/>
            <g fill="#68182b">
                <path d="m364.139 603.967c1.438 4.809 1.582 9.941 1.59 14.926.008 5.746-4.797 10.547-10.547 10.547-5.753 0-10.539-4.801-10.546-10.547 0-4.438.066-6.297-.836-9.32-1.641-5.504 1.918-11.473 7.367-12.973 5.629-1.551 11.332 1.863 12.972 7.367z"/>
                <path d="m345.011 220.583c-1.438-4.805-1.582-9.941-1.586-14.926-.008-5.746 4.797-10.547 10.547-10.547 5.753 0 10.539 4.801 10.546 10.547 0 4.438-.066 6.297.836 9.32 1.641 5.504-1.918 11.473-7.371 12.973-5.628 1.551-11.331-1.863-12.972-7.367z"/>
                <path d="m538.901 415.682c-1.547-5.629 1.867-11.332 7.371-12.973 4.805-1.438 9.934-1.582 14.918-1.59 5.746-.008 10.547 4.797 10.547 10.547 0 5.754-4.801 10.539-10.547 10.547-4.438.008-6.289-.066-9.316.836-5.504 1.64-11.469-1.918-12.973-7.367z"/>
                <path d="m170.249 408.869c1.551 5.633-1.863 11.332-7.367 12.973-4.809 1.438-9.934 1.582-14.918 1.59-5.75.008-10.547-4.797-10.547-10.547 0-5.754 4.797-10.539 10.547-10.547 4.434 0 6.289.066 9.313-.836 5.504-1.641 11.468 1.918 12.972 7.367z"/>
                <path d="m225.726 554.701c-2.379 4.363-5.867 8.063-9.367 11.555-9.621 9.633-24.539-5.285-14.91-14.91 2.797-2.801 4.457-4.344 6.059-7.297 2.742-5.043 9.59-6.617 14.438-3.785 5.065 2.972 6.522 9.382 3.78 14.437z"/>
                <path d="m483.425 269.849c2.383-4.371 5.875-8.063 9.367-11.555 9.617-9.637 24.527 5.281 14.91 14.91-2.793 2.801-4.453 4.344-6.055 7.297-2.75 5.043-9.594 6.617-14.438 3.785-5.07-2.972-6.527-9.382-3.784-14.437z"/>
                <path d="m508.561 550.49c9.621 9.621-5.289 24.539-14.91 14.91-2.805-2.801-4.34-4.457-7.297-6.059-5.043-2.742-6.621-9.59-3.785-14.438 2.973-5.066 9.379-6.523 14.438-3.781 4.367 2.372 8.058 5.868 11.554 9.368z"/>
                <path d="m226.585 279.646c-2.973 5.066-9.383 6.523-14.438 3.781-4.371-2.371-8.063-5.867-11.555-9.367-9.625-9.621 5.285-24.539 14.91-14.91 2.801 2.801 4.336 4.457 7.297 6.059 5.044 2.742 6.618 9.589 3.786 14.437z"/>
            </g>
        </g>
    </g>
</svg>