<svg height="512" viewBox="0 0 128 128" width="512" xmlns="http://www.w3.org/2000/svg"><g><g><path d="m115.63 62.66c-8.86 4.18-17.13-4.66-17.13-4.66s-4.59 6-11.5 6-11.5-6-11.5-6-4.59 6-11.5 6-11.5-6-11.5-6-4.59 6-11.5 6-11.5-6-11.5-6-8.27 8.84-17.13 4.66a8.879 8.879 0 0 1 -4.81-9.71 57.515 57.515 0 0 1 112.88 0 8.879 8.879 0 0 1 -4.81 9.71z" fill="#f5502f"/><g fill="#ededf9"><path d="m64 6.5c-5.98 0-10.89 22.58-11.49 51.51l-.01-.01s-4.59 6-11.5 6c-6.62 0-11.11-5.51-11.48-5.97 1.8-28.94 16.55-51.53 34.48-51.53z"/><path d="m98.48 58.03c-.37.46-4.86 5.97-11.48 5.97-6.91 0-11.5-6-11.5-6l-.01.01c-.6-28.93-5.51-51.51-11.49-51.51 17.93 0 32.68 22.59 34.48 51.53z"/></g></g><g fill="#102a3f"><path d="m96.7 18.841c1.191.863 2.364 1.786 3.487 2.744a1.75 1.75 0 0 0 2.271-2.662c-1.192-1.018-2.439-2-3.7-2.916a1.75 1.75 0 0 0 -2.058 2.834z"/><path d="m122.158 52.617a58.961 58.961 0 0 0 -15.545-29.787 1.75 1.75 0 1 0 -2.517 2.432 55.461 55.461 0 0 1 14.626 28.019 7.09 7.09 0 0 1 -3.839 7.8c-6.591 3.112-13.083-2.359-14.713-3.89-1.457-20.9-9.4-38.137-20.4-46.665a55.329 55.329 0 0 1 11.6 4.9 1.75 1.75 0 1 0 1.721-3.047 59.275 59.275 0 0 0 -87.25 40.24 10.594 10.594 0 0 0 5.782 11.624 13.3 13.3 0 0 0 7.348 1.2l43.638 57.12a1.752 1.752 0 0 0 2.782 0l43.638-57.12a13.3 13.3 0 0 0 7.35-1.2 10.591 10.591 0 0 0 5.779-11.626zm-25.479 4.819c-1.209 1.326-4.85 4.814-9.679 4.814-4.987 0-8.7-3.711-9.778-4.925-.074-3.167-.194-6.327-.371-9.4a1.75 1.75 0 0 0 -3.5.2c.176 3.031.293 6.144.365 9.264-1.152 1.282-4.816 4.861-9.716 4.861s-8.576-3.591-9.725-4.866c.752-32.709 6.61-49.134 9.725-49.134 1.85 0 6.4 7.572 8.672 30.978a1.75 1.75 0 0 0 3.484-.338c-1.621-16.718-4.221-25.431-6.774-29.855 14.126 4.065 25.573 23.802 27.297 48.401zm-44.179 3.164a17.545 17.545 0 0 0 9.75 5.038v45.2l-15.594-46.273a19.292 19.292 0 0 0 5.844-3.965zm13.25 5.038a17.545 17.545 0 0 0 9.75-5.038 19.292 19.292 0 0 0 5.844 3.97l-15.594 46.26zm-52.631-4.559a7.094 7.094 0 0 1 -3.842-7.8 55.824 55.824 0 0 1 39.046-42.8c-6.865 5.3-12.652 14.05-16.385 25.313a1.75 1.75 0 0 0 3.323 1.1c4.956-14.949 13.607-25.109 23.345-27.878-5.389 9.486-7.463 32.725-7.833 48.316-1.092 1.226-4.8 4.92-9.773 4.92-4.83 0-8.471-3.489-9.678-4.812a89.419 89.419 0 0 1 1.315-10.338 1.751 1.751 0 0 0 -3.44-.651 93.258 93.258 0 0 0 -1.366 10.736c-1.631 1.535-8.12 7.001-14.712 3.894zm16.281-.587c1.975 1.968 6.1 5.258 11.6 5.258a13.763 13.763 0 0 0 2.3-.2l15.662 46.465-36.28-47.48a22.926 22.926 0 0 0 6.718-4.043zm39.647 51.524 15.658-46.465a13.763 13.763 0 0 0 2.3.2c5.5 0 9.629-3.29 11.6-5.258a22.933 22.933 0 0 0 6.715 4.043z"/><path d="m110.722 44.025a1.75 1.75 0 0 0 1.585-2.489 52.816 52.816 0 0 0 -2.913-5.408 1.75 1.75 0 0 0 -2.979 1.836 49.59 49.59 0 0 1 2.72 5.051 1.748 1.748 0 0 0 1.587 1.01z"/></g></g></svg>