<?xml version="1.0" encoding="iso-8859-1"?>
<!-- Generator: Adobe Illustrator 19.0.0, SVG Export Plug-In . SVG Version: 6.00 Build 0)  -->
<svg version="1.1" id="Capa_1" xmlns="http://www.w3.org/2000/svg" xmlns:xlink="http://www.w3.org/1999/xlink" x="0px" y="0px"
	 viewBox="0 0 512 512" style="enable-background:new 0 0 512 512;" xml:space="preserve">
<g>
	<g>
		<g>
			<path d="M426.667,110.933h-51.2c-14.132,0.015-25.585,11.468-25.6,25.6v8.533H281.6V8.533c0.001-2.263-0.898-4.434-2.499-6.035
				c-1.6-1.6-3.771-2.499-6.035-2.499h-34.133c-2.263-0.001-4.434,0.898-6.035,2.499c-1.6,1.6-2.499,3.771-2.499,6.035v136.533
				h-68.267v-8.533c-0.015-14.132-11.468-25.585-25.6-25.6h-51.2c-14.132,0.015-25.585,11.468-25.6,25.6V486.4
				c0.015,14.132,11.468,25.585,25.6,25.6h51.2c14.132-0.015,25.585-11.468,25.6-25.6v-8.533h187.733v8.533
				c0.015,14.132,11.468,25.585,25.6,25.6h51.2c14.132-0.015,25.585-11.468,25.6-25.6V136.533
				C452.251,122.401,440.799,110.949,426.667,110.933z M247.467,17.067h17.067v128h-17.067V17.067z M238.933,162.133h34.133V179.2
				h-34.133V162.133z M230.4,196.267h51.2v25.6h-51.2V196.267z M324.267,238.933c4.711,0.005,8.529,3.822,8.533,8.533v128
				c-0.005,4.711-3.822,8.529-8.533,8.533H187.733c-4.711-0.005-8.529-3.822-8.533-8.533v-128c0.005-4.711,3.822-8.529,8.533-8.533
				h34.133H324.267z M76.8,136.533c0.005-4.711,3.822-8.529,8.533-8.533h51.2c4.711,0.005,8.529,3.822,8.533,8.533v61.306
				c-7.229,2.577-12.917,8.266-15.494,15.494H76.8V136.533z M76.8,230.4H128v42.667H76.8V230.4z M76.8,290.133H128v34.133H76.8
				V290.133z M76.8,341.333H128v51.2H76.8V341.333z M145.067,486.4c-0.005,4.711-3.822,8.529-8.533,8.533h-51.2
				c-4.711-0.005-8.529-3.822-8.533-8.533v-76.8h52.773c2.577,7.229,8.265,12.917,15.494,15.494V486.4z M230.4,460.8h-25.6v-17.067
				c0.005-4.711,3.822-8.529,8.533-8.533h8.533c4.711,0.005,8.529,3.822,8.533,8.533V460.8z M307.2,460.8h-25.6v-17.067
				c0.005-4.711,3.823-8.529,8.533-8.533h8.533c4.711,0.005,8.529,3.822,8.533,8.533V460.8z M358.4,409.6
				c-2.263-0.001-4.434,0.898-6.035,2.499c-1.6,1.6-2.499,3.771-2.499,6.035V460.8h-25.6v-17.067
				c-0.015-14.132-11.468-25.585-25.6-25.6h-8.533c-14.132,0.015-25.585,11.468-25.6,25.6V460.8h-17.067v-17.067
				c-0.015-14.132-11.468-25.585-25.6-25.6h-8.533c-14.132,0.015-25.585,11.468-25.6,25.6V460.8h-25.6v-42.667
				c0.001-2.263-0.898-4.434-2.499-6.035c-1.6-1.6-3.771-2.499-6.035-2.499c-4.711-0.005-8.529-3.822-8.533-8.533v-179.2
				c0.005-4.711,3.822-8.529,8.533-8.533c2.263,0.001,4.434-0.898,6.035-2.499c1.6-1.6,2.499-3.771,2.499-6.035v-42.667h59.733
				v19.441c-5.262,3.024-8.513,8.623-8.533,14.692v25.6h-25.6c-14.132,0.015-25.585,11.468-25.6,25.6v128
				c0.015,14.132,11.468,25.585,25.6,25.6h136.533c14.132-0.015,25.585-11.468,25.6-25.6v-128
				c-0.015-14.132-11.468-25.585-25.6-25.6h-25.6v-25.6c-0.02-6.069-3.272-11.668-8.533-14.692v-19.441h59.733V204.8
				c-0.001,2.263,0.898,4.434,2.499,6.035c1.6,1.6,3.771,2.499,6.035,2.499c4.711,0.005,8.529,3.822,8.533,8.533v179.2
				C366.929,405.778,363.111,409.595,358.4,409.6z M435.2,486.4c-0.005,4.711-3.822,8.529-8.533,8.533h-51.2
				c-4.711-0.005-8.529-3.822-8.533-8.533v-61.306c7.229-2.577,12.917-8.266,15.494-15.494H435.2V486.4z M435.2,392.533H384v-51.2
				h51.2V392.533z M435.2,324.267H384v-34.133h51.2V324.267z M435.2,273.067H384V230.4h51.2V273.067z M435.2,213.333h-52.772
				c-2.577-7.229-8.266-12.917-15.494-15.494v-61.306c0.005-4.711,3.822-8.529,8.533-8.533h51.2
				c4.711,0.005,8.529,3.822,8.533,8.533V213.333z"/>
			<path d="M273.067,315.733h17.067c14.132-0.015,25.585-11.468,25.6-25.6v-25.6c0.001-2.263-0.898-4.434-2.499-6.035
				c-1.6-1.6-3.771-2.499-6.035-2.499H256c-2.263-0.001-4.434,0.898-6.035,2.499c-1.6,1.6-2.499,3.771-2.499,6.035v25.6
				C247.482,304.265,258.935,315.718,273.067,315.733z M264.533,273.067h34.133v17.067c-0.005,4.711-3.823,8.529-8.533,8.533
				h-17.067c-4.711-0.005-8.529-3.822-8.533-8.533V273.067z"/>
			<path d="M204.8,273.067c-4.713,0-8.533,3.821-8.533,8.533v8.533c-0.001,2.263,0.898,4.434,2.499,6.035
				c1.6,1.6,3.771,2.499,6.035,2.499c2.263,0.001,4.434-0.898,6.035-2.499c1.6-1.6,2.499-3.771,2.499-6.035V281.6
				C213.333,276.887,209.513,273.067,204.8,273.067z"/>
			<path d="M204.8,307.2c-4.713,0-8.533,3.82-8.533,8.533v8.533c-0.001,2.263,0.898,4.434,2.499,6.035
				c1.6,1.6,3.771,2.499,6.035,2.499c2.263,0.001,4.434-0.898,6.035-2.499c1.6-1.6,2.499-3.771,2.499-6.035v-8.533
				C213.333,311.021,209.513,307.2,204.8,307.2z"/>
			<path d="M204.8,341.333c-4.713,0-8.533,3.82-8.533,8.533v8.533c-0.001,2.263,0.898,4.434,2.499,6.035
				c1.6,1.6,3.771,2.499,6.035,2.499c2.263,0.001,4.434-0.898,6.035-2.499c1.6-1.6,2.499-3.771,2.499-6.035v-8.533
				C213.333,345.154,209.513,341.333,204.8,341.333z"/>
			<path d="M281.6,324.267c-14.138,0-25.6,11.462-25.6,25.6s11.461,25.6,25.6,25.6s25.6-11.461,25.6-25.6
				C307.185,335.735,295.732,324.282,281.6,324.267z M281.6,358.4c-4.713,0-8.533-3.82-8.533-8.533s3.82-8.533,8.533-8.533
				s8.533,3.82,8.533,8.533C290.129,354.578,286.311,358.395,281.6,358.4z"/>
			<path d="M93.867,145.067c-4.713,0-8.533,3.821-8.533,8.533v17.067c-0.001,2.263,0.898,4.434,2.499,6.035
				c1.6,1.6,3.771,2.499,6.035,2.499c2.263,0.001,4.434-0.898,6.035-2.499c1.6-1.6,2.499-3.771,2.499-6.035V153.6
				C102.4,148.887,98.579,145.067,93.867,145.067z"/>
			<path d="M119.467,145.067c-4.713,0-8.533,3.821-8.533,8.533v17.067c-0.001,2.263,0.898,4.434,2.499,6.035
				c1.6,1.6,3.771,2.499,6.035,2.499c2.263,0.001,4.434-0.898,6.035-2.499c1.6-1.6,2.499-3.771,2.499-6.035V153.6
				C128,148.887,124.18,145.067,119.467,145.067z"/>
			<path d="M93.867,443.733c-2.263-0.001-4.434,0.898-6.035,2.499c-1.6,1.6-2.499,3.771-2.499,6.035v17.067
				c0,4.713,3.82,8.533,8.533,8.533s8.533-3.82,8.533-8.533v-17.067c0.001-2.263-0.898-4.434-2.499-6.035
				C98.301,444.632,96.13,443.733,93.867,443.733z"/>
			<path d="M119.467,443.733c-2.263-0.001-4.434,0.898-6.035,2.499c-1.6,1.6-2.499,3.771-2.499,6.035v17.067
				c0,4.713,3.82,8.533,8.533,8.533s8.533-3.82,8.533-8.533v-17.067c0.001-2.263-0.898-4.434-2.499-6.035
				C123.901,444.632,121.73,443.733,119.467,443.733z"/>
			<path d="M392.533,145.067c-4.713,0-8.533,3.821-8.533,8.533v17.067c-0.001,2.263,0.898,4.434,2.499,6.035
				c1.6,1.6,3.771,2.499,6.035,2.499c2.263,0.001,4.434-0.898,6.035-2.499c1.6-1.6,2.499-3.771,2.499-6.035V153.6
				C401.067,148.887,397.246,145.067,392.533,145.067z"/>
			<path d="M418.133,145.067c-4.713,0-8.533,3.821-8.533,8.533v17.067c-0.001,2.263,0.898,4.434,2.499,6.035
				c1.6,1.6,3.771,2.499,6.035,2.499c2.263,0.001,4.434-0.898,6.035-2.499c1.6-1.6,2.499-3.771,2.499-6.035V153.6
				C426.667,148.887,422.846,145.067,418.133,145.067z"/>
			<path d="M392.533,477.867c4.713,0,8.533-3.82,8.533-8.533v-17.067c0.001-2.263-0.898-4.434-2.499-6.035
				c-1.6-1.6-3.771-2.499-6.035-2.499c-2.263-0.001-4.434,0.898-6.035,2.499c-1.6,1.6-2.499,3.771-2.499,6.035v17.067
				C384,474.046,387.82,477.867,392.533,477.867z"/>
			<path d="M418.133,477.867c4.713,0,8.533-3.82,8.533-8.533v-17.067c0.001-2.263-0.898-4.434-2.499-6.035
				c-1.6-1.6-3.771-2.499-6.035-2.499c-2.263-0.001-4.434,0.898-6.035,2.499c-1.6,1.6-2.499,3.771-2.499,6.035v17.067
				C409.6,474.046,413.421,477.867,418.133,477.867z"/>
		</g>
	</g>
</g>
<g>
</g>
<g>
</g>
<g>
</g>
<g>
</g>
<g>
</g>
<g>
</g>
<g>
</g>
<g>
</g>
<g>
</g>
<g>
</g>
<g>
</g>
<g>
</g>
<g>
</g>
<g>
</g>
<g>
</g>
</svg>
