<svg id="character" height="512" viewBox="0 0 512 512" width="512" xmlns="http://www.w3.org/2000/svg"><g><g fill="#d5e9ed"><path d="m342.636 406.714-11.382 6.692 65.507 8.925 104.596-57.845-214.102-16.303-173.531 38.605 86.185 22.788 54.612-11.232z"/><path d="m232.509 396.122-163.173-20.064-58.693 24.561 138.643 36.658z"/><path d="m233.739 342.819-163.173-20.064-58.692 24.561 138.642 36.659z"/><ellipse cx="135.131" cy="285.691" rx="38.55" ry="17.684"/><ellipse cx="202.904" cy="292.797" rx="38.55" ry="17.684"/><ellipse cx="181.365" cy="261.197" rx="38.55" ry="17.684"/><ellipse cx="244.773" cy="259.954" rx="38.55" ry="17.684"/></g><path id="square_27_" d="m423.981 353.895-368.005-44.047 68.261-235.125 281.335 74.061z" fill="#e5c4ff"/><g id="_x31_4_1_"><g><ellipse cx="183.355" cy="251.503" fill="#81cacf" rx="31.101" ry="12.637"/><path d="m152.255 247.317h62.201v4.186h-62.201z" fill="#81cacf"/><ellipse cx="183.355" cy="247.317" fill="#9ce8da" rx="31.101" ry="12.637"/><path d="m211.671 244.485c-.591-10.231-4.596-82.964-5.058-90.679s-40.949-7.203-42.07.923c-2.082 15.098-8.218 70.482-9.495 88.36-1.278 17.877 57.631 18.859 56.623 1.396z" fill="#5abfbe"/><path d="m164.543 154.729c-2.082 15.098-8.218 70.482-9.495 88.36-.189 2.648.95 4.922 3.011 6.824 2.983-30.606 9.073-86.648 9.951-98.594-1.993.926-3.281 2.061-3.467 3.41z" fill="#459499"/><path d="m170.87 160.437c-1.191 14.953-7.298 59.198-11.32 90.676 3.435 2.432 8.522 4.126 14.199 5.065.623-32.292 1.711-88.351 1.847-95.922.178-9.962-3.879-10.463-4.726.181z" fill="#80d6d5"/><path d="m211.671 244.485c-.591-10.231-4.596-82.964-5.058-90.679-.101-1.683-2.107-2.974-5.193-3.88.22 71.207 9.973 99.657-45.652 84.51-.308 3.396-.556 6.343-.721 8.653-1.277 17.877 57.632 18.859 56.624 1.396z" fill="#459499"/><g fill="#2f6470"><path d="m207.567 231.719c-12.515 7.317-34.446 7.339-46.012.049-2.16-1.361-3.85-2.914-5.098-4.638-.288 2.968-.548 5.729-.771 8.228.779.615 1.607 1.206 2.494 1.765 6.77 4.268 16.321 6.403 25.991 6.403 9.62 0 19.358-2.113 26.592-6.342.165-.096.318-.199.48-.298-.122-2.179-.262-4.696-.416-7.461-.963.804-2.029 1.575-3.26 2.294z"/><path d="m207.633 171.92c-.064-1.159-.127-2.284-.188-3.366-12.949 6.138-33.124 5.84-44.529-.874-.131 1.097-.265 2.234-.403 3.403 6.364 3.374 14.705 5.08 23.168 5.08 7.725 0 15.51-1.429 21.952-4.243z"/><path d="m164.543 154.729c-1.303 5.191 7.896 8.093 18.047 8.227 10.58.139 23.406-3.296 24.023-9.15-.462-7.715-40.95-7.203-42.07.923z"/></g><path d="m204.898 154.391c0-16.591-12.572-33.419-19.812-33.419s-20.409 18.046-18.976 35.143c3.196 8.695 37.353 5.991 38.788-1.724z" fill="#f2be6f"/><path d="m204.898 154.391c0-16.006-11.7-32.228-19.026-33.352 2.32 7.203 7.025 21.046 3.923 40.034 7.723-.943 14.482-3.341 15.103-6.682z" fill="#eba95e"/><path d="m204.898 154.391c0-10.848-5.376-21.796-11.121-28.076 13.435 23.361 2.016 40.698-27.76 28.171.017.544.047 1.087.092 1.63 3.197 8.694 37.354 5.99 38.789-1.725z" fill="#e38854"/><path d="m169.866 148.709c.428-12.196 16.725-23.463 13.75-24.552-4.717-1.726-13.971 11.134-14.609 24.432.25.182.474.269.859.12z" fill="#fcd292"/></g><g><ellipse cx="249.391" cy="263.29" fill="#81cacf" rx="31.101" ry="12.637"/><path d="m218.291 259.105h62.201v4.186h-62.201z" fill="#81cacf"/><ellipse cx="249.391" cy="259.105" fill="#9ce8da" rx="31.101" ry="12.636"/><path d="m277.707 256.273c-.591-10.231-4.596-82.964-5.058-90.679-.461-7.715-40.949-7.203-42.07.923-2.082 15.098-8.218 70.482-9.495 88.36-1.278 17.877 57.631 18.859 56.623 1.396z" fill="#5abfbe"/><path d="m230.579 166.517c-2.082 15.098-8.218 70.482-9.495 88.36-.189 2.648.95 4.922 3.011 6.824 2.983-30.606 9.073-86.648 9.951-98.594-1.993.926-3.281 2.061-3.467 3.41z" fill="#459499"/><path d="m236.906 172.225c-1.19 14.953-7.298 59.198-11.32 90.676 3.435 2.432 8.522 4.126 14.199 5.065.623-32.292 1.711-88.351 1.847-95.922.178-9.963-3.878-10.463-4.726.181z" fill="#80d6d5"/><path d="m277.707 256.273c-.591-10.231-4.596-82.964-5.058-90.679-.101-1.683-2.107-2.974-5.193-3.88.22 71.207 9.973 99.657-45.652 84.51-.308 3.396-.556 6.343-.721 8.653-1.277 17.877 57.632 18.859 56.624 1.396z" fill="#459499"/><g fill="#2f6470"><path d="m273.606 243.507c-12.515 7.317-34.448 7.339-46.014.049-2.16-1.362-3.851-2.915-5.099-4.64-.288 2.968-.548 5.73-.772 8.229.779.616 1.607 1.206 2.495 1.766 6.771 4.268 16.322 6.403 25.993 6.401 9.62 0 19.356-2.112 26.592-6.34.164-.096.317-.198.478-.296-.122-2.179-.262-4.697-.416-7.462-.962.804-2.027 1.575-3.257 2.293z"/><path d="m273.669 183.708c-.065-1.16-.127-2.285-.188-3.367-12.95 6.139-33.125 5.84-44.529-.873-.131 1.097-.265 2.234-.403 3.403 6.364 3.374 14.706 5.08 23.168 5.079 7.724-.001 15.509-1.43 21.952-4.242z"/><path d="m230.579 166.517c-1.303 5.191 7.897 8.093 18.047 8.227 10.58.139 23.406-3.296 24.023-9.15-.462-7.715-40.949-7.203-42.07.923z"/></g><path d="m270.934 166.179c0-16.591-12.572-33.419-19.812-33.419s-20.409 18.046-18.976 35.143c3.196 8.694 37.353 5.991 38.788-1.724z" fill="#f2be6f"/><path d="m270.934 166.179c0-16.006-11.7-32.228-19.026-33.352 2.32 7.203 7.025 21.046 3.923 40.034 7.723-.943 14.482-3.341 15.103-6.682z" fill="#eba95e"/><path d="m270.934 166.179c0-10.848-5.376-21.796-11.12-28.076 13.435 23.361 2.016 40.698-27.76 28.171.017.544.047 1.087.092 1.629 3.196 8.694 37.353 5.991 38.788-1.724z" fill="#e38854"/><path d="m235.902 160.496c.428-12.196 16.725-23.463 13.749-24.552-4.717-1.726-13.971 11.134-14.609 24.432.251.182.475.269.86.12z" fill="#fcd292"/></g><g><ellipse cx="317.87" cy="278.846" fill="#81cacf" rx="31.101" ry="12.637"/><path d="m286.769 274.66h62.201v4.186h-62.201z" fill="#81cacf"/><ellipse cx="317.87" cy="274.66" fill="#9ce8da" rx="31.101" ry="12.637"/><path d="m346.185 271.828c-.591-10.231-4.596-82.964-5.058-90.679s-40.949-7.203-42.07.923c-2.082 15.098-8.218 70.483-9.495 88.36s57.632 18.859 56.623 1.396z" fill="#5abfbe"/><path d="m299.058 182.072c-2.082 15.098-8.218 70.483-9.495 88.36-.189 2.648.95 4.922 3.011 6.824 2.983-30.606 9.073-86.648 9.951-98.594-1.994.927-3.281 2.061-3.467 3.41z" fill="#459499"/><path d="m305.385 187.78c-1.191 14.953-7.298 59.198-11.32 90.676 3.435 2.432 8.522 4.126 14.199 5.065.623-32.292 1.711-88.351 1.847-95.922.178-9.962-3.879-10.462-4.726.181z" fill="#80d6d5"/><path d="m346.185 271.828c-.591-10.231-4.596-82.964-5.058-90.679-.101-1.683-2.107-2.974-5.193-3.88.22 71.207 9.973 99.657-45.652 84.51-.308 3.396-.556 6.343-.721 8.653-1.276 17.877 57.633 18.859 56.624 1.396z" fill="#459499"/><g fill="#2f6470"><path d="m342.082 259.062c-12.515 7.314-34.446 7.338-46.012.049-2.16-1.362-3.85-2.915-5.098-4.639-.289 2.968-.548 5.729-.772 8.229.779.615 1.607 1.206 2.494 1.765 6.771 4.268 16.321 6.403 25.993 6.403 9.618 0 19.356-2.113 26.59-6.342.165-.096.319-.199.48-.298-.122-2.179-.262-4.696-.416-7.461-.962.804-2.028 1.575-3.259 2.294z"/><path d="m342.148 199.263c-.065-1.159-.127-2.284-.188-3.366-12.951 6.138-33.123 5.841-44.529-.874-.131 1.097-.266 2.234-.403 3.403 6.364 3.374 14.705 5.08 23.168 5.08 7.725-.001 15.51-1.43 21.952-4.243z"/><path d="m299.058 182.072c-1.303 5.191 7.897 8.093 18.047 8.227 10.58.139 23.406-3.296 24.023-9.15-.462-7.715-40.95-7.203-42.07.923z"/></g><path d="m339.413 181.734c0-16.591-12.572-33.419-19.812-33.419s-20.409 18.046-18.976 35.143c3.195 8.695 37.353 5.991 38.788-1.724z" fill="#f2be6f"/><path d="m339.413 181.734c0-16.006-11.7-32.228-19.026-33.352 2.319 7.203 7.025 21.046 3.923 40.034 7.722-.943 14.481-3.341 15.103-6.682z" fill="#eba95e"/><path d="m339.413 181.734c0-10.848-5.375-21.796-11.12-28.076 13.435 23.361 2.015 40.698-27.76 28.17.017.544.047 1.087.092 1.629 3.195 8.696 37.353 5.992 38.788-1.723z" fill="#e38854"/><path d="m304.38 176.052c.428-12.196 16.725-23.463 13.75-24.552-4.717-1.726-13.971 11.134-14.609 24.432.251.182.475.269.859.12z" fill="#fcd292"/></g><g><ellipse cx="138.586" cy="286.54" fill="#81cacf" rx="31.101" ry="12.636"/><path d="m107.486 282.354h62.201v4.186h-62.201z" fill="#81cacf"/><ellipse cx="138.586" cy="282.354" fill="#9ce8da" rx="31.101" ry="12.637"/><path d="m166.902 279.522c-.591-10.231-4.596-82.964-5.058-90.679s-40.949-7.203-42.07.923c-2.082 15.098-8.218 70.483-9.495 88.36-1.278 17.878 57.631 18.859 56.623 1.396z" fill="#5abfbe"/><path d="m119.774 189.766c-2.082 15.098-8.218 70.483-9.495 88.36-.189 2.648.95 4.922 3.011 6.824 2.983-30.606 9.073-86.649 9.951-98.594-1.993.927-3.281 2.061-3.467 3.41z" fill="#459499"/><path d="m126.101 195.474c-1.191 14.953-7.298 59.198-11.32 90.676 3.435 2.432 8.522 4.126 14.199 5.065.623-32.292 1.711-88.351 1.847-95.922.178-9.962-3.878-10.462-4.726.181z" fill="#80d6d5"/><path d="m166.902 279.522c-.591-10.231-4.596-82.964-5.058-90.679-.101-1.683-2.107-2.974-5.193-3.88.22 71.207 9.973 99.657-45.652 84.509-.308 3.396-.556 6.343-.721 8.654-1.277 17.878 57.632 18.859 56.624 1.396z" fill="#459499"/><g fill="#2f6470"><path d="m162.799 266.756c-12.515 7.317-34.446 7.339-46.012.049-2.16-1.361-3.85-2.914-5.098-4.638-.288 2.968-.548 5.729-.772 8.228.779.615 1.607 1.206 2.494 1.765 6.77 4.268 16.321 6.403 25.991 6.403 9.62 0 19.358-2.113 26.592-6.342.165-.096.319-.199.48-.298-.122-2.179-.262-4.696-.416-7.461-.963.804-2.029 1.575-3.259 2.294z"/><path d="m162.864 206.957c-.064-1.159-.127-2.284-.188-3.366-12.949 6.138-33.123 5.841-44.529-.874-.131 1.097-.265 2.234-.403 3.403 6.364 3.374 14.705 5.08 23.168 5.08 7.725 0 15.51-1.429 21.952-4.243z"/><path d="m119.774 189.766c-1.303 5.191 7.897 8.093 18.047 8.227 10.58.139 23.406-3.296 24.023-9.15-.462-7.715-40.949-7.203-42.07.923z"/></g><path d="m160.129 189.428c0-16.591-12.572-33.419-19.812-33.419s-20.409 18.045-18.976 35.143c3.196 8.695 37.353 5.991 38.788-1.724z" fill="#f2be6f"/><path d="m160.129 189.428c0-16.006-11.7-32.228-19.026-33.352 2.32 7.203 7.025 21.046 3.923 40.034 7.723-.943 14.482-3.341 15.103-6.682z" fill="#eba95e"/><path d="m160.129 189.428c0-10.848-5.376-21.796-11.121-28.077 13.435 23.361 2.016 40.698-27.76 28.171.017.544.047 1.087.092 1.63 3.197 8.695 37.354 5.991 38.789-1.724z" fill="#e38854"/><path d="m125.097 183.746c.428-12.196 16.725-23.463 13.749-24.552-4.717-1.726-13.971 11.134-14.609 24.432.251.182.475.269.86.12z" fill="#fcd292"/></g><g><ellipse cx="204.622" cy="298.327" fill="#81cacf" rx="31.101" ry="12.637"/><path d="m173.522 294.142h62.201v4.186h-62.201z" fill="#81cacf"/><ellipse cx="204.622" cy="294.142" fill="#9ce8da" rx="31.101" ry="12.636"/><path d="m232.938 291.31c-.591-10.231-4.596-82.964-5.058-90.679s-40.949-7.203-42.07.923c-2.082 15.098-8.218 70.483-9.495 88.36-1.278 17.877 57.631 18.859 56.623 1.396z" fill="#5abfbe"/><path d="m185.81 201.554c-2.082 15.098-8.218 70.483-9.495 88.36-.189 2.648.95 4.922 3.011 6.824 2.983-30.606 9.073-86.648 9.951-98.594-1.993.926-3.281 2.061-3.467 3.41z" fill="#459499"/><path d="m192.137 207.262c-1.191 14.953-7.298 59.198-11.32 90.676 3.435 2.432 8.522 4.126 14.199 5.065.623-32.292 1.711-88.351 1.847-95.922.178-9.963-3.878-10.463-4.726.181z" fill="#80d6d5"/><path d="m232.938 291.31c-.591-10.231-4.596-82.964-5.058-90.679-.101-1.683-2.107-2.974-5.193-3.88.22 71.207 9.973 99.657-45.652 84.51-.308 3.396-.556 6.343-.721 8.653-1.277 17.877 57.632 18.859 56.624 1.396z" fill="#459499"/><g fill="#2f6470"><path d="m228.837 278.545c-12.515 7.317-34.448 7.339-46.014.049-2.16-1.362-3.851-2.915-5.099-4.64-.288 2.968-.548 5.73-.772 8.23.779.616 1.607 1.206 2.495 1.766 6.77 4.268 16.322 6.403 25.993 6.402 9.62 0 19.356-2.112 26.591-6.34.164-.096.317-.198.478-.296-.122-2.179-.262-4.697-.416-7.462-.961.801-2.026 1.572-3.256 2.291z"/><path d="m228.9 218.745c-.065-1.16-.127-2.285-.188-3.367-12.95 6.139-33.12 5.84-44.529-.873-.131 1.096-.265 2.233-.403 3.402 6.363 3.374 14.705 5.079 23.168 5.079 7.725.001 15.509-1.428 21.952-4.241z"/><path d="m185.81 201.554c-1.303 5.191 7.896 8.093 18.047 8.227 10.58.139 23.406-3.296 24.023-9.15-.462-7.715-40.949-7.203-42.07.923z"/></g><path d="m226.165 201.216c0-16.591-12.572-33.419-19.812-33.419s-20.409 18.045-18.976 35.143c3.196 8.694 37.353 5.991 38.788-1.724z" fill="#f2be6f"/><path d="m226.165 201.216c0-16.006-11.7-32.228-19.026-33.352 2.32 7.203 7.025 21.046 3.923 40.034 7.723-.943 14.482-3.341 15.103-6.682z" fill="#eba95e"/><path d="m226.165 201.216c0-10.848-5.376-21.796-11.121-28.077 13.435 23.361 2.016 40.698-27.76 28.171.017.544.047 1.087.092 1.629 3.197 8.695 37.354 5.992 38.789-1.723z" fill="#e38854"/><path d="m191.133 195.533c.428-12.196 16.725-23.463 13.75-24.552-4.717-1.726-13.971 11.134-14.609 24.432.251.183.474.269.859.12z" fill="#fcd292"/></g><g><ellipse cx="273.101" cy="313.883" fill="#81cacf" rx="31.101" ry="12.636"/><path d="m242 309.697h62.201v4.186h-62.201z" fill="#81cacf"/><ellipse cx="273.101" cy="309.697" fill="#9ce8da" rx="31.101" ry="12.637"/><path d="m301.417 306.865c-.591-10.231-4.596-82.964-5.058-90.679s-40.949-7.203-42.07.923c-2.082 15.098-8.218 70.482-9.495 88.36-1.278 17.877 57.631 18.859 56.623 1.396z" fill="#5abfbe"/><path d="m254.289 217.109c-2.082 15.098-8.218 70.482-9.495 88.36-.189 2.648.95 4.922 3.011 6.824 2.983-30.606 9.073-86.648 9.951-98.594-1.994.927-3.281 2.061-3.467 3.41z" fill="#459499"/><path d="m260.616 222.817c-1.19 14.953-7.298 59.198-11.32 90.677 3.435 2.432 8.522 4.126 14.199 5.065.623-32.292 1.711-88.351 1.847-95.922.178-9.963-3.879-10.463-4.726.18z" fill="#80d6d5"/><path d="m301.417 306.865c-.591-10.231-4.596-82.964-5.058-90.679-.101-1.683-2.107-2.974-5.193-3.88.22 71.207 9.973 99.657-45.652 84.51-.308 3.396-.556 6.343-.721 8.654-1.277 17.876 57.632 18.858 56.624 1.395z" fill="#459499"/><g fill="#2f6470"><path d="m297.313 294.1c-12.516 7.314-34.446 7.338-46.012.049-2.16-1.362-3.85-2.915-5.098-4.639-.288 2.968-.548 5.73-.772 8.229.779.615 1.607 1.206 2.494 1.765 6.771 4.268 16.321 6.403 25.993 6.403 9.618 0 19.356-2.113 26.59-6.342.165-.096.319-.199.48-.298-.122-2.179-.262-4.696-.416-7.461-.962.803-2.028 1.574-3.259 2.294z"/><path d="m297.379 234.3c-.065-1.16-.127-2.285-.188-3.367-12.951 6.141-33.123 5.842-44.529-.872-.131 1.097-.266 2.234-.403 3.403 6.364 3.374 14.705 5.08 23.168 5.078 7.723-.001 15.509-1.43 21.952-4.242z"/><path d="m254.289 217.109c-1.303 5.191 7.897 8.093 18.047 8.227 10.58.139 23.406-3.296 24.023-9.15-.462-7.715-40.95-7.203-42.07.923z"/></g><path d="m294.644 216.771c0-16.591-12.572-33.419-19.812-33.419s-20.409 18.045-18.976 35.143c3.196 8.695 37.353 5.991 38.788-1.724z" fill="#f2be6f"/><path d="m294.644 216.771c0-16.006-11.7-32.228-19.026-33.352 2.319 7.203 7.025 21.046 3.923 40.034 7.722-.943 14.481-3.341 15.103-6.682z" fill="#eba95e"/><path d="m294.644 216.771c0-10.848-5.376-21.796-11.121-28.076 13.435 23.361 2.016 40.698-27.76 28.17.017.544.047 1.087.092 1.63 3.197 8.695 37.354 5.991 38.789-1.724z" fill="#e38854"/><path d="m259.611 211.089c.428-12.196 16.725-23.463 13.75-24.552-4.717-1.726-13.971 11.134-14.609 24.432.251.182.475.269.859.12z" fill="#fcd292"/></g><g><path d="m26.238 345.958 113.924 25.642.786-34.913-122.241-19.806z" fill="#8a4721"/><path d="m39.904 349.034 2.757.62-.196-28.924-2.65-.429z" fill="#6e3617"/><path d="m116.672 366.313 3.758.846-.228-33.834-3.229-.523z" fill="#6e3617"/><path d="m80.031 297.307-61.324 19.574 122.241 19.806 49.329-25.546z" fill="#a36634"/><path d="m39.165 320.196 3.301.534 54.133-21.344-6.827-.857z" fill="#964d29"/><path d="m114.133 332.342 6.069.983 46.632-25.126-5.541-.696z" fill="#964d29"/><path d="m41.3 319.247-9.659-1.82 55.129-19.569 5.087.611z" fill="#a9c9cc"/><path d="m40.14 349.759-4.287-.858-4.212-31.474 9.659 1.82z" fill="#8098a6"/><path d="m117.591 367.713-4.287-.859-4.212-36.31 9.844 1.796z" fill="#8098a6"/><path d="m118.936 332.34-9.844-1.796 49.438-23.638 5.085.612z" fill="#a9c9cc"/><path d="m140.162 371.6 46.381-26.129 3.734-34.33-49.329 25.546z" fill="#732f1c"/><path d="m79.828 341.37h-30.763l-3.193-9.743h30.763z" fill="#546d75"/><path d="m104.492 349.128-13.567-8.031 4.538-8.032 12.911 6.052z" fill="#8cd138"/></g><path d="m317.809 209.329c-4.262-4.501-7.889-9.6-7.363-13.541.698-5.234 6.265-25.845 19.781-8.497-10.288-29.452-48.469-5.517-36.736 20.478 1.983 4.394 4.673 8.053 7.366 10.972 8.794-.989 13.635-3.509 16.952-9.412z" fill="#c00"/><path d="m387.362 209.942c7.978-3.665 15.436-8.451 16.827-13.909 1.846-7.247 5.413-37.274-21.509-21.611 29.072-33.274 66.612 18.343 37.466 46.31-4.927 4.728-10.394 8.115-15.474 10.529-11.035-5.943-16.068-11.81-17.31-21.319z" fill="#c00"/><g><g><path d="m295.296 346.287c-11.491-6.882-111.649-64.833-124.811-58.842s-19.114 84.821-13.857 93.143c7.487 7.512 24.932 11.469 43.403 14.606 10.733 1.235 49.798-3.148 72.425-12.416 15.602-6.39 28.117-33.331 22.84-36.491z" fill="#496085"/><path d="m180.093 350.078-13.071-6.157-.425-4.101-10.214-4.26c-.054.507-.108 1.015-.16 1.521l9.007 3.757.419 4.056 14.619 6.885 4.466-3.355 10.403 2.908.394-1.412-11.1-3.103z" fill="#333e66"/><path d="m179.711 368.03-13.379-5.458-.641-4.069-10.757-3.833c-.022.516-.041 1.027-.06 1.534l9.503 3.386.635 4.028 14.964 6.104 4.28-3.589 10.543 2.353.318-1.431-11.249-2.51z" fill="#333e66"/><path d="m177.356 384.462-13.579-4.942-.794-4.027-7.966-2.815c.043.557.09 1.095.143 1.606l6.547 2.313.791 4.017 15.186 5.528 4.134-3.741 16.962 3.513.296-1.437-17.69-3.664z" fill="#333e66"/><path d="m210.64 390.08c7.927.623 46.455-1.734 61.925-8.572 15.68-6.931 27.833-31.779 20.904-35.484-23.658-12.652-70.428-41.842-83.542-39.785-15.137 2.373-19.096 31.984-13.846 67.194 3.027 20.297 6.632 16.025 14.559 16.647z" fill="#333f5e"/><g fill="#425078"><path d="m211.3 391.015 1.184-17.111-5.306-3.535-9.94 9.703 4.614 9.246z"/><path d="m249.724 388.271-7.918-8.752-2.95.65-3.428 9.453z"/><path d="m233.731 389.822-9.214-10.184-3.432.756-3.99 11z"/><path d="m194.914 348.492 11.533 7.456-.194 3.509-10.215 5.707z"/><path d="m262.194 385.22-7.587-6.183-2.336.903-1.627 8.178z"/><path d="m271.513 382.758-6.053-5.037-1.888.707-1.376 6.567z"/><path d="m281.875 375.23-7.556-2.218-1.452 1.398 1.346 6.573z"/><path d="m288.863 366.9-6.701.011-.847 1.491 2.682 5.04z"/><path d="m293.767 357.097-5.534 1.665-.331 1.441 3.461 3.501z"/><path d="m294.546 348.335-3.718 3.263.253 1.24 3.94 1.498z"/></g><path d="m294.839 346.115c-14.336-9.243-75.518-48.092-87.184-41.385-15.966 9.178-20.068 35.47-11.561 79.938 1.869 9.768 13.133 8.471 23.075 7.384 9.5-1.039 40.841-2.17 55.123-9.928 15.514-8.427 26.56-32.132 20.547-36.009zm-23.437 34.955c-14.553 7.263-55.638 9.626-65.634 7.817-7.027-1.272-9.413-27.182-9.64-49.724-.212-21.039 10.651-35.3 23.528-30.45 14.277 5.377 49.786 22.823 73.244 38.332 3.53 2.334-1.026 23.809-21.498 34.025z" fill="#5873a1"/><path d="m287.715 361.073c-3.312 6.859-9.323 10.814-13.427 8.832-4.104-1.981-4.747-9.148-1.435-16.007s9.323-10.814 13.427-8.832c4.105 1.981 4.747 9.147 1.435 16.007z" fill="#6694ba"/><path d="m268.974 369.911c-5.046 10.453-14.207 16.478-20.461 13.459s-7.233-13.94-2.187-24.393 14.207-16.478 20.461-13.459 7.233 13.94 2.187 24.393z" fill="#6694ba"/><ellipse cx="233.193" cy="358.027" fill="#6694ba" rx="26.859" ry="16.071" transform="matrix(.352 -.936 .936 .352 -184.045 450.081)"/><ellipse cx="213.319" cy="335.607" fill="#6694ba" rx="24.794" ry="14.835" transform="matrix(.352 -.936 .936 .352 -175.934 416.965)"/><path d="m277.05 344.982c-.795 2.11-2.74 3.33-4.346 2.726-1.606-.605-2.263-2.805-1.468-4.915s2.74-3.33 4.346-2.726c1.605.604 2.262 2.804 1.468 4.915z" fill="#425078"/><path d="m240.531 326.738c-1.13 3-3.897 4.736-6.18 3.876s-3.218-3.989-2.088-6.99 3.897-4.736 6.18-3.876 3.218 3.989 2.088 6.99z" fill="#425078"/><path d="m261.27 339.724c-1.138 3.023-3.926 4.772-6.226 3.905-2.3-.866-3.242-4.019-2.104-7.042 1.139-3.023 3.926-4.772 6.227-3.905 2.3.866 3.242 4.019 2.103 7.042z" fill="#425078"/><path d="m223.28 339.358c-2.881 7.651-8.928 12.456-13.506 10.732s-5.953-9.324-3.072-16.975 8.928-12.456 13.506-10.732 5.954 9.324 3.072 16.975z" fill="#4b6396"/><path d="m222.149 338.932c-2.488 6.606-7.709 10.755-11.662 9.267-3.953-1.489-5.14-8.051-2.652-14.657s7.709-10.755 11.662-9.267c3.952 1.489 5.139 8.051 2.652 14.657z" fill="#7fc3de"/><path d="m266.913 367.135c-2.575 6.837-7.978 11.13-12.068 9.59-4.091-1.541-5.319-8.331-2.745-15.168s7.978-11.13 12.068-9.59c4.09 1.541 5.319 8.332 2.745 15.168z" fill="#4b6396"/><ellipse cx="259.506" cy="364.346" fill="#7fc3de" rx="11.421" ry="6.833" transform="matrix(.352 -.936 .936 .352 -172.92 478.798)"/><path d="m285.919 360.358c-1.978 4.081-5.56 6.43-8.001 5.246-2.442-1.183-2.818-5.45-.84-9.531 1.977-4.081 5.56-6.43 8.001-5.246 2.441 1.183 2.817 5.45.84 9.531z" fill="#4b6396"/><path d="m285.315 360.066c-1.707 3.523-4.801 5.551-6.909 4.53-2.108-1.022-2.433-4.706-.725-8.229 1.707-3.523 4.801-5.551 6.909-4.53s2.433 4.705.725 8.229z" fill="#7fc3de"/><path d="m245.466 361.806c-3.266 8.673-10.12 14.119-15.309 12.165s-6.748-10.569-3.482-19.241c3.266-8.673 10.12-14.119 15.309-12.165s6.748 10.568 3.482 19.241z" fill="#4b6396"/><path d="m244.183 361.322c-2.82 7.488-8.738 12.191-13.218 10.504s-5.826-9.125-3.007-16.614c2.82-7.488 8.738-12.191 13.218-10.504 4.481 1.688 5.827 9.126 3.007 16.614z" fill="#7fc3de"/></g><path d="m232.931 331.063 17.025-44.276-34.993 2.981-14.535 60.204z" fill="#206e37"/><path d="m214.085 328.527 11.963-41.112-29.931-.184-14.535 60.204z" fill="#3ba64b"/><path d="m214.085 328.527 11.072-38.051-29.966 12.047-9.903 42.757z" fill="#2b8a44"/><path d="m194.532 284.835-40.197 2.14-19.204 54.301 46.451 6.159 14.535-60.204 29.931.184z" fill="#5acc5f"/><path d="m194.532 284.835-40.197 2.14-19.204 54.301 21.954-53.042 39.032-1.003-37.548.206z" fill="#8be68a"/><path d="m287.493 366.464c12.362-2.784 14.327-22.506 9.599-30.177-16.544-26.845-70.536 14.188-75.064 14.443-3.229.182-1.66 2.087-1.072 2.061 23.053-1.018 44.45 18.648 66.537 13.673z" fill="#689c23"/><path d="m346.82 398.582 107.839-37.51 8.934-42.241-112.254.97-28.355 62.093z" fill="#215710"/><path d="m347.389 389.059 102.244-37.555 1.27-24.819-97.163 11.105-19.617 40.109z" fill="#103313"/><path d="m346.82 398.582-23.836-16.688-141.507-17.412 23.836 16.689z" fill="#306313"/><path d="m248.557 285.167-49.639 20.518-2.854 9.622 151.801 12.102 3.474-7.608 31.136-22.231z" fill="#689c23"/><path d="m287.154 307.049-.37-.033-42.374-3.696 22.083-13.24 34.761 3.059zm-37.643-4.904 37.042 3.231 11.084-10.934-30.762-2.706z" fill="#89bf2b"/><path d="m364.258 312.868-2.053-7.474-51.73-2.466-5.504 4.789z" fill="#235229"/><path d="m310.974 304.029 52.229 3.157-.998-1.792-51.73-2.466-5.504 4.789z" fill="#89bf2b"/><path d="m181.477 364.483 141.507 17.411 28.355-62.093 1.539-1.098-.089-1.971-153.871-11.047z" fill="#4a801d"/><path d="m203.546 370.809-1.614-3.81 2.098-9.148-1.126-.781-6.086 8.856 5.374 6.404z" fill="#8bb8a3"/><path d="m202.192 372.33-2.886-6.338 3.598-8.922-9.761-.295-3.715 8.215 4.616 5.456z" fill="#7ea693"/><path d="m310.663 383.975-1.615-3.81 2.098-9.149-1.126-.78-6.085 8.856 5.373 6.404z" fill="#8bb8a3"/><path d="m309.308 385.496-2.886-6.339 3.598-8.921-9.761-.295-3.715 8.214 4.616 5.457z" fill="#7ea693"/><path d="m382.475 297.57 1.828-9.957-139.304-14.775 3.558 12.329z" fill="#4a801d"/><path d="m384.303 287.613 46.58-4.773-101.694-11.906-84.19 1.904z" fill="#3f6e19"/><path d="m429.055 292.797 1.828-9.957-46.58 4.773-1.828 9.957z" fill="#306313"/><path d="m463.593 318.831-34.538-26.034-46.58 4.773-31.136 22.231z" fill="#588f1e"/><path d="m446.614 302.454-26.004 2.977-.317 1.678 25.542-1.664z" fill="#69ab24"/><path d="m437.479 295.287-26.003 2.977-.318 1.678 25.543-1.664z" fill="#69ab24"/><path d="m498.45 337.605-7.82-19.045-10.755.371 3.867 18.583z" fill="#1d6131"/><g><path d="m480.43 365.374c13.667-12.549 16.308-45.132 9.656-46.381-14.487-2.72-139.982-24.329-151.282-13.124s12.629 94.847 21.229 101.432c10.594 4.897 30.111 2.328 50.374-1.481 11.549-2.82 50.202-22.248 70.023-40.446z" fill="#496085"/><path d="m375.848 361.835-3.232 5.021-15.842-1.37-2.003-4.069-12.17-.502c.138.545.276 1.09.416 1.633l10.73.442 1.981 4.025 17.717 1.533 3.33-5.169 11.847-.969-.132-1.607z" fill="#333e66"/><path d="m382.032 380.35-2.963 5.185-15.892-.531-2.217-3.957-12.564.148c.174.542.349 1.076.524 1.608l11.1-.129 2.192 3.913 17.774.594 3.051-5.338 11.78-1.593-.218-1.598z" fill="#333e66"/><path d="m385.672 398.089-2.767 5.303-15.902.079-2.354-3.855-9.297.135c.257.558.51 1.096.759 1.603l7.639-.111 2.351 3.845 17.784-.088 2.84-5.439 18.847-2.845-.24-1.595z" fill="#333e66"/><path d="m419.407 396.494c8.42-2.382 47.291-19.512 60.651-32.473 13.541-13.136 16.607-43.421 8.041-44.603-29.247-4.034-88.661-16.323-101.413-9.197-14.72 8.225-7.51 40.3 11.342 74.642 10.868 19.798 12.959 14.012 21.379 11.631z" fill="#333f5e"/><g fill="#425078"><path d="m420.445 397.207-5.306-18.115-6.825-1.624-6.56 13.808 8.291 7.784z"/><path d="m459.06 379.716-11.512-6.013-2.796 1.796.067 11.065z"/><path d="m443.143 387.418-13.396-6.997-3.254 2.09.078 12.877z"/><path d="m387.308 359.565 14.75 3.296 1.138 3.696-8.367 9.788z"/><path d="m470.769 371.809-10.191-3.487-2.067 1.823 1.441 9.062z"/><path d="m479.449 365.713-8.171-2.89-1.678 1.45 1.085 7.303z"/><path d="m487.273 353.989-8.646.593-.965 1.997 3.896 6.272z"/><path d="m491.308 342.725-6.913 2.567-.306 1.863 4.692 4.179z"/><path d="m492.631 330.735-5.077 3.829.207 1.615 4.909 2.293z"/><path d="m490.092 321.394-2.594 4.786.735 1.183 4.638.043z"/></g><path d="m489.547 318.99c-18.324-4.072-100.926-16.536-105.783-9.459-11.466 16.71-7.183 44.269 18.563 86.925 5.655 9.37 16.788 3.734 26.636-1.181 9.41-4.697 41.329-17.82 53.113-31.277 12.799-14.617 15.157-43.3 7.471-45.008zm-10.856 45.023c-12.251 13.049-53.76 31.162-64.768 33.108-7.739 1.368-20.086-24.467-28.921-47.649-8.245-21.636-2.473-40.501 12.67-40.408 16.788.103 60.097 4.566 90.228 11.626 4.535 1.062 8.024 24.968-9.209 43.323z" fill="#5873a1"/><ellipse cx="478.861" cy="336.279" fill="#6694ba" rx="15.177" ry="9.081" transform="matrix(.096 -.995 .995 .096 98.331 780.788)"/><path d="m471.926 353.42c-1.221 12.715-8.379 22.43-15.986 21.699s-12.784-11.631-11.563-24.345c1.221-12.715 8.379-22.43 15.986-21.699 7.608.731 12.785 11.631 11.563 24.345z" fill="#6694ba"/><ellipse cx="430.459" cy="354.803" fill="#6694ba" rx="29.558" ry="17.685" transform="matrix(.006 -1 1 .006 73.017 783.073)"/><ellipse cx="401.391" cy="339.243" fill="#6694ba" rx="27.285" ry="16.325" transform="matrix(.006 -1 1 .006 59.687 738.541)"/><path d="m470.752 324.607c-.015 2.481-1.558 4.483-3.446 4.472-1.888-.012-3.406-2.033-3.391-4.514s1.558-4.483 3.446-4.472 3.406 2.032 3.391 4.514z" fill="#425078"/><path d="m426.096 319.706c-.022 3.528-2.216 6.375-4.9 6.359-2.685-.016-4.844-2.89-4.822-6.418s2.216-6.375 4.9-6.359c2.685.017 4.844 2.89 4.822 6.418z" fill="#425078"/><path d="m452.458 325.199c-.022 3.555-2.232 6.423-4.937 6.407-2.705-.017-4.88-2.912-4.858-6.467s2.232-6.423 4.937-6.407c2.705.017 4.88 2.912 4.858 6.467z" fill="#425078"/><path d="m413.105 339.315c-.055 8.997-4.464 16.264-9.847 16.23-5.383-.033-9.702-7.353-9.647-16.35s4.464-16.264 9.847-16.23c5.383.032 9.702 7.353 9.647 16.35z" fill="#4b6396"/><ellipse cx="403.358" cy="339.255" fill="#7fc3de" rx="14.066" ry="8.416" transform="matrix(.006 -1 1 .006 61.631 740.52)"/><ellipse cx="460.031" cy="351.288" fill="#4b6396" rx="14.556" ry="8.709" transform="matrix(.006 -1 1 .006 105.923 809.152)"/><path d="m467.551 351.334c-.043 6.941-3.444 12.548-7.597 12.522-4.153-.025-7.485-5.673-7.443-12.615.043-6.941 3.444-12.548 7.597-12.522s7.486 5.674 7.443 12.615z" fill="#7fc3de"/><path d="m485.773 337.095c-.484 4.967-3.286 8.758-6.258 8.468s-4.988-4.551-4.503-9.518c.484-4.967 3.286-8.758 6.258-8.468s4.988 4.552 4.503 9.518z" fill="#4b6396"/><path d="m485.039 337.023c-.418 4.288-2.837 7.562-5.403 7.312s-4.307-3.93-3.888-8.218c.418-4.288 2.837-7.562 5.403-7.312 2.565.251 4.306 3.93 3.888 8.218z" fill="#7fc3de"/><path d="m444.569 354.022c-.063 10.198-5.06 18.435-11.162 18.397-6.102-.037-10.997-8.335-10.935-18.533.063-10.198 5.06-18.435 11.162-18.397s10.998 8.335 10.935 18.533z" fill="#4b6396"/><ellipse cx="433.521" cy="353.954" fill="#7fc3de" rx="15.944" ry="9.54" transform="matrix(.006 -1 1 .006 76.91 785.292)"/></g><path d="m367.972 273.957c-6.993-38.999 17.07-74.848 28.874-81.562l.797 1.403c-9.275 5.276-35.351 39.333-28.082 79.876z" fill="#545775"/><path d="m400.406 195.844c-3.098 1.764-6.437 1.741-7.456-.05s.666-4.673 3.764-6.437 6.437-1.741 7.456.05c1.019 1.792-.666 4.674-3.764 6.437z" fill="#545775"/><path d="m401.521 308.935 86.115 12.755-.736-4.161-83.695-12.345z" fill="#2a8243"/><path d="m444.565 317.437-7.395-10.521-7.817-.048-.013 2.171 3.95.582 4.206 5.747z" fill="#5acc5f"/><g fill="#3ba64b"><path d="m381.449 357.653 11.612-46.182 10.869-.027 3.775-8.087-22.27-.905-9.988 56.812z"/><path d="m444.565 317.437 21.756 1.94 3.446-7.383-32.597-5.078z"/><path d="m496.231 336.98-6.521-14.144-5.763-.704-1.24-5.879 9.684.402 6.059 20.95z"/></g><path d="m375.447 359.264 9.988-56.812 22.27.905-35.167-5.191-30.456-.844-25.969 56.778z" fill="#5acc5f"/><path d="m375.447 359.264 9.988-56.812 22.27.905-25.253-2.104-40.37-3.931 38.896 6.141z" fill="#8be68a"/><g><path d="m361.077 220.924-36.6-2.183-21.068 1.91-39.239 22.09 5.597 31.1 113.671 11.882 31.906-3.999 12.248-23.527-37.124-31.832z" fill="#689c23"/><path d="m361.077 220.924-36.6-2.183-21.068 1.91-39.239 22.09 122.014 15.637z" fill="#75b027"/><path d="m328.421 221.699 32.644 1.151 29.403 3.515-29.391-5.441-36.6-2.183-21.068 1.91-39.239 22.09 40.603-19.132z" fill="#96c72c"/><path d="m415.344 281.724 12.248-23.527-37.124-31.832 24.661 30.341-8.359 18.727-22.423 5.057-114.58-6.649 113.671 11.882z" fill="#4a8a17"/><g fill="#3b7a18"><path d="m426.773 259.77-24.06 5.117 1.075 3.377 18.504.114z"/><path d="m419.805 273.155-18.073 1.463-.57 3.509 15.827.438z"/></g></g><path d="m413.496 237.129-2.1-3.295-18.838-.633-1.772 2.173-.043 6.974.83 1.182 2.254-.255 1.184-4.326 1.966-2.261 11.709.444.432.941-.853 3.552 2.758 2.365z" fill="#89b32d"/><path d="m328.232 252.504c-.979-3.973-10.886-4.653-12.96-.297s-8.352 25.518-8.352 25.518l23.264 2.432s-.973-23.68-1.952-27.653z" fill="#103d0a"/><path d="m316.883 248.556c-2.083 7.35-9.517 11.68-16.603 9.671s-11.142-9.595-9.058-16.945c2.083-7.35 9.517-11.679 16.603-9.671 7.086 2.009 11.141 9.595 9.058 16.945z" fill="#427517"/><path d="m308.551 235.516c-5.806-2.083-12.267 1.118-14.431 7.149s.788 12.609 6.594 14.693c5.806 2.083 12.267-1.118 14.431-7.149 2.164-6.032-.788-12.61-6.594-14.693z" fill="#fffee3"/><path d="m309.913 240.343c-4.055-1.455-8.6.875-10.153 5.203s.475 9.016 4.53 10.471 8.6-.875 10.153-5.203c1.552-4.328-.476-9.016-4.53-10.471z" fill="#25769c"/><path d="m300.517 258.456c-8.68-2.138-10.09-9.524-9.872-13.405 8.247 8.123 17.792 10.215 22.562 9.939-.601 1.204-5.108 5.334-12.69 3.466z" fill="#89b32d"/><g><path d="m319.297 252.69c-10.548-1.159-120.605-15.726-120.605-15.726l-4.059 31.3s115.325 3.949 124.44 4.396c10.923.536 13.193-18.545.224-19.97z" fill="#97abc2"/><path d="m311.468 256.57c3.055.15 2.877-2.785-.75-3.184-2.95-.324-89.535-11.358-89.535-11.358l4.186 5.111s83.55 9.306 86.099 9.431z" fill="#a1bdcf"/><path d="m319.297 252.69c-.346-.038-.806-.091-1.359-.157 9.879 4.818 5.982 16.665-1.303 16.711-22.105.137-48.801-1.042-99.054-3.702 4.898-12.018 1.239-22.17-2.826-26.454-9.743-1.286-16.063-2.123-16.063-2.123l-4.059 31.3s115.325 3.949 124.44 4.396c10.923.535 13.193-18.546.224-19.971z" fill="#7186a6"/></g><path d="m365.861 219.877c-5.634-5.733-44.426-13.14-31.019 11.384 6.517-4.401 15.965-13.574 31.019-11.384z" fill="#175924"/><path d="m289.388 229.077c15.188.865 22.61 11.743 28.114 17.36 18.042-21.347-21.448-21.85-28.114-17.36z" fill="#175924"/><ellipse cx="346.842" cy="249.799" fill="#427517" rx="16.978" ry="17.609" transform="matrix(.995 -.097 .097 .995 -22.682 34.971)"/><path d="m347.803 236.563c-7.849.23-14.018 7.027-13.779 15.181s6.796 14.578 14.645 14.348 14.018-7.027 13.779-15.181c-.24-8.154-6.796-14.578-14.645-14.348z" fill="#fffee3"/><path d="m349.327 242.519c-5.482.161-9.786 5.035-9.615 10.886s4.754 10.465 10.236 10.304 9.786-5.035 9.615-10.886c-.172-5.851-4.755-10.465-10.236-10.304z" fill="#25769c"/><path d="m348.945 267.486c-11.281 1.501-16.385-6.597-17.932-11.298 13.55 5.793 25.836 3.836 31.36 1.291-.152 1.707-3.574 8.697-13.428 10.007z" fill="#89b32d"/><g><path d="m198.055 271.925c19.513-.478 23.854-33.762 4.493-38.646-19.672-4.962-53.261-12.681-53.261-12.681l-4.007 53.199c14.309-.262 31.186-1.343 52.775-1.872z" fill="#57566e"/><ellipse cx="144.363" cy="246.982" fill="#6c6e8a" rx="26.837" ry="26.837" transform="matrix(.914 -.407 .407 .914 -87.951 80.036)"/><path d="m119.214 248.134c.09-14.651 12.041-26.456 26.692-26.366 8.156.05 15.423 3.783 20.254 9.604-4.837-6.742-12.7-11.171-21.632-11.226-14.821-.091-26.91 11.85-27.001 26.671-.059 9.608 4.955 18.043 12.515 22.831-6.602-4.863-10.882-12.687-10.828-21.514z" fill="#8c91b0"/><g fill="#272633"><ellipse cx="144.363" cy="246.982" rx="17.015" ry="17.015" transform="matrix(.362 -.932 .932 .362 -138.11 292.258)"/><path d="m201.349 251.046c-.407 3.915-5.455 6.599-11.274 5.994s-10.207-4.27-9.799-8.185c.407-3.915 5.455-6.599 11.274-5.994s10.206 4.27 9.799 8.185z"/></g></g><path d="m363.77 344.358-1.772 8.412-28.685-4.021 4.427-12.293z" fill="#f58e27"/><path d="m362.936 354.105-31.241-4.38 5.306-14.74 28.16 8.55zm-28.004-6.334 26.128 3.664 1.318-6.255-23.901-7.254z" fill="#338741"/><path d="m149.364 325.298-1.73 8.976 28.942 1.176 3.229-13.115z" fill="#f58e27"/><path d="m177.501 336.681-31.299-1.273 2.159-11.21 33.004-3.212zm-28.434-3.543 26.584 1.081 2.594-10.535-27.879 2.714z" fill="#338741"/><path d="m309.959 329.553c6.254 22.496-8.939 35.824-33.892 35.378-15.461-.276-41.456-14.743-53.697-38.489 13.006 10.704 38.193 4.437 41.927 9.547s36.306-5.425 45.662-6.436z" fill="#609923"/><g><path d="m309.959 329.553c-23.262-13.284-53.275 3.225-87.589-3.111 9.215 15.413 38.919 41.456 67.939 32.731 17.169-5.162 18.901-20.673 19.65-29.62z" fill="#04070d"/><path d="m307.945 328.492c-20.971-10.308-47.196 1.614-76.967-.912.652 1.118 1.306 2.269 1.953 3.483 3.1 5.816 40.528 18.025 51.641 15.015 8.959-2.426 19.968-11.675 23.373-17.586z" fill="#f7f7d9"/><path d="m290.309 359.173c4.716-1.418 8.262-3.62 10.948-6.249-6.112-6.336-13.939-9.994-20.553-10.63-17.721-1.702-35.614-1.073-44.223.425 13.716 12.075 33.931 22.437 53.828 16.454z" fill="#f7f7d9"/><g fill="#d1ceac"><path d="m245.18 349.46c12.877 8.742 29.104 14.532 45.128 9.713 4.711-1.416 8.253-3.615 10.938-6.24-.846-.878-1.724-1.707-2.63-2.481-10.089 8.717-29.081 10.987-53.436-.992z"/><path d="m230.977 327.58c.108.185.215.356.323.544 35.1 5.365 62.687-5.106 73.22 4.839 1.466-1.585 2.642-3.115 3.424-4.472-20.971-10.306-47.197 1.616-76.967-.911z"/></g></g><path d="m231.913 301.768c-.665 0-1.324-.273-1.798-.812-.333-.377-1.964-2.375-1.492-4.759.199-1.002.84-2.397 2.771-3.347 17.503-8.616 19.093-7.956 20.256-7.462.725.304 1.277.9 1.516 1.633.599 1.836.604 4.143.602 4.4-.008 1.332-1.091 2.407-2.421 2.407-.005 0-.009 0-.014 0-1.336-.008-2.414-1.098-2.407-2.435 0-.191-.011-.572-.047-1.018-2.515.841-7.711 3.06-15.348 6.819-.035.017-.065.033-.091.049.074.169.203.388.326.534.849 1.015.738 2.539-.268 3.403-.461.395-1.025.588-1.585.588z" fill="#89b32d"/></g><path d="m202.766 322.804c.943 1.93 2.915 2.831 4.778 2.43.916-.155 1.772-.64 2.248-1.229.478-.606.563-1.155.331-1.812-.483-1.328-2.443-2.935-4.125-3.605-1.742-.701-3.532-.542-5.119.361-1.577.908-2.88 2.51-3.559 4.241-.662 1.775-.603 3.508.326 4.682.924 1.275 2.741 2.187 4.725 2.54 1.993.371 4.155.278 6.256-.165 4.225-.883 8.235-3.091 11.55-6.095.426-.363.818-.767 1.226-1.154l1.383-1.305c.982-.839 1.989-1.651 3.075-2.341 2.145-1.423 4.483-2.507 6.89-3.295 4.834-1.54 9.907-1.948 14.823-1.415 4.898.553 9.783 1.791 14.024 4.464.377.238.49.736.252 1.113-.222.352-.67.474-1.035.296l-.032-.016c-4.119-2.026-8.803-2.941-13.403-3.111-4.609-.13-9.243.441-13.453 2.047-2.104.786-4.106 1.803-5.899 3.096-.912.626-1.741 1.354-2.551 2.095l-1.181 1.202c-.442.453-.879.911-1.351 1.337-3.686 3.474-8.252 6.218-13.392 7.378-2.567.557-5.27.725-7.987.244-2.673-.487-5.55-1.641-7.536-4.234-.981-1.272-1.563-2.973-1.615-4.542-.088-1.588.257-3.075.78-4.437 1.091-2.701 3.045-4.974 5.681-6.351 1.307-.692 2.817-1.094 4.341-1.137 1.531-.056 3.043.341 4.349.968 1.314.63 2.439 1.488 3.407 2.43.978.967 1.921 2.181 2.36 3.816.215.812.218 1.757-.034 2.617-.251.864-.742 1.62-1.336 2.181-1.199 1.121-2.669 1.643-4.121 1.743-1.454.115-2.949-.265-4.155-1.088-1.227-.813-2.013-2.092-2.423-3.354-.138-.425.095-.881.519-1.019.388-.126.802.057.976.414z" fill="#372d38"/><path d="m332.43 323.398c-.41 1.262-1.195 2.541-2.423 3.354-1.207.822-2.702 1.202-4.156 1.088-1.452-.1-2.922-.622-4.121-1.743-.593-.56-1.084-1.316-1.336-2.181-.253-.86-.249-1.805-.034-2.617.439-1.635 1.382-2.85 2.36-3.816.968-.942 2.094-1.799 3.407-2.43 1.306-.627 2.818-1.024 4.349-.968 1.525.043 3.034.445 4.341 1.137 2.637 1.378 4.59 3.651 5.682 6.351.523 1.362.868 2.849.78 4.437-.051 1.569-.633 3.271-1.615 4.542-1.986 2.593-4.864 3.747-7.536 4.234-2.717.481-5.42.313-7.987-.244-5.14-1.16-9.706-3.904-13.392-7.378-.472-.426-.909-.884-1.352-1.337l-1.181-1.202c-.809-.741-1.639-1.469-2.551-2.095-1.793-1.293-3.795-2.31-5.899-3.096-4.209-1.606-8.844-2.177-13.453-2.047-4.6.169-9.283 1.085-13.403 3.111l-.029.014c-.4.197-.884.032-1.08-.368-.183-.373-.049-.821.294-1.039 4.241-2.673 9.126-3.911 14.024-4.464 4.916-.534 9.99-.126 14.823 1.415 2.407.788 4.745 1.872 6.89 3.295 1.086.691 2.093 1.502 3.075 2.341l1.383 1.305c.408.387.799.791 1.226 1.154 3.315 3.004 7.325 5.212 11.55 6.095 2.101.443 4.263.536 6.256.165 1.984-.353 3.801-1.264 4.725-2.54.929-1.174.988-2.907.326-4.682-.68-1.731-1.983-3.333-3.56-4.241-1.587-.903-3.376-1.061-5.118-.361-1.682.67-3.642 2.277-4.125 3.605-.232.657-.147 1.207.331 1.812.476.589 1.332 1.074 2.248 1.229 1.863.401 3.835-.5 4.778-2.43l.005-.011c.196-.401.68-.567 1.081-.371.369.18.539.6.417.977z" fill="#372d38"/><g><path d="m36.039 402.17 113.923 25.642.787-34.913-122.241-19.806z" fill="#8a4721"/><path d="m49.705 405.246 2.757.62-.196-28.924-2.65-.429z" fill="#6e3617"/><path d="m126.472 422.525 3.759.846-.229-33.833-3.228-.523z" fill="#6e3617"/><path d="m89.832 353.519-61.324 19.574 122.241 19.806 49.329-25.546z" fill="#a36634"/><path d="m48.966 376.408 3.3.535 54.134-21.345-6.827-.857z" fill="#964d29"/><path d="m123.934 388.555 6.068.983 46.633-25.127-5.542-.695z" fill="#964d29"/><path d="m51.101 375.459-9.659-1.819 55.129-19.57 5.087.611z" fill="#a9c9cc"/><path d="m49.941 405.971-4.287-.858-4.212-31.473 9.659 1.819z" fill="#8098a6"/><path d="m127.392 423.925-4.287-.858-4.212-36.311 9.844 1.797z" fill="#8098a6"/><path d="m128.737 388.553-9.844-1.797 49.438-23.638 5.084.612z" fill="#a9c9cc"/><path d="m149.962 427.812 46.381-26.128 3.735-34.331-49.329 25.546z" fill="#732f1c"/><path d="m89.628 397.582h-30.762l-3.193-9.743h30.763z" fill="#546d75"/><path d="m114.293 405.341-13.568-8.032 4.539-8.031 12.911 6.051z" fill="#8cd138"/></g></g></g></svg>