<?xml version="1.0" encoding="iso-8859-1"?>
<!-- Generator: Adobe Illustrator 19.0.0, SVG Export Plug-In . SVG Version: 6.00 Build 0)  -->
<svg version="1.1" id="Capa_1" xmlns="http://www.w3.org/2000/svg" xmlns:xlink="http://www.w3.org/1999/xlink" x="0px" y="0px"
	 viewBox="0 0 512 512" style="enable-background:new 0 0 512 512;" xml:space="preserve">
<g>
	<g>
		<g>
			<rect x="64" y="292.571" width="54.857" height="36.571"/>
			<path d="M120.542,420.571H64v82.286c0.005,5.047,4.095,9.138,9.143,9.143H128c5.047-0.005,9.138-4.095,9.143-9.143v-65.685
				C129.398,434.411,123.303,428.316,120.542,420.571z M91.429,484.571c0,5.049-4.093,9.143-9.143,9.143s-9.143-4.093-9.143-9.143
				v-18.286c0-5.049,4.093-9.143,9.143-9.143s9.143,4.093,9.143,9.143V484.571z M118.857,484.571c0,5.049-4.093,9.143-9.143,9.143
				c-5.049,0-9.143-4.093-9.143-9.143v-18.286c0-5.049,4.093-9.143,9.143-9.143c5.049,0,9.143,4.093,9.143,9.143V484.571z"/>
			<rect x="64" y="228.571" width="54.857" height="45.714"/>
			<rect x="64" y="347.429" width="54.857" height="54.857"/>
			<path d="M219.429,448h-9.143c-5.047,0.005-9.138,4.096-9.143,9.143v18.286h27.429v-18.286
				C228.566,452.096,224.476,448.005,219.429,448z"/>
			<rect x="228.571" y="192" width="54.857" height="27.429"/>
			<circle cx="283.429" cy="356.571" r="9.143"/>
			<path d="M137.143,193.685V128c-0.005-5.047-4.095-9.138-9.143-9.143H73.143c-5.047,0.005-9.138,4.095-9.143,9.143v82.286h56.542
				C123.303,202.541,129.398,196.446,137.143,193.685z M91.429,164.571c0,5.049-4.093,9.143-9.143,9.143s-9.143-4.093-9.143-9.143
				v-18.286c0-5.049,4.093-9.143,9.143-9.143s9.143,4.093,9.143,9.143V164.571z M118.857,164.571c0,5.049-4.093,9.143-9.143,9.143
				c-5.049,0-9.143-4.093-9.143-9.143v-18.286c0-5.049,4.093-9.143,9.143-9.143c5.049,0,9.143,4.093,9.143,9.143V164.571z"/>
			<path d="M173.714,246.857V384c0.005,5.047,4.095,9.138,9.143,9.143h146.286c5.047-0.005,9.138-4.096,9.143-9.143V246.857
				c-0.005-5.047-4.095-9.138-9.143-9.143H182.857C177.81,237.719,173.719,241.81,173.714,246.857z M283.429,384
				C268.28,384,256,371.72,256,356.571c0-15.148,12.28-27.429,27.429-27.429c15.148,0,27.429,12.28,27.429,27.429
				C310.841,371.713,298.57,383.983,283.429,384z M246.857,265.143c-0.001-2.425,0.962-4.751,2.677-6.466
				c1.715-1.715,4.041-2.678,6.466-2.677h54.857c2.425-0.001,4.751,0.962,6.466,2.677c1.715,1.715,2.678,4.041,2.677,6.466v27.429
				c-0.017,15.142-12.287,27.412-27.429,27.429h-18.286c-15.142-0.017-27.412-12.287-27.429-27.429V265.143z M192,283.429
				c0-5.049,4.093-9.143,9.143-9.143c5.049,0,9.143,4.093,9.143,9.143v9.143c0,5.049-4.093,9.143-9.143,9.143
				c-5.049,0-9.143-4.093-9.143-9.143V283.429z M192,320c0-5.049,4.093-9.143,9.143-9.143c5.049,0,9.143,4.093,9.143,9.143v9.143
				c0,5.049-4.093,9.143-9.143,9.143c-5.049,0-9.143-4.093-9.143-9.143V320z M192,356.571c0-5.049,4.093-9.143,9.143-9.143
				c5.049,0,9.143,4.093,9.143,9.143v9.143c0,5.049-4.093,9.143-9.143,9.143c-5.049,0-9.143-4.093-9.143-9.143V356.571z"/>
			<path d="M274.286,301.714h18.286c5.047-0.005,9.138-4.095,9.143-9.143v-18.286h-36.571v18.286
				C265.148,297.619,269.238,301.709,274.286,301.714z"/>
			<rect x="246.857" width="18.286" height="137.143"/>
			<rect x="393.143" y="292.571" width="54.857" height="36.571"/>
			<path d="M301.714,448h-9.143c-5.047,0.005-9.138,4.096-9.143,9.143v18.286h27.429v-18.286
				C310.852,452.096,306.762,448.005,301.714,448z"/>
			<path d="M374.857,437.172v65.685c0.005,5.047,4.096,9.138,9.143,9.143h54.857c5.047-0.005,9.138-4.095,9.143-9.143v-82.286
				h-56.542C388.697,428.316,382.602,434.411,374.857,437.172z M420.571,466.286c0-5.049,4.093-9.143,9.143-9.143
				s9.143,4.093,9.143,9.143v18.286c0,5.049-4.093,9.143-9.143,9.143s-9.143-4.093-9.143-9.143V466.286z M393.143,466.286
				c0-5.049,4.093-9.143,9.143-9.143s9.143,4.093,9.143,9.143v18.286c0,5.049-4.093,9.143-9.143,9.143s-9.143-4.093-9.143-9.143
				V466.286z"/>
			<path d="M438.857,118.857H384c-5.047,0.005-9.138,4.095-9.143,9.143v65.685c7.745,2.761,13.84,8.856,16.601,16.601H448V128
				C447.995,122.953,443.905,118.862,438.857,118.857z M411.429,164.571c0,5.049-4.093,9.143-9.143,9.143s-9.143-4.093-9.143-9.143
				v-18.286c0-5.049,4.093-9.143,9.143-9.143s9.143,4.093,9.143,9.143V164.571z M438.857,164.571c0,5.049-4.093,9.143-9.143,9.143
				s-9.143-4.093-9.143-9.143v-18.286c0-5.049,4.093-9.143,9.143-9.143s9.143,4.093,9.143,9.143V164.571z"/>
			<rect x="393.143" y="228.571" width="54.857" height="45.714"/>
			<rect x="393.143" y="347.429" width="54.857" height="54.857"/>
			<rect x="237.714" y="155.429" width="36.571" height="18.286"/>
			<path d="M374.857,338.286V219.429c-0.005-5.047-4.095-9.138-9.143-9.143c-2.425,0.001-4.751-0.962-6.466-2.677
				c-1.715-1.715-2.678-4.041-2.677-6.466v-45.714h-64v20.83c5.638,3.24,9.122,9.239,9.143,15.742v27.429h27.429
				c15.141,0.017,27.412,12.287,27.429,27.429V384c-0.017,15.142-12.287,27.412-27.429,27.429H182.857
				c-15.142-0.017-27.412-12.287-27.429-27.429V246.857c0.016-15.142,12.287-27.412,27.429-27.429h27.429V192
				c0.021-6.503,3.505-12.501,9.143-15.742v-20.83h-64v45.714c0.001,2.425-0.962,4.751-2.677,6.466
				c-1.715,1.715-4.041,2.678-6.466,2.677c-5.047,0.005-9.138,4.096-9.143,9.143v192c0.005,5.047,4.096,9.138,9.143,9.143
				c2.425-0.001,4.751,0.962,6.466,2.677c1.715,1.715,2.678,4.041,2.677,6.466v45.714h27.429v-18.286
				c0.017-15.142,12.287-27.412,27.429-27.429h9.143c15.141,0.017,27.412,12.287,27.429,27.429v18.286h18.286v-18.286
				c0.017-15.142,12.287-27.412,27.429-27.429h9.143c15.142,0.017,27.412,12.287,27.429,27.429v18.286h27.429v-45.714
				c-0.001-2.425,0.962-4.751,2.677-6.466c1.715-1.715,4.041-2.678,6.466-2.677c5.047-0.005,9.138-4.096,9.143-9.143V338.286z"/>
		</g>
	</g>
</g>
<g>
</g>
<g>
</g>
<g>
</g>
<g>
</g>
<g>
</g>
<g>
</g>
<g>
</g>
<g>
</g>
<g>
</g>
<g>
</g>
<g>
</g>
<g>
</g>
<g>
</g>
<g>
</g>
<g>
</g>
</svg>
