<svg id="Puppies" height="512" viewBox="0 0 1200 1200" width="512" xmlns="http://www.w3.org/2000/svg"><g><path d="m884.277 693.914c.007-.485-.02-1.945-.02-1.966 0-3.476-.729-6.815-2.166-9.954-1.443-3.735-3.551-7.248-6.278-10.461-21.776-25.664-58.425-36.163-90.804-42.547 5.328-15.132 10.254-30.948 14.734-47.308 37.239-8.019 66.889-32.633 79.074-66.526 16.723-46.503-11.361-102.767-60.096-120.4-4.115-1.49-8.314-2.615-12.566-3.369-10.438-32.152-27.596-60.021-51.211-83.197 20.086-20.057 31.871-46.015 33.061-73.957 1.178-27.631-9.445-44.773-18.561-54.287-13.53-14.117-33.463-21.893-56.129-21.893-15.318 0-30.92 3.636-44.841 10.178-4.38-9.521-9.798-18.096-16.099-25.41-13.418-15.576-30.719-23.809-50.035-23.809-27.206 0-56.146 17.071-73.725 43.49-1.338 2.011-2.605 4.064-3.807 6.155-10.838-5.269-22.019-8.055-32.795-8.055-11.002 0-21.454 2.79-31.061 8.29-31.805 18.211-41.734 53.555-25.916 92.243 5.078 12.419 14.914 26.867 26.962 40.087-26.676 21.15-47.298 46.391-61.575 75.369-4.434-.723-8.795-1.087-13.061-1.087-18.947 0-35.81 7.074-48.769 20.46-16.613 17.16-25.587 44.09-24.62 73.883 1.135 35.027 31.297 87.345 74.822 91.03 7.371 26.008 18.321 51.69 33.135 77.705-22.752 8.117-50.414 20.944-61.997 38.085-4.431 4.383-7.009 10.39-7.032 16.896-.023 6.63-.254 13.544-.482 20.616-1.446 44.48-3.248 99.841 42.15 132.127 8.197 5.831 17.783 10.373 29.055 13.751 2.872 26.55 7.355 55.083 14.165 90.378.858 4.449 1.616 9.016 2.384 13.629 3.917 23.536 8.357 50.212 26.527 71.278 25.228 29.25 74.271 44.164 149.93 45.592 2.064.041 4.148.061 6.246.061h.005c34.866 0 100.065-5.646 145.015-43.455 20.921-17.602 25.272-47.906 28.767-72.257.78-5.428 1.516-10.555 2.345-14.77 6.594-33.426 11.149-62.366 14.117-89.809 9.024-2.366 17.164-5.273 24.635-8.786 52.863-24.863 49.529-92.134 47.323-136.648-.38-7.716-.743-15.013-.806-21.352z" fill="#fff"/><g><g><path d="m734.148 538.466c-3.264 0-6.407-.254-9.342-.751-.355-.059-.672-.265-.87-.566-1.979-2.993-3.506-6.454-4.54-10.29-.057-.216-.059-.445-.004-.661 6.341-24.913 21.751-47.308 44.568-64.764 18.234-13.946 40.367-22.272 59.207-22.272 5.752 0 11.274.748 16.413 2.228.274.079.517.248.688.479 5.093 6.883 9.104 15.075 11.598 23.694.086.294.063.613-.063.895-10.699 23.951-37.27 41.837-52.153 50.366-14.102 8.08-41.367 21.642-65.502 21.642z" fill="#00ff8b"/><path d="m772.578 557.321c-13.437 0-26.955-3.816-39.096-11.039-1.7-1.012-3.283-2.212-4.985-3.782-.407-.378-.533-.969-.313-1.479.21-.479.682-.787 1.199-.787.031 0 .063.003.094.005 1.523.112 3.057.164 4.598.164 21.43 0 44.129-10.204 63.508-20.187 23.679-12.196 43.694-30.163 53.541-48.063.232-.421.675-.677 1.145-.677.065 0 .133.007.2.016.544.085.976.499 1.081 1.039 2.29 11.65 2.02 23.368-.777 33.883-8.702 32.713-45.866 49.274-76.711 50.821-1.162.059-2.324.086-3.484.086z" fill="#00ff8b"/><path d="m718.805 517.181c-.613-.086-1.084-.594-1.119-1.215-.516-8.414.456-17.245 1.583-25.533 7.247-35.34 37.568-71.804 75.788-71.804 3.11 0 6.264.246 9.373.736 11.842 1.86 22.224 7.414 30.858 16.508.39.409.47 1.021.202 1.518-.229.428-.674.688-1.148.688-.074 0-.15-.007-.228-.021-3.418-.604-7.003-.913-10.654-.913-24.013 0-46.331 12.786-57.501 20.409-21.215 14.479-37.462 35.349-45.742 58.769-.186.526-.684.87-1.229.87-.059 0-.123-.004-.183-.012z" fill="#00ff8b"/><path d="m671.707 321.041c-15.082 0-27.496-7.131-35.906-20.618-.322-.518-.244-1.189.19-1.619 7.894-7.808 14.019-17.509 17.716-28.057 6.478-18.476 8.306-40.368 5.148-61.646-.059-.395.068-.795.342-1.086 13.607-14.427 34.803-23.748 54.002-23.748 22.531 0 39.141 12.318 45.561 33.798 5.186 17.342-.733 39.226-16.236 60.042-19.128 25.68-47.586 42.934-70.817 42.934z" fill="#fdc435"/><path d="m598.277 309.641c-8.928 0-17.806-3.076-26.382-9.146-30.2-28.682-41.135-67.502-29.401-103.967 7.733-24.029 30.512-49.566 57.494-49.566 11.596 0 22.35 4.782 31.955 14.218 21.559 21.171 24.005 61.802 19.104 92.769-4.237 26.781-25.617 55.692-52.77 55.692z" fill="#fdc435"/><path d="m538.129 316.89c-27.869 0-61.703-40.397-71.358-54.55-13.917-20.402-18.963-49.984 2.847-66.723 6.442-4.945 13.793-7.452 21.846-7.452 13.18 0 27.946 6.822 40.519 18.716.319.303.466.744.39 1.176-5.613 31.668 5.552 66.072 29.861 92.031.398.428.466 1.068.164 1.566-6.109 10.109-14.273 15.236-24.269 15.236z" fill="#fdc435"/><path d="m604.43 730.742c-16.346 0-33.035-.37-49.604-1.104-.469-.021-.889-.29-1.102-.708-10.475-8.206-16.371-20.086-22.071-31.576l-1.407-2.829c-7.585-15.158-14.688-31.978-21.711-51.42-10.972-30.359-19.105-64.862-25.597-108.59-6.002-40.404-4.644-78.722 4.155-117.143 4.111-17.946 10.605-36.79 19.307-56.01 1.125-2.482 2.256-5.119 3.421-7.834 4.522-10.539 9.646-22.484 16.819-30.98.252-.296.619-.463.999-.463.11 0 .22.016.331.043 3.734.979 7.354 1.473 10.762 1.473 11.582 0 21.1-5.666 28.288-16.844.19-.3.497-.506.848-.576.083-.016.167-.025.249-.025.268 0 .531.084.752.238 6.57 4.631 13.529 7.621 20.681 8.89.384.069.718.304.908.644.191.337.223.744.085 1.107-22.108 58.048-31.078 126.407-27.424 208.984 3.748 84.658 17.482 149.116 43.226 202.853.194.404.167.879-.073 1.259-.239.38-.655.609-1.105.611zm5.814-.017c6.361-.031 12.725-.11 19.089-.245.483-.009.92-.283 1.138-.715 4.345-8.581 6.463-18.529 8.512-28.151.665-3.123 1.32-6.201 2.039-9.163 4.072-16.762 7.566-34.2 10.387-51.827 5.531-34.564 9.795-70.89 12.674-107.972 6.55-84.363 2.914-151-11.448-209.713-.104-.421-.407-.763-.813-.913-8.361-3.105-15.361-8.818-20.803-16.979-.2-.299-.514-.503-.868-.562-.072-.014-.146-.021-.218-.021-.281 0-.559.093-.785.264-9.805 7.385-20.734 11.289-31.611 11.289-1.145 0-2.294-.043-3.447-.131-.034-.002-.068-.005-.1-.005-.537 0-1.025.333-1.219.839-21.96 57.348-31.324 126.515-27.824 205.577 2.453 55.4 9.695 137.207 44.118 207.695.221.448.675.733 1.174.733zm29.182-.45c10.855-.241 21.805-.484 32.81-.799.304-.009.596-.124.825-.326 9.719-8.581 15.752-21.144 21.074-32.228l3.647-7.573c4.642-9.618 9.44-19.563 13.884-29.458 16.273-36.241 26.032-69.252 29.828-100.915.07-.573-.245-1.122-.775-1.354-23.281-10.105-32.615-33.417-27.76-69.202 3.408-16.608 12.639-34.357 25.324-48.694.256-.293.371-.684.313-1.068-7.178-45.966-20.515-84.589-40.777-118.079-.242-.398-.67-.631-1.117-.631-.14 0-.281.023-.421.07-9.671 3.285-18.77 4.949-27.042 4.949-4.396 0-8.595-.477-12.477-1.421-.101-.024-.204-.038-.308-.038-.342 0-.673.135-.922.382-.321.319-.454.784-.349 1.226 14.313 60.129 17.668 127.337 10.564 211.51-3.625 42.882-7.814 77.563-13.191 109.147-2.857 16.786-6.59 34.546-11.411 54.289-.544 2.231-1.055 4.505-1.567 6.791-1.646 7.326-3.346 14.9-6.348 21.702-.18.407-.141.879.107 1.25.242.364.65.583 1.086.583.011 0 5.003-.113 5.003-.113zm39.519-.997c8.747-.276 17.515-.618 26.289-1.048.414-.02.791-.233 1.021-.577 29.9-44.632 52.607-97.77 69.42-162.448.102-.394.016-.812-.233-1.131-.247-.317-.628-.504-1.03-.504-.004 0-1.082.007-1.082.007-4.611 0-9.117-.283-13.395-.841-5.338-.693-10.364-1.842-14.94-3.416-.14-.047-.28-.072-.425-.072-.24 0-.481.067-.69.198-.333.209-.556.556-.604.946-4.062 32.296-14.16 66.192-30.014 100.745l-1.979 4.319c-5.862 12.795-11.922 26.024-18.492 38.628-4.149 7.958-8.717 16.291-14.852 23.011-.353.387-.439.948-.22 1.425.214.464.677.761 1.185.761.014 0 .028-.003.041-.003zm63.226-293.728c12.251-12.476 26.073-20.549 39.972-23.347.354-.068.662-.283.854-.588.188-.307.244-.678.152-1.025-10.844-40.967-32.997-74.191-66.019-98.917-.241-.2-.538-.304-.837-.304-.211 0-.425.052-.62.157l-.792.43c-.953.52-1.904 1.036-2.881 1.519-3.68 1.816-7.503 3.489-11.366 4.971-.36.138-.642.43-.767.795-.127.363-.084.766.114 1.097 19.382 32.248 32.828 70.774 39.97 114.509.079.483.426.884.893 1.032.131.042.264.063.396.063.344-.002.682-.138.931-.392zm-194.464 293.726c.521 0 .996-.313 1.2-.796.216-.504.093-1.086-.306-1.462-9.492-8.92-15.671-22.014-21.124-33.567l-.212-.45c-8.816-18.673-15.398-34.418-20.712-49.547-12.093-34.43-20.895-72.459-26.159-113.033-5.752-44.326-3.505-84.186 6.863-121.855 5.377-19.53 11.702-36.626 19.341-52.261 1.514-3.102 2.96-6.369 4.428-9.686 3.69-8.338 7.506-16.959 12.866-23.919.255-.331.336-.765.219-1.165-.119-.4-.42-.722-.816-.861-7.135-2.536-14.695-6.693-22.473-12.354-.229-.166-.5-.252-.77-.252-.242 0-.483.067-.697.202-75.715 47.847-108.52 127.803-90.002 219.361 16.738 82.758 63.752 144.54 112.049 198.96l.28.521c.221.344.592.564 1.001.596 8.311.618 16.631 1.143 24.958 1.565.021.001.043.003.066.003z" fill="#00ff8b"/><path d="m398.211 508.147c-29.311-2.712-51.209-33.955-55.445-62.596 1.053-5.678 2.648-10.639 4.756-15.19.088-.188.219-.353.385-.48 3.854-3 8.832-4.52 14.797-4.52 10.041 0 22.607 4.128 38.413 12.621.497.266.765.823.668 1.379-3.806 21.396-4.528 44.058-2.154 67.354.038.39-.097.773-.374 1.053-.244.247-.58.387-.926.387-.042-.001-.081-.003-.12-.008z" fill="#00ff8b"/><path d="m401.359 435.685c-.209 0-.416-.052-.607-.151-15.184-7.971-28.043-12.012-38.217-12.012-3.436 0-6.592.467-9.387 1.392-.135.045-.273.067-.41.067-.4 0-.787-.184-1.039-.518-.337-.442-.355-1.052-.045-1.516 8.457-12.621 21.473-19.574 36.654-19.574 6.504 0 13.42 1.253 20.547 3.722.68.236 1.041.978.809 1.657-2.918 8.504-5.281 17.214-7.025 25.882-.081.405-.346.747-.717.922-.178.086-.371.129-.563.129z" fill="#00ff8b"/><path d="m392.182 534.241c-29.688 0-50.113-45.983-50.891-70.028-.059-1.754-.047-3.479-.005-5.188.013-.637.487-1.169 1.12-1.262.061-.009.123-.014.184-.014.563 0 1.068.362 1.244.909 7.727 24.211 27.773 49.535 55.135 51.539.625.045 1.129.526 1.201 1.146.748 6.294 1.754 12.71 3.074 19.615.121.635-.238 1.262-.848 1.476-3.396 1.2-6.832 1.807-10.214 1.807z" fill="#00ff8b"/><path d="m716.555 727.615c-.464 0-.893-.248-1.129-.65-.248-.425-.234-.953.033-1.367 14.314-22.106 27.187-46.766 38.252-73.291.207-.492.686-.803 1.205-.803.076 0 .153.007.23.022 29.49 5.278 60.556 12.354 87.939 28.26 8.662 5.032 12.512 9.866 11.766 14.78-1.531 10.105-22.41 16.136-40.427 20.263-28.074 6.429-59.148 10.49-97.794 12.783-.025 0-.051.003-.075.003zm-206.666-.897c.488 0 .939-.274 1.164-.715.241-.475.17-1.051-.182-1.451-21.787-24.931-38.564-46.34-52.794-67.374-.247-.366-.657-.576-1.081-.576-.117 0-.234.017-.352.05-.722.2-72.313 20.832-75.584 36.952-.349 1.712-.135 4.252 2.852 6.629 14.238 11.336 36.122 14.783 53.705 17.554l2.983.47c22.343 3.555 45.616 6.399 69.176 8.455.037.003.074.006.113.006z" fill="#853341"/><path d="m614.119 1053.463c-25.139 0-87.828-3.551-126.918-36.426-14.703-12.367-18.571-41.107-21.682-64.202-.832-6.189-1.618-12.039-2.533-16.781-6.303-32.659-10.609-62.104-13.166-90.022-.036-.397.109-.791.4-1.065.244-.231.566-.36.898-.36.062 0 .125.005.188.014 6.764.974 13.541 1.655 20.094 2.312l2.299.232c43.644 4.409 89.58 6.696 140.431 6.99l7.405.022c39.614 0 80.326-1.773 124.463-5.421l6.148-.497c10.946-.882 22.266-1.792 33.34-3.357.062-.009.122-.014.183-.014.333 0 .657.129.899.362.291.274.437.668.4 1.063-2.455 26.6-6.629 55.112-13.133 89.735-.962 5.115-1.791 10.613-2.652 16.301-3.414 22.569-7.281 48.151-21.416 64.542-20.357 23.607-65.023 35.904-132.75 36.559z" fill="#853341"/><path d="m614.123 847.557c-32.891 0-67.5-1.315-105.807-4.019-3.893-.274-7.832-.52-11.801-.765-26.916-1.673-54.748-3.4-79.047-14.873-41.449-19.567-39.361-71.622-37.682-113.447l.266-6.8c.018-.485.304-.922.742-1.131.178-.086.371-.128.563-.128.276 0 .553.09.782.261 3.392 2.541 7.915 4.987 13.444 7.27 20.863 8.617 44.76 11.612 69.455 14.153 43.807 4.504 95.939 9.107 150.458 9.107 5.253 0 10.517-.043 15.797-.129 47.321-.787 96.649-4.022 146.612-9.615 24.49-2.741 48.133-5.985 68.189-15.439 2.25-1.062 5.631-2.864 8.956-5.437.231-.181.515-.274.798-.274.188 0 .376.04.551.123.443.205.733.642.754 1.129.121 2.991.261 6.035.404 9.123 2.02 43.898 4.531 98.534-43.488 115.318-21.682 7.578-45.799 9.053-69.12 10.48-5.469.335-10.884.666-16.194 1.073-35.286 2.701-72.782 4.015-114.632 4.02z" fill="#ad8353"/><path d="m532.371 208.057c.076-.432-.07-.873-.39-1.176-2.763-2.615-5.646-4.938-8.583-7.043-1.5 2.935-2.24 6.434-2.455 10.054-.797 6.584-.257 13.51.515 19.617 1.536 12.134 5.017 24.085 5.36 36.35.299 10.688-2.189 21.338-11.438 27.749-4.021 2.788-8.376 5.059-12.804 7.18 11.449 9.132 24.004 16.103 35.553 16.103 9.996 0 18.16-5.127 24.268-15.235.302-.498.234-1.139-.164-1.566-24.31-25.961-35.475-60.365-29.862-92.033z" fill="#f1a12b"/><path d="m571.896 300.494c8.576 6.07 17.454 9.146 26.382 9.146 26.023 0 46.699-26.553 52.107-52.34-3.22 2.959-6.593 5.738-10.292 8.115-11.897 7.646-25.295 12.766-39.325 14.724-15.389 2.147-31.609.967-43.896-9.458-5.288-4.488-9.527-10.104-13.2-15.951-.836-1.334-1.63-2.758-2.424-4.208 4.947 18.183 15.293 35.39 30.648 49.972z" fill="#f1a12b"/><path d="m747.365 269.844c-15.65 8.326-33.638 14.434-51.465 15.252-8.691.398-17.771-.875-22.759-8.837-5.021-8.019-4.274-18.338-3.095-27.28 1.35-10.238 3.243-20.338 2.57-30.713-.389-5.986-.843-13.101-3.109-19.15-3.737 2.689-7.238 5.643-10.311 8.9-.273.291-.4.691-.342 1.086 3.157 21.277 1.329 43.17-5.148 61.646-3.697 10.548-9.822 20.249-17.716 28.057-.435.43-.513 1.102-.19 1.619 8.41 13.487 20.824 20.618 35.906 20.618 23.23 0 51.689-17.254 70.816-42.934 2.202-2.957 4.158-5.938 5.969-8.921-.382.209-.741.45-1.126.657z" fill="#f1a12b"/><g fill="#50a76e"><path d="m402.396 532.436c.609-.214.969-.841.848-1.476-.9-4.704-1.605-9.143-2.231-13.51-1.513.501-3.015.889-4.604.974-6.58.355-12.439-1.172-18.902-3.087-6.604-1.959-13.551-4.322-19.408-8.032-2.379-1.507-4.207-3.731-6.033-5.917 8.967 17.558 22.996 32.854 40.117 32.854 3.381-.001 6.817-.608 10.213-1.806z"/><path d="m388.969 485.378c-7.762-3.718-15.003-8.22-21.245-14.181-6.489-6.197-11.782-13.37-16.456-21.005-2.343-3.829-4.367-7.895-6.797-11.668-.664 2.229-1.246 4.549-1.705 7.027 2.586 17.487 11.781 35.913 25.205 48.254 4.438 3.199 9.127 6.049 14.092 8.279 4.984 2.24 10.602 4.564 16.307 6.054.33-.012.651-.135.887-.371.277-.279.412-.663.374-1.053-.606-5.954-1.005-11.863-1.208-17.724-3.23-.995-6.405-2.151-9.454-3.612z"/><path d="m401.955 422.691c-5.895-4.01-12.785-6.824-19.795-8.138-7.648-1.433-15.383-1.349-23.002.245-.236.049-.492.117-.734.171-2.486 2.339-4.764 4.985-6.77 7.978-.311.464-.292 1.073.045 1.516.252.334.639.518 1.039.518.137 0 .275-.022.41-.067 2.795-.925 5.951-1.392 9.387-1.392 10.174 0 23.033 4.041 38.217 12.012.191.1.398.151.607.151.191 0 .385-.043.563-.129.371-.175.636-.517.717-.922.66-3.278 1.49-6.562 2.324-9.84-1.092-.782-2.138-1.511-3.008-2.103z"/><path d="m839.07 530.513c-3.162 1.183-6.291 2.478-9.406 3.549-11.97 4.112-24.166 7.418-36.797 8.632-12.799 1.23-25.65.794-38.385-.874-4.131-.542-8.25-1.118-12.338-1.873-2.705.296-5.397.456-8.07.456-1.541 0-3.074-.052-4.598-.164-.031-.002-.063-.005-.094-.005-.518 0-.989.309-1.199.787-.22.511-.094 1.102.313 1.479 1.702 1.57 3.285 2.771 4.985 3.782 12.141 7.223 25.659 11.039 39.096 11.039 1.16 0 2.322-.027 3.482-.086 22.018-1.103 47.203-9.905 63.011-26.722z"/><path d="m832.146 492.978c-3.852 1.484-7.535 3.212-11.488 4.476-5.873 1.875-11.317 4.389-16.966 6.831-11.084 4.79-22.114 9.523-33.696 13.016-10.76 3.247-23.119 7.049-34.463 6.688-5.862-.187-10.15-2.777-13.48-6.549-1.006 2.883-1.907 5.8-2.66 8.759-.055.216-.053.445.004.661 1.034 3.836 2.561 7.297 4.54 10.29.198.302.515.508.87.566 2.935.497 6.078.751 9.342.751 24.135 0 51.399-13.562 65.503-21.643 8.682-4.977 21.328-13.156 32.494-23.846z"/><path d="m765.959 457.555c6.913-4.718 18.098-11.405 31.309-15.824-4.792.1-9.494.768-14.174 2.107-11.463 3.281-22.578 8.783-32.42 15.478-9.944 6.76-18.857 14.956-26.321 24.382-1.768 2.233-3.483 4.502-5.098 6.839-1.12 8.259-2.083 17.049-1.569 25.43.035.621.506 1.129 1.119 1.215.061.009.124.013.183.013.546 0 1.044-.344 1.229-.87 8.28-23.422 24.527-44.291 45.742-58.77z"/></g><path d="m854.807 783.465c-7.697 10.038-16.532 19.232-27.231 26.006-16.555 10.48-36.111 14.58-55.271 17.265-21.188 2.971-42.582 4.802-63.922 6.272-44.128 3.042-88.377 3.755-132.6 3.879-40.998.116-83.531 2.057-123.337-9.463-19.983-5.783-40.183-15.079-52.97-32.151-9.961-13.301-14.74-28.956-20.201-44.351 1.09 31.873 8.309 62.871 38.193 76.979 24.299 11.473 52.131 13.2 79.047 14.873 3.969.245 7.908.49 11.801.765 38.307 2.703 72.916 4.019 105.807 4.019 41.85-.005 79.346-1.318 114.633-4.019 5.311-.407 10.726-.738 16.194-1.073 23.321-1.428 47.438-2.902 69.12-10.48 24.393-8.529 35.736-26.831 40.737-48.521z" fill="#895725"/><path d="m783.369 877.832c1.471-10.938 2.662-21.371 3.6-31.52.036-.396-.109-.789-.4-1.063-.242-.233-.566-.362-.899-.362-.061 0-.121.005-.183.014-11.074 1.565-22.394 2.476-33.34 3.357l-6.148.497c-44.137 3.647-84.849 5.421-124.463 5.421l-7.405-.022c-50.851-.294-96.787-2.581-140.431-6.99l-2.299-.232c-6.553-.656-13.33-1.338-20.094-2.312-.063-.009-.126-.014-.188-.014-.332 0-.654.129-.898.36-.291.274-.437.668-.4 1.065.771 8.429 1.725 17.019 2.822 25.772 19.091 4.504 38.682 7.2 58.071 9.559 26.973 3.281 54.099 5.103 81.255 5.847 54.561 1.491 109.164-1.77 163.49-6.631 9.303-.832 18.603-1.869 27.91-2.746z" fill="#7a2537"/><path d="m484.944 284.428c-1.228-3.281-2.503-6.543-3.722-9.807-5.205-13.95-11.559-29.145-12.08-44.192-.43-12.393 4.578-22.907 13.931-30.931 4.187-3.594 9.258-6.551 14.34-8.688 1.284-.542 2.604-.999 3.931-1.437-3.351-.787-6.665-1.208-9.881-1.208-8.053 0-15.403 2.507-21.846 7.452-21.81 16.738-16.764 46.32-2.847 66.723 3.437 5.037 9.971 13.406 18.174 22.088z" fill="#fee434"/><path d="m647.131 186.523c-3.371-9.8-8.293-18.574-15.188-25.345-9.605-9.436-20.359-14.218-31.955-14.218-26.982 0-49.761 25.537-57.494 49.566-5.46 16.969-5.949 34.437-1.936 51.166 1.07-7.244 2.623-14.427 4.596-21.465 5.03-17.949 11.756-38.471 24.152-52.816 11.201-12.962 28.916-19.173 45.678-14.697 7.924 2.115 14.791 6.498 20.492 12.336 4.042 4.139 7.158 11.12 11.655 15.473z" fill="#fee434"/><path d="m713.199 184.268c-9.129 0-18.695 2.164-27.697 5.926 2.175-.012 4.369.016 6.609.24 6.988.704 14.148 1.578 20.976 3.252 11.929 2.921 21.614 9.139 29.259 18.787 7.646 9.649 12.19 21.286 15.09 33.139.197.816.359 1.637.539 2.455 3.107-10.701 3.485-20.971.785-30.001-6.42-21.48-23.03-33.798-45.561-33.798z" fill="#fee434"/><path d="m804.43 419.365c-3.109-.49-6.263-.736-9.373-.736-16.979 0-32.385 7.218-44.914 18.316 1.322-.056 2.669-.193 4.211-.494 4.246-.827 8.496-1.761 12.791-2.177 9.404-.913 18.66-3.114 28.088-4.017 8.822-.841 17.564-.654 26.287.916 3.764.677 7.185 1.09 10.56 1.563-7.959-7.24-17.239-11.736-27.65-13.371z" fill="#c0ffa8"/><path d="m846.4 451.886c-1.813-3.541-3.845-6.926-6.131-10.018-.172-.231-.414-.4-.688-.479-5.139-1.479-10.661-2.228-16.413-2.228-18.84 0-40.973 8.326-59.207 22.272-14.219 10.877-25.555 23.674-33.618 37.803 3.396-4.082 6.946-7.999 10.851-11.666 11.383-10.695 25.362-19.577 39.768-25.605 16.448-6.886 34.845-10.088 52.613-10.394 4.28-.074 8.558.045 12.825.315z" fill="#c0ffa8"/><path d="m855 487.813c-.021-5.039-.443-10.159-1.451-15.281-.105-.54-.537-.954-1.081-1.039-.067-.009-.135-.016-.2-.016-.47 0-.912.256-1.145.677-9.847 17.899-29.862 35.866-53.541 48.063-9.9 5.101-20.67 10.236-31.692 14.062 6.085 1.715 12.204-.176 18.185-1.433 6.231-1.312 12.482-3.872 18.296-6.436 11.528-5.087 22.604-11.64 32.569-19.353 7.382-5.714 14.025-12.195 20.06-19.244z" fill="#c0ffa8"/><path d="m404.089 405.635c-5.444-1.488-10.737-2.262-15.78-2.262-3.869 0-7.59.463-11.137 1.343.564.354 1.195.668 2.047.944 1.768.573 3.589.938 5.391 1.395 3.729.946 7.445 1.99 11.117 3.135 3.674 1.145 7.247 2.583 10.978 3.517.442.112.894.216 1.338.333.552-1.762 1.022-3.542 1.622-5.287.059-.168-.021-.324-.029-.49-.174-.102-.326-.211-.502-.311-1.622-.911-3.318-1.651-5.045-2.317z" fill="#c0ffa8"/><path d="m401.116 437.982c-15.806-8.493-28.372-12.621-38.413-12.621-5.965 0-10.943 1.52-14.797 4.52-.166.128-.297.292-.385.48-.416.899-.799 1.828-1.174 2.762.481.014.955.021 1.441.047 3.209.174 6.42.281 9.629.452 7.027.373 14 1.36 20.85 2.966 6.631 1.554 13.182 3.63 19.438 6.33 1.09.473 2.189.951 3.287 1.431.256-1.666.498-3.337.792-4.987.097-.556-.171-1.114-.668-1.38z" fill="#c0ffa8"/><path d="m373.563 500.806c-6.723-4.687-12.576-10.778-17.422-17.594-3.51-3.258-6.453-7.067-8.835-11.234-1.489-2.608-2.55-5.395-3.847-8.093-.785-1.633-1.318-3.387-2.125-4.983-.006.045-.048.077-.048.124-.042 1.709-.054 3.434.005 5.188.148 4.576 1.012 9.948 2.512 15.646 2.738 4.248 6.215 8.082 10.116 11.212 5.646 4.531 12.186 7.854 19.215 9.631.137.033.288.067.429.103z" fill="#c0ffa8"/><path d="m809.253 735.312c16.577-3.653 32.819-8.646 48.464-15.181-.053-1.16-.105-2.318-.158-3.465-.144-3.088-.283-6.132-.404-9.123-.021-.487-.311-.924-.754-1.129-.175-.083-.363-.123-.551-.123-.283 0-.566.094-.798.274-3.325 2.572-6.706 4.375-8.956 5.437-20.057 9.454-43.699 12.698-68.189 15.439-49.963 5.593-99.291 8.828-146.612 9.615-5.28.086-10.544.129-15.797.129-54.519 0-106.651-4.604-150.458-9.107-24.695-2.541-48.592-5.536-69.455-14.153-5.529-2.282-10.053-4.729-13.444-7.27-.229-.171-.506-.261-.782-.261-.191 0-.385.042-.563.128-.438.209-.725.646-.742 1.131l-.266 6.8c-.068 1.75-.139 3.54-.207 5.325 8.211 4.677 17.412 8.077 25.748 11.122 16.408 5.994 33.498 9.975 50.721 12.781 37.271 6.076 75.346 7.899 113.047 8.88 40.885 1.062 81.82.185 122.619-2.629 39.239-2.703 79.067-6.14 117.537-14.62z" fill="#d7bd8c"/><path d="m749.072 1007.648c-19.945 16.055-45.725 22.451-70.617 25.789-29.926 4.01-60.428 4.689-90.533 2.602-23.62-1.643-48.216-4.871-69.859-15.057-12.137-5.711-22.921-13.484-31.637-23.729-6.683-7.855-11.801-16.887-18.034-25.021 3.105 17.949 8.055 35.758 18.81 44.805 39.09 32.875 101.779 36.426 126.918 36.426l2.898-.014c67.727-.654 112.393-12.951 132.75-36.559 5.185-6.014 8.972-13.279 11.877-21.168-3.92 4.247-8.053 8.292-12.573 11.926z" fill="#aa4153"/><g fill="#50a76e"><path d="m588.331 727.709c.36.913.769 1.923 1.142 2.865 4.995.069 10.012.168 14.957.168h.736c.45-.002.866-.231 1.105-.611.24-.38.268-.854.073-1.259-25.743-53.736-39.478-118.194-43.226-202.853-2.694-60.857 1.495-113.971 12.723-160.947-12.624 22.556-19.586 51.368-24.083 71.051-10.304 45.105-8.585 92.359-2.242 137.856 7.213 51.729 19.619 105.087 38.815 153.73z"/><path d="m547.642 729.274c.021 0 .042.002.065.002.521 0 .996-.313 1.2-.796.216-.504.093-1.086-.306-1.462-9.492-8.92-15.671-22.014-21.124-33.567l-.212-.45c-8.816-18.673-15.398-34.418-20.712-49.547-12.093-34.43-20.895-72.459-26.159-113.033-4.4-33.908-4.078-65.187.936-94.888-2.64 11.541-4.646 22.862-6.262 33.339-7.727 50.116-1.658 100.315 9.889 149.318 8.177 34.694 23.33 75.357 45.822 110.027 5.619.376 11.237.771 16.863 1.057z"/><path d="m630.471 729.765c4.345-8.581 6.463-18.529 8.512-28.151.665-3.123 1.32-6.201 2.039-9.163 4.072-16.762 7.566-34.2 10.387-51.827 5.531-34.564 9.795-70.89 12.674-107.972 5.106-65.767 3.991-120.733-3.539-169.599-3.84 27.771-3.628 57.68-5.263 84.547-2.755 45.255-6.618 90.439-11.081 135.555-4.183 42.261-9.869 84.514-18.03 126.194-1.392 7.108-2.925 14.174-4.499 21.229 2.555-.038 5.109-.045 7.663-.099.482-.008.919-.283 1.137-.714z"/><path d="m659 729.798c4.418-.107 8.797-.193 13.235-.321.304-.009.596-.124.825-.326 9.719-8.581 15.752-21.144 21.074-32.228l3.647-7.573c4.642-9.618 9.44-19.563 13.884-29.458 16.273-36.241 26.032-69.252 29.828-100.915.07-.573-.245-1.122-.775-1.354-5.563-2.415-10.309-5.605-14.275-9.521-1.621 13.204-3.75 26.343-6.674 39.358-9.289 41.362-26.395 80.037-46.133 117.347-4.452 8.414-9.476 16.705-14.636 24.991z"/><path d="m738.596 438.657c-3.974-25.444-9.91-48.569-17.787-69.889 3.171 27.146 7.818 54.294 9.042 81.736 2.597-3.741 5.41-7.361 8.433-10.779.255-.292.37-.683.312-1.068z"/></g><g fill="#50a76e"><path d="m774.412 563.57c-.004 0-1.082.007-1.082.007-4.501 0-8.893-.279-13.08-.81-2.82 12.612-6.053 25.16-9.743 37.631-13.263 44.839-32.826 87.633-55.83 128.253 3.52-.146 7.034-.247 10.558-.421.414-.02.791-.233 1.021-.577 29.9-44.632 52.607-97.77 69.42-162.448.102-.394.016-.812-.233-1.131-.248-.317-.629-.504-1.031-.504z"/><path d="m782.996 411.615c.188-.307.244-.678.152-1.025-3.553-13.423-8.343-25.995-14.309-37.729 1.705 14.007 2.665 28.225 3.182 42.324 3.355-1.295 6.735-2.301 10.121-2.982.354-.068.663-.283.854-.588z"/></g><g fill="#c0ffa8"><path d="m417.354 531.305c-6.451-48.5 1.449-95.294 23.883-138.738 12.156-23.544 29.717-44.699 47.449-64.161 5.26-5.772 11.186-11.205 17.124-16.672-1.653-1.079-3.313-2.194-4.987-3.413-.229-.166-.5-.252-.77-.252-.242 0-.483.067-.697.202-75.715 47.847-108.52 127.803-90.002 219.361 5.23 25.864 13.42 49.68 23.68 71.86-7.198-22.336-12.624-45.202-15.68-68.187z"/><path d="m538.732 323.602c-3.407 0-7.027-.494-10.762-1.473-.111-.027-.221-.043-.331-.043-.38 0-.747.167-.999.463-7.173 8.496-12.297 20.441-16.819 30.98-1.165 2.715-2.296 5.352-3.421 7.834-8.701 19.22-15.195 38.063-19.307 56.01-8.799 38.421-10.157 76.738-4.155 117.143 6.491 43.728 14.625 78.23 25.597 108.59 1.124 3.112 2.258 6.051 3.387 9.033-9.713-31.369-15.291-64.206-18.59-96.585-4.857-47.669-4.83-96.485 6.822-143.144 6.588-26.381 18.119-50.973 31.432-74.557 2.768-4.904 6.085-9.669 9.572-14.402-.804.057-1.598.151-2.426.151z"/><path d="m747.338 559.986c-.769-.234-1.596-.41-2.343-.666-.14-.047-.28-.072-.425-.072-.24 0-.481.067-.69.198-.333.209-.556.556-.604.946-4.062 32.296-14.16 66.192-30.014 100.745l-1.979 4.319c-.364.796-.751 1.612-1.117 2.413 9.234-13.508 16.945-28.146 22.898-45.162 6.989-19.978 11.455-41.22 14.274-62.721z"/><path d="m707.83 315.414c-2.373 1.07-4.768 2.101-7.196 3.031-.36.138-.642.43-.767.795-.127.363-.084.766.114 1.097 19.382 32.248 32.828 70.774 39.97 114.509.079.483.426.884.893 1.032.131.042.264.063.396.063.344 0 .682-.137.931-.391 1.72-1.752 3.479-3.396 5.257-4.973-2.617-17.104-6.404-34.04-11.607-50.707-6.773-21.69-15.231-44.854-27.991-64.456z"/><path d="m656.762 323.546c-.101-.024-.204-.038-.308-.038-.342 0-.673.135-.922.382-.321.319-.454.784-.349 1.226 14.313 60.129 17.668 127.337 10.564 211.51-3.625 42.882-7.814 77.563-13.191 109.147-2.612 15.345-6.001 31.58-10.238 49.324 21.441-48.351 28.617-103.735 34.408-156.131 5.081-46.006 6.766-91.912 2.062-138.036-2.292-22.458-3.185-50.946-9.788-75.977-4.307-.017-8.429-.48-12.238-1.407z"/><path d="m594.088 315.885c-.034-.002-.068-.005-.1-.005-.537 0-1.025.333-1.219.839-21.96 57.348-31.324 126.515-27.824 205.577 1.281 28.945 3.914 65.112 11.004 103.093-3.863-28.923-5.432-58.202-5.502-87.213-.11-45.15 4.439-91.158 13.832-135.297 6.627-31.131 17.646-60.876 30.134-90.01-5.529 2.063-11.21 3.146-16.878 3.146-1.144.001-2.294-.042-3.447-.13z"/></g><g fill="#7a2537"><path d="m428.434 716.279c3.137.537 6.23 1.041 9.184 1.507l2.983.47c22.343 3.555 45.616 6.399 69.176 8.455.036.004.073.007.112.007.488 0 .939-.274 1.164-.715.241-.475.17-1.051-.182-1.451-9.344-10.689-17.719-20.71-25.414-30.354-1.377.362-2.752.69-4.129 1.06-14.047 3.752-37.103 9.751-52.894 21.021z"/><path d="m817.713 714.06c-13.758-18.927-43.665-28.148-64.15-32.927-3.922-.915-7.889-1.702-11.873-2.436-8.072 16.579-16.802 32.341-26.23 46.9-.268.414-.281.942-.033 1.367.236.402.665.65 1.129.65.024 0 .051-.003.076-.003 38.646-2.293 69.72-6.354 97.794-12.783 1.088-.249 2.185-.505 3.287-.768z"/></g></g><path d="m864.693 693.817c.01-.299.005-.599-.008-.901-.003-.317-.01-.652-.01-.968 0-.896-.256-1.614-.613-2.239-.596-1.794-1.588-3.632-3.18-5.507-22.6-26.636-69.164-34.369-102.425-40.116 10.323-25.992 18.725-52.778 25.616-79.733 33.449-3.384 64.396-22.664 76.318-55.825 13.815-38.423-11.833-82.154-48.336-95.363-7.056-2.555-14.064-3.553-20.919-3.311-10.673-41.508-32.792-75.854-66.447-102.174 25.346-16.742 42.428-43.193 43.752-74.285 2.73-64.09-72.646-68.719-110.363-35.266-3.762-15.975-10.504-30.886-20.537-42.533-28.801-33.436-72.673-12.23-92.621 17.75-5.162 7.761-8.884 15.941-11.389 24.32-17.313-14.668-41.266-24.143-62.846-11.783-25.709 14.72-28.076 42.023-17.521 67.838 5.761 14.09 21.063 34.387 39.281 49.709-38.798 25.271-65.73 58.042-80.865 96.278-50.852-18.426-79.607 20.939-78.033 69.502 1.055 32.509 33.58 81.161 70.174 70.894 8.967 39.94 26.139 75.979 47.928 109.649-21.014 5.759-68.072 22.093-76.715 39.98-1.373.659-2.441 1.919-2.447 3.904-.18 46.179-9.768 105.983 33.436 136.71 10.512 7.477 22.979 11.497 35.828 13.99 3.076 34.435 8.723 68.45 15.268 102.384 4.97 25.755 6.748 55.231 24.514 75.829 28.789 33.379 95.104 38.041 135.473 38.803 46.082.873 102.113-8.373 138.288-38.803 19.257-16.199 20.089-53.424 24.509-75.829 6.662-33.783 12.16-67.763 15.238-102.066 11.866-2.177 23.48-5.329 34.389-10.458 48.677-22.896 35.644-97.338 35.263-140.38zm-22.263-12.903c31.729 18.431-12.379 28.997-28.297 32.642-31.63 7.243-64.559 10.794-97.578 12.753 15.041-23.229 27.691-47.926 38.361-73.498 30.292 5.421 60.681 12.518 87.514 28.103zm-287.545 47.42c-.131-.254-.334-.501-.621-.724-10.825-8.39-16.858-21.688-22.852-33.669-8.301-16.591-15.349-33.838-21.649-51.279-12.597-34.86-20.099-71.738-25.534-108.338-5.84-39.315-4.737-77.9 4.139-116.658 4.396-19.199 11.109-37.846 19.223-55.765 5.498-12.139 11.184-28.01 20.05-38.509 15.317 4.005 29.9.52 40.478-15.93 6.992 4.925 14.138 7.853 21.205 9.107-25.246 66.286-30.619 139.184-27.508 209.508 3.045 68.749 13.355 140.735 43.352 203.358-16.779.012-33.543-.361-50.283-1.101zm55.352 1.084c-31.104-63.688-40.886-137.097-43.988-207.181-3.044-68.815 2.938-140.29 27.739-205.051 12.953.985 25.436-3.501 35.943-11.417 5.889 8.831 13.237 14.435 21.434 17.479 16.739 68.434 16.84 139.429 11.414 209.301-2.799 36.068-6.943 72.144-12.66 107.866-2.779 17.373-6.213 34.63-10.365 51.726-2.908 11.966-4.77 25.817-10.447 37.034-6.358.136-12.715.212-19.07.243zm32.177-29.046c4.402-18.034 8.313-36.075 11.43-54.382 6.152-36.143 10.119-72.737 13.204-109.256 5.958-70.594 5.887-142.68-10.594-211.92 12.673 3.08 26.835.994 40.247-3.561 21.777 35.994 34.139 76.194 40.604 117.605-12.926 14.609-22.217 32.688-25.625 49.298-4.363 32.138 1.844 59.083 28.52 70.664-4.201 35.021-15.313 68.442-29.726 100.535-5.583 12.433-11.614 24.713-17.515 37.002-5.336 11.11-11.324 23.48-20.762 31.814-12.683.361-25.295.629-37.773.908 3.992-9.04 5.68-19.244 7.99-28.707zm208.199-234.447c-9.537 21.346-32.32 38.71-51.611 49.765-20.033 11.481-50.311 24.749-73.977 20.739-1.992-3.016-3.41-6.356-4.367-9.909 6.596-25.919 22.965-47.884 44.096-64.049 19.872-15.199 49.332-27.063 74.465-19.827 5.104 6.897 8.959 14.864 11.394 23.281zm-156.665 238.763c7.317-14.036 13.901-28.623 20.501-43.006 14.749-32.146 25.703-65.991 30.121-101.127 4.54 1.561 9.574 2.746 15.196 3.477 4.868.634 9.767.891 14.646.846-14.818 57.008-36.34 112.938-69.24 162.05-8.768.43-17.529.771-26.268 1.048 6.223-6.815 10.772-15.094 15.044-23.288zm157.562-198.609c-8.588 32.277-45.14 48.33-75.514 49.853-14.669.735-29.313-3.314-41.846-10.771-1.799-1.07-3.344-2.307-4.768-3.62 23.325 1.709 48.861-9.894 68.798-20.164 19.933-10.267 42.592-27.701 54.087-48.593 2.207 11.227 2.024 22.838-.757 33.295zm-47.282-85.425c12.172 1.914 22.264 7.853 30.114 16.118-23.854-4.223-49.819 6.532-69.117 19.703-20.924 14.279-37.762 35.441-46.237 59.412-.526-8.622.528-17.583 1.574-25.28 7.735-37.7 42.231-76.464 83.666-69.953zm-87.703-107.767c33.293 24.893 54.807 58.162 65.361 98.037-15.102 3.039-29.102 11.952-40.646 23.71-6.607-40.455-18.954-79.717-40.139-114.97 3.933-1.508 7.782-3.195 11.477-5.019 1.262-.623 2.482-1.304 3.715-1.97.082.068.145.147.232.212zm40.985-94.449c16.372 54.767-83.711 140.47-120.602 81.294 7.93-7.844 14.241-17.744 18.03-28.554 6.51-18.565 8.376-40.921 5.208-62.268 27.094-28.725 83.549-36.675 97.364 9.528zm-126.482-56.329c22.141 21.742 23.216 63.287 18.729 91.633-5.658 35.762-40.263 71.756-77.109 45.687-28.314-26.909-41.004-64.923-28.91-102.501 11.736-36.469 53.877-67.633 87.29-34.819zm-163.178 99.495c-13.303-19.5-18.704-48.629 2.562-64.949 19.833-15.22 44.901-3.747 60.673 11.176-5.857 33.062 6.658 68.018 30.195 93.15-25.024 41.411-77.499-16.024-93.43-39.377zm32.203 47.771c7.43 5.408 15.158 9.811 22.807 12.529-7.604 9.869-12.096 22.896-17.435 33.826-8.2 16.789-14.472 34.492-19.427 52.488-11.076 40.245-12.248 81.135-6.898 122.37 4.975 38.331 13.409 76.816 26.222 113.297 5.95 16.939 13.103 33.446 20.765 49.673 5.604 11.873 11.826 25.205 21.621 34.411-8.316-.423-16.625-.944-24.927-1.563-.142-.221-.2-.452-.387-.663-52.495-59.151-95.778-119.344-111.761-198.37-17.856-88.279 12.814-169.59 89.42-217.998zm-151.346 121.535c13.66-10.627 38.734 1.205 51.791 8.222-3.807 21.416-4.578 44.06-2.168 67.716-29.174-2.698-50.211-34.018-54.273-61.487 1.037-5.202 2.607-10.039 4.65-14.451zm59.723-22.581c-2.899 8.448-5.275 17.126-7.07 26.049-13.1-6.877-33.578-15.683-48.621-10.704 11.076-16.531 30.609-24.033 55.691-15.345zm-65.835 55.841c-.056-1.729-.045-3.429-.005-5.113 8.246 25.835 29.016 50.446 56.285 52.443.793 6.679 1.85 13.236 3.086 19.705-33.943 11.972-58.529-41.175-59.366-67.035zm114.401 193.738c15.868 23.456 33.909 45.781 52.893 67.503-23.094-2.015-46.131-4.792-69.084-8.443-18.105-2.883-41.311-5.998-56.078-17.756-16.727-13.315 55.757-36.703 72.269-41.304zm315.557 277.9c-4.756 25.316-6.357 60.034-23.775 80.231-27.397 31.77-93.725 35.738-131.773 36.105-42.332.406-95.639-8.078-128.961-36.105-18.326-15.414-19.562-58.384-23.775-80.231-5.743-29.764-10.382-59.705-13.148-89.896 7.59 1.091 15.177 1.815 22.449 2.551 46.693 4.717 93.639 6.726 140.555 6.997 44.049.254 88.092-1.776 131.982-5.403 13.016-1.075 26.385-2.001 39.563-3.863-2.78 30.114-7.533 59.897-13.117 89.614zm41.086-105.056c-26.603 9.298-57.195 9.354-84.982 11.484-38.102 2.916-76.328 4.011-114.533 4.014-35.272 0-70.533-1.531-105.714-4.014-29.962-2.114-62.714-2.451-90.384-15.517-42.934-20.27-38.229-76.746-36.668-119.02 3.357 2.515 7.838 4.999 13.729 7.433 21.686 8.956 46.625 11.856 69.82 14.242 55.768 5.734 110.229 9.917 166.41 8.986 48.977-.814 98.063-4.174 146.736-9.622 22.734-2.546 47.724-5.716 68.6-15.557 3.016-1.421 6.274-3.323 9.197-5.586 1.878 46.167 8.156 105.552-42.211 123.157z" fill="#68182b"/></g></g></svg>