<svg id="Travel" height="512" viewBox="0 0 1000 1000" width="512" xmlns="http://www.w3.org/2000/svg"><g><path d="m723.886 181.079c3.71-2.004 22.363-10.67 26.566-13.565 29.536-20.344 64.918-30.59 93.746-37.122 33.533-7.602 30.484-34.938 11.867-47.737-46.328-31.833-99.82-48.635-154.996-48.635-38.979 0-77.79 8.19-115.354 24.348-60.956 26.22-112.441 72.531-145.112 129.623-38.403-46.568-91.814-76.059-153.411-84.082-49.552-6.453-138.138 2.675-217.704 77.26-19.631 18.408-9.458 46.947 20.289 44.331 7.619-.668 15.182-1.006 22.543-1.006 43.16 0 94.01 14.341 124.154 39.41 5.777 4.291 12.328 9.15 20.715 12.734l.662.28c14.877 6.357 16.106 7.722 17.026 13.316 1.997 12.17 8.609 20.652 13.926 27.465 1.046 1.34 10.587 15.01 13.913 20.502-8.869-.916-17.63-1.377-26.233-1.377-65.874 0-120.872 26.377-159.046 76.279-48.295 63.141-56.86 154.78-22.746 240.258 10.75 26.947 34.247 25.576 48.116 3.625 14.399-22.785 34.166-41.635 50.087-55.73 14.2-12.572 29.872-23.908 41.94-32.381 1.578-1.107 3.139-2.134 4.666-3.138 21.563-14.194 22.915-21.048 28.878-34.08.198.043.407.088.627.14 8.695 2.045 21.543 3.021 30.904-1.597 24.981-12.311 47.153-21.198 67.786-27.102-24.068 72.68-41.731 149.158-52.604 227.867-5.127 37.119-6.368 76.084-3.69 115.813 3.535 52.463 26.58 89.611 66.638 107.424 16.834 7.486 39.819 11.779 63.063 11.779 22.029 0 62.856-3.908 88.771-30.08 13.521-13.658 20.563-31.457 20.363-51.467-.454-45.346-3.886-91.016-7.202-135.182-5.146-68.521-10.448-139.119-4.368-208.42 20.977 6.313 35.486 5.748 50.963 3.265 21.034 21.069 38.701 29.069 53.919 31.236.837 1.428 1.918 5.573 2.646 8.372 2.016 7.736 4.522 17.363 11.571 26.533 27.614 35.916 46.512 80.974 56.166 133.916 3.81 20.886 29.189 25.677 41.676 11.438 62.72-71.438 82.517-162.484 54.308-249.795-15.368-47.58-51.619-107.174-107.188-137.853 5.332-4.391 9.476-10.469 12.094-17.781 13.511.003 22.844.337 38.663-9.201 39.945-18.074 83.255-27.238 128.729-27.238 8.657 0 17.424.346 26.129 1.03 30.002 2.36 41.351-22.896 24.318-42.669-47.214-54.843-126.273-89.284-208.774-91.006z" fill="#fff"/><g><path d="m918.397 285.541c-53.045-62.274-146.607-92.427-230.8-83.368 5.904-7.346 11.918-14.436 12.748-24.184.996-11.705 29.583-20.117 39.002-26.604 30.321-20.884 66.151-32.352 101.809-40.379 9.851-2.218 12.592-6.226 3.072-12.725-75.504-51.538-166.902-58-250.774-21.925-66.026 28.397-121.416 83.238-149.849 149.381-35.347-57.066-91.854-93.676-158.941-102.414-74.63-9.719-148.396 21.942-202.09 72.42-9.062 8.521-2.343 10.982 3.621 10.419 55.117-5.207 107.448 5.612 154.044 36.373 8.419 5.562 15.339 12.117 24.646 16.094 14.74 6.302 26.465 11.066 29.314 28.435 1.508 9.197 8.278 15.914 13.544 23.197 8.198 11.336 15.289 23.443 21.94 35.739 1.693 3.128 1.94 5.824 1.561 8.853-.317 2.545-.523 5.109-.611 7.69-75.19-16.582-149.248-.813-197.643 62.457-48.484 63.381-48.581 150.736-19.568 222.462 3.245 8.023 7.864 7.116 11.656.942 14.557-23.703 34.07-43.427 54.832-61.808 13.783-12.207 28.611-23.179 43.667-33.746 8.129-5.709 15.828-9.467 21.23-17.826 8.219-12.715 6.896-27.406 28.671-22.289 5.707 1.34 12.23 2.631 17.771-.1 31.442-15.493 64.25-28.752 98.842-34.803 4.806-.842 6.677 1.12 5.467 4.498-28.999 80.975-49.362 166.525-61.075 251.313-5.085 36.813-6.05 74.754-3.551 111.815 2.637 39.134 17.85 74.306 55.056 90.851 43.962 19.551 145.324 14.861 144.659-51.68-1.242-124.246-24.92-247.796-8.626-371.839 6.467 3.517 13.475 6.515 21.034 8.908 16.916 5.355 35.005 5.578 51.802 1.351 15.113 11.522 29.719 29.646 49.087 32.36 24.886 3.49 16.833 26.631 29.336 42.896 31.393 40.828 49.892 89.328 59.394 139.581 1.291 6.818 5.516 7.956 10.356 2.316 55.336-64.535 74.635-146.688 48.244-228.383-19.206-59.455-65.918-121.531-128.383-139.316 8.52-6.536 17.22-12.803 26.194-18.791 3.587-2.393 5.941-6.313 7.342-10.293 5.037-14.342 17.52-13.289 29.381-12.647 6.528.354 14.093-5.158 19.593-7.646 52.447-23.73 110.299-32.628 167.439-27.64 6.53.572 11.625-2.82 5.557-9.945z" fill="#68182b"/><g fill="#abff1d"><path d="m109.081 195.738c48.051-.734 95.727 10.829 135.806 38.847 13.177 9.211 24.962 15.682 40.163 21.281 6.458 2.381 10.591 6.152 14.191 11.82 3.061 4.814 2.455 11.611 3.841 16.928 2.231 8.586 7.751 13.91 12.616 20.998 7.045 10.264 13.534 20.766 19.6 31.585 9.638-28.388 33.057-51.963 61.56-61.367 3.89-1.282 3.862-2.644 2.279-5.974-11.074-23.298-26.376-46.474-46.189-62.649-24.256-19.799-54.84-34.816-85.612-41.061-53.308-10.815-110.687.738-159.264 24.963-6.466 3.224-3.369 4.696 1.009 4.629z"/><path d="m897.526 277.047c-69.185-65.48-189.006-86.316-275.405-48.715-2.894 1.259-3.114 3.253-1.3 5.804 5.57 7.828 9.771 16.32 12.55 25.188 1.225 3.907 1.683 4.514 5.803 2.201 17.122-9.607 36.433-13.716 56.005-16.117 26.08-3.205 52.88-3.299 79.041-.92 25.082 2.277 50.648 6.026 74.42 14.631 16.075 5.823 31.523 13.079 47.037 20.202 4.16 1.91 5.125.828 1.849-2.274z"/><path d="m176.676 458.985c39.596-42.707 100.59-73.896 159.939-65.369-2.409-6.836-4.148-14.041-5.253-21.496-72.085-16.758-148.884-2.885-193.114 61.238-36.879 53.47-43.274 119.615-26.423 180.963 2.126 7.743 3.129 6.605 3.546-1.831.326-6.602.981-13.117 1.7-19.216 1.97-16.709 5.309-33.285 10.783-49.221 10.57-30.756 26.583-61.084 48.822-85.068z"/><path d="m659.176 381.001c-2.267-.624-5.832-1.033-9.469 1.962 6.455 12.041 10.436 25.451 11.798 39.182.32 3.217 1.564 4.812 3.942 5.758 45.624 18.15 73.029 73.647 83.733 118.286 14.03 58.495 8.542 115.289-4.215 172.813-1.363 6.149-.994 5.656 2.471 1.007 45.329-60.869 60.521-138.034 33.072-211.149-20.573-54.799-62.349-111.627-121.332-127.859z"/><path d="m817.246 92.66c-71.124-38.548-155.837-40.738-229.83-3.358-73.202 36.978-131.086 102.519-149.438 183.396 7.539 1.213 14.891 3.211 21.891 5.971 4.231-36.746 31.98-70.184 66.531-80.748 26.261-45.7 67.072-77.905 117.404-94.95 30.226-10.239 62.266-17.054 94.287-17.101 26.286-.039 52.165 3.386 77.699 8.945 4.47.974 5.339-.05 1.456-2.155z"/></g><g fill="#b3d245"><path d="m616.964 359.677c-31-18.58-69.13-19.638-100.4-.951-.361.217-.704.262-1.057.371-.005.09.004.174 0 .264-.864 15.601-5.831 31.933-13.947 46.73-8.49 34.871 31.754 65.186 62.916 72.133 17.746 3.959 36.968 4.574 54.408-1.34 6.19-2.098 11.428-4.977 16.036-8.497 12.072-9.225 15.662-17.194 16.587-29.855 2.23-30.528-6.35-61.959-34.543-78.855z"/><path d="m468.736 282.679c11.87 6.045 22.313 14.325 30.323 24.508 23.784 16.159 55.115 9.479 76.291-10.566 10.698-10.123 19.785-22.896 23.165-37.463 1.051-4.529 1.721-9.672 1.765-14.908.073-9.138-1-29.156-27.334-35.767-51.715-12.988-100.654 20.584-104.21 74.196z"/><path d="m605.664 342.907c18.203-20.428 31.296-50.611 21.253-77.873-4.229-11.482-11.22-23.84-20.282-34.188-2.545-2.905-3.288-1.529-2.596 2.145 1.246 6.598 1.287 13.463.391 19.595-2.645 18.117-12.137 35.121-25.823 47.291-20.989 18.668-49.439 26.951-73.635 15.972 5.774 9.758 9.478 20.844 10.379 33.059 26.611-14.47 61.573-17.485 90.313-6.001z"/><path d="m553.074 514.599c36.717 5.734 77.898-6.9 91.821-43.325 1.295-3.39 2.958-7.93-3.28-2.237-6.007 5.483-12.984 9.814-21.51 12.288-20.597 5.979-42.873 6.117-63.405-.43-28.172-8.983-60.685-34.846-60.819-65.467-4.144 6.161-8.859 11.922-14.072 17.104 2.274 40.804 29.153 75.487 71.265 82.067z"/><path d="m467.105 427.098c-54.367 13.439-123.266-42.266-116.677-95.799.375-3.049-1.308-3.766-2.671-.95-5.201 10.74-8.119 22.832-7.983 35.94 4.433 44.683 43.871 94.007 94.415 81.164 12.224-3.104 23.989-8.937 34.36-16.748 5.565-4.191 4.401-5.051-1.444-3.607z"/><path d="m425.476 280.944c-14.038.726-27.476 4.436-39.378 10.588-14.728 7.615-26.174 19.543-29.819 33.346-15.745 59.606 76.615 127.22 130.802 87.837 12.062-15.146 19.59-33.674 19.215-53.355-.59-30.858-17.736-58.305-43.886-71.012-.361-.101-.677-.271-.995-.455-10.691-5-22.802-7.629-35.939-6.949z"/></g><g fill="#a4603f"><path d="m388.353 533.465c-10.435 34.059-19.398 68.651-26.985 103.436-1.755 8.046-.168 12.131 4.128 16.794 32.54 35.317 92.275 41.789 136.119 25.39 6.182-2.313 8.348-5.29 7.897-13.812-1.756-33.313-2.607-66.627-1.125-100.107-35.462 13.058-99.222 2.581-120.034-31.701z"/><path d="m510.651 685.245c-49.103 20.943-117.192 14.017-153.66-27.373-3.009 14.878-5.863 29.765-8.404 44.641-3.641 21.318-6.163 42.336-7.664 63.519-.606 8.563.887 13.451 6.423 19.709 37.143 41.985 114.82 38.486 163.286 19.627 6.191-2.411 7.451-6.1 6.955-15.12-1.937-35.168-4.774-70.105-6.936-105.003z"/><path d="m382.111 924.313c31.901 16.088 76.737 19 109.253 2.521 42.584-21.587 29.089-68.285 27.565-108.455-.081-2.134-.193-4.259-.285-6.39-52.665 22.1-138.174 26.22-179.019-21.102-.181 5.441-.319 10.896-.369 16.393-.375 41.227.278 95.566 42.855 117.033z"/><path d="m474.501 448.268c-.919-4.702-1.929-7.209-8.225-3.107-12.961 8.442-27.859 13.39-43.945 12.925-3.806-.11-7.878-.45-9.818 4.637-6.145 16.12-11.892 32.441-17.286 48.913-2.704 8.255-2.857 11.325 1.514 18.174 18.183 28.48 75.29 37.833 106.09 27.682 4.469-1.472 6.255-5.013 6.795-12.489.9-12.437 2.138-24.897 3.84-37.4-20.48-13.838-34.015-34.003-38.965-59.335z"/></g><g fill="#adad38"><path d="m564.476 478.224c17.746 3.959 36.968 4.574 54.408-1.34 6.19-2.098 11.428-4.977 16.036-8.497 7.89-6.029 12.144-11.53 14.411-18.146-27.51 22.569-69.866 11.035-88.304 3.771-19.938-7.855-31.751-26.588-35.055-47.229-2.732-17.08 3.524-36.334 2.237-53.977-3.966 1.688-7.857 3.657-11.646 5.921-.361.217-.704.262-1.057.371-.005.09.004.174 0 .264-.864 15.601-5.831 31.933-13.947 46.73-8.489 34.871 31.755 65.185 62.917 72.132z"/><path d="m605.664 342.907c9.693-10.878 17.936-24.522 22.009-39.019-2.114 1.526-4.248 3.026-6.45 4.427-9.46 6.018-19.883 10.139-30.86 12.383-11.956 2.445-24.508 2.494-36.55.596-3.607-.569-7.182-1.363-10.703-2.344-12.798 3.064-26.003 2.405-38.138-3.102 5.774 9.758 9.478 20.844 10.379 33.059 26.611-14.469 61.573-17.484 90.313-6z"/><path d="m519.202 459.448c-13.459-11.923-23.248-27.253-23.321-44.019-4.144 6.161-8.859 11.922-14.072 17.104 2.274 40.803 29.153 75.486 71.266 82.066 3.815.596 7.681.981 11.557 1.175-21.637-13.018-39.742-30.586-45.43-56.326z"/><path d="m434.188 447.454c12.224-3.104 23.989-8.937 34.36-16.748 5.566-4.192 4.402-5.053-1.443-3.608-16.502 4.079-34.34 1.78-51.002-4.887-8.427.934-16.973.75-25.245-.969-11.984-2.485-23.631-7.813-32.992-15.764-4.9-4.161-8.794-8.83-12.032-13.922 13.605 35.775 47.319 66.325 88.354 55.898z"/><path d="m499.059 307.187c20.401 13.861 46.35 10.906 66.684-2.862-.303 0-.605.002-.908-.006-13.797-.441-27.771-3.883-40.199-9.91-12.208-5.918-23.273-14.295-32.229-24.492-5.769-6.565-10.175-14.737-12.979-22.994-.044-.129-.077-.26-.118-.39-5.932 10.509-9.682 22.697-10.574 36.147 11.87 6.044 22.313 14.325 30.323 24.507z"/><path d="m356.006 351.824c11.365 50.519 85.007 94.373 131.075 60.892 12.062-15.146 19.59-33.674 19.215-53.355-.064-3.35-.335-6.657-.779-9.912-24.961 55.473-106.56 77.226-149.511 2.375z"/></g><g fill="#83391c"><path d="m440.035 477.943c3.3-2.041 8.836-1.521 12.665-2.449 9.105-2.208 18.323-6.922 25.46-13.589-1.511-4.361-2.736-8.908-3.66-13.637-.919-4.702-1.929-7.209-8.225-3.107-12.961 8.442-27.859 13.39-43.945 12.925-3.806-.11-7.878-.45-9.818 4.637-6.145 16.12-11.892 32.441-17.286 48.913-2.704 8.255-2.857 11.325 1.514 18.174 18.183 28.48 75.29 37.833 106.09 27.682.976-.321 1.816-.748 2.551-1.286-4.394.096-8.788.187-13.211.224-9.934.084-19.943-.324-29.543-3.104-17.904-5.186-31.563-19.539-35.096-38.041-1.742-9.129.703-19.422 5.051-27.494 1.731-3.221 4.194-7.829 7.453-9.848z"/><path d="m409.357 586.196c4.049-7.104 9.064-13.918 15.146-19.403 1.465-1.323 3.037-2.528 4.649-3.685-17.41-6.119-32.511-15.991-40.799-29.644-10.435 34.059-19.398 68.651-26.985 103.436-1.755 8.046-.168 12.131 4.128 16.794 22.497 24.417 57.991 35.038 92.246 33.854-13.74-3.151-26.523-8.829-36.819-19.097-21.73-21.669-26.799-55.524-11.566-82.255z"/><path d="m442.016 800.657c-31.564-9.918-57.157-34.875-61.744-68.438-2.432-17.776-.252-35.381 3.553-52.713-10.031-5.726-19.142-12.904-26.834-21.635-3.009 14.878-5.863 29.765-8.404 44.641-3.641 21.318-6.163 42.336-7.664 63.519-.606 8.563.887 13.451 6.423 19.709 37.143 41.985 114.82 38.486 163.286 19.627 2.915-1.135 4.727-2.563 5.787-4.688-6.555 1.594-13.142 3.021-19.846 3.902-18.212 2.391-36.972 1.602-54.557-3.924z"/><path d="m382.111 924.313c31.901 16.088 76.737 19 109.253 2.521 11.583-5.871 19.01-13.604 23.664-22.554-16.363 6.842-34.11 11.672-51.56 13.422-20.337 2.043-41.87-.051-59.617-10.914-14.697-8.993-26.869-23.481-30.584-40.563-2.043-9.396-1.582-21.617 4.32-29.639 5.337-7.255 14.813-8.837 22.742-12.4-23.791-5.042-45.388-15.554-60.704-33.299-.181 5.441-.319 10.896-.369 16.393-.375 41.227.278 95.566 42.855 117.033z"/></g><g fill="#f79b5a"><path d="m504.899 642.295c1.298 6.482 2.612 13.111 4.443 19.507-1.631-32.11-2.383-64.229-.96-96.5-.032-.033-.063-.069-.096-.101-16.372 5.999-38.741 6.994-60.132 2.964 3.382 2.663 8.598 3.953 12.231 4.98 42.146 11.897 35.674 25.029 44.514 69.15z"/><path d="m509.625 545.002c.9-12.437 2.138-24.897 3.84-37.4-12.109-8.182-21.768-18.593-28.683-30.96 2.573 26.493 20.71 41.448 24.728 69.71.043-.436.082-.885.115-1.35z"/><path d="m518.644 811.989c-22.46 9.425-50.895 15.575-79.291 15.864 1.02.158 2.049.305 3.096.441 6.854.896 13.749 1.645 20.671 1.532 35.526-.563 47.594 7.24 56.669 27.66.81 1.822 1.556 3.679 2.271 5.55-.463-14.742-2.58-30.127-3.131-44.658-.081-2.133-.193-4.258-.285-6.389z"/><path d="m394.78 685.034c1.979 5.662 9.061 9.308 14.057 11.828 7.47 3.767 16.188 5.545 24.403 6.697 55.113 7.73 69.512 6.043 75.481 41.087 1.688 9.897 3.389 20.1 6.668 29.609.465 1.345.965 2.616 1.491 3.842-1.878-31.069-4.316-61.976-6.229-92.853-35.086 14.966-79.861 15.69-115.871-.21z"/></g><g fill="#ceff73"><path d="m192.669 174.942c80.115-10.035 116.44 5.807 164.748 36.119-1.466-1.319-2.95-2.614-4.469-3.854-24.256-19.799-54.84-34.816-85.612-41.061-53.308-10.815-110.687.738-159.264 24.963-6.465 3.224-3.368 4.696 1.01 4.629 2.208-.034 4.416-.032 6.622-.014 6.191-2.53 12.51-4.796 18.8-6.985 18.777-6.535 38.427-11.326 58.165-13.797z"/><path d="m725.705 421.379c65.266 101.59 67.339 161.477 54.655 238.374 17.712-47.741 19.147-100.287.148-150.895-11.678-31.105-30.191-62.861-54.803-87.479z"/><path d="m239.235 368.963c-39.671 7.454-75.667 27.688-100.986 64.395-35.654 51.694-42.812 115.233-28.021 174.832-15.711-125.588 49.813-216.348 129.007-239.227z"/><path d="m773.97 82.233c12.279 2.809 24.439 6.521 36.082 11.375 1.915.391 3.828.791 5.738 1.207 4.47.974 5.339-.05 1.456-2.155-71.124-38.548-155.837-40.738-229.83-3.358-31.022 15.67-59.291 36.473-82.969 61.396 42.483-34.438 125.558-101.378 269.523-68.465z"/><path d="m897.526 277.047c-59.572-56.383-156.686-79.66-237.681-61.037 66.708-7.05 157.11 14.037 230.21 60.726 1.873.862 3.747 1.725 5.621 2.585 4.161 1.91 5.126.828 1.85-2.274z"/></g><g fill="#00ff8a"><path d="m746.594 555.39c-10.111-44.983-34.916-103.142-80.848-122.552-3.319-1.403-3.648-1.285-3.746 2.792-.377 15.404-3.992 30.732-11.066 44.446-8.867 17.193-23.425 29.94-40.459 37.595-4.317 1.94-3.403 2.971-.991 4.798 6.765 5.125 13.414 10.405 19.791 16.002 11.411 10.021 22.419 4.019 33.003 11.287 14.6 10.019 8.976 30.351 18.957 43.899 27.845 37.788 46.182 79.874 56.76 125.079.923 3.944 1.68 2.925 2.414-.342 12.107-53.921 18.526-108.092 6.185-163.004z"/><path d="m126.543 629.676c13.39-18.417 29.599-34.85 46.854-49.592 12.489-10.674 25.313-20.992 38.765-30.438 11.447-8.037 22.917-14.23 28.359-27.781 1.079-2.683 2.978-8.164 4.664-10.604 9.162-13.262 13.571-10.811 30.743-7.406 11.892 2.352 23.906-5.853 34.217-10.273 27.553-11.816 55.583-21.423 85.204-25.908 6.012-.91 5.965-.954 7.732-5.77.742-2.024 1.487-4.047 2.264-6.051-31.668-6.824-55.093-28.504-66.852-57.377-57.931-9.65-120.466 21.18-158.563 63.764-22.03 24.623-39.097 55.114-48.823 86.683-4.829 15.682-8.444 31.807-9.821 48.188-.839 9.996-1.835 21.068-1.242 31.654.514 9.173 3.417 5.151 6.499.911z"/><path d="m826.33 102c-59.232-14.109-118.913-15.721-177.625 4.163-47.33 16.03-86.111 43.678-112.698 84.745-3.236 5.001-2.876 5.051 2.688 4.28 14.215-1.975 29.187-.019 43.894 7.131 9.678 4.705 18.124 10.504 25.301 17.122 3.456 3.188 4.524 3.151 8.742 1.281 18.182-8.054 37.803-13.625 58.145-16.829 7.241-10.525 14.694-18.798 16.965-32.314 1.557-9.243 4.887-13.96 16.147-15.937 11.045-1.939 17.717-6.351 26.811-12.209 28.208-18.183 59-29.913 91.164-38.181 2.487-.638 5.936-1.949.466-3.252z"/><path d="m891.215 285.077c2.823.068 5.261-.419.668-2.564-15.86-7.411-31.71-14.918-48.347-20.28-23.72-7.647-48.727-11.752-73.559-13.479-41.635-2.902-93.29-4.461-130.619 17.955-3.153 1.893-3.287 3.226-2.752 7.178 3.352 24.767-3.782 51.066-22.297 73.085 6.696 3.556 12.95 7.95 18.49 13.323 4.599 4.459 8.604 9.433 12.139 14.722 10.398-8.563 21.009-16.915 32.219-24.396 12.057-8.047 11.26-20.125 20.632-28.785 3.258-3.014 9.421-2.637 13.359-2.043 14.279 2.15 24.888-2.875 37.432-7.971 45.874-18.641 93.672-27.932 142.635-26.745z"/><path d="m117.247 181.668c47.923-21.483 104.243-31.692 154.753-19.188 30.017 7.43 60.601 21.248 84.202 41.471 21.583 18.491 38.1 43.616 49.617 69.435 7.427-1.608 15.114-2.272 22.935-1.8 2.337-10.574 5.387-20.963 9.055-31.128 1.054-2.919.621-5.621-1.318-8.784-35.125-57.325-94.807-96.521-163.001-100.162-57.827-3.086-112.244 15.288-157.819 48.693-3.887 2.848-3.027 3.526 1.576 1.463z"/></g><g fill="#bfffa7"><path d="m843.536 262.232c-23.72-7.647-48.727-11.752-73.559-13.479-31.857-2.221-69.574-3.642-102.258 5.849 1.045-.08 2.089-.173 3.13-.304 8.711-1.096 17.414-2.305 26.145-3.211 18.013-1.866 36.226-.907 54.281.021 35.472 1.828 70.56 7.906 104.488 18.453 9.613 2.985 19.109 6.342 28.461 10.061 3.264 1.297 6.494 2.667 9.713 4.066-.401-.322-1.053-.707-2.055-1.175-15.859-7.412-31.709-14.919-48.346-20.281z"/><path d="m214.49 138.37c19.397-1.51 38.965-1.35 58.32.654 19.417 2.01 38.312 6.521 56.452 13.742 17.48 6.955 34.245 15.813 50.919 24.479 8.292 4.31 16.518 8.777 24.357 13.865-34.657-34.661-80.509-56.901-131.048-59.6-26.141-1.395-51.581 1.609-75.827 8.391 5.602-.593 11.216-1.096 16.827-1.531z"/><path d="m746.594 555.39c-8.664-38.543-28.129-86.737-62.414-111.963 32.296 38.851 61.332 95.57 67.339 208.58 3.105-32.014 2.363-64.187-4.925-96.617z"/><path d="m290.096 399.135c-42.184 7.604-82.581 32.271-110.165 63.104-22.03 24.623-39.097 55.114-48.823 86.683-4.829 15.682-8.444 31.807-9.821 48.188-.592 7.051-1.25 14.638-1.386 22.211 13.196-58.996 23.766-96.767 58.295-138.979 29.118-35.599 48.778-58.741 111.9-81.207z"/><path d="m648.705 106.163c-40.836 13.831-75.3 36.318-101.067 68.604 54.698-46.819 113.518-70.075 204.233-74.753 12.882-.664 25.781-.904 38.679-.845 6.783.031 15.973 1.338 23.947.187-55.34-11.58-110.987-11.754-165.792 6.807z"/></g><g fill="#50a66e"><path d="m701.33 150c-15.407 4.771-18.414 21.882-25.25 35.75-6.535 13.253-41.021 26.794-64.001 14.915-8.483-4.393-17.513-6.938-26.994-7.883-9.333-.929-19.178.033-28.396 2.078 8.587.879 17.288 3.272 25.898 7.459 9.678 4.705 18.124 10.504 25.301 17.122 3.456 3.188 4.524 3.151 8.742 1.281 18.182-8.054 37.803-13.625 58.145-16.829 7.241-10.525 14.694-18.798 16.965-32.314 1.557-9.243 4.887-13.96 16.147-15.937 11.045-1.939 17.717-6.351 26.811-12.209 19.165-12.354 39.525-21.723 60.696-29.058-22.957 1.122-42.936 10.534-60.042 22.865-15.272 11.01-21.118 9.698-34.022 12.76z"/><path d="m708.985 617.288c-6.923-11.93-14.313-23.288-19.122-36.303-3.884-10.508-4.504-21.889-9.572-32.049-5.674-11.381-15.597-14.879-25.785-21.135-2.674-1.642-5.531-3.859-6.203-7.133-.826-4.017 2.032-7.462 4.049-10.604 3.396-5.293 6.445-10.771 8.995-16.523 7.698-17.357 13.101-37.692 11.663-57.197-2.363-1.27-4.776-2.455-7.263-3.505-3.319-1.403-3.648-1.285-3.746 2.792-.377 15.404-3.992 30.732-11.066 44.446-8.867 17.193-23.425 29.94-40.459 37.595-4.317 1.94-3.403 2.971-.991 4.798 6.765 5.125 13.414 10.405 19.791 16.002 11.411 10.021 22.419 4.019 33.003 11.287 14.6 10.019 8.976 30.351 18.957 43.899 27.845 37.788 46.182 79.874 56.76 125.079.143.609.28 1.086.416 1.469-.275-10.063-1.37-20.143-3.001-30.023-4.24-25.683-13.372-50.397-26.426-72.895z"/><path d="m126.543 629.676c13.39-18.417 29.599-34.85 46.854-49.592 12.489-10.674 25.313-20.992 38.765-30.438 11.447-8.037 22.917-14.23 28.359-27.781 1.079-2.683 2.978-8.164 4.664-10.604 9.162-13.262 13.571-10.811 30.743-7.406 11.892 2.352 23.906-5.853 34.217-10.273 27.553-11.816 55.583-21.423 85.204-25.908 6.012-.91 5.965-.954 7.732-5.77.742-2.024 1.487-4.047 2.264-6.051-31.668-6.824-55.093-28.504-66.852-57.377-10.788-1.797-21.734-2.188-32.654-1.364 6.341 3.306 11.084 9.808 14.233 17.079 2.562 5.908 4.737 12.004 8.186 17.482 3.529 5.606 9.96 10.075 12.134 16.438 4.736 13.854-15.536 24.971-24.881 30.799-5.9 3.683-12.006 7.326-18.565 9.709-7.886 2.861-14.711 2.789-22.899 1.865-6.974-.789-14.164-.594-20.665 2.346-6.225 2.813-10.486 7.908-14.39 13.343-8.562 11.909-17.673 22.469-28.616 32.282-20.856 18.703-44.247 34.841-62.348 56.443-9.166 10.941-16.975 22.772-22.343 35.952.283-.383.569-.778.858-1.174z"/><path d="m396.469 222.649c-11.104-2.064-19.57-9.771-28.907-15.502-4.837-2.969-9.847-5.75-14.832-8.459-2.688-1.463-5.585-2.99-8.59-4.084 4.179 2.952 8.221 6.056 12.063 9.347 21.583 18.491 38.1 43.616 49.617 69.435 7.427-1.608 15.114-2.272 22.935-1.8 2.337-10.574 5.387-20.963 9.055-31.128 1.054-2.919.621-5.621-1.318-8.784-4.784-7.808-10.039-15.266-15.694-22.357-.523.985-1.07 1.961-1.698 2.909-5.121 7.714-13.309 12.159-22.631 10.423z"/><path d="m806.228 284.062c-24.441 4.615-47.279 17.584-72.396 18.508-20.478.754-43.931-4.197-60.414 11.322-6.542 6.16-11.313 20.756-21.36 22.063-9.375 1.222-3.513-18.295-3.065-22.871 1.277-13.021-.052-26.563-3.774-39.11-.804-2.71-1.845-5.753-3.104-8.849-.925.517-1.848 1.036-2.756 1.582-3.153 1.893-3.287 3.226-2.752 7.178 3.352 24.767-3.782 51.066-22.297 73.085 6.696 3.556 12.95 7.95 18.49 13.323 4.599 4.459 8.604 9.433 12.139 14.722 10.398-8.563 21.009-16.915 32.219-24.396 12.057-8.047 11.26-20.125 20.632-28.785 3.258-3.014 9.421-2.637 13.359-2.043 14.279 2.15 24.888-2.875 37.432-7.971 37.243-15.133 75.755-24.104 115.129-26.309-5.857-2.291-11.978-3.184-18.245-3.712-13.171-1.108-26.264-.187-39.237 2.263z"/></g><g fill="#d9e538"><path d="m626.917 265.034c-4.229-11.482-11.22-23.84-20.282-34.188-2.545-2.905-3.288-1.529-2.596 2.145 1.246 6.598 1.287 13.463.391 19.595-1.421 9.732-4.833 19.135-9.794 27.648 14.687-12.46 25.993-13.594 35.7 7.221.301-7.521-.713-15.077-3.419-22.421z"/><path d="m641.615 469.038c-6.007 5.483-12.984 9.814-21.51 12.288-20.597 5.979-42.873 6.117-63.405-.43-4.927-1.571-9.985-3.669-14.981-6.208 5.819 6.569 15.607 10.548 23.193 13.535 11.049 4.352 23.225 5.658 34.989 4.287 11.571-1.349 22.681-4.974 32.859-10.646 3.801-2.119 7.361-4.618 10.777-7.309.477-1.072.931-2.165 1.357-3.281 1.297-3.389 2.96-7.929-3.279-2.236z"/><path d="m599.536 253.739c.448-3.045.716-6.249.743-9.489.073-9.138-1-29.156-27.334-35.767-33.72-8.469-66.254 2.861-85.803 26.631 70.249-29.783 105.31-7.67 112.394 18.625z"/><path d="m425.476 280.944c-14.038.726-27.476 4.436-39.378 10.588-7.213 3.729-13.63 8.499-18.738 14.011 28.645-14.179 89.1-18.721 132.862 23.914-7.249-17.945-20.572-32.731-37.812-41.108-.361-.101-.677-.271-.995-.455-10.691-5.001-22.802-7.63-35.939-6.95z"/><path d="m616.964 359.677c-19.689-11.801-42.255-16.521-64.112-13.615 35.65 5.851 75.306 20.15 98.054 68.854-2.932-22.206-13.045-42.716-33.942-55.239z"/><path d="m390.611 407.957c-25.754-18.968-43.695-48.121-40.183-76.658.375-3.049-1.308-3.766-2.671-.95-2.159 4.458-3.917 9.152-5.234 14.052 2.444 31.185 28.124 55.205 48.088 63.556z"/></g><g fill="#97b618"><path d="m178.782 204.065c23.366 6.284 45.719 16.27 66.104 30.52 13.177 9.211 24.962 15.682 40.163 21.281 6.458 2.381 10.591 6.152 14.191 11.82 3.061 4.814 2.455 11.611 3.841 16.928 2.231 8.586 7.751 13.91 12.616 20.998 7.045 10.264 13.534 20.766 19.6 31.585 9.638-28.388 33.057-51.963 61.56-61.367 3.89-1.282 3.862-2.644 2.279-5.974-3.24-6.817-6.854-13.619-10.825-20.242-3.811 5.274-8.385 10.038-13.853 13.583-15.22 9.869-32.815 9.834-47.953.063-7.288-4.704-13.836-10.444-21.009-15.315-8.032-5.447-16.853-9.353-25.695-13.262-18.395-8.142-35.826-18.763-54.976-25.117-13.034-4.327-31.091-8.747-46.043-5.501z"/><path d="m729.113 236.233c-18.931.422-37.778 2.602-56.507 5.287-9.408 1.352-19.367 1.797-28.088-2.779-6.659-3.493-9.695-8.29-12.529-14.386-3.332 1.247-6.626 2.565-9.868 3.977-2.894 1.259-3.114 3.253-1.3 5.804 5.57 7.828 9.771 16.32 12.55 25.188 1.225 3.907 1.683 4.514 5.803 2.201 17.122-9.607 36.433-13.716 56.005-16.117 26.08-3.205 52.88-3.299 79.041-.92 7.555.686 15.152 1.51 22.732 2.555-5.914-2.904-12.188-5.214-18.533-6.862-16.355-4.251-32.564-4.319-49.306-3.948z"/><path d="m642.829 103.312c-5.162 1.18-10.095 3.42-14.952 5.707 4.883-2.056 9.867-3.961 14.952-5.707z"/><path d="m336.615 393.616c-2.409-6.836-4.148-14.041-5.253-21.496-15.131-3.518-30.47-5.679-45.672-6.316-.139.39-.285.778-.447 1.164-3.523 8.383-10.214 15.03-17.425 20.344-16.354 12.041-35.104 20.731-51.883 32.215-16.334 11.178-32.24 24.033-44.078 40.049-5.246 7.101-10.881 15.354-14.605 24.146 5.858-8.762 12.32-17.075 19.423-24.736 39.597-42.708 100.591-73.897 159.94-65.37z"/><path d="m459.868 278.669c4.231-36.746 31.98-70.184 66.531-80.748 20.421-35.537 49.644-62.91 85.297-81.344-5.241 2.497-10.456 5.047-15.642 7.656-17.839 8.979-34.558 18.906-49.932 31.758-15.355 12.834-29.423 29.223-49.776 33.766-7.406 1.651-14.854 1.313-21.624-1.919-17.073 25.587-29.768 54.114-36.745 84.86 7.54 1.213 14.891 3.211 21.891 5.971z"/><path d="m757.783 619.041c1.407-4.692 2.356-9.438 2.896-14.307 1.041-9.422 1.333-18.953 1.072-28.424-.529-19.289-3.509-38.539-8.929-57.059-5.396-18.447-13.103-36.328-22.963-52.834-10.43-17.462-24.137-31.611-36.703-47.414-7.512-9.45-12.762-19.697-15.497-31.383-5.958-2.643-12.12-4.869-18.483-6.62-2.267-.624-5.832-1.033-9.469 1.962 6.455 12.041 10.436 25.451 11.798 39.182.32 3.217 1.564 4.812 3.942 5.758 45.624 18.15 73.029 73.647 83.733 118.286 5.969 24.887 8.396 49.465 8.242 73.923.132-.351.253-.707.361-1.07z"/></g></g></g></svg>