<svg id="Start_Up" height="512" viewBox="0 0 1000 1000" width="512" xmlns="http://www.w3.org/2000/svg"><g><path d="m265.186 846.374c67.057 47.338 147.325 72.357 232.127 72.363h.024c116.441 0 228.309-47.369 307.151-130.23 86.252-94.23 126.49-219.439 110.398-343.523-14.82-114.268-80.797-223.275-176.482-291.596-65.138-46.51-148.826-72.125-235.645-72.125-35.181 0-70.316 4.111-104.424 12.215-111.401 26.47-212.475 107.132-270.374 215.769-47.559 89.24-58.953 193.711-32.081 294.176 26.244 98.127 86.373 184.408 169.306 242.951z" fill="#fff"/><g><path d="m276.478 830.378c157.998 111.531 381.828 83.352 513.567-55.092 81.871-89.443 121.064-207.182 105.422-327.783-14.391-110.957-77.725-213.408-168.439-278.178-92.577-66.102-214.821-82.779-324.166-56.797-111.322 26.453-204.379 106.031-257.62 205.93-94.757 177.797-30.182 397.973 131.236 511.92z" fill="#68182b"/><path d="m430.944 882.077c-15.543-2.707-30.771-6.441-45.639-11.113-13.77-4.33-24.567-11.855-18.811-23.346 10.701-21.375 39.564-24.969 56.533-4.424 6.321 7.658 14.63 15.822 25.446 15.586 22.505-.49 37.677-19.871 38.913-41.582.794-13.934-5.356-27.982-6.537-41.775-2.828-33.018 33.079-6.939 46.3-6.941 28.55 0 47.63-23.803 53.593-49.826 6.938-30.281-7.364-70.377 15.864-95.416 22.743-24.514 48.385 2.359 56.174 23.748 5.764 15.832 7.625 32.572 14.108 48.252 7.508 18.166 21.104 31.855 40.712 35.52 9.061 1.693 18.346.459 27.344-.977 19.393-3.098 35.869-3.195 51.57 3.9 17.963 8.125 10.758 16.672-4.609 33.463-90.204 94.794-222.218 137.347-350.961 114.931z" fill="#b1d045"/><path d="m850.428 335.106c44.496 92.563 47.512 196.424 15.715 289.764-6.059 17.785-12.727 18.592-19.107 5.48-6.025-12.387-8.113-24.672-2.371-41.98 4.971-14.986 11.047-28.357 10.23-44.48-1.723-33.982-38.883-46.877-59.289-67.668-14.211-14.479 4.01-47.883 6.238-65.611 2.504-19.898 2.65-39.633-2.635-59.084-6.824-25.113-28.156-38.389-53.271-33.045-42.973 9.141-68.536 76.852-116.873 37.621-13.427-10.898-22.538-23.736-24.535-41.174-1.317-11.486 8.089-17.59 14.938-24.617 10.869-11.148 14.49-27.832 16.401-42.682 3.85-29.912-9.382-59.266-39.008-68.369-16.213-4.982-33.591-4.836-49.897-9.756-20.658-6.23-23.125-19.971-23.98-35.23-1.126-20.172 2.24-22.154 26.578-19.355 131.967 15.157 242.95 99.716 300.866 220.186z" fill="#b1d045"/><path d="m186.856 273.218c38.906-54.492 90.236-96.104 148.454-123.332 20.325-9.508 30.227-8.93 40.298 3.488 4.293 5.297 7.906 11.082 10.24 17.475 5.332 14.609-5.309 30.283-11.958 42.553-8.599 15.863-14.413 33.059-6.157 50.133 7.106 14.699 26.699 19.031 36.141 31.83 8.02 10.871 3.78 30.656 2.636 43.084-1.72 18.717-5.999 37.143-11.823 54.971-10.618 32.494-29.422 72.324 6.602 96.518 11.509 7.729 32.975 11.594 45.988 5.508 12.911-6.043 16.822-18.311 19.39-31.475 3.893-19.955 17.841-55.342 43.666-30.135 17.063 16.656 23.422 62.025 8.521 80.307-12.088 14.832-33.01 22.17-46.995 35.445-17.076 16.211-13.541 39.375-10.157 60.314 5.774 35.715-12.498 71.814-51.848 75.654-25.844 2.52-31.841-25.254-27.103-44.229 2.997-11.998 7.231-23.176 8.652-35.541 2.201-19.162-11.554-36.418-23.75-49.453-8.262-8.83-16.686-16.707-23.031-27.164-7.807-12.865-5.923-28.711-11.695-42.301-11.949-28.129-38.483-30.982-61.688-12.572-17.87 14.174-26.643 31-33.404 52.465-8.787 27.893-17.885 48.605-37.577 70.504-23.705 26.363-39.808 57.863-16.417 90.152 10.382 14.33 27.564 23.209 42.102 32.545 19.338 12.416 36.597 34.557 31.465 56.346-3.826 16.234-10.89 15.943-22.857 4.457-41.231-39.58-74.241-87.977-95.86-141.408-49.347-121.971-27.432-260.258 48.165-366.139z" fill="#b1d045"/><path d="m292.53 673.028c-19.105 7.125-42.719 3.961-50.494-17.1-8.012-29.449 32.43-32.297 49.999-21.301 6.979 4.369 11.295 11.779 13.696 19.418 3.171 10.083-4.978 15.915-13.201 18.983z" fill="#b1d045"/><path d="m495.901 222.593c22.746 4.439 51.657 11.951 46.048 40.672-3.913 20.047-27.177 45.254-50.937 33.193-14.963-7.594-35.718-29.639-36.179-47.178 1.28-20.062 22.725-30.267 41.068-26.687z" fill="#b1d045"/><path d="m850.905 658.985c-10.65-16.324-24.875-31.699-22.123-52.873 2.025-15.594 9.412-28.99 12.932-44.105 6.539-28.09-10.246-44.281-31.393-59.275-9.682-6.863-23.17-14.68-28.426-25.895-7.678-16.385.842-30.176 4.588-46.791 5.314-23.59 9.914-51.924 1.625-75.457-19.494-55.348-66.186-6.551-93.33 12.104-31.896 21.922-66.849 13.17-89.485-18.563-8.725-12.229-16.962-30.873-10.311-46.006 6.713-15.268 21.94-22.334 26.436-39.68 6.094-23.512 5.655-61.857-23.101-70.693-16.199-4.979-33.438-4.816-49.605-9.691-12.194-3.68-25.243-9.512-31.999-21.078-9.595-16.428-3.267-31.99-7.382-48.52-46.829-.4-92.742 7.078-135.799 21.932 12.714 11.785 26.94 28.543 24.958 46.213-2.436 21.73-19.199 37.383-22.723 58.348-4.352 25.883 20.353 30.848 34.688 46.098 12.912 13.732 9.541 36.564 7.568 53.396-3.332 28.479-11.889 53.072-20.975 79.918-7.623 22.527-11.855 57.334 18.4 65.318 56.538 14.924 25.783-43.193 58.135-62.42 36.116-21.459 57.793 16.271 62.646 47.553 2.62 16.873 5.158 35.803-6.496 50.105-12.476 15.307-31.648 21.637-45.741 35.016-28.36 26.924-.92 58.938-10.402 90.604-5.365 17.916-18.041 34.115-34.656 43.215-16.976 9.293-34.353 12.883-51.853 2.947-13.876-7.881-20.455-26.289-17.791-41.375 2.519-14.264 10.596-28.996 10.6-43.543.005-16.754-9.068-29.746-20.379-41.313-13.204-13.506-28.365-27.877-31.561-47.525-2.163-13.313-5.115-44.297-24.836-43.58-16.195.592-33.688 13.563-41.746 27.264-13.865 23.57-14.882 52.496-29.278 75.648-13.696 22.025-41.539 39.441-47.334 65.742-7.816 35.467 22.214 51.387 46.997 67.996 30.28 20.293 53.579 58.268 25.262 90.77 28.563 23.592 60.35 43.17 94.52 57.705 4.091-24.111 27.837-48.24 54.798-40.822 11.439 3.148 18.687 9.813 23.931 15.795 9.572 10.918 19.667 19.07 32.609 9.459 9.133-6.777 14.102-20.482 12.73-30.877-1.122-8.475-3.513-16.633-4.835-25.053-2.772-17.662 4.862-50.73 31.118-40.361 11.027 4.355 23.213 14.533 35.808 9.336 14.526-5.992 26.939-18.51 30.506-34.074 4.587-20.031 2.224-39.945 3.676-60.197 1.831-25.494 10.695-54.215 40.342-57.635 29.693-3.426 46.117 18.736 53.354 45.244 8.824 32.326 16.24 75.488 59.374 70.348 32.746-3.9 57.592-6.273 84.023 14.555 17.092-23.176 31.525-47.969 43.186-73.855-.456-.376-.883-.807-1.25-1.372zm-558.697 26.162c-17.119 4.111-34.258 3.004-46.711-6.17-12.822-9.447-20.176-28.65-13.306-42.943 12.101-25.162 61.276-25.09 78.163.967 13.414 20.697 6.529 42.217-18.146 48.146zm261.639-422.267c-4.654 23.838-31.031 58.379-61.629 46.625-14.911-5.727-31.965-20.305-41.461-36.805-9.249-16.068-9.177-29.111-1.756-41.406 9.307-15.428 28.656-23.957 47.703-20.24 27.602 5.384 63.981 16.808 57.143 51.826zm156.557 352.492c-22.196-1.139-37.44-15.301-43.791-33.443-8.492-24.26.592-48.111 17.176-68.664 12.971-16.074 30.646-28.395 50.759-27.764 30.506.953 44.301 45.961 43.496 70.814-1.2 37.038-30.991 60.936-67.64 59.057z" fill="#67d5e8"/><path d="m721.949 498.704c27.219-10.504 39.285 23.641 43.395 43.986 5.789 28.654-8.336 51.197-36.127 59.633-35.071 10.643-61.905-20.635-52.584-53.777 7.596-20.994 24.074-41.643 45.316-49.842z" fill="#b1d045"/><path d="m225.942 719.962c-14.537-9.336-31.72-18.215-42.102-32.545-23.391-32.289-7.288-63.789 16.417-90.152 19.692-21.898 28.79-42.611 37.577-70.504 6.762-21.465 15.534-38.291 33.404-52.465 23.204-18.41 49.738-15.557 61.688 12.572 5.772 13.59 3.889 29.436 11.695 42.301 6.346 10.457 14.77 18.334 23.031 27.164 12.196 13.035 25.951 30.291 23.75 49.453-1.421 12.365-5.655 23.543-8.652 35.541-4.738 18.975 1.259 46.748 27.103 44.229 39.35-3.84 57.622-39.939 51.848-75.654-3.384-20.939-6.919-44.104 10.157-60.314 13.984-13.275 34.907-20.613 46.995-35.445 14.9-18.281 8.541-63.65-8.521-80.307-25.825-25.207-39.773 10.18-43.666 30.135-2.567 13.164-6.479 25.432-19.39 31.475-13.014 6.086-34.479 2.221-45.988-5.508-36.023-24.193-17.22-64.023-6.602-96.518 5.824-17.828 10.104-36.254 11.823-54.971 1.145-12.428 5.384-32.213-2.636-43.084-9.441-12.799-29.034-17.131-36.141-31.83-8.256-17.074-2.441-34.27 6.157-50.133 6.649-12.27 17.29-27.943 11.958-42.553-1.627-4.457-3.903-8.6-6.57-12.506 7.288 23.4-7.109 43.943-19.685 62.156-17.389 25.197-16.044 48.053 8.356 64.178 32.324 21.371 35.987 41.867 22.985 80.67-17.061 50.912-49.899 103.174 3.144 142.98 18.408 13.813 43.348 12.412 60.57-2.445 9.471-8.17 14.104-15.721 17.989-21.908 14.185-22.592 34.769-36.977 42.28-1.223 2.401 11.445-3.732 27.42-27.272 40.186-10.946 5.934-27.259 9.535-33.719 20.328-10.276 17.158-5.766 44.998-3.124 63.859 3.454 24.662-3.633 47.307-20.723 59.867-19.976 14.666-41.547 7.139-37.994-18.996 1.981-14.568 11.816-28.9 13.816-43.557 3.658-26.811-24.855-49.574-40.989-65.818-21.724-21.877-9.86-51.557-26.255-76.32-25.968-39.219-78.697-17.887-101.068 13.734-18.828 26.607-11.496 62.471-26.836 90.689-11.419 21.008-40.631 33.008-49.702 55.412-12.665 31.277 3.784 68.283 29.3 85.152 20.859 13.791 58.024 37.994 41.238 70.561.989.969 1.961 1.959 2.959 2.916 11.968 11.486 19.031 11.777 22.857-4.457 5.135-21.788-12.124-43.929-31.462-56.345z" fill="#abab38"/><path d="m454.834 249.28c.461 17.539 21.216 39.584 36.179 47.178 23.76 12.061 47.024-13.146 50.937-33.193 2.332-11.939-1.352-20.18-8.03-26.092 3.558 6.725 4.721 13.99.027 22.604-7.338 13.477-25.336 19.729-39.725 17.361-22.237-3.662-32.548-29.998-25.752-49.736-7.549 4.636-13.011 12.07-13.636 21.878z" fill="#abab38"/><path d="m823.254 481.345c-21.008-18.217-14.311-40.775-9.785-64.764 4.631-24.547 7.242-50.58-1.51-73.877-11.334-30.174-46.387-44.975-77.021-40.783-13.006 1.777-24.358 6.469-35.406 13.459-14.446 9.143-25.444 23.469-43.474 25.307-23.303 2.375-24.432-25.346-20.71-41.1 3.335-14.111 10.948-27 16.04-40.518 15.14-40.211-11.521-77.461-49.772-90.029-25.842-8.492-64.802-8.99-78.53-33.178.953 14.617 3.939 27.627 23.879 33.643 16.307 4.92 33.685 4.773 49.897 9.756 29.626 9.104 42.857 38.457 39.008 68.369-1.911 14.85-5.532 31.533-16.401 42.682-6.85 7.027-16.256 13.131-14.938 24.617 1.997 17.438 11.108 30.275 24.535 41.174 48.337 39.23 73.9-28.48 116.873-37.621 25.115-5.344 46.447 7.932 53.271 33.045 5.285 19.451 5.139 39.186 2.635 59.084-2.229 17.729-20.449 51.133-6.238 65.611 20.406 20.791 57.566 33.686 59.289 67.668.816 16.123-5.26 29.494-10.23 44.48-5.742 17.309-3.654 29.594 2.371 41.98 6.381 13.111 13.049 12.305 19.107-5.48.336-.986.611-1.992.939-2.982-7.715-7.471-9.893-19.924-9.342-30.883.797-15.875 10.336-29.982 12.252-45.771 3.574-29.436-26.393-46.247-46.739-63.889z" fill="#abab38"/><path d="m292.53 673.028c8.223-3.068 16.372-8.9 13.201-18.982-1.266-4.027-3.083-7.975-5.521-11.463.913 3.555 1.151 7.248.396 10.943-2.188 10.73-15.768 12.781-24.656 12.756-8.977-.029-18.439-3.014-24.901-9.371-7.571-7.449-4.857-18.256 1.659-25.125-8.678 3.873-14.09 11.582-10.672 24.143 7.775 21.06 31.389 24.224 50.494 17.099z" fill="#abab38"/><path d="m676.633 548.546c-9.321 33.143 17.513 64.42 52.584 53.777 27.791-8.436 41.916-30.979 36.127-59.633-.838-4.15-2.014-8.877-3.576-13.682.262 9.711-2.02 19.775-5.922 28.117-9.383 20.061-32.695 33.154-54.255 25.857-21.495-7.273-23.353-30.855-16.982-51.025-3.241 5.353-5.936 10.954-7.976 16.589z" fill="#abab38"/><path d="m781.906 767.146c15.367-16.791 22.572-25.338 4.609-33.463-15.701-7.096-32.178-6.998-51.57-3.9-8.998 1.436-18.283 2.67-27.344.977-19.608-3.664-33.204-17.354-40.712-35.52-6.483-15.68-8.345-32.42-14.108-48.252-7.789-21.389-33.431-48.262-56.174-23.748-.368.398-.647.83-.999 1.238 18.179-5.256 36.557 2.709 46.413 18.658 14.497 23.465 4.804 53.898 14.317 79.004 8.763 23.129 32.778 25.777 54.163 27.574 14.047 1.18 31.355 8.404 23.719 25.334-6.482 14.371-23.278 24.021-35.724 32.619-49.61 34.266-106.641 58.166-166.296 67.42-35.468 5.506-71.685 4.674-106.967-1.686-13.28-2.396-26.979-5.498-37.726-14.127-8.538-6.854-7.511-15.232-.25-22.248 3.722-3.596 8.431-5.818 13.428-7.059-13.598-2.17-27.473 4.23-34.191 17.65-5.757 11.49 5.041 19.016 18.811 23.346 14.867 4.672 30.096 8.406 45.639 11.113 128.743 22.417 260.757-20.136 350.962-114.93z" fill="#abab38"/><path d="m728.828 514.696c-15.438-.076-31.206 15.375-33.927 27.217-1.738 7.566 1.54 14.336 8.457 17.543 14.431 6.693 37.015-1.832 45.114-14.828 6.395-10.262 1.22-29.828-19.644-29.932z" fill="#d7e338"/><path d="m658.732 766.104c-10.706-3.32-19.998-6.576-25.738-17.057-6.116-11.16-4.275-26.23-2.026-38.139 2.843-15.039 7.333-32.104.808-46.891-5.5-12.457-23.492-21.109-32.533-6.643-5.422 8.676-5.016 17.4-3.228 27.205 3.308 18.133 5.602 33.619 2.028 52.039-6.218 32.045-14.742 42.635-39.248 49.936-20.825 6.195-43.791 14.461-47.86 39.098-3.891 23.553 31.187 25.896 46.044 25.158 26.914-1.334 54.559-11.486 79.375-21.496 18.141-7.314 41.373-19.373 47.496-39.623 4.431-14.659-14.999-20.448-25.118-23.587z" fill="#d7e338"/><path d="m269.532 633.724c-4.83.357-12.405 2.854-12.602 8.785-.213 6.555 8.02 10.348 13.481 11.09 10.825 1.467 19.514-2.48 20.063-7.521.648-5.958-8.767-13.261-20.942-12.354z" fill="#d7e338"/><path d="m486.711 233.198c-7.657 3.232-8.063 11.115-4.97 17.852 3.566 7.76 11.828 13.166 20.144 14.098 8.526.953 20.532-4.021 23.163-12.678 4.417-14.541-23.277-25.639-38.337-19.272z" fill="#d7e338"/><path d="m333.196 306.593c-10.672-11.348-15.2-25.008-14.207-40.535.768-11.947 6.893-23.043 13.479-33.287 34.646-53.861 11.774-65.32-27.002-39.086-9.674 6.545-18.566 15.17-26.131 22.777-83.586 73.85-125.879 203.779-130.722 275.832-5.22 77.664 32.621 72.188 48.71.082 12.039-53.951 42.401-78.125 84.939-77.84 47.172.328 83.787-7.02 85.314-56.143.711-22.841-20.489-37.035-34.38-51.8z" fill="#d7e338"/><path d="m778.207 247.892c-21.957-30.732-82.083-82.904-116.622-86.697-11.626-1.283-18.385 5.301-4.448 23.482 7.425 9.689 17.544 17.195 20.81 29.318 4.481 16.635-5.168 34.996-8.657 51.152-5.931 27.455 2.903 40.656 30.181 28.332 11.188-5.055 20.669-12.713 32.614-16.092 10.049-2.84 20.506-1.844 30.508.465 6.748 1.561 13.383 5.682 20.373 6.008 21.526 1-.329-29.767-4.759-35.968z" fill="#d7e338"/><path d="m808.967 734.21c4.52-6.127 8.822-12.383 12.969-18.725-8.465 6.082-24.471 7.158-35.721-.613-17.648-12.189-29.91-9.064-44.744-8.348-33.417 1.609-44.786-1.762-57.8-44.924-6.876-22.807-23.31-50.26-45.926-60.389-36.479-16.334-62.3 7.775-71.306 38.701-5.147 17.67-5.88 40.279-5.318 67.525.385 18.637-13.042 35.648-33.606 37.064-13.002.893-24.261-7.006-37.006-7.928-9.975-.723-18.169 6.145-23.305 13.889-6.703 10.113-6.547 23.35-5.719 34.898.324 4.531 2.018 12.029 3.139 19.855 4.08 28.391-11.647 28.918-28.27 21.402-7.246-3.279-13.654-9.453-22.064-13.465-13.667-6.518-28.288-3.26-42.723 5.361-7.746 4.625-17.361 11.041-28.295 14.617-21.6 7.066-56.763-12.137-60.578-38.256-1.983-13.578-.563-28.043-2.147-40.203-3.98-30.488-37.171-44.314-60.321-62.57-37.964-29.916-39.264-54.227-6.017-85.557 14.236-13.416 23.001-18.088 29.058-31.182 11.52-24.918 5.11-52.43 28.697-87.547-4.291 3.922-7.956 8.324-10.596 12.813-13.865 23.57-14.882 52.496-29.278 75.648-13.696 22.025-41.539 39.441-47.334 65.742-7.816 35.467 22.214 51.387 46.997 67.996 30.28 20.293 53.579 58.268 25.262 90.77 28.563 23.592 60.35 43.17 94.52 57.705 4.091-24.111 27.837-48.24 54.798-40.822 11.439 3.148 18.687 9.813 23.931 15.795 9.572 10.918 19.667 19.07 32.609 9.459 9.133-6.777 14.102-20.482 12.73-30.877-1.122-8.475-3.513-16.633-4.835-25.053-2.772-17.662 4.862-50.73 31.118-40.361 11.027 4.355 23.213 14.533 35.808 9.336 14.526-5.992 26.939-18.51 30.506-34.074 4.587-20.031 2.224-39.945 3.676-60.197 1.831-25.494 10.695-54.215 40.342-57.635 29.693-3.426 46.117 18.736 53.354 45.244 8.824 32.326 16.24 75.488 59.374 70.348 32.744-3.897 57.589-6.27 84.021 14.558z" fill="#65b0b9"/><path d="m660.784 568.298c.927 8.137 3.109 16.066 6.845 23.391 8.862 17.383 27.104 24.709 45.723 24.186 2.932-.084 5.729-.391 8.453-.822-3.711.369-7.507.52-11.401.32-22.196-1.139-37.44-15.301-43.791-33.443-8.492-24.26.592-48.111 17.176-68.664 12.971-16.074 30.646-28.395 50.759-27.764 30.506.953 44.301 45.961 43.496 70.814-.289 8.889-2.258 16.992-5.539 24.193 9.104-13.477 13.246-30.209 10.57-48.666-2.734-18.854-13.057-36.98-28.963-47.619-16.074-10.754-36.371-7.449-52.339 1.42-25.187 13.99-41.242 44.084-41.456 73.305-.007.678-.031 1.354-.018 2.029.016 1.494.119 2.98.233 4.469.073.95.147 1.902.252 2.851z" fill="#65b0b9"/><path d="m497.719 206.101c-14.618-1.617-29.426-.531-41.551 8.52-11.387 8.502-15.214 23.9-12.918 37.26.254 1.484.625 2.932 1.045 4.363-1.729-9.006-.013-17.133 4.705-24.949 9.307-15.428 28.656-23.957 47.703-20.24 27.602 5.385 63.981 16.809 57.143 51.826-2.28 11.672-9.772 25.896-20.411 36.008 14.857-9.963 24.416-26.086 23.341-46.602-1.512-28.895-34.192-43.431-59.057-46.186z" fill="#65b0b9"/><path d="m237.318 621.897c-20.722 17.695-13.276 46.439 9.134 58.707 2.363 1.297 5.149 2.4 8.172 3.334-3.236-1.283-6.314-2.889-9.127-4.961-12.822-9.447-20.176-28.65-13.306-42.943 12.101-25.162 61.276-25.09 78.163.967 4.543 7.01 6.701 14.102 6.686 20.662 1.617-10.195-3.87-21.473-10.022-28.949-15.824-19.221-50.566-23.156-69.7-6.817z" fill="#65b0b9"/><path d="m842.467 557.972c4.082-25.621-12.039-40.984-32.146-55.24-9.682-6.863-23.17-14.68-28.426-25.895-7.678-16.385.842-30.176 4.588-46.791 5.314-23.59 9.914-51.924 1.625-75.457-19.494-55.348-66.186-6.551-93.33 12.104-31.896 21.922-66.849 13.17-89.485-18.563-8.725-12.229-16.962-30.873-10.311-46.006 6.713-15.268 21.94-22.334 26.436-39.68 6.094-23.512 5.655-61.857-23.101-70.693-16.199-4.979-33.438-4.816-49.605-9.691-7.214-2.178-14.699-5.146-21.032-9.57 19.602 23.615 51.295 17.639 67.071 25.059 10.407 4.895 18.336 12.666 20.501 26.955 8.06 53.16-16.399 48.146-26.7 72.961-9.966 24.006 1.74 49.273 18.58 66.748 19.325 20.057 45.269 26.664 71.888 19.623 25.833-6.83 50.438-39.715 77.286-42.666 38.441-4.225 32.41 47.59 17.066 94.652-19.35 59.35 25.229 59.379 50.451 85.398 10.582 10.92 15.625 23.224 18.644 36.752z" fill="#65b0b9"/><path d="m543.191 510.845c9.651-22.975.561-58.623-10.067-79.873-9.55-19.096-24.108-32.637-46.292-29.16-22.378 3.506-32.64 28.098-38.14 48.732-4.951 18.58-19.455 25.096-31.085 21.494-8.401-2.605-15.399-8.51-15.734-28.4-.314-18.725 11.438-42.594 14.663-51.535 10.918-30.279 15.299-61.723 14.504-85.088-.834-24.563-15.65-34.256-26.934-40.883-32.814-19.299-12.186-40.98-3.844-59.521 5.318-11.814 7.146-25.779-4.279-42.545 2.104 5.334 3.14 10.887 2.506 16.541-2.436 21.73-19.199 37.383-22.723 58.348-4.352 25.883 20.353 30.848 34.688 46.098 12.912 13.732 9.541 36.564 7.568 53.396-3.332 28.479-11.889 53.072-20.975 79.918-7.623 22.527-11.855 57.334 18.4 65.318 56.538 14.924 25.783-43.193 58.135-62.42 36.116-21.459 57.793 16.271 62.646 47.553 2.62 16.873 5.158 35.803-6.496 50.105-12.476 15.307-31.648 21.637-45.741 35.016-28.36 26.924-.92 58.938-10.402 90.604-5.365 17.916-18.041 34.115-34.656 43.215-16.976 9.293-34.353 12.883-51.853 2.947-13.771-7.82-20.33-25.998-17.827-41.02-18.313 49.828 29.971 66.09 64.28 54.146 22.08-7.684 61.596-44.322 53.536-92.162-7.153-42.455-1.657-45.959 21.181-62.85 19.841-14.664 27.126-19.373 34.941-37.974z" fill="#65b0b9"/><path d="m812.358 594.796c1.418-8.477 3.701-22.031-2.949-29.178-5.227-5.617-9.727 3.182-12.922 12.043-11.131 30.875-35.787 44.023-52.48 51.217-14.098 6.078-29.389 17.383-26.785 34.982 3.781 25.547 40.941 29.334 60.932 27.285 25.457-2.611 47.805-18.904 38.643-46.576-5.83-17.615-7.537-31.295-4.439-49.773z" fill="#a6f4ff"/><path d="m743.317 437.044c29.467-39.631-3.869-51.764-31.123-36.154-14.212 8.141-27.263 16.201-43.273 20.814-32.619 9.396-69.642-10.254-86.209-37.977-6.387-10.684-11.688-21.822-20.319-30.955-8.514-9.008-19.93-14.947-31.321-19.406-17.991-7.045-39.226-6.408-56.697 1.73-13.458 6.271-26.143 22.664-23.41 38.336 2.377 13.635 16.336 15.148 27.944 14.955 45.698-.76 82.783 7.436 94.518 44.279 13.634 42.813 5.308 65.506-13.134 96.688-20.322 34.352-3.677 64.031 31.962 55.301 19.847-4.861 27.742-23.492 33.427-41.088 10.651-32.996 16.728-45.41 51.389-64.178 23.141-12.533 49.918-20.384 66.246-42.345z" fill="#a6f4ff"/><path d="m409.1 736.144c-15.932 1.799-30.66-3.814-42.866-13.939-7.754-6.432-10.148-17.377-16.786-24.748-22.613-25.109-54.416-5.322-45.181 23.207 5.729 17.699 7.515 28.936 4.364 38.678-8.677 26.824 3.264 54.094 39.779 34.932 13.238-6.945 23.939-14.287 39.621-11.564 8.912 1.549 17.205 5.375 26.247 6.391 41.445 4.662 34.345-57.414-5.178-52.957z" fill="#a6f4ff"/><path d="m326.246 623.325c5.424 12.66 14.162 17.178 24.556 5.588 12.367-13.787 5.21-35.58-7.36-45.818-11.272-9.182-20.663-15.615-24.438-30.699-2.626-10.502-2.491-21.523-5.072-32.066-4.75-19.406-28.151-18.381-39.336-1.264-19.28 29.49.368 62.271 27.584 77.93 11.447 6.589 18.916 14.316 24.066 26.329z" fill="#a6f4ff"/><path d="m502.101 160.28c-3.448-9.023-9.42-17.83-16.636-23.361-15.228-11.68-42.663-12.502-60.396 2.52-25.728 21.787-9.188 68.52 20.981 56.867 9.979-3.85 18.57-7.268 29.517-7.141 23.527.273 33.442-10.785 26.534-28.885z" fill="#a6f4ff"/><path d="m537.585 600.94c-13.306-4.383-22.532 4.57-25.388 17.117-6.679 29.342-6.173 38.305-27.916 64.75-7.09 8.625-14.1 19.875-6.105 29.955 17.205 21.693 62.504 13.883 64.967-11.848.852-8.883-.69-18.201-.709-27.119-.022-13.51 4.445-25.666 7.977-38.488 3.241-11.755.95-29.828-12.826-34.367z" fill="#a6f4ff"/><g fill="#68182b"><path d="m135.312 525.763c.152.762 1.151.475 1.236-.166 3.074-23.273 2.6-47.047 5.22-70.42 2.813-25.117 8.274-49.855 15.77-73.973 8.072-25.973 19.539-50.756 33.208-74.236 16.372-28.125 37.519-52.291 57.425-77.84.636-.816-.329-1.818-1.147-1.143-45.108 37.246-77.003 93.162-95.575 147.979-8.333 24.6-13.37 50.209-16.363 75.971-2.787 23.984-4.564 49.992.226 73.828z"/><path d="m136.098 537.993c-1.07 2.813-.649 5.82-.218 8.738.522 3.533 1.667 5.857 3.043 9.063.216.5.964.215.972-.264.074-5.691.387-12.125-1.854-17.537-.386-.933-1.572-.978-1.943 0z"/><path d="m727.155 213.513c20.623 17.631 36.033 39.379 55.168 58.279.6.592 1.846 0 1.504-.875-9.678-24.758-32.137-45.277-51.955-62.121-20.384-17.324-43.084-32.557-68.577-40.943-.299-.1-.461.336-.209.494 22.177 13.841 44.15 28.138 64.069 45.166z"/><path d="m796.305 292.349c.373.395 1.195.121 1.135-.469-.549-5.287-4.666-11.914-9.668-14.174-.318-.145-.707.09-.605.467.668 2.523 2.283 4.666 3.746 6.785 1.79 2.59 3.208 5.1 5.392 7.391z"/><path d="m752.744 765.366c-48.367 42.223-107.464 75.434-167.989 96.922-.805.289-.49 1.467.355 1.287 33.338-7.125 63.104-21.066 92.418-38.246 27.442-16.082 56.833-33.32 75.837-59.484.28-.383-.302-.758-.621-.479z"/><path d="m764.246 754.212c-3.232 1.387-6.148 4.252-7.986 7.277-.078.131-.01.338.15.369 4.111.795 7.943-3.34 8.682-6.998.106-.527-.379-.849-.846-.648z"/><path d="m747.899 576.88c-.092.6.623.939.986.416 10.039-14.51 10.541-41.096-2.516-54.256-.254-.258-.695.002-.6.348 2.406 8.775 4.689 17.002 5.02 26.195.325 9.02-1.552 18.381-2.89 27.297z"/><path d="m487.659 285.015c5.474 4.041 17.673 9.297 22.645 2.219.281-.396-.033-.85-.407-1.004-3.663-1.488-7.596-.416-11.478-1.295-4.843-1.094-9.025-4.564-12.754-7.627-5.777-4.744-10.607-10.857-17.233-14.49-.279-.152-.618.158-.443.443 5.059 8.308 11.85 15.978 19.67 21.754z"/><path d="m261.66 638.96c-.223.152-.138.484.137.502 4.46.287 8.864 1.225 13.18 2.336 3.886.998 7.304 2.4 11.383 1.861.513-.066.875-.646.445-1.074-5.552-5.5-18.428-8.264-25.145-3.625z"/></g></g></g></svg>