<svg id="Office_Supplies" height="512" viewBox="0 0 708.662 708.662" width="512" xmlns="http://www.w3.org/2000/svg"><g><path d="m117.13 490.405c0 .111 0 .213.01.334 1.094 30.128-2.085 60.489 7.351 89.727 11.541 35.757 41.973 51.54 77.688 56.257 38.684 5.113 78.834 5.73 117.811 6.753 41.396 1.073 83.116 2.228 124.491.283 37.266-1.761 84.382-3.948 115.087-27.911 30.128-23.507 25.38-70.612 27.496-104.79 5.578-90.05 9.161-181.69 3.513-271.791-2.045-32.659-6.398-64.144-33.904-85.454-20.439-15.833-46.721-22.09-71.969-24.803-5.721-.618-11.461-1.042-17.201-1.346-2.004-4.88-4.869-9.385-8.494-13.231-11.095-11.774-27.678-16.4-43.268-18.122-8.18-.901-11.673-12.32-18.305-17.969-6.479-5.517-14.244-9.344-22.413-11.612-18.841-5.214-40.162-3.543-57.038 6.722-7.481 4.546-12.897 10.691-17.595 17.99-3.826 5.932-7.492 4.353-14.285 5.437-14.669 2.349-29.247 8.129-39.148 19.629-5.295 6.145-5.527 13.495-13.971 13.637-6.074.112-12.138.334-18.201.77-14.083 1.002-28.236 3.068-41.67 7.552-31.566 10.549-46.832 33.125-52.431 65.116-7.552 43.107-4.403 87.509-5.071 131.061-.801 51.922-.335 103.868 1.517 155.761z" fill="#fff"/><g><path d="m171.009 596.957c23.062 13.121 53.523 11.805 79.34 13.718 35.928 2.663 71.979 3.735 107.989 4.06 49.627.445 103.637 2.531 152.301-9.01 13.445-3.189 35.252-10.307 39.908-25.35 4.252-13.708 4.191-29.369 5.285-43.593 3.735-48.645 5.416-97.481 6.55-146.247 1.315-56.865 2.218-114.267-2.743-171-5.234-59.922-67.557-62.523-117-63.151-.375-3.533-.688-6.752-.779-9.344-.75-21.574-26.971-22.323-45.617-22.201-5.893.03-9.365-2.946-10.691-11.238-1.072-6.671-4.738-11.845-10.559-15.297-5.599-3.321-13.191-5.062-22.395-5.021-7.572.03-16.795 2.683-22.504 7.532-5.053 4.292-13.678 23.953-19.479 23.932-27.91-.071-47.277 2.501-47.885 33.145-.01.456-.041.962-.051 1.428-34.016.942-99.972-5.285-110.207 35.838-10.012 40.242-6.51 87.621-7.289 128.753-1.043 55.245-.647 110.561 1.326 165.785 1.033 28.934-5.881 89.97 24.5 107.261z" fill="#68182b"/><path d="m278.837 165.465c.242-34.137 27.535-16.188 47.105-27.293 13.079-7.421 5.314-27.324 26.654-28.691 14.286-.921 16.877 11.126 21.929 21.047 3.735 7.279 7.644 10.367 16.097 10.701 7.938.334 15.854.901 23.791 1.458 15.459 1.104 11.805 22.11 12.017 31.323.151 6.722 3.098 21.168-6.308 21.706-6.205.364-12.432.506-18.647.678-34.278.941-68.65.8-102.928-.152-5.679-.152-11.358-.415-17.038-.739-4.799-.285-2.693-27.082-2.672-30.038z" fill="#00ebed"/><path d="m263.964 198.995c2.602 6.975 7.756 11.997 17.545 12.705 25.744 1.853 51.762 1.448 77.558 1.417 21.442-.03 53.615-.658 70.056-1.924 7.867-.607 11.602-8.018 13.576-15.57 21.999.992 47.41-.01 64.883 14.254 12.635 10.306 11.318 27.8 12.27 42.57 2.41 37.539 2.127 75.29 1.609 112.869-.535 39.382-1.902 78.763-4.039 118.083-.779 14.193-1.711 28.377-2.904 42.53-1.58 18.8-4.131 28.893-24.277 35.564-35.059 11.602-77.992 8.555-114.348 8.838-50.7.385-101.571-1.731-151.967-7.34-27.83-3.098-31.95-20.602-33.822-44.048-1.367-17.1-2.046-34.259-2.643-51.398-1.428-41.274-1.609-82.609-1.154-123.904.354-32.861 1.215-65.743 3.441-98.534.922-13.434.172-26.2 10.175-36.334 13.636-13.818 43.805-10.376 64.041-9.778z" fill="#e5e5e5"/><path d="m161.644 310.74c.507-23.791 1.387-47.582 2.774-71.342 1.448-24.692-1.204-49.06 26.777-58.677 20.663-7.098 47.824-4.526 70.511-5.184-.223 4.626-.252 9.324.184 13.758-28.063-.577-71.586-3.705-79.35 29.167-7.088 29.966-4.697 64.953-5.438 95.517-1.791 73.7-3.4 149.243 4.951 222.63 4.616 40.525 51.772 37.539 82.65 39.857 50.294 3.786 100.922 4.505 151.319 2.744 30.27-1.063 65.236-.305 92.713-15.085 19.63-10.559 15.965-42.438 17.23-61.278 4.758-71.059 6.59-142.593 5.063-213.793-.477-22.282 2.814-53.655-7.107-74.257-13.605-28.245-51.935-27.628-79.754-28.822.293-4.363.232-8.909-.041-13.414 29.955.111 68.77-.213 90.607 20.733 13.403 12.867 10.104 43.117 10.893 60.145 2.399 52.229 1.469 104.659.061 156.897-1.256 46.336-3.158 92.753-7.066 138.948-1.984 23.527-7.289 33.975-32.295 40.818-22.545 6.176-47.529 6.004-70.703 7.106-66.998 3.199-134.484 1.397-201.321-3.968-18.972-1.529-43.096-.466-58.465-13.11-9.445-7.775-8.969-22.667-9.941-33.682-2.014-22.88-2.854-45.87-3.604-68.811-1.832-55.597-1.822-111.287-.648-166.897z" fill="#ff2e60"/><path d="m413.279 191.412c-9.201 1.974-19.65 1.012-29.023 1.012-22.688-.01-45.366-.547-68.042-1.012-8.413-.183-17.97 1.113-26.19-.517-8.352-1.65-6.256-19.843-5.942-25.714.892-16.734 13.202-18.537 27.192-18.962 9.404-.294 17.889-2.44 24.227-9.638 6.246-7.097 5.518-21.341 13.637-26.666-17.019 3.249-10.883 21.271-23.193 28.255-19.57 11.105-46.863-6.843-47.105 27.293-.021 2.956-2.127 29.753 2.672 30.037 5.68.324 11.359.587 17.038.739 34.278.952 68.65 1.093 102.928.152 6.216-.172 12.442-.313 18.647-.678 7.553-.426 7.138-9.831 6.602-16.998-2.058 6.096-5.641 11.026-13.448 12.697z" fill="#19bfbb"/><path d="m303.357 183.435c24.377.182 89.989.131 104.627-.091 3.817-.061 6.561-1.417 8.181-3.3 2.358-2.744 2.318-6.601-.294-9.182-1.619-1.6-4.242-2.714-7.887-2.754-19.275-.233-77.506.041-103.991.547-3.635.071-6.398 1.022-8.281 2.409-3.695 2.734-3.938 7.167-.586 9.921 1.761 1.447 4.485 2.419 8.231 2.45z" fill="#6cfffb"/><path d="m515.225 516.545c-.78 2.977-1.649 5.933-2.714 8.828-5.617 15.266-18.283 23.173-33.397 27.344-26.585 7.329-56.085 7.117-83.45 7.704-33.955.729-67.96-.395-101.865-2.096-14.153-.709-28.286-1.6-42.419-2.571-15.307-1.063-31.717-.567-43.39-12.088-13.039-12.867-10.265-35.433-11.065-52.208-.992-20.915-1.285-41.882-1.589-62.817-.647-45.436-.739-90.881-.396-136.315.122-15.642.283-31.293.77-46.924.294-9.182 1.145-18.304 3.574-27.202 1.568-5.75 4.303-10.488 7.795-14.487-2.683 1.367-5.123 3.007-7.157 5.062-10.003 10.134-9.253 22.9-10.175 36.334-2.227 32.791-3.088 65.672-3.441 98.534-.455 41.295-.273 82.63 1.154 123.904.597 17.14 1.275 34.299 2.643 51.398 1.872 23.446 5.992 40.95 33.822 44.048 50.396 5.608 101.268 7.725 151.967 7.34 36.355-.283 79.289 2.764 114.348-8.838 20.146-6.672 22.697-16.765 24.277-35.564.262-3.13.475-6.258.708-9.386z" fill="#c6c6c6"/><path d="m507.582 209.877c-17.473-14.264-42.884-13.262-64.883-14.254-1.975 7.553-5.709 14.963-13.576 15.57-16.44 1.266-48.613 1.894-70.056 1.924-25.796.03-51.814.435-77.558-1.417-1.022-.081-1.975-.223-2.896-.385 6.905 6.631 18.263 8.716 29.034 9.405 21.504 1.357 43.381.729 64.934 1.286 20.005.506 41.355 2.531 61.229-.658 5.588-.901 11.197-4.292 16.502-6.256 9.445-3.493 19.033-3.675 28.893-2.318 13.1 1.802 23.305 7.532 28.174 20.207 8.16 21.25 5.59 48.604 6.5 71.18 1.113 27.567 2.065 55.145 2.795 82.711.719 27.324 1.416 54.77 1.457 82.215 1.711-34.563 2.865-69.165 3.33-103.769.518-37.579.801-75.33-1.609-112.869-.952-14.772.365-32.265-12.27-42.572z" fill="#f4f4f4"/><path d="m543.349 423.812c-2.096 30.473-4.799 60.914-8.687 91.215-2.825 22.029-4.252 48.888-25.016 61.886-19.782 12.382-47.702 11.399-70.329 12.503-26.039 1.266-52.117 1.671-78.186 1.741-49.354.121-101.116 1.225-149.792-8.21-12.088-2.339-23.345-6.398-29.804-17.545-9.79-16.896-9.294-40.677-10.569-59.477-2.541-37.519-2.592-75.188-2.672-112.778-.092-40.575.232-81.151.87-121.727.415-25.806-2.612-59.801 9.749-84.158-14.852 11.854-13.303 31.879-14.497 52.137-1.388 23.76-2.268 47.551-2.774 71.342-1.174 55.609-1.184 111.3.648 166.899.749 22.94 1.59 45.931 3.604 68.811.973 11.015.496 25.906 9.941 33.682 15.369 12.645 39.493 11.581 58.465 13.11 66.837 5.365 134.323 7.167 201.321 3.968 23.174-1.103 48.158-.931 70.703-7.106 25.006-6.844 30.311-17.291 32.295-40.818 3.908-46.195 5.811-92.612 7.066-138.948.416-15.438.779-30.888 1.033-46.336-.737 19.952-2.002 39.895-3.369 59.809z" fill="#ea0f4d"/><g fill="#68182b"><path d="m223.227 253.075c85.515-6.186 171.142-5.477 256.545 2.146 10.315.921 10.407 17.129 0 16.198-85.403-7.623-171.031-8.332-256.545-2.146-10.427.749-10.357-15.449 0-16.198z"/><path d="m234.292 318.849c-10.447.537-10.396-15.671 0-16.197 79.572-4.07 159.125-2.582 238.485 4.495 10.316.921 10.406 17.129 0 16.197-79.359-7.076-158.912-8.565-238.485-4.495z"/><path d="m223.227 375.116c-10.427.76-10.356-15.448 0-16.197 85.515-6.186 171.142-5.467 256.545 2.156 10.315.921 10.407 17.129 0 16.198-85.403-7.624-171.031-8.342-256.545-2.157z"/><path d="m472.777 429.197c-79.359-7.076-158.913-8.574-238.485-4.505-10.447.536-10.396-15.661 0-16.198 79.572-4.069 159.125-2.571 238.485 4.506 10.317.921 10.406 17.129 0 16.197z"/><path d="m486.879 462.362c10.316.922 10.408 17.13 0 16.198-85.403-7.633-171.03-8.342-256.545-2.156-10.428.749-10.355-15.449 0-16.198 85.515-6.185 171.141-5.477 256.545 2.156z"/><path d="m479.873 530.485c-79.359-7.087-158.912-8.585-238.484-4.505-10.448.536-10.397-15.672 0-16.198 79.572-4.08 159.125-2.582 238.484 4.505 10.316.921 10.408 17.129 0 16.198z"/></g></g></g></svg>