<svg id="Start_Up" height="512" viewBox="0 0 1000 1000" width="512" xmlns="http://www.w3.org/2000/svg"><g><path d="m894.45 169.729c.258-2.41.553-4.859.845-7.324 2.978-24.942 8.516-71.368-39.925-83.354-12.109-2.995-25.719-4.333-44.128-4.333-6.746 0-13.521.173-20.185.347-6.115.157-12.131.314-17.93.314-1.584 0-3.148-.012-4.693-.041-86.201-1.537-172.405-2.916-258.605-4.29-22.572-.359-45.166-.877-67.766-1.394-40.594-.93-82.566-1.89-123.922-1.89-7.958 0-15.904.034-23.857.11-50.73.49-54.749 46.793-56.908 71.67-.199 2.305-.397 4.601-.617 6.874-4.027 41.506-7.885 83.702-11.621 124.571-7.111 77.83-15.33 168.313-22.877 257.195-.164 1.927-.391 3.965-.622 6.076-1.604 14.504-3.796 34.368 7.813 50.446 10.217 14.15 27.387 17.566 39.926 20.063 2.236.445 4.367.858 6.267 1.333 29.354 7.35 58.694 14.756 88.035 22.161 25.399 6.411 50.79 12.828 76.185 19.257-8.779 3.288-17.379 6.927-25.691 11.051-26.604 13.208-30.604 30.604-30.361 40.624l-119.811-39.426c-4.972-1.635-10.014-2.465-14.984-2.465-11.348 0-20.481 4.203-28.539 7.911-2.164.998-4.422 2.042-6.833 3.04-6.708 2.772-13.454 5.498-20.208 8.226-15.643 6.316-31.816 12.85-47.574 20.027-7.473 3.397-23.02 10.472-23.02 31.98v9.212c0 24.032 16.369 30.021 24.234 32.898l340.355 124.979c5.514 2.063 10.722 4.012 17.207 4.012h.002c7.832 0 14.277-2.738 22.137-7.157 15.438-8.683 31.582-16.994 47.281-25.047-1.438 10.491.032 21.258 4.555 31.774 9.172 21.324 27.641 33.069 52.006 33.071h.01c24.402 0 50.658-11.776 66.518-18.889 2.412-1.084 5.424-2.296 8.771-3.651 24.297-9.846 64.965-26.321 59.557-59.072-1.576-9.555-8.963-27.413-40.736-39.644-14.293-5.505-29.961-8.296-46.568-8.296-14.488 0-29.49 2.211-44.014 6.389.012-.634.006-1.264.02-1.896.334-16.629-8.379-28.345-25.199-33.881l-4.985-1.642c9.521-3.701 18.624-8.14 27.198-12.379 2.318-1.146 4.596-2.273 6.83-3.357 21.9-10.604 43.051-22.81 63.503-34.611 2.825-1.63 5.649-3.26 8.476-4.886 16.879 4.354 34.717 9.023 52.729 13.993 2.113.585 4.35 1.269 6.672 1.977 9.523 2.905 21.373 6.52 33.527 6.52h.002c8.203 0 15.712-1.658 22.316-4.925 27.357-13.53 31.406-43.894 34.139-64.409 16.948-149.109 34.96-312.609 55.063-499.842z" fill="#fff"/><g><path d="m874.981 167.641c3.021-28.131 10.409-60.988-24.315-69.581-25.416-6.289-56.571-2.678-82.58-3.141-86.188-1.539-172.379-2.917-258.568-4.291-71.613-1.143-143.42-3.861-215.045-3.17-35.915.346-35.479 32.571-38.225 60.853-4.023 41.473-7.816 82.967-11.609 124.462-7.828 85.672-15.588 171.353-22.865 257.073-1.131 13.304-4.974 31.59 3.556 43.401 7.165 9.924 24.326 11.174 35.07 13.863 29.368 7.352 58.722 14.76 88.073 22.17 48.245 12.179 96.483 24.382 144.713 36.631-30.523 8.236-62.742 16.519-90.303 30.201-28.578 14.189-24.559 34.982 4.227 44.951 23.975 8.219 48.107 15.894 72.31 23.406 21.425 6.651 42.817 15.7 65.53 15.854 22.275.15 45.048-12.589 64.539-22.028 26.602-12.883 52.031-28.179 77.68-42.823 20.295 5.215 40.576 10.494 60.769 16.066 14.335 3.955 33.96 12.151 48.63 4.893 18.023-8.913 20.978-31.178 23.363-49.065 18.926-166.508 37.16-333.104 55.05-499.725z" fill="#68182b"/><path d="m576.603 891.428c16.459 38.268 67.4 15.322 92.533 4.05 16.809-7.537 60.396-21.215 57.02-41.669-1.273-7.72-9.172-17.135-28.455-24.558-27.996-10.782-60.727-8.284-88.537 2.023-25.498 9.455-44.198 33.09-32.561 60.154z" fill="#68182b"/><path d="m134.454 752.45c73.238 26.892 146.477 53.781 219.716 80.668 39.171 14.383 78.343 28.766 117.517 43.151 11.902 4.373 13.404 5.894 25.492-.904 31.021-17.45 63.268-32.62 94.434-49.798 2.088-1.148 2.895-2.952 2.83-4.754.004-.074.021-.139.021-.215.005-4.605.039-9.213.135-13.816.133-6.598-1.568-11.538-11.742-14.886-76.211-25.082-152.428-50.161-228.639-75.24-38.779-12.762-77.557-25.522-116.338-38.284-13.863-4.563-23.094 2.332-36.754 7.98-22.343 9.238-45.113 17.94-67.154 27.98-7.904 3.596-11.547 6.114-11.547 14.158v9.212c0 10.664 4.695 12.055 12.029 14.748z" fill="#68182b"/><path d="m418.947 682.261c11.391-3.989 22.869-7.727 34.347-11.455 10.575-3.434 21.176-6.8 31.806-10.069 26.584-8.172 32.328-8.651 55.613-2.721 26.548 6.755 53.089 13.527 79.625 20.323 26.988 6.905 20.938 9.581 6.906 17.137-13.58 7.307-27.211 14.502-41.287 20.881-15.121 6.854-30.566 11.804-47.328 11.06-10.461-.464-20.912-4.383-30.939-7.2-20.632-5.8-41.268-11.572-61.854-17.531-8.555-2.476-17.574-4.67-26.43-7.271-13.416-3.941-13.497-8.59-.459-13.154z" fill="#d5d5d5"/><path d="m544.948 748.81c-20.503 1.761-43.223-9.458-62.47-15.441-24.198-7.521-48.335-15.188-72.308-23.404-15.273-5.291-17.148-10.699-13.535-15.414 13.766 6.015 29.109 9.462 43.383 13.64 22.912 6.706 45.916 13.087 68.897 19.548 25.267 7.104 45.231 8.469 70.294-1.106 26.979-10.308 51.811-25.595 77.317-39.017 4.938 1.264 9.876 2.53 14.816 3.794-38.428 22.97-82.468 53.631-126.394 57.4z" fill="#ff8e5b"/><path d="m858.482 112.984c-9.774-4.979-20.658-5.21-31.406-5.438-70.505-1.488-141.018-2.541-211.529-3.694-85.803-1.403-171.605-2.771-257.407-4.079-14.478-.223-28.952-.44-43.427-.654-22.871-.335-41.807-2.325-44.664 26.02-3.633 36.023-6.949 72.081-10.272 108.136-8.367 90.776-16.563 181.57-24.416 272.395-1.452 16.793-7.44 39.648-2.903 55.827 3.504 12.493 27.203 13.558 38.393 16.365 31.523 7.909 63.038 15.858 94.549 23.82 87.151 22.017 174.285 44.097 261.357 66.412 33.316 8.538 66.633 17.067 99.891 25.823 13.766 3.625 27.434 7.942 41.285 11.192 29.309 6.876 36.883-10.729 40.484-37.744 13.24-116.472 25.966-233.004 38.723-349.53 4.623-42.216 9.234-84.435 13.793-126.658 1.668-15.445 3.592-30.892 4.973-46.365.863-9.694 3.421-26.3-7.424-31.828zm-23.291 45.632c-1.43 21.34-5.012 42.844-7.352 63.981-5.814 52.549-11.715 105.087-17.646 157.622-9.436 83.552-18.051 167.276-28.779 250.679-1.787 13.861-3.732 14.394-17.791 11.176-87.597-20.02-174.99-40.95-262.484-61.436-78.795-18.45-157.506-39.262-236.89-55.229-15.723-3.159-15.013-3.818-13.582-16.791 13.494-122.221 22.331-245.119 32.761-367.643 1.086-12.734 4.918-14.646 17.652-14.537 173.527 1.466 347.352 11.112 520.791 16.921 11.14.373 14.044 4.461 13.32 15.257z" fill="#8edbff"/><path d="m295.208 137.933c3.402.025 6.807.095 10.209.127-10.4 120.793-18.981 241.998-32.498 362.488-3.613 1.621-7.176 3.549-10.528 5.786 13.46-122.482 22.341-245.633 32.817-368.401z" fill="#ff8e5b"/><path d="m263.837 513.658c3.867-2.939 8.328-5.393 12.646-7.234 73.93 14.445 147.186 33.903 220.513 51.063 91.339 21.376 182.641 42.905 274.011 64.144-.423 3.344-.814 6.691-1.246 10.033-87.01-19.864-173.816-40.64-260.712-60.99-81.558-19.102-163.03-40.646-245.212-57.016z" fill="#ff8e5b"/><path d="m751.314 609.957c-84.184-19.606-168.317-39.433-252.482-59.131-67.166-15.721-134.275-33.354-201.898-47.31-15.939-3.285-16.463-8.512-14.83-23.724 11.553-107.349 19.496-215.213 28.605-322.798 1.426-16.813 9.089-18.787 23.383-18.583 157.561 2.22 315.336 10.475 472.803 15.935 18.535.647 17.021 5.248 15.023 23.143-1.688 15.094-3.942 30.19-5.59 45.108-5.809 52.549-11.719 105.087-17.648 157.622-8.021 71.054-15.522 142.217-24.182 213.214-2.391 19.618-.848 21.73-23.184 16.524z" fill="#823341"/><path d="m655.345 889.116c-12.99 5.824-25.086 11.062-39.361 12.396-9.252.866-17.406-2.473-23.109-8.11 12.986 3.497 27.801 1.673 40.04-2.501 26.86-9.154 49.569-26.259 77.114-33.378-6.846 13.748-46.229 27.8-54.684 31.593z" fill="#ff8e5b"/><path d="m646.351 834.387c21.207-2.31 43.135 1.325 61.289 12.689 1.195 1.077 2.053 2.175 2.6 3.288-20.891 4.801-39.553 14.706-58.568 24.573-13.383 6.944-30.309 14.048-46.265 13.561-11.853-.364-23.415-7.736-20.11-21.497 5.73-23.822 41.02-30.431 61.054-32.614z" fill="#8edbff"/><path d="m471.122 863.833c-39.349-14.447-78.7-28.893-118.049-43.341-73.047-26.819-146.09-53.638-219.135-80.454 0-2.834 0-5.667 0-8.5 73.41 26.952 146.819 53.906 220.231 80.857 39.171 14.382 78.343 28.765 117.517 43.146 3.666 1.348 6.301 2.37 8.606 3.016v8.653c-2.15-.689-4.935-1.823-9.17-3.377z" fill="#ff8e5b"/><path d="m496.142 862.785c-4.322 2.351-6.875 3.839-8.941 4.592 0-2.795 0-5.593 0-8.388 2.604-.535 5.584-1.882 9.979-4.351 28.223-15.874 57.424-29.926 85.937-45.257-.04 2.584-.101 5.165-.112 7.749-28.699 15.694-58.133 30.022-86.863 45.655z" fill="#ff8e5b"/><path d="m209.105 695.419c15.545-6.426 15.93-9.165 30.455-4.385 39.995 13.162 79.992 26.323 119.988 39.484 71.542 23.544 143.086 47.085 214.625 70.627-25.889 13.86-52.234 26.88-78.031 40.916-12.838 6.982-10.162 6.503-25.02 1.048-39.349-14.447-78.7-28.893-118.049-43.341-69.93-25.675-139.861-51.351-209.789-77.023 21.663-9.696 43.927-18.272 65.821-27.326z" fill="#8edbff"/><path d="m620.337 678.339c-26.536-6.796-53.077-13.568-79.625-20.323-23.285-5.931-29.029-5.451-55.613 2.721-.511.157-1.018.326-1.529.483 6.84-.447 13.739-.256 20.501.306 24.009 1.997 49.751 8.516 71.714 18.439 11.441 5.169 19.006 14.161 6.063 23.941-10.225 7.726-23.545 11.92-35.616 15.659-6.991 2.168-14.169 3.974-21.409 5.593 4.576 1.158 9.189 2.053 13.807 2.258 16.762.744 32.207-4.205 47.328-11.06 14.076-6.379 27.707-13.574 41.287-20.881 14.03-7.555 20.08-10.231-6.908-17.136z" fill="#bebebe"/><path d="m527.689 676.682c-10.644-2.841-20.733-4.854-31.752-3.562-9.023 1.059-17.23 5.034-25.834 7.609-14.738 4.409-10.241 12.776 1.436 16.786 16.029 5.507 40.922 12.923 45.08 13.382 5.229.57 10.429.451 15.785-.609 1.387-.277 18.328-5.883 25.385-11.053 10.82-7.917-5.475-15.983-30.1-22.553z" fill="#efefef"/><path d="m858.482 112.984c-6.887-3.508-14.326-4.644-21.877-5.096 5.348 2.602 10.344 5.786 14.614 10.175 7.801 8.02 5.714 19.042 4.731 28.988-2.389 24.197-4.908 48.382-7.426 72.564-8.336 80.14-16.91 160.255-25.805 240.334-6.803 61.252-12.348 123.027-22.346 183.867-1.73 10.532-3.652 22.785-11.727 30.505-7.58 7.243-21.113 3.769-30.064 2.114-7.389-1.363-14.725-3.016-22.057-4.646-27.133-6.025-54.193-12.385-81.256-18.717-78.924-18.471-157.748-37.383-236.477-56.669-54.084-13.251-109.087-25.025-162.322-41.49-7.188-2.224-13.805-4.835-19.226-10.225-2.689-2.674-4.457-5.855-5.729-9.28-.967 9.289-1.205 18.437.939 26.087 3.504 12.493 27.203 13.558 38.393 16.365 31.523 7.909 63.038 15.858 94.549 23.82 87.151 22.017 174.285 44.097 261.357 66.412 33.316 8.538 66.633 17.067 99.891 25.823 13.766 3.625 27.434 7.942 41.285 11.192 29.309 6.876 36.883-10.729 40.484-37.744 13.24-116.472 25.966-233.004 38.723-349.53 4.623-42.216 9.234-84.435 13.793-126.658 1.668-15.445 3.592-30.892 4.973-46.365.867-9.692 3.425-26.298-7.42-31.826z" fill="#73b9d5"/><path d="m555.603 795.035c.031 4.952-2.131 9.57-8.246 13.24-10.465 6.283-20.902 12.519-32.33 16.919-21.604 8.32-43.496 3.822-64.922-2.439-32.781-9.584-65.072-20.969-97.252-32.365-36.771-13.021-73.381-26.534-109.661-40.865-14.034-5.543-28.036-11.174-41.821-17.319-4.166-1.856-8.314-3.771-12.395-5.817-4.148-2.08-7.883-4.528-11.389-7.639-3.178-2.817-4.416-5.768-4.428-8.688-10.02 4.102-20.014 8.271-29.875 12.685 69.928 25.673 139.859 51.349 209.789 77.023 39.349 14.448 78.7 28.894 118.049 43.341 14.857 5.455 12.182 5.935 25.02-1.048 25.797-14.036 52.143-27.056 78.031-40.916-6.191-2.04-12.379-4.077-18.57-6.112z" fill="#73b9d5"/><path d="m651.671 874.938c16.049-8.327 31.858-16.646 48.953-21.937-3.951-.877-8.023-1.124-11.176-.971-19.832.967-37.105 11.385-54.96 18.796-10.858 4.51-22.429 7.44-34.054 4.262-9.582-2.619-12.089-9.562-11.119-17.011-1.813 2.676-3.225 5.619-4.02 8.924-3.305 13.761 8.258 21.133 20.11 21.497 15.958.487 32.883-6.616 46.266-13.56z" fill="#73b9d5"/><g fill="#ff564d"><path d="m375.782 828.828c-40.537-18.145-81.308-35.794-122.125-53.336-39.908-14.652-79.814-29.302-119.719-43.954v8.5c73.045 26.816 146.088 53.635 219.135 80.454 7.569 2.779 15.137 5.56 22.709 8.336z"/><path d="m290.627 315.951c5.021-59.309 9.689-118.648 14.79-177.892-3.402-.032-6.807-.102-10.209-.127-.297 3.484-.582 6.969-.877 10.455-.484 21.652-1.672 43.35-2.085 64.712-.665 34.286-1.176 68.569-1.619 102.852z"/><path d="m520.486 849.874c20.865-10.868 41.879-21.457 62.518-32.743.012-2.584.072-5.165.112-7.749-6.769 3.639-13.579 7.2-20.401 10.735-7.053 4.987-14.037 10.073-21.053 14.976-7.047 4.925-14.131 9.827-21.176 14.781z"/><path d="m544.135 744.103c-12.397.725-24.841-.411-37.198-2.194 12.652 4.347 25.73 7.956 38.012 6.901 43.926-3.769 87.966-34.43 126.396-57.401-4.94-1.264-9.878-2.53-14.816-3.794-15.265 8.032-30.296 16.717-45.685 24.619-7.252 5.07-14.549 10.076-21.973 14.888-14.38 9.317-27.309 15.963-44.736 16.981z"/><path d="m615.984 901.513c14.275-1.335 26.371-6.572 39.361-12.396.086-.038.223-.095.316-.135-8.328 1.619-16.809 2.519-25.158 2.662-11.746 3.613-25.475 5.03-37.629 1.759 5.703 5.637 13.858 8.976 23.11 8.11z"/><path d="m771.007 621.63c-91.37-21.238-182.672-42.768-274.011-64.144-17.093-4-34.183-8.129-51.276-12.286 44.924 14.409 90.563 27.066 135.545 40.436 10.549 3.135 21.105 6.307 31.67 9.484 52.244 12.316 104.498 24.596 156.826 36.543.432-3.342.823-6.689 1.246-10.033z"/></g><path d="m816.327 222.598c1.647-14.918 3.902-30.015 5.59-45.108 1.998-17.895 3.512-22.495-15.023-23.143-33.586-1.165-67.186-2.467-100.795-3.801 20.049 8.393 37.09 21.291 50.836 40.427 18.426 25.647 26.557 57.329 28.469 88.458 3.303 53.759-12.962 112.793-43.391 157.285-58.889 86.105-176.309 92.959-269.975 76.074-72.385-13.049-151.73-49.55-181.588-116.729-2.598 27.936-5.348 55.853-8.348 83.731-1.633 15.212-1.109 20.438 14.83 23.724 67.623 13.955 134.732 31.589 201.898 47.31 84.165 19.698 168.299 39.524 252.482 59.131 22.336 5.206 20.793 3.094 23.184-16.523 8.659-70.997 16.16-142.16 24.182-213.214 5.931-52.535 11.841-105.074 17.649-157.622z" fill="#7a2537"/><path d="m489.749 178.302c-42.462 2.048-77.074 13.161-101.438 32.189-55.652 43.448-63.17 134.188-10.758 184.267 60.309 57.626 209.328 60.905 280.508 24.24 72.627-37.415 79.629-177.723.162-215.683-42.806-20.447-102.822-28.18-168.474-25.013z" fill="#a74153"/><path d="m732.191 683.457c-58.801-17.985-119.238-31.315-178.861-46.217-74.291-18.567-148.531-37.392-223.029-55.112-17.002-4.046-34.018-8.023-51.037-11.99-.317-.074-.45.402-.135.485 125.008 33.37 250.638 64.476 376.189 95.722 25.433 6.327 50.919 12.83 76.586 18.15.677.143.957-.834.287-1.038z" fill="#68182b"/><path d="m738.892 686.054c-.18.036-.214.27-.104.389 1.111 1.21 2.199 1.836 3.736 2.402 1.712.627 3.172 1.564 5.018 1.023.367-.106.457-.473.322-.792-1.253-2.968-6.179-3.585-8.972-3.022z" fill="#68182b"/><path d="m668.515 841.181c.717-.203.551-1.244-.173-1.273-18.269-.756-40.197-.314-55.454 11.068-.328.245-.148.807.292.69 18.264-4.833 37.227-5.384 55.335-10.485z" fill="#68182b"/><path d="m291.271 721.1c14.751 4.765 29.473 9.091 44.574 12.536.59.135 1.033-.756.43-1.019-13.33-5.847-27.025-9.948-40.938-14.207-13.206-4.041-26.935-9.582-40.595-11.79-.438-.069-.695.466-.307.725 10.605 7.019 24.887 9.893 36.836 13.755z" fill="#68182b"/></g></g></svg>