<svg id="Office_Supplies" height="512" viewBox="0 0 708.662 708.662" width="512" xmlns="http://www.w3.org/2000/svg"><g><g fill="#fff"><path d="m257.492 389.902c-3.473-5.487-10.225-16.178-13.424-21.239 2.248 3.573 6.874 10.873 14.963 23.679 17.523 27.688 34.715 55.61 52.299 83.258 23.396 36.789 47.278 76.434 77.882 107.767 26.241 26.868 62.493 49.697 96.013 66.442 31.719 15.843 74.278 13.13 83.328-27.628 3.918-17.595.062-36.273-1.893-53.889-2.551-22.92-5.588-45.84-11.055-68.274-10.549-43.38-32.406-83.368-53.362-122.466-38.956-72.668-78.631-145.083-122.993-214.633-14.072-22.069-28.702-43.75-43.754-65.156-12.797-18.213-27.334-38.328-49.719-45.021-47.023-14.052-108.859 26.049-135.332 62.808-29.339 40.728 1.833 90.506 21.067 128.328 25.633 50.395 55.792 98.281 85.98 146.024z"/><path d="m244.069 368.663c-.02-.021-.02-.03-.041-.051.01.021.031.04.041.051z"/><path d="m244.028 368.612c-1.995-3.169-2.58-4.08 0 0z"/></g><g><path d="m303.444 407.689c31.101 49.667 62.008 100.934 99.061 146.5 21.767 26.768 56.055 44.828 84.715 62.99 24.398 15.469 55.984 25.117 53.484-15.5-4.859-43.835-8.2-90.395-25.582-131.375-15.176-35.797-34.076-70.178-52.522-104.345-45.79-84.807-93.624-169.952-149.335-248.729-8.311-11.764-16.531-24.429-28.447-32.745-15.672-10.938-39.746-1.149-54.799 5.381-20.188 8.747-39.523 23.184-53.576 40.085-13.291 15.98-10.365 30.548-2.783 48.786 33.407 80.296 83.813 155.515 129.784 228.952z" fill="#68182b"/><path d="m523.321 591.253c.405 3.462.801 6.935 1.186 10.427 1.215 19.762-13.121 12.503-24.824 4.759-6.479-4.303-9.041-8.575-2.582-15.257 3.342-3.452 7.391-6.337 11.703-8.17 13.06-5.548 13.658.891 14.517 8.241z" fill="#e5e5e5"/><path d="m512.104 521.004c3.229 14.336 5.73 28.894 7.826 43.755-17.129-.344-34.928 11.298-42.986 26.585-8.807-5.729-17.574-11.531-26.24-17.494-3.715-2.551-7.34-5.132-10.852-7.784-8.313-6.277-13.627-12.868-5.629-23.73 6.671-9.051 17.493-16.178 25.906-21.392 7.957-4.93 21.412-12.351 33.59-14.325 12.047-1.944 15.591 1.984 18.385 14.385z" fill="#ff7a0d"/><path d="m265.46 96.279c17.96-1.422 32.478 27.056 41.274 39.802 12.775 18.485 24.834 37.473 36.738 56.525 51.631 82.604 100.409 167.806 143.424 255.234 4.949 10.072 9.182 20.176 12.846 30.33 3.727 10.336 4.131 11.896-3.533 12.462-1.113.081-2.227.203-3.34.354-.031-.061-.021-.111-.051-.172-37.205-72.779-77.893-143.848-119.146-214.39-35.422-60.591-70.218-123.459-112.586-179.635 1.469-.211 2.926-.393 4.374-.51z" fill="#ff2e60"/><path d="m244.17 101.022c6.55-2.303 7.502-.835 11.672 4.788 39.918 53.727 72.973 113.396 106.766 170.949 40.211 68.497 79.773 137.592 116.26 208.184 3.199 6.176 3.908 8.039-1.68 10.033-1.357.476-2.703.981-4.029 1.519-36.922-72.041-77.537-142.269-118.651-211.98-36.191-61.359-71.756-124.937-114.995-181.73 1.55-.629 3.099-1.216 4.657-1.763z" fill="#e5e5e5"/><path d="m214.336 116.583c3.451-2.42 7.055-4.698 10.75-6.793 5.912-3.341 6.844-1.094 10.895 4.343 40.008 53.757 73.396 113.233 107.441 170.736 39.868 67.322 79.159 135.222 115.229 204.691 4.891 9.415 5.214 10.974-.688 14.041-.77.405-1.539.81-2.289 1.215-1.711.911-3.441 1.894-5.173 2.926-5.071 3.027-5.933 1.033-11.521-7.279-43.036-64.083-84.107-129.532-124.471-195.316-34.968-56.976-72.517-114.509-101.188-175.241-3.319-7.026-4.725-9.314 1.015-13.323z" fill="#ff2e60"/><path d="m198.442 129.662c.932-.911 1.893-1.812 2.865-2.703 28.376 62.069 66.583 120.584 102.057 178.607 43.451 71.074 87.854 141.687 134.555 210.689-1.215.942-2.41 1.914-3.584 2.906-3.23 2.723-5.994 1.649-9.334-3.29-44.221-65.621-86.327-132.711-127.702-200.155-34.48-56.187-71.443-112.92-99.941-172.721-3.26-6.823-3.645-8.711 1.084-13.333z" fill="#e5e5e5"/><path d="m187.073 143.887c28.053 59.709 64.822 116.21 99.08 172.249 43.967 71.904 88.887 143.367 136.184 213.14.295.445.68.719 1.033 1.022-1.355 1.69-2.621 3.432-3.775 5.234-5.031 7.785-7.371 5.233-13.475-2.795-22.566-29.743-42.753-61.431-62.981-92.773-51.275-79.45-102.148-160.491-144.344-245.216-7.855-15.768-19.396-34.431-11.722-50.861z" fill="#ff2e60"/><path d="m354.508 284.515c41.114 69.712 81.729 139.939 118.651 211.98 1.326-.537 2.672-1.043 4.029-1.519 5.588-1.994 4.879-3.857 1.68-10.033-2.014-3.897-4.131-7.744-6.154-11.632-20.572-37.053-42.318-73.458-64.316-109.67-34.178-56.263-68.518-113.669-106.512-168.008 17.999 29.475 35.25 59.431 52.622 88.882z" fill="#c6c6c6"/><path d="m297.299 315.716c41.375 67.444 83.481 134.534 127.702 200.156 3.34 4.939 6.104 6.013 9.334 3.29 1.174-.992 2.369-1.964 3.584-2.906-17.799-26.301-35.181-52.886-52.391-79.592-4.85-6.712-9.658-13.444-14.457-20.156-27.264-38.146-53.535-77.012-79.37-116.14-21.867-33.135-43.34-66.543-64.348-100.239 22.214 39.29 46.622 77.577 69.946 115.587z" fill="#c6c6c6"/><path d="m439.852 566.065c3.512 2.652 7.137 5.233 10.852 7.784 8.666 5.963 17.434 11.765 26.24 17.494 7.979-15.135 25.492-26.655 42.459-26.555-5.082-3.645-13.403-4.009-18.992-2.642-8.412 2.064-15.854 8.615-22.879 13.333-13.293 8.919-31.789-14.072-35.25-24.753-3.24-10.013 2.602-18.313 10.861-25.289-6.813 4.586-14 10.215-18.92 16.896-7.998 10.864-2.683 17.455 5.629 23.732z" fill="#ef6200"/><path d="m510.708 545.979c-1.56-13.495-3.543-30.067-14.488-30.462-12.006-.436-28.092 6.884-35.27 16.693-3.969 5.437-4.293 21.007 5.496 20.835 13.121-.223 26.971-12.401 38.703-4.708 4.942 3.241 5.903.599 5.559-2.358z" fill="#ffb85a"/><path d="m499.682 606.438c9.121 6.044 19.822 11.723 23.527 4.596-2.926-.81-5.74-2.096-8.26-3.553-8.677-5.042-12.26-12.827-11.846-21.321-2.156 1.469-4.191 3.148-6.004 5.021-6.458 6.682-3.895 10.955 2.583 15.257z" fill="#c6c6c6"/><g fill="#ea0f4d"><path d="m297.137 140.955c-7.927-11.272-16.582-22.55-26.99-31.723 38.299 52.947 70.684 111.017 103.526 167.193 41.254 70.542 81.941 141.61 119.146 214.39.029.061.02.111.051.172.981-.131 1.974-.232 2.955-.313-4.241-11.39-8.857-22.616-14.092-33.661-20.945-44.14-47.064-86.062-71.717-128.187-24.975-42.682-47.5-86.796-73.61-128.799-12.482-20.08-25.683-39.73-39.269-59.072z"/><path d="m314.51 305.146c40.364 65.784 81.435 131.233 124.471 195.316 5.588 8.313 6.449 10.307 11.521 7.279.81-.485 1.61-.911 2.409-1.366-30.239-39.908-55.701-83.562-82.478-125.757-29.076-45.83-58-91.762-86.083-138.209-17.919-29.622-35.676-59.437-51.54-90.228-5.699-11.075-12.979-23.816-16.725-36.709-.566.391-1.184.714-1.75 1.109-5.74 4.009-4.334 6.297-1.014 13.322 28.672 60.735 66.221 118.268 101.189 175.243z"/><path d="m264.346 307.643c-3.229-5.026-6.479-10.048-9.729-15.08-11.298-17.787-22.332-35.731-32.942-53.888 37.134 68.952 79.116 135.678 121.464 201.289 20.228 31.343 40.415 63.03 62.981 92.773 5.334 7.006 7.795 9.841 11.682 5.255-10.689-13.606-20.459-28.083-30.168-42.085-22.627-32.639-44.231-65.986-65.663-99.425-17.119-26.696-34.725-53.271-52.066-80.058-1.864-2.925-3.686-5.866-5.559-8.781z"/></g></g></g></svg>