<svg id="Office_Supplies" height="512" viewBox="0 0 708.662 708.662" width="512" xmlns="http://www.w3.org/2000/svg"><g><path d="m185.827 164.138c-4.363 8.914-6.397 18.749-6.367 28.646.061 15.59 5.002 30.432 10.367 44.878 52.947 143.048 138.472 273.655 241.369 385.41 20.398 22.161 52.938 44.423 83.247 26.443 31.505-18.678 23.892-60.216 18.546-90.051-13.119-73.225-40.17-142.703-71.645-209.803 25.805 4.109 49.424-15.479 53.059-40.637 3.846-26.615-11.512-55.407-21.148-79.472-22.77-56.854-55.235-136.012-125.777-141.55-16.896-1.326-33.793 1.316-50.184 5.225-6.125 1.463-18.344 7.795-21.654 2.034-3.766-6.539-7.916-12.887-12.736-18.708-21.279-25.679-53.969-31.333-82.771-14.052-28.537 17.119-35.25 48.766-24.458 79.086 2.762 7.776 6.316 15.252 10.152 22.551z" fill="#fff"/><g><path d="m218.132 168.416c-16.652 18.709-7.41 41.011.123 61.37 10.67 28.842 23.607 56.875 37.133 84.482 27.293 55.742 58.818 109.589 93.018 161.362 24.488 37.063 52.086 68.133 81.748 100.923 13.697 15.146 35.534 47.916 58.242 49.84 18.697 1.589 21.139-16.917 20.227-31.576-10.326-84.26-39.664-160.005-75.047-235.144-3.887-8.271-20.723-42.875-24.428-50.345-13.789-27.714-28.053-55.185-42.602-82.504-7.553-14.178-14.801-31.353-23.335-47.055 15.013-4.13 32.001-7.173 40.302 9.259 4.395 8.716 8.748 17.453 13.172 26.154 15.529 30.589 31.494 61.071 49.555 90.253 6.297 9.643 19.793 21.168 31.485 12.148 12.311-9.491 8.008-25.745 3.372-38.111-17.677-45.9-37.418-100.766-69.703-138.406-35.078-40.904-83.43-19.538-127.184-8.609-1.377.344-1.964.708-2.652-.639-13.617-26.853-29.105-63.576-63.698-45.576-34.491 17.954-11.886 53.6 2.501 79.754-.751.799-1.499 1.599-2.229 2.42z" fill="#68182b"/><path d="m490.673 582.061c.638 4.231 1.225 8.483 1.752 12.756 1.104 17.858-15.945 5.639-24.379-1.771-3.199-2.814-5.133-4.637.506-9.749 4.264-3.867 9.355-6.196 15.115-7.239 6.074-1.105 6.004-.69 7.006 6.003z" fill="#e5e5e5"/><path d="m468.987 489.682c7.229 22.738 13.273 45.891 17.828 69.682-13.728.941-25.977 6.803-34.461 17.574-5.518-6.003-10.964-12.077-16.42-18.111-9.982-11.034-20.744-21.32-30.533-32.517-4.729-5.396-7.766-9.77-2.744-17.666 10.215-16.026 34.887-27.081 54.76-27.719 8.148-.264 9.283 1.579 11.57 8.757z" fill="#00ebed"/><path d="m415.26 358.6c17.971 37.337 34.35 74.541 47.633 112.718-26.393-1.62-60.793 14.011-71.443 37.802-20.024-26.008-37.6-54.172-54.81-81.972-3.948-6.378-7.825-12.786-11.663-19.235-4.141-6.955-4.748-10.822-.535-17.281 14.689-22.575 45.627-44.079 72.951-46.276 11.733-.952 11.936 1.913 17.867 14.244z" fill="#7e71ff"/><path d="m349.001 228.353c17.748 32.947 34.857 66.234 51.408 99.784-34.045 1.164-72.627 25.917-90.16 54.425-15.621-27.374-30.463-55.195-44.313-83.486-10.73-21.912-20.582-44.255-29.521-66.953-2.136-5.386-2.288-7.714 1.751-13.464 14.699-20.937 47.592-34.608 74.309-37.984 10.406-1.316 11.045-.319 15.488 7.734 7.301 13.213 14.012 26.884 21.038 39.944z" fill="#ff7a0d"/><path d="m353.173 132.907c24.51-4.996 45.84 15.15 57.26 34.693 21.513 36.846 39.725 76.394 55.043 116.175 1.619 4.323 3.674 8.849 4.16 13.485.547 5.324-2.693 7.774-5.861 4.464-1.326-1.392-2.662-3.118-3.543-4.464-21.584-34.856-40.212-71.504-58.586-108.127-15.592-31.074-37.408-30.649-67-23.572-3.137-4.729-6.428-9.233-10.021-13.161-3.838-4.191-7.877-7.572-12.057-10.266 13.484-3.29 26.998-6.454 40.605-9.227z" fill="#7e71ff"/><path d="m314.702 166.371c.871 1.296 1.488 1.711 2.501 4.014-31.028 2.151-70.127 18.44-87.651 44.079-2.338-6.596-4.292-13.318-5.111-20.086-1.742-14.451 16.814-26.114 26.665-32.553 21.229-13.885 46.882-20.227 63.596 4.546z" fill="#00ebed"/><path d="m214.883 112.897c-.517-7.329 6.146-10.058 11.157-12.67 4.646-2.419 8.898-5.239 14.455-2.546 9.669 4.677 16.422 18.375 21.898 30.645 3.432 7.704 3.816 7.734-3.463 10.63-7.025 2.784-13.859 6.591-20.277 11.11-4.879 3.433-6.823 3.533-10.195-2.293-6.448-11.136-12.744-22.99-13.575-34.876z" fill="#ff7a0d"/><path d="m457.993 471.216c-5.922-2.5-12.816-3.28-18.344-2.318-13.15 2.268-24.52 9.243-37.285 12.797-18.75 5.214-28.883-18.517-36.861-31.222-9.242-14.73-20.156-30.473-25.754-47.005-4.262-12.613.779-26.716 8.695-38.085-9.729 7.491-18.162 16.269-24.002 25.248-4.213 6.459-3.605 10.326.535 17.281 3.838 6.449 7.715 12.857 11.663 19.235 17.21 27.8 34.785 55.964 54.81 81.972 10.002-22.343 40.951-37.488 66.543-37.903z" fill="#5e5af2"/><path d="m451.817 276.182c-6.56-12.726-13.241-25.39-19.811-38.11-10.984-21.265-20.146-46.291-35.211-65.05-9.436-11.744-20.399-16.553-35.342-16.725-14.75-.167-24.702 2.956-37.336-7.319-2.612-2.116-5.113-3.584-7.887-4.247 2.885 2.192 5.689 4.723 8.393 7.669 3.594 3.928 6.885 8.433 10.021 13.161 29.592-7.077 51.408-7.502 67 23.572 18.374 36.623 37.002 73.271 58.586 108.127.881 1.346 2.217 3.072 3.543 4.464 2.217 2.313 4.434 1.771 5.396-.557-8.664-4.099-12.633-15.813-17.352-24.985z" fill="#5e5af2"/><path d="m442.594 445.117c-5.426-16.906-30.553-69.074-36.223-78.55-4.646-7.775-7.42-10.549-16.369-7.35-7.158 2.551-24.742 8.393-26.342 17.554-2.977 16.917 15.004 54.445 29.602 71.737 6.863 8.129 13.789 9.121 21.391 7.127 6.742-1.762 14.366-4.991 21.482-4.546 6.764.436 8.606.7 6.459-5.972z" fill="#a8a6ff"/><path d="m353.173 132.907c-4.93 1.007-9.84 2.11-14.76 3.204 9.435-.612 18.85-.562 27.951.946 17.383 2.881 28.813 15.96 38.51 29.602 14.498 20.379 26.525 42.707 37.631 65.075 2.955 5.958 5.952 11.86 8.959 17.763-12.118-28.073-25.725-55.676-41.031-81.896-11.421-19.544-32.751-39.69-57.26-34.694z" fill="#a8a6ff"/><path d="m224.44 194.377c.819 6.768 2.773 13.49 5.111 20.086 17.252-25.244 55.387-41.391 86.174-43.938-12.654-5.896-30.654.481-42.803 4.506-9.547 3.163-18.324 8.053-26.322 14.097-3.33 2.511-11.248 9.364-14.821 2.652-1.388-3.594-.597-9.851.931-15.944-5.274 5.366-9.1 11.632-8.27 18.541z" fill="#19bfbb"/><path d="m405.401 526.31c9.789 11.196 20.551 21.482 30.533 32.517 5.456 6.034 10.902 12.108 16.42 18.111 8.262-10.498 20.126-16.299 33.429-17.453-2.329-1.508-5.093-2.268-7.997-1.721-10.226 1.924-20.613 10.569-30.889 5.031-8.018-4.322-14.963-15.985-20.631-23.011-4.91-6.095-9.902-12.159-14.193-18.709-6.227-9.517-3.189-17.676 2.479-24.823-4.839 3.645-8.97 7.806-11.896 12.392-5.021 7.896-1.983 12.269 2.745 17.666z" fill="#19bfbb"/><path d="m462.175 498.489c-4.94-11.228-22.869-7.674-30.057-.668-9.385 9.142-1.418 21.138 4.402 30.007 4.779 7.278 8.899 14.75 16.168 19.771 4.334 2.996 11.016 2.592 16.867 1.822 4.545-.588 6.65-1.326 5.273-8.403-2.823-14.446-6.802-29.237-12.653-42.529z" fill="#6cfffb"/><path d="m282.419 152.845c10.872-.941 20.004 3.447 28.73 8.909-16.006-18.496-38.449-13.293-57.746-1.367 9.385-3.735 19.013-6.681 29.016-7.542z" fill="#6cfffb"/><path d="m468.552 583.296c-5.639 5.112-3.705 6.935-.506 9.749 7.006 6.155 19.924 15.57 23.477 8.372-4.281-.364-8.209-2.096-11.945-5.396-4.586-4.061-7.046-10.286-6.246-16.158-1.682.992-3.302 2.086-4.78 3.433z" fill="#c6c6c6"/><path d="m390.022 326.841c-11.439-2.885-24.904 3.649-34.865 8.564-13.98 6.895-25.928 19.919-40.697 24.865-14.67 4.91-34.582-43.583-39.554-53.788-9.223-18.922-17.838-38.212-25.157-57.948-2.48-6.667-4.768-13.454-6.217-20.43-1.376-6.646-.08-12.837 2.643-18.537-3.027 2.855-5.75 5.877-8.008 9.092-4.039 5.75-3.887 8.078-1.751 13.464 8.938 22.698 18.79 45.041 29.521 66.953 13.85 28.291 28.691 56.112 44.313 83.486 16.612-27 52.105-50.609 84.734-54.01-1.509-.653-3.129-1.245-4.962-1.711z" fill="#ef6200"/><path d="m214.883 112.897c.831 11.886 7.128 23.74 13.575 34.876 3.372 5.826 5.316 5.726 10.195 2.293 6.418-4.52 13.252-8.326 20.277-11.11 2.4-.952 3.898-1.6 4.799-2.309-5.012-.9-10.609-.101-14.73 1.271-17.078 5.665-21.795-3.862-25.754-16.987-1.539-5.077-3.098-12.021-2.176-18.025-3.533 2.145-6.541 4.985-6.186 9.991z" fill="#ef6200"/><path d="m375.688 304.473c-15.297-32.472-49.303-98.022-51.965-102.072-6.287-9.577-13.85-12.401-25.229-8.063-10.549 4.004-13.182 6.231-6.936 23.512 6.217 17.165 37.873 78.023 49.01 89.291 6.894 6.985 21.906 4.252 31.504 3.741 5.478-.295 6.075-1.211 3.616-6.409z" fill="#ffb85a"/></g></g></svg>