<svg id="Office_Supplies" height="512" viewBox="0 0 708.662 708.662" width="512" xmlns="http://www.w3.org/2000/svg"><g><path d="m614.632 138.83c-24.023-14.821-50.133-1.842-71.26 12.027-36.072 23.659-69.51 51.023-102.564 78.661-9.475-41.933-18.729-84.665-31.555-125.727-8.615-27.577-22.891-61.016-56.025-63.183-41.658-2.723-57.279 36.456-56.277 71.656.516 18.313 4.252 36.192 6.348 54.334 2.744 23.811 5.518 47.611 8.574 71.383 2.855 22.201 5.953 44.382 9.506 66.481.893 5.538 1.813 11.076 2.764 16.603 1.418 8.241-1.113 5.73-7.652 8.757-9.082 4.201-16.998 10.438-24.367 17.139-5.295 4.819-10.256 10.164-16.027 14.447-7.947-5.406-16.461-9.972-25.328-13.667-19.186-7.998-40.051-11.906-60.824-11.298-70.785 2.065-134.898 65.126-117.738 138.787 14.457 62.078 83.064 109.659 146.42 95.284 30.805-6.996 55.82-27.911 77.516-49.85 23.873-24.155 46.803-49.241 70.027-74.005 6.154 65.146 2.844 159.561 62.361 201.766 54.881 38.906 140.102 17.271 175.646-37.923 43.197-67.06-6.268-155.511-76.121-178.835-7.875-2.633-16.025-4.455-24.287-5.326-8.33-.891-13.596 1.732-15.803-6.771-1.822-7.006-13.707-43.928-11.357-46.094 33.164-30.522 64.598-62.848 96.002-95.152 19.023-19.58 42.227-35.372 56.916-58.88 16.175-25.875 12.874-63.485-14.895-80.614z" fill="#fff"/><g><path d="m500.69 455.561c-9.791-1.032-19.549-.901-29.258-2.673-6.965-1.266-10.65-21.826-12.26-27.192-3.523-11.794-4.92-31.96-13.01-41.497-2.146-2.541-5.021-4.556-8.26-6.145-.092-2.501-.295-4.991-.557-7.472 6.691-6.297 13.078-12.938 19.355-18.719 34.906-32.143 67.9-66.33 100.975-100.336 12.857-13.232 58.898-45.86 52.318-69.863-6.732-24.561-21.775-24.449-41.852-11.805-45.688 28.782-87.631 64.792-128.965 99.344-5.477 4.576-11.156 9.182-16.918 13.829-8.777-42.935-18.738-85.637-29.926-127.983-4.787-18.112-16.916-82.094-38.895-84.908-41.607-5.335-23.699 69.195-21.625 87.287 7.057 61.188 14.104 122.364 25.686 182.895-4.203 4.566-8.182 9.253-11.916 14.062-1.711-.334-3.422-.577-5.113-.577-30.279 0-47.672 55.164-79.613 32.79-51.863-36.313-132.67-26.241-157.342 38.886-24.418 64.467 50.051 132.58 111.785 115.572 33.268-9.152 59.994-41.427 83.057-65.217 23.588-24.318 46.133-49.627 69.822-73.863 3.898-3.979 6.641-7.137 6.904-14.123 9.111-7.076 14.537-5.78 19.225-3.026-4.252 5.78-4.131 9.05-3.301 16.188 3.615 30.938 5.984 62.038 9.273 93.007 3.787 35.676 6.561 73.225 23.559 105.448 33.195 62.939 134.979 44.038 160.967-14.74 24.754-55.985-27.939-123.227-84.115-129.169zm-285.469 20.52c-13.535 13.182-30.635 9.142-42.752-3.533-9.951-10.417-13.191-23.72-5.771-36.516 12.514-21.584 35.049-16.654 50.6-2.228 13.605 14.406 11.519 29.046-2.077 42.277zm289.67 102.452c-18.598 4.435-34.512-3.604-39.898-22.05-6.186-21.128 5.002-36.495 25.521-40.332 23.406-1.762 40.9 6.924 41.813 32.537.607 16.967-12.625 26.312-27.436 29.845z" fill="#68182b"/><path d="m356.175 380.949c-4.02-5.113-11.168-9.972-12.625-10.245-6.256-1.186-13.951 6.6-18.365 9.891-9.322 6.955-18.557 14.143-28.266 20.571-15.691 10.397-24.803 13.028-41.193 1.549-24.711-17.312-55.082-29.795-85.443-18.436-24.955 9.345-53.666 31.597-54.152 60.844-.576 35.372 25.533 73.933 61.734 81.516 37.287 7.806 65.602-18.577 90.082-42.985 29.439-29.358 57.037-60.479 86.01-90.272 4.778-4.911 6.985-6.389 2.218-12.433zm-131.954 108.698c-20.217 17.361-48.219 12.745-64.711-7.34-15.449-18.82-18.891-43.795-.598-62.484 13.373-13.666 28.803-17.037 43.684-12.896 21.574 6.013 38.521 23.658 39.848 44.635.85 13.595-5.435 27.101-18.223 38.085z" fill="#00ebed"/><path d="m352.53 196.434c-2.693-22.708-5.234-45.435-7.896-68.142-1.307-11.137-3.26-21.422-1.459-32.579 2.814-17.494 13.678-1.246 15.875 4.717 22.93 62.049 36.252 129.138 49.109 193.991-9.789 7.947-19.6 16.107-28.984 24.59-6.863 6.206-8.008 6.216-9.293-1.083-7.137-40.302-12.543-80.837-17.352-121.494z" fill="#e5e5e5"/><path d="m557.96 507.182c-20.258-27.021-45.355-33.389-77.365-36.739-17.049-1.781-25.34-4.84-31-21.422-4.434-13.009-8.088-26.24-11.834-39.463-2.318-8.189-2.541-23.233-22.666-18.728-6.236 1.407-8.303 6.731-7.734 11.642 5.131 44.949 7.238 90.354 14.547 135.04 5.305 32.437 14.598 73.326 52.381 81.536 32.709 7.107 74.682-.951 91.922-33.064 12.796-23.862 7.917-57.229-8.251-78.802zm-9.436 41.506c-1.266 24.429-17.494 42.154-41.82 45.951-26.9 4.191-53.768-8.149-58.111-37.417-2.916-19.7 2.045-36.567 14.934-46.934 13.758-11.065 31.758-12.057 45.84-9.263 22.636 4.496 40.554 20.633 39.157 47.663z" fill="#00ebed"/><path d="m580.514 181.664c-12.311 6.55-29.793 19.832-31.818 21.32-40.02 29.379-78.611 60.813-116.311 93.107-23.518 20.146-51.936 40.758-71.799 65.409 3.695 2.845 6.977 6.287 9.477 10.083 6.287-4.231 13.395-7.39 21.18-5.466 4.059 1.002 8.25 1.934 11.732 4.464 7.896 5.74 16.533-6.904 21.342-11.187 30.623-27.344 59.973-56.035 88.723-85.333 15.52-15.813 30.928-31.717 46.387-47.571 7.25-7.44 27.445-22.353 32.689-36.313 3.078-8.22.031-14.709-11.602-8.513zm-159.336 170.24c-5.832 14.345-25.381 11.744-30.402.627-3.613-7.998 1.438-15.337 4.748-18.232 5.082-4.435 12.33-5.467 18.719-1.559 6.914 4.232 10.125 11.308 6.935 19.164z" fill="#e5e5e5"/><path d="m412.157 348.239c-2.096 7.572-14.588 4.201-12.26-3.898 2.107-3.827 5.295-5.467 9.436-3.208 3.291 1.781 3.765 3.675 2.824 7.106z" fill="#ff2e60"/><g fill="#19bfbb"><path d="m541.751 571.901c11.916-14.709 13.951-34.734 3.059-53.857-15.5-27.192-56.229-29.379-80.119-13.373-15.783 10.568-20.178 28.194-16.816 44.807-.697-16.35 4.484-30.209 15.652-39.188 13.758-11.065 31.758-12.057 45.84-9.263 22.637 4.494 40.555 20.632 39.158 47.662-.456 8.706-2.835 16.541-6.774 23.212z"/><path d="m158.913 419.823c13.373-13.666 28.803-17.037 43.684-12.896 21.574 6.013 38.521 23.658 39.848 44.635.811 12.979-4.951 25.846-16.594 36.547 18.436-11.896 25.785-34.279 14.355-56.389-14.75-28.509-52.734-40.921-78.994-19.853-15.166 12.168-18.273 29.317-13.799 45.749-2.592-13.07.506-26.565 11.5-37.793z"/><path d="m536.649 604.085c-19.984 10.205-46.023 11.592-67.16 4.718-15.611-5.062-25.311-19.427-31.273-33.854-10.244-24.763-10.893-52.957-14.375-79.228-2.744-20.764-5.041-41.599-6.975-62.464-1.387-15.003-4.809-31.343 3.836-43.178-1.68.071-3.512.284-5.607.75-6.236 1.407-8.303 6.731-7.734 11.642 5.131 44.949 7.238 90.354 14.547 135.04 5.305 32.437 14.598 73.326 52.381 81.536 32.709 7.107 74.682-.951 91.922-33.064 7.025-13.1 8.697-29.055 6.125-44.361-1.388 25.542-10.327 49.516-35.687 62.463z"/><path d="m352.458 377.001c.76 8.027-2.258 13.666-9.293 20.47-5.559 5.365-10.813 11.034-16.107 16.663-11.561 12.28-23.729 23.629-36.293 34.877-23.943 21.422-44.342 46.903-73.59 61.531-58.18 29.096-104.293-34.887-94.736-88.016-3.807 6.915-6.166 14.478-6.309 22.597-.576 35.372 25.533 73.933 61.734 81.516 37.287 7.806 65.602-18.577 90.082-42.985 29.439-29.358 57.037-60.479 86.01-90.272 4.779-4.91 6.986-6.388 2.219-12.432-1.075-1.368-2.37-2.705-3.717-3.949z"/></g><path d="m592.116 190.178c1.428-3.817 1.52-7.238.063-9.213-3.25 13.586-25.098 32.052-31.9 38.936-16.877 17.058-33.703 34.178-50.527 51.297-31.637 32.213-63.486 64.286-94.475 97.147 3.553-2.946 6.742-6.904 9.041-8.949 30.623-27.344 59.973-56.035 88.723-85.333 15.52-15.813 30.928-31.717 46.387-47.571 7.249-7.441 27.444-22.354 32.688-36.314z" fill="#c6c6c6"/><path d="m369.882 317.929c1.285 7.299 2.43 7.289 9.293 1.083 1.256-1.134 2.561-2.207 3.826-3.33-4.869-13.232-6.893-28.377-9.484-41.447-5.082-25.583-9.133-51.388-13.08-77.173-2.936-19.205-6.49-38.298-9.617-57.472-1.338-8.21-3.342-17.291-4.891-26.483-.719-5.396-1.357-10.782-1.813-16.198-.111-1.256-.242-2.562-.375-3.888-.211.8-.404 1.681-.566 2.693-1.801 11.156.152 21.442 1.459 32.579 2.662 22.707 5.203 45.435 7.896 68.142 4.809 40.656 10.215 81.191 17.352 121.494z" fill="#c6c6c6"/><path d="m544.565 215.264c-28.518 22.06-111.623 90.071-115.572 93.523-3.957 3.462-7.391 7.329-8.139 11.328-1.619 8.615 5.578 12.756 13.211 9.395 4.344-1.903 99.283-95.061 113.82-110.095 17.1-17.676 16.098-19.164-3.32-4.151z" fill="#f4f4f4"/><path d="m396.497 273.951c-3.695-19.042-20.541-85.161-31.09-124.167-6.875-25.421-7.594-22.728-4.039 1.447 6.631 45.203 19.801 119.905 21.633 126.982 5.396 20.895 17.322 15.54 13.496-4.262z" fill="#f4f4f4"/><path d="m408.442 344.423c-.363-1.347-1.387-1.823-2.42-1.701-1.285.152-2.328.86-2.652 1.832-.789 2.369 3.555 4.991 4.881 2.329.343-.668.435-1.549.191-2.46z" fill="#f69"/></g></g></svg>