<?xml version="1.0" encoding="UTF-8"?>
<svg xmlns="http://www.w3.org/2000/svg" xmlns:xlink="http://www.w3.org/1999/xlink" version="1.1" id="character" x="0px" y="0px" viewBox="0 0 512 512" xml:space="preserve" width="512" height="512">
<g>
	<g id="square_36_">
		<polygon fill="none" points="385.786,309.622 122.744,291.772 85.876,106.309 429.564,138.575   "/>
	</g>
	<g id="shadow_55_">
		<path fill="none" d="M428.791,380.545c0-29.282-77.534-53.02-173.178-53.02c-95.644,0-173.178,23.738-173.178,53.02    c0,18.57,31.191,34.907,78.4,44.377c-2.481,2.753-3.806,5.64-3.806,8.618c0,18.82,52.768,34.076,117.861,34.076    s117.86-15.256,117.86-34.076c0-5.729-4.897-11.126-13.535-15.865C409.875,408.11,428.791,395.005,428.791,380.545z"/>
	</g>
	<g>
		<g>
			<g>
				<g>
					
						<ellipse transform="matrix(0.0417 -0.9991 0.9991 0.0417 -98.6767 584.9572)" fill="#7C808F" cx="255.614" cy="343.921" rx="30.936" ry="101.295"/>
				</g>
				<g>
					<polygon fill="none" points="358.243,337.112 151.691,330.505 154.587,341.997 356.82,348.149      "/>
				</g>
				<g>
					
						<ellipse transform="matrix(0.0417 -0.9991 0.9991 0.0417 -87.8233 573.1353)" fill="#A9ADB9" cx="254.877" cy="332.352" rx="31.605" ry="103.484"/>
				</g>
			</g>
			<g>
				<path fill="#8A3511" d="M362.542,104.454c-60.623,6.407-130.326,1.421-205.229,19.478      c-19.311,48.704-39.738,120.295-0.752,206.933c12.205,22.101,156.158,45.11,197.166,7.421      C390.034,292.24,408.688,168.5,362.542,104.454z"/>
			</g>
			<g>
				<path fill="#5E1B0B" d="M167.524,339.405c1.333,0.667,2.764,1.327,4.288,1.978c-12.446-32.249-40.491-122.84-2.82-208.141      C155.164,159.39,127.066,237.72,167.524,339.405z"/>
			</g>
			<g>
				<path fill="#5E1B0B" d="M209.232,352.057c1.021,0.2,2.054,0.394,3.092,0.586c-4.496-26.969-20.356-136.474,4.26-211.741      C207.217,163.085,187.679,224.008,209.232,352.057z"/>
			</g>
			<g>
				<path fill="#5E1B0B" d="M307.869,361.976c0,0,1.515,7.769,3.009,0.036c24.994-132.395,5.683-195.302-3.576-217.986      C334.521,230.756,307.869,361.976,307.869,361.976z"/>
			</g>
			<g>
				<path fill="#5E1B0B" d="M349.165,341.93c26.499-125.37,9.845-186.48,1.524-208.917c21.11,75.774,0.827,183.521-5.02,211.17      C346.883,343.462,348.052,342.713,349.165,341.93z"/>
			</g>
			<g>
				<path fill="#5E1B0B" d="M263.732,366.278c0,0-3.592,7.157-4.993-0.594c-18.246-124.132-5.449-188.501,4.081-211.072      C239.823,248.019,263.732,366.278,263.732,366.278z"/>
			</g>
			<g>
				<g>
					
						<ellipse transform="matrix(0.9999 -0.013 0.013 0.9999 -1.6391 3.4506)" fill="#7C808F" cx="264.78" cy="127.886" rx="114.121" ry="34.854"/>
				</g>
				<g>
					<polygon fill="#7C808F" points="378.874,125.916 150.975,126.649 154.531,114.073 377.656,113.705      "/>
				</g>
				<g>
					
						<ellipse transform="matrix(0.9999 -0.013 0.013 0.9999 -1.4736 3.4649)" fill="#A9ADB9" cx="265.958" cy="115.156" rx="111.707" ry="34.116"/>
				</g>
			</g>
			<g>
				
					<ellipse transform="matrix(0.9999 -0.013 0.013 0.9999 -1.4482 3.4644)" fill="#8A3511" cx="265.933" cy="113.201" rx="103.443" ry="29.637"/>
			</g>
			<g>
				<path fill="#5E1B0B" d="M171.689,126.555l186.855-1.248c1.26-0.739,2.418-1.493,3.472-2.261l-192.199,2.275      C170.407,125.737,171.033,126.149,171.689,126.555z"/>
			</g>
			<g>
				<path fill="#5E1B0B" d="M178.501,98.4l168.888-4.438c-2.298-0.813-4.751-1.587-7.346-2.319l-156.066,4.453      C182.036,96.84,180.207,97.608,178.501,98.4z"/>
			</g>
		</g>
		<g>
			<path fill="#78280E" d="M368.375,290.56c7.535-6.032,4.442-22.668-14.868-14.774c-1.67-4.07-11.118-10.023-15.215-12.408     c3.678-3.845,6.642-7.309,9.112-12.121c-22.31-5.694-14.026-40.499-26.563-56.199c5.225-7.872,8.669-13.16,5.58-18.703     c69.448-46.204-62.904-25.694-71.103-33.635c-20.345,4.069-20.185,12.193-19.934,17.669     c-22.195,2.926-36.304,31.157-54.421,23.24c-6.692,13.704-3.435,29.169-0.915,41.773c-6.715,9.469-11.141,19.482-13.856,29.589     c-38.477,30.1-3.537,76.575,13.856,80.841c1.43,6.231,5.305,9.602,8.787,11.415c2.926,0.828,5.996,1.625,9.187,2.386     c10.158,1.213,46.758,5.509,81.298,8.65c30.896-0.603,59.475-6.273,74.406-19.996c7.466-9.468,14.182-22.226,19.745-37.07     C371.718,297.766,370.027,294.206,368.375,290.56z"/>
		</g>
		<g>
			<path fill="#4A1307" d="M208.391,174.752c-0.87,0.663-1.734,1.313-2.593,1.951c-6.982,33.927-10.944,89.207,3.247,174.221     c0.979,0.113,1.99,0.23,3.053,0.352C208.017,326.366,196.479,244.314,208.391,174.752z"/>
		</g>
		<g>
			<path fill="#65697A" d="M255.319,142.719c-20.345,4.069-20.185,12.193-19.934,17.669c-1.739,0.229-3.424,0.629-5.07,1.14     c11.014,0.935,22.745,1.367,34.917,1.209c31.122-0.404,59.279-4.578,79.785-11.015     C333.724,139.118,261.316,148.528,255.319,142.719z"/>
		</g>
		<g>
			<path fill="#818896" d="M255.319,142.719c-7.628,1.525-12.373,3.621-15.312,5.933c8.468,0.516,17.304,0.735,26.394,0.617     c18.028-0.234,35.039-1.762,50.085-4.274C291.446,143.818,259.234,146.511,255.319,142.719z"/>
		</g>
	</g>
	<g>
		<g>
			<path fill="#F7B67C" d="M331.618,262.504c-11.039-49.443-44.704-16.817-25.857,7.668c-0.587,8.628-6.006,35.394,13.529,49.293     c19.387,1.713,31.124-14.882,36.514-32.762C355.924,276.332,341.916,266.996,331.618,262.504z"/>
		</g>
		<g>
			<path fill="#E88D51" d="M321.371,265.86c2.449-10.659,1.609-19.428-1.427-26.702c-13.166-9.907-28.202,12.801-14.183,31.014     c-0.465,6.838-3.953,25.066,4.341,39.255c2.664,3.053,4.723,5.579,6.006,7.458c0.726,0.665,1.507,1.304,2.324,1.926     c4.719-0.507,15.534-5.308,27.304-11.757c4.507-5.757,7.834-12.941,10.068-20.351c0.044-3.828-1.839-7.513-4.747-10.868     c-6.457,2.621-10.526,6.068-15.474,10.596C329.586,275.966,327.013,271.773,321.371,265.86z"/>
		</g>
		<g>
			<path fill="#5C250B" d="M409.542,369.288c-4.35-7.21-6.721-15.458-7.869-23.437c-12.344-6.81-16.642-4.308-21.145,0.675     c6.34,5.423,6.808,11.001,8.079,17.027C390.453,372.302,396.491,377.268,409.542,369.288z"/>
		</g>
		<g>
			<path fill="#824211" d="M362.789,348.368c-2.516,19.973,13.372,17.961,10.524,33.82c5.953,2.43,14.911-2.801,16.401-6.726     c1.919-5.055-3.893-11.254,0.972-11.774c4.73-0.506,8.419,2.876,12.645,7.356c6.135,6.505,15.466,12.585,23.98-3.051     c-19.25-10.015-30.884-32.767-34.239-42.404c-19.413-13.645-17.257-28.777-32.375-36.39c-6.455,2.114-40.414,31.881-33.75,42.878     C337.774,349.944,357.195,345.808,362.789,348.368z"/>
		</g>
		<g>
			<path fill="#6B290D" d="M333.17,334.28c3.254-8.723,7.804-28.765,33.714-40.786c-1.717-1.605-3.719-3.052-6.188-4.295     c-6.455,2.114-40.414,31.881-33.75,42.878c9.182,15.153,24.543,14.48,32.411,15.488     C345.992,344.236,336.907,339.219,333.17,334.28z"/>
		</g>
		<g>
			<path fill="#CAD4B4" d="M356.552,276.417c-13.775,6.45-21.642,14.559-25.258,19.543c-18.376,25.329-17.051,53.881-2.384,38.84     c0.968-21.549,29.047-39.331,36.062-43.303C375.458,277.822,361.436,274.131,356.552,276.417z"/>
		</g>
		<g>
			<path fill="#ADAC87" d="M334.612,291.951c-1.356,1.468-2.461,2.829-3.318,4.01c-18.376,25.329-17.051,53.881-2.384,38.84     c0.398-8.864,5.386-17.088,11.606-23.978C340.07,304.575,338.307,298.088,334.612,291.951z"/>
		</g>
	</g>
	<g>
		<g>
			<path fill="#F7B67C" d="M202.14,260.803c16.788-25.94-19.425-55.713-26.396-5.534c-9.898,5.317-23.098,15.764-22.132,26.09     c6.829,17.381,19.88,32.964,39.063,29.675C211.012,295.59,203.429,269.354,202.14,260.803z"/>
		</g>
		<g>
			<path fill="#E88D51" d="M202.14,260.803c12.488-19.295-4.35-40.701-16.664-29.754c-2.433,7.497-2.555,16.305,0.755,26.729     c-5.141,6.353-7.364,10.742-12.487,21.662c-5.301-4.109-9.637-7.213-16.286-9.299c-2.625,3.58-4.202,7.407-3.845,11.219     c2.83,7.203,6.732,14.092,11.693,19.463c12.257,5.468,23.427,9.371,28.172,9.491c0.763-0.686,1.49-1.386,2.16-2.109     c1.125-1.978,2.972-4.663,5.377-7.922C208.124,285.463,203.162,267.58,202.14,260.803z"/>
		</g>
		<g>
			<path fill="#5C250B" d="M112.718,344.05c-0.493,8.046-2.184,16.46-5.932,24c13.659,6.889,19.271,1.448,20.398-7.423     c0.776-6.109,0.787-11.707,6.663-17.628C128.953,338.4,124.465,336.256,112.718,344.05z"/>
		</g>
		<g>
			<path fill="#824211" d="M127.052,372.587c1.805,3.79,11.16,8.273,16.895,5.366c-4.131-15.574,11.868-14.863,7.731-34.565     c5.366-3.007,25.06-0.468,34.394-19.158c5.745-11.504-30.528-38.403-37.134-39.984c-14.447,8.82-11.064,23.726-29.3,38.909     c-2.558,9.878-12.299,33.503-30.668,45.054c9.76,14.89,18.564,8.069,24.149,1.086c3.846-4.81,7.247-8.482,12.003-8.363     C130.015,361.053,124.728,367.705,127.052,372.587z"/>
		</g>
		<g>
			<path fill="#6B290D" d="M155.032,342.308c7.759-1.645,23.124-2.228,31.04-18.079c5.745-11.504-30.528-38.403-37.134-39.984     c-2.359,1.44-4.237,3.045-5.817,4.785c26.804,9.868,32.973,29.473,36.927,37.902     C176.728,332.159,168.082,337.901,155.032,342.308z"/>
		</g>
		<g>
			<path fill="#CAD4B4" d="M178.795,288.587c-4.011-4.673-12.513-12.113-26.768-17.419c-5.053-1.881-18.728,2.941-7.162,15.717     c7.315,3.387,36.751,18.82,39.472,40.219C200.183,340.898,199.175,312.333,178.795,288.587z"/>
		</g>
		<g>
			<path fill="#ADAC87" d="M175.161,284.861c-3.182,6.418-4.41,13.027-4.346,19.291c6.761,6.36,12.403,14.149,13.522,22.952     c15.845,13.795,14.837-14.77-5.543-38.516C177.845,287.48,176.633,286.214,175.161,284.861z"/>
		</g>
	</g>
	<g>
		<g>
			<path fill="#824211" d="M401.77,392.767c5.647-9.187,2.318-18.298-5.358-24.488c-8.889,18.773-13.286,20.977-18.941,25.547     c-1.58,5.126-5.475,22.638-6.103,26.373c10.526,9.217,11.823-7.329,19.006-15.597     C394.623,399.713,398.618,397.895,401.77,392.767z"/>
		</g>
		<g>
			<path fill="#524769" d="M373.105,391.83c3.644-0.335,5.038-1.81,7.893-1.188c-6.027,13.227,3.136,19.643-12.269,32.661     c-1.717-3.631-3.42-7.327-5.537-10.468C358.36,405.665,367.966,392.302,373.105,391.83z"/>
		</g>
		<g>
			<path fill="#CAD4B4" d="M373.826,392.959c-3.117-1.135-12.092-6.255-17.076-16.383c-2.082-4.231-5.095-4.588-6.772-4.751     c-7.857,3.844-9.9,10.738-11.656,17.367c0.552,4.833-0.45,13.973,6.38,19.276c4.96,3.851,9.929,0.168,18.704,2.814     C368.761,410.551,373.963,398.735,373.826,392.959z"/>
		</g>
		<g>
			<g>
				<path fill="#97A184" d="M347.758,409.989l9.304-32.824c-0.103-0.198-0.213-0.386-0.313-0.588      c-0.344-0.699-0.715-1.283-1.099-1.787l-9.764,34.446C346.503,409.575,347.125,409.82,347.758,409.989z"/>
			</g>
			<g>
				<path fill="#97A184" d="M361.242,410.747l11.735-18.138c-0.521-0.232-1.128-0.535-1.801-0.908l-12.098,18.7      C359.77,410.477,360.493,410.594,361.242,410.747z"/>
			</g>
			<g>
				<path fill="#97A184" d="M354.108,410.272c0.335-0.012,0.675-0.022,1.024-0.029l5.055-28.137      c-0.278-0.365-0.548-0.743-0.817-1.127L354.108,410.272z"/>
			</g>
		</g>
		<g>
			<path fill="#524769" d="M218.574,434.872c1.414,2.024,3.691,5.587,4.356,7.486c-3.286,9.807-24.429,18.234-35.004-2.768     c2.194-1.966,4.452-3.945,6.019-5.96C197.522,429.03,211.869,425.274,218.574,434.872z"/>
		</g>
		<g>
			<path fill="#CAD4B4" d="M223.203,414.871c-8.382-9.881-19.668-8.543-27.275-5.701c-3.828,1.754-7.061,5.594-8.003,10.617     c-0.684,3.648,3.678,8.665,6.019,13.843c9.173-4.48,15.443-5.567,24.629,1.242c-0.665-1.899-0.506-4.06,2.623-6.518     C224.011,426.143,227.247,422.713,223.203,414.871z"/>
		</g>
		<g>
			<g>
				<path fill="#97A184" d="M190.837,413.263c-0.401,0.517-0.763,1.076-1.1,1.658c15.224-1.813,28.291,2.89,35.358,6.261      c-0.016-0.557-0.093-1.158-0.223-1.793C217.657,416.075,205.254,411.873,190.837,413.263z"/>
			</g>
			<g>
				<path fill="#97A184" d="M188.348,423.033c0.083,0.234,0.173,0.471,0.274,0.712c7.052-2.28,18.859-3.939,36.039,0.275      c0.085-0.236,0.157-0.481,0.219-0.735C207.499,419.017,195.518,420.71,188.348,423.033z"/>
			</g>
			<g>
				<path fill="#97A184" d="M191.086,428.37c0.289,0.491,0.58,0.986,0.87,1.487c10.736-0.606,19.841-0.112,26.721,1.43      c0.203-0.441,0.49-0.894,0.874-1.357C212.273,428.217,202.564,427.671,191.086,428.37z"/>
			</g>
		</g>
		<g>
			<path fill="#524769" d="M191.372,364.948c-2.132,5.392-6.518,18.182,3.762,38.12c-5.509,1.561-4.435,5.956-0.502,6.781     c3.72-0.762,9.405-1.515,15.758-0.428c6.368,1.089,10.199,3.845,13.553,6.363c5.664,0.79,6.749-2.259,3.304-4.501     c8.206-2.215,13.595-4.641,18.109-14.607C240.34,391.253,210.181,361.284,191.372,364.948z"/>
		</g>
		<g>
			<path fill="#453C5C" d="M191.372,364.948c-1.272,3.217-3.345,9.071-2.627,17.503c19.522,1.789,38.368,9.799,52.168,21.453     c1.599-1.847,3.063-4.183,4.443-7.229C240.34,391.253,210.181,361.284,191.372,364.948z"/>
		</g>
		<g>
			<path fill="#524769" d="M345.542,370.727c-14.57-25.146-28.631-28.299-36.504-25.381c-15.191,12.741-36.046,38.092-30.767,47.224     c28.841,14.327,53.49,15.903,59.155,9.082c2.345,7.918,6.712-2.826,10.221-12.558     C351.522,378.344,355.231,364.541,345.542,370.727z"/>
		</g>
		<g>
			<path fill="#453C5C" d="M343.167,366.824c-13.708-21.556-26.685-24.237-34.13-21.478c-15.191,12.741-36.046,38.092-30.767,47.224     c3.798,1.886,7.52,3.546,11.138,5c4.974-2.737,8.91-5.953,12.462-10.004c1.353,2.085,3.109,4.53,4.488,6.097     C316.77,388.986,334.097,377.9,343.167,366.824z"/>
		</g>
		<g>
			<path fill="#824211" d="M214.479,440.901c-1.678-2.594,3.247-11.373,1.366-15.78c-3.135-7.346-13.066-10.994-18.812-12.799     c-7.889,6.561-12.602,21.392-3.563,32.123c5.83,6.921,10.454,15.164,17.216,13.561     C220.284,455.731,218.626,447.313,214.479,440.901z"/>
		</g>
		<g>
			<path fill="#6B290D" d="M197.033,412.322c-7.889,6.561-12.602,21.392-3.563,32.123c5.83,6.921,10.454,15.164,17.216,13.561     c3.546-0.841,5.552-2.521,6.467-4.628c-5.274,5.552-12.538,5.9-15.091-2.169c3.134-0.448,8.933-2.184,11.567-6.636     c-6.834,4.828-13.798,4.408-14.24,4.118c-2.795-1.83-11.464-9.102-9.647-20.879C190.225,424.678,191.819,419.506,197.033,412.322     z"/>
		</g>
	</g>
	<g>
		<g>
			<path fill="#CAD4B4" d="M313.643,340.296c-0.148-6.575-0.245-13.22-0.651-20.622c-41.301,15.647-77.127,11.977-110.057-2.388     c-1.626,6.376-2.811,12.591-3.039,21.056c-5.72,4.483-15.434,16.351-20.405,21.925c16.064,16.715,50.932,34.352,77.632,40.213     c23.661-3.908,70.631-26.32,80.182-41.732C332.962,350.715,319.938,343.19,313.643,340.296z"/>
		</g>
		<g>
			<path fill="#6B5A4D" d="M258.091,400.311c-0.195-3.33-0.414-6.438-0.621-9.367c-1.026-14.555-1.767-25.071,2.355-37.391     l-2.854-0.956c-4.313,12.89-3.554,23.656-2.502,38.558c0.196,2.777,0.403,5.716,0.59,8.851c0.693,0.165,1.381,0.323,2.064,0.473     C257.441,400.427,257.764,400.371,258.091,400.311z"/>
		</g>
		<g>
			<g>
				<path fill="#6B5A4D" d="M262.031,387.018c-0.196,0-0.396-0.039-0.588-0.12l-12.123-5.16c-0.765-0.326-1.12-1.209-0.796-1.974      c0.326-0.764,1.204-1.122,1.974-0.796l12.123,5.16c0.765,0.326,1.12,1.209,0.796,1.974      C263.172,386.675,262.617,387.018,262.031,387.018z"/>
			</g>
		</g>
		<g>
			<g>
				<path fill="#6B5A4D" d="M250.298,388.653c-0.449,0-0.894-0.2-1.189-0.582c-0.51-0.656-0.391-1.602,0.266-2.111l10.407-8.078      c0.657-0.511,1.604-0.391,2.111,0.266c0.51,0.656,0.391,1.602-0.266,2.111l-10.407,8.079      C250.945,388.55,250.62,388.653,250.298,388.653z"/>
			</g>
		</g>
		<g>
			<path fill="#87B337" d="M322.223,337.531c-0.171-7.596-0.284-15.273-0.752-23.825c-47.716,18.077-89.105,13.837-127.15-2.759     c-1.879,7.367-3.247,14.547-3.511,24.327c-6.609,5.18-17.831,18.89-23.574,25.33c8.606,8.955,24.278,17.748,41.687,25.279     c9.257-18.508,13.772-31.047,20.041-35.155c5.738-0.948,50.164-6.947,56.428,2.101c8.855,12.79,17.666,24.877,23.104,37.679     c18.191-9.424,34.8-21.552,41.064-31.66C344.543,349.569,329.496,340.875,322.223,337.531z"/>
		</g>
		<g>
			<path fill="#578723" d="M194.294,343.482c-5.739,4.498-14.212,14.052-21.337,22.27c3.59,2.855,7.807,5.671,12.474,8.411     c4.43-8.74,10.891-18.205,19.027-25.242C198.076,337.115,194.63,331.039,194.294,343.482z"/>
		</g>
		<g>
			<path fill="#578723" d="M316.478,342.955c-0.336-12.444-3.782-6.368-10.164,5.439c9.839,8.511,17.228,20.57,21.538,30.606     c4.91-3.36,9.348-6.81,13.048-10.207C333.279,359.97,323.073,348.124,316.478,342.955z"/>
		</g>
		<g>
			<path fill="#6F9628" d="M311.247,389.055c-5.313-13.157-16.699-31.914-25.618-36.015c-0.212-9.412-0.353-18.922-0.912-29.463     c-0.082,0.013-0.164,0.025-0.246,0.037c-2.354,10.479-3.732,18.997-4.316,26.061c2.447,0.751,4.283,1.779,5.235,3.155     c8.855,12.79,17.666,24.877,23.104,37.679C309.417,390.031,310.335,389.546,311.247,389.055z"/>
		</g>
		<g>
			<path fill="#6F9628" d="M228.471,322.054c-0.142-0.03-0.285-0.061-0.427-0.091c-2.252,9.006-3.876,17.916-4.199,29.888     c-2.676,2.329-11.988,19.852-17.391,32.951c0.818,0.363,1.641,0.724,2.468,1.081c9.257-18.508,13.772-31.047,20.041-35.155     c0.623-0.103,1.701-0.265,3.136-0.461C231.411,343.034,230.109,333.971,228.471,322.054z"/>
		</g>
		<g>
			<path fill="#5C250B" d="M326.988,313.957c-47.716,18.077-99.827,15.081-137.871-1.515c-1.879,7.367-4.475,16.061-2.031,26.14     c27.098,21.52,84.595,38.824,141.502,2.234C330.765,330.509,329.496,322.233,326.988,313.957z"/>
		</g>
		<g>
			<path fill="#AAADBF" d="M291.531,334.497c-22.601,2.764-50.689,3.285-69.749-6.245c-2.884,11.286-1.943,23.15,0.502,33.23     c15.8,9.279,53.042,12.289,70.848-0.125C295.308,351.049,294.039,342.773,291.531,334.497z"/>
		</g>
		<g>
			<path fill="#5C250B" d="M276.974,332.001c-16.809,2.82-27.261,3.54-43.531-1.826c-2.884,11.285-3.84,19.187-1.396,29.266     c18.867,5.259,38.512,4.537,47.29-0.677C281.514,348.457,279.923,340.374,276.974,332.001z"/>
		</g>
		<g>
			<path fill="#BAC0CC" d="M287.363,344.491c-3.763,0.74-6.328,1.651-11.348,2.633c-2.884,0.564-2.765,5.881-0.125,6.332     c3.895,0.665,9.262,0.896,12.351,0.495C291.626,353.513,291.188,343.738,287.363,344.491z"/>
		</g>
		<g>
			<path fill="#87B337" d="M328.743,314.71c8.276-14.295-3.511-37.869-9.53-51.412c19.311-18.308-2.828-30.688-16.997-40.281     c-41.88-28.352-27.807-31.493-76.933-11.58c-17.371,7.041-51.778,0.952-35.811,46.678c-5.723,16.059-15.412,31.944-9.447,45.058     c10.679,23.477,47.694,39.207,77.954,39.207C282.852,342.38,319.814,330.132,328.743,314.71z"/>
		</g>
		<g>
			<path fill="#578723" d="M193.928,320.457c-4.702-19.13,7.124-39.154,17.548-57.16c-8.966-42.834,1.804-37.744-16.111-29.105     c-1.075,5.874,0.426,16.394,3.248,24.474c-6.818,19.133-17.257,37.697-12.601,53.943     C188.302,315.384,190.966,318.006,193.928,320.457z"/>
		</g>
		<g>
			<path fill="#578723" d="M321.263,322.808c7.985-20.222,1.862-38.425-5.178-57.925c5.863-9.234,6.452-16.697,5.573-22.499     c-17.951-8.564-9.63-15.687-18.417,27.184c10.883,18.618,16.168,38.915,9.647,58.667     C315.998,326.532,318.824,324.715,321.263,322.808z"/>
		</g>
		<g>
			<path fill="#6F9628" d="M306.412,331.443c7.962-22.747-8.484-62.937-13.123-73.373c-10.517-18.928-53.984-33.185-74.666,1.777     c-9.144,22.443-22.061,46.173-17.227,66.044c16.112,10.343,37.667,16.49,56.583,16.49     C272.662,342.38,291.557,338.112,306.412,331.443z"/>
		</g>
		<g>
			<path fill="#CAD4B4" d="M300.459,333.907c0.007-0.01,0.014-0.021,0.021-0.031c13.183-19.567-4.827-63.664-9.587-74.374     c-4.83-19.84-44.066-20.361-70.061,1.667c-9.38,23.022-22.99,47.486-14.446,67.084c0.12,0.275,0.242,0.546,0.367,0.814     c15.344,8.412,34.337,13.312,51.226,13.312C270.761,342.38,286.736,339.145,300.459,333.907z"/>
		</g>
		<g>
			<path fill="#6B5A4D" d="M261.008,270.997c0,0-1.652-1.2-3.001-0.609c-8.809,21.719-16.478,46.869-9.337,71.522     c1.078,0.106,2.153,0.195,3.222,0.266C244.389,317.836,252.18,292.665,261.008,270.997z"/>
		</g>
		<g>
			<g>
				<path fill="#6B5A4D" d="M252.02,324.742c-0.363,0-0.727-0.13-1.015-0.395l-10.426-9.53c-0.614-0.56-0.657-1.513-0.096-2.125      c0.564-0.618,1.515-0.656,2.125-0.096l10.426,9.53c0.614,0.56,0.657,1.513,0.096,2.125      C252.833,324.577,252.426,324.742,252.02,324.742z"/>
			</g>
		</g>
		<g>
			<g>
				<path fill="#6B5A4D" d="M241.948,323.989c-0.489,0-0.968-0.238-1.257-0.677c-0.458-0.694-0.266-1.627,0.428-2.084l11.034-7.273      c0.692-0.458,1.626-0.268,2.084,0.428c0.458,0.694,0.266,1.627-0.428,2.084l-11.034,7.273      C242.521,323.909,242.233,323.989,241.948,323.989z"/>
			</g>
		</g>
		<g>
			<g>
				<path fill="#6B5A4D" d="M255.154,301.647c-0.271,0-0.546-0.073-0.794-0.227l-11.43-7.106c-0.706-0.439-0.921-1.367-0.483-2.073      c0.44-0.703,1.366-0.921,2.073-0.483l11.43,7.106c0.706,0.439,0.921,1.367,0.484,2.073      C256.148,301.394,255.656,301.647,255.154,301.647z"/>
			</g>
		</g>
		<g>
			<g>
				<path fill="#6B5A4D" d="M243.494,301.418c-0.569,0-1.113-0.323-1.367-0.874c-0.349-0.755-0.02-1.648,0.735-1.997l11.62-5.372      c0.755-0.349,1.648-0.02,1.997,0.735s0.02,1.648-0.735,1.997l-11.62,5.372C243.92,301.373,243.706,301.418,243.494,301.418z"/>
			</g>
		</g>
	</g>
	<g>
		<g>
			<g>
				<polygon fill="#6070A3" points="345.681,49.634 343.537,45.284 324.246,66.753 325.191,68.85     "/>
			</g>
			<g>
				<polygon fill="#6070A3" points="345.289,45.504 319.375,44.384 321.499,51.505 345.681,49.634     "/>
			</g>
			<g>
				<polygon fill="#6070A3" points="324.246,66.753 350.171,65.925 347.966,73.021 323.807,70.878     "/>
			</g>
		</g>
		<g>
			<g>
				<polygon fill="#6070A3" points="294.254,54.193 291.895,52.064 285.353,69.806 286.436,70.854     "/>
			</g>
			<g>
				<polygon fill="#6070A3" points="293.015,51.774 276.969,57.37 279.987,61.189 294.254,54.193     "/>
			</g>
			<g>
				<polygon fill="#6070A3" points="285.353,69.806 300.934,63.022 301.311,67.876 286.085,72.424     "/>
			</g>
		</g>
		<g>
			<g>
				<polygon fill="#6070A3" points="261.653,74.895 260.034,73.36 255.13,85.7 255.873,86.455     "/>
			</g>
			<g>
				<polygon fill="#6070A3" points="260.826,73.175 249.463,76.822 251.514,79.557 261.653,74.895     "/>
			</g>
			<g>
				<polygon fill="#6070A3" points="255.13,85.7 266.187,81.211 266.367,84.625 255.599,87.551     "/>
			</g>
		</g>
		<g>
			<polygon fill="#6070A3" points="320.912,58.666 307.369,57.598 308.348,61.364 321.04,60.835    "/>
		</g>
		<g>
			<polygon fill="#6070A3" points="275.654,66.625 267.956,70.91 269.837,72.592 276.502,67.751    "/>
		</g>
	</g>
	<g>
		<g>
			<path fill="#86D7E3" d="M225.224,116.674c0,3.451-2.797,6.248-6.248,6.248s-6.248-2.797-6.248-6.248     c0-3.45,2.797-6.248,6.248-6.248S225.224,113.223,225.224,116.674z"/>
		</g>
		<g>
			
				<ellipse transform="matrix(0.2298 -0.9732 0.9732 0.2298 106.0725 288.1271)" fill="#86D7E3" cx="235.069" cy="77.049" rx="10.312" ry="10.312"/>
		</g>
		<g>
			<path fill="#86D7E3" d="M232.418,140.43c0,1.986-1.61,3.597-3.597,3.597s-3.597-1.61-3.597-3.597c0-1.986,1.61-3.597,3.597-3.597     S232.418,138.444,232.418,140.43z"/>
		</g>
	</g>
	<g>
		<g>
			<g>
				<path fill="#E85320" d="M316.355,281.365c12.439-8.445,23.393-18.983,32.241-31.767c-20.504-5.56-20.904-45.094-32.472-57.703      c-11.568-12.609-17.877-25.255-25.645-30.389c-9.134-6.037-27.999-1.498-46.527,1.336c-18.528,2.834-31.46,33.963-56.616,34.602      c0.106,2.068,0.317,4.742,0.702,7.92c3.284,1.061,6.922,1.839,11.875,1.427c-2.799,1.089-9.661,0.883-11.596,0.738      c0.186,1.362,0.403,2.801,0.655,4.311c2.833,1.23,4.774,1.619,7.328,1.538c-1.922,1.334-4.286,2.242-6.714,1.904      c2.807,14.785,8.847,35.128,21.622,55.903c2.435-2.996,4.41-5.141,8.66-9.737c-3.595,8.619-5.077,15.317-4.243,16.532      c6.838,9.962,15.307,19.895,25.792,29.237c4.494-0.468,8.954-1.085,13.367-1.856c0.406-0.071,4.94-6.166,5.799-11.376      c0.725,3.459,0.642,6.79-0.395,10.351c18.472-3.789,35.988-10.337,51.451-19.914c-1.691-2.465-2.979-7.711-2.586-12.258      C312.414,277.732,314.516,280.056,316.355,281.365z"/>
			</g>
			<g>
				<path fill="#BA3918" d="M228.222,184.072c-10.335,9.607-20.979,19.501-40.464,18.778c0.066,0.649,0.14,1.325,0.222,2.026      c20.075,0.681,31-9.473,41.608-19.335c9.721-9.036,18.902-17.571,34.619-16.39l0.151-2      C247.766,165.904,238.273,174.728,228.222,184.072z"/>
			</g>
			<g>
				<path fill="#BA3918" d="M320.408,231.044c-3.06-13.378-5.949-26.013-20.371-34.309l-1,1.739      c13.662,7.86,16.456,20.08,19.415,33.018c2.74,11.984,5.55,24.272,16.723,34.27c0.478-0.483,0.952-0.97,1.422-1.462      C325.801,254.626,323.07,242.687,320.408,231.044z"/>
			</g>
			<g>
				<path fill="#BA3918" d="M274.607,227.227l-1.383,1.454c16.671,15.856,24.225,43.986,22.359,64.296      c0.695-0.316,1.388-0.637,2.077-0.964C299.163,271.253,291.382,243.183,274.607,227.227z"/>
			</g>
			<g>
				<path fill="#BA3918" d="M263.448,216.536c-26.415-1.928-39.538,4.114-63.997,31.627c0.282,0.679,0.571,1.361,0.867,2.046      c24.342-27.52,37.141-33.559,62.984-31.672L263.448,216.536z"/>
			</g>
			<g>
				<path fill="#BA3918" d="M263.518,225.971l-1.5-1.332c-13.544,15.238-28.578,42.952-34.655,68.43      c0.536,0.61,1.079,1.22,1.629,1.827C234.753,269.391,249.899,241.295,263.518,225.971z"/>
			</g>
			<g>
				<path fill="#BA3918" d="M254.283,305.448c11.316-22.453,16.057-54.728,10.151-77.92l-1.943,0.496      c5.92,23.252,0.953,55.786-10.652,77.828C252.655,305.722,253.47,305.588,254.283,305.448z"/>
			</g>
			<g>
				<path fill="#BA3918" d="M226.759,201.655c-8.075,9.572-16.386,19.423-34.25,26.255c0.432,1.581,0.898,3.197,1.401,4.844      c19.28-7.236,28.108-17.7,36.682-27.864c7.543-8.941,14.668-17.386,28.902-22.77l-1.773-4.692      C242.268,183.273,234.384,192.618,226.759,201.655z"/>
			</g>
			<g>
				<path fill="#BA3918" d="M304.342,242.087c0.723-11.801,1.47-24.006-5.675-38.901l-4.523,2.17      c6.582,13.721,5.907,24.749,5.192,36.425c-0.814,13.294-1.653,26.982,7.345,45.571c1.467-0.826,2.917-1.676,4.349-2.553      C302.786,267.487,303.575,254.604,304.342,242.087z"/>
			</g>
			<g>
				<path fill="#BA3918" d="M270.291,227.151l-4.523,2.17c10.697,22.299,11.707,50.305,6.624,72.065      c1.816-0.508,3.619-1.045,5.41-1.61C282.401,277.351,281.004,249.484,270.291,227.151z"/>
			</g>
			<g>
				<path fill="#BA3918" d="M258.822,219.776c-22.49,11.977-36.007,36.517-42.675,58.958c1.194,1.718,2.436,3.435,3.729,5.147      c5.892-22.328,18.875-47.735,41.303-59.679L258.822,219.776z"/>
			</g>
		</g>
		<g>
			<path fill="#04070D" d="M272.817,232.578c-8.655,0.005-21.835-4.802-21.99-7.803c4.322-3.002,11.859-8.086,17.35-6.302     C269.833,219.011,272.274,227.809,272.817,232.578z"/>
		</g>
		<g>
			<path fill="#F5AB6C" d="M270.345,230.144c-5.762,0.564-9.164,0.056-13.13-2.93c-3.699-2.786-7.32,1.842-9.635,3.449     c5.85,6.116,10.848,2.659,15.478,4.108c3.199,1.001,4.324,4.55,15.304,4.84C277.821,234.841,272.078,229.974,270.345,230.144z"/>
		</g>
		<g>
			<path fill="#F5AB6C" d="M246.455,162.902c-2.768,3.748-7.067,9.491-6.094,12.085c1.638,4.368,3.673,10.875,1.634,17.53     c19.523,11.857,43.903,34.478,55.344,22.56c2.218-2.31,5.766-5.01,12.81-8.62c2.117-1.085,3.261-7.216,4.984-16.366     C317.625,176.865,259.898,144.697,246.455,162.902z"/>
		</g>
		<g>
			<path fill="#E88D51" d="M315.134,190.092c2.491-13.226-55.237-45.394-68.679-27.19c-1.45,1.963-3.32,4.474-4.632,6.793     c41.513,3.291,57.628,16.901,71.479,29.554C313.886,196.728,314.467,193.636,315.134,190.092z"/>
		</g>
		<g>
			<path fill="#F27C21" d="M312.689,250.341c-1.276-2.494-17.539-53.468-25.915-56.763c-25.931-10.201-33.637,15.778-26.579,27.237     c3.255,5.285,18.586,27.317,19.989,29.239c4.667,6.393,14.056,13.456,21.115,13.653c14.34,0.4,18.183-5.646,19.594-11.584     C316.201,254.874,313.966,252.835,312.689,250.341z"/>
		</g>
		<g>
			<path fill="#E3641B" d="M276.043,227.117c1.117-8.911,2.171-17.328-2.847-26.377l-1.755,0.972     c4.7,8.478,3.685,16.579,2.611,25.156c-0.509,4.068-1.048,8.365-1.004,12.962c0.731,1.057,1.439,2.079,2.108,3.042     C274.764,237.337,275.409,232.183,276.043,227.117z"/>
		</g>
		<g>
			<path fill="#E3641B" d="M318.822,253.093c-2.011,2.298-3.766,3.326-5.232,3.06c-4.111-0.783-7.239-11.38-10.511-22.627     c-5.333-18.323-11.959-41.127-28.009-41.068l0.008,2.006c14.521-0.044,20.931,21.947,26.075,39.623     c3.692,12.687,6.619,22.75,11.834,23.988c0.081,0.019,0.163,0.036,0.245,0.051c2.158,0.394,4.423-0.745,6.885-3.471     c0.324-0.834,0.576-1.684,0.777-2.532C320.142,252.563,319.454,252.881,318.822,253.093z"/>
		</g>
		<g>
			<path fill="#E3641B" d="M298.965,263.416c-5.273-5.152-6.873-15.275-8.529-28.732c-1.772-14.389-3.78-30.697-14.158-40.263     l-3.399,3.687c9.023,8.319,10.83,22.996,12.578,37.19c1.072,8.71,2.162,17.554,5.14,24.404     C293.371,261.492,296.27,262.847,298.965,263.416z"/>
		</g>
		<g>
			<path fill="#F27C21" d="M254.52,185.913c-8.963-0.825-46.419,37.383-48.68,39.037c-2.262,1.654-5.176,2.469-8.129-2.099     c-1.411,5.937-0.699,13.066,12.288,19.16c6.394,3,17.955,0.916,25-2.695c2.117-1.085,25.721-13.865,31.006-17.12     C277.463,215.136,282.268,188.468,254.52,185.913z"/>
		</g>
		<g>
			<path fill="#E3641B" d="M249.779,220.919c-1.866,4.655-3.764,9.39-6.649,14.022c1.07-0.581,2.2-1.196,3.364-1.831     c2.12-3.894,3.673-7.769,5.147-11.445c3.235-8.069,6.291-15.69,14.331-21.167l-1.13-1.658     C256.297,204.66,253.131,212.557,249.779,220.919z"/>
		</g>
		<g>
			<path fill="#E3641B" d="M264.316,223.2c2.94-6.649,4.842-13.787,6.794-22.003l-1.953-0.464     c-2.177,9.159-4.287,16.95-7.903,24.219C262.414,224.296,263.451,223.704,264.316,223.2z"/>
		</g>
		<g>
			<path fill="#E3641B" d="M221.986,214.256c-7.984,8.573-15.616,16.614-19.567,15.479c-1.429-0.421-2.535-2.129-3.296-5.087     c-0.468-0.474-0.94-1.067-1.413-1.798c-0.202,0.849-0.36,1.722-0.445,2.613c0.972,3.542,2.483,5.577,4.587,6.196     c0.08,0.024,0.161,0.045,0.242,0.064c5.213,1.239,12.355-6.43,21.36-16.1c12.545-13.474,28.151-30.233,41.112-23.658l0.909-1.788     C251.174,182.911,234.992,200.291,221.986,214.256z"/>
		</g>
		<g>
			<path fill="#E3641B" d="M232.757,220.979c-7.531,11.269-13.51,19.592-20.535,21.824c2.661,0.702,5.856,0.795,9.136,0.444     c5.742-4.778,10.694-12.186,15.569-19.481c7.946-11.891,16.163-24.186,27.964-27.557l-1.377-4.822     C249.943,195.264,240.813,208.925,232.757,220.979z"/>
		</g>
		<g>
			<g>
				<path fill="#F5E5D8" d="M258.107,136.53c1.656,2.05,6.619-4.096,10.05-5.481c4.524-2.65,12.045-5.563,9.766-7.479      c-19.834-16.676-4.085-21.956-7.378-25.703c-5.025-5.717-20.027,4.005-21.768,14.853      C247.48,120.802,251.812,128.738,258.107,136.53z"/>
			</g>
			<g>
				<path fill="#A9ADB9" d="M278.656,121.787c-7.246-2.642-23.426,10.763-23.054,16.382c0.372,5.619,3.566,6.69,16.966,1.282      C288.639,130.038,284.745,124.007,278.656,121.787z"/>
			</g>
		</g>
		<g>
			<g>
				<path fill="#F5E5D8" d="M341.555,133.429c-4.47,0.204,1.919,13.666-21.2,11.227c-2.656-0.28,0.142,6.392,1.245,10.964      c1.24,3.079,0.357,10.11,2.713,9.905c8.952-0.781,16.776-2.921,21.191-8.788C351.429,148.862,348.376,133.118,341.555,133.429z"/>
			</g>
			<g>
				<path fill="#A9ADB9" d="M321.051,143.072c-5.223-2.553-11.544-1.316-7.625,14.926c4.845,12.024,7.524,13.421,11.386,10.165      C328.674,164.907,327.267,146.11,321.051,143.072z"/>
			</g>
		</g>
		<g>
			<path fill="#686B7D" d="M302.656,123.215c-9.891-3.725-32.387-0.323-52.002,25.09c38.516,4.529,61.632,21.245,70.687,25.433     C325.559,157.039,312.547,126.94,302.656,123.215z"/>
		</g>
		<g>
			<path fill="#9295A8" d="M304.437,121.752c-6.447-1.618-15.655-0.388-18.709,0.088c0.924,4.789,3.337,20.126-7.814,30.114     c12.194,1.352,15.977,4.975,25.031,9.163c5.641-15.601,9.299-21.505,13.19-22.965     C313.585,130.715,309.351,124.667,304.437,121.752z"/>
		</g>
		<g>
			<path fill="#B0AFBF" d="M304.437,121.752c-6.447-1.618-15.655-0.388-18.709,0.088c0.024,0.125,0.049,0.257,0.075,0.395     c6.231-0.231,13.762,0.019,18.905,1.633c5.202,4.684,7.512,10.228,9.224,13.464c-4.168,5.136-8.419,11.867-11.513,23.539     c0.173,0.082,0.349,0.163,0.526,0.245c5.641-15.601,9.299-21.505,13.19-22.965C313.585,130.715,309.351,124.667,304.437,121.752z     "/>
		</g>
		<g>
			<g>
				<path fill="#E05C58" d="M294.687,190.99c1.838-3.945,4.335-5.414,1.396-22.696c-0.839-4.934-6.275-13.005-20.266-2.582      c-5.288,3.939-7.388,2.884-9.382,10.917c-2.87-9.618-13.927,3.774-12.453,6.12c9.352,14.882,7.818,16.531,8.802,19.664      c1.015,3.233,12.981,12.888,18.374,9.163c2.635-1.82,6.666-5.634,15.092-6.381C298.621,204.985,302.209,192.777,294.687,190.99z      "/>
			</g>
			<g>
				<path fill="#C9354A" d="M266.435,176.629c-2.87-9.618-13.927,3.774-12.453,6.12c9.352,14.882,7.818,16.531,8.802,19.664      c1.015,3.233,12.981,12.888,18.374,9.163c2.635-1.82,6.666-5.634,15.092-6.381c2.37-0.21,5.958-12.418-1.563-14.205      c4.98,3.549,3.069,10.673-0.721,12.206c-3.531,1.429-8.264,2.897-14.094,5.325c-4.26,1.774-13.846-2.14-14.184-7.243      c-0.195-2.955-3.148-9.706-7.34-15.93C255.391,180.954,260.704,173.93,266.435,176.629z"/>
			</g>
		</g>
		<g>
			<path fill="#A9ADB9" d="M321.341,173.737c-2.753-3.156-10.948-12.36-29.796-19.969c-15.524-6.267-26.999-8.052-39.459-7.873     c-5.285,0.076-13.364,16.998-10.623,17.402c17.557,2.591,29.391,5.881,42.638,12.031c17.064,7.921,23.572,13.077,32.626,17.265     C318.887,193.591,324.177,176.989,321.341,173.737z"/>
		</g>
		<g>
			<path fill="#B7BBC7" d="M299.697,183.257c6.391,3.553,10.877,6.395,16.073,8.885l1.944-22.233     c-2.507-2.409-6.157-5.474-11.304-8.675L299.697,183.257z"/>
		</g>
		<g>
			<path fill="#BEC8CF" d="M322.071,175.736c0.002,0.002,0.004,0.004,0.006,0.006c-0.113-0.865-0.348-1.56-0.736-2.004     c-2.753-3.156-10.948-12.36-29.796-19.969c-15.524-6.267-26.999-8.052-39.459-7.873c-0.564,0.008-1.159,0.208-1.769,0.559     C275.5,148.454,301.226,154.254,322.071,175.736z"/>
		</g>
		<g>
			<path fill="#A9ADB9" d="M306.956,134.743c-0.409,1.72-3.075,2.559-5.955,1.875c-2.88-0.684-4.884-2.634-4.475-4.353     c0.409-1.72,3.075-2.559,5.955-1.875C305.361,131.074,307.365,133.023,306.956,134.743z"/>
		</g>
		<g>
			<path fill="#A9ADB9" d="M297.933,150.096c-0.511,0.795-2.004,0.745-3.334-0.11s-1.995-2.193-1.485-2.988     c0.511-0.795,2.004-0.745,3.334,0.11C297.78,147.964,298.444,149.301,297.933,150.096z"/>
		</g>
	</g>
	<g>
		<path fill="#AB3316" d="M248.799,167.833c2.034-3.631,4.398-5.692,9.053-7.687c4.032-1.728,14.594-2.333,16.679-0.883    c3.47,2.413-3.47,13.433-5.993,12.598C264.084,170.387,251.213,167.768,248.799,167.833z"/>
	</g>
	<g>
		<path fill="#AB3316" d="M310.09,195.058c1.005-4.038,0.694-7.159-1.331-11.802c-1.754-4.02-9.035-11.696-11.547-12.067    c-4.181-0.618-6.673,12.163-4.262,13.283C297.204,186.448,308.375,193.357,310.09,195.058z"/>
	</g>
</g>
</svg>
