<?xml version="1.0" encoding="UTF-8"?>
<svg xmlns="http://www.w3.org/2000/svg" xmlns:xlink="http://www.w3.org/1999/xlink" version="1.1" id="character" x="0px" y="0px" viewBox="0 0 512 512" xml:space="preserve" width="512" height="512">
<g>
	<polygon fill="none" points="374.596,413.319 153.775,420.595 118.061,212.759 392.711,222.051  "/>
	<ellipse fill="none" cx="275.05" cy="480.56" rx="117.662" ry="23.462"/>
	<path fill="#333466" d="M142.228,185.273c0,0,36.619,28.491,131.941-0.921c62.288-19.219,91.522-41.519,91.844-48.518   C336.24,130.973,244.135,119.566,142.228,185.273z"/>
	<path fill="#6E82BA" d="M272.772,183.355c62.433-19.169,86.558-38.11,92.184-46.665c4.153-1.23,7.034-3.542,8.032,1.044   c-8.571,10.516-51.863,33.766-98.319,48.649c-55.331,17.726-106.346,17.243-137.705,2.228c-0.634-4.387,1.745-7.488,9.089-4.637   C166.186,191.788,199.842,205.747,272.772,183.355z"/>
	<g>
		<path fill="#554594" d="M162.837,237.334c-12.78,53.804-32.306,59.668-33.816,74.301c-1.51,14.633,24.872,22.312,39.067,22.632    c27.841,0.628,27.444-0.064,39.99-11.348c1.653-22.206-5.523-39.916-6.834-78.028    C200.386,219.955,162.837,237.334,162.837,237.334z"/>
		<path fill="#433380" d="M162.837,237.334c-1.801,7.582-3.736,14.212-5.736,20.049c8.624,7.049,24.202,14.568,29.832,15.996    c3.849,15.874,3.899,43.246-6.313,44.471c-28.368-15.875-49.225,0.437-51.124-8.812c-0.221,0.842-0.382,1.703-0.474,2.597    c-1.51,14.633,24.872,22.312,39.067,22.632c27.841,0.628,27.444-0.064,39.99-11.348c1.653-22.206-5.523-39.916-6.834-78.028    C200.386,219.955,162.837,237.334,162.837,237.334z"/>
		<path fill="#554594" d="M137.623,362.756c-2.992,0.744-10.277,4.592-5.872,11.133c6.323,9.388,32.067,16.5,47.614,8.388    c5.203-6.705,6.968-13.783-0.552-14.707C171.399,366.659,137.623,362.756,137.623,362.756z"/>
		<path fill="#3E2869" d="M178.599,369.933c0.978-16.92,7.538-8.535,13.72-40.655c-20.15-15.711-53.535-12.229-53.535-12.229    c-5.927,19.291,2.595,30.313-1.932,49.636C149.729,378.566,166.233,379.301,178.599,369.933z"/>
		<path fill="#261D54" d="M192.318,329.278c-20.15-15.711-53.535-12.229-53.535-12.229c-0.155,0.504-0.294,0.998-0.43,1.491    c17.034,0.045,36.469,3.837,40.598,9.856c7.66,11.165-2.108,18.087-5.421,36.039c-1.385,7.505-23.795,8.876-36.478,1.318    c-0.067,0.311-0.128,0.618-0.202,0.933c12.878,11.88,29.382,12.616,41.748,3.247C179.577,353.013,186.136,361.398,192.318,329.278    z"/>
		<path fill="#261D54" d="M186.132,338.666c-12.382-7.096-24.192-13.861-48.72-16.043c0,0.001,0,0.003-0.001,0.004    c-0.104,0.561-0.197,1.115-0.278,1.663c24.27,2.144,35.934,8.826,48.163,15.834c0.896,0.514,1.801,1.032,2.717,1.553    l-51.141-15.316c-0.06,0.576-0.11,1.146-0.148,1.71l52.064,15.592c0.117-0.367,0.235-0.755,0.353-1.146    c0.037-0.12,0.073-0.238,0.11-0.36c0.141-0.476,0.283-0.966,0.425-1.47c0-0.001,0-0.002,0.001-0.002    C188.48,340.008,187.295,339.333,186.132,338.666z"/>
		<path fill="#261D54" d="M136.758,336.089c0.065,0.969,0.146,1.93,0.237,2.887c14.005,5.091,33.615,9.776,48.866,12.126    c0.296-0.605,0.596-1.258,0.9-1.964L136.758,336.089z"/>
		<g>
			<path fill="#261D54" d="M137.854,361.001c-0.068,0.56-0.146,1.128-0.234,1.702c6.507,1.971,12.131,2.999,17.402,3.392     c8.247,0.614,15.648-0.324,24.228-1.609c0.129-0.634,0.271-1.221,0.429-1.764C165.458,364.862,154.621,366.111,137.854,361.001z"/>
			<path fill="#261D54" d="M179.929,361.929c0.199-0.587,0.415-1.13,0.648-1.641l-42.419-2.821     c-0.029,0.553-0.067,1.112-0.114,1.677L179.929,361.929z"/>
		</g>
	</g>
	<g>
		<path fill="#554594" d="M350.92,237.334c12.78,53.804,32.306,59.668,33.816,74.301s-24.872,22.312-39.067,22.632    c-27.841,0.628-27.444-0.064-39.99-11.348c-1.653-22.206,5.523-39.916,6.834-78.028    C313.371,219.955,350.92,237.334,350.92,237.334z"/>
		<path fill="#433380" d="M350.92,237.334c1.801,7.582,3.736,14.212,5.736,20.049c-8.624,7.049-12.743,9.858-18.373,11.285    c-0.414,22.161-16.845,43.954-5.146,49.182c28.368-15.875,49.225,0.437,51.124-8.812c0.221,0.842,0.382,1.703,0.474,2.597    c1.51,14.633-24.872,22.312-39.067,22.632c-27.841,0.628-27.444-0.064-39.99-11.348c-1.653-22.206,5.523-39.916,6.834-78.028    C313.371,219.955,350.92,237.334,350.92,237.334z"/>
		<path fill="#554594" d="M376.134,362.756c2.992,0.744,10.277,4.592,5.872,11.133c-6.323,9.388-32.067,16.5-47.614,8.388    c-5.203-6.705-6.968-13.783,0.552-14.707C342.358,366.659,376.134,362.756,376.134,362.756z"/>
		<path fill="#3E2869" d="M335.158,369.933c-0.978-16.92-7.538-8.535-13.72-40.655c20.15-15.711,53.535-12.229,53.535-12.229    c5.927,19.291-2.595,30.313,1.932,49.636C364.028,378.566,347.524,379.301,335.158,369.933z"/>
		<path fill="#261D54" d="M321.438,329.278c20.15-15.711,53.535-12.229,53.535-12.229c0.155,0.504,0.294,0.998,0.43,1.491    c-17.034,0.045-36.469,3.837-40.598,9.856c-7.66,11.165,2.108,18.087,5.421,36.039c1.385,7.505,23.795,8.876,36.478,1.318    c0.067,0.311,0.128,0.618,0.202,0.933c-12.878,11.88-29.382,12.616-41.748,3.247C334.18,353.013,327.621,361.398,321.438,329.278z    "/>
		<path fill="#261D54" d="M327.625,338.666c12.382-7.096,24.192-13.861,48.72-16.043c0,0.001,0,0.003,0.001,0.004    c0.104,0.561,0.197,1.115,0.278,1.663c-24.27,2.144-35.934,8.826-48.163,15.834c-0.896,0.514-1.801,1.032-2.717,1.553    l51.141-15.316c0.06,0.576,0.11,1.146,0.148,1.71l-52.064,15.592c-0.117-0.367-0.235-0.755-0.353-1.146    c-0.037-0.12-0.073-0.238-0.11-0.36c-0.141-0.476-0.283-0.966-0.425-1.47c0-0.001,0-0.002-0.001-0.002    C325.277,340.008,326.462,339.333,327.625,338.666z"/>
		<path fill="#261D54" d="M376.999,336.089c-0.065,0.969-0.146,1.93-0.237,2.887c-14.005,5.091-33.615,9.776-48.866,12.126    c-0.296-0.605-0.596-1.258-0.9-1.964L376.999,336.089z"/>
		<g>
			<path fill="#261D54" d="M375.903,361.001c0.068,0.56,0.146,1.128,0.234,1.702c-6.507,1.971-12.131,2.999-17.402,3.392     c-8.247,0.614-15.648-0.324-24.228-1.609c-0.129-0.634-0.271-1.221-0.429-1.764C348.299,364.862,359.136,366.111,375.903,361.001     z"/>
			<path fill="#261D54" d="M333.827,361.929c-0.199-0.587-0.415-1.13-0.648-1.641l42.419-2.821c0.029,0.553,0.067,1.112,0.114,1.677     L333.827,361.929z"/>
		</g>
	</g>
	<g>
		<path fill="#822C0F" d="M200.724,475.844c5.365,7.047,23.962,29.853,54.812,22.26c5.048-13.259-1.738-26.435-16.666-45.311    C230.884,442.694,204.091,469.959,200.724,475.844z"/>
		<path fill="#63200B" d="M209.312,477.226c10.199-15.953,28.334-8.576,42.791-5.166c-3.116-5.817-7.592-12.135-13.233-19.267    c-7.986-10.099-34.779,17.166-38.146,23.051c5.365,7.047,23.962,29.853,54.812,22.26    C228.977,498.201,218.669,486.384,209.312,477.226z"/>
	</g>
	<g>
		<path fill="#822C0F" d="M278.172,470.417c6.673,5.824,43.463,30.556,72.872,10.949c-1.648-10.493-12.604-20.062-25.817-28.595    C314.412,445.786,280.286,463.975,278.172,470.417z"/>
		<path fill="#63200B" d="M351.044,481.367c-15.125,4.832-36.436,10.14-59.56-7.699c14.389-11.791,26.003-23.469,52.075-6.151    c-4.711-5.206-11.183-10.128-18.332-14.746c-10.815-6.985-44.941,11.204-47.055,17.646    C284.845,476.241,321.635,500.973,351.044,481.367z"/>
	</g>
	<g>
		<path fill="#6857AB" d="M287.478,470.293c24.834-18.993,33.007-21.289,49.429-8.917c10.681-2.136,10.147-11.482,2.937-9.346    c-12.55-9.079-18.726-50.524-19.527-69.016s6.008-24.5-6.142-38.119c-10.311-11.557-85.984-20.561-99.87-9.346    c-13.886,11.215-19.027,22.4-17.891,36.183c2.211,26.837-4.273,69.028-13.619,89.055c-14.153,1.068,4.021,14.386,16.977,15.364    c7.311,0.552,15.405-23.277,49.814-8.021C262.899,474.032,274.823,474.702,287.478,470.293z"/>
		<path fill="#4A458F" d="M274.343,463.7c-31.89-0.297-34.169-19.001-74.569,1.627c-18.357-3.405,3.673-28.639,2.515-111.953    c-0.027-1.969-0.279-3.269-0.714-3.998c-4.271,6.904-5.834,14.171-5.159,22.357c2.211,26.837-4.273,69.028-13.619,89.055    c-14.153,1.068,4.021,14.386,16.977,15.364c7.311,0.552,15.405-23.277,49.814-8.021c13.311,5.902,25.234,6.572,37.89,2.163    c24.834-18.993,33.007-21.289,49.429-8.917c10.681-2.136,10.147-11.482,2.937-9.346    C299.178,436.888,292.439,463.868,274.343,463.7z"/>
		<path fill="#4A458F" d="M225.255,435.152c10.315-22.104,10.469-85.172,8.029-114.791c40.217-16.756,49.194-9.657,61.933-4.038    c7.015,20.336,10.164,91.642,20.828,112.42C289.173,452.113,251.706,448.193,225.255,435.152z"/>
		<path fill="#46C2E3" d="M230.251,432.72c9.346-20.027,9.023-80.132,6.812-106.969c36.439-15.182,51.001-12.479,62.543-7.388    c6.356,18.425,7.484,87.319,17.146,106.145C292.403,445.683,254.217,444.536,230.251,432.72z"/>
		<path fill="#95EDEC" d="M246.403,426.387c6.308-13.518,6.09-54.087,4.598-72.201c24.595-10.248,34.424-8.423,42.215-4.987    c4.29,12.437,5.051,58.939,11.573,71.646C288.354,435.137,262.58,434.363,246.403,426.387z"/>
		<path fill="#4A458F" d="M233.506,382.249c3.706-11.921,8.734-34.705,6.214-44.196c-3.518-2.01-8.531-4.285-15.524-6.221    c-4.382,0.832-7.823,2.049-9.889,3.718c-13.886,11.215-19.027,22.4-17.891,36.183c0.224,2.712,0.354,5.587,0.406,8.574    c10.388,4.796,21.079,6.916,27.544,7.314C228.109,386.945,231.266,384.431,233.506,382.249z"/>
	</g>
	<path fill="#554594" d="M327.541,358.132c-2.372,1.844-7.345,8.147-0.839,12.236c9.338,5.87,35.083,2.048,45.734-11.314   c1.991-8.027,0.77-15.03-6.295-12.886C359.176,348.28,327.541,358.132,327.541,358.132z"/>
	<path fill="#2F2C42" d="M221.6,339.201c22.654,4.294,58.409,6.96,85.703,4.231c7.369-2.184,13.715-3.787,13.189,4.708   c-3.909,7.165-12.948,18.717-43.622,18.901c-38.621,0.231-60.731-10.779-75.469-21.833   C202.085,328.01,214.641,331.286,221.6,339.201z"/>
	<path fill="#6857AB" d="M320.492,343.022c-3.93-45.301,16.24-45.876,13.912-89.592c-1.293-24.279-143.372,14.261-143.372,14.261   c4.503,19.652,9.826,48.31,9.416,62.639c-0.409,14.329,22.518,24.155,60.062,30.001   C287.323,364.507,309.117,354.895,320.492,343.022z"/>
	<path fill="#4A458F" d="M302.83,355.154c0.525-31.56,3.847-70.98,6.849-104.058c0.194-2.144,0.016-4.005-0.472-5.625   c-26.954,0.867-69.311,10.134-95.323,16.424c0.287,23.549-0.371,46.614,13.175,82.764c0.417,3.462,1.602,6.512,3.392,9.183   c8.492,2.544,18.589,4.703,30.058,6.489C276.907,362.885,291.422,360.277,302.83,355.154z"/>
	<path fill="#46C2E3" d="M324.812,259.066c-1.507-8.448-9.6-12.278-20.695-13.343c-22.946,1.477-54.485,7.873-78.435,13.389   c-4.357,1.349-6.947,2.234-6.947,2.234c0.589,27.302,2.128,61.575,14.891,93.408c7.801,2.152,16.81,4.01,26.884,5.579   c18.578,2.893,34.743-0.835,46.706-7.346C309.488,324.691,330.808,292.679,324.812,259.066z"/>
	<path fill="#95EDEC" d="M307.355,260.984c-8.11-30.471-67.708,4.512-67.708,4.512c0.456,27.268,1.682,61.696,12.08,93.34   c2.833,0.524,5.755,1.024,8.783,1.495c14.109,2.197,26.825,0.574,37.368-3.185C296.974,323.071,317.579,299.403,307.355,260.984z"/>
	<path fill="#318CC4" d="M218.558,338.155c-0.454,2.993-1.949,6.27-3.798,9.613c6.762,3.47,15.757,6.445,26.645,8.945   c1.229-4.863,2.235-10.181,1.141-10.866C234.691,340.936,218.558,338.155,218.558,338.155z"/>
	<path fill="#8C4712" d="M298.868,207.221c5.896-0.719,12.104-9.129,9.531-14.912c-4.003-8.999-30.968,1.4-56.966,2.107   c-31.75,0.863-46.4,3.628-52.967,5.899c-13.611,4.708,40.114,30.577,43.279,31.222   C253.367,240.961,279.442,227.076,298.868,207.221z"/>
	<path fill="#70310D" d="M209.941,202.162c10.318,29.279,32.956,32.395,53.188,30.882c36.702-2.744,25.17-20.286,33.712-35.284   c6.397-11.232-18.439,0.896-43.374,3.177C230.174,203.069,207.841,196.205,209.941,202.162z"/>
	<path fill="#8C4712" d="M307.781,205.87c1.552-6.118,4.492-22.95-8.913-9.92c-13.621,13.241-47.531,22.829-82.727,8.555   c-11.094-4.499-27.567-10.099-16.922,8.734c-16.77,4.64-31.661,16.103-45.444,32.753c31.525,26.748,62.367,41.487,111.083,36.574   c58.702-5.92,85.491-33.736,88.766-41.924C347.388,221.849,328.593,210.237,307.781,205.87z"/>
	<path fill="#70310D" d="M312.35,206.961c-1.51-0.401-3.033-0.768-4.569-1.09c0.281-1.107,0.606-2.567,0.873-4.135   c-10.696,22.988-65.832,35.036-111.465,7.461c0.521,1.206,1.18,2.538,2.031,4.043c-2.107,0.583-4.184,1.274-6.234,2.07   C241.167,234.125,291.041,233.044,312.35,206.961z"/>
	<path fill="#FFE626" d="M190.052,373.867c-6.751-17.778,8.485-55.694-35.938-65.689c-21.232-4.777-56.781,21.773-65.121,1.148   c-4.244,28.936,10.535,31.291,32.584,38.864c-7.084,10.725-10.237,22.129,1.95,32.929   C168.02,420.55,196.803,391.645,190.052,373.867z"/>
	<path fill="#ED7010" d="M187.57,372.161c-20.569-34.037-10.437-54.462-67.571-38.047c17.56,6.764,9.8,21.049,10.674,37.004   c0.792,14.454,27.751,30.522,43.297,26.657C187.888,394.314,190.98,379.064,187.57,372.161z"/>
	<path fill="#FFE626" d="M325.728,376.574c2.422,21.719,21.66,33.229,37.716,18.954c28.96-19.13,52.655,3.658,59.989-41.282   c3.505-21.479-25.113-55.385-5.022-64.937c-29.137-2.514-30.609,12.378-36.856,34.84   C315.976,312.877,320.139,346.266,325.728,376.574z"/>
	<path fill="#ED7010" d="M395.514,321.736c-13.45,46.623-61.953-17.669-69.785,54.839c2.422,21.719,21.66,33.229,37.716,18.954   C379.216,371.058,415.3,377.792,395.514,321.736z"/>
	<path fill="#FFE626" d="M370.883,368.366c-7.482,10.072-7.453,17.657-9.482,30.051c-2.029,12.394-26.2,9.608-24.991-0.867   c6.272,4.286,14.33,3.909,15.768-4.58C353.617,384.481,361.243,371.82,370.883,368.366z"/>
	<path fill="#FFE626" d="M150.458,385.062c11.503,5.009,8.633,12.584,15.591,18.136c9.817,7.833,19.588-1.667,19.985-11.016   c-2.121,1.999-8.16,4.7-13.635-1.945C166.925,383.591,160.538,383.257,150.458,385.062z"/>
	<path fill="#FFE626" d="M160.23,364.64c2.283,4.22,3.766,6.773,3.26,9.908c-0.914,5.658,3.065,8.786,7.353,11.024   c-2.595-4.258,1.919-8.468-0.809-14.807C168.909,368.154,164.729,366.282,160.23,364.64z"/>
	<path fill="#FFE626" d="M334.331,357.85c-0.464,7.071-1.356,10.785-4.454,14.305c-5.592,6.355-6.267,12.907,1.96,20.687   c0.105-7.363,8.361-9.557,9.934-19.627C342.419,369.066,338.664,363.439,334.331,357.85z"/>
	<g>
		<path fill="#A15834" d="M235.479,341.766c-7.191-2.652-38.581-8.84-38.581-8.84s-8.764,6.286-10.137,39.575    c5.523,5.301,36.108,13.388,36.108,13.388s6.991-1.448,7.942-4.392c2.589-8.019,6.952-23.926,9.204-33.311    C240.612,345.704,236.862,343.174,235.479,341.766z"/>
		<path fill="#803320" d="M188.861,352.625c-0.085,0.451-0.169,0.91-0.25,1.381c7.932,8.172,28.681,8.029,39.549,6.939    c-2.209,7.58-4.166,15.375-5.353,19.774c-13.024-1.511-29.082-4.488-35.763-13.267c-0.112,1.615-0.209,3.286-0.282,5.049    c5.523,5.301,36.108,13.388,36.108,13.388s6.991-1.448,7.942-4.392c2.589-8.019,6.952-23.926,9.204-33.311    c0.596-2.483-3.154-5.013-4.537-6.421c-2.005,2.781-4.275,9.106-6.389,16.052C224.096,360.615,197.858,362.879,188.861,352.625z"/>
		<path opacity="0.5" fill="#3B1A15" d="M203.833,366.256c0,0,2.463-5.982,4.169-9.12    c-0.113-0.156-8.151-2.048-8.151-2.048s-0.536,2.781-1.748,9.194C198.507,364.515,203.833,366.256,203.833,366.256z"/>
		<path opacity="0.5" fill="#3B1A15" d="M235.656,343.017c-1.208,3.133-2.955,8.33-5.069,15.276    c-4.954,2.775-32.39,4.913-41.833-5.081c-0.033,0.181-0.066,0.361-0.099,0.546c8.088,8.168,30.505,7.656,41.389,6.565    c1.536-3.165,3.405-9.348,5.707-15.978c2.014,1.407,2.717,1.843,3.875,2.788C239.259,346.346,235.9,342.385,235.656,343.017z"/>
		<path fill="#9DC7C4" d="M203.296,365.522c0,0,2.463-5.982,4.168-9.12c-0.113-0.156-8.151-2.048-8.151-2.048    s-0.536,2.781-1.748,9.194C197.97,363.781,203.296,365.522,203.296,365.522z"/>
	</g>
	<g>
		<path fill="#E0DEC7" d="M250.39,115.375c43.001,1.905,51.664,22.371,42.719,49.005c8.769,18.911-2.409,25.758-11.4,24.143    c-8.872-8.17-11.514-5.29-8.488,8.755c-6.655,7.789-22.298,5.602-32.654-0.358c3.338-10.531,1.68-17.9-9.087-9.433    c-21.664-3.581-26.317-11.01-24.077-28.562C210.973,130.931,224.87,114.245,250.39,115.375z"/>
		<path fill="#B8AF9C" d="M228.97,119.807L228.97,119.807c-16.471,9.29-33.141,61.565,1.468,64.518    c4.408,0.376,11.998-6.721,14.288,0.235c1.766,5.365-5.854,10.607,12.504,11.02c17.693,0.398,11.429-3.554,12.403-8.995    c0.521-2.907,3.041-6.746,9.967-2.264c6.974,4.512,18.528-0.25,13.508-19.939c8.769,18.911-2.409,25.758-11.4,24.143    c-8.765-8.071-11.439-5.338-8.585,8.27c0.01,0.05,0.02,0.099,0.03,0.149c0.025,0.116,0.042,0.218,0.067,0.336    c-6.655,7.789-22.298,5.602-32.654-0.358c3.338-10.531,1.68-17.9-9.087-9.433c-21.664-3.581-26.317-11.01-24.077-28.562    C208.733,148.482,212.836,128.642,228.97,119.807z"/>
		<path fill="#B8AF9C" d="M246.21,139.169c-9.974-0.337-18.539,5.623-19.041,20.565c-2.966,3.055-5.057,5.279-9.656,6.658    c4.349,0.453,8.047-1.811,11.292-5.13c-1.497-15.892,12.226-20.042,17.178-19.474c7.172,0.822,14.467,7.308,14.71,13.034    C261.391,148.902,256.185,139.506,246.21,139.169z"/>
		<path fill="#B8AF9C" d="M277.953,149.921c-6.922-3.738-16.742-3.726-14.773,8.915c-1.18-12.526,10.613-9.431,14.074-7.572    c4.512,2.424,9.752,8.587,9.943,13.1C287.58,157.677,281.095,151.618,277.953,149.921z"/>
		<path fill="#E0DEC7" d="M269.951,202.558c1.149,0.434,4.777-0.532,4.64-1.842c0.416-2.267-2.064-6.164-4.735-5.624    C266.657,195.739,267.101,201.482,269.951,202.558z"/>
		<path fill="#E0DEC7" d="M246.064,203.959c1.149,0.434,2.977,0.429,2.84-0.881c0.416-2.267,1.107-8.028-1.564-7.488    C244.141,196.236,243.214,202.883,246.064,203.959z"/>
		<path fill="#E0DEC7" d="M264.657,204.994c1.005,0.408,2.935-1.029,2.842-2.331c0.415-2.267-0.4-5.699-2.768-5.104    C261.895,198.27,262.165,203.983,264.657,204.994z"/>
		<path fill="#E0DEC7" d="M239.93,201.16c0.728,0.804,3.091,0.346,3.572-0.867c1.358-1.863,2.113-5.308-0.278-5.8    C240.359,193.903,238.124,199.167,239.93,201.16z"/>
		<path fill="#E0DEC7" d="M257.676,206.389c1.005,0.408,4.388-0.489,4.295-1.791c0.351-4.569-0.737-8.141-3.105-7.546    C256.03,197.763,255.184,205.377,257.676,206.389z"/>
		<path fill="#E0DEC7" d="M250.256,205.222c0.84,0.685,4.338,0.822,4.632-0.45c1.679-4.264,1.688-7.998-0.75-8.125    C251.218,196.493,248.171,203.522,250.256,205.222z"/>
		
			<ellipse transform="matrix(0.1764 -0.9843 0.9843 0.1764 62.3042 405.3947)" fill="#73675C" cx="273.405" cy="165.466" rx="10.772" ry="9.907"/>
		<path fill="#73675C" d="M253.026,183.85c-1.421,4.611,3.056,7.019,6.774,2.685c1.633,4.02,5.305,3.5,5.339,0.026    c0.023-2.268-2.757-7.047-5.218-8.497C256.242,179.277,253.52,182.248,253.026,183.85z"/>
		
			<ellipse transform="matrix(0.1764 -0.9843 0.9843 0.1764 41.3107 375.1785)" fill="#73675C" cx="244.852" cy="162.903" rx="13.286" ry="12.22"/>
	</g>
	<path fill="#4D5399" d="M228.574,33.668c-20.84,0.628-34.607-10.311-30.934-21.242c3.952-11.758,37.467,1.846,43.603,16.946   c8.376,20.612,20.838,43.87,28.823,56.502c7.985,12.632-56.558,26.493-52.309,8.299S232.53,56.343,228.574,33.668z"/>
	<path fill="#8C4712" d="M274.87,89.167c3.513,3.333-0.997,6.594-3.349,8.17c2.004,1.678,11.739,14.116,12.501,16.926   c3.889-0.515,6.49,1.091,2.051,7.13s-67.853,16.602-74.024,15.03c-6.171-1.572-10.918-10.412,1.681-8.544   c3.087-6.795,4.122-18.54,5.611-20.751c-3.439-0.654-10.87-7.139,2.438-12.077C235.088,90.114,271.357,85.835,274.87,89.167z"/>
	<polygon fill="#C1D1D6" points="247.954,129.038 254.553,128.95 254.017,88.633 254.017,88.633 254.017,88.633 253.962,84.447    247.363,84.535 223.502,92.06 224.055,133.726 227.354,133.682 226.821,93.486 247.433,89.808  "/>
	
		<rect x="241.187" y="104.898" transform="matrix(0.986 -0.1665 0.1665 0.986 -14.3013 42.5148)" fill="#C1D1D6" width="10.427" height="3.3"/>
	<path fill="#4D5399" d="M144.41,180.396c0,0,54.434-52.246,106.793-59.341s106.244,11.67,113.753,15.635   C332.284,130.791,260.575,120.055,144.41,180.396z"/>
	<path fill="#778CC9" d="M259.919,139.913c63.766-14.112,100.74,0.45,107.074,0.44c6.335-0.01,11.487-6.864-1.816-8.479   c-14.233-1.727-57.454-6.29-105.207,3.672c-56.876,11.865-109.026,36.536-120.376,44.629c-8.519,6.075-2.468,11.859,3.821,7.114   C153.577,179.62,185.431,156.397,259.919,139.913z"/>
</g>
</svg>
