<?xml version="1.0" encoding="UTF-8"?>
<svg xmlns="http://www.w3.org/2000/svg" xmlns:xlink="http://www.w3.org/1999/xlink" version="1.1" id="character" x="0px" y="0px" viewBox="0 0 512 512" xml:space="preserve" width="512" height="512">
<g>
	<g>
		<ellipse fill="none" cx="215.122" cy="459.924" rx="133.611" ry="28.139"/>
	</g>
	<g>
		<polygon fill="none" points="365.902,385.886 121.524,389.427 79.612,102.721 397.421,115.128   "/>
	</g>
	<g>
		<path fill="#E6274F" d="M264.269,170.98c-2.789,1.941-4.474,4.189-6.827,6.192c3.087,13.673,8.722,17.926,16.729,21.797    c6.011,2.907,11.105,10.01,11.821,19.176c4.986-2.186,10.297-4.637,15.407-6.451C290.239,175.578,274.596,207.384,264.269,170.98z    "/>
	</g>
	<g>
		<path fill="#E6274F" d="M255.268,178.305c-3.075,0.134-5.391,2.097-7.598,3.317c7.452,12.235-8.07,18.603,13.257,35.524    c3.802-3.895,6.084-6.385,10.142-9.982C247.887,197.365,265.47,197.864,255.268,178.305z"/>
	</g>
	<g>
		<g>
			<path fill="#2E2745" d="M112.118,303.771l-9.946-14.899c0,0,9.257-4.981,14.59,2.489c6.917,2.03,8.5,7.702,3.72,12.948     C116.346,305.307,112.116,303.77,112.118,303.771z"/>
		</g>
		<g>
			<path fill="#F5AB6C" d="M111.155,314.324l-12.021-11.708c0,0,9.033-10.384,15.691-7.956c4.795,1.749,10,5.885,2.441,14.625     C113.784,313.311,111.154,314.324,111.155,314.324z"/>
		</g>
		<g>
			<path fill="#6787D6" d="M87.888,291.27c-2.375,2.973-4.905,9.045-5.664,11.45c66.882,25.932,124.91,37.123,185.058,23.074     c0.831-2.599,0.205-5.765-0.783-8.178C189.562,331.3,127.263,307.535,87.888,291.27z"/>
		</g>
		<g>
			<g>
				<path fill="#DBCA4B" d="M94.7,287.884c-2.048,9.581-7.789,23.19-12.078,28.059c-0.762-0.164-1.762-0.477-2.478-0.76      c-4.982-3.189-9.044-8.293-9.595-12.75c1.462-11.05,5.491-21.393,8.622-27.618C86.478,273.165,92.279,281.548,94.7,287.884z"/>
			</g>
			<g>
				<path fill="#C7A73F" d="M92.48,287.609c-2.157,9.093-8.048,22.705-12.336,27.574c-5.98-2.117-10.636-8.122-11.26-13.174      c1.462-11.05,6.237-21.588,10.287-27.194C85.011,273.873,90.06,281.273,92.48,287.609z"/>
			</g>
			<g>
				<path fill="#A67725" d="M79.23,310.274l-0.238,0.298l-0.334-0.103c-4.208-1.289-7.557-5.612-7.815-9.85l0.011-0.208      c1.496-8.767,5.396-17.37,8.416-21.878l0.13-0.196l0.202-0.053c5.035-1.332,8.325,6.089,9.367,9.507l0.074,0.246l-0.065,0.247      c-0.494,1.881-1.213,4.1-2.065,6.415C84.718,300.66,81.635,307.249,79.23,310.274z M80.073,279.695      c-2.892,4.388-6.576,12.604-8.016,20.939c0.257,3.581,3.083,6.987,6.541,8.273c2.918-3.899,7.26-13.762,9.164-20.857      C86.952,285.475,84.045,278.893,80.073,279.695z"/>
			</g>
			<g>
				<g>
					<path fill="#753611" d="M40.592,277.755l5.136-1.96l32.986,11.691c0,0,0.694,0.212,1.895,2.009       c0.669,1.002,0.962,3.154,0.962,3.154L40.592,277.755z"/>
				</g>
				<g>
					<path fill="#873F14" d="M40.888,283.983l2.127-6.651l38.556,15.318c0,0,0.491,2.366-1.328,5.012       c-2.166,3.151-3.914,3.16-3.914,3.16L40.888,283.983z"/>
				</g>
				<g>
					<polygon fill="#68A5B0" points="32.09,279.575 35.133,272.332 37.799,272.479 33.91,285.066      "/>
				</g>
				<g>
					<polygon fill="#4F889E" points="33.91,285.066 37.799,272.479 46.387,277.831 42.835,285.431      "/>
				</g>
				<g>
					<polygon fill="#386D82" points="37.799,272.479 40.874,270.417 47.71,275.755 46.387,277.831      "/>
				</g>
				<g>
					<polygon fill="#437B91" points="35.133,272.332 36.68,271.306 40.874,270.417 37.799,272.479      "/>
				</g>
			</g>
		</g>
		<g>
			<path fill="#4160AB" d="M94.7,309.439l2.796-14.075c0,0,10.252,1.498,16.91,3.927c-1.124,2.85-4.207,5.018-6.649,5.636     c10.151,0.789,6.366,5.001,4.945,8.742C103.85,314.865,94.7,309.438,94.7,309.439z"/>
		</g>
		<g>
			<g>
				<path fill="#F5AB6C" d="M96.5,313.805c1.044-1.466,4.889-4.908,5.126-6.385c0.271-1.686-4.163-4.894-5.973-3.188      c-3.942,3.718-4.847,4.456-6.078,6.129C87.268,313.494,94.551,316.542,96.5,313.805z"/>
			</g>
			<g>
				<path fill="#E88351" d="M98.724,308.429c-0.381,0.935-2.561,3.602-4.667,6.436c1.006-0.01,1.918-0.324,2.442-1.061      c1.044-1.466,4.889-4.908,5.126-6.385c0.271-1.686-4.163-4.894-5.973-3.188c-0.676,0.638-1.258,1.183-1.772,1.665      C95.6,307.928,97.221,307.45,98.724,308.429z"/>
			</g>
			<g>
				<path fill="#F5AB6C" d="M104.524,314.948c1.054-1.569,3.46-5.425,3.412-6.996c-0.054-1.794-4.468-4.589-5.764-2.321      c-1.503,2.629-3.464,4.85-4.814,6.935C96.008,314.652,102.79,317.527,104.524,314.948z"/>
			</g>
			<g>
				<path fill="#E88351" d="M103.194,315.84c0.553-0.15,1.022-0.433,1.331-0.891c1.054-1.569,3.46-5.425,3.412-6.996      c-0.054-1.794-4.467-4.588-5.763-2.322l-0.001,0.001c1.784-0.566,3.402,0.52,4.689,2.118      C106.728,310.187,106.502,310.967,103.194,315.84z"/>
			</g>
			<g>
				<path fill="#F5AB6C" d="M111.392,314.38c0.712-1.375,2.308-4.734,2.123-6.007c-0.211-1.454-4.061-3.316-4.903-1.35      c-0.976,2.278-2.364,4.266-3.268,6.088C104.44,314.933,110.224,316.637,111.392,314.38z"/>
			</g>
			<g>
				<path fill="#E88351" d="M110.393,315.227c0.436-0.172,0.792-0.447,1-0.848c0.712-1.375,2.308-4.734,2.123-6.007      c-0.211-1.454-4.061-3.316-4.903-1.35c1.398-0.626,2.815,0.106,4.011,1.285C112.741,310.301,112.628,310.959,110.393,315.227z"/>
			</g>
			<g>
				<path fill="#F5AB6C" d="M93.323,304.772c2.978,1.451,5.58,2.563,8.415,4.667c1.753-0.325,3.694-1.403,4.032-3.273      c0.362-1.996-2.581-3.571-4.683-3.927c0.866-0.842,2.007-1.769,2.807-3.022c1.896,1.851,3.713,2.776,6.427,2.151      c3.036-0.699,5.588-2.171,4.709-5.664c-2.486-9.883-9.005-5.512-13.582-7.016c-3.632,2.78-4.096,6.425-8.446,9.631      C91.823,299.185,90.754,303.519,93.323,304.772z"/>
			</g>
			<g>
				<path fill="#E88351" d="M101.738,309.439c1.753-0.325,3.694-1.403,4.032-3.273c0.362-1.996-2.581-3.571-4.683-3.927      c0.866-0.842,2.007-1.769,2.807-3.022c1.896,1.851,3.713,2.776,6.427,2.151c2.681-0.617,4.981-1.84,4.876-4.524      c-1.991,3.311-6.896,5.313-11.256,1.506c-1.45,1.538-3.066,3.012-4.318,4.286C104.892,304.427,106.954,306.393,101.738,309.439z      "/>
			</g>
		</g>
	</g>
	<g>
		<g>
			<g>
				<path fill="#2E2745" d="M308.045,276.387c8.604,1.569,7.672,9.356,16.53,7.718c-2.647-3.381-2.777-5.447-3.609-12.304      c-0.781-6.431-0.918-9.347-0.25-14.206c-6.711,1.936-8.759,10.235-12.34,13.011      C306.703,271.979,306.685,275.094,308.045,276.387z"/>
			</g>
			<g>
				<path fill="#F5AB6C" d="M327.299,284.586c-13.216-1.727-11.907-9.281-9.12-14.467c3.87-7.201,19.617-5.19,19.617-5.19      l-1.368,19.306C336.428,284.235,333.386,285.381,327.299,284.586z"/>
			</g>
			<g>
				<g>
					<polygon fill="#873F14" points="306.011,455.039 385.042,26.809 367.908,23.937 299.828,454.115      "/>
				</g>
				<g>
					<polygon fill="#873F14" points="479.91,53.518 357.166,33.816 355.093,43.049 479.131,59.721      "/>
				</g>
				<g>
					<polygon fill="#3D375C" points="391.033,60.205 354.557,54.944 352.255,68.324 387.566,75.156      "/>
				</g>
				<g>
					<polygon fill="#3D375C" points="404.193,74.541 411.623,38.445 398.404,35.347 389.476,70.188      "/>
				</g>
				<g>
					<polygon fill="#3D375C" points="435.363,79.318 442.792,43.222 429.574,40.125 420.646,74.965      "/>
				</g>
				<g>
					<polygon fill="#3D375C" points="466.899,85.963 474.329,49.867 461.11,46.769 452.182,81.61      "/>
				</g>
				<g>
					<polygon fill="#3D375C" points="385.188,98.958 348.713,93.698 346.41,107.078 381.722,113.909      "/>
				</g>
				<g>
					<polygon fill="#3D375C" points="379.866,135.047 343.391,129.786 341.088,143.167 376.399,149.998      "/>
				</g>
				<g>
					<polygon fill="#3D375C" points="374.482,173.538 338.007,168.278 335.704,181.658 371.016,188.489      "/>
				</g>
				<g>
					<polygon fill="#3D375C" points="367.767,215.899 331.292,210.638 328.989,224.019 364.301,230.85      "/>
				</g>
				<g>
					<polygon fill="#181429" points="479.91,66.596 385.036,52.912 351.13,249.922 437.398,259.48      "/>
				</g>
				<g>
					<polygon fill="#CFCEA1" points="444.481,117.066 429.446,85.899 396.81,110.997      "/>
				</g>
				<g>
					<polygon fill="#CFCEA1" points="437.147,158.449 422.112,127.282 389.476,152.381      "/>
				</g>
				<g>
					<polygon fill="#CFCEA1" points="429.813,199.431 414.778,168.264 382.142,193.362      "/>
				</g>
				<g>
					<path fill="#6B2A0E" d="M337.954,281.953l4.246-23.007l-11.344-0.893l-2.201,13.907c0,0,1.827-0.828,2.331-5.664       c0.688,0.003,1.284,0.043,1.88,0.043c-0.573,2.406-0.154,4.046,0.939,4.472c-0.485,2.063,0.058,2.931,1.008,3.209       c-1.352,0.275-1.719,1.574-2.005,3.293C332.017,282.064,337.954,281.953,337.954,281.953z"/>
				</g>
				<g>
					<path fill="#2E2745" d="M277.237,287.902c8.681-1.659,19.133-8.494,38.903-12.936c1.059-2.306,0.459-4.175-1.459-5.604       c-16.041,1.002-19.081-8.674-40.057-5.815c-4.074,1.084-7.542,0.908-10.038,6.719c-3.581,6.676-4.833,12.046,2.077,13.403       C271.102,286.431,272.932,288.07,277.237,287.902z"/>
				</g>
			</g>
			<g>
				<g>
					<path fill="#F5AB6C" d="M349.528,258.06c-2.39,0.16-3.668,0.582-9.73,2.11c-2.781,0.702-2.412,7.004-0.603,7.786       c1.584,0.685,7.316-0.92,9.389-1.026C352.454,266.734,354.005,257.761,349.528,258.06z"/>
				</g>
				<g>
					<path fill="#E88351" d="M342.515,259.48c-0.788,0.201-1.678,0.429-2.717,0.691c-2.781,0.702-2.412,7.004-0.603,7.786       c1.584,0.685,7.316-0.92,9.389-1.026c1.042-0.053,1.913-0.745,2.547-1.717c-4.063,0.291-8.008,0.757-9.154,0.548       C341.955,263.692,343.425,262.412,342.515,259.48z"/>
				</g>
				<g>
					<path fill="#F5AB6C" d="M346.846,266.998c-2.866,0.02-6.241,0.55-9.731,0.381c-3.009-0.147-3.028,5.879-1.317,7.045       c1.498,1.021,6.74,1.072,8.92,1.02C348.302,275.357,349.712,266.978,346.846,266.998z"/>
				</g>
				<g>
					<path fill="#E88351" d="M336.268,273.254c-0.756-2.243-0.808-4.49,0.848-5.874c-0.001,0-0.001,0-0.002,0       c-3.008-0.145-3.027,5.879-1.316,7.044c1.498,1.021,6.74,1.072,8.92,1.02c0.637-0.015,1.204-0.296,1.691-0.742       C339.621,274.898,338.722,274.635,336.268,273.254z"/>
				</g>
				<g>
					<path fill="#F5AB6C" d="M343.66,275.16c-2.332-0.251-5.126-0.134-7.948-0.597c-2.434-0.4-3.011,4.498-1.728,5.605       c1.123,0.969,5.38,1.5,7.158,1.661C344.064,282.093,345.993,275.411,343.66,275.16z"/>
				</g>
				<g>
					<path fill="#E88351" d="M334.475,279.26c-0.405-1.894-0.239-3.726,1.238-4.697c-2.434-0.4-3.011,4.498-1.728,5.605       c1.123,0.969,5.38,1.5,7.158,1.661c0.519,0.047,1.007-0.129,1.445-0.446C337.051,280.91,336.341,280.612,334.475,279.26z"/>
				</g>
				<g>
					<path fill="#F5AB6C" d="M335.69,253.925c-5.815,2.243-9.648,0.434-14.603,2.242c-1.375,5.383-9.668,9.012-1.599,17.558       c2.852,3.021,5.866,1.453,8.428-1.067c2.29-2.252,2.519-4.592,1.894-7.584c1.714-0.001,3.322-0.535,4.678-0.855       c-0.957,2.265-1.249,6.103,0.915,6.989c2.029,0.831,4.281-0.388,5.684-1.891c-0.289-4.062,0.243-7.281,0.679-11.077       C342.144,254.965,337.266,253.317,335.69,253.925z"/>
				</g>
				<g>
					<path fill="#E88351" d="M335.784,263.042c-2.016,0.428-4.451,1.085-6.846,1.541c0.998,6.602-3.991,10.129-8.445,10.013       c2.545,1.765,5.161,0.288,7.424-1.937c2.29-2.252,2.519-4.592,1.894-7.584c1.714-0.001,3.322-0.535,4.678-0.855       c-0.957,2.265-1.249,6.103,0.915,6.989c2.029,0.831,4.281-0.388,5.684-1.891C334.892,272.502,334.259,269.278,335.784,263.042z       "/>
				</g>
			</g>
		</g>
		<g>
			<path fill="#9E4C1C" d="M308.546,445.036c3.462,1.051,3.355,8.1,1.13,10.733c-2.984,3.53-10.02,6.859-13.562,7.643     c-15.291,3.383-19.6,1.239-35.388-7.021c-6.517-3.41-14.278-5.396-16.907-6.069c-3.978-1.018-7.295-11.599-1.659-13.09     C264.715,453.309,288.655,451.666,308.546,445.036z"/>
		</g>
		<g>
			<path fill="#3E365C" d="M257.361,398.777c-0.995,6.589-0.027,13.601,0.124,19.642c13.186,4.779,15.921,8.633,22.385,11.712     c7.983,1.705,16.355-0.848,22.377,2.971c6.244,3.96,9.263,13.31,6.255,16.066c-5.26,4.819-20.509,11.117-31.118,7.546     c-17.873-6.017-13.592-5.214-25.692-10.518c-9.085-3.983-19.194-1.795-3.883-28.373c-2.611-7.21-6.574-12.135-7.48-20.542     C241.655,391.314,252.141,392.396,257.361,398.777z"/>
		</g>
		<g>
			<path fill="#475078" d="M259.517,387.759c4.294,5.005,7.774,7.908,11.121,13.623c-17.923,7.341-20.344-2.971-44.804,1.489     c1.635-4.184,6.73-11.079,11.408-15.228C239.278,381.879,255.105,380.795,259.517,387.759z"/>
		</g>
		<g>
			<path fill="#303257" d="M259.517,387.759c1.814,2.115,3.483,3.854,5.058,5.589c-11.379,5.48-15.759-0.732-31.519-1.414     c1.364-1.578,2.794-3.056,4.186-4.291C239.278,381.879,255.105,380.795,259.517,387.759z"/>
		</g>
		<g>
			<path fill="#475078" d="M259.855,299.753c18.88,17.876,28.572,39.143,36.259,66.384c-26.617,28.842-56.273,29.588-80.142,19.393     c-9.836-18.292-19.89-47.712-23.869-69.368C231.972,311.594,246.098,298.083,259.855,299.753z"/>
		</g>
		<g>
			<path fill="#3B3E66" d="M219.531,359.719c6.303,23.698,34.929,33.629,76.583,6.418c-26.617,28.842-56.273,29.588-80.142,19.393     c-9.836-18.292-19.89-47.712-23.869-69.368C203.126,331.329,216.559,341.617,219.531,359.719z"/>
		</g>
		<g>
			<path fill="#554594" d="M252.774,421.068c-2.357,0-4.979-0.342-7.532-1.373c-1.528-0.617-2.267-2.356-1.649-3.884     s2.354-2.268,3.884-1.649c5.286,2.135,11.487-0.02,11.551-0.042c1.553-0.551,3.256,0.257,3.811,1.804s-0.242,3.25-1.788,3.81     C260.826,419.814,257.285,421.068,252.774,421.068z"/>
		</g>
		<g>
			<path fill="#554594" d="M303.757,454.419c-0.198,0-0.399-0.03-0.599-0.093c-1.044-0.329-1.626-1.439-1.303-2.484     c0.057-0.188,1.165-4.054-1.347-7.813c-2.63-3.938-8.479-6.47-16.917-7.323c-1.093-0.11-1.89-1.086-1.778-2.179     c0.11-1.092,1.072-1.885,2.179-1.779c9.847,0.996,16.534,4.073,19.875,9.147c3.54,5.375,1.859,10.899,1.786,11.132     C305.386,453.876,304.602,454.419,303.757,454.419z"/>
		</g>
		<g>
			<path fill="#554594" d="M275.762,438.661c-8.222,0-20.177-3.344-35.334-9.938c-1.007-0.438-1.468-1.61-1.03-2.617     c0.438-1.007,1.606-1.47,2.618-1.03c29.495,12.832,38.417,9.483,40.449,8.152c1.153-0.756,1.714-1.769,1.714-3.097     c0-1.099,0.891-1.989,1.989-1.989s1.989,0.891,1.989,1.989c0,2.658-1.247,4.939-3.512,6.424     C282.499,437.962,279.52,438.661,275.762,438.661z"/>
		</g>
		<g>
			<path fill="#9E4C1C" d="M107.921,455.147c-5.161,1.567-3.967,12.537,0.145,14.794c7.625,4.185,28.078,4.333,36.424,0.995     c7.459-2.984,10.946-9.575,13.157-11.147c7.459-5.304,7.79-6.63,4.323-17.073C139.415,458.793,127.812,461.777,107.921,455.147z"/>
		</g>
		<g>
			<path fill="#3E365C" d="M144.719,400.324c0.995,6.589,0.027,13.601-0.124,19.642c-11.339,11.124-17.536,19.105-20.247,24.747     c-16.26,3.473-22.984,14.58-15.763,18.059c7.432,3.581,27.291,3.338,35.637,0c7.459-2.984,7.025-8.831,9.075-10.608     c8.707-7.549,16.285-6.216,0.974-32.794c2.611-7.21,6.574-12.135,7.48-20.542C160.424,392.861,149.938,393.942,144.719,400.324z"/>
		</g>
		<g>
			<path fill="#475078" d="M144.804,391.083c-4.866,4.451-8.671,6.913-12.682,12.183c16.907,9.448,20.553-0.497,44.298,6.879     c-1.119-4.351-5.346-11.81-9.489-16.492C165.604,387.685,150.023,384.702,144.804,391.083z"/>
		</g>
		<g>
			<path fill="#303257" d="M144.804,391.083c-2.031,1.858-3.877,3.369-5.631,4.883c9.42,9.455,21.106,1.747,30.72,1.469     c-0.963-1.367-1.965-2.656-2.963-3.783C165.604,387.685,150.023,384.702,144.804,391.083z"/>
		</g>
		<g>
			<path fill="#475078" d="M156.156,300.499c-18.88,17.876-31.897,43.262-40.278,60.169c17.653,49.477,57.931,35.306,83.788,27.598     c14.918-18.004,33.316-48.234,37.295-69.89C197.092,313.806,169.913,298.829,156.156,300.499z"/>
		</g>
		<g>
			<path fill="#3B3E66" d="M195.336,381.801c-50.282,13.301-63.214,1.12-79.458-21.134c17.653,49.477,57.931,35.306,83.788,27.598     c14.918-18.004,33.316-48.234,37.295-69.89C228.155,351.841,206.262,373.93,195.336,381.801z"/>
		</g>
		<g>
			<path fill="#2E2745" d="M128.879,252.992c-1.661,7.3-5.994,18.713-15.52,36.597c1.058,2.307,2.865,3.071,5.2,2.549     c9.702-12.813,19.019-8.807,30.533-26.574C145.49,256.161,140.677,247.686,128.879,252.992z"/>
		</g>
		<g>
			<path fill="#3E365C" d="M145.554,218.053c-5.783,19.103-11.241,26.522-25.385,43.098c7.873,13.245,24.636,24.719,53.824,24.929     c3.821-12.882,1.937-53.915-3.851-82.004C158.272,207.879,151.576,213.654,145.554,218.053z"/>
		</g>
		<g>
			<path fill="#332C4D" d="M159.782,230.799c-4.334,14.317-6.299,19.725-11.023,29.67c5.9,9.927,6.196,15.829,28.071,15.986     c2.864-9.655-3.871-50.795-17.434-57.218C158.784,224.501,159.284,227.65,159.782,230.799z"/>
		</g>
		<g>
			<path fill="#594F87" d="M130.115,246.342c-2.282,2.628-9.12,10.46-13.084,15.975c6.225,12.413,23.145,25.623,54.822,25.85     c5.781-8.991,6.835-16.561,3.77-26.201C160.802,263.538,144.443,261.008,130.115,246.342z"/>
		</g>
		<g>
			<path fill="#4B4175" d="M140.265,282.379c8.273,3.458,18.711,5.695,31.589,5.788c5.781-8.991,6.835-16.561,3.77-26.201     c-9.179,0.973-18.947,0.374-28.458-3.707C145.796,265.142,145.485,274.338,140.265,282.379z"/>
		</g>
		<g>
			<path fill="#554594" d="M149.99,422.987c-4.513,0-8.054-1.254-8.275-1.334c-1.55-0.561-2.351-2.271-1.79-3.821     c0.56-1.547,2.266-2.35,3.813-1.792c0.104,0.037,6.279,2.169,11.55,0.042c1.528-0.616,3.268,0.121,3.884,1.649     c0.617,1.528-0.122,3.267-1.649,3.884C154.969,422.644,152.346,422.987,149.99,422.987z"/>
		</g>
		<g>
			<path fill="#554594" d="M114.168,466.42c-0.075,0-0.151-0.004-0.228-0.013c-1.091-0.124-1.876-1.109-1.752-2.201     c1.034-9.11,4.302-15.428,17.376-18.769c1.068-0.274,2.147,0.371,2.419,1.435s-0.37,2.147-1.435,2.419     c-11.025,2.817-13.502,7.384-14.407,15.363C116.027,465.671,115.166,466.42,114.168,466.42z"/>
		</g>
		<g>
			<path fill="#554594" d="M133.792,449.871c-4.494,0-7.394-1.676-10.018-3.193l-0.418-0.241c-0.952-0.547-1.28-1.763-0.733-2.716     c0.548-0.952,1.762-1.283,2.716-0.733l0.427,0.246c5.392,3.117,11.505,6.652,35.069-9.727c0.902-0.626,2.143-0.403,2.768,0.498     c0.627,0.902,0.404,2.142-0.498,2.769C148.496,446.928,139.745,449.871,133.792,449.871z"/>
		</g>
		<g>
			<path fill="#3E365C" d="M255.773,215.181c11.165,16.544,18.571,22.02,36.979,33.681c-3.611,14.979-16.239,30.891-44.063,39.709     c-7.454-11.179-17.77-50.939-20.533-79.485C240.618,209.216,248.721,212.757,255.773,215.181z"/>
		</g>
		<g>
			<path fill="#332C4D" d="M245.476,220.744c-0.414,3.922-2.03,9.144-3.398,13.95c1.492,5.573,9.448,21.175,13.55,27.826     c1.492,9.883,2.984,16.969-6.941,26.051c-7.454-11.179-11.629-28.32-14.392-56.865     C238.66,225.744,241.913,222.76,245.476,220.744z"/>
		</g>
		<g>
			<path fill="#594F87" d="M278.876,237.651c5.798,4.006,12.232,8.692,17.217,11.4c-2.283,13.698-14.548,31.314-44.746,40.884     c-8.178-6.883-11.42-13.804-11.338-23.92C254.635,263.14,269.517,255.893,278.876,237.651z"/>
		</g>
		<g>
			<path fill="#4B4175" d="M271.148,281.203c-5.514,3.304-12.069,6.281-19.8,8.731c-8.178-6.883-11.42-13.804-11.338-23.92     c5.806-1.141,11.654-2.972,17.179-5.906C259.98,267.742,266.631,277.003,271.148,281.203z"/>
		</g>
		<g>
			<path fill="#3E365C" d="M248.236,277.941c10.194,14.95,30.888,39.216,42.325,55.107c-11.934,15.248-34.311,27.62-61.163,27.62     c-15.205-21.198-27.59-54.106-23.62-70.553C221.856,286.801,234.479,276.271,248.236,277.941z"/>
		</g>
		<g>
			<path fill="#615794" d="M233.057,351.468c27.397,0,42.153-13.256,52.648-26.319c2.259,2.948,4.361,5.752,6.224,8.341     c-12.316,15.736-35.408,28.503-63.119,28.503c-15.691-21.876-28.472-55.836-24.376-72.809c3.628-0.748,7.085-1.851,10.421-3.102     C214.978,311.438,221.5,333.896,233.057,351.468z"/>
		</g>
		<g>
			<path fill="#3E365C" d="M160.279,281.603c-5.553,13.426-20.305,29.836-30.25,43.682c11.473,18.31,47.361,39.213,73.263,36.874     c18.399-19.642,32.704-40.343,31.004-72.225C194.428,285.366,174.036,279.933,160.279,281.603z"/>
		</g>
		<g>
			<path fill="#615794" d="M226.895,290.983c-1.061,11.007-0.538,39.6-26.256,62.841c-19.725,1.373-57.019-18.454-67.063-35.451     c-1.854,2.323-3.612,4.604-5.205,6.822c11.473,18.31,49.682,41.291,75.584,38.952c18.399-19.642,33.525-41.842,31.825-73.724     C233.045,290.424,230.641,291.051,226.895,290.983z"/>
		</g>
		<g>
			<path fill="#6B61AD" d="M156.425,279.179c-0.622,3.978-0.995,5.781-0.595,9.573c37.019,23.018,74.314,25.67,98.629-4.019     c-0.876-2.365-2.56-5.772-3.804-8.724C210.788,271.44,170.183,277.509,156.425,279.179z"/>
		</g>
		<g>
			<g>
				<path fill="#7B70BF" d="M225.335,308.181c1.923-0.893-5.042-7.938-7.242-11.972c-22.002,2.934-16.297,23.035-18.423,38.568      c-4.4,32.142,29.355,29.058,17.719,68.752c5.687-3.329,13.344-8.342,15.285-9.427c9.209-35.548-23.848-34.693-21.781-58.446      C212.98,311.702,216.525,310.381,225.335,308.181z"/>
			</g>
			<g>
				<path fill="#7B70BF" d="M235.868,290.574c-3.453,0.307-5.394,2.426-9.755,3.734c17.66,12.316,18.832,14.768,16.33,30.936      c-3.733,24.117,16.376,18.014,23.02,54.319c3.839-2.3,11.796-6.003,15.281-10.312c-7.367-25.728-27.57-32.031-24.744-46.91      C259.054,306.256,246.696,296.209,235.868,290.574z"/>
			</g>
			<g>
				<path fill="#867BD1" d="M214.734,295.132c-0.622,3.978,5.801,10.656,9.531,14.006c3.799,1.238,10.467-1.794,12.349-4.807      c1.575-3.066,0.998-10.14-0.746-13.758C227.738,289.674,218.464,293.019,214.734,295.132z"/>
			</g>
		</g>
		<g>
			<path fill="#3E365C" d="M162.185,230.882c-1.989,10.601-7.451,25.99-12.056,44.861c9.404,13.567,70.567,42.657,103.556,0.639     c-1.504-11.754-10.288-26.069-14.258-42.516c3.315-5.47,4.701-8.75,6.05-13.122c-23.206-36.549-63.649-42.39-86.357-7.251     C158.925,217.579,160.003,226.141,162.185,230.882z"/>
		</g>
		<g>
			<path fill="#332C4D" d="M150.129,275.743c9.404,13.567,70.567,42.657,103.556,0.639c-1.504-11.754-10.288-26.069-14.258-42.516     c3.068,14.525,9.055,33.389,10.608,41.687C227.18,305.57,169.354,293.91,150.129,275.743z"/>
		</g>
		<g>
			<path fill="#615794" d="M207.758,241.076c4.108,8.951,17.941,38.966,18.656,55.693c4.475-0.166,8.453-1.906,12.246-4.501     c-1.504-11.754-7.771-29.313-17.964-53.679c6.464-6.883,15.494-23.147,16.741-30.913c-22.211-25.396-49.395-30.167-73.24-1.777     C164.004,209.985,192.104,232.125,207.758,241.076z"/>
		</g>
		<g>
			<path fill="#241F38" d="M213.217,231.706c8.25-12.658,11.457-21.458,14.938-30.66c-12.929-5.967-32.29-8.78-52.047,2.072     C182.738,209.749,197.563,222.756,213.217,231.706z"/>
		</g>
		<g>
			<path fill="#3E365C" d="M138.897,79.218c-0.359,27.347,0.249,56.19-10.442,82.297c4.973,28.841,49.477,49.002,77.075,48.732     c27.484-0.269,53.207-10.94,60.914-29.09c-2.552-24.663-7.459-60.417-2.486-93.734C256.499,58.333,187.38,22.779,138.897,79.218z     "/>
		</g>
		<g>
			<path fill="#302747" d="M253.684,181.985c-29.01,32.488-98.958,31.754-125.23-20.471c4.973,28.841,49.477,49.002,77.075,48.732     c27.484-0.269,53.207-10.94,60.914-29.09c-2.552-24.663-7.459-60.417-2.486-93.734c-3.404-13.277-19.654-27.901-40.924-34.51     c22.587,8.578,31.965,22.191,35.385,39.028C256.25,122.642,251.11,148.646,253.684,181.985z"/>
		</g>
		<g>
			<path fill="#52467A" d="M135.706,135.41c20.181,15.164,38.372,24.861,67.172,25.607c27.477,0.712,50.211-11.851,59.386-22.874     C208.653,162.82,167.862,146.845,135.706,135.41z"/>
		</g>
		<g>
			<path fill="#2E2442" d="M135.706,135.41c19.02,11.409,38.206,22.043,67.006,22.789c27.477,0.712,50.05-12.072,59.552-20.056     C208.653,162.82,167.862,146.845,135.706,135.41z"/>
		</g>
		<g>
			<path fill="#2E2442" d="M138.513,103.804c-0.084,2.7-0.192,5.403-0.337,8.104c50.074-18.393,93.255-9.94,123.732,0.01     c0.072-2.702,0.188-5.408,0.355-8.114C209.259,79.964,157.668,91.773,138.513,103.804z"/>
		</g>
		<g>
			<path fill="#F5AB6C" d="M149.588,95.379c-0.497,14.918-0.841,31.605-3.441,43.867c47.89,21.523,72.56,17.793,107.537,3.124     c1.323-17.156,2.566-28.841,2.566-44.994C239.741,80.979,190.115,74.991,149.588,95.379z"/>
		</g>
		<g>
			<path fill="#D97948" d="M249.203,109.818c3.559,3.379,6.167,11.044,4.481,19.965c-3.149,10.66-21.755,25.681-41.411,18.395     c-5.608-5.514-3.695-14.051-0.982-24.097C227.801,107.686,235.611,107.829,249.203,109.818z"/>
		</g>
		<g>
			<path fill="#D97948" d="M160.03,100.6c-7.395,3.483-10.519,20.765-6.706,30.001c3.149,10.66,21.058,24.863,40.713,17.577     c5.608-5.514,4.945-26.528,1.961-31.667C179.49,100.116,173.622,98.611,160.03,100.6z"/>
		</g>
		<g>
			<path fill="#212133" d="M154.726,129.783c19.07,8.57,25.195,11.923,37.046,17.393c5.677-3.895,7.065-20.415-4.973-26.514     C167.158,110.711,147.906,127.541,154.726,129.783z"/>
		</g>
		<g>
			<path fill="#E6274F" d="M135.366,80.709c-0.883,10.38-0.821,20.823,1.666,29.214c44.381-19.766,97.339-14.296,127.174,0.373     c1.243-6.775,3.108-13.923,3.108-22.874C240.421,51.868,177.6,51.537,135.366,80.709z"/>
		</g>
		<g>
			<path fill="#B8193A" d="M134.997,86.458c7.404-4.732,18.487-9.423,34.978-12.213c-15.063,1.815-26.772,4.578-34.733,8.164     C135.141,83.762,135.06,85.111,134.997,86.458z"/>
		</g>
		<g>
			<path fill="#B8193A" d="M183.153,93.39c-22.868,0-38.788,3.493-47.741,8.307c0.222,1.834,0.505,3.622,0.886,5.334     C146.291,101.922,163.35,96.74,183.153,93.39z"/>
		</g>
		<g>
			<path fill="#B8193A" d="M134.884,89.878c-0.025,1.33-0.024,2.647,0,3.953c7.671-3.406,16.643-6.575,25.572-8.822     C150.396,86.221,141.845,87.859,134.884,89.878z"/>
		</g>
		<g>
			<path fill="#B8193A" d="M237.095,73.236c14.584,6.56,23.953,13.554,29.967,19.791c0.115-1.356,0.186-2.759,0.217-4.202     C260.454,83.686,250.289,78.43,237.095,73.236z"/>
		</g>
		<g>
			<path fill="#B8193A" d="M264.591,108.288c0.342-1.75,0.704-3.535,1.054-5.375c-8.921-4.685-22.812-8.769-41.854-10.972     C240.442,96.78,254.931,102.743,264.591,108.288z"/>
		</g>
		<g>
			<path fill="#B8193A" d="M266.402,98.511c0.21-1.364,0.398-2.76,0.546-4.206c-6.979-3.121-15.958-6.01-26.775-8.602     C249.527,89.243,258.809,93.868,266.402,98.511z"/>
		</g>
		<g>
			<path fill="#3B0919" d="M151.577,94.467c0,0,33.814,16.741,44.422,22.045c10.608-11.105,1.283-20.995-6.464-23.537     C174.382,88.003,151.577,94.467,151.577,94.467z"/>
		</g>
		<g>
			<path fill="#3B0919" d="M252.761,108.483c0,0-31.563,11.838-41.47,15.599c-4.945-10.525,4.991-19.064,12.211-20.038     C234.567,102.553,252.761,108.483,252.761,108.483z"/>
		</g>
		<g>
			<path fill="#F0EED3" d="M186.551,123.64c-10.671-6.912-23.869-0.497-31.825,6.144c8.453,13.083,19.656,21.371,37.046,17.393     C194.093,141.707,197.138,130.498,186.551,123.64z"/>
		</g>
		<g>
			<path fill="#AB4F0C" d="M194.007,136.204c-0.208-4.428-2.05-9.063-7.456-12.565c-6.22-4.029-13.294-3.515-19.693-1.082     c-1.163,2.15-1.825,4.611-1.825,7.226c0,8.398,6.808,15.205,15.205,15.205C186.338,144.989,191.585,141.389,194.007,136.204z"/>
		</g>
		<g>
			<path fill="#290410" d="M192.076,129.312c-1.168-2.052-2.934-3.994-5.526-5.672c-4.241-2.747-8.879-3.367-13.431-2.727     c-2.011,2.012-3.255,4.791-3.255,7.86c0,6.141,4.978,11.119,11.119,11.119C186.943,139.892,191.793,135.201,192.076,129.312z"/>
		</g>
		<g>
			<circle fill="#F7F7D9" cx="170.62" cy="127.235" r="2.827"/>
		</g>
		<g>
			<path fill="#212133" d="M251.585,129.783c-19.07,8.57-25.195,11.923-37.046,17.393c-3.512-2.569-4.037-19.973,6.841-25.63     C240.916,111.388,258.405,127.541,251.585,129.783z"/>
		</g>
		<g>
			<path fill="#F0EED3" d="M223.182,125.168c-10.612,6.82-9.806,17.497-8.644,22.009c17.39,3.978,28.593-4.31,37.046-17.393     C244.316,124.406,232.009,119.496,223.182,125.168z"/>
		</g>
		<g>
			<path fill="#AB4F0C" d="M223.182,125.168c-6.217,3.995-8.502,9.309-9.105,13.937c2.782,3.575,7.114,5.884,11.995,5.884     c8.398,0,15.205-6.808,15.205-15.205c0-2.078-0.42-4.058-1.175-5.863C234.384,122.146,228.218,121.932,223.182,125.168z"/>
		</g>
		<g>
			<path fill="#290410" d="M223.182,125.168c-3.977,2.555-6.349,5.652-7.701,8.764c1.86,3.542,5.568,5.961,9.845,5.961     c6.141,0,11.119-4.978,11.119-11.119c0-2.207-0.651-4.258-1.76-5.987C230.659,122.36,226.652,122.938,223.182,125.168z"/>
		</g>
		<g>
			<circle fill="#F7F7D9" cx="235.69" cy="127.235" r="2.827"/>
		</g>
	</g>
</g>
</svg>
