<?xml version="1.0" encoding="UTF-8"?>
<svg xmlns="http://www.w3.org/2000/svg" xmlns:xlink="http://www.w3.org/1999/xlink" version="1.1" id="character" x="0px" y="0px" viewBox="0 0 512 512" xml:space="preserve" width="512" height="512">
<g>
	<polygon fill="none" points="301.633,400.456 90.877,401.244 70.917,214.186 317.591,177.052  "/>
	<ellipse fill="none" cx="201.105" cy="474.562" rx="108.623" ry="24.629"/>
	<path fill="#333466" d="M55.171,192.863c0,0,37.888,26.78,131.759-6.978c61.34-22.059,89.519-45.678,89.519-52.683   C246.485,129.713,153.954,122.547,55.171,192.863z"/>
	<path fill="#6E82BA" d="M185.489,184.954c61.487-22.015,84.717-42.044,89.944-50.848c4.093-1.419,6.864-3.861,8.071,0.674   c-8.079,10.898-50.258,36.111-95.981,53.111c-54.458,20.248-105.442,22.107-137.457,8.548c-0.835-4.353,1.399-7.56,8.867-5.049   C79.403,198.272,113.664,210.671,185.489,184.954z"/>
	<g>
		<path fill="#C9D7DB" d="M125.215,144.73c-6.518,16.631,6.336,41.974-5.28,56.757c-11.615,14.783-17.423,6.072-13.991-2.376    c-9.767,5.808-15.575,25.871,17.687,30.094s32.511-44.662,30.26-55.173C147.39,143.674,125.215,144.73,125.215,144.73z"/>
		<path fill="#A5B6C9" d="M132.995,146.147c-3.478,0.084-6.356,0.235-8.391,0.369c-2.062,6.813-1.337,14.883-0.532,23.018    c1.673,9.272,7.461,12.798,14.298,15.849c0.25,5.176-0.967,9.916-3.133,14.073c-10.92-2.49-14.014,4.137-11.586,12.586    c-9.014,5.962-20.87,12.144-25.049,2.442c1.352,6.364,8.161,12.579,25.029,14.721c33.262,4.224,32.511-44.662,30.26-55.173    C149.907,155.427,140.041,148.629,132.995,146.147z"/>
	</g>
	<g>
		<path fill="#F5AB6C" d="M95.026,408.028c0.401,6.2,10.27,4.534,10.539,1.292c0.648-7.786,0.096-11.358,1.154-14.13    c2.373-6.222,5.614-8.762,5.293-6.529c-1.255,8.723,0.989,12.534,8.359,11.515c-0.348-10.495,5.037-17.129-1.234-25.21    c-7.365-17.649-33.052-20.438-37.917-6.853c-1.604,4.48-2.413,6.844-2.807,11.498c1.422,10.083-2.34,18.795,7.163,20.708    C85.313,405.798,89.982,410.071,95.026,408.028z"/>
		<path fill="#E88D51" d="M95.179,391.674c-0.723,3.552-1.325,13.048-1.495,16.738c0.443-0.085,0.89-0.201,1.342-0.384    C95.113,404.379,95.476,393.687,95.179,391.674z"/>
		<path fill="#E88D51" d="M85.577,400.32L85.577,400.32c0.298-4.298,0.297-9.734,0.297-13.199c-0.772,2.497-0.921,8.735-1.78,12.807    C84.549,400.079,85.039,400.212,85.577,400.32z"/>
		<path fill="#E88D51" d="M119.137,374.966c-7.365-17.649-33.052-20.438-37.917-6.853c-1.603,4.475-2.411,6.839-2.806,11.482    c19.277,11.087,36.03,2.451,43.152-0.143C121.098,377.985,120.329,376.502,119.137,374.966z"/>
		<path fill="#554594" d="M95.838,242.569c-8.249,51.464-26.191,58.341-26.587,72.201c-0.396,13.859,24.938,19.231,38.302,18.539    c26.212-1.357,25.79-1.98,36.792-13.463c0-20.987-7.983-37.131-11.881-72.86C129.915,223.608,95.838,242.569,95.838,242.569z"/>
		<path fill="#433380" d="M95.838,242.569c-1.162,7.253-2.518,13.619-3.989,19.245c8.598,6.022,23.767,12,29.157,12.948    c4.729,14.651,6.69,40.374-2.823,42.24c-27.773-12.937-46.235,3.854-48.668-4.707c-0.149,0.807-0.24,1.627-0.264,2.474    c-0.396,13.859,24.938,19.231,38.302,18.539c26.212-1.357,25.79-1.98,36.792-13.463c0-20.987-7.983-37.131-11.881-72.86    C129.915,223.608,95.838,242.569,95.838,242.569z"/>
		<path fill="#554594" d="M80.912,362.217c-2.76,0.909-9.338,5.035-4.74,10.875c6.6,8.382,31.294,13.265,45.339,4.554    c4.422-6.666,5.585-13.442-1.548-13.785C112.932,363.522,80.912,362.217,80.912,362.217z"/>
		<path fill="#3E2869" d="M119.928,366.096c-0.264-15.971,6.488-8.549,10.051-39.171c-20.038-13.357-51.173-7.749-51.173-7.749    c-4.222,18.547,4.56,28.309,1.656,46.788C93.397,376.229,108.961,375.766,119.928,366.096z"/>
		<path fill="#261D54" d="M129.979,326.925c-20.038-13.357-51.173-7.749-51.173-7.749c-0.11,0.484-0.207,0.959-0.299,1.431    c16.013-1.149,34.545,1.056,38.847,6.424c7.981,9.958-0.716,17.147-2.574,34.252c-0.776,7.15-21.744,10.007-34.193,3.79    c-0.041,0.297-0.077,0.59-0.125,0.891c12.935,10.265,28.499,9.802,39.466,0.132C119.664,350.125,126.415,357.547,129.979,326.925z    "/>
		<path fill="#261D54" d="M124.821,336.181c-12.135-5.804-23.707-11.336-46.914-11.671c0,0.001,0,0.002,0,0.004    c-0.059,0.534-0.107,1.061-0.145,1.582c22.961,0.318,34.392,5.782,46.376,11.514c0.878,0.42,1.765,0.844,2.662,1.269    l-49.138-10.818c-0.016,0.545-0.023,1.085-0.02,1.617l50.026,11.014c0.085-0.353,0.168-0.727,0.252-1.102    c0.026-0.116,0.052-0.228,0.078-0.346c0.1-0.457,0.198-0.928,0.296-1.412c0-0.001,0-0.002,0-0.002    C127.122,337.279,125.961,336.727,124.821,336.181z"/>
		<path fill="#261D54" d="M78.234,337.213c0.129,0.906,0.272,1.804,0.425,2.697c13.519,3.805,32.278,6.837,46.778,7.979    c0.236-0.589,0.472-1.224,0.709-1.909L78.234,337.213z"/>
		<g>
			<path fill="#261D54" d="M81.007,360.551c-0.024,0.531-0.058,1.07-0.101,1.616c6.253,1.398,11.612,1.97,16.594,1.97     c7.794,0,14.685-1.399,22.659-3.207c0.077-0.605,0.17-1.166,0.28-1.688C107.222,362.249,97.124,364.181,81.007,360.551z"/>
			<path fill="#261D54" d="M120.619,358.48c0.146-0.566,0.311-1.091,0.494-1.588l-40.067,0.316c0.012,0.522,0.015,1.05,0.01,1.584     L120.619,358.48z"/>
		</g>
	</g>
	<path fill="#FFE626" d="M131.054,456.348c-21.868-0.038-58.812-9.016-94.649-17.756c51.071,1.931,77.948,5.217,149.374-24.044   s129.003-74.107,78.848-86.021c18.027-7.06,42.684-5.552,52.963,14.493c-10.658-34.336-8.153-71.001,36.646-75.156   c-16.133,20.891,13.816,20.891,27.55,36.335c-13.734-45.719,55.956-122.122,0-136.947c23.928-10.71,64.692,17.365,74.14,84.39   c4.295,30.466,10.205,71.333-11.226,111.08c13.916-8.59,22.683-3.335,30.894,0c-39.336,16.008-9.277,104.336-164.791,97.49   C230.071,456.658,147.321,456.376,131.054,456.348z"/>
	<path fill="#ED7010" d="M442.908,385.288c-9.062-0.434-14.071-0.84-20.189,2.365c6.932-9.071,45.924-68.444-5.287-133.014   c-3.24,42.211-26.453,37.477-24.22,93.905c-13.731-17.846-50.002-8.196-61.207-34.544c-21.07,24.492,7.793,51.125-9.395,80.898   c-4.824-15.527-12.663-25.313-30.347-28.739c0,27.749-4.723,25.706-66.02,68.446c-10.758-8.379-14.445,4.632-41.752,22.173   c34.536,0.464,80.744,1.427,126.312,3.433c15.373,0.677,28.927,0.42,40.919-0.601C403.079,444.467,432.169,419.115,442.908,385.288   z"/>
	<g>
		<path fill="#822C0F" d="M119.321,474.63c5.512,6.269,24.509,26.476,53.009,17.29c3.866-12.8-3.388-24.737-18.676-41.494    C145.476,441.462,107.788,455.56,119.321,474.63z"/>
		<path fill="#63200B" d="M121.338,471.459c12.918-17.439,31.264-12.538,46.036-3.796c-3.316-5.262-7.943-10.905-13.719-17.236    c-8.179-8.964-54.83,5.553-34.334,24.203c5.512,6.269,24.509,26.476,53.009,17.29    C147.367,493.774,130.742,479.448,121.338,471.459z"/>
	</g>
	<g>
		<path fill="#822C0F" d="M236.833,462.564c6.29,5.489,40.963,28.799,68.682,10.32c-1.554-9.89-11.879-18.908-24.332-26.951    C270.989,439.349,238.826,456.492,236.833,462.564z"/>
		<path fill="#63200B" d="M305.515,472.883c-14.255,4.554-34.341,5.93-45.735-4.752c13.562-11.113,20.341-15.425,38.681-8.301    c-4.44-4.906-10.54-9.546-17.278-13.898c-10.194-6.584-42.357,10.56-44.35,16.631    C243.123,468.052,277.797,491.362,305.515,472.883z"/>
	</g>
	<g>
		<path fill="#F5AB6C" d="M126.877,160.387c-5.28,6.909,1.155,18.677,11.351,21.548c9.068,2.553,9.526-11.186,3.668-16.954    C136.038,159.213,129.152,157.411,126.877,160.387z"/>
		<path fill="#E07950" d="M127.93,163.148c2.319-1.395,7.817,1.165,10.793,6.305c1.353,2.337-3.198,0.867-4.589,4.162    c-0.621,1.473,1.808,5.257-0.606,3.722C127.787,173.684,125.185,164.799,127.93,163.148z"/>
	</g>
	<path fill="#FFE626" d="M417.419,159.023c-7.954-12.703-23.481-3.273-39.582-8.509c-8.451-2.748-17.688-9.946-21.475-29.735   c13.457,13.47,26.921,7.458,35.495,8.314S417.988,141.523,417.419,159.023z"/>
	<path fill="#FFE626" d="M321.062,193.517c-1.681,3.494-10.234,6.468-13.937,12.783c-1.944,3.315-2.907,10.948,1.55,18.434   c1.994-4.991,9.036-8.536,11.562-11.274S326.987,200.776,321.062,193.517z"/>
	<path fill="#6857AB" d="M161.992,461.694c13.159,5.834,62.45,5.24,74.961,0.881c24.551-18.776,29.502-19.204,53.062-10.281   c6.066-3.794,5.835-9.885-1.293-7.773c-12.407-8.975-24.257-43.701-32.128-62.82c-9.343-22.694,0.86-26.174-11.151-39.637   c-10.193-11.425-85.003-20.327-98.73-9.24c-13.727,11.087-18.81,22.145-17.687,35.77c2.186,26.531-23.823,66.041-33.063,85.84   c-13.991,1.056,3.976,14.222,16.783,15.189C119.973,470.169,127.975,446.611,161.992,461.694z"/>
	<path fill="#4A458F" d="M288.731,444.519c-1.28,0.82-2.543,1.486-3.769,1.914c-40.203-14.97-34.943,12.821-78.9,13.08   c-55.204,0.326-43.329-21.198-97.663-0.394c-18.148-3.366,27.575-26.31,26.43-108.673c-0.025-1.773-0.313-3.004-0.832-3.749   c-4.127,6.764-5.634,13.886-4.974,21.898c2.186,26.531-23.823,66.041-33.063,85.84c-13.991,1.056,3.976,14.222,16.783,15.189   c7.228,0.546,15.23-23.012,49.246-7.929c13.159,5.834,62.45,5.24,74.961,0.881c24.551-18.776,29.502-19.204,53.062-10.281   C296.078,448.502,295.849,442.415,288.731,444.519z"/>
	<path fill="#4A458F" d="M157.535,431.29c10.198-21.852,10.35-84.2,7.937-113.482c39.758-16.565,48.633-9.547,61.227-3.992   c6.935,20.104,10.048,90.597,20.591,111.138C220.724,448.058,183.685,444.183,157.535,431.29z"/>
	<path fill="#46C2E3" d="M162.474,428.887c9.239-19.799,8.92-79.218,6.734-105.748c36.023-15.009,50.419-12.336,61.83-7.303   c6.283,18.215,7.398,86.323,16.95,104.934C223.917,441.701,186.167,440.568,162.474,428.887z"/>
	<path fill="#95EDEC" d="M178.442,422.625c6.236-13.364,6.021-53.47,4.545-71.378c24.315-10.131,34.032-8.327,41.734-4.93   c4.241,12.295,4.994,58.266,11.441,70.828C219.915,431.275,194.434,430.51,178.442,422.625z"/>
	<path fill="#4A458F" d="M158.195,384.301c3.701-0.668,6.821-3.153,9.036-5.31c3.664-11.785,8.634-34.309,6.143-43.692   c-3.58-2.046-8.73-4.369-15.967-6.319c-4.773,0.822-8.511,2.079-10.696,3.844c-13.727,11.087-18.81,22.145-17.687,35.77   c0.198,2.4,0.158,4.908-0.072,7.496C139.834,381.516,151.385,383.882,158.195,384.301z"/>
	<path fill="#2F2C42" d="M154.367,337.444c21.911,4.153,56.493,6.732,82.891,4.092c7.128-2.112,13.265-3.663,12.756,4.554   c-3.781,6.93-12.523,18.103-42.191,18.281c-37.354,0.224-58.739-10.425-72.994-21.116   C135.493,326.62,147.636,329.788,154.367,337.444z"/>
	<path fill="#554594" d="M309.771,279.841c4.354-17.984,0.488-48.069-13.962-42.815c-9.226,3.355-21.08-0.648-36.025-8.919   c-8.425,2.282-19.1,4.212-38.617,3.869c-8.174,16.574-12.249,40.585-12.249,40.585c17.207,10.174,53.431,35.654,67.987,35.45   C290.769,307.817,306.157,294.77,309.771,279.841z"/>
	<path fill="#433380" d="M295.81,237.025L295.81,237.025c-10.939,11.137-12.774,19.438-15.392,39.525   c-0.733,5.621-2.056,9.655-3.897,12.228c4.314-24.984-0.696-31.664-5.414-42.376c0.658-3.306,1.81-6.917,3.581-11.197   c-4.587-1.726-9.543-4.131-14.904-7.098c-8.425,2.282-19.1,4.212-38.617,3.869c-8.174,16.574-12.249,40.585-12.249,40.585   c17.207,10.174,53.431,35.654,67.987,35.45c13.864-0.195,29.252-13.242,32.866-28.17   C314.125,261.857,310.259,231.771,295.81,237.025z"/>
	<path fill="#F5AB6C" d="M352.888,259.603c-10.38,2.69-23.367,7.045-33.829,11.125c-2.699-8.49-1.879-27.285,4.161-30.547   c6.744,0.857,20.061,1.067,25.272,1.903C355.234,247.575,355.078,254.057,352.888,259.603z"/>
	<path fill="#554594" d="M323.502,232.839c-2.236-2.382-7.266,3.483-8.259,6.151c-3.074,8.263,9.865,29.139,20.338,35.673   c3.694,2.305,8.364,0.992,7.59-2.078C341.705,266.766,330.229,240.007,323.502,232.839z"/>
	<path fill="#3E2869" d="M316.471,241.322c-7.849,3.41-9.475-1.996-15.854-0.16c-9.348,18.425-22.598,41.63-7.466,51.405   c21.146-1.243,35.299-12.512,42.139-19.676C336.172,263.562,319.318,241.068,316.471,241.322z"/>
	<g>
		<path fill="#261D54" d="M298.609,291.983c0.525-0.077,1.055-0.148,1.571-0.237l-2.932-43.989c-0.469,0.92-0.936,1.846-1.402,2.777    L298.609,291.983z"/>
		<path fill="#261D54" d="M302.193,291.353c3.4-11.558,0.465-31.911-3.025-47.353c-0.364,0.71-0.729,1.424-1.098,2.144    c3.854,17.447,5.652,35.779,2.358,45.564C301.028,291.602,301.607,291.474,302.193,291.353z"/>
	</g>
	<g>
		<path fill="#261D54" d="M306.492,241.346c-0.631-0.197-1.276-0.367-1.963-0.471l19.216,41.563c0.453-0.296,0.9-0.591,1.334-0.889    L306.492,241.346z"/>
		<path fill="#261D54" d="M313.066,242.344c-0.746,0.115-1.429,0.144-2.062,0.104c9.733,10.957,16.967,24.542,17.631,36.487    c0.542-0.429,1.056-0.854,1.56-1.279C329.212,265.811,322.263,252.92,313.066,242.344z"/>
	</g>
	<g>
		<path fill="#261D54" d="M308.189,289.81c1.027-0.323,2.034-0.663,3.012-1.027l-11.086-46.637    c-0.727,1.426-1.471,2.876-2.223,4.346L308.189,289.81z"/>
		<path fill="#261D54" d="M317.269,286.151c-0.022-14.377-3.454-31.776-10.414-44.689c-1.243-0.404-2.505-0.759-4.046-0.68    c7.68,12.882,11.497,31.851,11.289,46.845C315.192,287.157,316.244,286.662,317.269,286.151z"/>
	</g>
	<path fill="#261D54" d="M316.471,241.322c-0.165,0.072-0.313,0.118-0.472,0.182c8.258,9.004,16.969,23.854,13.127,33.928   c-14.609,11.034-21.54,11.588-33.945,12.571c-7.375-9.041,5.195-35.396,11.043-46.739c-1.593-0.477-3.284-0.771-5.607-0.102   c-9.348,18.425-22.598,41.63-7.466,51.405c21.146-1.243,35.299-12.512,42.139-19.676   C336.172,263.562,319.318,241.068,316.471,241.322z"/>
	<path fill="#2F2C42" d="M153.077,336.484c21.911,4.153,56.493,6.732,82.891,4.092c7.128-2.112,13.265-3.663,12.756,4.554   c-3.781,6.93-12.523,18.103-42.191,18.281c-37.354,0.224-58.739-10.425-72.994-21.116   C134.202,325.66,146.345,328.828,153.077,336.484z"/>
	<path fill="#6857AB" d="M248.725,340.179c0-20.987-7.609-58.066-3.253-81.175c4.356-23.109-121.961,8.316-121.961,8.316   c4.356,19.007,9.503,46.725,9.108,60.585c-0.396,13.859,21.779,23.363,58.091,29.017   C216.644,360.959,237.722,351.663,248.725,340.179z"/>
	<path fill="#4A458F" d="M238.236,251.674c-26.354-6.336-114.725,15.646-114.725,15.646c0.694,3.027,1.408,6.277,2.116,9.655   c7.839,4.63,15.721,8.71,20.662,10.449c1.01,15.275,3.805,32.289,12.068,54.34c0.411,3.406,1.742,6.405,3.784,9.03   c8.109,2.396,17.7,4.436,28.568,6.128c20.316,3.164,37.65-1.857,49.497-9.7C239.197,317.671,235.557,281.856,238.236,251.674z"/>
	<path fill="#46C2E3" d="M233.712,256.365c0.195-2.148-0.042-3.969-0.628-5.516c-19.361-1.897-57.058,4.943-82.778,10.385   c0.571,26.397,2.065,59.523,14.401,90.291c7.545,2.081,16.259,3.878,26.002,5.396c17.841,2.778,33.384-0.755,44.929-6.969   C235.206,322.035,231.012,286.119,233.712,256.365z"/>
	<path fill="#95EDEC" d="M233.332,260.521c0.338-4.805-1-7.972-3.489-9.904c-8.25-0.386-19.023,0.465-30.547,1.961   c-14.778,5.061-28.765,12.618-28.765,12.618c0.442,26.373,1.627,59.672,11.684,90.279c2.74,0.506,5.566,0.99,8.495,1.446   c17.403,2.71,32.614-0.589,44.066-6.52C234.388,323.445,231.324,289.056,233.332,260.521z"/>
	<path fill="#318CC4" d="M150.134,335.472c-0.439,2.895-1.885,6.064-3.673,9.298c6.54,3.356,15.24,6.234,25.771,8.651   c1.189-4.704,2.162-9.848,1.103-10.509C165.737,338.162,150.134,335.472,150.134,335.472z"/>
	<path fill="#8C4712" d="M236.43,207.527c1.501-5.918,6.072-21.194-9.503-12.011s-68.57,15.443-79.13,10.691   c-10.559-4.752-26.662-9.767-16.367,8.448c-16.22,4.488-30.622,15.575-43.954,31.678c30.49,25.871,60.321,40.126,107.439,35.374   c56.776-5.726,75.237-48.262,78.404-56.181C264.08,211.27,253.466,207.342,236.43,207.527z"/>
	<path fill="#70310D" d="M159.792,207.824c-5.441-0.08-9.712-0.59-11.994-1.617c-2.432-1.095-5.158-2.2-7.788-3.035   c-5.982,23.572-15.323,46.073-13.176,69.032c9.122,4.086,18.767,7.055,29.309,8.75   C159.317,248.768,157.664,236.187,159.792,207.824z"/>
	<g>
		<path fill="#E88D51" d="M349.867,200.768c-0.746,3.261-3.605,11.818-10.789,20.763c-1.136,6.432,13.784,14.596,13.653,13.147    c-1.457-16.041,5.947-23.402,6.582-26.619C360.679,201.137,350.528,197.879,349.867,200.768z"/>
		<path fill="#F5AB6C" d="M343.941,201.021c-0.329,3.329-2.087,12.178-8.086,21.957c-0.316,6.523-1.867,11.87-4.92,18.509    c6.387,10.214,11.301,21.289,21.953,18.117c7.121-2.312,9.041-5.487,10.968-9.186c3.128-6.005,3.044-16.151,12.906-19.639    c-2.695-7.331-10.607-8.501-15.168-2.713c-0.456,4.089-3.543,9.028-4.193,7.726c-7.458-14.938-3.395-25.456-3.17-28.728    C354.713,200.025,344.232,198.072,343.941,201.021z"/>
	</g>
	<g>
		<path fill="#A15834" d="M164.855,337.737c-6.904-2.124-36.764-6.325-36.764-6.325s-7.923,6.368-7.494,37.767    c5.471,4.703,34.673,10.733,34.673,10.733s6.505-1.724,7.247-4.544c2.022-7.681,5.306-22.876,6.94-31.824    C169.889,341.177,166.23,338.991,164.855,337.737z"/>
		<path fill="#803320" d="M121.545,350.366c-0.057,0.428-0.112,0.865-0.164,1.312c7.887,7.28,27.406,6.073,37.577,4.486    c-1.687,7.248-3.126,14.684-4.016,18.885c-12.335-0.749-27.601-2.72-34.341-10.637c-0.022,1.525-0.027,3.103-0.004,4.767    c5.471,4.703,34.673,10.733,34.673,10.733s6.505-1.724,7.247-4.544c2.022-7.681,5.306-22.876,6.94-31.824    c0.432-2.367-3.227-4.554-4.602-5.808c-1.743,2.721-3.552,8.79-5.183,15.436C155.118,356.064,130.542,359.551,121.545,350.366z"/>
		<path opacity="0.5" fill="#3B1A15" d="M136.34,362.419c0,0,2.008-5.756,3.451-8.798    c-0.115-0.141-7.777-1.506-7.777-1.506s-0.361,2.645-1.17,8.743C131.238,361.057,136.34,362.419,136.34,362.419z"/>
		<path opacity="0.5" fill="#3B1A15" d="M165.087,338.905c-0.975,3.011-2.35,7.992-3.981,14.638    c-4.519,2.868-30.228,6.297-39.63-2.62c-0.022,0.173-0.044,0.344-0.065,0.519c8.034,7.269,29.103,5.628,39.29,4.038    c1.282-3.058,2.722-8.973,4.545-15.332c1.968,1.22,2.652,1.593,3.79,2.424C168.649,341.852,165.283,338.298,165.087,338.905z"/>
		<path fill="#9DC7C4" d="M135.796,361.757c0,0,2.008-5.756,3.451-8.798c-0.115-0.141-7.777-1.506-7.777-1.506    s-0.361,2.645-1.17,8.743C130.694,360.394,135.796,361.757,135.796,361.757z"/>
	</g>
	<g>
		<path fill="#DBE5E6" d="M274.034,274.375c-7.671-42.359-24.73-53.896-52.269-84.739c-13.055-14.621-25.079-54.249-25.079-54.249    s-22.64,4.151-67.279,17.951c8.704,9.835,16.98,28.378,14.741,44.613s-19.266,61.773-11.742,89.491    c4.639,17.091,18.611,38.146,53.193,55.041c16.403,8.014,34.054,24.169,19.271,32.998    C239.843,373.924,281.939,318.024,274.034,274.375z"/>
		<path fill="#CBC8DE" d="M223.943,335.158c-23.843-3.185-80.563-11.805-85.933-62.237c-6-56.358,21.19-67.473,1.342-109.974    c15.476-14.177,28.665-8.86,32.319-6.704c12.997,7.668,22.636,9.692,32.763,1.046c-4.696-11.847-7.748-21.902-7.748-21.902    s-22.64,4.151-67.279,17.951c8.704,9.835,16.98,28.378,14.741,44.613s-19.266,61.773-11.742,89.491    c4.639,17.091,18.611,38.146,53.193,55.041c16.403,8.014,34.054,24.169,19.271,32.998c26.729-1.19,57.617-34.123,67.165-69.069    C257.187,324.945,238.697,337.129,223.943,335.158z"/>
		<path fill="#CBC8DE" d="M191.254,205.433c0.068-0.618-0.687-0.768-1.428-0.462c-2.008,4.495-47.421,80.6-7.244,135.999    c0.989,0.508,1.992,1.013,3.017,1.513c0.002,0.001,0.003,0.002,0.005,0.002C145.321,284.303,186.209,216.309,191.254,205.433z"/>
		<path fill="#CBC8DE" d="M171.671,204.847c-3.88,2.569-36.891,35.131-40.838,73.525c0.15,1.601,0.358,3.164,0.624,4.688    c3.194-35.304,29.984-64.903,41.172-77.058C173.505,205.199,172.772,204.744,171.671,204.847z"/>
		<path fill="#CBC8DE" d="M138.938,168.516c0.186,0.412,0.372,0.824,0.551,1.242c10.831-2.829,21.117-3.247,27.764-3.684    c0.486-0.023,0.53-0.419,0.055-0.795C165.355,164.931,151.719,164.875,138.938,168.516z"/>
		<path fill="#CBC8DE" d="M170.334,178.684c-2.042,0.607-15.98,7.572-26.032,17.681c-0.051,0.529-0.082,1.061-0.155,1.586    c-0.016,0.117-0.04,0.25-0.058,0.37c9.287-9.161,20.025-15.068,26.552-18.902C171.046,179.175,170.941,178.809,170.334,178.684z"/>
		<path fill="#CBC8DE" d="M242.257,211.885c-20.862-13.706-43.039-19.375-46.231-19.583c-0.34,0.55-0.736,1.02-0.257,1.479    c10.675,3.383,30.439,8.125,48.865,20.743C243.856,213.651,243.062,212.771,242.257,211.885z"/>
		<path fill="#CBC8DE" d="M257.97,337.13c1.053-1.609,2.066-3.25,3.043-4.915c19.564-65.858-49.092-122.445-52.503-126.008    c-0.801-0.039-1.461,0.357-1.189,0.916C215.849,215.784,278.838,267.327,257.97,337.13z"/>
		<path fill="#9895AB" d="M184.477,338.359c-15.252-6.652-44.285-27.146-49.237-52.168c-6.985-35.297,4.636-58.964,9.418-83.793    c3.082-16,0.168-28.766-11.005-47.989c-0.994-1.642-2.396-1.642-4.246-1.072c8.704,9.835,16.98,28.378,14.741,44.613    s-19.266,61.773-11.742,89.491c4.639,17.091,18.611,38.146,53.193,55.041c16.403,8.014,34.054,24.169,19.271,32.998    c20.511-0.913,43.47-20.518,57.357-45.38c-10.052,15.111-26.342,32.521-47.021,38.671    C215.206,356.728,201.81,345.919,184.477,338.359z"/>
		<path fill="#AEB1BF" d="M225.973,194.283c-4.032,1.603-10.371,0.765-14.068,0.271c-6.547-0.875-29.104-3.432-34.186,2.077    c-3.693,4.004-22.339,12.709-22.286,0.592c-7.815,20.972,15.45,24.648,36.282,13.865c22.085-1.938,26.942,1.988,24.141-7.096    c4.551-0.579,13.657-3.583,13.833-5.671C228.151,196.666,227.589,196.051,225.973,194.283z"/>
	</g>
	<path fill="#F5AB6C" d="M143.309,144.632c1.386,13.265,7.889,23.825,13.758,32.14c5.578,3.412,13.037,6.332,17.293,13.529   c18.033,3.631,14.156,17.135,31.876-6.039c0.957-8.283,2.899-11.912,5.11-18.215c-0.853-4.983-3.318-10.001-5.737-12.872   c1.056-9.051-0.511-17.906-2.904-21.094C191.061,131.345,142.42,136.122,143.309,144.632z"/>
	<g>
		<path fill="#C95E31" d="M179.746,152.941c1.621,5.511-0.939,11.119-5.719,12.525c-4.78,1.406-9.969-1.921-11.59-7.432    s0.939-11.119,5.719-12.525C172.936,144.102,178.125,147.43,179.746,152.941z"/>
		<path fill="#F2F2F2" d="M179.231,153.894c1.371,4.661-0.794,9.404-4.837,10.593s-8.431-1.625-9.803-6.286    c-1.371-4.661,0.794-9.404,4.837-10.593C173.471,146.418,177.86,149.233,179.231,153.894z"/>
		<path fill="#1F315C" d="M178.472,153.317c1.382,2.692,0.61,5.846-1.725,7.045s-5.348-0.012-6.73-2.704    c-1.382-2.692-0.61-5.846,1.725-7.045C174.077,149.414,177.09,150.625,178.472,153.317z"/>
		<path fill="#EB834B" d="M180.229,156.047c-2.107,1.8-7.353,5.051-16.557,4.791c2.49,5.605,6.209,8.852,10.689,7.816    C179.653,167.43,180.993,160.207,180.229,156.047z"/>
	</g>
	<g>
		<path fill="#C95E31" d="M203.941,150.851c0.006,4.818-3.377,8.728-7.556,8.733s-7.571-3.897-7.576-8.715    c-0.006-4.818,3.377-8.728,7.556-8.733S203.935,146.033,203.941,150.851z"/>
		<path fill="#F2F2F2" d="M203.301,151.496c0.005,4.075-2.856,7.382-6.391,7.386s-6.403-3.296-6.408-7.371s2.856-7.382,6.391-7.386    S203.297,147.421,203.301,151.496z"/>
		<path fill="#1F315C" d="M202.891,151.161c0.478,2.493-0.888,4.849-3.049,5.264c-2.162,0.414-4.302-1.271-4.779-3.763    c-0.478-2.493,0.888-4.849,3.049-5.264C200.274,146.983,202.414,148.668,202.891,151.161z"/>
		<path fill="#EB834B" d="M203.687,153.093c-2.895,1.637-7.845,2.395-14.238,1.286c0,3.717,1.99,9.195,7.452,9.459    C201.453,164.057,203.687,160.339,203.687,153.093z"/>
	</g>
	<path fill="#E27844" d="M182.676,208.517c5.182-5.113,25.937-13.815,28.907-10.251s4.362,7.76-5.149,8.865   C198.09,208.101,193.071,210.2,182.676,208.517z"/>
	<g>
		<path fill="#BCCAD1" d="M227.475,178.919c1.8,10.089-5.665,6.273-11.669-0.503c-15.194-17.145-45.154-5.586-48.777,10.937    c-1.983,9.045-11.101,14.599-11.084,3.595c-12.377,26.584,24.894,29.823,47.16,8.016    C222.155,208.257,240.855,193.558,227.475,178.919z"/>
		<path fill="#ADB2C4" d="M172.6,179.638c11.277,26.068,49.539,12.685,33.331-8.01C194.407,167.34,180.384,171.697,172.6,179.638z"/>
		<path fill="#ADB2C4" d="M231.162,184.685c-0.115-0.301-0.248-0.603-0.387-0.906c-2.79,11.355-19.809-1.151-24.704-9.966    c-1.22-1.313-0.657,1.689-1.482,1.168C216.688,192.753,229.3,193.122,231.162,184.685z"/>
		<path fill="#ADB2C4" d="M218.618,202.335c0.193-0.041,0.382-0.091,0.573-0.136c-7.629-4.194-12.494-13.152-16.95-21.177    c-1.22-1.313-0.657,1.689-1.482,1.168C203.077,187.56,209.842,198.001,218.618,202.335z"/>
		<path fill="#ADB2C4" d="M188.992,182.282c2.884,6.509,8.198,16.056,2.835,27.069c0.545-0.301,1.087-0.618,1.626-0.942    c5.156-8.299,4.539-15.494,1.787-24.529C194.633,182.193,189.546,183.084,188.992,182.282z"/>
		<g>
			<path fill="#ADB2C4" d="M184.502,183.547c0.156-0.849,0.224-0.968,0.244-0.973c-0.01-0.023-0.029-0.107-0.051-0.382     c-7.495-1.373-8.999,1.762-11.269,5.467c-7.165,11.694-16.766,21.57-19.858,13.333c-0.038,0.394-0.06,0.779-0.069,1.157     c3.273,9.993,15.844-0.815,22.567-11.321C178.926,186.356,180.213,184.245,184.502,183.547z"/>
			<path fill="#9FA6BD" d="M184.746,182.575C184.754,182.594,184.755,182.572,184.746,182.575L184.746,182.575z"/>
		</g>
	</g>
	<path fill="#EB673B" d="M182.313,166.837c-3.894-1.584-17.489,10.513,1.518,20.832s27.378-4.105,24.551-11.064   c-2.827-6.959-13.528-26.128-21.515-25.739S181.719,165.385,182.313,166.837z"/>
	<path fill="#CC4B2B" d="M182.313,166.837c-3.894-1.584-17.489,10.513,1.518,20.832s27.378-4.105,24.551-11.064   c1.914,9.54-10.242,17.077-23.693,9.54c-4.967-2.784-6.855-4.704-7.854-6.88c-3.622-7.893,2.97-13.084,5.049-11.863   c1.372,0.806,1.732,1.445,2.425,3.127C184.42,168.972,183.369,167.508,182.313,166.837z"/>
	<path fill="#DBE5E6" d="M155.667,159.4c7.778-5.519,15.511-8.709,25.302-11.778c0.271-6.067-3.689-14.88-9.755-11.67   C164.669,139.415,155.871,152.059,155.667,159.4z"/>
	<path fill="#DBE5E6" d="M207.476,150.618c-3.77-1.59-12.137-3.688-19.978-4.048c-1.468-5.893-0.034-14.006,6.959-11.573   C202.046,137.637,204.422,142.136,207.476,150.618z"/>
	<path fill="#4D5399" d="M134.466,37.454c-20.789,1.584-35.044-8.712-31.876-19.799c3.408-11.927,37.512,0.124,44.335,14.926   c9.313,20.206,22.83,42.867,31.386,55.119s-55.281,29.062-51.873,10.691C129.846,80.02,139.458,59.924,134.466,37.454z"/>
	<path fill="#8C4712" d="M183.261,90.77c3.663,3.168-0.693,6.633-2.97,8.316c2.079,1.584,12.374,13.562,13.265,16.334   c3.861-0.693,6.534,0.792,2.376,7.029c-4.158,6.237-67.019,19.7-73.256,18.413s-11.384-9.899,1.287-8.613   c2.772-6.93,3.267-18.71,4.653-20.987c-3.465-0.495-11.186-6.633,1.881-12.176C143.564,93.541,179.598,87.602,183.261,90.77z"/>
	<polygon fill="#C1D1D6" points="158.203,131.834 164.791,131.443 162.406,91.193 162.406,91.193 162.406,91.193 162.158,87.014    155.57,87.405 132.08,96.018 134.545,137.614 137.839,137.419 135.461,97.289 155.882,92.669  "/>
	
		<rect x="146.392" y="108.901" transform="matrix(0.9894 -0.1449 0.1449 0.9894 -14.3895 23.5267)" fill="#C1D1D6" width="15.86" height="3.3"/>
	<path fill="#4D5399" d="M57.127,187.892c0,0,51.978-54.69,103.955-64.181s106.667,6.78,114.351,10.396   C242.525,129.713,170.399,122.281,57.127,187.892z"/>
	<path fill="#778CC9" d="M170.655,142.148c63.051-17.025,100.654-4.175,106.982-4.476s11.16-7.384-2.204-8.386   c-14.297-1.072-57.682-3.645-104.927,8.498c-56.271,14.463-107.233,41.503-118.2,50.109c-8.232,6.459-1.921,11.96,4.143,6.931   C66.249,186.695,97.003,162.035,170.655,142.148z"/>
</g>
</svg>
