<?xml version="1.0" encoding="UTF-8"?>
<svg xmlns="http://www.w3.org/2000/svg" xmlns:xlink="http://www.w3.org/1999/xlink" version="1.1" id="character" x="0px" y="0px" viewBox="0 0 512 512" xml:space="preserve" width="512" height="512">
<g>
	<polygon fill="none" points="310.927,374.742 77.327,395.341 47.704,190.816 309.944,175.495  "/>
	<ellipse fill="#D5E9ED" cx="178.061" cy="476.012" rx="103.476" ry="20.634"/>
	<ellipse fill="#D5E9ED" cx="373.71" cy="461.181" rx="103.476" ry="30.681"/>
	<path fill="#333466" d="M33.307,247.286c0,0,38.699,16.798,115.981-30.689c50.499-31.03,71.194-57.288,69.893-63.523   C191.861,155.535,108.168,166.346,33.307,247.286z"/>
	<path fill="none" d="M147.832,216.035c50.638-31.018,67.595-53.161,70.611-61.968c3.379-2.023,5.393-4.712,7.309-0.899   c-5.167,11.201-38.025,41.479-75.565,65.105c-44.711,28.139-89.745,39.266-120.76,33.145c-1.552-3.72-0.159-6.989,6.954-6.142   C55.88,247.598,88.679,252.269,147.832,216.035z"/>
	<g>
		<path fill="#C9D7DB" d="M84.996,188.013c-1.971,17.754,17.027,38.885,9.653,56.179s-15.246,10.391-14.128,1.342    c-7.922,8.147-8.316,29.03,24.901,24.463s19.786-51.576,14.88-61.142C106.134,181.23,84.996,188.013,84.996,188.013z"/>
		<path fill="#A5B6C9" d="M92.877,187.359c-3.336,0.985-6.076,1.879-8.007,2.537c-0.22,7.115,2.577,14.719,5.469,22.365    c4.025,8.519,10.531,10.418,17.926,11.589c1.587,4.933,2.303,4.63,1.292,9.207c-11.192,0.433-9.596,5.898-5.054,13.426    c-8.123,2.091-15.965,11.344-27.075,15.803c2.959,5.794,11.15,10.026,27.995,7.71c33.217-4.566,19.786-51.576,14.88-61.142    C111.619,191.925,100.326,187.924,92.877,187.359z"/>
	</g>
	<g>
		<path fill="#F5AB6C" d="M63.022,431.77c-0.398,6.201,9.603,5.814,10.287,2.634c1.642-7.638,1.553-11.252,2.957-13.865    c3.152-5.866,6.692-7.969,6.087-5.795c-2.364,8.49-0.628,12.557,6.813,12.492c1.002-10.453,7.194-16.341,2.012-25.16    c-5.039-18.448-30.156-24.511-36.724-11.662c-2.166,4.238-3.271,6.477-4.26,11.042c0.116,10.182-4.733,18.339,4.446,21.456    C53.675,428.311,57.757,433.148,63.022,431.77z"/>
		<path fill="#E88D51" d="M65.272,415.571c-1.173,3.43-2.989,12.771-3.63,16.407c0.45-0.028,0.908-0.085,1.38-0.209    C63.577,428.162,65.309,417.605,65.272,415.571z"/>
		<path fill="#E88D51" d="M54.64,422.913L54.64,422.913c0.848-4.224,1.544-9.616,1.988-13.052    c-1.086,2.377-2.035,8.544-3.409,12.473C53.652,422.542,54.12,422.736,54.64,422.913z"/>
		<path fill="#E88D51" d="M91.177,402.076c-5.039-18.448-30.156-24.511-36.724-11.662c-2.164,4.233-3.268,6.473-4.256,11.027    c17.695,13.469,35.418,7.055,42.814,5.396C92.734,405.321,92.162,403.752,91.177,402.076z"/>
		<path fill="#554594" d="M85.062,267.783c-14.785,49.98-33.461,54.498-35.633,68.191c-2.171,13.694,22.263,22.272,35.606,23.301    c26.169,2.018,25.831,1.346,38.216-8.63c2.693-20.813-3.152-37.848-2.432-73.782C121.29,253.352,85.062,267.783,85.062,267.783z"/>
		<path fill="#433380" d="M85.062,267.783c-2.084,7.044-4.245,13.184-6.426,18.574c7.754,7.075,22.03,14.951,27.255,16.583    c2.809,15.137,1.453,40.898-8.221,41.528c-25.883-16.394-46.348-2.112-47.662-10.913c-0.251,0.781-0.447,1.583-0.579,2.42    c-2.171,13.694,22.263,22.272,35.606,23.301c26.169,2.018,25.831,1.346,38.216-8.63c2.693-20.813-3.152-37.848-2.432-73.782    C121.29,253.352,85.062,267.783,85.062,267.783z"/>
		<path fill="#554594" d="M54.904,384.526c-2.854,0.547-9.907,3.795-6.097,10.176c5.469,9.159,29.333,17.172,44.38,10.335    c5.241-6.043,7.264-12.614,0.234-13.869C86.492,389.93,54.904,384.526,54.904,384.526z"/>
		<path fill="#3E2869" d="M93.099,393.38c1.788-15.873,7.531-7.646,14.995-37.557c-18.158-15.818-49.756-14.252-49.756-14.252    c-6.567,17.851,0.889,28.66-4.362,46.614C65.487,400.025,80.982,401.563,93.099,393.38z"/>
		<path fill="#261D54" d="M108.094,355.823c-18.158-15.818-49.756-14.252-49.756-14.252c-0.171,0.466-0.328,0.925-0.481,1.381    c16.028,0.916,34.124,5.48,37.702,11.356c6.637,10.9-2.911,16.914-6.948,33.639c-1.688,6.992-22.848,7.134-34.397-0.63    c-0.079,0.289-0.152,0.575-0.238,0.868c11.511,11.84,27.005,13.379,39.123,5.196C94.887,377.507,100.63,385.735,108.094,355.823z"/>
		<path fill="#261D54" d="M101.791,364.341c-11.289-7.313-22.056-14.285-45.028-17.595c0,0.001-0.001,0.002-0.001,0.003    c-0.127,0.522-0.242,1.039-0.347,1.55c22.73,3.262,33.365,10.148,44.515,17.37c0.817,0.529,1.642,1.064,2.478,1.6l-47.344-17.035    c-0.086,0.539-0.162,1.073-0.227,1.601l48.199,17.343c0.129-0.339,0.26-0.699,0.391-1.061c0.041-0.111,0.081-0.22,0.122-0.333    c0.157-0.441,0.316-0.895,0.475-1.362c0-0.001,0.001-0.002,0.001-0.002C103.932,365.724,102.852,365.028,101.791,364.341z"/>
		<path fill="#261D54" d="M55.457,359.385c0.012,0.915,0.039,1.824,0.075,2.729c12.919,5.509,31.134,10.923,45.367,13.916    c0.309-0.554,0.625-1.153,0.948-1.802L55.457,359.385z"/>
		<g>
			<path fill="#261D54" d="M55.212,382.886c-0.092,0.524-0.195,1.054-0.308,1.589c6.022,2.189,11.263,3.444,16.204,4.084     c7.73,1,14.743,0.497,22.884-0.272c0.154-0.59,0.318-1.135,0.494-1.638C80.992,387.935,70.73,388.554,55.212,382.886z"/>
			<path fill="#261D54" d="M94.762,385.916c0.217-0.542,0.448-1.042,0.694-1.512l-39.776-4.829c-0.055,0.519-0.12,1.043-0.194,1.572     L94.762,385.916z"/>
		</g>
	</g>
	<g>
		<path fill="#822C0F" d="M103.478,470.952c5.214,6.52,23.247,27.591,52.145,19.745c4.459-12.606-2.23-24.868-16.72-42.32    C131.152,439.04,106.519,465.331,103.478,470.952z"/>
		<path fill="#63200B" d="M111.601,472.061c9.252-15.261,26.505-8.717,40.203-5.828c-3.067-5.411-7.426-11.263-12.9-17.857    c-7.751-9.336-32.385,16.955-35.426,22.575c5.214,6.52,23.247,27.591,52.145,19.745    C130.601,491.383,120.623,480.48,111.601,472.061z"/>
	</g>
	<g>
		<path fill="#822C0F" d="M206.895,461.065c6.29,5.489,40.963,28.799,68.682,10.32c-1.554-9.89-11.879-18.908-24.332-26.951    C241.051,437.851,208.888,454.994,206.895,461.065z"/>
		<path fill="#63200B" d="M275.577,471.385c-14.255,4.554-34.341,9.557-56.135-7.256c13.562-11.113,24.508-22.119,49.081-5.797    c-4.44-4.906-10.54-9.546-17.278-13.898c-10.194-6.584-42.357,10.56-44.35,16.631    C213.185,466.554,247.859,489.864,275.577,471.385z"/>
	</g>
	<g>
		<path fill="#F5AB6C" d="M91.819,200.04c-5.28,6.909,1.155,18.677,11.351,21.548c9.068,2.553,9.526-11.186,3.668-16.954    C100.98,198.866,94.094,197.064,91.819,200.04z"/>
		<path fill="#E07950" d="M92.872,202.801c2.319-1.395,7.817,1.165,10.793,6.305c1.353,2.337-3.198,0.867-4.589,4.162    c-0.621,1.473,1.808,5.257-0.606,3.722C92.729,213.337,90.127,204.452,92.872,202.801z"/>
	</g>
	<path fill="#554594" d="M280.127,266.446c-16.845-4.71-27.515-3.538-41.846-15.844c-19.114-16.413-40.859,39.337-40.859,39.337   c5.137,17.435,36.563,17.091,46.372,25.98c9.342,8.465,19.554,5.768,31.213-1.921C289.053,304.735,293.591,270.211,280.127,266.446   z"/>
	<path fill="#433380" d="M288.183,282.238c-4.41,27.289-22.517,46.197-24.105,10.575c-0.7-15.711-30.919-16.492-15.489-35.16   c-3.308-1.7-6.691-3.945-10.307-7.05c-19.114-16.413-40.859,39.337-40.859,39.337c5.137,17.435,36.563,17.091,46.372,25.98   c9.342,8.465,19.554,5.768,31.213-1.921C283.413,308.455,288.407,293.868,288.183,282.238z"/>
	<path fill="#6857AB" d="M148.34,463.996c12.028,5.161,56.837,4.082,68.164-0.018c22.116-17.34,26.613-17.783,48.132-9.928   c5.474-3.516,5.197-9.052-1.261-7.054c-11.379-8.025-22.532-39.468-29.898-56.765c-8.743-20.531,0.496-23.806-10.572-35.916   c-9.392-10.276-77.507-17.552-89.867-7.321s-16.86,20.34-15.69,32.716c2.278,24.098-20.938,60.305-29.122,78.408   c-12.709,1.113,3.77,12.887,15.425,13.626C110.23,472.161,117.247,450.655,148.34,463.996z"/>
	<path fill="#4A458F" d="M263.376,446.996c-0.001-0.001-0.001-0.001-0.002-0.002c-1.151,0.756-2.289,1.38-3.395,1.781   c-36.716-13.171-31.63,12.039-71.593,12.755c-50.188,0.9-39.627-18.799-88.799,0.71c-16.537-2.862,24.784-24.223,22.842-99.095   c-0.042-1.614-0.33-2.705-0.811-3.376c-3.668,6.189-4.956,12.672-4.269,19.941c2.278,24.098-20.938,60.305-29.122,78.408   c-12.709,1.113,3.77,12.887,15.425,13.626c6.577,0.417,13.595-21.089,44.688-7.748c12.028,5.161,56.837,4.082,68.164-0.018   c22.116-17.34,26.613-17.783,48.132-9.928C270.11,450.534,269.833,444.998,263.376,446.996z"/>
	<path fill="#4A458F" d="M143.956,436.402c9.033-19.979,8.489-76.668,5.976-103.264c35.967-15.496,44.113-9.212,55.624-4.299   c6.525,18.202,10.127,82.261,19.937,100.821C201.591,450.956,167.872,447.838,143.956,436.402z"/>
	<path fill="#46C2E3" d="M148.42,434.162c8.184-18.102,7.244-72.122,4.966-96.22c32.588-14.04,45.706-11.767,56.136-7.316   c5.912,16.492,7.67,78.404,16.559,95.221C204.425,445.142,170.089,444.524,148.42,434.162z"/>
	<path fill="#95EDEC" d="M162.87,428.295c5.524-12.219,4.889-48.681,3.352-64.946c21.996-9.477,30.851-7.943,37.89-4.938   c3.99,11.132,5.177,52.921,11.177,64.272C200.672,435.706,177.496,435.289,162.87,428.295z"/>
	<path fill="#4A458F" d="M144.042,393.672c3.357-0.648,6.168-2.941,8.158-4.927c3.202-10.755,7.475-31.288,5.107-39.792   c-3.278-1.821-7.984-3.877-14.586-5.57c-4.331,0.8-7.715,1.983-9.683,3.612c-12.36,10.231-16.86,20.34-15.69,32.716   c0.289,3.056,0.165,6.308-0.284,9.692C127.12,393.218,137.84,393.365,144.042,393.672z"/>
	<path fill="#2F2C42" d="M140.05,351.111c19.967,3.537,51.437,5.503,75.41,2.814c6.457-1.998,12.021-3.475,11.648,4.001   c-3.362,6.342-11.188,16.596-38.16,17.082c-33.96,0.612-53.519-8.836-66.597-18.401C122.77,341.477,133.846,344.224,140.05,351.111   z"/>
	<path fill="#6857AB" d="M226.407,350.322c-1.898-18.988-12.135-51.848-10.284-73.15s-109.594,18.553-109.594,18.553   c5.66,16.803,14.105,28.905,17.207,58.982c1.293,12.54,18.329,14.177,51.694,16.009   C199.26,372.024,217.491,361.706,226.407,350.322z"/>
	<path fill="#4A458F" d="M208.913,271.194c-16.627-2.281-58.074,9.914-82.84,17.933c2.281,20.42,3.814,40.583,18.715,70.799   c0.798,3.573,2.689,6.526,5.38,8.932c7.014,0.791,15.422,1.316,25.262,1.857c18.667,1.025,33.896-5.085,43.906-13.253   C215.751,330.819,209.219,298.744,208.913,271.194z"/>
	<path fill="#46C2E3" d="M205.245,275.848c-0.018-1.961-0.397-3.587-1.066-4.934c-17.689,0.035-51.177,9.633-73.955,16.881   c2.935,24.091,7.37,54.307,21.677,81.251c6.656,0.689,14.489,1.173,23.532,1.669c16.393,0.9,30.136-3.702,40.02-10.368   C212.535,335.128,205.492,303.012,205.245,275.848z"/>
	<path fill="#95EDEC" d="M205.277,279.643c-0.129-4.378-1.626-7.122-4.052-8.646c-7.5,0.397-17.169,2.141-27.461,4.537   c-12.913,5.916-24.885,14.018-24.885,14.018c2.788,23.849,6.876,53.911,18.775,80.716c2.489,0.152,5.074,0.299,7.777,0.448   c15.991,0.878,29.454-3.482,39.279-9.884C211.922,336.478,206.04,305.642,205.277,279.643z"/>
	<path fill="#318CC4" d="M138.225,352c-1.555,4.663-5.269,8.236-8.392,11.75c5.417,3.179,14.422,4.706,27.072,5.76   c1.16-4.737,2.232-10.796,1.186-11.732C152.02,352.344,138.225,352,138.225,352z"/>
	<path fill="#4A458F" d="M84.9,288.907c-1.095,3.792,32.126,20.145,44.29,23.006c15.945-16.673,25.415-40.852-3.526-42.707   C104.71,267.863,84.9,288.907,84.9,288.907z"/>
	<path fill="#8C4712" d="M245.573,253.241c-9.649-12.062-23.692-19.825-42.286-21.826c0.823-5.49,3.577-19.725-9.684-10.007   c-13.261,9.717-60.643,20.173-70.626,16.829c-9.983-3.344-25.007-6.426-14.044,9.123c-14.27,5.527-26.297,16.861-36.902,32.636   c29.926,20.649,58.204,30.849,100.405,22.289C223.285,291.969,243.423,260.693,245.573,253.241z"/>
	<path fill="#70310D" d="M133.975,238.615c-4.93,0.42-8.84,0.344-10.998-0.379c-2.3-0.77-4.865-1.524-7.321-2.042   c-3.28,21.868-9.697,43.07-5.678,63.649c8.623,2.872,17.618,4.686,27.309,5.266C137.248,275.702,134.615,264.469,133.975,238.615z"/>
	<g>
		<path fill="#4A413D" d="M302.021,449.26c-1.647,0-3.26-0.804-4.231-2.284c-1.53-2.334-0.877-5.466,1.457-6.996    c9.291-6.089,25.51-45.05,19.335-64.69c-0.837-2.662,0.643-5.499,3.305-6.336c2.665-0.835,5.499,0.644,6.336,3.305    c7.454,23.711-9.779,67.222-23.438,76.174C303.932,448.991,302.972,449.26,302.021,449.26z"/>
	</g>
	<g>
		<path fill="#4A413D" d="M439.917,449.26c-0.951,0-1.911-0.268-2.765-0.827c-13.66-8.952-30.893-52.462-23.438-76.174    c0.838-2.662,3.674-4.144,6.336-3.305c2.662,0.838,4.142,3.674,3.305,6.336c-6.176,19.639,10.043,58.6,19.335,64.69    c2.335,1.53,2.987,4.662,1.457,6.996C443.178,448.455,441.564,449.26,439.917,449.26z"/>
	</g>
	<path fill="#473A32" d="M453.511,367.7l-159.571-0.745c0,0-0.269,42.202,17.243,66.884c23.291,32.827,93.769,30.922,118.423,9.789   C455.413,421.507,453.511,367.7,453.511,367.7z"/>
	<path fill="#3C312A" d="M376.122,453.734c-53.635-0.347-70.706-50.008-68.635-86.716l-13.548-0.063c0,0-0.269,42.202,17.243,66.884   c23.291,32.827,93.769,30.922,118.423,9.789c8.113-6.954,13.486-17.04,17.042-27.601   C432.167,442.357,410.133,453.954,376.122,453.734z"/>
	<ellipse fill="#6B5F5A" cx="373.71" cy="367.7" rx="88.923" ry="29.671"/>
	<ellipse fill="#6B5F5A" cx="373.71" cy="369.784" rx="90.186" ry="32.205"/>
	<ellipse fill="#2C221B" cx="373.788" cy="367.507" rx="86.522" ry="27.834"/>
	<path fill="#5FD925" d="M457.727,369.77c0,14.122-37.581,25.571-83.939,25.571s-83.939-11.448-83.939-25.571   c0-6.217,29.567-34.441,35.499-111.49c3.601-46.766,12.904-139.564-93.488-147.96c-40.81-3.22-54.747-80.813,15.859-54.494   c8.604-29.356,57.052-7.875,95.153,17.753c9.87-32.937,59.724-87.346,85.915-19.018c47.17-24.823,66.035,70.195,47.705,128.726   c-9.106,29.078-18.439,75.418-20.752,83.598C440.399,321.137,457.727,362.709,457.727,369.77z"/>
	<path fill="#AEF74F" d="M426.89,55.755c-15.437-56.94-78.198-6.833-83.069,29.356c-55.626-49.979-101.012-42.995-85.22-17.715   c-74.655-41.166-66.445,28.495-25.56,36.98c79.486,16.495,107.057,58.047,92.307,152.314   c3.601-46.766,12.048-136.322-94.343-144.718c-40.776-3.218-70.003-86.248,10.809-63.978   c-10.798-31.886,56.488-12.862,95.785,20.522c20.204-44.034,73.854-84.633,92.834-17.823   c45.524-35.429,56.005,43.856,53.971,86.286c-0.699,14.576-3.226,29.751-7.913,44.717c-9.106,29.078-18.439,75.418-20.752,83.597   C474.419,168.166,498.255,36.775,426.89,55.755z"/>
	<ellipse fill="#AEF74F" cx="326.516" cy="344.012" rx="8.683" ry="8.683"/>
	<circle fill="#AEF74F" cx="362.204" cy="383.736" r="6.862"/>
	<circle fill="#AEF74F" cx="395.355" cy="355.388" r="6.862"/>
	<circle fill="#AEF74F" cx="436.352" cy="375.38" r="6.862"/>
	<circle fill="#AEF74F" cx="331.283" cy="372.808" r="3.913"/>
	<circle fill="#AEF74F" cx="351.62" cy="367.507" r="3.913"/>
	<circle fill="#AEF74F" cx="385.443" cy="331.747" r="3.913"/>
	<circle fill="#AEF74F" cx="428.918" cy="352.901" r="3.913"/>
	<circle fill="#AEF74F" cx="376.882" cy="371.463" r="3.913"/>
	<circle fill="#AEF74F" cx="420.465" cy="373.774" r="3.913"/>
	<circle fill="#AEF74F" cx="338.7" cy="356.191" r="2.256"/>
	<circle fill="#AEF74F" cx="352.477" cy="342.868" r="2.256"/>
	<circle fill="#AEF74F" cx="377.388" cy="389.999" r="2.256"/>
	<circle fill="#AEF74F" cx="374.265" cy="353.935" r="2.256"/>
	<circle fill="#AEF74F" cx="343.35" cy="389.216" r="2.256"/>
	<circle fill="#AEF74F" cx="310.072" cy="376.583" r="2.256"/>
	<circle fill="#AEF74F" cx="407.734" cy="344.012" r="2.256"/>
	<circle fill="#AEF74F" cx="413.038" cy="386.358" r="2.256"/>
	<circle fill="#AEF74F" cx="395.355" cy="383.736" r="2.256"/>
	<circle fill="#AEF74F" cx="414.462" cy="362.25" r="2.256"/>
	<path fill="#FFE626" d="M352.501,444.157c-0.667-2.591-3.817-1.826-6.273-3.587c-1.289-0.924-2.471-2.648-2.046-6.219   c1.561,3.019,4.177,2.724,5.589,3.332C351.183,438.293,353.544,441.211,352.501,444.157z"/>
	<path fill="#FFE626" d="M377.903,441.018c-0.509,0.446-2.086,0.337-3.113,1.097c-0.539,0.399-1.217,1.558-1.015,3.065   c0.662-0.664,2.035-0.751,2.628-1.017S378.356,442.59,377.903,441.018z"/>
	<g>
		<path fill="#E0DEC7" d="M339.193,230.703c-2.917,2.077-9.825,3.744-14.658,3.953c-3.736-1.982-3.627,0.669-2.19,3.028    c1.374,2.181,0.16,4.282,2.86,5.385c2.226,0.909,3.521-2.062,7.415-3.4c2.835-0.974,8.151,0.203,10.801-1.919    c1.334-1.068-1.086-3.964-1.157-6.583C341.975,228.353,340.357,227.579,339.193,230.703z"/>
		<path fill="#B8AF9C" d="M332.709,236.71c6.225-1.911,7.911,0.015,10.39-2.367c-0.394-1.011-0.807-2.115-0.835-3.175    c-0.289-2.815-1.907-3.589-3.071-0.465c-2.917,2.077-9.825,3.744-14.658,3.953c-3.736-1.982-3.627,0.669-2.19,3.028    c0.472,0.749,0.638,1.488,0.763,2.181C327.113,240.775,325.501,238.923,332.709,236.71z"/>
		<path fill="#E0DEC7" d="M322.833,233.462c-0.752-0.02-2.635,0.993-1.414,3.288s2.643,3.626,4.08,2.777    C327.221,238.51,324.699,233.512,322.833,233.462z"/>
		<path fill="#E0DEC7" d="M337.491,229.618c-0.752-0.02-1.81,0.35-1.467,1.08c0.214,1.396,0.971,4.869,2.409,4.02    C340.154,233.702,339.357,229.668,337.491,229.618z"/>
		<path fill="#E0DEC7" d="M326.521,232.751c-0.663-0.034-1.492,1.185-1.177,1.92c0.215,1.396,1.376,3.218,2.627,2.399    C329.469,236.089,328.166,232.836,326.521,232.751z"/>
		<path fill="#E0DEC7" d="M341.902,227.301c-0.583-0.319-3.231,0.467-2.487,3.913c0.272,1.26,0.688,3.236,1.62,3.313    C343.738,234.751,343.348,228.092,341.902,227.301z"/>
		<path fill="#E0DEC7" d="M330.282,230.542c-0.663-0.034-2.442,1.164-2.126,1.899c0.714,2.715,2.061,4.564,3.312,3.745    C332.966,235.205,331.927,230.628,330.282,230.542z"/>
		<path fill="#E0DEC7" d="M334.811,229.728c-0.624-0.228-2.676,0.395-2.591,1.19c-0.116,2.805,0.629,4.968,2.065,4.553    C336.006,234.973,336.359,230.293,334.811,229.728z"/>
	</g>
	<path fill="#75E82D" d="M278.592,165.286c4.512,3.437,8.449-1.67,19.71-2.187c-3.312-3.313-8.486-6.949-15.323-8.018   S273.858,161.681,278.592,165.286z"/>
	<path fill="#75E82D" d="M308.266,275.264c-0.711,3.882,3.697,4.716,7.564,11.539c1.012-3.098,1.639-7.453,0.149-12.031   C314.489,270.194,309.012,271.192,308.266,275.264z"/>
	<path fill="#75E82D" d="M474.196,242.644c-1.205,3.758-5.484,2.413-12.114,6.604c0.57-3.209,2.072-7.345,5.546-10.678   S475.46,238.701,474.196,242.644z"/>
	<path fill="#75E82D" d="M481.991,33.22c0.493,3.674-3.681,4.258-7.617,10.487c-0.81-2.953-1.202-7.068,0.402-11.296   C476.38,28.182,481.475,29.365,481.991,33.22z"/>
	<path fill="#75E82D" d="M345.339,39.348c2.006,4.553-3.157,6.863-5.908,16.36c-2.146-3.504-4.186-8.663-3.695-14.712   S343.235,34.572,345.339,39.348z"/>
	<circle fill="#75E82D" cx="264.345" cy="164.013" r="5.744"/>
	<g>
		<path fill="#6B5F5A" d="M372.795,415.845c-1.885,0-3.786-0.021-5.7-0.061c-32.87-0.699-62.77-7.503-74.402-16.93    c-1.239-1.003-1.429-2.822-0.424-4.061c1.002-1.237,2.821-1.43,4.061-0.424c10.545,8.546,39.695,14.979,70.888,15.642    c36.099,0.763,66.777-5.83,84.184-18.105c1.302-0.919,3.105-0.608,4.024,0.696c0.919,1.303,0.607,3.105-0.696,4.024    C437.283,408.928,407.64,415.845,372.795,415.845z"/>
	</g>
	<g>
		<path fill="#6B5F5A" d="M305.884,479.524c-1.647,0-3.26-0.804-4.231-2.284c-1.53-2.334-0.877-5.466,1.457-6.996    c9.292-6.09,25.511-45.051,19.335-64.69c-0.837-2.662,0.643-5.498,3.305-6.336c2.664-0.832,5.498,0.643,6.336,3.305    c7.455,23.711-9.778,67.222-23.438,76.174C307.795,479.255,306.835,479.524,305.884,479.524z"/>
	</g>
	<g>
		<path fill="#6B5F5A" d="M440.557,479.524c-0.951,0-1.911-0.268-2.765-0.827c-13.659-8.952-30.892-52.462-23.438-76.174    c0.837-2.662,3.675-4.143,6.336-3.305c2.662,0.837,4.142,3.674,3.305,6.336c-6.175,19.64,10.044,58.601,19.335,64.69    c2.335,1.53,2.987,4.662,1.457,6.996C443.818,478.719,442.204,479.524,440.557,479.524z"/>
	</g>
	<g>
		<path fill="#A15834" d="M151.689,350.424c-6.904-2.124-36.764-6.325-36.764-6.325s-7.923,6.368-7.494,37.767    c5.471,4.703,34.673,10.733,34.673,10.733s6.505-1.724,7.247-4.544c2.022-7.681,5.306-22.876,6.94-31.824    C156.723,353.865,153.063,351.678,151.689,350.424z"/>
		<path fill="#803320" d="M108.378,363.054c-0.057,0.428-0.112,0.865-0.164,1.312c7.887,7.28,27.406,6.073,37.577,4.486    c-1.687,7.248-3.126,14.684-4.016,18.885c-12.335-0.749-27.601-2.72-34.341-10.637c-0.022,1.525-0.027,3.103-0.004,4.767    c5.471,4.703,34.673,10.733,34.673,10.733s6.505-1.724,7.247-4.544c2.022-7.681,5.306-22.876,6.94-31.824    c0.432-2.367-3.227-4.554-4.602-5.808c-1.743,2.721-3.552,8.79-5.183,15.436C141.951,368.751,117.376,372.238,108.378,363.054z"/>
		<path opacity="0.5" fill="#3B1A15" d="M123.173,375.107c0,0,2.008-5.756,3.451-8.798    c-0.115-0.141-7.777-1.506-7.777-1.506s-0.361,2.645-1.17,8.743C118.071,373.744,123.173,375.107,123.173,375.107z"/>
		<path opacity="0.5" fill="#3B1A15" d="M151.92,351.592c-0.975,3.011-2.35,7.992-3.981,14.638    c-4.519,2.868-30.228,6.297-39.63-2.62c-0.022,0.173-0.044,0.344-0.065,0.519c8.034,7.269,29.103,5.628,39.29,4.038    c1.282-3.058,2.722-8.973,4.545-15.332c1.968,1.22,2.652,1.594,3.79,2.424C155.483,354.539,152.117,350.985,151.92,351.592z"/>
		<path fill="#9DC7C4" d="M122.63,374.444c0,0,2.008-5.756,3.451-8.798c-0.115-0.141-7.777-1.506-7.777-1.506    s-0.361,2.645-1.17,8.743C117.527,373.081,122.63,374.444,122.63,374.444z"/>
	</g>
	<g>
		<path fill="#E0DEC7" d="M435.917,209.888c-20.972-14.754-32.506-8.256-37.983,7.561c-11.019,5.726-8.24,13.024-3.411,15.535    c7.158-0.623,7.355,1.697,0.816,7.218c0.303,6.096,8.476,10.758,15.529,11.717c2.259-6.181,5.723-9.053,7.719-1.141    c11.52,6.197,16.418,4.387,21.751-4.706C448.842,231.571,448.363,218.644,435.917,209.888z"/>
		<path fill="#B8AF9C" d="M441.509,243.967c0.218-0.411,0.429-0.82,0.632-1.228c0.073-0.147,0.148-0.293,0.219-0.439    c0.264-0.544,0.519-1.085,0.756-1.623c0.002-0.004,0.004-0.008,0.005-0.013c0.235-0.534,0.452-1.064,0.66-1.592    c0.05-0.127,0.097-0.253,0.146-0.38c0.168-0.44,0.327-0.879,0.476-1.315c0.034-0.1,0.07-0.201,0.104-0.302    c0.359-1.082,0.657-2.15,0.895-3.203c0.018-0.082,0.036-0.163,0.053-0.244c0.106-0.486,0.2-0.97,0.279-1.45    c0.006-0.039,0.014-0.078,0.02-0.117c0.172-1.074,0.278-2.131,0.315-3.171c0.001-0.037,0.002-0.075,0.003-0.112    c0.049-1.577-0.057-3.113-0.328-4.602c-0.001-0.008-0.003-0.015-0.004-0.023c-0.276-1.508-0.719-2.969-1.335-4.377l0,0    c4.386,10.376-6.781,41.096-24.176,29.891c-2.216-1.427-3.211-7.537-6.824-5.09c-2.786,1.887-1.1,7.133-9.908,0.646    c-8.488-6.252-4.096-5.836-2.575-8.756c0.813-1.561,1.021-4.288-3.876-4.696c-4.931-0.411-8.647-6.862,0.888-14.32    c-11.019,5.726-8.24,13.024-3.411,15.535c7.071-0.616,7.337,1.647,1.038,7.025c-0.023,0.02-0.045,0.04-0.068,0.059    c-0.054,0.046-0.099,0.088-0.154,0.134c0.303,6.096,8.476,10.758,15.529,11.717c2.259-6.181,5.723-9.053,7.719-1.141    c11.52,6.197,16.418,4.387,21.751-4.706c0.321-0.548,0.625-1.092,0.92-1.635C441.343,244.28,441.426,244.124,441.509,243.967z"/>
		<path fill="#B8AF9C" d="M429.227,222.63c4.826,3.472,6.695,9.4,1.494,16.629c0.287,2.52,0.463,4.33,2.13,6.655    c-2.216-1.369-3.135-3.783-3.458-6.529c6.49-6.949,1.529-13.901-1.012-15.436c-3.681-2.223-9.483-1.819-11.681,0.792    C418.525,221.694,424.401,219.159,429.227,222.63z"/>
		<path fill="#B8AF9C" d="M410.344,216.147c4.625,0.757,9.251,4.336,3.722,9.581c5.116-5.478-1.572-8.311-3.881-8.694    c-3.01-0.499-7.724,0.5-9.457,2.558C402.981,216.3,408.245,215.803,410.344,216.147z"/>
		<path fill="#E0DEC7" d="M394.958,243.882c-0.7-0.214-2.059-1.99-1.518-2.558c0.629-1.22,3.217-2.156,4.28-0.929    C398.994,241.865,396.694,244.412,394.958,243.882z"/>
		<path fill="#E0DEC7" d="M405.713,253.237c-0.7-0.214-1.56-0.882-1.019-1.449c0.629-1.22,2.4-4.189,3.463-2.962    C409.431,250.295,407.449,253.767,405.713,253.237z"/>
		<path fill="#E0DEC7" d="M396.568,246.958c-0.622-0.173-1.009-1.554-0.491-2.134c0.63-1.22,2.263-2.542,3.163-1.4    C400.318,244.792,398.112,247.388,396.568,246.958z"/>
		<path fill="#E0DEC7" d="M409.625,254.15c-0.636,0.114-1.584-0.962-1.369-1.709c0.038-1.372,0.936-3.272,2.242-2.634    C412.063,250.571,411.202,253.867,409.625,254.15z"/>
		<path fill="#E0DEC7" d="M399.353,250.156c-0.622-0.173-1.891-1.828-1.373-2.408c1.497-2.283,3.311-3.571,4.211-2.429    C403.269,246.688,400.896,250.586,399.353,250.156z"/>
		<path fill="#E0DEC7" d="M403.277,252.307c-0.646,0.017-2.345-1.192-2.02-1.898c0.761-2.622,2.115-4.386,3.311-3.559    C406,247.841,404.878,252.264,403.277,252.307z"/>
		
			<ellipse transform="matrix(0.4618 -0.887 0.887 0.4618 19.264 482.0372)" fill="#73675C" cx="406.841" cy="225.145" rx="6.417" ry="5.902"/>
		<path fill="#73675C" d="M409.749,241.22c-1.008,2.691-3.996,2.198-4.172-1.2c-2.233,1.302-3.776-0.28-2.527-1.931    c0.815-1.078,3.865-2.32,5.553-2.108C409.897,237.893,410.1,240.285,409.749,241.22z"/>
		
			<ellipse transform="matrix(0.4618 -0.887 0.887 0.4618 18.8671 499.754)" fill="#73675C" cx="421.242" cy="234.33" rx="7.915" ry="7.279"/>
	</g>
	<g>
		<path fill="#E0DEC7" d="M331.725,155c-33.487,2.153-39.921,18.239-32.535,38.86c-6.541,14.876,2.278,20.039,9.261,18.64    c6.788-6.506,8.893-4.302,6.752,6.692c5.308,5.968,17.467,4.02,25.446-0.786c-2.766-8.156-1.587-13.926,6.936-7.494    c16.83-3.127,20.341-8.99,18.323-22.637C362.689,166.512,351.598,153.723,331.725,155z"/>
		<path fill="#B8AF9C" d="M365.376,185.168c-0.114-0.598-0.235-1.188-0.362-1.771c-0.046-0.209-0.09-0.42-0.137-0.627    c-0.176-0.771-0.361-1.532-0.561-2.275c-0.002-0.006-0.003-0.011-0.005-0.017c-0.198-0.737-0.411-1.456-0.633-2.165    c-0.053-0.17-0.108-0.338-0.163-0.507c-0.19-0.587-0.387-1.165-0.593-1.732c-0.047-0.131-0.093-0.263-0.141-0.393    c-0.521-1.397-1.092-2.731-1.714-4.001c-0.048-0.098-0.097-0.195-0.146-0.293c-0.291-0.583-0.592-1.153-0.905-1.708    c-0.025-0.045-0.05-0.091-0.075-0.136c-0.705-1.236-1.465-2.401-2.279-3.492c-0.029-0.039-0.059-0.078-0.088-0.117    c-1.243-1.648-2.611-3.128-4.109-4.425c-0.008-0.007-0.015-0.013-0.023-0.02c-1.518-1.311-3.168-2.438-4.952-3.369l0,0    c12.983,6.985,26.787,47.471-0.142,50.31c-3.43,0.362-9.456-5.052-11.133,0.405c-1.294,4.209,4.728,8.177-9.575,8.784    c-13.784,0.585-8.963-2.592-9.807-6.818c-0.451-2.258-2.475-5.211-7.804-1.61c-5.366,3.625-14.445,0.093-10.838-15.332    c-6.541,14.876,2.278,20.039,9.261,18.64c6.706-6.427,8.833-4.338,6.82,6.313c-0.007,0.039-0.014,0.078-0.021,0.117    c-0.017,0.091-0.029,0.171-0.047,0.263c5.308,5.968,17.467,4.02,25.446-0.786c-2.766-8.156-1.587-13.926,6.936-7.494    c16.83-3.127,20.341-8.99,18.323-22.637c-0.122-0.822-0.258-1.626-0.402-2.422C365.464,185.623,365.42,185.396,365.376,185.168z"/>
		<path fill="#B8AF9C" d="M335.352,173.481c7.769-0.418,14.537,4.095,15.161,15.734c2.359,2.335,4.024,4.036,7.63,5.039    c-3.383,0.421-6.3-1.287-8.881-3.823c0.92-12.41-9.841-15.431-13.691-14.912c-5.577,0.752-11.163,5.921-11.263,10.388    C323.671,181.303,327.583,173.898,335.352,173.481z"/>
		<path fill="#B8AF9C" d="M310.778,182.355c5.337-3.021,12.991-3.165,11.653,6.719c0.725-9.781-8.419-7.186-11.087-5.683    c-3.48,1.96-7.468,6.844-7.547,10.365C303.395,188.55,308.356,183.726,310.778,182.355z"/>
		<path fill="#E0DEC7" d="M318.305,222.904c-2.101,3.237-4.435,3.88-4.117-1.01c0.204-3.141,1.513-4.837,3.603-4.457    C320.294,217.891,319.034,221.779,318.305,222.904z"/>
		<path fill="#E0DEC7" d="M336.785,222.764c-0.904,0.315-1.908,0.14-2.626-0.318c-0.359-1.761-0.901-5.35,1.189-4.971    C337.852,217.929,338.448,222.185,336.785,222.764z"/>
		<path fill="#E0DEC7" d="M322.5,224.269c-0.753,0.175-1.54-0.018-3.098-0.858c-0.358-1.761,0.568-4.559,2.423-4.132    C324.046,219.79,323.533,222.606,322.5,224.269z"/>
		<path fill="#E0DEC7" d="M341.688,223.377c-0.555,0.638-2.46-0.732-3.274-2.296c-0.814-1.564-1.729-4.104,0.127-4.525    C340.763,216.052,343.064,221.795,341.688,223.377z"/>
		<path fill="#E0DEC7" d="M327.857,224.952c-0.701,0.473-1.856,0.183-3.791-0.434c-0.345-3.556,0.467-6.152,2.321-5.725    C328.609,219.304,328.61,224.444,327.857,224.952z"/>
		<path fill="#E0DEC7" d="M333.214,223.902c-0.712,0.456-3.498,1.285-3.746,0.298c-1.375-3.298-1.299-5.658,0.599-5.795    C332.34,218.239,334.089,223.342,333.214,223.902z"/>
		
			<ellipse transform="matrix(0.9806 -0.196 0.196 0.9806 -32.0036 65.4228)" fill="#73675C" cx="314.549" cy="194.411" rx="7.723" ry="8.398"/>
		<path fill="#73675C" d="M330.734,208.413c1.179,3.572-2.273,5.518-5.238,2.198c-1.21,3.159-4.08,2.811-4.161,0.103    c-0.053-1.767,2.039-5.535,3.935-6.704C328.157,204.898,330.325,207.172,330.734,208.413z"/>
		
			<ellipse transform="matrix(0.9806 -0.196 0.196 0.9806 -31.0942 69.7302)" fill="#73675C" cx="336.768" cy="191.97" rx="9.526" ry="10.358"/>
	</g>
	<g>
		<path fill="#E0DEC7" d="M451.562,126.868c3.58-0.075,10.118-2.861,14.12-5.578c1.815-3.82,3.309-1.628,3.564,1.122    c0.199,2.57,2.428,3.531,0.92,6.028c-1.243,2.058-4.056,0.447-7.978,1.698c-2.856,0.911-6.418,5.029-9.811,4.908    c-1.708-0.061-1.495-3.829-3.001-5.972C447.928,126.644,448.764,125.058,451.562,126.868z"/>
		<path fill="#B8AF9C" d="M460.35,127.817c-6.135,2.182-6.338,4.735-9.749,4.303c-0.288-1.046-0.615-2.178-1.225-3.046    c-1.449-2.431-0.612-4.017,2.186-2.206c3.58-0.075,10.118-2.861,14.12-5.578c1.815-3.82,3.309-1.628,3.564,1.122    c0.069,0.883,0.376,1.575,0.69,2.205C467.266,127.738,467.454,125.29,460.35,127.817z"/>
		<path fill="#E0DEC7" d="M466.335,119.316c0.591-0.465,2.707-0.777,3.097,1.794c0.39,2.57,0.044,4.487-1.616,4.664    C465.828,125.985,464.868,120.47,466.335,119.316z"/>
		<path fill="#E0DEC7" d="M452.28,124.982c0.591-0.465,1.66-0.8,1.822-0.009c0.661,1.248,2.127,4.486,0.468,4.663    C452.581,129.848,450.813,126.136,452.28,124.982z"/>
		<path fill="#E0DEC7" d="M462.951,120.947c0.512-0.424,1.905,0.06,2.09,0.838c0.66,1.248,0.818,3.403-0.675,3.493    C462.578,125.385,461.682,121.998,462.951,120.947z"/>
		<path fill="#E0DEC7" d="M447.358,125.757c0.277-0.604,2.87-1.554,4.331,1.654c0.534,1.173,1.379,3.007,0.678,3.625    C450.332,132.829,446.67,127.254,447.358,125.757z"/>
		<path fill="#E0DEC7" d="M458.616,121.42c0.512-0.424,2.654-0.524,2.84,0.254c1.048,2.605,1.071,4.892-0.422,4.982    C459.245,126.763,457.347,122.471,458.616,121.42z"/>
		<path fill="#E0DEC7" d="M454.496,123.47c0.365-0.555,2.383-1.281,2.789-0.591c1.767,2.182,2.461,4.361,1.061,4.886    C456.668,128.393,453.592,124.848,454.496,123.47z"/>
	</g>
	<g>
		<path fill="#E0DEC7" d="M412.364,61.676c28.151-18.263,42.916-9.198,49.3,11.755c14.128,8.03,10.135,17.437,3.697,20.483    c-9.33-1.167-9.702,1.857-1.422,9.4c-0.696,7.957-11.613,13.652-20.885,14.559c-2.65-8.195-7.039-12.12-10.038-1.872    c-15.369,7.538-21.686,4.93-28.213-7.223C394.394,89.395,395.657,72.514,412.364,61.676z"/>
		<path fill="#B8AF9C" d="M403.374,105.966c-0.265-0.548-0.521-1.093-0.766-1.637c-0.088-0.195-0.179-0.391-0.264-0.585    c-0.319-0.724-0.625-1.445-0.908-2.16c-0.002-0.006-0.004-0.011-0.006-0.017c-0.281-0.71-0.539-1.414-0.785-2.115    c-0.059-0.168-0.115-0.336-0.172-0.504c-0.198-0.584-0.385-1.165-0.558-1.743c-0.04-0.133-0.082-0.267-0.121-0.399    c-0.416-1.432-0.754-2.844-1.013-4.233c-0.02-0.108-0.039-0.215-0.058-0.322c-0.114-0.641-0.213-1.279-0.293-1.91    c-0.007-0.051-0.014-0.103-0.021-0.154c-0.173-1.413-0.258-2.801-0.256-4.162c0-0.049,0.001-0.098,0.001-0.147    c0.013-2.064,0.228-4.068,0.655-6.003c0.002-0.01,0.004-0.02,0.007-0.03c0.435-1.958,1.086-3.847,1.962-5.658l0,0    c-6.246,13.354,6.847,54.076,30.146,40.278c2.968-1.757,4.57-9.698,9.174-6.321c3.55,2.605,1.088,9.382,12.925,1.331    c11.408-7.759,5.643-7.43,3.798-11.324c-0.986-2.081-1.125-5.658,5.3-5.95c6.469-0.294,11.645-8.548-0.457-18.77    c14.128,8.03,10.135,17.437,3.697,20.483c-9.217-1.153-9.676,1.793-1.704,9.136c0.029,0.027,0.057,0.054,0.086,0.081    c0.068,0.063,0.125,0.119,0.195,0.183c-0.696,7.957-11.613,13.652-20.885,14.559c-2.65-8.195-7.039-12.12-10.038-1.872    c-15.369,7.538-21.686,4.93-28.213-7.223c-0.393-0.732-0.764-1.459-1.123-2.183C403.575,106.384,403.475,106.176,403.374,105.966z    "/>
		<path fill="#B8AF9C" d="M420.485,78.668c-6.482,4.303-9.218,11.963-2.771,21.673c-0.499,3.282-0.819,5.64-3.113,8.598    c2.965-1.682,4.286-4.793,4.843-8.369c-8.146-9.407-1.316-18.254,2.083-20.137c4.923-2.726,12.49-1.913,15.237,1.611    C434.527,77.97,426.967,74.365,420.485,78.668z"/>
		<path fill="#B8AF9C" d="M445.498,71.118c-6.085,0.762-12.312,5.216-5.338,12.347c-6.421-7.415,2.465-10.791,5.503-11.178    c3.961-0.505,10.077,1.033,12.242,3.811C455.119,71.68,448.26,70.772,445.498,71.118z"/>
		<path fill="#E0DEC7" d="M463.665,108.142c3.618,1.343,5.874,0.466,2.7-3.268c-2.039-2.398-4.101-2.977-5.551-1.425    C459.077,105.308,462.408,107.676,463.665,108.142z"/>
		<path fill="#E0DEC7" d="M448.755,119.062c0.913-0.287,1.614-1.027,1.917-1.823c-0.763-1.627-2.471-4.83-3.922-3.278    C445.013,115.82,447.075,119.59,448.755,119.062z"/>
		<path fill="#E0DEC7" d="M461.114,111.742c0.708-0.309,1.225-0.934,1.974-2.538c-0.763-1.627-3.177-3.318-4.41-1.869    C457.2,109.071,459.293,111.025,461.114,111.742z"/>
		<path fill="#E0DEC7" d="M445.187,122.48c0.826,0.18,1.537-2.055,1.256-3.797c-0.28-1.741-1.063-4.325-2.803-3.555    C441.557,116.051,443.139,122.033,445.187,122.48z"/>
		<path fill="#E0DEC7" d="M457.224,115.488c0.844-0.039,1.598-0.961,2.782-2.611c-1.846-3.059-4.047-4.657-5.28-3.208    C453.249,111.405,456.317,115.53,457.224,115.488z"/>
		<path fill="#E0DEC7" d="M452.299,117.843c0.843-0.059,3.573-1.057,3.183-1.998c-0.866-3.466-2.336-5.314-3.94-4.292    C449.62,112.779,451.263,117.916,452.299,117.843z"/>
		
			<ellipse transform="matrix(0.9037 -0.4281 0.4281 0.9037 7.7425 200.4926)" fill="#73675C" cx="449.646" cy="83.032" rx="7.723" ry="8.398"/>
		<path fill="#73675C" d="M445.043,103.936c1.186,3.569,5.118,3.071,5.515-1.364c2.856,1.812,4.951-0.181,3.4-2.401    c-1.013-1.449-4.94-3.224-7.159-3.03C445.013,99.578,444.631,102.696,445.043,103.936z"/>
		
			<ellipse transform="matrix(0.9037 -0.4281 0.4281 0.9037 1.0469 193.326)" fill="#73675C" cx="430.364" cy="94.335" rx="9.526" ry="10.358"/>
	</g>
	<g>
		<path fill="#E0DEC7" d="M361.277,284.69c-13.723-9.654-21.27-5.402-24.853,4.947c-7.21,3.747-5.392,8.522-2.232,10.165    c4.684-0.408,4.813,1.11,0.534,4.723c0.198,3.989,5.546,7.039,10.161,7.667c1.478-4.045,3.745-5.923,5.051-0.747    c7.538,4.055,10.743,2.871,14.232-3.079C369.735,298.878,369.421,290.419,361.277,284.69z"/>
		<path fill="#B8AF9C" d="M364.937,306.989c0.143-0.269,0.281-0.537,0.414-0.803c0.048-0.096,0.097-0.192,0.143-0.288    c0.173-0.356,0.339-0.71,0.494-1.062c0.001-0.003,0.002-0.005,0.004-0.008c0.154-0.349,0.296-0.696,0.432-1.042    c0.033-0.083,0.064-0.166,0.095-0.249c0.11-0.288,0.214-0.575,0.311-0.861c0.022-0.066,0.046-0.132,0.068-0.197    c0.235-0.708,0.43-1.407,0.586-2.096c0.012-0.053,0.023-0.107,0.035-0.16c0.069-0.318,0.131-0.635,0.182-0.949    c0.004-0.025,0.009-0.051,0.013-0.076c0.113-0.703,0.182-1.395,0.206-2.075c0.001-0.025,0.001-0.049,0.002-0.073    c0.032-1.032-0.037-2.037-0.215-3.012c-0.001-0.005-0.002-0.01-0.003-0.015c-0.181-0.987-0.471-1.942-0.874-2.864l0,0    c2.87,6.79-4.437,26.89-15.819,19.558c-1.45-0.934-2.101-4.931-4.465-3.331c-1.823,1.235-0.72,4.667-6.483,0.422    c-5.554-4.091-2.68-3.818-1.685-5.73c0.532-1.021,0.668-2.806-2.536-3.073c-3.227-0.269-5.658-4.49,0.581-9.37    c-7.21,3.747-5.392,8.522-2.232,10.165c4.627-0.403,4.801,1.078,0.68,4.597c-0.015,0.013-0.03,0.026-0.045,0.039    c-0.035,0.03-0.065,0.057-0.101,0.088c0.198,3.989,5.546,7.039,10.161,7.667c1.478-4.045,3.745-5.923,5.051-0.747    c7.538,4.055,10.743,2.871,14.232-3.079c0.21-0.358,0.409-0.715,0.602-1.07C364.828,307.194,364.882,307.091,364.937,306.989z"/>
		<path fill="#B8AF9C" d="M356.9,293.027c3.158,2.272,4.381,6.151,0.977,10.881c0.188,1.649,0.303,2.833,1.394,4.354    c-1.45-0.896-2.052-2.475-2.263-4.272c4.247-4.547,1.001-9.096-0.662-10.1c-2.409-1.455-6.205-1.191-7.644,0.518    C349.897,292.415,353.742,290.756,356.9,293.027z"/>
		<path fill="#B8AF9C" d="M344.544,288.785c3.026,0.495,6.053,2.837,2.435,6.269c3.347-3.584-1.029-5.438-2.539-5.688    c-1.97-0.327-5.054,0.327-6.188,1.674C339.726,288.885,343.171,288.56,344.544,288.785z"/>
		<path fill="#E0DEC7" d="M334.477,306.933c-0.458-0.14-1.347-1.302-0.993-1.673c0.412-0.799,2.105-1.41,2.8-0.608    C337.117,305.613,335.613,307.28,334.477,306.933z"/>
		<path fill="#E0DEC7" d="M341.514,313.054c-0.458-0.14-1.021-0.577-0.666-0.948c0.412-0.799,1.57-2.741,2.266-1.938    C343.947,311.129,342.65,313.401,341.514,313.054z"/>
		<path fill="#E0DEC7" d="M335.53,308.946c-0.407-0.113-0.66-1.017-0.322-1.396c0.412-0.798,1.481-1.663,2.07-0.916    C337.984,307.529,336.54,309.227,335.53,308.946z"/>
		<path fill="#E0DEC7" d="M344.074,313.652c-0.416,0.075-1.036-0.629-0.896-1.118c0.025-0.898,0.612-2.141,1.467-1.723    C345.669,311.31,345.106,313.467,344.074,313.652z"/>
		<path fill="#E0DEC7" d="M337.352,311.039c-0.407-0.113-1.238-1.196-0.899-1.576c0.98-1.494,2.166-2.336,2.755-1.589    C339.915,308.769,338.362,311.32,337.352,311.039z"/>
		<path fill="#E0DEC7" d="M339.92,312.446c-0.422,0.011-1.534-0.78-1.322-1.242c0.498-1.716,1.384-2.87,2.167-2.329    C341.702,309.523,340.968,312.418,339.92,312.446z"/>
		
			<ellipse transform="matrix(0.4618 -0.887 0.887 0.4618 -77.1747 462.1743)" fill="#73675C" cx="342.254" cy="294.681" rx="4.199" ry="3.862"/>
		<path fill="#73675C" d="M344.155,305.191c-0.66,1.761-2.615,1.438-2.73-0.785c-1.461,0.852-2.47-0.183-1.654-1.264    c0.533-0.705,2.529-1.518,3.634-1.379C344.252,303.014,344.384,304.579,344.155,305.191z"/>
		
			<ellipse transform="matrix(0.4618 -0.887 0.887 0.4618 -77.4338 473.7669)" fill="#73675C" cx="351.677" cy="300.691" rx="5.179" ry="4.763"/>
	</g>
	<g>
		<path fill="#E0DEC7" d="M423.011,302.478c12.175-3.938,16.715,0.863,16.991,9.211c4.408,4.356,2.006,7.425-0.667,7.909    c-3.32-1.354-3.757-0.277-1.455,3.321c-1.044,2.861-5.629,3.877-9.133,3.293c-0.164-3.28-1.392-5.16-3.511-1.683    c-6.406,1.254-8.474-0.332-9.674-5.454C413.649,310.906,415.786,304.815,423.011,302.478z"/>
		<path fill="#B8AF9C" d="M415.315,317.898c-0.043-0.228-0.083-0.454-0.12-0.679c-0.013-0.081-0.027-0.162-0.039-0.242    c-0.046-0.298-0.087-0.594-0.121-0.885c0-0.002,0-0.005-0.001-0.007c-0.033-0.289-0.059-0.574-0.08-0.856    c-0.005-0.068-0.009-0.135-0.013-0.203c-0.015-0.235-0.026-0.467-0.033-0.697c-0.002-0.053-0.004-0.106-0.005-0.159    c-0.011-0.569,0.004-1.122,0.046-1.659c0.003-0.042,0.007-0.083,0.011-0.124c0.021-0.247,0.048-0.492,0.081-0.733    c0.003-0.02,0.005-0.039,0.008-0.059c0.076-0.537,0.182-1.057,0.318-1.558c0.005-0.018,0.01-0.036,0.015-0.054    c0.209-0.759,0.487-1.475,0.836-2.146c0.002-0.003,0.004-0.007,0.005-0.01c0.354-0.678,0.781-1.309,1.283-1.889l0,0    c-3.622,4.299-2.834,20.592,7.113,17.818c1.267-0.353,2.643-3.119,4.004-1.419c1.05,1.311-0.528,3.563,4.628,1.77    c4.969-1.728,2.814-2.177,2.52-3.794c-0.157-0.864,0.146-2.195,2.541-1.666c2.411,0.532,5.135-1.995,1.69-6.957    c4.408,4.356,2.006,7.425-0.667,7.909c-3.28-1.337-3.741-0.298-1.532,3.196c0.008,0.013,0.016,0.026,0.024,0.038    c0.019,0.03,0.034,0.056,0.054,0.087c-1.044,2.861-5.629,3.877-9.133,3.293c-0.164-3.28-1.392-5.16-3.511-1.683    c-6.406,1.254-8.474-0.332-9.674-5.454c-0.072-0.308-0.137-0.613-0.197-0.915C415.347,318.072,415.331,317.985,415.315,317.898z"/>
		<path fill="#B8AF9C" d="M424.319,309.54c-2.813,0.943-4.579,3.493-3.167,7.707c-0.509,1.159-0.86,1.996-1.998,2.858    c1.258-0.326,2.053-1.341,2.612-2.602c-2.068-4.271,1.323-6.853,2.761-7.209c2.083-0.516,4.789,0.532,5.452,2.102    C429.559,310.673,427.132,308.597,424.319,309.54z"/>
		<path fill="#B8AF9C" d="M434.278,309.236c-2.316-0.322-5.05,0.702-3.189,4.018c-1.63-3.366,1.976-3.73,3.133-3.572    c1.509,0.206,3.608,1.378,4.131,2.616C437.765,310.396,435.329,309.382,434.278,309.236z"/>
		<path fill="#E0DEC7" d="M437.519,324.729c0.365,0.001,1.275-0.645,1.101-0.995c-0.12-0.675-1.215-1.502-1.903-1.075    C435.893,323.172,436.613,324.725,437.519,324.729z"/>
		<path fill="#E0DEC7" d="M431.011,327.601c0.365,0.001,0.874-0.19,0.7-0.541c-0.12-0.675-0.526-2.351-1.214-1.923    C429.673,325.65,430.105,327.597,431.011,327.601z"/>
		<path fill="#E0DEC7" d="M436.297,325.958c0.322,0.009,0.711-0.592,0.549-0.945c-0.12-0.675-0.704-1.546-1.301-1.134    C434.829,324.372,435.498,325.935,436.297,325.958z"/>
		<path fill="#E0DEC7" d="M429.011,327.459c0.286,0.148,0.897-0.225,0.905-0.613c0.185-0.66,0.037-1.698-0.68-1.587    C428.377,325.393,428.301,327.091,429.011,327.459z"/>
		<path fill="#E0DEC7" d="M434.497,327.071c0.322,0.009,1.172-0.592,1.01-0.945c-0.377-1.309-1.051-2.191-1.649-1.779    C433.143,324.84,433.698,327.048,434.497,327.071z"/>
		<path fill="#E0DEC7" d="M432.309,327.517c0.305,0.104,1.294-0.222,1.243-0.607c0.024-1.362-0.361-2.403-1.053-2.185    C431.67,324.986,431.552,327.261,432.309,327.517z"/>
		
			<ellipse transform="matrix(0.9839 -0.1787 0.1787 0.9839 -49.1248 82.7226)" fill="#73675C" cx="434.624" cy="314.049" rx="2.945" ry="3.202"/>
		<path fill="#73675C" d="M430.86,321.277c0.083,1.432,1.581,1.637,2.166,0.044c0.872,0.95,1.841,0.424,1.49-0.548    c-0.229-0.634-1.5-1.676-2.336-1.825C431.281,319.669,430.831,320.779,430.86,321.277z"/>
		
			<ellipse transform="matrix(0.9839 -0.1787 0.1787 0.9839 -49.6598 81.2898)" fill="#73675C" cx="426.402" cy="316.302" rx="3.633" ry="3.95"/>
	</g>
	<polygon fill="#7A2A11" points="375.784,456.535 345.558,478.089 355.576,486.442 379.555,459.646  "/>
	<ellipse fill="#9C4F22" cx="349.967" cy="482.879" rx="6.806" ry="6.292"/>
	<polygon fill="#7A2A11" points="374.475,456.954 337.59,461.158 342.305,473.319 376.266,461.502  "/>
	
		<ellipse transform="matrix(0.4846 -0.8747 0.8747 0.4846 -234.1431 537.5556)" fill="#9C4F22" cx="339.107" cy="467.475" rx="6.292" ry="6.806"/>
	<polygon fill="#7A2A11" points="367.776,455.272 398.183,476.569 388.237,485.006 364.032,458.414  "/>
	<ellipse transform="matrix(1 -0.0084 0.0084 1 -4.03 3.3248)" fill="#9C4F22" cx="393.806" cy="481.432" rx="6.806" ry="6.292"/>
	<polygon fill="#7A2A11" points="363.575,454.017 369.692,487.208 380.428,482.172 367.588,452.109  "/>
	
		<ellipse transform="matrix(0.4234 -0.906 0.906 0.4234 -223.3136 619.9601)" fill="#9C4F22" cx="375.365" cy="485.408" rx="6.187" ry="5.72"/>
	<path fill="#FFE626" d="M377.665,472.839c6.549-5.393-1.493-8.379-5.779-0.722c-4.623-4.719-7.657-2.6-5.538,0.241   c-10.996-0.193-18.666-5.929-22.007-11.028c-2.408-3.675-0.144-8.042-8.042-9.968c9.727-1.66,16.139-0.013,17.625,4.816   c-0.706-7.641,12.59-9.625,9.211-15.159c7.51,4.031,7.87,8.489,5.814,14.965c4.43-0.385,2.645-8.147,12.391-5.643   c-3.98,4.617-0.833,5.259-0.898,8.855c11.622-3.403,3.403-11.236,13.869-16.18c-3.403,7.641,7.962,8.668,3.917,15.281   c3.019-1.165,8.668-1.782,12.232,1.397C402.754,458.681,397.058,473.37,377.665,472.839z"/>
	<path fill="#ED7010" d="M396.847,464.587c-4.109-1.348-4.545-1.404-5.894-0.698c1.528-1.999,1.656-4.632-0.013-7.778   c-3.403,5.597-6.613,3.018-13.419,8.347c0.642-2.697-2.954-2.568-2.055-6.87c-1.54-0.856-5.522,1.348-4.496,4.125   c-4.05-2.092-8.939-4.175-7.417-9.134c-7.612,5.82-3.578,10.406-1.634,14.19c-3.482-2.712-4.527-0.45-10.209-4.591   c-0.915,2.652-0.445,4.818,0.822,6.534c3.701,2.079,8.347,3.548,13.817,3.644c-2.119-2.841,0.915-4.96,5.538-0.241   c4.286-7.657,12.328-4.671,5.779,0.722c4.088,0.112,7.562-0.458,10.579-1.409C391.835,468.796,393.7,464.848,396.847,464.587z"/>
	<g>
		<path fill="#DBE5E6" d="M239.571,289.667c-11.772-40.305-29.498-49.751-59.364-76.855c-14.158-12.848-29.872-50.058-29.872-50.058    s-21.536,6.341-63.427,24.291c9.448,8.651,19.372,25.791,18.86,41.768s-12.373,61.89-2.241,88.008    c6.247,16.104,21.952,35.099,57.225,47.953c16.731,6.097,35.504,19.963,22.066,30.039    C216.582,389.726,251.701,331.199,239.571,289.667z"/>
		<path fill="#CBC8DE" d="M197.196,353.748c-23.453-0.653-79.354-3.215-89.718-51.586c-11.582-54.055,13.657-67.616-9.941-106.813    c13.563-15.334,26.899-11.525,30.665-9.807c13.391,6.11,22.948,7.087,31.887-2.334c-5.766-11.012-9.755-20.453-9.755-20.453    s-21.536,6.341-63.427,24.291c9.448,8.651,19.372,25.791,18.86,41.768s-12.373,61.89-2.241,88.008    c6.247,16.104,21.952,35.099,57.225,47.953c16.731,6.097,35.504,19.963,22.066,30.039c25.806-3.887,52.401-38.99,58.09-73.864    C228.399,340.443,211.709,354.152,197.196,353.748z"/>
		<path fill="#CBC8DE" d="M152.226,231.255c0.003-0.606-0.745-0.675-1.433-0.302c-1.489,4.566-37.759,83.031,6.876,132.661    c1.011,0.391,2.036,0.778,3.081,1.159c0.002,0.001,0.003,0.001,0.005,0.002C115.733,312.456,148.444,242.321,152.226,231.255z"/>
		<path fill="#CBC8DE" d="M133.171,232.689c-3.501,2.888-32.194,37.849-32.097,75.495c0.309,1.537,0.671,3.032,1.084,4.484    c-0.511-34.572,22.45-66.022,32.06-78.956C134.985,232.842,134.228,232.476,133.171,232.689z"/>
		<path fill="#CBC8DE" d="M97.705,200.793c0.222,0.381,0.445,0.761,0.661,1.148c10.217-3.852,20.151-5.308,26.555-6.412    c0.469-0.072,0.471-0.461-0.028-0.777C122.963,194.615,109.73,195.955,97.705,200.793z"/>
		<path fill="#CBC8DE" d="M129.199,207.447c-1.919,0.798-14.727,8.978-23.444,19.812c0.005,0.518,0.029,1.038,0.012,1.554    c-0.004,0.115-0.014,0.247-0.018,0.365c8.072-9.836,17.885-16.664,23.823-21.05C129.94,207.85,129.8,207.506,129.199,207.447z"/>
		<path fill="#CBC8DE" d="M202.359,232.3c-21.638-11.162-43.73-14.395-46.847-14.269c-0.273,0.568-0.609,1.065-0.098,1.461    c10.701,2.19,30.357,4.77,49.521,15.126C204.091,233.85,203.231,233.077,202.359,232.3z"/>
		<path fill="#CBC8DE" d="M230.404,352.182c0.857-1.668,1.672-3.364,2.449-5.078c12.245-65.883-60.137-113.754-63.811-116.862    c-0.781,0.044-1.381,0.496-1.06,1.01C177.141,238.781,243.511,282.34,230.404,352.182z"/>
		<path fill="#9895AB" d="M159.241,360.888c-15.475-4.894-45.732-21.804-53.093-45.57c-10.384-33.524-1.531-57.67,0.57-82.243    c1.354-15.836-2.778-27.921-15.581-45.425c-1.132-1.491-2.492-1.348-4.228-0.606c9.448,8.651,19.372,25.791,18.86,41.768    s-12.373,61.89-2.241,88.008c6.247,16.104,21.952,35.099,57.225,47.953c16.731,6.097,35.504,19.963,22.066,30.039    c19.802-2.983,40.069-24.346,50.998-49.883c-8.206,15.686-22.227,34.239-41.658,42.318    C190.926,375.565,176.827,366.449,159.241,360.888z"/>
		<path fill="#AEB1BF" d="M184.887,217.006c-3.747,1.967-8.478,1.514-12.116,1.413c-6.44-0.179-28.582-0.353-32.949,5.51    c-3.173,4.261-21.332,13.511-22.519,1.752c-8.033,13.781,5.761,21.278,18.377,18.3c4.643,12.108,5.47,14.612,27.034,4.593    c12.136-5.638,26.787-1.698,16.525-15.802c6.766-0.713,8.766-6.036,10.261-11.706C187.84,219.619,186.635,218.557,184.887,217.006    z"/>
	</g>
	<path fill="#F5AB6C" d="M102.797,187.982c3.698,11.55,11.448,19.74,18.217,26.052c5.598,2,12.78,3.214,17.906,8.83   c16.726-0.118,15.784,12.622,27.251-11.297c-0.687-7.55,0.367-11.142,1.164-17.162c-1.685-4.277-4.811-8.285-7.497-10.392   c-0.742-8.252-3.782-15.843-6.503-18.236C142.831,167.284,100.425,180.572,102.797,187.982z"/>
	<g>
		<path fill="#C95E31" d="M136.773,188.608c2.467,4.604,1.23,10.071-2.763,12.211s-9.23,0.142-11.697-4.462    s-1.23-10.071,2.763-12.211C129.068,182.006,134.306,184.004,136.773,188.608z"/>
		<path fill="#F2F2F2" d="M136.491,189.552c2.087,3.894,1.04,8.518-2.337,10.327s-7.807,0.12-9.893-3.774    c-2.087-3.894-1.04-8.518,2.337-10.327C129.975,183.968,134.404,185.658,136.491,189.552z"/>
		<path fill="#1F315C" d="M135.779,189.292c1.73,2.139,1.629,5.09-0.227,6.591c-1.855,1.501-4.762,0.983-6.493-1.156    c-1.73-2.139-1.629-5.09,0.227-6.591C131.142,186.635,134.049,187.152,135.779,189.292z"/>
		<path fill="#EB834B" d="M137.779,191.283c-1.541,1.993-5.607,5.862-13.847,7.341c3.257,4.527,7.171,6.726,10.966,4.971    C139.382,201.522,139.232,194.844,137.779,191.283z"/>
	</g>
	<g>
		<path fill="#C95E31" d="M157.919,182.253c0.9,4.287-1.385,8.396-5.103,9.177s-7.463-2.062-8.363-6.35    c-0.9-4.288,1.385-8.396,5.103-9.177C153.275,175.122,157.019,177.965,157.919,182.253z"/>
		<path fill="#F2F2F2" d="M157.47,182.946c0.761,3.626-1.171,7.101-4.316,7.761s-6.312-1.744-7.073-5.37    c-0.761-3.626,1.171-7.101,4.316-7.761C153.542,176.915,156.709,179.32,157.47,182.946z"/>
		<path fill="#1F315C" d="M156.79,182.264c0.888,2.13,0.111,4.481-1.736,5.252c-1.847,0.77-4.065-0.332-4.953-2.462    s-0.111-4.481,1.736-5.252C153.684,179.032,155.902,180.134,156.79,182.264z"/>
		<path fill="#EB834B" d="M158.11,184.295c-2.273,1.995-6.538,3.589-12.434,3.789c0.691,3.309,3.479,7.815,8.39,7.035    C158.158,194.47,159.456,190.746,158.11,184.295z"/>
	</g>
	<g>
		<path fill="#E27844" d="M139.006,239.246c4.75-3.785,34.841-10.255,37.295-7.263c8.997,10.974,1.735,10.825-12.907,14.159    C152.843,248.545,140.846,258.662,139.006,239.246z"/>
		<path fill="#04070D" d="M160.007,229.056c-7.332,0.93-22.887-7.611-19.49,9.035c1.441,18.812,13.921,6.876,22.891,5.357    c12.127-2.053,17.248-2.457,10.822-11.547C166.182,217.121,168.223,228.014,160.007,229.056z"/>
		<path fill="#F7F7D9" d="M143.328,232.002c0.44,1.033,1.873,3.22,6.754,5.606c3.706,1.811,17.911-1.325,20.135-4.625    c1.315-1.952,2.807-5.404,3.051-7.473C173.378,224.573,143.328,232.002,143.328,232.002z"/>
		<path fill="#D4D4B0" d="M143.729,232.572c0.031,0.093,0.087,0.241,0.168,0.427c0.82,1.158,2.535,2.82,6.152,4.593    c5.986-1.816,10.077-4.125,11.691-5.849c1.61,0.905,4.655,1.794,7.613,2.112c0.37-0.287,0.666-0.578,0.863-0.871    c0.808-1.199,1.68-2.963,2.291-4.626C166.305,228.819,143.729,232.572,143.729,232.572z"/>
		<path fill="#F7F7D9" d="M163.408,243.448c3.694-0.625,6.734-1.099,8.999-1.71c-0.155-0.086-0.305-0.171-0.468-0.258    c-3.642-1.937-17.946,0.712-20.281,3.934c-0.546,0.754-1.126,1.743-1.649,2.788C154.252,247.145,159.214,244.158,163.408,243.448z    "/>
	</g>
	<g>
		<path fill="#BCCAD1" d="M184.326,211.123c1.197,9.214-5.4,5.437-10.546-0.957c-13.022-16.18-40.65-7-44.642,7.807    c-2.185,8.105-10.681,12.743-10.192,2.779c-12.351,23.542,21.261,28.077,42.362,9.287    C178.247,237.462,195.813,224.955,184.326,211.123z"/>
		<path fill="#ADB2C4" d="M134.601,209.415c9.092,24.092,44.316,13.617,30.528-5.821    C154.878,199.216,141.992,202.558,134.601,209.415z"/>
		<path fill="#ADB2C4" d="M187.417,216.503c-0.091-0.277-0.198-0.557-0.312-0.837c-3.015,10.163-17.889-1.894-21.943-10.087    c-1.048-1.242-0.668,1.501-1.392,0.994C173.962,223.187,185.368,224.064,187.417,216.503z"/>
		<path fill="#ADB2C4" d="M175.298,231.947c0.177-0.029,0.35-0.066,0.525-0.099c-6.728-4.126-10.749-12.448-14.439-19.906    c-1.048-1.242-0.668,1.501-1.392,0.994C161.86,217.899,167.537,227.645,175.298,231.947z"/>
		<path fill="#ADB2C4" d="M149.332,212.514c2.331,6.018,6.734,14.893,1.404,24.635c0.506-0.249,1.011-0.513,1.513-0.783    c5.026-7.293,4.777-13.836,2.673-22.136C154.444,212.676,149.799,213.264,149.332,212.514z"/>
		<g>
			<path fill="#ADB2C4" d="M145.212,213.467c0.178-0.762,0.244-0.867,0.262-0.87c-0.008-0.021-0.022-0.099-0.029-0.348     c-6.729-1.565-8.225,1.209-10.44,4.466c-6.991,10.282-16.11,18.812-18.556,11.22c-0.052,0.355-0.087,0.703-0.113,1.045     c2.534,9.19,14.383-0.057,20.923-9.282C140.041,215.771,141.298,213.914,145.212,213.467z"/>
			<path fill="#9FA6BD" d="M145.474,212.597C145.481,212.614,145.483,212.595,145.474,212.597L145.474,212.597z"/>
		</g>
	</g>
	<path fill="#EB673B" d="M141.639,200.5c-3.76-0.686-13.614,12.606,5.221,18.26s23.606-8.74,19.797-14.409   c-3.809-5.669-16.895-20.743-23.932-18.913C135.688,187.268,140.84,199.318,141.639,200.5z"/>
	<path fill="#CC4B2B" d="M141.639,200.499c-3.76-0.686-13.614,12.606,5.221,18.26s23.606-8.74,19.797-14.409   c3.476,8.136-5.943,17.103-19.316,12.893c-4.938-1.555-6.976-2.913-8.269-4.665c-4.69-6.353,0.213-12.197,2.29-11.497   c1.371,0.462,1.811,0.965,2.74,2.332C143.911,202.009,142.704,200.901,141.639,200.499z"/>
	<path fill="#DBE5E6" d="M114.523,196.061c5.898-6.358,12.188-10.634,20.333-15.183c-0.886-5.451-6.048-12.559-10.851-8.575   C118.822,176.601,113.34,189.489,114.523,196.061z"/>
	<path fill="#DBE5E6" d="M162.33,176.213c-3.591,0.972-10.76,4.153-16.579,8.285c-4.351-3.4-7.866-10.015-1.494-12.188   C151.173,169.952,155.394,171.845,162.33,176.213z"/>
	<path fill="#4D5399" d="M75.014,94.227c-18.21,5.272-32.811-1.244-32.051-11.701c0.817-11.249,33.412-6.859,42.235,5.049   c12.043,16.254,28.285,33.914,38.176,43.23s-43.806,36.138-44.185,19.153C78.81,132.974,83.632,113.299,75.014,94.227z"/>
	<path fill="#8C4712" d="M128.351,132.617c3.849,2.139,0.615,6.032-1.099,7.953c2.145,1.024,13.534,9.773,14.842,12.074   c3.308-1.334,5.963-0.509,3.42,5.815c-2.542,6.324-55.993,29.985-61.783,29.998c-5.79,0.013-11.972-6.696-0.455-7.905   c1.18-6.683-0.568-17.26,0.242-19.544c-3.176,0.203-11.189-3.825-0.588-11.187C93.532,142.459,124.502,130.478,128.351,132.617z"/>
	<polygon fill="#C1D1D6" points="104.334,139.395 113.676,173.823 119.467,172.252 109.866,136.869 109.866,136.869    109.866,136.869 108.87,133.195 103.078,134.767 83.77,146.797 93.692,183.363 96.588,182.578 87.016,147.301 87.016,147.301  "/>
	
		<rect x="102.467" y="152.877" transform="matrix(0.9135 -0.4068 0.4068 0.9135 -53.5296 56.9642)" fill="#C1D1D6" width="9.481" height="3"/>
	<path fill="#4D5399" d="M34.124,242.497c0,0,36.104-58.335,80.606-76.439s96.202-13.782,103.713-11.991   C188.336,156.271,122.757,163.055,34.124,242.497z"/>
	<path fill="#778CC9" d="M126.676,180.69c52.958-26.867,88.815-22.415,94.391-23.859c5.576-1.444,8.561-8.646-3.519-7.055   c-12.925,1.702-52.019,7.471-91.815,27.057c-47.399,23.328-87.736,56.863-95.899,66.56c-6.127,7.279,0.512,11.002,4.975,5.399   C42.021,239.738,64.813,212.074,126.676,180.69z"/>
	<g>
		<path fill="#F5AB6C" d="M218.086,273.556c-6.084-7.034-12.96-3.418-22.255-5.602c-2.225,6.39,0.772,9.07,8.773,9.509    c2.048,0.113-0.795,2.549-6.766,3.553c-2.66,0.447-5.747-0.682-12.804-1.495c-2.938-0.338-6.187,8.163-0.73,9.627    c-2.722,4.132,0.254,9.058,5.185,9.801c0.009,8.815,8.448,7.017,17.183,10.085c4.22,0.479,6.471,0.181,10.752-0.449    C230.405,306.673,232.506,283.274,218.086,273.556z"/>
		<path fill="#E88D51" d="M218.086,273.556c-1.156-1.337-2.342-2.286-3.567-2.966c-3.586,5.887-14.274,19.281-7.833,38.446    c4.21,0.477,6.462,0.179,10.738-0.451C230.405,306.673,232.506,283.274,218.086,273.556z"/>
		<path fill="#E88D51" d="M201.31,301.042c-3.089-0.619-7.936-1.591-11.821-2.092c0.001,0.501,0.036,0.957,0.089,1.393    C193.362,300.304,198.947,301.284,201.31,301.042z"/>
		<path fill="#E88D51" d="M198.911,291.932c-1.741-0.624-11.338-2.21-14.608-2.784l0,0c-0.244,0.37-0.427,0.748-0.582,1.128    C187.041,290.783,195.616,291.942,198.911,291.932z"/>
	</g>
	<path fill="#554594" d="M215.848,270.035c1.425-2.606,7.19,1.41,8.671,3.532c4.589,6.573-2.043,27.897-9.773,36.036   c-2.727,2.87-7.137,2.779-7.155-0.1C207.556,304.048,211.56,277.878,215.848,270.035z"/>
	<path fill="#3E2869" d="M223.97,275.9c-2.564,0.425-12.274,24.066-9.37,32.077c7.653,4.747,22.679,11.442,41.576,7.717   c11.092-12.053-1.609-27.251-14.037-41.339C236.106,274.193,231.656,277.113,223.97,275.9z"/>
	<g>
		<path fill="#261D54" d="M247.941,316.685c0.544-0.027,1.082-0.046,1.634-0.09c-5.298-8.12-7.892-25.502-8.359-42.237    c-0.474,0.011-0.941,0.038-1.4,0.08C240.27,288.809,242.33,307.314,247.941,316.685z"/>
		<path fill="#261D54" d="M243.604,276.021c-0.487-0.556-0.976-1.112-1.464-1.665c-0.107-0.003-0.21,0.002-0.316,0.001l7.978,42.216    c0.474-0.039,0.957-0.097,1.437-0.149L243.604,276.021z"/>
	</g>
	<g>
		<path fill="#261D54" d="M233.891,275.477c-0.498,0.1-1.002,0.194-1.515,0.282l-6.816,37.511c0.451,0.164,0.911,0.322,1.377,0.479    L233.891,275.477z"/>
		<path fill="#261D54" d="M228.779,276.164c-0.536,0.025-1.088,0.031-1.656,0.018c-5.637,11.367-8.779,24.228-6.952,34.829    c0.54,0.258,1.089,0.516,1.665,0.77C219.728,301.269,222.876,287.903,228.779,276.164z"/>
	</g>
	<g>
		<path fill="#261D54" d="M235.12,275.226c-1.009,0.21-2.035,0.419-3.101,0.592c-2.632,12.586-1.628,27.703,1.464,39.725    c1.019,0.216,2.058,0.412,3.127,0.577C233.272,303.92,232.206,287.927,235.12,275.226z"/>
		<path fill="#261D54" d="M241.464,274.358c-0.989,0.01-1.942,0.094-2.876,0.228l0.836,41.891c0.944,0.097,1.908,0.168,2.885,0.218    L241.464,274.358z"/>
	</g>
	<path fill="#261D54" d="M240.531,274.389c6.82,9.931,16.894,28.884,12.818,37.751c-11.144,1.961-17.371,3.054-32.745-3.33   c-5.676-7.991-1.395-23.043,3.82-32.851c-0.153-0.021-0.299-0.034-0.454-0.059c-2.564,0.425-12.274,24.066-9.37,32.077   c7.653,4.747,22.679,11.442,41.576,7.717c11.092-12.053-1.609-27.251-14.037-41.339   C241.591,274.34,241.058,274.358,240.531,274.389z"/>
</g>
</svg>
