<svg id="Layer_1" enable-background="new 0 0 150 150" viewBox="0 0 150 150" xmlns="http://www.w3.org/2000/svg"><g id="_x31_02"><g><path d="m111.88084 32.1484c-2.36398 0-4.22511 1.91347-4.22511 4.22511 0-2.33446-1.90036-4.22511-4.23476-4.22511 2.3383 0 4.23476-1.90478 4.23476-4.23476 0 1.16729.47266 2.22824 1.2347 2.99034.76211.77176 1.82319 1.24442 2.99041 1.24442z" fill="#4689ff"/></g><g><path d="m24.7853 15.23476c-2.36398 0-4.2251 1.91347-4.2251 4.22511 0-2.33446-1.90036-4.22511-4.23476-4.22511 2.3383 0 4.23476-1.90478 4.23476-4.23476 0 2.31049 1.86282 4.23476 4.2251 4.23476z" fill="#9f7bf9"/></g><g><g><path d="m107.86764 58.51598c-1.02116-3.85146 1.59739-8.67945 6.51877-8.87085 1.85832-5.56988 7.39142-7.54914 12.92673-9.25663.37817-.11359.77157.09419.88653.4682.11568.374-.09419.77156-.46819.88653-4.81478 1.48653-10.03128 3.18659-11.88367 7.9857 1.36027.21055 2.66029.78818 3.67426 1.71142 4.58242 4.17217-.64796 9.86974-4.16046 5.53597-1.36581-1.68787-1.70173-3.82386-1.34088-5.89127-3.65055.40668-5.56665 4.10873-4.78172 7.06662.10043.37885-.12537.7674-.50352.86783-.38073.09951-.76724-.12583-.86785-.50352zm7.57706-7.42192c-.73351 3.57056 1.33181 5.94735 2.66514 6.01733.90939.06164 1.69965-.90731 1.77583-1.79522.14444-1.69966-1.60065-3.86921-4.44097-4.22211z" fill="#fdcc59"/></g></g><g><g><path d="m61.28795 43.80188c-.34267 0-.58521-.34138-.4665-.66629.37582-1.03289-.66581-2.19575-1.79326-2.83973-1.32364-.75365-2.9099-1.39882-3.5259-2.91005-1.16071-2.85043 2.29761-5.7702 1.31366-8.0847-.56106-1.31949-2.31601-1.73895-3.68932-1.85872-1.7999-.13637-3.58539-.18103-4.92298-1.28893-1.11193-.92185-1.63032-2.4838-1.28991-3.88669.33994-1.40386 1.51588-2.55508 2.92605-2.86495.26671-.06062.53245.11008.59161.37824s-.11056.53293-.37824.59161c-1.03144.22695-1.92564 1.10224-2.17441 2.12883-.24877 1.02611.14548 2.21369.9587 2.88822 1.09991.91139 2.81687.94623 4.37549 1.06441 2.3582.20512 3.92015 1.05569 4.51661 2.45906 1.20654 2.83637-2.25703 5.7657-1.30785 8.09876.47565 1.16605 1.88307 1.72898 3.09917 2.4227 1.52703.8719 2.80967 2.46003 2.23357 4.04138-.07322.20174-.26379.32685-.46649.32685z" fill="#ff6545"/></g></g><g><g><path d="m30.30056 31.69055c2.73114-.56899 6.00803 1.44344 5.95663 4.89138 3.82418 1.50884 4.99974 5.45174 5.98519 9.38595.06518.26866-.09489.53588-.3607.60219-.26583.06679-.53588-.09489-.60219-.3607-.85809-3.42215-1.85035-7.13319-5.13589-8.60888-.50965 2.42266-2.51991 3.83097-4.19564 3.59605-1.22621-.17139-2.15187-1.27114-2.03876-2.39803.16022-1.49532 2.33305-3.22312 5.35505-2.52645-.14695-2.56755-2.66309-4.04649-4.7606-3.60904-.26865.05596-.5318-.11652-.58779-.38469-.05523-.26991.11686-.53166.3847-.58778zm4.90381 5.57674c-2.46872-.6472-4.20815.70729-4.30725 1.63684-.07732.63347.57037 1.22243 1.18828 1.30911 1.18285.16496 2.76535-.97346 3.11897-2.94595z" fill="#fdcc59"/></g></g><g><g><path d="m130.54279 18.44755c.00746-.03881.01025-.07852.008-.11969-.01468-.26904-.24471-.47478-.51384-.45965-5.5761.30965-10.7629 3.75263-13.21339 8.77147-.11844.24004-.01823.5333.22424.65173.242.11833.53386.01786.65173-.22424 2.26289-4.63354 7.2429-7.9393 12.39162-8.22547.22785-.01241.41042-.17998.45164-.39415z" fill="#ff6545"/></g></g><g><path d="m55.16876 90.58708v44.49667c0 2.16211-1.7542 3.91624-3.92645 3.91624h-26.97542c-1.87658 0-3.48798-1.33601-3.84491-3.18198-9.64366-49.97896-6.31746-32.74069-7.03709-36.47022-.50993-2.67216 1.15245-5.27287 3.79393-5.92547l31.66677-7.79178c3.21785-.80428 6.32317 1.64914 6.32317 4.95654z" fill="#ff5e85"/></g><g><path d="m136.70691 112.59583v22.48793c0 2.16211-1.7542 3.91624-3.91631 3.91624h-26.21052c-2.09071 0-3.79387-1.63176-3.90604-3.6817-.01021-.10196-.01021-.20398-.01021-.31615l.6935-33.68608c.04077-1.60126 1.65218-2.67204 3.1412-2.09077 2.93968 1.14813-10.64912-4.15917 28.74997 11.22871.87708.33664 1.45841 1.19329 1.45841 2.14182z" fill="#4689ff"/></g><g><path d="m100.12439 77.44102-3.12078 57.84672c-.11231 2.0818-1.83311 3.71226-3.91793 3.71226h-26.70862c-2.08051 0-3.80407-1.62155-3.91624-3.70206-5.07308-90.3393-4.05314-72.17657-4.19169-74.64384-.13259-2.36603 2.31511-4.02854 4.46701-3.00867 1.70998.80648-9.08315-4.2839 35.59328 16.78692 1.16266.55076 1.86637 1.73384 1.79497 3.00867z" fill="#fdcc59"/></g><g><g><path d="m77.05807 31.51778-1.51717.78982c-1.41958.73901-3.16135.40065-4.201-.81609l-.91241-1.06784c-1.16558-1.36413-1.08599-3.39525.18275-4.664l5.28226-5.28226c.70582-.70582 1.68357-1.07001 2.67915-.9979l10.57976.76623c1.92697.13956 3.36054 1.8392 3.17319 3.76211l-3.72884 38.26974c-.22802 2.34016-2.68541 3.76593-4.83018 2.80246l-4.52793-2.03402c-1.22871-.55195-2.02185-1.77065-2.02899-3.11762z" fill="#9f7bf9"/></g></g><g><g><path d="m21.5467 78.50933-.00002-3.67228c-.00001-.83125.32189-1.63003.88638-2.2402 2.93434-3.17179 7.09756-7.93307 7.63106-12.20515.2226-1.50341-.23654-2.4909-1.37741-2.96448-1.70165-.705-3.46287.45052-4.58823 1.85915-.87541 1.09577-2.40716 1.42411-3.72161.93495h-.00001c-1.74927-.65096-2.61202-2.61209-1.93642-4.352.91724-2.36222 2.62775-4.70486 4.77645-6.16628 6.66008-4.52904 14.09738-2.80387 16.61711.87695 2.04338 2.94569 2.15816 6.34935 1.08559 9.76988-1.42155 4.53855-5.23071 8.9926-8.72611 12.27522l6.05521-.79118c1.68879-.22066 3.17621 1.11751 3.13469 2.82014l-.10603 4.3481c-.03652 1.49764-1.24765 2.69631-2.74569 2.70808-2.845.02235-7.40504.05003-13.68027.08304-1.82037.00957-3.30468-1.46354-3.30469-3.28394z" fill="#70e474"/></g></g><g><g><path d="m131.85767 67.38368c2.35435 2.91611 3.1059 6.31321 2.52576 9.18525-.56305 2.78838-2.08072 5.4915-4.44647 7.22321 2.79071 2.50735 3.77458 6.26354 3.15222 9.35207-.96758 4.79421-5.72837 8.62875-11.69059 7.45277-5.12663-1.008-8.74718-5.13231-8.01273-10.6754.36841-2.78045 4.50272-3.24539 5.4397-.21648.25045.80959.76712 1.6786 1.50834 2.16577 1.9221 1.26811 3.86297.70723 4.55104-.89736.48669-.79046.20356-2.07164-.12499-2.94357-.28539-.75279-1.14838-1.62165-2.40218-2.02068-1.24239-.3954-1.64656-1.93014-.60101-2.90694 1.31001-1.22388 2.47533-3.87662 1.9176-6.11609-.74571-2.97523-4.78882-2.57329-6.82341.27335-.79955 1.11868-2.15685 1.68927-3.47553 1.29964l-.34333-.10145c-1.70501-.50378-2.63857-2.30119-2.1358-4.00651 1.30112-4.41319 4.36472-7.50298 8.68616-9.13471 5.2847-1.99211 10.16831-.47362 12.27522 2.06713z" fill="#70e474"/></g></g><g><path d="m100.12439 77.44102-3.12078 57.84672c-.11224 2.0805-1.83581 3.71226-3.91631 3.71226h-26.71024c-2.08051 0-3.80407-1.62155-3.91624-3.70206l-.3672-6.6291c1.09126-.91791 2.41707-1.56042 3.68176-2.24372 17.47746-9.31633 29.62302-28.11195 31.38117-47.91331.0816-.84632-.10196-2.9473.06119-4.60968l1.11168.53022c1.16266.55076 1.86637 1.73384 1.79497 3.00867z" fill="#fca22b"/></g><g><path d="m55.16876 90.58708v44.49667c0 2.16211-1.7542 3.91624-3.92645 3.91624h-26.97542c-1.87658 0-3.48798-1.33601-3.84491-3.18198l-.70371-3.64085c.54056-.29581 1.08105-.58133 1.62161-.86693 16.89446-9.02483 28.54844-26.65166 31.07523-45.26151 1.61141.84646 2.75365 2.52926 2.75365 4.53836z" fill="#ea3267"/></g><g><path d="m136.70691 112.59583v22.48793c0 2.16211-1.7542 3.91624-3.91631 3.91624h-26.21052c-2.09071 0-3.79387-1.63176-3.90604-3.6817.10196-.12238.22434-.24475.34672-.35692 1.0607-.94847 2.45791-1.40742 3.80414-1.89693 11.35513-4.19788 20.52571-13.2626 25.37416-23.8036l3.04944 1.19316c.87708.33664 1.45841 1.19329 1.45841 2.14182z" fill="#146ff4"/></g><g><path d="m61.4799 66.87918c-.08694-.95263-.04239-2.14973.82562-2.55174.67789-.31396 1.5134.10826 1.91396.73886.40056.63061.47556 1.40736.53999 2.15165.61467 7.10069 1.22934 14.20138 1.84401 21.30206.0832.96111.15051 1.99579-.34608 2.82269-1.24781 2.07784-2.4069.28499-2.71247-.91154-.57566-2.25411-.38335-5.12586-.59657-7.46208-.48947-5.36302-.97893-10.72605-1.46846-16.0899z" fill="#fff"/></g><g><path d="m105.80861 105.39762c-.02663-.59294.03525-1.33364.58475-1.55798.42915-.1752.93494.11041 1.16515.51273.33614.5874.22466.14465.80647 14.60516.02406.59808.03618 1.24133-.29527 1.73964-.83287 1.25216-1.49999.10776-1.65514-.64261-.2923-1.4136-.09093-3.18805-.15623-4.64217-.1499-3.33809-.2998-6.67617-.44973-10.01477z" fill="#fff"/></g><g><path d="m16.43038 100.25568c-.14958-.69498-.22408-1.5821.38022-1.95653.47194-.29241 1.12618-.05587 1.47824.37342.51401.62677.29415.12607 3.86225 17.08851.14758.70157.29003 1.45884-.00214 2.1134-.73418 1.64478-1.75007.42612-2.08281-.42918-.62685-1.61127-.74254-3.74709-1.10936-5.45144-.8421-3.91253-1.68419-7.82506-2.5264-11.73818z" fill="#fff"/></g><g><path d="m132.2834 77.22822c-.47374 1.30994-1.44153 1.03512-1.57353.20866-.05101-.31938.02443-.64331.075-.96276.45932-2.90189-1.41612-5.9985-4.20063-6.93578-.79926-.26903-1.68422-.3933-2.33067-.93482-.51247-.42928-.88672-1.52556-.27058-2.03381.43985-.36284 1.88294.00948 2.38387.1155 4.95777 1.04931 7.5106 6.13522 5.91654 10.54301z" fill="#fff"/></g><g><path d="m39.84203 58.7314c-.0788.40531-.21977.8493-.58324 1.04521-.52432.28261-1.19349-.15485-1.41232-.70882-.21883-.55398-.13909-1.17317-.13941-1.7688-.0017-3.17746-2.73689-6.11341-5.90627-6.33979-.80803-.05772-1.65298.03366-2.40014-.28017-.83274-.34996-1.31231-1.21895-.59795-1.85509.56094-.49952 2.05169-.41769 2.75606-.39478 5.62946.18307 9.25529 5.30279 8.28327 10.30224z" fill="#fff"/></g><g><path d="m88.87306 39.23896c-.03246.57556-.19688 1.30642-.76662 1.39424-.36195.05579-.70962-.21843-.861-.55191s-.1517-.71308-.1492-1.0793c.03162-4.62659.08215-9.25304.15162-13.87922.00787-.5238.0186-1.06131.21341-1.5476.19479-.48628.61704-.9175 1.13858-.96651 2.0621-.19378.87138 6.02613.80563 7.19176-.17748 3.14617-.35494 6.29235-.53242 9.43854z" fill="#fff"/></g></g></svg>