<?xml version="1.0" encoding="iso-8859-1"?>
<!-- Generator: Adobe Illustrator 28.2.0, SVG Export Plug-In . SVG Version: 6.00 Build 0)  -->
<svg xmlns="http://www.w3.org/2000/svg" xmlns:xlink="http://www.w3.org/1999/xlink" version="1.1" id="Layer_1" x="0px" y="0px" viewBox="0 0 512 512" style="enable-background:new 0 0 512 512;" xml:space="preserve">
<g>
	<path style="fill:#9264FF;" d="M226.104,510.471l-30.928-27.393l-30.929,27.393c-3.894,3.449-10.037,0.684-10.037-4.518v-75.522   h81.93v75.522C236.14,511.155,229.998,513.92,226.104,510.471z"/>
	<g>
		<g>
			<g>
				<path style="fill:#FFD327;" d="M440.564,20.348v48.609l-1.692,5.426l1.692,7.717v42.219l-1.756,2.979l1.756,6.085v23.638      l-2.352,2.213l2.352,2.826v30.046l-1.501,2.064l1.501,3.723v65.617l-1.969,2.809l1.969,2.532v20.809l-2.352,2.255l2.352,2.723      v44.574L437.851,341l2.713,3.21v21.428l-2.522,2.553l2.522,2.447v58.586c0,8.595-5.327,15.94-12.854,18.924      c-0.744,0.295-2.245-2.014-3.029-1.807c-0.851,0.224-0.989,2.956-1.88,3.069c-0.847,0.107-1.709,0.163-2.585,0.163h-29.174      l-2.234-2.019l-3.511,2.019h-52.319l-6.128-2.402l-1.404,2.402h-33.894l-2.66-2.253l-2.489,2.253H227.66l-2.191-2.402      l-2.979,2.402h-92.804l-29.125-207.381L129.686,0h8.179l2.162,1.051L142.875,0h35.444l1.425,1.702L183.596,0h117.341      l1.957,1.511L307.05,0h105.907l2.277,1.702L418.064,0h2.152C431.449,0,440.564,9.115,440.564,20.348z"/>
				<g>
					<path style="fill:#FF8533;" d="M299.75,357.43c-7.14-7.74-19.82-5.81-28.12-0.06c-3.99,2.76-7.4,6.19-10.69,9.51       c-3.14,3.16-6.11,6.16-9.54,8.61c-10.18,7.27-24.41,3.86-38.18,0.55c-17.74-4.26-36.09-8.66-44.7,10.88       c-3.04,6.88-2.53,15.38,1.34,22.75c3.87,7.36,10.6,12.59,17.98,13.99c4.62,0.87,9.52,0.59,14.26,0.31       c7.86-0.45,15.28-0.87,19.72,4.15c4.75,5.38,2.89,13.15,0.64,21.45h5.18c2.34-8.84,4.11-17.76-2.08-24.76       c-4.45-5.05-10.51-6.09-16.88-6.09c-2.27,0-4.58,0.13-6.86,0.26c-4.44,0.26-9.04,0.52-13.05-0.24       c-5.9-1.11-11.31-5.38-14.48-11.4c-3.17-6.03-3.62-12.91-1.2-18.4c6.93-15.73,21.78-12.16,38.97-8.04       c14.85,3.57,30.21,7.26,42.25-1.34c3.78-2.7,7.03-5.99,10.18-9.16c3.28-3.3,6.37-6.42,9.98-8.92       c6.66-4.61,16.57-6.11,21.6-0.66c4.66,5.04,3.24,13.69-0.22,20.02c-1.55,2.83-3.42,5.46-5.39,8.25       c-2.82,3.97-5.73,8.08-7.62,12.81c-5.09,12.69-1.73,26.13,1.53,39.14c0.71,2.83,1.42,5.68,2.05,8.53h5.11       c-0.69-3.27-1.5-6.53-2.31-9.75c-3.2-12.79-6.23-24.87-1.74-36.06c1.67-4.18,4.29-7.87,7.06-11.78c1.97-2.78,4-5.65,5.69-8.74       C304.24,375.92,306.52,364.76,299.75,357.43z"/>
					<path style="fill:#FF8533;" d="M368.47,399.92c-20.77-4.35-45.58,5.51-52.07,20.68c-2.47,5.79-3.97,16.5,8.98,28.97h7.57       c-11.5-9.15-15.62-18.41-11.95-27c4.64-10.86,21.23-18.67,37.26-18.67c3.11,0,6.21,0.29,9.18,0.92       c8.63,1.8,23.07,8,22.88,29.22c-0.05,5.56-1.93,10.97-5.06,15.53h5.82c2.65-4.72,4.2-10.05,4.24-15.49       C395.48,415.98,385.69,403.53,368.47,399.92z"/>
					<path style="fill:#FF8533;" d="M395.15,324.27c-2.77-10.99-9.06-21.66-18.69-31.73c-8.77-9.16-19.47-16.89-28.06-23.1       c-5.65-4.09-12.06-8.73-19.63-10.77c-6.84-1.84-16.36-1.48-22.58,5.04c-4.85,5.09-6.56,13.34-4.46,21.54       c1.82,7.08,5.99,13.33,9.66,18.84l0.53,0.79c8.67,12.98,16.15,24.19,20.54,38.98c0.36,1.23,0.71,2.46,1.06,3.7       c3.33,11.74,6.76,23.88,22.19,27.39c2.03,0.46,4.11,0.69,6.21,0.69c10.45,0,21.18-5.6,27.6-14.87       C396.33,350.95,398.43,337.31,395.15,324.27z M385.41,357.93c-6.57,9.48-18.33,14.48-28.59,12.14       c-12.54-2.85-15.29-12.59-18.49-23.87c-0.35-1.26-0.71-2.52-1.08-3.77c-4.6-15.51-12.28-27.01-21.17-40.33l-0.53-0.79       c-3.62-5.43-7.37-11.05-8.98-17.31c-1.31-5.12-1.15-12.24,3.24-16.84c2.76-2.89,7.05-4.45,11.76-4.45       c1.93,0,3.92,0.26,5.9,0.79c6.68,1.8,12.7,6.15,18,9.99c8.43,6.09,18.92,13.68,27.38,22.51c9.02,9.43,14.9,19.35,17.45,29.49       C393.23,337.15,391.41,349.27,385.41,357.93z"/>
					<path style="fill:#FF8533;" d="M206.83,245.1c-2.23-5.68-7.5-8.22-12.6-10.68c-3.01-1.45-5.85-2.82-8.03-4.78       c-3.78-3.39-6.21-7.29-8.56-11.06c-4.36-7.01-8.88-14.26-21.53-15.87c-10.93-1.4-25.59,2.67-31.24,12.94       c-4.08,7.43-4.24,14.79-0.45,21.89c9.59,17.97,41.34,28.16,55.42,29.39c4.09,0.36,9.68,0.54,14.99-1.2       c1.5-0.5,2.97-1.14,4.39-1.98C205.18,260.22,209.65,252.27,206.83,245.1z M196.67,259.45c-3.95,2.34-9.16,3.14-16.39,2.5       c-13.61-1.19-43.27-11.43-51.45-26.77c-2.98-5.58-2.84-11.18,0.42-17.12c2.34-4.25,6.91-7.25,12.09-8.95       c4.61-1.52,9.7-2.01,14.13-1.44c10.3,1.31,13.67,6.71,17.93,13.56c2.41,3.87,5.15,8.26,9.46,12.14c2.7,2.42,6.01,4.01,9.2,5.55       c4.62,2.23,8.6,4.15,10.12,8.01C204,251.56,200.74,257.04,196.67,259.45z"/>
					<path style="fill:#FF8533;" d="M440.56,370.64v-5.01c-12.59,0.97-22.04,12.28-24.96,23.27c-3.97,14.9,0.03,30.87,3.91,46.31       c1.23,4.91,2.41,9.63,3.31,14.19c1.69-0.21,3.32-0.63,4.85-1.24c-0.91-4.59-2.09-9.28-3.31-14.17       c-3.72-14.82-7.57-30.15-3.93-43.8C422.86,381.05,430.49,371.63,440.56,370.64z"/>
					<path style="fill:#FF8533;" d="M199.25,307.86c-2.87-9.91-9.8-18.4-18.53-22.71c-15.63-7.72-36.21-4.33-51.21,8.42       c-8.42,7.16-14.22,16.15-18.21,25.09c-3.36,7.52-5.44,15.01-6.72,21.37c-4.75,23.44-3.41,51.13,3.41,70.55       c2.9,8.27,10.75,17.31,19.22,21.37c2.85,1.37,5.77,2.17,8.6,2.19c0.41,0.01,0.83-0.01,1.27-0.04       c4.74-0.36,10.66-3.09,14.32-13.08c3.07-8.39,0.07-16.73-2.83-24.8c-2.36-6.55-4.58-12.74-3.78-18.86       c1.15-8.83,8.34-16.48,21.96-23.4c1.31-0.67,2.64-1.32,3.97-1.98c9.83-4.86,19.99-9.89,25.82-19.45       C200.85,325.47,201.82,316.71,199.25,307.86z M192.27,329.93c-5.07,8.32-14.58,13.02-23.76,17.56       c-1.35,0.67-2.7,1.34-4.02,2.01c-15.21,7.73-23.27,16.63-24.66,27.21c-0.96,7.32,1.58,14.38,4.03,21.2       c2.72,7.56,5.29,14.7,2.84,21.39c-2.4,6.56-6.05,9.88-10.86,9.84c-3.05-0.02-6.35-1.33-9.5-3.41       c-6.04-4-11.53-10.82-13.63-16.81c-6.54-18.63-7.81-45.28-3.23-67.9c0.76-3.75,1.8-7.92,3.24-12.24       c3.62-10.83,9.72-22.64,20.02-31.4c13.3-11.3,32.12-14.49,45.77-7.75c7.49,3.7,13.45,11.04,15.94,19.62       C196.62,316.73,195.85,324.08,192.27,329.93z"/>
					<path style="fill:#FF8533;" d="M434.64,294.04c1.96,0,3.97,0.21,5.92,0.6v-5.05c-8.36-1.44-17.71-0.28-22.47,6.88       c-7.18,10.82-4.26,27.81,2.97,36.9c5.02,6.3,12.2,10.22,19.5,10.84v-5.04c-5.76-0.64-11.59-3.9-15.59-8.92       c-6.01-7.55-8.6-22.14-2.71-31.01C424.73,295.52,429.49,294.04,434.64,294.04z"/>
					<path style="fill:#FF8533;" d="M265.34,291.87c-10.56-6.92-25.84-7.12-34.78-0.47c-4.16,3.1-10.52,10.44-6.27,24.75       c3.64,12.26,15.27,20.98,27.1,20.98c1.32,0,2.64-0.11,3.96-0.34c9.67-1.65,17.97-9.49,20.19-19.04       C278,307.16,274.29,297.73,265.34,291.87z M270.67,316.61c-1.77,7.66-8.42,13.93-16.17,15.26       c-10.49,1.79-22.12-6.06-25.42-17.14c-2.54-8.57-1-15.25,4.47-19.32c7.24-5.39,20.28-5.1,29.05,0.64       C266.77,298.78,273.35,305.08,270.67,316.61z"/>
					<path style="fill:#FF8533;" d="M385.24,168.41c1.59,0,3.13,0.18,4.51,0.49c5.52,1.25,10.58,4.35,15.47,7.35l35.34,21.67v-5.87       l-32.73-20.07c-4.99-3.06-10.66-6.53-16.98-7.95c-7.44-1.67-14.6-0.05-19.18,4.35c-4.75,4.56-6.48,12.27-4.32,19.18       c1.83,5.81,6.19,11.09,12.28,14.88c1.3,0.81,2.7,1.6,4.05,2.37c5.81,3.27,11.3,6.37,11.48,11.57       c0.21,5.98-7.21,9.87-10.42,11.26c-0.81,0.36-1.63,0.7-2.46,1.05c-5.33,2.23-11.37,4.75-14.59,10.24       c-4.95,8.44-2.99,14.46-0.48,18.02c8.14,11.54,34.76,15.07,52.28,15.07c5.42,0,9.97-0.34,12.82-0.88       c2.67-0.51,5.45-1.27,8.25-2.27v-5.35c-3.11,1.23-6.21,2.15-9.18,2.71c-11.68,2.21-51.19,0.46-60.08-12.16       c-2.46-3.48-2.23-7.61,0.7-12.61c2.38-4.05,7.15-6.05,12.2-8.16c0.86-0.35,1.71-0.71,2.54-1.07       c8.75-3.82,13.64-9.66,13.42-16.02c-0.28-8.01-7.58-12.13-14.02-15.76c-1.37-0.77-2.66-1.5-3.87-2.25       c-5.08-3.16-8.68-7.47-10.15-12.14c-1.61-5.14-0.4-10.8,3.02-14.08C377.87,169.35,381.68,168.41,385.24,168.41z"/>
					<path style="fill:#FF8533;" d="M333.19,192.52c-4.01-3.6-8.99-5.5-13.78-7.01c-27.02-8.54-56.55-7.84-83.14,1.96       c-6.29,2.32-14.27,5.78-20.2,12.09c-6.84,7.27-9.24,15.01-6.77,21.82c2.57,7.06,9.97,11.97,19.79,13.14       c7.54,0.9,15.16,5.65,22.53,10.24c8.75,5.45,17.75,11.06,27.44,11.06c1.97,0,3.97-0.23,6-0.74c6.3-1.59,11.24-5.86,15.6-9.62       l29.3-25.31c3.3-2.86,7.83-6.76,9-12.32C340.06,202.58,337.85,196.71,333.19,192.52z M334.06,206.8       c-0.76,3.61-3.79,6.47-7.37,9.56l-29.3,25.31c-3.94,3.41-8.4,7.26-13.55,8.56c-9.96,2.51-19.49-3.43-29.58-9.71       c-7.83-4.89-15.93-9.93-24.57-10.96c-7.8-0.93-13.81-4.72-15.69-9.89c-1.79-4.94,0.23-10.86,5.71-16.68       c5.22-5.55,12.52-8.7,18.29-10.83c13.7-5.05,28.21-7.58,42.73-7.58c12.56,0,25.12,1.89,37.17,5.7c4.25,1.34,8.65,3,11.95,5.96       C333.14,199.2,334.79,203.34,334.06,206.8z"/>
					<path style="fill:#FF8533;" d="M305.22,2.61c0.61-0.86,1.23-1.73,1.83-2.61h-6.11c-2.76,3.89-5.57,7.92-7.42,12.53       c-5.09,12.7-1.73,26.14,1.52,39.14c2.78,11.09,5.65,22.55,3.01,33.13c-3.94,15.79-21.39,26.83-37.35,23.61       c-15.95-3.22-27.77-20.15-25.28-36.24c0.47-3.06,1.38-6.37,2.25-9.58c2.61-9.59,5.31-19.51-1.43-27.15       c-4.45-5.04-10.51-6.09-16.88-6.09c-2.27,0-4.58,0.14-6.86,0.27c-4.45,0.25-9.04,0.52-13.05-0.24       c-5.9-1.12-11.32-5.38-14.49-11.41c-3.09-5.86-3.59-12.55-1.36-17.97h-5.32c-1.96,6.38-1.16,13.79,2.26,20.3       c3.87,7.36,10.6,12.59,17.98,13.99c4.62,0.88,9.52,0.59,14.26,0.32c7.86-0.45,15.28-0.88,19.71,4.14       c4.96,5.61,2.72,13.83,0.36,22.53c-0.91,3.34-1.85,6.79-2.37,10.13c-2.88,18.6,10.78,38.18,29.23,41.9       c2.17,0.44,4.36,0.65,6.55,0.65c16.43,0,32.62-11.83,36.64-27.95c2.94-11.79-0.08-23.87-3.01-35.55       c-3.2-12.79-6.22-24.88-1.73-36.07C299.83,10.22,302.45,6.52,305.22,2.61z"/>
					<path style="fill:#FF8533;" d="M375.08,18.43c-20.77-4.34-45.58,5.52-52.07,20.69c-2.95,6.89-4.51,20.79,18.15,36.36       c6.98,4.78,17.12,10.04,28.08,10.04c1.74,0,3.51-0.14,5.29-0.43c14.98-2.45,27.27-17.02,27.4-32.49       C402.09,34.49,392.3,22.04,375.08,18.43z M373.73,80.16c-11.29,1.84-22.4-3.77-29.74-8.81       c-14.83-10.18-20.49-20.65-16.38-30.27c4.64-10.85,21.22-18.67,37.26-18.67c3.11,0,6.2,0.3,9.18,0.92       c8.63,1.8,23.07,8,22.88,29.22C396.82,65.7,386.41,78.08,373.73,80.16z"/>
					<path style="fill:#FF8533;" d="M414.43,108.7c2.24,0,4.44,0.27,6.44,0.78c8.21,2.12,10.4,6.87,13.18,12.89       c1.59,3.44,3.38,7.34,6.51,11v-9c-0.72-1.37-1.35-2.74-1.97-4.09c-2.93-6.36-5.96-12.93-16.47-15.64       c-9.05-2.33-21.82-0.44-27.69,7.63c-4.25,5.86-5.16,12.08-2.71,18.49c6.13,16.05,31.57,27.91,43.19,30.42       c1.63,0.35,3.56,0.71,5.65,0.88v-5.03c-1.42-0.14-2.95-0.38-4.6-0.74c-11.08-2.39-34.44-13.88-39.57-27.31       c-1.84-4.81-1.15-9.31,2.09-13.77C401.71,110.75,408.22,108.7,414.43,108.7z"/>
					<path style="fill:#FF8533;" d="M438.49,63.42c-2.2-6-5.08-11.98-8.12-18.31c-6.63-13.77-13.48-28.01-12.67-42.12       C417.76,2,417.87,1,418.03,0h-5.05c-0.13,0.91-0.22,1.82-0.27,2.71c-0.88,15.39,6.25,30.22,13.15,44.57       c2.99,6.22,5.82,12.09,7.93,17.86c1.91,5.23,4.07,11.11,6.77,16.96V69.02C439.83,67.09,439.15,65.21,438.49,63.42z"/>
					<path style="fill:#FF8533;" d="M145.63,14.56c-1.39-5.06-2.73-9.9-2.76-14.56h-5c0.04,5.37,1.51,10.69,2.94,15.89       c2.14,7.75,4.15,15.06,1.21,21.54c-2.9,6.37-6.79,9.39-11.58,8.99c-2-0.16-4.06-0.89-6.09-2.03l-0.63,5.27       c2.08,0.96,4.2,1.57,6.3,1.75c0.41,0.03,0.84,0.05,1.27,0.05c4.76,0,10.87-2.27,15.28-11.96       C150.27,31.37,147.91,22.83,145.63,14.56z"/>
					<path style="fill:#FF8533;" d="M210.45,111.99c-4.19-15.66-17.81-34.64-34.81-38.98c-10.07-2.58-19.68,0.56-27.78,9.06       c-5.89,6.19-9.78,13.73-13.54,21.02l-20.96,40.6c-0.41,0.79-0.83,1.6-1.24,2.43c-2.33,4.58-4.64,9.65-5.45,15.09       c-0.75,5.07-0.03,9.91,1.97,13.82c0.96,1.91,2.23,3.59,3.77,4.98c3.15,2.83,7.5,4.32,11.99,4.32c2.5,0,5.05-0.46,7.46-1.42       c5.66-2.24,10.61-6.98,13.95-13.33c0.71-1.36,1.39-2.81,2.05-4.22c2.85-6.03,5.53-11.73,10.71-12.3       c5.92-0.66,10.37,6.47,11.99,9.56c0.42,0.79,0.82,1.59,1.23,2.39c2.61,5.15,5.57,10.99,11.28,13.8       c8.78,4.31,14.64,1.92,18.01-0.85C215.36,166.23,213.63,123.89,210.45,111.99z M197.91,174.09c-3.3,2.71-7.43,2.79-12.64,0.23       c-4.21-2.07-6.55-6.69-9.02-11.57c-0.42-0.83-0.84-1.65-1.26-2.46c-4.45-8.44-10.64-12.89-16.97-12.2       c-7.96,0.87-11.53,8.45-14.68,15.14c-0.67,1.42-1.3,2.76-1.96,4.02c-2.78,5.3-6.81,9.21-11.36,11.02       c-5.01,1.98-10.74,1.19-14.26-1.97c-4.09-3.67-4.82-9.82-4.15-14.35c0.84-5.6,3.56-10.87,6.19-15.97l20.96-40.6       c3.6-6.97,7.32-14.19,12.73-19.86c6.87-7.22,14.58-9.8,22.92-7.67c14.6,3.73,27.34,20.94,31.21,35.43       C208.69,124.77,209.83,164.3,197.91,174.09z"/>
				</g>
			</g>
			<path style="fill:#009730;" d="M129.686,0v449.572H91.784c-11.233,0-20.348-9.104-20.348-20.348V20.348     C71.436,9.115,80.551,0,91.784,0H129.686z"/>
		</g>
		<g>
			<path style="fill:#FFFFFF;" d="M367.837,224.786H202.413c-7.082,0-12.824-5.741-12.824-12.824v-98.747     c0-7.082,5.741-12.824,12.824-12.824h165.424c7.082,0,12.824,5.741,12.824,12.824v98.747     C380.661,219.045,374.919,224.786,367.837,224.786z"/>
			<g>
				<path d="M350.934,135.436H219.316c-1.381,0-2.5-1.119-2.5-2.5c0-1.381,1.119-2.5,2.5-2.5h131.617c1.381,0,2.5,1.119,2.5,2.5      C353.434,134.317,352.315,135.436,350.934,135.436z"/>
				<path d="M350.934,165.089H219.316c-1.381,0-2.5-1.119-2.5-2.5c0-1.381,1.119-2.5,2.5-2.5h131.617c1.381,0,2.5,1.119,2.5,2.5      C353.434,163.97,352.315,165.089,350.934,165.089z"/>
				<path d="M350.934,194.741H219.316c-1.381,0-2.5-1.119-2.5-2.5c0-1.381,1.119-2.5,2.5-2.5h131.617c1.381,0,2.5,1.119,2.5,2.5      C353.434,193.622,352.315,194.741,350.934,194.741z"/>
			</g>
		</g>
	</g>
</g>
<g>
</g>
<g>
</g>
<g>
</g>
<g>
</g>
<g>
</g>
<g>
</g>
<g>
</g>
<g>
</g>
<g>
</g>
<g>
</g>
<g>
</g>
<g>
</g>
<g>
</g>
<g>
</g>
<g>
</g>
</svg>
