<svg id="Travel" height="512" viewBox="0 0 1000 1000" width="512" xmlns="http://www.w3.org/2000/svg"><g><path d="m809.435 221.494c-59.141-64.496-141.09-110.599-230.756-129.811-25.551-5.474-51.939-8.251-78.431-8.251-159.036 0-310.859 97.296-377.793 242.104-82.623 178.74-27.066 405.524 126.479 516.296 2.588 1.866 5.246 3.636 7.906 5.403l.816.542c1.36 1.162 2.857 2.16 4.486 2.995 64.943 42.435 148.436 65.794 235.303 65.794 17.896 0 35.904-1.004 53.521-2.98 98.42-11.047 194.429-63.378 263.406-143.57 57.33-66.652 92.765-152.844 99.934-242.968.782-2.925 1-5.952.639-8.972.492-8.153.75-15.147.805-22.075-.837-104.647-37.601-199.572-106.315-274.507z" fill="#fff"/><g><path d="m886.593 486.146c-.571 0-1.086-.375-1.252-.938-44.369-150.267-162.199-262.828-300.191-286.761-.461-.081-.845-.4-1.005-.841-3.893-10.755-13.27-19.269-27.87-25.307-.396-.162-.688-.513-.778-.931-.09-.421.034-.859.328-1.172 17.36-18.385 38.49-31.771 61.107-38.706.374-.114.682-.323 1.015-.566.228-.164.495-.25.767-.25.143 0 .283.025.421.07 53.042 17.996 103.735 47.8 146.599 86.19 75.016 67.184 118.402 162.312 122.164 267.856.024.659-.445 1.23-1.096 1.336-.07.014-.142.02-.209.02z" fill="#fdf39b"/><path d="m496.599 244.108c-23.031 0-63.251-3.969-73.878-30.55-2.87-7.187-2.38-13.777 1.457-19.588 12.831-19.408 60.898-24.799 76.726-25.156.776-.018 1.583-.026 2.425-.026 25.064 0 73.238 7.758 76.135 37.118-3.126 32.781-55.68 37.589-78.13 38.145-1.508.038-3.092.057-4.735.057z" fill="#fcc335"/><path d="m444.783 171.828c-.418 0-.823-.203-1.072-.564-12.836-18.554-32.224-32.37-56.073-39.954-.544-.171-.913-.677-.913-1.246.005-.569.373-1.072.918-1.243 32.569-10.264 66.355-16.109 100.418-17.376.019 0 .034-.002.05-.002.475 0 .913.259 1.145.677 6.827 12.417 9.384 28.378 7.819 48.789-.053.673-.607 1.194-1.28 1.205-18.403.313-36.811 3.816-50.503 9.611-.166.069-.338.103-.509.103z" fill="#fdf39b"/><path d="m546.986 169.001c-11.312-3.436-24.823-5.676-40.165-6.66l-1.586-.083c-.354-.016-.85-.185-1.084-.448-.234-.265-.518-.62-.49-.971 1.435-18.866-.799-34.953-6.638-47.818-.182-.402-.148-.868.088-1.241.238-.371.648-.598 1.089-.604 1.695-.016 3.393-.027 5.09-.027 6.393 0 12.197.138 17.735.416 27.706 1.403 55.956 6.337 83.96 14.666.535.157.909.637.934 1.194.025.555-.306 1.065-.825 1.271-21.376 8.448-40.925 22.129-56.54 39.563-.285.373-.859.773-1.348.773-.074-.002-.148-.011-.22-.031z" fill="#ff0001"/><path d="m114.852 474.979c-.649-.117-1.11-.702-1.073-1.36l.093-2.073c4.688-75.274 32.336-147.254 79.958-208.154 46.227-59.12 107.837-103.837 178.176-129.318.143-.052.297-.079.445-.079.139 0 .273.022.404.065.076.024.364.157.436.195 27.916 6.006 50.137 19.714 64.191 39.624.213.301.287.677.209 1.036-.082.357-.309.668-.628.851-11.257 6.442-18.295 14.789-20.917 24.81-.152.575-.675.976-1.264.976-.014 0-.022-.002-.036-.002l-.67-1.354v1.305c-137.18 23.494-254.065 130.485-297.844 272.579-.17.555-.684.922-1.248.922-.077 0-.153-.007-.232-.023z" fill="#ff811d"/><path d="m265.982 819.044c-.262 0-.525-.08-.75-.238-29.625-20.879-55.395-45.703-76.592-73.791-47.297-62.664-73.404-142.9-75.504-232.04 32.586-155.965 153.27-278.275 300.334-304.649.076-.016.152-.022.229-.022.307 0 .599.105.838.304.296.245.467.611.472.996.071 14.801 11.252 25.963 33.233 33.174.465.153.807.556.883 1.041.074.486-.128.972-.525 1.26-62.23 44.924-112.146 122.339-152.6 236.663-29.09 82.201-57.689 207.174-28.744 335.709.119.529-.1 1.072-.547 1.374-.221.145-.475.219-.727.219z" fill="#fdf39b"/><path d="m494.181 888.339c-13.09 0-26.309-.572-39.293-1.709-64.75-5.657-126.395-26.43-178.283-60.074-.276-.18-.477-.459-.555-.781-24.967-100.193-16.838-213.256 24.164-336.046 39.158-117.264 92.365-199.238 158.154-243.649.191-.21.367-.281.574-.281.137 0 .289.031.472.074 12.847 2.977 25.352 4.16 33.581 4.628 2.29.13 4.764.2 7.345.213.557.005 1.051.362 1.229.891 37.268 110.65 42.305 235.001 42.318 342.049.007 64.615-3.558 122.45-10.899 176.808-5.372 39.79-12.125 81.608-30.126 117.104-.22.432-.658.706-1.142.713-2.509.04-5.025.06-7.539.06z" fill="#00edef"/><path d="m512.097 887.981c-.438 0-.846-.22-1.089-.584-.252-.383-.288-.865-.093-1.279 15.689-33.218 22.037-70.301 27.664-108.545 7.609-51.754 11.385-108.238 11.886-177.76.731-101.143-3.357-232.058-41.782-347.607-.129-.387-.07-.812.162-1.146.229-.337.603-.547 1.01-.569 17.337-.89 33.752-4.326 46.219-9.671.166-.07.34-.105.515-.105.257 0 .513.076.731.225 63.998 43.286 113.116 121.78 150.163 239.968 25.536 81.465 49.005 205.735 15.808 335.128.002.037-.009.665-.011.703-.024.392-.223.749-.542.979-59.699 42.814-132.521 67.111-210.59 70.264-.016-.003-.034-.001-.051-.001z" fill="#fdf39b"/><path d="m733.214 809.58c-.245 0-.49-.069-.704-.207-.468-.299-.692-.858-.566-1.398 23.807-101.39 16.862-217.279-20.079-335.139-34.84-111.151-84.223-190.039-146.773-234.47-.36-.255-.567-.673-.549-1.113.016-.438.254-.841.629-1.068 11.945-7.198 18.88-16.708 20.616-28.266.137-.437.164-.76.185-1.021.031-.369.221-.763.515-.987.243-.185.546-.315.851-.315.063 0 .123.005.186.016 145.467 27.292 265.937 153.544 299.771 314.159-6.892 101.837-52.054 196.604-127.144 267.203-8.189 7.7-16.981 15.213-26.136 22.33-.236.181-.519.276-.802.276z" fill="#abff1d"/><path d="m266.912 701.503c-1.23-4.255-3.229-8.26-4.678-12.461-1.543 47.805 3.035 93.473 13.816 136.732.078.322.278.602.555.781 51.889 33.645 113.533 54.417 178.283 60.074 12.984 1.137 26.203 1.709 39.293 1.709 2.514 0 5.03-.02 7.54-.063.483-.007.922-.281 1.142-.713 18.001-35.495 24.754-77.313 30.126-117.104.493-3.643.925-7.344 1.381-11.019-81.964 73.428-246.884 13.22-267.458-57.936z" fill="#00b1b5"/><path d="m887.294 519.771c-2.816-13.371-6.287-26.479-10.27-39.336-4.102 18.342-10.119 36.336-18.033 53.347-18.127 38.958-46.484 74.363-82.93 97.61-9.822 6.265-20.303 11.497-31.385 15.098 3.39 56.412-.824 110.762-12.733 161.485-.126.54.099 1.1.566 1.398.214.138.459.207.704.207.283 0 .566-.095.801-.276 9.154-7.117 17.946-14.63 26.136-22.33 75.09-70.599 120.252-165.367 127.144-267.203z" fill="#97b618"/><path d="m723.279 816.737c.002-.038.013-.666.011-.703 14.557-56.736 18.215-112.482 15.584-164.072-8.491 13.022-18.336 24.992-29.908 35.637-32.354 29.764-75.643 47.994-119.388 51.533-13.481 1.088-27.319 1.066-40.446-2.517-1.764-.481-3.526-1.022-5.285-1.601-1.492 14.621-3.24 28.765-5.268 42.559-5.627 38.244-11.975 75.327-27.664 108.545-.195.414-.159.896.093 1.279.243.364.651.584 1.089.584.018 0 .035-.002.051-.002 78.069-3.152 150.891-27.449 210.59-70.264.319-.229.517-.586.541-.978z" fill="#f5b179"/><path d="m257.435 655.276c-40.525 12.696-161.591 6.321-111.814-237.261-3.377 6.942-6.551 14.01-9.548 21.176-.229.551-.478 1.096-.704 1.648-1.07 2.586-2.078 5.208-3.096 7.823-.641 1.646-1.293 3.287-1.912 4.947-.873 2.334-1.709 4.686-2.541 7.043-.713 2.021-1.421 4.05-2.104 6.087-.724 2.156-1.428 4.324-2.118 6.496-.742 2.348-1.461 4.709-2.164 7.074-.58 1.956-1.164 3.91-1.717 5.878-.787 2.812-1.529 5.64-2.258 8.476-.412 1.597-.846 3.184-1.239 4.787-1.095 4.481-2.134 8.985-3.083 13.523 2.1 89.14 28.207 169.376 75.504 232.04 21.197 28.088 46.967 52.912 76.592 73.791.225.158.488.238.75.238.252 0 .506-.074.727-.22.447-.302.516-.834.547-1.374-12.568-55.799-14.279-110.922-9.822-162.172z" fill="#f5b179"/><path d="m765.733 216.936c-9.476-8.486-19.352-16.527-29.533-24.139 2.937 4.904 5.809 9.847 8.547 14.865 9.48 17.378 17.65 35.476 23.917 54.266 4.437 13.296 7.87 26.997 10.146 40.878 48.164 48.801 85.56 111.381 106.531 182.402.166.563.681.938 1.252.938.067 0 .14-.006.209-.018.65-.105 1.12-.677 1.096-1.336-3.762-105.545-47.149-200.673-122.165-267.856z" fill="#f5b179"/><path d="m501.334 244.051c22.45-.556 75.004-5.363 78.13-38.145-.209-2.132-.686-4.135-1.348-6.044-21.875 28.891-135.308 31.218-151.81-8.527-.761.856-1.521 1.716-2.128 2.636-3.837 5.811-4.327 12.401-1.457 19.588 10.627 26.581 50.847 30.55 73.878 30.55 1.643-.001 3.227-.02 4.735-.058z" fill="#f0a02b"/><g fill="#fff9d1"><path d="m441.871 240.398c-17.725-7.195-26.799-17.517-26.862-30.795-.005-.385-.176-.751-.472-.996-.239-.198-.531-.304-.838-.304-.076 0-.152.007-.229.022-87.424 15.678-165.521 65.263-221.336 135.661.596 5.51 1.811 10.942 3.872 16.139 9.899 24.929 34.212 36.926 60.253 33.316 27.946-3.872 49.379-23.182 68.631-42.319 22.622-22.491 45.072-45.162 67.721-67.627 11.239-11.146 22.654-22.167 34.873-32.243 4.637-3.826 9.465-7.408 14.387-10.854z"/><path d="m654.603 395.438c-7.528-19.782-15.338-39.772-26.446-58.14-64.935-107.38-99.837-68.406-88.202-23.613 5.922 22.795 24.92 106.14 30.958 128.907 4.526 17.071 6.44 39.414 21.925 52.344 12.826 10.711 32.775 10.438 47.934 3.065 18.638-9.063 27.283-25.766 28.094-43.246.936-20.254-7.053-40.373-14.263-59.317z"/><path d="m693.267 181.715c-11.844-13.519-31.637-21.326-48.972-24.242-10.076-1.695-20.15-2.182-30.256-.666-39.474 5.921-33.802 33.845 15.855 39.84 10.114 1.221 19.446 6.028 28.706 10.22 4.592 2.08 9.141 4.25 13.706 6.389 4.49 2.103 9.156 4.839 14.011 5.937 8.914 2.017 15.681-4.803 16.465-13.411.803-8.809-3.894-17.649-9.515-24.067z"/><path d="m477.076 140.142c-.544-4.04-.926-7.368-3.4-10.244-4.711-5.472-15.053-17.124-30.867-8.726-3.006 1.597-10.363 6.654-1.455 22.503 1.188 2.116 2.368 4.276 4.088 5.99 3.73 3.722 8.757 5.453 13.963 5.617 5.207.162 10.521-2.591 14.276-6.011 2.572-2.345 3.856-5.693 3.395-9.129z"/></g><path d="m543.184 157.135c3.161-2.57 5.802-4.637 6.964-8.245 2.209-6.875 6.751-21.778-8.668-30.886-2.93-1.729-11.084-5.365-19.955 10.504-1.183 2.118-2.41 4.252-2.975 6.615-1.229 5.125-.081 10.314 2.496 14.839 2.579 4.528 7.701 7.625 12.578 9.042 3.342.972 6.868.319 9.56-1.869z" fill="#ff525b"/><path d="m504.257 301.727c-17.8-55.77-66.081-29.743-83.438-8.602-13.942 16.982-26.615 35.329-35.714 54.874-10.047 21.59-18.407 44.002-25.036 66.871-6.04 20.827-11.909 42.678-11.414 64.543.427 18.84 7.048 37.982 23.565 48.524 15.557 9.93 36.344 9.339 52.906 2.289 40.332-17.169 54.619-66.904 65.098-105.415 7.313-26.874 12.211-54.351 14.91-82.065 1.313-13.465 3.322-27.874-.877-41.019z" fill="#8afbfb"/><path d="m761.036 335.978c-8.286-14.396-19.226-27.224-30.195-39.623-11.535-13.04-23.896-25.23-37.84-35.697-15.313-11.495-33.042-20.654-51.879-24.609-8.08-1.696-63.502-17.038 36.547 103.732 12.363 14.922 22.896 31.271 34.617 46.698 8.528 11.228 19.232 23.271 34.645 22.683 15.006-.571 23.031-12.898 24.637-26.755 1.796-15.499-2.817-33.022-10.532-46.429z" fill="#ceff73"/><path d="m390.083 153.207c-16.006-3.573-33.522-.563-48.729 5.156-7.734 2.909-14.926 6.926-21.779 11.556-7.156 4.83-15.066 11.221-9.936 20.647 4.484 8.245 14.05 11.162 22.703 12.32 8.514 1.138 17.35 1.416 25.932.863 19.527-1.262 37.57-7.257 52.361-20.62 4.624-4.18 12.976-22.437-20.552-29.922z" fill="#fccd1a"/><path d="m503.329 168.788c-.842 0-1.648.009-2.425.026-9.366.212-29.999 2.215-47.963 7.814.022 6.273 3.782 15.417 34.373 20.953 17.162 3.105 38.409.236 54.898-5.436 5.945-2.046 13.775-4.735 14.707-11.96.035-.286-.002-.563.014-.846-16.746-7.927-39.061-10.551-53.604-10.551z" fill="#fde334"/><path d="m895.433 519.986c-.055-.266-.124-.531-.178-.796.492-7.664.85-15.341.912-23.031-.779-97.68-34.988-189.266-101.164-261.432-57.753-62.982-137.193-106.062-220.426-123.896-174.459-37.378-360.411 62.962-434.349 222.923-76.574 165.657-29.48 384.243 120.16 492.196 3.113 2.246 6.341 4.334 9.533 6.47.475.591 1.092.944 1.752 1.187 79.945 52.736 183.103 71.074 277.109 60.521 97.757-10.975 187.096-62.885 250.744-136.881 56.318-65.475 89.146-148.526 95.447-234.205.45-.865.702-1.868.46-3.056zm-8.84-35.146c-41.24-139.676-154.231-262.186-301.22-287.679-4.507-12.446-15.509-20.654-28.599-26.066 16.503-17.479 37.547-31.304 60.541-38.355.564-.173.989-.461 1.398-.758 53.966 18.309 104.289 48.434 146.15 85.926 76.656 68.652 118.101 165.11 121.73 266.932zm-385.291-242.094c-23.952.596-66.699-2.978-77.367-29.671-13.834-34.609 58.409-42.536 76.999-42.956 22.691-.513 74.31 6.308 77.23 35.915-2.983 31.048-54.107 36.148-76.862 36.712zm-13.192-129.997c7.851 14.278 8.896 31.962 7.661 48.061-15.644.266-34.989 2.941-50.988 9.712-13.836-20.004-34.002-33.222-56.75-40.456 32.062-10.103 65.666-16.038 100.077-17.317zm32.85.119c28.297 1.433 56.379 6.501 83.654 14.611-21.705 8.579-41.541 22.608-57.032 39.907-.105.117-.126.247-.216.364-13.931-4.229-28.93-5.973-40.463-6.712-.627-.041-1.288-.07-1.939-.102 1.225-16.114-.008-33.6-6.75-48.456 7.553-.078 15.13.003 22.746.388zm-148.509 22.433c.18.059.296.173.494.216 25.217 5.426 48.409 17.78 63.471 39.115-10.515 6.018-18.583 14.342-21.533 25.612-.333-.009-.63-.088-.984-.027-144.267 24.716-256.669 136.683-298.816 273.478.041-.688.047-1.381.09-2.069 9.688-155.518 117.043-285.523 257.278-336.325zm-182.77 608.927c-50.006-66.255-73.301-148.92-75.24-231.284 31.256-149.444 146.457-275.929 299.258-303.333.091 18 15.867 28.414 34.135 34.408-76.539 55.257-122.516 150.951-153.066 237.286-37.568 106.166-53.758 225.534-28.785 336.434-28.689-20.218-54.546-44.686-76.302-73.511zm265.322 141.103c-63.786-5.574-125.116-25.783-177.688-59.871-27.584-110.699-11.578-228.36 24.139-335.318 29.48-88.289 78.02-189.229 157.646-242.981.009-.004.013-.011.021-.018 12.779 2.964 25.452 4.187 33.801 4.661 2.311.131 4.807.2 7.412.216 36.47 108.291 42.234 228.273 42.248 341.633.007 58.974-2.99 118.167-10.886 176.632-5.271 39.037-11.956 81.117-29.997 116.688-15.483.256-31.069-.277-46.696-1.642zm57.094 1.344c15.972-33.819 22.392-72.328 27.772-108.914 8.651-58.834 11.473-118.531 11.899-177.938.832-115.041-5.241-237.946-41.848-348.027 14.914-.767 32.19-3.568 46.667-9.775 78.449 53.06 122.323 152.1 149.648 239.278 33.507 106.896 43.817 225.17 15.79 334.412-.088.342-.029.627-.049.944-61.657 44.219-134.305 66.969-209.879 70.02zm247.158-100.653c-8.404 7.904-17.105 15.303-26.041 22.251 25.999-110.726 13.66-228.108-20.104-335.828-26.898-85.813-71.667-181.445-147.264-235.143 11.115-6.698 19.273-16.143 21.231-29.189.145-.351.169-.785.205-1.217 153.293 28.761 267.427 164.53 298.734 313.145-6.912 101.409-52.281 195.956-126.761 265.981z" fill="#68182b"/></g></g></svg>