<svg id="Food" height="512" viewBox="0 0 1000 1000" width="512" xmlns="http://www.w3.org/2000/svg"><g><path d="m922.276 393.234c-2.242-20.067-12.979-30.724-21.08-38.76-4.854-4.817-9.047-8.978-12.203-15.334-1.479-2.979-2.895-5.974-4.302-8.945-10.278-21.725-21.927-46.345-52.934-56.994-13.817-4.745-28.128-5.892-41.971-7-17.961-1.438-33.604-2.69-43.83-11.181-5.709-9.284-12.497-16.95-20.23-22.845-6.907-7.428-16.286-15.5-30.123-19.224-9.303-13.689-21.421-24.442-36.13-32.047-28.38-14.668-62.869-17.746-86.803-17.746-19.949 0-41.311 2.121-61.021 6.024-24.896-17.079-52.457-26.057-80.243-26.057-5.795 0-11.661.396-17.437 1.172-55.806 7.521-115.682 30.228-173.158 65.671-26.315 16.229-86.072 53.084-93.844 110.48-25.24 19.912-47.693 47.035-66.83 80.756-17.98 31.69-40.732 78.703-32.309 123.039-2.453 50.396 15.125 109.086 59.506 128.563 1.354 3.688 2.772 7.188 4.276 10.561 18.64 41.761 43.097 80.347 70.724 111.597 10.112 11.438 37.061 38.039 68.801 38.039 2.952 0 5.869-.232 8.729-.693 8.936 5.727 18.67 8.979 28.703 9.563 4.834 3.23 10.082 5.56 15.693 6.959 10.93 4.326 23.646 6.63 37.836 6.849 1.471.021 2.94.031 4.409.031 4.114 0 8.224-.076 12.329-.156 3.854-.074 7.704-.148 11.561-.148 4.055 0 7.576.088 10.768.269 7.554.428 13.848 3.766 21.816 7.99 5.162 2.737 11.016 5.842 17.76 8.366 7.801 2.922 15.806 4.402 23.793 4.402 17.808 0 33.217-7.353 44.651-13.76 38.297-21.455 53.956-68.843 36.424-110.224-7.456-17.604-17.843-32.535-27.888-46.975-5.296-7.613-10.301-14.807-14.832-22.285-.113-.188-.226-.371-.338-.557.423-10.277-1.54-20.263-5.783-29.504 3.366-12.763 3.182-26.777-.553-41.834.914-2.326 1.739-4.689 2.475-7.084 8.738-3.404 16.656-8.855 23.69-16.308 3.05.205 6.079.312 9.074.312 28.448 0 54.604-8.996 77.857-26.748 1.602.065 3.189.102 4.759.102 20.249 0 38.535-5.436 54.544-16.184 13.783 8.287 30.056 16.487 48.422 16.487 4.711 0 9.388-.555 13.892-1.649 5.658-1.373 11.008-3.326 16.135-5.894 6.316 5.189 13.891 9.843 22.402 12.115 9.284 2.48 18.147 2.711 25.971 2.916 2.191.058 4.281.113 6.273.209 6.579 17.131 20.752 30.789 41.127 39.289 10.928 4.56 23.559 6.967 36.526 6.967 14.935 0 29.297-3.117 41.527-9.016 38.589-18.607 48.896-55.328 54.289-92.238 5.514-37.748-3.279-69.653-26.136-94.83-2.053-2.269-4.316-4.444-6.764-6.508z" fill="#fff"/><g><path d="m491.916 399.537c-12.6 0-22.485-8.542-31.291-17.774-50.465-52.904-119.075-84.489-183.536-84.489-27.08 0-53.258 5.365-77.799 15.948-7.839 3.379-15.615 7.47-23.109 12.152-.211.133-.452.2-.693.2-.243 0-.489-.069-.702-.207-.427-.271-.654-.764-.593-1.264 1.242-9.759 4.609-19.436 10.017-28.756 18.133-16.374 42.167-23.854 75.895-23.854 7.547 0 15.729.375 25.021 1.144 38.862 3.215 71.878 11.414 98.319 24.399-10.606-6.701-23.195-11.179-34.588-14.934-19.866-6.546-41.857-10.777-67.233-12.941-6.836-.58-13.558-.877-19.981-.877-14.509 0-28.226 1.509-40.771 4.482-6.146 1.454-15.273 4.187-23.88 8.936-.199.11-.416.164-.632.164-.38 0-.755-.169-1.013-.48-.397-.487-.391-1.189.019-1.672 22.819-26.838 59.205-46.922 85.771-61.588l.614-.34c38.606-21.313 95.524-46.725 147.437-46.725 12.74 0 24.705 1.561 35.563 4.637 54.896 15.556 93.642 78.359 107.689 133.698.014.061.158.686.165.749.827 7.789.509 15.563-.927 22.481-1.992 9.628-9.42 17.633-22.705 24.469-10.28 5.287-22.232 8.122-31.834 10.398-1.985.47-3.986 1.018-5.992 1.565-5.529 1.509-11.248 3.066-16.744 3.066-4.33 0-8.124-.979-11.49-2.983 2.851 3.941 7.045 5.743 13.121 5.743 3.988 0 8.426-.757 12.713-1.486 13.103-2.233 28.434-5.434 42.817-12.239 10.715-5.068 18.552-13.294 22.659-23.782.201-.506.687-.83 1.217-.83.072 0 .146.008.219.021.609.104 1.063.621 1.086 1.239.277 7.525-.207 14.344-1.478 20.841-2.051 10.489-15.507 14.571-26.32 17.852-3.23.98-6.285 1.907-8.638 2.893-7.328 3.066-14.519 6.941-21.467 10.688-2.25 1.21-4.491 2.419-6.74 3.604-7.487 3.937-14.086 5.852-20.186 5.852z" fill="#ff915b"/><path d="m249.435 786.248c-25.765 0-51.553-34.457-63.945-51.018l-.506-.676c-21.311-28.465-38.798-58.851-50.573-87.879-23.388-57.636-9.373-118.761 34.866-152.106 23.345-17.594 54.207-26.896 89.252-26.896 25.605 0 52.826 4.878 78.713 14.104 27.221 9.702 53.416 28.132 77.857 54.781 6.149 6.709 21.426 24.776 30.377 47.645.24.621-.021 1.322-.607 1.633-.192.103-.401.15-.608.15-.42 0-.83-.203-1.078-.572l-.623-.918c-10.395-14.897-23.748-26.875-37.844-34.182 12.104 8.625 22.08 19.867 29.845 29.354 7.106 8.687 12.35 18.037 15.59 27.798.792 2.389 1.237 4.955 1.399 8.084-.156 4.043-.728 7.83-1.696 11.375-.124.45-.478.801-.929.92-.109.026-.222.043-.33.043-.348 0-.683-.138-.933-.392-6.395-6.5-14.706-12.116-24.7-16.698-13.222-8.396-31.646-12.607-54.923-12.607-10.079 0-20.678.801-31.493 2.379-19.608 2.863-45.828 8.355-58.254 23.289 12.979-10.256 30.545-16.688 53.419-19.596.056-.006.109-.01.167-.01.6 0 1.135.418 1.27 1.02.148.656-.227 1.318-.865 1.527-19.488 6.377-37.329 17.03-51.596 30.813-26.222 25.334-41.834 62.805-40.748 97.783.497 15.994 7.662 34.67 18.252 47.588.277.336.367.791.238 1.207-.125.418-.453.744-.871.869-2.62.792-5.352 1.188-8.123 1.188z" fill="#ff915b"/><path d="m447.257 828.298c-12.287.002-23.816-5.552-34.441-11.548-11.106-6.271-23.424-8.125-38.504-8.975-3.541-.203-7.074-.27-10.593-.27-3.887 0-7.762.082-11.632.166-3.888.082-7.769.168-11.652.168-8.174 0-14.519-.377-20.571-1.222-3.066-.43-6.004-1.225-8.73-2.366-11.594-9.295-19.316-18.39-22.959-35.556-3.541-16.703-.703-33.055 3.263-51.037-14.925 14.728-16.605 51.703-2.654 74.539.263.431.256.97-.019 1.39-.241.375-.657.598-1.096.598-.056 0-.11-.004-.164-.01-29.109-3.701-41.668-43.658-40.988-69.498.62-23.689 11.701-49.984 31.199-74.043 16.416-20.256 39.11-33.525 69.381-40.57 6.932-1.615 15.526-2.467 24.855-2.467 40.428 0 81.893 14.928 83.401 48.279.022.557-.307 1.067-.826 1.272-.153.062-.315.092-.479.092-.373 0-.74-.162-.992-.459-3.387-3.961-7.621-7.455-12.578-10.389-4.008-2.484-8.258-4.467-13.022-6.08-.154-.053-.316-.061-.587-.072-.114-.004-.482-.032-.594-.067-3.582-1.113-7.352-2.006-11.198-2.652-2.714-.459-5.726-.689-8.947-.689-12.719 0-28.183 3.796-35.597 12.22 2.345-.541 4.733-1.121 7.107-1.699 9.649-2.348 18.766-4.564 28.961-4.564.619 0 1.242.009 1.867.025 5.328.146 10.526 1.144 15.893 3.047.789.549 1.118.74 1.482.863 3.45 1.168 6.573 2.555 9.553 4.24l.646.362c11.781 6.906 18.07 17.34 25.354 29.422l1.651 2.736c4.537 7.488 9.736 14.764 14.763 21.795 4.521 6.324 9.194 12.863 13.402 19.574 3.825 6.104 6.909 12.516 9.159 19.055.191.558-.014 1.172-.498 1.504-.224.152-.479.229-.735.229-.303 0-.605-.105-.849-.313-5.188-4.426-12.044-7.053-20.372-7.807-1.369-.123-2.775-.184-4.2-.184-22.099 0-48.405 14.237-53.819 35.133 12.691-18.875 31.234-29.697 52.601-30.601.631-.026 1.268-.041 1.899-.041 11.146 0 20.481 4.086 25.611 11.214 2.523 3.508 3.983 7.698 4.461 12.813.467 23.475-11.758 43.34-34.418 56.035-7.696 4.311-15.151 6.408-22.795 6.408z" fill="#ff915b"/><path d="m119.876 628.121c-.171 0-.344-.034-.508-.104-22.13-9.34-31.914-34.566-38.564-58.016-9.422-33.222-6.369-66.955 8.832-97.553 24.336-48.981 90.555-71.199 144.412-75.658 6.139-.508 12.397-.765 18.601-.765 47.727 0 95.366 15.068 134.146 42.43 37.832 26.688 83.063 87.577 65.172 139.392-.176.506-.646.854-1.183.877-.018 0-.034.002-.053.002-.516 0-.985-.307-1.195-.781-3.918-8.904-9.167-18.338-15.594-28.035-17.949-27.09-45.434-50.815-77.395-66.806-15.586-9.177-33.863-14.771-46.261-18.183-18.799-5.175-39.791-7.799-62.397-7.799-5.953 0-12.025.188-18.041.563-19.096 1.189-39.007 6.598-60.871 16.537-13.596 6.182-23.824 13.071-30.883 20.845 24.266-23.746 66.01-34.026 97.826-35.471.02 0 .04-.002.059-.002 1.855 0 2.021 2.374.159 2.601-29.964 3.704-56.224 14.438-75.939 31.045-36.97 31.141-51.57 80.96-39.053 133.27.114.479-.052.979-.427 1.301-.238.201-.539.31-.843.31z" fill="#ff915b"/><path d="m463.438 560.098c-.299 0-.594-.105-.832-.299-.317-.263-.492-.662-.473-1.076 2.41-45.668-31.115-91.578-60.558-117.015-38.703-33.441-92.262-51.86-150.813-51.86-10.186 0-20.479.575-30.596 1.712-49.857 5.592-112.81 31.146-139.974 86.09-.225.459-.686.729-1.17.729-.153 0-.311-.029-.463-.086-.629-.238-.974-.915-.796-1.564 3.397-12.446 8.251-24.321 12.991-35.3 13.231-30.649 31.51-58.882 52.855-81.646 33.734-35.977 81.734-55.789 135.153-55.789 16.658 0 33.487 1.947 50.022 5.792 12.392 2.879 24.861 7.241 38.125 13.342 2.049.943.748 2.888-.889 2.444-8.891-2.406-18.531-4.567-28.652-6.42-20.159-3.692-39.096-5.565-56.278-5.565-28.258 0-51.709 5.041-69.84 15.003 19.159-5.65 37.303-10.223 57.562-11.285 3.948-.207 8.021-.313 12.106-.313 16.938 0 35.034 1.756 55.323 5.365 28.162 5.01 54.635 14.946 80.929 30.377 9.102 6.696 17.401 14.936 25.428 22.905 11.92 11.837 24.25 24.076 38.94 31.049 2.787 1.32 5.851 1.993 9.104 1.993 10.173 0 20.881-6.308 30.328-11.873 2.797-1.646 5.461-3.216 7.942-4.521 3.179-1.67 8.373-3.355 14.388-5.313 14.072-4.571 33.344-10.834 36.463-20.684 17.057-53.869-22.633-116.679-40.487-141.183-7.079-9.714-15.089-18.604-23.807-26.419-.401-.363-.874-1.951.616-2.252 16.241-3.246 33.506-4.894 51.313-4.894 21.73 0 43.187 2.543 62.043 7.354 50.136 12.79 59.605 60.469 62.254 100.58 3.269 49.488-2.312 145.226-43.957 190.131-14.794 15.954-32.975 24.146-54.035 24.344-.002 0-.007 0-.012 0-.524 0-1.002-.317-1.205-.805-.205-.492-.09-1.059.291-1.434 4.445-4.377 8.791-9.488 14.092-16.577 12.218-16.334 17.718-29.954 16.382-40.534-7.035 13.021-14.925 25.514-23.463 37.162l-.585.812-1.586 2.064c-23.676 30.51-52.872 45.971-86.795 45.971-3.81.002-7.723-.203-11.631-.604-.436-.043-.817-.304-1.022-.689-.201-.387-.199-.848.01-1.231 2.354-4.314 4.565-9.154 6.58-14.384 6.557-16.213 8.268-32 4.774-42.987l-1.096 4.768c-6.207 27.27-12.628 55.466-36.644 71.542-2.615 1.355-5.28 2.349-8.049 3.035-.095.024-.2.038-.306.038z" fill="#ff915b"/><path d="m699.442 513.686c-15.738 0-31.428-8.773-46.145-17.757-.334-.202-.558-.542-.612-.927-.056-.385.062-.773.319-1.063 7.256-8.077 13.793-18.092 19.434-29.768 2.844-3.908 5.09-7.283 6.99-10.521 7.024-11.967 13.332-24.933 19.283-39.64 10.393-25.683 15.637-50.888 15.647-75.114-3.617 26.534-10.082 51.513-19.272 74.425-1.88 4.68-4.068 9.624-6.896 15.559-.223.466-.688.744-1.179.744-.153 0-.307-.026-.456-.084-.635-.234-.982-.917-.803-1.568 14.883-53.931 13.369-111.871 12.551-128.346-1.216-24.454-4.742-43.01-11.103-58.396-.188-.458-.101-.985.227-1.358.252-.287.611-.447.982-.447.111 0 .226.017.334.046 12.399 3.286 20.906 13.99 29.136 24.34 2.129 2.678 4.241 5.338 6.409 7.85l.519.794c.477.753.951 1.507 1.395 2.29 9.58 16.902 11.656 36.169 13.576 54.842 3.25-12.618 2.301-28.556-2.666-44.061-.162-.503-.002-1.057.402-1.396.24-.201.539-.308.841-.308.206 0 .413.05.604.15 12.101 6.325 27.616 7.345 41.305 8.243l4.354.294c33.446 2.368 58.987 11.396 74.929 47.746.813 1.859 1.604 3.809 2.41 5.79 2.64 6.501 5.367 13.226 9.548 18.284 2.645 3.202 5.612 5.986 8.485 8.676 7.263 6.803 14.122 13.229 15.097 25.298.035.459-.172.901-.545 1.17-.226.159-.49.242-.759.242-.177 0-.356-.038-.524-.112-11.886-5.225-26.89-7.987-43.396-7.987-8.651 0-17.783.773-26.396 2.233-32.541 5.521-51.07 33.545-64.902 60.226-8.68 16.75-17.605 33.979-31.487 47.709-7.98 7.898-17.278 11.902-27.636 11.902z" fill="#ff915b"/><path d="m859.485 568.314c-17.217 0-33.719-6.047-45.271-16.588-12.439-11.354-14.365-27.607-5.42-45.762 11.355-17.873 17.679-26.213 30.923-35.194 8.076-5.479 20.247-11.615 37.234-14.586-2.201-.29-4.45-.437-6.717-.437-12.385 0-25.728 4.416-37.576 12.438-10.75 7.369-19.198 16.663-24.769 27.112-4.828 8.179-7.9 16.69-8.984 24.819-.426 3.19.401 4.19-3.983 3.377-7.355-1.362-14.704-1.391-21.829-1.42-14.267-.061-25.613-5.119-35.713-15.914-.261-.276-.386-.649-.346-1.026.038-.377.238-.716.546-.935 7.298-5.131 13.613-12.228 18.834-18.496 1.539-1.851 3.205-3.774 4.931-5.768 8.594-9.928 18.188-21.014 21.301-32.763-6.513 9.964-14.504 19.21-22.265 28.187-2.178 2.52-4.344 5.023-6.462 7.528-.349.409-.7.787-1.056 1.167l-.611.664c-.26.285-.614.434-.973.434-.278 0-.561-.09-.796-.271-.542-.416-.67-1.179-.297-1.749 5.077-7.918 9.284-15.921 13.354-23.66 7.477-14.224 15.207-28.933 27.049-41.181 16.473-17.041 39.106-20.615 55.19-20.615 16.838 0 34.39 3.9 49.42 10.986 19.267 9.082 31.711 28.241 35.04 53.95 4.499 34.729-8.471 72.502-31.54 91.86-.241.203-.539.305-.838.305-.283 0-.568-.094-.805-.277-.486-.381-.639-1.051-.367-1.604 1.842-3.748 3.024-7.781 3.514-11.986 2.091-17.938-12.547-39.151-29.344-43.886.889.798 1.771 1.585 2.648 2.367 11.367 10.128 22.104 19.695 22.522 37.558.293 12.529-6.041 22.066-19.362 29.158-5.677 1.503-11.361 2.208-17.182 2.208z" fill="#ff915b"/><path d="m498.289 745.328c.242.207.546.313.849.313.01 0 .016-.008.024-.008-.709-.541-1.36-1.105-2.137-1.613-.938-.619-1.934-1.139-2.924-1.662 1.5.876 2.895 1.869 4.188 2.97z" fill="#666"/><path d="m494.067 742.337c-.801-.423-1.613-.806-2.438-1.166.812.386 1.674.718 2.438 1.166z" fill="#666"/><path d="m498.289 745.328c.242.207.546.313.849.313.01 0 .016-.008.024-.008-.709-.541-1.36-1.105-2.137-1.613-.938-.619-1.934-1.139-2.924-1.662 1.5.876 2.895 1.869 4.188 2.97z" fill="#666"/><path d="m494.067 742.337c-.801-.423-1.613-.806-2.438-1.166.812.386 1.674.718 2.438 1.166z" fill="#666"/><path d="m606.875 495.136c3.236-4.326 5.969-8.45 8.261-12.391 3.451-2.317 6.854-4.718 10.061-7.502 6.295-5.459 12.117-11.466 17.461-17.859 11.199-13.404 20.037-28.745 26.83-44.814 7.697-18.212 12.66-37.438 16.355-56.823 3.571-18.754 5.963-38.043 5.789-57.175.021.3.051.605.069.904 3.269 49.487-2.312 145.226-43.957 190.131-14.794 15.954-32.975 24.146-54.034 24.344-.003 0-.008 0-.013 0-1.168 0-1.756-1.409-.914-2.238 4.446-4.376 8.791-9.488 14.092-16.577zm-108.208 250.197c.747.639 2.521.955 1.704-1.425-2.25-6.539-5.334-12.949-9.16-19.055-4.207-6.711-8.881-13.25-13.401-19.574-5.025-7.031-10.226-14.307-14.763-21.795l-1.651-2.736c-24.302-48.228-65.247-38.978-80.896-35.373 9.125-.375 16.862 1.748 23.178 4.152 7.511 2.859 14.356 7.055 19.662 13.178 5.279 6.097 7.34 13.306 10.506 20.543 3.166 7.238 8.286 12.931 14.124 18.146 5.719 5.111 11.694 9.852 16.688 15.719 4.796 5.635-.344 7.148-5.213 8.986-3.589 1.354-6.885 2.803-10.188 4.766-12.645 7.515-23.565 17.838-27.552 32.367-.252.922 1.014 1.42 1.514.637 6.072-9.449 15.849-17.09 26.977-21.702 16.152-6.694 36.997-6.622 48.471 3.166zm2.902-242.05c-1.426 2.722-2.815 5.457-4.298 8.152-2.71 4.924-6.468 10.693-12.772 10.758-6.475.063-11.837-5.477-15.773-9.979-4.324-4.947-7.98-10.429-11.827-15.743-12.901-17.827-29.156-33.732-46.805-46.876 27.004 26.375 54.223 67.821 52.041 109.128-.093 1.875.965 1.496 1.619 1.336 6.397-1.592 16.833-8.746 23.731-18.093 9.534-12.919 14.406-28.948 18.353-45.281-1.456 2.189-3.024 4.217-4.269 6.598zm317.151-101.799c-9.857 3.007-19.783 8.175-28.131 16.811-11.843 12.248-19.572 26.957-27.05 41.18-4.067 7.739-8.274 15.742-13.353 23.66-1.154 1.764.851 2.925 2.065 1.587 0 0 1.979-2.759 4.953-6.939 8.626-12.121 23.63-56.533 61.516-76.299zm-384.778 148.426c6.427 9.697 11.676 19.131 15.594 28.035.633 1.431 2.048.998 2.431-.098 12.891-37.336-6.989-79.376-33.261-109.945 4.403 9.546 5.736 16.857 5.516 22.256-.609 14.937-6.739 16.434-18.061 9.891-6.729-3.894-12.902-8.729-19.638-12.651-6.805-3.964-13.941-7.342-21.279-10.197-14.734-5.733-29.901-10.535-45.385-13.812-7.238-1.529-14.547-2.707-21.901-3.516-7.162-.784-14.939-1.763-22.24-1.233 12.15 1.273 23.762 3.306 34.571 6.279 40.088 11.032 96.674 44.269 123.653 84.991zm461.316-5.432c-20.258 17.771-38.364 9.672-49.834 5.223-25.436-9.869-42.269-28.704-22.173-60.809 3.188-5.093 7.124-9.849 11.454-14.038-9.433 6.296-27.248 26.994-30.711 44.943-2.413 12.508 1.041 23.553 10.22 31.93 11.553 10.541 28.055 16.588 45.271 16.588 11.761 0 18.182-1.148 26.427-8.392 4.927-4.329 8.055-9.71 9.346-15.445zm-390.788 221.377c-.478-5.113-1.938-9.305-4.461-12.813-11.32-15.729-35.77-14.766-56.634-2.83 15.292-4.63 35.542-8.963 45.125 6.787 5.75 10.333-7.362 25.553-13.47 31.618-5.496 5.459-13.038 9.771-20.403 12.08-16.233 5.084-34.271-3.002-49.48-8.465-8.264-2.969-16.682-5.397-25.459-6.195-9.85-.891-19.752.863-29.412 2.625-21.902 3.988-41.017 8.853-57.002-5.106 4.224 8.399 10.171 14.531 17.859 20.695 2.728 1.143 5.664 1.938 8.73 2.366 6.055.845 12.397 1.222 20.571 1.222 3.885 0 7.766-.086 11.652-.168 3.871-.084 7.746-.166 11.632-.166 3.519 0 7.052.065 10.593.27 15.08.85 27.396 2.703 38.504 8.975 10.625 5.996 22.154 11.55 34.441 11.548 7.645 0 15.1-2.097 22.795-6.406 22.661-12.697 34.886-32.562 34.419-56.037zm-264.533-30.459c-1.086-34.979 14.526-72.449 40.748-97.783 14.267-13.781 32.105-24.436 51.596-30.813 1.414-.462 1-2.547-.404-2.547-.058 0-.111.004-.167.01-22.874 2.908-40.44 9.34-53.419 19.596 12.426-14.934 38.646-20.426 58.254-23.289 10.815-1.578 21.413-2.379 31.493-2.379 23.276 0 41.701 4.213 54.922 12.607 9.995 4.582 18.308 10.198 24.701 16.698.802.817 1.792.88 2.191-.571.97-3.545 1.54-7.332 1.696-11.375-.162-3.129-.607-5.695-1.399-8.084-3.24-9.761-8.482-19.111-15.59-27.797-7.766-9.488-17.739-20.73-29.845-29.355 14.096 7.307 27.448 19.283 37.844 34.182l.623.918c.964 1.435 3.001.61 2.294-1.211-8.951-22.866-24.228-40.936-30.377-47.645-3.332-3.633-6.705-7.082-10.103-10.408.959 5.059 1.37 9.779.037 14.986-1.584 6.188-4.916 11.586-9.301 16.188-7.145 7.496-17.884 13-26.898 17.994-18.334 10.152-39.443 14.508-58.698 22.572-47.97 20.077-64.755 39.793-74.29 86.416-2.429 11.869-3.304 23.787-2.063 35.863 1.095 10.651 3.283 22.932 8.949 32.34-1.614-5.79-2.624-11.609-2.794-17.113zm487.14-233.613c13.882-13.731 22.809-30.959 31.487-47.709 9.271-17.884 20.68-36.338 36.979-48.247-9.136 1.329-18.447 8.56-24.106 14.74-8.155 8.911-16.726 19.23-22.226 30.021-5.781 11.338-13.822 25.891-26.535 29.921-26.788 8.492-22.286-13.696-17.938-50.188 2.236-18.769 4.557-39.943 5.035-49.736.031-.668.004-1.334.029-2.002-2.599 11.675-6.266 23.499-11.092 35.431-5.951 14.707-12.259 27.673-19.283 39.64-1.9 3.238-4.146 6.613-6.99 10.521-5.641 11.676-12.178 21.689-19.434 29.768-.589.656-.345 1.604.293 1.989 14.717 8.983 30.405 17.757 46.145 17.757 10.359-.003 19.657-4.007 27.636-11.906zm-113.217-30.999c-32.36 36.216-89.694 75.716-107.767 49.31-.435 1.203-.841 2.399-1.328 3.606-2.014 5.229-4.228 10.068-6.58 14.384-.836 1.54.258 1.847 1.013 1.921 3.908.401 7.821.606 11.631.604 29.622.002 55.639-11.786 77.524-35.089 3.178-3.384 15.647-18.187 25.507-34.736zm184.81 51.422c.805-8.75 3.977-18.025 9.22-26.906 5.569-10.449 20.61-25.8 33.125-32.022-25.515 3.223-46.26 28.121-48.462 30.973-12.251 15.886-35.72 6.054-25.688-11.881 1.605-2.876 3-5.802 4.211-8.578 1.75-4.012 3.263-8.094 4.722-12.189-4.195 6.434-22.714 30.065-37.235 41.893-1.924 1.567-1.588 2.269-.396 3.496 9.9 10.229 21.027 15.029 34.925 15.088 7.695.029 15.65.062 23.592 1.771.848.181 1.858-.224 1.986-1.645zm-110.477-93.325c2.826-5.935 5.017-10.879 6.896-15.559 4.201-10.474 7.806-30.578 9.877-49.656 3.123-28.783.296-60.567-9.569-92.417 1.415 8.533 2.39 17.887 2.911 28.378.819 16.475 2.332 74.415-12.551 128.346-.451 1.615 1.786 2.267 2.436.908zm-329.122 195.59c15.286 1.041 30.648 5.512 44.451 12.457.87-.035 25.729-1.679 49.532 19.854.62.73 2.375.879 2.297-.905-1.51-33.353-42.976-48.279-83.401-48.279-9.329 0-17.925.852-24.855 2.467-30.271 7.045-52.965 20.314-69.381 40.57-5.691 7.021-10.57 14.242-14.777 21.524 3.629-5.391 7.637-10.496 11.887-15.125 21.426-23.333 52.818-34.708 84.247-32.563zm-154.369 129.222c-11.728-18.672-21.564-38.17-32.181-57.447-10.88-19.762-19.58-41.36-26.957-62.659-7.545-21.769-12.762-44.556-11.4-67.726.661-11.231 2.716-22.305 5.894-33.084 1.459-4.959 3.375-9.496 5.57-13.861-24.732 34.479-29.712 82.185-11.219 127.761 7.317 18.038 16.84 36.601 28.115 54.9 6.87 11.149 32.475 50.756 52.163 67.412-3.375-5.053-6.735-10.124-9.985-15.296zm-124.506-276.044c16.552-33.474 46.396-55.985 78.455-69.772-22.525 3.998-29.105 1.19-32.438-2.174-3.656-3.686-6.462-10.953-3.839-20.018-12.293 17.019-23.031 35.855-31.615 55.742-4.74 10.979-9.594 22.854-12.991 35.3-.543 1.989 1.601 2.61 2.428.922zm76.592 18.045c.233-.266-12.916 6.565-19.006 10.573-6.309 4.147-12.604 8.248-18.836 12.529-17.593 12.103-23.012 9.278-27.273-8.761-2.975-12.592-1.953-29.396 1.312-43.479-1.15 1.94-2.339 3.858-3.349 5.892-15.201 30.598-18.254 64.332-8.832 97.553 6.65 23.448 16.437 48.676 38.564 58.016 1.216.507 2.167.126 1.778-1.508-9.349-39.063-3.568-76.735 15.354-106.281 3.217-5.021 16.926-20.716 20.288-24.534z" fill="#ff564d"/><path d="m512.097 393.684c2.249-1.185 4.49-2.394 6.74-3.604 6.948-3.746 14.139-7.621 21.467-10.688 2.353-.984 5.405-1.911 8.638-2.893 10.813-3.279 24.271-7.361 26.32-17.852 1.271-6.497 1.755-13.314 1.478-20.841-.063-1.804-1.622-2.692-2.521-.431-2.473 16.852-9.868 23.737-17.866 27.699-5.646 2.797-11.591 4.137-16.315 6.498-13.335 6.663-28.978 13.723-36.036 14.926-24.659 4.203-38.799-15.776-62.49-37.024-19.051-17.085-42.019-31.368-66.688-41.274-40.92-16.431-97.667-28.488-146.315-20.251-25.56 4.326-52.312 20.395-54.313 36.151-.063.5.166.992.593 1.264.213.138.459.207.702.207.241 0 .482-.067.693-.2 7.494-4.684 15.271-8.773 23.109-12.152 24.541-10.583 50.719-15.948 77.799-15.948 64.461 0 133.071 31.585 183.536 84.489 8.806 9.232 18.691 17.774 31.291 17.774 6.097.003 12.696-1.912 20.178-5.85z" fill="#ff564d"/><g fill="#fec771"><path d="m366.369 325.617c.537 0 1.037-.335 1.229-.861.23-.639-.065-1.347-.682-1.63-13.264-6.101-25.733-10.463-38.125-13.342-16.535-3.845-33.364-5.792-50.022-5.792-47.586 0-90.842 15.758-123.572 44.622 6.502-2.546 12.839-5.757 19.066-8.41 12.432-5.298 25.484-9.213 38.346-13.325 1.779-.568 3.573-1.091 5.361-1.628 17.08-7.745 38.234-11.666 63.127-11.666 17.184 0 36.119 1.873 56.278 5.565 10.121 1.853 19.763 4.014 28.652 6.42.117.031.23.047.342.047z"/><path d="m486.582 408.302c-1.757-.327-3.443-.862-5.036-1.617-14.691-6.973-27.021-19.212-38.941-31.049-8.025-7.971-16.326-16.209-25.428-22.905-24.742-14.521-49.66-24.117-75.979-29.381 7.424 2.498 14.702 5.433 21.738 8.896 23.781 11.716 46.572 22.866 66.564 39.92 10.556 9.003 17.984 24.401 30.573 30.463 15.49 7.458 18.055 7.668 26.509 5.673z"/><path d="m231.808 548.253c16.273-7.234 33.384-13.033 50.869-16.486 12.381-2.445 24.978-3.117 37.519-4.366 11.636-1.158 12.403-5.333 1.067-7.664-55.704-11.456-104.211 8.141-140.908 50.986-5.271 6.154-9.729 12.742-12.512 20.4-5.006 13.776-1.881 16.398 4.983 5.371 4.894-7.86 11.033-15.131 17.225-21.219 11.95-11.754 26.518-20.248 41.757-27.022z"/><path d="m895.199 408.666c-15.03-7.087-32.582-10.987-49.42-10.987-9.569 0-21.459 1.293-32.987 5.909.042.032 24.04-3.352 40.583-1.338 55.623 6.774 69.75 34.75 77.699 75.678.063-5.124-.178-10.251-.835-15.313-3.33-25.709-15.773-44.868-35.04-53.949z"/><path d="m811.863 305.193c7.894 1.476 15.264 4.165 21.138 9.432 9.808 8.795 15.239 22.024 21.56 34.031 2.452 4.659 8.94 17.594 20.815 24.844 3.839 2.344 10.127 6.359 14.649 10.392-2.763-4.058-6.34-7.429-10.033-10.887-4.731-3.887-8.457-8.494-11.359-13.012-6.063-9.437-8.534-18.48-9.084-19.738-15.94-36.352-41.481-45.378-74.929-47.745l-4.354-.295c-13.688-.898-29.204-1.918-41.304-8.243-1.141-.605-2.31.125-1.848 1.554 1.595 4.985 8.476 8.822 16.552 11.59 20.768 7.115 36.656 4.051 58.197 8.077z"/><path d="m313.203 687.545c-10.741 6.994-17.387 18.167-21.881 30.241.041-.036.074-.088.112-.125-3.966 17.982-6.804 34.334-3.263 51.037.354 1.67.78 3.203 1.212 4.728.103-42.309 17.51-67.768 27.852-81.953 9.948-13.643 2.3-8.048-4.032-3.928z"/><path d="m632.347 415.878c22.78-59.54 16.458-118.891-7.525-158.08-7.271-11.864-11.223-10.6-5.838 2.559 26.326 64.332 19.825 94.955 9.638 154.628-1.547 9.056.385 9.623 3.725.893z"/><path d="m691.76 300.47c-.021-.326-.039-.674-.06-.994-2.647-40.111-12.118-87.79-62.254-100.58-18.856-4.812-40.313-7.354-62.043-7.354-17.807 0-35.07 1.646-51.313 4.894-.932.188-1.642 1.325-.616 2.252.806.721 1.571 1.5 2.366 2.238 19.517-3.827 42.705-5.796 65.423-4.13 32.503 2.383 69.972 10.01 89.406 44.358 7.444 13.153 14.195 31.942 19.091 59.316z"/><path d="m738.447 317.613c-2.259-18.363-5.375-28.22-8.956-36.267-4.684-10.523-10.123-16.045-18.74-26.159-6.502-7.631-14.352-13.69-22.004-15.718-.322-.087-.793-.084-1.124.186-.427.347-.938 1.155.026 2.743.129.055.229.133.381.167 12.183 2.686 34.344 22.841 50.417 75.048z"/><path d="m202.648 409.901c42.933-8.81 87.312-5.614 128.949 7.745 11.86 3.805 24.09 7.764 35.516 12.711 5.351 2.316 10.763 4.156 16.189 6.227.647.248 1.27.533 1.904.8-38.492-26.665-85.476-41.355-132.559-41.355-6.202 0-12.462.257-18.601.765-50.342 4.168-111.463 23.862-139.105 66.414 48.226-42.708 87.578-49.176 107.707-53.307z"/><path d="m275.333 790.023c-.35-.6-.695-1.197-1.029-1.799-2.915-5.217-5.602-10.541-7.938-16.041-4.823-11.355-8.068-23.482-9.307-35.769-2.533-25.12 4.14-48.094 11.109-71.916.08-.272.068-.532.021-.782-13.496 20.295-21.166 41.498-21.676 60.961-.575 21.886 8.392 53.811 28.82 65.346z"/><path d="m187.815 490.707c14.97-7.344 31.44-12.264 47.886-14.903 18.706-3.004 38.03-2.738 56.786-.337 10.086 1.293 27.014 2.7 51.243 8.898-2.161-.887-4.315-1.811-6.489-2.586-25.887-9.227-53.106-14.104-78.713-14.104-35.045 0-65.907 9.303-89.252 26.896-8.131 6.13-15.221 13.211-21.266 21.024 18.49-14.428 32.085-21.103 39.805-24.888z"/><path d="m318.658 240.778c22.842-4.797 45.39-11.275 68.659-14.05 27.913-3.329 56.12 1.688 83.865-.558 15.729-1.273 18.149-7.666 4.504-15.705-24.466-14.414-56.138-14.518-83.828-10.674-27.227 3.78-55.369 10.892-79.294 24.991-14.902 8.782-10.464 19.472 6.094 15.996z"/><path d="m494.444 229.826c.638 2.611 3.56 7.43 8.6 9.81 14.191 6.699 20.134-7.056 4.908-14.552-7.149-3.521-15.33-2.728-13.508 4.742z"/><path d="m237.573 373.615c11.787 1.383 23.816.549 35.671.283 14.031-.315 27.999.924 42.043.399.966-.035 1.087-1.309.221-1.626-23.68-8.649-54.228-8.626-78.125-.473-.806.279-.603 1.324.19 1.417z"/><path d="m308.954 380.306c5.952.185 11.878 1.638 17.846 1.906.59.027.918-.77.483-1.167-2.348-2.151-4.889-3.109-8.035-3.475-4.021-.47-6.797.277-10.43 1.745-.506.209-.464.974.136.991z"/><path d="m184.786 453.537c37.738-8.901 71.104-11.804 109.776-9.367 1.238.078 1.331-1.679.277-2.05-32.471-11.461-80.951-8.026-110.555 10.231-.631.392-.215 1.355.502 1.186z"/><path d="m580.702 255.992c6.327 7.863 9.02 17.497 13.182 26.702 2.512 5.558 5.194 4.825 3.825-1.687-2.234-10.639-6.616-23.529-15.063-28.737-4.41-2.72-5.217-.345-1.944 3.722z"/><path d="m760.441 349.632c-2.608 5.57-4.034 11.519-6.968 16.986-3.023 5.636-7.264 10.347-9.404 16.456-.203.575.512 1.072 1.002.771 9.506-5.81 20.585-22.634 16.228-34.103-.128-.334-.667-.514-.858-.11z"/><path d="m754.515 383.544c-2.946-.23-5.32 1.666-7.597 3.307-2.442 1.761-4.186 3.807-5.784 6.351-.402.642.258 1.378.936 1.216 3.086-.734 5.556-1.882 8.092-3.774 2.182-1.626 4.492-3.247 5.187-6.004.142-.578-.274-1.051-.834-1.096z"/><path d="m822.748 442.503c6.402-2.896 12.507-6.396 19.255-8.444 4.559-1.383 9.383-1.681 14.173-2.13 6.521-.612 6.379-4.429-.503-5.471-12.815-1.942-27.825 3.785-33.759 15.208-.299.573.284 1.086.834.837z"/><path d="m859.283 438.7c2.938.354 5.902.499 8.832.925 2.342.342 4.451.856 6.66-.202.657-.314.605-1.162.213-1.64-2.014-2.439-5.492-2.614-8.438-2.902-2.801-.274-5.761.598-7.804 2.528-.524.5-.069 1.219.537 1.291z"/><path d="m396.196 710.212c-13.88 4.441-21.215 26.553-20.384 40.661.551 9.385 3.004 2.875 3.847.229 4.707-14.788 13.646-29.056 18.916-37.354 2.25-3.542 2.01-4.942-2.379-3.536z"/><path d="m385.388 746.914c-2.094 2.507-3.133 6.625-2.486 9.837.879 4.369 4.287 3.975 4.835-.356.097-.767.142-1.589.224-2.517.149-1.698.756-3.324 1.148-4.978.855-3.606-.56-5.773-3.721-1.986z"/><path d="m198.244 646.743c4.097-11.089 9.938-20.177 19.184-29.256 6.926-6.799 15.069-12.341 23.232-17.758 7.836-5.2 5.949-8.745-3.345-4.259-19.921 9.618-42.273 29.36-44.541 49.987-1.074 9.774 2.221 10.076 5.47 1.286z"/><path d="m244.04 589.253c3.057-.796 6.106-1.744 9.182-2.48 2.732-.654 5.836.066 8.354-1.352.366-.207.508-.722.282-1.084-1.853-2.98-5.723-2.521-8.723-2-4.221.731-7.334 2.661-9.664 6.176-.253.38.161.844.569.74z"/><path d="m476.595 438.643c3.209 7.768 5.058 15.838 5.534 24.234.253 4.444-.405 8.884-.402 13.289.007 8.855 2.635 9.518 4.992 1.074 3.581-12.827-1.535-29.699-9.34-39.052-.292-.347-.963.027-.784.455z"/><path d="m479.849 432.57c1.072 2.142 2.692 4.02 3.983 6.035 1.48 2.314 2.06 4.902 4.115 6.858.404.383 1.068.313 1.358-.176 3.036-5.115-3.159-13.913-8.806-13.855-.596.007-.904.63-.65 1.138z"/><path d="m484.776 307.025c13.777 11.142 38.281 21.803 55.869 14.49.916-.38 1.066-1.688 0-2.012-9.309-2.847-19.363-2.231-28.893-4.558-8.99-2.194-17.675-5.975-26.523-8.704-.426-.129-.824.482-.453.784z"/><path d="m519.889 332.158c3.104 1.902 6.062 3.086 9.739 3.357 4.385.328 6.861-.597 9.896-3.573.572-.564.175-1.718-.688-1.657-1.549.11-2.991-.268-4.528-.146-1.579.121-3.09.363-4.68.363-3.053.004-6.174-.079-9.214-.29-1.079-.073-1.364 1.431-.525 1.946z"/></g><path d="m905.938 523.361c-4.268-10.549-15.333-21.811-27.316-22.877 13.244 7.965 23.343 25.338 21.582 40.428-.488 4.205-1.672 8.238-3.514 11.986-.271.553-.119 1.223.367 1.604.234.184.521.276.805.276.299 0 .596-.102.838-.305 3.922-3.293 7.527-7.15 10.83-11.4.199-6.646-1.052-13.434-3.592-19.712z" fill="#ff564d"/><g fill="#68182b"><path d="m914.552 412.908c-3.457-3.807-7.453-6.985-11.774-9.717.173-.477.329-.969.335-1.564.299-28.723-19.899-30.111-31.655-53.774-11.41-22.971-19.257-46.925-46.061-56.131-25.91-8.9-58.734-2.954-82.985-15.674-8.791-4.612-11.013-7.787-15.883-15.188-8.574-13.031-22.435-28.251-42.741-30.204-.094-.01-.153.031-.245.027-7.334-13.229-17.843-24.519-33.058-32.381-39.684-20.511-100.373-17.923-142.344-8.354-.305.069-.495.233-.756.342-25.697-19.824-57.132-31.119-90.797-26.584-58.361 7.863-115.676 32.209-165.494 62.932-37.043 22.845-83.988 56.226-85.349 104.181-28.686 20.613-50.948 48.994-68.573 80.055-17.901 31.55-37.617 74.253-29.79 111.282.032.148.12.229.159.367-2.988 46.055 12.897 103 54.908 114.961.135.037.242.002.376.029 1.896 6.055 4.066 12.043 6.671 17.875 17.028 38.151 39.8 75.264 67.512 106.606 15.158 17.146 42.604 38.802 67.024 28.963 8.521 7.558 18.854 12.193 30.609 11.326.18-.014.305-.104.476-.133 4.255 3.957 9.292 6.752 15.088 7.959 9.086 3.834 19.898 5.803 32.196 5.992 13.326.205 26.537-.73 39.871.025 18.185 1.028 29.424 11.608 45.338 17.567 18.823 7.049 35.043 1.4 52.007-8.102 30.078-16.853 41.348-53.916 27.965-85.504-10.34-24.41-27.798-44.238-41.435-66.744-1.288-2.125-2.561-4.158-3.84-6.105.08-.256.223-.44.262-.739 1.701-12.322-1.342-22.918-7.315-31.822.396-.433.744-.935.983-1.564 5.235-13.74 3.823-28.776-.766-43.25 3.424-6.998 5.656-14.192 6.897-21.488 13.925-2.012 24.152-10.473 31.797-21.332.466.229.945.443 1.525.521 34.209 4.584 63.367-5.82 87.078-25.961.117-.078.229-.158.346-.236 26.964 2.992 47.951-5.016 64.221-19.811 17.097 10.623 37.712 24.807 58.974 19.643 8.387-2.037 15.471-5.731 21.717-10.494.695-.241 1.379-.522 2.062-.809 6.317 7.367 15.039 15.125 24.434 17.635 14.146 3.777 28.861.734 42.926 4.551 1.816 15.668 11.806 29.896 32.935 38.709 18.744 7.82 43.733 7.197 62.009-1.614 30.964-14.933 38.773-45.642 43.417-77.431 4.254-29.141-.996-56.516-21.257-78.838zm-712.339-128.475c24.523-12.569 54.633-12.827 82.8-10.495 36.201 2.995 75.223 11.032 107.037 29.125.504.287 1.088-.421.632-.819-11.932-10.408-28.6-16.496-43.417-21.38-21.812-7.187-44.697-11.057-67.534-13.002-20.404-1.737-41.2-1.097-61.166 3.634-7.556 1.79-16.341 4.724-24.209 9.064 22.839-26.859 59.295-46.875 86.022-61.631 50.324-27.785 124.291-58.333 182.012-41.975 49.64 14.067 84.432 65.698 101.108 113.877 5.054 14.597 7.872 27.181 4.897 41.53-2.35 11.349-12.372 18.605-22.025 23.572-9.774 5.027-20.897 7.768-31.536 10.29-12.696 3.014-26.06 9.065-36.815-.879-.193-.179-.599-.006-.481.28 5.308 13.168 17.418 11.105 29.427 9.061 14.842-2.529 29.483-5.878 43.153-12.346 11.583-5.479 19.33-14.304 23.318-24.485.252 6.881-.13 13.769-1.455 20.544-2.49 12.75-24.033 15.543-34.18 19.788-9.728 4.072-18.986 9.434-28.312 14.34-21.596 11.369-34.166 4.85-49.92-11.668-66.77-69.997-170.298-108.721-262.797-68.839-8.18 3.527-15.922 7.646-23.285 12.246.641-5.041 1.831-9.913 3.497-14.622 4.282-12.095 10.86-18.872 23.229-25.21zm-16.183 449.338c-19.938-26.629-37.891-56.725-50.41-87.586-21.398-52.736-12.549-115.156 34.441-150.572 46.759-35.243 114.486-31.229 166.74-12.605 30.29 10.796 55.811 30.967 77.334 54.434 10.846 11.824 23.006 29.057 30.123 47.24-.209-.31-.437-.65-.629-.93-12.104-17.349-30.121-33.205-50.466-39.677-.346-.108-.577.429-.25.592 16.021 8.06 29.43 22.138 40.635 35.83 6.654 8.138 12.048 17.402 15.359 27.38.865 2.61 1.201 5.182 1.334 7.739-.147 3.738-.678 7.402-1.649 10.965-6.899-7.01-15.688-12.659-25.089-16.971-23.725-15.088-60.948-14.158-87.149-10.332-20.643 3.017-53.006 9.351-63.26 30.16-.141.289.21.59.451.35 15.494-15.303 37.117-21.532 58.327-24.229-19.475 6.373-37.53 17.045-52.096 31.115-26.114 25.231-42.274 62.444-41.146 98.764.483 15.572 7.236 34.58 18.547 48.373-27.842 8.388-57.6-31.942-71.147-50.04zm304.074-8.223c3.882 6.19 6.865 12.491 9.033 18.786-5.115-4.362-12.146-7.303-21.104-8.11-23.758-2.144-56.854 14.039-60.184 39.965-.074.58.774.719 1.039.281 11.864-19.547 30.332-32.31 53.664-33.293 9.75-.41 20.448 2.371 26.395 10.629 2.666 3.701 3.818 7.848 4.222 12.172.43 21.74-10.444 41.715-33.757 54.775-20.487 11.479-37.014 5.553-55.956-5.142-12.021-6.785-25.54-8.375-39.07-9.141-18.236-1.031-36.101 1.397-54.343-1.146-3.059-.428-5.852-1.207-8.407-2.276-11.41-9.213-18.678-18.092-22.186-34.623-3.744-17.654-.181-35.08 3.67-52.328.137-.617-.56-.994-1.021-.594-17.521 15.131-18.571 54.231-4.432 77.377-28.814-3.664-40.482-44.002-39.85-68.17.704-26.824 14.376-52.854 30.91-73.254 17.811-21.978 41.513-33.806 68.663-40.123 31.475-7.328 104.654.342 106.656 44.602-9.221-10.782-20.564-16.646-38.757-19.7-12.66-2.132-32.91.399-43.537 9.753-6.187 5.446-1.508 4.032 1.772 2.856 11.038-3.956 22.67-5.063 34.903-4.728 8.316.229 13.46 1.52 17.622 3.31 12.981 5.583 22.927 15.366 35.879 36.736 8.646 14.266 19.311 27.242 28.176 41.386zm-55.074-176.36c-18.938-28.584-47.272-51.928-77.897-67.25-14.413-8.491-31.311-14.095-46.497-18.274-25.792-7.1-54.276-8.932-80.866-7.278-21.438 1.333-41.882 7.81-61.33 16.65-16.393 7.452-33.555 18.265-40.508 35.569-.157.393.449.609.656.277 20.547-33.11 70.771-46.318 107.393-47.98-28.362 3.506-55.311 13.394-76.621 31.342-39.876 33.585-51.106 85.99-39.481 134.572-22.21-9.373-31.613-35.305-37.816-57.168-9.352-32.971-6.462-66.006 8.746-96.617 24.688-49.694 92.384-70.718 143.35-74.937 53.468-4.429 108.17 10.585 151.888 41.43 38.586 27.22 82.004 87.758 64.688 137.897-4.517-10.252-10.194-19.914-15.705-28.233zm158.668-36.543c5.014-4.936 9.591-10.533 14.224-16.725 8.512-11.382 19.563-29.016 16.229-43.779-.101-.45-.769-.533-.983-.128-7.172 13.486-15.329 26.574-24.423 38.979-.195.266-.385.542-.581.806-.515.696-1.062 1.367-1.58 2.06-24.142 31.108-56.662 49.022-97.25 44.853 2.567-4.709 4.763-9.632 6.651-14.537 5.873-14.527 9.502-33.15 3.813-46.525-.172-.409-.826-.273-.919.119-6.95 29.746-12.085 60.957-37.803 78.175-2.371 1.215-4.916 2.176-7.637 2.851 2.346-44.457-29.654-90.98-61.006-118.07-49.469-42.745-118.646-57.617-182.41-50.46-56.397 6.328-115.188 34.61-140.996 86.81 3.35-12.269 8.226-24.225 12.931-35.126 12.813-29.674 30.506-57.696 52.609-81.271 47.292-50.433 118.464-64.836 183.932-49.618 13.096 3.043 25.695 7.656 37.872 13.256-9.823-2.66-19.569-4.764-28.758-6.444-41.295-7.563-96.09-10.936-132.981 13.173-.382.249-.146.896.32.755 21.393-6.415 41.427-12.008 63.936-13.188 22.455-1.178 45.045 1.104 67.135 5.035 29.641 5.272 55.758 15.7 80.494 30.218 22.287 16.413 39.651 42.229 64.473 54.006 16.12 7.647 35.058-7.337 48.541-14.423 10.713-5.631 46.824-12.037 51.486-26.759 15.1-47.688-13.243-104.696-40.677-142.346-7.05-9.674-15.108-18.659-23.989-26.622 35.817-7.156 77.773-6.482 112.777 2.446 47.807 12.194 58.401 55.913 61.272 99.399 4.271 64.668-6.719 212.233-96.702 213.08zm60.278-17.832c7.7-8.572 14.186-18.783 19.639-30.071 2.449-3.335 4.797-6.774 6.941-10.43 7.479-12.743 13.826-26.122 19.365-39.811 10.258-25.347 16.35-52.528 15.688-79.844-.159-6.523-1.198-6.583-1.995-.144-3.323 26.869-9.63 53.124-19.741 78.321-2.104 5.246-4.434 10.387-6.859 15.481 12.411-44.967 14.224-96.034 12.597-128.757-1.01-20.301-3.779-40.876-11.197-58.829 18.875 5.006 36.28 31.007 42.884 51.789 2.818 8.871 5.003 19.636 6.834 33.805.853 6.596 2.408 6.806 3.676.167 2.367-12.43 1.038-27.363-3.448-41.364 13.679 7.15 31.612 7.654 46.169 8.686 35.705 2.526 58.99 13.137 73.824 46.968 3.496 7.974 6.541 17.593 12.146 24.382 9.269 11.225 21.974 16.932 23.287 33.247-21.694-9.539-49.268-9.454-70.535-5.847-32.807 5.567-51.674 33.583-65.842 60.911-8.805 16.991-17.489 33.771-31.246 47.382-22.632 22.393-49.849 7.594-72.187-6.042zm243.886 58.662c1.839-3.742 3.113-7.898 3.642-12.412 2.233-19.195-14.572-43.405-34.006-46.072-.259-.036-.515.264-.277.481 13.28 12.321 27.037 21.482 27.508 41.51.328 13.971-8.047 22.318-18.674 27.973-20.646 5.326-45.195.191-60.961-14.192-13.832-12.623-12.522-29.211-5.127-44.222 5.508-8.651 11.195-16.96 18.426-24.574 2.699-2.579 17.983-19.217 52.682-25.489.437-.112.459-.806 0-.904-16.553-3.553-34.383 1.538-49.145 11.531-.038.027-.078.04-.117.069-.076.057-.148.117-.225.174-10.373 7.101-19.14 16.622-24.849 27.337-5.33 9.028-8.66 18.606-9.418 27.965-7.996-1.771-15.956-1.848-24.225-1.881-14.42-.061-25.402-5.494-34.765-15.5 7.396-5.202 13.839-12.429 19.084-18.729 10.188-12.229 25.859-27.729 27.435-44.233.031-.335-.449-.422-.604-.164-8.54 14.378-20.521 27.138-31.325 39.905-.538.634-1.096 1.193-1.643 1.801.081-.123.166-.242.248-.368 13.783-21.545 21.896-45.554 39.998-64.278 25.717-26.602 72.212-23.924 103.117-9.355 49.767 23.455 42.865 110.361 3.221 143.627z"/><path d="m359.753 651.947c-2.003 1.398-3.972 2.999-5.508 4.899-4.374 5.408-1.667 7.604 3.963 3.78 1.89-1.285 3.704-2.696 5.567-4.031 6.548-4.695 2.772-9.388-4.022-4.648z"/><path d="m408.574 314.167c3.804 2.824 7.288 6.047 11.105 8.854.469.345.904-.294.713-.712-3.635-7.985-13.341-13.467-20.963-16.982-.424-.195-.826.288-.502.65 2.875 3.213 6.203 5.628 9.647 8.19z"/><path d="m415.132 790.005c-.162 3.073-.119 5.78 2.063 8.118.262.279.816.236.99-.127 1.266-2.666.973-5.106.818-7.991-.104-1.941.161-4.798-1.123-6.386-.095-.114-.289-.123-.413-.051-1.909 1.105-2.227 4.45-2.335 6.437z"/><path d="m836.071 509.257c-5.469 2.243-11.478 7.114-13.513 12.776-.087.24.192.549.442.443 5.104-2.141 9.278-5.883 14.541-7.885 5.381-2.049 12.633-2.767 18.366-2.541.689.026.869-.898.334-1.24-6.913-4.391-12.529-4.689-20.17-1.553z"/><path d="m506.821 435.918c-.149-.086-.391-.019-.422.172-.543 3.125.928 6.474 1.34 9.576.629 4.742.145 9.527.646 14.293.051.47.633.844 1.015.421 3.204-3.569 4.061-7.5 3.188-12.249-.723-3.917-1.946-10.094-5.767-12.213z"/><path d="m603.746 260.505c23.99 38.2 23.607 88.81 16.243 132.492-1.675 9.948.813 10.569 4.031.898 7.218-21.694 7.86-45.085 5.848-67.775-2.055-23.216-8.521-48.845-24.645-66.506-3.388-3.712-4.109-3.301-1.477.891z"/><path d="m615.409 407.49c-2.198 4.574-3.883 9.378-5.578 14.16-.299.843.836 1.37 1.42.825 3.943-3.678 7.399-8.178 8.62-13.272 1.485-6.195-1.762-7.333-4.462-1.713z"/><path d="m324.183 523.007c-62.841-15.371-156.552 18.346-162.858 92.12-.035.414.542.425.672.091 11.514-29.254 27.188-53.039 54.934-69.181 32.742-19.049 70.455-19.08 107.072-21.688.737-.051.965-1.152.18-1.342z"/><path d="m752.81 406.332c20.175-17.454 45.838-39.275 48.157-65.997.478-5.501-1.274-5.307-3.395-.039-10.105 25.105-29.628 42.88-46.649 63.473-4.347 5.258-3.198 6.964 1.887 2.563z"/><path d="m349.498 731.863c-.219.789.906 1.26 1.314.555 15.653-27.034 37.346-45.991 67.667-54.215.238-.065.276-.483 0-.521-33.328-4.559-60.757 24.496-68.981 54.181z"/></g></g></g></svg>