<svg id="Food" height="512" viewBox="0 0 1000 1000" width="512" xmlns="http://www.w3.org/2000/svg"><g><path d="m894.184 530.322c4.123-10.449 9.133-23.137 6.197-38.494 7.531-18.563 8.671-38.094 3.327-57.264 4.235-10.484 7.088-21.477 8.488-32.785 7.141-57.453-23.194-113.332-87.735-161.812-6.337-13.896-17.162-26.317-29.85-34.008-7.631-4.629-16.038-7.076-24.309-7.076-4.249 0-8.348.636-12.19 1.873-39.182-18.479-79.84-32.336-121.228-41.317-5.388-1.169-7.094-2.296-10.418-6.388-13.447-16.556-41.48-23.658-73.271-10.613-1.604.658-3.275 1.373-4.979 2.172-5.502 2.587-7.138 3.122-14.713 2.967-4.63-.094-9.26-.141-13.857-.141-41.568 0-83.532 3.833-124.979 11.405-7.541 1.377-7.408-.961-18.746-3.376-3.086-.657-6.283-.987-9.514-.987-18.289 0-36.198 10.691-45.91 19.186-5.244 4.586-6.72 5.919-14.303 8.579-92.341 32.365-196.778 90.531-206.114 189.315-1.955 20.694.647 40.637 7.741 59.399-7.469 19.355-7.523 39.676-.277 59.188 3.386 9.117 6.573 16.103 4.432 24.517-2.503 9.832-8.416 17.978-5.914 29.271 1.363 6.152-.166 6.836-4.567 6.989-8.328.294-20.931 2.039-30.835 12.419-17.173 17.967-19.731 46.955-5.83 65.998 6.754 9.26 20.669 16.493 30.465 16.994 4.232.217 4.343 2.916 4.343 5.841.004 10.047-1.139 30.158 18.258 52.895-2.549 74.953 89.136 106.385 124.568 118.533 80.188 27.49 167.697 41.43 260.084 41.43h.017c8.133 0 16.404-.111 24.572-.332 93.272-2.547 176.857-16.754 248.436-42.233 72.295-25.74 111.79-62.742 117.619-110.097 16.919-12.007 24.986-29.622 17.226-56.412-1.763-6.041-.242-7.993 5.342-10.904 9.076-4.72 19.363-10.076 26.767-27.91 6.631-15.978 4.274-34.371-6.475-50.463-9.033-13.53-22.951-23.865-37.571-28.609-5.236-1.697-6.168-3.02-4.297-7.75z" fill="#fff"/><g><path d="m672.091 581.695c-23.381 0-59.412-1.181-78.732-21.551-2.467-2.601-1.36-3.331 2.181-3.711 27.276-2.923 54.132-7.019 79.849-12.167 38.566-7.725 155.388-31.122 199.132-98.756 2.111-3.263 2.849-3.195 3.624.622 13.006 63.81-76.769 108.2-132.312 124.462-25.156 7.365-49.968 11.101-73.742 11.101z" fill="#ff5671"/><path d="m490.115 601.771c-3.93 0-7.733-.063-11.372-.168-36.253-1.012-84.357-8.126-108.543-36.133-1.029-1.191-1.022-2.206.595-3.157 3.594-2.112 7.038-4.548 10.276-7.262 1.848-1.549 1.731-1.447 4.263-1.107 37.749 5.046 76.46 7.603 115.089 7.603 26.932 0 54.229-1.247 81.139-3.707 1.438-.134 2.068.636 2.499 1.277 1.471 2.196 3.242 4.287 5.275 6.235 1.385 1.33.845 2.218.117 3.185-16.836 22.359-49.348 33.234-99.338 33.234z" fill="#ff5671"/><path d="m505.172 554.723c-21.947 0-44.488-.801-67.009-2.383-18.482-1.302-36.79-3.101-54.405-5.351-.766-.295-1.184-.383-1.646-.383-.192 0-.392.014-.594.045-50.751-6.59-96.518-17.203-136.373-31.533-32.956-11.848-91.391-40.053-112.429-95.813-11.426-30.277-9.196-60.122 6.623-88.718 1.277-2.306 3.21-1.484 2.531 1.068-7.552 28.501.266 60.95 21.501 89.133 29.945 39.74 83.807 59.765 132.549 74.111 54.921 16.166 116.391 24.363 182.702 24.363 47.931 0 99.433-4.285 153.082-12.736 60.043-9.465 129.04-24.854 185.49-67.26 22.425-16.844 50.542-44.438 57.152-80.236.788-4.264 1.134-8.561 1.025-12.766l2.519-.513c2.846 7.277 4.929 14.228 6.367 21.25 11.631 56.738-33.903 97.451-54.021 112.32-48.751 36.031-112.56 50.349-173.741 61.918-22.773 4.313-46.244 7.55-71.759 9.896-25.937 2.385-52.676 3.588-79.564 3.588z" fill="#ff821d"/><path d="m316.895 568.229c-28.313 0-58.129-7.447-80.939-13.93-30.852-8.767-74.18-28.929-94.742-56.877-.365-.847-.7-1.326-1.193-1.793-11.932-17.273-14.258-35.269-7.093-53.708 1.11-2.847 1.832-2.499 3.252-.124 33.349 55.802 109.93 81.835 141.44 90.467 29.752 8.146 60.942 14.725 92.729 19.558 3.067.485 1.735 1.884.102 2.946-13.711 8.933-31.72 13.461-53.556 13.461z" fill="#ff5671"/><path d="m421.51 677.512c-4.133 0-9.205-2.285-14.107-4.488-4.295-1.934-8.734-3.936-12.053-4.123-1.099-.065-2.205-.094-3.312-.094-5.756 0-11.742.785-17.529 1.549-2.884.379-5.739.754-8.549 1.029-.555.057-1.107.086-1.66.086-5.562 0-11.314-2.67-16.885-5.25-5.493-2.549-11.181-5.185-16.52-5.185-2.591 0-4.923.605-7.137 1.851-4.271 2.403-8.464 3.574-12.809 3.574-6.31 0-11.881-2.41-17.777-4.959-3.409-1.474-6.93-2.998-10.609-4.009-2.341-.645-4.703-.932-7.665-.932-1.292 0-2.574.055-3.855.104-1.33.056-2.662.104-4.021.104-4.047 0-9.021-.424-15.156-3.607l-2.847-1.485c-6.488-3.424-10.06-5.306-17.921-5.824-8.931-.588-15.38-1.012-22.217-8.717-1.296-1.461-3.4-2.781-5.239-3.287-2.146-.59-4.467-.854-7.523-.854-1.291 0-2.573.048-3.842.089-1.271.045-2.536.09-3.776.09-7.412 0-13.322-1.703-18.083-9.994-4.018-6.998-7.948-9.49-15.252-12.424-13.168-5.297-14.041-12.107-15.373-22.42-.287-2.271-.606-4.75-1.085-7.468-.883-5.014.141-10.327 1.14-15.469 1.052-5.453 2.051-10.604.82-15.088-.722-2.6-2.063-4.395-3.364-6.129-2.231-2.98-4.545-6.06-2.088-12.141 2.027-5.025 2.385-10.468 2.725-15.73.159-2.455.323-4.981.656-7.462.637-4.777 2.342-2.29 3.604-.788 14.373 17.121 36.626 32.589 59.882 41.571 44.063 17.022 82.207 25.651 113.358 25.651h.008c17.749 0 33.335-2.836 46.345-8.43l1.187-.512.521 1.184c.147.34.307.609.495.847 19.994 25.198 59.238 38.276 119.97 39.979 2.646.074 5.353.115 8.117.115 34.716 0 80.813-6.386 103.246-36.791l.726-.979 1.027.652c9.962 6.326 22.033 9.906 31.438 12.315 12.808 3.283 26.829 4.947 41.672 4.947 22.674 0 47.994-3.813 77.391-11.649 31.834-8.487 93.517-33.734 123.09-74.567.976-1.369 2.804-1.481 2.469 1.039-.765 5.629-3.184 11.358-5.525 16.901-4.22 9.967-8.195 19.381-2.896 27.688 11.128 17.432 9.144 26.494-8.859 40.41-4.506 3.486-7.159 7.908-9.962 12.586-3.342 5.57-6.794 11.338-13.586 15.18-6.952 3.933-12.743 4.734-19.304 4.734-1.317 0-2.652-.025-4.024-.058-1.425-.03-2.898-.063-4.425-.063-1.102 0-2.242.02-3.413.063-2.563.101-5.389 2.843-6.321 5.24-.564 1.469-.928 2.773-1.252 3.937-1.314 4.694-2.435 7.422-10.268 8.791-1.25.219-3.341 2.813-4.129 3.787-.274.342-.499.612-.652.78-9.273 10.076-19.972 10.299-30.321 10.515-5.716.118-11.625.241-17.342 2.002-3.391 1.041-6.066 2.557-8.651 4.022-3.791 2.146-7.371 4.172-12.362 4.172-2.52 0-5.198-.518-8.199-1.575-3.036-1.076-6.854-1.617-11.355-1.617-4.955 0-9.544.66-12.521 1.213-5.304.981-10.141 2.723-14.819 4.404-6.639 2.381-12.901 4.633-19.933 4.633-4.622 0-9.111-.982-13.734-3.008-8.347-3.652-14.354-4.945-22.985-4.945-.89 0-1.813.012-2.756.039-5.602.162-11.343.623-16.896 1.067-5.735.459-11.67.938-17.516 1.093-2.433.063-4.958 1.491-7.188 2.745-5.424 3.048-10.84 4.523-16.597 4.523-4.15 0-8.659-.773-13.792-2.365-4.426-1.371-9.08-1.483-13.857-1.483l-3.074.006c-5.715 0-11.293-.174-16.775-2.24-1.605-.609-3.469-.902-5.688-.902-4.806 0-10.269 1.414-15.09 2.662-2.187.566-4.245 1.099-6.066 1.459-1.479.293-4.557 1.607-7.808 2.998-4.908 2.097-9.975 4.263-12.544 4.263-.264 0-.507-.021-.72-.063-2.699-.508-4.848-1.027-6.708-1.479-2.96-.716-5.097-1.232-7.448-1.232-2.88 0-6.1.773-11.127 2.664-.937.354-1.995.532-3.145.532z" fill="#a5603f"/><path d="m508.783 772.598c-2.662 0-5.671-.248-8.954-.738-21.36-3.178-33.186-17.582-31.624-38.526.106-1.447.271-2.998.438-4.615.531-4.997 1.13-10.639.22-15.586-.694-3.759 1.244-2.676 2.704-1.036 2.656 2.99 5.038 6.256 7.345 9.421.141.193.283.387.422.578-4.651-16.103-19.819-25.995-33.72-25.995-7.039 0-14.415 2.436-20.76 6.859-7.879 5.495-13.407 19.446-15.804 23.911-5.462 10.209-13.666 15.605-23.728 15.605-4.933 0-10.177-1.303-15.602-3.877-5.775-2.738-10.492-9.922-14.656-16.258-1.039-1.581-2.052-3.125-3.052-4.555-1.815-2.599-1.716-2.771-.159-5.176 6.178-9.546 9.236-20.832 8.915-32.861-.043-1.621.142-2.929 3.11-2.791 7.621.354 15.965-.415 22.384-.998.998-.093 1.972-.136 2.929-.136 7.321 0 13.361 2.441 19.755 5.027 2.316.937 4.695 1.898 7.162 2.743 3.337 1.144 4.993.881 7.788.283 7.622-1.624 15.338-1.993 26.031-.135 4.402.766 4.276 1.162 8.366-.479 2.475-.994 5.179-2.494 7.537-3.802 7.715-4.273 14.542-6.214 24.171-6.214 4.731 0 9.861 1.182 14.788 3.241 5.601 2.339 5.614 2.475 10.88 2.103 1.34-.096 2.727-.145 4.186-.145 4.493 0 8.992.459 13.342.9 4.254.432 8.651.877 12.947.877 2.298 0 4.389-.123 6.398-.377 10.962-1.385 23.715-4.322 34.959-6.912l1.531-.352c5.104-1.177 9.893-1.746 14.643-1.746 10.781 0 20.245 3.03 31.199 6.535l2.235.719c1.917.608 3.995.918 6.176.918 6.097 0 12.083-2.244 18.718-4.951 9.722-3.975 18.467-5.904 26.745-5.904 6.076 0 11.864 1.004 17.701 3.068 1.502.529 2.981.789 4.517.789 4.592 0 8.817-2.34 13.29-4.82 4.325-2.399 8.804-4.879 13.843-5.256 10.807-.804 21.976-1.634 32.947-4.902 2.379-.716 2.607.085 2.33 2.054-4.522 31.712-28.126 52.146-60.365 52.146-5.765 0-11.732-.664-17.73-1.977-6.158-1.349-11.587-2.002-16.605-2.002-5.546 0-10.416.797-14.835 2.435-1.79.662-5.548 1.352-2.083-2.587 2.747-3.126 5.658-6.158 8.647-9.198-12.225 5.063-20.76 18.363-25.873 29.133-1.632 2.921-3.485 7.472-4.979 11.128-.633 1.557-1.2 2.952-1.646 3.975-4.515 10.32-13.056 15.549-25.384 15.551-3.821 0-7.991-.479-12.753-1.465-15.705-3.252-25.202-15.908-24.202-32.244.068-1.127.168-2.201.268-3.242.419-4.547.752-8.141-1.835-12.559-4.285-7.314-11.745-8.851-17.253-8.851-7.011 0-15.281 2.515-21.587 6.563-.422.274-.821.562-1.204.86-1.664 1.299-3.276 2.565-2.77-1.283.356-2.728.839-5.293 1.469-7.747-5.712 6.908-6.472 16.844-5.984 24.426-.424 5.668.211 11.758.827 17.648 1.144 10.973 2.222 21.336-3.339 27.504-3.206 3.567-8.239 5.298-15.377 5.298z" fill="#86e4c7"/><path d="m296.763 726.71c-13.019-4.058-22.236-13.823-31.216-23.335-3.947-4.184-8.031-8.51-12.399-12.321-4.869-4.254-9.854-6.833-15.204-7.863-2.414-.462-2.401-2.481.058-2.843 4.716-.699 15.749-1.515 24.942-.835-5.022-1.824-10.491-2.744-16.311-2.744-14.431 0-30.789 5.924-43.742 15.85l-.701.381c-10.474 5.339-21.3 10.855-32.498 10.855-2.752 0-5.473-.34-8.08-1.008-18.543-4.754-29.517-18.898-33.547-43.236-.756-12.211-2.267-23.104-4.64-33.426-1.503-6.56-3.879-16.886-9.994-21.49 3.843 5.658 5.654 12.771 6.867 19.313.557 3.014-.966 2.879-2.474 1.668-1.688-1.359-3.641-2.563-5.815-3.578-2.771-1.297-6.002-1.888-9.426-2.515-8.229-1.504-17.559-3.207-19.224-16.409-.845-6.726.577-12.269 4.229-16.486 4.479-5.166 12.278-8.105 21.969-8.275 7.676-.135 14.116-.456 20.11-2.994 4.625-1.947 3.3 2.332 3.3 2.332l.06 1.335c.362 8.082.73 16.438 2.09 24.242.755 4.351 3.335 9.601 7.228 10.84 12.455 3.974 18.729 9.492 27.321 19.623 1.969 2.33 14.606 9.113 17.621 9.113.825-.018 1.748-.057 2.753-.104 1.704-.072 3.633-.156 5.574-.156 6.468 0 10.191.944 12.072 3.067 2.617 2.943 5.045 5.679 8.742 6.697 1.548.428 3.377.637 5.584.637 2.16 0 4.35-.19 6.428-.375l2.654-.211c.398-.028.805-.043 1.201-.043 6.295 0 11.729 3.312 16.979 6.511 1.765 1.075 3.499 2.133 5.223 3.026 6.417 3.324 12.021 4.941 17.13 4.941 1.341 0 6.008-.594 6.926-.594 3.886 0 6.576 1.424 9.175 2.803 2.223 1.178 4.317 2.293 7.164 2.535 6.396.551 12.778.895 19.445 1.051 3.84.094 4.652.292 9.16-2.01 2.075-1.052 4.221-2.144 7.171-2.144 2.061 0 4.291.537 6.821 1.64 5.147 2.248 9.723 3.836 14.286 4.961 2.079.511 2.235 1.002 2.318 2.525.811 14.627-3.707 28.345-12.466 37.762-13.021 13.999-30.149 15.875-44.864 11.287z" fill="#86e4c7"/><path d="m499.618 837.777c-68.616 0-139.979-9.85-212.098-29.275l-1.287-.346c-47.268-12.727-145.634-39.203-140.909-104.033l.159-2.203 1.854 1.203c2.229 1.451 4.51 2.754 6.752 3.877 5.761 2.875 11.717 4.332 17.696 4.332 9.488 0 19.511-3.598 30.628-11.004 9.487-6.315 18.193-9.387 26.612-9.387 11.189 0 21.355 5.424 31.078 16.59 8.193 9.404 15.307 16.297 25.429 21.598 8.22 4.306 16.678 6.486 25.126 6.486 12.761 0 24.884-5.078 34.14-14.307l1.033-1.033.908 1.146c11.389 14.334 22.146 27.875 38.089 27.875 5.278 0 10.804-1.451 16.88-4.435 8.184-4.016 12.969-13.576 17.195-22.01 1.31-2.619 2.581-5.152 3.896-7.443 5.507-8.088 11.841-12.146 18.876-12.146 6.028 0 12.63 3.021 19.621 8.977l.335.285.095.432c1.063 4.924 1.251 9.939.563 14.896-.097 1.362-.209 2.787-.325 4.199-.446 5.489-.871 10.672-.266 16.26 2.159 19.848 26.615 30.106 42.458 30.791.829.037 1.645.055 2.435.055 10.097 0 17.703-2.875 22.6-8.541 5.729-6.627 7.724-17.213 5.77-30.611-4.037-11.016-1.657-21.426 7.136-30.678 4.176-2.447 7.753-3.569 10.928-3.569 5.006 0 10.174 4.481 12.35 8.367 4.404 7.867 2.648 18.934 5.213 24.894 5.059 11.756 11.93 18.662 21.621 21.737 7.764 2.468 14.495 3.662 20.595 3.662 15.443 0 26.335-8.086 33.287-24.717 7.382-17.651 18.232-26.236 33.174-26.236 2.384 0 4.922.224 7.526.658 2.805.47 5.574 1.136 8.35 1.806 4.083.987 8.307 2.006 12.527 2.297 2.538.176 5.101.276 7.663.276 8.458 0 15.729-1.099 22.153-3.354 3.423-1.199 2.989-.891 4.896 1.093 5.945 6.176 12.012 9.184 18.5 9.184 9.274 0 19.222-6.077 31.302-19.118 7.467-8.066 15.297-11.822 24.633-11.822 6.076 0 12.358 1.518 19.01 3.123 4.432 1.076 9.013 2.182 13.941 2.961 3.67.58 7.151.875 10.33.875 1.67 0 3.306-.076 4.897-.242l1.495-.154-.057 1.502c-2.096 55.449-63.558 82.437-116.865 99.744-59.5 19.324-127.869 30.324-215.153 34.631-11.463.563-23.17.852-34.795.852z" fill="#fec771"/><path d="m761.728 719.798c-4.646 0-9.13-2.255-13.692-6.895-1.21-1.228-1.338-2.002.363-3.042 19.188-11.694 30.258-30.88 32.125-55.619.251-3.303 1.518-3.826 2.307-4.483 2.594-2.168 5.301-4.362 8.607-5.903 5.277-2.468 6.272-4.248 7.603-9.497.425-1.679 1.608-2.9 4.585-3.131 6.744-.533 22.359-2.866 30.75-7.853 5.578-3.381 9.626-6.664 13.633-12.152 1.848-2.537 2.865-4.83 3.846-7.047 2.127-4.828 3.966-8.998 13.024-12.609 2.967-1.189 5.297-2.609 6.906-4.225 7.906-7.902 7.72-15.569 6.244-22.115-.28-1.231-.428-2.283 1.546-2.539 1.149-.15 2.311-.227 3.462-.227 9.096 0 18.197 4.807 24.976 13.182 7.623 9.422 11.005 21.615 8.828 31.82-1.729 8.077-10.613 12.512-18.457 16.422-7.775 3.885-11.943 5.888-15.563 12.712-.812 1.527-2.196 4.104-2.927-.277-1.454-8.751 1.976-15.565 5.599-22.769.798-1.583.281-1.759-.979-.344-4.405 4.939-8.132 10.588-8.074 16.935.04 5.053 1.436 17.358 6.592 32.996 2.729 8.08 5.554 16.44 1.497 22.717-5.52 8.538-19.214 9.097-25.311 9.097-7.928 0-15.573-2.192-22.967-4.313-18.987-5.436-35.487-9.37-50.748.739 3.767-1.088 7.603-1.808 11.493-2.158 2.691-.231 3.012 1.043.805 2.642-4.293 3.095-8.464 7.58-12.501 11.916-7.318 7.874-14.882 16.02-23.572 16.02z" fill="#86e4c7"/><path d="m482.926 517.277c-57.437-.002-112.32-6.1-163.143-18.123-25.594-6.059-50.478-14.192-73.955-24.182-20.333-8.646-46.221-20.912-66.161-39.162-29.961-27.416-48.722-72.414-33.319-111.806 4.683-11.978 10.991-19.899 22.576-31.247 51.179-50.125 131.592-79.812 159.483-89.035 3.728-1.233 2.91-.315 4.371.734 3.417 2.455 8.482 3.634 11.07 4.237 4.345 1.014 8.567 1.523 12.554 1.523 6.81 0 12.718-1.492 17.546-4.441 5.4-3.289 9.031-8.766 9.567-14.263.171-1.741.591-2.627 2.627-3.044 43.819-8.957 88.677-13.5 133.349-13.5 7.618 0 15.351.133 22.993.394 1.726.058 1.588.646 1.604 1.754.089 5.762 7.317 11.301 21.493 16.469 5.477 1.775 11.723 2.765 17.539 2.765 7.457 0 20.866-1.666 27.615-12.713.575-.937.934-1.202 2.246-.965 48.15 8.743 95.125 24.193 139.661 45.934 1.581.775 1.629 1.39 1.086 2.81-.266.691-.509 1.411-.719 2.17-5.004 18.35 13.737 34.416 28.43 41.332 4.725 2.219 12.463 5.114 18.718 4.026 5.744-.999 10.239-5.167 10.037-11.922-.09-3.038.493-3.105 3.125-1.057 18.7 14.549 33.563 29.335 45.014 44.818 11.06 14.952 13.199 21.515 14.305 32.089.653 6.236.358 12.596-.86 19.204-4.479 24.252-22.37 49.021-53.17 73.619-48.407 38.67-111.378 54.515-154.532 63.07-61.959 12.283-122.905 18.51-181.135 18.51-.007.002-.013.002-.015.002zm172.845-213.148c-8.481 0-15.676 1.861-21.388 5.529-6.298 4.043-10.074 10.316-10.104 16.781-.025 6.141 3.91 11.479 10.029 13.606 1.91.666 3.953 1 6.063 1 8.481 0 18.368-5.219 30.219-15.957 3.791-3.521 7.559-7.789 6.658-12.67-.711-3.825-4.611-6.342-11.609-7.473-3.348-.541-6.666-.816-9.868-.816zm-275.358-42.85c-7.337 0-15.063 11.193-19.021 17.865-7.065 12.946-12.294 36.332 2.355 47.512 2.915 2.223 5.974 3.348 9.095 3.348 9.157 0 17.559-9.797 20.382-19.271 3.882-13.027 2.814-33.994-5.688-45.152-2.204-2.893-4.539-4.302-7.123-4.302zm140.952 18.916c-1.772 0-3.354.326-4.85 1.002-4.3 1.947-3.896 7.842-3.271 11.18.923 4.938 3.324 10.502 7.145 16.545 2.672 4.229 5.903 7.779 9.601 10.558 4.286 3.223 9.3 4.996 14.122 4.996 1.691 0 3.351-.22 4.938-.65 5.899-1.602 10.047-6.352 10.819-12.399.757-5.923-2.801-11.365-5.917-14.886-6.372-7.203-15.877-11.401-24.332-14.563-2.284-.83-5.298-1.783-8.255-1.783zm-262.789-14.102c-11.791 0-22.304 2.854-28.841 7.838-3.047 2.319-4.448 4.784-4.289 7.539.421 7.225 11.361 14.758 17.853 18.602 8.063 4.4 17.832 7.043 26.097 7.043 17.771 0 27.336-12.748 24.058-22.808-3.937-12.116-21.898-18.214-34.878-18.214zm394.865-42.489c-9.922 0-15.037 5.262-14.293 14.014 1.381 16.365 16.614 32.592 30.537 38.82 10.405 4.649 19.251 2.527 24.572-2.934 5.605-5.753 7.299-15.213 2.784-24.371-8.006-16.243-33.564-25.529-43.6-25.529zm-191.855-9.974c-13.125 4.527-23.129 19.893-27.413 34.335-2.279 9.281-1.754 16.988 1.462 21.089 4.058 5.18 12.781 4.058 18.291 2.312 13.762-4.361 26.369-17.205 31.683-29.099 3.418-7.644 3.563-15.631.383-21.373-4.562-8.229-16.282-10.067-24.406-7.264z" fill="#fec771"/><path d="m782.704 268.222c-11.992-6.06-19.685-14.175-22.915-24.179-4.702-14.518 4.669-25.044 23.461-13.668 8.218 4.983 14.731 15.744 18.756 28.186 3.256 10.008 3.322 21.089-19.302 9.661zm-178.661-86.427c3.561-4.407 3.109-7.834 2.107-9.932-1.848-3.869-7.121-6.435-12.483-7.801-7.347-1.871-13.589-1.808-24.731 1.588-5.688 1.734-10.787 4.168-14.818 7.142-2.021 1.488-2.906 3.121-2.641 4.851.639 4.082 7.641 6.783 14.156 8.992l1.548.536c5.518 1.793 11.427 2.779 16.64 2.779 8.921.001 15.911-2.817 20.222-8.155zm-245.139 1.475c-13.429 4.936-19.154 9.492-21.56 12.215-2.062 2.335-.56 3.647.526 4.268 2.155 1.227 4.844 1.855 6.753 2.303 4.589 1.067 8.542 1.588 12.082 1.588 5.302 0 9.622-.833 12.993-2.688 2.381-1.31 4.288-3.129 5.732-5.524 2.325-3.85 2.734-9.285-1.811-12.145-2.871-1.81-7.646-2.193-14.715-.017zm29.463 117.503c.51-8.512.104-20.482-4.705-29.164-2.5-4.499-4.419-5.853-8.375-1.276-12.787 14.792-14.174 26.253-14.209 32.462-.017 3.62.364 9.077 2.411 13.465 5.299 11.356 14.733 9.263 20.183-.057 2.878-4.923 4.447-11.264 4.695-15.43zm-99.918-11.641c.664-5.321-3.914-11.278-14.848-14.929-10.887-3.634-25.901-2.913-37.844 3.705-3.751 2.076-4.521 4.174-2.028 6.869 3.701 4.006 8.211 6.828 12.938 9.633 11.39 6.216 21.194 7.556 28.446 6.156 7.833-1.513 12.686-6.222 13.336-11.434zm190.805-48.36c2.854-6.373 2.871-13.582.047-17.939-2.969-4.565-7.524-5.716-14.855-2.95-19.832 7.495-24.161 28.389-25.397 37.091-.535 3.759-.361 7.586 2.379 8.812 10.075 4.513 30.345-8.29 37.826-25.014zm212.486 26.669c1.467-2.115 2.708-5.973.315-12.312-1.455-3.843-3.722-7.383-6.717-10.554-8.315-8.799-25.847-15.075-33.489-15.075-5.509 0-6.629 3.277-6.383 7.164.306 4.807 3.202 10.049 4.73 12.508 6.588 10.603 13.453 17.392 20.972 20.757 3.095 1.383 6.582 2.143 9.813 2.143 4.877 0 8.691-1.644 10.759-4.631zm-139.931 36.958c-3.758-6.228-15.434-13.149-26.719-17.102-5.063-1.774-6.32-.194-4.925 4.896 2.34 8.557 8.015 18.808 15.843 23.313 14.215 8.248 20.209-3.806 15.801-11.107zm98.619 27.202c5.188-2.558 10.169-6.068 15.997-11.355 5.953-5.523 5.064-7.75-1.689-8.822-10.11-1.549-19.552.279-23.422 2.113-7.972 3.791-11.202 8.6-9.938 14.713 2.06 9.966 14.991 5.356 19.052 3.351z" fill="#fef49c"/><path d="m880.286 352.383c1.589 28.367-1.407 41.779-8.036 61.242-9.602 28.17-33.106 48.879-58.078 64.379-54.383 33.758-120.106 46.567-182.614 55.52-67.208 9.627-135.632 11.568-203.313 6.436-63.909-4.848-130.009-14.387-188.626-41.646-28.481-13.246-56.138-25.657-78.369-47.938-10.651-10.68-30.5-41.125-34.28-52.261 1.18 7.033 3.073 14.103 5.748 21.193 21.038 55.762 79.473 83.967 112.429 95.813 20.532 7.383 79.042 23.499 136.372 31.531 93.481 13.098 180.232 10.43 267.716-3.248 72.402-11.32 137.657-32.039 181.006-64.078 13.563-10.026 38.683-31.802 50.043-62.316 10.519-28.25 6.641-44.818.002-64.627z" fill="#f26200"/><path d="m870.247 572.488c-10.217 9.816-18.803 7.445-29.364 15.355-1.919 1.432-3.88 4.346-5.927 7.606-10.063 16.035-11.833 13.207-27.095 16.133-9.645 1.853-18.242 5.972-24.916 13.923-13.843 16.495-45.669 23.881-67.01 25.157-17.589 1.048-32.102-1.893-49.13 4.505-12.116 4.547-20.977 10.021-34.972 7.944-10.933-1.615-21.262-6.201-32.299-7.373-17.666-1.871-33.244 2.302-50.344 6.152-20.328 4.582-40.994-10.771-60.768-1.781-11.833 5.385-24.403 4.103-36.969 3.074-15.242-1.246-14.194 9.771-34.431.563-18.459-8.396-29.367-3.733-48.924-2.217-13.945 1.08-18.895-17.133-34.773-12.764-10.959 3.016-18.249 10.371-29.758 4.049-7.029-3.859-12.854-7.752-20.7-9.75-5.471-1.391-11.707.213-17.081 1.121-7.185 1.213-17.837-6.629-25.267-8.91-5.4-1.662-11.697-.057-17.106.668-10.666 1.437-13.907-10.35-22.516-12.887-5.908-1.742-17.704-1.646-22.279-5.529-6.663-5.647-11.819-8.768-18.834-14.233-11.218-8.744-14.626-7.438-20.999-31.666-.429 3.118-.616 6.233-.083 9.235.479 2.717.798 5.195 1.085 7.467 1.332 10.313 2.205 17.123 15.373 22.421 7.304 2.934 11.234 5.426 15.252 12.424 4.761 8.291 10.671 9.994 18.083 9.994 1.24 0 2.505-.045 3.776-.091 1.269-.041 2.551-.088 3.842-.088 3.058 0 5.378.265 7.523.854 1.839.506 3.943 1.826 5.239 3.287 6.837 7.705 13.286 8.129 22.217 8.717 7.861.52 11.433 2.399 17.921 5.824l2.847 1.485c6.137 3.185 11.109 3.607 15.156 3.607 1.359 0 2.691-.049 4.021-.104 1.282-.049 2.563-.104 3.855-.104 2.962 0 5.324.287 7.665.932 3.681 1.011 7.2 2.535 10.609 4.008 5.896 2.55 11.469 4.959 17.777 4.959 4.345 0 8.537-1.17 12.809-3.573 2.214-1.244 4.546-1.851 7.137-1.851 5.339 0 11.025 2.636 16.52 5.185 5.569 2.58 11.323 5.25 16.885 5.25.553 0 1.105-.029 1.66-.086 2.81-.275 5.664-.65 8.549-1.029 5.787-.764 11.773-1.549 17.529-1.549 1.105 0 2.213.026 3.312.094 3.317.188 7.758 2.189 12.053 4.123 4.902 2.203 9.976 4.488 14.107 4.488 1.15 0 2.208-.179 3.135-.529 5.027-1.891 8.247-2.664 11.127-2.664 2.353 0 4.488.518 7.448 1.232 1.859.45 4.009.971 6.708 1.479.213.043.456.063.72.063 2.569 0 7.636-2.166 12.544-4.263 3.251-1.391 6.328-2.705 7.808-2.998 1.821-.36 3.881-.893 6.066-1.459 4.821-1.248 10.284-2.662 15.09-2.662 2.219 0 4.082.294 5.688.902 5.481 2.066 11.062 2.24 16.774 2.24l3.075-.006c4.777 0 9.433.112 13.857 1.483 5.133 1.593 9.642 2.365 13.792 2.365 5.757 0 11.173-1.477 16.597-4.522 2.229-1.255 4.756-2.685 7.188-2.746 5.846-.154 11.779-.633 17.516-1.092 5.555-.445 11.296-.906 16.896-1.068.943-.027 1.867-.039 2.757-.039 8.633 0 14.64 1.293 22.985 4.945 4.623 2.024 9.112 3.008 13.734 3.008 7.03 0 13.294-2.252 19.933-4.633 4.68-1.683 9.517-3.422 14.819-4.404 2.977-.553 7.563-1.213 12.52-1.213 4.503 0 8.32.541 11.356 1.617 3.001 1.059 5.681 1.575 8.199 1.575 4.99 0 8.57-2.026 12.361-4.172 2.585-1.467 5.263-2.981 8.652-4.022 5.717-1.76 11.626-1.883 17.342-2.002 10.351-.215 21.048-.438 30.321-10.515.153-.168.378-.438.651-.78.788-.976 2.88-3.568 4.13-3.787 7.833-1.369 8.952-4.097 10.268-8.791.324-1.162.688-2.467 1.252-3.937.933-2.397 3.758-5.141 6.321-5.239 1.171-.043 2.312-.063 3.413-.063 1.524 0 3 .031 4.425.063 1.372.03 2.707.057 4.023.057 6.562 0 12.353-.803 19.305-4.734 6.792-3.842 10.244-9.608 13.586-15.18 2.803-4.678 5.456-9.1 9.962-12.586 7.573-5.837 12.273-10.83 14.399-15.942z" fill="#f89c5a"/><path d="m757.644 587.07c32.025-11.293 60.669-30.705 83.75-55.461-31.032 23.824-70.447 39.121-93.813 45.354-29.396 7.838-54.717 11.649-77.391 11.649-14.843 0-28.864-1.664-41.672-4.947-9.404-2.409-21.477-5.989-31.438-12.315l-1.027-.652-.726.979c-22.433 30.406-68.53 36.791-103.246 36.791-2.766 0-5.473-.041-8.117-.115-60.73-1.703-99.976-14.781-119.97-39.979-.188-.236-.348-.507-.495-.847l-.521-1.184-1.187.512c-13.01 5.594-28.596 8.43-46.345 8.43-.002 0-.008 0-.008 0-31.151 0-69.295-8.629-113.358-25.651-14.029-5.418-27.646-13.238-39.438-22.32 7.003 7.769 14.852 14.533 21.403 19.474 24.501 18.459 53.088 28.608 83.121 33.862 30.496 5.33 64.761 4.375 96.979-3.51 7.452 6.731 15.696 12.498 22.371 16.77 29.677 19.003 70.741 21.384 104.913 21.507 31.315.106 70.524-4.582 96.333-23.425 3.499-2.555 7.37-5.819 11.303-9.59 11.835 6.189 25.963 10.168 33.341 12.115 41.003 10.807 85.635 6.512 125.238-7.447z" fill="#84391c"/><path d="m818.608 435.697c30.8-24.598 48.689-49.367 53.17-73.619 4.544-24.626-2.985-37.44-14.688-52.897 10.05 18.92 10.248 36.073 4.437 51.469-36.854 97.658-195.369 141.775-363.199 138.437-50.164-1.003-100.002-3.979-149.464-12.818-49.824-8.908-105.813-24.246-146.328-55.875-30.974-24.18-75.565-84.265-29.841-141.199-18.444 13.557-25.213 31.379-27.393 37.649-13.453 38.698 5.119 82.21 34.365 108.971 19.94 18.25 45.828 30.516 66.161 39.162 23.479 9.988 48.361 18.123 73.955 24.182 50.821 12.023 105.706 18.121 163.143 18.123h.016c58.229 0 119.176-6.227 181.135-18.51 43.153-8.56 106.123-24.405 154.531-63.075z" fill="#ff915b"/><path d="m849.767 700.566c-4.93-.779-9.511-1.885-13.941-2.961-6.65-1.605-12.934-3.123-19.01-3.123-9.336 0-17.166 3.756-24.633 11.822-12.08 13.041-22.026 19.119-31.302 19.119-6.486 0-12.553-3.007-18.498-9.184-1.476-1.53-1.325-2.392-4.349-1.289-6.561 2.387-14.003 3.551-22.703 3.551-2.563 0-5.125-.103-7.663-.277-4.222-.291-8.444-1.309-12.527-2.297-2.774-.67-5.545-1.336-8.35-1.805-2.604-.437-5.144-.658-7.526-.658-14.94 0-25.792 8.584-33.174 26.235-6.952 16.632-17.844 24.718-33.287 24.718-6.1 0-12.831-1.195-20.595-3.662-9.691-3.076-16.563-9.982-21.621-21.738-3.13-6.527-1.838-17.143-3.943-22.15-3.112-7.401-7.895-10.242-13.619-11.11-6.179-.937-11.613 3.642-14.893 8.438-5.457 7.979-6.515 16.687-3.171 25.81 1.954 13.397-.04 23.983-5.77 30.61-7.895 9.137-24.455 9.664-35.416 6.904-14.417-3.63-30.352-13.364-32.076-29.209-.605-5.588-.182-10.77.266-16.26.117-1.412.229-2.836.325-4.199 1.7-12.251-1.771-24.589-20.614-24.589-3.861 0-7.511 1.223-10.929 3.663-2.81 2.006-7.373 6.074-11.844 15.926-4.228 8.434-9.013 17.994-17.195 22.01-6.076 2.982-11.602 4.435-16.879 4.435-15.944 0-26.701-13.541-38.09-27.875l-.908-1.146-1.033 1.033c-9.256 9.229-21.379 14.307-34.14 14.307-8.448 0-16.906-2.182-25.126-6.485-10.122-5.302-17.234-12.193-25.429-21.599-9.723-11.166-19.889-16.59-31.078-16.59-8.419 0-17.125 3.07-26.612 9.387-11.117 7.406-21.14 11.005-30.628 11.005-2.756 0-5.51-.343-8.238-.964 3.669 1.277 7.64 2.146 11.673 2.607 28.492 3.279 49.006-18.111 73.056 6.51 20.914 21.406 37.858 35.779 69.513 26.834 5.998-1.694 11.841-4.137 17.458-7.178 14.201 16.412 36.284 28.398 53.218 26.854 17.463-1.597 28.058-14.994 36.478-28.906 4.679-7.736 8.865-18.347 18.105-21.498 12.598-4.297 8.284 19.772 8.083 25.428-1.472 40.615 46.874 70.691 80.623 41.188 13.521-11.828 11.697-27.445 14.711-42.74 2.839-14.406 9.085-16.187 10.345 1.221.678 9.469 3.404 18.389 13.308 25.354 23.178 16.307 51.729 19.887 70.085-4.644 9.306-12.434 17.101-34.647 34.882-34.512 16.703.131 31.186 7.559 48.473 4.861 1.979-.306 3.917-.691 5.824-1.14 2.84 1.441 5.807 2.64 8.81 3.519 31.239 9.121 45.389-17.652 70.802-26.563 10.919-3.83 25.551-1.125 36.98-2.117 5.973-.52 11.515-1.977 16.727-4.135-.861.047-1.714.129-2.601.129-3.183 0-6.664-.295-10.334-.875z" fill="#ff915b"/><path d="m676.544 558.156c38.96-7.254 78.501-18.75 114.804-34.729 31.857-14.029 70.146-39.791 87.62-71.863-.204-1.797-.469-3.606-.829-5.433-.889-4.483-1.054-4.577-3.617-.619-43.743 67.635-160.567 91.032-199.133 98.757-26.145 5.234-53.462 9.379-81.204 12.313-3.051.324-2.785 1.495-1.183 3.17 1.021 1.068 4.488 3.858 4.835 4.181 25.979 4.1 55.856-1.521 78.707-5.777z" fill="#e23f58"/><path d="m589.337 565.353c-2.032-1.948-3.803-4.038-5.272-6.232-.537-.799-1.221-1.398-2.683-1.266-26.853 2.451-54.085 3.692-80.958 3.692-38.631 0-77.343-2.559-115.093-7.604-2.555-.34-2.233-.615-3.818.736-3.366 2.863-6.961 5.426-10.718 7.634-1.922 1.133-1.411 2.227-.364 3.42 1.424 1.621 2.939 3.158 4.51 4.644 31.482-5.308 63.367-1.746 96.324-.504 20.985.795 42.084-1.228 63.074-1.525 12.706-.182 26.849-2.785 47.461 8.526 2.822-2.582 5.392-5.346 7.653-8.337 1.183-1.565 1.316-1.808-.116-3.184z" fill="#e23f58"/><path d="m263.99 547.137c30.502 8.93 74.188 16.697 107.379 4.838l-.67-.098c-31.91-4.841-63.22-11.438-93.081-19.613-28.81-7.894-95.29-30.34-131.962-76.781 18.799 46.91 71.733 78.02 118.334 91.654z" fill="#e23f58"/><path d="m864.879 591.566c-9.06 3.611-10.897 7.781-13.024 12.609-.979 2.217-1.998 4.51-3.846 7.047-6.09 8.341-16.958 13.872-21.757 15.285-6.133 1.804-17.16 4.235-22.372 4.697-2.817.251-4.249.819-4.84 3.153-1.329 5.25-2.324 7.03-7.602 9.497-3.06 1.426-5.605 3.411-8.023 5.417-2.366 1.962-2.648 1.883-2.912 5.256-1.931 24.603-12.99 43.685-32.104 55.334-1.755 1.065-1.695 1.699-.361 3.039 1.607 1.613 3.203 2.854 4.795 3.902 11.819-7.351 21.831-19.072 28.446-29.703 9.278-14.902 10.351-31.092 27.313-40.885 11.066-6.392 23.524-8.158 34.024-15.793 8.667-6.302 11.492-16.271 16.759-27.298 2.172-4.547 1.125-6.375 10.22-14.021-1.329.901-2.881 1.732-4.716 2.464z" fill="#39b78a"/><path d="m809.748 670.662c10.354 3.963 21.463 6.613 31.972 10.627 8.493 3.246 16.626 4.047 23.411-.531 3.618-2.442 3.128-6.357-1.482-6.941-10.272-1.3-20.03-4.668-29.891-7.859-7.771-2.516-19.113-3.76-24.325 3.914-.215.31.015.676.315.79z" fill="#b7f2da"/><path d="m726.189 673.322c13.07-8.836 31.598-4.037 45.938-7.826.491-2.088.929-4.215 1.248-6.408.205-1.415.234-2.81-2.33-2.051-10.971 3.269-22.141 4.1-32.945 4.903-5.039.377-9.518 2.855-13.843 5.256-8.127 4.507-12.472 5.911-17.807 4.031-5.837-2.064-11.625-3.068-17.7-3.068-8.279 0-17.024 1.931-26.746 5.904-19.447 7.936-24.774 4.066-28.334 2.929-10.448-3.339-19.61-6.149-29.994-6.149-5.937 0-14.473 1.715-20.285 3.043-10.17 2.327-21.202 4.748-30.847 5.967-7.082.894-12.198.226-19.347-.5-4.35-.441-8.849-.9-13.342-.9-1.188 0-2.329.032-3.436.096-6.224.357-7.398-.342-11.85-2.142-15.847-6.413-29.688-1.951-38.738 3.061-7.461 4.138-11.133 5.226-14.606 4.359-11.997-2.979-24.822-.319-27.591-.002-4.2.484-8.008-.268-14.687-2.969-11.458-4.634-13.015-5.79-22.684-4.892-6.419.581-12.637 1.104-18.19 1.104-1.64 0-3.241-.045-4.825-.142-1.933-.114-2.537.993-2.489 2.447.192 6.024-.473 11.855-1.942 17.392 14.106-4.449 27.703-10.797 42.686-10.123 15.217.686 28.979 4.883 44.352 3.697 19.506-1.502 33.331-10.857 53.914-7.074 23.932 4.397 47.527 7.07 71.643 2.518 29.376-5.551 56.271 4.072 84.949-4.676 25.769-7.869 45.949 8.362 69.828-7.785z" fill="#39b78a"/><path d="m351.951 675.177c-4.622-1.127-9.248-2.726-14.461-5.003-2.53-1.103-4.762-1.64-6.821-1.64-2.95 0-5.096 1.092-7.171 2.144-2.065 1.055-4.027 2.053-7.104 2.053h-.01c-7.414-.131-14.444-.486-21.492-1.094-2.847-.242-4.941-1.357-7.164-2.535-2.599-1.379-5.289-2.803-9.175-2.803-.918 0-1.896.08-2.967.262-3.364.576-7.855.976-14.219-1.412-5.342-2.005-9.98-5.564-18.239-9.753-5.335-2.706-8.662-2.953-12.629-2.755-2.4.12-5.034.403-8.487.403-2.207 0-4.036-.209-5.584-.638-3.697-1.02-6.125-3.754-8.742-6.697-1.881-2.122-5.604-3.067-12.072-3.067-1.941 0-3.87.084-5.574.156-5.79.118-18.405-6.68-20.374-9.01-8.592-10.131-14.866-15.649-27.321-19.622-3.622-1.154-6.09-5.773-7.026-9.921.068 2.841.347 5.716 1.111 8.72 2.646 10.377 16.359 11.792 23.237 18.951 4.954 5.15 9.401 17.788 17.467 18.017 9.242.266 15.264-.56 23.338 4.731 5.011 3.281 12.341 4.841 18.251 5.113 27.214 1.26 53.581 12.688 80.124 21.334 8.843 2.881 23.179-.475 32.103 1.313 13.789 2.76 18.377 10.463 18.89 20.297 3.243-7.499 4.75-16.107 4.256-25.06-.082-1.462-.086-1.986-2.145-2.484z" fill="#39b78a"/><path d="m611.22 742.671c3.347 6.315 13.573-1.189 15.895-4.65 5.365-7.99 4.356-15.865 3.878-24.896-.096-1.727-2.505-3.231-3.811-1.575-4.438 5.623-7.414 11.233-9.891 17.967-1.044 2.829-7.652 10.169-6.071 13.154z" fill="#b7f2da"/><path d="m377.527 730.28c3.663.951 8.303-.003 11.327-1.51 4.486-2.232 8.186-4.991 9.65-8.778 2.248-5.813-2.224-11.037-8.621-7.404-2.254 1.274-4.146 3.094-6.348 4.479-2.517 1.59-4.997 2.979-7.313 4.644-3.444 2.471-2.795 7.504 1.305 8.569z" fill="#b7f2da"/><path d="m302.698 713.492c2.346 4.861 10.286 4.092 14.526 3.041 5.648-1.395 12.877-5.891 12.058-12.617-.083-.696-.387-1.086-1.027-1.354-5.894-2.432-11.699 1.896-16.749 4.398-1.364.675-9.965 4.127-8.808 6.532z" fill="#b7f2da"/><path d="m161.995 687.681c3.608 1.643 7.417 2.094 11.869 1.33 3.646-.627 6.925-2.363 10.183-4.039 11.276-5.8 4.028-14.729-9.047-7.753-3.918 2.087-7.847 4.188-12.091 5.246-6.217 1.55-2.698 4.404-.914 5.216z" fill="#b7f2da"/><path d="m481.598 742.908c-1.81 4.854 5.329 11.396 9.071 13.308 5.716 2.916 16.397 4.871 19.223-2.726 2.503-6.729-11.717-6.526-14.938-7.451-1.698-.486-12.51-5.383-13.356-3.131z" fill="#b7f2da"/><path d="m701.625 278.625c4.561-9.452.332-19.998-2.506-23.373 1.574 7.618-.928 23.853-17.583 23.853-3.854 0-7.952-.924-11.852-2.666-12.196-5.455-25.391-18.58-29.412-32.75-.585 3.401-.63 6.879-.242 9.393 2.148 13.998 12.525 23.945 23.912 31.275 12.621 8.116 30.217 9.733 37.683-5.732z" fill="#ff915b"/><path d="m343.85 208.695c-2.163-.502-6.035-1.414-9.241-3.121.357 4.93 6.39 9.201 10.686 10.303 8.314 2.134 17.413-.465 24.476-4.914 7.583-4.77 13.418-12.073 14.526-21.112.04-.334 0-.666.021-1.002l-.739.151.005 1.066c.021 5.965-3.761 12.133-9.636 15.711-4.828 2.949-10.736 4.441-17.546 4.441-3.984.001-8.208-.509-12.552-1.523z" fill="#ff915b"/><path d="m583.121 196.352c-5.816 0-12.063-.988-17.539-2.765-10.382-3.78-16.966-7.768-19.82-11.891-1.996 8.492 7.588 15.342 14.063 19.174 8.636 5.105 19.356 6.551 29.09 4.822 19.883-3.527 23.002-18.276 22.556-23.295l-.464.791c-6.659 11.453-20.329 13.164-27.886 13.164z" fill="#ff915b"/><path d="m378.573 336.564c21.318-3.25 25.083-30.248 16.479-48.582.765 8.096.07 16.375-1.826 22.75-2.823 9.475-11.225 19.271-20.382 19.271-3.121 0-6.18-1.125-9.094-3.348-11.848-9.037-10.695-26.043-6.084-39.072-11.824 14.888-11.645 53.94 20.907 48.981z" fill="#ff915b"/><path d="m517.271 315.367c6.228 10.394 18.484 17.492 30.771 15.055 10.91-2.166 16.747-12.479 11.796-22.745-.021-.052-.06-.093-.085-.144.514 3.085.344 8.046-3.049 11.857-5.199 5.844-17.318 7.154-26.716.088-3.696-2.777-6.929-6.328-9.601-10.558-3.783-5.987-6.166-11.502-7.106-16.407-3.26 6.518.841 17.6 3.99 22.854z" fill="#ff915b"/><path d="m293.701 285.557c3.149 13.572-20.273 30.953-50.403 14.513-9.202-5.45-20.163-15.341-17.162-21.903-5.272 5.601-6.157 12.81-2.285 19.857 8.172 14.871 29.716 21.941 45.483 20.142 30.585-3.495 29.833-26.666 24.367-32.609z" fill="#ff915b"/><path d="m809.605 263.101c.396 5.398.222 15.722-12.096 15.722-8.219 0-16.344-3.231-24.665-8.778-11.525-7.684-22.339-19.875-20.388-33.579-2.212 4.902-1.28 12.072.54 17.132 4.629 12.877 17.292 23.543 28.646 30.344 12.269 7.348 28.948 6.34 35.024-8.246.795-1.912 1.316-3.824 1.628-5.721-2.139-1.735-8.689-6.874-8.689-6.874z" fill="#ff915b"/><path d="m673.268 322.402c-.849.938-1.761 1.836-2.678 2.688-11.851 10.738-21.736 15.957-30.219 15.957-2.108 0-4.151-.334-6.063-1-5.146-1.786-8.712-5.856-9.714-10.752-1.017 9.48 6.684 15.543 15.475 16.302 13.127 1.131 30.014-13.214 33.199-23.195z" fill="#ff915b"/><path d="m488.15 228.045c.464 4.445-.383 9.4-2.54 14.222-6.225 13.93-22.45 29.162-38.821 30.545-.656.053-1.295.082-1.9.082-4.144 0-7.255-1.291-9.252-3.84-3.216-4.101-3.741-11.808-1.462-21.089.054-.184.122-.37.181-.555-2.317 5.191-3.45 10.879-2.852 16.795 1.669 16.459 17.363 19.951 30.364 14.299 12.831-5.582 23.786-18.868 28.049-31.942 2.191-6.71 1.255-13.236-1.767-18.517z" fill="#ff915b"/><g fill="#fffad2"><path d="m473.097 328.178c-3.313-1.468-6.843-.736-10.086.655-1.648.705-3.049 1.617-4.451 2.729-4.679 3.715-.408 5.42 2.827 5.124 4.531-.413 9.363-.749 12.232-4.455.909-1.167 1.162-3.307-.522-4.053z"/><path d="m547.909 370.309c4.604 1.83 7.669-5.703 3.343-7.931-1.895-.975-3.903-1.582-5.905-2.291-3.82-1.353-6.804.356-4.394 4.644 1.499 2.644 4.219 4.49 6.956 5.578z"/><path d="m451.033 374.544c-1.548 1.492-2.434 3.543-3.549 5.313-4.371 6.939 3.027 5.7 4.157 5.223 1.899-.807 3.705-1.983 5.32-3.291 5.286-4.282-.754-12.244-5.928-7.245z"/><path d="m315.859 354.424c-4.456-4.87-7.424-4.458-6.229 2.591.449 2.68 1.583 5.705 3.049 7.993 2.49 3.892 7.921 1.285 7.16-3.02-.469-2.677-2.147-5.566-3.98-7.564z"/><path d="m334.814 267.432c-1.288.366-3.422 1.979-5.188 6.337-1.63 4.025.392 6.665 6.282 3.195 1.369-.809 2.862-1.922 3.684-3.319 2.096-3.597.584-7.752-4.778-6.213z"/><path d="m391.253 234.692c.764 2.514 2.521 4.477 4.563 5.979 2.787 2.058 6.889-1.34 5.812-4.465-.987-2.854-3.197-5.246-5.875-6.695-3.46-1.873-6.047.116-4.5 5.181z"/><path d="m536.318 227.647c-3.733 1.207-6.681 3.567-8.875 6.813-5.006 7.407-3.017 8.344 2.151 6.458 4.385-1.6 6.281-1.918 11.031-6.668 2.963-2.332-.255-7.922-4.307-6.603z"/><path d="m581.248 264.234c-1.615-2.173-5.547-3.098-5.847 1.582-.08 1.274-.16 2.529-.169 3.807-.028 3.59 1.46 8.551 6.198 7.248 4.657-1.281 3.56-6.276 1.888-9.436-.601-1.144-1.29-2.169-2.07-3.201z"/><path d="m594.291 235.627c-1.761 3.652 4.808 1.953 11.758.4 2.253-.504 6.508-3.58 4.823-6.449-3.934-6.721-14.321 1.408-16.581 6.049z"/><path d="m723.402 301.004c-3.478-2.729-9.083-3.855-4.831 3.728 1.024 1.834 1.349 4.049 2.998 5.479 2.893 2.498 6.761.07 6.139-3.571-.394-2.312-2.545-4.247-4.306-5.636z"/><path d="m712.774 349.043c10.37-6.367-.874-10.239-6.769-7.094-2.726 1.459-4.354 3.602-5.79 5.951-2.039 3.335-2.506 7.36 3.089 5.384 3.751-1.324 8.043-3.361 9.47-4.241z"/><path d="m773.078 327.518c-1.785.271-3.498.977-5.254 1.418-7.452 1.851-2.405 10.57 7.98 8.45 2.733-.562 4.271-3.746 3.568-6.296-.799-2.924-3.536-3.992-6.294-3.572z"/><path d="m757.621 302.606c1.431-1.205 2.38-2.795 3.094-4.502 1.735-4.105-2.604-5.255-4.995-4.445-3.22 1.09-6.619 5.294-6.345 7.715.29 2.559 3.5 4.251 8.246 1.232z"/><path d="m724.262 242.064c-1.912-2.526-6.179-2.665-5.07 2.943 2.815 14.13 14.904 7.353 5.07-2.943z"/><path d="m623.773 278.857c-1.391-.623-2.885-.313-4.027.688-1.104.968-1.889 2.134-2.504 3.459-2.43 5.211-.363 6.289 3.449 4.466 1.565-.752 2.986-1.511 4.146-2.836 1.004-1.144 1.313-2.634.688-4.021-.273-.884-.869-1.478-1.752-1.756z"/><path d="m603.34 338.004c2.033-2.866.132-5.936-1.188-8.688-3.863-8.042-8.605-6.889-7.422 2.01.459 3.449.995 7.09 4.711 8.266 1.561.494 3.023-.348 3.899-1.588z"/><path d="m408.892 352.694c-.841 2.921-1.577 6.5-1.474 8.675.091 1.998 1.226 3.275 3.027 3.979.707.276 1.483.278 2.194 0 1.791-.703 2.949-1.98 3.024-3.979.092-2.277-.395-4.646-.894-6.863-.611-2.71-3.551-9.894-5.877-1.812z"/><path d="m229.218 345.707c-3.575 2.966-2.475 5.889 1.408 5.781 1.861-.049 3.927-.697 5.607-1.451 4.191-1.88 5.208-5.113 4.06-7.076-2.168-3.711-9.797 1.686-11.075 2.746z"/><path d="m311.203 247.227c.036-3.607-2.986-6.972-5.486-9.306-1.33-1.235-4.164-.5-3.93 1.627.414 3.81 1.252 8.123 4.483 10.509 2.084 1.535 4.907-.557 4.933-2.83z"/><path d="m370.829 373.152c-.055-1.244-.04-1.307.559-2.639 3.44-7.71-1.125-12.648-6.378-6.655-3.141 3.581-5.243 8.576-1.541 12.34 2.569 2.607 7.513.749 7.36-3.046z"/><path d="m446.465 200.5c-1.497-3.276-6.368-2.045-8.957-1.19-1.459.479-3.559 1.592-4.619 2.723-1.912 2.024-1.996 4.299 2.11 4.598 5.413.394 13.94-.704 11.466-6.131z"/><path d="m510.723 360.927c-2.667-5.972-7.055-.21-5.108 8.286.621 2.693 2.672 5.566 5.761 5.107 2.102-.311 2.96-3.891 2.46-5.578-.818-2.762-1.948-5.195-3.113-7.815z"/><path d="m665.484 369.617c.558-.252.688-.932.594-1.465-.404-2.39-4.239-4.982-7.354-6.335-4.975-2.161-3.795 1.285-2.326 3.743 1.956 3.275 5.172 5.81 9.086 4.057z"/><path d="m817.902 312.373c-.649-2.367-2.89-3.287-5.138-2.918-2.616.428-5.029 1.255-7.145 2.588-5.674 3.577-3.865 6.535 2.679 6.28 2.233-.084 4.502-.363 6.686-.814 2.232-.46 3.49-3.054 2.918-5.136z"/><path d="m600.022 383.71c.278 4.394 6.529 4.394 6.817 0 .09-1.418.145-2.852-.115-4.256-1.456-7.65-7.225-3.634-6.702 4.256z"/><path d="m435.834 294.115c-3.967-2.338-5.541-.697-4.149 3.187.506 1.399 2.69 5.573 5.596 7.156 4.39 2.581 5.19-.178 4.336-3.329-1.242-3.879-4.52-6.27-5.783-7.014z"/><path d="m283.01 383.08c-.641 10.1 6.774 7.142 5.595-.76-.769-5.097-5.248-4.692-5.595.76z"/><path d="m369.554 419.734c-.7 2.751-.933 6.417-.125 9.411 1.156 4.281 7.206 3.168 7.458-1.01.13-2.148-.346-4.506-1.025-6.545-1.513-4.557-4.795-7.793-6.308-1.856z"/><path d="m481.928 422.994c-3.755-3.731-8.645-1.375-6.146 3.79.562 1.156 1.285 2.427 2.202 3.339 3.593 3.522 7.34.044 6.332-3.684-.364-1.289-1.468-2.531-2.388-3.445z"/><path d="m557.242 401.748c-3.916-1.627-7.848.868-11.612 3.138-5.544 3.34-2.803 5.255 1.456 6.102 4.459.887 9.179 1.006 11.937-2.485 2.021-2.546 1.19-5.519-1.781-6.755z"/><path d="m662.698 423.314c3.282 4.049 10.1-1.271 7.196-5.557-1.445-2.132-3.648-3.714-5.831-4.668-10.262-4.488-5.644 4.931-1.365 10.225z"/><path d="m717.195 394.188c-3.16-1.609-6.528-1.097-9.931-.605-7.996 1.15-7.921 7.028 0 8.167 3.4.49 6.771 1.005 9.931-.606 2.627-1.339 2.627-5.619 0-6.956z"/><path d="m752.621 371.869c-4.943 3.717-1.86 6.264 1.359 6.441 1.518.083 3.047-.055 4.312-.297 4.159-.8 7.788-1.841 10.163-5.56 3.07-4.808-4.205-9.328-15.834-.584z"/><path d="m808.393 357.197c-9.645-4.641-5.197 4.147-3.613 5.904 1.354 1.485 3.314 2.938 5.268 3.465 3.576.959 5.551-3.254 3.391-5.828-1.269-1.509-3.289-2.693-5.046-3.541z"/><path d="m512.001 204.523c.195.499.407.993.682 1.463 1.27 2.18 2.204 4.352 3.876 6.281 2.611 3.017 7.415-.841 5.596-4.317-1.395-2.651-3.667-5.013-6.387-6.37-3.685-1.841-4.884.083-3.767 2.943z"/><path d="m641.414 203.92c-2.717-.657-5.719-.469-8.354.474-4.393 1.566-3.164 6.254 1.84 6.298 2.693.029 5.589-1.18 7.506-3.021 1.194-1.148.64-3.355-.992-3.751z"/><path d="m348.91 232.807c-1.876.078-4.685.991-7.974 3.424-3.668 2.714-1.548 4.547 2.377 4.688 2.103.074 4.571-.123 6.603-.657 4.108-1.08 3.319-7.637-1.006-7.455z"/><path d="m207.985 311.518c-.762-1.171-1.673-2.174-2.659-3.096-5.625-5.259-7.386-3.111-5.328 2.547.39 1.072.817 2.144 1.318 3.245 3.566 7.885 10.368 2.963 6.669-2.696z"/><path d="m491.102 291.213c-1.431-1.194-3.021-1.925-4.729-2.325-3.371-.79-4.584-.025-3.117 3.344.655 1.503 1.786 3.206 3.235 4.584 4.351 4.139 13.904 4.726 8.266-2.289-.979-1.232-2.45-2.306-3.655-3.314z"/></g><path d="m631.27 324.762c-.414 4.098.822 6.612 2.844 8.021 4.566 3.189 11.945.975 16.313-1.182 17.823-7.978 19.886-17.853 19.886-17.853-6.938 6.377-30.625 21.064-39.043 11.014z" fill="#f6b279"/><path d="m522.496 298.689c2.95 6.744 7.604 13.416 13.51 16.813 15.491 8.988 18.722-3.247 17.131-8.008-3.887 1.755-6.184 1.726-9.253 1.707-8.165-.041-15.102-4.838-21.388-10.512z" fill="#f6b279"/><path d="m604.043 181.795c4.588-5.679 2.666-9.025 1.571-10.705-2.948 10.16-18.781 17.244-39.92 15.568l1.487.514c5.518 1.793 11.427 2.779 16.64 2.779 8.921 0 15.911-2.818 20.222-8.156z" fill="#f6b279"/><path d="m759.071 240.172c.774 9.214 7.114 18.211 18.994 25.471 11.907 7.278 21.507 9.999 24.46 4.38 1.021-1.933.966-4.574.571-7.015-9.01 3.743-34.82-2.617-44.025-22.836z" fill="#f6b279"/><path d="m344.528 202.031c.03.008.064.016.095.023 9.493 2.208 14.707 2.78 22.492.043 3.588-1.261 6.932-3.5 8.948-7.41 1.819-3.527.451-8.527-1.139-10.053-2.674 9.283-16.174 16.867-30.396 17.397z" fill="#f6b279"/><path d="m671.169 269.93c3.095 1.383 6.581 2.143 9.813 2.143 4.876 0 8.689-1.645 10.758-4.631 1.035-1.498 1.936-3.896 1.538-7.404-6.499 4.385-13.87 6.797-22.157 5.26-4.357-.809-8.505-2.575-12.517-4.872 4.015 4.373 8.176 7.539 12.565 9.504z" fill="#f6b279"/><path d="m284.876 281.465c-6.126 15.035-30.654 13.837-39.55 12.13 19.248 11.523 35.109 9.3 40.742-.384 2.823-4.862 1.797-8.431-1.192-11.746z" fill="#f6b279"/><path d="m368.941 304.287c-2.771-7.695-1.255-16.59.45-25.426-5.391 7.639-8.277 17.726-8.313 23.935-.025 5.545.881 15.4 7.281 19.121 5.863 3.414 10.017 1.917 14.198-4.008-6.557-.784-10.595-5.22-13.616-13.622z" fill="#f6b279"/><path d="m479.301 222.832c-1.215-1.871-2.924-3.098-4.961-3.75.216 7.517-1.654 14.877-6.98 23.297-5.739 9.066-14.206 17.812-23.88 23.988 5.146 1.008 12.969-2.059 15.271-3.492 10.608-6.593 17.137-14.575 20.505-22.104 2.851-6.373 2.869-13.582.045-17.939z" fill="#f6b279"/><path d="m177.774 736.789c11.854 23.447 47.693 33.854 70.674 42.339 33.395 12.325 66.139 18.666 101.656 16.258 1.439-.099 1.886-2.254.352-2.615-28.398-6.707-56.892-15.457-84.855-23.857-15.169-4.561-30.045-9.903-44.771-15.723-14.117-5.578-27.348-14.662-42.485-17.139-.442-.075-.785.321-.571.737z" fill="#fffad2"/><path d="m361.173 797.65c3.243 2.814 6.104 4.375 10.493 4.805 2.598.259 5.479.775 8.067.195 2.886-.643 5.494-1.973 8.377-2.627 1.311-.297 1.311-2.34 0-2.635-4.59-1.045-8.198-3.017-13.022-3.203-4.467-.17-8.263-.082-12.669.453-1.362.169-2.547 1.883-1.246 3.012z" fill="#fffad2"/><path d="m729.5 779.828c35.728 7.33 76.564-13.61 101.203-38.442 1.313-1.32 0-4.041-1.926-3.306-33.285 12.765-66.334 26.734-99.278 40.361-.59.243-.78 1.225.001 1.387z" fill="#fffad2"/><g fill="#68182b"><path d="m876.301 555.207c-2.94-8.225-6.08-16.344-3.301-24.258 4.894-13.922 11.864-25.201 7.044-39.641-.284-.814-.219-1.492.228-2.422 8.043-16.722 10.041-35.284 2.516-55.38 4.981-10.418 8.446-21.759 9.982-34.14 7.697-61.973-37.264-112.508-83.909-146.586-.144-.105-.283-.168-.427-.252-4.296-12.268-13.449-23.443-23.973-29.824-9.072-5.5-19.343-5.76-26.159-.119-45.302-22.302-93.748-38.575-143.452-47.565.104-12.16-15.898-19.513-26.932-20.078-9.344-.478-18.734 2.104-27.29 5.613-3.585 1.472-7.401 3.185-10.666 5.536-2.088 1.503-2.298 1.515-4.878 1.416-54.827-2.091-109.267 2.592-162.984 13.736-2.361-3.332-6-5.717-10.263-6.625-12.188-2.598-24.951 4.324-34.67 10.877-3.536 2.455-7.779 5.736-9.026 10.008-80.191 26.052-199.355 80.476-208.566 177.896-2.034 21.529 1.726 40.729 9.56 57.799-12.35 24.246-8.274 47.277 4.164 66.918-2.978 8.859-1.604 17.73-3.888 27.129-1.196 4.92-6.066 10.648-3.775 15.916 3.247 7.451 4.593 15.812 5.313 24.507-12.94 10.334-34.193-1.3-46.13 11.198-10.118 10.588-13.051 28.763-4.174 40.933 3.221 4.412 8.805 6.309 13.72 8.028 5.963 2.088 11.728 2.188 17.641 4.951 9.29 4.34 6.769 22.328 7.236 30.414.834 14.428 8.421 27.146 18.935 36.563-8.688 62.063 62.748 90.905 110.644 107.325 88.688 30.406 184.314 42.597 277.791 40.045 81.034-2.211 165.844-13.854 242.397-41.104 46.587-16.588 105.03-47.418 105.362-103.646 6.252-2.338 11.77-6.514 16.482-13.135 13.19-18.537-16.412-40.541 8.324-55.41 12.193-7.319 19.229-7.633 25.268-22.192 11.249-27.109-22.529-58.835-48.144-54.431zm-130.832 14.136c-33.836 9.907-70.135 14.059-105.12 8.68-11.161-1.717-25.542-5.006-36.755-11.653-1.357-.805-6.531-4.307-10.431-8.369 27.735-2.897 55.292-7.01 82.484-12.452 64.082-12.836 161.715-38.226 200.87-100.74 15.129 65.767-80.914 109.855-131.048 124.534zm-163-10.28c1.839 2.904 4.069 5.492 6.589 7.813-23.099 31.881-74.846 34.42-110.28 33.428-34.829-.978-84.103-7.676-108.172-36.371 4.443-2.537 8.638-5.521 12.564-8.965 65.922 8.973 133.08 10.214 199.299 4.095zm184.382-331.327c4.896-1.672 10.923 1.688 14.927 4.115 9.3 5.637 15.749 17.1 18.987 27.112 1.094 3.369 2.951 10.968-1.719 12.347-3.623 1.071-8.774-1.217-12.316-2.629-11.275-4.986-21.771-12.892-25.699-25.037-1.845-5.705-.459-13.765 5.82-15.908zm-211.959-53.89c7.875-5.808 18.793-8.783 28.346-9.599 8.329-.711 29.63 4.543 19.79 16.728-8.172 10.123-24.603 8.477-35.442 4.955-4.118-1.496-20.688-6.192-12.694-12.084zm-179.267 17.279c-.542 3.453-2.73 5.868-5.5 7.688-5.806 3.815-14.984 4.401-25.271 2.006-1.828-.427-4.02-.953-5.836-1.857-1.571-.782-1.622-1.755-.489-2.896.999-.996 2.134-1.816 3.29-2.619 5.419-3.65 11.112-6.955 17.39-8.883 4.341-1.34 7.29-1.386 8.916-1.25 5.355.445 8.163 3.581 7.5 7.811zm-44.996 13.244c3.342 3.207 8.907 4.662 12.924 5.601 10.183 2.368 21.875 2.536 31.076-3.076 5.797-3.533 10.284-9.883 10.258-16.832 52.072-10.771 104.788-15.224 157.901-13.379-.368 9.321 15.113 15.494 22.349 18.131 15.289 4.965 37.916 4.651 47.002-10.967 48.696 8.782 96.269 24.532 140.691 46.305-.407.973-.776 1.996-1.077 3.094-4.618 16.945 10.17 32.168 24.321 40.333 17.789 10.269 34.611 9.134 34.956-5.725.015-.679-.022-1.361-.04-2.039 16.205 12.458 31.492 26.605 43.96 42.693 9.577 12.358 14.604 22.613 15.973 31.256 1.076 6.8 1.042 14.106-.433 22.077-5.47 29.604-30.072 54.771-52.694 72.839-43.944 35.1-99.665 52.045-153.975 62.811-112.029 22.207-232.055 26.824-343.73.396-25.199-5.963-49.93-13.979-73.756-24.111-23.253-9.891-47.034-21.76-65.788-38.924-29.59-27.077-46.092-69.252-34.495-105.883 4.501-14.22 12.672-24.75 26.091-37.502 44.91-42.677 113.349-72.391 158.486-87.098zm-189.842 126.299c-8.309 30.359 1.197 63.912 21.541 90.904 30.642 40.666 86.092 60.709 133.225 74.58 107.979 31.785 226.116 29.029 336.355 11.66 65.588-10.334 132.096-26.953 186.075-67.502 26.342-19.787 51.498-47.726 57.65-81.043.833-4.521 1.151-8.857 1.043-13.037 2.64 6.752 4.813 13.738 6.308 21.035 9.317 45.463-18.646 85.229-53.522 111.01-49.277 36.424-114.191 50.523-173.206 61.687-23.704 4.485-47.626 7.668-71.638 9.877-.031.002-.059 0-.094.008-48.606 4.465-97.629 4.606-146.268 1.192-27.423-2.039-64.65-6.718-68.51-7.277-42.351-6.136-84.492-15.608-124.16-29.871-46.358-16.666-93.574-47.144-111.65-95.049-12.295-32.592-7.75-62.076 6.851-88.174zm-6.294 110.844c28.208 48.19 90.011 77.559 142.781 92.01 30.591 8.377 61.758 14.871 93.231 19.643-36.8 24.728-96.199 10.679-134.193-.122-22.364-6.352-53.411-19.319-76.154-37.951-13.115-10.744-21.522-21.546-26.188-33.215-4.87-12.185-5.426-25.678.523-40.365zm67.121 109.34c42.52 16.418 112.485 37.938 160.688 17.199.171.385.377.766.666 1.131 26.516 33.416 81.57 39.369 120.96 40.475 37.354 1.045 88.349-4.541 112.45-37.203 9.704 6.162 21.521 9.838 31.814 12.478 39.067 10.014 81.487 3.492 119.729-6.705 37.74-10.064 96.22-36.777 123.963-75.279-1.906 15.457-17.117 31.916-8.266 45.781 10.531 16.502 9.144 24.994-8.56 38.676-10.321 7.978-11.463 20.912-23.399 27.664-11.288 6.385-19.043 4.057-30.571 4.51-3.148.121-6.396 3.277-7.484 6.072-2.636 6.822-1.017 10.248-10.528 11.912-2.127.369-4.754 4.141-5.518 4.971-13.897 15.107-30.726 7.115-47.088 12.15-10.951 3.369-14.715 11.471-28.392 6.637-7.201-2.547-17.274-1.813-24.552-.459-17.35 3.229-29.339 14.17-47.724 6.119-9.294-4.068-15.921-5.311-26.307-5.016-11.398.328-22.924 1.854-34.404 2.162-2.763.073-5.452 1.59-7.82 2.924-9.833 5.531-18.884 5.281-29.334 2.037-10.721-3.32-22.657.448-33.632-3.693-7.932-2.996-19.886 1.643-27.563 3.16-4.023.793-17.251 7.828-20.575 7.192-12.113-2.297-13.222-4.793-25.984.015-7.141 2.69-20.422-7.681-28.76-8.164-9.717-.566-19.946 1.531-29.599 2.492-13.546 1.354-28.817-16.154-42.708-8.341-15.577 8.769-26.392-1.715-40.209-5.514-10.511-2.889-18.021 2.207-30.446-4.229-8.45-4.377-12.038-6.847-21.281-7.459-8.878-.584-14.854-.986-21.33-8.281-1.447-1.637-3.741-3.094-5.865-3.676-11.854-3.263-24.052 4.555-32.439-10.062-4.19-7.305-8.343-9.949-15.894-12.986-15.241-6.133-13.011-13.889-15.665-28.899-1.754-9.947 4.462-21.484 1.938-30.683-2.088-7.565-8.988-8.788-5.503-17.432 3.261-8.074 2.329-16.789 3.686-24.955 15.804 19.464 39.44 34.755 61.506 43.279zm493.946 157.132c-12.508-2.736-24.053-3.035-33.833 1.148 3.948-4.59 8.197-8.902 12.592-13.313.192-.194 0-.518-.26-.451-13.953 3.563-24.027 17.058-30.705 31.117-.037.063-.076.115-.113.181-2.161 3.879-5.031 11.524-6.528 14.956-7.025 16.056-22.642 16.238-36.678 13.328-15.097-3.127-24.118-15.297-23.164-30.883.378-6.146 1.673-10.703-1.747-16.543-8.428-14.383-29.343-9.994-40.662-2.723-.753.479-1.431 1.002-2.069 1.545.492-4.037 1.305-8.094 2.677-12.193.085-.266-.243-.391-.419-.246-7.896 6.459-9.975 17.437-9.277 28.326-1.767 22.789 14.221 54.229-25.352 48.336-20.676-3.08-32.039-16.606-30.515-37.137.458-6.188 1.965-14.221.535-21.082 3.841 4.201 7.156 9.123 10.344 13.365.377.502 1.08.198.988-.418-.769-5.185-3.196-10.473-6.705-15.083-6.997-9.188-17.016-16.021-30.543-15.389-6.932.323-14.018 2.879-20.016 7.062-7.866 5.483-11.887 16.289-16.21 24.367-8.323 15.555-22.517 18.334-37.619 11.163-7.429-3.528-13.154-15.086-18.564-22.272 7.079-10.047 11.013-22.883 10.301-36.998 7.188.555 14.605 0 24.364-.887 11.884-1.078 20.501 4.916 31.392 8.246 2.114.646 8.448-.808 8.861-.863 10.359-1.396 15.814-1.014 26.093.938 3.648.69 9.386-2.563 14.102-5.175 6.773-3.755 20.26-10.317 38.303-2.346 2.347 1.033 5.209 2.465 7.761 2.127 13.458-1.777 26.558 2.639 39.819.959 11.533-1.457 25.028-4.621 36.616-7.287 18.439-4.246 30.502.094 47.391 5.479 8.667 2.764 17.909-.853 25.784-4.07 14.453-5.906 28.594-8.088 43.515-2.812 11.953 4.228 20.743-8.36 32.184-9.217 11.63-.865 22.8-1.733 33.981-5.186.007-.002.018-.004.022-.008-5.064 38.732-37.867 58.426-76.646 49.939zm-566.207-48.589c-.69-11.262-2.116-22.436-4.657-33.506-1.92-8.357-5.045-21.293-14.342-24.246-.439-.141-.731.438-.433.752 5.459 5.777 7.755 14.371 9.246 22.697-1.87-1.594-4.057-2.988-6.602-4.176-10.047-4.697-25.733-.617-27.911-17.906-2.141-16.986 11.282-23.056 24.925-23.295 8.122-.144 15.317-.486 22.001-3.734.432 9.271.703 18.67 2.248 27.566.746 4.33 3.474 10.381 8.117 11.862 12.404 3.953 18.493 9.517 26.72 19.224 2.143 2.522 15.161 9.645 18.673 9.569 5.345-.11 16.154-1.25 19.376 2.371 2.67 3.015 5.272 5.967 9.366 7.092 4.665 1.283 10.402.416 15.103.093 8.501-.584 15.706 5.719 22.717 9.354 6.87 3.562 14.314 6.035 21.905 4.738 8.846-1.514 11.59 4.455 18.974 5.086 7.216.623 14.35.975 21.588 1.1 8.319.146 9.931-7.319 20.604-2.662 5.927 2.587 10.968 4.236 15.754 5.328 1.996 27.47-14.868 51.043-43.471 50.648-26.229-.361-37.95-22.183-55.247-37.277-5.626-4.914-11.156-7.416-16.632-8.311 9.698-1.537 19.749-1.236 29.468-.771.594.029.863-.879.312-1.143-20.802-9.822-47.199-1.943-65.06 11.733-13.104 6.679-26.322 13.55-40.161 10-21.333-5.47-29.455-23.3-32.581-42.186zm619.808 141.657c-68.763 22.33-142.875 31.02-214.813 34.567-83.026 4.101-166.388-6.803-246.486-28.379-47.408-12.768-145.921-38.694-141.233-103.022 2.231 1.455 4.535 2.778 6.883 3.95 17.757 8.859 34.278 3.47 49.627-6.754 21.242-14.141 39.451-12.006 55.984 6.972 7.848 9.014 15.177 16.334 25.806 21.897 22.977 12.027 45.956 6.734 60.794-8.049 15.216 19.15 29.588 37.039 56.563 23.799 11.126-5.457 15.952-20.072 21.65-29.969 8.178-12.003 18.057-14.605 29.633-7.809 5.716 3.356 8.667 10.539 7.435 19.417-.495 7.133-1.378 13.612-.594 20.778 2.142 19.711 25.951 31.188 43.695 31.955 26.553 1.15 35.757-15.877 32.15-40.59-2.63-7.236-2.492-14.043.416-20.42 3.203-7.021 10.767-13.437 18.2-12.133 4.078.716 7.383 3.71 10.039 8.919 2.84 5.567 2.26 13.685 2.548 16.308.247 2.25.829 4.49 1.93 7.047 4.524 10.494 11.082 18.861 22.43 22.463 25.744 8.175 44.806 3.736 55.481-21.795 7.263-17.373 18.601-28.248 39.278-24.795 7.029 1.174 13.848 3.625 21.003 4.117 10.865.754 22.199.168 32.427-3.934 18.123 20.405 36.203 9.875 53.137-8.404 18.008-19.443 33.804-8.904 56.417-5.332 5.533.873 10.722 1.141 15.571.641-2.151 56.866-69.819 83.567-115.971 98.555zm166.402-193.859c-2.331 10.898-19.294 14.875-27.212 20.891-3.172 2.408-5.439 5.347-7.058 8.642-2.25-11.683 4.809-19.986 9.057-30.445.136-.336-.352-.553-.575-.336-6.43 6.295-14.725 14.408-14.644 24.213.055 5.92 1.119 14.968 5.315 29.32 4.412 15.089 13.303 30.985-17.367 33.986-14.007 1.37-40.079-8.714-54.938-9.338-9.96-.418-19.275 1.399-27.804 9.769-.185.182 0 .553.26.451 5.767-2.138 11.289-3.388 16.884-3.857-16.402 11.439-29.521 41.66-49.094 20.9 20.65-12.275 31.39-32.433 33.382-56.312.191-2.292.266-2.953 1.983-4.387 2.53-2.113 5.113-4.194 8.232-5.652 5.349-2.5 6.738-4.584 8.007-9.165.628-2.268 1.276-3.046 4.886-3.461 5.229-.6 14.488-2.615 20.555-4.321 6.313-1.775 15.712-5.245 23.634-16.1 5.983-8.203 3.651-14.168 16.297-19.215 2.636-1.055 5.333-2.496 7.351-4.508 8.071-8.076 8.347-16.17 6.386-24.195 22.076-3.443 40.78 22.884 36.463 43.12z"/><path d="m233.77 618.105c.76-.211 1.239-1.621.973-2.279-.652-1.576-1.441-2.383-2.708-3.438-.43-.354-1.197-.164-1.171.479.067 1.485.25 5.967 2.906 5.238z"/><path d="m248.485 618.311c2.786-1.096 1.771-5.223-1.252-4.549-1.592.354-2.716 1.088-3.896 2.162-.304.271-.304.819 0 1.094 1.495 1.341 3.14 2.084 5.148 1.293z"/><path d="m446.125 632.77c.103-2.313.204-5.498-1.56-7.262-.546-.541-1.511-.287-1.718.457-.615 2.235-.944 4.491-1.186 6.805-.286 2.823 4.336 2.903 4.464 0z"/><path d="m456.498 632.959c1.416-.344 1.749-2.129.824-3.125-1.449-1.557-4.319-1.741-6.119-.592-.231.148-.43.484-.313.771.873 2.11 3.418 3.475 5.608 2.946z"/><path d="m613.739 632.604c1.396-1.303 2.365-5.551 1.412-7.266-.216-.386-.667-.438-1.035-.271-1.853.842-3.432 4.918-3.094 6.818.224 1.267 1.897 1.484 2.717.719z"/><path d="m622.706 634.189c2.247.514 3.841-2.748 1.622-3.854-1.234-.619-2.449-.734-3.799-.443-.882.191-1.35 1.361-.857 2.115.713 1.102 1.737 1.886 3.034 2.182z"/><path d="m313.84 597.721c-.271-2.053-.369-4.547-1.952-6.078-.081-.08-.222-.086-.308 0-1.505 1.545-1.228 4.106-1.083 6.078.158 2.174 3.616 2.097 3.343 0z"/><path d="m317.436 596.49c1.675.816 3.459 1.019 5.155.185.963-.479.963-2.078 0-2.558-1.696-.834-3.48-.633-5.155.185-.827.403-.827 1.785 0 2.188z"/><path d="m169.223 569.58c.379.185.896.271 1.265 0 .031-.022.059-.045.096-.065.385-.285.791-.738.729-1.273-.263-2.061-.36-5.213-2.104-6.627-.234-.19-.666-.227-.817.105-.577 1.25-.434 2.85-.269 4.182.137 1.131-.114 3.082 1.1 3.678z"/><path d="m180.115 563.145c.078-.227-.054-.445-.233-.568-1.592-1.098-4.195-.307-5.215 1.263-.108.16-.051.346.057.481 1.457 1.768 4.695.874 5.391-1.176z"/><path d="m760.288 605.916c-1.345-1.938-2.52-3.903-4.84-4.735-.297-.104-.562.215-.489.49.566 2.157 1.452 3.926 2.632 5.823 1.065 1.725 3.845.067 2.697-1.578z"/><path d="m761.764 600.594c-.226.463-.08 1.229.539 1.321 1.608.238 2.955-.225 4.38-.979 1.791-.938 1.897-2.723 2.563-4.367.153-.385-.313-.826-.688-.686-1.47.549-2.667.471-3.999 1.422-1.136.804-2.184 2.034-2.795 3.289z"/><path d="m835.48 566.766c-.985-1.914-2.694-3.191-4.341-4.508-.746-.599-2.149-.076-1.771 1.037.711 2.09 1.89 3.952 3.398 5.563 1.396 1.49 3.581-.399 2.714-2.092z"/><path d="m836.56 562.296c1.569-.132 2.688-.859 3.781-1.982 1.668-1.719-.907-4.293-2.628-2.625-1.123 1.092-1.852 2.213-1.982 3.779-.036.419.405.864.829.828z"/><path d="m699.318 610.322c-.095-2.115-.332-3.922-1.299-5.819-.095-.189-.4-.189-.495 0-.968 1.897-1.206 3.704-1.3 5.819-.09 1.994 3.182 1.994 3.094 0z"/><path d="m707.85 610.188c2.325-.443 1.305-3.869-.971-3.51-1.27.203-2.394.627-3.604 1.028-.336.113-.52.496-.331.818 1.039 1.785 3.035 2.02 4.906 1.664z"/><path d="m549.724 632.789c1.026-2.311 2.329-5.153 1.483-7.705-.111-.344-.511-.448-.781-.204-1.771 1.579-2.678 4.055-3.777 6.112-1.1 2.056 2.163 3.86 3.075 1.797z"/><path d="m558.351 634.341c1.925-1.922-2.726-3.806-3.814-4.119-.464-.138-.998.332-.818.817.447 1.264 2.832 5.098 4.632 3.302z"/><path d="m691.551 647.824c-.035-2.367.281-5.055-.629-7.289-.095-.235-.396-.377-.604-.16-1.845 1.976-1.709 4.912-1.754 7.449-.033 1.929 3.02 1.929 2.987 0z"/><path d="m698.928 645.675c.476-.795.043-1.945-.881-2.168-1.318-.314-2.646.034-3.752.784-.702.476-.738 1.457 0 1.929 1.462.928 3.63 1.126 4.633-.545z"/><path d="m647.137 604.939c1.658 1.08 3.191-1.568 1.547-2.641-1.547-1.008-3.01-1.287-4.799-1.564-.258-.037-.535.211-.364.479.998 1.566 2.05 2.701 3.616 3.726z"/><path d="m642.099 612.414c2.814.773 3.579-4.27 2.645-5.967-.134-.252-.443-.293-.684-.178-1.194.572-4.372 5.486-1.961 6.145z"/><path d="m362.765 619.63c.705-.074 1.495-.584 1.413-1.412-.206-2.131-3.197-3.64-5.149-3.496-.557.047-.881.574-.621 1.08.733 1.432 2.469 4.028 4.357 3.828z"/><path d="m358.543 626.865c.791-1.502 1.557-3.018 1.459-4.742-.058-.819-1.037-1.323-1.663-.688-1.2 1.215-2.011 2.648-2.595 4.244-.603 1.647 1.998 2.705 2.799 1.186z"/><path d="m297.117 636.643c-1.227-1.771-2.876-2.982-4.775-3.959-.251-.127-.49.125-.373.371.822 1.723 1.606 3.447 2.699 5.024 1.037 1.493 3.501.075 2.449-1.436z"/><path d="m290.327 643.505c1.166-1.281 1.813-2.709 1.979-4.416.106-1.093-1.26-1.354-1.934-.802-1.09.898-2.034 1.89-2.902 3.013-1.267 1.645 1.49 3.714 2.857 2.205z"/><path d="m260.896 585.604c-.898-2.117-3.201-3.25-4.991-4.428-.302-.201-.656.127-.58.446.535 2.164 1.659 4.16 3.331 5.709 1.265 1.167 2.856-.287 2.24-1.727z"/><path d="m253.089 591.355c1.3-1.109 1.562-2.506 2.006-4.07.086-.299-.215-.646-.529-.53-1.62.573-2.901 1.305-3.823 2.788-.942 1.518 1.114 2.871 2.346 1.812z"/><path d="m190.656 591.635c-.906-2.052-3.146-3.582-4.654-5.181-.202-.221-.545.011-.479.277.5 2.199 1.565 4.791 3.169 6.42 1.068 1.076 2.505-.284 1.964-1.516z"/><path d="m183.6 597.378c.969-1.306 1.454-3.351 1.674-4.929.056-.395-.22-.737-.643-.643-1.956.445-4.109 2.666-3.958 4.777.115 1.633 1.996 2.047 2.927.795z"/><path d="m154.768 591.455c.356.24.924.23 1.277 0 .353-.229.483-.35.585-.758.104-.426.014-.932-.323-1.235-1.313-1.164-2.646-1.921-4.227-2.648-.384-.18-.747.178-.566.566.809 1.729 1.642 2.989 3.254 4.075z"/><path d="m226.924 582.496c.306-.032.521-.27.449-.59-.548-2.5-2.522-2.748-4.321-4.229-.236-.197-.701-.023-.571.33.818 2.252 1.55 4.832 4.443 4.489z"/><path d="m209.447 623.177c.351-.023.604-.326.518-.685-.675-2.764-3.943-3.621-5.944-5.223-.268-.211-.594-.014-.545.314.425 2.743 2.981 5.778 5.971 5.594z"/><path d="m272.4 638.428c.51-.209.722-.582.641-1.127-.198-1.418-2.204-2.244-3.212-3.08-.244-.203-.549-.064-.585.239-.197 1.645.962 4.868 3.156 3.968z"/><path d="m283.977 610.841c.288.022.548-.263.54-.537-.05-1.705-.215-2.242-1.34-3.635-.998-1.24-2.283-2.537-3.589-3.453-.301-.213-.703.071-.703.403-.025 1.597.595 3.027 1.207 4.474.853 2.011 1.896 2.595 3.885 2.748z"/><path d="m322.995 626.363c.425-1.588.367-2.711-.952-3.965-1.035-.977-2.15-2.051-3.625-2.141-.173-.011-.329.155-.325.323.032 1.345.837 2.584 1.413 3.771.729 1.5 1.461 1.832 2.896 2.352.243.091.53-.096.593-.34z"/><path d="m320.412 646.955c.612 2.25 2.205 4.183 4.688 3.945.33-.033.566-.297.485-.639-.542-2.217-2.288-3.461-4.441-4.037-.433-.119-.845.29-.732.731z"/><path d="m376.323 647.49c1.646 1.513 3.814-.74 2.414-2.416-.641-.774-1.461-1.365-2.251-1.979-.515-.396-1.398-.678-1.827-1.142-.206-.229-.585.009-.508.298.24.885.117 1.69.478 2.606.391.995.904 1.911 1.694 2.633z"/><path d="m420.281 642.748c-.833-2.479-2.878-4.194-5.063-5.481-.266-.158-.514.1-.478.363.342 2.2 1.103 4.618 2.454 6.424 1.065 1.423 3.754.658 3.087-1.306z"/><path d="m420.884 636.531c-.432.83.271 1.58 1.116 1.453 2.303-.336 4.682-2.088 4.875-4.488.069-.911-.974-1.653-1.817-1.381-1.886.61-3.282 2.709-4.174 4.416z"/><path d="m393.937 614.589c1.043 1.592 3.472.194 2.56-1.494-1.362-2.519-3.484-3.687-6.031-4.648-.293-.108-.566.342-.314.543 1.719 1.353 2.616 3.815 3.785 5.599z"/><path d="m388.513 617.895c.629-1 .963-2.088 1.493-3.098.252-.484-.055-1.164-.65-1.138-1.811.078-2.884.922-3.801 2.504-1.117 1.921 1.788 3.599 2.958 1.732z"/><path d="m356.41 593.076c-.962-1.826-2.104-2.385-3.85-3.194-.405-.187-.774.188-.59.592.635 1.383 1.21 2.68 1.998 4.028.923 1.585 3.294.182 2.442-1.426z"/><path d="m343.367 608.648c.384.229.756-.145.693-.527-.444-2.569-1.489-3.786-3.828-4.891-.31-.148-.833.102-.66.508.437 1.051.647 1.953 1.317 2.939.68.998 1.48 1.364 2.478 1.971z"/><path d="m450.397 661.82c.755.154 1.411-.326 1.45-1.104.113-2.009-2.898-4.869-4.923-4.873-.394 0-.721.332-.721.721.001 1.786 2.48 4.915 4.194 5.256z"/><path d="m489.712 649.57c-.253-.459-3.742-5.94-4.577-3.896-.646 1.563.881 4.287 1.662 5.596 1.125 1.864 3.957.207 2.915-1.7z"/><path d="m423.125 619.303c.271.151.564-.148.416-.42-1.072-1.922-2.046-3.625-4.271-4.32-.275-.084-.549.193-.464.467.694 2.227 2.392 3.193 4.319 4.273z"/><path d="m495.243 628.834c.225.019.477-.178.521-.396.565-2.857-2.955-6.125-5.599-6.539-.132-.02-.321.055-.3.225.332 2.545 2.573 6.476 5.378 6.71z"/><path d="m511.775 625.007c2.312-.644 5.136-.529 6.927-2.359 1.025-1.051.306-2.957-1.214-2.93-2.88.061-4.634 2.68-6.071 4.813-.169.24.098.547.358.476z"/><path d="m536.515 652.986c.307-.074.456-.393.393-.684-.323-1.467-1.019-2.015-2.109-2.998-1.065-.957-2.234-1.967-3.387-2.816-.253-.184-.513.074-.546.312-.373 3.057 2.308 7.03 5.649 6.186z"/><path d="m570.823 653.05c-.467-1.478-1.96-3.369-3.614-3.529-.125-.01-.257.076-.313.18-.82 1.484.292 3.74 1.222 4.925 1.025 1.297 3.175-.106 2.705-1.576z"/><path d="m579.027 612.896c.239.012.464-.174.522-.396.79-3.024-2.738-4.254-5.027-4.69-.36-.068-.729.303-.503.66 1.214 1.936 2.436 4.309 5.008 4.426z"/><path d="m587.254 637.518c2.006-.203 4.306-1.098 5.212-3 .531-1.1-.324-2.203-1.521-1.979-2.082.392-3.264 2.457-4.108 4.246-.145.297.017.774.417.733z"/><path d="m608.845 599.531c.213.023.484-.178.519-.393.49-3.322-3.524-6.48-6.49-7.023-.666-.123-1.113.478-.837 1.08 1.179 2.528 3.849 6.023 6.808 6.336z"/><path d="m619.993 611.902c1.517.314 2.728-.033 4.078-.746 2.173-1.143.264-4.338-1.905-3.266-1.484.727-2.06 1.793-2.591 3.281-.097.291.118.67.418.731z"/><path d="m640.111 653.078c1.132.088 1.799-1.303 1.27-2.203-1.08-1.827-3.194-3.051-5.011-4.047-.391-.217-.807.063-.837.48-.223 2.807 1.664 5.546 4.578 5.77z"/><path d="m656.769 643.117c3.055-.852 5.64-1.944 6.126-5.412.044-.35-.152-.821-.594-.772-3.383.385-5.104 2.486-6.09 5.633-.099.329.233.641.558.551z"/><path d="m675.171 626.785c.793-.104 1.513-.903.984-1.713-.886-1.369-2.387-2.203-3.31-3.619-.165-.254-.559-.153-.571.158-.057 1.853.176 5.541 2.897 5.174z"/><path d="m677.573 609.298c.443.186.737-.326.688-.687-.374-2.646-2.604-4.59-5.078-5.307-.232-.068-.465.164-.396.399.699 2.44 2.431 4.599 4.786 5.595z"/><path d="m711.361 631.764c2.258-1.211 4.67-2.607 6.068-4.832.639-1.014-.434-2.607-1.644-2.135-2.782 1.084-4.401 3.657-5.087 6.459-.093.389.314.697.663.508z"/><path d="m731.057 635.311c-.279 1.813.702 3.188 2.449 3.69 2.024.58 2.83-2.467.858-3.125-.815-.271-1.602-.489-2.333-.965-.333-.21-.913-.018-.974.4z"/><path d="m731.775 604.951c.828-1.016.377-2.742-1.124-2.715-1.816.035-3.22 1.012-4.229 2.48-.346.506-1.193 2.155-.211 2.578 1.797.772 4.468-1 5.564-2.343z"/><path d="m756.029 626.969c-.257-.185-.571.114-.503.383.6 2.43 1.443 4.867 3.781 6.188 1.179.664 2.393-.643 1.794-1.801-1.122-2.163-3.177-3.415-5.072-4.77z"/><path d="m779.618 613.287c1.718-.282 3.278-.815 4.563-2.021 1.201-1.125-.43-3.32-1.78-2.31-1.35 1.015-2.389 2.265-3.272 3.695-.218.356.137.697.489.636z"/><path d="m743.342 595.457c.345-.188.387-.588.239-.911-.554-1.216-1.26-1.556-2.258-2.414-.896-.775-1.729-1.763-2.876-2.119-.134-.039-.268.049-.313.176-.819 2.645 2.411 6.82 5.208 5.268z"/><path d="m760.315 587.759c2.602-1.365 5.339-3.304 6.323-6.103.126-.348-.188-.629-.503-.664-3.418-.362-6.091 2.842-6.828 5.996-.133.594.468 1.051 1.008.771z"/><path d="m805.945 586.445c-1.669-1.969-3.935-3.533-6.232-4.692-.251-.13-.544.073-.478.364.63 2.605 2.595 4.75 4.336 6.709 1.448 1.636 3.769-.742 2.374-2.381z"/><path d="m797.131 589.177c-1.565-2.674-4.816 2.248-5.315 3.5-.081.211.045.545.256.629 2.14.915 6.626-1.447 5.059-4.129z"/><path d="m785.673 581.746c1.717.377 2.446-2.194.726-2.639-1.401-.359-2.993-.979-4.396-.422-.172.068-.253.229-.163.398.729 1.426 2.304 2.329 3.833 2.663z"/><path d="m806.386 569.24c2.205-.752 6.576-3.783 5.459-6.502-.193-.469-.485-.701-.988-.756-2.737-.295-4.556 4.389-5.198 6.525-.128.416.3.875.727.733z"/><path d="m821.188 583.521c.722.334 1.567 1.086 2.36 1.203.87.131 2.002.326 2.267-.758.391-1.601-1.692-2.438-2.807-2.89-1.553-.625-3.327-.352-4.669.562-.313.213-.287.719.107.824.952.256 1.845.647 2.742 1.059z"/><path d="m807.316 596.535c-1.556 1.738-.702 5.342.009 7.316.685 1.904 3.651 1.15 3.066-.85-.559-1.929-1.31-5.046-2.771-6.468-.079-.078-.224-.088-.304.002z"/><path d="m817.87 600.344c.644-.979-.228-2.072-1.236-2.156-1.8-.148-4.07 1.088-5.298 2.369-.126.129-.135.356 0 .483 1.846 1.696 5.154 1.398 6.534-.696z"/><path d="m848.119 570.143c2.305.992 7.372 3.861 9.479 1.57.318-.351.534-.894.363-1.365-1.259-3.402-7.15-2.18-9.719-1.158-.359.144-.59.751-.123.953z"/><path d="m856.531 563.544c.233-1.072.015-2.107-.234-3.16-.03-.14-.196-.199-.314-.131-.979.565-1.729 1.495-2.082 2.567-.549 1.676 2.253 2.439 2.63.724z"/><path d="m849.947 541.639c1.614.531 2.734-2.06 1.17-2.767-1.304-.588-2.501-.808-3.778-.866-1.948-.091-1.853.822-.627 1.748.989.75 1.96 1.464 3.235 1.885z"/><path d="m846.174 548.535c1.265-1.512 1.658-3.58.354-5.201-.313-.396-1.053-.272-1.271.164-.586 1.166-1.246 2.339-1.518 3.617-.277 1.31 1.434 2.627 2.435 1.42z"/><path d="m362.959 327.695c13.609 10.383 27.646-3.611 31.518-16.592 3.965-13.304 2.918-34.738-5.9-46.314-10.396-13.647-23.261 5.188-28.301 13.689-7.743 14.178-12.387 37.717 2.683 49.217zm14.634-57.164c2.521-2.332 3.491-.729 4.835 1.701 4.483 8.096 5.079 19.524 4.541 28.438-.477 7.994-6.694 26.673-18.037 20.08-5.662-3.293-6.652-12.227-6.619-17.975.035-6.889 2.66-13.695 5.912-19.648 2.695-4.545 5.461-8.986 9.368-12.596z"/><path d="m242.633 301.191c14.18 7.74 37.714 12.385 49.215-2.688 10.385-13.608-3.608-27.643-16.587-31.514-13.303-3.965-34.74-2.918-46.317 5.9-13.651 10.398 5.183 23.265 13.689 28.302zm-6.247-22.152c8.097-4.483 19.527-5.076 28.441-4.545 7.99.476 26.67 6.699 20.076 18.037-3.293 5.664-12.225 6.656-17.973 6.623-6.888-.033-13.699-2.666-19.647-5.914-4.548-2.693-8.991-5.459-12.598-9.365-2.329-2.523-.727-3.49 1.701-4.836z"/><path d="m446.902 274.111c16.527-1.398 33.355-16.682 39.903-31.313 6.081-13.6 2.478-29.278-13.848-31.555-20.655-2.871-35.029 19.459-40.039 36.351-3.012 12.265-2.615 27.92 13.984 26.517zm17.869-52.984c14.971-5.657 17.754 8.812 13.14 19.123-3.938 8.816-12.276 15.447-20.244 20.398-3.855 2.395-11.174 6.029-15.832 3.94-3.806-1.707-.671-11.938-.027-14.551 3.56-12.023 10.647-24.26 22.963-28.91z"/><path d="m669.155 277.627c13.6 6.084 29.281 2.482 31.553-13.844 2.88-20.656-19.455-35.027-36.343-40.037-12.264-3.014-27.924-2.617-26.521 13.98 1.397 16.528 16.686 33.36 31.311 39.901zm-21.785-44.969c1.7-3.803 11.937-.67 14.542-.031 12.027 3.568 24.271 10.652 28.918 22.968 5.657 14.973-8.813 17.758-19.126 13.145-8.814-3.943-15.442-12.283-20.395-20.252-2.393-3.853-6.03-11.168-3.939-15.83z"/><path d="m519.284 309.619c2.65 4.193 5.946 7.922 9.918 10.902 5.707 4.289 13.159 6.473 20.188 4.563 6.395-1.733 10.938-6.971 11.773-13.494.76-5.963-2.429-11.61-6.237-15.916-6.432-7.27-15.946-11.596-24.848-14.924-4.573-1.651-9.487-2.83-14.104-.739-4.8 2.174-4.826 8.266-4.01 12.606 1.105 5.928 4.115 11.93 7.32 17.002zm28.318 6.402c-.082.031-.099.038 0 0zm-25.196-27.898c1.785.304 3.525.896 5.227 1.51 8.778 3.285 19.077 8.353 23.313 16.199 1.574 2.931 1.551 8.851-4.054 10.479-2.946.856-6.634.207-10.419-1.973-7.572-4.356-13.293-14.551-15.497-23.547-.445-1.828.017-2.912 1.43-2.668z"/><path d="m633.878 341.279c13.456 4.674 28.423-6.916 37.588-15.223 3.805-3.531 8.104-8.248 7.064-13.873-1.063-5.761-7.734-7.728-12.682-8.527-10.654-1.723-22.851-1.086-32.174 4.902-6.107 3.924-10.668 10.438-10.701 17.877-.029 6.938 4.482 12.614 10.905 14.844zm7.747-26.595c3.464-1.644 8.767-2.474 13.154-2.597 3.152-.086 6.373.089 9.489.593 4.783.771 4.016 3.757.685 6.864-4.679 4.236-9.681 8.043-15.354 10.843-1.789.881-3.639 1.518-5.646 2.034-7.578 1.703-11.099-1.35-11.578-5.422-.503-4.269 2.75-9.249 9.25-12.315z"/></g></g></g></svg>