<svg id="Food" height="512" viewBox="0 0 1000 1000" width="512" xmlns="http://www.w3.org/2000/svg"><g><path d="m877.159 258.64c-9.228-6.344-19.209-9.109-28.019-11.547-15.624-4.326-15.633-4.961-15.731-11.008-.035-2.773 2.716-11.047 4.542-16.521 5.487-16.496 12.322-37.025 3.193-54.408-3.365-6.396-10.348-14.889-24.555-19.006-3.976-1.15-8.285-1.736-12.809-1.736-13.159 0-26.418 4.932-36.5 9.227-9.49 4.045-18.566 8.602-27.344 13.008l-6.229 3.115-2.47 1.262c-1.268.658-3.822 1.977-6.443 3.154l-.014-1.477c-.027-1.916.071-4.445.161-7.381.647-19.709 1.63-49.498-14.462-66.123-6.873-7.102-15.859-10.855-25.991-10.855-3.647 0-7.479.502-11.374 1.488-47.555 12.029-68.809 71.889-81.509 107.654l-.323.902c-9.428 26.533-14.568 51.953-15.364 75.832-2.985.771-5.896 1.771-8.716 2.988-18.209-11.117-37.238-16.738-56.729-16.738-55.505 0-102.835 45.303-140.865 81.707l-7.393 7.061c-36.988 35.188-67.442 67.596-93.096 99.074-20.984 25.754-43.021 57.316-47.393 96.137-3.176 28.189 1.143 56.332 12.844 83.793-1.465 3.465-2.662 6.99-3.589 10.564-51.845 10.168-111.402 29.301-129.154 64.617-7.471 14.861-7.15 31.133.918 47.059 7.371 14.539 21.857 21.711 32.106 25.84 4.07 1.639 7.722 2.641 10.95 3.523 5.594 1.537 6.737 2.043 7.521 3.002.311 2.881-1.421 9.686-2.186 12.686l-.217.855c-.503 1.979-1.357 4.557-2.256 7.287-3.968 11.982-16.021 48.445 18.978 60.857 5.604 1.986 11.847 2.994 18.556 2.994 20.287 0 42.141-9.053 59.702-16.328 1.507-.621 2.981-1.236 4.411-1.82-.215 2.08-.457 4.049-.637 5.488-.469 3.777-.91 7.346-1.026 10.631-.64 18.061 9.12 39.207 29.008 44.676 3.575.984 7.259 1.484 10.938 1.484 20.939 0 39.827-14.836 57.754-45.359 16.324-27.803 22.729-60.164 25.814-88.137 9.031-2.15 17.176-6.064 24.25-11.674 16.568 4.668 32.781 7.027 48.328 7.027 7.754 0 15.389-.602 22.701-1.785 40.036-6.475 66.974-30.92 93.028-54.559l2.109-1.914c46.229-41.908 92.097-88.643 136.341-138.902 42.544-48.338 49.024-107.395 18.277-159.629.74-2.291 1.375-4.65 1.907-7.08 22.575-3.686 44.589-11.697 66.017-19.494 26.007-9.471 52.279-21.713 78.077-36.387 12.065-6.859 37.165-21.133 40.161-51.082 1.614-16.161-7.2-30.98-26.198-44.042z" fill="#fff"/><g><path d="m288.262 883.728c-4.795 0-10.794-3.023-12.134-17.422-.589-6.326.288-13.057 1.143-19.564.225-1.713.445-3.408.634-5.061 1.381-12.068 1.654-22.295-9.066-25.256l-3.27-.904 3.031-1.521c13.879-6.955 24.574-14.311 32.525-22.393-3.599 1.996-7.295 4.049-10.992 6.098-13.424 7.438-27.303 15.133-42.006 21.307-7.713 3.24-15.694 6.1-23.408 8.865-5.365 1.922-10.727 3.842-16.033 5.896l-.881.26c-2.357.676-4.713 1.348-7.096 1.969-5.527 1.441-11.352 2.777-16.51 2.777-5.114 0-8.793-1.391-10.943-4.137-2.491-3.189-2.901-7.971-1.25-14.613.936-3.748 2.199-7.408 3.423-10.949 1.911-5.523 3.882-11.236 4.529-17.213.053-.479.071-.936.089-1.391l.049-1.008c2.295-12.959 3.32-35.955-12.821-53.363 4.731 8.896 7.759 18.275 9.215 28.484l.707 4.941-3.036-3.963c-3.009-3.936-6.989-7.146-12.166-9.814-4.344-2.24-8.612-3.449-12.74-4.619-7.984-2.262-15.521-4.4-22.141-13.381-3.58-4.863-4.813-9.926-3.661-15.053 3.171-14.045 23.679-25.041 32.436-29.736 25.067-13.436 54.489-22.795 92.591-29.451l1.34-.234.18 1.352c1.773 13.656 8.523 28.139 20.076 43.047l1.008 1.309-1.502.682c-12.634 5.721-28.275 15.039-36.068 28.363 10.514-11.061 23.906-19.887 39.127-25.738l.867-.332.599.713c6.392 7.604 14.05 15.391 22.774 23.141.773.688 1.574 1.369 2.396 2.039l.896.73-.617.977c-5.105 8.074-11.684 16.291-20.009 24.984 9.794-6.201 17.243-14.678 23.313-22.385l.761-.969 1.013.707c12.224 8.561 27.002 14.604 40.539 16.586l1.21.176-.095 1.217c-2.824 36.035-9.553 63.955-21.165 87.863-4.521 9.309-10.636 17.963-18.183 25.727-1.022 1.049-10.223 10.26-18.678 10.26z" fill="#ffe40e"/><path d="m650.477 433.276c-15.191 0-31.918-5.002-45.882-13.727-20.206-12.619-37.517-34.961-46.305-59.766-5.397-15.215-3.207-33.658 5.437-45.893 6.567-9.295 15.944-14.207 27.119-14.207 1.967 0 4.008.156 6.059.469l.972.145.136.973c1.986 15.053 6.287 29.059 12.789 41.621.17.334.4.615.766.938l.443.395-.004.59c-.018 4.754.171 8.557.607 11.971 1.593 12.58 10.293 18.959 25.86 18.959.835 0 1.676-.018 2.526-.055l.635-.025.414.484c.302.354.539.594.864.783 15.487 8.973 31.623 13.51 49.329 13.871l1.301.025-.021 1.301c-.456 26.15-16.147 41.148-43.045 41.148zm-267.689 308.522 1.375-1.402-1.826-.727c-6.992-2.775-13.833-5.896-20.327-9.277-42.327-22.029-78.551-55.725-99.372-92.447l-1.287-2.27-1.049 2.387c-16.051 36.682 19.704 73.945 35.813 88.266 13.843 12.297 37.598 26.658 58.996 26.658 11.054-.001 20.364-3.766 27.677-11.188z" fill="#00eef0"/><path d="m374.215 729.241c-17.535-7.947-34.71-18.666-51.044-31.859l-.846-.682.513-.953c28.323-52.545 69.412-97.002 109.148-139.998 5.65-6.104 11.285-12.203 16.883-18.32 14.434-15.768 28.99-31.416 43.553-47.064 9.445-10.152 18.888-20.305 28.297-30.49l1.503-1.623c17.021-18.447 36.319-39.357 61.389-46.459l.731-.207.545.535c16.666 16.449 43.511 27.498 66.794 27.498.66 0 3.314-.061 3.314-.061l.004 1.338c.018 19.766-.507 39.074-7.016 58.037-7.712 22.463-21.578 41.885-32.798 56.297-21.313 27.371-46.494 52.549-70.847 76.896l-3.77 3.771c-18.628 18.635-43.744 42.502-72.964 61.85-26.992 17.871-57.322 28.209-92.729 31.605l-.347.033z" fill="#ffe40e"/><path d="m320.751 695.427.765-1.406c28.68-52.977 70.383-97.992 110.72-141.529 6.133-6.621 12.263-13.234 18.335-19.867 28.658-31.287 52.285-56.771 74.34-80.201 16.353-17.361 34.126-34.893 55.848-41.855l1.96-.627-1.402-1.506c-13.024-13.992-34.693-41.582-33.49-69.156l.066-1.488-1.488.133c-38.215 3.41-71.207 35.566-95.293 59.047-18.903 18.428-37.104 38.145-54.696 57.217-6.709 7.268-13.416 14.533-20.23 21.805-23.547 25.141-47.895 51.139-66.191 80.912-10.901 17.736-18.016 32.908-22.405 47.75-5.069 17.156-5.847 34.119-5.927 49.896l-.006.439.267.35c5.662 7.578 11.845 14.768 18.367 21.367 6.089 6.152 12.565 12.107 19.239 17.693z" fill="#ff915b"/><path d="m279.663 652.341.072-4.08c.252-14.094 1.279-30.746 6.973-47.395 5.367-15.723 12.613-30.83 21.523-44.902 18.853-29.779 42.441-55.699 69.088-84.088 7.114-7.586 14.156-15.262 21.209-22.945 20.025-21.826 40.736-44.396 63.033-64.521 25.662-23.154 53.402-45.977 85.513-48.551l1.047-.086.143-1.037c.442-3.178 1.018-5.77 1.815-8.158 2.455-7.395 5.981-13.805 10.468-19.047l.928-1.088-1.16-.826c-16.874-12.016-33.839-17.857-51.864-17.857-12.852 0-26.332 3.129-40.071 9.295-22.031 9.895-42.166 29.248-59.938 46.324-4.005 3.85-7.925 7.615-11.758 11.18-38.608 35.867-68.583 66.619-94.335 96.783-23.467 27.498-52.682 61.719-54.148 104.844-1.061 31.359 9.021 63.445 29.156 92.789z" fill="#ffe40e"/><path d="m524.043 712.72c37.957-32.791 77.143-70.924 119.795-116.58 3.347-3.584 6.827-7.201 10.354-10.871 21.704-22.59 46.305-48.193 53.199-79.674 5.903-26.967.391-53.041-16.853-79.715l-.911-1.412-1.139 1.234c-7.16 7.744-17.64 12.451-30.299 13.621l-1.193.111.006 1.195c.086 18.436.176 39.326-7.039 58.648-6.637 17.789-16.721 35.469-30.824 54.057-22.405 29.537-49.523 56.496-75.748 82.568l-1.408 1.4c-26.876 26.725-50.388 48-77.767 64.988-24.16 14.98-50.652 24.191-81.006 28.152l-4.979.65 4.664 1.857c10.658 4.246 21.475 7.467 32.155 9.578 9.616 1.9 18.952 2.865 27.767 2.865 29.611.004 55.416-10.377 81.226-32.672z" fill="#ff915b"/><path d="m695.827 384.354c-14.383 0-27.456-2.693-39.968-8.238l-3.688-1.635 3.943-.836c5.663-1.199 11.761-2.898 18.201-5.068-9.764 1.432-19.828 2.158-29.989 2.158l-1.627-.004c-8.585-.07-18.146-.734-22.937-7.801-3.045-4.492-2.891-11.123-2.77-16.449.021-1.012.044-1.982.044-2.895-.005-14.375 3.665-28.5 7.211-42.16 1.448-5.57 2.931-11.291 4.145-16.982-7.051 11.768-12.407 26.895-14.894 42.232l-.791 4.889-1.719-4.643c-11.9-32.123-9.809-71.354 6.385-119.943 6.434-19.279 15.318-38.453 26.428-56.984 7.977-13.309 16.914-23.227 27.32-30.324 4.107-2.803 7.885-4.221 11.23-4.221 13.375 0 15.836 21.455 16.272 30.682-.343 6.414-.884 12.705-1.413 18.994-1.34 15.705-2.721 31.945-.918 47.67 1.809 15.723 10.794 25.492 23.449 25.492 1.975 0 4.021-.234 6.125-.699-23.18-.896-26.488-21.574-26.74-39.641l-.055-4.137 2.42 3.354c1.447 2.004 3.121 3.465 5.113 4.469 3.463 1.742 7.416 2.625 11.742 2.625 14.194 0 30.648-9.199 45.172-17.313 7.394-4.135 14.377-8.041 20.305-10.281 7.618-2.883 15.225-4.363 22.609-4.398 4.303 0 7.429 1.301 9.391 3.867 4.414 5.789 1.564 16.201-.145 22.424-1.076 3.934-2.294 7.738-3.51 11.512-2.432 7.594-4.73 14.766-5.809 22.633-1.908 7.104-4.121 15.166-6.543 23.023-3.834 12.41-7.273 25.566-4.301 38.666 2.703-17.891 5.662-31.82 9.508-44.838l1.146-3.875 1.34 3.813c5.536 15.775 23.867 22.145 34.301 24.541 11.869 2.725 20.107 6.68 27.564 13.23 4.83 4.244 7.043 8.982 6.574 14.082-1.03 11.199-14.93 21.717-26.406 28.568-17.973 10.717-38.795 20.66-65.527 31.289-28.625 11.383-58.232 23.152-88.188 23.152z" fill="#ffe40e"/><path d="m689.627 424.468-1.139 1.234c-1.917 2.07-4.084 3.906-6.449 5.533 3.76 12.014 8.365 23.836 10.047 36.436 2.986 22.367-2.932 45.221-12.881 65.094-21.821 43.584-65.922 83.586-101.783 115.238-37.238 32.867-77.42 76.758-141.562 97.193 2.354.127 4.672.199 6.957.199 29.611 0 55.416-10.381 81.226-32.676 37.957-32.791 77.143-70.924 119.795-116.58 3.347-3.584 6.827-7.201 10.354-10.871 21.704-22.59 46.305-48.193 53.199-79.674 5.903-26.967.391-53.041-16.853-79.715z" fill="#ff564d"/><path d="m276.124 581.954c-5.284 12.17-9.912 27.369-12.537 43.275 3.89 8.061 8.459 16.004 13.77 23.744l2.307 3.367.072-4.08c.252-14.094 1.279-30.746 6.973-47.395 5.367-15.723 12.613-30.83 21.523-44.902 18.853-29.779 42.441-55.699 69.088-84.088 7.114-7.586 14.156-15.262 21.209-22.945 20.025-21.826 40.736-44.396 63.033-64.521 25.662-23.154 53.402-45.977 85.513-48.551l1.047-.086.143-1.037c.442-3.178 1.018-5.77 1.815-8.158.464-1.395.997-2.717 1.537-4.041-8.441-.334-17.019.449-26.751 3.086-23.557 6.383-44.234 22.506-62.777 37.729-38.155 31.332-71.723 70.381-105.831 106.039-31.926 33.381-61.619 69.927-80.134 112.564z" fill="#fab301"/><path d="m320.751 695.427.765-1.406c28.68-52.977 70.383-97.992 110.72-141.529 6.133-6.621 12.263-13.234 18.335-19.867 28.658-31.287 52.285-56.771 74.34-80.201 16.353-17.361 34.126-34.893 55.848-41.855l1.96-.627-1.402-1.506c-1.961-2.111-4.129-4.559-6.377-7.24-17.549 8.924-33.361 21.721-49.345 34.617-32.811 26.467-61.839 57.525-90.967 87.877-27.713 28.871-55.996 56.684-81.1 87.918-16.397 20.398-36.6 46.654-43.917 74.082 3.239 2.982 6.554 5.895 9.917 8.711z" fill="#ff564d"/><g fill="#fab301"><path d="m639.539 438.577c-5.294 30.994-9.999 60.047-26.283 89.74-20.603 37.563-53.716 68.588-84.963 97.305-32.343 29.727-68.152 56.227-107.503 75.928-18.416 9.225-38.092 15.592-58.123 20.156-.818.188-1.655.344-2.483.504 4.646 2.529 9.319 4.896 14.032 7.031l.314.145.347-.033c35.407-3.396 65.737-13.734 92.729-31.605 29.221-19.348 54.336-43.215 72.964-61.85l3.77-3.771c24.353-24.348 49.533-49.525 70.847-76.896 11.22-14.412 25.086-33.834 32.798-56.297 6.509-18.963 7.033-38.271 7.016-58.037l-.004-1.338s-2.654.061-3.314.061c-3.968-.002-8.042-.432-12.144-1.043z"/><path d="m869.379 287.263c-7.457-6.551-15.695-10.506-27.564-13.23-10.434-2.396-28.765-8.766-34.301-24.541l-1.34-3.813-1.146 3.875c-1.777 6.016-3.361 12.244-4.816 18.947 3.057 3.258 6.457 6.225 10.073 8.775 11.496 8.104 26.786 10.572 40.212 13.398 46.783 9.861-81.224 75.098-132.516 81.342-16.127 1.963-31.75 2.07-45.508-2.871-5.748 1.873-11.248 3.418-16.357 4.5l-3.943.836 3.688 1.635c12.512 5.545 25.585 8.238 39.968 8.238 29.956 0 59.563-11.77 88.192-23.152 26.732-10.629 47.555-20.572 65.527-31.289 11.477-6.852 25.376-17.369 26.406-28.568.468-5.1-1.745-9.838-6.575-14.082z"/><path d="m673.935 368.618c.296.031.575-.1.862-.152-21.223-1.721-65.338-1.984-48.111-76.664-.791 3.234-1.615 6.455-2.437 9.625-3.546 13.66-7.216 27.785-7.211 42.16 0 .912-.022 1.883-.044 2.895-.121 5.326-.275 11.957 2.77 16.449 4.791 7.066 14.352 7.73 22.937 7.801l1.627.004c10.003 0 19.921-.713 29.544-2.104.023 0 .036-.014.063-.014z"/><path d="m346.288 759.876.095-1.217-1.21-.176c-13.537-1.982-28.315-8.025-40.539-16.586l-1.013-.707-.761.969c-2.559 3.246-5.432 6.617-8.553 9.908 10.154 3.068 19.76 6.451 29.996 11.844 17.783 9.373-1.942 50.033-6.143 63.777-6.624 21.666-20.831 44.951-39.782 48.559 2.521 5.951 6.497 7.48 9.884 7.48 8.455 0 17.656-9.211 18.678-10.262 7.547-7.764 13.662-16.418 18.183-25.727 11.612-23.907 18.34-51.827 21.165-87.862z"/><path d="m254.199 680.593c-2.112-5.428-3.526-10.754-4.2-15.963l-.18-1.352-1.34.234c-38.102 6.656-67.523 16.016-92.591 29.451-8.757 4.695-29.265 15.691-32.436 29.736-1.151 5.127.081 10.189 3.661 15.053.099.133.202.23.302.363 5.995-18.234 23.025-29.939 39.626-38.385 24.308-12.366 58.069-21.284 87.158-19.137z"/><path d="m274.789 725.831c11.306 5.441 9.911 22.637 6.872 36.412 7.303-7.842 13.244-15.33 17.895-22.684l.617-.977-.896-.73c-.822-.67-1.623-1.352-2.396-2.039-8.725-7.75-16.383-15.537-22.774-23.141l-.599-.713-.867.332c-8.734 3.355-16.84 7.723-24.169 12.9 8.614-2.495 18.018-3.354 26.317.64z"/></g><path d="m362.009 730.392c-4.11-2.143-8.146-4.422-12.134-6.773-9.821 13.482-23.639 14.684-40.7 12.729 13.374 8.943 30.275 16.639 45.936 16.639 11.054 0 20.364-3.766 27.677-11.188l1.375-1.402-1.826-.727c-6.993-2.776-13.834-5.898-20.328-9.278z" fill="#00b2b6"/><path d="m633.125 431.263c5.848 1.316 11.703 2.014 17.352 2.014 26.898 0 42.59-14.998 43.045-41.148l.021-1.301-1.301-.025c-15.088-.309-29.029-3.678-42.408-10.211 13.5 24.1 8.747 37.938-16.709 50.671z" fill="#00b2b6"/><path d="m598.012 301.271-.136-.973-.972-.145c-2.051-.313-4.092-.469-6.059-.469-11.175 0-20.552 4.912-27.119 14.207-8.211 11.625-10.51 28.824-6.102 43.566 6.481-28.887 25.094-42.441 47.995-26.275-3.623-9.378-6.219-19.369-7.607-29.911z" fill="#8bfcfc"/><path d="m262.637 637.944-1.287-2.27-1.049 2.387c-7.262 16.6-3.902 33.313 3.432 47.973 2.254-15.004 2.254-22.756 11.982-28.082-4.845-6.531-9.228-13.215-13.078-20.008z" fill="#8bfcfc"/><path d="m376.437 676.817c17.575-8.926 29.261-26.455 41.897-41.133 16.702-19.396 33.783-38.494 50.848-57.572 32.459-36.299 66.878-70.654 96.646-109.254 3.381-4.389-3.121-10.418-7.484-7.484-40.714 27.387-73.409 63.688-104.953 100.945-15.323 18.1-29.875 36.738-44.15 55.664-13.088 17.342-30.304 35.551-34.813 57.289-.249 1.198.906 2.102 2.009 1.545z" fill="#fbf686"/><path d="m314.54 605.222c18.605-15.75 30.758-40.27 45.859-59.234 14.698-18.455 29.844-35.803 42.6-55.738 1.219-1.902-1.17-4.189-3.05-3.055-22.883 13.834-40.368 31.525-56.882 52.459-14.211 18.023-31.256 40.586-30.86 64.6.017 1.259 1.442 1.72 2.333.968z" fill="#fec771"/><path d="m412.127 481.093c2.097-.939 4.313-1.025 6.45-2.143 2.519-1.316 4.703-3.332 6.804-5.24 4.43-4.018 5.967-8.473 7.361-14.043.414-1.658-1.24-2.643-2.645-2.033-1.988.863-4.487 1.232-6.328 2.355-2.539 1.549-4.555 3.363-6.707 5.4-1.976 1.861-4.023 4.432-5.17 6.875-1.205 2.559-1.094 4.668-1.775 7.283-.327 1.253.949 2.018 2.01 1.546z" fill="#fec771"/><path d="m373.824 406.464c19.919-6.42 35.794-27.316 51.067-41.027 22.234-19.969 44.064-40.283 66.156-60.354 1.686-1.531-.454-3.758-2.267-2.938-26.554 12.004-47.632 26.596-69.034 46.342-16.379 15.107-41.309 34.146-47.689 56.207-.298 1.024.719 2.108 1.767 1.77z" fill="#fbf686"/><path d="m671.766 483.499c-8.176 9.457-10.545 23.525-16.109 34.6-6.709 13.354-15.002 25.584-20.506 39.568-.635 1.609 1.573 3.271 2.959 2.275 12.915-9.287 21.708-21.16 28.673-35.338 5.92-12.049 12.972-27.717 7.243-40.814-.362-.822-1.698-.939-2.26-.291z" fill="#fec771"/><path d="m685.93 116.081c-1.104-.375-2.276-.631-3.576-.631-3.346 0-7.123 1.418-11.23 4.221-10.406 7.098-19.344 17.016-27.32 30.324-11.109 18.531-19.994 37.705-26.428 56.984-16.193 48.59-18.285 87.82-6.385 119.943l1.719 4.643.791-4.889c1.406-8.678 3.76-17.268 6.791-25.238-2.371-49.798 10.424-168.027 65.638-185.357z" fill="#fab301"/><path d="m668.012 198.44c-12.764 15.814-6.494 48.768 6.047 63.367 14.637 17.025 38.014 20.275 55.387 5.74 1.523-1.273.562-3.693-1.112-4.209-12.25-3.766-28.943-4.252-38.749-13.049-12.649-11.346-13.086-35.107-16.639-50.547-.468-2.02-3.536-3.03-4.934-1.302z" fill="#fbf686"/><path d="m741.704 266.431c2.622 2.463 6.284 2.486 9.565 1.369 2.889-.979 7.723-3.797 6.449-7.664-1.941-5.889-13.465-1.248-16.015 1.857-1.055 1.287-1.334 3.182.001 4.438z" fill="#fbf686"/><path d="m194.987 817.175c12.746.307 23.981-5.764 35.584-10.398 12.125-4.842 25.77-8.662 34.206-19.139 1.206-1.5.387-3.324-1.475-3.563-13.455-1.715-25.858 5.271-37.705 10.906-11.586 5.516-23.54 10.197-31.54 20.57-.526.684.202 1.606.93 1.624z" fill="#fbf686"/><path d="m273.426 786.599c3.368 2.27 7.982.361 10.117-2.643 2.083-2.932-.82-6.053-3.668-6.398-3.433-.418-6.891 1.844-8.113 4.953-.612 1.558.418 3.246 1.664 4.088z" fill="#fbf686"/><path d="m818.007 182.321c-.249-2.309-.868-4.465-2.181-6.188-1.962-2.566-5.088-3.867-9.391-3.867-7.385.035-14.991 1.516-22.609 4.398-5.928 2.24-12.911 6.146-20.305 10.281-14.523 8.113-30.978 17.313-45.172 17.313-4.326 0-8.279-.883-11.742-2.625-1.992-1.004-3.666-2.465-5.113-4.469l-2.42-3.354.055 4.137c.063 4.525.318 9.215 1.029 13.717 6.912 4.936 15.098 7.699 23.715 6.828 19.445-1.965 39.473-16.117 56.037-25.443 9.377-5.277 26.38-14.472 38.097-10.728z" fill="#fab301"/><g fill="#68182b"><path d="m866.064 274.774c-19.522-13.422-51.715-6.354-52.23-38.373-.322-19.799 29.357-62.152-2.696-71.443-11.22-3.252-26.165 2.428-36.177 6.695-11.09 4.729-21.748 10.277-32.532 15.643-7.556 3.756-29.237 16.635-35.386 1.752-2.051-4.955-1.762-10.814-1.84-16.066-.232-16.4 6.724-72.771-27.285-64.17-37.758 9.553-56.652 63.668-68.184 96.131-9.746 27.438-15.974 57.775-13.955 87.109-11.428-1.053-21.398 2.043-29.431 8.203-73.552-54.814-138.93 13.992-190.631 63.172-32.215 30.639-63.313 62.771-91.413 97.256-20.534 25.203-39.378 52.768-43.12 85.957-3.283 29.133 2.82 56.824 15.075 81.967-5.278 9.014-7.729 18.043-8.022 26.936-35.598 6.115-155.956 30.973-128.021 86.086 4.263 8.41 13.694 13.203 21.955 16.531 10.69 4.307 20.519 3.494 27.883 14.428 5.354 7.945 1.931 20.396-.151 28.613-3.711 14.637-16.393 37.543 4.29 44.877 22.132 7.852 57.764-11.137 77.809-18.389 26.503-9.59 16.693 24.975 16.217 38.496-.336 9.645 4.27 22.258 14.631 25.109 20.412 5.613 38.047-20.324 46.614-34.91 16.778-28.578 22.122-63.273 24.686-95.861 14.014.182 27.3-4.285 36.841-16.039.047-.055.068-.111.111-.164 23.592 8.1 49.045 11.992 73.219 8.08 35.273-5.705 59.523-28.451 85.111-51.65 47.483-43.047 92.457-89.236 134.795-137.332 38.334-43.557 43.623-96.895 10.996-144.791-.009-.016-.023-.023-.033-.037 3.833-7.008 6.1-15.801 6.242-26.635 25.456-1.471 50.897-10.707 76.996-20.205 25.993-9.463 51.071-21.34 75.096-35.008 14.652-8.328 28.576-18.248 30.354-36.006 1.124-11.28-9.724-20.399-17.814-25.962zm-269.348 26.668c1.915 14.535 6.024 28.715 12.925 42.051.291.566.665.967 1.063 1.316-.02 4.152.12 8.246.615 12.139 2.064 16.301 14.98 20.652 29.736 20.045.328.387.678.766 1.201 1.066 16.814 9.74 33.405 13.709 49.959 14.047-.84 48.271-53.972 46.924-86.929 26.336-21.189-13.232-37.534-35.85-45.769-59.094-9.384-26.492 4.494-62.827 37.199-57.906zm50.032 197.069c-7.029 20.467-19.396 38.963-32.592 55.916-22.352 28.713-48.813 54.842-74.514 80.549-22.589 22.602-46.06 44.006-72.756 61.682-27.981 18.525-59.008 28.217-92.132 31.395-18.169-8.232-35.24-19.145-50.766-31.686 32.21-59.758 80.367-108.365 125.844-158.057 23.791-25.996 47.932-51.666 71.85-77.549 17.38-18.82 36.841-40.504 62.286-47.713 17.547 17.313 45.469 28.498 69.723 27.85.018 19.624-.449 38.695-6.943 57.613zm-66.386-89.188c-22.521 7.219-40.575 25.4-56.399 42.203-24.992 26.547-49.728 53.332-74.355 80.219-46.555 50.826-96.17 100.566-129.243 161.654-6.697-5.605-13.097-11.5-19.146-17.611-6.553-6.627-12.66-13.744-18.255-21.232.091-16.871 1.009-33.053 5.878-49.533 4.971-16.816 13.115-32.551 22.262-47.436 18.246-29.684 42.369-55.438 66.089-80.76 24.779-26.451 48.868-53.613 74.831-78.92 25.135-24.506 57.56-55.389 94.498-58.686-1.126 25.819 17.291 52.321 33.84 70.102zm-330.858 146.906c1.404-41.217 28.359-74.191 53.842-104.041 29.201-34.211 61.29-66.08 94.225-96.674 21.078-19.582 44.653-45.285 71.35-57.27 32.333-14.52 62.088-11.896 90.638 8.434-4.588 5.355-8.213 11.953-10.721 19.488-.918 2.77-1.477 5.574-1.862 8.389-33.523 2.689-62.351 27.285-86.286 48.885-30.078 27.141-56.64 58.039-84.324 87.543-24.916 26.543-49.696 53.418-69.236 84.281-8.968 14.164-16.24 29.324-21.66 45.18-5.4 15.803-6.746 31.553-7.039 47.793-18.574-27.066-30.052-58.754-28.927-92.008zm74.445 290.938c-4.564 9.398-10.681 17.914-17.945 25.387-6.272 6.457-25.98 21.465-28.575-6.369-.732-7.85.877-16.535 1.775-24.357 1.252-10.932 2.34-23.25-10.019-26.662 13.411-6.721 26.436-15.037 36.015-26.041.387-.443-.094-1.105-.631-.818-19.005 10.178-36.976 21.115-56.944 29.502-12.952 5.441-26.341 9.689-39.405 14.748-2.608.746-5.209 1.496-7.844 2.182-13.32 3.479-32.533 7.453-27.102-14.393 2.384-9.582 6.904-18.377 7.98-28.338.094-.844.088-1.627.143-2.447 3.837-21.596-.27-44.244-18.359-59.242-.232-.199-.637.053-.448.348 7.168 11.266 10.959 22.547 12.61 34.107-3.022-3.945-7.125-7.355-12.602-10.18-12.831-6.611-24.69-4.395-34.433-17.615-14.174-19.232 14.608-35.5 28.343-42.861 28.469-15.266 60.489-23.779 92.194-29.316 2.008 15.477 9.999 30.332 20.338 43.678-15.921 7.211-34.009 18.906-39.827 35.744-.073.213.241.41.391.227 11.369-14.01 26.732-24.492 43.502-30.939 7.184 8.553 15.165 16.402 22.91 23.281.781.697 1.601 1.391 2.438 2.074-6.746 10.668-15.448 20.525-24.357 29.355-.289.283.075.703.414.535 12.276-6.064 21.082-15.256 29.375-25.787 11.541 8.082 26.355 14.65 41.098 16.807-2.366 30.183-7.719 59.968-21.035 87.39zm-26.962-121.814c-23.786-21.135-49.516-54.715-35.487-86.766 22.558 39.781 60.385 72.395 99.907 92.961 6.539 3.404 13.393 6.533 20.445 9.336-23.854 24.234-64.437 2.621-84.865-15.531zm409.131-220.038c-7.912 36.109-38.976 63.969-63.234 89.932-37.951 40.625-77.609 80.127-119.694 116.486-32.115 27.742-65.669 37.863-107.882 29.518-10.906-2.156-21.574-5.387-31.926-9.512 28.998-3.787 56.287-12.689 81.522-28.34 28.962-17.965 53.927-41.234 77.997-65.168 26.791-26.637 54.417-53.971 77.277-84.107 12.75-16.801 23.616-34.584 31.008-54.391 7.117-19.055 7.215-39.092 7.125-59.109 12.278-1.135 23.295-5.557 31.131-14.033 15.595 24.117 23.001 49.814 16.676 78.724zm142.759-176.525c-20.737 12.369-42.942 22.295-65.338 31.199-41.367 16.445-84.995 33.615-127.153 14.932 9.989-2.115 19.437-5.375 25.662-7.719.737-.275.457-1.324-.325-1.178-12.852 2.4-25.939 3.5-39.014 3.4-7.389-.059-17.257-.43-21.861-7.229-3.355-4.947-2.5-12.92-2.5-18.609-.01-21.547 8.256-42.244 12.196-63.193.108-.543-.571-.842-.881-.373-8.581 12.746-14.722 29.594-17.451 46.447-14.161-38.23-6.282-81.021 6.404-119.076 6.612-19.844 15.565-38.807 26.311-56.727 7.011-11.699 15.601-22.189 26.931-29.916 20.69-14.109 24.859 12.703 25.463 25.443-1.223 22.287-4.852 44.695-2.32 66.752 2.339 20.352 16.568 31.904 36.545 24.291.545-.205.522-1.15-.154-1.094-25.184 2.141-30.645-15.818-30.957-38.213 1.447 2.004 3.246 3.695 5.586 4.871 23.272 11.701 57.466-17.041 78.27-24.914 7.106-2.689 14.553-4.277 22.15-4.311 14.729-.068 10.199 16.549 7.982 24.639-3.211 11.732-7.713 22.338-9.35 34.311-2.064 7.623-4.161 15.242-6.499 22.816-4.263 13.805-7.815 27.883-3.606 42.094.188.645 1.313.766 1.422 0 2.37-16.195 5.252-31.805 9.893-47.512 4.965 14.143 19.857 21.852 35.241 25.381 10.344 2.375 18.979 5.895 26.993 12.939 17.87 15.705-7.404 33.246-19.64 40.549z"/><path d="m747.115 231.409c-2.114.289-4.047.541-6.086 1.24-1.533.523-3.457 1.158-4.204 2.707-.09.193-.046.398.135.518 3.265 2.111 8.222-1.771 10.56-3.775.35-.305-.046-.743-.405-.69z"/><path d="m284.979 496.991c20.549-21.609 39.756-44.504 60.085-66.336 23.655-25.414 48.306-49.898 71.857-75.406.558-.604-.278-1.414-.89-.891-26.364 22.559-50.316 47.979-73.73 73.539-20.111 21.959-40.84 44.188-57.744 68.766-.176.256.215.547.422.328z"/><path d="m422.422 350.438c3.809-3.121 7.964-7.033 10.154-11.51.221-.441-.221-.887-.661-.664-4.573 2.305-7.798 7.32-10.029 11.76-.178.36.239.661.536.414z"/><path d="m602.336 545.706c-26.213 25.588-51.246 52.727-76.854 78.955-.412.422.193.998.635.633 27.904-22.986 56.898-48.613 76.696-79.217.198-.301-.233-.609-.477-.371z"/><path d="m507.146 641.632c-.26.33.135.721.459.461 4.182-3.324 8.02-6.686 11.54-10.719.265-.305-.068-.771-.436-.566-4.825 2.695-8.162 6.556-11.563 10.824z"/></g></g></g></svg>