<svg id="Food" height="512" viewBox="0 0 1000 1000" width="512" xmlns="http://www.w3.org/2000/svg"><g><path d="m134.263 604.773c4.168 11.49 8.105 22.344 10.956 33.441.501 1.959 1.001 3.989 1.511 6.065 4 16.271 8.981 36.519 22.127 51.283 4.453 5.004 9.063 9.379 13.521 13.613 1.526 1.448 3.053 2.897 4.563 4.366 4.664 4.533 7.183 12.271 10.103 21.224 1.203 3.69 2.444 7.506 3.938 11.373 6.506 16.842 22.436 31.781 42.613 39.965 4.582 1.857 9.063 3.572 13.463 5.258 16.064 6.146 29.939 11.457 42.893 21.808 17.32 13.844 35.914 19.252 54.201 24.565 7.687 2.234 15.101 6.658 22.949 11.346 11.255 6.718 24.014 14.33 40.32 17.13.725.125 1.455.223 2.282.319 3.89 1.006 8.032 1.513 12.354 1.513 5.238 0 10.875-.752 16.783-2.236 2.309-.223 4.588-.418 6.811-.508l.814-.017c7.826 0 18.211 4.191 27.373 7.892l4.147 1.664c18.041 7.155 38.252 13.778 63.763 13.778l2.525-.02c31.007-.521 52.841-6.83 66.749-19.291 7.879-7.06 11.654-9.211 16.154-9.211.511 0 1.035.026 1.574.078 1.535.146 3.021.213 4.469.213 10.031 0 17.715-3.279 23.901-6.488 3.322-1.721 7.216-3.389 11.334-5.156 9.16-3.926 19.236-8.246 28.058-15.157 1.778.137 3.555.206 5.324.206 39.352 0 67.02-31.76 76.97-62.426 6.222-3.66 12.396-8.834 18.07-17.133 2.726-3.994 4.34-8.529 5.519-11.842l.443-1.229c.907-2.467 3.084-4.955 6.561-8.807 2.008-2.229 4.032-4.49 5.95-6.924 7.378-9.365 10.915-20.988 14.038-31.244.887-2.918 1.735-5.742 2.656-8.299.627-1.744 1.229-3.48 1.827-5.203 3.093-8.906 5.533-15.941 10.386-21.322 1.549-1.717 3.809-3.492 6.426-5.545 3.762-2.953 8.025-6.301 12.058-10.928 20.061-23.033 16.442-59.767 13.803-86.586-.518-5.252-1.005-10.213-1.228-14.273-.414-7.559-2.18-13.961-3.738-19.606l-.131-.47c-2.686-9.752-2.421-17.401.979-28.223 3.889-12.369 10.395-33.066.813-51.975-3.473-6.857-7.295-12.609-11.965-19.134-4.131-5.774-4.612-14.471-5.168-24.536l-.141-2.564c-.773-13.377-5.513-25.588-9.692-36.357-1.331-3.428-2.65-6.813-3.784-10.158-4.968-14.647-12.766-26.776-23.836-37.082-12.955-12.061-21.295-21.627-28.246-37.61-10.517-24.183-24.32-51.072-55.207-64.097-5.153-2.172-10.354-3.637-14.94-4.928-1.898-.535-3.789-1.065-5.636-1.643-6.415-2.015-10.854-7.178-18.147-16.135l-.912-1.123c-10.076-12.351-23.256-20.089-34.313-25.179-11.162-22.446-37.746-34.501-61.05-34.92-2.828-.049-7.207-1.285-11.44-2.479-6.62-1.868-14.121-3.985-22.457-3.985-6.377 0-12.397 1.277-17.9 3.797-1.271.584-2.512 1.203-3.712 1.854-22.433-8.18-46.398-15.308-72.47-15.308-4.818 0-9.67.245-14.418.731-26.789 2.73-49.16 16.188-68.897 28.059-4.892 2.938-9.755 5.869-14.648 8.607-4.467 2.5-9.813 4.42-15.469 6.453-7.004 2.518-14.938 5.371-22.615 9.883-8.439 4.963-14.515 11.041-19.871 16.404-5.336 5.34-9.553 9.559-15.016 11.729-2.006.799-4.502 1.529-7.144 2.307-7.203 2.109-16.164 4.732-24.286 11.259-8.038 6.461-14.038 14.01-19.334 20.67-2.835 3.565-5.568 7.008-8.396 10.002-12.23.119-25.646 3.154-36.037 8.172-25.626 12.377-39.786 35.357-39.606 63.738-10.407 16.262-16.516 33.325-20.612 57.061-3.812 22.076-10.955 41.258-23.158 62.191-21.875 37.518-25.262 83.622-10.354 140.934 3.298 12.692 7.673 24.746 11.902 36.406z" fill="#fff"/><g><g><path d="m547.797 861.839c-19.656 0-37.865-7.23-55.476-14.228l-1.903-.756c-8.418-3.338-16.521-5.564-24.779-6.801-.563-.084-1.004-.525-1.094-1.084-.092-.563.192-1.119.703-1.375 2.752-1.381 5.442-2.812 8.11-4.228 12.457-6.61 24.24-12.866 39.385-13.149-2.612-.67-5.309-.998-8.145-.998-9.104 0-18.113 3.424-27.31 7.24-7.207 2.989-14.648 5.588-21.848 8.102l-6.508 2.283c-3.363 1.192-6.912 2.006-10.845 2.479-1.897.152-3.687.222-5.421.222-17.465 0-29.877-7.095-43.021-14.604-6.111-3.492-12.432-7.104-19.539-10.17-6.449-2.779-12.809-4.943-18.959-7.039-13.319-4.539-25.901-8.822-38.197-18.647-10.901-8.711-22.288-14.982-35.833-19.738l-.98-.346c-17.721-6.218-33.021-11.589-43.598-24.589-1.203-2.106-2.342-4.014-3.48-5.924-1.793-3.004-3.647-6.112-5.246-9.262-.586-1.471-1.11-2.848-1.596-4.318-1.369-4.184-2.818-7.965-4.428-11.557-.64-2-1.205-3.861-1.773-5.721-2.222-7.271-4.52-14.789-7.744-21.935-5.231-11.592-5.526-22.473-5.838-33.994-.063-2.457-.133-4.963-.25-7.524-.207-4.621-1.48-10.394-5.928-14.193 5.332 8.945 4.518 16.514 3.445 26.496l-.32 3.053c-1.143 11.191 2.999 21.853 7.339 31.81l.193.475c.229.586.079 1.428-.454 1.76-.271.168-.568.271-.848.271-.271 0-.526-.097-.736-.322-1.051-1.148-2.135-2.291-3.31-3.43-16.805-16.338-23.7-33.775-29.938-58.379-3.301-13.025-7.912-25.841-12.371-38.236-2.705-7.521-5.504-15.293-7.992-23.066-16.533-51.614-12.68-97.52 11.771-140.336 1.324-2.319 2.602-4.822 4.021-7.869.217-.467.685-.754 1.183-.754.104 0 .217.013.321.039.609.156 1.021.724.98 1.351-.787 12.383.82 23.805 4.78 33.946 4.003 10.254 3.183 19.254 1.833 28.558 1.553-5.687 2.661-11.541 2.661-17.652 0-4.621-1.352-9.307-2.657-13.838l-.347-1.203c-2.078-7.266-2.342-15.008-2.317-22.291.045-13.721 2.729-27.344 5.324-40.521 1.233-6.266 2.512-12.743 3.479-19.12 3.213-13.648 7.283-29.3 15.217-43.625.232-.418.672-.675 1.144-.675.052 0 .104.004.154.013.528.063.965.438 1.104.95 1.311 4.818 2.994 9.496 5 13.906 5.458 11.988 13.047 19.472 23.202 22.869 1.197.403 1.128 2.039.065 2.453-2.944 1.16-5.645 2.738-8.255 4.262-3.341 1.951-6.777 3.957-10.81 5.156 1.274.277 2.486.414 3.66.414 3.129 0 6.188-.924 10.566-3.189 9.493-4.91 18.145-5.889 27.307-6.924 3.184-.361 6.467-.731 9.918-1.279 11.129-1.77 19.778-5.227 26.446-10.573.573-.429 1.086-.84 1.578-1.271.295-.262.585-.551.877-.836.83-.826 1.349-1.34 1.812-1.897 1.909-2.109 3.313-3.959 4.459-5.869 2.66-4.433 4.229-9.799 5.75-14.992.739-2.527 1.473-5.029 2.317-7.406 3.551-10 6.58-19.078 7.668-28.924 1.068-9.684-3.727-17.959-8.801-26.717-2.567-4.433-5.211-8.992-6.996-13.74-.007 6.176 3.188 12.193 6.294 18.037 1.835 3.455 3.733 7.024 4.918 10.561 1.146 3.41 1.632 7.097 1.493 11.269-.054 1.538-2.36 1.635-2.596.157-.256-1.652-.687-3.32-1.277-4.955-.125-.713-.303-1.164-.594-1.611-5.961-9.15-17.645-17.652-34.725-25.268-.868-.386-1.037-1.542-.339-2.168 3.563-3.169 6.353-6.132 8.783-9.326 11.506-15.125 21.729-24.572 42.77-31.15 8.556-2.676 15.074-7.647 22.23-14.291 10.033-9.318 19.092-15.555 30.287-20.85 5.932-2.15 12.01-3.697 17.889-5.197l3.306-.846c2.021-.523 4.147-1.146 6.334-1.785 6.606-1.933 14.096-4.121 20.856-4.121 8.848 0 15.016 3.713 18.807 11.336 1.029-3.463.753-6.381-.823-8.686-2.912-4.259-10.656-6.8-20.715-6.8-2.511 0-4.992.168-7.177.482-.063.012-.131.016-.194.016-.562 0-1.122-.334-1.308-.862-.207-.589-.051-1.23.488-1.546 2.303-1.346 4.594-2.711 6.887-4.077 11.705-6.97 23.808-14.175 37.129-18.861 8.99-3.164 18.328-4.703 28.554-4.703 23.125 0 45.873 7.92 69.082 16.742.339.129.61.395.745.731.138.339.125.716-.028 1.043-1.064 2.263-1.771 4.604-2.156 7.154-1.833 12.066 4.164 21.724 9.516 27.703.41.459.443 1.143.082 1.639-.252.347-.647.537-1.055.537-.18 0-.36-.037-.531-.112l-2.719-1.207c-10.521-4.601-17.147-9.832-22.248-17.845 1.857 5.939 6.152 11.097 13.006 15.654 10.283 6.834 21.549 12.141 31.722 14.945 2.321 1.102 4.358 1.965 6.278 2.646.938.332 1.976.494 3.169.494 2.219 0 4.557-.563 6.753-1.172 1.709-.076 3.095-.133 4.469-.193.982-.043 1.946-.063 2.894-.063 3.018 0 6.01.213 9.145.651 1.134.354 2.031.671 2.935.986 3.594 1.264 7.307 2.57 11.029 2.691.03-.002 10.112 2.553 15.133 2.553 5.255 0 9.524-1.543 13.013-4.709l-6.222.029c-1.452 0-2.886-.013-4.304-.045-1.294-.032-1.805-1.752-.617-2.438 5.473-3.131 9.717-7.4 11.953-12.02l.289-.703c.598-2.086.922-4.105 1.108-6.511.033-.43.275-.813.646-1.028.202-.115.428-.176.653-.176.191 0 .386.043.563.127 11.388 5.424 19.985 13.854 28.305 22.008 9.437 9.25 18.346 17.985 31.041 22.795l2.232.846c8.489 3.211 16.512 6.242 23.667 10.418 3.33 2.258 6.258 4.297 9.134 6.867 10.254 9.176 15.531 24.367 18.154 35.498 2.79 11.832-.416 22.498-3.519 32.814-2.479 8.252-4.844 16.12-4.313 24.434 6.928-19.123 12.262-34.574 11.639-52.844-.043-1.153 2.112-1.505 2.509-.542.617 1.489 1.238 2.971 1.873 4.43 5.574 12.816 14.803 22.447 23.727 31.762 9.369 9.775 19.058 19.883 24.396 33.601 5.211 13.379 11.693 30.032 12.646 46.492.562 9.719 1.403 18.582 6.035 28.662 1.724 3.75 4.459 7.396 7.105 10.928 1.37 1.828 2.725 3.633 3.927 5.43 7.849 11.715 3.97 24.42.544 35.629 0 0-1.25 4.035-1.684 5.396-2.564 8.022-5.47 17.113-3.633 25.359l1.055 4.699c7.012 31.111 18.748 83.18-3.779 109.043-3.104 3.564-6.521 6.422-9.828 9.187-4.725 3.952-9.188 7.684-12.713 13.27-4.197 6.654-6.725 14.668-9.17 22.42-1.5 4.754-3.051 9.668-4.967 14.188-.742 1.752-1.547 3.787-2.396 5.94-2.764 6.986-5.895 14.904-9.146 19.031-1.279 1.625-2.906 2.992-4.479 4.313-2.085 1.75-4.053 3.402-5.229 5.568-1.67 3.08-2.777 5.943-3.847 8.711-2.856 7.4-5.323 13.791-16.928 18.695-.162.068-.334.104-.508.104-.189 0-.381-.043-.555-.123-.336-.157-.588-.452-.695-.805-.943-3.127-2.135-6.174-3.396-9.402l-.765-1.965c-1.383-3.576-2.36-7.483-3.309-11.264-1.248-4.986-2.538-10.141-4.75-14.477-6.105-11.968-14.527-14.234-27.928-14.234-2.16 0-4.4.053-6.711.107 0 0-2.462.049-3.141.049-5.06 0-9.355-.412-13.515-.813-3.523-.342-6.854-.662-10.187-.662-6.742 0-12.701 1.412-19.323 4.582-14.107 6.754-21.566 16-26.604 32.979-.197.662-.332 1.324-.467 1.983l-.246 1.146c-.139.596-.67 1.012-1.271 1.012-.038 0-.077-.002-.116-.006-.648-.059-1.156-.586-1.188-1.236-.295-6.018.824-11.922 1.91-17.631.965-5.084 1.89-9.951 1.9-14.867-.716 2.763-1.488 5.478-2.246 8.134-3.09 10.844-6.008 21.084-4.749 32.518 1.271 11.547 5.888 23.627 13.717 35.906 8.352 13.096 20.708 22.789 34.796 27.299.451.146.789.525.881.99.096.465-.074.944-.436 1.25-6.103 5.17-13.818 8.385-21.281 11.492-4.055 1.69-7.885 3.286-11.467 5.17-1.002.526-2.003.975-3.008 1.379l-1.57.424c-3.146.707-6.41 1.065-9.705 1.065-9.912 0-20.354-3.17-31.037-9.422-3.029-1.771-6.113-3.844-9.092-5.85-8.934-6.014-18.172-12.229-28.334-12.229-1.65 0-3.271.155-4.883.479 14.322 1.664 23.117 7.029 34.168 16.348 5.596 4.722 12.428 8.521 20.31 11.295.546.193.901.726.87 1.304-.031.58-.441 1.067-1.006 1.2-2.97.697-5.571 1.687-7.955 3.023-3.775 2.123-7.299 5.463-10.705 8.691-2.533 2.401-5.154 4.885-7.859 6.846-9.405 6.813-26.815 7.939-39.528 8.76-1.705.111-3.308.217-4.769.326-2.034.15-4.056.225-6.066.225zm-108.861-236.693c.48 5.141.313 10.221.151 15.176-.264 8.097-.514 15.744 1.775 23.652 2.772 9.566 10.006 19.332 16.897 26.599 4.89 5.155 9.607 9.053 12.437 10.729 1.576.936 3.179 1.856 4.787 2.77 4.965 3.045 10.224 5.754 15.664 8.08 9.303 4.248 17.698 6.936 25.433 8.128 7.048 1.088 13.811 1.006 20.032-.401 15.874-3.587 27.021-15.635 33.884-25.868 6.89-10.277 14.411-22.404 17.951-34.445 3.121-10.615-3.233-20.912-8.84-29.998-.153-.246-.307-.494-.457-.738.607 2.543 1.348 5.007 2.071 7.416 2.456 8.179 4.775 15.902 1.98 25.414-1.396 4.746-3.811 9.8-7.815 16.388-.547.885-2.795 1.083-2.398-.933 1.065-5.424 1.799-11.336 2.18-17.569.735-12.073-4.912-22.393-12.382-31.631-8.214-10.159-22.29-29.796-51.47-29.796-16.677 0-34.044 6.328-46.464 16.929-12.147 10.366-18.469 27.639-16.908 46.2.056.656-.387 1.25-1.028 1.39-.093.018-.184.028-.272.028-.546 0-1.046-.346-1.231-.877-1.436-4.108-2.42-8.225-2.932-12.229-.367-2.896-.508-5.809-.643-8.625-.266-5.533-.52-10.828-2.402-15.789zm364.64-33.734c2.104 2.443 4.244 4.968 6.183 7.614 5.22 7.144 1.609 14.56-1.576 21.103l-.397.815c-2.459 5.068-4.592 9.83-5.413 14.896 1.873-4.412 4.424-8.408 6.917-12.314 2.99-4.689 6.084-9.535 7.828-14.914 3.07-9.475-2.506-16.43-8.41-23.795-.096-.163-1.726-2.287-1.114-3.037 11.896-15.137 7.826-35.758 4.233-53.953l-.936-4.793c-2.287-12.004-.223-21.6 1.961-31.754 1.139-5.303 2.318-10.785 2.866-16.746 1.269-13.797-2.427-23.729-8.36-34.395-3.706-6.654-10.807-11.73-17.072-16.207l-2.393-1.719c-11.958-8.668-13.813-18.394-15.607-27.798-.791-4.151-1.602-8.389-3.303-12.59.867 4.766 1.033 9.582 1.197 14.303.174 5.005.352 10.179 1.379 15.126 1.07 5.151 6.26 9.901 10.43 13.721.806.736 1.571 1.438 2.271 2.106 11.758 11.248 22.863 21.871 24.256 41.025.521 7.197-1.42 14.451-3.299 21.465-1.785 6.67-3.632 13.565-3.387 20.437.256 7.201 1.554 14.412 2.807 21.387 2.293 12.758 4.492 24.988.719 36.779-2.967 9.277-8.052 14.599-12.719 19.352-3.68 3.747-7.568 7.319-11.361 10.802-9.758 8.97-19.834 18.226-26.002 30.246 3.766-3.201 7.885-6.469 12.055-9.776 11.072-8.785 22.512-17.862 32.141-27.842 2.069-2.148 3.145-.661 4.106.456zm-595.551-50.459c1.4 17.869 16.665 32.898 29.146 45.188 0 0 2.828 3.355 6.164 6.525s7.178 6.156 10.25 8.25c9.419 6.42 21.466 12.371 27.181 14.055 7.271 2.842 13.562 4.205 19.334 4.205 11.273 0 20.758-5.285 28.992-16.158 1.022-1.349 2.143-2.676 3.31-3.992l1.378-1.272c4.434-4.076 8.619-7.923 12.988-11.084 7.207-5.218 15.225-11.871 20.031-21.675 2.307-4.703 2.61-9.694 2.902-14.524.36-5.886.727-11.947 4.608-17.638-6.375 3.494-7.937 11.498-9.58 19.923-1.064 5.446-2.164 11.079-4.77 15.325-.74 1.205-1.563 2.351-2.449 3.449-.254.318-.631.488-1.017.488-.217 0-.434-.056-.633-.164-.555-.31-.809-.969-.6-1.57.535-1.545.886-2.856 1.102-4.133 2.152-12.703-8.328-24.973-18.862-35.299-.283-.334-.472-.519-.688-.685-2.083-1.617-4.187-3.342-6.323-5.094-9.848-8.074-20.03-16.424-32.278-17.803-3.787-.428-7.478-.644-10.967-.644-16.736 0-30.701 4.916-42.691 15.027-14.957 12.615-16.916 34.643-12.219 50.879.627 2.182-1.694 1.732-2.144 1.32-1.426-1.322-2.854-2.646-4.321-3.92-9.906-8.584-13.818-18.089-17.844-28.979zm508.565 32.809c4.189 0 8.233-.622 12.074-1.853 1.457-.468 10.668-4.01 13.467-5.475 14.551-7.625 22.774-22.373 25.884-46.414.232-1.801.486-3.648.747-5.533 2.369-17.2 5.022-36.456-3.839-50.497 3.175 9.801 2.913 20.685 2.24 29.472-.109 1.422-2.033 1.625-2.517.372-2.941-7.582-7.338-14.981-11.59-22.141-2.353-3.957-4.783-8.047-6.867-12.022-6.886-13.13-25.631-16.156-39.134-17.289-1.138-.099-2.271-.146-3.407-.146-33.248 0-64.61 39.408-66.014 70.471-1.121 24.877 10.947 41.822 36.895 51.804.604.231.945.873.808 1.504-.136.602-.668 1.021-1.275 1.021-.031 0-.063-.002-.094-.004-2.648-.192-5.275-.264-7.896-.264-3.35 0-15.306.405-17.965.438h-.007c-8.002.004-14.13-3.68-20.025-7.317 4.496 4.709 8.9 7.742 13.859 9.606 3.228 1.215 7.242 1.781 12.627 1.781 2.729 0 13.668-.535 16.23-.535 1.459 0 2.884.043 4.25.148 3.623.283 7.258.641 10.89.996 7.832.77 15.93 1.565 23.768 1.565-.001.001 5.172.312 6.891.312zm-325.975-174.694c1.588 3.035 4.271 5.396 7.593 8.09 5.038 4.092 10.557 8.031 15.891 11.842l3.682 2.638c5.951 5.817 14.465 10.348 22.027 14.026 3.852 1.869 8.914 2.824 15.045 2.83 1.919.181 3.736.271 5.582.271 3.877 0 7.803-.416 11.664-1.236 4.688-.996 9.242-2.44 13.537-4.295l1.998-.604c9.803-2.978 17.521-9.427 22.324-18.646 1.798-2.52 3.176-4.709 4.315-6.859 1.141-2.151 2.414-4.366 3.715-6.629 7.566-13.16 15.373-26.733 4.452-38.264 3.73 9.744 3.05 17.731-2.118 27.52-.967 1.83-2.022 3.613-3.108 5.375-.241.394-.666.623-1.111.623-.121 0-.245-.02-.365-.055-.563-.164-.951-.687-.938-1.273.104-6.914-1.341-13.866-4.181-20.108l1.179-.566-1.362.119c-.38-.836-.72-1.207-1.235-1.527-7.021-7.041-16.946-11.879-26.545-16.559-3.061-1.494-6.037-2.945-8.799-4.412-3.397-1.805-6.766-2.682-10.297-2.682-6.199 0-12.041 2.692-18.23 5.545-2.854 1.315-5.811 2.68-8.854 3.789l-3.118 1.108c-10.383 3.664-22.148 7.814-25.395 18.666-2.433 8.133-1.584 20.626 2.11 31.097.181.504.031 1.067-.373 1.418-.243.213-.549.322-.856.322-.205 0-.411-.05-.603-.148l.109-1.436-.598 1.159-1.757-.899c-5.468-2.798-11.08-5.668-15.38-10.24zm303.341-62.242c.58 0 1.095.383 1.256.941 3.292 11.369 3.604 20.547.992 31.203 5.716-5.701 7.847-12.566 6.345-20.433-.974-5.092-2.556-9.84-4.229-14.867l-.93-2.799c-2.453-7.49-1.267-14.733-.119-21.742.277-1.69.556-3.393.789-5.112 1.465-10.853-4.57-19.888-18.994-28.433-.719-.563-1.268-1.002-1.787-1.395-12.664-9.642-27.553-14.947-41.922-14.947-9.377 0-18.008 2.254-25.648 6.697l-3.51 1.149c-2.771.857-5.819 1.591-8.967 2.347-11.596 2.78-24.602 5.899-28.566 17.092 7.908-9.992 18.294-12.139 29.232-14.4 2.359-.472 1.551 1.857.464 2.927-.449.444-.9.889-1.33 1.379-23.848 27.262-2.641 55.811 15.387 74.916 9.351 9.91 22.316 15.366 36.509 15.366 15.319 0 29.573-6.375 39.104-17.489l.479-.638c2.021-3.401 3.353-6.881 4.171-10.729.127-.584.633-1.012 1.229-1.031.015 0 .03-.002.045-.002z" fill="#ad8353"/><path d="m629.777 202.498c-4.639 0-9.594-1.08-14.387-2.123-4.629-1.01-9.417-2.053-13.726-2.053-.396 0-.789.008-1.18.025-2.205.102-4.195.352-6.084.586-2.234.274-4.348.537-6.535.537-4.057 0-7.629-.931-11.584-3.011-7.43-3.91-13.848-11.563-17.604-20.994-3.138-7.87-1.873-15.784 3.461-21.717 3.43-3.813 7.701-5.666 13.058-5.666 5.13 0 10.395 1.67 15.487 3.287 2.604.828 5.068 1.611 7.371 2.119.961.213 1.929.373 2.897.506.527.072.957.453 1.091.969.131.519-.063 1.06-.492 1.373-1.56 1.152-3.033 2.435-4.509 3.711-3.262 2.832-6.608 5.736-10.876 7.279.469.072.932.105 1.394.105 2.683 0 5.347-1.191 8.909-3.988 6.326-4.963 11.718-8.043 19.03-8.043 1.896 0 3.859.203 6.013.619 3.373.651 6.504 2.063 9.526 3.428 2.533 1.139 5.43 2.263 7.838 4.364 6.891 6.01 11.878 16.117 9.241 27.054-4.099 8.029-9.891 11.633-18.339 11.633zm-389.996 156.615c6.031 0 12.556-1.213 18.722-2.459 1.513-.307 3.166-.576 4.883-.857 6.398-1.049 13.648-2.235 18.525-5.885 8.832-6.604 9.733-13.783 10.688-21.385.404-3.23.823-6.57 1.885-10.006.44-1.429.91-2.849 1.376-4.254 2.612-7.884 5.313-16.029 2.071-25.074-9.572-14.394-29.383-24.064-49.295-24.064-9.74 0-18.588 2.367-25.596 6.849-.453.289-.685.83-.574 1.356.106.529.527.938 1.059 1.027.748.129 1.51.303 2.282.592 2.815 1.051 5.557 2.402 8.208 3.709 3.459 1.701 7.033 3.465 10.904 4.642 3.024.922 7.108 3.332 8.711 5.983 3.299 5.455 4.551 12.482 3.584 19.451-.113-.939-.207-1.9-.301-2.887-.533-5.5-1.082-11.187-5.261-15.113-3.772-3.545-9.555-5.457-15.145-7.307-2.57-.853-5-1.656-7.113-2.58-3.156-1.381-6.049-2.082-8.596-2.082-3.902 0-7.146 1.619-9.695 4.889-.928 1.394-1.805 2.912-2.631 4.58-2.412 5.586-3.496 12.988-4.454 19.521l-.337 2.38c.074 11.116 3.344 22.771 9.207 32.817 6.523 11.174 14.816 16.156 26.891 16.156zm469.553 446.877c25.131 0 45.7-16.994 53.733-44.721.002-7.627-2.924-14.832-5.753-21.801-1.657-4.082-3.37-8.306-4.378-12.314-1.064-8.076-5.253-14.422-12.451-18.863-.072-.045-.43-.188-.508-.215-.418-.156-.839-.309-1.279-.414-1.465-.354-2.944-.533-4.407-.533-7.617 0-13.927 4.763-19.729 9.644-4.449 3.736-8.577 6.481-13.43 7.463 4.067-2.436 7.573-5.824 10.994-9.129 2.706-2.619 5.506-5.324 8.489-7.438.445-.315.646-.875.506-1.401-.141-.527-.594-.912-1.137-.963l-2.012-.193c-5.974-.582-12.738-1.242-19.572-1.242-20.393 0-33.146 6.398-38.992 19.556-7.512 16.92-6.444 37.891 2.785 54.729 8.248 15.049 21.686 24.682 37.836 27.123 3.139.475 6.271.715 9.301.715zm-411.544-192.541c5.759 0 10.389-1.258 14.154-3.838 3.816-2.615 7.176-5.676 10.433-8.744 2.145-2.785 4.207-5.627 6.276-8.479l2.912-3.996c1.871-2.549 4.237-4.527 6.742-6.621 1.93-1.613 3.926-3.283 5.674-5.236 7.576-8.469 7.445-18.268-.383-29.123-.004-.004-.416-.547-.42-.551-2.865-3.861-6.271-7.346-8.982-10.004-3.635-3.158-7.764-6.078-13.303-6.078-1.463 0-3 .211-4.562.625-.481.125-1.006.281-1.551.445-1.518.451-3.233.963-5.029.963-.032 0-.063 0-.094 0-3.862-.348-7.665-1.348-11.342-2.316-3.721-.981-7.57-1.998-11.596-2.381-1.267-.119-2.488-.178-3.67-.178-6.896 0-12.326 1.859-18.847 4.84 4.435-4.576 10.646-6.658 19.546-6.658 4.432 0 9.112.496 13.643.976 4.568.481 8.887.938 13.022.938 2.732 0 5.088-.205 7.196-.623.528-.104.938-.521 1.032-1.049.092-.531-.146-1.063-.607-1.346-14.112-8.609-27.092-12.978-38.573-12.978-11.98 0-22.15 4.808-30.232 14.285-10.211 11.982-14.235 25.939-11.331 39.295 3.028 13.924 13.327 25.908 28.26 32.873 2.348 1.097 5.213 2.754 8.248 4.506 6.735 3.892 15.125 8.734 23.29 10.453zm226.64 102.08c2.906 0 5.791-.412 8.572-1.225 15.571-4.558 25.291-13.816 29.715-28.305 8.549-28 3.828-45.209-18.693-68.188-1.248-1.303-2.629-2.537-4.104-3.664-.236-.18-.517-.27-.795-.27s-.558.09-.791.27c-.472.357-.64.982-.418 1.529 1.381 3.389 1.553 6.709.504 9.604-1.66 4.584-.438 9.263.746 13.787 1.104 4.23 2.098 8.021.786 11.371-.188-3.455-1.465-6.588-2.709-9.646-1.313-3.221-2.553-6.262-2.553-9.6 0-1.42.051-2.791.104-4.106.278-7.119.518-13.271-7.966-17.779-3.743-1.988-8.038-3.451-12.901-4.361-1.705-.137-3.424-.205-5.148-.205-20.336 0-38.586 9.117-46.49 23.228-8.229 14.692-10.34 30.047-5.935 43.237 4.208 12.603 13.913 22.564 28.067 28.814 3.522 1.555 7.01 3.42 10.696 5.396 9.289 4.972 18.894 10.111 29.31 10.111.001.002.001.002.003.002zm123.951-355.496c13.264 0 26.198-5.637 34.765-15.309 5.127-9.101 4.61-16.875 4.062-25.111-.274-4.107-.559-8.355-.116-12.916 1.435-14.885-8.808-24.67-17.647-30.258-11.093-7.006-24.167-11.025-35.868-11.025-11.885 0-21.842 4.203-28.795 12.152-14.736 16.85-14.621 34.459.345 52.344 2.377 2.84 4.336 5.738 6.411 8.812 1.065 1.575 2.14 3.166 3.277 4.756 2.029 2.834 4.426 5.381 7.125 7.572.24.192.53.29.822.29.268 0 .537-.081.766-.247.479-.347.664-.972.455-1.521-.639-1.678-1.067-3.303-1.315-4.971-.689-4.636.18-8.81 1.1-13.229.811-3.901 1.643-7.896 1.293-12.186 1.566 4.192 1.131 8.768.676 13.526-.598 6.287-1.217 12.785 3.022 18.507 3.677 4.959 8.857 7.791 15.896 8.666 1.238.099 2.482.147 3.726.148zm-185.779 70.43c4.285 0 8.311-.396 12.012-1.228 10.961-2.455 27.523-6.168 30.737-19.635 2.212-9.285 3.929-22.394-.745-32.486-4.207-4.248-9.693-6.871-15-9.408-3.076-1.471-6.26-2.994-9.082-4.793-3.809-2.432-7.633-4.041-11.596-4.871-5.688-1.192-8.621-.472-12.349 10.04-.419 1.181-.844 2.379-1.327 3.549-2.07 4.992-4.44 7.712-8.25 8.925 3.832-3.265 5.132-8.025 6.397-12.67.717-2.625 1.457-5.341 2.664-7.673.386-.744-.511-2.09-1.464-1.868-3.611.86-7.194 2.166-10.946 3.993-2.479 1.207-5.242 1.978-8.17 2.791-3.986 1.111-8.108 2.261-11.506 4.619-14.996 10.42-10.844 23.008-7.178 34.115.479 1.451.957 2.902 1.397 4.348 4.678 15.371 25.67 22.253 44.4 22.253.006-.001.006-.001.006-.001zm250.391 136.037c32.558 0 46.369-32.53 48.298-60.641-1.056-8.487-7.262-19-12.736-28.278-1.918-3.247-3.728-6.311-5.146-9.021-4.099-7.816-10.226-12.689-16.763-15.594-6.349-2.821-13.083-3.785-18.72-3.785-4.151 0-7.487-.019-10.863.631-5.041.97-9.647 2.919-12.978 4.55-6.048 2.961-9.292 6.235-9.798 6.998-.146.217-.29.438-.408.687-2.479 5.057-1.189 11.176.057 17.094 1.637 7.774 3.074 14.594-3.407 18.233 3.325-6.188 1.864-10.803-.223-17.389l-.233-.746c-.938-2.971-1.822-6.209-1.937-9.742-.039-1.219-1.461-1.667-2.238-.868-14.963 15.291-23.365 34.52-21.93 50.186 2.862 31.205 34.477 42.768 60.492 46.975 2.913.47 5.782.711 8.53.711.003-.001.001-.001.003-.001z" fill="#a5603f"/><g fill="#84391c"><path d="m576.282 196.46c3.955 2.08 7.527 3.011 11.584 3.011 2.188 0 4.3-.263 6.535-.537 1.889-.234 3.879-.484 6.084-.586.39-.019.783-.025 1.18-.025 4.309 0 9.097 1.043 13.726 2.053 4.793 1.043 9.748 2.123 14.387 2.123 8.447 0 14.239-3.604 18.341-11.631.155-.639.202-1.303.3-1.955-2.375 1.229-4.821 2.312-7.381 3.109-4.545 1.418-9.2 1.83-13.888.848-4.473-.94-8.628-2.901-12.888-4.492-4.474-1.668-9.01-2.668-13.803-2.614-4.955.057-9.816 1.059-14.722 1.631-8.64 1.012-17.259-.152-23.679-6.531-.716-.713-1.362-1.467-1.981-2.238 3.849 7.968 9.625 14.372 16.205 17.834z"/><path d="m625.473 335.74c-.403 5.316-.279 10.674 3.282 15.479 3.677 4.959 8.857 7.791 15.896 8.666 1.24.1 2.484.147 3.729.147h.002c13.264 0 26.198-5.637 34.765-15.309 2.181-3.871 3.306-7.496 3.874-11.027-9.705 5.299-20.289 8.869-31.402 9.346-10.431.446-21.223-1.726-30.146-7.302z"/><path d="m552.977 697.084c-5.736 2.287-11.816 3.691-18.014 3.563-6.726-.143-13.097-2.357-19.213-5.012-6.177-2.683-12.25-5.509-18.615-7.726-6-2.092-12.09-3.922-18.041-6.147-9.859-3.687-18.678-9.052-24.396-17.773.375 2.457.877 4.881 1.657 7.219 4.208 12.603 13.913 22.564 28.067 28.814 3.522 1.555 7.01 3.42 10.696 5.396 9.289 4.972 18.894 10.111 29.31 10.111h.002c2.906 0 5.791-.412 8.572-1.225 12.436-3.639 21.076-10.334 26.332-20.238-2.06 1.109-4.162 2.141-6.357 3.018z"/><path d="m763.068 761.27c.002-6.465-2.104-12.623-4.467-18.596-1.353 2.53-2.814 5.002-4.412 7.389-6.35 9.512-14.684 17.758-24.15 24.164-18.206 12.318-43.276 19.652-63.967 10.012 8.297 11.537 20.118 18.943 33.959 21.037 3.14.476 6.271.715 9.302.715h.002c25.13-.001 45.699-16.995 53.733-44.721z"/><path d="m417.271 405.324c.315.963.636 1.929.929 2.888 4.679 15.37 25.67 22.252 44.4 22.252h.002c4.285 0 8.311-.396 12.012-1.228 10.305-2.307 25.553-5.731 30.015-17.317-7.773 1.09-15.753.875-23.576.471-12.482-.644-24.953-1.478-37.435-2.121-9.197-.478-18.139-1.107-26.347-4.945z"/><path d="m338.443 573.484c-7.123 2.584-13.768 5.672-19.627 10.551-4.772 3.976-8.922 8.945-14.489 11.875-5.871 3.091-11.65 1.242-16.966-2.028-5.748-3.537-10.865-7.836-17.118-10.521-6.098-2.615-12.73-4.063-18.611-7.166-5.93-3.129-9.769-8.215-11.652-14.615-1.336-4.547-1.715-9.321-1.787-14.102-1.428 6.014-1.597 12.135-.29 18.139 3.028 13.924 13.327 25.908 28.26 32.873 2.348 1.097 5.213 2.754 8.248 4.506 6.735 3.892 15.125 8.734 23.291 10.453h.091c5.759 0 10.389-1.258 14.154-3.838 3.816-2.615 7.176-5.676 10.433-8.744 2.145-2.785 4.207-5.627 6.276-8.479l2.912-3.996c1.871-2.549 4.237-4.527 6.742-6.621 1.93-1.613 3.926-3.283 5.674-5.236 1.881-2.104 3.283-4.289 4.213-6.553-3.218 1.234-6.502 2.323-9.754 3.502z"/><path d="m754.23 529.716c-10.604 7.896-22.269 17.157-35.473 19.928-7.574 1.59-15.214.078-22.517-2.063-6.396-1.877-12.76-4.024-18.983-6.409-11.505-4.406-23.115-10.646-28.865-22.099-2.104-4.184-3.15-8.485-3.637-12.842-.861 4.344-1.152 8.582-.787 12.584 2.862 31.205 34.477 42.768 60.491 46.975 2.914.47 5.783.711 8.531.711h.002c24.465 0 38.345-18.375 44.552-39.438-1.11.878-2.181 1.81-3.314 2.653z"/><path d="m239.779 359.113h.002c6.031 0 12.556-1.213 18.722-2.459 1.513-.307 3.166-.576 4.883-.857 6.398-1.049 13.648-2.235 18.525-5.885 8.832-6.604 9.733-13.783 10.688-21.385.404-3.23.823-6.57 1.885-10.006.44-1.429.91-2.849 1.376-4.254.649-1.961 1.305-3.938 1.873-5.941-3.32 2.41-6.695 4.748-10.042 7.121-5.332 3.783-10.282 7.869-15.069 12.318-5.373 4.993-10.716 9.131-17.902 11.096-3.363.918-6.805 1.453-10.276 1.717-3.953.299-8.3.683-12.222.025-6.045-1.015-10.938-4.488-14.748-9.201-7.889-9.762-10.713-23.246-11.33-35.576-.906 3.922-1.555 8.063-2.122 11.935l-.337 2.379c.074 11.116 3.344 22.771 9.207 32.817 6.52 11.173 14.813 16.156 26.887 16.156z"/><path d="m611.534 338.72c1.065 1.575 2.14 3.166 3.277 4.756 2.029 2.834 4.426 5.381 7.125 7.571.24.193.53.291.822.291.268 0 .537-.082.766-.248.479-.346.664-.971.455-1.521-.639-1.678-1.068-3.303-1.316-4.971-.538-3.627-.116-6.976.527-10.375-8.83-6.354-15.104-15.797-24.643-21.277-1.218-.697-2.458-1.316-3.701-1.92 1.574 6.246 4.974 12.547 10.274 18.883 2.38 2.841 4.339 5.739 6.414 8.811z"/></g><g fill="#f89c5a"><path d="m413.588 391.501c2.725-4.713 6.479-9.164 11.026-12.178 8.07-5.348 17.851-6.84 27.437-6.996.496-1.465.94-2.951 1.35-4.442.717-2.625 1.457-5.341 2.664-7.673.549-1.06-.456-2.103-1.464-1.868-3.611.86-7.194 2.165-10.946 3.993-2.479 1.207-5.242 1.978-8.17 2.791-3.986 1.111-8.107 2.261-11.506 4.619-9.616 6.682-11.342 14.253-10.391 21.754z"/><path d="m455.252 371.63c-.104.248-.221.431-.326.668 1.412.015 2.817.048 4.205.101 6.063.233 12.164.731 18.186 1.475 6.771.832 11.416 3.107 16.521 7.566 4.538 3.969 8.898 8.067 13.01 12.475.219.232.442.474.659.711.229-6.008-.431-12.176-2.899-17.51-4.207-4.248-9.692-6.871-15-9.408-3.076-1.471-6.26-2.994-9.082-4.793-14.335-9.152-19.768-6.607-23.944 5.169-.422 1.177-.846 2.376-1.33 3.546z"/><path d="m540.11 614.32c-.112-.072-.223-.147-.335-.221-.205-.119-.423-.221-.65-.221-.277 0-.557.09-.791.27-.471.357-.639.982-.418 1.529 1.382 3.389 1.554 6.709.505 9.604-1.229 3.392-.875 6.834-.132 10.23 7.207 6.057 13.313 13.395 18.041 21.619 3.728 6.483 6.449 13.385 8.535 20.559.008.021.01.041.017.061 5.194-23.309-.642-39.311-20.857-59.938-1.191-1.242-2.515-2.41-3.915-3.492z"/><path d="m712.127 715.105c2.707-2.619 5.506-5.324 8.489-7.438.31-.222.443-.563.486-.923-1.369.078-2.739.138-4.113.045-5.569-.375-11.088-1.87-16.631-2.881-.653-.01-1.303-.043-1.957-.043-20.393 0-33.146 6.398-38.992 19.556-3.87 8.721-5.423 18.516-4.793 28.268.052-.123.103-.268.152-.383 2.577-5.867 5.646-11.775 9.359-17.004 7.637-10.752 17.477-14.654 30.458-13.041 2.914.36 5.79.946 8.664 1.545 3.189-2.251 6.071-4.99 8.878-7.701z"/><path d="m752.938 727.154c-1.064-8.076-5.253-14.422-12.451-18.863-.072-.045-.43-.188-.508-.215-.418-.155-.839-.309-1.279-.414-1.465-.354-2.944-.532-4.408-.532-7.616 0-13.926 4.762-19.729 9.643-3.293 2.766-6.414 4.979-9.777 6.344 2.912.605 5.828 1.199 8.785 1.564 7.33.901 14.238-1.099 21.531-1.006 6.383.084 12.644 1.823 18.229 4.844-.131-.455-.281-.914-.393-1.365z"/><path d="m663.516 291.685c4.959 4.379 8.041 10.119 11.369 15.742 3.728 6.301 7.461 12.596 11.225 18.877.445.746.932 1.504 1.406 2.254.082-2.979-.109-5.933-.31-8.945-.274-4.107-.559-8.355-.116-12.916 1.435-14.885-8.808-24.67-17.647-30.258-11.093-7.006-24.167-11.025-35.868-11.025-11.885 0-21.842 4.203-28.795 12.152-3.481 3.981-6.106 8.01-7.931 12.07 3.939-2.898 8.105-5.492 13.026-7.285 12.213-4.445 25.245-4.176 37.455.135 5.743 2.025 11.602 5.156 16.186 9.199z"/><path d="m524.795 626.395c3.524 1.861 6.866 4.012 10.032 6.379-.059-.521-.137-1.041-.137-1.578 0-1.42.051-2.791.104-4.106.278-7.119.518-13.271-7.966-17.779-3.743-1.988-8.039-3.451-12.901-4.361-1.705-.137-3.424-.205-5.148-.205-20.336 0-38.586 9.117-46.49 23.228-4.071 7.27-6.635 14.699-7.661 21.951 1.521-2.584 3.1-5.132 5.053-7.441 4.881-5.77 10.475-11.217 16.873-15.272 15.26-9.686 32.417-9.176 48.241-.816z"/><path d="m223.039 271.976c-1.009.644-.681 2.189.484 2.384.748.129 1.51.303 2.282.592.229.086.45.197.677.285 1.658-.348 3.324-.639 5.006-.789 12.312-1.104 24.552 2.521 35.707 7.455 10.552 4.664 21.242 9.885 30.703 16.535.498.35.951.75 1.439 1.11.206-3.338-.125-6.772-1.408-10.356-9.572-14.394-29.383-24.064-49.295-24.064-9.739 0-18.587 2.368-25.595 6.848z"/><path d="m596.469 163.445c-1.058.832-2.021 1.477-2.943 2.037 7.31 2.055 14.814 2.07 22.289 3.209 11.703 1.779 22.961 6.717 32.254 14.045.195.154.383.328.578.484-.482-5.5-2.729-11.081-6.397-15.847-3.778-4.91-4.974-5.121-11.21-7.925-3.023-1.365-6.154-2.775-9.527-3.428-2.152-.416-4.117-.619-6.013-.619-7.313.001-12.705 3.081-19.031 8.044z"/><path d="m254.865 534.552c5.546-3.222 11.148-5.402 16.835-6.535 3.358-1.252 7.299-1.898 12.053-1.898 4.432 0 9.113.496 13.643.976 4.568.481 8.887.938 13.023.938 2.731 0 5.087-.205 7.195-.623.528-.104.938-.521 1.032-1.049.092-.531-.146-1.063-.606-1.346-14.113-8.609-27.092-12.978-38.574-12.978-11.98 0-22.15 4.808-30.232 14.285-5.899 6.924-9.662 14.515-11.289 22.258.529-.725 1.073-1.42 1.654-2.045 4.497-4.836 9.559-8.67 15.266-11.983z"/><path d="m343.6 547.41c-.004-.004-.416-.547-.42-.551-2.865-3.861-6.271-7.346-8.982-10.004-3.635-3.158-7.764-6.078-13.303-6.078-1.463 0-3 .211-4.561.625-.482.125-1.007.281-1.552.445-1.518.451-3.233.963-5.029.963-.032 0-.063 0-.094 0-3.862-.348-7.665-1.348-11.342-2.316-.983-.262-2.006-.498-3.012-.75.943.322 1.881.584 2.832.965 13.016 5.271 29.985 9.957 40.362 19.291 5.188 4.666 8.167 9.666 9.388 19.664.096.115.186.246.28.365 2.849-6.863 1.33-14.438-4.567-22.619z"/><path d="m575.196 148.083c-5.355 0-9.628 1.854-13.058 5.666-2.943 3.271-4.601 7.158-5.008 11.295.32-.172.604-.35.938-.521 5.049-2.601 10.319-4.332 16.049-4.162 6.076.18 11.306 2.512 16.931 4.402 2.133-1.418 4.088-3.063 5.993-4.716 1.476-1.276 2.949-2.559 4.509-3.711.96-.7.554-2.182-.599-2.342-.97-.133-1.938-.293-2.897-.506-2.304-.508-4.767-1.291-7.371-2.119-5.093-1.616-10.358-3.286-15.487-3.286z"/><path d="m669.223 476.289c-.564-2.135-1.008-4.389-1.087-6.791-.032-1.001-1.329-1.802-2.238-.868-6.49 6.631-11.649 14.01-15.403 21.51 1.65-1.336 3.314-2.654 4.901-4.055 4.304-3.794 8.906-7.007 13.827-9.796z"/><path d="m686.964 452.921c-7.363 3.301-12.214 7.297-13.085 9.126-1.807 3.684-1.604 7.932-.885 12.256.631-.32 1.239-.668 1.881-.976 13.056-6.248 30.954-9.959 44.934-4.559 8.018 3.102 10.721 10.545 14.793 17.443 4.574 7.743 10.953 13.622 17.654 19.479 2.996 2.619 5.742 5.197 8.162 7.994.383-2.627.694-5.246.873-7.826-1.056-8.487-7.262-19-12.736-28.278-1.918-3.248-3.728-6.311-5.146-9.021-4.315-8.23-12.164-14.451-21.957-17.688-2.606-.647-5.271-1.127-7.948-1.446-.908-.109-1.832-.134-2.744-.207-.952-.013-1.867-.037-2.832-.037-9.997.001-13.857.551-20.964 3.74z"/></g><g fill="#d7bd8c"><path d="m440.368 176.373c.267.963.361 2 .295 3.111.243-1.086.119-2.127-.295-3.111z"/><path d="m851.056 515.669c-1.837-8.246 1.067-17.337 3.632-25.36.434-1.361 1.684-5.396 1.684-5.396 3.427-11.209 7.306-23.914-.544-35.629-1.201-1.797-9.31-12.607-11.031-16.357-3.525-7.672-4.853-14.642-5.533-21.818-.138-19.232-2.513-22.482-5.614-32.439-2.318-7.45-5.063-14.549-7.535-20.896-1.183-3.035-2.604-5.871-4.162-8.588-2.202-3.308-4.563-6.527-7.157-9.652-3.738-4.508-7.617-8.928-11.3-13.498-.592-.619-1.186-1.244-1.776-1.86-8.924-9.314-18.152-18.945-23.728-31.763-.635-1.459-1.256-2.938-1.873-4.43-.438-1.063-2.556-.727-2.509.542.623 18.27-4.711 33.721-11.639 52.844-.529-8.313 1.834-16.182 4.313-24.434 3.103-10.316 6.309-20.982 3.519-32.814-2.623-11.131-7.9-26.321-18.154-35.498-2.876-2.569-5.804-4.608-9.134-6.867-7.155-4.176-15.177-7.207-23.667-10.418l-2.231-.846c-12.695-4.809-21.605-13.545-31.041-22.795-8.318-8.152-16.918-16.584-28.306-22.008-.178-.084-.371-.127-.563-.127-.228 0-.451.061-.654.176-.371.215-.613.6-.646 1.029-.188 2.403-.531 7.109-3.992 11.246 5.002 2.438 9.821 5.262 14.373 8.651 6.147 4.58 11.555 10.088 17.563 14.845 6.367 5.036 13.164 8.799 20.672 11.877 14.168 5.809 27.968 10.896 40.416 20.104 5.271 3.896 15.363 14.307 16.854 32.81 1.828 22.682-5.59 54.25-5.379 60.565.604 17.99 6.123 10.205 8.932 1.797 2.541-7.612 5.5-21.682 7.93-28.865 4.865-14.383 7.438-7.825 11.67-.483 2.52 4.377 5.377 8.563 8.351 12.586 6.258 8.465 12.496 16.787 17.965 25.799 6.057 9.982 8.338 20.281 9.482 31.785 1.102 11.08 2.497 21.926 7.534 32.014 4.316 8.644 10.725 16.027 15.51 24.396 5.576 9.752 5.574 18.354 2.925 29.1-2.855 11.593-4.104 22.23-2.06 34.091 2.063 11.954 6.693 23.241 12.717 33.704-1.551-8.112-3.258-15.762-4.758-22.418z"/><path d="m269.201 261.015c.5.223.952.455 1.444.682 2.158-2.311 4.129-4.846 6.008-6.783 5.285-5.449 10.9-10.662 17.181-14.951 6.485-4.434 13.567-8.225 20.893-11.069 7.153-2.777 14.691-4.351 21.859-7.058 7.418-2.801 13.711-6.741 19.112-12.588 4.929-5.33 9.213-11.074 14.972-15.592 10.524-8.262 24.058-12.682 37.379-12.85 6.684-.086 17.848-9.105 31.451.721-3.826-6.857-9.783-10.246-18.183-10.246-6.762 0-14.25 2.189-20.856 4.121-2.187.641-4.313 1.262-6.334 1.785l-3.306.846c-5.879 1.5-11.957 3.047-17.889 5.197-11.195 5.295-20.254 11.531-30.287 20.85-7.156 6.644-13.676 11.615-22.23 14.291-21.04 6.578-31.264 16.025-42.77 31.15-2.432 3.194-5.221 6.158-8.783 9.326-.466.418-.439 1.822.339 2.168z"/><path d="m411.215 167.63c.063 0 4.86-.498 7.371-.498 4.596 0 8.674.554 12.063 1.535-1.117-.492-2.141-.879-2.942-1.147-1.701-.568-3.462-1.023-5.25-1.398 3.518-1.16 6.928-3.18 10.538-4.613 7.201-2.858 14.615-5.155 22.115-7.102 14.312-3.715 29.086-5.297 43.855-4.348 18.457 1.182 34.973 8.082 51.481 15.248.24-3.557 1.25-6.948 2.314-9.209.268-.569.191-1.433-.717-1.775-23.209-8.822-45.957-16.742-69.082-16.742-10.226 0-19.563 1.539-28.554 4.703-13.321 4.688-25.424 11.894-37.129 18.861-1.95 1.162-6.706 3.975-6.886 4.078-.539.313-.695.957-.488 1.545.189.528.75.862 1.311.862z"/><path d="m463.557 348.683c3.531 0 6.897.877 10.297 2.682 2.762 1.467 5.738 2.918 8.799 4.412 9.598 4.68 19.523 9.518 26.545 16.559.517.32.855.691 1.235 1.527l1.362-.119-1.179.566c2.841 6.242 4.285 13.194 4.181 20.108-.013.589.376 1.109.938 1.273.12.035.244.055.365.055.346 0 .652-.172.895-.416 4.847-10.66 3.313-20.743-3.162-30.165-3.309-4.815-11.876-10.792-16.667-13.667-10.077-6.044-18.362-10.617-30.667-10.65-7.721-.021-15.946 4.09-22.666 5.317-9.234 1.685-22.025 7.191-29.667 12.667-11.388 8.159-15.305 15.051-16.756 29.309-.698 6.854 1.929 13.953 6.408 20.031.728.375 1.451.76 2.176 1.131l2.245 1.176c.19.1.396.148.603.148.309 0 .613-.109.856-.322.404-.35.554-.914.373-1.418-3.694-10.471-4.543-22.963-2.11-31.097 3.246-10.852 15.012-15.002 25.395-18.666l3.118-1.108c3.044-1.109 5.999-2.474 8.854-3.789 6.188-2.851 12.029-5.544 18.229-5.544z"/><path d="m677.279 274.191c.521.393 1.068.83 1.787 1.395 14.424 8.545 20.459 17.58 18.994 28.433-.233 1.721-.512 3.422-.789 5.112-1.146 7.009-2.334 14.253.119 21.742l.93 2.799c1.674 5.027 3.256 9.775 4.229 14.867.756 3.959.588 7.664-.492 11.095 7.217-9.47 2.168-29.175 4.961-41.242 3.971-17.157-2.755-29.899-14.185-41.225-8.236-8.162-18.963-16.352-29.666-21.333-22.203-10.336-68.427-.125-88.392 22.404 5.91-4.746 14.484-6.885 22.457-8.799 3.146-.756 6.195-1.488 8.967-2.346l3.511-1.15c7.641-4.443 16.271-6.697 25.647-6.697 14.37-.002 29.258 5.304 41.922 14.945z"/><path d="m294.248 355.289c13.187-14.528 21.946-36.987 23.614-56.422.789-9.203.226-16.307-3.418-24.744-2.828-6.547-9.008-9.619-14.852-13.026 1.005 1.846 2.046 3.674 3.09 5.473 5.074 8.758 9.869 17.033 8.801 26.717-1.088 9.846-4.117 18.924-7.668 28.924-.846 2.377-1.578 4.879-2.317 7.406-1.521 5.193-3.09 10.562-5.75 14.992-3.069 5.117-7.675 9.439-12.097 12.308-6.141 3.982-13.735 6.655-23.075 8.14-3.451.547-6.734.918-9.919 1.278-9.161 1.035-17.813 2.015-27.306 6.925-3.995 2.065-6.89 2.977-9.743 3.127 18.671 14.517 68.956-8.225 80.64-21.098z"/><path d="m689.096 687.355c-12.914 2.822-31.045 17.141-42.412 33.715-1.023 5.404-2.004 10.967-1.727 16.639.083 1.777 2.186 1.917 2.575.23 1.969-4.375 5.411-25.62 27.317-36.108 6.623-3.17 12.582-4.582 19.324-4.582 3.332 0 6.662.32 10.186.662 4.158.4 8.455.813 13.515.813.68 0 3.141-.049 3.141-.049 2.311-.056 4.551-.107 6.711-.107 9.645 0 16.684 1.238 22.164 6.359-.875-3.486-2.351-6.599-4.558-8.836-13.48-13.663-38.566-12.597-56.236-8.736z"/><path d="m279.713 497.422c-26.089-.265-49.764 12.668-55.912 38.98-2.98 12.75.781 26.31 8.471 36.998.113-.27.15-.568.064-.865-4.697-16.235-2.738-38.264 12.219-50.879 11.99-10.11 25.955-15.026 42.691-15.026 3.489 0 7.18.215 10.967.643 12.248 1.379 22.432 9.729 32.278 17.803 2.138 1.752 4.24 3.478 6.323 5.095.216.166.403.35.688.684 10.534 10.326 21.016 22.596 18.862 35.299-.216 1.275-.565 2.588-1.102 4.133-.209.603.045 1.263.6 1.57.199.109.416.164.633.164.386 0 .763-.17 1.017-.488.608-.758 1.143-1.567 1.688-2.375 4.681-10.561 1.621-25.014-4.727-36.787-14.014-26-47.632-34.674-74.76-34.949z"/><path d="m729.516 433.392c-29.658-10.066-66.219 4.832-84.854 28.066-17.09 21.309-25.611 69.693-3.315 90.916 5.66 5.39 14.481 10.5 24.615 14.396.036 0 .073-.002.11-.002 2.619 0 5.246.07 7.896.264.031.002.063.004.094.004 1.112 0 2.134-1.884.468-2.524-25.946-9.98-38.016-26.927-36.895-51.804 1.402-31.063 32.766-70.471 66.014-70.471 1.137 0 2.271.047 3.407.146 13.503 1.133 32.248 4.159 39.134 17.289 2.084 3.977 4.516 8.065 6.867 12.022 4.252 7.158 8.647 14.56 11.59 22.142.481 1.253 2.416.978 2.517-.373.283-3.711.478-7.802.386-12.019-4.788-21.093-19.672-41.821-38.034-48.052z"/><path d="m583.618 657.344c-4.11-32.019-36.965-69.674-68.219-70.595-30.496-.897-69.324 13.048-74.539 47.353.231 2.234.367 4.506.479 6.83.135 2.815.274 5.729.643 8.625.512 4.004 1.496 8.119 2.932 12.229.187.531.687.877 1.231.877.09 0 .181-.012.272-.028.643-.14 1.084-.732 1.028-1.39-1.561-18.563 4.761-35.834 16.908-46.2 12.42-10.601 29.787-16.929 46.464-16.929 10.712 0 25.975 2.603 37.841 15.002l.375.382c12.552 12.803 26.775 27.311 25.636 46.043-.381 6.233-1.113 12.146-2.18 17.569-.285 1.451 1.642 2.161 2.398.933 4.006-6.588 6.42-11.642 7.815-16.388.439-1.482.714-2.911.916-4.313z"/><path d="m704.094 609.537c-14.187 3.066-29.457 8.785-42.224 15.74-.363.199-.217.838.22.805 14.76-1.17 31.842-4.561 42.774-15.223.595-.578-.02-1.484-.77-1.322z"/><path d="m705.84 619.533c4.629.504 9.139-3.487 10.674-7.508.188-.498-.395-1.063-.887-.885-1.978.719-3.52 1.586-5.205 2.84-1.728 1.283-3.791 2.51-5.144 4.203-.447.561-.158 1.272.562 1.35z"/><path d="m394.979 635.623c.364-.43.466-1.106 0-1.522-3.418-3.072-6.849-2.779-11.189-3.373-3.879-.531-9.006-2.402-12.811-1.232-.38.117-.71.562-.552.974 1.535 3.961 6.395 5.785 10.055 7.322 4.734 1.979 11.082 1.877 14.497-2.169z"/><path d="m379.174 438.666c.099-.481-.054-1.016-.515-1.26-3.676-1.975-6.424-1.662-10.403-.469-3.5 1.049-7.371 1.947-10.642 3.602-.563.283-.721 1.228-.211 1.64 5.829 4.709 19.906 5.606 21.771-3.513z"/><path d="m550.016 351.636c.176 2.282.445 4.559.77 6.832.306 2.157.031 4.637 1.877 6.163.73.603 1.673.675 2.396 0 1.967-1.84 1.234-4.506.859-6.858-.414-2.596-1.357-5.367-3.261-7.23-.905-.887-2.75-.303-2.641 1.093z"/><path d="m579.188 419.75c.9-1.827-.631-4.913-3.011-3.916-2.848 1.195-4.856 3.521-7.479 5.136-2.399 1.475-4.901 2.645-7.373 3.979-.223.121-.306.508-.088.679 5.394 4.18 15.217-.314 17.951-5.878z"/><path d="m585.666 419.668c-1.576.2-2.582.944-3.423 2.344-.67 1.113-1.096 2.721-1.868 3.721-.232.297-.14.916.354.859 3.072-.351 7.157-1.791 6.551-5.693-.102-.661-.946-1.313-1.614-1.231z"/><path d="m226.898 463.486c-2.5 5.994-2.313 13.723.155 19.726 1.597 3.879 7.368 2.522 6.413-1.771-1.34-6.014-2.656-12.496-5.123-18.145-.309-.712-1.22-.351-1.445.19z"/><path d="m239.075 472.043c-2.622 2.868-2.807 9.202 2.048 9.698.594.062 1.211-.373 1.498-.858 1.59-2.668.14-6.711-1.814-8.84-.436-.475-1.295-.479-1.732 0z"/><path d="m402.659 728.334c-3.664-.221-6.317 1.73-9.461 3.345-3 1.539-7.11 2.192-9.367 4.858-.251.297-.202.683.117.904 3.302 2.297 7.992.521 11.336-.814 3.629-1.45 7.101-3.143 8.277-7.108.182-.613-.309-1.15-.902-1.185z"/><path d="m410.031 729.686c-1.23.379-2.207 1.016-3.168 1.867-.953.846-.94 1.897-1.63 2.799-.268.348.095.881.497.865.586-.025.982.309 1.547.309s1.176-.197 1.726-.303c1.176-.226 2.307-1.068 3.187-1.832 1.689-1.472-.094-4.341-2.159-3.705z"/><path d="m523.543 249.875c-.021-.287-.039-.573-.115-.852-.407-1.506-1.648-2.156-3.08-2.344-3.398-.449-7.271 1.774-9.814 3.868-3.11 2.562-4.521 5.023-5.718 8.793-.185.582.535 1.166 1.061.812 2.319-1.576 5.122-2.857 7.629-4.146 2.693-1.383 5.938-1.731 8.457-3.375.903-.59 1.655-1.616 1.58-2.756z"/><path d="m527.492 259.679c2.249-1.293 1.262-4.836-1.312-4.839-1.937 0-4.666.615-6.037 2.123-.656.72-2.32 2.048-1.402 3.152 1.841 2.224 6.75.717 8.751-.436z"/><path d="m380.057 224.4c-2.793 1.318-3.615 4.824-4.299 7.549-.769 3.053-1.109 7.316.297 10.17 1.051 2.133 4.565 2.117 5.624 0 1.421-2.854.808-6.147.866-9.25.049-2.574-.201-5.967-1.554-8.221-.204-.342-.595-.406-.934-.248z"/><path d="m368.004 243.906c3.543-2.49 1.924-7.234.811-10.664-.164-.498-.813-.723-1.203-.315-2.256 2.354-5.02 6.938-2.936 10.106.681 1.035 2.202 1.664 3.328.873z"/><path d="m573.288 567.162c-.897-1.336-3.028-1.213-3.489.457-.863 3.125.039 6.47 1.191 9.412.983 2.51 3.426 7.621 6.917 6.662 3.955-1.09 1.212-4.914-.211-6.83-2.171-2.924-2.401-6.724-4.408-9.701z"/><path d="m582.795 572.589c-.277.049-.582.354-.632.631-.271 1.646-.485 2.567.5 4.102.968 1.506 2.625 2.371 4.398 2.248 1.193-.082 1.999-.889 2.082-2.082.124-1.772-.744-3.432-2.246-4.397-1.534-.989-2.456-.775-4.102-.502z"/><path d="m584.264 760.094c-2.941 1.858-5.185 4.893-8.339 6.44-.247.123-.271.57 0 .685 1.882.799 3.401 1.338 5.495 1.52 2.235.189 5-.586 6.813-1.854 4.089-2.867.372-9.535-3.969-6.791z"/><path d="m595.133 768.563c-1.866.574-6.254 2.137-5.377 4.912.957 3.022 4.899 2.418 7.146 1.502 3.858-1.571 2.436-7.709-1.769-6.414z"/><path d="m476.709 471.519c-.568-.336-1.189.213-1.06.813.537 2.451 1.203 4.724 2.118 7.064.925 2.369 1.698 5.02 3.847 6.516 1.509 1.052 3.859-.336 3.738-2.143-.18-2.615-2.053-4.865-3.468-6.996-1.423-2.14-2.952-3.933-5.175-5.254z"/><path d="m489.393 475.605c-1.68.043-2.502 2.037-1.35 3.256 1.77 1.869 4.171 2.191 6.629 2.262 3.66.103 3.668-5.696 0-5.684-1.768.008-3.516.121-5.279.166z"/><path d="m718.844 387.8c-2.717.105-4.742 1.835-6.899 3.328-2.496 1.728-4.55 3.854-6.64 6.025-.563.588.02 1.375.733 1.265 2.769-.431 5.011-1.365 7.503-2.626 2.407-1.223 5.373-2.928 6.913-5.182.792-1.161-.256-2.862-1.61-2.81z"/><path d="m721.622 401.207c1.027.146 1.99.789 3.054.951 1.451.222 2.895.271 4.309-.16 2.723-.823 2.769-4.743 0-5.547-3.32-.965-6.193.289-8.115 2.904-.446.608-.013 1.744.752 1.852z"/><path d="m279.326 680.012c-1.433.725-2.525 1.072-3.746 2.283-1.382 1.364-2.41 2.946-2.939 4.821-.877 3.119 3.881 5.283 5.328 2.246.705-1.485 1.369-2.99 2.105-4.461.721-1.434.659-2.488.821-3.988.091-.845-.937-1.22-1.569-.901z"/><path d="m280.367 671.27c-.853.479-2.246.256-3.226.615-1.281.473-1.963 1.354-2.341 2.621-.31 1.045.585 2.508 1.79 2.346 1.332-.176 2.267-.523 3.096-1.658.745-1.02.734-2.252 1.367-3.236.285-.437-.26-.929-.686-.688z"/><path d="m445.446 565.091c-.575-3.959-1.154-8.359-3.111-11.896-.217-.391-.847-.406-1.058 0-2.065 3.951-1.354 8.961-.373 13.148.712 3.026 4.966 1.664 4.542-1.252z"/><path d="m450.854 556.75c-.201.05-.377.226-.426.427-.658 2.621 2.096 5.112 3.84 6.785 2.219 2.127 5.496-1.148 3.369-3.369-1.672-1.745-4.162-4.497-6.783-3.843z"/><path d="m366.469 431.519c2.526-.732 4.047-2.275 5.604-4.314 1.57-2.053 1.336-4.246-.014-6.229-.334-.492-.85-.596-1.378-.361-1.577.699-2.764 1.093-3.757 2.697-.983 1.592-2.15 3.076-3.222 4.615-1.253 1.801.81 4.159 2.767 3.592z"/><path d="m438.671 301.976c.796 2.276 1.898 3.771 3.421 5.688 1.6 2.021 3.188 4.494 5.69 5.363 1.281.445 2.493-.705 2.541-1.934.104-2.777-2.168-4.759-4.098-6.476-1.986-1.764-4.043-2.883-6.494-3.705-.602-.202-1.274.455-1.06 1.064z"/><path d="m472.983 181.876c.315 1.947.561 3.881 1.325 5.711 1.303 3.119 6.459 1.752 5.135-1.416-.634-1.513-.779-4.145-3.632-8.089-1.583-2.191-3.439-3.124-3.075.604.104 1.062.078 2.14.247 3.19z"/><path d="m484.527 176.533c-.701-.365-1.465.096-1.516.871-.181 2.83 1.944 6.58 5.223 5.896.789-.163 1.459-1.043 1.406-1.85-.171-2.753-2.998-3.812-5.113-4.917z"/></g><g fill="#895725"><path d="m624.83 831.459c-7.529-2.649-14.066-6.262-19.519-10.692-5.094 17.742-44.018 33.207-77.479 23.733-11.301-3.199-32 0-28.623-22.332-9.146 2.396-17.355 6.691-25.851 11.201-2.668 1.416-5.358 2.847-8.11 4.228-.511.256-.795.813-.703 1.375.09.559.53 1 1.094 1.084 8.258 1.235 16.361 3.463 24.779 6.801l1.903.756c17.609 6.996 35.818 14.228 55.476 14.228 2.01 0 4.032-.074 6.082-.229 1.461-.109 3.063-.215 4.768-.326 12.713-.819 30.123-1.946 39.529-8.76 2.705-1.961 5.326-4.443 7.858-6.846 3.406-3.229 6.931-6.568 10.705-8.691 2.384-1.338 4.985-2.326 7.955-3.022.564-.134.976-.621 1.006-1.201.032-.582-.323-1.114-.87-1.307z"/><path d="m206.724 691.344c-4.34-9.957-8.48-20.617-7.339-31.81l.32-3.053c.854-7.926 1.485-14.338-.935-21.115-5.268 18.754-12.223 7.152-17.356-.571-11.152-16.779-18.103-62.244-18.699-82.337-.295-9.848 5.669-19.713 3.171-29.245-14.405-54.979 11.188-59.382 8.441-66.42-3.96-10.144-5.567-21.564-4.78-33.947.04-.627-.371-1.193-.98-1.351-.104-.026-.217-.039-.321-.039-.498 0-.966.287-1.183.755-1.42 3.047-2.697 5.549-4.021 7.868-24.451 42.816-28.306 88.722-11.771 140.336 2.488 7.773 5.287 15.548 7.992 23.066 4.459 12.396 9.07 25.211 12.371 38.236 6.236 24.604 13.133 42.041 29.938 58.379 1.175 1.139 2.259 2.281 3.31 3.43.21.228.467.322.736.322.278 0 .575-.104.848-.271.533-.332.684-1.174.454-1.76z"/><path d="m176.164 453.859c1.307 4.531 2.657 9.217 2.657 13.838 0 3.181-.311 6.289-.815 9.344 17.225-21.036 7.947-41.514 7.967-53.36.041-23.738 3.178-47.375 9.752-70.201 1.887-6.545 3.985-13.031 6.293-19.439-.771-2.182-1.481-4.396-2.096-6.649-.365-1.321-1.934-1.127-2.402-.289-7.934 14.326-12.004 29.977-15.217 43.625-.967 6.377-2.244 12.854-3.479 19.121-2.596 13.176-5.279 26.799-5.324 40.52-.023 7.283.239 15.025 2.317 22.291z"/><path d="m496.116 820.152c-23.42-14.162-48.173 10.687-80.366-5.893-9.054-4.662-18.155-9.086-26.715-14.388-8.341-5.168-16.917-9.418-26.631-11.211-10.081-1.858-20.953-2.086-29.82-7.811-8.457-5.461-14.236-14.164-22.996-19.303-16.793-9.854-38.281-6.988-54.244-18.451-13.08-9.394-18.908-25.271-23.26-40.129-4.645-15.851-9.57-31.504-15.258-47.119-5.478-15.039-16.4-21.267-16.864-21.049 1.525 3.061 2.096 6.448 2.226 9.379.117 2.563.187 5.067.25 7.524.312 11.521.605 22.402 5.838 33.994 3.226 7.146 5.522 14.664 7.744 21.935.568 1.858 1.135 3.721 1.773 5.721 1.608 3.592 3.059 7.373 4.428 11.557.484 1.472 1.01 2.849 1.596 4.318 1.599 3.148 3.453 6.258 5.246 9.262 1.14 1.91 2.277 3.816 3.48 5.925 10.575 13 25.877 18.37 43.598 24.588l.98.346c13.545 4.756 24.932 11.027 35.833 19.738 12.295 9.825 24.877 14.108 38.197 18.647 6.15 2.097 12.51 4.26 18.959 7.039 7.107 3.066 13.428 6.678 19.539 10.17 13.144 7.51 25.556 14.604 43.021 14.604 1.734 0 3.522-.068 5.421-.222 3.933-.475 7.48-1.286 10.845-2.479l6.508-2.283c7.198-2.514 14.641-5.111 21.848-8.102 6.331-2.627 12.576-5.038 18.824-6.307z"/><path d="m859.952 589.35c-4.12 23.816-12.083 23.859-20.786 32.482-8.234 8.157-21.632 9.896-28.015 19.624-5.994 9.142-4.363 21.324-9.319 31.043-4.434 8.693-6.406 19.576-11.333 28-6.453 11.031-16.667 26.667-29.89 27.57.887 3.533 1.814 7.146 3.103 10.474l.764 1.965c1.262 3.229 2.453 6.274 3.396 9.401.107.353.359.646.695.806.174.08.365.123.555.123.175 0 .347-.035.509-.104 11.604-4.904 14.069-11.295 16.928-18.695 1.067-2.768 2.176-5.631 3.846-8.711 1.176-2.166 3.145-3.817 5.229-5.567 1.571-1.322 3.198-2.689 4.479-4.314 3.252-4.127 6.383-12.045 9.146-19.031.85-2.153 1.653-4.188 2.396-5.94 1.916-4.521 3.467-9.435 4.967-14.188 2.445-7.752 4.974-15.766 9.17-22.42 3.523-5.586 7.988-9.315 12.714-13.27 3.307-2.765 6.725-5.621 9.827-9.187 9.173-10.532 12.611-25.43 13.055-41.467-.482.468-.958.94-1.436 1.406z"/><path d="m690.284 809.066c-5.412-1.732-10.563-4.244-15.336-7.408-6.121 2.664-12.426 4.967-18.938 6.814-15.388 4.363-31.08 6.858-46.375 11.063 1.01.642 2.02 1.295 3.024 1.881 10.684 6.252 21.125 9.423 31.037 9.423 3.295 0 6.562-.359 9.705-1.066l1.57-.424c1.005-.404 2.006-.853 3.008-1.379 3.582-1.884 7.412-3.479 11.467-5.17 7.463-3.107 15.181-6.322 21.281-11.492.361-.306.531-.785.436-1.25-.09-.465-.427-.846-.879-.992z"/><path d="m575.864 539.369c.932-.268 2.175.047 3.178-.151 1.481-.295 2.93-.543 4.377-.998 3.188-1.004 5.174-1.773 6.944-4.586.267-.422.103-1.041-.334-1.279-3.17-1.725-5.631-1.006-8.838.582-1.543.762-2.832 1.799-4.074 2.971-.875.826-1.004 1.857-1.707 2.681-.294.338-.023.916.454.78z"/><path d="m625.791 608.884c5.596-1.466 4.366-9.959-1.351-9.979-4.58-.014-8.955 1.438-12.803 3.881-1.31.83-1.318 2.685 0 3.515 4.281 2.689 9.19 3.877 14.154 2.583z"/><path d="m359.825 693.682c.16-.519.16-.375.004.426-.036.447-.004.894.103 1.332.248.906.832 1.84 1.277 2.662 1.061 1.969 2.797 3.846 4.539 5.229 4.292 3.416 9.401-1.694 5.985-5.983-1.293-1.627-2.916-2.965-4.623-4.127-.801-.547-1.646-.938-2.51-1.371-.496-.289-1.031-.433-1.605-.437-.286.011-1.639-.209-.911.011-1.326-.399-2.656.931-2.259 2.258z"/><path d="m402.447 466.367c-1.832 2.408-2.649 5.131-2.426 8.076.031.416.305.688.719.721 2.742.211 5.379-.407 7.771-1.916 3.059-1.93 7.871-6.307 4.155-10.021-3.488-3.489-7.986.204-10.219 3.14z"/><path d="m295.318 456.791c-.411.744.578 1.548 1.188.918.839-.87 3.358-.821 4.537-1.383 2.145-1.022 3.551-2.799 4.807-4.768 2.766-4.332 1.531-7.668.406-11.951-.166-.635-1.06-1.109-1.637-.666-1.32 1.008-2.88 1.512-4.224 2.508-1.717 1.271-2.811 2.842-3.674 4.775-.779 1.74-1.838 3.668-1.813 5.643.015 1.133.918 4.004.41 4.924z"/><path d="m391.631 324.789c1.487 1.154 3.428 1.746 5.194 2.354 2.177.748 4.214.91 6.474.504 1.051-.188 1.971-1.064 2.51-1.93-.946 1.514.789-.882.922-1.298.328-1.022-.018-2.178-.775-2.936-1.883-1.879 1.627 1.574-.803-.853-.981-.981-2.465-1.36-3.815-1.422-2.018-.09-4.01.371-6.021.498-.789.049-1.561.035-2.35.123-.529.062-1.969.758-2.365.688-.855-.148-1.32.723-.806 1.383.776 1.002.652 1.971 1.835 2.889z"/><path d="m552.629 254.05c2.93-.729 5.559-2.495 7.221-4.096 1.063-1.024 1.484-2.521 1.314-3.959-.105-1.713-1.076-3.041-2.634-3.678-1.396-.611-3.159-.789-4.468.137-2.689 1.908-4.579 4.396-5.448 7.58-.669 2.446 1.615 4.612 4.015 4.016z"/><path d="m561.075 245.308c.06.227.064.457.088.688.003.025.015.049.017.076-.034-.254-.067-.51-.105-.764z"/><path d="m558.2 242.156c.121.041.216.115.33.162.115.049.243.082.354.137-.23-.098-.456-.198-.684-.299z"/><path d="m652.424 390.861c-.442 1.611.125 3.293.772 4.748 1.325 2.959 3.603 5.178 6.371 6.797 6.303 3.683 12.076-6.264 5.695-9.746-1.961-1.072-3.885-2.199-5.855-3.258-1.069-.574-2.287-1.162-3.541-1.162-.131.018-.192.025-.297.037-.102-.016-.2-.025-.297-.029-.711-.449-1.39-.791-1.961-1.559-.316-.43-1.104-.197-.92.389.291.928.307 1.83.385 2.746-.035.09-.104.162-.131.258-.629 2.293.571-2.096-.221.779z"/><path d="m300.826 643.139c-1.604 2.311-3.036 4.412-4.011 7.055-.349.947.541 1.896 1.457 1.912 2.929.051 5.396-1.16 7.873-2.639 1.418-.849 2.723-1.759 3.829-2.996 1.448-1.621 1.431-3.299 1.403-5.271-.021-1.412-1.152-2.532-2.563-2.559-1.495-.027-2.96-.16-4.369.666-1.521.894-2.634 2.412-3.619 3.832z"/><path d="m199.727 583.984c-1.251-1.146-2.783-2.184-4.305-2.932-1.181-.582-2.73-.729-3.82-1.371-.692-.408-1.475.396-1.084 1.084.611 1.072.692 2.772 1.138 3.967.618 1.652 1.573 3.271 2.698 4.625 1.215 1.459 2.563 2.896 4.488 3.271 1.311.256 2.563.248 3.873.399.703.084 1.367-.805 1.109-1.457-.111-.285-.438-.823-.394-1.166.109-.852-.277-1.301-.436-1.934-.478-1.909-1.853-3.191-3.267-4.486z"/><path d="m521.131 760.109c-.138-4.26-1.802-8.77-4.142-12.307-.551-.832-1.686-.834-2.235 0-2.519 3.813-4.097 9.039-2.74 13.541 1.483 4.925 9.289 4.128 9.117-1.234z"/><path d="m591.425 732.113c3.2 4.469 10.271 5.055 14.73 2.277 4.773-2.971 1.717-10.82-3.875-9.188-3.326.97-7.188 2.67-10.196 4.398-.807.466-1.236 1.705-.659 2.513z"/><path d="m728.223 640.878c-.236-.279-.783-.289-1.018 0-3.74 4.575-3.681 12.223-2.261 17.646 1.52 5.785 10.472 3.33 8.953-2.467-1.342-5.123-2.133-11.002-5.674-15.179z"/><path d="m769.811 579.441c2.207.592 4.346.643 6.437-.324 2.544-1.176 2.544-5.539 0-6.715-2.222-1.025-4.111-.748-6.437-.324-2.068.379-3.391 1.599-4.917 2.867-.452.375-.452 1.252 0 1.629 1.589 1.322 2.844 2.31 4.917 2.867z"/><path d="m523.2 462.58c4.932 1.781 8.404-6.393 3.582-8.498-1.709-.745-3.655-1.045-5.305-1.896-1.051-.541-2.148-1.309-3.312-1.658-.043-.043-.086-.086-.129-.129-.928-.922-2.383-.207-2.455 1.021-.049.854-.306 1.446-.194 2.373.137 1.145.53 2.348 1.172 3.313 1.666 2.495 3.795 4.446 6.641 5.474z"/><path d="m345.934 490.371c-.844 2.404 1.455 4.414 3.109 5.836 2.313 1.988 4.659 4.609 7.946 4.394 2.541-.166 5.177-2.65 4.129-5.418-1.45-3.83-4.599-4.635-8.271-5.514-1.636-.394-6.079-1.673-6.913.702z"/><path d="m503.844 303.994c2.528-2.844.688-6.729-2.935-7.08-2.27-.221-4.856 1.209-6.832 2.14-2.065.967-3.981 2.518-5.678 4.004-.522.459-.578 1.537 0 1.983 3.855 2.988 12.047 2.773 15.445-1.047z"/><path d="m354.652 263.154c5.502-3.482.729-11.271-5.029-8.598-2.051.953-3.861 2.146-5.784 3.332-2.002 1.233-4.414 2.264-6.185 3.797-.487.422-.533 1.42 0 1.832 4.425 3.438 12.546 2.453 16.998-.363z"/><path d="m595.313 238.603c.758-.021 1.287-.592 1.332-1.33.146-2.451-.373-3.758-1.91-5.707-1.197-1.521-3.016-2.361-4.522-3.471-.809-.597-1.964.209-1.949 1.116.065 4.509 1.742 9.537 7.049 9.392z"/><path d="m739.043 355.49c-2.238-1.723-5.191-.438-7.191 1.037-1.074.795-1.979 1.52-2.695 2.66-.639 1.018-.729 1.979-1.222 3.035-.354.758.238 1.963 1.219 1.584.79-.306 1.729-.052 2.567-.15.992-.117 1.988-.182 2.991-.346 2.579-.42 5.159-1.154 5.882-4.006.412-1.615-.313-2.857-1.551-3.814z"/><path d="m672.089 238.953c.623-3.899-.402-9.742-5.396-9.381-.387.027-.622.23-.763.582-1.053 2.641-.607 6.043-.04 8.799.62 3.007 5.698 3.15 6.199 0z"/><path d="m465.357 216.126c1.959 1.375 3.813 2.666 6.146 3.345 1.259.364 2.75-.015 3.657-.968.737-.772 1.132-1.569 1.103-2.657-.035-1.279-.683-2.64-1.863-3.248-1.905-.982-3.848-1.511-5.939-1.908-.989-.188-1.938-.387-2.946-.357-.954.027-1.72.273-2.601.39-1.012.131-1.68 1.252-.865 2.088 1.101 1.13 1.933 2.351 3.308 3.315z"/><path d="m398.407 577.371c-1.354 2.146-2.035 4.289-1.646 6.89.482 3.231 2.491 5.524 5.804 5.659.756.031 1.574-.44 1.932-1.106 2.419-4.51-1.314-7.979-3.729-11.441-.587-.848-1.784-.914-2.361-.002z"/><path d="m220.793 421.404c1.715-.242 3.309-.567 4.963-1.082 3.033-.938 6.555-2.145 8.438-4.852 1.377-1.979-.489-4.445-2.6-4.531-2.955-.121-5.965 1.93-8.328 3.482-1.428.938-2.75 1.92-4.075 3.002-.941.768-1.024 1.899-1.841 2.578-.332.272-.045.791.33.797 1.131.024 1.839.786 3.113.606z"/><path d="m450.688 725.875c2.508-.676 5.422-.817 8.004-1.026 5.498-.445 5.65-8.566 0-8.656-4.934-.08-8.548 3.172-10.041 7.646-.408 1.22.87 2.352 2.037 2.036z"/><path d="m542.661 784.23c2.57.436 3.604-1.953 3.724-4.195.088-1.629-.257-3.278-.156-4.934.121-1.979.747-3.947.549-5.922-.146-1.461-1.738-2.828-3.192-1.832-2.926 2-3.791 5.391-4.188 8.74-.325 2.757-.23 7.548 3.263 8.143z"/></g></g></g></g><g fill="#68182b"><path d="m865.598 543.604c-.31-5.621-1.711-10.57-3.193-15.947-3.893-14.129-3.092-25.711 1.176-39.295 3.574-11.369 7.841-25.778 2.024-37.26-3.021-5.969-6.526-11.144-10.419-16.58-7.957-11.121-8.182-24.34-8.936-37.369-.816-14.139-7.975-28.092-12.472-41.355-3.903-11.51-9.768-20.784-18.635-29.038-14.826-13.804-24.666-25.296-32.859-44.136-9.879-22.715-20.965-43.785-44.858-53.86-5.988-2.525-12.633-3.986-18.828-5.931-12.816-4.021-20.289-13.651-28.373-23.563-8.833-10.826-21.676-17.695-34.416-22.801-4.823-18.533-26.33-29.74-46.127-30.097-14.197-.256-29.5-10.76-43.289-4.444-3.539 1.62-6.622 3.582-9.184 5.95-28.625-10.871-56.521-20.168-87.587-16.998-28.407 2.898-51.861 20.783-75.971 34.275-12.102 6.773-25.861 9.154-37.719 16.127-14.387 8.461-21.207 22.939-37.578 29.453-8.729 3.473-18.832 4.551-26.397 10.631-12.752 10.248-19.957 25.18-32.797 35.391-11.56-1.522-25.671 1.451-34.723 5.824-22.286 10.763-30.163 30.523-28.263 51.672-12.244 17.261-17.599 34.097-21.176 54.822-4.369 25.307-12.615 46.56-25.539 68.724-22.445 38.5-19.142 84.538-8.317 126.145 6.19 23.797 16.753 46.07 22.874 69.9 4.09 15.928 7.939 36.442 19.297 49.201 5.363 6.024 11.332 11.346 17.111 16.963 10.828 10.528 13.426 26.037 18.654 39.578 5.204 13.479 18.729 23.61 31.706 28.872 22.189 8.996 42.033 14.582 61.222 29.916 14.371 11.486 29.964 15.978 47.442 21.06 22.256 6.469 37.857 23.986 61.097 27.975.896.154 1.813.236 2.725.334 6.775 2.115 14.6 1.232 21.955-.772 3.215-.316 6.395-.611 9.475-.736 13.563-.541 28.004 6.012 40.34 10.904 19.767 7.842 37.359 12.74 58.738 12.381 16.791-.281 41-2.637 54.014-14.297 9.562-8.564 18.709-15.367 32.648-14.041 6.664.635 11.717-1.166 17.508-4.168 13.732-7.115 31.619-11.748 41.982-23.687 33.985 7.986 62.342-19.94 70.91-50.225.075-.269.022-.49.056-.744.021-.17.104-.297.108-.479.004-.239-.02-.473-.02-.711-.003-.02 0-.043-.003-.063-.002-.807-.004-1.617-.063-2.404 8.643-3.479 14.311-7.246 19.616-15.01 1.568-2.295 2.806-6.205 3.761-8.801 3.205-8.695 9.924-13.996 15.505-21.078 6.978-8.855 9.855-23.5 13.646-34.045 4.277-11.902 7.359-23.324 16.099-33.017 5.506-6.104 12.78-9.932 18.26-16.223 17.849-20.486 9.107-62.918 7.793-86.923zm-267.825-388.839c.996.219 1.998.387 3.004.522-5.893 4.342-10.596 10.51-18.442 11.666-.229.033-.267.4-.066.494 5.822 2.734 10.154.832 15.006-2.977 7.842-6.152 13.904-9.119 23.991-7.17 3.085.598 5.97 1.865 8.852 3.162 5.544 2.495 7.161 3.021 10.117 6.492 5.64 6.623 8.583 15.437 6.616 23.604-10.213 19.78-30.619 5.75-46.424 6.483-8.863.41-14.312 3.115-23.536-1.737-7.861-4.14-13.786-12.261-17-20.324-2.858-7.174-1.954-14.607 3.22-20.359 9.507-10.575 23.817-2.248 34.662.144zm-300.929 135.152c3.477 9.824-.686 18.748-3.609 28.22-3.578 11.6-.024 21.694-12.106 30.729-5.904 4.416-15.855 5.088-22.885 6.508-18.621 3.761-33.353 5.549-44.228-13.076-5.625-9.639-8.956-21.073-9.027-32.17 1.067-7.139 2.077-15.338 4.685-21.373.746-1.504 1.578-2.967 2.518-4.373 3.348-4.28 8.455-5.936 16.683-2.334 6.739 2.949 16.635 4.705 21.886 9.642 5.729 5.385 4.046 14.881 6.021 21.85.107.375.656.377.765 0 2.274-8.121 1.615-17.633-2.795-24.928-1.826-3.021-6.197-5.566-9.449-6.557-6.725-2.048-12.493-5.884-19.035-8.324-.854-.32-1.689-.515-2.518-.654 21.716-13.89 58.63-4.906 73.094 16.84zm403.383 514.067c-36.963-5.59-53.473-48.838-39.621-80.031 10.184-22.934 39.771-19.217 59.256-17.352-8.24 5.844-14.481 15.465-24.127 18.725-.311.104-.252.547.076.564 7.908.461 13.699-3.17 19.59-8.119 6.57-5.523 13.872-11.045 22.992-8.842.488.117.945.303 1.408.473 6.852 4.228 10.822 10.188 11.842 17.924 2.807 11.254 10.123 22.107 10.119 33.943-8.233 28.225-30.658 47.387-61.535 42.715zm147.119-175.431c-7.353 8.438-16.47 12.807-22.66 22.614-6.898 10.938-9.238 25.011-14.234 36.796-3.09 7.284-7.233 19.432-11.366 24.676-2.826 3.588-7.584 5.934-9.828 10.065-6.265 11.535-4.867 20.375-20.136 26.826-1.153-3.82-2.688-7.567-4.192-11.461-3.174-8.213-4.14-18.072-8.113-25.861-8.086-15.848-20.731-15.186-36.897-14.813-18.488.428-27.902-5.227-45.632 3.258-15.315 7.334-22.497 17.629-27.291 33.785-.316 1.072-.485 2.137-.732 3.205-.616-12.545 5.073-24.508 3.551-36.986-.081-.649-1.067-.916-1.237-.166-3.495 15.484-9.875 29.389-8.1 45.514 1.441 13.084 6.902 25.468 13.915 36.466 8.552 13.409 21.226 23.271 35.497 27.84-9.141 7.744-22.111 11.035-32.511 16.504-.962.506-1.925.936-2.891 1.324-.459.112-.907.254-1.371.358-13.922 3.14-27.848-1.217-39.795-8.207-14.92-8.729-29.916-24.041-48.858-15.993-.195.084-.078.36.1.368 16.924.779 26.4 5.771 39.119 16.496 6.128 5.168 13.219 8.888 20.717 11.529-2.787.654-5.557 1.619-8.295 3.158-6.779 3.809-12.446 11.092-18.693 15.615-10.367 7.512-31.646 7.934-43.629 8.842-22.491 1.709-42.502-6.58-62.881-14.664-8.606-3.416-16.779-5.639-25.065-6.879 16.801-8.435 31.336-18.615 52.1-17.099.484.037.713-.735.254-.938-14.063-6.178-27.938-1.058-41.395 4.526-9.302 3.857-18.81 6.994-28.291 10.359-3.64 1.291-7.127 1.998-10.566 2.414-28.483 2.268-43.299-14.104-67.305-24.453-20.238-8.723-39.013-11.248-56.859-25.512-11.205-8.953-22.715-15.209-36.217-19.949-18.305-6.428-33.465-11.578-43.998-24.525-2.795-4.985-5.998-9.877-8.574-14.952-.524-1.337-1.043-2.688-1.518-4.134-1.375-4.19-2.845-8.037-4.477-11.684-2.923-9.291-5.449-18.637-9.521-27.658-6.221-13.779-5.312-26.438-5.973-41.041-.347-7.695-3.406-14.668-10.67-17.764-.214-.09-.559.125-.371.371 8.719 11.315 6.969 19.551 5.633 32.674-1.169 11.473 2.957 22.17 7.443 32.463.108.252.206.523.313.779-1.068-1.164-2.17-2.324-3.361-3.482-17.199-16.721-23.755-34.772-29.582-57.764-5.319-20.99-13.791-40.789-20.385-61.381-15.66-48.894-13.771-94.758 11.66-139.292 1.494-2.615 2.82-5.277 4.07-7.966-.748 11.767.573 23.511 4.867 34.507 5.627 14.414 1.45 26.207-.007 40.76-.021.234.322.252.391.053 3.411-10.061 6.632-19.668 6.634-30.383 0-5.225-1.637-10.443-3.057-15.4-2.029-7.1-2.291-14.596-2.267-21.928.064-20.11 5.787-39.68 8.787-59.449 3.521-14.938 7.568-29.646 15.068-43.188 1.291 4.739 2.964 9.469 5.071 14.104 6.011 13.199 14.313 20.332 23.978 23.568-7.637 3.008-13.191 8.447-21.56 10.01-.618.117-.513.975 0 1.148 6.806 2.284 11.479 1.125 17.802-2.144 12.514-6.473 23.393-5.938 36.828-8.074 8.502-1.35 16.592-3.852 23.445-8.251 4.489-2.881 8.884-6.546 12.641-12.813 4.041-6.736 5.567-15.289 8.18-22.637 3.405-9.591 6.612-19.06 7.733-29.218 1.791-16.213-12.278-28.844-16.706-43.518-.2-.664-1.332-.781-1.457 0-1.853 11.369 7.606 21.684 11.045 31.932 1.17 3.484 1.55 7.111 1.426 10.81-.271-1.736-.715-3.47-1.34-5.199-.081-.607-.312-1.238-.728-1.879-7.551-11.59-22.559-20.072-35.291-25.748 3.209-2.855 6.195-5.887 8.955-9.512 12.271-16.132 22.422-24.535 42.119-30.697 9.04-2.826 15.892-8.23 22.729-14.58 9.864-9.16 18.832-15.361 29.956-20.625 6.854-2.475 14.122-4.188 20.962-5.959 15.412-3.986 36.779-13.652 45.236 6.342.232.547.953.279 1.117-.146 7.051-18.111-17.789-20.033-29.582-18.322-.055.008-.115.02-.17.024 14.192-8.307 28.032-17.288 43.791-22.836 32.352-11.387 66.166.408 96.737 12.029-1.063 2.26-1.848 4.74-2.268 7.512-1.664 10.963 2.741 20.849 9.834 28.771-.908-.404-1.822-.813-2.727-1.209-11.381-4.978-18.672-10.844-24.334-22.064-.177-.344-.769-.188-.738.201.713 9.742 6.67 16.693 14.586 21.955 7.117 4.73 15.229 9.099 23.567 12.298 2.826 1.085 11.6 4.275 12.809 4.776 5.668 2.347 7.118 1.534 12.614.014 1.397-.031 2.793-.088 4.176-.147 8.146-.364 14.128 1.747 20.31 3.377 1.837.484 13.754 2.864 17.342 3.25 6.673.716 13.128-.438 18.336-5.843.45-.473.132-1.291-.535-1.291-1.599.003-9.513.046-11.854-.01 3.18-1.819 6.082-4.084 8.435-6.679 3.989-4.403 5.136-8.01 5.569-13.584 23.652 11.266 34.866 35.531 59.443 44.844 9.542 3.619 18.041 6.697 25.705 11.17 3.014 2.047 6.031 4.129 8.923 6.715 9.563 8.554 14.92 22.796 17.753 34.822 5.271 22.349-11.494 40.461-7.233 61.865.031.15.233.123.278 0 7.756-21.4 14.017-37.877 13.338-57.805.619 1.498 1.242 2.985 1.882 4.452 11.561 26.578 37.813 38.88 48.104 65.314 5.703 14.646 11.65 30.389 12.56 46.094.628 10.857 1.623 19.275 6.151 29.132 2.679 5.823 7.576 11.223 11.137 16.539 7.81 11.655 3.519 24.182-.043 35.903-2.836 9.322-7.146 20.047-4.92 30.038 6.696 30.078 20.823 85.907-2.435 112.608z"/><path d="m330.133 603.807c1.002-1.322 2.1-2.623 3.244-3.914 4.772-4.379 9.424-8.744 14.155-12.168 8.357-6.049 15.836-12.773 20.438-22.154 5.627-11.471-.15-23.637 9.103-34.17.326-.371.021-1.037-.509-.873-14.822 4.627-10.928 25.813-17.717 36.869-.711 1.158-1.502 2.258-2.353 3.314.488-1.408.901-2.845 1.156-4.343 2.377-14.021-10.055-27.448-19.238-36.45-.221-.271-.477-.533-.799-.783-11.629-9.023-23.883-21.433-39.256-23.16-20.494-2.305-38.742 1.273-54.645 14.684-14.517 12.24-17.954 33.849-12.634 52.238-1.438-1.33-2.876-2.662-4.356-3.945-11.094-9.62-14.381-20.133-19.302-33.407-.143-.39-.675-.32-.706.094-1.693 22.113 17.949 39.932 32.158 54.021.423.418.862.804 1.289 1.218 1.408 1.788 7.662 7.326 15.253 12.374 8.86 5.892 19.458 11.35 24.978 12.976 17.788 6.956 35.01 7.027 49.741-12.421zm-79.906-76.636c19.015-22.308 46.16-13.839 67.133-1.041-17.251 3.42-44.559-9.843-56.965 9.381-.146.229.133.444.344.346 8.785-4.232 15.789-7.4 25.859-6.443 7.902.755 15.064 3.994 22.945 4.697 2.201.195 5.026-.893 7.125-1.445 7.065-1.872 11.901 1.033 16.676 5.177 2.854 2.809 6.063 6.129 8.787 9.797.133.182.274.354.41.539 5.854 8.115 9.081 17.854.467 27.485-3.865 4.322-9.011 7.216-12.493 11.955-3.069 4.177-6.032 8.375-9.173 12.455-3.229 3.019-6.502 5.974-10.136 8.461-3.911 2.685-8.62 3.621-13.504 3.609-11.208-2.396-23.335-11.262-30.991-14.834-28.553-13.328-38.393-44.435-16.484-70.139z"/><path d="m808.754 582.425c13.22-16.832 7.045-40.599 3.418-59.64-3.441-18.065 3.258-30.879 4.846-48.135 1.236-13.463-1.986-23.406-8.52-35.147-4.327-7.773-12.802-13.244-19.839-18.349-20.028-14.518-10.588-31.566-23.032-47.857-.198-.26-.564-.045-.438.257 5.271 12.211 2.474 25.369 5.091 37.965 1.369 6.59 8.629 12.252 13.076 16.508 12.293 11.758 22.533 21.976 23.855 40.174.995 13.724-7.199 27.474-6.688 41.854.785 21.988 10.965 43.125 1.614 62.635-2.88 6.011-8.102 11.61-11.643 15.139-13.357 13.316-29.108 24.579-37.277 41.971-.404.864.565 1.614 1.299 1.004 15.096-12.582 32.947-25.262 46.854-39.949 2.519 2.924 5.056 5.834 7.332 8.945 4.962 6.789 1.08 14.024-2.094 20.578-3.469 7.146-6.451 13.914-5.82 21.991.033.423.676.564.778.105 2.869-12.693 12.888-21.414 16.788-33.461 3.494-10.779-3.438-18.479-9.752-26.414.05-.06.104-.117.152-.174z"/><path d="m473.723 773.428c-5.633-4.703-10.906-13.437-17.283-16.822-13.318-7.07-26.533-7.414-40.512-1.473-30.896 13.127-59.711 10.073-75.688-22.164-7.729-15.597-12.168-31.951-28.576-40.326-.399-.205-.791.285-.479.621 13.289 14.309 17.063 32.965 26.07 49.119-12.252 4.608-20.651-2.998-31.898-7.343-7.469-2.885-15.684-4.305-21.627 1.849-.096.1-.002.287.142.242 13.51-4.386 22.897 4.104 33.868 10.396 7.342 4.211 14.465 3.935 22.289 1.289.351-.119.594-.322.863-.506.729 1.07 1.49 2.129 2.295 3.164 13.402 17.225 30.715 21.58 51.938 21.006 10.337-.277 20.996-6.266 30.675-9.432 18.559-6.072 34.772 7.479 48.063 18.354 14.011 11.461 32.623 12.412 48.053 3.166.272-.162.094-.639-.223-.522-17.413 6.334-34.409.704-47.97-10.618z"/><path d="m614.342 432.611c-14.533 16.771-35.586 10.355-52.912 22.025-9.295 6.262-7.335 18.151-4.775 27.194 11.601 41.003-23.264 31.634-47.604 34.093-7.548.764-14.111 4.33-20.472 8.108-22.686 13.479-43.51 9.246-59.6-11.951-.418-.551-1.225-.098-.93.544 8.018 17.528 26.309 28.663 45.991 25.896 17.515-2.463 30.099-14.76 48.882-12.309 9.823 1.282 21.943 2.196 31.293-1.976 17.139-7.649 19.644-24.898 12.145-40.752-13.109-27.713 17.482-28.348 34.127-32.346 9.256-2.226 13.049-9.31 15.479-17.584.262-.899-.978-1.692-1.624-.942z"/><path d="m576.514 624.816c2.059 12.889 8.899 22.984 4.938 36.471-1.59 5.402-4.48 10.822-7.679 16.076 1.2-6.108 1.863-12.227 2.199-17.744 1.188-19.506-13.879-34.664-26.379-47.416-22.461-23.469-62.978-17.877-86.086 1.847-13.175 11.243-18.843 29.684-17.362 47.307-1.36-3.898-2.354-7.914-2.866-11.963-1.301-10.229.299-20.502-5.565-29.543-.273-.424-.882-.146-.789.332 2.847 14.885-1.619 29.287 2.686 44.153 3.076 10.619 9.6 19.859 17.357 27.564.819.814 8.807 8.3 12.564 10.523 1.584.938 15.122 8.584 20.606 10.927 17.179 7.846 34.966 10.883 47.998 7.366 13.627-3.674 24.68-13.657 32.946-25.983 7.066-10.539 14.523-22.572 18.119-34.803 3.818-12.99-5.555-25.064-11.702-35.531-.329-.56-1.077-.161-.985.417zm-113.088 3.791c9.026-16.111 30.725-23.951 50.396-22.359 4.327.816 8.534 2.162 12.396 4.216 9.251 4.916 7.169 11.799 7.169 20.731 0 8.105 6.748 14.48 4.994 22.951-.058.271.268.496.479.277 7.94-8.103-2.703-19.064.789-28.697 1.268-3.492.852-7.17-.521-10.541 1.412 1.078 2.733 2.256 3.955 3.529 20.975 21.397 27.266 37.823 18.389 66.901-4.486 14.695-14.448 23.226-28.833 27.435-17.393 5.088-32.7-7.609-47.688-14.226-29.454-13-37.428-41.828-21.525-70.217z"/><path d="m567.566 290.322c7.713-12.029 18.498-14.414 30.596-16.914-.704.723-1.436 1.391-2.112 2.166-23.656 27.043-4.515 55.547 15.42 76.67 21.057 22.318 58.215 20.385 77.553-2.168.09-.104.105-.223.184-.328.177-.211.386-.342.535-.602 2.162-3.722 3.443-7.377 4.217-11.015 3.236 11.173 3.709 20.533.531 32.277-.209.777.729 1.254 1.293.752 6.765-6.006 9.791-13.762 8.05-22.869-1.174-6.145-3.254-11.896-5.197-17.826-2.925-8.922-.482-17.368.721-26.272 1.854-13.756-8.359-23.059-19.621-29.73-.574-.465-1.133-.909-1.664-1.313-20.271-15.426-47.717-20.723-69.016-8.338-1.084.35-2.168.701-3.24 1.033-14.348 4.438-36.33 5.5-39.332 24.021-.107.649.703 1.053 1.082.456zm77.19 68.261c-5.818-.725-11.115-2.967-14.953-8.143-8.303-11.201 3.477-25.988-6.937-37.176-.153-.164-.474.008-.391.229 4.172 11.353-2.757 20.188-1.104 31.295.283 1.902.771 3.621 1.388 5.242-2.536-2.057-4.859-4.484-6.886-7.316-3.323-4.639-6.077-9.258-9.75-13.645-14.217-16.988-15.115-33.779-.362-50.646 16.153-18.468 45.039-12.216 62.982-.884 10.292 6.504 18.288 16.119 17.045 29.029-1.318 13.703 3.704 24.227-3.781 37.512-9.228 10.375-23.566 15.609-37.251 14.503z"/><path d="m388.527 394.226c-.172-.279-.715-.193-.67.184.744 6.312 4.721 9.863 9.525 13.765 6.223 5.047 13.03 9.772 19.633 14.521 6.149 6.035 15.074 10.666 22.22 14.144 4.414 2.145 9.85 2.957 15.614 2.963 5.588.535 11.383.309 17.52-.996 4.835-1.027 9.438-2.498 13.782-4.373.632-.188 1.27-.371 1.864-.555 10.719-3.257 18.471-10.404 23.101-19.293 1.555-2.158 3.021-4.416 4.312-6.851 8.181-15.426 23.261-34.207 5.163-48.986-.447-.367-1.037.078-.789.609 5.055 10.867 5 19.113-.633 29.783-.953 1.805-1.996 3.563-3.066 5.301.107-6.969-1.291-14.068-4.297-20.672-.002-.01-.008-.017-.01-.025-.114-.25-.197-.51-.316-.76-.407-.855-.977-1.377-1.595-1.76-9.165-9.254-24.11-15.004-35.419-21.015-14.209-7.549-25.438 1.845-38.441 6.578-10.734 3.908-25.523 7.955-29.313 20.631-2.617 8.75-1.447 21.769 2.131 31.902-.17-.088-15.722-7.669-20.316-15.095zm36.196-23.406c5.59-3.881 13.418-4.346 19.502-7.309 3.607-1.757 7.148-3.058 10.68-3.898-4.195 8.107-2.701 19.383-14.147 22.76-.156.047-.127.283.036.283 8.332-.004 12.482-2.857 15.666-10.527 2.302-5.547 3.296-11.817 8.354-13.356 4.896.381 9.855 1.953 15.01 5.242 7.715 4.922 17.387 7.485 23.857 14.021 4.16 9.164 2.674 21.73.399 31.263-3.059 12.823-19.557 16.381-30.122 18.75-15.976 3.584-48.688-1.086-54.511-20.216-3.883-12.761-10.749-25.876 5.276-37.013z"/><path d="m769.311 520.188c2.567-19.858 7.793-45.553-6.932-61.674-.42-.459-1.07.125-.818.633 4.906 9.932 5.225 22.166 4.303 34.217-4.645-11.969-12.742-23.28-18.518-34.299-7.199-13.727-26.418-16.828-40.181-17.984-34.997-2.934-69.354 38.781-70.836 71.571-1.325 29.398 15.455 44.512 37.73 53.08-8.729-.637-17.244.057-25.972.174-9.397.127-16.313-5.526-24-9.949-.487-.278-.891.341-.567.736 4.953 6.055 10.545 11.238 17.951 14.027 9.706 3.649 23.162.666 33.467 1.475 12.082.943 24.275 2.707 36.233 2.555 6.46.755 12.338.152 17.655-1.52 1.604-.505 10.864-4.04 13.905-5.636 18.044-9.455 24.144-28.567 26.58-47.406zm-124.041-1.493c-1.536-16.742 8.169-35.469 21.563-49.154.109 3.436.901 6.629 1.994 10.092 2.451 7.768 4.131 12.289-.958 19.555-.181.256.116.631.405.529 17.521-6.113 1.043-25.396 6.777-37.097.162-.332.382-.6.563-.914 3.787-2.919 7.716-5.409 11.658-7.335 10.366-5.067 26.729-6.123 38.967-.192 6.763 3.275 12.518 8.321 16.014 14.99 5.393 10.282 16.354 25.674 17.743 36.854-2.137 30.766-18.409 64.447-55.325 58.479-26.467-4.281-56.659-15.913-59.401-45.807z"/><path d="m624.529 416.865c-.199-.502-.987-.776-1.281-.17-.896 1.869-1.803 3.812-2.754 5.668-.844 1.646-1.698 3.166-1.678 5.049.002.279.273.494.546.416 2.184-.612 3.555-2.309 4.647-4.229 1.322-2.324 1.486-4.304.52-6.734z"/><path d="m512.754 353.632c.646.587 1.414 1.343 2.172 1.787.981.576 1.608.316 2.621.402.313.027.543-.275.559-.559.061-1.136.178-1.556-.331-2.693-.506-1.131-2.61-2.266-3.706-2.641-.524-.181-4.549-1.31-4.227.459.249 1.38 1.931 2.359 2.912 3.245z"/><path d="m246.455 445.97c4.991-9.674 11.977-18.322 19.174-26.435 2.508-2.823 5.063-5.368 7.547-7.914-1.939 12.365.633 27.316.354 38.05-.01.387.513.412.638.086 7.969-21-1.394-49.683 26.619-58.603 12.802-4.078 21.665-4.42 30.542-16.076 9.898-12.994 13.868-27.342 18.734-42.723 3.816-12.062 6.467-23.152 21.529-25.881 4.125-.748 9.167-1.383 11.905-5.064 3.306-4.453 4.837-8.631 6.515-13.981 4.923-15.701 27.904-13.92 39.725-13.313 13.465.688 32.82 2.887 44.744-5.715 7.596-5.477 10.762-12.314 13.838-21.027 7.295-20.664 28.574-30.94 49.57-29.032.574.051.565-.736.123-.921-19.445-8.108-48.392 2.189-55.668 23.334-8.74 25.4-28.18 26.118-49.182 25.318-6.088-.232-11.838-.791-13.794-5.799-.352-2.002-.711-4.002-1.084-6.019-1.963-10.62 4.202-14.657 11.281-20.362 6.605-5.32 9.857-14.301 9.579-22.543-.011-.32-.421-.347-.53-.072-3.064 7.65-6.245 12.764-12.826 17.721-3.934 2.961-8.042 4.908-11.44 8.568-6.573 7.086-2.613 18.971-.781 28.014-10.551.318-26.098 3.783-30.125 14.974-4.611 12.813-3.578 14.399-19.643 18.141-4.146.965-8.597 1.918-11.101 5.844-12.082 18.974-14.795 40.842-26.063 60.029-11.512 19.604-37.64 15.789-49.569 35.512-.356.593-.657 1.22-.967 1.845-14.156 10.614-26.359 27.198-30.139 43.84-.065.283.349.486.495.204z"/><path d="m684.49 635.628c-6.472.016-11.772 1.635-18.016 3.247-6.242 1.615-12.615 1.964-18.902 3.177-.274.051-.246.391-.069.522 10.104 7.681 28.729.994 37.382-5.996.392-.316.054-.953-.395-.95z"/><path d="m686.493 639.43c-1.588 1.199-3.645 1.646-4.647 3.463-.063.113-.086.291 0 .4 1.633 2.116 4.246 1.44 6.382.366 1.331-.67 2.419-1.637 3.31-2.813 2.043-2.693-2.423-3.406-5.045-1.416z"/><path d="m379.407 649.919c.209-.15.427-.398.392-.685-.481-3.891-5.107-4.717-8.182-5.971-4.792-1.951-8.854-4.566-13.099-7.482-.373-.254-.751.164-.688.527.872 4.936 4.468 7.893 8.566 10.352 3.075 1.843 9.644 5.651 13.011 3.259z"/><path d="m380.629 658.207c2.516.313 4.422-.389 5.799-2.534.216-.334-.004-.759-.355-.871-1.924-.619-3.418-.787-5.442-.617-1.851.156-4.329.543-6.146.129-.356-.082-.501.355-.236.557 2.136 1.636 3.556 2.986 6.38 3.336z"/><path d="m564.155 357.398c.378.299.821.332 1.196 0 3.692-3.289.947-9.566-.502-13.402-2.224-5.889-6.683-10.344-11.418-14.252-.228-.186-.592.049-.426.328 2.858 4.785 4.977 10.063 6.827 15.307 1.324 3.746 1.072 9.435 4.323 12.019z"/><path d="m572.697 351.136c-1.428 3.143-3.451 9.389.182 11.579.188.115.444.115.634 0 3.632-2.19 1.606-8.438.18-11.579-.172-.379-.825-.379-.996 0z"/><path d="m370.495 452.385c.195-.406.107-.863-.291-1.109-3.366-2.078-7.922-.408-11.682-.225-5.33.264-11.035-.787-16.295-1.604-.25-.037-.426.285-.183.429 5.11 2.961 9.97 4.844 15.859 5.739 4.057.619 10.523 1.055 12.592-3.23z"/><path d="m366.804 462.242c2.065-.326 4.614-1.27 5.284-3.403.262-.834-.31-1.527-1.031-1.818-1.67-.672-3.619.316-5.144 1.051-1.852.896-3.649 1.953-5.536 2.758-.364.154-.193.65.1.757 2.184.794 4.029 1.014 6.327.655z"/><path d="m255.936 641.419c-.184-.488-.828-.503-1.008 0-1.344 3.758-1.274 7.579-1.012 11.518.203 3.025-.111 7.207 2.262 9.367.563.512 1.332.379 1.752-.228 1.814-2.602.547-6.159.236-9.141-.404-3.898-.846-7.83-2.23-11.516z"/><path d="m248.771 639.503c-2.189 2.44-2.141 6.096-1.533 9.106.08.402.632.512.9.238 2.193-2.24 2.725-6.049 1.865-9.021-.146-.508-.852-.746-1.232-.323z"/><path d="m727.605 286.898c2.955 1.385 5.724 3.799 9.076 3.771.436-.002.717-.409.625-.821-.75-3.316-3.984-4.466-6.842-5.726-8.872-3.899-11.19-1.131-2.859 2.776z"/><path d="m739.754 285.244c.479.01.696-.504.512-.893-1.521-3.201-5.697-4.531-9.027-3.802-.194.044-.264.316-.119.451 2.312 2.136 5.412 4.173 8.634 4.244z"/></g></svg>