<svg id="Start_Up" height="512" viewBox="0 0 1000 1000" width="512" xmlns="http://www.w3.org/2000/svg"><g><path d="m152.16 576.488c9.756 2.973 19.525 5.909 29.295 8.84 43.887 173.005 223.582 234.782 366.623 234.787h.006c6.986 0 14.055-.146 21.01-.43 166.576-6.824 337.1-120.726 334.842-299.585.33-1.992 1.322-6.129 2.002-8.212 20.525-32.378 11.893-74.186-5.066-99.672-9.078-13.647-22.762-23.804-40.604-30.166-2.742-1.052-11.244-5.714-14.242-7.767-8.012-8.774-16.789-17.394-26.709-26.237-1.85-1.754-7.537-8.664-9.715-11.854-2.486-7.664-5.721-15.32-9.629-22.793-.18-.344-.369-.682-.568-1.014-58.73-97.691-178.836-132.501-271.652-132.501-8.271 0-16.582.272-24.703.806-55.295 3.629-107.586 21.13-151.217 50.61-40.648 27.465-70.475 64.493-82.824 102.51-45.453 34.031-77.113 85.708-89.383 145.131-.387-.162-.771-.323-1.156-.488-11.393-4.818-28.479-10.566-45.164-10.566-26.617 0-45.396 15.179-50.232 40.604-8.646 45.452 41.715 60.039 63.219 66.27 2.074.601 4.045 1.172 5.867 1.727z" fill="#fff"/><g><path d="m568.293 800.12c155.371-6.366 318.852-110.884 316.047-280.786-.037-2.429 2.754-14.447 4.365-16.864 15.684-23.52 10.711-57.092-4.141-79.408-7.391-11.112-18.424-18.128-30.943-22.592-4.566-1.628-18.885-9.484-21.189-12.03-8.252-9.116-17.064-17.681-26.244-25.866-3.447-3.076-13.813-15.84-14.691-18.695-2.17-7.045-5.094-14.176-8.873-21.403-55.243-91.886-176.45-128.93-278.294-122.247-50.277 3.301-99.732 19.053-141.535 47.296-33.836 22.862-66.072 57.807-76.916 98.244-53.311 37.285-83.854 97.041-90.803 160.852-8.07-3.396-16.172-6.721-24.236-10.133-23.176-9.804-61.891-19.244-68.531 15.662-5.842 30.71 34.416 39.165 55.561 45.607 13.346 4.068 26.713 8.064 40.076 12.076 36.074 169.238 214.277 236.68 370.347 230.287z" fill="#68182b"/><path d="m775.416 716.364c-58.059 47.251-133.547 68.049-207.123 72.242-148.635 8.474-319.475-57.34-357.568-214.922 6.451 1.932 12.9 3.872 19.354 5.799 8.873 33.182 24.041 69.623 51.447 91.314.746.594 2.094-.189 1.439-1.111-15.633-22.041-29.32-44.114-39.279-68.53-6.709-16.442 3.529-16.563 25.463-10.024 3.887 1.16 7.77 2.32 11.652 3.48 34.656 10.349 72.652 17.951 105.568 33.223 26.762 12.416 44.678 39.055 63.617 60.533 17.58 19.941 40.492 30.477 65.938 36.998 24.771 6.348 50.943 5.115 75.666-.524 14.18-3.235 42.123-11.583 43.965-29.813 2.186-21.625-21.418-36.198-41.529-44.444 20.102-5.201 39.42-12.945 57.035-22.968 31.656-18.014 52.764-45.012 70.76-74.705 50.363 2.975 111.986 3.409 150.895-31.882.442 77.361-37.602 146.747-97.3 195.334z" fill="#fbf199"/><path d="m772.916 480.174c15.246-6.321 31.354-9.341 48.078-9.474 12.455-.095 11.213 2.433 5.871 8.435-15.986 17.967-48.008 16.21-71.715 13.872 3.409-6.202 8.653-9.058 17.766-12.833z" fill="#fbf199"/><path d="m749.176 503.911c33.018 3.336 77.457 5.313 93.803-28.902 8.23 4.859 11.303 13.638 4.047 25.2-20.111 32.066-74.365 26.847-109.27 24.742 3.818-7 7.602-14.034 11.42-21.04z" fill="#ff8e5b"/><path d="m880.309 438.313c15.732 28.999 2.168 61.815-22.119 80.317-35.242 26.848-87.039 25.572-129.82 23.146 1.078-1.883 2.16-3.763 3.225-5.66 39.648 1.794 121.945 8.585 131.525-45.305 8.006-45.033-62.645-31.629-96.1-19.705 11.611-22.025 21.842-44.24 26.635-67.082 32.154.454 69.697 3.03 86.654 34.289z" fill="#fbf199"/><path d="m821.76 393.865c-9.057-.893-17.98-1.191-26.178-1.322.955-7.704 1.229-15.486.67-23.363 8.885 7.841 17.451 16.008 25.508 24.685z" fill="#fbf199"/><path d="m282.748 362.382c-.076.686-.211 1.358-.275 2.047-4.639 49.632 31.438 104.627 53.564 146.383 13.324 25.143 26.611 50.013 43.479 72.083-50.773-20.64-101.43-41.568-151.996-62.708.02-18.52 2.363-36.689 7.463-54.551 5.834-20.434 17.152-36.947 26.746-55.52.168-.328-.234-.649-.508-.393-27.82 26.039-37.936 71.012-38.902 108.288-5.408-2.265-10.822-4.515-16.229-6.786 5.256-57.521 31.188-112.777 76.658-148.843z" fill="#fbf199"/><path d="m119.739 529.962c-9.602-8.332-7.287-21.624 2.188-28.507 10.934-7.94 26.4-2.146 37.268 2.493 12.52 5.348 25.08 10.594 37.639 15.845 66.119 27.651 132.33 55.114 198.75 82.033.049.021.098.024.146.043 7.369 7.67 15.385 14.848 24.322 21.333 39.479 28.648 89.182 38.695 137.533 33.874 14.492-1.446 24.504.89 34.852 5.669 19.795 9.145 44.826 25.913 21.895 41.268-26.168 17.517-66.064 16.316-95.346 10.251-29.91-6.194-50.766-22.063-70.082-44.665-15.619-18.275-30.953-36.104-51.564-48.92-22.564-14.033-53.393-19.188-78.561-26.729-37.852-11.345-75.729-22.604-113.58-33.946-25.099-7.523-65.146-12.417-85.46-30.042z" fill="#ff8e5b"/><path d="m772.684 328.285c-21.471-35.711-54.613-62.649-91.652-81.192-100.625-50.372-243.348-54.829-331.223 25.134-23.543 21.423-49.414 49.628-54.594 82.346-4.621 29.19 5.414 56.693 17.303 82.901 3.969 7.426 8.496 14.594 13.699 21.426 20.115 26.408 47.488 44.047 77.125 58.22.586.278.166 1.179-.43 1.019-29.51-7.91-55.506-25.063-75.039-48.411 9.08 18.409 18.584 36.612 28.57 54.536 12.414 22.282 24.49 46.182 42.135 64.877 64.643 68.498 177.818 75.416 255.031 23.352 40.697-27.442 61.248-69.955 84.24-111.893 3.715-6.775 7.555-13.582 11.371-20.432-13.363 14.095-28.992 26.094-45.156 35.326-30.717 17.542-68.727 31.511-104.703 30.494-.83-.022-1.061-1.297-.201-1.484 33.426-7.233 66.242-14.281 96.609-30.981 20.842-11.464 40.232-26.024 55.727-44.187 5.375-6.301 9.807-12.759 13.736-19.372 18.807-38.534 29.952-78.662 7.452-121.679zm-17.278 102.157c-21.482 40.674-59.398 67.779-102.518 82.242-95.895 32.165-224.535 21.127-301.844-49.188-34.119-34.487-51.129-84.232-28.191-130.073 22.117-44.202 63.994-74.856 109.963-91.188 54.234-19.269 111.83-22.124 167.801-8.768 45.197 10.783 96.834 29.831 129.676 64.187 33.348 34.881 48.696 88.141 25.113 132.788z" fill="#fbf199"/><path d="m625.596 508.776c-75.357 19.598-171.957 10.78-239.955-33.143-22.367-14.452-48.121-42.891-40.061-82.309 2.877-14.056 9.002-27.541 18.854-40.062 33.271-42.277 95.498-66.264 147.146-72.601 56.213-6.895 119.65 10.625 166.357 42.172 25.982 17.549 52.943 47.289 59.838 79.063 6.455 29.729-14.271 59.289-39.748 76.326-21.878 14.63-47.685 24.119-72.431 30.554z" fill="#aa8053"/><path d="m344.266 319.407c26.16-39.756 74.018-62.449 118.408-74.419 84.521-22.79 194.992-.499 259.48 60.806 33.041 31.412 39.49 75.355 24.158 114.008.965-33.006-21.504-65.293-46.324-88.206-45.305-41.823-115.76-61.177-176.229-58.821-58.227 2.27-126.125 30.335-164.213 75.605-19.113 22.721-25.313 50.354-22.029 78.156-18.257-33.455-16.843-71.277 6.749-107.129z" fill="#ff8e5b"/><g fill="#f3af79"><path d="m332.381 440.368c-20.717-31.727-27.736-70.553-9.527-106.944 22.117-44.202 63.994-74.856 109.963-91.188 54.234-19.269 111.83-22.124 167.801-8.768 45.197 10.783 96.834 29.831 129.676 64.187 33.348 34.881 48.695 88.141 25.113 132.788-13.424 25.416-33.266 45.535-56.785 60.583 26.01-14.333 48.223-34.737 62.629-62.016 23.033-43.612 11.51-93.488-20.389-128.839-74.932-83.043-210.662-101.381-312.436-65.88-45.465 15.858-86.473 45.531-108.561 89.088-10.865 21.43-15.711 45.331-11.428 69.097 3.231 17.926 12.489 33.884 23.944 47.892z"/><path d="m398.578 589.14c64.643 68.498 177.818 75.416 255.031 23.352 22.619-15.252 39.006-35.166 53.055-57.041-7.854 10.303-16.691 19.842-26.26 28.568-27.467 25.055-61.736 41.143-98.289 47.366-45.314 7.72-95.68.012-136.324-21.411-41.768-22.015-65.787-63.629-79.486-107.479-14.473-8.655-27.492-19.694-38.432-32.768 9.08 18.409 18.584 36.612 28.57 54.536 12.415 22.282 24.491 46.181 42.135 64.877z"/><path d="m726.479 740.15c-53.066 28.65-113.127 38.594-172.795 40.184-68.488 1.828-137.449-9.444-198.408-41.696-26.846-14.203-52.004-31.484-75.744-50.371-7.145-5.684-14.467-11.618-21.439-17.95 70.418 87.878 196.742 124.758 310.201 118.29 73.576-4.193 149.064-24.991 207.123-72.242 42.285-34.416 73.619-79.297 88.193-130.024-28.162 64.254-73.571 119.495-137.131 153.809z"/><path d="m850.737 456.229c-12.986-4.646-26.938-2.957-40.188-.359-11.082 2.172-27.584 6.285-33.547-4.752-3.137 6.688-6.482 13.349-9.982 19.988 33.455-11.924 104.105-25.328 96.1 19.705-9.58 53.89-91.877 47.099-131.525 45.305-.434.775-.879 1.542-1.318 2.313 28.514 3.38 58.174 2.351 86.193-3.888 18.143-4.039 39.895-12.791 47.43-31.338 6.555-16.141 6.342-39.993-13.163-46.974z"/><path d="m407.84 655.329c17.998 17.18 29.584 39.816 49.65 55.035 20.391 15.465 48.047 23.846 73.113 27.01 25.395 3.206 54.992 1.561 78.031-10.706 6.529-3.479 17.762-11.569 21.764-20.364-9.115 10.582-27.967 16.064-38.809 18.538-24.723 5.64-50.895 6.872-75.666.524-25.445-6.521-48.357-17.057-65.938-36.998-18.939-21.479-36.855-48.117-63.617-60.533-32.916-15.271-70.912-22.874-105.568-33.223-3.883-1.16-7.766-2.32-11.652-3.48-21.934-6.539-32.172-6.418-25.463 10.024 3.1 7.601 6.598 14.954 10.367 22.169-.719-4.938-.67-9.925 1.754-14.485 3.26-6.128 12.166-5.084 17.693-4.162 14.553 2.424 28.99 9.125 43.127 13.339 30.534 9.1 67.466 14.643 91.214 37.312z"/><path d="m239.129 607.628c-3.584-9.375-6.574-18.885-9.051-28.145-6.453-1.927-12.902-3.867-19.354-5.799 1.291 5.336 2.758 10.544 4.348 15.668 6.988 2.589 13.092 6.092 18.826 11.83 2.008 2.009 3.68 4.197 5.231 6.446z"/><path d="m249.365 432.714c-5.703 10.434-10.982 21.009-14.383 32.922-5.1 17.861-7.443 36.031-7.463 54.551 7.83 3.273 15.676 6.506 23.51 9.768-5.674-14.528-9.412-29.045-9.957-46.145-.566-17.819 2.68-34.643 8.293-51.096z"/></g><path d="m810.856 418.706c-9.918 3.904-18.289 16.175-7.064 23.463 9.063 5.887 25.08 1.289 34.973.83 10.844-.5 19.48 1.972 27.338 7.063 5.764 3.74 13.701 7.564 6.998-5.419-10.956-21.214-40.243-34.601-62.245-25.937z" fill="#fff7cf"/><path d="m596.098 566.282c-69.879 4.152-111.379-4.467-173.736-26.848-32.738-11.754-18.559 8.489-10.734 18.329 50.574 63.626 149.076 64.31 190.383 35.335 21.726-15.232 7.27-27.597-5.913-26.816z" fill="#fff7cf"/><path d="m655.408 577.23c18.523-9.386 11.242-30.924-7.705-28.64-5.131.617-14.42 4.125-20.787 9.369-12.02 9.9-7.723 23.937 9.291 23.926 7.362-.004 15.242-2.644 19.201-4.655z" fill="#fff7cf"/><path d="m796.352 569.383c-13.482 3.789-26.037 3.152-39.059 1.587-21.73-2.619-28.645 3.38-38.797 16.611-9.918 12.926-21.91 23.244-35.432 32.999-19.639 14.167-22.684 23.939-21.115 40.874-.367 13.948 1.125 28.641-5.994 41.061-6.41 11.188-18.914 16.622-26.051 26.953-8.652 12.524-7.398 23.592 17.799 16.156 93.846-27.695 151.316-92.744 170.947-147.998 7.872-22.152 3.499-35.498-22.298-28.243z" fill="#fff7cf"/><path d="m478.352 739.417c-6.461-3.476-13.297-6.384-19.572-9.443-18.975-9.247-30.293-23.425-42.139-40.43-9.82-14.097-20.313-27.402-35.941-35.29-20.41-10.299-43.16-14.936-65.189-20.368-23.734-5.855-56.281-9.494-27.549 25.961 33.471 41.305 134.381 104.283 192.525 103.411 28.111-.421 24.586-9.456-2.135-23.841z" fill="#fff7cf"/><path d="m314.744 510.019c-5.148-9.107-10.291-18.222-15.396-27.352-4.912-8.787-7.891-17.636-10.998-26.61-8.932-25.794-23.482-19.747-29.594.443-5.721 18.936-2.482 40.035 13.09 54.474 10.041 9.316 23.617 15.57 36.463 21.264 19.119 8.468 19.629 1.11 6.435-22.219z" fill="#fff7cf"/><path d="m847.026 500.209c7.256-11.563 4.184-20.341-4.047-25.2-3.496 7.316-8.332 12.898-14.012 17.244-4.852 9.242-12.229 16.976-22.668 22.82-9.064 5.074-20.15 8.961-31.447 11.526 28.615.039 58.402-4.429 72.174-26.39z" fill="#ff564d"/><path d="m330.268 409.973c1.914 5.614 4.295 11.151 7.25 16.563-3.283-27.803 2.916-55.436 22.029-78.156 38.088-45.271 105.986-73.336 164.213-75.605 60.469-2.355 130.924 16.998 176.229 58.821 24.82 22.913 47.289 55.2 46.324 88.206 3.088-7.787 5.246-15.79 6.529-23.861-.5-2.875-1.117-5.761-1.848-8.65-12.135-47.905-54.365-81.932-96.824-102.771-67.949-33.353-150.006-37.485-220.012-8.196-33.898 14.183-65.67 36.132-84.768 68.123-11.482 19.23-18.706 42.535-19.122 65.526z" fill="#ff564d"/><path d="m318.778 593.949c25.168 7.542 55.996 12.696 78.561 26.729 20.611 12.815 35.945 30.645 51.564 48.92 19.316 22.602 40.172 38.471 70.082 44.665 29.281 6.065 69.178 7.266 95.346-10.251 21.977-14.713-.094-30.722-19.395-40.08 12.205 9.977 20.318 21.425 10.633 31.056-10.244 10.188-30.969 12.082-44.42 13.081-15.918 1.18-32.311-.288-47.738-4.303-30.861-8.031-52.199-29.773-73.125-52.47-19.455-21.099-40.125-36.232-66.992-46.693-36.715-14.297-76.131-23.368-113.9-34.413-38.58-11.282-77.346-22.24-115.443-35.091-10.65-3.594-22.506-8.138-30.242-16.094.482 3.95 2.404 7.808 6.031 10.956 20.314 17.625 60.361 22.52 85.459 30.041 37.85 11.344 75.727 22.602 113.579 33.947z" fill="#ff564d"/><path d="m247.85 550.734c-8.135-2.995-16.316-5.813-24.076-8.896-25.398-10.086-50.855-20.078-76.5-29.525-23.217-8.58-27.113 2.901-2.502 12.039 31.203 11.581 71.502 22.489 101.758 31.082 35.289 10.016 35.818 8.012 1.32-4.7z" fill="#fbc471"/><path d="m574.059 667.796c-11.502-1.186-23.42 1.178-34.828 2.441-9.84 1.091-20.16.939-30.289-.178-27.434-3.024-17.305 5.395-4.074 12.836 33.33 18.727 58.916 18.695 73.674 12.597 19.564-8.087 16.193-25.565-4.483-27.696z" fill="#fbc471"/><path d="m737.776 401.897c-6.895-31.773-33.855-61.514-59.838-79.063-2.266-1.531-4.605-3-6.947-4.464 71.709 66.518 68.957 142.581-107.078 159.828-71.709 7.029-150.994-6.944-183.684-54.132-17.992-25.97-13.049-66.5 17.984-101.862-12.922 8.958-24.504 19.271-33.779 31.059-9.852 12.521-15.977 26.006-18.854 40.062-8.061 39.418 17.693 67.856 40.061 82.309 67.998 43.923 164.598 52.74 239.955 33.143 24.746-6.436 50.553-15.925 72.432-30.553 25.476-17.037 46.203-46.597 39.748-76.327z" fill="#865725"/><path d="m412.24 363.644c-3.936 21.079 14.506 41.02 48.406 52.701 49.492 17.053 127.738 13.33 175.602-7.139 25.563-10.934 37.545-26.166 34.861-42.396-6.172-37.316-68.414-56.828-130.387-57.404-60.907-.567-121.556 17.157-128.482 54.238z" fill="#d4ba89"/><path d="m847.647 570.45c-9.197 25.429-19.396 48.979-35.301 71.027-15.242 21.128-34.367 39.511-54.662 55.729-34.754 27.771-76.729 51.336-118.799 66.065-.891.31-.541 1.65.393 1.421 45.52-11.135 86.623-33.559 123.162-62.73 39.781-31.758 80.064-78.856 86.02-131.4.056-.494-.667-.52-.813-.112z" fill="#68182b"/><path d="m628.02 765.243c-1.611.497-2.857 1.493-4.121 2.553-.186.155-.07.449.135.51 1.725.529 3.15.699 4.939.402 1.867-.31 2.609-1.326 3.619-2.754.178-.25 0-.65-.291-.713-1.678-.366-2.588-.519-4.281.002z" fill="#68182b"/><path d="m290.951 678.775c-.938-.675-1.795-1.435-2.625-2.235-.758-.734-1.633-1.014-2.463-1.614-.361-.261-.762.169-.688.528.492 2.395 1.504 3.497 3.42 5.084 1.75 1.455 3.34 2.618 5.666 2.762.395.025.568-.423.42-.73-.876-1.786-2.15-2.657-3.73-3.795z" fill="#68182b"/><path d="m588.998 545.376c-1.418.094-2.822.73-4.115 1.271-.305.128-.307.497 0 .625 1.363.566 2.652.96 4.115 1.126 1.719.196 2.904-.779 4.23-1.672.268-.181.262-.642-.094-.725-1.528-.355-2.546-.732-4.136-.625z" fill="#68182b"/></g></g></svg>