<svg id="Layer_1" enable-background="new 0 0 512 512" height="512" viewBox="0 0 512 512" width="512" xmlns="http://www.w3.org/2000/svg"><g><path d="m185.3776 326.0016c.3515 4.3146.5804 8.6442 1.1063 12.9374.2633 2.1494-.391 3.3521-2.3528 4.1079-1.0484.4039-1.9898 1.0854-2.9697 1.6361 4.9279 2.9569 9.8493 5.5983 14.423 8.7452 4.2604 2.9314 8.2728 6.2643 12.1297 9.7162 1.1599 1.0382 1.9877 3.0548 2.0212 4.6431.1843 8.751.1026 17.5085.022 26.2628-.0075.8117-.4555 1.7975-1.0212 2.3997-11.7763 12.537-25.7983 21.4674-42.4759 25.9518-23.353 6.2794-47.0072 8.1141-70.9551 4.1635-13.9962-2.309-27.2107-6.8681-38.9559-15.0073-8.5098-5.8971-15.5436-13.2607-20.5809-22.3878-.4549-.8244-.6838-1.9175-.6222-2.86.4605-7.0425 1.2547-14.0714 1.4675-21.119.142-4.7036 2.4405-8.018 5.4734-11.1113 2.7558-2.8105 5.5659-5.5678 8.4833-8.4796-.4393-.2479-.8485-.5331-1.2977-.7243-11.563-4.9229-21.1379-12.5246-29.4034-21.8712-.5238-.5924-1.0198-1.4843-1.0114-2.2311.1218-10.77.3122-21.5395.5463-32.3077.0301-1.3842.3731-2.7653.6125-4.1407 1.3306-7.6449 5.7533-12.7585 12.9666-15.3795 4.0466-1.4703 8.2175-2.5984 12.8854-4.0529.2134-1.7203.5806-4.1586.7958-6.6102.1285-1.4639.8251-2.2527 2.0689-3.0264 23.1008-14.3702 48.8754-19.4826 75.4447-21.3946 10.0969-.7266 20.2901-.0912 30.4389-.1573.8923-.0058 1.8995-.4451 2.6496-.9728 2.7878-1.9609 5.4137-4.1595 8.2579-6.0292 1.3763-.9047 1.7246-1.7665 1.571-3.3728-1.6588-17.3502 1.2009-33.8633 9.6623-49.211 5.2427-9.5094 12.8016-17.0232 21.9831-22.5878 4.629-2.8055 10.117-4.2341 15.2799-6.1113 29.8412-10.8498 59.5013-22.2466 89.6098-32.299 31.8126-10.6214 64.0573-19.9485 96.1159-29.8323 5.4405-1.6773 11.0265-1.5302 16.608-1.1577 8.34.5565 16.761.6375 24.993 1.9161 14.9811 2.3269 28.6363 8.2501 40.1895 18.1746 14.437 12.402 20.7058 28.7912 20.9491 47.4382.3196 24.4913-8.5992 45.7288-24.295 64.2303-2.5247 2.976-5.6965 5.4515-8.7785 7.8943-4.0651 3.222-8.2196 6.3627-12.5587 9.197-3.2257 2.1071-6.7273 3.8433-10.2403 5.4514-41.5201 19.0067-83.9453 35.8639-126.2338 53.0443-5.6668 2.3022-11.3716 4.5111-17.0557 6.7708-.7147.2841-1.4107.6149-2.1964.9596 1.4081 3.4609 2.924 6.7702 4.108 10.1944 1.796 5.1942 3.5729 10.4142 4.9314 15.7321.635 2.486.344 5.2281.3033 7.8516-.0087.5577-.674 1.1928-1.1722 1.642-7.0767 6.381-14.1576 12.7577-21.2779 19.09-4.8033 4.2718-9.7323 8.404-14.4749 12.741-1.6612 1.5191-3.2365 1.6003-5.2613 1.0854-13.5742-3.4518-26.5213-8.6075-39.2595-14.33-14.896-6.6918-29.0529-14.6561-42.025-24.6373-.4131-.3179-.9134-.5225-1.3731-.7799-.0693-.1105-.1385-.221-.2078-.3315-.0137.1791-.0273.3579-.041.5367zm266.2859-102.2793c.3196-.1063.6393-.2126.959-.3189.8746-.4811 1.8392-.8492 2.6084-1.4625 3.6864-2.9395 7.4011-5.8523 10.9539-8.9487 5.8535-5.1015 10.7572-11.0259 14.6521-17.7583 4.6147-7.9766 8.1832-16.3997 10.7033-25.2653.7541-4.6241 1.8119-9.2247 2.1718-13.8793.3222-4.1666-.1246-8.3927-.232-12.5925-1.0895-12.1024-5.5555-22.7904-13.7392-31.7794-2.2538-2.4756-5.1297-4.3848-7.7202-6.5539-1.8994-1.3193-3.7282-2.7576-5.711-3.9368-7.4346-4.4216-15.4445-7.5603-23.8466-9.4142-4.9417-1.0904-10.1074-1.1658-15.1724-1.6977-2.0887-.0734-4.1998-.3782-6.2621-.1788-7.4547.7207-15.0573.9081-22.2995 2.6003-11.1479 2.6047-22.0608 6.2308-33.0445 9.52-37.9406 11.3618-75.6855 23.3247-112.8745 36.9811-.6946.2551-1.311.7231-1.9638 1.0919-.2123.0225-.4246.045-.6369.0675.0336.0636.0899.1853.0974.1823.1848-.0724.3645-.158.5451-.2412 3.0755.3576 6.1511.7151 9.2266 1.0727 2.4581.6348 4.9265 1.2324 7.3726 1.9109 10.9516 3.0378 21.2145 7.48 30.0778 14.7793 2.4874 2.0485 5.03 4.0301 7.5472 6.0423.294.5254.4883 1.15.8972 1.561 4.9759 4.9998 9.202 10.5656 12.5824 16.7514 1.9066 3.4889 3.6576 7.0629 5.4796 10.5986.3801 1.2554.7225 2.5238 1.1463 3.7642 2.8415 8.3167 4.7299 16.8238 5.1799 25.6229.0439.228.1186.4548.1272.6842.3623 9.6579.1417 19.2391-1.8798 28.784-1.5761 7.4424-3.5617 14.6871-6.778 21.5766-1.3237 2.8355-2.743 5.6264-4.1187 8.4377.1126.1415.2252.283.3378.4245 2.7051-1.2076 5.4103-2.4152 8.1154-3.6228 2.2744-.9403 4.5417-1.898 6.8242-2.8179 9.677-3.8999 19.3836-7.7279 29.032-11.6973 11.3031-4.6501 22.584-9.3564 33.8244-14.1558 10.8746-4.6433 21.6887-9.4284 32.5231-14.1658 6.0867-2.6615 12.2082-5.2517 18.2076-8.0983 1.5694-.7447 2.741-2.3275 4.0953-3.5253l-.0002-.0037c.3261-.1109.6522-.2218.9783-.3327zm-361.7543 56.5442c-4.691-1.2438-9.4005-2.423-14.0669-3.7534-3.329-.9491-6.6001-2.1013-9.897-3.163-2.1397-1.4987-4.4419-2.815-6.3789-4.5413-2.5507-2.2732-4.8142-4.8685-7.2177-7.3423-.0408.1667-.1582.4452-.1711.7285-.3017 6.6434-.6801 13.2854-.8286 19.9324-.0422 1.8883.5914 3.7916.915 5.688 3.9301 2.5261 7.8603 5.0522 11.7904 7.5782 7.3526 3.987 15.404 5.9072 23.4241 7.9204 5.2057 1.1227 10.3681 2.5507 15.6273 3.2956 7.6564 1.0844 15.3824 1.6769 23.0788 2.479 4.3566.2334 8.7133.4668 13.0699.7002 9.6206-.0355 19.2411-.071 28.831-.1063-.7072-1.216-1.1336-2.0399-1.6423-2.8094-3.7472-5.6691-7.5046-11.3315-11.2746-16.9854-.7391-1.1085-1.2276-2.1183-3.1122-2.1462-8.0182-.1187-16.0311-.5927-24.046-.937-1.712-.1948-3.4239-.3896-5.1354-.585-8.1431-1.3627-16.2924-2.6893-24.4258-4.1075-2.8666-.4998-5.6944-1.2238-8.54-1.8455zm53.7639-18.2908c-.1537-.8305-.2487-1.6772-.4716-2.4887-.9088-3.3091-1.683-6.5948.7173-9.6528.4412-.7179.8824-1.4358 1.3236-2.1537 1.3287-2.0266 2.6574-4.0533 3.9861-6.0799-.0005-1.0119-.0008-1.0048-1.9357-1.0678-26.9606-.8777-53.2559 2.793-78.7518 11.6997-4.547 1.5884-8.9189 3.6778-13.9574 5.7803.9503.8936 1.2833 1.2096 1.6195 1.5222.7323.6809 1.4662 1.3602 2.1995 2.0401.8465.7585 1.6929 1.517 2.5394 2.2756 2.7124 1.6101 5.268 3.6164 8.1641 4.7624 13.1974 5.2224 27.1085 7.7999 41.0126 10.1424 11.6096 1.9559 23.3492 3.1411 35.0319 4.6624 2.167.2822 4.3371.5399 6.8688.854-1.2916-2.6803-2.3919-4.9637-3.4922-7.2471-1.2365-3.7381-2.473-7.4761-3.7095-11.2142-.1261-.4711-.2522-.9422-.3783-1.4133-.2554-.8072-.5108-1.6144-.7663-2.4216zm-115.8891 60.9085c4.736 3.6561 9.4721 7.3122 14.2081 10.9683 5.089 2.3372 10.1645 4.7048 15.2843 6.9726.6318.2799 1.5752.2339 2.2455-.012 4.3996-1.6137 8.7638-3.3238 13.1396-5.0025 8.5627-1.5638 17.1031-3.268 25.6977-4.6308 4.1488-.6578 8.3995-.6733 12.604-.9797 2.003.0829 4.0061.1657 6.0091.2487 1.1079-.0102 2.2158-.0203 3.3237-.0305.2855.0372.571.0744.8566.1116 7.0966.876 14.1933 1.752 21.2899 2.628 9.2769 2.5403 18.5446 5.1149 27.8435 7.5719 1.0187.2692 2.2805.0603 3.3153-.2771 1.5331-.4999 3.0513-1.1776 4.4034-2.0476.7282-.4686 1.5523-1.4941 1.5546-2.2707.015-5.0754-.0704-10.1581-.3643-15.2243-.1264-2.1784-2.0435-3.2298-4.0696-2.8561-9.4853 1.7497-18.9281 3.8752-28.4868 5.038-8.3832 1.0198-16.8985.9806-25.3588 1.3254-3.5259.1437-7.0607.0703-10.592.0956-2.5303-.1744-5.0738-.2394-7.5884-.5429-9.0359-1.0907-18.062-2.262-27.0918-3.4029-2.2248-.545-4.4333-1.1711-6.6771-1.6208-9.5417-1.9122-18.4397-5.385-26.5579-10.7894-5.9351-3.6912-10.5228-8.6098-13.5877-14.9156-.9038-2.6106-1.8075-5.2211-2.8268-8.1653-.2469 1.2262-.5764 2.1208-.5851 3.0184-.0994 10.2629-.1475 20.5263-.216 30.7895-.0119 1.762.5801 3.1703 2.227 4.0002zm16.6736-37.0849c.2053-5.015.4106-10.03.6263-15.2994-5.1396 1.5674-10.0852 3.0798-14.2994 6.2412-.6179.4636-1.169 1.544-1.1161 2.2943.7509 10.6421 5.3571 19.0779 14.5146 24.8287 8.2314 5.3994 17.2428 8.806 26.9111 10.5346 1.7345.3893 3.4578.8409 5.2054 1.1579 12.979 2.3543 26.0789 3.7334 39.2547 3.8068 9.5743.0533 19.1528-.6367 28.7294-.9953 1.9502-.0864 3.9005-.1728 5.8507-.2592-.0072-.1846-.0145-.3691-.0217-.5537-1.9146-.0026-3.8292-.0051-5.7438-.0077-16.3735-.4609-32.6474-1.9374-48.7159-5.1831-14.3946-2.9076-28.6425-6.297-40.6702-15.4705-2.8642-2.3161-5.7019-4.6661-8.6041-6.9335-1.3924-1.0877-2.1362-2.3785-1.921-4.1611zm131.4863-56.8846c.0682-.5496.1364-1.0993.2233-1.7995-.498.1599-.7347.1907-.9229.3028-11.9335 7.1113-20.9646 16.882-26.8701 29.4772-.3094.6599-.0533 1.5849-.0604 2.3865 2.666 6.2781 5.3321 12.5562 7.9981 18.8342.6503 1.2198 1.2077 2.501 1.9663 3.6492 4.146 6.2751 8.3414 12.5175 12.5198 18.7712 4.406 4.6302 8.5199 9.592 13.2974 13.8007 5.1343 4.523 10.8914 8.3389 16.3768 12.4634.5425.426 1.0376.9387 1.6346 1.2649 9.153 5.0006 18.1874 10.2411 27.5146 14.8943 12.7311 6.3513 26.101 11.1751 39.7443 15.199.8187.2415 2.1563-.1234 2.8239-.7013 6.8372-5.9176 13.6139-11.9062 20.3427-17.9471 2.1643-1.9431 4.137-4.0996 6.1961-6.1598.0675-.0765.135-.1531.2025-.2297-.0943.0424-.1886.0847-.2829.1271-4.3938.2505-8.7876.5009-13.1814.7513-4.3206-.5332-8.6413-1.0664-12.9619-1.5995-6.0486-1.5284-12.1424-2.8994-18.136-4.6194-11.1198-3.191-21.6416-7.7999-31.5044-13.8839-2.2915-1.4136-4.6628-2.6979-6.9974-4.0417-.58-.6053-1.1206-1.2553-1.7466-1.8085-3.9864-3.5226-8.1996-6.8181-11.9328-10.5897-3.7904-3.8294-7.1133-8.1217-10.6409-12.2112-1.8559-3.0183-3.9493-5.919-5.516-9.0806-2.8397-5.7305-5.3656-11.6165-8.0225-17.4376-.9259-4.0436-1.9148-8.074-2.763-12.1339-1.2407-5.9391.1668-11.7964.6988-17.6784zm-130.2076 165.0036c.1479.2682.2509.5768.4503.7988 7.6792 8.5491 16.9345 14.8193 27.5939 19.0544 6.6297 1.9286 13.2595 3.8571 19.8892 5.7857.6313.2307 1.246.5829 1.8967.6714 3.2165.4382 6.4425.8067 9.6651 1.1997 7.8302.1158 15.6715.536 23.487.2505 6.1909-.2261 12.3503-1.3176 18.5237-2.0249 5.6697-1.1759 11.4201-2.0575 16.9935-3.5846 14.7691-4.047 27.7845-11.1544 37.9605-22.8817.423-.4875.8095-1.1943.8319-1.8128.2097-5.7796.3442-11.562.4824-17.344.0505-2.1115.0526-4.224.0816-6.7604-.6013.6505-.9012.9671-1.1926 1.2914-1.9566 2.1779-3.6477 4.6928-5.9145 6.476-7.95 6.2537-17.027 10.4828-26.7598 12.9811-7.371 1.8921-14.9655 2.9135-22.4606 4.3223-11.0951.753-22.1879 1.1688-33.2679-.2329-1.0943-.0296-2.1885-.0592-3.2828-.0889-1.6993-.1909-3.3986-.3818-5.098-.5728-8.0828-1.7567-16.1657-3.5135-24.2485-5.2702-2.3934-.6445-4.7869-1.2889-7.1804-1.9334-.9871-.4359-1.9586-.9116-2.9636-1.3012-8.4203-3.2648-16.5588-7.0103-22.9245-13.6944-1.6314-1.713-3.1013-3.58-4.8957-5.6674-.1335 1.0762-.271 1.8061-.3079 2.5411-.3024 6.0251-.3098 12.0816-.9713 18.0661-.4491 4.0643.7561 7.1003 3.6123 9.7311zm191.4565-155.0555c-.3214-.2038-.6281-.4365-.9661-.6072-9.9239-5.0102-20.3123-8.7531-31.1419-11.2351-7.6466-1.7525-15.4163-2.4155-23.3647-2.3463-5.6255 16.53-1.5957 31.6039 6.4156 46.1319.1064.286.1777.5915.3243.8551 8.5952 15.4465 20.5029 27.737 35.6273 36.8195 22.5082 13.5166 47.1271 19.7489 73.2114 20.7167 1.7629.1108 3.5247.2795 5.2892.314 1.398.0273 1.9636-.7253 1.537-2.1031-1.7734-5.7281-3.5526-11.4544-5.3297-17.1813-.1524-.5178-.2624-1.0528-.4633-1.551-8.2158-20.3788-20.4772-38.0013-36.4761-52.9979-7.3236-6.8648-15.6372-12.3904-24.663-16.8153zm-147.4292 99.0334c-11.9174 1.5206-23.3826 4.549-34.0018 10.3248-3.8647 2.1019-7.2107 4.8538-9.468 8.6905-.3794.6448-.3824 2.05.063 2.554 3.0151 3.4125 5.7761 7.2587 9.4015 9.8851 13.0073 9.4234 28.23 13.0358 43.7576 15.6167.4476.1093.89.25 1.3434.3236 15.6166 2.5322 31.3037 3.132 47.0472 1.5227 15.7147-1.6064 30.5752-5.8216 43.7682-14.8692 3.1477-2.1587 6.205-4.4492 9.4647-6.7947-6.7681-5.9395-13.8188-10.6127-21.5289-14.1176-21.0972-9.5908-43.2996-14.6185-66.4769-14.7386-7.787-.0404-15.5798 1.0365-23.37 1.6027zm89.5312-117.8338 8.1654-.1266c6.3231.3825 12.6727.529 18.9596 1.2344 3.8916.4367 7.6879 1.7229 11.5269 2.6279 3.0037 1.0007 6.0075 2.0014 9.0112 3.0022 4.1603 1.7787 8.3206 3.5574 12.481 5.336 2.9196 1.6147 5.8392 3.2294 8.7589 4.844 6.0347 4.4542 12.33 8.6001 18.0452 13.4322 9.4743 8.0105 16.9665 17.8405 24.0644 27.9569 2.7486 4.5577 5.4971 9.1155 8.4725 14.0495 2.4341-2.1389 5.3127-3.8315 7.0465-6.3212 17.6591-25.3571 21.8182-53.1424 14.1457-82.8294-2.5452-9.8479-7.1021-18.7994-13.5456-26.7337-.2503-.386-.4649-.8016-.756-1.1539-15.5174-18.772-35.5189-28.4354-59.7973-29.2141-8.1738-.2622-16.2037.5508-23.8452 3.9614-5.0721 2.2638-10.3623 4.0341-15.5221 6.1072-10.5671 4.2455-18.3826 11.5476-23.7678 21.5356-4.7755 8.8573-7.5236 18.3425-8.3548 28.321-.4271 5.1266-.1814 10.3092-.2432 15.7774 2.1203-.7431 3.6375-1.275 5.1547-1.8068z" fill="#17230e"/><path d="m324.0344 192.8541c-1.8211-3.5356-3.5721-7.1096-5.4786-10.5985-3.3803-6.1858-7.6065-11.7516-12.5824-16.7514-.409-.411-.6032-1.0356-.8972-1.5627 12.7755-5.0816 25.4752-10.3644 38.3502-15.1782 10.5883-3.9588 21.3835-7.3645 32.0891-11.0092 16.2645-5.5371 32.5439-11.0304 48.7922-16.6146 13.6178-4.6801 27.1912-9.489 40.8067-14.1757 2.2429-.772 4.6012-1.2087 6.9061-1.8003 2.5905 2.1691 5.4665 4.0783 7.7202 6.5539 8.1836 8.989 12.6497 19.677 13.7394 31.7794-6.4102 2.0492-12.8201 4.1001-19.2311 6.1473-12.608 4.0262-25.1933 8.1252-37.8306 12.0572-16.9922 5.287-33.9468 10.7187-51.0611 15.5832-18.4485 5.2437-37.0575 9.9244-55.6129 14.788-1.8448.4836-3.8039.5315-5.71.7816zm17.8371-10.9105c.2085-.0394.417-.0789.6254-.1183-.0337-.063-.0927-.183-.0975-.1808-.187.0826-.3689.1765-.5512.2691-.0687.0615-.1374.123-.2061.1844.0765-.0514.1529-.1029.2294-.1544zm13.1478-4.0278c-3.8246.9835-7.6492 1.9671-11.4738 2.9506.1149.3686.2297.7373.3446 1.1059 3.7157-1.3433 7.4313-2.6866 11.1468-4.0303 1.3075-.4641 2.6149-.9281 3.9224-1.3922.7594-.0547 1.5646.0363 2.2712-.1862 8.6114-2.7111 17.2098-5.4637 25.8086-8.2148 8.0172-2.565 16.0518-5.0782 24.0383-7.7358 4.8236-1.605 9.5702-3.4416 14.351-5.1746 1.2011-.2863 2.4022-.5725 3.6033-.8588-.1107-.2795-.2214-.5589-.3321-.8384-1.0977.5547-2.1954 1.1095-3.2931 1.6642-.6867.0332-1.4178-.0765-2.0535.121-9.3642 2.9094-18.7341 5.8026-28.0651 8.8158-9.6327 3.1106-19.2323 6.3247-28.8293 9.5443-2.5369.851-5.0111 1.8891-7.5139 2.8416-1.3085.4626-2.6169.9252-3.9254 1.3877zm-16.7455 4.8747c.0623.2275.1247.455.187.6824.6927-.2606 1.3854-.5212 2.0782-.7818-.0696-.1861-.1393-.3722-.209-.5583-.6854.2193-1.3709.4385-2.0562.6577z" fill="#2f7b00"/><path d="m326.1656 278.5254c-2.7051 1.2076-5.4103 2.4152-8.1154 3.6228-.1126-.1415-.2252-.283-.3378-.4245 1.3758-2.8112 2.795-5.6021 4.1187-8.4377 3.2162-6.8896 5.2018-14.1343 6.778-21.5766 2.0215-9.5448 2.242-19.1261 1.8798-28.784-.0086-.2293-.0833-.4561-.1277-.6842 1.6455-.3705 3.333-.6134 4.9314-1.131 18.3499-5.943 36.7136-11.8459 55.0168-17.9303 12.127-4.0313 24.1219-8.4599 36.248-12.494 17.6198-5.8617 35.2962-11.5536 52.9678-17.2583 3.9641-1.2797 8.0079-2.3126 12.015-3.4591-2.5201 8.8656-6.0886 17.2887-10.7033 25.2653-3.8949 6.7324-8.7985 12.6568-14.6521 17.7583-3.5529 3.0964-7.2675 6.0092-10.9539 8.9487-.7692.6133-1.7339.9814-2.6082 1.462-.3196.1061-.6394.2128-.9592.3194 0 0-.0131.0062-.0131.006-.3261.1108-.6522.2219-.9783.333 0 0 .0002.0037.0001.0035-.7436.1851-1.5132.3003-2.2268.5658-18.4529 6.866-36.9739 13.5577-55.3224 20.6928-12.3731 4.8116-24.5805 10.0752-36.7091 15.4798-7.1107 3.1686-13.9179 7.0174-20.8692 10.5454-2.3921 1.2141-4.938 2.1863-7.1543 3.6591-1.0549.7012-1.5022 2.3166-2.2248 3.5178zm149.3461-95.9853c-.327.1163-.6539.2325-.9809.3488-.3269.1164-.6538.2327-.9808.3491-.4809.0972-.9618.1944-1.4427.2916-4.0557 1.1463-8.1304 2.2302-12.16 3.4619-2.4857.7598-4.9025 1.7451-7.3503 2.6292-.2452.7511-.2452.7511 1.2603.556 5.8707-1.9974 11.743-3.9901 17.6068-6.0079.2592-.0892.4398-.407.6567-.6186.4814-.0966.9627-.1932 1.4439-.29.3279-.115.6557-.23.9833-.3452.3277-.1152.6553-.2305.9827-.3461.2079-.0393.4159-.0785.6238-.1178-.0334-.0628-.0922-.1823-.0966-.1803-.185.0831-.3653.1769-.5462.2693zm-137.2605 48.6417c.1198.2309.2394.4618.3591.6927 5.0038-1.5482 10.0883-2.877 14.9968-4.6841 17.2878-6.365 34.4985-12.9388 51.7706-19.3468 13.6303-5.0569 27.3097-9.9814 40.9608-14.9823 1.035-.3792 2.0184-.8996 3.0258-1.3543-.512-.4163-.8858-.437-1.2195-.3313-4.5005 1.4264-9.051 2.7184-13.4822 4.3362-19.718 7.1991-39.3993 14.4986-59.0983 21.7499-11.4798 4.2258-22.9697 8.4243-34.4491 12.6513-.9778.36-1.9104.8429-2.864 1.2687z" fill="#2e7a00"/><path d="m472.0206 105.1635c-2.3049.5917-4.6633 1.0283-6.9061 1.8003-13.6155 4.6867-27.1889 9.4956-40.8067 14.1757-16.2483 5.5841-32.5278 11.0775-48.7922 16.6146-10.7056 3.6447-21.5008 7.0504-32.0891 11.0092-12.875 4.8138-25.5747 10.0965-38.3502 15.1782-2.5173-2.0105-5.0599-3.9921-7.5473-6.0406-8.8633-7.2993-19.1262-11.7416-30.0778-14.7793-2.446-.6785-4.9145-1.276-7.3726-1.9104 1.3364-.6635 2.6124-1.5196 4.0185-1.962 15.4118-4.8495 30.8348-9.6636 46.2739-14.4254 8.6442-2.6661 17.3047-5.2834 25.9926-7.8027 12.3223-3.5731 24.6763-7.0368 37.0175-10.5448 14.5713-4.142 29.1404-8.2916 43.7168-12.4153 3.913-1.107 7.8493-2.1317 12.351-3.3501-1.1419-.3154-1.6501-.4557-2.1582-.596 5.0649.5319 10.2307.6073 15.1724 1.6977 8.402 1.8539 16.412 4.9926 23.8466 9.4142 1.9827 1.1792 3.8114 2.6174 5.7109 3.9367z" fill="#48980c"/><path d="m290.3073 278.3694c-7.0979-10.1164-14.5901-19.9465-24.0644-27.9569-5.7152-4.8321-12.0105-8.978-18.0452-13.4322 1.4461-1.6252 2.8921-3.2505 4.0852-4.5914 2.0975.5361 4.1403 1.0583 6.1829 1.5807.298.0484.5963.0965.8946.1445 1.4673 4.4679 5.4233 5.4688 9.2849 6.5304-1.0628 3.9678.163 7.0853 3.1447 7.5948 1.2734.2176 3.1255.2022 3.9072-.5483 1.3971-1.3414 2.182-3.3204 3.2955-5.1523 4.0546 1.4865 5.8808-.7595 6.8601-3.3195 1.2129-3.1706-.5598-5.398-5.3894-7.0375-.0572-1.6512.0759-3.3689-.2275-5.0057-.305-1.6453.2846-2.0797 1.7472-2.5527 2.9056-.9396 4.4892-3.3382 5.0078-6.1809.5855-3.2101-1.2583-6.8269-4.0807-7.8548-2.2018-.8019-4.651-.9249-7.1903-1.3858.2245-3.1027-.1564-6.2855-3.587-8.4385-3.5521-2.2293-6.4577-.6079-9.4999 1.0986-.3828-2.0976-.7502-4.1104-1.0175-5.5751 1.4725-1.7016 3.1388-2.9411 3.8373-4.5905 1.1299-2.668-.3994-5.3075-3.0891-6.3456-2.4936-.9624-4.9774.0456-6.3485 2.6867-.5262 1.0135-1.0154 1.4857-2.3113 1.2299-2.0832-.4112-4.2568-.8244-6.3461-.658-6.2627.4986-11.3433 7.3457-10.765 12.4769.2723 2.4166.1999 4.4343-2.5047 5.894-2.7199 1.468-3.8578 5.6701-2.985 8.392.9889 3.0842 4.1826 5.6597 7.1673 5.7799 3.4624.1395 6.6462-1.7707 7.8417-4.99.5737-1.5451 1.5453-1.779 2.9602-1.8897 1.3829-.1082 2.2966.0274 3.0329 1.4245.3191.6056 1.844 1.2087 2.3397.9364.702-.3856 1.036-1.5535 1.3667-2.4465.1293-.3492-.1763-.8594-.2026-.9663 1.852-1.8294 3.5049-3.462 5.3044-5.2395 1.6216 5.5797 5.301 7.3501 10.5406 6.103.0461 3.7455-.0752 3.9109-2.5814 3.8475-.3004-.0462-.6009-.0924-.9014-.1387-1.0562-2.6903-3.5525-2.4684-5.6445-2.4334-2.062.0345-3.5161 1.4024-3.9027 3.5981-.1757.1342-.3514.2683-.527.4025-4.4286-.1147-6.1898 2.9935-7.4613 5.973-2.1274-.2639-4.1176-.943-5.9528-.6504-4.0851.6513-4.8981 3.9185-5.0438 7.4538-4.1603-1.7787-8.3206-3.5574-12.481-5.336-.0909-2.1852.4428-3.8251 2.2164-5.558 2.8775-2.8115.7542-7.804-3.2998-8.0993-1.664-.1212-3.4003.7484-5.3242 1.2215-.2031-.33-.5713-.9944-1.0017-1.6157-1.3057-1.8846-4.5945-2.5971-6.6369-1.4598-2.0724 1.154-3.06 4.0406-2.1384 6.2503 1.2949 3.1047 4.4122 4.0962 7.5111 2.4829.5409-.2816 1.2997-.1447 1.9578-.2011-.2272.6986-.3458 1.4614-.7103 2.0789-.4135.7005-1.0472 1.2711-1.5852 1.8981-3.8391-.9049-7.6353-2.1912-11.5269-2.6279-6.2869-.7055-12.6365-.8519-18.9596-1.2344.1009-.6902.0991-1.415.3185-2.0652 2.1662-6.4192 4.2038-12.8884 6.5954-19.2236 5.1658-13.6835 14.8219-22.8845 28.5434-27.8514 12.4644-4.5119 25.0003-4.2392 37.5448-.4028 12.1662 3.7207 22.324 10.5551 30.1214 20.5696 6.3846 8.2 10.6826 17.527 13.005 27.6938 2.6652 11.6669 4.3878 23.3357 1.2551 35.2674-2.1414 8.1561-5.6413 15.511-11.2036 21.8394-.9152 1.041-2.2125 1.746-3.3331 2.6063zm-65.0389-75.7501c1.0085-4.4188-2.1502-7.9997-6.6319-8.6619-3.4654-.512-7.7356 2.082-8.1276 6.2729-.4369 4.6709 2.0812 8.345 6.4128 8.8964 4.1972.5344 7.8062-2.2794 8.3467-6.5074z" fill="#dcf3cc"/><path d="m491.5402 169.9686c-4.0071 1.1465-8.0509 2.1794-12.015 3.4591-17.6715 5.7046-35.348 11.3965-52.9678 17.2583-12.1261 4.0341-24.121 8.4626-36.248 12.494-18.3032 6.0845-36.6668 11.9873-55.0168 17.9303-1.5984.5177-3.2859.7605-4.9314 1.131-.4495-8.799-2.338-17.3062-5.1794-25.6228-.4238-1.2405-.7662-2.5088-1.1468-3.7643 1.9055-.2502 3.8647-.2981 5.7095-.7817 18.5555-4.8636 37.1644-9.5443 55.6129-14.788 17.1143-4.8645 34.0689-10.2962 51.0611-15.5832 12.6373-3.932 25.2226-8.031 37.8306-12.0572 6.411-2.0473 12.8209-4.0981 19.2311-6.1473.1073 4.1998.554 8.4259.2318 12.5925-.36 4.6546-1.4177 9.2552-2.1718 13.8793z" fill="#47980c"/><path d="m290.3073 278.3694c1.1206-.8603 2.4179-1.5653 3.333-2.6064 5.5623-6.3285 9.0622-13.6833 11.2036-21.8394 3.1327-11.9317 1.4101-23.6005-1.2551-35.2674-2.3224-10.1668-6.6204-19.4938-13.005-27.6938-7.7974-10.0145-17.9552-16.8489-30.1214-20.5696-12.5444-3.8363-25.0803-4.1091-37.5448.4028-13.7215 4.9669-23.3775 14.1679-28.5434 27.8514-2.3917 6.3352-4.4293 12.8044-6.5954 19.2236-.2194.6502-.2176 1.375-.3185 2.0652-2.7218.0422-5.4436.0844-8.1659.1256-.2007-.3103-.5937-.6337-.5723-.9269.2919-4.0029.2189-8.0929 1.0597-11.9834 2.082-9.6349 6.5083-18.3033 12.2296-26.2704 4.5329-6.3123 9.7626-12.014 16.657-15.8435 6.8771-3.8199 13.8517-7.4657 20.8134-11.1311 1.6905-.8901 3.4489-2.061 5.2604-2.2374 6.4261-.6259 12.8979-1.3094 19.3353-1.1714 10.0021.2145 19.448 3.2726 27.771 8.6712 8.1326 5.2751 15.6444 11.5066 23.4503 17.289.255.1889.7465.0587 1.1277.0773 6.4434 7.9343 11.0004 16.8858 13.5456 26.7337 7.6726 29.687 3.5135 57.4723-14.1457 82.8294-1.7339 2.4897-4.6125 4.1823-7.0465 6.3212-2.9755-4.9342-5.7241-9.4919-8.4726-14.0497z" fill="#cfedba"/><path d="m89.7636 337.8962c7.7902-.5662 15.583-1.6431 23.37-1.6027 23.1772.12 45.3797 5.1478 66.4769 14.7386 7.71 3.5049 14.7608 8.1781 21.5289 14.1176-3.2597 2.3456-6.317 4.636-9.4647 6.7947-13.1931 9.0476-28.0535 13.2629-43.7682 14.8692-15.7435 1.6093-31.4306 1.0095-47.0472-1.5227-.4534-.0735-.8959-.2142-1.3435-.3256-.47-.4708-.8558-1.1447-1.4227-1.3771-6.3415-2.6007-12.7377-5.069-19.0664-7.7-8.7257-3.6276-17.1515-7.8214-24.5934-13.7542-1.5809-1.2603-3.1154-2.5789-4.6776-3.8759 3.6828-4.071 7.8806-6.7661 12.572-8.665 8.6551-3.5033 17.3578-6.8886 26.0208-10.3728.5589-.2248.9474-.8729 1.4151-1.3241zm11.3549 22.0439c.3524.9266.7048 1.8531 1.1051 2.9056.7526-.7605 1.3719-1.3863 2.1563-2.179-1.1757-.6151-2.1628-1.1315-3.1499-1.6479 1.8364-1.8684 1.9115-4.7914-.1964-6.6311-.2439 1.9663-.4553 3.6696-.6799 5.4806-3.6962-2.111-5.2868-1.8121-8.5723 1.391-.6292-.8049-1.6736-1.5443-1.8125-2.4264-.484-3.073.9245-5.4754 3.8356-7.3362-8.5352-.4979-36.7934 6.4208-39.1807 9.7905 25.7819 17.4011 54.272 22.7317 85.2528 18.6141-3.2605-1.9034-5.7951-3.9561-5.7817-7.7721.155.0188.3101.0377.4651.0565 3.3067 1.3272 5.2457.9809 7.2777-1.3265 1.7764-2.0172 1.1565-4.3075.7176-6.5727 2.2593 1.2686 4.5187 2.5373 7.0342 3.9498.4579-.6581 2.0576-1.9204 1.9706-3.0532-.169-2.1992.6519-3.1438 2.465-3.6124-.0204-.3011-.0062-.4586-.0445-.602-.6666-2.4959.1588-4.5668 2.0697-5.1765 1.7356-.5539 4.3713.7961 4.9187 2.5193.6193 1.9496-.6172 4.0351-2.8877 4.8702-1.8746.6895-2.6727 2.811-1.7051 4.6403.8294 1.5681.7097 3.0172-.5747 4.237-1.2319 1.17-2.5934 2.0027-4.3632.9164-.484-.297-1.0904-.3946-1.6555-.5887-.5367 1.2898-.894 2.4901-1.5116 3.5368-.6264 1.0616-1.5098 1.9716-2.4957 3.2204 18.0312-1.4797 34.0146-8.5172 50.8032-13.6364-.4973-.5198-.6249-.7343-.8134-.8387-8.8999-4.9284-18.4046-8.2256-28.3017-10.4529-3.1518-.7093-6.2876-1.5544-9.4774-2.0126-3.6307-.5215-7.3137-.6796-10.974-.9956-.8621-.5777-1.7186-1.1642-2.5875-1.7314-2.3664-1.5447-4.4834-.1918-6.6489.5844-1.7556-.2176-3.5128-.6184-5.2662-.6025-1.85.0167-3.6963.4308-5.5442.6714-.4571-.0571-.9142-.1142-1.3712-.1712-1.3048-.1626-2.6082-.4481-3.9146-.462-2.6872-.0287-5.376.0878-8.4329.1523 2.5854 2.6653 4.2046 5.2314 2.3024 8.5183-1.1795 2.0381-2.8264 3.4677-5.4511 2.9851.12-.5259.1889-1.0699.3684-1.5747 1.0084-2.8363.734-4.6798-1.492-6.4067-.8618-.6685-2.3173-.912-3.4264-.7673-.499.0651-1.0582 1.5274-1.1638 2.407-.3441 2.8645 1.4316 5.279 4.3597 6.2274-.1064.5678-.5053 1.3836-.2698 1.6613 1.1696 1.379 2.5064 2.6161 3.7843 3.9032-.0758.6155-.1516 1.231-.2273 1.8465-.4088.4631-.895.8785-1.2139 1.3969-2.0226 3.2879-5.6875 3.567-7.9431.4299-.7737-1.0761-1.0181-2.5327-1.4239-3.6033-.7225.4941-1.5267 1.0913-2.3764 1.615-1.633 1.0066-4.6819.7112-6.1069-.5521-1.5478-1.3722-2.099-3.7657-1.2808-5.5618 3.2133 2.7257 6.3449 2.1379 9.4324-.2333z" fill="#ceecb9"/><path d="m297.2987 329.1974c-26.0843-.9678-50.7032-7.2001-73.2114-20.7167-15.1244-9.0825-27.032-21.373-35.6273-36.8195-.1467-.2635-.2179-.5691-.3243-.8551.0611-.6988.2878-1.4307.1556-2.0908-.7122-3.558-1.4412-7.1158-2.2982-10.6412-2.1667-8.9131-2.404-17.8782-.8334-26.894.1191-.6835.7438-1.279 1.1334-1.9153 1.3794 6.1745 2.3601 12.4722 4.2216 18.4978 3.8045 12.3148 10.7995 22.8559 19.3648 32.3854 7.3563 8.1843 16.0087 14.8149 25.5254 20.2117 12.5934 7.1416 26.4702 10.1367 40.7491 11.3052 4.8738.3989 9.8078.0615 15.4232.0604-.9855-2.9003-1.639-5.3266-2.616-7.615-5.3547-12.542-12.4102-23.9534-21.9789-33.8058-8.3699-8.618-17.6556-16.0519-28.1926-21.7032-9.5927-5.1448-19.489-9.7639-29.4505-14.1643-5.1063-2.2556-10.6477-3.5263-15.9925-5.2421.403-.259.8443-.788 1.2032-.737 6.8459.9721 13.8186 1.4787 20.4833 3.1832 7.1951 1.84 14.0987 4.818 21.1378 7.2759.2979.104.6793-.0308 1.0218-.0543 9.0258 4.4249 17.3394 9.9505 24.6629 16.8152 15.9989 14.9967 28.2603 32.6191 36.4761 52.9979.2009.4983.3109 1.0332.4633 1.551-2.2605.5063-4.521 1.0125-7.028 1.574 1.3159 3.9034 2.5966 7.5931 3.7974 11.3085.6486 2.0067 1.1606 4.0574 1.7342 6.0881z" fill="#ceecb9"/><path d="m298.7294 333.3516c-2.0603 2.0589-4.033 4.2155-6.1973 6.1586-6.7288 6.041-13.5055 12.0296-20.3427 17.9471-.6677.5779-2.0053.9427-2.8239.7013-13.6432-4.0239-27.0131-8.8477-39.7443-15.199-9.3272-4.6531-18.3616-9.8937-27.5146-14.8943-.597-.3262-1.0921-.8389-1.6345-1.2654.414-.6305.7489-1.3337 1.2545-1.8786 3.1279-3.3712 6.2959-6.7051 9.447-10.0547 1.5682-1.667 3.129-3.3411 4.6931-5.0119 2.3345 1.3438 4.7058 2.6281 6.9974 4.0417 9.8628 6.084 20.3846 10.6929 31.5044 13.8839 5.9936 1.72 12.0874 3.0909 18.1361 4.6193 3.0555.5349 6.1021 1.1307 9.1706 1.5748 1.239.1793 2.5261.0265 3.7912.0248 4.3938-.2504 8.7876-.5009 13.1814-.7513z" fill="#2e7a00"/><path d="m147.2646 392.3415c7.4951-1.4088 15.0896-2.4302 22.4606-4.3223 9.7328-2.4984 18.8098-6.7274 26.7598-12.9811 2.2668-1.7831 3.9579-4.298 5.9145-6.476.2914-.3243.5914-.641 1.1926-1.2914-.029 2.5364-.0311 4.6489-.0816 6.7604-.1382 5.782-.2727 11.5644-.4824 17.344-.0224.6185-.4089 1.3253-.8319 1.8128-10.176 11.7272-23.1914 18.8347-37.9605 22.8817-5.5735 1.5272-11.3238 2.4088-16.994 3.5843.2892-7.5454.6352-15.0891.8222-22.6367.0384-1.5512-.5174-3.1169-.7993-4.6757z" fill="#2e7a00"/><path d="m147.2646 392.3415c.2819 1.5589.8377 3.1245.7993 4.6755-.187 7.5477-.533 15.0914-.8222 22.6367-6.1729.7076-12.3322 1.7992-18.5232 2.0252-7.8155.2855-15.6568-.1347-23.4872-.2504-.0015-.1533-.0068-.3066-.0159-.4597.3082-5.9224.7533-11.8419.8762-17.7681.0811-3.913-.3009-7.8356-.4756-11.7538 1.6993.1909 3.3986.3818 5.0978.5734 1.0942.0298 2.1886.059 3.283.0882 11.08 1.4018 22.1727.986 33.2678.233z" fill="#47980c"/><path d="m306.4265 176.5347c-.3812-.0186-.8727.1116-1.1277-.0773-7.8059-5.7825-15.3177-12.014-23.4503-17.289-8.323-5.3986-17.7689-8.4566-27.771-8.6712-6.4374-.1381-12.9092.5454-19.3353 1.1714-1.8115.1765-3.5699 1.3474-5.2604 2.2374-6.9617 3.6655-13.9362 7.3113-20.8134 11.1311-6.8944 3.8295-12.1241 9.5312-16.657 15.8435-5.7213 7.9671-10.1476 16.6355-12.2296 26.2704-.8407 3.8905-.7677 7.9805-1.0597 11.9834-.0214.2932.3716.6166.5723.9269-1.5168.5328-3.034 1.0647-5.1544 1.808.0618-5.4683-.1839-10.6509.2432-15.7774.8313-9.9786 3.5793-19.4637 8.3548-28.321 5.3851-9.988 13.2007-17.2901 23.7678-21.5356 5.1597-2.073 10.45-3.8433 15.5221-6.1072 7.6415-3.4107 15.6714-4.2236 23.8452-3.9614 24.2785.7787 44.2799 10.442 59.7973 29.2141.2912.3522.5057.7678.7561 1.1539z" fill="#def1d0"/><path d="m148.5272 277.0247c1.1003 2.2834 2.2006 4.5668 3.4922 7.2471-2.5317-.3141-4.7018-.5719-6.8688-.854-11.6827-1.5214-23.4222-2.7065-35.0319-4.6624-13.9041-2.3425-27.8152-4.92-41.0126-10.1424-2.896-1.146-5.4517-3.1523-8.1641-4.7624.3399-.3788.6105-.9602 1.0308-1.1042 3.2159-1.1012 6.4713-2.0869 9.692-3.1749 1.2408-.4191 2.4236-1.0101 3.8-1.5937-1.2576-1.202-2.1809-2.0845-3.1041-2.9669 7.3402-2.3562 14.5467-5.359 22.0531-6.912 10.4033-2.1523 21.0082-3.4134 31.5721-4.678 7.7097-.9229 15.4925-1.2357 23.2427-1.8205-1.3287 2.0266-2.6574 4.0533-3.9861 6.0799-4.272-.0039-8.5465-.0984-12.8148.0254-2.2402.0649-4.4694.5121-6.7035.7866-3.3152-1.8759-4.1083-1.7539-6.9908 1.0103-.9529.9138-1.7621 1.11-2.5153-.3361-1.0601-2.0354-2.9056-2.9866-5.1356-2.7284-2.5858.2994-4.7321 1.3891-5.344 4.2728-.7636.0336-1.5574-.0568-2.2862.1201-6.8166 1.6553-13.6306 3.3235-20.4256 5.0648-2.0244.5188-3.9866 1.28-5.9773 1.9301-.0295.2694-.0589.5388-.0884.8081 2.8017 1.6976 5.5336 3.5256 8.4178 5.0693 10.3675 5.5489 21.5974 8.6397 33.0827 10.5235 9.4446 1.5491 19.0424 2.1671 28.5759 3.1625.4787.0501.9924-.2354 1.4898-.3646z" fill="#ceecb9"/><path d="m105.616 391.4469c.1747 3.9182.5567 7.8409.4756 11.7538-.1228 5.9262-.568 11.8457-.8756 17.7682-3.8484-.4704-7.6973-.9411-11.5463-1.4117-6.6298-1.9286-13.2595-3.8571-19.8893-5.7855-1.2749-8.6447-.7885-17.292-.1023-25.9476.1383-1.7441.7768-2.2164 2.4838-1.9366 1.7051.2795 3.468.2073 5.2055.2892 8.0829 1.7568 16.1657 3.5135 24.2486 5.2702z" fill="#2e7a00"/><path d="m427.2907 90.1149c.5081.1403 1.0162.2806 2.1582.596-4.5017 1.2184-8.438 2.2431-12.351 3.3501-14.5764 4.1237-29.1455 8.2733-43.7168 12.4153-12.3411 3.5081-24.6952 6.9717-37.0175 10.5448-8.688 2.5193-17.3484 5.1366-25.9926 7.8027-15.4391 4.7618-30.8622 9.5759-46.2739 14.4254-1.4061.4424-2.6821 1.2985-4.0185 1.962-3.0755-.358-6.1511-.7156-9.2266-1.0732l-.0057-.0087c.6529-.3687 1.2692-.8368 1.9638-1.0918 37.189-13.6564 74.9339-25.6193 112.8745-36.9811 10.9837-3.2892 21.8965-6.9153 33.0445-9.52 7.2422-1.6921 14.8448-1.8795 22.2995-2.6003 2.0623-.1994 4.1734.1053 6.2621.1788z" fill="#62bb1a"/><path d="m215.8669 309.8546c-1.5641 1.6708-3.1248 3.3449-4.6931 5.0119-3.1511 3.3496-6.3191 6.6836-9.447 10.0547-.5056.545-.8406 1.2481-1.2545 1.8786-5.4855-4.1239-11.2426-7.9398-16.3769-12.4628-4.7774-4.2086-8.8914-9.1704-13.2966-13.8004.2799-.1268.5861-.2148.8343-.3864 4.8901-3.3812 9.8222-6.7049 14.634-10.1945 1.8995-1.3776 3.5278-3.1292 5.2796-4.7105 3.5276 4.0896 6.8505 8.3818 10.6409 12.2112 3.7332 3.7715 7.9463 7.067 11.9328 10.5897.6259.5531 1.1664 1.2032 1.7465 1.8085z" fill="#47980c"/><path d="m121.1525 330.5299c-.2855-.0372-.5711-.0744-.857-.1117-1.108.0101-2.2157.0204-3.3232.0306-2.003-.0829-4.0061-.1658-6.0098-.2489-.0919-1.8958-.183-3.7914-.2742-5.6871 3.5307-.0253 7.0655.0482 10.5914-.0955 8.4603-.3448 16.9756-.3055 25.3588-1.3254 9.5587-1.1628 19.0015-3.2883 28.4868-5.038 2.0261-.3737 3.9432.6776 4.0696 2.8561.294 5.0663.3793 10.1489.3643 15.2243-.0023.7766-.8264 1.8021-1.5546 2.2707-1.3521.8701-2.8702 1.5478-4.4034 2.0476-1.0348.3374-2.2966.5463-3.3153.2771-9.2989-2.4569-18.5666-5.0316-27.8436-7.5719-.4685-.2142-.92-.5596-1.408-.6227-6.1185-.7907-12.2409-1.5515-18.367-2.2804-.4871-.0579-1.0091.1766-1.5148.2752z" fill="#2e7a00"/><path d="m122.8747 286.2201c1.712.1948 3.4239.3896 5.1358.5843-.183.4195-.5021.8307-.5285 1.2599-.4222 6.8535-.8069 13.7092-1.2002 20.5644-.0324.1534-.0647.3068-.0971.4602-7.6963-.8022-15.4224-1.3946-23.0788-2.4791-5.2592-.7449-10.4216-2.1729-15.6272-3.2953.6148-6.3129 1.2295-12.6262 1.8447-18.9399.0005-.0004.0709-.0563.0709-.0563 1.956.403 3.8949.9948 5.8712 1.1747 6.7437.6135 13.4944 1.2067 20.2556 1.5397 2.432.1198 4.9013-.5196 7.3536-.8126z" fill="#48980c"/><path d="m191.5466 285.2451c-1.7518 1.5813-3.3801 3.3329-5.2796 4.7105-4.8118 3.4896-9.7439 6.8133-14.634 10.1945-.2483.1716-.5544.2597-.8343.3864-4.1792-6.2539-8.3746-12.4963-12.5205-18.7714-.7586-1.1482-1.316-2.4294-1.9663-3.6494 1.3036-1.2473 2.6845-2.4239 3.8976-3.7536 5.357-5.8723 10.797-11.6393 17.7987-15.6352 2.6569 5.8211 5.1828 11.7071 8.0225 17.4376 1.5667 3.1617 3.66 6.0623 5.5159 9.0806z" fill="#2e7a00"/><path d="m126.2818 308.6287c.3933-6.8552.7781-13.7109 1.2002-20.5644.0265-.4293.3455-.8405.5285-1.2599 8.0149.3445 16.0278.8185 24.046.9372 1.8846.0279 2.3731 1.0378 3.1122 2.1462 3.7701 5.6539 7.5274 11.3163 11.2746 16.9854.5087.7695.9351 1.5934 1.6423 2.8094-9.5899.0353-19.2104.0708-28.8312.1061-.1749-.1407-.3423-.3933-.5253-.4052-4.1481-.2674-8.2979-.5086-12.4473-.7548z" fill="#2e7a00"/><path d="m72.6614 335.8106c-4.3758 1.6787-8.74 3.3888-13.1396 5.0025-.6703.2459-1.6137.2918-2.2455.012-5.1197-2.2678-10.1953-4.6354-15.285-6.9728-.1291-1.6002-.2928-3.1982-.3797-4.8004-.3805-7.0065.0485-13.9703 1.1608-20.895 8.1182 5.4044 17.0161 8.8772 26.5579 10.7894 2.2439.4497 4.4523 1.0758 6.6769 1.6219-.397.5569-1.0442 1.0687-1.1507 1.6754-.792 4.5118-1.4767 9.0424-2.1951 13.567z" fill="#2e7a00"/><path d="m81.3675 386.1768c-1.7376-.0819-3.5004-.0097-5.2055-.2892-1.707-.2798-2.3456.1925-2.4838 1.9366-.6862 8.6556-1.1726 17.3028.1023 25.9476-10.6593-4.2353-19.9147-10.5055-27.5939-19.0546-.1994-.222-.3023-.5306-.4502-.7989.6068-7.2254 1.2135-14.4507 1.8743-22.3192 6.3367 6.7788 13.9765 9.9134 21.7783 12.7036 1.4917.5335 3.2329 1.7646 4.7983-.0593 2.3933.6444 4.7867 1.2889 7.1802 1.9334z" fill="#48980c"/><path d="m178.0081 258.7269c-7.0017 3.9959-12.4417 9.763-17.7987 15.6352-1.213 1.3297-2.594 2.5063-3.8976 3.7536-2.666-6.2779-5.332-12.5559-7.998-18.8341.5677-.3905 1.228-.694 1.6894-1.1846 6.9891-7.4329 14.6723-14.0818 22.8255-20.1924 1.2721-.9534 1.9483-2.0004 2.0915-3.6156.1602-1.8075.6675-3.5842 1.0238-5.3743-.532 5.8819-1.9395 11.7393-.6987 17.6783.848 4.0599 1.8369 8.0903 2.7628 12.1339z" fill="#47980c"/><path d="m326.1656 278.5254c.7226-1.2012 1.1699-2.8166 2.2248-3.5177 2.2163-1.4728 4.7622-2.445 7.1543-3.6591 6.9513-3.528 13.7585-7.3768 20.8692-10.5454 12.1286-5.4046 24.336-10.6682 36.7091-15.4798 18.3484-7.1351 36.8694-13.8269 55.3224-20.6928.7136-.2655 1.4832-.3808 2.2267-.5658-1.3542 1.198-2.5258 2.7809-4.0952 3.5255-5.9994 2.8466-12.1209 5.4369-18.2076 8.0983-10.8344 4.7374-21.6485 9.5225-32.5231 14.1658-11.2404 4.7994-22.5213 9.5057-33.8244 14.1558-9.6484 3.9694-19.3549 7.7974-29.032 11.6973-2.2825.9199-4.5498 1.8776-6.8242 2.8179z" fill="#226300"/><path d="m148.5272 277.0247c-.4974.1292-1.0111.4146-1.4898.3646-9.5336-.9954-19.1313-1.6134-28.5759-3.1625-11.4853-1.8838-22.7152-4.9746-33.0827-10.5235-2.8841-1.5436-5.616-3.3717-8.4178-5.0693.0294-.2694.0589-.5387.0884-.8081 1.9907-.6501 3.9529-1.4113 5.9773-1.9301 6.795-1.7413 13.609-3.4094 20.4256-5.0648.7288-.177 1.5226-.0865 2.2862-.1202-1.2613 4.4591 1.351 6.808 4.9703 8.4158-1.8747.8214-3.4457 1.5097-5.0129 2.1964-1.0963-2.9461-2.8016-4.0783-4.9397-3.3187-1.999.7101-3.0245 2.6702-2.4379 4.6596.7438 2.5223 2.754 3.0971 6.5703 1.8788 1.5988 3.9111 3.2325 4.6181 7.3195 3.3723.7215-.2199 1.606.1154 2.417.1649 2.0624.1257 4.3812 1.8184 5.9775-.9605.3045.0409.609.0818.9134.1227.6193 2.3535 2.681 2.0571 4.398 2.394.3024.0452.6048.0903.9073.1355.9254.8867 1.715 2.2787 2.8003 2.5705 4.1627 1.1189 6.1545-.0921 8.6853-4.7149 3.8224 1.1669 4.0897 1.0923 6.5107-1.8165 1.2366 3.7379 2.4731 7.4759 3.7096 11.214z" fill="#dcf3cc"/><path d="m89.3229 284.375c-.6147 6.3132-1.2294 12.6265-1.8442 18.9395-8.0201-2.0135-16.0715-3.9337-23.424-7.9218.4891-6.3783.9781-12.7556 1.4668-19.1333 7.5019 3.9713 15.3746 6.856 23.8014 8.1156z" fill="#2e7a00"/><path d="m54.9827 296.894c12.0277 9.1735 26.2756 12.5629 40.6702 15.4705 16.0685 3.2457 32.3424 4.7222 48.7158 5.1831-.0284.2735-.0567.547-.085.8205-9.5766.3586-19.1551 1.0487-28.7294.9953-13.1758-.0734-26.2757-1.4525-39.2547-3.8068-1.7476-.317-3.4709-.7686-5.2054-1.1579-.158-.3282-.2373-.7412-.4858-.972-3.9869-3.7018-8.0974-7.2781-11.9484-11.1151-1.5181-1.5124-2.4685-3.5947-3.6773-5.4176z" fill="#d6edc6"/><path d="m89.7636 337.8962c-.4677.4512-.8562 1.0993-1.415 1.324-8.663 3.4841-17.3658 6.8694-26.0208 10.3728-4.6914 1.8989-8.8892 4.5941-12.572 8.665 1.5622 1.2971 3.0967 2.6156 4.6776 3.8759 7.4419 5.9327 15.8677 10.1265 24.5934 13.7542 6.3286 2.631 12.7248 5.0993 19.0664 7.7.5669.2325.9527.9063 1.4227 1.3771-15.5275-2.5789-30.7502-6.1913-43.7575-15.6147-3.6253-2.6264-6.3864-6.4726-9.4015-9.8851-.4454-.504-.4423-1.9092-.063-2.554 2.2573-3.8367 5.6033-6.5886 9.468-8.6905 10.6191-5.7757 22.0843-8.8041 34.0017-10.3247z" fill="#def1d0"/><path d="m54.9827 296.894c1.2089 1.8228 2.1592 3.9052 3.6773 5.4177 3.851 3.837 7.9614 7.4133 11.9484 11.1151.2485.2307.3278.6438.4858.972-9.6683-1.7286-18.6798-5.1353-26.9112-10.5348-.1479-.7393-.1383-1.5605-.4727-2.2025-1.0982-2.1084-2.4177-4.1038-3.4762-6.2301-2.2211-4.4619-4.4162-8.9422-6.4013-13.5108-.3326-.7654.1366-2.6153.7607-2.9335 2.762-1.4081 5.7158-2.4399 8.8203-3.6971-.0425.9054-.0005 1.4486-.108 1.9603-.1567.746-.41 1.4729-.6412 2.2019-.8898 2.8059-.1283 5.5131 1.7931 6.347-.2152 1.7826.5286 3.0733 1.9209 4.1612 2.9022 2.2675 5.7399 4.6175 8.6041 6.9336z" fill="#ceecb9"/><path d="m42.7725 308.1569c-1.1123 6.9247-1.5413 13.8884-1.1608 20.895.087 1.6022.2507 3.2002.3797 4.8004-4.7353-3.6558-9.4714-7.3119-14.2074-10.9692.3473-6.2809.7216-12.5594 1.0313-18.8409.1774-3.5976.2498-7.2004.3695-10.8008 3.0649 6.3057 7.6526 11.2243 13.5877 14.9155z" fill="#47980c"/><path d="m72.6614 335.8106c.7184-4.5247 1.4031-9.0553 2.1951-13.567.1065-.6067.7537-1.1185 1.1507-1.6754 9.03 1.1397 18.0561 2.3111 27.092 3.4017 2.5147.3036 5.0582.3685 7.5887.5429.0914 1.8956.1826 3.7912.2745 5.6871-4.2038.3066-8.4545.3221-12.6033.9799-8.5945 1.3628-17.135 3.067-25.6977 4.6308z" fill="#47980c"/><path d="m237.1928 238.8628c-.3425.0235-.7238.1583-1.0218.0543-7.039-2.4579-13.9427-5.4359-21.1378-7.2759-6.6647-1.7044-13.6374-2.2111-20.4833-3.1832-.359-.051-.8003.478-1.2032.737-2.3559-.447-4.716-1.3207-7.0536.0699-.3896.6364-1.0143 1.2318-1.1334 1.9153-1.5706 9.0158-1.3334 17.9809.8334 26.894.857 3.5254 1.586 7.0832 2.2982 10.6412.1321.6601-.0945 1.392-.1556 2.0908-8.0113-14.528-12.041-29.6019-6.4156-46.1319 7.9484-.0692 15.7181.5938 23.3647 2.3463 10.8296 2.482 21.218 6.2249 31.1419 11.2351.338.1706.6448.4033.9661.6071z" fill="#dcefce"/><path d="m149.2286 241.6005c-7.7502.5848-15.533.8976-23.2427 1.8205-10.5639 1.2646-21.1688 2.5257-31.5721 4.678-7.5064 1.553-14.7129 4.5558-22.0531 6.912-4.5052 1.9249-9.0135 3.8427-13.5062 5.7963-.2203.0958-.3044.5047-.4519.7678-.7332-.6799-1.4671-1.3592-2.1995-2.0401-.3362-.3126-.6692-.6286-1.6195-1.5222 5.0385-2.1025 9.4104-4.1918 13.9574-5.7803 25.4959-8.9066 51.7911-12.5773 78.7518-11.6997 1.935.0629 1.9353.0557 1.9358 1.0677z" fill="#dcefce"/><path d="m65.5217 276.2599c-.4889 6.3772-.9779 12.7545-1.467 19.1328-3.9303-2.525-7.8605-5.0511-11.7905-7.5776.2759-.7664.6878-1.5124.8029-2.3017.4233-2.9044.7483-5.8231 1.11-8.7364.2803-2.2574.5602-4.5149.8881-7.1581 1.3706.8716 2.3067 1.5173 3.2895 2.0816 2.391 1.3728 4.8036 2.7079 7.2075 4.0581-.0135.1671-.027.3342-.0405.5013z" fill="#47980c"/><path d="m175.9439 228.9147c-.3563 1.7901-.8636 3.5668-1.0238 5.3743-.1431 1.6152-.8194 2.6622-2.0915 3.6156-8.1532 6.1106-15.8365 12.7595-22.8255 20.1924-.4613.4906-1.1216.794-1.6894 1.1846.0071-.8015-.249-1.7266.0604-2.3864 5.9054-12.5952 14.9366-22.3659 26.8701-29.4772.1882-.1122.4249-.1429.9229-.3028-.0868.7002-.155 1.2499-.2232 1.7995z" fill="#62bb1a"/><path d="m144.8177 265.8105c-2.421 2.9087-2.6883 2.9833-6.5107 1.8165-2.5308 4.6229-4.5226 5.8339-8.6853 4.7149-1.0853-.2917-1.8749-1.6838-2.8-2.5708 4.0379-1.1795 5.4349-2.7246 5.4671-6.5296.0104-1.2329-.5891-2.471-.9097-3.7068.9308.1318 1.337-.0095 1.2669-1.2027-.074-1.2598.1607-2.6317.6248-3.8112 1.3027-3.3107 4.0648-6.164 10.6481-4.6866-2.4003 3.0581-1.6261 6.3437-.7173 9.6528.2229.8115.3178 1.6582.4716 2.4887-1.7874-.0995-3.6123-.925-5.3258.4789-.2332.1911-1.1713-.3628-1.7129-.6884-1.0252-.6162-1.9995-1.317-2.995-1.9827-.2041.2481-.4082.4962-.6124.7443 1.5272 1.7021 3.0543 3.4042 4.6487 5.1812 2.1856-.4239 4.4746-.8678 6.7637-1.3117.126.471.2521.9421.3782 1.4132z" fill="#cbecb4"/><path d="m258.4661 233.9694c-2.0428-.5222-4.0856-1.0443-6.1832-1.5804-1.1931 1.3409-2.6391 2.9662-4.0852 4.5914-2.9196-1.6147-5.8392-3.2294-8.7589-4.844.1456-3.5352.9587-6.8024 5.0438-7.4538 1.8352-.2926 3.8253.3865 5.9528.6504 1.2715-2.9796 3.0326-6.0877 7.4614-5.9729.2513 1.7086 1.1223 3.6279.6274 5.0826-1.1122 3.2698-.4394 6.3568-.0581 9.5267z" fill="#cbecb4"/><path d="m217.9467 223.7981c.538-.627 1.1717-1.1976 1.5852-1.8981.3645-.6176.4831-1.3803.7103-2.0789-.6581.0564-1.4169-.0805-1.9578.2011-3.0989 1.6132-6.2162.6217-7.5111-2.4829-.9216-2.2097.066-5.0964 2.1384-6.2503 2.0424-1.1373 5.3312-.4248 6.6369 1.4598.4304.6213.7986 1.2857 1.0017 1.6157 1.9239-.4731 3.6602-1.3428 5.3242-1.2215 4.054.2954 6.1774 5.2878 3.2998 8.0993-1.7736 1.7329-2.3073 3.3728-2.2164 5.558-3.0038-1.0008-6.0075-2.0015-9.0112-3.0022z" fill="#cbecb4"/><path d="m44.4576 285.7993c-1.9214-.8339-2.6829-3.5411-1.7931-6.347.2312-.729.4845-1.4559.6412-2.2019.1075-.5117.0655-1.0549.108-1.9603-3.1045 1.2572-6.0583 2.289-8.8203 3.6971-.6241.3182-1.0933 2.1681-.7607 2.9335 1.9852 4.5686 4.1802 9.0489 6.4013 13.5108 1.0586 2.1263 2.378 4.1217 3.4762 6.2301.3344.642.3248 1.4632.4727 2.2025-9.1575-5.7506-13.7637-14.1864-14.5146-24.8286-.0529-.7502.4982-1.8307 1.1161-2.2943 4.2142-3.1615 9.1598-4.6738 14.2994-6.2412-.2156 5.2693-.4209 10.2843-.6262 15.2993z" fill="#dcefce"/><path d="m74.1871 384.2433c-1.5654 1.8239-3.3065.5928-4.7983.0593-7.8018-2.7903-15.4416-5.9248-21.7783-12.7036-.6607 7.8686-1.2675 15.0938-1.8743 22.3192-2.8562-2.6307-4.0614-5.6667-3.6122-9.7307.6616-5.9846.669-12.0411.9713-18.0661.0369-.735.1744-1.4649.3079-2.5411 1.7944 2.0874 3.2642 3.9544 4.8957 5.6674 6.3657 6.6841 14.5043 10.4296 22.9245 13.6944 1.0051.3897 1.9767.8654 2.9637 1.3012z" fill="#62bb1a"/><path d="m297.2987 329.1974c-.5736-2.0308-1.0856-4.0814-1.7341-6.088-1.2008-3.7155-2.4816-7.4051-3.7974-11.3085 2.5071-.5615 4.7675-1.0678 7.028-1.574 1.7771 5.727 3.5563 11.4533 5.3297 17.1814.4265 1.3778-.139 2.1304-1.537 2.1031-1.7645-.0345-3.5263-.2031-5.2892-.314z" fill="#b6e599"/><path d="m29.1848 293.2413c-.1197 3.6004-.1921 7.2032-.3695 10.8008-.3097 6.2816-.684 12.56-1.0313 18.8409-1.6468-.8288-2.2389-2.2371-2.2271-3.9991.0686-10.2632.1166-20.5266.216-30.7895.0087-.8977.3381-1.7922.5851-3.0184 1.0192 2.9442 1.923 5.5547 2.8268 8.1653z" fill="#62bb1a"/><path d="m65.5622 275.7587c-2.4039-1.3503-4.8166-2.6853-7.2075-4.0581-.9828-.5643-1.9189-1.2101-3.2895-2.0816-.3279 2.6432-.6078 4.9007-.8881 7.1581-.3617 2.9133-.6867 5.832-1.11 8.7364-.115.7893-.527 1.5353-.8029 2.3017-.3238-1.896-.9574-3.7993-.9152-5.6876.1485-6.647.5269-13.289.8286-19.9324.0129-.2833.1303-.5618.1711-.7285 2.4035 2.4738 4.6671 5.0691 7.2177 7.3423 1.9369 1.7262 4.2392 3.0426 6.3784 4.5417-.1278.8028-.2552 1.6054-.3826 2.408z" fill="#62bb1a"/><path d="m65.5622 275.7587c.1274-.8026.2548-1.6051.3827-2.4081 3.2973 1.0612 6.5684 2.2135 9.8974 3.1626 4.6664 1.3304 9.3759 2.5096 14.0668 3.753-.1716 1.3504-.3432 2.7013-.5148 4.0522 0 0-.0704.0559-.0709.0563-8.4273-1.2592-16.3-4.1439-23.8018-8.1152.0136-.1667.0271-.3338.0406-.5008z" fill="#47980c"/><path d="m143.9189 249.8341c-6.5833-1.4774-9.3455 1.3759-10.6481 4.6866-.4641 1.1796-.6988 2.5514-.6248 3.8112.0701 1.1933-.3361 1.3345-1.2667 1.2025-.3019-.0449-.604-.0897-.9061-.1344-1.0845-.9725-2.1691-1.945-3.3398-2.9947 1.3554-2.8833 1.3631-5.6501-1.4093-7.913 2.2342-.2745 4.4633-.7217 6.7035-.7866 4.2682-.1237 8.5428-.0293 12.8148-.0254-.4411.718-.8823 1.4359-1.3235 2.1538z" fill="#dcf3cc"/><path d="m89.3943 284.3183c.1716-1.3509.3432-2.7017.5148-4.0522 2.8457.622 5.6734 1.3461 8.5402 1.8459 8.1334 1.4182 16.2827 2.7448 24.4255 4.1078-2.4525.2932-4.9219.9326-7.3538.8128-6.7612-.333-13.512-.9261-20.2556-1.5397-1.9762-.1798-3.9151-.7716-5.8711-1.1746z" fill="#62bb1a"/><path d="m58.4026 261.575c.1475-.2631.2316-.672.4519-.7678 4.4927-1.9536 9.001-3.8713 13.5062-5.7963.9232.8824 1.8465 1.7649 3.1041 2.9669-1.3764.5836-2.5592 1.1746-3.8 1.5937-3.2207 1.0879-6.476 2.0737-9.692 3.1749-.4204.1439-.6909.7253-1.0308 1.1042-.8464-.7586-1.6929-1.5171-2.5394-2.2756z" fill="#cbecb4"/><path d="m144.4394 264.3972c-2.2891.4439-4.5781.8878-6.7637 1.3117-1.5944-1.777-3.1215-3.4791-4.6487-5.1812.2041-.2481.4082-.4962.6124-.7443.9955.6657 1.9698 1.3665 2.995 1.9827.5416.3256 1.4797.8795 1.7129.6884 1.7136-1.4038 3.5384-.5784 5.3258-.4789.2555.8073.5109 1.6145.7663 2.4216z" fill="#b6e599"/><path d="m121.1525 330.5299c.5057-.0986 1.0277-.3331 1.5148-.2751 6.1261.7289 12.2486 1.4897 18.367 2.2804.488.0631.9395.4085 1.408.6227-7.0965-.8759-14.1932-1.752-21.2898-2.628z" fill="#3e6926"/><path d="m126.2818 308.6287c4.1495.2462 8.2992.4874 12.4473.7549.183.0118.3504.2644.5253.4052-4.3564-.2332-8.7131-.4666-13.0697-.6999.0324-.1534.0647-.3068.0971-.4602z" fill="#3e6926"/><path d="m285.4666 333.9991c-1.2652.0017-2.5522.1545-3.7912-.0248-3.0685-.444-6.1151-1.0399-9.1706-1.5748 4.3205.5332 8.6412 1.0664 12.9618 1.5996z" fill="#3e6926"/><path d="m93.6697 419.5573c3.849.4706 7.6979.9413 11.5463 1.4117.0085.153.0138.3063.0153.4596-3.2224-.3932-6.4484-.7616-9.6649-1.1998-.6507-.0887-1.2654-.4409-1.8967-.6715z" fill="#3e6926"/><path d="m144.2836 318.3681c.0283-.2735.0566-.547.085-.8206 1.9147.0026 3.8293.0051 5.7439.0077.0072.1846.0145.3691.0217.5537-1.9501.0864-3.9003.1728-5.8506.2592z" fill="#b6e599"/><path d="m116.9722 330.4488c1.1076-.0103 2.2152-.0205 3.3232-.0306-1.1074.0103-2.2153.0204-3.3232.0306z" fill="#3e6926"/><path d="m113.9967 392.1085c-1.0944-.0292-2.1888-.0585-3.283-.0882 1.0945.029 2.1888.0586 3.283.0882z" fill="#2e7a00"/><path d="m250.852 140.138c-.1806.0833-.3602.1689-.5451.2412-.0075.0029-.0638-.1187-.0974-.1823.2123-.0225.4246-.045.6369-.0676z" fill="#62bb1a"/><path d="m450.6721 224.0613c.3261-.1111.6522-.2222.9783-.333-.3261.1112-.6522.2221-.9783.333z" fill="#226300"/><path d="m451.6635 223.7223c.3198-.1066.6396-.2133.9592-.3194-.3199.1068-.6396.2131-.9592.3194z" fill="#226300"/><path d="m185.3776 326.0016c.0137-.1788.0273-.3576.041-.5364.0693.1105.1385.221.2078.3315-.0825.0687-.1655.137-.2488.2049z" fill="#fefefe"/><path d="m298.648 333.2478c.0943-.0424.1886-.0848.2829-.1271-.0675.0766-.135.1531-.202.2303.0005.0006-.0809-.1032-.0809-.1032z" fill="#2e7a00"/><g fill="#3e6926"><path d="m358.9445 176.5278c2.503-.9522 4.9772-1.9902 7.5141-2.8413 9.597-3.2196 19.1966-6.4336 28.8293-9.5443 9.331-3.0132 18.7009-5.9065 28.0651-8.8158.6357-.1975 1.3667-.0878 2.0535-.121l.0222.0334c-4.7812 1.7326-9.5277 3.5692-14.3513 5.1742-7.9865 2.6575-16.021 5.1708-24.0383 7.7358-8.5988 2.7511-17.1971 5.5037-25.8086 8.2148-.7066.2225-1.5118.1315-2.2713.186-.0001 0-.0147-.0218-.0147-.0218z"/><path d="m355.0371 177.9424c-3.7157 1.3433-7.4313 2.6866-11.147 4.0299-.1149-.3686-.2297-.7372-.3446-1.1059 3.8246-.9835 7.6492-1.9671 11.4738-2.9506z"/><path d="m425.4064 155.2055c1.0977-.5548 2.1954-1.1095 3.2931-1.6642.1107.2795.2214.5589.3321.8384-1.2011.2863-2.4022.5725-3.6031.859.0001.0002-.0221-.0332-.0221-.0332z"/><path d="m355.0193 177.9159c1.3085-.4626 2.6169-.9252 3.9253-1.3879-.0001-.0002.0145.0216.0146.0217-1.3074.4642-2.6148.9283-3.9221 1.3925 0 .0002-.0178-.0264-.0178-.0263z"/><path d="m338.2738 182.7905 2.0562-.6576c.0696.1861.1393.3722.209.5583-.6927.2606-1.3854.5212-2.0782.7818-.0624-.2276-.1247-.4551-.187-.6825z"/><path d="m341.8479 181.9133c.1827-.0923.3646-.1862.5515-.2688.0049-.0022.0638.1178.0975.1808-.2085.0394-.4169.0789-.6254.1183z"/><path d="m341.8715 181.9436c-.0765.0515-.153.1029-.2295.1544.0687-.0615.1375-.123.206-.1846-.0001-.0001.0235.0302.0235.0302z"/></g><path d="m338.2512 231.1818c.9536-.4258 1.8862-.9086 2.864-1.2687 11.4794-4.227 22.9693-8.4255 34.4491-12.6513 19.699-7.2513 39.3802-14.5508 59.0983-21.7499 4.4313-1.6179 8.9817-2.9098 13.4822-4.3362.3337-.1058.7075-.0851 1.2195.3313-1.0074.4547-1.9908.9751-3.0258 1.3543-13.6511 5.0009-27.3305 9.9254-40.9608 14.9823-17.2721 6.408-34.4828 12.9819-51.7706 19.3468-4.9084 1.8072-9.993 3.136-14.9968 4.6841-.1196-.2309-.2393-.4618-.3591-.6927z" fill="#1c4306"/><path d="m472.1211 183.5506c-.2171.2113-.3977.5291-.6569.6183-5.8637 2.0178-11.736 4.0105-17.606 6.0081-.4198-.1853-.8404-.3708-1.2611-.5562 2.4478-.8841 4.8645-1.8693 7.3503-2.6292 4.0295-1.2318 8.1043-2.3156 12.16-3.4619z" fill="#3e6926"/><path d="m452.5971 189.6207c.4207.1855.8412.3709 1.2611.5562-1.5062.1949-1.5062.1949-1.2611-.5562z" fill="#1c4306"/><path d="m472.1074 183.5296c.4809-.0972.9618-.1944 1.4427-.2916l.0149.0224c-.4814.0966-.9627.1932-1.444.2899.0001.0003-.0136-.0207-.0136-.0207z" fill="#3e6926"/><path d="m473.5501 183.238c.3269-.1164.6538-.2327.9808-.3491l.0175.0264c-.3279.115-.6557.2299-.9835.345.0001.0002-.0148-.0223-.0148-.0223z" fill="#3e6926"/><path d="m474.5309 182.8889c.3269-.1163.6539-.2325.9809-.3488l.0193.0292c-.3277.1152-.6553.2305-.9829.3459.0001.0001-.0173-.0263-.0173-.0263z" fill="#3e6926"/><path d="m475.5117 182.5401c.1809-.0925.3611-.1863.5463-.2693.0044-.002.0632.1175.0966.1803-.2079.0392-.4159.0785-.6236.1179.0001.0003-.0193-.0289-.0193-.0289z" fill="#3e6926"/><path d="m268.8722 217.9314c2.5063.0634 2.6275-.102 2.5814-3.8475-5.2396 1.2471-8.919-.5233-10.5406-6.103-1.7995 1.7775-3.4524 3.4102-5.3044 5.2395.0263.1069.3319.6171.2026.9663-.3307.893-.6647 2.061-1.3667 2.4465-.4958.2723-2.0206-.3308-2.3397-.9364-.7363-1.3971-1.65-1.5327-3.0329-1.4245-1.4148.1107-2.3864.3445-2.9602 1.8897-1.1955 3.2193-4.3793 5.1295-7.8417 4.99-2.9847-.1203-6.1784-2.6958-7.1673-5.7799-.8727-2.7219.2651-6.924 2.985-8.392 2.7046-1.4597 2.777-3.4774 2.5047-5.894-.5783-5.1311 4.5023-11.9783 10.765-12.4769 2.0893-.1663 4.263.2469 6.3461.658 1.296.2558 1.7852-.2164 2.3113-1.2299 1.3711-2.6411 3.855-3.649 6.3485-2.6867 2.6897 1.0381 4.2189 3.6776 3.0891 6.3456-.6985 1.6494-2.3648 2.8889-3.8373 4.5905.2673 1.4647.6347 3.4775 1.0175 5.5751 3.0422-1.7065 5.9478-3.3279 9.4999-1.0986 3.4306 2.153 3.8116 5.3358 3.587 8.4385 2.5393.461 4.9885.5839 7.1903 1.3858 2.8224 1.0279 4.6662 4.6447 4.0807 7.8548-.5186 2.8427-2.1022 5.2413-5.0078 6.1809-1.4626.473-2.0522.9074-1.7472 2.5527.3034 1.6368.1703 3.3545.2275 5.0057 4.8296 1.6396 6.6023 3.8669 5.3894 7.0375-.9793 2.5601-2.8055 4.806-6.8601 3.3195-1.1134 1.8319-1.8983 3.8109-3.2955 5.1523-.7817.7505-2.6338.7659-3.9072.5483-2.9817-.5095-4.2075-3.627-3.1447-7.5948-3.8616-1.0616-7.8176-2.0625-9.2847-6.5305 1.6325-1.0744 3.8756-1.7922 4.7581-3.3042 1.4193-2.4319 2.2394-5.1291 4.433-7.1913.7413-.6969.4362-2.5491.5245-3.879.0399-.5954-.1292-1.2049-.2036-1.808zm-22.1722-4.4918c.2008-5.487-3.7597-8.8561-9.3466-7.9508.8259 4.07 5.7123 8.2267 9.3466 7.9508zm32.4908 11.5469c-.5419-2.6172-3.8728-6.1015-6.0973-6.5266-1.2847-.2455-1.7591.2907-1.4411 1.5275.7555 2.9379 4.1575 5.2398 7.5384 4.9991zm-18.1186-30.0829c-1.9886-1.9623-3.5162-3.4696-5.3795-5.3082-.3564 3.3924 1.8112 5.573 5.3795 5.3082z" fill="#cbecb4"/><path d="m225.2684 202.6193c-.5405 4.228-4.1496 7.0418-8.3467 6.5075-4.3316-.5514-6.8497-4.2256-6.4128-8.8964.392-4.191 4.6622-6.785 8.1276-6.2729 4.4818.6621 7.6405 4.243 6.6319 8.6618z" fill="#cbecb4"/><path d="m268.8722 217.9314c.0744.6032.2435 1.2126.2039 1.8082-.0884 1.3298.2167 3.1821-.5245 3.879-2.1936 2.0621-3.0136 4.7594-4.433 7.1913-.8824 1.512-3.1256 2.2298-4.7581 3.3042-.2984-.048-.5967-.0961-.8947-.1444-.381-3.1701-1.0538-6.2571.0584-9.5269.4949-1.4547-.3762-3.374-.6274-5.0826.1755-.1344.3512-.2685.5269-.4026 1.6107.1671 3.2568.6178 4.8221.4224 1.6159-.2018 3.1533-1.032 4.725-1.5872.3005.0461.6009.0923.9014.1386z" fill="#b6e599"/><path d="m267.9708 217.7927c-1.5717.5553-3.1091 1.3855-4.725 1.5872-1.5653.1955-3.2114-.2553-4.8221-.4224.3865-2.1959 1.8407-3.5638 3.9026-3.5983 2.092-.0349 4.5883-.2568 5.6445 2.4335z" fill="#cbecb4"/><path d="m134.0948 370.1291c-.0134 3.816 2.5212 5.8687 5.7817 7.7721-30.9808 4.1176-59.4709-1.213-85.2528-18.6141 2.3873-3.3697 30.6455-10.2884 39.1807-9.7905-2.911 1.8608-4.3196 4.2632-3.8356 7.3362.1389.8821 1.1833 1.6215 1.8128 2.4263-.0317.3047-.0638.6095-.0958.9143-.8183 1.796-.2671 4.1896 1.2808 5.5618 1.4251 1.2633 4.4739 1.5586 6.1069.5521.8496-.5237 1.6539-1.1209 2.3764-1.615.4058 1.0706.6502 2.5272 1.4239 3.6033 2.2556 3.1371 5.9205 2.858 7.9431-.4299.3189-.5184.8051-.9339 1.2139-1.3969.6961.7908 1.2622 1.7856 2.1155 2.3298 1.7748 1.1319 4.3092.3613 5.1757-1.3729.8627-1.7267-.2183-4.2268-2.1388-4.9467-2.2527-.8445-4.178-.0067-4.9251 2.1432-1.2779-1.2871-2.6147-2.5242-3.7843-3.9032-.2355-.2777.1634-1.0936.2696-1.6617.4513.038.9028.0764 1.3543.1148 2.6247.4826 4.2717-.947 5.4511-2.9851 1.9022-3.2869.283-5.853-2.3024-8.5183 3.0569-.0645 5.7457-.1811 8.4329-.1523 1.3064.0139 2.6098.2994 3.9145.4619-.1242.0887-.2432.2465-.3732.2561-3.3263.2469-5.7379 1.8088-6.7797 5.0322-1.0811 3.3451-.1292 6.1838 2.3949 8.6302.4712.4567.6509 1.5936.4658 2.2823-.801 2.9805.2559 6.402 3.0613 8.0771 2.0175 1.2047 5.07 1.6307 7.7128-.7229.6047-.5383 1.3426-.9268 2.0191-1.3842z" fill="#dcf3cc"/><path d="m147.0121 349.2077c3.6603.316 7.3432.4741 10.974.9956 3.1898.4582 6.3256 1.3033 9.4774 2.0126 9.8971 2.2274 19.4018 5.5245 28.3017 10.4529.1886.1044.3161.3188.8134.8387-16.7886 5.1191-32.772 12.1566-50.8032 13.6364.9858-1.2488 1.8693-2.1588 2.4957-3.2204.6176-1.0468.9749-2.247 1.5116-3.5368.5651.1942 1.1715.2917 1.6555.5887 1.7698 1.0863 3.1313.2535 4.3632-.9164 1.2844-1.2198 1.4041-2.6689.5747-4.237-.9676-1.8293-.1695-3.9507 1.7051-4.6403 2.2705-.8352 3.507-2.9207 2.8877-4.8702-.5474-1.7231-3.183-3.0731-4.9187-2.5193-1.9109.6097-2.7363 2.6806-2.0697 5.1765.0383.1434.0241.3008.0445.602-1.8131.4686-2.634 1.4132-2.465 3.6124.0871 1.1328-1.5127 2.3951-1.9706 3.0532-2.5155-1.4125-4.7749-2.6811-7.0339-3.95-.4518-.0695-.9038-.1386-1.3559-.2078.3427-.4173.6117-1.0904 1.0391-1.2134 6.3925-1.8412 8.1521-6.0851 4.7734-11.6574z" fill="#dcf3cc"/><path d="m134.0948 370.1291c-.6765.4575-1.4144.8459-2.0189 1.3843-2.6428 2.3536-5.6953 1.9276-7.7128.7229-2.8054-1.6751-3.8623-5.0966-3.0613-8.0771.1851-.6888.0054-1.8257-.4658-2.2823-2.5242-2.4465-3.4761-5.2852-2.3949-8.6302 1.0418-3.2234 3.4534-4.7852 6.7797-5.0322.13-.0096.249-.1674.3732-.2561.4572.0571.9143.1142 1.3714.1712 3.4751.7837 5.4108 3.058 6.2199 6.4232-.799-.4565-1.5777-.9541-2.401-1.3613-2.1116-1.0445-4.1674-1.1078-5.9856.6104-1.6329 1.5432-2.773 3.2542-2.0126 5.7115.319 1.0308.2922 2.1685.459 3.5614 2.9067.3628 6.0391 1.5609 9.0195-.6829.1438.0129.2874.0284.4306.0465-1.689 3.1385-.4187 5.5649 1.8647 7.7473-.155-.0189-.3101-.0378-.4651-.0566z" fill="#cbecb4"/><path d="m147.0121 349.2077c3.3786 5.5723 1.6191 9.8162-4.7735 11.6572-.4274.123-.6964.7961-1.0392 1.2136-2.2253 1.1518-4.4505 2.3035-6.7034 3.4695-.3734-.8597-.8512-1.96-1.329-3.06-.2655-.3398-.5311-.6798-.7967-1.0198.3073-1.2145.6145-2.4291.9218-3.6436.1359 1.064.2719 2.1279.4149 3.2477 1.2979-.4842 2.4131-.9002 3.528-1.3162-.037-.362.0138-.6306-.0931-.7989-3.244-5.1047-3.16-6.6147.6338-10.8965 2.1655-.7763 4.2825-2.1292 6.6489-.5844.869.5672 1.7254 1.1536 2.5875 1.7314z" fill="#cbecb4"/><path d="m133.1671 362.4877c.4778 1.1003.9557 2.2005 1.329 3.0602 2.2529-1.166 4.4781-2.3177 6.7034-3.4695.4521.069.9042.1382 1.356.2077.4386 2.2654 1.0586 4.5558-.7179 6.5729-2.032 2.3074-3.9711 2.6537-7.2777 1.3265-2.2834-2.1825-3.5536-4.6088-1.8645-7.7472.1573.0166.3145.033.4717.0494z" fill="#b6e599"/><path d="m137.7758 348.0606c-3.7938 4.2818-3.8778 5.7918-.6338 10.8965.107.1683.0561.4369.0931.7989-1.115.416-2.2301.832-3.528 1.3162-.1431-1.1198-.279-2.1838-.415-3.2477-.0357-1.0906-.0712-2.1813-.1068-3.2719-.8091-3.3652-2.7448-5.6395-6.2199-6.4232 1.8478-.2405 3.6942-.6547 5.5441-.6714 1.7535-.0158 3.5107.385 5.2663.6026z" fill="#dcf3cc"/><path d="m91.6859 360.1734c.0321-.3048.0641-.6096.0958-.9143 3.2852-3.203 4.8758-3.5019 8.572-1.3909.2247-1.811.436-3.5143.6799-5.4806 2.1079 1.8397 2.0328 4.7627.1963 6.631-.0372.3071-.0743.6143-.1114.9214-3.0875 2.3713-6.2191 2.9591-9.4326.2334z" fill="#b6e599"/><path d="m110.0979 359.152c-.4515-.0384-.9029-.0768-1.3543-.1148-2.928-.948-4.7036-3.3625-4.3595-6.227.1057-.8795.6649-2.3418 1.1638-2.407 1.1091-.1447 2.5646.0988 3.4264.7673 2.226 1.727 2.5003 3.5704 1.492 6.4067-.1795.5049-.2485 1.0489-.3684 1.5748z" fill="#b6e599"/><path d="m112.2582 364.6021c.7471-2.1499 2.6723-2.9877 4.9251-2.1432 1.9205.7199 3.0015 3.22 2.1388 4.9467-.8665 1.7342-3.4009 2.5048-5.1757 1.3729-.8534-.5442-1.4194-1.539-2.1155-2.3298.0758-.6156.1516-1.231.2273-1.8466z" fill="#cbecb4"/><path d="m101.1185 359.9401c.0371-.3072.0742-.6143.1114-.9214.9872.5165 1.9743 1.033 3.15 1.648-.7845.7927-1.4038 1.4185-2.1563 2.179-.4004-1.0525-.7528-1.9791-1.1051-2.9056z" fill="#dcf3cc"/><path d="m186.2931 229.2649c2.3377-1.3906 4.6977-.5169 7.0536-.0699 5.3448 1.7157 10.8862 2.9864 15.9925 5.242 9.9615 4.4004 19.8578 9.0195 29.4505 14.1643 10.537 5.6512 19.8227 13.0851 28.1926 21.7032 9.5687 9.8524 16.6242 21.2639 21.9789 33.8058.9769 2.2883 1.6304 4.7147 2.616 7.615-5.6154.0012-10.5494.3385-15.4232-.0604-14.279-1.1685-28.1557-4.1636-40.7491-11.3052-9.5166-5.3968-18.1691-12.0274-25.5254-20.2117-8.5654-9.5294-15.5604-20.0706-19.3648-32.3854-1.8615-6.0255-2.8422-12.3231-4.2216-18.4977zm17.9583 25.2366c-.1172 2.0583 1.157 3.1835 2.8859 3.5429 1.6898.3513 3.5676.4257 4.4448-1.7013.5501-.3494 1.2744-.577 1.619-1.07 1.2699-1.8165.9551-4.6128-.5951-6.4459-1.3739-1.6246-4.2192-2.33-6.1228-1.518-3.1445 1.3416-4.3095 5.0959-2.2318 7.1923zm70.561 40.6449c.3302-.2566.9753-.5717.9402-.7604-.2503-1.3468-.2246-3.1335-1.0771-3.8925-1.426-1.2695-3.4013-1.3618-4.9743.2836-.4601-.0658-.9201-.1316-1.3802-.1973-.1524-3.5878-2.8376-5.3604-6.4433-5.4993-3.1046-.1196-6.1803 2.3868-6.7021 5.5699-.4971 3.0323 1.6331 6.3634 4.6987 7.3474-.1857 4.4943 2.7498 7.3978 7.8933 8.0302 2.9147.3584 4.6537-1.395 6.1593-3.3159 1.5283-1.9499 2.0253-4.2587.7602-6.647.0417-.3063.0835-.6125.1253-.9187zm-19.4407-13.683c2.3166 1.1975 5.0598.4662 6.6352-1.7687 1.6911-2.3991 1.4732-5.9379-.5148-7.6272-1.7582-1.494-3.8589-2.1797-6.0252-1.3874-2.2862.836-3.8125 2.569-4.0632 5.1574-.2393.588-.4785 1.1761-.7178 1.7642-4.6029-.5506-6.5086 1.4561-5.545 6.3846-1.4372-.0475-3.1431.3962-4.0434-.262-1.0943-.8001-1.788-2.1626-3.178-.8947-1.5828 1.4438.2091 2.2275.9018 3.1925.0883.123.1676.2524.2466.3819-1.2529 4.0598.2695 7.5869 4.0948 9.3701.3785.1765 1.0837.269 1.3108.0546 1.64-1.5483 3.5879-2.9695 4.6376-4.8726.6764-1.2263-.0048-3.2015-.0779-4.85 3.2149-.5701 4.3029-1.6131 4.9572-4.7972.4605.0514.9208.103 1.3813.1545zm-33.3506-7.4019c-.1428.5934-.2427 1.201-.436 1.7775-.7425 2.2142-.1967 3.6376 1.9476 4.9734l2.5959 1.6992c.6087.0632 1.4111.4031 1.7901.138 1.1682-.8173 2.557-1.6792 3.1405-2.8749.6324-1.2958.6961-3.0713-1.2669-3.8354.01-.1466.0172-.2932.0217-.4401.8376-2.5283 2.8141-1.3503 4.4256-1.3599.2963.0497.5927.0995.889.1493.4933.7288.8289 1.6909 1.5056 2.1483 4.1402 2.7986 8.9755.548 9.577-4.3996.1775-1.46.3173-2.596 2.0838-3.3662 2.364-1.0308 3.8669-3.2264 3.6379-5.9667-.2332-2.7909-1.653-5.0937-4.3914-6.0347-2.5412-.8733-5.1185-.6247-7.0258 1.5744-.9289 1.071-1.5727 2.3891-2.3273 3.5669-3.5659-1.1732-5.3777-.9854-7.2113.6965-.303-.0369-.606-.0739-.9091-.1108-1.4935-.606-1.0052-1.5489-.5354-2.6142 1.7144-3.888-.4857-7.7754-4.6889-8.3772-.147-.0256-.2937-.0527-.4402-.0813.0678-1.8915-.922-3.0344-2.6407-3.5732-2.296-.7198-4.4695-.3002-5.7369 1.7538-.9059 1.4681-1.2327 3.2998.1142 4.9852.6843.8562 1.0818 1.9416 1.8148 3.3068-1.2359-.0136-1.7837.071-2.2885-.0397-3.6628-.8036-6.5716 1.9319-7.1654 4.431-.9562 4.0239.5288 7.0651 4.1158 8.4213 1.9011.7188 3.927 1.031 5.363 2.8486.4788.6061 2.0563.3442 3.1315.479.3032.0417.6065.0832.9098.1247z" fill="#dcf3cc"/><path d="m125.7242 248.4924c2.7724 2.2629 2.7647 5.0297 1.4093 7.913 1.1707 1.0497 2.2552 2.0222 3.3398 2.9948-5.4737 2.896-6.6985 5.6459-4.559 10.2357-1.717-.3369-3.7787-.0405-4.3979-2.3943 2.9376-2.2815 2.828-5.3678 2.1259-8.4799.8224-.5333 1.5037-.9751 2.1849-1.4169.0026-.2477.0052-.4955.0078-.7432-3.2391 2.4713-4.9722-1.722-7.7288-1.3861-.1343.2104-.2685.4207-.4028.6311 1.2222.9974 2.4444 1.9948 3.7194 3.0354-2.1663 2.4653-2.3305 5.269-.82 8.2373-1.5963 2.7789-3.9151 1.0863-5.9775.9605-.811-.0494-1.6956-.3848-2.417-.1649-4.087 1.2458-5.7206.5388-7.3195-3.3723-3.8164 1.2183-5.8266.6435-6.5703-1.8788-.5866-1.9894.4389-3.9495 2.4379-4.6596 2.1381-.7596 3.8435.3726 4.9397 3.3187 1.5672-.6866 3.1381-1.375 5.0129-2.1964-3.6194-1.6078-6.2317-3.9567-4.9703-8.4158.6118-2.8836 2.7582-3.9733 5.3439-4.2727 2.2301-.2582 4.0755.693 5.1356 2.7284.7532 1.4462 1.5623 1.25 2.5153.3361 2.8823-2.764 3.6755-2.886 6.9907-1.0101zm-12.7921 18.3919c1.6909-2.229 1.5953-4.2769-.2764-5.8991-.3673-.3184-1.0011-.6273-1.3997-.5208-.34.0909-.711.7741-.7363 1.2143-.123 2.1382.7915 3.828 2.4124 5.2056z" fill="#cbecb4"/><path d="m125.9142 269.6359c-2.1395-4.5898-.9147-7.3398 4.559-10.2357.3021.0447.6042.0894.9061.1343.3203 1.2359.9199 2.474.9095 3.707-.0321 3.8051-1.4292 5.3501-5.4671 6.5296-.3026-.0448-.6051-.09-.9075-.1352z" fill="#b6e599"/><path d="m120.6028 267.1193c-1.5105-2.9683-1.3463-5.772.82-8.2373-1.2751-1.0406-2.4973-2.038-3.7194-3.0354.1343-.2104.2685-.4208.4028-.6311 2.7566-.336 4.4897 3.8574 7.7288 1.3861-.0026.2477-.0052.4955-.0078.7432-.6813.4418-1.3625.8836-2.1849 1.4169.7021 3.1122.8116 6.1984-2.1259 8.4799-.3047-.0405-.6092-.0814-.9136-.1223z" fill="#b6e599"/><path d="m246.7 213.4396c-3.6343.2759-8.5207-3.8808-9.3466-7.9508 5.5869-.9052 9.5474 2.4638 9.3466 7.9508z" fill="#b6e599"/><path d="m279.1908 224.9865c-3.3808.2406-6.7829-2.0612-7.5384-4.9991-.3181-1.2368.1564-1.773 1.4411-1.5275 2.2245.4251 5.5554 3.9095 6.0973 6.5266z" fill="#b6e599"/><path d="m261.0722 194.9036c-3.5683.2648-5.7359-1.9158-5.3795-5.3082 1.8632 1.8385 3.3908 3.3459 5.3795 5.3082z" fill="#b6e599"/><path d="m133.1853 354.5526c.0355 1.0907.0711 2.1813.1068 3.2719-.3071 1.2145-.6144 2.429-.9218 3.6436-.0353.3079-.0704.6157-.1056.9236-2.9804 2.2438-6.1128 1.0457-9.0195.6829-.1668-1.3929-.1401-2.5307-.459-3.5614-.7604-2.4574.3797-4.1684 2.0126-5.7115 1.8182-1.7182 3.874-1.6548 5.9856-.6104.8232.4073 1.6019.9049 2.4009 1.3613z" fill="#b6e599"/><path d="m132.2646 362.3917c.0352-.3079.0703-.6158.1056-.9236.2657.34.5313.68.7968 1.0198-.1572-.0166-.3144-.033-.4717-.0495-.1433-.0183-.2868-.0338-.4307-.0467z" fill="#dcf3cc"/><path d="m230.977 262.5075c1.8336-1.6819 3.6454-1.8697 7.2113-.6965.7546-1.1778 1.3984-2.4959 2.3273-3.5669 1.9073-2.1991 4.4846-2.4478 7.0258-1.5744 2.7384.941 4.1582 3.2439 4.3914 6.0347.229 2.7403-1.2739 4.936-3.6379 5.9667-1.7665.7702-1.9063 1.9062-2.0838 3.3662-.6015 4.9476-5.4367 7.1982-9.577 4.3996-.6767-.4574-1.0123-1.4195-1.5054-2.1485 2.7675-.1661 4.9091-1.6615 5.6673-4.2321.3956-1.3412.9041-1.5143 2.1471-1.0196.8987.3578 1.966.292 2.9581.415.1331-.3181.2661-.6363.3992-.9544-2.4954-1.9337-4.9907-3.8673-7.0396-5.455-.9467 1.1414-1.8892 2.108-2.6272 3.2113-.8985 1.3433-1.8468 2.7274-2.3519 4.235-.368 1.0984-.0528 2.4255-.0422 3.6507-1.6115.0097-3.588-1.1684-4.4254 1.3598-1.5806-1.0461-3.1615-2.0921-4.8077-3.1813 1.8121-3.7254 1.4045-5.1126-3.0462-8.7857 2.3014-.2201 4.7626.3553 6.3988-2.3515-1.0844.0124-1.8344-.0747-2.5479.0488-1.5613.2702-3.1041.6474-4.6545.9808-.4151-1.7006-1.237-3.0043-2.8414-3.544-.2358.249-.4716.498-.7074.7471 1.1838.9316 2.3676 1.8633 3.5514 2.7949-.4974.5726-.8873 1.4447-1.51 1.6681-3.4706 1.2449-4.6527 3.307-3.6925 7.1498.9928-.3372 1.9668-.6681 2.9642-1.0068.7632 1.3653 1.4767 2.6415 2.1901 3.9177-1.0753-.1349-2.6527.127-3.1315-.479-1.436-1.8176-3.4619-2.1299-5.363-2.8486-3.587-1.3562-5.072-4.3974-4.1158-8.4213.5939-2.4992 3.5026-5.2346 7.1654-4.431.5048.1107 1.0526.0261 2.2885.0397-.733-1.3652-1.1305-2.4506-1.8148-3.3068-1.347-1.6854-1.0201-3.5171-.1142-4.9852 1.2674-2.054 3.4409-2.4736 5.7369-1.7538 1.7187.5388 2.7085 1.6817 2.6405 3.5735-3.0976-.1255-4.7668.7778-5.8467 3.164-.6933 1.5319-.0671 2.4515 1.597 2.2936 2.1343-.2025 4.7848-1.8899 4.6901-5.3766 4.2032.6018 6.4034 4.4892 4.6889 8.3772-.4698 1.0653-.9581 2.0081.5352 2.6139-.426.8203-.8699 1.6319-1.2743 2.4629-1.1741 2.4129-.7738 5.1833 1.0071 7.0936 1.2393 1.3294 2.1068 1.1324 2.9137-.4751 1.7414-3.4684.1874-6.2424-1.737-8.9705z" fill="#cbecb4"/><path d="m253.9906 281.309c-.6544 3.1839-1.7424 4.2269-4.9574 4.797.0731 1.6485.7543 3.6237.0779 4.85-1.0497 1.9031-2.9977 3.3242-4.6376 4.8726-.2271.2144-.9323.1219-1.3108-.0546-3.8252-1.7831-5.3477-5.3102-4.0925-9.3716-.0812-.128-.1605-.2574-.2488-.3804-.6927-.965-2.4846-1.7487-.9018-3.1925 1.39-1.2679 2.0837.0946 3.178.8947.9003.6582 2.6062.2145 4.0434.262-.9636-4.9284.942-6.9352 5.545-6.3845-.1307 2.6439.4434 3.288 3.3046 3.7073z" fill="#cbecb4"/><path d="m221.1112 273.937c-.7134-1.2762-1.4269-2.5524-2.1901-3.9177-.9974.3388-1.9714.6696-2.9642 1.0068-.9602-3.8429.2219-5.9049 3.6925-7.1498.6227-.2234 1.0126-1.0955 1.51-1.6681l-.0026.002c1.5504-.3335 3.0932-.7106 4.6545-.9808.7135-.1235 1.4636-.0364 2.5479-.0488-1.6363 2.7068-4.0975 2.1314-6.3988 2.3515 4.4507 3.6731 4.8583 5.0603 3.0462 8.7857 1.6462 1.0892 3.2271 2.1352 4.8077 3.1813-.0047.1469-.0119.2936-.0221.4403.4512 3.5968.1623 4.1015-3.3486 5.9833-.1633.0875-.2126.3877-.315.5888-.8653-.5664-1.7306-1.1328-2.5958-1.6993.0401-1.7324.0801-3.4648.127-5.4949-.3143-.2409-.9765-.7484-1.6387-1.2559-.3033-.0414-.6066-.0829-.9099-.1244z" fill="#b6e599"/><path d="m274.6873 296.065c1.2648 2.3884.7678 4.6972-.7605 6.6471-1.5056 1.921-3.2446 3.6743-6.1593 3.3159-5.1436-.6324-8.079-3.5359-7.8933-8.0302l.0189-.0149c3.9659 1.0446 6.9223-.2828 8.6923-4.1329 2.2605 2.9303 3.1597 3.2206 6.1019 2.215z" fill="#cbecb4"/><path d="m259.8742 297.9979c-3.0656-.984-5.1958-4.3152-4.6987-7.3474.5219-3.1831 3.5976-5.6895 6.7021-5.5699 3.6057.1389 6.2909 1.9115 6.4433 5.4994-5.4257.7717-7.8623 2.9121-8.4278 7.4031z" fill="#cbecb4"/><path d="m251.4037 275.8375c.2507-2.5884 1.777-4.3214 4.0632-5.1574 2.1663-.7922 4.267-.1066 6.0252 1.3874 1.988 1.6893 2.2059 5.2281.5148 7.6272-1.5754 2.2349-4.3186 2.9662-6.6352 1.7688 1.2337-1.2489 1.8137-2.7055.943-4.3415-.9249-1.7379-2.5645-1.6764-4.2255-1.3531-.2245.0437-.4568.0467-.6855.0686z" fill="#cbecb4"/><path d="m259.8931 297.983c.5655-4.4911 3.0021-6.6315 8.4278-7.4031.4601.0657.9202.1315 1.3803.1971 1.7038 1.4564 3.4075 2.9129 5.1112 4.3695-.0418.3062-.0836.6124-.1252.9187-2.942 1.0055-3.8413.7153-6.1017-2.215-1.7701 3.85-4.7265 5.1774-8.6924 4.1328z" fill="#b6e599"/><path d="m234.2396 274.1394c-.0106-1.2252-.3257-2.5523.0422-3.6507.505-1.5077 1.4534-2.8918 2.3519-4.235.7381-1.1033 1.6806-2.0698 2.6272-3.2113 2.0489 1.5877 4.5443 3.5213 7.0396 5.455-.1331.3181-.2661.6363-.3992.9544-.9921-.1231-2.0594-.0573-2.9581-.415-1.243-.4948-1.7516-.3216-2.1471 1.0196-.7582 2.5706-2.8998 4.066-5.6673 4.2321-.2965-.0496-.5928-.0994-.8892-.1491z" fill="#b6e599"/><path d="m204.2514 254.5015c-2.0777-2.0964-.9127-5.8508 2.2319-7.1922 1.9036-.8121 4.7489-.1067 6.1228 1.518 1.5502 1.8331 1.865 4.6294.5951 6.4459-.3447.493-1.069.7206-1.6193 1.0698.2868-2.6567-.8907-5.0276-2.6994-5.435-1.9219-.4329-3.814 1.0352-4.6311 3.5935z" fill="#cbecb4"/><path d="m204.2514 254.5015c.8171-2.5583 2.7092-4.0265 4.6311-3.5936 1.8087.4074 2.9862 2.7783 2.6994 5.435-.8771 2.1272-2.7548 2.0528-4.4446 1.7015-1.7289-.3594-3.0031-1.4846-2.8859-3.5429z" fill="#b6e599"/><path d="m230.977 262.5075c1.9244 2.728 3.4784 5.502 1.7373 8.9704-.807 1.6075-1.6744 1.8044-2.9137.4751-1.7809-1.9103-2.1812-4.6807-1.0071-7.0936.4044-.831.8483-1.6426 1.2743-2.4629.3032.0372.6062.0741.9092.111z" fill="#b6e599"/><path d="m251.4037 275.8375c.2287-.0219.461-.0249.6855-.0686 1.661-.3232 3.3006-.3848 4.2255 1.3531.8707 1.636.2908 3.0926-.943 4.3415-.4604-.0516-.9208-.1032-1.3811-.1546-2.8611-.4192-3.4353-1.0632-3.3046-3.7072.2391-.5881.4784-1.1761.7177-1.7642z" fill="#b6e599"/><path d="m224.8436 251.4054c.0948 3.4867-2.5558 5.174-4.6901 5.3766-1.6642.1579-2.2903-.7617-1.597-2.2936 1.0799-2.3862 2.7491-3.2895 5.8467-3.164.1467.0283.2934.0553.4404.081z" fill="#b6e599"/><path d="m274.8124 295.1464c-1.7037-1.4566-3.4074-2.9131-5.1112-4.3695 1.573-1.6451 3.5483-1.5528 4.9743-.2834.8525.759.8269 2.5457 1.0771 3.8925.0351.1887-.61.5038-.9402.7604z" fill="#cbecb4"/><path d="m226.1286 282.5116c.1024-.2011.1517-.5013.315-.5888 3.5109-1.8818 3.7998-2.3865 3.3486-5.9833 1.9632.764 1.8994 2.5395 1.2671 3.8353-.5835 1.1957-1.9724 2.0576-3.1405 2.8749-.3791.2651-1.1815-.0749-1.7902-.1381z" fill="#cbecb4"/><path d="m222.0211 274.0615c.6622.5075 1.3244 1.015 1.6387 1.2559-.0469 2.0301-.0869 3.7625-.127 5.4949-2.1443-1.3357-2.6902-2.7592-1.9477-4.9733.1933-.5764.2933-1.1841.436-1.7775z" fill="#cbecb4"/><path d="m112.9321 266.8843c-1.621-1.3776-2.5354-3.0674-2.4124-5.2055.0253-.4402.3963-1.1234.7363-1.2143.3986-.1066 1.0324.2024 1.3997.5208 1.8717 1.6221 1.9673 3.67.2764 5.899z" fill="#b6e599"/><path d="m221.1594 262.2082c-1.1838-.9316-2.3676-1.8633-3.5514-2.7949.2358-.2491.4716-.4981.7074-.7471 1.6045.5397 2.4263 1.8434 2.8414 3.5441 0 0 .0026-.0021.0026-.0021z" fill="#b6e599"/></g></svg>