<svg id="Food" height="512" viewBox="0 0 1000 1000" width="512" xmlns="http://www.w3.org/2000/svg"><g><path d="m202.191 705.327c-5.154 2.968-29.202 1.733-36.46 2.462-20.061 2.01-36.486 9.062-50.229 21.56-27.678 25.175-31.75 72.837-8.891 104.071 9.645 13.178 23.716 21.403 40.89 23.959 7.271 27.758 30.971 49.629 59.482 52.139 16.249 1.432 32.108-3.488 45.863-14.229 32.729-25.549 32.52-61.854 29.521-86.944-2.813-23.493 11.595-41.83 30.453-59.653 14.683 22.839 52.603 22.486 65.165-10.165 2.102-5.26 4.068-10.032 6.073-14.521 3.401-7.61 7.101-8.524 13.023-8.002 18.19 1.598 36.232-7.902 48.92-26.231 8.41-12.168 11.886-10.562 21.695-6.806 28.32 10.86 42.865 8.853 67.233-11.16 13.982-11.48 17.83-9.39 30.471-.172 34.703 25.342 59.763 19.776 90.152-10.833 12.635-12.735 14.293-13.156 31.976-9.145 23.01 5.241 44.816 2.308 60.096-8.701 11.885-8.562 18.697-21.66 26.297-41.85 3.658-9.758-.573-10.776 19.078-14.372 49.669-9.105 51.671-38.147 53.114-66.746.945-19.276 3.306-21.883 14.666-28.423 29.799-17.168 40.077-45.15 27.325-76.247-3.141-7.651-.979-12.306 6.514-24.711 22.215-36.744 16.479-61.255-12.03-92.551-16.044-17.619-17.306-22.487-12.943-40.876 11.302-47.744-12.894-75.128-51.392-78.517-16.363-1.439-29.381 6.77-36.284-16.844-15.729-53.884-62.28-60.179-118.396-42.682-14.495 4.53-17.417 3.364-27.529-4.423-48.546-37.361-82.532-29.26-108.401 6.13-11.263 15.421-13.782 14.892-24.984 15.209-27.17.762-83.707 2.354-82.727 58.298.472 27.042-2.646 31.791-15.309 36.319-38.389 13.738-44.483 50.284-38.06 80.419 2.225 10.426.944 13.606-8.03 20.021-34.846 24.916-31.14 53.968-27.527 76.199 2.649 16.274 5.163 20.467-11.02 36.269l-2.162 2.116c-16.566 16.315-24.906 36.107-24.784 58.824.075 14.631 4.888 27.203 9.133 38.294 17.119 39.143-10.113 46.142-26.398 54.321-14.564 7.306-43.816 21.938-40.149 49.729 1.319 9.979 6.958 17.521 14.399 22.636-15.604 13.51-30.845 26.047-47.834 35.829z" fill="#fff"/><g><g><path d="m206.987 881.783c-20.688-1.82-35.721-21.538-34.21-44.887l.063-.982.958-.21c6.582-1.432 13.037-3.747 18.667-6.698 1.983-1.039 1.854-2.859 1.708-3.595-.261-1.306-1.281-2.692-2.713-2.818-.547-.048-1.124.085-1.715.394-10.622 5.569-21.819 8.021-32.392 7.089-23.34-2.054-38.277-19.802-38.061-45.208.129-14.596 4.783-26.16 13.831-34.374 15.261-13.852 39.562-14.894 54.603-13.94 14.732.937 21.128-.354 45.215-18.261 1.613-1.203 31.335-24.677 43.898-35.659l9.906-8.635s-3.171 9.375-3.61 11.977c-1.055 6.294 1.227 12.329 6.255 16.561 1.654 1.388 3.664 2.168 6.154 2.388 4.181.369 8.857-.924 12.976-2.064 4.527-1.24 9.597-2.04 12.519-.964l2.016.747s-8.188 7.349-11.551 10.328c-29.188 25.842-59.366 52.567-56.981 93.133 1.588 26.917 3.757 63.781-33.495 74.264-4.767 1.338-9.49 1.815-14.041 1.414z" fill="#fef49c"/><path d="m341.95 736.261c-5.394-.469-7.48-7.111-7.635-13.173.042-1.327.12-2.67.206-4.066.465-7.645 1.037-17.161-4.545-22.222-2.136-1.943-4.769-3.021-8.043-3.31-5.237-.461-10.994 1.192-16.08 2.652l-.958.274c-2.542.728-4.652 1.004-6.453.845-2.233-.196-3.95-1.084-5.102-2.636-3.063-4.133-1.355-12.227.299-20.055 1.188-5.629 2.417-11.446 1.548-14.698-1.674-6.269-7.361-9.747-17.395-10.632-.753-.065-1.497-.114-2.229-.149-5.957-.66-9.774-2.771-11.438-6.276-2.862-6.04 7.271-12.284 11.089-14.634 13.328-6.562 45.841-26.518 54.935-41.939 13.571-14.849 19.908-31.655 17.73-46.188-1.833 9.935-4.351 18.721-9.256 27.673l-2.445-.729c.635-7.925-.516-16.488-3.519-26.185-1.132-3.662-2.36-7.187-3.562-10.633-5.167-14.833-10.054-28.847-4.498-46.311 2.965-9.315 9.798-15.846 16.404-22.16 3.23-3.093 6.579-6.287 9.352-9.728 13.962-17.315 11.185-34.787 7.963-55.02l-.777-4.949c-3.008-19.524 8.498-30.021 19.623-40.167 7.805-7.125 15.877-14.49 19.183-25.056 2.192-7.013.032-15.637-1.877-23.242-.497-1.994-.979-3.917-1.369-5.738-5.563-26.108 10.608-34.815 27.729-44.034 2.007-1.078 4.023-2.167 6.021-3.292 18.302-5.453 29.796-13.044 35.127-23.183-6.277 6.854-13.88 10.933-20.682 14.261l-1.627-1.945c4.864-6.64 7.998-15.556 9.318-26.502.547-4.53.498-8.941.454-13.209-.142-12.639-.272-24.579 16.109-33.168 11.021-5.779 23.683-5.264 35.931-4.765 4.827.198 9.391.381 13.86.204 12.927-.515 22.899-6.107 31.38-17.597 2.092-2.833 3.729-5.693 5.313-8.458 3.484-6.068 6.769-11.801 14.103-16.226 5.233-3.161 11.036-4.486 17.246-3.939 15.347 1.352 30.778 14.16 39.065 21.043 5.756 4.776 10.648 8.413 15.762 10.622l4.425 1.907-4.783.587c-5.058.617-10.215.779-15.365.481 2.683.854 5.457 1.409 8.367 1.665 5.955.523 12.545-.226 20.139-2.293 1.904-.145 3.615-.386 5.335-.764 5.972-1.298 12.157-3.058 18.145-4.762 14.521-4.131 29.537-8.404 44.276-7.105 8.161.719 15.498 3.043 22.425 7.111 10.325 6.063 13.584 16.836 16.734 27.257 2.982 9.861 5.796 19.176 14.081 25.072 7.613 5.419 15.771 6.748 22.03 7.298 3.62.319 7.354.409 10.968.497 3.652.09 7.424.185 11.12.509 8.327.733 14.552 2.52 20.177 5.789 14.938 8.684 11.027 26.948 7.572 43.063-1.854 8.657-3.609 16.829-2.646 23.189 2.117 13.913 11.306 24.202 20.19 34.155 9.872 11.049 20.071 22.477 20.302 38.729.148 11.116-6.071 19.408-12.092 27.425-3.522 4.69-6.848 9.122-9.009 14.092l-1.824 4.194-.669-4.525c-1.205-8.235-1.45-15.619-.721-22.706-2.369 7.339-2.076 15.229-1.504 22.817 1.026 13.601 3.948 26.99 8.225 37.7 2.784 9.92 4.732 21.314-6.918 32.669-4.331 4.225-9.155 7.112-13.815 9.903-6.671 3.988-12.974 7.765-17.522 15.091-5.497 8.849-5.905 21.019-6.266 31.757-.065 2.049-.135 4.048-.236 5.965-.652 12.598-2.172 23.599-14.247 30.615-5.566 3.236-13.178 4.055-20.535 4.848-3.838.41-7.463.801-10.616 1.513-6.929 1.563-12.296 5.021-16.402 10.582-4.607 6.225-7.414 13.992-10.124 21.505-2.258 6.247-4.589 12.702-7.962 18.362-8.599 14.426-22.344 14.974-31.939 14.127-5.891-.519-11.896-1.789-17.71-3.024-4.618-.978-8.989-1.902-13.076-2.41l-1.265-.135c-16.039-1.412-27.026 8.979-37.648 19.026-10.049 9.506-20.436 19.334-34.727 18.075-5.14-.452-10.401-2.251-16.101-5.494-14.507-8.267-25.938-14.779-36.905-15.745-10.752-.946-20.77 3.499-32.477 14.414-6.935 6.463-14.749 9.074-24.604 8.206-6.22-.548-12.541-2.416-18.653-4.223-6.124-1.813-11.907-3.522-17.597-4.023-4.229-.372-7.908-.013-11.267 1.1-12.324.502-22.75 4.352-30.279 11.028 6.33-3.461 12.53-5.641 19.105-6.759l3.987-.677-3.231 3.27c-.286.289-.584.575-.867.9-3.902 4.379-6.873 9.117-10.021 14.131l-1.909 3.035c-6.969 10.949-14.259 11.901-21.095 11.299-1.779-.156-3.574-.434-5.379-.715-1.777-.275-3.566-.558-5.368-.715-3.833-.338-6.795-.027-9.596 1.008-14.261 5.252-19.611 19.535-24.791 33.342-.855 2.277-1.707 4.547-2.598 6.771-2.049 5.316-5.106 7.969-9.931 8.594-.536.079-1.064.087-1.573.042z" fill="#ff915b"/><path d="m333.035 724.514c.041-1.328.118-2.67.206-4.068.464-7.643 1.035-17.157-4.545-22.221-2.137-1.94-4.769-3.021-8.043-3.311-5.238-.461-10.995 1.194-16.079 2.653l-.96.277c-2.543.725-4.651 1.002-6.452.843-2.23-.196-3.95-1.085-5.101-2.636-3.063-4.132-1.355-12.227.297-20.053 1.187-5.629 2.418-11.449 1.548-14.7-1.675-6.27-7.362-9.747-17.394-10.631-.754-.066-1.498-.115-2.23-.15-5.956-.661-9.774-2.771-11.439-6.276-2.861-6.039 7.271-12.284 11.091-14.636 2.861-1.687 5.455-3.183 8.018-4.665 19.451-11.237 37.822-21.852 46.916-37.271 13.572-14.851 19.908-31.655 17.731-46.188-1.792 9.715-4.236 18.33-8.932 27.073-.533.994-2.951 2.75-2.713-.892.502-7.71-.668-16.037-3.574-25.423-1.133-3.661-2.361-7.185-3.563-10.631-5.167-14.835-10.055-28.848-4.499-46.311 2.966-9.317 9.795-15.847 16.404-22.161 3.231-3.093 6.579-6.287 9.353-9.728 13.962-17.316 11.186-34.788 7.966-55.02l-.781-4.949c-3.007-19.523 8.501-30.019 19.625-40.168 7.806-7.123 15.875-14.489 19.181-25.055 2.483-7.928-2.855-27.158-3.246-28.979-5.566-26.109 10.605-34.816 27.73-44.035 2.003-1.079 4.022-2.168 6.021-3.292 18.304-5.454 29.795-13.042 35.127-23.182-5.974 6.521-13.143 10.53-19.682 13.768-1.647.816-3.595-.014-1.981-2.358 4.499-6.538 7.414-15.141 8.673-25.596.549-4.529.499-8.942.455-13.21-.141-12.638-.272-24.578 16.109-33.166 11.021-5.778 23.683-5.265 35.932-4.766 4.829.196 9.391.382 13.86.203 12.926-.513 22.899-6.107 31.381-17.596 2.09-2.833 3.729-5.694 5.313-8.457 3.483-6.071 6.768-11.801 14.102-16.227 5.235-3.163 11.036-4.485 17.246-3.938 15.348 1.352 30.78 14.159 39.065 21.043 12.337 8.973 20.187 12.529 20.187 12.529l-4.781.585c-5.06.617-10.217.78-15.367.482 5.84 1.988 20.912 1.439 28.506-.627 1.904-.145 3.616-.385 5.336-.763 5.972-1.299 12.156-3.06 18.143-4.762 14.521-4.133 29.538-8.405 44.278-7.107 8.16.719 15.494 3.044 22.424 7.113 10.325 6.063 13.583 16.836 16.734 27.256 2.982 9.861 5.795 19.175 14.081 25.071 7.613 5.42 15.771 6.748 22.03 7.298 3.62.318 18.392.681 22.087 1.006 8.328.732 14.551 2.519 20.178 5.789 14.938 8.684 11.024 26.948 7.571 43.063-1.854 8.656-3.608 16.828-2.643 23.189 2.115 13.913 11.306 24.203 20.188 34.155 9.873 11.05 20.07 22.477 20.303 38.729.15 11.118-6.07 19.41-12.092 27.426-7 9.365-10.834 18.286-10.834 18.286s-2.246-16.824-1.39-27.229c-2.368 7.338-2.075 15.227-1.503 22.815 1.026 13.602 3.948 26.99 8.224 37.7 2.785 9.919 4.733 21.314-6.917 32.67-4.332 4.225-9.154 7.111-13.815 9.904-6.672 3.988-12.974 7.763-17.522 15.089-6.445 10.382-6.239 32.733-6.5 37.725-.652 12.597-2.173 23.597-14.251 30.613-5.564 3.237-13.176 4.056-20.533 4.847-3.839.413-7.462.802-10.617 1.516-6.928 1.563-12.294 5.021-16.401 10.581-4.608 6.224-7.414 13.991-10.127 21.505-2.254 6.246-4.586 12.703-7.957 18.362-8.601 14.427-22.345 14.972-31.941 14.126-5.891-.519-11.896-1.79-17.711-3.023-21.239-4.501-29.487-4.804-51.987 16.483-10.048 9.503-20.435 19.331-34.726 18.073-5.141-.453-10.404-2.25-16.102-5.494-14.507-8.269-25.939-14.78-36.906-15.746-10.752-.946-20.769 3.498-32.476 14.415-6.937 6.464-14.75 9.071-24.605 8.204-6.219-.547-12.542-2.414-18.654-4.222-6.124-1.813-11.908-3.521-17.597-4.022-4.229-.373-7.908-.013-11.266 1.098-12.324.504-22.749 4.354-30.28 11.029 6.331-3.459 12.532-5.639 19.105-6.758l3.985-.679s-6.66 5.834-14.117 18.303l-1.909 3.036c-6.969 10.946-14.258 11.899-21.096 11.298-1.777-.156-3.575-.436-5.378-.716-1.777-.275-3.566-.556-5.368-.715-3.835-.337-6.795-.025-9.595 1.007-14.261 5.255-19.612 19.535-24.792 33.344-.856 2.276-1.706 4.548-2.597 6.771-5.378 13.959-18.666 14.291-19.143-4.542z" fill="#ff915b"/><g><path d="m337.38 577.054c-.295.429-.597.854-.898 1.278-.804 1.123-1.616 2.238-2.499 3.348 4.503-4.38 7.795-10.405 9.902-16.317-1.697 3.924-3.864 7.836-6.505 11.691z" fill="#fec771"/></g><g><path d="m861.403 311.283c-8.886-9.953-18.073-20.242-20.189-34.155-.966-6.36.789-14.533 2.645-23.189 2.812-13.093 5.917-27.61-1.033-37.249 1.968 19.764-5.28 32.509-8.199 43.93-6.317 24.691 5.05 34.312 17.234 48.758 13.754 16.307 31.297 35.464 20.432 53.075-2.383 3.854-9.166 14.833-15.215 10.696-.238 5.674.093 11.596 1.035 18.05l.669 4.525 1.824-4.194c2.161-4.97 5.485-9.4 9.009-14.092 6.021-8.017 12.24-16.309 12.092-27.425-.232-16.253-10.432-27.682-20.304-38.73z" fill="#ff564d"/></g><g><path d="m855.72 391.144c-.539-7.147-.747-14.542 1.195-21.511-7.847 8.284-10.5 19.893-10.187 32.715.269 10.991 6.316 22.503 9.207 32.847 7.354 26.296-19.604 29.339-32.311 40.091-13.913 11.772-12.809 24.169-13.667 41.5-.593 11.999-.581 25.091-12.333 32.167-6.882 4.143-18.499 4.493-28.489 5.666-12.105 1.423-19.954 6.371-24.919 16.801-6.886 14.459-5.218 33.06-20.759 43.865-9.253 6.433-25.402 5.451-45 1.334-11.959-2.512-23.162-4.701-34.487-.705-10.31 3.636-18.503 12.604-26.045 20.051-16.271 16.076-30.776 5.134-44.868-5.93-15.95-12.52-35.645-13.155-52.489-1.834-15.663 10.525-27.648 23.129-48.449 17.311-8.928-2.497-18.885-4.102-28.155-2.868-8.943 1.189-15.189 6.287-19.218 13.619 5.965-2.787 11.795-2.808 19.472-3.122 3.357-1.111 22.739 1.111 28.862 2.925 19.409 5.735 28.913 8.828 44.37-5.577 11.707-10.915 20.613-13.767 31.365-12.82 10.969.967 39.143 20.452 53.143 20.785 16.5 1.667 25.652-9.709 35.701-19.215 5.147-4.869 16.155-15.651 30.799-17.451 11.887-1.46 20.092 2.566 29 4.167 23.011 4.133 33.402-.142 41.84-14.3 3.374-5.66 5.705-12.114 7.962-18.361 2.71-7.514 5.517-15.281 10.124-21.506 4.106-5.561 8.979-7.772 15.907-9.334 24.167-2.5 31.338-1.533 41.112-17.025 7.555-11.975-.945-38.808 11.283-58.92 4.55-7.327 10.602-10.235 17.271-14.221 17.214-10.315 27.266-21.063 20.984-43.442-4.272-10.711-7.195-24.1-8.221-37.702z" fill="#ff564d"/></g><g><path d="m333.035 724.515c.152 6.063 2.239 12.703 7.635 13.173 4.215.373 8.587-1.053 11.505-8.626.891-2.225 1.741-4.495 2.597-6.771 5.18-13.809 10.531-28.09 24.792-33.344 13.728-4.493 17.275 3.326 29.228-.493 1.854-.593 6.44-2.868 10.333-7.5 5.881-6.995 18.668-25.501 18.668-25.501s-7.637 1.588-9.668 2.167c-8.461 10.645-17.994 21.982-35.522 23.272-19.864 1.466-31.909 9.725-40.028 27.949-1.279 3.349-2.453 6.729-3.521 10.145-2.637 8.107-9.595 9.3-9.209-3.203.203-6.066.197-11.768-1.305-17.672-3.231-12.722-17.659-12.84-27.812-10.092-11.988 3.246-13.329-3.906-12.623-11.561 1.658-17.97 1.902-29.736-22.417-32.297-6.517-.686-10.625-1.875-10.798-7.568-2.079 2.365-3.292 5.027-2.047 7.65 1.665 3.505 5.483 5.614 11.44 6.275 5.755.276 13.208 2.102 17.185 6.427 3.689 4.015 3.029 8.91.891 19.055-4.693 22.214-1.338 25.434 11.257 21.846l.959-.277c23.814-6.833 29.788 4.455 28.667 22.878-.088 1.398-.166 2.739-.207 4.068z" fill="#ff564d"/></g><g><path d="m827.088 208.868c-3.613-1.151-7.584-1.941-12.263-2.354-3.694-.325-7.467-.418-11.12-.506-3.611-.091-7.347-.182-10.967-.5-6.259-.552-14.417-1.878-22.029-7.299-8.286-5.896-11.1-15.21-14.081-25.07-3.152-10.42-6.41-21.193-16.735-27.256-6.929-4.069-14.263-6.395-22.424-7.113-14.74-1.298-29.756 2.976-44.278 7.106-5.985 1.703-12.171 3.464-18.142 4.763-1.721.378-3.433.618-5.336.763-7.595 2.066-14.186 2.815-20.14 2.291-1.186-.104-2.335-.291-3.481-.497 11.971 11.947 36.929 3.265 63.195-4.094 18.211-5.102 32.988-5.752 45.717 2.828 14.621 9.856 13.954 26.689 20.494 40.001 2.026 4.125 5.75 12.433 19.022 16.983 10.4 3.566 33.272-.628 52.568-.046z" fill="#fec771"/></g><g><path d="m637.205 151.469 4.149-.509-4.425-1.909c-5.112-2.206-10.005-5.842-15.761-10.619-8.286-6.884-23.72-19.691-39.066-21.043-6.21-.547-12.011.775-17.246 3.938-7.334 4.425-10.617 10.155-14.102 16.227-1.584 2.763-3.224 5.624-5.313 8.457-8.479 11.488-18.455 17.083-31.381 17.596-4.47.179-9.031-.007-13.86-.203-12.249-.499-24.909-1.013-35.932 4.765-16.382 8.589-16.25 20.529-16.109 33.166.044 4.269.094 8.682-.454 13.21-1.261 10.455-4.175 19.058-8.673 25.595-1.499 2.177.471 3.109 1.756 2.469 1.899-.949 3.861-1.991 5.826-3.1 4.317-9.683 6.65-20.454 6.905-29.916 1.585-57.746 57.263-22.443 88.145-46.234 20.442-15.744 23.313-45.086 57.049-32.194 13.917 5.317 25.773 13.5 38.492 20.304z" fill="#fec771"/></g><g><path d="m434.156 254.771c7.682-4.035 13.648-9.292 17.586-15.447-6.256 5.064-14.919 9.234-26.173 12.589-1.998 1.124-4.017 2.212-6.021 3.292-17.125 9.219-33.297 17.926-27.73 44.035.393 1.82 5.441 21.966 3.246 28.979-3.306 10.565-11.375 17.932-19.181 25.055-11.125 10.149-22.631 20.644-19.625 40.168l.782 4.949c3.219 20.23 5.996 37.703-7.967 55.019-2.773 3.441-6.121 6.636-9.353 9.729-6.608 6.313-13.438 12.844-16.404 22.161-5.556 17.463-.668 31.476 4.499 46.311 1.201 3.446 2.43 6.969 3.563 10.631 2.836 9.157 4.018 17.307 3.607 24.857-.22 4.069 1.87 3.002 2.976.903 3.367-6.403 5.543-12.755 7.162-19.528-1.541-8.867-4.39-17.625-6.984-25.527-5.087-15.511-8.149-24.722 1.828-38.873 6.615-9.377 15.155-17.365 22.043-26.583 11.854-15.855 12.821-32.645 6.941-51.039-6.489-20.319-.545-30.612 14.192-43.458 8.146-7.099 14.373-14.898 18.495-24.883 4.688-11.357.882-24.543-1.507-35.868-5.254-24.887 15.072-37.518 34.025-47.472z" fill="#fec771"/></g><g fill="#fec771"><path d="m773.735 434.543c-6.057-4.441-12.484-7.719-19.198-11.043-15.679-7.767-12.7-18.288 3.265-21.065 18.546-3.224 21.145-22.039 12.04-34.191.451 20.712-11.883 22.712-25.027 23.26-25.521-.881-23.763 23.027-17.296 29.462 8.916 8.875 39.92 17.329 37.286 34.834-2.809 18.647-27.889 12.817-36.44 25.974-10.837 16.659 14.184 45.646-10.912 56.849-5.828 2.604-17.725-.155-22.703-4.729-6.6-6.063-10.633-23.134-21.159-20.125-27.297 7.521-24.964 43.854-51.048 32.754 14.295 16.204 31.494 7.863 44.588-11.931 7.952-12.032 17.41 6.641 21.589 11.085 10.392 11.078 30.592 13.858 45.273-2.454 9.041-10.033 11.49-20.936 10.211-34.121-3.007-30.982 26.67-24.018 36.348-44.861 4.921-10.612 3.073-22.445-6.817-29.698z"/><path d="m451.15 473.133c7.189-9.125 28.687-25.877 16.26-38.545-12.79-13.039-27.172-5.549-42.697-7.541-15.946-2.048-23.991-14.503-21.512-30.167 7.261-45.796 66.405-5.62 91.86-21.313 15.085-9.298.76-25.916-8.253-33.364-6.924-5.718-13.34-11.402-13.989-20.859-1.132-16.515 16.305-20.735 31.215-21.519-11.209-10.643-32.458-3.825-40.682 10.335-5.663 9.758-1.276 20.805 5.01 28.795 1.787 1.684 3.646 3.293 5.564 4.825 10.837 9.199-.063 22.021-12.583 18.346-9.297-2.729-18.752-2.152-28.23-1.435-26.405 1.996-62.776 33.449-42.744 61.689 8.509 11.994 20.73 15.421 34.919 15.856 3.543.11 37.811-3.692 27.023 11.243-6.329 8.761-14.545 15.425-20.466 24.644-16.404 25.526 1.629 52.229 28.13 57.461.675.135 1.35.218 2.021.312-23.381-15.311-33.737-29.701-10.846-58.763z"/><path d="m550.51 242.577c5.917-11.608 15.396-21.608 29.029-15.492 5.903 2.647 9.581 9.014 12.034 14.664 8.27 19.095 24.211 24.432 33.64 7.063 7.198-13.277 8.125-30.236 18.912-41.595 9.35-9.848 22.162-9.485 32.258-.53 10.751 9.541 2.989 29.019 4.242 41.267 2.453 24.067 39.666 21.333 42.547 49.16 3.734-6.93 4.229-15.74-.716-22.325-9.479-12.632-27.844-16.327-28.573-35.624-.478-12.545 1.208-22.599-4.037-34.501-7.711-17.499-31.867-19.904-46.46-11.188-7.367 4.398-11.171 12.698-14.338 20.274-4.358 10.438-14.873 43.513-25.997 18.676-6.304-14.086-26.754-26.65-40.724-13.84-7.626 6.997-11.391 15.749-12.25 24.945.152-.317.271-.639.433-.954z"/></g><g><path d="m311.445 702.075c-.924.23-7.924 2.127-10.508 2.537-25.987 22.107-46.462 50.508-53.688 81.006-5.846 24.645 7.421 86.772-32.396 86.211-18.975-.271-30.72-18.769-34.69-37.831-2.095.647-7.322 1.916-7.322 1.916l-.063.982c-1.511 23.349 13.521 43.065 34.21 44.887 4.552.401 9.274-.076 14.042-1.419 37.253-10.481 35.083-47.347 33.495-74.264-2.385-40.565 27.795-67.291 56.981-93.133 3.362-2.979 11.551-10.328 11.551-10.328-2.778-.389-3.835-2.529-11.612-.564z" fill="#f6b279"/></g><g><path d="m134.568 806.095c-11.304-18.639-3.456-40.377 8.812-55.942 4.093-5.189 8.657-8.734 13.536-11.386-8.643 2.056-17.088 5.643-23.792 11.726-9.048 8.214-13.702 19.778-13.831 34.374-.217 25.406 14.721 43.154 38.061 45.208 8.245.727 16.859-.632 25.291-3.891-19.236 1.576-37.478-2.607-48.077-20.089z" fill="#f6b279"/></g><g><path d="m178.515 752.448c-10.027-8.188-24.907 6.04-30.271 13.81-7.798 11.282-10.029 29.43 2.664 37.672.812.525 1.806.203 2.18-.67 3.881-8.942 4.653-18.283 8.114-27.322 1.887-4.928 5.165-9.719 8.992-13.318 3.289-3.096 6.76-4.987 8.592-9.289.136-.327-.013-.674-.271-.883z" fill="#fffad2"/></g><g><path d="m199.534 846.297c-.796 12.967 21.878 21.682 26.27 7.794.175-.53.011-1.037-.422-1.382-.638-.505-1.908-1.714-2.917-2.407-2.32-1.602-5.362-1.302-8.026-1.508-4.273-.324-8.16-2.532-11.908-4.395-1.296-.643-2.915.556-2.997 1.898z" fill="#fffad2"/></g></g><g fill="#68182b"><path d="m209.756 809.33c-2.248-1.597-4.729-.753-6.425 1.091-1.777 1.928-3.724 3.703-5.72 5.402-4.522 3.854 1.391 10.914 5.915 7.06 2.606-2.22 4.998-4.619 7.314-7.133 1.709-1.852.76-5.109-1.084-6.42z"/><path d="m888.361 345.076c-4.669-27.178-32.604-37.97-39.723-63.726-5.595-20.241 11.274-41.301 2.462-61.425-5.755-13.117-16.124-18.611-29.772-21.117-13.133-2.405-25.506 1.206-38.62-3.163-16.533-5.507-17.562-25.669-23.087-39.175-12.524-30.608-51.857-28.236-77.988-22.12-19.52 4.568-33.116 14.193-50.951.896-17.011-12.683-31.337-26.417-53.839-25.834-33.67.873-32.939 44.656-66.305 45.982-28.287 1.123-71.727-1.271-71.03 38.616.45 25.548-1.114 45.372-28.289 55.099-12.711 4.549-23.49 15.839-26.208 29.322-2.076 10.328-1.484 18.312.7 28.578 4.089 19.184-1.421 29.76-15.787 40.03-13.291 9.5-23.14 24.657-21.721 41.514.99 11.789 4.002 23.213 4.493 35.071.651 15.86-10.89 25.933-21.132 36.021-12.526 12.332-19.04 27.175-18.946 44.769.143 26.486 22.322 48.054 13.361 75.362-.957 2.921-2.346 5.606-4.034 8.121-2.04 2.393-4.088 4.778-6.127 7.168-12.304 11.769-31.622 18.987-44.692 26.652-8.021 4.942-17.491 11.951-16.089 22.577 1.143 8.651 11.219 12.729 18.704 13.565 6.09.297 11.194 1.55 12.628 6.08-.063.052-.132.056-.194.109-23.938 20.358-46.825 42.469-74.217 58.243-15.772 9.078-27.407 3.281-44.277 4.972-15.023 1.506-27.768 6.346-39.003 16.564-21.164 19.25-22.526 55.799-6.265 78.02 10.019 13.688 26.316 17.918 42.391 16.542-.916 38.796 41.693 68.24 75.994 41.458 22.77-17.779 25.337-42.313 22.123-69.186-5.336-44.604 32.242-72.366 62.487-99.521.389 3.508.101 7.731-.04 12.001.252 9.966 3.89 20.311 15.016 21.808 9.192 1.234 16.386-5.813 19.417-13.688 3.744-9.382 7.564-18.529 12.317-27.473 8.48-15.978 21.695-5.207 32.43-7.544 7.604-1.657 14.68-3.465 19.778-9.915 10.458-13.228 17.07-31.098 38.395-25.709 9.953 2.52 18.563 7.625 28.896 9.061 24.594 3.422 35.063-26.726 58.626-26.421 21.105.271 36.486 29.351 59.287 24.937 22.606-4.375 32.822-26.584 51.445-37.637 8.436-5.009 31.429 2.835 41.58 4.151 8.873 1.151 17.315-.07 25.658-3.041 17.067-6.077 23.354-27.213 29.168-42.173 9.514-24.485 28.469-18.691 49.918-26.389 15.058-5.4 17.833-23.471 18.85-37.077.947-12.698.162-25.977 7.152-37.229 6.696-10.778 22.402-14.82 31.494-23.678 11.1-10.822 10.681-28.997 5.189-42.387-13.219-32.226 23.616-47.135 18.377-77.661zm-635.141 461.105c1.764 29.947 2.622 63.033-32.543 72.928-27.852 7.836-48.273-16.182-46.6-42.129 6.779-1.475 13.292-3.829 18.993-6.818 5.24-2.746 1.344-11.098-3.933-8.328-32.61 17.095-68.887 2.92-68.535-36.954.373-42.166 38.949-49.904 71.862-46.628 15.889 1.581 33.979-13.729 45.847-22.297 16.032-11.579 30.723-24.816 45.63-37.781-.844 2.46-1.646 4.941-2.09 7.585-1.167 6.944 1.469 13.377 6.701 17.775 6.407 5.389 16.389 1.521 23.208-.192 3.938-.992 6.783-.981 8.826-.224-31.288 28.352-70.07 57.08-67.366 103.063zm601.984-344.533c-10.32 10.06-23.546 12.378-31.534 25.239-6.739 10.853-6.067 26.193-6.696 38.345-.61 11.746-1.886 22.741-13.604 29.555-8.158 4.744-21.487 4.12-30.782 6.216-7.189 1.621-12.811 5.188-17.165 11.078-8.559 11.573-10.783 27.604-18.157 39.976-13.805 23.172-41.348 10.563-61.441 8.064-38.62-4.802-48.252 54.989-89.252 31.635-28.446-16.208-44.772-25.528-70.914-1.15-22.479 20.951-49.222-6.651-71.646.772-13.86.521-27.309 5.517-35.877 16.835-.199.264.152.524.394.365 8.098-5.402 16.052-8.892 24.936-10.403-.438.439-.871.854-1.302 1.337-4.772 5.362-8.218 11.301-12.058 17.334-12.77 20.059-26.396 5.045-40.787 10.353-17.188 6.337-21.746 24.811-28.143 40.856-1.656 4.289-4.109 7.164-8.892 7.781-6.175.8-7.629-7.541-7.738-11.877.281-8.376 2.33-20.785-4.768-27.227-7.167-6.499-18.166-2.993-26.316-.665-19.565 5.591-8.628-18.169-7.798-31.155.217-3.386-.288-6.026-2.363-8.884-4.053-5.583-12.037-7.01-18.75-7.338-3.874-.431-8.51-1.709-10.322-5.531-2.422-5.104 7.74-11.2 10.834-13.108 22.747-13.34 44.668-24.498 55.14-42.239 13.311-14.53 22.314-34.272 16.637-52.562-.067-.213-.356-.215-.396.019-1.921 12.237-4.417 22.475-10.034 32.738.617-7.72-.418-16.487-3.573-26.675-6.049-19.519-14.749-35.155-8.063-56.16 4.304-13.539 17.092-21.008 25.526-31.465 15.462-19.181 10.946-38.318 7.46-60.986-4.972-32.265 30.571-38.448 38.755-64.636 2.891-9.233-1.313-20.728-3.213-29.641-6.002-28.173 14.412-35.391 33.119-45.917 15.854-4.7 32.508-12.686 37.66-28.508.204-.617-.617-1.073-1.009-.534-6.291 8.681-14.663 13.526-23.426 17.809 5.652-7.712 8.389-17.376 9.564-27.114 2.204-18.28-5.092-34.384 15.875-45.377 14.901-7.818 33.167-3.774 49.235-4.414 14.182-.564 24.146-6.974 32.374-18.126 6.689-9.065 8.7-18.097 19.041-24.339 19.163-11.568 40.789 5.352 54.811 16.989 5.494 4.563 10.572 8.442 16.077 10.815-7.359.898-14.813.825-22.445-.259-.154-.023-.252.215-.104.292 11.901 6.495 24.134 5.653 36.188 2.379 1.688-.106 3.435-.352 5.271-.748 27.567-6 56.669-20.905 83.906-4.91 19.192 11.269 12.895 39.573 30.722 52.266 19.997 14.237 44.116 2.371 64.396 14.16 21.655 12.585 1.415 46.369 4.299 65.318 4.552 29.935 40.044 42.522 40.47 72.707.238 16.887-14.944 27.09-20.989 40.977-1.46-9.977-1.68-19.745.469-30.04.042-.195-.258-.292-.359-.132-5.86 9.297-5.733 19.926-4.93 30.57.942 12.517 3.57 26.215 8.313 38.087 2.967 10.634 3.975 20.921-6.626 31.253z"/><path d="m738.477 425.802c-9.291-4.618-12.932-11.248-9.674-20.959 3.467-10.374 14.024-8.548 22.479-8.892 7.687-.313 14.029-3.771 18.859-9.596 9.717-11.724 2.199-29.995-8.443-37.875-4.785-3.545-10.09 3.985-5.33 7.513 10.694 7.921 12.941 25.882-2.178 30.314-10.626 3.114-18.095-1.443-27.65 6.097-16.574 13.085-6.531 34.446 8.723 42.032 4.265 1.718 8.564 3.353 12.816 5.085 13.327 5.426 13.91 24.451-1.317 28.189-7.646 1.877-14.25 3.728-20.341 8.898-4.729 4.016-8.122 12.06-6.604 18.285 1.04 4.251 1.69 6.235 3.288 10.337 7.148 18.289-1.584 39.115-23.363 26.645-7.702-6.706-16.117-26.696-29.391-23.434-7.168 1.765-12.196 6.08-16.631 11.891-7.882 10.337-11.023 31.626-30.6 19.556-5.033-3.107-10.382 4.396-5.328 7.513 12.743 7.861 27.647 5.111 36.146-7.449 5.321-7.868 12.252-31.329 25.528-17.923 4.893 4.943 8.425 10.88 13.366 15.762.334.597.807 1.155 1.577 1.599.706.612 1.425.917 2.129 1.024 12.357 6.096 26.186 4.624 35.979-5.926 15.474-16.661-17.722-48.58 11.889-56.768 13.31-3.681 23.942-5.801 25.428-21.431 1.775-18.618-17.824-25.029-31.357-30.487z"/><path d="m468.584 524.976c-29.656-4.773-29.418-31.469-12.424-49.136 6.762-7.025 13.202-12.813 17.633-21.576 7.972-15.79-7.168-28.658-20.684-32.048-.124-.031-.222.005-.342-.018-.291-.083-.531-.226-.862-.254-8.011-.684-15.75.956-23.667 1.962-13.962 1.773-23.144-8.224-22.411-21.846.495-9.23 6.643-17.786 14.569-22.114 11.343-6.188 26.801-.066 38.241 2.667.22.053.413.001.624.023.207.068.357.201.579.247 19.841 4.169 43.495 3.187 46.267-21.533 1.044-9.275-5.926-16.378-12.529-21.582-5.05-3.977-10.593-6.996-14.016-12.683-8.97-14.894 11.055-25.57 23.034-22.344 5.69 1.533 8.944-7.09 3.217-8.634-20.729-5.584-40.123 9.062-36.037 30.961 1.729 9.276 11.551 15.142 18.474 20.213 11.815 8.662 11.186 24.226-4.623 28.193-7.3 1.837-15.002-.064-22.182-1.597-15.182-3.65-29.759-8.314-44.982-2.264-10.884 4.326-17.168 16.436-19.477 27.166-2.613 12.133 3.33 24.803 13.557 31.337 11.892 7.595 27.431.018 40.267.986 30.636 8.266 5.096 30.664-4.857 42.169-6.306 7.291-10.067 13.906-11.781 23.324-3.825 20.986 15.853 34.692 33.605 37.552 5.871.95 6.639-8.232.807-9.171z"/><path d="m653.827 206.293c9.434-2.895 19.755.522 23.508 9.761 2.654 17.121-7.721 35.371 7.444 49.066 11.759 10.623 31.003 13.792 32.815 32.076.58 5.906 9.641 4.219 9.056-1.659-1.376-13.893-10.021-21.248-21.568-27.836-7.272-4.146-14.494-7.889-18.607-15.574-5.538-10.33 1.833-26.67-.146-38.244-.053-.325-.215-.542-.313-.823-.038-.109-.01-.205-.051-.316-4.828-13.407-18.189-17.636-31.388-15.995-15.297 1.906-21.457 15.385-24.962 28.612-2.284 8.753-4.516 17.046-10.878 23.768-10.272 10.853-19.233 3.811-22.61-8.692-2.099-7.771-6.508-15.189-14.113-18.687-19.038-8.752-32.5 6.302-34.874 24.341-.78 5.896 8.396 6.679 9.175.808 2.156-16.375 18.982-26.793 29.135-9.298 4.774 8.235 4.119 21.952 15.431 25.465 21.514 6.679 33.071-18.026 37.37-34.488 2.492-9.424 5.194-19.102 15.576-22.285z"/><path d="m722.765 601.272c-15.858 7.205-35.604 9.396-52.396 4.283-.177-.053-.305.17-.151.283 13.904 10.265 42.237 11.553 53.373-3.58.398-.546-.234-1.256-.826-.986z"/><path d="m541.523 458.757c-3.902-.914-7.436-2.81-10.789-4.938-7.919-5.021-10.795-11.718-14.569-19.786-.104-.219-.449-.216-.529.024-2.545 7.721 3.569 16.994 9.033 21.967 4.731 4.308 17.308 12.938 23.592 7.444.547-.475.773-1.504.181-2.053-2.053-1.913-4.194-2.022-6.919-2.658z"/><path d="m545.254 468.698c-1.351-.063-2.688.028-4.03.019-2.227-.017-5.268.19-7.274-.953-.321-.184-.773.107-.585.492 1.286 2.615 3.058 3.846 5.917 4.438 1.513.314 3.039.195 4.566.063 1.793-.159 2.652-1.206 3.937-2.252.313-.25.269-.876-.165-.979-.794-.194-1.548-.791-2.366-.828z"/><path d="m521.759 595.434c4.006-6.169 6.008-14.076 6.423-20.739.371-5.918-8.802-6.741-9.176-.809-.872 14.019-10.777 28.989-26.02 19.341-5.161-3.269-9.667-7.021-15.206-9.706-10.982-5.328-21.598-.197-29.046 8.043-3.982 4.411 3.591 9.677 7.513 5.329 15.146-16.761 32.2 10.293 49.853 8.717 4.683-.418 8.517-2.372 11.605-5.244 1.072.741 5.929 3.138 9.442 6.671 1.445 1.454 5.392 3.313 3.149-2.316-.745-1.871-1.949-3.555-3.557-5.256-1.371-1.452-3.091-2.935-4.98-4.031z"/><path d="m665.401 349.991c-.136.482.206.884.702.837 4.939-.47 6.903-5.853 7.842-10.087 1.362-6.141.435-11.343-2.162-16.926-.11-.241-.487-.119-.437.142.782 4.315-.124 9.5-1.039 13.729-.961 4.47-3.702 7.983-4.906 12.305z"/><path d="m671.512 355.723c3.854-.535 6.117-5.717 5.009-9.271-.096-.305-.538-.511-.744-.165-.8 1.337-1.405 2.781-2.185 4.138-.964 1.69-2.094 2.762-2.605 4.673-.093.346.148.675.525.625z"/><path d="m760.946 245.397c6.516-1.083 12.36-1.92 18.934-.392 5.628 1.308 10.055 5.02 15.688 6.253.451.099.826-.419.754-.825-2.64-13.803-27.776-14.835-35.896-5.853-.324.361.106.887.52.817z"/><path d="m790.84 239.082c1.801.958 3.62 1.434 5.469 2.228.374.161.718-.203.674-.564-.354-2.951-1.8-4.937-4.693-5.835-2.938-.914-5.367.054-7.997 1.259-.328.149-.257.712.132.72 2.157.032 4.534 1.191 6.415 2.192z"/><path d="m401.15 492.507c.298-.36-.008-.932-.446-.962-6.472-.46-12.59 1.655-19.087 1.604-7.218-.057-13.622-2.108-20.412-4.252-.403-.127-.825.364-.504.71 8.971 9.579 31.15 14.133 40.449 2.9z"/><path d="m391.781 502.809c1.828.759 3.898.75 5.776.13 2.317-.769 3.563-1.706 4.427-3.963.182-.478-.247-.932-.723-.864-3.332.459-6.849 2.08-9.582 4.115-.211.16-.124.489.102.582z"/><path d="m445.634 291.678c4.038.454 10.83-.129 12.269-4.675.11-.351-.038-.719-.387-.854-3.386-1.34-7.136.521-10.597.873-5.232.527-9.979-.187-14.861-2.151-.316-.128-.605.288-.38.543 3.626 4.064 8.662 5.671 13.956 6.264z"/><path d="m447.735 296.121c3.187 2.387 8.559 1.707 10.612-1.824.167-.287.045-.762-.352-.765-3.389-.022-7.153.18-10.191 1.813-.297.162-.349.566-.069.776z"/><path d="m388.078 605.215c-2.572 5.278-5.691 15.888-.639 20.426.61.55 1.792.299 2.21-.378 2.679-4.382 1.493-11.233 3.063-16.274 2.175-6.996 6.304-12.362 11.22-17.641.224-.241.088-.708-.298-.627-7.438 1.522-12.389 7.999-15.556 14.494z"/><path d="m382.263 602.624c-2.209.974-3.46 1.808-4.545 4.165-1.239 2.694-1.184 5.081-.039 7.727.149.348.657.384.867.076 1.297-1.896 1.89-3.538 2.538-5.76.509-1.753.688-4.123 1.581-5.729.157-.272-.085-.622-.402-.479z"/><path d="m633.116 436.022c.281.271.654.34.984.086 4.043-3.104.828-9.634-1.398-12.922-3.046-4.478-7.5-7.633-12.928-8.091-.309-.025-.442.373-.205.552 3.644 2.76 6.631 6.305 8.988 10.189 1.94 3.192 1.811 7.586 4.559 10.186z"/><path d="m634.338 418.81c-.377.032-.531.553-.291.818 1.56 1.754 2.554 3.531 3.793 5.508 1.267 2.021 4.203.703 3.373-1.592-.986-2.723-3.904-4.992-6.875-4.734z"/><path d="m587.635 315.522c4.805-1.78 10.617-4.288 12.332-9.483.155-.46-.228-1.006-.746-.888-4.085.932-6.993 3.608-10.631 5.607-4.438 2.434-9.711 4.333-14.817 3.559-.328-.048-.527.454-.229.62 4.436 2.471 9.378 2.333 14.091.585z"/><path d="m602.99 312.783c-1.521.493-2.498.894-3.776 1.896-1.209.949-2.323 2.188-3.691 2.907-.298.155-.229.617.119.65 3.733.35 7.179-.721 8.187-4.685.138-.551-.308-.939-.839-.768z"/><path d="m606.696 183.927c2.913 1.717 5.953 6.664 9.315 6.851.462.025.979-.237 1.123-.71 1.317-4.409-6.72-8.806-9.79-10.386-5.325-2.737-12.354-4.557-17.275-.283-.161.144-.036.412.179.379 5.92-.948 11.44 1.199 16.448 4.149z"/><path d="m612.005 177.57c.914.447 1.987.751 2.954 1.073 1.218.41 2.175.107 3.416.06.508-.021.81-.506.492-.942-1.408-1.954-2.499-2.651-4.857-3.329-1.867-.537-4.069-.896-5.947-.281-.33.108-.371.571-.176.808 1.039 1.275 2.668 1.902 4.118 2.611z"/><path d="m803.88 417.609c-.282-.126-.531.258-.339.482 5.272 6.176 9.223 13.5 11.26 21.369.815 3.137 5.72 2.318 5.002-.917-1.935-8.79-7.532-17.215-15.923-20.934z"/><path d="m816.625 421.328c-.331-.141-.521.266-.361.512 1.279 1.969 2.203 4.045 3.727 5.884 1.408 1.7 4.063-.527 2.622-2.193-1.758-2.026-3.587-3.179-5.988-4.203z"/><path d="m811.809 322.842c.45-.628.507-1.464.189-2.162-1.468-3.192-5.196.701-6.598 1.88-4.847 4.102-11.656 5.644-17.886 5.473-.212-.005-.373.301-.154.425 8.24 4.611 18.838 2.178 24.449-5.616z"/><path d="m814.852 327.134c-.088-.239-.365-.318-.587-.3-2.765.224-4.843 3.744-6.549 5.643-.182.203.011.557.266.566 3.004.12 8.202-2.069 6.87-5.909z"/><path d="m588.381 586.634c.749-6.3 3.506-12.284 3.92-18.614.021-.369-.402-.467-.621-.229-4.981 5.4-7.32 13.183-8.549 20.269-.881 5.103-.75 14.381 5.354 16.113.635.179 1.435-.168 1.455-.92.067-2.403-.756-4.246-1.438-6.545-.963-3.229-.514-6.799-.121-10.074z"/><path d="m579.511 578.958c-.038-.012-.063-.023-.098-.035-.291-.108-.674-.064-.909.155-3.069 2.928-3.603 8.92-.461 11.901.231.221.692.237.799-.138.727-2.524.595-5.009.752-7.62.046-.832 1.104-3.816-.083-4.263z"/><path d="m399.121 558.658c.272-3.088-3.646-1.817-4.979-.825-3.898 2.903-8.688 4.108-13.496 3.552-.338-.039-.448.393-.213.585 3.046 2.524 6.506 2.972 10.333 2.416 2.841-.414 8.059-2.369 8.355-5.728z"/><path d="m606.534 473.431c-.254-.1-.493.178-.386.418 1.651 3.564 2.49 7.358 3.08 11.224.57 3.736.506 6.973 3.385 9.657.275.254.735.326.969-.039 3.854-6-.273-18.616-7.048-21.26z"/><path d="m584.368 369.675c-1.077.829-2.524 1.325-3.52 2.203-1.187 1.039-2.244 2.206-3.387 3.282-2.549 2.397-5.742 4.614-9.156 5.527-.313.084-.342.604.028.605 3.882.015 7.235-.246 10.63-2.371 1.399-.875 2.638-1.946 3.733-3.175 1.396-1.565 1.771-3.545 2.553-5.452.222-.538-.456-.95-.881-.619z"/><path d="m511.719 226.702c1.318-2.571.896-4.643.866-7.434-.03-2.928.241-5.895.499-8.809.048-.541-.569-.809-.976-.509-4.733 3.515-5.919 12.973-1.421 17.069.36.331.856.032 1.032-.317z"/><path d="m678.413 461.185c-.351-.031-.59.491-.25.686 5.73 3.257 15.818.508 17.604-6.295.117-.438-.104-.895-.596-.943-6.603-.678-10.174 7.127-16.758 6.552z"/><path d="m750.862 278.6c1.923-.715 3.828-1.547 5.798-2.126 2.405-.707 4.813-.492 7.268-.341 2.739.169 2.902-3.574.362-4.122-4.975-1.078-11.812 1.301-13.744 6.294-.083.207.13.362.316.295z"/><path d="m728.531 213.584c4.07-5.784 1.85-13.688-3.5-17.813-.207-.158-.473.092-.377.314 2.502 5.653 1.417 11.457 2.683 17.236.122.553.855.749 1.194.263z"/></g></g></g></svg>