<svg id="Layer_1" height="512" viewBox="0 0 1000 1000" width="512" xmlns="http://www.w3.org/2000/svg"><g><path d="m620.566 328.857c-2.174 1.58-4.359 3.094-6.514 4.587-9.984 6.915-20.941 14.509-28.398 26.421-2.223-.042-4.461-.064-6.713-.064-12.102 0-24.643.613-37.689 1.866-96.688 11.327-199.709 52.212-306.199 121.522-53.005 34.499-92.704 70.938-121.366 111.403-15.572 21.983-49.161 78.64-24.826 129.84 4.283 9.011 10.587 14.825 45.566 47.094 6.785 6.256 14.688 13.546 23.902 22.079 9.703 8.986 19.99 16.813 29.939 24.379 6.672 5.072 12.971 9.864 18.953 14.875 21.576 18.07 49.285 21.164 71.018 21.84 2.842.088 5.695.131 8.545.131 71.654 0 143.959-27.539 205.236-54.479 87.036-38.268 150.239-81.021 193.221-130.707 21.988-25.418 34.65-50.736 37.637-75.254 2.156-17.701 1.17-35.385.216-52.486-.353-6.332-.708-12.624-.88-18.821-.256-9.147-.52-18.605.191-20.634.063-.119.481-.822 2.479-2.919 10.406-10.927 23.357-24.526 27.674-43.548 2.109-9.295.355-18.086-.926-24.506l-.443-2.253c-.537-2.833-1.154-5.484-1.74-7.993-.609-2.596-1.424-6.07-1.467-7.563.189-.25.549-.68 1.184-1.282 1.701-1.616 3.543-3.251 5.43-4.929.5-.445 1.012-.9 1.531-1.363 2.449.338 4.918.508 7.398.508 20.506 0 40.895-11.6 55.938-31.824 2.959-3.979 5.805-8.041 8.643-12.101 6.277-8.979 12.207-17.461 19.16-24.472 4.747-4.785 10.945-8.979 17.504-13.416 7.571-5.123 16.152-10.926 23.76-18.614 23.047-23.29 34.408-55.79 30.393-86.937-3.537-27.426-18.604-50.291-42.424-64.381-10.715-6.336-23.07-9.688-35.735-9.688-11.431 0-23.104 2.73-33.757 7.893-12.023 5.824-20.326 15.748-26.855 24.684l-3.635 5.002c-10.564 14.592-17.543 24.231-31.641 32.133-7.533 4.223-16.9 8.393-26.82 12.805-35.879 15.965-88.793 39.511-86.049 92.35-.953.744-1.898 1.486-2.836 2.223-3.017 2.365-5.9 4.634-8.605 6.599z" fill="#fff"/><g><path d="m598.002 379.957c-20.092-1.254-39.555-.27-54.473 1.158-105.526 12.362-209.572 61.066-297.795 118.485-44.287 28.826-85.363 62.963-116.068 106.311-21.23 29.973-40.227 74.123-23.119 110.117 3.245 6.826 14.121 16.013 65.088 63.213 15.213 14.088 32.633 25.6 48.162 38.606 16.271 13.63 38.547 16.642 59.053 17.28 69.984 2.178 142.328-25.02 205.291-52.701 67.547-29.698 137.432-69.11 186.293-125.592 15.715-18.168 30.044-40.475 33.008-64.812 2.719-22.325-.176-45.97-.801-68.396-.684-24.563-.75-28.352 8.064-37.6 9.635-10.119 19.678-20.809 22.758-34.375 1.369-6.038-.389-12.84-1.514-18.783-2.74-14.464-7.92-23.607 3.727-34.678 4.543-4.316 9.996-8.765 14.871-13.688 20.516 8.143 40.748-4.666 53.205-21.414 9.712-13.057 18.104-27.07 29.61-38.674 12.255-12.357 28.81-19.444 41.247-32.014 34.24-34.602 36.375-94.395-8.082-120.691-15.828-9.363-34.842-8.848-50.986-1.025-8.238 3.992-14.318 11.414-19.586 18.619-12.963 17.729-21.784 31.604-41.506 42.657-39.518 22.151-113.617 37.998-101.605 96.864-7.459 5.375-14.557 11.359-20.764 15.871-14.434 10.494-29.324 18.209-34.078 35.262z" fill="#68182b"/><path d="m116.488 710.217c-11.545-20.037-2.705-48.297 5.563-67.689 13.194-30.943 36.602-57.287 60.804-80.1 82.117-77.4 196.857-131.143 305.148-159.315 18.241-4.745 36.809-8.291 55.526-10.483 43.938-4.209 154.053-2.854 143.977 66.864-2.618 18.112-13.277 34.69-25.555 49.358-81.415-40.92-186.67-.344-262.811 34.703-80.529 37.066-191.543 100.314-209.865 195.75-29.581.674-59.045-5.237-72.787-29.088z" fill="#e5e5e5"/><path d="m641.619 530.922c-22.817 23.393-49.203 43.224-76.145 61.566-94.309 64.208-206.208 117.338-318.567 139.486-3.955.781-8.27 1.607-12.851 2.418-26.075 4.594-37.188 5.029-22.185-26.781 32.684-69.32 116.289-116.248 180.262-147.988 63.913-31.713 155.158-69.353 230.69-52.547 24.607 5.479 29.245 13.129 18.796 23.846z" fill="#e5e5e5"/><path d="m659.781 651.594c-45.178 52.226-110.33 88.088-172.156 116.697-61.37 28.398-130.118 52.825-198.327 55.283-23.814.856-47.268-2.064-65.967-17.727-16.943-14.191-35.039-27.888-52.516-42.205-15.406-12.617-14.182-15.023 7.502-14.064 4.547.201 8.953.254 13.098.222 51.018-.378 102.076-15.519 149.777-32.317 105.762-37.252 212.969-91.422 296.63-166.971 18.036-16.287 40.29-38.674 52.497-63.516 1.448 32.172 2.213 64.461 2.293 96.553.07 25.689-16.784 49.496-32.831 68.045z" fill="#808080"/><path d="m739.646 378.945c-6.287 6.352-20.539 14.055-23.111 23.402-2.813 10.229 2.166 23.717 4.313 33.582 3.15 14.479-3.037 24.898-11.473 34.598-7.546 8.68-8.816 10.295-8.627-4.189.262-19.918-3.352-31.942-6.48-39.098-1.164-2.656-2.496-5.17-3.988-7.549-6.635-10.591-13.902-19.109-9.21-35.052 2.427-8.243 6.089-15.997 11.64-22.198 9.703-10.844 22.16-19.645 34.458-28.163 15.21-10.537 16.22-7.328 19.714 3.794 5.306 16.883 6.897 26.597-7.236 40.873z" fill="#e5e5e5"/><path d="m755.115 244.503c15.402-7.124 30.25-18.151 39.966-32.217 13.002-18.825 22.323-36.978 48.112-36.048 20.666.746 36.941 18.744 43.438 36.859 8.992 25.07-3.834 52.493-20.164 71.164-14.242 16.287-35.002 24.211-49.295 40.683-14.092 16.237-31.941 58.47-58.936 50.289 2.959-4.524 4.99-9.485 5.258-15.093.385-8.082-2.063-17.293-5.165-25.941-4.388-12.241-6.206-23.99 4.567-33.923 11.119-10.257 25.021-17.048 39.183-23.791 14.157-6.739 35.043-17.616 33.411-36.577-.039-.451-.617-.654-.873-.236-5.854 9.594-10.756 15.903-20.589 22.029-8.788 5.473-19.026 9.057-28.364 13.5-17.14 8.154-32.1 18.947-42.074 35.151-3.484-.851-7.774-.397-13.288-.263-17.506.43-35.407 2.531-52.567 6.076-4.727.975-9.533 3.076-14.295 5.771-4.581-44.909 58.687-62.176 91.675-77.433z" fill="#ff5671"/><path d="m680.795 327.268c13.814-3.535 28.557-4.324 42.725-5.33.732-.051 6.156-.603 10.674-.936-16.674 11.973-34.721 23.537-48.373 38.797-9.35 10.449-13.182 25.913-14.938 40.352-16.672-11.133-38.668-16.732-60.854-19.17 5.768-13.084 22.073-22.135 33.139-30.179 10.703-7.781 24.799-20.251 37.627-23.534z" fill="#e5e5e5"/><path d="m698.91 337.08c-9.534 6.732-20.184 12.412-28.578 20.6-10.258 10.005-4.823 25.098-24.445 27.656-5.346.697-10.692-.49-15.994-1.178 15.086 3.187 29.348 8.217 40.99 15.992 1.756-14.438 5.588-29.902 14.938-40.352 13.652-15.26 31.699-26.824 48.373-38.797-4.518.333-9.941.885-10.674.936-6.715.477-13.559.922-20.373 1.617 3.541 3.412 3.75 7.884-4.237 13.526z" fill="#bfbfbf"/><path d="m746.881 338.072c-.594-1.892-1.117-3.531-1.648-4.936.676 7.301-.008 13.489-4.465 20.667-4.162 6.706-10.785 12.017-16.58 17.247-8.014 7.234-15.154 14.74-17.899 25.424-3.349 13.028 2.048 28.832 4.198 41.623 1.98 11.779.906 23.287-2.563 34.098.458-.523.938-1.076 1.452-1.668 8.436-9.699 14.623-20.119 11.473-34.598-2.146-9.865-7.125-23.354-4.313-33.582 2.572-9.348 16.824-17.051 23.111-23.402 14.132-14.276 12.541-23.99 7.234-40.873z" fill="#bfbfbf"/><path d="m582.51 535.871c-21.328 4.279-42.48 9.471-63.381 15.467-64.399 18.486-124.995 48.193-178.557 88.467-18.347 13.793-35.707 28.887-50.757 46.016-24.288 27.65-22.265 43.346 24.7 29.113 89.055-26.99 175.619-71.151 250.959-122.445 13.008-8.855 25.887-18.062 38.297-27.846 41.86-32.999 6.546-34.346-21.261-28.772z" fill="#bfbfbf"/><path d="m189.275 739.305c18.322-95.436 129.336-158.684 209.865-195.75 76.141-35.047 181.396-75.623 262.811-34.703 5.568-6.654 10.756-13.717 15.059-21.122.006-5.013-.786-10.054-2.811-15.058-5.093-12.586-17.816-20.955-29.936-25.794-35.234-14.072-75.42-12.317-112.127-6.064-57.567 9.806-113.352 30.083-165.709 55.625-51.29 25.022-100.088 56.503-142.102 95.253-15.031 13.863-28.914 28.965-41.289 45.246-11.309 14.877-21.979 30.826-25.216 49.52-2.708 15.627.481 31.834 8.882 45.223 1.66 2.645 3.513 5.029 5.531 7.186 5.602.444 11.319.569 17.042.438z" fill="#bfbfbf"/><path d="m862.182 182.129c9.039 9.021 11.674 24.412 12.543 36.408 2.25 31.119-17.684 51.865-41.609 67.912-15.343 10.29-26.941 21.654-39.896 34.518-9.793 9.723-21.523 13.328-27.766-2.43-2.705-6.83-1.878-14.679 1.18-21.472-1.271 1.038-2.527 2.096-3.736 3.211-10.773 9.933-8.955 21.682-4.567 33.923 3.103 8.648 5.55 17.859 5.165 25.941-.268 5.607-2.299 10.568-5.258 15.093 26.994 8.181 44.844-34.052 58.936-50.289 14.293-16.472 35.053-24.396 49.295-40.683 16.33-18.671 29.156-46.094 20.164-71.164-4.332-12.076-13.026-24.072-24.451-30.968z" fill="#e03f58"/><path d="m813.021 203.93c6.465-10.326 13.393-19.604 23.662-26.428.699-.466 1.443-.816 2.166-1.221-22.537 1.164-31.527 18.279-43.769 36.005-9.716 14.065-24.563 25.093-39.966 32.217-28.006 12.952-77.818 27.366-89.427 58.903 26.062-29.374 71.423-37.148 104.614-56.141 18.615-10.65 31.49-25.395 42.72-43.335z" fill="#ff9881"/><path d="m223.332 805.848c18.699 15.662 42.152 18.583 65.967 17.727 68.209-2.458 136.957-26.885 198.327-55.283 61.826-28.609 126.978-64.472 172.156-116.697 16.047-18.549 32.9-42.355 32.832-68.045-.002-.559-.02-1.123-.021-1.684-10.369 19.06-23.313 36.73-38.25 52.412-94.253 98.931-204.519 157.894-345.023 178.06-35.697 5.125-69.041 3.137-93.012-12.244 2.346 1.916 4.716 3.822 7.024 5.754z" fill="#515151"/><path d="m645.213 559.309c-98.321 109.266-268.149 177.67-387.598 192.738-40.195 5.063-40.369 22.744 6.149 19.467 225.107-15.866 343.986-104.975 399.379-194.284 21.232-34.22 6.521-45.093-17.93-17.921z" fill="#a1a1a1"/><g fill="#68182b"><path d="m835.9 234.935c-.8-1.96-.246-4.198.438-6.132.707-2.013 1.432-2.922 3.354-3.596.29-.102.62.064.771.314 1.17 1.912.859 3.727-.41 5.66-1.015 1.547-2.057 3.086-3.754 3.915-.17.082-.328.008-.399-.161z"/><path d="m666.688 615.371c-12.523 28.863-35.367 50.999-59.725 70.316-25.467 20.198-53.301 37.887-83.443 50.211-.331.135-.52-.385-.236-.557 53.248-32.807 104.174-70.271 142.193-120.678.546-.725 1.572-.127 1.211.708z"/><path d="m677.395 598.146c-.063 2.96-.652 5.095-2.473 7.564-1.565 2.118-3.346 3.538-5.262 5.284-.275.252-.795.012-.662-.385.795-2.352 1.217-4.711 2.479-6.914.682-1.191 1.26-2.527 2.111-3.605.861-1.092 1.645-1.525 2.701-2.402.411-.34 1.119-.152 1.106.458z"/><path d="m399.109 571.76c-34.369 19.453-69.185 40.775-100 65.533-14.666 11.78-28.83 24.361-41.319 38.463-11.118 12.553-18.864 26.5-28.372 40.084-.248.355-.773.136-.689-.291 3.105-16.119 14.797-31.443 25.025-43.826 12.783-15.472 27.539-29.256 43.269-41.693 31.317-24.758 64.78-44.193 101.534-59.585.763-.32 1.247.924.552 1.315z"/><path d="m416.242 562.43c-2.715 2.323-6.832 7.951-11.108 5.791-.128-.063-.165-.214-.14-.344.4-2.166 2.532-3.307 4.27-4.354 2.027-1.227 4.275-1.348 6.543-1.844.405-.089.802.44.435.751z"/></g></g></g></svg>