<svg id="Layer_1" enable-background="new 0 0 512 512" height="512" viewBox="0 0 512 512" width="512" xmlns="http://www.w3.org/2000/svg"><g><path d="m418.9965 179.1421c5.5234-.3126 10.7424-1.2009 15.856-.787 15.8535 1.2832 28.1326 9.3286 37.8605 21.5153 6.4769 8.1139 10.4282 17.3699 12.8129 27.5392 5.6049 23.9012 3.7705 47.9673 1.6464 71.924-2.4858 28.0359-13.9823 52.2377-33.9306 72.3495-17.3573 17.4995-38.5405 28.0279-61.9662 34.4749-41.17 11.3305-81.7514 8.3751-121.7214-5.7104-32.3762-11.4093-61.3927-28.694-87.5056-50.9188-.6579-.56-1.3348-1.0978-1.7676-1.453-6.9161 3.3887-13.5171 7.0074-20.413 9.9304-21.5559 9.1371-44.1104 15.1807-66.7891 20.7126-11.3225 2.7619-22.7373 5.2563-34.2233 7.2071-12.3428 2.0964-23.9203 5.7901-34.3472 12.8536-2.6928 1.8242-5.6285 3.2897-9.2719 5.3928.6035-1.7926.9386-2.7977 1.28-3.8006 3.6298-10.6624 8.0193-21.1366 10.7174-32.0297 4.2998-17.3594 5.8181-35.2084 6.2075-53.0764.3861-17.7178 3.5588-34.8477 9.0654-51.6522 7.2436-22.1051 21.8699-38.5377 39.9231-52.2695 17.455-13.2769 36.804-22.4888 58.6506-26.0103.985-.1588 2.151-1.243 2.6294-2.1983 12.9248-25.8113 30.6576-47.9036 52.487-66.6019 25.9427-22.2217 55.9127-36.1845 89.8142-41.0069 25.201-3.5847 48.8153 2.0467 71.3146 13.5188 21.1435 10.7808 37.986 25.8795 48.92 47.1704 6.6805 13.0084 10.567 26.868 12.4937 41.3174.0751.5632.1788 1.1225.2572 1.609zm-11.3465-14.4694c-.7658-2.5401-1.5316-5.0803-2.2975-7.6204-2.9629-10.1618-7.68-19.4594-13.8196-28.0564-.3875-.4474-.775-.8947-1.1624-1.3421l.0483.0146c-.5461-.8878-1.0164-1.834-1.6497-2.6545-9.6827-12.5473-22.1876-21.5274-36.172-28.6641-20.0479-10.2311-41.1595-15.2953-63.6927-12.5676-27.3631 3.3124-52.0513 13.8484-74.5633 29.3826-22.4977 15.5244-40.399 35.6382-55.6536 58.1794-2.7261 4.0282-5.2258 8.2096-8.1348 12.8014 5.3124-.3606 9.9048-.6723 14.4972-.9839 7.3382.2437 14.6764.4874 22.0146.7312 13.4602 1.3778 26.5546 4.2443 39.0919 9.4623.8848.3683 2.068.2504 3.0657.0819 13.3481-2.2549 26.688-4.5591 40.0298-6.8511 10.5062-.4133 21.0124-.8266 32.0926-1.2624-6.2325-4.0728-12.5262-6.5273-19.2124-8.0621-16.4662-4.7585-33.4089-5.3708-50.3733-5.7485-2.2152-.0493-4.4368.1881-6.6554.2927-.0818-.2973-.1635-.5946-.2453-.8919 1.1301-.5203 2.2189-1.3455 3.3978-1.5047 3.8022-.5135 7.6431-1.1415 11.4592-1.0824 16.7324.2591 33.2644 2.0554 49.2613 7.3394 4.39 2.1652 9.0135 3.9675 13.1029 6.5998 3.9191 2.5227 7.8832 3.7144 12.4579 3.4625 2.5854-.1423 5.1876.0182 8.5877.0498-6.1309-6.402-12.3805-10.9258-19.5432-14.1934-2.2995-1.1992-4.5197-2.5937-6.9116-3.5657-15.0695-6.1243-30.2951-11.6556-46.7337-11.0248 8.606-1.8955 17.2305-.5524 25.8163 1.4985 11.5888 2.7682 22.6375 6.9674 33.1985 12.4687 6.3301 4.0362 12.4918 8.271 17.368 14.1109.4181.5008 1.3323.8094 2.0246.8248 7.0143.1567 14.0302.2491 21.0461.3244 2.3656.0254 4.7323-.0495 7.7441-.0865-4.8936-7.3199-9.0957-14.4865-14.9139-20.5197-.4452-.6237-.8207-1.3141-1.3455-1.8613-21.4345-22.351-47.3243-33.4425-78.5534-31.1866-3.451.2493-6.947-.1235-10.4221-.2078 2.1685-.4778 4.3371-.9555 6.5056-1.4332.6666-.0343 1.3441-.0033 1.9982-.1125 17.7054-2.9554 34.4767-.0292 50.4793 7.9149 13.0898 6.4981 24.7247 14.8791 34.1743 26.1285 4.427 6.7609 8.8463 13.5269 13.2984 20.2713.2928.4436.8389 1.0322 1.2623 1.0282 3.4879-.0325 6.9746-.1891 10.8127-.3201-1.4778-3.219-2.653-5.9534-3.9737-8.6157-2.1333-4.3006-4.3623-8.5537-6.5508-12.8269-5.9778-11.6535-13.7244-21.7895-25.0425-28.9066 4.7548 1.1656 8.4715 3.9001 12.013 6.9343 6.892 5.9047 11.722 13.4148 16.4007 21.0435 2.8729 6.9151 5.7316 13.8362 8.6432 20.7349.2606.6175.8732 1.5635 1.3077 1.5556 3.7925-.0689 7.5816-.3205 11.6118-.5304-1.0924-8.196-2.9641-15.7642-6.8836-22.7275-5.7871-12.3405-13.7472-23.1271-23.3904-32.7102-.7048-.7745-1.3857-1.5723-2.1183-2.3195-3.5184-3.5883-7.0508-7.1628-10.5761-10.7438.2138-.2069.4277-.4139.6415-.6208 6.3448 5.6936 12.6897 11.3872 19.0346 17.0808 7.3379 8.8118 13.7817 18.2238 19.0703 28.4112 1.86 6.0306 4.0296 11.9874 5.4916 18.1131 1.4102 5.9085 1.1024 6.0363 7.0104 4.5337.7062-.1796 1.6909-1.2949 1.6783-1.96-.1488-7.8107-1.3672-15.4351-4.5104-22.6618-3.5227-6.1904-7.0453-12.3808-10.568-18.5712-.3896-.6642-.7793-1.3285-1.1689-1.9927 3.9125 1.3614 5.1272 5.1065 7.5293 7.762 2.1695 4.1453 4.339 8.2906 6.5086 12.4359 2.2363 7.1942 4.0272 14.4704 4.0832 22.0685.0171 2.3149 1.5187 2.5344 3.1121 1.8455.554-.2395.8383-1.5495.9047-2.3972.3946-5.0424.6892-10.0926 1.0174-15.1402.3268.0195.6536.0391.9804.0587 2.3691 5.3855.7801 11.0979.971 16.8846 1.791-.3373 3.2834-.7661 4.7976-.8672 2.0156-.1346 2.4551-1.2553 2.1219-2.9183-.9442-4.7119-1.9468-9.4118-2.9265-14.1164zm33.7531 23.5061c-2.7438-.4734-5.4897-.9348-8.2307-1.4238-2.3606-.4212-3.4934.5677-3.3206 2.9358.5175 7.0911.4403 14.2998 1.7607 21.2409 2.0667 10.8651 6.2577 21.0247 13.2106 29.8429 2.7028 3.3451 5.1985 6.8871 8.1523 9.9935 5.8246 6.1257 12.5963 10.9528 20.7197 13.6547 1.8176.6711 3.6351 1.3422 5.6191 2.0748.0796-1.4429.2129-2.3987.1721-3.3471-.4369-10.1663-.6016-20.3563-1.4479-30.4892-.7498-8.9763-4.5157-16.9676-9.8217-24.2182-6.6246-9.8156-15.3099-16.9045-26.8136-20.2643zm-406.3485 196.0216c4.2112-1.2978 8.3761-2.7776 12.6413-3.8628 21.9414-5.5828 43.982-10.7911 65.8419-16.6731 15.7266-4.2317 31.2686-9.2012 46.088-16.1063 4.246-1.9784 8.351-4.2597 12.6072-6.4466-1.513-2.8701-2.8406-3.5596-5.8609-2.3311-18.3003 7.444-36.7265 14.5792-55.132 21.763-1.1234.4385-2.4293.409-3.6504.5974-.0615-.2466-.123-.4932-.1845-.7399 19.714-8.37 39.428-16.74 59.9629-25.4585-2.7196-2.8078-5.0102-4.7731-6.7883-7.1258-1.6399-2.1698-2.9287-2.5641-5.4416-1.2091-21.0934 11.3737-42.9571 21.0208-65.8607 28.1279-6.9688 2.1625-14.2249 3.4113-21.3751 4.9602-.7999.1733-2.9093 1.1835-2.112-1.4459l.1721.0275.1531-.0833c6.6932-1.7675 13.4772-3.2506 20.0629-5.3546 21.8105-6.9676 42.6314-16.3364 63.0923-26.5391 2.2096-1.1018 4.4281-2.1857 7.0178-3.463-2.2948-2.9608-4.3436-5.6041-6.3924-8.2475-.3785-.6635-.7523-1.3296-1.1363-1.9899-4.7426-8.1548-9.7578-16.166-14.1496-24.5055-3.9351-7.4721-5.3633-15.6689-4.5167-24.1201.47-4.6924.9845-9.4641 4.5512-13.1214 2.8185-2.8901 5.6512-5.7664 8.4726-8.6538 2.0036-2.0506 3.9988-4.1094 5.9977-6.1646-1.1094-.108-1.849.2412-2.5568.6461-4.6795 2.6767-9.3765 5.3239-14.0223 8.058-11.5764 6.8132-22.68 14.2619-31.9641 24.1173-4.3752 5.2085-8.7504 10.4169-13.1256 15.6254-.4982.5769-1.0432 1.1201-1.4878 1.7357-9.2966 12.8726-16.8456 26.7232-22.9052 41.3793-5.0029 12.1002-9.8447 24.2669-14.7572 36.4048-1.739 4.4628-3.478 8.9255-5.217 13.3883-.3228-.0329-.6456-.0659-.9684-.0988-.1864-1.1402-.6246-2.3077-.5049-3.4149.2261-2.0902.5855-4.2052 1.2194-6.2053 2.7555-8.6945 5.6299-17.3513 8.4611-26.0218 2.496-6.1577 4.9823-12.3194 7.4897-18.4725 8.6916-21.3287 19.9052-41.1924 35.8638-57.9183 6.7357-7.0595 14.809-12.8427 22.2743-19.206.425-.2142.8826-.3812 1.2701-.6496 10.5409-7.2998 21.8911-13.0464 34.2364-16.4459 6.733-1.854 12.6523-4.7934 18.1768-8.9456 3.4827-2.6175 7.3385-4.7385 11.5702-7.4274-15.2001-1.1825-28.6644 2.647-41.7322 8.4333-8.4432 4.6151-17.3626 8.5413-25.2348 13.9825-18.8783 13.0486-34.2592 29.8173-48.222 47.9203-.6177.8008-1.3587 1.5064-2.1335 2.3564-.3074-.5488-.4046-.6417-.3894-.7093.0613-.2726.1121-.5628.2469-.8013 15.8385-28.035 37.5843-49.9315 66.728-64.1118 16.2397-7.9017 33.0284-13.7817 51.4551-11.6287 6.3081.737 11.4832-1.0824 16.5583-4.2229 4.8951-1.8747 9.7903-3.7494 15.33-5.871-1.6595-.5579-2.5535-.8648-3.4515-1.1595-8.3055-2.7251-16.8916-3.789-25.5598-4.5658-15.7516-1.4115-31.4068-.9137-46.9218 2.1481-21.1404 4.172-39.4051 14.2694-55.8782 27.8285-16.9026 13.9126-28.9544 30.9467-34.5414 52.4689-3.7842 14.5775-5.6405 29.2803-6.2141 44.2846-.7562 19.7818-2.6996 39.4543-7.9072 58.6581-.7426 2.7386-1.6015 5.4455-2.4067 8.1671.1879.1324.3757.2647.5636.3971.866-.6522 1.7318-1.3048 2.5977-1.9575zm111.852-135.2988c-2.6698 2.7598-5.5103 5.3799-7.9333 8.3417-1.1187 1.3675-1.8611 3.3637-2.0179 5.1415-.6842 7.7545.9723 15.1172 4.3837 22.0969 9.3326 19.0948 22.1819 35.6115 37.4047 50.2896 5.5241 5.3265 11.6777 10.0001 17.5442 14.9716.9494.8062 1.8663 1.6546 2.853 2.4122 14.7276 11.3083 30.4476 21.0199 47.193 29.0356 31.9309 15.2846 65.3063 24.1874 101.0229 22.7254 23.0896-.9451 45.3048-5.7306 66.2035-15.6582 27.7855-13.1991 47.5332-33.9587 58.2152-63.0969 4.6761-12.7552 6.2011-25.9968 7.072-39.3918.2724-4.1906.4689-8.3863.6988-12.5555-2.0593-.1136-3.301-.182-4.5428-.2505-7.9657-2.242-15.1094-6.1215-22.0215-11.4938.0625 1.3976.1701 2.2332.126 3.0609-.4513 8.4498.1613 17.1326-1.598 25.3037-5.5184 25.6312-19.9784 45.7926-41.08 60.9368-18.1631 13.0354-38.7484 20.9939-60.4635 26.0174-13.2094 3.0558-26.5648 5.0747-40.196 4.8333.6995-.3084 1.4237-.496 2.153-.6614 11.0819-2.513 22.2936-4.5641 33.2178-7.6374 18.1195-5.0974 35.8631-11.3168 52.3531-20.6511 23.1552-13.1071 39.0875-32.2477 47.7142-57.3651 4.1183-11.9906 3.4057-24.5479 3.421-36.9781.0007-.5833-.4358-1.2654-.8556-1.7341-1.9909-2.2231-4.0467-4.3879-6.0794-6.5736-.5867-.8894-1.1735-1.7787-1.7602-2.6681-.4868-.5047-.9736-1.0093-1.4604-1.5139-1.2909-2.1006-2.5818-4.2011-3.739-6.084-4.51 3.8595-8.5675 7.7216-13.0138 11.0669-16.317 12.2763-33.5461 22.9721-52.7934 30.1862-33.15 12.425-67.2 20.6493-102.6576 22.4778-.6739.0348-1.3675-.3119-2.0519-.4806.7463-.644 1.3975-.785 2.0563-.8529 21.8222-2.2511 43.1691-6.9934 64.3723-12.4226 29.5881-7.5762 58.2139-17.4863 83.1573-35.8163 6.1943-4.552 12.0376-9.587 17.9472-14.514.7029-.5861 1.3627-2.1091 1.0858-2.8304-1.1289-2.9404-2.63-5.7379-4.0713-8.7498-25.3975 18.2857-54.789 23.8684-84.6483 28.0152 1.3321-.8594 2.8017-1.299 4.2791-1.7108 14.3841-4.0096 28.8034-7.8974 43.1441-12.0566 12.0788-3.5033 23.7132-8.1204 34.2847-15.0981 1.2121-.8001 2.2657-1.376 1.7057-3.3769-1.4499-5.1806-2.5355-10.4632-3.7675-15.705.0044-6.6987.0086-13.3974.0132-20.3224-.5735.0786-1.5005.1795-2.418.3355-10.6336 1.8074-21.2088 4.6-31.9108 5.2246-19.7034 1.1499-39.4798 1.1279-59.2285 1.4049-18.8844.2648-37.8053-.3736-56.6509.5695-30.3313 1.5178-59.0915 9.3468-85.7417 24.2634-14.779 8.272-28.481 18.0294-40.9205 29.5393z" fill="#514530"/><path d="m423.765 207.8866c1.231 5.2419 2.3166 10.5245 3.7665 15.7051.56 2.0009-.4935 2.5769-1.7057 3.3769-10.5715 6.9777-22.2058 11.5948-34.2847 15.0981-14.3407 4.1593-28.76 8.0471-43.1441 12.0566-1.4774.4118-2.947.8515-4.2791 1.7108 29.8593-4.1468 59.2508-9.7296 84.6483-28.0152 1.4413 3.0119 2.9424 5.8094 4.0713 8.7498.2769.7213-.3828 2.2443-1.0858 2.8304-5.9096 4.927-11.7529 9.962-17.9472 14.514-24.9433 18.33-53.5692 28.2401-83.1573 35.8163-21.2032 5.4292-42.5501 10.1714-64.3723 12.4226-.6588.068-1.31.209-2.0563.8529.6844.1687 1.378.5154 2.0519.4806 35.4576-1.8285 69.5076-10.0529 102.6576-22.4778 19.2474-7.2141 36.4764-17.9099 52.7934-30.1862 4.4464-3.3453 8.5038-7.2074 13.0138-11.0669 1.1572 1.8829 2.4481 3.9835 3.7389 6.084-2.3923 4.7049-4.4095 9.6504-7.2465 14.0697-8.7656 13.6543-20.4532 24.4809-33.7394 33.6606-7.205 4.9781-14.39 9.9853-21.5797 14.9797-1.8905.9717-3.7853 1.9431-5.6801 2.9145.2238.3453.4477.6906.6715 1.036 1.7544-1.234 3.5089-2.468 5.2633-3.702 15.7564-9.1866 31.1387-18.9277 43.809-32.2532 7.8367-8.242 15.368-16.7972 18.8223-28.0411.1404-.4571.7494-.7701 1.1401-1.1503.5867.8893 1.1735 1.7787 1.7599 2.6683-.71 1.214-1.5057 2.3862-2.1151 3.6484-3.7177 7.701-7.1184 15.5692-11.1464 23.1027-6.1507 11.5038-14.2184 21.6623-23.204 31.0946-.2142.3641-.4283.7281-.6425 1.0922l.0087-.0078c-.3967.1718-.7934.3435-1.1902.5152l-.0058.0043c-.4016.3608-.8032.7216-1.2047 1.0824 0 0-.0228.0195-.0228.0195-.1948.1745-.3896.349-.5845.5235l-.0277.0221c-1.4123 1.0398-2.8247 2.0797-4.2371 3.1194-1.5567 1.1314-3.1134 2.2628-4.67 3.3942-1.104.2549-2.2475.4-3.3056.7819-8.8516 3.1949-17.5647 6.8391-26.5582 9.5587-11.9461 3.6125-24.2124 5.9905-36.6993 6.8815-9.8307.7015-19.6902 1.8431-29.5118 1.6305-14.4045-.3118-28.7962-1.1833-43.0708-3.8139-11.1145-2.0482-21.9765-4.8916-32.2745-9.2934-15.1556-6.4782-29.6056-14.2386-41.4371-26.2221-7.4331-7.5286-13.87-15.6893-18.8171-24.9942-4.053-7.6232-7.8292-15.3935-11.7282-23.0986 5.9391-2.6605 12.0154-5.055 17.7908-8.0329 15.5394-8.0127 30.9502-16.2748 46.4124-24.4374 3.2281-1.7041 6.2845-4.1873 9.7218-4.9486 7.5445-1.6709 15.3091-3.5719 22.9353-3.3864 14.2034.3454 28.3742 2.0883 42.5536 3.3077 2.9579.2544 5.8889.8076 8.8415 1.1418 6.2896.7118 12.5708 1.6729 18.882 1.9741 7.9514.3794 15.9309.3224 23.8955.2272 6.6056-.0789 13.2132-.3852 19.809-.775 6.9689-.4119 13.9288-.9962 20.8856-1.588 8.7688-.7459 17.5403-1.4821 26.2916-2.403 5.5165-.5808 10.9984-1.4919 16.496-2.2548zm-54.8212 104.826c-.084.1211-.168.2422-.252.3633.1341-.0655.2681-.1309.4004-.1982.0799-.1171.1598-.2342.2397-.3512-.1294.062-.2588.124-.3881.1861zm-1.8927 1.484c.1673-.0588.4098-.0732.479-.1901.0598-.1011-.0773-.3186-.1273-.4847-.1682.0576-.413.0702-.4815.1865-.06.1021.0779.3206.1298.4883z" fill="#fef1d2"/><path d="m149.2497 249.062c3.8989 7.7051 7.6752 15.4754 11.7282 23.0986 4.9471 9.3049 11.3841 17.4657 18.8171 24.9942 11.8315 11.9835 26.2814 19.7439 41.4371 26.2221 10.298 4.4018 21.16 7.2452 32.2745 9.2934 14.2746 2.6306 28.6663 3.5021 43.0708 3.8139 9.8216.2126 19.6811-.929 29.5118-1.6305 12.4869-.891 24.7532-3.269 36.6993-6.8815 8.9935-2.7196 17.7066-6.3638 26.5582-9.5587 1.0581-.3819 2.2017-.527 3.3051-.7821-.8968.8671-1.7931 1.7343-2.6895 2.6016.2505.2867.5009.5735.7514.8602 2.6036-2.2281 5.2072-4.4561 7.8107-6.6842 1.0116-1.097 2.0233-2.1941 3.035-3.2911 0 0 .0277-.0221.0277-.0221.1948-.1745.3897-.349.5845-.5236 0 0 .0228-.0195.0228-.0195.4016-.3608.8031-.7216 1.2047-1.0824l.0058-.0043c.3967-.1718.7935-.3435 1.1902-.5152l-.0087.0078c.2142-.3641.4283-.7281.6425-1.0921 8.9856-9.4323 17.0533-19.5909 23.204-31.0946 4.028-7.5335 7.4287-15.4018 11.1464-23.1027.6093-1.2622 1.4051-2.4344 2.1151-3.6484 2.0331 2.1854 4.0888 4.3503 6.0797 6.5734.4197.4687.8563 1.1508.8556 1.7341-.0154 12.4303.6973 24.9875-3.421 36.9781-8.6268 25.1174-24.5591 44.258-47.7142 57.3651-16.4901 9.3343-34.2336 15.5536-52.3531 20.6511-10.9242 3.0733-22.1359 5.1244-33.2178 7.6374-.7293.1654-1.4535.3531-2.153.6614 13.6311.2414 26.9866-1.7774 40.196-4.8333 21.7151-5.0235 42.3004-12.982 60.4635-26.0174 21.1017-15.1443 35.5616-35.3056 41.08-60.9368 1.7592-8.1711 1.1467-16.8539 1.598-25.3037.0442-.8276-.0635-1.6633-.126-3.0609 6.912 5.3723 14.0558 9.2518 22.0215 11.4937-.1888 1.1607-.0437 2.5312-.6199 3.4487-4.0894 6.5115-8.1485 13.0549-12.5529 19.3533-9.7927 14.0039-19.8566 27.7874-32.0334 39.9129-9.5748 9.5344-19.6514 18.425-31.1987 25.4668-13.8671 8.4563-28.6969 14.6571-44.5858 18.3043-11.3455 2.6043-22.8177 4.2823-34.4291 4.1927-16.7521-.1291-33.3264-2.1196-49.6216-6.1899-22.173-5.5385-43.3221-13.7985-63.8617-23.7329-3.1703-1.5334-6.5368-2.6609-9.8125-3.9761-5.8664-4.9714-12.0201-9.6451-17.5442-14.9716-15.2228-14.6781-28.0721-31.1948-37.4047-50.2896-3.4113-6.9797-5.0679-14.3423-4.3837-22.0969.1569-1.7778.8992-3.774 2.0179-5.1415 2.4229-2.9618 5.2635-5.5818 7.9334-8.3418.7811.0536 1.5621.1071 2.343.1606zm235.2075 75.0375-.1125.1116c-1.4016.9379-2.8033 1.8759-4.2049 2.8138-1.9828 1.1868-3.9653 2.3739-5.9482 3.5605-17.2515 10.324-35.7517 17.3217-55.7557 19.5516-10.5957 1.1811-21.3322 1.3474-32.0105 1.4571-8.0702.0829-16.1488-.6501-24.2236-1.0199-2.5497-.3884-5.0995-.7768-7.6492-1.1652-.0431.2616-.0861.5232-.1292.7849 2.5105.4413 5.0209.8826 7.5314 1.3239 11.8141.8759 23.6227 2.3945 35.4435 2.4982 27.322.2397 52.7492-7.0749 76.2219-21.0656 2.534-1.5104 4.835-3.4117 7.2347-5.1361 1.428-.9592 2.856-1.9183 4.2756-2.8794.1402-.1472.2803-.2943.4205-.4414.356-.3753.7119-.7507 1.0679-1.126-.4731.0551-.9461.1101-1.4192.1651-.2476.1889-.495.3779-.7425.5669zm4.0803-1.7109c-.1725-.2007-.345-.4014-.5174-.6021-.3907.3156-.7814.6313-1.1721.9469.1209.1703.2418.3405.3627.5107.4423-.2851.8846-.5703 1.3268-.8555z" fill="#fde9bc"/><path d="m196.288 349.7429c3.2758 1.3152 6.6423 2.4427 9.8125 3.9761 20.5396 9.9344 41.6887 18.1944 63.8617 23.7329 16.2952 4.0703 32.8695 6.0608 49.6216 6.1899 11.6114.0896 23.0836-1.5885 34.4291-4.1927 15.8888-3.6472 30.7186-9.848 44.5858-18.3043 11.5472-7.0417 21.6239-15.9323 31.1987-25.4668 12.1769-12.1255 22.2408-25.909 32.0334-39.9129 4.4044-6.2985 8.4635-12.8418 12.5529-19.3533.5762-.9175.4312-2.288.6199-3.4487 1.2418.0685 2.4835.137 4.5428.2506-.2299 4.1693-.4264 8.3649-.6988 12.5555-.8708 13.3951-2.3959 26.6366-7.072 39.3918-10.682 29.1382-30.4297 49.8978-58.2152 63.0969-20.8987 9.9276-43.1139 14.7131-66.2035 15.6582-35.7166 1.462-69.092-7.4408-101.0229-22.7254-16.7454-8.0157-32.4654-17.7273-47.193-29.0356-.9867-.7575-1.9036-1.606-2.853-2.4122z" fill="#fde1a9"/><path d="m386.0787 146.8189c-2.401-2.6558-3.6157-6.4009-7.5282-7.7623.3896.6642.7793 1.3285 1.1687 1.9928-.6228-.0913-1.309-.0439-1.8584-.2954-5.4508-2.4949-10.879-5.0393-16.3136-7.5696-6.3449-5.6936-12.6898-11.3872-19.0356-17.0786-.0284-.1306-.1042-.2239-.2287-.2776-2.8395-1.6816-5.679-3.3632-8.519-5.0444-.1309-.0549-.2613-.1102-.3917-.1655.1399.0471.2798.0941.4197.1412 2.5814 1.9057 5.1629 3.8115 7.7443 5.7172.075.1312.1859.2143.3329.2493 3.5274 3.5794 7.0598 7.1539 10.5782 10.7422.7326.7472 1.4135 1.545 2.1172 2.3195-.9421-.129-1.8918-.2124-2.8225-.3939-10.1339-1.9762-20.191-4.673-30.4186-5.7432-9.0025-.9421-18.2008-.251-27.3018.0468-11.5674.3785-22.8305 2.747-33.9076 6.0113-.6342.1869-1.1422.802-1.709 1.2178-2.1685.4777-4.3371.9555-6.5054 1.4332-7.5831 3.2028-15.3969 5.956-22.7027 9.7004-16.1216 8.2629-29.4539 19.8214-39.0134 35.4011-1.24 2.0209-2.0888 4.2819-3.1188 6.4316-7.3382-.2437-14.6764-.4874-22.0146-.7311 3.1091-4.3705 6.0809-8.8469 9.3545-13.0905 8.1099-10.5125 16.6463-20.6553 26.7692-29.3396 4.6773-4.0126 9.2327-8.181 14.0752-11.9836 5.5828-4.3838 11.2912-8.6354 17.179-12.5969 9.3823-6.3127 19.3677-11.4775 30.3651-14.4466 8.4352-2.2773 16.9373-3.9477 25.7074-4.6266 10.7382-.8313 21.3937-.3513 31.8689 1.5977 9.1044 1.694 18.0668 4.3522 26.9253 7.1178 12.2363 3.8202 24.0774 8.6251 34.5493 16.291 2.7482 2.0118 5.7109 3.7305 8.5751 5.5839 0 0-.0483-.0146-.0495-.0134.3871.4478.7754.8943 1.1635 1.3409 6.1396 8.597 10.8567 17.8946 13.8196 28.0564-1.7292.2892-3.4586.5784-5.188.8676-.3769-.0239-.7538-.0478-1.1307-.0717-3.3643-4.7973-7.7722-8.3684-12.9553-11.0292z" fill="#f3ead3"/><path d="m187.0646 183.8927c1.03-2.1498 1.8788-4.4107 3.1188-6.4316 9.5595-15.5797 22.8918-27.1382 39.0134-35.4011 7.3058-3.7444 15.1196-6.4976 22.7027-9.7004 3.4749.0843 6.9709.4571 10.4219.2078 31.229-2.2559 57.1189 8.8355 78.5534 31.1866.5248.5473.9003 1.2377 1.3434 1.8612-8.5517 1.0386-17.115 1.9797-25.6426 3.1749-2.5919.3633-5.0855 1.4278-7.6242 2.1712-10.561-5.5013-21.6096-9.7005-33.1985-12.4687-8.5858-2.0509-17.2103-3.3941-25.8163-1.4985 16.4385-.6308 31.6641 4.9005 46.7337 11.0248 2.3918.9721 4.612 2.3665 6.9089 3.5661-4.8693 1.3606-9.736 2.7207-14.6026 4.0808-15.9969-5.284-32.5288-7.0802-49.2613-7.3394-3.816-.0591-7.657.5689-11.4592 1.0824-1.1788.1592-2.2677.9844-3.3978 1.5047.0818.2973.1635.5946.2453.8919 2.2186-.1046 4.4402-.342 6.6554-.2927 16.9644.3777 33.9071.99 50.3722 5.7496-.879.5336-1.7452 1.0868-2.6371 1.5951-3.7473 2.1358-7.929 3.6925-10.242 7.7284-13.3419 2.292-26.6817 4.5962-40.0298 6.8511-.9977.1685-2.1809.2864-3.0657-.0819-12.5374-5.218-25.6317-8.0845-39.092-9.4623z" fill="#ead9b6"/><path d="m48.2953 364.0008c4.9132-12.1372 9.755-24.304 14.7579-36.4042 6.0596-14.6561 13.6087-28.5067 22.9052-41.3793.4446-.6156.9896-1.1588 1.488-1.7357 2.6691-2.0687 5.7786-3.7711 7.8866-6.3062 2.241-2.6951 3.5327-6.1794 5.2388-9.3191 9.2841-9.8553 20.3876-17.3041 31.9641-24.1173 4.6458-2.7342 9.3428-5.3814 14.0223-8.058.7078-.4048 1.4474-.7541 2.5568-.6461-1.9989 2.0551-3.9941 4.114-5.9977 6.1646-2.8213 2.8874-5.654 5.7637-8.4726 8.6538-3.5667 3.6573-4.0811 8.429-4.5512 13.1214-.8465 8.4511.5816 16.6479 4.5167 24.1201 4.3919 8.3395 9.407 16.3506 14.1496 24.5055.384.6603.7578 1.3264 1.1354 1.9899-2.4169 1.1361-4.8729 2.1947-7.2425 3.4203-23.028 11.9105-46.0483 23.8359-69.0497 35.7977-2.563 1.3329-4.9948 2.9179-7.4875 4.386l-.1531.0833s-.1721-.0275-.1732-.028c-1.0938.2044-2.2663.2223-3.2641.6488-3.1349 1.3401-6.1537 2.9614-9.3205 4.213-1.5167.5994-3.2656.6114-4.9093.8895zm71.356-83.5571c-.0799.0937-.1599.1875-.2399.2812.1034-.0672.2069-.1344.3096-.2022.0747-.0905.1493-.1811.224-.2716-.0978.0642-.1958.1284-.2937.1926zm-1.8164 1.0344c-.2046.1819-.4092.3638-.6138.5457-1.4279 1.0129-2.8558 2.0258-4.2838 3.0387.3127.3343.6253.6685.938 1.0028 1.1576-1.3001 2.3153-2.6002 3.4717-3.9012.2041-.1828.4082-.3656.6114-.5491.0711-.1036.1421-.2073.2132-.3109-.1123.0581-.2245.116-.3367.174zm-51.9202 63.7293c.3968.1726.7935.3452 1.1903.5179 8.4918-22.998 27.5021-37.9008 42.7943-56.8325-1.6611 1.0245-2.796 1.4693-3.5937 2.2561-7.5433 7.4408-15.2475 14.7363-22.4713 22.4785-7.4783 8.015-13.6829 16.966-16.9597 27.6291-.3974 1.2932-.6436 2.6328-.9599 3.9509z" fill="#ead9b6"/><path d="m149.2497 249.062c-.781-.0535-1.562-.107-2.343-.1605 12.4394-11.5098 26.1414-21.2673 40.9206-29.5395 26.6502-14.9166 55.4105-22.7457 85.7417-24.2634 18.8456-.943 37.7665-.3047 56.6509-.5695 19.7486-.2769 39.525-.2549 59.2285-1.4049 10.702-.6246 21.2772-3.4172 31.9108-5.2246.9175-.156 1.8445-.2568 2.418-.3355-.0045 6.925-.0088 13.6237-.0127 20.3224-5.4971.7628-10.979 1.674-16.4957 2.2547-8.7513.921-17.5228 1.6572-26.2916 2.403-6.9568.5918-13.9167 1.1761-20.8856 1.588-6.5958.3898-13.2034.6961-19.809.775-7.9646.0952-15.9441.1522-23.8955-.2272-6.3112-.3011-12.5924-1.2622-18.882-1.9741-2.9526-.3341-5.8836-.8874-8.8415-1.1418-14.1794-1.2194-28.3503-2.9623-42.5536-3.3077-7.6262-.1855-15.3907 1.7155-22.9353 3.3864-3.4373.7613-6.4937 3.2445-9.7218 4.9486-15.4622 8.1626-30.873 16.4247-46.4124 24.4374-5.7754 2.9782-11.8517 5.3727-17.7908 8.0332z" fill="#fdfdfc"/><path d="m199.4439 203.8022c-5.0752 3.1405-10.2502 4.9599-16.5583 4.2229-18.4267-2.153-35.2154 3.727-51.4551 11.6287-29.1436 14.1803-50.8895 36.0768-66.728 64.1118-.1348.2385-.1856.5287-.2469.8013-.0152.0676.082.1605.3894.7093.7747-.85 1.5158-1.5556 2.1335-2.3564 13.9628-18.103 29.3437-34.8717 48.222-47.9203 7.8722-5.4412 16.7915-9.3674 25.234-13.9804-.3027.5776-.4754 1.2944-.9263 1.7071-5.2241 4.7815-10.6552 9.3508-15.6784 14.3323-2.6611 2.6391-4.6329 5.9733-6.9159 8.9937-7.4653 6.3633-15.5386 12.1466-22.2743 19.206-15.9586 16.7259-27.1723 36.5895-35.8638 57.9183-2.5074 6.1531-4.9937 12.3148-7.4896 18.4725-1.3326.3329-2.6654.6658-3.9982.9987.9614-7.2201 2.0948-14.4226 2.8388-21.6651.8455-8.2314 1.1337-16.5222 2.0656-24.7417.6118-5.3967 1.5266-10.8302 3.0255-16.0401 2.9588-10.2848 8.5199-19.2442 14.8366-27.8509 7.9971-10.8964 17.4572-20.3114 28.325-28.1613 13.3689-9.6566 28.1712-16.4415 44.353-20.1777 16.6949-3.8546 33.4486-4.3757 50.3324-1.764 2.155.3331 4.254 1.0279 6.379 1.5553z" fill="#f2e9d2"/><path d="m390.4189 127.6683c-2.8642-1.8533-5.8269-3.5721-8.5751-5.5839-10.4719-7.666-22.313-12.4709-34.5493-16.291-8.8586-2.7656-17.8209-5.4239-26.9253-7.1178-10.4752-1.949-21.1307-2.429-31.8689-1.5977-8.7702.679-17.2723 2.3493-25.7074 4.6266-10.9973 2.9691-20.9828 8.1339-30.3651 14.4466-5.8877 3.9615-11.5962 8.213-17.179 12.5969-4.8425 3.8026-9.3979 7.971-14.0752 11.9836-10.1228 8.6842-18.6592 18.827-26.7692 29.3396-3.2737 4.2435-6.2454 8.72-9.3545 13.0905-4.5924.3117-9.1848.6234-14.4972.9839 2.909-4.5918 5.4088-8.7732 8.1348-12.8014 15.2546-22.5412 33.1559-42.6551 55.6536-58.1794 22.512-15.5342 47.2003-26.0702 74.5633-29.3826 22.5332-2.7277 43.6448 2.3366 63.6927 12.5676 13.9844 7.1367 26.4893 16.1168 36.172 28.6641.6334.8204 1.1037 1.7666 1.6498 2.6544z" fill="#fdfdfc"/><path d="m199.4439 203.8022c-2.125-.5274-4.224-1.2222-6.379-1.5555-16.8838-2.6117-33.6375-2.0906-50.3324 1.764-16.1818 3.7362-30.9841 10.5211-44.353 20.1777-10.8678 7.85-20.3278 17.2649-28.325 28.1613-6.3167 8.6067-11.8778 17.5661-14.8366 27.8509-1.4988 5.21-2.4136 10.6434-3.0255 16.0401-.9319 8.2195-1.2201 16.5103-2.0656 24.7417-.7439 7.2425-1.8773 14.445-2.8391 21.6648-2.1577 8.6322-4.1111 17.3227-6.5469 25.876-1.5187 5.333-3.7659 10.4585-5.6862 15.6771-.8659.6527-1.7317 1.3053-2.5976 1.958-.1879-.1324-.3757-.2647-.5636-.3971.8051-2.7216 1.664-5.4285 2.4067-8.1671 5.2076-19.2037 7.151-38.8763 7.9072-58.6581.5736-15.0043 2.4298-29.7072 6.2141-44.2846 5.587-21.5222 17.6388-38.5563 34.5414-52.4689 16.4731-13.5591 34.7378-23.6565 55.8782-27.8285 15.5149-3.0618 31.1701-3.5597 46.9218-2.1481 8.6683.7768 17.2543 1.8407 25.5598 4.5658.898.2947 1.7919.6015 3.4515 1.1595-5.5399 2.1216-10.435 3.9963-15.3302 5.871z" fill="#fcfcfb"/><path d="m35.0546 384.2004c1.9203-5.2186 4.1675-10.3441 5.6862-15.6771 2.4358-8.5533 4.3892-17.2438 6.5469-25.876 1.3332-.3325 2.6659-.6654 3.9986-.9983-2.8313 8.6705-5.7057 17.3273-8.4612 26.0218-.6339 2.0001-.9933 4.1151-1.2194 6.2053-.1198 1.1071.3185 2.2747.5049 3.4149.3228.0329.6456.0659.9684.0988 1.739-4.4628 3.478-8.9255 5.2167-13.3886 1.6434-.2784 3.3922-.2905 4.909-.8899 3.1668-1.2515 6.1856-2.8728 9.3205-4.213.9978-.4265 2.1703-.4445 3.2641-.6488-.7961 2.6299 1.3132 1.6197 2.1132 1.4464 7.1502-1.5489 14.4063-2.7977 21.3751-4.9602 22.9036-7.1071 44.7673-16.7542 65.8607-28.1279 2.5129-1.355 3.8018-.9608 5.4416 1.2091 1.778 2.3527 4.0687 4.318 6.7883 7.1258-20.5348 8.7185-40.2488 17.0885-59.9629 25.4585.0615.2466.123.4932.1845.7399 1.221-.1883 2.527-.1589 3.6504-.5974 18.4055-7.1837 36.8317-14.3189 55.132-21.763 3.0203-1.2286 4.3479-.539 5.8609 2.3311-4.2562 2.1869-8.3611 4.4682-12.6072 6.4466-14.8194 6.9051-30.3614 11.8745-46.088 16.1063-21.8599 5.882-43.9006 11.0902-65.8419 16.6731-4.2653 1.0851-8.4302 2.5648-12.6414 3.8626z" fill="#e3cca2"/><path d="m258.4049 130.9263c.5667-.4158 1.0747-1.031 1.709-1.2178 11.0771-3.2643 22.3401-5.6328 33.9076-6.0113 9.1011-.2978 18.2994-.9888 27.3018-.0468 10.2276 1.0703 20.2848 3.767 30.4186 5.7432.9307.1815 1.8804.2649 2.8225.3939 9.6442 9.5831 17.6043 20.3698 23.3912 32.7102-4.8931.3225-9.7859.645-14.6788.9675-4.6787-7.6288-9.5087-15.1389-16.4007-21.0435-3.5415-3.0342-7.2582-5.7687-12.013-6.9343 11.3181 7.1171 19.0647 17.2531 25.0421 28.9066-4.9497.1544-9.8991.3088-14.8484.4632-9.4496-11.2494-21.0845-19.6303-34.1743-26.1285-16.0025-7.9441-32.7739-10.8703-50.4793-7.9149-.6542.1093-1.3317.0782-1.9983.1125z" fill="#ead9b6"/><path d="m473.6958 264.4254c-8.1241-2.7044-14.8958-7.5315-20.7203-13.6572-2.9538-3.1064-5.4495-6.6485-8.1521-9.9944.526-1.64 1.1354-3.2578 1.5597-4.9229.789-3.0969 2.3184-6.3034 2.0264-9.3177-.6891-7.1165-2.1967-14.1601-3.5068-21.2083-1.0659-5.7341-2.3257-11.4321-3.4995-17.1461 11.5037 3.3597 20.189 10.4487 26.8134 20.265.0332.66.0524 1.3204.1021 1.9784.5011 6.6188 1.0073 13.2373 1.512 19.8558-5.5705-.0697-7.5817 1.7642-7.4036 7.3586.249 7.82 3.4765 14.6564 7.6673 21.0757.3779.5788 1.4005.7367 2.1237 1.0901.4926 1.541.9851 3.082 1.4777 4.623z" fill="#fce1a8"/><path d="m66.1156 358.1942c2.4926-1.4681 4.9245-3.0531 7.4875-4.386 23.0014-11.9618 46.0217-23.8872 69.0497-35.7977 2.3696-1.2256 4.8257-2.2842 7.2425-3.4203 2.0497 2.6433 4.0985 5.2867 6.3933 8.2475-2.5897 1.2773-4.8082 2.3612-7.0178 3.463-20.4609 10.2027-41.2818 19.5715-63.0923 26.5391-6.5858 2.1038-13.3698 3.5869-20.0629 5.3544z" fill="#e3cca2"/><path d="m308.9513 170.9612c2.5387-.7434 5.0323-1.8079 7.6242-2.1712 8.5276-1.1952 17.0909-2.1363 25.6426-3.1749 5.8204 6.0333 10.0225 13.1999 14.9161 20.5198-3.0118.037-5.3785.1118-7.7441.0865-7.0159-.0753-14.0318-.1678-21.0461-.3244-.6923-.0155-1.6065-.3241-2.0246-.8248-4.8763-5.8401-11.038-10.0749-17.3681-14.111z" fill="#e3cca2"/><path d="m441.4031 188.1788c1.1738 5.714 2.4337 11.412 3.4995 17.1461 1.3101 7.0482 2.8176 14.0917 3.5068 21.2083.292 3.0144-1.2374 6.2209-2.0264 9.3177-.4243 1.665-1.0337 3.2829-1.5597 4.9229-6.953-8.8173-11.144-18.977-13.2108-29.8421-1.3204-6.9411-1.2432-14.1499-1.7607-21.2409-.1729-2.368.9599-3.357 3.3206-2.9358 2.741.4891 5.487.9505 8.2307 1.4238z" fill="#fde9bc"/><path d="m116.914 246.0522c2.283-3.0204 4.2547-6.3547 6.9159-8.9937 5.0232-4.9815 10.4542-9.5508 15.6784-14.3323.4509-.4128.6236-1.1295.9263-1.7071 13.0685-5.7884 26.5329-9.6179 41.7329-8.4354-4.2317 2.6889-8.0875 4.8099-11.5702 7.4274-5.5245 4.1522-11.4437 7.0916-18.1768 8.9456-12.3453 3.3995-23.6956 9.1462-34.2364 16.4459-.3875.2683-.8452.4353-1.2701.6496z" fill="#e9d8b5"/><path d="m469.8307 230.278c-.5047-6.6186-1.0108-13.237-1.512-19.8558-.0497-.658-.0689-1.3184-.1021-1.9784 5.3062 7.2499 9.0721 15.2412 9.8219 24.2175.8464 10.1329 1.011 20.323 1.4479 30.4892.0408.9483-.0926 1.9041-.1721 3.3471-1.984-.7326-3.8015-1.4037-5.6188-2.0735-.4923-1.5397-.9848-3.0807-1.4774-4.6214-.2981-1.2722-.5182-2.5692-.908-3.813-1.6621-5.3032-3.4333-10.5727-5.0502-15.8893-1.3414-4.411.907-7.8506 7.1769-7.7153-1.5469-.9039-2.5765-1.5054-3.6061-2.1071z" fill="#fada9b"/><path d="m363.2768 163.4653c4.8929-.3225 9.7857-.645 14.6788-.9675 3.9197 6.9633 5.7914 14.5316 6.8838 22.7275-4.0302.2099-7.8193.4615-11.6118.5304-.4345.0079-1.0471-.9381-1.3077-1.5556-2.9116-6.8987-5.7702-13.8197-8.6431-20.7348z" fill="#e3cca2"/><path d="m345.0567 164.8572c4.9494-.1544 9.8987-.3088 14.8484-.4632 2.189 4.2732 4.418 8.5263 6.5512 12.8269 1.3206 2.6623 2.4958 5.3967 3.9737 8.6157-3.838.131-7.3248.2877-10.8127.3201-.4234.0039-.9695-.5846-1.2623-1.0282-4.452-6.7443-8.8713-13.5104-13.2983-20.2713z" fill="#e3cca2"/><path d="m361.5472 133.1844c5.4346 2.5303 10.8628 5.0747 16.3136 7.5696.5494.2515 1.2356.2041 1.8584.2954 3.5229 6.1903 7.0455 12.3807 10.5679 18.5713-3.2234.6584-6.4465 1.3166-9.6696 1.9749-5.2886-10.1875-11.7324-19.5994-19.0703-28.4112z" fill="#e9d8b5"/><path d="m399.0339 157.8481c.3769.0239.7538.0478 1.1307.0719 1.6344 1.7294 3.2159 3.5135 4.9285 5.1614.7075.6808 1.6961 1.0696 2.5569 1.5912.9796 4.7046 1.9823 9.4046 2.9265 14.1162.3333 1.663-.1063 2.7837-2.1219 2.9183-1.5142.1011-3.0065.5299-4.7976.8672-.1909-5.7867 1.3981-11.4991-.971-16.8846-.3268-.0196-.6536-.0391-.9804-.0587-.3282 5.0476-.6228 10.0978-1.0174 15.1402-.0663.8478-.3506 2.1577-.9047 2.3972-1.5934.6889-3.0951.4694-3.1121-1.8455-.0561-7.5981-1.847-14.8743-4.0833-22.0685 2.1486-.4687 4.2972-.9375 6.4458-1.4063z" fill="#e2cca1"/><path d="m288.9765 175.6657c4.8666-1.3601 9.7333-2.7203 14.6026-4.0808 7.1654 3.2672 13.415 7.791 19.5459 14.193-3.4001-.0316-6.0023-.1922-8.5877-.0498-4.5747.2519-8.5388-.9398-12.4579-3.4625-4.0894-2.6324-8.7129-4.4347-13.1029-6.5999z" fill="#e2cca1"/><path d="m380.6175 161.5956c3.2231-.6583 6.4463-1.3165 9.6696-1.9749 3.1434 7.2266 4.3619 14.851 4.5107 22.6617.0127.6651-.9721 1.7804-1.6783 1.96-5.9079 1.5026-5.6001 1.3747-7.0104-4.5337-1.462-6.1257-3.6316-12.0825-5.4916-18.1131z" fill="#e2cca1"/><path d="m269.2521 186.5858c2.313-4.036 6.4946-5.5926 10.242-7.7284.8918-.5083 1.7581-1.0615 2.6371-1.5951 6.6873 1.5338 12.9811 3.9882 19.2135 8.0611-11.0802.4358-21.5864.8491-32.0926 1.2624z" fill="#e2cca1"/><path d="m439.9347 247.3526c-.3907.3801-.9997.6932-1.1401 1.1503-3.4544 11.2439-10.9856 19.7991-18.8223 28.0411-12.6703 13.3255-28.0526 23.0666-43.809 32.2532l-.0316-.2264-.2275-.0225c7.194-4.994 14.379-10.0012 21.584-14.9793 13.2861-9.1797 24.9738-20.0062 33.7394-33.6606 2.837-4.4193 4.8542-9.3649 7.2465-14.0697.487.5045.9738 1.0092 1.4606 1.5139z" fill="#8f8061"/><path d="m399.0339 157.8481c-2.1486.4688-4.2971.9376-6.4456 1.4064-2.1695-4.1453-4.339-8.2906-6.5091-12.4358 5.1826 2.661 9.5905 6.2321 12.9547 11.0294z" fill="#e9d8b5"/><path d="m100.5718 268.8563c-1.7062 3.1397-2.9979 6.6241-5.2388 9.3191-2.108 2.5351-5.2175 4.2375-7.8866 6.3062 4.375-5.2084 8.7502-10.4169 13.1254-15.6253z" fill="#f2e9d2"/><path d="m407.65 164.6727c-.8608-.5216-1.8494-.9104-2.5569-1.5912-1.7126-1.6479-3.2941-3.4321-4.9285-5.1614 1.7294-.2894 3.4588-.5786 5.188-.8678.7658 2.5401 1.5316 5.0802 2.2974 7.6204z" fill="#e9d8b5"/><path d="m391.533 128.9958c-.3882-.4465-.7764-.8931-1.1635-1.3409.3885.4462.776.8936 1.1635 1.3409z" fill="#fdfdfc"/><path d="m398.5246 314.4091c-2.6036 2.228-5.2072 4.4561-7.8107 6.6842-.2505-.2867-.5009-.5735-.7514-.8602.8964-.8672 1.7927-1.7345 2.6895-2.6016 1.5572-1.1312 3.1139-2.2626 4.6705-3.3936.4006.0573.8013.1142 1.2021.1712z" fill="#8f8061"/><g fill="#e2cca1"><path d="m376.1634 308.7971c-1.7544 1.234-3.5089 2.468-5.2633 3.702-.2238-.3453-.4477-.6907-.6715-1.036 1.8948-.9714 3.7896-1.9427 5.6801-2.9145-.0043-.0004.2231.0221.2231.0221z"/><path d="m398.5245 314.4091c-.4007-.0569-.8015-.1138-1.2021-.1712 1.4124-1.0403 2.8248-2.0801 4.2371-3.1199-1.0116 1.097-2.0233 2.194-3.035 3.2911z"/><path d="m367.0504 314.1963c-.0512-.1674-.1891-.3859-.1291-.4879.0685-.1163.3133-.1289.4815-.1866.05.1661.1871.3836.1273.4847-.0692.1169-.3117.1313-.4797.1898z"/><path d="m403.3993 309.4704c-.4016.3608-.8032.7216-1.2047 1.0824.4015-.3608.8031-.7216 1.2047-1.0824z"/><path d="m404.5952 308.9509c-.3967.1717-.7935.3435-1.1902.5152.3968-.1717.7935-.3435 1.1902-.5152z"/><path d="m405.2291 307.8665c-.2142.364-.4283.7281-.6425 1.0921.2142-.3639.4283-.728.6425-1.0921z"/><path d="m369.0939 312.8795c-.1341.0655-.2682.131-.4022.1964.084-.1211.1681-.2422.252-.3633z"/><path d="m368.9438 312.7126c.1294-.062.2587-.1241.388-.1862-.0799.1171-.1598.2342-.2388.3522.0009.0009-.1492-.166-.1492-.166z"/><path d="m402.1718 310.5724c-.1948.1745-.3897.3491-.5845.5236.1948-.1746.3897-.3491.5845-.5236z"/></g><path d="m262.2018 350.5742c8.0748.3699 16.1534 1.1029 24.2236 1.02 10.6782-.1098 21.4148-.276 32.0105-1.4571 20.004-2.2299 38.5042-9.2276 55.7557-19.5516 1.9829-1.1866 3.9655-2.3737 5.9482-3.5605.2415.2646.4829.5292.7243.7939-2.4091 1.72-4.7101 3.6212-7.2441 5.1317-23.4726 13.9907-48.8999 21.3052-76.2219 21.0656-11.8209-.1037-23.6294-1.6223-35.4437-2.498.0825-.3148.165-.6294.2474-.944z" fill="#857453"/><path d="m262.2018 350.5742c-.0825.3146-.1649.6292-.2472.9437-2.5103-.4415-5.0208-.8828-7.5312-1.3241.0431-.2617.0862-.5233.1292-.7849 2.5497.3885 5.0995.7769 7.6492 1.1653z" fill="#e2cca1"/><path d="m380.1399 327.0249c1.4016-.9379 2.8033-1.8759 4.2054-2.8117.2649.2426.5293.4831.7936.7236-1.428.9592-2.856 1.9183-4.2794 2.8797-.2368-.2624-.4782-.527-.7196-.7916z" fill="#857453"/><path d="m388.5375 322.3886c-.4422.2852-.8845.5704-1.3268.8555-.1209-.1703-.2418-.3405-.3627-.5107.3907-.3156.7813-.6313 1.1721-.9469.1724.2008.345.4015.5174.6021z" fill="#857453"/><path d="m386.6188 323.3673c-.356.3754-.7119.7507-1.0697 1.1219-.3652-.1327-.7285-.2612-1.0919-.3897.2475-.189.4949-.378.7424-.567.4732-.055.9462-.1101 1.4192-.1652z" fill="#857453"/><path d="m386.6188 323.3673c-.473.0551-.9461.1101-1.4192.1651.4731-.055.9462-.11 1.4192-.1651z" fill="#8f8061"/><path d="m384.4572 324.0995c.3634.1285.7267.257 1.0919.3897-.1383.1513-.2785.2985-.4145.4466-.2601-.2395-.5245-.4801-.7894-.7227-.0005-.002.112-.1136.112-.1136z" fill="#8f8061"/><path d="m333.7643 110.7833c2.8395 1.6816 5.679 3.3632 8.5182 5.045-.2491.2162-.4977.4322-.7465.6482-2.5814-1.9057-5.1629-3.8114-7.7443-5.7172z" fill="#8f8061"/><path d="m333.7918 110.7594c-.1399-.0471-.2798-.0941-.4197-.1412.1304.0553.2609.1106.3917.1655.0005-.0004.028-.0243.028-.0243z" fill="#8f8061"/><path d="m341.5361 116.4766c.2487-.216.4974-.432.7465-.6482.1248.0535.2007.1468.229.2774-.2128.2047-.4266.4117-.6415.6194-.1481-.0343-.2591-.1175-.334-.2486z" fill="#7b6a49"/><path d="m65.9147 345.2074c.3163-1.3181.5625-2.6577.9599-3.9509 3.2768-10.6631 9.4814-19.6141 16.9597-27.6291 7.2238-7.7422 14.928-15.0377 22.4713-22.4785.7976-.7868 1.9326-1.2316 3.5937-2.2561-15.2923 18.9316-34.3026 33.8344-42.7943 56.8325-.3967-.1727-.7935-.3453-1.1903-.5179z" fill="#807150"/><path d="m117.3482 282.1651c-1.1576 1.3001-2.3153 2.6002-3.4729 3.9003-.3127-.3343-.6253-.6686-.938-1.0028 1.4279-1.0129 2.8558-2.0258 4.2838-3.0388z" fill="#e2cca1"/><path d="m117.2211 282.0238.6138-.5457.1244.1376c-.2041.1828-.4082.3657-.6117.5489.0006.0005-.1265-.1408-.1265-.1408z" fill="#e2cca1"/><path d="m117.8349 281.4781c.1122-.058.2244-.116.3367-.174-.0711.1037-.1421.2073-.2127.3112.0004.0004-.124-.1372-.124-.1372z" fill="#e2cca1"/><path d="m119.7218 280.5233c-.1034.0672-.2069.1344-.3103.2016.08-.0937.1599-.1875.2399-.2812z" fill="#e2cca1"/><path d="m119.6513 280.4437c.0979-.0642.1958-.1284.2938-.1926-.0747.0905-.1493.181-.2237.2719.0004.0003-.0701-.0793-.0701-.0793z" fill="#e2cca1"/><path d="m469.8307 230.278c1.0296.6016 2.0592 1.2032 3.6062 2.1071-6.2699-.1353-8.5184 3.3043-7.1769 7.7153 1.6169 5.3166 3.3881 10.5861 5.0502 15.8893.3898 1.2437.6099 2.5407.908 3.813-.7232-.3536-1.7459-.5115-2.1238-1.0903-4.1908-6.4194-7.4183-13.2557-7.6673-21.0757-.1781-5.5945 1.833-7.4283 7.4036-7.3587z" fill="#514530"/></g></svg>