<svg id="Layer_1" enable-background="new 0 0 512 512" height="512" viewBox="0 0 512 512" width="512" xmlns="http://www.w3.org/2000/svg"><g><path d="m67.5958 249.7919c.1416-15.7424 10.9659-23.0662 23.2821-29.1959-.208-.1995-.3169-.3877-.4078-.3793-11.2928 1.0415-20.7917-3.3877-29.9821-9.3392-20.4957-13.2726-27.8524-32.3636-25.1525-55.9152 2.32-20.2379 12.2038-36.8304 25.6078-51.6322 16.89-18.6513 37.9923-30.6502 61.5113-38.7114 31.6242-10.8393 64.06-16.9197 97.6206-15.4752 17.4352.7505 34.6999 2.9668 51.2022 9.0302 17.0214 6.2541 31.4883 16.2052 42.3897 30.869 13.1089 17.6331 16.0562 36.9828 9.2472 57.846-.2284.6998-.4633 1.3974-.8159 2.4602 3.5437-.4719 6.8387-.9757 10.149-1.3407 18.8658-2.08 37.3918-.0415 55.6082 4.9583 27.9602 7.6742 52.4574 21.3219 72.1976 42.8372 11.6033 12.6467 20.2978 27.1906 26.9435 42.9719 7.5769 17.9925 13.7389 36.4263 15.964 55.92 1.9995 17.5161 1.989 35.0464-4.3267 51.7917-8.0884 21.4451-23.5256 35.7138-44.7713 44.0789-15.9635 6.2853-32.5022 7.5717-49.3555 6.4291-6.3247-.4288-12.6094-1.4707-18.906-2.2817-5.8859-.7581-11.4691-2.3615-16.5067-6.5417-2.7201 4.3252-5.4268 8.4148-7.9157 12.6329-4.6551 7.8893-9.0642 15.8961-10.721 25.0916-.1136.6306-1.175 1.4124-1.907 1.5559-3.9537.7756-7.9351 1.8877-11.9204 1.9446-22.1019.3154-42.5968-5.1655-60.8489-17.94-2.8646-2.0049-5.2515-4.6922-7.6266-6.8524-4.7828 4.5012-9.378 9.3503-14.5035 13.5525-16.1391 13.2321-34.6245 22.1566-54.2261 29.0207-21.3805 7.487-43.3109 12.3112-65.9418 13.2704-28.1128 1.1915-53.7602-6.5849-77.002-22.4345-26.3558-17.9732-41.9128-43.0876-46.7031-74.2304-4.5556-29.6169.235-57.8336 18.8846-82.3445 10.36-13.6164 23.1247-24.5779 38.9328-31.6468zm421.0493 95.9186-.0263.0348c4.4709-9.0146 5.3109-18.7668 5.8086-28.5887-.2836-7.3211-.1636-14.685-.9333-21.9547-1.6956-16.0142-6.7016-31.2072-12.4164-46.1759-12.1243-31.7572-31.7779-57.1498-62.1269-73.5134-25.149-13.5599-51.9115-20.2978-80.5461-18.9399-4.7299.2243-9.4301 1.0735-14.144 1.6339-4.2556.9214-8.562 1.656-12.758 2.7964-18.2909 4.9713-33.9526 14.6201-47.7294 27.4311-3.2297 3.0033-5.9593 6.5444-8.919 9.838l.0712-.0048c-.2215.1652-.4431.3305-.6646.4957-3.8081 5.648-7.6162 11.2959-11.4243 16.9439-.5278 1.012-1.122 1.9954-1.5722 3.0408-2.4692 5.7333-5.0645 11.4526-4.0583 17.9611.1137.7359.3918 1.7287.9315 2.0735 6.8409 4.3708 12.6226 9.9562 18.2758 15.6981 4.6551 6.4424 9.3103 12.8848 14.2215 19.6816.0751-.1426.2025-.5635.4678-.8618 4.0389-4.542 8.6525-8.4354 14.2101-10.9026 13.3469-5.925 27.3484-7.2031 41.7765-5.6622 13.6368 1.4564 26.3533 5.7386 38.3386 12.1592 20.7062 11.0925 38.0276 26.2544 52.3195 44.8442 7.5983 9.8833 13.2569 20.7709 16.377 32.955 3.1487 12.296-.6333 22.0928-14.2606 25.6344-12.2264 3.1776-24.4422 2.7558-36.7731 1.5215-.9202-.0921-2.2756-.1436-2.7563.3908-2.7688 3.0782-5.335 6.3387-8.2035 9.821 2.9321.2871 5.295.4454 7.6367.7614 6.9178.9334 13.8015 2.4085 20.7463 2.7802 8.8584.4741 17.7955.5261 26.6371-.104 5.9033-.4207 11.6993-2.3473 17.5433-3.5999 4.7083-1.9424 9.5504-3.6167 14.0953-5.8863 8.0228-4.0062 15.0614-9.3595 20.4865-16.6323 3.0546-4.9198 6.1091-9.8396 9.1637-14.7594.0684-.3035.1368-.6071.2053-.9107zm-378.6609-267.4704c-.3093.0405-.6186.0811-.9279.1216-15.5099 6.8772-29.497 16.0206-41.0389 28.5263-4.6027 4.987-8.4913 10.6331-12.705 15.9792-.6518.9464-1.3566 1.8609-1.947 2.8442-5.7056 9.5026-9.6489 19.6663-10.894 30.7189-.6446 5.7224-.8569 11.506.6957 17.176 1.0731 9.1835 5.1959 16.9912 11.4515 23.55 5.306 5.563 11.7204 9.8713 18.579 13.3264 3.4577 1.7419 7.3353 3.8474 10.9798 3.7694 7.3303-.1567 14.6867-1.3964 21.9305-2.739 10.0943-1.8709 20.0646-4.4027 30.1424-6.3726 20.8751-4.0805 41.8079-7.8668 62.676-11.9823 18.4558-3.6397 36.8641-7.5226 55.2711-11.4036 2.6044-.5491 5.6301-1.0572 7.5229-2.6789 7.406-6.3454 15.3718-11.8257 23.7033-16.8277 7.7473-3.9389 15.5969-7.6451 24.0782-9.7444 2.1324-.5278 3.5244-1.5613 4.0416-3.704 2.8731-7.0843 4.5938-14.3979 4.3978-22.0931-.0588-1.67-.1176-3.34-.1764-5.01-.2603-6.0254-2.0048-11.695-4.5553-17.0703-7.8042-16.4476-20.8296-27.5723-36.8993-35.4064-15.6946-7.6512-32.6481-10.1296-49.7944-11.5825-19.0912-1.6177-38.0544-.2796-56.8779 3.074-6.3877 1.138-12.6968 2.7169-19.0419 4.0943-.6448.0731-1.3181.0508-1.9301.2336-8.8783 2.6529-17.7965 5.1863-26.5992 8.0715-4.1539 1.3615-8.0826 3.4105-12.1132 5.148zm275.7106 290.5642c-.2105.2737-.4209.5473-.6314.821.2092.0619.4184.1237.6275.1856l.9825.0492c3.7755.2756 7.5486.7425 11.3269.7879 8.5315.1026 16.9453-.744 24.951-4.0123 5.516-2.2543 8.4407-7.0689 7.6368-13.2161-1.3139-10.0471-4.988-19.2891-10.318-27.8503-13.6826-21.9776-32.2422-38.9235-54.593-51.6717-19.2219-10.9636-39.927-15.6785-62.0995-12.9494-11.7712 1.4489-22.0164 6.0116-30.3555 14.6059-1.211 1.248-1.2935 2.2416-.6396 3.9032 3.134 7.9647 6.1093 15.9941 8.9968 24.0522.9367 2.6141 1.4349 5.3854 2.0267 7.6716 4.95-1.6225 9.7797-3.2056 14.6094-4.7886.4927.005.9922.0656 1.4772.0068 10.4613-1.2653 20.5399.5775 30.3354 4.0464 22.324 7.9056 39.7473 21.7102 50.9103 42.9016.7844 1.8606 1.5689 3.7212 2.2108 5.2437 4.4615-2.7078 8.8376-5.3637 13.2136-8.0197 3.6612-.6918 7.1049-3.2839 11.577-1.4753-1.6118 1.3669-2.8327 2.4024-4.0536 3.4379-3.9751 3.5719-7.9461 7.1484-11.927 10.7139-2.0794 1.862-4.1757 3.7049-6.2643 5.5565zm-95.9619-4.4934c.8403.0279 1.6806.0558 2.5208.0837 1.6131.1784 3.2262.3567 4.8393.535 2.8081.7119 5.6161 1.4238 8.4242 2.1357.3281.1414.6562.2828.9843.4243 2.5999 1.1025 5.1999 2.2051 7.7998 3.3076.4822.2643.9644.5285 1.4466.7927 2.6975 1.7065 5.3951 3.4129 8.0926 5.1193.5161.3528 1.0321.7055 1.5481 1.0583 2.5811 2.2049 5.1622 4.4099 7.7432 6.6147.6068.5966 1.2135 1.1932 1.8202 1.7899 2.6971 3.0835 5.3942 6.167 8.0913 9.2501.3138.4181.6275.8362.9412 1.2543 1.9182 3.2138 3.8363 6.4276 5.8798 9.8514.4386-.9212.7202-1.5093.9989-2.0988 6.7358-14.2431 15.2132-27.3341 25.9242-38.9213 3.8579-4.1735 3.9331-4.1061 1.383-9.2132-.1067-.2135-.2964-.3856-.4475-.5769-2.9517-4.7375-5.9034-9.475-8.8551-14.2125-.6236-.7202-1.2472-1.4405-1.8708-2.1608-6.7715-7.6602-14.6992-13.8599-23.6717-18.7385l-.0024.0182c-4.8874-2.103-9.7747-4.206-14.662-6.309-.9799-.3309-1.9599-.6617-2.9398-.9926-2.7815-.7428-5.5416-1.5934-8.3596-2.1517-.6922-.1371-1.8866.468-2.3114 1.0963-1.5196 2.2475-2.7774 4.6701-4.2012 6.9852-.4473.7272-1.1056 1.3246-1.6673 1.9814-.2152-.1595-.4304-.3189-.6455-.4784 1.7455-3.3505 3.491-6.7009 5.3548-10.2787-2.8698-.1004-5.5493-.1941-8.1867-.2863-1.5995 4.8688-3.189 9.7072-4.7785 14.5455-.4893.5066-.9787 1.0131-1.955 2.0238.6694-2.4892 1.1378-4.231 1.6062-5.9727 1.0609-3.4856 2.1219-6.9712 3.2142-10.56-5.1925-.1744-5.1925-.1744-6.0399 3.9785-1.2086 2.7758-2.4172 5.5516-3.6258 8.3275-.3898.3344-.7796.6687-1.1694 1.0031-.1667-.087-.3333-.174-.5-.2611 1.04-3.9734 2.08-7.9467 3.2159-12.2863-1.5225.5824-2.6551 1.0156-3.7876 1.4488-1.7674.031-1.5081 1.4255-1.637 2.5016-.4393 3.6673-.8377 7.3395-1.2517 11.0098-.3492-.0333-.6985-.0666-1.0477-.0999.1377-3.9363.2753-7.8727.4135-11.8239-3.9718 1.2329-3.9806 1.2343-3.3837 4.9766 2.0984 13.1578 2.8412 26.3492 1.0141 39.6076-.2635 1.9126-.5007 3.8288-.7722 5.9131 1.7372-.0811 3.1253-.1462 4.5133-.2114zm-167.5584-97.1037c-2.8349.4168-5.6698.8335-8.5047 1.2502-.6392.0585-1.2784.117-1.9176.1755-4.3241-.2762-8.6481-.5523-12.9719-.8278-.9399-.1153-1.8799-.2306-2.8198-.3459-2.9487-.756-5.8974-1.5121-8.8461-2.2681-.493-.1622-.9861-.3244-1.4791-.4866-1.7981-.8192-3.5962-1.6382-5.3943-2.4574-.9559-.627-1.9118-1.254-3.334-2.1867 1.6646 5.4509 3.3261 10.1777 4.5274 15.0187 1.2951 5.2196 3.0013 10.3799 2.4914 15.9521-.215 2.3496.4333 4.9347 2.728 6.2879 2.5868 1.5255 5.3792 2.7021 8.0821 4.0305.9584.215 1.9168.4299 2.8752.6448 3.3341.2567 6.6682.5135 10.0023.7702.6543-.0264 1.3086-.0528 1.963-.0792 2.9752-.2661 5.9504-.532 8.9255-.7981.5046-.0967 1.0091-.1935 1.5137-.2902 2.49-.4309 4.9801-.8619 7.4701-1.2928.8451-.1848 1.6902-.3695 2.5353-.5542 3.8432-1.2559 7.6863-2.5117 11.5295-3.7675l4.1385-1.8177c1.6636-.912 3.3271-1.824 4.9907-2.736.9828-.4035 1.9657-.8069 2.9485-1.2104 1.7433-.6076 3.4866-1.2152 5.5926-1.9492-.2872 3.9591-2.1364 6.688-4.8876 8.5068-3.2722 2.1632-6.7782 4.1029-10.4145 5.5623-14.1095 5.6628-28.8259 7.8235-43.9934 6.9844-4.3828-1.37-8.9748-2.2925-13.0966-4.2204-5.4501-2.5493-9.091-6.8058-8.7926-13.4016.0632-1.3968-.0528-2.8008-.0575-4.2016-.0085-2.5488-.3645-2.8059-2.9068-2.0444-.113 5.0598-.4191 6.2994-4.3085 9.9986-9.4861 9.0224-4.1744 26.3677 6.4272 29.5623 1.569.4728 3.0571 1.2259 4.5636 1.8924 5.2699 2.332 10.6683 3.2172 16.3941 1.9042 2.7131-.6221 5.5771-1.3938 8.2751-1.1235 8.4359.845 16.3538 3.4849 23.9381 7.4066 3.5871 1.8548 7.747 2.602 11.6474 3.8511 4.2639 1.6031 10.0366.3622 11.457-3.2761 1.7158-4.395 4.3738-7.5311 7.9584-10.5007 4.9266-4.0814 9.2635-8.8815 13.7902-13.4362 3.1901-3.2099 6.3886-6.4242 9.3778-9.8176 3.3553-3.809 4.0533-8.279 3.6203-13.3633-.448-5.2594-2.703-9.7397-4.4946-14.4623-.4829-2.773-1.9157-4.7289-4.5376-5.9716-2.288-1.0844-4.3096-2.7522-6.6267-3.7486-2.7717-1.1918-5.7325-1.9441-8.6113-2.8867-.1581.2804-.3161.5609-.4742.8412l2.6715 4.2996c.6607 1.3909 1.175 2.8777 2.0113 4.1534 1.986 3.0291 4.1245 5.9581 6.2014 8.9276-.8709.0735-1.8343.4168-2.591.1574-1.1366-.3896-2.161-1.1536-3.1767-1.8416-8.8768-6.0129-13.3032-14.9156-16.108-24.8677-.4724-1.6763-.9804-3.3427-1.4837-5.0536-2.343 2.8248-4.5261 5.4568-6.7092 8.0888-1.3388 1.1289-2.6775 2.2579-4.0163 3.3868-2.8583 1.5685-5.7166 3.1369-8.5748 4.7054-.7348.2799-1.4696.5598-2.2044.8397-1.7544.5241-3.5089 1.0483-5.2633 1.5725-.6837.1715-1.367.3429-2.0504.5143zm93.1131-40.6193c4.4261-1.7746 8.8522-3.5493 13.2783-5.3239 1.6478-1.117 4.1244-1.8689 4.8042-3.4122 3.5084-7.9656 7.9844-15.3072 13.0912-22.3057.9406-1.2721 1.8812-2.5442 2.821-3.817.0981-.0832.1963-.1663.2944-.2495-.1527.0253-.3054.0506-.458.0759-5.9102 1.0568-11.8288 2.0688-17.7277 3.1852-4.3389.8211-8.652 1.7788-12.5991 2.5973-.228 1.9403-.4095 3.4846-.591 5.0288-.3591.0132-.7181.0264-1.0772.0396-.4618-1.4182-.9236-2.8363-1.4171-4.3519-10.5192 2.1797-21.0511 4.3621-31.5397 6.5354.0145 1.0259.0283 2.0057.0421 2.9855-1.0209-.3627-1.3882-1.01-1.937-1.4053-.6316-.455-1.4819-1.0586-2.1369-.9563-4.7086.7357-9.3918 1.6344-14.1047 2.4853.5649 1.6418 1.0916 3.1727 1.6183 4.7036-.3087.1831-.6174.3662-.9261.5492-.8994-1.0539-1.7667-2.1378-2.7112-3.1496-.4996-.5353-1.2012-1.4098-1.6961-1.3378-3.781.5504-7.5336 1.2963-11.295 1.9814-.1514.2655-.3029.5309-.4543.7964 1.6812 1.3981 3.3625 2.7961 5.0438 4.1942-3.1618.7254-4.934-.8568-6.4583-2.6547-1.1682-1.3779-2.3759-1.6786-4.0982-1.3429-4.6055.8976-9.2463 1.6129-13.8682 2.4282-2.082.3673-4.1525.8002-6.2282 1.2034 8.1174 1.4363 15.4678 3.978 21.2276 10.0343.3425.36 1.022.6753 1.4827.605 5.3539-.8177 10.6958-1.7136 16.0409-2.5887.1576.0477.3227.1541.4717.1349 14.0928-1.8112 27.7671 1.8026 41.6106 3.211.5706.058 1.1319.322 1.6955.3153 2.6008-.0309 5.2011-.1238 7.8017-.1944zm-94.2917 32.8987c1.5811-.4367 3.2195-.7296 4.7338-1.3336 9.6424-3.8462 17.8366-9.1643 19.6778-20.4693.1948-1.1964-.1372-2.7713-.8147-3.7708-5.5542-8.1948-13.6896-11.4788-23.2686-11.8599-14.7558-.8991-28.1608 2.8347-39.6027 12.3029-2.6747 2.2133-4.4185 5.6408-6.3077 8.6852-1.4159 2.2817-.9324 4.6148.5492 6.9276 1.8996 2.9652 4.3817 5.2245 7.5341 6.5639 12.1481 5.1618 24.6739 6.0983 37.4988 2.954zm34.411-20.5557c1.9251 6.1281 3.8095 12.2696 5.8284 18.3666.2427.733 1.2354 1.7635 1.8454 1.7403 3.8437-.1468 7.5431.195 11.0545 1.9137 5.7125 2.7961 11.0695 5.9237 13.1286 12.5526.8493 2.7343 1.4981 5.5996 2.8044 8.1107 4.5203 8.6893 4.1778 16.6823-2.6342 23.7204-7.664 7.9184-16.0708 15.1178-24.1599 22.6242-.2393.2221-.513.4536-.8132.5562-2.8812.9843-4.0137 3.3573-5.1056 5.9438-.7085 1.6784-1.6803 3.6051-3.1094 4.5573-6.0526 4.0331-12.6351 5.5801-19.6811 2.7004-2.3541-.9621-4.5713-2.2551-6.87-3.3574-4.2172-2.0223-8.4485-4.0153-12.674-6.0205-2.4852-.5168-4.9661-1.4447-7.4564-1.4707-6.5761-.0687-13.1616.1412-19.7339.4441-13.0103.5997-22.5131-4.8918-25.758-17.3683-1.9097-8.4328-.1457-15.7625 6.186-21.9412 1.3957-1.362 2.9295-3.4991 2.8757-5.2319-.1005-3.2388 1.5869-4.7498 3.7424-6.3913.5563-.4236.9921-1.5906.8334-2.2626-.5663-2.3976-1.3785-4.7404-2.1597-7.0832-1.6027-4.8063-3.2455-9.5992-4.9516-14.6334-1.2386.6152-2.3385.9996-3.2553 1.6443-4.7086 3.3114-9.478 6.5504-14.0279 10.0708-13.6331 10.5486-23.1944 24.1735-29.5807 40.0728-2.7424 6.8275-4.2619 13.987-5.0252 21.3109-.982 9.4225-1.4948 18.8576-.5188 28.3034 1.3296 12.8669 5.5551 24.8504 11.3989 36.3129 4.3306 8.4944 9.4136 16.5645 16.3706 23.078 5.9866 5.6048 12.3895 10.9039 19.1903 15.4719 15.6137 10.4875 32.8733 16.971 51.6743 18.8268 11.429 1.1281 22.8795.8109 34.2559-.8601 13.4528-1.976 26.721-4.7737 39.6793-8.9854 20.4189-6.6365 39.8437-15.1648 57.004-28.3987 10.8721-8.3846 19.4451-18.4749 24.8104-31.1433 3.5165-8.3033 5.7785-16.9582 6.5055-25.9786.2355-5.4135.471-10.8269.7065-16.2404-.3601-4.661-.7202-9.3221-1.0802-13.9832.0076-.3288.0594-.6635.0166-.9856-2.5278-19.0257-8.308-36.9361-18.6634-53.1906-12.2534-19.2338-29.24-31.8828-51.7886-36.6278-9.8555-2.074-19.7163-.4248-29.5645-.0249-3.859.1567-7.6887 1.0363-11.5318 1.5866-.0942-.2004-.1885-.4009-.2827-.6013 3.04-1.9033 6.0801-3.8067 9.1201-5.71-.0367-.1385-.0733-.2769-.11-.4154-7.4952.2642-14.9904.5284-22.7339.8013 1.6023 3.0976 2.9206 5.6467 4.2388 8.1958zm175.4022 182.4144c2.7782-.2498 7.4574-.5915 12.1161-1.1155 3.4452-.3875 4.0181-1.6758 2.6153-4.9662-5.7137-13.4015-14.6913-24.1994-26.4206-32.6906-9.8861-7.1568-20.7417-11.8216-33.2305-11.7939-1.3821.0031-2.2489.2095-2.6525 1.8018-2.2229 8.7706-5.7523 16.9976-10.4638 24.7329-.347.5695-.1881 2.0074.2823 2.4235 3.0132 2.6657 5.9378 5.5517 9.3371 7.6399 14.2295 8.7412 29.9943 12.5449 48.4166 13.9681zm-100.313-187.2085c-.7146-2.8118-1.3768-5.4177-2.0986-8.2579-1.4895.666-2.7053 1.2095-4.2184 1.886 2.1993 2.2143 2.11 5.9665 6.317 6.3719zm-6.232-2.3789c-.5383-1.5714-.8669-2.5309-1.2288-3.5874-1.6273.4492-3.0217.8342-4.9496 1.3663 2.17.7801 3.8754 1.3932 6.1784 2.2211z" fill="#2d1b0e"/><path d="m277.0796 356.126c-.7263 9.0206-2.9883 17.6755-6.5048 25.9788-5.3653 12.6685-13.9383 22.7588-24.8104 31.1433-17.1603 13.234-36.5851 21.7622-57.004 28.3987-12.9583 4.2117-26.2265 7.0095-39.6793 8.9854-11.3763 1.671-22.8268 1.9883-34.2559.8601-18.8009-1.8558-36.0606-8.3393-51.6743-18.8268-6.8007-4.568-13.2037-9.8672-19.1903-15.4719-6.9571-6.5134-12.04-14.5836-16.3706-23.078-5.8438-11.4625-10.0694-23.446-11.3989-36.3129-.9761-9.4457-.4632-18.8809.5188-28.3034.7633-7.3239 2.2828-14.4835 5.0252-21.3109 6.3863-15.8994 15.9476-29.5243 29.5807-40.0728 4.5499-3.5205 9.3192-6.7595 14.0279-10.0708.9168-.6447 2.0167-1.0291 3.2553-1.6443 1.7061 5.0341 3.3489 9.8271 4.9516 14.6334.7812 2.3428 1.5934 4.6856 2.1597 7.0832.1587.672-.2771 1.839-.8334 2.2626-2.1556 1.6415-3.843 3.1526-3.7424 6.3913.0538 1.7328-1.4801 3.8699-2.8757 5.2319-6.3317 6.1787-8.0956 13.5084-6.1858 21.9413-.6125.6976-1.5773 1.3055-1.7808 2.1069-1.3447 5.2959-3.1149 10.5824-3.5809 15.9727-.4 4.6269.7519 9.3879 1.2175 14.0896-2.1891-1.2934-4.5656-2.3517-6.5341-3.9215-7.7145-6.1526-11.1158-14.6723-12.7172-24.0914-.3441-2.024-.5544-4.0706-.8342-6.1058-.2655-1.9305-.5413-3.8596-.8125-5.7893-1.9374 6.8825-1.2019 13.6177.9086 20.2043 3.5373 11.0394 10.4321 19.0949 21.4214 23.3439.9733 2.4362 1.8412 4.9209 2.9379 7.3002 4.9918 10.8308 12.0797 20.0865 20.9099 28.101 7.548 6.8507 16.1791 11.925 25.5939 15.5255 12.8355 4.9087 26.322 5.9145 39.9482 5.4476.7429-.0254 1.4745-.3798 2.3597-.6215-.4713-1.3121-.7694-2.3361-1.1973-3.3026-3.0969-6.9953-6.1979-13.9889-9.3416-20.9632-2.6494-5.8778-4.1796-12.0538-5.4617-18.3562-1.1252-5.5309-2.8685-10.9357-4.3245-16.4-.2118-.795-.3439-1.6112-.5129-2.4176.8671-.1092 1.7749-.4306 2.591-.2739 1.0249.1967 2.0919.6233 2.9351 1.2344 2.6521 1.9224 5.2401 3.9375 7.7945 5.9894 5.9701 4.7957 12.0366 9.5903 15.8462 16.3828 3.0892 5.5081 6.1347 11.1469 8.2461 17.0678 2.1877 6.1348 3.2274 12.679 4.7692 19.0441-3.1817.408-6.3633.8159-9.545 1.2238-.1348-.3812-.3143-.7528-.3979-1.1449-2.9585-13.8688-6.8691-27.4554-12.051-40.6644-.2616-.6667-.6566-1.2811-.9275-1.8008 3.5155 14.6406 7.0351 29.2987 10.5548 43.9569-2.8042.3182-5.6085.6364-8.5436.9694 2.3923 8.0189 4.6051 15.8302 7.1333 23.5381.4425 1.349 2.0231 2.6764 3.4011 3.3013 4.2659 1.9345 8.2051-1.058 9.0838-6.3475 1.2649-7.6138 2.3321-15.2239 1.7484-22.9701.2263-.1.4434-.2432.6803-.2938 12.2669-2.6199 24.5765-5.0582 36.7827-7.9354 4.5046-1.0619 8.8794-2.9091 13.1034-4.8543 3.5615-1.6401 6.7363-4.0991 10.2262-5.9195 11.8375-6.1746 22.9663-13.4398 33.6521-21.4165 3.2043-2.392 6.4806-4.6878 9.724-7.0277z" fill="#c26d30"/><path d="m479.2768 361.3824c-5.4258 7.2712-12.4644 12.6245-20.4872 16.6307-4.5449 2.2696-9.387 3.9439-14.0952 5.8856-.1231-.2091-.3622-.4229-.3527-.625.3822-8.0992 1.3233-16.2169 1.0273-24.2896-.2591-7.0643-1.4632-14.1785-3.0367-21.0915-2.7613-12.1313-7.0876-23.7635-12.8912-34.8126-7.7601-14.7736-16.8345-28.5127-29.0918-40.1012-11.2288-10.6162-23.843-18.8394-38.2459-24.2649-13.2126-4.9771-26.8968-7.4052-41.0816-7.4866-8.2731-.0475-16.3623.7697-24.3837 2.5585-10.4449 2.3292-20.2817 6.2895-29.2982 12.0233-3.9023 2.4816-7.2998 5.7568-10.9266 8.6714-5.6532-5.7419-11.4348-11.3272-18.2758-15.6981-.5397-.3449-.8177-1.3377-.9315-2.0735-1.0062-6.5085 1.5892-12.2278 4.0583-17.9611.4502-1.0454 1.0444-2.0288 1.5725-3.0408 1.5675-.6903 3.097-1.4886 4.7085-2.0527 7.9101-2.7688 15.7487-5.7967 23.7873-8.1313 13.3991-3.8915 27.1852-5.3657 41.1235-5.1606 4.5974.0677 9.2126.4003 13.7762.9639 7.8851.9739 15.8308 1.7833 23.5815 3.4503 15.1212 3.2522 29.4116 8.9741 42.9169 16.4738 15.1323 8.4032 28.6528 19.0041 40.2527 31.8502 5.3793 5.9573 10.3983 12.3384 14.8365 19.0215 5.2175 7.8565 10.1226 16.0075 14.2568 24.4733 4.7224 9.6702 8.3425 19.852 10.96 30.3606 2.6644 10.6967 4.5133 21.4983 5.2195 32.501.0426.6609.6671 1.2844 1.0206 1.9254zm-87.2376-130.5461.1047.133-.1203-.1185c-2.4393-1.2272-4.8786-2.4544-7.3179-3.6816-11.475-6.044-23.3717-10.9421-36.0545-13.9108-12.6399-2.9586-25.413-5.138-38.3775-4.3941-12.7341.7306-25.4753 2.0685-37.7339 5.9879 5.82-.3542 11.5791-1.1148 17.3567-1.6891 10.7061-1.0643 21.3814-2.2987 32.2089-1.2736 10.4382.9883 20.735 2.6655 30.7524 5.6466 10.2408 3.0475 20.3169 6.6487 30.4651 10.0075 2.9053 1.0975 5.8107 2.1951 8.7163 3.2927zm24.5772 19.6957c-.1613-.126-.3227-.2521-.4841-.3781-.0453.0581-.0907.1162-.136.1743.205.0697.4099.1395.6149.2092.5498.7821.9727 1.7083 1.6703 2.3225 3.8938 3.4281 7.809 6.8353 11.8048 10.1434 3.7903 3.138 7.689 6.1451 11.54 9.2098.0289.0671.0456.145.0915.1974.0261.0298.0998.018.1521.0249-.0857-.0697-.1714-.1393-.2571-.209-.4781-.9235-.8257-1.9489-1.455-2.7543-5.271-6.7466-11.8344-12.0468-18.979-16.6583-1.4201-.9167-3.0365-1.5291-4.5624-2.2818zm39.2343 46.9026c6.6784 14.4763 11.4821 29.5435 14.9386 45.0584-2.2048-15.9387-7.2294-30.9542-14.9386-45.0584zm-13.014-24.3257-.1077.1852.1665.0341z" fill="#c26d30"/><path d="m172.4544 403.5113c-1.5418-6.3651-2.5815-12.9093-4.7692-19.0441-2.1113-5.9209-5.1569-11.5597-8.2461-17.0678-3.8095-6.7924-9.8761-11.5871-15.8462-16.3828-2.5544-2.0519-5.1424-4.067-7.7945-5.9894-.8432-.6111-1.9102-1.0377-2.9351-1.2344-.816-.1567-1.7239.1647-2.591.2739.169.8064.3011 1.6226.5129 2.4176 1.456 5.4643 3.1993 10.8691 4.3245 16.4 1.2821 6.3024 2.8122 12.4784 5.4617 18.3562 3.1436 6.9743 6.2447 13.968 9.3416 20.9632.4279.9665.7261 1.9905 1.1973 3.3026-.8852.2417-1.6168.5961-2.3597.6215-13.6263.4669-27.1127-.5389-39.9482-5.4476-9.4148-3.6005-18.0459-8.6748-25.5939-15.5255-8.8302-8.0145-15.9181-17.2701-20.9099-28.101-1.0966-2.3793-1.9646-4.864-2.9374-7.2983 6.9025 1.8556 13.8566 3.1968 21.0584 2.1638-7.8547-.5674-15.2433-2.9127-22.4909-5.8058-.4656-4.7017-1.6175-9.4627-1.2175-14.0896.466-5.3903 2.2362-10.6768 3.5809-15.9727.2035-.8013 1.1683-1.4093 1.7808-2.1069 3.2447 12.4764 12.7475 17.9679 25.7578 17.3682 6.5723-.3029 13.1578-.5128 19.7339-.4441 2.4903.026 4.9712.9539 7.4565 1.4706.5944.5135 1.1247 1.1395 1.7943 1.5208 2.6416 1.5044 5.2776 3.0325 8.0049 4.37 9.988 4.8983 20.2444 8.9579 31.4357 10.2282 7.8881.8954 15.357 3.4525 22.6676 6.4149 7.8335 3.1743 15.895 5.4725 24.3526 5.5366 9.1721.0696 18.0614-1.7776 26.7345-4.9097 12.346-4.4584 23.6287-10.7338 33.9157-18.8406 3.5346-2.7855 7.0053-5.652 10.6352-8.5866 1.0865 3.9794 2.1559 7.8963 3.2253 11.8131-.2355 5.4135-.471 10.8269-.7069 16.2404-3.2437 2.3398-6.5201 4.6357-9.7245 7.0277-10.6858 7.9767-21.8146 15.2419-33.6521 21.4165-3.49 1.8204-6.6647 4.2794-10.2262 5.9195-4.224 1.9452-8.5988 3.7925-13.1034 4.8543-12.2062 2.8772-24.5157 5.3155-36.7827 7.9354-.2369.0505-.4539.1938-.68.2934-.1521-.0207-.3044-.0411-.4567-.0615zm-82.2482-52.9527c.0912.1432.1825.2863.2737.4296 10.81 1.4818 21.62 2.9637 32.43 4.4455.03-.2085.0599-.4169.0899-.6254-9.7606-2.9693-19.6684-5.1183-29.9588-5.0002-.9478.011-1.89.4892-2.8348.7505z" fill="#d28c53"/><path d="m277.7869 339.8857c-1.0695-3.9169-2.1389-7.8337-3.2253-11.8131-3.6299 2.9346-7.1006 5.8011-10.6352 8.5866-10.287 8.1068-21.5697 14.3821-33.9157 18.8406-8.6731 3.132-17.5624 4.9792-26.7345 4.9097-8.4576-.0641-16.5191-2.3622-24.3526-5.5366-7.3105-2.9625-14.7795-5.5195-22.6676-6.4149-11.1913-1.2703-21.4476-5.33-31.4357-10.2282-2.7273-1.3375-5.3633-2.8656-8.0049-4.37-.6696-.3813-1.1999-1.0073-1.7943-1.5208 4.2253 2.0054 8.4566 3.9984 12.6739 6.0207 2.2987 1.1023 4.5159 2.3953 6.87 3.3574 7.046 2.8798 13.6285 1.3328 19.6811-2.7004 1.429-.9522 2.4008-2.879 3.1094-4.5573 1.0919-2.5865 2.2244-4.9594 5.1056-5.9438.3002-.1026.574-.3342.8132-.5562 8.0891-7.5064 16.4959-14.7058 24.1599-22.6242 6.812-7.0381 7.1545-15.0312 2.6342-23.7204-1.3063-2.5111-1.9551-5.3764-2.8044-8.1107-2.0591-6.6289-7.4161-9.7565-13.1286-12.5526-3.5114-1.7187-7.2108-2.0605-11.0545-1.9137-.6101.0233-1.6027-1.0072-1.8454-1.7403-2.0189-6.097-3.9034-12.2385-5.8285-18.3667 3.0102-.3218 6.0149-.7317 9.0334-.9224 1.227-.0775 2.9811-.1324 3.6376.5862 2.3089 2.527 5.1147 3.1469 8.269 3.045 8.9218-.288 17.7994-1.2984 26.78-.183 6.6927.8313 13.1655 2.2357 19.1391 5.209 15.1733 7.5525 26.3771 19.3579 34.0098 34.2787 4.6281 9.047 8.042 18.7157 11.9814 28.1135.5713 1.363 1.0538 2.765 1.5374 4.1628 1.6048 4.6383 3.1914 9.2829 4.846 14.1028.7591-.5221 1.4125-.9716 2.066-1.421.36 4.6612.7201 9.3223 1.0802 13.9833zm-62.5174-54.3196c.1005 1.3392.201 2.6785.3014 4.0177-.2613 2.583-.238 5.2361-.8532 7.7319-.8393 3.4055-2.1651 6.6912-3.2822 10.0284-.4693.6089-1.0617 1.1584-1.3893 1.8359-4.1047 8.4906-9.3004 15.9538-18.4549 19.6938-2.8917 1.1813-5.8319 2.2435-8.7448 3.3733-1.7893.694-3.5689 1.4128-5.3529 2.1204.9313.4872 1.7427.5785 2.4983.4139 9.3734-2.0405 18.2686-5.0444 24.8536-12.5944-.6642 1.6267-1.2601 3.2859-2.0129 4.8705-.6741 1.4189-1.5211 2.7558-2.3792 4.2846.6841.0996.8595.1795.9874.1318.2253-.084.4437-.2203.6268-.3788 13.5487-11.7367 21.5249-26.1116 19.9708-44.4861-.7928-9.3733-4.8862-17.512-13.7186-21.7279-6.0102-2.8688-12.6807-4.3622-19.0786-6.3992-.6704-.2134-1.4946.0562-2.2475.1018-.0979.2202-.1958.4404-.2938.6606.8041.8569 1.4835 1.9026 2.4376 2.5321 2.1264 1.4029 4.3062 2.7801 6.614 3.8422 6.1453 2.8282 12.2444 5.6635 16.287 11.4574.4777.8337.9553 1.6674 1.433 2.501.4558 1.3333.9117 2.6667 1.366 4.001.1441.6625.288 1.3253.432 1.9881z" fill="#e3b185"/><path d="m55.3124 122.8672c4.2137-5.3461 8.1023-10.9921 12.705-15.9792 11.5419-12.5057 25.529-21.6492 41.0389-28.5264.3093-.0406.6186-.081.9278-.1216l-.0307.0183c4.8035-.997 9.5991-2.0345 14.4126-2.9808 5.8597-1.152 11.7346-2.2273 17.6029-3.3357-.5133.5311-.9636 1.1475-1.5494 1.5804-8.5338 6.3052-14.4873 14.6257-18.168 24.4314-1.8262 4.8652-2.8011 10.0959-3.7319 15.239-1.0338 5.7121-.048 11.129 3.927 15.6822 7.35 8.4189 16.9864 13.3122 27.3355 16.563 8.7279 2.7415 17.7564 4.639 26.7582 6.3515 5.0504.9608 10.3489 1.3201 15.4783 1.0081 9.0662-.5516 18.1178-1.61 27.1216-2.8486 10.5541-1.4518 21.053-3.3081 31.5661-5.0477.6189-.1024 1.1513-.7277 1.724-1.1097 3.1042-.293 6.2084-.5861 9.3126-.8791.6486 0 1.3047.0646 1.9445-.0102 4.699-.5495 9.3948-1.1268 14.0916-1.6954-.5432.436-1.0201 1.0621-1.64 1.2784-5.8969 2.0575-11.8273 4.0187-17.7306 6.0582-25.2655 8.7289-50.935 16.0392-76.9286 22.2706-8.5237 2.0434-16.983 3.8611-25.8058 2.7127-3.7367-.4864-7.5065-.7663-11.2162-1.4022-6.8539-1.1749-13.7965-2.0978-20.4832-3.9264-12.6559-3.461-24.6072-8.6915-35.8681-15.5341-12.8829-7.8282-23.8147-17.7162-32.7941-29.7967z" fill="#d28c54"/><path d="m256.4133 254.4805c3.6268-2.9147 7.0244-6.1899 10.9266-8.6714 9.0164-5.7338 18.8532-9.6941 29.2982-12.0233 8.0213-1.7887 16.1105-2.606 24.3837-2.5585 14.1848.0814 27.869 2.5095 41.0816 7.4866 14.4029 5.4255 27.0172 13.6487 38.2459 24.2649 12.2572 11.5885 21.3317 25.3276 29.0918 40.1012 5.8037 11.0491 10.1299 22.6812 12.8912 34.8126 1.5735 6.913 2.7776 14.0272 3.0367 21.0915.2961 8.0726-.6451 16.1904-1.0273 24.2896-.0096.2021.2296.4159.3527.625-5.8441 1.2534-11.6401 3.18-17.5434 3.6006-8.8416.6301-17.7787.5781-26.6371.104-6.9448-.3717-13.8285-1.8468-20.7463-2.7802-2.3416-.3159-4.7046-.4743-7.6367-.7614 2.8685-3.4824 5.4347-6.7428 8.2035-9.821.4807-.5344 1.836-.4829 2.7563-.3908 12.3309 1.2343 24.5468 1.6562 36.7731-1.5215 13.6273-3.5416 17.4093-13.3384 14.2606-25.6344-3.1201-12.1842-8.7787-23.0718-16.377-32.955-14.2918-18.5898-31.6133-33.7517-52.3195-44.8442-11.9853-6.4206-24.7017-10.7028-38.3386-12.1592-14.4281-1.5409-28.4296-.2628-41.7765 5.6622-5.5576 2.4672-10.1712 6.3606-14.2101 10.9026-.2653.2983-.3927.7193-.4678.8618-4.9113-6.7969-9.5664-13.2393-14.2216-19.6817z" fill="#b45515"/><path d="m55.3124 122.8672c8.9794 12.0806 19.9112 21.9685 32.794 29.7967 11.2608 6.8427 23.2122 12.0731 35.8681 15.5341 6.6867 1.8286 13.6292 2.7515 20.4832 3.9264 3.7098.6359 7.4795.9158 11.2162 1.4022 8.8228 1.1484 17.2821-.6693 25.8058-2.7127 25.9936-6.2315 51.6631-13.5418 76.9286-22.2706 5.9033-2.0395 11.8337-4.0006 17.7306-6.0582.6199-.2163 1.0968-.8424 1.6398-1.279 1.0343-.2571 2.1101-.4064 3.097-.7866 9.5089-3.6634 19.0029-7.3656 28.5012-11.0567 1.3934-.2588 2.7868-.5175 4.457-.8277-.1026 1.2824-.1687 2.2416-.2576 3.1987-.4304 4.633-.9582 9.2601-1.2305 13.9022-.0603 1.0275.7746 2.1076 1.1972 3.1635-.5167 2.1427-1.9088 3.1762-4.0411 3.704-8.4813 2.0993-16.331 5.8055-24.0781 9.7442-.3689-.0297-.7643-.1612-1.1028-.0732-4.132 1.074-8.2292 2.2942-12.386 3.2583-18.2147 4.2243-36.3567 8.8338-54.6973 12.4228-17.261 3.3777-34.7164 5.7979-52.126 8.3699-17.0877 2.5244-34.2105 4.8782-51.554 4.6762-1.6727-.0195-3.345-.0774-5.0175-.1175 6.8513-1.7838 13.6386-3.8849 20.5678-5.282 12.5773-2.536 25.2841-4.433 37.8535-7.0041 13.9492-2.8535 27.7632-6.3686 41.7139-9.2142 13.2943-2.7117 26.6975-4.8858 40.0329-7.402 3.1545-.5953 6.2291-1.6142 9.3404-2.4383-1.078-.6301-2.064-.8447-2.9755-.6701-21.0849 4.0388-42.1841 8.0091-63.2309 12.2396-10.6451 2.1397-21.1723 4.859-31.7897 7.1449-12.7017 2.7347-25.4671 5.1753-38.1571 7.9612-6.9907 1.5347-13.8833 3.5163-20.8202 5.2965-.3581-.1682-.7035-.4454-1.0761-.4885-6.4188-.7438-12.8794-1.2178-19.2534-2.2355-10.036-1.6022-19.4748-5.0615-28.3346-10.0789-3.0488-1.7266-6.1617-3.3402-9.2453-5.0054-1.5513-5.6711-1.339-11.4547-.6944-17.1771 1.2451-11.0526 5.1884-21.2164 10.894-30.7189.5902-.9833 1.2951-1.8978 1.9469-2.8442zm246.8824 19.2957c-8.0115 3.7108-16.0231 7.4215-23.342 10.8115 8.1056-1.5371 16.5857-4.185 23.342-10.8115z" fill="#c16d30"/><path d="m254.8543 198.2721c2.9596-3.2937 5.6893-6.8347 8.919-9.838 13.7768-12.811 29.4385-22.4597 47.7294-27.4311 4.196-1.1405 8.5024-1.8751 12.7581-2.7964 2.3375.0567 4.6747.1383 7.0125.1661 10.9525.1303 21.904.5966 32.6581 2.7283 13.5813 2.6921 26.7634 6.746 39.1017 13.1996 15.7559 8.2411 29.1864 19.3145 40.2466 33.2345 9.9229 12.4887 18.0941 26.0846 24.7469 40.5466 4.5056 9.7942 8.7125 19.7437 12.5916 29.8017 2.4741 6.415 4.105 13.1552 6.114 19.7496-1.2999-2.039-2.7571-3.9957-3.8742-6.1304-7.0094-13.3946-15.4196-25.8494-25.5827-37.0183-5.9696-6.5604-12.391-12.7351-18.8874-18.7846-9.4765-8.8245-19.9966-16.3114-31.2006-22.7856-16.3225-9.4319-33.7108-16.2519-51.9406-21.05-13.7868-3.6287-27.7344-6.0772-41.9947-6.3151-5.1451-.0858-10.3118.435-15.4519.8747-11.5337.9868-22.6287 3.874-33.4018 8.0493-3.1927 1.2373-6.3633 2.5311-9.544 3.7991z" fill="#e3b185"/><path d="m254.8543 198.2721c3.1806-1.268 6.3512-2.5618 9.5438-3.7992 10.7731-4.1754 21.868-7.0625 33.4018-8.0493 5.1401-.4398 10.3068-.9606 15.4519-.8747 14.2603.2379 28.2079 2.6864 41.9947 6.3151 18.2297 4.7981 35.6181 11.6181 51.9406 21.05 11.204 6.4742 21.7241 13.9611 31.2006 22.7856 6.4964 6.0495 12.9178 12.2242 18.8874 18.7846 10.1632 11.1689 18.5733 23.6238 25.5827 37.0183 1.1171 2.1347 2.5743 4.0914 3.8749 6.13.6458 2.456 1.2909 4.9123 1.9359 7.3687.0102.4838-.0011.9691.0342 1.4511.5052 6.9106 1.4022 13.8202 1.4118 20.7311.0085 6.1866-.9591 12.3746-1.496 18.562 0 0 .0264-.0347.0265-.0345-.0684.3037-.1368.6072-.2053.9107-3.0545 4.9198-6.1091 9.8396-9.1633 14.7602-.3532-.6401-.9777-1.2637-1.0201-1.9246-.7062-11.0027-2.5551-21.8044-5.2195-32.501-2.6176-10.5087-6.2376-20.6904-10.96-30.3606-4.1343-8.4659-9.0393-16.6169-14.2568-24.4733-4.4383-6.6831-9.4572-13.0642-14.8365-19.0215-11.5999-12.8461-25.1204-23.4471-40.2527-31.8502-13.5053-7.4997-27.7957-13.2216-42.9169-16.4738-7.7507-1.667-15.6964-2.4764-23.5815-3.4503-4.5636-.5636-9.1788-.8962-13.7762-.9639-13.9384-.2051-27.7244 1.2691-41.1235 5.1606-8.0386 2.3346-15.8772 5.3626-23.7873 8.1313-1.6115.5641-3.1409 1.3624-4.7085 2.0527 3.8078-5.6479 7.6159-11.2959 11.4244-16.9439.2217-.1653.443-.3305.6642-.4957z" fill="#d28c54"/><path d="m403.8858 352.5337c1.2209-1.0355 2.4419-2.0709 4.0537-3.4378-4.472-1.8086-7.9158.7835-11.577 1.4753-1.8543-.1951-3.8193-.8752-5.5391-.4821-3.3674.7696-6.598 2.1378-9.8853 3.2582-11.1629-21.1913-28.5862-34.9959-50.9102-42.9016-9.7954-3.4689-19.874-5.3116-30.3354-4.0464-.485.0587-.9845-.0018-1.4772-.0068-.2949-6.0015 1.5059-11.1543 6.6677-14.5325 3.1433-2.0572 6.5261-3.8517 10.0002-5.2809 10.706-4.4045 21.8972-6.2654 33.4781-5.7574.7621.0334 1.5397-.2836 2.3101-.4377 6.5214 3.2733 13.2226 6.2385 19.5117 9.9098 5.8566 3.4188 11.2746 7.5891 16.8857 11.4286 3.0611 2.6913 6.1617 5.3393 9.1724 8.0858 3.0254 2.7599 6.3591 5.3068 8.8545 8.4971 5.3367 6.823 9.3079 14.5217 12.5836 22.5302 3.3734 8.2475 5.9807 16.6973 5.2723 25.8003-8.0057 3.2683-16.4195 4.1149-24.951 4.0123-3.7783-.0454-7.5514-.5123-11.3269-.7879 1.4375-.9305 2.7711-2.131 4.3351-2.7328 2.8917-1.1127 5.947-1.7917 8.882-2.8025 4.1545-1.4307 8.2483-3.037 12.3958-4.4888 1.6805-.5883 2.0976-1.6329.6185-2.5373-2.8954-1.7702-6.0009-3.1965-9.0193-4.7651zm-.2491-20.0733c.5244-1.008.7395-1.3465.8849-1.7127 1.0978-2.7647-.9198-11.0801-3.2462-12.8971-.5398-.4216-1.8037-.711-2.1501-.4033-.5514.4897-.9883 1.625-.8152 2.3243.7491 3.0266 1.6169 6.0385 2.6956 8.9619.4521 1.2248 1.5354 2.2165 2.631 3.7269zm4.649 2.28c-.4343.0526-.8687.1051-1.303.1577-.1072 1.4532-.4122 2.9321-.2289 4.3477.0783.6057 1.1735 1.0797 1.8065 1.6136.4766-.6763 1.4436-1.4486 1.3336-2.01-.278-1.4202-1.04-2.7457-1.6082-4.109z" fill="#efdecb"/><path d="m108.54 190.7841c1.6725.0401 3.3448.0981 5.0175.1175 17.3435.202 34.4663-2.1518 51.554-4.6762 17.4097-2.572 34.865-4.9922 52.126-8.3699 18.3407-3.589 36.4826-8.1986 54.6973-12.4228 4.1568-.9641 8.2541-2.1843 12.386-3.2583.3384-.088.7339.0435 1.1028.0732-8.3317 5.0023-16.2975 10.4826-23.7035 16.828-1.8928 1.6217-4.9185 2.1298-7.5229 2.6789-18.407 3.881-36.8154 7.7639-55.2711 11.4036-20.868 4.1155-41.8008 7.9018-62.676 11.9823-10.0779 1.9699-20.0481 4.5017-30.1424 6.3726-7.2437 1.3426-14.6002 2.5822-21.9305 2.739-3.6445.0779-7.5221-2.0275-10.9798-3.7694-6.8586-3.4551-13.273-7.7633-18.579-13.3264-6.2557-6.5587-10.3784-14.3665-11.4522-23.5494 3.083 1.6658 6.1958 3.2793 9.2446 5.0059 8.8598 5.0174 18.2987 8.4766 28.3346 10.0789 6.3741 1.0176 12.8347 1.4917 19.2534 2.2355.3726.0432.718.3203 1.0762.4887-3.6487.5936-7.2974 1.187-10.9462 1.7803.0519.3001.1038.6001.1557.9001 6.0854-1.104 12.1704-2.208 18.2555-3.3121zm-21.2238 2.7628c-.022.0977-.044.1953-.0661.293.4135-.0212.827-.0425 1.2405-.0637-.003-.0628-.0061-.1257-.0091-.1885-.3884-.0137-.7768-.0273-1.1653-.0408z" fill="#b45515"/><path d="m422.9514 366.6357c.7085-9.103-1.8989-17.5528-5.2723-25.8003-3.2757-8.0085-7.2468-15.7072-12.5836-22.5302-2.4954-3.1903-5.8291-5.7371-8.8545-8.4971-3.0107-2.7465-6.1112-5.3946-9.1724-8.0858-.398-.9818-.5721-2.1569-1.2279-2.916-8.3416-9.6564-19.2147-15.6127-30.5899-20.8575-14.4525-6.6637-29.4076-11.3231-45.5031-10.7434-5.0508.1819-10.077 1.4374-15.0752 2.4044-1.1964.2315-2.2358 1.2747-3.3474 1.9445 1.6745.1865 2.9294-.2069 4.2067-.303 10.9731-.8259 21.9821-1.0912 32.6937 1.7518 7.5995 2.017 14.9719 4.8899 22.4457 7.3808-.7704.1541-1.5479.4711-2.3101.4377-11.5809-.5081-22.7722 1.3528-33.4781 5.7574-3.4741 1.4293-6.8569 3.2238-10.0002 5.2809-5.1618 3.3783-6.9626 8.531-6.6677 14.5325-4.8297 1.5831-9.6594 3.1662-14.6094 4.7886-.5918-2.2861-1.09-5.0574-2.0267-7.6716-2.8874-8.0581-5.8628-16.0876-8.9968-24.0522-.6538-1.6616-.5713-2.6552.6396-3.9032 8.3391-8.5943 18.5844-13.157 30.3555-14.6059 22.1726-2.7291 42.8777 1.9858 62.0995 12.9494 22.3508 12.7483 40.9105 29.6941 54.593 51.6717 5.33 8.5613 9.0041 17.8032 10.318 27.8503.8043 6.1473-2.1205 10.9619-7.6364 13.2162z" fill="#e4ccaf"/><path d="m183.7178 274.0905c1.7916 4.7226 4.0466 9.203 4.4946 14.4623.4331 5.0842-.265 9.5543-3.6203 13.3633-2.9892 3.3934-6.1877 6.6078-9.3778 9.8176-4.5267 4.5547-8.8636 9.3548-13.7902 13.4362-3.5846 2.9696-6.2426 6.1057-7.9584 10.5007-1.4204 3.6383-7.1931 4.8792-11.457 3.2761-1.1112-1.5857-2.1089-3.2671-3.3533-4.7403-5.1407-6.086-11.2007-11.1783-18.328-14.6607-5.8651-2.8656-12.1211-4.9378-18.2319-7.2888-1.4354-.5523-2.5789-1.114-2.1702-2.934 15.1676.8391 29.884-1.3217 43.9934-6.9844 3.6363-1.4594 7.1423-3.3991 10.4145-5.5623 2.7512-1.8188 4.6004-4.5477 4.8876-8.5068-2.106.734-3.8493 1.3416-5.5926 1.9491-.6588-1.7333-1.2652-3.4888-1.9855-5.1962-3.188-7.5569-6.3878-15.1092-9.6475-22.6353-.3571-.8246-1.1266-1.4704-1.7049-2.1992-.0077-.2041-.0155-.4082-.0232-.6124 1.3388-1.1289 2.6776-2.2579 4.0163-3.3868 2.1784 4.8467 3.7383 10.1177 6.6962 14.4297 3.4812 5.0748 8.1745 9.3181 12.3421 13.9219-.4723 1.2959-1.1794 2.5658-1.3264 3.8976-.0846.7665.7371 1.6331 1.1509 2.4547.7635-.4887 1.7643-.8172 2.23-1.507.5723-.8476.6979-1.9968 1.0166-3.0157 3.0792.2762 6.1544.655 9.2396.7717 1.0511.0398 2.1901-.4587 3.16-.9605.3732-.1931.7156-1.3844.5134-1.6022-1.5744-1.6958-3.2851-3.2651-4.9537-4.8734-2.0769-2.9695-4.2154-5.8985-6.2014-8.9276-.8364-1.2757-1.3506-2.7625-2.0112-4.1534 3.5217 1.3857 7.0675 2.7138 10.5566 4.177 2.3816.9986 4.6839 2.186 7.0217 3.2891z" fill="#efdecb"/><path d="m330.8091 421.3453c-18.4223-1.4232-34.187-5.2269-48.4167-13.968-3.3993-2.0882-6.3239-4.9742-9.3371-7.6399-.4704-.4162-.6293-1.854-.2823-2.4235 4.7115-7.7353 8.2409-15.9623 10.4638-24.7329.4036-1.5924 1.2704-1.7987 2.6525-1.8018 12.4888-.0277 23.3444 4.6371 33.2305 11.7939 11.7293 8.4912 20.707 19.2891 26.4206 32.6906 1.4028 3.2904.8299 4.5787-2.6153 4.9662-4.6586.5239-9.3378.8656-12.116 1.1154z" fill="#efdecb"/><path d="m261.7429 142.9124c-3.1042.293-6.2084.5861-9.313.8784-1.1514-.0388-2.3123-.1929-3.452-.0962-7.7839.6602-15.5498.8725-23.2023-.5316 3.796-.5842 7.6663-1.0369 11.4771-1.7906 17.8592-3.5322 35.3419-8.4686 52.3903-14.8249 6.3006-2.3491 12.3035-5.5002 18.4258-8.3211 1.2876-.5932 2.135-1.3086 1.1846-3.0247-6.2419-11.2707-14.5942-20.7152-25.0164-28.1917-10.3377-7.4159-21.3607-13.7507-33.7168-17.17-7.2419-2.004-14.6375-3.9868-22.0797-4.621-15.0766-1.2848-30.2207-.8754-45.2914.7493-8.4689.913-16.9235 1.9663-25.3746 3.035-4.795.6064-9.5699 1.3715-14.3539 2.0652.6185-.6534 1.183-1.3707 1.8659-1.9479 1.7417-1.4718 3.5362-2.8811 5.3095-4.3154 6.345-1.3774 12.6542-2.9563 19.0419-4.0943 18.8235-3.3535 37.7867-4.6917 56.8779-3.074 17.1463 1.4529 34.0998 3.9313 49.7944 11.5825 16.0697 7.8341 29.0951 18.9588 36.8993 35.4064 2.5505 5.3753 4.2951 11.0449 4.5551 17.0703-.5515.1465-1.1315.2261-1.6494.4496-7.0972 3.0625-14.0821 6.4191-21.3033 9.152-8.7495 3.3113-17.7026 6.0831-26.5547 9.1259-2.197.7554-4.3443 1.6554-6.5143 2.4888z" fill="#f1dac7"/><path d="m488.6688 305.0011c-.6451-2.4563-1.2901-4.9127-1.9359-7.3687-2.0097-6.594-3.6406-13.3342-6.1147-19.7492-3.8791-10.058-8.086-20.0074-12.5916-29.8017-6.6528-14.462-14.824-28.0579-24.7469-40.5466-11.0602-13.92-24.4907-24.9933-40.2466-33.2345-12.3383-6.4536-25.5204-10.5075-39.1017-13.1996-10.7541-2.1317-21.7057-2.5979-32.6581-2.7283-2.3378-.0278-4.675-.1093-7.0125-.1661 4.7139-.5604 9.4141-1.4096 14.144-1.6339 28.6346-1.3579 55.3971 5.3801 80.5461 18.9399 30.349 16.3636 50.0026 41.7562 62.1269 73.5134 5.7148 14.9688 10.7208 30.1618 12.4164 46.1759.7697 7.2697.6497 14.6335.9333 21.9545-.5862-1.1057-1.2226-2.1881-1.7491-3.3215-1.3625-2.9324-2.6764-5.8875-4.0096-8.8336z" fill="#f1dac7"/><path d="m120.9959 259.4866c-12.8249 3.1443-25.3508 2.2078-37.4988-2.9539-3.1524-1.3395-5.6345-3.5987-7.5341-6.5639-1.4817-2.3128-1.9651-4.6458-.5492-6.9276 1.8892-3.0444 3.6329-6.4718 6.3077-8.6852 11.4419-9.4682 24.8469-13.2021 39.6028-12.3029.3439.2816.6488.6436 1.0378.8322 3.4447 1.6695 7.1912 2.8938 10.2984 5.0445 5.9957 4.15 6.7691 9.8287 2.3194 15.7862-2.4928 3.3375-5.5641 6.2413-8.3534 9.3596-1.896 2.1198-3.755 4.2728-5.6306 6.411z" fill="#efdecb"/><path d="m343.326 320.6037c8.9718 4.881 16.8996 11.0807 23.671 18.7409-1.5707 1.959-3.1645 3.9001-4.7075 5.8807-3.9738 5.1006-7.9813 10.1765-11.8688 15.3425-3.4947 4.6439-6.8501 9.3925-10.2623 14.0984-2.3463 3.2357-4.6846 6.4773-7.0265 9.7162-2.5811-2.2049-5.1622-4.4099-7.7432-6.6148 3.0438-4.1754 6.2341-8.2529 9.1024-12.5455 7.1656-10.7242 14.1886-21.5438 21.2498-32.3375.2658-.4063.3333-.9423.6251-1.8098-.7248.3133-1.0301.4002-1.287.5631-4.8829 3.0964-7.9361 7.8315-10.8499 12.5792-5.465 8.9044-10.6361 17.9887-16.0426 26.9298-1.2088 1.9992-2.8849 3.7158-4.3459 5.5625-2.6975-1.7064-5.3951-3.4129-8.0917-5.1196 1.1826-1.916 2.4441-3.7876 3.5333-5.7545 6.9331-12.5192 13.8644-25.0397 20.7046-37.6096 1.3209-2.4276 2.2366-5.0757 3.3392-7.622z" fill="#efdecb"/><path d="m99.9253 309.3229c-.4086 1.82.7349 2.3817 2.1702 2.934 6.1108 2.351 12.3668 4.4232 18.2319 7.2888 7.1274 3.4824 13.1873 8.5747 18.328 14.6607 1.2444 1.4731 2.2422 3.1546 3.3533 4.7403-3.9004-1.2491-8.0603-1.9962-11.6474-3.8511-7.5843-3.9218-15.5022-6.5616-23.9381-7.4066-2.698-.2703-5.562.5013-8.2751 1.1235-5.7258 1.313-11.1242.4278-16.3941-1.9042-1.5064-.6666-2.9946-1.4196-4.5636-1.8924-10.6016-3.1946-15.9133-20.5399-6.4272-29.5623 3.8893-3.6992 4.1954-4.9387 4.3085-9.9986 2.5423-.7615 2.8983-.5044 2.9068 2.0444.0047 1.4008.1207 2.8048.0575 4.2016-.2984 6.5958 3.3425 10.8522 8.7926 13.4016 4.1218 1.9278 8.7139 2.8503 13.0967 4.2203z" fill="#e4ccaf"/><path d="m163.7079 223.1212c-5.3451.8752-10.687 1.7711-16.0409 2.5887-.4606.0703-1.1402-.245-1.4827-.605-5.7599-6.0562-13.1102-8.5979-21.2276-10.0343 2.0757-.4032 4.1462-.8361 6.2282-1.2034 4.6219-.8153 9.2627-1.5305 13.8682-2.4282 1.7223-.3357 2.9301-.035 4.0982 1.3429 1.5242 1.7979 3.2965 3.3802 6.4583 2.6547-1.6813-1.3981-3.3625-2.7961-5.0438-4.1942.1514-.2655.3028-.5309.4543-.7964 3.7614-.6851 7.5139-1.431 11.295-1.9814.4949-.0721 1.1964.8025 1.6961 1.3378.9445 1.0118 1.8118 2.0957 2.7112 3.1496.3087-.1831.6174-.3662.9261-.5492-.5267-1.5309-1.0534-3.0618-1.6183-4.7036 4.713-.8509 9.3961-1.7496 14.1047-2.4853.6551-.1023 1.5053.5013 2.1369.9563.5488.3953.9161 1.0426 1.937 1.4053-.0138-.9798-.0276-1.9596-.0421-2.9855 10.4886-2.1734 21.0205-4.3557 31.5397-6.5354.4935 1.5156.9553 2.9337 1.4171 4.3519.3591-.0132.7182-.0264 1.0772-.0396.1815-1.5443.363-3.0886.591-5.0288 3.9471-.8185 8.2601-1.7762 12.5991-2.5973 5.8989-1.1163 11.8175-2.1284 17.7277-3.1852l.1644.1744c-.9406 1.2721-1.8811 2.5442-2.8217 3.8163-1.7964.7574-3.5759 1.5583-5.392 2.265-10.4229 4.0556-20.785 8.2813-31.3004 12.0819-13.7738 4.9783-27.8664 8.9221-42.1942 12.0021-1.3159.2828-2.579.8114-3.8667 1.2259z" fill="#e4ccaf"/><path d="m276.7066 325.9026c-.6535.4494-1.3069.8989-2.066 1.421-1.6546-4.8199-3.2412-9.4645-4.846-14.1028-.4836-1.3978-.9661-2.7998-1.5374-4.1628-3.9394-9.3978-7.3533-19.0665-11.9814-28.1135-7.6327-14.9207-18.8365-26.7262-34.0098-34.2787-5.9736-2.9733-12.4464-4.3778-19.1391-5.209-8.9806-1.1154-17.8583-.105-26.78.183-3.1543.1019-5.9601-.518-8.269-3.045-.6565-.7186-2.4106-.6637-3.6376-.5862-3.0185.1907-6.0232.6006-9.0334.9224-1.3182-2.549-2.6364-5.0981-4.2384-8.196 7.7435-.2729 15.2387-.5371 22.7339-.8013.0367.1385.0733.2769.11.4154-3.04 1.9034-6.0801 3.8067-9.1201 5.71.0942.2005.1885.4009.2827.6013 3.8431-.5503 7.6728-1.4299 11.5318-1.5866 9.8482-.3999 19.7089-2.0491 29.5645.0249 22.5486 4.745 39.5352 17.394 51.7886 36.6278 10.3554 16.2545 16.1356 34.1649 18.6634 53.1906.0428.322-.0091.6566-.0167.9855z" fill="#f0d9c5"/><path d="m163.7079 223.1212c1.2877-.4145 2.5508-.9431 3.8668-1.226 14.3279-3.0799 28.4204-7.0237 42.1942-12.0021 10.5154-3.8007 20.8775-8.0263 31.3004-12.0819 1.8161-.7067 3.5956-1.5076 5.392-2.265-5.1068 6.9985-9.5828 14.34-13.0912 22.3056-.6798 1.5433-3.1564 2.2952-4.8044 3.412-.8057-.3963-1.6013-.8144-2.4184-1.1847-3.6297-1.6449-7.0611-3.8935-11.4369-2.05-2.1107.8892-2.4262 1.7973-1.4509 3.6936.801 1.5574 1.3612 3.2388 2.0281 4.8652-2.6005.0706-5.2008.1635-7.8018.1944-.5636.0067-1.1249-.2572-1.6955-.3153-13.8435-1.4083-27.5178-5.0221-41.6106-3.211-.1491.0192-.3142-.0871-.4718-.1348z" fill="#efdecb"/><path d="m300.9256 324.7362c1.5895-4.8384 3.179-9.6768 4.7785-14.5455 2.6374.0922 5.3169.1859 8.1867.2863-1.8639 3.5777-3.6093 6.9282-5.3548 10.2787.2152.1595.4304.3189.6455.4784.5617-.6568 1.22-1.2542 1.6673-1.9814 1.4239-2.3151 2.6816-4.7377 4.2012-6.9852.4247-.6282 1.6192-1.2334 2.3114-1.0963 2.818.5583 5.5782 1.4089 8.3596 2.1517-.2158.6967-.3759 1.4167-.6556 2.0868-5.2788 12.6443-10.7193 25.2242-15.7806 37.9548-1.7393 4.3748-2.5388 9.1233-3.7676 13.701-2.8081-.7119-5.6161-1.4238-8.4242-2.1357.032-.2159.0638-.4318.0957-.6476.2-.6435.4001-1.287.6001-1.9305.6471-.7829 1.5187-1.469 1.9045-2.3644 2.4285-5.6359 3.1609-11.6523 3.6794-17.6924.1006-1.1727-.2073-2.3804-.3267-3.5719.058-1.4818.116-2.9636.174-4.4453.3369-.5197.8344-.998.9807-1.5667.4461-1.7341.7668-3.5011 1.1177-5.2589.4475-2.2412.9337-4.4768 1.2975-6.7319.3502-2.1707.5656-4.363.8403-6.5457-.3133-.0619-.6266-.1238-.9398-.1857-1.3066 5.2636-2.6132 10.5272-4.0077 16.1447-.5997-2.0456-1.0914-3.7215-1.5831-5.3973z" fill="#efdecb"/><path d="m368.8678 341.5054c2.9517 4.7375 5.9034 9.4749 8.8551 14.2125-.4764.1432-.9528.2863-1.4293.4295-.1843.174-.3685.3481-.5528.5222-.326.3051-.6521.6102-.9782.9154-.8572.3861-1.8931.5818-2.5412 1.1906-3.0536 2.8675-6.146 5.7165-8.9584 8.8138-7.7487 8.5336-14.2263 18.0129-20.2198 27.8335-2.6971-3.0835-5.3941-6.167-8.0911-9.2507.1417-.3835.1993-.8314.4372-1.1406 3.6487-4.7417 7.3289-9.4593 10.9857-14.1948 6.1634-7.9814 12.3199-15.9681 18.4687-23.9607 1.364-1.773 2.6839-3.5796 4.0241-5.3707z" fill="#efdecb"/><path d="m328.6609 314.3153c4.8874 2.103 9.7747 4.206 14.6616 6.3103-.5575.4472-1.2592.7928-1.6486 1.3548-2.9799 4.3008-6.1759 8.4844-8.7779 13.0074-5.0012 8.6935-9.7185 17.5532-14.4181 26.4157-1.6015 3.0202-2.7961 6.2563-4.1765 9.3937-2.5999-1.1025-5.1999-2.2051-7.7998-3.3076.0396-.3254.0077-.6804.129-.9717 4.7457-11.3996 9.4825-22.8031 14.2724-34.1841 2.5366-6.0269 5.1689-12.0136 7.7579-18.0185z" fill="#efdecb"/><path d="m374.7627 357.5849c.3261-.3051.6521-.6103.9782-.9159.1843-.1742.3686-.3479.5527-.5216.4764-.1432.9529-.2864 1.4293-.4295.1511.1913.3409.3633.4475.5769 2.5501 5.1071 2.4749 5.0397-1.383 9.2132-10.711 11.5872-19.1884 24.6782-25.9242 38.9213-.2788.5894-.5604 1.1776-.9989 2.0988-2.0435-3.4238-3.9616-6.6376-5.8797-9.8514 2.136-2.7672 4.2952-5.5168 6.404-8.3045 7.8987-10.4417 15.0192-21.4986 24.3741-30.7873z" fill="#f5ece3"/><path d="m174.3522 279.7053c1.6686 1.6084 3.3793 3.1776 4.9537 4.8734.2022.2178-.1402 1.4091-.5134 1.6022-.9699.5018-2.1089 1.0003-3.16.9605-3.0852-.1166-6.1605-.4955-9.2396-.7716-.3042-.9579-.6084-1.9157-.9551-3.0073-.9711.5405-1.5435.8591-2.116 1.1776-4.1677-4.6039-8.861-8.8471-12.3421-13.9219-2.9579-4.312-4.5177-9.5829-6.6962-14.4297 2.1831-2.632 4.3662-5.2641 6.7092-8.0888.5033 1.711 1.0113 3.3773 1.4837 5.0536 2.8049 9.9521 7.2312 18.8548 16.108 24.8677 1.0157.688 2.0401 1.452 3.1767 1.8416.7568.2595 1.7202-.0838 2.5911-.1573z" fill="#f5ece3"/><path d="m98.78 267.8045c4.3241.2762 8.6481.5523 12.9722.8285-.0099.4925-.1189 1.0071-.0151 1.4744 2.3487 10.5735 3.0361 21.5012 6.7648 31.78-2.9752.2661-5.9504.532-8.9256.7981-2.0262-6.5569-4.0505-13.1144-6.0794-19.6705-1.5693-5.0711-3.1444-10.1404-4.7169-15.2105z" fill="#efdecb"/><path d="m300.9256 324.7362c.4917 1.6758.9833 3.3517 1.5834 5.3969 1.3944-5.6175 2.701-10.8811 4.0077-16.1447.3133.0619.6266.1238.9398.1857-.2747 2.1828-.4901 4.3751-.8403 6.5457-.3638 2.2551-.8501 4.4908-1.2975 6.7319-.351 1.7579-.6716 3.5248-1.1177 5.2589-.1463.5687-.6438 1.047-.981 1.5666-.2445-.6641-.4887-1.3281-.8108-2.2036-.2793.8629-.5478 1.4712-.6713 2.1076-1.4013 7.2232-2.8874 14.4326-4.1109 21.6862-.4641 2.7512-.3102 5.6067-.438 8.4146-.0319.2159-.0638.4317-.0958.6476-1.6131-.1783-3.2262-.3566-4.8393-.5349.5014-5.1963 1.0972-10.3856 1.4808-15.5906.4992-6.7738.9171-13.5567 1.1784-20.343.0756-1.9629-.507-3.9511-.7878-5.9278 1.2086-2.7758 2.4172-5.5516 3.626-8.3274.3721.6782.8101 1.3293 1.1021 2.0403.615 1.497 1.1534 3.0255 1.7233 4.5411-.4684 1.7417-.9367 3.4834-1.6062 5.9727.9764-1.0107 1.4658-1.5173 1.9551-2.0238z" fill="#e4ccaf"/><path d="m107.6133 302.7646c-3.3341-.2567-6.6682-.5134-10.0019-.7708-.1155-1.0441-.0941-2.1258-.3716-3.1244-1.1186-4.0252-2.3295-8.0248-3.5063-12.0339-.7291-2.524-1.4212-5.0595-2.1954-7.5697-1.4494-4.6993-2.9465-9.3839-4.4238-14.0746 2.9487.756 5.8974 1.5121 8.8461 2.2682.686 2.4292 1.2706 4.8926 2.0761 7.2814 3.1544 9.3541 6.3786 18.6846 9.5768 28.0238z" fill="#efdecb"/><path d="m87.1143 265.1912c1.4773 4.6907 2.9743 9.3753 4.4238 14.0746.7742 2.5102 1.4663 5.0456 2.1959 7.5695-.48-.6925-1.0462-1.3415-1.4226-2.0864-.7261-1.4368-1.345-2.9279-2.0084-4.3964-.1915.0871-.383.1743-.5745.2614.591 2.5342 1.1635 5.073 1.7772 7.6017 1.0633 4.3813 2.152 8.7563 3.2301 13.134-2.703-1.3284-5.4954-2.5051-8.0821-4.0305-2.2947-1.3532-2.943-3.9383-2.728-6.2879.5099-5.5722-1.1963-10.7325-2.4914-15.9521-1.2012-4.841-2.8628-9.5678-4.5274-15.0187 1.4222.9328 2.3781 1.5598 3.3336 2.1885.1137.3838.1476.8172.3546 1.1396 1.936 3.0156 3.9137 6.0044 5.8497 9.02.4458.6944.7779 1.4619 1.1623 2.1958.1601-.0765.3202-.153.4803-.2295-.8174-3.2235-1.6348-6.4469-2.4522-9.6704.4931.1624.9861.3246 1.4791.4868z" fill="#e4ccaf"/><path d="m120.9959 259.4866c1.8756-2.1382 3.7346-4.2912 5.6307-6.411 2.7892-3.1183 5.8605-6.0221 8.3534-9.3596 4.4497-5.9575 3.6762-11.6362-2.3194-15.7862-3.1072-2.1507-6.8537-3.375-10.2984-5.0445-.389-.1885-.6939-.5506-1.0378-.8322 9.579.381 17.7144 3.665 23.2686 11.8599.6775.9995 1.0095 2.5744.8147 3.7708-1.8411 11.305-10.0353 16.623-19.6778 20.4693-1.5144.6039-3.1529.8968-4.734 1.3335z" fill="#f5ece3"/><path d="m140.2671 259.5753c.0077.2041.0155.4082.0232.6125.4213 2.6465.4417 5.4382 1.3382 7.9124 2.841 7.84 6.0093 15.5614 9.0511 23.3287-1.6636.912-3.3271 1.824-4.9907 2.736-.8412-.8815-1.7896-1.6839-2.5067-2.6568-6.0079-8.1508-8.9704-17.5978-11.49-27.2273z" fill="#efdecb"/><path d="m141.5505 295.9826c-3.8432 1.2559-7.6863 2.5117-11.5294 3.7674-.2099-1.7823-.3242-3.5819-.646-5.3437-1.6879-9.243-3.4283-18.4765-5.1505-27.7133 1.7544-.5242 3.5089-1.0483 5.2635-1.5722.3794.8582.9704 1.6844 1.105 2.5792 1.2924 8.5862 3.8579 16.7036 8.5416 24.0845.8643 1.3619 1.6135 2.7968 2.4158 4.1981z" fill="#efdecb"/><path d="m113.6698 268.4575c2.8349-.4167 5.6698-.8334 8.5047-1.25.612 4.4445 1.1347 8.9035 1.8572 13.3299 1.0774 6.6011 2.2957 13.1792 3.454 19.767-2.4901.431-4.9801.8619-7.4701 1.2928-.0259-1.4708.1818-2.9908-.1155-4.4045-2.0172-9.591-4.141-19.1595-6.2303-28.7352z" fill="#efdecb"/><path d="m289.7329 364.3109c-1.3881.0652-2.7761.1303-4.5133.2118.2715-2.0843.5086-4.0005.7722-5.9131 1.8271-13.2584 1.0843-26.4498-1.0141-39.6076-.5968-3.7423-.5881-3.7437 3.3837-4.9766-.1382 3.9513-.2758 7.8876-.4135 11.8239.3492.0333.6985.0666 1.0477.0999.414-3.6703.8124-7.3425 1.2517-11.0098.1289-1.0762-.1304-2.4706 1.6371-2.5014.1969.8323.6017 1.6761.5552 2.4945-.2269 4.0034-.6548 7.9956-.8638 11.9996-.6502 12.4577-1.2335 24.9189-1.8429 37.3788z" fill="#e4ccaf"/><path d="m261.7429 142.9124c2.1701-.8334 4.3174-1.7333 6.5143-2.4885 8.8521-3.0428 17.8052-5.8146 26.5547-9.1259 7.2212-2.7329 14.2061-6.0895 21.3033-9.152.5179-.2235 1.098-.3031 1.6494-.4496.0591 1.67.1179 3.34.1765 5.0099-1.0989.2775-2.3414 1.0248-3.2685.7411-2.3986-.7338-3.7609.6689-5.2957 1.9154-9.4983 3.6911-18.9922 7.3933-28.5012 11.0567-.9868.3802-2.0627.5295-3.097.7866-4.6965.5692-9.3923 1.1466-14.0913 1.696-.6398.0749-1.296.0103-1.9445.0103z" fill="#e6c588"/><path d="m368.8678 341.5054c-1.3402 1.7911-2.6601 3.5977-4.024 5.3706-6.1488 7.9926-12.3054 15.9793-18.4687 23.9607-3.6569 4.7355-7.3371 9.453-10.9857 14.1948-.2379.3092-.2955.757-.4372 1.1406-.6069-.5964-1.2136-1.193-1.8203-1.7896 2.3419-3.239 4.6802-6.4805 7.0265-9.7162 3.4122-4.7058 6.7676-9.4545 10.2623-14.0984 3.8875-5.166 7.895-10.2419 11.8688-15.3425 1.543-1.9806 3.1368-3.9217 4.7075-5.8807.6236.7202 1.2472 1.4405 1.8708 2.1607z" fill="#e6ceb2"/><path d="m314.3014 370.7973c1.3805-3.1374 2.575-6.3734 4.1765-9.3937 4.6996-8.8625 9.417-17.7222 14.4181-26.4157 2.6021-4.523 5.798-8.7067 8.7779-13.0074.3894-.562 1.0911-.9076 1.6486-1.3548.0005-.0013.0028-.0196.0031-.0208-1.1023 2.5451-2.0179 5.1932-3.3389 7.6207-6.8402 12.57-13.7715 25.0905-20.7046 37.6096-1.0893 1.9669-2.3507 3.8386-3.5333 5.7545-.4831-.2639-.9653-.5281-1.4474-.7924z" fill="#e6ceb2"/><path d="m403.8858 352.5337c3.0184 1.5686 6.1239 2.9949 9.019 4.7651 1.4792.9043 1.0621 1.949-.6185 2.5373-4.1475 1.4518-8.2413 3.0581-12.3958 4.4888-2.9351 1.0108-5.9903 1.6898-8.882 2.8025-1.564.6018-2.8976 1.8024-4.3351 2.7328-.3275-.0164-.655-.0328-.9825-.0492.0013-.3355.0026-.6711.0039-1.0067 2.0885-1.8516 4.1849-3.6945 6.264-5.5567 3.9809-3.5655 7.9519-7.142 11.927-10.7139z" fill="#f5ece3"/><path d="m328.6609 314.3153c-2.5891 6.0049-5.2213 11.9915-7.7579 18.0185-4.7899 11.381-9.5267 22.7845-14.2724 34.1841-.1213.2914-.0894.6464-.129.9717-.3281-.1414-.6562-.2829-.9843-.4243 1.2289-4.5778 2.0283-9.3262 3.7676-13.701 5.0613-12.7306 10.5018-25.3105 15.7806-37.9548.2797-.67.4398-1.39.6556-2.0868.9799.3309 1.9599.6618 2.9398.9926z" fill="#e6ceb2"/><path d="m289.7329 364.3109c.6093-12.4599 1.1927-24.9211 1.8429-37.3788.209-4.0039.6369-7.9962.8638-11.9996.0464-.8183-.3583-1.6622-.5552-2.4945 1.1324-.4334 2.265-.8666 3.7875-1.449-1.1359 4.3395-2.1759 8.3129-3.2159 12.2863.1667.087.3333.174.5.2611.3898-.3344.7796-.6687 1.1694-1.0031.2807 1.9766.8633 3.9648.7877 5.9278-.2613 6.7863-.6793 13.5692-1.1784 20.343-.3836 5.205-.9794 10.3943-1.4808 15.5906-.8404-.0279-1.6807-.0558-2.521-.0838z" fill="#dcbb97"/><path d="m323.8405 376.7094c1.461-1.8467 3.1371-3.5634 4.3459-5.5625 5.4065-8.9411 10.5776-18.0254 16.0426-26.9298 2.9138-4.7476 5.967-9.4827 10.8499-12.5792.257-.1629.5623-.2498 1.287-.5631-.2917.8676-.3593 1.4036-.6251 1.8098-7.0612 10.7937-14.0841 21.6133-21.2498 32.3375-2.8683 4.2926-6.0586 8.3701-9.1024 12.5455-.516-.3527-1.0321-.7055-1.5481-1.0582z" fill="#e6ceb2"/><path d="m150.596 64.8054c-1.7733 1.4343-3.5679 2.8436-5.3095 4.3154-.6829.5771-1.2475 1.2944-1.8656 1.9474-.4838.291-.9679.5823-1.452.8737-5.8683 1.1085-11.7431 2.1837-17.6029 3.3357-4.8135.9463-9.6091 1.9837-14.4126 2.9808 4.0307-1.7375 7.9593-3.7864 12.1133-5.1479 8.8027-2.8852 17.7209-5.4186 26.5992-8.0715.612-.1828 1.2853-.1605 1.9301-.2336z" fill="#e6c588"/><path d="m488.6688 305.0011c1.3333 2.9461 2.6472 5.9012 4.0096 8.8338.5265 1.1334 1.1628 2.2158 1.7491 3.3215-.4978 9.822-1.3378 19.5743-5.8086 28.5888.5369-6.1874 1.5045-12.3754 1.496-18.562-.0096-6.9109-.9065-13.8205-1.4118-20.7311-.0354-.4819-.0241-.9672-.0343-1.451z" fill="#e6c588"/><g fill="#e6ceb2"><path d="m374.7627 357.5849c-9.3549 9.2886-16.4754 20.3456-24.3741 30.7872-2.1088 2.7877-4.2679 5.5373-6.404 8.3045-.3138-.4181-.6275-.8362-.9413-1.2541 5.9935-9.8203 12.471-19.2997 20.2198-27.8333 2.8124-3.0972 5.9048-5.9463 8.9584-8.8138.6481-.6086 1.684-.8044 2.5412-1.1905z"/><path d="m150.6796 291.4289c-3.0418-7.7673-6.2101-15.4887-9.0511-23.3287-.8966-2.4742-.9169-5.2659-1.3382-7.9124.5782.7287 1.3478 1.3745 1.7049 2.1991 3.2597 7.5261 6.4595 15.0783 9.6475 22.6353.7203 1.7074 1.3267 3.4629 1.9855 5.1962-.9829.4035-1.9657.807-2.9486 1.2105z"/><path d="m141.5505 295.9826c-.8023-1.4012-1.5515-2.8362-2.4157-4.1981-4.6837-7.3809-7.2492-15.4984-8.5416-24.0845-.1347-.8948-.7256-1.7209-1.105-2.5792.7346-.2802 1.4694-.5601 2.2042-.84 2.5196 9.6295 5.4821 19.0764 11.49 27.2273.7171.9729 1.6655 1.7753 2.5067 2.6568-1.3797.6059-2.7592 1.2118-4.1386 1.8177z"/><path d="m107.6133 302.7646c-3.1982-9.3392-6.4224-18.6697-9.5768-28.0238-.8056-2.3888-1.3901-4.8522-2.0761-7.2814.94.1152 1.8799.2305 2.8197.3454 1.5724 5.0697 3.1475 10.139 4.7168 15.2101 2.0289 6.5561 4.0531 13.1136 6.0794 19.6705-.6543.0265-1.3087.0529-1.963.0792z"/><path d="m113.6698 268.4575c2.0893 9.5758 4.2131 19.1443 6.2302 28.7352.2974 1.4138.0896 2.9337.1155 4.4045-.5046.0967-1.0091.1935-1.5137.2902-3.7286-10.2789-4.4161-21.2065-6.7647-31.78-.1038-.4673.0052-.9818.0151-1.4744.6392-.0585 1.2784-.117 1.9176-.1755z"/><path d="m127.4856 300.3044c-1.1583-6.5879-2.3766-13.166-3.454-19.767-.7224-4.4264-1.2451-8.8853-1.8572-13.3299.6834-.1717 1.3667-.3431 2.0501-.5145 1.7222 9.2368 3.4626 18.4703 5.1505 27.7133.3217 1.7617.436 3.5614.646 5.3437-.8452.1849-1.6903.3696-2.5354.5544z"/></g><path d="m215.2876 226.5879c-.6669-1.6264-1.2271-3.3078-2.0281-4.8652-.9753-1.8963-.6598-2.8044 1.4509-3.6936 4.3758-1.8435 7.8072.4051 11.4369 2.05.8171.3703 1.6127.7885 2.4184 1.1847-4.4259 1.7748-8.852 3.5494-13.2781 5.3241z" fill="#e4ccaf"/><path d="m309.3768 129.3629c1.5348-1.2465 2.8971-2.6493 5.2957-1.9154.9271.2836 2.1696-.4636 3.2685-.7411.1961 7.6952-1.5245 15.0089-4.3979 22.0932-.4229-1.0559-1.2578-2.1359-1.1975-3.1635.2723-4.6421.8001-9.2692 1.2305-13.9022.0889-.9571.1551-1.9163.2576-3.1987-1.6701.3101-3.0635.5689-4.4569.8277z" fill="#d28c54"/><path d="m183.7178 274.0905c-2.3378-1.1031-4.6401-2.2905-7.0216-3.2892-3.4891-1.4633-7.0349-2.7914-10.5566-4.177-.8906-1.4332-1.7811-2.8664-2.6716-4.2996.1581-.2804.3161-.5608.4742-.8412 2.8789.9427 5.8396 1.6949 8.6113 2.8867 2.3171.9964 4.3387 2.6642 6.6267 3.7486 2.6219 1.2427 4.0547 3.1987 4.5376 5.9717z" fill="#f5ece3"/><path d="m380.9381 353.3471c3.2872-1.1204 6.5179-2.4886 9.8853-3.2582 1.7198-.393 3.6848.287 5.5391.4821-4.376 2.656-8.752 5.3119-13.2135 8.0197-.642-1.5223-1.4264-3.383-2.2109-5.2436z" fill="#f5ece3"/><path d="m94.7358 301.3497c-1.0781-4.3777-2.1668-8.7527-3.2301-13.134-.6137-2.5287-1.1861-5.0675-1.7772-7.6017.1915-.0872.383-.1743.5745-.2614.6634 1.4685 1.2823 2.9595 2.0084 4.3964.3764.7449.9426 1.3939 1.4226 2.0864 1.1763 4.0093 2.3872 8.0089 3.5058 12.0341.2775.9986.2561 2.0803.3716 3.1244-.9588-.2143-1.9172-.4292-2.8756-.6442z" fill="#dcbb97"/><path d="m300.5768 320.7873c-.5699-1.5156-1.1084-3.0441-1.7233-4.5411-.2921-.711-.7301-1.362-1.1021-2.0403.8472-4.153.8472-4.153 6.0397-3.9786-1.0924 3.5888-2.1534 7.0744-3.2143 10.56z" fill="#f0d9c5"/><path d="m230.4961 234.1368c-4.207-.4055-4.1177-4.1576-6.3169-6.3719 1.513-.6765 2.7288-1.22 4.2184-1.886.7217 2.8402 1.384 5.4461 2.0985 8.2579z" fill="#dcbb97"/><path d="m85.6352 264.7046c.8174 3.2234 1.6348 6.4469 2.4522 9.6704-.1601.0765-.3202.153-.4803.2295-.3844-.7339-.7165-1.5013-1.1623-2.1958-1.936-3.0156-3.9137-6.0044-5.8497-9.02-.207-.3224-.2409-.7559-.3546-1.1396 1.7985.8173 3.5966 1.6364 5.3947 2.4555z" fill="#f0d9c5"/><path d="m224.2641 231.7579c-2.303-.8279-4.0084-1.4409-6.1785-2.221 1.9279-.5322 3.3223-.9171 4.9496-1.3663.362 1.0564.6906 2.0159 1.2289 3.5873z" fill="#dcbb97"/><path d="m488.4398 346.6214c.0685-.3035.1369-.607.2053-.9107-.0685.3034-.1369.607-.2053.9107z" fill="#e6c588"/><path d="m385.6949 368.8043c-.0013.3355-.0026.6711-.0039 1.0067-.2092-.0619-.4184-.1238-.6276-.1856.2105-.2738.4209-.5474.6315-.8211z" fill="#efdecb"/><path d="m109.9842 78.2401c-.3093.0405-.6185.081-.9278.1216.3092-.0405.6185-.0811.9278-.1216z" fill="#e6c588"/><path d="m254.9256 198.2673c-.2212.1652-.4425.3304-.6642.4957.2211-.1652.4426-.3304.6642-.4957z" fill="#e3b185"/><path d="m249.1186 191.5555c.1527-.0253.3054-.0506.458-.0759-.0981.0832-.1963.1663-.294.2499.0004.0004-.164-.174-.164-.174z" fill="#e4ccaf"/><path d="m172.4544 403.5113c.1523.0204.3046.0407.4566.0615.5834 7.7466-.4838 15.3567-1.7487 22.9705-.8788 5.2894-4.8179 8.282-9.0838 6.3475-1.3781-.6249-2.9586-1.9523-3.4011-3.3013-2.5282-7.7079-4.741-15.5193-7.1333-23.5381 2.9352-.333 5.7394-.6512 8.5431-.9696 1.456 5.1762 2.9125 10.3527 4.3691 15.5292.1545-.0365.3091-.073.4636-.1094-.6702-5.2554-1.3403-10.5109-2.0105-15.7663 3.1817-.4081 6.3633-.816 9.545-1.224z" fill="#b45515"/><path d="m57.9287 346.1135c7.2476 2.8932 14.6362 5.2384 22.4909 5.8058-7.2018 1.0329-14.1559-.3083-21.0584-2.1638-10.9898-4.2509-17.8846-12.3064-21.4219-23.3458-2.1105-6.5866-2.8459-13.3217-.9086-20.2043.2713 1.9297.5471 3.8588.8125 5.7893.2798 2.0351.4901 4.0818.8342 6.1058 1.6014 9.4191 5.0027 17.9388 12.7172 24.0914 1.9685 1.5699 4.345 2.6282 6.5341 3.9216z" fill="#2d1b0e"/><path d="m162.9094 404.7352c.6702 5.2554 1.3403 10.5109 2.0105 15.7663-.1545.0365-.3091.0729-.4636.1094-1.4565-5.1765-2.9131-10.353-4.3691-15.5292-3.5191-14.6579-7.0388-29.316-10.5542-43.9566.2709.5198.6659 1.1341.9275 1.8008 5.182 13.209 9.0926 26.7956 12.051 40.6644.0836.3921.2631.7637.3979 1.1449z" fill="#2d1b0e"/><path d="m383.3228 227.5435c-10.1482-3.3588-20.2243-6.9599-30.4651-10.0075-10.0174-2.981-20.3142-4.6582-30.7524-5.6466-10.8275-1.0251-21.5027.2093-32.2089 1.2736-5.7776.5743-11.5367 1.3349-17.3567 1.6891 12.2586-3.9194 24.9998-5.2573 37.7339-5.9879 12.9644-.7439 25.7376 1.4355 38.3775 4.3941 12.6828 2.9687 24.5795 7.8668 36.0547 13.9106-.4608.1247-.9219.2497-1.383.3746z" fill="#2d1b0e"/><path d="m441.6264 272.213c-3.851-3.0647-7.7497-6.0718-11.5401-9.2097-3.9958-3.3081-7.9109-6.7153-11.8048-10.1434-.6976-.6142-1.1206-1.5403-1.6703-2.3225l.0052-.0054c1.5259.7527 3.1423 1.3651 4.5624 2.2817 7.1446 4.6116 13.708 9.9118 18.979 16.6583.6293.8054.9768 1.8308 1.455 2.7543z" fill="#2d1b0e"/><path d="m455.8507 297.4346c7.7092 14.1042 12.7338 29.1197 14.9386 45.0584-3.4565-15.5149-8.2602-30.5821-14.9386-45.0584z" fill="#2d1b0e"/><path d="m383.3228 227.5435c.4611-.1249.9221-.2499 1.383-.3746 2.4391 1.2274 4.8784 2.4546 7.3177 3.6818l.0155-.0144c-2.9054-1.0976-5.8108-2.1952-8.7162-3.2928z" fill="#672e06"/><path d="m416.6112 250.5374c-.205-.0697-.4099-.1395-.6149-.2092.0453-.0581.0907-.1162.136-.1743.1614.1261.3227.2521.4841.3781z" fill="#672e06"/><path d="m442.8367 273.1089.0588.2192-.1665-.0341z" fill="#672e06"/><path d="m392.0235 230.8507.1203.1186-.1047-.133z" fill="#672e06"/><path d="m441.6128 272.2264c.0857.0697.1714.1393.2571.209-.0522-.007-.126.0049-.1521-.0249-.0459-.0523-.0626-.1302-.0915-.1974.0001-.0001-.0135.0133-.0135.0133z" fill="#672e06"/><path d="m90.2062 350.5586c.9448-.2613 1.887-.7395 2.8347-.7505 10.2904-.1181 20.1982 2.0308 29.9588 5.0002-.03.2085-.0599.4169-.0899.6254-10.81-1.4819-21.62-2.9637-32.43-4.4455-.0911-.1433-.1824-.2864-.2736-.4296z" fill="#2d1b0e"/><path d="m211.4355 307.3439c1.1172-3.3371 2.4429-6.6227 3.2822-10.0283.6151-2.4958.5919-5.1489.8531-7.7319.1685.0053.337.0107.5054.016.171.5862.342 1.1723.6266 2.1477 1.3424-4.0245.9047-7.4639-.9673-10.6793-.4632-.7957-1.4876-1.2647-2.254-1.8839-.481-.7028-.962-1.4056-1.443-2.1085-4.0426-5.7939-10.1417-8.6291-16.287-11.4574-2.3078-1.0621-4.4876-2.4393-6.614-3.8422-.9541-.6295-1.6335-1.6752-2.4376-2.5321.0979-.2202.1958-.4404.2938-.6606.7529-.0455 1.577-.3152 2.2475-.1018 6.3979 2.0371 13.0684 3.5304 19.0786 6.3992 8.8324 4.2159 12.9259 12.3546 13.7186 21.7279 1.5541 18.3745-6.4221 32.7494-19.9708 44.4861-.183.1585-.4015.2949-.6268.3788-.1279.0477-.3033-.0322-.9874-.1318.8581-1.5288 1.7051-2.8657 2.3792-4.2846.7528-1.5846 1.3487-3.2437 2.0133-4.8698.2124-.2562.4244-.5131.6364-.7699.152-.2186.304-.4373.4559-.6559 1.0908-1.9207 2.403-3.7529 3.2154-5.785.982-2.4557 1.5404-5.0808 2.2819-7.6327z" fill="#f1dac7"/><path d="m205.4826 321.4176c-.212.2569-.4241.5137-.6365.7699-6.5854 7.5494-15.4806 10.5533-24.854 12.5938-.7557.1646-1.567.0732-2.4983-.4139 1.784-.7076 3.5636-1.4264 5.3529-2.1204 2.9129-1.1298 5.8531-2.192 8.7448-3.3733 9.1545-3.74 14.3502-11.2032 18.4549-19.6938.3275-.6775.9199-1.227 1.3893-1.836-.7416 2.5518-1.3 5.1769-2.2817 7.6328-.8124 2.0321-2.1246 3.8643-3.2152 5.7855-.1521.2188-.3042.4371-.4562.6554z" fill="#2d1b0e"/><path d="m214.8392 283.5768c-.4558-1.3333-.9117-2.6667-1.3676-3.9999-.0001.0001.0411-.0326.0411-.0326.4977 1.3058.9955 2.6115 1.4932 3.9173z" fill="#e4ccaf"/><path d="m212.0387 277.0757c.481.7028.962 1.4056 1.443 2.1085.0181.1194.0285.2394.031.3601 0 0-.0412.0327-.0411.0326-.4776-.8338-.9552-1.6675-1.4329-2.5012z" fill="#e4ccaf"/><path d="m216.0763 289.5997c-.1685-.0053-.3369-.0106-.5054-.016-.1004-1.3392-.2009-2.6784-.3014-4.0177l.1771-.1217c.2099 1.3852.4198 2.7703.6297 4.1554z" fill="#e4ccaf"/><path d="m215.2695 285.5661c-.1439-.6628-.2879-1.3256-.431-1.9888.0008-.0005.1675-.1157.1672-.1155.1468.6609.2939 1.3218.4409 1.9826z" fill="#e4ccaf"/><path d="m141.9689 71.942c.4841-.2914.9681-.5828 1.452-.8737 4.7837-.6932 9.5586-1.4584 14.3536-2.0648 8.4511-1.0687 16.9057-2.122 25.3746-3.035 15.0706-1.6247 30.2148-2.0341 45.2914-.7493 7.4422.6342 14.8378 2.617 22.0797 4.621 12.3562 3.4193 23.3791 9.7541 33.7168 17.17 10.4222 7.4765 18.7745 16.921 25.0164 28.1917.9503 1.716.1029 2.4314-1.1846 3.0247-6.1223 2.8209-12.1252 5.972-18.4258 8.3211-17.0484 6.3562-34.5311 11.2927-52.3903 14.8249-3.8108.7537-7.6811 1.2064-11.4771 1.7906 7.6525 1.4041 15.4184 1.1918 23.2023.5316 1.1396-.0967 2.3005.0574 3.452.0962-.5723.3828-1.1047 1.0081-1.7236 1.1105-10.5131 1.7396-21.012 3.5959-31.5661 5.0477-9.0038 1.2386-18.0554 2.297-27.1216 2.8486-5.1294.312-10.4279-.0473-15.4783-1.0081-9.0017-1.7125-18.0303-3.61-26.7582-6.3515-10.3491-3.2507-19.9855-8.1441-27.3355-16.563-3.975-4.5531-4.9608-9.97-3.927-15.6822.9308-5.143 1.9057-10.3738 3.7319-15.239 3.6807-9.8057 9.6342-18.1262 18.168-24.4314.5859-.4331 1.0361-1.0496 1.5494-1.5806zm70.0179 71.84c-.144-.3431-.288-.6862-.4321-1.0293-4.8109-2.0129-9.9317-2.1681-15.0668-2.2029-.5623-.0038-1.1368.1633-1.6871.3176-1.9114.536-2.2864 1.7482-1.3073 3.3643.4152.6854.9865 1.353 1.6415 1.804 4.0589 2.7947 8.3948 2.4351 12.6627.6999 1.5418-.6268 2.8009-1.9488 4.1891-2.9536z" fill="#e3b185"/><path d="m108.54 190.7841c-6.0851 1.1041-12.1702 2.2081-18.2553 3.3122-.0519-.3-.1038-.6001-.1557-.9001 3.6487-.5934 7.2975-1.1868 10.9462-1.7803 6.9368-1.7803 13.8294-3.762 20.8201-5.2966 12.69-2.7859 25.4554-5.2265 38.1571-7.9612 10.6174-2.2859 21.1446-5.0052 31.7897-7.1449 21.0468-4.2305 42.146-8.2008 63.2309-12.2396.9115-.1746 1.8975.0399 2.9755.6701-3.1113.8241-6.1859 1.843-9.3404 2.4383-13.3354 2.5163-26.7386 4.6904-40.0329 7.402-13.9507 2.8455-27.7647 6.3607-41.7139 9.2142-12.5694 2.5712-25.2762 4.4681-37.8535 7.0041-6.9292 1.397-13.7165 3.4981-20.5678 5.2818z" fill="#2d1b0e"/><path d="m302.1948 142.1629c-6.7563 6.6265-15.2363 9.2744-23.342 10.8115 7.3189-3.39 15.3305-7.1008 23.342-10.8115z" fill="#2d1b0e"/><path d="m350.6714 280.3839c-7.4738-2.4909-14.8462-5.3639-22.4457-7.3808-10.7116-2.843-21.7206-2.5777-32.6937-1.7518-1.2773.0961-2.5322.4895-4.2067.303 1.1116-.6698 2.151-1.713 3.3474-1.9445 4.9982-.9669 10.0244-2.2225 15.0752-2.4044 16.0955-.5797 31.0506 4.0797 45.5031 10.7434 11.3752 5.2448 22.2483 11.201 30.5899 20.8575.6557.7591.8299 1.9342 1.2279 2.916-5.611-3.8395-11.029-8.0098-16.8856-11.4286-6.2893-3.6713-12.9905-6.6365-19.5118-9.9098z" fill="#2d1b0e"/><path d="m403.6367 332.4604c-1.0956-1.5104-2.1789-2.5021-2.6308-3.7269-1.0787-2.9235-1.9465-5.9353-2.6956-8.9619-.1731-.6993.2637-1.8347.8152-2.3243.3464-.3077 1.6104-.0183 2.1501.4033 2.3263 1.8169 4.344 10.1324 3.2462 12.8971-.1455.3661-.3606.7047-.8851 1.7127z" fill="#2d1b0e"/><path d="m408.2857 334.7404c.5682 1.3634 1.3302 2.6888 1.6082 4.109.11.5614-.857 1.3337-1.3336 2.01-.6331-.5339-1.7282-1.0079-1.8065-1.6136-.1832-1.4156.1217-2.8945.2289-4.3477.4343-.0526.8687-.1052 1.303-.1577z" fill="#2d1b0e"/><path d="m87.3162 193.5469c.3884.0136.7769.0272 1.1653.0408.003.0628.0061.1257.0091.1885-.4135.0212-.827.0425-1.2405.0637.0221-.0977.0441-.1954.0661-.293z" fill="#672e06"/><path d="m163.3218 284.5402c.5724-.3186 1.1449-.6371 2.116-1.1776.3467 1.0916.6509 2.0494.9551 3.0073-.3187 1.0188-.4443 2.168-1.0166 3.0156-.4657.6898-1.4665 1.0183-2.23 1.507-.4138-.8216-1.2355-1.6882-1.1509-2.4547.147-1.3318.8541-2.6018 1.3264-3.8976z" fill="#672e06"/><path d="m297.1889 364.282c.1278-2.808-.0261-5.6634.438-8.4146 1.2236-7.2535 2.7096-14.463 4.1109-21.6862.1235-.6364.392-1.2447.6713-2.1076.3221.8755.5663 1.5395.8107 2.2036-.0577 1.4819-.1157 2.9637-.1737 4.4455-.2979 1.1611-.632 2.3143-.8877 3.4846-1.4668 6.7125-2.9149 13.429-4.3695 20.1442-.2.6435-.4 1.287-.6 1.9305z" fill="#dcbb97"/><path d="m297.789 362.3515c1.4545-6.7151 2.9027-13.4317 4.3695-20.1442.2557-1.1703.5898-2.3235.8877-3.4846.1195 1.1915.4274 2.3993.3268 3.5719-.5185 6.0401-1.2509 12.0565-3.6794 17.6924-.3859.8955-1.2576 1.5816-1.9046 2.3645z" fill="#e4ccaf"/><path d="m376.2936 356.1474c-.1842.1737-.3684.3474-.5527.5216.1842-.1735.3685-.3476.5527-.5216z" fill="#e6ceb2"/><path d="m215.4466 285.4444c-.1471-.6608-.2942-1.3216-.4409-1.9826-.4975-1.306-.9952-2.6118-1.4929-3.9175-.0025-.1207-.0129-.2407-.031-.3601.7664.6192 1.7907 1.0882 2.254 1.8839 1.8719 3.2154 2.3097 6.6548.9673 10.6793-.2846-.9753-.4556-1.5615-.6266-2.1477-.2101-1.3851-.42-2.7702-.6299-4.1553z" fill="#2d1b0e"/><path d="m205.4826 321.4176c.1521-.2183.3041-.4366.456-.6554-.1521.2181-.3041.4368-.456.6554z" fill="#e3b185"/><path d="m211.9868 143.782c-1.3881 1.0048-2.6473 2.3268-4.1891 2.9537-4.2679 1.7352-8.6039 2.0948-12.6627-.6999-.655-.451-1.2263-1.1186-1.6415-1.804-.9791-1.6162-.6041-2.8284 1.3073-3.3643.5502-.1543 1.1248-.3214 1.6871-.3176 5.135.0349 10.2559.19 15.0668 2.2029.144.343.288.6861.4321 1.0292z" fill="#f1dac7"/></g></svg>