<svg id="Layer_1" enable-background="new 0 0 512 512" height="512" viewBox="0 0 512 512" width="512" xmlns="http://www.w3.org/2000/svg"><g><path d="m260.0078 68.4843c1.5194 3.7482 2.588 7.7661 4.6397 11.1959 7.1635 11.9746 17.6583 19.1462 31.7903 20.067 11.3482.7394 22.7241 1.3 34.0932 1.4175 17.0772.1766 34.1886-.3487 51.1113 2.4755 25.2808 4.2191 48.4772 13.289 67.9777 30.4325 11.915 10.4748 20.6274 23.4173 27.9331 37.3586 9.5886 18.2978 16.5361 37.5249 19.8803 57.9625 5.0056 30.5904-.0786 59.4975-14.6471 86.8004-7.2578 13.602-15.3886 26.627-25.1008 38.6378-4.1752 5.1634-8.2008 10.4479-12.397 15.8084.4831.3355.9677.6911 1.4709 1.0184 4.2628 2.7725 4.992 6.8741 1.7942 10.8532-3.2975 4.1031-7.5927 6.8992-12.4882 8.6803-2.2414.8155-3.295 2.1837-3.802 4.4405-1.5013 6.6829-4.7262 8.8253-11.5861 8.1661-.9438-.0908-2.1305.4069-2.9172 1.0083-1.8409 1.4074-3.5345 3.0136-5.2383 4.5926-3.9195 3.6324-8.7009 4.7904-13.8044 4.3938-7.4296-.5774-14.8317-1.5057-22.2496-2.2436-.9285-.0923-1.9342-.1205-2.8158.131-29.9362 8.5405-60.3096 9.7486-91.0032 5.4214-1.8999-.2679-3.2621.1033-4.7956 1.2776-29.8108 22.8283-63.2993 35.407-101.0437 35.8267-36.1516.402-71.2354-5.4457-104.9359-18.7239-13.4696-5.3071-26.2395-12.0312-37.3535-21.4606-7.8089-6.6252-14.5941-14.1654-19.4065-23.3484-6.2295-11.8871-6.549-24.0522-2.1458-36.5451 4.5895-13.0213 12.2537-24.2591 20.3278-35.2659 9.6162-13.1091 20.0055-25.6736 28.1762-39.801 1.7489-3.0239 3.1932-6.2225 4.8689-9.2909 1.0472-1.9176 2.8532-1.4995 4.4911-1.0829 4.8917 1.2442 9.787 2.4849 14.6381 3.8762 20.1042 5.766 40.1924 11.5881 60.2887 17.382.5971.1721 1.2184.2604 1.9191.4068.1872-5.1566.1606-10.1854.5852-15.1757 2.6471-31.1068 12.9992-59.5637 30.4912-85.2962 7.3287-10.7812 15.8988-20.711 23.673-31.1995 5.2896-7.1365 10.3465-14.4609 15.1933-21.9057 4.2814-6.5763 5.7044-13.7913 3.7278-21.6053-2.95-11.6616-3.4658-23.5913-3.2971-35.5477.0344-2.4369.7795-4.8971 1.4245-7.2852 1.3576-5.0271 2.9054-10.0025 4.2937-15.0217.5835-2.1096 1.7546-3.1762 3.9996-3.477 9.3558-1.2533 18.7506-2.3407 28.018-4.0885 7.0975-1.3386 13.5299-.6023 19.5322 3.4093 3.4603 2.3127 6.9126 4.6403 10.305 7.0505 1.8073 1.284 2.9888 3.034 2.2545 5.37-.7338 2.3344-2.7259 3.1348-4.9204 3.1289-5.516-.0147-11.0331-.1494-16.5463-.3353-1.9068-.0643-3.8036-.4219-5.705-.6455-.2331.252-.4661.5039-.6991.7559zm-51.3733 329.8041c-.0477.0491-.0954.0982-.1431.1472.0445-.053.0891-.106.1336-.1591.0396-.0518.0792-.1037.1189-.1556-.0365.0559-.073.1117-.1094.1675zm-1.5869.7192c-.1742.1495-.3484.299-.5226.4485-.5124.2653-1.0247.5306-1.5371.796-1.0145.4488-2.0675.827-3.0375 1.3571-11.8167 6.4582-24.5036 10.6526-37.4 14.2459-17.302 4.8209-34.9011 7.9495-52.8594 9.0194-11.9684.7131-23.9207 1.363-35.888.0105-2.1378-.2416-4.3106-.1731-6.4673-.2478.652.6157 1.3416 1.0117 2.0805 1.2621 9.3711 3.1763 18.7385 6.3647 28.1321 9.4736 3.094 1.024 6.196 1.6804 9.5909 1.2861 12.6112-1.4647 24.8318-4.52 36.9734-8.137 20.4084-6.0796 39.4792-14.9641 57.3406-26.5023.6302-.4071 1.0607-1.1233 1.583-1.6971.5125-.2684 1.0249-.5369 1.5365-.8062.1923-.1255.3846-.2511.5761-.3775.0755-.0911.1511-.1821.2267-.2732-.1092.0474-.2186.0946-.3279.1419zm14.9767-40.3163c.3178-.1452.6355-.2904.9533-.4356 12.0498-5.6982 23.4709-12.4918 35.1899-19.8763-3.7726-.763-6.9502-1.4678-10.1559-2.0046-.6843-.1146-1.5608.2326-2.1957.6186-4.3118 2.6217-8.4987 5.4581-12.8813 7.9522-17.6448 10.0417-36.207 17.4527-56.7313 18.6917-10.9323.6599-21.806.2091-32.162-4.0045-10.2081-4.1535-18.498-10.4419-23.1197-20.824-4.7723-10.7204-4.1366-21.698-1.5075-32.7268 1.1404-4.784 2.6525-9.4794 4.0531-14.4169-5.2157-1.5257-10.3458-3.0524-15.5026-4.4828-.3911-.1085-1.1879.3382-1.4308.7449-2.0881 3.4969-4.0922 7.0441-6.1213 10.5763-3.185 5.7805-4.4592 12.1544-5.6438 18.534-2.7911 15.0312-2.8325 29.7145 5.8187 43.2253.3357.5243.3519 1.2533.5169 1.8868-5.0509-5.7099-8.6448-12.0707-9.4842-19.6344-1.6894-15.2227.8089-29.888 6.4297-44.0358 1.6688-4.2004 3.8997-8.1775 5.9585-12.4337-1.3366-.4322-2.6341-.7896-3.8831-1.2722-1.3997-.5409-2.139-.1366-2.7606 1.248-8.1517 18.1566-12.598 37.0946-10.5409 57.0198 1.7868 17.3075 10.3622 29.9066 27.6772 35.3403 9.7139 3.0483 19.7009 3.4671 29.761 2.8727 20.1211-1.1887 39.3663-6.2422 58.0406-13.5777 5.8693-2.3056 11.5179-5.1732 17.2675-7.7835.3005-.1399.601-.2798.9015-.4197.5226-.2628 1.0451-.5256 1.5677-.7884zm-11.78 30.1229c.2296-.1209.4591-.2418.6886-.3627 5.1052-3.2504 10.2103-6.5009 15.3155-9.7513-.1842-.3021-.3685-.6041-.5528-.9061-.6556.3488-1.3335.6616-1.9633 1.0518-11.2725 6.9838-23.0995 12.8956-35.4147 17.7647-8.475 3.3508-17.1385 6.2247-25.7177 9.3117l.0594-.0286c-.4277.1246-.8553.2492-1.283.3738l-.1243-.0704-.0999.102c-.3478.1063-.6956.2125-1.0435.3188-.2374.0026-.4887-.0456-.7103.0149-15.5579 4.2484-31.4166 6.3067-47.5263 6.5451-10.0352-.1213-20.0348-.5942-29.7105-3.6097-10.4292-3.2503-19.4125-8.6774-25.9276-17.6738-8.8887-12.2739-11.6287-26.2227-10.6395-41.0047 1.1279-16.8547 5.7776-32.9221 11.6724-48.665.2997-.8004.4179-1.6687.7468-3.0262-.7304.5367-.9535.6328-1.0774.8016-4.8824 6.6469-9.7698 13.2903-14.6109 19.9672-.5512.7602-.889 1.6928-1.2363 2.5805-4.6653 11.9246-4.4254 24.2919-3.2886 36.7381.0143.4232.0287.8464.043 1.2696.0419.3901.0838.7801.1256 1.1702.0027.9547.0296 1.91.0009 2.8637-.0255.8483-.1126 1.6948-.1725 2.542-3.0597-12.5749-3.4585-25.23-2.0242-38.0372-.7091 1.0225-1.2053 2.0747-1.5153 3.1792-4.2592 15.1717-4.3531 30.376-.1225 45.5578 4.6131 16.5547 14.8185 28.0597 31.0144 34.1734 10.7016 4.0396 21.9714 5.0632 33.1613 6.5343 2.2169.2915 4.4883.4911 6.712.3578 26.3962-1.5819 52.0603-6.7489 76.8808-15.9399 9.4122-3.4854 18.4164-7.8149 26.8628-13.2649l-.0026-.0046c.4999-.2945.9999-.589 1.4998-.8835 0 .0002-.0196.0104-.0196.0104zm-70.2252-45.1462c-.2328.2146-.4655.4291-.6983.6437-6.6239-4.0498-10.5421-9.971-11.8561-17.561-1.942-11.2169-2.437-22.2932 4.2888-32.6729-1.9214-.5309-3.6247-1.0016-5.9251-1.6373-1.7179 8.3549-3.9102 16.2679-4.8884 24.3282-2.2529 18.5632 6.5253 32.6306 23.8924 39.6497 9.7596 3.9444 19.9571 4.3919 30.254 3.9669 14.966-.6178 28.9005-5.1902 42.3862-11.3802 8.7854-3.5793 16.7413-8.632 25.3018-13.8321-5.239-1.2346-9.8044-2.3488-14.3877-3.384-21.6971-4.9008-42.0716-12.7761-59.8579-26.5072-.3685-.2845-.8169-.5103-1.2638-.6419-10.1316-2.9822-20.2682-5.9474-30.4039-8.9158-2.038-1.3121-3.5358-.8582-4.5802 1.3331-1.0294 2.1597-2.4669 4.1881-3.1288 6.4488-2.8159 9.6167-2.2066 19.1573 1.4365 28.4556 1.8564 4.7381 5.3277 8.2719 9.3308 11.3041 0 0-.0153-.0146-.0152-.0146-.0656.1675-.0274.3065.1149.4169zm127.5077-281.9762c.5292.0612 1.0583.1224 1.5875.1836 1.9804.2329 3.9609.4658 5.9413.6988-6.1057-5.927-11.3756-7.171-19.0316-5.1719-5.6149.9559-11.2297 1.9117-16.8098 2.8617.4085 4.7249-.007 9.4269 5.394 11.2597 1.087.8204 2.1673 1.6498 3.262 2.4597 6.2484 4.6227 10.7141 10.7051 14.3322 17.4831-.0868.0576-.1761.1111-.2679.1603-.5622-.4218-1.1417-.8226-1.684-1.2686-4.8389-3.9797-9.6713-7.9673-14.5056-11.9526-2.1268-1.5578-4.2197-3.1646-6.3889-4.6608-2.6692-1.8411-3.9039-4.3224-3.8026-7.5539.0562-1.7918-.0495-3.5888-.086-5.5933-1.2447.1543-2.2236.2756-3.2916.408.526 8.9854 4.1473 16.8199 6.7854 24.92.2384 1.1909.4767 2.3818.796 3.9771-6.8511-8.6574-9.9993-18.1239-9.9035-28.8306-.5915.458-.9552.9162-1.1174 1.4372-1.116 3.5838-2.2312 7.169-3.2621 10.7779-.6337 2.2185-1.754 4.5361-1.5614 6.7123.9654 10.9072 1.825 21.8603 4.8355 32.4627 2.5361 8.9318 2.3051 17.6399-2.4724 25.7454-3.9764 6.7464-8.4327 13.2098-12.6764 19.7986-1.8985 2.5552-4.255 4.888-5.6209 7.7018-8.5454 17.6027-18.0422 34.8283-23.1433 53.8893-2.1195 7.92-3.632 16.0025-5.4205 24.0111-.5073 5.258-.9364 10.5249-1.5374 15.7722-1.4352 12.5323-.3644 24.9009 2.2267 37.1859 1.7352 8.2271 1.7852 8.1283 9.2588 12.2553 15.5788 8.6029 32.5259 13.0742 50.0779 16.8976-.3873-.8657-.6667-1.4907-.9465-2.1154-3.9917-8.9143-8.2738-17.7119-11.9153-26.767-7.8722-19.5753-12.958-39.8451-14.1372-61.0024-.6008-10.7797-.0214-21.5277 2.7923-31.9116 3.0237-11.159 6.9847-22.0633 10.5081-33.0878 2.3083-7.2227 5.0849-14.3461 6.7254-21.72 2.5096-11.2806 2.3539-22.7571-.0329-34.0929-2.0773-9.8659-4.5674-19.645-6.645-29.5108-.602-2.8587-.411-5.8843-.5835-8.8334.227-.0156.4539-.0311.681-.0467.3765 1.9371.7037 3.8854 1.1376 5.8095 2.6732 11.8553 5.7391 23.6368 7.9518 35.5768 2.0525 11.0754 2.1714 22.3586-.8236 33.3251-2.585 9.465-5.7439 18.7818-8.8843 28.0846-4.9927 14.7899-9.9366 29.5909-10.2738 45.3986-.1343 6.292-.049 12.6295.5462 18.8883 1.6245 17.083 5.8248 33.5945 12.579 49.3575 4.6622 10.8807 9.9157 21.5092 14.996 32.2071.3671.7731 1.4013 1.5253 2.2557 1.7226 5.292 1.2224 10.5906 2.4687 15.9452 3.3556 8.8348 1.4631 17.7138 2.6593 26.5742 3.968.1628.0052.3256.0104.4884.0157.1854-.0649.3708-.1299.5562-.1949 2.9222.4588 5.8607.8386 8.7541 1.437.6509.1346 1.4619.9383 1.6566 1.5949 1.0428 3.5161 1.9139 7.0831 2.8443 10.6325.5128 4.9236 1.2438 9.8363 1.4923 14.7733.4959 9.8535.324 19.6962-3.7159 28.9515-.9537 2.185-.2522 3.2178 1.4033 4.2663 7.2996 4.6236 14.5524 9.3231 21.9217 13.8325 1.2705.7774 3.0894 1.2477 4.5416 1.0455 11.3898-1.5862 22.757-3.3384 34.1176-5.1253 1.9879-.3127 3.9124-1.0287 6.2906-1.6736-.9359-.7355-1.4086-1.1465-1.9195-1.5026-12.2715-8.5516-23.2499-18.5518-33.2481-29.6521-3.3134-3.6787-6.6321-7.3526-9.9484-11.0287-.4919-.6323-.9643-1.2809-1.4787-1.8944-15.0009-17.8901-27.383-37.4882-38.1662-58.1556-10.6395-20.3922-18.7173-41.8091-25.7421-63.6489-4.7629-14.8077-8.5015-29.8692-10.6985-45.2958-1.6716-11.7381-1.7742-23.4612.2056-35.155 1.6414-9.6948 4.1435-19.2388 4.3832-29.1653.1633-6.7635-.7365-13.2312-3.6244-19.3767-2.1113-4.2688-4.2225-8.5376-6.257-12.6512.8643 1.0121 1.8683 2.1879 2.8724 3.3637 4.4201 6.6823 8.2586 13.7427 8.75 21.8372.4096 6.7461.0578 13.5929-.588 20.3346-.7617 7.9514-2.3361 15.8211-3.32 23.7558-1.6966 13.683.2327 27.1615 2.8709 40.5382 4.6405 23.5284 12.3742 46.1156 21.8986 68.0506 12.6361 29.1014 28.6636 56.2271 49.0863 80.6147 4.6212 5.5183 9.6147 10.7249 14.4368 16.075.3838.5099.7237 1.061 1.1577 1.5238 10.0221 10.6851 21.2119 20.0825 32.5102 29.3534.5502.4515 1.708.657 2.3661.4068 7.3967-2.8118 14.7509-5.7352 22.1163-8.6293 1.4684-.577 1.7849-1.4729.752-2.7382-.0435-.2358-.0428-.491-.1366-.7048-10.3961-23.7024-20.3712-47.6015-31.3162-71.048-12.2006-26.1362-25.1295-51.9375-38.0242-77.7432-13.5384-27.0939-27.2487-54.1051-41.2049-80.9858-7.4889-14.4242-15.646-28.5018-23.5183-42.7265-1.275-2.3039-2.6371-4.5595-3.959-6.8375.1758-.1213.3515-.2425.5272-.3638.3824.3477.8648.6319 1.1322 1.0527 3.6089 5.6783 7.4585 11.2253 10.7216 17.0975 8.4048 15.125 16.6927 30.3192 24.7605 45.6263 13.0383 24.7379 26.0091 49.5138 38.7321 74.4148 10.5366 20.6217 20.9902 41.2976 30.8992 62.2247 9.7709 20.6354 18.8461 41.6012 28.1501 62.4561 2.5726 5.7667 4.8729 11.6549 7.3612 17.6393.7687-.3298 1.4653-.5277 2.0546-.8968 7.3929-4.6304 14.7468-9.3235 22.1667-13.91 2.0635-1.2756 2.3185-2.6922 1.6593-4.9815-9.6936-33.6629-22.0088-66.3287-37.6222-97.6866-8.8907-17.8561-18.2878-35.4649-27.6924-53.0591-9.6465-18.0467-20.3994-35.4908-33.2321-51.4045-11.3997-14.1366-23.9404-27.3603-36.1385-40.8413-3.6326-4.0146-7.8084-7.5377-11.7353-11.286-.21-.2211-.42-.4421-.6301-.6632-.1465-.1333-.2929-.2665-.4396-.4001-5.2021-4.5452-8.6141-10.2219-10.6131-16.7917l-.0372.0273c.75.7738 1.5684 1.493 2.238 2.3311 2.6858 3.3617 5.1269 6.9436 8.0366 10.0949 3.0761 3.3317 6.5822 6.2664 9.9005 9.3745 1.0709 1.1844 2.1357 2.3742 3.2135 3.5523 11.1913 12.2326 22.6413 24.2404 33.5099 36.7532 12.4359 14.3172 22.9018 30.1243 32.3313 46.54 15.168 26.4062 29.7957 53.1195 42.6677 80.7434 10.5771 22.6989 19.4174 46.0757 26.7994 70.0038 1.2896 4.1801 2.5356 8.3737 3.9406 13.0208 2.4086-2.3114 4.7152-4.1895 6.6154-6.4147 4.7318-5.541 9.1385-11.3642 13.9712-16.8121 1.8395-2.0736 2.5235-4.18 2.3993-6.7336-.6917-14.214-.9505-28.4674-2.2122-42.6313-2.5463-28.5846-7.8067-56.6444-18.4193-83.4781-7.2401-18.3066-16.5191-35.4197-29.6602-50.2554-10.5269-11.8843-22.007-22.69-35.9668-30.4475-5.9863-3.3266-12.4257-5.8377-18.6592-8.7194-1.2686-.4768-2.5016-1.1122-3.8111-1.406-13.9658-3.1343-27.9703-6.1012-41.9048-9.367-5.3417-1.2519-10.5443-3.1124-15.7778-4.7963-.8746-.2814-1.5831-1.079-2.3684-1.6381.1192-.1902.2385-.3804.3577-.5705.8774.4468 1.7208.9848 2.6375 1.3262 10.264 3.8233 21.0511 5.3337 31.7602 7.2298 8.0297 1.4217 16.1118 2.7336 23.9824 4.8083 6.3837 1.6827 12.4876 4.4273 18.7156 6.7009.5391.3422 1.0559.7275 1.6206 1.0203 20.4571 10.6059 36.9409 25.7795 50.6789 44.1009 12.6974 16.9336 21.3991 35.909 27.7823 55.9328 8.9266 28.0024 13.0338 56.9012 14.8432 86.1551.4756 7.6892.5958 15.4003.8979 23.6076.6799-1.1141 1.121-1.8372 1.5622-2.5602.3283-.3476.7145-.6565.9765-1.0485 9.1572-13.6975 17.2451-27.961 22.6255-43.6072 1.269-3.6904 3.0558-7.5682 2.9397-11.3082-.6075-19.5741-4.1414-38.6956-10.8543-57.1228-10.0777-27.6635-24.9691-52.4634-44.8573-74.2269-11.0102-12.0483-23.182-22.3207-38.3318-29.164-10.6655-4.8177-21.6922-7.84-33.0617-9.1487-9.7322-1.1201-19.6747-.497-29.5241-.4932-12.5847.0049-25.1644-.032-37.6001-2.2832-7.7334-1.3999-15.0345-3.9368-21.1725-9.0906-4.8552-4.0767-8.3954-9.2273-11.7046-14.5528-1.942-3.1253-3.8647-6.2138-4.1564-10.0857-.1769-2.3475-.9429-4.6507-1.3589-6.5786-2.9436-.8881-5.6013-1.69-8.2591-2.4919-.7575-1.7982.8913-2.274 1.7498-3.1841 1.8411-.4705 3.6822-.9411 5.5233-1.4116 2.306.1654 4.6113.3413 6.9182.493 2.2214.1461 4.4444.2672 6.6667.3992.2678.028.5357.0555.8036.0831zm20.5285 304.7603c.0236.3214.0473.6428.0709.9643.0405.1721.081.3443.1214.5164 1.2787 8.2687 1.9697 16.5687 1.3088 24.9649 6.1947-9.7605 6.2799-20.6339 6.1753-31.1722-1.7576.4294-3.3332.8142-4.9087 1.1991-1.739-2.5192-3.4779-5.0384-5.2169-7.5576-.0921.0287-.1842.0575-.2763.0862.9085 3.6663 1.817 7.3326 2.7255 10.9989zm-1.5092 3.2238c-.8511-4.1311-1.7022-8.2621-2.6126-12.6812-1.532 1.0783-2.4241 2.1291-3.497 2.368-1.8831.4192-2.0627 1.5802-2.1847 3.1076-.4315 5.4016-.9429 10.7969-1.4242 16.1946-1.4084 5.5538-2.5969 11.1754-4.2821 16.6439-2.0128 6.5317-4.4508 12.9324-6.7046 19.3899-.2177.4628-.4353.9256-.653 1.3884-.1239.1712-.2478.3424-.3718.5137.3087-.1173.6175-.2346.9262-.3519 7.41-4.9417 14.3234-10.4727 20.0106-17.3771.8982-1.0905 1.6721-2.68 1.678-4.0424.0305-7.0712-.2068-14.1436-.3507-21.2156-.1779-1.3127-.356-2.6253-.5341-3.9379zm-29.126 25.5972c-.1378.1521-.2757.3043-.4135.4565-2.6506 4.1736-5.1062 8.4878-7.9924 12.4916-5.9614 8.2697-13.2497 15.3181-20.9993 21.9001-4.6069 3.2594-9.2138 6.5188-13.8207 9.7782 9.2092-2 18.0748-4.9285 26.4376-9.2812 6.0691-3.2327 12.1097-6.521 18.2231-9.6676 2.0964-1.0791 3.23-2.7079 3.9586-4.8436 1.006-2.949 2.3373-5.7988 3.1797-8.7896 2.2284-7.9113 4.2688-15.8756 6.384-23.8188 2.0444-9.314 3.214-18.6917 2.6493-28.7273-3.5721 1.8639-5.6378 3.7757-6.4539 7.2796-1.515 6.5042-3.3165 12.9633-5.4164 19.3028-1.5728 4.7483-3.8006 9.2797-5.7368 13.9076zm-7.5564 6.9175c.212-.3078.4239-.6156.6359-.9234.2106-.2341.4659-.4413.6254-.7062 4.681-7.7722 8.3352-16.0135 11.0037-24.6736 1.4721-4.7773 2.6848-9.6345 4.0774-14.6838-1.8994.3943-3.2682.6785-4.6371.9626.1737.0893.3474.1785.521.2677-3.8058 7.4528-7.0988 15.2268-11.5242 22.2915-9.1624 14.6269-21.6929 26.1633-35.4905 36.3718-.7476.5531-1.4353 1.1872-2.1509 1.7836l.0065.0534c-.3306.1365-.6613.2731-.9919.4096-.1815.123-.3631.246-.5446.369-.3031.1637-.6063.3274-.9094.4911-2.1595 1.3492-4.3189 2.6983-6.4784 4.0474-.4419.1611-.9112.2708-1.3216.4908-9.9088 5.3112-20.2448 9.579-31.0636 12.6441-4.0342 1.1429-8.1108 2.1362-12.1681 3.1977 1.9438.4437 3.8512.3971 5.7479.5183 10.6388.6801 21.2228-.0524 31.7731-1.3147 2.9164-.3488 6.1462-.5708 8.5789-1.9793 6.1357-3.5527 11.8995-7.7479 17.8119-11.6865 5.4331-4.9112 11.1328-9.5646 16.2122-14.8178 3.8465-3.9781 6.9015-8.7213 10.3088-13.124zm-222.7591-17.5242c.05.7473.1001 1.4947.1869 2.7913-5.3712-8.4174-7.6341-17.1646-7.7522-26.8674-2.7083 7.0969-2.054 16.0994 1.725 24.3191 5.1788 11.2641 13.8502 19.4809 23.6556 26.6259 2.4989 1.821 5.1834 3.9396 8.0737 4.5553 5.8804 1.2527 11.9591 1.5743 16.6448 2.1254-4.0027-1.6813-9.2514-3.8859-14.5-6.0905-7.0478-4.471-13.1661-9.8826-17.6562-17.0294-6.819-10.8534-9.3588-22.9326-9.8327-35.4695-.2463-6.5153.4821-13.0675.7871-19.9842-2.1353 4.2814-4.2943 8.3373-6.1728 12.5192-.6957 1.5487-.9434 3.3823-1.0345 5.105-.5102 9.6494 1.7342 18.7342 5.8753 27.3998zm58.3136-104.4168c-.6018.4719-1.3841.8263-1.7787 1.433-6.967 10.711-11.7003 22.4138-15.0554 34.6836-2.9674 10.8518-5.3061 21.8317-4.4303 33.1911.9124 11.8346 4.4583 22.6379 13.2342 31.1229 7.4559 7.2088 16.9076 10.1652 26.7805 12.0345 14.7657 2.7957 29.3987 1.2907 43.8704-1.9628 8.4071-1.89 16.664-4.4478 24.9886-6.705l25.8168-9.7506c2.0093-.8883 4.0187-1.7766 6.028-2.6649-.0892-.1979-.1784-.3959-.2676-.5938-1.88.7768-3.76 1.5536-5.64 2.3305-9.3719 2.7235-18.646 5.8669-28.1373 8.0779-16.7243 3.896-33.6479 5.6072-50.784 2.5678-20.4669-3.6302-33.9418-17.5478-36.6496-38.1365-2.0607-15.6689.5905-30.8548 5.2518-45.7354 1.7826-5.6909 4.3134-11.1474 6.5532-16.8378-1.849-.5851-3.8736-1.2257-5.8068-1.8373-2.4527 4.4379-4.9386 8.5567-7.0547 12.8575-2.8582 5.8088-5.4323 11.7575-8.1282 17.6461-1.1099 2.2441-2.2199 4.4883-3.3298 6.7325-.5443-.638-.6404-1.0606-.5135-1.3999 1.9536-5.2272 3.889-10.4622 5.9342-15.6537.8706-2.2099 1.9849-4.3237 2.9885-6.4811 2.7517-4.7069 5.5034-9.4139 8.3642-14.3073-1.0261-.2807-1.6303-.446-2.2345-.6113zm90.9634-24.8365c.0089-1.0313-.05-2.0684.0374-3.093.8848-10.3792 2.783-20.592 5.6293-30.5933 3.6119-12.6916 8.3693-24.9671 14.1528-36.8438 1.4277-2.932 2.5158-6.0293 3.7586-9.0521.0691-.0896.1381-.1792.2072-.2688-.0991.052-.1981.1039-.2972.1558-.3091.2451-.6947.4351-.9161.7432-5.3212 7.4043-10.9136 14.6337-15.8749 22.2727-12.5605 19.34-20.6713 40.5243-24.7175 63.1942-1.7004 9.5267-2.5476 19.1925-2.0252 28.9163.0831 1.5476.6237 2.3834 2.3117 2.785 3.0958.7366 6.1044 1.8397 9.1494 2.7899 4.9825.4013 7.9409 4.6546 12.1528 6.6753.0959-.4088.1916-.5742.1576-.7064-3.9613-15.4432-5.6598-31.0646-3.7259-46.975zm205.3831-142.5235c-3.2741-.577-6.5482-1.1541-9.8224-1.7311-.0476.2257-.0953.4514-.1429.6772 3.1347.6179 6.2694 1.2358 9.4041 1.8537 8.9512 4.0681 18.3031 7.4461 26.7637 12.3591 14.194 8.2425 25.0054 20.5002 35.1621 33.1471 25.5501 31.8143 41.3053 67.8264 45.5516 108.622.0384.369.2937.7155.5751 1.3678 1.7925-12.0506 1.2113-23.7156-.4187-35.3257-2.8597-20.3685-9.6153-39.4834-19.0726-57.6908-5.8691-11.2993-12.7403-21.9275-21.7034-31.0229-15.6732-15.9046-35.1644-24.8175-56.4892-30.2106-3.2346-.8183-6.5365-1.3706-9.8074-2.0458zm-205.4477 283.9209c.2348-.0427.4821-.0515.7024-.1331 17.65-6.5398 34.5815-14.5737 50.2619-25.0187 12.8086-8.532 25.5814-17.1837 35.2392-29.5139.6088-.7773 1.2655-1.5169 1.9-2.2741-.1553-.1776-.3107-.3552-.466-.5327-.6753.4477-1.3562.8871-2.0249 1.3442-8.8652 6.061-17.6214 12.2889-26.6127 18.1568-27.6305 18.0323-57.5762 30.4546-90.0347 36.6781-16.2982 3.1249-32.5771 4.2229-48.8333-.2669-10.0316-2.7707-18.9795-7.2613-25.5063-15.7305-7.788-10.1056-10.8077-21.7865-10.6263-34.2418.2766-18.9905 5.5823-36.8132 13.9142-53.7612 2.1002-4.2722 4.7228-8.2875 7.2042-12.5923-1.7537-.5818-3.47-1.1511-5.3591-1.7777-1.2483 1.7267-2.4602 3.4029-3.672 5.0791-1.7306 2.5791-3.616 5.0689-5.165 7.7528-6.548 11.3449-10.3994 23.7106-13.497 36.3459-2.9122 11.8788-5.0273 23.8564-3.6872 36.1533 1.4348 13.166 6.0344 24.8984 16.3009 33.7884 8.2203 7.1183 18.1233 10.4539 28.7099 11.7679 17.0866 2.1208 34.1097 1.1235 50.8768-2.546 9.4174-2.0611 18.6069-5.1631 27.8991-7.7961.3391-.1265.6782-.2529 1.0173-.3794.4862-.1674.9724-.3348 1.4586-.5021zm-62.2825 42.1306c3.0003.5838 5.3452 1.0702 7.7017 1.4925 5.0343.9023 10.0456 2.0528 15.1205 2.5767 5.2986.5471 10.7372 1.1271 15.9759.5117 6.3875-.7505 12.7297-2.3985 18.9181-4.2407 23.7649-7.0745 44.5945-19.1006 61.9267-37.046 10.8806-11.2656 19.5655-23.8488 24.8079-38.6855.479-1.3556.9674-2.7082 1.4211-4.0723.4481-1.347.8575-2.7069 1.284-4.0611-1.1004.4102-1.6943 1.0325-2.2895 1.6535-8.8031 9.1846-17.4481 18.5342-27.6696 26.225-1.9852 1.4937-3.8751 3.1132-5.8473 4.6248-7.6188 5.8396-14.9543 12.11-22.939 17.3992-21.7948 14.4373-45.8996 23.6161-71.1644 29.8926-5.4855 1.3629-11.052 2.3999-17.2461 3.7296zm183.1278-40.7703c-3.0259 3.8669-6.0667 7.7528-9.424 12.0432 9.8416.3838 19.1995.7486 28.5575 1.1135-.0143-.1592-.0286-.3183-.0429-.4775-6.3135-4.1932-12.627-8.3863-19.0906-12.6792zm-27.2635-54.5453c6.4209 1.6386 12.6946 3.1188 19.3964 1.2695-.4265-1.2473-.7539-2.2049-.9124-2.6682-5.1618-.414-10.0056-.6327-14.7959-1.2594-2.34-.3061-3.121.6728-3.6881 2.6581zm-4.2361 13.4868c2.6828-1.7059 5.33-3.2704 7.8366-5.0347 1.1913-.8385 1.7721-4.4007.9651-4.8429-1.5324-.8398-3.1257-1.5841-4.7484-2.231-.3565-.1421-1.1203.1457-1.3891.4816-.9783 1.2226-1.8263 2.5494-2.7319 3.8493 3.8453 2.636-.4583 4.998.0677 7.7777zm155.2988 33.0488c1.6766 1.2496 3.2778 2.443 4.4053 3.2834 1.8774-2.3383 3.2458-4.7799 5.2806-6.3677 1.9989-1.5598 4.6746-2.2523 7.5007-3.5273-1.5683-.6759-2.4215-1.1519-3.3365-1.4046-.7669-.2118-1.8521-.5254-2.3734-.1712-3.83 2.6013-7.5535 5.3592-11.4767 8.1874zm-1.1285.4956c-3.6152 2.1144-7.1495 4.1815-10.8812 6.3641 1.0499 1.162 1.9228 2.128 2.5247 2.7942 2.4179-1.2573 4.3891-2.782 6.5937-3.2858 2.1318-.4871 4.5038.0774 7.4132.2091-2.2305-2.4007-3.845-4.1384-5.6504-6.0816zm-10.2074 11.6365c-.9769-1.0781-1.711-2.0473-2.6152-2.8167-.4319-.3675-1.3091-.6537-1.7739-.4631-1.9025.7803-3.7238 1.7585-5.692 2.721.4898 1.8896.9405 3.6283 1.3952 5.3828 3.695-.0853 5.9461-2.3507 8.6859-4.824zm-132.0569-53.9823c.2521 3.0082.473 5.6454.694 8.2825.2856.1181.5711.2361.8567.3542 1.546-1.6199 3.259-3.1161 4.581-4.9018.9268-1.252-.1623-2.9916-1.7411-3.2132-1.175-.165-2.3567-.2825-4.3906-.5217zm14.4164 11.3562c3.0099-4.627-.693-7.439-1.6522-10.8671-1.3391.1713-2.4875.3182-3.712.4748 1.7963 3.4801 3.4776 6.7375 5.3642 10.3923zm144.1781 19.3815c1.0366.6241 1.8455 1.0958 2.6391 1.5919 1.9071 1.1923 3.987.4423 5.4339-2.1924 1.2696-2.3119-1.2634-2.2262-2.225-3.0379-.349-.2946-1.3893-.2111-1.8122.1045-1.3313.9934-2.5193 2.1789-4.0358 3.5339zm-38.6779 28.6416c-.5764-1.5784-1.0539-2.8861-1.6019-4.387-2.8328 1.1931-5.527 2.3278-8.2213 3.4626.0494.1698.0988.3396.1482.5094 3.1421.1347 6.2842.2695 9.675.415zm-326.8476-132.766c-.7771 1.8185-1.4596 3.4156-2.1421 5.0126.1872.1265.3744.2531.5616.3796 1.2305-1.4254 2.461-2.8507 3.7934-4.3941-.8632-.3893-1.4343-.6469-2.2129-.9981zm194.4564 75.1629c-.0306-.0556-.0612-.1111-.0918-.1667-.0498.0408-.1482.0997-.141.1193.029.078.0909.1439.1407.2143.0306-.0556.0614-.1112.0921-.1669z" fill="#1c080e"/><path d="m238.9612 85.9256c-2.638-8.1002-6.2594-15.9346-6.7854-24.92 1.068-.1324 2.0469-.2537 3.2916-.408.0366 2.0046.1422 3.8015.086 5.5933-.1013 3.2315 1.1334 5.7128 3.8026 7.5539 2.1692 1.4962 4.2621 3.103 6.3891 4.6609.2466 5.4718 2.7437 10.1207 5.6662 14.4946 6.5764 9.8426 15.6133 16.9676 25.8712 22.6424.5206.288 1.2553.1892 1.8903.2704.1465.1333.2929.2665.4394.4001.21.2212.42.4421.63.6629 3.9269 3.7483 8.1027 7.2714 11.7353 11.286 12.1981 13.481 24.7388 26.7047 36.1385 40.8413 12.8327 15.9138 23.5856 33.3578 33.2321 51.4045 9.4046 17.5942 18.8017 35.203 27.6924 53.0591 15.6134 31.3579 27.9286 64.0238 37.6222 97.6866.6592 2.2893.4042 3.7059-1.6593 4.9815-7.4198 4.5866-14.7738 9.2796-22.1667 13.91-.5893.3691-1.2859.567-2.0546.8968-2.4884-5.9843-4.7886-11.8726-7.3612-17.6393-9.304-20.8549-18.3792-41.8207-28.1501-62.4561-9.909-20.9272-20.3626-41.6031-30.8992-62.2247-12.723-24.901-25.6938-49.6769-38.7321-74.4148-8.0678-15.3072-16.3557-30.5013-24.7605-45.6263-3.2632-5.8722-7.1127-11.4192-10.7216-17.0975-.2675-.4208-.7498-.705-1.1322-1.0527-.1758.1213-.3515.2425-.5272.3638 1.3219 2.2779 2.684 4.5336 3.959 6.8375 7.8723 14.2248 16.0294 28.3023 23.5183 42.7265 13.9563 26.8806 27.6665 53.8918 41.2049 80.9858 12.8947 25.8057 25.8236 51.607 38.0242 77.7432 10.9449 23.4464 20.92 47.3456 31.3162 71.048.0938.2138.0931.469.1361.7046-5.9717-1.3758-12.1107-2.2605-17.8786-4.2312-11.2264-3.8356-22.2513-8.263-33.3446-12.4847-2.5903-.9858-5.1206-2.1293-7.6786-3.2003-4.8221-5.3501-9.8156-10.5566-14.4368-16.075-20.4227-24.3876-36.4502-51.5133-49.0863-80.6147-9.5244-21.935-17.258-44.5222-21.8986-68.0506-2.6382-13.3766-4.5675-26.8552-2.8709-40.5382.9839-7.9347 2.5582-15.8044 3.32-23.7558.6458-6.7417.9976-13.5884.588-20.3346-.4914-8.0945-4.33-15.1548-8.749-21.8379-.3481-1.5164-.4733-3.1312-1.0917-4.5276-1.3931-3.1451-3.0305-6.1824-4.5684-9.2637z" fill="#cf2b5e"/><path d="m349.228 125.9708c6.2335 2.8816 12.6729 5.3928 18.6592 8.7194 13.9598 7.7574 25.4399 18.5631 35.9668 30.4475 13.1411 14.8357 22.42 31.9488 29.6602 50.2554 10.6125 26.8336 15.873 54.8934 18.4193 83.4781 1.2617 14.1638 1.5205 28.4173 2.2122 42.6313.1242 2.5536-.5598 4.66-2.3993 6.7336-4.8327 5.4478-9.2393 11.2711-13.9712 16.8121-1.9002 2.2252-4.2068 4.1033-6.6154 6.4147-1.4051-4.6471-2.651-8.8407-3.9406-13.0208-7.3819-23.9281-16.2223-47.3049-26.7994-70.0038-12.8719-27.6239-27.4996-54.3372-42.6677-80.7434-9.4295-16.4158-19.8953-32.2228-32.3313-46.54-10.8686-12.5128-22.3186-24.5206-33.5099-36.7532-1.0778-1.178-2.1426-2.3679-3.2135-3.5525 8.6693 3.1058 17.7266 3.6323 26.8026 4.0203 10.5562.4512 21.113.8915 31.6705 1.3141.6819.0269 1.3715-.1376 2.0575-.2128z" fill="#cf2b5e"/><path d="m238.9612 85.9256c1.538 3.0813 3.1753 6.1186 4.5684 9.264.6184 1.3964.7436 3.0112 1.0917 4.5276-1.0051-1.1751-2.0091-2.3509-2.8734-3.3629 2.0345 4.1136 4.1458 8.3824 6.2571 12.6528.0102.7939-.0676 1.5988.0442 2.3764 1.029 7.1535 1.1245 14.3011.0563 21.4626-.9553 6.4054-1.7116 12.8434-2.7997 19.2255-1.0708 6.2808-2.4532 12.5084-3.69 18.7611-1.5456 7.8135-3.2804 15.5966-4.552 23.4546-.8275 5.1137-1.2446 10.3316-1.357 15.5135-.1309 6.0331-.1822 12.1325.5389 18.1058 1.4148 11.7192 4.8427 23.0194 9.0675 33.9896 3.4984 9.0838 7.4493 18.0427 11.9004 26.6965 4.4803 8.7106 9.5938 17.1245 14.8786 25.3812 3.1282 4.8873 7.1312 9.2137 10.7294 13.8015 1.7037 2.1723 3.3804 4.3658 5.0694 6.5498-8.8604-1.3087-17.7394-2.5049-26.5742-3.968-5.3546-.8869-10.6532-2.1332-15.9452-3.3556-.8544-.1973-1.8886-.9496-2.2557-1.7226-5.0803-10.698-10.3339-21.3264-14.996-32.2071-6.7542-15.7629-10.9545-32.2745-12.579-49.3575-.5952-6.2588-.6804-12.5963-.5462-18.8883.3373-15.8077 5.2812-30.6087 10.2738-45.3986 3.1404-9.3029 6.2993-18.6196 8.8843-28.0846 2.995-10.9665 2.8761-22.2496.8236-33.3251-2.2127-11.94-5.2786-23.7215-7.9518-35.5768-.4339-1.9242-.761-3.8724-1.1376-5.8095-.227.0156-.454.0311-.681.0467.1725 2.9491-.0184 5.9747.5835 8.8334 2.0776 9.8659 4.5677 19.6449 6.645 29.5108 2.3868 11.3358 2.5426 22.8123.0329 34.0929-1.6405 7.3739-4.4171 14.4973-6.7254 21.72-3.5234 11.0246-7.4844 21.9288-10.5081 33.0878-2.8136 10.3839-3.3931 21.1319-2.7923 31.9116 1.1792 21.1573 6.2649 41.4271 14.1372 61.0024 3.6415 9.0551 7.9237 17.8527 11.9153 26.767.2798.6248.5592 1.2498.9465 2.1154-17.552-3.8233-34.4991-8.2947-50.0779-16.8976-7.4736-4.127-7.5236-4.0283-9.2588-12.2553-2.5911-12.285-3.6619-24.6536-2.2267-37.1859.6009-5.2473 1.0301-10.5142 1.5367-15.7717.3263-.4445.7499-.8471.9659-1.3406 3.576-8.1696 7.2059-16.317 10.664-24.5366 6.1117-14.5269 12.2818-29.0336 18.0739-43.6885 2.0292-5.1341 3.0178-10.6795 4.4816-16.037 4.2437-6.5888 8.7-13.0522 12.6764-19.7986 4.7775-8.1055 5.0085-16.8136 2.4724-25.7454-3.0105-10.6024-3.8701-21.5555-4.8355-32.4627-.1926-2.1762.9277-4.4938 1.5614-6.7123 1.0308-3.6089 2.146-7.1941 3.2621-10.7779.1622-.521.5259-.9793 1.1174-1.4372-.0957 10.7067 3.0524 20.1731 9.9035 28.8306-.3191-1.5954-.5575-2.7863-.7958-3.9772z" fill="#ba123e"/><path d="m349.228 125.9708c-.686.0753-1.3755.2397-2.0574.2124-10.5574-.4226-21.1142-.8629-31.6705-1.3141-9.0761-.388-18.1334-.9145-26.8026-4.0203-3.3183-3.1078-6.8244-6.0425-9.9005-9.3742-2.9097-3.1514-5.3508-6.7333-8.0366-10.0949-.6696-.8381-1.488-1.5573-2.2379-2.3312-.0816-.0848-.1633-.1696-.245-.2543.094.0757.1881.1514.2821.2271 1.999 6.5698 5.411 12.2465 10.6132 16.7919-.6349-.0811-1.3696.0177-1.8902-.2703-10.2579-5.6748-19.2948-12.7998-25.8712-22.6424-2.9224-4.3739-5.4196-9.0228-5.6662-14.4946 4.8341 3.9851 9.6665 7.9728 14.5054 11.9524.5423.446 1.1218.8468 1.6868 1.267.1676.257.3324.5156.4971.7743.0965-.0636.1929-.1271.2894-.1907-.1738-.2474-.3477-.4948-.5215-.7422-3.6181-6.778-8.0838-12.8604-14.3322-17.4831-1.0947-.8099-2.175-1.6393-3.2618-2.4597.4191-2.0704.8379-4.1407 1.2567-6.2111 2.6578.8019 5.3155 1.6037 8.2591 2.4919.416 1.9279 1.182 4.231 1.3589 6.5786.2917 3.8718 2.2144 6.9604 4.1564 10.0857 3.3091 5.3255 6.8494 10.4761 11.7046 14.5528 6.1381 5.1538 13.4391 7.6907 21.1725 9.0906 12.4356 2.2511 25.0154 2.2881 37.6001 2.2832 9.8494-.0038 19.7919-.627 29.5241.4932 11.3695 1.3086 22.3962 4.331 33.0617 9.1487 15.1498 6.8433 27.3216 17.1157 38.3318 29.164 19.8882 21.7635 34.7796 46.5634 44.8573 74.2269 6.713 18.4271 10.2468 37.5487 10.8543 57.1228.1161 3.74-1.6707 7.6178-2.9397 11.3082-5.3803 15.6462-13.4683 29.9097-22.6255 43.6072-.262.392-.6482.7008-.9765 1.0475.5152-2.9062 1.0047-5.8163 1.5504-8.7158 1.63-8.6605 3.4959-17.2837 4.8513-25.9865.9208-5.9127 1.2457-11.928 1.6315-17.9106.2507-3.8879.4388-7.826.1075-11.6947-.5164-6.0276-1.445-12.023-2.2976-18.018-.7861-5.5276-1.0086-11.2626-2.7147-16.5041-2.9611-9.0973-6.6031-18.0042-10.4613-26.77-4.4115-10.0228-9.8873-19.4971-16.2643-28.4424-7.6793-10.7722-15.8561-21.1193-25.8456-29.8538-9.875-8.6344-20.9427-15.5753-32.9175-20.8256-4.634-2.0318-9.995-2.4052-15.0248-3.5341-6.228-2.2736-12.3319-5.0182-18.7156-6.7009-7.8706-2.0747-15.9527-3.3866-23.9824-4.8083-10.7091-1.8961-21.4962-3.4066-31.7602-7.2298-.9167-.3414-1.7601-.8795-2.6375-1.3262-.1192.1902-.2384.3804-.3577.5705.7853.5591 1.4938 1.3567 2.3684 1.6381 5.2336 1.6839 10.4361 3.5444 15.7778 4.7963 13.9345 3.2658 27.9391 6.2327 41.9048 9.367 1.3097.2934 2.5427.9287 3.8113 1.4056z" fill="#e74a93"/><path d="m136.861 295.7241c10.1357 2.9684 20.2723 5.9336 30.4039 8.9158.4469.1315.8953.3574 1.2638.6419 17.7863 13.731 38.1609 21.6064 59.8579 26.5072 4.5833 1.0352 9.1487 2.1494 14.3877 3.384-8.5605 5.2001-16.5164 10.2528-25.3019 13.8321-1.0208.0923-2.0587.0961-3.0597.2906-9.3318 1.8133-18.6176 3.9028-27.9953 5.4295-10.0712 1.6396-20.2109 1.9588-30.07-1.4135-3.2814-1.1224-6.3947-2.7362-9.5848-4.1254.0962-.1925.1924-.385.2885-.5775.8743-.1471 1.7486-.2942 2.623-.4413-.0173-.154-.0346-.3079-.052-.4619-.8671-.0518-1.7341-.1035-2.6012-.1553-2.0645-1.2156-4.129-2.4312-6.1935-3.6469-.3078-.2174-.6156-.4348-.9233-.6523 0 0 .0153.0146.0154.0145-.1715-.5859-.2275-1.2416-.5325-1.7469-3.2026-5.3052-4.958-11.0884-5.058-17.2346-.1019-6.2637.0599-12.5495.5059-18.797.2345-3.2858 1.3232-6.5106 2.0261-9.763zm69.8086 46.5788c-.0148-.2647-.0295-.5295-.0443-.7942-2.5716-.4493-5.243-.5969-7.6946-1.4087-5.6656-1.8761-11.2901-3.9148-16.8088-6.1852-5.8336-2.3999-10.8922-5.8505-14.5042-11.2936-2.3136-3.4865-3.0141-7.3036-3.7538-11.2437-.2587-1.378-1.3909-3.6498-2.1636-3.6664-1.9747-.0422-2.5668 2.0044-2.9647 3.7715-.035.1556-.0333.3192-.0638.4762-1.6612 8.5462 2.0255 15.1692 7.8558 20.7929 8.7804 8.4691 19.9342 10.1276 31.4785 10.2543 2.8849.0317 5.7755-.4548 8.6635-.7031z" fill="#fdfdfd"/><path d="m287.891 334.3253c-1.689-2.1839-3.3657-4.3775-5.0694-6.5498-3.5981-4.5877-7.6012-8.9142-10.7294-13.8015-5.2848-8.2567-10.3983-16.6706-14.8786-25.3812-4.4511-8.6539-8.402-17.6127-11.9004-26.6965-4.2249-10.9702-7.6527-22.2705-9.0675-33.9896-.7211-5.9732-.6697-12.0726-.5389-18.1058.1124-5.1818.5295-10.3997 1.357-15.5135 1.2716-7.858 3.0064-15.6411 4.552-23.4546 1.2368-6.2527 2.6192-12.4803 3.69-18.7611 1.0881-6.382 1.8443-12.82 2.7997-19.2255 1.0681-7.1615.9727-14.3091-.0563-21.4626-.1118-.7776-.034-1.5825-.0442-2.3764 2.8879 6.1439 3.7877 12.6116 3.6244 19.3751-.2398 9.9265-2.7418 19.4705-4.3832 29.1653-1.9799 11.6937-1.8772 23.4168-.2056 35.155 2.1969 15.4266 5.9356 30.4881 10.6985 45.2958 7.0247 21.8399 15.1026 43.2568 25.7421 63.6489 10.7832 20.6675 23.1653 40.2656 38.1662 58.1556.5144.6135.9868 1.2621 1.4774 1.8946-.4888.0105-1.1025.2182-1.444-.0001-2.6948-1.7225-5.3903-3.4533-7.9842-5.3223-3.8786-2.7947-7.6745-5.704-11.5056-8.5647-.9304-3.5494-1.8015-7.1164-2.8443-10.6325-.1948-.6566-1.0057-1.4603-1.6566-1.5949-2.8933-.5984-5.8319-.9782-8.7541-1.4376-.1854.0647-.3708.1301-.5562.1954-.1632-.0051-.326-.0104-.4888-.0155z" fill="#ce2b5e"/><path d="m362.8192 128.258c5.0298 1.1289 10.3908 1.5024 15.0248 3.5341 11.9748 5.2503 23.0425 12.1912 32.9175 20.8256 9.9895 8.7345 18.1663 19.0816 25.8456 29.8538 6.377 8.9453 11.8528 18.4196 16.2643 28.4424 3.8582 8.7659 7.5002 17.6727 10.4613 26.77 1.7061 5.2415 1.9286 10.9764 2.7147 16.5041.8526 5.995 1.7812 11.9903 2.2976 18.018.3314 3.8687.1432 7.8068-.1075 11.6947-.3857 5.9827-.7107 11.998-1.6315 17.9106-1.3554 8.7029-3.2212 17.326-4.8513 25.9865-.5457 2.8995-1.0352 5.8096-1.5505 8.7158-.4412.7239-.8824 1.447-1.5622 2.5611-.3021-8.2073-.4223-15.9185-.8979-23.6076-1.8095-29.2539-5.9166-58.1526-14.8432-86.1551-6.3832-20.0237-15.0849-38.9991-27.7823-55.9328-13.738-18.3214-30.2218-33.495-50.6789-44.1009-.5647-.2928-1.0814-.6782-1.6205-1.0203z" fill="#ce2b5e"/><path d="m100.4124 298.5034c2.0291-3.5322 4.0332-7.0794 6.1213-10.5763.2429-.4068 1.0397-.8534 1.4308-.7449 5.1568 1.4304 10.287 2.9571 15.5026 4.4828-1.4006 4.9375-2.9127 9.6329-4.0531 14.4169-2.6291 11.0288-3.2648 22.0063 1.5075 32.7268 4.6217 10.3821 12.9116 16.6705 23.1197 20.824 10.356 4.2137 21.2297 4.6645 32.162 4.0045 20.5243-1.2389 39.0865-8.65 56.7313-18.6917 4.3826-2.4941 8.5695-5.3305 12.8813-7.9522.6349-.386 1.5113-.7332 2.1957-.6186 3.2057.5369 6.3833 1.2416 10.1559 2.0046-11.7191 7.3845-23.1401 14.1782-35.19 19.8764-.3178.1452-.6355.2904-.9532.4355l.0149-.0064c-.5226.2628-1.0451.5256-1.5676.7884-.3005.1399-.601.2798-.9017.4197-.9253.1468-1.921.121-2.7649.4663-13.1502 5.3791-26.5622 10.0431-40.6605 11.9906-9.5271 1.316-19.2114 2.1315-28.8176 2.0631-10.1521-.0723-19.4924-3.8378-28.2052-9.087-8.3831-5.0506-14.1818-12.074-17.0956-21.4445-3.1523-10.1373-3.741-20.5355-3.0328-31.0379.323-4.7901.9371-9.5606 1.4192-14.3401z" fill="#fdfcfc"/><path d="m72.4035 282.2257c1.2119-1.6762 2.4237-3.3524 3.672-5.0791 1.8891.6266 3.6053 1.196 5.3591 1.7777-2.4814 4.3048-5.1039 8.3202-7.2042 12.5923-8.3319 16.948-13.6376 34.7706-13.9142 53.7612-.1814 12.4553 2.8383 24.1361 10.6263 34.2418 6.5269 8.4692 15.4747 12.9598 25.5063 15.7305 16.2562 4.4898 32.5351 3.3918 48.8333.2669 32.4585-6.2235 62.4042-18.6458 90.0347-36.6781 8.9913-5.8679 17.7475-12.0957 26.6127-18.1568.6688-.4572 1.3497-.8966 2.0249-1.3442.1553.1776.3106.3552.466.5327-.6344.7571-1.2911 1.4968-1.9 2.2741-9.6578 12.3301-22.4305 20.9819-35.2392 29.5139-15.6804 10.445-32.612 18.4789-50.2619 25.0187-.2203.0816-.4677.0904-.7025.1331-.4863.1674-.9724.3347-1.4585.5021-.3391.1265-.6782.2529-1.0174.3794-.5372-.0784-1.1135-.3246-1.6057-.2099-7.2451 1.6878-14.4463 3.5792-21.7232 5.1122-11.3483 2.3907-22.8157 4.1173-34.4497 3.676-6.2722-.2379-12.6644-.5019-18.7432-1.8899-8.719-1.9909-16.9015-5.726-24.9457-9.7208-11.0211-5.4731-16.782-14.3817-17.502-26.4274-.3937-6.5858-.2434-13.2509.2661-19.8335.8643-11.1684 2.9339-22.162 5.6571-33.0461 2.2355-8.9349 5.114-17.613 8.8726-26.0158 1.0354-2.3152 1.8308-4.7377 2.7363-7.111z" fill="#fbfafb"/><path d="m114.0345 438.9411c6.1941-1.3297 11.7606-2.3667 17.2461-3.7295 25.2648-6.2765 49.3695-15.4552 71.1644-29.8926 7.9847-5.2892 15.3202-11.5597 22.939-17.3992 1.9721-1.5116 3.8621-3.1312 5.8473-4.6248 10.2215-7.6908 18.8665-17.0404 27.6696-26.225.5952-.621 1.1891-1.2433 2.2895-1.6535-.4264 1.3542-.8359 2.7141-1.284 4.0611-.4537 1.3641-.9421 2.7167-1.4211 4.0723-5.2424 14.8366-13.9273 27.4198-24.8079 38.6855-17.3322 17.9454-38.1618 29.9715-61.9267 37.046-6.1884 1.8422-12.5306 3.4902-18.9181 4.2407-5.2386.6154-10.6772.0354-15.9759-.5117-5.0749-.524-10.0861-1.6744-15.1205-2.5767-2.3564-.4224-4.7014-.9088-7.7017-1.4926z" fill="#ba143e"/><path d="m302.1907 347.8105c3.8311 2.8606 7.627 5.77 11.5056 8.5647 2.5939 1.869 5.2894 3.5998 7.9842 5.3223.3415.2182.9552.0106 1.444.0001 3.3176 3.676 6.6362 7.3499 9.9496 11.0286 9.9982 11.1003 20.9766 21.1005 33.2481 29.6521.511.3561.9836.7671 1.9195 1.5026-2.3782.6449-4.3027 1.3609-6.2906 1.6736-11.3606 1.7869-22.7278 3.5391-34.1176 5.1253-1.4522.2022-3.2711-.2682-4.5416-1.0455-7.3693-4.5094-14.622-9.2089-21.9217-13.8325-1.6555-1.0486-2.357-2.0814-1.4033-4.2663 4.0399-9.2553 4.2118-19.098 3.7159-28.9515-.2483-4.9372-.9793-9.8498-1.4921-14.7735z" fill="#ba123e"/><path d="m381.7647 112.8896c3.2708.6752 6.5728 1.2275 9.8075 2.0456 21.3248 5.3931 40.8159 14.306 56.4892 30.2106 8.9631 9.0955 15.8343 19.7236 21.7034 31.0229 9.4573 18.2075 16.2129 37.3223 19.0726 57.6908 1.63 11.6101 2.2112 23.2752.4187 35.3257-.2814-.6523-.5367-.9987-.5751-1.3678-4.2463-40.7956-20.0015-76.8077-45.5516-108.622-10.1567-12.6469-20.9681-24.9046-35.1621-33.1471-8.4605-4.913-17.8124-8.291-26.7635-12.359.1871-.2665.374-.5331.5609-.7997z" fill="#e64991"/><path d="m100.4124 298.5034c-.4821 4.7794-1.0962 9.55-1.4192 14.3402-.7081 10.5024-.1194 20.9006 3.0328 31.0379 2.9138 9.3705 8.7126 16.394 17.0956 21.4445 8.7127 5.2492 18.053 9.0146 28.2052 9.087 9.6061.0684 19.2904-.7471 28.8176-2.0631 14.0983-1.9475 27.5104-6.6115 40.6605-11.9906.8439-.3452 1.8397-.3195 2.7649-.4663-5.7495 2.6103-11.398 5.4778-17.2674 7.7834-18.6743 7.3355-37.9195 12.3889-58.0406 13.5777-10.0601.5943-20.0471.1755-29.761-2.8727-17.315-5.4337-25.8904-18.0328-27.6772-35.3403-2.0571-19.9252 2.3891-38.8633 10.5409-57.0198.6216-1.3846 1.361-1.7889 2.7606-1.248 1.249.4827 2.5465.84 3.8831 1.2722-2.0588 4.2562-4.2897 8.2333-5.9585 12.4337-5.6208 14.1478-8.1191 28.8131-6.4297 44.0358.8394 7.5637 4.4333 13.9245 9.4842 19.6344-.1651-.6336-.1812-1.3625-.5169-1.8868-8.6513-13.5108-8.6099-28.194-5.8187-43.2253 1.1847-6.3795 2.4589-12.7534 5.6438-18.5339z" fill="#e0b6dd"/><path d="m74.2091 311.9705c2.696-5.8886 5.27-11.8373 8.1282-17.6461 2.1162-4.3008 4.602-8.4196 7.0547-12.8575 1.9332.6117 3.9578 1.2523 5.8068 1.8373-2.2398 5.6904-4.7706 11.1469-6.5532 16.8378-4.6613 14.8806-7.3125 30.0665-5.2518 45.7354 2.7077 20.5887 16.1827 34.5063 36.6496 38.1365 17.136 3.0394 34.0596 1.3281 50.784-2.5678 9.4913-2.2111 18.7654-5.3545 28.1372-8.0779-.0402.3094-.0803.6188-.1203.9282-8.6056 3.2502-17.2112 6.5004-25.8168 9.7506-.8475-.1104-1.7377-.447-2.5358-.2962-8.0074 1.5126-15.9908 3.1526-23.9986 4.6635-10.0734 1.9006-20.2847 2.7912-30.4529 1.6859-5.7888-.6292-11.6214-2.2499-17.0639-4.3734-10.5729-4.1251-18.6621-11.125-21.9785-22.4852-3.8676-13.2484-4.7444-26.8138-3.8688-40.5221.2293-3.5914.7131-7.1665 1.0801-10.749z" fill="#fbfafb"/><path d="m199.9611 175.8324c-1.2442 3.0213-2.3322 6.1187-3.76 9.0507-5.7835 11.8767-10.5409 24.1522-14.1528 36.8438-2.8463 10.0013-4.7445 20.2141-5.6293 30.5933-.0873 1.0246-.0284 2.0617-.0366 3.093-.2991.2083-.8016.3652-.8694.6324-2.2025 8.6875-4.6109 17.3342-6.4294 26.103-.9635 4.6461-.8912 9.5069-1.2864 14.2708-3.045-.9503-6.0536-2.0533-9.1494-2.7899-1.688-.4016-2.2285-1.2374-2.3117-2.785-.5224-9.7238.3248-19.3896 2.0252-28.9163 4.0462-22.6698 12.1571-43.8542 24.7175-63.1942 4.9612-7.6391 10.5537-14.8684 15.8749-22.2727.2214-.3081.607-.4982.9161-.7432z" fill="#a80425"/><path d="m161.1521 406.2993.0999-.1021s.1243.0704.1249.0702c.4279-.1247.8551-.2491 1.2824-.3737 0 0-.0594.0286-.0592.0287.7095-.0129 1.4598.121 2.1214-.0634 3.5372-.9859 7.1573-1.7877 10.5551-3.1398 9.3393-3.7164 18.5668-7.7129 27.8765-11.5052 1.7821-.726 3.7379-1.0257 5.6136-1.522-8.4464 5.45-17.4505 9.7795-26.8628 13.2649-24.8205 9.191-50.4847 14.358-76.8808 15.9399-2.2238.1333-4.4952-.0663-6.712-.3578-11.1899-1.4711-22.4598-2.4946-33.1613-6.5343-16.1959-6.1137-26.4013-17.6187-31.0144-34.1734-4.2306-15.1819-4.1367-30.3862.1225-45.5578.3101-1.1045.8062-2.1567 1.5153-3.1792-1.4342 12.8072-1.0355 25.4623 2.0242 38.0372.0599-.8473.147-1.6937.1725-2.542.0287-.9537.0018-1.9091-.0009-2.8636.7276 3.0936 1.4608 6.1857 2.1817 9.2808 1.8238 7.8297 4.1185 15.5106 9.2571 21.8819 9.647 11.961 22.7422 17.795 37.5384 20.0579 6.0496.9252 12.2444.9973 18.3817 1.1998 2.1684.0716 4.362-.6233 6.5441-.9682 16.1097-.2383 31.9684-2.2967 47.5263-6.545.2216-.0605.4729-.0123.7103-.0149.3479-.1064.6957-.2126 1.0435-.3189z" fill="#e0b5db"/><path d="m74.2091 311.9705c-.367 3.5825-.8509 7.1576-1.0803 10.7489-.8756 13.7083.0012 27.2737 3.8688 40.5221 3.3164 11.3602 11.4055 18.3601 21.9785 22.4852 5.4426 2.1235 11.2751 3.7441 17.0639 4.3734 10.1682 1.1053 20.3795.2147 30.4529-1.6859 8.0078-1.5109 15.9911-3.1509 23.9986-4.6635.7981-.1507 1.6883.1858 2.5358.2962-8.3244 2.2572-16.5814 4.815-24.9885 6.705-14.4717 3.2535-29.1047 4.7585-43.8704 1.9628-9.8729-1.8694-19.3246-4.8257-26.7805-12.0345-8.7759-8.485-12.3218-19.2882-13.2342-31.1229-.8758-11.3595 1.4629-22.3393 4.4303-33.1911 3.3551-12.2698 8.0884-23.9726 15.0554-34.6836.3946-.6067 1.1768-.9612 1.7786-1.4328-1.1443 2.532-2.3557 5.0361-3.4134 7.6036-.9901 2.4034-1.8173 4.8739-2.7163 7.3149-1.0036 2.1574-2.1179 4.2712-2.9885 6.4811-2.0452 5.1916-3.9806 10.4265-5.9342 15.6537-.1268.3393-.0308.7619.5135 1.3999 1.1102-2.2442 2.2201-4.4883 3.33-6.7325z" fill="#e0b6dd"/><path d="m205.0375 400.3243c-.5235.5721-.954 1.2883-1.5842 1.6954-17.8615 11.5382-36.9322 20.4227-57.3406 26.5023-12.1416 3.617-24.3622 6.6723-36.9734 8.137-3.3949.3943-6.4969-.2621-9.5909-1.2861-9.3936-3.1089-18.7609-6.2973-28.1321-9.4736-.7389-.2505-1.4285-.6464-2.0805-1.2621 2.1566.0747 4.3295.0062 6.4673.2478 11.9673 1.3525 23.9196.7026 35.888-.0105 17.9583-1.0699 35.5574-4.1986 52.8594-9.0194 12.8964-3.5933 25.5834-7.7877 37.4-14.2459.97-.5301 2.0231-.9083 3.0377-1.3569 0 .0003.0493.072.0493.072z" fill="#b8143e"/><path d="m111.872 413.178c-2.1821.3449-4.3758 1.0398-6.5441.9682-6.1373-.2025-12.3321-.2746-18.3817-1.1998-14.7962-2.2629-27.8913-8.097-37.5384-20.0579-5.1387-6.3713-7.4334-14.0522-9.2571-21.8819-.7209-3.095-1.4541-6.1872-2.1817-9.2808-.0419-.3901-.0837-.7802-.1249-1.1706-.0141-.4233-.0289-.8463-.0437-1.2692-1.1369-12.4462-1.3767-24.8135 3.2886-36.7381.3473-.8877.6851-1.8203 1.2363-2.5805 4.8411-6.6769 9.7285-13.3203 14.6109-19.9672.124-.1688.3471-.2648 1.0774-.8016-.3289 1.3575-.4471 2.2258-.7468 3.0262-5.8947 15.7429-10.5445 31.8103-11.6724 48.665-.9892 14.782 1.7508 28.7307 10.6395 41.0047 6.5151 8.9964 15.4984 14.4235 25.9276 17.6738 9.6758 3.0156 19.6753 3.4885 29.7105 3.6097z" fill="#faf9f9"/><path d="m72.4035 282.2257c-.9055 2.3733-1.7009 4.7959-2.7364 7.1111-3.7586 8.4028-6.6371 17.0809-8.8726 26.0158-2.7232 10.8842-4.7928 21.8777-5.6571 33.0461-.5094 6.5826-.6597 13.2477-.2661 19.8335.72 12.0457 6.4809 20.9543 17.502 26.4274 8.0442 3.9948 16.2267 7.7299 24.9457 9.7208 6.0787 1.388 12.471 1.6519 18.7432 1.8899 11.634.4413 23.1014-1.2854 34.4497-3.676 7.2769-1.5329 14.4781-3.4243 21.7232-5.1122.4922-.1147 1.0684.1315 1.6057.2099-9.2921 2.633-18.4817 5.735-27.899 7.7961-16.7672 3.6695-33.7902 4.6668-50.8768 2.546-10.5867-1.3141-20.4896-4.6497-28.7099-11.7679-10.2665-8.89-14.8661-20.6225-16.3009-33.7884-1.3401-12.2969.775-24.2746 3.6872-36.1533 3.0976-12.6353 6.949-25.0009 13.497-36.3459 1.5491-2.684 3.4345-5.1738 5.1651-7.7529z" fill="#e0b6dd"/><path d="m147.0209 347.5503c.8671.0518 1.7342.1035 2.6012.1553.0173.154.0347.3079.052.4619-.8743.1471-1.7486.2942-2.623.4413-.0962.1925-.1923.385-.2885.5775 3.1901 1.3892 6.3034 3.003 9.5848 4.1254 9.8591 3.3723 19.9988 3.0531 30.07 1.4135 9.3777-1.5267 18.6635-3.6162 27.9953-5.4295 1.0009-.1945 2.0388-.1983 3.0597-.2906-13.4856 6.1901-27.4201 10.7625-42.3861 11.3802-10.2968.425-20.4944-.0225-30.254-3.9669-17.3671-7.019-26.1453-21.0865-23.8924-39.6497.9782-8.0603 3.1705-15.9732 4.8884-24.3282 2.3004.6357 4.0037 1.1064 5.9251 1.6373-6.7258 10.3796-6.2308 21.456-4.2888 32.6729 1.314 7.59 5.2323 13.5112 11.8557 17.5605 2.3282 1.6461 4.4706 3.7353 7.7006 3.2391z" fill="#e0b5db"/><path d="m228.0149 430.1213c7.7496-6.582 15.0379-13.6305 20.9993-21.9001 2.8862-4.0038 5.3418-8.318 7.9918-12.4914.1376-.1521.2759-.3044.4141-.4566 0 0-.0007-.0118-.0005-.0115.5744-.2215 1.256-.3134 1.7063-.6853 4.4391-3.666 8.8397-7.3784 13.2513-11.0777-2.1152 7.9432-4.1556 15.9075-6.384 23.8188-.8424 2.9908-2.1737 5.8406-3.1797 8.7896-.7286 2.1357-1.8622 3.7645-3.9586 4.8436-6.1134 3.1467-12.154 6.4349-18.2227 9.6678-4.2054-.1656-8.4114-.3314-12.6173-.4972z" fill="#ce2b5e"/><path d="m337.7549 370.9239c2.5579 1.071 5.0882 2.2145 7.6786 3.2003 11.0933 4.2217 22.1183 8.6491 33.3446 12.4847 5.7679 1.9707 11.9069 2.8554 17.8786 4.2312 1.0334 1.2655.7169 2.1614-.7515 2.7384-7.3654 2.8942-14.7197 5.8175-22.1163 8.6293-.6581.2502-1.8159.0447-2.3661-.4068-11.2983-9.2709-22.4881-18.6682-32.5102-29.3534-.434-.4627-.7739-1.0137-1.1577-1.5237z" fill="#ba143e"/><path d="m223.3656 430.1225c-5.9128 3.9377-11.6765 8.1329-17.8123 11.6857-2.4327 1.4086-5.6625 1.6305-8.5789 1.9793-10.5504 1.2623-21.1343 1.9948-31.7731 1.3147-1.8967-.1212-3.8041-.0746-5.7479-.5183 4.0573-1.0615 8.1339-2.0547 12.1681-3.1977 10.8187-3.0651 21.1547-7.3329 31.0636-12.6441.4103-.2199.8797-.3297 1.3227-.4905 6.4532.6238 12.9055 1.2473 19.3578 1.8709z" fill="#b8143e"/><path d="m212.9244 422.8809c.7156-.5964 1.4033-1.2305 2.1509-1.7836 13.7976-10.2086 26.3281-21.7449 35.4905-36.3718 4.4254-7.0647 7.7184-14.8387 11.5242-22.2915-.1737-.0892-.3474-.1785-.521-.2677 1.3689-.2841 2.7378-.5683 4.6371-.9626-1.3926 5.0493-2.6053 9.9065-4.0774 14.6838-2.6685 8.6601-6.3227 16.9015-11.0037 24.6736-.1595.2649-.4148.4721-.6257.7061-.2121.3078-.4239.6156-.6356.9235 0 0 .0225-.0108.0224-.0108-.6688.1563-1.4367.1517-1.9915.4932-8.6676 5.3344-17.2562 10.7991-25.9835 16.0331-2.817 1.6893-5.9813 2.7995-8.9867 4.1747z" fill="#b8143e"/><path d="m213.5994 158.0063c-1.4638 5.3576-2.4524 10.9029-4.4816 16.037-5.7921 14.6549-11.9622 29.1615-18.0739 43.6885-3.4581 8.2196-7.088 16.3669-10.664 24.5366-.216.4935-.6396.8961-.9659 1.3406 1.7892-8.009 3.3016-16.0915 5.4212-24.0116 5.1011-19.061 14.5979-36.2867 23.1433-53.8893 1.3659-2.8138 3.7224-5.1467 5.6209-7.7018z" fill="#a80425"/><path d="m27.1046 384.6664c-4.1412-8.6656-6.3855-17.7505-5.8754-27.3998.0911-1.7227.3388-3.5563 1.0345-5.105 1.8785-4.1819 4.0375-8.2377 6.1728-12.5192-.3049 6.9167-1.0333 13.4689-.7871 19.9842.4739 12.5369 3.0137 24.6161 9.8327 35.4695 4.4902 7.1468 10.6084 12.5583 17.656 17.0294-.7027-.1245-1.454-.1289-2.0998-.3923-5.7361-2.3384-10.8183-5.7228-14.516-10.6903-3.6598-4.9167-6.8205-10.2043-10.2285-15.3103-.2863-.4289-.7877-.7142-1.1892-1.0662z" fill="#f9f5f6"/><path d="m212.9244 422.8809c3.0054-1.3752 6.1697-2.4854 8.9867-4.1748 8.7272-5.234 17.3159-10.6987 25.9835-16.0331.5548-.3415 1.3227-.3369 1.9915-.4932-3.4072 4.4027-6.4622 9.146-10.3087 13.124-5.0793 5.2532-10.7791 9.9066-16.212 14.8182-6.4521-.6231-12.9044-1.2467-19.3577-1.8705 2.1584-1.3493 4.3178-2.6985 6.4769-4.0478.303-.1637.6064-.3273.9098-.491.1815-.123.3631-.246.5448-.3686.3307-.1364.6612-.2732.9917-.41z" fill="#ce2b5e"/><path d="m27.1046 384.6664c.4015.352.9029.6373 1.1892 1.0662 3.408 5.106 6.5687 10.3936 10.2285 15.3103 3.6977 4.9675 8.7799 8.3519 14.516 10.6903.6458.2633 1.3972.2678 2.0998.3923 5.2489 2.2046 10.4975 4.4092 14.5003 6.0905-4.6857-.5511-10.7644-.8727-16.6448-2.1254-2.8903-.6158-5.5748-2.7344-8.0737-4.5553-9.8054-7.145-18.4768-15.3618-23.6556-26.6259-3.7791-8.2197-4.4333-17.2222-1.725-24.3191.1182 9.7029 2.381 18.45 7.7522 26.8674-.0868-1.2966-.1368-2.0439-.1869-2.7913z" fill="#ddb3d8"/><path d="m272.3772 383.4986c-4.4115 3.6993-8.8122 7.4118-13.2513 11.0777-.4503.3719-1.1319.4638-1.7063.6853 1.936-4.6283 4.1638-9.1596 5.7366-13.908 2.0999-6.3395 3.9014-12.7985 5.4164-19.3028.8161-3.5039 2.8817-5.4157 6.4539-7.2796.5647 10.0357-.6049 19.4134-2.6493 28.7274z" fill="#b8143e"/><path d="m265.188 416.087c.2177-.4628.4353-.9256.6529-1.3884.4411-.5568.9622-1.0679 1.3111-1.6777 3.3347-5.8288 6.7133-11.6344 9.9311-17.5275 2.6016-4.7646 5.1086-9.5884 7.4399-14.4894 1.113-2.3395 1.7208-4.9194 2.5573-7.3904.144 7.072.3812 14.1444.3507 21.2156-.0059 1.3624-.7798 2.9519-1.678 4.0424-5.6872 6.9044-12.6006 12.4354-20.0107 17.3766-.1848-.054-.3696-.1076-.5543-.1612z" fill="#e64991"/><path d="m167.7971 296.4193c.3953-4.7639.3229-9.6248 1.2864-14.2708 1.8185-8.7688 4.2269-17.4155 6.4294-26.103.0677-.2672.5703-.4241.8694-.6324-1.9347 15.9103-.2361 31.5318 3.7252 46.9751.0339.1321-.0617.2975-.1576.7064-4.2118-2.0207-7.1703-6.274-12.1528-6.6753z" fill="#b8143e"/><path d="m136.861 295.7241c-.703 3.2524-1.7916 6.4772-2.0262 9.7631-.446 6.2475-.6078 12.5333-.5059 18.797.1 6.1462 1.8554 11.9294 5.058 17.2346.305.5053.361 1.1609.5325 1.7469-4.0032-3.0322-7.4745-6.5659-9.3309-11.3041-3.6431-9.2983-4.2524-18.839-1.4365-28.4556.6619-2.2607 2.0994-4.289 3.1288-6.4488 1.0445-2.1913 2.5422-2.6452 4.5802-1.3331z" fill="#e0b6dd"/><path d="m287.0804 373.6136c-.8366 2.471-1.4444 5.0509-2.5574 7.3904-2.3314 4.901-4.8384 9.7248-7.4399 14.4894-3.2178 5.8931-6.5964 11.6987-9.9311 17.5275-.3488.6097-.87 1.1208-1.3111 1.6777 2.2539-6.4575 4.6919-12.8582 6.7047-19.3899 1.6852-5.4685 2.8737-11.0901 4.2823-16.6438 1.0606-.8191 2.2007-1.5548 3.1656-2.4743 2.2293-2.1243 4.3738-4.3376 6.5527-6.5148.178 1.3127.3561 2.6253.5342 3.9378z" fill="#ce2b5e"/><path d="m297.1623 398.1708c6.4636 4.2929 12.7771 8.486 19.0906 12.6792.0143.1592.0286.3184.0429.4775-9.358-.3649-18.716-.7298-28.5575-1.1135 3.3573-4.2904 6.3981-8.1763 9.424-12.0432z" fill="#b8143e"/><path d="m290.823 362.9246c1.5756-.3849 3.1511-.7697 4.9087-1.1991.1046 10.5383.0194 21.4117-6.1753 31.1722.6609-8.3962-.0302-16.6962-1.3087-24.9647-.0404-.1721-.081-.3444-.1216-.5167-.0236-.3214-.0473-.6428-.0711-.9644.9226-1.1758 1.8453-2.3516 2.768-3.5273z" fill="#e64991"/><path d="m286.5461 369.6759c-2.1789 2.1772-4.3234 4.3905-6.5527 6.5148-.9649.9195-2.1049 1.6552-3.1656 2.4743.481-5.3978.9925-10.7931 1.424-16.1947.122-1.5274.3015-2.6884 2.1847-3.1076 1.0728-.2388 1.965-1.2897 3.497-2.368.9104 4.419 1.7615 8.5501 2.6126 12.6812z" fill="#b8143e"/><path d="m245.8651 65.3126c-.4188 2.0704-.8376 4.1408-1.2567 6.2111-5.4012-1.8328-4.9856-6.5348-5.3941-11.2597 5.5801-.9499 11.1949-1.9058 16.8099-2.8618.6714.3785 1.3065.8547 2.0202 1.1186 2.8797 1.065 5.7837 2.0645 8.6787 3.0882-2.2223-.1321-4.4453-.2531-6.6667-.3992-2.3069-.1517-4.6122-.3277-6.9183-.4928-.982-.2657-2.083-.9371-2.915-.6927-.99.2908-1.7491 1.3678-2.6082 2.1042-.8585.9101-2.5072 1.3859-1.7498 3.1841z" fill="#ce2b5e"/><path d="m208.7667 389.6921c-1.8757.4963-3.8315.7961-5.6136 1.522-9.3098 3.7923-18.5373 7.7888-27.8765 11.5052-3.3978 1.3521-7.0178 2.1539-10.5551 3.1398-.6616.1844-1.4118.0505-2.1214.0634 8.579-3.0871 17.2425-5.961 25.7175-9.3118 12.3151-4.8691 24.1422-10.7809 35.4147-17.7647.6299-.3902 1.3078-.703 1.9633-1.0518.1843.302.3686.604.5528.9061-5.1052 3.2504-10.2103 6.5008-15.3156 9.7513-.2296.1208-.459.2418-.6885.3626l.0195-.0103c-.5.2945-.9998.589-1.4998.8835z" fill="#ece3e7"/><path d="m228.0149 430.1213c4.2059.1657 8.4118.3315 12.6173.4971-8.3632 4.3526-17.2289 7.2811-26.438 9.2811 4.6069-3.2594 9.2139-6.5188 13.8207-9.7782z" fill="#b8143e"/><path d="m269.8988 343.6255c.5671-1.9853 1.3481-2.9642 3.6881-2.6581 4.7903.6267 9.634.8454 14.7959 1.2594.1584.4633.4859 1.4208.9124 2.6682-6.7018 1.8494-12.9755.3691-19.3964-1.2695z" fill="#bb9168"/><path d="m265.6627 357.1123c-.5259-2.7796 3.7777-5.1417-.0677-7.7778.9056-1.2998 1.7536-2.6267 2.7319-3.8493.2688-.3359 1.0326-.6237 1.3891-.4816 1.6227.6469 3.2161 1.3912 4.7484 2.231.8069.4422.2261 4.0045-.9651 4.8429-2.5066 1.7644-5.1538 3.3289-7.8366 5.0348z" fill="#a77749"/><path d="m420.9615 390.1611c3.9231-2.8282 7.6467-5.5862 11.4767-8.1874.5213-.3541 1.6065-.0405 2.3734.1712.915.2527 1.7682.7287 3.3365 1.4046-2.8261 1.275-5.5018 1.9675-7.5007 3.5273-2.0347 1.5878-3.4031 4.0294-5.2806 6.3677-1.1275-.8403-2.7286-2.0337-4.4053-3.2834z" fill="#bb9168"/><path d="m419.833 390.6567c1.8054 1.9431 3.4199 3.6809 5.6504 6.0816-2.9094-.1317-5.2814-.6962-7.4132-.2091-2.2046.5037-4.1758 2.0284-6.5937 3.2858-.6019-.6662-1.4748-1.6322-2.5247-2.7942 3.7317-2.1825 7.266-4.2497 10.8812-6.3641z" fill="#a77749"/><path d="m266.7231 61.6091c-2.895-1.0237-5.799-2.0232-8.6787-3.0882-.7137-.2639-1.3489-.7401-2.0202-1.1186 7.6559-1.9991 12.9258-.755 19.0315 5.172-1.9804-.2329-3.9609-.4658-5.9413-.6992-.5292-.0613-1.0583-.1222-1.5875-.1832-.268-.0277-.5359-.0552-.8038-.0828z" fill="#e64991"/><path d="m409.6256 402.2932c-2.7399 2.4733-4.991 4.7387-8.6858 4.8241-.4548-1.7545-.9055-3.4932-1.3952-5.3828 1.9682-.9626 3.7895-1.9408 5.692-2.721.4648-.1906 1.342.0956 1.7739.4631.9041.7692 1.6382 1.7385 2.6151 2.8166z" fill="#a77749"/><path d="m277.5687 348.3109c2.0339.2392 3.2156.3567 4.3906.5216 1.5788.2216 2.6679 1.9612 1.7411 3.2132-1.3219 1.7857-3.035 3.2819-4.581 4.9018-.2856-.1181-.5712-.2361-.8567-.3542-.221-2.637-.4419-5.2742-.694-8.2824z" fill="#a77749"/><path d="m291.9851 359.6671c-1.8865-3.6549-3.5679-6.9122-5.3642-10.3923 1.2245-.1566 2.3729-.3036 3.712-.4748.9592 3.4282 4.6621 6.2401 1.6522 10.8671z" fill="#ddb3d8"/><path d="m436.1632 379.0486c1.5164-1.355 2.7044-2.5404 4.0358-3.5338.4229-.3156 1.4632-.3991 1.8122-.1045.9616.8117 3.4946.726 2.225 3.0379-1.4469 2.6347-3.5268 3.3847-5.4339 2.1924-.7936-.4963-1.6024-.9679-2.6391-1.592z" fill="#bb9168"/><path d="m397.4853 407.6902c-3.3908-.1454-6.5329-.2802-9.675-.415-.0494-.1698-.0988-.3396-.1482-.5094 2.6943-1.1348 5.3885-2.2695 8.2213-3.4626.548 1.5009 1.0255 2.8086 1.6019 4.387z" fill="#a77749"/><path d="m79.2885 295.1682c.8989-2.441 1.7262-4.9115 2.7163-7.3149 1.0577-2.5675 2.269-5.0717 3.4134-7.6036.6043.1652 1.2085.3305 2.2345.6112-2.8608 4.8934-5.6125 9.6004-8.3642 14.3073z" fill="#ece3e7"/><path d="m290.823 362.9246c-.9227 1.1758-1.8455 2.3515-2.7679 3.5274-.9083-3.6662-1.8167-7.3325-2.7252-10.9987.0921-.0287.1842-.0574.2763-.0862 1.7389 2.5191 3.4779 5.0383 5.2168 7.5575z" fill="#ce2b5e"/><path d="m70.6377 274.9242c.7786.3512 1.3497.6088 2.2129.9981-1.3324 1.5434-2.5629 2.9688-3.7934 4.3941-.1872-.1265-.3744-.2531-.5616-.3796.6825-1.597 1.365-3.1942 2.1421-5.0126z" fill="#ece3e7"/><path d="m381.7647 112.8896c-.187.2666-.3739.5333-.561.7998-3.1349-.618-6.2695-1.2359-9.4043-1.8538.0476-.2257.0953-.4514.1429-.6772 3.2742.5771 6.5483 1.1541 9.8224 1.7312z" fill="#ce2b5e"/><path d="m147.0209 347.5503c-3.23.4962-5.3724-1.593-7.7006-3.2391.2332-.2141.466-.4286.6982-.6436.2693.0784.5391.1571.8089.2358 2.0645 1.2156 4.129 2.4313 6.1935 3.6469z" fill="#a77749"/><path d="m247.615 62.1285c.8591-.7364 1.6182-1.8134 2.6082-2.1042.832-.2444 1.933.427 2.915.6927-1.8411.4704-3.6822.9409-5.5232 1.4115z" fill="#e64991"/><path d="m198.8442 374.2963c.0401-.3094.0801-.6188.1203-.9282 1.8801-.7769 3.7601-1.5537 5.6401-2.3305.0892.1979.1784.3959.2676.5938-2.0094.8883-4.0187 1.7766-6.028 2.6649z" fill="#ddb3d8"/><path d="m174.8584 397.3126c.4861-.1674.9723-.3347 1.4585-.5021-.4861.1673-.9723.3347-1.4585.5021z" fill="#e0b6dd"/><path d="m208.7641 389.6875c.4999-.2946.9998-.5891 1.4998-.8835-.5.2944-.9999.5889-1.4998.8835z" fill="#e0b5db"/><path d="m220.4715 359.4734c.5225-.2628 1.0451-.5256 1.5676-.7884-.5225.2628-1.045.5256-1.5676.7884z" fill="#e0b6dd"/><path d="m206.5736 399.5174c-.5124.2684-1.0249.5369-1.5368.8061.0006.0009-.0486-.0709-.0487-.0711.5122-.2656 1.0246-.5309 1.5375-.7954.0006.0007.048.0604.048.0604z" fill="#b8143e"/><path d="m265.188 416.087c.1847.0536.3695.1072.5543.1613-.3086.1178-.6173.2351-.926.3524.1239-.1713.2478-.3425.3717-.5137z" fill="#ce2b5e"/><path d="m267.5268 61.6918c.5291.0609 1.0583.1218 1.5875.1832-.5292-.0608-1.0583-.122-1.5875-.1832z" fill="#ce2b5e"/><path d="m212.9309 422.9343c-.3305.1367-.661.2735-.9917.41.3305-.1369.6611-.2735.9917-.41z" fill="#b8143e"/><path d="m37.8003 359.2861c.0148.423.0296.8459.0437 1.2692-.015-.4228-.0294-.846-.0437-1.2692z" fill="#e0b5db"/><path d="m161.1521 406.2993c-.3478.1063-.6956.2125-1.0434.3188.3477-.1063.6955-.2125 1.0434-.3188z" fill="#ece3e7"/><path d="m265.0941 350.0871c-.0307.0556-.0615.1113-.0922.1669-.0497-.0704-.1116-.1363-.1407-.2143-.0072-.0196.0912-.0785.141-.1194.0307.0557.0613.1112.0919.1668z" fill="#a77749"/><path d="m162.6593 405.8938c-.4273.1245-.8545.249-1.2824.3737.4271-.1244.8547-.2491 1.2824-.3737z" fill="#ece3e7"/><path d="m249.8637 402.1906c.2117-.3079.4235-.6157.6356-.9235-.2117.3079-.4236.6157-.6356.9235z" fill="#ce2b5e"/><path d="m211.3944 423.7129c-.3034.1636-.6068.3272-.9098.491.3035-.1636.6066-.3273.9098-.491z" fill="#b8143e"/><path d="m140.8274 343.9034c-.2698-.0787-.5396-.1574-.8089-.2358-.1417-.11-.18-.249-.1144-.4165.3078.2175.6155.4349.9233.6523z" fill="#e0b6dd"/><path d="m222.0243 358.6913c.3177-.1452.6354-.2903.9532-.4355-.3177.1452-.6355.2904-.9532.4355z" fill="#e0b6dd"/><g fill="#b8143e"><path d="m207.1496 399.1398c-.1923.1256-.3846.2511-.5764.3771.0004.0005-.047-.0592-.0476-.06.1736-.1503.3478-.2998.522-.4493z"/><path d="m207.0476 399.0076c.1093-.0472.2187-.0945.328-.1418-.0756.091-.1512.1821-.2263.2736.0003.0003-.1017-.1318-.1017-.1318z"/><path d="m208.6249 398.2766c-.0445.053-.0891.106-.1336.159.0477-.0491.0954-.0981.1431-.1472z"/><path d="m208.6345 398.2884c.0365-.0558.0729-.1116.1093-.1674-.0396.0518-.0793.1037-.1189.1556z"/><path d="m257.4201 395.2731c-.1382.1523-.2765.3045-.4141.4566.1385-.1523.2763-.3044.4141-.4566z"/></g><path d="m210.2443 388.8142c.2295-.1209.4589-.2418.6885-.3626-.2294.1208-.4589.2417-.6885.3626z" fill="#e0b5db"/><path d="m280.2423 116.8763c-.21-.2209-.42-.4418-.63-.6629.21.2208.42.4418.63.6629z" fill="#e74a93"/><path d="m288.1262 367.4163c.0406.1723.0811.3446.1216.5167-.0407-.1724-.0811-.3445-.1216-.5167z" fill="#ce2b5e"/><path d="m199.8698 175.7179c.099-.0519.1981-.1039.2972-.1558-.0691.0896-.1381.1792-.2065.2695.0006.0008-.0907-.1137-.0907-.1137z" fill="#a80425"/><path d="m288.3795 334.3409c.1854-.0653.3708-.1307.5562-.1954-.1854.0655-.3708.1305-.5562.1954z" fill="#ba123e"/><path d="m262.2024 91.4665c.1738.2474.3477.4948.5215.7422-.0965.0636-.1929.1271-.2894.1907-.1648-.2587-.3295-.5173-.4971-.7743.0889-.0476.1782-.101.265-.1586z" fill="#5b0b1c"/><path d="m268.5595 99.0213c-.0941-.0757-.1881-.1514-.2821-.2271.0817.0848.1634.1695.245.2543-.0001 0 .0371-.0272.0371-.0272z" fill="#5b0b1c"/><path d="m206.6696 342.3029c-2.888.2483-5.7786.7347-8.6635.7031-11.5443-.1267-22.6981-1.7852-31.4785-10.2543-5.8304-5.6237-9.517-12.2466-7.8558-20.7929.0305-.157.0288-.3206.0638-.4762.3979-1.7671.99-3.8136 2.9647-3.7715.7728.0165 1.9049 2.2884 2.1636 3.6664.7398 3.94 1.4403 7.7572 3.7538 11.2437 3.6119 5.4431 8.6705 8.8936 14.5042 11.2936 5.5187 2.2704 11.1433 4.3091 16.8088 6.1852 2.4515.8118 5.123.9594 7.6946 1.4087.0148.2647.0296.5295.0443.7942z" fill="#e4bae1"/></g></svg>