<svg id="Food" height="512" viewBox="0 0 1000 1000" width="512" xmlns="http://www.w3.org/2000/svg"><g><path d="m805.061 293.838c-.092-3.433-.527-6.847-1.307-10.194 11.904-13.493 19.117-29.534 19.811-44.823.488-10.718-1.783-20.687-6.773-29.816 2.979-3.45 5.485-7.333 7.426-11.552 6.091-13.248 6.171-28.812.215-42.701-6.388-14.884-19.106-25.373-34.889-28.776-4.142-.893-8.39-1.296-12.668-1.213-7.764-14.216-21.623-24.661-38.785-28.362-3.979-.858-8.087-1.328-12.205-1.395-20.141-.325-37.674 11.601-46.104 29.385-6.717-.13-13.447.698-19.901 2.426-.425-5.418-1.643-10.75-3.673-15.853-5.456-13.732-16.426-24.505-30.893-30.338-2.85-1.144-5.787-2.049-8.725-2.683-15.676-3.38-31.531 1.053-43.384 10.9-6.584-22.767-25.619-41.657-50.413-48.901-1.612-.467-3.203-.873-4.768-1.21-10.706-2.309-24.947-2.576-39.566 5.28-6.317-5.78-14.042-9.891-22.509-11.717-7.359-1.587-14.838-1.384-22.24.599-12.461 3.341-22.601 10.184-29.546 19.289-7.303-6.396-16.381-11.019-26.637-13.23-3.983-.859-8.093-1.328-12.213-1.395-20.177-.325-37.702 11.597-46.115 29.385-13.96-.335-27.553 3.691-38.794 11.529-12.897-.082-25.155 3.957-35.005 11.321-3.669-1.716-7.492-3.018-11.415-3.864-14.824-3.196-29.782.33-42.111 9.929-11.944 9.296-19.092 23.136-19.608 37.972-.197 5.778.594 11.459 2.28 16.822-13.614 10.521-21.484 25.94-22.651 45.042-1.855 30.367 14.136 57.959 38.394 68.717.96 6.301 2.956 12.414 5.928 18.209-5.913 6.685-10.056 15.041-11.78 24.337-2.562 13.843.579 27.802 8.336 39.045-.111.298-.22.596-.332.896-9.2 25.085-10.658 52.797-11.722 73.031-.734 13.939-1.408 27.88-2.087 41.824-.872 18.038-1.749 36.073-2.75 54.103-2.06 37.12-4.274 74.226-6.498 111.333-1.697 28.441-3.405 56.879-5.03 85.326-1.845 32.281-3.376 61.202-4.673 88.422-.108 2.275-.24 4.573-.375 6.884-1.075 18.771-2.305 40.045 7.763 60.263 9.712 19.522 31.091 27.317 45.242 32.475l1.88.691c32.134 11.791 65.467 21.061 96.705 29.323 26.136 6.915 49.81 12.642 72.372 17.507.003 0 .008.002.008.002 44.064 9.502 83.625 15.652 120.946 18.808 23.905 2.021 44.6-5.082 65.709-13.285 18.856-7.646 38.414-16.758 61.548-28.676 24.266-12.504 31.186-38.095 36.238-56.784.511-1.876 1.012-3.731 1.521-5.538 14.871-52.753 31.504-110.173 50.846-175.542l7.15-24.155c11.428-38.565 23.237-78.438 34.541-117.798 1.631-5.689 3.582-11.747 5.646-18.161 7.57-23.55 16.001-49.755 14.891-75.547 12.284-9.343 20.452-23.044 22.747-37.938 21.339-8.959 34.523-31.053 38.627-52.647 5.89-30.962-13.606-56.257-38.625-66.981z" fill="#fff"/><g><g><path d="m377.024 918.105c-24.053-5.187-48.92-11.28-76.018-18.626l-9.749-2.628c-28.784-7.729-58.553-15.726-85.112-28.676-21.873-10.66-20.646-34.356-19.561-55.258l.236-4.722c1.473-32.817 3.345-66.329 4.979-95.163 1.767-31.152 3.625-62.298 5.489-93.447 2.057-34.409 4.111-68.822 6.046-103.242 1.792-32.057 3.272-61.161 4.527-88.972.79-17.524 1.605-35.645 5.338-53.213 4.002-9.644 10.284-17.798 18.237-23.813 6.114-4.626 12.363-6.293 18.57-4.955 7.496 1.616 14.723 7.764 20.356 17.307 3.21 5.436 5.985 11.334 8.671 17.037 5.889 12.503 11.977 25.426 22.943 34.227 3.505 2.814 7.449 4.708 11.73 5.631 11.431 2.465 25.44-1.697 42.834-12.718 3.496-2.215 6.891-4.522 10.267-6.819 9.038-6.137 18.38-12.486 29.175-16.568 3.652-1.387 7.247-1.712 10.676-.973 10.447 2.252 17.648 13.85 23.436 23.171.766 1.232 1.502 2.424 2.225 3.553 2.305 3.608 4.559 7.357 6.826 11.139 11.885 19.798 24.175 40.266 47.737 45.749l.622.138c22.475 4.844 42.554-11.843 58.685-25.248l1.524-1.266c2.393-1.985 4.788-4.116 7.224-6.274 8.15-7.25 16.575-14.742 26.576-18.469 2.311-.86 4.664-1.044 6.995-.542 8.599 1.854 15.2 12.551 20.012 20.357 1.017 1.644 1.939 3.146 2.78 4.386.975 1.443 1.984 2.966 3.032 4.546 4.735 7.141 10.107 15.236 16.411 22.21l.461.511-10.204 43.307c-31.581 134.134-64.235 272.832-102.658 407.365-2.204 7.717-4.292 14.665-6.386 21.242l-.285.897-.941.011c-4.589.054-8.5-.116-12.31-.536-33.106-3.648-66.306-9.705-97.261-15.709-8.061-1.563-16.101-3.215-24.128-4.945-.003-.001-.007-.002-.007-.002zm-61.432-379.446c-7.527-1.623-15.538-1.767-23.8-.425-32.491 5.279-47.78 37.067-51.253 65.057-5.319 42.879 18.153 87.006 36.266 116.475 15.491 25.194 34.302 52.568 61.542 58.441 5.887 1.27 12.055 1.493 18.321.66 46.181-6.137 90.094-43.879 106.833-59.826 27.811-26.49 43.264-59.477 43.509-92.872.228-31.584-18.307-56.082-47.215-62.416-12.502-2.698-26.67-1.256-44.77 4.504-6.964 2.212-13.469 5.585-21.091 9.972-3.733 2.146-7.334 4.846-10.814 7.458-1.416 1.063-2.821 2.117-4.237 3.135-4.091 2.954-7.514 4.08-10.468 3.442-5.284-1.139-7.326-7.549-8.967-12.695-.311-.985-.615-1.93-.919-2.779-8.398-20.413-23.655-33.974-42.937-38.131z" fill="#ff5671"/><path d="m337.757 771.646c-3.377-.729-6.622-1.815-9.643-3.229-16.177-7.57-27.536-24.662-37.551-39.746-1.369-2.061-2.708-4.08-4.025-6.017-10.638-15.654-20.045-33.39-27.96-52.714-17.396-42.478-15.456-82.047 5.325-108.562 11.492-14.672 28.658-20.803 47.096-16.827 18.377 3.963 34.173 17.056 41.217 34.171 3.615 10.045 7.19 18.449 14.54 20.035 2.78.6 5.965.243 9.739-1.085 6.487-2.281 12.638-6.653 18.588-10.881 5.287-3.763 10.758-7.648 16.609-10.227 14.44-6.353 30.559-8.558 46.614-6.378 1.387.185 2.72.422 4.026.704 12.068 2.603 21.494 9.223 28.013 19.675 11.708 18.781 11.067 44.879 6.557 63.039-7.195 28.994-28.888 56.846-64.459 82.78-39.109 28.514-70.964 40.378-94.686 35.262z" fill="#00eef0"/><path d="m485.773 463.172c-7.826-1.688-15.404-5.839-22.513-12.343-9.531-8.715-16.281-20.424-22.802-31.747-2.15-3.729-4.28-7.418-6.472-10.946l-1.749-2.84c-4.963-8.111-11.764-19.223-19.714-23.466-1.539-.819-3.185-1.422-4.892-1.79-14.098-3.04-31.789 10.066-44.706 19.636-3.815 2.824-7.415 5.492-10.493 7.44-14.749 9.343-27.263 12.734-38.258 10.363-1.742-.375-3.466-.909-5.111-1.582-11.489-4.689-18.197-17.316-23.101-26.536-1.668-3.147-3.349-6.932-5.126-10.944-6.346-14.328-14.25-32.164-28.375-35.21-1.024-.221-2.08-.36-3.174-.424-13.361-.75-23.122 7.861-28.958 15.216l-2.251-1.254c1.897-5.283 4.137-10.273 6.648-14.833 7.012-12.72 18.816-18.338 32.382-15.413.673.145 1.351.311 2.036.499 19.307 5.324 27.093 23.623 33.964 39.764l1.524 3.562c6.214 14.403 14.723 22.865 25.309 25.148 11.06 2.385 24.614-1.839 40.276-12.556l4.627-3.19c15.337-10.619 29.821-20.651 44.628-17.458 8.323 1.794 16.016 7.591 23.516 17.72 5.132 6.925 9.426 14.424 13.58 21.678 5.79 10.104 11.777 20.554 20.011 29.353 5.65 6.036 12.448 9.947 20.208 11.617 15.309 3.301 33.557-2.516 47.615-15.181 2.894-2.601 5.759-5.414 8.659-8.259 13.79-13.53 28.05-27.518 48.988-24.32.485.071.964.16 1.438.262 14.402 3.106 21.86 18.62 28.442 32.305 2.334 4.855 4.539 9.439 6.885 13.125 6.353 9.973 15.068 16.402 25.199 18.587 11.852 2.556 24.773-1.129 35.454-10.105 2.704-2.276 5.28-4.666 7.829-7.037 9.686-9.002 18.833-17.505 33.335-18.612 2.797-.212 5.388-.067 7.704.433 10.614 2.289 15.988 11.903 15.976 28.58l-.006 4.624-2.413-3.941c-2.723-4.445-6.251-9.396-11.753-12.428-.806-.443-1.71-.774-2.678-.983-5.28-1.139-13.035 1.177-22.433 6.697-6.109 3.586-12.125 8.738-17.947 13.718-12.825 10.979-26.088 22.331-42.043 18.89-4.924-1.062-9.947-3.536-14.926-7.356-2.092-1.602-4.172-3.475-6.543-5.888-.334-.55-.469-.681-.66-.77l-.227-.106-.169-.177c-6.28-6.655-11.47-14.461-16.493-22.016l-3.012-4.51c-1.109-1.638-2.23-3.42-3.385-5.255-4.168-6.619-8.89-14.119-15.041-18.019-1.688-1.069-3.482-1.814-5.329-2.212-12.671-2.732-27.104 10.823-37.648 20.717-2.689 2.525-5.228 4.915-7.444 6.748-15.859 13.163-36.833 27.673-58.388 23.025z" fill="#ff915b"/><path d="m514.341 937.461c16.446-50.643 29.33-103.543 41.796-154.695 3.612-14.831 7.221-29.644 10.906-44.396 19.375-77.445 38.789-156.958 59.368-243.09 1.974-8.26 6.416-27.02 6.416-27.02l1.649 1.592c6.516 6.29 12.875 10.035 19.443 11.452 2.039.439 4.125.651 6.193.632 16.771-.176 29.276-11.461 40.312-21.419 7.773-7.011 15.585-13.603 25.692-17.166 3.603-1.271 6.994-1.579 10.08-.913 8.527 1.839 13.526 10.709 17.547 17.838l.2.351-.038.403c-.271 3.032-.624 5.949-.991 8.569-3.268 23.114-10.446 46.249-17.388 68.625-2.404 7.735-4.791 15.428-7.002 23.063-8.975 30.988-18.298 62.433-27.322 92.839l-7.645 25.809c-15.017 50.714-28.594 97.355-41.506 142.599-1.503 5.257-2.823 11.294-4.219 17.685-4.734 21.612-10.09 46.107-25.637 58.189-14.035 10.906-33.203 18.306-50.107 24.838-4.086 1.577-8.08 3.121-11.892 4.667-13.542 5.262-28.3 10.257-44.537 11.253l-1.915.118z" fill="#ff5671"/><path d="m774.209 272.521c-.8-.768-1.649-1.502-2.542-2.208l-1.107-.876.964-1.037c7.32-7.854 11.565-19.007 11.07-29.105-.252-5.129-1.725-9.737-4.314-13.6 4.613 14.326.668 30.698-10.444 40.889l-.688.631-.816-.444c-2.647-1.436-5.473-2.485-8.387-3.113-3.064-.661-6.241-.862-9.44-.599l-1.41.113-.002-1.417c.027-22.552-8.923-39.455-25.211-47.601-2.128-1.061-4.465-1.87-6.948-2.405-9.826-2.119-21.599.12-30.727 5.839l-1.693 1.065-.289-1.982c-1.482-10.094-6.01-18.816-13.102-25.225l-.525-.475.115-.699 1.353-.042-1.218-.474c.434-11.339-3.936-22.396-11.994-30.257l-1.25-1.219 1.521-.854c9.09-5.104 20.027-6.8 29.998-4.65 3.729.804 7.209 2.132 10.348 3.944.67.522 1.133.892 1.581 1.326 3.496 3.337 5.739 7.701 7.909 11.921.311.608.623 1.215.935 1.814.163-1.352.118-2.724-.135-4.155-.337-4.307-2.229-8.817-5.082-12.189l-.333-.394.078-1.238c-1.41-8.269.264-15.987 4.709-21.732 4.33-5.596 10.852-8.913 18.848-9.592 2.634-.224 5.238-.062 7.754.481 13.383 2.886 23.261 16.725 22.479 31.507l-.001.495-.297.547c-.685.76-1.308 1.517-1.825 2.166-2.479 3.094-3.953 6.494-4.149 9.583-.115.468-.195.885-.248 1.259.698-.762 1.324-1.665 1.968-2.599.601-.863 1.198-1.723 1.861-2.49 2.771-3.227 6.283-5.416 9.936-7.563 1.079-.627 2.201-1.146 3.341-1.649 5.603-2.187 11.23-2.745 16.321-1.647 5.437 1.172 10.184 4.256 13.719 8.918 5.603 7.382 6.613 16.419 2.7 24.177-4.075 8.08-12.499 13.029-21.989 12.91-.972-.185-1.452-.131-1.897.101-1.734.521-2.115 2.107-1.833 3.487.12 1.255.638 2.118 1.554 2.711 15.576 10.122 22.264 21.738 20.425 35.516-1.747 13.136-11.786 25.554-19.852 32.195l-.896.738zm-140.225 80.279c3.518.759 7.059.895 10.523.407l.879-.128.208-.86c3.308-13.763 12.893-23.652 27.723-28.588l2.142-.713-1.682-1.501c-6.484-5.782-10.029-14.085-9.742-22.792.294-8.776 4.399-16.674 11.56-22.249 7.479-5.817 16.083-7.89 24.894-5.99 6.479 1.397 12.619 4.889 17.745 10.094l1.154 1.172.878-1.385c4.465-7.021 11.336-12.438 19.352-15.254l.85-.3.021-.907c.229-12.199-1.846-33.891-18.32-42.121-2.557-1.281-5.334-2.249-8.248-2.877-12.23-2.638-24.518.877-32.066 9.167-.771.849-1.696 1.175-3.077.877-.026-.006-.583-.118-.583-.118-.949-.205-2.074-.829-2.064-2.691.461-15.945-8.087-34.03-25.305-37.743-2.24-.483-4.594-.707-6.997-.66-10.67.201-20.122 5.157-25.917 13.598-5.604 8.145-6.814 18.333-3.354 27.974l.117.523c2.801 7.701 8.399 14.109 16.651 19.065-1.369.148-2.775.071-4.205-.237-7.094-1.53-13.392-8.405-16.482-14.54l-.316-.62-.689-.087c-11.648-1.471-22.223 4.269-29.004 15.751-8.176 13.844-8.268 31.918-.219 42.975l.43.59.73-.059c3.816-.312 7.726-.042 11.615.796 8.297 1.789 16.493 6.11 24.359 12.851 12.764 10.937 18.129 28.771 13.346 44.379l-.383 1.265 1.264.37c.733.219 1.466.405 2.212.566zm49.262 92.122.857-.688c2.932-2.356 5.872-5.007 8.721-7.568 2.89-2.602 5.877-5.294 8.91-7.735 3.049-2.45 6.523-4.647 10.344-6.535l1.164-.574-.572-1.17c-2.123-4.336-3.52-9.001-4.143-13.858l-.268-2.072-1.741 1.147c-8.064 5.284-17.827 7.289-27.483 5.648l-1.047-.178-.388.987c-3.884 9.858-3.142 24.85 4.821 31.872zm-361.638-54.066c10.04 2.165 20.996-3.871 30.39-10.061l1.336-.881-1.131-1.135c-8.523-8.525-12.977-19.66-12.222-30.54l.111-1.542-1.541.151c-4.753.472-9.548.193-14.251-.821-1.864-.402-3.731-.924-5.537-1.554l-1.695-.591-.041 1.794c-.249 10.582-5.436 19.935-14.229 25.657l-1.049.683.638 1.075c1.833 3.11 3.611 5.786 5.441 8.178 4.058 5.327 8.565 8.462 13.78 9.587zm45.66-117.01.894-1.414c4.973-7.875 12.917-13.495 23.605-16.702l2.203-.658-1.699-1.553c-7.286-6.666-10.66-16.487-9.039-26.271l.167-1.029-.964-.394c-7.57-3.087-15.15-9.177-19.789-15.888l-1.14-1.651-1.045 1.711c-1.647 2.688-3.598 5.208-5.802 7.49l-.804.833.733.899c10.767 13.185 11.597 31.2 2.066 44.826l-.859 1.231 1.338.68c3.349 1.699 6.369 3.947 8.978 6.679zm95.07 93.842 1.386.188.094-1.392c1.252-18.306 14.054-32.598 31.13-34.756l1.639-.208-.585-1.55c-5.408-14.347-3.089-33.288 14.776-40.956 3.721-1.589 7.49-2.541 11.219-2.822l1.488-.115-.313-1.46c-1.227-5.747-3.363-10.865-6.361-15.216-2.803-4.075-6.086-6.321-9.565-8.702-.569-.388-1.147-.785-1.731-1.194.406.042.821.103 1.234.192 4.977 1.073 9.535 5.537 11.816 8.101 3.715 4.188 6.387 9.937 8.154 17.565l.209.876.893.123c.759.102 1.514.233 2.252.392 1.275.275 2.494.636 3.615 1.069l1.598.618.174-1.699c1.236-11.883-2.439-21.127-11.225-28.258-6.355-5.155-12.609-8.344-19.121-9.748-3.596-.775-7.286-.982-10.969-.615-.165.017-.329-.011-.885-.115l-.675-.112-.475.491c-.793.82-1.638 1.623-2.575 2.386-3.738 3.042-9.352 6.419-14.883 5.226-.032-.007-.062-.013-.088-.019.997-.588 2.006-1.152 3.01-1.71 3.692-2.055 7.509-4.185 10.582-7.678.999-1.133 1.941-2.301 2.878-3.469l.74-.936c4.403-7.236 5.642-15.924 3.317-23.239-2.001-6.308-6.415-11.09-12.745-13.835-2.083-.903-4.225-1.594-6.37-2.057-14.838-3.2-28.601 4.358-34.24 18.801-.656 1.677-1.902 1.806-3.089 1.549-.013-.002-.657-.112-.657-.112-.775-.167-1.413-.616-1.919-1.343-4.631-6.689-11.597-11.589-18.631-13.106-6.419-1.384-12.557.025-17.758 4.073-7.193 5.6-10.96 13.769-10.072 21.852.857 7.801 5.821 14.393 14.037 18.196 1.173.113 2.365.3 3.551.556 5.232 1.128 9.834 3.403 12.321 6.085l.161.172.213.112c2.837 1.405 5.279 3.134 7.282 5.15-.053-.011-.1-.021-.155-.033-2.64-.569-5.289-1.43-7.844-2.257-2.609-.847-5.306-1.722-8.067-2.317-1.108-.239-2.226-.432-3.356-.566-1.184-.142-2.328-.192-3.79-.154-.157.04-.297.094-.434.174-16.032 2.167-26.334 8.361-31.435 18.824l-.216.253-.457.758.364.662c5.999 10.884 7.284 24.824 3.44 37.293-.108.333-.232.647-.358.964l-.494 1.322.303.521c4.875 8.37 13.546 14.605 23.195 16.688 9.602 2.07 18.87-.029 26.263-6.065 6.857-7.95 11.518-16.314 13.88-24.901 2.309 6.496.755 14.633-4.383 22.328l-.172.632.018.425c-.785 18.958 9.765 34.082 26.25 37.637.854.186 1.722.339 2.611.461zm89.267-58.277 1.503-1.662c5.681-6.29 12.067-10.717 18.993-13.153l1.52-.534-.836-1.375c-1.855-3.065-3.25-6.413-4.143-9.956l-.576-.788-.738-.201c-10.57-3.904-18.452-11.076-22.186-20.191l-.608-1.476-1.327.883c-1.514 1.01-2.997 1.865-4.527 2.606l-1.215.597.639 1.197c4.046 7.547 5.118 16.146 3.286 26.285l-.131.715.542.489c4.016 3.609 7.162 8.605 9.104 14.437zm78.255 79.99.686.064c5.142.481 12.47-.576 16.208-5.143l.432-.528-.441-1.448c-.102-.282-.202-.559-.275-.858-1.719-7.074-2.438-13.873-2.135-20.207l.07-1.458-1.454.092c-3.382.212-6.733-.054-10.25-.812-1.267-.273-2.538-.609-3.802-.994l-.983-.304-.528.883c-2.942 4.988-7.109 9.162-12.365 12.413l-1.749 1.079 1.721 1.125c6.062 3.953 11.09 9.313 14.532 15.495zm-124.811 47.75 1.13-.312c5.229-1.442 10.391-4.049 15.773-7.971 4.503-3.283 9.617-7.86 15.024-12.712 16.592-14.861 37.236-33.357 56.5-29.203 6.094 1.314 11.845 4.898 17.084 10.645 5.49 6.023 9.305 13.775 12.989 21.267l1.337 2.728 1.055-2.854c6.352-17.212-3.106-36.033-22.237-43.92-1.868-.856-1.649-2.428-1.29-3.511.189-1.202.874-2.009 2.04-2.401 11.779-3.978 19.509-12.938 21.206-24.586 1.945-13.354-4.508-27.804-16.047-35.948-6.271-4.423-12.481-7.319-18.479-8.612-14.766-3.184-28.006 3.34-38.4 19.083-.374.882-1.089 1.301-1.629 1.501l-.734.267-.111.771c-.858 5.947-3.678 10.788-9.049 15.421 2.094-5.354 4.516-11.801 5.189-17.776l.034-.322-.114-.299c-.14-.357-.16-.773-.053-1.637-1.355-12.15-9.113-22.105-18.859-24.207-5.975-1.289-12.244.387-18.129 4.85-12.291 9.332-11.164 24.556-4.597 35.506.523.878.638 1.776.271 2.906-.151 1.066-.747 2.318-2.691 2.216-9.07-.477-18.225 3.098-24.491 9.564-5.482 5.665-8.15 13.006-7.502 20.664 1.04 12.247 8.343 21 19.542 23.415 3.707.799 7.67.849 11.787.146.439-.077.846-.076 1.196 0 .994.214 1.459 1.004 1.804 1.901.59.932.59 1.875 0 2.883-6.546 11.11-6.524 25.88-.038 39.265zm-8.683.835 2.056.105-.777-1.902c-5.046-12.357-5.788-24.997-2.085-35.585l.579-1.651-1.746-.084c-1.875-.087-3.767-.339-5.618-.738-5.504-1.187-10.627-3.676-14.797-7.203l-1.064-.893-.824 1.115c-4.455 5.98-11.455 9.298-16.544 11.032l-1.613.549.955 1.417c10.352 15.361 21.986 30.019 36.872 33.229 1.515.326 3.067.533 4.606.609zm-46.106-41.02.957-.319c8.417-2.443 14.064-6.252 16.773-11.318l.359-.666-.398-.644c-1.707-2.72-2.915-5.644-3.584-8.691l-.2-.906-.925-.109c-1.446-.168-2.856-.404-4.229-.7-16.885-3.641-29.001-16.77-31.625-34.26l-.309-2.029-1.707 1.134c-3.072 2.039-6.538 3.602-10.553 4.704-5.964 1.603-12.438 1.738-18.729.381-9.681-2.087-18.208-7.425-24.014-15.024l-1.107-1.443-1.014 1.507c-5.236 7.77-12.88 13.429-22.111 16.359l-.765.242-.125.792c-1.724 10.58 2.337 21.293 11.145 29.395l.779.713 4.469-3.182c15.515-11.08 31.559-22.54 46.357-19.349 2.553.551 5.041 1.539 7.408 2.942 11.086 6.575 20.531 21.171 30.526 36.625l1.982 3.057zm206.531 56.303c6.409 1.382 12.725.243 19.314-3.481l1.477-.834-1.188-1.215c-8.802-9.019-9.297-25.454-5.236-37.028l.408-1.172-1.15-.468c-8.381-3.419-15.412-9.515-19.799-17.163l-.732-1.281-1.18.882c-4.519 3.375-10.266 4.302-14.299 4.485l-1.637.075.438 1.579c2.831 10.191 1.422 20.519-3.981 29.746l.865.981-1.19-.62-.495.672.404.729c3.102 5.62 7.547 12.708 14.442 17.678 4.684 3.377 9.115 5.481 13.539 6.435zm-89.365-178.569-.005-2.151c-.05-21.585 15.234-45.223 38.076-46.01l1.489-.052-.248-1.47c-1.941-11.492 1.634-23.646 9.568-32.518 7.107-7.952 16.68-12.018 26.951-11.45 2.457.139 4.891.461 7.221.964 3.354.724 6.58 1.833 9.578 3.296l2.189 1.067-.326-2.416c-1.928-14.234-11.66-25.262-24.804-28.096-2.482-.535-5.077-.775-8.152-.761l-1.345-.362-.539.579c-8.014 8.595-16.383 11.582-29.381 10.35 1.853-.693 3.738-1.332 5.633-1.968 7.502-2.528 15.261-5.143 20.811-11.514 1.75-2.003 3.277-4.093 4.73-6.503 6.132-12.773 5.832-29.971-9.318-37.54-2.418-1.211-4.932-2.099-7.48-2.648-8.107-1.748-16.131 0-21.999 4.799-5.715 4.668-8.804 11.786-8.794 20.483l-.139.664c-.114.359-.279.677-.538 1.005-.198.237-.409.425-.723.644-.198.147-.388.266-.691.412-.683.33-1.368.434-1.993.299-.391-.084-.752-.264-1.2-.622-.444-.286-.755-.66-1.043-1.342-7.552-12.476-17.351-20.327-28.325-22.694-11.914-2.569-24.938 1.292-37.658 11.167-10.035 7.792-15.827 19.888-15.48 32.358.305 11.176 5.607 21.127 14.636 27.37 4.054 2.325 7.581 3.885 11.114 4.911 1.3.376 2.614.703 3.934.988 5.869 1.266 11.939 1.698 17.805 2.113l2.508.183c-5.782 3.69-13.293 4.77-21.348 3.033-1.652-.356-3.312-.834-4.938-1.417l-.561-.201-.517.29-.585.366c-9.179 3.095-16.245 8-20.997 14.585l-.623.861.714.784c8.451 9.265 10.647 21.692 5.864 33.245l-.675 1.639 1.761.16c1.759.163 3.548.439 5.306.818 9.045 1.95 17.563 6.636 23.986 13.202.521.53.975 1.067 1.424 1.606l1.207 1.403.874-.365c3.669-1.537 6.858-3.6 9.476-6.134.663-.638 1.432-.962 2.541-.987.443-.092.879-.092 1.257-.011.837.181 1.397.759 1.78 2.008.207.373.324.765.383 1.389 2.032 8.409 7.315 14.867 15.698 19.202zm-129.256-60.7.879-1.389c8.145-12.813 23.663-19.641 37.736-16.606 3.029.653 5.943 1.757 8.67 3.276.861.485 1.673 1.012 2.473 1.542l1.016.669.742-.959c3.959-5.138 8.958-9.373 14.853-12.58l1.894-1.036-1.793-1.198c-10.435-6.971-16.948-18.564-17.875-31.805-.954-13.754 4.182-26.715 14.101-35.565 10.63-9.48 27.486-19.042 42.931-17.444.461.047.892.14 1.322.227l.99.191 1.838.292-.348-1.823c-2.684-14.265-13.715-26.371-29.502-32.384-1.998-.759-3.986-1.355-5.92-1.772-11.483-2.476-21.901 1.078-31.025 10.613-2.668 3.097-6.031 7.341-8.344 12.734-3.815 8.885-5.341 18.243-6.818 27.289-.239 1.445-.478 2.894-.726 4.387-4.684-11.266-3.892-24.839 2.164-35.811l.182-.327-.021-.372c-.008-.222.02-.455.139-1.049.114-11.648-7.268-21.709-17.538-23.924-3.816-.823-7.773-.521-11.759.896-12.308 4.383-18.805 14.898-16.943 27.45l.141.954.953.146c.672.103 1.336.222 2.001.365 9.227 1.99 16.36 7.87 20.087 16.552 3.616 8.428 3.689 17.433.195 25.357-3.185 7.237-8.993 12.641-16.347 15.21l-2.179.763 1.771 1.473c3.324 2.765 5.867 5.865 7.656 9.389 3.917 5.446 5.995 10.899 6.343 16.663.638 10.523-2.695 20.784-10.494 32.281l-.713 1.049 1.036.743c1.793 1.288 3.501 2.757 5.082 4.36zm-135.093-.928.984-.679c1.409-.965 2.953-1.891 4.59-2.749l1.14-.6-.587-1.149c-3.17-6.21-6.115-14.614-3.625-21.421.075.843.13 1.702.179 2.58.164 2.575.329 5.238 1.125 7.879 1.254 4.175 2.768 7.526 4.621 10.239l.585.85.959-.373c6.738-2.575 13.78-3.187 20.366-1.766 3.483.751 6.883 2.067 10.104 3.917 1.494.858 2.983 1.874 4.686 3.192l.938.731.813-.868c2.807-2.993 5.046-6.212 6.918-9.981 1.109-2.748 2.247-5.593 3.093-8.689 1.009-3.715 1.642-7.508 2.254-11.179.293-1.767.59-3.539.923-5.301 3.002 5.729 3.564 13.19 1.466 20.404l.013.618.129.383c2.128 8.519 11.794 17.247 19.523 20.448l1.12.463.549-1.079c2.024-4.005 4.864-7.443 8.433-10.222 7.454-5.803 16.051-7.865 24.852-5.968 1.648.356 3.299.855 4.911 1.483l.955.375.586-.844c7.547-10.802 10.389-21.271 8.449-31.116-1.922-9.731-8.427-18.221-19.328-25.231-.316-.2-.551-.477-.823-.815l-.193-.237-.275-.129c-1.673-.776-3.425-1.442-5.205-1.976-1.356-.408-2.714-.751-4.073-1.044-5.944-1.282-11.955-1.569-17.766-1.845-2.942-.141-5.965-.288-8.944-.554 7.65-3.775 18.396-4.641 29.33-2.283 2.836.612 5.617 1.429 8.263 2.435l.321.124.344-.054c.266-.041.523-.033 1.187.086 9.487.124 17.919-4.821 22-12.907 3.913-7.759 2.909-16.797-2.693-24.183-3.543-4.668-8.297-7.757-13.744-8.932-6.897-1.488-14.628.048-21.768 4.333-.723.438-1.469.586-2.541.355-.037-.008-.608-.129-.608-.129-.949-.205-2.065-.831-1.969-2.648.781-14.781-9.093-28.623-22.479-31.509-2.511-.542-5.118-.702-7.75-.477-8.004.675-14.521 3.994-18.853 9.591-4.451 5.744-6.119 13.462-4.71 21.732.319 1.855-.775 2.594-2.003 2.999-.627.352-1.272.459-1.918.32-.295-.064-.596-.177-.901-.344-3.286-1.786-6.856-3.101-10.611-3.911-10.674-2.302-22.111-.279-30.599 5.414-7.309 4.903-11.99 12.058-13.534 20.696-3.217 17.992 1.671 38.389 19.854 43.403.569.157 1.041.446 1.59 1.012.735.648 1.168 1.491 1.194 2.313.027.747-.286 1.457-.933 2.106-11.468 11.493-12.171 29.07-1.676 41.785zm-91.135 28.72.935.028.324-.879c.739-1.999 1.67-4.051 2.843-6.274l.685-1.297-1.362-.532c-8.77-3.411-21.051-11.876-22.03-21.819 4.116 9.82 14.516 16.701 24.081 19.415l.927.264.524-.804c1.797-2.751 3.573-5.142 5.43-7.307 10.288-12.011 26.032-17.457 41.094-14.209 10.04 2.166 18.506 8.137 23.83 16.817l1.069 1.741 1.132-1.704c1.658-2.49 3.62-4.892 5.835-7.139l.814-.826-.726-.906c-10.954-13.737-11.889-32.042-2.323-45.546l.872-1.23-1.342-.685c-18.37-9.378-23.59-33.643-18.021-51.691 1.004-3.252 2.392-6.365 4.139-9.255l1.215-2.01-2.353.03c-12.664.178-23.194 7.662-27.469 19.475-.097.125-.185.254-.264.407l-.112.885.226.55c.329.798.664 1.597.901 2.438 3.076 11.037 1.732 20.622-4.538 31.517 1.104-8.082 2.196-18.118.622-26.609-1.037-5.583-3.327-10.196-7.291-14.595-4.165-3.901-8.954-6.522-13.87-7.583-6.405-1.381-12.538.027-17.734 4.07-7.32 5.7-11.071 14.004-10.035 22.214 1.014 7.973 6.271 14.573 14.438 18.117l.474.124c.533.115.945.359 1.431.938 1.193 1.021.872 2.638-.049 3.898-.11.188-.247.351-.404.528-.583.659-1.229 1.029-2.033 1.156-23.405 3.668-35.958 17.058-34.446 36.736.824 10.727 5.083 36.188 26.762 40.862 1.844.397 3.796.627 5.799.69zm86.709 124.483 1.25-.888c8.552-6.098 12.105-15.642 9.996-26.879-.38-2.052.978-2.719 2.095-3.037.596-.307 1.209-.396 1.824-.264.299.064.604.18.91.344 3.286 1.789 6.856 3.106 10.615 3.917 10.67 2.301 22.112.277 30.599-5.416 7.304-4.902 11.985-12.059 13.535-20.696 3.213-17.993-1.676-38.39-19.859-43.402-.569-.154-1.032-.442-1.576-.997-.971-.871-1.688-2.456-.495-4.041l.231-.406c7.769-7.971 10.691-20.266 7.439-31.319-3.028-10.295-10.611-17.549-20.813-19.903l-.598-.131c-16.285-3.512-30.377 3.298-38.678 18.711-1.298 2.523-2.197 4.769-2.831 7.064-1.87 6.773-1.775 13.337-1.685 19.683.047 3.149.092 6.397.061 9.398-7.188-7.497-6.448-20.68-3.246-30.771l.171-.538-.272-.49-.347-.544c-3.75-11.111-11.721-18.506-22.448-20.819-14.033-3.026-29.338 3.268-38.085 15.662-7.758 10.992-10.741 21.564-8.868 31.415 1.851 9.722 8.369 18.31 19.372 25.528.517.335.887.791 1.207 1.469l.292.628s1.643.278 2.112.38c6.41 1.382 11.313 4.865 13.693 9.664l-.746-.304c-4.158-1.71-8.873-3.648-13.542-4.655-2.549-.55-4.846-.779-7.018-.696-2.086.076-4.169.386-6.653.985-7.53 2.398-13.019 8.479-14.68 16.277-1.877 8.788 1.237 17.812 8.328 24.142l1.085.965.847-1.176c6.57-9.137 17.837-19.287 34.182-15.762.655.141 1.319.305 1.988.491 21.616 5.962 28.324 20.339 36.09 36.985 1.238 2.661 2.497 5.358 3.838 8.055zm459.4 67.627 1.189-.519c15.544-6.802 22.856-23.685 16.998-39.276-.321-.854-.32-1.631.014-2.305.362-.735 1.109-1.323 2.145-1.649.635-.254 1.18-.323 1.763-.233 18.245 2.868 32.627-13.734 35.994-31.439 3.714-19.525-8.753-37.536-29.006-41.903-3.825-.825-7.775-1.095-11.743-.806-.309.023-.59.005-.862-.054-.391-.084-.767-.261-1.141-.534l-.698-.514-.746.445c-3.303 1.979-8.336 3.613-12.136 2.795-1.077-.232-2.007-.655-2.783-1.257.39-.064.788-.12 1.183-.179 1.354-.191 2.754-.395 4.191-.888 3.03-1.043 5.58-2.411 7.789-4.187 1.863-1.495 3.23-3.25 4.739-5.246 3.054-6.978 3.369-14.63.868-20.992-2.203-5.594-6.436-9.879-12.243-12.396-2.082-.902-4.225-1.592-6.37-2.055-14.845-3.201-28.604 4.355-34.24 18.803-.655 1.675-1.902 1.804-3.089 1.547-.014-.002-.661-.112-.661-.112-.769-.166-1.412-.62-1.914-1.344-4.634-6.689-11.602-11.591-18.635-13.107-6.42-1.385-12.558.025-17.754 4.074-7.325 5.699-11.082 14-10.035 22.212 1.004 7.973 6.27 14.577 14.437 18.118l.474.122c.528.114.943.361 1.428.939 1.194 1.023.875 2.639-.051 3.896-.109.19-.246.353-.403.53-.579.66-1.229 1.032-2.033 1.156-13.224 2.073-23.272 7.754-29.056 16.432-5.543 8.299-6.912 19.083-3.964 31.186 4.167 17.112 12.462 27.125 24.656 29.755.432.093.868.177 1.317.252 11.086 1.859 24.248-2.27 31.402-9.892l.426-.268.135-.157c1.569-1.813 2.903-3.61 3.963-5.343 2.399-3.915 3.913-8.049 5.382-12.046.511-1.385 1.016-2.772 1.563-4.156 1.523 7.761-2.791 16.651-5.895 21.81l-.301.499.171.556c.11.359.151.636.18 1.186-.411 8.223.951 15.134 4.148 21.126l.501.943 1.023-.309c6.774-2.03 13.397-2.45 19.156-1.208 8.234 1.775 14.459 6.898 17.997 14.812z" fill="#fef49c"/><path d="m498.422 938.762c3.81.42 7.721.59 12.31.536l.941-.011.285-.897c2.094-6.577 4.182-13.525 6.386-21.242 37.943-132.862 70.263-269.772 101.476-402.352-18.303 39.259-32.009 80.696-45.92 121.673-16.457 48.496-33.565 96.897-48.328 145.942-12.7 42.206-24.34 87.315-64.66 111.294-38.388 22.827-91.104 3.24-130.612-6.84-36.082-9.203-81.915-20.93-104.582-53.086-24.547-34.826-23.752-86.277-24.98-126.99-.887-29.259-2.099-58.514-3.417-87.759-.014.187-.025.372-.032.556-1.864 31.149-3.722 62.295-5.489 93.447-1.634 28.834-3.506 62.346-4.979 95.163l-.236 4.722c-1.085 20.901-2.312 44.598 19.561 55.258 26.56 12.95 56.328 20.946 85.112 28.676l9.749 2.628c27.098 7.346 51.965 13.439 76.018 18.626 0 0 .003.001.009.002 8.027 1.73 16.067 3.383 24.128 4.945 30.955 6.004 64.154 12.06 97.26 15.709z" fill="#e23f58"/><path d="m621.043 868.919c-14.904 10.314-45.143 24.368-54.131.977-14.51-37.769 4.528-94.565 11.42-131.683 11.364-61.194 29.095-123.873 34.516-186.431-15.643 64.856-30.739 126.374-45.805 186.588-3.686 14.752-7.294 29.564-10.906 44.396-12.466 51.152-25.35 104.053-41.796 154.695l-.595 1.823 1.915-.118c16.237-.996 30.995-5.991 44.537-11.253 3.812-1.546 7.806-3.09 11.892-4.667 16.904-6.532 36.072-13.932 50.107-24.838 14.734-11.451 20.315-34.053 24.889-54.781-7.261 9.619-15.811 18.204-26.043 25.292z" fill="#e23f58"/><path d="m364.93 777.424c34.535 4.826 74.05-19.955 99.198-40.252 33.845-27.32 57.752-67.055 58.601-111.146.887-46.176-42.949-77.072-86.066-71.958-13.475 1.601-40.104 10.405-60.794 23.733-11.044-23.714-34.099-42.983-59.063-48.696-48.737-11.153-85.547 37.468-85.328 81.177.189 39.061 21.251 78.871 46.078 110.697-.245-.402-.506-.811-.751-1.213-18.112-29.469-41.584-73.596-36.266-116.475 3.473-27.989 18.762-59.777 51.253-65.057 8.262-1.342 16.273-1.198 23.8.425 19.282 4.157 34.539 17.718 42.937 38.13.304.85.608 1.794.919 2.779 1.641 5.146 3.683 11.557 8.967 12.695 2.955.638 6.377-.488 10.468-3.442 1.416-1.018 2.821-2.071 4.237-3.135 3.48-2.612 7.081-5.313 10.814-7.458 7.622-4.387 14.127-7.76 21.091-9.972 18.1-5.76 32.268-7.202 44.77-4.504 28.908 6.334 47.443 30.832 47.215 62.416-.245 33.396-15.699 66.382-43.509 92.872-15.738 14.991-55.494 49.237-98.571 58.384z" fill="#e23f58"/><path d="m614.335 443.754c-1.048-1.581-2.058-3.104-3.032-4.546-.841-1.24-1.764-2.742-2.78-4.386-4.812-7.807-11.413-18.503-20.012-20.357-2.331-.502-4.685-.319-6.995.542-10.001 3.728-18.426 11.22-26.576 18.469-2.436 2.158-4.831 4.289-7.224 6.274l-1.524 1.266c-16.131 13.404-36.21 30.092-58.685 25.248l-.622-.138c-23.563-5.483-35.853-25.951-47.737-45.749-2.267-3.782-4.521-7.531-6.826-11.139-.723-1.129-1.459-2.321-2.225-3.553-5.787-9.322-12.989-20.919-23.436-23.171-3.429-.74-7.024-.414-10.676.973-10.795 4.082-20.138 10.431-29.175 16.568-3.376 2.297-6.771 4.604-10.267 6.819-17.394 11.021-31.403 15.183-42.834 12.718-4.282-.923-8.225-2.817-11.73-5.631-10.967-8.8-17.055-21.724-22.943-34.227-2.687-5.702-5.461-11.601-8.671-17.037-5.633-9.542-12.86-15.69-20.356-17.307-6.207-1.338-12.456.329-18.57 4.955-7.953 6.015-14.235 14.169-18.237 23.813-3.733 17.569-4.549 35.689-5.338 53.213-1.254 27.812-2.735 56.915-4.527 88.972-.163 2.816-.34 5.625-.496 8.438 4.238-32.711 2.471-67.572 7.366-99.036 2.067-13.273 6.05-30.464 13.761-44.422 14.687-26.593 28.67-22.313 38.66-3.565 4.74 8.896 8.657 18.227 10.073 20.923 14.7 28.055 40.326 39.398 69.769 26.222 30.054-13.45 59.329-50.02 85.193-11.383 17.224 25.734 30.375 59.819 66.637 61.761 16.841.902 31.11-5.865 44.867-15 11.298-7.504 39.82-39.452 52.484-27.48 11.051 10.441 22.148 19.927 33.914 26.932-4.129-5.315-7.848-10.886-11.23-15.979z" fill="#ff9a83"/><path d="m752.915 469.6c.367-2.62.72-5.537.991-8.569l.038-.403-.2-.351c-4.021-7.128-9.02-15.999-17.547-17.838-3.086-.666-6.478-.358-10.08.913-10.107 3.563-17.919 10.154-25.692 17.166-8.42 7.597-17.712 15.933-29.082 19.549 1.431-.059 2.883-.167 4.363-.33 9.537-1.044 57.678-30.548 59.62-8.221 1.372 15.665-6.432 37.025-9.326 52.177-5.047 26.395-11.52 52.518-18.084 78.568-12.465 49.446-25.997 98.581-35.818 148.647-.389 1.975-.738 3.961-1.114 5.936 7.202-24.777 14.688-50.271 22.575-76.908l7.645-25.809c9.024-30.406 18.348-61.851 27.322-92.839 2.211-7.636 4.598-15.328 7.002-23.063 6.941-22.376 14.119-45.512 17.387-68.625z" fill="#ff9a83"/><path d="m741.437 434.756c-21.925-10.348-51.674 23.401-68.042 33.296-43.033 26.018-51.479-57.211-83.348-64.083-13.145-2.834-25.371 6.565-34.674 14.437-14.512 12.271-30.016 25.903-48.027 32.539-46.121 17-59.283-51.341-85.163-72.309-28.492-23.085-61.736 14.957-86.918 25.056-43.874 17.586-46.956-41.966-72.033-61.366-13.527-10.464-27.871-7.059-39.514 1.615-2.089 4.017-4.011 8.272-5.64 12.804l2.251 1.254c5.835-7.355 15.596-15.965 28.958-15.216 1.094.064 2.149.204 3.174.424 14.125 3.046 22.029 20.882 28.375 35.21 1.777 4.012 3.458 7.797 5.126 10.944 4.904 9.22 11.612 21.847 23.101 26.536 1.645.672 3.369 1.206 5.111 1.582 10.995 2.371 23.509-1.021 38.258-10.363 3.079-1.948 6.678-4.616 10.493-7.44 12.917-9.57 30.608-22.676 44.706-19.636 1.707.368 3.353.971 4.892 1.79 7.95 4.244 14.751 15.355 19.714 23.466l1.749 2.84c2.192 3.528 4.322 7.218 6.472 10.946 6.521 11.322 13.271 23.032 22.802 31.747 7.109 6.504 14.688 10.656 22.513 12.343 21.555 4.648 42.529-9.862 58.389-23.026 2.217-1.833 4.755-4.223 7.444-6.748 10.544-9.895 24.978-23.449 37.648-20.717 1.847.398 3.641 1.143 5.329 2.212 6.151 3.9 10.873 11.399 15.041 18.019 1.154 1.835 2.275 3.618 3.385 5.255l3.012 4.51c5.023 7.555 10.213 15.361 16.493 22.016l.169.177.227.106c.191.089.326.22.66.77 2.371 2.413 4.451 4.287 6.543 5.888 4.979 3.821 10.002 6.295 14.926 7.356 15.955 3.441 29.218-7.911 42.043-18.89 5.822-4.98 11.838-10.132 17.947-13.718 9.397-5.52 17.152-7.836 22.433-6.697.968.209 1.872.54 2.678.983 5.502 3.032 9.03 7.983 11.753 12.428l2.413 3.941.006-4.624c.003-2.183-.104-4.232-.282-6.173-3.524-5.128-7.778-9.21-12.593-11.484z" fill="#fec771"/><g fill="#f6b279"><g><path d="m508.971 120.312c-10.035 7.792-15.827 19.888-15.48 32.358.305 11.176 5.607 21.127 14.636 27.37 4.054 2.325 7.581 3.885 11.114 4.911 1.3.376 2.614.703 3.934.988.563.122 1.134.203 1.7.309-15.045-10.279-22.792-29.344-18.296-49.116 1.917-8.47 9.573-18.971 19.013-26.17-5.528 1.979-11.096 5.062-16.621 9.35z"/><path d="m650.824 188.3c-2.24-.483-4.594-.707-6.997-.66-10.67.201-20.122 5.157-25.917 13.598-5.604 8.145-6.814 18.333-3.354 27.974l.117.523c2.316 6.363 6.643 11.784 12.689 16.291-5.318-12.348-5.627-24.59 4.321-37.618 8.211-10.743 24.754-12.638 37.421-7.329-4.22-6.243-10.308-11.06-18.28-12.779z"/><path d="m709.074 395.274.426-.268.135-.157c1.569-1.813 2.903-3.61 3.963-5.343 2.25-3.667 3.717-7.526 5.099-11.286-12.61 10.172-29.687 13.64-45.241 4.534-11.467-6.71-13.703-20.37-11.652-32.351 1.475-8.587 6.559-14.835 12.658-20.274-8.205 2.91-14.625 7.588-18.799 13.845-5.543 8.299-6.912 19.083-3.964 31.186 4.167 17.112 12.462 27.125 24.656 29.755.432.093.868.177 1.317.252 11.086 1.858 24.248-2.271 31.402-9.893z"/><path d="m514.119 416.681c-.92-14.476 13.889-32.09-6.967-38.609-9.889-3.091-23.938 2.624-29.061-9.385-3.931-9.208 1.365-19.956 8.693-27.484-3.35 1.603-6.433 3.74-9.014 6.402-5.482 5.665-8.15 13.006-7.502 20.664 1.04 12.247 8.343 21 19.542 23.415 3.707.799 7.67.849 11.787.146.439-.077.846-.076 1.196 0 .994.214 1.459 1.004 1.804 1.901.59.932.59 1.875 0 2.883-6.546 11.11-6.524 25.88-.038 39.265l.489 1.272 1.13-.312c4.317-1.191 8.594-3.226 12.975-6.087-2.52-5.321-4.796-10.281-5.034-14.071z"/><path d="m309.897 338.508c-.38-2.052.978-2.719 2.095-3.037.596-.307 1.209-.396 1.824-.264.299.064.604.18.91.344 3.286 1.789 6.856 3.106 10.615 3.917 10.67 2.301 22.112.277 30.599-5.416 7.304-4.902 11.985-12.059 13.535-20.696 1.481-8.296 1.212-17.092-1.264-24.668-.089 10.205-3.461 19.891-11.756 28.378-11.797 12.083-24.503 9.687-39.641 8.667-6.299-.421-14.064.363-17.324 6.781-3.144 6.191-2.324 17.048-5.2 24.664 1.188 2.558 2.397 5.138 3.68 7.725l.68 1.372 1.25-.888c8.553-6.097 12.106-15.641 9.997-26.879z"/><path d="m403.644 252.962c1.173.113 2.365.3 3.551.556 5.232 1.128 9.834 3.403 12.321 6.085l.161.172.213.112c2.155 1.068 3.998 2.376 5.678 3.799.265-2.333.292-4.764.016-7.281-1.102-10.034-10.597-14.946-17.646-20.623-9.125-7.346-4.933-17.479 3.197-23.5 2.032-1.506 4.284-2.563 6.65-3.345-.113-.028-.231-.072-.346-.097-6.419-1.384-12.557.025-17.758 4.073-7.193 5.6-10.96 13.769-10.072 21.852.855 7.803 5.819 14.394 14.035 18.197z"/><path d="m226.444 230.514c-7.758 10.992-10.741 21.564-8.868 31.415 1.851 9.722 8.369 18.31 19.372 25.528.517.335.887.791 1.207 1.469l.292.628s1.643.278 2.112.38c4.444.958 8.094 2.978 10.748 5.696.214-5.256-.841-10.689-3.376-15.495-5.69-10.782-14.794-19.312-19.044-30.902-4.513-12.312 2.457-22.999 12.053-31.06-5.629 2.818-10.699 6.961-14.496 12.341z"/><path d="m379.123 140.142c7.519-3.16 17.521-3.803 27.729-1.601 2.836.612 5.617 1.429 8.263 2.435l.321.124.344-.054c.266-.041.523-.033 1.187.086 9.487.124 17.919-4.821 22-12.907 3.913-7.759 2.909-16.797-2.693-24.183-2.244-2.954-5.01-5.19-8.09-6.797 2.087 2.883 3.751 6.223 4.835 10.409 2.74 10.553-3.282 19.788-13.246 22.988-9.561 3.069-20.353.037-30.266 2.908-4.202 1.219-7.674 3.545-10.384 6.592z"/></g><g><path d="m302.139 164.934c.569.157 1.041.446 1.59 1.012.735.648 1.168 1.491 1.194 2.313.027.747-.286 1.457-.933 2.106-11.468 11.493-12.171 29.07-1.676 41.785l.763.922.984-.679c1.409-.965 2.953-1.891 4.59-2.749l1.14-.6-.587-1.149c-3.17-6.21-6.115-14.614-3.625-21.421.075.843.13 1.702.179 2.58.164 2.575.329 5.238 1.125 7.879 1.254 4.175 2.768 7.526 4.621 10.239l.585.85.959-.373c3.59-1.374 7.266-2.146 10.917-2.393-6.572-3.805-10.229-11.251-10.927-19.416-.565-6.631 2.757-13.078 2.361-19.843-.7-11.923-15.881-15.169-22.161-23.027-13.865-17.348 3.367-38.631 20.635-48.3-6.55.587-12.857 2.678-18.053 6.163-7.309 4.903-11.99 12.058-13.534 20.696-3.218 17.993 1.671 38.39 19.853 43.405z"/><path d="m756.686 256.966c-1.863 2.387-4.262 4.276-6.734 6.077 2.704-.103 5.395.054 7.992.614 2.914.628 5.739 1.677 8.387 3.113l.816.444.688-.631c11.112-10.191 15.058-26.563 10.444-40.889 2.59 3.863 4.063 8.471 4.314 13.6.495 10.099-3.75 21.251-11.07 29.105l-.964 1.037 1.107.876c.893.706 1.742 1.44 2.542 2.208l.84.802.896-.738c8.065-6.641 18.104-19.059 19.852-32.195 1.839-13.778-4.849-25.394-20.425-35.516-.916-.593-1.434-1.456-1.554-2.711-.282-1.379.099-2.966 1.833-3.487.445-.231.926-.286 1.897-.101 9.49.119 17.914-4.83 21.989-12.91 2.9-5.752 3.082-12.211.702-18.177-.446 5.422-3.292 10.763-8.98 14.533-7.257 4.805-17.257 3.366-25.339 6.172-14.153 4.918-6.074 20.065-.938 28.563 8.242 13.64.407 29.065-8.295 40.211z"/><path d="m802.386 323.415c5.874 10.182 6.618 23.505.819 33.919-7.48 13.444-25.656 8.717-33.469 20.331-2.529 3.749-3.168 7.179-3.488 11.608-.841 11.623-3.502 21.335-16.626 23.636-16.451 2.88-28.341-10.925-31.089-25.599-1.182 2.992-2.625 5.713-3.885 7.804l-.301.499.171.556c.11.359.151.636.18 1.186-.411 8.223.951 15.134 4.148 21.126l.501.943 1.023-.309c6.774-2.03 13.397-2.45 19.156-1.208 8.234 1.775 14.459 6.898 17.997 14.812l.526 1.183 1.189-.519c15.544-6.802 22.856-23.685 16.998-39.276-.321-.854-.32-1.631.014-2.305.362-.735 1.109-1.323 2.145-1.649.635-.254 1.18-.323 1.763-.233 18.245 2.868 32.627-13.734 35.994-31.439 2.658-13.94-2.972-27.082-13.766-35.066z"/><path d="m206.141 241.101c1.846.398 3.798.629 5.801.691l.935.028.324-.879c.739-1.999 1.67-4.051 2.843-6.274l.685-1.297-1.362-.532c-8.77-3.411-21.051-11.876-22.03-21.819 4.116 9.82 14.516 16.701 24.081 19.415l.927.264.524-.804c1.797-2.751 3.573-5.142 5.43-7.307 1.058-1.238 2.211-2.356 3.376-3.454-22.22-.899-41.278-24.446-36.457-46.781-8.545 6.539-12.744 16.065-11.838 27.887.823 10.726 5.083 36.187 26.761 40.862z"/><path d="m603.704 374.818c-1.868-.856-1.649-2.428-1.29-3.511.189-1.202.874-2.009 2.04-2.401 11.779-3.978 19.509-12.938 21.206-24.586 1.945-13.354-4.508-27.804-16.047-35.948-2.276-1.604-4.538-2.937-6.787-4.135.989 1.282 1.938 2.578 2.797 3.864 8.72 13.025 7.447 28.056-4.063 38.535-10.286 9.368-15.497 16.796-9.874 30.492 1.507 3.662 3.237 7.108 4.585 10.701 5.062 1.701 9.862 4.912 14.29 9.769 5.49 6.023 9.305 13.775 12.989 21.267l1.337 2.728 1.055-2.854c6.351-17.213-3.107-36.033-22.238-43.921z"/><path d="m530.42 191.936c-2.674.081-5.418-.051-8.281-.668-1.652-.356-3.312-.834-4.938-1.417l-.561-.201-.517.29-.585.366c-9.179 3.095-16.245 8-20.997 14.585l-.623.861.714.784c8.451 9.265 10.647 21.692 5.864 33.245l-.675 1.639 1.761.16c1.759.163 3.548.439 5.306.818 7.791 1.68 15.104 5.483 21.116 10.679-8.314-11.709-14.699-22.25-12.799-38.023.952-7.895 5.999-14.42 11.347-19.929 1.209-1.251 2.512-2.282 3.868-3.189z"/></g><g><path d="m668.846 189.756 1.218.474-1.353.042-.115.699.525.475c7.092 6.409 11.619 15.131 13.102 25.225l.289 1.982 1.693-1.065c2.139-1.339 4.43-2.469 6.8-3.415-1.923-1.574-3.71-3.324-5.233-5.472-4.334-6.142-6.17-13.932-6.714-21.289-.634-8.54 2.458-16.663 9.647-21.464 3.864-2.58 10.173-2.604 15.625-.834-1.477-2.556-3.128-5.014-5.28-7.069-.448-.435-.911-.804-1.581-1.326-3.139-1.812-6.619-3.14-10.348-3.944-9.971-2.149-20.908-.454-29.998 4.65l-1.521.854 1.25 1.219c8.058 7.863 12.427 18.919 11.994 30.258z"/><path d="m374.866 318.642-.494 1.322.303.521c4.875 8.37 13.546 14.605 23.195 16.688 9.602 2.07 18.87-.029 26.263-6.065 3.582-4.159 6.539-8.438 8.905-12.799-6.057 4.197-13.755 5.803-21.271 5.921-13.339.208-21.743-10.495-23.89-22.559-2.832-15.923 5.577-35.717 20.827-41.645-.316-.044-.63-.122-.954-.16-1.184-.142-2.328-.192-3.79-.154-.157.04-.297.094-.434.174-16.032 2.167-26.334 8.361-31.435 18.824l-.216.253-.457.758.364.662c5.999 10.884 7.284 24.824 3.44 37.293-.106.334-.229.649-.356.966z"/><path d="m580.838 292.634.73-.059c3.78-.308 7.646-.04 11.496.779-2.707-7.717-3.588-16.015-2.043-24.521 2.408-13.263 13.168-22.744 25.48-26.716-2.443-2.495-4.486-5.355-5.865-8.094l-.316-.62-.689-.087c-11.648-1.471-22.223 4.269-29.004 15.751-8.176 13.844-8.268 31.918-.219 42.975z"/><path d="m364.608 198.111.013.618.129.383c2.128 8.519 11.794 17.247 19.523 20.448l1.12.463.549-1.079c2.024-4.005 4.864-7.443 8.433-10.222 7.454-5.803 16.051-7.865 24.852-5.968 1.648.356 3.299.855 4.911 1.483l.955.375.586-.844c7.547-10.802 10.389-21.271 8.449-31.116-1.922-9.731-8.427-18.221-19.328-25.231-.316-.2-.551-.477-.823-.815l-.193-.237-.275-.129c-1.673-.776-3.425-1.442-5.205-1.976-.083-.023-.167-.038-.249-.062 2.596 2.358 4.865 5.021 6.671 7.718 8.3 12.392 5.615 28.576-3.293 39.66-7.721 9.604-21.778 16.506-33.895 11.974-5.718-2.138-9.154-7.433-11.81-13.164-.08 2.554-.37 5.141-1.12 7.721z"/></g><g><path d="m448.829 115.666c-.569-3.01-1.755-5.729-3.387-8.061 2.795 7.82 2.63 16.012-.578 23.292-3.185 7.237-8.993 12.641-16.347 15.21l-2.179.763 1.771 1.473c3.324 2.765 5.867 5.865 7.656 9.389 3.917 5.446 5.995 10.899 6.343 16.663.638 10.523-2.695 20.784-10.494 32.281l-.713 1.049 1.036.743c1.793 1.288 3.501 2.757 5.082 4.36l1.151 1.172.879-1.389c8.145-12.813 23.663-19.641 37.736-16.606 3.029.653 5.943 1.757 8.67 3.276.861.485 1.673 1.012 2.473 1.542l1.016.669.742-.959c3.959-5.138 8.958-9.373 14.853-12.58l1.894-1.036-1.793-1.198c-5.575-3.722-9.985-8.791-13.063-14.695-3.167 9.263-13.497 11.603-22.315 11.963-9.793.4-17.184-3.543-18.029-14.155-.47-5.906-1.868-10.023-5.339-14.844-6.154-8.554.041-14.481 2.459-22.153 1.75-5.563 1.554-10.496.476-16.169z"/><path d="m567.426 274.7-.005-2.151c-.05-21.585 15.234-45.223 38.076-46.01l1.489-.052-.248-1.47c-1.941-11.492 1.634-23.646 9.568-32.518 5.082-5.688 11.433-9.345 18.393-10.782-1.744-.28-3.432-.48-4.961-.552-13.608-.641-27.202 8.46-31.774 21.108-1.358 3.759-1.878 7.492-3.362 11.299-2.104 5.408-9.279 9.196-13.79 12.479-6.14 4.458-10.505 9.771-14.288 16.306-4.504 7.784-6.953 18.936-5.313 28.603 1.359.968 2.721 1.933 4.304 2.75z"/><path d="m495.56 400.604.579-1.651-1.746-.084c-1.147-.056-2.286-.279-3.426-.447-.485 2.509-1.217 4.96-2.411 7.292-5.849 11.47-19.829 8.817-30.496 3.044 9.565 13.585 20.316 25.732 33.698 28.618 1.517.327 3.068.534 4.608.61l2.056.105-.777-1.902c-5.046-12.356-5.788-24.996-2.085-35.585z"/><path d="m351.998 380.796 1.336-.881-1.131-1.135c-.395-.393-.732-.815-1.105-1.219-5.998 2.67-13.42 2.527-19.676-.299-13.003-5.879-9.249-19.497-4.021-30.688-1.034-.153-2.073-.325-3.101-.547-1.864-.402-3.731-.924-5.537-1.554l-1.695-.591-.041 1.794c-.249 10.582-5.436 19.935-14.229 25.657l-1.049.683.638 1.075c1.833 3.11 3.611 5.786 5.441 8.178 4.055 5.326 8.563 8.462 13.778 9.587 10.042 2.165 20.998-3.87 30.392-10.06z"/><path d="m668.125 452.954c-8.313-2.816-15.891-7.016-20.74-14.786-7.45-11.937-5.166-32.557 5.104-43.333-.665-.949-1.294-1.923-1.872-2.927l-.732-1.281-1.18.882c-4.519 3.375-10.266 4.302-14.299 4.485l-1.637.075.438 1.579c2.831 10.191 1.422 20.519-3.981 29.746l.865.981-1.19-.62-.495.672.404.729c3.102 5.62 7.547 12.708 14.442 17.678 4.683 3.378 9.114 5.482 13.538 6.436 3.78.814 7.54.642 11.335-.316z"/></g><g><path d="m366.112 272.638 1.156 1.208.894-1.414c4.973-7.875 12.917-13.495 23.605-16.702l2.203-.658-1.699-1.553c-2.114-1.934-3.852-4.157-5.283-6.544-3.806 1.395-7.926 1.919-12.461 1.103-5.35-.968-8.765-3.924-11.426-7.648.616 8.199-1.469 16.5-6.445 23.617l-.859 1.231 1.338.68c3.348 1.699 6.368 3.947 8.977 6.68z"/><path d="m688.705 426.133c-4.762-3.754-5.997-8.908-5.359-14.151-1.439-.084-2.873-.22-4.311-.466l-1.047-.178-.388.987c-3.884 9.858-3.142 24.85 4.821 31.872l.824.725.857-.688c2.932-2.356 5.872-5.007 8.721-7.568 1.887-1.703 3.83-3.418 5.793-5.103-3.52-1.137-6.847-3.013-9.911-5.43z"/><path d="m572.102 294.596 1.52-.534-.836-1.375c-1.377-2.275-2.407-4.749-3.262-7.299-2.584.8-5.283 1.395-8.109 1.782-5.598.767-12.973.631-19.365-1.336-.138 1.895-.295 3.798-.659 5.81l-.131.715.542.489c4.016 3.609 7.162 8.605 9.104 14.437l.701 2.127 1.503-1.662c5.679-6.291 12.066-10.718 18.992-13.154z"/><path d="m622.168 365.438c-2.092 2.114-4.471 4.011-7.146 5.664l-1.749 1.079 1.721 1.125c6.062 3.953 11.09 9.313 14.532 15.495l.335.6.686.064c5.142.481 12.47-.576 16.208-5.143l.432-.528-.441-1.448c-.102-.282-.202-.559-.275-.858-.535-2.215-.943-4.396-1.283-6.553-8.421 1.112-18.235-2.838-23.02-9.497z"/></g><g><path d="m467.99 385.329.359-.666-.398-.644c-1.707-2.72-2.915-5.644-3.584-8.691l-.2-.906-.925-.109c-1.446-.168-2.856-.404-4.229-.7-.975-.21-1.879-.559-2.824-.833-3.346 5.043-7.69 9.359-13.565 12.658 1.666 2.521 3.331 5.078 5.015 7.683l1.982 3.057.639.789.957-.319c8.417-2.444 14.064-6.253 16.773-11.319z"/><path d="m361.591 337.613c-4.007 3.204-8.617 5.7-13.746 7.328l-.765.242-.125.792c-1.724 10.58 2.337 21.293 11.145 29.395l.779.713 4.469-3.182c2.442-1.741 4.893-3.489 7.353-5.19-6.727-9.022-10.382-19.778-9.11-30.098z"/></g></g><g fill="#fffad2"><path d="m460.86 216.557c-2.847 2.149-3.036 5.587-.693 8.188 4.308 4.791 11.44 9.843 18.135 7.357 3.812-1.414 6.812-5.926 5.086-10.042-3.527-8.405-15.325-10.953-22.528-5.503z"/><path d="m354.639 90.26c3.135 2.916 7.217 4.359 11.394 5.066 5.291.891 9.994 2.785 14.882-.833 3.547-2.622 5.122-6.6 3.872-10.914-3.759-12.929-25.933-12.617-31.581-1.483-1.391 2.74-.816 6.069 1.433 8.164z"/><path d="m222.291 125.86c-3.946-1.216-9.431.638-11.275 4.29-.854 1.698-.938 4.092.261 5.677 3.996 5.257 16.111 6.701 18.419-.949 1.455-4.827-3.704-7.876-7.405-9.018z"/><path d="m324.69 222.362c-5.277.209-11.039 1.598-14.447 5.976-3.168 4.064-3.218 11.418 2.406 13.692 8.913 3.6 26.312 5.978 26.692-7.993.2-7.347-8.193-11.931-14.651-11.675z"/><path d="m530.553 307.111c-5.291-5.093-13.35-3.814-18.114 1.208-3.488 3.674-2.195 9.713 2.121 12.056.987.537 1.915 1.148 2.954 1.596 3.266 1.417 6.182 1.484 9.665.787 3.095-.621 5.554-3.961 6.178-6.855.702-3.255-.431-6.516-2.804-8.792z"/><path d="m713.623 255.387c5.973.211 11.379-7.407 8.837-12.944-2.782-6.07-7.058-9.066-13.319-11.158-5.18-1.73-10.998-.841-14.764 3.282-1.777 1.948-2.709 5.182-1.663 7.713 3.152 7.639 12.976 12.835 20.909 13.107z"/><path d="m768.254 297.645c2.515-4.818.763-11.709-4.41-14.056-6.156-2.792-13.408-3.999-19.531-.29-2.438 1.474-8.245 4.896-5.86 8.557 1.405 2.147 4.358 3.929 6.494 5.316 3.055 1.983 5.892 3.484 9.249 4.884 5.234 2.182 11.265.941 14.058-4.411z"/><path d="m719.487 149.509c3.239 1.861 6.642 2.605 10.202 3.257 6.957 1.272 14.586-1.764 14.512-9.87-.082-8.705-10.809-11.062-17.469-8.87-4.343 1.425-8.988 5.089-9.941 9.727-.486 2.359.649 4.576 2.696 5.756z"/><path d="m623.464 119.996c-5.136-3.687-11.07-4.799-17.147-2.647-4.473 1.583-9.918 5.478-7.079 10.788 1.31 2.444 4.418 4.753 6.744 6.171 4.302 2.624 9.067 3.548 13.937 2.134 6.479-1.879 9.548-12.137 3.545-16.446z"/><path d="m515.646 76.72c-8.041-3.241-17.775-3.118-22.461 5.296-1.607 2.888-.097 5.867 2.364 7.537 4.065 2.759 8.601 4.684 13.527 5.358 3.18.436 7.163-.118 9.252-2.948 1.66-2.254 2.774-4.227 2.548-7.143-.251-3.153-2.113-6.845-5.23-8.1z"/><path d="m407.686 157.418c-3.438-3.091-7.551-4.328-12.054-3.033-3.496 1.004-6.263 5.659-4.647 9.176 1.563 3.406 3.679 5.856 7.093 7.562 3.63 1.808 7.264.837 10.127-1.782.544-.492.962-1.125 1.261-1.792 1.555-3.454 1.148-7.498-1.78-10.131z"/><path d="m340.957 299.933c-.846-.064-1.68.051-2.5.35.817-.267-.9.505-1.81.901-1.767.795-3.03 1.698-4.432 3.054-1.892 1.824-4.507 5.416-2.351 8.002 4.592 5.502 14.513 4.746 17.976-1.642 2.841-5.232-1.538-10.508-6.883-10.665z"/><path d="m336.648 301.184c.042-.019.075-.046.115-.065-.94.414-.688.315-.115.065z"/><path d="m453.286 318.549c-.349-.285-.746-.305-1.139-.094-6.746 3.588-5.551 15.462.833 18.773 2.492 1.292 5.456-.188 6.107-2.863.823-3.441-.568-5.795-1.428-9.041-.768-2.888-2.08-4.906-4.373-6.775z"/><path d="m498.791 355.249c-3.816-.102-9.758.078-9.944 5.17-.189 5.058 5.663 8.472 9.98 9.164 3.581.572 11.486-1.038 11.198-6.249-.308-5.441-6.582-7.963-11.234-8.085z"/><path d="m699.915 367.089c-2.858-5.735-13.029-4.993-18.335-4.751-3.059.138-5.221 3.338-4.251 6.23 2.19 6.524 9.896 10.308 16.565 9.237 2.361-.38 5.162-1.449 6.104-3.941.028-.067.054-.132.081-.202 1.341-2.031 1.423-4.465-.164-6.573z"/><path d="m750.949 390.408c-2.855-1.217-5.6-1.148-8.535-.227-.893.281-2.366.862-3.063 1.36-.206.147-1.663.88-.713.489-2.01.828-3.695 3.137-2.738 5.4 1.072 2.517 2.477 4.302 4.931 5.683 3.767 2.119 9.14 1.499 12.056-1.718 2.864-3.166 2.318-9.174-1.938-10.987z"/><path d="m654.161 209.531c-.397-.062-.634-.264-.989-.433-1.072-.509-2.202-.471-3.357-.514-2.159-.08-3.928.746-5.676 1.931-4.171 2.835-6.62 7.817-3.906 12.486.718 1.236 2.154 1.805 3.523 1.793 3.605-.032 6.152-2.2 8.27-4.932 1.209-1.552 2.279-2.765 2.807-4.744.332-1.229.227-2.557.542-3.708.218-.797-.397-1.749-1.214-1.879z"/><path d="m608.011 261.14c-10.077 1.414-12.98 12.851-10.651 21.441 2.171 8.007 13.606 6.563 15.432-.806 1.273-5.142 2.416-11.703.778-16.841-.702-2.207-3.15-4.132-5.559-3.794z"/><path d="m776.652 172.522c3.529.961 6.642 2.096 9.99-.204 2.645-1.811 3.447-5.292 1.733-8.036-2.007-3.22-6.935-5.01-10.733-4.462-3.789.545-8.629 2.851-7.291 7.575.795 2.793 3.669 4.407 6.301 5.127z"/><path d="m533.779 242.637c4.071 1.002 7.563-2.507 7.52-6.431-.051-4.738-3.846-8.13-4.229-12.798-.271-3.389-.782-10.043-5.472-10.039-6.347.004-8.37 8.111-8.31 13.097.091 6.658 3.607 14.476 10.491 16.171z"/><path d="m453.666 67.248c-6.827-1.83-19.079-.871-21.061 7.546-.555 2.358.714 4.414 2.642 5.635 2.192 1.39 5.198 1.537 7.72 1.829 3.888.445 7.682.695 11.464-.395 7.607-2.19 6.176-12.753-.765-14.615z"/><path d="m330.354 108.41c-6.607-7.083-17.914-3.229-24.245 2.104-3.918 3.303-11.934 14.122-3.358 17.18 3.766 1.344 8.163-1.676 11.95-2.088 6.652-.723 13.627-2 17.207-8.36 1.706-3.032.664-6.458-1.554-8.836z"/><path d="m420.009 299.791c-1.467-.786-3.047-1.331-4.692-1.573-1.695-.253-2.315-.463-3.049-.777-2.632-1.123-4.387-2.169-7.064-2.68-2.289-.434-4.744.585-5.813 2.729-4.727 9.432 8.71 19.235 17.204 18.142 8.044-1.039 11.075-11.724 3.414-15.841z"/><path d="m240.717 241.012c-.536 2.8 1.16 5.115 3.8 5.887 4.708 1.379 10.092.348 14.931.522 6.683.247 14.271-3.328 12.189-11.246-3.482-13.257-28.786-6.259-30.92 4.837z"/></g><path d="m498.421 612.471c-.498 11.077-3.188 22.188-6.9 32.34-16.741 45.821-52.26 76.979-96.289 95.543-30.274 12.765-56.096 16.025-82.52-6.355-18.74-15.881-36.56-44.617-44.914-67.28-13.009-35.291-22.32-71.851-6.553-101.634-18.212 26.423-19.276 64.297-2.667 104.856 7.915 19.323 17.322 37.06 27.959 52.715 1.317 1.937 2.657 3.956 4.025 6.017 10.016 15.084 21.375 32.176 37.551 39.746 3.021 1.413 6.265 2.5 9.643 3.229 23.722 5.115 55.577-6.748 94.685-35.261 35.572-25.935 57.264-53.786 64.459-82.78 2.923-11.773 4.155-26.854 1.521-41.136z" fill="#00b2b6"/><g><path d="m421.891 608.719c8.159 1.783 16.503 1.495 24.686 3.084 9.424 1.826 16.649 3.802 24.507-2.728.645-.534 1.317-1.333 1.149-2.258-3.953-21.563-43.983-23.801-53.697-5.254-1.502 2.87.205 6.468 3.355 7.156z" fill="#8bfcfc"/></g><g><path d="m280.589 574.783c9.136 6.848 23.083 5.41 33.521 10.09 5.634 2.525 17.592 6.919 20.483-1.455 7.043-20.371-46.936-29.615-54.236-9.934-.155.429-.184.991.232 1.299z" fill="#8bfcfc"/></g></g><g fill="#68182b"><path d="m460.075 562.477c-15.004-3.285-31.11-.025-45.443 4.537-7.5 2.385-14.561 6.179-21.351 10.083-5.309 3.051-10.207 7.094-15.159 10.665-13.553 9.773-15.741-4.129-18.366-11.413-11.771-28.618-37.137-44.444-68.173-39.402-32.292 5.244-48.661 36.54-52.339 66.187-5.111 41.174 15.569 83.354 36.449 117.312 18.181 29.575 42.19 64.893 81.146 59.715 39.076-5.19 79.818-33.745 107.562-60.173 25.819-24.594 43.647-57.775 43.915-93.81.222-31.244-17.572-56.982-48.241-63.701zm35.561 90.812c-8.518 34.317-36.403 61.951-63.966 82.043-25.553 18.63-70.789 46.974-103.002 31.905-18.061-8.452-30.291-29.485-41.047-45.315-11.166-16.43-20.316-34.119-27.836-52.475-14.019-34.24-19.07-76.359 5.141-107.264 25.198-32.147 72.412-16.18 86.077 17.035 4.832 13.416 9.896 25.328 25.926 19.685 12.427-4.373 22.94-15.706 35.292-21.14 14.375-6.33 30.412-8.389 45.912-6.283 39.357 5.344 45.299 50.418 37.503 81.809z"/><path d="m824.453 357.155c4.866-25.588-17.422-46.653-41.588-49.097 4.197-10.032 3.242-20.651-2.016-29.376 11.725-9.806 22.449-25.253 23.155-40.751.63-13.954-5.866-24.47-15.439-32.876 17.07-5.348 25.547-24.685 17.867-42.581-7.527-17.538-26.567-21.534-42.612-15.487-2.393-18.886-18.72-32.091-38.252-32.404-18.238-.293-30.666 15.277-31.488 31.929-14.328-4.969-31.789-2.503-44.164 6.085-4.015-2.326-8.48-3.96-13.271-4.76 8.722-18.966 2.317-40.598-18.652-49.047-18.371-7.404-36.537 3.024-42.484 19.793-5.366-6.931-11.667-12.58-19.547-15.909-1.816-21.047-18.338-37.999-38.658-43.935-17.992-5.252-32.127 1.238-43.19 13.61-4.652-14.442-19.291-24.843-35.331-20.542-17.222 4.618-26.826 18.521-25.26 35.298-3.468.355-6.93 1.177-10.269 2.435-2.391-18.887-18.72-32.091-38.251-32.402-18.293-.296-30.748 15.366-31.501 32.068-16.6-5.802-34.83-2.021-46.869 9.374-15.174-2.425-30.637 3.825-38.51 16.803-11.909-11.979-29.617-15.439-44.223-4.078-15.978 12.439-15.562 34.789-1.943 46.994-17.602 5.631-29.233 17.621-30.514 38.585-1.482 24.23 12.854 50.135 38.224 52.597-2.044 13.661 2.791 26.833 14.314 37.676-22.876 6.939-28.866 38.964-8.089 55.113-1.986 3.708-3.673 7.562-5.063 11.364-7.83 21.357-9.367 44.806-10.551 67.32-1.687 31.992-3.062 63.998-4.841 95.983-3.636 65.576-7.778 131.121-11.53 196.691-1.685 29.404-3.262 58.817-4.664 88.235-.908 19.151-3.467 39.763 5.356 57.495 6.557 13.178 23.698 18.861 36.343 23.504 31.02 11.383 63.044 20.332 94.965 28.777 61.768 16.337 126.186 30.34 189.967 35.732 20.12 1.701 38.194-4.729 56.702-11.919 20.483-8.303 40.299-17.819 59.935-27.935 18.499-9.53 22.757-32.047 27.882-50.23 16.555-58.719 33.61-117.287 50.918-175.787 13.977-47.236 28.051-94.447 41.648-141.801 8.559-29.815 24.641-67.075 18.498-98.712 17.226-7.15 27.5-24.927 24.043-42.985 21.088-.795 35.1-20.581 38.953-40.847zm-127.633-199.303c.446.36.895.717 1.328 1.134 4.295 4.109 6.684 9.969 9.504 15.109.293.522 1.051.294 1.178-.214.573-2.254.575-4.412.219-6.479-.349-4.521-2.373-9.259-5.376-12.808.018-.336.104-.629.037-1.009-2.673-15.671 6.187-28.43 22.384-29.803 17.311-1.47 29.654 14.685 28.814 30.616-.002.091.04.15.039.24-.705.779-1.343 1.557-1.879 2.226-2.353 2.929-4.192 6.555-4.433 10.313-.313 1.221-.469 2.435-.205 3.6.043.183.288.244.433.149 2.453-1.539 3.776-4.477 5.642-6.644 2.672-3.104 6.128-5.242 9.613-7.286 1.034-.606 2.116-1.102 3.209-1.585 10.11-3.944 21.264-2.625 28.474 6.867 11.857 15.63.171 35.222-18.237 34.993-.923-.241-1.765-.139-2.511.242-2.158.621-2.945 2.807-2.512 4.913.118 1.332.725 2.638 2.115 3.545 12.35 8.02 21.922 18.676 19.847 34.247-1.563 11.727-10.318 23.893-19.39 31.359-.834-.795-1.707-1.557-2.637-2.287 12.115-12.992 17.088-36.439 2.53-49.283-.224-.198-.509.076-.382.321 7.771 14.908 4.68 33.962-7.675 45.294-5.911-3.209-12.305-4.38-18.554-3.869.023-20.135-7.043-39.319-25.935-48.766-11.607-5.804-27.563-3.642-38.949 3.498-1.532-10.43-6.294-19.479-13.512-26.007.032-.207.13-.37.138-.596.479-12.271-4.326-23.466-12.377-31.319 11.79-6.615 27.383-7.457 39.06-.711zm22.344 121.715c-11.91-12.099-29.707-15.631-44.368-4.221-16.004 12.455-15.563 34.851-1.888 47.044-15.777 5.257-25.243 15.614-28.582 29.523-4.072.576-8.239.229-12.186-.928 4.746-15.504.07-33.913-13.748-45.754-12.156-10.412-24.904-14.939-36.93-13.958-14.66-20.134.151-60.182 28.008-56.662 4.557 9.041 14.331 17.598 23.891 15.142.582-.15.572-.959.104-1.222-9.294-5.185-14.831-11.734-17.565-19.241-.006-.099-.039-.184-.051-.277-.034-.097-.008-.175-.042-.272-7.21-19.907 7.181-39.403 28.042-39.798 20.355-.384 31.496 19.036 30.978 37.062-.006.027.008.044.013.069-.002.005-.002.009-.002.009-.031 2.467 1.577 3.731 3.457 3.993 1.48.479 3.158.277 4.523-1.223 9.677-10.621 26.6-12.086 38.769-6.003 14.503 7.247 17.872 26.076 17.597 40.93-8.129 2.856-15.351 8.438-20.02 15.787zm-11.928 127.393c.628 4.937 2.027 9.71 4.261 14.266-3.724 1.842-7.313 4.063-10.579 6.686-6.084 4.894-11.781 10.603-17.631 15.305-7.709-6.795-8.089-21.227-4.475-30.414 9.588 1.63 19.69-.124 28.424-5.843zm45.77 45.454c-3.158-5.154-6.813-9.9-12.233-12.888-7.665-4.222-19.836 1.873-26.407 5.732-23.467 13.779-43.411 48.384-73.457 25.341-2.275-1.746-4.382-3.71-6.403-5.769-.217-.466-.577-.82-1.037-1.035-7.465-7.906-13.436-17.555-19.382-26.357-5.184-7.682-10.677-18.5-18.805-23.648-17.958-11.369-39.727 15.21-51.952 25.351-24.239 20.114-51.853 35.724-79.19 10.726-12.499-11.429-20.206-28.217-29.047-42.424-5.275-8.48-12.715-21.833-21.953-26.764-19.512-10.412-46.433 15.845-61.404 25.333-12.216 7.739-27.875 14.517-42.177 8.677-10.783-4.403-17.264-16.201-22.443-25.94-8.124-15.285-16.472-46.076-37.756-47.267-12.182-.685-22.496 6.184-30.051 15.704 1.808-5.033 3.963-9.933 6.561-14.644 7.022-12.737 19.078-18.104 32.93-14.283 20.072 5.533 27.216 25.379 34.636 42.582 14.396 33.384 39.368 32.409 67.521 13.153 25.16-17.21 47.027-35.58 70.983-3.23 12.256 16.551 19.441 35.925 33.688 51.147 19.704 21.058 50.343 13.909 69.652-3.486 16.295-14.668 31.877-36.031 56.571-32.261 19.811 3.023 26.659 30.658 35.864 45.106 15.07 23.658 42.137 25.978 62.592 8.78 12.733-10.707 22.563-23.986 40.421-25.348 18.194-1.382 22.286 13.057 22.278 27.712zm-434.672-106.708c6.693 2.329 13.629 3.105 20.346 2.443-.821 11.829 4.153 23.104 12.595 31.556-15.805 10.418-30.53 16.366-42.411.775-2-2.625-3.742-5.325-5.353-8.054 9.308-6.051 14.566-15.888 14.823-26.72zm43.24-135.026c4.959 7.175 12.928 13.317 20.37 16.356-1.65 9.938 1.687 20.342 9.447 27.446-9.89 2.964-18.684 8.305-24.335 17.252-2.658-2.781-5.771-5.133-9.33-6.939 10.143-14.502 8.607-33.255-2.129-46.404 2.28-2.359 4.277-4.937 5.977-7.711zm11.627 68.717c5.814-11.899 18.029-16.532 30.502-18.218.229-.031.383-.149.593-.206 1.071.003 2.167.056 3.302.191 7.324.858 13.958 4.38 21.254 5.512.677.104.983-.627.571-1.114-2.435-2.873-5.524-5.143-8.948-6.844-3.485-3.763-10.413-6.443-16.707-7.058-15.949-7.545-17.394-26.74-3.287-37.716 11.959-9.309 26.909-2.233 34.515 8.75.876 1.264 2.05 1.845 3.245 1.955 1.822.527 3.793.015 4.71-2.317 6.275-16.085 23.024-22.889 38.871-16.023 14.584 6.314 16.188 23.116 8.835 35.194-1.149 1.42-2.271 2.851-3.484 4.226-4.2 4.774-9.857 6.865-15.043 10.218-.213.138-.231.512.022.618 6.438 2.751 13.224-.727 18.207-4.779.977-.801 1.856-1.636 2.686-2.492.398.064.771.172 1.233.124 11.045-1.104 20.672 3.215 29.13 10.078 9.013 7.316 11.854 16.519 10.753 27.108-1.949-.752-4.018-1.246-6.168-1.54-1.515-6.522-4.005-13.118-8.457-18.133-3.938-4.438-10.516-9.92-16.92-8.558-.232.05-.301.405-.117.546 4.908 3.776 9.547 5.859 13.239 11.223 3.056 4.441 5.037 9.498 6.16 14.75-3.704.276-7.592 1.192-11.637 2.923-17.532 7.528-21.528 26.568-15.483 42.617-18.135 2.297-30.996 17.458-32.263 35.964-18.254-2.508-28.476-18.808-27.736-36.749.005-.151-.057-.246-.063-.385 5.484-8.218 7.768-18.143 3.318-26.184-.15-.268-.563-.164-.624.115-2.208 10.146-7.491 19.202-14.272 27.061-15.05 12.251-37.882 5.803-47.334-10.423.215-.597.474-1.156.662-1.769 3.89-12.598 2.66-27.059-3.544-38.31.086-.137.201-.204.279-.355zm170.73-17.352c4.082 9.956 12.615 17.108 22.944 20.922.174.067.334.036.504.083.906 3.618 2.335 7.087 4.289 10.313-7.024 2.476-13.633 6.982-19.525 13.51-2.014-6.051-5.249-11.204-9.469-14.997 1.836-10.16.924-19.026-3.419-27.135 1.629-.793 3.183-1.697 4.676-2.696zm84.583 97.311c4.812 1.477 9.593 2.172 14.514 1.863-.302 6.349.388 13.223 2.179 20.58.14.585.374 1.124.534 1.698-3.328 4.071-10.07 5.137-15.074 4.669-3.501-6.293-8.613-11.818-14.958-15.955 5.498-3.398 9.809-7.789 12.805-12.855zm-24.474 8.311c-1.825.615-2.689 1.973-2.917 3.439-.641 1.834-.205 3.87 2.035 4.898.094.058.186.114.285.167 17.434 7.144 27.707 24.676 21.273 42.114-3.813-7.761-7.661-15.502-13.189-21.569-30.736-33.715-67.895 14.728-90.342 31.097-5.475 3.988-10.559 6.444-15.357 7.765.002-.006-.002-.016-.004-.023-5.774-11.964-7.001-26.565-.104-38.284.943-1.599.721-3.071-.021-4.24-.569-1.662-2.001-2.885-4.32-2.488-15.677 2.673-28.433-6.187-29.807-22.386-1.466-17.31 14.685-29.655 30.619-28.814 2.509.129 3.783-1.456 4.056-3.333.392-1.137.347-2.443-.444-3.764-6.779-11.298-6.926-25.294 4.27-33.795 16.773-12.727 32.924.778 34.898 18.462-.142.703-.102 1.367.133 1.965-.761 6.731-3.778 14.026-6.072 19.906-.19.492.327 1.173.854.775 6.354-4.86 10.554-10.284 11.664-17.992 1.058-.385 1.929-1.135 2.388-2.22 14.377-21.715 33.969-24.693 54.922-9.909 21.13 14.912 22.659 48.954-4.82 58.229zm-130.903 24.26c5.815 4.908 13.37 7.868 21.192 8.249-4.131 11.814-2.646 24.876 2.106 36.508-16.256-.83-28.801-15.961-40.472-33.267 6.554-2.227 13.028-5.922 17.174-11.49zm-102.099-62.618c10.219 13.371 28.27 19.379 44.123 15.115.088-.023.174-.044.267-.066 3.729-1.03 7.328-2.598 10.667-4.813 2.862 19.075 16.965 33.721 36.997 36.066.729 3.314 2.025 6.354 3.75 9.103-3.112 5.807-9.938 8.922-15.991 10.68-.053.017-.079.053-.138.07-10.603-16.334-20.829-32.911-32.937-40.091-18.706-11.095-39.334 5.244-58.788 19.037-7.986-7.343-12.502-17.445-10.745-28.221 9.169-2.918 17.265-8.674 22.795-16.88zm304.424 119.343c-9.016 5.095-18.903 6.162-31.445-2.877-6.069-4.375-10.355-10.531-14.067-17.251.102-.131.228-.2.315-.349 5.955-10.13 6.94-21.013 4.2-30.877 5.344-.24 10.838-1.615 15.02-4.743 4.721 8.237 12.068 14.309 20.441 17.725-4.223 12.024-3.575 29.038 5.536 38.372zm-56.489-339.341c14.262 7.127 14.732 23.289 8.721 35.809-1.293 2.133-2.783 4.201-4.533 6.211-7.145 8.195-18.203 9.939-27.772 13.845-.677.275-.784 1.456.076 1.559 13.265 1.64 23.138-.405 32.569-10.525.443.122.879.261 1.41.25 16.887-.413 29.071 12.071 31.182 27.673-5.105-2.494-10.912-4.033-17.294-4.387-24.682-1.368-41.673 23.04-37.884 45.488-23.063.795-39.387 24.664-39.336 47.316-7.479-3.867-12.939-9.73-15.023-18.347-.045-.604-.22-1.183-.515-1.716-.636-2.297-2.53-3.023-4.429-2.649-1.09.001-2.213.382-3.191 1.332-2.633 2.542-5.719 4.459-9.078 5.869-.682-.787-1.307-1.579-2.066-2.356-7.871-8.041-18.861-13.37-30.104-14.403 5.037-12.173 2.498-25.194-6.105-34.624 5-6.934 12.314-11.407 20.351-14.113.333-.11.537-.312.809-.465 9.797 3.515 20.779 3.274 28.823-2.706.624-.458.276-1.269-.429-1.323-8.573-.672-17.259-.947-25.55-3.354-3.812-1.104-7.388-2.812-10.83-4.787-19.511-13.5-18.102-42.739 1.001-57.567 24.054-18.679 48.274-14.911 64.06 11.175.312.774.817 1.351 1.447 1.761 1.349 1.112 3.029 1.103 4.477.4.042-.013.073-.033.112-.048.285-.146.545-.306.805-.502.35-.238.656-.514.931-.846.013-.017.023-.037.034-.051.326-.405.577-.86.748-1.397.045-.13.045-.274.078-.409.078-.361.213-.682.21-1.096-.242-20.325 19.249-29.532 36.295-21.017zm-180.105-48.007c15.149-5.389 27.694 7.199 27.55 21.783-.104.396-.151.765-.134 1.13-6.478 11.74-7.185 26.367-1.583 38.404.145.359.509.543.852.532.346.017.665-.161.707-.613 1.981-11.297 3.177-22.39 7.748-33.041 2.069-4.823 4.974-8.728 8.137-12.396 9.284-9.706 20.904-14.024 35.486-8.474 14.289 5.443 25.909 16.656 28.686 31.405-.805-.129-1.556-.343-2.387-.427-15.639-1.616-32.663 7.714-43.933 17.77-21.041 18.765-19.135 54.024 3.92 69.429-5.912 3.217-11.064 7.48-15.266 12.928-.831-.546-1.669-1.095-2.56-1.591-17.048-9.526-38.285-1.736-48.143 13.769-1.647-1.67-3.406-3.176-5.249-4.505 6.747-9.954 11.468-20.712 10.715-33.09-.399-6.555-2.946-12.284-6.592-17.35-1.828-3.641-4.552-6.862-7.876-9.626 16.45-5.748 24.462-24.745 16.924-42.315-4.55-10.605-13.328-16.219-23.095-17.693-1.774-11.976 4.299-21.829 16.093-26.029zm-102.458 39.177c1.528.829 2.932.656 4.079.016 1.742-.529 3.064-1.966 2.65-4.359-2.67-15.671 6.187-28.431 22.383-29.803 17.312-1.472 29.665 14.683 28.822 30.615-.135 2.502 1.449 3.781 3.332 4.055 1.134.394 2.442.349 3.763-.443 11.296-6.777 25.297-6.929 33.794 4.272 11.862 15.631.165 35.232-18.251 34.99-.493-.123-.955-.138-1.402-.066-13.775-5.229-30.391-5.323-40.867 1.124-.372.233-.296.925.185.983 11.164 1.308 22.072.364 33.036 3.655 1.771.532 3.446 1.172 5.026 1.907.319.396.648.787 1.135 1.098 21.822 14.028 24.882 33.935 10.519 54.499-9.943-3.878-21.194-2.992-31.035 4.67-3.92 3.049-6.803 6.715-8.804 10.661-7.722-3.195-16.833-11.868-18.759-19.556-.032-.131-.114-.2-.153-.321 2.296-7.895 1.702-16.678-2.716-23.329-.222-.337-.765-.247-.852.154-1.325 6.186-1.924 12.424-3.589 18.543-.826 3.037-1.95 5.817-3.06 8.585-1.738 3.494-3.938 6.653-6.645 9.532-1.52-1.181-3.105-2.302-4.833-3.294-10.473-6.008-21.651-6.039-31.585-2.235-2.042-2.984-3.433-6.482-4.45-9.875-1.352-4.483-.789-9.117-1.747-13.615-.05-.239-.353-.198-.46-.04-5.041 7.59-1.889 17.743 2.12 25.584-1.623.851-3.2 1.785-4.723 2.832-9.864-11.951-9.489-28.924 1.593-40.033 2.126-2.137 1.425-4.775-.321-6.315-.542-.563-1.192-1.046-2.104-1.297-18.278-5.037-21.834-25.604-18.919-41.916 4.267-23.878 32.919-32.105 52.838-21.278zm-155.729 99.656c-1.646-21.44 14.003-32.313 33.345-35.345 1.237-.195 2.135-.813 2.812-1.583.006-.009.012-.012.018-.016.197-.229.383-.455.532-.717 1.287-1.74 1.486-4.079-.225-5.547-.527-.667-1.269-1.115-2.235-1.267-16.735-7.259-18.47-26.935-4.123-38.103 9.875-7.685 21.774-4.194 29.91 3.435 3.321 3.689 5.823 8.031 6.903 13.88 1.704 9.187.221 20.224-1.082 29.399-.1.722.791 1.028 1.173.425 7.2-11.303 10.055-22.086 6.361-35.32-.282-1.016-.697-1.977-1.095-2.943.091-.182.227-.283.298-.491 4.234-11.69 14.567-18.501 26.284-18.666-1.759 2.91-3.206 6.094-4.267 9.548-6.069 19.652.288 43.854 18.669 53.235-10.126 14.296-8.67 33.273 2.372 47.115-2.213 2.248-4.237 4.697-5.993 7.335-14.566-23.727-48.685-24.197-67.033-2.774-2.104 2.458-3.9 4.945-5.528 7.441-10.896-3.093-22.464-11.658-24.593-23.206-.071-.373-.568-.442-.679-.052-3.546 12.564 11.162 23.766 22.389 28.137-1.134 2.141-2.127 4.287-2.915 6.43-21.798-.664-29.878-21.887-31.298-40.35zm46.006 96.034c1.984-.478 4.036-.84 6.31-.925 7.383-.274 15.381 3.389 22.126 6.116.512.208 1.193-.204.964-.819-2.61-6.957-9.299-10.964-16.75-12.167-.348-.752-.834-1.465-1.673-2.013-21.947-14.389-24.999-34.061-10.151-55.097 14.912-21.126 48.955-22.658 58.23 4.825.103.308.295.503.443.761-3.917 12.322-3.397 25.821 4.437 32.935.485.442 1.099.025 1.138-.544.735-10.275-1.017-19.774 1.797-29.962.675-2.448 1.636-4.682 2.729-6.814 7.611-14.129 21.122-21.755 37.823-17.902 22.335 5.15 27.585 33.799 12.732 49.04-.054.06-.063.124-.112.181-.08.117-.16.226-.223.35-1.54 2.042-.925 4.376.668 5.798.538.556 1.19 1.032 2.093 1.283 18.279 5.037 21.834 25.602 18.923 41.915-4.273 23.876-32.921 32.106-52.842 21.275-1.471-.797-2.828-.674-3.95-.097-1.844.469-3.249 1.963-2.779 4.441 1.963 10.479-1.208 19.682-9.476 25.573-9.599-19.321-14.967-38.608-40.752-45.719-16.476-4.544-28.922 3.741-37.576 15.77-13.592-12.127-10.076-33.125 5.871-38.204zm271.881 641.293c-32.546-3.585-65.033-9.462-97.16-15.692-33.645-6.526-66.987-14.586-100.06-23.555-31.544-8.553-65.162-16.846-94.632-31.215-22.752-11.092-19.556-37.406-18.594-58.747 1.423-31.729 3.182-63.44 4.978-95.149 3.722-65.565 7.855-131.114 11.533-196.686 1.661-29.656 3.195-59.317 4.533-88.991.779-17.311 1.609-35.587 5.31-52.999 3.782-9.047 9.806-17.037 17.75-23.046 15.118-11.443 28.696-2.122 37.01 11.975 10.214 17.32 15.671 38.574 31.922 51.617 17.25 13.842 40.036 3.165 56.079-7 13.017-8.244 24.628-17.754 39.207-23.272 17.047-6.45 27.017 13.095 34.777 25.238 14.458 22.608 26.702 50.785 55.365 57.454 24.082 5.603 44.972-12.548 61.96-26.639 10.312-8.56 20.682-19.776 33.428-24.526 12.953-4.832 22.592 15.347 28.243 23.707 5.354 7.917 11.771 18.287 19.562 26.906-35.479 150.331-70.264 301.403-112.688 449.946-2.029 7.1-4.138 14.171-6.377 21.205-3.943.045-7.952-.068-12.146-.531zm228.705-376.538c-11.471 39.604-23.265 79.106-34.969 118.635-14.055 47.475-27.922 95.007-41.51 142.615-6.486 22.745-9.625 59.828-29.402 75.2-17.199 13.368-41.891 21.297-61.688 29.327-15.189 5.899-29.015 10.233-44.126 11.16 21.166-65.166 36.131-132.793 52.732-199.178 20.242-80.922 39.988-161.975 59.371-243.104 1.974-8.262 3.931-16.525 5.889-24.789 7.562 7.301 16.326 12.551 26.557 12.446 16.83-.175 29.322-11.06 41.176-21.754 7.654-6.911 15.396-13.427 25.25-16.905 13.743-4.849 20.295 6.119 26.055 16.336-.266 3.008-.613 5.901-.982 8.501-4.369 30.924-15.704 61.643-24.353 91.51zm53.09-172.295c-.935-.147-1.729.024-2.449.313-2.233.685-3.958 2.797-2.897 5.623 5.753 15.313-1.732 31.249-16.302 37.62-7.063-15.789-23.189-18.979-38.718-14.322-3.392-6.354-4.351-13.3-3.996-20.448-.005-.103-.013-.204-.03-.306.011-.495-.084-.917-.203-1.318.063-.106.139-.194.201-.298 4.23-7.092 8.308-17.208 4.977-25.402-.075-.185-.368-.253-.461-.038-2.807 6.318-4.328 12.775-8 18.771-1.072 1.75-2.379 3.487-3.838 5.17-.215.161-.443.242-.641.457-7.092 7.6-20.113 11.105-30.12 9.425-14.953-2.513-21.728-15.904-24.925-29.027-6.106-25.109 7.038-42.111 31.962-46.017 1.237-.195 2.134-.813 2.808-1.587.01-.005.011-.009.02-.013.197-.229.379-.456.531-.713 1.287-1.745 1.488-4.083-.229-5.552-.527-.667-1.268-1.117-2.23-1.268-16.738-7.26-18.473-26.935-4.122-38.1 11.96-9.31 26.909-2.235 34.515 8.748.877 1.266 2.051 1.843 3.25 1.956 1.819.526 3.795.019 4.705-2.318 6.273-16.085 23.025-22.887 38.877-16.024 13.197 5.719 15.781 20.043 10.693 31.669-1.323 1.697-2.607 3.346-4.355 4.751-2.219 1.779-4.729 3.05-7.398 3.969-2.344.805-4.685.778-7.027 1.398-.186.05-.275.304-.163.458 4.028 5.474 12.98 2.937 17.835.032.746.549 1.665.923 2.867.834 23.833-1.742 43.854 17.615 39.375 41.165-3.093 16.246-16.529 33.219-34.512 30.392z"/><path d="m469.001 136.352c.332.124.692-.056.684-.444-.045-1.668-.596-2.912-1.164-4.462-.564-1.546-1.022-3.106-2.388-4.115-.21-.158-.445-.07-.532.171-1.042 2.927.353 7.701 3.4 8.85z"/><path d="m637.333 249.423c-.274.075-.279.397-.124.577 1.414 1.672 5.486 2.544 6.61.103.104-.225.081-.522-.127-.691-1.534-1.27-4.576-.475-6.359.011z"/><path d="m546.41 123.006c-6.517-4.859-15.436-2.543-22.435.006-5.925 2.153-16.475 8.387-15.126 16.039.023.146.209.309.361.184 5.54-4.658 9.081-9.067 16.284-11.578 6.645-2.313 13.692-2.35 20.55-3.619.436-.083.834-.685.366-1.032z"/><path d="m550.031 123.665c-.223.178-.283.418-.146.672 1.001 1.849 4.188 2.49 5.985 1.625.227-.111.271-.407.221-.622-.565-2.372-4.275-3.13-6.06-1.675z"/><path d="m790.563 329.96c-.183 0-.271.257-.131.375 4.629 3.927 8.953 7.173 11.277 13.031 2.021 5.093 1.472 11.395 1.615 16.79.012.418.641.698.905.321 7.477-10.47.612-30.508-13.666-30.517z"/><path d="m570.241 314.081c-.098.201.055.517.309.474 7.318-1.277 12.909-2.606 20.358-.603 7.48 2.011 12.587 7.489 18.254 12.342.376.325.938.048.933-.442-.257-14.425-32.759-26.147-39.854-11.771z"/><path d="m611.504 329.044c-.243-.064-.537.122-.579.375-.335 2.026 1.092 4.391 2.726 5.465.2.135.537.022.631-.198.919-2.113-.511-5.022-2.778-5.642z"/><path d="m350.303 327.127c-.269.392.243.988.668.79 12.887-5.958 19.883-31.831 5.459-39.936-.241-.14-.558.18-.377.408 9.368 11.814 1.807 27.948-5.75 38.738z"/><path d="m233.147 237.258c-.104.291.198.728.513.468 4.875-3.987 9.93-6.965 15.969-8.858 6.129-1.923 11.991-.605 18.176-1.189.474-.046.625-.575.319-.906-8.587-9.523-31.17.019-34.977 10.485z"/></g></g></g></svg>