<svg id="Wedding" height="512" viewBox="-70.866 -70.866 850.394 850.394" width="512" xmlns="http://www.w3.org/2000/svg"><g><path d="m399.249 128.955c-6.566-17.887-5.746-38.633 2.758-58.23 10.816-24.941 31.258-43.293 54.625-49.629 5.605-18.68 14.555-38.246 32.059-51.805 56.238-47.008 164.344 15.043 157.742 82.293-.785 23.051-11.848 41.789-24.535 57.137 14.578 36.234-4.574 77.77-33.348 97.828-8.828 7.648-23.496 7.113-26.242 19.77-55.031 163.965 72.898 140.762-105.516 419.813-79.137 138.797-158.785 132.691-283.613 54.703-45.566-27.836-118.551-62.773-110.645-141.34 7.402-59.32 35.566-115.219 63.781-167.387 29.574-54.68 66.305-122.594 125.949-159.074 28.594-17.902 61.652-26.781 88.539-44.156 24.086-15.966 43.34-35.685 58.446-59.923z" fill="#fff"/><g><path d="m361.944 220.775c-28.191 18.688-61.148 27.441-89.715 44.91-50.895 31.125-84.836 93.934-112.254 144.629-25.523 47.191-52.742 100.016-59.473 153.918-6.117 49.035 50.766 79.09 85.832 99.898 37.102 22.02 98.895 61.016 144.773 52.734 45.824-8.273 77.977-67.461 100.949-103.238 35.082-54.629 67.813-114.75 82.703-178.391 5.898-25.211 3.875-48.008-.344-73.199-8.602-51.379-7.957-102.063 12.656-150.645 4.438-10.473 10.402-20.203 16.395-29.832 5.113 1.402 15.09-.754 23.195-6.41 17.469-12.172 28.293-38.203 17.672-56.324-2.895-4.938-6.887-9.52-11.422-13.824 15.148-15.199 34.559-33.801 35.273-54.73.855-25.031-16.91-39.059-37.402-49.723-19.473-10.137-40.422-15.133-58.656-1.008-15.754 12.207-20.684 38.469-25.191 58.66-5.801-1.207-11.363-1.66-16.355-.977-26.129 3.594-48.219 42.215-31.832 65.383 1.418 2.004 2.941 3.969 4.555 5.902-19.14 38.201-45.476 68.478-81.359 92.267z" fill="#68182b"/><path d="m385.565 645.232c-5.758 7.566-11.707 14.93-17.895 22.016-20.734 23.727-38.352 33.258-68.352 25.23-30.781-8.234-59.984-23.332-87.887-38.387-25.336-13.672-50.309-29.207-71.867-48.375-22.867-20.332-19.809-43.383-11.496-71.496 2.703-9.137 5.785-18.215 9.164-27.223 5.277-14.047 8.559-10.543 18.105-1.848 30.34 27.66 67.426 49.141 102.652 68.543 38.664 21.297 80.246 41.488 123.191 54.223 15.327 4.548 13.401 5.458 4.385 17.317z" fill="#00ff9d"/><path d="m475.057 488.646c-7.086 17.023-15.406 33.816-24.121 50.578-11.441 22.004-23.82 44.258-37.414 65.715-7.578 11.98-12.688 15.422-25.949 11.566-40.723-11.871-79.734-30.68-116.926-50.355-36.023-19.063-74.016-40.836-105.016-68.77-14.328-12.91-16.176-20.672-7.961-37.621 12.66-26.102 27.016-51.461 41.488-75.746 6.973-11.699 14.078-22.809 21.52-33.281 10.672-15.023 14.066-13.52 27.074-1.531 28.785 26.539 63.59 47.363 97.293 66.023 38.5 21.313 79.988 40.793 122.848 52.742 10.817 3.013 12.621 7.555 7.164 20.68z" fill="#ff7a0d"/><path d="m510.831 51.268c2.055-7.445 4.297-14.828 6.992-22.125 7.699-20.887 25.09-18.211 42.309-10.379 17.664 8.027 33.875 21.059 22.16 42.305-3.805 6.887-9.055 13.176-14.691 19.176-9.652 10.27-15.668 8.254-32.406-1.383-4.168-2.402-9.059-5.117-14.355-7.793-11.783-5.946-12.904-9.337-10.009-19.801z" fill="#e5e5e5"/><path d="m468.464 79.24c13.871-9.848 56.242 17.602 68.246 25.168 9.434 5.941 32.328 19.586 30.242 33.625-1.391 9.367-10.273 23.027-20.609 22.867-27.313-3.394-126.77-46.964-77.879-81.66z" fill="#dda96b"/><path d="m459.096 143.994c17.879 14.711 40.785 26.168 62.816 32.719-34.438 60.055-38.457 122.676-27.84 190.926 4.074 26.145 2.078 50.988-3.691 75.055-3.754 15.684-7.594 16.488-23.922 11.641-37.77-11.207-73.965-28.246-108.598-46.559-35.355-18.699-71.902-40.352-101.746-68.051-13.777-12.801-15.898-15.039-2.684-28.09 18.613-18.383 40.164-33.625 66.836-45.207 59.915-26.004 108.392-64.867 138.829-122.434z" fill="#00ff9d"/><path d="m520.839 71.068c5.297 2.676 10.188 5.391 14.355 7.793 16.738 9.637 22.754 11.652 32.406 1.383 5.637-6 10.887-12.289 14.691-19.176 6.301-11.43 4.484-20.469-1.258-27.645 2.063 14.125-5.352 25.652-20.699 33.715-22.629 11.891-39.609-4.094-47.414-23-.707 2.375-1.43 4.742-2.09 7.129-2.894 10.465-1.773 13.856 10.009 19.801z" fill="#c6c6c6"/><path d="m558.331 26.502c-6.844-4.656-16.586-6.422-23.297-3.02-10.031 5.082-10.816 19.723-4.25 27.535 7.191 8.555 19.117 6.598 26.914.359 9.039-7.222 8.457-19.55.633-24.874z" fill="#f4f4f4"/><path d="m387.573 616.506c13.262 3.855 18.371.414 25.949-11.566 10.059-15.887 19.453-32.211 28.301-48.539-22.254 14.957-46.344 23.098-76.051 18.914-38-5.359-74.953-24.641-108.285-42.723-27.117-14.711-55.871-29.859-74.316-55.441-10.5-14.555-12.734-30.219-10.762-46.031-5.078 9.445-10.047 18.969-14.738 28.641-8.215 16.949-6.367 24.711 7.961 37.621 31 27.934 68.992 49.707 105.016 68.77 37.191 19.674 76.202 38.483 116.925 50.354z" fill="#ef6200"/><path d="m423.167 477.182c-62.844-25.152-132.965-69.668-159.59-88.852-12.398-8.93-28.516-17.91-38.871-.98-15.102 24.664-7.711 46.906 8.418 69.004 32.145 44.039 93.469 64.359 144.977 72.125 20.625 3.113 42.984 5.184 54.742-14.535 13.902-23.321 15.109-26.868-9.676-36.762z" fill="#ffb85a"/><path d="m543.698 152.268c-13.895.492-28.34-8.504-40.508-14.359-10.047-4.836-19.551-10.453-28.336-17.344-11.898-9.32-15.82-20.441-15.313-32.813-24.363 32.926 61.684 70.023 86.801 73.148 8.25.125 15.508-8.551 18.836-16.82-6.031 4.645-12.8 7.875-21.48 8.188z" fill="#c48d51"/><path d="m543.901 118.283c-11.805-9.371-32.215-21.242-47.359-26.609-17.754-6.281-33.891.574-12.047 17.547 4.512 3.488 29.145 18.551 47.977 25.234 21.246 7.527 30.488-1.023 11.429-16.172z" fill="#f4c38e"/><path d="m122.823 556.58c-2.727 18.379.246 34.469 16.742 49.137 21.559 19.168 46.531 34.703 71.867 48.375 27.902 15.055 57.105 30.152 87.887 38.387 30 8.027 47.617-1.504 68.352-25.23 4.441-5.086 8.723-10.355 12.938-15.699-19.262 12.313-40.391 21.43-63.27 23.195-34.027 2.629-71.691-15.84-101.348-30.34-26.656-13.035-53.371-27.207-73.891-49.09-9.757-10.411-16.175-24.149-19.277-38.735z" fill="#00d35f"/><path d="m256.116 339.725c29.844 27.699 66.391 49.352 101.746 68.051 34.633 18.313 70.828 35.352 108.598 46.559 16.328 4.848 20.168 4.043 23.922-11.641 5.77-24.066 7.766-48.91 3.691-75.055-10.617-68.25-6.598-130.871 27.84-190.926-5.922-1.758-11.898-3.902-17.824-6.332 4.344 20.738-10.211 42.977-18.281 62.43-12.332 29.754-10.047 63.77-6.398 94.941 2.621 22.453 4.621 45.16.594 67.574-2.277 12.656-8.273 26.426-20.926 31.586-10.676 4.363-25.629-1.035-35.984-4.105-22.066-6.547-43.477-16.77-63.375-28.258-19.223-11.109-39.09-20.824-57.234-33.73-22.414-15.945-41.16-38.906-25.852-66.488.902-1.625 1.906-3.215 2.941-4.789-9.367 6.754-18.055 14.113-26.141 22.094-13.215 13.05-11.094 15.288 2.683 28.089z" fill="#00d35f"/><g fill="#bdffa5"><path d="m441.971 207.631c-14.012 16.289-30.848 30.465-48.875 41.539-22.293 13.699-50.828 19.23-71.488 35.27-10.773 8.363-20 21.48-17.234 35.965 2.504 13.109 12.086 28.949 26.949 30.215 37.621 3.203 72.207-41.727 91.652-68.105 12.965-17.586 24.563-37.27 32.707-57.602 12.328-30.712 5.473-39.583-13.711-17.282z"/><path d="m255.475 608.443c-.719-4.77-3.051-9.828-7.348-14.691-11.492-13-29.582-21.469-44.457-29.711-9.332-5.168-18.59-10.383-27.547-16.176-3.289-2.121-6.895-3.973-10.332-6.023-10.512-6.289-15.336-14.695-20.039 3.387-4.234 16.309 3.957 32.879 16.172 46.289 15.152 16.629 44.344 37.742 67.723 39.387 11.289.789 19.488-3.383 23.445-9.871 2.883-3.165 4.067-7.348 2.383-12.591z"/></g></g></g></svg>