<svg id="Toys" height="512" viewBox="-70.866 -70.866 850.394 850.394" width="512" xmlns="http://www.w3.org/2000/svg"><g><path d="m675.149 178.062c-10.539-45.266-44.883-62.965-69.957-75.891-102.367-56.328-231.234-139.617-349.559-72.531-46.168 18.965-92.422 38.84-135.176 62.781-44.574 21.672-98.277 62.574-94.16 122.586-7.871 83.723-10.043 157.281-2.457 253.546 2.121 29.191 5.684 78.047 48.668 110.145 101.902 73.504 182.031 116.086 284.579 125.277 96.742-9.488 186.449-53.223 272.684-120.137 33.348-26.422 48.324-53.961 53.422-98.246 6.109-51.844 7.652-110.957 5.238-173.132-1.411-42.332-3.004-90.312-13.282-134.398z" fill="#fff"/><g><path d="m637.88 186.742c-7.816-33.57-36.309-42.426-63.789-57.738-64.098-35.691-144.27-84.121-219.415-87.023-35.953-1.391-71.391 18.254-103.895 31.238-37.367 14.925-73.781 31.945-109.105 51.218-27.59 15.051-53.441 28.457-70.094 55.891-7.973 13.145-6.262 34.551-7.883 49.223-3.262 29.496-4.879 59.156-5.848 88.805-1.613 49.16.59 98.394 4.156 147.417 2.313 31.773 6.129 61.902 33.391 82.258 72.371 54.02 148.184 97.203 237.418 115.258 10.031 2.031 20.375 2.777 30.575 2.254.809-.039 1.563-.164 2.273-.34.176-.02.344 0 .527-.035 88.699-14.441 169.738-55.797 239.816-111.32 26.531-21.023 35.418-40.051 39.168-72.629 6.09-52.906 7.086-106.262 5.281-159.437-1.502-44.068-2.545-92.001-12.576-135.04z" fill="#68182b"/><path d="m350.91 329.468c-2.293-16.426-4.488-22.879-22.742-26.301-21.836-4.105-43.473-11.707-65.344-20.145-54.977-21.215-107.684-46.723-157.637-77.77-11.199-6.949-16.078-10.438-18.727 6.75-1.555 10.047-2.07 20.422-2.953 30.492-3.652 41.641-5.629 83.426-4.922 125.238.34 20.414.902 40.828 2.094 61.219 1.254 21.402-.723 48.984 5.82 69.379 12.109 37.711 57.191 60.262 89.281 79.734 41.145 24.977 92.719 53.102 143.738 62.938 17.59 3.383 21.227-2.934 23.711-18.148 16.014-98.007 21.42-195.039 7.681-293.386zm-114.414 103.261c-1.594 16.063-12.848 35.629-28.535 41.422-13.148 4.844-23.164-.66-31.969-9.5-22.52-22.609-26.07-63.18-21.742-92.891 3.363-23.046 20.102-60.453 50.395-42.457 31.304 18.603 35.051 71.262 31.851 103.426z" fill="#ffc522"/><path d="m207.578 460.577c-9.121 5.715-16.629 1.246-23.031-5.152-12.582-12.609-15.602-31.086-17.602-49.043-2.168-19.488-4.066-73.386 28.34-67.21 34.922 6.652 39.161 104.585 12.293 121.405z" fill="#ff2e60"/><path d="m469.743 423.261c-7.68 7.621-14.57 2.875-19.883-3.176-8.102-9.227-10.191-22.004-11.652-34.641-1.648-14.219-3.691-55.707 20.367-50.714 23.777 4.93 27.941 71.902 11.168 88.531z" fill="#ff2e60"/><path d="m345.129 230.632c-8.113 2.246-16.582-.758-24.625-3.68-6.039-2.195-30.891-12.668-22.82-22.453 9.305-11.289 48.539 6.684 52.793 19.004 1.699 4.946-.43 5.778-5.348 7.129z" fill="#ff2e60"/><path d="m431.841 195.542c1.871 5.227-1.094 6.086-5.543 7.27-8.051 2.145-16.434-.844-24.41-3.742-6.039-2.195-30.883-12.656-22.816-22.445 9.269-11.258 48.362 6.585 52.769 18.917z" fill="#ff2e60"/><path d="m463.626 149.777c8.871-10.773 45.039 5.109 52 17.297 2.855 5.004-.695 7.684-4.176 8.719-8.234 2.453-16.844-.613-25.016-3.57-6.039-2.196-30.879-12.657-22.808-22.446z" fill="#ff2e60"/><path d="m198.246 156.988c9.09-11.027 46.77 5.887 52.449 18.16 2.387 5.156-1.375 7.199-6.07 8.238-7.793 1.723-15.875-1.152-23.57-3.945-6.039-2.195-30.879-12.672-22.809-22.453z" fill="#ff2e60"/><path d="m279.629 129.109c9.418-11.434 49.609 7.168 52.945 19.492 1.141 4.18-1.496 5.492-5.348 6.594-8.16 2.332-16.691-.699-24.793-3.641-6.03-2.195-30.866-12.66-22.804-22.445z" fill="#ff2e60"/><path d="m592.356 162.261c-16.906-11.957-38.305-20.41-54.707-29.27-31.098-16.801-62.707-33.07-95.902-45.383-31.727-11.773-68.469-28.218-102.919-23.776-35.449 4.582-75.402 26.09-108.059 40.414-29.695 13.02-58.957 27.086-87.098 43.242-8.84 5.082-19.406 9.988-28.617 16.066-14.656 9.668-12.773 15.102 2.211 24.406 47.836 29.742 98.363 54.887 151.168 74.719 48.734 18.305 91.844 31.734 143.149 11.871 58.074-22.484 130.887-46.629 180.676-88.473 13.321-11.199 14.778-13.441.098-23.816zm-233.883-71.566c17.633-9.836 45.746.742 60.398 12.043 5.75 4.434 10.508 12.063 11.137 19.496.789 9.422-4.984 14.871-12.297 17.523-17.781 6.5-39.523-3.059-54.215-13.086-11.445-7.816-21.465-26.8-5.023-35.976zm-94.75 91.75c-1.59 6.902-6.863 10.5-13.496 12.563-17.492 5.426-38.402-3.863-52.668-13.609-11.441-7.824-21.469-26.805-5.023-35.98 17.633-9.832 45.75.754 60.402 12.043 7.191 5.538 12.84 16.065 10.785 24.983zm10.195-64.903c17.629-9.836 45.746.75 60.402 12.043 6.73 5.176 12.094 14.711 11.078 23.215-.98 8.273-7.176 12.367-14.184 14.449-17.402 5.176-38.113-4.059-52.273-13.73-11.441-7.824-21.468-26.801-5.023-35.977zm89.012 113.274c-1.867 6.445-6.883 9.684-13.047 11.648-17.527 5.57-38.555-3.773-52.879-13.555-11.449-7.816-21.477-26.801-5.031-35.977 17.633-9.836 45.762.742 60.414 12.043 7.418 5.716 13.192 16.751 10.543 25.841zm81.848-30c-1.102 7.41-6.348 11.129-11.941 13.219-17.832 6.664-39.699-2.93-54.449-13-11.449-7.82-21.465-26.805-5.023-35.98 17.625-9.832 45.754.738 60.398 12.039 6.851 5.284 12.3 15.093 11.015 23.722zm67.75-12.223c-16.813 3.547-36.156-5.23-49.594-14.406-11.445-7.824-21.457-26.805-5.02-35.98 17.629-9.836 45.75.754 60.402 12.043 6.234 4.801 11.313 13.344 11.207 21.344-.112 9.323-6.823 14.866-16.995 16.999z" fill="#ffc522"/><path d="m364.18 102.261c8.754-10.617 44.035 4.66 51.699 16.777 3.508 5.543.121 8.109-4.113 9.313-8.16 2.328-16.676-.699-24.77-3.645-6.03-2.195-30.882-12.656-22.816-22.445z" fill="#ff2e60"/><path d="m629.364 321.781c-1.398-31.535.367-70.887-5.531-104.629-3.363-19.25-6.25-24.324-21.879-11.688-53.523 43.289-129.316 68.559-191.012 91.809-7.195 2.715-14.324 4.746-21.391 6.184-17.941 3.652-20.301 4.477-16.973 30.395 12.359 96.183 7.355 191.175-7.813 287.058-3.125 19.777-3.551 24.621 22.973 18.578 67.402-15.367 130.09-46.215 185.871-87.449 17.73-13.098 43.035-27.367 47.719-51.156 3.637-18.465 4.855-37.777 6.117-56.551 2.747-40.786 3.724-81.696 1.919-122.551zm-137.785 84.179c-1.289 11.672-8.859 25.172-19.551 30.969-10.422 5.648-20.117 2.793-28.586-5.387-18.609-17.949-21.762-51.035-17.746-75.066 3.086-18.484 17.922-46.933 41.375-31.828 24.047 15.504 27.344 55.667 24.508 81.312zm99.348 61.957c-1.406 12.715-10.258 27.605-22.5 32.336-7.969 3.094-18.469.063-25.383-6.516-18.848-17.906-22.023-51.168-17.988-75.305 3.082-18.484 17.914-46.938 41.363-31.828 24.058 15.504 27.336 55.665 24.508 81.313z" fill="#ffc522"/><path d="m567.305 486.729c-7.223 5.211-12.832.875-17.176-3.688-8.867-9.293-11.047-22.543-12.566-35.641-1.641-14.211-3.695-55.707 20.363-50.719 24.59 5.099 28.188 76.494 9.379 90.048z" fill="#ff2e60"/><path d="m171.028 430.073c2.551 9.516 6.531 18.352 13.52 25.352 6.402 6.398 13.91 10.867 23.031 5.152 25.906-16.223 22.883-107.832-8.68-120.324 12.734 15.765 16.945 36.261 18.363 56.636 1.043 15.055.352 31.152-6.281 44.922-11.977 24.879-30.078 4.239-39.953-11.738z" fill="#ea0f4d"/><path d="m557.927 396.683c-.594-.125-1.102-.09-1.66-.156 16.742 14.582 19.609 45.957 16.566 65.383-1.367 8.676-6.52 21.68-17.523 19.281-6.914-1.504-11.535-9.82-15.023-17.605 1.82 7.285 4.684 14.047 9.844 19.457 4.344 4.563 9.953 8.898 17.176 3.688 18.807-13.556 15.209-84.951-9.38-90.048z" fill="#ea0f4d"/><path d="m221.055 179.441c7.695 2.793 15.777 5.668 23.57 3.945 4.695-1.039 8.457-3.082 6.07-8.238-.469-1.004-1.211-2.043-2.07-3.09.609 19.277-49.273.656-49.594-15.742-.258.23-.57.406-.785.672-8.07 9.781 16.77 20.258 22.809 22.453z" fill="#ea0f4d"/><path d="m386.997 124.707c8.094 2.945 16.609 5.973 24.77 3.645 4.234-1.203 7.621-3.77 4.113-9.313-.262-.414-.625-.836-.949-1.254.988 2.973.352 5.617-4.602 6.891-4.238 1.094-9.246.383-13.445-.449-5.492-1.086-31.047-11.91-32.273-22.34-.133.141-.309.23-.43.375-8.067 9.788 16.785 20.249 22.816 22.445z" fill="#ea0f4d"/><path d="m320.504 226.953c8.043 2.922 16.512 5.926 24.625 3.68 4.918-1.352 7.047-2.184 5.348-7.129-.469-1.363-1.43-2.801-2.664-4.25 1.109 8.113-6.922 8.16-11.707 7.988-6.184-.211-12.77-2.77-18.379-5.133-9.254-3.91-16.578-9.652-19.281-18.266-.242.23-.547.402-.762.656-8.07 9.786 16.781 20.258 22.82 22.454z" fill="#ea0f4d"/><path d="m451.864 414.851c-4.348-1.938-7.805-6.703-10.566-11.793 1.715 6.297 4.293 12.164 8.563 17.027 5.313 6.051 12.203 10.797 19.883 3.176 16.773-16.629 12.609-83.601-11.168-88.531-.461-.102-.848-.066-1.297-.125 10.73 14.684 13.242 32.105 13.867 50.941.277 8.43-2.747 36.676-19.282 29.305z" fill="#ea0f4d"/><path d="m401.887 199.07c7.977 2.898 16.359 5.887 24.41 3.742 4.449-1.184 7.414-2.043 5.543-7.27-.391-1.086-1.129-2.227-2.02-3.383-1.625 8.5-21.633 3.879-29.273 1.09-5.715-2.09-17.98-8.875-21.461-16.637-.008.004-.008.004-.016.012-8.065 9.79 16.778 20.251 22.817 22.446z" fill="#ea0f4d"/><path d="m486.434 172.222c8.172 2.957 16.781 6.023 25.016 3.57 3.262-.969 6.52-3.414 4.574-7.836-13.875 8.57-48.172-4.609-50.633-19.715-.66.441-1.273.926-1.766 1.535-8.07 9.79 16.77 20.251 22.809 22.446z" fill="#ea0f4d"/><path d="m302.434 151.554c8.102 2.941 16.633 5.973 24.793 3.641 3.852-1.102 6.488-2.414 5.348-6.594-.441-1.625-1.559-3.367-3.125-5.129.473 3.777-.863 7.016-6.719 7.785-5.313.699-10.996-1.137-16.059-2.555-6.516-1.828-25.508-9.363-27.242-19.27-7.266 9.693 17.039 19.954 23.004 22.122z" fill="#ea0f4d"/><path d="m582.93 181.957c-18.359 19.945-49.398 32.16-73.262 43.836-30.297 14.82-61.688 27.41-93.715 37.938-31.996 10.512-64.5 15.863-97.575 6.414-35.141-10.035-69.418-24.168-103.246-37.844-35.129-14.207-69.621-29.68-102.91-47.699 1.469 1.074 3.152 2.18 5.043 3.359 47.836 29.742 98.363 54.887 151.168 74.719 48.734 18.305 91.844 31.734 143.149 11.871 58.074-22.484 130.887-46.629 180.676-88.473 13.32-11.199 14.777-13.441.098-23.816-2.82-1.996-5.793-3.863-8.82-5.684 5.141 8.675 6.605 17.543-.606 25.379z" fill="#ffa222"/><path d="m621.329 500.882c1.574-7.977 2.637-16.125 3.504-24.313-10.168 27.563-30.031 45.199-54.48 60.98-42.07 27.141-87.637 53.645-135.535 69.012-9.898 3.176-20.504 5.109-30.703 2.352-16.379-4.422-16.051-31.18-16.406-44.133-.73-26.426 3.145-52.641 2.082-79.145-1.219-30.352-3.988-60.621-7.98-90.727-2.066-15.516-4.074-31.07-7.496-46.292 10.059 91.144 4.844 181.32-9.547 272.292-3.125 19.777-3.551 24.621 22.973 18.578 67.402-15.367 130.09-46.215 185.871-87.449 17.729-13.097 43.033-27.366 47.717-51.155z" fill="#ffa222"/><path d="m175.781 578.065c41.145 24.977 92.719 53.102 143.738 62.938 17.59 3.383 21.227-2.934 23.711-18.148 3.996-24.453 7.332-48.852 9.871-73.219-3.422 17.922-8.301 35.625-17.141 50.598-13.996 23.703-42.133 18.133-64.125 10.762-41.102-13.781-81.988-37.32-119.023-59.84-36.152-21.977-56.055-52.008-62.648-93.781-4.012-25.418-5.766-51.02-7.273-76.688-1.313-22.234-2.691-44.632-3.719-67.066-.613 18.031-.891 36.066-.586 54.113.34 20.414.902 40.828 2.094 61.219 1.254 21.402-.723 48.984 5.82 69.379 12.11 37.71 57.192 60.261 89.281 79.733z" fill="#ffa222"/><g fill="#fbe134"><path d="m629.364 321.781c-1.398-31.535.367-70.887-5.531-104.629-3.363-19.25-6.25-24.324-21.879-11.688-53.523 43.289-129.316 68.559-191.012 91.809-7.02 2.652-13.965 4.629-20.863 6.051 11.965.055 24.297-2.828 35.395-5.445 30.309-7.148 59.648-18.918 88.27-30.992 26.984-11.391 52.477-24.613 77.223-40.277 4.984-3.156 9.781-6.242 15.449-8.063 10.555-3.375 10.152 15.703 10.359 20.504.137 3.223.375 6.438.625 9.656 1.957 25.621 4.199 51.211 5.629 76.871 1.496 26.746 2.668 53.511 3.664 80.281.547 14.656.098 30.094.27 45.504.16-2.344.324-4.707.484-7.031 2.745-40.786 3.722-81.696 1.917-122.551z"/><path d="m434.649 333.292c-11.051 12.188-14.094 31.843-14.035 47.777.078 21.047 12.598 66.785 41.957 62.352 17.578-2.652 24.578-14.113 26.715-28.035-3.223 8.82-9.379 17.27-17.258 21.543-10.422 5.648-20.117 2.793-28.586-5.387-18.609-17.949-21.762-51.035-17.746-75.066 1.211-7.277 4.277-16.078 8.953-23.184z"/><path d="m537.091 391.128c-32.727 28.516-21.02 123.555 28.273 114.215 15.469-2.926 21.711-15.168 23.645-29.18-3.453 10.316-10.93 20.359-20.582 24.09-7.969 3.094-18.469.063-25.383-6.516-18.848-17.906-22.023-51.168-17.988-75.305 1.46-8.781 5.609-19.765 12.035-27.304z"/><path d="m234.489 442.108c-4.102 13.598-13.805 27.344-26.527 32.043-13.148 4.844-23.164-.66-31.969-9.5-22.52-22.609-26.07-63.18-21.742-92.891 1.848-12.637 7.742-29.55 17.66-39.32-25.027 14.797-25.852 49.292-22.977 76.511 3.27 30.973 15.508 74.348 54.012 72.844 21.859-.855 29.906-18.851 31.543-39.687z"/><path d="m177.621 261.738c34.48 20.383 71.195 36.523 109.449 48.238 24.539 7.52 39.109 20.258 48.133 44.605 7.855 21.207 9.578 44.66 11.609 66.98 3.273 36.059 5.906 71.949 8.192 107.973 5.73-66.563 5.273-133.008-4.094-200.066-2.293-16.426-4.488-22.879-22.742-26.301-21.836-4.105-43.473-11.707-65.344-20.145-52.207-20.145-102.336-44.227-150.035-73.184 17.27 21.681 41.211 37.939 64.832 51.9z"/><path d="m232.106 108.394c25.215-10.945 50.793-21.926 77.23-29.578 30.566-8.848 59.704-5.539 89.985 2.215 61.008 15.613 119.57 43.332 176.402 71.098-12.992-7.039-26.723-13.004-38.074-19.137-31.098-16.801-62.707-33.07-95.902-45.383-31.727-11.774-68.469-28.219-102.919-23.777-35.449 4.582-75.402 26.09-108.059 40.414-29.695 13.02-58.957 27.086-87.098 43.242-2.48 1.426-5.102 2.844-7.785 4.266 7.059-2.941 14.074-5.828 20.566-8.918 25.029-11.919 50.224-23.403 75.654-34.442z"/><path d="m361.036 241.125c8.117-6.992 6.703-16.168.219-24.836 2.156 4.707 3.031 9.867 1.676 14.527-1.867 6.445-6.883 9.684-13.047 11.648-17.527 5.57-38.555-3.773-52.879-13.555-7.773-5.305-14.859-15.746-13.488-24.777-13.216 26.063 54.581 56.77 77.519 36.993z"/><path d="m526.153 186.527c5.328-5.789 5.559-12.109 3.141-18.117.156 1.063.242 2.129.23 3.184-.113 9.324-6.824 14.867-16.996 17-16.813 3.547-36.156-5.23-49.594-14.406-7.129-4.871-13.688-14.07-13.668-22.527-7.148 28.577 57.192 56.249 76.887 34.866z"/><path d="m196.84 185.207c15.578 12.816 41.465 20.766 59.973 10.645 7.93-4.328 9.625-10.758 7.277-17.645.027 1.43-.051 2.855-.367 4.238-1.59 6.902-6.863 10.5-13.496 12.563-17.492 5.426-38.402-3.863-52.668-13.609-8.82-6.031-16.742-18.676-12.406-28.367-5.938 10.315 3.121 25.128 11.687 32.175z"/><path d="m432.837 214.035c-17.832 6.664-39.699-2.93-54.449-13-6.605-4.508-12.703-12.742-13.547-20.66-1.887 27.18 53.215 49.961 73.156 33.789 4.777-3.875 6.77-8.363 6.711-13.039-1.207 7.191-6.364 10.851-11.871 12.91z"/><path d="m284.223 161.468c16.711 11.176 47.27 19.242 60.57-1.336 2.645-4.086 2.336-8.332.441-12.398.258 1.699.363 3.406.164 5.066-.98 8.273-7.176 12.367-14.184 14.449-17.402 5.176-38.113-4.059-52.273-13.73-8.91-6.098-16.906-18.945-12.262-28.668-9.089 10.988 9.321 31.121 17.544 36.617z"/><path d="m375.044 138.214c13.797 6.867 45.141 16.27 54.977-2.551 2.828-5.414 2.188-10.457-.25-15.004.086.52.191 1.047.238 1.574.789 9.422-4.984 14.871-12.297 17.523-17.781 6.5-39.523-3.059-54.215-13.086-8.148-5.57-15.524-16.789-13.184-26.102-7.805 14.627 12.696 31.646 24.731 37.646z"/></g></g></g></svg>