<svg id="Office_Supplies" height="512" viewBox="0 0 708.662 708.662" width="512" xmlns="http://www.w3.org/2000/svg"><g><path d="m88.302 520.876c.01.01.01.02.01.03 10.072 29.349 35.483 38.064 63.547 41.659 43.967 5.618 88.359 6.924 132.631 8.058 46.73 1.195 93.502 1.114 140.232-.263 44.049-1.307 89.777-1.934 133.37-8.858 70.269-11.177 81.374-80.189 82.286-139.96.657-43.381.799-86.488-3.21-129.736-2.976-32.133-3.685-72.395-20.39-101.217-18.395-31.738-58.504-37.802-91.67-42.752-41.031-6.115-82.527-7.967-123.944-9.142-78.509-2.227-157.899-3.877-235.558 9.82-24.834 4.384-51.732 8.423-69.014 28.721-22.88 26.899-24.561 65.541-25.887 99.121-3.117 80.242-8.848 167.183 17.585 244.468-1.527-4.444-2.366-6.925.012.051z" fill="#fff"/><g><path d="m116.111 511.359c5.852 17.108 18.223 19.174 34.249 21.36 42.823 5.852 86.354 7.188 129.503 8.383 55.508 1.539 111.098 1.266 166.586-.891 23.607-.911 47.195-2.379 70.723-4.525 17.119-1.569 40.496-1.326 56.238-8.848 40.777-19.469 36.83-86.437 37.893-124.289 1.559-55.144-1.832-111.108-10.73-165.564-2.744-16.795-5.984-35.706-22.485-44.797-14.497-7.988-30.554-10.863-46.731-13.597-43.167-7.319-87.336-9.283-131.031-10.518-80.877-2.298-168.357-4.11-248.557 13.08-19.6 4.191-31.799 6.844-41.558 30.007-10.175 24.155-9.425 58.019-10.741 79.359-3.361 54.283-2.45 109.508 4.009 163.529 2.337 19.621 6.224 38.602 12.632 57.311z" fill="#68182b"/><path d="m532.49 517.889c-50.406 5.983-101.48 7.147-152.18 7.775-53.768.668-107.596-.294-161.291-3.199-19.619-1.053-39.229-2.521-58.758-4.697-18.962-2.116-23.568-5.538-11.602-20.318 39.522-48.816 80.24-97.431 133.188-131.811 9.101-5.902 11.196-4.616 18.627-1.013 7.866 3.797 15.863 7.087 23.994 9.658 24.559 7.755 50.639 1.215 75.238-10.64 13.061-6.297 11.207-5.457 19.975.111 53.189 33.722 94.019 81.85 133.451 130.464 16.624 20.502 13.636 19.61-20.642 23.67z" fill="#e5e5e5"/><path d="m583.442 229.403c5.589 20.845 6.175 44.544 8.079 65.48 2.814 31.05 3.877 62.272 3.797 93.443-.072 27.293-1.408 54.759-5.721 81.729-1.053 6.55-2.258 13.181-4.363 19.377-6.055 17.716-11.996 14.274-20.582 3.685-39.492-48.756-80.027-97.39-132.235-132.56-9.212-6.216-11.278-8.404-.698-15.338 12.988-8.493 25.045-17.412 35.584-25.056 36.416-26.393 72.617-57.28 100.205-93.624 11.509-15.166 12.482-10.053 15.934 2.864z" fill="#ff7a0d"/><path d="m145.734 199.093c41.264-9.526 84.492-11.602 126.596-13.617 55.66-2.663 111.523-2.46 167.174.314 23.385 1.164 46.74 3.058 69.994 5.882 12.817 1.559 31.182 2.886 46.326 8.292 13.354 4.758 12.969 8.453 6.5 17.241-27.131 36.85-63.617 67.687-99.932 94.565-37.953 28.113-94.838 70.846-144.383 49.779-39.959-16.988-75.918-46.155-108.689-74.005-23.76-20.187-51.418-43.137-69.164-70.137-7.472-11.349-3.827-16.148 5.578-18.314z" fill="#e5e5e5"/><path d="m114.117 336.644c.193-23.416 1.297-46.822 3.331-70.147.739-8.514 1.286-23.902 4.333-37.771 3.553-16.238 5.314-13.039 12.675-2.389 19.944 28.842 50.071 53.109 75.897 74.753 18.678 15.651 39.027 32.527 60.712 46.711 10.073 6.591 7.917 7.856-3.159 15.55-47.541 33.054-85.413 77.214-121.93 122.092-12.117 14.882-17.24 17.14-22.516-7.846-9.677-45.759-9.718-94.394-9.343-140.953z" fill="#ff7a0d"/><path d="m555.824 199.964c-1.689-.597-3.432-1.134-5.183-1.64 4.769 3.999 7.491 8.919 5.933 15.054-1.275 5.012-5.578 9.466-8.707 13.343-9.293 11.531-21.26 21.148-32.406 30.796-24.104 20.865-49.402 40.556-75.036 59.517-24.722 18.294-53.382 35.839-84.432 39.828-26.827 3.442-51.61-10.104-73.843-23.295-18.414-10.934-36.04-23.243-53.301-35.908-17.362-12.756-35.818-26.494-52.855-41.68-.83-.738-1.65-1.468-2.471-2.207-10.893-9.891-21.098-20.419-30.027-31.677 17.768 24.965 43.472 46.447 65.824 65.449 32.771 27.851 68.73 57.018 108.689 74.005 49.545 21.067 106.43-21.666 144.383-49.779 36.314-26.879 72.801-57.715 99.932-94.565 6.469-8.788 6.853-12.483-6.5-17.241z" fill="#c6c6c6"/><path d="m553.133 494.22c-19.772-24.388-39.908-48.645-61.775-71.027 9.516 12.087 18.961 24.216 27.668 36.91 6.277 9.143 13.494 18.588 16.208 29.531 5.812 23.467-40.161 23.872-52.997 24.965-48.26 4.101-97.098 3.382-145.479 3.513-41.598.112-83.166.112-124.684-2.521-9.871-.617-20.621-1.032-29.703-5.376-10.063-4.829-7.045-16.35-4.008-24.671 8.504-23.254 24.752-44.585 39.33-64.296 2.703-3.654 5.518-7.229 8.301-10.822-27.971 26.717-52.886 56.835-77.334 87.023-11.967 14.78-7.36 18.202 11.602 20.318 19.528 2.177 39.139 3.645 58.758 4.697 53.695 2.905 107.523 3.867 161.291 3.199 50.699-.628 101.773-1.792 152.18-7.775 34.277-4.059 37.265-3.167 20.642-23.668z" fill="#c6c6c6"/><path d="m489.039 205.35c-70.35-4.637-222.732-6.217-272.398-.638-48.908 5.487-29.105 20.045-11.439 27.82 28.021 12.341 131.8 53.666 164.074 46.974 32.234-6.682 122.496-46.528 131.102-51.165 32.274-17.403 19.305-20.977-11.339-22.991z" fill="#f4f4f4"/><path d="m479.613 455.152c-10.346-11.217-21.25-21.928-32.172-32.578-6.926-6.763-15.045-16.825-24.682-19.681-12.078-3.573-25.32 1.235-37.125 3.827-23.172 5.092-43.359 3.311-66.138-2.521-17.776-4.556-34.188-3.999-43.015 2.773-22.506 17.24-42.156 39.017-57.099 62.828-9.172 14.608 1.731 22.15 15.651 24.246 37.67 5.659 214.137 6.793 250.551-5.68 19.035-6.508 1.623-24.993-5.971-33.214z" fill="#f4f4f4"/><path d="m585.416 237.928c.891 10.812.801 21.725.629 32.709-.365 22.354.789 44.696 1.396 67.039.627 23.407.588 46.934-.982 70.29-.698 10.377-1.275 54.82-18.576 55.69-13.01.658-28.479-18.577-36.891-26.463-14.193-13.313-28.135-26.889-42.773-39.716-12.836-11.247-26.393-21.726-41.295-30.088-4.252-2.379-8.402-4.13-12.553-5.467 51.256 35.059 91.285 83.056 130.281 131.193 8.586 10.59 14.527 14.031 20.582-3.685 2.105-6.196 3.311-12.827 4.363-19.377 4.313-26.97 5.648-54.436 5.721-81.729.08-31.171-.982-62.393-3.797-93.443-1.65-18.129-2.318-38.326-6.105-56.953z" fill="#ef6200"/><path d="m145.976 485.442c25.432-31.252 51.611-62.078 81.172-89.129-11.621 7.785-22.869 16.127-34.229 24.297-15.215 10.924-43.684 45.04-58.787 17.605-7.34-13.323-8.383-30.767-10.094-45.598-1.681-14.477-2.652-29.045-3.432-43.593-1.844-34.025-1.459-68.011-1.59-102.037-.779 7.674-1.154 14.7-1.569 19.508-2.034 23.325-3.138 46.731-3.331 70.147-.375 46.559-.334 95.194 9.344 140.953 5.276 24.987 10.399 22.729 22.516 7.847z" fill="#ef6200"/><g fill="#ffb85a"><path d="m214.058 330.013c-15.5-14.274-32.031-26.97-46.266-42.561-13.758-15.084-25.967-10.022-26.584 10.681-.598 19.813 1.822 54.151 5.75 76.485 5.497 31.272 8.221 35.939 38.46 17.687 5.437-3.271 18.354-12.017 28.609-19.711 20.775-15.581 15.582-28.256.031-42.581z"/><path d="m565.654 298.973c-.395-19.275-7.633-19.478-21.016-9.496-14.771 11.025-37.336 25.613-52.979 37.66-18.657 14.376-31.09 24.936 5.094 47.856 10.467 6.641 26.908 19.266 37.143 26.25 24.196 16.513 31.738 14.255 32.518-12.279.801-27.234-.375-71.393-.76-89.991z"/></g></g></g></svg>