<svg id="Multimedia" height="512" viewBox="0 0 1200 1200" width="512" xmlns="http://www.w3.org/2000/svg"><g><path d="m123.626 813.961c135.887 112.986 288.988 211.963 404.584 283.34 11.936 9.499 27.02 14.311 44.879 14.311 42.469 0 95.24-27.658 145.646-55.982 85.391-48.621 179.883-107.338 272.064-186.086 6.18-6.529 11.082-14.563 14.818-24.321 21.287-14.181 42.154-50.47 44.295-76.122 61.271-95.595 67.434-222.055 80.654-323.375 7.678-98.604 15.121-225.793-51.521-241.719-116.306-34.611-241.007-63.385-370.598-85.508-88.382-14.967-151.241-24.451-218.448-30.109-51.891 0-73.23 54.594-82.342 77.902-33.461 93.465-49.318 205.475-44.879 316.379-47.326 13.204-268.559 91.26-293.766 179.785-8.716 34.265-4.498 72.123 11.23 103.416 10.675 21.505 28.812 36.247 43.384 48.089z" fill="#fff"/><g><path d="m152.075 795.104c124.073 102.224 258.643 191.176 395.245 275.645 35.264 31.229 138.274-35.142 174.631-54.166 85.27-50.64 169.68-104.981 245.141-169.464 5.967-6.31 9.25-15.471 11.359-24.713 12.018-3.188 21.502-16.109 27.426-25.877 7.096-11.711 13.631-27.164 11.44-41.317 10.532-7.739 16.995-20.468 22.415-32.025 37.346-88.48 48.273-186.149 58.379-280.921 2.309-41.641 19.037-193.813-28.139-206.908-120.367-35.835-243.262-63.561-367.082-84.698-68.417-11.828-137.127-22.356-206.256-29.044-32.83-5.738-48.809 31.566-58.578 56.559-31.602 89.533-44.285 186.648-43.309 281.402-1.377 60.146 21.564 43.592-21.065 53.949-64.348 16.965-255.12 94.094-273.28 157.865-6.363 26.201-3.085 55.803 9.076 79.972 9.039 18.213 27.365 30.918 42.597 43.741z" fill="#68182b"/><path d="m1047.531 329.842c-.549-18.709-.738-38.673-4.111-57.543-6.381-35.728-5.766-34.469-40.125-43.98-16.402-4.542-32.902-8.783-49.371-13.023-154.668-36.855-312.709-70.828-471.118-81.996-53.284 29.993-72.528 217.307-75.829 278.183-1.277 25.612-1.912 51.706 1.336 77.206 1.354 8.41 2.465 19.814 8.193 27.217 49.633 23.202 100.146 45.189 150.166 67.775 120.587 53.541 242.465 104.945 368.209 145.236 25.703 7.673 33.137 11.355 50.617-22.783 44.902-87.708 63.839-304.655 62.033-376.292zm-34.451 77.578c-1.556 41.354-27.235 306.229-90.486 277.936-165.97-49.035-323.753-122.053-483.202-188.074-13.699-13.254-8.352-52.884-8.594-71.463 3.018-55.51 14.859-216.006 55.785-250.217 7.613-4.592 17.373-1.898 25.639-.99 161.17 20.643 319.621 60.103 476.951 99.949 32.979 13.609 24.113 101.765 23.907 132.859z" fill="#ff5671"/><path d="m1004.58 771.065c-3.702 12.911-10.667 25.067-20.327 34.437-2.631 2.469-3.734 3.66-2.789-.478 2.324-16.356 3.822-35.259-1.943-51.251 6.225 2.194 12.48 4.295 18.817 5.877 2.532.604 5.185.99 7.753.45.05 3.572-.518 7.291-1.511 10.965z" fill="#ffa0b9"/><path d="m1070.749 247.594c28.545 22.109 19.514 140.012 17.301 176.422-8.342 89.946-23.781 240.216-71.152 315.591-2.945 3.458-6.16 7.146-10.482 8.743-1.561.157-2.537.674-3.854.477-8.564-2.482-16.955-5.577-25.451-8.298 56.262-66.349 77.966-283.21 81.527-373.53.873-26.957.908-54.129-2.001-80.975-1.593-14.674-3.437-31.49-10.151-45.229 8.091 2.258 16.232 4.357 24.263 6.799z" fill="#ffa0b9"/><path d="m110.022 714.391c-5.45-34.014 4.263-13.002 20.759-1.265 27.781 23.706 56.559 46.237 85.701 68.238 104.941 78.815 214.438 151.771 326.602 219.793 55.848 20.409 222.968-81.577 275.689-113.876 50.137-33.016 103.512-65.721 141.307-113.193 3.539-5.028 7.174-11.244 8.307-17.639.563 1.524 1.012 3.058 1.367 4.443 4.497 24.078 2.006 51.053-7.951 73.67-10.947 15.296-30.096 26.337-44.695 38.569-70.863 52.169-266.614 191.401-347.518 194.838-2.797-.04-4.938-.652-7.396-1.7-30.897-18.461-61.299-37.826-91.652-57.197-95.568-61.748-189.742-125.988-279.055-196.56-17.238-13.722-34.251-27.739-50.752-42.343-18.093-13.194-27.939-33.872-30.713-55.778z" fill="#ffa0b9"/><path d="m956.288 749.177c-.787-.98-1.695-1.664-2.807-2.339-16.564-5.154-33.073-10.411-49.516-15.93-173.678-56.747-342.854-140.113-508.004-210.11-58.475 7.767-272.664 97.106-284.457 155.095-.09 2.051-.211.559.23 2.137.439 1.583.679 2.149.756 2.298.453.858.971 1.678 1.541 2.464 21.543 20.423 44.865 38.947 68 57.539 116.912 91.305 240.432 174.227 367.248 251.086 74.543 13.722 329.622-146.779 384.373-204.39 7.498-7.758 27.529-26.818 22.636-37.85zm-89.254 37.503c-43.242 36.582-91.413 69.646-144.783 89.398-14.809 7.159-30.703 2.027-44.869-4.12-14.014-5.536-27.717-11.864-41.295-18.394-40.768-19.645-80.602-41.245-120.051-63.398-28.774 18.115-60.643 32.789-91.967 45.891-8.604 3.598-15.705 5.392-25.18 4.492-41.889-5.819-81.016-28.086-112.979-55.097-42.647-38.556-29.947-54.679 16.965-75.672 14.953-7.083 30.316-13.38 45.912-18.942-29.82-19.133-59.697-38.34-87.584-60.233-26.485-21.128-31-28.782 3.314-41.978 36.599-17.797 74.426-32.624 113.543-43.89 6.77-1.794 14.238-.122 20.846 1.587 26.947 6.98 52.736 19.938 77.889 31.563 111.826 54.791 227.619 101.189 339.014 156.736 13.21 8.581 74.212 31.842 51.225 52.057z" fill="#ff5671"/><path d="m296.493 642.752c10.273-7.528 21.529-13.807 33.16-19.293 18.506 9.516 36.838 19.352 55.102 29.322-13.564 6.341-26.873 13.447-38.898 22.419-16.573-10.632-33.065-21.281-49.364-32.448z" fill="#fbf199"/><path d="m315.126 578.543c16.354 7.426 32.57 15.161 48.707 23.055-11.465 4.34-22.744 9.088-33.789 14.297-15.021-7.713-30.146-15.225-45.455-22.334-.629-.293-1.264-.576-1.889-.863 10.692-4.989 21.498-9.719 32.426-14.155z" fill="#fbf199"/><path d="m356.573 611.963c16.451-8.459 19.672-4.717 34.895 3.288 12.589 6.273 25.113 12.665 37.648 19.046-12.342 4.561-24.551 9.484-36.541 14.877-18.197-10.006-36.496-19.806-54.943-29.35 6.301-2.769 12.641-5.379 18.941-7.861z" fill="#fbf199"/><path d="m528.193 614.738c19.877 9.404 39.846 18.605 59.859 27.708-10.317 2.833-20.545 6.075-30.677 9.61-21.901-10.501-43.886-20.836-65.872-31.166 11.72-1.808 25.715-11.827 36.69-6.152z" fill="#fbf199"/><path d="m659.415 674.584c-10.709 3.207-21.264 7.164-31.68 11.41-20.413-9.943-40.863-19.82-61.348-29.615 10.289-3.594 20.872-6.53 31.287-9.579 20.56 9.313 41.148 18.552 61.741 27.784z" fill="#fbf199"/><path d="m727.913 705.521c-11.221 3.98-22.076 8.76-32.906 13.658-19.461-9.777-38.975-19.447-58.574-28.94 10.758-4.214 21.669-8.267 32.854-11.229 19.568 8.778 39.122 17.597 58.626 26.511z" fill="#fbf199"/><path d="m795.779 825.303c-23.436-13.865-47.109-27.326-70.859-40.638 13.208-7.642 26.583-15.017 40.16-21.974 21.713 11.378 43.305 23.004 64.501 35.309 10.078 2.1-29.531 23.129-33.802 27.303z" fill="#fbf199"/><path d="m747.99 763.941c-10.101 5.438-20.104 11.082-30.041 16.829-20.846-11.657-41.764-23.175-62.721-34.63 13.069-6.772 26.291-13.258 39.676-19.365 17.68 8.855 35.305 17.805 52.861 26.895 10.78 5.266 11.464 4.884.225 10.271z" fill="#fbf199"/><path d="m671.607 809.107c-21.128-12.492-42.319-24.879-63.497-37.282 6.751-3.872 13.536-7.654 20.296-11.383 6.441-3.553 12.916-7.052 19.43-10.492 19.697 10.753 39.359 21.565 58.963 32.489 1.404.782 2.799 1.578 4.201 2.36-13.313 7.817-26.444 15.922-39.393 24.308z" fill="#fbf199"/><path d="m561.579 802.155c12.525-9.647 25.928-18.277 39.636-26.341 21.3 12.476 42.653 24.87 63.876 37.477-11.869 7.812-23.594 15.897-34.733 24.734-23.202-11.414-46.062-23.543-68.779-35.87z" fill="#fbf199"/><path d="m439.122 732.568c-5.707-3.387-11.396-6.809-17.094-10.223 13.209-9.858 27.919-17.922 42.926-25.131 20.953 11.837 41.854 23.777 62.707 35.794-58.843 32.387-27.447 33.335-88.539-.44z" fill="#fbf199"/><path d="m351.988 679.148c12.264-8.972 26.008-16.163 40.084-22.424 22.055 12.035 44.064 24.151 65.922 36.541-14.76 7.228-29.179 15.346-42.297 25.293-21.395-12.874-42.654-25.985-63.709-39.41z" fill="#fbf199"/><path d="m465.427 689.52c-21.695-12.246-43.494-24.321-65.355-36.271 12.48-5.225 24.84-10.073 37.508-14.67 21.965 11.248 43.908 22.545 65.733 34.059-12.79 5.26-25.45 10.842-37.886 16.882z" fill="#fbf199"/><path d="m472.632 693.59c12.791-5.918 25.563-11.5 38.601-16.779 20.786 10.914 41.528 21.915 62.229 32.988-13.069 6.098-25.99 12.506-38.695 19.311-20.67-11.914-41.371-23.773-62.135-35.52z" fill="#fbf199"/><path d="m619.24 689.524c-12.763 5.433-25.378 10.853-37.979 16.6-20.49-10.97-41.012-21.875-61.582-32.696 12.377-4.893 24.861-9.502 37.436-13.842 20.746 9.902 41.451 19.883 62.125 29.938z" fill="#fbf199"/><path d="m558.406 724.684c24.865-13.172 21.195-12.205 45.328 1.314 50.441 27.415 40.588 14.387-2.275 41.924-19.861-11.725-39.801-23.314-59.787-34.814 5.579-2.87 11.175-5.671 16.734-8.424z" fill="#fbf199"/><path d="m672.525 729.73c-8.252 4.029-16.451 8.189-24.613 12.422-19.604-10.754-39.275-21.377-58.992-31.909 12.822-5.833 25.774-11.369 38.853-16.577 19.819 9.575 39.536 19.361 59.229 29.192-4.839 2.263-9.679 4.525-14.477 6.872z" fill="#fbf199"/><path d="m533.831 648.459c4.785 2.267 9.553 4.574 14.334 6.85-12.256 4.452-24.385 9.039-36.488 13.888-21.654-11.364-43.381-22.599-65.147-33.757 11.581-4.057 23.233-7.893 34.958-11.509 17.449 8.172 34.935 16.262 52.343 24.528z" fill="#fbf199"/><path d="m460.169 623.477c-7.416 2.451-14.818 4.982-22.193 7.609-18.664-9.579-37.377-19.064-56.194-28.347 10.641-3.675 21.362-7.11 32.151-10.321 5.672 2.613 11.352 5.208 17.014 7.83 13.789 6.377 27.506 12.902 41.268 19.334-4.022 1.286-8.042 2.568-12.046 3.895z" fill="#fbf199"/><path d="m280.407 763.461c-5.582-7.035-14.302-19.285-3.77-25.883 4.746-3.44 9.85-6.449 15.049-9.265 22.904 13.487 45.625 27.321 68.139 41.487-14.307 8.087-29.619 14.64-42.23 25.271-13.536-9.044-26.785-18.987-37.188-31.61z" fill="#fac135"/><path d="m417.04 826.584c-25.383 10.763-70.936-14.152-93.454-27.582 12.776-10.299 28.392-16.51 42.481-24.789 23.066 13.219 46.188 29.723 68.873 44.592-5.927 2.684-11.855 5.365-17.9 7.779z" fill="#fac135"/><path d="m441.893 815.656c-45.937-32.61-94.642-62.041-143.024-91.098 20.072-10.245 41.061-18.74 62.428-25.896 47.074 29.467 94.881 57.732 143.235 85.031-20.013 12.058-41.353 22.281-62.639 31.963z" fill="#fac135"/><path d="m491.931 763.313c13.217-10.034 27.698-18.579 42.485-26.414 20.171 11.55 40.22 23.301 60.255 35.08-13.689 8.127-27.096 16.814-39.666 26.597-21.146-11.527-42.167-23.301-63.074-35.263z" fill="#fbf199"/><path d="m712.214 867.083c-2.938.778-5.924 1.786-8.977 1.062-15.684-3.473-29.953-10.102-44.452-16.6-7.21-3.287-14.36-6.705-21.497-10.16 11.005-8.611 22.51-16.626 34.279-24.254 22.504 13.316 44.994 26.66 67.469 40.027-7.867 4.033-17.895 7.384-26.822 9.925z" fill="#fbf199"/><path d="m746.771 853.727c-22.869-13.601-45.742-27.2-68.643-40.76 13.186-8.343 26.418-16.397 39.869-24.236 23.553 13.173 47.047 26.458 70.311 40.144-8.207 8.76-28.418 17.462-41.537 24.852z" fill="#fbf199"/><path d="m843.185 762.898c6.008 3.741 13.807 8.5 17.535 13.766-6.818 6.854-14.455 12.683-22.006 18.705-21.641-12.781-43.764-24.744-66.007-36.447 39.487-20.484 33.077-18.057 70.478 3.976z" fill="#fbf199"/><path d="m799.366 738.977c-11.679 4.795-22.977 10.264-34.215 15.971-.773-.405-1.547-.818-2.325-1.224-19.855-10.376-39.833-20.521-59.851-30.573 11.154-5.032 22.496-9.939 34.287-13.348 20.788 9.597 41.494 19.113 62.104 29.174z" fill="#fbf199"/><path d="m513.009 607.524c-10.361 2.793-20.67 5.797-30.928 8.968-19.339-9.071-38.695-18.102-58.105-27.016 10.586-3.099 21.271-5.892 31.957-8.604 19.159 8.591 38.119 17.631 57.076 26.652z" fill="#fbf199"/><path d="m399.357 558.396c15.898 4.669 31.145 11.333 46.287 17.994-10.492 2.698-20.989 5.536-31.455 8.567-17.148-7.889-34.31-15.74-51.512-23.512 6.125-1.939 12.269-3.828 18.443-5.604 6.045-1.16 12.039.954 18.237 2.555z" fill="#fbf199"/><path d="m352.913 564.584c17.107 7.704 34.176 15.493 51.221 23.328-10.547 3.197-21.021 6.656-31.388 10.375-16.173-7.942-32.412-15.754-48.778-23.283 9.553-3.733 19.217-7.168 28.945-10.42z" fill="#fbf199"/><path d="m272.038 597.742c.836-.408 1.682-.791 2.522-1.195 16.069 7.276 31.903 15.07 47.618 23.094-11.059 5.383-21.705 11.643-31.572 18.982-13.33-9.664-26.412-19.055-37.512-30.91 6.505-4.213 12.247-6.643 18.944-9.971z" fill="#fbf199"/><path d="m989.195 287.584c-137.393-39.126-279.98-68.826-421.35-93.688-14.895-2.334-29.822-4.673-44.798-6.535-28.279-3.517-38.269.198-49.29 32.957-7.912 24.006-12.949 48.989-17.238 73.859-9.054 52.439-15.322 106.451-14.689 159.74 1.643 43.89-.238 31.688 26.665 43.071 105.126 44.474 210.16 90.198 317.183 130.206 46.619 17.396 93.662 33.812 141.514 47.492 2.807.661 5.68 2.275 8.549 1.08 27.934-17.721 42.621-102.63 49.695-135.712 9.942-55.81 32.552-206.646 3.759-252.47zm-267.569 197.132c-88.314 41.803-161.246-91.557-101.98-157.487 19.226-24.896 53.293-36.424 83.074-24.771 76.918 26.728 89.758 140.892 18.906 182.258z" fill="#00ebed"/><path d="m755.919 382.829c-10.951-64.995-92.803-105.03-133.563-40.058-19.482 30.101-15.524 69.889 3.004 99.539 53.475 79.225 143.147 25.716 130.559-59.481zm-34.166 36.101c-12.162 10.289-47.316 32.664-62.793 27.689-4.623-2.919-4.199-12.547-4.213-16.829-.041-11.504 1.344-23.044 3.039-34.404 3.275-13.546 8.271-73.145 31.68-52.556 16.047 15.768 27.502 36.536 35.705 57.332 2.914 6.539 2.963 14.287-3.418 18.768z" fill="#ff8e5b"/><path d="m663.583 403.445c3.257-19.061 5.402-43.517 16.367-58.402.494-.432.148-.117.27-.09-.05-.014 1.35.539 2.275 1.146 7.064 4.623 12.34 12.965 16.932 19.833 8.438 13.47 17.787 27.542 20.855 43.336.148 1.358.297.652-.58 1.808-2.74 3.621-6.846 6.369-10.551 8.887-14.168 8.689-29.656 18.754-46.354 20.733-2.626-11.557-.427-25.217.786-37.251z" fill="#fbf199"/><path d="m756.391 410.501c-7.591 18.763-19.847 35.11-38.642 45.446-27.883 15.335-60.268 9.003-78.865-16.703-15.479-21.403-19.153-50.654-14.156-76.082 4.348-22.145 16.711-39.846 34.867-50.878-13.843 4.259-26.871 13.96-37.238 30.487-19.482 30.101-15.524 69.889 3.004 99.539 47.388 70.213 123.15 36.145 131.03-31.809z" fill="#ff564d"/><path d="m441.893 815.656c13.2-6.004 26.386-12.282 39.298-19.01-4.156.822-8.307 1.654-12.489 2.388-10.794 1.884-21.597 2.253-32.335-.14-11.041-2.455-21.764-9.953-31.324-15.768-16.461-10.011-32.75-20.188-48.586-31.166-7.73-5.361-15.29-11.006-23.188-16.119-5.316-3.439-15.822-10.51-19.496-18.492-5.014 2.303-9.988 4.699-14.904 7.209 48.382 29.057 97.087 58.488 143.024 91.098z" fill="#ee9e2b"/><path d="m317.595 795.072c6.252-5.271 13.169-9.535 20.297-13.483-15.093 1.79-28.688-3.984-40.83-14.671-7.979-7.02-17.801-19.086-18.377-30.693-.674.463-1.385.877-2.047 1.354-10.532 6.598-1.813 18.848 3.77 25.883 10.402 12.622 23.651 22.565 37.187 31.61z" fill="#ee9e2b"/><path d="m417.04 826.584c1.533-.611 3.041-1.281 4.561-1.92-11.521.352-23.026-.067-34.719-2.671-9.949-2.213-19.482-6.085-28.109-11.486-11.261-7.052-12.678-18.69-7.479-28.302-9.638 4.996-19.289 10.012-27.708 16.797 22.519 13.43 68.071 38.345 93.454 27.582z" fill="#ee9e2b"/><path d="m1047.531 329.842c-.549-18.709-.738-38.673-4.111-57.543-6.094-34.117-5.887-34.526-35.768-42.775 27.834 29.854 30.609 78.078 30.078 117.281-.84 62.109-6.615 125.404-16.963 186.595-5.896 34.872-14.504 69.269-26.453 102.562-10.246 28.527-21.561 74.84-58.615 75.528-15.033.278-31.139-5.419-45.422-9.53-18.075-5.207-35.803-11.594-53.402-18.209-34.412-12.93-68.385-27.084-102.507-40.76-41.718-16.726-83.398-33.545-124.823-50.973-37.957-15.97-75.15-33.775-113.221-49.439-29.588-12.174-63.209-24.623-81.527-52.587-3.504-5.347-6.045-11.374-8.031-17.692.368 5.482.854 10.951 1.547 16.389 1.354 8.41 2.465 19.814 8.193 27.217 49.633 23.202 100.146 45.189 150.166 67.775 120.587 53.541 242.465 104.945 368.209 145.236 25.703 7.673 33.137 11.355 50.617-22.783 44.902-87.708 63.839-304.655 62.033-376.292z" fill="#df3f58"/><path d="m931.566 789.162c-38.303 28.388-79.697 52.943-120.6 77.076-61.191 36.1-122.049 74.043-190.777 93.962-16.117 4.669-32.861 8.847-49.561 10.749-17.845 2.032-35.875-4.354-51.777-11.734-29.053-13.486-55.727-33.414-82.67-50.594-62.441-39.82-123.784-81.47-182.16-127.086-17.332-13.541-34.386-27.361-51.885-40.691-19.234-14.657-38.951-30.357-52.201-50.901-13.743-21.321-9.025-42.688 3.59-62.247-23.09 16.852-39.037 33.527-42.02 48.197-.09 2.051-.211.559.23 2.137.439 1.583.679 2.149.756 2.298.453.858.971 1.678 1.541 2.464 21.543 20.423 44.865 38.947 68 57.539 116.912 91.305 240.432 174.227 367.248 251.086 73.649 13.554 323.493-142.935 382.286-202.255z" fill="#df3f58"/><path d="m482.805 133.299c-51.603 29.045-71.278 205.641-75.47 272.049.859-5.896 1.713-11.762 2.5-17.58 6.234-46.084 13.885-92.146 25.209-137.272 5.027-20.054 10.879-40.106 19.238-59.05 8.658-19.608 19.262-37.472 41.561-42.226 25.676-5.474 55.65.274 81.441 3.288 82.045 9.584 163.771 22.445 245.051 37.098 46.655 8.41 93.338 17.45 139.714 27.794-2.708-.697-5.419-1.407-8.126-2.104-154.668-36.857-312.709-70.829-471.118-81.997z" fill="#ff9780"/><path d="m259.886 573.588c36.949-13.541 74.633-27.11 113.063-35.871 28.041-6.395 54.957 6.818 80.417 17.481 22.163 9.282 44.304 18.61 66.479 27.865 70.109 29.26 140.43 58.042 211.23 85.579 53.414 20.778 107.307 42.154 162.363 58.723-169.986-56.64-335.668-137.987-497.477-206.567-33.366 4.435-117.43 35.431-185.668 72.003 16.366-6.823 32.958-13.115 49.593-19.213z" fill="#ff9780"/><path d="m767.886 360.9c-14.068-48.445-63.057-89.646-115.092-74.354-47.226 13.874-72.541 69.493-60.457 114.987 3.949 14.877 11.014 28.469 20.314 40.094-19.406-35.853-21.381-82.836 6.994-114.398 19.226-24.896 53.293-36.424 83.074-24.771 53.518 18.597 75.973 79.514 60.84 128.799 9.364-21.498 11.218-46.638 4.327-70.357z" fill="#00afb3"/><path d="m927.191 674.688c2.807.661 5.68 2.275 8.549 1.08 27.934-17.721 42.621-102.63 49.695-135.712 9.943-55.812 32.553-206.647 3.76-252.472-18.322-5.217-36.752-10.244-55.244-15.137.75.548 1.502 1.097 2.248 1.637 12.422 8.994 23.646 18.982 31.566 32.268 18.65 31.297 12.922 71.188 10.785 105.665-2.164 34.917-4.92 69.934-14.963 103.614-4.305 14.445-10.366 28.639-17.202 42.063-8.505 16.703-20.454 27.143-37.714 34.113-34.936 14.104-71.98 8.563-107.563.314-34.845-8.082-68.53-20.512-102.655-31.067-61.816-19.114-128.296-37.099-183.303-72.313-20.504-13.124-36.361-31.198-44.991-54.067-10.214-27.051-10.335-58.442-10.389-86.986-.054-27.556.09-54.984 2.149-82.162-1.988 9.525-3.756 19.096-5.4 28.652-9.054 52.439-15.322 106.451-14.689 159.74 1.643 43.89-.238 31.688 26.665 43.071 105.126 44.474 210.16 90.198 317.183 130.206 46.618 17.397 93.661 33.812 141.513 47.493z" fill="#00afb3"/><path d="m567.845 193.896c-14.895-2.334-29.822-4.673-44.798-6.535-28.279-3.517-38.269.198-49.29 32.957-1.971 5.98-3.766 12.021-5.41 18.11 20.952-23.931 51.426-36.312 86.577-32.11 24.546 2.932 49.007 6.696 73.45 10.348 75.416 11.271 150.729 23.318 225.955 35.821-94.74-22.657-190.875-41.775-286.484-58.591z" fill="#88f9f9"/><g fill="#f3af79"><path d="m627.736 685.994c6.98-2.843 14.027-5.537 21.138-7.982-9.593-.721-18.947-1.957-28.589-4.467-12.355-3.215-31.707-9.363-37.383-22.428-5.541 1.646-11.068 3.359-16.514 5.262 20.484 9.795 40.935 19.672 61.348 29.615z"/><path d="m709.152 419.963c3.705-2.518 7.811-5.266 10.551-8.887.877-1.155.729-.449.58-1.808-1.035-5.32-2.82-10.438-5.006-15.412-5.91 9.345-14.985 16.46-27.191 20.558-13.775 4.623-20.633.287-24.883-7.39-1.219 11.118-2.775 23.242-.405 33.672 16.697-1.979 32.186-12.044 46.354-20.733z"/><path d="m762.826 753.724c.778.405 1.552.818 2.325 1.224 7.389-3.752 14.85-7.313 22.383-10.736-23.709-1.47-61.465-4.727-64.617-29.488-6.742 2.596-13.379 5.469-19.941 8.428 20.017 10.05 39.995 20.196 59.85 30.572z"/><path d="m506.677 745.439c-12.557 1.043-24.547-.661-36.77-5.869-10.529-4.484-29.08-15.758-29.939-29.043-6.184 3.674-12.225 7.551-17.939 11.818 5.697 3.414 11.387 6.836 17.094 10.223 51.921 28.706 37.066 32.313 67.554 12.871z"/><path d="m465.427 689.52c8.307-4.034 16.739-7.803 25.217-11.473-12.719-.166-25.019-1.309-37.391-5.658-12.318-4.321-30.154-12.996-35.357-26.363-5.945 2.335-11.869 4.732-17.824 7.223 21.861 11.949 43.66 24.024 65.355 36.271z"/><path d="m351.988 679.148c21.056 13.425 42.314 26.535 63.709 39.41 8.145-6.174 16.824-11.59 25.742-16.582-10.506.172-20.639-.143-31.396-3.039-15.605-4.205-37.961-14.832-36.842-32.975-7.38 3.968-14.526 8.294-21.213 13.186z"/><path d="m511.677 669.196c6.396-2.563 12.805-5.046 19.231-7.479-10.093.172-19.86-.872-30.19-3.611-11.127-2.949-38.299-12.246-39.752-27.572-4.821 1.605-9.639 3.225-14.437 4.906 21.767 11.158 43.494 22.392 65.148 33.756z"/><path d="m737.529 837.811c-17.211-5.082-38.609-18.705-37.143-38.592-7.453 4.506-14.869 9.075-22.258 13.748 22.9 13.56 45.773 27.159 68.643 40.76 6.08-3.428 13.682-7.133 20.908-11.001-10.133-.819-20.188-1.97-30.15-4.915z"/><path d="m655.228 746.141c20.957 11.455 41.875 22.973 62.721 34.63 7.6-4.398 15.258-8.698 22.949-12.925-11.127.116-21.857.332-33.064-2.578-13.901-3.602-30.078-16.986-26.211-32.214-8.86 4.236-17.675 8.567-26.395 13.087z"/><path d="m601.458 767.922c9.134-5.869 16.752-9.881 22.621-12.85-25.721 3.98-58.951-3.399-63.398-31.598-.756.404-1.462.777-2.275 1.209-5.559 2.753-11.154 5.555-16.734 8.424 19.985 11.5 39.925 23.09 59.786 34.815z"/><path d="m472.632 693.59c20.764 11.747 41.465 23.606 62.135 35.52 7.191-3.85 14.469-7.547 21.785-11.162-14.126-.009-27.195-2.338-40.516-8.046-10.228-4.38-25.95-12.552-25.064-24.551-6.129 2.675-12.232 5.415-18.34 8.239z"/><path d="m588.919 710.243c19.717 10.532 39.388 21.155 58.992 31.909 8.162-4.232 16.361-8.393 24.613-12.422.797-.392 1.605-.756 2.402-1.139-9.135 1.201-18.156 2.326-27.543 1.512-16.648-1.448-37.857-12.525-33.824-30.572-8.261 3.463-16.486 7.002-24.64 10.712z"/><path d="m581.261 706.124c9.745-4.443 19.518-8.681 29.34-12.89-12.871.437-25.41.868-38.277-1.88-10.793-2.308-30.762-12.232-32.605-25.554-6.705 2.465-13.393 5.001-20.039 7.627 20.569 10.822 41.091 21.727 61.581 32.697z"/><path d="m659.217 792.644c-14.099-4.839-27.659-17.949-28.944-33.208-.621.342-1.246.665-1.867 1.007-6.76 3.729-13.545 7.511-20.296 11.383 21.178 12.403 42.369 24.79 63.497 37.282 6.553-4.244 13.155-8.414 19.803-12.511-10.889.454-21.43-.261-32.193-3.953z"/><path d="m814.536 813.156c-29.133-1.598-66.709-9.967-66.794-41.264-7.659 4.164-15.277 8.406-22.823 12.772 23.75 13.312 47.424 26.772 70.859 40.638 1.867-1.825 10.489-6.87 18.758-12.146z"/><path d="m853.111 783.653c-9.633-1.336-19.168-3-28.645-6.161-12.34-4.106-34.898-12.512-33.414-27.875-4.844 2.271-10.735 5.356-18.345 9.305 22.243 11.703 44.366 23.666 66.007 36.447 4.854-3.868 9.715-7.686 14.397-11.716z"/><path d="m652.034 822.105c-11.279-1.358-22.027-2.537-32.938-6.646-12.287-4.629-33.506-14.676-34.333-29.498-7.952 5.108-15.735 10.455-23.185 16.194 22.717 12.327 45.576 24.456 68.778 35.87 7.026-5.572 14.3-10.824 21.678-15.92z"/><path d="m580.154 780.964c-10.919.72-21.271.679-32.322-2.555-13.041-3.813-31.004-15.552-33.082-30.401-7.875 4.748-15.547 9.785-22.818 15.305 20.907 11.963 41.928 23.736 63.074 35.263 8.081-6.288 16.526-12.09 25.148-17.612z"/><path d="m703.238 868.145c3.053.725 6.039-.283 8.977-1.062 4.767-1.358 9.83-2.959 14.729-4.763-7.602-.563-15.201-1.471-22.847-3.162-13.434-2.968-45.981-13.46-48.04-31.562-6.373 4.448-12.66 9.009-18.768 13.788 7.137 3.455 14.287 6.873 21.497 10.16 14.498 6.499 28.768 13.128 44.452 16.601z"/><path d="m345.857 675.2c7.74-5.774 16.043-10.726 24.574-15.246-9.404.711-18.508.976-28.207-.89-12.773-2.465-31.033-10.713-32.525-24.979-4.529 2.711-8.968 5.559-13.205 8.666 16.298 11.168 32.79 21.817 49.363 32.449z"/><path d="m557.375 652.057c5.208-1.816 10.438-3.548 15.696-5.194-13.461-.944-24.898-4.421-37.984-10.011-9.324-3.984-25.344-9.715-29.858-20.148-4.708 1.714-9.372 3.518-13.726 4.188 21.987 10.329 43.971 20.664 65.872 31.165z"/><path d="m503.691 609.962c-.018.063-.022.122-.031.181.104-.027.211-.059.314-.086 0-.018 0-.036 0-.055.01-.166-.242-.193-.283-.04z"/><path d="m695.007 719.18c6.197-2.802 12.408-5.545 18.686-8.145-7.227.018-14.404-.504-21.695-1.961-12.996-2.6-33.521-10.938-34.053-26.66-7.254 2.375-14.424 5.046-21.512 7.825 19.599 9.493 39.113 19.163 58.574 28.941z"/><path d="m437.976 631.086c5.388-1.92 10.807-3.737 16.217-5.563-9.602-.433-18.813-2.488-28.112-6.531-10.034-4.357-23.346-11.229-29.156-21.295-5.063 1.633-10.114 3.307-15.143 5.042 18.817 9.282 37.53 18.768 56.194 28.347z"/><path d="m392.575 649.174c6.439-2.896 12.951-5.635 19.504-8.279-10.721.09-20.799-.805-31.463-4.628-9.728-3.489-26.359-10.591-30.855-21.475-4.043 1.65-8.096 3.257-12.129 5.032 18.447 9.544 36.746 19.344 54.943 29.35z"/><path d="m482.081 616.492c6.764-2.092 13.555-4.074 20.359-6.008-10.195-.891-20.383-2.114-30.348-4.412-10.461-2.411-28.549-9.08-33.182-20.765-4.992 1.345-9.975 2.716-14.936 4.169 19.412 8.915 38.768 17.945 58.107 27.016z"/><path d="m372.746 598.287c4.767-1.709 9.562-3.351 14.374-4.951-6.157-.275-12.232-1.121-18.417-2.901-8.985-2.586-26.472-9.931-29.196-21.214-5.203 1.857-10.389 3.773-15.539 5.783 16.366 7.529 32.605 15.341 48.778 23.283z"/><path d="m290.607 638.623c6.4-4.762 13.155-9.025 20.113-12.934-7.816 1.633-15.215 2.748-23.873.912-11.531-2.441-24.043-11.197-26.336-23.156-2.428 1.268-4.861 2.613-7.416 4.268 11.1 11.855 24.182 21.246 37.512 30.91z"/><path d="m414.189 584.957c6.967-2.02 13.951-3.926 20.936-5.788-11.383-.931-22.393-2.613-33.514-5.792-10.412-2.974-22.033-6.086-26.84-15.606-4.039 1.21-8.078 2.406-12.094 3.675 17.202 7.771 34.363 15.622 51.512 23.511z"/><path d="m284.589 593.561c15.31 7.109 30.434 14.621 45.455 22.334 6.629-3.127 13.366-6.036 20.152-8.842-7.96.773-15.709 1.42-23.902.026-11.072-1.889-26.273-8.899-30.074-20.489-4.524 1.996-9.039 4.016-13.52 6.107.625.287 1.26.571 1.889.864z"/></g><path d="m933.873 846.719c-22.226 18.561-46.039 35.282-69.942 51.59-43.791 29.871-88.975 57.799-134.879 84.293-41.299 23.84-84.203 47.434-129.397 62.787-26.472 8.994-46.714-1.583-70.136-13.96-23.391-12.358-45.967-26.175-68.273-40.377-61.029-38.856-118.123-82.979-177.811-123.708-60.976-41.609-125.107-82.382-170.967-140.641 4.461 17.172 13.617 32.786 28.266 43.467 16.501 14.604 33.514 28.621 50.752 42.343 89.313 70.571 183.486 134.812 279.055 196.56 30.354 19.371 60.755 38.736 91.652 57.197 2.459 1.048 4.6 1.66 7.396 1.7 80.903-3.437 276.654-142.669 347.518-194.838 14.6-12.232 33.748-23.273 44.695-38.569 3.125-7.101 5.428-14.656 7.102-22.392-9.252 13.644-23.756 25.126-35.031 34.548z" fill="#ed7490"/><path d="m1070.749 247.594c-.643-.197-1.295-.363-1.943-.557 15.152 34.49 16.038 73.383 15.273 110.76-.886 43.215-4.061 86.407-8.77 129.365-5.369 48.953-13.119 97.785-25.244 145.547-5.172 20.369-11.441 40.49-19.257 60.004-7.173 17.899-16.825 41.146-31.976 54.926 1.246.387 2.473.822 3.729 1.188 1.316.197 2.293-.319 3.854-.477 4.322-1.598 7.537-5.285 10.482-8.743 47.371-75.375 62.811-225.645 71.152-315.591 2.214-36.411 11.245-154.313-17.3-176.422z" fill="#ed7490"/><path d="m818.773 887.281c-52.722 32.299-219.842 134.285-275.689 113.876-112.164-68.022-221.66-140.978-326.602-219.793-29.143-22.001-57.92-44.532-85.701-68.238-.413-.297-.822-.599-1.227-.908 24.043 29.277 54.084 53.874 83.789 77.071 28.113 21.955 57.615 42.216 86.871 62.602 66.205 46.135 132.928 91.639 200.468 135.793 18.245 11.932 38.687 24.865 60.728 27.91 18.609 2.572 37.014-5.783 53.807-12.592 29.012-11.762 58.285-22.551 86.393-36.43 29.705-14.67 57.916-32.007 86.439-48.8 42.189-24.843 104.707-63.417 141.066-110.62-33.311 30.78-72.735 55.367-110.342 80.129z" fill="#ffe1dc"/><path d="m1006.888 684.648c4.187-8.221 7.996-16.604 11.477-24.969 20.886-50.208 31.396-103.74 38.556-157.434 6.886-51.646 11.796-103.973 12.21-156.102.262-33.006-.539-70.334-12.3-102.517-3.45-.94-6.899-1.871-10.345-2.833 6.715 13.738 8.559 30.555 10.151 45.229 2.909 26.846 2.874 54.018 2.001 80.975-2.847 72.215-17.315 225.259-51.75 317.651z" fill="#ffe1dc"/></g></g></svg>