<svg id="Travel" height="512" viewBox="-70.866 -70.866 850.394 850.394" width="512" xmlns="http://www.w3.org/2000/svg"><g><path d="m482.494 284.688c20.121-19.18 24.844-57.242 10.242-81.129-2.926-5.07-7.141-10.68-13.152-15.797 1.055-10.645 1.496-23.695.863-33.926 7.59-10 12.297-22.492 13.266-36.289 1.977-28.133-11.496-52.016-35.465-63.652-6.992-12.402-17.922-23.16-32.09-31.547-3.039-25.766-16.426-48.039-36.926-60.797-25.961-16.926-68.137-13.356-91.879 4.449-18.77 13.711-30.121 35.195-31.305 58.133-3.961 2.617-7.699 5.48-11.199 8.566-7.871 5.457-11.406 15.508-18.781 20.121-24.848 10.707-38.867 34.207-37.5 62.887.93 19.422 9.082 36.348 22.094 47.641-.047 9.254.57 20.125 1.672 28.969-22.883 22.801-21.305 70.098 2.055 92.387-40.063 133.094-43.16 235.734-53.168 358.309-9.91 75.371 93.832 116.934 177.215 115.008 77.762-.816 209.828-25.391 187.066-134.387-10.801-111.884-19.325-217.841-53.008-338.946z" fill="#fff"/><g><path d="m496.287 617.641c-1.574-18.246-3.207-36.492-5.008-54.727-8.977-91.051-21.277-182.645-46.461-270.797-2.602-9.102-5.461-18.129-8.375-27.133 2.227-.234 4.461-.445 6.648-.836 12.367-2.207 18.973-12.57 19.809-24.5.469-6.633-.625-12.336-3.301-16.957-4.992-8.641-13.969-11.668-23.383-12.879 4.09-11.852 5.539-24.859 6.07-37.105.484-11.152.211-23.258-2.699-34.395 9.867-3.5 15.207-12.836 15.949-23.449.945-13.422-4.488-23.012-16.484-27.617-.852-.449-1.781-.84-2.895-1.07-.957-.277-1.852-.387-2.723-.43-1.555-.27-3.117-.531-4.691-.734-1.664-20.074-23.262-32.676-42.168-38.32 1.41-4.535 2.043-9.418 1.969-13.98-.234-14.949-6.465-30.539-19.551-38.68-7.449-4.641-16.418-5.801-25.02-5.02-8.449.766-17.082 2.805-24.051 7.891-11.328 8.273-17.098 21.914-15.438 35.867.539 4.508 1.746 9.254 3.621 13.652-10.363 3.145-19.961 7.938-27.934 14.969-6.371 5.625-12.465 14.18-13.734 23.031-5.359.547-10.578 1.535-15.238 3.547-10.988 4.734-14.961 14.332-14.41 25.906.527 10.996 5.809 21.785 17.148 24.965 2.375.664 4.875 1.094 7.41 1.414-2.453 10.602-2.691 21.945-2.23 32.453.547 12.52 2.059 25.813 6.355 37.863-2.391.566-4.719 1.238-6.906 2.184-10.992 4.73-14.965 14.336-14.414 25.902.527 10.996 5.809 21.789 17.148 24.965 3.168.891 6.547 1.344 9.98 1.66-31.641 87.242-45.254 180.031-53.488 272.117-3.238 36.254-5.344 72.602-8.445 108.871-2.625 30.742 23.953 47.57 49.422 57.465 55.012 21.371 117.027 19.789 173.32 4.465 18.953-5.156 43.828-13.594 57.344-30.074 7.164-8.715 10.723-19.934 9.676-35.293-.572-8.566-2.135-17.273-2.822-25.191z" fill="#68182b"/><path d="m447.002 393.883c2.035 10.797.641 11.277-10.301 8.652-56.508-13.5-109.207-56.781-144.352-102.43-5.102-6.617-6.934-11.422-4.617-18.211.902-2.664 1.82-5.313 2.762-7.965 2.969-8.379 4.285-8.027 11.773-7.871 33.672.695 67.387.613 101.051.016 11.68-.207 12.176 2.285 14.543 9.754 12.227 38.649 21.613 78.168 29.141 118.055z" fill="#00ebed"/><path d="m327.392 19.289c2.867-4.91 11.16-9.207 19.5-9.359 7.52-.133 14.871 1.41 18.707 12.352 1.688 4.813 1.781 10.605 1.332 14.852-.469 4.344-3.809 5.262-7.871 4.938-7.52-.594-15.285-.766-23.027-.328-4.621.258-7.098.098-8.766-4.109-2.113-5.319-2.882-13.178.125-18.346z" fill="#00ff9d"/><path d="m293.131 78.148c8.133-8.16 21.191-12.148 33.203-13.922 11.305-1.668 23.496-1.648 34.895-.793 12.961.977 28.398 4.371 37.945 12.145 1.883 1.535 3.082 2.598 4.027 3.652 3.156 3.531 2.07 4.348-2.934 4.176-18.656-.617-37.332-.797-56-.777-16.063.016-32.129.164-48.18.66-4.835.152-5.23-2.836-2.956-5.141z" fill="#ff7a0d"/><path d="m262.943 119.004c-1.703-.117-3.531-.469-4.434-2.168-1.039-1.957-1.004-5.387-.688-7.133.465-2.609 2.875-2.754 5.551-3.488.055-.008.066-.008.137-.012 26.969-3.059 54.621-2.473 81.719-2.484 18.086-.008 36.18.168 54.254.758 6.684.215 13.367.48 20.047.922 7.406.496 14.949-.027 15.016 6.48.066 6.57-4.867 7.156-10.102 7.449-11.918.652-23.875.816-35.813.988-31.516.445-63.051.445-94.563-.164-10.378-.199-20.765-.418-31.124-1.148z" fill="#dda96b"/><g fill="#e5e5e5"><path d="m379.072 141.434c5.625-.063 11.262-.043 16.883-.145 4.977-.09 10.066-.078 15.168-.145 8.848-.098 8.66 4.551 9.387 9.742.824 7.238 1.004 14.551.684 21.82-.164 3.742-.473 7.469-.883 11.188-.039.34-.145 1.18-.172 1.422-.129.945-.273 1.879-.434 2.82-.281 1.734-.598 3.461-.961 5.188-.668 3.199-1.457 6.383-2.445 9.492-1.348 4.266-3.527 5.547-8.668 5.375-9.691-.324-19.387-.516-29.078-.633 5.906-21.589 6.519-44.574.519-66.124z"/><path d="m367.025 201.559c-1.063 4.305-2.625 5.926-6.813 5.895-2.859-.02-5.719-.047-8.582-.039-4.824.004-9.648.039-14.473.078-6.887.059-7.199.242-8.641-5.484-4.434-17.633-4.926-35.867-.797-53.48 1.145-4.871 2.496-6.902 7.602-6.883 8.254.027 16.504 0 24.754-.051 5.609-.039 6.254 1.426 7.203 5.199 4.544 18.003 4.216 36.69-.253 54.765z"/><path d="m316.943 207.781c-7.105.141-14.211.277-21.313.547-.773.027-1.559.055-2.355.074-6.238.172-8.41-4.516-10.617-15.078-2.16-10.465-3.281-29.449-1.742-42.707 1.141-8.488 2.035-9.582 9.121-9.457 8.766.176 17.539.195 26.309.297-6.012 21.621-5.372 44.676.597 66.324z"/></g><path d="m265.197 237.668c-.23-5.016 3.055-6.414 7.164-6.848 26.5-2.859 53.637-2.309 80.23-2.313 18.086-.016 36.18.164 54.254.75 6.684.219 13.375.48 20.043.922 6.938.469 14.953-.508 15.02 6.488.07 7.281-5.5 7.184-10.094 7.441-11.926.652-23.883.816-35.82.988-31.516.449-63.051.449-94.563-.164-9.707-.184-19.418-.391-29.105-1.016-2.727-.154-6.828.338-7.129-6.248z" fill="#dda96b"/><path d="m258.373 393.23c5.809-29.77 12.957-59.25 21.852-88.238 40.691 53.859 103.781 103.695 171.113 112.969 6.055 35.504 10.832 71.23 14.848 106.895.762 6.77-1.953 7.613-14.004 6.598-70.543-5.973-144.004-57.691-188.602-111.18-7.613-9.133-7.871-13.395-5.207-27.044z" fill="#ffc522"/><path d="m446.064 681.508c-49.734 19.434-107.559 22.406-159.066 9.078-17.781-4.602-53.695-14.563-56.824-35.551-.93-6.234.66-13.277 1.152-19.512.613-7.824 1.188-15.641 1.754-23.465 1.301-17.93 2.574-35.859 4.031-53.777.301-3.699.629-7.402.945-11.105 30.773 35.227 69.461 62.66 110.695 84.645 35.848 19.109 77.445 35.602 118.969 38.047-6.386 5.159-14.418 8.812-21.656 11.64z" fill="#ff2e60"/><path d="m466.81 657.059c-36.672-2.676-72.637-16.883-105.16-32.832-42.273-20.73-82.832-49.164-113.914-85.035-8.145-9.387-7.988-11.438-6.594-25.207 2.957-29.281 6.598-58.543 11.324-87.598 27.191 32.688 60.98 59.121 97.734 80.625 34.793 20.359 76.742 38.094 118.008 37.598 2.973 28.512 5.617 57.051 8.066 85.609.449 5.219 1.449 10.762 1.727 16.109.45 8.887-2.015 11.391-11.191 10.731z" fill="#ff7a0d"/><path d="m447.002 393.883c-1.746-9.242-3.613-18.457-5.57-27.648-6.355 15.375-22.07 14.734-37.07 10.66-18.137-4.93-34.762-16.297-50.098-26.801-27.551-18.867-51.949-42.301-64.848-73.051-.563 1.613-1.133 3.23-1.684 4.852-2.316 6.789-.484 11.594 4.617 18.211 35.145 45.648 87.844 88.93 144.352 102.43 10.941 2.624 12.336 2.144 10.301-8.653z" fill="#19bfbb"/><path d="m414.65 329.777c-7.594-28.063-4.402-42.012-35.973-45.109-11.621-1.145-23.797-.703-35.488-.961-17.227-.391-15.609 9.012-4.742 19.684 19.613 19.293 40.613 35.105 64.734 50.145 20.204 12.589 14.891-11.149 11.469-23.759z" fill="#6cfffb"/><path d="m316.017 679.434c-27.074-6.969-51.887-20.332-68.637-43.184-6.965-9.508-11.113-20.059-13.781-31.113-.168 2.305-.352 4.613-.52 6.922-.566 7.824-1.141 15.641-1.754 23.465-.492 6.234-2.082 13.277-1.152 19.512 3.129 20.988 39.043 30.949 56.824 35.551 43.391 11.227 91.25 10.836 134.996-1.168-35.265 3.96-72.339-1.325-105.976-9.985z" fill="#ea0f4d"/><path d="m374.342 664.223c-22.715-6.992-62.344-28.852-89.652-52.289-8.145-6.996-27.836-24.715-25.938-.457 2.059 26.406 25.555 39.457 45.645 46.02 21.707 7.078 46.426 13.418 70.051 14 13.483.319 12.64-3.352-.106-7.274z" fill="#f69"/><path d="m478.002 646.328c-.277-5.348-1.277-10.891-1.727-16.109-.738-8.605-1.535-17.199-2.313-25.797-3.051 5.223-6.637 10.16-11.305 14.695-14.527 14.105-36.934 11.23-54.773 7.391-29.609-6.391-59.773-23.977-85.594-39.453-24.93-14.945-48.668-34.133-65.043-58.383-7.266-10.754-11.566-22.922-13.875-35.531-.777 6.941-1.527 13.895-2.23 20.844-1.395 13.77-1.551 15.82 6.594 25.207 31.082 35.871 71.641 64.305 113.914 85.035 32.523 15.949 68.488 30.156 105.16 32.832 9.176.66 11.641-1.844 11.192-10.731z" fill="#ef6200"/><path d="m400.267 83.406c4.336.152 5.719-.453 3.961-2.91-19.527-3.707-40.047-3.918-59.668-3.852-16 .055-31.945 1.813-47.086 6.617 15.594-.461 31.191-.617 46.793-.633 18.668-.019 37.344.161 56 .778z" fill="#ef6200"/><path d="m412.388 555.578c-58.16-13.25-112.57-61.805-129.844-77.117-7.586-6.73-16.273-10.344-15.805 5.41.617 20.758 7.055 30.469 17.262 44.027 7.422 9.863 17.035 18.832 28.426 27.461 27.105 20.535 67.82 45.129 103.664 40.086 15.294-2.14 34.45-31.179-3.703-39.867z" fill="#ffb85a"/><path d="m360.595 14.168c1.684 4.688 2.02 9.5-.176 14.41-3.43 7.672-13.449 8.652-20.625 7.328-8.75-1.621-11.934-7.824-13.008-14.977-2.09 5.098-1.434 11.895.48 16.703 1.668 4.207 4.145 4.367 8.766 4.109 7.742-.438 15.508-.266 23.027.328 4.063.324 7.402-.594 7.871-4.938.449-4.246.355-10.039-1.332-14.852-1.296-3.701-3.022-6.267-5.003-8.111z" fill="#00d35f"/><path d="m466.185 524.855c-1.262-11.16-2.617-22.32-4.043-33.488-7.223 15.57-20.078 25.445-42.695 21.043-26.559-5.168-53.879-23.352-76.039-38.234-22.934-15.406-47.625-32.035-64.395-54.316-13.859-18.418-13.617-39.457-13.266-60.758-2.648 11.332-5.145 22.699-7.375 34.129-2.664 13.648-2.406 17.91 5.207 27.043 44.598 53.488 118.059 105.207 188.602 111.18 12.051 1.015 14.766.171 14.004-6.599z" fill="#ffa222"/><path d="m407.545 425.23c-34.688-21.816-76.953-34.777-104.977-65.223-8.23-8.941-13.973-13.047-13.125.672.754 12.07 2.68 24 7.246 35.332 6.273 15.563 21.09 29.09 34.113 38.93 20.754 15.684 54.531 45.848 83.055 41.535 10.125-1.527 10.824-13.527 10.977-21.41.289-14.652-5.219-22.242-17.289-29.836z" fill="#fbe134"/><path d="m280.955 150.367c9.652-2.266 19.77-2.879 27.008 5.156 1.902 2.109 3.375 4.559 4.676 7.133.602-7.152 1.777-14.254 3.707-21.199-8.77-.102-17.543-.121-26.309-.297-7.008-.125-7.961.969-9.082 9.207z" fill="#c6c6c6"/><path d="m349.22 147.789c9.582-.617 15.676 3.078 19.992 8.813-.508-3.281-1.113-6.559-1.934-9.809-.949-3.773-1.594-5.238-7.203-5.199-8.25.051-16.5.078-24.754.051-5.105-.02-6.457 2.012-7.602 6.883-.742 3.172-1.285 6.363-1.73 9.559 4.438-8.044 14.86-9.755 23.231-10.298z" fill="#c6c6c6"/><path d="m420.24 148.816c-.574-4.289-1.469-7.758-9.117-7.672-5.102.066-10.191.055-15.168.145-5.621.102-11.258.082-16.883.145 2.367 8.504 3.668 17.234 4.055 26.008 3.684-7.055 8.113-12.895 17.113-16.164 6.328-2.301 13.203-2.587 20-2.462z" fill="#c6c6c6"/><path d="m358.568 197.117c-10.863 7.527-23.984-1.617-30.031-10.73-1.355-2.051-2.445-4.43-3.426-6.898.418 7.555 1.539 15.09 3.406 22.52 1.441 5.727 1.754 5.543 8.641 5.484 4.824-.039 9.648-.074 14.473-.078 2.863-.008 5.723.02 8.582.039 4.188.031 5.75-1.59 6.813-5.895 1.645-6.672 2.727-13.426 3.207-20.203-2.419 6.148-5.88 11.738-11.665 15.761z" fill="#f4f4f4"/><path d="m416.299 202.816c.988-3.109 1.777-6.293 2.445-9.492.363-1.727.68-3.453.961-5.188.16-.941.305-1.875.434-2.82.027-.242.133-1.082.172-1.422.02-.191.027-.383.047-.574-5.887 10.113-14.113 19.262-26.004 13.691-4.957-2.32-8.723-6.875-11.688-12.145-.727 7.656-2.074 15.254-4.113 22.691 9.691.117 19.387.309 29.078.633 5.14.173 7.32-1.108 8.668-5.374z" fill="#f4f4f4"/><path d="m295.631 208.328c7.102-.27 14.207-.406 21.313-.547-2.09-7.578-3.484-15.332-4.211-23.137-1.121 2.379-2.34 4.715-3.773 6.961-6.012 9.434-18.297 10.086-25.898 3.5 2.082 9.262 4.352 13.453 10.215 13.297.795-.019 1.58-.047 2.354-.074z" fill="#f4f4f4"/><path d="m390.478 115.512c-17.668.07-35.328.129-52.992.164-14.711.023-29.418.023-44.129-.027-10.27-.039-25.605 1.848-35.703-2.922.051 1.473.273 3.016.855 4.109.902 1.699 2.73 2.051 4.434 2.168 10.359.73 20.746.949 31.125 1.148 31.512.609 63.047.609 94.563.164 11.938-.172 23.895-.336 35.813-.988 5.043-.277 9.766-.891 10.039-6.816-13.907 4.414-29.575 2.937-44.005 3z" fill="#c48d51"/><path d="m386.787 241.32c-13.641-.414-27.266-.766-40.91-.883-14.387-.133-28.773-.164-43.16-.25-9.137-.059-27.746 1.977-37.379-3.512-.027.355-.16.59-.141.992.301 6.586 4.402 6.094 7.129 6.25 9.688.625 19.398.832 29.105 1.016 31.512.613 63.047.613 94.563.164 11.938-.172 23.895-.336 35.82-.988 4.258-.238 9.289-.25 9.961-6.031-16.848 5.953-38.14 3.75-54.988 3.242z" fill="#c48d51"/></g></g></svg>