<svg id="Office_Supplies" height="512" viewBox="0 0 708.662 708.662" width="512" xmlns="http://www.w3.org/2000/svg"><g><path d="m202.31 277.583c.031.021.051.04.071.051.435.324.708.517 1.032.749-.324-.232-.638-.456-1.021-.739 14.982 10.883 33.073 10.63 50.729 10.63 5.934-.132 12.625-2.905 14.771 3.169 1.67 4.748 3.604 8.625.941 13.272-7.229 12.604-19.59 21.979-27.607 34.188-9.779 14.882-14.305 31.961-11.936 49.676 4.464 33.328 23.729 63.486 56.338 74.4 17.504 5.861 36.121 6.176 54.232 3.311 4.08-.648 8.16-1.367 12.219-2.168 2.441 5.033 4.921 10.043 7.422 15.035 5.76 11.48 11.672 22.889 17.746 34.197 18.092 33.742 36.243 71.088 60.631 100.832 21.371 26.059 61.988 42.691 85.424 8.15 18.951-27.922 6.58-69.379.01-99.295-4.322-19.689-9.546-39.137-15.529-58.393-3.098-9.982-6.367-19.904-9.748-29.795-1.641-4.828-3.311-9.637-4.992-14.445-2.945-8.393-4.393-8.596 3.059-13.334 31.586-20.084 55.123-51.275 48.734-90.434-5-30.675-18.647-59.305-49.342-70.481-16.289-5.923-50.275-.679-59.406-17.059-4.051-7.249 1.801-9.739 7.279-14.608 4.838-4.404 9.586-8.838 13.809-13.859 10.518-12.533 17.18-27.526 18.465-43.896 2.399-30.422-8.332-64.012-36.172-79.532-34.197-19.063-76.809-8.027-112.09 1.691-37.822 10.427-75.057 24.641-108.516 45.344-30.098 18.617-56.369 43.744-56.086 81.708.213 28.924 16.583 54.931 39.533 71.635z" fill="#fff"/><g><path d="m219.652 253.864c9.162 6.661 25.279 4.809 35.717 5.052 5.355.121 24.186-3.128 27.283-.679 7.107 5.649 12.301 21.22 14.842 29.015 13.02 39.918-35.524 52.927-39.381 87.681-1.833 16.533 10.104 46.641 24.66 54.77 16.867 9.404 33.713 10.529 52.512 7.563 11.086-1.752 22.172-4.15 33.176-7.025 19.721 42.186 41.416 83.529 65.49 123.396 7.563 12.514 38.885 76.213 62.656 54.912 14.184-12.705 2.227-59.619-2.34-80.736-9.869-45.699-26.119-89.809-40.666-130.566 6.459-3.32 12.836-6.742 19.053-10.326 11.672-6.742 23.497-14.77 32.152-25.217.233-.273.385-.557.578-.842.232-.262.475-.496.697-.799 15.398-21.432 11.643-37.833 3.321-62.018-8.17-23.729-28.974-27.779-50.801-28.62-26.433-1.002-43.329-11.176-52.663-35.838-7.492-19.791 6.539-30.877 19.883-42.823 20.207-18.07 24.104-34.512 18.252-60.762-10.002-44.858-61.773-34.623-94.18-26.615-45.962 11.358-95.639 29.632-133.805 58.251-34.551 25.895-30.208 67.676 3.564 92.226z" fill="#68182b"/><path d="m486.453 554.011c9.264 47.137-.739 48.311-24.227 13.859-10.396-15.266-19.721-31.262-28.902-47.268-16.178-28.193-31.15-57.139-45.172-86.477-3.018-6.316-4.029-8.311 3.451-10.762 13.05-4.303 25.906-9.262 38.461-14.82 8.443-3.736 9.646-2.35 11.895 3.959 15.742 43.987 35.24 94.515 44.494 141.509z" fill="#e5e5e5"/><path d="m471.642 287.272c8.008 1.569 15.297 4.869 21.047 13.171 10.255 14.801 9.598 36.547-.203 50.771-23.547 27.547-66.32 42.186-99.102 53.989-18.678 6.723-37.871 12.078-57.4 15.652-29.906 5.477-52.025-4.799-61.097-36.344-1.62-5.639-.87-10.834 1.204-15.793 70.806-1.59 149.407-25.26 195.551-81.446z" fill="#ff2e60"/><path d="m216.707 182.562c25.318-28.649 72.92-43.157 107.767-54.84 36.819-12.341 119.724-37.559 105.063 34.076-4.131 20.187-40.039 23.74-43.137 43.057-2.936 18.263 3.947 37.083 13.211 52.653 10.377 17.423 28.488 24.591 47.611 27.223 11.359 1.569 14.406.476 5.336 9.476-40.656 40.354-101.449 59.548-158.445 63.912-8.627.658-10.975-1.094-5.539-6.946 9.791-10.528 21.393-20.764 24.277-32.699 5.244-21.726.365-40.242-10.134-59.578-6.804-12.533-16.097-20.966-30.958-18.223-15.084 2.794-37.701 5.467-50.041-5.72-15.581-14.103-19.398-36.112-5.011-52.391z" fill="#00ebed"/><path d="m216.707 182.562c-14.387 16.279-10.569 38.288 5.012 52.391 12.34 11.187 34.957 8.514 50.041 5.72 14.861-2.743 24.154 5.689 30.958 18.223 10.499 19.336 15.378 37.853 10.134 59.578-2.885 11.936-14.486 22.171-24.277 32.699-5.436 5.852-3.088 7.604 5.539 6.946 51.488-3.939 106.025-20.045 146.064-52.857-14.123 7.847-28.883 14.589-43.836 20.592-21.654 8.707-48.189 19.479-71.818 19.296-16.39-.121-4.443-19.853-1.588-27.111 3.32-8.453 2.702-19.296 1.467-28.063-2.754-19.509-9.709-38.471-23.507-52.887-10.802-11.288-26.292-8.676-40.19-6.955-13.678 1.701-26.292 2.056-36.871-8.312-6.084-5.963-8.686-15.459-8.424-23.699.264-8.21 3.655-15.834 8.596-22.829-2.573 2.328-5.053 4.727-7.3 7.268z" fill="#19bfbb"/><path d="m377.219 126.335c-31.374 4.13-85.617 24.448-107.342 39.594-25.006 17.423-11.967 34.208 13.393 32.103 31.02-2.582 85.657-21.118 112.525-39.209 25.197-16.968 21.361-37.752-18.576-32.488z" fill="#6cfffb"/><path d="m433.324 520.603c9.182 16.006 18.506 32.002 28.902 47.268 1.367 1.994 2.673 3.848 3.938 5.6-14.528-24.449-25.685-50.467-34.269-78.268-4.748-15.387-8.596-31.059-11.643-46.861-1.822-9.467-4.182-23.578-1.721-35.02-8.879 3.615-17.838 7.047-26.93 10.043-7.48 2.451-6.469 4.445-3.451 10.762 14.024 29.337 28.996 58.282 45.174 86.476z" fill="#c6c6c6"/><path d="m335.984 420.854c19.529-3.574 38.723-8.93 57.4-15.652 32.781-11.803 75.555-26.441 99.102-53.989 6.49-9.415 8.869-22.11 6.824-33.915-3.918 12.392-11.35 23.225-22.941 32.721-18.961 15.539-43.318 24.105-66.026 32.435-27.851 10.215-56.206 20.582-86.153 21.736-12.807.506-27.465-1.498-38.803-7.826-.922-.506-1.772-1.072-2.592-1.67-.578-.455-1.145-.91-1.682-1.387-.789-.689-1.539-1.418-2.236-2.188-.385-.404-.75-.83-1.125-1.266-.738-.91-1.416-1.883-2.064-2.885 9.515 29.574 31.2 39.22 60.296 33.886z" fill="#ea0f4d"/><path d="m340.812 365.235c25.158-4.426 49.496-12.848 72.385-24.095 20.49-10.073 53.555-28.164 64.943-52.056-2.096-.78-4.271-1.377-6.498-1.813-44.221 53.848-118.246 77.77-186.662 81.071 17.717 4.456 38.775-.111 55.832-3.107z" fill="#f69"/></g></g></svg>