<?xml version="1.0" encoding="iso-8859-1"?>
<!-- Generator: Adobe Illustrator 28.1.0, SVG Export Plug-In . SVG Version: 6.00 Build 0)  -->
<svg xmlns="http://www.w3.org/2000/svg" xmlns:xlink="http://www.w3.org/1999/xlink" version="1.1" id="Capa_1" x="0px" y="0px" viewBox="0 0 512 512" style="enable-background:new 0 0 512 512;" xml:space="preserve">
<g>
	<g>
		<path style="fill:#FCFDFF;" d="M462.506,429.597c0,0-1.897-14.403,11.966-9.743c13.863,4.66,9.346,17.847,4.061,13.335    c-5.285-4.512,4.631-19.817,15.24-13.002c10.609,6.815,8.236,20.039,0.711,21.014c-7.525,0.976,4.555-15.397,14.034-5.285    c9.479,10.112-11.217,28.547-19.681,21.769c-8.464-6.778-1.84-17.718,0.19-11.05c2.03,6.667-3.445,13.205-18.457,12.947    c-15.012-0.258-8.179-23.354-2.931-16.631c5.247,6.723-3.464,14.31-14.053,6.391C442.996,441.421,455.076,425.048,462.506,429.597    z"/>
		<path style="fill:#241726;" d="M471.4,460.656c-0.28,0-0.563-0.002-0.848-0.007c-4.956-0.085-8.444-2.613-9.69-6.973    c-2.399-0.313-5.105-1.378-7.916-3.481c-6.158-4.605-5.436-11.795-1.991-16.878c2.484-3.662,6.623-6.37,10.393-5.368    c-0.003-2.284,0.431-6.2,3.157-8.443c2.363-1.945,5.831-2.166,10.306-0.663c2.056,0.692,3.687,1.542,4.982,2.459    c3.549-3.68,9.062-5.538,14.556-2.013c5.36,3.444,7.406,8.218,7.632,12.268c2.632,0.116,5.171,1.341,7.315,3.63    c4.34,4.629,3.395,11.674-2.409,17.948c-5.248,5.674-13.592,9.487-18.718,5.383c-0.656-0.524-1.232-1.079-1.736-1.654    C483.104,459.333,477.915,460.656,471.4,460.656z M463.129,453.75c0.871,2.36,2.892,4.686,7.46,4.764    c6.432,0.113,11.523-1.07,14.586-3.364c-1.821-3.006-1.964-6.294-1.069-8.731c0.675-1.842,1.893-2.928,3.194-2.927    c0.71,0.02,2.012,0.415,2.748,2.832c0.912,2.997,0.425,5.961-1.373,8.343c-0.201,0.268-0.419,0.528-0.651,0.779    c0.421,0.48,0.911,0.952,1.479,1.407c3.915,3.135,11.259-0.24,15.817-5.167c3.966-4.288,6.684-10.489,2.419-15.039    c-1.998-2.13-4.01-2.898-5.805-2.977c-0.05,0.49-0.127,0.96-0.227,1.406c-0.895,3.981-3.61,6.734-7.086,7.184    c-2.491,0.323-3.214-0.984-3.416-1.56c-0.731-2.088,1.423-5.453,4.803-7.502c1.262-0.766,2.557-1.262,3.847-1.496    c-0.186-3.47-1.965-7.602-6.658-10.616c-4.653-2.989-8.985-1.225-11.755,1.582c2.727,2.651,3.209,5.482,3.288,6.589    c0.181,2.518-0.799,4.7-2.499,5.559c-1.373,0.694-2.974,0.395-4.391-0.815c-3.01-2.57-1.994-7.459,0.583-11.053    c-1.111-0.767-2.515-1.485-4.29-2.081c-3.729-1.252-6.51-1.158-8.265,0.283c-3.017,2.477-2.311,8.252-2.303,8.311    c0.053,0.406-0.132,0.809-0.477,1.033c-0.347,0.224-0.788,0.23-1.138,0.015c-3.018-1.852-6.928,0.616-9.225,4.007    c-2.878,4.244-3.529,10.21,1.501,13.971c2.226,1.665,4.341,2.595,6.219,2.971c-0.442-4.444,1.261-9.286,3.875-10.505    c0.687-0.32,2.466-0.832,4.162,1.341c2.418,3.098,2.413,6.698-0.013,9.175C467.235,452.725,465.382,453.591,463.129,453.75z     M487.238,445.626c-0.148,0-0.704,0.371-1.128,1.528c-0.515,1.404-0.724,3.934,0.655,6.491c0.072-0.087,0.141-0.174,0.207-0.263    c1.396-1.85,1.753-4.076,1.034-6.437c-0.329-1.081-0.706-1.317-0.766-1.32C487.24,445.626,487.239,445.626,487.238,445.626z     M465.598,442.792c-0.173,0-0.3,0.059-0.378,0.095c-1.518,0.708-3.154,4.785-2.605,8.768c1.859-0.048,3.36-0.693,4.326-1.68    c1.657-1.691,1.602-4.131-0.144-6.368C466.283,442.947,465.88,442.792,465.598,442.792z M499.756,433.9    c-1.047,0.262-1.951,0.703-2.642,1.122c-2.839,1.721-4.153,4.232-3.895,4.971c0.049,0.14,0.451,0.242,1.127,0.149    c2.563-0.331,4.586-2.452,5.278-5.535C499.676,434.379,499.72,434.142,499.756,433.9z M480.07,424.313    c-2.214,3.151-2.588,6.575-0.844,8.064c0.526,0.451,1.304,0.906,2.043,0.534c0.736-0.372,1.467-1.627,1.333-3.501    C482.54,428.554,482.165,426.412,480.07,424.313z"/>
	</g>
	<g>
		<path style="fill:#FCFDFF;" d="M59.504,161.861c0,0-1.897-14.403,11.966-9.743c13.863,4.66,9.346,17.847,4.061,13.335    c-5.285-4.512,4.632-19.817,15.24-13.002c10.609,6.815,8.236,20.038,0.711,21.014c-7.525,0.976,4.555-15.397,14.035-5.285    c9.479,10.112-11.217,28.547-19.681,21.769c-8.464-6.778-1.84-17.718,0.19-11.05c2.03,6.667-3.445,13.205-18.457,12.947    c-15.012-0.258-8.179-23.354-2.932-16.631c5.247,6.723-3.464,14.31-14.053,6.39C39.994,173.684,52.074,157.311,59.504,161.861z"/>
		<path style="fill:#241726;" d="M68.398,192.92c-0.28,0-0.563-0.002-0.848-0.007c-4.955-0.085-8.443-2.613-9.689-6.972    c-2.399-0.313-5.105-1.379-7.916-3.481c-6.158-4.604-5.436-11.795-1.99-16.879c2.483-3.661,6.623-6.363,10.392-5.367    c-0.003-2.284,0.431-6.2,3.157-8.443c2.362-1.946,5.831-2.165,10.306-0.663c2.056,0.691,3.687,1.542,4.982,2.459    c3.547-3.682,9.06-5.543,14.556-2.012c5.36,3.443,7.405,8.217,7.631,12.267c2.633,0.117,5.171,1.341,7.316,3.63    c4.34,4.63,3.395,11.675-2.41,17.949c-5.247,5.673-13.592,9.493-18.717,5.382c-0.656-0.524-1.232-1.079-1.735-1.654    C80.102,191.597,74.913,192.92,68.398,192.92z M60.128,186.014c0.871,2.36,2.892,4.686,7.459,4.764    c6.449,0.108,11.524-1.07,14.587-3.365c-1.821-3.005-1.964-6.293-1.069-8.73c0.676-1.841,1.943-2.91,3.193-2.927    c0.711,0.02,2.011,0.415,2.748,2.832c0.912,2.997,0.425,5.96-1.372,8.343c-0.202,0.268-0.42,0.527-0.651,0.779    c0.421,0.479,0.911,0.951,1.479,1.406c3.915,3.134,11.258-0.241,15.817-5.166c3.966-4.288,6.684-10.49,2.419-15.04    c-1.998-2.13-4.01-2.898-5.805-2.975c-0.051,0.489-0.127,0.959-0.228,1.405c-0.894,3.981-3.609,6.735-7.085,7.185    c-2.488,0.318-3.215-0.985-3.416-1.56c-0.732-2.088,1.423-5.453,4.802-7.502c1.262-0.766,2.557-1.262,3.847-1.496    c-0.185-3.469-1.965-7.602-6.657-10.616c-4.65-2.988-8.985-1.224-11.755,1.582c2.725,2.65,3.209,5.482,3.288,6.589    c0.181,2.518-0.799,4.7-2.499,5.559c-1.37,0.69-2.972,0.396-4.391-0.815c-3.01-2.57-1.994-7.46,0.583-11.053    c-1.111-0.767-2.515-1.485-4.29-2.081c-3.729-1.253-6.51-1.159-8.265,0.283c-3.017,2.477-2.311,8.252-2.303,8.311    c0.053,0.406-0.132,0.809-0.477,1.033c-0.346,0.224-0.788,0.23-1.138,0.014c-3.02-1.85-6.927,0.615-9.225,4.007    c-2.878,4.243-3.529,10.21,1.501,13.971c2.226,1.664,4.341,2.594,6.219,2.971c-0.442-4.445,1.261-9.286,3.875-10.505    c0.687-0.32,2.466-0.832,4.162,1.341c2.418,3.098,2.412,6.698-0.014,9.175C64.233,184.989,62.38,185.854,60.128,186.014z     M84.236,177.89c-0.148,0-0.703,0.371-1.128,1.528c-0.515,1.404-0.724,3.933,0.655,6.491c0.071-0.087,0.14-0.174,0.206-0.263    c1.396-1.85,1.753-4.075,1.034-6.437C84.668,178.109,84.232,177.862,84.236,177.89z M62.597,175.056    c-0.174,0-0.3,0.058-0.378,0.095c-1.517,0.708-3.154,4.785-2.606,8.768c1.86-0.049,3.361-0.694,4.327-1.681    c1.657-1.69,1.602-4.13-0.144-6.367C63.28,175.211,62.877,175.056,62.597,175.056z M96.754,166.162    c-1.046,0.263-1.951,0.705-2.642,1.124c-2.838,1.721-4.152,4.232-3.894,4.971c0.049,0.14,0.45,0.241,1.127,0.149    c2.563-0.332,4.586-2.453,5.278-5.536C96.673,166.642,96.718,166.405,96.754,166.162z M77.068,156.577    c-2.214,3.151-2.588,6.575-0.844,8.064c0.526,0.45,1.309,0.908,2.042,0.534c0.737-0.372,1.468-1.627,1.333-3.501    C79.537,160.818,79.162,158.676,77.068,156.577z"/>
	</g>
	<path style="fill:#241726;" d="M27.404,159.925h-0.006l-4.129-0.014l4.374-2.966c0.488-0.331,0.616-0.995,0.284-1.483   c-0.333-0.49-1.001-0.611-1.483-0.284l-5.901,4l0.131-6.894c0.012-0.59-0.457-1.076-1.047-1.087l-0.006,0   c-0.586-0.008-1.069,0.459-1.081,1.047l-0.115,6.084l-3.609-3.915c-0.401-0.431-1.074-0.462-1.508-0.061   c-0.433,0.399-0.46,1.076-0.061,1.508l3.713,4.027l-6.838-0.024c-0.59-0.001-1.069,0.474-1.071,1.064   c-0.001,0.586,0.468,1.063,1.053,1.071l0.01,0l6.238,0.022l-4.874,3.304c-0.488,0.331-0.615,0.995-0.284,1.483   c0.205,0.301,0.534,0.463,0.869,0.468c0.213,0.003,0.426-0.057,0.613-0.184l5.655-3.834l-0.132,6.945   c-0.012,0.59,0.457,1.075,1.047,1.087h0.006c0.586,0.008,1.069-0.459,1.081-1.047l0.124-6.56l3.847,4.173   c0.208,0.224,0.487,0.34,0.771,0.344c0.263,0.003,0.529-0.089,0.738-0.282c0.433-0.399,0.46-1.076,0.061-1.508l-4.028-4.369   l5.544,0.02c0.59,0.001,1.069-0.474,1.071-1.064C28.463,160.41,27.994,159.933,27.404,159.925z"/>
	<path style="fill:#241726;" d="M480.951,378.234h-0.006l-4.129-0.014l4.374-2.966c0.488-0.331,0.616-0.995,0.284-1.483   c-0.333-0.49-1.001-0.611-1.483-0.284l-5.901,4.001l0.131-6.894c0.012-0.59-0.457-1.076-1.047-1.087l-0.006,0   c-0.586-0.008-1.069,0.459-1.081,1.047l-0.116,6.084l-3.609-3.915c-0.401-0.431-1.074-0.462-1.508-0.061   c-0.433,0.399-0.46,1.076-0.061,1.509l3.713,4.027l-6.838-0.024c-0.59-0.001-1.069,0.474-1.071,1.064   c-0.002,0.586,0.468,1.063,1.053,1.071l0.01,0l6.238,0.022l-4.874,3.304c-0.488,0.331-0.615,0.995-0.284,1.483   c0.204,0.301,0.534,0.463,0.869,0.468c0.213,0.003,0.426-0.057,0.613-0.184l5.655-3.834l-0.132,6.945   c-0.012,0.59,0.457,1.075,1.047,1.087h0.006c0.585,0.008,1.069-0.459,1.081-1.047l0.124-6.56l3.847,4.173   c0.208,0.224,0.488,0.34,0.771,0.344c0.263,0.003,0.529-0.089,0.738-0.282c0.432-0.399,0.46-1.076,0.061-1.508l-4.028-4.369   l5.544,0.02c0.59,0.001,1.069-0.474,1.071-1.064C482.01,378.719,481.541,378.242,480.951,378.234z"/>
	<path style="fill:#F2C100;" d="M39.391,448.057c0,0-6.183-16.562-3.092-15.237c3.092,1.325,13.086,6.372,13.086,6.372   s10.764-7.452,11.426-6.447c0.662,1.005-0.883,14.65-0.883,14.65s13.25,7.067,10.821,8.612c-2.429,1.546-14.575,2.871-14.575,2.871   s-4.609,17.004-6.789,15.292c-3.324-2.611-6.24-13.083-6.24-13.083s-13.932-0.221-13.49-2.429   C30.096,456.449,39.391,448.057,39.391,448.057z"/>
	<path style="fill:#F2C100;" d="M468.816,89.572c0,0-6.183-16.562-3.092-15.238c3.092,1.325,13.086,6.372,13.086,6.372   s10.764-7.452,11.426-6.447c0.662,1.005-0.883,14.65-0.883,14.65s13.25,7.067,10.821,8.613c-2.429,1.546-14.575,2.871-14.575,2.871   s-4.609,17.004-6.789,15.292c-3.324-2.611-6.24-13.083-6.24-13.083s-13.932-0.221-13.49-2.429   C459.522,97.963,468.816,89.572,468.816,89.572z"/>
	<path style="fill:#241726;" d="M23.222,105.805c-0.28,0-0.558-0.084-0.804-0.251c-0.772-0.52-2.878-3.968-5.156-8.292   c-5.622,0.628-10.321,0.843-10.978-0.074c-0.288-0.4-0.36-1.045,0.128-1.586c1.067-1.183,3.577-3.938,6.608-7.088   c-2.193-4.978-3.731-9.464-3.156-10.88c0.277-0.683,0.933-1.037,1.653-0.907c1.364,0.246,5.324,2.168,9.182,4.175   c3.986-3.704,7.669-6.629,9.397-6.665c0.632-0.06,1.064,0.261,1.293,0.495c0.24,0.243,0.348,0.586,0.292,0.922   c-0.496,3.009-1.12,6.605-1.821,10.246c9.343,5.334,9.453,6.289,9.516,6.826c0.054,0.467-0.285,1.046-0.716,1.234   c-0.105,0.046-4.989,0.954-10.937,1.876c-1.299,5.262-2.677,9.311-3.922,9.847C23.613,105.764,23.417,105.805,23.222,105.805z    M19.448,97.004c1.531,2.935,2.919,5.332,3.735,6.341c0.602-1.064,1.392-3.669,2.25-7.162   C23.46,96.476,21.422,96.758,19.448,97.004z M13.971,90.613c-1.63,1.7-3.269,3.451-4.861,5.192c1.554-0.005,4.129-0.22,7.117-0.545   C15.462,93.749,14.695,92.176,13.971,90.613z M15.546,88.984c0.911,2.009,1.905,4.085,2.881,6.025   c2.439-0.289,5.037-0.631,7.519-0.982c0.494-2.145,1.003-4.529,1.504-7.038c-2.083-1.177-4.283-2.383-6.375-3.494   C19.335,85.157,17.46,87.022,15.546,88.984z M29.426,88.118c-0.381,1.903-0.783,3.789-1.193,5.579   c3.361-0.496,6.307-0.982,8.051-1.33C34.894,91.367,32.367,89.817,29.426,88.118z M11.849,79.034   c0.171,1.436,1.279,4.422,2.76,7.84c1.441-1.473,2.956-2.985,4.461-4.431C15.95,80.827,13.262,79.535,11.849,79.034z    M22.706,81.958c1.374,0.731,2.671,1.436,3.756,2.037c0.492,0.271,0.965,0.535,1.42,0.789c0.514-2.668,1.014-5.434,1.476-8.167   C28.022,77.282,25.626,79.252,22.706,81.958z M30.144,76.37h0.021H30.144z"/>
	<path style="fill:#241726;" d="M404.996,176.939l-0.024-0.018c-3.105-2.407-3.671-6.89-1.263-9.996   c2.397-3.092,6.869-3.667,9.971-1.282c1.528,1.185,2.489,2.868,2.727,4.756c0.238,1.886-0.272,3.755-1.438,5.258   C412.571,178.747,408.096,179.322,404.996,176.939z M412.442,167.29c-2.223-1.708-5.401-1.299-7.104,0.897   c-1.712,2.207-1.309,5.395,0.896,7.105l0.017,0.013c2.203,1.693,5.383,1.285,7.089-0.911c0.829-1.068,1.192-2.396,1.021-3.738   C414.193,169.314,413.51,168.119,412.442,167.29z"/>
	<path style="fill:#241726;" d="M2.779,422.239l-0.024-0.018c-3.104-2.407-3.671-6.89-1.263-9.996   c2.397-3.092,6.869-3.667,9.971-1.282c1.528,1.185,2.489,2.868,2.727,4.756c0.238,1.886-0.272,3.755-1.438,5.258   C10.354,424.046,5.879,424.621,2.779,422.239z M10.225,412.589c-2.222-1.708-5.4-1.299-7.104,0.897   c-1.712,2.207-1.309,5.395,0.896,7.105l0.017,0.013c2.203,1.694,5.383,1.285,7.089-0.911c0.829-1.069,1.192-2.396,1.021-3.738   C11.976,414.613,11.293,413.418,10.225,412.589z"/>
	<g>
		<path style="fill:#241726;" d="M55.387,217.084c0.068,0.029,0.136,0.062,0.202,0.097c2.711,1.482,3.897,7.399,4.024,8.069    c0.065,0.344-0.043,0.697-0.288,0.947c-0.246,0.249-0.598,0.363-0.942,0.303l-11.912-2.065c-0.391-0.074-0.705-0.34-0.83-0.711    c-0.124-0.371-0.037-0.781,0.23-1.068C47.393,221.017,52.493,215.868,55.387,217.084z M57.16,224.122    c-0.575-2.113-1.552-4.498-2.596-5.067c-0.612-0.43-3.24,1.283-5.714,3.627L57.16,224.122z"/>
		<path style="fill:#DF4F3E;" d="M55.044,222.012c0,0-14.452-8.073-18.901,1.535c-4.449,9.608,1.654,22.72,1.654,22.72    l15.222-11.323l5.314,17.385c0,0,14.506-9.167,14.265-20.584C72.358,220.328,55.044,222.012,55.044,222.012z"/>
		<path style="fill:#241726;" d="M55.612,230.389c-0.489,1.473-2.079,2.27-3.552,1.781c-1.472-0.489-2.27-2.079-1.781-3.552    c0.489-1.473,2.079-2.27,3.552-1.781C55.303,227.326,56.1,228.916,55.612,230.389z"/>
		<path style="fill:#241726;" d="M66.679,228.95c-0.489,1.473-2.079,2.27-3.552,1.781c-1.472-0.489-2.27-2.079-1.781-3.551    c0.489-1.473,2.079-2.27,3.552-1.781C66.371,225.888,67.168,227.478,66.679,228.95z"/>
		<path style="fill:#241726;" d="M44.9,224.68c-0.489,1.473-2.079,2.27-3.552,1.781c-1.473-0.489-2.27-2.079-1.781-3.552    c0.489-1.473,2.079-2.27,3.552-1.781C44.591,221.618,45.388,223.208,44.9,224.68z"/>
		<path style="fill:#241726;" d="M64.756,241.991c-0.489,1.472-2.079,2.27-3.552,1.781c-1.473-0.489-2.27-2.079-1.781-3.552    c0.489-1.473,2.079-2.27,3.552-1.781C64.448,238.928,65.245,240.519,64.756,241.991z"/>
		<path style="fill:#241726;" d="M41.224,235.753c-0.489,1.473-2.079,2.27-3.552,1.781c-1.472-0.489-2.27-2.079-1.781-3.552    c0.489-1.473,2.079-2.27,3.552-1.781C40.915,232.69,41.713,234.281,41.224,235.753z"/>
		<path style="fill:#241726;" d="M50.812,203.187c0.106,0.044,0.211,0.094,0.317,0.15c2.326,1.221,3.625,4.751,3.864,10.492    c0.024,0.588-0.434,1.085-1.022,1.11c-0.589,0.026-1.086-0.432-1.111-1.023c-0.267-6.457-1.821-8.215-2.723-8.689    c-1.016-0.517-2.069,0.098-2.08,0.105c-0.499,0.315-1.159,0.163-1.472-0.334c-0.315-0.5-0.165-1.158,0.334-1.472    C47,203.475,48.823,202.351,50.812,203.187z"/>
		<path style="fill:#241726;" d="M67.939,210.628c0.765,0.322,1.264,0.608,1.325,0.644c0.508,0.296,0.681,0.948,0.385,1.458    c-0.296,0.508-0.952,0.669-1.458,0.388c-1.06-0.618-4.263-1.978-6.336-0.946c-1.246,0.618-2.02,2.071-2.3,4.316    c-0.073,0.585-0.607,1-1.191,0.927c-0.584-0.074-1-0.607-0.927-1.191c0.375-3.005,1.545-5.013,3.476-5.968    C63.334,209.058,66.27,209.927,67.939,210.628z"/>
		<path style="fill:#241726;" d="M56.047,242.515c0.522,0.219,0.785,0.811,0.589,1.349c-0.082,0.225-2.074,5.502-7.45,5.726    c-1.359,0.057-2.538-0.372-3.503-1.277c-2.374-2.222-2.51-6.622-2.514-6.808c-0.015-0.589,0.45-1.077,1.039-1.093    c0.589-0.009,1.079,0.451,1.094,1.039c0.029,1.024,0.415,3.973,1.843,5.307c0.538,0.501,1.176,0.733,1.953,0.699    c3.935-0.163,5.471-4.16,5.534-4.329c0.206-0.551,0.819-0.834,1.37-0.629C56.017,242.503,56.032,242.509,56.047,242.515z"/>
		<path style="fill:#241726;" d="M54.027,238.609c0.476,0.2,0.749,0.722,0.622,1.238c-0.14,0.573-0.718,0.923-1.291,0.781    l-4.51-1.108c-0.571-0.132-0.922-0.719-0.781-1.291c0.14-0.573,0.718-0.923,1.29-0.781l4.51,1.108    C53.922,238.57,53.976,238.588,54.027,238.609z"/>
		<path style="fill:#241726;" d="M53.113,242.796c0.487,0.205,0.758,0.743,0.614,1.266c-0.155,0.569-0.743,0.903-1.311,0.747    l-6.074-1.667c-0.573-0.157-0.902-0.742-0.747-1.311c0.156-0.569,0.742-0.903,1.311-0.747l6.074,1.666    C53.026,242.763,53.071,242.778,53.113,242.796z"/>
	</g>
	<g>
		<path style="fill:#241726;" d="M468.741,325.634c-0.067-0.032-0.133-0.068-0.197-0.107c-2.636-1.611-3.535-7.579-3.629-8.254    c-0.048-0.346,0.077-0.695,0.334-0.932c0.258-0.237,0.615-0.333,0.956-0.257l11.798,2.638c0.387,0.093,0.688,0.374,0.794,0.75    c0.106,0.377-0.001,0.782-0.281,1.056C476.916,322.092,471.573,326.989,468.741,325.634z M467.31,318.519    c0.472,2.138,1.333,4.567,2.348,5.187c0.59,0.459,3.298-1.124,5.883-3.346L467.31,318.519z"/>
		<path style="fill:#DF4F3E;" d="M469.321,320.728c0,0,14.045,8.762,18.953-0.62c4.909-9.382-0.553-22.773-0.553-22.773    l-15.752,10.574l-4.467-17.621c0,0-14.933,8.455-15.244,19.87C451.947,321.574,469.321,320.728,469.321,320.728z"/>
		<path style="fill:#241726;" d="M469.16,312.335c0.56-1.447,2.186-2.167,3.634-1.608c1.447,0.559,2.167,2.186,1.607,3.634    c-0.559,1.447-2.186,2.167-3.634,1.607C469.32,315.408,468.6,313.782,469.16,312.335z"/>
		<path style="fill:#241726;" d="M458.036,313.236c0.559-1.447,2.186-2.167,3.634-1.607c1.447,0.559,2.167,2.186,1.607,3.634    c-0.56,1.447-2.186,2.167-3.634,1.607C458.196,316.31,457.476,314.683,458.036,313.236z"/>
		<path style="fill:#241726;" d="M479.583,318.554c0.56-1.447,2.186-2.167,3.634-1.608c1.447,0.56,2.167,2.186,1.608,3.634    c-0.56,1.447-2.186,2.167-3.634,1.608C479.743,321.628,479.024,320.001,479.583,318.554z"/>
		<path style="fill:#241726;" d="M460.587,300.303c0.559-1.447,2.186-2.167,3.634-1.607c1.447,0.56,2.167,2.186,1.608,3.634    c-0.56,1.447-2.186,2.167-3.634,1.607C460.747,303.377,460.027,301.751,460.587,300.303z"/>
		<path style="fill:#241726;" d="M483.79,307.672c0.56-1.447,2.186-2.167,3.634-1.608c1.447,0.56,2.167,2.186,1.607,3.634    c-0.559,1.447-2.186,2.167-3.634,1.608C483.95,310.746,483.23,309.119,483.79,307.672z"/>
		<path style="fill:#241726;" d="M472.638,339.737c-0.103-0.049-0.206-0.105-0.309-0.165c-2.264-1.332-3.391-4.921-3.352-10.666    c0.004-0.589,0.486-1.063,1.074-1.06c0.589,0.002,1.064,0.484,1.06,1.076c-0.045,6.462,1.422,8.294,2.3,8.811    c0.99,0.565,2.072,0.002,2.083-0.004c0.513-0.29,1.166-0.107,1.454,0.404c0.29,0.514,0.108,1.165-0.404,1.454    C476.46,339.633,474.584,340.668,472.638,339.737z"/>
		<path style="fill:#241726;" d="M455.891,331.476c-0.748-0.358-1.233-0.668-1.292-0.707c-0.493-0.321-0.635-0.98-0.314-1.475    c0.32-0.493,0.983-0.623,1.475-0.317c1.029,0.669,4.162,2.182,6.283,1.251c1.274-0.557,2.118-1.971,2.506-4.2    c0.101-0.581,0.654-0.969,1.235-0.868c0.58,0.102,0.969,0.654,0.868,1.235c-0.52,2.983-1.786,4.932-3.761,5.793    C460.414,333.267,457.524,332.257,455.891,331.476z"/>
		<path style="fill:#241726;" d="M469.311,300.201c-0.51-0.244-0.745-0.848-0.523-1.375c0.093-0.22,2.338-5.396,7.718-5.359    c1.361,0.009,2.517,0.495,3.437,1.445c2.264,2.334,2.187,6.735,2.182,6.921c-0.014,0.589-0.502,1.054-1.091,1.042    c-0.588-0.019-1.056-0.503-1.043-1.091c0.021-1.024-0.222-3.988-1.584-5.39c-0.513-0.526-1.139-0.789-1.917-0.792    c-3.938-0.027-5.666,3.89-5.737,4.057c-0.232,0.541-0.858,0.793-1.399,0.562C469.341,300.215,469.326,300.208,469.311,300.201z"/>
		<path style="fill:#241726;" d="M471.14,304.2c-0.465-0.223-0.713-0.757-0.561-1.266c0.168-0.566,0.762-0.887,1.327-0.718    l4.451,1.325c0.564,0.159,0.886,0.763,0.718,1.327c-0.168,0.565-0.762,0.887-1.327,0.718l-4.451-1.325    C471.243,304.245,471.19,304.224,471.14,304.2z"/>
		<path style="fill:#241726;" d="M472.256,300.063c-0.477-0.228-0.722-0.779-0.552-1.294c0.183-0.561,0.785-0.866,1.346-0.682    l5.986,1.958c0.564,0.185,0.865,0.785,0.682,1.346c-0.183,0.561-0.785,0.866-1.345,0.683l-5.986-1.958    C472.341,300.1,472.297,300.083,472.256,300.063z"/>
	</g>
	<g>
		<path style="fill:#413655;" d="M420.777,432.973l-3.904,29.57c0,0-87.56,0.234-89.607,0c-2.047-0.234-3.81-28.353-3.81-28.353    L420.777,432.973z"/>
		<path style="fill:#413655;" d="M110.377,432.973l3.904,29.57c0,0,87.56,0.234,89.607,0c2.047-0.234,3.81-28.353,3.81-28.353    L110.377,432.973z"/>
		<path style="fill:#413655;" d="M202.186,101.833c0,0-6.361,108.907,0,108.821c6.361-0.087,104.697-1.744,104.697-1.744    s8.056-110.184,0.21-113.29C299.246,92.513,202.186,101.833,202.186,101.833z"/>
		<path style="fill:#B07398;" d="M173.638,182.724c0,0,182.524-13.39,192.003,0c17.279,24.407,87.799,263.148,63.13,257.094    c0,0-322.142,18.29-336.334,0.905C78.245,423.339,127.142,186.571,173.638,182.724z"/>
		<circle style="fill:#EFEBD5;" cx="260.882" cy="312.767" r="122.906"/>
		<path style="fill:#F2C100;" d="M53.833,51.176l387.202-13.466c0,0-0.311,82.021-28.833,89.57    c-28.521,7.549-310.97,22.45-326.595,3.519C69.982,111.868,53.833,51.176,53.833,51.176z"/>
		<path style="fill:#241726;" d="M260.883,367.499c-30.328,0-55.002-24.674-55.002-55.002c0-30.328,24.674-55.001,55.002-55.001    c30.328,0,55,24.673,55,55.001C315.883,342.825,291.211,367.499,260.883,367.499z M260.883,259.632    c-29.151,0-52.867,23.716-52.867,52.866c0,29.151,23.716,52.867,52.867,52.867c29.15,0,52.866-23.716,52.866-52.867    C313.749,283.347,290.033,259.632,260.883,259.632z"/>
		<path style="fill:#241726;" d="M354.539,355.069c5.926-12.984,9.256-27.392,9.256-42.572c0-15.079-3.287-29.397-9.139-42.315    c-0.024-0.138-0.075-0.273-0.156-0.398c-0.012-0.018-0.031-0.027-0.044-0.045c-10.752-23.437-30.034-42.174-53.87-52.18    c-0.019-0.013-0.03-0.034-0.051-0.046c-0.133-0.08-0.276-0.123-0.42-0.14c-12.098-5.008-25.344-7.788-39.23-7.788    c-0.843,0-1.676,0.044-2.514,0.064c-0.05-0.007-0.094-0.029-0.146-0.029c-0.067,0-0.125,0.026-0.188,0.038    c-13.989,0.383-27.283,3.565-39.352,9.015c-0.088,0.016-0.176,0.023-0.261,0.062c-0.079,0.037-0.138,0.096-0.203,0.148    c-35.506,16.246-60.248,52.083-60.248,93.615c0,14.106,2.857,27.555,8.016,39.807c0.025,0.098,0.047,0.197,0.102,0.288    c0.007,0.012,0.021,0.016,0.029,0.028c10.223,24.053,29.355,43.423,53.22,53.998c0.059,0.043,0.108,0.096,0.177,0.128    c0.065,0.029,0.132,0.027,0.198,0.043c12.616,5.53,26.535,8.62,41.169,8.62c12.179,0,23.864-2.139,34.717-6.041    c0.047-0.008,0.094-0.007,0.142-0.022c0.045-0.014,0.078-0.047,0.12-0.067c25.967-9.414,47.08-29.003,58.546-53.919    c0.018-0.028,0.051-0.039,0.066-0.069C354.511,355.221,354.518,355.144,354.539,355.069z M332.846,382.953l-10.008-10.009    c-0.417-0.417-1.092-0.417-1.509,0s-0.417,1.092,0,1.509l10.008,10.009c-9.969,9.762-21.943,17.478-35.249,22.456l-3.796-11.928    c-0.18-0.562-0.776-0.875-1.341-0.693c-0.561,0.179-0.871,0.78-0.693,1.341l3.818,11.995c-10.401,3.64-21.564,5.643-33.192,5.643    c-0.543,0-1.078-0.033-1.619-0.041c0.006-0.046,0.027-0.086,0.027-0.133v-14.657c0-0.59-0.477-1.067-1.067-1.067    c-0.59,0-1.067,0.477-1.067,1.067v14.657c0,0.028,0.014,0.052,0.016,0.08c-12.658-0.461-24.73-3.249-35.789-7.979l4.514-10.015    c0.242-0.538,0.002-1.169-0.535-1.412c-0.54-0.239-1.169-0.001-1.412,0.535l-4.513,10.012    c-10.819-4.903-20.626-11.651-29.009-19.86l10.01-10.01c0.417-0.417,0.417-1.092,0-1.509s-1.092-0.417-1.509,0l-10.01,10.01    c-8.583-8.765-15.582-19.081-20.531-30.491l12.754-7.618c0.507-0.302,0.671-0.958,0.369-1.463    c-0.304-0.507-0.96-0.671-1.463-0.369l-12.491,7.461c-4.662-11.416-7.289-23.866-7.425-36.908h14.201    c0.59,0,1.067-0.477,1.067-1.067s-0.477-1.067-1.067-1.067h-14.201c0.131-12.549,2.574-24.547,6.911-35.606l14.488,7.225    c0.153,0.077,0.316,0.113,0.475,0.113c0.392,0,0.769-0.217,0.956-0.591c0.264-0.527,0.049-1.168-0.478-1.431l-14.653-7.308    c4.974-11.926,12.18-22.691,21.088-31.788l10.009,10.009c0.208,0.208,0.482,0.313,0.755,0.313c0.273,0,0.546-0.104,0.755-0.313    c0.417-0.417,0.417-1.092,0-1.509l-10.009-10.009c8.106-7.938,17.54-14.516,27.938-19.375l6.436,13.949    c0.18,0.391,0.567,0.62,0.97,0.62c0.149,0,0.301-0.031,0.446-0.098c0.536-0.247,0.769-0.882,0.522-1.416l-6.43-13.935    c11.347-5.012,23.78-7.986,36.845-8.464v13.529c0,0.59,0.477,1.067,1.067,1.067c0.59,0,1.067-0.477,1.067-1.067v-13.584    c0.532-0.008,1.059-0.04,1.593-0.04c13.262,0,25.921,2.6,37.529,7.276l-5.796,9.755c-0.301,0.507-0.134,1.161,0.372,1.462    c0.171,0.102,0.358,0.15,0.544,0.15c0.364,0,0.719-0.187,0.918-0.522l5.962-10.035c11.584,4.959,22.048,12.035,30.926,20.729    l-10.007,10.008c-0.417,0.417-0.417,1.092,0,1.509c0.208,0.208,0.481,0.313,0.755,0.313c0.273,0,0.546-0.104,0.755-0.313    l10.007-10.008c7.94,8.108,14.519,17.546,19.379,27.947l-10.713,6.973c-0.494,0.321-0.634,0.983-0.312,1.477    c0.204,0.314,0.546,0.485,0.895,0.485c0.199,0,0.401-0.056,0.582-0.173l10.439-6.795c5.342,12.106,8.369,25.447,8.516,39.472    h-14.198c-0.59,0-1.067,0.477-1.067,1.067s0.477,1.067,1.067,1.067h14.198c-0.148,14.128-3.221,27.56-8.636,39.737l-10.402-5.517    c-0.519-0.276-1.166-0.076-1.444,0.443c-0.276,0.521-0.077,1.167,0.443,1.443l10.52,5.58    C347.266,365.556,340.724,374.908,332.846,382.953z"/>
		<path style="fill:#DB5F7C;" d="M310.424,258.564c-1.414,1.125-26.353,21.473-41.26,33.638c-0.727-0.113-1.466-0.189-2.225-0.189    c-7.97,0-14.431,6.461-14.431,14.431c0,1.624,0.281,3.18,0.775,4.637c-9.209,4.227-20.306,9.794-20.306,9.794l19.531,20.813    c0,0,5.092-11.935,8.893-21.918c1.706,0.71,3.575,1.105,5.538,1.105c7.97,0,14.43-6.461,14.43-14.431    c0-1.454-0.22-2.855-0.62-4.178C296.042,282.798,321.297,249.91,310.424,258.564z"/>
		<path style="fill:#241726;" d="M69.645,72.882c-0.583,0-1.059-0.468-1.067-1.053c-0.008-0.589,0.463-1.074,1.053-1.082    c3.128-0.044,313.316-4.466,357.694-9.688c0.579-0.072,1.116,0.349,1.185,0.935c0.069,0.586-0.35,1.116-0.935,1.185    C383.088,68.414,72.79,72.838,69.66,72.882C69.656,72.882,69.65,72.882,69.645,72.882z"/>
		<g>
			<path style="fill:#FCFDFF;" d="M402.306,94.647c-0.284,0-0.567-0.113-0.777-0.336c-0.161-0.172-3.865-3.938-9.621-0.742     c-0.517,0.286-1.166,0.099-1.452-0.416c-0.286-0.516-0.099-1.165,0.416-1.452c7.263-4.025,12.164,1.097,12.215,1.151     c0.402,0.43,0.378,1.106-0.053,1.508C402.828,94.552,402.566,94.647,402.306,94.647z"/>
			<path style="fill:#FCFDFF;" d="M393.452,104.081c-0.284,0-0.567-0.113-0.777-0.336c-0.163-0.171-3.866-3.936-9.621-0.742     c-0.517,0.286-1.166,0.099-1.452-0.416c-0.286-0.516-0.099-1.165,0.416-1.452c7.264-4.025,12.165,1.098,12.215,1.151     c0.402,0.43,0.378,1.106-0.053,1.508C393.974,103.986,393.713,104.081,393.452,104.081z"/>
			<path style="fill:#FCFDFF;" d="M382.535,93.093c-0.284,0-0.567-0.112-0.777-0.336c-0.161-0.169-3.858-3.94-9.621-0.742     c-0.517,0.284-1.163,0.1-1.452-0.416c-0.286-0.516-0.099-1.165,0.416-1.452c7.261-4.024,12.165,1.097,12.215,1.15     c0.402,0.432,0.378,1.107-0.052,1.509C383.057,92.998,382.795,93.093,382.535,93.093z"/>
			<path style="fill:#FCFDFF;" d="M371.631,101.834c-0.284,0-0.567-0.113-0.777-0.336c-0.159-0.169-3.855-3.94-9.622-0.742     c-0.514,0.286-1.165,0.099-1.451-0.417c-0.286-0.515-0.099-1.164,0.417-1.451c7.256-4.021,12.165,1.097,12.214,1.15     c0.402,0.431,0.378,1.107-0.052,1.509C372.153,101.739,371.892,101.834,371.631,101.834z"/>
			<path style="fill:#FCFDFF;" d="M382.559,112.464c-0.284,0-0.567-0.113-0.777-0.336c-0.161-0.17-3.866-3.939-9.621-0.742     c-0.518,0.285-1.166,0.099-1.452-0.416c-0.286-0.516-0.099-1.165,0.416-1.452c7.264-4.025,12.165,1.097,12.215,1.151     c0.402,0.43,0.378,1.106-0.053,1.508C383.081,112.369,382.819,112.464,382.559,112.464z"/>
			<path style="fill:#FCFDFF;" d="M360.079,92.288c-0.284,0-0.567-0.113-0.777-0.336c-0.16-0.17-3.862-3.938-9.622-0.742     c-0.515,0.285-1.164,0.1-1.451-0.417c-0.286-0.515-0.099-1.164,0.417-1.451c7.256-4.022,12.165,1.1,12.214,1.15     c0.402,0.431,0.378,1.107-0.052,1.509C360.601,92.193,360.339,92.288,360.079,92.288z"/>
			<path style="fill:#FCFDFF;" d="M341.929,102.753c-0.28,0-0.561-0.11-0.77-0.329c-0.409-0.425-0.394-1.101,0.032-1.508     c6.255-5.993,12.125-2.547,12.184-2.512c0.504,0.306,0.665,0.962,0.36,1.466c-0.306,0.503-0.959,0.666-1.462,0.362     c-0.204-0.12-4.579-2.589-9.605,2.224C342.46,102.655,342.194,102.753,341.929,102.753z"/>
		</g>
		<g>
			<path style="fill:#FCFDFF;" d="M178.426,117.183c-0.283,0-0.567-0.113-0.777-0.336c-0.162-0.171-3.864-3.937-9.621-0.742     c-0.516,0.285-1.165,0.099-1.452-0.416c-0.285-0.516-0.099-1.165,0.416-1.452c7.263-4.027,12.166,1.099,12.215,1.151     c0.402,0.43,0.378,1.106-0.053,1.508C178.948,117.088,178.686,117.183,178.426,117.183z"/>
			<path style="fill:#FCFDFF;" d="M169.572,126.617c-0.283,0-0.567-0.113-0.777-0.336c-0.162-0.17-3.866-3.938-9.621-0.742     c-0.516,0.286-1.165,0.099-1.452-0.416c-0.286-0.516-0.099-1.165,0.416-1.452c7.264-4.027,12.165,1.099,12.215,1.151     c0.402,0.43,0.378,1.106-0.053,1.508C170.094,126.522,169.833,126.617,169.572,126.617z"/>
			<path style="fill:#FCFDFF;" d="M158.654,115.628c-0.284,0-0.567-0.113-0.778-0.336c-0.162-0.17-3.855-3.94-9.621-0.741     c-0.519,0.284-1.166,0.098-1.452-0.416c-0.286-0.516-0.099-1.165,0.416-1.452c7.262-4.022,12.165,1.098,12.215,1.148     c0.402,0.431,0.378,1.107-0.052,1.509C159.176,115.533,158.914,115.628,158.654,115.628z"/>
			<path style="fill:#FCFDFF;" d="M147.75,124.37c-0.283,0-0.567-0.113-0.777-0.336c-0.162-0.171-3.866-3.938-9.621-0.742     c-0.516,0.285-1.165,0.099-1.452-0.416c-0.286-0.516-0.099-1.165,0.416-1.452c7.263-4.028,12.164,1.098,12.215,1.151     c0.402,0.43,0.378,1.106-0.053,1.508C148.272,124.275,148.01,124.37,147.75,124.37z"/>
			<path style="fill:#FCFDFF;" d="M158.679,135c-0.283,0-0.567-0.113-0.777-0.336c-0.16-0.169-3.859-3.94-9.621-0.742     c-0.517,0.285-1.165,0.099-1.452-0.416c-0.285-0.516-0.099-1.165,0.416-1.452c7.26-4.022,12.166,1.096,12.215,1.15     c0.402,0.431,0.378,1.107-0.052,1.509C159.201,134.905,158.939,135,158.679,135z"/>
			<path style="fill:#FCFDFF;" d="M136.199,114.824c-0.283,0-0.567-0.113-0.777-0.336c-0.159-0.17-3.859-3.939-9.621-0.742     c-0.518,0.286-1.164,0.099-1.452-0.416c-0.286-0.516-0.099-1.165,0.416-1.452c7.26-4.024,12.166,1.098,12.215,1.15     c0.402,0.432,0.378,1.107-0.052,1.509C136.721,114.729,136.459,114.824,136.199,114.824z"/>
			<path style="fill:#FCFDFF;" d="M118.047,125.289c-0.28,0-0.561-0.11-0.77-0.329c-0.409-0.425-0.394-1.101,0.032-1.508     c6.254-5.992,12.127-2.545,12.185-2.512c0.503,0.305,0.665,0.962,0.359,1.466c-0.305,0.502-0.957,0.664-1.462,0.362     c-0.204-0.119-4.583-2.588-9.606,2.224C118.579,125.191,118.313,125.289,118.047,125.289z"/>
		</g>
		<path style="fill:#FCFDFF;" d="M396.847,313.565c-0.5,0-0.946-0.353-1.046-0.863c-9.388-48.019-22.257-78.653-31.398-95.895    c-9.9-18.674-17.679-26.093-17.757-26.166c-0.428-0.403-0.45-1.079-0.047-1.508c0.401-0.428,1.077-0.451,1.507-0.049    c0.324,0.303,8.047,7.646,18.1,26.567c9.236,17.383,22.231,48.261,31.69,96.643c0.113,0.578-0.264,1.138-0.843,1.252    C396.983,313.559,396.914,313.565,396.847,313.565z"/>
		<path style="fill:#FCFDFF;" d="M407.061,367.499c-0.104,0-0.211-0.016-0.316-0.048c-0.563-0.174-0.878-0.771-0.703-1.335    c0.396-1.644-2.167-16.035-4.781-28.735c-0.119-0.577,0.253-1.141,0.831-1.26c0.579-0.115,1.14,0.253,1.26,0.831    c1.307,6.35,5.511,27.269,4.729,29.796C407.938,367.205,407.516,367.499,407.061,367.499z"/>
	</g>
	<path style="fill:#241726;" d="M480.762,270.939c-0.278,0-0.556-0.108-0.765-0.323c-0.411-0.422-0.401-1.099,0.021-1.509   c0.596-0.581,1.156-1.162,1.681-1.746c0.395-0.438,1.069-0.472,1.507-0.079c0.438,0.394,0.474,1.068,0.079,1.507   c-0.555,0.617-1.147,1.234-1.779,1.848C481.298,270.839,481.03,270.939,480.762,270.939z M485.126,265.787   c-0.205,0-0.414-0.059-0.597-0.183c-0.488-0.33-0.616-0.993-0.286-1.482c0.787-1.163,1.461-2.36,2.005-3.557   c0.242-0.535,0.869-0.777,1.413-0.529c0.536,0.244,0.773,0.876,0.53,1.413c-0.593,1.305-1.327,2.607-2.18,3.87   C485.804,265.622,485.468,265.787,485.126,265.787z M488.598,258.042c-0.08,0-0.162-0.008-0.243-0.028   c-0.574-0.133-0.931-0.707-0.797-1.281c0.307-1.318,0.47-2.664,0.486-4c0.007-0.586,0.484-1.055,1.067-1.055   c0.004,0,0.008,0,0.013,0c0.59,0.007,1.062,0.491,1.055,1.08c-0.018,1.49-0.2,2.99-0.542,4.459   C489.522,257.71,489.083,258.042,488.598,258.042z M488.698,249.575c-0.496,0-0.94-0.347-1.044-0.853   c-0.266-1.293-0.674-2.592-1.213-3.859c-0.231-0.543,0.022-1.169,0.564-1.4c0.543-0.23,1.17,0.022,1.4,0.564   c0.595,1.398,1.045,2.833,1.34,4.266c0.119,0.577-0.253,1.141-0.831,1.26C488.842,249.568,488.769,249.575,488.698,249.575z    M485.408,241.755c-0.348,0-0.688-0.169-0.893-0.481c-0.738-1.125-1.584-2.213-2.515-3.234c-0.397-0.437-0.366-1.111,0.07-1.508   c0.439-0.397,1.112-0.363,1.508,0.07c1.006,1.105,1.922,2.283,2.721,3.501c0.323,0.493,0.187,1.155-0.306,1.478   C485.812,241.699,485.609,241.755,485.408,241.755z M456.843,241.597c-0.009,0-0.019,0-0.028,0c-1.693,0-2.947-0.431-3.727-1.282   c-0.398-0.435-0.369-1.11,0.066-1.508c0.436-0.397,1.11-0.369,1.508,0.066c0.35,0.383,1.02,0.575,2.179,0.59   c0.304,0,0.624-0.018,0.961-0.052c0.581-0.037,1.109,0.369,1.168,0.956c0.058,0.586-0.369,1.109-0.956,1.168   C457.603,241.576,457.212,241.597,456.843,241.597z M462.072,240.607c-0.451,0-0.871-0.289-1.016-0.741   c-0.18-0.562,0.129-1.162,0.69-1.342c1.225-0.393,2.527-0.897,3.872-1.502c0.541-0.242,1.17-0.002,1.411,0.536   c0.242,0.538,0.001,1.169-0.536,1.411c-1.418,0.637-2.796,1.17-4.095,1.587C462.29,240.59,462.18,240.607,462.072,240.607z    M469.875,237.142c-0.375,0-0.739-0.198-0.934-0.549c-0.287-0.515-0.1-1.165,0.415-1.451c1.207-0.67,2.414-1.401,3.587-2.172   c0.493-0.322,1.154-0.187,1.478,0.306c0.323,0.492,0.187,1.154-0.306,1.478c-1.217,0.799-2.47,1.558-3.723,2.253   C470.228,237.1,470.05,237.142,469.875,237.142z M453.993,236.637c-0.15,0-0.304-0.032-0.449-0.1   c-0.535-0.249-0.766-0.884-0.517-1.417c0.176-0.378,0.385-0.776,0.63-1.2c0.563-0.97,1.223-1.848,1.964-2.608   c0.412-0.422,1.087-0.428,1.509-0.019c0.422,0.411,0.431,1.086,0.019,1.509c-0.617,0.634-1.17,1.37-1.645,2.188   c-0.21,0.362-0.391,0.706-0.542,1.03C454.781,236.409,454.395,236.637,453.993,236.637z M479.686,235.458   c-0.237,0-0.474-0.078-0.672-0.239c-1.066-0.868-2.2-1.657-3.37-2.348c-0.508-0.3-0.675-0.955-0.376-1.462   c0.177-0.3,0.478-0.482,0.799-0.518c0.07-0.131,0.169-0.251,0.295-0.347c1.118-0.859,2.203-1.758,3.227-2.674   c0.438-0.392,1.114-0.358,1.507,0.083c0.393,0.439,0.355,1.113-0.083,1.507c-0.927,0.831-1.905,1.649-2.911,2.436   c0.776,0.519,1.532,1.077,2.258,1.667c0.458,0.372,0.526,1.044,0.155,1.502C480.304,235.324,479.997,235.458,479.686,235.458z    M472.353,231.147c-0.129,0-0.261-0.023-0.388-0.073c-1.308-0.51-2.619-0.886-3.9-1.116c-0.579-0.105-0.965-0.66-0.861-1.24   c0.104-0.579,0.655-0.966,1.24-0.861c1.415,0.255,2.861,0.669,4.296,1.229c0.549,0.215,0.821,0.833,0.607,1.382   C473.183,230.89,472.779,231.147,472.353,231.147z M459.874,230.716c-0.413,0-0.805-0.24-0.98-0.641   c-0.236-0.541,0.013-1.169,0.552-1.405c1.365-0.594,2.872-0.956,4.478-1.075c0.569-0.05,1.099,0.397,1.142,0.986   c0.044,0.588-0.398,1.1-0.986,1.142c-1.365,0.101-2.638,0.406-3.782,0.904C460.161,230.688,460.016,230.716,459.874,230.716z    M483.361,226.752c-0.263,0-0.525-0.096-0.732-0.291c-0.429-0.403-0.449-1.079-0.045-1.508c0.976-1.036,1.887-2.1,2.712-3.163   c0.36-0.466,1.033-0.55,1.497-0.19c0.466,0.361,0.551,1.031,0.19,1.497c-0.865,1.117-1.822,2.233-2.845,3.319   C483.928,226.64,483.645,226.752,483.361,226.752z M488.561,220.001c-0.189,0-0.379-0.05-0.552-0.154   c-0.503-0.305-0.665-0.962-0.36-1.466c0.734-1.209,1.373-2.439,1.899-3.656c0.234-0.54,0.857-0.787,1.404-0.556   c0.541,0.234,0.789,0.863,0.556,1.404c-0.566,1.306-1.25,2.622-2.032,3.915C489.274,219.817,488.921,220.001,488.561,220.001z    M491.91,212.184c-0.087,0-0.174-0.011-0.261-0.032c-0.572-0.143-0.919-0.723-0.775-1.294c0.336-1.338,0.547-2.687,0.629-4.01   c0.036-0.588,0.558-1.014,1.131-0.999c0.589,0.036,1.036,0.543,0.999,1.131c-0.091,1.455-0.322,2.934-0.69,4.398   C492.823,211.861,492.388,212.184,491.91,212.184z M492.416,203.721c-0.526,0-0.985-0.389-1.057-0.924   c-0.178-1.323-0.489-2.654-0.922-3.956c-0.187-0.56,0.116-1.164,0.674-1.35c0.564-0.186,1.163,0.116,1.35,0.674   c0.477,1.429,0.818,2.891,1.014,4.346c0.078,0.585-0.332,1.122-0.915,1.201C492.511,203.718,492.463,203.721,492.416,203.721z    M445.04,196.438c-0.969,0-1.834-0.198-2.573-0.589c-0.521-0.275-0.72-0.921-0.444-1.442c0.275-0.52,0.919-0.72,1.442-0.444   c0.805,0.425,1.975,0.449,3.393,0.076c0.562-0.152,1.153,0.19,1.304,0.76c0.15,0.57-0.19,1.154-0.76,1.304   C446.562,196.325,445.768,196.437,445.04,196.438z M489.767,195.652c-0.388,0-0.761-0.21-0.949-0.578   c-0.647-1.257-1.349-2.466-2.085-3.595c-0.323-0.494-0.184-1.155,0.309-1.477c0.494-0.321,1.156-0.184,1.477,0.31   c0.777,1.19,1.517,2.463,2.196,3.784c0.27,0.524,0.064,1.168-0.46,1.437C490.098,195.615,489.931,195.652,489.767,195.652z    M451.053,194.478c-0.374,0-0.738-0.197-0.933-0.547c-0.288-0.515-0.103-1.165,0.412-1.452c1.104-0.616,2.266-1.378,3.455-2.263   c0.473-0.355,1.141-0.254,1.493,0.218c0.352,0.473,0.254,1.142-0.218,1.493c-1.264,0.941-2.505,1.754-3.69,2.415   C451.407,194.434,451.229,194.478,451.053,194.478z M440.828,192.462c-0.513,0-0.964-0.37-1.052-0.891   c-0.084-0.509-0.126-1.014-0.126-1.514c0-1.078,0.192-2.162,0.568-3.219c0.198-0.556,0.802-0.845,1.364-0.647   c0.556,0.198,0.844,0.809,0.647,1.364c-0.295,0.827-0.445,1.67-0.445,2.502c0,0.383,0.031,0.772,0.097,1.162   c0.097,0.581-0.295,1.132-0.876,1.229C440.945,192.458,440.886,192.462,440.828,192.462z M457.924,189.425   c-0.292,0-0.583-0.119-0.793-0.353c-0.395-0.439-0.359-1.113,0.079-1.507c1.011-0.909,2.022-1.892,3.007-2.922   c0.408-0.423,1.083-0.441,1.509-0.033c0.425,0.406,0.441,1.083,0.033,1.509c-1.021,1.068-2.071,2.089-3.122,3.033   C458.434,189.334,458.179,189.425,457.924,189.425z M485.093,188.532c-0.306,0-0.61-0.13-0.821-0.383   c-0.893-1.071-1.848-2.08-2.837-2.997c-0.432-0.4-0.457-1.076-0.057-1.508c0.4-0.435,1.076-0.46,1.508-0.057   c1.057,0.979,2.075,2.054,3.027,3.195c0.377,0.453,0.316,1.126-0.137,1.504C485.576,188.45,485.334,188.532,485.093,188.532z    M443.419,184.635c-0.25,0-0.5-0.087-0.703-0.265c-0.443-0.388-0.488-1.062-0.099-1.506c0.941-1.076,2.089-2.077,3.408-2.978   c0.488-0.329,1.152-0.206,1.483,0.28c0.332,0.487,0.206,1.151-0.28,1.483c-1.17,0.798-2.182,1.68-3.006,2.621   C444.011,184.512,443.716,184.635,443.419,184.635z M463.831,183.259c-0.24,0-0.483-0.081-0.682-0.247   c-0.453-0.377-0.515-1.05-0.138-1.503c0.884-1.062,1.748-2.17,2.58-3.316c0.23-0.316,0.58-0.478,0.963-0.436   c-0.369-0.22-0.583-0.652-0.503-1.102c0.101-0.58,0.657-0.971,1.236-0.865c0.236,0.041,0.471,0.085,0.707,0.132   c-0.258-0.343-0.293-0.822-0.052-1.208c0.748-1.197,1.453-2.419,2.093-3.633c0.275-0.521,0.918-0.721,1.443-0.446   c0.521,0.275,0.721,0.92,0.446,1.442c-0.665,1.26-1.396,2.527-2.172,3.769c-0.104,0.166-0.246,0.294-0.408,0.378   c0.755,0.186,1.5,0.401,2.229,0.643c0.56,0.185,0.864,0.788,0.678,1.348c-0.184,0.56-0.792,0.869-1.348,0.678   c-1.26-0.416-2.569-0.747-3.893-0.985c0.024,0.015,0.048,0.03,0.072,0.047c0.476,0.347,0.583,1.014,0.237,1.491   c-0.844,1.161-1.741,2.314-2.667,3.427C464.441,183.128,464.137,183.259,463.831,183.259z M478.841,182.757   c-0.211,0-0.423-0.062-0.609-0.192c-1.131-0.787-2.319-1.495-3.532-2.103c-0.526-0.264-0.74-0.905-0.475-1.432   c0.264-0.527,0.906-0.739,1.432-0.475c1.304,0.653,2.582,1.413,3.795,2.26c0.484,0.337,0.602,1.002,0.266,1.485   C479.51,182.597,479.179,182.757,478.841,182.757z M450.366,179.785c-0.413,0-0.805-0.24-0.98-0.641   c-0.236-0.541,0.013-1.169,0.552-1.405c1.328-0.578,2.738-1.063,4.193-1.439c0.568-0.152,1.153,0.194,1.301,0.765   c0.148,0.571-0.195,1.153-0.765,1.301c-1.347,0.349-2.65,0.797-3.876,1.331C450.653,179.757,450.508,179.785,450.366,179.785z    M458.595,177.634c-0.538,0-1-0.404-1.06-0.952c-0.064-0.586,0.359-1.112,0.945-1.177c1.457-0.16,2.928-0.223,4.413-0.169   c0.589,0.019,1.052,0.511,1.032,1.101c-0.018,0.589-0.532,1.102-1.101,1.032c-1.384-0.045-2.755,0.01-4.113,0.158   C458.673,177.632,458.633,177.634,458.595,177.634z M472.815,168.791c-0.14,0-0.281-0.027-0.417-0.085   c-0.543-0.23-0.796-0.858-0.566-1.4c0.558-1.311,1.044-2.625,1.448-3.905c0.177-0.562,0.78-0.869,1.339-0.697   c0.562,0.178,0.874,0.777,0.697,1.339c-0.425,1.346-0.936,2.723-1.518,4.097C473.625,168.547,473.23,168.791,472.815,168.791z    M475.359,160.656c-0.068,0-0.137-0.006-0.205-0.02c-0.578-0.113-0.956-0.673-0.843-1.252c0.27-1.385,0.445-2.76,0.521-4.087   c0.033-0.59,0.558-1.036,1.126-1.005c0.589,0.033,1.039,0.538,1.005,1.126c-0.081,1.424-0.268,2.895-0.557,4.374   C476.306,160.303,475.859,160.656,475.359,160.656z M475.805,152.163c-0.54,0-1.003-0.408-1.06-0.956   c-0.144-1.375-0.407-2.718-0.782-3.995c-0.166-0.565,0.158-1.158,0.724-1.325c0.572-0.166,1.159,0.158,1.325,0.724   c0.41,1.4,0.698,2.87,0.855,4.372c0.061,0.587-0.364,1.112-0.949,1.173C475.879,152.161,475.841,152.163,475.805,152.163z    M473.401,144.023c-0.385,0-0.756-0.208-0.946-0.572l-0.206-0.389c-0.599-1.103-1.241-2.179-1.907-3.197   c-0.323-0.494-0.185-1.155,0.309-1.478c0.493-0.322,1.155-0.184,1.478,0.309c0.697,1.067,1.37,2.194,1.998,3.35l0.22,0.415   c0.274,0.522,0.072,1.167-0.45,1.44C473.737,143.985,473.568,144.023,473.401,144.023z M468.723,136.903   c-0.311,0-0.619-0.134-0.83-0.395c-0.882-1.085-1.82-2.117-2.787-3.066c-0.421-0.413-0.427-1.088-0.015-1.509   c0.412-0.421,1.089-0.429,1.509-0.015c1.025,1.005,2.018,2.097,2.949,3.245c0.371,0.458,0.302,1.129-0.156,1.501   C469.197,136.825,468.958,136.903,468.723,136.903z M462.633,130.953c-0.226,0-0.454-0.072-0.648-0.22   c-1.091-0.836-2.246-1.608-3.431-2.295c-0.511-0.295-0.685-0.948-0.389-1.458c0.295-0.512,0.947-0.688,1.458-0.389   c1.264,0.733,2.496,1.556,3.66,2.447c0.468,0.359,0.557,1.029,0.198,1.497C463.271,130.809,462.954,130.953,462.633,130.953z    M455.269,126.686c-0.138,0-0.277-0.026-0.412-0.082c-1.258-0.526-2.572-0.982-3.906-1.352c-0.568-0.159-0.9-0.746-0.743-1.314   c0.158-0.568,0.751-0.9,1.314-0.743c1.42,0.395,2.819,0.88,4.159,1.439c0.544,0.227,0.801,0.853,0.573,1.397   C456.083,126.44,455.686,126.686,455.269,126.686z M434.322,124.683c-0.477,0-0.912-0.322-1.034-0.807   c-0.145-0.571,0.201-1.151,0.771-1.296c0.07-0.017,1.725-0.431,4.406-0.634c0.587-0.032,1.1,0.396,1.144,0.984   c0.045,0.588-0.396,1.1-0.984,1.144c-2.48,0.188-4.028,0.571-4.043,0.575C434.496,124.672,434.409,124.683,434.322,124.683z    M447.064,124.398c-0.053,0-0.107-0.004-0.161-0.013c-1.355-0.206-2.744-0.337-4.129-0.389c-0.589-0.022-1.049-0.517-1.027-1.106   c0.021-0.589,0.51-1.055,1.106-1.027c1.466,0.054,2.937,0.193,4.371,0.412c0.583,0.089,0.984,0.633,0.894,1.215   C448.038,124.02,447.583,124.398,447.064,124.398z"/>
	<path style="fill:#241726;" d="M43.999,406.806c-0.013,0-0.025,0-0.037-0.001c-1.46-0.049-2.936-0.201-4.387-0.452   c-0.581-0.1-0.97-0.652-0.87-1.233c0.1-0.582,0.659-0.965,1.233-0.87c1.356,0.234,2.734,0.376,4.097,0.423   c0.589,0.02,1.051,0.514,1.03,1.103C45.045,406.351,44.571,406.806,43.999,406.806z M48.259,406.657   c-0.54,0-1.004-0.409-1.061-0.958c-0.06-0.586,0.366-1.11,0.953-1.171c1.348-0.139,2.715-0.374,4.064-0.698   c0.571-0.133,1.149,0.216,1.287,0.789c0.138,0.573-0.216,1.148-0.789,1.287c-1.439,0.346-2.901,0.597-4.343,0.746   C48.333,406.655,48.295,406.657,48.259,406.657z M35.609,405.369c-0.104,0-0.211-0.016-0.315-0.048   c-1.365-0.421-2.747-0.942-4.11-1.547c-0.538-0.24-0.781-0.87-0.542-1.409c0.241-0.535,0.869-0.78,1.409-0.542   c1.285,0.571,2.589,1.062,3.873,1.459c0.564,0.174,0.879,0.771,0.705,1.334C36.488,405.075,36.066,405.369,35.609,405.369z    M56.541,404.679c-0.432,0-0.838-0.264-1-0.692c-0.206-0.551,0.072-1.167,0.624-1.375c1.262-0.474,2.539-1.039,3.795-1.678   c0.526-0.272,1.168-0.058,1.435,0.466c0.268,0.525,0.059,1.168-0.466,1.435c-1.327,0.676-2.676,1.274-4.014,1.776   C56.793,404.657,56.666,404.679,56.541,404.679z M27.816,401.93c-0.18,0-0.363-0.046-0.531-0.142   c-1.222-0.701-2.459-1.491-3.679-2.349c-0.483-0.34-0.598-1.005-0.26-1.487c0.34-0.48,1.006-0.598,1.487-0.259   c1.167,0.821,2.349,1.576,3.514,2.245c0.511,0.294,0.688,0.945,0.394,1.457C28.546,401.738,28.186,401.93,27.816,401.93z    M64.143,400.817c-0.35,0-0.693-0.172-0.897-0.488c-0.32-0.495-0.178-1.156,0.317-1.476c1.154-0.746,2.294-1.564,3.387-2.43   c0.462-0.368,1.134-0.289,1.5,0.174c0.366,0.463,0.288,1.134-0.174,1.5c-1.147,0.908-2.343,1.766-3.554,2.549   C64.542,400.762,64.341,400.817,64.143,400.817z M20.829,397.041c-0.238,0-0.477-0.079-0.675-0.242l-0.236-0.196   c-1.064-0.888-2.072-1.828-2.99-2.791c-0.406-0.426-0.391-1.103,0.035-1.509c0.427-0.406,1.103-0.392,1.509,0.035   c0.863,0.905,1.811,1.789,2.818,2.631l0.216,0.179c0.455,0.373,0.522,1.046,0.149,1.502   C21.445,396.908,21.139,397.041,20.829,397.041z M70.832,395.516c-0.279,0-0.559-0.109-0.768-0.326   c-0.41-0.424-0.397-1.1,0.027-1.509c1.034-0.997,1.618-1.672,1.693-1.759c0.478-0.551,1.485-0.416,1.786,0.245   c0.174,0.38,0.108,0.828-0.166,1.144c-0.087,0.1-0.715,0.83-1.831,1.906C71.366,395.417,71.099,395.516,70.832,395.516z    M14.978,390.86c-0.333,0-0.661-0.155-0.869-0.446c-0.87-1.217-1.639-2.495-2.286-3.799c-0.263-0.527-0.047-1.168,0.481-1.43   c0.527-0.264,1.167-0.047,1.43,0.482c0.596,1.202,1.307,2.38,2.11,3.505c0.343,0.48,0.232,1.146-0.247,1.489   C15.41,390.795,15.193,390.86,14.978,390.86z M11.214,383.243c-0.46,0-0.884-0.299-1.022-0.762   c-0.422-1.412-0.727-2.876-0.907-4.35c-0.071-0.585,0.346-1.116,0.932-1.188c0.572-0.062,1.116,0.346,1.188,0.932   c0.164,1.354,0.444,2.698,0.832,3.996c0.169,0.565-0.152,1.159-0.717,1.328C11.417,383.228,11.315,383.243,11.214,383.243z    M10.174,374.809c-0.015,0-0.028,0-0.042-0.001c-0.589-0.022-1.049-0.518-1.026-1.107c0.054-1.437,0.22-2.914,0.492-4.389   c0.107-0.579,0.662-0.962,1.242-0.857c0.581,0.106,0.963,0.663,0.857,1.242c-0.253,1.375-0.407,2.749-0.459,4.085   C11.217,374.358,10.744,374.809,10.174,374.809z M11.692,366.435c-0.107,0-0.217-0.016-0.325-0.051   c-0.561-0.179-0.871-0.78-0.691-1.341c0.436-1.363,0.965-2.741,1.574-4.097c0.242-0.538,0.873-0.776,1.41-0.537   c0.538,0.241,0.779,0.872,0.537,1.41c-0.575,1.284-1.077,2.587-1.488,3.874C12.563,366.146,12.144,366.435,11.692,366.435z    M15.167,358.649c-0.181,0-0.364-0.046-0.533-0.143c-0.511-0.295-0.686-0.947-0.391-1.458c0.719-1.245,1.513-2.483,2.361-3.678   c0.342-0.48,1.007-0.595,1.488-0.252c0.481,0.341,0.593,1.007,0.252,1.488c-0.809,1.14-1.566,2.321-2.252,3.509   C15.894,358.457,15.536,358.649,15.167,358.649z M34.578,352.843c-0.58,0-1.057-0.465-1.067-1.048   c-0.01-0.59,0.458-1.076,1.047-1.087c1.377-0.025,2.751-0.155,4.084-0.386c0.592-0.094,1.134,0.289,1.234,0.869   c0.1,0.582-0.289,1.134-0.869,1.234c-1.441,0.249-2.924,0.39-4.41,0.417C34.591,352.843,34.585,352.843,34.578,352.843z    M30.32,352.604c-0.047,0-0.094-0.003-0.142-0.009c-1.472-0.196-2.929-0.503-4.332-0.915c-0.566-0.167-0.89-0.76-0.724-1.325   c0.167-0.565,0.758-0.886,1.325-0.724c1.3,0.381,2.649,0.667,4.013,0.848c0.585,0.078,0.995,0.614,0.917,1.199   C31.306,352.214,30.847,352.604,30.32,352.604z M20.1,351.687c-0.246,0-0.492-0.083-0.693-0.255   c-0.448-0.383-0.501-1.056-0.119-1.505c0.213-0.249,0.428-0.496,0.647-0.742c-0.71-0.401-1.403-0.833-2.073-1.293   c-0.487-0.333-0.61-0.997-0.276-1.483c0.333-0.487,0.999-0.609,1.483-0.276c0.761,0.521,1.552,1.004,2.365,1.443   c0.275-0.284,0.555-0.563,0.835-0.837c0.422-0.412,1.1-0.403,1.509,0.017c0.413,0.422,0.404,1.097-0.017,1.509   c-0.194,0.19-0.386,0.38-0.576,0.574c0.071,0.242,0.056,0.511-0.061,0.758c-0.22,0.463-0.727,0.695-1.21,0.581   c-0.341,0.373-0.675,0.753-1.003,1.136C20.7,351.56,20.401,351.687,20.1,351.687z M42.951,351.361c-0.437,0-0.847-0.27-1.004-0.706   c-0.2-0.554,0.088-1.165,0.642-1.365c1.366-0.493,2.572-1.089,3.583-1.77c0.487-0.328,1.152-0.201,1.481,0.289   c0.329,0.489,0.2,1.152-0.289,1.481c-1.157,0.78-2.52,1.455-4.052,2.007C43.193,351.341,43.07,351.361,42.951,351.361z    M49.667,346.409c-0.154,0-0.31-0.033-0.46-0.104c-0.531-0.254-0.757-0.892-0.502-1.424c0.199-0.415,0.299-0.822,0.298-1.212   c0-0.57-0.214-1.132-0.635-1.673c-0.362-0.465-0.278-1.135,0.187-1.498c0.464-0.365,1.135-0.278,1.498,0.187   c0.72,0.924,1.085,1.928,1.085,2.982c0.001,0.711-0.169,1.43-0.507,2.136C50.447,346.185,50.065,346.409,49.667,346.409z    M26.207,345.73c-0.313,0-0.621-0.136-0.833-0.398c-0.369-0.46-0.297-1.131,0.163-1.501c1.168-0.94,2.365-1.804,3.555-2.566   c0.495-0.321,1.155-0.175,1.474,0.323c0.318,0.496,0.174,1.156-0.323,1.474c-1.126,0.721-2.259,1.539-3.367,2.433   C26.678,345.653,26.442,345.73,26.207,345.73z M15.148,345.402c-0.263,0-0.525-0.096-0.732-0.29   c-1.054-0.992-2.058-2.087-2.987-3.252c-0.367-0.461-0.291-1.132,0.17-1.5c0.46-0.368,1.133-0.292,1.5,0.17   c0.865,1.086,1.801,2.104,2.781,3.027c0.429,0.404,0.449,1.08,0.046,1.509C15.715,345.289,15.432,345.402,15.148,345.402z    M33.401,341.163c-0.402,0-0.787-0.227-0.968-0.615c-0.249-0.535-0.019-1.169,0.515-1.419c1.418-0.663,2.824-1.18,4.181-1.537   c0.57-0.151,1.153,0.19,1.304,0.76c0.15,0.57-0.19,1.154-0.76,1.304c-1.233,0.325-2.519,0.798-3.821,1.408   C33.706,341.131,33.552,341.163,33.401,341.163z M45.776,339.943c-0.141,0-0.282-0.027-0.42-0.087   c-1.117-0.477-2.378-0.725-3.749-0.736c-0.589-0.004-1.063-0.486-1.059-1.076c0.004-0.589,0.476-1.013,1.076-1.059   c1.655,0.013,3.193,0.319,4.572,0.909c0.542,0.231,0.793,0.859,0.561,1.401C46.584,339.7,46.19,339.943,45.776,339.943z    M9.833,338.761c-0.361,0-0.713-0.184-0.914-0.514c-0.735-1.214-1.425-2.517-2.052-3.875c-0.247-0.535-0.014-1.169,0.522-1.416   c0.538-0.247,1.171-0.012,1.416,0.522c0.593,1.285,1.245,2.518,1.94,3.662c0.305,0.504,0.144,1.161-0.36,1.466   C10.212,338.711,10.021,338.761,9.833,338.761z M6.247,331.035c-0.444,0-0.859-0.278-1.01-0.722   c-0.487-1.424-0.882-2.849-1.176-4.236c-0.122-0.576,0.247-1.143,0.823-1.265c0.572-0.121,1.142,0.246,1.265,0.823   c0.275,1.303,0.648,2.644,1.107,3.988c0.191,0.558-0.107,1.164-0.665,1.355C6.478,331.016,6.362,331.035,6.247,331.035z    M4.511,322.699c-0.556,0-1.025-0.43-1.064-0.993c-0.045-0.659-0.067-1.308-0.067-1.947c0.001-0.846,0.039-1.675,0.113-2.487   c0.053-0.586,0.572-1.027,1.16-0.966c0.587,0.053,1.019,0.572,0.966,1.16c-0.068,0.749-0.103,1.513-0.104,2.294   c0,0.59,0.02,1.189,0.062,1.798c0.041,0.589-0.403,1.099-0.991,1.139C4.561,322.698,4.536,322.699,4.511,322.699z M5.3,314.241   c-0.092,0-0.185-0.011-0.276-0.036c-0.57-0.152-0.908-0.737-0.756-1.306c0.378-1.42,0.886-2.824,1.506-4.176   c0.247-0.538,0.881-0.772,1.415-0.525c0.536,0.246,0.771,0.88,0.525,1.415c-0.571,1.243-1.037,2.534-1.385,3.836   C6.203,313.926,5.771,314.241,5.3,314.241z M8.832,306.519c-0.204,0-0.411-0.058-0.593-0.18c-0.49-0.328-0.62-0.992-0.293-1.481   c0.805-1.201,1.722-2.37,2.727-3.476c0.398-0.437,1.073-0.467,1.507-0.073c0.437,0.396,0.469,1.07,0.073,1.507   c-0.934,1.03-1.786,2.117-2.533,3.23C9.514,306.354,9.176,306.519,8.832,306.519z M34.156,301.884   c-0.546,0-1.104-0.021-1.669-0.064c-0.588-0.045-1.029-0.556-0.984-1.144c0.045-0.589,0.562-1.028,1.144-0.984   c1.414,0.107,2.782,0.064,4.024-0.12c0.579-0.089,1.126,0.316,1.212,0.9c0.087,0.584-0.317,1.126-0.899,1.212   C36.087,301.816,35.136,301.884,34.156,301.884z M28.366,301.101c-0.093,0-0.187-0.012-0.279-0.036   c-1.462-0.395-2.87-0.924-4.185-1.573c-0.528-0.261-0.746-0.9-0.485-1.429c0.262-0.527,0.899-0.744,1.429-0.485   c1.19,0.587,2.468,1.066,3.797,1.425c0.569,0.154,0.906,0.74,0.753,1.309C29.266,300.788,28.836,301.101,28.366,301.101z    M40.869,300.39c-0.369,0-0.726-0.191-0.924-0.533c-0.296-0.51-0.122-1.163,0.389-1.458c1.161-0.672,1.824-1.516,1.97-2.509   c0.085-0.583,0.617-0.999,1.211-0.9c0.584,0.085,0.986,0.627,0.901,1.211c-0.242,1.646-1.283,3.044-3.012,4.045   C41.235,300.344,41.051,300.39,40.869,300.39z M14.532,300.205c-0.303,0-0.603-0.128-0.815-0.376   c-0.381-0.449-0.326-1.124,0.123-1.505c1.096-0.931,2.278-1.818,3.511-2.635c0.492-0.328,1.152-0.192,1.479,0.299   c0.326,0.491,0.192,1.154-0.299,1.479c-1.163,0.772-2.277,1.607-3.309,2.485C15.021,300.121,14.776,300.205,14.532,300.205z    M20.777,297.314c-0.236,0-0.473-0.078-0.671-0.239c-1.2-0.973-2.252-2.076-3.129-3.278c-0.348-0.475-0.243-1.143,0.234-1.49   c0.476-0.347,1.143-0.243,1.49,0.233c0.55,0.754,1.181,1.464,1.883,2.122c-0.109-0.466,0.106-0.964,0.55-1.192   c1.3-0.67,2.647-1.273,4.005-1.793c0.545-0.209,1.167,0.064,1.378,0.615c0.212,0.55-0.065,1.167-0.615,1.378   c-1.285,0.493-2.56,1.063-3.791,1.697c-0.189,0.098-0.399,0.139-0.59,0.114c0.392,0.381,0.436,1.006,0.084,1.438   C21.396,297.18,21.088,297.314,20.777,297.314z M41.977,293.264c-0.247,0-0.495-0.084-0.696-0.258   c-0.741-0.637-1.907-1.082-3.373-1.285c-0.584-0.08-0.991-0.619-0.91-1.204c0.08-0.584,0.614-1.003,1.204-0.91   c1.899,0.263,3.404,0.862,4.471,1.781c0.447,0.385,0.497,1.058,0.112,1.505C42.575,293.138,42.276,293.264,41.977,293.264z    M29.59,292.448c-0.477,0-0.912-0.322-1.034-0.807c-0.144-0.571,0.202-1.152,0.774-1.296c1.499-0.377,2.965-0.639,4.358-0.776   c0.617-0.049,1.11,0.371,1.167,0.957c0.058,0.587-0.37,1.109-0.957,1.167c-1.289,0.127-2.65,0.37-4.047,0.722   C29.764,292.438,29.677,292.448,29.59,292.448z M15.832,290.489c-0.434,0-0.841-0.266-1.001-0.696   c-0.513-1.381-0.854-2.864-1.014-4.406c-0.06-0.587,0.366-1.111,0.952-1.172c0.587-0.054,1.111,0.366,1.173,0.951   c0.141,1.364,0.441,2.671,0.891,3.884c0.205,0.552-0.076,1.166-0.629,1.372C16.081,290.468,15.955,290.489,15.832,290.489z    M14.861,282.083c-0.023,0-0.046-0.001-0.069-0.002c-0.589-0.038-1.035-0.545-0.997-1.133c0.096-1.494,0.265-2.957,0.502-4.347   c0.099-0.579,0.639-0.965,1.232-0.871c0.58,0.099,0.971,0.65,0.871,1.232c-0.225,1.315-0.385,2.702-0.475,4.122   C15.889,281.649,15.42,282.083,14.861,282.083z M16.328,273.702c-0.103,0-0.208-0.015-0.314-0.047   c-0.563-0.173-0.88-0.77-0.707-1.334c0.443-1.442,0.984-2.829,1.608-4.12c0.256-0.527,0.894-0.751,1.426-0.496   c0.531,0.256,0.753,0.895,0.496,1.426c-0.577,1.193-1.078,2.477-1.489,3.818C17.208,273.407,16.784,273.702,16.328,273.702z    M20.052,266.069c-0.217,0-0.435-0.066-0.623-0.202c-0.478-0.345-0.586-1.012-0.241-1.489c0.881-1.221,1.873-2.35,2.947-3.357   c0.431-0.399,1.106-0.379,1.509,0.05c0.402,0.43,0.38,1.106-0.05,1.509c-0.974,0.912-1.875,1.938-2.676,3.046   C20.709,265.916,20.383,266.069,20.052,266.069z M26.258,260.286c-0.361,0-0.712-0.182-0.913-0.513   c-0.306-0.503-0.146-1.16,0.358-1.466c2.342-1.425,4.114-1.87,4.188-1.887c0.564-0.15,1.147,0.206,1.288,0.779   c0.143,0.571-0.206,1.15-0.776,1.293c-0.016,0.003-1.551,0.398-3.59,1.639C26.639,260.236,26.447,260.286,26.258,260.286z"/>
</g>
<g>
</g>
<g>
</g>
<g>
</g>
<g>
</g>
<g>
</g>
<g>
</g>
<g>
</g>
<g>
</g>
<g>
</g>
<g>
</g>
<g>
</g>
<g>
</g>
<g>
</g>
<g>
</g>
<g>
</g>
</svg>
