<svg id="Toys" height="512" viewBox="-70.866 -70.866 850.394 850.394" width="512" xmlns="http://www.w3.org/2000/svg"><g><path d="m767.605 374.835c-2.664-26.684-12.906-52.574-30.453-76.973-21.516-30.594-51.02-39.156-75.574-59.293-43.02-45.59-44.461-110.414-117.105-141.906-102.477-46.809-232.887 1.871-325.395 40.914-26.199-25.063-46.844-49.586-86.214-64.984-51.114-16.664-130.184-1.059-147.282 56.363-16.355 46.727 28.438 84.945 45.18 124.301-23.492 28.648-36.777 60.437-39.648 94.801-3.785 2.598-7.477 5.273-11.055 8.016-11.305 8.664-45.703 35.023-39.484 78.531 13.418 73.391 126.988 88.703 180.336 71.738 7.93 4 15.941 7.766 24.016 11.277-7.332 27.746-1.914 54.355 16.456 75.707 72.637 66.504 202.161 59.215 283.364 14.793 10.574-5.715 34.93-20.125 57.387-42.32 122.85-.539 282.295-42.656 265.471-190.965z" fill="#fff"/><g><path d="m729.523 378.632c-2.129-21.371-11.027-41.172-23.434-58.418-17.996-25-48.152-33.18-70.285-53.352-45.184-41.16-45.684-108.375-106.711-135.16-97.789-42.91-217.844 9.574-308.852 46.75-4.066 1.66-8.227 3.383-12.43 5.137-9.855-13.902-22.738-26.262-35.023-37.707-15.241-14.203-32.616-30.148-52.628-37.191-22.816-8.027-53.566-3.738-75.113 6.176-23.922 11.004-31.207 36.555-17.313 58.637 15.043 23.906 33.727 49.055 42.789 76.617 3.805 11.582.883 14.395-8.027 24.844-21.629 25.352-35.082 55.824-33.594 93.043.02.488.121.914.191 1.371-8.93 5.109-17.539 10.777-25.762 17.07-13.625 10.441-27.566 23.922-24.875 42.75 2.57 18.008 22.004 27.469 37.066 33.934 15.207 6.531 31.309 10.223 47.828 11.273 20.344 1.289 41.711-1.895 61.113-9.527.203.125.363.277.578.398 23.051 12.641 47.394 23.285 72.472 31.387-15.504 20.957-26.402 49.297-7.133 71.695 9.234 10.723 23.586 16.137 36.477 21.031 12.875 4.895 26.211 8.504 39.77 10.879 54.309 9.5 111.368.441 159.911-25.809 18.766-10.148 41.738-26.676 58.508-46.43 97.602-2.301 257.782-15.894 244.477-149.398z" fill="#68182b"/><path d="m570.332 197.108c8.055 14.645 14.543 30.723 21.523 44.137 5.523 10.602 11.984 20.297 19.398 29.281 6.613 7.996 7.992 9.969-4.133 15.973-21.223 10.52-44.578 16.645-68.137 19.234-46.039 5.07-74.391-13.633-90.211-56.164-5.094-13.684-8.734-28.383-9.195-42.988-.93-29.34 19.168-24.063 36.5-24.047 25.59.012 52.082-.188 77.605 3.184 8.083 1.074 12.287 3.472 16.65 11.39z" fill="#ff2e60"/><path d="m64.024 191.386c-3.844-6.34-7.797-12.625-11.805-18.867-3.125-4.871-7.191-9.746-9.359-15.16-3.336-8.297-.852-16.098 6.609-20.996 16.289-10.676 44.805-13.656 63.281-7.93 15.801 4.906 30.07 18.621 42.012 29.492 8.269 7.535 16.991 15.512 24.788 24.121 7.188 7.922 3.941 11.922-6.387 16.742-23.886 11.133-48.112 24.047-69.722 39.434-10.738 7.664-11.41 8.563-15.898-2.551-6.273-15.547-15.082-30.363-23.519-44.285z" fill="#ffc522"/><path d="m78.844 453.397c-25.27 1.305-52.215-4.629-73.098-19.426-16.801-11.906 4.91-27.152 15.305-34.563 12.992-9.254 26.961-16.934 41.563-23.301 20.625-7.527 40.914-.438 60.758 6.148 8.371 2.781 18.988 5.789 25.016 11.84 9.859 9.902 9.41 20.922.098 31.02-16.908 18.349-45.412 27.036-69.642 28.282z" fill="#ff7a0d"/><path d="m485.234 486.054c-5.25 19.594-21.305 38.18-47.027 56.363-38.527 27.238-85.566 41.207-132.668 40.5-26.18-.387-52.258-5.41-76.571-15.227-12.168-4.91-26.113-10.684-27.578-25.465-1.465-14.855 8.141-27.906 17.328-38.516 17.977-20.242 38.063-38.746 59.941-54.711 9.418-6.875 19.242-14.52 29.938-19.309 8.691-3.887 18.098-6.551 27.359-8.668 19.785-4.527 39.848-.855 59.719 1.75 19.973 2.609 41.824 4.957 60.613 12.688 19.649 8.091 34.681 29.169 28.946 50.595z" fill="#ff7a0d"/><path d="m656.566 477.491c-9.484 5.461-12.418 2.008-14.066-12.145-5.156-44.184-.25-91.184 20.652-130.367 7.594-14.25 13.145-15.18 21.93-6.371 2.691 2.695 5.242 5.656 7.613 8.949 35.5 49.329 12.816 111.727-36.129 139.934z" fill="#dda96b"/><path d="m662.594 311.679c-9-5.496-18.301-10.594-26.996-17.137-37.051 24.594-85.094 36.398-129.16 31.699-45.461-4.859-69.039-38.215-80.793-79.563-7.133-25.102-15.867-82.598 25.086-84.785 30.059-1.602 61.504-1.563 91.949 1.504-15.859-11.785-35.086-18.484-54.488-22.121-86.949-16.309-183.375 24.598-262.34 57.52-70.347 29.324-172.53 72.43-175.847 160.02 9.004-4.012 18.043-6.598 27-7.195 8.324-.555 16.77.195 24.41 2.215 16.484 4.363 33.273 8.996 48.73 16.32 12.604 5.965 23.46 17.852 26.3 31.766 3.477 17.031-6.043 32.77-18.69 43.426-3.305 2.781-6.785 5.348-10.395 7.727 20.983 10.699 42.831 19.648 65.433 26.273 21.621-22.762 45.855-43.102 72.137-60.246 20.415-13.316 48.54-23.133 73.188-21.551 25.742 1.66 51.922 5.309 77.203 10.414 23.34 4.723 43.723 12.203 59.113 31.457 17.996 22.512 16.375 45.926 5.242 67.258 43.613-.863 92.602-2.762 133.598-18.328-11.083-59.087-6.098-126.404 29.32-176.673zm-301.684 7.371c-31.805 17.441-77.118 22.313-112.364 28.707-18.766 3.406-41.641 9.789-55.965-7.668-13.273-16.188-21.219-44.68-15.035-66.918 6.844-24.563 23.645-27.418 40.789-34.211 31.754-12.578 64.57-25.188 97.528-32.414 19.543-4.285 40.977-.949 54.793 15.016 25.586 29.558 27.82 76.886-9.746 97.488z" fill="#ffc522"/><path d="m361.301 292.866c-11.582 14.648-42.418 17.645-59.407 21.969-22.887 5.82-46.113 10.25-69.34 14.465-21.875 3.969-30.109-6.047-34.781-26.27-2.844-12.305-1.664-30.816 10.57-37.508 37.113-14.594 74.816-27.547 113.122-38.633 35.57-10.304 60.921 39.313 39.836 65.977z" fill="#00ebed"/><path d="m456.289 435.46c-1.07-.434-2.168-.797-3.258-1.207 5.711 6.828 10.766 14.16 13.918 23.605 8.941 26.844-7.082 47.789-25.59 65.035-31.617 29.445-75.156 46.715-117.988 49.387-26.696 1.66-100.012-2.672-121.989-31.027.02.328-.023.645.008.973 1.465 14.781 15.41 20.555 27.578 25.465 24.313 9.816 50.391 14.84 76.571 15.227 47.102.707 94.141-13.262 132.668-40.5 25.723-18.184 41.777-36.77 47.027-56.363 5.735-21.427-9.297-42.505-28.945-50.595z" fill="#ef6200"/><path d="m148.387 394.097c-.16-.16-.352-.289-.516-.449 2.406 14.445-5.688 25.559-21.395 35.176-16.691 10.215-35.934 15.82-55.34 17.129-15.781 1.07-31.93-2.066-47.094-6.137-7.48-2.004-14.453-5.398-21.48-8.691.871.961 1.871 1.918 3.184 2.848 20.883 14.797 47.828 20.73 73.098 19.426 24.23-1.246 52.734-9.934 69.641-28.281 9.312-10.099 9.761-21.119-.098-31.021z" fill="#ef6200"/><path d="m402.57 444.78c-9.578-1.461-22.18-3.156-32.543-4.414-18.594-2.262-37.184-.813-57.27 9.914-26.512 14.164-52.543 38.156-68.172 55.375-21.688 23.875-6.117 27.133 29.367 16.684 41.344-12.168 99.172-33.848 126.274-45.41 36.071-15.387 34.586-27.239 2.344-32.149z" fill="#ffb85a"/><path d="m109.727 390.687c-17.773-5.375-39.25-4.328-55.023 2.766-1.633.738-9.043 4.355-15.965 9.016-33.844 22.75-1.891 25.82 14.773 25.848 16.445.012 34.742-5.07 50.004-9.32 30.867-8.631 32.379-20.424 6.211-28.31z" fill="#ffb85a"/><path d="m698.511 434.425c-.785.77-1.512 1.613-2.32 2.367-9.336 8.676-22.992 16.043-34.734 6.109-7.086-6.004-7.809-19.742-8.469-28.055-2.164-27.184.258-54.922 10.262-80.035-.031.063-.066.105-.098.168-20.902 39.184-25.809 86.184-20.652 130.367 1.648 14.152 4.582 17.605 14.066 12.145 18.141-10.457 32.649-25.625 41.945-43.066z" fill="#c48d51"/><path d="m671.511 355.147c-1.313 8.625-1.871 17.473-2.406 25.844-.574 8.934-3.305 32.215 6.313 38.332 11.348 7.211 19.402-12.023 22.012-19.73 5.539-16.352.988-31.883-7.918-45.313-6.754-10.183-14.79-20.328-18.001.867z" fill="#f4c38e"/><path d="m602.957 259.335c-1.484 8.824-5.281 16.504-14.172 22.266-8.902 5.762-21.629 6.91-31.887 8.371-24.027 3.434-48.203 5.941-70.215-6.367-16.465-9.203-25.684-27.184-31.305-44.383-3.172-9.715-5.262-19.875-6.066-30.059-1.031-13.09 5.402-21.496 14.688-26.98-13.367-.258-25.141 1.793-24.422 24.398.461 14.605 4.102 29.305 9.195 42.988 15.82 42.531 44.172 61.234 90.211 56.164 23.559-2.59 46.914-8.715 68.137-19.234 12.125-6.004 10.746-7.977 4.133-15.973-2.957-3.578-5.649-7.371-8.297-11.191z" fill="#ea0f4d"/><path d="m534.547 198.538c-12.859-.227-25.641-.824-38.57-2.207-5.68-.609-15.363-1.301-19.113 4.473-9.086 14.004.98 34.859 16.148 40.172 18.316 6.426 47.012 8.492 65.254 1 11.441-4.699 6.004-19.133-.027-30.426-6.653-12.453-8.755-12.762-23.692-13.012z" fill="#f69"/><path d="m362.383 245.628c1.844 5.934 2.953 12 2.973 18.656.047 19.816-16.52 29.059-32.664 34.469-19.379 6.5-39.915 11.695-59.754 16.551-20.758 5.082-53.98 15.063-67.559-6.703-6.488-10.387-6.645-24.211-3.73-36.773-5.809 8.602-6.066 21.719-3.875 31.203 4.672 20.223 12.906 30.238 34.781 26.27 23.227-4.215 46.453-8.645 69.34-14.465 16.989-4.324 47.825-7.32 59.407-21.969 10.639-13.454 9.432-32.735 1.081-47.239z" fill="#19bfbb"/><path d="m317.523 238.226c-22.004 4.359-71.559 19.656-94.223 31.512-17.113 8.957-7.969 26.051 6.453 24.145 22.168-2.941 80.176-16.402 98.008-22.5 16.004-5.469 20.73-18.938 13.961-28.375-4.461-6.204-11.316-7.345-24.199-4.782z" fill="#6cfffb"/><g fill="#ffa222"><path d="m457.988 304.718c-15.59-14.527-25.805-35.035-32.344-58.039-7.133-25.102-15.867-82.598 25.086-84.785 27.336-1.457 55.781-1.43 83.617.871-11.488-5.164-28.297-4.867-39.785-5.895-18.27-1.621-43.031-4.941-59.953 3.344-41.859 20.488-15.109 95.203 3.422 123.398 5.668 8.621 12.477 15.602 19.957 21.106z"/><path d="m356.574 203.081c-18.637-8.313-40.473-3.754-59.239 1.395-25.98 7.125-51.465 16.535-76.48 26.473-14.645 5.82-36.332 12.586-42.688 28.379-6.75 16.762-6.973 41.691 2.453 58.957-5.207-14.402-6.996-31.008-3.074-45.113 6.844-24.563 23.645-27.418 40.789-34.211 31.754-12.578 64.57-25.188 97.528-32.414 19.543-4.285 40.977-.949 54.793 15.016 16.918 19.547 23.531 46.836 15.273 69.059 15.497-29.752 4.239-72.564-29.355-87.541z"/><path d="m633.074 360.011c-6.191 16.965-9.242 35.047-11.637 52.879-1.43 10.645-2.199 21.371-2.801 32.082-.711 12.625 3.902 33.559-12.219 38.016-15.207 4.207-31.637 5.695-47.344 6.168-26.586.801-30.996-25.754-43.738-43.676-25.066-35.258-64.484-46.48-105.359-52.781-36.328-5.598-75.688-7.961-110.231 7.055-16.309 7.098-30.848 16.57-44.285 28.168-7.992 6.895-15.918 13.867-23.906 20.754-8.305 7.16-16.703 16.297-29.895 13.648-7.613-1.531-28-9.645-22.41-22.191 14.012-31.441 9.133-60.227-22.737-76.574-19.293-9.895-52.363-18.043-77.281-11.996 7.602-.297 15.223.434 22.184 2.273 16.484 4.363 33.273 8.996 48.73 16.32 12.604 5.965 23.46 17.852 26.3 31.766 3.477 17.031-6.043 32.77-18.69 43.426-3.305 2.781-6.785 5.348-10.395 7.727 20.983 10.699 42.831 19.648 65.433 26.273 21.621-22.762 45.855-43.102 72.137-60.246 20.415-13.316 48.54-23.133 73.188-21.551 25.742 1.66 51.922 5.309 77.203 10.414 23.34 4.723 43.723 12.203 59.113 31.457 17.996 22.512 16.375 45.926 5.242 67.258 43.613-.863 92.602-2.762 133.598-18.328-10.316-55.027-6.68-117.172 22.477-166.059-10.818 9.413-17.708 24.093-22.677 37.718z"/><path d="m52.219 172.519c4.008 6.242 7.961 12.527 11.805 18.867 8.438 13.922 17.246 28.738 23.52 44.285 4.488 11.113 5.16 10.215 15.898 2.551 21.609-15.387 45.836-28.301 69.722-39.434 10.328-4.82 13.574-8.82 6.387-16.742-4.16-4.59-8.582-8.98-13.051-13.238.938 2.969 1.742 5.988 2.063 9.23 1.141 11.383-16.491 20.637-24.87 25.535-17.324 10.125-42.188 22.406-58.918 5.504-13.816-13.961-22.391-38.938-40.492-48.805 2.26 4.27 5.385 8.274 7.936 12.247z"/></g><path d="m88.442 137.28c-20.102 2.023-14.391 11.148-3.207 24.027 13.02 14.996 27.734 36.137 36.492 35.297 5.211-.5 14.801-6.602 22.809-10.254 11.516-5.262 9.211-11.828 2.426-20.277-2.555-3.176-5.68-6.551-9.082-9.82-13.958-13.383-29.493-20.988-49.438-18.973z" fill="#fbe134"/><path d="m635.597 294.542c-37.051 24.594-85.094 36.398-129.16 31.699-.309-.035-.586-.102-.895-.133 12.121 3.316 24.855 4.805 36.563 5.055 18.73.402 36.789-3.348 54.383-9.523 12.824-4.504 25.004-10.539 38.063-14.363 5.359-1.57 10.809-2.32 16.309-2.645-5.169-3.125-10.317-6.367-15.263-10.09z" fill="#fbe134"/><path d="m122.317 261.647c43.14-28.879 93.214-50.004 140.995-69.789 42.926-17.762 86.801-31.957 132.227-41.703 24.141-5.176 48.609-8.473 73.281-9.559 4.496-.199 8.992-.227 13.48-.184-85.402-13.461-179.258 26.199-256.45 58.383-66.85 27.868-162.401 68.22-174.576 147.341 16.996-34.129 38.05-62.407 71.043-84.489z" fill="#fbe134"/><path d="m360.91 319.05c-31.805 17.441-77.118 22.313-112.364 28.707-18.766 3.406-41.641 9.789-55.965-7.668-3.148-3.844-5.969-8.418-8.41-13.398 1.516 10.453 5.609 20.063 15.359 25.945 12.695 7.656 30.93 3.539 44.48 1.055 39.059-7.152 89.407-9.66 120.887-37.168-1.303.859-2.561 1.749-3.987 2.527z" fill="#fbe134"/></g></g></svg>