<svg id="Travel" height="512" viewBox="-70.866 -70.866 850.394 850.394" width="512" xmlns="http://www.w3.org/2000/svg"><g><path d="m583.35 275.267c-2.711-26.5-3.824-55.402-24.039-82.637-15.836-20.906-37.988-30.473-58.688-35.574 1.918-29.34.855-56.906-3.219-83.328 4.215-6.371 7.438-13.48 9.574-21.18 16.102-62.984-37.016-98.961-93.539-106.02-56.781-12.949-114.949-6.813-169.5 16.348-36.313 18.316-52.18 61.949-36.121 99.332 1.254 2.918 2.668 5.719 4.234 8.398-4.5 27.473-5.723 56.211-3.684 86.883-61.531 8.953-78.547 66.066-80.41 94.859-10.379 90.531-9.789 170.153-6.086 259.18 5.609 62.102 2.445 151.559 62.555 187.82 1.297 36.066 33.852 70.508 72.039 69.387 30.02.785 58.305-21.93 66.988-49.887 12.961.348 24.98.52 36.492.52 11.363 0 22.219-.164 32.703-.5 1.871 5.504 4.43 11.074 7.914 16.48 13.496 20.93 35.648 33.418 59.273 33.418 38.629 1.398 72.07-35.504 72.176-70.789 0 0 .336-2.848.406-3.461 45.473-36.852 45.875-98.211 51.887-151.984 6.409-78.909 7.053-185.401-.955-267.265zm-213.89-130.484c-9.973-.113-20-.078-29.945.098-.855-17.98-.168-35.16 2.059-51.402 9.008-1.402 16.926-1.668 25.758-.48 2.272 16.354 2.979 33.655 2.128 51.784z" fill="#fff"/><g><path d="m550.155 360.564c-.754-27.153-2.07-54.336-4.871-81.364-2.203-21.289-3.078-45.773-16.48-63.465-15.266-20.156-43.23-23.309-66.656-26.523-1.188-.168-2.387-.266-3.578-.422.27-.602.465-1.242.559-1.926 5.645-41.047 6.117-82.641-2.457-123.332-.125-.586-.324-1.094-.508-1.609 6.426-4.285 11.48-10.73 13.941-19.609 5.488-19.777-5.207-38.898-23.43-46.848-12.934-5.648-26.98-8.648-40.762-11.418-16.691-3.348-33.949-6.375-51.02-6.367-17.148.004-34.492 3.145-51.23 6.625-14.289 2.965-29.359 6.109-42.488 12.734-18.172 9.168-26.254 31.297-18.195 50.059 2.559 5.953 6.16 10.328 10.359 13.613-.434.836-.813 1.746-1.039 2.82-8.578 40.691-8.105 82.285-2.457 123.332.109.797.371 1.523.711 2.207-16.266 1.98-32.508 4.773-47.953 9.613-26.848 8.41-33.438 34.125-36.707 58.703-3.234 24.324-4.906 48.848-6.074 73.348-2.84 59.532-2.742 119.348.273 178.864 1.277 25.227 3.105 50.461 6.523 75.496 2.328 17.039 5.633 33.051 12.281 48.93 5.602 13.387 12.055 27.68 26.66 32.82 4.766 1.676 9.695 2.949 14.672 4.004.297 6.043.867 12.086 1.547 18.074.859 7.594 1.371 15.02 4.457 22.063 4.121 9.398 12.637 15.977 22.48 18.496 11.801 3.02 23.859-1.027 31.609-10.48 9.355-11.418 10.313-25.688 9.813-39.828 8.199.473 16.398.863 24.594 1.133 36.793 1.199 74.348 1.313 111.461-1.563-.484 12.164-.258 25.328 6.539 35.867 7.152 11.094 19.352 17.891 32.648 15.363 9.559-1.813 18.105-7.367 23.109-15.793 4.172-7.047 4.773-14.461 5.723-22.398.914-7.613 1.746-15.324 1.977-23.012 2.703-.719 5.387-1.504 8.016-2.457.527-.191.984-.449 1.445-.695.359-.125.711-.203 1.074-.367 13.926-6.363 20.387-24.516 25.371-37.816 2.523-6.73 4.25-13.672 5.664-20.711 4.441-22.125 6.617-44.766 8.402-67.23 4.735-59.446 5.649-119.333 3.997-178.931zm-145.707-179.309c-.133.969-.059 1.918-.012 2.867-10.496-.5-20.996-.875-31.496-1.027-22.793-.332-45.625.078-68.398 1.344.066-1.047.125-2.102-.023-3.184-5.098-37.059-5.281-75.418 2.457-112.121.582-2.754.125-5.148-.926-7.145 17.898-4.469 36.145-8.668 54.473-7.945 14.336.57 28.641 3.754 42.758 7.305-1.316 2.109-1.938 4.734-1.289 7.785 7.737 36.703 7.558 75.063 2.456 112.121z" fill="#68182b"/><path d="m265.171 704.314c.883-1.246 1.656-2.73 2.219-4.461 2.602-7.973 1.695-20.141 1.602-22.25-9.191-.816-18.355-1.891-27.484-3.203.684 7.199 1.309 16.02 2.371 22.32.633 3.785 1.531 6.789 3.441 8.953 4.593 5.22 12.788 5.845 17.851-1.359z" fill="#ffc522"/><path d="m471.858 699.936c2.426-7.375 2.891-24.57 3.051-26.957-9.137 1.496-18.332 2.742-27.582 3.77 0 .047-1.336 17.988 2.891 26.016 5.144 9.796 17.882 8.596 21.64-2.829z" fill="#ffc522"/><path d="m485.561 649.799c-13.223 3.191-27.078 4.543-40.43 5.84-27.129 2.641-54.426 3.766-81.676 4.07-28 .309-56.043-.277-83.973-2.328-17.004-1.246-34.32-2.742-51.094-6.309-4.125-.875-8.215-1.879-12.258-3.031-9.648-2.742-11.773-7.094-19.023-24.785-.5-1.219-.875-2.453-1.328-3.672 37.738 12.109 78.617 15.715 117.855 17.461 48.02 2.141 96.422.48 144.148-5.301 18.027-2.18 36.035-4.961 53.762-8.977-1.754 5.215-3.98 11.211-7.078 16.07-5.651 8.888-10.018 8.833-18.905 10.962z" fill="#dda96b"/><path d="m261.565 26.775c3.336-12.207 18.531-15.047 29.262-17.844 12.328-3.211 24.852-5.801 37.441-7.77 26.742-4.188 52.43-1.09 78.727 4.625 11.441 2.484 25.863 4.629 35.766 11.285 6.809 4.582 9.586 13.891 6.406 21.543-3.27 7.863-10.25 9.684-18 8.035-30.516-7.328-60.719-16.293-92.348-12.305-17.855 2.246-35.238 6.598-52.691 10.855-6.207 1.508-13.305 4.113-19.031-.066-5.622-4.104-7.294-11.917-5.532-18.358z" fill="#ff2e60"/><path d="m439.108 186.537c-4.707-.457-9.426-.793-14.141-1.148 5.336-39.637 5.762-79.754-2.129-119.066.902.223 1.813.453 2.719.672.844.203 1.652.301 2.426.32 2.781.449 5.508.629 8.203.574.047.418.047.82.141 1.246 7.738 36.703 7.563 75.063 2.457 112.121-.25 1.82-.066 3.593.324 5.281z" fill="#ffc522"/><path d="m284.057 185.861c-1.973.16-3.953.266-5.926.438-2.785.242-5.59.492-8.402.758.496-1.832.727-3.785.449-5.801-5.094-37.059-5.273-75.418 2.461-112.121.105-.492.113-.961.156-1.438 4.285.258 8.734-.086 13.25-.953-7.824 39.339-7.359 79.476-1.988 119.117z" fill="#ffc522"/><path d="m246.725 351.185c.172-13.68.422-27.371 1.195-41.027.176-3.172.133-6.652 1.777-9.465 2.828-4.84 9.941-6.555 15.117-5.637 3.637.645 8.652 2.84 10.316 6.367 1.23 2.609.898 6.289 1.023 9.145 1.492 33.301 1.367 66.715 1.074 100.043-.375 42.93-1.309 85.922-4.191 128.77-1.387 20.703-20.016 24.18-22.242 2.273-.547-5.391-.41-11-.691-16.121-1.055-19.211-1.777-38.438-2.32-57.672-1.101-38.871-1.562-77.785-1.058-116.676z" fill="#ff7a0d"/><path d="m337.171 351.185c.172-13.68.426-27.371 1.195-41.027.18-3.172.133-6.652 1.781-9.465 2.828-4.84 9.938-6.555 15.113-5.637 3.633.645 8.648 2.84 10.316 6.367 1.234 2.609.898 6.289 1.027 9.145 1.484 33.301 1.359 66.715 1.07 100.043-.391 44.848-1.391 89.773-4.582 134.523-2.254 17.832-19.875 16.195-21.602-1.352-.598-6.051-.621-12.449-.941-18.25-1.055-19.211-1.773-38.438-2.32-57.672-1.096-38.87-1.561-77.784-1.057-116.675z" fill="#ff7a0d"/><path d="m527.503 322.345c-1.238-22.504-2.82-45.129-6.434-67.387-1.461-9.031-2.832-17.586-8.105-25.301-6.492-9.504-16.383-12.238-26.969-14.793-23.406-5.633-47.672-7.723-71.652-9.168-30.215-1.82-60.551-2.063-90.809-1.02-27.734.961-55.625 2.781-83.039 7.25-10.414 1.695-20.863 3.691-30.98 6.711-10.555 3.148-17.238 12.391-19.84 22.852-4.738 19.086-5.578 39.715-6.988 59.254-1.941 26.949-2.926 53.969-3.398 80.981-.973 55.047-.168 110.336 4.332 165.223 1.191 14.457 2.508 29 4.875 43.348 2.176 13.152 5.469 15.645 16.273 18.789 15.742 4.566 31.945 7.633 48.145 9.938 47.137 6.73 95.34 7.406 142.84 5.168 34.168-1.602 68.793-4.52 102.438-11.41 12.762-2.617 18.473-6.176 20.621-18.5 1.477-8.465 2.504-17.016 3.461-25.426 2.84-24.984 4.469-50.098 5.609-75.207 2.588-57.02 2.76-114.301-.38-171.302zm-237.594 85.469c-.363 45.781-1.352 91.641-4.609 137.32-1.629 12.949-9.844 25.773-24.367 24.793-10.242-.691-19.582-7.969-21.832-21.102-1.859-10.824-1.637-22.371-2.172-33.328-.609-12.469-1.094-24.949-1.492-37.434-1.418-44.258-2.004-88.582-1.285-132.86.133-8.145.316-16.285.625-24.426.266-7.094-.164-15.184 2.023-21.984 6.836-21.254 43.328-22.355 50.574-.805 2.176 6.484 1.551 14.535 1.773 21.324.285 8.488.461 16.973.59 25.465.32 21.01.336 42.026.172 63.037zm90.445 0c-.359 45.781-1.352 91.641-4.605 137.32-1.637 12.949-9.844 25.773-24.371 24.793-5.746-.391-12.449-1.984-16.066-6.777-3.031-4.012-4.922-9.398-5.766-14.324-1.859-10.824-1.633-22.371-2.168-33.328-.613-12.469-1.094-24.949-1.496-37.434-1.414-44.258-2.004-88.582-1.281-132.86.129-8.145.32-16.285.621-24.426.266-7.094-.16-15.184 2.023-21.984 6.836-21.254 43.328-22.355 50.574-.805 2.18 6.484 1.547 14.535 1.777 21.324.277 8.488.457 16.973.59 25.465.313 21.009.336 42.025.168 63.036zm90.449 0c-.363 45.781-1.352 91.641-4.609 137.32-1.633 12.949-9.84 25.773-24.371 24.793-16.629-1.129-20.453-6.91-22.629-26.844-1-9.102-.93-18.539-1.371-27.586-.613-12.469-1.094-24.949-1.496-37.434-1.418-44.258-2.004-88.582-1.277-132.86.129-8.145.316-16.285.617-24.426.266-7.094-.164-15.184 2.023-21.984 6.836-21.254 43.328-22.355 50.574-.805 2.18 6.484 1.555 14.535 1.781 21.324.281 8.488.453 16.973.586 25.465.317 21.01.337 42.026.172 63.037z" fill="#ff2e60"/><path d="m427.612 351.185c.18-13.68.43-27.371 1.199-41.027.18-3.172.133-6.652 1.781-9.465 2.828-4.84 9.941-6.555 15.113-5.637 3.633.645 8.648 2.84 10.316 6.367 1.234 2.609.898 6.289 1.027 9.145 1.484 33.301 1.367 66.715 1.07 100.043-.375 43.77-1.34 87.609-4.359 131.301-1.238 18.398-19.063 21.543-21.805 1.957-.855-6.043-.633-12.512-.957-18.336-1.059-19.211-1.777-38.438-2.32-57.672-1.096-38.871-1.561-77.785-1.065-116.676z" fill="#ff7a0d"/><g fill="#ea0f4d"><path d="m468.522 503.576c.395-4.371.75-8.684 1.152-12.805 3.164-32.516 4.047-65.305 4.746-97.953.566-26.188.594-52.383.461-78.579-.117-23.457-6.816-38.855-32.84-37.891-29.223 1.078-33.902 28.469-33.816 52.398.133 35.305.938 70.715 2.906 105.961 1.387 24.867 2.906 50.902 6.508 76.09-.516-10.91-.961-21.82-1.313-32.734-1.418-44.258-2.004-88.582-1.277-132.86.129-8.145.316-16.285.617-24.426.266-7.094-.164-15.184 2.023-21.984 6.836-21.254 43.328-22.355 50.574-.805 2.18 6.484 1.555 14.535 1.781 21.324.281 8.488.453 16.973.586 25.465.316 21.008.336 42.024.172 63.036-.252 31.912-.866 63.865-2.28 95.763z"/><path d="m316.647 29.955c-15.781 3.117-45.102 17.375-55.727 1.988.031 5.059 2.004 10.145 6.176 13.191 5.727 4.18 12.824 1.574 19.031.066 17.453-4.258 34.836-8.609 52.691-10.855 31.629-3.988 61.832 4.977 92.348 12.305 7.75 1.648 14.73-.172 18-8.035 2.004-4.832 1.629-10.324-.633-14.863-3 9.148-10.449 15.188-23.109 13.262-6.191-.941-12.328-2.57-18.438-3.895-13.645-2.969-27.375-4.977-41.293-6.113-16.616-1.356-32.737-.27-49.046 2.949z"/><path d="m378.319 497.334c.199-2.223.391-4.418.602-6.563 3.164-32.516 4.047-65.305 4.742-97.953.57-26.188.594-52.383.465-78.579-.121-23.457-6.816-38.855-32.84-37.891-29.223 1.078-33.902 28.469-33.816 52.398.129 35.305.934 70.715 2.906 105.961 1.441 25.773 3.035 52.809 6.922 78.844-.566-11.824-1.035-23.648-1.418-35.488-1.414-44.258-2.004-88.582-1.281-132.86.129-8.145.32-16.285.621-24.426.266-7.094-.16-15.184 2.023-21.984 6.836-21.254 43.328-22.355 50.574-.805 2.18 6.484 1.547 14.535 1.777 21.324.277 8.488.457 16.973.59 25.465.313 21.008.336 42.024.168 63.036-.234 29.83-.808 59.693-2.035 89.521z"/><path d="m527.503 322.345c-.547-9.953-1.199-19.918-2.023-29.875-4.098 75.934-4.605 87.895-4.988 128.04-.355 37.418-1.773 74.871-4.871 112.16-1.109 13.297-2.512 26.594-4.688 39.758-4.422 26.773-26.367 33.242-49.906 36.207-43.359 5.465-87.441 5.293-131.031 3.691-26.168-.957-52.285-2.992-78.316-5.727-18.109-1.906-36.828-3.91-46.973-20.945-12.887-21.633-11.707-53.59-13.098-78.164-1.949-34.402-2.977-68.863-3.473-103.32-.453-31.793-1.457-68.489-4.23-120.637-.422 5.789-.809 11.551-1.219 17.211-1.941 26.949-2.926 53.969-3.398 80.981-.973 55.047-.168 110.336 4.332 165.223 1.191 14.457 2.508 29 4.875 43.348 2.176 13.152 5.469 15.645 16.273 18.789 15.742 4.566 31.945 7.633 48.145 9.938 47.137 6.73 95.34 7.406 142.84 5.168 34.168-1.602 68.793-4.52 102.438-11.41 12.762-2.617 18.473-6.176 20.621-18.5 1.477-8.465 2.504-17.016 3.461-25.426 2.84-24.984 4.469-50.098 5.609-75.207 2.588-57.021 2.76-114.302-.38-171.303z"/><path d="m230.991 434.709c1.242 22.176 2.602 45.285 5.422 67.898-.344-8.184-.719-16.355-.977-24.543-1.418-44.258-2.004-88.582-1.285-132.86.133-8.145.316-16.285.625-24.426.266-7.094-.164-15.184 2.023-21.984 6.836-21.254 43.328-22.355 50.574-.805 2.176 6.484 1.551 14.535 1.773 21.324.285 8.488.461 16.973.59 25.465.32 21.008.336 42.024.172 63.036-.285 36.215-1.02 72.473-2.898 108.66 1.105-8.781 1.73-17.574 2.523-25.703 3.168-32.516 4.051-65.305 4.75-97.953.559-26.188.59-52.383.457-78.579-.117-23.457-6.816-38.855-32.844-37.891-29.219 1.078-33.898 28.469-33.813 52.398.131 35.307.939 70.717 2.908 105.963z"/></g><path d="m429.94 20.482c-58.726-25.234-125.863-11.859-150.797-1.754-7.688 3.105-8.246 11.691 1.637 8.773 6.57-1.938 65.906-20.348 147.742-2.359 6.988 1.535 8.196-1.726 1.418-4.66z" fill="#f69"/><path d="m315.741 211.505c38.313-1.945 76.406.387 114.566 3.824 22.781 2.047 56.461.117 74.832 16.648 8.086 7.277 12.793 18.273 16.688 28.363-.262-1.789-.465-3.598-.758-5.383-1.461-9.031-2.832-17.586-8.105-25.301-6.492-9.504-16.383-12.238-26.969-14.793-23.406-5.633-47.672-7.723-71.652-9.168-30.215-1.82-60.551-2.063-90.809-1.02-27.734.961-55.625 2.781-83.039 7.25-10.414 1.695-20.863 3.691-30.98 6.711-9.832 2.934-16.262 11.172-19.203 20.742.266-.277.496-.578.766-.855 9.492-9.656 24.574-12.465 37.168-15.637 28.53-7.197 58.179-9.896 87.495-11.381z" fill="#f69"/><path d="m363.093 545.135c3.191-44.75 4.191-89.676 4.582-134.523.289-33.328.414-66.743-1.07-100.043-.129-2.855.207-6.535-1.027-9.145-1.531-3.23-5.82-5.273-9.328-6.105 4.719 11.629 3.516 27.906 3.789 38.664.688 26.032 1.254 51.934.699 77.973-.551 26.109-1.199 52.262-.738 78.375.422 23.527.906 46.039-7.902 67.395 4.897.378 9.866-3.677 10.995-12.591z" fill="#ef6200"/><path d="m273.038 539.381c2.883-42.848 3.816-85.84 4.191-128.77.293-33.328.418-66.743-1.074-100.043-.125-2.855.207-6.535-1.023-9.145-1.496-3.164-5.656-5.195-9.129-6.051 4.695 11.629 3.488 27.871 3.773 38.609.684 26.032 1.254 51.934.699 77.973-.559 26.109-1.203 52.262-.738 78.375.414 23.059.949 45.141-7.316 66.117 5.039-.842 9.933-6.842 10.617-17.065z" fill="#ef6200"/><path d="m453.76 541.912c3.02-43.691 3.984-87.531 4.359-131.301.297-33.328.414-66.743-1.07-100.043-.129-2.855.207-6.535-1.027-9.145-1.543-3.258-5.898-5.313-9.418-6.129 4.73 11.625 3.52 27.922 3.797 38.688.684 26.032 1.25 51.934.699 77.973-.555 26.109-1.203 52.262-.738 78.375.422 23.316.922 45.625-7.637 66.809 5.196-.196 10.391-5.594 11.035-15.227z" fill="#ef6200"/><path d="m249.698 300.693c-1.645 2.813-1.602 6.293-1.777 9.465-.773 13.656-1.023 27.348-1.195 41.027-.367 28.465-.086 56.934.453 85.399 1.824-25.395 2.77-50.758 3.813-76.203.828-20.145.457-43.704 5.355-64.653-2.766.922-5.239 2.551-6.649 4.965z" fill="#ffb85a"/><path d="m347.3 295.591c-2.965.887-5.66 2.543-7.152 5.102-1.648 2.813-1.602 6.293-1.781 9.465-.77 13.656-1.023 27.348-1.195 41.027-.504 38.891-.039 77.805 1.059 116.676.188 6.559.43 13.117.664 19.676.914-16.738 1.391-33.469 1.309-50.328-.225-45.957-4.057-96.282 7.096-141.618z" fill="#ffb85a"/><path d="m431.764 357.963c.754-20.016 1.055-43.633 9.02-62.985-4.074.473-8.203 2.305-10.191 5.715-1.648 2.813-1.602 6.293-1.781 9.465-.77 13.656-1.02 27.348-1.199 41.027-.496 38.891-.031 77.805 1.066 116.676.121 4.145.285 8.285.418 12.43.91-14.73 1.699-29.41 1.859-43.961.281-26.121-.168-52.25.808-78.367z" fill="#ffb85a"/><path d="m268.991 677.604c-9.191-.816-18.355-1.891-27.484-3.203.297 3.125.586 6.547.902 9.941 9.262-1.703 19-2.012 26.797 1.371.039-3.918-.172-7.125-.215-8.109z" fill="#ffa222"/><path d="m436.186 67.888c-2.695.055-5.422-.125-8.203-.574-.773-.02-1.582-.117-2.426-.32-.906-.219-1.816-.449-2.719-.672 4.621 23.031 6.324 46.332 5.926 69.66.168-.242.344-.453.508-.699 5.578-8.402 9.625-18.555 12.168-29.301-.934-12.383-2.555-24.711-5.113-36.848-.094-.426-.094-.828-.141-1.246z" fill="#ffa222"/><path d="m447.327 676.748c0 .02-.301 4.172-.156 9.352 8.871-3.418 18-3.797 27.008-.934.48-5.75.652-10.957.73-12.188-9.137 1.497-18.332 2.743-27.582 3.77z" fill="#ffa222"/><path d="m286.046 66.744c-4.516.867-8.965 1.211-13.25.953-.043.477-.051.945-.156 1.438-1.008 4.781-1.867 9.586-2.609 14.41.191 15.688 2.59 31.082 10.105 45.285.042-20.789 1.824-41.547 5.91-62.086z" fill="#ffa222"/><path d="m201.772 634.178c4.113 8.832 7.117 11.805 14.359 13.863 4.043 1.152 8.133 2.156 12.258 3.031 16.773 3.566 34.09 5.063 51.094 6.309 27.93 2.051 55.973 2.637 83.973 2.328 27.25-.305 54.547-1.43 81.676-4.07 13.352-1.297 27.207-2.648 40.43-5.84 8.867-2.121 13.234-2.082 18.867-10.906-9.461 2.141-19 3.848-28.332 5.457-34.699 5.977-69.988 8.695-105.16 9.625-54.54 1.433-116.575.379-169.165-19.797z" fill="#c48d51"/></g></g></svg>