<svg id="Toys" height="512" viewBox="-70.866 -70.866 850.394 850.394" width="512" xmlns="http://www.w3.org/2000/svg"><g><path d="m120.799 223.716c2.828 44.676 19.004 85.129 46.944 118.23-15.476 9.875-30.065 21.43-43.991 34.824-19.137 18.387-58.953 56.652-58.07 105.723.66 36.582 28.848 72.672 64.461 89.422-4.184 79.656 57.112 157.645 129.8 152.461 37.449-1.074 68.605-19.977 87.664-51.977 4.465.121 8.852.086 13.368-.09 18.16 28.688 47.324 47.07 83.426 51.766 81.363 10.375 136.328-78.105 133.668-150.223 30.68-14.727 56.281-44.117 65.695-72.105 16.043-50.957-21.18-87.469-42.418-111.332-17.027-18.957-36.922-35.41-59.445-49.207 24.609-30.793 39.715-68.184 44.289-110.324.254-2.297.465-4.598.629-6.898 29.199-8.457 53.453-27.758 67.926-55.078 21.121-39.863 17.465-89.355-9.563-129.172-41.648-66.371-146.906-76.91-194.398-14.27-61.419-26.738-135.037-28.598-196.505-3.801-49.422-58.648-150.152-46.652-191.007 18.074-46.672 64.817-19.598 162.5 57.527 183.977z" fill="#fff"/><g><path d="m160.44 190.396c-.824 5.453-1.469 11.004-1.805 16.711-.746 60.703 27.573 109.004 70.96 140.09 5.918 4.238 2.793 5.141-1.398 6.781-29.551 11.59-54.898 28.234-77.933 50.387-20.43 19.633-46.863 47.344-46.32 77.434.539 29.855 37.336 62.504 68.835 61.523-4.969 17.449-5.602 37.156-2.82 56.551 9.387 44.461 38.801 87.691 88.883 86.254 35.82-1.031 56.309-25.32 65.219-54.824 19.578 4.211 40.114 3.434 59.915.242 9.012 28.313 29.801 49.961 65.359 54.582 49.293 6.406 80.348-45.793 88.883-86.254 2.684-18.727 2.176-37.738-2.336-54.746 29.973 1.934 62.98-29.918 71.609-55.574 9.52-28.313-17.773-54.813-34.613-73.566-24.793-27.598-56.25-48.086-90.402-61.941-6.48-2.637-6.414-3.02-.934-7.18 36.051-27.301 60.953-68.07 66.609-120.113 1.371-12.609 1.082-24.746-.633-36.367 71.23 3.578 105.375-71.141 66.004-129.156-39.367-58-126.926-52.031-146.926 15.488-29.043-18.059-62.668-29.586-95.648-33.051-47.551-4.992-93.754 5.129-130.891 27.711-22.942-62.432-106.82-66.576-145.117-10.15-39.282 57.878-5.383 132.363 65.5 129.168z" fill="#68182b"/><path d="m276.618 180.013c6.961-7.496 15.902-8.234 23.602-.75 4.844 4.711 4.875 12.621 1.941 18.281-4.598 8.883-14.559 10.449-22.551 5.645-8.859-5.336-8.093-15.715-2.992-23.176z" fill="#00ebed"/><path d="m179.728 207.106c-.633 51.699 21.734 90.898 55.355 117.227 6.852-60.02 55.195-103.145 118.938-100.875 61.344 2.18 114.145 44.063 119.833 104.383 31.039-23.973 52.121-59.902 53.703-108.227 6.421-195.656-336.044-211.586-347.829-12.508zm131.844-.886c-10.035 13.883-28.664 16.723-41.801 5.316-11.66-10.133-12.617-26.637-3.539-38.758.152-.199.348-.281.512-.457.18-.273.246-.563.477-.824 10.914-12.352 30.441-14.48 41.945-1.184 8.699 10.055 10.425 24.805 2.406 35.907zm121.965 0c-10.031 13.871-28.66 16.734-41.797 5.316-11.66-10.137-12.617-26.633-3.539-38.758.152-.199.348-.281.508-.457.184-.273.25-.563.48-.824 10.922-12.348 30.445-14.484 41.949-1.184 8.696 10.055 10.43 24.809 2.399 35.907z" fill="#dda96b"/><path d="m398.588 180.009c6.961-7.488 15.906-8.234 23.598-.746 4.848 4.711 4.879 12.621 1.945 18.281-4.602 8.883-14.559 10.449-22.543 5.645-8.86-5.336-8.094-15.715-3-23.18z" fill="#00ebed"/><path d="m252.904 508.938c-52.578-8.305-68.527 43.953-62.602 85.328 6.199 29.395 21.719 64.574 55.371 70.039 40.168 6.527 64.742-30.844 63.254-67.242-1.359-33.183-16.922-81.949-56.023-88.125zm1.144 131.329c-26.98.531-42.754-22.465-47.883-46.492-3.902-27.73 4.867-56.52 36.059-60.902 27.395-3.848 47.672 26.25 49.992 50.184 2.418 25.006-7.937 56.604-38.168 57.21z" fill="#dda96b"/><path d="m246.685 627.075c-8.879-1.613-15.246-7.223-19.773-14.352-8.582-13.5-13.316-34.586-4.633-52.391 5.008-10.281 14.449-17.066 29.496-14.285 20.336 3.758 27.898 29.719 28.418 46.953.566 19.048-12.856 37.841-33.508 34.075z" fill="#ffc522"/><path d="m455.271 508.938c-36.875 11.414-56.973 51.094-56.023 88.125.852 33.281 21.793 77.941 63.254 67.242 33.664-8.68 48.641-38.141 55.371-70.039 5.148-35.91-10.336-101.511-62.602-85.328zm49.715 84.836c-4.641 21.738-21.352 49.852-47.883 46.492-29.898-3.789-40.824-29.703-38.16-57.211 2.32-23.934 22.598-54.031 49.992-50.184 31.192 4.384 39.961 33.173 36.051 60.903z" fill="#dda96b"/><path d="m492.779 590.411c-3.516 16.488-9.078 32.164-26.375 37.066-21.332 6.059-34.707-17.18-35.438-34.477-.809-19.391 9.359-40.328 28.418-46.953 27.594-9.589 36.051 25.54 33.395 44.364z" fill="#ffc522"/><path d="m162.99 142.493c-7.738-1.297-14.691-4.758-18.988-12.426-4.977-8.891-2.25-20.688 2.324-29.059 6.414-11.727 21.601-20.418 34.187-13.453 4.809 2.664 8.813 7.371 11.805 12.547 4.133 7.156 3.473 9.176-1.707 16.238-4.063 5.531-7.793 11.34-11.16 17.426-4.399 7.93-6.04 10.473-16.461 8.727z" fill="#ffc522"/><path d="m246.45 369.513c6.301-8.25 7.711-7.012 17.242-2.742 10.988 4.926 22.551 8.945 34.527 12.043-33.961 25.426-49.398 66.766-43.434 108.551-5.996-.957-12.246-1.07-18.711-.129-7.234 1.055-13.805 2.836-19.758 5.23-5.424-43.723 3.299-87.805 30.134-122.953z" fill="#dda96b"/><path d="m345.036 266.302c1.977 16.727 3.637 33.918 1.191 50.609-26.496-.637-52.574-6.344-71.191-17.512-7.012-4.207-13.375 6.738-6.379 10.93 22.227 13.332 53.188 19.648 83.992 19.402 29.016-.23 57.895-6.273 79.208-17.754 7.191-3.871.797-14.797-6.379-10.93-17.762 9.566-41.879 14.891-66.605 15.813 2.031-16.801.738-33.684-1.188-50.473 12.883-2.75 20.699-14.492 23.785-27.055 40.723 9.992 72.383 43.012 79.016 84.223 1.613 10.035-2.777 15.691-13.633 21.027-56.539 27.785-131.684 25.75-187.868-4.645-8.586-4.641-12.172-9.855-10.73-19.254 6.25-40.777 33.414-69.02 71.711-79.754 3.363 12.611 12.395 22.685 25.07 25.373z" fill="#ffc522"/><path d="m339.564 237.087c4.703-.563 9.527-.898 14.457-.973 3.364-.059 6.676.102 9.954.391 5.512.473 5.367 1.828 3.285 6.32-3.125 6.711-8.781 11.59-17.274 11.531-6.84-.047-11.648-4.086-14.738-9.414-3.079-5.316-2.735-7.004 4.316-7.855z" fill="#ff2e60"/><path d="m173.279 522.845c-11.39.883-25.651-9.648-32.542-15.379-19.156-15.918-17.949-34.914-4.645-53.852 18.324-26.078 41.089-48.09 67.858-64.273 9.152-5.535 7.457-2.445 4.621 4.238-14.492 34.258-17.703 72.398-11.719 110.703-2.473 2.109-4.773 4.371-6.902 6.766-5.132 5.765-10.511 11.332-16.671 11.797z" fill="#dda96b"/><path d="m379.42 579.528c-.758 7.293-.961 14.523-.633 21.59.355 7.527 1.891 9.875-6.633 10.891-11.41 1.375-23.051 1.699-34.364.281-8-.996-8.988-3.652-8.566-11.336.402-7.258.242-14.469-.469-21.426-.371-3.59-1.043-7.277-1.84-10.98 17.719 4.691 35.965 4.793 54.204.594-.731 3.5-1.352 6.984-1.699 10.386z" fill="#dda96b"/><path d="m384.767 555.2c-20.715 6.023-41.813 6.137-61.848-.938-9.465-26.895-29.066-52.859-54.699-63.063-7.348-37.488 4.598-75.09 33.52-99.129 9.184-7.645 14.176-9.25 23.199-7.996 4.672.645 9.391 1.152 14.152 1.512 14.625 1.098 29.016.844 43.012-.66 10.902-1.188 12.215-.258 18.844 4.652 31.992 23.664 46.184 61.988 38.609 101.773-25.727 10.434-45.297 36.754-54.594 63.832-.07.017-.124-.002-.195.017z" fill="#ffc522"/><path d="m500.193 385.915c29.73 16.633 55.074 39.523 76.32 67.148 14.832 19.289 13.164 35.59-3.461 52.895-5.676 5.906-19.055 15.598-30.75 17.777-10.23 1.906-15.371-1.82-21.008-9.043-3.105-3.996-6.645-7.652-10.605-10.941 6.672-40.738 2.055-78.613-15.188-113.09-4.101-8.199-5.542-10.469 4.692-4.746z" fill="#dda96b"/><path d="m491.244 492.235c-5.797-2.27-12.148-3.977-19.137-5-6.605-.961-12.98-.801-19.098.219 5.695-41.813-9.773-81.855-43.379-107.246 11.418-2.719 22.438-6.336 32.938-10.813 7.086-3.027 12.121-2.648 15.551 1.602 28.633 35.512 38.93 76.582 33.125 121.238z" fill="#dda96b"/><path d="m487.795 79.7c18.648-54.848 83.691-42.934 112.762-.098 28.969 42.688-3.672 87.082-48.082 89.453-8.852.473-9.895-.523-12.348-7.152-.766-2.063-1.566-4.109-2.43-6.121 15.145-.262 29.773-5.18 37.691-19.328 7.578-13.535 4.316-30.996-3.43-43.617-8.984-14.648-27.93-24.598-44.777-18.895-12.531 4.238-21.734 16.996-26.414 29.289-3.031-2.93-6.156-5.777-9.387-8.527-5.484-4.683-6.05-7.75-3.585-15.004z" fill="#dda96b"/><path d="m527.068 135.521c-3.512-5.652-7.383-11.09-11.586-16.301-4.176-5.148-4.195-9.086-1.664-14.598 3.141-6.793 7.996-13.008 14.129-17.066 12.398-8.207 27.617 2.754 34.184 13.453 5.195 8.477 6.605 19.957 2.328 29.059-4.371 9.309-13.98 12.352-23.598 12.973-7.703.495-9.473-.571-13.793-7.52z" fill="#ffc522"/><path d="m107.908 79.603c24.516-45.289 88.089-50.605 109.788-6.113 4.078 8.348 3.758 10.574-2.664 16.215-3.23 2.84-6.348 5.793-9.348 8.863-4.879-10.211-12.676-19.43-22.898-23.988-17.43-7.77-36.46 3.934-46.288 18.258-8.008 11.664-10.355 28.867-4.277 41.816 7.035 14.961 21.84 20.453 37.151 21.043-.648 1.727-1.273 3.469-1.871 5.227-2.422 7.145-7.069 8.742-16.019 7.902-43.757-4.087-66.566-46.751-43.574-89.223z" fill="#dda96b"/><g fill="#c48d51"><path d="m500.42 608.052c13.895-20.75 7.785-55.035-8.828-71.457-17.566-17.367-48.352-6.262-61.012 11.445-6.918 9.672-10.832 21.469-11.398 33.336 3.07-23.641 22.992-52.266 49.754-48.504 31.191 4.383 39.961 33.172 36.051 60.902-.981 4.594-2.532 9.473-4.567 14.278z"/><path d="m453.342 429.56c-6.324-15.57-17.332-32.492-32.98-40.113 26.09 25.313 37.699 60.957 32.648 98.008 6.117-1.02 12.492-1.18 19.098-.219 5.324.781 10.172 2.066 14.793 3.586-4.34-4.176-9.367-7.703-14.027-11.875-12.482-11.161-13.396-34.274-19.532-49.387z"/><path d="m206.165 593.774c-3.902-27.73 4.867-56.52 36.059-60.902 24.621-3.461 43.445 20.496 48.699 42.762-1.621-16.258-8.648-31.734-22.055-40.641-22.656-15.039-48.609-4.578-60.93 18.164-6.992 12.906-6.617 27.934-1.582 41.414-.058-.269-.128-.535-.191-.797z"/><path d="m440.072 177.521c-3.074-16.801-21.352-24.684-36.691-21.918-17.348 3.133-27.961 21.563-22.695 37.883.699 2.16 1.801 4.227 3.07 6.234-3.098-8.809-1.629-18.836 4.445-26.941.152-.199.348-.281.508-.457.184-.273.25-.563.48-.824 10.922-12.348 30.445-14.484 41.949-1.184 7.238 8.371 9.559 19.98 5.523 30.043 3.567-6.907 4.806-15.196 3.411-22.836z"/><path d="m337.79 612.29c11.313 1.418 22.954 1.094 34.364-.281 8.523-1.016 6.988-3.363 6.633-10.891-.117-2.531-.086-5.102-.066-7.672-4.27 3.301-8.945 6.141-14.41 8.309-11.036 4.387-25.958 2.91-35.016-4.996-.039 1.398.008 2.789-.07 4.195-.423 7.684.565 10.34 8.565 11.336z"/><path d="m586.599 479.263c-1.527 4.176-3.75 8.285-7.074 12.504-6.723 8.527-16.051 14.105-26.199 17.535-33.285 11.23-29.711-27.172-30.543-46.594-.93-21.625-8.563-60.262-28.605-74.695.395.801.836 1.68 1.324 2.648 17.242 34.477 21.859 72.352 15.188 113.09 3.961 3.289 7.5 6.945 10.605 10.941 5.637 7.223 10.777 10.949 21.008 9.043 11.695-2.18 25.074-11.871 30.75-17.777 8.628-8.984 13.191-17.699 13.546-26.695z"/><path d="m465.595 655.13c-27.969 10.117-47.305-12.332-55.484-36.371-7.816-22.992-6.023-46.988.008-69.941-7.531 14.801-11.293 31.773-10.871 48.246.852 33.281 21.793 77.941 63.254 67.242 33.664-8.68 48.641-38.141 55.371-70.039 1.734-12.102 1.113-27.566-2.453-42.145 2.922 42.094-6.266 87.266-49.825 103.008z"/><path d="m308.927 597.063c-.094-2.242-.266-4.563-.488-6.93-.621 6.664-1.84 13.344-3.855 20.113-8.129 27.289-34.277 50.77-63.824 43.762-28.824-6.836-42.383-43.137-45.832-68.969-1.93-14.484-1.199-32.223 2.855-48.285-8.18 16.762-10.238 38.277-7.48 57.512 6.199 29.395 21.719 64.574 55.371 70.039 40.167 6.528 64.741-30.843 63.253-67.242z"/><path d="m136.498 92.837c9.828-14.324 28.858-26.027 46.288-18.258 10.223 4.559 18.02 13.777 22.898 23.988 1.387-1.418 2.883-2.723 4.316-4.098-5.16-13.906-20.531-26.605-33.895-26.461-24.835.27-45.581 19.609-48.37 44.137-.578 5.109.191 10.066 1.965 14.535-2.342-11.472.345-24.445 6.798-33.843z"/><path d="m235.083 324.333c6.852-60.02 55.195-103.145 118.938-100.875 61.344 2.18 114.145 44.063 119.833 104.383 31.039-23.973 52.121-59.902 53.703-108.227.691-21.184-2.715-40.25-9.332-57.176 1.113 5.125 2.043 10.18 2.957 14.77 3.074 15.434 3.555 31.195 2.281 46.828-2.215 27.262-13.711 53.426-30.336 74.906-13.473 17.414-26.406-14.754-31.719-23.293-6.355-10.223-14.859-19.012-23.828-26.934-19.57-17.273-44.629-27.074-70.223-30.563-44.649-6.074-92.418 13.746-118.583 50.113-5.273 7.336-15.844 40.688-30.059 28.957-12.68-10.477-21.078-25.992-27.109-40.988-7.707-19.152-10.102-39.598-10.84-60.07-.445 3.578-.82 7.211-1.039 10.941-.632 51.701 21.735 90.9 55.356 117.228z"/><path d="m317.501 193.825c7.563-16.871-6.691-34.027-22.551-38.223-15.23-4.023-30.512 5.285-35.969 19.371-3.441 8.871-1.418 19.277 3.836 27.406-4.465-9.387-3.27-20.672 3.414-29.602.152-.199.348-.281.512-.457.18-.273.246-.563.477-.824 10.914-12.352 30.441-14.48 41.945-1.184 6.438 7.445 9.027 17.457 6.703 26.664.598-1.045 1.161-2.092 1.633-3.151z"/><path d="m151.483 168.825c8.105.762 12.664-.527 15.253-6.074-21.804 6.145-46.358-5.527-57.718-25.246-7.145-12.402-9.043-30.453-5.98-46.809-13.856 38.524 8.511 74.399 48.445 78.129z"/><path d="m500.767 103.231c4.68-12.293 13.883-25.051 26.414-29.289 16.848-5.703 35.793 4.246 44.777 18.895 2.777 4.523 4.938 9.676 6.27 15.039-.031-.75-.059-1.508-.145-2.246-2.445-21.41-22.801-36.227-42.887-38.414-17.113-1.871-33.578 15.281-39.227 31.656 1.603 1.453 3.251 2.863 4.798 4.359z"/><path d="m189.95 511.048c2.129-2.395 4.43-4.656 6.902-6.766-5.984-38.305-2.773-76.445 11.719-110.703.496-1.164.926-2.168 1.293-3.09-18.305 14.438-23.566 47.75-24.938 68.238-1.191 17.863 1.688 56.664-28.226 50.355-15.957-3.363-26.332-18.629-29.992-34.516-2.004 11.668 1.984 22.895 14.027 32.898 6.891 5.73 21.152 16.262 32.542 15.379 6.162-.463 11.541-6.03 16.673-11.795z"/><path d="m251.454 432.88c-5.395 18.605.922 38.512-17.813 50.883-2.906 1.918-5.773 3.758-8.398 5.742 3.441-.938 7.035-1.715 10.832-2.27 6.465-.941 12.715-.828 18.711.129-5.762-40.352 8.492-80.23 40.047-105.82-23.183 5.894-37.011 29.348-43.379 51.336z"/><path d="m600.556 79.603c-1.184-1.738-2.441-3.406-3.738-5.043 7.172 15.23 10.355 32.73 6.895 49.23-3.711 17.699-25.484 41.344-63.434 38.5 2.34 6.25 3.535 7.23 12.195 6.766 44.411-2.371 77.051-46.766 48.082-89.453z"/></g><path d="m163.084 433.263c-9.203 8.98-17.363 19.277-22.332 30.594-3.516 8.016-1.727 25.113 8.391 28.238 12.305 3.797 17.241-7.414 18.858-17.703 1.859-11.828 3.426-23.395 6.031-34.813 2.532-11.109 1.696-18.637-10.948-6.316z" fill="#f4c38e"/><path d="m568.025 464.231c-3.859-11.008-11.914-21.699-20.93-31.047-12.117-12.559-13.336-6.414-10.414 8.008 2.543 12.59 2.773 25.609 2.773 38.914 0 9.871 3.855 18.258 14.543 14.969 13.778-4.238 18.313-18.621 14.028-30.844z" fill="#f4c38e"/><path d="m455.271 508.938c-14.824 4.586-26.883 13.789-36.004 25.508 13.953-12.465 30.309-22.066 49.07-23.223 20.336-1.25 33.906 11.715 43.016 28.023-9.015-22.722-26.761-39.386-56.082-30.308z" fill="#f4c38e"/><path d="m284.365 374.622c-7.059-2.32-14-4.855-20.672-7.852-9.531-4.27-10.941-5.508-17.242 2.742-18.684 24.469-28.563 53.27-31.027 83.27 6.266-33.969 20.473-69.59 54.742-76.426 4.07-.808 9.191-1.054 14.199-1.734z" fill="#f4c38e"/><path d="m379.814 576.642c.352-2.477.777-4.984 1.305-7.5-18.238 4.199-36.485 4.098-54.204-.594.477 2.199.875 4.391 1.227 6.566 16.523 4.621 35.715 8.66 51.672 1.528z" fill="#f4c38e"/><path d="m252.904 508.938c-26.559-4.195-43.75 7.086-53.512 24.586 18.898-20.758 50.465-24.871 75.012-9.188 22.441 14.336 29 42.543 34.191 67.781-2.617-32.878-18.48-77.3-55.691-83.179z" fill="#f4c38e"/><path d="m194.88 56.997c13.422 7.801 20.25 18.871 20.824 32.082 5.711-5.176 5.914-7.57 1.992-15.59-19.137-39.238-70.808-39.691-99.569-8.191 11.867-9.512 25.875-15.766 42.016-17.16 12.311-1.063 24.233 2.75 34.737 8.859z" fill="#f4c38e"/><path d="m458.119 370.997c-3.43-4.25-8.465-4.629-15.551-1.602-6.926 2.953-14.145 5.387-21.488 7.582 9.117 1.133 19.07-1.664 28.199.078 8.266 1.582 14.707 10.535 18.832 17.039 16.711 26.328 20.758 61.457 23.73 92.609 4.278-42.511-6.273-81.667-33.722-115.706z" fill="#f4c38e"/><path d="m557.248 48.302c4.68.781 9.074 2.156 13.242 3.953-30.969-17.004-69.121-12.48-82.695 27.445-2.117 6.227-1.969 9.371 1.57 13.094 7.137-30.617 36.648-49.699 67.883-44.492z" fill="#f4c38e"/><path d="m184.79 175.56c11.41-25.434 26.625-47.621 50.215-64.965 31.445-23.117 69.063-37.121 107.93-39.711 72.586-4.836 134.973 30.207 173.43 87.164-54.793-126.223-292.868-127.004-331.575 17.512z" fill="#f4c38e"/><path d="m357.849 246.692c-9.024 3.598-16.747 1.121-23.793-4.074.309.691.684 1.445 1.191 2.324 3.09 5.328 7.898 9.367 14.738 9.414 8.493.059 14.149-4.82 17.274-11.531.387-.844.676-1.543.906-2.176-3.077 2.434-6.413 4.489-10.316 6.043z" fill="#ea0f4d"/><path d="m344.72 238.856c-.891.063-6.223 1.266-3.852 3.313 4.016 3.461 13.563 3.488 17.997-.398 1.387-1.203 1.965-2.898-.73-2.973-3.77-.09-10.013-.172-13.415.058z" fill="#f69"/><path d="m275.013 182.778c-3.527 7.09-3.211 15.707 4.598 20.41 7.992 4.805 17.953 3.238 22.551-5.645 1.055-2.031 1.703-4.352 1.906-6.707-2.734 6.168-8.383 10.258-17.23 9.051-7.673-1.046-12.544-9.523-11.825-17.109z" fill="#19bfbb"/><path d="m401.588 203.188c7.984 4.805 17.941 3.238 22.543-5.645 2.586-4.98 2.863-11.695-.406-16.449 2.199 8.043.531 16.105-8.867 20.02-11.637 4.84-20.133-6.281-18.621-16.531-2.618 6.703-1.81 14.289 5.351 18.605z" fill="#19bfbb"/><path d="m284.458 180.935c-4.949 4.105-3.785 11.336 1.988 13.941 4.984 2.254 10.746-.711 12.012-5.852.816-3.324-.559-6.734-3.039-8.73-2.769-2.227-6.922-2.711-10.961.641z" fill="#6cfffb"/><path d="m403.373 180.935c-4.949 4.105-3.781 11.336 1.992 13.941 4.984 2.254 10.746-.711 12.012-5.852.816-3.324-.563-6.734-3.039-8.73-2.77-2.227-6.922-2.711-10.965.641z" fill="#6cfffb"/><path d="m513.986 117.114c.422.688.906 1.383 1.496 2.105 4.203 5.211 8.074 10.648 11.586 16.301 4.32 6.949 6.09 8.016 13.793 7.52 9.617-.621 19.227-3.664 23.598-12.973 4.277-9.102 2.867-20.582-2.328-29.059-1.609-2.621-3.742-5.254-6.223-7.625 7.918 12.512 11.266 29.445-2.941 38.832-13.016 8.598-23.168-3.785-32.168-11.344-2.024-1.698-4.356-2.886-6.813-3.757z" fill="#ffa222"/><path d="m248.255 320.685c-1.441 9.398 2.145 14.613 10.73 19.254 56.184 30.395 131.329 32.43 187.868 4.645 10.855-5.336 15.246-10.992 13.633-21.027-1.773-11.035-5.395-21.449-10.449-31.023 5.973 16.75 7.039 34.359-10.387 45.547-23.258 14.918-56.934 16.168-83.637 16.328-24.383.137-47.977-3.859-71.075-11.473-15.664-5.168-30.32-13.496-32.715-31.414-.336-2.527-.23-5.121.086-7.723-1.753 5.366-3.152 10.975-4.054 16.886z" fill="#ffa222"/><path d="m162.99 142.493c10.421 1.746 12.062-.797 16.46-8.727 3.367-6.086 7.098-11.895 11.16-17.426 1.672-2.277 2.82-4.012 3.539-5.582-6.215 4.082-11.773 9.277-16.844 15.027-12.027 13.652-28.21 9.012-33.14-7.453-.977-3.258-1.215-6.551-1.031-9.828-2.273 7.102-2.754 15.098.867 21.563 4.298 7.668 11.251 11.129 18.989 12.426z" fill="#ffa222"/><path d="m440.685 610.669c-14.742-20.285-1.438-48.297 16.516-63.605-17.586 7.441-27.012 27.332-26.234 45.938.73 17.297 14.105 40.535 35.438 34.477 15.723-4.457 21.727-17.832 25.332-32.609-6.673 21.065-34.837 38.119-51.052 15.799z" fill="#ffa222"/><path d="m226.911 612.724c4.527 7.129 10.895 12.738 19.773 14.352 20.652 3.766 34.074-15.027 33.508-34.074-.414-13.645-5.266-32.719-17.348-41.953 13.242 17.273 18.758 38.836 7.445 60.359-11.098 21.125-36.477 8.246-45.793-6.164-2.531-3.914-4.305-8.227-5.555-12.707 1.545 7.519 4.377 14.534 7.97 20.187z" fill="#ffa222"/><path d="m278.782 419.817c-11.707 21.105-15.484 46.262-10.563 71.383 25.633 10.203 45.234 36.168 54.699 63.063 20.035 7.074 41.133 6.961 61.848.938.07-.02.125 0 .195-.016 9.297-27.078 28.867-53.398 54.594-63.832 4.891-25.684.66-50.727-11.523-71.641 9.492 25.465 17.375 57.422-6.176 75.059-10.145 7.594-18.906 14.984-26.551 25.234-4.008 5.371-7.082 11.391-10.016 17.391-5.879 12.016-16.387 13.684-28.777 14.336-10.477.555-20.93.059-29.333-7.344-6.336-5.574-9.348-16.473-13.102-23.836-4.645-9.121-12.273-16.414-20.414-22.391-3.855-2.836-8.172-5.137-12.305-7.523-11.453-6.609-9.488-23.164-8.793-33.777.811-12.489 3.507-24.809 6.217-37.044z" fill="#ffa222"/><path d="m184.458 98.017c-8.094-11.664-26.28-7.766-31.874 6.629-2.09 5.395-1.367 14.574 6.734 14.316 8.827-.293 13.909-9.051 21.015-12.773 3.27-1.719 6.785-4.356 4.125-8.172z" fill="#fbe134"/><path d="m556.56 105.138c-3.023-8.207-12.434-13.832-20.891-13.551-6.141.203-10.84 4.977-14.07 10.301-3.02 4.996-4.523 5.816 3.109 8.102 8.16 2.445 14.938 13.254 24.352 11.145 7.903-1.771 10.129-8.845 7.5-15.997z" fill="#fbe134"/><path d="m410.9 426.923c-2.383-5.637-6.984-17.266-13.141-24.016-4.398-4.816-14.168-4.23-21.723-3.223-15.41 2.051-31.883 2.121-47.79.027-9.5-1.246-12.57-.535-19.969 7.602-8.309 9.148-16.102 21.73-17.863 33.504-2.754 18.359 1.094 24.285 19.117 30.641 21.613 7.617 56.426 6.828 73.059 4.664 8.727-1.141 25.668-2.773 31.434-10.98 8.064-11.45 1.79-26.61-3.124-38.219z" fill="#fbe134"/><path d="m246.837 589.423c-1.313-6.434-1-12.18.102-18.574.57-3.336.625-6.281-.535-9.434-1.793-4.898-10.539-5.266-15.418 3.461-5.031 9.023-4.582 20.066-1.121 29.918.68 1.934 2.816 5.254 5.457 7.848 5.484 5.363 13.766.625 12.867-6.641-.262-2.168-.895-4.363-1.352-6.578z" fill="#fbe134"/><path d="m465.955 589.423c1.313-6.434 1.004-12.18-.098-18.574-.574-3.336-.625-6.281.535-9.434 1.793-4.898 10.539-5.266 15.418 3.461 5.027 9.023 4.582 20.066 1.121 29.918-.68 1.934-2.816 5.254-5.461 7.848-5.484 5.363-13.762.625-12.867-6.641.266-2.168.899-4.363 1.352-6.578z" fill="#fbe134"/><path d="m422.861 265.493c6.109 4.121 12.246 8.418 18.199 12.969-14.449-19.082-35.391-33.191-59.59-39.129-.508 2.059-1.188 4.074-1.953 6.055 15.578 3.453 29.762 10.957 43.344 20.105z" fill="#fbe134"/><path d="m319.966 240.931c-19.621 5.5-36.293 15.629-48.758 29.652 15.055-12.152 32.227-19.633 50.973-23.574-.867-1.949-1.649-3.961-2.215-6.078z" fill="#fbe134"/></g></g></svg>