<svg id="Слой_1" enable-background="new 0 0 1000 1000" height="512" viewBox="0 0 1000 1000" width="512"
     xmlns="http://www.w3.org/2000/svg">
    <g>
        <g>
            <path d="m914.3 470.6c-2.4-6.9-5.1-13.6-8.1-20.3 20.6-17.4 8.1-56.5-8-86.8 16.2-9.4 25.7-29.3 25-49.2-1.1-31-18.9-67.8-39.5-90.5-6.4-7-13.8-13.2-21.8-18.6 5.9-4.9 9.7-12.5 9.9-20 .4-10.9-5.7-20.5-15.7-24.8-2.1-.9-4.3-1.4-6.6-1.6-1.6-.9-3.3-1.7-5-2.4 4.7-8.3 5.6-18.7.9-27.9-7.1-13.8-26.1-26.2-41.4-17.4-5.9 3.4-9.6 9.1-11.6 15.6-9.8-17.7-27.1-32.8-44-40.6-42.3-19.4-101.3-16-147.1-2-.1-.8-.1-1.6-.1-2.3-.8-8-9.8-16-17.9-10.3-19.7 14.1-40.6 17.3-64 12.1-10.9-2.5-21.7-5.8-32.4-8.8-8-2.2-18.3-7.1-26.8-6.5-9.3.8-14.1 6.4-15.7 14-16.7-12.1-34-23.9-52.1-31.5-16.1-7-53.3-10.8-47.7 18.2.2 1 .5 1.9.8 2.8-.4.2-.7.4-1.1.7-7.7 5.4-12.5 13.5-13.9 22.4-34.2-11.7-80.7-19.5-82.2 17.4-.1 1.8.1 3.4.3 5.1-12.6-1.3-25.8-.1-37.4 2.2-13.6 2.6-29.4 11.6-28.5 25.2-16.5-11.6-41.5-4.2-49.2 14.2-1.2 2.8-1.9 5.7-2.2 8.6-.6 2.4-.6 4.9.1 7.2.5 3.7 1.8 7.3 3.9 10.5.5.8 1.1 1.4 1.7 2.1-1.6.6-3.2 1.3-4.8 2.2-12.9 7.5-17.6 23.9-16.6 37.9.5 7.2 2.6 14.5 6.2 20.5-6.3 3.4-12.4 7.5-17.8 12.5-15.7 14.2-22.2 37.6-2.2 51.5 3.9 2.7 8.2 4.4 12.9 5.4-20.7 9.4-53.2 28.2-46.3 56.2 4.6 18.6 19.9 19.9 35.3 15.8v.1c-2 1.2-3.9 2.4-5.8 3.7-10.4 7.2-28.6 20.4-28 34.8.6 12.9 12.3 18.8 24.3 20-2.7 7-4.3 14.4-4.6 22.1-.4 11.1 10.7 17.8 20.6 15.7 1-.2 2-.5 3-.8-29.4 29.9-58.8 58.7-63.6 104.7-1.5 14 19 21.8 28 11.6 2.2-2.5 4.3-5 6.5-7.5-2 11.5.2 23.5 10.8 29-18.2 36.2-29.3 74.9 3.2 77.6 10.1.8 19.2-3.2 27.1-9.6-12.6 40.5-20.3 83 10.7 81.7 15.4-.7 25.3-18.1 32.2-34.6.1.3.2.5.4.8-4.7 10.8-5.4 22.7 2.5 31.1 11.8 12.4 30.7 7.9 41.3-3.4 1.2 10.6 2 21.4 3.3 32.6 1.7 15.2 6.8 40 28 36.4.9-.1 1.6-.4 2.4-.6-1 2-1.8 4.2-2.2 6.6-1.6 9 .4 18.5 7.3 24.9 3 2.8 7.1 4.3 11.2 4.3 5.2 17.2 15.2 33.9 35.7 25 15.9-7 17.8-28.8 16.4-47.8 1 2.7 2.1 5.5 3.2 8.2 6.3 15.3 16.6 40.1 33.7 46.9 7.6 5.3 16.6 8.5 27 8.1 19.3-.7 22.9-18.1 21.1-37.1 6.1 10.4 13.8 22.6 26 26.2 2.1.6 4.2.9 6.3 1 1.9 11.3 7.3 21.5 17.8 28.9 20.4 14.2 44.9 8.3 66.2-.2 9.4-3.8 18.6-7.7 27.9-11.8-.4 10.8 3 21.6 10.6 29.2 17.3 17.1 44.3.1 48-20.4.1-.5.1-1 .2-1.4.5.1.9.1 1.4.2 4.6 15.9 21.5 25.5 40.1 21.7 14.6-3 25.7-12.4 34.8-24 1.9 7.1 4.9 13.3 9.9 17.8 17 15.4 40.6 5.1 53.2-10.3 12.4-15.2 17.7-36.4 21.4-56.4 1.2 1.1 2.5 2.1 4 2.9 15.2 8.9 35.5-1.5 39.3-18 1.5-6.5.6-13.3-2.7-18.8.9-.4 1.7-.8 2.6-1.3 1.4 4.4 3.3 8.5 5.9 12.3 3.4 4.9 7.2 8.2 11.3 10.4 19.1 20.7 50.3 11.5 62.3-13.8 12.8-27.1 11.6-62.3 5.5-93.2 23.7 4.9 42.7-24.3 38.7-45.9-2.3-12.4-12.3-22.5-24.2-26-.4-.1-.7-.2-1.1-.2 15-26.4 8.5-55.3-2.3-82.1-1.8-4.6-3.7-9.1-5.6-13.5 3.8-.6 7.5-2 10.8-4.4 15.7-11.3 16.3-37.3 16.7-54.6 0-1 0-2 0-3 3-.2 6-.9 9-2.4 7.5-3.8 14.1-12 16.8-20 6.4-21.1-16-39.7-35.8-32.2zm-769-42.9c.4-.9.6-1.8.8-2.7 1.8-1.3 3.6-2.5 5.5-3.7-2 2.2-4.1 4.3-6.3 6.4z"
                  fill="none"/>
            <g>
                <g fill="#3c3c30">
                    <path d="m320.1 160.3c-23 .4-42.5-4.2-64-12-16.6-6-32.3-12.6-50.3-10.5-3.9.4-5.5 5.5-3.1 8.4 25.1 29.5 63.4 29.8 99.8 27.5-12.9 7.4-25.1 16.1-36.2 26.3-1.2-2.3-3.8-3.9-6.9-2.8-10.1 3.5-21.1 6.6-30.6 11.5-5.2 2.7-9.4 8.1-6.6 14 2.8 5.8 9.5 6.2 14.8 4.1 3.6-1.4 7.1-3.3 10.6-5.3-2.3 2.9-4.6 5.8-6.4 8.8-3 4.9-4.8 10.7-.5 15.3 1.7 1.7 4.7 2.5 6.6.6 8.7-8.3 13.8-21.4 18.8-32.9 1.3-1.4 2.3-2.4 2.7-2.8 1-1 1.2-2.2 1.1-3.4 12.7-10.6 25.8-19.1 39.4-26-1.1 1.5-2.1 3.1-3 4.7-24.8 31-72.4 97.7-43.3 117.3 1.4 1 3.5 1.3 5.1.5 13.6-7.3 15.6-30.4 20.2-43.6 10-29 17.7-60 38.3-83.5 1-1.1 1.2-2.4.9-3.7 1-.4 2-.7 3-1.1.3-.1.7-.2 1-.4 5.3-2 10.6-3.9 16-5.6-28 32-64.2 80.3-48.2 119.1 1.5 3.5 6.9 4.1 8.9.8 10.4-16.4 16.4-33.7 22.4-52.1 7.6-23.1 18.1-42.9 29.9-64.1 1.2-2.2.7-4.2-.5-5.5.6-.8 1.3-1.6 1.9-2.3 7.7-2 15.5-3.7 23.3-5.2-15.1 18.8-27.6 39.1-36.9 61.5-6 14.5-14.4 31.1-6.5 46.2 1.6 3.1 5.2 3.8 8 1.8 12.8-8.9 16-28.1 20.8-42.1 8-23.2 16.1-45.2 29.7-65.8 1-1.6 1.1-3.1.6-4.5 15-2.5 30.2-4.4 45.5-6.4-16.7 11.2-30.5 25.9-40.1 44.1-4.8 9.1-19.3 37.7-9.7 47.6 10.4 10.7 17.9-6 21.9-13.8 13.1-25.9 20.3-52 39.8-74.3.6-.7.9-1.4 1-2.1.8-.5 1.6-1.1 2.4-1.6s1.2-1.3 1.4-2.1c4.3-.6 8.6-1.1 12.9-1.7 4.8-.7 4.6-8.6-.4-8.5-1.2 0-2.3.1-3.5.1-.1-.2-.2-.5-.4-.7-.1-1.4-.6-2.8-1.9-3.9-2.4-2.1-4.8-3.9-7.2-5.9-17.7-18.3-37.3-35-59.2-48-10.2-6.1-31.8-21.3-42.7-11.4-1.5 1.4-2.5 4-1.4 6 7.9 13.2 28.8 19 41.4 25.9 13.6 7.4 26.2 15.8 38.8 24.6-21.2-6.2-41.9-12-62.5-21.7-5.7-2.7-29.4-19.2-33.7-4-3.6 12.5 20 20.1 27.6 23.8 18 8.6 36.5 14.5 55.8 18.1-13.3 1.3-26.5 3.2-39.7 5.8-.7-1.2-1.8-2.2-3.7-2.4-32.1-3.6-57-24.1-85.4-37.6-9.7-4.6-26.3-9.2-30.4 5.6-7.7 27.7 51.9 37.7 88.7 41.9-11.2 3.3-22.2 7.2-32.8 11.9-.1-1.4-1.3-2.5-3.3-2.5zm33.5 84.2c2.8-9.5 6-18.7 9.5-27.9-2.6 9.5-5.4 19.6-9.5 27.9z"/>
                    <path d="m162.9 633.8c-1.2 22.9-7.2 42.1-16.5 63-7.2 16.2-14.8 31.4-14 49.4.2 3.9 5.1 5.9 8.1 3.7 31.2-23 34.2-61.2 34.4-97.6 6.5 13.4 14.3 26.1 23.7 37.9-2.3 1.1-4.2 3.6-3.3 6.7 2.8 10.3 5.1 21.5 9.4 31.3 2.3 5.3 7.4 9.9 13.5 7.5 6-2.4 6.9-9 5.1-14.5-1.2-3.7-2.8-7.4-4.6-11 2.7 2.5 5.4 4.9 8.4 7.1 4.6 3.3 10.3 5.6 15.2 1.5 1.9-1.5 2.8-4.5 1.1-6.6-7.6-9.2-20.4-15.2-31.5-21.1-1.3-1.4-2.2-2.4-2.6-2.9-1-1-2.1-1.4-3.3-1.3-9.7-13.4-17.2-27.1-23.2-41.2 1.5 1.2 3 2.3 4.5 3.4 29.1 26.9 92.4 79.1 114 51.4 1.1-1.4 1.6-3.4.8-5-6.3-14.1-29.2-17.7-42-23.2-28.2-12-58.6-21.9-80.6-44-1.1-1.1-2.4-1.4-3.6-1.2-.3-1-.6-2-.9-3-.1-.4-.1-.7-.3-1-1.6-5.4-3.1-10.9-4.4-16.4 30 30.2 75.6 69.7 115.4 56.4 3.6-1.2 4.6-6.6 1.4-8.9-15.7-11.5-32.5-18.7-50.4-26-22.5-9.2-41.6-21-61.9-34.4-2.1-1.4-4.2-1-5.5.1-.7-.7-1.5-1.4-2.2-2.1-1.4-7.8-2.6-15.7-3.5-23.6 17.7 16.4 37.1 30.3 58.8 41.1 14.1 7 30.1 16.6 45.7 9.7 3.2-1.4 4.1-4.9 2.4-7.8-8-13.4-26.9-17.9-40.5-23.7-22.6-9.6-44-19.3-63.6-34.3-1.5-1.1-3.1-1.3-4.5-.9-1.4-15.1-2.3-30.4-3.1-45.9 10 17.5 23.7 32.2 41.2 43.1 8.7 5.4 36.3 21.9 46.9 13 11.4-9.6-4.7-18.3-12.2-22.8-25.2-14.7-50.7-23.7-71.6-44.7-.6-.6-1.3-1-2-1.1-.5-.8-1-1.7-1.5-2.5-.5-.9-1.2-1.3-2-1.5-.3-4.3-.5-8.7-.8-13-.3-4.8-8.3-5.2-8.6-.2-.1 1.2-.1 2.3-.1 3.5-.2.1-.5.2-.7.4-1.4 0-2.8.4-4 1.6-2.2 2.2-4.3 4.5-6.3 6.8-19.5 16.4-37.5 34.8-52 55.7-6.8 9.7-23.4 30.2-14.3 41.8 1.2 1.6 3.8 2.8 5.8 1.8 13.7-7 20.9-27.4 28.7-39.5 8.3-13 17.6-25.1 27.3-36.9-7.7 20.7-14.9 40.9-26 60.8-3.1 5.5-21.2 27.9-6.4 33.3 12.2 4.4 21.5-18.6 25.7-25.9 9.9-17.3 17-35.4 21.9-54.4.4 13.3 1.3 26.7 3 40-1.3.6-2.3 1.7-2.7 3.5-5.8 31.8-28 55.2-43.5 82.5-5.3 9.3-11 25.6 3.4 30.7 27.1 9.7 41.3-49.1 48.1-85.6 2.5 11.4 5.6 22.7 9.6 33.6-1.5.2-2.7 1.3-2.8 3.4zm86.3-27.5c-9.2-3.4-18.2-7.3-27.1-11.4 9.3 3.1 19.1 6.7 27.1 11.4z"/>
                    <path d="m320.6 267.5c-19.8-16.3-41.7-28.1-65.8-36.5 4.8-5.9 10-11.7 15.6-17.4 2.9-2.9 0-7.7-3.2-6.8 2-4.1-3-9.2-7.5-6-26.6 18.5-63.9 28-96.4 31.4-6 .6-5.3 9.1.1 10.1 20.9 3.5 42.3 3 62.8-3 4.3-1.3 9.4-2.8 14.4-4.7-.5.6-1 1.2-1.5 1.8-.9-.1-1.8.2-2.6 1-22.6 22.2-63.1 24.1-93 30.2-10.1 2-19.4 4.4-24.3 12-6.3 2.5-11.6 6.3-14.4 12.5-1.1 2.4.4 5.4 2.8 6.3 23 9.1 40.5 2.9 62.3-6.9 15.4-6.9 33.5-12.9 48.2-22.6-4.8 9.1-8.9 18.6-12.6 28.2-8.6 10.3-19 17.5-30.4 23.4-33.3 12-77.9 12.8-86.8 48.9-.8 3.1 2.8 6 5.7 5.5 27.7-4.6 52.7-15.1 76-30.6 8.4-5.6 17.6-11.6 25.8-18.6-1.9 6.8-3.7 13.6-5.2 20.6-.8.4-1.5 1-2.1 2-13.1 26.7-43.6 17.1-61.5 35.6-2.1 2.1-3 6.2.1 8.1 3.5 2.2 7.4 2.1 11.3 1.1-3.9 2.5-7.8 4.9-11.7 7.4-12.5 5.4-23.6 12.1-28.9 24.4-1.5 3.5 1.7 7.1 5.3 6.7 10.6-1.3 20.5-4.8 29.8-9.7-8.4 9.6-15.9 19.7-21.4 30.5-.6 1.3-.5 2.5 0 3.5-.9 2.7-.8 5.7.3 8.4.7 1.6 2.7 2.9 4.5 2.5 2.9-.7 5.5-1.9 7.9-3.4 13.1-2.4 22.8-20.1 30.1-29.4 7.9-9.8 18.7-21.4 26.5-33.8-.7 4.6-1.4 9.2-2.1 13.7-12.8 27.3-28.5 53.9-40.4 81.3-6.4 14.6-9.2 24-4.1 38.9 1.1 3.3 5.2 3.7 7.7 2 33-23 40.6-79.5 46.3-119.2 10.1 17.5 21 34.7 34.5 49.8 9.5 10.7 21.5 25.4 36.5 27.1 3.5.4 6.9-3.5 5.2-6.9-4.8-9.5-11.3-17.5-18.3-25.3 26.5 21.8 54.2 38.3 64.5 22.1 9.6-15.2-18.8-35.6-28.5-43.6-24.7-20.3-55.5-36-85.5-46.7-2.1-.8-3.8-.2-4.9 1 .9-5.6 1.9-11.2 2.9-16.7.5-.9 1-1.7 1.5-2.5.9-1.7.6-3.2-.2-4.3 2.3-12 4.9-23.8 7.9-35.3 17.2 19.7 81.3 90.9 96.6 61.6 7.5-14.4-16.6-33-26.3-39.2-11.1-7-23.8-11.1-35.4-17.2-10.9-5.7-19.8-14.1-30.8-19.2 1.7-5.5 3.5-10.9 5.4-16.2 2-3.6 3.5-7.4 4.5-11.4 9.2 19.8 22.2 37 39.7 50.5 8.7 6.8 30 23.4 42.5 19.3 10.7-3.6 9.8-13.1 2.7-19.6-9.4-8.6-24.1-13.8-34.9-20.8-5.1-3.3-10-6.9-14.8-10.5-4.6-4.3-9.1-8.6-13.2-13.4-1.6-1.9-13-14.2-12.2-17.1.7-2.4-.5-4.3-2.2-5.1 1.6-3.1 3-6.2 4.7-9.3.3 1.6.8 3.2 1.4 4.8 3.7 9.5 8.7 18.6 13.4 27.7.6 2.5 1.8 4.9 4.3 7.3 3.5 3.3 9.5-1.7 7.4-5.8-.8-1.5-1.5-2.9-2.3-4.4-.8-4 .9-9.3.9-12.8s-.7-6.9-1.7-10.2c-1-3.1-2.3-6.2-3.7-9.3 0 0 .1 0 .1.1 11.1 8.5 21.3 18 30.2 29 8.5 10.6 14.5 23.2 23.3 33.5 6.1 7.1 16.3 18.6 25 9.3 24.5-26.4-69.6-81.6-83.7-90.3-.4-.3-.9-.4-1.3-.5 2-2.9 4.1-5.8 6.2-8.6-.4 1.8 0 3.8 2 4.8 23.1 12.8 44.6 25.7 63.1 44.9 8.1 8.4 17.9 23.2 30.3 25.3 2.9.5 5.4-1.9 5.8-4.6 2.3-15.9-19.6-31.9-30.2-40.7zm18.1 31.8c-8.1-5.4-16.8-16.2-24.5-25.1 9.9 7.2 20.6 16.5 24.5 25.1z"/>
                    <path d="m277.4 658.3c-17 19.1-29.6 40.7-39 64.4-5.7-5-11.3-10.4-16.8-16.3-2.8-3-7.7-.3-6.9 3-4-2.1-9.3 2.6-6.3 7.3 17.5 27.3 25.6 64.9 27.8 97.5.4 6 8.9 5.7 10.1.3 4.3-20.8 4.6-42.1-.7-62.8-1.1-4.4-2.4-9.5-4.2-14.5.6.5 1.2 1 1.7 1.5-.1.9.1 1.8.9 2.6 21.3 23.4 21.7 64 26.7 94.1 1.7 10.2 3.6 19.6 11.1 24.8 2.3 6.4 5.9 11.8 12 14.9 2.4 1.2 5.4-.2 6.4-2.5 9.9-22.7 4.4-40.4-4.5-62.5-6.3-15.6-11.6-34-20.8-49 8.9 5.2 18.2 9.6 27.7 13.6 10 8.9 16.8 19.7 22.3 31.3 10.8 33.8 9.9 78.3 45.6 88.5 3.1.9 6.1-2.6 5.7-5.5-3.6-27.8-13.1-53.2-27.8-77.1-5.3-8.6-11-18-17.7-26.4 6.7 2.2 13.5 4.2 20.4 6 .4.8 1 1.6 2 2.1 26.2 14.1 15.5 44.2 33.3 62.8 2.1 2.2 6 3.2 8.1.2 2.3-3.4 2.4-7.3 1.5-11.3 2.3 4 4.6 8 7 12 4.9 12.7 11.2 24 23.3 29.8 3.4 1.6 7.1-1.4 6.8-5-.9-10.6-4-20.7-8.6-30.2 9.3 8.8 19.1 16.7 29.7 22.6 1.2.7 2.5.6 3.5.1 2.7 1 5.7 1 8.4 0 1.6-.6 3-2.6 2.7-4.4-.5-2.9-1.7-5.5-3.1-8-1.9-13.1-19.3-23.5-28.2-31.2-9.5-8.2-20.7-19.5-32.8-27.7 4.6.9 9.1 1.7 13.7 2.6 26.8 13.8 52.8 30.4 79.7 43.4 14.4 6.9 23.6 10.1 38.7 5.5 3.3-1 3.9-5.1 2.3-7.6-21.7-33.8-77.9-43.6-117.4-50.7 17.8-9.5 35.4-19.7 51-32.6 11-9.1 26.2-20.5 28.4-35.4.5-3.5-3.2-7-6.7-5.4-9.6 4.4-17.9 10.7-26 17.4 22.8-25.7 40.3-52.7 24.5-63.6-14.8-10.2-36.3 17.5-44.6 26.8-21.2 23.9-38 54.2-49.9 83.7-.8 2.1-.3 3.8.8 4.9-5.6-1.1-11.1-2.3-16.6-3.5-.8-.5-1.6-1.1-2.5-1.5-1.7-1-3.1-.7-4.3 0-11.9-2.7-23.6-5.8-34.9-9.2 20.4-16.5 93.9-77.9 65.1-94.2-14.1-8-33.6 15.3-40.1 24.8-7.4 10.9-12 23.4-18.5 34.8-6.1 10.7-14.8 19.3-20.4 30.1-5.4-1.9-10.7-3.9-16-6-3.5-2.1-7.2-3.8-11.2-4.9 20.1-8.5 37.8-20.8 52-37.8 7.1-8.5 24.5-29.1 20.9-41.8-3.2-10.8-12.7-10.3-19.5-3.4-9 9.1-14.7 23.6-22.1 34.1-3.5 5-7.2 9.8-11.1 14.4-4.4 4.4-9 8.8-13.9 12.7-1.9 1.5-14.7 12.4-17.6 11.5-2.3-.7-4.3.3-5.1 2-3-1.7-6.1-3.3-9.1-5.1 1.6-.3 3.2-.6 4.9-1.2 9.6-3.3 18.9-8 28.2-12.4 2.5-.5 5-1.6 7.5-4 3.5-3.4-1.4-9.6-5.6-7.6-1.5.7-3 1.4-4.5 2.1-4 .6-9.3-1.2-12.8-1.3s-6.9.4-10.2 1.3c-3.2.8-6.3 2.1-9.4 3.4 0 0 0-.1.1-.1 8.9-10.7 18.8-20.6 30.1-29.1 10.9-8.1 23.7-13.6 34.3-22 7.3-5.8 19.2-15.6 10.2-24.6-25.5-25.5-84.2 66.5-93.4 80.2-.3.4-.4.9-.5 1.3-2.8-2.1-5.6-4.3-8.4-6.6 1.8.5 3.7.1 4.9-1.8 13.7-22.6 27.3-43.6 47.2-61.4 8.7-7.7 23.8-17 26.4-29.3.6-2.9-1.7-5.4-4.4-6-15.5-3.5-32.4 17.8-41.5 28.1zm32.4-16.9c-5.7 7.9-16.8 16.1-26 23.5 7.6-9.6 17.3-20 26-23.5z"/>
                </g>
                <path d="m806.6 248.4c19.8 13.7 37.5 30.1 52.8 48.5 11.9 14.2 20.8 34.2 36.5 44.6 1.6 1.1 4.1 1.1 5.8 0 11.6-7.5 10.2-27.4 8.4-39.3-4.1-26.7-20.9-50.1-42.1-66.2-27.1-20.4-61.4-29.2-94-36-17.5-3.7-52.7-15.2-72.6-8-10.8-3.2-21.3-7.2-31.6-11.7 5.3 1.5 10.6 2.5 15.8 2.8 9.3 2.7 20.2 4.4 27.5.4 6.5-.3 11.7-1.9 13.3-6.2 4.4-11.5-14.6-21.3-22.4-25.5-.8-.4-1.6-.7-2.4-1.1 16.9 4.2 33.3 9.9 50.6 12.8 14.8 2.5 30.4-2.3 26.9-20.4-6.2-31.8-62.7-41-87.6-42.2-47.5-2.3-98.8 9.3-145.6 16.9-2.1-1.1-4.1-2.2-6.3-3.2-6.4-2.7-12 5.5-6.5 9.5-.1 1.3.4 2.8 1.9 3.8 7.1 4.6 14.1 9 21 13.6 17 16.4 28.4 37.8 34.6 61.6 7.3 28.3-1.8 53.5 1.3 81.4 2.5 22.1 12.9 40.1 33.7 23.1 30.7-25.1 19.6-71 5.9-101.5-2-4.5-4.2-8.7-6.6-12.8 41.9 43.9 78.1 88.1 73.9 156.1-.8 12.3-8.2 35 4.5 43.4 8.4 5.5 16.2.8 22.5-5.5 26.4-26.2 23.6-76.2 11.7-112.3 7.6 11.5 14.3 23.7 19.4 37.7 12.9 35.2 11.2 70.4 9.7 107.2-.6 15.5-5.5 40.3 11 49.3 9.9 5.4 21.6 1.9 29-6.4 20.9-23.3 14.7-70 4.9-105.5 4.8 6.1 9.5 12.4 14 18.7-.4.8-.5 1.9 0 3.1 2.8 6.9 5 13.8 7 20.7 6.9 72.9-40.3 120.8-84 173.3-11.4 13.8-43.4 52.4-7.8 60.6 34.3 7.9 67.3-53.5 78.3-76.4 4.8-10.1 9-20.4 12.6-30.8-8.7 38-21.2 74-34.7 111.2-18.1 18.1-45.4 29.4-64.8 45.1-21.4 17.5-42.2 35.3-49.4 63-.9 3.6 1.7 6.7 5.3 6.9 26.9 1.9 48.5-19 67-36.2 12-11.1 22.9-23.1 32.9-35.8-14.1 33.4-33.8 63.3-58.4 88.4-.1 0-.2-.1-.2-.1-20.9-.9-42.7-.3-63.3 3.4-8.5 1.5-18.7 6.3-16.3 16.8 2.5 10.7 15.1 8.7 23.3 7.4 10.7-1.8 22.8-3.8 34.1-7.1-11 8.9-22.8 16.9-35.4 23.9-.5-.5-1-.9-1.8-1-26-4.2-52.2-7.8-78.3-10.8-27.3-3.2-46.2 3-72.8 7-4 .6-4.7 6.1-2.3 8.6 17.4 18 47.6 24.4 77.9 23.7-41.9 14.1-84.2 27.8-125.4 43.6-14.3 5.5-29.5 14.9-14.6 29.8 20 19.8 66.2-2.1 85.1-10.3 31.9-13.9 59.8-33.4 84.2-57.5 22.9-7 45-17.1 65.4-29.9-10.5 15.3-21.8 30-34.4 43.8-9.4 10.3-20.3 19.8-28 31.6-6.8 10.5-16.2 33.8.8 40.3 19.3 7.4 33.4-22.3 40.3-34.1 18.2-30.9 34.8-63.7 45.8-97.9.1-.4.1-.7.1-1 6.8-5.3 13.2-11.1 19.4-17-13.6 24.5-26.3 49.7-34.4 76.5-3.1 10.3-12.8 35.1-6.9 48.2-.2 8.6 2 16.7 8.8 21.9 1.7 1.3 4 .8 5.7 0 20.4-9.3 27-38.8 32.5-58.4 8.3-29.3 12.4-58.9 13.5-89.1.3-1.1.6-2.2.9-3.3.5-1.6.1-3.1-.7-4.3 0-1.2.1-2.4.1-3.7 0-2.5-1.7-3.8-3.6-4 19.7-21.9 35.8-47 47-74.1-5.2 19.8-9.9 39.8-13.3 60-3.5 20.2-10.3 46.8-5.2 66.9.6 2.4 3 4.1 5.4 4.1 17.7.1 22.9-29.5 26.1-42.4 2.8-11.2 4.5-22.5 5.6-33.9 1.3 17 2.6 34 4.1 51.1 1.4 15.1 7.6 52.7 31.9 44 22.7-8.1 18.6-63.2 17-80-4.6-46.9-26.5-89.6-51.8-128.5-.2-.3-.5-.5-.7-.7 7.5-19.4 13.9-39.1 19.4-59.2 2.3 31.5 7.3 72.8 16.3 100.4 1.3 6.8 3.4 13.1 7.2 17 5.4 9.6 11.8 14.8 19.5 12.6 14.9-4.2 9-24.6 4.9-37.2 2.1 1 4.5 1.2 7.1.3 11.8-4.4 1.3-24.5-1.1-30.7-13.9-36-37.3-67-37-107.2 0-1.1-.4-1.9-.9-2.5 0-2.4.1-4.8.2-7.3.3 1.9.6 3.8.9 5.7 3.2 18.5 16.6 63.7 43.7 38.5 23.6-22-3.8-84.1-12.6-106.2-5.8-14.7-12.7-28.8-20.4-42.4 8.5 10.4 18 19.6 31.3 23.9 3.2 1 7.4-1.8 7.1-5.4-2-22.4-13.7-39.3-30.5-53.8-17.3-14.9-36.1-28.3-54.7-41.7 1.2-.9 2-2.2 1.9-3.9-1.2-29.1-20-47.8-39.9-65.8-7.1-8.9-14.1-17.6-20.4-26.9 18 10.4 34.2 23.1 48.3 40.3 12.4 15.3 22.8 48.4 44.9 52.5 2.7.5 4.9-.4 6.4-2.6 13.7-19.9-19.6-54.1-32.5-64.7-15.3-12.6-33.1-22.8-51.7-31.1-11.3-7.7-23.5-14.1-36.2-18.8.2-.7.2-1.4.1-2.1 24.8 7.9 48.3 19 70.2 34.1zm81.7 62.6c.3.4.6.5.9.8 1 1.9 2 3.8 3 5.6-9.5-3.1-23.2-26.8-28.1-32.5-1.3-1.5-2.6-2.8-3.9-4.3 9.9 9.4 19.3 19.5 28.1 30.4zm-135.7-165.2c.2 0 .4.1.6.1-4.7 3.2-15.9 1-24.6-1.1 7.2.6 14.4 1.1 21.7 1.6.9.1 1.6-.2 2.3-.6zm-2.9-17.5c.1.1.1.2.1.2-7.1-4-15-7.9-23.5-11.4 10.4 2.4 19.8 5.9 23.4 11.2zm-35.2-4.4c-11.8-2.3-23.5-4.5-35.3-6.5-2.2-.4-4.4-.8-6.7-1.3 14.1.7 28.4 3.5 42 7.8zm-47.7 26c5.8 1 11.6 2.3 17.3 4.2 6.9 2.3 20.3 8.6 24.9 12.9-12.9-7.5-26.5-13-40.6-16.3-.6-.3-1.1-.5-1.6-.8zm48.8 221.3c-.5.2-1 .5-1.3 1-1.2-1.1-2.4-2.8-3.7-5.3-.1-.1-.1-.4-.2-.5 1-.5 1.8-1.3 2.2-2.6 3.1-10.4 4.5-21 4.5-31.7.9 4.6 1.7 9.2 2.5 13.9-.8 8.3-2.1 16.7-4 25.2zm32.8 222.2c-.1-2.5 1.2-5.2 4.4-8.1.1-.2.2-.3.2-.5.7.8 1.6 1.4 2.6 1.6-2.4 2.3-4.8 4.7-7.2 7zm17.4 9.9c-.3.5-.5 1-.6 1.4-1.3-.4-2.4-.8-3.6-1.2 6.1-5 11.5-10.5 16.3-16.5-4.1 5.5-8.1 10.9-12.1 16.3zm-102.4 184.2c-1.5-1.5-.4-2.7 1.7-3.7.2 1.5 1.1 2.8 2.8 3.1 4.1.6 7.8-.5 11.7-1.3-7.3 2-14.6 3.5-16.2 1.9zm-160.3 120.2c2.4-1 4.9-2 7.3-3 9.2-1.8 18.3-5.3 26.9-9.5-11.8 6.1-24.2 11.4-34.2 12.5zm353.7-132.2c0 1.9.2 3.8.1 5.8-.1 3.2-.3 8.9-.9 15.2-.9-.2-1.9-.1-2.8.1 1.8-7 3-14 3.6-21.1zm-11.8 43.8c.2-.4.4-.9.6-1.3 2 .8 4.3.6 6.1-1.1.3-.2.4-.4.7-.6.1 0 .2-.1.4-.1-2.3 7.7-5.6 11.8-10.5 5.7 1-.5 2-1.3 2.7-2.6zm-14.9-56.7c.2 9.7.2 19.5-.1 29.2-1.3-9.2 0-20.2 0-29.4.1 0 .1.1.1.2zm-.5-14.5c0 .6-.1 1.3-.1 1.9-.6-12.2-1.4-24.3-2.6-36.4 1.3 11.5 2.2 23 2.7 34.5zm55.9-331.9c-5.5-8.8-11.5-17.2-18.2-25.2 7.6 7.4 14.1 15.6 18.2 25.2zm-35.5-40.2c1.5 1.2 3.1 2.5 4.6 3.7-.9.2-1.6.8-2.1 1.6-4.4-4.7-8.9-9.4-13.4-14.1 3.6 3 7.2 5.9 10.9 8.8zm-58.3-32.2c6.2 15.7 8.2 34.2 7.4 52.3-.8-14.2-2.6-28.2-5.5-42-.5-3.5-1.2-6.9-1.9-10.3zm11.2 98.1c-2.1 2.8-4 5-5.7 6.8 0-.4.1-.8.1-1.1 3.6-6.6 6.4-14.3 8.4-22.6-.2 7.5-.9 14.5-2.8 16.9zm3.3-117.9c-8.2-7.5-14.2-22.6-19.7-35.7 9.4 10.4 17 21.9 19.7 35.7zm-22.7 127.7c.1-.7.2-1.4.3-2.1.6.2 1.2.2 1.9.1v1c-.1 1.9.9 3.3 2.3 4.3-2.1.3-3.7-.5-4.9-2 .1-.4.3-.8.4-1.3zm36.8-174.5c4.2 4.9 8.1 9.9 11.4 15.4 1.7 2.8 8.9 13.4 8.7 17.5-.2.3-.4.6-.6.9-.8-.8-1.6-1.6-2.6-2.7-4.1-4.5-6.6-11.4-9.9-16.5-4.8-7.6-10.3-15-16.4-22.1 3.2 2.4 6.3 4.9 9.4 7.5zm-76.1-42.5c.9 1.7 1.9 3.3 2.9 5-3.5-2.7-7-5.4-10.5-7.9 2.5.9 5.1 1.9 7.6 2.9zm-11.3 91.1c-.2-9.3-1.2-18.4-2.9-27.4-.3-3.7-.8-7.3-1.4-10.9 3.3 12.5 4.9 25.5 4.3 38.3z"
                      fill="#3c3c30"/>
                <path d="m657.4 154.1c-6.8-3.9-13.4-4.1-19.1-2.1-1.7.4-3.4 1-5.2 1.8-10.8 5.2-16.7 18.1-12.5 29.5 0 .1.1.2.1.3-1 23 30.4 31.6 44.2 12.2 3.2-4.5 4.7-9.6 4.9-14.6 1.5-10.3-2-21.2-12.4-27.1z"
                      fill="#c94949"/>
                <path d="m838.1 511c-7.6-4.3-15-4.6-21.3-2.3-1.9.5-3.8 1.1-5.7 2.1-12 5.7-18.7 20.2-14 32.9 0 .1.1.2.1.3-1.1 25.6 33.9 35.2 49.3 13.5 3.6-5 5.2-10.7 5.4-16.3 1.7-11.5-2.2-23.6-13.8-30.2z"
                      fill="#c94949"/>
                <path d="m658.1 810c-7.6-4.3-15-4.6-21.3-2.3-1.9.5-3.8 1.1-5.7 2.1-12 5.7-18.7 20.2-14 32.9 0 .1.1.2.1.3-1.1 25.6 33.9 35.2 49.3 13.5 3.6-5 5.2-10.7 5.4-16.3 1.7-11.4-2.1-23.6-13.8-30.2z"
                      fill="#c94949"/>
                <path d="m767.5 731.4c-7.6-4.3-15-4.6-21.3-2.3-1.9.5-3.8 1.1-5.7 2.1-12 5.7-18.7 20.2-14 32.9 0 .1.1.2.1.3-1.1 25.6 33.9 35.2 49.3 13.5 3.6-5 5.2-10.7 5.4-16.3 1.8-11.4-2.1-23.6-13.8-30.2z"
                      fill="#c94949"/>
                <path d="m711.4 130.7c-15.6-1.5-28.9 9.3-32.5 24.2-3.3 13.6 1.8 31.2 15.2 36.9 4.7 5.5 12.1 8.8 20.3 7.8 16.9-2.1 26.6-18.4 25.2-34.4-1.4-15.7-11.2-32.9-28.2-34.5z"
                      fill="#c94949"/>
                <path d="m863.6 617c.5-3 .2-6.2-1.1-9.3-5.1-12-20.2-14.8-30.3-7-10 7.7-11.2 23.6-1.7 32.3 8.9 8.2 23.5 7 30.2-3.3 2.6-4.2 3.4-8.6 2.9-12.7z"
                      fill="#c94949"/>
                <path d="m488.1 847.1c.5-3 .2-6.2-1.1-9.3-5.1-12-20.2-14.8-30.3-7-10 7.7-11.2 23.6-1.7 32.3 8.9 8.2 23.5 7 30.2-3.3 2.7-4.2 3.5-8.6 2.9-12.7z"
                      fill="#c94949"/>
                <path d="m536.5 875.8c.5-3 .2-6.2-1.1-9.3-5.1-12-20.2-14.8-30.3-7-10 7.7-11.2 23.6-1.7 32.3 8.9 8.2 23.5 7 30.2-3.3 2.6-4.2 3.4-8.5 2.9-12.7z"
                      fill="#c94949"/>
                <path d="m883.4 354.7c.5-3 .2-6.2-1.1-9.3-5.1-12-20.2-14.8-30.3-7-10 7.7-11.2 23.6-1.7 32.3 8.9 8.2 23.5 7 30.2-3.3 2.7-4.2 3.5-8.6 2.9-12.7z"
                      fill="#c94949"/>
                <path d="m583.5 920.8c.3-1.8.1-3.6-.7-5.4-3-7-11.8-8.7-17.7-4.1-5.9 4.5-6.5 13.8-1 18.9 5.2 4.8 13.8 4.1 17.7-1.9 1.6-2.5 2-5.1 1.7-7.5z"
                      fill="#b73734"/>
                <path d="m166.6 429.4c.3-1.8.1-3.6-.7-5.4-3-7-11.8-8.7-17.7-4.1-5.9 4.5-6.5 13.8-1 18.9 5.2 4.8 13.8 4.1 17.7-1.9 1.6-2.5 2-5.1 1.7-7.5z"
                      fill="#b73734"/>
                <path d="m793.3 854.9c.3-1.8.1-3.6-.7-5.4-3-7-11.8-8.7-17.7-4.1-5.9 4.5-6.5 13.8-1 18.9 5.2 4.8 13.8 4.1 17.7-1.9 1.6-2.5 2-5 1.7-7.5z"
                      fill="#b73734"/>
                <path d="m934.5 497.4c.3-1.8.1-3.6-.7-5.4-3-7-11.8-8.7-17.7-4.1-5.9 4.5-6.5 13.8-1 18.9 5.2 4.8 13.8 4.1 17.7-1.9 1.6-2.6 2-5.1 1.7-7.5z"
                      fill="#b73734"/>
                <path d="m213.1 497.4c.3-1.8.1-3.6-.7-5.4-3-7-11.8-8.7-17.7-4.1-5.9 4.5-6.5 13.8-1 18.9 5.2 4.8 13.8 4.1 17.7-1.9 1.6-2.6 2-5.1 1.7-7.5z"
                      fill="#b73734"/>
                <path d="m189.8 292.6c.3-1.8.1-3.6-.7-5.4-3-7-11.8-8.7-17.7-4.1-5.9 4.5-6.5 13.8-1 18.9 5.2 4.8 13.8 4.1 17.7-1.9 1.6-2.5 2.1-5.1 1.7-7.5z"
                      fill="#b73734"/>
                <path d="m373.8 165c.3-1.8.1-3.6-.7-5.4-3-7-11.8-8.7-17.7-4.1-5.9 4.5-6.5 13.8-1 18.9 5.2 4.8 13.8 4.1 17.7-1.9 1.6-2.5 2.1-5.1 1.7-7.5z"
                      fill="#b73734"/>
                <path d="m201.5 750.6c.3-1.8.1-3.6-.7-5.4-3-7-11.8-8.7-17.7-4.1-5.9 4.5-6.5 13.8-1 18.9 5.2 4.8 13.8 4.1 17.7-1.9 1.5-2.5 2-5.1 1.7-7.5z"
                      fill="#b73734"/>
                <path d="m385.5 750.6c.3-1.8.1-3.6-.7-5.4-3-7-11.8-8.7-17.7-4.1-5.9 4.5-6.5 13.8-1 18.9 5.2 4.8 13.8 4.1 17.7-1.9 1.5-2.5 2-5.1 1.7-7.5z"
                      fill="#b73734"/>
                <path d="m569.2 126.3c-1.7-.4-3.4-.6-5-.9-.6-1-1.6-1.8-3.2-1.8-2.4 0-4.7 0-7 .1-31.2-4.2-64.6 0-94.4 7.9-5.1 1.3-4.2 10 1.3 9.4 1.6-.2 3.2-.4 4.8-.5.5 2 2 3.8 4.4 3.6 13.1-.7 25.3-5.4 38.1-7.9 5.4-1 10.9-1.7 16.4-2.3 14.3-1 28.7-1.2 43.6.4 4.4.3 5.3-7 1-8z"
                      fill="#3c3c30"/>
                <path d="m725.3 145.8c-1.4-2.3-5.7-.8-4.6 2 2.5 6.5 4.8 13.2 4.3 20.2-.5 3.6-1.6 7-3.5 9.8-3.9 5-9.3 6.9-15.7 6.6-3-.2-3.7 4.8-.7 5.3.2 0 .5 0 .7.1h.1c6.1.8 12-.7 16.4-4.4.4-.3.7-.6 1-.9.2-.2.3-.3.5-.5 2.5-2.5 4.5-5.7 5.7-8.7 4.1-10.2 1.3-20.7-4.2-29.5z"
                      fill="#b73734"/>
                <path d="m661.3 165.3c-1.3-2.5-4.8-.7-4.3 1.8 1.3 6.8 1.7 14.3-2.5 20.3-1.8 2.5-4.1 4.5-7 5.6-2 .7-3.5.6-5.4 1.8-.6.4-.8 1.1-.8 1.7-.3-.2-.6-.2-.8-.5-.4-.4-1.2 0-1 .6 2.7 7.2 15.3-.2 18.6-3.5 7.4-7.7 8.1-18.8 3.2-27.8z"
                      fill="#b73734"/>
                <path d="m875 342.2c-.7-.4-1.6-.2-2 .5-2.3 3.6.3 8.3-.3 12.5-.8 5.5-4 10.2-9.6 11.6-2.6.6-2.1 5 .6 4.8.2 0 .4-.1.6-.1v.1c.2 0 .3-.1.4-.2 8.8-1.3 13.4-8.6 13.3-16.4.9-5 .6-10.8-3-12.8z"
                      fill="#b73734"/>
                <path d="m843.4 522.6c-.3-.8-.8-1.2-1.5-1.4-.3-.8-.6-1.6-1-2.5-2.2-4.5-7.2 1.5-4.7 3.6 1.5 3.2 2.2 6.5 2.2 9.6-.3 2.7-.7 5.3-1.4 7.9-2.7 7.5-9.1 13.9-17.2 17.1-3.5 1.4-2.2 6.2 1.5 5.6 5.7-.9 10-3.3 13.2-6.7 2.1-1.4 4-3.2 5.5-5.1 6.5-8.1 6.6-18.6 3.4-28.1z"
                      fill="#b73734"/>
                <path d="m860.9 612.9c-.1-2.4-3.4-2.9-4.2-.6-1.5 4.7-3.3 10.2-8 12.5-2.3 1.1-4.1.9-6.3.2-1-.3-1.6-.5-2.6 0-1.6.8-1.6 2.9-.5 4.1 3.2 3.6 10 1.5 13.3-.8.4-.3.6-.6.9-.9 4.7-3.2 7.5-8.7 7.4-14.5z"
                      fill="#b73734"/>
                <path d="m773.8 750.7c-.1-.6-.1-1.1-.3-1.7-.6-2.7-4.5-1.9-4.6.6-.4 6.3-.8 12.9-4 18.5-3.8 6.6-11 9.8-18.1 6.4-3.2-1.5-6.1 3.2-2.8 4.8 4.2 2.1 8.7 2.7 12.8 1.7 4.5-.7 8.7-2.8 12.1-6.3 5.5-5.7 8.5-16.3 4.9-24z"
                      fill="#b73734"/>
                <path d="m665 831.9c0-.3-.2-.6-.5-.7-.2-2.4-.7-4.7-1.6-6.9-1.4-3.5-6.5-2.2-5.7 1.6s1.6 8.1 1.6 12.3c-.4 2.9-1.2 5.7-2.8 8.3-3.9 6.2-11.5 9.8-18.5 7.2-1.5-.8-3-1.7-4.7-2.5-2.1-1-4.3 1-3.2 3.2 4.7 9.2 19 8.6 26.2 3.1 5.9-4.4 7.9-10.8 8.2-17.6.8-2.6 1.1-5.3 1-8z"
                      fill="#b73734"/>
                <path d="m531.4 868c-.8-3.4-6.1-2-5.3 1.5 1.2 4.7.8 10-2.4 13.9-.6.8-1.4 1.4-2.2 2-3.2 1.7-7.1 2.1-10.6 1-2.6-.8-4.6 3.4-1.9 4.6.2.1.4.1.6.2v.1c.2.1.4 0 .7.1 5.6 2 11.8.8 16.2-3.3 5.5-5.1 6.5-13.1 4.9-20.1z"
                      fill="#b73734"/>
                <path d="m481 837.7c-1.4-2.9-5.5-.4-4.2 2.5.5.9.7 1.8 1 2.7.1.3.2.7.2 1.1 1.3 7.3-4.3 14.1-12.4 14.2-2.4 0-3 3.6-.6 4.3 3.1.8 5.9.5 8.2-.6 4-.1 7.6-3.6 9.1-7.3 2.2-5.6 1.2-11.7-1.3-16.9z"
                      fill="#b73734"/>
                <g fill="#fff">
                    <path d="m699.5 138c-4 .7-6.6 6-7.9 9.4-1 2.7-1.4 5.4-1.3 8-.2 1.7-.3 3.4-.2 5 .1 2.4 3.5 3.6 4.7 1.3 3-5.6 6.5-11.2 8.7-17.1 1.2-3.2.2-7.4-4-6.6z"/>
                    <path d="m692.5 169.8c-.5-.7-1.4-.4-1.5.4-.3 2.5-.2 5.2 2 6.8.3.3 1 .1 1.2-.3 1.1-2.4-.2-4.9-1.7-6.9z"/>
                    <path d="m639.2 159.5c-3.8.6-6.7 3.2-8.1 6.7-.3.6-.4 1.3-.5 1.9-.2.3-.4.6-.5.8-2 3.8-.3 7.9 1.3 11.5.9 1.9 3.5 1.1 4.1-.5 2.1-5.9 4.3-11.9 6.2-17.9.5-1.7-1.1-2.8-2.5-2.5z"/>
                    <path d="m632.2 187.9c-.6 1.3-.6 1.4-1.1 2.8-.3 1.1 1.4 1.6 1.8.5.4-.8.6-1.7.8-2.6.2-1-1.1-1.6-1.5-.7z"/>
                    <path d="m728.8 242.6c-.2-1.3-1.1-2.1-2.4-1.9-8 1.6-7.1 12.2-4.6 19.9 0 1.9.5 3.7 1.6 5.5.3.4.6.6 1.1.8.1.1.1.2.2.3.3.4.7.2.9-.1 1.5 0 2.9-1.2 2.2-2.8-3-6.9 1.9-14.5 1-21.7z"/>
                    <path d="m860 341.2c-2 .4-3.6 1.4-4.6 2.9-.1 0-.2 0-.3 0-3 1.4-3.6 5.3-1.4 7.6.8.8 2.1.6 2.7-.3 1.7-2.7 3.4-5.5 5.1-8.2.7-1-.4-2.2-1.5-2z"/>
                    <path d="m851.8 357.6c-1.3.8-1.6 2-1.2 3.5.3 1.1 1.9.6 1.7-.5-.1-.8.1-1.4.6-1.9.5-.7-.4-1.5-1.1-1.1z"/>
                    <path d="m921.1 493.7c-.1-.3-.3-.6-.6-.6-1-.1-1.6.2-2 .8-.3.1-.6.4-.6.7v.4c.1.6.4 1.1 1.1 1.1 1.4 0 2.4-1 2.1-2.4z"/>
                    <path d="m928.4 504s-.7-.4-.7-.5c-.4-.2-1.1.1-.9.7 0 .1.1.2.1.4.2.6 1.1.8 1.4.2.1-.3.1-.4.1-.8z"/>
                    <path d="m815.9 516.5c-3.9-.1-7.4 3.3-9.1 6.4-2.3 4.2-2.4 9-1.4 13.5 0 .2.2.2.3.2v.3c.5 1.5 2.6 2.3 3.7 1 2.4-2.5 15.9-21 6.5-21.4z"/>
                    <path d="m805.7 547.4c-.2 1.4-.3 1.4-.1 2.7.1.6.8 1.1 1.3.5.8-1 .8-1 1.4-2.2.9-2-2.3-2.9-2.6-1z"/>
                    <path d="m839.3 603.3c-2.6.9-4.4 2.8-5.6 5-1 1.5-1.6 3.1-1.1 4.5 0 .2-.1.4-.1.6 0 .5.6.8 1 .7.2.2.4.4.7.6 4.1 2.1 9.7-4.3 11-7.5 1.8-4.3-2.8-5-5.9-3.9z"/>
                    <path d="m832.8 619.7c-.2-.1-.4-.2-.6-.3-.5-.2-1.2.1-1.4.6-.4.9-.5 1.1-.2 2 .3.7 1.5.9 1.7 0 .2-.2.3-.3.5-.5.9-.3.9-1.4 0-1.8z"/>
                    <path d="m754.8 735.4c-4.7-2.1-10.1 1.7-13 5.1-3.1 3.5-4.9 7.8-5.5 12.4-.2.6-.3 1.2-.4 1.8-.4 2.4 2.7 4 4.1 1.7 1.8-2.9 4.1-5.4 6.8-7.4 2.4-1.8 5.2-2.6 7.7-4.2 3.4-2.2 4.6-7.4.3-9.4z"/>
                    <path d="m736.5 763.9c-1.3.2-1.6 1.4-1.2 2.3 0 .5.2.9.7 1.5.4.5 1.3.5 1.8 0 1.1-1.2.9-4.1-1.3-3.8z"/>
                    <path d="m780.3 847.8c-.3-.2-.5-.2-.8-.3-.2-.2-.5-.3-.9-.3-2.9.5-3.7 4.1-2.8 6.5v.1c0 .3.2.5.5.6.4.4 1 .7 1.5.5 2.4-1 5.7-5.1 2.5-7.1z"/>
                    <path d="m786.9 860.3c-.5-1.7-2.7.6-1 1 .1 0 .2 0 .3.1.5.1.9-.3.8-.8 0-.1 0-.2-.1-.3z"/>
                    <path d="m571.3 914.3c-1 0-1.8.3-2.6.7-.4-.1-.9 0-1.2.3-.8.7-1 1.4-1 2.1-.1 1.3.6 2.5 2.3 2.6 2.7.2 3.5-2.6 3.5-4.7 0-.5-.5-1-1-1z"/>
                    <path d="m572.5 927.5.3.4c.4.6 1.3.6 1.7 0l.3-.4c1.5-2.4-4-2.4-2.3 0z"/>
                    <path d="m641.9 815.2c-4.4-2.4-7.9.5-10.2 4.5-2.1 2.1-3.9 4.8-4.1 7.5-.3 3.2 1.2 7.2 5 5.7 4.5-1.8 17.5-13.1 9.3-17.7z"/>
                    <path d="m630.2 842.1c-.2-.2-.4-.2-.6-.3-.3-.2-.6-.1-.8.2 0 .1-.1.1-.1.2-1.3.9-1.5 2.3-.5 3.5.4.5.9.2 1.1-.2.5.1 1-.1 1.3-.5.6-1.2.5-2-.4-2.9z"/>
                    <path d="m514.1 859.8c-2.8-1.3-5.9 1.5-7.3 3.6-.5.8-.9 1.6-1.2 2.5-1.6 2.4-2.1 5.8-1.9 8.1.2 1.5 1.6 2.5 3.1 1.8 3.7-2 6.6-5 8.3-8.8 1.1-2.3 1.8-5.8-1-7.2z"/>
                    <path d="m506.6 880.8c-.3-.2-.5-.5-.8-.7-.7-.6-2 0-1.6.9.1.3.2.6.3.9.2.7.8 1 1.5.9.2 0 .4 0 .5-.2.1-.1.2-.3.3-.4.2-.3.2-1-.2-1.4z"/>
                    <path d="m465.7 830.6c-3-1.2-6 1.3-7.4 3.7-1.2 2-1.9 4.4-2.2 6.8-.7 1.8-1 3.8-1 5.8 0 1.3 1.6 2.4 2.7 1.6 2.9-2.1 15.3-14.9 7.9-17.9z"/>
                    <path d="m454.8 854c-.1.6-.1 1 .4 1.4.3.2.7.2.9 0 2.6-.5-1-3.7-1.3-1.4z"/>
                    <path d="m373.8 744.3c-.1-.4-.6-.8-1-.8h-.1c-2.5-2.4-6.9.9-4.8 4.1 2.4 3.7 6.9.4 5.9-3.3z"/>
                    <path d="m367.9 756.5.3.4c.3.5.9.5 1.2 0 .1-.1.2-.3.3-.4 1.3-1.8-3.1-1.8-1.8 0z"/>
                    <path d="m194.2 744.7c0-1.3-.8-2.7-2.4-2.9-2.9-.2-4.5 3.5-2.5 5.6 1.8 1.9 5.5.8 5.2-2-.1-.3-.2-.4-.3-.7z"/>
                    <path d="m187.6 757.6c-1.7 0-1.7 2.7 0 2.7 1.8 0 1.8-2.7 0-2.7z"/>
                    <path d="m207.5 492.3c.3-.9 0-2-1.3-2.6-2.8-1.5-5.5 1.9-4 4.5 1.4 2.4 5.5 1.6 5.4-1.4 0-.2-.1-.3-.1-.5z"/>
                    <path d="m199.3 502.9c0-.1 0-.1 0 0-.6-.3-1.2 0-1.3.7v.4c-.1.7.6 1 1.2.9.1 0 .3 0 .4-.1.3 0 .5-.3.6-.6 0-.1.1-.2.1-.4.2-.7-.5-1.1-1-.9z"/>
                    <path d="m154.3 423.4c-1-1.1-2.1-1.2-3-.7-3-.1-4.5 4.2-1.5 6 3.1 1.9 6.9-2.4 4.5-5.3z"/>
                    <path d="m157.8 435.9c.4 1.3 2.6.7 2.1-.4-.4-1.3-2.5-1-2.1.4z"/>
                    <path d="m178.4 284.4c-.4-.6-1-1.1-1.9-1.2-3-.5-5.2 2.9-3.4 5.4s5.6 1.8 6.4-1.2c.4-1.5-.2-2.6-1.1-3z"/>
                    <path d="m180.1 298.8c-.2 0-.4 0-.5 0-.5 0-1.1.4-1 1v.5c.3 4.6 5.6-1.7 1.5-1.5z"/>
                    <path d="m360.7 158.3c-1.5-.5-2.7.2-3.3 1.4-.8.7-1.3 1.8-.7 3.1.3.6.8 1 1.3 1.3.1.1.1.2.2.3.4.5 1 .4 1.5.1.8 0 1.7-.2 2.3-.8 1.4-1.6.8-4.6-1.3-5.4z"/>
                    <path d="m365.5 172.4c.4 1.3 2.6.9 2.2-.4-.3-1.5-2.6-1.2-2.2.4z"/>
                </g>
                <g>
                    <path d="m760.1 513.8c-12.7-7.6-26.8-11-41.5-12.6-19.7-2.2-40.2-1.4-59.3-3.7-35.6-4.3-69.7-14-99.5-33-2.7-1.7-5.4-3.5-8-5.4-4.2-2.9-8.3-6.1-12.2-9.4-3.1-2.6-7.5 1.7-4.5 4.5 3.2 8.9 6.6 18 10.2 27.1.9 2.3 1.8 4.5 2.7 6.9.1.3.3.7.4 1 30.1 74.3 73.8 149 157 167.7 1.4.3 3.1-.3 3.8-1.5.3-.5.5-1.1.5-1.8-1.5-24.4-3.2-50.1 4.4-73.7 7.8-24.2 26.1-41.9 44.4-58.6.8-.7 1.5-1.4 2.3-2.1 1.7-1.5 1.1-4.3-.7-5.4z"
                          fill="#c94949"/>
                    <path d="m510.2 438.6c-6.2 5.2-12.6 10-19.3 14.2-2.3 1.5-4.5 2.9-6.9 4.2-28.3 16.6-60.2 25.3-93.5 29.3-20.1 2.4-41.8 1.4-62.4 4-13.5 1.8-26.6 5.2-38.5 12.3-1.8 1.1-2.3 3.9-.7 5.4.5.4.9.8 1.4 1.3 18.6 16.9 37.4 34.7 45.3 59.4 7.6 23.7 5.9 49.3 4.4 73.7-.1 2.3 2.3 3.7 4.3 3.3 29-6.5 53.2-19.8 73.7-37.5 26.3-22.8 46.6-52.9 63-85.2.1-.2.2-.3.2-.5 6.5-12.8 12.4-26 17.9-39.2.9-2.1 1.7-4.1 2.5-6.2 4.6-11.4 8.9-22.9 13-34.1.7-.7 1-1.4 1-2.1.1-2.3-3-4.3-5.4-2.3z"
                          fill="#c94949"/>
                    <path d="m764.5 413.6c-1.1-7.3-3.7-17.2-7.7-26.4-4.3-9.9-10.2-19.2-17.8-24 6.6-7.5 10.8-17 13.1-27.3 3.5-14.9 3.1-31.3 1.3-45.3-3.3-25.5-12.4-67.7-44.8-69-37.3-1.4-68.6 45-90.2 69.6-34.9 39.8-67.2 82-85.8 131.8-1.5 4-2.9 8-4.2 12.2-.3 1-.4 1.9-.3 2.7-.8 1.3-1.3 2.9-1.3 4.6 0 10.6-2.8 27 1.7 38-5.8.1-11.5.1-17.3.2 5.5-11.1 4.5-28.4 3.6-40.1 1.6-1.1 2.6-3 2.1-5.6-.8-4.3-1.9-8.4-3.3-12.4-8.1-25.3-24.4-47-38.5-69.5-18.7-29.8-37.8-59-62.5-84.2-19.3-19.7-47.2-43.4-76.7-43.2-17.5.1-25.9 11.8-26.3 28.5-.5 19.8 9.6 39.3 13 58.9 1.2 6.9 1.5 13.7.4 20.5-1.8 10.7-9.7 16.6-16.7 23.5-2.6 2.6-5.1 5.3-7 8.4-6.8 10.8-7.6 24.3-6.9 36.7 1.6 29 12.8 62.1 29.8 85.7 16.9 23.5 39 22.8 64 13 5.3-2.1 10.5-4.2 15.7-6.2 12.9-4.9 25.9-9.1 40-10.3 39.2-3.8 76.9-.9 104.2 2.3 26 3.1 42.6 6.4 42 4.5 12.6 1.1 25.1 3 37.6 5 33 5.2 65.8 10.5 99.1-.4 12.1-4 21.4-12 28-22.2 11.1-17.2 14.7-40.4 11.7-60z"
                          fill="#c94949"/>
                    <path d="m539.7 422.9c12.5-112.5 28.8-224.5 48.9-335.9.7-3.9-4.8-5.5-6-1.6-5 16.6-52.7 19.6-65.6 18.6-21.8-1.7-35-15.1-55-23.6-1.9-.8-4.8.1-4.6 2.6 11.1 113.7 28 227.9 55.6 338.9-1.6-1.7-3.3-3.2-5.2-4.1-24.8-11.9-20.8 42-19.4 51.8.3 2.2.5 4.6.8 7.3-16.9-2.9-59 3.4-76.1 8.8-1.8.6-9.8 6.6-11.3 9.1 12.9-4.9 25.9-9.1 40-10.3 39.2-3.8 76.9-.9 104.2 2.3.5-.7 1-1.4 1.4-2.2l3.4-7c6.5-16.4 6.1-37.5-4.1-49.1-2.5-2.9-4.8-4.6-7-5.6z"
                          fill="#c94949"/>
                    <path d="m716.4 249.1c-8.6-37.6-53.7 14.9-63.1 25.3-36.5 40.1-67.8 85.9-100 129.6-2.2 0-4 1.7-4.4 3.8-.1.4-.2.8-.3 1.2-.5 2.6 1.6 4.6 3.9 5.2 10.8 2.4 26.2-16.8 32.9-23.4 18-18 29.1-40.1 45-59.6 16-19.8 37.9-33.6 59.1-47.2 11.9-7.7 30.8-17.5 26.9-34.9z"
                          fill="#3c3c30"/>
                    <path d="m492.7 401.3c-2.5-4.2-5.2-8.4-7.9-12.6-11.3-37.5-44.4-70.2-70.1-97.9-13.4-14.5-57.4-67.1-82.3-50.4-26.7 17.9 32.3 56 42.3 64.1 36.6 29.8 74.2 58.5 104.4 94.9.3.5.6 1 1 1.3 1.7 2.1 3.3 4.1 5 6.2 3.9 5.1 10.7-.4 7.6-5.6z"
                          fill="#3c3c30"/>
                    <path d="m756.8 387.2c-.2-.1-.4-.2-.6-.4l-.1-.1c-14.9 1.7-28 7.2-40.9 14-5.1 3.4-10.4 6.4-15.9 9-9.9 6-21.7 15.8-33.3 11-4.5-1.9-2.8-7.7 1.2-8.8.9-.2 1.7-.5 2.6-.8 2.1-1.3 4.2-2.6 6.2-3.9.2-1 .6-1.8 1.6-2.4 8.2-4.8 16.2-9.9 23.9-15.4.3-.2.6-.4.9-.7 7.7-5.5 15.1-11.3 22.2-17.6.9-.8 1.7-1.5 2.5-2.2 10.2-9.5 19.1-20.2 25-33.1-2.3 10.3-6.5 19.8-13.1 27.3 7.6 4.9 13.5 14.2 17.8 24.1z"
                          fill="#b73734"/>
                    <path d="m378.6 408.4c-21.3-21.3-45.4-38.5-72.3-51.4 7-6.9 14.9-12.8 16.7-23.4 1.2-6.8.8-13.7-.4-20.5.9.3 1.7 1 2.3 2.1 9.1 17.8 19.6 34.8 32 50.5 9.9 12.5 21.4 23.3 28.8 37.4 2.1 3.9-3.9 8.5-7.1 5.3z"
                          fill="#b73734"/>
                    <path d="m331.3 390c-2.1-3-5.7-5.9-9.5-7.8-1.5-2.1-3.8-3.3-7.2-2.3-.2 0-.3.1-.4.2-6.1 0-8.5 5.7-8.5 11.4 0 2.2.5 4.3 1.3 6.2.1 4.2 1.3 8.1 4.7 10.3.3.2.7.4 1 .5.3.6.5 1.2.9 1.8 3.9 6.3 10.8 1.2 14.6-2.5 4.8-4.7 7.3-11.6 3.1-17.8z"
                          fill="#f7ffff"/>
                    <path d="m326.9 437.2c-.7-2.9-2.4-5.4-4.9-6.9-1.4-.8-3.4-.7-4 1-.8 2.1-1 4.1-.6 6.2-.6 1.6-.8 3.3 0 4.9 1.1 2.6 4.3 4.2 7 2.9 2.8-1.5 3.2-5.3 2.5-8.1z"
                          fill="#f7ffff"/>
                    <path d="m337.4 290.9c-.9-2.2-3.1-4-5.6-3.8-3.4.3-5.1 4.2-3.7 6.8-.3 2.8 1.8 5 4 6.5 1.5 1 3.5.6 4.2-1.1 1.2-2.6 2.3-5.6 1.1-8.4z"
                          fill="#f7ffff"/>
                    <path d="m732.6 282.7c-2.8-3.9-6.8-3.4-9.6-.6-.9.2-1.9.5-2.9 1.2-.3.2-.6.5-.9.8-2 1-3.8 2.6-5.3 4.2-4 4.5-11.6 11.4-5.9 17.3 2.6 2.8 6.6 4.8 9.8 6.8 2.6 1.7 5.9 4.5 9.2 4.7 13.7 1 10.5-27.7 5.6-34.4z"
                          fill="#f7ffff"/>
                    <path d="m728.8 336.8c.4-3-4-3.6-4.7-.7-4 .7-3.8 8.3 1 9.1 1.4.2 2.7-.8 2.9-2.2.3-2.1.5-4.1.8-6.2z"
                          fill="#f7ffff"/>
                    <path d="m742.7 458.7c-.2-.6-.6-1-1.1-1.3-.7-.6-1.5-1.1-2.6-1.3-6.5-1.3-10 7.6-4.3 11 .3.2.6.3 1 .4 1.2.8 2.8.7 3.8-.1 3.7-1.1 5-5.7 3.2-8.7z"
                          fill="#f7ffff"/>
                    <path d="m757.7 386.3c-1.3-9.5-10.1-17.9-18.2-22.5 5.2-6.3 9.5-13.4 12.5-21.5 9.8-26.4 5.2-54.1-3.6-80.1-.9-2.6-4.8-1-3.9 1.6 7.8 24.7 12.1 51.4 2.7 76.5-9.5 25.1-32.6 40.1-55.1 52.5-3 1.6-1 6.6 2 5 15.5-8.2 30.9-17.8 42.5-30.6 4 2.5 7.6 5.7 10.5 9.4 2.8 3.6 4.1 7.7 6.4 11.5 1.3 2 4.5.4 4.2-1.8z"
                          fill="#3c3c30"/>
                    <path d="m760.1 513.8c-12.7-7.6-26.8-11-41.5-12.6-14.6-1.3-29.7-.1-42.4 2.1-21.8 3.6-42 7-63.9 2.8-19.8-5.4-38.4-14.6-54.8-28 1.3-4.2 2-8.9 2.2-13.6.1-2 .2-4 .2-6 .3.4.7.7 1.3.9-.9 1.3-.9 3.3.8 4.4 24.9 15.5 54.7 17.4 81.2 4.6 2.2-1.1 1.3-3.6-.6-4.3.1-1.4-.8-2.9-2.4-2.7-26.6 2.1-51.6-.6-77.2-8-.2-.1-.4-.1-.6-.1.1 0 .2 0 .3-.1 28.4-13 56-28.9 72.4-56.4 1.4-2.4-1.6-6-4.1-4.1-23.6 17.7-46.5 35.6-72 50.2-1.2-11.3-4.1-29-17-30.6-8.4-1-13.4 6-16.1 14-.5-1.2-1.2-2.4-1.8-3.6 1.1-.2 2.1-.9 2.3-2.3 1.9-17.5 5.1-34.8 6.9-52.3 0-.4 0-.7-.1-1 4.3-21.3 5.5-42.8 3.7-65-.4-4.3-6.4-4.3-6.7 0-.2 2.7-.5 5.4-.8 8.1-.7.2-1.3.7-1.7 1.5-8.1 16.3-10 34.3-10.7 52.5-.5-1.9-1-3.8-1.5-5.7-4.1-21.5-6.7-43.2-5.2-65.4.2-3.8-5.8-4.6-6.6-.9-3.9 16.7-2.2 34.1 1.4 51.4 1 6.1 2.4 12.1 3.9 18.1.6 2.9 1.3 5.8 2 8.6 1.7 8 3.6 16 5.5 24 .3 1.4 1.3 2.1 2.3 2.3.1.2.1.5.2.7.1.3.2.6.4.8.2 1.7.4 3.5.6 5.2 0 3.4-.1 6.7-.2 10.1 0 1.2.7 1.9 1.6 2 .1.7.2 1.4.2 2.1 0 .2.1.4.2.6v.6c-1.2-1.7-2.5-3.3-3.9-4.8-6.8-7-14.8-5.5-20.7.6-1.8 1.2-3.6 2.7-5.3 4.7-4.7 5.5-7.3 12.2-8.3 19.4-.2-.6-.7-1.1-1.5-1.4-.2-.1-.3-.1-.5-.2 0-.5-.2-1.1-.6-1.5-7.7-8.9-20.7-14.3-30.6-20.3-3.4-2.1-15.1-11.6-17.8-3.2-2.2 6.8 9.6 12.1 13.6 14.5 10.4 6.3 21.4 11.1 32.9 14.9-1.9 1.1-3.8 2.2-5.7 3.2-18.9 3.5-37.5 7.7-56.6 10.5-1.9.3-2.9 3.1-1.9 4.6 6.2 9.2 18.2 6 27.4 3.8 11-2.6 22-6.8 31.9-12.7 2.1-.6 4.2-1.1 6.3-1.8 2-.6 2.4-2.4 1.8-3.8.3-.2.5-.4.8-.6-.1 4.1.3 8.2 1.2 12.2.5 2.4 1.2 4.8 2.1 7.2-25.7 12.5-52.1 22.7-80 29.3-14.2 3.3-30.1 7.3-44.7 7.7-13.2.3-22.4-5.9-33.2-10.8-13.5 1.8-26.6 5.2-38.5 12.3-1.8 1.1-2.3 3.9-.7 5.4.5.4.9.8 1.4 1.3 10.9-8.1 22.8-7.4 35-4.5 4.8 2.1 9.7 3.9 14.9 5 2.3.5 4.5.8 6.9 1 1.9.5 3.9.9 5.8 1.4 12.9 2.6 26.2 2.2 39.2-.2 32.8-5.9 63.5-23.5 92.8-39-.7.8-.8 1.9.2 2.8l.1.1c-15.2 17.2-33.6 30.4-51.5 44.6-4.4 3.5-28.5 20.8-19.2 29.9 7.8 7.7 26.9-10.3 31.8-14.8 17.3-16 32.8-34.1 46.2-53.5h.7c-19.3 46.3-44.7 87.3-75.2 126 26.3-22.8 46.6-52.9 63-85.2.1-.2.2-.3.2-.5 6.4-13.1 12.1-26.5 17.3-40 .2.3.4.5.6.8 9.1 10.9 33.7 8 45.7 5.5 1.2-.2 2.1-.5 3.1-.7.2-.1.4-.1.6-.2-.1.4-.2.8-.2 1.2 30.1 74.3 73.8 149 157 167.7 1.4.3 3.1-.3 3.8-1.5-18.3-6.6-35.6-14.7-51.7-24.8-41.7-31.9-69-77.5-91.7-126.2 9.3 12.1 19.7 23.5 31.3 33.1 11.2 9.3 27.5 22.7 42.9 17.3 2-.7 2.8-3.8.7-4.9-27.2-13.5-51-31.5-71.7-53.3 12.3 7.6 26.5 12.8 40.9 15.7 8.8 2.4 17.7 4.1 26.9 5.1 40 4.2 78.8-13.3 116.8.3 1.7 1.1 3.3 2.3 5 3.7.8-.7 1.5-1.4 2.3-2.1 1.3-1.3.7-4.1-1.1-5.2zm-127.6-46.6c-19.9 6.2-40.7 4.8-59.4-4.3 19.4 4.9 39.5 6.2 59.4 4.3zm-18.6-53.1c-7.5 7.4-16.1 13.7-25.1 19.3 8.7-6 17-12.7 25.1-19.3zm-186.7 45.8c5.1-.8 10.3-1.6 15.4-2.4-5.1 1.5-10.8 2.7-15.4 2.4zm-3.1 76.9c1-3.9 11-9.7 14-12.1.6-.5 1.2-.9 1.7-1.3-5.4 5-10.7 10-16 15 .1-.5.1-1 .3-1.6zm35.3-22.6c-5.5 5.9-11.2 11.7-17.1 17.2-1.7 1.6-10.2 9.1-15.1 10.5 16.1-13.3 31.1-28 45.7-43-4.4 5.2-8.8 10.4-13.5 15.3zm92.4-55.1c-.2 5.6.5 13.1-2.8 17.6-.2 2.7-1.4 4.2-3.7 4.5-.7.1-1.5.1-2.4 0l-8.6 1.2c-10.2.9-23.3 1.3-31.8-4.9-.2-.2-.5-.3-.7-.3-.1 0-.2-.1-.4-.1-2.9-8.4-8.8-15.2-10.4-24.2-.2-1.3-.4-2.6-.4-4-.2-6.6 1.4-15.7 4.9-21.4 3.4-6.2 7.8-8.3 13.1-6.4 0 0 0 .1.1.2 5.2 7 9.6 13.5 12.1 20.9.3 1 .6 2 .8 3 1 4.5 1.2 9.1.9 13.7-.2 3.6 5.1 3.4 5.5 0 0-.7.1-1.4.1-2.1.4-.2.7-.6.8-1.2 1.9-6.8 2.5-14.1 1.2-21 2.9-9.4 8.8-20.2 17.3-7.3 5.3 7.8 4.7 22.7 4.4 31.8zm78.4 91.1c-15.9-1.8-34-20.2-43-29.6 13.2 11.3 27.6 21.2 43 29.6z"
                          fill="#b73734"/>
                    <path d="m571.5 101.2c-29.2 12.7-59.8 13.1-89.6 2.2-2.6-1-3.6 3.1-1.1 4.1 28.7 11.6 58.6 11.7 87.2 1.2-14.6 39.2-23.8 82.4-20.6 124.4-.4 4.6-.7 9.2-1 13.8-.2 2.9 4.7 3.6 5.1.7 6.7-45 12.2-89.9 21.1-134.6 1-2.9 2-5.7 3.1-8.6 1-2.6-2.2-4.1-4.2-3.2z"
                          fill="#b73734"/>
                    <g fill="#f7ffff">
                        <path d="m506.2 431.9c0-.1.1-.1.1-.2 2-2.4-1.3-5.9-3.5-3.5-.3.3-.5.7-.8 1-.2 0-.3 0-.5 0-4.3.4-5.9 6.2-6.5 9.7-.9 4.9-.2 9.7 1.7 14.2v.2c.1.2.2.5.3.7.5 1.2 1.6 1.5 2.7 1.3 1.6 1 4 .7 4.4-1.7 1.1-5.8 2.8-12.2 2.8-18 .2-1.3-.1-2.6-.7-3.7z"/>
                        <path d="m509.5 463.5c-1.5-1.8-3.9-.2-4.1 1.7 0 .4 0 .8-.1 1.1-.1.1-.1.3-.1.5-1.6 1.8.6 5 2.8 3.5 2.4-1.6 3.5-4.3 1.5-6.8z"/>
                        <path d="m486.1 121.3c0-.3-.1-.6-.2-.9 0-.9-.5-1.9-1.7-2.3-2.1-.8-3.9-1.2-5.5-1.4-1.1-.3-2.1-.5-3.2-.8-2.1-.5-3.3 1.6-2.7 3.1-.8 1.1-1.5 2.6-1.9 4.7-1.4 6.7 5.6 22 7 28.9.6 3.3 1.2 6.6 1.6 9.9.1 1 .2 1.9.3 2.9-.1 2.3-.2 4.2-.1 5.6.4 14.8.8 29.5 1.4 44.3 0 1.2.7 1.9 1.4 2.4 0 2.3 0 4.6.1 6.9.1 3.4 5 3.3 5.2 0 2.5-34.2.8-69.1-1.7-103.3z"/>
                        <path d="m489.7 251.1c.2-1 .2-2.1 0-3.1 0-1.3-.1-2.5-.2-3.8-.2-2-2-2.6-3.3-2-1.5-.5-3.2.5-3.3 2.2 0 1.6-.1 3.3-.1 4.9 0 1.3.8 2 1.8 2.2.4 2.5 4.3 3.1 5 .3.1-.2.1-.4.1-.7z"/>
                        <path d="m446.1 545.4c-.3.1-.7.3-1 .5-8.1 7.2-14.9 16.1-22.5 23.8-7.7 7.8-15.7 15.2-23.9 22.4-2 1.7-.4 5.1 2.1 5.1 11.3-.2 18.8-8.9 25.9-16.8 9-10 16.6-20.9 23.2-32.6 1.3-2.5-2.2-4.6-3.8-2.4z"/>
                        <path d="m456.2 532.5c-.8.6-1.3 1.1-1.8 1.8-1.5 2.2 1.7 4.3 3.5 2.7.6-.5.9-.9 1.3-1.6.9-1.7-1.2-4.3-3-2.9z"/>
                        <path d="m349.3 568.4c0-.1 0-.3-.1-.4-.5-3.4-1.2-6.9-2.1-10.4-3.6-22.9-14.7-51.5-34.1-41.9-2.4 1.2-1.7 5 .7 5.6 2.7.7 5.3 1.9 7.6 3.4 9.2 9.3 15.8 20.4 19.6 32.6 1.1 7 1.3 14 2 21.3.2 2.4 3.6 3.5 4.7 1.5 1.5 0 2.9-.9 2.8-2.8-.3-2.7-.6-5.7-1.1-8.9z"/>
                        <path d="m672.2 548.5c-11.1-5.2-22.1-10.3-33.2-15.4-1.8-1.5-3.6-3.1-5.4-4.7-1.7-1.5-4.1.3-3.5 2.1-1.8 1.1-2.6 3.9-.1 5.1 3.2 1.5 6.5 3 9.8 4.5 8.9 7.6 18.9 13.5 31 13.9 2.7.1 4.1-4.3 1.4-5.5z"/>
                        <path d="m619.3 523.6c0 .2-.1.1-.3-.3-1.7-1.9-4.5.2-4 2.3.5 2.3 2.8 3.3 4.9 2.7 2.7-.6 2.2-4.8-.6-4.7z"/>
                        <path d="m725 537.2c-.9-.3-2-.2-2.9.7-16.2 17.5-29.1 38.4-34.4 61.9-2 8.7-7.1 33.7 6.6 35.3 1.2.1 2.6-1 2.9-2.2 3.1-14.9-1.2-29.7 4.2-45.1 6-17.2 16.7-32.6 26.9-47.6 1.4-2.1-1.4-4-3.3-3z"/>
                        <path d="m738.9 525.6c-2.8-2.7-5.8 2.8-2.3 3.7h.1c2.1.6 3.8-2.1 2.2-3.7z"/>
                    </g>
                </g>
                <path d="m814.8 168.6c-.3-.4-.7-.7-1.1-1-.6-1.1-1.8-1.8-3.4-2-4.6-.5-8.5 4.1-8.4 8.5.1 4.9 5.4 7.7 9.6 5.3 3.7-2 6.1-7.2 3.3-10.8z"
                      fill="#f7ffff"/>
                <path d="m817.1 127.4c-.9.7-1.3 1.9-1.1 2.9-.5 1.1-.3 2.4 1.1 3.2 2.5 1.6 5.2-.3 5.1-3.1-.1-2.4-2.7-4.7-5.1-3z"
                      fill="#f7ffff"/>
                <path d="m858.1 185.5c-.9-1.2-1.7-2.4-3.1-3.2-2.3-1.4-5 1.4-3.6 3.6.8 1.3 2 2.1 3.2 3.1 2 1.5 5-1.5 3.5-3.5z"
                      fill="#f7ffff"/>
                <path d="m852.9 438.2c-1.8-.7-3.2 1.1-3.4 2.6-.2 1.9-.5 3.9-.7 5.8-.8.3-1.5.8-2 1.7-1.1 1.8-.2 4.5 1.2 5.9 1.3 1.4 3.3 2.1 5.2 2.2 4.2.2 7.9-2.6 8.2-6.9.3-5.4-4-9.5-8.5-11.3z"
                      fill="#f7ffff"/>
                <path d="m869.9 420c0-.2 0-.4-.1-.6v-.1c-.2-1.3-1.3-1.9-2.5-2-.1 0-.2 0-.4 0-.1 0-.2 0-.3 0-1.2.1-2.3.7-2.6 2v.2c0 .2-.1.4-.1.6.1.5.1.9.2 1.4.1.6.3 1 .6 1.4l.2.2c1.1 1.3 3 1.3 4.1 0l.2-.2c.3-.4.5-.8.6-1.4 0-.6 0-1.1.1-1.5z"
                      fill="#f7ffff"/>
                <path d="m891.2 459.2c0-.1 0-.1 0 0-2-2.4-5.6.1-4.9 2.7 1.5 5.5 9.2 6.3 12.6 2 4-5.2-4.7-9.3-7.7-4.7z"
                      fill="#f7ffff"/>
                <path d="m869 490.1c-.7-.8-1.5-1.5-2.3-2.2-2.8-2.4-6.5 1.2-4.1 4.1.7.8 1.4 1.6 2.2 2.3 2.9 2.5 6.8-1.4 4.2-4.2z"
                      fill="#f7ffff"/>
                <path d="m216.8 186.9c-1.4-.9-3-1.3-4.8-.8-3 .9-5.1 4.1-4.8 7.2.3 3.7 5.4 5.1 8.5 5 3 0 6.1-1.8 7-4.8 1.4-4.2-2.6-7.1-5.9-6.6z"
                      fill="#f7ffff"/>
                <path d="m198.7 157c-1.5-4.2-9-3.7-8.9 1.2 0 .5.2 1 .5 1.5 0 .6.2 1.3.8 1.8 3.2 3.1 9.2-.1 7.6-4.5z"
                      fill="#f7ffff"/>
                <path d="m174.4 197.3c-3.6 0-3.6 5.6 0 5.6s3.7-5.6 0-5.6z" fill="#f7ffff"/>
                <path d="m147.2 169.1c.1 1 .1 1.9.3 2.9.5 2.5 4.6 2.5 5.1 0 .2-1 .3-1.9.3-2.9.3-3.7-5.9-3.7-5.7 0z"
                      fill="#f7ffff"/>
                <path d="m139 228.9c-.9-.9-1.8-1.9-3-2.5-2.5-1.3-5.1 1.3-3.8 3.8.6 1.2 1.5 2 2.5 3 2.7 2.9 7.1-1.5 4.3-4.3z"
                      fill="#f7ffff"/>
                <path d="m142.5 530.8c-.3-.9-1-1.8-2-2-4.7-.7-8.1 3.5-7.7 7.5-2.3.9-4.2 2.9-4.4 5.5-.4 3.7 2.9 6.4 6.2 7.1 3.9.8 7.4-1 9-4.7 1.9-4.3.5-9.2-1.1-13.4z"
                      fill="#f7ffff"/>
                <path d="m177.4 549c-2.3-.8-4.3.9-4.9 3-.5 1.9.7 3.6 2.4 4.2 0 0 1.1.4 1.7.3 1.8-.2 2.8-1.7 2.7-3.1.8-1.5-.2-3.8-1.9-4.4z"
                      fill="#f7ffff"/>
                <path d="m173.9 585.6c-3.5-1.5-7.9 0-8.6 4.1-.4 2.2.7 4.1 2.3 5.3 0 .1-.1.3-.1.4-.7 3.5 4.1 4.8 5.3 1.5.1-.4.3-.8.4-1.2 1.2-.7 1.4-2 1-3.1.4-1.3.7-2.5 1-3.8.3-1.1-.1-2.7-1.3-3.2z"
                      fill="#f7ffff"/>
                <path d="m119.2 586c-.8-1.4-1.6-2.6-3.1-3.3-2.5-1.2-4.9 1.2-3.7 3.7.7 1.5 1.9 2.3 3.3 3.1 2.2 1.3 4.7-1.2 3.5-3.5z"
                      fill="#f7ffff"/>
                <path d="m886 725.8c-1.5 1.5-1.8 3.3-1.4 5v.3c.3 3.7 3.7 5.3 6.9 4.9h.4c.2 0 .5-.1.7-.2.3-.1.5-.2.8-.3 1.5-.6 2.9-1.8 3.4-3.5 1.9-6-6.6-10.4-10.8-6.2z"
                      fill="#f7ffff"/>
                <path d="m906.6 697.9c-2.4-2.6-6.8-1.7-6.7 2.3 0 1.4 1.1 2.4 2.2 2.7.3 1 1.1 1.7 2.3 1.5 3.5-.4 4.5-4 2.2-6.5z"
                      fill="#f7ffff"/>
                <path d="m916.4 727.7c-2.9-2.9-7.3-.3-7.5 3.3-.1 1.5 1.2 2.8 2.7 3 .6.7 1.5 1.1 2.6.9 3.2-.5 4.5-4.9 2.2-7.2z"
                      fill="#f7ffff"/>
                <path d="m643.9 739.9c-1.1 1.1-1 2.7 0 3.8l.4.4c-1.2.2-2.2 1.2-2.4 2.7-.5 3.8 4.4 6 7.5 6 3.3 0 6.8-1.8 7.9-5.1 2.4-7.4-8-13.2-13.4-7.8z"
                      fill="#f7ffff"/>
                <path d="m661.5 706.8c-4.6 3.6-1.7 11.8 4.1 11.7 1.5 0 2.4-.9 2.6-2 1.1.3 2.2.1 2.9-1.3 2.7-5.5-4.2-12.6-9.6-8.4z"
                      fill="#f7ffff"/>
                <path d="m618.9 722.9c.6 1.4 1.9 1.9 3 1.6 1.7.8 4.1.1 4-2.3-.2-5.5-8.9-3.8-7 .7z" fill="#f7ffff"/>
                <path d="m628.1 772.2c-1.7 1.2-2.4-1-2.8-2.1-.8-2.3-3.5-2.5-4.9-.6-2 2.8.1 6.4 2.7 7.9 2.7 1.6 6 1.3 8.3-.8 2.4-2.1-.7-6.3-3.3-4.4z"
                      fill="#f7ffff"/>
                <path d="m293.6 813.4c-2.5-1.5-6.2-1.4-7.6 1.5-1 2.2-.3 4.6 1.4 6-1.3 1.1-1.1 3.4.4 4.3 3.2 1.9 7.2-.4 8.6-3.4 1.4-3.1.1-6.7-2.8-8.4z"
                      fill="#f7ffff"/>
                <path d="m289.5 775.4c-.6.6-.8 1.4-.7 2.1-.3.2-.5.5-.7.9-3 6.8 8.6 11 12.3 5.4 4.2-6.5-5.8-13.7-10.9-8.4z"
                      fill="#f7ffff"/>
                <path d="m340.2 820c-.4-.8-1.4-1.4-2.4-1.4-.4 0-.7.1-1 .2-.8-.5-1.8-.6-2.7-.2-1.6.8-2.3 2.3-2.3 3.8-.2.3-.4.6-.5.9-.7 1.8 1.1 3.3 2.8 3.3.4.2.7.4 1.2.5 4.1 1 6.8-3.7 4.9-7.1z"
                      fill="#f7ffff"/>
                <path d="m320.9 847c.2-1.8-1.2-2.6-2.6-2.5-1.4-.1-2.8.7-2.6 2.5 0 .5-.1.9-.1 1.4-.4 3.6 5.9 3.6 5.5 0-.1-.5-.2-1-.2-1.4z"
                      fill="#f7ffff"/>
                <path d="m253.7 807c-1.2-1.9-3-2.9-5.1-3-.7-.3-1.5-.3-2.2.2-.8.3-1.3 1-1.4 1.8-1.8 3.9 2.4 8.8 6.9 7.5 3-.9 3.2-4.1 1.8-6.5z"
                      fill="#f7ffff"/>
                <path d="m260.2 850.3c-2 .3-3.3 1.6-4.2 3.3-1.4 2.8 1.5 6.2 4.4 4.4 2-1.2 3-2.7 3.3-5.1.2-1.9-1.9-2.9-3.5-2.6z"
                      fill="#f7ffff"/>
            </g>
        </g>
        <g fill="#3c3c30">
            <path d="m558.2 438.5c-1.3-8-2.7-19.9-10.4-24.3-2.3-1.3-4.3 2-2.1 3.5 6.2 4.4 7.2 15.9 8.1 22.8 1.1 8.3 1.2 16.9.2 25.2-.4 3.8-.8 8-2.8 11.3-2.4 4-7.1 5.8-11.4 7.1-8.4 2.6-16.5 2.4-25.1 2.3-2.5 0-3.3 4-.7 4.5 9.7 2 20.9.3 30.1-3.1 8.7-3.2 12.7-9 14.1-18 1.7-10.3 1.6-20.9 0-31.3z"/>
            <path d="m763.7 513.9c-32.9-15-70.1-18.9-105.4-10.6-2.6.6-1.6 4.6 1 4 33.2-7.4 68.1-4.3 99.3 9.2-17.4 16.2-35 33.4-44.3 55.7-10.3 24.9-10.4 54.7-6.6 81.2-22.6-1.8-43.1-12.4-61.2-25.6-9.5-6.9-18.4-14.5-27.2-22.3-8.2-7.2-14-13.5-21.8-26.9-1.4-2.4-6.2-2.5-5 0 5.2 10.9 13.4 21.2 21.5 28.5 9.2 8.2 18.7 16.2 28.5 23.6 19.9 14.8 42.6 26.4 67.8 27.5 1.6.1 2.5-1.5 2.3-2.9-4.1-26.4-4.3-56.8 6-82 9.3-22.6 27.9-39.7 45.4-56 1.1-.8 1-2.8-.3-3.4z"/>
            <path d="m395.9 492.8c-16.2 7.3-34.8 8.1-51.5 1.9-8-3-15.4-6.4-24.2-6-7.7.4-15.1 2.8-22.1 5.8-4.1 1.8-13.5 4.3-13.3 10.2.1 2.8 2.6 4.9 4.3 6.8 3.2 3.6 6.4 7.1 9.6 10.7 11.3 12.6 24.7 25 31.9 40.5 8.4 18 7.9 38.6 7.5 58-.1 2.7 4.2 2.8 4.3.1.3-15.6.6-31.4-3.3-46.6-3.7-14.6-11.9-26.5-21.8-37.6-5.6-6.3-11.2-12.5-16.9-18.7-2.8-3.1-5.6-6.2-8.4-9.2-2-2.2-2.8-4.5-.4-6.5 1.6-1.4 4.7-2.3 6.7-3.2 8.1-3.6 17.1-6.7 26.2-6 8.6.7 16.2 5.4 24.4 7.6 16.2 4.5 33.5 2.7 48.8-4.3 2.5-1.1.5-4.6-1.8-3.5z"/>
            <path d="m467.8 543.1c-22.4 41.4-57 74.5-100.5 93.3-2.4 1-.4 4.6 1.9 3.6 43.3-18.5 80.8-52.5 102.1-94.7 1.3-2.4-2.2-4.6-3.5-2.2z"/>
        </g>
    </g>
</svg>