<svg height="512" viewBox="0 0 512 512" width="512" xmlns="http://www.w3.org/2000/svg"><g id="Elf"><path d="m75.37 442.68a43.52 43.52 0 0 1 10.93 7.32 45.44 45.44 0 0 1 13.24 22.85 33.63 33.63 0 0 1 8.28-21.2 33.13 33.13 0 0 1 16.23-9.93 31.33 31.33 0 0 1 -14.9-6.29 32.37 32.37 0 0 1 -11.59-19.87 28.72 28.72 0 0 1 -5 15.56 29.2 29.2 0 0 1 -17.19 11.56z" fill="#ffb833"/><path d="m339.71 198.42a43.34 43.34 0 0 1 10.93 7.29 45.56 45.56 0 0 1 13.25 22.85 33.58 33.58 0 0 1 8.27-21.2 33.17 33.17 0 0 1 16.23-9.93 31.41 31.41 0 0 1 -14.9-6.3 32.32 32.32 0 0 1 -11.59-19.87 28.66 28.66 0 0 1 -5 15.57 29.22 29.22 0 0 1 -17.19 11.59z" fill="#ffb833"/><path d="m98.94 206.55a34.89 34.89 0 0 1 8.92 5.94 37.18 37.18 0 0 1 10.81 18.65 27.44 27.44 0 0 1 6.76-17.3 26.9 26.9 0 0 1 13.24-8.1 25.6 25.6 0 0 1 -12.16-5.14 26.37 26.37 0 0 1 -9.46-16.21 23.44 23.44 0 0 1 -4 12.7 23.88 23.88 0 0 1 -14.11 9.46z" fill="#ffb833"/><path d="m307.18 173.64c.81-.76 5.25-4.77 11.47-4.18.91.08 4.54.43 6.93 2.77 6.22 6.06 3.41 24.74-7.65 29.33-6.18 2.56-12.63-.23-14.8-1.3z" fill="#ffc871"/><path d="m313.69 195.63a.4.4 0 0 1 -.28-.12.38.38 0 0 1 0-.53c2.6-2.41 3.81-4.91 3.6-7.42-.37-4.37-4.94-7.39-5-7.42a.37.37 0 0 1 -.15-.43.36.36 0 0 1 .38-.26l10.56.71a.37.37 0 0 1 .35.4.39.39 0 0 1 -.4.35l-9.31-.63c1.47 1.22 4 3.8 4.3 7.21.23 2.76-1.06 5.46-3.84 8a.39.39 0 0 1 -.21.14z" fill="#383333"/><path d="m184.29 181.71c-.85-.73-5.45-4.53-11.65-3.68-.9.13-4.5.63-6.8 3.07-5.94 6.33-2.31 24.87 8.93 29 6.29 2.29 12.61-.78 14.73-1.94q-2.59-13.24-5.21-26.45z" fill="#ffc871"/><path d="m178.74 204a.4.4 0 0 1 -.25-.09c-2.88-2.45-4.29-5.09-4.18-7.86.14-3.42 2.57-6.11 4-7.39l-9.28 1a.37.37 0 1 1 -.08-.74l10.52-1.17a.37.37 0 0 1 .39.24.38.38 0 0 1 -.13.44s-4.47 3.26-4.65 7.63c-.1 2.52 1.22 5 3.92 7.25a.37.37 0 0 1 0 .53.35.35 0 0 1 -.26.16z" fill="#383333"/><path d="m391.24 261.94a31.5 31.5 0 0 0 .49-14.28c-2.24-10.79-10-16.78-8-19.26 1.34-1.66 6.7-1.25 10.05.62.62.34.69.49 1 .47 3.64-.28 4.16-25.64 9.16-27.16 5.42-1.64 5.26 19.38 5.26 19.38s3.06-19.71 7.8-21.71 3.29 20.86 3.29 20.86 6.73-16.75 10.51-14.95-2.12 21.09-2.12 21.09c.55-.75 7.43-10.06 11.17-8.43a2.33 2.33 0 0 1 1 .82c1.76 2.64-3.16 7-6.07 14.12-3.81 9.34.25 12.72-4.42 19-1.87 2.53-3.78 3.67-4.76 7.07 0 0-.42 1.44-.85 7.94a55.73 55.73 0 0 1 -33.49-5.61z" fill="#ffdb99"/><path d="m120.76 296.05a31.56 31.56 0 0 1 -.49-14.29c2.24-10.79 10-16.77 8-19.25-1.34-1.67-6.7-1.26-10.05.61-.62.34-.69.5-1 .48-3.64-.28-4.16-25.65-9.16-27.17-5.42-1.64-5.26 19.38-5.26 19.38s-3.12-19.7-7.88-21.67-3.23 20.86-3.23 20.86-6.69-16.76-10.51-14.95 2.14 21.08 2.14 21.08c-.55-.75-7.43-10.06-11.17-8.44a2.33 2.33 0 0 0 -1 .82c-1.76 2.64 3.16 7 6.07 14.13 3.81 9.33-.25 12.72 4.42 19 1.87 2.52 3.78 3.67 4.76 7.06 0 0 .42 1.45.85 7.94a55.81 55.81 0 0 0 33.49-5.6z" fill="#ffdb99"/><circle cx="243.84" cy="156.23" fill="#ffdb99" r="73.19"/><path d="m220.71 225.3c8.36 26.32.86 35.88-1.49 38.4s-8.47 5.44-20.83 11.45c-14.64 7.12-14.89 6.67-16.67 7.89-16.43 11.24-1.65 53.82 2.08 99.1a287.32 287.32 0 0 1 -3.68 74.13c14.5 5.7 34 10.51 57.24 13.54 32.4 4.22 72.37 3.34 102.62-17 0 0-14.65-40.13-14-74.52s15.92-73.24 8.28-89.17-42-16.55-54.14-25.47-11.46-41.4-11.46-41.4a48.34 48.34 0 0 0 -15-4.46c-15.9-2.03-28.32 4.68-32.95 7.51z" fill="#ffdb99"/><path d="m172.47 165.53a88.25 88.25 0 0 0 11.47 40.76c11.52 20 34.81 41.38 59.9 41.67 33.56.38 70.44-37 73.19-91.73-43.73-35-94-42.32-122.94-21-6.09 4.48-15.35 13.26-21.62 30.3z" fill="#ffdb99"/><path d="m289.64 268.15s31.87 3.74 47.16 11.86 40.6 46.22 64.48 64.67q-11.46 16.86-22.93 33.73c-8.84-2.8-68.58-22.74-84.86-76.59a96.29 96.29 0 0 1 -3.85-33.67z" fill="#37ad36"/><path d="m198.05 275.35c-25.53 7.73-37.74 19.78-44.16 29.12-8 11.6-8 20.51-17.11 40.47a199.45 199.45 0 0 1 -22 37.11l32.06 25.22c7.58-5.34 58.49-42.42 57.73-98.67a96.34 96.34 0 0 0 -6.52-33.25z" fill="#37ad36"/><path d="m120.45 292.45c1.42 7.51 4 19.88 8.21 34.9 13.14 46.65 28.43 66.32 19.43 79.11-5.46 7.75-18.16 10.68-27.31 8.18-23.68-6.49-36.2-52.84-33.63-115.17a54.51 54.51 0 0 0 33.3-7z" fill="#37ad36"/><path d="m212.44 268.15s45.83 13.82 67.67-4.54c0 0 5 3.11 14.29 4.54s30 6.62 35 8.67-14.11 105.32 15.97 176.18c0 0-81.85 51.79-172.9 3 0 0 14-63.39 8.36-99.4s-12.31-62.1-8.83-67.31 40.44-21.14 40.44-21.14z" fill="#37ad36"/><path d="m217 265.49s-21.58 9.22-30.51 12.34-22.73 12.44-29.38 22.39l34.51-8.33s-9.15 10.77-13.61 31.39c0 0 37.05-5.72 48-24.91 0 0 6.62 29.61 28.35 37.64 0 0 11-11.6 5.35-40.47 0 0 21.43 26 54.76 21.2 0 0-4.75-25.67-24.1-36.68 0 0 29.65-4.27 46.45-.05 0 0-8.66-6.34-30.24-11s-27.81-6.59-27.81-6.59-31.86 14.09-61.77 3.07z" fill="#ff1a26"/><path d="m176.75 433.15s88.3 44.9 160.47-4.24l9.08 24.66s-86.5 57.29-173.83 2.43z" fill="#383333"/><path d="m271.21 482.25h-25.78a8.84 8.84 0 0 1 -8.84-8.83v-16.36a8.84 8.84 0 0 1 8.84-8.83h25.78a8.84 8.84 0 0 1 8.84 8.83v16.36a8.84 8.84 0 0 1 -8.84 8.83zm-25.78-29a3.84 3.84 0 0 0 -3.84 3.83v16.36a3.84 3.84 0 0 0 3.84 3.83h25.78a3.84 3.84 0 0 0 3.84-3.83v-16.38a3.84 3.84 0 0 0 -3.84-3.83z" fill="#ffb833"/><circle cx="253.77" cy="353.63" fill="#ffb833" r="9.02"/><circle cx="253.77" cy="395.15" fill="#ffb833" r="9.02"/><circle cx="253.77" cy="432.74" fill="#ffb833" r="9.02"/><path d="m245.07 248.72a48.78 48.78 0 0 1 -20.84-4.57.5.5 0 0 1 .47-.89c.22.12 22.28 11.61 45.09-2.74a.5.5 0 0 1 .69.16.49.49 0 0 1 -.16.69 46.76 46.76 0 0 1 -25.25 7.35z" fill="#383333"/><path d="m182.1 372.2a.52.52 0 0 1 -.49-.51c.34-18-7.88-53.27-8-53.62a.5.5 0 0 1 .38-.6.49.49 0 0 1 .6.37c.08.35 8.33 35.77 8 53.87a.49.49 0 0 1 -.49.49z" fill="#383333"/><path d="m328 351.87a.51.51 0 0 1 -.5-.49c-.45-15.74 1.4-49 1.42-49.32a.49.49 0 0 1 .53-.47.5.5 0 0 1 .47.53c0 .33-1.87 33.53-1.42 49.23a.5.5 0 0 1 -.49.52z" fill="#383333"/><path d="m150.44 392.19a.5.5 0 0 1 -.49-.42c-2.67-17.56-14.67-42-14.79-42.23a.5.5 0 0 1 .22-.67.49.49 0 0 1 .67.22c.13.25 12.19 24.82 14.88 42.53a.48.48 0 0 1 -.42.56z" fill="#383333"/><path d="m289 159a25.14 25.14 0 0 0 -14.63-4c-3.51.07-8.27.18-9.61 3a3.82 3.82 0 0 0 .28 3.87c1.75 2.13 5.79-.06 12.48-.43 8.8-.48 14.68 2.59 15.2 1.3.38-.98-2.55-2.96-3.72-3.74z" fill="#383333"/><path d="m199 163.76a25.08 25.08 0 0 1 14.31-5.11c3.52-.18 8.27-.42 9.81 2.29a3.85 3.85 0 0 1 0 3.88c-1.58 2.26-5.78.37-12.47.49-8.82.15-14.46 3.64-15.07 2.39-.45-.9 2.33-3.08 3.42-3.94z" fill="#383333"/><path d="m244.81 193.87c-3 0-6-.39-6.7-1.9-1.32-2.78 3.6-16.09 4.17-17.6a.5.5 0 0 1 .64-.29.5.5 0 0 1 .3.64c-2.08 5.55-5.06 15-4.2 16.82s7.66 1.46 11.79.91a.5.5 0 1 1 .13 1 49.86 49.86 0 0 1 -6.13.42z" fill="#383333"/><ellipse cx="285.81" cy="195.45" fill="#ffc871" rx="9.77" ry="6.09" transform="matrix(.998 -.063 .063 .998 -11.79 18.47)"/><ellipse cx="205.89" cy="201.66" fill="#ffc871" rx="9.77" ry="6.09" transform="matrix(.998 -.063 .063 .998 -12.34 13.43)"/><circle cx="212.76" cy="180.31" fill="#383333" r="6.94"/><circle cx="273.69" cy="177.91" fill="#383333" r="6.94"/><path d="m166.72 180.31s2.08-.54 3.93 2.59 4.45 8.85 7.42 8.85-3.79-32.22 4.24-39.06 35.72-12.2 45.24-26.49 12.5-36.31 12.5-36.31 43.45 14.11 58 33.39 6.36 60 11.05 61.57 5.88-7.13 6.85-10.58a5.46 5.46 0 0 1 5.53-4.29s10.72-116.39-83.14-90.2c-4.59-.65-38.51-4.89-59 17.55-11.21 12.26-13.73 27.36-15.48 37.8a101.26 101.26 0 0 0 2.86 45.18z" fill="#383333" fill-rule="evenodd"/><path d="m163 138.7c6.88-7.55 33.45-34.93 77.45-40.24a125.75 125.75 0 0 1 73.77 14 135.8 135.8 0 0 0 -21.11-40.92c-17.15-22.73-48.84-42.67-80.32-41.8-44.79 1.26-89.6 45.79-97.44 109.26l15.18 2.38a95.48 95.48 0 0 1 10.47-25.89c1-1.66 9.31-15.92 12.79-14.58 2 .77.88 6.19 1.49 13.69a57.84 57.84 0 0 0 7.72 24.1z" fill="#37ad36"/><path d="m176.26 118a35.26 35.26 0 0 0 -13.74 6.65c-7 5.42-20.31 6.41-20.31 6.41s7.86 11.58 20.8 12.32c0 0 35.12-31.53 63-38.68s82.39 6.69 89.23 10.49a27.36 27.36 0 0 0 9.8-11.48c6.73-15.23-4.62-30.56-5.17-31.28a26.73 26.73 0 0 1 -5.22 13.57 25.83 25.83 0 0 1 -5.92 5.66 39.67 39.67 0 0 0 -4.68-14.78 40.3 40.3 0 0 0 -15.52-15.52 35.77 35.77 0 0 1 -19.46 28.09 46.6 46.6 0 0 0 -30.54-19.71 40.08 40.08 0 0 1 -20.94 28.82 40.55 40.55 0 0 1 -25.59-3.92 38.37 38.37 0 0 1 -10.35-8.13 29.4 29.4 0 0 0 -6.13 10.19 31 31 0 0 0 .74 21.3z" fill="#ff1a26"/><path d="m228.6 206.86 36.6-3.27c1.16 11.43-7.81 21.11-18.13 21.18-9.28.06-17.76-7.66-18.47-17.91z" fill="#fff"/><path d="m247.07 224.77c7.43-.05 14.16-5.08 16.91-12.16-16.92-5.43-26.87 0-31.71 4.38a18.38 18.38 0 0 0 14.8 7.78z" fill="#ff1a26"/><path d="m247.41 230.51a8.58 8.58 0 0 1 -3.75-.76.38.38 0 0 1 -.16-.5.37.37 0 0 1 .51-.16s4.28 2.11 9.92-1.34a.39.39 0 0 1 .52.13.36.36 0 0 1 -.13.51 13.18 13.18 0 0 1 -6.91 2.12z" fill="#383333"/><circle cx="124.56" cy="147.44" fill="#ffb833" r="20.53"/><path d="m85.55 296.89s-.29 9.11 1.27 10.22 35.6-1.11 36.42-6.2-1.78-11.49-3.35-11.49-7 3.36-16 4.67-18.34-.4-18.34 2.8z" fill="#ff1a26"/><path d="m391.73 255.87c-1.42 7.51-4 19.88-8.22 34.89-13.13 46.65-28.43 66.32-19.42 79.12 5.45 7.74 18.16 10.68 27.31 8.17 23.68-6.48 36.2-52.83 33.63-115.16a54.51 54.51 0 0 1 -33.3-7z" fill="#37ad36"/><path d="m426.63 260.3s.29 9.12-1.27 10.22-35.6-1.1-36.42-6.19 1.77-11.49 3.35-11.5 7 3.37 15.94 4.68 18.39-.4 18.4 2.79z" fill="#ff1a26"/><path d="m426.65 232.27a.37.37 0 0 1 -.18-.05c-.12-.07-11.35-6.35-20.44-6a.38.38 0 0 1 -.38-.36.37.37 0 0 1 .36-.39c9.28-.41 20.72 6 20.83 6.06a.38.38 0 0 1 -.18.71z" fill="#383333"/><path d="m402.24 240.81a.37.37 0 0 1 -.37-.37c0-.07-.37-7.44-6.95-10.73a.39.39 0 0 1 -.17-.51.38.38 0 0 1 .51-.16c7 3.5 7.35 11.3 7.36 11.38a.38.38 0 0 1 -.36.38z" fill="#383333"/><path d="m85.35 266.37a.39.39 0 0 1 -.33-.19.38.38 0 0 1 .15-.51c.11-.07 11.56-6.44 20.83-6.07a.38.38 0 0 1 .36.4.36.36 0 0 1 -.39.35c-9.07-.41-20.32 5.91-20.44 6a.37.37 0 0 1 -.18.02z" fill="#383333"/><path d="m109.76 274.91a.39.39 0 0 1 -.36-.39c0-.08.38-7.88 7.36-11.38a.38.38 0 1 1 .34.67c-6.58 3.3-6.94 10.67-7 10.74a.37.37 0 0 1 -.34.36z" fill="#383333"/><path d="m377.63 366.85a.51.51 0 0 1 -.43-.23c-11.15-18-3.17-48-3.09-48.3a.5.5 0 0 1 1 .27c-.08.29-7.95 29.83 3 47.5a.5.5 0 0 1 -.16.69.48.48 0 0 1 -.32.07z" fill="#383333"/><g fill="#fff"><path d="m311.28 147.12a.5.5 0 0 1 -.5-.48c-.8-18.58-10.88-27-11-27.06a.5.5 0 0 1 -.08-.7.52.52 0 0 1 .71-.08 27.33 27.33 0 0 1 5.39 6.7 44.48 44.48 0 0 1 6 21.1.5.5 0 0 1 -.48.52z"/><path d="m317.53 148.92a.5.5 0 0 1 -.48-.52c.5-12.32-3.23-18.87-3.27-18.94a.5.5 0 0 1 .86-.5c.16.27 3.92 6.84 3.41 19.48a.5.5 0 0 1 -.52.48z"/><path d="m189.5 139.52a.5.5 0 0 1 -.13-1 45.7 45.7 0 0 0 21.5-13.12 35.48 35.48 0 0 0 6-8.72.5.5 0 1 1 .92.39c-.07.16-7.23 16.46-28.16 22.41a.34.34 0 0 1 -.13.04z"/><path d="m172.47 143a.5.5 0 0 1 -.12-1c11.36-2.89 26.1-17.46 26.25-17.61a.5.5 0 0 1 .7 0 .5.5 0 0 1 0 .71c-.61.61-15.08 14.91-26.7 17.87z"/><path d="m109.44 149a2.5 2.5 0 0 1 -2.49-2.5c0-4.62 3-14 14.16-16.24a2.5 2.5 0 1 1 1 4.9 12 12 0 0 0 -10.15 11.36 2.5 2.5 0 0 1 -2.52 2.48z"/><path d="m187 43.19a2.5 2.5 0 0 1 -1.13-4.73c.75-.38 18.58-9.25 36.08-4.11a2.5 2.5 0 0 1 -1.41 4.8c-15.62-4.6-32.24 3.69-32.41 3.77a2.41 2.41 0 0 1 -1.13.27z"/><path d="m300.11 88.06h-.11a2.49 2.49 0 0 1 -2.4-2.59 17.66 17.66 0 0 0 -4.08-11.86 2.5 2.5 0 0 1 3.63-3.44 22.42 22.42 0 0 1 5.45 15.49 2.49 2.49 0 0 1 -2.49 2.4z"/><path d="m317.58 104.9a2.46 2.46 0 0 1 -1.67-.64 2.5 2.5 0 0 1 -.19-3.53c4.51-5 2.74-9 2.67-9.2a2.5 2.5 0 0 1 4.49-2.19c.14.28 3.43 7.11-3.44 14.73a2.51 2.51 0 0 1 -1.86.83z"/><path d="m220.42 237.92a2.42 2.42 0 0 1 -1.14-.27 43.83 43.83 0 0 1 -15.49-13.65 2.5 2.5 0 1 1 4.2-2.71 39.45 39.45 0 0 0 13.57 11.94 2.49 2.49 0 0 1 -1.14 4.72z"/><path d="m338.42 290.89a2.49 2.49 0 0 1 -2-1c-7.1-9.13-21.58-12.49-21.73-12.52a2.5 2.5 0 1 1 1.1-4.88c.66.15 16.36 3.77 24.58 14.33a2.51 2.51 0 0 1 -2 4z"/><path d="m159.68 308.58a2.42 2.42 0 0 1 -1-.2 2.5 2.5 0 0 1 -1.32-3.28c.26-.6 6.48-15 18.94-20.05a2.5 2.5 0 0 1 1.9 4.62c-10.52 4.33-16.2 17.26-16.2 17.39a2.5 2.5 0 0 1 -2.32 1.52z"/><path d="m114.78 403.83a2.46 2.46 0 0 1 -1.37-.41c-7.54-5-12.26-21.1-12.78-22.92a2.5 2.5 0 0 1 4.82-1.36c1.25 4.46 5.63 16.76 10.71 20.11a2.5 2.5 0 0 1 -1.38 4.58z"/><path d="m398.9 368.85a2.5 2.5 0 0 1 -1.21-4.69c7.57-4.14 11.32-21.94 12.12-28.45a2.5 2.5 0 1 1 5 .61 90.94 90.94 0 0 1 -2.9 13.46c-2.93 9.77-6.89 16.09-11.77 18.77a2.63 2.63 0 0 1 -1.24.3z"/><path d="m178.75 445.55a2.51 2.51 0 0 1 -2.3-3.5c3.58-8.23 4.56-19.46 4.57-19.58a2.5 2.5 0 0 1 5 .42c0 .5-1.06 12.18-5 21.15a2.49 2.49 0 0 1 -2.27 1.51z"/><path d="m328 428.72a2.51 2.51 0 0 1 -2.34-1.6c-2.8-7.28-2.63-24.83-2.63-25.57a2.5 2.5 0 1 1 5 .06c-.05 4.8.25 18.41 2.3 23.7a2.51 2.51 0 0 1 -1.43 3.24 2.61 2.61 0 0 1 -.9.17z"/><path d="m330.59 434.38c-4.41 0-3.76 6.83.63 6.83s3.78-6.83-.63-6.83z" fill-rule="evenodd"/><path d="m415.08 316.63c-4.41 0-3.76 6.83.64 6.83s3.75-6.83-.64-6.83z" fill-rule="evenodd"/><path d="m348.57 297.9c-4.41 0-3.76 6.84.63 6.84s3.8-6.84-.63-6.84z" fill-rule="evenodd"/><path d="m154.45 317.61c-4.41 0-3.75 6.83.64 6.83s3.75-6.83-.64-6.83z" fill-rule="evenodd"/><path d="m124.4 402.85c-4.41 0-3.76 6.83.63 6.83s3.76-6.83-.63-6.83z" fill-rule="evenodd"/><path d="m187.46 404.82c-4.41 0-3.75 6.83.64 6.83s3.75-6.83-.64-6.83z" fill-rule="evenodd"/><path d="m232.79 234.35c-4.41 0-3.76 6.83.63 6.83s3.76-6.83-.63-6.83z" fill-rule="evenodd"/><path d="m116.52 154c-4.41 0-3.76 6.83.63 6.83s3.76-6.83-.63-6.83z" fill-rule="evenodd"/><path d="m235.5 36.29c-4.41 0-3.76 6.83.63 6.83s3.76-6.83-.63-6.83z" fill-rule="evenodd"/><path d="m299.79 94.67c-4.41 0-3.75 6.83.64 6.83s3.76-6.83-.64-6.83z" fill-rule="evenodd"/></g><path d="m153.75 101.41h-.09a.51.51 0 0 1 -.41-.58c0-.21 3.9-21.39 19.05-27.09a.5.5 0 1 1 .35.93c-14.65 5.49-18.38 26.11-18.41 26.33a.51.51 0 0 1 -.49.41z" fill="#383333"/></g></svg>