<svg id="Icons" height="512" viewBox="0 0 128 128" width="512" xmlns="http://www.w3.org/2000/svg">
    <path d="m107.165 26.464a28.3 28.3 0 0 1 -2.44 4.711c-3.125 5.773-5.134 10.175-8.825 13.951 10.292 7.153 10.359 22.8.47 30.114a6.665 6.665 0 0 1 .25 3.471 6.783 6.783 0 0 1 -4.771 8.271 6.717 6.717 0 0 1 -4.7 1.63 6.8 6.8 0 0 1 -4.971 7.171 6.816 6.816 0 0 1 -3.178 1.54 9.355 9.355 0 0 1 .06 3.281 8.066 8.066 0 0 1 3.5-.09c4.395-3.616 11.147-2.577 12.552 3.47.187 4.373-1.526 9.731-2.371 11.892-1.676 4.848-6.25 8.141-11.281 7.061-3.385 1.9-5.7 2.461-9.551.52a12.323 12.323 0 0 1 -11.4 1.69c-2.958 1.145-6.671 1.241-9.371-.35a8.215 8.215 0 0 1 -9.121-1.79c-5.823 1.583-13.708-.015-18.393-4.4-4.784-4.136-3.744-12.76 1.621-15.582-.07-5.8 4.742-10.661 10.581-11.221a6.659 6.659 0 0 1 -.39-3.651 6.781 6.781 0 0 1 -1.93-1.17 6.791 6.791 0 0 1 -4.771-8.261 6.668 6.668 0 0 1 .265-3.462c-13.5-10.252-7.33-31.9 9.551-33.5a21.84 21.84 0 0 1 2.031-3.86 7.578 7.578 0 0 1 -11.622-6.8 7.09 7.09 0 0 1 -3.22-4.5 6.987 6.987 0 0 1 -5.191-6.021c-.897-9.089 13.271-18.487 20.868-10.997 4.903-9.218 19.426-8.682 19.732 3.05a12.22 12.22 0 0 1 6.7-.04c2.421-6.021 6.712-10.592 12.873-10.592a9.184 9.184 0 0 1 6.111 2.24c8.558-2.89 15.789 4.8 12.231 13.232 5.036-.244 9.736 3.674 8.101 8.992z"
          fill="#fff"/>
    <path d="m97.758 60.364a12.694 12.694 0 0 1 -12.691 12.692h-44.779a12.692 12.692 0 1 1 2.791-25.073 15.924 15.924 0 0 1 30.309-4.6 9.844 9.844 0 0 1 13.877 4.484 12.689 12.689 0 0 1 10.493 12.497z"
          fill="#e1e6e9"/>
    <g fill="#d5d6db">
        <path d="m97.756 60.362a12.691 12.691 0 0 1 -12.686 12.694h-44.785a12.659 12.659 0 0 1 -9.752-4.578 12.548 12.548 0 0 0 6.313 1.689h44.785a12.687 12.687 0 0 0 9.744-20.811 12.675 12.675 0 0 1 6.381 11.006z"/>
        <path d="m41.226 80.843a.789.789 0 0 1 -1.039.283l-1.506-.863v1.6a.764.764 0 0 1 -1.528 0v-1.6l-1.506.863a.8.8 0 0 1 -1.047-.283.765.765 0 0 1 .283-1.039l1.5-.871-1.383-.8a.745.745 0 0 1 -.359-.458.734.734 0 0 1 .076-.581.778.778 0 0 1 1.04-.29l1.391.8v-1.728a.764.764 0 1 1 1.528 0v1.724l1.383-.795a.776.776 0 0 1 1.047.283.758.758 0 0 1 -.282 1.039l-1.384.8 1.506.871a.755.755 0 0 1 .28 1.045z"/>
        <path d="m57.734 80.843a.79.79 0 0 1 -1.04.283l-1.505-.863v1.6a.765.765 0 0 1 -1.529 0v-1.6l-1.5.863a.8.8 0 0 1 -1.047-.283.764.764 0 0 1 .283-1.039l1.505-.871-1.383-.8a.745.745 0 0 1 -.359-.458.734.734 0 0 1 .076-.581.777.777 0 0 1 1.039-.29l1.391.8v-1.728a.765.765 0 0 1 1.529 0v1.724l1.383-.795a.776.776 0 0 1 1.047.283.758.758 0 0 1 -.283 1.039l-1.383.8 1.506.871a.756.756 0 0 1 .27 1.045z"/>
        <path d="m74.241 80.843a.789.789 0 0 1 -1.039.283l-1.5-.863v1.6a.765.765 0 0 1 -1.529 0v-1.6l-1.505.863a.8.8 0 0 1 -1.048-.283.765.765 0 0 1 .28-1.043l1.506-.871-1.383-.8a.75.75 0 0 1 -.36-.458.739.739 0 0 1 .077-.581.777.777 0 0 1 1.039-.29l1.391.8v-1.724a.765.765 0 0 1 1.529 0v1.724l1.383-.795a.776.776 0 0 1 1.047.283.758.758 0 0 1 -.283 1.039l-1.383.8 1.5.871a.754.754 0 0 1 .278 1.045z"/>
        <path d="m90.749 80.843a.789.789 0 0 1 -1.039.283l-1.51-.863v1.6a.764.764 0 0 1 -1.528 0v-1.6l-1.506.863a.8.8 0 0 1 -1.047-.283.765.765 0 0 1 .283-1.039l1.506-.871-1.384-.8a.748.748 0 0 1 -.359-.458.739.739 0 0 1 .077-.581.777.777 0 0 1 1.039-.29l1.391.8v-1.728a.764.764 0 0 1 1.528 0v1.724l1.384-.795a.776.776 0 0 1 1.047.283.758.758 0 0 1 -.283 1.039l-1.383.8 1.505.871a.755.755 0 0 1 .279 1.045z"/>
        <path d="m48.057 89.648a.79.79 0 0 1 -1.039.282l-1.506-.863v1.6a.764.764 0 0 1 -1.528 0v-1.6l-1.506.863a.8.8 0 0 1 -1.047-.282.766.766 0 0 1 .283-1.04l1.506-.871-1.384-.8a.749.749 0 0 1 -.359-.458.739.739 0 0 1 .077-.581.777.777 0 0 1 1.039-.29l1.391.8v-1.728a.764.764 0 1 1 1.528 0v1.727l1.384-.8a.776.776 0 0 1 1.047.283.758.758 0 0 1 -.283 1.039l-1.383.8 1.5.871a.756.756 0 0 1 .28 1.048z"/>
        <path d="m64.565 89.648a.79.79 0 0 1 -1.039.282l-1.506-.863v1.6a.764.764 0 1 1 -1.528 0v-1.6l-1.506.863a.8.8 0 0 1 -1.047-.282.766.766 0 0 1 .283-1.04l1.5-.871-1.383-.8a.742.742 0 0 1 -.359-.458.734.734 0 0 1 .076-.581.778.778 0 0 1 1.04-.29l1.391.8v-1.728a.764.764 0 1 1 1.528 0v1.727l1.383-.8a.776.776 0 0 1 1.047.283.758.758 0 0 1 -.282 1.039l-1.384.8 1.506.871a.756.756 0 0 1 .28 1.048z"/>
        <path d="m81.073 89.648a.791.791 0 0 1 -1.04.282l-1.5-.863v1.6a.765.765 0 0 1 -1.529 0v-1.6l-1.5.863a.8.8 0 0 1 -1.047-.282.765.765 0 0 1 .283-1.04l1.5-.871-1.383-.8a.742.742 0 0 1 -.359-.458.734.734 0 0 1 .076-.581.777.777 0 0 1 1.039-.29l1.391.8v-1.728a.765.765 0 0 1 1.529 0v1.727l1.383-.8a.776.776 0 0 1 1.047.283.758.758 0 0 1 -.283 1.039l-1.383.8 1.506.871a.757.757 0 0 1 .27 1.048z"/>
        <path d="m56.586 99.644a.79.79 0 0 1 -1.039.283l-1.506-.864v1.6a.764.764 0 1 1 -1.528 0v-1.6l-1.506.864a.8.8 0 0 1 -1.047-.283.765.765 0 0 1 .283-1.039l1.506-.872-1.384-.8a.753.753 0 0 1 -.359-.459.739.739 0 0 1 .077-.581.777.777 0 0 1 1.039-.29l1.391.8v-1.727a.764.764 0 1 1 1.528 0v1.724l1.384-.794a.775.775 0 0 1 1.047.282.759.759 0 0 1 -.283 1.04l-1.383.8 1.505.872a.755.755 0 0 1 .275 1.044z"/>
        <path d="m73.094 99.644a.79.79 0 0 1 -1.039.283l-1.506-.864v1.6a.764.764 0 1 1 -1.528 0v-1.6l-1.506.864a.8.8 0 0 1 -1.047-.283.765.765 0 0 1 .283-1.039l1.5-.872-1.383-.8a.747.747 0 0 1 -.359-.459.735.735 0 0 1 .076-.581.778.778 0 0 1 1.04-.29l1.391.8v-1.727a.764.764 0 1 1 1.528 0v1.724l1.383-.794a.774.774 0 0 1 1.047.282.759.759 0 0 1 -.282 1.04l-1.384.8 1.506.872a.755.755 0 0 1 .28 1.044z"/>
    </g>
    <path d="m56.657 24.184a1.035 1.035 0 0 0 -.724.385 10.181 10.181 0 0 1 -1.961 1.912c-4.167 2.532-5.378-1.7-5.47-5.4 4.593-2.149 6.907-4.966 6.625-8.873-.226-4.038-5.252-3.686-7.331-1.2-2.184 2.323-3 5.874-3.114 9.11-1.635.5-4.022 1.01-5.839 1.509-.213-3.472.174-6.493-2.218-8.291-3.511-2-10.439 2.86-10.106 6.725a1.082 1.082 0 0 0 2.037.073c1.359-2.513 3.042-4.564 5.107-3.889a2.032 2.032 0 0 1 .788 1.358 25.772 25.772 0 0 1 .5 5.107c-.954.288-2.638.687-3.147 1.34a1.3 1.3 0 0 0 .455 1.981c.682.213 1.929-.3 2.709-.521.014 1.542 0 3.436-.016 5.677-.026 1.317.607 2.157 2.117 1.723 1.014-.267 1.536-1.1 1.584-2.519.084-2.416.152-4.45.166-6.1 1.51-.423 4.394-1.219 5.924-1.743.152 4.2 2.543 8.142 6.961 7.51a8.286 8.286 0 0 0 5.372-3.377 2.044 2.044 0 0 0 .421-1.494c-.029-.552-.276-1.033-.84-1.003zm-7.557-9.155c.408-1.45 1.489-4.672 3.08-3.579a1.315 1.315 0 0 1 .329.821c.289 3.161-1.137 5.022-3.978 6.426a18.407 18.407 0 0 1 .569-3.668z"
          fill="#df393f"/>
    <path d="m101.352 24.066c-.952-.676-2.639-1-3.319.211a19.771 19.771 0 0 1 -4.207 4.723c-3.559 2.048-.014-4.036.682-5.066.49-.952.881-1.1.52-1.693a3.648 3.648 0 0 0 -2.526-.489 1.976 1.976 0 0 0 -1.029.8 14.531 14.531 0 0 0 -2.347 5.011c-1.76 1.3-5.215 2.037-5.2-1.029 3.944-3.343 8.589-7.552 9.821-12.124 1.406-5.045-4.332-6.184-7.361-2.94-3.461 3.385-5.761 9.541-5.758 14.221-1.769 1.522-5.3 2.986-5.624-.334 3.767-3.869 10.685-10.726 8.39-15.975a2.914 2.914 0 0 0 -2.244-1.364c-6.4-.462-9.038 9.379-9.518 14.361a20.307 20.307 0 0 1 -2.109.155c-.81-7.211-11.923-4.822-11.123 1.966.385 6.28 9.291 6.222 10.8.5a17.723 17.723 0 0 0 2.463-.172c.336 5.547 5.541 6.321 9.378 3.33.827 3.355 5.247 3.64 7.816 2.15.793 3.515 4.831 2.347 6.279-.286-.577 1.3-.911 1.875-1.319 2.791-14.8 4.489-7.479 14.432-1.5 7.371a43.363 43.363 0 0 0 5.293-8.445c.191-.368.813-1.551 1.9-3.533a39.791 39.791 0 0 0 1.95-3.611.49.49 0 0 0 -.108-.529zm-15.434-6.066a23.566 23.566 0 0 1 2.4-4.5c.833-1.17 1.5-1.7 1.973-1.608.577.118.742.765.495 1.934-.8 3.534-3.765 6.81-6.514 9.54a27.127 27.127 0 0 1 1.646-5.366zm-9.611-1.309a23.588 23.588 0 0 1 2.032-4.678c.735-1.233 1.355-1.818 1.833-1.76.583.071.8.7.645 1.887-.511 3.585-3.2 7.089-5.718 10.031a27.127 27.127 0 0 1 1.208-5.482zm-10.928 9.474c-4.1 3.008-4.96-5.779-.811-5.523a3.482 3.482 0 0 0 1.693 3.758 3.259 3.259 0 0 1 -.882 1.765zm24.412 13.218c-1.01 1.2-2.4 1.476-2.138-.061.66-1.951 2.53-2.939 4.829-3.939a21.519 21.519 0 0 1 -2.691 4z"
          fill="#df393f"/>
    <path d="m45.762 100.992c-2.461-3.456-9.184-4.424-12.519-1.98a4.881 4.881 0 0 0 -1.712 5.485c.976 2.14 2.484 2.979 4.627 4.4 1.762 1.3 4.051 1.941 3.924 4.189-.311 3.652-10.721 1.443-9.859-1.659.179-.587.452-.937.615-1.542.209-.8-.517-1.378-1.293-1.608-1.479-.433-2.324.471-2.8 1.915a3.775 3.775 0 0 0 1.116 4.168c2.5 2.6 9.7 4.139 12.921 2.72a4.514 4.514 0 0 0 2.671-6.437c-1.429-2.339-4.972-3.675-7.061-5.4-1.869-1.244-2.129-3.95.2-4.771a7.536 7.536 0 0 1 5.727 1.009c1.288.916.6 2.043.3 3.338a1.433 1.433 0 0 0 1.349 1.513c2.479.314 2.897-3.746 1.794-5.34z"
          fill="#df393f"/>
    <path d="m89.1 104.917c-.171-.524-.72-.631-1.652-.343-.925.3-1.439.7-1.555 1.718a27.669 27.669 0 0 1 -2.016 7.808c-.425-1.541-1.222-4.9-1.7-6.845-.226-1.269-1.866-1-2.615-.352a1.959 1.959 0 0 0 -.491 1.082 45.311 45.311 0 0 1 -2.1 7.564c-.762-2.805-1.279-5.1-1.585-6.885a1.118 1.118 0 0 0 -.479-.84 2.746 2.746 0 0 0 -2.365.39c-.723.959.031 2.551.1 3.724a14.66 14.66 0 0 1 -2.187.577c-2.036-7.269-12.216-3.254-10.838 3.486-.834.87-3.058 2.486-3.18.464 0-.882 1.363-5.261 1.231-6.02.068-1.895-2.239-1.811-3.628-1.1a11.442 11.442 0 0 0 -4.545 4.815c.216-1.594 1.257-3.642 1.543-4.983.019-.563-.343-.567-.9-.645-1.155-.09-1.927.086-2.431 1.083-1.168 2.341-2.245 6.272-1.615 8.719.249 1.132 2.049 1.425 2.817.854.911-.883 1.354-2.974 2.208-4.066.439-.725 2.523-3.8 2.8-2.335 0 .7-1.024 3.752-.983 4.367-.174 4.209 5.746 3.05 7.7 1.012 2.9 3.4 9.448 1.384 9.881-3.165a13.845 13.845 0 0 0 2.614-.647c.5 3.153 1.9 5.57 5.152 3.5 1.3-1.253 1.618-2.9 2.111-5.085.42 1.552.781 3.191 1.7 3.975.957.846 2.819.22 3.639-.629a6.915 6.915 0 0 0 1.358-2.268 28.421 28.421 0 0 0 2.011-8.93zm-22.379 11.7c-4.058 3.3-5.3-5.32-1.212-5.448a3.387 3.387 0 0 0 1.958 3.613 3.087 3.087 0 0 1 -.742 1.834z"
          fill="#df393f"/>
</svg>