<svg clip-rule="evenodd" fill-rule="evenodd" height="512" stroke-linejoin="round" stroke-miterlimit="2" viewBox="0 0 256 256" width="512" xmlns="http://www.w3.org/2000/svg"><g id="Exp-2.-Sticker"><g><g fill="#f1f1f6"><path d="m170.776 54.678-15.136 12.978c-1.306 1.119-2.3 2.556-2.888 4.171 0 0-13.846 38.968-10.748 62.14 1.121 8.385 4.374 15.056 9.46 19.204 3.865 3.153 8.856 5.116 15.365 5.018 32.381-.488 43.411-9.071 43.411-9.071.012-.009.025-.018.037-.027 34.39-24.444 30.524-56.363 30.333-68.61-.291-18.731-9.231-39.897-35.099-41.538-19.43-1.233-31.396 11.59-34.738 15.74zm11.28 35.723c1.209-1.76 5.211-7.373 10.09-11.918 1.618-1.507 3.326-2.909 5.074-3.872.611-.336 1.14-.778 1.725-.741 6.794.431 7.466 7.031 7.838 11.942.319 4.223 2.338 20.232-13.228 31.322-.151.096-7.178 4.531-18.182 3.098-.596-.078-.475-.73-.552-1.258-.213-1.448-.162-3.052.005-4.721.975-9.713 5.937-21.033 7.226-23.844z"/><path d="m85.224 54.678c-3.347-4.154-15.311-16.967-34.735-15.735-25.868 1.641-34.808 22.807-35.099 41.538-.191 12.247-4.057 44.166 30.333 68.61.012.009.025.018.037.027 0 0 11.03 8.583 43.411 9.071 6.509.098 11.5-1.865 15.365-5.018 5.086-4.148 8.339-10.819 9.46-19.204 3.098-23.172-10.748-62.14-10.748-62.14-.588-1.615-1.582-3.052-2.888-4.171zm-11.289 35.712c1.033 2.277 4.531 10.312 6.357 18.565.723 3.267 1.224 6.566.958 9.424-.072.779.227 1.742-.623 1.853-10.823 1.41-17.8-2.858-18.169-3.09-15.579-11.098-13.56-27.107-13.241-31.33.372-4.911 1.044-11.511 7.838-11.942.585-.037 1.114.405 1.725.741 1.748.963 3.456 2.365 5.074 3.872 4.864 4.531 8.856 10.123 10.078 11.901z"/><path d="m109.448 151.181c-2.882-.004-5.626 1.236-7.528 3.403-1.901 2.166-2.776 5.048-2.399 7.905 0 0 3.266 22.458-8.011 37.097-2.327 3.022-2.734 7.104-1.048 10.524 1.687 3.421 5.171 5.585 8.985 5.579l56.261-.085c3.63-.006 6.973-1.979 8.732-5.155s1.659-7.056-.263-10.137c0 0-11.436-17.998-6.207-36.339.859-3.014.255-6.257-1.631-8.76-1.887-2.504-4.838-3.977-7.973-3.981z"/><path d="m87.644 189.95c-2.661.043-5.195 1.146-7.041 3.063-15.043 15.625-15.534 33.006-15.534 33.006-.12 2.7.858 5.333 2.71 7.299 1.853 1.967 4.422 3.101 7.124 3.143 36.18.563 71.782.548 106.799-.052 5.426-.093 9.787-4.497 9.828-9.924.149-19.917-15.762-34.169-15.762-34.169-1.808-1.601-4.135-2.493-6.55-2.512-34.484-.271-60.2-.204-81.574.146z"/><path d="m63.933 20.519c-3.399.124-6.501 1.967-8.235 4.893-1.735 2.925-1.864 6.531-.343 9.572 1.853 3.706 10.543 18.687 11.817 54.843.572 16.227.906 34.478 4.508 50.283 3.759 16.493 11.127 30.392 24.269 38.485 8.766 5.398 20.251 8.362 35.485 7.215 15.049-1.133 26.186-5.757 34.52-12.379 12.414-9.863 18.757-24.431 21.606-40.335 2.79-15.574 2.227-32.401 2.109-45.973-.259-29.849 11.684-52.614 11.684-52.614 1.618-3.058 1.54-6.735-.205-9.722-1.745-2.986-4.91-4.859-8.368-4.951-42.754-1.137-85.705-.899-128.847.683z"/></g><path d="m178.057 61.608s9.455-13.787 26.821-12.685c19.427 1.232 25.515 17.646 25.734 31.714.167 10.729 4 38.888-26.128 60.303 0 0-9.699 6.827-37.805 7.25-31.258.47-4.531-72.942-4.531-72.942zm-4.732 23.855s14.661-22.308 26.253-21.573c12.967.823 16.467 11.795 17.176 21.168.412 5.447 2.67 25.957-17.439 40.251 0 0-9.74 6.857-25.234 4.839-20.691-2.696-.756-44.685-.756-44.685z" fill="#4bcbec"/><path d="m77.943 61.608s-9.455-13.787-26.821-12.685c-19.427 1.232-25.515 17.646-25.734 31.714-.167 10.729-4 38.888 26.128 60.303 0 0 9.699 6.827 37.805 7.25 31.258.47 4.531-72.942 4.531-72.942zm4.732 23.855s-14.661-22.308-26.253-21.573c-12.967.823-16.467 11.795-17.176 21.168-.412 5.447-2.67 25.957 17.439 40.251 0 0 9.74 6.857 25.234 4.839 20.691-2.696.756-44.685.756-44.685z" fill="#4bcbec"/><path d="m109.435 161.181s3.552 26.911-10.003 44.508l56.26-.085s-13.718-21.997-7.339-44.372z" fill="#ff9227"/><path d="m87.807 199.948c21.312-.349 46.951-.414 81.333-.145 0 0 12.506 11.072 12.39 26.608-34.909.598-70.402.613-106.471.051 0 0 .617-13.912 12.748-26.514z" fill="#4bcbec"/><path d="m64.299 30.512c42.931-1.574 85.671-1.811 128.215-.68 0 0-13.128 24.814-12.844 57.378.283 32.563 3.681 84.664-48.987 88.628-52.668 3.965-52.141-47.31-53.517-86.363-1.371-38.895-10.873-54.976-12.867-58.963z" fill="#ffbe32"/><path d="m128.36 54.41s8.119 12.613 12.613 20.297c0 0 15.078 1.74 21.457 3.914 0 0-4.205 9.859-12.903 16.528 0 0 3.479 17.977 3.334 24.791 0 0-12.758-3.625-25.081-11.308 0 0-10.873 6.959-24.501 11.018 0 0 .58-10.873 3.914-23.921 0 0-6.814-7.539-13.193-17.978 0 0 10.001-2.461 22.759-3.389 0 0 8.82-18.68 11.601-19.952z" fill="#ff9227"/><g fill="#fff"><path d="m117.895 41.21s.83 4.909 2.643 9.968c.186.52.759.791 1.279.604.519-.186.79-.759.604-1.278-1.751-4.887-2.554-9.628-2.554-9.628-.092-.544-.608-.911-1.153-.819-.544.092-.911.609-.819 1.153z"/><path d="m152.639 46.867s-2.974 4.348-5.346 9.486c-.231.501-.012 1.095.489 1.327.501.231 1.096.012 1.327-.489 2.299-4.98 5.181-9.195 5.181-9.195.312-.456.195-1.078-.261-1.39-.455-.311-1.078-.195-1.39.261z"/><path d="m175.962 61.002s-6.351 2.987-12.597 6.966c-.465.296-.602.915-.306 1.38.297.466.916.603 1.381.307 6.135-3.909 12.373-6.844 12.373-6.844.5-.235.715-.831.48-1.33-.235-.5-.832-.714-1.331-.479z"/><path d="m172.079 88.93s-4.921-.037-10.11.705c-.547.078-.927.585-.849 1.132.078.546.585.926 1.132.848 5.036-.72 9.813-.685 9.813-.685.552.004 1.003-.44 1.007-.992s-.441-1.004-.993-1.008z"/><path d="m168.034 107.916s-3.575-3.383-7.876-6.378c-.453-.316-1.077-.204-1.392.249-.316.453-.204 1.077.249 1.392 4.175 2.907 7.645 6.19 7.645 6.19.401.379 1.034.362 1.414-.039.379-.401.361-1.035-.04-1.414z"/><path d="m143.688 132.872s-1.795-4.867-4.414-9.712c-.262-.485-.87-.666-1.355-.404-.486.263-.667.87-.404 1.355 2.549 4.716 4.297 9.454 4.297 9.454.191.518.766.783 1.284.592s.783-.767.592-1.285z"/><path d="m118.028 138.941s2.584-6.639 4.173-14.102c.115-.54-.229-1.071-.769-1.186s-1.072.23-1.187.769c-1.554 7.3-4.081 13.793-4.081 13.793-.2.515.055 1.095.569 1.295s1.094-.055 1.295-.569z"/><path d="m87.831 112.295s5.598-2.642 11.041-6.565c.448-.323.55-.949.227-1.396-.323-.448-.948-.55-1.396-.227-5.288 3.812-10.725 6.379-10.725 6.379-.499.235-.713.832-.478 1.331.236.499.832.713 1.331.478z"/><path d="m81.352 85.298s5.324 3.157 11.623 5.468c.518.19 1.093-.076 1.283-.594s-.076-1.093-.594-1.284c-6.12-2.244-11.292-5.31-11.292-5.31-.475-.282-1.089-.125-1.37.35-.282.475-.125 1.089.35 1.37z"/><path d="m90.344 57.051s4.275 4.341 9.444 8.247c.441.333 1.068.245 1.401-.195.333-.441.245-1.068-.195-1.401-5.049-3.814-9.226-8.054-9.226-8.054-.387-.394-1.02-.398-1.414-.011-.393.387-.398 1.021-.01 1.414z"/><path d="m199.492 56.588s10.974-2.647 18.714 5.025c5.288 5.241 8.992 15.202 7.024 33.766-.059.549.34 1.042.889 1.1.548.058 1.041-.34 1.099-.889 2.066-19.488-2.052-29.895-7.604-35.397-8.518-8.443-20.59-5.549-20.59-5.549-.536.129-.867.669-.738 1.206.129.536.669.867 1.206.738z"/><path d="m54.724 54.568s-12.034-.303-19.3 10.487c-4.726 7.02-7.475 18.835-3.222 38.745.116.54.647.885 1.187.769.54-.115.884-.647.769-1.187-4.083-19.114-1.612-30.471 2.925-37.21 6.631-9.847 17.594-9.605 17.594-9.605.551.013 1.01-.424 1.023-.976s-.424-1.01-.976-1.023z"/></g><path d="m95.399 215.658h65.784c.828 0 1.5-.672 1.5-1.5s-.672-1.5-1.5-1.5h-65.784c-.827 0-1.5.672-1.5 1.5s.673 1.5 1.5 1.5z" fill="#3c69c6"/></g></g></svg>