<svg id="Diamond" enable-background="new 0 0 256 256" viewBox="0 0 256 256" xmlns="http://www.w3.org/2000/svg">
    <g>
        <g>
            <path d="m127.8828 232.85457c-3.82758.09949-7.59103-3.95451-16.22089-12.27522-32.79529-31.65905-95.7449-96.74762-104.51078-110.01833-4.60317-6.95225-6.71026-9.00838-5.93706-12.67154 18.83019-.04713 37.66061-.08472 56.49076-.10311 7.7989-.00696 15.58796-.01393 23.38687-.02083 7.1004 23.1964 38.85716 111.17181 46.7911 135.08903z"
                  fill="black"/>
            <path d="m127.88985 232.85599c-.32442.01361-.66288-.01515-.98718-.07205-24.58193-56.0361-44.45663-95.12801-48.75634-102.18384-5.60681-9.2008-15.50638-23.57361-31.07851-32.80094 3.54042-.00856 7.09477-.00298 10.63519-.01154 7.80019-.00188 15.58613-.01789 23.38632-.01976 7.10087 23.20004 38.85451 111.16738 46.80052 135.08813z"
                  fill="black"/>
            <path d="m25.46519 112.38601c2.62515 2.24374 5.0754 4.64064 7.48205 7.07614 2.40345 2.4393 4.73356 4.93954 7.00616 7.49963 2.28952 2.55302 4.47026 5.21866 6.57307 7.90924 2.09051 2.69609 4.15412 5.44 6.01294 8.39116.45804.72589.24094 1.68568-.48493 2.14372-.55159.34807-1.24224.30289-1.74112-.05579-2.82616-2.04741-5.44314-4.30667-7.96202-6.67902-2.50336-2.38083-4.90352-4.80945-7.22475-7.32361-2.31696-2.52626-4.56503-5.12269-6.74605-7.77439-2.17628-2.65682-4.30897-5.35228-6.26676-8.20087-.70782-1.02962-.44681-2.43801.58282-3.14571.86234-.59274 1.99059-.50594 2.75004.1429z"
                  fill="#1e1d1d" opacity=".7"/>
            <path d="m127.74468 233.91359c-3.84023 0-7.42152-3.4711-14.45805-10.29068l-2.35883-2.28238c-33.13445-31.98637-95.76007-96.72427-104.65956-110.1961-.80717-1.2197-1.53789-2.28857-2.1894-3.24174-3.08266-4.50829-4.63019-6.77139-3.90016-10.23145.10331-.4883.53306-.83816 1.03237-.83954 18.83135-.04752 37.66201-.08471 56.49268-.1033l23.38716-.02066h.00069c.46487 0 .87534.30372 1.01171.74793 4.21834 13.78036 17.18947 50.56635 28.63443 83.02103 7.67909 21.77834 14.93326 42.34868 18.14953 52.04431.10538.31819.05373.66667-.13843.94078-.19284.27411-.50345.44078-.83816.45041-.05509.00139-.11088.00139-.16598.00139zm-125.61558-134.96825c-.14807 2.1412 1.03444 3.87054 3.6963 7.76312.65634.96075 1.39326 2.03857 2.208 3.26861 8.54962 12.94359 71.34261 77.96523 104.36342 109.84003l2.36227 2.28651c5.61711 5.44354 8.8933 8.61848 11.57925 9.46422-3.43459-10.2287-10.32442-29.76598-17.59581-50.38727-11.25074-31.90373-23.976-67.99136-28.43195-82.35644l-22.60478.01998c-18.52488.0186-37.05113.05441-55.5767.10124z"
                  fill="white"/>
        </g>
        <g>
            <path d="m254.93758 98.02888c.13818 3.57823-2.40005 7.33452-9.42471 15.24697-14.53918 16.39007-67.5354 75.33962-103.64722 109.39414-7.07071 6.6653-10.54849 10.09399-13.98285 10.18457 9.71809-37.12724 40.50621-125.94458 43.74348-135.04285 27.7704.04361 55.54099.11602 83.3113.21717z"
                  fill="#ffdf84"/>
            <path d="m225.87709 97.93515c-11.61584 4.66468-26.18298 11.37-34.38849 17.94421-2.54201 2.02715-13.47108 9.4716-25.45531 33.05077-7.54126 14.82674-28.42761 57.68777-38.1451 83.92221 9.70634-37.12367 40.49627-125.93785 43.74072-135.04465 18.08252.02841 36.16536.07083 54.24818.12746z"
                  fill="#ffdf84"/>
            <path d="m127.88312 233.9122c-.32232 0-.62811-.14737-.82852-.40082-.2073-.26033-.27892-.60332-.1949-.92426 9.60403-36.69299 39.80734-123.99505 43.7688-135.13008.15013-.42149.54958-.70317.99724-.70317h.00139c27.77284.04339 55.54294.1157 83.31442.21694.56612.00207 1.03168.45042 1.05234 1.01722.16118 4.16187-2.85951 8.29688-9.69012 15.99043-6.47661 7.30099-64.42039 72.40735-103.71259 109.46124l-.92012.86777c-6.70732 6.32924-10.07442 9.50693-13.7597 9.60472-.00965.00001-.01929.00001-.02824.00001zm44.48918-135.04124c-4.76036 13.46907-33.20676 95.84409-43.03807 132.63489 2.58817-.90771 5.77963-3.92012 10.88503-8.73695l.92012-.86914c39.22607-36.99053 97.11062-102.03146 103.58174-109.32556 6.3678-7.17152 8.75761-10.64192 9.11574-13.4918-27.1544-.0978-54.3088-.16873-81.46456-.21144z"
                  fill="white"/>
        </g>
        <g>
            <path d="m171.62628 97.81172c-3.23727 9.09827-34.02539 97.9156-43.74348 135.04285-7.93394-23.91722-39.6907-111.89263-46.7911-135.08902 30.17823-.01019 60.35644-.00121 90.53458.04617z"
                  fill="red"/>
            <path d="m145.89888 131.53729c.86929-5.55607.68434-13.53992-.23618-20.21308-.73921-5.34708-2.81963-9.89216-5.19757-13.54917 10.38138.00227 20.76273.01857 31.1582.03489-3.24425 9.09267-34.03436 97.92095-43.74054 135.04465 8.10693-51.69677 12.77248-67.55775 18.01609-101.31729z"
                  fill="red"/>
            <path d="m104.74735 114.12405c1.43932 2.83304 2.44197 5.76443 3.40995 8.7127.919 2.95942 1.70883 5.95464 2.35569 8.99136.71528 3.01808 1.30921 6.07071 1.84837 9.1409.52085 3.07645.99664 6.16266 1.24836 9.32782l.00139.0179c.08459 1.06314-.70873 1.99348-1.77194 2.07797-.74793.05952-1.43114-.31784-1.79938-.91579-1.69779-2.76978-3.03065-5.66354-4.26505-8.58197-1.21288-2.92566-2.309-5.88704-3.23611-8.89583-.99573-2.99025-1.7965-6.03606-2.4086-9.13293-.56098-3.10831-1.0336-6.24757-.94859-9.51273.04242-1.62117 1.39082-2.90123 3.01214-2.85892 1.11379.02907 2.06647.67456 2.5401 1.60146z"
                  fill="#fff" opacity=".7"/>
            <path d="m115.04954 157.71829c.75637.53336 1.23718 1.11104 1.61995 1.71036.39929.5941.661 1.21825.84734 1.86742.23134.63495.38782 1.2928.41532 2.00638.04355.70831-.00302 1.45517-.29744 2.32607l-.02516.07434c-.20596.60962-.8673.93657-1.47679.73051-.07358-.02486-.14861-.05988-.21348-.09711-.78055-.455-1.31324-1.03404-1.75582-1.65163-.45861-.61232-.78826-1.28036-1.04304-1.97133-.19707-.70981-.31173-1.44698-.29256-2.21283.0034-.76103.10486-1.5437.48206-2.37059.25886-.56767.92899-.8179 1.49655-.55907.06315.02881.12218.06258.17731.10091z"
                  fill="#fff" opacity=".7"/>
            <path d="m127.88312 233.9122c-.45455 0-.8602-.29063-1.00414-.72452-3.21008-9.67772-10.46079-30.23842-18.13645-52.00711-11.45184-32.47467-24.43124-69.28269-28.66266-83.10506-.0978-.32094-.03857-.66943.16116-.93871.19904-.26997.51515-.42906.84987-.42906 30.18195-.01308 60.3584-.00069 90.53622.04614.34435.00069.66528.16805.86363.44835.19698.28099.24657.6405.13223.96419-3.95869 11.12402-34.13101 98.33379-43.71645 134.95515-.11845.45317-.52136.7755-.98968.79063-.011 0-.02272 0-.03373 0zm-45.35627-135.08945c4.60884 14.72183 17.12611 50.21924 28.21088 81.65395 6.88846 19.53453 13.43394 38.0966 17.03038 48.71097 10.09577-37.05113 37.02013-115.14652 42.36176-130.32014-29.20124-.04546-58.4066-.05649-87.60302-.04478z"
                  fill="white"/>
        </g>
        <g>
            <path d="m81.0917 97.76554c-7.7989.0069-15.58797.01387-23.38687.02083-18.83015.01839-37.66056.05598-56.49076.10311.42521-2.03295 1.73386-4.55375 4.00406-8.68459 4.81968-8.77921 29.79086-46.53479 31.36782-48.8633 5.4612-8.07796 8.25916-12.28473 10.88133-14.45809 8.49877 18.58457 26.15595 56.98261 33.62442 71.88204z"
                  fill="black"/>
            <path d="m81.08785 97.76421c-7.8002.00188-15.5863.01789-23.38633.01976-16.50319.03048-32.99224.04694-49.49528.09155 9.84819-1.79004 18.075-3.94929 24.52404-5.8998 11.44473-3.48008 18.23429-6.60081 22.68775-13.26553.76352-1.14131 2.99783-4.69234 4.25005-11.78522.81131-4.59703.93124-9.04.58519-13.22973 7.80178 16.86792 16.25067 34.90754 20.83458 44.06897z"
                  fill="black"/>
            <path d="m1.21381 98.94741c-.31818 0-.61915-.14325-.82025-.38981-.20179-.24725-.2803-.57232-.21488-.88499.4697-2.24451 1.9332-5.01173 4.11228-8.97732 4.94079-9.00004 30.13168-47.04636 31.41888-48.9465l.61708-.91323c5.21146-7.71009 7.82717-11.58063 10.46561-13.76659.25344-.20868.59091-.28926.91116-.21626s.58884.29201.7259.59091c7.52827 16.4622 25.8734 56.41761 33.60759 71.84812.1646.32783.14738.71694-.04546 1.02893-.19215.31198-.53237.50275-.89945.50275l-23.38647.02068c-18.82998.0186-37.65926.05579-56.48924.10331-.00068 0-.00206 0-.00275 0zm45.89966-71.2944c-2.17701 2.22315-4.78446 6.07992-9.03379 12.36782l-.61777.91323c-1.23417 1.82233-26.51527 40.03393-31.31695 48.77984-1.66392 3.02894-2.89051 5.31821-3.52688 7.11436 18.36234-.04614 36.724-.08195 55.08565-.09986l21.67985-.01929c-7.91394-15.98217-24.65369-52.40933-32.27011-69.0561z"
                  fill="white"/>
        </g>
        <g>
            <path d="m254.93758 98.02888c-27.77031-.10115-55.54089-.17356-83.31129-.21716 13.31293-23.38496 30.07687-51.50329 41.95584-71.90722 1.45596 1.35481 3.07355 3.58284 5.26457 7.22184 2.50659 4.16714 15.47353 23.94819 30.21149 52.04883 3.30933 6.29794 5.75983 9.49613 5.87939 12.85371z"
                  fill="#ffdf84"/>
            <path d="m254.93356 98.02312c-27.77299-.10008-55.53175-.17181-83.30466-.21542 7.8074-13.698 16.78822-29.03032 25.28812-43.47477-2.44257 10.51864-2.96841 22.04171 3.58047 28.44168 2.12665 2.06264 4.40924 3.50497 13.81244 6.80626 9.54378 3.3579 23.64359 6.76523 40.60983 8.23062.01402.07053.01391.14104.0138.21163z"
                  fill="#ffd255"/>
            <path d="m219.92096 46.84177c1.55965 1.30006 2.77171 2.78867 3.86935 4.3377 1.09953 1.54822 2.02623 3.18767 2.85901 4.87421.80917 1.69847 1.52063 3.4464 2.10872 5.2536.55933 1.82123 1.06677 3.66685 1.2477 5.66714.05399.59612-.38556 1.12308-.98174 1.177-.31308.02833-.60733-.07953-.82364-.27476l-.01392-.01263c-1.48984-1.35438-2.65314-2.86343-3.7644-4.39686-1.08405-1.5468-2.0392-3.15569-2.90646-4.8089-.88725-1.64319-1.68044-3.33348-2.30077-5.11497-.62239-1.78067-1.13019-3.62181-1.29041-5.65147l-.00117-.01675c-.05302-.67181.44861-1.25943 1.12038-1.31244.32959-.02602.64142.08354.87735.27913z"
                  fill="#fff" opacity=".7"/>
            <path d="m254.93741 99.08653c-.00137 0-.00275 0-.00414 0-27.76872-.10124-55.53882-.17356-83.30891-.21695-.37741-.00069-.72452-.2011-.91322-.52686-.18871-.32576-.19147-.72728-.00414-1.05441 8.74384-15.35889 19.15022-33.05456 28.3307-48.66689 4.89397-8.32373 9.54964-16.24181 13.62955-23.24942.16254-.27755.44214-.46694.75896-.51378.32094-.05441.64188.05303.87604.27135 1.51929 1.41323 3.19974 3.71145 5.45042 7.45114.40359.67011 1.07852 1.74656 1.989 3.19767 4.75209 7.57441 15.87886 25.31141 28.25357 48.90586.88155 1.67838 1.70248 3.13569 2.4339 4.43391 2.08817 3.70869 3.46834 6.15912 3.56613 8.87263.00964.28788-.09779.56681-.29753.77411-.19972.20525-.47383.32164-.76033.32164zm-81.4921-2.3299c26.76871.04339 53.53329.11295 80.30063.21005-.38429-1.88155-1.54271-3.93941-3.15979-6.81063-.74106-1.31406-1.57164-2.78927-2.4642-4.48901-12.33752-23.52214-23.43399-41.21093-28.1723-48.76399-.9201-1.46695-1.60193-2.55442-2.00964-3.23142-1.67494-2.78376-2.99864-4.70939-4.14879-6.02551-3.9091 6.70664-8.31409 14.19703-12.92981 22.04762-8.86506 15.07376-18.87061 32.09106-27.4161 47.06289z"
                  fill="white"/>
        </g>
        <g>
            <path d="m129.23895 23.15326c-8.10874 14.03082-41.13451 62.04737-48.14725 74.61227-7.46847-14.89943-25.12565-53.29747-33.6244-71.88203 2.20924-1.84789 4.31084-2.25712 7.78333-2.31877 11.0606-.2129 42.60114-.37439 73.98832-.41147z"
                  fill="red"/>
            <path d="m63.74866 31.11166c3.80368-.78382 7.61583-1.20319 11.42956-1.5015 3.81428-.2694 7.63061-.46762 11.44753-.40916 3.81696.02696 7.63422.11769 11.44984.37194 3.81564.2429 7.63016.5728 11.43967 1.20183.93596.15455 1.5816 1.12126 1.44184 2.15919-.11408.84847-.71776 1.48189-1.44558 1.60042l-.02499.00353c-3.81207.61707-19.03561 1.48697-22.84023 1.50197-3.8048-.00096-19.03304-.77394-22.85072-1.47029l-.01574-.00286c-.86197-.15724-1.44553-1.05954-1.30354-2.01537.11136-.74805.6372-1.30734 1.27236-1.4397z"
                  fill="none" opacity=".7"/>
            <path d="m81.09158 98.82344c-.00758 0-.01584 0-.02341 0-.39188-.00895-.74656-.23347-.92218-.58402-7.75004-15.46082-26.10756-55.44309-33.64065-71.91562-.19835-.4332-.08195-.94559.28375-1.25138 2.48073-2.07508 4.88087-2.50208 8.44287-2.56544 10.57512-.20317 41.00845-.37259 74.00584-.41185h.00137c.3781 0 .72659.2011.91599.52893.18939.32714.18939.73072 0 1.05854-3.96834 6.86642-14.02555 22.05864-23.75149 36.75085-10.23214 15.45805-20.81277 31.4416-24.38854 37.84797-.18732.33472-.54063.54202-.92355.54202zm-32.31282-72.61603c7.44907 16.28382 24.3424 53.06084 32.381 69.32056 4.30787-7.29962 14.04207-22.00423 23.48013-36.26188 9.01244-13.61507 18.31-27.66059 22.74528-35.05319-32.2653.04339-61.74683.21005-72.11396.40978-2.88017.05098-4.69285.31613-6.49245 1.58473z"
                  fill="#300f0f"/>
        </g>
        <g>
            <path d="m213.58212 25.9045c-11.87897 20.40393-28.64291 48.52226-41.95584 71.90722-12.84152-26.27505-35.40709-60.54639-42.32996-74.65837 33.49751-.04331 66.81236.06655 74.85985.43411 4.47959.1989 6.69599-.2389 9.42595 2.31704z"
                  fill="red"/>
            <path d="m150.93953 30.88825c3.6322-.77767 7.26361-1.16724 10.8949-1.47324 3.63142-.2792 7.2626-.41395 10.89343-.42536 3.631-.01545 7.26161.10493 10.89217.37299 3.63036.28706 7.26073.67447 10.8903 1.45577 1.15392.24838 1.85571 1.25403 1.56729 2.24617-.19977.6875-.82541 1.18836-1.57294 1.34831-3.632.76989-7.26358 1.1459-10.89481 1.42157-3.63139.25665-7.26236.36564-10.8933.33879-3.63077-.02282-7.26152-.16897-10.89204-.45957-3.63031-.3174-7.26048-.71837-10.89021-1.50744-1.06511-.23157-1.71071-1.1617-1.44203-2.07751.1854-.63184.76035-1.09202 1.44724-1.24048z"
                  fill="red" opacity=".7"/>
            <path d="m171.62573 98.86958c-.01102 0-.02203 0-.03305-.00069-.39256-.0124-.74518-.24036-.91736-.59298-7.41739-15.17706-17.88852-32.69505-27.12685-48.15035-6.58267-11.0152-12.26933-20.52764-15.20186-26.50563-.16048-.32782-.14119-.71557.05165-1.02549s.53168-.49794.8967-.49862c39.81836-.05165 67.82124.11157 74.90942.43526.72453.03168 1.39119.04752 2.00966.06129 3.20111.07369 5.51379.12672 8.09094 2.53996.35951.33678.43939.8781.19147 1.30441-4.08128 7.01036-8.73972 14.93051-13.63506 23.25699-9.17772 15.60682-19.57997 33.2956-28.31693 48.64141-.18731.33128-.53993.53444-.91873.53444zm-40.61313-74.66011c3.06268 5.94149 8.33061 14.75558 14.35269 24.83069 8.89948 14.88918 18.93947 31.68816 26.32794 46.51743 8.5331-14.94704 18.50696-31.90717 27.34447-46.93616 4.71765-8.02414 9.21492-15.67018 13.18602-22.48839-1.71214-1.32508-3.26448-1.36089-6.05789-1.42563-.63223-.01446-1.31406-.0303-2.05647-.06336-6.95734-.31681-34.22743-.47935-73.09676-.43458z"
                  fill="white"/>
        </g>
        <g>
            <path d="m171.62628 97.81172c-30.17815-.04738-60.35635-.05636-90.53458-.04618 7.01275-12.56491 40.03851-60.58146 48.14725-74.61227l.05737.00009c6.92287 14.11197 29.48844 48.38331 42.32996 74.65836z"
                  fill="red"/>
            <path d="m171.63087 97.81432c-30.18402-.05648-60.35427-.05648-90.53829-.04236 2.1863-3.9352 6.93942-11.34019 12.66604-20.08514 6.9253 4.41479 19.30931 10.18359 32.15889 6.07914 8.74487-2.80683 14.27382-9.06934 17.0383-12.20064 3.41359-3.89293 5.8678-7.92686 7.63089-11.70692 7.43323 12.55325 15.2332 26.06553 21.04417 37.95592z"
                  fill="red"/>
            <path d="m171.62573 98.86958h-.00137c-30.17783-.04683-60.35358-.05785-90.53209-.04614-.00069 0-.00069 0-.00069 0-.37535 0-.72246-.19835-.91185-.52204-.19009-.32369-.19491-.72383-.01171-1.05165 3.61434-6.47524 14.2177-22.49322 24.47188-37.98365 9.70803-14.66605 19.74733-29.8314 23.6833-36.64273.19147-.33058.48347-.5186.92908-.52824.39876.00482.81818.23416.9938.59229 2.89395 5.90016 8.55995 15.37817 15.11922 26.35274 9.25899 15.49112 19.75352 33.04974 27.21086 48.30738.15977.32783.1405.71557-.05373 1.0248-.19282.30923-.53168.49724-.8967.49724zm-68.86738-2.16598c22.39059 0 44.77499.01378 67.1649.04752-7.36229-14.81756-17.4436-31.68472-26.37477-46.62556-5.99452-10.03104-11.24593-18.81551-14.3513-24.82036-4.46835 7.44631-13.77348 21.50216-22.7935 35.12826-9.47594 14.31549-19.25008 29.0814-23.48357 36.27357 6.6109-.00205 13.22733-.00343 19.83824-.00343z"
                  fill="white"/>
        </g>
    </g>
</svg>