<svg clip-rule="evenodd" fill-rule="evenodd" stroke-linejoin="round" stroke-miterlimit="2" viewBox="0 0 510 510" xmlns="http://www.w3.org/2000/svg"><g id="Artboard191"><g><g><g><path d="m345.824 243.771c0-2.652-1.053-5.196-2.929-7.071-1.875-1.875-4.419-2.929-7.071-2.929-11.898 0-31.645 0-43.544 0-2.652 0-5.195 1.054-7.071 2.929-1.875 1.875-2.929 4.419-2.929 7.071v232.61c0 2.652 1.054 5.196 2.929 7.071 1.876 1.875 4.419 2.929 7.071 2.929h43.544c2.652 0 5.196-1.054 7.071-2.929 1.876-1.875 2.929-4.419 2.929-7.071 0-40.501 0-192.109 0-232.61z" fill="#6cf5c2"/><path d="m320.824 486.381c2.652 0 5.196-1.054 7.071-2.929 1.876-1.875 2.929-4.419 2.929-7.071v-232.61c0-2.652-1.053-5.196-2.929-7.071-1.875-1.875-4.419-2.929-7.071-2.929h15c2.652 0 5.196 1.054 7.071 2.929 1.876 1.875 2.929 4.419 2.929 7.071v232.61c0 2.652-1.053 5.196-2.929 7.071-1.875 1.875-4.419 2.929-7.071 2.929z" fill="#00e499"/></g><g><path d="m227.802 310.529c0-2.652-1.053-5.195-2.929-7.071-1.875-1.875-4.419-2.929-7.071-2.929-14.514 0-29.029 0-43.544 0-2.652 0-5.195 1.054-7.071 2.929-1.875 1.876-2.929 4.419-2.929 7.071v165.852c0 2.652 1.054 5.196 2.929 7.071 1.876 1.875 4.419 2.929 7.071 2.929h43.544c2.652 0 5.196-1.054 7.071-2.929 1.876-1.875 2.929-4.419 2.929-7.071 0-58.656 0-107.196 0-165.852z" fill="#ffe177"/><path d="m202.802 486.381c2.652 0 5.196-1.054 7.071-2.929 1.876-1.875 2.929-4.419 2.929-7.071v-165.852c0-2.652-1.053-5.195-2.929-7.071-1.875-1.875-4.419-2.929-7.071-2.929h15c2.652 0 5.196 1.054 7.071 2.929 1.876 1.876 2.929 4.419 2.929 7.071v165.852c0 2.652-1.053 5.196-2.929 7.071-1.875 1.875-4.419 2.929-7.071 2.929z" fill="#ffd064"/></g><path d="m400.302 183.771c0-2.652 1.054-5.196 2.929-7.071s4.419-2.929 7.071-2.929h43.544c2.652 0 5.196 1.054 7.071 2.929 1.876 1.875 2.929 4.419 2.929 7.071v292.61c0 2.652-1.053 5.196-2.929 7.071-1.875 1.875-4.419 2.929-7.071 2.929-11.898 0-31.645 0-43.544 0-2.652 0-5.196-1.054-7.071-2.929s-2.929-4.419-2.929-7.071c0-46.999 0-245.611 0-292.61z" fill="#8ac9fe"/><g><path d="m46.154 374.403c0-5.523 4.477-10 10-10h43.626c5.523 0 10 4.477 10 10v101.978c0 5.523-4.477 10-10 10-11.917 0-31.709 0-43.626 0-5.523 0-10-4.477-10-10 0-22.924 0-79.054 0-101.978z" fill="#fe646f"/><path d="m84.78 364.403h15c5.523 0 10 4.477 10 10v101.978c0 5.523-4.477 10-10 10h-15c5.523 0 10-4.477 10-10v-101.978c0-5.523-4.477-10-10-10z" fill="#fd4755"/></g><path d="m15 494.381c-4.415 0-8-3.585-8-8s3.585-8 8-8h480c4.415 0 8 3.585 8 8s-3.585 8-8 8z" fill="#a79ba7"/></g><g><path d="m438.846 173.771h15c2.652 0 5.196 1.054 7.071 2.929 1.876 1.875 2.929 4.419 2.929 7.071v292.61c0 2.652-1.053 5.196-2.929 7.071-1.875 1.875-4.419 2.929-7.071 2.929h-15c2.652 0 5.196-1.054 7.071-2.929 1.876-1.875 2.929-4.419 2.929-7.071v-292.61c0-2.652-1.053-5.196-2.929-7.071-1.875-1.875-4.419-2.929-7.071-2.929z" fill="#60b7ff"/></g><g><path d="m404.837 179.522-52.294 43.367 28.049 65.127c.896 2.08 3.771 2.3 4.971.355l18.108-29.165 33.628 6.881c2.249.457 4.058-1.775 3.162-3.871z" fill="#fe646f"/><path d="m404.837 179.522-6.915 5.732 33.155 76.962c.389.913.271 1.843-.169 2.57l6.391 1.301c2.249.457 4.058-1.775 3.162-3.871zm-25.952 104.521 1.707 3.973c.896 2.08 3.771 2.3 4.971.355l18.108-29.165-8.319-1.707z" fill="#fd4755"/><path d="m327.689 219.525-37.601 80.766c-.964 2.063-3.838 2.198-4.988.22l-17.245-29.673-33.832 5.901c-2.249.389-3.99-1.894-3.026-3.956l37.179-79.887z" fill="#fe646f"/><path d="m327.689 219.525-37.601 80.766c-.964 2.063-3.838 2.198-4.988.22l-17.245-29.673-33.832 5.901c-2.249.389-3.99-1.894-3.026-3.956l2.282-4.92 29.825-5.208 17.245 29.689c1.15 1.962 4.024 1.843 4.988-.219l35.268-75.762z" fill="#fd4755"/><path d="m349.99 20.476c22.487 16.822 17.398 14.963 45.43 16.535 10.77.592 19.528 7.929 21.979 18.429 2.334 9.924 3.466 22.436 11.041 29.537l13.137 12.342c7.862 7.372 9.84 18.615 4.97 28.252-12.663 25.057-11.716 19.714-8.386 47.594 1.285 10.719-4.429 20.61-14.354 24.854-25.817 11.057-21.658 7.574-37.027 31.075-5.9 9.029-16.636 12.934-26.95 9.807-26.899-8.116-21.472-8.116-48.355 0-10.313 3.127-21.049-.778-26.95-9.807-15.369-23.501-11.226-20.018-37.044-31.075-9.907-4.244-15.622-14.135-14.337-24.854 3.331-27.88 4.277-22.537-8.386-47.594-4.869-9.637-2.891-20.88 4.971-28.252 20.474-19.223 17.769-14.523 24.177-41.879 2.452-10.5 11.21-17.837 21.979-18.429 28.033-1.572 22.944.287 45.413-16.535 8.64-6.476 20.069-6.476 28.692 0z" fill="#ffe177"/><path d="m349.99 20.476c22.487 16.822 17.398 14.963 45.43 16.535 10.77.592 19.528 7.929 21.979 18.429 2.334 9.924 3.466 22.436 11.041 29.537l13.137 12.342c7.862 7.372 9.84 18.615 4.97 28.252-12.663 25.057-11.716 19.714-8.386 47.594 1.285 10.719-4.429 20.61-14.354 24.854-25.817 11.057-21.658 7.574-37.027 31.075-5.731 8.758-16.011 12.698-26.037 10.06 5.495-1.471 10.398-4.937 13.746-10.06 15.368-23.501 11.209-20.018 37.027-31.075 9.924-4.244 15.622-14.135 14.354-24.854-3.348-27.88-4.278-22.537 8.386-47.594 4.869-9.637 2.891-20.88-4.988-28.252l-13.137-12.342c-7.557-7.101-8.707-19.613-11.023-29.537-2.469-10.5-11.21-17.837-21.98-18.429-28.049-1.572-22.943.287-45.43-16.535-2.536-1.911-5.308-3.247-8.2-4.024 6.916-1.894 14.405-.541 20.492 4.024zm-20.492 213.116c-4.108.946-9.4 2.705-18.023 5.309-4.463 1.352-9.011 1.386-13.204.253.304-.067.608-.152.913-.253 18.26-5.512 21.624-7.287 30.314-5.309z" fill="#ffd064"/><path d="m335.653 194.79c36.908 0 67.003-30.095 67.003-67.004 0-36.892-30.095-66.987-67.003-66.987-36.909 0-67.004 30.095-67.004 66.987 0 36.909 30.095 67.004 67.004 67.004z" fill="#eceff1"/><path d="m335.653 60.799c1.809 0 3.584.068 5.359.203-34.507 2.739-61.661 31.6-61.661 66.801 0 35.184 27.154 64.045 61.661 66.784-1.775.135-3.55.203-5.359.203-37.01 0-67.004-29.994-67.004-66.987 0-37.01 29.994-67.004 67.004-67.004z" fill="#d1d1d6"/></g><g><path d="m154.946 39.686 11.891 31.283c.334.951 1.182 1.541 2.183 1.593l33.441 1.644c2.26.102 3.21 2.979 1.438 4.391l-26.095 20.984c-.796.617-1.104 1.593-.847 2.569l8.784 32.31c.59 2.183-1.85 3.955-3.75 2.722l-27.996-18.338c-.847-.565-1.875-.565-2.722 0l-28.021 18.338c-1.901 1.233-4.341-.539-3.724-2.722l8.784-32.31c.256-.976-.077-1.952-.848-2.569l-26.095-20.984c-1.772-1.412-.847-4.289 1.439-4.391l33.44-1.644c1.002-.052 1.823-.642 2.183-1.593l11.892-31.283c.796-2.131 3.827-2.131 4.623 0z" fill="#ffe177"/><path d="m191.879 73.692 10.582.514c2.26.102 3.21 2.979 1.438 4.391l-26.095 20.984c-.796.617-1.104 1.593-.847 2.569l8.784 32.31c.59 2.183-1.85 3.955-3.75 2.722l-7.243-4.751-8.373-30.795c-.257-.976.051-1.952.848-2.569l26.094-20.983c1.773-1.413.848-4.289-1.438-4.392zm-36.933-34.006 11.891 31.283c.334.951 1.156 1.541 2.158 1.593l-10.556-.514c-1.002-.051-1.85-.642-2.183-1.592l-8.81-23.193 2.877-7.577c.796-2.131 3.827-2.131 4.623 0zm-.951 79.158c-.847-.565-1.875-.565-2.722 0l-28.021 18.338c-1.901 1.233-4.341-.539-3.724-2.722l.745-2.774 25.324-16.566c.822-.54 1.849-.54 2.697 0z" fill="#ffd064"/></g><g><path d="m82.334 144.602 11.891 31.283c.334.95 1.182 1.541 2.183 1.593l33.441 1.643c2.26.103 3.21 2.98 1.438 4.392l-26.095 20.984c-.796.616-1.104 1.592-.847 2.568l8.784 32.311c.59 2.183-1.85 3.955-3.75 2.722l-27.996-18.338c-.847-.565-1.874-.565-2.722 0l-28.021 18.338c-1.901 1.233-4.341-.539-3.724-2.722l8.784-32.311c.256-.976-.077-1.952-.848-2.568l-26.095-20.984c-1.772-1.412-.847-4.289 1.439-4.392l33.44-1.643c1.002-.052 1.823-.643 2.183-1.593l11.892-31.283c.796-2.131 3.827-2.131 4.623 0z" fill="#ffe177"/><path d="m119.267 178.608 10.582.513c2.26.103 3.21 2.98 1.438 4.392l-26.095 20.984c-.796.616-1.104 1.592-.847 2.568l8.784 32.311c.59 2.183-1.85 3.955-3.75 2.722l-7.243-4.751-8.373-30.795c-.257-.976.051-1.952.848-2.569l26.094-20.983c1.773-1.413.848-4.29-1.438-4.392zm-36.933-34.006 11.891 31.283c.334.95 1.156 1.541 2.158 1.593l-10.556-.514c-1.002-.051-1.849-.642-2.183-1.593l-8.81-23.192 2.877-7.577c.796-2.131 3.827-2.131 4.623 0zm-.951 79.158c-.847-.565-1.874-.565-2.722 0l-28.021 18.338c-1.901 1.233-4.341-.539-3.724-2.722l.745-2.774 25.324-16.566c.822-.54 1.849-.54 2.697 0z" fill="#ffd064"/></g></g></g></svg>