<svg width="345" height="441" viewBox="0 0 345 441" fill="none" xmlns="http://www.w3.org/2000/svg">
<path d="M337.461 186.281C331.122 172.686 322.921 160.202 311.128 149.833C310.251 149.059 310.757 147.59 311.924 147.563C316.106 147.478 322.318 149.729 327.106 151.527C328.204 151.937 329.252 150.788 328.726 149.736C322.515 137.275 314.081 125.668 302.25 115.381C301.233 114.495 302.083 112.832 303.398 113.149C309.319 114.561 314.73 115.292 319.318 114.951C320.265 114.882 320.818 113.841 320.35 113.014C313.269 100.417 303.757 89.7425 290.001 82.4212C288.776 81.7676 289.274 79.9111 290.662 79.9807C295.006 80.2012 298.906 79.8067 302.555 79.0719C303.44 78.894 303.865 77.8806 303.394 77.111C293.661 61.312 277.238 49.396 254.72 41.0227C253.645 40.6243 253.58 39.1353 254.615 38.6403C259.002 36.5402 262.798 33.9025 266.018 30.7504C266.536 30.2437 266.559 29.4006 266.037 28.8978C260.954 23.9744 247.631 21.5804 237.872 22.4197C236.67 22.5202 236.001 21.0505 236.863 20.2113C239.785 17.3531 242.069 14.143 243.828 10.6352C244.218 9.85777 243.735 8.91795 242.877 8.78259C218.109 4.75644 194.968 4.37356 177.049 15.6901C176.319 16.1503 175.345 15.7868 175.117 14.9552C173.954 10.728 175.082 6.42724 178.07 2.05688C178.677 1.16734 177.973 -0.0200073 176.903 0.0418738C163.004 0.885005 150.813 6.46204 140.984 18.5675C140.848 18.73 139.778 2.06075 136.318 2.8652C131.742 3.93265 129.609 8.83674 128.623 13.4972C125.682 9.75335 121.596 6.29961 117.02 7.37092C113.56 8.17925 119.969 23.607 119.779 23.518C105.614 17.0128 92.217 17.4189 79.3809 22.818C78.3914 23.2318 78.287 24.6164 79.2224 25.1424C83.8297 27.7376 86.744 31.0985 87.5673 35.4031C87.7296 36.2462 87.0145 37.0081 86.1603 36.9192C65.0914 34.7108 44.5056 45.3041 24.0743 59.8887C23.367 60.3954 23.3438 61.4512 24.0396 61.9733C27.1665 64.3364 30.6335 66.2083 34.518 67.473C35.6659 67.8482 35.7123 69.4609 34.5876 69.9018C25.4658 73.4716 14.5777 81.52 12.1967 88.1877C11.9532 88.8723 12.3475 89.6149 13.0355 89.8392C17.318 91.2354 21.8828 91.9238 26.749 91.8658C27.897 91.8503 28.4961 93.2156 27.7114 94.051C11.2072 111.525 1.7492 129.486 0.00601084 147.965C-0.0790226 148.866 0.751986 149.582 1.62165 149.35C5.22397 148.39 8.892 147.017 12.6915 144.89C13.9012 144.213 15.169 145.66 14.3612 146.789C5.25876 159.448 1.45158 173.24 0.666953 187.673C0.61284 188.629 1.56753 189.313 2.44879 188.957C6.71592 187.232 11.242 184.177 15.9266 180.29C16.9663 179.432 18.4621 180.538 17.9403 181.787C11.8875 196.259 9.45245 210.399 9.38675 224.326C9.38288 225.502 10.8284 226.071 11.6285 225.212C15.1304 221.476 19.7028 216.707 23.4907 214.932C24.5498 214.433 25.6552 215.531 25.2068 216.614C19.2158 231.133 17.3799 245.969 17.7046 260.964C17.7278 262.043 18.9878 262.638 19.8227 261.95C21.7205 260.388 23.3477 258.612 24.7817 256.69C25.5508 255.654 27.1974 256.253 27.1124 257.541C26.1847 272.195 24.9169 281.129 27.9434 291.386C28.183 292.206 29.1416 292.566 29.8643 292.125C32.1641 290.717 36.8294 287.588 40.8491 283.171C41.7613 282.17 43.3924 283.09 43.0445 284.401C39.1098 299.106 40.5863 311.946 43.0909 326.419C43.2648 327.44 44.5172 327.853 45.2631 327.134C47.5745 324.926 48.8423 323.41 50.5777 321.031C51.316 320.022 52.9084 320.536 52.92 321.785C53.0089 337.476 56.5764 352.966 62.2389 368.335C62.5868 369.275 63.8275 369.476 64.4613 368.699C66.8384 365.779 69.2928 361.815 71.8051 357.119C72.4313 355.951 74.2015 356.369 74.2402 357.696C74.7581 377.548 79.4427 387.704 85.4376 394.824C85.9748 395.463 86.9836 395.428 87.4706 394.747C90.8063 390.083 92.6345 384.343 92.8934 377.49C92.9476 376.129 94.7835 375.757 95.3555 376.987C103.055 393.556 114.963 402.482 130.432 404.954C130.598 404.981 130.776 404.973 130.942 404.934L299.556 365.551C299.722 365.512 299.88 365.439 300.019 365.342C312.794 356.272 319.535 342.995 319.109 324.725C319.075 323.363 320.891 322.888 321.541 324.083C324.799 330.112 328.977 334.448 334.033 337.155C334.771 337.549 335.691 337.136 335.888 336.323C338.118 327.285 337.832 316.1 329.518 298.065C328.966 296.863 330.369 295.698 331.447 296.468C335.78 299.566 339.734 302.034 343.155 303.6C344.067 304.014 345.091 303.291 344.987 302.293C343.274 286.002 339.622 270.532 332.765 256.419C332.22 255.294 333.422 254.126 334.531 254.706C337.14 256.071 338.945 256.868 341.999 257.827C342.988 258.137 343.924 257.216 343.63 256.218C339.475 242.133 335.123 229.957 325.093 218.521C324.196 217.504 325.255 215.949 326.519 216.448C332.081 218.629 337.651 219.368 340.329 219.612C341.176 219.689 341.871 218.939 341.728 218.099C339.904 207.56 334.821 200.111 327.512 187.383C326.871 186.262 328.077 185.001 329.225 185.585C331.358 186.675 333.604 187.542 336 188.106C337.051 188.354 337.917 187.263 337.461 186.285H337.453L337.461 186.281Z" fill="#BC7655"/>
<path d="M307.29 191.262C302.133 180.193 295.451 170.029 285.853 161.59C285.138 160.964 285.552 159.761 286.503 159.746C289.908 159.676 294.964 161.505 298.863 162.975C299.76 163.311 300.611 162.375 300.182 161.521C295.122 151.372 288.254 141.928 278.629 133.55C277.798 132.827 278.494 131.477 279.561 131.733C284.385 132.877 288.783 133.477 292.521 133.195C293.294 133.137 293.742 132.293 293.359 131.617C287.593 121.364 279.851 112.669 268.65 106.709C267.652 106.18 268.058 104.664 269.187 104.722C272.723 104.899 275.897 104.578 278.873 103.983C279.592 103.84 279.94 103.012 279.553 102.386C271.63 89.522 258.26 79.8221 239.928 73.0036C239.054 72.6787 239 71.4682 239.843 71.0621C243.418 69.3487 246.502 67.2022 249.123 64.638C249.548 64.2281 249.567 63.5435 249.138 63.1297C244.999 59.119 234.153 57.1736 226.206 57.8582C225.228 57.9433 224.68 56.7443 225.383 56.0559C227.764 53.7276 229.619 51.1131 231.053 48.2589C231.37 47.6284 230.976 46.8627 230.276 46.7466C210.116 43.4669 191.273 43.1575 176.686 52.3701C176.095 52.7452 175.298 52.4474 175.113 51.7706C174.166 48.3323 175.086 44.8283 177.513 41.2702C178.004 40.5469 177.432 39.58 176.562 39.6303C165.245 40.3149 155.327 44.8554 147.322 54.7138C147.218 54.8492 146.341 41.274 143.523 41.9315C139.801 42.7978 138.061 46.793 137.257 50.5871C134.861 47.5395 131.537 44.7278 127.815 45.598C124.997 46.2593 130.215 58.8135 130.061 58.7438C118.523 53.4491 107.619 53.7779 97.168 58.1714C96.3602 58.5079 96.2752 59.6334 97.0366 60.0627C100.786 62.1783 103.163 64.9126 103.832 68.4166C103.963 69.1051 103.379 69.72 102.684 69.6465C85.5301 67.8442 68.7707 76.4728 52.139 88.3462C51.5592 88.7562 51.5437 89.6187 52.1119 90.0441C54.6552 91.9663 57.4806 93.4901 60.6423 94.5228C61.5738 94.8283 61.6163 96.1433 60.7003 96.4991C53.2753 99.4036 44.4087 105.959 42.4683 111.385C42.2674 111.942 42.592 112.546 43.1525 112.731C46.6388 113.868 50.3533 114.433 54.315 114.379C55.2465 114.367 55.7374 115.477 55.0958 116.154C41.6721 130.387 33.9689 145.01 32.5504 160.055C32.4808 160.786 33.1572 161.37 33.8645 161.184C36.7943 160.403 39.7821 159.285 42.878 157.556C43.8637 157.007 44.8957 158.183 44.2386 159.1C36.8252 169.407 33.7292 180.627 33.0876 192.38C33.0451 193.154 33.822 193.714 34.537 193.424C38.008 192.017 41.6914 189.534 45.5102 186.37C46.3567 185.67 47.5781 186.575 47.149 187.588C42.221 199.369 40.2381 210.883 40.1879 222.222C40.184 223.181 41.359 223.642 42.0123 222.942C44.8609 219.898 48.5869 216.019 51.6674 214.572C52.5293 214.17 53.4299 215.06 53.0666 215.941C48.1888 227.765 46.693 239.839 46.9597 252.045C46.979 252.927 48.0071 253.407 48.6796 252.85C50.2218 251.573 51.5476 250.131 52.7187 248.568C53.3449 247.725 54.6861 248.212 54.6165 249.26C53.8628 261.192 52.8308 268.463 55.2929 276.813C55.4901 277.478 56.267 277.776 56.8583 277.413C58.7291 276.268 62.5285 273.719 65.8023 270.122C66.5483 269.306 67.874 270.056 67.588 271.124C64.3838 283.09 65.5858 293.548 67.6228 305.329C67.7658 306.16 68.7823 306.497 69.393 305.917C71.2792 304.114 72.3074 302.884 73.722 300.947C74.3211 300.123 75.6237 300.544 75.6275 301.562C75.701 314.336 78.6037 326.945 83.2148 339.46C83.497 340.226 84.5096 340.388 85.0237 339.754C86.9563 337.379 88.9546 334.15 91.0031 330.329C91.5133 329.377 92.9589 329.718 92.9859 330.797C93.4034 346.959 97.2222 355.228 102.104 361.022C102.544 361.544 103.36 361.513 103.758 360.96C106.471 357.162 107.963 352.494 108.172 346.909C108.211 345.799 109.71 345.501 110.178 346.503C116.444 359.997 126.145 367.256 138.734 369.271C138.873 369.291 139.012 369.287 139.144 369.256L276.415 337.194C276.55 337.163 276.681 337.105 276.793 337.023C287.195 329.64 292.683 318.827 292.335 303.952C292.308 302.842 293.789 302.455 294.314 303.43C296.97 308.338 300.371 311.869 304.483 314.073C305.083 314.394 305.832 314.058 305.995 313.396C307.811 306.036 307.579 296.928 300.808 282.251C300.355 281.269 301.5 280.325 302.373 280.951C305.898 283.473 309.118 285.484 311.901 286.753C312.643 287.089 313.478 286.497 313.393 285.689C311.997 272.423 309.025 259.831 303.444 248.344C302.999 247.427 303.977 246.476 304.882 246.952C307.007 248.065 308.472 248.711 310.958 249.489C311.765 249.74 312.527 248.99 312.283 248.181C308.901 236.71 305.357 226.805 297.194 217.492C296.463 216.661 297.329 215.404 298.353 215.802C302.879 217.581 307.417 218.177 309.597 218.378C310.289 218.44 310.853 217.833 310.737 217.148C309.253 208.57 305.113 202.505 299.165 192.14C298.639 191.228 299.625 190.195 300.56 190.678C302.3 191.564 304.128 192.272 306.072 192.732C306.926 192.937 307.634 192.047 307.262 191.251L307.282 191.258L307.29 191.262Z" fill="#A16143"/>
<path d="M337.461 186.281C331.122 172.686 322.921 160.202 311.128 149.833C310.251 149.059 310.757 147.586 311.924 147.563C316.106 147.478 322.318 149.729 327.106 151.527C328.204 151.937 329.252 150.788 328.726 149.736C322.515 137.275 314.081 125.668 302.25 115.377C301.233 114.491 302.083 112.828 303.398 113.145C309.319 114.553 314.73 115.288 319.318 114.947C320.265 114.878 320.818 113.837 320.35 113.01C313.269 100.413 303.757 89.7386 290.001 82.4173C288.776 81.7636 289.274 79.9072 290.662 79.9768C295.006 80.1973 298.906 79.8028 302.555 79.068C303.44 78.89 303.865 77.8767 303.394 77.1071C293.661 61.3081 277.238 49.3921 254.72 41.0188C253.645 40.6204 253.58 39.1314 254.615 38.6363C259.002 36.5363 262.798 33.8986 266.018 30.7465C266.536 30.2398 266.559 29.3967 266.037 28.8939C260.954 23.9705 247.631 21.5765 237.872 22.4157C236.67 22.5163 236.001 21.0466 236.863 20.2074C239.785 17.3492 242.069 14.1391 243.828 10.6312C244.218 9.85387 243.735 8.91405 242.877 8.77868C218.109 4.75254 194.968 4.36965 177.049 15.6862C176.319 16.1464 175.345 15.7829 175.117 14.9513C173.954 10.7241 175.082 6.42333 178.07 2.05297C178.677 1.16343 177.973 -0.0239136 176.903 0.0379676C163.004 0.881099 150.813 6.45814 140.984 18.5636C140.848 18.7261 139.778 2.05684 136.318 2.8613C131.742 3.92875 129.609 8.83283 128.623 13.4933C125.682 9.74944 121.596 6.2957 117.02 7.36702C113.56 8.17534 119.969 23.6031 119.779 23.5141C105.614 17.0089 92.217 17.415 79.3809 22.8141C78.3914 23.2279 78.287 24.6125 79.2224 25.1385C83.8297 27.7337 86.744 31.0946 87.5673 35.3992C87.7296 36.2423 87.0145 37.0042 86.1603 36.9153C65.0914 34.7069 44.5056 45.3002 24.0743 59.8848C23.367 60.3914 23.3438 61.4473 24.0434 61.9694C27.1703 64.3325 30.6374 66.2044 34.5219 67.4691C35.6698 67.8443 35.7162 69.457 34.5914 69.8979C25.4697 73.4677 14.5815 81.5161 12.2006 88.1838C11.9571 88.8684 12.3513 89.611 13.0393 89.8353C17.3219 91.2315 21.8867 91.9199 26.7529 91.8619C27.9008 91.8464 28.4999 93.2117 27.7153 94.0471C11.2072 111.521 1.7492 129.486 0.00601084 147.965C-0.0790226 148.866 0.751986 149.582 1.62165 149.349C5.22397 148.386 8.89201 147.013 12.6915 144.89C13.9012 144.213 15.169 145.66 14.3612 146.789C5.25876 159.448 1.45158 173.239 0.666953 187.673C0.61284 188.625 1.56753 189.313 2.44879 188.957C6.71592 187.232 11.242 184.177 15.9266 180.29C16.9663 179.431 18.4621 180.538 17.9403 181.787C11.8875 196.259 9.45245 210.399 9.38675 224.326C9.38288 225.506 10.8246 226.071 11.6285 225.212C15.1304 221.476 19.7028 216.707 23.4907 214.932C24.5498 214.433 25.6552 215.531 25.2068 216.614C19.2158 231.133 17.3799 245.969 17.7046 260.964C17.7278 262.043 18.9878 262.638 19.8227 261.95C21.7205 260.384 23.3477 258.612 24.7817 256.69C25.5508 255.654 27.1974 256.253 27.1124 257.541C26.1847 272.195 24.9169 281.125 27.9434 291.386C28.183 292.206 29.1416 292.566 29.8643 292.125C32.1641 290.721 36.8294 287.588 40.8491 283.171C41.0965 282.897 85.7429 256.214 85.7429 256.214L274.784 214.116C274.784 214.116 326.187 216.328 326.504 216.452C332.065 218.633 337.631 219.372 340.314 219.616C341.164 219.693 341.856 218.943 341.713 218.103C339.889 207.564 334.806 200.115 327.497 187.383C326.855 186.262 328.061 185.001 329.209 185.589C331.343 186.679 333.588 187.546 335.981 188.11C337.032 188.358 337.898 187.267 337.442 186.289H337.446L337.461 186.281Z" fill="#BC7655"/>
<path d="M241.528 14.6922C243.472 12.0236 244.836 9.32404 242.873 8.76711C219.23 5.20894 197.906 3.68898 178.325 14.9281C176.06 16.8078 174.007 19.0355 173.335 21.8859C174.954 22.6208 176.93 22.7252 179.245 21.882C184.602 18.7687 189.901 16.1155 196.526 14.6845C205.358 12.6231 215.697 12.2131 228.444 13.4662C230.856 13.7021 233.272 13.8336 235.692 13.8646C237.659 13.8878 239.638 14.1817 241.528 14.6884V14.6922Z" fill="#EB936A"/>
<path d="M286.928 88.1992C293.835 91.8734 299.872 96.6537 305.144 102.66C308.681 106.69 312.991 109.978 317.892 112.151C318.796 112.549 319.658 112.905 320.42 113.168L320.431 113.153C313.613 100.985 304.29 89.5451 289.997 82.4094C287.098 81.6398 282.792 81.2878 282.792 81.2878C282.707 83.9023 283.929 86.5516 286.928 88.1953H286.932L286.928 88.1992Z" fill="#EB936A"/>
<path d="M304.298 147.184C304.228 147.547 326.925 175.119 337.461 186.281C331.462 171.526 321.023 158.616 310.838 149.462C308.349 148.259 306.888 148.131 304.302 147.18H304.298V147.184Z" fill="#EB936A"/>
<path d="M327.961 149.62C328.262 149.81 328.56 149.999 328.861 150.177C328.502 143.034 307.815 119.333 302.261 115.381C301.739 114.928 301.712 114.271 301.979 113.783C300.274 112.793 289.804 107.05 289.804 107.05C291.16 111.25 296.116 118.718 297.959 120.327C302.91 124.632 307.344 129.277 311.309 134.316C316.006 140.284 321.552 145.548 327.957 149.62H327.961Z" fill="#EB936A"/>
<path d="M289.506 69.9173C291.435 71.9207 293.754 73.5142 296.347 74.5236C296.359 74.5275 296.371 74.5313 296.39 74.5391C298.636 75.4093 300.974 76.0049 303.231 76.8442C293.885 61.8264 278.467 50.3397 257.491 42.0785C256.988 42.0321 255.222 41.0807 254.723 41.015C252.331 40.7133 247.967 41.6724 247.588 41.7885C248.222 44.2328 250.012 46.2555 252.443 47.1605C267.428 52.8845 279.464 59.4865 289.506 69.9212V69.9173Z" fill="#EB936A"/>
<path d="M260.629 32.3012C261.588 32.5758 262.543 32.8659 263.494 33.1637C265.534 31.5548 266.872 29.9536 266.037 28.8862C257.916 21.1549 241.11 22.4041 237.446 21.9709C236.171 22.1179 234.899 22.2842 233.631 22.4815C232.507 22.6555 231.417 22.9843 230.385 23.4561L230.369 23.4638C231.297 26.6623 234.145 29.1878 238.436 28.9403C244.369 28.4259 258.797 31.7791 260.626 32.3012H260.629Z" fill="#EB936A"/>
<path d="M167.796 1.33752C157.638 3.70834 148.598 9.16935 140.976 18.5598C140.833 18.6024 139.758 2.05302 136.31 2.85748C131.815 3.90559 129.624 8.90636 128.615 13.4894C125.666 9.54838 121.507 6.31509 117.012 7.3632C113.564 8.17152 119.918 23.4794 119.771 23.5103C108.783 18.4709 98.2657 17.5775 88.1042 19.9483C86.4035 20.7179 76.0333 22.1373 79.2105 25.1308C79.4231 25.2546 79.6279 25.3745 79.8366 25.4982C81.6069 25.2159 83.3694 24.864 85.1396 24.7441C105.397 23.3904 123.192 33.2759 125.074 33.2605L125.565 20.2035L132.016 28.0779L134.32 18.1576L140.531 29.6482C142.224 28.8321 153.812 12.0816 172.577 4.32329C174.212 3.64646 175.951 3.18235 177.664 2.64863C177.795 2.44365 177.923 2.2464 178.062 2.04142C179.585 -2.05434 169.659 1.2679 167.796 1.33365H167.792L167.796 1.33752Z" fill="#EB936A"/>
<path d="M27.8968 64.5877C24.9747 63.06 22.5552 61.2384 24.0703 59.8731C43.6976 46.209 62.1498 35.3991 84.6798 36.803C87.5439 37.4837 90.3655 38.5744 92.2323 40.8331C91.0998 42.2099 89.3798 43.1807 86.9332 43.4437C80.7528 43.0221 74.8275 42.995 68.2568 44.6426C59.4287 46.704 49.9746 50.9236 39.098 57.6918C37.0418 58.972 34.9353 60.1632 32.7746 61.2616C31.0199 62.1588 29.381 63.2959 27.9045 64.5877H27.8968Z" fill="#EB936A"/>
<path d="M19.6797 150.622C15.1072 156.98 11.8102 163.938 9.73461 171.661C8.34315 176.84 5.93516 181.698 2.5029 185.817C1.87288 186.575 1.25059 187.275 0.682412 187.851L0.663086 187.843C1.40133 173.912 4.70217 159.525 14.3651 146.793C16.6185 144.817 20.3329 142.597 20.3329 142.597C21.5659 144.902 21.6432 147.822 19.6758 150.626H19.6797V150.622Z" fill="#EB936A"/>
<path d="M30.1734 211.211C30.3975 211.505 22.2305 246.286 17.716 260.964C16.5719 245.076 20.2283 228.874 25.3149 216.154C27.0117 213.973 28.2717 213.215 30.1695 211.211H30.1734Z" fill="#EB936A"/>
<path d="M10.0359 223.874C9.85427 224.179 9.66488 224.477 9.47935 224.775C6.64233 218.215 14.7128 187.793 17.9518 181.783C18.2146 181.149 17.9518 180.545 17.4957 180.22C18.5857 178.581 25.4386 168.792 25.4386 168.792C26.0802 173.162 24.9361 182.054 23.993 184.312C21.4575 190.369 19.5365 196.495 18.203 202.772C16.626 210.202 13.9861 217.38 10.0359 223.87V223.874Z" fill="#EB936A"/>
<path d="M9.28598 135.368C8.43951 138.021 7.06738 140.477 5.18505 142.527C5.17732 142.539 5.16573 142.546 5.15799 142.558C3.5269 144.337 1.69868 145.903 0.0405273 147.655C1.78371 130.046 10.5306 112.917 25.6897 96.2167C26.1226 95.9575 27.2821 94.3138 27.6996 94.0353C29.7095 92.7049 34.05 91.6297 34.4404 91.564C34.9506 94.0392 34.2394 96.6421 32.4576 98.5333C21.554 110.306 13.6768 121.561 9.27825 135.364H9.28212L9.28598 135.368Z" fill="#EB936A"/>
<path d="M18.5546 88.8412C17.8125 89.5103 17.0897 90.1987 16.363 90.8871C13.8198 90.3457 11.9142 89.5025 12.1925 88.176C16.0538 77.6446 31.6768 71.3172 34.7766 69.3099C35.9864 68.8729 37.2001 68.4629 38.4254 68.08C39.5076 67.7358 40.6362 67.5502 41.7726 67.5154H41.788C42.3717 70.7951 40.9338 74.3223 36.9759 76.0008C31.4294 78.1705 19.9731 87.5687 18.5585 88.845H18.5546V88.8412Z" fill="#EB936A"/>
<path d="M307.289 191.262C302.126 180.193 295.447 170.025 285.849 161.586C285.134 160.96 285.552 159.761 286.499 159.742C289.904 159.672 294.963 161.501 298.863 162.971C299.76 163.307 300.607 162.368 300.177 161.513C295.118 151.368 288.253 141.924 278.629 133.546C277.794 132.819 278.486 131.47 279.561 131.725C284.384 132.87 288.791 133.469 292.521 133.187C293.294 133.129 293.738 132.286 293.355 131.609C287.581 121.348 279.835 112.65 268.622 106.69C267.629 106.16 268.058 104.656 269.183 104.714C272.719 104.892 275.897 104.571 278.869 103.975C279.588 103.828 279.936 103.004 279.549 102.382C271.622 89.518 258.256 79.8181 239.924 72.9996C239.054 72.6747 238.992 71.4642 239.831 71.0581C243.406 69.3447 246.494 67.1982 249.119 64.6302C249.552 64.2086 249.54 63.5086 249.107 63.0909C244.948 59.0995 234.13 57.1658 226.206 57.8465C225.22 57.9315 224.687 56.7287 225.398 56.0364C227.771 53.712 229.627 51.1053 231.057 48.2587C231.374 47.6245 230.983 46.8587 230.284 46.7427C210.123 43.4668 191.284 43.1535 176.693 52.3661C176.094 52.7451 175.302 52.428 175.113 51.7434C174.177 48.3129 175.097 44.8166 177.524 41.2662C178.011 40.5507 177.455 39.576 176.593 39.6224C165.272 40.3031 155.338 44.8437 147.334 54.706C147.229 54.8413 146.352 41.2662 143.538 41.9237C139.812 42.79 138.077 46.7852 137.273 50.5793C134.876 47.5316 131.552 44.7199 127.83 45.5901C125.012 46.2515 130.23 58.8056 130.076 58.736C118.534 53.4374 107.627 53.77 97.1679 58.1752C96.3716 58.5117 96.3021 59.6333 97.0558 60.0626C100.797 62.1704 103.17 64.9009 103.847 68.3895C103.982 69.0856 103.406 69.7238 102.703 69.6503C85.5492 67.8519 68.7938 76.4766 52.162 88.35C51.5822 88.76 51.5706 89.6263 52.1388 90.0517C54.6782 91.97 57.4959 93.49 60.6499 94.5226C61.5891 94.8282 61.6471 96.1432 60.7233 96.5067C53.3138 99.4035 44.4742 105.932 42.5068 111.354C42.302 111.919 42.6034 112.553 43.1755 112.739C46.6657 113.88 50.3801 114.441 54.3458 114.387C55.2773 114.375 55.7566 115.489 55.1188 116.166C41.6951 130.398 33.9957 145.022 32.5772 160.066C32.5077 160.797 33.1802 161.385 33.8914 161.196C36.8212 160.414 39.8089 159.297 42.9049 157.568C43.8905 157.019 44.9419 158.175 44.2809 159.092C36.8598 169.403 33.76 180.638 33.1184 192.395C33.0758 193.169 33.8489 193.73 34.5639 193.444C38.0348 192.04 41.7222 189.553 45.541 186.389C46.3913 185.685 47.6088 186.59 47.1798 187.607C42.2517 199.384 40.2728 210.898 40.2186 222.234C40.2148 223.193 41.3859 223.661 42.043 222.961C44.8916 219.917 48.6215 216.034 51.702 214.591C52.564 214.189 53.4645 215.075 53.1012 215.957C48.2234 227.78 46.7276 239.858 46.9904 252.064C47.0097 252.946 48.0379 253.426 48.7181 252.861C50.2603 251.585 51.5861 250.146 52.7534 248.584C53.3795 247.74 54.7207 248.228 54.6511 249.276L53.8047 271.511C54.0984 274.446 54.5236 279.203 56.8775 277.424L85.7772 256.203L274.818 214.104L304.549 216.873C307.587 217.419 311.669 217.805 310.32 215.028L299.203 192.152C298.678 191.239 299.663 190.206 300.599 190.69C302.334 191.579 304.162 192.283 306.107 192.74C306.965 192.945 307.676 192.059 307.305 191.258H307.297L307.289 191.262Z" fill="#A16143"/>
<path d="M291.906 309.873C288.146 303.07 283.422 296.279 277.992 289.499C274.254 284.835 271.332 279.563 269.4 273.909C261.495 250.808 251.121 228.948 239.255 207.839L177.386 234.885L109.946 238.045C108.636 262.229 108.999 286.428 112.119 310.647C112.884 316.576 112.59 322.597 111.303 328.434C109.432 336.919 108.195 345.099 107.836 352.869C106.363 384.366 129.512 411.381 160.808 414.932C180.172 417.129 199.204 414.348 218.093 409.564C237.149 405.48 255.442 399.547 271.835 388.996C298.33 371.948 307.147 337.461 291.903 309.873H291.906Z" fill="#FFD183"/>
<path d="M185.066 261.819C154.206 269.028 139.356 318.502 149.854 363.536C156.599 392.469 171.298 408.829 189.132 414.913C198.841 413.907 208.489 411.993 218.097 409.56C228.955 407.232 239.564 404.304 249.718 400.266C262.581 386.877 268.244 365.914 261.607 337.437C251.114 292.403 215.925 254.617 185.07 261.819H185.066Z" fill="#FFEACD"/>
<path d="M265.515 361.857C249.119 372.408 230.829 378.341 211.774 382.425C192.881 387.205 173.857 389.99 154.488 387.793C133.732 385.442 116.563 372.76 107.778 355.302C107.569 385.743 130.327 411.47 160.812 414.932C180.176 417.129 199.208 414.348 218.097 409.564C237.152 405.48 255.446 399.547 271.838 388.996C297.65 372.389 306.679 339.236 293.039 312.031C292.88 331.578 283.086 350.556 265.519 361.861L265.515 361.857Z" fill="#FBB96D"/>
<path d="M119.767 263.551C165.133 266.92 210.545 256.319 249.737 233.191C250.468 232.758 251.191 232.328 251.909 231.891C247.936 223.75 243.704 215.74 239.259 207.835L177.389 234.881L109.95 238.041C109.509 246.182 109.262 254.331 109.243 262.476C112.636 262.929 116.169 263.284 119.771 263.551H119.767Z" fill="#FBB96D"/>
<path d="M220.61 409.011C221.054 408.914 221.502 408.81 221.943 408.709C222.171 408.655 222.395 408.605 222.619 408.55C223.041 408.454 223.458 408.357 223.876 408.256C224.104 408.202 224.328 408.148 224.556 408.094C224.985 407.993 225.406 407.885 225.835 407.785C226.048 407.73 226.257 407.68 226.469 407.63C226.925 407.514 227.381 407.402 227.837 407.282C228.011 407.235 228.193 407.193 228.367 407.146C228.904 407.007 229.441 406.864 229.975 406.725C230.068 406.698 230.164 406.675 230.253 406.651C232.213 406.125 234.157 405.576 236.09 404.992C236.159 404.973 236.229 404.954 236.298 404.93C236.87 404.76 237.435 404.582 238.003 404.408C238.096 404.381 238.192 404.35 238.285 404.319C238.838 404.145 239.387 403.971 239.939 403.789C240.024 403.762 240.113 403.731 240.198 403.704C240.774 403.515 241.354 403.325 241.926 403.128C241.976 403.113 242.026 403.093 242.077 403.078C244.655 402.204 247.202 401.268 249.722 400.266C258.446 391.189 263.849 378.619 264.359 362.592C248.265 372.683 230.381 378.437 211.774 382.425C194.35 386.834 176.81 389.541 158.995 388.211C166.675 402.165 177.204 410.84 189.132 414.913C195.192 414.286 201.234 413.304 207.255 412.058H207.271C208.469 411.811 209.66 411.552 210.858 411.289C210.869 411.289 210.877 411.285 210.889 411.281C212.079 411.014 213.266 410.739 214.456 410.457C214.472 410.457 214.483 410.449 214.503 410.446C215.701 410.159 216.899 409.861 218.097 409.56C218.735 409.421 219.38 409.281 220.018 409.138C220.211 409.092 220.412 409.049 220.61 409.003H220.613L220.61 409.011Z" fill="#F5DEC3"/>
<path d="M255.168 103.151C293.553 88.675 271.32 51.9137 251.361 46.7621C237.025 43.057 223.624 56.5703 222.747 68.2039C193.202 74.2644 181.622 91.1386 181.622 91.1386C181.966 87.507 183.013 83.6201 184.37 79.6249C173.683 81.8023 157.758 96.2477 151.659 106.381C141.706 99.9954 121.043 94.0973 110.499 96.882C113.479 99.8639 116.142 102.884 118.051 105.99C118.051 105.99 100.206 95.9847 71.0319 103.643C65.1066 93.6023 47.1143 87.418 35.8937 97.0908C20.2785 110.554 16.5911 153.372 57.4111 149.346C46.9519 163.164 44.0647 179.25 44.0608 196.201L54.8021 187.619C47.1181 204.934 52.166 218.788 57.9638 232.44L62.2773 222.323C61.2724 231.516 64.4688 238.872 68.9331 245.675L74.5337 235.863C79.1371 245.23 96.8511 249.307 116.784 250.788C162.153 254.157 207.561 243.556 246.757 220.428C263.977 210.268 278.061 198.769 278.05 188.327L287.411 194.643C288.408 186.567 288.022 178.554 283.055 170.753L291.4 177.915C290.569 163.103 288.969 148.441 274.424 136.324L287.856 139.263C280.357 124.063 270.652 110.917 255.168 103.159H255.172L255.168 103.151Z" fill="#FFD183"/>
<path d="M222.469 169.538C230.601 167.639 235.212 157.595 232.769 147.102C230.326 136.61 221.75 129.644 213.617 131.543C205.485 133.442 200.874 143.486 203.317 153.979C205.763 164.472 214.336 171.437 222.469 169.538Z" fill="#2B1916"/>
<path d="M116.061 194.38C124.193 192.481 128.804 182.436 126.361 171.944C123.915 161.451 115.342 154.486 107.21 156.385C99.0773 158.283 94.4662 168.328 96.909 178.82C99.3518 189.313 107.929 196.279 116.065 194.38H116.061Z" fill="#2B1916"/>
<path d="M112.022 176.995C107.778 177.985 103.368 175.68 100.535 171.484C100.256 173.503 100.345 175.68 100.859 177.888C102.649 185.573 108.93 190.675 114.886 189.282C120.842 187.894 124.22 180.534 122.431 172.849C121.917 170.644 121.031 168.653 119.891 166.966C119.203 171.979 116.273 176.005 112.026 176.995H112.022Z" fill="#54322B"/>
<path d="M218.422 152.146C214.178 153.136 209.768 150.831 206.934 146.638C206.656 148.657 206.745 150.834 207.259 153.043C209.049 160.728 215.33 165.829 221.286 164.437C227.242 163.044 230.62 155.688 228.827 148.003C228.313 145.799 227.428 143.807 226.287 142.121C225.599 147.133 222.67 151.159 218.426 152.149H218.422V152.146Z" fill="#54322B"/>
<path d="M106.638 178.155C109.594 177.467 111.268 173.812 110.379 169.998C109.49 166.185 106.375 163.652 103.418 164.344C100.461 165.032 98.7875 168.687 99.6764 172.501C100.565 176.314 103.681 178.847 106.638 178.155Z" fill="white"/>
<path d="M213.969 153.171C216.926 152.482 218.6 148.827 217.711 145.014C216.822 141.201 213.706 138.667 210.749 139.36C207.793 140.052 206.119 143.703 207.008 147.516C207.897 151.33 211.012 153.863 213.969 153.171Z" fill="white"/>
<path d="M88.2625 220.509C96.3136 220.509 102.838 213.977 102.838 205.917C102.838 197.857 96.3098 191.324 88.2625 191.324C80.2153 191.324 73.687 197.857 73.687 205.917C73.687 213.977 80.2153 220.509 88.2625 220.509Z" fill="#F0AE56"/>
<path d="M252.768 183.028C260.819 183.028 267.343 176.496 267.343 168.436C267.343 160.376 260.819 153.844 252.768 153.844C244.717 153.844 238.192 160.376 238.192 168.436C238.192 176.496 244.717 183.028 252.768 183.028Z" fill="#F0AE56"/>
<path d="M205.899 190.388C205.783 193.536 204.422 196.53 201.914 199.063C201.662 199.319 201.396 199.574 201.121 199.814C198.408 202.239 194.701 204.079 190.558 205.046C185.997 206.114 181.44 205.994 177.729 204.714C176.21 204.188 174.861 203.476 173.694 202.598C171.387 200.854 169.814 198.464 169.149 195.598C168.793 194.07 169.744 192.543 171.267 192.187C172.794 191.827 174.32 192.778 174.68 194.306C175.596 198.243 180.555 201.55 189.275 199.516C197.994 197.478 200.978 192.314 200.062 188.377C199.707 186.853 200.658 185.326 202.184 184.966C203.707 184.61 205.234 185.562 205.593 187.089C205.848 188.199 205.957 189.298 205.91 190.384L205.899 190.388Z" fill="#2B1916"/>
<path d="M173.69 202.598C173.037 203.902 172.137 205.135 171.004 206.284C168.244 209.076 164.205 211.203 159.648 212.267C155.439 213.249 151.238 213.226 147.697 212.209C147.4 212.124 147.106 212.031 146.816 211.931C143.26 210.705 140.612 208.442 139.155 205.433C138.761 204.613 138.452 203.743 138.235 202.819C137.876 201.291 138.823 199.763 140.353 199.404C141.88 199.048 143.407 199.999 143.766 201.527C144.682 205.46 149.641 208.767 158.361 206.733C167.081 204.698 170.065 199.535 169.149 195.598C168.793 194.07 169.744 192.542 171.267 192.187C172.794 191.827 174.32 192.778 174.68 194.306C175.349 197.176 174.997 200.015 173.698 202.598H173.69Z" fill="#2B1916"/>
<path d="M201.118 199.813C200.329 205.603 198.002 210.38 195.737 213.837C190.175 222.315 182.29 227.188 178.711 227.811C174.796 228.495 167.124 227.169 160.043 223.305C156.038 221.12 151.276 217.616 147.697 212.213C151.238 213.226 155.439 213.253 159.648 212.271C164.209 211.207 168.244 209.08 171.004 206.288C172.137 205.143 173.037 203.909 173.69 202.602C174.854 203.476 176.207 204.192 177.726 204.718C181.44 205.998 185.993 206.118 190.558 205.05C194.701 204.083 198.408 202.242 201.121 199.817L201.118 199.813Z" fill="#974634"/>
<path d="M177.269 215.713C173.501 216.9 169.759 218.258 166.269 220.126C164.391 221.132 162.501 222.292 160.951 223.773C167.769 227.266 174.962 228.464 178.715 227.807C182.298 227.184 190.183 222.311 195.741 213.833C196.081 213.311 196.429 212.754 196.773 212.17C190.175 212.41 183.639 213.71 177.273 215.713H177.269Z" fill="#CD5F46"/>
<path d="M199.819 216.521C193.77 225.738 184.865 231.702 179.55 232.626C178.692 232.777 177.687 232.858 176.566 232.858C171.673 232.858 164.565 231.342 157.7 227.598C151.126 224.013 142.777 217.299 139.151 205.433C138.92 204.683 138.711 203.913 138.521 203.124L143.268 201.983C144.23 205.982 145.796 209.359 147.693 212.213C151.276 217.616 156.035 221.12 160.039 223.305C167.12 227.169 174.792 228.495 178.708 227.815C182.291 227.192 190.175 222.319 195.734 213.841C198.002 210.384 200.325 205.607 201.114 199.817C201.593 196.302 201.504 192.415 200.499 188.219L205.246 187.074C205.516 188.199 205.729 189.305 205.891 190.392C207.561 201.662 203.626 210.72 199.815 216.525L199.819 216.521Z" fill="#2B1916"/>
<path d="M84.1928 161.757C87.8493 142.256 110.36 130.808 115.686 137.7C116.502 138.756 115.779 140.276 114.403 140.535C101.408 142.987 91.3395 150.061 84.189 161.757H84.1928Z" fill="#54322B"/>
<path d="M242.069 124.879C230.172 109.011 204.925 108.717 203.189 117.26C202.927 118.568 204.245 119.612 205.594 119.233C218.329 115.675 230.489 117.558 242.065 124.876L242.069 124.879Z" fill="#54322B"/>
<path d="M260.564 68.1613C262.222 74.4461 259.08 80.8315 254.094 84.6604C254.519 81.4774 253.962 78.0971 252.799 75.3047C248.864 65.6319 243.592 62.1898 251.512 52.6755C247.983 54.2032 244.724 56.8486 243.604 60.8322C242.452 64.8545 243.685 68.8652 244.976 72.5974C246.027 75.6528 247.283 78.685 247.345 81.7287C247.438 84.5559 246.332 86.9268 244.62 89.228L239.333 96.4913L247.894 94.7199C253.78 93.5016 258.817 89.3556 261.507 84.0454C264.07 79.1761 264.41 72.3305 260.568 68.169V68.1613H260.564Z" fill="#FDAB57"/>
<path d="M37.1076 120.358C38.3986 126.728 44.0456 131.063 50.2028 132.286C48.4171 129.621 47.4198 126.341 47.2266 123.321C46.4767 112.901 49.6848 107.479 38.3754 102.455C42.2173 102.258 46.3067 103.194 49.0741 106.265C51.888 109.363 52.5489 113.501 53.0436 117.423C53.4495 120.625 53.6659 123.901 54.9569 126.666C56.1242 129.242 58.165 130.882 60.7121 132.185L68.6627 136.354L60.2058 138.555C54.3887 140.071 48.0383 138.582 43.2803 135.012C38.8276 131.783 35.4997 125.792 37.1037 120.358H37.1076Z" fill="#FDAB57"/>
<path d="M188.965 173.34C192.057 195.629 154.129 204.474 147.063 183.125C142.781 164.897 184.752 155.097 188.965 173.34Z" fill="#2B1916"/>
<path d="M160.244 189.928C162.265 192.593 168.245 191.208 171.576 190.404C174.746 189.549 177.68 187.998 180.238 186.242C188.467 180.607 185.963 172.632 184.857 171.542C183.786 170.772 182.7 172.768 181.993 173.626C179.759 176.956 173.644 182.282 169.798 184.2C166.865 185.929 158.794 186.296 160.224 189.882L160.248 189.92H160.244V189.928Z" fill="#1C110F"/>
<path d="M156.058 183.477C158.35 181.903 160.936 179.234 162.319 176.732C165.647 170.331 157.237 170.238 153.615 173.402C151.659 174.906 150.252 177.231 149.993 179.687C149.557 183.67 152.278 186.176 155.98 183.531L156.058 183.481V183.477Z" fill="white"/>
<path d="M69.4702 360.059C68.0594 360.712 65.5394 360.515 65.5394 360.515C64.4532 358.194 64.2329 355.054 64.5808 352.606C65.6978 344.82 69.5553 340.972 69.5553 340.972C69.5553 340.972 66.4902 346.708 66.5366 352.795C66.552 355.104 67.4642 358.817 69.4702 360.063V360.059Z" fill="#836138"/>
<path d="M49.9629 346.994C48.1231 344.472 48.2275 341.599 48.2197 341.537C49.4604 338.973 52.5642 333.825 57.7589 332.978C57.7589 332.978 52.5835 336.842 50.7128 341.328C50.0209 342.987 49.6924 345.053 49.9629 346.99V346.994Z" fill="#836138"/>
<path d="M50.7126 341.332C52.5833 336.845 57.7588 332.982 57.7588 332.982C51.6402 334.281 48.695 340.725 48.235 341.576C47.7094 339.081 47.462 336.54 47.4659 334.084C47.4813 329.485 48.5829 324.926 50.8247 320.915C56.062 311.849 65.5625 305.522 73.088 298.278C78.5958 293.223 83.7635 287.781 87.8722 281.516C93.6854 273.034 97.3418 262.124 106.135 256.214C111.079 253.004 117.816 250.908 122.28 254.462L122.334 254.501C126.941 258.597 126.35 266.212 126.215 272.211C126.052 275.691 125.751 279.13 125.198 282.541C123.656 292.844 118.952 302.382 112.725 310.647C107.353 318.088 100.399 324.581 95.5523 332.247C89.8318 341.262 87.3891 353.503 77.0227 358.539C76.4661 358.829 75.7588 359.158 75.1211 359.444C73.6059 360.128 71.9516 360.469 70.2935 360.36C69.7098 360.322 69.219 360.237 68.9948 360.09C67.0429 358.802 66.5636 355.093 66.5481 352.788C66.5018 346.696 69.5668 340.964 69.5668 340.964C69.5668 340.964 65.7094 344.809 64.5924 352.598C64.229 355.112 64.3798 358.16 65.5471 360.507C58.3347 362.012 49.7308 354.134 50.0285 347.369C49.6497 345.323 49.9821 343.092 50.7203 341.324V341.316L50.7126 341.332Z" fill="#FDAB57"/>
<path d="M119.354 427.598C119.698 434.587 122.833 435.519 125.577 435.685C127.599 435.801 129.744 436.764 131.989 437.905C140.632 442.287 148.795 439.708 148.795 439.708C150.979 439.781 153.244 439.827 155.586 439.847C155.586 439.847 158.431 441.065 162.702 440.999C184.907 440.655 196.742 429.764 196.742 419.956C196.742 408.929 175.913 401.233 167.34 401.674C145.162 402.822 118.716 414.499 119.366 427.598H119.358H119.354Z" fill="#E89C4C"/>
<path d="M149.328 422.439C150.65 420.227 152.386 418.312 154.353 416.68C153.53 417.639 152.753 418.625 152.092 419.677C150.148 422.725 149 426.442 149.216 430C149.351 433.949 151.69 439.081 155.586 439.839C153.244 439.82 150.979 439.773 148.795 439.696C145.676 434.479 146.259 427.498 149.328 422.431V422.439Z" fill="#836138"/>
<path d="M130.351 420.138C132.04 418.355 134.053 416.897 136.26 415.976C134.239 417.252 132.573 418.97 131.286 420.892C129.999 422.81 129.087 424.953 128.631 427.126C127.738 431.102 128.669 435.55 131.989 437.901C129.535 437.337 127.386 436.606 125.585 435.681C125.457 435.194 125.353 434.699 125.291 434.204C124.626 428.905 126.88 423.862 130.351 420.141V420.138Z" fill="#836138"/>
<path d="M222.751 68.2038C193.205 74.2643 181.625 91.1385 181.625 91.1385C181.969 87.5069 183.017 83.62 184.374 79.6248C173.686 81.8022 157.762 96.2476 151.663 106.381V106.392V106.385C141.71 99.9991 121.047 94.1011 110.499 96.8857C113.479 99.8676 116.142 102.888 118.051 105.994C118.051 105.994 100.206 95.9885 71.0317 103.646C71.0317 103.646 110.325 103.082 133.176 124.318C135.054 118.734 130.443 108.825 130.443 108.825C135.379 109.208 140.237 110.937 144.895 112.542C147.991 113.605 151.114 114.827 154.001 116.432C154.001 116.432 154.005 116.432 154.009 116.436V116.425C155.887 113.706 158.145 111.227 160.452 108.902C163.919 105.402 167.514 101.697 171.769 99.1676C171.769 99.1676 172.017 110.097 176.172 114.27C187.276 85.0974 222.758 68.2 222.758 68.2H222.755L222.751 68.2038Z" fill="#FBB96D"/>
<path d="M315.673 358.481C315.696 360.19 315.538 361.822 315.298 363.114C315.201 363.706 315.085 364.29 314.95 364.87C313.377 371.855 309.338 378.031 304.92 383.581C294.886 396.062 282.313 407.007 266.829 411.699C260.254 413.822 249.637 413.474 247.468 405.642C246.235 399.388 250.777 393.161 253.935 387.928C261.746 376.175 271.409 364.742 280.604 354.3L280.674 354.23C285.123 348.649 288.246 348.305 290.619 349.121C292.505 349.763 293.626 350.595 294.279 351.43C294.507 351.724 294.786 351.956 295.087 352.119C295.903 352.587 296.908 352.59 297.715 352.045C297.777 352.006 297.843 351.956 297.905 351.906C300.089 350.127 303.467 348.255 308.078 348.108C313.93 347.93 315.596 353.526 315.673 358.473V358.481Z" fill="#E89C4C"/>
<path d="M288.041 395.741C280.67 403.024 270.358 408.384 266.644 404.613C262.925 400.842 265.89 391.885 273.261 384.606C280.635 377.324 289.618 374.481 293.332 378.248C297.047 382.019 295.412 388.458 288.045 395.737H288.041V395.741Z" fill="#B08049"/>
<path d="M297.72 352.049C297.36 355.135 296.235 358.152 294.523 360.651C293.004 362.905 291.068 364.82 288.899 366.421C289.823 365.458 290.701 364.464 291.458 363.393C293.684 360.295 295.103 356.454 295.088 352.695C295.088 352.502 295.091 352.312 295.088 352.119C295.903 352.587 296.908 352.59 297.72 352.045V352.049Z" fill="#836138"/>
<path d="M315.673 358.481C315.696 360.186 315.538 361.822 315.298 363.114C315.202 363.706 315.086 364.29 314.95 364.87C314.39 365.551 313.787 366.189 313.145 366.773C311.147 368.614 308.816 370.029 306.343 371.089C307.464 370.37 308.542 369.596 309.528 368.734C312.407 366.231 314.668 362.816 315.519 359.158C315.577 358.933 315.631 358.709 315.673 358.477V358.481Z" fill="#836138"/>
<path d="M303.56 212.008C312.859 195.776 326.132 161.733 315.337 144.581C312.272 139.707 309.667 132.668 305.288 134.537C305.288 134.537 302.764 131.47 298.616 129.586C292.243 126.693 282.711 125.39 277.872 132.904C277.872 132.904 274.397 133.488 273.586 133.987C260.935 141.699 273.369 157.135 272.631 172.52C271.711 191.637 255.423 208.129 246.425 220.675C243.685 224.492 242.235 229.195 242.533 233.945C244.152 260.09 293.089 230.332 303.568 212.016V212.008H303.56Z" fill="#FDAB57"/>
<path d="M275.676 133.392C276.426 132.027 279.46 130.905 279.46 130.905C281.71 132.127 282.858 134.312 284.025 136.498C287.736 143.428 286.908 148.82 286.908 148.82C286.908 148.82 285.981 142.384 282.34 137.507C280.96 135.658 278.026 133.206 275.676 133.4V133.392Z" fill="#836138"/>
<path d="M302.137 131.191C305.113 132.127 306.729 134.51 306.768 134.552C307.286 137.352 307.684 142.036 306.331 147.679C306.331 147.679 306.033 140.926 304.881 136.2C304.456 134.452 303.498 132.595 302.133 131.195L302.137 131.191Z" fill="#836138"/>
<path d="M301.766 152.436C296.916 149.4 291.694 153 289.255 156.705C287.585 159.084 286.511 161.888 286.047 164.611C285.142 169.921 286.259 175.595 289.305 179.567C293.267 184.738 299.181 184.339 303.328 178.975C309.222 171.89 309.91 158.024 301.824 152.467L301.766 152.428V152.436Z" fill="#E89C4C"/>
<path d="M319.372 138.679C330.179 148.352 330.801 168.014 324.13 180.213C323.094 182.062 321.865 183.806 320.373 185.279C322.371 181.609 323.631 177.741 324.455 173.789C326.724 161.977 325.958 149.083 319.372 138.683V138.679Z" fill="#C2E3FD"/>
<path d="M330.469 146.17C336.181 151.74 337.055 164.878 332.668 171.43C333.283 167.113 333.209 162.944 332.908 158.659C332.548 154.381 331.968 150.266 330.469 146.17Z" fill="#C2E3FD"/>
</svg>
