<svg id="svg8" height="512" viewBox="0 0 135.46666 135.46666" width="512" xmlns="http://www.w3.org/2000/svg" xmlns:svg="http://www.w3.org/2000/svg"><clipPath id="clipPath5136"><rect id="rect5138" height="89.013" rx="7.858" width="87.501" x="-68.036" y="22.301"/></clipPath><clipPath id="clipPath3786"><path id="rect3788" d="m84.667 15.119h79.375v72.571h-79.375z" paint-order="fill markers stroke"/></clipPath><g id="layer1"><g id="g4582" transform="matrix(1.02 0 0 1.02 -11.216 .017)"><g id="g24958"><g id="g13954"><g id="g5977"><g id="g3564"><g id="g6428" transform="translate(2.669)"><g id="g6446"><g id="g6696" transform="translate(-.524)"><path id="path6676" d="m89.565546 100.52864c0-.37068 7.876824-24.557163 9.730195-27.244549 1.853369-2.687387 11.490899-5.004099 14.826969-5.374776 3.33606-.370673 1.57536 10.564213 1.39002 14.270953-.18533 3.706743-14.82696 22.703792-14.82696 22.703792z" fill="#7738c7" paint-order="markers stroke fill"/><path id="path6674" d="m62.541079 100.52864c0-.37068-7.876824-24.557163-9.730195-27.244549-1.853372-2.687387-11.490896-5.004099-14.826965-5.374776-3.336066-.370673-1.575363 10.564213-1.390027 14.270953.185338 3.706743 14.826964 22.703792 14.826964 22.703792z" fill="#7738c7" paint-order="markers stroke fill"/><path id="path6388" d="m90.065024 32.162283s-.287902 71.495407-.287902 71.495407-3.381585-.46463-4.561064-5.051493c-1.179476-4.586858-7.076864-58.97389-7.076864-58.97389z" fill="#ffac17" paint-order="markers stroke fill"/><path id="path6379" d="m67.166004 103.28701s5.004098-28.912577 6.301458-30.395272c1.297359-1.482697 16.865671-16.309662 18.16303-17.051009 1.29736-.741348 13.714938-1.668033 14.270948.556012.55602 2.224045-15.568307 47.631619-15.568307 47.631619z" fill="#ff4b3d" paint-order="markers stroke fill"/><path id="path6381" d="m72.346754 76.494588c-1.941594 8.083076-5.180823 26.792502-5.180823 26.792502l23.166985.74142s1.867655-5.271386 4.253922-12.133861c-4.841096.77772-10.999259.789266-14.817772-2.878516-4.003819-3.845776-6.237433-8.884823-7.422312-12.521545z" fill="#d11632" paint-order="markers stroke fill"/><path id="path6386" d="m76.350082 32.162283s-.287902 71.495407-.287902 71.495407-3.381585-.46463-4.561064-5.051493c-1.179476-4.586858-7.076864-58.97389-7.076864-58.97389z" fill="#ffac17" paint-order="markers stroke fill"/><path id="path6377" d="m62.161901 104.95505s-19.645725-56.713139-15.938986-56.342466c3.706744.370674 19.089717 12.232244 20.016402 13.344268.926687 1.112021 9.822863 41.700838 9.822863 41.700838z" fill="#ff4b3d" paint-order="markers stroke fill"/><path id="path6374" d="m35.026209 121.54049s-1.095056-14.86186 5.089985-20.18218c7.465314-6.421601 62.946156-5.63528 70.072126-.52421 7.12598 5.11108 8.14398 17.16796 8.14398 19.39586s-83.306091 1.31053-83.306091 1.31053z" fill="#7738c7" paint-order="markers stroke fill"/><path id="path6370" d="m105.696 49.870871c-1.62077 2.807244-16.03313.352882-18.994411 1.671329-2.961281 1.318448-10.781088 13.67121-13.95178 12.997259-3.170689-.673951-5.290119-15.139364-7.459123-17.548287s-16.333633-6.028789-16.672465-9.252557 12.763654-9.709524 14.384417-12.516767c1.620763-2.807244.686349-17.3972066 3.64763-18.7156539 2.961281-1.3184472 13.178491 9.1385479 16.349182 9.8124999 3.17069.673951 16.75782-4.723276 18.92682-2.314353 2.16901 2.408923-4.618893 15.357457-4.280062 18.581225s9.670552 14.478062 8.049792 17.285305z" fill="#ffc517" paint-order="markers stroke fill"/><path id="path6372" d="m79.771032 125.93057s-45.709371 1.11202-49.428506 0-2.879329-4.63343.359917-5.83812 33.050833-3.15073 56.146944-3.15073c20.064403 0 35.991623 2.03871 38.631013 4.4481 1.29559 1.1827 3.07356 3.90714-5.04016 4.24377-7.68692.31891-25.027173.29698-40.669208.29698z" fill="#ffc517" paint-order="markers stroke fill"/><path id="path6390" d="m66.748993 19.978009c-.139002 2.641054-.04633 7.27448-5.652779 10.33254-5.606445 3.058063 4.12375 4.170084 9.961867.97302 5.838117-3.197065-3.984747-15.475643-4.309088-11.30556z" fill="#fff" paint-order="markers stroke fill"/><path id="path6392" d="m69.482716 34.619638c-2.780057 1.575362-.370674 4.911431 2.780055 3.150728 3.15073-1.760701 1.482697-5.560112-2.780055-3.150728z" fill="#fff" paint-order="markers stroke fill"/><path id="path6394" d="m57.716879 102.65889c13.912625-1.38605 33.424237-3.505908 36.647895.9784 3.223656 4.48431 4.411322 9.45781-2.290494 10.02855-6.701813.57072-33.254571 1.38605-37.241725-.40768-3.987155-1.79371-2.37533-9.53933 2.884324-10.59927z" fill="#171d8f" paint-order="markers stroke fill"/><path id="path6396" d="m32.791461 81.254712c-1.32291 0-2.647383-5.972539-3.582821-6.907977-.935438-.935439-6.907976-2.259912-6.907976-3.582821.000002-1.32291 5.972538-2.647382 6.907977-3.58282.935438-.935438 2.259912-6.907976 3.58282-6.907976 1.322911 0 2.647383 5.972538 3.582821 6.907976.93544.935439 6.907978 2.259911 6.907976 3.582821 0 1.32291-5.972538 2.647382-6.907977 3.58282-.935438.935439-2.259911 6.907977-3.58282 6.907977z" fill="#ff4b3d" paint-order="markers stroke fill"/><path id="path6399" d="m117.76654 79.787446c-1.32291 0-2.64738-5.972539-3.58282-6.907977-.93544-.935439-6.90798-2.259912-6.90798-3.582821.00001-1.32291 5.97254-2.647382 6.90798-3.58282s2.25991-6.907975 3.58282-6.907976c1.32291.000001 2.64738 5.972538 3.58282 6.907976.93544.935439 6.90798 2.259911 6.90798 3.582821s-5.97254 2.647382-6.90798 3.58282c-.93544.935439-2.25991 6.907977-3.58282 6.907977z" fill="#ffc517" paint-order="markers stroke fill"/><path id="path6401" d="m40.651436 23.906541c-1.104097 0-2.209497-4.984667-2.990213-5.765381-.780715-.780716-5.765383-1.886118-5.765383-2.990214.000008-1.104098 4.984668-2.209499 5.765383-2.990214.780716-.780714 1.886117-5.7653798 2.990213-5.7653798 1.104098 0 2.209498 4.9846658 2.990214 5.7653798.780716.780715 5.765384 1.886117 5.765384 2.990214 0 1.104098-4.984668 2.209499-5.765384 2.990214s-1.886116 5.765381-2.990214 5.765381z" fill="#ffc517" paint-order="markers stroke fill"/><path id="path6407" d="m36.288288 39.881707a5.1439967 5.1439967 0 0 1 -5.143997 5.143997 5.1439967 5.1439967 0 0 1 -5.143996-5.143997 5.1439967 5.1439967 0 0 1 5.143996-5.143997 5.1439967 5.1439967 0 0 1 5.143997 5.143997z" fill="#7738c7" paint-order="markers stroke fill"/><path id="path6410" d="m116.49458 17.504559c2.84095.000004 5.14399 2.30305 5.14399 5.144 0 2.840946-2.30304 5.143986-5.14399 5.14399-2.84095.000002-5.14399-2.30304-5.144-5.14399 0-2.840954 2.30305-5.144002 5.144-5.144z" fill="#ff4b3d" paint-order="markers stroke fill"/></g></g></g></g></g></g></g></g></g></svg>