<svg height="512" viewBox="0 0 64 64" width="512" xmlns="http://www.w3.org/2000/svg"><g id="Layer_31" data-name="Layer 31"><g fill="#dbe6fd"><circle cx="61" cy="37" r="2"/><circle cx="51" cy="29" r="2"/><circle cx="59" cy="22" r="2"/><path d="m63 48.5a4.5 4.5 0 0 0 -.9-2.7l-.3-.4a16 16 0 0 0 -12.8-6.4h-2l2 14h9.5a4.5 4.5 0 0 0 4.5-4.5z"/></g><path d="m39 46h6v4h-6z" fill="#5d6972"/><path d="m33 15h4v13h-4z" fill="#fcab68"/><rect fill="#fcab68" height="12" rx="6" transform="matrix(-1 0 0 -1 42 94)" width="40" x="1" y="41"/><path d="m38 50h-28a5.993 5.993 0 0 1 -5.466-8.466 6 6 0 0 0 2.466 11.466h28a6 6 0 0 0 5.466-3.534 5.974 5.974 0 0 1 -2.466.534z" fill="#ea8e49"/><rect fill="#7a838b" height="6" rx="3" transform="matrix(-1 0 0 -1 42 94)" width="34" x="4" y="44"/><rect fill="#7a838b" height="4" rx="2" width="26" x="3" y="11"/><path d="m6 13a2 2 0 0 1 2-2h-3a2 2 0 0 0 0 4h3a2 2 0 0 1 -2-2z" fill="#5d6972"/><path d="m5 15h22v22h-22z" fill="#fcab68"/><path d="m5 15h22v2h-22z" fill="#ea8e49"/><path d="m37 24.667-4-.667v4h4z" fill="#ea8e49"/><path d="m27 35h-7a4 4 0 0 1 -4-4 4 4 0 0 0 -4-4h-5.306a2 2 0 0 0 -1.694.946v9.054h22z" fill="#ea8e49"/><path d="m27 25v12h-13v-8h-9.306a2 2 0 0 0 -1.973 1.671l-1.333 8a2 2 0 0 0 1.973 2.329h35.333a2 2 0 0 0 1.98-2.283l-1.467-10.268a2 2 0 0 0 -1.651-1.69z" fill="#7a838b"/><path d="m36 29.027a.579.579 0 0 1 -.083-.006l-2-.333a.5.5 0 0 1 .164-.987l2 .333a.5.5 0 0 1 -.081.993z" fill="#fff"/><path d="m40.571 38h-26.447a7.73 7.73 0 0 1 -7.624-9h-1.806a2 2 0 0 0 -1.973 1.671l-1.333 8a2 2 0 0 0 1.973 2.329h35.333a2 2 0 0 0 1.98-2.283z" fill="#5d6972"/><path d="m8 18h6v8h-6z" fill="#98deea"/><path d="m11 20v-2h-3v8h6v-3a3 3 0 0 1 -3-3z" fill="#82d0d8"/><path d="m17 18h7v16h-7z" fill="#98deea"/><path d="m20 27v-9h-3v16h7v-3a4 4 0 0 1 -4-4z" fill="#82d0d8"/><circle cx="35" cy="47" fill="#98deea" r="3"/><path d="m37 48a2.96 2.96 0 0 1 -2.86-3.86 2.992 2.992 0 1 0 3.72 3.72 2.983 2.983 0 0 1 -.86.14z" fill="#82d0d8"/><path d="m62.729 46.984a4.493 4.493 0 0 1 -.8 1.406 2.734 2.734 0 0 1 -3.754.228 1.964 1.964 0 0 0 -.279-.171l-1.696-.847a8 8 0 0 1 -4.14-5.051l-.926-3.393a15.9 15.9 0 0 0 -2.134-.156h-2l1.914 13.4.086.6h9.143a4.918 4.918 0 0 0 4.017-1.972 4.269 4.269 0 0 0 .569-4.044z" fill="#bbcff2"/><path d="m50.059 42.549-1.717-6.3a1.7 1.7 0 0 0 -1.642-1.249 1.7 1.7 0 0 0 -1.7 1.7v12.3a4 4 0 0 0 4 4h6a2 2 0 0 0 2-2v-.764a2 2 0 0 0 -1.106-1.789l-1.694-.847a8 8 0 0 1 -4.141-5.051z" fill="#fcab68"/><path d="m55 50a8 8 0 0 1 -8-8v-6.95a1.667 1.667 0 0 0 -.3-.05 1.7 1.7 0 0 0 -1.7 1.7v12.3a4 4 0 0 0 4 4h6a2 2 0 0 0 2-2v-.764a2.061 2.061 0 0 0 -.033-.236z" fill="#ea8e49"/><path d="m35 48h-26a1 1 0 0 1 0-2h26a1 1 0 0 1 0 2z" fill="#fcab68"/><circle cx="7" cy="47" fill="#98deea" r="3"/><path d="m9 48a2.96 2.96 0 0 1 -2.86-3.86 2.992 2.992 0 1 0 3.72 3.72 2.983 2.983 0 0 1 -.86.14z" fill="#82d0d8"/></g></svg>