<?xml version="1.0" encoding="UTF-8"?>
<!-- Generator: Adobe Illustrator 26.0.3, SVG Export Plug-In . SVG Version: 6.00 Build 0)  -->
<svg xmlns="http://www.w3.org/2000/svg" xmlns:xlink="http://www.w3.org/1999/xlink" version="1.1" id="Capa_1" x="0px" y="0px" viewBox="0 0 511.671 511.671" style="enable-background:new 0 0 511.671 511.671;" xml:space="preserve" width="512" height="512">
<g>
	<g>
		<g>
			<path style="fill:#008CFA;" d="M342.716,391.872l-59.817,82.241c-18.609,42.165-27.579,17.152-35.697,5.166l51.727-83.579     l-38.922-59.779v86.531l-76.107-6.949l-14.249-45.521l62.9,17.724l-21.545-91.748l56.645-13.553l6.603,19.462L342.716,391.872z"/>
		</g>
		<g>
			<g>
				<path style="fill:#002855;" d="M349.317,503.777c-60.12,21.888-111.9-8.689-111.9-8.689l9.786-15.808      c15.958-3.763,22.533,9.894,22.533,9.894c-1.167-14.496,7.424-15.769,13.164-15.061c2.795,0.341,4.907,1.166,4.907,1.166      l-7.991,14.942C336.114,472.845,349.317,503.777,349.317,503.777z"/>
			</g>
			<g>
				<path style="fill:#FFFFFF;" d="M346.054,502.613l-86.49-2.565l-0.121-0.523c-0.946-4.166-2.867-6.995-5.709-8.416      c-5.186-2.594-11.795,0.298-11.864,0.325l-0.565-1.27c0.294-0.132,7.28-3.185,13.049-0.298c3.108,1.551,5.233,4.519,6.318,8.821      l85.422,2.537L346.054,502.613z"/>
			</g>
			<g>
				<polygon style="fill:#FFFFFF;" points="263.598,505.384 263.136,499.02 264.522,498.914 264.984,505.286     "/>
			</g>
			<g>
				<polygon style="fill:#FFFFFF;" points="269.534,505.711 267.797,499.919 269.128,499.515 270.865,505.315     "/>
			</g>
			<g>
				<polygon style="fill:#FFFFFF;" points="274.73,507.148 273.332,499.917 274.697,499.651 276.093,506.89     "/>
			</g>
			<g>
				<polygon style="fill:#FFFFFF;" points="283.035,509.454 279.677,500.017 280.986,499.546 284.346,508.983     "/>
			</g>
			<g>
				
					<rect x="288.792" y="499.707" transform="matrix(0.9859 -0.1673 0.1673 0.9859 -80.3771 55.5362)" style="fill:#FFFFFF;" width="1.39" height="10.396"/>
			</g>
		</g>
	</g>
	<g>
		<g>
			
				<rect x="302.053" y="310.23" transform="matrix(0.5995 -0.8004 0.8004 0.5995 -117.4165 388.6139)" style="fill:#002855;" width="55.052" height="2.789"/>
		</g>
		<g>
			
				<rect x="371.661" y="291.979" transform="matrix(0.9562 -0.2928 0.2928 0.9562 -74.2951 122.8123)" style="fill:#002855;" width="2.788" height="35.157"/>
		</g>
		<g>
			<polygon style="fill:#FFD000;" points="383.771,319.292 307.153,331.593 293.7,434.403 307.153,447.005 402.997,413.714    "/>
		</g>
	</g>
	<g>
		<g>
			<polygon style="fill:#002855;" points="70.36,365.232 94.353,468.387 211.788,454.368 230.814,436.265 169.651,336.423    "/>
		</g>
		<g>
			
				<rect x="143.842" y="297.657" transform="matrix(0.7145 -0.6996 0.6996 0.7145 -186.8694 194.7833)" style="fill:#002855;" width="2.788" height="57.417"/>
		</g>
		<g>
			
				<rect x="78.964" y="340.318" transform="matrix(0.24 -0.9708 0.9708 0.24 -255.0315 357.6581)" style="fill:#002855;" width="43.895" height="2.787"/>
		</g>
	</g>
	<g>
		<g>
			
				<rect x="302.891" y="316.52" transform="matrix(0.3983 -0.9173 0.9173 0.3983 -90.7759 497.4472)" style="fill:#002855;" width="61.763" height="2.788"/>
		</g>
		<g>
			
				<rect x="396.714" y="284.741" transform="matrix(0.7461 -0.6658 0.6658 0.7461 -105.9503 343.9837)" style="fill:#002855;" width="2.789" height="52.377"/>
		</g>
		<g>
			<path style="fill:#FF4E8C;" d="M426.463,318.312l-111.984,22.529l-5.128,109.295c0,0,73.897,9.973,117.111-15.627V318.312z"/>
		</g>
	</g>
	<g>
		<path style="fill:#FFFFFF;" d="M252.79,219.714l-23.483-12.241l-13.631,9l-12.779,55.864l2.781,28.729l19.385,6.927l4.446-2.303    c8.965,2.248,18.611,0.51,27.812-2.571l9.056,3.594l14.134-24.177L252.79,219.714z"/>
	</g>
	<g>
		<polygon style="fill:#002855;" points="402.294,339.352 378.202,292.67 380.672,291.39 404.765,338.072   "/>
	</g>
	<g>
		
			<rect x="57.201" y="345.488" transform="matrix(0.3249 -0.9458 0.9458 0.3249 -269.0518 316.8434)" style="fill:#002855;" width="60.41" height="2.779"/>
	</g>
	<g>
		<path style="fill:#FFD000;" d="M111.384,282.536v18.52c0,0-22.243-0.223-22.474,14.838c-0.228,15.055,21.548,27.569,45.874,6.023    c0,0,6.256,4.634,9.498,0.462c3.245-4.17,0-28.059-17.374-21.323l-2.781-18.52H111.384z"/>
	</g>
	<g>
		<path style="fill:#FFD000;" d="M366.913,257.068v18.525c0,0,22.242-0.217,22.474,14.839c0.231,15.056-21.546,27.57-45.874,6.022    c0,0-6.255,4.634-9.498,0.462c-3.246-4.164,0-28.059,17.375-21.324l2.781-18.525H366.913z"/>
	</g>
	<g>
		<path style="fill:#002855;" d="M230.814,314.152c0,0-65.68-1.041-29.538-79.926l-65.331-28.147c0,0-19.352,28.745-7.883,82.959    l-20.269,2.526v-9.377c0,0-31.623-25.717-23.283-78.2c8.172-51.409,77.066-43.104,131.166,12.487l4.9,3.159l-3.773,4.111    l12.707,81.947L230.814,314.152z"/>
	</g>
	<g>
		<path style="fill:#002855;" d="M298.636,49.875c2.865-0.898,5.757-1.998,8.634-3.305l-11.816-22.592    c0,0,14.596,10.428,23.629,6.953L305.531,6.95c0,0-87.573-27.45-141.094,26.758c0,0-10.271,55.02,12.317,93.164l14.347,20.957    l26.429-22.475l5.782-43.909l50.612-7.622L298.636,49.875z"/>
	</g>
	<g>
		<path style="fill:#FFD000;" d="M317,146.3c-8.37,20.023-27.276,29.77-47.221,34.311c-4.421,6.672-10.911,11.496-18.391,13.26    l1.07,19.685l4.362,2.294l-4.029,3.867c-5.031,5.461-11.203,9.469-19.196,9.642c-6.52,0-11.761-2.347-16.792-5.613l-1.127-7.269    l-9.535-61.483c0,0-50.389,10.074-54.561-7.994c-3.308-14.342,9.368-23.436,25.175-20.125c4.1,0.849,8.409,2.543,12.704,5.183    c0,0-8.685-36.145,15.291-86.879l28.499,14.942l-10.413-20.485c0.892,0.545,37.254,22.446,75.801,10.242    c5.712,14.332,10.677,29.023,16.277,43.257C321.517,110.508,324.644,128.582,317,146.3z"/>
	</g>
	<g>
		<path style="fill:#002855;" d="M393.452,205.382c0.349,30.237-23.283,50.739-23.283,50.739v10.073l-20.852,2.092    c7.645-27.107-8.34-69.51-8.34-69.51l-61.858,38.923c39.271,79.234-21.197,76.453-21.197,76.453l-0.6-11.033l-4.531-83.405    l-0.333-6.16C341.909,131.374,393.105,175.618,393.452,205.382z"/>
	</g>
	<g>
		<path style="fill:#002855;" d="M256.862,130.634c12.114,8.56,16.91,23.225,14.321,37.578    c-2.858,15.856-16.932,28.718-33.275,22.663c-13.043-4.83-19.415-19.456-19.747-32.432c-0.384-15.116,10.632-33.445,27.445-32.024    c1.956,0.164,9.341-3.283,5.131-3.637c-16.845-1.432-31.89,8.118-38.164,23.72c-7.238,18.002,1.064,39.898,18.78,47.744    c15.226,6.741,33.804-1.416,42.551-14.495c11.081-16.576,6.717-40.535-9.487-51.997    C262.426,126.35,255.339,129.556,256.862,130.634L256.862,130.634z"/>
	</g>
	<g>
		<g>
			<path style="fill:#FFFFFF;" d="M248.161,174.839c-8.129,4.406-21.721,9.982-22.113-6.485     c-0.515-21.482,12.662-36.249,12.662-36.249s1.225,18.121,18.528,13.591l-11.598,15.335L248.161,174.839z"/>
		</g>
		<g>
			<path style="fill:#002855;" d="M235.01,179.462c-1.85,0-3.576-0.322-5.058-1.1c-3.119-1.646-4.757-4.995-4.876-9.976     c-0.515-21.63,12.359-36.31,12.906-36.925l1.527-1.71l0.159,2.287c0.006,0.087,0.658,8.473,6.472,11.925     c3.962,2.352,9.459,1.945,16.341-1.193l0.803,1.758c-7.497,3.425-13.598,3.796-18.142,1.084     c-4.703-2.793-6.437-8.119-7.064-11.158c-3.297,4.422-11.467,17.148-11.068,33.88c0.101,4.231,1.395,7.03,3.839,8.31     c7.739,4.067,24.535-6.844,24.706-6.959l1.059,1.623C256.007,171.703,244.051,179.462,235.01,179.462z"/>
		</g>
		<g>
			<path style="fill:#002855;" d="M243.791,132.589c0,0-5.889-3.028-15.414,0.997c0,0,9.601-7.684,17.262-2.886L243.791,132.589z"/>
		</g>
		<g>
			<polyline style="fill:#002855;" points="226.032,162.14 240.322,162.14 226.895,157.725    "/>
		</g>
	</g>
	<g>
		<path style="fill:#002855;" d="M287.532,75.255c2.991,7.094,5.62,14.36,8.006,21.678c1.864,5.717,3.457,11.527,4.587,17.425    c0.738,3.86,2.243,9.927-0.87,13.063c-3.344,3.371-12.519,1.323-16.586,0.686c-4.57-0.708-9.082-1.808-13.547-3.001    c-2.831-0.756-5.645-1.596-8.431-2.499c-1.071-0.349-0.454,0.19-0.1-0.305c2.63-3.692,6.716-5.952,9.793-0.943    c0.621,1.008,4.364-0.538,4.031-1.083c-5.073-8.244-13.813-3.13-18.136,3.213c-0.171,0.244,0.18,0.38,0.334,0.435    c6.984,2.37,14.192,4.199,21.445,5.533c7.035,1.284,16.769,2.826,23.279-1.221c7.818-4.856,2.066-19.209,0.18-25.967    c-2.669-9.545-6.107-18.962-9.96-28.092C291.143,73.186,287.215,74.51,287.532,75.255L287.532,75.255z"/>
	</g>
	<g>
		<path style="fill:#002855;" d="M232.785,104.812c3.025,7.711,11.966,12.9,19.969,9.802c7.415-2.88,6.423-13.341,5.31-19.565    c-0.115-0.643-3.158,0.043-3.02,0.81c0.862,4.836,1.325,10.031-0.558,14.675c-4.029,9.955-16.527-1.046-18.681-6.534    C235.513,103.255,232.549,104.213,232.785,104.812L232.785,104.812z"/>
	</g>
	<g>
		<path style="fill:#002855;" d="M262.982,93.225c3.001,7.634,12.008,13.22,20.052,10.106c7.395-2.863,6.322-13.744,5.229-19.865    c-0.196-1.105-3.229-0.358-3.023,0.806c0.879,4.906,1.455,10.476-0.843,15.09c-4.374,8.798-16.263-1.515-18.395-6.949    C265.567,91.303,262.579,92.2,262.982,93.225L262.982,93.225z"/>
	</g>
	<g>
		
			<rect x="222.104" y="85.836" transform="matrix(0.8429 -0.538 0.538 0.8429 -11.7181 142.6544)" style="fill:#002855;" width="32.711" height="11.121"/>
	</g>
	<g>
		
			<rect x="259.467" y="68.262" transform="matrix(0.9984 -0.0569 0.0569 0.9984 -3.7514 15.797)" style="fill:#002855;" width="32.525" height="11.121"/>
	</g>
	<g>
		<polygon style="fill:#002855;" points="151.576,363.012 131.19,315.513 133.745,314.419 154.13,361.906   "/>
	</g>
	<g>
		<path style="fill:#002855;" d="M122.457,330.93c-0.058-0.104-5.828-10.368,6.781-18.633l0.76,1.166    c-11.479,7.519-6.553,16.395-6.34,16.771L122.457,330.93z"/>
	</g>
	<g>
		<path style="fill:#002855;" d="M112.266,333.662c-0.112-0.113-2.754-2.858-2.284-7.149c0.457-4.193,3.686-8.278,9.595-12.127    l0.76,1.155c-5.531,3.609-8.551,7.339-8.971,11.096c-0.407,3.632,1.872,6.029,1.894,6.056L112.266,333.662z"/>
	</g>
	<g>
		<path style="fill:#002855;" d="M102.248,333.662c-0.126-0.175-3.111-4.334-2.195-9.246c0.576-3.094,2.563-5.761,5.911-7.911    l0.753,1.165c-3.012,1.938-4.794,4.297-5.3,7.002c-0.804,4.33,1.927,8.141,1.954,8.174L102.248,333.662z"/>
	</g>
	<g>
		
			<rect x="311.225" y="319.019" transform="matrix(0.0805 -0.9968 0.9968 0.0805 -4.6607 635.7666)" style="fill:#002855;" width="62.053" height="2.782"/>
	</g>
	<g>
		<path style="fill:#002855;" d="M358.621,305.853l-1.336-0.387c0.035-0.12,3.434-12.323-2.837-17.294l0.861-1.095    C362.312,292.638,358.777,305.319,358.621,305.853z"/>
	</g>
	<g>
		<path style="fill:#002855;" d="M369.177,308.232l-1.298-0.505c0.163-0.425,3.908-10.51-3.972-17.737l0.939-1.018    C373.436,296.841,369.222,308.117,369.177,308.232z"/>
	</g>
	<g>
		<path style="fill:#002855;" d="M381.064,305.417l-1.339-0.376c0.021-0.082,2.08-7.846-4.51-15.094l1.027-0.936    C383.372,296.852,381.161,305.069,381.064,305.417z"/>
	</g>
	<g>
		<polygon style="fill:#FFFFFF;" points="298.928,510.976 297.306,500.727 298.679,500.512 300.301,510.766   "/>
	</g>
	<g>
		<polygon style="fill:#FFFFFF;" points="308.516,510.426 307.702,501.187 309.088,501.062 309.9,510.307   "/>
	</g>
	<g>
		
			<rect x="316.5" y="501.114" transform="matrix(0.9936 -0.1129 0.1129 0.9936 -54.993 39.0275)" style="fill:#FFFFFF;" width="1.39" height="8.196"/>
	</g>
	<g>
		<polygon style="fill:#FFFFFF;" points="324.299,507.723 323.138,501.532 324.504,501.278 325.665,507.461   "/>
	</g>
	<g>
		
			<rect x="331.939" y="501.913" transform="matrix(0.9838 -0.1793 0.1793 0.9838 -85.087 67.8366)" style="fill:#FFFFFF;" width="1.39" height="5.177"/>
	</g>
	<g>
		<g>
			<path style="fill:#FF4E8C;" d="M204.402,439.605c0,0-16.33,14.251-26.064,42.747c0,0-7.683-0.641-18.556-1.208l-47.435-41.637     l-47.435-34.881l-4.38-31.044l109.12-23.632C169.651,349.949,191.197,419.453,204.402,439.605z"/>
		</g>
		<g>
			<path style="fill:#FFD000;" d="M159.782,481.143c-9.107-0.476-20.614-0.906-32.264-0.872l-33.523-5.861l-7.534-10.807     l-18.244-35.52l-3.307-23.458c18.571-1.798,37.073,5.859,53.307,16.216C139.822,435.162,153.971,456.944,159.782,481.143z"/>
		</g>
		<g>
			<path style="fill:#002855;" d="M127.518,480.271c-5.601,0.01-11.216,0.119-16.638,0.388h-0.015l-25.107-11.407l-15.399-26.03     l-2.142-15.138c3.754,0.849,6.855,1.812,7.952,2.146c16.68,6.249,34.403,15.639,43.787,30.923     C123.586,467.186,125.96,473.623,127.518,480.271z"/>
		</g>
		<g>
			<path style="fill:#76D7F7;" d="M110.866,480.659c-5.852,0.271-11.468,0.718-16.513,1.399l-12.73-1.841l-8.206-15.312     l-3.057-21.683c9.272,0.169,19.865,5.657,24.923,10.983C102.331,461.25,107.85,470.599,110.866,480.659z"/>
		</g>
		<g>
			<path style="fill:#008CFA;" d="M94.353,482.058c-7.59,1.028-13.888,2.565-17.838,4.814l-3.099-21.968     c5.604,1.938,11.386,5.522,14.568,8.066C90.794,475.512,92.877,478.628,94.353,482.058z"/>
		</g>
		<g>
			<polygon style="fill:#FFFFFF;" points="175.343,479.677 156.793,356.2 178.091,479.231    "/>
		</g>
		<g>
			
				<rect x="175.675" y="354.673" transform="matrix(0.9689 -0.2475 0.2475 0.9689 -94.4578 56.2164)" style="fill:#FFFFFF;" width="1.39" height="98.278"/>
		</g>
	</g>
	<g>
		<path style="fill:#002855;" d="M156.161,146.774c0,0,1.752-7.123,10.508-7.204c8.754-0.082,15.272,3.823,14.384,8.174    c-0.896,4.346-16.182,6.137-12.348-1.296l-4.698,0.142l6.384-1.051c0,0-4.031,4.742,2.569,5.238    c6.595,0.483,9.238-4.498,5.258-7.335C174.234,140.604,163.068,137.234,156.161,146.774z"/>
	</g>
	<g>
		<g>
			<path style="fill:#76D7F7;" d="M329.856,459.421l39.964,16.328c0,0,42.398-37.184,81.32-39.619l-1.321-10.367l-5.078-3.421     l3.784-6.766l-0.888-7.064l-33.904-16.191l27.768-32.172l-1.219-9.56l-6.888-3.417l5.429-8.152l-2.628-20.693l-117.114,32.318     c0,0,4.395,11.497,8.174,29.177c0,0,2.198,2.17,2.418,3.265c0.29,1.448-0.914,4.367-0.914,4.367     c0.653,3.582,1.275,7.392,1.805,11.315c0,0,10.233,10.517,10.527,17.987c0.111,2.827-8.485,11.996-8.485,11.996     c-0.009,2.798-0.086,5.626-0.223,8.473c0,0,2.211,2.498,2.133,3.652c-0.062,0.914-2.533,2.507-2.533,2.507     C331.544,448.686,330.85,454.075,329.856,459.421z"/>
		</g>
		<g>
			<path style="fill:#002855;" d="M447.638,408.513l-83.253,34.698c0,0-16.889-7.652-31.778-14.457     c0.029-10.564-0.791-20.715-2.04-29.982l28.078,7.486l82.862-46.11L447.638,408.513z"/>
		</g>
		<g>
			<path style="fill:#002855;" d="M440.285,350.591l-83.323,44.881l-28.204-8.015c-0.471-2.658-0.986-5.201-1.501-7.635     l28.093,5.255l83.474-46.056L440.285,350.591z"/>
		</g>
		<g>
			<path style="fill:#002855;" d="M449.82,425.764l-83.292,31.191l-34.542-13.565c0.179-2.069,0.302-4.128,0.401-6.169     l33.264,14.087l82.876-35.733L449.82,425.764z"/>
		</g>
		<g>
			<polygon style="fill:#FFFFFF;" points="367.636,473.185 349.317,346.24 370.384,472.755    "/>
		</g>
		<g>
			
				<rect x="340.398" y="350.891" transform="matrix(0.9921 -0.1258 0.1258 0.9921 -48.504 46.1498)" style="fill:#FFFFFF;" width="1.391" height="112.333"/>
		</g>
	</g>
</g>















</svg>
