<svg id="Wizard" height="512" viewBox="0 0 1200 1200" width="512" xmlns="http://www.w3.org/2000/svg"><g><path d="m316.256 374.702c-71.75 14.001-132.799 38.578-180.717 72.771-32.781 22.375-54.918 60.17-59.34 101.289-2.432 15.727-3.545 32.779 4.014 50.997 47.652 115.419 95.004 230.978 142.74 346.356 9.934 24.029 19.878 48.053 29.84 72.066 5.329 18.76 21.24 47.85 68.615 47.85 78.135-3.453 164.164-42.115 219.643-69.406 43.979-23.324 90.97-49.537 116.122-81.549 77.479 39.844 190.199 76.088 284.088 60.652 41.251-8.912 52.346-35.645 57.49-60.926 29.116-101.248 58.188-203.693 85.468-299.949 12.282-44.521 26.454-92.604 38.853-136.868 8.338-32.702-4.131-70.852-31.816-98.001-29.669-42.327-96.613-71.526-199.063-86.801-19.613-2.136-40.054-4.382-61.886-4.455-15.903 0-30.287 1.388-43.339 4.203-2.017-21.143-4.142-40.726-6.431-59.253-1.579-12.792-3.739-30.31-19.71-46.156-74.762-63.088-229.098-58.802-295.483-45.153-53.941 11.483-94.537 39.165-86.671 102.919.927 41.558.978 82.146 1.728 123.598-21.698-.961-44.175 2.365-64.145 5.816z" fill="#fff"/><g><path d="m320.646 400.438c-60.029 11.813-120.102 32.678-170.178 68.454-27.707 18.808-44.986 50.201-48.373 83.247-2.068 13.157-2.891 25.267 2.25 37.656 47.652 115.418 94.996 230.965 142.735 346.346 10.144 24.535 20.298 49.066 30.472 73.588 9.301 36.391 45.264 31.758 74.723 26.969 62-11.092 120.98-35.674 177.201-63.477 36.254-19.422 103.34-53.783 118.321-93.25 76.244 45.52 199.43 84.945 287.949 70.238 24.535-5.301 32.895-17.627 37.615-41.59 28.825-100.227 57.303-200.557 85.741-300.893 12.885-45.398 25.678-90.824 38.671-136.19 6.831-26.798-7.003-56.367-26.563-74.598-32.506-49.536-127.021-69.605-182.869-77.932-39.815-4.146-87.914-10.056-124.388 9.714-2.572-30.665-5.559-61.301-9.329-91.844-1.534-12.427-3.061-21.765-12.188-30.823-51.466-47.352-204.819-54.081-271.34-38.216-21.877 4.943-48.605 13.407-61.059 33.737-10.215 19.055-3.625 41.861-4.955 62.571.627 45.022 1.227 90.043 1.834 135.063-28.082-7.922-58.009-3.591-86.27 1.23z" fill="#68182b"/><path d="m1002.033 360.466c-65.474-26.244-139.922-41.238-210.189-30.033-10.883 2.435-22.108 5.957-29.1 14.374-10 20.099-17.385 41.708-26.279 62.374-46.033 113.517-89.594 228.205-126.533 345.063-2.143 6.879-4.539 13.752-6.707 20.682-5.719 18.26-6.512 24.551 8.414 40.256 17.234 18.119 46.547 31.328 65.893 40.566 65.74 27.176 154.494 56.719 226.944 46.426 29.966-4.24 33.429-29.639 36.45-40.15 41.49-144.545 82.481-289.232 123.508-433.904 8.262-33.403-37.557-54.486-62.401-65.654zm19.631 110.988c-13.658 45.553-27.039 91.189-40.762 136.727-14.762 48.861-29.414 99.131-47.478 146.252-9.318 29.6-17.773 59.539-27.782 88.908-14.027 30.746-74.213 18.742-101.312 14.643-40.167-7.338-159.155-40.094-164.015-86.482 8.516-35.877 22.357-70.787 34.318-105.756-1.763-6.762.421-12.818 2.539-19.256 4.084-12.393 8.329-24.732 12.662-37.043 26.984-76.056 56.293-151.28 86.684-226.037 1.811-4.927 5.406-8.938 9.676-11.934 45.284-26.529 145.514-3.991 191.834 16.377 20.591 9.028 53.098 25.894 51.91 52.754-.461 10.422-5.309 20.968-8.274 30.847z" fill="#efefea"/><path d="m924.495 759.911c-5.669 18.555-11.398 37.088-17.243 55.592-3.476 9.592-5.443 20.195-9.961 29.234-8.711 10.592-25.262 11.352-38.115 11.789-62.416-1.273-125.133-19.809-179.623-49.992-14.025-9.059-37.227-22.537-30.789-42.07 8.125-25.111 15.926-50.334 24.688-75.234 3.679-10.461 5.919-11.691 15.039-3.018 35.579 33.836 105.415 52.461 149.726 61.314 26.221 4.117 54.579 9.129 80.609 1.992 7.538-2.062 9.536-2.238 5.669 10.393z" fill="#67d5e8"/><path d="m1016.834 431.753c-11.998-22.564-41.62-33.138-64.717-41.641-46.107-14.607-96.831-24.779-144.928-15.268-7.963 2.377-16.35 4.607-20.033 12.771-3.428 8.404-6.834 16.816-10.216 25.237-31.915 80.048-63.386 160.366-90.466 242.198-1.436 4.6-1.57 5.242-.113 10.02 25.465 46.732 165.462 81.5 216.885 75.73 13.02-1.582 27.608-4.092 30.075-17.766 16.539-51.795 32.345-103.82 47.865-155.929 8.507-28.549 16.943-57.118 25.468-85.663 3.765-12.6 8.438-25.23 11.383-38.045.848-3.681.543-7.317-1.203-11.644zm-27.341 41.807c-19.658 66.196-38.162 132.734-58.569 198.708-3.755 11.012-6.327 22.535-10.724 33.264-11.814 17.414-38.392 13.963-56.823 13.146-44.953-5.111-123.502-22.838-152.134-59.473-6.028-9.682-1.886-18.367 1.521-28.307 26.433-75.946 57.811-150.071 87.999-224.574 18.108-36.882 139.082-8.601 167.298 10.076 26.906 15.102 33.06 28.197 21.432 57.16z" fill="#00ebed"/><path d="m979.186 432.477c-32.685-25.493-76.776-33.395-117.219-36.595-15.973-.198-45.729-2.521-54.854 13.038-31.509 78.64-65.518 156.621-92.083 237.059-1.55 16.588 24.195 28.135 36.651 34.826 39.254 18.426 82.636 29.961 126.02 31.756 11.822-.109 27.831.385 35.941-9.473 3.891-8.893 6.238-19.592 9.48-28.979 19.766-63.721 37.808-127.956 56.624-191.96 2.856-9.689 6.665-19.493 8.712-29.383 1.628-7.867-3.482-15.013-9.272-20.289zm-65.768 145.205c-7.891 3.233-15.877 6.229-23.918 9.073-.17 7.11-.334 14.221-.564 21.329-.818 13.76 1.902 62.705-22.508 51.82-17.668-13.492-26.527-35.441-37.696-54.105-17.114 3.896-34.46 12.32-52.261 10.258-24.529-8.535 17.014-48.472 24.917-59.47 3.328-3.773-4.067-10.706-5.037-15.386-3.708-8.063-8.347-16.334-10.442-25.014-6.276-38.87 42.246-14.918 60.538-8.143 7.423-7.715 14.825-15.448 22.071-23.327 4.083-4.405 8.884-10.016 14.732-12.104 14.311-5.109 10.385 18.727 9.818 25.438-.785 9.27-1.34 18.557-1.768 27.848 13.723 7.142 48.09 10.083 48.969 29.318.008 12.909-17.339 18.566-26.851 22.465z" fill="#ff801d"/><path d="m890.332 552.992c.572-25.934-2.236-19.811 20.451-12.808 22.745 6.422 33.391 17.895 5.578 28.832-31.013 11.019-27.043 19.352-26.029-16.024z" fill="#ffe10e"/><path d="m882.711 597.583c-.313 11.428-.846 22.84-1.898 34.189-.549 5.918-1.254 12.113-3.359 17.719-.777 2.07-2.251 5.354-4.359 5.531-2.769.234-5.852-2.965-7.673-4.785-10.733-11.629-18.421-25.621-26.08-39.459-3.519-6.363-3.079-7.069 4.587-9.346 10.78-3.192 21.509-6.539 32.17-10.101 7.104-2.371 6.804-.507 6.612 6.252z" fill="#ffe10e"/><path d="m858.797 505.239c4.908-5.172 9.774-10.386 14.604-15.637 2.291-2.471 4.626-4.922 7.183-7.124 3.826-3.299 6.852-4.278 6.754 1.474-.045 2.635-.382 5.498-.465 6.404-.82 8.875-1.424 17.764-1.92 26.652-.354 6.238-.882 6.092-6.492 3.863-5.867-2.338-11.721-4.706-17.576-7.069-5.716-2.304-6.574-3.832-2.088-8.563z" fill="#ffe10e"/><path d="m854.104 518.462c8.277 3.328 16.527 6.712 24.816 10 6.208 2.465 5.201 3.496 4.967 10.014-.416 11.49-.555 23.032-.713 34.584-.123 9.232-1.482 9.154-9.953 11.965-10.254 3.402-20.574 6.609-30.934 9.681-10.016 2.964-10.352 2.581-15.449-7.126-4.104-7.82-8.077-15.714-11.965-23.643-3.123-6.361-4.217-7.407.457-12.588 9.207-10.227 18.674-20.209 28.197-30.156 4.894-5.115 5.598-4.735 10.577-2.731z" fill="#ffe10e"/><path d="m801.633 536.223c-25.104-46.949 3.416-36.938 33.058-25.389 5.39 2.098 4.716 4.523.974 8.437-7.375 7.713-14.684 15.486-21.844 23.396-4.922 5.437-6.406 5.768-9.201-.081-1.008-2.115-2.01-4.233-2.987-6.363z" fill="#ffe10e"/><path d="m810.487 570.739c3.762 7.555 7.6 15.084 11.528 22.564 3.24 6.173 3.438 6.137-3.677 8.285-15.203 4.589-47.125 14.65-42.423 2.318 4.718-13.002 14.877-23.316 23.308-34.059 7.105-8.422 6.557-10.225 11.264.892z" fill="#ffe10e"/><path d="m308.224 1026.823c-6.031-1.254-10.518-2.984-13.715-6.939-46.477-108.952-90.617-219.53-136.187-329.084-12.152-29.537-24.295-59.078-36.48-88.6-3.078-7.459-7.25-15.147-9.334-22.961-2.551-12.895 1.09-26.527 3.73-39.174 57.336 138.959 114.018 278.203 171.629 417.059 11.496 36.744 27.688 43.1 64.758 41.182 61.857-5.438 121.083-28.936 176.432-56.045 33.078-16.637 67.887-36.076 93.413-63.443 3.037-3.258 5.909-6.703 8.524-10.328 2.099 1.82 5.116 3.186 6.689 5.129-22.853 66.089-261.326 166.407-329.459 153.204z" fill="#afafaf"/><path d="m1071.598 442.904c2.173-7.614 4.352-14.837 4.988-22.1 13.766 21.358 14.701 41.808 5.322 64.313-39.842 139.887-79.209 280.5-119.6 420.02-6.064 20.961-8.416 29.262-29.334 34.289-16.282 3.916-36.354 2.863-49.52 2.301-61.111-4.336-121.232-20.93-177.562-44.68-38.321-17.693-81.864-37.857-103.05-76.436 30.105 28.916 70.271 44.469 108.658 59.068 42.115 14.949 134 42.258 191.973 32.648 42.035-6.967 40.346-20.646 49.295-51.791 40.013-139.094 79.217-278.424 118.83-417.632z" fill="#afafaf"/><path d="m463.894 573.985c1.957 1.902 4.181 3.688 6.695 5.377 45.863 25.824 106.548 25.909 157.934 23.19 23.088-1.117 23.773-8.605 14.332 16.364-11.26 31.436-22.109 63.021-32.529 94.748-36.719.902-75.394-1.09-110.336-12.814-20.717-6.887-35.336-14.5-32.814-39.098-1.33-29.245-2.381-58.504-3.282-87.767z" fill="#b1d045"/><path d="m691.404 306.256c-1.343-12.453-1.118-25.367-3.886-37.537-2.336-6.742-8.464-11.478-14.42-14.925-42.287-21.443-118.712-26.109-166.042-11.922-27.013 8.097-31.956 20.786-31.229 48.357 1.139 43.577 1.738 87.16 2.712 130.737.708 31.587 1.559 63.174 2.829 94.743.969 23.921 2.293 32.041 20.896 40.817 16.159 7.623 38.174 10.164 51.225 12.372 35.979 4.45 73.39 4.293 108.921-3.406-2.819 7.57-5.638 15.143-8.417 22.729-53.34 7.153-109.959 6.573-161.353-10.676-22.101-8.374-29.546-15.066-27.794-39.849-1.652-37.893-2.971-75.796-4.083-113.706-1.628-55.193-2.788-110.398-4.478-165.589-1.707-10.783 4.806-19.357 13.844-24.515 17.061-10.418 38.643-13.66 58.197-15.543 25.922-2.491 52.197-1.925 78.079.792 20.512 2.527 67.907 8.536 89.537 25.259 12.74 9.852 10.904 17.133 12.316 31.068 3.817 37.665 4.225 75.762 6.232 113.544.497 12.859.958 25.72 1.41 38.584-5.521 13.727-10.996 27.47-16.422 41.236-2.288-54.208-4.279-108.443-8.074-162.57z" fill="#a9ff1d"/><path d="m439.24 190.764c29.99-16.519 80.51-18.542 105.629-19.179 33.588-.455 67.375 2.206 100.411 8.342 26.236 4.873 54.039 11.34 77.127 25.293 8.571 5.451 16.555 11.104 19.221 20.825 3.314 21.308 5.028 42.945 7.376 64.408 1.563 15.973 2.954 31.96 4.25 47.957-10.56 20.09-17.618 42.106-26.748 62.949-1.388-40.073-2.95-80.189-6.429-120.119-.746-8.495 2.584-37.807-26.512-51.75-46.174-21.866-99.506-24.967-149.889-23.762-32.779 2.213-97.316 6.966-98.986 49.997 2.102 98.525 4.758 197.125 9.248 295.569 4.864 24.197 3.238 48.499 4.768 73.124.443 11.357.918 22.719 1.416 34.074.352 7.943-.658 17.215 2.686 24.664 14.11 25.078 54.021 29.598 79.963 33.984 21.625 2.865 43.478 3.813 65.281 3.428-3.817 11.715-7.562 23.453-11.242 35.211-29.742-.109-59.605-1.936-88.952-6.85-23.044-3.857-47.812-8.938-68.031-21.238-21.521-11.605-16.278-26.082-17.222-46.709-2.264-147.168-4.674-294.491-6.259-441.597-.219-20.191-.476-35.741 22.894-48.621z" fill="#efefea"/><path d="m483.095 773.714c-26.223-4.498-59.139-10.773-59.385-43.682 11.475 10.73 27.939 16.762 42.329 21.16 41.081 12.281 84.467 15.426 127.146 16.008-1.819 5.66-3.942 11.318-4.963 17.09-34.886-2.758-70.55-4.444-105.127-10.576z" fill="#afafaf"/><path d="m572.791 810.655c11.098 19.072 7.762 27.879-7.129 43.16-18.418 18.707-42.373 32.242-65.611 43.979-27.146 13.707-55.717 25.07-85.121 32.908-21.242 5.166-44.113 11.07-65.826 5.561-10.363-2.336-13.654-11.793-17.238-20.918-10.034-22.398-19.939-44.854-29.719-67.361-2.523-5.811-5.656-10.363 6.555-8.898 4.153.5 8.345.613 12.338.555 14.374-.213 28.766-2.826 42.709-6.156 33.861-8.088 66.846-21.139 97.783-37.018 6.979-3.58 13.834-7.385 20.589-11.369 8.288 1.305 16.629 2.314 24.929 3.27 19.361 2.229 38.783 3.928 58.209 5.533 2.512 5.582 5.022 11.17 7.532 16.754z" fill="#ff7cc4"/><path d="m411.337 695.37c1.474 18.666-1.698 38.396 5.815 55.873-14.896 4.639-31.718-11.041-38.268-22.973-9.875-17.982-11.743-39.164-20.682-57.641-7.189-14.471-17.236-34.373-6.23-49.285 7.893-8.074 22.518-.715 28.734 5.965 6.065 6.52 10.898 14.289 15.611 21.801 5.145 8.197 9.963 16.594 14.66 25.055.121 7.068.236 14.138.36 21.205z" fill="#ffb578"/><path d="m410.736 659.651c-2.975-5.121-6.025-10.195-9.192-15.199-18.347-28.223-18.179-15.463 8.413-34.258.256 16.484.496 32.971.779 49.457z" fill="#00ebed"/><path d="m409.826 601.923c-8.975 6.16-18.287 11.834-27.701 17.281-20.828-17.049-45.84-6.236-41.556 21.936-10.09 4.795-20.323 9.322-30.858 13.057-38.637 12.402-43.876-7.076-9.22-30.631 8.823-5.996 18.228-11.24 27.442-16.203 25.973-13.849 53.121-25.902 81.445-34.044.143 9.533.299 19.069.448 28.604z" fill="#ff8e5b"/><path d="m286.358 625.555c7.657-21.051 7.146-43.412 8.808-65.275 4.459-29.129 36.357-19.916 55.005-10.965 17.31 6.753 34.967 14.048 53.146 18.531-41.392 13.373-81.911 31.746-116.959 57.709z" fill="#ff7cc4"/><path d="m409.207 562.158c-19.433-4.304-38.254-12.114-56.682-19.303-11.805-4.605-24.105-10.506-37.121-9.397-29.383 2.406-28.191 30.117-28.304 52.707-1.075 14.157-4.046 28.164-8.673 41.586-3.682 12.006-19.705 34.4.646 39.098 22.074 1.619 42.924-10.393 62.734-18.693 1.333 5.764 3.332 11.191 5.305 15.455 12.374 20.838 14.679 45.412 25.16 66.947 8.188 15.572 29.498 33.982 48.211 26.896 2.741 4.309 6.629 8.363 11.084 11.355-22.482 10.859-111.199 47.096-126.275 19.338-33.432-73.801-63.307-149.158-95.081-223.676-13.269-21.913-.47-34.328 17.44-46.718 35.238-23.09 100.289-46.636 142.211-38.005 10.857 2.322 13.361 12.916 18.199 21.187 3.721 6.765 7.436 13.528 11.145 20.297 3.23 5.89 6.451 11.785 9.672 17.681.114 7.749.212 15.496.329 23.245z" fill="#00ebed"/><path d="m408.67 524.174c-5.377-9.82-10.75-19.645-16.141-29.458-3.547-6.453-6.313-14.016-12.754-18.146-25.818-13.606-67.199-.992-93.941 6.582-30.096 10.809-67.729 23.807-85.166 52.344-9.186 16.494 5.289 32.712 10.272 48.238 26.928 63.768 52.972 127.908 80.958 191.225 8.914 26.549 17.687 32.082 45.955 29.676 28.931-2.568 57.396-12.533 83.938-23.873 5.676-2.426 11.272-5.027 16.826-7.721 6.281 3.213 13.092 5.459 19.879 7.242 2.068.545 4.171.965 6.258 1.439-24.895 13.633-51.23 24.779-78.23 33.404-21.666 6.113-87.172 27.75-96.818-1.703-33.301-74.025-64.844-148.82-96.602-223.514-3.553-8.339-7.111-16.674-10.686-25.004-4.496-10.683-12.554-22.145-6.258-33.885 23.207-38.425 86.334-58.658 127.887-70.228 19.567-4.93 39.811-8.705 60.059-8.567 9.824.182 20.02.735 28.635 5.771 7.967 5.982 10.316 15.964 15.34 24.145.192 14.012.389 28.023.589 42.033z" fill="#ff1250"/><path d="m407.082 411.421c.207 15.253.434 30.506.646 45.758-2.311-3.323-4.966-6.312-8.287-8.545-23.99-13.251-53.822-7.451-79.58-3.159-45.178 9.051-145.654 40.645-157.168 90.367-1.621 10.157 2.664 18.304 6.598 27.449 7.672 17.851 15.283 35.728 22.883 53.61 29.648 69.256 58.604 138.977 89.924 207.438 1.313 2.383 3.059 4.434 5.057 6.221 13.371 31.043 26.938 62 40.789 92.832 10.408 32.174 53.248 21.26 78.375 16.57 57.136-14.689 115.396-38.66 160.391-77.541 17.943-16.734 26.716-31.609 12.39-54.486-7.221-15.836-8.556-13.609 8.269-12.219-2.238 20.453 8.072 38.805 21.823 53.459 4.027 4.293 8.359 8.295 12.852 12.125-6.943 9.932-16.273 18.25-25.625 25.801-62.464 48.131-184.873 103.264-264.191 99.457-14.646-1.475-24.688-6.627-28.432-20.865-8.908-21.467-17.792-42.941-26.666-64.42-48.48-117.33-96.492-234.852-144.758-352.27-11.869-22.864-10.613-37.066 7.965-56.108 49.065-50.207 198.962-102.36 266.745-81.474z" fill="#efefea"/><path d="m683.19 289.869c-.012-20.892-4.303-27.44-23.416-34.828-39.421-14.409-110.292-21.038-153.717-5.547-24.031 8.574-23.809 20.688-23.316 41.204.223 8.595.424 17.195.607 25.794 1.473 68.688 2.31 137.398 5.213 206.045.609 14.402 4.521 21.724 19.676 28.53 41.094 18.455 124.599 15.955 157.106 6.533 9.118-24.367 18.414-48.666 27.888-72.897-2.844-64.962-4.784-130.007-10.041-194.834zm-47.061 147.639c-20.51 14.642-1.1 44.872-19.453 60.855-13.453 11.889-38.045 13.551-52.961 3.497-20.633-12.905-5.104-40.906-19.236-57.024-8.514-7.737-19.265-13.028-25.736-22.995-40.17-56.347 15.835-131.359 80.985-121.067 66.706 8.263 94.622 97.744 36.401 136.734z" fill="#ff1250"/><path d="m559.009 482.339c-1.151-6.433-.808-13.02-1.147-19.533 4.015.242 8.042.389 12.083.43 5.565.063 4.231 3.066 4.351 8.313.217 9.387.639 18.759 1.271 28.136-8.673-2.548-14.903-8.108-16.558-17.346z" fill="#efefea"/><path d="m582.551 501.075c-.684-9.791-1.125-19.574-1.35-29.374-.2-9.094.131-8.545 5.281-8.84 1.741-.104 3.481-.22 5.22-.359 6.879-.542 5.284.933 5.448 8.032.225 9.809.664 19.602 1.34 29.398-5.167 1.321-10.629 1.725-15.939 1.143z" fill="#efefea"/><path d="m618.682 477.343c-.605 9.494-5.182 16.308-13.416 20.191-.575-8.804-.98-17.601-1.195-26.411-.201-7.938-1.465-9.667 4.57-10.562 3.402-.506 6.785-1.082 10.148-1.725-.249 6.159.282 12.426-.107 18.507z" fill="#efefea"/><path d="m560.234 397.569c-27.904 14.524-40.879-33.166-10.44-35.136 7.713.493 14.452 4.106 16.726 11.878 2.322 7.938 1.346 18.514-6.286 23.258z" fill="#ff1250"/><path d="m643.377 374.244c2.309 7.891 1.344 18.412-6.247 23.13-27.76 14.443-40.646-32.986-10.387-34.942 7.673.49 14.374 4.083 16.634 11.812z" fill="#ff1250"/><path d="m588.752 306.917c-63.555-1.876-105.66 81.237-51.941 123.37 9.372 6.56 18.706 13.38 20.325 25.569 20.769 1.332 42.055-.074 62.443-4.191 1.789-13.127 13.381-19.642 22.285-27.809 44.349-43.22 6.354-118.273-53.112-116.939zm-61.26 63.074c8.768-21.98 44.035-17.58 46.486 6.2 6.053 46.786-61.392 36.341-46.486-6.2zm50.727 68.511c-15.821-14.286 2.623-39.132 20.447-25.624 14.502 14.679-2.075 38.963-20.447 25.624zm59.883-33.852c-8.754 3.865-18.926 2.519-26.4-3.442-24.514-22.137 3.148-60.553 31.226-39.988 12.582 11.032 11.308 36.221-4.826 43.43z" fill="#efefea"/><path d="m596.683 429.667c-1.429 5.41-7.761 6.752-11.831 4.913-7.193-2.91-7.101-13.933-1.776-17.114 3.25-2.26 7.963-1.752 11.043.589 3.141 2.734 3.564 7.683 2.564 11.612z" fill="#ff1250"/><path d="m594.119 418.054c-3.08-2.341-7.793-2.849-11.043-.589-3.059 1.828-4.317 6.229-3.535 10.209 2.107-2.856 5.667-4.745 9.184-5.056 3.526-.308 6.44 1.651 8.363 4.356.25-3.3-.513-6.781-2.969-8.92z" fill="#ce064e"/><path d="m549.794 362.433c-13.204.854-18.228 10.313-17.419 19.562 2.787-9.724 11.867-15.949 22.914-13.475 5.268 1.182 8.945 4.048 11.676 7.723-.143-.65-.264-1.312-.445-1.932-2.274-7.771-9.013-11.384-16.726-11.878z" fill="#ce064e"/><path d="m637.188 449.018c6.297-9.988 17.291-16.822 24.909-25.711 6.712-7.832 9.845-18.224 11.446-28.201 3.438-21.418-2.385-44.64-12.943-63.283-10.749-18.977-30.11-29.993-50.705-35.279-44.745-11.486-93.575 11.504-107.768 56.678-7.243 23.055-2.625 49.713 9.844 69.962 8.577 13.929 23.281 20.472 29.629 36.332 4.594 11.478 3.57 24.722 12.484 34.157.92.971 2.035 1.738 3.252 2.37-10.658-14.252-.582-37.206-12.857-51.207-8.514-7.737-19.265-13.028-25.736-22.995-40.17-56.347 15.835-131.359 80.985-121.067 66.707 8.264 94.623 97.745 36.402 136.734-17.004 12.138-6.627 34.974-13.021 51.539 2.484-2.932 4.542-6.222 5.866-9.979 3.469-9.848 2.514-21.006 8.213-30.05z" fill="#ce064e"/><path d="m464.754 781.721c-2.087-.475-4.189-.895-6.258-1.439-1.6-.42-3.197-.873-4.792-1.35-16.333 10.469-35.206 17.988-51.954 24.578-21.813 8.588-45.19 13.441-68.491 15.518-11.118.992-22.71 1.691-32.761-3.957-8.25-4.637-12.33-14.545-15.555-22.881-15.922-41.164-36.158-80.342-53.598-120.898-11.68-27.154-23.41-54.896-38.014-80.851 31.681 74.517 63.15 149.132 96.373 222.981 9.646 29.453 75.152 7.816 96.818 1.703 27.001-8.624 53.337-19.771 78.232-33.404z" fill="#ce064e"/><path d="m643.377 374.244c-2.26-7.729-8.961-11.322-16.634-11.813-13.847.896-18.64 11.313-17.124 20.967 3.454-6.845 9.572-10.913 18.356-10.901 7.938.014 13.233 3.879 16.456 9.539.007-2.684-.344-5.361-1.054-7.792z" fill="#ce064e"/><path d="m665.342 557.602c9.118-24.367 18.414-48.666 27.888-72.897-.657-14.989-1.265-29.983-1.876-44.979-2.111 11.607-4.582 23.154-7.944 34.611-3.37 11.49-8.089 22.412-12.122 33.655-2.996 8.35-4.393 17.182-6.984 25.653-7.882 25.771-42.354 19.693-63.561 19.721-20.23.024-40.574-.859-60.593-3.897-10.396-1.579-20.913-3.884-30.563-8.158-8.764-3.884-12.24-8.897-15.186-18.091-2.643-8.248-4.848-16.876-6.729-25.673.295 8.331.535 16.663.889 24.992.609 14.402 4.521 21.724 19.676 28.53 41.093 18.455 124.598 15.955 157.105 6.533z" fill="#ce064e"/><path d="m296.538 475.045c-17.675 5.05-35.095 11.072-51.837 18.688-24.244 11.029-54.797 30.238-46.497 58.301-1.003-5.471-.626-10.989 2.464-16.539 17.438-28.537 55.07-41.535 85.166-52.344 26.742-7.574 68.123-20.188 93.941-6.582 6.441 4.131 9.207 11.693 12.754 18.146 5.391 9.813 10.764 19.638 16.141 29.458-.1-6.953-.195-13.911-.293-20.863-2.88-4.918-5.808-9.755-8.632-14.366-10.699-17.471-25.728-23.934-46.075-24.26-19.362-.309-38.664 5.085-57.132 10.361z" fill="#ce064e"/><path d="m258.776 478.77c18.343-8.412 37.449-15.243 56.985-20.732-3.926.865-7.836 1.779-11.715 2.755-41.553 11.569-104.68 31.803-127.887 70.228-3.665 6.836-2.457 13.575.074 20.123 15.859-34.308 47.05-56.093 82.543-72.374z" fill="#ff5c8e"/><path d="m498.498 270.124c8.027-13.89 29.234-16.199 43.414-17.42 13.803-1.187 27.775-.708 41.619-.78 22.394-.117 44.331 5.172 65.928 10.503 14.763 3.643 26.557 11.664 33.651 23.208-.628-17.578-5.586-23.732-23.337-30.593-39.421-14.409-110.292-21.038-153.717-5.547-24.031 8.574-23.809 20.688-23.316 41.204.223 8.595.424 17.195.607 25.794.688 32.078 1.246 64.157 1.932 96.234.803-12.586 1.586-25.174 2.472-37.755 1.228-17.418 1.212-34.863 1.821-52.307.587-16.787.266-37.558 8.926-52.541z" fill="#ff5c8e"/><path d="m704.565 451.463c-.107-18.958-.877-37.921-1.718-56.859-1.493-33.534-3.316-67.091-5.985-100.554-1.111-13.938-.882-30.229-10.031-41.591-7.174-8.909-21.842-11.94-32.098-14.954-15.865-4.661-32.379-6.908-48.805-8.423-31.012-2.865-91.506-8.687-114.894 19.676 4.198-2.663 9.446-4.914 16.021-6.885 47.33-14.187 123.755-9.521 166.042 11.922 5.956 3.447 12.084 8.183 14.42 14.925 2.768 12.17 2.543 25.084 3.886 37.537 3.796 54.127 5.786 108.362 8.075 162.571 1.711-4.338 3.456-8.662 5.176-12.995-.035-1.465-.08-2.963-.089-4.37z" fill="#95b418"/><path d="m653.992 588.221c1.06-2.889 2.139-5.771 3.207-8.659-20.689 3.49-42.115 4.057-62.471 4.019-28.613-.054-57.926-2.386-85.879-8.669-9.705-2.181-19.127-5.788-26.705-12.372-10.22-8.877-10.996-23.438-11.641-35.92-1.115-21.599-2.451-43.19-3.551-64.795-1.141-22.356-2.855-44.65-3.773-67.031-.711-17.273-1.837-34.519-4.578-51.548.686 26.917 1.367 53.831 2.161 80.745 1.112 37.91 2.431 75.813 4.083 113.706-1.752 24.782 5.693 31.475 27.794 39.849 51.394 17.249 108.014 17.829 161.353 10.675z" fill="#95b418"/><g fill="#d3d3c9"><path d="m800.278 355.751c-20.15 6.811-33.387 22.934-41.707 42.059-8.992 20.666-16.271 42.179-24.049 63.316-26.246 71.322-51.824 142.916-76.619 214.758-7.348 21.293-16.004 42.684-19.559 65.02-1.744 10.963-1.551 21.527 2.011 30.809-.007-.07-.032-.139-.038-.211 8.516-35.877 22.357-70.787 34.318-105.756-1.763-6.762.421-12.818 2.539-19.256 4.084-12.393 8.329-24.732 12.662-37.043 26.984-76.056 56.293-151.28 86.684-226.037 1.811-4.927 5.406-8.938 9.676-11.934 45.284-26.529 145.514-3.991 191.834 16.377 16.305 7.148 40.02 19.237 48.621 37.285-5.469-45.506-98.941-62.711-134.07-69.488-31.057-5.995-61.632-10.265-92.303.101z"/><path d="m536.81 430.287c9.372 6.56 18.706 13.38 20.325 25.569 20.769 1.332 42.055-.074 62.443-4.191 1.789-13.127 13.381-19.642 22.285-27.809 9.779-9.53 15.545-20.609 17.969-32.075-5.945 13.337-16.602 24.765-28.178 34.007-3.475 2.774-6.645 5.742-9.629 9.037-4.241 4.68-5.514 10.391-12.008 12.84-6.885 2.598-15.311 2.406-22.577 2.777-6.227.316-12.494.368-18.721.038-9.424-.501-10.737-10.447-15.771-16.568-6.744-8.198-18.354-11.927-26.016-19.289-5.363-5.151-9.885-11.825-12.98-19.006 3.036 12.721 10.3 24.821 22.858 34.67z"/><path d="m557.644 351.323c-14.898-5.077-30.477 6.092-33.875 20.411-1.549 6.53-.271 12.819 2.82 18.025-1.77-5.446-1.795-12.073.902-19.769 8.768-21.98 44.035-17.58 46.486 6.2.088.677.107 1.302.166 1.954 1.56-11.739-3.484-22.386-16.499-26.821z"/><path d="m636.785 351.966c-14.528-4.692-31.96 1.049-36.496 16.506-2.368 8.068-.252 16.86 4.518 23.71-10.615-21.882 13.593-48.927 38.119-30.962 5.491 4.814 8.341 12.322 8.471 19.857 2.488-11.454-3.266-25.445-14.612-29.111z"/><path d="m600.998 411.628c-6.935-8.718-20.182-8.395-27.099.092-5.396 6.625-5.372 17.245 1.019 22.807-9.211-14.381 7.484-33.976 23.748-21.648 5.416 5.48 6.491 12.298 4.766 17.998 3.404-5.902 2.228-13.392-2.434-19.249z"/><path d="m276.43 449.169c-27.573 8.655-54.071 20.83-77.712 37.521-14.825 10.47-31.992 24.504-34.029 42.916 18.023-46.123 111.916-75.465 155.172-84.132 25.758-4.292 55.59-10.092 79.58 3.159 3.321 2.233 5.977 5.222 8.287 8.545-.07-5.086-.143-10.173-.217-15.259-43.275-12.687-87.776-6.343-131.081 7.25z"/><path d="m622.041 861.3c-4.492-3.83-8.824-7.832-12.852-12.125-13.75-14.654-24.061-33.006-21.823-53.459-16.824-1.391-15.489-3.617-8.269 12.219 11.556 18.455 8.07 31.699-3.122 44.914.01.404.051.811.055 1.215.283 28.193-20.6 47.104-42.657 60.975-47.009 29.559-101.962 47.928-156.452 57.555-16.854 2.975-35.447 7.961-50.777-2.256-9.525-6.348-15.615-17.512-21.08-27.221-7.211-12.811-13.443-26.191-19.445-39.604-19.023-42.494-33.609-86.76-52.165-129.418-20.431-46.973-41.095-93.844-61.067-141.014-10.035-23.705-19.996-47.463-29.172-71.517-3.404-8.927-6.689-17.877-9.008-27.155-3.418-13.683-2.078-26.109 2.611-37.717-15.156 17.2-15.516 30.994-4.449 52.311 48.266 117.418 96.277 234.939 144.758 352.27 8.874 21.479 17.758 42.953 26.666 64.42 3.744 14.238 13.785 19.391 28.432 20.865 79.318 3.807 201.728-51.326 264.191-99.457 9.352-7.551 18.682-15.87 25.625-25.801z"/><path d="m575.566 499.683c-.32-4.738-.586-9.474-.797-14.212-1.951 5.565-6.651 7.857-11.322 2.826-2.179-2.348-3.615-5.435-4.756-8.445.104.83.169 1.662.317 2.486 1.656 9.239 7.886 14.799 16.558 17.345z"/><path d="m1011.166 591.475c-23.088 73.012-44.762 146.465-66.134 219.996-3.913 13.463-7.609 27.014-12.181 40.27-5.354 15.523-12.262 29.119-28.693 34.439-20.211 6.543-42.488 7.225-63.403 5.031-27.042-2.838-54.292-10.066-80.509-17.064-25.254-6.738-50.018-15.844-74.025-26.148-22.688-9.742-44.404-21.928-62.828-38.502-12.291-11.059-16.86-23.193-15.833-39.482.345-5.453 1.124-10.811 1.855-16.174-2.011 6.348-4.192 12.689-6.19 19.084-5.719 18.26-6.512 24.551 8.414 40.256 17.234 18.119 46.547 31.328 65.893 40.566 65.74 27.176 154.494 56.719 226.944 46.426 29.966-4.24 33.429-29.639 36.45-40.15 37.722-131.414 75.022-262.949 112.321-394.482-.632 1.763-1.267 3.53-1.897 5.289-14.32 39.894-27.404 80.233-40.184 120.645z"/><path d="m589.898 495.219c-3.775.443-6.291-2.343-8.045-6.235.199 4.029.416 8.06.697 12.091 5.311.582 10.772.178 15.939-1.143-.268-3.888-.469-7.773-.665-11.661-1.609 3.715-4.087 6.499-7.926 6.948z"/><path d="m618.682 477.343c.002-.027 0-.057.002-.083-.418.92-.861 1.837-1.4 2.755-2.15 3.645-8.51 11.891-12.638 4.245-.048-.085-.079-.195-.126-.283.205 4.52.452 9.037.746 13.558 8.234-3.885 12.81-10.698 13.416-20.192z"/><path d="m416.344 239.386c1.585 147.105 3.995 294.429 6.259 441.597.943 20.627-4.299 35.104 17.222 46.709 20.22 12.301 44.987 17.381 68.031 21.238 29.347 4.914 59.21 6.74 88.952 6.85 1.01-3.225 2.064-6.436 3.083-9.658-6.136.889-13.204.051-18.378-.199-11.077-.537-22.118-1.916-33.116-3.287-21.502-2.682-43.184-4.633-64.411-9.088-11.477-2.408-22.943-5.861-33.02-11.971-15.547-9.428-17.721-28.951-18.211-45.461-.174-5.836-.244-11.676-.371-17.514-1.491-67.642-2.978-135.285-4.244-202.935-.984-52.581-1.861-105.168-2.236-157.755-.115-15.916-.238-31.843.125-47.755.223-9.705.906-19.406 2.465-28.992 1.916-11.776 6.445-22.005 12.662-31.362-.631.326-1.302.623-1.916.96-23.37 12.881-23.113 28.431-22.896 48.623z"/></g><path d="m401.136 694.692c.359 17.316-1.742 34.283-10.953 47.518 7.801 6.988 17.751 11.904 26.969 9.033-7.514-17.477-4.342-37.207-5.815-55.873-.124-7.066-.238-14.137-.358-21.205-4.656-8.389-9.438-16.713-14.535-24.846 3.42 14.721 4.374 30.022 4.692 45.373z" fill="#ff9750"/><path d="m376.779 723.958c.449-23.018-4.49-45.738-12.561-67.23-4.094-10.896-8.887-26.207-6.547-38.537-2.098.484-4.051 1.467-5.699 3.154-11.006 14.912-.959 34.814 6.23 49.285 8.24 17.027 10.55 36.326 18.577 53.328z" fill="#ffc9a1"/><path d="m384.578 610.143c-5.68 1.814-11.448 1.396-17.045 1.662 4.816 1.104 9.811 3.482 14.592 7.398 9.414-5.447 18.727-11.121 27.701-17.281-.05-3.166-.1-6.334-.148-9.5-6.383 8.163-15.167 14.551-25.1 17.721z" fill="#ff564d"/><path d="m325.926 637.78c-10.58 7.162-34.434 17.072-48.025 9.525-3.06 10.051 8.014 14.531 31.811 6.891 10.535-3.734 20.769-8.262 30.858-13.057-.765-5.029-.562-9.48.351-13.344-4.999 2.987-9.839 6.495-14.995 9.985z" fill="#ff564d"/><path d="m327.933 607.362c-9.215 4.963-18.619 10.207-27.442 16.203-4.938 3.357-8.974 6.611-12.312 9.723 8.777-5.656 17.459-11.477 26.696-16.461 17.342-9.359 35.618-17.387 54.161-24.018 13.504-4.828 26.948-8.111 40.484-10.276-.047-3.071-.096-6.144-.143-9.215-28.323 8.142-55.471 20.195-81.444 34.044z" fill="#fbc471"/><path d="m499.99 700.85c34.942 11.725 73.617 13.717 110.336 12.814 10.146-30.889 20.712-61.639 31.654-92.252-7.345 9.32-15.082 18.336-23.57 26.881-16.846 16.953-35.276 34.406-59.341 39.475-22.673 4.771-47.883-.805-68.353-10.816-10.054-4.916-17.656-11.947-23.746-20.203.074 1.67.129 3.338.205 5.004-2.521 24.597 12.098 32.211 32.815 39.097z" fill="#abab38"/><path d="m588.277 623.145c-12.237.244-24.366-.729-36.74-3-17.347-3.182-34.601-12.15-52.143-13.545-6.818-.54-11.988 2.094-12.918 9.426-1.23 9.654-.98 24.076 3.299 33.096 8.994 18.963 36.979 20.57 54.847 17.682 19.916-3.223 37.073-13.625 50.46-27.91 9.586-10.233 4.373-15.971-6.805-15.749z" fill="#d7e338"/><path d="m877.701 712.561c11.822-.109 27.831.385 35.941-9.473 3.891-8.893 6.238-19.592 9.48-28.979 19.766-63.721 37.808-127.956 56.624-191.96 2.856-9.689 6.665-19.493 8.712-29.383 1.627-7.868-3.483-15.015-9.273-20.29-4.406-3.436-9.033-6.527-13.816-9.356 5.743 8.69 8.916 18.711 8.612 31.173-.667 27.287-9.781 55.52-17.362 81.525-7.092 24.338-14.602 48.535-21.549 72.92-6.482 22.75-13.139 45.926-22.707 67.607-6.305 14.285-15.778 22.943-31.57 24.381-18.453 1.68-38.754-.816-56.852-3.992-25.052-4.396-49.432-13.23-71.75-25.344-15.248-8.275-26.372-18.955-34.818-32.258-.767 2.287-1.588 4.557-2.343 6.846-1.55 16.588 24.195 28.135 36.651 34.826 39.255 18.427 82.637 29.962 126.02 31.757z" fill="#ef6200"/><path d="m807.114 408.921c-13.461 33.597-27.357 67.082-40.957 100.682 7.879-16.886 16.156-33.573 25.352-49.811 8.398-14.834 17.125-28.854 31.375-38.742 13.49-9.361 30.413-12.215 46.403-13.636 22.26-1.979 44.314-.481 66.298 2.175-23.682-8.125-49.303-11.781-73.617-13.706-15.974-.199-45.729-2.521-54.854 13.038z" fill="#facb1a"/><path d="m859.176 856.526c12.854-.438 29.404-1.197 38.115-11.789 4.518-9.039 6.485-19.643 9.961-29.234.763-2.412 1.492-4.836 2.25-7.252-8.471 7.914-17.99 14.768-28.732 20.258-33.514 17.133-69.917 10.418-104.69 1.342-34.737-9.07-68.177-18.955-96.231-42.477-12.912-10.824-20.634-24.959-21.628-41.842-.223-3.775-.083-7.541.252-11.299-3.235 10.078-6.449 20.16-9.708 30.23-6.438 19.533 16.764 33.012 30.789 42.07 54.489 30.185 117.206 48.72 179.622 49.993z" fill="#65b0b9"/><path d="m892.164 771.169c-5.847-3.139-12.424-3.686-18.932-4.246-16.068-1.381-32.133-2.955-48.088-5.336-30.32-4.527-61.375-12.92-89.541-25.037-13.024-5.602-24.443-13.625-35.426-22.502-11.432-9.244-16.141-1.719-16.734 6.969-.942 13.824 3.395 25.16 13.748 38.094 14.949 18.676 37.893 29.443 59.266 38.826 37.841 16.615 91.127 26.658 126.824-.516 5.467-4.162 20.411-20.067 8.883-26.252z" fill="#a6f4ff"/><path d="m916.387 563.835c-9.101 1.386-19.049 2.271-25.158-6.833-.398-.594-.682-1.264-.971-1.932-1.098 32.833-4.253 24.73 26.104 13.946 7.354-2.893 11.952-5.82 14.417-8.683-4.637 1.516-9.391 2.74-14.392 3.502z" fill="#f7b001"/><path d="m860.885 513.802c5.855 2.363 11.709 4.731 17.576 7.069 5.61 2.229 6.139 2.375 6.492-3.863.339-6.064.76-12.129 1.232-18.189-2.258 3.646-5.278 6.67-9.072 8.688-7.182 3.813-13.033-.155-14.546-6.304-1.262 1.341-2.505 2.701-3.771 4.036-4.485 4.731-3.627 6.259 2.089 8.563z" fill="#f7b001"/><path d="m793.808 518.797c1.528 4.664 4.065 10.396 7.825 17.427.977 2.13 1.979 4.248 2.986 6.362 2.795 5.849 4.279 5.518 9.201.081 5.914-6.535 11.975-12.938 18.046-19.328-3.618 2.076-7.481 3.767-11.837 4.975-11.55 3.198-19.81-1.755-26.221-9.517z" fill="#f7b001"/><path d="m873.094 655.022c2.108-.178 3.582-3.461 4.359-5.531 2.105-5.605 2.811-11.801 3.359-17.719.324-3.504.521-7.023.758-10.537-.984 1.35-2.021 2.672-3.137 3.953-11.859 13.602-25.209 4.324-34.98-7.033 6.383 11.359 13.145 22.521 21.968 32.082 1.821 1.82 4.904 5.02 7.673 4.785z" fill="#f7b001"/><path d="m775.915 603.907c-4.702 12.332 27.22 2.271 42.423-2.318 7.115-2.148 6.917-2.112 3.677-8.285-1.97-3.748-3.853-7.537-5.776-11.309-3.268 9.604-11.248 16.306-21.639 18.667-7.302 1.661-13.513-1.198-12.33-9.047-2.541 3.877-4.77 7.925-6.355 12.292z" fill="#f7b001"/><path d="m821.568 544.575c-2.077 2.258-4.185 4.491-6.237 6.773-4.674 5.181-3.58 6.227-.457 12.588 3.888 7.929 7.861 15.822 11.965 23.643 5.098 9.707 5.434 10.09 15.449 7.126 10.359-3.071 20.68-6.278 30.934-9.681 8.471-2.811 9.83-2.732 9.953-11.965.112-8.315.254-16.617.459-24.908-6.58 18.174-17.85 32.338-39.736 32.535-19.382.176-22.699-20.201-22.33-36.111z" fill="#f7b001"/><path d="m858.392 526.177c-5.86-2.469-8.3-.422-12.856 4.455-6.748 7.221-15.057 14.834-9.965 24.889 4.825 9.521 20.525 5.79 28.002 2.488 3.939-1.738 8.666-4.418 10.02-8.891 1.375-4.543 3.063-11.549-.732-15.486-3.953-4.098-9.378-5.31-14.469-7.455z" fill="#f8f383"/><path d="m799.912 577.102c-4.52 4.754-10.984 13.051-5.84 14.738 4.163 1.367 9.589-1.945 12.48-4.693 2.779-2.643 1.414-6.703-.485-10.04-2.205-3.884-3.317-2.984-6.155-.005z" fill="#f8f383"/><path d="m822.964 510.366c-4.298-1.621-10.153-2.966-13.834-3.413-4.38-.535-8.171 1.329-7.376 6.521 1.648 10.773 15.572 10.195 22.561 4.29 3.326-2.81 3.646-5.522-1.351-7.398z" fill="#f8f383"/><path d="m875.354 492.069c-4.133 3.834-9.278 9.451-5.172 11.131 7.789 3.18 9.965-4.464 9.909-9.543-.029-2.434.117-6.09-4.737-1.588z" fill="#f8f383"/><path d="m915.901 546.725c-1.929-.987-4.012-1.691-6.053-2.537-3.112-1.29-6.434-2.83-9.858-2.9-5.786-.117-4.776 9.829-3.216 13.042 2.813 5.784 12.27 2.454 16.658.599.72-.304 1.631-.659 2.541-1.091 4.535-2.136 3.965-5.051-.072-7.113z" fill="#f8f383"/><path d="m865.68 600.389c-3.895.967-7.768 2.429-11.055 4.169-6.266 3.317-4.219 8.972.449 12.909 5.254 4.432 12.363 6.666 16.137-.357 1.232-2.289 3.125-7.174 3.357-11.355.387-7.023-.427-7.456-8.888-5.366z" fill="#f8f383"/><path d="m968.147 860.891c-4.019 11.621-8.057 23.238-12.277 34.785-6.936 18.975-18.25 29.873-38.461 34.168-20.707 4.402-43.049 1.211-63.705-1.83-25.9-3.811-51.33-8.227-76.275-16.4-26.759-8.771-51.876-21.182-75.8-35.709-35.306-13.584-71.251-28.85-98.784-55.293 21.186 38.578 64.729 58.742 103.05 76.436 56.329 23.75 116.45 40.344 177.562 44.68 13.166.563 33.237 1.615 49.52-2.301 20.918-5.027 23.27-13.328 29.334-34.289 16.922-58.447 33.645-117.105 50.316-175.805-1.878 5.617-3.751 11.236-5.626 16.854-12.79 38.288-25.661 76.554-38.854 114.704z" fill="#999"/><path d="m483.095 773.714c34.576 6.133 70.24 7.818 105.128 10.576.577-3.271 1.522-6.508 2.552-9.729-19.549-.229-39.082-1.191-58.572-2.727-20.102-1.584-40.184-4.002-60.013-7.674-17.11-3.168-32.987-7.645-45.388-18.883 8.778 19.827 34.772 24.747 56.293 28.437z" fill="#999"/><path d="m622.469 878.817c-16.175 17.344-36.084 31.49-56.915 43.77-18.5 15.727-39.041 29.234-60.01 40.85-51.342 28.436-108.203 45.609-166.287 52.889-8.621 1.078-17.623 2.623-26.205.549-11.215-2.711-17.729-14.881-22.902-24.086-5.184-9.217-9.33-18.939-13.531-28.625-14.252-32.865-28.025-65.941-41.896-98.967-18.068-43.008-36.051-86.055-54.17-129.041-4.892-11.605-9.754-23.227-14.795-34.768-6.867-15.715-13.777-33.039-23.035-48.475 5.197 12.629 10.402 25.256 15.6 37.887 45.57 109.555 89.71 220.133 136.188 329.084 3.197 3.955 7.684 5.686 13.715 6.939 68.133 13.203 306.606-87.115 329.458-153.205-1.573-1.943-4.591-3.309-6.689-5.129-2.617 3.625-5.489 7.07-8.526 10.328z" fill="#999"/><path d="m1076.586 420.804c-.637 7.263-2.815 14.485-4.988 22.1-29.426 103.405-58.627 206.874-88.098 310.269 17.243-45.803 32.145-92.52 47.109-139.379 11.842-37.087 23.396-74.265 34.839-111.478 6.285-20.442 14.279-41.313 20.105-62.459-1.886-6.323-4.838-12.646-8.967-19.053z" fill="#cecece"/><path d="m116.238 540.065c-.775 3.721-1.629 7.535-2.395 11.382 25.699 58.118 48.418 117.69 73.324 176.104 17.846 41.846 36.098 83.549 55.74 124.586 3.648 7.625 7.32 15.332 11.09 23.025-46.036-111.653-91.697-223.462-137.759-335.097z" fill="#cecece"/><path d="m397.449 618.073c5.862 9.725 10.186 19.828 13.111 30.484-.207-12.787-.406-25.576-.604-38.363-5.15 3.641-9.282 6.08-12.507 7.879z" fill="#00afb3"/><path d="m903.246 740.802c13.02-1.582 27.608-4.092 30.075-17.766 16.539-51.795 32.345-103.82 47.865-155.929 8.507-28.549 16.943-57.118 25.468-85.663 3.765-12.6 8.438-25.23 11.383-38.045.848-3.684.543-7.319-1.203-11.646-1.126-2.117-2.453-4.099-3.869-6.015.679 6.847.517 13.831-.902 21.146-1.36 7.002-3.793 13.958-5.774 20.805-4.974 17.18-10.132 34.308-15.298 51.434-12.491 41.4-25.228 82.726-37.93 124.063-4.723 15.367-9.453 30.732-14.148 46.107-4.356 14.266-7.167 31.178-19.865 40.391-15.842 11.496-44.496 7.393-62.504 5.25-24.727-2.941-49.102-9.074-72.852-16.428-21.565-6.674-42.725-14.879-62.97-24.879-5.204-2.57-10.497-5.311-15.667-8.32 47.047 36.061 154.528 60.393 198.191 55.495z" fill="#00afb3"/><path d="m359.066 788.966c-16.139 5.104-32.795 6.564-48.986 4.465 23.633 16.992 100.74-14.602 121.488-24.621-4.455-2.992-8.343-7.047-11.084-11.355-18.713 7.086-40.023-11.324-48.211-26.896-10.481-21.535-12.786-46.109-25.16-66.947-1.973-4.264-3.972-9.691-5.305-15.455-18.859 7.902-38.662 19.139-59.563 18.809 2.287 1.088 4.83 1.816 7.639 2.055 14.092 1.201 26.961-2.285 40.369 4.326 13.236 6.525 22.164 21.859 27.156 35.164 4.328 11.539 4.963 23.965 10.619 35.076 2.328 4.57 5.971 8.258 9.795 11.578 5.027 4.359 17.248 8.211 12.467 17.113-5.101 9.506-21.839 13.723-31.224 16.688z" fill="#00afb3"/><path d="m409.207 562.158c-.117-7.749-.215-15.496-.328-23.245-3.221-5.896-6.441-11.791-9.672-17.681-.143-.263-.287-.526-.432-.787 1.926 13.485-.477 25.966-13.254 32.707-.881.465-1.783.86-2.684 1.252 8.675 3.05 17.456 5.779 26.37 7.754z" fill="#00afb3"/><path d="m785.453 430.518c-16.824 42.981-33.925 85.852-50.838 128.797-7.363 18.695-14.746 37.385-21.941 56.143-5.732 14.939-9.93 27.824-3.274 40.02-3.105-8.23.4-15.932 3.364-24.578 26.433-75.946 57.811-150.071 87.999-224.574 18.108-36.882 139.082-8.601 167.298 10.076 18.462 10.362 27.15 19.782 27.029 34.031.967-5.443 1.143-10.943-.349-16.621-2.736-10.428-15.979-17.58-24.558-22.431-25.522-14.426-57.529-22.458-86.207-27.002-22.992-3.647-52.349-5.804-73.927 4.985-14.993 7.494-18.982 26.819-24.596 41.154z" fill="#00afb3"/><path d="m256.806 672.323c-10.002-32.252-19.908-64.535-30.08-96.734-4.205-13.31-11.234-28.335-1.525-40.847 6.454-8.315 18.012-13.499 26.975-18.542 10.354-5.824 21.075-11.776 32.213-15.997 27.98-10.601 72.639-19.618 101.525-3.308-3.682-7.365-6.902-15.19-16.051-17.146-41.922-8.631-106.973 14.915-142.211 38.005-17.91 12.39-30.709 24.805-17.44 46.718 17.323 40.631 34.097 81.508 51.177 122.248-1.532-4.799-3.092-9.59-4.583-14.397z" fill="#88f9f9"/><path d="m565.258 793.899c-19.426-1.605-38.848-3.305-58.209-5.533-4.523-.521-9.058-1.07-13.588-1.662 15.652 11.57 37.867 12.119 55.582 20.389 21.281 9.938 16.604 30.525 4.437 46.244-9.841 12.717-24.169 21.088-37.946 28.83-49.58 27.865-104.771 52.135-162.217 55.018 20.441 3.826 41.74-1.65 61.613-6.482 29.404-7.838 57.976-19.201 85.121-32.908 23.238-11.736 47.193-25.271 65.611-43.979 14.891-15.281 18.227-24.088 7.129-43.16-2.51-5.585-5.02-11.173-7.533-16.757z" fill="#f55091"/><path d="m289.744 623.182c34.271-24.682 73.489-42.386 113.572-55.336-9.896-2.441-19.633-5.725-29.248-9.291 4.119 9.598-5.791 13.919-12.114 16.341-10.489 4.022-20.815 8.296-30.868 13.333-15.779 7.906-32.403 19.178-41.342 34.953z" fill="#f55091"/><path d="m470.472 815.876c-15.691 9.475-34.469 15.496-50.969 21.543-21.036 7.709-42.068 12.459-64.1 15.797-8.741 1.324-20.307 5.664-18.199 16.744 2.768 14.555 11.252 25.162 25.391 29.793 19.795 6.488 44.443-1.406 63.319-7.316 24.344-7.619 47.938-17.211 70.37-29.361 11.385-6.168 32.479-15.291 31.6-31.246-.594-10.801-16.086-16.512-29.305-20.479-7.905-2.374-21.327.433-28.107 4.525z" fill="#ffbcdf"/><path d="m333.099 554.685c-5.352-2.843-20.281-8.16-25.459-2.388-6.14 6.847-6.531 18.392-6.675 28.24-.087 5.975.679 6.112 4.872 2.582 9.229-7.768 23.984-7.54 33.618-14.83 6.355-4.807-2.301-11.449-6.356-13.604z" fill="#ffbcdf"/></g></g></svg>