<svg id="Stickers" height="512" viewBox="0 0 512 512" width="512" xmlns="http://www.w3.org/2000/svg"><path d="m504.917 387.683-109.285-329.175a21.08 21.08 0 0 0 -26.648-13.361l-62.536 20.766-19.457-6.7-2.221.73c-14.6-26.32-41.181-39.148-64.436-38.345h-17.547l-.011-.033c-18.718.011-11.772.022-37.219.022-5.441 0-33.43 1.341-48.981 27.774-5.676 9.639-15.368 21.199-27.495 32.822l-11.806-.1c-38.914.003-70.885 35.967-71.275 80.172-.383 44.545 31.2 81.081 70.417 81.425l20.552.171c21.743 0 41.79-11.226 55.066-29.577l86.9 261.712a21.048 21.048 0 0 0 26.647 13.362l225.973-75.028a21.066 21.066 0 0 0 13.362-26.637z" fill="#fff"/><path d="m166.23 32.331s-26.457-1.231-40.407 22.476-42.332 46.793-42.332 46.793l32.378 7.439a103.126 103.126 0 0 0 32.322-32.332c12.988-21.166 29.584-38.656 54.6-44.4z" fill="#ffb020"/><path d="m137.508 163.408c.268-30.564-16.379-56.689-39.818-66.469l.034-3.948-19.988-.175c-33.35-.291-60.66 30.841-61 69.536s26.423 70.3 59.773 70.592l19.988.174.034-3.947c23.609-9.371 40.71-35.199 40.977-65.763z" fill="#00abfe"/><ellipse cx="97.112" cy="163.055" fill="#a369f7" rx="70.066" ry="60.388" transform="matrix(.009 -1 1 .009 -66.786 258.737)"/><path d="m79.589 197.867s11.375-3.062 13.411-14.207 6.969-51.564 15.739-56.407l19.99 6.368s-12.942 20.424-17.945 57.737c0 0-.763 5.584-9.086 12.7z" fill="#fff"/><path d="m372.365 55.336-65.975 21.905-19.46-6.7-64.822 21.522-9.763 16.4-65.956 21.9a10.337 10.337 0 0 0 -6.558 13.077l109.288 329.166a10.337 10.337 0 0 0 13.077 6.558l225.976-75.028a10.349 10.349 0 0 0 6.558-13.077l-109.288-329.165a10.35 10.35 0 0 0 -13.077-6.558zm-87.565 32.634-48.742 16.183a4.332 4.332 0 0 1 -2.73-8.223l48.741-16.183a4.332 4.332 0 1 1 2.731 8.223z" fill="#ff605b"/><rect fill="#eae5db" height="332.637" rx="5.109" transform="matrix(.949 -.315 .315 .949 -70.602 114.92)" width="242.923" x="198.658" y="109.496"/><path d="m396.007 265.055a75.408 75.408 0 1 1 -95.321-47.786 75.031 75.031 0 0 1 95.321 47.786z" fill="#00abfe"/><path d="m396.952 309.534a75.42 75.42 0 0 1 -118.232 39.255 75.395 75.395 0 0 1 118.232-39.255z" fill="#c72f55"/><circle cx="315.308" cy="261.324" fill="#c72f55" r="30.005"/><path d="m271.444 384.501h176.54v21.141h-176.54z" fill="#00abfe" transform="matrix(.949 -.315 .315 .949 -106.163 133.472)"/><path d="m173.86 132.641h209.732v37.003h-209.732z" fill="#7ad001" transform="matrix(.949 -.315 .315 .949 -33.426 95.526)"/><path d="m228.761 179.024h124.588v18.501h-124.588z" fill="#b2aca3" transform="matrix(.949 -.315 .315 .949 -44.499 101.303)"/><path d="m235.5 99.2s-5.773-56.389-31.748-63.5c-6.759-1.849-37.521-3.367-37.521-3.367h54.357s47.141-2.886 62.535 51.952z" fill="#ffc269"/></svg>