<svg id="Layer_1" enable-background="new 0 0 512 512" height="512" viewBox="0 0 512 512" width="512" xmlns="http://www.w3.org/2000/svg"><g><path d="m311.939 222.255c-.938 0-1.848-.441-2.424-1.232-.784-1.074-.767-2.537.042-3.593l25.83-33.712c-8.1-12.796-12.37-27.538-12.37-42.773 0-44.171 35.936-80.106 80.106-80.106s80.106 35.936 80.106 80.106-35.936 80.106-80.106 80.106c-16.71 0-32.659-5.074-46.232-14.691l-43.942 15.72c-.331.119-.672.175-1.01.175z" fill="#4e2800"/><path d="m403.123 63.839c-42.585 0-77.106 34.522-77.106 77.106 0 15.885 4.808 30.645 13.042 42.913l-27.12 35.397 45.43-16.252c12.8 9.453 28.621 15.048 45.754 15.048 42.585 0 77.106-34.522 77.106-77.106.001-42.585-34.521-77.106-77.106-77.106z" fill="#fff"/><g><g><path d="m355.698 322.789c-2.813 0-5.574-.437-8.205-1.299-3.095-1.015-5.938-2.585-8.45-4.669-4.674-3.875-7.856-9.342-8.979-15.413-.669-.918-1.149-1.941-1.427-3.046l-6.667-26.434c-1.202-4.765 1.697-9.619 6.462-10.821.715-.18 1.45-.271 2.184-.271.94 0 1.871.148 2.765.441 2.925.959 5.12 3.311 5.872 6.292l1.544 6.125c1.336-1.047 2.761-1.973 4.254-2.765.192-.5.426-.985.698-1.445l15.297-25.896c1.712-2.898 4.882-4.699 8.274-4.699 1.002 0 1.991.158 2.94.469.656.215 1.292.503 1.892.858 3.096 1.829 4.792 5.095 4.714 8.443 1.772-1.697 4.124-2.652 6.592-2.652 1.016 0 2.025.162 2.999.481 1.171.384 2.245.984 3.192 1.784 4.03 3.406 4.539 9.456 1.134 13.487l-1.842 2.181c.541-.101 1.094-.152 1.653-.152.943 0 1.874.148 2.764.44 1.529.501 2.897 1.412 3.955 2.633 1.558 1.799 2.323 4.098 2.153 6.472-.17 2.375-1.256 4.541-3.055 6.099l-3.077 2.665c.455.069.904.176 1.345.32 1.891.62 3.5 1.9 4.53 3.605 1.149 1.903 1.488 4.14.955 6.297-.533 2.158-1.875 3.98-3.777 5.129l-17.901 10.81c-.831 1.442-1.791 2.822-2.856 4.107-5.415 6.527-13.614 10.424-21.932 10.424z" fill="#4e2800"/><g fill="#ffd9b9"><ellipse cx="356.958" cy="295.221" rx="25.518" ry="24.31" transform="matrix(.638 -.77 .77 .638 -98.156 381.51)"/><path d="m338.836 302.357c-3.41.86-6.871-1.207-7.731-4.617l-6.667-26.434c-.86-3.41 1.207-6.871 4.617-7.731 3.41-.86 6.871 1.207 7.731 4.617l6.667 26.434c.859 3.409-1.208 6.871-4.617 7.731z"/><path d="m350.416 280.4c-3.34-1.973-4.449-6.281-2.476-9.621l15.297-25.897c1.973-3.34 6.281-4.449 9.621-2.476 3.34 1.973 4.449 6.281 2.476 9.621l-15.297 25.897c-1.973 3.34-6.281 4.449-9.621 2.476z"/><path d="m361.529 283.923c-2.964-2.504-3.336-6.936-.833-9.9l19.411-22.975c2.504-2.964 6.936-3.336 9.9-.833 2.964 2.504 3.336 6.936.833 9.9l-19.411 22.975c-2.504 2.964-6.936 3.337-9.9.833z"/><path d="m367.155 294.709c-2.302-2.658-2.013-6.679.645-8.981l20.608-17.847c2.658-2.302 6.679-2.013 8.981.645 2.302 2.658 2.013 6.679-.645 8.981l-20.608 17.847c-2.657 2.302-6.679 2.013-8.981-.645z"/><path d="m367.963 306.096c-1.649-2.731-.772-6.283 1.959-7.932l21.175-12.787c2.731-1.649 6.283-.772 7.932 1.959 1.649 2.731.772 6.283-1.959 7.932l-21.175 12.787c-2.731 1.65-6.283.773-7.932-1.959z"/></g><g fill="#4e2800"><path d="m354.222 302.623c-.038-.013-.076-.028-.113-.047-.379-.195-.529-.66-.335-1.04 1.997-3.89 2.305-7.569.916-10.934-3.259-7.894-14.783-11.676-14.917-11.757-.001 0-.002-.001-.003-.001-.404-.132-.625-.567-.495-.972.131-.406.567-.628.973-.497.496.154 12.327 4.067 15.867 12.632 1.572 3.804 1.247 7.92-.967 12.233-.175.344-.571.5-.926.383z"/><path d="m373.675 307.477c-4.274-1.401-4.668-3.982-5.166-7.243-.353-2.315-.793-5.196-2.699-8.724-4.535-8.391-13.653-13.563-13.744-13.614-.372-.208-.505-.679-.297-1.051s.676-.508 1.051-.297c.39.218 9.603 5.446 14.349 14.228 2.034 3.764 2.496 6.792 2.867 9.225.486 3.185.752 4.929 4.223 6.041.002.001.005.002.007.002.402.132.624.563.496.968-.129.407-.563.631-.97.503-.039-.013-.078-.025-.117-.038z"/></g></g><path d="m269.173 416.256c-.983-.322-1.977-.682-2.954-1.071-37.567-14.941-57.525-55.086-59.677-59.615-.711-1.496-.075-3.286 1.422-3.997l19.414-9.226 19.379-9.297c.726-.348 1.523-.379 2.232-.146.747.245 1.397.78 1.766 1.543 3.648 7.53 16.791 28.533 33.572 35.207.001 0 .002.001.004.001.085.028.787.099 2.678-.835 13.327-6.577 32.039-35.835 39.257-61.385.451-1.594 2.108-2.522 3.703-2.071 0 0 41.461 11.715 41.5 11.728 1.521.498 2.39 2.112 1.951 3.666-7.926 28.053-31.704 75.706-64.726 92.003-13.102 6.466-26.768 7.674-39.521 3.495z" fill="#4e2800"/><path d="m270.108 413.405c-.933-.306-1.858-.641-2.781-1.008-36.502-14.517-55.975-53.695-58.076-58.115l38.837-18.457-19.419 9.229 19.385-9.299c3.789 7.821 17.493 29.659 35.163 36.687.537.213 1.791.711 5.118-.93 14.203-7.009 33.276-36.57 40.817-63.259l41.38 11.691c-7.78 27.538-31.023 74.265-63.167 90.129-12.43 6.133-25.25 7.267-37.257 3.332z" fill="#ebf2f2"/><path d="m353.634 366.168c-.401-.132-.792-.305-1.159-.516l-40.393-23.119c-2.921-1.672-3.992-5.426-2.388-8.369 4.499-8.255 8.366-17.195 10.886-25.173 1.023-3.233 4.377-5.043 7.635-4.122l44.796 12.655c.084.024.167.049.249.076 3.203 1.05 5.005 4.532 4.016 7.761-3.796 12.399-9.418 25.509-16.257 37.912-1.438 2.609-4.544 3.826-7.385 2.895z" fill="#4e2800"/><path d="m353.965 363.048-40.393-23.119c-1.518-.869-2.082-2.793-1.245-4.329 4.601-8.443 8.531-17.533 11.113-25.705.527-1.668 2.275-2.615 3.959-2.14l44.796 12.656c1.751.495 2.746 2.332 2.213 4.072-3.716 12.136-9.309 25.179-16.015 37.342-.868 1.573-2.869 2.115-4.428 1.223z" fill="#ebf2f2"/><g fill="#fff"><path d="m316.511 345.84s1.71 11.726 10.797 20.616c0 0-4.612-11.07-3.649-15.648l22.189 13.185s-25.262 46.472-57.777 45.667-31.961-54.417-31.961-54.417l23.786 18.558s-12.106 16.441-7.811 19.734 9.675-18.454 9.675-18.454-2.683 28.273 1.966 29.662c4.65 1.389-.138-29.91-.138-29.91s9.336 28.08 14.093 27.091-11.616-27.272-11.616-27.272 3.928-.097 6.58-2.452 7.535-7.004 7.535-7.004-7.856 17.483 7.367 27.939c-12.929-14.242 8.964-47.295 8.964-47.295z"/><path d="m329.066 309.444s-.604 30.263 24.401 33.214c0 0-22.89 5.076-27.847-22.7l-5.831 12.598s-1.964 5.446 7.534 10.351c9.498 4.904 27.606 14.69 27.606 14.69s9.898-11.892 13.564-32.095c0 0-13.928 23.915-26.892 4.173 0 0 10.585 13.886 21.883-6.651-13.602-6.042-34.418-13.58-34.418-13.58z"/></g></g><g><path d="m108.137 455.977c-1.386 0-2.592-.95-2.917-2.297-8.598-35.674 5.896-98.015 8.368-108.144-1.692-2.807-1.687-5.257-1.335-6.9.555-2.591 2.191-4.498 3.582-5.707-1.279-4.187-1.009-7.885.81-11.019 3.669-6.323 12.305-7.452 12.67-7.497.121-.015.244-.022.366-.022.067 0 .135.002.202.007 18.446 1.244 110.915 7.772 119.894 14.162 3.875 2.758 4.762 5.908 4.823 8.064.117 4.158-2.627 7.688-4.47 9.579 3.588 11.487 21.576 71.676 16.231 107.221-.221 1.468-1.482 2.554-2.967 2.554h-155.257z" fill="#4e2800"/><path d="m263.146 455.974h-154.71c-9.11-37.8 8.39-111.01 8.39-111.01-5.14-6.73 2.6-10.93 2.6-10.93-6.13-14.63 10.26-16.64 10.26-16.64s109.61 7.39 118.35 13.61-1.34 14.29-1.34 14.29 22.22 72.36 16.45 110.68z" fill="#ebf2f2"/><path d="m256.876 455.974h-15.12c11.2-12.92 9.68-23.39 9.68-23.39-3.37 9.07-13.6 17.62-21.95 23.39h-61.23l.25-4.12c57.54-17.53 82.93-58.21 82.93-58.21 9.9 29.67 6.95 54.05 5.44 62.33z" fill="#fff"/><path d="m188.276 366.198-16.362 3.83s-9.191 6.645-5.234 16.471c3.957 9.827.894 57.316.894 57.316s36.894-17.106 52.979-30.511 21.329-21.702 21.329-21.702-18.776-.894-24.584-13.532c0 0-2.861 15.447-27.696 19.532-.001.001-9.22-15.318-1.326-31.404z" fill="#fff"/><g fill="#4e2800"><circle cx="173.667" cy="379.799" r="8.731"/><circle cx="238.787" cy="371.068" r="8.731"/><circle cx="178.548" cy="437.161" r="8.731"/><circle cx="247.518" cy="434.387" r="8.731"/><path d="m157.402 456.034-2.998-.114c1.047-27.386 1.872-69.884-.146-74.718-1.234-2.957-1.019-6.375.606-9.625 2.459-4.918 7.873-8.958 14.127-10.543 9.897-2.508 39.135-11.244 39.429-11.332l.859 2.874c-.295.088-29.593 8.842-39.551 11.366-5.434 1.376-10.102 4.816-12.182 8.977-.869 1.739-1.665 4.387-.521 7.128 2.922 6.996.646 68.946.377 75.987z"/></g><g><path d="m207.675 358.294c-34.932-.001-83.882-11.833-93.245-19.926-10.283-8.888 0-17.463 0-17.463h136.983l.017 1.284c6.254 7.665 4.005 14.802-2.167 21.623-6.771 7.483-23.356 13.765-33.309 14.313-2.821.113-5.598.169-8.275.169-.002 0-.003 0-.004 0z" fill="#3c2415"/><path d="m207.675 354.011c-35.792-.001-83.432-11.296-91.885-18.106-2.623-2.112-3.946-4.356-3.931-6.667.02-3.066 2.352-5.606 3.404-6.597h134.266c.069.183.173.355.309.511 5.035 5.75 4.386 11.295-2.104 17.98-6.38 6.571-22.386 12.236-31.898 12.724-2.755.103-5.51.155-8.157.155z" fill="#ff1c1c"/><path d="m209.168 348.437c-34.617-.001-80.693-12.121-88.87-19.429-2.537-2.267-3.816-4.674-3.802-7.154.019-3.29 2.274-6.015 3.292-7.079h129.86c.067.196.167.381.298.548 4.869 6.171 4.242 12.121-2.034 19.294-6.171 7.051-21.652 13.13-30.852 13.654-2.664.11-5.329.167-7.89.167h-.002z" fill="#bd1414"/><g><path d="m192.253 391.625c-9.907-25.651 11.121-38.505 11.335-38.632l.445-.264 10.252 1.811.328.539c.184.303 4.436 7.578-1.772 22.049-6.268 14.61-18.695 15.363-19.221 15.388l-1.005.048z" fill="#3c2415"/><path d="m204.3 354.193s-20.343 12.081-10.746 36.929c0 0 12.009-.569 18.005-14.545 5.995-13.976 1.862-20.773 1.862-20.773z" fill="#bd1414"/><path d="m204.56 354.175s-16.645 10.874-9.173 32.598c0 0 9.745-.649 14.78-13.01s1.768-18.285 1.768-18.285z" fill="#ff1c1c"/><path d="m197.615 378.084c-.124-.022-.242-.052-.355-.091-.682-.234-1.124-.755-1.244-1.467-.312-1.851 2.008-5.56 2.476-6.285.208-.324.641-.417.964-.207.324.209.417.641.208.964-1.042 1.615-2.436 4.325-2.272 5.297.034.205.125.311.321.379.707.241 2.265-.244 3.468-1.349.651-.598 1.061-2.622 1.496-4.765.631-3.111 1.417-6.984 3.462-9.687 3.331-4.401 4.122-6.309 4.13-6.328.144-.356.548-.528.907-.386.357.143.531.547.389.904-.032.082-.835 2.056-4.314 6.652-1.853 2.449-2.604 6.149-3.207 9.122-.523 2.576-.935 4.61-1.919 5.514-1.389 1.275-3.214 1.961-4.51 1.733z" fill="#3c2415"/></g><g><path d="m242.156 388.388c6.317-26.763-16.268-36.629-16.497-36.725l-.477-.201-9.909 3.192-.251.579c-.141.325-3.361 8.112 4.761 21.601 8.201 13.619 20.615 12.671 21.139 12.623l1.002-.09z" fill="#3c2415"/><path d="m225.117 352.949s21.8 9.195 15.681 35.119c0 0-11.975 1.074-19.82-11.954s-4.677-20.325-4.677-20.325z" fill="#bd1414"/><path d="m224.857 352.966s17.972 8.503 13.532 31.043c0 0-9.742.685-16.416-10.873s-4.245-17.873-4.245-17.873z" fill="#ff1c1c"/><path d="m234.997 375.704c.12-.039.233-.084.34-.138.644-.325 1.011-.901 1.033-1.623.056-1.876-2.747-5.234-3.31-5.889-.251-.293-.692-.326-.983-.074-.292.251-.326.691-.075.984 1.253 1.457 3.003 3.952 2.973 4.938-.006.208-.081.325-.266.419-.667.335-2.277.067-3.619-.864-.726-.503-1.409-2.453-2.131-4.516-1.049-2.996-2.356-6.725-4.75-9.124-3.9-3.906-4.944-5.688-4.955-5.706-.191-.333-.615-.448-.951-.259-.334.191-.451.614-.262.948.043.077 1.108 1.923 5.18 6.002 2.17 2.174 3.418 5.737 4.421 8.6.869 2.48 1.555 4.44 2.653 5.201 1.548 1.073 3.45 1.505 4.702 1.101z" fill="#3c2415"/></g><g><path d="m215.295 365.44c-7.808.736-14.852-11.1-15.609-19.133-.9-9.546 7.335-10.322 12.785-10.836s13.684-1.289 14.584 8.257c.757 8.033-3.952 20.976-11.76 21.712z" fill="#3c2415"/><path d="m225.666 343.859c.708 7.509-3.711 19.552-10.501 20.192s-13.381-10.366-14.089-17.875 4.736-8.676 11.526-9.316 12.356-.51 13.064 6.999z" fill="#bd1414"/><path d="m225.583 342.984c.632 6.703-3.464 17.47-9.712 18.059s-12.283-9.223-12.915-15.926 4.379-7.76 10.627-8.349 11.369-.487 12 6.216z" fill="#ff1c1c"/><ellipse cx="219.413" cy="342.305" fill="#fff" rx="3.417" ry="5.053" transform="matrix(.575 -.818 .818 .575 -186.813 325.124)"/></g><g><path d="m285.256 292.194c-.18 1.41-.4 2.76-.71 4.08-.99 4.53-2.73 8.58-5.04 12.19-2.63 4.11-13.53 13.24-30.19 22.3-14.75 4.39-35.37 8.81-60.18 8.88-19.4.05-36.02-2.56-48.91-5.57-2.03-.57-4.02-1.22-5.98-1.93-14.71-5.32-27.14-14.05-32.42-19.25-3.11-3.06-5.92-6.47-8.32-10.3-.48-.76-.95-1.54-1.4-2.34-1.41-2.51-2.65-5.2-3.69-8.06-.81-2.24-1.52-4.53-2.07-6.82-1.1-4.34-1.74-8.76-1.94-13.19-2.07-42.85 35.74-87.37 96.2-89.26 1.34-.04 2.68-.07 4.03-.07 4.84 0 9.6.29 14.24.84 37.87 4.43 67.66 26.58 72.66 59.07 1.48 9.56 5.13 16.65 8.35 23.56 2.22 4.82 4.22 9.54 5.13 14.93.57 3.33.72 6.91.24 10.94z" fill="#ffd9b9"/><path d="m134.246 332.144c-14.71-5.32-27.14-14.05-32.42-19.25-3.11-3.06-5.92-6.47-8.32-10.3-.48-.76-.95-1.54-1.4-2.34 2.83-.88 6.03-2.54 8.61-5.68 0 0 7.26 23.41 27.61 33.79 2.65 1.35 4.58 2.62 5.92 3.78z" fill="#e0ae84"/><path d="m140.224 335.378c-.118 0-.236-.015-.354-.048-17.591-4.962-32.935-15.582-38.956-21.509-3.313-3.266-6.177-6.812-8.513-10.541-2.097-3.319-3.849-6.9-5.207-10.639-.859-2.371-1.569-4.714-2.111-6.966-1.103-4.348-1.768-8.873-1.972-13.433-.991-20.516 7.181-41.75 22.421-58.253 18.405-19.931 45.052-31.425 75.032-32.364 6.158-.198 12.389.06 18.468.779 39.921 4.666 68.886 28.283 73.79 60.167 1.305 8.451 4.352 14.934 7.298 21.202l.94 2.007c2.13 4.618 4.286 9.596 5.234 15.262.637 3.704.719 7.406.25 11.312-.195 1.571-.434 2.948-.729 4.213-.979 4.484-2.735 8.73-5.213 12.602-4.874 7.634-19.751 19.525-30.912 22.839-.686.204-1.41-.189-1.615-.876-.204-.687.188-1.41.876-1.615 10.647-3.161 24.823-14.482 29.462-21.747 2.312-3.614 3.95-7.576 4.868-11.777.278-1.192.5-2.481.684-3.955.439-3.649.363-7.105-.232-10.563-.897-5.355-2.977-10.152-5.03-14.605l-.934-1.994c-3.025-6.436-6.153-13.089-7.515-21.911-4.721-30.697-32.797-53.456-71.526-57.982-5.952-.704-12.042-.954-18.082-.762-29.281.917-55.278 12.115-73.206 31.53-14.771 15.995-22.692 36.541-21.734 56.37.197 4.388.835 8.738 1.9 12.931.521 2.173 1.204 4.423 2.031 6.703 1.292 3.563 2.963 6.975 4.963 10.14 2.232 3.563 4.968 6.951 8.136 10.074 5.829 5.738 20.718 16.029 37.839 20.858.69.195 1.092.913.898 1.603-.162.573-.683.948-1.249.948z" fill="#4e2800"/></g><path d="m92.681 236.898c-.373 0-.746-.074-1.098-.225-.808-.346-1.406-1.052-1.614-1.906l-14.394-59.159c-.15-.618-.085-1.268.185-1.844.2-.426 5.046-10.572 18.527-21.924 12.293-10.352 34.488-23.755 70.418-28.816 10.889-1.534 21.634-2.312 31.937-2.312 47.838 0 72.419 16.321 73.443 17.016.873.593 1.337 1.629 1.198 2.675l-9.764 73.619c-.115.866-.628 1.628-1.388 2.059-.426.242-.901.364-1.379.364-.374 0-.748-.075-1.101-.227-15.755-6.764-33.529-10.194-52.83-10.194-57.23 0-110.217 30.193-110.745 30.498-.43.251-.912.376-1.395.376z" fill="#4e2800"/><path d="m78.287 174.949 14.394 59.159s91.116-52.633 166.071-20.451l9.764-73.619s-35.139-23.868-103.422-14.249-86.807 49.16-86.807 49.16z" fill="#ebf2f2"/><path d="m85.68 193.475 9 35.681 11.362-5.936-9.064-33.958z" fill="#fff"/><path d="m106.042 184.751 9 35.681 11.484-5.479-9.186-34.415z" fill="#fff"/><path d="m128.027 176.24 9 35.681 11.942-3.761-9.644-36.132z" fill="#fff"/><path d="m193.782 310.786s7.837 21.612 22.324 21.018 22.68-26.005 22.68-26.005l-17.334-18.176z" fill="#4e2800"/><path d="m236.39 306.316c-.691 1.877-2.239 5.783-4.535 9.871-1.618 2.881-3.607 5.86-5.937 8.281-2.818 2.958-6.146 5.093-9.899 5.246-.167.007-.328.007-.495.007-10.534 0-17.329-13.876-19.227-18.306l2.149-1.8h.007l9.613-8.058 13.227-11.071z" fill="#69273c"/><path d="m225.918 324.468c-2.818 2.958-6.146 5.093-9.899 5.246-.167.007-.328.007-.495.007-10.534 0-17.329-13.876-19.227-18.306l2.149-1.8h.007c4.046-.656 12.425-1.074 19.792 4.611 4.13 3.189 6.411 7.124 7.673 10.242z" fill="#ff6892"/><g fill="#4e2800"><ellipse cx="164.026" cy="256.165" rx="16.266" ry="8.32" transform="matrix(.073 -.997 .997 .073 -103.385 401.134)"/><ellipse cx="248.892" cy="256.165" rx="8.32" ry="16.266" transform="matrix(.997 -.073 .073 .997 -17.964 18.771)"/></g><ellipse cx="136.951" cy="283.55" fill="#fac" rx="18.692" ry="9.416"/><ellipse cx="258.393" cy="283.55" fill="#fac" rx="18.692" ry="9.416"/><g fill="#4e2800"><path d="m226.548 290.186s-15.283-16.483-45.025-11.452-27.275 18.715-42.758 17.928-10.233-11.819-4.894-12.039c0 0-7.416-.422-8.991 7.844-1.575 8.265-1.938 29.717 46.034 30.144 47.973.425 55.634-32.425 55.634-32.425z"/><path d="m211.626 290.802s12.399-17.626 39.432-14.938 25.895 16.52 39.701 14.524 8.241-12.581 3.442-12.383c0 0 6.609-1.001 8.667 7.115 2.058 8.115 4.061 29.47-38.874 33.648-42.936 4.178-52.368-27.966-52.368-27.966z"/><ellipse cx="222.579" cy="276.85" rx="30.487" ry="24.318"/></g><path d="m250.036 276.014c0 1.3-.13 2.57-.39 3.81-2.28 11.16-14.42 19.67-29.05 19.67-16.26 0-29.44-10.51-29.44-23.48 0-2.25.4-4.42 1.14-6.48 3.52-9.82 14.86-17 28.3-17 16.26 0 29.44 10.51 29.44 23.48z" fill="#e0ae84"/><path d="m250.036 276.014c0 1.3-.13 2.57-.39 3.81-3.93 8.5-15.03 14.63-28.11 14.63-16.36 0-29.63-9.6-29.63-21.44 0-1.18.13-2.35.39-3.48 3.52-9.82 14.86-17 28.3-17 16.26 0 29.44 10.51 29.44 23.48z" fill="#ffd9b9"/><ellipse cx="235.41" cy="263.783" fill="#fff" rx="5.027" ry="10.864" transform="matrix(.504 -.864 .864 .504 -111.064 334.174)"/><path d="m143.437 236.898c-.83 0-1.673-.198-2.457-.616-2.55-1.359-3.515-4.528-2.156-7.078 5.026-9.428 14.524-15.187 25.408-15.404 10.565-.214 20.091 4.753 24.893 12.954 1.46 2.493.622 5.699-1.871 7.159-2.493 1.459-5.699.622-7.159-1.871-2.845-4.859-8.992-7.936-15.653-7.779-7.146.143-13.117 3.738-16.383 9.865-.942 1.765-2.752 2.77-4.622 2.77z" fill="#4e2800"/><path d="m270.625 236.898c.83 0 1.673-.198 2.457-.616 2.55-1.359 3.515-4.528 2.156-7.078-5.026-9.428-14.524-15.187-25.408-15.404-10.565-.214-20.091 4.753-24.893 12.954-1.46 2.493-.622 5.699 1.871 7.159 2.493 1.459 5.699.622 7.159-1.871 2.845-4.859 8.992-7.936 15.653-7.779 7.146.143 13.117 3.738 16.383 9.865.942 1.765 2.752 2.77 4.622 2.77z" fill="#4e2800"/><g fill="#4e2800"><path d="m80.153 200.485c-23.628 0-42.984-12.46-49.312-31.743-8.401-25.599 9.516-54.549 39.94-64.533 6.921-2.271 14.02-3.423 21.099-3.423 23.628 0 42.984 12.459 49.312 31.743 4.1 12.493 2.142 26.114-5.512 38.352-7.553 12.076-19.78 21.374-34.429 26.181-6.92 2.271-14.019 3.423-21.098 3.423z"/><path d="m159.452 177.333c-15.879 0-31.182-4.633-43.091-13.046-12.205-8.622-20.324-20.882-22.861-34.52-6.075-32.662 20.62-65.119 59.508-72.352 5.17-.962 10.416-1.449 15.592-1.449 15.879 0 31.182 4.633 43.091 13.046 12.205 8.622 20.324 20.882 22.861 34.52 6.075 32.662-20.62 65.119-59.508 72.352-5.171.961-10.417 1.449-15.592 1.449z"/><path d="m258.279 179.888c-5.799 0-11.658-.707-17.412-2.102-33.597-8.144-55.36-37.752-48.513-66.002 5.504-22.707 28.506-38.566 55.937-38.566 5.799 0 11.658.707 17.412 2.102 33.597 8.144 55.36 37.752 48.513 66.002-5.503 22.707-28.505 38.566-55.937 38.566z"/></g><g fill="#ebf2f2"><ellipse cx="86.017" cy="150.636" rx="55.28" ry="46.072" transform="matrix(.95 -.312 .312 .95 -42.681 34.33)"/><ellipse cx="164.026" cy="116.649" rx="68.944" ry="57.46" transform="matrix(.983 -.183 .183 .983 -18.565 31.961)"/><ellipse cx="253.286" cy="126.553" rx="49.926" ry="59.905" transform="matrix(.236 -.972 .972 .236 70.629 342.899)"/></g><g><g><path d="m98.426 262.512s-12.357-14.181-28.505-7.531c-16.149 6.65-23.791 31.85-3.374 43.648s34.346-3.897 34.346-3.897z" fill="#ffd9b9"/><path d="m81.587 304.498c-4.675 0-9.994-1.219-15.792-4.569-8.905-5.146-13.652-13.507-13.022-22.94.68-10.189 7.341-19.591 16.576-23.394 16.948-6.978 30.077 7.783 30.207 7.933.544.624.479 1.57-.145 2.114-.623.545-1.57.481-2.116-.142-.477-.545-11.867-13.283-26.804-7.131-8.074 3.325-14.129 11.886-14.725 20.82-.559 8.37 3.536 15.523 11.53 20.143 19.135 11.058 32.343-3.446 32.474-3.594.55-.619 1.499-.676 2.118-.126.62.55.676 1.498.126 2.118-.107.119-7.981 8.767-20.427 8.768z" fill="#4e2800"/></g></g><path d="m89.012 271.351s-7.736-5.621-13.417-2.876-12.511 7.021-6.128 16.213c6.383 9.191 19.778 5.732 22.495 2.036-4.761-.555-8.11-4.431-7.964-8.398.109-2.913 2.091-5.618 5.014-6.975z" fill="#e0ae84"/><path d="m94.37 277.86c-4.381-3.585-8.802-8.414-14.057-8.832-2.442-.068-4.943.784-7.14 1.771-2.298 1.13-4.442 3.029-6.08 6.08h-.4c.056-1.688.539-3.307 1.3-4.797 2.408-4.41 7.585-7.058 12.53-7.047 3.402.185 6.423 2.127 8.732 4.498 2.319 2.369 4.124 5.166 5.48 8.165z" fill="#4e2800"/><path d="m89.242 271.543c-4.245 5.763-4.028 11.869 3.134 14.857 0 0-.115.277-.115.277-6.819 1.282-11.174-6.415-7.449-11.953 1.028-1.538 2.376-2.771 4.2-3.373z" fill="#4e2800"/><path d="m196.297 325.986s8.111 9.617 19.906 8.255c0 0-1.566 2.638-8.545 2.979s-11.361-11.234-11.361-11.234z" fill="#e0ae84"/><ellipse cx="263.75" cy="123.505" fill="#fff" rx="42.321" ry="48.2" transform="matrix(.367 -.93 .93 .367 52.18 323.644)"/><ellipse cx="82.783" cy="148.482" fill="#fff" rx="46.172" ry="37.78" transform="matrix(.92 -.392 .392 .92 -51.561 44.311)"/><ellipse cx="164.026" cy="111.806" fill="#fff" rx="61.001" ry="51.051" transform="matrix(.986 -.165 .165 .986 -16.228 28.657)"/></g><path d="m121.744 335.378s16.149 17.161 40.787 23.927c-9.064.447-9.447 2.681-9.447 2.681-6.133-2.267-13.001-5.28-20.234-9.319-4.554-2.543-8.657-5.161-12.319-7.723-1.799-1.587-2.539-3.989 1.213-9.566z" fill="#fff"/></g><path d="m138.965 392.564s.851 5.177 11.404 7.22c0 0-4.005 4.255-9.577 4.085 0 0 1.577 4.255 8.726 2.383l.851 49.722h-19.699z" fill="#fff"/><g><g><path d="m138.211 351.361-.16 1.49-2.71 25.87-.16 1.48c-2.8 14.14-8.94 75.83-8.94 75.83h-47.95c-.06-16.59 3.42-78.71 13.67-102.2s39.17-20.22 46.25-2.47z" fill="#ebf2f2"/><g fill="#4e2800"><path d="m136.651 380.491c-2.69 13.57-8.57 72.13-8.91 75.54h-3.08l.22-1.5c.94-9.34 6.24-61.57 8.83-74.62.15-.77.86-1.28 1.63-1.19.04-.01.09 0 .13.01.81.16 1.34.95 1.18 1.76z"/><path d="m138.761 352.751c-.23.09-.47.12-.71.1-.53-.05-1.02-.4-1.24-.94-3.15-7.92-11.17-13.13-20.42-13.28-10.06-.18-18.67 5.74-23.05 15.8-10.03 22.99-13.4 82.95-13.55 100.1v1.5h-3c-.06-14.97 3.26-78.66 13.8-102.8 4.82-11.05 14.29-17.6 25.39-17.6h.46c10.46.17 19.55 6.12 23.16 15.17.31.77-.07 1.64-.84 1.95z"/></g></g><g fill="#fff"><ellipse cx="111.859" cy="357.351" rx="19.484" ry="14.426" transform="matrix(.792 -.611 .611 .792 -194.929 142.657)"/><path d="m97.475 368.492s6 11.365 19.021 11.307 14.809-5.654 14.809-5.654l-2.426 19.498s-11.419 9.204-23.071 13.034-14.971-3.809-14.971-3.809 1.423 12.49 17.414 9.597 19.395-8.34 19.395-8.34l-2.468 18.809s-18.477 6.143-22.643 5.497-6.804-4.161-6.804-4.161 1.106 8.366 10.723 9.302 17.702-3.66 17.702-3.66l-2.553 25.915h-39.192l1.021-19.787s8.773 15.879 26.936 14.043c-17.617-3.447-25.149-21.574-25.532-26.809s1.021-14.043 1.021-14.043 8.553 13.787 19.277 14.043 15.319-4.979 15.319-4.979-13.532 5.362-25.149-2.681-6.894-25.404-6.894-25.404 3.319 10.723 15.319 8.426c12-2.298 17.362-8.17 17.362-8.17s-26.11 10.702-30.766-5.281 6.693-36.289 13.399-39.759c6.706-3.472-6.249 23.066-6.249 23.066z"/></g></g><g fill="#00d4ff"><path d="m436.054 104.121c-8.605 26.368-17.21 52.737-25.854 79.223-1.568 4.805-6.7 7.02-11.464 5.725-4.609-1.375-7.099-6.856-5.646-11.309 2.409-7.383 4.819-14.767 7.152-21.915-10.385-2.352-20.808-4.586-31.192-6.937-1.523 5.857-2.928 11.753-4.333 17.648-1.061 4.84-6.934 6.944-11.309 5.646-4.882-1.334-6.748-6.741-5.685-11.191 5.733-24.323 12.208-48.534 19.62-72.439 1.413-4.726 6.662-6.903 11.192-5.684 4.881 1.334 7.216 6.893 5.919 11.268-3.937 12.46-7.484 24.919-10.952 37.532 10.93 2.27 21.549 4.698 32.324 7.047 4.398-13.477 8.72-26.72 13.118-40.197 1.53-4.688 6.544-6.942 11.191-5.685 4.765 1.295 7.335 6.932 5.919 11.268z"/><path d="m422.178 190.753c-4.647-1.257-7.334-6.932-5.763-11.347 4.981-13.676 10.119-27.431 15.021-41.262 1.685-4.766 6.466-7.097 11.192-5.684 4.53 1.219 7.255 6.776 5.684 11.192-5.02 13.793-9.923 27.624-14.904 41.3-1.686 4.766-6.428 6.979-11.23 5.801zm17.914-77.145c1.412-4.726 6.893-7.216 11.229-5.801 4.805 1.568 7.059 6.583 5.646 11.309-1.257 4.647-6.738 7.138-11.192 5.684-4.687-1.53-6.941-6.546-5.683-11.192z"/></g></g></svg>