<svg id="Capa_2" enable-background="new 0 0 453.543 453.543" viewBox="0 0 453.543 453.543" xmlns="http://www.w3.org/2000/svg"><g><path d="m183.323 453.543c-5.3 0-10.863-.668-16.676-2.221-25.465-6.808-38.542-25.834-46.181-40.646-16.55.761-39.489-1.009-58.037-19.558-18.548-18.547-20.332-41.49-19.56-58.037-14.814-7.64-33.842-20.717-40.646-46.184-6.808-25.467 3.382-46.275 12.35-60.122-8.968-13.847-19.158-34.656-12.351-60.125 6.807-25.465 25.833-38.542 40.646-46.181-.774-16.546 1.011-39.49 19.556-58.037 18.548-18.548 41.489-20.328 58.04-19.559 7.639-14.814 20.715-33.841 46.179-40.647 25.471-6.809 46.279 3.381 60.127 12.35 13.848-8.971 34.654-19.162 60.128-12.35 25.463 6.806 38.539 25.832 46.177 40.646 16.553-.769 39.49 1.01 58.037 19.556 18.549 18.549 20.333 41.492 19.559 58.04 14.814 7.639 33.841 20.716 40.647 46.18 6.807 25.471-3.382 46.28-12.35 60.127 8.969 13.847 19.159 34.658 12.35 60.128-6.807 25.462-25.833 38.539-40.646 46.177.774 16.547-1.011 39.491-19.557 58.037-18.546 18.547-41.49 20.325-58.039 19.56-7.64 14.814-20.718 33.842-46.184 40.646-25.464 6.805-46.276-3.383-60.122-12.35-10.685 6.919-25.524 14.568-43.447 14.57zm31.446-90.104v.001zm-65.705-58.958c8.891 1.02 18.389 3.541 27.745 8.954 9.284 5.372 16.155 12.295 21.434 19.438 8.224-3.546 17.719-6.095 28.529-6.095s20.304 2.549 28.529 6.095c5.278-7.142 12.148-14.065 21.428-19.436 9.358-5.414 18.86-7.936 27.751-8.957 1.02-8.889 3.541-18.389 8.954-27.745 5.372-9.284 12.295-16.155 19.438-21.434-3.546-8.224-6.095-17.719-6.095-28.529s2.549-20.305 6.096-28.53c-7.144-5.278-14.068-12.148-19.439-21.433-5.413-9.354-7.934-18.856-8.955-27.745-8.889-1.02-18.389-3.541-27.745-8.954-9.284-5.372-16.155-12.294-21.433-19.438-8.224 3.546-17.72 6.095-28.529 6.095-10.81 0-20.306-2.549-28.53-6.096-5.279 7.144-12.149 14.068-21.433 19.439-9.355 5.413-18.856 7.935-27.746 8.955-1.02 8.889-3.54 18.389-8.953 27.745-5.372 9.284-12.294 16.155-19.438 21.433 3.545 8.225 6.095 17.72 6.095 28.529 0 10.81-2.549 20.306-6.096 28.53 7.143 5.278 14.068 12.147 19.438 21.429 5.414 9.359 7.936 18.859 8.955 27.75zm-58.959-65.705v.001zm0-24.008-.001.001zm273.333-.001h.001zm-58.053-100.508v.001zm-66.611-24.155.001.001zm-24.006 0v.001z" fill="#00b494"/><g fill="#009679"><path d="m402.163 358.044c-24.695-5.439-47.726-13.691-70.919-23.726-15.664-6.778-30.785-15.38-44.874-25.463-3.21 1.232-6.434 2.726-9.641 4.581-9.281 5.371-16.151 12.294-21.428 19.436-8.224-3.546-17.719-6.095-28.529-6.095-10.809 0-20.304 2.549-28.529 6.095-5.279-7.143-12.15-14.066-21.434-19.438-9.356-5.413-18.855-7.934-27.745-8.953-1.019-8.891-3.542-18.391-8.956-27.75-5.371-9.282-12.295-16.152-19.438-21.429 3.548-8.225 6.096-17.72 6.096-28.53 0-10.809-2.549-20.304-6.095-28.529 7.144-5.278 14.067-12.148 19.438-21.433 5.413-9.356 7.934-18.856 8.953-27.745 7.407-.849 15.236-2.769 23.053-6.507-13.926-44.006-11.718-88.671-11.51-134.115.007-1.455.064-2.893.152-4.321-21.621 7.97-33.27 25.127-40.293 38.747-16.551-.769-39.492 1.012-58.04 19.56-18.545 18.548-20.329 41.491-19.556 58.037-14.814 7.639-33.84 20.715-40.646 46.181-6.807 25.469 3.383 46.278 12.351 60.125-8.968 13.847-19.158 34.656-12.35 60.122 6.804 25.467 25.833 38.545 40.646 46.184-.772 16.547 1.012 39.491 19.559 58.037 18.549 18.549 41.488 20.319 58.038 19.558 7.639 14.813 20.715 33.839 46.181 40.646 5.812 1.553 11.376 2.221 16.675 2.221 17.923-.002 32.762-7.651 43.449-14.572 13.847 8.967 34.658 19.154 60.123 12.35 25.467-6.805 38.545-25.833 46.184-40.646 16.549.766 39.493-1.013 58.039-19.56 9.88-9.88 14.977-21.005 17.49-31.749-2.147-.442-4.302-.847-6.444-1.319z"/><path d="m90.105 214.768-.001.001z"/><path d="m90.105 214.768-.001.001z"/></g><path d="m121.163 43.8c8.157.673 16.043 3.757 22.479 8.819.868.683 2.105-.537 1.227-1.228-6.827-5.369-15.047-8.613-23.706-9.327-1.114-.091-1.108 1.645 0 1.736z"/><path d="m42.152 120.563c1.989 7.595 5.082 14.869 9.171 21.571.581.952 2.083.081 1.499-.876-4.017-6.583-7.042-13.697-8.996-21.157-.283-1.079-1.958-.621-1.674.462z"/><path d="m15.169 226.749c16.308-19.225 40.8-30.542 66.016-30.45 1.117.004 1.118-1.732 0-1.736-25.639-.094-50.654 11.402-67.244 30.958-.718.848.504 2.082 1.228 1.228z"/><path d="m42.45 333.048c6.615 5.561 14.93 8.767 23.572 9.047 1.117.036 1.116-1.7 0-1.736-8.158-.265-16.093-3.284-22.344-8.539-.851-.714-2.085.508-1.228 1.228z"/><path d="m210.124 32.381c4.24-7.348 10.707-13.213 18.413-16.755 1.014-.466.133-1.962-.876-1.499-7.958 3.657-14.66 9.794-19.036 17.377-.559.97.94 1.845 1.499.877z"/><path d="m331.567 43.023c5.626 10.43 9.391 21.74 11.172 33.455.168 1.101 1.84.633 1.674-.461-1.804-11.86-5.653-23.312-11.347-33.87-.531-.983-2.03-.108-1.499.876z"/><path d="m411.516 119.775c-9.839-5.413-21.065-7.928-32.273-7.185-1.109.073-1.117 1.809 0 1.736 10.913-.722 21.813 1.675 31.397 6.949.979.538 1.856-.96.876-1.5z"/><path d="m438.606 225.832c-3.131 7.448-8.661 13.786-15.569 17.96-.955.577-.084 2.078.876 1.499 7.327-4.427 13.053-11.113 16.367-18.997.432-1.028-1.247-1.477-1.674-.462z"/><path d="m411.482 331.839c1.075-10.838-2.858-21.841-10.504-29.586-.786-.796-2.013.431-1.228 1.227 7.35 7.446 11.028 17.956 9.996 28.359-.11 1.111 1.627 1.103 1.736 0z"/><path d="m332.527 409.304c-17.177-1.359-32.977-11.818-41.028-27.032-.523-.988-2.021-.112-1.499.876 8.349 15.776 24.75 26.485 42.527 27.892 1.114.088 1.108-1.648 0-1.736z"/><path d="m121.659 410.499c-3.996-10.49-5.64-21.684-4.825-32.88.081-1.115-1.655-1.109-1.736 0-.825 11.331.843 22.724 4.887 33.341.394 1.034 2.072.585 1.674-.461z"/><path d="m227.097 439.656c6.17-5.263 11.339-11.644 15.217-18.766.534-.981-.964-1.858-1.499-.876-3.814 7.005-8.878 13.238-14.945 18.415-.851.726.382 1.949 1.227 1.227z"/><path d="m109.675 79.594c0 5.805-4.706 10.511-10.511 10.511s-10.511-4.706-10.511-10.511 4.706-10.511 10.511-10.511c5.805.001 10.511 4.706 10.511 10.511z" fill="#d61637"/><circle cx="339.145" cy="114.26" fill="#ff435a" r="10.511"/><path d="m339.145 373.949c0 5.805-4.706 10.511-10.511 10.511s-10.511-4.706-10.511-10.511 4.706-10.511 10.511-10.511c5.806 0 10.511 4.706 10.511 10.511z" fill="#d61637"/><path d="m59.581 276.926c0 5.805-4.706 10.511-10.511 10.511s-10.511-4.706-10.511-10.511 4.706-10.511 10.511-10.511 10.511 4.706 10.511 10.511z" fill="#d61637"/><path d="m278.096 36.958c0 5.805-4.706 10.511-10.511 10.511s-10.511-4.706-10.511-10.511 4.706-10.511 10.511-10.511 10.511 4.706 10.511 10.511z" fill="#f9b233"/><circle cx="355.286" cy="311.161" fill="#f9b233" r="10.511"/><path d="m123.397 330.717c0 5.805-4.706 10.511-10.511 10.511s-10.511-4.706-10.511-10.511 4.706-10.511 10.511-10.511 10.511 4.706 10.511 10.511z" fill="#e29820"/><path d="m370.678 212.395c0 5.805-4.706 10.511-10.511 10.511s-10.511-4.706-10.511-10.511 4.706-10.511 10.511-10.511 10.511 4.706 10.511 10.511z" fill="#e9fbff"/><circle cx="59.581" cy="177.041" fill="#c2f9ff" r="10.511"/><circle cx="205.457" cy="377.619" fill="#c2f9ff" r="10.511"/><path d="m416.85 143.519c-9.774 2.355-13.992 19.639-9.422 38.605 4.57 18.965 16.198 32.431 25.971 30.076 9.774-2.355 13.992-19.639 9.422-38.605s-16.198-32.432-25.971-30.076z" fill="#00e2b7"/><path d="m394.194 142.972c.456-.07.807-.44.84-.9.252-3.61.999-6.229 1.883-6.229s1.632 2.619 1.884 6.229c.032.46.383.83.839.9 2.102.319 3.552.995 3.552 1.778 0 .784-1.45 1.459-3.552 1.778-.455.07-.807.44-.839.9-.252 3.61-1 6.229-1.884 6.229s-1.631-2.619-1.883-6.229c-.032-.46-.384-.83-.84-.9-2.101-.319-3.551-.994-3.551-1.778s1.45-1.46 3.551-1.778z" fill="#fff"/><path d="m403.411 158.469c.7-.105 1.24-.674 1.289-1.381.388-5.545 1.536-9.566 2.893-9.566s2.504 4.022 2.892 9.566c.049.706.589 1.276 1.288 1.381 3.228.491 5.455 1.529 5.455 2.732s-2.227 2.241-5.455 2.731c-.699.107-1.239.675-1.288 1.381-.387 5.544-1.535 9.566-2.892 9.566s-2.504-4.021-2.893-9.566c-.049-.706-.588-1.275-1.289-1.381-3.227-.49-5.454-1.528-5.454-2.731s2.227-2.241 5.454-2.732z" fill="#fff"/><path d="m409.653 222.906c0 4.894 3.968 8.861 8.861 8.861s8.861-3.967 8.861-8.861-3.967-8.861-8.861-8.861-8.861 3.967-8.861 8.861z" fill="#00e2b7"/><path d="m208.325 215.621 18.439-85.284c.32-1.478-.477-2.971-1.883-3.527l-4.316-1.709-3.049-1.208-4.316-1.709c-1.406-.557-3.008-.015-3.788 1.281l-44.959 74.78c-1.42 2.361.726 5.26 3.399 4.592l20.224-5.056c1.286-.321 2.633.212 3.35 1.327l11.277 17.533c1.491 2.316 5.04 1.673 5.622-1.02z" fill="#ff435a"/><path d="m247.872 215.621-18.439-85.284c-.32-1.478.477-2.971 1.883-3.527l4.316-1.709 3.049-1.208 4.316-1.709c1.406-.557 3.008-.015 3.788 1.281l44.959 74.78c1.42 2.361-.726 5.26-3.399 4.592l-20.224-5.056c-1.286-.321-2.633.212-3.35 1.327l-11.277 17.533c-1.491 2.316-5.039 1.673-5.622-1.02z" fill="#ff435a"/><path d="m233.476 107.026c-.08-3.69.472-7.153 1.669-10.251 2.541-8.673 7.923-17.754 15.821-25.651 17.812-17.812 41.645-22.858 53.233-11.27 10.316 10.316 7.439 30.335-5.882 47.173 13.321 16.838 16.198 36.857 5.882 47.173-11.588 11.588-35.421 6.542-53.233-11.27-7.898-7.898-13.279-16.979-15.821-25.652-1.196-3.098-1.748-6.562-1.669-10.252z" fill="#ff435a"/><path d="m297.495 106.616c-1.653 3.666-6.028 5.358-9.65 3.447-1.289-.68-3.877-2.884-2.401-4.505.586-.642 1.619-.816 2.439-.911 1.07-.123 2.17-.114 3.238.034 2.405.332 4.719 1.335 6.584 2.89.852.711 2.087-.511 1.227-1.227-2.075-1.73-4.566-2.907-7.244-3.321-1.338-.207-2.684-.25-4.028-.084-1.179.145-2.411.434-3.31 1.263-2.084 1.923-.623 4.937 1.209 6.416 2.008 1.622 4.657 2.314 7.199 1.834 2.713-.513 5.106-2.454 6.236-4.959.455-1.011-1.04-1.895-1.499-.877z"/><path d="m245.581 101.191c4.523-4.459 9.877-8.047 15.744-10.489 1.016-.423.571-2.103-.461-1.674-6.155 2.562-11.76 6.253-16.51 10.936-.797.784.431 2.012 1.227 1.227z"/><path d="m247.18 109.606c5.358-.514 10.759-.291 16.049.705 1.092.206 1.559-1.467.461-1.674-5.445-1.025-10.994-1.297-16.51-.767-1.102.106-1.113 1.843 0 1.736z"/><path d="m261.779 126.312c-6.333-2.098-11.973-5.926-16.303-10.996-.727-.851-1.949.382-1.228 1.227 4.523 5.295 10.463 9.254 17.07 11.443 1.063.352 1.518-1.323.461-1.674z"/><path d="m222.721 107.026c.08-3.69-.472-7.153-1.669-10.251-2.541-8.673-7.922-17.754-15.821-25.651-17.812-17.812-41.645-22.858-53.233-11.27-10.316 10.316-7.439 30.335 5.882 47.173-13.321 16.838-16.198 36.857-5.882 47.173 11.588 11.588 35.421 6.542 53.233-11.27 7.898-7.898 13.279-16.979 15.821-25.652 1.197-3.098 1.749-6.562 1.669-10.252z" fill="#ff435a"/><path d="m181.869 169.276-17.416 28.968c-1.42 2.361.726 5.26 3.399 4.592l20.224-5.056c1.285-.322 2.633.212 3.35 1.327l11.277 17.533c.879 1.365 2.464 1.68 3.743 1.176-9.355-15.521-17.597-31.66-24.577-48.54z" fill="#d61637"/><path d="m172.651 144.326c-9.64-29.525-11.875-59.348-12.232-89.501-3.209 1.013-6.069 2.676-8.421 5.029-10.316 10.316-7.44 30.335 5.882 47.172-13.321 16.838-16.198 36.857-5.882 47.173 6.115 6.115 15.647 7.555 25.897 4.975-1.846-4.891-3.606-9.832-5.244-14.848z" fill="#d61637"/><path d="m157.756 107.492c2.142 4.752 8.173 6.547 12.573 3.752 1.946-1.237 4.063-3.907 2.678-6.287-1.272-2.185-4.618-2.27-6.825-2.074-3.091.275-5.982 1.474-8.364 3.46-.859.716.375 1.938 1.228 1.227 1.643-1.37 3.615-2.293 5.706-2.734 1.058-.223 2.142-.306 3.222-.258.914.04 1.934.126 2.757.56 2.132 1.124.229 3.596-1.101 4.491-1.645 1.108-3.732 1.539-5.664 1.039-2.118-.549-3.818-2.072-4.71-4.052-.459-1.017-1.956-.135-1.5.876z"/><path d="m211.253 99.963c-4.75-4.683-10.355-8.374-16.51-10.936-1.03-.429-1.479 1.25-.461 1.674 5.868 2.442 11.221 6.03 15.745 10.489.794.785 2.022-.441 1.226-1.227z"/><path d="m208.426 107.87c-5.516-.53-11.066-.258-16.511.767-1.096.207-.632 1.88.462 1.674 5.291-.996 10.691-1.22 16.049-.705 1.111.107 1.104-1.629 0-1.736z"/><path d="m194.288 127.986c6.607-2.189 12.547-6.148 17.07-11.443.722-.845-.5-2.078-1.227-1.227-4.331 5.07-9.971 8.898-16.304 10.996-1.055.35-.603 2.027.461 1.674z"/><path d="m249.88 110.813c0 26.188-9.752 28.868-21.782 28.868s-21.782-2.68-21.782-28.868 9.752-28.55 21.782-28.55 21.782 2.362 21.782 28.55z" fill="#ff435a"/><path d="m224.543 138.789c-4.793-.268-10.169-2.24-12.962-6.373-2.866-4.243-3.913-9.679-4.29-14.687-.561-7.456-.124-15.647 1.787-22.903 1.038-3.941 2.84-7.833 6.902-9.317 1.041-.38.591-2.058-.461-1.674-8.248 3.013-9.135 13.757-9.736 21.216-.748 9.27-1.292 21.65 5.133 29.375 3.262 3.922 8.676 5.821 13.626 6.099 1.117.062 1.113-1.674.001-1.736z"/><path d="m231.63 140.525c4.824-.27 11.022-2.139 13.732-6.51 2.732-4.406 4.114-9.701 4.824-14.78 1.128-8.061.864-16.873-1.32-24.751-1.125-4.055-3.217-9.63-7.883-10.648-1.089-.238-1.554 1.435-.461 1.674 4.571.997 6.239 7.347 7.12 11.223 1.629 7.166 1.856 14.992.835 22.26-.649 4.62-1.878 9.329-4.187 13.419-2.326 4.121-7.733 6.102-12.66 6.378-1.111.061-1.118 1.797 0 1.735z"/><path d="m214.538 136.909c-5.802 14.869-11.791 29.664-17.593 44.532-.406 1.041 1.272 1.493 1.674.462 5.802-14.869 11.791-29.664 17.593-44.533.406-1.04-1.272-1.492-1.674-.461z"/><path d="m239.488 137.91c6.608 14.616 12.973 29.345 20.013 43.762.49 1.004 1.987.125 1.499-.876-7.04-14.417-13.405-29.145-20.013-43.762-.459-1.016-1.956-.135-1.499.876z"/><path d="m243.16 135.061c1.807 2.447 3.868 4.729 5.977 6.916 4.595 4.763 9.721 9.068 15.398 12.489.959.578 1.833-.922.876-1.499-5.556-3.348-10.549-7.555-15.047-12.217-1.477-1.531-2.902-3.112-4.26-4.75-.531-.641-1.083-1.323-1.446-1.815-.656-.889-2.163-.024-1.498.876z"/><path d="m210.883 134.185c-.373.505-.909 1.167-1.446 1.815-1.358 1.637-2.783 3.219-4.26 4.75-4.497 4.662-9.491 8.869-15.047 12.217-.956.576-.084 2.078.876 1.499 5.677-3.421 10.803-7.726 15.398-12.489 2.11-2.187 4.169-4.468 5.977-6.916.665-.899-.841-1.766-1.498-.876z"/></g></svg>