<svg id="Слой_1" height="512" viewBox="0 0 512 512" width="512" xmlns="http://www.w3.org/2000/svg">
    <g>
        <g>
            <g>
                <path d="m116.785 364.014c-.032 0-.062 0-.094-.002-1.578-.05-2.816-1.371-2.765-2.949 1.534-47.602 19.46-94.926 50.479-133.256.993-1.229 2.794-1.417 4.021-.424 1.228.993 1.417 2.794.424 4.021-30.239 37.368-47.714 83.48-49.209 129.844-.05 1.546-1.32 2.766-2.856 2.766z"
                      fill="#505578"/>
                <path d="m116.785 366.041c-.021 0-.137-.001-.158-.002-1.306-.042-2.517-.589-3.41-1.542-.892-.953-1.361-2.196-1.318-3.501 1.548-48.041 19.635-95.795 50.928-134.465.819-1.014 1.985-1.649 3.284-1.786 1.296-.141 2.574.24 3.591 1.061 1.014.82 1.648 1.987 1.784 3.286.138 1.299-.24 2.573-1.061 3.588-29.962 37.025-47.277 82.708-48.758 128.633-.085 2.651-2.229 4.728-4.882 4.728zm49.84-137.268c-.033 0-.062.002-.087.005-.128.014-.368.07-.557.303-30.742 37.989-48.508 84.883-50.028 132.047-.01.3.136.502.224.596.088.093.28.251.578.261l.03 2.028v-2.028c.451 0 .814-.353.829-.804 1.508-46.803 19.144-93.346 49.659-131.054.188-.233.194-.482.18-.61s-.07-.37-.303-.559c-.189-.152-.388-.185-.525-.185z"
                      fill="#252945"/>
            </g>
        </g>
        <g>
            <g>
                <path d="m392.95 347.863c-1.156 0-2.244-.706-2.676-1.85-17.279-45.782-47.268-84.722-84.443-109.647-1.311-.88-1.661-2.656-.783-3.968.879-1.311 2.656-1.661 3.968-.783 38.155 25.583 68.913 65.493 86.608 112.378.557 1.478-.188 3.127-1.665 3.685-.333.125-.674.185-1.009.185z"
                      fill="#505578"/>
                <path d="m392.95 349.891c-2.023 0-3.861-1.27-4.574-3.162-17.13-45.389-46.847-83.985-83.675-108.68-2.237-1.5-2.838-4.541-1.338-6.78 1.5-2.238 4.543-2.838 6.781-1.339 38.503 25.816 69.534 66.07 87.377 113.347.951 2.522-.326 5.347-2.847 6.298-.552.209-1.133.316-1.724.316zm-85.526-116.733c-.268 0-.532.13-.692.368-.254.381-.152.898.228 1.154 37.524 25.16 67.786 64.444 85.211 110.617.189.498.7.624 1.068.484.432-.162.649-.644.487-1.072-17.548-46.493-48.033-86.06-85.841-111.41-.141-.095-.302-.141-.461-.141z"
                      fill="#252945"/>
            </g>
        </g>
        <g>
            <path d="m307.516 95.754v162.621c-6.404 7.186-12.504 14.639-18.26 22.34-.172.229-.343.438-.515.667-4.136-6.157-8.253-12.314-12.39-18.47-6.042 4.537-12.104 9.073-18.146 13.61-2.402 1.792-4.784 3.603-7.186 5.394-6.9-17.975-12.085-36.578-15.516-55.525-8.539 12.008-17.079 23.998-25.637 35.987-4.251 5.966-8.501 11.932-12.752 17.898-4.651-9.34-11.227-17.708-19.176-24.455-5.947 3.05-11.742 6.366-17.384 9.931v-169.998z"
                  fill="#fcd242"/>
            <path d="m307.516 95.754v162.621c-6.404 7.186-12.504 14.639-18.26 22.34v-184.961z" fill="#ffe280"/>
            <g>
                <path d="m209.865 264.406c-1.12 0-2.028-.908-2.028-2.028v-162.24c0-1.12.908-2.028 2.028-2.028s2.028.908 2.028 2.028v162.24c0 1.12-.908 2.028-2.028 2.028z"
                      fill="#fc9b2d"/>
            </g>
            <g>
                <path d="m258.204 278.55c-1.12 0-2.028-.908-2.028-2.028v-178.824c0-1.12.908-2.028 2.028-2.028s2.028.908 2.028 2.028v178.824c0 1.12-.908 2.028-2.028 2.028z"
                      fill="#fc9b2d"/>
            </g>
            <g>
                <path d="m251.018 283.944c-.189 0-.378-.027-.563-.08-.61-.176-1.102-.628-1.33-1.221-6.338-16.512-11.286-33.71-14.731-51.195-7.619 10.711-15.242 21.411-22.878 32.108l-12.751 17.896c-.413.58-1.092.904-1.811.846-.71-.056-1.339-.48-1.656-1.118-4.294-8.621-10.38-16.522-17.649-22.927-5.407 2.816-10.787 5.912-16.012 9.213-.627.393-1.416.417-2.063.061-.647-.358-1.049-1.038-1.049-1.777v-169.996c0-1.12.908-2.028 2.028-2.028h146.962c1.12 0 2.028.908 2.028 2.028v162.621c0 .498-.183.978-.514 1.35-6.388 7.167-12.495 14.638-18.151 22.204l-.519.673c-.395.524-1.019.817-1.674.807-.656-.018-1.264-.352-1.629-.896l-11.199-16.696-19.972 14.981c-1.216.916-2.433 1.833-3.654 2.744-.354.264-.781.402-1.213.402zm-15.516-59.581c.147 0 .294.016.442.049.796.178 1.408.815 1.554 1.618 3.253 17.963 8.115 35.66 14.462 52.647.495-.372.99-.745 1.485-1.118l21.687-16.269c.445-.335 1.005-.475 1.557-.377.549.092 1.035.407 1.345.868l10.807 16.111c5.227-6.905 10.819-13.72 16.647-20.288v-159.822h-142.906v164.325c4.736-2.887 9.577-5.6 14.43-8.089.728-.374 1.612-.274 2.238.258 7.286 6.185 13.504 13.789 18.125 22.139l10.839-15.213c8.559-11.99 17.098-23.978 25.636-35.986.385-.542 1.005-.853 1.652-.853z"
                      fill="#f77036"/>
            </g>
        </g>
        <g>
            <path d="m160.547 79.208c7.3-20.927 16.547-51.1 31.147-54.507s77.21-3.067 89.772 2.433c17.782 7.787 26.055 54.994 26.055 54.994z"
                  fill="#ea5189"/>
            <path d="m307.518 82.125-13.934-.286c-3.698-14.506-11.379-38.046-23.483-43.345-12.561-5.509-75.158-5.852-89.759-2.44-.801.191-1.582.458-2.344.801 4.003-6.347 8.52-10.941 13.705-12.161 14.601-3.393 77.198-3.05 89.759 2.44 17.783 7.795 26.056 54.991 26.056 54.991z"
                  fill="#ff73a5"/>
            <g>
                <path d="m307.521 84.157c-.014 0-.027 0-.041 0l-146.974-2.92c-.65-.013-1.254-.337-1.624-.87-.371-.533-.464-1.212-.251-1.826.57-1.634 1.153-3.325 1.748-5.055 7.263-21.102 16.303-47.363 30.854-50.758 14.589-3.405 77.975-3.173 91.045 2.551 18.566 8.129 26.895 54.53 27.24 56.5.105.597-.063 1.21-.457 1.671-.385.448-.949.707-1.54.707zm-144.144-6.921 141.675 2.815c-1.962-9.615-10.041-44.77-24.4-51.058-12.223-5.351-74.63-5.549-88.498-2.317-12.366 2.886-21.367 29.035-27.939 48.129-.282.82-.562 1.631-.838 2.431z"
                      fill="#ad1d52"/>
            </g>
        </g>
        <g>
            <g>
                <circle cx="180.081" cy="169.729" fill="#fff" r="35.689"/>
                <path d="m180.081 207.446c-20.797 0-37.717-16.92-37.717-37.718 0-20.797 16.92-37.717 37.717-37.717s37.717 16.92 37.717 37.717c0 20.798-16.92 37.718-37.717 37.718zm0-71.378c-18.561 0-33.661 15.1-33.661 33.661s15.1 33.662 33.661 33.662 33.661-15.101 33.661-33.662c0-18.562-15.1-33.661-33.661-33.661z"/>
            </g>
        </g>
        <g>
            <g>
                <circle cx="287.986" cy="169.729" fill="#fff" r="35.689"/>
                <path d="m287.986 207.446c-20.797 0-37.717-16.92-37.717-37.718 0-20.797 16.92-37.717 37.717-37.717s37.717 16.92 37.717 37.717c-.001 20.798-16.921 37.718-37.717 37.718zm0-71.378c-18.561 0-33.661 15.1-33.661 33.661s15.1 33.662 33.661 33.662 33.661-15.101 33.661-33.662c-.001-18.562-15.101-33.661-33.661-33.661z"/>
            </g>
        </g>
        <path d="m223.915 115.074c1.339 3.42-3.864 8.656-11.623 11.694s-15.134 2.728-16.473-.692 3.864-8.656 11.623-11.694 15.134-2.728 16.473.692z"/>
        <path d="m277.022 125.696c-.931 3.553-8.22 4.722-16.28 2.611-8.06-2.112-13.84-6.704-12.909-10.258.931-3.553 8.22-4.722 16.28-2.61s13.84 6.704 12.909 10.257z"/>
        <g>
            <path d="m312.658 106.462h-157.249c-2.538 0-4.596-2.058-4.596-4.596v-21.469c0-2.538 2.058-4.596 4.596-4.596h157.249c2.538 0 4.596 2.058 4.596 4.596v21.469c0 2.538-2.058 4.596-4.596 4.596z"
                  fill="#9397b4"/>
            <path d="m317.258 84.564v13.133c0 4.518-3.431 8.253-7.834 8.73.019-.305.038-.61.038-.934v-13.152c0-4.823-3.908-8.749-8.749-8.749h-148.925c-.324 0-.629.019-.934.038.477-4.403 4.194-7.834 8.711-7.834h148.925c4.841 0 8.768 3.927 8.768 8.768z"
                  fill="#b5bbde"/>
            <g>
                <path d="m307.934 108.49h-147.801c-6.257 0-11.348-5.091-11.348-11.348v-12.02c0-6.257 5.091-11.348 11.348-11.348h147.801c6.257 0 11.348 5.091 11.348 11.348v12.019c0 6.258-5.091 11.349-11.348 11.349zm-147.801-30.66c-4.021 0-7.292 3.271-7.292 7.292v12.019c0 4.021 3.271 7.292 7.292 7.292h147.801c4.021 0 7.292-3.271 7.292-7.292v-12.019c0-4.021-3.271-7.292-7.292-7.292z"
                      fill="#505578"/>
            </g>
            <g>
                <path d="m307.934 108.49h-147.801c-6.257 0-11.348-5.091-11.348-11.348v-12.02c0-6.257 5.091-11.348 11.348-11.348h147.801c6.257 0 11.348 5.091 11.348 11.348v12.019c0 6.258-5.091 11.349-11.348 11.349zm-147.801-30.66c-4.021 0-7.292 3.271-7.292 7.292v12.019c0 4.021 3.271 7.292 7.292 7.292h147.801c4.021 0 7.292-3.271 7.292-7.292v-12.019c0-4.021-3.271-7.292-7.292-7.292z"
                      fill="#505578"/>
            </g>
        </g>
        <g>
            <g>
                <path d="m273.096 241.815c-2.402 7.605-8.959 7.034-15.211 6.119-7.586-1.106-15.421-.724-22.874.972-1.734.4-3.469 1.048-5.204 1.849-5.661 2.554-11.36 6.443-16.869 6.5-10.16.114-17.517-5.452-14.525-16.068 1.239-4.422 3.793-8.273 7.148-11.532 3.698-3.602 8.387-6.481 13.381-8.559 6.462-2.707 13.438-4.098 19.442-4.117.248 0 .495.019.743.019 2.688.076 6.138.515 9.836 1.353 3.66.82 7.567 2.059 11.151 3.698 1.411.648 2.783 1.353 4.079 2.116 6.787 4.06 11.362 9.892 8.903 17.65z"
                      fill="#851039"/>
                <g>
                    <path d="m212.624 259.285c-6.407 0-11.517-2.073-14.414-5.854-1.785-2.331-3.538-6.442-1.748-12.795 1.268-4.527 3.855-8.712 7.687-12.436 3.687-3.592 8.534-6.696 14.015-8.976 6.526-2.733 13.707-4.251 20.215-4.273l.75.02c3.039.085 6.671.583 10.285 1.403 4.063.91 8.058 2.236 11.546 3.832 1.527.701 2.96 1.445 4.263 2.211 8.886 5.315 12.273 12.233 9.807 20.011-3.039 9.62-12.05 8.302-17.438 7.512-7.174-1.046-14.828-.719-22.129.944-1.472.34-3.045.9-4.804 1.712-1.462.66-2.908 1.401-4.355 2.141-4.322 2.211-8.793 4.499-13.344 4.546-.112.001-.224.002-.336.002zm25.762-40.279c-5.98.02-12.61 1.426-18.659 3.96-5.018 2.087-9.424 4.902-12.749 8.141-3.313 3.22-5.537 6.795-6.611 10.626-1.072 3.805-.715 6.911 1.062 9.231 2.119 2.768 6.312 4.299 11.487 4.263 3.598-.038 7.456-2.011 11.541-4.102 1.505-.77 3.013-1.54 4.518-2.219 1.998-.923 3.829-1.572 5.582-1.977 7.791-1.772 15.958-2.119 23.621-1.003 7.447 1.09 11.284.661 12.985-4.722 0-.001.001-.001.001-.002 1.857-5.859-.838-11.006-8.01-15.298-1.173-.689-2.484-1.369-3.885-2.012-3.233-1.479-6.951-2.712-10.748-3.563-3.369-.764-6.724-1.227-9.45-1.304z"/>
                </g>
            </g>
            <g>
                <path d="m273.096 241.815c-2.402 7.605-8.959 7.034-15.211 6.119-7.586-1.106-15.421-.724-22.874.972-1.734.4-3.469 1.048-5.204 1.849 2.192-8.959 8.273-17.022 16.011-22.225 4.384-2.954 9.226-5.07 14.296-6.481 8.884 4.022 15.899 10.541 12.982 19.766z"
                      fill="#db1a47"/>
                <g>
                    <path d="m229.809 252.783c-.461 0-.919-.158-1.289-.462-.601-.495-.865-1.291-.68-2.048 2.251-9.201 8.392-17.74 16.849-23.427 4.379-2.95 9.387-5.221 14.884-6.75.459-.127.947-.09 1.38.106 11.904 5.39 16.903 13.283 14.078 22.225-3.039 9.622-12.051 8.304-17.439 7.514-7.174-1.046-14.828-.719-22.129.944-1.472.34-3.045.9-4.804 1.712-.271.124-.561.186-.85.186zm30.139-28.577c-4.797 1.406-9.166 3.424-12.996 6.005-6.412 4.312-11.341 10.412-13.946 17.135.525-.16 1.042-.298 1.551-.416 7.791-1.772 15.958-2.119 23.621-1.003 7.447 1.09 11.284.661 12.985-4.722 2.639-8.348-4.475-13.814-11.215-16.999z"/>
                </g>
            </g>
        </g>
        <g>
            <g>
                <path d="m341.105 365.673-11.191 123.801-114.685-47.951c-4.693-7.788 1.133-19.91 13.035-27.082 9.845-5.932 20.745-6.603 26.88-2.221-1.008-7.471 4.679-16.795 14.523-22.727 9.845-5.932 20.745-6.603 26.88-2.221-1.008-7.471 4.679-16.795 14.523-22.727 11.886-7.164 25.342-6.66 30.035 1.128z"
                      fill="#ffdb9c"/>
                <path d="m341.105 365.673-11.191 123.801.191-2.112-12.816-125.832s17.79-5.858 23.816 4.143z"
                      fill="#ffecc9"/>
                <g>
                    <path d="m329.914 491.501c-.265 0-.531-.051-.782-.157l-114.684-47.952c-.398-.165-.732-.454-.955-.824-5.264-8.735.893-22.133 13.725-29.865 8.937-5.385 18.816-6.777 25.863-3.908.754-7.57 6.604-15.656 15.541-21.04 8.937-5.386 18.816-6.778 25.863-3.909.754-7.57 6.604-15.656 15.541-21.039 6.083-3.666 12.75-5.564 18.837-5.331 6.381.24 11.346 2.78 13.98 7.151.223.369.322.8.283 1.229l-11.191 123.801c-.058.644-.42 1.221-.973 1.555-.321.192-.684.289-1.048.289zm-113.256-51.58 111.485 46.615 10.879-120.347c-1.997-2.836-5.63-4.485-10.313-4.661-5.297-.188-11.178 1.489-16.591 4.752-8.906 5.366-14.482 13.886-13.56 20.719.108.802-.27 1.591-.964 2.008-.692.419-1.566.384-2.225-.086-5.612-4.009-15.749-3.06-24.655 2.307s-14.482 13.887-13.56 20.72c.108.802-.27 1.591-.964 2.008-.692.42-1.566.383-2.225-.086-5.612-4.01-15.75-3.059-24.655 2.307-10.625 6.403-16.154 16.9-12.652 23.744z"
                          fill="#fc9b2d"/>
                </g>
            </g>
            <g>
                <path d="m333.084 454.404-3.17 35.069-32.487-13.583c1.473-7.786 5.902-14.728 12.89-18.939 6.988-4.21 15.195-4.883 22.767-2.547z"
                      fill="#9397b4"/>
                <path d="m329.914 491.501c-.265 0-.531-.051-.782-.157l-32.486-13.583c-.883-.369-1.388-1.306-1.21-2.248 1.646-8.706 6.56-15.915 13.836-20.299 7.275-4.384 15.944-5.359 24.411-2.748.915.282 1.508 1.167 1.422 2.12l-3.17 35.069c-.058.644-.42 1.221-.973 1.555-.321.194-.684.291-1.048.291zm-30.146-16.829 28.375 11.864 2.769-30.631c-6.839-1.695-13.724-.728-19.548 2.784-5.826 3.51-9.899 9.144-11.596 15.983z"
                      fill="#505578"/>
            </g>
            <g>
                <path d="m297.941 294.044 43.163 71.631c-.148-.245-.311-.48-.465-.699-.174-.251-.344-.46-.524-.685-.17-.209-.357-.408-.544-.607s-.38-.372-.573-.545c-.661-.581-1.378-1.106-2.183-1.555-.232-.127-.465-.254-.713-.371-.258-.133-.533-.257-.798-.365-.556-.221-1.129-.433-1.724-.608-.298-.088-.602-.149-.916-.227-1.403-.334-2.93-.504-4.538-.514-.539-.009-1.095-.008-1.648.036-.52.024-1.046.074-1.589.134-.111 0-.212.017-.33.043-.543.06-1.066.152-1.615.238-.043.003-.075.023-.134.036-.582.106-1.18.221-1.774.379-.487.115-.98.257-1.49.408-.252.062-.51.151-.768.24-.483.158-1 .335-1.49.519-2.094.772-4.178 1.783-6.219 3.013-9.845 5.932-15.531 15.256-14.523 22.727-6.134-4.382-17.035-3.711-26.88 2.221s-15.531 15.256-14.523 22.727c-6.134-4.382-17.035-3.711-26.88 2.221-11.902 7.172-17.727 19.294-13.034 27.082l-39.356-65.312c2.993-5.965 6.244-11.796 9.764-17.478 10.291 1.677 20.242 5.45 29.046 11.05.561-7.304 1.123-14.608 1.684-21.912 1.143-14.686 2.269-29.363 3.385-44.056 12.717 14.458 26.76 27.716 41.947 39.55 1.132-2.774 2.238-5.555 3.371-8.329 2.834-7.004 5.684-14.018 8.518-21.023 6.72 3.139 13.424 6.287 20.145 9.426.029-.284.068-.553.096-.837.957-9.566 2.335-19.098 4.112-28.558z"
                      fill="#fcd242"/>
                <path d="m297.941 294.044 43.163 71.631c-5.007-7.793-16.102-7.05-23.816-4.143l-23.458-38.929c.956-9.567 2.334-19.099 4.111-28.559z"
                      fill="#ffe280"/>
                <g>
                    <path d="m255.145 414.249c-.687 0-1.359-.35-1.739-.981l-38.775-64.349c-.578-.96-.269-2.205.69-2.784.959-.578 2.206-.271 2.784.69l38.775 64.349c.578.96.269 2.205-.69 2.784-.328.197-.689.291-1.045.291z"
                          fill="#fc9b2d"/>
                </g>
                <g>
                    <path d="m296.548 389.3c-.687 0-1.359-.349-1.739-.981l-31.475-52.236c-.578-.96-.269-2.205.69-2.784.959-.577 2.205-.269 2.784.69l31.475 52.236c.578.96.269 2.205-.69 2.784-.328.197-.688.291-1.045.291z"
                          fill="#fc9b2d"/>
                </g>
                <g>
                    <path d="m215.23 443.552c-.687 0-1.359-.35-1.739-.981-.002-.002-.003-.005-.004-.007l-39.352-65.306c-.359-.596-.388-1.334-.076-1.956 3.032-6.042 6.346-11.976 9.853-17.636.432-.696 1.244-1.068 2.05-.934 9.435 1.538 18.685 4.842 26.951 9.608l1.432-18.624c1.143-14.688 2.269-29.362 3.386-44.054.061-.814.605-1.511 1.378-1.77.772-.261 1.627-.031 2.167.583 12.058 13.709 25.356 26.356 39.557 37.628l.643-1.588c.57-1.415 1.141-2.831 1.718-4.245l8.515-21.017c.209-.516.621-.923 1.138-1.127.518-.205 1.095-.186 1.601.049l17.572 8.222c.942-8.871 2.262-17.855 3.928-26.728.155-.827.805-1.473 1.634-1.622.831-.144 1.663.23 2.096.95l43.175 71.65c.571.957.263 2.195-.689 2.774-.953.575-2.192.278-2.778-.669-.482-.782-1.101-1.529-1.742-2.103-2.801-2.507-7.622-3.585-12.884-2.878-4.278.573-8.768 2.176-12.643 4.51-8.906 5.367-14.482 13.887-13.56 20.72.108.802-.27 1.591-.964 2.008-.692.42-1.566.384-2.225-.086-5.612-4.009-15.75-3.06-24.655 2.307-8.906 5.367-14.482 13.887-13.56 20.72.108.802-.27 1.591-.964 2.008-.691.42-1.567.384-2.226-.087-5.608-4.005-15.748-3.057-24.654 2.308-5.421 3.266-9.668 7.688-11.959 12.452-2.151 4.47-2.29 8.671-.394 11.831l.009.015c.578.96.269 2.205-.69 2.784-.328.197-.688.291-1.045.291zm-37.042-67.427 33.722 55.963c.341-1.702.936-3.45 1.785-5.216 2.63-5.467 7.432-10.498 13.521-14.167 8.938-5.385 18.818-6.78 25.863-3.908.754-7.57 6.604-15.656 15.541-21.04 8.935-5.383 18.817-6.778 25.863-3.908.754-7.57 6.604-15.655 15.541-21.04 4.34-2.615 9.382-4.411 14.198-5.057 2.029-.27 6.077-.56 10.116.625l-35.353-58.67c-1.319 7.7-2.371 15.447-3.136 23.1l-.096.839c-.066.654-.446 1.235-1.017 1.56-.569.323-1.262.352-1.86.074l-18.21-8.521-7.715 19.04c-.577 1.414-1.145 2.824-1.713 4.234l-1.66 4.102c-.24.587-.741 1.029-1.355 1.193-.614.162-1.267.031-1.769-.361-13.949-10.869-27.064-23.048-39.04-36.247-.998 13.109-2.004 26.205-3.024 39.311l-1.684 21.91c-.054.71-.478 1.34-1.115 1.659-.637.317-1.394.281-1.995-.103-8.126-5.168-17.416-8.794-26.95-10.529-2.988 4.889-5.827 9.979-8.458 15.157z"
                          fill="#f77036"/>
                </g>
            </g>
        </g>
        <g>
            <g>
                <path d="m201.666 184.572c-.519 0-1.038-.198-1.434-.594l-25.794-25.794c-.792-.792-.792-2.076 0-2.868s2.076-.792 2.868 0l25.794 25.794c.792.792.792 2.076 0 2.868-.396.396-.915.594-1.434.594z"/>
            </g>
            <g>
                <path d="m175.873 184.572c-.519 0-1.038-.198-1.434-.594-.792-.792-.792-2.076 0-2.868l25.794-25.794c.792-.792 2.076-.792 2.868 0s.792 2.076 0 2.868l-25.794 25.794c-.396.396-.915.594-1.434.594z"/>
            </g>
        </g>
        <g>
            <g>
                <path d="m293.83 184.572c-.519 0-1.038-.198-1.434-.594l-25.793-25.794c-.792-.792-.792-2.076 0-2.868s2.076-.792 2.868 0l25.793 25.794c.792.792.792 2.076 0 2.868-.396.396-.915.594-1.434.594z"/>
            </g>
            <g>
                <path d="m268.036 184.572c-.519 0-1.038-.198-1.434-.594-.792-.792-.792-2.076 0-2.868l25.793-25.794c.792-.792 2.076-.792 2.868 0s.792 2.076 0 2.868l-25.793 25.794c-.396.396-.915.594-1.434.594z"/>
            </g>
        </g>
        <g>
            <ellipse cx="116.783" cy="361.154" fill="#505578" rx="13.627" ry="23.036"/>
            <path d="m116.783 386.218c-8.778 0-15.655-11.009-15.655-25.064s6.876-25.064 15.655-25.064 15.655 11.009 15.655 25.064-6.877 25.064-15.655 25.064zm0-46.071c-6.287 0-11.599 9.62-11.599 21.008s5.312 21.008 11.599 21.008c6.288 0 11.6-9.62 11.6-21.008-.001-11.388-5.312-21.008-11.6-21.008z"
                  fill="#252945"/>
        </g>
        <g>
            <ellipse cx="392.948" cy="345.003" fill="#505578" rx="13.627" ry="23.036"
                     transform="matrix(.898 -.441 .441 .898 -111.804 208.401)"/>
            <path d="m399.266 368.578c-2.816 0-5.857-1.015-8.903-3.012-4.526-2.968-8.599-7.822-11.468-13.667-2.868-5.844-4.215-12.035-3.794-17.432.451-5.783 2.869-10.033 6.806-11.965 7.876-3.867 18.904 2.987 25.095 15.604 2.868 5.845 4.215 12.036 3.794 17.432-.452 5.784-2.869 10.033-6.806 11.965-1.465.719-3.055 1.075-4.724 1.075zm-12.635-43.088c-1.046 0-2.035.211-2.938.655-2.597 1.274-4.213 4.342-4.549 8.639-.365 4.683.839 10.127 3.392 15.33s6.122 9.486 10.05 12.062c3.603 2.362 7.02 2.96 9.617 1.687 2.597-1.275 4.213-4.343 4.549-8.64.365-4.683-.839-10.127-3.392-15.33-4.213-8.587-11.242-14.403-16.729-14.403z"
                  fill="#252945"/>
        </g>
    </g>
</svg>