<svg id="Layer_1" enable-background="new 0 0 66 66" viewBox="0 0 66 66" xmlns="http://www.w3.org/2000/svg"><g><g><path d="m63.01 40.97c-1.01 1.69-3 2.74-4.96 2.62-2.34-.15-4.3-1.76-6.07-3.31-1.62-1.41-3.24-2.71-4.85-4.09-.2-.16-.39-.33-.59-.5l-26.59 12.24c.02 1.73.24 3.47.33 5.2.02.36.44.29.45.65.03 1.38-.22 3.07-.57 4.41-.45 1.68-1.59 3.42-3 4.44-1.19.87-2.76 1.27-4.21.94-1.53-.35-2.59-1.37-3.4-2.7-.76-1.27-1.22-2.68-1.67-4.08-1.09-3.41-2.43-6.68-3.67-10.01-.54-1.45-1.06-2.9-1.53-4.38-.65-2.04-1.04-4.42-.73-6.53.3-2.06 1-4.55 2.26-6.24 2.14-2.88 6.36-3.25 9.98-3.12.74.03 1.49-.13 2.16-.44l15.95-7.38c.73-.34 1.37-.86 1.85-1.5 1.93-2.56 4.05-3.73 6.76-4.34 3.03-.69 6.5.08 9.05 1.88 2.39 1.7 3.92 4.33 5.37 6.88 2.35 4.12 4.69 8.24 7.04 12.37.18.31 1.26.1 1.44.42.76 2.53.21 4.89-.8 6.57z"/><path d="m14 63.92c-.37 0-.75-.04-1.11-.12-1.44-.33-2.6-1.25-3.55-2.81-.78-1.3-1.24-2.74-1.69-4.14-.77-2.42-1.69-4.81-2.57-7.13-.37-.96-.73-1.91-1.09-2.87-.62-1.67-1.11-3.07-1.54-4.39-.75-2.37-1.02-4.72-.74-6.64.18-1.22.75-4.27 2.3-6.35 2.33-3.14 6.93-3.34 10.19-3.22.69.03 1.4-.12 2.05-.42l15.95-7.38c.69-.32 1.3-.81 1.76-1.43 1.84-2.43 3.9-3.76 6.91-4.43 3.05-.69 6.59.04 9.24 1.92 2.47 1.76 4.05 4.52 5.44 6.96l2.23 3.92c1.6 2.82 3.2 5.63 4.81 8.45.06.05.35.07.53.09.39.03.76.06.91.33.7 2.35.4 4.83-.81 6.85-1.05 1.76-3.13 2.86-5.18 2.73-2.35-.15-4.28-1.68-6.22-3.37-.88-.76-1.76-1.5-2.64-2.23-.74-.62-1.47-1.23-2.21-1.86-.16-.13-.31-.26-.47-.4l-26.31 12.1c.02 1.01.1 2.04.18 3.03.06.67.11 1.33.15 2 0 .05.01.06.12.13.12.08.33.21.33.53.03 1.3-.19 3.01-.58 4.47-.48 1.78-1.66 3.53-3.09 4.57-.98.73-2.15 1.11-3.3 1.11zm-1.08-37.21c-2.98 0-6.61.47-8.52 3.05-1.48 1.99-2.04 4.95-2.21 6.13-.26 1.85-.01 4.13.73 6.43.42 1.31.91 2.7 1.53 4.37.36.96.72 1.91 1.09 2.87.89 2.32 1.81 4.72 2.58 7.15.44 1.37.89 2.79 1.64 4.03.87 1.44 1.94 2.29 3.24 2.59 1.33.31 2.82-.03 4.01-.9 1.33-.96 2.47-2.65 2.91-4.31.37-1.42.59-3.08.56-4.34 0-.04 0-.05-.11-.13-.12-.08-.32-.21-.34-.51-.04-.66-.09-1.33-.15-1.99-.09-1.05-.18-2.15-.19-3.22 0-.1.05-.18.14-.22l26.61-12.24c.09-.04.19-.02.26.04.19.17.38.33.58.49.74.63 1.47 1.25 2.21 1.86.88.73 1.76 1.47 2.64 2.24 1.87 1.63 3.73 3.11 5.93 3.25 1.87.1 3.77-.89 4.73-2.5 1.13-1.88 1.42-4.2.79-6.36-.08-.05-.35-.07-.52-.08-.39-.03-.76-.06-.91-.33-1.61-2.81-3.21-5.63-4.81-8.45l-2.23-3.92c-1.37-2.39-2.92-5.11-5.3-6.8-2.54-1.8-5.93-2.5-8.85-1.84-2.88.65-4.86 1.92-6.62 4.25-.5.68-1.17 1.22-1.94 1.58l-15.95 7.38c-.72.33-1.5.5-2.27.47-.4-.02-.82-.04-1.26-.04z"/></g><g><g><path d="m13.56 26.7-7.57 3.5-1.51-3.26c-.21-.43-.02-.94.41-1.14l6.01-2.78c.43-.2.94-.01 1.14.42z" fill="#fa778d"/></g><g><path d="m43.78 12.71-7.57 3.5-1.51-3.26c-.2-.43-.01-.94.42-1.14l6.01-2.78c.43-.2.94-.01 1.14.42z" fill="#fa778d"/></g><g><path d="m63.42 39.28c-1.01 1.69-3 2.74-4.96 2.62-2.34-.15-4.3-1.76-6.07-3.31-1.62-1.41-3.24-2.71-4.85-4.09-.2-.16-.39-.33-.59-.5l-26.59 12.24c.02 1.73.24 3.47.33 5.2.02.36.04.72.05 1.08.03 1.38-.05 2.77-.41 4.1-.45 1.68-1.35 3.29-2.76 4.31-1.19.87-2.76 1.27-4.21.94-1.53-.35-2.59-1.37-3.4-2.7-.76-1.27-1.21-2.68-1.66-4.09-1.09-3.41-2.43-6.68-3.67-10.01-.54-1.45-1.06-2.9-1.53-4.38-.65-2.04-1.04-4.42-.73-6.53.3-2.06 1.24-3.79 2.49-5.47 2.14-2.88 6.12-4.02 9.75-3.89.74.03 1.49-.13 2.16-.44l15.95-7.38c.73-.34 1.37-.86 1.85-1.5 1.93-2.56 4.05-3.73 6.76-4.34 3.03-.69 6.5.08 9.05 1.88 2.39 1.7 3.92 4.33 5.37 6.88 2.35 4.12 4.69 8.24 7.04 12.37.18.31.36.62.53.93.97 1.7 1.11 4.4.1 6.08z" fill="#d3dc5e"/></g><g><path d="m19.28 50.72c-.53 0-1.06-.1-1.56-.29-1.06-.41-1.95-1.29-2.38-2.34l-.1-.26c-.17-.47-.35-.95-.74-1.09-.26-.09-.56-.02-.89.06-.08.02-.16.04-.23.06-1.17.26-2.47-.05-3.38-.82-.92-.78-1.45-2-1.4-3.19.01-.13.12-.23.25-.23.13.01.24.12.23.25-.05 1.04.42 2.12 1.23 2.79.8.67 1.94.95 2.96.71.07-.02.15-.03.22-.05.36-.09.78-.2 1.17-.05.6.22.83.84 1.03 1.38l.09.25c.38.93 1.17 1.7 2.11 2.07.85.33 1.82.34 2.64.04.13-.05.27.02.31.14.05.13-.02.27-.14.31-.45.18-.94.26-1.42.26z" fill="#c6c945"/></g><g><path d="m58.41 31.4c-1.2 0-2.4-.58-3.12-1.55l-.11-.15c-.17-.24-.33-.47-.55-.52-.31-.08-.6.18-.99.6-.09.09-.18.18-.26.27-.88.86-2.4 1.01-3.44.34-1.06-.68-1.54-2.09-1.12-3.27.04-.13.18-.19.31-.15.13.05.19.18.15.31-.34.96.06 2.15.92 2.7s2.11.43 2.84-.28c.08-.08.17-.16.25-.25.38-.39.85-.89 1.47-.73.39.1.62.43.83.71l.1.14c.73.99 2.05 1.52 3.26 1.31.84-.15 1.62-.65 2.13-1.38.08-.11.23-.14.34-.06s.14.23.06.34c-.58.83-1.47 1.41-2.45 1.58-.2.02-.41.04-.62.04z" fill="#c6c945"/></g><g><path d="m63.42 39.28c-1.01 1.69-3 2.74-4.96 2.62-2.34-.15-4.3-1.76-6.07-3.31-1.62-1.41-3.24-2.71-4.85-4.09.26-.4.75-.68 1.24-.7.78-.03 1.49.42 2.06.95.58.53 1.07 1.15 1.72 1.58.64.44 1.51.65 2.19.28.55-.3.85-.89 1.2-1.4.35-.52.87-1.01 1.49-.96.85.08 1.24 1.1 1.96 1.57.74.48 1.79.28 2.44-.31.65-.6.94-1.51.97-2.39.01-.28-.01-.57-.04-.85.18.31.36.62.53.93.99 1.7 1.13 4.4.12 6.08z" fill="#c6c945"/></g><g><path d="m20.74 52.52c.03 1.38-.05 2.77-.41 4.1-.45 1.68-1.35 3.29-2.76 4.31-1.19.87-2.76 1.27-4.21.94-1.53-.35-2.59-1.37-3.4-2.7-.76-1.27-1.21-2.68-1.66-4.09-1.09-3.41-2.43-6.68-3.67-10.01.5-.08 1.06.06 1.48.35.73.49 1.15 1.32 1.47 2.14.31.82.55 1.68 1.04 2.41.5.73 1.32 1.31 2.19 1.23 1.11-.1 2.12-1.23 3.16-.84.68.25.99 1.04 1.07 1.76.08.73.01 1.48.26 2.15.3.79 1.07 1.39 1.91 1.48.85.09 1.72-.32 2.19-1.03.33-.49.45-1.09.75-1.6.14-.24.35-.46.59-.6z" fill="#c6c945"/></g><g><path d="m14.41 62.23c-.37 0-.75-.04-1.11-.12-1.44-.33-2.6-1.25-3.55-2.81-.78-1.3-1.24-2.74-1.69-4.14-.77-2.42-1.69-4.81-2.57-7.13-.37-.96-.73-1.91-1.09-2.87-.63-1.69-1.12-3.08-1.54-4.39-.75-2.37-1.02-4.72-.74-6.64.27-1.87 1.05-3.59 2.54-5.58 1.97-2.65 5.69-4.14 9.95-3.98.69.03 1.4-.12 2.05-.42l15.95-7.38c.69-.32 1.3-.81 1.75-1.43 1.64-2.17 3.47-3.46 5.94-4.18.13-.04.26.04.3.16.04.13-.04.26-.17.3-2.37.69-4.12 1.93-5.69 4.01-.5.68-1.17 1.22-1.94 1.58l-15.95 7.38c-.72.33-1.51.49-2.27.47-4.09-.15-7.66 1.26-9.54 3.79-1.44 1.93-2.19 3.58-2.45 5.36-.26 1.85-.01 4.13.73 6.43.42 1.3.9 2.69 1.53 4.37.36.96.72 1.91 1.09 2.87.89 2.32 1.81 4.72 2.58 7.15.44 1.37.89 2.78 1.64 4.03.87 1.44 1.94 2.29 3.24 2.59 1.33.31 2.82-.03 4.01-.9 1.25-.9 2.19-2.39 2.67-4.17.31-1.16.43-2.44.4-4.04-.01-.36-.03-.72-.05-1.07-.04-.67-.09-1.33-.15-1.99-.09-1.05-.18-2.14-.19-3.22 0-.1.05-.18.14-.22l26.61-12.24c.09-.04.19-.03.26.04.19.17.38.33.58.49.74.63 1.47 1.25 2.21 1.86.88.73 1.76 1.47 2.64 2.24 1.87 1.63 3.73 3.11 5.93 3.25 1.87.11 3.77-.89 4.73-2.5.92-1.54.88-4.11-.11-5.84l-.53-.93c-1.53-2.69-3.06-5.37-4.59-8.06l-.96-1.69c-.07-.12-.03-.27.09-.33.12-.07.27-.03.33.09l.96 1.7c1.53 2.69 3.06 5.37 4.59 8.06l.53.93c1.06 1.87 1.1 4.65.1 6.33-1.05 1.76-3.13 2.85-5.18 2.73-2.35-.15-4.28-1.68-6.22-3.37-.88-.76-1.76-1.5-2.64-2.23-.74-.62-1.47-1.23-2.21-1.86-.16-.13-.31-.26-.47-.4l-26.28 12.08c.02 1.01.1 2.03.18 3.03.06.67.11 1.34.15 2.01.02.36.04.73.05 1.09.04 1.64-.1 2.97-.41 4.17-.51 1.9-1.52 3.47-2.85 4.44-.98.71-2.16 1.1-3.31 1.1z"/></g><g><circle cx="13.24" cy="36.36" fill="#b2b234" r="8.79"/></g><g><circle cx="44.07" cy="22.09" fill="#b2b234" r="8.79"/></g><g><path d="m17.56 33.03.72 1.56c.2.43.01.92-.41 1.11l-2.44 1.13 1.15 2.48c.19.4.01.86-.38 1.05l-1.66.77c-.4.19-.86.01-1.05-.39l-1.15-2.48-2.43 1.13c-.42.19-.91.01-1.11-.42l-.72-1.56c-.19-.42-.02-.92.41-1.11l2.43-1.13-1.14-2.47c-.18-.39-.01-.86.39-1.04l1.66-.77c.39-.18.86-.01 1.04.38l1.15 2.48 2.44-1.13c.4-.2.91-.01 1.1.41z" fill="#ff7a43"/></g><g><path d="m16.17 38.42.41.89c.19.4.01.86-.38 1.05l-1.66.77c-.4.19-.86.01-1.05-.39l-1.15-2.48-2.43 1.13c-.42.19-.91.01-1.11-.42l-.72-1.56c-.19-.42-.02-.92.41-1.11l.97-.45c0 .39.21.78.55.98.39.23.93.19 1.28-.1.2-.16.34-.38.56-.51.46-.27 1.07.01 1.4.42.34.41.5.94.77 1.39.28.46.76.87 1.28.79.32-.04.6-.24.87-.4z" fill="#f26636"/></g><g><circle cx="41.93" cy="18.6" fill="#fff" r="1.43"/></g><g><circle cx="45.95" cy="25.03" fill="#fff" r="1.43"/></g><g><path d="m28.52 18.75 4.55 9.83c.24.51.01 1.11-.49 1.34l-5.71 2.64c-.5.23-1.1.02-1.34-.49l-4.55-9.83c-.23-.5-.01-1.11.49-1.34l5.71-2.64c.5-.23 1.11-.01 1.34.49z" fill="#1b38ab"/></g><g><path d="m28.31 24.14c-.66 0-1.3-.31-1.63-.84-.09-.14-.15-.29-.21-.44-.04-.11-.09-.22-.15-.32s-.22-.35-.43-.37c-.15-.01-.31.08-.49.19-.11.07-.23.14-.35.19-.57.25-1.29.09-1.84-.39-.47-.4-.75-.95-1.03-1.47-.06-.12-.02-.27.1-.33s.27-.02.33.1c.25.49.52.99.92 1.33.34.3.88.51 1.33.31.1-.04.19-.1.29-.16.22-.14.48-.29.79-.26.32.03.61.25.81.61.07.12.12.25.17.37.05.13.1.25.18.37.32.51 1.04.74 1.68.54.51-.16.98-.55 1.31-1.11.07-.12.22-.15.33-.08.12.07.15.22.09.33-.39.66-.96 1.14-1.59 1.33-.2.07-.4.1-.61.1z" fill="#142f84"/></g><g><path d="m31.72 25.66 1.35 2.92c.24.51.01 1.11-.49 1.34l-5.71 2.64c-.5.23-1.1.02-1.34-.49l-3.46-7.48c.42-.2.98-.19 1.39.05.66.38 1.01 1.11 1.29 1.81.14.33.26.67.51.93.24.26.64.4.96.25.54-.26.53-1.15 1.07-1.4.4-.19.88.09 1.15.43.28.35.46.77.79 1.07.38.32.95.41 1.41.22.46-.18.8-.64.86-1.14.05-.41-.05-.88.22-1.15z" fill="#142f84"/></g><g><path d="m32.08 30.39c-.09 0-.18-.05-.22-.14-.06-.12 0-.27.12-.32l.49-.23c.18-.08.33-.24.4-.43s.06-.4-.02-.59l-4.55-9.83c-.18-.38-.63-.55-1.01-.37l-5.71 2.64c-.38.18-.55.63-.37 1.01l3.15 6.82c.06.12 0 .27-.12.32-.12.06-.27 0-.32-.12l-3.15-6.82c-.29-.63-.02-1.37.61-1.66l5.71-2.64c.63-.29 1.37-.02 1.66.61l4.55 9.83c.14.3.15.64.04.96-.12.31-.35.56-.65.7l-.49.23c-.05.02-.08.03-.12.03z"/></g><g><circle cx="24.12" cy="43.38" r="5.68"/></g><g><circle cx="23.81" cy="41.72" fill="#509dff" r="5.68"/></g><g><circle cx="23.81" cy="41.72" fill="#2485dd" r="3.41"/></g><g><circle cx="41.18" cy="35.12" r="5.68"/></g><g><circle cx="41.18" cy="33.69" fill="#509dff" r="5.68"/></g><g><circle cx="41.18" cy="33.69" fill="#2485dd" r="3.41"/></g><g><g><path d="m6.32 12.26 1.97-.91c1.19-.55 2.59-.03 3.14 1.15l.5 1.07c.55 1.19.03 2.61-1.16 3.16l-.58.27c-.1.05-.14.16-.1.26l1.53 3.32c.05.1 0 .22-.1.26l-1.01.47c-.1.05-.22 0-.26-.1l-4.02-8.7c-.05-.08-.01-.2.09-.25zm3.8 3.21c.46-.21.67-.77.45-1.23l-.51-1.11c-.21-.46-.77-.67-1.23-.45l-.53.25c-.1.05-.14.16-.1.26l1.13 2.44c.05.1.16.14.26.1z" fill="#1b38ab"/></g><g><path d="m11.77 9.74 1.01-.47c.1-.05.22 0 .26.1l3.43 7.4c.05.1.16.14.26.1l2.09-.97c.1-.05.22 0 .26.1l.43.94c.05.1 0 .22-.1.26l-3.46 1.6c-.1.05-.22 0-.26-.1l-4.01-8.7c-.05-.09-.01-.21.09-.26z" fill="#1b38ab"/></g><g><path d="m22.41 13.38-1.17.54c-.09.04-.13.14-.11.23l.53 1.82c.03.09-.02.19-.11.23l-1.01.47c-.11.05-.24-.01-.27-.13l-2.58-9.37c-.03-.09.02-.19.11-.23l1.53-.71c.09-.04.19-.01.25.07l5.47 8.03c.07.1.03.24-.08.29l-1.03.48c-.09.04-.19.01-.25-.07l-1.04-1.58c-.04-.08-.15-.11-.24-.07zm-.84-1.21c.11-.05.15-.19.08-.29l-2.19-3.34 1.13 3.83c.03.12.16.17.27.12z" fill="#1b38ab"/></g><g><path d="m26.09 3.41.57 5.81c0 .02.01.04.02.06l1.66 3.58c.05.1 0 .22-.1.26l-1.01.47c-.1.05-.22 0-.26-.1l-1.67-3.58c-.01-.02-.02-.04-.04-.05l-4.06-4.19c-.09-.1-.06-.26.06-.32l1.08-.5c.08-.04.17-.02.23.05l2.14 2.38c.13.14.37.03.34-.16l-.41-3.19c-.01-.09.03-.17.11-.2l1.05-.49c.13-.05.27.03.29.17z" fill="#1b38ab"/></g><g><path d="m28.55 2.19 1.24 2.68 1.56 3.98-.74.34c-.09.04-.21.01-.26-.09l-1.93-3.6-1.24-2.68c-.05-.1 0-.22.1-.26l1.01-.47c.1-.04.22.01.26.1zm3.56 7.69.47 1.01c.05.1 0 .22-.1.26l-1.01.47c-.1.05-.22 0-.26-.1l-.47-1.01c-.05-.1 0-.22.1-.26l1.01-.47c.1-.04.21 0 .26.1z" fill="#1b38ab"/></g></g><g><g><path d="m11.4 20.36c-.09 0-.18-.05-.22-.14l-1.32-2.85c-.1-.22-.01-.48.21-.58l.58-.27c.52-.24.91-.67 1.11-1.2.2-.54.17-1.12-.07-1.63l-.5-1.07c-.21-.44-.55-.79-.98-1.01-.12-.06-.17-.21-.11-.33s.2-.17.33-.11c.53.26.96.7 1.21 1.24l.5 1.07c.29.64.32 1.35.08 2.01s-.73 1.18-1.36 1.48l-.54.25 1.3 2.8c.06.12 0 .27-.12.32-.03.01-.06.02-.1.02z" fill="#0f2b70"/></g><g><path d="m16.65 17.13c-.05 0-.1-.01-.15-.03-.11-.04-.2-.12-.25-.23l-2.46-5.32c-.06-.12 0-.27.12-.32.12-.06.27 0 .32.12l2.44 5.28 1.92-.89c.12-.06.27 0 .32.12.06.12 0 .27-.12.32l-1.96.91c-.05.03-.12.04-.18.04z" fill="#0f2b70"/></g><g><path d="m24.19 15.24c-.09 0-.18-.05-.22-.14-.06-.12 0-.27.12-.32l.74-.34-4.93-7.25c-.08-.11-.05-.26.06-.34s.26-.05.34.06l4.97 7.3c.07.11.1.24.06.36-.03.12-.12.23-.24.28l-.79.37c-.04.01-.08.02-.11.02z" fill="#0f2b70"/></g><g><path d="m28.26 12.95c-.09 0-.18-.05-.22-.14l-1.59-3.43c-.02-.05-.03-.1-.04-.15l-.53-5.43c-.01-.13.08-.25.22-.27.14 0 .25.08.27.22l.53 5.44 1.58 3.41c.06.12 0 .27-.12.32-.03.02-.07.03-.1.03z" fill="#0f2b70"/></g><g><path d="m31.23 8.78c-.1 0-.19-.06-.23-.15l-1.43-3.66-1.11-2.4c-.06-.12 0-.27.12-.32.12-.06.27 0 .32.12l1.12 2.42 1.44 3.68c.05.12-.01.27-.14.32-.03-.01-.06-.01-.09-.01z" fill="#0f2b70"/></g></g><g><path d="m9.61 50.34c.4 0 .77.18 1.03.46.27.28.43.67.43 1.1 0-.86.65-1.56 1.45-1.56-.4 0-.76-.18-1.03-.45-.26-.28-.42-.67-.42-1.1 0 .43-.16.82-.43 1.1-.26.27-.62.45-1.03.45z" fill="#fff"/></g><g><path d="m36.85 15.75c.45 0 .85.19 1.14.51s.48.75.48 1.23c0-.96.72-1.74 1.62-1.74-.45 0-.85-.19-1.14-.51s-.47-.75-.47-1.23c0 .48-.18.91-.48 1.23-.3.31-.7.51-1.15.51z" fill="#fff"/></g><g><path d="m11.93 52.49c.2 0 .37.09.5.22.13.14.21.33.21.54 0-.42.32-.76.71-.76-.2 0-.37-.09-.5-.22-.13-.14-.21-.33-.21-.54 0 .21-.08.4-.21.54s-.31.22-.5.22z" fill="#fff"/></g><g><g><path d="m55.78 24.31c-.41.22-1.13-.31-1.63-1.16-.5-.86-.62-1.74-.23-1.99s1.16.25 1.68 1.13c.53.89.59 1.8.18 2.02z" fill="#fff"/></g><g><path d="m56.54 25.75c-.18.09-.44-.06-.59-.33-.14-.28-.12-.58.06-.67.18-.1.45.05.59.33.15.27.12.58-.06.67z" fill="#fff"/></g></g><g><g><path d="m6.21 31.4c.39.27 0 1.5-.42 2.93-.44 1.43-.78 2.66-1.26 2.67-.23 0-.45-.34-.55-.92s-.07-1.39.19-2.24c.52-1.71 1.68-2.7 2.04-2.44z" fill="#fff"/></g><g><path d="m7.88 29.39c.14.16-.04.54-.36.9s-.69.58-.85.47c-.17-.12-.05-.56.31-.96.34-.4.77-.56.9-.41z" fill="#fff"/></g></g></g><g><ellipse cx="47.16" cy="19.8" fill="#fff" rx="1.43" ry="1.43" transform="matrix(.998 -.056 .056 .998 -1.033 2.666)"/></g><g><ellipse cx="40.73" cy="23.82" fill="#fff" rx="1.43" ry="1.43" transform="matrix(.998 -.056 .056 .998 -1.268 2.314)"/></g><g><path d="m14.21 41.44c-.12 0-.24-.02-.35-.06-.26-.09-.46-.29-.58-.54l-1.05-2.26-2.21 1.02c-.55.26-1.18.02-1.44-.53l-.72-1.56c-.25-.54-.01-1.19.53-1.44l2.21-1.02-1.04-2.25c-.24-.51-.01-1.13.51-1.37l1.66-.77c.25-.11.53-.13.78-.03.26.09.46.28.58.53l1.04 2.25 2.22-1.03c.26-.12.55-.13.83-.03.27.1.49.3.61.56l.72 1.56c.25.54.01 1.19-.53 1.44l-2.22 1.03 1.05 2.26c.12.25.13.53.04.79s-.28.46-.53.58l-1.66.77c-.15.07-.3.1-.45.1zm-1.86-3.43c.09 0 .18.05.22.14l1.15 2.48c.06.13.17.24.31.29s.28.04.42-.02l1.66-.77c.13-.06.23-.17.28-.3.05-.14.04-.29-.02-.42l-1.15-2.48c-.06-.12 0-.27.12-.32l2.44-1.13c.3-.14.43-.49.29-.79l-.72-1.56c-.07-.14-.19-.25-.34-.31-.15-.05-.31-.05-.46.02l-2.44 1.13c-.12.06-.27 0-.32-.12l-1.15-2.48c-.06-.13-.17-.23-.3-.28-.14-.05-.28-.04-.41.02l-1.66.77c-.28.12-.4.44-.27.71l1.15 2.48c.03.06.03.13.01.19s-.07.11-.13.14l-2.43 1.12c-.3.14-.43.49-.29.79l.72 1.56c.14.3.49.43.79.29l2.43-1.12c.03-.02.07-.03.1-.03z"/></g></g></svg>