<svg width="308" height="431" viewBox="0 0 308 431" fill="none" xmlns="http://www.w3.org/2000/svg">
<path d="M307.501 222.659C305.049 209.019 300.937 195.981 293.61 184.098C293.06 183.209 293.728 181.959 294.652 182.172C297.938 182.95 302.372 186.264 305.76 188.874C306.534 189.471 307.549 188.63 307.332 187.565C304.773 174.927 300.32 162.569 292.946 150.596C292.305 149.562 293.284 148.226 294.255 148.803C298.63 151.386 302.71 153.233 306.326 153.913C307.073 154.055 307.682 153.229 307.47 152.376C304.259 139.373 298.803 127.51 289.341 117.64C288.496 116.756 289.227 115.172 290.308 115.565C293.685 116.787 296.814 117.337 299.797 117.53C300.52 117.573 301.031 116.752 300.807 115.942C296.082 99.2676 285.336 84.366 268.878 70.9503C268.084 70.3056 268.312 68.9141 269.239 68.7294C273.17 67.9432 276.704 66.5085 279.864 64.4605C280.371 64.1343 280.548 63.3717 280.226 62.7743C277.081 56.937 266.806 51.1902 258.705 49.3349C257.706 49.1069 257.431 47.5621 258.3 47.0197C261.228 45.1801 263.701 42.8452 265.792 40.1054C266.256 39.5001 266.04 38.5017 265.367 38.1361C245.824 27.5073 226.492 20.5301 208.898 26.0057C208.174 26.2298 207.404 25.6008 207.373 24.7518C207.219 20.4083 209.063 16.6701 212.514 13.4154C213.214 12.7551 212.848 11.4225 211.913 11.167C199.684 7.82192 191.425 9.18983 180.152 17.8611C179.995 17.9791 178.926 1.89823 175.663 1.61522C171.323 1.23786 168.367 5.31408 166.492 9.51609C164.625 4.99569 161.65 0.392744 157.243 0.0035962C153.898 -0.283351 156.477 16.6976 156.324 16.5522C144.665 5.86439 132.071 2.07512 118.73 3.37621C117.692 3.47841 117.287 4.81094 118.061 5.63247C121.87 9.65366 123.899 13.8871 123.726 18.4036C123.694 19.2919 122.849 19.8265 122.055 19.4728C102.322 10.7189 79.7008 14.9052 55.7427 23.3367C54.9015 23.6355 54.6303 24.7125 55.212 25.4711C57.8339 28.8791 60.9077 31.8783 64.5319 34.3783C65.6011 35.1173 65.2709 36.7878 64.0288 36.89C53.9345 37.7509 40.8293 42.7115 36.7531 48.9104C36.3364 49.5472 36.5605 50.4395 37.2209 50.8836C41.3167 53.6352 45.8568 55.7224 50.8607 57.1139C52.0399 57.4402 52.3268 59.0282 51.3206 59.6571C30.0629 72.9746 15.7077 89.1183 9.26906 108.206C8.9546 109.138 9.66214 110.136 10.6488 110.124C14.7171 110.101 18.9427 109.661 23.4631 108.466C24.9018 108.084 25.8766 109.959 24.7563 110.926C12.0167 121.854 4.51675 135.529 0.0631742 150.773C-0.231634 151.779 0.617413 152.762 1.65907 152.604C6.66296 151.846 12.2486 149.743 18.1841 146.803C19.493 146.154 20.8059 147.718 19.9451 148.909C9.94516 162.801 3.81707 177.349 0.259713 192.321C-0.0390262 193.587 1.37212 194.538 2.44916 193.799C7.13465 190.599 13.1959 186.562 17.6495 185.56C18.8955 185.281 19.7918 186.708 19.0528 187.757C9.10397 201.916 3.43578 217.474 0.0317272 233.755C-0.211981 234.935 0.994769 235.843 2.06001 235.269C4.48923 233.976 6.67475 232.407 8.68731 230.638C9.76827 229.687 11.3681 230.682 10.9593 232.049C6.32491 247.67 2.73611 257.085 3.4122 268.806C3.46723 269.738 4.39883 270.32 5.29111 269.974C8.09769 268.889 13.8484 266.408 19.1982 262.423C20.4089 261.522 21.9026 262.831 21.2108 264.172C13.42 279.278 11.8084 293.452 10.8807 309.6C10.8139 310.744 12.0403 311.4 13.019 310.752C16.0182 308.751 17.732 307.324 20.1573 305.048C21.1793 304.081 22.7399 304.91 22.4411 306.263C18.6794 323.255 18.6322 340.622 20.8256 358.165C20.9631 359.238 22.221 359.631 23.074 358.88C26.2815 356.058 29.8231 352.119 33.5888 347.418C34.5243 346.25 36.2657 346.97 35.9787 348.401C31.702 369.914 34.1195 381.537 38.6241 390.008C39.029 390.767 40.0785 390.853 40.7468 390.181C45.3065 385.57 48.5612 379.635 50.4558 372.311C50.8332 370.861 52.7985 370.708 53.0894 372.107C56.9966 390.853 66.9415 401.836 81.8077 406.262C81.9689 406.313 82.1418 406.321 82.3148 406.301L243.654 385.79C243.799 385.771 243.945 385.719 244.078 385.645C256.366 378.381 264.389 366.47 267.494 349.002C267.722 347.701 269.282 347.489 269.581 348.711C271.079 354.859 273.622 359.505 277.172 362.697C277.69 363.161 278.5 362.882 278.811 362.139C282.266 353.876 284.113 343.291 280.843 325.185C280.623 323.975 281.959 323.075 282.675 323.955C285.54 327.469 288.217 330.335 290.623 332.269C291.267 332.784 292.207 332.241 292.305 331.294C293.94 315.826 293.905 300.866 291.098 286.668C290.874 285.536 292.038 284.635 292.8 285.351C294.597 287.029 295.866 288.051 298.079 289.419C298.795 289.859 299.695 289.152 299.644 288.185C298.964 274.47 297.781 262.485 292.01 250.178C291.491 249.078 292.612 247.824 293.508 248.504C297.466 251.487 301.672 253.122 303.712 253.806C304.353 254.022 305.033 253.449 305.068 252.655C305.556 242.643 302.965 234.891 299.585 221.845C299.29 220.693 300.457 219.754 301.248 220.513C302.706 221.908 304.294 223.119 306.047 224.082C306.817 224.502 307.682 223.661 307.509 222.678V222.671L307.501 222.659Z" fill="#BC7655"/>
<path d="M282.95 221.645C280.898 210.383 277.455 199.621 271.327 189.841C270.867 189.11 271.425 188.072 272.195 188.253C274.943 188.882 278.654 191.61 281.488 193.756C282.136 194.251 282.985 193.551 282.809 192.671C280.662 182.243 276.94 172.062 270.772 162.219C270.242 161.37 271.055 160.266 271.865 160.729C275.525 162.832 278.937 164.338 281.967 164.88C282.592 164.994 283.103 164.31 282.93 163.603C280.238 152.887 275.67 143.135 267.773 135.069C267.07 134.346 267.679 133.037 268.579 133.352C271.397 134.326 274.011 134.759 276.511 134.888C277.117 134.916 277.545 134.24 277.357 133.568C273.406 119.853 264.436 107.684 250.733 96.8306C250.073 96.3078 250.262 95.164 251.032 94.9989C254.299 94.2992 257.247 93.0728 259.872 91.355C260.297 91.0759 260.442 90.447 260.175 89.9635C257.553 85.1955 249.008 80.6122 242.286 79.1932C241.457 79.0163 241.229 77.7585 241.948 77.2986C244.381 75.7459 246.429 73.7884 248.167 71.5006C248.552 70.9936 248.375 70.176 247.817 69.889C231.618 61.4575 215.655 56.0487 201.178 60.8089C200.588 61.0055 199.952 60.5023 199.924 59.8066C199.798 56.261 201.312 53.1675 204.146 50.4552C204.72 49.9049 204.417 48.824 203.647 48.6274C193.611 46.1039 188.867 49.9403 179.661 57.2005C179.535 57.2987 176.638 41.6346 173.973 41.4655C170.439 41.2376 168.03 44.6062 166.501 48.0653C164.972 44.4136 162.546 40.7187 158.969 40.4907C156.257 40.3138 163.285 56.3593 163.159 56.2453C153.686 47.7469 138.568 42.6173 127.794 43.9026C126.957 44.0009 126.631 45.0937 127.252 45.7422C130.322 48.9301 131.957 52.3302 131.819 55.9976C131.792 56.717 131.112 57.1651 130.471 56.8899C114.579 50.1251 96.4423 53.8829 77.319 61.0566C76.6469 61.3042 76.4307 62.1808 76.8945 62.7822C78.9778 65.4866 81.4306 67.8568 84.3237 69.8143C85.1767 70.3922 84.9094 71.7444 83.9228 71.8466C75.8804 72.6799 65.4599 76.8622 62.2248 81.8976C61.8907 82.4164 62.0755 83.1279 62.6022 83.4817C65.853 85.6397 69.4575 87.2631 73.4354 88.3165C74.371 88.5642 74.5989 89.8417 73.801 90.3566C56.9261 101.32 45.5701 114.433 40.4915 129.79C40.2439 130.537 40.8021 131.327 41.5804 131.319C44.7918 131.264 48.1291 130.875 51.71 129.877C52.846 129.558 53.6204 131.06 52.7281 131.842C42.6574 140.702 36.7455 151.712 33.2353 163.949C33.0034 164.758 33.6716 165.537 34.4932 165.403C38.4357 164.766 42.8461 163.052 47.5316 160.667C48.5654 160.14 49.6031 161.386 48.927 162.345C41.0301 173.528 36.1952 185.21 33.3965 197.207C33.1606 198.221 34.2691 198.98 35.1182 198.39C38.8092 195.816 43.5929 192.569 47.111 191.751C48.0937 191.523 48.8012 192.671 48.2195 193.508C40.3579 204.88 35.8925 217.344 33.2117 230.383C33.0191 231.326 33.9664 232.053 34.8076 231.597C36.718 230.568 38.4475 229.31 40.0277 227.895C40.8807 227.132 42.1464 227.93 41.8202 229.027C38.1606 241.535 35.3344 249.066 35.8689 258.46C35.9122 259.207 36.6472 259.675 37.3469 259.404C39.5639 258.551 44.0961 256.582 48.3256 253.405C49.2847 252.686 50.4679 253.744 49.9176 254.817C43.762 266.9 42.4884 278.252 41.7573 291.188C41.7062 292.1 42.6731 292.639 43.4436 292.124C45.8138 290.543 47.166 289.407 49.0803 287.603C49.894 286.837 51.1243 287.513 50.8845 288.594C47.9089 302.194 47.8696 316.129 49.607 330.225C49.7132 331.09 50.7116 331.416 51.3877 330.818C53.927 328.59 56.7296 325.465 59.7131 321.73C60.456 320.803 61.8357 321.396 61.6116 322.544C58.2233 339.78 60.1376 349.148 63.7067 356.015C64.0251 356.628 64.8624 356.718 65.3891 356.188C69.0094 352.544 71.5958 347.811 73.1092 341.942C73.4079 340.779 74.9724 340.681 75.2082 341.809C78.3175 356.954 86.2458 365.94 98.1286 369.737C98.2544 369.776 98.3959 369.792 98.5335 369.776L229.798 355.453C229.92 355.437 230.038 355.397 230.152 355.335C240.325 349.541 246.979 339.855 249.562 325.531C249.755 324.466 251.048 324.305 251.295 325.311C252.542 330.39 254.656 334.238 257.612 336.911C258.041 337.3 258.717 337.076 258.98 336.471C261.857 329.706 263.398 321.007 260.67 306.062C260.486 305.06 261.602 304.341 262.195 305.068C264.585 307.992 266.818 310.378 268.827 311.994C269.361 312.422 270.147 311.99 270.23 311.208C271.598 298.472 271.57 286.129 269.224 274.4C269.035 273.46 270.006 272.729 270.647 273.327C272.148 274.722 273.206 275.575 275.057 276.711C275.658 277.077 276.405 276.503 276.366 275.701C275.8 264.38 274.809 254.482 269.986 244.317C269.554 243.409 270.489 242.38 271.24 242.938C274.55 245.41 278.068 246.774 279.774 247.344C280.316 247.525 280.879 247.057 280.91 246.397C281.319 238.134 279.149 231.731 276.323 220.957C276.071 220.006 277.054 219.231 277.71 219.856C278.933 221.012 280.261 222.01 281.731 222.804C282.376 223.15 283.103 222.458 282.954 221.649V221.637L282.95 221.645Z" fill="#A16143"/>
<path d="M307.505 222.659C305.056 209.019 300.941 195.981 293.614 184.098C293.064 183.209 293.732 181.96 294.656 182.172C297.942 182.95 302.376 186.264 305.764 188.874C306.538 189.471 307.553 188.63 307.336 187.565C304.777 174.927 300.324 162.569 292.95 150.596C292.313 149.562 293.288 148.226 294.259 148.803C298.634 151.386 302.714 153.233 306.33 153.913C307.077 154.055 307.686 153.229 307.478 152.376C304.266 139.373 298.81 127.51 289.349 117.64C288.504 116.756 289.235 115.172 290.316 115.565C293.693 116.787 296.822 117.337 299.805 117.53C300.528 117.573 301.039 116.752 300.815 115.942C296.09 99.2676 285.344 84.366 268.885 70.9503C268.091 70.3056 268.315 68.9141 269.247 68.7294C273.178 67.9432 276.712 66.5085 279.876 64.4606C280.383 64.1343 280.56 63.3717 280.238 62.7743C277.093 56.937 266.818 51.1902 258.716 49.3349C257.718 49.1069 257.443 47.5621 258.312 47.0197C261.24 45.1801 263.713 42.8452 265.8 40.1054C266.264 39.5001 266.047 38.5017 265.379 38.1361C245.835 27.5073 226.504 20.5301 208.91 26.0057C208.186 26.2298 207.416 25.6008 207.384 24.7518C207.227 20.4083 209.075 16.6701 212.526 13.4154C213.226 12.7551 212.86 11.4225 211.924 11.167C199.696 7.82192 191.437 9.18983 180.164 17.8611C180.007 17.9791 178.937 1.89823 175.675 1.61522C171.335 1.23786 168.379 5.31408 166.504 9.51609C164.625 4.99569 161.65 0.392744 157.243 0.0035962C153.898 -0.283351 156.477 16.6976 156.324 16.5522C144.665 5.86439 132.071 2.07512 118.73 3.37621C117.692 3.47841 117.287 4.81094 118.061 5.63248C121.87 9.65367 123.899 13.8871 123.726 18.4036C123.694 19.2919 122.849 19.8265 122.055 19.4728C102.322 10.7189 79.7008 14.9052 55.7427 23.3367C54.9015 23.6355 54.6303 24.7125 55.212 25.4711C57.8339 28.8791 60.9077 31.8783 64.5319 34.3783C65.6011 35.1173 65.2709 36.7879 64.0288 36.8901C53.9345 37.7509 40.8254 42.7115 36.7531 48.9104C36.3364 49.5472 36.5605 50.4395 37.2209 50.8836C41.3167 53.6352 45.8568 55.7224 50.8607 57.1139C52.0399 57.4402 52.3268 59.0282 51.3206 59.6571C30.0629 72.9746 15.7077 89.1184 9.26906 108.206C8.9546 109.138 9.66214 110.136 10.6488 110.124C14.7171 110.101 18.9427 109.661 23.4631 108.466C24.9018 108.084 25.8766 109.959 24.7563 110.926C12.0167 121.854 4.51675 135.529 0.0631742 150.773C-0.231634 151.779 0.617413 152.762 1.65907 152.604C6.66296 151.846 12.2486 149.743 18.1841 146.803C19.493 146.154 20.8059 147.718 19.9451 148.909C9.94516 162.801 3.81707 177.357 0.259713 192.321C-0.0390262 193.587 1.37212 194.538 2.44916 193.799C7.13465 190.599 13.1959 186.562 17.6495 185.56C18.8955 185.281 19.7918 186.708 19.0528 187.757C9.10397 201.916 3.43578 217.474 0.0317272 233.755C-0.211981 234.935 0.994769 235.843 2.06001 235.269C4.48923 233.976 6.67475 232.407 8.68731 230.638C9.76827 229.687 11.3681 230.682 10.9593 232.049C6.32491 247.67 2.73611 257.085 3.4122 268.806C3.46723 269.738 4.39883 270.32 5.29111 269.974C8.09769 268.889 13.8484 266.408 19.1982 262.423C19.5323 262.175 71.8235 242.69 71.8235 242.69L252.356 237.03C252.356 237.03 293.276 248.303 293.5 248.472C297.458 251.456 301.664 253.091 303.704 253.775C304.349 253.991 305.025 253.417 305.06 252.623C305.548 242.611 302.953 234.86 299.577 221.814C299.282 220.662 300.45 219.723 301.24 220.481C302.698 221.877 304.286 223.087 306.039 224.05C306.81 224.471 307.674 223.63 307.501 222.647H307.505V222.659Z" fill="#BC7655"/>
<path d="M263.162 43.2107C265.25 41.2924 266.861 39.1816 265.379 38.1321C246.677 28.258 229.13 20.7502 210.164 25.6636C207.825 26.7879 205.6 28.3051 204.44 30.8208C205.698 31.9843 207.389 32.6526 209.562 32.515C214.802 31.1038 219.869 30.1212 225.792 30.6597C233.654 31.2375 242.388 33.7689 252.699 38.4859C254.633 39.3703 256.59 40.1604 258.567 40.8561C260.167 41.4222 261.724 42.2319 263.166 43.2146H263.162V43.2107Z" fill="#EB936A"/>
<path d="M285.854 122.228C290.634 127.196 294.502 132.947 297.537 139.613C299.565 144.079 302.321 148.025 305.729 151.068C306.354 151.63 306.959 152.137 307.497 152.542L307.513 152.526C304.427 139.967 299.258 127.459 289.345 117.64C287.199 116.253 283.846 114.916 283.846 114.916C283.292 117.294 283.771 120.014 285.847 122.224H285.851L285.854 122.228Z" fill="#EB936A"/>
<path d="M288.724 180.261C288.602 180.58 301.354 210.446 307.505 222.659C305.524 208.017 299.754 194.157 293.449 183.697C291.715 182.081 290.587 181.669 288.72 180.258L288.724 180.261Z" fill="#EB936A"/>
<path d="M306.763 187.305C306.96 187.541 307.156 187.769 307.36 187.993C308.371 181.409 296.59 155.427 292.954 150.596C292.628 150.069 292.726 149.456 293.025 149.067C291.865 147.781 284.652 140.183 284.652 140.183C284.947 144.35 287.498 152.313 288.662 154.196C291.771 159.228 294.405 164.436 296.594 169.888C299.177 176.331 302.537 182.29 306.767 187.301H306.763V187.305Z" fill="#EB936A"/>
<path d="M291.252 106.115C292.404 108.407 293.933 110.408 295.78 111.941C295.788 111.948 295.8 111.956 295.808 111.964C297.407 113.289 299.121 114.382 300.729 115.671C296.165 99.8024 286.134 85.5415 270.91 72.6485C270.517 72.4795 269.267 71.143 268.878 70.9543C266.999 70.0542 263.276 69.8026 262.946 69.8105C263.001 72.2318 264.07 74.5628 265.875 76.029C276.873 85.1091 285.234 94.1538 291.248 106.115H291.252Z" fill="#EB936A"/>
<path d="M275.273 64.4882C275.993 64.9874 276.7 65.5023 277.412 66.0251C279.342 65.0817 280.71 63.9693 280.242 62.7783C275.191 53.5684 261.366 50.2076 258.457 48.8201C257.388 48.6117 256.311 48.4191 255.238 48.258C254.283 48.1125 253.32 48.1204 252.377 48.2776H252.361C252.51 51.4969 254.369 54.6062 257.935 55.526C262.872 56.6384 273.905 63.5369 275.277 64.4882H275.273Z" fill="#EB936A"/>
<path d="M203.784 9.693C194.425 8.90684 188.914 11.1238 180.16 17.8651C180.023 17.8651 178.926 1.90219 175.671 1.61917C171.414 1.24968 168.38 5.40059 166.501 9.52005C164.661 4.80311 161.568 0.388839 157.244 0.00362266C153.911 -0.283324 156.466 16.5719 156.324 16.5522C147.295 8.27399 137.712 4.13881 127.653 3.29369C125.88 3.51774 115.699 1.65455 118.066 5.6325C118.243 5.81725 118.412 6.00986 118.581 6.1946C120.326 6.46976 122.083 6.67416 123.789 7.10655C143.093 12.0554 158.682 27.865 160.404 28.4075L162.315 15.0978L166.505 24.6653L170.675 15.7582L175.168 29.4727C176.858 29.1857 189.335 15.7464 207.33 13.9382C208.882 13.781 210.474 13.8557 212.062 13.8596C212.216 13.7063 212.365 13.557 212.526 13.4037C214.657 9.99567 205.416 10.1804 203.788 9.68514H203.784V9.693Z" fill="#EB936A"/>
<path d="M58.5184 29.3822C55.9084 26.8979 53.8801 24.2643 55.7433 23.3406C78.6912 15.5891 99.316 10.5105 120.676 18.9263C123.251 20.4789 125.68 22.4247 126.945 25.2273C125.574 26.2493 123.73 26.6896 121.344 26.21C115.546 23.9105 109.866 22.0631 103.149 21.6857C94.0881 21.0214 83.8209 22.3382 71.4232 25.8209C69.0608 26.4852 66.663 27.0434 64.2298 27.4954C62.2487 27.8649 60.3187 28.5174 58.5145 29.3822H58.5184Z" fill="#EB936A"/>
<path d="M29.3948 116.426C23.0466 121.897 17.8579 128.387 13.7503 136.036C10.983 141.19 7.20945 145.745 2.50037 149.263C1.63167 149.912 0.790479 150.505 0.0357684 150.977L0.0161133 150.961C4.29674 136.237 11.4036 121.787 24.7604 110.942C27.6102 109.48 32.0284 108.163 32.0284 108.163C32.7517 110.922 32.1267 114.008 29.3948 116.426Z" fill="#EB936A"/>
<path d="M25.602 183.17C25.7631 183.536 8.54237 218.881 0.0322266 233.755C2.78377 216.33 10.7318 199.719 19.2734 187.29C21.6044 185.364 23.1098 184.853 25.598 183.166L25.602 183.17Z" fill="#EB936A"/>
<path d="M1.06598 191.987C0.790827 192.27 0.515673 192.549 0.240518 192.828C-1.1667 185.089 15.0478 154.48 19.9534 148.918C20.3897 148.308 20.2639 147.605 19.8591 147.145C21.4117 145.679 30.991 137.098 30.991 137.098C30.6019 141.87 27.2332 150.977 25.6884 153.131C21.5375 158.917 17.9998 164.955 15.0438 171.327C11.5297 178.886 6.92678 185.949 1.06991 191.995H1.06598V191.987Z" fill="#EB936A"/>
<path d="M22.2174 97.4791C20.6765 100.038 18.6207 102.247 16.1207 103.89C16.105 103.898 16.0971 103.906 16.0814 103.914C13.9116 105.341 11.5767 106.492 9.37549 107.896C15.594 89.7354 29.0097 74.2442 48.7344 61.3198C49.2375 61.1783 50.8177 59.8261 51.313 59.665C53.6833 58.8867 58.353 59.0675 58.7658 59.1186C58.6989 61.819 57.3625 64.2954 55.0983 65.7223C41.0969 74.7434 30.1929 84.2245 22.2056 97.4791H22.2134H22.2174Z" fill="#EB936A"/>
<path d="M43.1761 51.5362C42.2523 52.004 41.3365 52.4993 40.4245 52.9945C37.9206 51.662 36.1518 50.1998 36.7571 48.9065C43.294 39.1621 60.7624 37.4601 64.363 36.3477C65.6837 36.273 67.0005 36.2258 68.3252 36.2062C69.4926 36.1905 70.6679 36.3438 71.8157 36.6543H71.8354C71.6506 40.1841 69.3904 43.3484 65.0116 43.8673C58.8874 44.4097 44.9488 50.6321 43.1879 51.5244H43.18L43.1761 51.5362Z" fill="#EB936A"/>
<path d="M282.95 222.895C280.898 212.026 277.455 201.653 271.327 192.215C270.867 191.507 271.429 190.513 272.199 190.686C274.947 191.295 278.658 193.921 281.492 195.992C282.144 196.468 282.989 195.788 282.809 194.943C280.662 184.892 276.94 175.065 270.772 165.584C270.238 164.758 271.044 163.689 271.865 164.145C275.529 166.181 278.937 167.628 281.967 168.151C282.592 168.257 283.103 167.6 282.926 166.916C280.234 156.571 275.662 147.16 267.75 139.377C267.046 138.685 267.675 137.432 268.575 137.734C271.397 138.678 274.008 139.09 276.507 139.22C277.113 139.248 277.541 138.595 277.349 137.946C273.402 124.719 264.428 112.982 250.725 102.514C250.069 102.011 250.25 100.903 251.02 100.749C254.295 100.077 257.235 98.8942 259.868 97.2314C260.301 96.9563 260.427 96.3313 260.152 95.8517C257.506 91.2684 248.984 86.8581 242.278 85.502C241.437 85.333 241.233 84.1105 241.952 83.6663C244.373 82.1687 246.421 80.2898 248.155 78.0885C248.54 77.5972 248.363 76.811 247.809 76.528C231.61 68.3991 215.647 63.1791 201.17 67.7702C200.569 67.9589 199.94 67.4597 199.916 66.7757C199.798 63.3638 201.312 60.3921 204.142 57.7782C204.708 57.2515 204.425 56.2059 203.662 56.0211C193.623 53.5801 188.875 57.279 179.657 64.2836C179.531 64.378 176.634 49.272 173.969 49.1069C170.435 48.8867 171.151 52.3144 169.626 55.6516C168.093 52.1296 162.546 48.3875 158.961 48.1635C156.249 47.9945 163.277 63.4699 163.152 63.3599C153.674 55.1603 138.549 50.2114 127.775 51.4575C126.949 51.5518 126.635 52.6053 127.252 53.2303C130.318 56.3002 131.953 59.5706 131.819 63.0926C131.796 63.7962 131.116 64.2482 130.467 63.977C114.575 57.4559 96.4384 61.0761 77.3151 67.9943C76.643 68.238 76.4268 69.0831 76.8906 69.6609C78.97 72.267 81.4189 74.5469 84.3001 76.4337C85.161 76.9958 84.9094 78.3047 83.9149 78.403C75.8883 79.2088 65.5031 83.2221 62.2406 88.0649C61.8986 88.5719 62.0558 89.2834 62.5865 89.6254C65.8373 91.7087 69.4457 93.2731 73.4237 94.2873C74.3592 94.5271 74.5793 95.7574 73.7814 96.2566C56.9104 106.83 45.5505 119.476 40.4719 134.291C40.2243 135.018 40.7785 135.777 41.5568 135.765C44.7683 135.714 48.1055 135.336 51.6864 134.377C52.8224 134.071 53.6165 135.498 52.7281 136.252C42.6456 144.802 36.7298 155.423 33.2118 167.235C32.9798 168.017 33.6441 168.772 34.4657 168.642C38.4083 168.029 42.8186 166.378 47.5041 164.074C48.5457 163.559 49.5795 164.762 48.8956 165.694C40.9986 176.48 36.1716 187.746 33.3651 199.314C33.1292 200.293 34.2377 201.028 35.0867 200.458C38.7777 197.977 43.5615 194.845 47.0796 194.054C48.0623 193.834 48.7737 194.935 48.192 195.749C40.3304 206.716 35.865 218.74 33.1803 231.314C32.9877 232.222 33.9429 232.922 34.788 232.482C36.6984 231.487 38.424 230.281 40.0041 228.917C40.8571 228.182 42.1228 228.952 41.7966 230.009L38.8053 252.596C38.3965 255.662 41.5411 257.824 44.3948 256.444L71.7924 243.193L252.325 237.733L275.949 245.43C278.28 246.444 280.753 244.023 280.195 241.287L276.283 222.211C276.036 221.291 277.015 220.548 277.675 221.149C278.897 222.262 280.226 223.229 281.688 223.991C282.333 224.325 283.064 223.661 282.915 222.879L282.938 222.899L282.95 222.895Z" fill="#A16143"/>
<path d="M258.033 409.281C258.005 415.44 255.387 416.387 253.068 416.639C251.358 416.824 249.586 417.751 247.722 418.848C240.572 423.042 233.564 421.1 233.564 421.1C231.72 421.25 229.802 421.38 227.821 421.49C227.821 421.49 225.458 422.673 221.842 422.783C203.029 423.361 192.597 414.245 192.228 405.621C191.811 395.92 209.15 388.326 216.425 388.377C235.246 388.514 258.08 397.736 258.025 409.285H258.029L258.033 409.281Z" fill="#E89C4C"/>
<path d="M232.459 405.924C231.256 404.029 229.711 402.413 227.99 401.057C228.721 401.867 229.417 402.704 230.018 403.608C231.783 406.211 232.888 409.434 232.844 412.575C232.884 416.053 231.091 420.664 227.825 421.482C229.806 421.368 231.724 421.242 233.568 421.093C236.009 416.38 235.25 410.263 232.459 405.928V405.924Z" fill="#836138"/>
<path d="M248.438 403.152C246.94 401.647 245.179 400.448 243.277 399.729C245.038 400.77 246.512 402.217 247.675 403.856C248.835 405.499 249.692 407.339 250.16 409.237C251.068 412.7 250.447 416.647 247.723 418.844C249.778 418.247 251.575 417.52 253.061 416.635C253.151 416.199 253.222 415.762 253.253 415.322C253.615 410.637 251.516 406.285 248.434 403.152H248.438Z" fill="#836138"/>
<path d="M227.824 219.18C227.824 233.15 229.153 245.516 232.345 260.041C241.948 303.719 271.794 339.914 243.618 383.923C238.044 392.63 232.054 398.027 222.899 402.425C190.391 418.05 113.36 416.627 83.541 394.536C22.3427 349.195 103.961 276.475 103.961 222.03C103.961 162.538 227.82 170.804 227.82 219.184L227.824 219.18Z" fill="#FFD183"/>
<path d="M61.7294 341.203C58.5298 360.92 62.9558 379.273 83.5453 394.532C113.364 416.623 190.396 418.046 222.903 402.421C232.05 398.027 238.041 392.63 243.618 383.919C246.641 379.19 249 374.556 250.784 369.989C228.949 395.169 83.3251 410.393 61.7255 341.196L61.7294 341.203Z" fill="#FBB96D"/>
<path d="M103.966 222.03C103.966 227.796 103.046 233.775 101.481 239.899C101.481 247.065 228.945 247.085 228.953 239.919C228.182 233.091 227.829 226.346 227.829 219.18C227.829 170.804 103.97 162.534 103.97 222.026H103.966V222.03Z" fill="#FBB96D"/>
<path d="M274.074 123.293L273.123 124.696C273.681 123.124 274.888 121.634 275.843 120.289C277.023 118.678 278.045 116.889 278.685 114.991C285.163 95.5648 266.991 78.3991 250.336 77.8881C224.275 77.1491 210.561 91.7716 210.561 91.7716C211.559 88.6663 213.21 85.4823 215.128 82.263C205.702 81.984 189.468 91.3667 182.338 98.9807C175.215 91.3667 155.554 81.98 146.127 82.263C148.054 85.4823 149.701 88.6663 150.695 91.7716C150.695 91.7716 131.1 78.2654 106.851 83.4776C88.0934 71.8347 51.9106 74.032 38.6049 90.156C30.7905 99.3187 27.1506 114.244 34.0491 124.877C37.9681 131.079 44.7094 134.676 51.6983 134.727C53.4082 134.818 55.3461 134.664 56.8359 134.755C58.302 134.841 59.2572 135.226 59.4931 136.099C59.835 137.377 58.8484 139.09 58.2313 140.427C52.7793 150.796 51.6197 162.243 52.2251 174.141L60.0394 166.912C54.9019 180.902 59.2926 191.625 64.2572 202.16L67.1266 193.988C66.7375 201.287 69.4615 206.959 73.1289 212.14L76.989 204.161C80.8687 211.358 103.687 219.53 118.647 222.207C155.015 234.223 197.79 234.608 231.162 215.442C240.132 210.167 248.175 203.382 254.975 195.289C255.262 194.927 257.219 191.468 257.553 190.843L261.413 198.823C265.081 193.642 267.805 187.97 267.416 180.67L270.285 188.842C275.246 178.312 279.64 167.589 274.503 153.595L282.317 160.824C282.997 147.439 281.453 134.621 274.067 123.273L274.078 123.289L274.074 123.293Z" fill="#FFD183"/>
<path d="M187.629 243.563C217.196 241.397 229.554 286.621 234.216 310.091C238.89 333.652 237.435 358.578 229.106 381.038C226.064 389.242 220.989 401.997 213.245 406.187C192.782 417.256 136.469 411.399 136.469 411.399C134.822 408.825 132.091 401.635 131.171 398.526C121.033 364.073 126.116 329.875 140.86 297.804C149.555 278.889 164.968 245.222 187.632 243.567H187.629V243.563Z" fill="#FFEACD"/>
<path d="M128.545 387.995C129.268 391.498 130.137 395.008 131.171 398.522C132.087 401.631 134.818 408.817 136.469 411.395C136.52 411.399 136.572 411.411 136.631 411.415C137.963 411.549 147.786 412.5 160.266 412.83C179.794 413.003 198.902 410.727 213.257 406.179C220.671 402.158 225.639 390.291 228.717 382.091C203.552 390.436 163.454 394.422 128.549 387.995H128.545Z" fill="#F5DEC3"/>
<path d="M211.371 274.966C212.393 269.475 226.115 259.345 231.064 256.542C228.898 243.862 228.418 230.296 227.514 217.455C239.464 214.176 253.984 229.015 259.067 239.266C267.526 256.338 272.011 279.907 256.755 296.279C249.947 303.586 236.673 310.288 228.474 306.278C226.347 305.237 224.511 304.124 222.868 302.902C216.166 297.914 212.035 290.009 211.308 281.471C211.111 279.152 211.072 276.821 211.379 274.966H211.375H211.371Z" fill="#FDAB57"/>
<path d="M225.1 290.61C227.156 287.081 228.74 283.586 231.295 280.375C232.762 278.531 234.271 276.723 235.403 274.624C236.555 272.49 237.125 270.092 237.6 267.71C238.119 265.115 238.461 262.301 238.332 259.549C234.975 259.203 231.622 258.72 228.269 258.288C222.231 262.317 212.235 270.312 211.366 274.966C211.06 276.825 211.099 279.156 211.296 281.471C211.803 287.407 213.957 293.036 217.475 297.595C220.969 297.171 223.383 293.562 225.1 290.61Z" fill="#E89C4C"/>
<path d="M220.344 271.373C222.097 277.183 224.043 282.104 229.817 284.439C231.508 285.178 233.351 285.665 235.289 286.208C225.969 288.389 218.855 281.074 220.348 271.373H220.344Z" fill="#836138"/>
<path d="M216.504 282.863C217.545 288.051 218.78 292.32 223.249 295.284C224.566 296.212 226.04 296.982 227.577 297.863C219.472 298.35 213.913 290.889 216.5 282.863H216.504Z" fill="#836138"/>
<path d="M219.963 277.588L163.037 282.922C160.561 282.78 159.967 272.816 161.638 271.027L206.752 222.675C207.475 221.904 208.457 221.503 209.527 221.554L260.277 224.094C262.675 224.216 265.277 234.99 263.771 236.861L222.938 276.259C222.203 277.175 221.13 277.647 219.963 277.584V277.588Z" fill="#8388C3"/>
<path d="M214.086 287.104L165.011 283.92C162.534 283.779 161.017 280.127 162.691 278.334L207.809 229.982C208.532 229.207 209.515 228.81 210.584 228.862L261.334 231.401C263.732 231.523 265.285 234.99 263.775 236.865L217.062 285.779C216.323 286.691 215.254 287.167 214.086 287.104Z" fill="#6E73AA"/>
<path d="M213.363 247.949L198.096 250.674C197.404 250.634 196.602 246.617 197.066 246.114L209.668 232.604C209.869 232.391 210.148 232.277 210.443 232.293L224.621 233.001C225.293 233.036 226.484 237.136 226.064 237.659L214.189 247.572C213.98 247.828 213.686 247.957 213.359 247.946H213.363V247.949Z" fill="#8388C3"/>
<path d="M212.676 251.7L198.482 250.811C197.79 250.772 197.369 249.75 197.833 249.255L210.435 235.745C210.64 235.528 210.915 235.418 211.21 235.43L225.388 236.138C226.06 236.173 226.492 237.14 226.068 237.663L213.505 251.33C213.297 251.586 213.002 251.715 212.676 251.704V251.7Z" fill="#575C90"/>
<path d="M215.969 239.542C214.881 241.078 212.365 242.325 210.348 242.325C208.332 242.325 207.593 241.078 208.682 239.542C209.771 238.005 212.286 236.759 214.303 236.759C216.319 236.759 217.058 238.005 215.969 239.542Z" fill="#B7B9D6"/>
<path d="M209.075 244.408C208.368 245.402 206.736 246.208 205.435 246.208C204.134 246.208 203.647 245.402 204.354 244.408C205.062 243.409 206.693 242.607 207.994 242.607C209.295 242.607 209.783 243.413 209.075 244.408Z" fill="#B7B9D6"/>
<path d="M196.037 237.34C195.691 236.912 196.21 236.208 196.528 235.87C196.528 235.87 199.453 231.582 199.673 231.613C199.893 231.641 201.151 231.998 201.328 232.219C201.674 232.647 201.705 233.272 201.383 233.614L197.475 237.56C196.894 237.926 196.037 237.344 196.037 237.344H196.033L196.037 237.34Z" fill="#979DE1"/>
<path d="M195.643 237.038C195.297 236.609 195.266 235.984 195.588 235.642L199.177 231.818C199.496 231.48 200.038 231.554 200.384 231.983C200.73 232.411 200.761 233.036 200.439 233.378L196.85 237.203C196.532 237.541 195.989 237.466 195.643 237.038Z" fill="#A3A9F4"/>
<path d="M190.223 243.724C189.873 243.295 190.396 242.592 190.714 242.254C190.714 242.254 193.639 237.965 193.859 237.993C194.079 238.02 195.337 238.378 195.514 238.598C195.86 239.027 195.891 239.652 195.569 239.994L191.662 243.94C191.08 244.306 190.223 243.724 190.223 243.724Z" fill="#979DE1"/>
<path d="M189.829 243.421C189.484 242.993 189.452 242.364 189.774 242.026L193.363 238.201C193.682 237.863 194.224 237.938 194.57 238.366C194.916 238.795 194.947 239.42 194.625 239.762L191.036 243.586C190.718 243.924 190.175 243.85 189.829 243.421Z" fill="#A3A9F4"/>
<path d="M176.159 413.691C176.119 421.509 172.802 422.712 169.858 423.035C167.688 423.27 165.435 424.45 163.077 425.833C154.001 431.163 145.105 428.691 145.105 428.691C142.767 428.888 140.33 429.049 137.818 429.19C137.818 429.19 134.823 430.696 130.227 430.829C106.348 431.564 93.1091 419.992 92.6374 409.041C92.1067 396.73 114.119 387.088 123.352 387.154C147.24 387.327 176.222 399.033 176.155 413.691H176.159Z" fill="#E89C4C"/>
<path d="M143.706 409.43C142.181 407.028 140.223 404.972 138.03 403.251C138.962 404.277 139.842 405.342 140.609 406.49C142.849 409.795 144.253 413.884 144.197 417.869C144.245 422.284 141.977 428.136 137.826 429.182C140.341 429.041 142.771 428.879 145.113 428.683C148.211 422.7 147.252 414.933 143.71 409.43H143.706Z" fill="#836138"/>
<path d="M163.985 405.916C162.083 404.006 159.85 402.481 157.433 401.569C159.669 402.893 161.54 404.729 163.014 406.804C164.488 408.884 165.573 411.223 166.167 413.632C167.319 418.027 166.528 423.039 163.077 425.825C165.687 425.067 167.967 424.151 169.858 423.023C169.972 422.473 170.062 421.914 170.102 421.356C170.561 415.405 167.896 409.89 163.981 405.908L163.985 405.916Z" fill="#836138"/>
<path d="M218.481 287.002C218.304 287.933 217.436 289.435 217.632 290.367C220.211 302.627 207.734 310.685 193.733 315.956C146.115 333.861 106.234 301.954 94.2409 265.835C89.4336 251.354 90.9587 209.888 115.699 219.923C127.067 224.534 133.8 238.13 138.195 249.14C142.373 259.6 157.169 269.301 171.029 269.298C179.963 269.298 186.834 264.82 195.246 266.601C200.816 267.784 202.42 269.156 202.97 273.515C202.97 273.515 221.233 272.662 218.485 287.002H218.481Z" fill="#FDAB57"/>
<path d="M202.967 273.515C203.89 278.901 199.724 290.268 188.847 292.041C190.675 290.378 192.491 288.916 194.107 287.332C199.763 282.061 202.967 273.515 202.967 273.515Z" fill="#836138"/>
<path d="M218.332 281.947C221.347 291.047 214.456 298.043 206.021 298.79C207.377 297.332 217.958 294.172 218.332 281.947Z" fill="#836138"/>
<path d="M228.391 163.493C236.877 163.493 243.756 154.37 243.756 143.116C243.756 131.862 236.877 122.739 228.391 122.739C219.904 122.739 213.025 131.862 213.025 143.116C213.025 154.37 219.904 163.493 228.391 163.493Z" fill="#2B1916"/>
<path d="M131.902 168.029C141.23 168.029 148.793 157.892 148.793 145.384C148.793 132.876 141.23 122.739 131.902 122.739C122.575 122.739 115.012 132.876 115.012 145.384C115.012 157.892 122.575 168.029 131.902 168.029Z" fill="#2B1916"/>
<path d="M131.906 147.318C127.032 147.318 122.826 143.54 120.801 138.061C119.988 140.27 119.532 142.754 119.532 145.388C119.532 154.546 125.07 161.968 131.906 161.968C138.741 161.968 144.28 154.542 144.28 145.388C144.28 142.754 143.824 140.27 143.01 138.061C140.994 143.548 136.78 147.318 131.906 147.318Z" fill="#54322B"/>
<path d="M228.391 144.853C223.957 144.853 220.128 141.457 218.292 136.524C217.553 138.509 217.137 140.745 217.137 143.116C217.137 151.355 222.176 158.041 228.391 158.041C234.605 158.041 239.644 151.362 239.644 143.116C239.644 140.749 239.224 138.509 238.489 136.524C236.653 141.457 232.817 144.853 228.391 144.853Z" fill="#54322B"/>
<path d="M127.393 146.771C130.868 146.771 133.683 142.994 133.683 138.336C133.683 133.678 130.864 129.9 127.393 129.9C123.922 129.9 121.1 133.678 121.1 138.336C121.1 142.994 123.918 146.771 127.393 146.771Z" fill="white"/>
<path d="M126.54 156.909C126.104 155.116 124.044 154.055 122.425 154.845C121.509 155.211 121.006 156.119 120.412 156.862C119.948 157.459 119.233 157.656 118.525 157.542C117.244 157.384 115.966 157.223 114.634 157.502C113.789 157.585 113.356 158.418 112.606 158.642C109.363 158.678 103.466 160.887 106.45 165.108C107.755 166.877 110.007 167.141 111.996 167.235C118.061 167.876 124.268 167.117 127.389 161.641L126.642 160.038C126.658 158.996 126.811 157.927 126.54 156.917V156.905V156.909Z" fill="#BEEBEB"/>
<path d="M126.642 160.033C126.658 158.996 126.811 157.927 126.54 156.912C126.387 156.28 126.021 155.733 125.553 155.332C125.809 157.864 124.925 160.206 122.491 161.724C121.226 162.51 119.752 162.915 118.297 163.044C117.499 163.115 116.355 162.903 115.593 163.233C115.05 163.469 114.575 164.184 114.068 164.519C111.713 166.063 108.844 166.099 106.426 165.061C106.438 165.081 106.442 165.088 106.454 165.108C107.759 166.877 110.011 167.14 112 167.235C118.065 167.875 124.272 167.117 127.397 161.641L126.65 160.037L126.642 160.03V160.033Z" fill="#91CBCB"/>
<path d="M107.272 161.39C106.989 162.019 107.044 162.97 107.838 163.1C108.361 163.222 108.939 163.053 109.442 162.781C110.181 162.318 111.046 162.066 111.785 161.626C112.543 161.056 111.718 160.179 111.085 159.975C109.792 159.476 108.035 160.018 107.319 161.284L107.276 161.394V161.386L107.272 161.39Z" fill="white"/>
<path d="M113.844 158.752C113.675 159.129 113.71 159.692 114.182 159.77C114.496 159.841 114.838 159.743 115.137 159.581C115.577 159.306 116.092 159.157 116.533 158.894C116.977 158.552 116.493 158.037 116.112 157.911C115.345 157.612 114.296 157.934 113.871 158.685L113.844 158.748V158.752Z" fill="white"/>
<path d="M223.344 145.289C226.178 145.289 228.477 141.83 228.477 137.561C228.477 133.293 226.178 129.833 223.344 129.833C220.509 129.833 218.21 133.293 218.21 137.561C218.21 141.83 220.509 145.289 223.344 145.289Z" fill="white"/>
<path d="M252.993 183.17C259.279 183.17 264.369 177.49 264.369 170.482C264.369 163.473 259.275 157.793 252.993 157.793C246.712 157.793 241.618 163.473 241.618 170.482C241.618 177.49 246.712 183.17 252.993 183.17Z" fill="#F0AE56"/>
<path d="M241.716 157.302C241.083 157.262 240.517 157.455 240.014 157.097C239.082 156.476 238.155 155.859 237.027 155.553C236.343 155.289 235.71 155.765 235.049 155.639C232.538 154.405 227.196 153.823 227.978 158.241C228.351 160.108 229.994 161.189 231.496 162.034C235.474 164.578 239.935 166.303 243.96 164.503C244.841 164.11 245.391 163.17 245.383 162.172C245.772 161.378 246.983 157.644 241.712 157.302H241.716Z" fill="#BEEBEB"/>
<path d="M244.236 161.673C243.807 161.673 243.371 161.622 242.939 161.555C242.514 161.7 242.07 161.807 241.571 161.854C240.313 161.972 239.027 161.712 237.856 161.241C237.219 160.989 236.406 160.372 235.706 160.336C235.203 160.309 234.574 160.678 234.067 160.733C231.697 161.016 229.464 159.924 227.974 158.182C228.332 160.081 229.987 161.174 231.5 162.023C235.639 164.672 240.309 166.433 244.46 164.252C245.042 163.945 245.391 163.3 245.391 162.624C245.391 162.314 245.466 162.007 245.608 161.736C245.663 161.63 245.714 161.531 245.773 161.425C245.293 161.571 244.782 161.661 244.24 161.665L244.236 161.673Z" fill="#91CBCB"/>
<path d="M229.948 155.698C229.499 156.076 229.201 156.83 229.771 157.235C230.132 157.534 230.635 157.628 231.119 157.616C231.858 157.546 232.617 157.687 233.344 157.636C234.13 157.491 233.812 156.496 233.395 156.091C232.577 155.203 231.025 154.94 230.018 155.639L229.944 155.706V155.698H229.948Z" fill="white"/>
<path d="M235.965 156.209C235.698 156.433 235.525 156.885 235.859 157.125C236.076 157.302 236.374 157.361 236.661 157.349C237.101 157.31 237.554 157.388 237.99 157.361C238.458 157.274 238.265 156.681 238.017 156.437C237.53 155.91 236.606 155.749 236.005 156.166L235.962 156.205H235.965V156.209Z" fill="white"/>
<path d="M92.0594 183.85C99.3078 183.85 105.184 178.155 105.184 171.126C105.184 164.098 99.3078 158.402 92.0594 158.402C84.8111 158.402 78.9346 164.098 78.9346 171.126C78.9346 178.155 84.8111 183.85 92.0594 183.85Z" fill="#F0AE56"/>
<path d="M201.501 161.272C199.897 181.043 169.363 181.028 167.767 161.272C167.739 144.755 201.532 144.755 201.501 161.272Z" fill="#2B1916"/>
<path d="M137.083 179.621C128.215 182.305 115.369 176.185 111.592 167.203C119.579 161.413 132.295 157.671 146.623 157.671C148.958 157.671 151.242 157.769 153.474 157.962C151.092 167.286 146.261 176.842 137.087 179.625V179.617L137.083 179.621Z" fill="#FFD183"/>
<path d="M219.715 177.046C226.791 179.511 237.034 173.89 240.053 165.639C233.685 160.321 223.536 156.881 212.105 156.881C210.246 156.881 208.422 156.975 206.638 157.152C208.54 165.718 212.392 174.491 219.715 177.046Z" fill="#FFD183"/>
<path d="M175.176 162.53C177.204 161.637 179.657 159.865 181.158 157.994C184.842 153.163 178.43 151.394 175.105 153.387C173.344 154.287 171.854 156.005 171.221 158.056C170.18 161.394 171.807 164.094 175.109 162.561L175.176 162.534V162.53Z" fill="white"/>
<path d="M185.144 185.478C184.036 185.478 183.136 184.546 183.136 183.387V174.908C183.136 173.756 184.032 172.817 185.144 172.817C186.257 172.817 187.153 173.748 187.153 174.908V183.387C187.153 184.538 186.257 185.478 185.144 185.478Z" fill="#2B1916"/>
<path d="M165.239 191.378C170.306 183.398 185.144 183.398 185.144 183.398C185.144 183.398 199.024 184.385 200.592 191.378" stroke="#2B1916" stroke-width="5" stroke-linecap="round" stroke-linejoin="round"/>
<path d="M176.622 170.517C177.691 173.214 182.503 173.221 185.187 173.198C187.758 173.1 190.274 172.357 192.542 171.362C199.826 168.174 199.33 160.82 198.682 159.66C198.002 158.788 196.818 160.281 196.123 160.875C193.823 163.288 188.206 166.633 184.928 167.514C182.377 168.406 176.154 167.105 176.606 170.474L176.614 170.513H176.618L176.622 170.517Z" fill="#1C110F"/>
<path d="M105.342 117.597C118.75 123.163 135.597 113.033 133.777 106.709C133.502 105.742 132.26 105.596 131.497 106.39C124.284 113.937 115.566 117.668 105.342 117.589V117.597Z" fill="#54322B"/>
<path d="M242.495 117.165C231.099 121.406 217.86 112.609 219.763 107.44C220.054 106.65 221.084 106.559 221.657 107.239C227.117 113.651 234.063 116.96 242.491 117.165H242.495Z" fill="#54322B"/>
<path d="M51.71 134.735C65.7979 131.15 83.7969 123.179 92.0594 104.205C86.6978 121.488 74.3198 133.532 59.5008 136.111C60.4088 134.991 57.158 134.657 51.71 134.731V134.735Z" fill="#FDAB57"/>
<path d="M276.873 118.753C267.864 129.688 254.185 119.896 244.535 108.159C250.081 119.896 264.562 131.897 275.136 125.01C274.071 123.293 274.416 122.33 276.873 118.753Z" fill="#FDAB57"/>
</svg>
