<svg clip-rule="evenodd" fill-rule="evenodd" height="512" stroke-linejoin="round" stroke-miterlimit="2" viewBox="0 0 256 256" width="512" xmlns="http://www.w3.org/2000/svg"><g id="Exp-2.-Sticker"><g><g fill="#f1f1f6"><path d="m20.495 38.278c-3.043-1.119-6.44-.692-9.112 1.143-2.672 1.836-4.289 4.853-4.337 8.095 0 0-1.39 94.191 1.273 141.228.001.029.003.057.005.085 0 0 .868 10.206 2.488 14.235 2.517 6.26 7.579 7.67 10.865 7.508 3.116-.154 53.311 10.556 105.552 15.021.801.068 1.606.04 2.399-.084 0 0 56.174-8.799 104.677-15.341.253-.034.503-.078.752-.131 0 0 4.081-.46 7.741-4.901 1.983-2.405 4.47-6.614 4.081-14.458-.415-8.364 2.235-59.624 2.677-96.468.061-1.789.749-23.236-.156-48.488-.117-3.274-1.831-6.283-4.587-8.055-2.756-1.771-6.205-2.08-9.232-.827 0 0-7.736 3.171-19.329 5.607-.011.002-88.751 13.706-88.751 13.706-12.481-1.855-98.301-14.676-107.006-17.875z"/><path d="m117.261 192.377c-.523-1.399-1.863-2.43-3.349-3.44-4.136-2.811-9.922-4.695-16.192-6.149-21.65-5.021-48.886-4.11-48.886-4.11-.191.006-.383.007-.575.002-21.788-.552-24.944-12.612-24.944-12.612-.573-1.381-.83-2.872-.752-4.365 2.837-53.798 1.402-121.116 1.402-121.116-.058-2.682.965-5.274 2.838-7.195 1.873-1.92 4.439-3.008 7.122-3.018 55.325-.207 81.313 9.555 93.178 17.225 5.829-4.243 13.873-7.714 23.25-10.077 29.202-7.359 71.367-6.686 71.367-6.686 5.454.095 9.826 4.544 9.826 9.999 0 61.068 2.098 122.259 2.095 122.352-.11 3.933-2.087 7.952-7.032 10.456-5.084 2.575-17.545 2.955-17.479 2.955-40.156.161-59.05 5.7-67.766 11.96-2.373 1.705-3.585 3.814-3.882 4.381.014.434.015.872.004 1.313-.122 5.07-4.02 9.247-9.07 9.717s-9.653-2.916-10.708-7.877c0 0-.46-1.407-.447-3.715z"/></g><path d="m17.045 47.664c-1.356 3.165-1.391 93.716 1.258 140.515 0 0 .813 12.507 2.88 12.405 3.155-.156 54.002 10.524 106.898 15.045 0 0 56.287-8.816 104.888-15.371 0 0 4.327-.925 3.922-9.084-.418-8.426 2.226-60.108 2.667-97.195 0 0 .78-21.903-.152-47.899 0 0-8.563 3.545-21.377 6.212l-90.498 13.974s-100.922-15.087-110.486-18.602" fill="#3c69c6"/><path d="m17.045 47.664c-1.356 3.165-1.391 93.716 1.258 140.515 0 0 .635 6.479 4.153 6.734 2.931.212 52.458 8.69 105.354 13.211 0 0 52.206-5.77 100.807-12.326-.127 0 8.426-1.341 8.274-4.624-.04-.875 0 0 0 0-.418-8.426 2.226-60.108 2.667-97.195 0 0 .78-21.903-.152-47.899 0 0-8.563 3.545-21.377 6.212l-90.498 13.974s-100.922-15.087-110.486-18.602" fill="#4bcbec"/><path d="m33.962 40.374c-1.413 1.413 1.441 67.729-1.413 121.855 0 0-.361 11.277 2.648 17.867 0 0 41.988 4.615 92.292 13.916 0 0 51.004-9.428 92.966-14.491 0 0 3.422-8.977 3.19-16.616-.231-7.638-2.099-61.143-2.099-122.07 0 0-82.9-1.438-93.849 20.461 0 0-11.308-21.23-93.735-20.922" fill="#ff9227"/><path d="m33.962 40.374c-1.413 1.413 1.441 67.729-1.413 121.855 0 0-.601 3.964 12.821 4.304 0 0 82.789-.415 82.119 27.479 0 0-5.757-27.063 81.601-27.414 0 0 14.45.038 14.555-3.693.003-.092.003.096 0 0-.231-7.638-2.099-61.143-2.099-122.07 0 0-82.9-1.438-93.849 20.461 0 0-11.308-21.23-93.735-20.922" fill="#ffbe32"/><path d="m126.198 61.235s-2.503 61.437-.208 132.825c.027.827.72 1.477 1.547 1.451.828-.027 1.478-.72 1.451-1.548-2.291-71.27.208-132.606.208-132.606.034-.827-.611-1.526-1.438-1.56s-1.526.611-1.56 1.438z" fill="#3c69c6"/><path d="m43.298 60.022c-.904 1.085-2.17 26.112-1.085 56.241 0 0 38.835-2.95 71.206 11.336 0 0 .723-36.348 1.627-55.698 0 0-29.515-18.16-71.748-11.879" fill="#3c69c6"/><path d="m62.858 91.271c-.927-.074-6.804-2.003-20.968 12.82-.108.113.006.314.008.471.068 3.781.171 7.696.315 11.701 0 0 38.835-2.95 71.206 11.336 0 0 .242-12.204.623-26.234.002-.096.062-.209.007-.289-6.717-9.748-17.591-7.701-19.604-7.185 0 0-2.522-.065-18.954 9.828-3.867 2.329-7.211-12.01-12.633-12.448z" fill="#ff9227"/><path d="m78.55 71.115c-2.315 0-6.793 1.489-6.482 7.13.236 4.258 3.333 6.759 6.482 6.666 3.148-.093 6.11-2.037 6.203-6.296.04-1.851-.926-7.407-6.203-7.5" fill="#ffbe32"/><path d="m47.44 135.919s22.774-2.149 43.972 5.729c.517.192 1.093-.072 1.285-.589.193-.517-.071-1.093-.589-1.286-21.624-8.036-44.856-5.845-44.856-5.845-.55.052-.954.54-.902 1.09.052.549.54.953 1.09.901z" fill="#fff"/><path d="m45.96 149.376s27.14-1.657 53.562 7.9c.519.187 1.092-.082 1.28-.601s-.081-1.092-.6-1.28c-26.818-9.7-54.364-8.015-54.364-8.015-.551.034-.971.508-.937 1.059s.508.971 1.059.937z" fill="#fff"/><path d="m139.438 73.907c-1.446 1.447.724 26.403 2.17 30.562 0 0 15.914-4.34 40.147-10.308 0 0 0-13.657 2.532-30.019 0 0-22.967.448-44.849 9.765" fill="#ff9227"/><g fill="#fff"><path d="m193.442 69.352s6.893-2.119 14.67-1.765c.551.025 1.019-.402 1.044-.954.025-.551-.402-1.019-.953-1.044-8.137-.37-15.349 1.852-15.349 1.852-.528.162-.824.722-.662 1.249.162.528.722.824 1.25.662z"/><path d="m190.811 84.292s7.048-4.206 20.588-4.116c.552.004 1.003-.442 1.006-.993.004-.552-.441-1.003-.993-1.007-14.237-.095-21.633 4.402-21.633 4.402-.473.285-.626.9-.341 1.373s.9.625 1.373.341z"/><path d="m143.669 120.529s16.178-12.058 54.144-8.773c.55.048 1.035-.36 1.082-.91.048-.55-.36-1.035-.91-1.083-38.948-3.37-55.518 9.167-55.518 9.167-.441.331-.53.959-.199 1.4.332.441.959.53 1.401.199z"/><path d="m142.162 136.612s16.048-10.959 56.568-10.53c.552.006 1.005-.437 1.011-.989s-.438-1.005-.99-1.011c-41.364-.438-57.722 10.882-57.722 10.882-.455.313-.57.936-.258 1.391.313.454.936.57 1.391.257z"/><path d="m141.495 153.045s21.275-11.738 58.832-11.738c.552 0 1-.448 1-1s-.448-1-1-1c-38.182 0-59.8 11.988-59.8 11.988-.483.268-.658.876-.391 1.359s.876.659 1.359.391z"/><path d="m142.377 163.798s26.663-11.207 62.983-11.351c.552-.002.998-.452.996-1.004-.003-.552-.452-.998-1.004-.996-36.765.146-63.751 11.507-63.751 11.507-.508.214-.748.801-.534 1.31s.801.748 1.31.534z"/></g></g></g></svg>