<svg height="512" viewBox="0 0 512 512" width="512" xmlns="http://www.w3.org/2000/svg"><g id="b"><g><path d="m472.328 103.058v-97.058h-94.733l-1.524 7.619h-239.332l-1.524-7.619h-94.733v97.056l6.484 1.096v305.656l-7.294 1.458v94.734h97.056l1.288-7.619h235.966l1.286 7.619h97.06v-94.734l-7.294-1.458v-305.518z" fill="#fff"/><g><path d="m62.963 29.616h386.074v452.767h-386.074z" fill="#ff3d81"/><path d="m389.467 348.056h-266.934c0-7.349-5.958-13.307-13.307-13.307v-157.499c7.349 0 13.307-5.958 13.307-13.307h266.934c0 7.349 5.958 13.307 13.307 13.307v157.499c-7.349 0-13.307 5.958-13.307 13.307z" fill="#776cff"/><g fill="#5ed4be"><path d="m152.622 311.115c-3.614-1.354-5.97-3.372-5.333-7.161l30.32-98.732c1.325-3.975 6.303-5.485 10.208-5.485 4.037 0 9.024 1.474 10.36 5.485l30.168 98.732c.547 1.65.359 3.151-1.295 4.723-1.066 1.017-2.388 1.829-3.961 2.438-3.84 1.485-8.82 1.512-10.132-2.438l-6.247-21.636h-37.787l-6.094 21.636c-.949 3.797-6.146 3.963-10.208 2.438zm19.959-37.024h30.473l-15.236-52.261z"/><path d="m241.753 282.166c-1.523 0-2.769-.633-3.733-1.905-.967-1.269-1.447-2.869-1.447-4.799s.48-3.554 1.447-4.875c.964-1.319 2.209-1.981 3.733-1.981h39.615c1.421 0 2.69.662 3.809 1.981 1.117 1.321 1.676 2.947 1.676 4.875s-.559 3.531-1.676 4.799c-1.119 1.271-2.388 1.905-3.809 1.905z"/><path d="m297.366 312.029c-5.664 0-6.18-5.48-3.352-10.361l47.233-86.695h-41.291c-3.536 0-5.333-3.676-5.333-7.161 0-3.245 1.545-7.161 5.333-7.161h56.832c4.616 0 7.122 3.608 3.352 10.513l-47.233 86.542h46.167c3.625 0 5.333 3.974 5.333 7.161s-1.714 7.161-5.333 7.161h-61.708z"/></g><g><g><path d="m456.331 21.997v67.539c-3.044.514-6.187.771-9.389.771-31.645 0-57.3-25.656-57.3-57.3 0-3.775.356-7.452 1.067-11.009h65.622z" fill="#fcc836"/><circle cx="426.271" cy="53.134" fill="#fff" r="8.924"/></g><g><path d="m456.331 490.003h-67.539c-.514-3.044-.771-6.187-.771-9.389 0-31.645 25.656-57.3 57.3-57.3 3.775 0 7.452.356 11.009 1.067v65.622z" fill="#fcc836"/><circle cx="425.193" cy="459.943" fill="#fff" r="8.924"/></g><g><path d="m56.48 21.997v67.539c3.044.514 6.187.771 9.389.771 31.645 0 57.3-25.656 57.3-57.3 0-3.775-.356-7.452-1.067-11.009h-65.622z" fill="#fcc836"/><circle cx="86.539" cy="53.134" fill="#fff" r="8.924"/></g><g><path d="m55.67 490.003h67.538c.514-3.044.771-6.187.771-9.389 0-31.645-25.656-57.3-57.3-57.3-3.775 0-7.452.356-11.009 1.067z" fill="#fcc836"/><circle cx="86.807" cy="459.943" fill="#fff" r="8.924"/></g></g></g></g></g></svg>