<svg width="353" height="457" viewBox="0 0 353 457" fill="none" xmlns="http://www.w3.org/2000/svg">
<path d="M321.546 208.99C328.816 217.059 339.686 222.185 346.11 229.564C347.433 231.084 351.304 236.066 351.041 237.885C350.788 239.579 346.327 242.026 344.803 242.91C316.93 259.079 274.417 270.006 242.483 274.135C187.094 281.305 125.673 275.713 73.2834 256.388C63.5192 252.79 47.971 246.578 39.7314 240.541C37.5008 238.905 36.3525 238.191 37.9935 235.248C44.0839 224.314 60.0201 217.482 68.5855 206.912C81.5889 190.863 82.1786 179.444 86.888 160.495C94.5923 129.479 132.047 114.411 160.176 107.06C174.645 103.279 189.647 99.7276 204.667 101.895C232.005 105.842 277.373 120.425 294.089 143.632C302.538 155.357 301.863 168.358 305.983 181.468C308.981 191.014 314.855 201.561 321.546 208.994H321.542L321.546 208.99Z" fill="#99A7B1"/>
<path d="M352.949 261.75C349.962 247.571 344.977 234.023 336.144 221.681C335.484 220.762 52.7849 220.762 52.1254 221.681C43.2961 234.019 38.3035 247.571 35.3203 261.75C35.1069 262.77 36.1621 263.608 37.097 263.142C39.2267 262.088 41.1509 260.777 42.9237 259.284C43.878 258.482 45.2939 259.405 44.9332 260.599C40.8405 274.182 37.6905 282.305 38.2841 292.615C38.3345 293.437 39.153 293.988 39.9366 293.732C42.4116 292.914 47.4935 290.994 52.2573 287.722C53.3357 286.981 54.6702 288.202 54.0534 289.362C47.1172 302.324 45.6896 314.728 44.8672 328.892C44.809 329.897 45.8914 330.552 46.7564 330.044C49.4215 328.474 50.9461 327.326 53.1068 325.469C54.0223 324.678 55.4111 325.515 55.1473 326.694C51.7879 341.471 51.7452 356.822 53.7081 372.525C53.8284 373.487 54.9534 373.948 55.7215 373.351C58.5999 371.129 61.7848 367.938 65.1831 364.072C66.0288 363.111 67.6076 363.898 67.3516 365.15C63.4801 383.937 65.668 394.522 69.7529 402.529C70.1214 403.246 71.0796 403.44 71.6848 402.905C75.8511 399.249 78.8343 394.255 80.5839 387.865C80.933 386.597 82.7446 386.647 83.0123 387.934C86.6239 405.212 95.8877 416.224 109.915 421.947C110.066 422.009 110.233 422.04 110.396 422.04H277.896C278.063 422.04 278.226 422.009 278.377 421.947C292.405 416.224 301.669 405.212 305.28 387.934C305.548 386.647 307.363 386.597 307.709 387.865C309.458 394.255 312.441 399.249 316.608 402.905C317.213 403.436 318.171 403.25 318.54 402.529C322.624 394.514 324.812 383.933 320.941 365.15C320.685 363.898 322.264 363.111 323.109 364.072C326.508 367.938 329.693 371.129 332.575 373.351C333.343 373.944 334.468 373.487 334.588 372.525C336.551 356.822 336.508 341.471 333.145 326.694C332.877 325.515 334.27 324.681 335.186 325.469C337.346 327.33 338.871 328.474 341.536 330.044C342.401 330.552 343.483 329.889 343.425 328.892C342.607 314.728 341.175 302.324 334.239 289.362C333.622 288.206 334.957 286.981 336.035 287.722C340.799 290.994 345.881 292.91 348.356 293.732C349.139 293.988 349.958 293.441 350.005 292.615C350.598 282.305 347.448 274.182 343.355 260.599C342.995 259.401 344.411 258.478 345.365 259.284C347.138 260.781 349.058 262.088 351.192 263.142C352.126 263.608 353.182 262.77 352.968 261.75H352.945H352.949Z" fill="#BC7655"/>
<path d="M323.424 259.812C320.995 248.269 316.934 237.237 309.741 227.191C309.206 226.443 309.858 225.407 310.758 225.597C313.977 226.28 318.342 229.114 321.697 231.348C322.469 231.859 323.47 231.169 323.257 230.266C320.72 219.611 316.324 209.215 309.093 199.219C308.473 198.358 309.423 197.242 310.374 197.711C314.664 199.847 318.679 201.379 322.264 201.933C323.005 202.05 323.61 201.352 323.4 200.63C320.219 189.715 314.835 179.84 305.59 171.778C304.768 171.061 305.482 169.723 306.529 170.026C309.819 170.972 309.012 171.352 311.848 171.441C312.538 171.464 313.027 170.782 312.81 170.127C308.318 156.664 301.703 144.206 285.93 133.768C285.178 133.271 285.391 132.116 286.275 131.922C290.019 131.1 293.398 129.755 296.431 127.921C296.92 127.626 297.091 126.986 296.781 126.505C293.762 121.825 283.971 117.61 276.337 116.509C275.398 116.374 275.142 115.129 275.957 114.636C278.711 112.969 281.038 110.922 283.013 108.549C283.451 108.021 283.246 107.219 282.613 106.959C264.338 99.4446 246.656 95.0126 230.891 100.476C230.251 100.697 229.564 100.243 229.541 99.5648C229.401 96.1216 231.038 93.0274 234.107 90.2162C234.727 89.6424 234.402 88.6071 233.571 88.4636C222.76 86.6218 212.414 88.7157 202.712 96.2263C202.58 96.3271 204.737 83.3725 201.94 83.3687C198.239 83.3687 195.725 86.7382 194.135 90.1348C192.548 86.742 190.03 83.3648 186.329 83.3687C183.532 83.3687 185.689 96.331 185.557 96.2263C175.855 88.7118 165.509 86.6218 154.698 88.4636C153.864 88.6071 153.538 89.6424 154.162 90.2162C157.231 93.0313 158.868 96.1255 158.728 99.5648C158.701 100.243 158.018 100.693 157.378 100.476C141.613 95.0126 123.931 99.4484 105.656 106.959C105.023 107.219 104.818 108.025 105.256 108.549C107.231 110.918 109.558 112.973 112.309 114.636C113.119 115.125 112.871 116.374 111.928 116.509C104.294 117.61 94.5027 121.825 91.4846 126.505C91.1743 126.986 91.3411 127.626 91.8338 127.921C94.8674 129.758 98.2462 131.1 101.99 131.922C102.874 132.116 103.088 133.268 102.335 133.768C86.5618 144.206 79.9437 156.664 75.4554 170.127C75.2381 170.782 75.7269 171.46 76.4175 171.441C79.2532 171.352 78.4463 170.972 81.736 170.026C82.7834 169.723 83.4972 171.061 82.6747 171.778C73.4304 179.843 68.0459 189.723 64.8649 200.63C64.6554 201.348 65.2606 202.05 66.0016 201.933C69.5783 201.375 73.5972 199.847 77.8916 197.711C78.842 197.234 79.7924 198.358 79.1717 199.219C71.9407 209.215 67.5455 219.611 65.0085 230.266C64.7951 231.165 65.8037 231.859 66.5679 231.348C69.9235 229.11 74.2838 226.28 77.5075 225.597C78.4114 225.407 79.0592 226.443 78.5239 227.191C71.3317 237.237 67.2701 248.265 64.8416 259.812C64.6671 260.642 65.5283 261.324 66.2886 260.944C68.0227 260.083 69.5899 259.021 71.033 257.803C71.8127 257.148 72.961 257.9 72.6701 258.874C69.3377 269.928 66.7697 276.543 67.2584 284.942C67.2972 285.613 67.9645 286.062 68.6007 285.849C70.614 285.182 74.7494 283.623 78.6286 280.96C79.5092 280.355 80.5955 281.351 80.0911 282.293C74.4468 292.848 73.283 302.945 72.6119 314.476C72.5614 315.294 73.4459 315.829 74.1519 315.415C76.3243 314.135 77.5618 313.204 79.3192 311.692C80.064 311.049 81.1967 311.731 80.9756 312.685C78.2407 324.717 78.2058 337.214 79.8002 349.998C79.8972 350.781 80.8127 351.153 81.4411 350.672C83.7842 348.865 86.3795 346.264 89.1454 343.119C89.8359 342.336 91.12 342.975 90.9066 343.999C87.7566 359.296 89.5333 367.911 92.8618 374.433C93.1605 375.019 93.9402 375.174 94.4329 374.74C97.8234 371.766 100.252 367.698 101.676 362.495C101.955 361.463 103.437 361.506 103.658 362.553C106.598 376.62 114.144 385.581 125.56 390.242C125.684 390.292 125.816 390.315 125.952 390.315H262.313C262.449 390.315 262.585 390.288 262.705 390.242C274.126 385.581 281.663 376.62 284.607 362.553C284.828 361.506 286.303 361.463 286.582 362.495C288.006 367.698 290.434 371.762 293.825 374.74C294.317 375.174 295.097 375.019 295.396 374.433C298.724 367.907 300.501 359.292 297.351 343.999C297.141 342.979 298.425 342.34 299.116 343.119C301.882 346.264 304.477 348.865 306.82 350.672C307.445 351.157 308.36 350.781 308.461 349.998C310.056 337.217 310.021 324.717 307.286 312.685C307.068 311.727 308.197 311.045 308.946 311.692C310.699 313.204 311.945 314.139 314.113 315.415C314.815 315.829 315.7 315.29 315.649 314.476C314.978 302.945 313.818 292.848 308.17 282.293C307.67 281.355 308.756 280.355 309.633 280.96C313.508 283.623 317.647 285.182 319.661 285.849C320.297 286.058 320.964 285.609 321.007 284.942C321.492 276.547 318.924 269.936 315.595 258.874C315.304 257.9 316.456 257.148 317.232 257.803C318.671 259.021 320.243 260.083 321.977 260.944C322.741 261.324 323.598 260.642 323.424 259.812Z" fill="#A16143"/>
<path d="M352.949 261.751C349.962 247.571 344.977 234.023 336.144 221.685C335.814 221.224 265.277 151.674 194.441 151.674C123.606 151.674 52.4594 221.224 52.1297 221.685C43.3004 234.023 38.3077 247.575 35.3246 261.751C35.1073 262.77 36.1664 263.608 37.1013 263.143C39.231 262.088 41.1551 260.777 42.928 259.285C43.8823 258.478 45.2982 259.405 44.9374 260.595C40.8448 274.178 37.6948 282.301 38.2883 292.611C38.3388 293.433 39.1573 293.984 39.9409 293.728C42.4159 292.91 47.4978 290.994 52.2615 287.718C52.5564 287.516 100.473 272.228 100.473 272.228L287.812 274.159C287.812 274.159 335.752 287.532 336.024 287.718C340.784 290.991 345.87 292.906 348.345 293.728C349.128 293.984 349.947 293.437 349.993 292.611C350.587 282.301 347.437 274.178 343.344 260.595C342.983 259.397 344.399 258.474 345.354 259.285C347.126 260.781 349.047 262.088 351.18 263.143C352.115 263.608 353.17 262.77 352.957 261.751H352.938H352.949Z" fill="#BC7655"/>
<path d="M330.29 217.687C330.143 218.013 345.474 248.936 352.949 261.751C350.54 246.551 343.534 232.119 335.95 221.274C333.871 219.595 332.521 219.157 330.29 217.691V217.687Z" fill="#EB936A"/>
<path d="M57.9793 217.691C58.1267 218.017 42.7957 248.94 35.3203 261.754C37.7294 246.559 44.7353 232.123 52.3194 221.278C54.3987 219.599 55.7487 219.161 57.9793 217.695V217.691Z" fill="#EB936A"/>
<path d="M323.424 259.812C320.995 248.269 316.934 237.237 309.742 227.191C309.206 226.443 309.862 225.407 310.758 225.597C313.982 226.28 318.342 229.114 321.698 231.351C322.47 231.863 323.47 231.169 323.257 230.266C320.72 219.614 316.325 209.219 309.098 199.227C308.473 198.358 309.42 197.242 310.378 197.718C314.672 199.859 318.687 201.387 322.268 201.941C323.009 202.057 323.61 201.359 323.401 200.638C320.216 189.715 314.827 179.836 305.571 171.763C304.753 171.049 305.486 169.727 306.533 170.026C309.827 170.972 309.016 171.352 311.856 171.441C312.546 171.464 313.031 170.782 312.814 170.127C308.322 156.664 301.708 144.206 285.934 133.768C285.182 133.271 285.391 132.12 286.272 131.922C290.015 131.1 293.394 129.755 296.432 127.917C296.928 127.614 297.076 126.955 296.758 126.466C293.712 121.802 283.952 117.603 276.333 116.501C275.387 116.362 275.146 115.117 275.969 114.621C278.715 112.961 281.031 110.91 283.006 108.549C283.444 108.021 283.242 107.215 282.61 106.951C264.335 99.4368 246.657 95.0048 230.891 100.468C230.243 100.693 229.564 100.22 229.541 99.5376C229.413 96.106 231.05 93.0196 234.111 90.2123C234.728 89.6462 234.417 88.6032 233.591 88.4636C222.772 86.6179 212.422 88.7079 202.712 96.2224C202.58 96.3232 204.737 83.3686 201.94 83.3647C198.239 83.3647 195.725 86.7343 194.135 90.1309C192.548 86.7381 190.031 83.3609 186.33 83.3647C183.533 83.3647 185.69 96.3271 185.558 96.2224C175.848 88.704 165.498 86.6179 154.679 88.4636C153.852 88.6071 153.542 89.6462 154.159 90.2123C157.22 93.0196 158.857 96.106 158.725 99.5376C158.698 100.224 158.023 100.693 157.375 100.468C141.609 95.0048 123.927 99.4406 105.656 106.951C105.02 107.211 104.818 108.021 105.256 108.545C107.231 110.91 109.547 112.957 112.294 114.617C113.112 115.113 112.879 116.362 111.929 116.498C104.314 117.599 94.5535 121.794 91.5044 126.463C91.1863 126.947 91.3337 127.61 91.8302 127.917C94.8677 129.755 98.2466 131.096 101.99 131.918C102.871 132.112 103.08 133.264 102.328 133.764C86.5544 144.202 79.9402 156.66 75.448 170.123C75.2308 170.778 75.7157 171.457 76.4062 171.437C79.242 171.348 78.4351 170.968 81.7286 170.022C82.776 169.723 83.5092 171.038 82.6906 171.759C73.4347 179.824 68.0463 189.712 64.8614 200.63C64.6519 201.352 65.2532 202.05 65.9942 201.933C69.5748 201.375 73.5937 199.843 77.8881 197.711C78.8463 197.23 79.7928 198.35 79.1682 199.219C71.9411 209.215 67.5459 219.607 65.0088 230.258C64.7955 231.158 65.8002 231.856 66.5644 231.344C69.92 229.106 74.2842 226.276 77.504 225.59C78.404 225.4 79.0557 226.435 78.5204 227.183C71.3282 237.23 67.2666 248.261 64.8381 259.804C64.6636 260.638 65.5287 261.313 66.289 260.936C68.023 260.076 69.5864 259.013 71.0295 257.796C71.8092 257.14 72.9575 257.893 72.6666 258.866L67.3442 279.672C66.9718 282.495 65.9942 286.993 68.5972 285.837L100.462 272.224L287.8 274.155L319.665 285.837C322.404 287.016 320.867 282.045 320.204 279.133L315.596 258.862C315.305 257.889 316.457 257.136 317.233 257.792C318.672 259.009 320.239 260.072 321.973 260.933C322.737 261.309 323.602 260.638 323.424 259.8V259.808V259.812Z" fill="#A16143"/>
<path d="M285.558 361.083C283.51 353.855 280.55 346.43 276.923 338.857C274.428 333.65 272.83 328.047 272.252 322.305C269.874 298.838 264.908 275.996 258.36 253.538L194.135 265.384L129.909 253.538C123.361 275.996 118.395 298.838 116.017 322.305C115.435 328.051 113.837 333.65 111.347 338.857C107.72 346.426 104.764 353.852 102.711 361.083C94.4058 390.381 110.284 420.885 138.991 431.098C156.75 437.418 175.289 438.985 194.135 438.636C212.98 438.985 231.519 437.414 249.279 431.098C277.982 420.885 293.86 390.385 285.558 361.083Z" fill="#FFD183"/>
<path d="M195.45 292.41C164.792 292.41 139.941 335.686 139.941 380.354C139.941 409.051 150.202 427.667 165.664 437.306C175.029 438.493 184.537 438.814 194.127 438.636C204.865 438.834 215.506 438.407 225.956 436.841C241.016 427.073 250.955 408.597 250.955 380.35C250.955 335.686 226.104 292.406 195.446 292.406L195.45 292.41Z" fill="#FFEACD"/>
<path d="M249.279 404.181C231.519 410.501 212.98 412.068 194.135 411.719C175.289 412.068 156.75 410.501 138.99 404.181C119.951 397.411 106.563 381.711 102.122 363.359C95.2398 391.948 111.029 421.149 138.99 431.098C156.75 437.418 175.289 438.985 194.135 438.636C212.984 438.985 231.519 437.415 249.279 431.098C277.241 421.149 293.029 391.948 286.151 363.359C281.713 381.711 268.318 397.411 249.279 404.181Z" fill="#FBB96D"/>
<path d="M133.556 279.688C175.553 292.828 220.665 292.828 262.662 279.688C263.446 279.443 264.218 279.195 264.99 278.943C263.035 270.413 260.804 261.948 258.353 253.534L194.127 265.38L129.901 253.534C127.698 261.095 125.681 268.707 123.869 276.361C126.969 277.532 130.216 278.641 133.548 279.684H133.552L133.556 279.688Z" fill="#FBB96D"/>
<path d="M196.618 438.667C197.06 438.671 197.502 438.675 197.94 438.679H199.865C200.09 438.679 200.315 438.679 200.54 438.675C200.962 438.675 201.385 438.667 201.808 438.663C202.018 438.663 202.227 438.663 202.44 438.655C202.898 438.648 203.348 438.64 203.806 438.628C203.98 438.628 204.159 438.62 204.333 438.617C204.869 438.605 205.404 438.589 205.939 438.57C206.033 438.57 206.126 438.566 206.215 438.562C208.174 438.496 210.125 438.407 212.077 438.287C212.146 438.283 212.216 438.279 212.286 438.271C212.86 438.233 213.434 438.198 214.008 438.151C214.102 438.143 214.195 438.136 214.288 438.128C214.846 438.089 215.405 438.043 215.96 437.992C216.049 437.984 216.134 437.977 216.227 437.969C216.809 437.919 217.399 437.864 217.981 437.81C218.031 437.806 218.082 437.798 218.132 437.794C220.751 437.535 223.358 437.217 225.953 436.829C236.163 430.202 244.015 419.57 248.014 404.607C230.635 410.563 212.523 412.048 194.123 411.711C176.74 412.033 159.621 410.718 143.13 405.557C147.304 420.369 155.315 430.842 165.657 437.29C171.507 438.031 177.411 438.434 183.354 438.593H183.374C184.553 438.624 185.736 438.644 186.919 438.659H186.954C188.134 438.671 189.313 438.675 190.496 438.667H190.543C191.734 438.659 192.924 438.648 194.119 438.624C194.752 438.636 195.388 438.648 196.02 438.651C196.214 438.651 196.408 438.651 196.606 438.655L196.614 438.667H196.618Z" fill="#F5DEC3"/>
<path d="M87.7997 352.18C68.3489 328.939 98.3087 308.559 105.373 287.927C106.89 283.503 108.6 271.785 112.666 269.664C116.014 267.916 124.203 268.067 127.601 269.664C136.046 273.643 135.259 283.957 135.333 291.921C135.395 299.149 135.313 305.143 132.819 312.161C131.655 315.43 130.045 318.652 127.729 321.242C128.129 321.552 98.91 365.453 87.7997 352.177V352.18Z" fill="#FDAB57"/>
<path d="M292.354 158.568C331.694 153.388 318.819 113.923 301.153 104.687C288.46 98.0525 272.869 107.82 269.49 118.568C240.321 117.773 225.708 131.104 225.708 131.104C226.825 127.762 228.668 124.338 230.825 120.879C220.281 120.577 202.107 130.666 194.135 138.859C186.163 130.67 167.988 120.577 157.444 120.879C159.597 124.338 161.444 127.765 162.561 131.104C162.561 131.104 147.944 117.773 118.779 118.568C115.401 107.82 99.8058 98.0525 87.1166 104.687C69.4503 113.923 56.5749 153.388 95.9148 158.568C83.0317 169.266 76.7705 183.763 73.0464 199.708L85.0528 193.996C74.0085 208.591 75.7231 222.736 78.1904 236.85L84.4787 228.277C81.5149 236.702 93.0558 243.701 93.0558 243.701C95.3407 253.527 111.133 261.247 129.583 267.02C171.58 280.161 216.693 280.161 258.694 267.02C277.144 261.247 292.94 253.527 295.221 243.701C295.221 243.701 306.762 236.702 303.798 228.277L310.087 236.85C312.558 222.732 314.269 208.591 303.224 193.996L315.227 199.708C311.503 183.763 305.249 169.27 292.358 158.568H292.354Z" fill="#FFD183"/>
<path d="M246.978 213.81C255.059 213.81 261.607 205.373 261.607 194.966C261.607 184.558 255.059 176.125 246.978 176.125C238.898 176.125 232.35 184.562 232.35 194.966C232.35 205.369 238.898 213.81 246.978 213.81Z" fill="#2B1916"/>
<path d="M141.287 213.81C149.368 213.81 155.916 205.373 155.916 194.966C155.916 184.558 149.368 176.125 141.287 176.125C133.206 176.125 126.658 184.562 126.658 194.966C126.658 205.369 133.206 213.81 141.287 213.81Z" fill="#2B1916"/>
<path d="M141.287 196.575C137.071 196.575 133.424 193.43 131.674 188.87C130.972 190.708 130.573 192.775 130.573 194.965C130.573 202.589 135.368 208.765 141.287 208.765C147.207 208.765 152.002 202.589 152.002 194.965C152.002 192.775 151.606 190.708 150.9 188.87C149.151 193.434 145.508 196.575 141.287 196.575Z" fill="#54322B"/>
<path d="M246.982 196.575C242.762 196.575 239.119 193.43 237.369 188.87C236.667 190.708 236.268 192.775 236.268 194.965C236.268 202.589 241.062 208.765 246.982 208.765C252.902 208.765 257.697 202.589 257.697 194.965C257.697 192.775 257.301 190.708 256.595 188.87C254.846 193.434 251.199 196.575 246.982 196.575Z" fill="#54322B"/>
<path d="M135.969 196.478C138.906 196.478 141.287 193.41 141.287 189.626C141.287 185.842 138.906 182.775 135.969 182.775C133.032 182.775 130.65 185.842 130.65 189.626C130.65 193.41 133.032 196.478 135.969 196.478Z" fill="white"/>
<path d="M242.571 196.551C245.508 196.551 247.89 193.484 247.89 189.7C247.89 185.915 245.508 182.848 242.571 182.848C239.635 182.848 237.253 185.915 237.253 189.7C237.253 193.484 239.635 196.551 242.571 196.551Z" fill="white"/>
<path d="M112.553 232.65C120.343 232.65 126.655 226.342 126.655 218.556C126.655 210.77 120.343 204.461 112.553 204.461C104.764 204.461 98.4521 210.77 98.4521 218.556C98.4521 226.342 104.764 232.65 112.553 232.65Z" fill="#F0AE56"/>
<path d="M275.763 233.538C283.552 233.538 289.864 227.23 289.864 219.444C289.864 211.658 283.552 205.349 275.763 205.349C267.973 205.349 261.662 211.658 261.662 219.444C261.662 227.23 267.973 233.538 275.763 233.538Z" fill="#F0AE56"/>
<path d="M209.116 240.211C204.582 240.211 200.314 239.099 197.098 237.078C193.176 234.616 191.016 230.902 191.016 226.621C191.016 225.105 192.245 223.88 193.758 223.88C195.271 223.88 196.501 225.105 196.501 226.621C196.501 230.522 200.446 234.725 209.109 234.725C217.771 234.725 221.716 230.522 221.716 226.621C221.716 225.105 222.942 223.88 224.459 223.88C225.976 223.88 227.202 225.105 227.202 226.621C227.202 230.902 225.041 234.616 221.119 237.078C217.903 239.099 213.636 240.211 209.101 240.211H209.109H209.116Z" fill="#2B1916"/>
<path d="M178.408 240.211C173.877 240.211 169.61 239.099 166.394 237.078C162.472 234.616 160.311 230.902 160.311 226.621C160.311 225.105 161.537 223.88 163.054 223.88C164.57 223.88 165.796 225.105 165.796 226.621C165.796 230.522 169.742 234.725 178.404 234.725C187.067 234.725 191.012 230.522 191.012 226.621C191.012 225.105 192.241 223.88 193.754 223.88C195.267 223.88 196.497 225.105 196.497 226.621C196.497 230.902 194.336 234.616 190.414 237.078C187.198 239.099 182.931 240.211 178.4 240.211H178.408Z" fill="#2B1916"/>
<path d="M118.415 176.125C126.143 158.587 149.861 152.763 153.367 160.417C153.903 161.588 152.886 162.86 151.536 162.802C138.758 162.251 127.714 166.699 118.411 176.125H118.415Z" fill="#54322B"/>
<path d="M275.247 176.125C267.519 158.587 243.801 152.763 240.294 160.417C239.759 161.588 240.771 162.86 242.125 162.802C254.904 162.251 265.948 166.699 275.251 176.125H275.247Z" fill="#54322B"/>
<path d="M305.121 126.839C305.304 133.112 300.94 138.432 295.404 140.937C296.506 138.037 296.723 134.729 296.242 131.848C294.659 121.883 290.446 117.49 299.997 110.278C296.335 110.941 292.688 112.713 290.756 116.211C288.79 119.743 289.069 123.783 289.465 127.575C289.783 130.681 290.303 133.81 289.69 136.687C289.158 139.367 287.595 141.352 285.477 143.139L278.901 148.808L287.354 149.022C293.169 149.173 298.825 146.377 302.522 141.972C306.006 137.959 307.825 131.589 305.121 126.831V126.839Z" fill="#FDAB57"/>
<path d="M83.1484 126.839C82.966 133.112 87.3302 138.432 92.866 140.937C91.7643 138.037 91.547 134.729 92.0281 131.848C93.6108 121.883 97.8237 117.49 88.2729 110.278C91.935 110.941 95.5854 112.713 97.5134 116.211C99.4841 119.743 99.2009 123.783 98.8052 127.575C98.4871 130.681 97.9673 133.81 98.5802 136.687C99.1117 139.367 100.675 141.352 102.789 143.139L109.369 148.808L100.916 149.022C95.1005 149.173 89.4445 146.377 85.7475 141.972C82.2639 137.959 80.4445 131.589 83.1445 126.831L83.1484 126.839Z" fill="#FDAB57"/>
<path d="M214.571 210.041C212.592 231.689 174.92 231.673 172.946 210.041C172.911 191.953 214.609 191.953 214.571 210.041Z" fill="#2B1916"/>
<path d="M183.878 219.335C185.197 222.282 191.132 222.294 194.449 222.27C197.618 222.162 200.726 221.351 203.527 220.262C212.515 216.768 211.906 208.719 211.107 207.451C210.269 206.489 208.806 208.133 207.945 208.781C205.109 211.421 198.181 215.089 194.135 216.051C190.989 217.032 183.308 215.601 183.866 219.292L183.882 219.335H183.878Z" fill="#1C110F"/>
<path d="M181.349 212.344C183.851 211.367 186.877 209.424 188.727 207.377C193.27 202.084 185.36 200.15 181.26 202.333C179.087 203.317 177.252 205.198 176.469 207.447C175.185 211.1 177.194 214.054 181.267 212.379L181.349 212.348V212.344Z" fill="white"/>
<path d="M305.401 368.474C306.797 369.036 309.222 368.714 309.222 368.714C310.153 366.419 310.203 363.379 309.738 361.033C308.26 353.58 304.334 350.071 304.334 350.071C304.334 350.071 307.589 355.442 307.86 361.32C307.965 363.545 307.271 367.179 305.401 368.478V368.474Z" fill="#836138"/>
<path d="M323.571 354.867C325.22 352.339 324.971 349.575 324.971 349.517C323.641 347.109 320.378 342.301 315.316 341.754C315.316 341.754 320.51 345.213 322.551 349.447C323.303 351.009 323.73 352.987 323.563 354.867H323.567H323.571Z" fill="#836138"/>
<path d="M322.559 349.443C320.518 345.213 315.324 341.75 315.324 341.75C321.298 342.688 324.479 348.749 324.972 349.548C325.348 347.113 325.461 344.65 325.333 342.281C325.08 337.853 323.785 333.507 321.411 329.757C315.883 321.277 306.378 315.67 298.74 309.071C293.158 304.48 287.89 299.498 283.595 293.662C277.547 285.783 273.451 275.446 264.653 270.2C259.71 267.357 253.092 265.682 248.969 269.339L248.922 269.381C244.682 273.573 245.644 280.882 246.09 286.663C246.428 290.013 246.893 293.313 247.603 296.574C249.62 306.434 254.656 315.391 261.099 323.041C266.674 329.943 273.722 335.845 278.8 342.991C284.79 351.389 287.781 363.072 298.053 367.396C298.608 367.648 299.302 367.927 299.935 368.171C301.432 368.757 303.05 368.993 304.648 368.807C305.211 368.745 305.676 368.636 305.89 368.481C307.709 367.14 307.977 363.537 307.876 361.308C307.6 355.43 304.349 350.059 304.349 350.059C304.349 350.059 308.275 353.572 309.753 361.021C310.23 363.425 310.242 366.376 309.237 368.702C316.282 369.78 324.188 361.742 323.552 355.228C323.808 353.239 323.377 351.102 322.57 349.431H322.567L322.559 349.443Z" fill="#FDAB57"/>
<path d="M285.368 442.153C285.333 448.911 282.35 449.95 279.7 450.226C277.749 450.427 275.724 451.447 273.602 452.645C265.436 457.248 257.441 455.115 257.441 455.115C255.338 455.286 253.147 455.421 250.885 455.545C250.885 455.545 248.189 456.844 244.061 456.968C222.586 457.601 210.68 447.604 210.257 438.143C209.776 427.504 229.576 419.171 237.878 419.225C259.361 419.377 285.422 429.493 285.364 442.16V442.153H285.368Z" fill="#E89C4C"/>
<path d="M256.18 438.477C254.807 436.395 253.046 434.623 251.075 433.138C251.913 434.026 252.704 434.945 253.391 435.937C255.404 438.795 256.669 442.331 256.618 445.77C256.657 449.586 254.621 454.642 250.885 455.542C253.146 455.418 255.334 455.282 257.441 455.111C260.23 449.943 259.361 443.231 256.18 438.473V438.477Z" fill="#836138"/>
<path d="M274.417 435.433C272.706 433.781 270.696 432.467 268.524 431.676C270.533 432.816 272.217 434.402 273.544 436.201C274.87 438 275.844 440.02 276.379 442.102C277.411 445.902 276.705 450.233 273.598 452.641C275.945 451.986 277.993 451.191 279.696 450.218C279.797 449.741 279.879 449.26 279.917 448.779C280.329 443.638 277.935 438.868 274.417 435.429V435.433Z" fill="#836138"/>
<path d="M94.9415 442.153C94.9764 448.911 97.9596 449.95 100.609 450.226C102.56 450.427 104.585 451.447 106.707 452.645C114.869 457.248 122.865 455.115 122.865 455.115C124.967 455.286 127.159 455.421 129.421 455.545C129.421 455.545 132.117 456.844 136.244 456.968C157.72 457.601 169.626 447.604 170.048 438.143C170.53 427.504 150.73 419.171 142.428 419.225C120.944 419.377 94.8794 429.493 94.9415 442.16V442.153Z" fill="#E89C4C"/>
<path d="M124.133 438.477C125.506 436.395 127.267 434.623 129.238 433.138C128.4 434.026 127.609 434.945 126.922 435.937C124.909 438.795 123.644 442.331 123.694 445.77C123.652 449.586 125.692 454.642 129.424 455.542C127.163 455.418 124.979 455.282 122.868 455.111C120.079 449.943 120.948 443.231 124.129 438.473L124.133 438.477Z" fill="#836138"/>
<path d="M105.892 435.433C107.603 433.781 109.613 432.467 111.785 431.676C109.776 432.816 108.092 434.402 106.765 436.201C105.439 438 104.465 440.02 103.93 442.102C102.898 445.902 103.604 450.233 106.711 452.641C104.364 451.986 102.316 451.191 100.613 450.218C100.512 449.741 100.43 449.26 100.392 448.779C99.9804 443.638 102.374 438.868 105.896 435.429L105.892 435.433Z" fill="#836138"/>
<path d="M269.494 118.572C240.326 117.777 225.712 131.111 225.712 131.111C226.83 127.769 228.672 124.345 230.829 120.887C220.285 120.584 202.111 130.673 194.139 138.87C194.139 138.87 194.139 138.87 194.135 138.882V138.874C186.163 130.685 167.989 120.596 157.445 120.898C159.598 124.357 161.444 127.785 162.561 131.123C162.561 131.123 147.944 117.792 118.78 118.583C118.78 118.583 155.924 126.683 172.783 151.681C175.778 146.842 173.614 136.505 173.614 136.505C178.179 137.947 182.377 140.642 186.411 143.174C189.096 144.857 191.769 146.691 194.135 148.835C194.135 148.835 194.139 148.835 194.143 148.843V148.831C196.509 146.687 199.182 144.849 201.866 143.17C205.905 140.638 210.102 137.947 214.664 136.501C214.664 136.501 212.496 146.835 215.494 151.674C232.362 126.672 269.498 118.576 269.498 118.576H269.494V118.572Z" fill="#FBB96D"/>
<path d="M285.267 278.106C285.186 277.629 281.648 275.062 280.868 274.065C278.789 271.402 278.044 267.404 275.937 265.163C269.067 257.831 247.021 257.672 237.501 258.381C225.623 259.273 213.877 261.793 202.056 263.096C199.481 263.379 196.559 263.496 193.96 263.48C191.361 263.496 188.44 263.379 185.864 263.096C174.048 261.793 162.301 259.269 150.419 258.381C140.899 257.672 118.853 257.827 111.983 265.163C109.881 267.408 109.132 271.402 107.053 274.065C106.273 275.066 102.735 277.629 102.653 278.106C102.541 278.765 103.096 278.773 103.503 278.78C105.757 278.819 108.88 278.032 111.254 277.931C135.41 276.915 169.036 286.698 189.852 298.916C191.26 299.742 191.931 301.254 193.96 301.254C195.989 301.254 196.66 299.742 198.068 298.916C218.881 286.694 252.51 276.915 276.667 277.931C279.045 278.032 282.164 278.819 284.418 278.78C284.825 278.773 285.38 278.761 285.267 278.106Z" fill="#95A9B8"/>
<path d="M301.933 238.486C300.842 238.114 299.558 239.556 298.709 239.921C279.824 248.021 252.689 250.828 232.132 252.383C219.649 253.325 206.859 253.821 193.999 253.841H193.929C181.069 253.821 168.279 253.325 155.796 252.383C135.236 250.828 108.1 248.021 89.2194 239.921C88.3737 239.556 87.0858 238.118 85.9957 238.486C85.6854 238.591 85.344 238.858 85.4759 239.219C91.7409 248.513 98.7663 258.4 107.235 265.837C108.364 266.834 110.579 269.06 111.991 268.556C123.889 261.487 140.023 258.369 153.639 261.343C167.178 264.298 182.361 274.899 192.087 284.558C192.7 285.167 192.921 286.016 193.634 286.341V286.473C193.755 286.473 193.863 286.462 193.964 286.438C194.065 286.458 194.174 286.473 194.294 286.473V286.341C195.004 286.02 195.221 285.17 195.838 284.558C205.563 274.899 220.747 264.302 234.285 261.343C247.906 258.369 264.036 261.491 275.934 268.556C277.35 269.06 279.561 266.83 280.69 265.837C289.158 258.4 296.187 248.509 302.449 239.219C302.58 238.854 302.239 238.591 301.929 238.486H301.933Z" fill="#C1D2DE"/>
<path d="M89.7121 245.38C108.573 253.321 135.414 256.093 155.8 257.637C168.283 258.579 181.073 259.075 193.933 259.095H194.003C206.863 259.075 219.653 258.579 232.136 257.637C252.518 256.093 279.359 253.317 298.224 245.38C299.675 243.317 301.087 241.258 302.456 239.223C302.588 238.858 302.247 238.594 301.936 238.49C300.846 238.118 299.562 239.56 298.713 239.924C279.828 248.024 252.693 250.832 232.136 252.387C219.653 253.329 206.863 253.825 194.003 253.844H193.933C181.073 253.825 168.283 253.329 155.8 252.387C135.239 250.832 108.104 248.024 89.2233 239.924C88.3776 239.56 87.0897 238.121 85.9996 238.49C85.6893 238.594 85.3479 238.862 85.4798 239.223C86.8492 241.258 88.2612 243.317 89.7121 245.38Z" fill="#DEECF5"/>
<path d="M99.5849 159.068C99.9496 160.154 98.0953 159.812 97.8819 160.095C98.5104 163.046 97.0828 166.493 96.6212 169.556C94.1113 186.291 93.4673 203.616 79.1527 215.097C75.6303 217.92 65.7924 220.591 61.1024 222.596C52.2498 226.377 43.6378 231.103 36.9072 238.083C39.0913 232.418 42.7068 227.354 46.6093 222.751C48.549 220.463 50.8572 218.482 52.7502 216.291C62.2584 205.287 70.3933 191.58 72.104 176.881C80.4406 170.053 88.9634 162.061 99.5927 159.068H99.5849Z" fill="#C1D2DE"/>
<path d="M314.02 175.28C314.687 175.896 315.619 176.389 316.27 177.036C317.512 188.944 323.525 200.805 330.596 210.309C337.44 219.51 347.409 226.768 351.37 238.075C344.636 231.096 336.027 226.373 327.175 222.588C317.624 218.505 311.033 218.149 303.845 209.812C294.492 198.967 293.689 183.1 291.652 169.545C291.191 166.482 289.763 163.035 290.391 160.084C290.178 159.809 288.324 160.146 288.688 159.056C298.092 161.852 306.917 168.657 314.028 175.272L314.02 175.28Z" fill="#C1D2DE"/>
<path d="M76.79 171.158L75.9443 171.666C75.4517 171.352 75.471 170.999 75.4129 170.491C74.2801 160.689 77.0266 143.973 79.3426 134.198C94.049 72.1045 151.249 29.2781 215.866 41.6704C270.316 52.1163 306.51 98.5759 312.185 152.461C312.721 157.56 313.497 165.539 312.922 170.487C312.794 171.6 312.36 172.139 311.545 171.154V165.02C311.545 163.062 297.01 153.155 294.616 151.631C271.565 136.986 241.846 122.93 215.541 115.559C208.558 113.601 197.153 110.065 190.236 111.189C160.191 116.059 119.451 135.288 93.727 151.631C91.3296 153.155 76.7978 163.066 76.7978 165.02V171.154L76.79 171.158Z" fill="#C1D2DE"/>
<path d="M79.3389 142.608C94.0453 80.5148 151.245 37.6845 215.863 50.0807C270.313 60.5265 306.506 106.986 312.178 160.871C312.449 163.43 312.775 166.714 312.965 169.979C313.435 165.008 312.698 157.393 312.178 152.461C306.502 98.5721 270.309 52.1125 215.863 41.6705C151.249 29.2743 94.0453 72.1046 79.3389 134.198C77.1277 143.543 74.517 159.246 75.2851 169.173C75.8049 160.15 77.6825 149.603 79.3389 142.608Z" fill="#DEECF5"/>
<path d="M193.886 31.783C201.874 31.5426 201.133 41.6783 201.443 47.1997C201.92 55.6759 201.75 63.9154 201.443 72.376C201.338 75.2686 201.858 84.8459 199.744 86.6838C198.13 88.0874 195.663 86.2224 194.131 86.2224C192.598 86.2224 190.41 87.9362 188.711 86.8273C186.364 85.2957 186.919 75.1096 186.818 72.3721C186.512 63.9115 186.341 55.6758 186.818 47.1959C187.117 41.8605 186.384 32.0001 193.882 31.7791H193.89L193.886 31.783Z" fill="#95A9B8"/>
<path d="M286.908 135.024C293.643 140.786 302.065 148.327 307.088 155.551C311.736 162.228 319.913 175.497 322.152 183.069C322.885 185.555 321.252 184.368 320.092 183.422C315.196 179.417 312.302 176.047 306.572 172.414C272.276 150.662 232.133 136.055 194.205 121.914C162.356 133.535 129.58 145.85 99.7712 162.069C91.6131 166.505 80.173 172.538 73.264 178.486C71.4563 180.041 69.7959 182.329 67.9416 183.721C67.5188 184.035 66.1494 185.198 65.9321 184.085C65.7576 183.189 70.8123 173.019 71.6657 171.437C80.8868 154.295 90.3911 144.054 105.295 131.825C125.103 115.575 151.567 99.6847 174.89 88.9985C178.362 87.4087 191.835 81.4026 194.802 81.8136C198.647 82.3448 206.463 85.8112 210.288 87.4746C235.752 98.5603 265.848 116.982 286.916 135.016H286.908V135.024Z" fill="#D5E7F6"/>
<path d="M310.308 160.375C309.187 159.514 307.965 158.649 306.58 157.769C272.283 136.016 232.14 121.41 194.212 107.269C162.359 118.89 129.587 131.205 99.7787 147.428C93.5253 150.832 85.3438 155.167 78.7529 159.688C76.3206 163.267 73.9892 167.133 71.6693 171.441C70.8198 173.023 65.7573 183.197 65.9358 184.089C66.1569 185.202 67.5263 184.043 67.9452 183.728C69.8034 182.336 71.4599 180.053 73.2676 178.494C80.1728 172.55 91.6167 166.516 99.7748 162.077C129.583 145.854 162.359 133.539 194.208 121.918C232.14 136.059 272.283 150.665 306.576 172.418C312.302 176.051 315.196 179.417 320.095 183.426C321.251 184.372 322.888 185.559 322.155 183.073C320.378 177.048 314.839 167.428 310.308 160.378V160.375Z" fill="#F4CD53"/>
<path d="M137.668 274.325L143.002 293.166C142.967 294.007 140.574 295.302 139.736 295.732C135.348 298.001 128.788 300.882 124.145 302.576C123.027 302.983 121.518 303.359 120.331 303.472C119.109 302.983 115.734 295.791 114.753 294.181C114 292.952 109.659 287.311 109.78 286.57C114.683 282.743 115.816 276.752 114.043 270.917L7.37804 30.2009C3.31254 21.1858 1.50091 15.4705 0.313847 5.69543C-0.543476 -1.36153 0.170314 -1.6756 4.79055 3.72956C11.1875 11.2169 14.1784 16.4166 18.0694 25.5053L121.906 264.197C123.28 266.989 124.602 269.308 127.004 271.355C130.076 273.976 133.711 274.914 137.676 274.321H137.668V274.325Z" fill="#E2E3E4"/>
<path d="M138.514 277.303C131.865 284.74 121.86 289.447 111.882 290.102C113.066 291.785 114.377 293.553 114.757 294.178C115.738 295.787 119.113 302.972 120.335 303.468C121.522 303.359 123.035 302.983 124.149 302.572C128.788 300.878 135.348 297.993 139.74 295.729C140.574 295.298 142.971 294.003 143.002 293.162L138.51 277.303H138.514Z" fill="#D5D6D7"/>
<path d="M124.385 307.648C124.924 307.167 129.498 306.016 130.627 305.57C134.933 303.871 139.084 301.754 143.052 299.397C143.39 299.273 143.723 299.288 143.972 299.575C144.259 299.905 145.531 305.197 145.9 306.24C147.762 311.494 150.675 318.412 153.67 323.069C154.725 324.709 157.758 327.504 158.271 328.951C159.504 332.413 159.302 339.346 160.365 343.638C161.797 349.412 165.599 356.651 166.161 362.138C166.545 365.922 162.72 367.609 159.43 368.377C154.387 369.551 151.967 361.238 149.957 357.745C145.88 350.657 141.702 344.658 136.097 338.691C134.832 327.853 130.025 317.679 124.203 308.544L124.385 307.644V307.648Z" fill="#75A658"/>
<path d="M154.652 366.333C158.589 363.805 161.925 360.362 164.885 356.663C163.485 352.336 161.363 347.64 160.374 343.65C159.311 339.354 159.512 332.425 158.279 328.962C157.763 327.52 154.729 324.72 153.678 323.08C152.336 320.994 151.009 318.447 149.783 315.806C147.002 315.725 144.17 316.155 141.481 316.632C137.676 317.307 133.956 318.447 130.158 319.176C133.114 325.36 135.306 331.898 136.101 338.699C141.702 344.662 145.884 350.664 149.962 357.748C151.195 359.897 152.592 363.867 154.655 366.333H154.652Z" fill="#628847"/>
<path d="M83.7381 315.236C86.1782 313.747 90.9769 313.394 93.9445 312.631C96.1635 312.057 99.0962 311.351 101.191 310.587C121.507 303.22 141.443 292.383 161.44 284.116C165.991 282.208 171.36 276.485 175.576 274.794C180.344 272.887 184.968 276.539 182.299 281.487C180.115 285.531 175.223 285.291 171.468 286.59C168.896 287.481 166.739 288.943 164.408 290.044C149.209 297.222 134.014 304.503 118.528 310.89C111.568 313.759 102.758 316.147 96.2178 319.614C92.645 321.506 89.3398 325.403 84.8631 324.263C79.9364 323.014 79.595 317.753 83.7303 315.228L83.7381 315.236Z" fill="#BEBFC0"/>
<path d="M166.576 364.46C169.653 367.57 171.685 371.622 174.548 374.96C177.016 377.841 182.214 381.009 181.954 385.015C181.876 386.24 179.696 393.022 178.889 393.611C178.183 394.127 177.252 394.247 176.562 394.852C175.724 395.589 176.182 396.639 174.3 397.066C173.528 397.24 172.869 396.597 172.023 396.763C171.177 396.926 170.456 397.531 169.532 397.636C168.679 397.733 161.987 394.627 161.188 393.91C158.306 391.319 159.423 385.499 158.977 381.796C158.449 377.43 156.839 373.192 156.63 368.826C157.759 367.225 160.067 367.256 161.58 366.593C163.093 365.93 164.625 364.212 166.573 364.46H166.569H166.576Z" fill="#BEBFC0"/>
<path d="M180.022 380.397V380.486C179.94 381.711 177.764 388.493 176.957 389.082C176.251 389.598 175.32 389.718 174.63 390.323C173.792 391.06 174.249 392.111 172.368 392.537C171.596 392.712 170.937 392.068 170.091 392.235C169.234 392.401 168.524 393.002 167.6 393.107C166.755 393.204 160.156 390.145 159.275 389.4C159.493 391.203 159.997 392.836 161.192 393.91C161.991 394.627 168.683 397.733 169.536 397.636C170.459 397.531 171.169 396.934 172.027 396.763C172.876 396.597 173.532 397.24 174.304 397.066C176.181 396.639 175.727 395.589 176.565 394.852C177.256 394.247 178.187 394.127 178.893 393.611C179.7 393.022 181.88 386.24 181.958 385.015C182.066 383.344 181.221 381.82 180.022 380.397Z" fill="#AAABAB"/>
<path d="M164.516 345.255C164.027 346.399 163.461 347.624 163.605 348.823C164.295 354.743 154.682 361.897 150.431 363.603C131.488 371.192 98.9097 365.457 87.7994 352.177C68.3486 328.935 117.74 323.305 127.729 321.242C128.128 321.552 132.947 319.854 133.955 319.684C137.737 319.04 144.123 318.253 147.901 318.059C153.34 317.78 157.778 319.881 159.884 323.441C160.707 324.837 161.455 326.326 162.503 327.663C166.518 332.809 167.042 339.35 164.524 345.251H164.516V345.255Z" fill="#FDAB57"/>
<path d="M164.516 345.251C164.287 346.477 163.985 347.675 163.605 348.823C162.86 346.981 160.982 345.154 159.512 344.216C154.554 341.04 148.293 340.587 148.293 340.587C148.293 340.587 153.429 339.416 160.369 342.518C161.762 343.142 163.263 344.1 164.516 345.251Z" fill="#836138"/>
<path d="M162.484 327.671C161.374 324.864 159.877 323.441 159.877 323.441C157.138 323.134 151.226 323.01 147.855 326.818C147.855 326.818 152.832 324.581 157.468 325.364C159.183 325.651 161.041 326.45 162.48 327.671H162.484Z" fill="#836138"/>
<path d="M345.062 284.317H349.07C349.807 288.877 346.707 296.462 347.033 301.215C346.901 301.975 346.281 302.045 345.877 302.51C336.489 313.305 341.137 341.421 345.664 355.267C346.257 357.093 348.042 360.645 348.096 362.525C348.185 365.612 344.166 377.485 343.003 381.056C340.45 388.892 337.688 396.395 334.608 404.371C332.971 408.601 332.85 411.703 329.379 412.948C325.301 414.402 320.565 411.525 316.62 410.928C313.551 416.313 313.795 425.394 309.761 429.671C306.196 433.452 301.673 430.389 298.771 429.047C291.319 425.596 283.777 421.575 276.659 416.554C274.913 415.325 269.75 412.017 269.393 409.291C269.079 406.883 269.773 402.273 269.808 399.536C270.045 379.974 265.141 346.589 248.841 346.205C248.096 346.186 247.207 346.845 246.711 346.19C244.864 339.552 243.181 332.813 242.428 325.717C246.288 324.716 249.178 325.864 252.739 322.134C258.174 316.442 255.245 310.18 250.691 307.943C249.271 307.249 242.067 305.857 241.703 304.74C242.327 296.892 243.797 288.835 246.303 281.537C260.409 280.642 273.909 282.445 286.353 284.992C290.105 285.76 293.786 286.636 297.324 287.947C300.047 284.364 302.941 281.165 305.839 278.117C314.866 268.602 323.932 260.145 333.114 253.938H337.122C339.088 257.365 340.663 267.198 341.005 268.916C341.04 269.905 337.176 274.597 336.485 275.864C334.231 280.006 333.859 286.376 338.429 287.466C341.315 288.16 342.704 285.717 345.055 284.321H345.062V284.317Z" fill="#4B6936"/>
<path d="M349.07 284.317C350.148 289.75 350.649 295.461 351.044 301.215C350.912 301.975 350.292 302.045 349.888 302.51C340.5 313.305 345.148 341.421 349.675 355.267C350.269 357.093 352.053 360.645 352.107 362.525C352.197 365.612 348.178 377.485 347.014 381.056C344.461 388.892 341.699 396.395 338.619 404.371C336.982 408.601 336.862 411.703 333.39 412.948C329.313 414.402 324.576 411.525 320.631 410.928C317.562 416.313 314.381 424.817 310.343 429.094C306.778 432.87 305.684 430.392 302.782 429.047C295.33 425.596 287.789 421.575 280.67 416.554C278.924 415.325 273.761 412.017 273.404 409.291C273.09 406.883 273.784 402.273 273.819 399.536C274.056 379.974 269.153 346.589 252.852 346.205C252.107 346.186 251.219 346.845 250.722 346.19C248.875 339.552 247.192 332.813 246.439 325.717C250.299 324.716 253.189 325.864 256.75 322.134C262.185 316.442 259.256 310.18 254.702 307.943C253.286 307.249 246.079 305.857 245.714 304.74C246.338 296.892 247.809 288.835 250.315 281.537C264.42 280.642 277.92 282.445 290.364 284.992C294.116 285.76 297.797 286.636 301.335 287.947C304.058 284.364 306.952 281.165 309.85 278.117C318.877 268.602 327.943 260.145 337.125 253.938C338.076 253.938 344.585 266.745 345.016 268.916C345.051 269.905 341.187 274.597 340.497 275.864C338.243 280.006 337.866 286.376 342.44 287.466C345.326 288.16 346.715 285.717 349.066 284.321H349.074L349.07 284.317Z" fill="#75A658"/>
<path d="M257.464 328.745C261.033 324.934 261.165 316.648 259.466 313.716C260.444 317.396 258.058 320.762 256.747 322.13C253.186 325.86 250.295 324.717 246.436 325.713C246.676 327.978 247.014 330.203 247.417 332.402C251.137 331.491 253.981 332.452 257.46 328.738L257.464 328.745Z" fill="#628847"/>
<path d="M342.448 287.462C341.366 287.206 338.844 286.027 338.887 281.77C338.514 284.938 340.516 292.033 343.492 292.724C346.312 293.375 347.704 291.045 349.943 289.591C349.702 287.811 349.419 286.047 349.074 284.317C346.727 285.713 345.334 288.156 342.448 287.462Z" fill="#628847"/>
<path d="M346.005 340.063L338.844 367.52C336.986 372.739 335.003 377.69 332.815 382.894C331.663 385.635 331.559 387.667 329.177 388.388C326.985 389.051 311.398 332.134 306.475 308.024C306.312 307.241 305.152 307.408 305.218 308.202C307.282 333.743 307.27 396.062 305.144 398.14C302.794 400.431 302.076 398.822 300.167 397.88C295.291 395.464 290.372 392.696 285.748 389.315L272.531 379.745C273.505 386.725 273.889 393.751 273.819 399.532C273.784 402.269 273.09 406.876 273.404 409.288C273.761 412.013 278.924 415.321 280.67 416.55C287.785 421.571 295.326 425.592 302.782 429.043C305.684 430.385 306.782 432.862 310.343 429.086C314.377 424.809 317.558 416.306 320.631 410.92C324.572 411.517 329.312 414.398 333.386 412.94C336.862 411.699 336.982 408.597 338.615 404.363C341.695 396.391 344.453 388.884 347.01 381.052C348.174 377.477 352.196 365.608 352.103 362.522C352.049 360.645 350.268 357.089 349.671 355.263C348.34 351.203 346.994 345.86 345.997 340.063H346.005Z" fill="#628847"/>
</svg>
