<svg id="Layer_1" height="512" viewBox="0 0 1000 1000" width="512" xmlns="http://www.w3.org/2000/svg">
    <g>
        <path d="m150.975 816.385h.002c3.881 0 7.893-.421 11.947-1.255 2.195 11.816 6.744 22.426 16.092 29.307 5.75 4.228 12.477 6.463 19.449 6.463 2.432 0 4.898-.271 7.346-.814.813-.18 1.615-.363 2.408-.555 3.875 10.391 11.158 20.791 25.178 24.647 3.164.87 6.563 1.313 10.098 1.313 6.6 0 12.623-1.505 17.465-2.713 1.291-.323 2.543-.641 3.732-.89 4.844-1.023 9.98-1.521 15.699-1.521 13.035 0 26.814 2.667 38.711 5.165 33.986 7.14 68.324 16.726 101.535 25.997 37.613 10.499 76.506 21.357 115.932 29.021 36.938 7.18 69.096 10.67 98.314 10.67 24.16 0 46.326-2.285 67.77-6.984 24.01-5.262 50.693-13.603 66.572-35.574 14.848-20.546 7.072-45.359.193-63.379 2.828-2.945 5.447-5.916 7.891-8.951 15.344-19.044 12.941-41.891-7.131-67.903-8.82-11.435-15.371-26.586-20.023-46.313-.193-.822-.379-1.646-.553-2.471.035-.319.064-.641.09-.965 3.547-47.631 18.314-90.096 39.391-139.197l8.646-20.098c19.566-45.438 39.799-92.423 57.199-139.957 21.406-58.473 33.834-107.973 39.111-155.779.115-1.033.256-2.145.402-3.312 1.586-12.622 4.535-36.118-12.992-49.821-6.777-5.296-15.303-7.871-26.063-7.871-.992 0-1.982.023-2.973.063-.047-12.498-3.602-22.559-10.594-29.948-7.453-7.881-17.986-11.877-31.303-11.877-5.555 0-11.197.675-16.668 1.599-2.494-14.281-8.113-33.204-26.316-39.69-4.346-1.55-8.938-2.337-13.65-2.337-15 0-28.189 7.913-38.791 14.272-4.363 2.617-8.877 5.327-11.9 6.442-13.307 4.913-28.354 7.405-44.725 7.405-36.883 0-75.697-12.413-105.395-23.227-14.076-5.127-28.457-10.932-42.363-16.544-39.786-16.058-80.926-32.661-125.577-38.299-9.066-1.147-18.508-1.728-28.066-1.728-38.154 0-79.965 9.404-117.721 26.48-.363.162-.721.338-1.07.521-9.717 5.129-39.289 20.732-40.221 53.134-.553 19.269 3.672 37.81 7.76 55.74 2.85 12.503 5.541 24.313 6.475 35.637 5.658 68.62-13.443 137.069-31.787 195.838-5.943 19.04-12.305 38.372-18.455 57.064-14.387 43.732-29.264 88.952-40.338 134.938-7.199 29.889-12.283 60.439-15.113 90.803l-.178 1.896c-2.373 25.362-5.326 56.925 7.395 83.478 6.724 14.032 20.267 22.08 37.163 22.08z"
              fill="none"/>
        <g>
            <path d="m869.39 215.944c-9.07-7.09-27.264-2.125-38.559-.647.855-6.479 1.561-12.966 1.922-19.467 2.01-36.188-32.615-24.308-55.459-20.103-.367-3.33-.785-6.661-1.268-9.996-1.426-9.836-3.369-30.327-15.066-34.496-17.088-6.092-35.951 12.754-50.986 18.304-52.578 19.413-113.477 2.46-163.6-15.792-53.831-19.602-106.186-46.555-163.694-53.815-45.121-5.698-94.15 4.573-135.266 23.168-14.26 7.524-29.273 18.542-29.787 36.374-.842 29.447 11.742 59.653 14.178 89.209 5.707 69.244-12.166 137.787-32.611 203.281-19.826 63.514-42.85 125.984-58.447 190.752-6.977 28.966-11.889 58.373-14.654 88.033-2.213 23.762-5.281 52.844 5.381 75.099 5.48 11.439 18.314 12.35 29.072 9.753 7.055-1.702 13.502-5.608 19.967-9.263.004 14.032.402 35.183 10.107 42.324 3.24 2.384 6.945 3.193 10.949 2.308 7.465-1.657 14.492-3.942 21.596-6.026.994 11.812 3.51 27.076 15.43 30.354 6.951 1.914 15.344-1.153 22.057-2.57 20.617-4.349 42.203-.616 62.477 3.643 73.053 15.348 143.725 40.681 217.18 54.96 52.055 10.119 105.912 15.23 158.154 3.78 19.711-4.32 42.555-10.846 54.893-27.918 11.619-16.075-.967-40.635-6.883-57.051 5.684-5.012 10.959-10.346 15.59-16.094 11.795-14.641 2.303-31.101-7.387-43.657-12.127-15.718-19.068-34.656-23.58-53.788-.559-2.379-1.053-4.771-1.52-7.171.309-.646.525-1.374.59-2.206 3.867-51.901 20.611-98.141 40.926-145.466 22.621-52.702 45.729-105.182 65.451-159.062 17.908-48.922 32.307-99.308 38.035-151.198 1.153-10.442 4.648-27.867-5.188-35.556z"
                  fill="#68182b"/>
            <path d="m732.423 891.061c-19.266 12.224-47.18 15.864-69.379 18.072-47.125 4.693-95.049-3.562-141.012-13.224-56.127-11.802-111.85-27.183-166.92-43.13-25.188-7.292-50.641-13.018-76.949-13.353-8.551-.107-17.074 1.462-25.398 3.218-12.494 2.638-16.123-4.349-17.572-13.867-.822-5.386 2.852-7.841 9.824-8.61 67.457-7.443 138.447 25.961 201.658 44.824 58.172 17.357 118.452 24.821 178.817 16.371 36.859-5.158 79.623-19.487 111.557-43.534 7.184 19.143 16.499 39.826-4.626 53.233z"
                  fill="#efefef"/>
            <path d="m750.353 810.336c-17.488 21.708-50.051 36.795-75.395 46.552-29.807 11.473-61.891 15.79-93.637 16.683-70.984 1.997-137.028-21.533-203.762-42.304-55.719-17.344-115.289-33.308-172.258-13.247-11.682 4.112-13.266-14.193-13.371-27.808-.061-7.672 5.766-12.355 19.381-14.746 7.98-1.4 16.115-2.071 24.098-2.48 56.848-2.926 115.49 15.68 168.119 35.35 59.238 22.138 119.762 39.58 183.52 39.025 31.701-.277 63.006-6.856 92.795-17.373 11.738-4.146 29.527-10.392 29.832-25.655.387-19.474-11.615-37.758-16.16-56.469-6.439-26.525-6.16-54.681-4.979-81.766 2.879-65.96 18.064-131.481 34.139-195.28 23.266-92.351 62.541-187.02 55.629-283.699.266-.013.525-.011.805-.061 11.703-2.041 24.982-7.867 36.9-5.844 10.115 1.721 3.617 31.314 2.777 36.705-3.111 19.975-8.064 39.668-13.223 59.195-12.125 45.889-26.953 91.051-40.762 136.449-26.832 88.235-56.965 183.338-49.283 276.734 1.422 17.303 4.961 34.377 10.684 50.762 6.09 17.44 37.629 52.545 24.151 69.277z"
                  fill="#efefef"/>
            <path d="m864.106 238.444c-.596 23.523-5.697 47.184-10.891 70.051-11.27 49.621-29.451 97.621-48.436 144.715-21.643 53.68-48.441 106.175-66.514 161.133-7.553 22.956-12.025 19.01-8.553-6.355 1.277-9.318 2.76-18.542 4.322-27.606 16.773-97.293 51.773-190.396 78.506-285.14 6.289-22.291 12.574-45.137 16.516-68.22 8.021-.604 15.986-1.516 23.986-2.348 11.256-1.167 11.322 3.559 11.064 13.77z"
                  fill="#efefef"/>
            <path d="m550.981 622.343c-1.781-5.034-5.83-4.549-7.947-4.619-5.623-.186-11.246-.373-16.871-.559-5.928-.196-11.855-.395-17.785-.59-4.041 39.181-8.006 78.363-12.647 117.481 6.167 1.405 12.346 2.772 18.479 4.319.881-8.435 1.93-16.852 3.023-25.259.063-.477.176-.92.322-1.336.465-2.393 2.27-4.466 5.436-4.421 7.486.104 14.975 1.117 22.445 1.599 1.658.106 2.924.79 3.838 1.75.713.616 1.322 1.417 1.711 2.476 3.484 9.46 7.436 18.816 10.799 28.34 9.188-4.668 19.441-7.87 29.365-10.78-13.14-36.225-27.314-72.067-40.168-108.401zm-7.22 71.125c-6.705-.354-13.41-.708-20.115-1.063-3.105-.164-5.793-2.493-5.758-5.756.135-12.669 1.525-25.336 2.557-37.972 1.166-14.316 11.584-5.745 13.703-.782 5.408 12.62 10.678 25.307 15.166 38.286 1.187 3.442-1.958 7.478-5.553 7.287z"
                  fill="#ff5671"/>
            <path d="m535.403 681.515c-1.936-.104-3.875-.207-5.813-.309.156-4.29.395-8.578.723-12.867 1.766 4.365 3.454 8.759 5.09 13.176z"
                  fill="#efefef"/>
            <path d="m568.868 584.318c-55.586-15.766-100.397 17.13-119.028 68.948-17.125 54.676 3.799 129.182 72.793 128.934 48.066-.173 95.73-36.642 111.346-81.968 17.745-51.516-13.173-101.182-65.111-115.914zm32.111 155.547c-13.201 3.883-27.777 7.647-39.514 15.021-2.404 1.509-4.725.99-6.336-.44-.93-.657-1.695-1.635-2.119-3-3.311-10.598-7.668-20.903-11.631-31.29-4.461-.373-8.928-.82-13.393-1.082-1.15 8.845-2.271 17.693-3.031 26.577-.082.949-.352 1.772-.746 2.479-1.037 2.305-3.387 3.964-6.539 3.073-9.807-2.77-19.829-4.794-29.743-7.133-.379-.09-.717-.218-1.041-.357-2.021-.641-3.523-2.36-3.184-5.193 5.107-42.57 9.361-85.225 13.773-127.871.314-3.035 2.381-5.869 5.756-5.756 16.764.555 33.529 1.113 50.293 1.668 2.715.09 4.666 1.723 5.551 4.226 14.113 39.892 29.602 79.265 43.973 119.058 2.902 2.672 2.91 8.554-2.069 10.02z"
                  fill="#efefef"/>
            <path d="m314.319 155.183c10.551-2.41 21.146-4.758 31.805-6.698 6.482-1.185 7.887 1.811 8.832 5.262 1.695 6.155 12.637 62.628 12.982 67.817-23.188 3.061-46.111 7.635-69.076 11.851-1.643-14.405-5.861-44.991-11.344-60.386-3.1-8.72-1.912-11.261 4.926-13.018 7.271-1.866 14.773-3.209 21.875-4.828z"
                  fill="#fac135"/>
            <path d="m295.526 319.345c2.311-15.693 3.85-31.423 4.457-47.285 22.24-3.475 44.92-4.107 67.184-7.173-.852 22.095-2.791 44.258-6.445 66.063-13.041-2.418-25.992-5.484-39.115-7.58-7.972-1.271-17.403-3.726-26.081-4.025z"
                  fill="#ff801d"/>
            <path d="m288.967 353.581c20.77 5.012 41.105 13.092 61.961 17.474-5.826 18.333-12.713 36.235-20.145 53.981-18.756-6.771-37.516-13.539-56.271-20.31 5.512-16.865 10.371-33.88 14.455-51.145z"
                  fill="#fac135"/>
            <path d="m220 540.689c19.793 6.103 39.588 12.208 59.383 18.313-7.102 20.971-13.66 41.938-17.781 63.718-21.277-2.286-42.557-4.573-63.836-6.86 5.596-25.605 13.209-50.568 22.234-75.171z"
                  fill="#fac135"/>
            <path d="m191.672 714.224c-2.367-.582-1.725-24.913-1.773-28.621-.127-10.47.629-20.931 1.689-31.342 21.855 3.064 44.314 2.995 66.26 5.393-.135 9.448.191 18.839.982 28.29.494 5.907 5.057 16.766-1.348 19.358-10.736 4.35-23.072 5.802-34.484 7.05-10.056 1.101-21.382 2.313-31.326-.128z"
                  fill="#ff801d"/>
            <path d="m761.315 151.275c-5.936-19.109-30.566 2.826-41.873 7-11.217 4.142-22.631 7.27-34.535 8.7-22.35 2.68-45.398 2.615-67.625-1.345-64.164-11.433-121.124-43.372-183.018-62.063-61.041-18.432-122.248-17.114-181.039 9.477-26.947 14.215-25.016 30.147-19.096 56.102 4.463 19.57 7.996 39.466 9.189 59.537 2.564 43.101-1.756 86.127-11.441 128.177-19.846 86.175-54.803 167.919-76.273 253.636-11.32 45.187-20.873 92.18-19.342 139.008.254 7.794-.756 37.579 14.488 36.192 9.736-.889 16.832-6.362 25.277-10.448 12.621-6.106 25.506-9.811 39.354-12 69.143-10.945 141.168 16.111 204.992 39.11 65.207 23.494 136.627 42.604 206.305 29.876 20.32-3.713 42.637-8.199 61.135-17.794 15.877-8.237 9.277-22.172 3.664-35.54-9.125-21.744-13.383-45.243-14.494-68.753-6.043-127.758 38.113-254.159 71.229-375.771 15.426-56.652 31.07-125.242 13.103-183.101zm-485.238 1.979c16.785-6.793 67.471-17.483 75.688-18.021 5.414-.355 9.957.594 11.111 4.52 5.715 19.424 15.719 72.121 16.051 79.126.539 11.459-4.053 13.225-11.668 14.238-24.15 3.243-47.992 8.334-71.932 12.618-3.869.689-6.98-1.595-7.289-5.553-1.902-24.38-5.988-48.805-14.156-71.939-2.182-6.174-5.141-12.021 2.195-14.989zm-9.235 562.258c-10.271 5.71-53.986 11.317-74.918 9.941-10.537-.692-12.268-3.789-13.098-14.663-.352-4.581-.018-9.33-.137-12.662-.607-16.906.178-33.604 2.07-50.408.445-3.947 3.318-6.24 7.287-5.553 23.719 4.12 48.49 3.391 72.422 6.24 1.078.033 2.156.065 3.234.1 3.053.094 5.863 2.547 5.756 5.756-.592 17.494 3.756 34.992 3.301 52.16-.104 3.967-2.469 7.173-5.917 9.089zm23.135-151.972c-7.418 21.994-14.232 43.993-18.168 66.968-.393 2.301-3.217 4.476-5.549 4.226-25.154-2.703-50.307-5.406-75.461-8.109-3.861-.413-6.357-3.344-5.551-7.287 5.742-28.129 13.965-55.455 23.865-82.362 2.586-7.021 8.807-8.979 13.049-7.663 20.65 6.365 41.295 12.736 61.943 19.098 7.433 2.294 8.243 8.091 5.872 15.129zm37.219-101.193c-9.348 21.722-18.311 43.533-25.65 66.036-1.068 3.271-3.855 4.479-7.082 4.021-23.168-3.299-46.498-12.754-69.025-19.163-3.904-1.11-4.893-5.077-3.441-8.457 10.563-24.594 21.518-48.96 31.113-73.964 1.066-2.779 3.898-5.113 7.078-4.02 20.74 7.133 41.479 14.263 62.217 21.396 6.417 2.203 7.833 7.092 4.79 14.151zm33.738-84.596c-5.826 17.808-12.672 35.196-19.914 52.484-3.707 8.816-6.01 8.538-14.123 5.605-20.365-7.351-40.73-14.699-61.092-22.05-2.822-1.019-5.074-3.938-4.02-7.083 6.76-20.185 12.615-40.566 17.322-61.333.756-3.341 4.094-4.443 7.08-4.021 1.029.146 2.055.293 3.084.437.467.065.889.175 1.273.317 21.467 5.016 42.426 13.555 63.971 18.007 9.124 1.888 9.804 7.289 6.419 17.637zm-3.217-35.646c-13.057-2.435-26.008-5.604-39.172-7.634-5.467-.844-19.775-2.867-28.117-5.359-8.379-2.507-6.627-8.148-5.932-12.975 2.139-14.81 3.508-29.626 4.057-44.593.279-7.694 4.789-10.108 11.314-11.05 23.822-3.454 48.127-3.873 71.814-7.834 3.543-.592 7.402 1.508 7.285 5.551-.705 24.252-2.658 48.635-6.525 72.623-1.931 11.976-8.259 12.481-14.724 11.271zm285.591 365.703c-19.408 49.441-76.654 93.97-131.822 84.948-69.288-11.333-91.766-81.831-72.749-142.552 20.586-57.256 75.825-99.295 137.961-75.396 56.537 21.748 89.719 74.136 66.61 133z"
                  fill="#efefef"/>
            <path d="m261.95 439.561c18.184 6.253 36.373 12.507 54.561 18.763-8.783 20.43-17.223 40.971-24.348 62.047-19.252-3.48-38.555-10.633-57.377-16.358 9.257-21.415 18.634-42.733 27.164-64.452z"
                  fill="#ff801d"/>
            <path d="m575.216 726.521c-8.838 3.171-12.629-1.687-15.459-8.738-3.764-9.37-9.43-15.99-20.098-17.038-6.619-.652-19.869-1.934-24.211 4.963-2.652 4.209-3.82 8.761-4.768 13.622-.613 3.159-.92 11.466-6.73 10.456-2.814-.49-5.315-2.165-7.26-4.313-.334 2.86-.619 5.725-.959 8.583 6.167 1.405 12.346 2.772 18.479 4.319.881-8.435 1.93-16.852 3.023-25.259.063-.477.176-.92.322-1.336.465-2.393 2.27-4.466 5.436-4.421 7.486.104 14.975 1.117 22.445 1.599 1.658.106 2.924.79 3.838 1.75.713.616 1.322 1.417 1.711 2.476 3.484 9.46 7.436 18.816 10.799 28.34 9.188-4.668 19.441-7.87 29.365-10.78-1.016-2.804-2.07-5.593-3.098-8.392-.629.211-1.246.389-1.873.604-3.634 1.258-7.339 2.268-10.962 3.565z"
                  fill="#df3f58"/>
            <path d="m288.411 495.438c-15.623 4.977-30.936-1.412-36.045-17.265-1.262-3.913-1.553-7.94-1.314-12.016-5.338 12.649-10.813 25.239-16.266 37.854 18.822 5.726 38.125 12.878 57.377 16.358 3.777-11.176 7.939-22.193 12.313-33.131-4.936 3.473-10.243 6.347-16.065 8.2z"
                  fill="#ef6200"/>
            <path d="m258.831 687.943c-.381-4.542-.641-9.069-.805-13.598-4.33 7.447-10.023 14.09-16.98 19.163-12.6 9.184-27.869 8.754-41.424 2.071-4.48-2.208-7.576-5.438-9.719-9.24-.012 5.368-.48 27.33 1.77 27.884 9.943 2.441 21.27 1.229 31.326.128 11.412-1.248 23.748-2.7 34.484-7.05 6.404-2.592 1.842-13.45 1.348-19.358z"
                  fill="#ef6200"/>
            <path d="m365.09 296.831c-3.199 2.834-6.523 5.415-9.955 7.621-12.51 8.043-27.33 9.073-40.898 3.254-7.715-3.311-12.588-8.736-15.572-15.291-.787 8.999-1.82 17.973-3.139 26.93 8.678.299 18.109 2.754 26.08 4.025 13.123 2.096 26.074 5.162 39.115 7.58 1.895-11.297 3.311-22.691 4.369-34.119z"
                  fill="#ef6200"/>
            <path d="m361.557 185.958c-4.158 9.998-11.359 18.61-20.867 24.271-15.701 9.348-33.193 5.095-43.396-9.555-1.99-2.856-3.541-5.923-4.916-9.078 3.072 14.861 5.371 32.055 6.484 41.818 22.965-4.216 45.889-8.79 69.076-11.851-.18-2.709-3.25-19.396-6.381-35.605z"
                  fill="#ee9e2b"/>
            <path d="m276.172 568.73c-6.461 10.706-14.676 20.373-24.063 28.112-10.486 8.643-23.787 12.271-35.273 3.338-7.982-6.211-9.803-13.998-9.24-22.277-3.73 12.516-7.033 25.155-9.83 37.957 21.279 2.287 42.559 4.574 63.836 6.86 3.484-18.416 8.746-36.242 14.57-53.99z"
                  fill="#ee9e2b"/>
            <path d="m344.776 389.118c-4.832 4.198-10.035 7.832-15.521 10.582-10.76 5.397-22.297 4.838-32.477-1.378-12.215-7.459-11.861-18.759-11.406-30.401-3.254 12.369-6.879 24.629-10.859 36.806 18.756 6.771 37.516 13.539 56.271 20.31 4.97-11.872 9.662-23.825 13.992-35.919z"
                  fill="#ee9e2b"/>
            <path d="m829.058 227.021c-3.941 23.083-10.227 45.929-16.516 68.22-26.732 94.743-61.732 187.847-78.506 285.14-1.563 9.064-3.045 18.288-4.322 27.606-3.473 25.365 1 29.312 8.553 6.355 4.236-12.881 8.98-25.619 13.998-38.277.229-3.258.424-6.521.746-9.772 4.246-42.828 20.775-83.842 35.385-123.974 24.938-68.514 49.783-142.315 51.074-216.242-3.465.346-6.934.682-10.412.944z"
                  fill="#d5d5d5"/>
            <path d="m295.43 792.268c48.336 8.141 94.709 27.371 141.828 40.496 46.025 12.819 94.178 22.676 142.176 19.458 17.545-1.176 35.24-4.264 52.213-9.278-14.701 2.703-29.604 4.286-44.6 4.417-63.758.555-124.282-16.888-183.52-39.025-52.629-19.67-111.271-38.275-168.119-35.35-7.982.409-16.117 1.08-24.098 2.48-13.615 2.391-19.441 7.074-19.381 14.746.01 1.174.035 2.387.072 3.612 10.076-2.677 20.641-3.733 31.432-4.45 24.31-1.617 47.911-1.16 71.997 2.894z"
                  fill="#d5d5d5"/>
            <path d="m740.353 846.646c-1.076-2.955-2.213-5.903-3.305-8.817-31.934 24.047-74.697 38.376-111.557 43.534-60.365 8.45-120.645.986-178.817-16.371-63.211-18.863-134.201-52.268-201.658-44.824-6.973.77-10.646 3.225-9.824 8.61.148.978.34 1.909.543 2.826 19.25-2.446 38.477-2.864 58.18-.742 29.559 3.185 58.215 11.794 86.502 20.551 52.094 16.125 103.912 33.258 158.301 39.752 42.076 5.025 86.52 5.84 127.988-3.755 20.338-4.705 39.83-13.119 56.609-25.586 5.663-4.206 11.569-9.388 17.038-15.178z"
                  fill="#d5d5d5"/>
            <path d="m778.304 187.118c6.912 96.68-32.363 191.349-55.629 283.699-16.074 63.799-31.26 129.32-34.139 195.28-1.182 27.085-1.461 55.24 4.979 81.766 3.705 15.248 12.355 30.213 15.225 45.767-.785-7.334-3.08-15.328-3.998-21.107-2.891-18.188-6.516-36.172-8.264-54.53-3.137-32.911.816-67.199 4.953-99.856 4.334-34.184 10.828-68.188 18.26-101.826 14.35-64.957 38.242-127.333 55.178-191.6 11.686-44.351 26.736-94.552 18.605-141.104-4.912 1.266-9.762 2.648-14.365 3.451-.28.049-.54.047-.805.06z"
                  fill="#d5d5d5"/>
            <g fill="#68182b">
                <path d="m399.606 167.437c60.045-8.215 115.875 17.512 169.551 40.59 42.973 18.473 88.637 32.399 134.396 15.824 6.926-2.51 3.938-13.639-3.059-11.104-55.525 20.111-109.363-7.67-159.711-29.59-45.249-19.701-94.649-33.607-144.237-26.824-7.329 1.002-4.196 12.095 3.06 11.104z"/>
                <path d="m685.528 251.892c-50.354 10.843-97.07-10.2-142.857-28.475-43.782-17.473-90.905-28.854-138.065-22.184-7.328 1.037-4.197 12.129 3.059 11.104 54.555-7.717 106.561 11.984 156.274 31.99 40.098 16.137 81.436 27.971 124.648 18.668 7.258-1.562 4.18-12.662-3.059-11.103z"/>
                <path d="m674.015 311.76c-92.135 21.637-174.176-57.793-265.954-34.539-7.195 1.823-4.143 12.927 3.059 11.104 90.854-23.021 173.34 56.286 265.954 34.54 7.226-1.699 4.161-12.801-3.059-11.105z"/>
                <path d="m675.167 353.207c-93.217 14.095-170.982-52.888-264.426-40.501-7.25.961-7.344 12.487 0 11.514 51.1-6.773 97.383 8.25 144.618 25.682 40.596 14.98 79.818 20.918 122.867 14.41 7.32-1.11 4.199-12.202-3.059-11.105z"/>
                <path d="m663.653 429.194c-95.559 22.787-176.917-61.182-272.862-46.053-7.32 1.156-4.201 12.248 3.059 11.104 95.623-15.079 176.131 69.119 272.862 46.053 7.223-1.723 4.158-12.824-3.059-11.104z"/>
                <path d="m645.987 480.595c7.188-1.85 4.139-12.955-3.059-11.104-42.734 10.991-88.047-10.468-127.436-25.089-41.417-15.371-82.147-26.377-126.627-24.623-7.398.293-7.428 11.807 0 11.514 51.459-2.028 96.996 14.387 144.463 31.974 35.534 13.165 74.595 27.115 112.659 17.328z"/>
                <path d="m361.235 490.009c31.24 1.064 57.242 14.003 85.777 25.006 25.992 10.024 53.508 13.087 81.165 11.837 7.393-.335 7.424-11.849 0-11.514-29.833 1.35-57.428-3.451-85.233-14.173-27.311-10.533-51.869-21.652-81.709-22.669-7.428-.252-7.402 11.261 0 11.513z"/>
                <path d="m350.1 522.042c42.66-9.342 79 30.227 121.66 30.139 7.424-.016 7.426-11.529 0-11.514-44.271.09-79.262-39.68-124.719-29.729-7.251 1.587-4.177 12.686 3.059 11.104z"/>
                <path d="m427.461 609.382c-32.496-18.275-68.584-25.545-104.994-31.668-7.258-1.221-10.369 9.874-3.059 11.104 35.393 5.95 70.611 12.719 102.242 30.504 6.479 3.644 12.284-6.301 5.811-9.94z"/>
                <path d="m398.68 634.711c-26.824-16.147-56.367-27.58-88.104-26.116-7.391.342-7.426 11.855 0 11.514 29.816-1.377 57.111 9.385 82.293 24.541 6.378 3.84 12.161-6.117 5.811-9.939z"/>
                <path d="m389.625 676.728c-27.102-5.546-54.508-7.021-82.121-7.113-7.424-.024-7.422 11.488 0 11.514 26.58.088 52.959 1.362 79.064 6.703 7.245 1.481 10.331-9.616 3.057-11.104z"/>
                <path d="m373.508 704.358c-19.969-6.557-42.344-7.137-62.928-3.454-7.301 1.307-4.197 12.401 3.059 11.104 18.547-3.319 38.877-2.436 56.811 3.453 7.072 2.324 10.078-8.795 3.058-11.103z"/>
                <path d="m553.896 513.624c-1.5.365-3.008.671-4.527.943-.154.029-1.412.218-1.715.271-.479.057-.957.102-1.439.115-7.408.202-7.43 11.715 0 11.513 3.578-.097 7.273-.899 10.74-1.738 7.212-1.749 4.155-12.85-3.059-11.104z"/>
                <path d="m696.655 307.924c-1.605.49-2.828.56-4.607.562-7.424.014-7.426 11.527 0 11.514 2.604-.004 5.164-.209 7.67-.972 7.08-2.159 4.058-13.274-3.063-11.104z"/>
                <path d="m333.315 110.084c21.031-2.761 42.115-1.142 63.229-1.7.697-.018.822-.994.162-1.2-20.479-6.402-42.33-5.493-63.391-2.874-20.451 2.545-43.146 7.706-60.475 19.363-.234.16-.092.528.195.461 20.258-4.774 39.505-11.322 60.28-14.05z"/>
                <path d="m420.336 111.472c.494-.061.896-.664.445-1.075-4.43-4.024-11.334-4.558-16.746-2.167-.238.105-.232.512 0 .62 5.022 2.338 10.835 3.303 16.301 2.622z"/>
                <path d="m616.827 816.191c-18.906-.173-37.652 3.474-56.605 3.699-18.77.225-36.854-3.317-55.455-4.657-.211-.016-.297.309-.107.402 16.631 8.379 37.238 9.744 55.563 10.146 18.895.416 39.486-.464 57.006-8.115.754-.33.329-1.468-.402-1.475z"/>
                <path d="m636.784 811.017c-2.172.113-4.098-.064-6.24.433-2.156.501-4.537 1.425-6.313 2.766-.352.265-.363.854.129.985 2.021.539 4.316.539 6.371.175 2.721-.481 4.369-1.655 6.473-3.344.404-.327.068-1.04-.42-1.015z"/>
            </g>
        </g>
    </g>
</svg>