<svg id="Layer_1" enable-background="new 0 0 170 170" viewBox="0 0 170 170" xmlns="http://www.w3.org/2000/svg"><g id="_x33_9"><g><path d="m137.7800903 133.8491364-63.6138 28.2326965c-5.3738022 2.3849945-11.6765976-.035202-14.1166-5.4205017l-46.7505989-103.1819c-2.7728004-6.1197968.6458998-13.2422981 7.1306-14.8555984l66.1002006-16.4445992c4.9171982-1.2233009 10.0299988 1.1847 12.2507019 5.7698994l44.2639923 91.3937988c2.6527099 5.4770984.2667084 12.0514011-5.2644959 14.5062046z" fill="#512e35"/></g><g><path d="m141.5026855 132.192337-63.6125946 28.2353973c-5.373703 2.3851929-11.6652985-.010498-14.0917015-5.3657074l-46.4888992-102.6043929c-2.7573996-6.0856018.6731014-13.1822014 7.1550007-14.8016014l66.0718021-16.5074006c4.9151001-1.2279987 10.0178986 1.1581001 12.2268982 5.7174015l44.0295029 90.876297c2.6385956 5.4461003.2411957 11.9948979-5.2900086 14.4500065z" fill="#70444d"/></g><g><path d="m134.8039856 123.8544312-55.6765976 24.0189971c-3.0038986 1.2996979-6.4982986-.048996-7.8592987-3.0283966-.7933044-1.7417755 6.6485291 14.5975189-41.7481995-91.6623993-1.5572014-3.4207993.3676987-7.4300995 4.0216007-8.3373985l57.5403023-14.2962017c2.7586975-.6866989 5.6276932.6498013 6.8659973 3.2001019l39.884697 81.9517975c.048996.1102982.1103973.2205963.1472015.3309937 1.250597 3.0040091-.1349926 6.5106086-3.175703 7.8225059z" fill="#ebf2ff"/></g><g><path d="m134.8039856 123.8544312-55.6765976 24.0189971c-3.0038986 1.2996979-6.4982986-.048996-7.8592987-3.0283966l-29.4260979-64.6148986c14.9603729 28.0859375 39.133564 42.8500366 62.6654015 44.1760025 11.6600952.6497955 23.6021957-2.2315063 33.4722977-8.3742065 1.250595 3.0040053-.1349946 6.5106048-3.175705 7.8225021z" fill="#dbe6fa"/></g><g><g><path d="m57.292263 58.2664185c-.1498604-.4704895-1.1068001.2122879 27.6914024-9.0947266.3180237-.0985756.4657745.376358.1523438.4765625-28.9161644 9.0970459-27.6944313 9.0831757-27.8437462 8.6181641z"/></g><g><path d="m48.6965599 71.2459106 51.1245079-16.3046875c.3167267-.0997734.4666214.3760834.1523438.4765625l-51.1245079 16.3046875c-.3244477.0998307-.4603768-.3780822-.1523438-.4765625z"/></g><g><path d="m51.5740013 81.0916138c-.150589-.4727783-2.889595.7828445 51.2866173-16.6191406.3193741-.0975571.4649277.3766251.1523438.4765625-54.2459565 17.1727752-51.2854729 16.6205825-51.4389611 16.1425781z"/></g><g><path d="m54.8518333 90.7966919c-.105957 0-.2041016-.0673828-.2382813-.1738281-.0419922-.1318359.0307617-.2724609.1621094-.3144531 54.2340279-17.1725845 51.2888374-16.615448 51.4394493-16.1425781.150589.4727707 2.8891602-.7826996-51.2871056 16.6191406-.0253905.0078124-.0512694.0117187-.0761718.0117187z"/></g><g><path d="m66.3484116 97.3816528c-.1478577-.4642258-1.6303711.3802338 33.8969727-11.0732422.1323242-.0419922.2724609.0302734.3144531.1621094s-.0307617.2724609-.1621094.3144531c-35.4402542 11.1768723-33.8967057 11.0719452-34.0493164 10.5966797z"/></g></g><g><g><g><path d="m77.7492905 135.0464325c-.2099991-.1027985-.361702-.2680054-.4552002-.4954071-1.2107544-3.065567-2.4394836-14.625145-1.8786011-17.6237946.2249603-1.1091385 5.7560577-3.9952621 7.4550018-3.2968979.6043015.2639008 1.4803009 1.0100021 2.6279984 2.2382965 2.3323746 2.49617 4.8943176 5.6965256 6.9363022 8.4363022 2.5028839 3.3585052 3.1395874 3.9025726 1.7046967 4.7373047-1.5014877.8683472-4.0014954 1.8958588-4.4376984 2.0002899-1.3070831.2681274-2.3901901-3.0586014-3.8450012-2.7220917-1.2843399.5814056-2.8345261.6789246-2.9252014 1.7640991-.2642899 2.9656677-.3181839 3.4050598-.6932983 3.6477966-.4802858.3088533-3.9436113 1.638199-4.4889985 1.3141023zm3.8199005-13.379303c-.2512207.5935135-.4149551 2.6569138-.0606003 3.0873032.2490005.305397.821701.2713013 1.7182007-.1022034.8964996-.3735962 1.3091965-.7776947 1.2381973-1.2123947-.0438004-.2640991-.4908981-.7377014-1.3411942-1.4210052-.8504028-.6831971-1.3686065-.800499-1.5546035-.3516999z" fill="#2dc97d"/></g></g><g><g><path d="m93.9429932 106.0224304c.2595978.0200043.5674973.4357986.9237976 1.2475052.3563004.8115997.4924011 1.4173965.4081039 1.8171997-.030304.127594-.2898026.3209991-.7787018.580101-.4888992.2590942-1.0566025.5280991-1.7031021.8069.1046295.3474197.7125473 2.3681946.5860977 2.7015991-.0256958.2615967-.4175949.5557938-1.1755981.8824997-.7580032.3266983-1.3520966.4504013-1.7825012.3708954-.3599319-.0614471-1.2954636-2.0831375-1.4509964-2.4190979-.4889526.1815186-1.6989059.6172867-2.1785049.7408981-.6281967.1719131-1.2501831-.9543991-1.5022964-1.5514984-.2216644-.5250931-.6281204-1.8043289-.1247025-2.0727997.5731201-.2981262 1.5666275-.7173843 2.1622009-.9676971-.1779861-.4619675-.6331635-1.6734467-.7432022-2.1583023-.0586929-.2627029.0908051-.5347977.4486008-.8162994.7385941-.5812531 1.759407-.9745865 2.613205-1.0720978.4403-.0503998.7136993.0242996.8201981.223999.3137054.613472.7380219 1.6492157.9950027 2.2878952.5900955-.1867981 1.1208954-.3418961 1.5923004-.4651947.4714965-.1233062.768196-.1688003.8900985-.1365051z" fill="#2dc97d"/></g></g></g><g><path d="m38.28479 48.4552345c-.8922997.2285995-1.832798-.108902-2.3799973-.8498001-1.8635025-2.5234032-3.642601-5.1332016-4.6695023-8.0853004-1.1938992-3.4323006-1.2304001-7.4645004.7882004-10.4863014 2.8671303-4.2919426 8.3525581-5.1920319 13.1407013-5.8801003-3.2602997-2.0760002-4.0804024-7.2988997-2.165802-10.6564999s5.9967995-5.1311998 9.8548012-4.8975997c6.8261147.4135127 11.6133537 6.1805701 10.6399994 12.198801 2.2092018-.8009014 4.5852013-1.8551006 6.9079018-2.2112999 2.3227997-.3562012 4.776001-.2375011 6.907402.7518997 3.9923401 1.8533916 7.8188248 7.9942455 9.7026978 11.8162994 1.3098984 2.6572018-.1203995 5.8486996-2.990303 6.5837994z" fill="#ffb63c"/></g><g><path d="m86.6310883 36.066433-44.7399979 11.4639015c-1.7411003.4413986-3.5680008-.2207031-4.5979004-1.6797028-1.5447998-2.1578979-2.9548988-4.4139977-3.8130989-6.9029007-1.2014999-3.4329987-1.2383003-7.466898.7845993-10.4829979 2.8929329-4.3056602 8.3895874-5.195879 13.1437988-5.8852997-3.2614975-2.0721016-4.082798-7.2952003-2.1701965-10.6547003 1.9125977-3.3595009 5.9955978-5.1374006 9.8575974-4.9044003 6.7368355.4090681 11.616581 6.1056056 10.642498 12.1996002 2.2070999-.7968998 4.5858002-1.8514004 6.9029007-2.2068996 2.3174057-.3556004 4.7817993-.2329998 6.9029007.7479 4.0885391 1.8941193 8.052475 8.3264923 9.9559021 12.3344002.1716003.3556004.2818985.7111988.3310013 1.0667.3925018 2.145698-.9686051 4.3404002-3.2000046 4.9043994z" fill="#ffde9b"/></g><g><path d="m57.3397903 20.5686321c-1.888298.9563999-4.4138985-.2451992-5.6399994-2.6728001-1.3655319-2.7310648-.4170532-5.3139849 1.2137985-6.1182995 1.8880997-.9440002 4.4139023.2453003 5.6277008 2.6851997 1.0850716 2.1580812.916565 4.9658147-1.2014999 6.1058999z" fill="#ffb63c"/></g><g><path d="m57.8056908 20.274332c-3.05933 2.2960567-7.6240044-2.067276-6.6208992-6.1671991 3.063797-2.2994108 7.591938 2.0619784 6.6208992 6.1671991z" fill="#fff"/></g><g><path d="m157.6703949 89.5585327-3.0467987 7.3458023-52.8100052 12.5993958-6.5146027-27.2878952 3.8927994-3.8485031 2.3161011 2.3669967 46.6013031-11.117897 4.3280029 18.1189041z" fill="#2b5bde"/></g><g><path d="m157.6706848 89.5606308-52.8076935 12.5920029-5.6768036-23.7862015c67.7083282-16.1449547 49.6713867-11.8440704 52.8076019-12.5918961.5805512 2.4324646-2.1027526-8.810482 5.6768952 23.7860947z" fill="#4f91ff"/></g><g><path d="m137.5014954 74.3816299c-.9685059 2.8323059-1.5449066 5.738205-1.6920013 8.6072006-.0368042.6007996-.2696991 1.2261047-.7234955 1.7042999-3.5042267 3.6531906-10.8520203 2.6795959-11.5251083-2.954895-.0981979-.8092041.3187027-1.6552048.9932022-2.2560043 2.8110352-2.5304184 5.0525208-5.4293671 6.6820984-8.4477997z" fill="#ebf2ff"/></g><g><path d="m151.2214966 73.8054352c-9.2297821 8.6718369-24.1419754 4.1564865-25.8706055-8.1044006-.6621017-4.6837006.8826981-9.2815018 3.8621979-12.7268028 2.3664093-2.7709999 5.664505-4.7940979 9.4777069-5.5173988 8.5458984-1.6306992 16.4417877 3.8866997 17.6310883 12.3344002.7481079 5.2967032-1.3240967 10.4830969-5.1003876 14.014202z" fill="#ff6161"/></g><g><path d="m151.2214966 73.8054352c-9.2297821 8.6718369-24.1419754 4.1564865-25.8706055-8.1044006-.6621017-4.6837006.8826981-9.2815018 3.8621979-12.7268028-.9073029 5.6277008 1.115799 11.7458992 5.2844086 15.7184029 4.3771972 4.1687011 10.7404937 5.921997 16.723999 5.1128005z" fill="#f04444"/></g><g><path d="m133.0875854 86.1153336c-3.7274017 1.7779007-8.9627914.343399-9.5266953-4.3770981-.0981979-.8092041.3187027-1.6552048.9932022-2.2560043.9806976-.8827972 1.9125977-1.8267975 2.7708969-2.8199997-.6594085 4.0301513 1.5503312 7.8135223 5.7625962 9.4531021z" fill="#dbe6fa"/></g><g><path d="m157.6706848 89.5606308-52.8076935 12.5920029-5.6768036-23.7862015 2.3419037-.5638962.2696991.1347961c1.0177002 7.1359024 7.2583008 12.726799 14.1613998 14.7743988 6.9150009 2.0597992 14.357399 1.152504 21.3582993-.5394974 6.657608-1.6184006 13.1437073-3.9235001 19.3231964-6.9029007z" fill="#3d76ef"/></g><g><path d="m86.6310883 36.066433-44.7399979 11.4639015c-1.7411003.4413986-3.5680008-.2207031-4.5979004-1.6797028-1.5447998-2.1578979-2.9548988-4.4139977-3.8130989-6.9029007-1.5604687-4.4586678-1.1175995-9.4071751 2.6727982-12.5550976-2.4398994 3.7517986-1.0543976 9.5021992 2.2193031 12.5674 3.2735977 3.0652008 8.0552979 4.0951004 12.5305977 3.7640991 7.6090508-.5629463 12.1948357-3.8057327 38.9283028-11.5620995.3925018 2.1456986-.9686051 4.3404008-3.2000046 4.9044z" fill="#ffca6c"/></g><g opacity=".8"><g><path d="m63.8659286 49.4771614c2.7284317-.6631393 5.4353561-1.4006882 8.1231003-2.2131996 2.7647324-.8357849 1.5865326-5.1805077-1.1962738-4.3392563-2.6877365.8125076-5.3946609 1.5500565-8.1231041 2.2131996-2.8127021.6836243-1.6215782 5.0241318 1.1962776 4.3392563z" fill="#fff"/></g></g><g opacity=".8"><g><path d="m80.5421295 45.3605614c.3533859-.1325798.7067871-.2650948 1.0602036-.3976021 1.0987625-.4119606 1.9690781-1.5391693 1.5714874-2.767765-.3477554-1.074604-1.5878525-2.0138779-2.7677689-1.5714912-.3534088.1325073-.7068176.2650223-1.0602036.3976021-1.098671.4121857-1.9691315 1.5390053-1.5714874 2.767765.3476945 1.0744094 1.5879441 2.0141219 2.7677689 1.5714912z" fill="#fff"/></g></g><g opacity=".4"><g><path d="m140.302887 54.3249321c2.8210754-.1254654 6.3681641 1.976265 7.5116882 4.5363197 1.1789551 2.6393204 5.0578766.3531075 3.8856201-2.2712364-1.7454224-3.9075394-7.1484375-6.954052-11.3973083-6.7650833-2.8842774.1282768-2.9001618 4.6289864 0 4.5z" fill="#fff"/></g></g><g opacity=".4"><g><path d="m149.3868561 64.4308701c.0395813.2925949.0791016.5851974.1186066.8778.0696411.5158463.6090393 1.0959854 1.0340118 1.3446732 1.111084.6501999 2.5509796.1911011 3.0784302-.8071899.4271088-.808403.2629852-1.4673843.1082153-2.6115608-.0697937-.5159073-.6089325-1.0959129-1.0340118-1.3446693-1.3828125-.8092119-3.6513367-.0174372-3.3052521 2.5409468z" fill="#fff"/></g></g><g opacity=".4"><g><path d="m73.430748 23.6336517c1.878891-.4405537 1.083519-3.3338928-.7975159-2.8928375-2.0919342.4905052-4.1838684.9809933-6.2758026 1.4715004-1.8788834.4405518-1.0835114 3.3338928.7975235 2.8928375 2.0919266-.4905071 4.1838684-.9809951 6.275795-1.4715004z" fill="#fff"/></g></g><g opacity=".4"><g><path d="m61.8337898 26.6902332c1.2986679.0691319 2.1215363-.9513645 1.8464203-1.9524593-.2066383-.7519169-1.0729561-1.3036442-1.8451767-1.0476589.1799316.0097618.1795197.0098019-.0012436.0001183-.7848282-.0417786-1.5349464.7197857-1.5 1.5.0651436 1.4543552 1.6000099 1.5445709 1.5 1.4999999z" fill="#fff"/></g></g></g></svg>