<?xml version="1.0" encoding="UTF-8"?>
<!-- Generator: Adobe Illustrator 26.0.3, SVG Export Plug-In . SVG Version: 6.00 Build 0)  -->
<svg xmlns="http://www.w3.org/2000/svg" xmlns:xlink="http://www.w3.org/1999/xlink" version="1.1" id="Capa_1" x="0px" y="0px" viewBox="0 0 512 512" style="enable-background:new 0 0 512 512;" xml:space="preserve" width="512" height="512">
<g>
	<g>
		<g>
			<path style="fill:#00133E;" d="M508.642,159.981c-4.93-8.805-15.672-11.84-25.026-12.106c-2.4,0-5.835,0.067-9.001,0.725     c3.166-3.187,5.917-7.307,7.614-10.099c6.34-8.806,12.393-21.725,3.588-31.081c-7.111-8.056-21.569-12.215-32.795-12.281     c0.022-0.022,0.045-0.069,0.065-0.089c5.766-9.905,4.401-25.309-3.585-33.587c-9.622-9.905-28.328-11.004-41.272-10.171     c-3.52,0.336-9.486,0.924-14.286,2.732c3.918-5.941,6.207-14.594,6.581-19.502c1.101-18.708-13.757-31.102-31.653-33.588     c-23.925-3.831-52.537,4.138-67.945,23.946c-5.346,6.779-11.312,18.644-10.983,28.921c-6.053-6.052-15.32-10.96-22.321-6.071     c-2.484,1.696-3.719,4.466-4.004,7.57c-17.189-8.494-40.389-8.386-53.221,4.248c-7.132,7.154-8.806,20.096-3.302,28.613     c0.484,0.794,1.101,1.652,1.807,2.468c-2.094-0.464-4.253-0.725-5.923-1.08c-5.789-1.099-17.61-4.139-21.725,1.915     c-3.324,4.844-1.364,10.235,2.533,14.33c-26.944,7.834-42.99,42.701-39.953,70.412c1.631,13.758,7.135,28.063,19.238,35.503     c0.706,0.483,1.542,1.033,2.422,1.544c-9.684,1.033-18.709,10.121-11.224,20.182c6.886,9.111,18.179,11.376,28.965,11.751     c-4.844,5.152-8.872,10.985-10.523,17.411c-3.566,13.206,7.154,24.213,18.709,28.616c11.006,4.4,23.946,3.037,34.952-0.264     c0.706-0.266,1.674-0.552,2.751-0.877c-3.233,6.465-1.43,15.798,9.355,13.247c1.895-0.308,9.576-3.281,15.407-6.429l71.053,7.198     c0.482,0.242,0.924,0.441,1.299,0.597c5.809,2.332,13.336,0.549,18.992-3.545c-1.957,11.601,2.114,23.199,15.408,25.556     c10.677,2.088,24.082-2.49,25.466-14.444c3.237,2.071,7.287,3.614,9.465,4.539c8.255,3.873,17.059,5.236,26.128,3.034     c16-4.247,24.564-15.912,26.875-30.748c8.496,4.667,18.091,2.29,21.283-10.232c0.42-1.632,0.926-4.228,1.081-6.934     c4.841,0.636,10.211-1.213,14.327-3.545c11.555-6.871,17.608-19.524,18.973-32.73c1.587-14.022-1.539-28.79-11.84-38.959     C506.946,191.37,517.691,175.388,508.642,159.981z"/>
			<g style="opacity:0.1;">
				<path style="fill:#FFFFFF;" d="M402.196,292.987c-2.998,4.947-8.407,7.987-13.541,10.216      c-9.911,4.295-22.816,3.553-27.111-7.689c-4.865-12.737,5.939-30.07,17.638-34.332c2.079-0.761,0.204-2.126-1.328-1.566l0,0      c-15.749,5.738-29.56,32.522-13.501,44.975c10.858,8.425,32.924,0.25,39.878-9.977c2.75-4.037,8.578-14.622-0.473-15.227      c-6.325-0.428-9.794,7.612-11.438,12.359c-2.493,7.206-1.681,19.535,6.888,22.436c10.847,3.67,21.413,0.644,30.956-5.144      c1.849-1.122-0.885-1.871-2.04-1.174c-9.457,5.735-26.918,11.046-32.735-2.052c-1.932-4.353-1.595-9.379-0.241-14.028      c0,0,3.277-9.382,7.628-7.898C406.745,285.24,402.196,292.987,402.196,292.987z"/>
				<path style="fill:#FFFFFF;" d="M387.393,175.072c-3.405,7.562-11.978,11.34-19.592,7.268      c-9.647-5.158-6.343-25.557,3.999-27.741c1.983-0.422,1.438-2.313-0.507-1.902l0,0c-14.104,2.984-16.689,25.62-4.248,32.274      c4.613,2.465,11.883,1.588,16.047-1.416c2.655-1.918,11.802-10.493,8.405-14.572c-8.431-10.124-13.743,20.24-13.571,23.652      c0.999,19.344,25.387,17.092,37.575,11.701c2.021-0.888,0.203-2.279-1.335-1.602c-9.261,4.095-20.639,6.149-28.817-1.288      c-5.981-5.444-4.686-15.052-2.768-21.972c0.559-1.932,1.259-3.814,2.099-5.644c0,0,1.947-3.88,3.346-3.309      C389.322,171.052,387.393,175.072,387.393,175.072z"/>
				<path style="fill:#FFFFFF;" d="M376.367,124.954c0.07,3.824-5.592,9.345-11.678,11.131      c-17.413,5.602-46.151-10.255-33.488-29.987c1.254-1.952,9.356-13.342,13.079-5.946c2.113,4.197-2.811,9.192-5.319,11.762      c-4.919,5.038-11.335,8.786-17.325,12.406c-5.877,3.551-11.615,6.888-18.151,9.13c-5.61,1.929-11.868,2.715-17.311-0.122      c-8.503-4.436-6.614-17.825,0.554-22.375c1.827-1.16-0.885-1.932-2.046-1.196l0,0c-13.01,8.256-7.429,26.367,7.295,27.533      c13.111,1.038,26.001-8.128,36.544-14.755c4.135-2.598,28.913-19.649,16.749-26.403c-8.47-4.703-18.738,9.394-20.546,16.276      c-4.39,16.731,16.379,25.079,29.246,26.428c7.025,0.738,14.151-0.836,19.65-5.275c2.761-2.229,7.466-10.824,3.209-13.778      c-9.298-6.443-7.778,9.647-4.786,14.172c9.41,14.219,32.055,8.023,44.191,1.777c1.951-1.005,0.175-2.371-1.334-1.594      c-10.816,5.569-24.07,9.094-35.377,2.876c-3.838-2.11-5.96-4.255-7.007-8.047c0,0-2.364-7.081,1.383-7.185      C376.329,121.715,376.367,124.954,376.367,124.954z"/>
				<path style="fill:#FFFFFF;" d="M317.535,90.929c-13.65-2.251-21.081-19.133-15.667-31.386c4.365-9.88,19.516-7.753,24.604-0.128      c1.565,2.34,3.812,5.28,0.809,8.034c-4.59,3.709-7.798,3.348-9.624-1.08c-0.638-1.377-1.09-2.815-1.356-4.309      c-7.641-31.064,32.107-56.463,58.151-41.013c0.84,0.5,3.563-0.799,2.992-1.138c-17.078-10.13-38.639-4.064-52.856,8.289      c-8.1,7.043-11.318,16.956-11.952,27.358c-0.35,5.769,1.59,18.869,10.495,16.612c6.694-1.696,11.125-9.172,5.442-15.235      c-5.119-5.46-12.33-6.057-19.282-4.553c-21.789,4.708-11.822,37.01,6.213,39.983C316.284,92.495,319.212,91.207,317.535,90.929      L317.535,90.929z"/>
				<path style="fill:#FFFFFF;" d="M365.2,85.674c-2.286,7.887,6.105,17.536,14.395,17.006c9.005-0.577,15.93-5.591,19.168-14.13      c1.892-4.994-1.634-15.021-8.345-12.509c-9.745,3.648-5.091,15.08,0.321,20.362c13.4,13.078,38.353,10.341,48.048-5.385      c10.163-16.479-11.096-34.332-23.941-18.364c-0.702,0.877,2.4,0.461,2.908-0.169c9.693-12.051,18.736,0.042,20.026,9.394      c2.507,18.172-21.598,23.757-34.93,18.925c-4.294-1.555-7.874-4.311-11.09-7.448c-1.838-1.935-3.06-4.17-3.67-6.707      c-1.407-4.536,0.156-8.239,5.151-8.176c7.538,1.092,1.398,13.997-1.957,18.036c-9.63,11.604-26.048-0.6-22.932-11.362      C368.581,84.37,365.45,84.814,365.2,85.674L365.2,85.674z"/>
				<path style="fill:#FFFFFF;" d="M422.973,242.052c-12.71,4.259-8.152,25.495,4.394,27.067      c13.808,1.724,19.983-18.244,13.433-27.663c-0.53-0.761-2.582-0.014-2.963,0.602c-10.904,17.619,16.885,28.083,30.345,21.9      c15.152-6.957,16.051-37.23,1.389-44.65c-0.859-0.436-2.462,0.103-2.865,0.963c-6.507,13.78,16.769,14.327,21.77,4.286      c9.973-20.024-12.531-45.58-33.272-37.391c-2.079,0.822-0.164,1.774,1.239,1.224c17.008-6.718,28.989,11.418,30.888,25.348      c1.074,7.856-2.902,17.212-12.77,16.14c-5.699-0.625-6.732-5.669-4.675-10.033c-0.953,0.319-1.913,0.638-2.865,0.961      c11.604,5.871,10.787,21.55,7.133,32.08c-7.456,21.506-46.807,8.144-33.36-10.807c-0.987,0.2-1.974,0.403-2.962,0.602      c6.839,7.98,2.747,16.729-3.537,22.639c-12.531,11.79-21.946-18.072-10.921-21.764      C425.221,242.938,424.86,241.419,422.973,242.052L422.973,242.052z"/>
				<path style="fill:#FFFFFF;" d="M441.283,148.283c-3.287-5.572-11.636-9.382-17.581-1.113c-3.849,5.799-7.133,21.009,3.416,22.53      l0,0c2.147,0.311,0.511,2.601-1.092,2.371c-14.659-2.118-10.12-24.763,0.391-29.684c5.675-2.66,14.628-1.499,17.782,4.475      c1.935,3.662,3.188,9.355-2.768,9.777c-7.026,0.497-7.994-13.578-7.654-17.847c0.69-8.714,2.775-19.207,10.158-24.89      c11.479-8.836,32.065-13.442,40.591,1.615c0.839,1.485-2.19,2.699-2.916,1.419c-5.719-10.099-18.314-10.735-28.099-6.06      c-9.158,4.372-14.308,11.399-15.808,21.598c-0.822,5.58-1.849,11.883,0.143,17.279c0,0,1.873,4.418,3.676,3.798      C444.193,152.631,441.283,148.283,441.283,148.283z"/>
				<path style="fill:#FFFFFF;" d="M469.368,176.085c3.154,7.656,11.36,8.767,18.117,4.8c2.748-1.61,6.271-4.286,6.493-7.806      c0.207-3.257-2.133-7.032-5.73-6.685c-2.429,0.236-3.262,1.674-3.33,3.981c-0.154,5.372,3.477,9.208,8.481,9.997      c7.723,1.224,18.761-4.767,14.741-13.581c-0.326-0.708-3.401,0.394-3.191,0.855c3.541,7.762-4.808,14.144-12.67,10.419      c-1.856-0.88-3.956-2.624-4.662-4.406c-0.412-1.044-0.859-3.489-0.094-5.907c10.738,3.978-8.067,24.218-14.966,7.479      C472.269,174.533,469.161,175.582,469.368,176.085L469.368,176.085z"/>
				<path style="fill:#FFFFFF;" d="M181.393,112.985c0.536,15.091,20.812,22.358,33.681,18.911      c6.876-1.841,14.62-6.829,17.998-13.267c3.109-5.924,8.682-17.581,0.65-21.673c-0.658-0.339-2.017,0.094-2.536,0.542      c-4.213,3.642-2.085,11.901-0.499,16.312c2.294,6.374,9.863,11.965,16.624,12.453c14.745,1.063,23.504-10.38,27.504-23.488      c0.269-0.874-2.882-0.433-3.163,0.492c-1.466,4.794-3.295,8.886-6.11,13.1c-7.687,11.515-21.172,9.394-28.881,1.23      c-3.821-4.045-5.965-8.904-5.603-14.156c0.237-4.273,2.936-4.084,4.51-0.969c0.815,2.94-1.835,7.256-2.699,10.115      c-4.337,14.327-18.322,20.868-32.237,16.951c-8.334-2.346-15.726-8.364-16.047-17.409      C184.556,111.364,181.357,111.936,181.393,112.985L181.393,112.985z"/>
				<path style="fill:#FFFFFF;" d="M254.315,96.742c-5.54,1.141-6.618-2.693-6.064-6.829c0.473-3.581,3.642-6.071,6.662-7.498      c5.824-2.751,14.187-1.985,18.565,2.638c4.796,5.063-4.016,2.356-5.535-0.329c-1.231-2.168-0.994-5.668-1.318-8.094      c-1.166-8.797,4.661-17.345,14.052-17.844c1.14-0.064,3.392-1.888,1.25-1.774c-12.341,0.655-19.892,9.933-18.247,22.303      c0.72,5.422,3.874,10.149,9.304,11.44c2.351,0.561,4.754-0.75,4.64-3.187c-0.221-4.811-7.766-7.301-11.425-7.978      c-4.547-0.841-10.28,0.022-14.286,2.393c-8.589,5.094-9.899,18.933,2.817,16.309C256.685,97.889,256.228,96.348,254.315,96.742      L254.315,96.742z"/>
				<path style="fill:#FFFFFF;" d="M233.164,82.198c-4.758,4.782-10.17-1.618-9.629-8.158      c-0.524-10.671,14.974-13.836,22.744-13.475c1.599,0.075,3.236-2.301,1.083-2.404c-11.579-0.539-27.641,4.367-26.95,18.461      c0.584,11.873,15.786,13.458,16.515,1.496c0.196-3.204-3.327-7.243-6.586-7.254c-5.512-0.025-9.519,4.256-12.867,8.162      c-8.263,9.652-12.954,26.806-1.225,35.944c1.171,0.913,3.924-0.735,2.446-1.888l0,0c-11.275-8.789-5.548-24.004,1.47-33.041      c1.835-2.365,4.027-4.428,6.575-6.007c0,0,5.158-2.624,7.443,3.397C235.199,80.114,233.164,82.198,233.164,82.198z"/>
				<path style="fill:#FFFFFF;" d="M209.256,257.945c-0.487,3.084-1.688,5.858-3.594,8.326c-5.308,7.426-14.288-0.272-17.853-4.506      c-2.168-2.573-9.464-26.378,0.856-24.807c1.542,0.236,3.259-1.952,1.115-2.282l0,0c-15.482-2.357-8.742,23.913-3.421,30.234      c3.628,4.306,10.76,8.145,16.48,5.922c5.724-2.224,12.008-10.835,9.852-17.376c-1.538-4.655-6.317-2.992-8.611,0.211      c-4.435,6.191-3.501,18.355-0.546,24.915c4.022,8.922,15.811,10.607,24.315,10.38c12.235-0.328,23.159-8.85,31.672-16.737      c1.449-1.349-1.65-1.846-2.664-0.911c-12.087,11.201-28.6,20.773-44.851,11.834c-9.071-4.989-7.954-16.765-6.35-25.259      c0,0,0.353-4.095,2.855-3.862C209.675,254.136,209.256,257.945,209.256,257.945z"/>
				<path style="fill:#FFFFFF;" d="M208.849,180.878c-3.251-2.304-3.96-7.418-4.335-10.972c-0.616-5.813,1.471-11.215,4.518-16.012      c5.925-9.339,22.786-13.158,27.064-1.33c0.354,0.972,3.509,0.022,3.191-0.855c-6.678-18.444-30.777-3.686-36.166,7.62      c-4.059,8.512-2.523,22.056,7.24,25.431c2.533,0.874,9.131,0,8.657-3.975c-0.851-7.148-8.309-10.663-15.102-10.005      c-8.039,0.777-13.244,5.777-15.786,13.334c-3.001,8.914,1.785,17.053,8.263,22.874c3.101,2.782,6.964,2.11,9.383-0.952      c0.791-1.005-2.373-0.652-2.936,0.055l0,0c-3.077,3.903-10.932-9.863-11.573-11.157c-5.369-10.818,5.928-25.342,18.339-21.356      c0,0,7.649,2.535,7.599,7.763C217.204,181.342,215.738,185.099,208.849,180.878z"/>
			</g>
		</g>
		<path style="fill:#009B77;" d="M377.964,414.845c-11.82-54.236-40.698-80.561-53.463-89.869l-30.359,6.038l-60.546,32.527    l-17.697,6.735l28.481,113.912l100.754,4.139c0,0,9.536-24.332-1.101-54.044l24.556-16.817L377.964,414.845z"/>
		<g>
			<path style="fill:#E18649;" d="M391.457,240.85c-10.783,12.237-30.133,14.219-44.397,7.44l-22.118,55.796l-6.692,16.839     c0,0,2.376,1.252,6.252,4.05c-13.757,16.484-53.025,59.075-81.619,46.574c-5.148-2.268-8.078-4.997-9.286-8.009     C226.486,345.971,277,318.724,277,318.724s6.012-4.997-23.112-21.836c-0.702-0.439-1.452-0.855-2.2-1.277     c-5.523-3.126-10.609-6.182-15.188-9.308c-0.683-0.486-1.364-0.972-2.025-1.43c-20.403-14.594-30.506-31.541-26.543-65.198     c3.191-27.158,21.174-63.369,33.498-85.641c0.837,0.48,1.785,0.855,2.817,1.166c7.86,2.462,17.896-0.441,24.5-5.041     c-3.104,8.736,1.077,15.851,10.455,18.247c14.022,3.873,30.529-2.465,42.636-9.336c2.596-1.452,5.767-3.409,8.736-5.744     c0.264,1.013,0.661,1.938,1.169,2.709c6.425,9.813,16.2,14.416,26.479,14.416c-6.341,9.33-10.631,20.712-10.788,30.156     c0,9.616,4.933,17.608,15.408,17.894c0.837,0.044,1.696,0.044,2.552-0.025c-3.389,4.075-6.183,9.686-7.241,12.131     c-2.465,6.449-2.267,13.161,0.816,17.961c5.81-5.572,14.46-7.773,22.582-6.693C390.884,223.242,399.425,231.781,391.457,240.85z"/>
			<g>
				<path style="fill:#FFFFFF;" d="M272.833,229.946c0,0,40.075,19.716,44.843-6.998      C322.447,196.236,285.874,181.287,272.833,229.946z"/>
				<path style="fill:#00133E;" d="M274.065,230.276l-2.458-0.658c7.391-27.594,22.144-34.698,32.566-32.36      c10.277,2.288,16.548,12.778,14.95,24.685l12.957,2.621l-0.501,2.496l-15.371-3.109l0.218-1.224      c2.243-12.578-4.925-21.229-12.807-22.988C294.309,197.666,280.992,204.42,274.065,230.276z"/>
				<path style="fill:#00133E;" d="M296.415,218.147c0,5.796,4.624,10.494,10.335,10.494c5.705,0,10.337-4.697,10.337-10.494      c0-5.799-4.632-10.499-10.337-10.499C301.038,207.649,296.415,212.348,296.415,218.147z"/>
				
					<rect x="313.218" y="217.367" transform="matrix(0.9987 -0.0502 0.0502 0.9987 -10.5674 16.4807)" style="fill:#00133E;" width="19.26" height="2.543"/>
				
					<rect x="312.67" y="211.724" transform="matrix(0.9443 -0.3291 0.3291 0.9443 -52.1316 118.0116)" style="fill:#00133E;" width="19.709" height="2.543"/>
			</g>
			<g>
				
					<rect x="210.456" y="185.8" transform="matrix(0.4219 -0.9067 0.9067 0.4219 -54.719 304.9066)" style="fill:#00133E;" width="2.545" height="19.122"/>
				
					<rect x="212.682" y="180.57" transform="matrix(0.6007 -0.7995 0.7995 0.6007 -66.4823 246.926)" style="fill:#00133E;" width="2.542" height="18.895"/>
				<path style="fill:#FFFFFF;" d="M252.04,225.834c0,0-30.532-4.455-35.939-20.357C210.694,189.574,247.024,160.231,252.04,225.834      z"/>
				<path style="fill:#00133E;" d="M250.772,225.929c-2.729-35.709-14.237-39.653-19.17-39.653c-0.03,0-0.062,0-0.093,0      c-7.665,0.078-14.291,8.345-14.665,15.135l-0.08,1.402l-13.898-2.162l0.391-2.515l11.19,1.741      c1.177-7.69,8.424-16.057,17.035-16.148c0.038,0,0.078,0,0.119,0c5.659,0,18.815,4.186,21.706,42.01L250.772,225.929z"/>
				<path style="fill:#00133E;" d="M227.807,207.032c0,5.799,4.626,10.499,10.334,10.499c5.706,0,10.338-4.7,10.338-10.499      c0-5.794-4.632-10.493-10.338-10.493C232.434,196.539,227.807,201.239,227.807,207.032z"/>
			</g>
			<g>
				<path style="fill:#90400C;" d="M296.934,265.132c0,7.259-6.085,13.147-13.59,13.147c-7.502,0-13.59-5.888-13.59-13.147      c0-7.259,6.088-13.147,13.59-13.147C290.849,251.985,296.934,257.873,296.934,265.132z"/>
				<path style="fill:#00133E;" d="M280.172,266.101c-9.46,0-19.467-5.113-20.025-5.402l-0.913-0.469l4.413-16.187      c-8.597,2.859-15.798,0.68-19.087-2.854c-1.772-1.899-2.264-4.128-1.313-5.966c2.218-4.286,8.567-2.451,11.698-1.221      l1.977-26.447l2.539,0.189l-2.253,30.106l-1.684-0.824c-2.147-1.044-8.586-3.404-10.013-0.633      c-0.63,1.21,0.428,2.546,0.913,3.065c2.501,2.687,9.522,5.252,18.605,1.335l2.428-1.05l-5.219,19.141      c3.687,1.727,17.563,7.609,25.719,2.854c3.9-2.279,5.999-6.818,6.243-13.492l2.542,0.086c-0.276,7.609-2.8,12.859-7.509,15.607      C286.537,265.51,283.387,266.101,280.172,266.101z"/>
				<path style="fill:#00133E;" d="M290.61,246.227l0.687,3.989l14.444,1.099C305.741,251.316,301.202,246.227,290.61,246.227z"/>
			</g>
			<path style="fill:#00133E;" d="M383.719,245.767c0,0,0.211-9.788-8.231-12.234c-8.442-2.443-15.787,0.919-16.086,6.846     c-0.301,5.93,14.001,12.353,12.276,1.607l4.514,1.438l-5.895-3.073c0,0,2.63,7.282-3.883,6.16     c-6.513-1.121-7.735-8.356-3.126-10.999C367.897,232.869,379.589,231.445,383.719,245.767z"/>
			<polygon style="fill:#00133E;" points="225.875,166.51 260.759,174.73 224.926,175.263    "/>
			<polygon style="fill:#00133E;" points="288.832,166.857 329.726,189.685 285.281,174.916    "/>
		</g>
	</g>
	<g>
		<g>
			<path style="fill:#FFBB8B;" d="M197.476,159.145c6.096-34.689,16.972-75.145,6.271-96.934l-30.484-11.096l-102.9,14.857     L43.949,84.131l7.154,66.584L34.267,165.88c-8.496-5.388-17.213-9.133-22.78-6.735c-14.022,6.055-17.896,59.166,4.116,68.496     c22.011,9.377,45.406-21.173,45.406-21.173l35.769,106.49l22.561,7.967l13.205-52.562c0,0,47.037,2.484,62.732-15.407     C210.966,235.084,190.322,199.867,197.476,159.145z"/>
			<path style="fill:#90400C;" d="M192.787,43.853c0,0,27.801,8.278,21.989,14.041c-1.519,1.521-5.702,2.973-11.029,4.317     c-14.964,3.72-39.002,6.426-39.002,6.426s21.176,4.4,14.572,10.169c-6.603,5.769-77.037-6.055-77.037-6.055     s8.538,9.355,6.339,11.557c-2.135,2.135-21.154-10.763-22.254-11.512c0.726,0.902,12.172,15.166,6.56,18.114     c-5.788,3.04-32.466-9.905-32.466-9.905c10.455,32.186-0.837,105.107-0.837,105.107s-12.413-12.023-25.355-20.232     c-5.943-16.509-16.509-54.585-2.973-88.725C49.189,32.033,211.497,5.336,214.777,11.673c3.256,6.34-13.449,21.462-13.449,21.462     s28.879-12.392,29.716-8.52C231.877,28.446,192.787,43.853,192.787,43.853z"/>
			<g>
				<path style="fill:#FFFFFF;" d="M128.427,240.037l0.637,7.196c-10.563,2.951-27.491,5.591-28.986-7.196      c-2.201-18.71,9.07-35.506,9.07-35.506s0.416,20.646,29.383,17.917L128.427,240.037z"/>
				<path style="fill:#00133E;" d="M158.17,267.384c-0.414-2.843-1.71-4.958-3.962-6.474c-7.243-4.864-21.532-1.407-21.674-1.374      l-2.022,0.503l5.108-13.719c-6.116,2.196-22.789,7.373-31.42,2.274c-3.01-1.78-4.769-4.617-5.213-8.428      c-2.225-18.9,8.786-35.536,9.258-36.236l1.931-2.876l0.083,3.467c0,0.075,0.264,7.826,7.187,12.803      c7.659,5.505,20.772,5.68,37.961,0.511l-3.327-11.97l2.118-0.589l3.903,14.033l-1.02,0.319      c-18.673,5.782-32.448,5.599-40.956-0.544c-4.925-3.553-6.842-8.256-7.591-11.332c-2.952,5.352-8.995,18.297-7.364,32.158      c0.369,3.137,1.728,5.355,4.15,6.79c9.519,5.627,31.539-3.195,31.761-3.278l2.32-0.944l-5.404,14.502      c4.411-0.824,15.034-2.193,21.432,2.104c2.764,1.855,4.417,4.539,4.919,7.981L158.17,267.384z"/>
				<path style="fill:#00133E;" d="M113.544,203.993c0,0-11.125-0.458-14.887,5.322c0,0,2.661-11.737,16.784-8.164L113.544,203.993z      "/>
				<polyline style="fill:#00133E;" points="99.833,236.919 118.789,239.759 99.912,231.853     "/>
				<path style="fill:#00133E;" d="M131.07,209.081l0.103-1.321c0.028-0.369,0.756-9.139,5.912-11.438      c2.791-1.258,6.212-0.358,10.16,2.671l-1.337,1.746c-3.259-2.493-5.931-3.303-7.926-2.409c-2.748,1.227-4.01,5.599-4.45,8.272      l55.726-6.077c0.775-22.555-1.974-42.229-8.173-58.489l2.057-0.783c6.393,16.765,9.179,37.058,8.279,60.304l-0.036,0.947      L131.07,209.081z"/>
			</g>
			<path style="fill:#90400C;" d="M99.14,165.719c-1.737-5.28,3.814-10.594,7.258-13.936c6.159-5.991,14.191-7.046,22.258-5.247     c1.971,0.441,7.52-2.593,3.923-3.395c-9.688-2.165-18.992-0.747-27.391,4.614c-5.528,3.528-14.852,12.289-12.427,19.674     C93.481,169.617,99.823,167.804,99.14,165.719L99.14,165.719z"/>
			<path style="fill:#90400C;" d="M149.766,133.256c1.056-8.17,13.557-6.849,18.877-5.58c6.515,1.549,12.535,5.571,16.563,10.865     c1.156,1.516,6.815-1.141,6.382-1.713c-6.803-8.936-18.027-13.336-29.121-12.698c-6.174,0.352-18.133,3.517-19.081,10.832     C143.296,135.671,149.523,135.149,149.766,133.256L149.766,133.256z"/>
			<g>
				<path style="fill:#FFFFFF;" d="M135.294,176.801c0,6.052-7.388,10.96-16.505,10.96c-9.119,0-16.509-4.908-16.509-10.96      c0-6.057,7.39-10.965,16.509-10.965C127.906,165.836,135.294,170.744,135.294,176.801z"/>
				<path style="fill:#00133E;" d="M120.127,177.609c0,3.612-2.927,6.538-6.538,6.538c-3.614,0-6.542-2.926-6.542-6.538      c0-3.614,2.927-6.54,6.542-6.54C117.2,171.068,120.127,173.994,120.127,177.609z"/>
			</g>
			<g>
				<path style="fill:#FFFFFF;" d="M179.743,173.187c0,6.055-7.39,10.96-16.509,10.96c-9.116,0-16.508-4.905-16.508-10.96      c0-6.052,7.391-10.96,16.508-10.96C172.353,162.227,179.743,167.135,179.743,173.187z"/>
				<path style="fill:#00133E;" d="M163.233,173.187c0,3.614-2.927,6.54-6.538,6.54c-3.614,0-6.542-2.926-6.542-6.54      c0-3.614,2.927-6.54,6.542-6.54C160.306,166.646,163.233,169.572,163.233,173.187z"/>
			</g>
			<path style="fill:#00133E;" d="M2.381,202.227c0,0,4.192-23.316,18.488-25.218c14.298-1.902,24.202,9.469,21.935,23.668     c-2.272,14.2-27.545,22.85-19.899-1.865l-7.698,1.338l10.614-4.572c0,0-7.466,16.062,3.211,16.412     c10.671,0.344,15.919-16.248,9.953-24.654C33.017,178.933,15.434,170.153,2.381,202.227z"/>
		</g>
		<g>
			<path style="fill:#92BC35;" d="M159.487,460.694c0,0-21.203,16.773-69.464,23.075c-7.871,1.028-15.655,1.016-22.237,2.229     c0.021,0.244,0.021,0.244,0.021,0.244l-28.83,1.657l-3.281,1.957c0,0-25.027-79.526-10.72-124.909     c14.308-45.388,55.292-54.48,55.292-54.48s-2.751-22.295-3.302-23.66l25.864-1.652l10.188,26.964l10.171-23.374l22.275,3.301     l-12.373,27.669l25.05,2.859L159.487,460.694z"/>
			
				<rect x="110.991" y="314.323" transform="matrix(1 -0.0035 0.0035 1 -1.3799 0.3968)" style="fill:#00133E;" width="2.201" height="156.277"/>
			<path style="fill:#00133E;" d="M122.989,330.306c0.584,1.602-0.715,3.551-2.904,4.347c-2.19,0.8-4.44,0.144-5.022-1.457     c-0.584-1.604,0.715-3.551,2.908-4.35C120.159,328.049,122.408,328.701,122.989,330.306z"/>
			<polygon style="fill:#00133E;" points="99.129,315.656 82.892,311.911 83.386,309.766 97.362,312.991 102.113,285.936      104.28,286.319    "/>
			<polygon style="fill:#00133E;" points="133.397,320.686 119.251,320.148 121.728,289.495 123.919,289.673 121.627,318.038      133.479,318.485    "/>
			
				<rect x="2.461" y="407.501" transform="matrix(0.0352 -0.9994 0.9994 0.0352 -344.3559 460.496)" style="fill:#00133E;" width="127.738" height="2.203"/>
		</g>
	</g>
	<g>
		<path style="fill:#009B77;" d="M244.38,508.348l-81.571,2.97l23.531-40.964c6.184-5.624,10.767-6.36,20.071-2.288L244.38,508.348z    "/>
		<path style="fill:#00133E;" d="M146.851,293.69c-13.664,8.173-17.301,41.763-17.301,41.763l6.019,61.684l80.331,26.689    l54.762-7.704l-2.77-16.001C300.848,307.992,159.487,286.128,146.851,293.69z"/>
		<path style="fill:#E18649;" d="M285.344,419.6c-7.352,13.581-32.291,16.881-45.498,14.68c-1.739-0.264-4.995-0.769-8.431-1.649    l-31.629,17.1l2.422,13.869l4.203,4.466c-7.834,11.293-15.978,6.205-20.071,2.288l2.156-3.786l-1.452-12.787    c-16.18,0.111-78.955-1.321-98.697-29.032c-16.202-22.739,7.594-61.476,41.203-89.297c16.023,19.676,94.89,11.16,94.89,11.16    l14.24,60.196c7.926-6.204,18.755-7.723,29.211-6.687c0.194,0,0.373,0.022,0.569,0.044    C277.991,401.267,291.947,407.141,285.344,419.6z"/>
		<path style="fill:#00133E;" d="M203.529,393.7c0,4.52-2.465,8.184-5.502,8.184c-3.041,0-5.503-3.664-5.503-8.184    c0-4.522,2.462-8.187,5.503-8.187C201.064,385.513,203.529,389.177,203.529,393.7z"/>
		<path style="fill:#00133E;" d="M133.231,392.462c0,4.522-2.461,8.186-5.502,8.186c-3.038,0-5.503-3.664-5.503-8.186    c0-4.522,2.465-8.187,5.503-8.187C130.77,384.275,133.231,387.939,133.231,392.462z"/>
		<path style="fill:#00133E;" d="M117.433,380.905c1.699-5.355,8.5-6.432,13.116-4.395c1.856,0.816,7.702-1.89,5.091-3.043    c-7.888-3.484-21.67-0.908-24.578,8.262C110.375,383.895,116.767,383.012,117.433,380.905L117.433,380.905z"/>
		<path style="fill:#00133E;" d="M181.728,374.767c7.08-4.567,16.134,0.325,20.772,6.168c1.421,1.791,7.556-0.464,5.912-2.537    c-7.255-9.144-20.693-12.098-30.677-5.66C174.095,375.081,179.615,376.13,181.728,374.767L181.728,374.767z"/>
		<g>
			<path style="fill:#FFFFFF;" d="M174.96,428.089l8.019,21.028c7.548,2.382,14.585,0.553,12.59-10.107     c-2.615-13.961-14.286-21.798-14.286-21.798S183.617,428.514,174.96,428.089z"/>
			<path style="fill:#00133E;" d="M188.428,450.553c-4.09,0-8.937-1.893-12.656-4.292l0.558-0.866     c6.283,4.056,13.052,5.277,16.463,2.987c2.36-1.585,3.123-4.705,2.272-9.275c-2.104-11.223-10.248-18.494-13.091-20.731     c0.247,2.196,0.346,6.671-2.414,8.925c-2.305,1.882-6.016,1.738-11.031-0.416l0.408-0.952c4.635,1.993,7.987,2.179,9.967,0.566     c3.183-2.59,1.881-9.116,1.87-9.183l-0.255-1.238l1.047,0.705c0.119,0.078,11.887,8.117,14.512,22.136     c1.172,6.246-0.826,9.059-2.709,10.324C192.002,450.162,190.295,450.553,188.428,450.553z"/>
			<polygon style="fill:#00133E;" points="186.272,450.015 177.99,427.97 178.474,427.787 186.758,449.834    "/>
			<polygon style="fill:#00133E;" points="191.63,449.554 180.173,425.638 180.635,425.413 192.095,449.334    "/>
			<polygon style="fill:#00133E;" points="195.579,444.21 181.308,421.682 181.744,421.41 196.016,443.935    "/>
			
				<rect x="175.89" y="429.794" transform="matrix(0.7888 -0.6146 0.6146 0.7888 -225.6028 203.4546)" style="fill:#00133E;" width="14.803" height="0.518"/>
			<path style="fill:#00133E;" d="M179.343,417.213c0,0,2.056-1.724,6.092,0.383c0,0-2.824-4.395-7.204-1.047L179.343,417.213z"/>
		</g>
		<g>
			<path style="fill:#FF6700;" d="M110.355,426.027c-19.473,0-35.314-16.221-35.314-36.158c0-19.938,15.842-36.161,35.314-36.161     s35.314,16.223,35.314,36.161C145.669,409.806,129.828,426.027,110.355,426.027z M110.355,358.111     c-17.048,0-30.913,14.252-30.913,31.758c0,17.514,13.865,31.755,30.913,31.755c17.045,0,30.913-14.241,30.913-31.755     C141.268,372.363,127.4,358.111,110.355,358.111z"/>
			<path style="fill:#FF6700;" d="M186.867,428.622c-19.473,0-35.314-16.221-35.314-36.158c0-19.937,15.841-36.158,35.314-36.158     s35.316,16.221,35.316,36.158C222.183,412.402,206.34,428.622,186.867,428.622z M186.867,360.709     c-17.045,0-30.913,14.247-30.913,31.755c0,17.509,13.868,31.755,30.913,31.755s30.913-14.247,30.913-31.755     C217.78,374.956,203.912,360.709,186.867,360.709z"/>
			<rect x="143.265" y="383.928" style="fill:#FF6700;" width="11.068" height="4.403"/>
			<polyline style="fill:#FF6700;" points="219.122,403.468 258.19,405.206 262.225,392.464 219.122,399.899    "/>
		</g>
		<g>
			<path style="fill:#E18649;" d="M147.417,399.899l-4.047,14.494c0,0-8.801-6.54-10.036-2.715     c-1.231,3.823,7.627,12.984,15.68,6.846c0,0,2.414,3.42,4.529,1.305c2.114-2.11-2.417-4.528-4.431-3.925L147.417,399.899z"/>
			<path style="fill:#00133E;" d="M143.206,420.974c-2.071,0-4.172-0.686-6.118-2.065c-2.973-2.099-4.789-5.33-4.136-7.354     c0.222-0.686,0.676-1.149,1.316-1.355c2.446-0.777,7.322,2.443,8.871,3.534l3.893-13.944l0.775,0.217L143.6,415.07l-0.472-0.352     c-1.702-1.263-6.56-4.406-8.614-3.751c-0.4,0.128-0.655,0.391-0.797,0.836c-0.541,1.677,1.18,4.572,3.835,6.449     c1.738,1.235,6.317,3.687,11.215-0.047l0.335-0.252l0.241,0.339c0.011,0.017,1.226,1.71,2.555,1.821     c0.471,0.044,0.937-0.144,1.362-0.566c0.476-0.478,0.557-0.969,0.236-1.505c-0.687-1.149-3.044-2.11-4.267-1.752l-0.232-0.769     c1.596-0.486,4.306,0.627,5.19,2.107c0.514,0.86,0.386,1.743-0.359,2.484c-0.59,0.597-1.263,0.869-2,0.8     c-1.299-0.105-2.411-1.255-2.89-1.832C147.159,420.341,145.194,420.974,143.206,420.974z"/>
		</g>
		<path style="fill:#00133E;" d="M277.083,425.824c0,0,0.09-11.49-11.269-14.527c-11.367-3.037-21.144,0.772-21.434,7.726    c-0.283,6.954,19.01,14.785,16.493,2.124l6.073,1.78l-7.959-3.726c0,0,3.664,8.603-5.083,7.162    c-8.751-1.444-10.532-9.96-4.406-12.981C255.625,410.367,271.271,408.918,277.083,425.824z"/>
		<polygon style="fill:#E18649;" points="229.634,387.831 265.533,382.279 230.572,392.137   "/>
		<polygon style="fill:#E18649;" points="226.335,373.184 254.337,373.815 226.579,377.576   "/>
		<polygon style="fill:#E18649;" points="225.127,364.473 258.19,362.563 225.674,368.843   "/>
		<g>
			<path style="opacity:0.1;fill:#FFFFFF;" d="M193.613,323.213c-0.999,3.226,3.458,2.357,5.083,1.541     c2.635-1.327,2.911-6.229-0.63-6.313c-3.613-0.092-7.228,2.496-8.975,5.53c-2.21,3.836,2.63,7.073,6.105,6.627     c7.928-1.022,17.159-15.03,6.45-19.052c-8.038-3.02-17.549,9.358-15.189,16.504c0.108,0.33,1.234,0.003,1.134-0.305     c-1.772-5.366,2.233-10.932,6.349-13.994c6.958-5.18,13.284,1.746,10.441,8.819c-1.338,3.334-4.433,6.291-7.866,7.32     c-3.401,1.022-7.747-1.84-6.543-5.549c0.879-2.712,6.282-7.115,8.918-4.683c4.017,3.706-5.42,7.484-4.15,3.384     C194.836,322.727,193.715,322.882,193.613,323.213L193.613,323.213z"/>
			<path style="opacity:0.1;fill:#FFFFFF;" d="M139.192,329.934c-0.998,3.223,3.46,2.354,5.083,1.538     c2.636-1.327,2.911-6.229-0.63-6.316c-3.613-0.092-7.227,2.501-8.973,5.536c-2.21,3.831,2.629,7.071,6.103,6.623     c7.928-1.021,17.162-15.032,6.45-19.055c-8.038-3.02-17.546,9.358-15.189,16.507c0.111,0.333,1.237,0.003,1.134-0.306     c-1.77-5.369,2.233-10.932,6.349-13.997c6.958-5.18,13.283,1.752,10.441,8.822c-1.338,3.337-4.431,6.288-7.865,7.318     c-3.402,1.024-7.747-1.838-6.542-5.549c0.88-2.709,6.283-7.112,8.915-4.68c4.017,3.706-5.42,7.484-4.15,3.384     C140.417,329.445,139.297,329.598,139.192,329.934L139.192,329.934z"/>
			<path style="opacity:0.1;fill:#FFFFFF;" d="M221.567,341.654c-4.075,0.097-7.133-0.414-7.911-4.808     c-0.524-2.987,0.672-6.346,2.597-8.575c2.927-3.387,8.595-5.213,12.223-1.918c2.343,2.129,1.467,6.066,0.097,8.409     c-1.824,3.12-7.954,6.432-11.06,3.684c-3.316-2.934,1.612-7.89,4.271-8.783c4.678-1.577,2.426,8.178-0.49,5.705     c-0.349-0.297-1.413,0.161-1.044,0.472c3.884,3.298,7.565-4.839,3.898-6.812c-2.951-1.588-6.717,2.279-7.948,4.456     c-2.601,4.597,1.704,7.476,5.866,6.504c4.615-1.077,8.666-4.919,8.978-9.713c0.346-5.266-5.033-7.009-9.282-6.118     c-5.132,1.08-8.583,5.477-9.258,10.471c-0.332,2.46,0.294,4.919,2.122,6.626c1.781,1.666,4.619,1.188,6.815,1.135     C222.053,342.373,222.347,341.638,221.567,341.654L221.567,341.654z"/>
			<path style="opacity:0.1;fill:#FFFFFF;" d="M156.552,313.097c-4.08,0.094-7.137-0.416-7.912-4.808     c-0.528-2.987,0.669-6.346,2.595-8.575c2.927-3.387,8.598-5.213,12.223-1.918c2.343,2.126,1.466,6.066,0.096,8.406     c-1.824,3.123-7.953,6.435-11.06,3.687c-3.316-2.937,1.614-7.892,4.272-8.786c4.678-1.577,2.428,8.178-0.491,5.705     c-0.349-0.294-1.412,0.164-1.044,0.475c3.884,3.295,7.566-4.839,3.898-6.812c-2.95-1.59-6.714,2.279-7.948,4.456     c-2.601,4.597,1.704,7.473,5.866,6.504c4.615-1.077,8.668-4.919,8.981-9.713c0.343-5.266-5.034-7.012-9.283-6.121     c-5.131,1.077-8.581,5.477-9.257,10.474c-0.335,2.457,0.293,4.916,2.122,6.626c1.778,1.663,4.618,1.188,6.816,1.133     C157.033,313.816,157.329,313.078,156.552,313.097L156.552,313.097z"/>
			<path style="opacity:0.1;fill:#FFFFFF;" d="M178.594,337.515c2.31,0.08,5.358-2.015,2.763-4.259     c-2.29-1.979-7.531,1.435-7.991,3.848c-0.622,3.273,5.61,3.576,7.475,3.023c5.553-1.649,6.549-7.268,2.181-11.118     c-7.443-6.571-20.812,8.151-10.356,13.292c6.328,3.109,17.666,0.816,17.858-7.584c0.006-0.25-1.126-0.075-1.134,0.302     c-0.218,9.466-18.325,11.365-19.66,2.129c-0.704-4.867,6.132-10.044,10.413-8.825c5.724,1.627,6.336,10.194,0.111,11.462     c-1.973,0.4-5.175-0.286-5.745-2.523c-0.582-2.279,3.979-4.134,5.403-3.789c1.807,0.433,1.68,3.595-0.601,3.517     C179.031,336.982,178.001,337.496,178.594,337.515L178.594,337.515z"/>
			<path style="opacity:0.1;fill:#FFFFFF;" d="M160.95,324.484c1.677,0.058,4.215-1.444,2.226-3.162     c-1.693-1.466-5.656,1.01-5.999,2.818c-0.459,2.415,4.136,2.593,5.495,2.19c4.004-1.188,4.898-5.197,1.688-8.028     c-5.39-4.761-15.25,5.846-7.654,9.58c4.572,2.246,12.857,0.563,13-5.508c0.005-0.247-1.127-0.072-1.135,0.302     c-0.153,6.646-12.724,7.876-13.655,1.43c-0.482-3.323,4.122-7.015,7.109-6.166c3.86,1.094,4.586,7.129,0.237,8.009     c-1.367,0.278-3.556-0.222-3.947-1.766c-0.38-1.491,2.552-2.818,3.548-2.579c1.058,0.252,1.277,2.404-0.193,2.354     C161.39,323.951,160.36,324.465,160.95,324.484L160.95,324.484z"/>
			<path style="opacity:0.1;fill:#FFFFFF;" d="M217.212,317.658c1.674,0.058,4.213-1.441,2.224-3.162     c-1.693-1.463-5.656,1.008-5.999,2.818c-0.459,2.415,4.136,2.596,5.495,2.19c4.007-1.188,4.901-5.194,1.691-8.031     c-5.393-4.758-15.253,5.849-7.656,9.583c4.575,2.246,12.857,0.566,13-5.511c0.008-0.247-1.127-0.069-1.135,0.308     c-0.153,6.643-12.721,7.873-13.654,1.427c-0.483-3.323,4.124-7.015,7.111-6.168c3.858,1.099,4.583,7.129,0.235,8.012     c-1.367,0.281-3.553-0.225-3.945-1.768c-0.38-1.485,2.55-2.818,3.545-2.579c1.062,0.253,1.277,2.407-0.193,2.36     C217.65,317.125,216.623,317.641,217.212,317.658L217.212,317.658z"/>
			<path style="opacity:0.1;fill:#FFFFFF;" d="M236.723,342.079c1.674,0.061,4.213-1.441,2.224-3.159     c-1.693-1.463-5.656,1.008-5.999,2.818c-0.459,2.412,4.135,2.593,5.494,2.19c4.006-1.191,4.901-5.197,1.691-8.031     c-5.393-4.761-15.252,5.849-7.655,9.58c4.575,2.246,12.857,0.569,12.999-5.508c0.006-0.247-1.126-0.072-1.134,0.306     c-0.153,6.643-12.723,7.876-13.655,1.427c-0.482-3.32,4.121-7.015,7.108-6.165c3.861,1.096,4.588,7.129,0.239,8.009     c-1.367,0.283-3.557-0.222-3.946-1.766c-0.383-1.488,2.551-2.818,3.546-2.579c1.058,0.253,1.276,2.404-0.193,2.357     C237.16,341.546,236.13,342.062,236.723,342.079L236.723,342.079z"/>
			<path style="opacity:0.1;fill:#FFFFFF;" d="M157.269,338.07c1.675,0.061,4.214-1.444,2.226-3.162     c-1.696-1.463-5.656,1.01-5.999,2.82c-0.462,2.412,4.135,2.593,5.494,2.19c4.006-1.191,4.898-5.197,1.688-8.031     c-5.39-4.761-15.249,5.849-7.654,9.583c4.574,2.246,12.859,0.563,13-5.511c0.003-0.247-1.126-0.069-1.134,0.302     c-0.157,6.649-12.726,7.876-13.656,1.427c-0.482-3.32,4.121-7.009,7.108-6.163c3.858,1.097,4.588,7.129,0.239,8.012     c-1.367,0.277-3.557-0.225-3.949-1.768c-0.38-1.488,2.552-2.818,3.546-2.579c1.061,0.255,1.278,2.407-0.193,2.354     C157.708,337.534,156.679,338.051,157.269,338.07L157.269,338.07z"/>
			<path style="opacity:0.1;fill:#FFFFFF;" d="M179.782,319.682c-3.63,1.119-7.72,0.394-10.009-2.832     c-2.261-3.184-0.38-7.923,2.49-9.997c3.96-2.862,12.949-1.438,11.511,4.886c-0.723,3.165-4.381,7.257-7.755,5.197     c-1.881-1.146-2.755-3.75-2.215-5.816c0.731-2.787,7.329-3.639,6.91-0.105c-0.193,1.61-3.28,5.264-3.946,2.24     c-0.099-0.45-1.234-0.155-1.134,0.302c1.174,5.327,9.777-3.298,4.872-5.147c-2.461-0.924-6.685-0.336-7.714,2.49     c-0.948,2.593,0.491,6.007,3.106,7.034c6.345,2.501,12.843-8.548,6.206-12.229c-6.728-3.736-16.744,2.529-13.952,10.502     c1.623,4.642,7.788,5.358,11.808,4.125C180.633,320.128,180.466,319.474,179.782,319.682L179.782,319.682z"/>
			<path style="opacity:0.1;fill:#FFFFFF;" d="M206.212,345.01c-3.63,1.113-7.72,0.394-10.013-2.832     c-2.26-3.187-0.379-7.926,2.494-9.999c3.96-2.859,12.949-1.435,11.511,4.886c-0.725,3.17-4.381,7.254-7.756,5.197     c-1.88-1.144-2.754-3.751-2.215-5.81c0.733-2.793,7.327-3.642,6.911-0.111c-0.193,1.607-3.28,5.263-3.946,2.237     c-0.1-0.444-1.237-0.153-1.134,0.308c1.174,5.327,9.775-3.301,4.872-5.147c-2.461-0.93-6.685-0.341-7.718,2.49     c-0.945,2.59,0.493,6.005,3.106,7.032c6.347,2.498,12.846-8.544,6.209-12.228c-6.731-3.731-16.744,2.532-13.955,10.502     c1.621,4.647,7.791,5.361,11.811,4.131C207.063,345.454,206.897,344.802,206.212,345.01L206.212,345.01z"/>
			<path style="opacity:0.1;fill:#FFFFFF;" d="M193.67,309.874c-2.554,0.783-5.395,0.256-7.001-2.004     c-1.585-2.235-0.275-5.585,1.739-7.043c2.789-2.015,8.983-0.927,7.988,3.459c-0.492,2.149-2.957,5.039-5.273,3.626     c-1.323-0.805-1.932-2.651-1.552-4.097c0.495-1.888,4.912-2.426,4.629-0.044c-0.122,1.032-2.063,3.556-2.505,1.543     c-0.099-0.45-1.237-0.153-1.134,0.306c0.886,4.017,7.502-2.413,3.751-3.828c-1.856-0.7-5.016-0.219-5.79,1.899     c-0.695,1.902,0.385,4.37,2.292,5.119c4.665,1.838,9.584-6.218,4.672-8.947c-4.897-2.712-12.337,1.804-10.288,7.659     c1.188,3.395,5.709,3.909,8.647,3.006C194.521,310.315,194.356,309.663,193.67,309.874L193.67,309.874z"/>
			<path style="opacity:0.1;fill:#FFFFFF;" d="M231.812,324.973c0.793-3.612,4.052-6.027,7.705-4.5     c2.919,1.224,4.746,4.525,4.333,7.598c-0.357,2.701-2.882,5.408-5.755,4.686c-2.528-0.633-4.332-4.217-4.343-6.66     c-0.017-3.992,6.093-2.404,6.99,0.325c0.631,1.929-1.385,5.133-3.22,3.045c-0.541-0.611-2.125-4.103-0.19-3.348     c0.403,0.158,1.326-0.425,0.679-0.677c-4.59-1.791-2.538,7.323,1.764,5.366c2.167-0.988,2.803-4.172,1.419-5.963     c-1.309-1.691-3.906-2.14-5.876-1.699c-2.479,0.552-3.043,2.851-2.4,5.038c0.973,3.315,3.734,6.099,7.336,5.247     c2.933-0.697,5.077-4.059,4.819-6.987c-0.36-4.103-4.091-7.415-8.203-7.184c-3.177,0.175-5.551,2.901-6.198,5.835     C230.564,325.575,231.719,325.406,231.812,324.973L231.812,324.973z"/>
		</g>
	</g>
	<g>
		<g>
			<path style="fill:#FFBB8B;" d="M190.873,495.075l-25.027,10.188l-7.99-15.407c0,0-7.988,9.622-9.619-5.785     c0,0-95.748,28.699-109.26,3.828l27.534-16.465c0,0,0-0.108-0.021-0.352c6.582-1.213,14.022-2.529,21.856-3.806     c25.246-4.161,54.455-7.926,71.141-6.582c5.059,0.394,8.981,1.277,11.289,2.751C188.385,474.738,190.873,495.075,190.873,495.075     z"/>
			<path style="fill:#00133E;" d="M171.521,503.519c-4.8-17.503-15.822-26.059-15.93-26.145l1.334-1.752     c0.476,0.364,11.726,9.1,16.719,27.316L171.521,503.519z"/>
			<path style="fill:#00133E;" d="M176.941,501.017c-2.464-17.947-12.727-25.218-12.832-25.29l1.246-1.816     c0.453,0.314,11.161,7.828,13.768,26.806L176.941,501.017z"/>
			<path style="fill:#00133E;" d="M183.39,498.313c-1.606-19.299-12.199-26.267-12.308-26.337l1.177-1.857     c0.47,0.294,11.622,7.551,13.324,28.013L183.39,498.313z"/>
		</g>
		<path style="fill:#00133E;" d="M27.952,470.341l39.935-6.346l2.8,6.318c0,0-28.113,31.1-33.065,31.378    c-4.953,0.272-5.502-14.308-5.502-14.308s-3.853,5.225-5.775,3.301C24.414,488.754,27.952,470.341,27.952,470.341z"/>
	</g>
	<g>
		<g>
			<path style="fill:#E18649;" d="M366.958,501.699c-38.803,26.678-128.76-6.89-128.76-6.89l-7.991,10.454l-19.241-9.089     c0,0-0.68-35.017,27.934-37.377c3.147-0.239,6.669-0.108,10.586,0.533l0.53,21.72l90.527-1.382c0,0-1.254-29.562-2.376-53.708     l30.421-8.494C380.233,444.954,391.301,484.948,366.958,501.699z"/>
			<path style="fill:#00133E;" d="M226.486,503.176l-2.171-0.366c0.13-0.78,3.362-19.091,17.768-21.056l0.296,2.179     C229.586,485.681,226.517,503.001,226.486,503.176z"/>
			<path style="fill:#00133E;" d="M221.059,500.658l-2.156-0.45c0.051-0.247,5.37-24.654,24.039-24.654c0.071,0,0.143,0,0.217,0     l-0.021,2.201c-0.065,0-0.128,0-0.193,0C226.063,477.755,221.107,500.43,221.059,500.658z"/>
			<path style="fill:#00133E;" d="M215.423,498.032l-2.139-0.511c0.323-1.363,8.192-33.296,29.154-29.285l-0.415,2.16     C223.084,466.774,215.5,497.715,215.423,498.032z"/>
		</g>
		<polygon style="fill:#00133E;" points="327.581,431.576 317.464,369.334 321.81,368.629 331.13,425.98 377.357,412.732     378.57,416.96   "/>
	</g>
</g>















</svg>
