<svg clip-rule="evenodd" fill-rule="evenodd" height="512" stroke-linejoin="round" stroke-miterlimit="2"
     viewBox="0 0 256 256" width="512" xmlns="http://www.w3.org/2000/svg">
    <g id="Exp-2.-Sticker">
        <g>
            <g fill="none">
                <path d="m71.895 102.699c-.12-5.023-3.95-9.178-8.948-9.705 0 0-12.629-1.278-22.029.366-6.504 1.138-11.64 4.001-14.212 7.452-3.121 4.187-4.479 8.871-4.652 13.995-.174 5.137 1.078 10.875 1.993 16.827 1.369 8.899 6.758 24.479 20.407 85.614.723 3.238 3.004 5.906 6.09 7.123 3.086 1.218 6.575.825 9.314-1.047l10.202-6.975c2.796-1.912 4.434-5.109 4.353-8.495z"/>
                <path d="m165.282 39.041c-2.854-.465-5.771.329-7.996 2.178-2.225 1.848-3.541 4.569-3.607 7.461 0 0-1.025 44.257-1.3 52.534-.21 6.276 3.928 12.217 12.348 15.117 9.083 3.128 24.39 2.954 24.39 2.954 4.754-.098 8.781-3.531 9.632-8.209 5.653-31.091 7.028-57.998 7.028-57.998.277-5.387-3.769-10.023-9.145-10.477-19.618-1.658-31.35-3.56-31.35-3.56z"/>
                <path d="m49.299 198.759c.148 3.629 2.253 6.893 5.498 8.526 3.245 1.632 7.12 1.377 10.122-.668l117.09-79.729c2.872-1.956 4.523-5.264 4.36-8.735-1.99-42.374-5.051-78.845-5.051-78.845-.427-5.097-4.632-9.05-9.746-9.161-39.94-.873-80.494-.489-80.494-.489-.012 0-.025 0-.037 0-24.525.323-40.081 17.215-43.235 36.809-.079.495-.121.995-.126 1.495-.694 74.07 1.619 130.797 1.619 130.797z"/>
                <path d="m148.944 110.837c-28.39.664-60.895.373-60.895.373-9.752-.092-17.268 5.729-22.28 13.535-5.065 7.888-7.352 17.544-7.821 19.711-7.249 27.143-13.621 69.115-13.621 69.115-.426 2.81.364 5.668 2.172 7.86 1.808 2.193 4.464 3.512 7.303 3.629 82.234 3.388 149.018-.593 149.018-.593 4.537-.27 8.322-3.567 9.212-8.024 13.038-65.303 19.079-86.503 21.516-99.641 1.157-6.236-.158-10.838-2.29-14.308-3.07-4.997-8.397-7.85-13.435-9.037-4.415-1.041-8.291-.829-8.291-.829-.034.002-.068.004-.101.006-3.92.224-22.788.819-31.867.317-6.196-.343-11.835 2.003-16.272 5.243-4.848 3.54-8.084 8.013-8.842 9.112-1.324 1.813-2.949 3.112-3.506 3.531z"/>
            </g>
            <path d="m61.898 102.939s-22.532-2.378-27.174 3.85c-4.643 6.227-2.152 14.492-.793 23.324s6.738 24.286 20.283 84.956l10.202-6.975z"
                  fill="#3c69c6"/>
            <path d="m163.676 48.911s12.017 1.956 32.114 3.654c0 0-1.351 26.314-6.88 56.722 0 0-26.813.553-26.537-7.74s1.303-52.636 1.303-52.636z"
                  fill="#ff9227"/>
            <path d="m59.291 198.352s-2.303-56.51-1.612-130.296c2.439-15.153 14.527-28.149 33.494-28.399 0 0 40.396-.382 80.18.487 0 0 3.046 36.301 5.027 78.478z"
                  fill="#ffbe32"/>
            <path d="m57.679 68.056s2.873-27.397 33.494-28.399c0 0-12.511 4.332-8.221 24.97 0 0-12.376-6.336-25.273 3.429"
                  fill="#ff9227"/>
            <g fill="#fff">
                <path d="m103.488 79.842c1.983-1.94 3.642-2.771 5.159-2.928 1.501-.156 2.832.344 4.14.932 2.087.938 4.124 2.081 6.464 2.068 2.128-.011 3.756-.777 5.416-1.644 1.656-.864 3.349-1.84 5.836-1.92 2.543-.083 5.877.758 10.777 3.425.217.136 2.765 1.62 7.091-1.246.46-.305.586-.926.281-1.386s-.926-.586-1.386-.282c-3.192 2.115-4.946 1.205-4.946 1.205-.015-.009-.029-.018-.044-.026-9.319-5.082-13.571-3.973-16.952-2.351-2.001.96-3.646 2.212-6.083 2.225-2.049.011-3.807-1.071-5.634-1.893-1.628-.731-3.298-1.29-5.167-1.096-1.852.192-3.929 1.118-6.35 3.487-.395.386-.402 1.02-.016 1.414.386.395 1.02.402 1.414.016z"/>
                <path d="m77.276 94.568c1.797-1.59 3.357-2.321 4.778-2.507 2.148-.282 3.932.66 5.608 1.48 2.35 1.149 4.528 2.049 6.897.803 5.695-2.994 9.348-4.141 12.337-4.229 2.187-.065 4.002.446 6.007 1.159 2.147.764 4.497 1.754 7.646 2.6 2.69.723 4.473-.086 6.241-1.298 1.683-1.154 3.34-2.756 6.185-3.176 2.899-.428 6.973.369 13.456 3.851.486.261 1.093.079 1.354-.407.261-.487.078-1.093-.408-1.355-7.27-3.905-11.8-4.576-14.976-4.022-2.199.383-3.788 1.35-5.193 2.348-1.911 1.358-3.381 2.869-6.14 2.128-3.087-.83-5.39-1.805-7.495-2.553-2.247-.799-4.285-1.347-6.736-1.274-3.195.094-7.121 1.257-13.208 4.458-1.759.925-3.343.024-5.088-.83-2.008-.982-4.174-2.004-6.748-1.666-1.728.226-3.657 1.058-5.843 2.993-.413.366-.451.998-.086 1.411.366.414.999.452 1.412.086z"/>
                <path d="m80.156 108.454c3.338-1.924 5.429-2.445 6.952-2.243 1.464.194 2.339 1.062 3.28 1.74.848.612 1.733 1.112 2.88 1.233 1.1.117 2.47-.114 4.326-1.067 7.351-3.772 11.186-5.231 14.506-5.055 3.325.177 6.096 1.977 11.315 4.514 5.026 2.443 7.791 1.329 10.434-.268 1.702-1.029 3.332-2.329 5.692-2.745 2.348-.413 5.397.077 9.942 2.461.489.256 1.093.068 1.35-.421.256-.489.068-1.094-.421-1.35-4.24-2.224-7.336-2.905-9.768-2.813-2.509.096-4.348 1.005-6.023 2.028-1.721 1.051-3.227 2.265-5.318 2.478-1.356.138-2.95-.165-5.014-1.169-5.556-2.701-8.543-4.524-12.083-4.712-3.544-.188-7.679 1.247-15.525 5.273-1.381.708-2.384.944-3.202.858-1.257-.134-2.036-.982-3.004-1.664-.86-.606-1.819-1.134-3.105-1.304-1.789-.237-4.291.233-8.213 2.493-.478.276-.642.888-.367 1.366.276.478.888.643 1.366.367z"/>
            </g>
            <path d="m54.214 215.069s6.298-41.567 13.463-68.288c0 0 4.92-25.716 20.283-25.571 0 0 33.376.298 62.13-.397 0 0 4.788.248 10.551-7.769 0 0 6.972-10.628 16.371-10.108 9.399.519 28.931-.087 32.989-.319 0 0 16.149-.758 13.715 12.361-2.434 13.12-8.47 34.292-21.491 99.507 0 0-66.332 3.949-148.011.584z"
                  fill="#4bcbec"/>
            <path d="m69.759 141.133s63.944-2.982 149.083-2.73c.828.002 1.502-.668 1.505-1.496.002-.828-.668-1.502-1.496-1.504-85.224-.252-149.231 2.733-149.231 2.733-.827.039-1.468.741-1.429 1.568s.741 1.467 1.568 1.429z"
                  fill="#3c69c6"/>
            <path d="m86.228 174.396s24.457.68 49.14 1.812c0 0-1.132 10.643-4.982 22.645 0 0-35.1.679-50.272 0 0 0 1.664-10.6 6.114-24.457z"
                  fill="#ff9227"/>
            <path d="m95.829 183.215s13.019 0 24.773.543c.551.025 1.02-.402 1.045-.953.026-.551-.401-1.02-.953-1.045-11.797-.545-24.865-.545-24.865-.545-.552 0-1 .449-1 1 0 .552.448 1 1 1z"
                  fill="#fff"/>
            <path d="m117.369 190.817s-9.929.18-23.83-.723c-.551-.035-1.027.383-1.063.934-.036.55.382 1.026.933 1.062 13.998.909 23.996.727 23.996.727.552-.01.992-.466.982-1.018s-.466-.992-1.018-.982z"
                  fill="#fff"/>
        </g>
    </g>
</svg>