<?xml version="1.0" encoding="UTF-8"?>
<!-- Generator: Adobe Illustrator 26.3.1, SVG Export Plug-In . SVG Version: 6.00 Build 0)  -->
<svg xmlns="http://www.w3.org/2000/svg" xmlns:xlink="http://www.w3.org/1999/xlink" version="1.1" id="Capa_1" x="0px" y="0px" viewBox="0 0 512 512" style="enable-background:new 0 0 512 512;" xml:space="preserve" width="512" height="512">
<g>
	<path style="fill:#241726;" d="M29.789,141.072h-0.006l-4.185,0.04l4.394-3.063c0.49-0.342,0.611-1.016,0.268-1.506   c-0.344-0.492-1.023-0.606-1.506-0.268l-5.928,4.133l0.041-6.989c0.004-0.598-0.478-1.084-1.075-1.088h-0.006   c-0.594,0-1.078,0.48-1.082,1.075l-0.036,6.168l-3.71-3.92c-0.412-0.431-1.094-0.454-1.53-0.042   c-0.433,0.41-0.452,1.097-0.042,1.53l3.817,4.033l-6.931,0.066c-0.598,0.006-1.078,0.494-1.071,1.092   c0.006,0.594,0.488,1.071,1.082,1.071h0.011l6.322-0.06l-4.896,3.413c-0.49,0.342-0.611,1.016-0.268,1.506   c0.211,0.302,0.547,0.463,0.887,0.463c0.216,0,0.431-0.063,0.619-0.194l5.681-3.961l-0.042,7.041   c-0.004,0.598,0.478,1.084,1.075,1.088h0.006c0.594,0,1.078-0.48,1.082-1.075l0.039-6.65l3.954,4.178   c0.213,0.224,0.499,0.338,0.786,0.338c0.266,0,0.535-0.097,0.744-0.296c0.433-0.41,0.452-1.097,0.042-1.53l-4.14-4.375l5.619-0.054   c0.598-0.006,1.078-0.494,1.071-1.092C30.869,141.549,30.387,141.072,29.789,141.072z"/>
	<path style="fill:#241726;" d="M482.672,197.598h-0.006l-4.185,0.04l4.394-3.063c0.49-0.342,0.611-1.016,0.268-1.506   c-0.344-0.492-1.023-0.606-1.506-0.268l-5.928,4.133l0.041-6.989c0.004-0.598-0.478-1.084-1.075-1.088h-0.006   c-0.594,0-1.078,0.48-1.082,1.075l-0.036,6.168l-3.71-3.92c-0.412-0.431-1.094-0.454-1.53-0.042   c-0.433,0.41-0.452,1.097-0.042,1.53l3.817,4.033l-6.931,0.066c-0.598,0.006-1.078,0.494-1.071,1.092   c0.006,0.594,0.488,1.071,1.082,1.071h0.011l6.322-0.06l-4.896,3.413c-0.49,0.342-0.611,1.016-0.268,1.506   c0.211,0.302,0.547,0.463,0.887,0.463c0.216,0,0.431-0.063,0.619-0.194l5.681-3.961l-0.042,7.041   c-0.004,0.598,0.478,1.084,1.075,1.088h0.006c0.594,0,1.078-0.48,1.082-1.075l0.039-6.65l3.954,4.178   c0.213,0.224,0.499,0.338,0.786,0.338c0.266,0,0.535-0.097,0.744-0.296c0.433-0.41,0.452-1.097,0.042-1.53l-4.14-4.375l5.619-0.054   c0.598-0.006,1.078-0.494,1.071-1.092C483.752,198.076,483.27,197.598,482.672,197.598z"/>
	<path style="fill:#241726;" d="M344.989,496.942h-0.006l-4.185,0.04l4.394-3.063c0.49-0.342,0.611-1.016,0.268-1.506   c-0.344-0.492-1.023-0.606-1.507-0.268l-5.928,4.133l0.041-6.989c0.004-0.598-0.478-1.084-1.075-1.088h-0.006   c-0.594,0-1.078,0.48-1.082,1.075l-0.036,6.168l-3.71-3.92c-0.412-0.431-1.094-0.454-1.53-0.042   c-0.433,0.41-0.452,1.097-0.042,1.53l3.817,4.033l-6.931,0.066c-0.598,0.006-1.078,0.494-1.071,1.092   c0.006,0.594,0.488,1.071,1.082,1.071h0.011l6.322-0.06l-4.896,3.413c-0.49,0.342-0.611,1.016-0.268,1.507   c0.211,0.302,0.547,0.463,0.887,0.463c0.216,0,0.431-0.063,0.619-0.194l5.681-3.961l-0.042,7.041   c-0.004,0.598,0.478,1.084,1.075,1.088h0.006c0.594,0,1.078-0.48,1.082-1.075l0.039-6.65l3.954,4.178   c0.213,0.224,0.499,0.338,0.786,0.338c0.266,0,0.535-0.097,0.744-0.296c0.433-0.41,0.452-1.097,0.042-1.53l-4.14-4.375l5.619-0.054   c0.598-0.006,1.078-0.494,1.071-1.092C346.069,497.42,345.587,496.942,344.989,496.942z"/>
	<path style="fill:#241726;" d="M9.914,183.783l-0.032,0.002c-4.12,0.193-7.628-3.003-7.821-7.125   c-0.192-4.103,2.989-7.61,7.091-7.819c2.028-0.095,3.942,0.595,5.42,1.941c1.475,1.344,2.341,3.185,2.435,5.18   C17.197,180.065,14.014,183.574,9.914,183.783z M9.286,171c-2.939,0.15-5.199,2.643-5.063,5.558c0.137,2.93,2.63,5.202,5.558,5.065   l0.078,1.079l-0.055-1.08c2.914-0.148,5.176-2.642,5.042-5.559c-0.066-1.418-0.681-2.726-1.732-3.682   C12.065,171.424,10.705,170.935,9.286,171z"/>
	<path style="fill:#241726;" d="M485.122,250.706l-0.032,0.002c-4.12,0.193-7.628-3.003-7.821-7.125   c-0.192-4.103,2.989-7.61,7.091-7.819c2.028-0.095,3.942,0.595,5.42,1.941c1.475,1.344,2.341,3.185,2.435,5.18   C492.405,246.988,489.222,250.497,485.122,250.706z M484.493,237.923c-2.939,0.15-5.199,2.643-5.063,5.558   c0.137,2.93,2.63,5.202,5.558,5.065l0.078,1.079l-0.055-1.08c2.914-0.148,5.176-2.642,5.042-5.559   c-0.066-1.418-0.681-2.726-1.732-3.682C487.272,238.347,485.912,237.858,484.493,237.923z"/>
	<path style="fill:#241726;" d="M31.84,347.57l-0.032,0.002c-4.12,0.193-7.628-3.003-7.821-7.125   c-0.192-4.103,2.989-7.61,7.091-7.819c2.028-0.095,3.942,0.595,5.42,1.941c1.475,1.344,2.341,3.185,2.435,5.18   C39.123,343.852,35.94,347.361,31.84,347.57z M31.212,334.788c-2.939,0.15-5.199,2.643-5.063,5.558   c0.137,2.93,2.63,5.202,5.558,5.065l0.078,1.079l-0.055-1.08c2.914-0.148,5.176-2.642,5.042-5.559   c-0.066-1.418-0.681-2.726-1.732-3.682C33.99,335.211,32.63,334.722,31.212,334.788z"/>
	<path style="fill:#241726;" d="M365.269,476.094l-0.032,0.002c-4.12,0.193-7.628-3.003-7.821-7.125   c-0.192-4.103,2.989-7.61,7.091-7.819c2.028-0.095,3.942,0.595,5.42,1.941c1.475,1.344,2.341,3.185,2.435,5.18   C372.552,472.376,369.369,475.885,365.269,476.094z M364.641,463.312c-2.939,0.15-5.199,2.643-5.063,5.558   c0.137,2.93,2.63,5.202,5.558,5.065l0.078,1.079l-0.055-1.08c2.914-0.148,5.176-2.642,5.042-5.559   c-0.066-1.418-0.681-2.726-1.732-3.682C367.419,463.735,366.06,463.246,364.641,463.312z"/>
	<g>
		<path style="fill:#FFFFFF;" d="M76.947,95.214c0,0-2.135-16.206,13.464-10.962s10.516,20.082,4.569,15.004    c-5.947-5.077,5.211-22.298,17.148-14.63s9.267,22.548,0.8,23.646s5.126-17.325,15.792-5.947s-12.622,32.121-22.145,24.495    s-2.071-19.936,0.214-12.434s-3.876,14.859-20.768,14.568s-9.203-26.278-3.299-18.714c5.904,7.564-3.898,16.102-15.813,7.191    S68.587,90.095,76.947,95.214z"/>
		<path style="fill:#241726;" d="M86.985,130.042l-0.982-0.008c-5.537-0.095-9.434-2.932-10.806-7.82    c-2.914-0.368-5.985-1.712-8.933-3.918c-4.669-3.492-6.251-8.793-4.339-14.542c1.959-5.891,7.177-10.505,11.88-10.505    c0.677,0,1.333,0.091,1.962,0.272c-0.02-2.256,0.327-6.095,2.615-8.702c2.557-2.915,6.762-3.476,12.376-1.592    c2.165,0.728,4.061,1.672,5.652,2.815c2.683-2.831,6.107-4.436,9.53-4.436c2.317,0,4.597,0.71,6.776,2.11    c5.159,3.314,8.29,8.41,8.547,13.807c3.028,0.087,5.801,1.452,8.249,4.063c3.32,3.541,3.933,8.3,1.723,13.401    c-3.359,7.755-12.534,14.559-19.633,14.559c-2.224,0.001-4.141-0.633-5.701-1.882c-0.745-0.596-1.419-1.241-2.011-1.926    C100.159,128.557,94.35,130.042,86.985,130.042z M77.49,122.298c0.963,2.731,3.253,5.481,8.551,5.572l0.944,0.008    c8.492,0,13.131-1.992,15.619-3.885c-2.378-3.849-2.195-8.054-0.872-10.659c0.764-1.504,1.874-2.367,3.045-2.367    c0.785,0,2.225,0.403,3.047,3.103c1.144,3.757,0.296,7.43-2.324,10.224c0.513,0.596,1.1,1.158,1.752,1.681    c1.166,0.933,2.628,1.407,4.348,1.406c6.231,0,14.642-6.319,17.648-13.255c1.306-3.014,2.136-7.378-1.316-11.062    c-2.034-2.169-4.294-3.306-6.723-3.379c-0.509,5.181-3.751,9.09-8.14,9.659c-2.856,0.364-3.814-1.124-3.87-2.51    c-0.124-3.052,4.276-8.182,9.904-9.155c-0.205-4.716-2.978-9.202-7.558-12.143c-4.505-2.895-9.667-2.036-13.463,1.886    c3.684,3.507,4.369,7.821,3.342,10.701c-0.716,2.008-2.253,3.256-4.009,3.257h-0.001c-1.053,0-2.137-0.45-3.134-1.302    c-3.282-2.803-2.222-8.275,0.743-12.369c-1.39-0.976-3.051-1.793-4.954-2.432c-4.719-1.586-8.093-1.276-10.062,0.967    c-2.706,3.087-1.993,8.771-1.986,8.828c0.055,0.414-0.133,0.822-0.483,1.049c-0.351,0.227-0.798,0.233-1.155,0.015    c-0.784-0.48-1.651-0.724-2.579-0.724c-3.764,0-8.173,4.048-9.827,9.024c-0.756,2.276-1.922,8.011,3.581,12.127    c2.406,1.799,4.867,2.956,7.201,3.393c-0.48-4.197,0.804-8.287,2.497-10.388c0.943-1.172,2.045-1.791,3.185-1.791    c0.79,0,1.976,0.312,3.134,1.796c2.098,2.688,2.575,5.717,1.307,8.314C83.633,120.449,80.836,122.102,77.49,122.298z     M104.777,113.13c-0.199,0-0.678,0.321-1.116,1.183c-0.969,1.907-1.128,5.142,0.562,8.165c1.861-2.184,2.407-4.903,1.53-7.78    C105.406,113.556,104.97,113.13,104.777,113.13z M80.441,109.941c-0.455,0-0.989,0.35-1.5,0.985    c-1.442,1.79-2.5,5.616-1.973,9.227c2.741-0.043,5.02-1.267,5.971-3.215c0.891-1.823,0.501-4.023-1.068-6.033    C81.527,110.465,81.001,109.941,80.441,109.941z M119.006,99.901c-4.535,1.007-7.713,5.172-7.645,6.847    c0.008,0.206,0.02,0.489,0.883,0.489c0.167,0,0.35-0.013,0.546-0.039C116.036,106.777,118.471,103.851,119.006,99.901z     M96.692,89.087c-2.558,3.563-3.048,7.605-1.009,9.345c1.537,1.313,3.034,0.832,3.703-1.036    C100.164,95.216,99.586,91.903,96.692,89.087z"/>
	</g>
	<g>
		<path style="fill:#FFFFFF;" d="M456.409,373.992c0,0-2.135-16.206,13.464-10.962s10.516,20.082,4.569,15.004    s5.211-22.298,17.148-14.63c11.937,7.668,9.267,22.548,0.8,23.646c-8.467,1.098,5.126-17.325,15.792-5.947    c10.666,11.378-12.622,32.121-22.145,24.495c-9.524-7.627-2.071-19.936,0.214-12.434c2.285,7.502-3.876,14.859-20.768,14.568    c-16.891-0.291-9.203-26.278-3.299-18.714c5.904,7.564-3.898,16.102-15.813,7.191    C434.456,387.296,448.049,368.873,456.409,373.992z"/>
		<path style="fill:#241726;" d="M466.444,408.821l-0.979-0.008c-5.537-0.096-9.434-2.933-10.806-7.82    c-2.914-0.369-5.985-1.714-8.933-3.919c-4.669-3.492-6.251-8.792-4.339-14.542c1.959-5.89,7.177-10.504,11.88-10.504    c0.677,0,1.333,0.091,1.962,0.27c-0.02-2.255,0.327-6.094,2.615-8.702c2.557-2.915,6.762-3.477,12.376-1.592    c2.165,0.728,4.061,1.672,5.652,2.815c2.683-2.831,6.107-4.436,9.53-4.436c2.317,0,4.597,0.71,6.775,2.11    c5.16,3.314,8.291,8.41,8.548,13.807c3.028,0.087,5.801,1.452,8.249,4.063c3.321,3.542,3.933,8.302,1.724,13.401    c-3.359,7.755-12.535,14.559-19.634,14.559c-2.224,0.001-4.141-0.633-5.701-1.882c-0.745-0.596-1.419-1.241-2.011-1.926    C479.621,407.335,473.81,408.821,466.444,408.821z M456.951,401.076c0.965,2.731,3.253,5.482,8.551,5.573l0.941,0.008    c8.494,0,13.133-1.992,15.623-3.885c-2.378-3.849-2.195-8.054-0.872-10.659c0.764-1.505,1.874-2.369,3.045-2.369    c0.785,0,2.225,0.404,3.047,3.103c1.144,3.757,0.296,7.43-2.324,10.224c0.513,0.596,1.1,1.158,1.752,1.681    c1.166,0.933,2.628,1.407,4.348,1.406c6.231,0,14.643-6.318,17.649-13.255c1.305-3.013,2.136-7.378-1.317-11.062    c-2.034-2.17-4.294-3.306-6.723-3.379c-0.509,5.181-3.751,9.09-8.14,9.659c-0.298,0.038-0.534,0.08-0.827,0.056    c-2.168,0-2.993-1.325-3.044-2.565c-0.123-3.052,4.276-8.183,9.905-9.156c-0.205-4.716-2.978-9.202-7.558-12.143    c-4.505-2.893-9.668-2.036-13.464,1.886c3.685,3.507,4.371,7.823,3.343,10.702c-0.717,2.008-2.253,3.256-4.009,3.257h-0.001    c-1.053,0-2.137-0.45-3.134-1.302c-3.282-2.803-2.222-8.275,0.743-12.37c-1.39-0.976-3.051-1.793-4.954-2.432    c-4.709-1.585-8.088-1.279-10.056,0.962c-2.7,3.072-1.999,8.777-1.991,8.835c0.054,0.413-0.134,0.82-0.484,1.047    c-0.35,0.227-0.8,0.233-1.154,0.015c-0.784-0.48-1.652-0.724-2.579-0.724c-3.764,0-8.172,4.048-9.827,9.023    c-0.756,2.276-1.922,8.011,3.581,12.127c2.406,1.799,4.867,2.956,7.201,3.394c-0.48-4.197,0.804-8.287,2.497-10.389    c0.944-1.172,2.045-1.791,3.186-1.791c0.79,0,1.974,0.312,3.133,1.796c2.098,2.688,2.575,5.717,1.307,8.314    C463.095,399.228,460.298,400.881,456.951,401.076z M484.239,391.908c-0.199,0-0.678,0.322-1.116,1.184    c-0.969,1.907-1.128,5.141,0.562,8.164c1.861-2.184,2.407-4.903,1.53-7.78C484.868,392.334,484.433,391.908,484.239,391.908z     M459.904,388.719c-0.456,0-0.99,0.35-1.501,0.985c-1.442,1.79-2.5,5.616-1.973,9.228c2.741-0.044,5.02-1.268,5.971-3.215    c0.891-1.824,0.501-4.024-1.068-6.034C460.989,389.243,460.463,388.719,459.904,388.719z M498.467,378.678    c-4.536,1.008-7.713,5.173-7.645,6.848c0.007,0.206,0.019,0.488,0.881,0.488c0.001,0,0.001,0,0.001,0    c0.168,0,0.351-0.013,0.547-0.038C495.498,385.555,497.933,382.628,498.467,378.678z M476.153,367.865    c-2.558,3.563-3.047,7.606-1.008,9.346c1.536,1.314,3.034,0.834,3.702-1.036C479.626,373.995,479.048,370.681,476.153,367.865z"/>
	</g>
	<path style="fill:#241726;" d="M173.721,104.683c-0.475,0-0.9-0.274-1.137-0.73c-0.699-1.349-2.462-4.833-4.339-8.768   c-1.812,0.096-3.459,0.145-4.905,0.145c-5.61,0.001-6.481-0.707-6.893-1.431c-0.266-0.468-0.252-1.016,0.038-1.504   c0.793-1.334,4.648-4.91,7.238-7.239c-3.868-9.286-3.661-11.622-2.061-12.334c0.315-0.141,0.678-0.121,0.979,0.052   c0.043,0.024,4.189,2.413,9.055,5.399c8.044-6.667,9.07-6.667,9.569-6.667c0.576,0,1.205,0.582,1.235,1.157   c0.053,1.043-1.196,7.163-2.047,11.107c7.242,4.889,7.875,6.25,7.889,7.22c0.006,0.488-0.218,0.931-0.617,1.215   c-1.2,0.854-5.786,1.562-9.706,2.03C175.411,104.684,174.663,104.683,173.721,104.683z M170.575,95.04   c1.293,2.692,2.436,4.978,3.151,6.391c0.409-1.115,1.048-3.146,1.996-6.84C174.008,94.768,172.268,94.921,170.575,95.04z    M158.832,92.873c0.662,0.137,1.972,0.293,4.508,0.293c1.171,0,2.478-0.033,3.905-0.098c-0.974-2.081-1.853-4.026-2.626-5.807   C161.484,90.099,159.663,91.92,158.832,92.873z M166.318,85.737c0.924,2.157,2.017,4.573,3.256,7.202   c2.191-0.141,4.481-0.34,6.707-0.583c0.597-2.432,1.195-5.025,1.742-7.507c-1.791-1.185-3.85-2.5-6.138-3.918   C170.034,82.484,168.131,84.127,166.318,85.737z M179.953,86.146c-0.441,1.974-0.907,3.998-1.379,5.94   c3.891-0.491,6.235-0.976,7.293-1.304C185.31,90.152,183.837,88.809,179.953,86.146z M162.761,75.444   c0.13,1.066,0.696,3.355,2.673,8.185c1.479-1.306,3.007-2.624,4.51-3.893C166.915,77.885,164.235,76.306,162.761,75.444z    M173.639,79.473c1.775,1.105,3.406,2.146,4.877,3.108c0.804-3.758,1.331-6.506,1.603-8.116   C178.965,75.253,176.907,76.784,173.639,79.473z"/>
	<path style="fill:#241726;" d="M472.296,345.563c-0.475,0-0.9-0.274-1.137-0.73c-0.701-1.353-2.465-4.843-4.339-8.77   c-1.811,0.097-3.459,0.146-4.905,0.146c-5.61,0-6.481-0.707-6.893-1.431c-0.266-0.468-0.252-1.016,0.038-1.505   c0.794-1.334,4.648-4.91,7.238-7.239c-3.868-9.286-3.661-11.622-2.061-12.333c0.316-0.141,0.677-0.123,0.979,0.051   c0.043,0.025,4.189,2.414,9.055,5.399c8.043-6.666,9.07-6.666,9.568-6.666c0.577,0,1.206,0.582,1.236,1.157   c0.053,1.043-1.196,7.162-2.047,11.106c7.242,4.889,7.875,6.251,7.89,7.221c0.006,0.488-0.218,0.931-0.617,1.214   c-1.2,0.855-5.786,1.564-9.706,2.032C473.987,345.564,473.239,345.563,472.296,345.563z M469.15,335.919   c1.218,2.534,2.359,4.828,3.15,6.394c0.41-1.115,1.048-3.147,1.997-6.841C472.584,335.649,470.845,335.801,469.15,335.919z    M457.408,333.752c0.662,0.138,1.972,0.294,4.508,0.294c1.171,0,2.478-0.033,3.905-0.098c-0.974-2.082-1.853-4.026-2.626-5.808   C460.06,330.978,458.238,332.799,457.408,333.752z M464.894,326.616c0.924,2.157,2.017,4.573,3.256,7.203   c2.191-0.142,4.482-0.34,6.707-0.583c0.597-2.432,1.196-5.025,1.742-7.508c-1.791-1.184-3.85-2.5-6.139-3.917   C468.61,323.362,466.708,325.005,464.894,326.616z M478.528,327.026c-0.439,1.973-0.907,3.998-1.379,5.94   c3.891-0.491,6.235-0.976,7.293-1.304C483.885,331.032,482.414,329.689,478.528,327.026z M461.337,316.324   c0.13,1.066,0.696,3.355,2.673,8.185c1.48-1.307,3.008-2.625,4.51-3.894C465.491,318.766,462.81,317.185,461.337,316.324z    M472.214,320.352c1.775,1.105,3.407,2.146,4.878,3.109c0.805-3.758,1.331-6.506,1.603-8.116   C477.54,316.133,475.482,317.663,472.214,320.352z"/>
	<path style="fill:#241726;" d="M21.024,236.492c-0.801,0-1.558,0-3.665-8.396c-7.115-1.37-7.738-2.205-7.948-2.485   c-0.201-0.27-0.287-0.766-0.196-1.089c0.13-0.456,0.428-1.513,8.557-4.789c2.919-7.611,3.908-7.611,4.566-7.611   c0.342,0,0.812,0.245,1.016,0.52c0.523,0.701,0.996,2.523,1.714,5.44c0.224,0.913,0.495,2.015,0.652,2.5   c0.427,0.19,1.367,0.528,2.148,0.807c4.181,1.499,5.259,2.009,5.454,3.008c0.073,0.374-0.117,0.92-0.401,1.175   c-0.848,0.761-4.888,2.261-7.007,3.015c-3.441,7.831-4.177,7.869-4.827,7.904C21.067,236.492,21.043,236.492,21.024,236.492z    M12.163,224.679c1.422,0.41,4.014,0.998,6.276,1.42c0.417,0.078,0.75,0.393,0.851,0.805c0.578,2.343,1.334,5.013,1.877,6.535   c0.788-1.418,1.982-3.929,2.95-6.147c0.12-0.276,0.35-0.489,0.633-0.588c1.932-0.68,4.115-1.515,5.473-2.11   c-0.952-0.401-2.247-0.866-3.087-1.167c-2.386-0.855-2.835-1.041-3.143-1.453c-0.268-0.36-0.434-0.961-1.028-3.374   c-0.223-0.907-0.565-2.3-0.871-3.343c-0.709,1.353-1.7,3.653-2.47,5.689c-0.108,0.283-0.33,0.509-0.612,0.621   C16.505,222.568,13.656,223.844,12.163,224.679z"/>
	<path style="fill:#241726;" d="M442.284,103.964c-0.801,0-1.558,0-3.666-8.396c-7.114-1.368-7.715-2.176-7.947-2.486   c-0.201-0.269-0.287-0.765-0.197-1.088c0.13-0.456,0.428-1.513,8.557-4.789c2.919-7.611,3.908-7.611,4.566-7.611   c0.342,0,0.812,0.245,1.016,0.52c0.523,0.701,0.996,2.523,1.714,5.44c0.224,0.913,0.495,2.015,0.652,2.5   c0.427,0.19,1.368,0.528,2.148,0.808c4.181,1.498,5.259,2.008,5.454,3.007c0.073,0.374-0.117,0.919-0.4,1.174   c-0.849,0.762-4.889,2.262-7.008,3.016c-3.441,7.831-4.177,7.869-4.827,7.904C442.327,103.964,442.303,103.964,442.284,103.964z    M433.423,92.151c1.422,0.41,4.013,0.998,6.275,1.42c0.417,0.078,0.75,0.393,0.852,0.805c0.578,2.343,1.334,5.013,1.878,6.535   c0.788-1.418,1.982-3.929,2.95-6.147c0.12-0.276,0.35-0.489,0.633-0.588c1.932-0.68,4.115-1.515,5.473-2.11   c-0.952-0.401-2.247-0.866-3.087-1.167c-2.387-0.855-2.835-1.041-3.143-1.453c-0.268-0.36-0.434-0.961-1.028-3.374   c-0.223-0.907-0.565-2.3-0.87-3.342c-0.709,1.352-1.7,3.652-2.47,5.688c-0.108,0.283-0.33,0.509-0.612,0.621   C437.765,90.04,434.916,91.316,433.423,92.151z"/>
	<path style="fill:#241726;" d="M471.131,445.089c-0.8,0-1.557,0-3.665-8.395c-7.115-1.37-7.738-2.207-7.947-2.488   c-0.201-0.269-0.287-0.764-0.197-1.086c0.129-0.456,0.426-1.513,8.556-4.79c2.919-7.611,3.909-7.611,4.567-7.611   c0.342,0,0.811,0.245,1.016,0.519c0.523,0.703,0.996,2.524,1.714,5.441c0.225,0.913,0.495,2.016,0.652,2.501   c0.427,0.19,1.369,0.528,2.151,0.808c4.178,1.498,5.256,2.008,5.45,3.006c0.074,0.374-0.117,0.92-0.401,1.175   c-0.847,0.761-4.887,2.261-7.006,3.015c-3.442,7.831-4.177,7.869-4.828,7.904C471.174,445.089,471.15,445.089,471.131,445.089z    M462.272,433.276c1.422,0.411,4.013,0.999,6.275,1.421c0.417,0.078,0.75,0.393,0.851,0.805c0.578,2.343,1.334,5.012,1.878,6.534   c0.788-1.418,1.982-3.929,2.95-6.147c0.12-0.276,0.35-0.489,0.633-0.588c1.932-0.679,4.115-1.515,5.473-2.11   c-0.951-0.4-2.245-0.864-3.084-1.165c-2.39-0.857-2.84-1.043-3.147-1.456c-0.267-0.359-0.433-0.96-1.027-3.373   c-0.223-0.907-0.565-2.3-0.871-3.343c-0.709,1.352-1.7,3.652-2.471,5.689c-0.108,0.283-0.33,0.509-0.611,0.621   C466.613,431.166,463.764,432.442,462.272,433.276z"/>
	<g>
		<g>
			<path style="fill:#E3B000;" d="M274.065,36.116c-16.617-0.367-21.609,19.886-23.104,31.336l9.044,0.875     c0,0,3.433-25.77,15.914-22.078c12.481,3.692,11.124,24.884,11.124,24.884l11.056,1.64     C297.659,60.939,294.298,36.562,274.065,36.116z"/>
			<path style="fill:#E17B8D;" d="M275.582,14.45c47.014,3.72,47.08,46.692,45.639,61.752l7.558,1.121     c0,0,4.238-65.631-48.091-73.292c-52.329-7.661-60.057,60.487-60.057,60.487l8.403,0.813     C230.862,49.217,239.04,11.558,275.582,14.45z"/>
			<path style="fill:#B1739A;" d="M275.582,14.45c-36.542-2.892-44.719,34.767-46.547,50.881l11.07,1.071     c1.981-16.85,10.17-49.021,43.813-40.684c22.048,5.464,25.815,34.773,26.337,48.858l10.967,1.627     C322.661,61.142,322.596,18.17,275.582,14.45z"/>
			<path style="fill:#DF7E0E;" d="M283.917,25.717c-33.643-8.337-41.832,23.834-43.813,40.684l10.856,1.05     c1.495-11.45,6.487-31.702,23.104-31.336c20.233,0.446,23.595,24.824,24.035,36.656l12.155,1.803     C309.733,60.491,305.965,31.181,283.917,25.717z"/>
		</g>
		<path style="fill:#241726;" d="M321.038,76.315c-0.054,0-0.109-0.004-0.164-0.013c-0.591-0.09-0.996-0.641-0.906-1.232    c0.019-0.127,1.876-12.799-1.854-26.421c-4.96-18.111-16.948-29.251-35.633-33.11c-11.324-2.339-21.227-0.54-29.444,5.347    c-18.864,13.514-22.89,44.269-22.929,44.578c-0.074,0.594-0.617,1.024-1.206,0.94c-0.594-0.074-1.014-0.614-0.94-1.206    c0.162-1.3,4.189-32.01,23.815-46.07c8.728-6.251,19.206-8.169,31.142-5.707c46.618,9.628,39.268,61.453,39.188,61.975    C322.025,75.931,321.564,76.315,321.038,76.315z"/>
		<path style="fill:#241726;" d="M310.254,75.656c-0.589,0-1.071-0.472-1.082-1.064c-0.007-0.453-1.094-45.329-29.57-48.689    c-8.386-0.993-15.678,0.943-21.687,5.744c-14.083,11.247-16.71,34.633-16.735,34.868c-0.062,0.594-0.588,1.021-1.19,0.961    c-0.594-0.062-1.025-0.595-0.961-1.19c0.106-0.996,2.754-24.525,17.536-36.331c6.479-5.172,14.314-7.257,23.29-6.201    c30.35,3.582,31.471,50.331,31.48,50.802c0.009,0.597-0.467,1.089-1.064,1.1C310.266,75.656,310.259,75.656,310.254,75.656z"/>
		<path style="fill:#241726;" d="M298.1,73.854c-0.001,0-0.001,0-0.002,0c-0.597-0.001-1.081-0.487-1.08-1.084    c0.001-0.329-0.177-32.865-20.482-35.491c-4.428-0.58-8.431,0.491-11.882,3.167c-10.126,7.85-12.595,26.946-12.619,27.138    c-0.072,0.594-0.604,1.034-1.206,0.94c-0.593-0.073-1.014-0.614-0.94-1.206c0.101-0.82,2.61-20.185,13.44-28.581    c3.924-3.043,8.462-4.249,13.484-3.605c9.246,1.197,16.048,8.142,19.673,20.086c2.684,8.847,2.697,17.205,2.696,17.556    C299.18,73.371,298.696,73.854,298.1,73.854z"/>
	</g>
	<polygon style="fill:#E5B200;" points="10.162,291.664 11.122,276.805 21.018,286.977 33.695,284.172 30.294,295.496    36.803,307.22 24.549,305.784 15.623,316.954 13.108,302.355 0,299.246  "/>
	<polygon style="fill:#E5B200;" points="496.631,272.909 511.504,272.189 502.512,283.168 506.728,295.449 495.092,293.345    484.177,301.134 484.223,288.797 472.118,281.186 486.341,277.042 487.953,263.667  "/>
	<g>
		<path style="fill:#241726;" d="M407.429,168.958c-0.306,0-0.607-0.073-0.888-0.219c-3.489-1.805-1.035-13.91,0.182-19.031    c0.139-0.581,0.724-0.935,1.303-0.802c0.581,0.137,0.94,0.72,0.802,1.303c-1.912,8.052-2.528,15.969-1.291,16.609    c1.202-0.434,4.148-7.979,6.283-16.493c0.144-0.581,0.732-0.937,1.312-0.786c0.58,0.145,0.932,0.732,0.786,1.312    c-0.959,3.829-4.346,16.435-7.629,17.915C408.005,168.895,407.715,168.958,407.429,168.958z"/>
		<path style="fill:#241726;" d="M449.826,161.056c-0.101,0-0.204-0.007-0.308-0.022c-3.567-0.497-10.365-11.641-12.364-15.044    c-0.302-0.516-0.13-1.179,0.385-1.481c0.517-0.303,1.178-0.13,1.481,0.385c4.445,7.57,9.397,13.981,10.811,13.999    c0.867-0.902-1.951-8.326-6.052-15.514c-0.297-0.52-0.116-1.18,0.402-1.476c0.519-0.301,1.179-0.117,1.476,0.403    c2.609,4.571,8.37,15.496,5.53,18.211C450.817,160.869,450.341,161.056,449.826,161.056z"/>
		<path style="fill:#241726;" d="M403.915,147.117c-0.239,0-0.473-0.079-0.665-0.228c-0.242-0.188-0.392-0.469-0.414-0.774    c-0.085-1.15-1.953-28.262,6.851-37.732c2.178-2.344,4.808-3.455,7.924-3.286c17.262,0.946,23.272,32.955,23.521,34.316    c0.051,0.283-0.013,0.575-0.176,0.811c-0.165,0.236-0.416,0.397-0.699,0.447l-36.152,6.428    C404.042,147.112,403.978,147.117,403.915,147.117z M417.01,107.244c-2.227,0-4.104,0.854-5.739,2.612    c-7.177,7.722-6.603,29.538-6.345,34.902l33.86-6.021c-1.19-5.532-7.37-30.716-21.293-31.48    C417.331,107.248,417.168,107.244,417.01,107.244z"/>
		<path style="fill:#E17B8D;" d="M402.234,134.33l36.211-6.025l21.573,6.789c0,0-35.264,38.433-75.133,10.379L402.234,134.33z"/>
		<path style="fill:#241726;" d="M426.287,119.324c-0.529,0-0.992-0.389-1.07-0.928c-0.853-5.935-7.588-5.835-7.862-5.814    c-0.591-0.035-1.094-0.455-1.111-1.05c-0.018-0.596,0.449-1.094,1.046-1.112c3.072-0.088,9.166,1.379,10.07,7.668    c0.085,0.592-0.326,1.14-0.917,1.225C426.39,119.321,426.338,119.324,426.287,119.324z"/>
		<polygon style="fill:#E4B200;" points="402.805,126.833 436.652,121.56 438.445,128.306 402.234,134.33   "/>
		<path style="fill:#241726;" d="M404.704,148.773c-2.599,0-4.837-1.943-5.208-4.517c-0.2-1.392,0.155-2.779,0.998-3.906    c0.843-1.125,2.075-1.855,3.466-2.056c2.899-0.413,5.555,1.642,5.962,4.463c0.2,1.392-0.154,2.779-0.997,3.906    c-0.843,1.125-2.075,1.855-3.466,2.056C405.205,148.755,404.952,148.773,404.704,148.773z M404.715,140.404    c-0.147,0-0.296,0.011-0.446,0.033c-0.821,0.117-1.547,0.547-2.043,1.211c-0.497,0.663-0.706,1.48-0.587,2.3    c0.239,1.664,1.798,2.887,3.512,2.629c0.821-0.117,1.546-0.547,2.042-1.211c0.497-0.663,0.706-1.48,0.587-2.3    C407.562,141.548,406.244,140.404,404.715,140.404z"/>
		<path style="fill:#241726;" d="M423.217,149.435c-2.599,0-4.837-1.943-5.208-4.517c-0.411-2.875,1.592-5.548,4.465-5.962    c2.898-0.422,5.555,1.643,5.962,4.463c0.2,1.392-0.154,2.779-0.997,3.906c-0.843,1.125-2.075,1.855-3.466,2.056    C423.718,149.417,423.465,149.435,423.217,149.435z M423.228,141.066c-0.147,0-0.296,0.011-0.446,0.033    c-1.693,0.243-2.874,1.818-2.631,3.512c0.239,1.662,1.8,2.887,3.512,2.628c0.821-0.117,1.546-0.547,2.042-1.211    c0.497-0.663,0.706-1.48,0.587-2.3C426.075,142.21,424.757,141.066,423.228,141.066z"/>
		<path style="fill:#241726;" d="M440.345,144.661c-2.598,0-4.836-1.943-5.207-4.518c-0.2-1.392,0.154-2.779,0.997-3.906    c0.843-1.125,2.075-1.855,3.466-2.056c2.901-0.419,5.555,1.643,5.961,4.463c0.2,1.392-0.154,2.779-0.997,3.906    c-0.843,1.126-2.075,1.856-3.466,2.057C440.846,144.643,440.595,144.661,440.345,144.661z M440.356,136.291    c-0.147,0-0.296,0.011-0.446,0.033c-0.821,0.117-1.546,0.547-2.042,1.211c-0.497,0.663-0.706,1.48-0.587,2.3    c0.239,1.664,1.811,2.887,3.511,2.631c0.821-0.117,1.546-0.547,2.042-1.211c0.497-0.663,0.706-1.481,0.587-2.301    C443.203,137.435,441.886,136.291,440.356,136.291z"/>
	</g>
	<g>
		<path style="fill:#241726;" d="M26.985,480.33c-0.267,0-0.51-0.029-0.725-0.091c-0.616-0.176-1.083-0.584-1.315-1.15    c-1.495-3.632,8.203-11.281,12.442-14.401c0.481-0.353,1.158-0.25,1.513,0.23c0.354,0.481,0.25,1.158-0.23,1.513    c-6.665,4.907-12.253,10.549-11.723,11.835c1.211,0.464,8.326-3.405,15.457-8.519c0.488-0.35,1.162-0.237,1.51,0.248    c0.349,0.486,0.237,1.162-0.248,1.51C40.656,473.662,31.025,480.33,26.985,480.33z"/>
		<path style="fill:#241726;" d="M64.202,501.684c-0.564,0-1.088-0.242-1.486-0.688c-2.4-2.684-0.381-15.581,0.294-19.47    c0.102-0.588,0.661-0.975,1.251-0.881c0.588,0.102,0.984,0.662,0.881,1.251c-1.502,8.649-1.87,16.74-0.803,17.669    c1.247-0.128,3.895-7.613,5.412-15.749c0.109-0.587,0.663-0.975,1.262-0.865c0.587,0.11,0.974,0.675,0.865,1.262    c-0.966,5.173-3.633,17.233-7.556,17.467C64.282,501.682,64.242,501.684,64.202,501.684z"/>
		<path style="fill:#241726;" d="M69.358,479.622c-0.189,0-0.377-0.05-0.544-0.147l-31.737-18.47    c-0.265-0.154-0.452-0.413-0.514-0.713c-0.063-0.3,0.004-0.612,0.185-0.859c0.728-0.998,17.979-24.442,31.029-24.442    c2.591,0,4.866,0.91,6.761,2.702c12.558,11.882-3.551,40.188-4.243,41.387c-0.144,0.249-0.38,0.43-0.659,0.505    C69.545,479.611,69.451,479.622,69.358,479.622z M39.22,459.75l29.723,17.298c2.669-4.988,14.237-28.199,4.107-37.781    c-1.5-1.42-3.225-2.111-5.274-2.111C57.216,437.156,42.615,455.328,39.22,459.75z"/>
		<path style="fill:#E17B8D;" d="M43.906,450.054l31.52,18.815l12.069,19.126c0,0-51.751,6.522-64.029-40.657L43.906,450.054z"/>
		<path style="fill:#241726;" d="M72.657,454.415c-0.197,0-0.395-0.053-0.574-0.166c-0.506-0.317-0.659-0.985-0.341-1.491    c3.186-5.078-2.018-9.34-2.241-9.52c-0.465-0.373-0.542-1.053-0.169-1.519c0.372-0.466,1.051-0.543,1.517-0.173    c2.419,1.923,6.102,6.98,2.725,12.361C73.369,454.235,73.018,454.415,72.657,454.415z"/>
		<polygon style="fill:#E4B200;" points="49.189,444.704 78.42,462.564 75.427,468.869 43.906,450.054   "/>
		<path style="fill:#241726;" d="M39.859,463.922c-0.989,0-1.955-0.279-2.795-0.805c-2.459-1.543-3.204-4.8-1.663-7.26    c1.496-2.383,4.869-3.166,7.26-1.662c2.46,1.543,3.205,4.8,1.662,7.259C43.354,462.999,41.685,463.922,39.859,463.922z     M39.867,455.552c-1.077,0-2.061,0.543-2.633,1.454c-0.909,1.449-0.469,3.368,0.979,4.278c1.415,0.886,3.4,0.424,4.276-0.979    c0.91-1.449,0.47-3.368-0.978-4.278C41.016,455.716,40.448,455.552,39.867,455.552z"/>
		<path style="fill:#241726;" d="M53.554,476.396c-0.988,0-1.954-0.279-2.794-0.805c-2.459-1.543-3.204-4.8-1.663-7.26    c1.497-2.381,4.867-3.166,7.26-1.662c2.459,1.542,3.204,4.799,1.663,7.259C57.048,475.474,55.38,476.396,53.554,476.396z     M53.562,468.027c-1.077,0-2.061,0.543-2.633,1.454c-0.909,1.449-0.469,3.368,0.979,4.278c1.417,0.888,3.398,0.423,4.278-0.979    c0.909-1.449,0.469-3.368-0.979-4.278C54.712,468.191,54.143,468.027,53.562,468.027z"/>
		<path style="fill:#241726;" d="M69.708,483.827c-0.988,0-1.954-0.279-2.794-0.805c-2.459-1.543-3.204-4.8-1.663-7.26    c1.497-2.382,4.867-3.165,7.26-1.662c2.46,1.543,3.205,4.8,1.662,7.259C73.203,482.905,71.534,483.827,69.708,483.827z     M69.716,475.458c-1.077,0-2.061,0.543-2.633,1.454c-0.909,1.449-0.469,3.368,0.979,4.278c1.416,0.886,3.4,0.422,4.278-0.979    c0.909-1.449,0.469-3.368-0.979-4.278C70.866,475.622,70.297,475.458,69.716,475.458z"/>
	</g>
	<path style="fill:#241726;" d="M410.706,497.156c-0.016-0.001-0.029,0-0.043,0c-0.189,0-0.378-0.05-0.547-0.149   c-11.349-6.655-30.155-18.443-28.594-22.63c1.532-4.107,18.842-18.67,20.811-20.317c0.288-0.245,0.684-0.317,1.045-0.194   c0.358,0.123,0.625,0.424,0.707,0.793l2.813,12.93c4.294,0.09,24.145-0.562,33.076-19.311c0.137-0.289,0.395-0.502,0.705-0.582   c0.31-0.081,0.638-0.02,0.899,0.166l14.607,10.411c0.378,0.269,0.542,0.749,0.409,1.193c-0.077,0.255-8.001,25.476-36.651,25.478   c-0.001,0-0.003,0-0.005,0c-3.227,0.001-6.637-0.322-10.155-0.961l1.901,11.626c0.067,0.142,0.105,0.299,0.105,0.466   C411.788,496.672,411.303,497.156,410.706,497.156z M402.351,456.872c-7.301,6.189-17.861,15.737-18.804,18.262   c0.033,2.214,12.989,11.254,25.674,18.831l-1.826-11.164c-0.057-0.351,0.062-0.708,0.319-0.955   c0.258-0.246,0.626-0.344,0.967-0.279c3.919,0.806,7.707,1.214,11.255,1.214c0.002,0,0.003,0,0.005,0   c24.654-0.002,32.863-19.129,34.333-23.211l-12.921-9.21c-11.017,21.282-35.422,19.352-35.422,19.353   c-0.474-0.038-0.87-0.384-0.972-0.848L402.351,456.872z"/>
	<path style="fill:#241726;" d="M108.509,68.687c-0.201,0-0.399-0.056-0.574-0.165l-15.209-9.511   c-0.393-0.245-0.585-0.714-0.48-1.165c0.065-0.278,6.914-27.736,38.152-27.736c2.279,0,4.659,0.147,7.095,0.438l-2.663-11.777   c-0.092-0.409,0.06-0.835,0.391-1.092c0.329-0.259,0.78-0.301,1.155-0.111c11.73,5.958,31.213,16.592,29.906,20.865   c-1.281,4.193-17.682,19.773-19.547,21.536c-0.275,0.26-0.666,0.362-1.031,0.257c-0.364-0.1-0.65-0.385-0.753-0.749l-3.587-12.736   c-4.699,0.164-24.068,2.018-31.853,21.271c-0.119,0.296-0.364,0.525-0.669,0.623C108.734,68.669,108.621,68.687,108.509,68.687z    M94.561,57.606l13.446,8.409c9.231-20.844,31.509-21.455,34.063-21.455c0.484,0,1.018,0.323,1.15,0.789l3.327,11.812   c6.914-6.616,16.879-16.784,17.667-19.361c-0.167-2.21-13.644-10.451-26.762-17.249l2.495,11.033   c0.078,0.348-0.019,0.711-0.261,0.973c-0.241,0.261-0.597,0.393-0.948,0.337c-16.255-2.335-29.026,1.896-37.519,12.358   C97.003,50.447,95.137,55.71,94.561,57.606z"/>
	<path style="fill:#241726;" d="M376.519,84.975c-0.158,0-0.317-0.035-0.465-0.105c-0.302-0.144-0.521-0.419-0.592-0.746   c-0.195-0.894-4.72-21.99,1.311-30.478c1.457-2.049,3.409-3.236,5.805-3.524c4.799-0.565,7.258,4.194,7.977,8.835   c2.849-1.345,5.712-2.101,8.029-2.101c3.531,0,5.66,1.797,5.842,4.93c0.506,8.7-24.56,21.627-27.42,23.073   C376.854,84.936,376.686,84.975,376.519,84.975z M383.327,52.24c-0.16,0-0.322,0.011-0.49,0.031   c-1.789,0.216-3.195,1.074-4.299,2.627c-4.653,6.547-2.131,22.561-1.236,27.374c8.122-4.254,25.306-14.509,24.966-20.361   c-0.073-1.241-0.534-2.893-3.683-2.893c-2.159,0-5.037,0.83-7.806,2.238c0.116,2.912-0.36,6.408-2.046,8.228   c-0.698,0.753-1.558,1.15-2.488,1.152c0,0,0,0-0.001,0c-0.718,0-1.465-0.238-2.219-0.706c-1.48-0.921-1.762-2.11-1.738-2.944   c0.09-3.024,4.216-5.789,6.23-6.961C388.07,56.047,386.343,52.24,383.327,52.24z M388.628,62.487   c-2.821,1.809-4.149,3.57-4.178,4.563c-0.007,0.274,0.067,0.638,0.718,1.043c0.405,0.252,0.767,0.38,1.077,0.38   c0.204-0.001,0.521-0.049,0.901-0.458C388.02,67.072,388.572,64.929,388.628,62.487z"/>
	<path style="fill:#241726;" d="M42.589,403.643c-0.097,0-0.195-0.013-0.292-0.04c-0.881-0.247-21.631-6.156-26.294-15.467   c-1.126-2.249-1.256-4.53-0.386-6.78c0.96-2.486,3.241-3.854,6.423-3.854c1.561,0,3.339,0.336,5.125,0.958   c0.183-3.639,1.11-7.795,3.281-9.984c1.569-1.578,3.587-1.916,5.728-0.934c7.919,3.637,7.562,31.839,7.495,35.042   c-0.007,0.335-0.169,0.648-0.437,0.846C43.045,403.57,42.818,403.643,42.589,403.643z M22.041,379.665   c-2.289,0-3.771,0.831-4.405,2.47c-0.65,1.681-0.55,3.327,0.302,5.031c3.596,7.182,18.918,12.474,23.588,13.944   c0.057-9.169-0.926-29.156-6.253-31.601c-1.31-0.602-2.351-0.454-3.289,0.49c-1.557,1.571-2.609,5.27-2.684,9.344   c3.046,1.466,6.364,3.985,6.517,6.72c0.053,0.943-0.256,2.284-2.032,3.315c-0.638,0.371-1.277,0.559-1.898,0.559   c-3.269,0-4.579-4.789-4.738-9.175C25.356,380.052,23.565,379.665,22.041,379.665z M29.376,381.818   c0.31,3.722,1.456,5.955,2.51,5.955c0.236,0,0.509-0.09,0.813-0.267c0.999-0.58,0.969-1.119,0.957-1.322   C33.587,384.933,31.835,383.193,29.376,381.818z"/>
	<path style="fill:#241726;" d="M199.93,148.193c-0.236,0-0.472-0.076-0.671-0.235c-1.08-0.855-2.052-1.822-2.891-2.874   c-0.373-0.467-0.297-1.147,0.17-1.52c0.468-0.373,1.148-0.295,1.52,0.17c0.737,0.924,1.594,1.775,2.545,2.529   c0.468,0.371,0.547,1.051,0.175,1.519C200.565,148.052,200.249,148.193,199.93,148.193z M308.781,145.309   c-1.758,0-2.739-0.807-3.253-1.484c-0.361-0.476-0.267-1.155,0.208-1.516c0.476-0.363,1.154-0.266,1.516,0.208   c0.494,0.655,1.467,0.792,2.85,0.441c0.575-0.151,1.167,0.202,1.315,0.781c0.148,0.579-0.202,1.167-0.781,1.315   C309.974,145.223,309.35,145.309,308.781,145.309z M314.249,143.237c-0.314,0-0.624-0.135-0.838-0.396   c-0.379-0.463-0.311-1.144,0.151-1.522c0.937-0.767,1.598-1.79,1.968-3.041c0.169-0.572,0.769-0.902,1.344-0.731   c0.573,0.169,0.9,0.77,0.731,1.344c-0.494,1.676-1.393,3.056-2.672,4.102C314.731,143.157,314.489,143.237,314.249,143.237z    M194.983,141.798c-0.416,0-0.813-0.241-0.992-0.647c-0.6-1.368-1.045-2.841-1.321-4.376c-0.106-0.588,0.285-1.15,0.874-1.256   c0.586-0.097,1.152,0.286,1.256,0.874c0.245,1.368,0.64,2.676,1.173,3.888c0.24,0.547-0.008,1.185-0.556,1.426   C195.275,141.768,195.127,141.798,194.983,141.798z M248.357,140.795c-0.976,0-2.731-0.376-3.518-2.898   c-0.179-0.569,0.139-1.177,0.71-1.354c0.565-0.18,1.175,0.139,1.354,0.71c0.431,1.379,1.147,1.379,1.454,1.379   c0.162,0,0.342-0.022,0.537-0.066c0.595-0.132,1.162,0.237,1.292,0.819c0.131,0.583-0.236,1.162-0.819,1.292   C249.018,140.755,248.677,140.795,248.357,140.795z M305.75,140.079c-0.049,0-0.099-0.003-0.149-0.011   c-0.593-0.081-1.006-0.628-0.923-1.219c0.184-1.33,0.583-2.813,1.187-4.407c0.213-0.559,0.84-0.839,1.396-0.629   c0.559,0.212,0.84,0.837,0.629,1.396c-0.547,1.443-0.908,2.768-1.069,3.936C306.746,139.687,306.282,140.079,305.75,140.079z    M252.849,138.574c-0.295,0-0.589-0.12-0.803-0.357c-0.4-0.444-0.366-1.128,0.078-1.528c0.942-0.85,1.745-1.898,2.385-3.117   c0.278-0.529,0.933-0.731,1.461-0.453c0.528,0.278,0.732,0.932,0.453,1.461c-0.759,1.443-1.718,2.693-2.85,3.714   C253.367,138.482,253.108,138.574,252.849,138.574z M366.837,138.043c-0.51,0-0.965-0.363-1.063-0.883   c-0.002-0.016-0.314-1.657-1.06-4.094c-0.175-0.572,0.146-1.177,0.717-1.351c0.576-0.181,1.176,0.146,1.351,0.717   c0.785,2.565,1.105,4.26,1.119,4.33c0.109,0.587-0.278,1.152-0.865,1.261C366.97,138.037,366.903,138.043,366.837,138.043z    M316.91,135.377c-0.556,0-1.028-0.425-1.077-0.988c-0.108-1.236-0.381-2.587-0.812-4.017c-0.173-0.572,0.151-1.176,0.723-1.348   c0.576-0.174,1.177,0.15,1.348,0.723c0.474,1.571,0.776,3.07,0.897,4.454c0.052,0.595-0.389,1.12-0.984,1.172   C316.973,135.376,316.941,135.377,316.91,135.377z M245.624,134.364c-0.037,0-0.074-0.002-0.112-0.005   c-0.594-0.061-1.026-0.593-0.966-1.187c0.141-1.362,0.425-2.848,0.846-4.418c0.155-0.578,0.753-0.92,1.326-0.765   c0.577,0.155,0.919,0.748,0.764,1.326c-0.392,1.458-0.655,2.83-0.783,4.079C246.643,133.95,246.173,134.364,245.624,134.364z    M193.417,133.357c-0.008,0-0.018,0-0.026,0c-0.598-0.015-1.07-0.511-1.055-1.108c0.036-1.462,0.206-2.969,0.506-4.478   c0.115-0.586,0.682-0.973,1.271-0.85c0.586,0.115,0.967,0.685,0.85,1.271c-0.275,1.389-0.431,2.772-0.464,4.111   C194.484,132.89,194.002,133.357,193.417,133.357z M308.684,131.972c-0.172,0-0.348-0.041-0.51-0.129   c-0.526-0.282-0.725-0.937-0.442-1.464c0.678-1.266,1.449-2.543,2.292-3.797c0.334-0.495,1.006-0.63,1.501-0.295   c0.497,0.334,0.628,1.006,0.295,1.501c-0.803,1.195-1.537,2.41-2.183,3.613C309.444,131.765,309.07,131.972,308.684,131.972z    M256.911,131.094c-0.075,0-0.151-0.007-0.227-0.024c-0.584-0.125-0.957-0.699-0.831-1.284c0.266-1.247,0.402-2.576,0.404-3.948   c0-0.597,0.485-1.143,1.082-1.143l0,0c0.598,0,1.082,0.423,1.082,1.019c-0.001,1.649-0.153,3.129-0.452,4.524   C257.859,130.747,257.411,131.094,256.911,131.094z M364.314,129.739c-0.43,0-0.838-0.259-1.006-0.684   c-0.529-1.336-1.11-2.639-1.726-3.872c-0.267-0.535-0.051-1.184,0.484-1.452c0.536-0.264,1.184-0.051,1.452,0.484   c0.643,1.289,1.25,2.648,1.802,4.043c0.22,0.556-0.052,1.184-0.607,1.404C364.582,129.714,364.447,129.739,364.314,129.739z    M314.516,127.099c-0.411,0-0.804-0.236-0.986-0.634c-0.558-1.225-1.212-2.487-1.944-3.748c-0.3-0.517-0.124-1.179,0.393-1.479   c0.52-0.3,1.18-0.123,1.479,0.393c0.05,0.087,0.099,0.172,0.149,0.259c0.641-0.746,1.307-1.474,1.987-2.175   c0.417-0.429,1.1-0.439,1.53-0.023c0.429,0.416,0.439,1.101,0.023,1.53c-0.842,0.867-1.66,1.778-2.436,2.713   c0.279,0.549,0.543,1.096,0.788,1.635c0.247,0.544,0.007,1.185-0.537,1.433C314.818,127.068,314.665,127.099,314.516,127.099z    M247.794,126.004c-0.13,0-0.262-0.023-0.391-0.073c-0.557-0.217-0.834-0.843-0.618-1.4c0.52-1.341,1.121-2.702,1.786-4.049   c0.265-0.535,0.913-0.755,1.449-0.49c0.536,0.265,0.755,0.914,0.49,1.449c-0.637,1.289-1.213,2.591-1.708,3.872   C248.637,125.742,248.227,126.004,247.794,126.004z M195.059,124.896c-0.12,0-0.244-0.02-0.363-0.063   c-0.563-0.201-0.857-0.82-0.655-1.382c0.491-1.378,1.09-2.756,1.778-4.097c0.271-0.53,0.924-0.74,1.457-0.468   c0.531,0.273,0.741,0.925,0.468,1.457c-0.645,1.256-1.205,2.547-1.666,3.835C195.92,124.62,195.504,124.896,195.059,124.896z    M256.905,122.495c-0.508,0-0.961-0.359-1.061-0.877c-0.26-1.344-0.641-2.683-1.133-3.98c-0.211-0.559,0.07-1.183,0.629-1.396   c0.56-0.207,1.184,0.071,1.396,0.629c0.535,1.412,0.949,2.871,1.232,4.337c0.114,0.586-0.269,1.154-0.857,1.267   C257.042,122.488,256.973,122.495,256.905,122.495z M360.422,122.009c-0.358,0-0.708-0.177-0.914-0.501   c-0.775-1.219-1.604-2.362-2.459-3.394c-0.381-0.461-0.318-1.142,0.142-1.523c0.462-0.386,1.143-0.319,1.523,0.142   c0.915,1.103,1.796,2.319,2.62,3.614c0.321,0.505,0.172,1.173-0.332,1.494C360.822,121.954,360.621,122.009,360.422,122.009z    M310.194,119.606c-0.342,0-0.678-0.162-0.888-0.464c-0.792-1.138-1.653-2.28-2.558-3.395c-0.377-0.464-0.305-1.145,0.158-1.521   c0.466-0.377,1.146-0.305,1.521,0.158c0.938,1.156,1.831,2.341,2.653,3.522c0.342,0.49,0.221,1.164-0.269,1.505   C310.623,119.544,310.407,119.606,310.194,119.606z M319.522,118.584c-0.305,0-0.608-0.129-0.822-0.379   c-0.389-0.454-0.335-1.137,0.119-1.524c1.14-0.975,2.321-1.887,3.509-2.712c0.49-0.341,1.164-0.218,1.505,0.272   c0.341,0.491,0.219,1.165-0.272,1.505c-1.13,0.784-2.253,1.652-3.338,2.579C320.021,118.498,319.772,118.584,319.522,118.584z    M251.621,118.249c-0.19,0-0.382-0.05-0.558-0.155c-0.511-0.308-0.676-0.973-0.368-1.485c0.632-1.048,1.306-2.082,2.009-3.085   c-0.642-1.057-1.366-2.07-2.154-3.012c-0.383-0.458-0.323-1.14,0.135-1.523c0.462-0.385,1.143-0.321,1.523,0.135   c0.959,1.146,1.831,2.386,2.588,3.686c0.004,0.006,0.007,0.013,0.012,0.019c0.338,0.371,0.382,0.94,0.077,1.363   c-0.824,1.139-1.61,2.327-2.338,3.535C252.345,118.063,251.987,118.249,251.621,118.249z M198.991,117.215   c-0.209,0-0.422-0.06-0.607-0.187c-0.494-0.336-0.622-1.009-0.286-1.503c0.83-1.22,1.745-2.408,2.718-3.529   c0.391-0.451,1.078-0.498,1.527-0.107c0.45,0.392,0.499,1.075,0.107,1.527c-0.918,1.055-1.78,2.175-2.562,3.326   C199.678,117.049,199.337,117.215,198.991,117.215z M354.883,115.39c-0.256,0-0.511-0.09-0.716-0.271   c-1.054-0.933-2.171-1.753-3.319-2.438c-0.512-0.306-0.68-0.97-0.374-1.483c0.304-0.513,0.969-0.68,1.483-0.374   c1.262,0.753,2.489,1.653,3.643,2.675c0.448,0.396,0.49,1.08,0.094,1.527C355.48,115.267,355.182,115.39,354.883,115.39z    M326.634,113.673c-0.386,0-0.759-0.206-0.954-0.569c-0.283-0.526-0.086-1.182,0.441-1.465c1.33-0.716,2.694-1.344,4.054-1.865   c0.561-0.211,1.184,0.065,1.398,0.622c0.214,0.558-0.064,1.184-0.622,1.398c-1.275,0.489-2.554,1.078-3.804,1.751   C326.983,113.632,326.807,113.673,326.634,113.673z M304.738,112.887c-0.288,0-0.576-0.114-0.789-0.341   c-0.971-1.035-1.987-2.042-3.02-2.993c-0.439-0.405-0.467-1.088-0.062-1.528c0.405-0.439,1.09-0.469,1.528-0.063   c1.071,0.986,2.126,2.029,3.133,3.103c0.409,0.436,0.387,1.121-0.049,1.53C305.27,112.79,305.004,112.887,304.738,112.887z    M256.696,111.245c-0.251,0-0.503-0.087-0.708-0.263c-0.451-0.391-0.502-1.074-0.111-1.527c0.975-1.127,2.001-2.208,3.05-3.212   c0.433-0.412,1.119-0.397,1.53,0.034c0.413,0.432,0.398,1.117-0.034,1.53c-0.999,0.956-1.979,1.987-2.908,3.064   C257.3,111.118,256.999,111.245,256.696,111.245z M347.49,111.02c-0.116,0-0.233-0.018-0.35-0.058   c-1.276-0.435-2.616-0.74-3.983-0.904c-0.593-0.072-1.015-0.611-0.944-1.204c0.072-0.593,0.6-1.015,1.204-0.944   c1.516,0.184,3.003,0.522,4.422,1.006c0.565,0.192,0.867,0.807,0.674,1.373C348.361,110.737,347.941,111.02,347.49,111.02z    M204.655,110.694c-0.293,0-0.585-0.118-0.799-0.353c-0.404-0.441-0.372-1.125,0.07-1.528c1.09-0.996,2.255-1.939,3.461-2.802   c0.488-0.348,1.162-0.235,1.51,0.25c0.348,0.486,0.236,1.162-0.25,1.51c-1.137,0.812-2.233,1.701-3.262,2.639   C205.177,110.601,204.916,110.694,204.655,110.694z M334.695,110.602c-0.492,0-0.937-0.338-1.053-0.839   c-0.134-0.582,0.229-1.163,0.811-1.297c0.414-0.095,0.829-0.181,1.248-0.258c1.087-0.199,2.163-0.335,3.198-0.406   c0.631-0.018,1.113,0.411,1.154,1.006c0.04,0.597-0.41,1.112-1.006,1.154c-0.955,0.064-1.95,0.191-2.956,0.374   c-0.386,0.071-0.769,0.15-1.152,0.239C334.858,110.594,334.775,110.602,334.695,110.602z M248.338,107.831   c-0.248,0-0.498-0.085-0.7-0.258c-1.047-0.89-2.179-1.7-3.367-2.407c-0.513-0.306-0.681-0.97-0.376-1.483   c0.306-0.513,0.972-0.681,1.483-0.376c1.291,0.769,2.523,1.65,3.661,2.618c0.455,0.387,0.51,1.07,0.124,1.524   C248.949,107.702,248.644,107.831,248.338,107.831z M298.366,107.032c-0.233,0-0.469-0.075-0.667-0.231   c-1.13-0.887-2.288-1.719-3.44-2.471c-0.5-0.326-0.641-0.996-0.314-1.497c0.327-0.5,0.998-0.638,1.497-0.314   c1.204,0.786,2.413,1.654,3.592,2.581c0.47,0.369,0.553,1.048,0.183,1.518C299.004,106.89,298.687,107.032,298.366,107.032z    M211.679,105.671c-0.382,0-0.753-0.203-0.95-0.562c-0.287-0.524-0.095-1.181,0.429-1.468c1.305-0.715,2.659-1.355,4.027-1.903   c0.549-0.223,1.184,0.048,1.406,0.603c0.222,0.555-0.049,1.184-0.603,1.406c-1.286,0.514-2.562,1.117-3.791,1.791   C212.033,105.629,211.854,105.671,211.679,105.671z M262.949,105.276c-0.322,0-0.641-0.144-0.855-0.417   c-0.367-0.472-0.282-1.152,0.189-1.518c1.184-0.921,2.414-1.774,3.657-2.534c0.508-0.312,1.175-0.15,1.487,0.359   c0.312,0.509,0.151,1.175-0.359,1.487c-1.174,0.717-2.337,1.523-3.457,2.395C263.415,105.202,263.18,105.276,262.949,105.276z    M240.946,103.416c-0.133,0-0.267-0.024-0.397-0.076c-1.262-0.499-2.599-0.914-3.974-1.236c-0.582-0.136-0.943-0.717-0.807-1.299   c0.135-0.581,0.72-0.946,1.299-0.807c1.478,0.345,2.917,0.793,4.276,1.331c0.556,0.22,0.828,0.847,0.609,1.403   C241.784,103.158,241.377,103.416,240.946,103.416z M219.69,102.464c-0.479,0-0.917-0.32-1.045-0.805   c-0.153-0.578,0.192-1.171,0.769-1.323c1.425-0.377,2.895-0.671,4.366-0.874c0.583-0.096,1.139,0.331,1.219,0.923   c0.082,0.592-0.332,1.138-0.923,1.219c-1.385,0.192-2.768,0.469-4.109,0.823C219.875,102.452,219.782,102.464,219.69,102.464z    M291.112,102.325c-0.167,0-0.336-0.038-0.494-0.12c-1.284-0.66-2.573-1.23-3.834-1.69c-0.561-0.206-0.849-0.827-0.644-1.388   c0.205-0.561,0.828-0.848,1.388-0.644c1.345,0.492,2.718,1.098,4.081,1.8c0.531,0.274,0.74,0.925,0.466,1.457   C291.884,102.112,291.504,102.325,291.112,102.325z M232.557,101.442c-0.035,0-0.07-0.002-0.106-0.005   c-1.125-0.109-2.289-0.164-3.46-0.164l-0.56,0.004l-0.195-1.08v-1.082l0.755-0.006c1.24,0,2.474,0.058,3.669,0.174   c0.594,0.057,1.03,0.586,0.972,1.181C233.579,101.024,233.108,101.442,232.557,101.442z M270.326,100.78   c-0.412,0-0.805-0.236-0.986-0.635c-0.247-0.543-0.006-1.184,0.538-1.431c0.273-0.125,0.547-0.245,0.823-0.362   c1.12-0.476,2.289-0.848,3.479-1.108c0.578-0.13,1.16,0.244,1.288,0.827c0.127,0.584-0.243,1.16-0.827,1.288   c-1.058,0.23-2.098,0.561-3.092,0.984l-0.776,0.341C270.627,100.749,270.475,100.78,270.326,100.78z M283.001,99.4   c-0.07,0-0.142-0.006-0.212-0.021c-1.387-0.277-2.764-0.423-4.091-0.433c-0.598-0.005-1.079-0.493-1.073-1.09   c0.005-0.595,0.488-1.073,1.082-1.073c0.003,0,0.005,0,0.008,0c1.464,0.012,2.977,0.172,4.496,0.475   c0.586,0.116,0.967,0.687,0.849,1.272C283.958,99.044,283.506,99.4,283.001,99.4z"/>
	<path style="fill:#241726;" d="M248.523,498.985c-0.013,0-0.024,0-0.036-0.001c-0.505-0.016-1.027-0.049-1.565-0.097   c-0.975-0.089-1.933-0.212-2.876-0.366c-0.59-0.097-0.99-0.653-0.894-1.242c0.096-0.591,0.649-0.995,1.242-0.894   c0.894,0.147,1.801,0.262,2.722,0.347c0.494,0.044,0.974,0.075,1.439,0.091c0.598,0.019,1.066,0.519,1.046,1.116   C249.584,498.523,249.104,498.985,248.523,498.985z M252.801,498.692c-0.509,0-0.963-0.361-1.062-0.88   c-0.112-0.586,0.274-1.153,0.861-1.265c1.361-0.259,2.604-0.703,3.693-1.318c0.518-0.293,1.18-0.112,1.474,0.409   c0.295,0.52,0.111,1.18-0.409,1.474c-1.295,0.733-2.76,1.258-4.355,1.561C252.936,498.686,252.867,498.692,252.801,498.692z    M184.346,498.224c-0.019,0-0.037,0-0.056-0.001c-1.504-0.076-2.997-0.251-4.436-0.522c-0.587-0.11-0.974-0.675-0.863-1.262   c0.11-0.587,0.68-0.972,1.262-0.863c1.343,0.251,2.738,0.415,4.147,0.486c0.596,0.031,1.055,0.539,1.026,1.136   C185.397,497.775,184.919,498.224,184.346,498.224z M188.667,498.171c-0.562,0-1.036-0.434-1.078-1.004   c-0.043-0.596,0.405-1.115,1-1.157c1.362-0.098,2.765-0.279,4.173-0.537c0.592-0.11,1.152,0.282,1.258,0.869   c0.108,0.587-0.281,1.15-0.869,1.258c-1.484,0.272-2.966,0.463-4.405,0.566C188.72,498.17,188.694,498.171,188.667,498.171z    M240,497.603c-0.097,0-0.194-0.013-0.292-0.04c-1.42-0.395-2.834-0.875-4.207-1.423c-0.555-0.222-0.825-0.852-0.603-1.406   c0.222-0.557,0.854-0.827,1.406-0.603c1.3,0.52,2.641,0.974,3.985,1.349c0.576,0.161,0.912,0.756,0.751,1.332   C240.907,497.29,240.473,497.603,240,497.603z M197.179,496.687c-0.481,0-0.919-0.322-1.046-0.809   c-0.151-0.578,0.195-1.168,0.774-1.32c1.374-0.358,2.74-0.771,4.059-1.228c0.563-0.198,1.18,0.105,1.377,0.669   c0.195,0.565-0.105,1.181-0.669,1.377c-1.372,0.474-2.792,0.903-4.222,1.276C197.362,496.675,197.27,496.687,197.179,496.687z    M175.876,496.626c-0.116,0-0.233-0.018-0.349-0.058c-1.414-0.482-2.802-1.071-4.123-1.751c-0.531-0.274-0.741-0.925-0.468-1.457   c0.274-0.53,0.924-0.742,1.457-0.468c1.229,0.633,2.519,1.18,3.832,1.628c0.566,0.192,0.868,0.807,0.675,1.372   C176.746,496.343,176.326,496.626,175.876,496.626z M260.116,494.517c-0.249,0-0.499-0.086-0.703-0.259   c-0.454-0.389-0.508-1.071-0.12-1.526c0.807-0.944,1.524-2.056,2.193-3.396c0.268-0.532,0.914-0.753,1.45-0.485   c0.535,0.266,0.752,0.916,0.485,1.451c-0.748,1.5-1.56,2.755-2.483,3.836C260.725,494.388,260.422,494.517,260.116,494.517z    M231.977,494.401c-0.17,0-0.343-0.04-0.505-0.126c-1.296-0.686-2.579-1.451-3.81-2.273c-0.497-0.332-0.631-1.004-0.298-1.5   c0.332-0.495,1.004-0.629,1.5-0.298c1.169,0.782,2.388,1.508,3.619,2.159c0.528,0.279,0.73,0.934,0.45,1.462   C232.741,494.192,232.366,494.401,231.977,494.401z M205.344,493.847c-0.414,0-0.81-0.239-0.989-0.641   c-0.244-0.546,0.002-1.185,0.547-1.428c1.297-0.578,2.569-1.215,3.78-1.892c0.521-0.292,1.18-0.104,1.473,0.416   c0.292,0.522,0.105,1.181-0.416,1.473c-1.268,0.709-2.599,1.374-3.955,1.979C205.64,493.818,205.491,493.847,205.344,493.847z    M168.208,492.685c-0.218,0-0.436-0.066-0.626-0.201c-1.199-0.855-2.36-1.812-3.451-2.847c-0.434-0.411-0.452-1.096-0.041-1.529   c0.411-0.435,1.096-0.452,1.529-0.041c1.019,0.966,2.102,1.858,3.219,2.655c0.487,0.347,0.6,1.023,0.254,1.509   C168.879,492.528,168.546,492.685,168.208,492.685z M212.879,489.622c-0.342,0-0.679-0.162-0.89-0.465   c-0.341-0.49-0.22-1.164,0.272-1.505c1.161-0.807,2.281-1.676,3.327-2.581c0.452-0.388,1.135-0.341,1.527,0.111   c0.39,0.452,0.341,1.136-0.111,1.527c-1.104,0.954-2.284,1.869-3.508,2.72C213.307,489.559,213.092,489.622,212.879,489.622z    M224.794,489.598c-0.243,0-0.487-0.081-0.689-0.248c-1.139-0.942-2.239-1.952-3.27-3.001c-0.418-0.427-0.412-1.111,0.014-1.531   c0.427-0.418,1.11-0.413,1.531,0.014c0.978,0.997,2.023,1.957,3.105,2.851c0.461,0.381,0.524,1.063,0.144,1.523   C225.415,489.465,225.106,489.598,224.794,489.598z M264.091,486.897c-0.116,0-0.233-0.018-0.35-0.058   c-0.565-0.193-0.867-0.808-0.674-1.373c0.449-1.314,0.853-2.685,1.243-4.086c0.161-0.577,0.76-0.912,1.332-0.751   c0.576,0.16,0.912,0.756,0.751,1.332c-0.401,1.441-0.818,2.852-1.279,4.205C264.961,486.614,264.541,486.897,264.091,486.897z    M161.945,486.754c-0.317,0-0.63-0.138-0.844-0.404c-0.93-1.155-1.794-2.383-2.568-3.651c-0.312-0.51-0.15-1.176,0.359-1.487   c0.51-0.312,1.177-0.15,1.487,0.359c0.726,1.189,1.536,2.34,2.408,3.423c0.374,0.466,0.301,1.146-0.165,1.521   C162.422,486.676,162.182,486.754,161.945,486.754z M140.641,484.07c-0.598,0-1.157-0.485-1.157-1.083   c0-0.597,0.41-1.082,1.008-1.082c0.007,0,0.165,0.001,0.172,0.001c1.299,0,2.637-0.113,3.951-0.337   c0.592-0.095,1.147,0.296,1.248,0.884c0.1,0.589-0.296,1.147-0.884,1.248C143.545,483.946,142.086,484.07,140.641,484.07z    M219.401,483.962c-0.262,0-0.524-0.094-0.732-0.285c-0.093-0.086-0.168-0.184-0.224-0.289c-0.209-0.06-0.404-0.185-0.549-0.369   c-0.938-1.189-1.797-2.417-2.553-3.653c-0.312-0.509-0.151-1.175,0.359-1.487c0.509-0.312,1.174-0.15,1.487,0.359   c0.639,1.045,1.358,2.085,2.139,3.1c0.687-0.797,1.328-1.613,1.913-2.44c0.347-0.488,1.022-0.601,1.509-0.258   c0.487,0.345,0.602,1.022,0.258,1.509c-0.84,1.185-1.785,2.352-2.81,3.465C219.984,483.845,219.693,483.962,219.401,483.962z    M136.191,483.664c-0.063,0-0.128-0.005-0.192-0.017c-0.337-0.061-0.676-0.129-1.015-0.204c-1.164-0.259-2.26-0.537-3.293-0.83   c-0.575-0.164-0.909-0.762-0.745-1.336c0.163-0.575,0.759-0.914,1.336-0.745c0.995,0.283,2.051,0.55,3.169,0.799   c0.311,0.069,0.62,0.132,0.93,0.187c0.588,0.106,0.979,0.669,0.874,1.256C137.161,483.297,136.704,483.664,136.191,483.664z    M148.981,482.632c-0.447,0-0.865-0.279-1.022-0.725c-0.196-0.564,0.1-1.181,0.665-1.379c1.29-0.45,2.568-1.014,3.799-1.676   c0.531-0.284,1.182-0.086,1.465,0.441c0.283,0.527,0.086,1.182-0.441,1.465c-1.331,0.715-2.714,1.325-4.11,1.813   C149.22,482.613,149.099,482.632,148.981,482.632z M127.889,481.275c-0.132,0-0.267-0.024-0.397-0.075   c-1.459-0.576-2.819-1.218-4.041-1.908c-0.521-0.294-0.705-0.954-0.411-1.474c0.293-0.521,0.952-0.705,1.474-0.411   c1.137,0.641,2.407,1.24,3.773,1.78c0.556,0.219,0.828,0.847,0.609,1.403C128.728,481.016,128.32,481.275,127.889,481.275z    M157.446,479.386c-0.415,0-0.811-0.24-0.99-0.643c-0.029-0.064-0.057-0.129-0.086-0.193c-0.253-0.052-0.488-0.193-0.654-0.416   c-0.282-0.382-0.277-0.888-0.021-1.259c-0.289-0.781-0.546-1.564-0.766-2.341c-0.163-0.576,0.171-1.173,0.746-1.335   c0.572-0.166,1.173,0.17,1.335,0.746c0.138,0.487,0.291,0.975,0.458,1.464c0.567-0.482,1.116-0.985,1.639-1.503   c0.425-0.42,1.109-0.418,1.53,0.006c0.42,0.425,0.418,1.109-0.006,1.53c-0.738,0.733-1.522,1.435-2.341,2.096   c0.048,0.111,0.095,0.22,0.144,0.33c0.242,0.546-0.004,1.185-0.55,1.427C157.741,479.356,157.592,479.386,157.446,479.386z    M266.495,478.571c-0.096,0-0.192-0.013-0.289-0.039c-0.576-0.16-0.914-0.754-0.754-1.331c0.389-1.407,0.793-2.815,1.242-4.2   c0.184-0.567,0.792-0.877,1.363-0.695c0.568,0.184,0.879,0.794,0.695,1.363c-0.438,1.353-0.835,2.732-1.215,4.11   C267.405,478.256,266.97,478.571,266.495,478.571z M120.437,476.97c-0.251,0-0.503-0.087-0.708-0.263   c-1.229-1.063-2.256-2.226-3.052-3.46c-0.324-0.503-0.181-1.172,0.321-1.496c0.502-0.326,1.171-0.181,1.496,0.321   c0.686,1.062,1.577,2.07,2.651,2.997c0.451,0.391,0.502,1.074,0.111,1.527C121.041,476.843,120.74,476.97,120.437,476.97z    M224.365,476.906c-0.165,0-0.332-0.037-0.488-0.117c-0.532-0.269-0.746-0.921-0.475-1.454c0.651-1.285,1.166-2.571,1.531-3.825   c0.166-0.573,0.755-0.906,1.341-0.736c0.574,0.167,0.903,0.767,0.736,1.341c-0.401,1.383-0.967,2.795-1.679,4.199   C225.141,476.69,224.761,476.906,224.365,476.906z M214.272,476.044c-0.42,0-0.82-0.246-0.995-0.657   c-0.633-1.485-1.098-2.94-1.381-4.324c-0.12-0.585,0.257-1.157,0.843-1.276c0.585-0.12,1.157,0.258,1.276,0.843   c0.255,1.241,0.676,2.557,1.252,3.909c0.235,0.549-0.021,1.184-0.57,1.419C214.559,476.017,214.414,476.044,214.272,476.044z    M318.987,474.473c-0.08,0-0.162-0.008-0.244-0.027c-0.582-0.134-0.946-0.715-0.811-1.297c0,0,0.108-0.499,0.108-1.298   c0-0.546-0.05-1.104-0.147-1.656c-0.105-0.588,0.288-1.149,0.877-1.253c0.588-0.106,1.149,0.288,1.253,0.877   c0.12,0.676,0.181,1.361,0.181,2.033c0,1.047-0.146,1.711-0.163,1.784C319.925,474.135,319.479,474.473,318.987,474.473z    M162.706,472.488c-0.223,0-0.449-0.069-0.642-0.212c-0.48-0.355-0.582-1.032-0.226-1.513c0.871-1.178,1.586-2.361,2.125-3.515   c0.254-0.542,0.898-0.771,1.438-0.523c0.542,0.253,0.775,0.897,0.523,1.438c-0.6,1.285-1.389,2.593-2.346,3.887   C163.366,472.336,163.038,472.488,162.706,472.488z M155.14,471.076c-0.547,0-1.017-0.414-1.075-0.97   c-0.075-0.73-0.113-1.443-0.113-2.131c0.001-0.863,0.06-1.689,0.175-2.458c0.091-0.59,0.634-0.98,1.231-0.91   c0.591,0.089,0.998,0.64,0.91,1.231c-0.1,0.665-0.151,1.384-0.152,2.138c0,0.615,0.034,1.252,0.102,1.906   c0.061,0.595-0.371,1.126-0.965,1.189C155.215,471.074,155.177,471.076,155.14,471.076z M269.236,470.362   c-0.144,0-0.291-0.029-0.431-0.09c-0.547-0.239-0.799-0.876-0.56-1.424c0.647-1.485,1.331-2.786,2.091-3.974   c0.322-0.503,0.989-0.651,1.495-0.329c0.503,0.322,0.65,0.991,0.329,1.495c-0.698,1.091-1.33,2.292-1.93,3.672   C270.051,470.119,269.654,470.362,269.236,470.362z M115.929,469.771c-0.501,0-0.951-0.35-1.058-0.86   c-0.169-0.804-0.255-1.621-0.255-2.427c0-1.404,0.257-2.302,0.286-2.399c0.171-0.573,0.774-0.897,1.347-0.726   c0.57,0.171,0.895,0.771,0.727,1.342l0,0c-0.001,0.006-0.197,0.696-0.197,1.783c0,0.657,0.07,1.325,0.208,1.983   c0.123,0.584-0.251,1.158-0.837,1.28C116.077,469.764,116.003,469.771,115.929,469.771z M226.649,468.57   c-0.598,0-1.082-0.42-1.082-1.018v-0.128c0-1.398-0.259-2.592-0.769-3.552c-0.281-0.527-0.08-1.182,0.447-1.463   c0.527-0.283,1.183-0.08,1.463,0.447c0.678,1.275,1.023,2.812,1.023,4.568C227.731,468.022,227.247,468.57,226.649,468.57z    M212.744,467.63c-0.049,0-0.099-0.003-0.149-0.011c-0.592-0.081-1.006-0.628-0.923-1.219c0.248-1.801,0.928-3.308,2.017-4.476   c0.409-0.438,1.094-0.462,1.529-0.054c0.437,0.407,0.462,1.091,0.054,1.529c-0.78,0.837-1.27,1.946-1.457,3.297   C213.739,467.238,213.276,467.63,212.744,467.63z M317.405,467.078c-0.36,0-0.712-0.18-0.918-0.507   c-0.669-1.068-1.556-2.061-2.635-2.951c-0.462-0.379-0.527-1.062-0.147-1.522c0.378-0.462,1.059-0.527,1.522-0.147   c1.259,1.037,2.3,2.205,3.093,3.47c0.317,0.507,0.164,1.174-0.342,1.492C317.8,467.025,317.602,467.078,317.405,467.078z    M166.111,464.648c-0.019,0-0.037,0-0.056-0.001c-0.597-0.031-1.055-0.539-1.026-1.136l0.01-0.322c0-1.159-0.388-1.98-1.152-2.43   c-0.514-0.303-0.686-0.966-0.382-1.481c0.301-0.516,0.962-0.687,1.481-0.382c1.449,0.854,2.216,2.341,2.216,4.303l-0.012,0.423   C167.161,464.199,166.684,464.648,166.111,464.648z M273.937,463.175c-0.279,0-0.557-0.107-0.769-0.32   c-0.42-0.425-0.416-1.11,0.007-1.531c1.086-1.074,2.305-2.009,3.626-2.778c0.513-0.301,1.178-0.127,1.479,0.391   c0.3,0.516,0.126,1.178-0.391,1.479c-1.161,0.676-2.235,1.5-3.19,2.447C274.487,463.07,274.212,463.175,273.937,463.175z    M156.69,462.743c-0.218,0-0.436-0.065-0.628-0.201c-0.486-0.348-0.599-1.023-0.252-1.51c1.033-1.447,2.486-2.394,4.2-2.736   c0.588-0.121,1.156,0.263,1.273,0.848c0.117,0.586-0.263,1.156-0.848,1.273c-1.183,0.237-2.146,0.866-2.863,1.872   C157.361,462.585,157.028,462.743,156.69,462.743z M222.508,461.769c-0.104,0-0.209-0.015-0.313-0.046   c-0.921-0.277-2.014-0.321-3.27-0.114c-0.158,0.026-0.314,0.057-0.464,0.09c-0.588,0.119-1.161-0.241-1.289-0.824   c-0.129-0.583,0.241-1.16,0.824-1.289c0.186-0.041,0.377-0.078,0.574-0.111c1.555-0.259,3.005-0.2,4.25,0.177   c0.573,0.173,0.896,0.776,0.723,1.348C223.402,461.467,222.973,461.769,222.508,461.769z M310.904,461.55   c-0.162,0-0.326-0.036-0.482-0.113c-1.15-0.574-2.447-1.089-3.853-1.531c-0.57-0.18-0.887-0.787-0.708-1.356   c0.181-0.569,0.79-0.885,1.356-0.708c1.515,0.476,2.917,1.034,4.17,1.658c0.535,0.267,0.752,0.916,0.486,1.452   C311.683,461.33,311.301,461.55,310.904,461.55z M302.707,458.9c-0.07,0-0.141-0.006-0.211-0.021   c-1.312-0.26-2.72-0.476-4.186-0.645c-0.594-0.068-1.019-0.604-0.951-1.198s0.606-1.013,1.198-0.951   c1.523,0.175,2.99,0.401,4.359,0.673c0.586,0.115,0.967,0.685,0.85,1.271C303.665,458.544,303.213,458.9,302.707,458.9z    M281.285,458.86c-0.464,0-0.892-0.299-1.034-0.766c-0.175-0.57,0.147-1.176,0.718-1.35c1.363-0.417,2.841-0.723,4.395-0.91   c0.605-0.068,1.131,0.353,1.203,0.945c0.071,0.594-0.352,1.131-0.946,1.203c-1.427,0.171-2.78,0.45-4.021,0.829   C281.497,458.845,281.39,458.86,281.285,458.86z M294.128,457.886c-0.02,0-0.039,0-0.059-0.001   c-1.348-0.073-2.769-0.112-4.268-0.117c-0.597-0.002-1.08-0.488-1.078-1.086c0.002-0.596,0.486-1.078,1.082-1.078   c0.001,0,0.002,0,0.004,0c1.535,0.005,2.992,0.046,4.376,0.119c0.596,0.033,1.054,0.542,1.023,1.139   C295.176,457.439,294.698,457.886,294.128,457.886z"/>
	<g>
		<path style="fill:#E4B200;" d="M459.12,233.842c-1.92-0.768-11.755-1.468-26.711-2.078c-0.002-22.886-0.545-39.315-1.715-41.654    c-4.373-8.746-238.341,2.187-238.341,2.187s-15.306-39.359-21.866-45.919c-6.56-6.56-122.45,4.373-122.45,4.373    c-8.746,4.373,24.053,260.207,28.426,273.327c0.898,2.695,15.656,3.819,38.588,3.87c96.847,5.877,302.524,2.69,302.524,2.69    S470.053,238.215,459.12,233.842z"/>
		<path style="fill:#241726;" d="M76.463,425.159c-0.139,0-0.281-0.026-0.417-0.083c-0.551-0.231-0.811-0.865-0.581-1.416    c8.075-19.291,79.213-188.595,90.248-193.01c11.005-4.403,252.537-0.258,262.815-0.077c0.597,0.011,1.073,0.503,1.063,1.101    c-0.011,0.597-0.516,1.083-1.101,1.063c-86.9-1.511-253.486-3.469-261.974-0.077c-7.711,3.085-57.482,116.413-89.054,191.835    C77.287,424.909,76.885,425.159,76.463,425.159z"/>
		<g>
			<path style="fill:#241726;" d="M66.765,161.709c-0.327,0-0.652-0.148-0.864-0.43c-0.36-0.476-0.265-1.155,0.211-1.515     c1.829-1.382,6.471-3.22,10.935-0.285c0.5,0.329,0.638,0.999,0.311,1.498c-0.329,0.502-0.998,0.639-1.498,0.311     c-4.321-2.841-8.404,0.171-8.444,0.203C67.22,161.638,66.992,161.709,66.765,161.709z"/>
			<path style="fill:#241726;" d="M76.413,168.653c-0.327,0-0.652-0.148-0.864-0.43c-0.36-0.476-0.265-1.155,0.211-1.515     c1.83-1.381,6.469-3.219,10.935-0.285c0.5,0.329,0.638,0.999,0.311,1.498c-0.329,0.501-0.998,0.64-1.498,0.311     c-4.321-2.842-8.404,0.173-8.444,0.203C76.868,168.582,76.64,168.653,76.413,168.653z"/>
			<path style="fill:#241726;" d="M84.242,160.234c-0.327,0-0.652-0.148-0.864-0.43c-0.36-0.476-0.265-1.156,0.211-1.515     c1.829-1.383,6.47-3.219,10.935-0.285c0.5,0.329,0.638,0.998,0.311,1.498c-0.327,0.501-0.999,0.64-1.498,0.311     c-4.321-2.837-8.404,0.172-8.444,0.203C84.698,160.163,84.469,160.234,84.242,160.234z"/>
			<path style="fill:#241726;" d="M93.191,167.509c-0.327,0-0.652-0.148-0.864-0.43c-0.36-0.476-0.265-1.156,0.211-1.515     c1.83-1.382,6.471-3.22,10.935-0.285c0.5,0.329,0.638,0.998,0.311,1.498c-0.33,0.502-0.999,0.641-1.498,0.311     c-4.322-2.838-8.404,0.171-8.444,0.203C93.647,167.438,93.419,167.509,93.191,167.509z"/>
			<path style="fill:#241726;" d="M103.739,158.559c-0.327,0-0.652-0.148-0.864-0.43c-0.36-0.476-0.265-1.155,0.211-1.515     c1.83-1.381,6.469-3.221,10.935-0.285c0.5,0.329,0.638,0.999,0.311,1.498c-0.326,0.502-0.998,0.641-1.498,0.311     c-4.322-2.84-8.404,0.172-8.444,0.203C104.194,158.489,103.966,158.559,103.739,158.559z"/>
			<path style="fill:#241726;" d="M109.192,167.487c-0.327,0-0.652-0.148-0.864-0.43c-0.36-0.476-0.265-1.155,0.211-1.515     c1.829-1.382,6.47-3.221,10.935-0.285c0.5,0.329,0.638,0.999,0.311,1.498c-0.326,0.502-0.998,0.639-1.498,0.311     c-4.322-2.84-8.404,0.171-8.444,0.203C109.648,167.417,109.419,167.487,109.192,167.487z"/>
			<path style="fill:#241726;" d="M119.467,161.307c-0.327,0-0.652-0.148-0.864-0.43c-0.36-0.476-0.265-1.156,0.211-1.515     c1.83-1.382,6.471-3.221,10.935-0.285c0.5,0.329,0.638,0.998,0.311,1.498c-0.329,0.503-0.997,0.64-1.498,0.311     c-4.321-2.837-8.404,0.172-8.444,0.203C119.923,161.237,119.694,161.307,119.467,161.307z"/>
		</g>
		<g>
			<path style="fill:#241726;" d="M358.864,246.131c-0.327,0-0.652-0.148-0.864-0.43c-0.36-0.476-0.265-1.156,0.211-1.515     c1.829-1.382,6.47-3.22,10.935-0.285c0.5,0.329,0.638,0.998,0.311,1.498c-0.327,0.501-0.999,0.641-1.498,0.311     c-4.32-2.837-8.403,0.172-8.444,0.203C359.319,246.06,359.091,246.131,358.864,246.131z"/>
			<path style="fill:#241726;" d="M368.513,253.075c-0.327,0-0.652-0.148-0.864-0.43c-0.36-0.476-0.265-1.156,0.211-1.515     c1.828-1.381,6.471-3.22,10.935-0.285c0.5,0.329,0.638,0.998,0.311,1.498c-0.327,0.502-0.999,0.639-1.498,0.311     c-4.319-2.837-8.403,0.172-8.444,0.203C368.968,253.004,368.74,253.075,368.513,253.075z"/>
			<path style="fill:#241726;" d="M376.342,244.655c-0.329,0-0.654-0.149-0.866-0.432c-0.357-0.478-0.263-1.152,0.212-1.511     c1.83-1.383,6.47-3.22,10.936-0.285c0.5,0.329,0.638,0.999,0.311,1.498c-0.329,0.502-0.997,0.641-1.498,0.311     c-4.29-2.818-8.283,0.081-8.448,0.205C376.794,244.585,376.567,244.655,376.342,244.655z"/>
			<path style="fill:#241726;" d="M385.29,251.931c-0.327,0-0.652-0.148-0.864-0.43c-0.36-0.478-0.265-1.156,0.211-1.515     c1.828-1.383,6.468-3.22,10.936-0.284c0.5,0.329,0.638,0.999,0.311,1.498c-0.328,0.502-0.997,0.639-1.498,0.311     c-4.32-2.838-8.403,0.172-8.445,0.202C385.745,251.86,385.517,251.931,385.29,251.931z"/>
			<path style="fill:#241726;" d="M395.838,242.982c-0.327,0-0.652-0.148-0.864-0.43c-0.36-0.476-0.265-1.155,0.211-1.515     c1.83-1.381,6.469-3.219,10.935-0.285c0.5,0.329,0.638,0.999,0.311,1.498c-0.329,0.502-0.998,0.64-1.498,0.311     c-4.321-2.842-8.403,0.173-8.444,0.203C396.294,242.911,396.066,242.982,395.838,242.982z"/>
			<path style="fill:#241726;" d="M401.292,251.91c-0.328,0-0.652-0.148-0.864-0.43c-0.36-0.476-0.265-1.155,0.211-1.515     c1.83-1.382,6.469-3.221,10.935-0.285c0.5,0.329,0.638,0.999,0.311,1.498c-0.329,0.502-0.998,0.641-1.498,0.311     c-4.321-2.841-8.404,0.172-8.444,0.203C401.747,251.839,401.519,251.91,401.292,251.91z"/>
			<path style="fill:#241726;" d="M411.567,245.727c-0.329,0-0.654-0.149-0.866-0.432c-0.357-0.478-0.263-1.153,0.212-1.511     c1.829-1.381,6.471-3.217,10.936-0.285c0.5,0.329,0.638,0.998,0.311,1.498c-0.327,0.501-0.997,0.639-1.498,0.311     c-4.289-2.818-8.281,0.079-8.448,0.206C412.019,245.658,411.792,245.727,411.567,245.727z"/>
		</g>
		<g>
			<path style="fill:#241726;" d="M100.843,407.941c-0.327,0-0.652-0.148-0.864-0.43c-0.36-0.476-0.265-1.155,0.211-1.515     c1.829-1.383,6.471-3.219,10.935-0.285c0.5,0.329,0.638,0.999,0.311,1.498c-0.329,0.501-0.998,0.64-1.498,0.311     c-4.32-2.841-8.403,0.171-8.444,0.203C101.299,407.87,101.07,407.941,100.843,407.941z"/>
			<path style="fill:#241726;" d="M110.492,414.885c-0.327,0-0.652-0.148-0.864-0.43c-0.36-0.476-0.265-1.155,0.211-1.515     c1.83-1.381,6.469-3.219,10.935-0.285c0.5,0.329,0.638,0.999,0.311,1.498c-0.327,0.502-0.999,0.641-1.498,0.311     c-4.32-2.842-8.403,0.173-8.444,0.203C110.947,414.814,110.719,414.885,110.492,414.885z"/>
			<path style="fill:#241726;" d="M118.321,406.466c-0.327,0-0.652-0.148-0.864-0.43c-0.36-0.476-0.265-1.156,0.211-1.515     c1.829-1.381,6.47-3.219,10.935-0.285c0.5,0.329,0.638,0.998,0.311,1.498c-0.327,0.501-0.999,0.641-1.498,0.311     c-4.321-2.837-8.404,0.172-8.444,0.203C118.776,406.395,118.548,406.466,118.321,406.466z"/>
			<path style="fill:#241726;" d="M127.27,413.741c-0.327,0-0.652-0.148-0.864-0.43c-0.36-0.476-0.265-1.156,0.211-1.515     c1.83-1.382,6.471-3.22,10.935-0.285c0.5,0.329,0.638,0.998,0.311,1.498c-0.329,0.502-0.997,0.639-1.498,0.311     c-4.321-2.837-8.404,0.171-8.444,0.203C127.725,413.67,127.497,413.741,127.27,413.741z"/>
			<path style="fill:#241726;" d="M137.818,404.792c-0.327,0-0.652-0.148-0.864-0.43c-0.36-0.476-0.265-1.155,0.211-1.515     c1.83-1.382,6.469-3.221,10.935-0.285c0.5,0.329,0.638,0.999,0.311,1.498c-0.326,0.501-0.998,0.639-1.498,0.311     c-4.321-2.84-8.404,0.172-8.444,0.203C138.273,404.721,138.045,404.792,137.818,404.792z"/>
			<path style="fill:#241726;" d="M143.272,413.716c-0.329,0-0.654-0.149-0.866-0.432c-0.357-0.478-0.263-1.152,0.212-1.511     c1.83-1.382,6.468-3.218,10.935-0.284c0.5,0.329,0.638,0.999,0.311,1.498c-0.329,0.503-0.998,0.64-1.498,0.311     c-4.288-2.815-8.28,0.079-8.447,0.205C143.724,413.647,143.497,413.716,143.272,413.716z"/>
			<path style="fill:#241726;" d="M153.546,407.539c-0.327,0-0.652-0.148-0.864-0.43c-0.36-0.476-0.265-1.156,0.211-1.515     c1.83-1.38,6.471-3.22,10.935-0.285c0.5,0.329,0.638,0.998,0.311,1.498c-0.329,0.502-0.997,0.641-1.498,0.311     c-4.32-2.836-8.403,0.171-8.444,0.203C154.001,407.469,153.773,407.539,153.546,407.539z"/>
		</g>
	</g>
</g>















</svg>
