<svg id="Noodle" enable-background="new 0 0 256 256" viewBox="0 0 256 256" xmlns="http://www.w3.org/2000/svg"><g><g><path d="m24.87469 111.52489c-.54482-14.6936 28.36791-36.01611 94.28084-36.22742 58.90759-.18884 97.15861 14.87558 98.36858 31.87661 1.19696 16.81821-31.04475 38.43699-93.95393 38.63793-60.60679.19357-97.99385-15.36484-98.69549-34.28712z" fill="#c5c0bc"/><path d="m185.37546 83.30864c-3.39169 5.79259-8.47292 11.75032-15.54852 12.98248-1.71487.30486-3.0614.24136-12.18217-2.08324-15.9424-4.03964-18.25429-5.48772-34.18397-10.09895-6.41503-1.85467-9.10807-2.56604-13.07142-4.75093-2.08332-1.16873-3.95063-2.4136-5.57666-3.65849 4.57307-.25407 9.34943-.39379 14.34172-.4065 26.90513-.08893 49.49113 3.01062 66.22102 8.01563z" fill="#ddd6d3"/><path d="m122.47797 146.7663c-57.32067 0-97.78499-14.42491-98.55536-35.20631-.15941-4.29906 1.98237-8.88841 6.19274-13.27184 14.27295-14.85972 47.5583-23.81017 89.03738-23.94352 28.06084-.11289 52.69906 3.20988 71.13338 9.54404 17.54112 6.02713 27.55223 14.27232 28.18861 23.21781.33867 4.75806-1.82234 9.79276-6.24731 14.56075-14.46834 15.58419-47.61041 24.96633-88.65405 25.09783-.36409.00124-.73252.00124-1.09539.00124zm-96.65113-35.27703c.61654 16.63554 33.99556 33.37157 96.61207 33.37157.37712 0 .74928 0 1.12826-.00124 47.71772-.15259 76.36533-12.7502 87.26342-24.48874 4.05777-4.37101 6.04387-8.91136 5.74367-13.12917-1.07431-15.07806-35.17284-30.99347-96.28271-30.99347-.37961 0-.75177.00062-1.13261.00186-60.71664.19477-82.45325 17.92756-87.66969 23.35799-3.84379 4.00196-5.80198 8.1106-5.66241 11.8812z" fill="#300f0f"/></g><g><path d="m95.69637 97.98931c.2719-7.39277-.08956-21.10754-6.57291-33.23775-9.13397-17.08942-27.04726-24.63473-31.12681-18.37504-2.06186 3.16373-2.06639 7.10365 1.67591 15.46838-4.09821-3.80123-13.39547-11.14457-22.42497-14.8283-9.92716-4.04995-21.71502-5.941-25.21268 1.38543-3.76831 7.89333 10.84949 23.82031 12.74809 25.57433-15.50756-2.5252-21.3007 1.45749-22.97633 5.03181-3.62385 7.73008 5.19871 18.76559 17.1273 26.79073 10.17271 6.84385 17.99774 9.90459 26.48383 11.3911 16.75955-6.40024 33.51903-12.80046 50.27857-19.20069z" fill="#1bcc6b"/><path d="m95.55768 104.55911c.20802-5.65578-.06852-16.14819-5.02856-25.42833-6.98789-13.07414-19.25832-17.79823-22.66182-14.15237-1.97146 2.11185-2.73243 5.52927.13059 11.92867-3.13531-2.90811-9.35561-8.14395-16.26358-10.96217-7.59471-3.09838-14.80091-3.17712-17.47677 2.42791-2.88291 6.03874 5.5958 16.47345 7.04832 17.81534-11.86396-1.93188-14.56672 2.59514-15.84865 5.32964-2.7724 5.91385 2.248 12.87641 11.37389 19.01599 7.78257 5.23584 13.76905 7.57744 20.26128 8.71468 12.82179-4.89645 25.64352-9.7929 38.4653-14.68936z" fill="#16b155"/><path d="m25.13588 47.77561c2.66211-.05219 5.31002.48954 7.81873 1.37532 2.50494.89752 4.90866 2.12752 6.98716 3.78823.38715.30933.45027.87402.14094 1.26118-.26198.3279-.70699.42338-1.07224.25715l-.00584-.00291c-2.30777-1.05032-4.56617-2.08637-6.90683-2.95252-2.33526-.88293-4.71442-1.60544-7.15491-2.40168-.35698-.11393-.55401-.49572-.44009-.8527.09004-.28206.35294-.46423.63308-.47207z" fill="#fff" opacity=".7"/><path d="m45.41795 118.14287c-.05521 0-.10979-.00496-.16437-.01426-9.19297-1.61083-17.22294-5.06138-26.85133-11.53944-10.72379-7.21431-21.73041-18.87222-17.45864-27.98517 1.45887-3.11002 6.16421-7.83459 21.29933-5.95642-4.37288-4.87715-14.53718-17.38917-11.06741-24.65621 3.16088-6.62568 13.04358-7.31976 26.43203-1.85707 7.35946 3.00209 14.8498 8.36925 19.655 12.3464-2.12627-5.79701-2.09836-9.50372-.06389-12.62428 1.19091-1.82668 3.32773-2.72669 6.18592-2.60264 7.71426.33495 19.7654 8.29979 26.57903 21.04874 4.8511 9.07635 7.16283 20.73737 6.68461 33.72202-.01427.38146-.25493.71826-.6122.85472l-50.27817 19.20097c-.10917.04155-.22392.06264-.33991.06264zm-29.55755-44.01658c-9.49132 0-12.35136 3.49458-13.1912 5.28653-3.51939 7.50771 5.89997 18.26498 16.79619 25.59592 9.30276 6.25787 17.05298 9.61598 25.8589 11.19704l49.44081-18.88091c.36967-12.39417-1.867-23.49073-6.48241-32.12421-6.49294-12.14916-17.8004-19.7313-24.98122-20.04329-1.49857-.06389-3.49334.18484-4.50624 1.73985-1.69705 2.60202-2.04874 6.07365 1.74667 14.55889.18484.4131.05334.89938-.31447 1.16362-.36844.26299-.87085.23136-1.20332-.07629-4.01188-3.72222-13.18934-10.99484-22.13606-14.64511-9.53164-3.88845-20.84095-5.69033-23.99315.91427-3.42077 7.1647 10.44032 22.52932 12.53434 24.46392.30889.28532.39449.73936.21027 1.1171-.18484.37836-.59422.59422-1.00979.52289-3.41891-.557-6.31555-.79022-8.76932-.79022zm79.83571 23.86289h.01241z" fill="#300f0f"/></g><g><g><path d="m60.94616 90.02616c-.31311-4.86156 1.46865-12.48706 7.65427-15.43181 6.68058-3.18037 14.37514 1.06178 18.21619 5.52414 5.10458 5.93028 6.1869 15.48322 1.41007 21.98996-2.80243 3.81737-8.29235 7.50004-13.93537 6.40847-6.20813-1.2009-9.32764-7.54682-11.08866-11.12926-.92575-1.88323-2.05115-4.17259-2.2565-7.3615z" fill="#f4ede9"/><path d="m78.41732 81.06976c3.12592 1.22392 5.67256 4.17604 6.58115 6.52341.94473 2.44073 1.6115 7.89121-1.77916 11.84087-2.73367 3.18436-7.84233 3.61317-11.36393 2.00429-6.08089-2.77814-8.27797-12.01986-4.42841-17.26001 2.24085-3.05034 7.18367-4.59897 10.99035-3.10856z" fill="#f22267"/><path d="m76.35622 109.66631c-.74246 0-1.49236-.06823-2.24599-.214-6.67345-1.29077-9.98381-8.02625-11.76211-11.64426-.95149-1.93399-2.13496-4.34125-2.35267-7.72045-.37464-5.81873 2.03013-13.41823 8.19558-16.35332 7.48537-3.56467 15.67227 1.49298 19.34735 5.76289 5.68288 6.60211 6.30935 16.56483 1.45638 23.17501-2.70188 3.68067-7.47607 6.99413-12.63854 6.99413zm-2.7453-35.23981c-1.53516 0-3.08768.30766-4.60114 1.0284-6.17599 2.94006-7.35326 10.77713-7.1126 14.50989.19291 3.00147 1.23867 5.12712 2.16039 7.00219 1.74729 3.55475 4.67123 9.50372 10.41489 10.61462 5.14635.99863 10.33984-2.43206 12.98651-6.03705 4.26992-5.81624 3.67074-14.95463-1.36459-20.80436-2.52881-2.93882-7.40348-6.31369-12.48346-6.31369z" fill="#300f0f"/></g><g><path d="m39.75893 104.88122c-.83241-2.12186-3.63747-9.27205-.45169-16.09132 2.74133-5.86792 8.63907-8.75193 14.18568-8.52154 7.88227.32735 13.92701 6.89726 16.56943 12.96445 3.42476 7.86349 2.85307 18.82899-3.66934 23.65405-5.67699 4.19967-12.90364 1.55892-14.0657 1.13426-8.41265-3.07413-11.92235-11.4932-12.56838-13.1399z" fill="#f4ede9"/><path d="m58.86346 120.17982c-2.90347 0-5.45586-.7499-6.86139-1.26286-8.40399-3.07094-12.17459-11.25349-13.13042-13.68803-2.5127-6.40425-2.6566-12.07038-.42799-16.84209 2.6994-5.7784 8.60247-9.33997 15.08922-9.07077 8.65085.35975 14.78157 7.51701 17.40281 13.53669 3.53924 8.12673 3.01945 19.6246-3.97653 24.80011-2.59827 1.9222-5.48872 2.52695-8.0957 2.52695zm-18.21784-15.64683c.88202 2.24722 4.35427 9.79649 12.00836 12.59327 2.38058.86899 8.4257 2.50835 13.17197-1.00546 6.15056-4.54965 6.53451-15.22506 3.36308-22.50761-2.59209-5.95084-8.46229-12.09085-15.73553-12.39292-5.66985-.23756-10.90924 2.89292-13.283 7.97291-1.99974 4.27983-1.83972 9.44107.47512 15.33981z" fill="#300f0f"/><path d="m63.85182 92.16312c-.29792-.34122-5.29034-7.52996-12.56126-5.65229-6.27674 1.62093-8.96641 10.06356-6.90803 16.6441 1.60616 5.13471 6.78186 11.26961 13.01712 11.1156 6.14436-.15179 9.12642-6.30698 9.38369-6.86097 2.4003-5.1692.54523-11.264-2.93152-15.24644z" fill="#f22267"/></g></g><g><path d="m66.09715 109.94029c.69035-1.37154 12.03252-23.0079 35.27905-25.14008 19.55047-1.7932 38.98724 10.99146 46.31614 31.5126-1.79352 2.53344-12.48407 17.11682-32.37537 19.87483-16.32178 2.26299-31.03485-4.5181-40.22491-13.64782-4.624-4.59371-7.39254-9.32778-8.99491-12.59953z" fill="#ffd255"/><path d="m147.68599 116.3112c-1.7903 2.54066-12.47957 17.11337-32.37063 19.87788-16.32347 2.26419-31.02779-4.51529-40.22958-13.6512-4.62054-4.59435-7.38506-9.32022-8.99104-12.59808.35538-.69773 3.48845-6.68739 9.57027-12.66388 9.24124 8.76727 23.577 15.11239 39.45293 12.914 9.99153-1.38229 17.65307-5.73962 23.03722-10.07059 4.05459 4.568 7.33243 10.03107 9.53083 16.19187z" fill="#f5b449"/><path d="m107.08127 89.25604c-1.28299.23059-2.51118.3569-3.72909.49076l-3.6174.42407c-2.41171.27037-4.76999.70409-7.34007.96506-.37554.0388-.7114-.23414-.7502-.60968-.02531-.2453.08444-.4751.26683-.61482 1.07746-.81721 2.28484-1.41339 3.53851-1.87337 1.25462-.46008 2.56219-.78331 3.88946-.95621 1.32638-.18327 2.67388-.20103 4.00492-.07521 1.33007.12582 2.64986.4068 3.89629.94263.34798.14961.50876.55296.35924.90086-.09385.21815-.28732.36277-.50434.40343z" fill="#fff" opacity=".7"/><path d="m107.49458 96.93236c-1.02523.24128-1.95509.35818-2.86607.48007l-2.66826.35795-2.66457.37089c-.9076.13249-1.83119.27993-2.87571.34718l-.02234.00144c-.39387.02531-.73373-.27342-.75912-.66737-.01189-.18423.04805-.35779.15459-.49172.69838-.87507 1.59964-1.51953 2.57458-2.00539.97189-.50249 2.03641-.81063 3.11813-.96923 1.08236-.15788 2.19043-.14334 3.26066.06709 1.06934.19412 2.11153.5695 3.0242 1.22192.32227.23036.39675.67838.1664 1.00065-.10501.1468-.25518.24225-.41805.28074z" fill="#fff" opacity=".7"/><g fill="#300f0f"><path d="m140.09665 120.44778c-.42178 0-.80759-.2816-.92049-.70773-4.23021-15.90673-18.65947-27.29358-34.3733-27.00205-13.12917.21833-25.32547 8.46601-31.071 21.01276-.21896.47823-.78402.68539-1.26348.46954-.47823-.21957-.6885-.78464-.46954-1.26348 6.04946-13.20919 18.91378-21.89354 32.77239-22.12428 16.57166-.29649 31.79485 11.6759 36.24589 28.4175.13521.50862-.16748 1.03027-.67609 1.16548-.08187.02234-.16375.03226-.24438.03226z"/><path d="m132.70306 121.82601c-.40689 0-.78401-.26299-.91055-.67237-3.5473-11.5109-14.16936-19.55513-25.8316-19.56196-.00434 0-.00868 0-.01303 0-10.27285 0-19.84728 6.1977-24.39445 15.79198-.22578.47636-.79208.68043-1.26906.45279-.47513-.22515-.67796-.79332-.4528-1.26906 4.8604-10.25549 15.11155-16.88117 26.11631-16.88117h.01427c12.48969.00682 23.86041 8.60433 27.65147 20.9067.15508.50241-.12653 1.03584-.63019 1.19091-.09305.02854-.18732.04218-.28037.04218z"/><path d="m88.21384 123.63595c-.08188 0-.16561-.01054-.24873-.03288-.508-.13708-.80883-.65996-.67175-1.16796 2.20257-8.16953 9.48698-14.13773 17.71357-14.51237 7.34644-.34053 14.37467 3.76874 17.90337 10.45583.24501.46582.06699 1.04205-.39821 1.28767-.4652.245-1.04205.06761-1.28767-.39821-3.18507-6.03829-9.51302-9.73632-16.13065-9.44231-7.40784.33804-13.9715 5.72692-15.96069 13.10561-.11475.42488-.49931.70462-.91924.70462z"/><path d="m109.0089 137.57396c-12.73841 0-25.30749-5.13829-34.58853-14.35793-3.72346-3.69926-6.81177-8.025-9.1787-12.85625-.1315-.26796-.12964-.58119.00434-.84728.48132-.95708 12.0679-23.4622 36.04306-25.66104 20.41978-1.87569 39.8732 11.34343 47.30026 32.14096.1042.29276.05956.61778-.11908.87148-2.89044 4.08073-13.8121 17.60378-33.02237 20.2672-2.14054.29647-4.29348.44286-6.43898.44286zm-41.84256-27.6217c2.24474 4.46654 5.13519 8.47284 8.59751 11.91159 10.4242 10.35597 25.158 15.3578 39.42227 13.37915 17.86305-2.4761 28.27235-14.73815 31.43944-19.07753-7.25711-19.70897-25.75656-32.20051-45.16283-30.41601-21.47362 1.96935-32.58879 21.02951-34.29639 24.2028z"/></g></g><g><path d="m119.03761 95.75533c19.90185-22.03217 46.14902-25.53078 52.55199-19.02336 8.75166 8.89422 1.46216 38.84693-14.05431 51.38757-26.54141 21.45089-58.78225-9.90833-38.49768-32.36421z" fill="#f4ede9"/><path d="m157.53316 128.11464c-13.73109 11.09879-29.00356 8.06236-37.70558-.58012 19.71315-2.07077 36.64876-12.19286 44.88051-27.84483 4.68132-8.9183 5.56076-17.74875 5.42912-24.06203.55713.31668 1.04625.68834 1.45482 1.10606 8.75267 8.88721 1.46353 38.84833-14.05887 51.38092z" fill="#ddd6d3"/><path d="m138.66135 136.22673c-7.75581 0-14.74497-3.28865-19.5049-8.01631-.26113-.25928-.34983-.64508-.22764-.99243s.43357-.59297.79953-.63143c19.72323-2.07107 36.22231-12.29182 44.13567-27.3401 3.70918-7.06608 5.49928-15.0061 5.32063-23.59866-.00743-.34238.16995-.66245.46521-.83798.29524-.17616.66119-.17863.95769-.01054.63391.36037 1.19463.7865 1.66603 1.26783 2.98596 3.0331 4.358 8.28304 3.96599 15.18102-.6823 11.97363-7.12065 28.73694-18.10806 37.60861l.00125-.00125c-6.47807 5.23629-13.22407 7.37124-19.4714 7.37124zm-16.65788-7.99399c8.27064 6.95567 22.13731 9.4814 34.93092-.85844 0 0 0 0 .00125-.00124 10.55444-8.52246 16.74347-24.67854 17.40094-36.23347.34735-6.10404-.80138-10.89746-3.23903-13.54414-.11165 8.15836-1.97368 15.73181-5.54642 22.53738-7.92949 15.0799-24.10975 25.48053-43.54766 28.09991z" fill="#300f0f"/><path d="m122.924 110.5394c.63584-13.38543 20.33156-22.57779 25.10019-18.86612 5.06688 3.94383-.2673 21.66859-13.58745 27.19791-4.86701 2.02034-11.84783-1.27771-11.51274-8.33179z" fill="#ff8150"/><path d="m134.44287 118.86504c-4.09402 1.69823-9.6625-.35538-11.14997-5.22612 4.50883 3.37996 23.56043-1.42457 22.99769-22.68185.69774.11851 1.27689.35545 1.73769.71091 5.06814 3.94925-.27649 21.66812-13.58541 27.19706z" fill="#f16942"/><path d="m132.45656 98.69045c-1.01274-.55153-3.66016 2.66735-3.8723 2.92825-1.85718 2.28381-3.61958 5.86198-2.76874 6.58465.81385.6912 4.1048-1.15686 5.75783-3.91539 1.30426-2.17654 1.72125-5.14106.88321-5.59751z" fill="#fff" opacity=".7"/><path d="m138.62662 136.29497c-8.04486 0-15.25298-3.58762-20.09415-8.70234-7.52259-7.94809-10.50297-21.0723-.20221-32.47591 14.51299-16.06614 32.05909-22.03248 42.67556-22.25887 5.10233-.11909 9.12041 1.0284 11.2628 3.20615 2.98845 3.03683 4.36047 8.28738 3.96722 15.18474-.68105 11.97115-7.11818 28.73446-18.10185 37.61172-6.52893 5.27598-13.26998 7.43327-19.50737 7.43451zm23.03668-61.53911c-.20345 0-.40938.00248-.61778.00683-10.23564.21895-27.19496 6.01534-41.30106 21.63178-9.48511 10.49987-6.74787 22.57708.17244 29.88815 8.0095 8.46167 23.0094 12.41649 37.01874 1.09663 10.55321-8.52928 16.73975-24.6866 17.39847-36.23844.35603-6.25539-.8597-11.13502-3.42264-13.74076-1.6648-1.69146-5.01422-2.64419-9.24817-2.64419zm-42.62594 20.99974h.01241z" fill="#300f0f"/></g><g><path d="m252.83014 62.3556c-6.80988 7.38127-75.6741 82.02766-94.94627 102.86039-3.93515 4.2538-8.34746-.73026-5.71239-4.98634 8.48669-13.70744 84.01457-102.1295 89.08942-107.97284 8.02917-9.24504 18.37911 2.71752 11.56924 10.09879z" fill="#ffa466"/><path d="m252.83374 62.35113c-6.8112 7.38189-75.68376 82.02952-94.95508 102.86376-2.74278 2.97667-5.72649 1.43982-6.37581-1.20615.99023-.00009 2.08084-.50269 3.13113-1.66811 18.95969-21.11497 64.403-72.12917 71.22836-79.49294 21.7178-23.43101 24.78517-31.03934 23.45047-33.72559 4.95957 1.32248 8.06796 8.295 3.52093 13.22903z" fill="#ee8d59"/><path d="m154.76222 167.7834c-.95769 0-1.8087-.3399-2.4451-.82495-1.79008-1.36211-2.73288-4.35922-.9552-7.22983 8.43437-13.62477 83.88606-102.00217 89.17941-108.09629 2.51704-2.89788 5.55882-4.15702 8.5696-3.54048 2.92393.59732 5.45338 2.9686 6.44456 6.04078 1.0135 3.14227.27541 6.3751-2.02579 8.86919-7.69379 8.3401-75.72832 82.08728-94.94666 102.86125-1.29758 1.40303-2.63983 1.92033-3.82082 1.92033zm92.87123-117.93557c-1.95755 0-3.93001 1.04887-5.65311 3.03372-5.2859 6.08605-80.62221 94.32019-88.99829 107.84943-1.14377 1.84592-.6488 3.84566.48877 4.71155 1.06438.81007 2.45378.48505 3.71292-.87457 19.21709-20.77148 87.25162-94.51804 94.94664-102.85815 0-.00062 0-.00062 0-.00062 1.82111-1.97369 2.40788-4.52236 1.61145-6.99164-.78278-2.42896-2.75026-4.29659-5.01299-4.75868-.36347-.07445-.72942-.11104-1.09539-.11104z" fill="#300f0f"/></g><g><path d="m228.51259 42.51882c-4.2686 7.42677-68.82841 115.35614-71.61795 120.27441s-9.18211 1.99127-6.62025-3.69698c2.56184-5.68826 60.70868-116.39238 64.83022-124.06488 4.90982-9.13994 18.27961-.98851 13.40798 7.48745z" fill="#ffa466"/><path d="m228.51558 42.51569c-4.27592 7.4273-68.8278 115.36021-71.62343 120.27661-1.50851 2.65781-4.06123 3.02037-5.68921 1.90016 1.00838-.31277 2.00298-1.08894 2.70877-2.4234 2.66597-4.99458 47.97156-84.9255 51.93964-92.5117 16.59673-31.72968 17.27448-36.57205 14.85547-38.70877.92038-.08758 1.85472.01097 2.75444.26475 4.38672 1.2374 7.94996 6.16518 5.05432 11.20235z" fill="#ee8d59"/><path d="m153.12596 166.23894c-.70215 0-1.37947-.16251-1.97617-.46519-1.93152-.98003-3.30231-3.60995-1.7442-7.06856 2.64233-5.86772 61.3183-117.53116 64.85878-124.1246 1.53329-2.85322 3.99327-4.45909 6.92589-4.52112 3.19562-.02667 6.49419 1.79753 8.18007 4.64021 1.55067 2.61567 1.53951 5.56131-.03101 8.29358-2.20442 3.83449-20.36955 34.27592-37.93674 63.715-16.62686 27.86237-32.332 54.18026-33.67921 56.55465-1.18347 2.08658-2.95868 2.97603-4.59741 2.97603zm68.23798-134.27525c-.04466 0-.08932 0-.13397.00124-1.5668.03287-3.75633.66989-5.28592 3.51753-3.54048 6.58909-62.16681 118.15517-64.8017 124.00427-1.0495 2.3322-.31882 3.98459.86961 4.58749 1.14377.5818 2.9016.28035 4.05406-1.75163 1.35713-2.39299 17.06725-28.71834 33.7003-56.59062 17.56346-29.43288 35.72487-59.86749 37.92061-63.68771 1.21324-2.11139 1.22937-4.37412.04466-6.37323-1.32241-2.23049-3.86797-3.70734-6.36765-3.70734z" fill="#300f0f"/></g><g><path d="m98.54997 134.4044c-3.38246-13.13841-13.10314-23.55964-25.57275-27.01185-15.66615-4.33716-33.22263 3.00346-42.18925 18.2739.74796 1.77271 8.47128 19.23831 27.6282 23.56117 14.75928 3.33049 30.43659-2.46473 40.1338-14.82322z" fill="#ffd255"/><path d="m98.54427 134.3987c-9.68878 12.36115-25.36723 18.1534-40.12424 14.82283-19.16697-4.31779-26.88113-21.78662-27.63149-23.55065 1.42175-2.42215 3.05409-4.6469 4.87074-6.64787 4.1072 4.35732 9.8731 8.55668 17.58726 10.39969 12.95346 3.08037 26.67054-1.64552 35.9117-12.16364 4.41004 4.67325 7.68789 10.57075 9.38603 17.13964z" fill="#f5b449"/><path d="m70.66151 120.29086c-1.09031.03543-2.07634-.02106-3.0463-.07256l-2.85771-.1251-2.86142-.07609c-.97229-.01406-1.95984-.01012-3.04027-.09554l-.01888-.00145c-.3876-.03069-.67693-.36967-.64632-.75727.01591-.20111.11674-.37731.26234-.49454.90254-.72112 1.95148-1.18754 3.04131-1.49229 1.09007-.31778 2.23285-.44151 3.36889-.41291 1.13628.02764 2.27038.22248 3.339.60502 1.0695.36968 2.0871.90624 2.93774 1.6963.28635.26595.30291.71372.03696 1.00008-.13329.14342-.31215.21918-.49342.22562z" fill="#fff" opacity=".7"/><path d="m71.99021 111.55034c-1.45043.06268-2.81714.03938-4.17196.05672-1.35385.03206-2.68288.05183-4.01118.13129-1.32863.06893-2.6501.18142-3.99809.28057-1.3471.11465-2.70594.24948-4.16682.29319l-.01117.00032c-.38157.01141-.70015-.28861-.71156-.67018-.00675-.22633.09915-.43291.26362-.56396 1.20119-.94456 2.57972-1.59618 4.01529-2.04765 1.43396-.46971 2.93863-.71301 4.44675-.7707 1.50812-.06066 3.02581.05914 4.49488.39314 1.4686.32227 2.90006.82919 4.19254 1.62615.32284.19902.42311.62213.22409.94497-.12334.19998-.33256.31456-.55062.32549z" fill="#fff" opacity=".7"/><g fill="#300f0f"><path d="m66.71355 151.10072c-2.84144 0-5.69218-.3089-8.50695-.94405-19.46086-4.39148-27.44989-22.11374-28.29655-24.11967-.11723-.27726-.09614-.59298.05582-.85287 9.12598-15.5414 26.9115-23.23952 43.26543-18.70972 12.69376 3.51443 22.74889 14.12533 26.24099 27.69303.07443.28656.01054.59174-.17305.82495-8.04733 10.2555-20.2182 16.10833-32.58569 16.10833zm-34.8571-25.36765c1.47189 3.26632 9.23825 18.60923 26.76945 22.56528 14.2072 3.20679 29.41365-2.33096 38.88139-14.11229-3.42883-12.69065-12.88789-22.58204-24.7846-25.87566-15.37268-4.25688-32.10622 2.90224-40.86624 17.42267z"/><path d="m92.34854 139.73248c-.45218 0-.85287-.32254-.93661-.78278-2.21993-12.28561-11.86383-21.80795-23.99748-23.69666-12.90774-2.01153-25.65173 5.07254-30.99967 17.2186-.21151.48256-.77472.69966-1.25604.48877-.48132-.21214-.70028-.77409-.48815-1.25542 5.69591-12.93628 19.2816-20.47252 33.03663-18.33508 12.93565 2.01339 23.21532 12.1566 25.5804 25.23988.09304.51854-.25059 1.01352-.76851 1.10779-.05706.00994-.11413.0149-.17057.0149z"/><path d="m83.84531 141.72354c-.44287 0-.83984-.31013-.93226-.76169-1.71317-8.36119-8.18379-14.79273-16.48357-16.38372-8.58449-1.64619-17.37428 2.34585-21.87866 9.93295-.26857.45279-.85287.60165-1.30566.33246-.45279-.26794-.60166-.85223-.33308-1.30504 4.91375-8.27559 14.51113-12.62675 23.87592-10.83233 9.06084 1.73799 16.12258 8.7532 17.99207 17.8736.10545.51482-.22702 1.01846-.74246 1.12392-.06453.01364-.12842.01985-.1923.01985z"/><path d="m78.14506 146.65094c-.42922 0-.81875-.29153-.92481-.72696-1.63255-6.69391-7.04498-11.7131-13.46846-12.49092-7.65595-.92172-12.98156 4.66563-13.56274 5.30576-.35479.38953-.95707.41682-1.34536.06575-.39014-.35355-.41992-.95522-.06637-1.34598.64756-.71455 6.58165-6.96808 15.20335-5.91611 7.20687.8721 13.27122 6.47063 15.09046 13.92995.12467.51109-.18856 1.02716-.69966 1.15121-.07569.0186-.15198.0273-.22641.0273z"/></g></g><g><path d="m129.17903 147.02252c.27823-2.27528 3.47447-25.02402 25.70753-34.97634 19.62521-8.78498 42.61934-2.48964 55.37289 14.6674-4.95537 5.92035-12.93378 13.98366-24.11099 19.52264-25.62452 12.69853-52.4331 2.57428-56.96943.7863z" fill="#ffd255"/><path d="m210.25513 126.71089c-4.94972 5.92386-12.92719 13.9803-24.10352 19.52243-25.6306 12.70334-52.43274 2.58012-56.97438.78981.09215-.71083.46071-3.43582 1.61916-7.16129 11.16324 1.7245 26.96019 2.2511 42.30952-4.00186 11.16316-4.54164 19.33499-8.79227 20.31149-14.98656.8092-5.13313-5.67299-9.36709-11.54413-11.96046 11.071 2.09314 21.29955 8.26712 28.38186 17.79793z" fill="#f5b449"/><path d="m169.40454 113.22618c-1.25607.40399-2.42601.67548-3.56551 1.0082-1.13876.31207-2.24225.62968-3.33337.97952l-3.28018 1.09136c-1.11964.36623-2.24805.75792-3.56093 1.07899l-.00699.00169c-.2187.05351-.43925-.08043-.49277-.29906-.02394-.09786-.01004-.19653.03181-.28001.62985-1.25246 1.60262-2.23695 2.6947-3.03561 1.09586-.80115 2.3488-1.37113 3.6489-1.74708 1.30171-.37321 2.65782-.55914 4.00516-.51117 1.34583.06435 2.68585.29495 3.92249.88921.22072.10606.3136.37096.20753.59167-.05463.11369-.15137.1934-.2625.22964z" fill="#fff" opacity=".7"/><path d="m159.92307 124.2517c.43396-.76523 1.03078-1.31682 1.68536-1.75375.65082-.45107 1.37869-.75189 2.12897-.95967.75221-.20151 1.52982-.3189 2.31747-.287.7841.01985 1.57504.14214 2.34293.50121.44424.2077.63603.73631.42825 1.18054-.07031.15049-.17749.27198-.30565.35875l-.0294.01961c-.66254.44561-1.29761.72779-1.92673.98514-.62575.26836-1.24884.46304-1.87708.64616-.62968.17813-1.26186.33497-1.94289.4129-.67685.09305-1.38359.14117-2.21831.04234l-.02419-.00289c-.42191-.0499-.72345-.43243-.67348-.85433.01232-.10364.0467-.20336.09475-.28901z" fill="#fff" opacity=".7"/><g fill="#300f0f"><path d="m137.53743 148.27852c-.04466 0-.08809-.00249-.13399-.0087-.52103-.07318-.88326-.55576-.81131-1.07678 1.92407-13.72525 12.01208-25.26468 25.70135-29.3969 16.15671-4.87964 33.52788 1.41235 42.24387 15.30074.27911.44534.14391 1.03336-.30145 1.31372-.44659.27911-1.03461.14391-1.31372-.30145-8.25946-13.16205-24.74118-19.12033-40.0779-14.48942-12.97969 3.91884-22.54419 14.84545-24.36406 27.8388-.06698.47511-.47511.81999-.94279.81999z"/><path d="m146.85507 148.3976c-.08064 0-.16252-.00992-.24315-.03101-.50986-.13399-.8138-.655-.67981-1.16362.42921-1.63254 4.63959-16.0773 20.09662-20.67348 11.36824-3.38293 23.43739.32005 30.73793 9.43425.32997.41061.26299 1.0098-.14763 1.33853-.40689.32999-1.01103.26547-1.33853-.14763-6.81425-8.50508-18.08325-11.95811-28.7084-8.79909-14.45842 4.29968-18.39586 17.80536-18.79655 19.33122-.11289.42799-.49871.71083-.92048.71083z"/><path d="m158.05087 148.86032c-.09801 0-.19725-.01489-.29524-.04713-.49994-.16252-.77409-.70091-.61035-1.20084 2.12875-6.52644 8.09076-11.42284 15.55876-12.78122 11.51338-2.08905 18.72585 5.65311 19.0273 5.98433.35355.38829.32626.9912-.06328 1.34598-.38704.35356-.98994.32875-1.34598-.06326-.27167-.29897-6.78447-7.29929-17.27814-5.39136-6.67531 1.21324-12.20436 5.7263-14.08748 11.49602-.13149.40193-.50366.65748-.90559.65748z"/><path d="m158.21091 153.47635c-13.66696 0-24.93224-3.8134-29.38078-5.56627-.40379-.16003-.6488-.5719-.59669-1.00235.31696-2.59644 3.74641-25.65112 26.26332-35.73107 19.73688-8.83569 43.51167-2.54123 56.52734 14.96889.263.35355.24936.84171-.03349 1.17913-7.27448 8.69116-15.49052 15.34166-24.41864 19.76541-9.66128 4.78845-19.51483 6.38626-28.36106 6.38626zm-27.98395-7.06979c7.97166 3.02937 32.33945 10.45273 55.49896-1.02345 8.49144-4.20789 16.33284-10.49863 23.31456-18.70226-12.57899-16.3403-35.06364-22.13792-53.76468-13.76495-20.15121 9.0199-24.33925 28.89695-25.04884 33.49066z"/></g></g><g><path d="m158.94284 145.10747c-2.3972-15.51738-21.06961-30.80929-41.19871-30.34386-18.83701.43555-32.31112 9.42094-41.43058 28.14671 4.61536 3.99918 23.87761 19.84543 47.88528 17.22354 11.35377-1.23994 36.44599-4.00932 34.74401-15.02639z" fill="#ffd255"/><path d="m124.20115 160.13464c-24.01136 2.61964-43.27049-13.23003-47.89103-17.2187 1.84293-3.79128 3.87025-7.18765 6.08182-10.17586 8.74092 4.83122 20.75978 9.2149 34.29254 7.74045 9.88628-1.07939 30.21169-3.31731 34.14775-11.17635 4.33098 4.76541 7.25345 10.2681 8.10907 15.79697 1.69823 11.01836-23.39259 13.79605-34.74015 15.03349z" fill="#f5b449"/><path d="m109.26038 119.73272c1.5462-1.08389 3.31698-1.78613 5.14713-2.21968 1.83401-.42825 3.73905-.5777 5.62473-.4501 1.88431.12719 3.75826.47951 5.52558 1.12318 1.7682.62856 3.45157 1.49599 4.90086 2.68184.19019.15555.21815.4358.06259.6259-.10622.12984-.27599.18304-.4301.15475-1.78619-.33168-3.48009-.68183-5.1771-.92858-1.69541-.24168-3.37138-.42656-5.05522-.49904-1.68248-.06845-3.36543-.07183-5.07041.00072l-5.26115.28427c-.23462.0127-.43508-.16721-.44778-.40182-.00819-.15178.06524-.28989.18087-.37144z" fill="#fff" opacity=".7"/><path d="m125.43134 128.66751c-1.03841.03319-1.97478-.02048-2.89693-.06018l-2.71092-.09377-2.70851-.06894c-.92119-.01895-1.85868-.03511-2.89701-.15088l-.02169-.00241c-.39105-.04364-.67275-.39604-.62912-.78717.02081-.18673.11329-.34959.24554-.46288.84952-.7253 1.85209-1.18906 2.8954-1.4837 1.04324-.31135 2.13966-.42616 3.22684-.38543 1.0871.04355 2.17115.23751 3.19051.61587 1.01962.36687 1.98869.89049 2.79369 1.65676.28355.26997.29463.71871.02467 1.00225-.13322.13997-.30998.21349-.48891.21968z" fill="#fff" opacity=".7"/><g fill="#300f0f"><path d="m80.58829 154.13011c-.08932 0-.1805-.01241-.27043-.03847-.50428-.14886-.7927-.67981-.64384-1.18347 5.24001-17.75574 19.2084-29.94583 35.5853-31.05424 23.63401-1.60649 35.3099 16.54002 37.14465 21.48479.18361.49373-.06822 1.04204-.56195 1.2244-.48877.18484-1.04082-.06699-1.22441-.56195-1.73055-4.66316-12.7688-21.75584-35.22926-20.24674-15.57365 1.05508-28.87464 12.70927-33.88702 29.69215-.1222.41557-.5018.68353-.91304.68353z"/><path d="m87.05767 160.44069c-.07195 0-.14514-.00743-.21834-.02481-.51234-.12033-.82992-.63391-.70958-1.145 3.64406-15.53023 14.2165-26.56973 27.59007-28.81013 17.4425-2.92641 27.57022 9.89946 32.06218 17.8004.10793.1898.18236.32503.22702.39201.28781.44038.16376 1.03088-.27664 1.31868-.44162.28905-1.03088.16252-1.31868-.27663-.05582-.0856-.15259-.25307-.28905-.49249-4.2451-7.46925-13.79224-19.59422-30.08974-16.8638-12.60257 2.11137-22.58452 12.59761-26.05057 27.36615-.10296.43914-.49435.73562-.92667.73562z"/><path d="m99.82399 152.73575c-.13212 0-.2661-.0273-.39449-.0856-.47884-.21834-.68974-.78278-.47202-1.26161.05086-.11165 5.23194-11.19954 17.28186-12.99954 11.32482-1.68961 18.04044 7.03133 20.40241 10.86086l.09677.15631c.29276.43666.17615 1.0284-.26176 1.32117-.4379.29401-1.0284.17615-1.32117-.26175l-.13644-.21585c-2.16226-3.50699-8.28677-11.51091-18.49821-9.97513-10.86211 1.62137-15.78268 11.80118-15.8292 11.90291-.16002.35106-.50613.55823-.86775.55823z"/><path d="m118.84074 161.37729c-20.32241 0-36.70426-12.16217-43.15131-17.74706-.32626-.2816-.42178-.74803-.2326-1.13632 9.18243-18.85548 23.00754-28.23763 42.26495-28.68298 21.29684-.48008 39.82793 16.04071 42.16261 31.15164.32254 2.0903-.18857 4.03049-1.5209 5.76723-5.55138 7.23604-24.09734 9.26306-34.0613 10.35101-1.8484.20221-3.67074.29648-5.46145.29648zm-41.34572-18.70847c7.22363 6.12947 25.10281 18.85858 46.59999 16.51894 8.99139-.9825 27.7011-3.0269 32.75626-9.61786 1.01724-1.32613 1.39436-2.73909 1.14998-4.31705-2.18086-14.11975-19.37589-29.547-39.34101-29.547-.29835 0-.59484.0031-.89442.01054-18.50751.42736-31.3216 8.99697-40.2708 26.95243z"/></g></g><g><path d="m78.28468 193.28717c-.07918 2.8735-.18901 7.38091-.26134 12.96371-.05309 4.09445-.07748 6.15161.02712 6.63722 2.26572 10.52232 33.52223 11.88591 37.13439 12.01891 2.17319.08002 41.67767 1.27711 45.21094-11.19072.25339-.89421.08388-1.01923-.03874-9.48175-.08189-5.65277-.07387-10.26221-.05424-13.27446-27.3394.77568-54.67874 1.55141-82.01813 2.32709z" fill="#f4ede9"/><path d="m160.36011 204.23239c-.08992-5.64622-.08066-10.26018-.05338-13.26723-27.3438.77246-54.68761 1.54491-82.02054 2.31746-.08036 2.87628-.18643 7.38075-.25882 12.97124-.00414.45593-.01894.89008-.01182 1.3027 8.86831 5.46519 19.15653 7.35822 33.6889 8.39905 7.56541.54184 18.17981-.38486 27.52588-.6293 4.79581-.12543 11.19421 1.90486 12.3295 5.13448.06363.18097-.04404.35234-.08046.52957 4.57484-1.66298 7.98318-3.98792 8.91406-7.26904.25783-.89878.08525-1.01975-.03332-9.48893z" fill="#ddd6d3"/><path d="m120.16811 225.94083c-2.46494 0-4.25875-.05334-5.01795-.08188-8.34383-.3089-35.74285-2.14488-38.03163-12.77005-.12344-.57561-.10979-2.10394-.04776-6.85022.05644-4.37411.14452-8.7408.26175-12.9772.01365-.50615.41992-.9118.92482-.92668l82.01781-2.32724c.26175.00745.50862.09056.69345.27167.18484.18112.28781.42923.28658.68726-.02853 4.32947-.00993 8.78793.05458 13.25386.0459 3.16707.09801 5.16434.13274 6.47185.05954 2.24165.06822 2.58528-.13026 3.28494-3.05171 10.76656-29.53088 11.96369-41.14413 11.96369zm-40.95557-31.72663c-.10483 3.94489-.18422 7.99399-.23632 12.04929-.04404 3.35316-.07816 6.00169.00558 6.42596 1.58974 7.3824 20.5153 10.68222 36.23843 11.26651 14.12347.51111 41.57026-1.0135 44.25849-10.49863.11661-.41061.11537-.5818.05954-2.71553-.03473-1.31123-.08807-3.31593-.13397-6.49419-.05956-4.1409-.08064-8.27559-.06079-12.30733l-.16127.00497z" fill="#300f0f"/></g><g><path d="m217.40643 110.25197c-2.57066 38.72466-21.09459 100.04953-98.3194 100.29652-81.13025.25949-92.55283-71.59506-94.21127-98.96075.79132 18.89206 38.15015 34.41628 98.69511 34.22263 59.12682-.18912 91.16029-19.29523 93.81372-35.55832.01093-.00004.01093-.00004.02184-.00008z" fill="#f4ede9"/><path d="m213.17287 137.26556c-4.13689 16.3333-11.65352 33.31007-24.64676 46.8026-4.84633-.83545-9.73372-4.28891-18.33807-3.36684-9.49863 1.01216-10.3856 10.18573-23.81085 11.39595-11.63672 1.05176-16.16258-5.34833-26.35013-4.84665-8.79133.44266-13.12056 7.7874-24.54742 6.23126-11.89611-1.63107-10.64552-9.68404-22.72901-11.90358-8.17576-1.51201-12.31899 2.59406-21.20393 1.06248-.46936-.08578-.93875-.18243-1.38644-.30106-11.09204-12.86995-17.37058-28.31898-20.91705-42.27136 7.7881-.31941 12.56193 1.72716 15.64626 4.21545 5.15156 4.17258 4.62925 8.01428 9.50488 11.18413 7.53212 4.91777 13.65851-3.32727 24.71806-.63536 8.83236 2.16443 8.71782 7.28117 17.0347 8.5746 8.78619 1.36829 10.93709-4.88956 21.84319-5.82991 12.85831-1.12112 15.21982 7.30412 26.54912 5.67513 10.78415-1.5618 11.11935-9.31923 22.75432-10.89459 10.043-1.35216 12.71051 3.84299 20.33873 1.28766 8.99036-3.01784 9.0825-11.72365 17.54796-15.14345 2.00467-.80274 4.55514-1.52003 7.99244-1.23646z" fill="#ff8150"/><path d="m217.40009 110.25075c-2.56596 38.7316-21.08704 100.04927-98.30896 100.30334-1.98167 0-3.91249-.02542-5.81795-.11436 36.99129-4.45877 63.64227-31.28763 68.52028-72.67412 21.98898-7.11375 34.00603-17.82243 35.5939-27.51486z" fill="#ddd6d3"/><path d="m213.16975 137.27127c-4.12849 16.32339-11.64876 33.30737-24.64395 46.798-4.83978-.83844-9.73044-4.29364-18.34314-3.36633-2.60419.27942-4.57323 1.16858-6.31339 2.33746 6.60553-8.24442 11.64861-18.15271 14.82437-29.49661 2.7439.76216 5.27179 1.33372 8.94299.10158 8.98116-3.02318 9.08257-11.7249 17.543-15.14195 2.00703-.80029 4.56021-1.52429 7.99012-1.23215z" fill="#f16942"/><path d="m36.0237 138.92265c.75654 1.73302 1.3786 3.47395 1.99297 5.21278l1.80227 5.21333c.58191 1.74278 1.17614 3.48254 1.73221 5.24915.56607 1.76337 1.11874 3.54117 1.55719 5.40514l.00121.00537c.12951.5506-.21182 1.10185-.76243 1.23137-.38826.09129-.77747-.05264-1.01832-.33786-1.2593-1.49777-2.29602-3.1364-3.21188-4.83524-.92724-1.69516-1.69915-3.46703-2.37681-5.27345-.65277-1.81497-1.22508-3.66122-1.62828-5.54962-.4128-1.88454-.70352-3.79927-.74321-5.74727-.0155-.76407.59122-1.39601 1.35522-1.41158.57676-.01172 1.07833.33116 1.29619.82861zm9.73457 26.59684c-.13836-.1617-.33882-.27036-.56789-.28749-.45607-.03398-.8533.3082-.88741.76443-.13777 1.84959.40133 3.59465 1.20959 5.16998.40819.78966.99322 1.47491 1.56847 2.15294.57722.67703 1.23429 1.28952 1.95515 1.81421.2195.1581.50848.22408.7912.15202.50657-.12926.81243-.64476.68317-1.15132l-.04128-.16199c-.21863-.85716-.50119-1.62653-.86346-2.3315-.32446-.72823-.80835-1.3459-1.16079-2.04744-.77202-1.36963-1.53457-2.71877-2.67322-4.05798z" fill="#fff" opacity=".7"/><path d="m118.64907 211.50226c-79.45984 0-92.71865-68.82352-94.68365-99.21532-.01861-.21895-.03225-.43852-.04156-.65934-.02171-.52226.38146-.96452.90311-.99119.53653-.00434.96885.37278.99987.89381.01117.1805.02233.36285.03411.54646 1.37451 16.42899 34.72871 32.7817 96.57175 32.7817.38022 0 .753 0 1.13509-.00125 56.67126-.18111 90.14951-18.04354 92.8762-34.75848.07567-.46086.47388-.79953.94032-.79953.26424 0 .52722.10917.70711.30145.17987.1929.28284.45155.26547.71455-2.01338 30.33412-15.71631 100.91919-99.26681 101.18591-.147-.00001-.29462.00123-.44101.00123zm-92.08288-91.5389c3.7154 32.39031 20.44026 89.63345 92.0866 89.63345.14391 0 .28657-.00124.43108-.00124 76.29959-.24438 93.21548-60.37921 96.78201-92.72114-9.15637 15.33422-41.67073 29.72689-92.2919 29.88815-.3672.00125-.73626.00125-1.10159.00125-49.18774.00123-85.99186-10.63881-95.9062-26.80047z" fill="#300f0f"/></g></g></svg>