<?xml version="1.0" encoding="iso-8859-1"?>
<!-- Generator: Adobe Illustrator 26.5.1, SVG Export Plug-In . SVG Version: 6.00 Build 0)  -->
<svg xmlns="http://www.w3.org/2000/svg" xmlns:xlink="http://www.w3.org/1999/xlink" version="1.1" id="Capa_1" x="0px" y="0px" viewBox="0 0 512 512" style="enable-background:new 0 0 512 512;" xml:space="preserve">
<g>
	<path style="fill:none;" d="M467.381,359.173c7.313,37.29-21.328,84.014-60.894,86.192c5.72,6.526,25.932,53.965-45.538,61.441   c-23.465,2.457-37.861-6.747-39.771-7.812c-6.795,6.958-18.571,12.943-39.003,13.004c-114.297,0.342-103.45-54.24-102.171-59.723   c-31.373-4.327-40.854-26.621-18.58-46.94c-63.677-7.572-56.067-70.29-55.222-81.317l5.278-67.631   c-43.965-20.989-74.579-67.861-74.579-122.316C36.901,60.03,93.495,0,163.314,0h190.782c27.208,0,33.624,31.909,34.68,39.807   c66.22-1.113,81.382,145.366,26.646,185.208c17.851,14.041,19.876,41.268,19.972,51.546c12.765,6.368,32.422,16.39,38.563,35.364   c4.101,12.67-3.446,26.56-12.91,28.274C464.041,346.169,466.172,352.532,467.381,359.173z"/>
	<g>
		<g>
			<path style="fill:none;" d="M260.224,396.984c-1.095-0.973-2.565-1.131-3.931-1.192c-7.197-0.157-14.073,2.314-20.857,4.512     c-2.811,0.942-5.682,1.789-8.503,2.653c-4.301-5.898-8.647-11.75-12.983-17.572c-1.892-2.494-3.797-5.033-6.381-6.694     c-1.785-1.213-4.023-1.861-6.02-1.547c-1.821,0.877-3.293,2.684-4.072,4.696c-1.18,2.836-1.304,6.008-1.441,9.135     c-0.255,7.255-0.502,14.539-0.685,21.837c-2.812,0.894-5.655,1.829-8.503,2.653c-6.831,2.05-13.891,3.929-19.721,8.151     c-1.09,0.827-2.209,1.793-2.556,3.216c-0.492,2.037,0.807,4.229,2.555,5.323c1.676,1.1,8.449,4.263,28.022,7.229     c0.04,5.621,0.156,11.201,0.321,16.799c0.143,5.199-0.92,12.917,2.185,17.516c7.065,10.295,16.443-6.17,20.456-11.335     c2.463-3.09,4.756-6.257,7.085-9.451c3.732,1.303,7.419,2.604,11.202,3.744c6.238,1.966,23.316,10.175,23.272-2.311     c-0.062-5.549-5.326-11.292-8.165-15.65c-3.048-4.698-6.127-9.354-9.29-14c14.412-13.572,18.184-20.025,18.937-21.883     C261.965,400.921,261.787,398.379,260.224,396.984z"/>
			<g>
				
					<ellipse transform="matrix(0.7071 -0.7071 0.7071 0.7071 -47.103 154.807)" style="fill:none;" cx="163.317" cy="134.262" rx="54.732" ry="54.732"/>
				<g>
					<path style="fill:none;" d="M90.352,107.316c4.607,1.903,10.388,2.767,14.19-0.457c3.349-2.839,3.869-8.045,2.246-12.124       s-4.956-7.222-8.419-9.921c-6.522-5.082-21.134-11.014-25.829-0.047C68.227,94.843,82.918,104.246,90.352,107.316z"/>
					<path style="fill:none;" d="M90.233,167.662c4.603-1.912,9.302-5.389,9.711-10.357c0.36-4.375-2.953-8.424-6.985-10.161       s-8.612-1.602-12.968-1.062c-8.206,1.018-22.732,7.156-18.297,18.231C65.769,174.487,82.806,170.748,90.233,167.662z"/>
					<path style="fill:none;" d="M132.821,210.417c1.903-4.607,2.767-10.388-0.457-14.19c-2.839-3.349-8.045-3.869-12.124-2.246       c-4.079,1.623-7.222,4.956-9.921,8.419c-5.082,6.522-11.014,21.134-0.047,25.829       C120.348,232.542,129.75,217.851,132.821,210.417z"/>
					<path style="fill:none;" d="M193.166,210.535c-1.912-4.603-5.389-9.302-10.357-9.711c-4.375-0.36-8.424,2.953-10.161,6.984       c-1.737,4.032-1.602,8.612-1.062,12.968c1.018,8.206,7.156,22.732,18.231,18.297C199.992,235,196.252,217.963,193.166,210.535z       "/>
					<path style="fill:none;" d="M151.91,42.261c-1.912-4.603-5.389-9.302-10.357-9.711c-4.375-0.36-8.424,2.953-10.161,6.985       c-1.737,4.032-1.602,8.612-1.062,12.968c1.018,8.206,7.156,22.732,18.231,18.297C158.735,66.725,154.996,49.689,151.91,42.261z       "/>
					<path style="fill:none;" d="M235.921,167.948c-4.607-1.903-10.388-2.767-14.19,0.457c-3.349,2.839-3.869,8.045-2.246,12.124       c1.623,4.079,4.956,7.222,8.419,9.921c6.522,5.082,21.134,11.014,25.829,0.047       C258.047,180.421,243.356,171.018,235.921,167.948z"/>
					<path style="fill#none;" d="M236.04,107.602c-4.603,1.912-9.302,5.389-9.711,10.357c-0.36,4.375,2.953,8.424,6.985,10.161       c4.032,1.737,8.612,1.602,12.968,1.062c8.206-1.018,22.732-7.156,18.297-18.231       C260.504,100.777,243.468,104.516,236.04,107.602z"/>
					<path style="fill:none;" d="M193.453,64.847c-1.903,4.607-2.767,10.388,0.457,14.19c2.839,3.349,8.045,3.869,12.124,2.246       c4.079-1.623,7.222-4.956,9.921-8.419c5.083-6.522,11.014-21.134,0.047-25.829C205.925,42.722,196.523,57.413,193.453,64.847z"/>
				</g>
			</g>
			<path style="fill:none;" d="M452.268,361.912c-2.208-12.169-8.421-22.883-17.106-31.091c2.5-2.249,5.572-5.357,7.739-8.654     c2.733,1.968,5.661,3.672,8.966,4.027c1.771,0.19,3.652-0.052,5.131-1.045c2.623-1.761,3.31-5.507,2.342-8.515     c-0.968-3.008-3.234-5.406-5.581-7.522c-5.118-4.614-12.822-10.877-19.434-12.977c-3.391-1.077-7.789-0.897-9.665,2.126     c-1.978,3.189,0.088,7.332,2.503,10.204c1.358,1.615,2.836,3.116,4.383,4.547c-2.823,3.046-5.342,6.922-7.087,9.706     c-4.597-2.744-9.568-4.917-14.794-6.408c-22.759-6.497-48.148,0.438-62.836,19.41c-15.471,20-15.374,48.844-0.398,69.037     c14.908,20.087,45.727,31.147,69.933,22.879C441.48,419.051,456.858,387.079,452.268,361.912z M414.638,390.536     c-1.53,0.958-3.515,0.684-5.278,0.257c-7.511-1.785-13.447-5.905-19.394-10.6c-5.455-4.339-2.872-9.233,0.922-14.396     c5.942-8.058,12.117-16.066,19.837-22.46c1.338-1.116,3.048-2.231,4.708-1.666c1.395,0.495,2.153,2.104,2.092,3.58     c-0.045,1.485-0.708,2.868-1.401,4.189c-3.962,7.672-8.673,14.945-14.042,21.698c4.073,2.34,7.817,5.274,11.053,8.697     c1.434,1.504,2.814,3.174,3.333,5.189C416.972,387.029,416.413,389.459,414.638,390.536z"/>
		</g>
		<g>
			<g>
				<g>
					<g>
						<path style="fill:#F8BB6C;" d="M269.464,168.166H157.033c-18.309,0-33.151,16.545-33.151,36.954        c0,20.409,14.842,36.954,33.151,36.954c0.421,0,0.839-0.018,1.256-0.035l0.001,0.035h111.174        c18.309,0,33.151-16.545,33.151-36.954C302.615,184.711,287.772,168.166,269.464,168.166z"/>
						<path style="opacity:0.4;fill:#FFFFFF;" d="M260.883,197.862h-65.825c-0.532-3.816-1.096-7.641-2.18-11.339        c-1.083-3.698-2.744-7.283-5.298-10.168h73.303c5.696,0,10.403,4.441,10.735,10.127v0        C271.978,192.657,267.068,197.862,260.883,197.862z"/>
						<path style="opacity:0.4;fill:#FFFFFF;" d="M133.668,184.97c-2.394,3.63-4.473,7.534-5.475,11.765        c-1.003,4.231-0.861,8.834,1.027,12.751c1.04,2.157,2.723,4.156,5.013,4.858c2.435,0.746,5.298-0.237,6.761-2.323        c1.273-1.815,1.457-4.146,1.713-6.347c0.73-6.299,2.482-12.702,6.531-17.581c1.848-2.227,4.264-4.364,4.474-7.25        c0.182-2.498-1.549-4.924-3.869-5.867C143.146,172.255,136.813,180.201,133.668,184.97z"/>
					</g>
					<path d="M269.464,166.03H157.034c-19.459,0-35.289,17.535-35.289,39.09s15.831,39.092,35.289,39.092       c0.37,0,112.431,0,112.431,0c19.459,0,35.288-17.536,35.288-39.092S288.923,166.03,269.464,166.03z M126.02,205.12       c0-19.385,14.186-35.121,31.516-34.812c0.003,0.015-0.001-0.005,0.002,0.01c-13.304,4.822-23.745,18.227-24.741,33.727       c-0.632,9.834,3.636,19.472,10.874,24.557c3.413,2.397,7.237,3.606,11.219,3.606c2.898,0,5.881-0.642,8.849-1.931       c7.035-3.06,12.059-10.008,13.438-18.589c1.299-8.065-1.002-15.851-6.002-20.32c-5.392-4.82-11.617-5.589-17.077-2.098       c-6.115,3.908-9.566,12.09-7.693,18.238c1.464,4.809,5.881,7.536,12.17,7.342h13.438c-1.788,5.324-5.352,9.493-9.979,11.505       c-7.211,3.138-12.63,1.052-15.906-1.253c-5.952-4.182-9.596-12.534-9.064-20.782c0.982-15.274,12.211-28.222,25.712-31.049       c3.513-0.736,7.163-0.036,10.141,1.966c9.053,6.085,15.129,17.199,15.129,29.882c0,19.199-13.913,34.818-31.013,34.818       S126.02,224.319,126.02,205.12z M173.022,210.576h-14.495c-3.073,0.063-6.908-0.623-8.032-4.314       c-1.307-4.288,1.454-10.545,5.906-13.389c1.271-0.812,2.895-1.485,4.789-1.485c2.089,0,4.506,0.817,7.137,3.169       C172.165,197.988,173.947,204.095,173.022,210.576z M269.464,239.938h-96.417c11.428-6.477,19.274-19.647,19.274-34.818       c0-15.17-7.846-28.34-19.274-34.816h96.417c17.1,0,31.013,15.619,31.013,34.816       C300.478,224.319,286.565,239.938,269.464,239.938z"/>
				</g>
				<g>
					<g>
						<path style="fill:#5EAFAD;" d="M188.922,350.743h-41.778c-13.73,0-24.554-11.69-23.498-25.38l4.435-57.511h60.841V350.743z"/>
						<path style="opacity:0.25;fill:#FFFFFF;" d="M130.432,314.85c0.192,4.82,0.947,10.232,4.806,13.126        c0.639,0.479,1.392,0.881,2.189,0.845c1.898-0.086,2.768-2.363,3.158-4.223c2.575-12.279,4.522-24.738,4.704-37.283        c0.035-2.425-0.001-4.89-0.696-7.214c-1.141-3.814-4.653-6.578-8.565-4.357c-2.777,1.577-2.894,5.438-3.409,8.254        C130.759,294.161,130.022,304.528,130.432,314.85z"/>
					</g>
					<path d="M188.922,265.715h-60.841c-1.117,0-2.046,0.86-2.132,1.973l-4.435,57.511c-0.549,7.117,1.918,14.202,6.766,19.438       c4.85,5.239,11.726,8.242,18.864,8.242h41.778c1.18,0,2.137-0.957,2.137-2.137v-82.891       C191.06,266.672,190.102,265.715,188.922,265.715z M186.785,269.989v10.375H129.26l0.8-10.375H186.785z M147.144,348.606       c-6.039,0-11.624-2.44-15.726-6.872c-4.102-4.43-6.105-10.186-5.641-16.206l3.153-40.889h57.855v63.967H147.144z"/>
				</g>
				<g>
					<g>
						<path style="fill:#5EAFAD;" d="M158.29,242.075h117.981v140.653h-99.183c-15.867,0-28.383-13.495-27.191-29.317        L158.29,242.075z"/>
						<path style="opacity:0.25;fill:#FFFFFF;" d="M165.013,294.85c-2.014,14.061-4.031,28.156-4.498,42.353        c-0.212,6.425-0.044,13.123,2.855,18.861s9.274,10.194,15.572,8.905c3.667-0.75,6.776-3.313,8.875-6.411        c2.099-3.098,3.299-6.712,4.268-10.327c3.086-11.514,4.064-23.473,5.028-35.355c0.912-11.232,1.824-22.492,1.458-33.755        c-0.124-3.804-0.403-7.656-1.642-11.255s-3.544-6.962-6.893-8.771c-6.823-3.686-17.963-0.62-20.686,7.05        c-1.247,3.512-1.318,7.614-1.84,11.274C166.68,283.23,165.845,289.04,165.013,294.85z"/>
					</g>
					<path d="M276.272,384.866h-99.184c-8.156,0-16.013-3.428-21.559-9.408c-5.547-5.98-8.377-14.074-7.763-22.208l8.392-111.336       c0.084-1.115,1.013-1.976,2.131-1.976h117.982c1.18,0,2.137,0.957,2.137,2.137v140.654       C278.409,383.909,277.452,384.866,276.272,384.866z M160.272,244.212l-8.244,109.359c-0.53,7.053,1.825,13.792,6.636,18.979       c4.809,5.185,11.352,8.041,18.424,8.041h97.047v-136.38H160.272z"/>
				</g>
				<g>
					<g>
						<path style="fill:#F8BB6C;" d="M237.842,290.466v35.17c0,19.451-15.764,35.192-35.192,35.192        c-19.428,0-35.192-15.741-35.192-35.192v-35.17H237.842z"/>
						<path style="opacity:0.25;fill:#FFFFFF;" d="M187.336,347.26c1.348,1.285,2.819,2.476,4.513,3.25        c2.5,1.142,5.358,1.31,8.081,0.938c2.988-0.408,6.364-1.991,6.775-4.979c0.475-3.451-3.142-5.835-5.586-8.317        c-3.363-3.415-4.919-8.204-5.877-12.901c-0.835-4.099-1.639-8.601-5.777-10.64c-2.928-1.443-7.241-1.253-9.865,0.816        c-5.478,4.321-2.675,14.219-0.555,19.503C180.903,339.56,183.721,343.814,187.336,347.26z"/>
						<rect x="167.457" y="290.466" style="opacity:0.25;fill:#FFFFFF;" width="70.385" height="16.103"/>
					</g>
					<path d="M237.836,288.32h-70.373c-1.18,0-2.137,0.957-2.137,2.137v35.187c0,20.58,16.743,37.323,37.324,37.323       c20.58,0,37.323-16.743,37.323-37.323v-35.187C239.973,289.277,239.015,288.32,237.836,288.32z M235.698,292.595v11.833H169.6       v-11.833H235.698z M202.65,358.693h-0.002c-18.223,0-33.048-14.825-33.048-33.048v-16.943h66.098v16.943       C235.698,343.867,220.873,358.693,202.65,358.693z"/>
				</g>
			</g>
			<g>
				<g>
					<g>
						<g>
							<g>
								<path style="fill:#FFA66F;" d="M365.561,462.833l-46.826,7.988l-23.443-138.442c13.794,12.472,31.622,10.59,50.341,8.238          L365.561,462.833z"/>
								<g>
									<path d="M367.674,462.475L347.397,338.23c-0.7,0.129-1.414,0.229-2.121,0.308c-0.714,0.101-1.407,0.172-2.122,0.237           l19.935,122.301l-42.613,7.279l-23.214-137.099c-0.873-0.762-1.732-1.566-2.564-2.385           c-0.903-0.889-1.792-1.785-2.639-2.738l25.188,147.326c0.092,0.558,1.222-0.456,1.759-0.519           c0.028-0.014,0.049-0.008,0.078-0.022l46.833-7.974C367.078,464.741,367.865,463.641,367.674,462.475z"/>
									<g>
										<path d="M331.689,382.913c0.695,0.317,1.149-0.225,1.741-0.916c0.786-1,1.169-2.317,0.943-3.73            c-0.081-0.51-0.145-1.145-0.836-1.197c-0.757-0.056-1.118,0.519-1.358,1.128c-0.39,0.985-0.747,1.982-1.077,2.984            C330.857,381.923,330.981,382.589,331.689,382.913z"/>
										<path d="M338.119,384.612c0.695,0.317,1.149-0.225,1.741-0.916c0.786-1,1.169-2.317,0.943-3.73            c-0.081-0.51-0.145-1.145-0.836-1.197c-0.757-0.056-1.118,0.519-1.358,1.128c-0.39,0.985-0.747,1.982-1.077,2.984            C337.287,383.622,337.411,384.288,338.119,384.612z"/>
										<path d="M322.753,432.86c0.356,0.676,1.047,0.523,1.938,0.338c1.233-0.312,2.34-1.121,3.024-2.378            c0.247-0.454,0.584-0.995,0.069-1.458c-0.565-0.507-1.202-0.272-1.764,0.063c-0.91,0.542-1.802,1.113-2.675,1.705            C322.698,431.569,322.389,432.172,322.753,432.86z"/>
										<path d="M326.806,438.133c0.356,0.676,1.047,0.523,1.938,0.338c1.233-0.312,2.34-1.121,3.024-2.378            c0.247-0.454,0.584-0.995,0.069-1.458c-0.565-0.507-1.202-0.272-1.764,0.063c-0.91,0.542-1.802,1.113-2.675,1.705            C326.752,436.841,326.443,437.444,326.806,438.133z"/>
									</g>
								</g>
							</g>
							<g>
								<path style="fill:#FFA66F;" d="M365.052,447.021c12.231-1.307,30.247,6.006,32.187,18.263          c2.156,13.621-15.381,21.023-25.233,22.797c-12.026,2.165-24.666,2.227-36.373-1.602c-4.473-1.463-13.77-7.797-15.95-12.546          C318.336,470.999,328.299,450.949,365.052,447.021z"/>
								<g>
									<path d="M399.562,467.767c0.397-16.381-21.256-24.425-34.78-23.273c-11.232,1.151-22.473,4.021-32.144,10.023           c-5.353,3.322-16.588,11.618-15.342,19.301c0.997,6.148,10.424,11.567,15.454,13.812c8.314,3.71,18.446,4.312,27.406,3.846           C373.893,490.76,399.126,485.76,399.562,467.767z M388.445,479.057c-0.302,0.238-0.631,0.466-0.953,0.696           c-0.281-2.333-1.085-4.587-2.327-6.519c-1.742-2.741-4.269-4.887-7.14-6.217c-1.043-0.481-2.298-0.069-2.842,0.958           c-0.563,1.064-0.157,2.382,0.907,2.945l0.015,0.008c2.087,1.104,3.841,2.79,4.959,4.784c1.129,1.99,1.584,4.269,1.303,6.45           c-0.005,0.043-0.011,0.095-0.014,0.138c-0.011,0.143-0.001,0.282,0.011,0.42c-3.038,1.437-6.511,2.627-10.239,3.53           c-0.152-2.977-1.284-5.786-2.926-8.024c-1.914-2.621-4.474-4.623-7.346-5.892c-0.845-0.37-1.856-0.049-2.316,0.773           c-0.489,0.874-0.177,1.979,0.697,2.468l0.022,0.012c2.182,1.221,4.041,3.02,5.259,5.09           c1.225,2.068,1.754,4.401,1.408,6.534c-0.004,0.027-0.006,0.056-0.009,0.084c-17.457,2.81-41.954-3.303-44.992-14.075           c-0.641-2.272,4.031-6.958,5.515-8.462c2.967-3.006,6.559-5.404,10.284-7.37c8.484-4.479,18.129-6.724,27.602-7.841           C381.283,447.883,407.429,464.075,388.445,479.057z"/>
									<path d="M354.291,462.171c-0.443,0.614-0.864,1.147-0.611,1.748c0.263,0.624,0.956,0.732,1.559,0.68           c0.744-0.064,1.502-0.187,2.209-0.422c3.791-1.258,7.609-2.42,11.49-3.375c1.203-0.296,2.516-0.733,2.218-2.309           c-0.297-1.571-1.685-1.539-2.911-1.358c-4.043,0.596-7.998,1.526-11.617,3.516           C355.775,461.122,354.99,461.713,354.291,462.171z"/>
								</g>
							</g>
						</g>
						<g>
							<g>
								<path style="fill:#FFA66F;" d="M367.428,306.615c5.096-34.307-18.192-79.321-54.37-84.695          c-36.178-5.374-71.546,30.927-76.642,65.233c-2.989,20.123,4.454,39.502,18.413,53.177l-19.472,122.096          c-0.95,6.398,3.466,12.356,9.864,13.306l23.819,3.538c6.398,0.951,12.356-3.466,13.306-9.864L299.98,359.69          C333.262,361.146,362.676,338.603,367.428,306.615z"/>
								<path style="opacity:0.25;fill:#FFFFFF;" d="M249.017,420.26c-1.296,7.303-2.314,14.822-0.901,22.103          c0.414,2.132,1.289,4.513,3.332,5.252c1.03,0.373,2.182,0.239,3.225-0.097c5.045-1.624,7.503-7.216,9.089-12.272          c4.002-12.758,6.325-26.027,7.135-39.374c0.295-4.852,0.266-10.131-2.65-14.021c-1.892-2.524-6.231-4.579-8.794-1.976          c-2.234,2.268-2.839,8.144-3.667,11.047C253.033,400.576,250.772,410.373,249.017,420.26z"/>
								<path style="opacity:0.4;fill:#FFFFFF;" d="M355.77,306.47c-1.013-18.805-16.153-45.75-34.416-44.767          c-18.263,0.984-32.734,29.524-31.721,48.329s16.639,33.252,34.903,32.269C342.799,341.318,356.783,325.275,355.77,306.47z"/>
							</g>
							<g>
								<path d="M257.22,382.293c-0.991,0.799-1.661,1.999-1.761,3.429c-0.036,0.517-0.117,1.151,0.543,1.356          c0.724,0.225,1.205-0.255,1.577-0.795c0.602-0.874,1.175-1.766,1.722-2.671c0.405-0.669,0.435-1.347-0.181-1.822          C258.517,381.324,257.953,381.752,257.22,382.293z"/>
								<path d="M263.348,383.663c-0.724-0.239-1.205,0.259-1.576,0.821c-0.601,0.908-1.174,1.836-1.72,2.776          c-0.405,0.695-0.434,1.403,0.182,1.902c0.605,0.49,1.169,0.047,1.901-0.513c0.99-0.828,1.66-2.076,1.758-3.567          C263.928,384.542,264.009,383.881,263.348,383.663z"/>
								<path d="M252.045,293.669c-0.751-0.1-1.147,0.453-1.426,1.047c-0.452,0.961-0.872,1.935-1.265,2.917          c-0.291,0.726-0.21,1.399,0.474,1.763c0.672,0.357,1.159-0.158,1.793-0.813c0.848-0.953,1.314-2.245,1.18-3.669          C252.753,294.398,252.73,293.76,252.045,293.669z"/>
								<path d="M248.294,292.072c-0.672-0.362-1.16,0.152-1.794,0.805c-0.848,0.95-1.314,2.242-1.179,3.67          c0.048,0.515,0.071,1.154,0.757,1.25c0.751,0.104,1.147-0.448,1.427-1.041c0.452-0.96,0.872-1.934,1.265-2.915          C249.06,293.114,248.979,292.44,248.294,292.072z"/>
								<path d="M269.198,433.965c-0.594-0.508-1.259-0.648-1.827-0.117c-0.558,0.521-0.228,1.147,0.187,1.958          c0.628,1.108,1.703,1.964,3.098,2.294c0.504,0.119,1.116,0.303,1.427-0.316c0.34-0.678-0.056-1.23-0.529-1.685          C270.789,435.362,270.001,434.652,269.198,433.965z"/>
								<path d="M271.609,429.174c-0.515-0.05-1.147-0.149-1.371,0.506c-0.245,0.718,0.222,1.211,0.752,1.598          c0.857,0.625,1.734,1.223,2.623,1.795c0.658,0.423,1.335,0.472,1.826-0.131c0.482-0.592,0.071-1.167-0.451-1.914          C274.217,430.015,273.036,429.313,271.609,429.174z"/>
								<path d="M313.442,219.335c-37.718-5.603-74.394,32.309-79.611,67.434c-2.957,19.904,3.678,39.684,18.219,54.48          l-19.823,128.473c0.964,2.027,0.587,1.14,1.923,4.287c1.946,4.582,6.514,3.688,10.687,4.308l23.819,3.538          c7.813,1.161,15.115-4.252,16.275-12.066l17.293-107.424c34.065,0.395,62.989-23.049,67.79-55.367          C375.231,271.874,351.16,224.938,313.442,219.335z M364.843,306.231c-4.517,30.404-32.353,52.265-64.75,50.848          c-1.341-0.058-2.514,0.897-2.726,2.223l-17.606,109.719c-0.737,4.964-5.374,8.401-10.337,7.663l-23.819-3.538          c-4.964-0.737-8.401-5.374-7.663-10.337l19.668-123.413l-0.953-0.933c-13.992-13.707-20.427-32.27-17.655-50.927          c4.87-32.783,38.819-68.21,73.673-63.032C347.528,229.683,369.713,273.448,364.843,306.231z"/>
							</g>
						</g>
						<g>
							<path style="fill:#FFA66F;" d="M284.456,453.081c12.273,0.817,28.763,11.12,28.565,23.529         c-0.22,13.789-18.769,18.063-28.779,18.115c-12.219,0.064-24.682-2.05-35.555-7.836c-4.154-2.211-12.223-10.05-13.553-15.103         C234.311,468.663,247.575,450.626,284.456,453.081z"/>
							<g>
								<path d="M314.882,479.455c3.21-16.068-16.736-27.718-30.257-28.91c-11.263-0.799-22.829,0.095-33.39,4.343          c-5.845,2.351-19.01,8.114-19.104,15.896c-0.076,6.228,8.948,13.665,13.517,16.741c7.551,5.085,17.429,7.421,26.336,8.504          C285.639,497.689,311.356,497.105,314.882,479.455z M301.989,488.663c-0.338,0.183-0.702,0.35-1.059,0.522          c0.125-2.347-0.28-4.706-1.171-6.822c-1.244-2.999-3.365-5.549-5.964-7.352c-0.945-0.653-2.252-0.464-2.964,0.455          c-0.737,0.951-0.564,2.32,0.387,3.057l0.013,0.01c1.866,1.447,3.304,3.41,4.062,5.566c0.769,2.155,0.826,4.478,0.174,6.578          c-0.013,0.041-0.027,0.091-0.038,0.134c-0.035,0.139-0.05,0.278-0.062,0.416c-3.239,0.893-6.866,1.468-10.694,1.715          c0.363-2.959-0.269-5.921-1.502-8.407c-1.434-2.911-3.612-5.323-6.223-7.068c-0.768-0.51-1.82-0.367-2.414,0.363          c-0.632,0.777-0.515,1.919,0.262,2.551l0.02,0.016c1.939,1.578,3.461,3.67,4.305,5.919c0.851,2.248,0.971,4.638,0.262,6.678          c-0.009,0.026-0.015,0.054-0.024,0.081c-17.68-0.235-40.76-10.472-41.9-21.606c-0.24-2.348,5.168-6.161,6.889-7.387          c3.44-2.45,7.391-4.195,11.399-5.491c9.128-2.952,19.016-3.504,28.539-2.975          C300.297,456.722,323.266,477.171,301.989,488.663z"/>
								<path d="M271.248,466.154c-0.542,0.529-1.049,0.981-0.903,1.617c0.151,0.66,0.816,0.885,1.419,0.938          c0.744,0.065,1.512,0.074,2.249-0.035c3.951-0.587,7.912-1.075,11.899-1.347c1.236-0.084,2.605-0.289,2.582-1.893          c-0.023-1.599-1.395-1.806-2.634-1.838c-4.086-0.108-8.141,0.127-12.048,1.464          C272.891,465.375,272.016,465.822,271.248,466.154z"/>
							</g>
						</g>
					</g>
					<g>
						<g>
							<g>
								<g>
									<path style="fill:#5EAFAD;" d="M350.555,338.776L350.555,338.776c-3.83-3.655-4.614-9.556-1.693-13.971           c3.952-5.974,6.544-12.698,7.602-19.819c3.854-25.945-11.936-60.097-36.568-69.819c-4.843-1.911-7.791-6.832-7.026-11.982           l0.005-0.034c1.027-6.918,8.177-11.306,14.708-8.805c35.345,13.535,56.097,58.297,50.809,93.896           c-1.533,10.323-5.273,20.058-10.97,28.695C363.636,342.678,355.53,343.523,350.555,338.776z"/>
									<path style="opacity:0.25;fill:#FFFFFF;" d="M351.617,258.375c-0.917-1.423-1.915-2.833-2.4-4.455           c-0.485-1.622-0.361-3.543,0.784-4.79c1.261-1.373,3.451-1.557,5.188-0.879c1.737,0.678,3.102,2.052,4.309,3.473           c6.214,7.32,9.528,16.649,11.916,25.95c1.193,4.646,2.193,9.393,2.125,14.189c-0.046,3.215-1.017,7.409-4.86,7.872           c-3.13,0.377-4.437-2.734-5.02-5.274c-1.834-8-3.089-15.99-5.964-23.728C356.092,266.422,354.109,262.245,351.617,258.375z           "/>
								</g>
								<path d="M358.233,343.991c-3.396,0-6.668-1.297-9.153-3.67c-4.635-4.421-5.476-11.443-2.001-16.697          c3.812-5.76,6.258-12.138,7.271-18.953c3.549-23.905-10.766-57.858-35.24-67.517c-5.827-2.3-9.263-8.174-8.354-14.284          c0.6-4.05,2.955-7.53,6.467-9.582c3.414-1.995,7.471-2.34,11.123-0.94c37.61,14.402,57.335,61.373,52.159,96.207          c-1.579,10.641-5.382,20.586-11.3,29.558c-2.137,3.241-5.587,5.352-9.466,5.791          C359.237,343.963,358.733,343.991,358.233,343.991z M323.776,215.779c-1.517,0-3.031,0.404-4.395,1.202          c-2.386,1.395-3.987,3.758-4.392,6.484c-0.619,4.168,1.724,8.148,5.691,9.713c27.061,10.681,41.691,46.583,37.898,72.122          c-1.104,7.438-3.773,14.397-7.933,20.685c-2.332,3.524-1.749,8.253,1.386,11.244l0,0c1.935,1.845,4.573,2.729,7.229,2.429          c2.615-0.297,4.939-1.717,6.377-3.897c5.573-8.448,9.153-17.813,10.641-27.832c4.932-33.195-13.766-77.919-49.459-91.586          C325.834,215.965,324.804,215.779,323.776,215.779z"/>
							</g>
							<g>
								<path style="fill:#FFA66F;" d="M418.51,283.173c0.158,5.957-1.226,12.03-4.469,17.033          c-3.588,5.537-9.214,9.477-15.204,12.232c-8.988,4.168-26.623,6.976-37.272-1.212c-4.986-3.83-8.714-9.731-10.392-15.683          c-0.468-1.69-0.785-3.511-0.96-5.407c-0.481-5.448,0.313-11.418,2.527-15.966c0,0,0.02-0.077,0.064-0.18          c0.914-2.494,2.554-4.635,4.683-6.207c2.737-2.008,7.695-5.282,13.566-7.492l-2.612-5.262          c-0.836-1.711-0.122-3.816,1.607-4.608c0.832-0.391,1.647-0.741,2.421-1.023c9.968-3.696,33.236-2.305,41.754,16.538          C416.679,271.365,418.336,277.222,418.51,283.173z"/>
								<g>
									<path d="M371.921,247.916c-0.83,0.308-1.684,0.664-2.538,1.06c-1.22,0.567-2.141,1.581-2.591,2.857           c-0.455,1.291-0.372,2.678,0.234,3.904l1.837,3.721c-15.054,5.34-19.04,14.736-19.04,14.736           c-2.993,6.234-3.643,15.231-1.616,22.423c1.824,6.47,5.916,12.642,10.948,16.51c11.472,8.818,31.395,4.896,40.346,0.758           c4.063-1.879,7.539-4.082,10.401-6.583c2.181-1.907,4.007-3.987,5.463-6.233c3.228-4.978,4.905-11.35,4.723-17.94           c-0.158-5.696-1.648-11.7-4.428-17.846C406.579,245.204,382.301,244.067,371.921,247.916z M412.774,266.586           c2.606,5.761,4.001,11.355,4.147,16.628c0.165,5.956-1.331,11.684-4.215,16.13c-3.034,4.683-7.927,8.606-14.535,11.664           c-8.891,4.11-25.825,6.507-35.639-1.036c-1.29-0.992-1.611-1.193-2.737-2.484c15.007-4.302,18.178-6.411,20.631-7.861           c2.43-1.492,4.748-3.251,6.653-5.426c0.313-0.359,0.397-0.888,0.168-1.339c-0.301-0.593-1.026-0.83-1.619-0.529           l-0.044,0.022c-2.403,1.22-4.752,2.362-7.156,3.45c-2.422,1.055-4.873,2.047-7.349,3.025           c-4.635,1.785-9.404,3.388-14.154,5.137c-1.864-2.688-3.342-5.724-4.224-8.853c-0.348-1.234-0.407-1.209-0.579-2.549           c7.297-1.544,12.08-3.712,14.727-4.675c2.641-0.985,5.219-2.184,7.673-3.634c2.43-1.492,4.748-3.251,6.653-5.426           c0.313-0.359,0.397-0.888,0.168-1.339c-0.301-0.593-1.026-0.83-1.619-0.529l-0.044,0.022           c-2.403,1.22-4.752,2.362-7.156,3.45c-2.422,1.055-4.873,2.047-7.349,3.025c-4.411,1.698-8.943,3.235-13.465,4.886           c-0.181-4.818,0.652-9.79,2.445-13.488c0.027-0.057,0.103-0.26,0.124-0.319c0.687-1.864,1.829-3.515,3.329-4.826           c0.26-0.227,0.53-0.444,0.811-0.65c2.635-1.934,7.411-5.098,13.022-7.244c0.101-0.027,0.201-0.064,0.297-0.112           c0.003-0.001,0.005-0.002,0.007-0.003c5.17-1.933,11.019-2.978,16.54-1.402c0.84,0.24,1.718-0.246,1.957-1.088           c0.24-0.84-0.247-1.717-1.088-1.957c-5.84-1.667-12.51-1.995-17.921-0.148l-1.37-2.774           c-0.224-0.455-0.255-0.969-0.086-1.449c0.165-0.466,0.498-0.833,0.937-1.037c0.786-0.365,1.561-0.688,2.305-0.963           C383.057,247.164,404.923,249.227,412.774,266.586z"/>
									<path d="M390.875,273.51c-1.663-0.398-2.548,0.886-1.92,2.681c0.927,2.648,1.982,5.25,2.967,7.878           c0.605,1.615,1.135,3.26,1.788,4.855c0.272,0.663,0.819,1.357,1.621,1.179c0.771-0.172,0.976-0.949,0.979-1.715           c0.018-5.228-1.976-9.808-4.588-14.18C391.518,273.868,391.075,273.67,390.875,273.51z"/>
									<path d="M404.861,285.805c-0.332-3.873-1.453-8.124-4.196-11.82c-0.457-0.616-1.172-0.859-1.913-0.439           c-0.589,0.334-0.669,0.917-0.476,1.512c1.239,3.823,2.199,7.745,3.886,11.411c0.313,0.681,0.835,1.484,1.739,1.336           C404.447,287.715,404.756,287.079,404.861,285.805z"/>
								</g>
							</g>
						</g>
						<g>
							<g>
								<g>
									<path style="fill:#5EAFAD;" d="M263.194,369.671c-6.797,0-14.304-0.677-22.609-2.194l3.98-21.808           c33.127,6.045,54.477-3.322,60.094-26.39c6.633-27.237-10.963-67.974-42.761-77.712l6.492-21.198           c20.195,6.184,37.459,21.305,48.612,42.576c10.5,20.023,13.851,42.468,9.198,61.58           C323.393,336.046,311.043,369.668,263.194,369.671z"/>
									<path style="opacity:0.25;fill:#FFFFFF;" d="M308.558,288.467c1.3,3.883,2.066,7.957,3.766,11.682           c0.796,1.744,2.189,3.624,4.102,3.501c1.384-0.089,2.483-1.259,3.032-2.533c1.027-2.383,0.6-5.12,0.037-7.653           c-2.008-9.044-5.58-17.825-10.979-25.386c-1.558-2.182-5.536-9.048-8.827-6.392c-3.11,2.51,1.057,9.348,2.292,12.033           C304.231,278.609,306.845,283.349,308.558,288.467z"/>
								</g>
								<g>
									<path d="M318.894,261.952c-11.42-21.781-29.133-37.275-49.878-43.627c-1.134-0.343-2.326,0.289-2.671,1.418           c-0.345,1.129,0.289,2.324,1.418,2.671c19.646,6.016,36.458,20.762,47.345,41.524c10.26,19.567,13.547,41.466,9.014,60.081           c-2.487,10.206-14.23,43.512-60.929,43.515c-6.903,0-14.38-0.727-22.225-2.16c-1.151-0.203-2.273,0.558-2.487,1.72           c-0.212,1.161,0.558,2.275,1.72,2.487c8.097,1.478,15.832,2.228,22.992,2.228c49.816-0.003,62.409-35.804,65.082-46.778           C333.051,305.419,329.632,282.427,318.894,261.952z"/>
									<path d="M244.182,347.772c6.738,1.229,13.005,1.837,18.778,1.837c23.708,0,39.013-10.26,43.776-29.824           c6.849-28.125-11.346-70.196-44.212-80.262c-1.134-0.345-2.326,0.289-2.671,1.418c-0.345,1.129,0.289,2.324,1.418,2.671           c30.73,9.41,47.727,48.813,41.311,75.162c-5.309,21.8-25.768,30.61-57.633,24.792c-1.149-0.201-2.273,0.557-2.487,1.72           C242.251,346.447,243.021,347.56,244.182,347.772z"/>
								</g>
							</g>
							<g>
								<g>
									<g>
										<path style="fill:#FFA66F;" d="M272.286,294.492c7.175,1.153,27.631,6.174,27.631,6.174l-11.657,41.58            c0,0-14.2-2.264-19.007-2.601c-11.605-0.813-23.333-3.49-33.682-8.804c-3.24-1.664-6.485-3.48-8.963-6.15            c-4.346-4.683-5.786-11.51-5.153-17.867s3.114-12.373,5.771-18.183c5.767-12.611,12.896-25.226,24.259-33.175            c3.661-2.561,7.853-4.623,12.318-4.797c4.157-0.162,8.354,1.403,11.39,4.247c3.296,3.087,9.471,8.318,7.67,12.64            c-2.306,5.535-3.545,11.495-5.875,17.063C275.58,287.983,274.011,291.28,272.286,294.492z"/>
										<path style="opacity:0.25;fill:#FFFFFF;" d="M228.076,300.012c-0.764,2.288-1.44,4.695-1.108,7.085            c0.332,2.389,1.923,4.76,4.278,5.285c2.057,0.458,4.213-0.584,5.662-2.114c1.449-1.53,2.336-3.492,3.236-5.398            c4.764-10.089,10.606-19.669,17.394-28.523c1.347-1.757,2.751-3.52,3.548-5.585c1.425-3.69-0.136-9.159-4.815-9.144            c-4.516,0.015-8.929,6.22-11.548,9.248C237.357,279.38,231.645,289.33,228.076,300.012z"/>
									</g>
									<g>
										<path d="M252.319,293.91c0.37,0.234,0.825,0.336,1.289,0.255c7.467-1.303,40.169,6.687,44.487,7.98l0.921,0.275            c0.964,0.284,1.977-0.27,2.261-1.234c0.284-0.964-0.27-1.973-1.234-2.261l-0.903-0.269            c-1.914-0.573-22.185-5.202-25.504-5.971c4.924-7.399,8.279-15.468,10.714-25.782c0.23-0.978-0.381-1.961-1.353-2.191            c-0.98-0.231-1.961,0.375-2.191,1.353c-2.466,10.446-5.901,18.46-11.035,25.824c-4.35-0.783-12.87-1.996-16.787-1.311            c-0.992,0.173-1.654,1.115-1.481,2.106C251.592,293.21,251.901,293.644,252.319,293.91z"/>
										<path d="M243.2,321.446c-0.589,0.486-0.298,1.131,0.067,1.965c0.559,1.144,1.579,2.064,2.951,2.479            c0.496,0.15,1.096,0.37,1.443-0.228c0.381-0.656,0.019-1.231-0.425-1.714c-0.718-0.781-1.461-1.538-2.221-2.273            C244.455,321.131,243.8,320.951,243.2,321.446z"/>
										<path d="M248.962,319.02c0.552-0.527,0.214-1.15-0.211-1.955c-0.641-1.1-1.726-1.943-3.125-2.257            c-0.505-0.113-1.12-0.289-1.423,0.333c-0.332,0.682,0.071,1.23,0.549,1.679c0.773,0.727,1.569,1.428,2.381,2.105            C247.734,319.426,248.4,319.558,248.962,319.02z"/>
										<path d="M260.14,275.782c-0.743-0.176-1.081,0.446-1.525,1.241c-0.574,1.136-0.69,2.505-0.191,3.849            c0.18,0.485,0.367,1.097,1.054,1.012c0.752-0.093,0.993-0.729,1.109-1.374c0.188-1.044,0.343-2.093,0.469-3.143            C261.15,276.591,260.897,275.961,260.14,275.782z"/>
										<path d="M265.556,278.906c0.754,0.121,1.045-0.524,1.43-1.349c0.489-1.175,0.505-2.549-0.09-3.853            c-0.215-0.471-0.446-1.067-1.125-0.932c-0.744,0.148-0.937,0.799-1.006,1.452c-0.111,1.055-0.189,2.113-0.238,3.169            C264.49,278.173,264.788,278.783,265.556,278.906z"/>
										<path d="M289.73,342.257c0.093-1.001-0.647-1.887-1.647-1.98c-9.745-0.9-30.985-3.878-40.398-6.576            c-4.264-1.223-9.197-2.825-13.459-5.446c-3.062-1.9-7.164-5.182-9.208-10.131c-1.9-4.598-1.93-10.25-0.096-17.786            c3.728-15.316,16.187-36.007,35.618-47.701c0.862-0.519,1.139-1.638,0.622-2.499c-0.516-0.862-1.639-1.138-2.499-0.622            c-20.33,12.235-33.373,33.909-37.279,49.962c-1.276,5.236-2.634,13.01,0.269,20.038c2.329,5.64,6.795,9.39,10.278,11.599            c0.131,0.083,0.259,0.163,0.388,0.24c4.636,2.853,9.863,4.556,14.362,5.847c9.632,2.76,31.097,5.782,41.07,6.702            C288.751,343.997,289.638,343.259,289.73,342.257z"/>
									</g>
								</g>
								<g>
									<path style="fill:#FFA66F;" d="M283.928,339.202c3.864,4.536,8.954,8.128,14.709,9.681c6.37,1.72,13.188,0.89,19.485-1.066           c9.471-2.908,24.464-12.608,26.911-25.816c1.148-6.182-0.024-13.062-2.754-18.611c-0.782-1.57-1.764-3.136-2.9-4.663           c-3.284-4.374-7.865-8.283-12.551-10.185c0,0-0.066-0.044-0.167-0.091c-2.347-1.244-4.998-1.741-7.632-1.486           c-3.378,0.337-9.254,1.215-15.098,3.496l-1.575-5.66c-0.522-1.831-2.46-2.92-4.276-2.353           c-0.88,0.265-1.72,0.55-2.485,0.857c-9.884,3.914-26.26,20.502-20,40.211C277.396,329.196,280.079,334.66,283.928,339.202z           "/>
									<g>
										<path d="M274.088,323.99c2.041,6.429,4.946,11.891,8.635,16.233c4.27,5.023,9.776,8.641,15.505,10.186            c2.585,0.697,5.333,1.024,8.23,0.984c3.801-0.053,7.858-0.738,12.136-2.056c9.423-2.906,26.862-13.306,29.5-27.533            c1.157-6.24,0.075-13.566-2.893-19.597c-3.3-6.704-9.798-12.961-16.191-15.597c0,0-9.246-4.323-24.011,1.768l-1.121-3.996            c-0.369-1.316-1.234-2.403-2.436-3.059c-1.188-0.649-2.551-0.787-3.837-0.393c-0.899,0.276-1.773,0.582-2.596,0.908            C284.717,285.913,267.421,302.988,274.088,323.99z M296.177,284.782c0.738-0.292,1.53-0.57,2.359-0.824            c0.463-0.142,0.956-0.091,1.39,0.145c0.446,0.244,0.767,0.647,0.904,1.135l0.835,2.98            c-5.259,2.243-10.001,6.945-13.23,12.089c-0.465,0.741-0.241,1.718,0.499,2.183c0.741,0.467,1.718,0.241,2.183-0.499            c3.053-4.863,8.101-7.996,13.239-10.014c0.002-0.001,0.005-0.002,0.008-0.002c0.104-0.029,0.203-0.068,0.296-0.115            c5.607-2.155,11.275-2.995,14.527-3.317c0.347-0.035,0.693-0.054,1.038-0.059c1.992-0.028,3.945,0.437,5.702,1.364            c0.055,0.03,0.247,0.13,0.305,0.154c3.805,1.552,7.748,4.693,10.834,8.397c-4.467,1.795-8.864,3.681-13.28,5.367            c-2.495,0.927-4.981,1.828-7.488,2.662c-2.515,0.798-5.026,1.519-7.628,2.218l-0.047,0.013            c-0.643,0.172-1.024,0.833-0.851,1.476c0.131,0.488,0.547,0.826,1.02,0.884c2.871,0.344,5.771,0.104,8.576-0.411            c2.794-0.562,5.513-1.394,8.136-2.426c2.613-1.053,7.619-2.638,14.078-6.367c0.768,1.112,0.707,1.133,1.273,2.283            c1.436,2.916,2.365,6.162,2.776,9.408c-4.702,1.875-9.32,3.87-13.961,5.641c-2.495,0.927-4.981,1.828-7.488,2.662            c-2.515,0.798-5.026,1.519-7.628,2.218l-0.047,0.013c-0.643,0.172-1.024,0.833-0.851,1.476            c0.131,0.488,0.547,0.826,1.02,0.884c2.871,0.344,5.771,0.104,8.576-0.411c2.794-0.562,6.563-1.113,20.6-7.944            c0.026,1.712-0.078,2.077-0.375,3.677c-2.257,12.169-16.454,21.707-25.814,24.593c-6.959,2.143-13.22,2.496-18.608,1.041            c-5.117-1.38-10.059-4.64-13.917-9.18c-3.416-4.019-6.118-9.113-8.031-15.14            C271.342,304.873,286.225,288.722,296.177,284.782z"/>
										<path d="M298.022,313.543c0.971-1.408,2.487-1.044,3.22,0.711c1.08,2.589,2.035,5.23,3.06,7.842            c0.63,1.606,1.335,3.184,1.915,4.806c0.241,0.675,0.298,1.557-0.418,1.96c-0.688,0.388-1.361-0.053-1.874-0.621            c-3.508-3.876-5.087-8.615-6.066-13.613C297.783,314.239,297.98,313.796,298.022,313.543z"/>
										<path d="M295.838,332.036c-2.342-3.102-4.35-7.013-4.781-11.596c-0.072-0.763,0.297-1.422,1.129-1.605            c0.661-0.145,1.11,0.235,1.364,0.806c1.634,3.672,3.541,7.23,4.738,11.084c0.222,0.716,0.371,1.662-0.4,2.156            C297.423,333.181,296.768,332.913,295.838,332.036z"/>
									</g>
								</g>
							</g>
						</g>
					</g>
				</g>
				<g>
					<g>
						<g>
							<path style="fill:#FFA66F;" d="M361.665,98.594c17.394-29.568,8.58-77.434-5.735-81.179         c-14.315-3.744-44.458,40.333-42.594,56.049L361.665,98.594z"/>
							<path d="M361.663,100.427c-0.315,0-0.636-0.082-0.928-0.254c-0.871-0.513-1.163-1.636-0.649-2.508         c11.866-20.168,11.53-50.201,4.352-67.585c-2.552-6.179-5.739-10.047-8.972-10.893c-3.011-0.792-7.59,1.301-12.862,5.892         c-14.046,12.234-28.667,37.893-27.449,48.168c0.119,1.005-0.598,1.916-1.602,2.035c-1.027,0.136-1.916-0.598-2.035-1.602         c-1.502-12.653,14.787-39.262,28.68-51.363c6.391-5.569,11.838-7.812,16.196-6.674c4.434,1.16,8.386,5.669,11.43,13.039         c7.52,18.211,7.863,49.688-4.579,70.841C362.902,100.104,362.291,100.427,361.663,100.427z"/>
						</g>
						<g>
							<path style="fill:#5EAFAD;" d="M399.591,93.252c-2.977,5.384-13.523,7.173-13.523,7.173         c-6.318-10.23-14.838-19.16-18.211-22.534c4.497-0.728,12.937-1.9,20.333-1.9C398.878,75.991,402.552,87.852,399.591,93.252z         "/>
							<path style="fill:#FFA66F;" d="M209.386,167.272c0-55.207,44.116-116.024,98.537-116.024s98.537,60.818,98.537,116.024         s-44.116,83.896-98.537,83.896C253.502,251.169,209.386,222.479,209.386,167.272z"/>
							<path style="opacity:0.25;fill:#FFFFFF;" d="M220.457,171.202c1.369,14.33,6.239,28.405,14.629,40.102         c1.294,1.804,2.697,3.578,4.51,4.859c1.813,1.282,4.107,2.029,6.281,1.575c1.15-0.24,2.272-0.854,2.872-1.865         c1.206-2.033-0.085-4.577-1.292-6.609c-12.275-20.674-17.713-45.841-12.499-69.312c0.496-2.234,1.089-4.49,0.954-6.774         c-0.251-4.247-3.909-7.905-8.252-5.687c-3.289,1.68-3.783,7.125-4.566,10.307         C220.416,148.691,219.389,160.022,220.457,171.202z"/>
							<path d="M307.922,253.282c-28.451,0-52.997-7.505-70.985-21.701c-19.406-15.316-29.665-37.553-29.665-64.309         c0-54.632,43.966-118.138,100.65-118.138s100.652,63.507,100.652,118.138c0,26.756-10.259,48.994-29.665,64.309         C360.921,245.777,336.375,253.282,307.922,253.282z M307.922,53.361c-54.302,0-96.422,61.233-96.422,113.911         c0,49.682,37.847,81.782,96.422,81.782s96.424-32.1,96.424-81.782C404.346,114.595,362.226,53.361,307.922,53.361z"/>
							<path d="M229.118,156.595c0.191,0.511,0.391,1.154,1.114,1.065c0.792-0.098,1.043-0.767,1.163-1.446         c0.195-1.098,0.353-2.203,0.482-3.307c0.096-0.817-0.172-1.48-0.971-1.668c-0.783-0.185-1.137,0.47-1.602,1.306         C228.705,153.741,228.587,155.181,229.118,156.595z"/>
							<path d="M235.931,158.552c0.783,0.185,1.137-0.47,1.602-1.306c0.6-1.196,0.718-2.636,0.187-4.05         c-0.191-0.511-0.391-1.154-1.114-1.064c-0.793,0.098-1.043,0.767-1.163,1.446c-0.195,1.098-0.353,2.203-0.482,3.307         C234.865,157.7,235.133,158.364,235.931,158.552z"/>
						</g>
					</g>
					<g>
						<g>
							<g>
								<path style="fill:#FFC8A9;" d="M293.754,105.516c-2.564,6.886,16.599,18.808,22.047,9.145          C321.248,104.998,296.581,97.921,293.754,105.516z"/>
								<path d="M306.155,101.518c11.099,3.251,12.17,8.7,12.521,10.402c0.493,2.389-0.961,4.657-2.729,5.783          c-1.242,0.792-2.623,1.239-4.074,1.523c-2.421,0.474-4.761,0.079-7.051-0.624c-3.982-1.222-7.693-2.993-10.741-5.895          c-2.065-1.965-3.337-5.066-1.794-8.047C294.947,99.526,300.863,99.968,306.155,101.518z M315.019,113.403          c1.024-2.848-1.577-5.112-3.685-6.341c-2.181-1.272-4.638-1.991-7.097-2.636c-1.307-0.343-7.346-1.661-8.931,1.719          c-0.684,1.459,0.072,2.883,1.228,3.901c2.763,2.434,5.951,4.125,9.499,5.135          C307.939,115.724,313.687,117.109,315.019,113.403z"/>
							</g>
							<g>
								<path style="fill:#FFC8A9;" d="M354.845,112.231c4.698,5.65,24.573-5.042,18.902-14.574S349.664,105.999,354.845,112.231z"/>
								<path d="M357.548,99.484c8.342-8.011,13.602-6.228,15.253-5.686c2.318,0.761,3.562,3.15,3.659,5.244          c0.068,1.471-0.23,2.891-0.706,4.291c-0.794,2.336-2.3,4.169-4.049,5.806c-3.041,2.846-6.424,5.184-10.457,6.385          c-2.732,0.813-6.055,0.374-7.873-2.447C350.244,108.216,353.571,103.304,357.548,99.484z M372.267,97.708          c-1.961-2.305-5.219-1.175-7.334,0.042c-2.189,1.259-4.035,3.032-5.818,4.845c-0.947,0.963-5.096,5.546-2.952,8.602          c0.926,1.319,2.536,1.372,3.995,0.876c3.486-1.185,6.539-3.11,9.18-5.685C370.758,105.004,374.819,100.708,372.267,97.708z"/>
							</g>
						</g>
						<g>
							<g>
								<path style="fill:#FFFFFF;" d="M294.743,115.433c-14.1-0.382-25.029,14.341-23.45,28.647          c1.579,14.306,14.206,24.735,28.338,22.851c14.131-1.884,22.74-16.619,21.183-27.867          C319.258,127.817,313.222,115.933,294.743,115.433z"/>
								<path d="M291.332,114.84c-15.649,2.934-25.367,19.127-20.675,34.913c3.631,12.165,15.478,20.445,27.764,18.956          c13.471-1.607,26.776-11.077,24.368-29.788C320.363,120.214,306.149,112.067,291.332,114.84z M293.544,120.088          c-0.927,3.183-2.552,9.851-2.649,10.978c-0.309,3.66-0.155,7.399,0.233,11.056c0.404,3.655,1.08,7.257,2.231,10.762          c0.545,1.652,5.758,12.463,5.758,12.463s-8.695,0.727-16.596-4.775c-5.051-3.522-8.309-10.392-8.811-16.68          c-0.619-6.255,1.161-12.525,5.025-17.359c2.129-2.643,7.225-7.098,13.551-7.97          C293.121,118.437,293.803,119.271,293.544,120.088z M299.412,138.368c-5.354-1.29-4.144-8.6,1.096-8.862          C307.412,128.524,306.369,140.076,299.412,138.368z"/>
							</g>
							<g>
								<path style="fill:#FFFFFF;" d="M380.998,105.234c-13.887-0.376-24.651,14.124-23.095,28.214          c1.555,14.09,13.992,24.361,27.909,22.506c13.918-1.855,22.396-16.368,20.863-27.446          C405.142,117.431,399.198,105.727,380.998,105.234z"/>
								<path d="M408.614,128.37c2.38,18.429-10.73,27.752-23.994,29.344c-12.094,1.452-23.776-6.692-27.342-18.684          c-4.623-15.543,4.954-31.488,20.362-34.375C392.239,101.92,406.235,109.941,408.614,128.37z M360.285,133.258          c0.484,6.202,3.699,12.957,8.674,16.428c7.783,5.428,16.352,4.709,16.352,4.709s-5.133-10.644-5.671-12.281          c-1.13-3.44-1.804-6.993-2.194-10.59c-0.39-3.597-0.545-7.286-0.238-10.889c0.095-1.119,1.691-7.686,2.616-10.814          c0.24-0.812-0.422-1.619-1.242-1.506c-6.236,0.866-11.263,5.258-13.347,7.855          C361.419,120.927,359.67,127.112,360.285,133.258z M386.68,119.093c-5.156,0.265-6.348,7.455-1.089,8.735          C392.45,129.499,393.479,118.133,386.68,119.093z"/>
							</g>
						</g>
					</g>
					<g>
						<g>
							<g>
								<g>
									<path style="fill:#FFA66F;" d="M344.275,131.993c3.466-0.886,7.18-0.596,9.353,2.246           c16.1,21.067,51.178,2.693,64.385,18.286c24.478,28.901-32.3,87.124-87.838,94.828c0,0-16.595,4.002-34.885-3.094           c-21.839-8.473-25.23-62.912,7.003-72.686c25.544-7.746,32.233-14.067,32.233-24.183           C334.525,138.353,338.008,133.595,344.275,131.993z"/>
									<path style="opacity:0.4;fill:#FFFFFF;" d="M423.718,171.632c-2.819,30.008-48.579,69.496-93.535,75.719           c0,0-16.599,3.996-34.889-3.099c-21.837-8.472-25.241-62.914,6.999-72.684c25.542-7.743,32.225-14.062,32.225-24.181           c0-9.042,3.484-13.792,9.755-15.392c3.468-0.887,7.189-0.602,9.359,2.249c8.551,11.196,22.47,11.243,35.614,11.18           c11.591-0.047,22.581-0.206,28.773,7.094C422.673,158.014,424.383,164.57,423.718,171.632z"/>
									<path style="fill:#FFA66F;" d="M351.322,188.382c-10.928-1.362-5.766,7.394-0.946,7.995           C355.196,196.977,362.25,189.744,351.322,188.382z"/>
								</g>
								<g>
									<path d="M423.718,171.632l-0.269-0.063c-41.33,6.207-34.204-26.144-34.204-26.144c11.591-0.047,22.581-0.206,28.773,7.094           C422.673,158.014,424.383,164.57,423.718,171.632z"/>
									<path style="fill:#FFFFFF;" d="M397.485,155.256c-0.008,5.21,10.836,4.138,9.601-1.15           C405.648,150.162,397.977,151,397.485,155.256z"/>
								</g>
							</g>
							<path d="M425.537,171.666c0.825-7.907-1.159-14.871-5.924-20.496c-6.741-7.959-18.005-7.898-29.929-7.842         c-0.133,0.001-0.266,0.001-0.399,0.002c-0.018,0-0.035,0-0.053,0c-14.201,0.073-28.781-0.005-36.313-14.076         c-0.546-1.022-1.817-1.406-2.839-0.86c-1.022,0.546-1.407,1.819-0.86,2.839c8.237,15.391,23.508,16.296,37.598,16.299         c-0.419,4.272-0.37,13.004,5.669,19.468c4.641,4.964,11.743,7.46,21.187,7.46c2.281,0,4.702-0.149,7.255-0.441         c-0.483,2.551-1.22,4.97-2.044,7.123c-10.251,26.792-50.878,61.048-89.878,66.431c-1.147,0.158-1.927,0.949-1.768,2.098         c0.145,1.05,1.044,1.811,2.075,1.811c0.096,0,0.193-0.006,0.291-0.02c36.947-5.1,81.369-37.903,93.199-68.82         c1.439-3.76,2.334-7.372,2.709-10.81C425.523,171.776,425.535,171.722,425.537,171.666z M395.574,164.156         c-5.103-5.44-4.896-13.278-4.524-16.639c10.407-0.051,20.112,0.165,25.362,6.364c4.143,4.892,5.33,10.504,5.053,15.84         C409.231,171.293,400.52,169.43,395.574,164.156z"/>
						</g>
						<g>
							<g>
								<path style="fill:#FF8572;" d="M267.968,185.767c-5.787,13.728,26.632,21.956,27.841,3.666          C296.705,175.868,273.755,172.039,267.968,185.767z"/>
								<path d="M279.528,192.11c-0.059-1.242,0.646-2.103,1.793-2.187c1.292-0.096,2.262,0.839,2.304,2.219          c0.035,1.134-0.816,2.058-1.926,2.094C280.502,194.274,279.589,193.38,279.528,192.11z"/>
								<path d="M273.971,187.417c-0.806-1.019-0.685-2.322,0.281-3.038c0.979-0.725,2.743-0.441,3.549,0.571          c0.733,0.921,0.548,2.678-0.35,3.335C276.514,188.971,274.878,188.562,273.971,187.417z"/>
								<path d="M286.043,183.682c1.315-0.02,2.301,0.968,2.383,2.39c0.074,1.273-0.81,2.354-1.986,2.43          c-1.366,0.088-2.472-1.058-2.491-2.58C283.932,184.507,284.683,183.702,286.043,183.682z"/>
							</g>
							<g>
								<g>
									<path style="fill:#FF8572;" d="M354.255,181.868c-2.744,1.588-4.367,3.22-5.86,6.017           c-1.493,2.797-2.896,11.151-7.945,14.024c-2.935,1.67-6.904,0.91-9.459-1.298c-7.276-6.291-5.131-12.741-4.105-15.958           c1.423-4.464,4.561-9.37,8.452-11.98c0,0,1.768,3.695,6.602,6.421C346.775,181.819,354.255,181.868,354.255,181.868z"/>
									<path style="opacity:0.25;fill:#FFFFFF;" d="M330.833,186.058c-0.661,1.956-0.943,4.09-0.447,6.094           c0.293,1.183,0.972,2.404,2.134,2.77c0.823,0.259,1.743,0.028,2.462-0.449s1.263-1.174,1.729-1.899           c1.124-1.747,1.874-3.733,2.185-5.787c0.336-2.215,0.073-4.706-1.502-6.3C333.976,177.028,331.604,183.777,330.833,186.058           z"/>
								</g>
								<path d="M365.906,179.997c-5.932,1.438-12.584,1.872-18.248-0.421c-5.403-2.332-10.508-6.535-12.549-12.157          c-0.196-0.722-0.764-1.323-1.576-1.321c-0.868-0.005-1.576,0.695-1.581,1.563c0.008,1.529,0.275,3.002,0.74,4.406          c-3.96,3.295-6.605,8.191-7.841,12.043c-1.035,3.282-3.491,10.957,4.768,18.086c0.865,0.746,1.815,1.339,2.814,1.78          c2.969,1.312,6.378,1.277,9.057-0.24c4.397-2.507,6.277-7.977,7.64-11.963c0.419-1.183,0.791-2.299,1.124-2.897          c0.547-1.037,1.113-1.866,1.763-2.6c5.246,0.491,10.668-0.626,15.231-3.409          C368.872,181.889,367.702,179.397,365.906,179.997z M346.543,186.889c-0.468,0.901-0.899,2.113-1.378,3.511          c-1.158,3.366-2.74,7.965-5.749,9.682c-2.009,1.138-5.029,0.686-7.048-1.054c-6.16-5.336-4.501-10.541-3.484-13.744          c1.13-3.538,3.269-6.942,5.714-9.287c0.513,0.795,1.083,1.556,1.7,2.278c0.597,0.717,1.246,1.37,1.918,1.992          c-0.061,0.072-0.129,0.162-0.188,0.228c-2.249,2.936-4.289,6.103-4.435,10.038c-0.016,0.547,0.369,1.046,0.934,1.139          c0.643,0.111,1.231-0.356,1.307-0.998c0.602-3.112,2.899-5.859,5.365-8.07c1.928,1.248,4.036,2.175,6.234,2.808          C347.128,185.879,346.829,186.359,346.543,186.889z"/>
							</g>
						</g>
					</g>
					<g>
						<g>
							<path style="fill:#5EAFAD;" d="M386.069,100.425c0,0,15.438-4.45,11.416-15.867c-3.373-9.565-19.43-9.675-74.41,5.115         c-18.781,5.036-37.894,12.542-54.79,20.174c-0.079,0.032-0.142,0.063-0.222,0.095c-0.016,0.016-0.016,0.016-0.016,0.016         c-31.243,14.109-54.901,28.583-54.901,28.583s-10.578-74.41,54.125-94.157c56.025-17.086,86.397,5.527,97.229,18.67         c38.258-5.321,43.737,3.23,46.857,9.58C414.998,80.061,417.676,100.584,386.069,100.425z"/>
							<path style="opacity:0.25;fill:#FFFFFF;" d="M275.896,60.181c0.74,1.286,1.736,2.458,3.021,3.199         c2.779,1.604,6.266,0.93,9.367,0.104c10.409-2.771,21.054-6.776,31.648-4.824c2.113,0.389,4.407,0.991,6.318,0.009         c2.076-1.066,2.909-3.79,2.321-6.048c-0.588-2.258-2.308-4.067-4.237-5.38c-3.681-2.505-8.174-3.504-12.592-4.054         c-8.346-1.039-16.867-0.651-25.084,1.144C278.315,46.154,270.469,50.754,275.896,60.181z"/>
							<path d="M213.145,140.639c-0.305,0-0.611-0.066-0.894-0.201c-0.639-0.3-1.084-0.903-1.183-1.602         c-0.108-0.762-10.072-76.421,55.591-96.459c61.932-18.891,91.784,10.029,99.459,19.343c0.738,0.894,0.609,2.218-0.285,2.954         c-0.894,0.738-2.218,0.609-2.954-0.285c-7.256-8.805-35.558-36.129-94.996-17.997         c-54.703,16.694-54.013,74.392-52.969,88.653c7.243-4.256,27.483-15.804,52.269-26.999c1.059-0.473,2.3-0.006,2.776,1.05         c0.476,1.055,0.006,2.298-1.05,2.776c-30.75,13.887-54.434,28.315-54.669,28.459         C213.906,140.535,213.526,140.639,213.145,140.639z"/>
							<path d="M268.046,112.057c-0.571,0-1.138-0.232-1.553-0.687c-0.609-0.671-0.704-1.628-0.306-2.386         c1.284-3.116,14.566-31.419,76.478-44.217c7.885-1.635,15.136-2.91,21.548-3.792c37.787-5.256,45.121,2.785,49.026,10.734         c2.018,4.113,4.202,13.036-0.407,20.389c-4.336,6.919-13.219,10.426-26.4,10.426c-0.125,0-0.247,0-0.374,0         c-1.044-0.006-1.924-0.776-2.068-1.811c-0.144-1.033,0.495-2.015,1.498-2.304c0.07-0.02,7.332-2.182,9.784-6.96         c0.963-1.877,1.039-3.905,0.232-6.193c-3.025-8.584-22.507-6.84-71.887,6.444c-16.398,4.392-34.75,11.151-54.548,20.091         C268.751,111.969,268.399,112.057,268.046,112.057z M385.347,63.476c-5.437,0-12.173,0.49-20.558,1.656         c-6.322,0.869-13.477,2.128-21.271,3.745c-46.358,9.582-64.284,27.69-70.513,36.574         c17.855-7.797,34.491-13.779,49.527-17.805c54.114-14.556,72.807-15.478,76.933-3.786c1.197,3.394,1.039,6.599-0.467,9.521         c-0.846,1.642-2.049,3.033-3.374,4.192c6.557-1.195,11.207-3.8,13.653-7.704c3.639-5.804,1.72-13.208,0.196-16.312         C407.511,69.566,404.517,63.476,385.347,63.476z"/>
						</g>
						<g>
							<g>
								<path style="fill:#FFA66F;" d="M224.829,110.041c-18.428-29.494-19.719-74.085-7.433-81.338          c13.85-8.177,56.622,32.315,58.806,50.292c0,0,8.128,13.407-16.371,27.473S224.829,110.041,224.829,110.041z"/>
								<path style="opacity:0.3;fill:#FFFFFF;" d="M228.683,69.427c4.141,15.935,17.264,38.361,29.062,29.01          c4.888-3.874,2.307-12.158,0.616-16.318C252.501,67.705,218.968,32.045,228.683,69.427z"/>
							</g>
							<g>
								<path d="M233.214,28.783c-7.257-3.58-12.936-4.217-16.885-1.887c-3.433,2.027-5.952,6.235-7.483,12.507          c-4.231,17.323-0.074,48.898,14.204,71.749c0.399,0.637,1.082,0.987,1.781,0.987c0.38,0,0.764-0.104,1.11-0.319          c0.982-0.614,1.282-1.908,0.668-2.892c-13.692-21.913-17.711-52.051-13.687-68.529c1.236-5.06,3.152-8.481,5.541-9.891          c2.57-1.519,7.152-0.795,12.894,2.038c17.699,8.731,41.277,34.482,42.761,46.702c0.141,1.151,1.191,1.978,2.337,1.829          c1.149-0.139,1.969-1.186,1.829-2.337C276.474,63.832,250.946,37.531,233.214,28.783z"/>
								<path d="M228.73,51.124c-5.691,1.888-3.872,11.641-2.007,18.814c3.433,13.217,12.167,28.967,21.59,32.124          c1.203,0.404,2.402,0.603,3.583,0.603c2.487,0,4.899-0.888,7.109-2.64c4.305-3.411,4.743-10.041,1.234-18.67          C256.268,71.592,237.431,48.249,228.73,51.124z M256.486,96.848c-2.194,1.74-4.449,2.187-6.886,1.37          c-7.675-2.57-15.814-17.21-18.956-29.301c-2.678-10.31-1.59-13.63-0.639-13.946c0.172-0.057,0.362-0.084,0.571-0.084          c5.239,0,21.654,17.532,25.907,27.995C257.774,86.059,260.362,93.777,256.486,96.848z"/>
							</g>
						</g>
						<g>
							<path style="fill:#5EAFAD;" d="M281.44,77.717c-49.125,6.847-57.824,36.085-57.824,36.085l6.831,5.632l33.826-11.548         l17.878-21.129L281.44,77.717z"/>
							<path d="M223.616,115.898c-0.199,0-0.402-0.029-0.603-0.09c-1.107-0.332-1.738-1.495-1.407-2.604         c0.37-1.246,9.656-30.611,59.545-37.566c1.127-0.161,2.207,0.64,2.368,1.789c0.159,1.147-0.642,2.207-1.789,2.368         c-47.039,6.557-56.019,34.332-56.104,34.612C225.35,115.312,224.516,115.898,223.616,115.898z"/>
						</g>
					</g>
				</g>
			</g>
		</g>
	</g>
</g>
<g>
</g>
<g>
</g>
<g>
</g>
<g>
</g>
<g>
</g>
<g>
</g>
<g>
</g>
<g>
</g>
<g>
</g>
<g>
</g>
<g>
</g>
<g>
</g>
<g>
</g>
<g>
</g>
<g>
</g>
</svg>
