<svg id="E-Commerce" height="512" viewBox="-70.866 -70.866 850.394 850.394" width="512" xmlns="http://www.w3.org/2000/svg"><g><path d="m625.932 134.782c-72.324-40.695-149.293-69-214.505-120.82-59.542-45.363-111.277-9.645-158.511 31.035-51.805 35.18-102.57 58.754-158.527 84.172-36.09 13.637-57.27 46.195-58.133 92.164 3.5 142.668 54.789 297.066 154.156 400.004 31.047 33.031 88.836 94.52 154.602 94.52 22.242 0 42.992-6.855 61.668-20.367 64.271-47.645 149.794-110.664 194.286-188.98 42.523-84.996 67.191-182.813 71.344-282.859 1.55-37.24-15.786-70.455-46.38-88.869z" fill="#fff"/><g><path d="m606.21 167.579c-38.254-23.008-81.5-39.594-120.711-61.352-33.617-18.656-67.329-38.383-97.657-62.129-18.34-14.348-41.145-17.195-62.258-5.609-17.859 9.816-33.918 26.25-50.902 37.984-16.086 11.121-32.875 21.18-49.82 30.906-39.453 22.645-81.141 41.332-122.477 60.199-20.996 9.59-27.477 33.359-27.871 54.48-.863 45.734 10.039 95.117 20.344 139.391 20.453 87.848 61.664 167.945 123.438 233.68 39.379 41.895 107.617 111.57 165.953 69.355 55.61-40.234 110.743-83.805 155.462-136.16 10.293-12.047 19.414-25.055 27.035-38.938 41.25-82.457 63.512-175.215 67.336-267.328.94-22.69-8.439-42.787-27.872-54.479z" fill="#68182b"/><path d="m550.593 164.341c-31.777-15.887-63.313-32.367-93.996-50.281-26.07-15.223-51.802-30.988-76.005-49.063-35.281-26.348-58.207 4.078-86.953 23.953-26.895 18.582-54.77 35.602-83.836 50.594-31.383 16.184-66.637 28.125-96.766 46.254-31.844 19.148-14.219 81.891-9.605 110.273 6.5 39.984 15.09 79.934 28.934 118.094 27.34 75.375 70.539 144.293 132.613 196.02 25.59 21.332 69.813 64.176 103.785 39.59 21.953-15.887 43.625-32.195 64.556-49.414 42.391-34.883 88.422-72.813 115.207-121.625 38.758-77.457 60.688-165.895 64.289-252.496 1.632-39.403-32.587-47.075-62.223-61.899zm15.558 90.148c-5.285 71.035-19.605 140.492-51.078 204.789-8.855 16.512-20.609 31.41-33.43 45.027-20.867 22.168-43.598 42.523-67.29 61.633-14.563 11.746-31.297 29.137-48.313 37.102-23.512 10.992-43.426-2.453-62.625-16.383-25.379-18.402-48.875-39.543-68.449-64.133-42.875-53.848-69.418-117.504-81.949-185.07-5.617-30.27-12.969-64.086-10.219-94.934 2.055-23.039 17.094-30.824 36.176-39.84 30.605-14.465 61.336-29.137 90.102-47.086 12.973-8.094 25.777-16.492 38.004-25.695 8.758-6.586 19.664-19.223 30.531-22.801 23.813-7.844 34.324 2.148 52.789 15.301 23.492 16.727 48.247 31.68 73.438 45.688 28.465 15.82 59.523 28.344 87.164 45.371 12.762 7.863 16.165 27.359 15.149 41.031z" fill="#ff2e60"/><path d="m506.382 205.087c-23.457-11.973-46.723-24.387-69.391-37.801-19.669-11.633-39.513-23.48-57.665-37.422-9.902-7.594-20.496-16.445-34.016-11.988-11.496 3.781-22.016 15.785-31.836 22.953-42.395 30.93-88.699 54.383-136.113 76.535-33.977 15.879-21.359 59.711-16.719 89.781 4.621 29.914 10.68 59.801 20.375 88.535 19.816 58.711 51.059 113.008 97.566 154.75 16.973 15.23 59.234 57.734 84.211 39.391 16.254-11.938 32.285-24.203 47.816-37.086 34.454-28.582 72.067-59.805 93.532-99.852 29.867-61.008 46.637-130.484 49.352-198.395 1.239-30.991-23.769-37.491-47.112-49.401zm10.48 86.871c-2.801 11.871-10.168 16.656-18.652 22.121-52.156 33.711-93.216 80.309-123.876 134.25-7.277 13.258-16.332 30.445-34.051 30.203-16.27-.223-27.27-11.23-36.723-23.27-19.816-25.191-40.137-50.715-65.973-70.063-7.48-5.379-13.75-9.656-15.859-19.215-1.949-8.859-1.57-19.242 3.777-26.996 5.918-8.582 16.473-14.336 27.16-14.969 14.652-.875 21.875 7.113 30.32 15.504 15.359 15.301 28.027 33.453 44.27 47.008 5.645 4.703 38.723-47.938 42.816-53.02 23.773-29.523 50.945-54.516 81.903-75.668 15.148-10.34 25.18-17.836 40.988-11.477 16.783 6.76 28.088 27.826 23.9 45.592z" fill="#00ebed"/><path d="m356.115 437.677c-3.383 6.168-7.527 18.813-15.832 19.762-9.281 1.066-16.977-10.93-21.813-17.086-19.98-25.406-40.48-50.051-65.934-70.07-6.141-4.832-13.59-10.285-9.914-18.68 6.707-15.293 22.625.043 24.887 2.195 18.113 17.289 32.918 37.711 51.941 53.578 10.461 8.727 23.902 2.266 31.301-6.672 17.547-21.188 29.344-47.027 47.563-68.34 22.684-26.535 50.29-48.191 79.884-66.457 11.91-6.023 26.008 18.68 15.504 26.07-58.051 35.821-103.982 86.602-137.587 145.7z" fill="#ff7a0d"/><path d="m609.971 206.606c2.547 79.75-21.914 162.891-52.563 235.262-18.586 43.895-52.457 81.23-85.898 114.375-16.684 16.527-34.387 32.023-52.501 46.953-19.09 15.734-39.512 32.879-63.324 40.914-41.059 13.871-82.477-32.199-108.453-57.492-33.539-32.641-60.699-70.406-82.094-111.969-21.898-42.535-36.883-88.434-48.477-134.734-9.309-37.199-19.031-77.746-21.938-116.965-1.832 25.297 5.875 55.688 8.707 73.121 6.5 39.984 15.09 79.934 28.934 118.094 27.34 75.375 70.539 144.293 132.613 196.02 25.59 21.332 69.813 64.176 103.785 39.59 21.953-15.887 43.625-32.195 64.556-49.414 42.391-34.883 88.422-72.813 115.207-121.625 38.758-77.457 60.688-165.895 64.289-252.496.318-7.653-.753-14.091-2.843-19.634z" fill="#ea0f4d"/><path d="m142.799 242.521c2.055-23.039 17.094-30.824 36.176-39.84 30.605-14.465 61.336-29.137 90.102-47.086 12.973-8.094 25.777-16.492 38.004-25.695 8.758-6.586 19.664-19.223 30.531-22.801 23.813-7.844 34.324 2.148 52.789 15.301 23.492 16.727 48.247 31.68 73.438 45.688 28.465 15.82 59.523 28.344 87.164 45.371 9.367 5.766 13.66 17.805 14.898 29.199-.246-13.23-4-25.641-15.359-35.66-27.449-24.199-67.309-35.148-98.539-53.738-21.094-12.551-41.282-26.57-62.032-39.676-12.227-7.723-25.477-17.367-40.512-17.652-12.883-.25-25.352 10.711-34.852 17.844-21.766 16.336-43.969 32.004-67.297 46.039-31.133 18.734-72.652 28.824-97.934 55.879-11.313 12.109-10.98 31.363-6.941 50.07-.367-7.861-.316-15.646.364-23.243z" fill="#ea0f4d"/><path d="m456.596 114.06c-26.07-15.223-51.802-30.988-76.005-49.063-35.281-26.348-58.207 4.078-86.953 23.953-26.895 18.582-54.77 35.602-83.836 50.594-31.383 16.184-66.637 28.125-96.766 46.254-4.293 2.582-7.629 6.004-10.27 9.98 14.059-10.863 32.168-17.391 48.098-23.969 24.18-9.98 47.93-20.977 71.266-32.781 15.953-8.066 31.477-16.836 46.668-26.242 24.512-15.176 47.055-38.25 74.484-47.836 26.992-9.434 55.93 20.922 76.879 34.117 25.927 16.336 52.997 31.234 79.974 45.75 22.582 12.152 45.672 23.586 69.594 32.867 9.578 3.715 18.801 7.27 27.508 11.395-12.359-10.469-30.195-16.512-46.645-24.738-31.777-15.887-63.312-32.367-93.996-50.281z" fill="#f69"/><path d="m565.807 258.63c-5.531 69.59-19.875 137.605-50.734 200.648-8.855 16.512-20.609 31.41-33.43 45.027-20.867 22.168-43.598 42.523-67.29 61.633-14.563 11.746-31.297 29.137-48.313 37.102-23.512 10.992-43.426-2.453-62.625-16.383-25.379-18.402-48.875-39.543-68.449-64.133-42.875-53.848-69.418-117.504-81.949-185.07-3.113-16.762-6.699-34.613-8.859-52.449-.352 9.867.633 19.828 1.996 29.598 3.578 25.766 7.988 51.5 14.434 76.715 11.359 44.406 34.344 85.613 60.75 122.711 22.402 31.469 49.012 60.547 80.074 83.617 28.461 21.141 53.801 24.086 83.523 4.199 35.484-23.738 69.728-55.316 98.45-86.766 28.43-31.133 46.043-67.102 59.063-106.848 13.945-42.582 22.617-87.066 24.281-131.855.227-6.031.028-12.023-.922-17.746z" fill="#f69"/><path d="m181.017 395.681c19.816 58.711 51.059 113.008 97.566 154.75 16.973 15.23 59.234 57.734 84.211 39.391 16.254-11.938 32.285-24.203 47.816-37.086 34.454-28.582 72.067-59.805 93.532-99.852 29.867-61.008 46.637-130.484 49.352-198.395.645-16.082-5.809-25.547-15.406-32.621 5.59 19.523 4.277 42.047 2.48 61.289-3.922 41.891-15.102 83.367-27.121 123.563-18.152 60.711-67.684 102.051-114.751 140.93-10.719 8.852-21.66 17.531-33.328 25.105-13.855 9-28.113 6.828-42.746.039-34.688-16.098-62.207-52.891-83.234-83.629-29.941-43.762-47.539-92.719-61.945-143.359-6.664-23.426-11.402-47.145-16.391-70.953-1.945-9.289-4.094-19.445-5.195-29.676-4.043 19.301 1.906 43.289 4.785 61.969 4.621 29.914 10.68 59.8 20.375 88.535z" fill="#19bfbb"/><path d="m516.862 291.958c-2.801 11.871-10.168 16.656-18.652 22.121-52.156 33.711-93.216 80.309-123.876 134.25-7.277 13.258-16.332 30.445-34.051 30.203-16.27-.223-27.27-11.23-36.723-23.27-19.816-25.191-40.137-50.715-65.973-70.063-7.48-5.379-13.75-9.656-15.859-19.215-.855-3.898-1.227-8.09-.957-12.223-1.414 3.809-1.883 8.008-1.152 12.012 3.367 18.566 19.137 29.199 32.348 41.133 17.031 15.379 31.23 33.141 45.563 50.965 11.582 14.406 22.648 28.578 42.082 30.336 13.84 1.262 24.348-9.504 31.539-19.723 13.797-19.59 24.984-41.047 38.887-60.668 22.813-32.211 48.278-56.809 80.282-79.453 19.906-14.078 34.434-29.285 26.988-49.359.609 4.352.546 8.743-.446 12.954z" fill="#6cfffb"/><path d="m275.181 174.485c13.961-7.855 27.613-16.453 39.965-26.684 18.742-15.531 34.938-26.781 58.047-13.414 27.949 16.164 53.598 35.016 82.618 49.723 15.465 7.832 31.395 14.777 47.664 20.766 3.344 1.223 7.41 2.918 11.699 4.488-2.918-1.379-5.863-2.789-8.793-4.277-23.457-11.973-46.723-24.387-69.391-37.801-19.669-11.633-39.513-23.48-57.665-37.422-9.902-7.594-20.496-16.445-34.016-11.988-11.496 3.781-22.016 15.785-31.836 22.953-42.395 30.93-88.699 54.383-136.113 76.535-6.441 3.012-11.195 7.035-14.664 11.773 16.73-10.52 35.301-16.941 53.422-24.957 20.157-8.917 39.86-18.882 59.063-29.695z" fill="#6cfffb"/><path d="m493.702 291.978c4.375-3.078 4.449-9.164 2.219-14.777-11.535 17.441-36.543 27.031-52.805 39.617-24.88 19.262-46.024 44.742-64.86 69.793-9.035 12.023-16.391 25.148-24.117 38.027-8.176 13.625-17.41 21.957-32.242 10.16-8.102-6.449-15.02-15-22.066-22.531-11.281-12.07-22.48-24.172-34.887-35.102-5.152-4.543-11.238-8.004-17.531-11.109 1.641 1.492 3.418 2.887 5.125 4.227 25.453 20.02 45.953 44.664 65.934 70.07 4.836 6.156 12.531 18.152 21.813 17.086 8.305-.949 12.449-13.594 15.832-19.762 33.603-59.098 79.534-109.879 137.585-145.699z" fill="#ef6200"/></g></g></svg>