<svg id="Galaxy" enable-background="new 0 0 256 256" viewBox="0 0 256 256" xmlns="http://www.w3.org/2000/svg"><g><g><path d="m223.71518 193.63089c-39.71776 24.63779-103.81503 22.13489-137.64038-4.94646-8.96774-7.17978-22.92812-21.63828-28.37314-40.73921-1.51612-5.31848-1.79546 6.45555-.49286 12.47102 7.1371 32.95943 36.7244 50.11012 54.57187 56.6889 23.30444 8.5903 35.19032 7.61208 35.26472 10.91942.10974 4.8792-22.11038 6.35451-41.78684 1.75575-62.96188-14.71538-76.24704-73.86319-73.52854-95.32347 6.55322-51.73222 47.8299-61.76154 43.73148-62.24436-1.61023-.19817-20.40741-.13397-38.8146 17.77465-16.00735 15.57378-19.69123 37.64004-19.09533 55.83737.56577 17.2773 5.6613 26.00269 3.70181 27.50351-3.20079 2.45155-13.61534-5.20953-18.66123-28.28352-5.23301-23.9297 3.16448-52.13851 21.26428-70.1676 28.28586-28.17535 62.15927-27.07611 71.04195-27.02663 60.36368.33628 82.33884 30.44837 80.75517 27.67789-2.40634-4.20969-18.43997-37.01216-73.25777-40.40586-23.7468-1.47013-27.56274 1.97452-29.049-1.46815-1.41129-3.29406 4.28695-8.29105 25.33394-9.81325 46.37825-3.35425 80.49741 15.92929 95.61664 30.26917 27.44028 26.02583 33.14207 55.02382 30.26917 77.22882-4.82353 37.28169-40.19609 46.53517-54.63159 48.19136-1.93163.22162 16.64819 3.42142 35.40149-3.38124 15.58693-5.65408 31.19521-19.06764 33.75937-44.30792 2.45483-24.16401-5.95764-32.27054-2.75452-34.10089 3.20311-1.83035 16.54733 10.2542 18.34605 31.6543 2.49463 29.67981-13.99561 53.70549-30.97214 64.2364z" fill="#7236c7"/><path d="m94.15035 219.35184c-2.78992 2.56989-57.61801-24.23656-55.75921-84.00847 1.20109-38.61248 29.77181-51.20158 37.99557-55.36184 8.64043-4.37083 11.2141-13.97441-2.13221-14.85526-3.74928-.24741-22.93853 1.53098-42.85918 19.80563-21.76222 19.96439-19.35522 51.22137-20.9833 51.11153-4.9855-.33643-5.24583-34.54553 16.69684-56.57153 16.07288-16.13366 43.2541-25.10174 66.33772-24.5327 48.59032 1.19781 67.62129 19.07303 76.38019 25.22967 6.60394 4.64201 16.92548 1.28735 11.33186-8.64732-6.07364-10.78642-16.24023-19.84661-26.64511-26.10242-18.94958-11.39282-35.98388-11.83514-35.6898-14.25333.29408-2.41837 16.19064-1.20006 37.66637 7.74323 11.41452 4.75358 23.37793 12.24577 32.62027 20.31785 30.03972 26.23551 30.04385 56.39488 28.12651 71.20744-4.5647 35.29587-41.11125 41.75105-48.43903 42.0892-8.30571.38326-16.34766 14.62988 10.48203 15.00264 6.86014.09521 17.31322-.80957 28.1265-4.74789 37.50108-13.65881 33.9901-44.68166 39.15741-42.72437 3.17215 1.20145-.84158 32.00044-26.90131 47.58383-16.75882 10.02161-53.16005 17.29962-76.16263 13.58839-47.34743-7.63872-68.71779-26.48103-79.34994-55.2148-3.83812-10.37268-14.16793-8.01956-14.9379 1.36311-.51033 6.22171.83126 17.40172 3.18799 23.10811 15.41448 37.32686 45.22416 45.6689 41.75036 48.8693z" fill="#9749f2"/><g fill="#7236c7"><path d="m86.99861 95.74728c-3.41091 3.4779-5.70033 7.76836-6.74181 12.2756-1.08172 4.51225-.77424 9.24778.28778 13.71659 1.15812 5.3664 5.19234 14.7117 10.12434 20.74072 7.45168 9.10916 17.90531 14.84172 27.13557 17.80344 4.61103 1.50101 9.45245 2.48999 14.35935 3.01793 2.45284.26556 4.44324.48703 7.38435.40376 2.94113-.08328 7.1803-.73116 7.1803-.73116 1.248-.32451 2.52278.42412 2.84731 1.67212.28549 1.09792-.26068 2.2166-1.24565 2.69073-.90897.43829-5.08162 1.53249-8.39606 2.00885-1.90964.27444-5.36647.50951-8.05887.54962-5.38264.07307-10.79503-.39938-16.16058-1.46948-10.68697-2.10149-23.70668-6.6954-34.3016-21.0547-7.51664-10.18733-8.91082-18.68016-9.32932-24.38778-.39521-5.68565.21921-11.54223 2.43896-16.82233 2.16782-5.28 5.78225-9.86642 10.21001-13.08894.78479-.57115 1.884-.39799 2.45515.3868.51285.70464.4256 1.6628-.16567 2.26456z"/><path d="m96.80074 82.68951c4.77197-3.70358 10.42496-6.11242 16.24965-7.64885 2.93295-.70692 5.91997-1.19715 8.93332-1.4686 3.01692-.19927 6.04907-.20988 9.07106.01487 6.00496.58942 12.03214 1.84929 17.56633 4.59102 2.75702 1.33955 5.34421 3.0453 7.66286 5.06268 2.30078 2.02713 4.38791 4.37537 5.71753 7.26237.27284.5924.01378 1.29381-.57861 1.56664-.46043.21204-.98669.1028-1.32642-.23451l-.05055-.05088c-1.90178-1.89661-4.16402-3.4575-6.47299-4.85088-2.33585-1.36926-4.76653-2.55042-7.27979-3.52705-2.52344-.95933-5.07413-1.79082-7.73276-2.38558-2.63997-.70061-5.35063-1.07285-8.0587-1.37857-5.42875-.55363-10.9379-.36664-16.34769.55498-5.39928.94669-10.71363 2.59377-15.64113 5.13208l-.02117.01091c-.77512.39929-1.72717.09463-2.12644-.68049-.35392-.68704-.15413-1.51323.4355-1.97014z"/><path d="m177.12959 98.71705c1.83034.3364 3.30878.83186 4.88695 1.47609 1.55434.62544 3.0472 1.40382 4.49446 2.29148 2.88463 1.78439 5.54529 4.08321 7.76997 6.87157 4.5743 5.52039 6.6895 13.34373 5.78148 20.57439-.82826 7.3177-4.46877 13.88744-9.27115 18.75636-4.81929 4.90945-10.89738 8.24118-17.24205 9.69176-.70029.16011-1.39778-.2778-1.55788-.9781-.1134-.49602.0732-.99062.44055-1.29387l.0305-.0247c4.77991-3.92993 8.98633-7.98311 12.08244-12.62776 3.13399-4.56865 5.24307-9.57828 5.73329-14.62614.26793-2.52036.11501-5.04335-.37326-7.49679-.4417-2.47028-1.38332-4.853-2.65404-7.17377-1.27298-2.31998-2.91716-4.55143-4.81255-6.69353-.94389-1.07684-1.96886-2.10788-3.03116-3.13497-.52992-.51852-1.07809-1.01734-1.64392-1.50164l-1.63474-1.4207-.20699-.17989c-.60185-.52305-.66573-1.43498-.14267-2.03684.34656-.39876.86614-.56071 1.35077-.47295z"/></g><path d="m129.47153 233.6021c-7.59787 0-16.46985-.92288-24.45752-2.78653-34.65527-8.10063-52.8827-29.29366-62.07148-45.64641-10.53866-18.75499-13.75219-39.05269-12.26251-50.84756 3.51312-27.73371 17.31145-48.20358 41.01827-60.86554-6.45047.70317-20.48779 3.82579-34.31642 17.28252-16.47811 16.04215-19.30458 38.79097-18.77496 55.05008.31199 9.51936 2.00966 16.38719 3.13364 20.9313 1.04684 4.23419 1.57233 6.35956.15083 7.44221-.97522.7507-2.35884.85951-3.89397.2989-5.44082-1.98349-12.63303-11.77834-16.43747-29.18896-5.34096-24.40173 3.32234-52.99014 21.55666-71.13905 18.46296-18.39824 42.3702-27.61389 71.02128-27.34598l.77135.0062c41.09403.23072 65.01298 14.2515 76.28855 23.44167-13.65302-20.11175-37.84193-32.13458-68.86011-34.05333-11.24597-.69284-18.06284-.27824-22.13932-.02961-4.77208.29477-6.74937.41254-7.81963-2.07647-.48072-1.11984-.36639-2.31614.3299-3.46008 2.44355-4.01588 11.64266-6.7962 25.90312-7.82858 43.94804-3.18047 78.62742 13.69296 96.41683 30.55261 31.52919 29.90729 32.69725 61.78704 30.58841 78.1281-4.40224 33.97964-33.57466 44.65192-48.39297 47.8985 6.59923.22589 17.08141-.34023 27.7468-4.2149 11.11166-4.02621 30.18346-15.01942 33.07742-43.41774 1.49174-14.67094-1.03169-23.17101-2.53996-28.24957-.99174-3.33956-1.64603-5.5462.31129-6.66811.65703-.37397 1.84299-.60606 3.79066.41736 5.83476 3.06821 14.69849 15.04835 16.13513 32.07673 2.51379 30.00096-13.99324 54.37445-31.46722 65.22028-39.7951 24.68341-104.68411 22.33904-138.86417-5.01657-6.35061-5.09096-21.39895-18.79631-27.97063-38.81026-.02962 2.79616.19215 6.67636.79821 9.4863 7.86508 36.34882 43.24763 51.9922 53.90475 55.92061 11.90369 4.38708 20.7977 6.26039 26.68343 7.50006 6.33064 1.33336 9.22047 1.94217 9.27419 4.3871.01378.63499-.19835 1.57852-1.2934 2.46834-2.56475 2.08264-9.22459 3.13638-17.33898 3.13638zm-54.6279-162.45599c.4642 0 .71902.01515.73968.01722.9394.11019 1.15084.72521 1.19767.98417.17631.9704-.45524 1.29546-2.80581 2.50416-23.85146 12.26456-37.71177 32.42934-41.19596 59.93579-2.52826 20.01395 10.00973 79.51033 72.71689 94.1675 17.23845 4.02345 35.96726 3.32648 39.98107.06886.34436-.28099.51653-.54269.51102-.77824-.01653-.76997-3.86917-1.58128-7.59511-2.36504-5.94495-1.25208-14.92988-3.14465-26.97957-7.58408-10.91194-4.02345-47.14711-20.05803-55.23947-57.46057-.41874-1.93941-1.96903-14.42712.55717-15.05798 1.32026-.31818 1.76723 1.29616 1.98831 2.0744 5.92567 20.77016 21.56699 35.03888 28.01746 40.20972 33.55539 26.85837 97.30527 29.138 136.42545 4.86919 16.92714-10.5056 32.9135-34.13528 30.47548-63.24435-1.50139-17.77977-10.76318-28.14626-15.01253-30.38043-1.08817-.57301-1.63776-.52067-1.75484-.45386-.50414.28857.01239 2.02757.66667 4.22937 1.45042 4.88503 4.15018 13.97878 2.61572 29.06638-3.01105 29.54846-22.88312 40.9976-34.46036 45.19186-17.73294 6.43944-35.65735 4.17221-36.6243 3.22041-.29063-.28789-.40082-.74243-.26721-1.12811.08678-.24657.33333-.67357 1.02205-.74794 8.0593-.93114 48.55139-7.58823 53.69469-47.2883 2.05925-15.94229.90634-47.05827-29.94518-76.32161-6.03035-5.71561-38.95351-34.02096-94.80799-29.97754-19.51051 1.41255-23.49263 5.57581-24.24815 6.81755-.33472.55028-.39808 1.0496-.19353 1.5255.43871 1.01723.97453 1.09161 5.7466.80028 4.12263-.25275 11.02558-.67356 22.39758.02962 34.35017 2.12399 60.55013 16.44918 73.77338 40.33575l.33609.59987c.51241.89739-.02066 1.40841-.19696 1.5434-.7507.58334-1.33473.01584-2.00554-.64601-8.14745-8.02763-32.20276-26.72889-79.47728-26.99404l-.77686-.0062c-28.13868-.24863-51.46326 8.74525-69.51025 26.72957-17.74326 17.65993-26.17516 45.4639-20.98296 69.18793 4.15982 19.03737 11.69294 26.41345 15.09517 27.65314.82783.30165 1.49726.30441 1.88294.00964.26515-.46695-.36364-3.01105-.91874-5.25487-1.14464-4.63089-2.87468-11.6282-3.19355-21.37071-.54408-16.68472 2.38225-40.05407 19.41408-56.63548 17.53941-17.06764 35.15802-18.07592 38.93698-18.07592zm148.87666 122.48455h.01376z" fill="#300f0f"/></g><g><path d="m94.07742 105.6917c6.32059-14.84738 30.98125-17.63758 48.00487-11.50111 21.50201 7.75079 36.34431 26.18314 27.84364 44.14775-6.80441 14.3799-32.8389 17.17194-50.59566 10.1075-23.25247-9.25086-31.62693-27.78138-25.25285-42.75414z" fill="#d1aeff"/><path d="m172.35291 127.53006c.05647 3.5685-.71899 7.19347-2.4256 10.80415-6.81262 14.38676-32.83583 17.17944-50.59327 10.11304-23.25808-9.25269-31.63612-27.78593-25.26151-42.75105 1.11432-2.62343 2.80714-4.866 4.92283-6.75614-.26791 4.27373.08471 9.88732 2.511 15.75487 7.96895 19.33749 30.86063 23.04683 33.75181 23.48415 17.30633 2.52478 30.84686-5.78284 37.09474-10.64902z" fill="#be8cfb"/><path d="m147.88065 106.09187c-2.36705-1.06645-4.6501-2.10242-6.98686-2.95074-2.32849-.8595-4.67558-1.56214-7.05296-2.1162-2.38841-.48914-4.78647-.92165-7.23618-1.15736-2.45108-.27824-4.93178-.37792-7.53782-.55406l-.01515-.00086c-.57645-.03891-1.01239-.53804-.97314-1.11449.02618-.40134.27755-.73502.62189-.88705 2.51858-1.10863 5.25892-1.62601 8.01579-1.76789 2.75824-.10555 5.55229.17028 8.22997.8812 2.68042.6899 5.28371 1.69334 7.66109 3.07074 2.38635 1.35278 4.58951 3.0134 6.43315 5.01305.37328.40616.34779 1.0389-.05785 1.41286-.30373.27962-.73416.33609-1.08815.17699z" fill="#fff" opacity=".7"/><path d="m153.84343 108.15256c.83669.19172 1.37601.67381 1.79039 1.23238.36775.59338.65457 1.25019.60794 2.08691-.03343.58841-.56659 1.04024-1.19037 1.00936-.07126-.00352-.14076-.01327-.20764-.0284l-.08885-.02094c-.86044-.20125-1.38745-.58261-1.83438-1.02718-.45311-.43898-.81558-.92998-.86133-1.72462l-.00792-.12394c-.04399-.75401.56923-1.39901 1.36984-1.44025.14342-.00747.28946.00683.42232.03668z" fill="#fff" opacity=".7"/><path d="m139.58594 153.19917c-7.11714 0-14.37616-1.27548-20.64619-3.77-12.57036-5.00142-21.71507-13.08965-25.7523-22.77499-2.92908-7.03036-2.95939-14.62202-.08402-21.37691 6.49868-15.25977 31.21928-18.61242 49.33652-12.08206 13.81142 4.97869 24.62418 14.16679 28.92174 24.57941 2.88432 6.98973 2.71904 14.2577-.47934 21.01534-4.60885 9.74251-17.69023 14.40921-31.29641 14.40921zm-44.53483-47.09269c-2.68941 6.31617-2.65842 13.13992.08953 19.73364 3.81546 9.15504 12.54556 16.83417 24.58148 21.6221 17.40649 6.92705 42.70699 4.24797 49.24837-9.57585 2.93529-6.20529 3.08681-12.88097.43527-19.30389-4.07442-9.8713-14.42299-18.61724-27.68207-23.3969-17.20124-6.1984-40.81165-2.84506-46.67258 10.9209z" fill="#300f0f"/></g><g><path d="m25.96454 46.22158c.29406-2.55634 1.17437-3.56242 1.61591-3.56242.34955 0 1.857.58428 2.29213 3.47467 2.31429.16832 3.94497 1.5085 3.96763 2.29966.02224.77582-1.24222 2.04026-3.46751 2.71068-.32666 2.25843-1.4372 4.0975-2.23424 3.98056-.73704-.10814-2.07315-1.83836-2.32105-4.01444-1.79188-.19847-3.5665-.98516-3.77806-1.84237-.23587-.95567 1.69714-2.70743 3.92519-3.04634z" fill="#f7f2f0"/><path d="m28.21168 56.18799c-.08265 0-.15909-.00689-.22659-.01653-1.27687-.18733-2.60539-2.02826-3.0806-4.13227-1.77688-.34986-3.57097-1.21558-3.89191-2.51793-.09504-.38499-.10193-1.00414.40841-1.76792.71075-1.06544 2.12192-1.99107 3.60196-2.40773.40703-2.29892 1.37605-3.74453 2.55718-3.74453.68733 0 2.48487.66805 3.18529 3.58268 2.24175.4146 4.09163 1.8058 4.13227 3.21973.03788 1.32646-1.41186 2.73074-3.5937 3.54273-.35882 1.70387-1.12053 3.20044-1.98349 3.8437-.41942.31267-.80854.39807-1.10882.39807zm-5.10611-7.144c.2803.30716 1.35538.85194 2.82854 1.01447.49105.05441.8788.44147.93458.93183.17149 1.50415.9215 2.59093 1.32646 2.97248.33196-.38223.90841-1.4339 1.13087-2.97041.05854-.40703.34849-.74312.74174-.86158 1.70525-.51309 2.51655-1.32577 2.68873-1.65084-.24449-.37328-1.32164-1.17218-2.96077-1.29133-.49312-.03581-.89532-.40841-.96902-.89739-.23278-1.54615-.781-2.18666-1.10538-2.43666-.22176.35193-.5489 1.1226-.70593 2.48832-.05441.47383-.42011.85262-.89188.92494-1.57922.23966-2.80031 1.2927-3.01794 1.77617zm2.85884-2.82234h.01377z" fill="#300f0f"/></g><g><path d="m204.94995 94.12437c.31387-2.7286 1.20465-4.25325 1.97729-4.28156.80063-.02934 1.67609 1.10335 2.14053 4.18852 2.49478-.01539 4.28546 1.29363 4.30965 2.1381.02374.8281-1.45561 2.15012-3.80656 2.3582-.34868 2.41063-1.5298 4.2788-2.38963 4.2855-.84895.00661-2.08856-1.97141-2.07191-3.93775-1.92947-.18681-3.86429-.66217-3.83931-1.69978.02528-1.05037 1.17597-2.21706 3.67994-3.05123z" fill="#f7f2f0"/><path d="m207.17744 103.87092c-.36226 0-.91324-.12672-1.50552-.7197-.77274-.77204-1.35126-2.04961-1.54823-3.32303-1.54546-.21557-3.95595-.7996-3.91188-2.6784.02342-.9091.56062-2.56407 3.7769-3.80444.43939-2.81889 1.50276-4.509 2.89948-4.55996 1.05649-.02755 2.37743.69491 3.07716 4.23627 2.39671.26997 4.42841 1.62949 4.46973 3.11848.04134 1.46075-1.70662 2.87743-3.96146 3.32578-.50002 2.24796-1.72592 4.3926-3.28378 4.405-.00414 0-.00826 0-.0124 0zm-4.8375-6.76315c.21764.17425 1.00276.53375 2.87192.71488.54547.05303.96144.51447.95593 1.06268-.01239 1.30235.67081 2.50416 1.05373 2.82716.25208-.25552 1.02756-1.44079 1.30305-3.33681.07024-.48486.46556-.85814.95317-.90153 1.62811-.14463 2.59369-.89463 2.80994-1.26034-.27272-.37672-1.43251-1.12466-3.17633-1.12466-.01515.00069-.02756.00275-.04408 0-.52342 0-.96832-.38224-1.04546-.90015-.33058-2.19562-.81682-2.96146-1.03032-3.20251-.25757.31887-.76033 1.25896-.99037 3.25898-.04683.4084-.32645.75276-.71625.88224-2.14466.71422-2.84438 1.5572-2.94493 1.98006zm2.61021-2.98349h.01378z" fill="#300f0f"/></g><g><path d="m78.67205 47.8847c.87595-2.51107 1.48901-4.30169 2.40163-4.24701.88572.05303 1.51156 1.61199 1.9465 4.06368 2.64426.57317 4.39812 1.36787 4.37357 2.25911-.02373.86071-1.67624 1.53786-4.10882 2.06042-.22728 2.70215-1.26215 4.10405-2.24406 4.10288-.96073-.00114-1.7111-1.47754-2.26452-3.92616-2.00945-.45974-3.71004-1.02572-3.78776-1.95658-.05923-.70947 1.05952-1.59207 3.68346-2.35634z" fill="#f7f2f0"/><path d="m81.04134 57.1818c-.00069 0-.00069 0-.00138 0-1.7872-.00276-2.64947-2.18459-3.14052-4.10541-1.94699-.48278-3.83475-1.18183-3.9656-2.74727-.1102-1.32095 1.20662-2.42977 3.91601-3.29893.96558-2.75622 1.69492-4.56202 3.28653-4.44838 1.65015.09848 2.37537 2.19492 2.79411 4.24384 3.1178.76171 4.55858 1.77412 4.5207 3.16394-.04408 1.59505-2.04478 2.37812-4.20251 2.89741-.39671 2.63501-1.61435 4.2948-3.20734 4.2948zm-4.93117-6.98215c.19146.12672.84436.49656 2.90154.96695.3967.09022.70662.40083.79615.79753.6343 2.80305 1.26861 3.10609 1.2748 3.10884.16322-.02755.95387-.82921 1.14809-3.14121.03925-.4635.37741-.8478.83265-.9456 2.02688-.43526 2.83267-.84229 3.13776-1.05373-.36433-.26928-1.33541-.74863-3.40498-1.19698-.42011-.09091-.74312-.42631-.8175-.84918-.35193-1.9828-.72934-2.76311-.92976-3.0565-.3843.5551-.91116 2.06544-1.34574 3.31063-.11226.32301-.40703.66461-.73554.76034-1.81476.52824-2.60265 1.0434-2.85747 1.29891zm2.562-2.31476-.99863-.34849z" fill="#300f0f"/></g><g><path d="m195.18346 34.99405c.59315-2.29274 1.04305-3.52266 1.97498-3.51534.96732.00762 1.75053 1.62413 2.1178 3.51534 2.09724.13996 3.65352.73317 3.77959 1.47964.13034.77272-1.3461 1.69102-3.46956 2.29109-.58385 2.41885-1.40652 3.96096-2.39473 3.89169-.97408-.0683-1.5589-1.74386-2.04756-3.73955-1.9686-.40873-3.42931-.94024-3.51178-1.75511-.08453-.83544 1.35822-1.79785 3.55126-2.16776z" fill="#f7f2f0"/><path d="m197.26689 43.71681c-.04959 0-.09918-.00207-.15015-.00551-1.59367-.11157-2.32509-1.97454-2.83749-3.90086-1.90359-.44559-3.55374-1.10469-3.69975-2.54203-.13911-1.38569 1.34299-2.62123 3.74797-3.18116.50827-1.89671 1.13637-3.6667 2.82095-3.6667h.01791c1.32094.01102 2.38293 1.30924 2.97385 3.59438 1.49313.18871 3.69563.73003 3.95872 2.2817.28513 1.69699-1.93253 2.75347-3.63226 3.3065-.38981 1.47316-1.28651 4.11368-3.19975 4.11368zm-4.48489-6.6681c.24655.16667.90221.48485 2.57716.83265.39944.08333.71487.38774.81267.78375.58954 2.40498 1.01103 2.85953 1.14326 2.94424-.01102-.05785.62259-.5248 1.24243-3.093.09091-.37122.37329-.66529.74106-.76929 1.36916-.38705 2.17357-.83334 2.53032-1.11778-.39944-.20937-1.26309-.48898-2.6226-.5792-.47934-.03237-.87604-.38292-.96834-.854-.32645-1.68252-.90358-2.5682-1.13911-2.66807-.24657.2383-.7328 2.11503-.89258 2.73143-.1033.40358-.43665.70868-.84711.77824-1.48074.24931-2.29066.73692-2.57716 1.01103zm2.40085-2.05443h.01378z" fill="#300f0f"/></g><g><path d="m246.45667 170.4696c.91542-2.19345 1.32332-3.95212 2.02019-3.91255.98949.05617 1.15236 1.04245 2.32924 3.55527 1.93713.62836 3.69583 1.15692 3.79803 2.15565.11203 1.09473-1.55214 1.72353-3.55688 2.40337-.65814 2.33946-1.73227 4.1895-2.60068 3.79446-.97133-.44186-1.98473-2.48018-2.08882-3.84222-1.84033-.8224-3.61449-1.08473-3.5592-2.05571.04506-.79143 1.41635-1.58566 3.65812-2.09827z" fill="#f7f2f0"/><path d="m248.68883 179.57544c-.23279 0-.46281-.0482-.68045-.14738-1.30167-.59091-2.2879-2.55925-2.60608-4.05927-.30992-.12396-.61296-.23416-.89946-.33884-1.39809-.51103-2.84438-1.03996-2.76036-2.52206.08678-1.55925 2.07854-2.44768 3.93668-2.93666.15289-.38431.29063-.7507.41875-1.09093.66667-1.77136 1.15289-3.01656 2.43941-2.97935 1.42149.08127 1.88707 1.14601 2.59369 2.75621.12947.29477.27411.62398.44078.99174 2.12398.68872 3.92151 1.31819 4.08405 2.91188.18871 1.83197-1.80029 2.66118-3.75072 3.33611-.44353 1.40222-1.25621 3.34576-2.47385 3.91051-.24244.11294-.4945.16804-.74244.16804zm-4.68462-7.0276c.30028.15703.81819.34711 1.22453.49449.48761.17906 1.02205.37466 1.56061.61571.35538.1584.59367.49863.62398.88568.07713 1.02618.78513 2.35126 1.27274 2.81407.30579-.3416.86778-1.28651 1.34299-2.97247.09367-.33609.3485-.60332.6777-.71489.72589-.24655 2.65428-.90083 2.85126-1.33334-.20662-.28926-1.85953-.8237-2.84714-1.14325l-.2314-.07439c-.27824-.09091-.5069-.2934-.63223-.55786-.26035-.55647-.47108-1.03995-.65428-1.45456-.19559-.44627-.40909-.93388-.57576-1.23279-.16667.36365-.36639.89395-.53857 1.35126-.19008.50276-.40083 1.06198-.64601 1.65152-.13223.31543-.40771.54684-.74106.62398-1.57853.36088-2.36779.79063-2.68736 1.04684zm2.45181-2.07854h.01378z" fill="#300f0f"/></g><g><path d="m173.22508 222.69377c-.62787 1.952-1.59389 3.73518-2.36156 3.70518-.67805-.02649-1.74991-2.00423-2.2289-3.71561-2.10316-.435-3.48334-1.50157-3.46022-2.0966.02148-.55258 1.01208-1.15886 3.29764-2.1237 1.03728-2.90436 1.86635-3.97211 2.5444-3.94559.51526.02016 1.46989 1.13029 2.45914 4.11812 2.57608.53734 3.53659 1.31715 3.51683 1.82259-.02686.68787-1.82177 1.85197-3.76733 2.23561z" fill="#f7f2f0"/><path d="m170.88235 227.45741c-.01929 0-.03857 0-.05923-.00139-1.52893-.06198-2.5992-2.67082-3.01656-3.88432-1.95869-.53857-3.74245-1.67908-3.68874-3.0262.04546-1.13637 1.17357-1.8609 3.51657-2.87605 1.13361-3.03447 2.15842-4.26588 3.42427-4.20804 1.14464.04271 2.22867 1.47935 3.22592 4.27139 3.15154.77136 3.79755 1.91737 3.7645 2.76587-.05647 1.427-2.24245 2.59781-4.0083 3.08818-.6708 1.88707-1.71764 3.87056-3.15843 3.87056zm-4.44081-6.82237c.38568.3044 1.18872.76033 2.40773 1.01241.38705.07988.69698.36914.80441.75069.33611 1.2025.89946 2.26035 1.26311 2.74796.31406-.40221.82645-1.2989 1.30167-2.7755.11708-.36639.42424-.63913.80165-.71352 1.21765-.24104 2.2149-.7934 2.68735-1.16667-.37741-.22314-1.1281-.54408-2.44768-.81956-.36914-.07713-.66942-.34573-.78789-.70248-.63498-1.91461-1.20386-2.86366-1.52066-3.24797-.25345.29753-.76448 1.08679-1.48349 3.09782-.09918.27962-.31129.50415-.58403.61847-1.42976.60468-2.11435.97795-2.44217 1.19835z" fill="#300f0f"/></g><g><path d="m121.19176 189.1048c.59503-2.8446 1.9398-4.02676 2.4952-4.02702.5554-.00027 2.26517 1.26303 2.65698 3.65681 2.52985.40106 3.87117 1.22295 4.11458 2.19598.15437.61707-1.44682 1.80754-4.13086 2.42453-.58622 2.49901-1.37577 4.41806-2.6407 4.41806-.86383-.00002-2.14581-1.66971-2.76284-4.4155-2.12875 0-4.02072-1.07608-4.02072-2.12503 0-.86346 1.98452-2.0362 4.28836-2.12783z" fill="#f7f2f0"/><path d="m123.68635 198.83043c-1.43114 0-2.82922-1.76309-3.59645-4.46284-2.1777-.24931-4.24384-1.44629-4.24384-3.13501 0-1.56476 2.23143-2.79617 4.49591-3.1116.74932-2.69562 2.19975-4.10059 3.34438-4.10059h.00275c1.09367 0 2.87331 1.45593 3.53309 3.79893 3.07027.63361 4.0207 1.88431 4.26313 2.85402.06886.27686.08678.71213-.2204 1.21489-.56474.9201-2.09093 1.79065-4.06064 2.33611-.58678 2.26448-1.5372 4.60609-3.51793 4.60609zm-5.69289-7.5345c.21626.32233 1.33334 1.00415 2.93115 1.00415.49449 0 .92425.34297 1.03169.82645.54132 2.40361 1.51929 3.48625 1.80442 3.59645-.00137-.01791.73692-.20248 1.5372-3.61023.09229-.39256.39945-.69835.7934-.78789 1.77688-.40909 2.8127-1.02756 3.20526-1.36777-.3168-.35677-1.19974-.87329-3.11986-1.17908-.45042-.07162-.80441-.42287-.87742-.87329-.25207-1.54408-1.1529-2.43115-1.58404-2.7025-.33884.27962-1.08403 1.18459-1.48762 3.11848-.09917.4752-.50964.82094-.99312.84023-1.66391.06749-2.92426.76723-3.24106 1.135zm3.19837-2.19148h.01378z" fill="#300f0f"/></g><g><path d="m52.40101 113.00994c.58668-2.74345 1.37748-3.84531 2.08659-3.84532.68546-.00001 1.6997 1.4264 2.45751 3.79332 2.5863.38945 3.36497 1.06531 3.39177 2.04113.02565.93473-1.2678 2.06457-3.29627 2.24488-.58319 2.52904-1.637 4.28831-2.53394 4.10949-1.00734-.20084-1.75122-1.8362-2.03013-4.05266-2.02847-.23714-3.47834-1.06686-3.46763-2.18584.01027-1.07199 1.69273-1.73559 3.3921-2.105z" fill="#f7f2f0"/><path d="m54.64786 122.42549c-.11502 0-.23141-.01171-.34849-.03513-1.34643-.26791-2.31063-1.73624-2.7514-4.16533-2.25346-.45179-3.61091-1.60883-3.59714-3.11986.01308-1.34988 1.21213-2.34713 3.56683-2.97041.67081-2.7087 1.64533-4.02827 2.96972-4.02827 1.57853 0 2.69975 2.38845 3.25348 3.90844 1.41874.25689 3.59645.88224 3.65292 2.95526.04132 1.47315-1.44698 2.79685-3.50003 3.21628-.74312 2.70182-1.92012 4.23902-3.24589 4.23902zm.06543-2.10952h.01377zm-.25482-10.00905c-.14325.22039-.59711.9332-1.02274 2.92427-.08678.40634-.40358.72453-.80992.81268-1.92839.41873-2.50967.94353-2.56132 1.09436-.00069.26653.76171.90497 2.53445 1.11158.48348.05647.8664.43595.92701.91874.24725 1.96558.80924 2.86642 1.0861 3.09093.31199-.28168.94629-1.29753 1.3974-3.25347.10331-.44628.48141-.77549.93734-.81612 1.57853-.13981 2.31407-.93251 2.33266-1.1653-.01515-.53513-1.36365-.85056-2.49176-1.02067-.39738-.05992-.72728-.34023-.84987-.72314-.55028-1.71765-1.15566-2.64809-1.47935-2.97386zm-2.05719 2.7032h.01377z" fill="#300f0f"/></g><g><path d="m19.29962 189.95807c.83522-2.73354 1.67518-4.37137 2.48655-4.37137.52358 0 1.63944 1.92961 2.19878 4.24043 2.22495.20944 3.65996 1.36121 3.66457 1.88469.0046.52348-1.15169 1.96315-3.45511 2.51288-.18325 2.04164-1.75373 4.16185-2.25112 4.16185-.75915 0-1.75376-1.59669-2.30349-4.05724-2.42822-.48439-3.97865-1.36108-3.97865-2.17258 0-.49728 1.38732-1.67518 3.63847-2.19866z" fill="#f7f2f0"/><path d="m21.94303 199.44476c-1.77412 0-2.76035-2.71214-3.17151-4.22455-1.62192-.39809-4.16808-1.30167-4.16808-3.0634 0-1.24794 1.87398-2.47522 3.8616-3.07027 1.0434-3.22731 2.02068-4.55789 3.32096-4.55789 1.5255 0 2.60677 2.96008 3.02964 4.34714 2.16255.40083 3.88089 1.60884 3.89191 2.82648.00895 1.10883-1.40015 2.62399-3.57648 3.35402-.44835 2.02895-1.93252 4.38847-3.18804 4.38847zm-5.06065-7.24249c.35538.27274 1.22728.74382 2.96421 1.08955.41047.08127.73486.39807.82577.80716.36089 1.61572.86709 2.59232 1.19698 3.02069.45524-.56337 1.16255-1.77687 1.27136-2.99039.04063-.4518.36639-.82784.80855-.93388 1.3547-.3237 2.17908-.99725 2.50898-1.39809-.38223-.30992-1.26241-.7934-2.57234-.91599-.44973-.04271-.82301-.36639-.92907-.80441-.35744-1.47798-.90635-2.60059-1.26792-3.16394-.27686.40495-.7569 1.32233-1.37742 3.35402-.1102.36089-.40427.63637-.77205.72177-1.36159.31681-2.25622.87191-2.65705 1.21351zm2.41737-2.24382h.01377z" fill="#300f0f"/></g></g></svg>