<svg id="Layer_1" height="512" viewBox="0 0 1000 1000" width="512" xmlns="http://www.w3.org/2000/svg">
    <g>
        <path d="m68.936 431.201c2.469 23.499 22.488 38.657 35.734 48.687l2.229 1.69c24.986 19.073 53.291 37.135 88.406 56.381-.303 27.016-2.512 48.73-6.984 69.24-3.16 14.484-2.635 29.742 1.549 45.633-21.592.826-41.33 10.195-58.25 19.002-36.052 18.766-39.268 65.766-21.556 100.363 11.541 22.543 30.084 34.957 52.211 34.957 9.57 0 19.717-2.342 30.154-6.961 14.943-6.615 47.051-20.828 60.617-47.471 4.141-.943 8.102-2.412 11.819-4.371 48.052 31.729 109.647 50.879 187.701 58.424 21.553 2.082 43.092 3.139 64.021 3.139 67.605 0 128.797-10.699 181.867-31.797 37.889-15.059 88.504-44.131 114.467-97.102 8.496-17.328 13.082-37.068 13.268-57.082.104-11.047-2.002-21.436-3.857-30.6l-.209-1.039c-3.658-18.119-4.025-38.271-3.873-57.074 11.75-7.012 23.77-14.285 35.85-21.686 4.369-2.676 9.354-5.426 14.631-8.338 20.955-11.564 44.709-24.669 57.432-47.217 7.396-13.114 6.182-29.257 5.203-42.228-.281-3.753-.549-7.299-.52-9.82.057-4.625-1.117-9.08-3.332-12.932-5.283-16.726-20.805-31.98-48.346-47.638-37.83-21.504-78.686-38.466-118.195-54.87-13.779-5.723-28.029-11.637-41.756-17.591-28.752-12.472-58.318-25.149-90.385-38.758-7.355-3.122-14.713-6.37-22.092-9.629-25.516-11.262-51.9-22.907-79.811-30.114-11.092-2.862-22.779-4.315-34.74-4.315-38.85 0-76.493 15.237-109.706 28.68-6.098 2.47-12.135 4.913-18.104 7.233-46.316 18.02-93 37.486-142.725 59.51-25.068 11.102-51.547 23.255-83.329 38.249-2.325 1.098-4.704 2.188-7.106 3.29-19.857 9.107-42.366 19.431-56.311 41.069-5.806 9.011-8.055 19.103-6.563 29.339-.311 10.943-.621 22.252.591 33.747z"
              fill="none"/>
        <g>
            <path d="m909.516 401.516c-3.113-15.552-22.773-29.322-40.025-39.131-49.93-28.383-105.426-48.686-158.064-71.52-30.025-13.023-60.113-25.91-90.24-38.697-32.461-13.772-64.945-29.977-99.15-38.807-51.828-13.38-103.354 12.525-150.555 30.888-47.767 18.583-95.035 38.407-141.896 59.162-27.805 12.313-55.402 25.081-82.902 38.057-19.734 9.307-42.971 18.106-55.311 37.256-3.754 5.823-4.57 11.652-3.396 17.339-.311 11.012-.707 22.248.435 33.09 1.69 16.082 18.712 27.964 30.368 36.859 29.775 22.725 62.484 42.302 96.123 60.289.221 28.75-1.311 56.92-7.449 85.072-4.953 22.707 2.41 45.703 13.291 65.479-.736.535-1.445 1.105-2.133 1.711-26.748-13.627-52.832-2.434-77.947 10.641-26.618 13.857-25.251 50.471-13.169 74.068 12.282 23.986 32.216 29.988 57.011 19.016 20.487-9.068 49.481-23.629 54.457-47.996 10.67.854 19.402-3.248 25.424-10.168 54.692 40.551 123.361 56.713 190.067 63.16 78.378 7.576 163.021 1.957 236.769-27.361 42.668-16.959 83.467-45.393 104.119-87.525 7.424-15.146 11.111-31.822 11.268-48.646.088-9.354-1.838-18.469-3.68-27.58-4.725-23.402-4.453-48.355-4.125-72.162 15.098-8.947 30.121-18.012 45.066-27.168 21.281-13.038 52.377-25.687 65.236-48.479 6.215-11.018 2.018-30.555 2.162-42.666.019-1.861-.684-3.254-1.754-4.181z"
                  fill="#68182b"/>
            <path d="m116.84 369.79c28.703-19.943 65.219-32.362 96.971-46.763 54.854-24.877 110.432-48.108 166.563-69.944 24.785-9.641 49.577-19.755 75.198-26.962 36.203-10.187 69.406-1.835 103.171 12.196 63.844 26.535 127.348 53.881 190.695 81.575 13.984 6.114 93.406 34.73 130.586 61.56 21.873 15.783 19.33 30.813 3.572 41.801-13.893 9.687-34.893 22.563-45.537 29.105-19.668 12.096-39.52 23.891-59.465 35.521-47.127 27.479-95.029 54.071-144.791 76.508-41.48 18.703-90.01 39.707-136.375 37.973-52.725-1.971-104.799-35.594-150.989-58.092 2.877-33.078 11.391-64.054 33.008-91.05 21.834-27.258 54.708-40.188 88.137-46.102 13.281 6.641 30.42 8.35 43.082 7.256 16.885-1.904 45.814-9.227 41.377-32.131-4.459-23.033-40.18-25.167-57.691-23.822-12.387.951-44.107 6.543-45.941 23.002-56.313 11.123-98.727 43.572-121.075 97.571-7.061 17.063-9.923 33.774-11.007 50.594-61.755-30.283-123.007-61.966-180.378-100.051-11.691-7.761-23.613-16.229-32.177-27.513-10.458-13.784 2.26-24.724 13.066-32.232z"
                  fill="#808080"/>
            <path d="m272.444 691.256c53.741-22.416 57.066-79.258 54.329-132.119-4.302-83.137 43.182-150.338 124.526-166.584 1.098 1.925 2.35 3.734 3.813 5.372-52.651 12.008-91.444 43.681-111.223 95.898-24.494 64.672 14.379 177.083-70.436 205.09-.006-2.743-.361-5.296-1.009-7.657z"
                  fill="#ffe10e"/>
            <path d="m510.666 402.859c-15.833 1.364-34.824-1.401-46.853-12.771-15.041-14.216 23.5-19.455 30.539-20.156 13.923-1.391 37.216-1.064 45.619 12.813 8.322 13.748-22.229 19.316-29.305 20.114z"
                  fill="#ffe10e"/>
            <path d="m99.572 425.827c-.365-3.456-.493-6.998-.535-10.564 13.172 14.354 34.105 26.267 43.869 32.565 55.217 35.621 113.95 65.483 172.914 94.313-.146 7.193-.092 14.43.01 21.738-54.633-26.832-108.491-54.953-160.229-87.107-17.121-10.641-53.607-27.941-56.029-50.945z"
                  fill="#808080"/>
            <path d="m223.051 591.613c2.135-14.141 3.006-28.506 3.296-42.861.229-11.314 2.372-15.068 18.612-6.861 23.741 12 47.646 23.449 71.039 34.879.074 7.1.084 14.281-.146 21.59-1.151 36.791-13.497 68.699-48.903 82.684-8.322-9.473-23.135-12.754-35.775-9.193-15.205-27.712-12.731-49.757-8.123-80.238z"
                  fill="#808080"/>
            <path d="m192.851 765.629c-22.62 12.398-45.485 15.873-57.085-12.246-8.882-21.541-5.99-45.547 15.902-56.943 18.824-9.797 39.82-17.857 59.941-8.5-1.113 2.391-1.986 5.006-2.494 7.906-.052.297-.052.574-.064.855-.049.225-.115.436-.141.676-.127 1.191-.186 2.377-.193 3.551-18.412 2.736-40.629 8.471-51.928 23.777-.191.26.128.674.428.555 8.623-3.438 16.457-8.408 25.152-11.795 8.57-3.342 17.744-5.248 26.883-6.348.684 3.854 2.033 7.49 3.918 10.797-11.143 7.484-23.337 12.662-34.765 19.689-.315.193-.212.771.2.738 13.613-1.092 26.734-7.898 38.193-15.264 3.006 3.504 6.744 6.377 11.061 8.352-2.693 16.397-21.968 27.053-35.008 34.2z"
                  fill="#ffe10e"/>
            <path d="m220.369 698.309c2.114-10.762 9.454-17.066 20.609-17.078 10.77-.014 20.268 7.713 20.896 18.613 1.812 31.256-43.778 28.609-41.505-1.535z"
                  fill="#ffe10e"/>
            <path d="m794.621 614.797c2.051 17.742-1.879 35.672-9.223 51.789-19.752 43.361-64.58 70.018-107.369 86.158-70.168 26.473-149.654 29.176-223.578 23.025-64.397-5.355-131.454-22.521-184.077-61.457.367-.893.715-1.797 1.02-2.727 57.149-15.701 69.4-69.375 72.773-121.09 53.172 26.203 111.93 62.297 173.082 57.498 57.668-4.529 116.879-35.178 167.771-60.979 28.961-14.682 57.461-30.324 85.623-46.541 19.916-11.463 16.568-4.43 17.387 9.467 1.275 21.697 4.062 42.941 6.591 64.857z"
                  fill="#808080"/>
            <path d="m891.918 451.762c-18.699 18.721-46.797 30.908-69.42 44.613-46.879 28.402-94.514 55.667-143.287 80.699-49.715 25.51-105.854 52.957-161.961 59.406-59.714 6.861-120.549-33.336-171.805-58.166-.207-.102-.41-.15-.617-.227.205-4.754.363-9.469.49-14.102.068-2.455.162-4.904.277-7.342 46.477 22.916 94.85 50.836 146.883 56.848 45.83 5.299 95.681-17.025 136.617-34.59 49.793-21.367 97.363-47.77 144.305-74.717 40.563-23.283 83.902-46.152 121.264-74.34 2.135-1.61 4.008-3.216 5.658-4.814.057 9.937-1.226 19.544-8.404 26.732z"
                  fill="#808080"/>
            <path d="m745.742 704.893c-34.732 26.588-80.143 37.32-122.402 44.525-61.404 10.471-122.955 12.191-184.232.117-46.674-9.197-95.795-25.559-134.245-54.957-8.971 7.436-19.95 13.293-33.469 17.008-.305.93-.652 1.834-1.02 2.727 52.623 38.936 119.68 56.102 184.077 61.457 73.923 6.15 153.41 3.447 223.578-23.025 42.789-16.141 87.617-42.797 107.369-86.158 7.344-16.117 11.273-34.047 9.223-51.789-.16-1.41-.328-2.797-.492-4.203-4.697 36.137-16.393 69.805-48.387 94.298z"
                  fill="#515151"/>
            <path d="m244.959 541.891c-16.24-8.207-18.383-4.453-18.612 6.861-.29 14.355-1.161 28.721-3.296 42.861-4.607 30.48-7.082 52.525 8.123 80.236 12.641-3.561 27.453-.279 35.775 9.193 5.466-2.158 10.32-4.791 14.732-7.758-27.469-32.459-39.992-86.879-11.67-118.988-8.351-4.103-16.71-8.189-25.052-12.405z"
                  fill="#515151"/>
            <path d="m484.051 568.994c-36.316-1.127-70.932-14.807-103.48-29.861-9.655-4.467-20.409-9.254-31.655-14.445-1.088 6.436-1.902 12.963-2.477 19.58 46.189 22.498 98.264 56.121 150.989 58.092 46.365 1.734 94.894-19.27 136.375-37.973 49.762-22.438 97.664-49.029 144.791-76.508 19.945-11.63 39.797-23.425 59.465-35.521 10.645-6.543 31.645-19.419 45.537-29.105 15.758-10.987 18.301-26.018-3.572-41.801-13.1-9.453-31.447-19.125-50.324-27.958.584.853 1.227 1.655 1.787 2.53 34.477 53.857-34.781 85.494-72.334 106.758-58.045 32.865-113.697 69.128-177.422 90.505-31.444 10.547-64.452 16.736-97.68 15.707z"
                  fill="#515151"/>
            <path d="m254.752 304.822c-13.689 5.97-27.34 12.037-40.941 18.205-31.752 14.4-68.268 26.819-96.971 46.763-10.806 7.509-23.523 18.448-13.065 32.232 8.563 11.284 20.485 19.752 32.177 27.513 57.371 38.085 118.623 69.769 180.378 100.051.421-6.537 1.124-13.057 2.224-19.588-56.844-29.189-113.678-70.394-104.086-135.794 3.959-26.993 20.932-50.155 40.284-69.382z"
                  fill="#515151"/>
            <path d="m155.602 476.772c51.737 32.154 105.596 60.275 160.229 87.107-.047-3.455-.081-6.891-.092-10.314-15.379-8.381-30.799-16.676-46.447-24.473-38.477-19.168-76.436-39.216-113.418-61.155-14.582-8.65-28.677-17.526-41.633-28.52-4.766-4.043-10.023-8.802-14.705-14.083.016.162.018.33.037.492 2.421 23.005 38.907 40.305 56.029 50.946z"
                  fill="#515151"/>
            <path d="m889.57 446.54c-23.502 16.455-48.977 30.023-73.691 44.525-61.27 35.947-122.633 71.121-187.193 100.939-31.633 14.613-63.977 28.383-98.615 33.791-34.974 5.463-68.845-2.328-101.189-15.4-28.842-11.656-56.413-26.002-83.756-40.82-.094 2.834-.172 5.645-.297 8.514.207.076.41.125.617.227 51.256 24.83 112.09 65.027 171.805 58.166 56.107-6.449 112.246-33.896 161.961-59.406 48.773-25.031 96.408-52.297 143.287-80.699 22.623-13.705 50.721-25.893 69.42-44.613 3.326-3.334 5.352-7.202 6.6-11.367-3.501 2.428-6.626 4.516-8.949 6.143z"
                  fill="#515151"/>
            <path d="m510.666 402.859c6.777-.765 34.992-5.925 30.063-18.437-.977.931-2.02 1.821-3.225 2.615-8.262 5.432-19.057 7.054-28.693 7.677-15.597 1.009-35.791-1.146-48.275-12.021-.551 2.141.309 4.589 3.277 7.396 12.029 11.369 31.02 14.134 46.853 12.77z"
                  fill="#f7b001"/>
            <path d="m218.109 724.453c-.83 1.48-1.648 2.98-2.559 4.455-3.689 5.98-9.275 10.824-14.72 15.145-8.644 6.854-19.278 10.402-30.22 10.951-21.514 1.08-37.348-15.857-37.984-35.477-2.905 10.508-1.538 22.516 3.139 33.855 11.6 28.119 34.465 24.645 57.085 12.246 13.04-7.146 32.315-17.803 35.009-34.199-3.724-1.702-6.984-4.107-9.75-6.976z"
                  fill="#f7b001"/>
            <path d="m261.875 699.844c-.213-3.705-1.513-7-3.479-9.793-1.967 5.154-5.66 9.852-9.82 13.02-5.844 4.451-13.491 5.5-20.176 2.434-4.287-1.965-6.561-4.951-7.697-8.426-.102.418-.248.799-.334 1.23-2.273 30.144 43.317 32.791 41.506 1.535z"
                  fill="#f7b001"/>
            <path d="m273.453 698.914c46.281-15.283 55.716-55.705 58.731-99.781-3.526 17.156-7.142 23.537-8.849 27.664-6.125 27.896-20.375 51.73-50.892 64.459.649 2.361 1.004 4.914 1.01 7.658z"
                  fill="#f7b001"/>
            <g fill="#68182b">
                <path d="m558.154 763.227c48.031-3.307 95.479-13.383 138.762-35.119 32.912-16.527 72.037-46.387 78.766-85.252.059-.342-.404-.59-.592-.248-9.025 16.396-17.299 31.645-30.596 45.174-14.469 14.727-32.371 25.762-50.758 34.887-42.053 20.869-89.867 30.85-135.773 39.145-.797.145-.613 1.469.191 1.413z"/>
                <path d="m534.389 764.914c-.25.15-.184.502.078.592 2.414.828 4.793 1.328 7.354 1.277 3.125-.066 5.242-.771 7.918-2.369.289-.172.287-.732-.104-.789-5.215-.744-10.451-1.623-15.246 1.289z"/>
                <path d="m139.566 376.047c54.287-20.293 106.896-45.813 160.588-67.713 50.539-20.614 101.982-39.251 152.03-61.041.715-.313.193-1.389-.512-1.216-53.709 13.187-105.533 35.965-156.483 57.044-28.246 11.684-56.367 23.689-84.201 36.332-24.238 11.007-49.131 21.708-71.729 35.87-.364.23-.128.886.307.724z"/>
                <path d="m466.905 243.723c2.574-.992 3.967-2.562 5.975-4.376.316-.288-.014-.856-.42-.722-2.359.775-4.613.859-6.92 1.861-1.941.844-4.592 1.725-5.68 3.675-.164.292-.014.641.299.739 2.101.669 4.791-.423 6.746-1.177z"/>
                <path d="m469.504 579.363c-.479-.053-.619.654-.236.871 35.664 20.299 86.363 2.816 119.55-14.395.709-.369.207-1.424-.527-1.25-18.672 4.42-36.912 10.465-55.629 14.639-21.861 4.874-41.285 2.469-63.158.135z"/>
                <path d="m605.537 558.986c4.832-2.301 9.295-5.17 13.918-7.84.455-.264.291-1.092-.281-1.039-4.627.438-9.021 1.736-13.188 3.762-3.451 1.678-8.25 3.783-10.025 7.432-.055.115-.018.291.129.318 3.299.602 6.555-1.258 9.447-2.633z"/>
            </g>
        </g>
    </g>
</svg>