<svg id="Layer_1" enable-background="new 0 0 3000 3000" height="512" viewBox="0 0 3000 3000" width="512" xmlns="http://www.w3.org/2000/svg"><g><path d="m325 2653h2430v102h-2430z" fill="#66c8fd"/></g><g><path d="m1099 1245.1v1348.8c0 32.64-26.46 59.1-59.1 59.1h-396.8c-32.64 0-59.1-26.46-59.1-59.1v-1348.8c0-32.64 26.46-59.1 59.1-59.1h396.8c32.64 0 59.1 26.46 59.1 59.1z" fill="#ffaf3f"/></g><g><path d="m1004 1245.1v1348.8c0 32.64-26.46 59.1-59.1 59.1h-396.8c-26.76 0-49.37-17.79-56.64-42.18-1.59-5.33-2.45-10.98-2.46-16.82v-1348.9c0-32.64 26.46-59.1 59.1-59.1h396.8c23.38 0 43.6 13.58 53.18 33.29 3.79 7.8 5.92 16.55 5.92 25.81z" fill="#ffce0a"/></g><g><path d="m1805 830.5v1746c0 42.25-26.46 76.5-59.1 76.5h-396.8c-32.64 0-59.1-34.25-59.1-76.5v-1746c0-42.25 26.46-76.5 59.1-76.5h396.8c32.64 0 59.1 34.25 59.1 76.5z" fill="#ffaf3f"/></g><g><path d="m1710 830.5v1746c0 42.25-26.46 76.5-59.1 76.5h-396.8c-26.76 0-49.37-23.03-56.64-54.6-1.6-6.94-2.46-14.29-2.46-21.9v-1746c0-42.25 26.46-76.5 59.1-76.5h396.8c23.38 0 43.6 17.58 53.18 43.09 3.79 10.1 5.92 21.43 5.92 33.41z" fill="#ffce0a"/></g><g><path d="m583.99 2664c-5.8 0-10.65-4.54-10.97-10.4-.33-6.07 4.31-11.25 10.38-11.59 101.3-5.56 236.68-4.35 332.41-2.36 20.52.44 39.85-7.24 54.49-21.58s22.71-33.53 22.71-54.03v-978.34c0-6.08 4.92-11 11-11s11 4.92 11 11v978.34c0 26.46-10.41 51.23-29.31 69.74s-43.88 28.38-70.34 27.86c-95.35-1.98-230.13-3.19-330.75 2.33-.21.03-.42.03-.62.03z"/></g><g><path d="m1613.47 2664h-359.47c-6.08 0-11-4.92-11-11s4.92-11 11-11h359.47c47.16 0 85.53-38.37 85.53-85.53v-1725.97c0-6.08 4.92-11 11-11s11 4.92 11 11v1725.97c0 59.29-48.24 107.53-107.53 107.53z"/></g><g><path d="m2570 591.53v1974.93c0 47.79-26.46 86.54-59.1 86.54h-396.8c-32.64 0-59.1-38.74-59.1-86.54v-1974.93c0-47.79 26.46-86.53 59.1-86.53h396.8c32.64 0 59.1 38.74 59.1 86.53z" fill="#ffaf3f"/></g><g><path d="m2475 591.53v1974.93c0 47.8-26.46 86.54-59.1 86.54h-396.8c-26.76 0-49.37-26.05-56.64-61.76-1.6-7.85-2.46-16.17-2.46-24.78v-1974.93c0-47.79 26.46-86.53 59.1-86.53h396.9c23.34.06 43.51 19.92 53.08 48.74 3.79 11.42 5.92 24.24 5.92 37.79z" fill="#ffce0a"/></g><g><path d="m2378.47 2664h-359.47c-6.08 0-11-4.92-11-11s4.92-11 11-11h359.47c47.16 0 85.53-44.05 85.53-98.19v-1952.27c0-6.08 4.92-11 11-11s11 4.92 11 11v1952.28c0 66.26-48.24 120.18-107.53 120.18z"/></g><g opacity=".22"><path d="m489 2594s221.56-48.32 515-187.68v187.58c0 32.64-26.46 59.1-59.1 59.1h-396.8c-26.76 0-49.37-17.79-56.64-42.18-1.59-5.33-2.45-10.98-2.46-16.82z" fill="#ffb040"/></g><g opacity=".22"><path d="m1195 2307.21c167.64-94.74 346.7-217.46 515-374.47v643.76c0 42.25-26.46 76.5-59.1 76.5h-396.8c-26.76 0-49.37-23.03-56.64-54.6-1.6-6.94-2.46-14.29-2.46-21.9z" fill="#ffb040"/></g><g opacity=".22"><path d="m2475 591.53v1974.93c0 47.8-26.46 86.54-59.1 86.54h-396.8c-26.76 0-49.37-26.05-56.64-61.76-1.6-7.85-2.46-16.17-2.46-24.78v-906.45c227.69-292.57 404.93-670.37 456-1155.01 23.34.06 43.51 19.92 53.08 48.74 3.79 11.42 5.92 24.24 5.92 37.79z" fill="#ffb040"/></g><g opacity=".22"><g><path d="m1438.72 1987.7c94.91-54.98 185.88-124.3 271.28-206.67v75.25c-77.41 69.99-159 129.95-243.72 179.02-4.33 2.51-9.08 3.7-13.75 3.7-9.5 0-18.73-4.91-23.83-13.72-7.61-13.14-3.13-29.96 10.02-37.58z" fill="#ffb040"/></g><g><path d="m2225.49 1085.48c-2.25 6.53-56.63 162.12-177.33 357.83-28.14 45.62-57.56 89.61-88.16 131.82v-96.28c13.82-20.68 27.35-41.75 40.6-63.2 61.53-99.62 105.25-188.94 131.1-246.32 28.04-62.26 41.68-101.43 41.81-101.82 4.97-14.35 20.63-21.96 34.98-16.99 14.35 4.96 21.96 20.61 17 34.96z" fill="#ffb040"/></g></g><g opacity=".22"><g><path d="m2247.48 986.01c-3.74 0-7.54-.77-11.18-2.39-13.87-6.19-20.1-22.44-13.92-36.32.75-1.69 64.68-146.18 81.89-266.69 2.15-15.03 16.08-25.48 31.11-23.33 15.04 2.15 25.48 16.08 23.33 31.11-18.33 128.33-83.35 275.12-86.11 281.31-4.55 10.23-14.59 16.31-25.12 16.31z" fill="#ffb040"/></g></g></svg>