<svg width="337" height="431" viewBox="0 0 337 431" fill="none" xmlns="http://www.w3.org/2000/svg">
<path d="M336.256 224.999C335.719 222.472 322.585 210.806 310.241 199.824C243.683 140.58 83.6407 152.828 29.0681 251.448C28.4198 252.615 31.5356 251.941 30.9057 253.115C23.822 266.315 22.3586 278.949 21.5213 293.372C21.462 294.391 22.5698 295.065 23.4553 294.546C26.1783 292.946 27.7344 291.779 29.9388 289.886C30.8761 289.082 32.295 289.934 32.0209 291.131C28.5865 306.18 28.542 321.818 30.5464 337.801C30.6686 338.779 31.8208 339.249 32.6026 338.642C35.5442 336.382 38.7971 333.133 42.2722 329.194C43.1355 328.212 44.7471 329.013 44.484 330.291C40.5272 349.423 42.7613 360.2 46.9329 368.362C47.3071 369.099 48.2815 369.288 48.9039 368.744C53.1608 365.02 56.2062 359.937 57.9919 353.428C58.3476 352.138 60.2 352.19 60.4742 353.502C64.1679 371.096 73.6264 382.311 87.9605 388.139C88.1161 388.205 88.2828 388.235 88.4533 388.235H259.569C259.736 388.235 259.907 388.202 260.062 388.139C274.393 382.311 283.855 371.1 287.549 353.502C287.826 352.19 289.675 352.138 290.031 353.428C291.817 359.933 294.862 365.02 299.123 368.744C299.745 369.285 300.719 369.096 301.094 368.362C305.265 360.204 307.499 349.423 303.542 330.291C303.279 329.013 304.891 328.216 305.754 329.194C309.226 333.133 312.482 336.382 315.424 338.642C316.209 339.246 317.358 338.779 317.48 337.801C319.481 321.811 319.44 306.176 316.006 291.131C315.735 289.93 317.154 289.082 318.088 289.886C320.292 291.779 321.848 292.946 324.571 294.546C325.457 295.065 326.561 294.391 326.505 293.372C325.668 278.945 324.204 266.315 317.121 253.115C316.491 251.937 317.854 250.692 318.958 251.448C323.819 254.779 329.013 256.735 331.544 257.565C332.34 257.828 333.178 257.268 333.229 256.431C333.837 245.928 330.614 237.655 326.438 223.828C326.072 222.613 327.517 221.672 328.491 222.491C330.299 224.013 332.266 225.343 334.445 226.422C335.404 226.892 336.482 226.044 336.26 225.003H336.253L336.256 224.999Z" fill="#BC7655"/>
<path d="M306.095 223.021C302.761 206.79 290.976 191.107 274.096 189.696C206.446 184.042 43.9136 213.61 41.9241 223.021C41.7463 223.869 42.6243 224.562 43.4023 224.173C45.1769 223.295 46.7774 222.213 48.2483 220.976C49.0411 220.309 50.2193 221.076 49.9192 222.065C46.5144 233.324 43.8914 240.059 44.3878 248.606C44.4249 249.292 45.1066 249.744 45.7586 249.533C47.8148 248.855 52.0458 247.262 56.0062 244.55C56.9028 243.935 58.018 244.95 57.503 245.909C51.7345 256.653 50.549 266.942 49.8636 278.682C49.8154 279.512 50.7194 280.061 51.4345 279.642C53.6537 278.338 54.9207 277.389 56.7139 275.852C57.4771 275.2 58.633 275.893 58.4107 276.867C55.6135 289.119 55.5802 301.849 57.2103 314.864C57.3104 315.664 58.244 316.042 58.8849 315.553C61.2783 313.712 63.9272 311.067 66.754 307.858C67.458 307.058 68.7695 307.714 68.5583 308.751C65.3351 324.323 67.1579 333.099 70.5552 339.742C70.8627 340.339 71.6556 340.494 72.1594 340.053C75.6235 337.023 78.1057 332.885 79.558 327.583C79.847 326.534 81.3586 326.579 81.5772 327.642C84.5855 341.969 92.2842 351.094 103.955 355.84C104.08 355.892 104.218 355.918 104.355 355.918H243.661C243.798 355.918 243.931 355.892 244.061 355.84C255.728 351.094 263.434 341.965 266.438 327.642C266.664 326.575 268.172 326.534 268.458 327.583C269.91 332.881 272.392 337.023 275.856 340.053C276.36 340.494 277.157 340.342 277.46 339.742C280.861 333.096 282.677 324.326 279.457 308.751C279.242 307.71 280.558 307.062 281.262 307.858C284.088 311.063 286.737 313.708 289.131 315.553C289.768 316.042 290.705 315.664 290.805 314.864C292.435 301.849 292.402 289.119 289.605 276.867C289.383 275.889 290.539 275.2 291.302 275.852C293.095 277.393 294.366 278.342 296.581 279.642C297.3 280.064 298.204 279.516 298.152 278.682C297.47 266.938 296.281 256.653 290.513 245.909C289.998 244.95 291.109 243.935 292.009 244.55C295.97 247.262 300.197 248.855 302.257 249.533C302.909 249.748 303.591 249.292 303.628 248.606C304.124 240.059 301.501 233.324 298.096 222.065C297.796 221.072 298.971 220.305 299.764 220.976C301.234 222.213 302.835 223.302 304.61 224.173C305.384 224.558 306.262 223.865 306.088 223.021H306.091H306.095Z" fill="#A16143"/>
<path d="M264.689 333.192C262.596 325.834 259.573 318.269 255.868 310.563C253.319 305.257 251.689 299.556 251.096 293.706C248.666 269.809 243.594 246.55 236.907 223.677L171.294 235.743L105.681 223.677C98.9934 246.547 93.9178 269.809 91.4911 293.706C90.8946 299.556 89.2645 305.257 86.7192 310.563C83.0144 318.269 79.9949 325.831 77.898 333.192C69.4138 363.031 85.6374 394.089 114.961 404.492C133.108 410.927 152.047 412.52 171.301 412.169C190.555 412.52 209.491 410.927 227.637 404.492C256.961 394.089 273.181 363.031 264.701 333.192H264.693H264.689Z" fill="#FFD183"/>
<path d="M242.424 244.257C240.427 235.569 236.914 222.358 234.414 213.792L171.294 235.74L105.681 223.673C103.428 231.375 100.202 240.882 96.6597 260.718C136.027 266.642 204.864 263.352 242.424 244.253V244.257Z" fill="#FBB96D"/>
<path d="M58.9183 347.385C57.4179 347.986 54.8096 347.641 54.8096 347.641C53.8093 345.185 53.7575 341.928 54.2576 339.42C55.847 331.443 60.0631 327.679 60.0631 327.679C60.0631 327.679 56.5695 333.429 56.2768 339.72C56.1656 342.106 56.9066 345.992 58.9183 347.385Z" fill="#836138"/>
<path d="M39.4047 332.822C37.6375 330.117 37.9042 327.157 37.9005 327.094C39.3269 324.515 42.8354 319.369 48.2667 318.784C48.2667 318.784 42.6872 322.485 40.4976 327.02C39.6863 328.694 39.2343 330.81 39.4047 332.825V332.822Z" fill="#836138"/>
<path d="M40.4941 327.016C42.6873 322.485 48.2631 318.78 48.2631 318.78C41.8426 319.788 38.4304 326.279 37.9044 327.127C37.5005 324.522 37.3783 321.885 37.5191 319.347C37.7895 314.601 39.1788 309.955 41.7278 305.935C47.663 296.862 57.8772 290.856 66.0761 283.788C72.0668 278.875 77.7316 273.536 82.3441 267.294C88.8424 258.858 93.2364 247.791 102.691 242.175C107.997 239.133 115.106 237.34 119.537 241.256L119.589 241.304C124.146 245.787 123.109 253.619 122.634 259.81C122.271 263.396 121.771 266.927 121.008 270.42C118.837 280.972 113.432 290.564 106.515 298.755C100.528 306.143 92.9548 312.463 87.5013 320.114C81.0696 329.105 77.8575 341.613 66.8245 346.244C66.228 346.511 65.4796 346.811 64.8053 347.074C63.1974 347.696 61.4635 347.956 59.7445 347.756C59.1406 347.685 58.6367 347.57 58.4107 347.407C56.4546 345.966 56.1656 342.117 56.2767 339.731C56.5694 333.44 60.0631 327.69 60.0631 327.69C60.0631 327.69 55.8433 331.451 54.2576 339.431C53.7426 342.006 53.7315 345.166 54.8096 347.652C47.2443 348.808 38.7528 340.198 39.4382 333.229C39.1566 331.095 39.6271 328.809 40.4903 327.027L40.4941 327.016Z" fill="#FDAB57"/>
<path d="M172.639 263.259C141.322 263.259 115.932 307.328 115.932 352.817C115.932 382.04 126.413 400.995 142.211 410.812C151.78 412.02 161.494 412.346 171.29 412.168C182.26 412.368 193.13 411.935 203.804 410.338C219.186 400.387 229.338 381.574 229.338 352.813C229.338 307.328 203.948 263.255 172.635 263.255H172.639V263.259Z" fill="#FFEACD"/>
<path d="M227.626 377.083C209.48 383.519 190.541 385.112 171.29 384.76C152.036 385.112 133.101 383.519 114.951 377.083C95.5037 370.185 81.8217 354.199 77.2833 335.511C70.2551 364.624 86.3861 394.363 114.951 404.492C133.097 410.927 152.036 412.52 171.29 412.168C190.544 412.52 209.48 410.924 227.626 404.492C256.191 394.363 272.322 364.624 265.294 335.511C260.755 354.202 247.073 370.185 227.626 377.083Z" fill="#FBB96D"/>
<path d="M173.828 412.202C174.276 412.202 174.728 412.209 175.177 412.209H177.829C178.259 412.209 178.696 412.202 179.13 412.198C179.345 412.198 179.56 412.194 179.774 412.191C180.241 412.183 180.708 412.172 181.167 412.165C181.349 412.165 181.527 412.157 181.708 412.154C182.257 412.143 182.805 412.128 183.353 412.109C183.45 412.109 183.542 412.105 183.639 412.102C185.639 412.039 187.632 411.943 189.626 411.817C189.692 411.813 189.766 411.809 189.837 411.805C190.422 411.768 191.011 411.728 191.597 411.683C191.693 411.676 191.789 411.672 191.886 411.661C192.456 411.616 193.03 411.572 193.597 411.524C193.686 411.516 193.779 411.505 193.868 411.502C194.468 411.45 195.064 411.394 195.661 411.339C195.713 411.335 195.765 411.331 195.816 411.327C198.491 411.064 201.151 410.742 203.808 410.342C214.241 403.595 222.258 392.766 226.348 377.528C208.591 383.593 190.092 385.105 171.29 384.764C153.533 385.09 136.042 383.76 119.196 378.499C123.457 393.581 131.641 404.251 142.211 410.816C148.187 411.572 154.218 411.983 160.291 412.139H160.309C161.517 412.169 162.725 412.191 163.932 412.202H163.966C165.17 412.213 166.378 412.213 167.585 412.209H167.634C168.849 412.206 170.071 412.187 171.294 412.168C171.939 412.18 172.587 412.191 173.235 412.198C173.435 412.198 173.635 412.198 173.836 412.202H173.821H173.828Z" fill="#F5DEC3"/>
<path d="M268.558 415.751C268.524 422.631 265.472 423.69 262.767 423.972C260.774 424.179 258.703 425.217 256.539 426.436C248.2 431.126 240.03 428.951 240.03 428.951C237.882 429.122 235.644 429.266 233.336 429.389C233.336 429.389 230.583 430.711 226.363 430.833C204.427 431.478 192.26 421.297 191.826 411.661C191.341 400.824 211.562 392.34 220.046 392.399C241.99 392.551 268.621 402.851 268.558 415.751Z" fill="#E89C4C"/>
<path d="M238.744 412.005C237.344 409.89 235.543 408.082 233.528 406.567C234.384 407.471 235.191 408.408 235.895 409.416C237.955 412.324 239.244 415.921 239.193 419.43C239.237 423.316 237.151 428.466 233.339 429.385C235.651 429.259 237.881 429.118 240.034 428.948C242.883 423.683 241.997 416.848 238.744 412.002V412.005Z" fill="#836138"/>
<path d="M257.373 408.908C255.628 407.226 253.571 405.889 251.356 405.085C253.408 406.248 255.131 407.867 256.483 409.694C257.839 411.524 258.836 413.584 259.377 415.703C260.433 419.571 259.71 423.979 256.539 426.436C258.94 425.769 261.029 424.961 262.767 423.968C262.871 423.483 262.952 422.994 262.993 422.501C263.415 417.266 260.966 412.409 257.369 408.904L257.373 408.908Z" fill="#836138"/>
<path d="M74.0231 415.751C74.0564 422.631 77.1092 423.69 79.8137 423.972C81.807 424.179 83.878 425.217 86.0416 426.436C94.3812 431.126 102.55 428.951 102.55 428.951C104.699 429.122 106.937 429.266 109.245 429.389C109.245 429.389 111.998 430.711 116.218 430.833C138.154 431.478 150.321 421.297 150.754 411.661C151.24 400.824 131.019 392.34 122.534 392.399C100.587 392.551 73.9601 402.851 74.0231 415.751Z" fill="#E89C4C"/>
<path d="M103.84 412.005C105.244 409.89 107.041 408.082 109.056 406.567C108.2 407.471 107.389 408.408 106.689 409.416C104.632 412.324 103.339 415.921 103.391 419.43C103.347 423.316 105.433 428.466 109.245 429.385C106.933 429.259 104.703 429.118 102.55 428.948C99.7012 423.683 100.587 416.848 103.84 412.002V412.005Z" fill="#836138"/>
<path d="M85.2079 408.908C86.9566 407.226 89.0091 405.889 91.2246 405.085C89.1721 406.248 87.4493 407.867 86.0934 409.694C84.7374 411.524 83.7408 413.584 83.1999 415.703C82.144 419.571 82.8664 423.979 86.0378 426.436C83.6407 425.769 81.5475 424.961 79.8099 423.968C79.7062 423.483 79.6247 422.994 79.5839 422.501C79.1616 417.266 81.6105 412.409 85.2042 408.904L85.2079 408.908Z" fill="#836138"/>
<path d="M332.896 190.288C327.232 176.643 319.67 163.998 308.474 153.288C307.637 152.487 308.207 151.061 309.363 151.091C313.498 151.191 319.537 153.673 324.19 155.655C325.261 156.111 326.339 155.025 325.868 153.966C320.278 141.436 312.449 129.654 301.216 119.014C300.249 118.099 301.164 116.502 302.45 116.865C308.241 118.51 313.553 119.466 318.103 119.333C319.044 119.303 319.637 118.31 319.207 117.473C312.761 104.776 303.832 93.8544 290.557 86.0557C289.375 85.3629 289.95 83.5549 291.317 83.6846C295.6 84.0921 299.471 83.8735 303.113 83.3141C303.991 83.177 304.458 82.2026 304.028 81.4246C295.103 65.4567 279.398 53.0195 257.514 43.7981C256.469 43.3609 256.469 41.8901 257.514 41.4455C261.945 39.5709 265.805 37.1442 269.128 34.184C269.662 33.7061 269.725 32.8799 269.232 32.3612C264.427 27.293 251.364 24.3587 241.683 24.7588C240.494 24.807 239.893 23.3325 240.783 22.5396C243.798 19.8573 246.192 16.7971 248.085 13.4257C248.503 12.6773 248.066 11.7326 247.222 11.5584C222.925 6.51242 200.074 5.1231 181.868 15.4708C181.131 15.8931 180.179 15.493 179.99 14.6631C179.023 10.4581 180.33 6.2716 183.472 2.10734C184.109 1.25893 183.468 0.0585587 182.405 0.0733781C168.634 0.291965 156.341 5.24536 146.098 16.7193C145.96 16.8749 145.631 0.429044 142.174 1.07369C137.606 1.92581 135.279 6.6532 134.101 11.1954C131.356 7.38306 127.477 3.81158 122.905 4.6637C119.449 5.30834 125.106 20.7613 124.924 20.665C111.209 13.6517 97.9529 13.4553 85.0304 18.2049C84.0338 18.5717 83.8708 19.924 84.771 20.4834C89.2095 23.2398 91.9436 26.6705 92.5661 30.9422C92.6883 31.7795 91.9474 32.4946 91.1064 32.3686C70.3814 29.2751 49.5749 38.7891 28.7462 52.2415C28.0275 52.7046 27.9571 53.7456 28.6202 54.2903C31.6064 56.754 34.9481 58.7435 38.7308 60.1587C39.8497 60.5774 39.8237 62.1705 38.6937 62.5521C29.5205 65.6642 18.4097 73.0998 15.7607 79.5574C15.4902 80.2205 15.8459 80.9689 16.5165 81.2209C20.6844 82.7843 25.1673 83.6587 29.9762 83.8143C31.1099 83.8476 31.6397 85.2184 30.8246 86.0075C13.7749 102.479 3.64209 119.729 1.10426 137.835C0.978299 138.717 1.76743 139.461 2.64178 139.269C6.2429 138.483 9.92923 137.29 13.7749 135.371C15.0012 134.76 16.1904 136.238 15.342 137.309C5.79091 149.357 1.42288 162.75 0.0187413 176.914C-0.077585 177.847 0.83381 178.566 1.72298 178.255C6.0169 176.747 10.6183 173.939 15.4235 170.319C16.4905 169.519 17.9206 170.675 17.3538 171.879C10.7369 185.842 7.70632 199.647 7.03574 213.343C6.98017 214.499 8.3806 215.122 9.2142 214.314C12.8375 210.791 17.5724 206.301 21.3884 204.722C22.4591 204.281 23.5038 205.404 23.0148 206.449C16.4572 220.464 13.9898 234.972 13.6526 249.736C13.6267 250.803 14.8493 251.441 15.7014 250.796C17.6427 249.34 19.3322 247.669 20.8326 245.839C21.6403 244.857 23.2371 245.513 23.0963 246.78C21.5403 261.155 19.8953 269.88 22.4331 280.101C22.6369 280.916 23.5631 281.316 24.3004 280.909C26.6344 279.627 31.3804 276.752 35.552 272.584C35.8114 272.325 91.6065 228.318 91.6065 228.318L249.997 205.863C249.997 205.863 320.463 219.331 320.77 219.468C326.172 221.854 331.64 222.824 334.278 223.18C335.116 223.291 335.831 222.587 335.727 221.753C334.389 211.309 329.692 203.759 323.027 190.922C322.441 189.792 323.694 188.602 324.801 189.229C326.865 190.392 329.043 191.344 331.385 192.003C332.411 192.292 333.319 191.259 332.908 190.277H332.904L332.896 190.288Z" fill="#BC7655"/>
<path d="M245.625 17.3344C247.666 14.7966 249.129 12.1994 247.218 11.5659C224.007 7.03117 203.008 4.60449 183.161 14.7966C180.838 16.5452 178.715 18.6496 177.926 21.4208C179.497 22.21 181.442 22.4063 183.768 21.6728C189.196 18.846 194.553 16.4711 201.159 15.3486C209.973 13.7073 220.209 13.7592 232.75 15.5523C235.118 15.8932 237.504 16.1266 239.893 16.2674C241.838 16.3785 243.776 16.7527 245.628 17.3344H245.625Z" fill="#EB936A"/>
<path d="M287.264 91.6169C293.929 95.5329 299.682 100.501 304.632 106.64C307.948 110.76 312.06 114.183 316.81 116.532C317.688 116.965 318.521 117.347 319.266 117.643L319.277 117.625C313.075 105.358 304.369 93.699 290.55 86.0596C287.719 85.1741 283.477 84.6406 283.477 84.6406C283.277 87.2118 284.366 89.8719 287.26 91.6169H287.264Z" fill="#EB936A"/>
<path d="M301.842 150.383C301.757 150.735 322.975 178.847 332.896 190.288C327.617 175.509 317.866 162.361 308.203 152.913C305.799 151.62 304.358 151.435 301.842 150.387H301.846L301.842 150.383Z" fill="#EB936A"/>
<path d="M325.116 153.818C325.405 154.018 325.694 154.214 325.979 154.407C325.942 147.367 306.54 123.149 301.216 119.018C300.72 118.547 300.72 117.906 301.009 117.432C299.371 116.384 289.275 110.278 289.275 110.278C290.431 114.468 294.999 122.034 296.755 123.693C301.457 128.147 305.632 132.911 309.333 138.039C313.713 144.111 318.962 149.535 325.116 153.818Z" fill="#EB936A"/>
<path d="M290.613 73.7482C292.432 75.8044 294.655 77.4752 297.17 78.5793C297.181 78.583 297.196 78.5904 297.207 78.5978C299.39 79.5574 301.672 80.2428 303.869 81.1653C295.292 65.9865 280.561 54.0124 260.192 44.9688C259.699 44.9058 257.995 43.887 257.502 43.8055C255.15 43.4054 250.8 44.1538 250.415 44.2538C250.937 46.6879 252.616 48.7552 254.979 49.7481C269.536 56.0352 281.139 63.0559 290.605 73.7556H290.609L290.613 73.7482Z" fill="#EB936A"/>
<path d="M263.726 35.4844C264.664 35.7956 265.594 36.1253 266.524 36.4588C268.613 34.962 270.002 33.4467 269.228 32.3612C261.541 24.3995 244.88 24.8959 241.279 24.3105C240.015 24.3958 238.745 24.5069 237.489 24.644C236.37 24.7625 235.277 25.0441 234.236 25.4591H234.225C235.003 28.6526 237.707 31.2609 241.957 31.2016C247.84 30.9571 261.952 34.8879 263.737 35.477H263.734L263.726 35.4844Z" fill="#EB936A"/>
<path d="M173.35 0.966343C163.21 2.85212 154.037 7.83144 146.09 16.7268C145.949 16.7601 145.612 0.440253 142.167 1.08119C137.68 1.91479 135.294 6.73851 134.094 11.2029C131.356 7.19791 127.384 3.8339 122.898 4.6712C119.456 5.31214 125.057 20.654 124.913 20.6725C114.28 15.23 103.921 13.8926 93.7774 15.7821C92.0657 16.4638 81.7551 17.4085 84.7598 20.4946C84.9672 20.6243 85.1636 20.754 85.3637 20.8874C87.1235 20.6836 88.8833 20.4205 90.6357 20.3798C110.712 19.9352 127.862 30.4422 129.722 30.5015L130.778 17.6827L136.806 25.7074L139.518 16.0525L145.153 27.6228C146.864 26.8966 159.05 10.9287 177.933 4.11547C179.582 3.52269 181.319 3.14109 183.031 2.69281C183.168 2.50015 183.309 2.3075 183.453 2.11114C185.135 -1.84935 175.184 0.981163 173.335 0.962638H173.343L173.35 0.966343Z" fill="#EB936A"/>
<path d="M32.3249 57.0506C29.5018 55.4167 27.1937 53.5198 28.7497 52.2454C48.7485 39.6637 67.4543 29.8421 89.6575 32.2095C92.4584 33.006 95.2 34.199 96.9413 36.5034C95.7631 37.8075 94.0219 38.6856 91.5878 38.8412C85.5007 38.1595 79.647 37.8705 73.082 39.2006C64.2682 40.8418 54.743 44.5726 43.6951 50.7597C41.6056 51.9304 39.4716 53.0086 37.2894 53.9903C35.5148 54.7943 33.8476 55.8428 32.3323 57.0468L32.3249 57.0506Z" fill="#EB936A"/>
<path d="M20.4286 141.306C15.6308 147.36 12.0667 154.058 9.67709 161.564C8.07659 166.599 5.48319 171.271 1.908 175.169C1.24854 175.887 0.603892 176.547 0.0222291 177.091L0 177.084C1.34116 163.417 5.23126 149.409 15.3455 137.312C17.6611 135.467 21.4289 133.445 21.4289 133.445C22.5478 135.768 22.4959 138.642 20.4323 141.31H20.4286V141.306Z" fill="#EB936A"/>
<path d="M28.1417 201.355C28.3492 201.651 18.7536 235.502 13.6521 249.74C13.2223 234.061 17.5422 218.29 23.1291 206.001C24.9037 203.93 26.1745 203.241 28.1455 201.355H28.1417Z" fill="#EB936A"/>
<path d="M7.6799 212.929C7.48724 213.221 7.28718 213.503 7.08712 213.788C4.57152 207.208 13.8855 177.644 17.3459 171.875C17.6386 171.26 17.4014 170.66 16.968 170.323C18.1202 168.756 25.315 159.427 25.315 159.427C25.7596 163.75 24.2369 172.446 23.207 174.631C20.4357 180.478 18.2684 186.417 16.6753 192.533C14.7932 199.773 11.8664 206.719 7.6799 212.925V212.929Z" fill="#EB936A"/>
<path d="M10.8291 125.85C9.87699 128.421 8.41358 130.773 6.46482 132.715C6.45741 132.722 6.44259 132.737 6.43518 132.744C4.74577 134.419 2.86741 135.886 1.15576 137.535C3.65283 120.292 13.0483 103.828 28.7606 88.0637C29.1978 87.8229 30.4167 86.2631 30.8428 86.0075C32.8879 84.7886 37.2225 83.918 37.6153 83.8772C38.0117 86.3298 37.1966 88.8639 35.3516 90.6423C24.0555 101.746 15.7825 112.471 10.8291 125.85Z" fill="#EB936A"/>
<path d="M22.0291 80.4947C21.2659 81.1208 20.5175 81.7617 19.7765 82.4101C17.2869 81.7654 15.4419 80.854 15.7716 79.5611C20.0507 69.3727 35.7667 63.8339 38.9158 61.9926C40.1273 61.6184 41.3499 61.2665 42.5725 60.9404C43.658 60.6515 44.7769 60.5144 45.9032 60.5329H45.9217C46.3515 63.7858 44.7769 67.1905 40.7905 68.6651C35.211 70.5545 23.4814 79.298 22.0291 80.491H22.0254L22.0291 80.4947Z" fill="#EB936A"/>
<path d="M302.861 193.875C298.248 182.764 292.091 172.472 282.977 163.751C282.299 163.102 282.762 161.943 283.699 161.965C287.063 162.046 291.983 164.065 295.773 165.684C296.644 166.055 297.518 165.169 297.137 164.306C292.587 154.107 286.215 144.515 277.071 135.853C276.278 135.101 277.019 133.804 278.071 134.104C282.788 135.445 287.115 136.223 290.816 136.112C291.583 136.09 292.057 135.279 291.709 134.593C286.456 124.246 279.179 115.354 268.361 109.004C267.405 108.441 267.891 106.977 268.998 107.088C272.485 107.418 275.637 107.244 278.601 106.781C279.324 106.67 279.698 105.873 279.342 105.243C272.077 92.2468 259.292 82.1177 241.479 74.6117C240.63 74.256 240.623 73.0593 241.471 72.6999C245.083 71.1735 248.229 69.1952 250.933 66.787C251.378 66.3906 251.4 65.7052 250.989 65.2754C247.051 61.1704 236.451 58.7882 228.589 59.1142C227.611 59.1513 227.133 57.9509 227.867 57.2952C230.312 55.1167 232.265 52.6307 233.798 49.8928C234.139 49.2815 233.787 48.5146 233.098 48.3664C213.318 44.2578 194.716 43.1278 179.893 51.5526C179.285 51.8972 178.511 51.5526 178.355 50.8746C177.577 47.4588 178.644 44.0614 181.193 40.6789C181.704 39.9972 181.197 39.0117 180.345 39.0228C169.126 39.2006 159.116 43.2278 150.765 52.5752C150.654 52.7011 150.387 39.3155 147.572 39.8379C143.852 40.5307 141.959 44.38 141.003 48.0775C138.769 44.9728 135.612 42.0645 131.889 42.761C129.077 43.2871 133.678 55.8614 133.534 55.791C122.36 50.0781 111.568 49.9225 101.039 53.7978C100.235 54.0942 100.12 55.1945 100.846 55.6465C104.451 57.8842 106.674 60.6703 107.192 64.1306C107.296 64.8234 106.7 65.4199 106.011 65.3162C89.1386 62.7969 72.2 70.5437 55.2429 81.4953C54.6501 81.8732 54.6019 82.7253 55.1428 83.1662C57.5658 85.1631 60.2852 86.7858 63.3565 87.9343C64.2753 88.2789 64.2716 89.5719 63.3454 89.8905C55.8986 92.4172 46.8736 98.4487 44.6914 103.698C44.4617 104.243 44.7359 104.88 45.2916 105.092C48.6853 106.362 52.3382 107.077 56.258 107.203C57.1768 107.233 57.6028 108.352 56.9434 108.985C43.0502 122.397 34.8032 136.438 32.7359 151.173C32.6358 151.891 33.2768 152.495 33.9881 152.343C36.9223 151.702 39.9233 150.732 43.0539 149.172C44.0505 148.675 45.0397 149.861 44.3432 150.732C36.5556 160.55 32.9952 171.457 31.8504 182.994C31.7726 183.753 32.5099 184.338 33.236 184.086C36.7297 182.856 40.479 180.574 44.3913 177.625C45.262 176.966 46.429 177.914 45.9622 178.896C40.5753 190.266 38.1116 201.496 37.5633 212.647C37.5151 213.588 38.6562 214.1 39.3305 213.444C42.2796 210.576 46.1326 206.92 49.2447 205.634C50.1116 205.275 50.9674 206.19 50.571 207.042C45.2286 218.453 43.2243 230.264 42.9464 242.286C42.9242 243.157 43.9208 243.672 44.621 243.146C46.1993 241.96 47.5775 240.6 48.7927 239.115C49.4485 238.311 50.7526 238.852 50.6377 239.878L51.8122 261.255C51.9715 264.152 55.2503 265.76 57.6547 264.119L92.3396 234.45C156.385 243.386 188.344 238.352 249.981 205.893L299.008 218.964C301.983 219.635 304.465 216.652 303.253 213.862L294.81 194.416C294.332 193.497 295.351 192.522 296.255 193.037C297.933 193.986 299.708 194.756 301.608 195.294C302.446 195.531 303.187 194.69 302.857 193.89V193.878L302.861 193.875Z" fill="#A16143"/>
<path d="M255.224 104.936C293.792 92.38 273.433 55.2499 253.942 49.3073C239.938 45.0356 226.104 57.7396 224.722 69.1431C195.257 73.8076 183.072 89.9014 183.072 89.9014C183.568 86.3411 184.776 82.5695 186.291 78.7017C175.636 80.3726 159.268 93.8842 152.792 103.583C143.241 96.8703 123.075 90.1608 112.531 92.4393C115.343 95.5032 117.844 98.5893 119.593 101.727C119.593 101.727 102.395 91.1055 73.234 97.3593C67.8138 87.2228 50.3084 80.354 38.7974 89.3791C22.7739 101.939 17.2537 143.885 57.7663 141.718C46.8258 154.848 43.2618 170.541 42.5171 187.217L53.5094 179.244C45.1512 195.934 49.5304 209.783 54.669 223.465L59.3816 213.699C57.9849 222.695 60.8228 230.071 64.9352 236.958L70.9 227.552C75.042 236.966 92.3659 241.749 111.994 244.079C156.682 249.384 202.019 240.937 241.764 219.912C259.229 210.676 273.648 199.98 274.093 189.71L283.066 196.335C284.407 188.436 284.378 180.537 279.813 172.646L287.742 180.055C287.567 165.451 286.634 150.961 272.792 138.405L285.934 141.884C279.191 126.602 270.181 113.253 255.217 104.943L255.224 104.936Z" fill="#FFD183"/>
<path d="M128.377 192.604C128.636 197.994 133.256 206.69 138.369 211.032C145.916 217.441 159.072 222.191 168.741 218.719C176.136 216.133 181.149 210.198 185.636 204.441L166.978 195.305L154.152 201.017L128.381 192.607L128.377 192.604Z" fill="#2B1916"/>
<path d="M134.075 194.482C134.282 198.813 137.098 204.352 141.688 208.238C147.761 213.38 159.001 217.07 166.774 214.281C172.713 212.199 176.744 207.434 180.348 202.803L165.351 195.46L155.044 200.05C146.694 200.728 137.424 198.476 134.071 194.478H134.067L134.075 194.482Z" fill="#974634"/>
<path d="M143.848 209.787C149.239 214.944 159.72 216.808 166.77 214.273C169.604 213.281 171.998 211.676 174.121 209.768C164.525 205.763 153.718 205.815 143.848 209.787Z" fill="#CD5F46"/>
<path d="M220.006 168.756C228.127 167.244 233.124 157.563 231.165 147.138C229.208 136.712 221.039 129.488 212.922 130.999C204.801 132.511 199.803 142.188 201.763 152.617C203.719 163.043 211.888 170.267 220.006 168.756Z" fill="#2B1916"/>
<path d="M216.76 151.506C212.518 152.299 208.265 149.831 205.653 145.585C205.29 147.556 205.282 149.709 205.69 151.899C207.124 159.538 213.107 164.829 219.05 163.717C225 162.606 228.656 155.522 227.226 147.886C226.815 145.693 226.026 143.696 224.974 141.984C224.077 146.882 221.002 150.713 216.76 151.506Z" fill="#54322B"/>
<path d="M212.326 152.295C215.275 151.747 217.094 148.227 216.382 144.437C215.671 140.647 212.703 138.02 209.751 138.568C206.798 139.117 204.983 142.636 205.694 146.426C206.405 150.217 209.373 152.843 212.326 152.291V152.295Z" fill="white"/>
<path d="M85.7782 213.055C93.7399 213.055 100.197 206.623 100.197 198.691C100.197 190.759 93.7436 184.327 85.7782 184.327C77.8127 184.327 71.3589 190.759 71.3589 198.691C71.3589 206.623 77.8127 213.055 85.7782 213.055Z" fill="#F0AE56"/>
<path d="M249.985 183.397C257.947 183.397 264.405 176.966 264.405 169.033C264.405 161.101 257.951 154.67 249.985 154.67C242.02 154.67 235.566 161.101 235.566 169.033C235.566 176.966 242.02 183.397 249.985 183.397Z" fill="#F0AE56"/>
<path d="M186.714 171.064C188.792 193.123 150.925 200.158 144.875 178.851C141.444 160.738 183.35 152.932 186.714 171.064Z" fill="#2B1916"/>
<path d="M157.612 186.12C159.494 188.829 165.459 187.728 168.79 187.084C171.957 186.383 174.925 184.987 177.533 183.371C185.913 178.188 183.783 170.234 182.746 169.119C181.723 168.315 180.564 170.23 179.823 171.042C177.466 174.217 171.194 179.189 167.308 180.911C164.329 182.479 156.341 182.49 157.597 186.083L157.619 186.128H157.616L157.612 186.12Z" fill="#1C110F"/>
<path d="M184.417 205.863C179.782 206.001 175.392 204.996 172.042 203.037C167.997 200.669 165.681 196.994 165.514 192.682C165.459 191.233 166.481 189.907 167.926 189.71C169.608 189.484 171.075 190.751 171.124 192.396C171.238 196.372 175.403 200.532 184.257 200.269C184.372 200.269 184.491 200.265 184.605 200.262C188.207 200.18 188.522 205.567 184.928 205.834C184.754 205.845 184.587 205.856 184.42 205.86H184.417V205.863Z" fill="#2B1916"/>
<path d="M148.068 203.696C142.726 203.285 137.784 201.766 134.153 199.421C129.722 196.561 127.469 192.593 127.81 188.239C127.932 186.702 129.477 185.561 131.263 185.698C133.049 185.835 134.405 187.195 134.282 188.736C133.975 192.704 138.295 197.327 148.505 198.12C158.716 198.906 163.699 195.001 164.007 191.033C164.129 189.495 165.674 188.354 167.459 188.491C169.245 188.628 170.601 189.988 170.479 191.529C170.142 195.879 167.3 199.461 162.484 201.607C158.531 203.366 153.414 204.107 148.076 203.696H148.072H148.068Z" fill="#2B1916"/>
<path d="M123.168 165.399C119.907 163.813 116.251 162.965 112.383 163.28C105.588 163.672 99.8345 167.551 96 172.649C96.1074 165.332 103.995 158.912 112.19 158.538C117.281 158.086 123.186 159.29 126.61 162.461C126.632 162.48 126.647 162.498 126.669 162.517C128.08 163.835 125.328 166.559 123.579 165.606C123.434 165.529 123.297 165.455 123.164 165.392L123.168 165.399Z" fill="#2B1916"/>
<path d="M123.838 195.416C123.238 195.416 122.638 195.219 122.138 194.808C120.989 193.871 120.819 192.185 121.76 191.044C127.41 184.16 133.408 184.146 137.443 185.35C138.865 185.776 139.673 187.265 139.247 188.68C138.821 190.096 137.328 190.903 135.901 190.477C133.575 189.784 130.011 189.44 125.92 194.43C125.391 195.079 124.616 195.416 123.838 195.416Z" fill="#2B1916"/>
<path d="M105.214 177.555C107.311 176.032 109.508 174.628 111.939 173.557C114.395 172.512 116.97 171.953 119.585 171.623C122.186 171.301 124.906 170.864 127.484 171.642C127.932 171.771 128.444 171.975 128.973 172.234C130.804 173.12 130.248 176.076 128.24 176.125C126.45 176.169 124.62 176.128 123.29 175.906C119.771 175.161 116.088 175.239 112.554 175.843C110.171 176.284 107.8 177.136 105.407 177.988C105.177 178.077 104.996 177.703 105.214 177.562V177.555Z" fill="#FBB96D"/>
<path d="M83.6372 152.825C91.0654 134.745 115.154 128.184 118.944 135.89C119.522 137.068 118.522 138.39 117.137 138.368C104.055 138.15 92.8919 142.973 83.6372 152.828V152.825Z" fill="#54322B"/>
<path d="M237.263 111.93C227.297 95.1067 202.511 92.0724 199.87 100.238C199.466 101.49 200.651 102.654 202.019 102.431C214.93 100.338 226.678 103.506 237.259 111.93H237.263Z" fill="#54322B"/>
<path d="M262.093 70.7584C263.456 77.0085 260.07 83.1549 254.976 86.7041C255.535 83.5921 255.135 80.2392 254.109 77.4457C250.645 67.7575 245.584 64.1416 253.831 55.1313C250.274 56.4762 246.94 58.9399 245.654 62.8078C244.339 66.7164 245.384 70.7066 246.492 74.4374C247.392 77.4902 248.507 80.5244 248.433 83.5254C248.4 86.3114 247.203 88.5936 245.414 90.7795L239.871 97.6853L248.407 96.3145C254.279 95.3735 259.436 91.5168 262.33 86.4152C265.079 81.7396 265.712 75.019 262.097 70.7547L262.093 70.7584Z" fill="#FDAB57"/>
<path d="M38.9824 112.301C39.979 118.621 45.3659 123.134 51.4011 124.608C49.7487 121.908 48.9114 118.636 48.8522 115.658C48.5669 105.38 51.9791 100.186 41.0238 94.7511C44.8287 94.7288 48.8262 95.8255 51.4307 98.9672C54.0723 102.135 54.5502 106.236 54.8651 110.111C55.1282 113.279 55.1912 116.513 56.3508 119.285C57.3919 121.867 59.3369 123.567 61.7969 124.964L69.4734 129.414L61.0189 131.211C55.2023 132.448 48.9966 130.707 44.4471 126.991C40.1902 123.619 37.1633 117.58 38.9861 112.308H38.9898L38.9824 112.301Z" fill="#FDAB57"/>
<path d="M153.755 179.592C156.089 178.144 158.764 175.632 160.239 173.231C163.81 167.081 155.497 166.625 151.784 169.578C149.787 170.971 148.294 173.198 147.928 175.598C147.324 179.496 149.899 182.086 153.678 179.64L153.755 179.592Z" fill="white"/>
<path d="M224.722 69.1357C195.257 73.8002 183.072 89.8941 183.072 89.8941C183.568 86.3337 184.776 82.5621 186.291 78.6943C175.636 80.3652 159.268 93.8768 152.792 103.576V103.587V103.58C143.241 96.8666 123.075 90.1571 112.531 92.4356C115.343 95.4995 117.84 98.5856 119.593 101.724C119.593 101.724 102.395 91.1018 73.2339 97.3556C73.2339 97.3556 112.09 98.5153 133.734 120.411C135.835 115.006 131.715 105.054 131.715 105.054C136.576 105.647 141.3 107.563 145.834 109.341C148.85 110.523 151.881 111.864 154.659 113.568C154.659 113.568 154.663 113.568 154.67 113.572V113.557C156.645 110.967 158.99 108.626 161.369 106.44C164.948 103.146 168.664 99.6675 172.976 97.363C172.976 97.363 172.743 108.122 176.659 112.412C188.911 84.2071 224.718 69.1394 224.718 69.1394H224.714L224.722 69.1357Z" fill="#FBB96D"/>
<path d="M275.023 137.639C274.945 137.079 274.867 136.505 274.582 136.02C273.93 134.908 272.437 134.601 271.151 134.734C268.713 134.986 266.498 136.409 264.912 138.276C263.33 140.139 262.315 142.425 261.556 144.748C260.774 147.138 260.244 149.616 260.118 152.128C260.022 153.955 260.174 155.885 261.148 157.437C263.378 160.99 273.978 163.358 276.938 159.719C278.802 157.43 277.031 152.428 276.675 149.835C276.123 145.771 275.571 141.703 275.019 137.642L275.023 137.639Z" fill="#E89C4C"/>
<path d="M251.789 148.935C246.988 146.76 241.742 145.148 237.967 149.868C235.377 153.014 235.203 157.348 236.018 161.19C236.047 161.413 236.04 161.616 235.962 161.798C232.469 164.984 231.05 169.871 231.105 174.75C231.105 176.984 231.576 179.541 233.117 181.223C233.643 181.786 234.314 182.164 235.058 182.323C235.362 182.386 235.518 182.578 235.369 182.871C233.443 186.406 234.625 190.814 237.055 193.819C241.771 199.417 249.715 200.032 256.539 201.247C256.539 201.247 260.874 206.579 237.537 219.36C225.411 226.007 224.184 240.897 225.892 253.408C226.782 261.596 230.857 270.962 239.723 272.799C244.15 273.614 248.729 272.077 252.56 269.813C256.958 267.272 261.555 265.33 264.471 261.918C302.872 217.004 293.584 185.876 287.393 171.386C285.511 166.611 282.662 159.682 278.19 156.326C270.506 151.458 260.314 152.621 251.86 148.972L251.793 148.946L251.789 148.935Z" fill="#FDAB57"/>
<path d="M234.899 185.142C234.036 183.853 233.421 181.322 233.421 181.322C234.662 179.852 236.711 179.1 238.471 179.037C244.054 178.822 252.953 182.341 252.953 182.341C252.953 182.341 243.016 179.933 238.923 181.008C237.37 181.415 235.14 182.949 234.899 185.146V185.142Z" fill="#836138"/>
<path d="M234.632 163.243C234.595 161.694 235.681 159.564 235.681 159.564C241.105 157.815 255.424 163.524 255.424 163.524C255.424 163.524 238.896 159.39 234.628 163.25L234.632 163.243Z" fill="#836138"/>
<path d="M275.626 196.079C275.626 196.079 260.073 205.678 253.293 208.483C254.49 207.99 255.42 205.93 255.783 204.804C256.083 203.859 255.961 202.273 256.62 201.481C257.439 200.495 264.593 200.321 275.63 196.079H275.626Z" fill="#E89C4C"/>
</svg>
