<svg width="343" height="510" viewBox="0 0 343 510" fill="none" xmlns="http://www.w3.org/2000/svg">
<path d="M60.0849 141.021C32.6215 164.949 7.86935 189.411 29.8445 223.103C59.9097 258.258 94.8413 244.239 131.687 210.858L60.0806 141.025L60.0849 141.021Z" fill="#588C4E"/>
<path d="M342.731 277.909C340.094 262.706 335.604 248.178 327.523 234.935C326.918 233.945 327.667 232.551 328.697 232.792C332.354 233.655 337.269 237.354 341.031 240.26C341.89 240.926 343.029 239.988 342.792 238.8C340.028 224.72 335.153 220.364 327.019 207.024C326.314 205.871 327.413 204.385 328.491 205.025C333.348 207.904 333.957 209.977 337.886 210.749C338.697 210.911 339.367 209.973 339.143 209.009C335.74 194.288 306.082 160.145 296.428 160.877C295.662 159.891 56.2917 152.318 55.2623 153.397C31.2592 159.501 9.66076 189.937 4.70683 207.195C4.37832 208.334 5.29814 209.447 6.4326 209.267C11.8815 208.413 14.2424 206.073 20.8739 202.795C22.3369 202.072 23.7867 203.811 22.8231 205.139C11.5793 220.618 4.64988 227.41 0.585118 244.094C0.243468 245.505 1.81156 246.566 3.01171 245.742C8.25474 242.179 15.0396 237.674 20.0066 236.561C21.3951 236.25 22.3851 237.84 21.5572 239.011C10.3703 254.791 3.94468 272.128 0.0376014 290.271C-0.242727 291.581 1.09759 292.598 2.28899 291.958C5.00467 290.517 7.45317 288.768 9.70456 286.8C10.9135 285.74 12.6918 286.849 12.2275 288.374C6.95384 305.78 2.88907 316.276 3.55923 329.34C3.61617 330.379 4.6455 331.027 5.64418 330.642C8.78035 329.432 15.2016 326.667 21.1937 322.227C22.5515 321.228 24.2028 322.683 23.4275 324.178C14.641 341.015 12.7488 356.809 11.5968 374.803C11.5136 376.078 12.8758 376.81 13.9708 376.087C17.3304 373.856 19.2489 372.265 21.9646 369.728C23.1122 368.65 24.8423 369.575 24.5007 371.082C20.1906 390.018 20.0154 409.375 22.3369 428.925C22.4814 430.121 23.8787 430.56 24.8379 429.718C28.4296 426.572 32.4024 422.185 36.6336 416.944C37.6849 415.642 39.6209 416.444 39.288 418.039C34.3691 442.015 36.984 454.969 41.9424 464.409C42.3891 465.251 43.5586 465.351 44.3076 464.602C49.4193 459.466 53.0898 452.848 55.2536 444.688C55.6828 443.071 57.8773 442.9 58.1927 444.461C62.4151 465.351 73.418 477.591 89.953 482.521C90.1326 482.578 90.3253 482.587 90.5181 482.565L270.445 459.707C270.607 459.685 270.769 459.628 270.918 459.545C284.663 451.45 293.682 438.176 297.269 418.71C297.536 417.264 299.275 417.023 299.595 418.385C301.22 425.239 304.023 430.415 307.957 433.974C308.531 434.491 309.437 434.18 309.788 433.356C313.695 424.148 315.828 412.351 312.311 392.174C312.074 390.825 313.572 389.821 314.361 390.803C317.527 394.721 320.493 397.911 323.16 400.067C323.874 400.641 324.925 400.036 325.039 398.98C326.967 381.74 327.037 365.069 324.006 349.249C323.76 347.987 325.066 346.983 325.911 347.781C327.904 349.652 329.31 350.792 331.763 352.312C332.556 352.803 333.563 352.014 333.515 350.936C332.853 335.651 331.618 322.298 325.271 308.581C324.702 307.358 325.955 305.956 326.953 306.714C331.342 310.04 336.02 311.863 338.285 312.626C338.999 312.867 339.757 312.227 339.805 311.342C340.418 300.184 337.584 291.546 333.909 277.006C333.589 275.722 334.895 274.674 335.771 275.52C337.387 277.076 339.148 278.426 341.092 279.499C341.947 279.968 342.915 279.03 342.731 277.935V277.926V277.909Z" fill="#BC7655"/>
<path d="M314.085 276.69C311.798 264.135 307.961 252.136 301.133 241.232C300.62 240.417 301.242 239.26 302.101 239.462C305.162 240.163 309.297 243.204 312.455 245.597C313.178 246.149 314.124 245.369 313.927 244.388C311.535 232.761 307.387 221.411 300.515 210.437C299.924 209.491 300.83 208.259 301.733 208.776C305.811 211.121 309.613 212.799 312.99 213.404C313.686 213.531 314.255 212.769 314.063 211.98C311.062 200.034 305.973 189.161 297.173 180.168C296.389 179.362 297.068 177.903 298.071 178.253C301.211 179.34 304.124 179.822 306.91 179.967C307.585 179.997 308.062 179.244 307.852 178.494C303.45 163.204 293.454 149.636 278.185 137.537C277.449 136.954 277.659 135.678 278.518 135.494C282.158 134.714 285.443 133.347 288.369 131.432C288.842 131.121 289.004 130.42 288.706 129.881C285.785 124.565 276.262 119.455 268.772 117.873C267.848 117.676 267.594 116.273 268.395 115.761C271.107 114.03 273.389 111.847 275.325 109.297C275.754 108.731 275.557 107.82 274.935 107.5C256.884 98.0996 239.097 92.0695 222.965 97.3765C222.308 97.5956 221.598 97.0347 221.567 96.259C221.427 92.3061 223.114 88.8572 226.272 85.8333C226.911 85.2198 226.574 84.0147 225.715 83.7955C214.533 80.9821 209.246 85.2593 198.988 93.3535C198.848 93.4631 195.62 75.9993 192.65 75.8109C188.712 75.5567 186.027 79.3124 184.323 83.1689C182.619 79.0976 179.917 74.9782 175.931 74.724C172.909 74.5268 180.74 92.4157 180.6 92.2886C170.044 82.8139 153.198 77.0949 141.192 78.5279C140.259 78.6375 139.895 79.8558 140.588 80.5789C144.008 84.133 145.831 87.9237 145.677 92.0125C145.647 92.8145 144.889 93.3141 144.175 93.0073C126.466 85.4652 106.256 89.6548 84.9466 97.6526C84.1976 97.9287 83.9567 98.906 84.4736 99.5765C86.7951 102.592 89.5283 105.234 92.752 107.417C93.7025 108.061 93.4047 109.568 92.3053 109.682C83.3435 110.611 71.7318 115.274 68.1269 120.888C67.7546 121.466 67.9605 122.26 68.5474 122.654C72.1698 125.06 76.1864 126.87 80.6191 128.044C81.6615 128.32 81.9156 129.745 81.0264 130.319C62.2225 142.541 49.5683 157.161 43.9092 174.283C43.6332 175.115 44.2552 175.996 45.1224 175.987C48.701 175.926 52.4198 175.492 56.4101 174.379C57.6759 174.024 58.5388 175.698 57.5445 176.57C46.3226 186.448 39.7349 198.723 35.8234 212.366C35.565 213.268 36.3096 214.136 37.2251 213.987C41.6183 213.277 46.5329 211.366 51.754 208.706C52.906 208.119 54.0623 209.508 53.3089 210.578C44.5092 223.045 39.1217 236.07 36.003 249.445C35.7402 250.575 36.9754 251.421 37.9215 250.764C42.0345 247.893 47.3651 244.274 51.2853 243.362C52.3803 243.108 53.1688 244.388 52.5205 245.321C43.7602 257.999 38.7844 271.896 35.7971 286.432C35.5825 287.484 36.6381 288.295 37.5755 287.786C39.7042 286.638 41.6315 285.236 43.3923 283.658C44.3428 282.808 45.7532 283.697 45.3896 284.92C41.3117 298.865 38.1624 307.261 38.7581 317.735C38.8063 318.568 39.6254 319.089 40.405 318.787C42.8754 317.836 47.9257 315.641 52.6388 312.1C53.7075 311.298 55.0259 312.476 54.4127 313.673C47.5534 327.144 46.1343 339.801 45.3196 354.223C45.2626 355.24 46.3401 355.84 47.1986 355.266C49.8399 353.504 51.3466 352.238 53.4797 350.226C54.3864 349.372 55.7574 350.125 55.4902 351.331C52.1745 366.494 52.1307 382.029 54.0667 397.744C54.1849 398.708 55.2975 399.072 56.0509 398.406C58.8805 395.921 62.0035 392.437 65.328 388.274C66.1559 387.24 67.6933 387.901 67.4436 389.181C63.6679 408.398 65.8011 418.841 69.7782 426.497C70.133 427.181 71.066 427.281 71.6529 426.69C75.687 422.627 78.5692 417.351 80.2555 410.808C80.5884 409.511 82.3317 409.401 82.5945 410.659C86.0592 427.544 94.8939 437.563 108.135 441.796C108.275 441.84 108.433 441.857 108.586 441.84L254.856 425.87C254.992 425.853 255.124 425.809 255.251 425.739C266.586 419.279 274.002 408.481 276.88 392.512C277.094 391.324 278.535 391.144 278.811 392.266C280.2 397.928 282.556 402.219 285.85 405.199C286.328 405.633 287.081 405.383 287.375 404.708C290.581 397.166 292.298 387.468 289.258 370.806C289.052 369.688 290.296 368.886 290.958 369.697C293.621 372.958 296.109 375.618 298.347 377.419C298.943 377.897 299.819 377.414 299.911 376.542C301.435 362.343 301.404 348.583 298.789 335.506C298.579 334.458 299.661 333.643 300.375 334.309C302.048 335.865 303.226 336.816 305.289 338.083C305.96 338.49 306.792 337.85 306.748 336.956C306.117 324.335 305.013 313.3 299.639 301.968C299.157 300.955 300.2 299.807 301.036 300.429C304.724 303.186 308.645 304.707 310.546 305.342C311.15 305.544 311.776 305.022 311.811 304.286C312.267 295.074 309.849 287.935 306.7 275.923C306.419 274.863 307.514 273.999 308.246 274.696C309.608 275.984 311.089 277.098 312.727 277.983C313.445 278.368 314.255 277.597 314.089 276.694V276.681L314.085 276.69Z" fill="#A16143"/>
<path d="M130.416 57.392C123.789 57.392 115.747 54.7319 110.114 50.3014C104.915 46.2126 102.366 41.0107 102.94 35.6555L103.005 35.2391C104.355 28.315 110.789 24.9581 116.247 22.802C123.978 19.822 130.6 19.1646 136.527 20.7729C143.855 22.7406 147.061 26.8118 148.458 29.8751C150.504 34.3627 150.145 39.6916 147.424 45.2967C144.634 51.1384 140.937 54.9072 136.443 56.4674C134.687 57.094 132.628 57.392 130.412 57.392H130.416ZM110.771 36.6459C110.509 39.8538 112.909 42.4657 114.99 44.1003C120.741 48.6229 129.825 50.4679 133.802 49.0348L133.85 49.0173C136.286 48.1759 138.463 45.77 140.324 41.8697C141.494 39.4637 142.598 36.0192 141.288 33.1487C140.031 30.3879 136.89 29.0381 134.477 28.3895C130.158 27.2194 125.278 27.7803 119.116 30.1512C115.598 31.5404 111.459 33.5432 110.771 36.6459Z" fill="#536F4E"/>
<path d="M148.962 43.9687C147.959 43.9687 147.074 43.8766 146.343 43.6707C140.18 41.9703 135.016 33.2143 130.548 16.9119C129.677 13.7215 130.158 10.277 131.871 7.45035C133.584 4.6281 136.418 2.61659 139.646 1.9198C144.503 0.876793 151.95 -0.442301 160.486 0.144937C171.135 0.876793 180.657 4.37831 188.795 10.5443C192.282 13.1869 192.834 16.2545 192.685 18.3625C192.278 24.1077 186.115 30.0897 173.294 37.1979C170.46 38.7931 156.474 43.9687 148.962 43.9687ZM156.111 7.86668C149.523 7.86668 144.135 9.02362 141.306 9.63277C140.171 9.87819 139.217 10.5575 138.616 11.5435C138.012 12.5339 137.85 13.6996 138.161 14.8215C139.217 18.678 140.929 24.2392 143.084 28.8319C146.106 35.2609 148.218 36.0015 148.445 36.0629L148.494 36.076C151.437 36.7027 165.9 32.3072 169.448 30.3044C184.354 22.0436 184.805 17.968 184.818 17.7971C184.84 17.486 184.336 17.0565 184.034 16.8286C174.639 9.71166 164.415 7.86668 156.106 7.86668H156.111Z" fill="#5D7B57"/>
<path d="M279.762 104.958C225.54 86.1885 190.105 92.9768 136.041 119.267C113.417 132.068 87.0577 137.055 61.377 145.872C61.8237 129.868 67.0142 111.79 71.1096 94.2827C75.2488 76.6042 86.3437 61.3141 101.994 52.1199C150.662 23.5425 226.101 21.4696 263.893 56.5417C271.807 71.2665 280.055 88.0247 279.762 104.954V104.958Z" fill="#6A9462"/>
<path d="M134.376 120.143C161.073 130.617 181.314 173.643 280.353 154.768C318.285 147.542 286.385 109.003 279.977 104.831C246.871 91.7102 213.661 77.5157 177.88 64.9558C164.205 82.3976 150.662 104.757 134.372 120.139L134.376 120.143Z" fill="#588C4E"/>
<path d="M279.762 104.958C253.805 95.9741 232.154 92.8451 210.705 94.9136C195.098 96.4124 179.601 100.659 162.628 107.403C162.562 107.43 162.501 107.456 162.435 107.478C159.58 108.617 156.68 109.822 153.732 111.102C152.532 111.619 151.327 112.149 150.11 112.693C146.26 114.411 142.317 116.243 138.275 118.188C138.099 118.272 137.937 118.351 137.788 118.421C137.206 118.701 136.623 118.982 136.041 119.266C136.01 119.284 135.979 119.302 135.949 119.319C135.703 119.459 135.454 119.595 135.204 119.735C135.134 119.775 135.064 119.814 134.994 119.854C134.99 119.858 134.981 119.858 134.976 119.862C112.589 132.23 86.6503 137.195 61.377 145.876C61.504 141.288 62.0208 136.529 62.7917 131.664C63.129 129.517 63.5188 127.348 63.9437 125.165C65.9235 115.029 68.7049 104.559 71.1096 94.2869C71.1928 93.932 71.2804 93.577 71.368 93.222C71.863 91.2631 72.4412 89.3305 73.1026 87.4373C76.5979 77.4236 82.4016 68.409 90.0187 61.1562C90.08 61.0992 90.1413 61.0379 90.2026 60.9853C92.1868 59.1053 94.2937 57.3523 96.5144 55.7264C98.2708 54.4424 100.097 53.2416 101.994 52.1285C106.576 49.4421 111.394 46.9836 116.396 44.7749C117.885 44.1175 119.387 43.4777 120.907 42.8686C124.219 41.5232 127.605 40.2873 131.043 39.1611C139.632 36.3301 148.577 34.1739 157.635 32.7102C158.349 32.5963 159.058 32.4823 159.772 32.3815C160.758 32.2325 161.743 32.0923 162.733 31.9608C163.18 31.9039 163.627 31.8469 164.074 31.7899C174.052 30.5541 184.108 30.1684 193.942 30.6856C217.297 31.9126 239.394 38.2189 256.21 50.2792C258.825 52.1548 261.308 54.1707 263.652 56.3268C263.735 56.3969 263.814 56.4714 263.893 56.5459C268.119 64.4167 272.447 72.8659 275.513 81.6087C276.008 83.0242 276.472 84.4485 276.897 85.8772C278.754 92.144 279.871 98.5378 279.762 104.958Z" fill="#6A9462"/>
<path d="M298.597 138.711C298.544 139.921 298.364 141.104 298.045 142.244C297.243 145.123 295.548 147.743 292.67 149.904C291.641 150.675 290.463 151.39 289.114 152.038C286.735 153.178 283.84 154.107 280.353 154.773C276.63 155.483 273.021 156.105 269.517 156.644C268.334 156.824 267.165 156.999 266.008 157.157C255.33 158.669 245.671 159.396 236.898 159.488C236.71 159.493 236.521 159.493 236.337 159.493L234.712 159.501C234.27 159.501 233.832 159.497 233.394 159.497C216.824 159.357 203.504 156.92 192.44 153.292C191.612 153.024 190.801 152.744 190 152.463C189.422 152.257 188.852 152.051 188.292 151.841C187.262 151.46 186.255 151.065 185.269 150.662C175.326 146.617 167.359 141.652 160.412 136.827C159.304 136.06 158.226 135.293 157.166 134.535C148.827 128.571 141.853 123.079 134.376 120.148C134.42 120.108 134.464 120.064 134.508 120.025C139.339 115.445 143.93 110.257 148.349 104.766C149.335 103.543 150.311 102.303 151.284 101.054C154.626 96.7502 157.88 92.3108 161.073 87.8715C162.33 86.1317 163.574 84.3963 164.814 82.6696C169.216 76.5255 173.544 70.4954 177.884 64.9604C181.06 66.0736 184.214 67.1998 187.35 68.3393C188.563 68.7819 189.772 69.2245 190.981 69.6671C194.498 70.9555 197.989 72.2615 201.463 73.5762C203.854 74.479 206.233 75.3905 208.607 76.302C216.053 79.1725 223.416 82.078 230.713 85.001C231.887 85.47 233.057 85.9389 234.226 86.4078C243.306 90.0539 252.298 93.7088 261.247 97.3243C262.872 97.9816 264.497 98.639 266.118 99.2876C266.928 99.6162 267.738 99.9449 268.549 100.269H268.553C271.527 101.466 274.497 102.658 277.467 103.836C278.242 104.148 279.017 104.454 279.793 104.761C279.854 104.787 279.92 104.809 279.981 104.836C282.062 106.19 286.836 111.177 291.032 117.536C292.153 119.241 293.24 121.046 294.212 122.904V122.909C296.923 128.058 298.829 133.637 298.592 138.711H298.597Z" fill="#588C4E"/>
<path d="M127.688 123.356C127.96 123.22 129.58 122.422 133.378 120.568C133.378 120.586 133.378 120.599 133.382 120.617C130.684 121.918 128.047 123.193 127.688 123.356Z" fill="#77A66F"/>
<path d="M133.382 120.638V120.616C133.995 120.318 134.613 120.02 135.204 119.736C136.509 119.105 137.701 118.53 138.502 118.145C137.775 118.5 136.641 119.052 134.994 119.854C134.989 119.858 134.981 119.858 134.976 119.863C134.49 120.099 133.96 120.358 133.382 120.638Z" fill="#77A66F"/>
<path d="M138.791 118.005C138.918 117.943 139.028 117.891 139.12 117.847C139.023 117.891 138.914 117.943 138.791 118.005Z" fill="#77A66F"/>
<path d="M279.793 104.761C279.784 104.827 279.775 104.892 279.762 104.958C279 104.572 278.238 104.196 277.467 103.836C274.458 102.403 271.405 101.145 268.321 100.045C267.589 99.7825 266.854 99.5283 266.118 99.2873C264.493 98.7439 262.859 98.2486 261.216 97.7973C252.969 95.5053 244.528 94.2563 236.052 93.8444C234.187 93.7523 232.312 93.6997 230.442 93.691C223.841 93.6515 217.24 94.0898 210.705 94.9137C205.159 95.6148 199.662 96.5877 194.257 97.7841C192.107 98.2618 189.969 98.7701 187.853 99.3136C179.08 101.557 170.609 104.34 162.628 107.403C162.563 107.43 162.501 107.456 162.436 107.478C159.426 108.639 156.487 109.836 153.627 111.063C152.431 111.571 151.253 112.088 150.084 112.605C147.272 113.859 144.543 115.134 141.915 116.414C140.592 117.058 139.383 117.645 138.275 118.188C138.1 118.272 137.937 118.351 137.789 118.421C137.14 118.741 136.527 119.039 135.949 119.319C135.441 119.569 134.959 119.801 134.508 120.025C134.109 120.213 133.737 120.397 133.378 120.568C132.988 114.183 132.699 108.162 132.607 102.372C132.585 101.067 132.572 99.7737 132.572 98.4897C132.567 88.8704 133.167 79.8164 134.779 70.666C135.047 69.1453 135.34 67.6203 135.669 66.0864C136.47 62.3176 137.456 58.5137 138.651 54.6265C140.417 48.89 143.605 43.8284 147.793 39.8272H147.797C150.395 37.3424 153.377 35.2696 156.645 33.7007C156.772 33.6393 156.903 33.578 157.03 33.5166C157.924 33.1003 158.839 32.719 159.772 32.3816C160.92 31.9609 162.094 31.6059 163.294 31.3079C163.736 31.1984 164.183 31.0976 164.634 31.0055C169.593 29.9932 174.586 29.1781 179.597 28.5952C180.797 28.455 181.997 28.3279 183.202 28.214C183.732 28.1614 184.266 28.1132 184.796 28.0737C192.702 27.3945 200.643 27.3068 208.567 27.9116C210.402 28.043 212.238 28.2183 214.073 28.4331C222.575 29.4191 231.037 31.2247 239.395 33.968C239.627 34.0425 239.854 34.117 240.082 34.1959C242.137 34.8839 244.186 35.6289 246.228 36.4309C247.288 36.8516 248.348 37.2855 249.408 37.7369C258.33 41.5408 265.789 47.7418 271.08 55.4548C272.232 57.1332 273.279 58.8862 274.217 60.7005C277.02 66.1083 278.842 72.0684 279.49 78.3351C279.666 80.0048 279.836 81.6658 279.99 83.3223C280.112 84.6326 280.226 85.9386 280.314 87.2445C280.734 93.038 280.787 98.814 279.793 104.761Z" fill="#77A66F"/>
<path d="M289.113 152.038C289.328 147.546 288.877 143.229 287.97 139.158C287.686 137.852 287.348 136.577 286.972 135.324C284.781 128.005 281.256 121.615 277.817 116.584C277.388 115.953 276.959 115.349 276.534 114.761C275.877 113.854 275.215 112.978 274.554 112.141C268.141 103.976 261.965 99.0857 261.9 99.0331L261.177 98.4634L261.216 97.7973L261.234 97.5431C261.238 97.4686 261.243 97.3985 261.247 97.324C262.202 81.5693 260.682 69.7851 256.328 59.1316C252.934 50.8226 247.625 42.8905 239.46 34.0381C239.443 34.0162 239.421 33.9899 239.395 33.968C239.627 34.0425 239.854 34.117 240.082 34.1959C241.97 34.6736 243.832 35.1951 245.663 35.7604C245.851 35.9839 246.039 36.2074 246.228 36.4309C261.361 54.5476 266.227 71.3453 264.786 96.8594C265.513 97.473 266.757 98.5467 268.321 100.045C268.395 100.116 268.47 100.19 268.549 100.269H268.553C271.466 103.069 275.421 107.272 279.311 112.623C279.534 112.93 279.757 113.241 279.972 113.548C281.063 115.086 282.083 116.633 283.029 118.193C286.665 124.14 289.293 130.214 290.874 136.283C291.22 137.58 291.509 138.878 291.75 140.17C292.364 143.431 292.675 146.683 292.67 149.904C291.641 150.675 290.463 151.389 289.113 152.038Z" fill="#93C488"/>
<path d="M269.516 156.644C268.333 156.824 267.164 156.999 266.007 157.157C266.043 149.453 264.79 142.445 262.806 136.187H262.801C262.425 134.991 262.017 133.821 261.588 132.681C258.57 124.679 254.418 118.044 250.449 112.912C249.95 112.259 249.446 111.633 248.951 111.028C248.496 110.476 248.04 109.932 247.585 109.406C239.368 99.8879 231.383 94.8614 231.299 94.8132L230.401 94.2522L230.441 93.6913L230.476 93.2004C230.664 90.5579 230.747 87.8145 230.712 85.001C230.493 66.4505 225.163 44.9681 210.993 30.2783C210.213 29.4676 209.403 28.6788 208.566 27.9119C210.402 28.0433 212.237 28.2186 214.072 28.4334C214.707 29.1083 215.325 29.8007 215.925 30.5018C229.333 46.1776 234.252 67.8616 234.225 86.4078C234.221 88.4543 234.16 90.4615 234.041 92.416C234.536 92.7491 235.22 93.2267 236.052 93.8447C239.495 96.3952 245.53 101.36 251.579 108.705C251.776 108.942 251.969 109.183 252.166 109.428C253.073 110.555 253.997 111.76 254.917 113.039C258.741 118.338 262.565 124.929 265.337 132.721C265.749 133.873 266.135 135.056 266.498 136.262C268.338 142.397 269.49 149.207 269.516 156.644Z" fill="#93C488"/>
<path d="M280.313 87.2447C279.179 86.7714 278.04 86.32 276.897 85.8774C272.907 84.3348 268.877 82.9675 264.816 81.7711C263.625 81.4205 262.429 81.0875 261.234 80.7675C252.202 78.3529 243.017 76.7883 233.731 76.0915C232.557 76.0039 231.374 75.9294 230.196 75.8724C228.593 75.7892 226.985 75.7322 225.378 75.7015C219.815 75.5963 214.222 75.7979 208.606 76.3019C202.934 76.8146 197.244 77.6385 191.563 78.7692C190.402 79.0014 189.246 79.2469 188.085 79.501C184.713 80.2504 181.34 81.105 177.976 82.0691C171.804 83.8396 166.141 85.8379 161.073 87.8714C157.105 89.4665 153.504 91.0793 150.311 92.6175C149.128 93.1872 148.003 93.7481 146.934 94.2915C138.493 98.595 133.684 101.965 133.596 102.031L133.263 102.272L132.852 102.333C132.852 102.333 132.751 102.351 132.606 102.373C128.607 103.03 77.6489 111.751 62.7915 131.664C63.1288 129.517 63.5186 127.348 63.9435 125.165C82.835 107.303 126.847 99.752 131.914 98.9325C132.081 98.8185 132.3 98.6695 132.571 98.4899C134.56 97.162 139.409 94.0856 146.64 90.4745C147.722 89.9355 148.866 89.3833 150.057 88.818C154.328 86.8064 159.273 84.6941 164.814 82.6695C168.572 81.2934 172.601 79.9656 176.881 78.7341C180.551 77.6823 184.226 76.7533 187.91 75.9513C189.062 75.6971 190.218 75.4605 191.375 75.2326C194.734 74.5752 198.098 74.0231 201.462 73.5761C209.456 72.5111 217.441 72.0466 225.36 72.1956C226.832 72.2219 228.304 72.2701 229.771 72.3402C230.958 72.3972 232.145 72.4673 233.328 72.5506C242.622 73.2036 251.821 74.7067 260.87 77.0469C262.088 77.3581 263.301 77.6911 264.51 78.0329C268.207 79.0847 271.873 80.2767 275.513 81.609C277.011 82.1567 278.504 82.7265 279.989 83.3225C280.112 84.6328 280.226 85.9387 280.313 87.2447Z" fill="#93C488"/>
<path d="M274.217 60.7008C270.8 59.0793 267.274 57.6243 263.652 56.3272C261.821 55.6698 259.968 55.0563 258.089 54.4822C256.582 54.0264 255.067 53.5926 253.529 53.185C245.124 50.9588 236.272 49.5213 227.086 48.899C225.794 48.807 224.498 48.7369 223.192 48.6843C217.038 48.417 210.74 48.5178 204.34 48.9823C199.093 49.3636 193.85 49.999 188.681 50.8799C187.525 51.0683 186.377 51.2743 185.23 51.4978C172.952 53.8336 161.126 57.5104 150.526 62.2784C149.278 62.8394 148.047 63.4178 146.834 64.0095C142.773 65.9859 138.919 68.1333 135.318 70.4296L135.003 70.6312L134.779 70.6663L134.635 70.6882C114.942 73.6419 87.9601 79.1462 71.3682 93.2224C71.8631 91.2634 72.4413 89.3308 73.1027 87.4376C90.3254 75.1538 115.148 70.0834 133.75 67.2743C134.381 66.8755 135.02 66.4811 135.669 66.0867C139.322 63.878 143.211 61.8139 147.285 59.9119C148.529 59.3291 149.794 58.7638 151.073 58.2116C161.424 53.7459 172.83 50.2883 184.634 48.0445C185.777 47.8254 186.925 47.615 188.077 47.4222C193.368 46.5282 198.725 45.8752 204.086 45.4852C209.978 45.0557 215.786 44.933 221.48 45.1127C222.811 45.1521 224.139 45.2091 225.461 45.2836C234.318 45.7744 242.894 47.0059 251.085 48.956C252.688 49.3329 254.278 49.7448 255.855 50.1831C255.973 50.2138 256.092 50.2444 256.21 50.2795C261.339 51.7125 266.306 53.4392 271.08 55.4551C272.232 57.1335 273.279 58.8865 274.217 60.7008Z" fill="#93C488"/>
<path d="M240.082 34.1959C239.876 34.1433 239.67 34.0907 239.46 34.0381C237.02 33.4334 234.541 32.8987 232.018 32.4386C226.823 31.4876 221.453 30.8434 215.926 30.5016C214.296 30.4008 212.654 30.3263 210.993 30.2781C205.444 30.1115 199.754 30.2518 193.942 30.6856C193.254 30.7382 192.562 30.7908 191.865 30.8521C189.286 31.0756 186.78 31.3474 184.358 31.6585C183.162 31.8163 181.988 31.9784 180.836 32.1449C162.396 34.8752 149.663 39.5424 149.514 39.5994L149.286 39.6826L149.041 39.7002C148.997 39.7002 148.563 39.7396 147.797 39.8272H147.793C144.087 40.2392 132.633 41.7599 119.694 45.9538C118.288 46.414 116.864 46.9004 115.428 47.4263C108.875 49.8059 102.125 52.8955 95.9493 56.8834C93.9607 58.1675 92.029 59.5435 90.185 61.0204C90.1281 61.0642 90.0711 61.1124 90.0186 61.1563C90.0799 61.0993 90.1412 61.0379 90.2025 60.9853C92.1867 59.1053 94.2936 57.3524 96.5143 55.7265C98.2707 54.4425 100.097 53.2417 101.994 52.1286C106.575 49.4422 111.394 46.9837 116.396 44.7749C117.885 44.1176 119.387 43.4778 120.907 42.8686C124.219 41.5232 127.604 40.2874 131.043 39.1611C140.289 37.0357 147.144 36.352 148.524 36.2293C149.33 35.9401 152.199 34.9453 156.645 33.7007C158.778 33.1047 161.27 32.4517 164.073 31.79C168.55 30.7382 173.819 29.6645 179.667 28.7793C180.832 28.604 182.019 28.4331 183.228 28.2753C183.745 28.2052 184.27 28.1395 184.796 28.0737C192.702 27.3945 200.643 27.3068 208.567 27.9116C210.402 28.043 212.237 28.2183 214.073 28.4331C222.575 29.4191 231.037 31.2247 239.394 33.968C239.626 34.0425 239.854 34.117 240.082 34.1959Z" fill="#93C488"/>
<path d="M236.898 159.492L233.394 159.506C233.337 144.478 227.586 129.587 217.205 117.575C208.559 107.566 197.718 100.913 189.584 100.615L187.766 100.55L187.854 99.3137L187.898 98.7352C188.852 85.7853 187.933 68.6108 185.44 52.7861C184.161 44.6655 182.558 37.5617 180.837 32.1451C180.451 30.9356 180.061 29.8137 179.667 28.7794C179.645 28.7181 179.623 28.6567 179.597 28.5954C180.797 28.4551 181.997 28.3281 183.202 28.2141C183.211 28.236 183.22 28.2579 183.228 28.2755C183.623 29.3623 183.999 30.4973 184.358 31.6587C186.645 39.0517 188.165 47.593 188.901 52.2427C191.323 67.6204 192.282 84.2866 191.507 97.2628C192.405 97.3767 193.32 97.552 194.257 97.7843C202.501 99.8221 212.089 106.29 219.859 115.283C230.783 127.926 236.837 143.628 236.898 159.492Z" fill="#93C488"/>
<path d="M192.439 153.291C191.611 153.024 190.801 152.743 190 152.463L188.291 151.841C188.046 151.126 187.779 150.416 187.498 149.706C185.212 143.944 181.791 138.22 177.446 132.97C176.636 131.993 175.799 131.042 174.936 130.113C174.087 129.193 173.206 128.299 172.304 127.426C166.049 121.396 158.743 116.685 151.187 113.872L150.329 113.556L150.11 112.693L150.101 112.667C150.101 112.645 150.092 112.627 150.083 112.605C149.409 109.985 148.831 107.395 148.349 104.765C146.895 96.8287 146.281 88.5416 146.303 77.9977C146.299 63.6936 147.376 48.719 155.208 36.1854C155.782 35.2695 156.391 34.3843 157.03 33.5166C157.227 33.2449 157.429 32.9775 157.635 32.7102C158.349 32.5963 159.058 32.4823 159.772 32.3815C160.92 31.9608 162.094 31.6059 163.294 31.3079C163.106 31.527 162.922 31.7461 162.733 31.9608C161.047 33.9504 159.518 35.9181 158.178 38.0479C150.815 49.8278 149.803 64.2151 149.807 78.002C149.79 86.9552 150.237 94.2343 151.284 101.053C151.796 104.406 152.453 107.644 153.272 110.918C153.39 110.966 153.509 111.01 153.627 111.063C153.662 111.071 153.697 111.085 153.732 111.102C161.87 114.363 169.452 119.569 175.804 125.941C176.688 126.826 177.551 127.738 178.383 128.667C183.705 134.583 187.98 141.332 190.753 148.357C191.191 149.452 191.585 150.552 191.944 151.661C192.12 152.204 192.286 152.748 192.439 153.291Z" fill="#93C488"/>
<path d="M294.212 122.904C274.212 112.754 249.701 110.313 221.335 115.651C205.61 118.609 190.84 123.552 178.383 128.667C177.214 129.144 176.062 129.626 174.936 130.113C169.566 132.4 164.682 134.697 160.412 136.827C159.304 136.06 158.226 135.293 157.166 134.535C161.551 132.313 166.645 129.876 172.304 127.426C173.447 126.931 174.616 126.436 175.803 125.941C188.703 120.568 204.169 115.309 220.687 112.202C247.633 107.136 271.255 108.928 291.032 117.535C292.153 119.24 293.239 121.046 294.212 122.904Z" fill="#93C488"/>
<path d="M298.596 138.711C298.544 139.921 298.364 141.104 298.044 142.243C295.986 141.477 293.888 140.788 291.75 140.171C290.506 139.807 289.245 139.469 287.97 139.158C281.194 137.502 274.032 136.533 266.499 136.261C265.277 136.218 264.046 136.191 262.802 136.187C253.77 136.13 244.221 137.042 234.191 138.93C233.959 138.974 233.726 139.018 233.494 139.066C232.329 139.285 231.173 139.522 230.025 139.767C216.153 142.708 203.136 147.103 191.944 151.661C191.287 151.924 190.639 152.191 190 152.463C189.421 152.257 188.852 152.051 188.291 151.841C187.262 151.46 186.255 151.065 185.269 150.662C186.001 150.342 186.745 150.027 187.499 149.707C188.567 149.255 189.649 148.808 190.753 148.357C201.944 143.812 214.931 139.421 228.786 136.446C229.942 136.196 231.107 135.959 232.277 135.736C232.697 135.648 233.122 135.565 233.547 135.486C243.345 133.641 252.697 132.707 261.589 132.681C262.846 132.672 264.098 132.685 265.338 132.721C272.902 132.913 280.121 133.781 286.971 135.324C288.285 135.617 289.586 135.937 290.874 136.283C293.507 136.989 296.082 137.795 298.596 138.711Z" fill="#93C488"/>
<path d="M119.694 45.9541C109.957 71.6786 107.276 100.396 112.173 127.422L108.726 128.049C103.89 101.347 106.277 73.0371 115.428 47.4266C115.739 46.5413 116.063 45.6561 116.396 44.7752C117.885 44.1179 119.387 43.478 120.907 42.8689C120.491 43.89 120.088 44.9198 119.694 45.9541Z" fill="#93C488"/>
<path d="M95.9492 56.8835C84.0615 81.3371 78.7659 109.31 80.9954 136.367L77.5044 136.656C75.3932 111.05 79.8741 84.6371 90.1849 61.0205C90.1893 61.0073 90.1937 60.9986 90.2024 60.9854C92.1866 59.1054 94.2935 57.3524 96.5142 55.7266C96.3215 56.1122 96.1331 56.4979 95.9492 56.8835Z" fill="#93C488"/>
<path d="M306.388 375.78C287.208 366.765 244.103 360.959 237.138 360.893L289.595 317.49L312.192 344.779C314.08 353.872 311.377 364.456 306.388 375.784V375.78Z" fill="#536F4E"/>
<path d="M286.319 485.883C286.288 492.75 283.371 493.806 280.787 494.086C278.882 494.292 276.906 495.327 274.83 496.549C266.862 501.225 259.053 499.06 259.053 499.06C256.998 499.227 254.861 499.372 252.653 499.494C252.653 499.494 250.021 500.813 245.991 500.936C225.028 501.58 213.403 491.418 212.991 481.803C212.527 470.987 231.848 462.52 239.955 462.577C260.927 462.731 286.372 473.012 286.31 485.887H286.315L286.319 485.883Z" fill="#E89C4C"/>
<path d="M257.821 482.145C256.481 480.032 254.76 478.231 252.841 476.719C253.656 477.622 254.431 478.555 255.101 479.563C257.068 482.465 258.299 486.058 258.251 489.56C258.294 493.438 256.297 498.578 252.657 499.49C254.865 499.363 257.002 499.223 259.057 499.056C261.777 493.802 260.931 486.983 257.821 482.149V482.145Z" fill="#836138"/>
<path d="M275.631 479.055C273.963 477.377 272 476.04 269.88 475.238C271.843 476.399 273.485 478.012 274.782 479.84C276.074 481.671 277.029 483.722 277.55 485.839C278.562 489.7 277.87 494.1 274.834 496.55C277.125 495.883 279.127 495.073 280.783 494.087C280.883 493.6 280.962 493.114 280.997 492.623C281.4 487.399 279.061 482.548 275.627 479.055H275.631Z" fill="#836138"/>
<path d="M252.657 273.947C252.657 289.522 254.138 303.308 257.695 319.501C268.395 368.198 301.654 408.551 270.257 457.616C264.046 467.323 257.37 473.34 247.169 478.244C210.945 495.664 125.108 494.077 91.8802 469.449C23.6859 418.898 114.635 337.824 114.635 277.124C114.635 210.797 252.653 220.013 252.653 273.951L252.657 273.947Z" fill="#FFD183"/>
<path d="M67.5751 409.989C64.0097 431.971 68.9417 452.432 91.8848 469.444C125.113 494.073 210.95 495.66 247.174 478.24C257.366 473.34 264.042 467.323 270.257 457.612C273.625 452.34 276.253 447.173 278.242 442.081C253.91 470.154 91.6396 487.127 67.5707 409.98L67.5751 409.989Z" fill="#FBB96D"/>
<path d="M114.639 277.119C114.639 283.548 113.614 290.214 111.871 297.042C111.871 305.031 253.905 305.053 253.914 297.064C253.056 289.451 252.661 281.931 252.661 273.942C252.661 220.008 114.643 210.788 114.643 277.115H114.639V277.119Z" fill="#FBB96D"/>
<path d="M207.871 301.13C240.818 298.716 254.589 349.135 259.784 375.302C264.992 401.57 263.371 429.359 254.09 454.399C250.7 463.545 245.045 477.766 236.416 482.438C213.613 494.779 150.863 488.249 150.863 488.249C149.028 485.378 145.984 477.363 144.959 473.897C133.662 435.485 139.326 397.358 155.756 361.603C165.445 340.515 182.619 302.98 207.875 301.135H207.871V301.13Z" fill="#FFEACD"/>
<path d="M302.214 359.202C289.669 374.207 256.678 324.59 257.129 324.239C254.514 321.312 252.697 317.67 251.383 313.975C248.566 306.043 248.47 299.268 248.544 291.099C248.623 282.098 247.738 270.441 257.274 265.945C261.111 264.139 270.357 263.968 274.137 265.945C278.728 268.342 280.659 281.581 282.372 286.586C290.353 309.904 324.176 332.938 302.214 359.206V359.202Z" fill="#FDAB57"/>
<path d="M319.844 367.936L315.144 370.679L311.154 373.002L306.389 375.78C306.389 375.78 310.291 369.421 308.666 356.647C308.517 355.463 308.32 354.227 308.066 352.935C307.659 350.853 307.111 348.631 306.389 346.265C305.11 342.088 300.835 337.241 294.698 332.14C293.778 331.373 292.81 330.602 291.807 329.826C283.257 323.205 271.926 316.272 260.222 309.909C258.487 308.966 256.749 308.037 255.005 307.126C236.596 297.463 218.155 289.531 208.909 286.713L234.2 283.145L235.303 282.988L255.29 280.17L257.515 279.854L268.737 278.272C273.792 282.208 279.354 287.125 284.891 292.826C285.798 293.755 286.704 294.711 287.607 295.683C292.907 301.398 298.106 307.805 302.727 314.729C303.423 315.768 304.107 316.82 304.772 317.88C304.895 318.077 305.018 318.27 305.136 318.467C308.403 323.731 311.312 329.257 313.664 334.976C313.668 334.976 313.673 334.985 313.668 334.989C315.017 338.263 316.183 341.602 317.129 344.989C317.536 346.436 317.9 347.891 318.224 349.354C318.789 351.922 319.227 354.517 319.516 357.133V357.151C319.91 360.713 320.033 364.316 319.844 367.936Z" fill="#588C4E"/>
<path d="M305.135 318.467C308.403 323.731 311.311 329.257 313.664 334.976C312.288 332.535 310.668 330.12 308.802 327.723C307.207 325.672 305.481 323.691 303.655 321.763C302.81 320.869 301.938 319.988 301.049 319.116C294.641 312.84 287.216 307.134 279.748 301.613C278.592 300.758 277.44 299.908 276.288 299.062C275.968 298.83 275.644 298.593 275.324 298.357C267.431 292.567 259.976 287.094 254.076 281.432L255.289 280.17L257.515 279.854C263.09 285.03 270.051 290.144 277.396 295.53C278.106 296.047 278.811 296.569 279.52 297.09C280.642 297.914 281.763 298.738 282.88 299.571C289.695 304.632 296.454 309.869 302.45 315.597C303.239 316.346 304.014 317.109 304.772 317.88C304.916 318.025 305.057 318.165 305.197 318.31C305.179 318.362 305.157 318.415 305.135 318.467Z" fill="#93C488"/>
<path d="M319.844 367.936L318.224 368.882C319.082 365.35 319.459 360.534 319.516 357.146C319.91 360.709 320.033 364.311 319.844 367.931V367.936Z" fill="#93C488"/>
<path d="M315.144 370.679L311.154 373.001C312.56 366.033 313.002 359.881 312.433 354.341C312.302 353.018 312.113 351.734 311.864 350.476C310.655 344.385 308.097 339.038 304.119 334.117C302.556 332.18 300.808 330.343 298.881 328.564C298.035 327.78 297.159 327.013 296.248 326.255C288.885 320.106 279.376 314.527 268.198 307.971C267.953 307.827 267.707 307.682 267.462 307.538C266.008 306.687 264.532 305.82 263.029 304.93C253.634 299.382 243.319 293.102 232.601 285.363L234.199 283.145L234.65 282.519C234.869 282.676 235.084 282.834 235.303 282.987C246.608 291.108 257.493 297.616 267.287 303.37C268.189 303.905 269.087 304.426 269.972 304.948C270.493 305.254 271.01 305.557 271.522 305.855C281.816 311.898 291.102 317.433 298.465 323.564C299.38 324.322 300.265 325.093 301.115 325.873C303.226 327.806 305.144 329.809 306.844 331.912C310.733 336.724 313.383 341.996 314.833 347.89C315.157 349.214 315.425 350.568 315.626 351.957C316.458 357.606 316.292 363.803 315.144 370.679Z" fill="#93C488"/>
<path d="M318.223 349.354C317.917 349.718 317.597 350.073 317.264 350.419C316.743 350.963 316.191 351.475 315.626 351.957C314.61 352.83 313.537 353.614 312.433 354.341C311.198 355.161 309.927 355.91 308.666 356.647C308.517 355.463 308.32 354.228 308.066 352.935C309.393 352.15 310.668 351.353 311.863 350.476C312.893 349.718 313.856 348.903 314.741 347.987C314.772 347.956 314.803 347.926 314.833 347.891C315.679 347.001 316.432 346.024 317.128 344.99C317.536 346.436 317.899 347.891 318.223 349.354Z" fill="#93C488"/>
<path d="M305.197 318.31C305.179 318.362 305.157 318.415 305.135 318.467C305.122 318.511 305.105 318.551 305.087 318.595C304.658 319.69 304.176 320.751 303.655 321.763C302.897 323.227 302.047 324.603 301.114 325.874C300.414 326.833 299.669 327.732 298.881 328.564C297.588 329.94 296.187 331.141 294.698 332.14C293.778 331.374 292.81 330.602 291.807 329.827C293.397 328.889 294.886 327.684 296.248 326.255C297.032 325.431 297.772 324.533 298.464 323.564C299.432 322.21 300.3 320.72 301.049 319.116C301.325 318.529 301.587 317.928 301.828 317.31C302.052 316.745 302.258 316.171 302.45 315.597C302.547 315.308 302.639 315.018 302.726 314.729C303.423 315.768 304.106 316.82 304.772 317.88C304.916 318.025 305.057 318.165 305.197 318.31Z" fill="#93C488"/>
<path d="M287.606 295.683C286.222 297.029 284.645 298.326 282.88 299.571C281.895 300.267 280.852 300.947 279.748 301.613C279.157 301.972 278.544 302.323 277.917 302.673C275.828 303.835 273.695 304.895 271.522 305.855C270.182 306.455 268.829 307.016 267.462 307.538C265.084 308.441 262.666 309.234 260.222 309.909C258.487 308.966 256.748 308.037 255.005 307.126C257.716 306.543 260.397 305.807 263.029 304.93C264.462 304.453 265.881 303.931 267.287 303.37C270.265 302.178 273.178 300.793 276.003 299.224C276.1 299.172 276.196 299.119 276.288 299.062C277.431 298.422 278.509 297.765 279.52 297.09C281.579 295.727 283.371 294.303 284.891 292.826C285.797 293.755 286.704 294.711 287.606 295.683Z" fill="#93C488"/>
<path d="M288.373 296.555C285.189 298.295 281.058 299.912 276.547 301.38H276.525C276.052 301.538 275.579 301.687 275.097 301.836C269.25 303.659 262.877 305.233 257.156 306.495C256.127 306.718 255.124 306.937 254.147 307.143C245.715 308.914 239.342 309.913 239.342 309.913C237.616 305.925 235.093 302.231 231.997 298.996C231.217 298.173 230.393 297.384 229.539 296.626C223.705 291.446 216.346 287.799 208.677 286.616C210.105 286.835 218.633 285.245 227.45 283.452C229.5 283.031 231.563 282.602 233.56 282.186C239.649 280.906 245.093 279.714 247.454 279.184C248.453 278.96 249.447 278.741 250.441 278.54C252.272 278.163 254.103 277.834 255.925 277.593C262.32 276.738 268.654 276.962 274.883 280.073C275.842 280.555 276.805 281.103 277.76 281.73C278.098 281.953 278.435 282.181 278.772 282.422C283.63 285.889 287.151 291.069 288.373 296.555Z" fill="#77A66F"/>
<path d="M257.191 306.604L254.247 307.468C254.217 307.358 254.182 307.253 254.147 307.143C252.736 302.612 249.583 298.002 245.583 294.036C244.769 293.229 243.919 292.445 243.039 291.696C238.26 287.629 232.662 284.544 227.45 283.452C229.5 283.032 231.563 282.602 233.56 282.186C238.041 284.053 242.487 286.98 246.332 290.495C247.173 291.266 247.984 292.059 248.759 292.879C252.697 297.029 255.745 301.775 257.156 306.495C257.169 306.53 257.182 306.569 257.191 306.604Z" fill="#A0C995"/>
<path d="M277.962 300.728L276.547 301.381H276.526L275.177 302.007L275.098 301.836C272.496 296.222 268.58 291.231 264.222 287.234C263.346 286.428 262.448 285.665 261.541 284.942C257.866 282.028 254.012 279.824 250.442 278.54C252.273 278.163 254.104 277.834 255.926 277.593C259.005 279.214 262.01 281.331 264.804 283.755C265.672 284.504 266.517 285.288 267.336 286.095C271.905 290.574 275.698 295.775 277.962 300.728Z" fill="#A0C995"/>
<path d="M278.299 282.094L267.34 286.095L264.225 287.234L248.763 292.879L245.588 294.036L232.001 298.997C231.221 298.173 230.398 297.384 229.543 296.626L243.043 291.696L246.337 290.495L261.545 284.942L264.808 283.755L274.887 280.073C275.846 280.556 276.81 281.103 277.764 281.73L278.299 282.094Z" fill="#A0C995"/>
<path d="M142.028 462.152C142.834 466.057 143.802 469.97 144.954 473.888C145.975 477.355 149.019 485.366 150.859 488.24C150.916 488.245 150.973 488.258 151.038 488.262C152.523 488.411 163.469 489.472 177.376 489.84C199.137 490.033 220.428 487.495 236.425 482.425C244.686 477.942 250.222 464.711 253.652 455.57C225.61 464.874 180.928 469.317 142.033 462.152H142.028Z" fill="#F5DEC3"/>
<path d="M195.085 490.8C195.041 499.516 191.344 500.857 188.064 501.217C185.646 501.479 183.136 502.794 180.508 504.337C170.394 510.279 160.482 507.523 160.482 507.523C157.876 507.742 155.16 507.922 152.361 508.079C152.361 508.079 149.023 509.758 143.903 509.907C117.294 510.726 102.541 497.825 102.016 485.615C101.425 471.89 125.953 461.14 136.242 461.214C162.86 461.407 195.155 474.458 195.081 490.8H195.085Z" fill="#E89C4C"/>
<path d="M158.922 486.054C157.223 483.376 155.042 481.084 152.597 479.165C153.635 480.308 154.617 481.496 155.471 482.776C157.967 486.461 159.531 491.019 159.47 495.463C159.522 500.384 156.995 506.909 152.37 508.075C155.173 507.917 157.88 507.738 160.49 507.518C163.942 500.849 162.873 492.189 158.927 486.054H158.922Z" fill="#836138"/>
<path d="M181.52 482.131C179.4 480.002 176.912 478.301 174.218 477.284C176.711 478.761 178.796 480.808 180.438 483.122C182.081 485.44 183.29 488.048 183.951 490.734C185.234 495.633 184.354 501.221 180.508 504.328C183.417 503.482 185.957 502.461 188.064 501.203C188.191 500.59 188.292 499.968 188.335 499.345C188.848 492.71 185.878 486.562 181.516 482.123L181.52 482.131Z" fill="#836138"/>
<path d="M60.7115 213.312L60.9962 213.098C60.5144 217.344 60.383 221.691 60.5013 226.1L69.2484 218.738C63.2301 233.296 67.7285 244.708 72.8489 255.931L76.2216 247.425C75.5821 255.09 78.4029 261.133 82.2618 266.694L86.7076 258.416C90.7373 266.102 115.45 275.38 131.722 278.645C171.13 292.379 215.615 291.638 251.125 278.732C261.707 274.885 273.669 268.469 281.33 260.164C281.654 259.792 283.893 256.216 284.278 255.572L288.264 264.082C292.421 258.74 295.557 252.859 295.342 245.172L298.246 253.849C303.967 242.924 309.236 226.061 304.019 211.191L312.355 219.031C313.476 205.117 312.184 191.716 304.632 179.651C325.114 173.779 314.212 135.153 304.085 124.512C296.376 116.414 280.818 128.676 277.839 139.627C266.81 137.585 249.079 141.161 236.324 144.461L235.891 144.242C237.073 141.003 238.961 137.703 241.16 134.377C230.867 133.799 212.851 143.177 204.849 150.973C197.28 142.747 176.058 132.287 165.752 132.3C167.762 135.74 169.47 139.145 170.473 142.436C170.473 142.436 145.691 124.188 115.122 126.305C111.096 115.165 94.3028 105.585 81.2806 113.114C63.1556 123.592 41.3688 165.374 82.875 169.081C77.3604 174.073 73.1204 179.735 69.8178 185.879C69.6207 186.124 69.52 186.269 69.5287 186.313C69.5287 186.334 69.5287 186.361 69.5419 186.387C67.7154 189.858 66.1823 193.486 64.8858 197.233C63.2958 201.156 62.2051 205.218 61.5131 209.386C61.2284 210.687 60.9612 211.998 60.7115 213.312Z" fill="#FFD183"/>
<path d="M205.624 242.363C204.507 242.363 203.521 241.587 203.272 240.474L203.158 239.953C203.061 239.519 203.088 239.085 203.215 238.691V224.29C203.219 222.958 204.301 221.88 205.628 221.88C206.96 221.88 208.037 222.958 208.037 224.29V239.953C208.033 241.184 207.104 242.214 205.882 242.35C205.795 242.359 205.707 242.363 205.619 242.363H205.624Z" fill="#2B1916"/>
<path d="M268.728 197.277C269.018 186.597 262.465 177.754 254.09 177.521C245.715 177.289 238.694 185.765 238.405 196.444C238.116 207.124 244.668 215.972 253.043 216.2C261.418 216.428 268.439 207.957 268.728 197.277Z" fill="#2B1916"/>
<path d="M168.91 191.282C169.234 179.305 161.967 169.388 152.681 169.134C143.395 168.879 135.599 178.38 135.275 190.362C134.95 202.339 142.217 212.256 151.503 212.51C160.789 212.765 168.586 203.264 168.91 191.282Z" fill="#2B1916"/>
<path d="M152.02 192.663C156.869 192.799 161.157 189.297 163.312 184.1C164.065 186.238 164.455 188.627 164.389 191.151C164.148 199.92 158.441 206.879 151.643 206.695C144.841 206.502 139.519 199.241 139.76 190.467C139.826 187.952 140.347 185.581 141.214 183.49C143.084 188.798 147.175 192.527 152.024 192.663H152.02Z" fill="#54322B"/>
<path d="M253.499 198.513C257.87 198.631 261.738 195.515 263.678 190.879C264.357 192.785 264.708 194.919 264.651 197.163C264.436 204.986 259.294 211.187 253.162 211.02C247.029 210.845 242.229 204.368 242.443 196.55C242.505 194.306 242.973 192.194 243.753 190.327C245.439 195.06 249.132 198.39 253.503 198.509V198.517L253.499 198.513Z" fill="#54322B"/>
<path d="M154.048 184.126C154.17 179.665 151.464 175.97 148.003 175.878C144.547 175.782 141.643 179.323 141.525 183.784C141.402 188.245 144.109 191.94 147.57 192.032C151.026 192.128 153.93 188.587 154.048 184.126Z" fill="white"/>
<path d="M253.731 190.603C253.827 187.036 251.637 184.086 248.842 184.007C246.043 183.929 243.7 186.76 243.604 190.327C243.507 193.894 245.697 196.848 248.492 196.922C251.291 196.997 253.634 194.17 253.731 190.603Z" fill="white"/>
<path d="M125.248 224.715C125.449 217.327 119.19 211.161 111.266 210.942C103.343 210.722 96.7594 216.538 96.558 223.927C96.3565 231.315 102.616 237.481 110.539 237.7C118.463 237.919 125.046 232.104 125.248 224.715Z" fill="#F0AE56"/>
<path d="M290.713 229.891C290.914 222.52 285.509 216.393 278.641 216.205C271.773 216.016 266.044 221.836 265.842 229.207C265.641 236.578 271.046 242.705 277.914 242.898C284.782 243.086 290.511 237.262 290.713 229.891Z" fill="#F0AE56"/>
<path d="M187.131 216.016C188.313 236.841 221.681 237.775 224.003 217.037C224.507 199.67 187.578 198.644 187.131 216.016Z" fill="#2B1916"/>
<path d="M195.199 217.563L195.125 217.594C191.472 219.11 189.768 216.222 191.003 212.742C191.756 210.599 193.434 208.838 195.383 207.948C199.08 205.954 206.031 208.005 201.866 212.975C200.171 214.903 197.442 216.695 195.199 217.572V217.563Z" fill="white"/>
<path d="M196.557 226.017L196.539 225.977C196.145 222.423 202.913 223.979 205.72 223.116C209.325 222.292 215.562 218.939 218.142 216.472C218.918 215.867 220.258 214.329 220.976 215.271C221.651 216.503 221.975 224.251 213.924 227.389C211.414 228.366 208.642 229.067 205.83 229.098C202.895 229.036 197.635 228.879 196.544 226.017H196.553H196.557Z" fill="#1C110F"/>
<path d="M272.452 164.782C259.149 163.436 247.708 167.078 238.125 175.729C237.113 176.649 235.505 176.312 235.168 175.054C232.969 166.846 255.159 156.109 272.452 164.786V164.782Z" fill="#54322B"/>
<path d="M131.556 160.838C151.993 146.841 181.997 156.622 180.626 167.416C180.416 169.068 178.432 169.774 176.991 168.783C163.338 159.466 148.191 156.824 131.551 160.833L131.556 160.838Z" fill="#54322B"/>
<path d="M131.245 204.044L174.249 212.848L147.478 227.454L131.245 204.044Z" fill="#FFD183"/>
<path d="M279.122 207.698L236.114 216.503L262.89 231.109L279.122 207.698Z" fill="#FFD183"/>
<path d="M215.895 250.624C215.256 250.624 214.616 250.37 214.139 249.866C209.825 245.282 202.387 244.69 196.395 244.69H196.364C186.711 244.69 177.026 245.698 167.578 247.683C166.273 247.955 164.998 247.122 164.727 245.821C164.455 244.519 165.287 243.239 166.588 242.968C176.36 240.912 186.382 239.869 196.369 239.869H196.399C203.364 239.869 212.076 240.632 217.652 246.561C218.563 247.53 218.519 249.055 217.547 249.966C217.082 250.405 216.487 250.624 215.895 250.624Z" fill="#2B1916"/>
<path d="M80.0497 137.046C76.1733 141.621 76.8522 148.835 79.8001 153.852C82.9012 159.33 88.4377 163.467 94.7363 164.48L103.895 165.952L97.947 158.537C96.0241 156.188 94.7451 153.738 94.7057 150.75C94.6268 147.529 95.8226 144.273 96.7906 140.995C97.982 136.989 99.0989 132.703 97.6885 128.509C96.3088 124.355 92.7302 121.712 88.9151 120.27C97.763 129.942 92.3316 133.821 88.6173 144.22C87.5179 147.217 87.0842 150.815 87.6843 154.159C82.2179 150.346 78.5868 143.751 80.0497 137.042V137.046Z" fill="#FDAB57"/>
<path d="M305.902 147.954C306.962 152.818 304.33 157.599 300.366 160.364C300.799 157.941 300.488 155.333 299.691 153.16C296.997 145.622 293.06 142.809 299.472 135.797C296.708 136.844 294.111 138.759 293.112 141.77C292.087 144.811 292.902 147.919 293.765 150.82C294.466 153.195 295.333 155.557 295.276 157.888C295.25 160.058 294.321 161.833 292.928 163.533L288.618 168.906L295.258 167.841C299.827 167.109 303.839 164.107 306.086 160.137C308.224 156.499 308.714 151.271 305.907 147.954H305.902Z" fill="#FDAB57"/>
<path d="M212.207 301.783C211.616 301.783 211.125 301.31 211.112 300.714L211.033 297.252C210.994 295.438 210.95 293.623 210.911 291.809C210.911 291.213 210.884 290.687 210.827 290.232C210.473 289.71 210.249 289.114 210.319 288.439C210.214 288.251 210.092 288.093 209.951 287.957C209.391 287.401 208.436 287.129 207.039 287.129C207.012 287.129 206.986 287.129 206.96 287.129C205.164 287.168 203.307 287.602 201.511 288.023C197.621 288.934 193.596 289.877 190.333 286.568C187.297 283.566 186.123 279.964 187.205 276.935C188.235 274.367 190.587 272.347 193.679 271.348C197.012 270.27 200.508 270.581 203.026 272.176C206.408 274.188 208.05 277.755 209.64 281.204L209.684 281.3C209.68 280.529 209.75 279.753 209.938 279.008C210.407 276.848 211.743 274.696 214.121 272.273C216.981 269.122 220.446 267.553 223.587 268C225.562 268.28 228.348 269.481 230.385 273.614C231.138 275.261 231.199 276.83 230.582 278.311C228.895 282.343 222.549 284.648 217.45 286.498C216.754 286.752 216.088 286.993 215.47 287.225C215.151 287.379 214.805 287.514 214.467 287.65C213.858 287.891 213.136 288.181 212.711 288.527C212.79 288.794 212.855 289.066 212.908 289.338C213.254 289.692 213.753 290.069 214.086 290.324C214.371 290.538 214.638 290.74 214.875 290.946C217.897 293.212 220.994 295.872 224.62 299.316C225.058 299.733 225.076 300.425 224.66 300.863C224.244 301.301 223.552 301.319 223.114 300.903C219.535 297.506 216.491 294.894 213.53 292.673C213.508 292.655 213.482 292.637 213.46 292.616C213.363 292.528 213.245 292.436 213.118 292.335C213.158 293.948 213.193 295.578 213.228 297.213L213.307 300.675C213.32 301.279 212.842 301.783 212.238 301.797C212.229 301.797 212.22 301.797 212.212 301.797L212.207 301.783ZM197.604 272.912C196.535 272.912 195.431 273.083 194.354 273.43C191.883 274.227 190.026 275.787 189.255 277.707C188.344 280.266 190.013 283.167 191.883 285.017C194.292 287.457 197.258 286.765 201.012 285.889C202.917 285.442 204.888 284.981 206.929 284.938C207.739 284.92 208.475 285.003 209.119 285.152C208.594 284.162 208.12 283.128 207.652 282.115C206.136 278.829 204.704 275.721 201.883 274.039C200.701 273.289 199.198 272.908 197.604 272.908V272.912ZM222.522 270.108C220.302 270.108 217.862 271.409 215.716 273.771C213.609 275.919 212.457 277.733 212.071 279.503C211.603 281.362 212.085 283.601 212.435 285.24C212.492 285.52 212.544 285.801 212.579 286.064C212.939 285.897 213.302 285.753 213.657 285.608C213.99 285.477 214.301 285.35 214.564 285.222C214.594 285.209 214.621 285.196 214.651 285.183C215.291 284.942 215.978 284.692 216.706 284.429C221.156 282.812 227.249 280.599 228.567 277.453C228.948 276.545 228.895 275.594 228.414 274.543C227.152 271.979 225.374 270.454 223.285 270.16C223.035 270.125 222.781 270.108 222.522 270.108Z" fill="#536F4E"/>
<path d="M248.338 230.579C238.19 249.839 243.967 273.268 261.001 285.771L258.881 289.798C240.139 276.874 233.604 251.676 244.484 231.03C256.218 208.759 283.778 200.227 306.038 211.967C306.156 212.028 306.279 212.094 306.393 212.155C285.298 201.397 259.416 209.561 248.343 230.579H248.338Z" fill="#596DB0"/>
<path d="M270.499 291.344L260.645 286.146C259.717 285.656 258.567 286.013 258.077 286.942L256.079 290.733C255.59 291.662 255.946 292.813 256.874 293.302L266.727 298.5C267.656 298.99 268.806 298.634 269.296 297.705L271.293 293.913C271.783 292.984 271.427 291.834 270.499 291.344Z" fill="#596DB0"/>
<path d="M325.087 273.548C314.873 292.931 292.67 301.911 272.412 296.165L274.383 292.423C293.809 298.199 315.245 289.671 325.056 271.046C330.024 261.619 331.176 251.193 329.06 241.539C331.592 251.96 330.475 263.315 325.083 273.548H325.087Z" fill="#596DB0"/>
<path d="M325.056 271.05C315.245 289.671 293.808 298.203 274.383 292.427L271.111 298.637C270.62 299.566 269.472 299.921 268.544 299.43L258.689 294.233C257.76 293.742 257.405 292.594 257.896 291.665L261.001 285.766C243.967 273.263 238.19 249.84 248.338 230.575C259.416 209.557 285.298 201.392 306.388 212.151C318.193 218.51 326.073 229.343 329.038 241.439C329.047 241.474 329.055 241.504 329.06 241.535C331.175 251.189 330.023 261.619 325.056 271.041V271.05Z" fill="#6886D1"/>
<path d="M329.038 241.443C326.068 229.347 318.188 218.51 306.388 212.155C306.563 212.247 306.743 212.339 306.923 212.436C318.653 218.624 326.379 229.431 329.038 241.447V241.443Z" fill="#6886D1"/>
<path d="M286.8 289.259C308.129 289.259 325.42 271.959 325.42 250.619C325.42 229.279 308.129 211.98 286.8 211.98C265.471 211.98 248.181 229.279 248.181 250.619C248.181 271.959 265.471 289.259 286.8 289.259Z" fill="#72C5E1"/>
<path d="M307.52 257.64C313.697 255.727 316.687 247.655 314.198 239.611C311.709 231.568 304.684 226.598 298.507 228.511C292.33 230.424 289.34 238.496 291.829 246.539C294.318 254.583 301.342 259.553 307.52 257.64Z" fill="#A0DAEF"/>
<path d="M279.932 281.892C261.067 271.94 253.835 248.569 263.783 229.694C268.084 221.534 274.891 215.552 282.758 212.19C270.388 213.505 258.877 220.762 252.64 232.599C242.692 251.474 249.924 274.845 268.789 284.798C279.499 290.446 291.658 290.556 301.986 286.143C294.628 286.923 286.967 285.604 279.932 281.892Z" fill="#00A9C4"/>
<path d="M266.926 296.73L258.22 292.138L253.383 301.317L262.089 305.91L266.926 296.73Z" fill="#CBCAC9"/>
<path d="M269.726 298.208L261.02 293.615L256.182 302.795L264.888 307.388L269.726 298.208Z" fill="#DDDDDD"/>
<path d="M263.638 303.738L254.295 298.808C252.959 298.103 251.308 298.563 250.524 299.851L222.938 345.345C219.552 350.932 221.567 358.22 227.344 361.27C233.122 364.32 240.275 361.866 242.968 355.91L264.904 307.437C265.526 306.061 264.97 304.439 263.634 303.734L263.638 303.738Z" fill="#DA5439"/>
<path d="M267.992 306.034L258.649 301.104C257.313 300.399 255.662 300.859 254.878 302.147L227.292 347.641C223.906 353.228 225.921 360.516 231.698 363.566C237.476 366.616 244.629 364.162 247.322 358.207L269.258 309.733C269.88 308.357 269.324 306.736 267.988 306.03L267.992 306.034Z" fill="#F17D57"/>
<path d="M224.335 329.563C224.077 322.319 227.283 315.627 233.608 311.832C235.255 310.846 236.648 309.58 238.085 308.44C241.746 305.539 247.278 305.123 252.894 307.625C256.797 309.365 263.205 312.788 266.932 315.001C267.922 315.592 272.311 319.339 272.858 319.173C282.547 325.404 327.672 348.263 297.742 364.876C280.646 374.369 248.619 370.324 231.738 354.63C227.949 351.107 220.73 339.652 223.862 333.692C224.502 332.482 224.401 330.961 224.348 329.555H224.34L224.335 329.563Z" fill="#FDAB57"/>
<path d="M229.824 328.363C238.396 327.907 243.332 331.229 243.332 331.229C243.332 331.229 236.552 329.164 230.038 330.501C228.111 330.896 225.391 332.057 223.858 333.696C223.919 332.333 224.09 330.944 224.344 329.559C226.131 328.853 228.102 328.455 229.824 328.358V328.363Z" fill="#836138"/>
<path d="M239.846 311.447C245.045 312.503 249.381 316.885 249.381 316.885C247.38 311.499 241.094 309.229 238.089 308.44C238.089 308.44 235.934 309.334 233.626 311.846C235.641 311.14 237.923 311.052 239.846 311.447Z" fill="#836138"/>
<path d="M144.1 311.758C138.738 298.567 130.469 287.339 120.123 279.473C118.717 278.404 117.451 277.532 116.479 277.014C110.819 274.013 103.067 275.472 99.8428 281.502L99.8034 281.572C96.6147 288.317 92.1907 300.977 114.608 342.794C116.584 346.475 126.478 359.789 130.057 359.469C142.702 358.338 158.077 346.16 144.095 311.749V311.758H144.1Z" fill="#FDAB57"/>
<path d="M151.393 299.421C150.618 300.03 149.821 300.679 149.01 301.358C149.488 301.801 149.961 302.261 150.434 302.739C149.439 303.563 148.445 304.426 147.455 305.324C142.554 309.759 137.714 315.044 133.434 321.232C132.677 322.319 131.941 323.437 131.231 324.58C127.863 329.962 124.937 335.97 122.738 342.631C122.48 343.412 122.226 344.192 121.976 344.976C121.503 346.444 121.043 347.908 120.601 349.372C118.327 356.804 116.374 364.105 114.749 370.705C114.328 372.405 113.934 374.053 113.557 375.648C110.465 388.83 108.871 398.174 108.871 398.174C108.389 397.284 107.876 396.421 107.338 395.584C104.517 391.175 100.982 387.415 97.1538 384.124L97.1275 384.102C95.7915 382.949 94.4162 381.858 93.0233 380.811C88.7658 377.629 84.3419 374.899 80.2421 372.41L79.2565 371.809L76.6854 370.245L76.1861 369.938C69.1866 365.613 63.8604 361.831 63.2953 357.212C62.7872 353 63.1245 347.347 64.3115 340.865C64.5656 339.489 64.8547 338.078 65.1875 336.632C66.3527 331.496 68.0127 325.965 70.159 320.299C70.6364 319.041 71.1401 317.779 71.6658 316.513C73.9478 311.008 76.6854 305.434 79.8917 300.035C80.5574 298.904 81.2451 297.787 81.9591 296.674C85.2179 291.559 88.906 286.651 93.0277 282.159C93.9694 281.125 94.9374 280.117 95.9273 279.135C99.0153 276.059 102.327 273.223 105.857 270.699C111.013 272.329 116.058 273.841 120.995 275.239C121.801 275.467 122.607 275.695 123.404 275.914C129.668 277.654 135.752 279.205 141.665 280.573C143.382 280.971 145.086 281.353 146.772 281.721C156.154 283.759 165.094 285.323 173.6 286.423C168.051 288.492 159.755 292.839 151.393 299.421Z" fill="#588C4E"/>
<path d="M150.434 302.739C149.44 303.563 148.445 304.426 147.456 305.324C142.554 309.759 137.714 315.045 133.435 321.232C132.677 322.319 131.941 323.437 131.232 324.581C127.863 329.962 124.937 335.97 122.738 342.632C122.48 343.412 122.226 344.192 121.976 344.976C121.503 346.444 121.043 347.908 120.601 349.372C118.328 356.804 116.374 364.105 114.749 370.705C114.329 372.405 113.934 374.053 113.558 375.648C110.465 388.831 108.871 398.174 108.871 398.174C108.389 397.284 107.877 396.421 107.338 395.584C108.034 391.832 109.616 383.725 112.025 373.615C112.397 372.05 112.787 370.442 113.199 368.79C114.845 362.181 116.812 354.942 119.072 347.632C119.515 346.199 119.97 344.77 120.434 343.337C120.579 342.895 120.724 342.456 120.868 342.014C123.198 334.958 126.304 328.696 129.782 323.191C130.504 322.052 131.24 320.943 131.989 319.87C136.47 313.445 141.402 308.164 146.032 303.957C147.044 303.037 148.038 302.174 149.011 301.358C149.488 301.801 149.961 302.261 150.434 302.739Z" fill="#93C488"/>
<path d="M124.552 277.523C121.657 279.591 118.814 282.024 116.046 284.793C115.003 285.836 113.965 286.932 112.949 288.071C108.604 292.905 104.473 298.571 100.663 304.926C99.975 306.065 99.2961 307.231 98.6303 308.419C95.608 313.805 92.8048 319.642 90.273 325.847C90.1811 326.066 90.0934 326.29 90.0015 326.509C89.5153 327.727 89.0422 328.954 88.5779 330.19C86.4536 335.909 84.6533 341.777 83.2648 347.36C82.9319 348.693 82.6253 350.007 82.3406 351.296C80.4571 359.89 79.6512 367.506 80.2425 372.41L79.257 371.81L76.6859 370.245L76.1865 369.938C75.547 364.627 76.3792 357.479 78.3547 349.315C78.6613 348.035 78.9986 346.729 79.3665 345.402C80.8119 340.103 82.691 334.463 84.9117 328.674C85.376 327.46 85.8579 326.237 86.3572 325.01C86.4404 324.791 86.5324 324.576 86.62 324.357C88.5254 319.69 91.2542 313.629 94.8415 307.157C95.4766 306.013 96.1424 304.851 96.8301 303.681C100.133 298.089 104.057 292.331 108.621 287.011C109.589 285.88 110.588 284.771 111.617 283.685C114.508 280.626 117.636 277.768 120.995 275.24C121.801 275.468 122.607 275.696 123.404 275.915L124.552 277.523Z" fill="#93C488"/>
<path d="M146.904 281.945C143.146 284.149 138.879 287.168 134.42 291.301C133.431 292.213 132.436 293.181 131.433 294.207C127.123 298.606 122.695 304.067 118.42 310.833C117.723 311.929 117.036 313.06 116.352 314.225C113.094 319.773 109.949 326.128 107.04 333.394C107.005 333.473 106.974 333.551 106.944 333.63C106.484 334.783 106.042 335.94 105.617 337.101C103.229 343.613 101.355 350.222 99.9707 356.441C99.6553 357.869 99.3618 359.272 99.0946 360.652C97.163 370.648 96.5629 379.229 97.1542 384.124L97.1279 384.102L93.0238 380.82V380.811C92.4193 375.776 93.1201 369.973 94.7276 361.397C94.9291 360.315 95.1481 359.228 95.3803 358.132C95.665 356.787 95.9716 355.433 96.3001 354.074C97.8025 347.847 99.7429 341.523 102.047 335.379C102.445 334.301 102.857 333.232 103.282 332.167C103.343 332.009 103.409 331.856 103.47 331.698C106.339 324.559 109.441 318.275 112.651 312.74C113.339 311.556 114.031 310.413 114.723 309.299H114.727C118.928 302.573 123.286 297.059 127.561 292.546C128.56 291.489 129.558 290.486 130.548 289.535C134.429 285.801 138.2 282.869 141.665 280.573C143.382 280.972 145.086 281.353 146.772 281.721L146.904 281.945Z" fill="#93C488"/>
<path d="M114.749 370.705C114.328 372.406 113.934 374.053 113.557 375.649C113.045 374.947 112.532 374.268 112.024 373.615C107.46 367.734 103.268 363.733 99.0942 360.652C97.859 359.736 96.6238 358.904 95.3798 358.132C91.7487 355.858 88.0475 354.061 84.044 352.124C83.4834 351.852 82.914 351.576 82.3402 351.296C81.048 350.665 79.7208 350.012 78.3542 349.315C74.0792 347.124 69.4363 344.507 64.3115 340.866C64.5656 339.49 64.8547 338.079 65.1876 336.632C70.3868 340.467 75.0034 343.14 79.366 345.401C80.6845 346.085 81.981 346.729 83.2644 347.36C84.101 347.768 84.9332 348.171 85.761 348.574C89.3878 350.332 92.8569 352.014 96.2997 354.074C97.5217 354.81 98.7438 355.59 99.9702 356.441C104.263 359.416 108.586 363.238 113.198 368.79C113.711 369.408 114.228 370.044 114.749 370.705Z" fill="#93C488"/>
<path d="M121.977 344.976C121.504 346.445 121.044 347.908 120.601 349.372C120.093 348.767 119.581 348.189 119.073 347.632C114.504 342.61 110.098 339.455 105.617 337.101C104.434 336.475 103.243 335.909 102.047 335.379C99.3664 334.196 96.642 333.197 93.8168 332.158C92.1217 331.536 90.3784 330.896 88.5781 330.19C87.3824 329.717 86.1603 329.217 84.912 328.674C80.3347 326.684 75.429 324.121 70.1597 320.299C70.6371 319.042 71.1408 317.779 71.6664 316.513C76.9401 320.444 81.7627 323.008 86.3574 325.01C87.5882 325.545 88.8015 326.04 90.0017 326.509C91.7494 327.193 93.4708 327.828 95.179 328.455C97.9735 329.48 100.729 330.493 103.471 331.698C104.662 332.224 105.853 332.785 107.04 333.394C111.464 335.677 115.888 338.701 120.435 343.337C120.947 343.863 121.464 344.407 121.977 344.976Z" fill="#93C488"/>
<path d="M133.434 321.233C132.677 322.32 131.941 323.437 131.231 324.581C130.745 324.099 130.263 323.634 129.781 323.192C125.138 318.871 120.75 316.176 116.352 314.225C115.121 313.678 113.89 313.187 112.651 312.74C109.839 311.714 106.991 310.891 104.044 310.036C102.296 309.528 100.491 309.006 98.6298 308.419C97.3946 308.033 96.1331 307.617 94.841 307.157C90.2375 305.522 85.2792 303.362 79.8916 300.035C80.5574 298.905 81.2451 297.787 81.959 296.674C87.3378 300.005 92.2085 302.086 96.8296 303.682C98.1261 304.129 99.4007 304.536 100.662 304.926C102.173 305.386 103.658 305.816 105.139 306.245C108.362 307.179 111.538 308.099 114.722 309.3H114.727C115.953 309.764 117.184 310.268 118.419 310.834C122.826 312.845 127.298 315.602 131.989 319.87C132.466 320.308 132.948 320.76 133.434 321.233Z" fill="#93C488"/>
<path d="M123.404 275.914C122.607 275.695 121.801 275.467 120.995 275.24C121.411 274.924 121.836 274.613 122.26 274.311L123.404 275.914Z" fill="#93C488"/>
<path d="M150.434 302.739C149.44 303.563 148.445 304.426 147.455 305.325C146.987 304.856 146.509 304.4 146.032 303.957C141.402 299.649 136.466 296.555 131.433 294.206C130.145 293.606 128.857 293.058 127.561 292.546C122.664 290.609 117.723 289.259 112.949 288.071C111.727 287.764 110.513 287.471 109.318 287.182C109.085 287.125 108.853 287.068 108.621 287.011C102.769 285.591 97.4693 284.267 93.0278 282.159C93.9696 281.125 94.9376 280.117 95.9275 279.135C99.9835 280.858 104.88 282.045 110.251 283.351C110.702 283.461 111.157 283.57 111.617 283.684C113.063 284.035 114.539 284.403 116.045 284.793C120.715 286.003 125.629 287.458 130.548 289.535C131.84 290.078 133.132 290.666 134.42 291.301C139.422 293.773 144.367 296.989 149.01 301.358C149.488 301.801 149.961 302.261 150.434 302.739Z" fill="#93C488"/>
<path d="M168.896 276.742C175.248 273.622 177.503 276.94 177.503 276.94C179.133 277.071 181.708 276.76 186.167 275.419C190.324 274.17 195.694 277.961 199.895 277.36C201.747 277.194 205.291 277.781 206.942 278.675C215.44 283.281 212.216 296.573 211.169 300.504C202.891 331.544 184.319 339.936 157.981 360.253C151.047 365.599 140.474 364.478 132.173 360.713C123.746 356.931 119.234 347.803 126.072 338.977C132.848 330.698 144.766 288.592 168.892 276.747L168.896 276.742Z" fill="#FDAB57"/>
<path d="M183.591 281.918C182.242 290.398 176.009 293.948 176.009 293.948C176.009 293.948 179.842 288.842 179.894 282.19C179.662 278.294 177.499 276.94 177.499 276.94C178.396 275.419 182.233 275.608 183.53 276.151C183.845 278.049 183.858 280.218 183.591 281.923V281.918Z" fill="#836138"/>
<path d="M196.657 283.062C196.968 291.178 192.426 297.278 192.426 297.278C199.702 292.353 200.805 282.19 200.884 277.431C200.884 277.431 198.396 275.419 193.968 276.436C195.746 279.179 196.544 280.06 196.657 283.062Z" fill="#836138"/>
<path d="M134.377 120.143C161.074 130.617 181.314 173.643 280.354 154.768C318.286 147.542 286.385 109.003 279.977 104.831C246.872 91.7102 213.662 77.5157 177.88 64.9558C164.206 82.3976 150.662 104.757 134.373 120.139L134.377 120.143Z" fill="#588C4E"/>
<path d="M298.597 138.711C298.544 139.921 298.364 141.104 298.045 142.243C297.243 145.123 295.548 147.743 292.67 149.904C291.641 150.675 290.463 151.389 289.114 152.038C286.735 153.177 283.84 154.106 280.353 154.773C276.63 155.482 273.021 156.105 269.517 156.644C268.334 156.823 267.165 156.999 266.008 157.157C255.33 158.668 245.671 159.396 236.898 159.488C236.71 159.492 236.521 159.492 236.337 159.492L234.712 159.501C234.27 159.501 233.832 159.497 233.394 159.497C216.824 159.356 203.504 156.92 192.44 153.291C191.612 153.024 190.801 152.743 190 152.463C189.422 152.257 188.852 152.051 188.292 151.841C187.262 151.459 186.255 151.065 185.269 150.662C175.326 146.617 167.359 141.652 160.412 136.827C159.304 136.06 158.226 135.293 157.166 134.535C148.827 128.57 141.853 123.079 134.376 120.147C134.42 120.108 134.464 120.064 134.508 120.025C139.339 115.445 143.93 110.256 148.349 104.765C149.335 103.543 150.311 102.302 151.284 101.053C154.626 96.7499 157.88 92.3106 161.073 87.8712C162.33 86.1314 163.574 84.396 164.814 82.6694C169.216 76.5253 173.544 70.4951 177.884 64.9602C181.06 66.0733 184.214 67.1996 187.35 68.339C188.563 68.7816 189.772 69.2243 190.981 69.6669C194.498 70.9553 197.989 72.2612 201.463 73.5759C203.854 74.4787 206.233 75.3903 208.607 76.3018C216.053 79.1722 223.416 82.0778 230.713 85.0008C231.887 85.4697 233.057 85.9386 234.226 86.4075C243.306 90.0537 252.298 93.7086 261.247 97.324C262.872 97.9814 264.497 98.6387 266.118 99.2873C266.928 99.616 267.738 99.9447 268.549 100.269H268.553C271.527 101.465 274.497 102.657 277.467 103.836C278.242 104.147 279.017 104.454 279.793 104.761C279.854 104.787 279.92 104.809 279.981 104.835C282.062 106.19 286.836 111.177 291.032 117.536C292.153 119.24 293.24 121.046 294.212 122.904V122.908C296.923 128.058 298.829 133.636 298.592 138.711H298.597Z" fill="#588C4E"/>
<path d="M127.688 123.355C127.96 123.219 129.58 122.422 133.378 120.568C133.378 120.586 133.378 120.599 133.382 120.616C130.684 121.918 128.047 123.193 127.688 123.355Z" fill="#77A66F"/>
<path d="M133.382 120.638V120.616C133.996 120.318 134.613 120.02 135.204 119.735C136.51 119.104 137.701 118.53 138.503 118.145C137.776 118.5 136.641 119.052 134.994 119.854C134.99 119.858 134.981 119.858 134.977 119.862C134.491 120.099 133.961 120.358 133.382 120.638Z" fill="#77A66F"/>
<path d="M138.792 118.004C138.919 117.943 139.028 117.891 139.12 117.847C139.024 117.891 138.914 117.943 138.792 118.004Z" fill="#77A66F"/>
<path d="M279.793 104.761C279.784 104.827 279.776 104.892 279.762 104.958C279 104.572 278.238 104.196 277.467 103.836C274.458 102.403 271.405 101.145 268.321 100.045C267.59 99.7825 266.854 99.5283 266.118 99.2873C264.493 98.7439 262.859 98.2486 261.217 97.7973C252.969 95.5053 244.529 94.2563 236.053 93.8444C234.187 93.7523 232.312 93.6997 230.442 93.691C223.841 93.6515 217.24 94.0898 210.705 94.9137C205.16 95.6148 199.663 96.5877 194.258 97.7841C192.107 98.2618 189.97 98.7701 187.854 99.3136C179.081 101.557 170.609 104.34 162.629 107.403C162.563 107.43 162.502 107.456 162.436 107.478C159.427 108.639 156.488 109.836 153.628 111.063C152.432 111.571 151.254 112.088 150.084 112.605C147.272 113.859 144.543 115.134 141.915 116.414C140.592 117.058 139.383 117.645 138.275 118.188C138.1 118.272 137.938 118.351 137.789 118.421C137.141 118.741 136.528 119.039 135.949 119.319C135.441 119.569 134.959 119.801 134.508 120.025C134.11 120.213 133.737 120.397 133.378 120.568C132.988 114.183 132.699 108.162 132.607 102.372C132.585 101.067 132.572 99.7737 132.572 98.4897C132.568 88.8704 133.168 79.8164 134.78 70.666C135.047 69.1453 135.341 67.6203 135.669 66.0864C136.471 62.3176 137.456 58.5137 138.652 54.6265C140.417 48.89 143.606 43.8284 147.793 39.8272H147.798C150.395 37.3424 153.378 35.2696 156.646 33.7007C156.773 33.6393 156.904 33.578 157.031 33.5166C157.925 33.1003 158.84 32.719 159.773 32.3816C160.921 31.9609 162.094 31.6059 163.295 31.3079C163.737 31.1984 164.184 31.0976 164.635 31.0055C169.593 29.9932 174.587 29.1781 179.597 28.5952C180.798 28.455 181.998 28.3279 183.202 28.214C183.732 28.1614 184.267 28.1132 184.797 28.0737C192.703 27.3945 200.644 27.3068 208.568 27.9116C210.403 28.043 212.238 28.2183 214.073 28.4331C222.575 29.4191 231.038 31.2247 239.395 33.968C239.627 34.0425 239.855 34.117 240.083 34.1959C242.137 34.8839 244.187 35.6289 246.228 36.4309C247.288 36.8516 248.348 37.2855 249.408 37.7369C258.33 41.5408 265.79 47.7418 271.081 55.4548C272.233 57.1332 273.28 58.8862 274.217 60.7005C277.02 66.1083 278.843 72.0684 279.491 78.3351C279.666 80.0048 279.837 81.6658 279.99 83.3223C280.113 84.6326 280.227 85.9386 280.314 87.2445C280.735 93.038 280.787 98.814 279.793 104.761Z" fill="#77A66F"/>
<path d="M289.113 152.038C289.328 147.546 288.877 143.229 287.97 139.158C287.686 137.852 287.348 136.577 286.972 135.323C284.781 128.005 281.256 121.615 277.817 116.584C277.388 115.953 276.959 115.348 276.534 114.761C275.877 113.854 275.215 112.978 274.554 112.141C268.141 103.976 261.965 99.0854 261.9 99.0329L261.177 98.4631L261.216 97.797L261.234 97.5429C261.238 97.4683 261.243 97.3982 261.247 97.3237C262.202 81.5691 260.682 69.7849 256.328 59.1313C252.934 50.8224 247.625 42.8903 239.46 34.0379C239.443 34.016 239.421 33.9897 239.395 33.9678C239.627 34.0423 239.854 34.1168 240.082 34.1957C241.97 34.6733 243.832 35.1948 245.663 35.7602C245.851 35.9837 246.039 36.2072 246.228 36.4307C261.361 54.5474 266.227 71.345 264.786 96.8592C265.513 97.4727 266.757 98.5464 268.321 100.045C268.395 100.115 268.47 100.19 268.549 100.269H268.553C271.466 103.069 275.421 107.272 279.311 112.623C279.534 112.929 279.757 113.241 279.972 113.547C281.063 115.085 282.083 116.632 283.029 118.193C286.665 124.139 289.293 130.213 290.874 136.283C291.22 137.58 291.509 138.877 291.75 140.17C292.364 143.431 292.675 146.682 292.67 149.903C291.641 150.675 290.463 151.389 289.113 152.038Z" fill="#93C488"/>
<path d="M269.516 156.644C268.333 156.823 267.164 156.999 266.007 157.157C266.043 149.452 264.79 142.445 262.806 136.187H262.801C262.425 134.991 262.017 133.82 261.588 132.681C258.57 124.679 254.418 118.044 250.449 112.912C249.95 112.259 249.446 111.632 248.951 111.028C248.496 110.476 248.04 109.932 247.585 109.406C239.368 99.8877 231.383 94.8611 231.299 94.8129L230.401 94.252L230.441 93.691L230.476 93.2002C230.664 90.5576 230.747 87.8143 230.712 85.0008C230.493 66.4502 225.163 44.9678 210.993 30.2781C210.213 29.4674 209.403 28.6785 208.566 27.9116C210.402 28.0431 212.237 28.2184 214.072 28.4331C214.707 29.108 215.325 29.8004 215.925 30.5016C229.333 46.1773 234.252 67.8613 234.225 86.4075C234.221 88.4541 234.16 90.4612 234.041 92.4158C234.536 92.7488 235.22 93.2265 236.052 93.8444C239.495 96.395 245.53 101.36 251.579 108.705C251.776 108.942 251.969 109.183 252.166 109.428C253.073 110.554 253.997 111.76 254.917 113.039C258.741 118.337 262.565 124.929 265.337 132.72C265.749 133.873 266.135 135.056 266.498 136.261C268.338 142.397 269.49 149.207 269.516 156.644Z" fill="#93C488"/>
<path d="M280.314 87.2444C279.179 86.7711 278.04 86.3198 276.897 85.8771C272.907 84.3345 268.877 82.9672 264.817 81.7709C263.625 81.4203 262.429 81.0872 261.234 80.7673C252.202 78.3526 243.017 76.7881 233.731 76.0913C232.557 76.0037 231.374 75.9292 230.196 75.8722C228.593 75.7889 226.985 75.732 225.378 75.7013C219.815 75.5961 214.222 75.7977 208.606 76.3017C202.934 76.8144 197.244 77.6383 191.563 78.7689C190.403 79.0012 189.246 79.2466 188.085 79.5008C184.713 80.2502 181.34 81.1047 177.976 82.0689C171.804 83.8393 166.141 85.8377 161.073 87.8711C157.105 89.4663 153.504 91.079 150.311 92.6172C149.128 93.1869 148.003 93.7479 146.934 94.2913C138.494 98.5948 133.684 101.965 133.597 102.031L133.264 102.272L132.852 102.333C132.852 102.333 132.751 102.35 132.607 102.372C132.607 102.372 126.847 99.7517 131.915 98.9322C132.081 98.8183 132.3 98.6693 132.572 98.4896C134.56 97.1617 139.409 94.0853 146.641 90.4742C147.722 89.9352 148.866 89.383 150.057 88.8177C154.328 86.8062 159.273 84.6939 164.814 82.6692C168.572 81.2932 172.602 79.9653 176.881 78.7339C180.552 77.6821 184.227 76.753 187.91 75.9511C189.062 75.6969 190.219 75.4602 191.375 75.2324C194.734 74.575 198.098 74.0228 201.462 73.5758C209.456 72.5109 217.441 72.0464 225.36 72.1954C226.832 72.2217 228.304 72.2699 229.771 72.34C230.958 72.397 232.145 72.4671 233.328 72.5503C242.622 73.2033 251.821 74.7065 260.87 77.0467C262.088 77.3578 263.301 77.6909 264.51 78.0327C268.207 79.0845 271.873 80.2765 275.513 81.6087C277.011 82.1565 278.505 82.7262 279.989 83.3222C280.112 84.6325 280.226 85.9385 280.314 87.2444Z" fill="#93C488"/>
<path d="M274.217 60.7005C270.8 59.079 267.274 57.6241 263.652 56.3269C261.821 55.6696 259.968 55.056 258.089 54.4819C256.582 54.0262 255.067 53.5923 253.529 53.1848C245.124 50.9585 236.272 49.5211 227.086 48.8988C225.794 48.8068 224.498 48.7366 223.192 48.6841C217.038 48.4167 210.74 48.5175 204.34 48.9821C199.093 49.3633 193.85 49.9988 188.681 50.8796C187.525 51.0681 186.377 51.274 185.23 51.4975C172.952 53.8334 161.126 57.5102 150.526 62.2782C149.278 62.8391 148.047 63.4176 146.834 64.0092C142.773 65.9857 138.919 68.133 135.318 70.4294L135.003 70.631L134.779 70.666L134.635 70.688C114.942 73.6417 87.9601 79.1459 71.3682 93.2221C71.8631 91.2632 72.4413 89.3306 73.1027 87.4374C90.3254 75.1536 115.148 70.0832 133.75 67.2741C134.381 66.8753 135.02 66.4809 135.669 66.0865C139.322 63.8777 143.211 61.8137 147.285 59.9117C148.529 59.3288 149.794 58.7635 151.073 58.2113C161.424 53.7457 172.83 50.288 184.634 48.0442C185.777 47.8251 186.925 47.6148 188.077 47.4219C193.368 46.5279 198.725 45.875 204.086 45.4849C209.978 45.0555 215.786 44.9328 221.48 45.1124C222.811 45.1519 224.139 45.2088 225.461 45.2833C234.318 45.7742 242.894 47.0056 251.085 48.9558C252.688 49.3327 254.278 49.7446 255.855 50.1828C255.973 50.2135 256.092 50.2442 256.21 50.2792C261.339 51.7123 266.306 53.4389 271.08 55.4548C272.232 57.1333 273.279 58.8862 274.217 60.7005Z" fill="#93C488"/>
<path d="M240.082 34.1959C239.876 34.1433 239.67 34.0907 239.46 34.0381C237.02 33.4334 234.541 32.8987 232.018 32.4386C226.823 31.4876 221.453 30.8434 215.926 30.5016C214.296 30.4008 212.654 30.3263 210.993 30.2781C205.444 30.1115 199.754 30.2518 193.942 30.6856C193.254 30.7382 192.562 30.7908 191.865 30.8521C189.286 31.0756 186.78 31.3474 184.358 31.6585C183.162 31.8163 181.988 31.9784 180.836 32.1449C162.396 34.8752 149.663 39.5424 149.514 39.5994L149.286 39.6826L149.041 39.7002C148.997 39.7002 148.563 39.7396 147.797 39.8272H147.793C144.087 40.2392 132.633 41.7599 119.694 45.9538C118.288 46.414 116.864 46.9004 115.428 47.4263C108.875 49.8059 102.125 52.8955 95.9493 56.8834C93.9607 58.1675 92.029 59.5435 90.185 61.0204C90.1281 61.0642 90.0711 61.1124 90.0186 61.1563C90.0799 61.0993 90.1412 61.0379 90.2025 60.9853C92.1867 59.1053 94.2936 57.3524 96.5143 55.7265C98.2707 54.4425 100.097 53.2417 101.994 52.1286C106.575 49.4422 111.394 46.9837 116.396 44.7749C117.885 44.1176 119.387 43.4778 120.907 42.8686C124.219 41.5232 127.604 40.2874 131.043 39.1611C140.289 37.0357 147.144 36.352 148.524 36.2293C149.33 35.9401 152.199 34.9453 156.645 33.7007C158.778 33.1047 161.27 32.4517 164.073 31.79C168.55 30.7382 173.819 29.6645 179.667 28.7793C180.832 28.604 182.019 28.4331 183.228 28.2753C183.745 28.2052 184.27 28.1395 184.796 28.0737C192.702 27.3945 200.643 27.3068 208.567 27.9116C210.402 28.043 212.237 28.2183 214.073 28.4331C222.575 29.4191 231.037 31.2247 239.394 33.968C239.626 34.0425 239.854 34.117 240.082 34.1959Z" fill="#93C488"/>
<path d="M236.898 159.492L233.394 159.505C233.337 144.478 227.586 129.587 217.205 117.575C208.559 107.565 197.718 100.913 189.584 100.615L187.766 100.549L187.854 99.3135L187.898 98.735C188.852 85.7851 187.933 68.6106 185.44 52.7858C184.161 44.6653 182.558 37.5615 180.837 32.1449C180.451 30.9353 180.061 29.8134 179.667 28.7792C179.645 28.7178 179.623 28.6565 179.597 28.5951C180.797 28.4549 181.997 28.3278 183.202 28.2139C183.211 28.2358 183.22 28.2577 183.228 28.2752C183.623 29.362 183.999 30.4971 184.358 31.6584C186.645 39.0515 188.165 47.5927 188.901 52.2424C191.323 67.6202 192.282 84.2863 191.507 97.2625C192.405 97.3765 193.32 97.5518 194.257 97.784C202.501 99.8218 212.089 106.29 219.859 115.283C230.783 127.926 236.837 143.628 236.898 159.492Z" fill="#93C488"/>
<path d="M192.439 153.291C191.611 153.024 190.801 152.743 190 152.463L188.291 151.841C188.046 151.126 187.779 150.416 187.498 149.706C185.212 143.944 181.791 138.22 177.446 132.97C176.636 131.993 175.799 131.042 174.936 130.113C174.087 129.193 173.206 128.299 172.304 127.426C166.049 121.396 158.743 116.685 151.187 113.872L150.329 113.556L150.11 112.693L150.101 112.667C150.101 112.645 150.092 112.627 150.083 112.605C149.409 109.985 148.831 107.395 148.349 104.765C146.895 96.8287 146.281 88.5416 146.303 77.9977C146.299 63.6936 147.376 48.719 155.208 36.1854C155.782 35.2695 156.391 34.3843 157.03 33.5166C157.227 33.2449 157.429 32.9775 157.635 32.7102C158.349 32.5963 159.058 32.4823 159.772 32.3815C160.92 31.9608 162.094 31.6059 163.294 31.3079C163.106 31.527 162.922 31.7461 162.733 31.9608C161.047 33.9504 159.518 35.9181 158.178 38.0479C150.815 49.8278 149.803 64.2151 149.807 78.002C149.79 86.9552 150.237 94.2343 151.284 101.053C151.796 104.406 152.453 107.644 153.272 110.918C153.39 110.966 153.509 111.01 153.627 111.063C153.662 111.071 153.697 111.085 153.732 111.102C161.87 114.363 169.452 119.569 175.804 125.941C176.688 126.826 177.551 127.738 178.383 128.667C183.705 134.583 187.98 141.332 190.753 148.357C191.191 149.452 191.585 150.552 191.944 151.661C192.12 152.204 192.286 152.748 192.439 153.291Z" fill="#93C488"/>
<path d="M294.212 122.904C274.212 112.754 249.701 110.313 221.335 115.651C205.61 118.609 190.84 123.552 178.383 128.666C177.214 129.144 176.062 129.626 174.936 130.113C169.566 132.4 164.682 134.697 160.412 136.826C159.304 136.059 158.226 135.293 157.166 134.534C161.551 132.313 166.645 129.876 172.304 127.426C173.447 126.931 174.616 126.436 175.803 125.941C188.703 120.568 204.169 115.309 220.687 112.202C247.633 107.136 271.255 108.928 291.032 117.535C292.153 119.24 293.239 121.045 294.212 122.904Z" fill="#93C488"/>
<path d="M298.596 138.711C298.544 139.921 298.364 141.104 298.044 142.243C295.986 141.476 293.888 140.788 291.75 140.17C290.506 139.807 289.245 139.469 287.97 139.158C281.194 137.501 274.032 136.533 266.499 136.261C265.277 136.217 264.046 136.191 262.802 136.187C253.77 136.13 244.221 137.041 234.191 138.93C233.959 138.974 233.726 139.018 233.494 139.066C232.329 139.285 231.173 139.522 230.025 139.767C216.153 142.708 203.136 147.103 191.944 151.661C191.287 151.924 190.639 152.191 190 152.463C189.421 152.257 188.852 152.051 188.291 151.841C187.262 151.459 186.255 151.065 185.269 150.662C186.001 150.342 186.745 150.026 187.499 149.706C188.567 149.255 189.649 148.808 190.753 148.357C201.944 143.812 214.931 139.421 228.786 136.445C229.942 136.196 231.107 135.959 232.277 135.735C232.697 135.648 233.122 135.564 233.547 135.486C243.345 133.641 252.697 132.707 261.589 132.681C262.846 132.672 264.098 132.685 265.338 132.72C272.902 132.913 280.121 133.781 286.971 135.323C288.285 135.617 289.586 135.937 290.874 136.283C293.507 136.989 296.082 137.795 298.596 138.711Z" fill="#93C488"/>
<path d="M158.371 283.917C145.94 284.885 134.363 293.234 129.514 304.724C129.514 304.724 122.778 303.024 114.149 300.307C113.514 300.109 112.874 299.903 112.222 299.693C107.079 298.037 101.42 296.056 96.1859 293.886C95.5464 293.624 94.92 293.356 94.298 293.085C90.1282 291.283 86.3131 289.359 83.3652 287.396C84.5172 282.006 87.833 277.111 92.4058 274.043C99.0286 269.595 105.796 269.411 112.642 270.791C114.666 271.199 116.694 271.742 118.726 272.351C119.777 272.667 120.829 273 121.88 273.342C123.96 274.017 128.577 275.489 133.864 277.128C135.918 277.768 138.073 278.43 140.219 279.078C148.691 281.647 157.004 284.022 158.371 283.917Z" fill="#77A66F"/>
<path d="M140.219 279.078C129.689 281.773 118.809 291.257 115.992 300.85L114.148 300.307L112.208 299.737C112.208 299.737 112.217 299.706 112.221 299.693C114.967 290.411 123.956 281.48 133.863 277.128C135.918 277.768 138.073 278.43 140.219 279.078Z" fill="#A0C995"/>
<path d="M118.726 272.351C109.099 275.849 100.194 285.17 96.1859 293.886C96.1771 293.904 96.1684 293.921 96.1596 293.939L94.2981 293.084L92.5767 292.296C95.3186 286.309 100.049 280.24 105.568 275.643C107.478 274.052 109.874 272.299 112.642 270.791C114.666 271.199 116.694 271.742 118.726 272.351Z" fill="#A0C995"/>
<path d="M138.077 292.813L90.334 275.629L93.9126 273.031L141.713 289.942L138.077 292.813Z" fill="#A0C995"/>
</svg>
