<svg id="Layer_1" height="512" viewBox="0 0 400 400" width="512" xmlns="http://www.w3.org/2000/svg" xmlns:xlink="http://www.w3.org/1999/xlink"><linearGradient id="lg1"><stop offset="0" stop-color="#6aab61"/><stop offset="1" stop-color="#2c5018"/></linearGradient><linearGradient id="SVGID_1_" gradientUnits="userSpaceOnUse" x1="176.746" x2="236.674" xlink:href="#lg1" y1="138.998" y2="172.015"/><linearGradient id="lg2"><stop offset="0" stop-color="#ffe33c"/><stop offset=".4603" stop-color="#ffaf00"/><stop offset="1" stop-color="#ff7900"/></linearGradient><linearGradient id="SVGID_2_" gradientUnits="userSpaceOnUse" x1="81.812" x2="184.74" xlink:href="#lg2" y1="242.336" y2="299.044"/><linearGradient id="SVGID_3_" gradientTransform="matrix(-1 0 0 1 214.343 0)" gradientUnits="userSpaceOnUse" x1="-103.21" x2="-.282" xlink:href="#lg2" y1="242.335" y2="299.043"/><linearGradient id="SVGID_4_" gradientUnits="userSpaceOnUse" x1="142.565" x2="270.692" y1="255.773" y2="326.363"><stop offset="0" stop-color="#ffe33c"/><stop offset=".3545" stop-color="#fc0"/><stop offset=".619" stop-color="#ffaf00"/><stop offset="1" stop-color="#ff7900"/></linearGradient><linearGradient id="lg3"><stop offset="0" stop-color="#1c1c1c"/><stop offset=".5767"/></linearGradient><linearGradient id="SVGID_5_" gradientUnits="userSpaceOnUse" x1="144.621" x2="173.234" xlink:href="#lg3" y1="266.275" y2="282.04"/><linearGradient id="SVGID_6_" gradientUnits="userSpaceOnUse" x1="215.806" x2="244.418" xlink:href="#lg3" y1="266.275" y2="282.039"/><linearGradient id="SVGID_7_" gradientUnits="userSpaceOnUse" x1="167.538" x2="213.08" xlink:href="#lg3" y1="306.281" y2="331.372"/><linearGradient id="SVGID_8_" gradientUnits="userSpaceOnUse" x1="118.33" x2="292.961" xlink:href="#lg3" y1="140.401" y2="236.613"/><linearGradient id="SVGID_9_" gradientUnits="userSpaceOnUse" x1="180.082" x2="277.316" xlink:href="#lg3" y1="94.886" y2="148.457"/><linearGradient id="SVGID_10_" gradientUnits="userSpaceOnUse" x1="159.608" x2="252.153" y1="144.447" y2="195.434"><stop offset="0" stop-color="#d14dd3"/><stop offset="1" stop-color="#700e84"/></linearGradient><linearGradient id="SVGID_11_" gradientTransform="matrix(-.228 -.974 .974 -.228 107.373 14.476)" gradientUnits="userSpaceOnUse" x1="-200.77" x2="-154.487" xlink:href="#lg1" y1="74.394" y2="99.893"/><linearGradient id="SVGID_12_" gradientTransform="matrix(-.228 -.974 .974 -.228 107.373 14.476)" gradientUnits="userSpaceOnUse" x1="-192.302" x2="-143.952" y1="93.462" y2="83.493"><stop offset="0" stop-color="#2c5018"/><stop offset="1" stop-color="#6aab61"/></linearGradient><g><g><g><path d="m173.798 176.214s7.293-33.876 0-44.361c-7.292-10.485 42.707-29.357 48.114-14.678 5.406 14.678-.885 54.382 13.793 66.334 14.68 11.951-65.131 22.388-61.907-7.295z" fill="url(#SVGID_1_)"/><path d="m184.74 184.191s-9.938-22.13-50.41-14.802c-44.813 8.114-88.393 91.947-77.209 150.663 11.184 58.715 82.56 68.617 108.422 40.658 25.862-27.96 22.339-160.452 19.197-176.519z" fill="url(#SVGID_2_)"/><path d="m214.625 184.191s9.937-22.13 50.409-14.802c44.813 8.114 88.394 91.947 77.21 150.663-11.186 58.715-82.561 68.617-108.423 40.658-25.862-27.96-22.339-160.452-19.196-176.519z" fill="url(#SVGID_3_)"/><path d="m283.12 314.66c0 58.824-37.368 72.697-83.464 72.697s-83.464-13.873-83.464-72.697 37.368-140.324 83.464-140.324 83.464 81.5 83.464 140.324z" fill="url(#SVGID_4_)"/></g><circle cx="158.869" cy="274.124" fill="url(#SVGID_5_)" r="20.233"/><circle cx="230.054" cy="274.124" fill="url(#SVGID_6_)" r="20.233"/><path d="m214.377 314.197c.336 1.295.616 2.746.616 4.002 0 3.157-5.285 4.33-9.103 4.037-2.39-.184-2.995-3.303-3.113-5.609-25.083 3.168-43.908-7.707-43.908-7.707s2.606 17.184 13.595 28.742c.852-1.862 2.377-3.616 4.947-2.653 4.698 1.761 7.487 2.789 7.487 5.284 0 1.296-.949 3.292-1.861 4.918 3.012 1.332 6.373 2.254 10.143 2.584 28.797 2.524 34.311-38.875 34.311-38.875-4.451 2.287-8.838 4.008-13.114 5.277z" fill="url(#SVGID_7_)"/></g><g><ellipse cx="205.292" cy="188.311" fill="url(#SVGID_8_)" rx="139.227" ry="40.419"/><path d="m133.003 176.096s42.752 29.228 141.411 4.648c0 0-11.182-48.642-36.832-129.542 0 0 18.416 13.155 36.832 10.524 0 0-28.283-43.41-45.383-46.041-17.101-2.63-84.188 95.206-96.028 160.411z" fill="url(#SVGID_9_)"/><path d="m137.329 158.277c-1.817 6.129-3.288 12.101-4.326 17.818 0 0 42.752 29.228 141.411 4.648 0 0-1.811-7.876-5.645-22.552-54.836 14.103-111.992 4.26-131.44.086z" fill="url(#SVGID_10_)"/></g><g><path d="m202.354 182.188s12.103 20.207 33.343 18.316l-3.662-5.798s15.779.408 26.578-12.608l-4.35-2.823s14.743-6.002 15.343-27.13c0 0-4.532-10.715-30.642-12.292l2.469-3.648s-22.616-6.973-28.465 15.378l-2.252-6.667c.001 0-17.643 13.334-8.362 37.272z" fill="url(#SVGID_11_)"/><path d="m212.969 151.583-2.252-6.667s-17.644 13.334-8.362 37.271c0 0 .45.748 1.32 1.938 15.931-9.801 43.249-25.334 65.922-31.788.003-.065.008-.126.01-.192 0 0-4.532-10.715-30.642-12.292l2.469-3.648c0-.001-22.617-6.974-28.465 15.378z" fill="url(#SVGID_12_)"/></g></g></svg>