<?xml version="1.0" encoding="UTF-8"?>
<!-- Generator: Adobe Illustrator 26.0.3, SVG Export Plug-In . SVG Version: 6.00 Build 0)  -->
<svg xmlns="http://www.w3.org/2000/svg" xmlns:xlink="http://www.w3.org/1999/xlink" version="1.1" id="Capa_1" x="0px" y="0px" viewBox="0 0 512 512" style="enable-background:new 0 0 512 512;" xml:space="preserve" width="512" height="512">
<g>
	<g>
		<g>
			<g>
				<g>
					<path style="fill:#002C54;" d="M308.876,169.15c0.609-0.482,1.224-0.949,1.861-1.37c-7.521-10.637-17.926-19.177-28.992-26.645       c-4.674-3.045-9.652-6.966-14.772-10.297c13.108-4.404,23.225-16.814,24.909-30.282c1.505-12.84-2.687-26.573-17.014-27.469       c-1.701-0.142-3.347-0.142-4.944-0.018c0.933-3.906,1.506-7.987,1.667-12.213c0.897-20.592-11.048-39.396-32.825-41.778       c-17.619-2.095-34.328,9.243-38.803,26.559c-0.306,1.092-0.645,2.594-0.933,4.332c-4.726-6.895-12.176-12.499-18.767-15.079       c-3.545-1.358-10.348-1.037-15.973,0.878c-1.79-2.685-4.1-5.104-7.002-7.143c-12.839-8.651-34.632-5.373-47.452,1.198       C95.51,37.578,81.183,51.597,81.183,68.914c0,0.18,0,0.377,0.019,0.575c-4.818-5.604-11.354-10.279-16.135-12.518       c-15.527-7.164-34.921-2.973-44.769,11.353c-12.536,18.498-8.954,40.883,1.486,59.381c0.5,0.913,1.021,1.789,1.56,2.649       c-8.185,4.657-13.09,13.018-7.826,23.925c1.915,3.652,6.59,9.062,11.8,12.249c-5.641,0.395-11.658,1.845-14.791,2.666       c-14.612,4.174-15.813,18.803-6.86,29.852c11.194,13.521,31.141,13.376,45.306,4.568c-5.603,22.869-7.753,46.883-2.937,69.59       l10.095,23.433l141.354-26.92l122.457-83.807L308.876,169.15z"/>
					<path style="opacity:0.2;fill:#FFFFFF;" d="M238.61,99.744c-0.904-1.252-1.73,0.794-1.331,1.644       c8.618,18.341-3.791,32.827-22.383,33.083c-7.882,0.108-18.052-1.945-25.67-6.504c-0.065-2.716-0.415-5.303-1.092-7.627       c-2.258-7.754-9.278-8.257-9.163,0.699c0.056,4.309,3.537,7.733,7.844,10.34c-0.163,1.485-0.438,2.962-0.724,4.415       c-1.088,5.527-3.71,10.709-6.854,15.327c-7.641,11.219-21.186,12.994-30.122,2.272c-5.353-6.421-7.626-15.622-7.535-24.393       c2.402-5.82,3.656-11.585,3.284-16.232c-0.082-1.005-1.075-1.901-1.623-0.623c-1.626,3.788-2.705,8.798-3.072,14.222       c-1.981,4.6-4.773,8.874-7.74,12.864c-6.265,8.428-16.39,17.365-27.553,13.967c-15.677-4.777,0.455-24.401,6.752-30.261       c0.521-0.485,0.083-2.135-0.615-1.494c-9.587,8.751-25.337,34.506-0.992,35.723c11.883,0.594,23.662-11.714,30.041-24.783       c0.452,14.839,6.294,30.527,20.607,32.184c16.387,1.896,26.919-16.043,28.397-31.931c3.946,2.038,8.188,3.461,10.999,4.308       c12.632,3.81,27.934,3.766,37.45-6.443C245.033,122.439,244.792,108.323,238.61,99.744z M183.708,121.901       c0.191-0.08,0.74-0.287,1.24,0.022c0.123,0.027,1.287,1.336,1.321,1.458c0.632,1.111,0.65,1.983,0.563,2.996       c-1.35-0.985-2.592-2.059-3.68-3.234C182.742,122.614,183.357,122.069,183.708,121.901z"/>
					<path style="opacity:0.2;fill:#FFFFFF;" d="M50.653,66.962c-13.637-11.509-24.788,27.667-25.744,36.179       c-1.085,9.672-1.961,22.922,5.246,30.679c7.562,8.137,23.151,5.04,27.338-5.212c0.46-1.129,0.073-2.967-1.289-3.178       c-12.957-2.012-18.464,19.347-18.287,29.057c0.277,15.327,16.04,27.641,30.822,19.308c1.075-0.605,1.44-3.509-0.094-3.843       c-9.564-2.066-21.055-0.106-25.828-11.014c-3.751-8.577,1.242-31.112,13.493-29.242c-0.36-1.206-0.721-2.412-1.08-3.62       c-5.095,9.414-20.641,7.461-25.208-1.111c-3.651-6.849-4.112-17.549-2.658-25.076c1.997-10.34,8.807-34.996,22.968-31.639       C50.989,68.405,51.023,67.276,50.653,66.962L50.653,66.962z"/>
					<path style="opacity:0.2;fill:#FFFFFF;" d="M88.792,121.486c-10.348,3.654-22.017-2.496-18.613-15.386       c1.636-6.189,8.871-8.833,14.433-9.801c4.954-0.863,10.13-0.063,14.807,1.622c1.852,0.669,6.934,3.796,2.103,4.394       c-4.474,0.549-8.038-3.571-9.864-7.002c-6.063-11.396,1.186-25.366,7.981-34.566c7.059-9.557,16.801-16.002,27.643-20.417       c0.997-0.405,0.914-2.945-0.327-2.876c-17.942,0.971-35.047,22.455-38.83,38.743c-2.029,8.743-1.383,17.348,3.92,24.799       c2.445,3.432,10.996,7.327,14.008,2.484c2.906-4.671-4.785-8.452-7.84-9.609c-7.357-2.785-18.311-2.287-24.574,2.922       c-5.385,4.478-8.391,12.819-5.073,19.549c4.029,8.176,12.384,9.73,20.516,6.554C89.654,122.671,89.472,121.245,88.792,121.486       L88.792,121.486z"/>
					<path style="opacity:0.2;fill:#FFFFFF;" d="M151.596,93.769c-8.117-0.229-15.09-2.503-19.946-9.347       c-7.085-9.982-1.377-21.975,9.105-25.612c3.904-1.358,8.042-0.916,11.922,0.167c1.344,0.44,2.622,1.028,3.834,1.754       c1.065,0.693,2.128,1.378,3.191,2.065c0.37,8.751,0.277,7.49-0.281-3.782c3.818-6.889,11.671-7.94,18.061-10.769       c1.224-0.541,1.047-2.91-0.085-3.441c-11.398-5.344-27.851,11.283-22.366,22.872c1.487,3.139,5.81,10.597,9.454,5.991       c3.1-3.914-0.926-11.131-3.749-13.78c-10.929-10.267-31.558-9.965-34.94,7.701c-3.367,17.562,9.265,28.22,25.831,27.511       C152.222,95.073,152.189,93.787,151.596,93.769L151.596,93.769z"/>
					<path style="opacity:0.2;fill:#FFFFFF;" d="M188.091,95.632c4.717,15.837,33.695,10.737,40.5-1.033       c4.839-8.367,18.205-38.377,4.302-44.581c-7.91-3.531-9.67,8.083-8.378,13.017c2.546,9.731,19.414,7.514,25.927,4.359       c14.472-7.007,16.642-38.739-3.055-39.581c-0.998-0.042-0.994,1.936-0.358,2.354c5.124,3.392,9.405,6.738,10.805,13.072       c1.576,7.139-2.727,14.478-8.636,18.127c-2.472,1.524-5.39,1.893-8.213,2.176c-1.401,0.108-2.804,0.136-4.209,0.081       c-0.712-0.061-1.426-0.118-2.138-0.177c-4.373,0.008-5.863-2.469-4.465-7.433c0.18-0.637,0.802-1.067,1.453-0.948       c4.369,0.803,2.399,10.289,1.932,12.949c-1.269,7.238-4.684,22.536-11.507,26.771c-7.08,4.397-27.341,8.575-32.796-0.234       C188.656,93.581,187.897,94.986,188.091,95.632L188.091,95.632z"/>
					<path style="opacity:0.2;fill:#FFFFFF;" d="M255.94,100.548c-8.414,7.111,2.051,20.662,11.363,18.75       c12.486-2.561,15.335-18.302,13.311-28.671c-0.851-4.362-2.762-9.035-6.928-11.096c-4.165-2.061-8.979,1.912-10.708,5.391       c-4.112,8.267,2.183,21.07,11.284,12.35c0.622-0.595,0.469-2.514-0.673-2.222c-5.019,1.278-10.533-2.672-6.197-7.783       c5.074-5.978,8.726,2.163,9.53,6.34c1.141,5.926-0.41,11.035-4.456,15.558c-2.163,2.419-5.022,3.971-8.239,4.316       c-4.374,0.467-15.064-5.193-7.425-10.837C257.627,102.034,256.946,99.7,255.94,100.548L255.94,100.548z"/>
					<path style="opacity:0.2;fill:#FFFFFF;" d="M17.397,178.177c-12.384,8.927-2.64,31.461,12.626,25.403       c4.789-1.898,12.506-9.551,10.039-15.305c-1.238-2.892-3.684-4.82-6.926-3.696c-3.514,1.221-6.51,4.519-4.785,8.395       c0.443,1,1.457,1.76,2.441,0.908c1.407-1.217,1.731-2.889,3.445-3.968c0.304-0.192,4.031-1.367,2.954,0.605       c-0.648,1.182-1.484,2.147-2.435,3.096c-2.866,2.865-6.089,4.337-10.131,4.306c-9.349-0.065-13.631-12.205-6.512-18.009       C18.751,179.392,18.307,177.525,17.397,178.177L17.397,178.177z"/>
					<path style="opacity:0.2;fill:#FFFFFF;" d="M261.983,137.3c-6.894,3.617-9.602,23.082-5.371,29.193       c8.615,12.442,17.543-12.051,17.517-18.38c-0.008-2.497-2.765-3.38-3.243-0.584c-1.779,10.489-5.463,32.315,7.441,38.183       c11.205,5.096,22.528-8.042,27.042-16.922c0.338-0.667-0.067-3.182-1.123-2.087c-5.22,5.405-10.511,10.685-17.751,13.267       c-16.182,5.765-13.587-22.918-12.408-31.187c-1.08-0.197-2.161-0.391-3.242-0.588c-0.005,3.713-1.436,7.337-3.055,10.62       c-1.575,3.189-7.972,9.84-9.679,2.047c-1.27-5.8-0.076-17.34,4.45-21.658C263.037,138.749,262.89,136.822,261.983,137.3       L261.983,137.3z"/>
					<path style="opacity:0.2;fill:#FFFFFF;" d="M50.322,263.658c2.75,6.036,15.867,15.539,19.724,5.203       c3.644-9.765-2.983-21.249-11.331-26.314c-1.228-0.739-1.619,1.747-1.481,2.38c1.072,5.051,6.773,8.983,11.75,5.535       c6.029-4.178,7.588-12.201,8.516-19.044c1.967-14.509-6.609-32.057-22.68-32.342c-0.83-0.013-0.831,1.749-0.125,1.96       c10.035,3.036,16.953,8.73,19.724,19.153c1.224,4.603,0.756,9.508-0.154,14.114c-0.609,3.082-1.598,5.912-3.039,8.712       c-2.093,4.069-9.853,6.902-11.607,0.844c-0.492,0.791-0.987,1.586-1.48,2.38c6.161,2.25,9.38,8.933,10.767,14.942       c2.518,10.905-5.887,9.752-10.256,8.179c-3.184-1.145-5.858-3.593-7.341-6.628C50.793,261.674,49.979,262.908,50.322,263.658       L50.322,263.658z"/>
				</g>
				<g>
					<path style="fill:#FFA33E;" d="M331.582,166.815c-7.628-4.136-14.862-3.025-20.845,0.966       c-8.113,5.373-13.968,16.011-15.527,26.111c-11.565-14.254-23.35-26.591-37.64-38.43c-3.527-2.955-7.432-6.427-11.586-9.58       c-7.952,7.86-17.55,2.595-25.125-3.243c6.859,5.658,6.269,20.594-4.476,19.394c-2.345-0.25-6.734-2.83-10.797-6.25       c-3.726,13.574-14.524,25.967-27.704,27.434c-10.155,1.271-23.764-8.399-27.416-19.359       c-2.615,6.952-7.915,12.915-15.274,12.196c-4.836-0.555-9.296-4.369-12.501-9.257c-2.595,7.861-7.073,14.469-14.36,16.726       c-6.018,1.593-14.166-3.117-17.891-9.185c-0.32,2.934-0.949,5.835-1.201,7.697c-1.198,5.962-3.885,15.223-9.848,18.196       c-2.165,0.967-5.496,0.07-8.684-1.647c-5.857,22.167-9.296,45.305-7.737,68.208c0.323,3.707,0.465,8.649,1.11,13.447       c-2.596-1.555-5.318-2.865-7.377-3.904c-2.615-1.306-5.605-2.435-8.669-3.13c-7.466-1.685-15.365-0.864-19.393,6.121       c-5.962,9.852-5.372,26.271,5.981,31.644c12.875,6.304,27.273,0.68,39.343-6.323c14.147,43.353,69.694,35.1,101.517,28.401       c34.023-7.161,32.842,15.527,32.842,15.527l7.518,9.264l34.707-22.251l3.725-28.916c23.028-13.5,55.421-39.128,53.042-84.36       c11.87-1.416,23.134-10.657,30.226-19.68C345.603,191.884,344.421,173.978,331.582,166.815z M223.349,336.47       c0.699-6.501,3.314-14.988,11.677-19.536c1.182-0.645,2.686-1.415,4.456-2.296l4.352,10.055L223.349,336.47z"/>
					<g>
						<path style="fill:#002C54;" d="M103.293,277.389c-2.189-18.394,12.431-35.356,29.783-38.664        c14.678-2.804,30.272,2.766,42.348,10.881c1.122,0.752,1.347-1.42,0.728-2.043c-13.203-13.165-35.361-17.547-52.613-10.455        c-13.873,5.705-25.119,25.853-20.902,40.574C102.834,278.37,103.358,277.926,103.293,277.389L103.293,277.389z"/>
						<path style="fill:#002C54;" d="M273.453,213.621c-8.662-17.156-32.763-17.994-48.377-11.361        c-11.801,5.013-36.771,24.332-26.437,39.557c0.596,0.879,1.12-0.417,1.03-0.963c-2.791-16.968,18.056-30.857,31.658-35.999        c12.911-4.881,33.477-2.859,41.462,9.589C273.198,215.081,273.669,214.05,273.453,213.621L273.453,213.621z"/>
						<path style="fill:#002C54;" d="M94.217,249.11c-1.035-10.922,11.678-22.41,19.546-28.39        c10.824-8.228,23.849-9.342,35.891-14.571c2.591-1.124,2.073-5.929-0.175-7.081c-26.152-13.399-66.58,24.505-60.915,51.354        C89.583,255.255,94.636,253.543,94.217,249.11L94.217,249.11z"/>
						<path style="fill:#002C54;" d="M191.804,194.332c1.723-1.89,4.12-3.373,6.118-4.96c5.245-4.15,10.762-6.948,17.165-8.967        c15.666-4.942,31.295-1.427,46.389,3.459c3.31,1.072,3.393-4.601,2.236-6.312c-12.307-18.177-37.79-17.125-55.994-9.24        c-4.664,2.02-32.076,22.357-19.356,28.45C189.84,197.467,189.831,196.505,191.804,194.332z"/>
						<g>
							<path style="fill:#002C54;" d="M172.653,263.008c0,0,12.759,14.527,24.584,7.911c11.49-6.431,9.768-25.372,9.768-25.372         s29.667,52.606,5.045,68.122C181.754,332.765,172.653,263.008,172.653,263.008z"/>
							<path style="fill:#FFFFFF;" d="M175.788,269.031c0,0,9.583,10.967,23.147,4.253c13.562-6.717,10.282-20.146,10.282-20.146         s5.967,19.248-8.806,26.187C185.637,286.265,175.788,269.031,175.788,269.031z"/>
							<path style="fill:#FF4F8A;" d="M189.538,304.62c0,0,14.233-13.785,26.989,1.564         C216.527,306.185,201.498,323.628,189.538,304.62z"/>
						</g>
						<path style="fill:#002C54;" d="M198.862,249.711c-1.951-0.819-3.513-0.501-4.636,0.426c-2.64-5.988-8.578-11.605-13.533-5.116        c-2.957,3.873-2.642,9.743-0.472,13.835c1.015,1.918,2.553,3.305,4.541,4.144c2.727,1.15,6.19-1.284,8.652-2.117        c0.585-0.202,0.499-1.744-0.189-1.647c-3.539,0.505-7.266,1.55-9.873-1.618c-2.133-2.595-1.825-6.251-0.115-8.921        c3.288-5.131,8.832,4.063,8.992,6.945c0.002,0,0.003-0.001,0.005-0.001c0.016,0.228,0.038,0.456,0.074,0.682        c0.461,2.935,3.36,1.735,3.3-0.764c-0.006-0.264-0.03-0.539-0.061-0.819c0.642-2.255,2.425-0.746,2.354-0.31        c-0.255,1.139-0.189,3.294,1.217,3.027C203.236,256.673,201.963,251.015,198.862,249.711z"/>
						<path style="fill:#002C54;" d="M29.311,303.075c0,0,1.839-16.243,12.617-18.227c10.767-1.992,18.965,5.362,18.066,15.239        c-0.91,9.877-19.639,17.036-15.257-0.325l-5.776,1.282l7.807-3.671c0,0-4.749,11.414,3.4,11.155        c8.141-0.288,11.168-11.94,6.141-17.433C51.289,285.586,37.392,280.375,29.311,303.075z"/>
						<path style="fill:#002C54;" d="M340.145,196.78c0,0-5.786-15.288-16.719-14.553c-10.927,0.721-17.058,9.872-13.754,19.22        c3.317,9.349,23.231,11.669,14.706-4.075l5.912-0.181l-8.472-1.635c0,0,7.415,9.893-0.545,11.65        c-7.96,1.728-13.766-8.817-10.25-15.38C314.535,185.247,326.721,176.773,340.145,196.78z"/>
					</g>
				</g>
			</g>
			<polygon style="fill:#FFA33E;" points="189.538,369.162 209.217,371.847 195.486,425.867 154.897,425.867    "/>
			<g>
				<path style="fill:#FFA33E;" d="M451.866,132.486c0,0,52.827-2.991,54.313,3.581c1.486,6.573-59.096,5.517-59.096,5.517      L253.095,324.987l-9.851-8.647l176.976-178.482c0,0-28.347-9.546-22.687-20.288c3.708-7.02,18.516,6.354,28.33,16.456      c3.671-15.006,18.482-72.828,28.079-70.482c11.047,2.685-17.014,58.504-17.014,58.504s48.064-57.825,58.504-49.067      c10.297,8.647-48.118,51.088-49.799,52.324c1.664-0.912,62.694-34.255,66.221-24.784      C515.435,110.103,451.866,132.486,451.866,132.486z"/>
				<path style="fill:#002C54;" d="M425.91,134.899c2.133,0.811,4.521,0.149,6.751,1.118c2.409,1.047,3.872,2.5,5.235,4.681      c0.252,0.402,0.61-0.085,0.579-0.385c-0.296-2.853-1.835-6.203-4.333-7.744c-2.563-1.577-6.608-1.757-8.52,0.876      C425.344,133.827,425.412,134.71,425.91,134.899L425.91,134.899z"/>
			</g>
			<g>
				<path style="fill:#C15BD3;" d="M191.6,418.414l7.772-38.804l-20.307-8.06l29.261-22.976l15.076-3.296      c0,0-0.592-3.813-0.053-8.808l16.134-21.832l12.41-16.813l2.383,8.846l8.953,33.237l-28.202,8.665l43.424,56.407L191.6,418.414z      "/>
			</g>
		</g>
		<g>
			<path style="fill:#99D7F7;" d="M340.536,413.814c0,0-56.714-65.812-124.165-11.79c0,0-81.098-45.697-97.592,18.089     L340.536,413.814z"/>
			<path style="fill:#FFFFFF;" d="M124.539,413.441c6.648-14.874,23.48-18.644,38.302-18.969     c16.201-0.355,30.827,6.743,43.856,15.662c0.37,0.251,0.493-0.497,0.25-0.702c-20.526-17.327-69.477-28.279-82.591,3.856     C124.302,413.421,124.453,413.63,124.539,413.441L124.539,413.441z"/>
			<path style="fill:#FFFFFF;" d="M131.846,412.514c7.575-12.625,20.131-15.049,33.801-13.635c0.356,0.035,0.368-0.778,0.054-0.861     c-14.609-3.805-26.881,0.58-34.326,13.812C131.179,412.176,131.537,413.024,131.846,412.514L131.846,412.514z"/>
			<path style="fill:#FFFFFF;" d="M137.256,414.492c3.284-8.867,18.168-8.872,25.74-9.068c11.103-0.283,22.381,1.839,31.787,7.924     c0.303,0.197,0.404-0.401,0.2-0.562c-10.516-8.381-24.032-10.157-37.11-9.405c-7.475,0.427-19.133,2.197-21.191,10.76     C136.587,414.53,137.061,415.015,137.256,414.492L137.256,414.492z"/>
			<path style="fill:#FFFFFF;" d="M223.959,408.297c26.491-29.772,76.406-25.625,101.74,3.312c0.385,0.439,0.616-0.355,0.414-0.667     c-21.109-32.063-79.961-35.119-102.451-3.2C223.524,407.936,223.715,408.575,223.959,408.297L223.959,408.297z"/>
			<path style="fill:#FFFFFF;" d="M230.997,411.109c10.212-13.25,29.672-14.136,45.108-13.941     c14.421,0.182,31.441,2.813,39.983,15.725c0.39,0.588,0.751-0.362,0.597-0.734c-5.914-14.222-25.123-16.53-38.552-17.191     c-16.398-0.808-37.636,0.527-47.736,15.279C230.108,410.673,230.529,411.716,230.997,411.109L230.997,411.109z"/>
			<path style="fill:#FFFFFF;" d="M243.584,413.658c3.793-9.044,18.809-10.026,26.94-10.364c10.726-0.448,21.249,2.289,31.384,5.485     c0.779,0.248,0.836-1.295,0.243-1.573c-12.467-5.965-26.718-7.806-40.35-5.841c-7.171,1.035-16.714,4.012-18.916,11.703     C242.74,413.572,243.266,414.416,243.584,413.658L243.584,413.658z"/>
			<path style="fill:#002C54;" d="M206.063,419.45c0.131-6.725,6.065-8.508,11.825-8.21c2.718,0.137,5.299,0.896,7.726,2.096     c3.066,1.522,3.917,4.068,5.852,6.567c0.359,0.461,0.682-0.093,0.695-0.464c0.479-13.536-30.411-14.814-26.21,0.035     C205.979,419.57,206.062,419.538,206.063,419.45L206.063,419.45z"/>
			<polygon style="fill:#008CF7;" points="342.631,418.414 115.799,423.032 111.321,409.275 219.213,415.869 345.236,403.542    "/>
		</g>
		<g>
			<path style="fill:#FFA33E;" d="M126.958,396.522l26.722,5.878l8.56-24.07C162.24,378.33,139.807,348.946,126.958,396.522z"/>
			<path style="fill:#002C54;" d="M148.335,399.519c0.302-9.25,3.704-16.892,6.501-25.5c0.199-0.607-0.312-1.977-0.982-1.099     c-5.634,7.38-6.621,17.659-6.572,26.622C147.285,400.542,148.304,400.494,148.335,399.519L148.335,399.519z"/>
			<path style="fill:#002C54;" d="M141.885,399.049c-2.098-8.565,1.821-16.294,4.068-24.334c0.257-0.921-0.466-3.084-1.522-1.699     c-4.96,6.494-7.278,19.27-3.619,26.762C141.288,400.75,142.07,399.797,141.885,399.049L141.885,399.049z"/>
			<path style="fill:#002C54;" d="M134.451,396.802c-1.671-5.32,0.018-10.128,0.645-15.391c0.08-0.672-0.75-2.398-1.392-1.173     c-2.62,4.996-2.571,12.362-0.147,17.398C134.037,398.628,134.658,397.459,134.451,396.802L134.451,396.802z"/>
		</g>
	</g>
	<g>
		<polygon style="fill:#002C54;" points="86.108,420.95 364.567,413.814 360.091,488.694 96.405,493.171   "/>
		<polygon style="fill:#C15BD3;" points="80.909,420.325 368.739,413.814 366.5,428.853 85.692,439.691   "/>
	</g>
</g>















</svg>
