<svg width="465" height="385" viewBox="0 0 465 385" fill="none" xmlns="http://www.w3.org/2000/svg">
<path d="M464.014 11.9774L463.994 14.9745C431.336 59.6934 396.792 103.179 363.649 147.585C362.802 148.722 362.994 150.132 362.247 151.138C350.703 166.613 334.922 183.818 324.937 199.738C323.187 202.533 321.723 204.615 322.879 208.209C323.318 209.573 325.22 210.23 324.594 211.479C306.729 229.426 288.889 247.444 269.828 264.127C264.132 269.116 254.904 277.991 248.865 281.706C241.428 286.285 224.017 291.536 215.087 294.715C206.818 297.662 198.519 300.644 190.048 302.968L231.025 286.436C237.306 281.726 233.154 272.826 225.672 273.882L169.13 295.574L165.629 295.271L13.7063 354.222C13.1412 351.412 10.8456 351.715 8.49453 350.927C7.96982 350.204 10.6034 348.092 11.1534 347.263C14.5539 342.128 17.4952 335.76 20.704 330.377C27.0358 319.763 35.3201 308.386 40.6882 297.485C41.5762 295.68 43.0494 293.148 43.0494 291.137C43.0494 289.226 41.107 286.396 41.1928 285.875C41.3845 284.718 45.9101 277.339 46.909 275.61C64.9054 244.472 85.8028 212.96 105.641 182.883C118.118 163.97 130.922 144.117 144.953 126.367C164.922 101.102 179.342 93.2173 208.765 81.1683C228.154 73.2283 248.078 66.7186 267.901 59.9663C269.213 61.811 268.708 63.2616 270.64 64.894C276.316 69.7005 283.158 62.8421 279.954 56.6002C332.979 40.3057 387.927 31.1325 442.285 20.2308C444.938 19.69 448.939 11.3709 450.65 10.9514L464.02 11.9825L464.014 11.9774Z" fill="#333F5B"/>
<path d="M180.139 306.84L179.811 308.538L165.291 312.344L175.603 308.078L180.139 306.84Z" fill="#556580"/>
<path d="M390.854 111.736C382.081 124.24 372.429 136.107 363.342 148.378C362.661 149.298 362.692 150.668 361.834 151.825C348.964 169.171 334.897 185.814 322.764 203.62C322.532 205.237 322.385 207.072 323.046 208.593C323.566 209.786 325.523 210.473 324.575 212.025C304.868 231.771 285.02 251.533 263.77 269.642C259.703 273.109 252.266 280.195 247.983 282.489C239.457 287.053 225.143 291.268 215.633 294.725C204.11 298.915 192.445 302.766 180.816 306.663L179.216 308.948L163.632 312.9L230.385 286.912C237.847 282.171 233.084 272.24 224.033 274.484C206.617 278.805 187.163 290.323 169.56 295.463L164.287 295.64L13.4902 354.207C12.9655 351.23 9.39851 352.494 7.94043 350.103C9.34805 349.391 10.2209 348.537 11.1492 347.258C14.4791 342.664 17.6273 335.492 20.7049 330.372C27.1779 319.597 35.9819 307.517 41.234 296.373C42.3086 294.088 42.8232 293.305 42.6315 290.556C42.4751 288.352 40.8506 286.856 41.0221 285.744C41.128 285.037 45.0431 278.598 45.81 277.253C60.8802 250.765 78.483 225.646 94.7085 199.885C122.604 191.252 150.529 182.691 178.495 174.286C247.065 153.675 315.801 132.119 384.805 113.105C385.839 112.822 390.35 111.347 390.854 111.731V111.736Z" fill="#232E41"/>
<path d="M160.326 88.5826L171.32 102.082L14.5642 353.434C13.7317 354.217 12.7429 354.859 11.5572 354.783C9.23641 354.632 -2.94785 346.838 0.664543 342.815L156.583 91.7061L160.326 88.5826Z" fill="#515D74"/>
<path d="M159.786 88.0368L164.619 85.9798L456.865 0.0698394C457.975 -0.16265 460.246 0.201247 461.002 0.939148C461.719 1.63662 464.115 8.91961 464.322 10.2842C464.827 13.63 464.514 15.6567 461.27 17.2033L172.056 102.254C170.25 102.289 161.204 90.2758 159.786 88.0368Z" fill="#748096"/>
<path d="M334.624 98.6608C351.314 97.8824 352.273 101.137 362.232 113.116C374.159 127.459 387.06 144.673 396.918 160.488C400.954 166.962 409.228 179.41 408.401 186.896C406.433 204.686 370.441 238.786 356.753 250.896C318.959 284.329 253.946 331.009 205.875 345.56C197.333 348.147 183.857 352.226 176.289 346.247C161.845 334.835 141.149 303.196 130.953 286.947C127.885 282.06 119.667 269.723 119.142 264.613C118.567 259.008 124.757 245.453 127.411 239.949C161.103 170.05 256.59 102.29 334.629 98.6608H334.624Z" fill="#232E41"/>
<path d="M407.351 180.072C397.795 173.396 385.213 177.222 375.016 180.467C334.488 193.355 284.378 227.546 250.858 253.953C230.667 269.864 183.307 310.09 176.264 334.097C174.947 338.58 175.25 341.466 176.284 345.974C167.097 337.791 159.483 327.921 152.183 318.04C142.44 304.854 129.59 286.932 122.28 272.492C117.709 263.46 118.642 261.899 121.962 252.695C148.878 178.157 250.434 105.949 328.413 99.0649C334.906 98.4938 345.32 97.2656 350.875 100.804C353.745 102.633 359.754 110.154 362.226 113.131C371.202 123.926 380.541 136.39 388.547 147.943C395.596 158.112 402.593 168.615 407.351 180.082V180.072Z" fill="#748096"/>
<path d="M240.107 251.179C240.264 251.947 240.213 251.881 239.754 252.316C237.973 254.014 234.961 255.783 232.948 257.496C214.129 273.508 178.923 307.487 170.14 330.159C169.141 332.737 168.853 335.269 167.763 337.69C159.217 328.128 151.588 317.747 144.258 307.234C137.527 297.586 129.737 286.396 124.132 276.136C117.679 264.314 117.79 263.253 122.654 250.628C133.547 222.345 154.066 195.518 176.618 174.821C183.217 182.918 188.383 192.652 195.008 200.728C206.864 215.173 220.002 232.261 232.67 245.67C234.739 247.858 237.075 250.426 240.102 251.184L240.107 251.179Z" fill="#515D74"/>
<path d="M128.975 136.536C121.14 152.103 109.697 167.488 104.924 184.363C96.5997 213.789 101.166 248.384 98.1638 279.002C97.2455 288.342 95.5806 297.783 93.5928 306.941C92.7805 310.686 88.9713 321.886 88.9259 324.302C88.9108 325.222 89.94 325.823 90.1822 326.682C91.6201 331.782 90.046 333.743 86.6253 337.382C89.6827 350.386 92.4223 363.684 93.1185 377.027C80.8434 387.721 54.3963 386.634 41.5309 377.628C35.1537 373.165 36.1274 371.897 39.6087 365.857C44.1746 357.947 52.136 348.951 58.5182 342.365C60.1479 340.687 65.7229 336.725 66.515 334.941C67.3071 333.157 66.4595 331.388 67.8974 329.159C69.8398 326.147 74.7236 324.833 75.8537 323.347C76.4743 322.528 77.6397 318.151 78.0787 316.756C81.7819 304.985 84.3045 290.202 85.5053 277.9C89.7433 234.394 78.0433 169.59 119.445 141.04C120.888 140.044 127.502 135.445 128.97 136.536H128.975Z" fill="#FFB200"/>
<path d="M87.6094 336.517L86.6054 337.356C86.6054 337.356 93.0532 362.763 93.5174 374.166C93.7343 379.488 90.571 379.659 86.0555 381.509C74.3051 386.326 57.1059 385.674 45.6935 380.074C43.514 379.002 36.8139 375.04 36.8744 372.447C36.9198 371.199 38.1206 370.522 39.0136 370.163C43.1204 368.52 47.4997 369.182 51.7226 368.06C55.8849 360.706 59.7143 353.049 65.153 346.525C63.5184 353.813 60.6779 360.959 60.7536 368.576C67.5445 368.283 74.0478 370.335 80.541 371.866C81.8578 370.951 81.8023 355.415 81.6863 352.842C81.54 349.506 80.8538 339.792 79.7388 337.159C77.4533 331.777 70.6372 334.93 66.2226 335.456C66.9088 334.324 66.9088 332.611 66.9088 332.611C72.3829 331.019 83.1847 331.948 83.8709 323.933L75.6219 323.66C77.4079 319.359 78.7348 314.785 79.8549 310.266C83.7145 294.695 85.3189 278.814 86.2068 262.783C86.7113 253.69 85.6821 248.53 88.9565 239.463C91.1865 233.282 94.925 226.343 99.8138 221.961L99.2942 264.698C98.1741 285.309 94.5517 305.51 89.1532 325.343C87.5539 326.626 83.2705 328.992 83.326 331.382C83.3714 333.293 88.6134 335.082 87.6094 336.522V336.517Z" fill="#D15700"/>
</svg>
