<svg id="Capa_1" enable-background="new 0 0 512 512" height="512" viewBox="0 0 512 512" width="512" xmlns="http://www.w3.org/2000/svg"><g><path d="m91 102.566h30v45h-30z" fill="#335373"/><path d="m391 102.566h30v45h-30z" fill="#1f3c59"/><path d="m0 512h151l15-139.48-166 20z" fill="#9af"/><path d="m0 392.52v-30l166-20v50z" fill="#9580ff"/><path d="m0 243.039v119.481h166v-139.481z" fill="#9af"/><path d="m44.472 132.566-44.472 110.473h166v-110.473z" fill="#1f3c59"/><path d="m361 512h151v-119.48l-166-20z" fill="#9580ff"/><path d="m346 392.52v-50l166 20v30z" fill="#884dff"/><path d="m346 223.039v139.481h166v-119.481z" fill="#9580ff"/><path d="m346 132.566v110.473h166l-44.472-110.473z" fill="#0a2533"/><path d="m361 102.566-125-20 20 429.434h105z" fill="#884dff"/><path d="m151 102.566v409.434h105v-429.434z" fill="#9580ff"/><path d="m361 102.566-34.188-102.566h-70.812l-20 51.283 20 51.283z" fill="#1f3c59"/><path d="m256 0h-70.812l-34.188 102.566h105z" fill="#335373"/><path d="m75.5 290.667h30v35.667h-30z" fill="#fff2b3"/><path d="m75.5 416.333h30v35.667h-30z" fill="#fff2b3"/><path d="m406.499 290.667h30v35.667h-30z" fill="#ffe666"/><path d="m406.499 416.333h30v35.667h-30z" fill="#ffe666"/><path d="m301 195c0-24.813-20.187-45-45-45l-20 55.333 20 55.333h45z" fill="#1f3c59"/><path d="m301 401.333v-65.667c0-24.813-20.187-45-45-45l-20 55.334 20 55.333z" fill="#1f3c59"/><path d="m211 195v65.667h45v-110.667c-24.813 0-45 20.187-45 45z" fill="#335373"/><path d="m211 335.667v65.667h45v-110.667c-24.813 0-45 20.187-45 45z" fill="#335373"/><g fill="#ffe666"><path d="m241 230.667h30v-35.667c0-8.271-6.729-15-15-15s-15 6.729-15 15z"/><path d="m241 371.333h30v-35.667c0-8.271-6.729-15-15-15s-15 6.729-15 15z"/></g></g></svg>