<svg id="Слой_1" height="512" viewBox="0 0 512 512" width="512" xmlns="http://www.w3.org/2000/svg"><g><g id="XMLID_00000174569163526770079060000001913223584316002978_"><g><g><path d="m180.13 145.804c4.661 5.299 4.438 13.674 1.909 20.556l-.449-.187c-4.242 3.294-10.155 5.206-16.531 6.017 3.092-1.515 5.787-3.856 6.706-6.644 3.851-11.674-20.787-12.798-27.051-10.435-6.576 2.503-8.453 9.303-3.084 14.016 1.16 1.025 2.503 1.824 3.965 2.454-5.08-.927-9.589-2.421-12.82-4.32-10.953-6.43-9.559-15.743-9.559-15.743l-.014-.016c3.744-6.347 11.418-10.738 19.829-11.861 9.486-1.259 27.201-1.798 35.277 4.44.675.534 1.287 1.109 1.822 1.723z" fill="#ffcdc0"/></g><g><path d="m181.59 166.173.449.187c-1.152 3.083-2.76 5.874-4.594 7.941-6.838 7.712-17.708 11.031-27.981 10.382-9.275-.582-21.185-5.756-25.841-14.217-3.951-7.189-3.504-13.732-.421-18.965l.014.016s-1.394 9.313 9.559 15.743c3.231 1.899 7.74 3.393 12.82 4.32 3.572 1.582 7.796 2.169 11.417 2.421 2.414.168 5.378-.518 8.048-1.812 6.375-.81 12.287-2.722 16.53-6.016z" fill="#eab4a9"/></g><g><path d="m144.712 155.111c6.264-2.363 30.903-1.24 27.051 10.435-.918 2.787-3.614 5.129-6.706 6.644-6.453.834-13.369.536-19.465-.609-1.462-.63-2.805-1.429-3.965-2.454-5.367-4.713-3.49-11.513 3.085-14.016z" fill="#ffb3a4"/></g><g><path d="m165.058 172.189c-2.669 1.295-5.633 1.981-8.048 1.812-3.621-.252-7.845-.839-11.417-2.421 6.096 1.145 13.012 1.444 19.465.609z" fill="#ef9d8f"/></g></g></g><g id="XMLID_00000049203534669278428640000003069917997880469426_"><g><g><path d="m315.636 140.356c-5.306 8.742.624 22.054 7.648 27.583 8.087 6.391 19.37 7.75 29.37 5.307 9.029-2.202 19.845-9.388 22.943-18.535 5.815-17.22-9.076-27.607-24.52-26.938-9.56.426-27.094 3.007-33.949 10.567-.572.644-1.074 1.318-1.492 2.016zm11.703 17.966c-5.842-10.816 18.216-16.25 24.798-15.024 6.913 1.309 9.955 7.674 5.498 13.256-3.306 4.15-9.333 6.253-14.287 7.501-5.055 1.275-13.408-.921-16.009-5.733z" fill="#ffcdc0"/></g><g><path d="m352.137 143.298c-6.582-1.226-30.64 4.207-24.798 15.024 2.601 4.813 10.954 7.008 16.009 5.733 4.954-1.248 10.981-3.351 14.287-7.501 4.457-5.582 1.415-11.947-5.498-13.256z" fill="#ffb3a4"/></g></g></g><g id="XMLID_00000014596290284874718770000007604563137045095085_"><g><path d="m408.785 287.154c1.598.866 4.141 3.327 5.748 5.11 7.322 8.127 11.903 17.179 13.955 27.664-4.586-10.203-15.311-16.327-15.311-16.327 12.757 41.587-16.835 61.739-16.835 61.739-1.778 22.96-14.027 39.541-14.027 39.541-1.778-11.98-7.275-20.943-7.275-20.943-11.995 25.708-40.437 38.391-40.437 38.391.344-8.574-6.857-15.431-6.857-15.431l-.553-1.165c2.704-1.24 5.378-2.584 7.992-3.988 43.484-23.348 73.136-65.652 73.584-114.589h.016z" fill="#2d3b51"/><path d="m257.375 133.016c2.719.064 5.426.13 8.167.28 6.402.352 12.741 1.45 19.057 2.602 11.986 2.185 23.673 5.915 34.67 11.166 10.764 5.139 20.81 11.694 30.039 19.237 3.593 2.937 7.065 6.02 10.421 9.224 27.285 26.042 46.145 64.07 48.757 101.889.224 3.271.329 6.528.284 9.74-.448 48.937-30.1 91.241-73.584 114.589-127.167 12.145-196.733-34.402-205.218-108.524-3.749-32.789 3.032-65.787 20.346-93.96 8.993-14.654 21.167-27.142 35.089-37.196 14.774-10.681 29.756-19.36 47.398-24.603 3.597-1.069 7.19-2.15 10.847-3 4.552-1.057 9.152-1.551 13.727-1.444z" fill="#ffcdc0"/><path d="m335.179 401.748c-38.893 20.891-80.715 21.495-101.713 17.687-73.476-10.103-133.499-67.785-129.921-140.367 2.375-48.145 35.369-104.883 89.011-130.935 22.277-10.962 30.286-12.077 52.845-14.058-4.302.911-8.231 2.076-12.608 3.391-17.642 5.243-32.625 13.922-47.398 24.603-13.922 10.053-26.097 22.541-35.089 37.196-17.313 28.173-24.095 61.171-20.346 93.96 8.486 74.121 78.052 120.668 205.219 108.523z" fill="#eab4a9"/><path d="m431.55 273.501c-4.347-6.125-11.741-7.663-11.741-7.663 14.804 18.12 8.679 54.09 8.679 54.09-.023-.113-.938-4.739-3.21-10.141-.992-2.359-3.494-7.883-8.614-14.74-2.176-2.915-4.908-5.433-7.898-7.486.222-32.483-11.967-64.765-31.04-90.786-20.307-27.873-49.791-49.115-83.038-58.396-13.007-5.952-27.876-8.041-41.993-9.637-26.323-2.835-25.753-15.674-33.309-36.677-4.954-12.472-15.51-25.49-29.322-27.426 0 0 57.048-10.711 76.96 55.539 0 0 3.764-19.285 1.225-24.438.762.329 24.991 11.442 30.981 34.432 92.182 19.509 117.248 90.046 117.681 91.331-3.734-1.852-7.439-3.51-7.439-3.51 17.582 16.549 26.41 61.632 22.078 55.508z" fill="#384760"/><g fill="#2d3b51"><path d="m274.283 420.206c-7.469 7.872-14.057 14.116-14.057 14.116-3.406-2.734-9.247-9.381-12.757-13.549 3.256.209 6.543.299 9.844.299 5.722.001 11.383-.283 16.97-.866z"/><path d="m295.417 138.585c-7.227-1.813-21.718-5.647-39.4-5.156-27.559.765-48.052 8.593-67.117 18.253-50.593 25.636-82.748 81.42-85.014 127.346-3.017 61.201 39.018 112.543 97.709 132.784l-1.001 2.973c-5.497 9.247-6.035 20.928-6.035 20.928-34.208-7.648-53.418-43.932-53.418-43.932-2.27 7.708 2.465 24.14 2.465 24.14-56.242-38.659-49.056-98.501-49.056-98.501-7.723 5.139-11.935 22.213-11.935 22.213-10.591-28.98 9.366-70.911 9.859-71.956-8.529 6.199-13.101 18.209-13.101 18.209-.732-35.358 30.802-68.7 30.802-68.7-6.005.717-18.404 10.203-18.404 10.203 10.188-32.804 40.512-48.145 40.512-48.145s25.2-26.097 61.978-42.02c-1.718-7.902-4.571-17.717-8.574-21.122 0 0 16.297 5.587 23.243 12.832 0 0 .747-47.533-18.867-64.293 1.793 0 6.11.986 10.173 3.152 9.366 5.004 15.356 14.699 19.434 24.17 4.795 11.174 5.288 25.126 16.984 31.728 1.225.702 2.495 1.285 3.809 1.808 4.078 1.598 8.5 2.405 12.862 2.913 14.863 1.729 28.364 3.854 42.092 10.173z"/></g></g></g><g><path d="m248.299 396.558c-8.296-2.235-16.144-6.123-22.77-11.416-17.593-14.053-31.997-45.153-18.601-66.4 4.037-6.403 11.587-10.072 18.947-10.932 8.193-.958 15.8 3.001 23.649 4.648 5.845 1.227 11.977.821 17.724-.802 5.705-1.612 11.003-4.379 16.43-6.765s11.159-4.43 17.087-4.451c12.446-.046 22.441 11.264 25.21 22.7 3.283 13.558-.64 28.046-7.177 40.022-6.445 11.808-15.699 22.298-27.432 28.878-13.028 7.306-28.718 8.384-43.067 4.518z" fill="#ffb3a4"/><g fill="#3f261b"><path d="m268.08 368.222c-.306 0-.603-.16-.766-.444-1.546-2.713-3.985-4.871-6.869-6.074-.449-.187-.661-.703-.473-1.152.188-.447.699-.66 1.152-.473 3.24 1.352 5.982 3.777 7.721 6.826.241.422.093.96-.329 1.201-.138.079-.288.116-.436.116z"/><path d="m261.737 368.938c-.112 0-.227-.021-.337-.067-.449-.186-.662-.701-.476-1.15 1.168-2.821 3.296-5.165 5.991-6.601.427-.228.961-.066 1.191.363.229.43.066.963-.363 1.191-2.303 1.227-4.195 3.312-5.193 5.721-.14.339-.468.543-.813.543z"/></g></g><g><path d="m215.108 361.79c10.042-5.015 7.794-23.74 6.924-32.616-1.316-13.431-3.928-29.388-14.141-39.073-5.518-5.233-13.464-8.171-20.914-6.643-5.777 1.185-10.947 5.049-13.718 10.255-4.21 7.909-1.528 15.925 1.335 23.686 4.852 13.152 19.958 54.656 40.514 44.391z" fill="#ffcdc0"/><path d="m210 364.094c-2.147.126-4.319-.28-6.5-1.217-18.53-7.964-32.069-51.775-32.637-53.636-.142-.465.12-.957.585-1.099.462-.14.957.12 1.099.585.137.448 13.866 44.891 31.648 52.532 3.618 1.555 7.058 1.469 10.519-.257 13.426-6.706 3.504-50.384 3.403-50.825-.11-.474.186-.947.659-1.056.486-.101.947.186 1.056.659.428 1.853 10.326 45.476-4.332 52.796-1.806.904-3.643 1.41-5.5 1.518z" fill="#3f261b"/></g><g><path d="m316.196 362.513c11.149 1.3 19.518-15.601 23.648-23.505 6.25-11.961 12.8-26.744 9.554-40.439-1.754-7.4-6.796-14.208-13.866-17.008-5.483-2.171-11.926-1.767-17.094 1.073-7.853 4.314-9.996 12.491-11.848 20.553-3.138 13.662-13.215 56.665 9.606 59.326z" fill="#ffcdc0"/><path d="m308.908 293.692c.04.006.078.015.117.026.467.136.736.625.6 1.091-.131.45-12.969 45.159-2.27 61.288 2.177 3.283 5.11 5.096 8.943 5.543 14.907 1.737 30.514-40.247 30.669-40.672.168-.457.677-.689 1.13-.523.457.168.691.673.523 1.13-.656 1.785-16.252 43.71-32.526 41.813-4.33-.498-7.761-2.63-10.207-6.319-11.148-16.808 1.503-60.884 2.047-62.753.124-.427.545-.688.974-.624z" fill="#3f261b"/></g><g id="XMLID_00000051354891935976652180000006390212180524399753_"><g><path d="m269.835 216.528c-1.434 4.466-3.421 8.186-5.213 10.979l-.12-.06c-.777-8.664-.538-16.566.03-21.959 1.001-9.71 6.916-7.469 6.916-7.469l.209-.03c1.076 5.573.135 12.534-1.822 18.539z" fill="#280f07"/><path d="m271.657 197.99-.209.03s-5.915-2.241-6.916 7.469c-.568 5.393-.807 13.295-.03 21.959l.12.06c-1.359 2.106-2.599 3.69-3.391 4.631.06 3.436.209 8.425.508 12.697v.045c.015.284.045.568.06.837.732 9.68 1.539 14.699 2.315 18.672.403 2.061 1.942 7.32 3.824 10.696.075.149.12.284.12.433 0 .314-.164.612-.463.777-.418.224-.956.075-1.195-.344-1.972-3.555-3.6-9.067-4.018-11.233-.373-1.897-.747-4.048-1.12-6.827-.418 5.064-1.001 8.694-1.165 9.739-.358 2.166-1.822 7.723-3.72 11.338-.224.433-.747.597-1.18.373s-.598-.747-.373-1.18c1.807-3.451 3.197-8.739 3.54-10.815.299-1.793 1.778-11.263 1.613-22.452v-.209c-.045-3.152-.239-8.306-.493-12.443-.762-.881-2.017-2.405-3.436-4.451 0 0 2.793-24.02-1.479-28.203s-6.603 1.09-6.603 1.09c.971-7.006 4.735-12.757 11.995-12.891 7.051-.135 10.546 4.227 11.696 10.202z" fill="#3f261b"/><path d="m256.047 227.792c-2.226-3.167-4.825-7.603-6.647-12.921-1.539-4.451-2.091-9.605-1.434-14.191 0 0 2.33-5.273 6.603-1.09 4.272 4.181 1.478 28.202 1.478 28.202z" fill="#280f07"/></g></g><path d="m193.428 221.569c0-10 8.414-18.117 18.795-18.117 10.379 0 18.793 8.116 18.793 18.117 0 10.018-8.414 18.117-18.793 18.117-10.381 0-18.795-8.099-18.795-18.117z" fill="#3f261b"/><path d="m326.38 217.026c0 10-8.414 18.117-18.795 18.117-10.379 0-18.793-8.116-18.793-18.117 0-10.018 8.414-18.134 18.793-18.134 10.381 0 18.795 8.117 18.795 18.134z" fill="#3f261b"/><path d="m210.047 246.907c-2.682-1.206-6.295-1.162-9.194-1.416-5.423-.476-10.126-4.291-12.176-9.452-.859-2.2-.637-4.336.55-6.272 4.999-8.149 14.94 4.083 20.984 5.188 9.718 1.788 14.764-4.246 19.33-2.663 4.685 1.635 4.087 6.224 1.101 8.606-3.052 2.436-6.643 4.445-7.052 8.715-.247 2.579.73 5.115.884 7.678.171 2.836-.164 5.703-.999 8.419-.826 2.683-2.51 5.272-5.549 5.533-2.778.239-5.415-1.633-6.336-4.22-1.051-2.952-.362-6.247.787-9.163.717-1.819 1.629-3.682 1.422-5.627-.303-2.868-1.774-4.437-3.752-5.326z" fill="#50a1ea" opacity=".48"/><g fill="#fff"><ellipse cx="216.598" cy="215.887" rx="9.622" ry="10.04" transform="matrix(.352 -.936 .936 .352 -61.726 342.605)"/><ellipse cx="209.833" cy="230.136" rx="3.429" ry="3.579" transform="matrix(.352 -.936 .936 .352 -79.447 345.502)"/><ellipse cx="310.852" cy="211.877" rx="9.622" ry="10.04" transform="matrix(.352 -.936 .936 .352 3.097 428.227)"/><ellipse cx="304.088" cy="226.125" rx="3.429" ry="3.579" transform="matrix(.352 -.936 .936 .352 -14.625 431.123)"/><path d="m192.752 231.901c.196-.129.403-.235.623-.319-.119.045-.238.09-.357.136.267-.099.543-.163.826-.195-.127.014-.253.027-.38.041.301-.03.602-.023.901.02-.128-.019-.255-.039-.383-.058.298.047.587.13.864.25-.122-.054-.244-.108-.366-.162.26.117.502.264.723.443-.104-.084-.207-.169-.311-.253.013.011.026.021.039.032.137.157.301.268.494.334.174.096.363.143.566.139.359.007.797-.141 1.052-.402.274-.28.483-.656.473-1.06-.008-.361-.112-.809-.402-1.052-.237-.198-.472-.4-.739-.558-.258-.152-.538-.271-.815-.381-.45-.178-.95-.26-1.431-.292-.947-.062-1.991.181-2.787.704-.342.225-.613.496-.73.902-.1.345-.068.805.118 1.12.2.337.51.635.902.73.359.086.8.091 1.12-.119z"/><path d="m215.491 239.735c1.619-.153 3.208-.44 4.755-.947.636-.209 1.256-.461 1.884-.693.566-.209 1.29-.316 1.792-.623-.03-.002-.061-.003-.091-.002.097-.016.187-.006.284-.006.781-.007 1.544-.639 1.525-1.462-.056-2.508-3.126-1.196-4.338-.595-1.133.562-2.445.905-3.695 1.087-.952.138-2.344-.056-3.105.656-.271.253-.482.682-.473 1.06.017.733.63 1.604 1.462 1.525z"/></g><g id="XMLID_00000031180841195126982830000015787795744245182388_"><g><g><path d="m248.829 426.134c1.219 8.365-6.24 14.968-12.682 17.806-14.878 6.528-32.488 3.107-46.321-4.944-14.811-8.619-29.809-25.514-23.823-45.74 2.277-7.693 7.499-14.206 14.021-17.731l.094.209c-4.861 7.783-4.647 17.477-1.915 26.455 6.615 21.705 26.837 35.597 46.884 36.762 7.9.448 21.639-2.331 23.742-12.817z" fill="#eab4a9"/></g><g><path d="m248.28 423.803c.254.792.442 1.568.549 2.33-2.102 10.486-15.842 13.265-23.743 12.817-20.047-1.165-40.268-15.057-46.884-36.762-2.732-8.978-2.946-18.672 1.915-26.455l-.094-.209c1.232-.687 2.518-1.24 3.83-1.688 4.66-1.568 9.762-1.703 14.356.075 5.156 1.972 10.151 5.333 12.95 10.711 3.04 5.811 1.942 12.921 5.29 18.433 2.625 4.317 8.008 6.408 12.414 7.424 1.419.329 2.879.508 4.299.837 2.451.553 4.955 1.524 7.231 2.913 3.508 2.165 6.481 5.332 7.887 9.574z" fill="#ffcdc0"/></g></g></g><g><path d="m219.585 447.964c-10.168.001-21.273-2.875-30.945-8.37-14.051-7.983-22.718-19.82-24.404-33.33-1.257-10.074 2.403-20.631 9.323-26.896.357-.324.916-.298 1.243.062s.299.917-.061 1.244c-6.508 5.892-9.946 15.851-8.757 25.373 1.615 12.945 9.971 24.315 23.526 32.017 15.072 8.562 33.67 10.597 46.283 5.066 5.422-2.379 14.839-9.42 11.653-19.049-2.321-7.012-8.115-9.713-12.566-10.744-5.8-1.344-12.436-3.341-17.675-7.972-1.062-.939-4.432-4.293-3.16-7.998.159-.459.658-.703 1.119-.547.46.158.705.659.547 1.119-.729 2.124.896 4.547 2.661 6.107 4.944 4.369 11.32 6.281 16.904 7.575 4.891 1.133 11.263 4.117 13.841 11.907 3.113 9.409-4.359 17.592-12.619 21.214-4.939 2.167-10.754 3.222-16.913 3.222z" fill="#3f261b"/></g><g id="XMLID_00000093881567007159050230000002282514381228459176_"><g><g><path d="m268.936 426.134c-1.276 8.365 6.537 14.968 13.284 17.806 15.585 6.528 34.031 3.107 48.521-4.944 15.514-8.619 31.225-25.514 24.955-45.74-.659-2.121-1.557-4.153-2.651-6.05l-.154.09c3.282 12.623-2.693 24.618-11.334 32.998-11.18 10.845-26.442 16.984-41.367 18.493-9.819.97-28.462.582-31.254-12.653z" fill="#eab4a9"/></g><g><path d="m269.512 423.803c-.267.792-.463 1.568-.575 2.33 2.791 13.235 21.434 13.623 31.253 12.652 14.925-1.509 30.187-7.648 41.367-18.493 8.641-8.38 14.617-20.375 11.334-32.998l.154-.09c-3.605-6.319-9.384-11.218-16.048-13.37-4.882-1.568-10.226-1.703-15.038.075-5.401 1.972-10.633 5.333-13.565 10.711-3.184 5.811-2.034 12.921-5.541 18.433-2.749 4.317-8.388 6.408-13.004 7.424-1.487.329-3.016.508-4.503.837-2.567.553-5.19 1.524-7.575 2.913-3.672 2.167-6.786 5.334-8.259 9.576z" fill="#ffcdc0"/></g></g></g><g><path d="m299.646 448.001c-6.441 0-12.535-1.064-17.764-3.253-8.648-3.621-16.468-11.81-13.203-21.231 2.699-7.786 9.36-10.767 14.473-11.896 5.857-1.296 12.546-3.211 17.733-7.586 1.845-1.557 3.546-3.972 2.788-6.082-.165-.457.073-.961.531-1.126.452-.163.961.072 1.126.531 1.339 3.724-2.195 7.082-3.31 8.023-5.479 4.623-12.42 6.618-18.489 7.96-4.674 1.034-10.756 3.738-13.189 10.754-3.33 9.612 6.537 16.651 12.22 19.031 13.772 5.764 33.845 3.413 49.949-5.853 13.365-7.691 21.621-18.782 23.249-31.23 1.244-9.512-2.356-19.464-9.173-25.355-.368-.318-.407-.874-.09-1.241.321-.368.877-.407 1.243-.09 7.252 6.268 11.085 16.832 9.765 26.915-1.699 13.005-10.264 24.557-24.115 32.528-10.482 6.03-22.628 9.201-33.744 9.201z" fill="#3f261b"/></g><path d="m229.224 170.181c-.511-.968-1.884-1.567-2.791-1.831-4.461-1.25-6.405 8.011-11.124 12.219-3.014 2.694-6.639 4.419-9.671 6.638-2.039 1.497-3.127 4.402-.065 6.021 7.782 4.085 20.179-4.719 23.168-12.113 1.733-4.278 2.459-7.148.483-10.934z" fill="#384760"/><path d="m289.049 164.213c.511-.986 1.886-1.585 2.791-1.831 4.461-1.268 6.405 7.993 11.124 12.201 3.014 2.694 6.639 4.437 9.673 6.655 2.037 1.497 3.125 4.384.063 6.004-7.782 4.102-20.179-4.719-23.166-12.096-1.735-4.295-2.461-7.148-.485-10.933z" fill="#384760"/><path d="m219.998 257.722c-.058 2.703-.469 5.399-1.219 7.997-.2.694-.377 1.565.171 2.035.419.359 1.091.261 1.526-.08.434-.341.681-.862.891-1.373.851-2.077 1.322-4.309 1.384-6.553.034-1.228.094-3.857-1.052-4.674-1.609-1.147-1.684 1.856-1.701 2.648z" fill="#fff"/><path d="m316.62 246.551c1.234-3.071 4.37-3.435 7.461-4.752 3.687-1.571 6.604-4.709 8.077-8.418.859-2.2.637-4.336-.55-6.272-4.999-8.149-14.94 4.083-20.984 5.188-9.718 1.788-14.764-4.246-19.33-2.663-2.707.938-4.085 3.663-2.865 6.327 1.354 2.957 4.995 5.235 7.835 6.512 4.554 2.048 9.314 2.175 9.571 8.42.104 2.537-.59 5.032-.879 7.555s-.1 5.289 1.5 7.261c2.128 2.623 6.61 2.819 8.959.393 2.138-2.208 2.269-5.667 1.786-8.702-.482-3.035-1.447-6.075-1.024-9.118.092-.66.242-1.231.443-1.731z" fill="#50a1ea" opacity=".48"/><path d="m328.084 229.242c-.196-.129-.403-.235-.623-.319.119.045.238.09.357.136-.267-.099-.543-.163-.826-.195.127.014.253.027.38.041-.301-.03-.602-.023-.901.02.128-.019.255-.039.383-.058-.298.047-.587.13-.864.25.122-.054.244-.108.366-.162-.26.117-.502.264-.723.443.104-.084.207-.169.311-.253-.013.011-.026.022-.039.032-.137.157-.301.268-.494.334-.174.096-.363.143-.566.139-.359.007-.797-.141-1.052-.402-.274-.28-.483-.656-.473-1.06.008-.361.112-.809.402-1.052.237-.198.472-.4.739-.558.258-.152.538-.271.815-.381.45-.178.95-.26 1.431-.292.947-.062 1.991.181 2.787.704.342.225.613.496.73.902.1.345.068.805-.118 1.12-.2.337-.51.635-.902.73-.359.086-.8.092-1.12-.119z" fill="#fff"/><path d="m313.97 254.874c-1.665.562-.618 5.008-.625 6.199-.004.722.062 1.609.717 1.912.501.232 1.121-.045 1.447-.491s.422-1.015.485-1.563c.157-1.372.76-5.988-1.563-6.114-.173-.009-.326.011-.461.057z" fill="#fff"/><path d="m295.928 231.694c2.108.473 4.564.938 6.394 2.135.158.103.316.218.412.379.817 1.364-2.847 1.386-3.305 1.376-2.079-.044-4.179-.264-6.147-.971-.529-.19-1.063-.426-1.441-.843-2.114-2.329 2.935-2.335 4.087-2.076z" fill="#fff"/><path d="m305.983 282.264c-.295 2.018-.465 4.118.148 6.064s2.172 3.713 4.188 4.019c1.685.256 3.409-.555 4.574-1.799s1.84-2.871 2.289-4.515c1.057-3.871.968-8.048-.254-11.871-.515-1.611-1.318-3.263-2.794-4.091-6.046-3.393-7.691 9.041-8.151 12.193z" fill="#50a1ea" opacity=".48"/><path d="m313.927 279.379c-.058 2.703-.469 5.399-1.219 7.997-.2.694-.377 1.565.172 2.035.419.359 1.091.261 1.526-.08.434-.341.681-.862.891-1.373.851-2.077 1.322-4.309 1.384-6.553.034-1.228.094-3.857-1.052-4.674-1.61-1.147-1.685 1.856-1.702 2.648z" fill="#fff"/></g></svg>