<svg height="512" viewBox="0 0 512 512" width="512" xmlns="http://www.w3.org/2000/svg"><g id="Hot_Deal" data-name="Hot Deal"><path d="m383.5 212.22-43.5-66.52a12.54 12.54 0 0 0 -7.93-5.42l-92.14-19.28a10.88 10.88 0 0 0 -8.22 1.55l-66.9 43.7a10.88 10.88 0 0 0 -4.7 6.88l-2.63 12.52-50.68 241.63a8.28 8.28 0 0 0 6.4 9.8l208.62 43.74a8.26 8.26 0 0 0 9.79-6.4l50.68-241.68 2.63-12.51v-.22a10.34 10.34 0 0 0 -1.42-7.79zm-108.13-29.22a20.83 20.83 0 1 1 24.63-16.1 20.83 20.83 0 0 1 -24.63 16.1z" fill="#ffb833"/><path d="m288.68 145.32a7.21 7.21 0 0 1 -1.45-.15l-7.52-1.58a7 7 0 0 1 -5.41-8.28l.57-2.74a7 7 0 0 1 8.29-5.42l7.52 1.58a7 7 0 0 1 5.41 8.29l-.57 2.74a7 7 0 0 1 -6.84 5.56zm-7-15.32a4 4 0 0 0 -3.91 3.18l-.57 2.74a4 4 0 0 0 3.09 4.74l7.52 1.57a4 4 0 0 0 4.73-3.09l.58-2.74a4 4 0 0 0 -3.1-4.73l-7.51-1.58a4 4 0 0 0 -.79-.09z" fill="#ff1a26"/><path d="m293.77 134.74a2.47 2.47 0 0 1 -1.28-.35 2.51 2.51 0 0 1 -.87-3.43c28-47.05 33.1-83.69 23.72-94.27-3.51-4-9.16-4.25-16.81-.87-15.58 6.89-18.28 31.32-17.81 50.6a239 239 0 0 0 5.13 41.76 2.5 2.5 0 0 1 -4.85 1.12c-.77-3.38-18.6-83 15.54-98.06 12.28-5.43 19.05-1.83 22.57 2.13 6 6.8 7.18 20.3 3.24 38-4.11 18.5-13.24 40-26.4 62.13a2.51 2.51 0 0 1 -2.18 1.24z" fill="#ff1a26"/><circle cx="242.69" cy="348.41" fill="#ff1a26" r="80.4"/><path d="m162.29 347.22s-5.66-32.06 12.46-59.43 7.68-43.79 7.68-43.79 26.43-2.93 36.8 17.33c0 0 12.49-32 38.47-33.87s37.3-18.35 37.3-18.35 7.14 25.74-12.83 36.56-.23 25.73-.23 25.73 29.95 3.2 38.43-18.87c0 0 3.25 26.81-3.62 39.26s13.06 22.62 6.13 62.79z" fill="#ff1a26"/><path d="m220 329a25.32 25.32 0 1 1 30.15-20.5 25.32 25.32 0 0 1 -29.22 20.67zm7.5-35.66-.41-.08a11.13 11.13 0 1 0 9.08 12.85 11.12 11.12 0 0 0 -8.67-12.77z" fill="#383333"/><path d="m253.13 407a25.26 25.26 0 1 1 .94.18zm7.5-35.66-.41-.08a11.13 11.13 0 1 0 4.55 20.05 11 11 0 0 0 4.54-7.2 11.15 11.15 0 0 0 -8.68-12.79z" fill="#383333"/><path d="m198.32 393.91a7.1 7.1 0 0 1 -3.64-11.91l85-88.17a7.1 7.1 0 0 1 10.22 9.85l-85 88.17a7.11 7.11 0 0 1 -6.58 2.06z" fill="#383333"/><g fill="#fff"><path d="m222.64 142.17a2.5 2.5 0 0 1 -1.63-4.4l15.57-13.36a2.52 2.52 0 0 1 2.14-.55l14.61 3.07a2.5 2.5 0 1 1 -1 4.89l-13.42-2.82-14.64 12.56a2.51 2.51 0 0 1 -1.63.61z"/><path d="m150.57 264.29a2.35 2.35 0 0 1 -.52-.05 2.49 2.49 0 0 1 -1.93-3l8-38a2.5 2.5 0 0 1 4.9 1l-8 38a2.5 2.5 0 0 1 -2.45 2.05z"/><path d="m357.47 192.08a2.51 2.51 0 0 1 -2.12-1.16l-13.48-21.27a2.5 2.5 0 1 1 4.22-2.68l13.49 21.27a2.5 2.5 0 0 1 -.78 3.45 2.39 2.39 0 0 1 -1.33.39z"/><path d="m343.17 357.35a2.22 2.22 0 0 1 -.51-.06 2.5 2.5 0 0 1 -1.94-3l8.22-39.17a2.5 2.5 0 1 1 4.89 1l-8.21 39.18a2.51 2.51 0 0 1 -2.45 2.05z"/><path d="m128.15 433.79a3.15 3.15 0 0 1 -.52-.05l-13.25-2.74a2.51 2.51 0 0 1 -1.93-3l5-23.71a2.5 2.5 0 0 1 4.89 1l-4.45 21.26 10.8 2.26a2.5 2.5 0 0 1 -.51 5z"/><path d="m318.76 473.76a3.15 3.15 0 0 1 -.52-.05l-22.76-4.78a2.5 2.5 0 0 1 1-4.89l22.77 4.77a2.5 2.5 0 0 1 -.51 4.95z"/><path d="m356.26 294.18c-4.57-1-5.37 6.25-.83 7.2s5.37-6.25.83-7.2z"/><path d="m368.81 203.88c-4.56-1-5.37 6.25-.83 7.2s5.37-6.25.83-7.2z"/><path d="m329 150.13c-4.56-1-5.37 6.25-.82 7.2s5.36-6.25.82-7.2z"/><path d="m206.2 147.08c-4.56-1-5.37 6.25-.82 7.2s5.36-6.28.82-7.2z"/><path d="m164.16 202.11c-4.56-1-5.37 6.25-.83 7.2s5.37-6.25.83-7.2z"/><path d="m147.38 278.75c-4.57-.95-5.37 6.25-.83 7.21s5.37-6.25.83-7.21z"/><path d="m125.72 382c-4.57-1-5.37 6.25-.83 7.21s5.37-6.21.83-7.21z"/><path d="m143.92 430.55c-4.56-.95-5.37 6.25-.82 7.21s5.36-6.25.82-7.21z"/><path d="m275.61 458.88c-4.56-1-5.37 6.25-.83 7.2s5.37-6.25.83-7.2z"/><path d="m208.66 262.32a2.49 2.49 0 0 1 -2.27-1.46c-2.18-4.77-10-8.06-12.84-8.93a2.5 2.5 0 0 1 1.46-4.79c.5.16 12.37 3.85 15.93 11.65a2.5 2.5 0 0 1 -1.24 3.31 2.56 2.56 0 0 1 -1.04.22z"/><path d="m246.37 238a2.5 2.5 0 0 1 -1.4-4.58 29.16 29.16 0 0 1 21-3.46 2.5 2.5 0 0 1 -1 4.9 24.13 24.13 0 0 0 -17.18 2.72 2.56 2.56 0 0 1 -1.42.42z"/><path d="m298.27 277.34h-.27a2.49 2.49 0 0 1 -2.45-2.54 2.52 2.52 0 0 1 2.54-2.46h.18c6.22 0 12.51-5.95 12.58-6a2.5 2.5 0 0 1 3.46 3.61c-.31.29-7.79 7.39-16.04 7.39z"/><path d="m214.54 266.77c-4.57-1-5.37 6.25-.83 7.2s5.37-6.25.83-7.2z"/><path d="m278.39 226.15c-4.57-1-5.37 6.25-.83 7.2s5.37-6.25.83-7.2z"/><path d="m288 274.19c-4.56-1-5.37 6.25-.83 7.2s5.37-6.25.83-7.2z"/></g><path d="m210.63 78.72s9.83 1 9.5 2.24-9.63 3-10.09 3.7-2.1 10.81-4 11.15-2.04-11.15-3.52-11.42-11.18-1.11-11.08-2.78 10.29-3.22 10.95-3.75 1.17-10 3-10.42 5.24 11.28 5.24 11.28z" fill="#ffb833"/><path d="m103.06 290.48s12.24 1.23 11.83 2.79-12 3.7-12.57 4.6-2.62 13.46-4.93 13.88-2.62-13.88-4.39-14.21-13.92-1.39-13.8-3.46 12.81-4 13.64-4.67 1.45-12.45 3.77-13 6.45 14.07 6.45 14.07z" fill="#ffb833"/><path d="m421 135.1s12.24 1.23 11.83 2.79-12 3.7-12.57 4.6-2.62 13.46-4.92 13.88-2.63-13.88-4.44-14.21-13.91-1.39-13.8-3.46 12.82-4 13.64-4.67 1.45-12.45 3.77-13 6.49 14.07 6.49 14.07z" fill="#ffb833"/></g></svg>