<?xml version="1.0" encoding="UTF-8"?>
<!-- Generator: Adobe Illustrator 26.0.2, SVG Export Plug-In . SVG Version: 6.00 Build 0)  -->
<svg xmlns="http://www.w3.org/2000/svg" xmlns:xlink="http://www.w3.org/1999/xlink" version="1.1" id="Capa_1" x="0px" y="0px" viewBox="0 0 512 512" style="enable-background:new 0 0 512 512;" xml:space="preserve" width="512" height="512">
<g>
	<g>
		<g>
			<g>
				<g>
					<polyline style="fill:#FFD93B;" points="76.062,467.529 55.946,143.168 469.886,138.452 434.368,467.529      "/>
				</g>
				<g style="opacity:0.4;">
					<polyline style="fill:#FFFFFF;" points="64.118,274.94 55.946,143.168 469.886,138.452 455.833,268.621      "/>
				</g>
				<g>
					<polygon style="fill:#964E59;" points="60.033,267.633 460.03,260.088 456.604,276.825 61.761,282.097      "/>
				</g>
			</g>
			<g>
				<g>
					<polygon style="fill:#FF6F43;" points="303.478,456.408 293.176,286.289 405.539,286.289 391.012,457.037      "/>
				</g>
				<g>
					<path style="fill:#233D4D;" d="M390.666,372.609h-84.698l-5.154-78.436l0.983-0.025l97.569-2.226L390.666,372.609z        M307.732,370.722h81.237l8.292-76.863l-94.438,2.153L307.732,370.722z"/>
				</g>
				<g>
					<path style="fill:#233D4D;" d="M386.952,452.579l-0.917-0.017l-77.283-1.593l-1.081-59.64l82.518-5.468L386.952,452.579z        M310.605,449.121l74.553,1.536l3.045-62.776l-78.615,5.213L310.605,449.121z"/>
				</g>
				<g>
					<polygon style="fill:#FFD93B;" points="311.564,388.756 305.437,389.54 306.378,379.326 309.512,379.326      "/>
				</g>
				<g>
					<path style="fill:#FFD93B;" d="M314.078,378.459c0,2.303-2.745,4.168-6.129,4.168c-3.384,0-6.129-1.865-6.129-4.168       c0-2.295,2.745-4.163,6.129-4.163C311.333,374.295,314.078,376.163,314.078,378.459z"/>
				</g>
			</g>
			<g>
				<g>
					<polygon style="fill:#18B5B1;" points="225.826,249.009 228.891,160.141 97.355,167.45 104.192,251.602      "/>
				</g>
				<g style="opacity:0.4;">
					<path style="fill:#FFFFFF;" d="M97.355,167.45l29.31-2.281c0,0-3.173,33.311-14.655,53.744c0,0,14.026,16.661,14.655,30.49       l-21.059,2.168L97.355,167.45z"/>
				</g>
				<g style="opacity:0.4;">
					<path style="fill:#FFFFFF;" d="M195.499,161.556l34.257-1.416l-3.93,88.869h-19.954c0,0-1.428-18.722,11.627-32.611       C217.5,216.399,192.038,189.999,195.499,161.556z"/>
				</g>
				<g>
					<path style="fill:#964E59;" d="M228.593,239.768l4.306-81.827l-140.177,6.284l8.543,82.213l-8.543,0.45l5.028,13.2       l135.149-5.658l3.77-15.085L228.593,239.768z M223.11,240.056l-53.7,2.814v-76.443l57.204-3.458L223.11,240.056z        M101.835,170.512l57.954-3.505l4.402,76.136l-57.101,2.991L101.835,170.512z"/>
				</g>
			</g>
			<g>
				<g>
					<polygon style="fill:#18B5B1;" points="285.23,161.556 287.113,246.652 408.515,243.585 417.471,161.556      "/>
				</g>
				<g style="opacity:0.4;">
					<path style="fill:#FFFFFF;" d="M283.738,161.556h28.364c0,0,2.042,34.22-16.972,51.073c0,0,13.202,11.47,10.845,36.38       l-18.703-4.637L283.738,161.556z"/>
				</g>
				<g style="opacity:0.4;">
					<path style="fill:#FFFFFF;" d="M378.188,161.556h39.283l-8.906,85.096l-20.399,2.357c0,0,0.757-20.62,14.458-34.178       C402.625,214.831,376.379,184.656,378.188,161.556z"/>
				</g>
				<g>
					<path style="fill:#964E59;" d="M420.873,159.504l-140.312-1.563l3.935,82.53h-6.65l2.374,13.463l135.948-0.32l2.173-13.144       h-6.292L420.873,159.504z M406.554,240.471h-53.808l4.261-76.047l57.308-0.256L406.554,240.471z M289.31,164.727l58.06-0.258       l0.133,76.003h-57.177L289.31,164.727z"/>
				</g>
			</g>
			<g>
				<g>
					<path style="fill:#18B5B1;" d="M230.272,387.459H102.167c0,0-8.022-83.725,59.856-91.557h0.683       C162.706,295.901,235.868,294.594,230.272,387.459z"/>
				</g>
				<g style="opacity:0.4;">
					<polygon style="fill:#FFFFFF;" points="105.605,342.707 101.872,371.036 103.405,388.166 150.158,386.439 150.158,369.859        124.937,371.666 126.665,339.291      "/>
				</g>
				<g style="opacity:0.4;">
					<path style="fill:#FFFFFF;" d="M175.38,387.616l-2.121-41.488l20.981-4.792l-0.946,28.524l16.267,1.177l-10.135-64.98       l13.043,6.127c0,0,24.673,45.184,16.422,75.983L175.38,387.616z"/>
				</g>
				<g>
					<path style="fill:#964E59;" d="M231.285,382.214c2.325-19.718,6.009-91.739-64.848-88.303       c-72.628,3.524-69.475,73.852-67.794,89.96l-3.564,0.047l2.959,7.707l134.2-1.244l2.077-8.203L231.285,382.214z        M208.699,319.991l-39.949,2.917l-0.516-23.888C187.268,300.315,200.085,308.797,208.699,319.991z M157.386,299.123       l2.445,24.434l-42.611,3.102C124.77,312.53,137.149,301.003,157.386,299.123z M115.391,330.325l45.012-1.012l5.377,53.719       l-60.136,0.754C105.458,375.023,105.92,350.707,115.391,330.325z M226.207,382.275l-56.152,0.705l-1.167-53.86l45.117-1.022       C225.182,348.203,226.244,372.892,226.207,382.275z"/>
				</g>
			</g>
		</g>
		<g>
			<g>
				<g>
					<polygon style="fill:#233D4D;" points="43.372,139.708 271.086,30.327 481.513,139.708      "/>
				</g>
				<g style="opacity:0.2;">
					<path style="fill:#FFFFFF;" d="M195.265,88.018c-5.495,0-8.324-7.194-8.452-7.528l2.406-0.927       c0.027,0.069,2.718,6.803,7.012,5.758c1.285-0.307,2.182-0.885,2.669-1.715c0.823-1.408,0.325-3.197,0.32-3.215l-1.224-4.269       l3.318,2.942c0.054,0.052,5.613,4.933,9.875,4.023c0.624-0.133,1.413-0.398,1.615-0.929c0.295-0.772-0.423-2.131-0.818-2.669       l-3.505-4.782l5.171,2.89c0.081,0.049,8.255,4.564,13.185,3.281c1.104-0.29,1.556-0.664,1.612-0.919       c0.135-0.59-0.838-1.841-1.595-2.477l1.661-1.971c0.501,0.423,2.984,2.652,2.45,5.016c-0.307,1.364-1.477,2.32-3.475,2.843       c-3.839,1.013-8.884-0.681-12.062-2.052c0.054,0.573,0.008,1.17-0.214,1.752c-0.339,0.895-1.219,2.062-3.495,2.539       c-3.583,0.772-7.459-1.28-9.845-2.888c-0.101,0.698-0.32,1.443-0.73,2.158c-0.855,1.479-2.305,2.472-4.316,2.949       C196.285,87.959,195.764,88.018,195.265,88.018z"/>
				</g>
				<g style="opacity:0.2;">
					<path style="fill:#FFFFFF;" d="M303.041,82.985c-5.493,0-8.319-7.196-8.447-7.528l2.408-0.924       c0.025,0.066,2.681,6.788,7.004,5.756c1.295-0.307,2.197-0.892,2.681-1.732c0.811-1.406,0.317-3.173,0.312-3.19l-1.305-4.353       l3.396,3.018c0.054,0.052,5.613,4.933,9.873,4.023c0.627-0.133,1.416-0.4,1.617-0.931c0.295-0.777-0.437-2.155-0.816-2.664       l-3.596-4.834l5.259,2.939c0.081,0.047,8.253,4.559,13.183,3.281c1.104-0.29,1.558-0.664,1.615-0.919       c0.128-0.553-0.74-1.75-1.597-2.477l1.664-1.971c0.501,0.423,2.981,2.652,2.45,5.016c-0.31,1.364-1.48,2.32-3.477,2.843       c-3.839,1.013-8.884-0.681-12.06-2.052c0.054,0.573,0.007,1.17-0.214,1.752c-0.339,0.895-1.221,2.062-3.497,2.539       c-3.588,0.772-7.459-1.28-9.843-2.885c-0.101,0.696-0.317,1.44-0.73,2.153c-0.853,1.482-2.305,2.475-4.318,2.952       C304.061,82.926,303.539,82.985,303.041,82.985z"/>
				</g>
				<g style="opacity:0.2;">
					<path style="fill:#FFFFFF;" d="M341.07,102.155c-5.495,0-8.322-7.198-8.449-7.53l2.408-0.924       c0.025,0.066,2.691,6.798,7.007,5.758c1.288-0.307,2.187-0.885,2.674-1.72c0.821-1.406,0.32-3.192,0.315-3.212l-1.234-4.279       l3.328,2.952c0.056,0.049,5.601,4.928,9.875,4.026c0.627-0.133,1.416-0.401,1.617-0.931c0.295-0.779-0.438-2.158-0.818-2.667       l-3.601-4.839l5.264,2.944c0.081,0.047,8.253,4.564,13.183,3.283c1.104-0.29,1.558-0.666,1.617-0.919       c0.125-0.555-0.74-1.752-1.595-2.477l1.661-1.971c0.501,0.423,2.981,2.649,2.448,5.014c-0.307,1.364-1.477,2.322-3.478,2.846       c-3.839,1.013-8.882-0.681-12.059-2.052c0.056,0.573,0.007,1.17-0.211,1.75c-0.339,0.895-1.222,2.062-3.497,2.541       c-3.573,0.764-7.457-1.278-9.843-2.888c-0.101,0.696-0.317,1.438-0.73,2.15c-0.853,1.485-2.305,2.477-4.32,2.957       C342.09,102.096,341.569,102.155,341.07,102.155z"/>
				</g>
				<g style="opacity:0.2;">
					<path style="fill:#FFFFFF;" d="M160.31,112.381c-5.493,0-8.319-7.194-8.447-7.525l2.406-0.924       c0.027,0.066,2.726,6.79,7.007,5.753c1.295-0.31,2.197-0.892,2.681-1.735c0.809-1.403,0.315-3.168,0.31-3.185l-1.307-4.347       l3.396,3.013c0.057,0.049,5.618,4.913,9.88,4.021c0.627-0.133,1.413-0.401,1.615-0.931c0.295-0.777-0.437-2.158-0.816-2.667       l-3.593-4.834l5.257,2.939c0.081,0.047,8.26,4.571,13.185,3.286c1.101-0.29,1.556-0.666,1.612-0.922       c0.135-0.592-0.838-1.843-1.595-2.48l1.661-1.971c0.501,0.423,2.981,2.652,2.45,5.016c-0.307,1.367-1.477,2.325-3.475,2.849       c-3.844,1.012-8.884-0.683-12.062-2.055c0.054,0.573,0.007,1.17-0.214,1.752c-0.339,0.894-1.222,2.062-3.495,2.539       c-3.568,0.747-7.457-1.278-9.848-2.885c-0.101,0.695-0.317,1.438-0.727,2.15c-0.853,1.482-2.305,2.475-4.316,2.954       C161.332,112.322,160.809,112.381,160.31,112.381z"/>
				</g>
				<g style="opacity:0.2;">
					<path style="fill:#FFFFFF;" d="M240.538,97.679c-6.154,0-12.232-6.68-12.509-6.99l1.917-1.725       c0.064,0.071,6.505,7.184,11.728,6.016c1.372-0.297,2.224-0.816,2.534-1.541c0.521-1.221-0.467-2.922-0.477-2.937l-4.856-7.906       l6.83,6.282c0.061,0.057,6.348,5.758,11.187,4.296c1.096-0.332,1.74-0.801,1.917-1.396c0.337-1.131-0.796-2.824-1.219-3.33       l1.969-1.664c0.258,0.305,2.509,3.06,1.725,5.719c-0.437,1.485-1.664,2.541-3.645,3.138c-3.839,1.158-8.002-0.826-10.715-2.603       c-0.039,0.465-0.145,0.941-0.344,1.413c-0.656,1.538-2.124,2.563-4.36,3.05C241.661,97.623,241.098,97.679,240.538,97.679z"/>
				</g>
				<g style="opacity:0.2;">
					<path style="fill:#FFFFFF;" d="M284.839,101.42c-6.152,0-12.232-6.68-12.509-6.989l1.917-1.725       c0.064,0.071,6.476,7.174,11.73,6.017c1.372-0.297,2.224-0.816,2.534-1.541c0.521-1.221-0.467-2.922-0.477-2.937l-4.864-7.916       l6.837,6.292c0.061,0.057,6.321,5.758,11.185,4.294c1.099-0.332,1.742-0.801,1.919-1.398c0.312-1.059-0.686-2.696-1.219-3.325       l1.966-1.666c0.258,0.305,2.509,3.062,1.725,5.722c-0.437,1.484-1.664,2.539-3.647,3.136c-3.836,1.172-7.997-0.823-10.71-2.598       c-0.04,0.462-0.145,0.939-0.344,1.408c-0.656,1.538-2.124,2.566-4.36,3.052C285.965,101.363,285.402,101.42,284.839,101.42z"/>
				</g>
			</g>
			<g>
				<polygon style="fill:#964E59;" points="482.769,146.626 43.372,152.281 36.147,134.994 488.114,134.994     "/>
			</g>
		</g>
	</g>
	<g>
		<polygon style="fill:#FFB07B;" points="29.703,447.73 463.913,447.73 512,477.9 0,481.673   "/>
	</g>
	<g>
		<g>
			<g>
				<g>
					<polygon style="fill:#233D4D;" points="48.718,417.24 40.544,360.036 265.589,351.864 262.915,413.468 255.999,412.841        261.187,358.151 46.518,364.752 52.176,417.24      "/>
				</g>
				<g>
					
						<rect x="58.146" y="353.198" transform="matrix(0.9932 -0.1168 0.1168 0.9932 -44.9424 9.6728)" style="fill:#233D4D;" width="3.771" height="69.94"/>
				</g>
				<g>
					
						<rect x="213.306" y="377.484" transform="matrix(0.0769 -0.997 0.997 0.0769 -149.488 597.27)" style="fill:#233D4D;" width="69.038" height="3.771"/>
				</g>
				<g>
					
						<rect x="155.895" y="348.7" transform="matrix(0.9993 -0.0367 0.0367 0.9993 -13.9512 6.0495)" style="fill:#233D4D;" width="3.772" height="68.563"/>
				</g>
				<g>
					
						<rect x="103.721" y="351.79" transform="matrix(0.9977 -0.0672 0.0672 0.9977 -25.6083 7.9679)" style="fill:#233D4D;" width="3.774" height="65.524"/>
				</g>
				<g>
					
						<rect x="173.809" y="379.369" transform="matrix(0.0144 -0.9999 0.9999 0.0144 -177.8329 582.105)" style="fill:#233D4D;" width="65.068" height="3.77"/>
				</g>
				<g>
					
						<rect x="79.519" y="353.177" transform="matrix(0.9919 -0.127 0.127 0.9919 -48.2796 13.4588)" style="fill:#233D4D;" width="3.771" height="64.324"/>
				</g>
				<g>
					
						<rect x="130.751" y="348.671" transform="matrix(0.9984 -0.056 0.056 0.9984 -21.1899 8.022)" style="fill:#233D4D;" width="3.771" height="67.364"/>
				</g>
				<g>
					
						<rect x="180.099" y="348.717" transform="matrix(0.9998 -0.0193 0.0193 0.9998 -7.3382 3.5903)" style="fill:#233D4D;" width="3.771" height="65.074"/>
				</g>
				<g>
					
						<rect x="194.388" y="378.581" transform="matrix(0.0248 -0.9997 0.9997 0.0248 -159.8078 597.1185)" style="fill:#233D4D;" width="63.506" height="3.771"/>
				</g>
			</g>
			<g>
				<polygon style="fill:#964E59;" points="268.729,401.054 268.729,457.629 46.088,457.629 40.544,405.768     "/>
			</g>
			<g>
				<path style="fill:#FFB07B;" d="M132.674,428.039l-0.074-1.258l-18.449,1.059l-0.162-8.231l15.191-0.754l-0.064-1.258      l-31.347,1.556l-0.32-5.557l-1.258,0.074l0.32,5.547l-26.54,1.317l0.064,1.258l12.795-0.637l0.472,8.457l-14.621,0.841      l0.074,1.258l28.582-1.642l0.506,8.764l1.258-0.074l-0.504-8.762L132.674,428.039z M84.086,421.094l28.644-1.423l0.162,8.243      l-28.334,1.627L84.086,421.094z"/>
			</g>
			<g>
				<path style="fill:#FFB07B;" d="M214.845,438.022l-12.399,0.381l-0.388-6.479l15.085-0.347l-0.029-1.258l-27.966,0.642      l-0.155-7.051l-1.258,0.029l0.155,7.051l-23.443,0.538l0.029,1.258l11.934-0.273l0.16,6.682l-10.428,0.319l0.04,1.258      l21.74-0.666l0.098,4.419l1.258-0.03l-0.098-4.429l25.705-0.789L214.845,438.022z M177.668,432.485l23.129-0.531l0.388,6.488      l-23.357,0.715L177.668,432.485z"/>
			</g>
		</g>
		<g>
			<g>
				<polygon style="fill:#233D4D;" points="352.454,457.629 355.475,347.148 271.086,344.953 274.19,457.629 276.744,457.629       275.331,349.35 350.137,349.977 349.257,457.629     "/>
			</g>
			<g>
				<polygon style="fill:#233D4D;" points="272.708,444.27 354.69,443.643 354.061,457.629 272.708,457.47     "/>
			</g>
			<g>
				<polygon style="fill:#233D4D;" points="271.086,399.167 354.69,397.596 354.69,406.24 272.03,407.024     "/>
			</g>
			<g>
				
					<rect x="282.638" y="339.257" transform="matrix(0.9994 -0.0346 0.0346 0.9994 -13.5285 10.079)" style="fill:#233D4D;" width="3.772" height="113.533"/>
			</g>
			<g>
				
					<rect x="285.456" y="395.16" transform="matrix(0.0196 -0.9998 0.9998 0.0196 -62.4647 730.3932)" style="fill:#233D4D;" width="111.442" height="3.771"/>
			</g>
			<g>
				
					<rect x="311.607" y="340.234" transform="matrix(1 -0.0037 0.0037 1 -1.4788 1.1737)" style="fill:#233D4D;" width="3.77" height="112.522"/>
			</g>
			<g>
				
					<rect x="296.78" y="340.219" transform="matrix(0.9997 -0.0239 0.0239 0.9997 -9.3967 7.2662)" style="fill:#233D4D;" width="3.771" height="111.452"/>
			</g>
			<g>
				
					<rect x="273.043" y="394.61" transform="matrix(0.0183 -0.9998 0.9998 0.0183 -74.2196 717.4012)" style="fill:#233D4D;" width="110.338" height="3.771"/>
			</g>
			<g>
				<path style="fill:#233D4D;" d="M346.6,374.728c0,2.042-1.939,3.694-4.321,3.694c-2.386,0-4.325-1.652-4.325-3.694      c0-2.037,1.939-3.691,4.325-3.691C344.661,371.036,346.6,372.69,346.6,374.728z"/>
			</g>
			<g>
				<path style="fill:#233D4D;" d="M333.557,374.728c0,2.042-1.937,3.694-4.318,3.694c-2.389,0-4.326-1.652-4.326-3.694      c0-2.037,1.937-3.691,4.326-3.691C331.621,371.036,333.557,372.69,333.557,374.728z"/>
			</g>
			<g>
				<path style="fill:#233D4D;" d="M317.602,375.36c0,2.035-1.934,3.691-4.318,3.691c-2.386,0-4.323-1.656-4.323-3.691      c0-2.042,1.937-3.694,4.323-3.694C315.668,371.666,317.602,373.317,317.602,375.36z"/>
			</g>
			<g>
				<path style="fill:#233D4D;" d="M302.362,374.728c0,2.042-1.939,3.694-4.321,3.694c-2.389,0-4.328-1.652-4.328-3.694      c0-2.037,1.939-3.691,4.328-3.691C300.423,371.036,302.362,372.69,302.362,374.728z"/>
			</g>
			<g>
				<path style="fill:#233D4D;" d="M288.059,374.728c0,2.042-1.937,3.694-4.321,3.694c-2.387,0-4.323-1.652-4.323-3.694      c0-2.037,1.937-3.691,4.323-3.691C286.122,371.036,288.059,372.69,288.059,374.728z"/>
			</g>
			<g>
				<ellipse style="fill:#233D4D;" cx="285.466" cy="424.392" rx="4.321" ry="3.694"/>
			</g>
			<g>
				<path style="fill:#233D4D;" d="M302.989,425.016c0,2.042-1.937,3.694-4.321,3.694c-2.389,0-4.323-1.652-4.323-3.694      c0-2.035,1.934-3.691,4.323-3.691C301.052,421.325,302.989,422.981,302.989,425.016z"/>
			</g>
			<g>
				<path style="fill:#233D4D;" d="M317.811,425.016c0,2.042-1.932,3.694-4.321,3.694c-2.386,0-4.32-1.652-4.32-3.694      c0-2.035,1.934-3.691,4.32-3.691C315.879,421.325,317.811,422.981,317.811,425.016z"/>
			</g>
			<g>
				<path style="fill:#233D4D;" d="M331.507,425.016c0,2.042-1.932,3.694-4.318,3.694c-2.386,0-4.318-1.652-4.318-3.694      c0-2.035,1.932-3.691,4.318-3.691C329.576,421.325,331.507,422.981,331.507,425.016z"/>
			</g>
			<g>
				<path style="fill:#233D4D;" d="M344.4,425.016c0,2.042-1.937,3.694-4.321,3.694c-2.387,0-4.323-1.652-4.323-3.694      c0-2.035,1.937-3.691,4.323-3.691C342.464,421.325,344.4,422.981,344.4,425.016z"/>
			</g>
		</g>
		<g>
			<g>
				<g>
					<g>
						<polygon style="fill:#233D4D;" points="364.592,407.024 361.761,351.864 462.343,351.864 456.056,409.381 451.969,409.381         457.941,357.834 366.79,355.008 368.363,407.024       "/>
					</g>
					<g>
						
							<rect x="379.506" y="376.695" transform="matrix(0.0326 -0.9995 0.9995 0.0326 21.2924 779.1618)" style="fill:#233D4D;" width="67.292" height="3.772"/>
					</g>
					<g>
						
							<rect x="374.178" y="344.889" transform="matrix(0.998 -0.0633 0.0633 0.998 -23.1112 24.5508)" style="fill:#233D4D;" width="3.773" height="64.557"/>
					</g>
					<g>
						
							<rect x="391.308" y="344.947" transform="matrix(0.9998 -0.0195 0.0195 0.9998 -7.2756 7.7342)" style="fill:#233D4D;" width="3.771" height="64.44"/>
					</g>
					<g>
						
							<rect x="395.743" y="375.282" transform="matrix(0.0874 -0.9962 0.9962 0.0874 14.9479 770.6508)" style="fill:#233D4D;" width="64.675" height="3.77"/>
					</g>
					<g>
						
							<rect x="411.719" y="375.281" transform="matrix(0.1068 -0.9943 0.9943 0.1068 21.6722 778.4594)" style="fill:#233D4D;" width="64.802" height="3.772"/>
					</g>
				</g>
				<g>
					<polygon style="fill:#964E59;" points="460.03,401.054 451.598,457.629 357.102,457.629 357.102,401.054      "/>
				</g>
				<g>
					<path style="fill:#FFB07B;" d="M429.59,437.826l-12.399,0.381l-0.388-6.478l15.085-0.347l-0.029-1.258l-27.966,0.641       l-0.155-7.051l-1.258,0.03l0.155,7.051l-23.444,0.538l0.029,1.258l11.934-0.273l0.16,6.682l-10.428,0.319l0.039,1.258       l21.74-0.666l0.098,4.419l1.258-0.029l-0.098-4.429l25.705-0.789L429.59,437.826z M392.413,432.289l23.129-0.531l0.388,6.488       l-23.357,0.715L392.413,432.289z"/>
				</g>
			</g>
			<g>
				<g>
					<polygon style="fill:#FFFFFF;" points="365.069,424.493 363.69,406.896 392.524,405.891 390.678,425.016      "/>
				</g>
				<g>
					<path style="fill:#964E59;" d="M389.002,423.576l-22.131-1.359l-1.263-13.746l25.191-0.855L389.002,423.576z M368.601,420.433       l18.73,1.153l1.349-12.008l-21.013,0.713L368.601,420.433z"/>
				</g>
				<g>
					<rect x="372.921" y="413.571" style="fill:#233D4D;" width="9.116" height="3.77"/>
				</g>
			</g>
		</g>
	</g>
</g>















</svg>
