<?xml version="1.0" encoding="UTF-8"?>
<!-- Generator: Adobe Illustrator 25.3.1, SVG Export Plug-In . SVG Version: 6.00 Build 0)  -->
<svg xmlns="http://www.w3.org/2000/svg" xmlns:xlink="http://www.w3.org/1999/xlink" version="1.1" id="Capa_1" x="0px" y="0px" viewBox="0 0 512 512" style="enable-background:new 0 0 512 512;" xml:space="preserve" width="512" height="512">
<g>
	<path style="fill:#000E3F;" d="M411.119,424.6l-21.33-12.317v10.415H54.702c-1.049,0-1.901,0.852-1.901,1.901   c0,1.049,0.851,1.901,1.901,1.901h335.087v10.416L411.119,424.6z"/>
	<g>
		<g>
			<g>
				<path style="fill:#00D5FE;" d="M510.099,101.342v186.1c0,10.582-8.566,19.148-19.148,19.148h-46.016      c-7.394,0-13.808-4.187-16.977-10.313c-1.383-2.65-2.171-5.646-2.171-8.834V148.338c0-2.266-1.248-4.34-3.264-5.416      l-26.504-14.02c-2.016-1.075-2.016-3.975,0-5.051l26.504-14.02c2.016-1.056,3.264-3.15,3.264-5.416v-3.073      c0-10.582,8.585-19.148,19.148-19.148h46.016c7.087,0,13.251,3.841,16.535,9.545c0.02,0,0.02,0,0.02,0      C509.157,94.563,510.099,97.847,510.099,101.342z"/>
				<path style="opacity:0.25;fill:#322BBF;" d="M510.099,101.342v186.1c0,10.582-8.566,19.148-19.148,19.148h-46.016      c-7.394,0-13.808-4.187-16.979-10.317c-3.361-6.527,12.422-7.21,15.841-7.08c40.264,1.534,46.559,0.6,46.559-20.437      c0-18.104,0.903-110.815-0.729-135.552c-1.844-27.982,9.564-37.95,17.88-41.464C509.157,94.563,510.099,97.847,510.099,101.342z      "/>
			</g>
			<path style="fill:#000E3F;" d="M490.95,308.491h-46.016c-7.894,0-15.045-4.346-18.665-11.341     c-1.579-3.029-2.383-6.297-2.383-9.707V148.337c0-1.563-0.864-2.996-2.258-3.74l-26.497-14.016     c-1.559-0.831-2.524-2.441-2.524-4.204c0-1.765,0.965-3.375,2.52-4.202l26.508-14.024c1.392-0.73,2.251-2.161,2.251-3.736v-3.074     c0-11.606,9.443-21.048,21.048-21.048h46.016c7.113,0,13.758,3.631,17.601,9.546h0.027l0.567,0.942     c1.868,3.19,2.855,6.843,2.855,10.56v186.101C512,299.048,502.557,308.491,490.95,308.491z M444.934,84.095     c-9.511,0-17.246,7.736-17.246,17.247v3.074c0,2.994-1.641,5.713-4.282,7.099l-26.497,14.018     c-0.452,0.239-0.501,0.67-0.501,0.845c0,0.173,0.049,0.604,0.505,0.847l26.5,14.016c2.639,1.41,4.276,4.128,4.276,7.096v139.106     c0,2.792,0.658,5.468,1.954,7.956c2.967,5.734,8.824,9.29,15.292,9.29h46.016c9.511,0,17.248-7.736,17.248-17.247V101.342     c0-2.837-0.701-5.627-2.033-8.105l-0.326-0.548c-3.051-5.301-8.756-8.593-14.89-8.593H444.934z"/>
		</g>
		<g>
			<g>
				<path style="fill:#FD8A02;" d="M492.457,131.511c0,6.759-2.743,12.873-7.155,17.318c-4.445,4.445-10.576,7.188-17.351,7.188      c-6.792,0-12.939-2.76-17.367-7.205c-4.429-4.445-7.155-10.559-7.155-17.301c0-13.534,10.972-24.506,24.522-24.506      C481.484,107.005,492.457,117.978,492.457,131.511z"/>
				<g>
					<path style="fill:#FFFFFF;" d="M458.83,123.256c0,5.034,4.081,9.115,9.115,9.115c5.034,0,9.115-4.081,9.115-9.115       c0-5.034-4.081-9.115-9.115-9.115C462.911,114.141,458.83,118.222,458.83,123.256z"/>
					<path style="fill:#FFFFFF;" d="M485.302,148.829c-4.445,4.445-10.576,7.188-17.351,7.188c-6.792,0-12.939-2.76-17.367-7.205       c1.883-7.833,8.956-13.649,17.367-13.649C476.378,135.163,483.434,140.996,485.302,148.829z"/>
				</g>
			</g>
			<g>
				<path style="fill:#000E3F;" d="M487.828,285.407h-39.771c-1.049,0-1.901-0.851-1.901-1.901c0-1.049,0.851-1.901,1.901-1.901      h39.771c1.049,0,1.901,0.851,1.901,1.901C489.729,284.556,488.878,285.407,487.828,285.407z"/>
				<path style="fill:#000E3F;" d="M495.603,271.965h-55.321c-1.049,0-1.901-0.852-1.901-1.901c0-1.049,0.851-1.901,1.901-1.901      h55.321c1.049,0,1.901,0.851,1.901,1.901C497.504,271.113,496.652,271.965,495.603,271.965z"/>
				<path style="fill:#000E3F;" d="M495.603,258.52h-55.321c-1.049,0-1.901-0.851-1.901-1.901c0-1.049,0.851-1.901,1.901-1.901      h55.321c1.049,0,1.901,0.851,1.901,1.901C497.504,257.669,496.652,258.52,495.603,258.52z"/>
				<path style="fill:#000E3F;" d="M495.603,245.078h-55.321c-1.049,0-1.901-0.851-1.901-1.901s0.851-1.901,1.901-1.901h55.321      c1.049,0,1.901,0.851,1.901,1.901S496.652,245.078,495.603,245.078z"/>
				<path style="fill:#000E3F;" d="M495.603,231.633h-55.321c-1.049,0-1.901-0.851-1.901-1.901c0-1.049,0.851-1.901,1.901-1.901      h55.321c1.049,0,1.901,0.851,1.901,1.901C497.504,230.782,496.652,231.633,495.603,231.633z"/>
				<path style="fill:#000E3F;" d="M495.603,218.189h-55.321c-1.049,0-1.901-0.851-1.901-1.901s0.851-1.901,1.901-1.901h55.321      c1.049,0,1.901,0.851,1.901,1.901S496.652,218.189,495.603,218.189z"/>
				<path style="fill:#000E3F;" d="M495.603,204.746h-55.321c-1.049,0-1.901-0.851-1.901-1.901s0.851-1.901,1.901-1.901h55.321      c1.049,0,1.901,0.851,1.901,1.901S496.652,204.746,495.603,204.746z"/>
				<path style="fill:#000E3F;" d="M495.603,191.301h-55.321c-1.049,0-1.901-0.851-1.901-1.901c0-1.049,0.851-1.901,1.901-1.901      h55.321c1.049,0,1.901,0.852,1.901,1.901C497.504,190.45,496.652,191.301,495.603,191.301z"/>
				<path style="fill:#000E3F;" d="M495.603,177.859h-55.321c-1.049,0-1.901-0.851-1.901-1.901c0-1.049,0.851-1.901,1.901-1.901      h55.321c1.049,0,1.901,0.851,1.901,1.901C497.504,177.007,496.652,177.859,495.603,177.859z"/>
				<path style="fill:#000E3F;" d="M467.951,107.005c13.533,0,24.506,10.972,24.506,24.506c0,6.759-2.743,12.873-7.155,17.318      c-4.445,4.445-10.576,7.188-17.351,7.188c-6.791,0-12.939-2.76-17.367-7.205c-4.43-4.445-7.155-10.559-7.155-17.301      C443.429,117.977,454.4,107.005,467.951,107.005 M467.951,103.205c-15.617,0-28.322,12.698-28.322,28.306      c0,7.54,2.935,14.636,8.264,19.984c5.345,5.367,12.469,8.323,20.059,8.323c7.569,0,14.685-2.948,20.038-8.302      c5.335-5.375,8.268-12.476,8.268-20.005C496.257,115.903,483.559,103.205,467.951,103.205L467.951,103.205z"/>
			</g>
		</g>
	</g>
	<g>
		<g>
			<path style="fill:#00D5FE;" d="M267.576,112.513c0,19.628-15.921,35.53-35.53,35.53c-6.837,0-13.194-1.921-18.611-5.262     c-10.159-6.261-16.919-17.477-16.919-30.268c0-19.628,15.902-35.53,35.53-35.53c5.012,0,9.775,1.037,14.096,2.9     C258.741,85.338,267.576,97.898,267.576,112.513z"/>
			<path style="opacity:0.25;fill:#322BBF;" d="M267.576,112.513c0,19.628-15.921,35.53-35.53,35.53     c-6.837,0-13.194-1.921-18.611-5.262c41.388-12.887,37.912-45.574,32.707-62.897C258.741,85.338,267.576,97.898,267.576,112.513z     "/>
			<path style="opacity:0.75;fill:#FFFFFF;" d="M210.07,112.123c-0.955,4.567-0.901,8.936-0.899,8.744     c-0.021,1.818-2.511,2.37-3.287,0.702c-5.652-12.225,2.335-29.759,14.909-34.6c1.603-0.617,2.937,1.367,1.769,2.621     C221.428,91.3,213.048,98.491,210.07,112.123z"/>
		</g>
		<g>
			<path style="fill:#000E3F;" d="M228.787,93.183c1.949-0.167,4.79-0.724,6.851-0.111c-0.167,9.526-0.39,19.944,0.056,29.47     c-1.951,0.223-5.013,0.223-7.187,0.278h-0.056c0.169-9.803-0.444-19.498,0.169-29.637H228.787z M228.787,132.235     c-0.502,0,0.167-4.456,0.167-6.518v-0.056c1.782-0.724,4.623-0.111,6.797-0.111c-0.056,2.061-0.169,4.513-0.169,6.684h-0.388     c-0.893,0-1.283-0.054-2.118-0.054h-0.113L228.787,132.235z"/>
			<path style="fill:#000E3F;" d="M232.047,149.945c-6.948,0-13.729-1.92-19.609-5.548c-11.158-6.876-17.822-18.795-17.822-31.883     c0-20.638,16.793-37.431,37.431-37.431c5.148,0,10.144,1.029,14.849,3.055c13.717,5.94,22.58,19.432,22.58,34.376     C269.476,133.152,252.685,149.945,232.047,149.945z M232.047,78.885c-18.543,0-33.629,15.086-33.629,33.629     c0,11.758,5.985,22.469,16.016,28.648c5.28,3.26,11.37,4.981,17.613,4.981c18.543,0,33.627-15.086,33.627-33.629     c0-13.426-7.962-25.551-20.285-30.887C241.166,79.807,236.675,78.885,232.047,78.885z"/>
			<path style="fill:#000E3F;" d="M232.045,165.895c-1.049,0-1.901-0.851-1.901-1.901v-5.806c0-1.049,0.851-1.901,1.901-1.901     c1.049,0,1.901,0.851,1.901,1.901v5.806C233.946,165.043,233.094,165.895,232.045,165.895z"/>
			<path style="fill:#000E3F;" d="M232.045,195.604c-1.049,0-1.901-0.851-1.901-1.901v-14.855c0-1.049,0.851-1.901,1.901-1.901     c1.049,0,1.901,0.851,1.901,1.901v14.855C233.946,194.753,233.094,195.604,232.045,195.604z"/>
			<path style="fill:#000E3F;" d="M232.045,216.265c-1.049,0-1.901-0.851-1.901-1.901v-5.806c0-1.049,0.851-1.901,1.901-1.901     c1.049,0,1.901,0.851,1.901,1.901v5.806C233.946,215.413,233.094,216.265,232.045,216.265z"/>
		</g>
	</g>
	<g>
		<g>
			<g>
				<path style="fill:#FC09B2;" d="M297.536,392.716h79.759V107.51c0-8.869-7.19-16.059-16.06-16.059h-47.639      c-8.869,0-16.06,7.19-16.06,16.059V392.716z"/>
				<g style="opacity:0.5;">
					<polygon style="fill:#FF8EDE;" points="297.534,153.671 359.753,91.451 345.09,91.451 297.534,139.008      "/>
					<polygon style="fill:#FF8EDE;" points="297.534,124.336 330.419,91.451 315.755,91.451 297.534,109.673      "/>
					<polygon style="fill:#FF8EDE;" points="297.534,212.34 377.293,132.58 377.293,117.917 297.534,197.677      "/>
					<polygon style="fill:#FF8EDE;" points="297.534,241.674 377.293,161.915 377.293,147.252 297.534,227.011      "/>
					<path style="fill:#FF8EDE;" d="M297.534,183.005l79.29-79.291c-0.87-3.591-2.938-6.703-5.768-8.895l-73.523,73.523V183.005z"/>
					<polygon style="fill:#FF8EDE;" points="367.81,318.061 377.293,308.579 377.293,293.916 360.988,310.221 360.988,310.221        360.479,310.73 359.97,311.239 359.97,311.239 297.534,373.676 297.534,388.339      "/>
					<polygon style="fill:#FF8EDE;" points="297.534,256.341 297.534,271.004 308.634,259.904 308.634,259.904 377.293,191.245        377.293,176.582 302.321,251.554      "/>
					<polygon style="fill:#FF8EDE;" points="375.653,324.886 375.144,325.395 374.635,325.904 374.635,325.904 307.833,392.707        322.496,392.707 377.293,337.909 377.293,323.246 375.653,324.886      "/>
					<polygon style="fill:#FF8EDE;" points="323.301,274.571 323.811,274.062 324.32,273.552 324.32,273.552 377.293,220.579        377.293,205.915 316.479,266.73 297.534,285.676 297.534,300.339 323.301,274.571      "/>
					<polygon style="fill:#FF8EDE;" points="377.293,352.581 337.168,392.707 351.831,392.707 377.293,367.244      "/>
					<polygon style="fill:#FF8EDE;" points="338.985,288.22 377.293,249.912 377.293,235.249 331.654,280.888 330.635,281.907        297.534,315.008 297.534,329.671 337.967,289.238      "/>
					<polygon style="fill:#FF8EDE;" points="353.652,302.887 377.293,279.246 377.293,264.583 346.321,295.555 345.302,296.574        297.534,344.343 297.534,359.006 352.634,303.906      "/>
					<polygon style="fill:#FF8EDE;" points="377.293,381.915 366.501,392.707 377.293,392.707      "/>
				</g>
				<path style="opacity:0.25;fill:#000E3F;" d="M377.293,144.881v247.826h-79.759v-1.249      c34.742-26.618,55.945-99.618,54.389-167.874C350.482,159.649,366.462,146.513,377.293,144.881z"/>
				<g>
					<path style="fill:#FFFFFF;" d="M337.701,121.174c-4.133,0.093-8.06,3.849-7.719,8.114c0.486,6.069,9.446,7.849,13.38,4.092       C348.111,128.848,343.919,121.035,337.701,121.174z"/>
					<path style="fill:#FFFFFF;" d="M319.049,181.332c2.892,29.416,3.11,82.46,0.129,113.311c-0.254,2.619-4.087,2.604-4.336,0       c-2.368-24.5-2.543-61.288-1.627-84.984c0.337-9.442,0.828-18.885,1.757-28.328       C315.212,178.879,318.808,178.884,319.049,181.332z"/>
				</g>
			</g>
			<g>
				<path style="fill:#000E3F;" d="M317.108,127.216c-1.064,0-2.15-0.249-3.214-0.752c-3.086-1.46-4.991-5.191-4.637-9.078      c0.097-1.043,1.021-1.794,2.066-1.72c1.045,0.097,1.814,1.021,1.719,2.066c-0.181,1.965,0.612,4.414,2.476,5.297      c1.128,0.532,2.185,0.513,3.144-0.054c1.32-0.785,2.241-2.495,2.346-4.354c0.06-1.051,0.977-1.878,2.004-1.789      c1.047,0.06,1.849,0.957,1.789,2.004c-0.177,3.134-1.785,5.973-4.198,7.406C319.512,126.891,318.324,127.216,317.108,127.216z"/>
				<path style="fill:#000E3F;" d="M357.72,127.216c-1.214,0-2.402-0.326-3.494-0.975c-2.412-1.435-4.02-4.272-4.196-7.406      c-0.06-1.047,0.742-1.946,1.789-2.004c1.039-0.039,1.946,0.742,2.004,1.789c0.105,1.86,1.025,3.569,2.344,4.352      c0.959,0.573,2.016,0.59,3.144,0.056c1.866-0.882,2.658-3.332,2.476-5.295c-0.097-1.045,0.672-1.971,1.717-2.068      c1.072-0.08,1.973,0.674,2.068,1.717c0.359,3.886-1.548,7.62-4.637,9.08C359.873,126.967,358.786,127.216,357.72,127.216z"/>
				<path style="fill:#000E3F;" d="M379.195,394.616h-83.56V107.51c0-9.905,8.057-17.962,17.96-17.962h47.641      c9.902,0,17.96,8.057,17.96,17.962V394.616z M299.437,390.814h75.956V107.51c0-7.808-6.35-14.16-14.158-14.16h-47.641      c-7.808,0-14.158,6.352-14.158,14.16V390.814z"/>
			</g>
		</g>
		<g>
			<g>
				<path style="fill:#00D5FE;" d="M86.797,392.716h79.759V142.512c0-8.869-7.19-16.059-16.06-16.059h-47.639      c-8.869,0-16.06,7.19-16.06,16.059V392.716z"/>
				<g style="opacity:0.35;">
					<polygon style="fill:#322BBF;" points="166.554,211.323 86.793,291.083 86.793,305.746 166.554,225.986      "/>
					<polygon style="fill:#322BBF;" points="86.793,247.079 166.554,167.318 166.554,152.654 86.793,232.416      "/>
					<polygon style="fill:#322BBF;" points="86.793,188.411 148.761,126.443 134.098,126.443 86.793,173.748      "/>
					<polygon style="fill:#322BBF;" points="86.793,276.414 166.554,196.652 166.554,181.989 86.793,261.75      "/>
					<path style="fill:#322BBF;" d="M86.793,217.744l79.236-79.237c-0.915-3.564-3.014-6.643-5.862-8.801l-73.373,73.375V217.744z"/>
					<polygon style="fill:#322BBF;" points="86.793,159.08 119.431,126.443 104.767,126.443 86.793,144.417      "/>
					<polygon style="fill:#322BBF;" points="166.554,392.707 166.554,387.319 161.166,392.707      "/>
					<polygon style="fill:#322BBF;" points="104.32,346.884 166.554,284.651 166.554,269.988 96.988,339.553 95.97,340.572        86.793,349.748 86.793,364.411 103.301,347.903      "/>
					<polygon style="fill:#322BBF;" points="86.793,335.077 89.653,332.217 166.554,255.316 166.554,240.653 86.793,320.414             "/>
					<polygon style="fill:#322BBF;" points="132.636,377.237 166.554,343.32 166.554,328.657 126.323,368.887 102.504,392.707        117.167,392.707 132.636,377.237      "/>
					<polygon style="fill:#322BBF;" points="166.554,372.652 166.554,357.989 140.988,383.554 140.988,383.554 131.836,392.707        146.499,392.707 147.301,391.905      "/>
					<polygon style="fill:#322BBF;" points="117.969,362.57 166.554,313.985 166.554,299.322 111.656,354.22 86.793,379.082        86.793,392.707 87.832,392.707 117.969,362.57      "/>
				</g>
				<path style="opacity:0.25;fill:#322BBF;" d="M166.554,194.161v198.545H89.29c32.189-23.776,51.586-80.72,50.088-134.13      C137.841,203.38,155.799,194.546,166.554,194.161z"/>
				<g>
					<path style="fill:#FFFFFF;" d="M133.971,161.183c3.161,1.008,4.168,2.689,3.706,5.661       c-2.556,16.431-22.597,14.302-23.354-1.308c-0.09-1.847,0.847-3.169,2.832-3.969       C121.969,159.626,129.264,159.682,133.971,161.183z"/>
					<path style="fill:#FFFFFF;" d="M105.956,224.371c2.959,27.862,3.043,76.991,0.129,104.906c-0.27,2.592-4.065,2.59-4.336,0       c-2.991-28.66-2.753-77.765,0.129-104.906C102.139,221.938,105.7,221.94,105.956,224.371z"/>
				</g>
			</g>
			<g>
				<path style="fill:#000E3F;" d="M103.135,157.227c3.345,0.012,6.198,2.856,6.164,6.145c-0.03,2.945-2.598,5.64-5.54,5.977      c-3.328,0.381-6.773-2.74-6.674-6.107C97.177,160.133,100.111,157.216,103.135,157.227z"/>
				<path style="fill:#000E3F;" d="M150.217,157.227c-3.345,0.012-6.198,2.856-6.164,6.145c0.03,2.945,2.598,5.64,5.54,5.977      c3.328,0.381,6.773-2.74,6.674-6.107C156.176,160.133,153.242,157.216,150.217,157.227z"/>
				<path style="fill:#000E3F;" d="M168.457,394.616h-83.56V142.513c0-9.905,8.057-17.962,17.96-17.962h47.641      c9.902,0,17.96,8.057,17.96,17.962V394.616z M88.698,390.814h75.957V142.513c0-7.808-6.35-14.16-14.158-14.16h-47.641      c-7.808,0-14.158,6.352-14.158,14.16V390.814z"/>
			</g>
		</g>
		<g>
			<g>
				<path style="fill:#FD8A02;" d="M192.166,392.716h79.759V240.569c0-8.869-7.19-16.059-16.059-16.059h-47.64      c-8.869,0-16.059,7.19-16.059,16.059V392.716z"/>
				<g style="opacity:0.55;">
					<polygon style="fill:#ED5110;" points="212.036,224.506 192.174,244.368 192.174,259.031 226.699,224.506      "/>
					<polygon style="fill:#ED5110;" points="271.933,340.609 219.835,392.707 234.498,392.707 271.933,355.272      "/>
					<polygon style="fill:#ED5110;" points="271.933,281.942 192.174,361.7 192.174,376.363 271.933,296.605      "/>
					<path style="fill:#ED5110;" d="M266.58,228.63l-74.406,74.407V317.7l79.556-79.557       C271.159,234.386,269.288,231.06,266.58,228.63z"/>
					<polygon style="fill:#ED5110;" points="271.933,369.943 249.169,392.707 263.833,392.707 271.933,384.607      "/>
					<polygon style="fill:#ED5110;" points="192.174,392.707 205.164,392.707 271.933,325.939 271.933,311.276 192.174,391.034             "/>
					<polygon style="fill:#ED5110;" points="271.933,252.612 192.174,332.37 192.174,347.033 271.933,267.275      "/>
					<path style="fill:#ED5110;" d="M255.859,224.506H241.37l-49.196,49.197v14.663l63.851-63.851       C255.969,224.514,255.914,224.506,255.859,224.506z"/>
				</g>
				<path style="opacity:0.65;fill:#ED5110;" d="M271.933,269.792v122.914h-79.759v-1.114      c22.605-11.024,57.021-39.352,57.039-77.801C249.232,282.064,262.656,272.577,271.933,269.792z"/>
				<path style="fill:#FFFFFF;" d="M211.586,288.153c2.992,18.899,3.017,51.803,0.129,70.361c-0.382,2.463-3.948,2.466-4.336,0      c-2.887-18.551-2.863-51.463,0.129-70.361c0.179-1.126,1.236-1.894,2.362-1.716C210.776,286.58,211.449,287.294,211.586,288.153      z"/>
			</g>
			<g>
				<path style="fill:#000E3F;" d="M231.861,269.905c-0.565,0-1.132-0.047-1.699-0.142c-6.779-1.132-10.284-8.478-10.672-14.826      c-0.064-1.047,0.734-1.948,1.781-2.012c1.045-0.06,1.946,0.732,2.012,1.781c0.299,4.892,2.775,10.519,7.505,11.309      c2.62,0.429,4.676-0.775,5.946-1.874c2.47-2.136,4.088-5.668,4.024-8.789c-0.023-1.049,0.81-1.917,1.86-1.938      c0.014-0.002,0.027-0.002,0.039-0.002c1.033,0,1.878,0.827,1.899,1.862c0.089,4.255-2.008,8.864-5.338,11.744      C237.032,268.907,234.469,269.905,231.861,269.905z"/>
				<path style="fill:#000E3F;" d="M249.196,252.469c-0.153-3.27,3.071-6.397,6.411-6.34c3.844,0.066,6.269,3.653,6.207,6.25      C261.628,260.139,249.571,260.492,249.196,252.469z"/>
				<path style="fill:#000E3F;" d="M214.895,252.469c0.153-3.27-3.071-6.397-6.411-6.34c-3.844,0.066-6.269,3.653-6.207,6.25      C202.464,260.139,214.52,260.492,214.895,252.469z"/>
				<path style="fill:#000E3F;" d="M273.826,394.616h-83.56V240.569c0-9.903,8.057-17.96,17.96-17.96h47.641      c9.902,0,17.96,8.057,17.96,17.96V394.616z M194.067,390.814h75.956V240.569c0-7.808-6.35-14.158-14.158-14.158h-47.641      c-7.808,0-14.158,6.35-14.158,14.158V390.814z"/>
			</g>
		</g>
		<g>
			<g>
				<g>
					<path style="fill:#000E3F;" d="M30.932,98.991H1.901C0.852,98.991,0,98.14,0,97.09c0-1.049,0.852-1.901,1.901-1.901h29.031       c1.049,0,1.901,0.851,1.901,1.901C32.833,98.14,31.982,98.991,30.932,98.991z"/>
				</g>
				<g>
					<path style="fill:#000E3F;" d="M31.339,121.953H11.655c-1.049,0-1.901-0.851-1.901-1.901c0-1.049,0.851-1.901,1.901-1.901       h19.684c1.049,0,1.901,0.851,1.901,1.901C33.239,121.101,32.388,121.953,31.339,121.953z"/>
				</g>
				<g>
					<path style="fill:#000E3F;" d="M30.932,144.912H1.901c-1.049,0-1.901-0.851-1.901-1.901c0-1.049,0.852-1.901,1.901-1.901       h29.031c1.049,0,1.901,0.851,1.901,1.901C32.833,144.061,31.982,144.912,30.932,144.912z"/>
				</g>
				<g>
					<path style="fill:#000E3F;" d="M31.339,167.872H11.655c-1.049,0-1.901-0.851-1.901-1.901s0.851-1.901,1.901-1.901h19.684       c1.049,0,1.901,0.851,1.901,1.901S32.388,167.872,31.339,167.872z"/>
				</g>
				<g>
					<path style="fill:#000E3F;" d="M30.932,190.831H1.901c-1.049,0-1.901-0.851-1.901-1.901c0-1.049,0.852-1.901,1.901-1.901       h29.031c1.049,0,1.901,0.851,1.901,1.901C32.833,189.98,31.982,190.831,30.932,190.831z"/>
				</g>
				<g>
					<path style="fill:#000E3F;" d="M31.339,213.791H11.655c-1.049,0-1.901-0.851-1.901-1.901s0.851-1.901,1.901-1.901h19.684       c1.049,0,1.901,0.851,1.901,1.901S32.388,213.791,31.339,213.791z"/>
				</g>
				<g>
					<path style="fill:#000E3F;" d="M30.932,236.751H1.901c-1.049,0-1.901-0.851-1.901-1.901s0.852-1.901,1.901-1.901h29.031       c1.049,0,1.901,0.851,1.901,1.901S31.982,236.751,30.932,236.751z"/>
				</g>
				<g>
					<path style="fill:#000E3F;" d="M31.339,259.71H11.655c-1.049,0-1.901-0.851-1.901-1.901c0-1.049,0.851-1.901,1.901-1.901       h19.684c1.049,0,1.901,0.851,1.901,1.901C33.239,258.859,32.388,259.71,31.339,259.71z"/>
				</g>
				<g>
					<path style="fill:#000E3F;" d="M30.932,282.67H1.901c-1.049,0-1.901-0.851-1.901-1.901c0-1.049,0.852-1.901,1.901-1.901h29.031       c1.049,0,1.901,0.851,1.901,1.901C32.833,281.818,31.982,282.67,30.932,282.67z"/>
				</g>
				<g>
					<path style="fill:#000E3F;" d="M31.339,305.629H11.655c-1.049,0-1.901-0.851-1.901-1.901c0-1.049,0.851-1.901,1.901-1.901       h19.684c1.049,0,1.901,0.851,1.901,1.901C33.239,304.778,32.388,305.629,31.339,305.629z"/>
				</g>
				<g>
					<path style="fill:#000E3F;" d="M30.932,328.589H1.901c-1.049,0-1.901-0.851-1.901-1.901c0-1.049,0.852-1.901,1.901-1.901       h29.031c1.049,0,1.901,0.851,1.901,1.901C32.833,327.737,31.982,328.589,30.932,328.589z"/>
				</g>
				<g>
					<path style="fill:#000E3F;" d="M30.932,374.51H1.901c-1.049,0-1.901-0.851-1.901-1.901c0-1.049,0.852-1.901,1.901-1.901h29.031       c1.049,0,1.901,0.851,1.901,1.901C32.833,373.658,31.982,374.51,30.932,374.51z"/>
				</g>
				<g>
					<path style="fill:#000E3F;" d="M31.339,351.548H11.655c-1.049,0-1.901-0.851-1.901-1.901s0.851-1.901,1.901-1.901h19.684       c1.049,0,1.901,0.851,1.901,1.901S32.388,351.548,31.339,351.548z"/>
				</g>
			</g>
			<g>
				<path style="fill:#000E3F;" d="M418.601,394.616H62.65c-10.509,0-19.061-8.55-19.061-19.059V76.984      c0-1.049,0.851-1.901,1.901-1.901s1.901,0.851,1.901,1.901v298.573c0,8.414,6.845,15.257,15.259,15.257h355.951      c1.049,0,1.901,0.851,1.901,1.901C420.502,393.764,419.651,394.616,418.601,394.616z"/>
			</g>
		</g>
	</g>
	<g>
		<path style="fill:#FD8A02;" d="M511.5,371.624l-5.477-8.169c-0.349-0.521-0.42-1.182-0.189-1.765l3.624-9.142    c0.583-1.47-0.773-2.969-2.294-2.538l-9.461,2.684c-0.604,0.171-1.253,0.034-1.737-0.366l-7.575-6.272    c-1.218-1.008-3.063-0.182-3.122,1.397l-0.371,9.828c-0.024,0.627-0.354,1.203-0.885,1.539l-8.306,5.266    c-1.335,0.846-1.12,2.857,0.364,3.401l9.232,3.39c0.589,0.216,1.035,0.709,1.19,1.317l2.442,9.527    c0.392,1.531,2.37,1.948,3.347,0.705l6.077-7.733c0.388-0.494,0.994-0.765,1.62-0.725l9.815,0.622    C511.373,374.689,512.38,372.937,511.5,371.624z"/>
		<path style="fill:#FD8A02;" d="M470.77,408.82l-8.62,0.001c-0.55,0-1.065-0.271-1.377-0.724l-4.887-7.1    c-0.785-1.141-2.539-0.887-2.967,0.431l-2.663,8.198c-0.17,0.523-0.586,0.93-1.114,1.086l-8.263,2.454    c-1.328,0.394-1.628,2.141-0.506,2.955l6.974,5.066c0.445,0.323,0.703,0.845,0.689,1.395l-0.22,8.617    c-0.035,1.385,1.533,2.209,2.654,1.395l6.973-5.067c0.445-0.323,1.021-0.407,1.539-0.224l8.127,2.872    c1.307,0.462,2.575-0.775,2.147-2.093l-2.664-8.198c-0.17-0.523-0.072-1.097,0.263-1.533l5.243-6.842    C472.94,410.408,472.156,408.819,470.77,408.82z"/>
		<path style="fill:#FD8A02;" d="M438.541,357.9l-1.015-7.464c-0.065-0.477,0.109-0.954,0.465-1.278l5.573-5.067    c0.896-0.814,0.469-2.303-0.723-2.518l-7.412-1.341c-0.473-0.086-0.874-0.399-1.071-0.837l-3.097-6.866    c-0.498-1.104-2.045-1.158-2.618-0.091l-3.566,6.634c-0.228,0.424-0.649,0.708-1.127,0.76l-7.487,0.824    c-1.203,0.132-1.733,1.587-0.896,2.462l5.208,5.442c0.333,0.347,0.473,0.836,0.375,1.307l-1.53,7.375    c-0.246,1.185,0.974,2.139,2.065,1.613l6.785-3.271c0.433-0.209,0.941-0.191,1.359,0.047l6.541,3.735    C437.421,359.966,438.704,359.1,438.541,357.9z"/>
	</g>
</g>















</svg>
