<?xml version="1.0" encoding="UTF-8"?>
<!-- Generator: Adobe Illustrator 26.3.1, SVG Export Plug-In . SVG Version: 6.00 Build 0)  -->
<svg xmlns="http://www.w3.org/2000/svg" xmlns:xlink="http://www.w3.org/1999/xlink" version="1.1" id="Capa_1" x="0px" y="0px" viewBox="0 0 512 512" style="enable-background:new 0 0 512 512;" xml:space="preserve" width="512" height="512">
<g>
	<g>
		<path style="fill:#FFFFFF;" d="M253.437,0.567c62.627,0,126.721,25.685,175.848,70.47c21.356,19.462,39.107,41.718,52.758,66.15    c20.97,37.562,31.276,79.26,29.822,120.62c1.294,67.35-22.082,127.505-67.614,173.986    c-49.582,50.613-120.374,79.641-194.23,79.641c-0.014,0-0.027,0-0.04,0c-91.371-0.015-169.513-44.036-214.389-120.78l-0.725-1.25    c-4.47-7.223-8.536-14.694-12.087-22.212C-8.177,301.958-7.55,220.841,24.467,150.233C24.467,150.233,83.296,0.567,253.437,0.567z    "/>
	</g>
	<g>
		<g>
			<path style="fill:#FF5434;" d="M496.618,256.987c5.024,242.056-329.635,328.05-448.163,125.357     c-0.268-0.463,13.111-12.725,12.843-13.188c-4.219-6.804-25.037-9.103-25.037-9.103C-22.809,235.573,44.82,66.22,181.567,27.442     c83.067-30.12,174.5-3.293,237.398,54.045c0,0-32.152,26.544-24.635,35.584c9.561,11.497,74.387,26.777,74.387,26.777     C487.643,177.748,498.13,216.307,496.618,256.987z"/>
		</g>
		<g>
			<path style="fill:#FFDEBF;" d="M468.717,143.848H164.909c17.291-16.096,41.046-25.34,64.678-24.291     c16.389,0.707,32.9,5.951,48.874,2.317c10.56-2.39,19.828-8.463,29.242-13.804c33.656-19.145,72.824-30.096,111.26-26.584     C438.768,99.534,455.718,120.582,468.717,143.848z"/>
		</g>
		<g>
			<g>
				<g>
					<path style="fill:#FFDEBF;" d="M278.633,382.344H48.454c-0.268-0.463-0.536-0.927-0.805-1.39       c-4.219-6.804-8.024-13.779-11.389-20.901c10.048-2.561,18.95-8.365,27.974-13.487c36.388-20.706,79.214-31.827,120.577-25.437       C222.979,327.03,259.342,349.175,278.633,382.344z"/>
				</g>
				<g>
					<g>
						<g>
							
								<rect x="115.575" y="86.56" transform="matrix(0.1222 0.9925 -0.9925 0.1222 231.6244 -41.4363)" style="fill:#A0D6F3;" width="47.324" height="47.324"/>
						</g>
						<g>
							
								<rect x="174.107" y="420.319" transform="matrix(0.669 0.7433 -0.7433 0.669 395.4774 -0.027)" style="fill:#A0D6F3;" width="47.324" height="47.324"/>
						</g>
						<g>
							
								<rect x="405.129" y="135.225" transform="matrix(0.669 0.7433 -0.7433 0.669 260.0459 -266.1211)" style="fill:#A0D6F3;" width="47.324" height="47.324"/>
						</g>
					</g>
					<g>
						<g>
							<path d="M270.623,115.906c-0.632,0-1.145-0.513-1.145-1.145V34.695c0-0.632,0.513-1.145,1.145-1.145s1.145,0.513,1.145,1.145         v80.066C271.768,115.394,271.255,115.906,270.623,115.906z"/>
						</g>
						<g>
							<path d="M242.315,104.181c-0.293,0-0.586-0.111-0.81-0.335c-0.446-0.447-0.446-1.172,0-1.619l56.616-56.615         c0.447-0.447,1.172-0.447,1.619,0c0.446,0.447,0.446,1.172,0,1.619l-56.616,56.615         C242.901,104.069,242.608,104.181,242.315,104.181z"/>
						</g>
						<g>
							<path d="M310.657,75.873H230.59c-0.632,0-1.145-0.513-1.145-1.145s0.513-1.145,1.145-1.145h80.067         c0.632,0,1.145,0.513,1.145,1.145S311.289,75.873,310.657,75.873z"/>
						</g>
						<g>
							<path d="M298.932,104.181c-0.293,0-0.586-0.111-0.81-0.335L241.506,47.23c-0.446-0.447-0.446-1.172,0-1.619         c0.447-0.447,1.172-0.447,1.619,0l56.616,56.615c0.446,0.447,0.446,1.172,0,1.619         C299.518,104.069,299.225,104.181,298.932,104.181z"/>
						</g>
					</g>
					<g>
						<g>
							<path d="M362.78,437.212c-0.632,0-1.145-0.513-1.145-1.145v-80.066c0-0.632,0.513-1.145,1.145-1.145s1.145,0.513,1.145,1.145         v80.066C363.925,436.699,363.412,437.212,362.78,437.212z"/>
						</g>
						<g>
							<path d="M334.473,425.487c-0.293,0-0.586-0.111-0.81-0.335c-0.446-0.447-0.446-1.172,0-1.619l56.616-56.616         c0.447-0.447,1.172-0.447,1.619,0c0.446,0.447,0.446,1.172,0,1.619l-56.616,56.616         C335.059,425.376,334.766,425.487,334.473,425.487z"/>
						</g>
						<g>
							<path d="M402.814,397.179h-80.067c-0.632,0-1.145-0.513-1.145-1.145s0.513-1.145,1.145-1.145h80.067         c0.632,0,1.145,0.513,1.145,1.145S403.446,397.179,402.814,397.179z"/>
						</g>
						<g>
							<path d="M391.089,425.487c-0.293,0-0.586-0.111-0.81-0.335l-56.616-56.616c-0.446-0.447-0.446-1.172,0-1.619         c0.447-0.447,1.172-0.447,1.619,0l56.616,56.616c0.446,0.447,0.446,1.172,0,1.619         C391.675,425.376,391.382,425.487,391.089,425.487z"/>
						</g>
					</g>
					<g>
						<g>
							<path d="M84.44,251.029c-0.632,0-1.145-0.513-1.145-1.145v-80.066c0-0.632,0.513-1.145,1.145-1.145s1.145,0.513,1.145,1.145         v80.066C85.585,250.517,85.072,251.029,84.44,251.029z"/>
						</g>
						<g>
							<path d="M56.133,239.304c-0.293,0-0.586-0.111-0.81-0.335c-0.446-0.447-0.446-1.172,0-1.619l56.615-56.615         c0.447-0.447,1.172-0.447,1.619,0c0.446,0.447,0.446,1.172,0,1.619l-56.615,56.615         C56.719,239.192,56.426,239.304,56.133,239.304z"/>
						</g>
						<g>
							<path d="M124.474,210.996H44.406c-0.632,0-1.145-0.513-1.145-1.145s0.513-1.145,1.145-1.145h80.067         c0.632,0,1.145,0.513,1.145,1.145S125.105,210.996,124.474,210.996z"/>
						</g>
						<g>
							<path d="M112.748,239.304c-0.293,0-0.586-0.111-0.81-0.335l-56.615-56.615c-0.446-0.447-0.446-1.172,0-1.619         c0.447-0.447,1.172-0.447,1.619,0l56.615,56.615c0.446,0.447,0.446,1.172,0,1.619         C113.334,239.192,113.041,239.304,112.748,239.304z"/>
						</g>
					</g>
				</g>
			</g>
			<g>
				<g>
					<polygon points="141.52,106.693 364.856,106.693 364.856,371.542 201.489,371.542      "/>
				</g>
				<g>
					<polygon style="fill:#FFC42E;" points="141.52,106.693 141.52,374.863 304.248,449.585 304.248,177.264      "/>
				</g>
				<g>
					<ellipse cx="287.436" cy="298.273" rx="4.982" ry="11.831"/>
				</g>
				<g>
					<polygon style="fill:#FFFFFF;" points="453.693,260.692 401.387,207.763 401.387,234.331 323.759,234.331 323.759,291.618        401.387,291.618 401.387,317.356      "/>
				</g>
			</g>
		</g>
	</g>
</g>















</svg>
