<?xml version="1.0" encoding="UTF-8"?>
<!-- Generator: Adobe Illustrator 26.3.1, SVG Export Plug-In . SVG Version: 6.00 Build 0)  -->
<svg xmlns="http://www.w3.org/2000/svg" xmlns:xlink="http://www.w3.org/1999/xlink" version="1.1" id="Capa_1" x="0px" y="0px" viewBox="0 0 511.924 511.924" style="enable-background:new 0 0 511.924 511.924;" xml:space="preserve" width="512" height="512">
<g>
	<path style="fill:#FD6085;" d="M506.122,447.211c0,35.593-29.122,64.713-64.715,64.713H117.793   c-35.592,0-64.714-29.12-64.714-64.713V64.713C53.079,29.121,82.201,0,117.793,0h323.614C477,0,506.122,29.121,506.122,64.713   V447.211z"/>
	<path style="fill:#FFA4AC;" d="M448.095,398.221c0,26.477-21.66,48.137-48.135,48.137H159.241   c-26.475,0-48.136-21.66-48.136-48.137V113.704c0-26.477,21.661-48.139,48.136-48.139H399.96c26.475,0,48.135,21.662,48.135,48.139   V398.221z"/>
	<path style="fill-rule:evenodd;clip-rule:evenodd;fill:#074785;" d="M227.572,387.81c-7.832-0.003-15.76-6.104-15.76-17.766   v-65.872H26.38c-11.346-0.003-20.576-9.147-20.578-20.387v-18.129c0-11.238,9.231-20.385,20.577-20.385h185.434v-65.874   c0-11.663,7.929-17.766,15.763-17.766c3.297,0,8.252,1.062,13.124,6.122l87.924,91.328c8.3,8.623,8.302,22.654,0.001,31.277   l-87.928,91.328c-4.87,5.06-9.823,6.122-13.121,6.122H227.572z"/>
	<g>
		<g>
			<path style="fill:#FFFFFF;" d="M273.61,87.7c-3.116,36.142-34.926,62.917-71.063,59.807     c-36.149-3.104-62.922-34.915-59.811-71.053c3.107-36.143,34.918-62.919,71.055-59.813     C249.937,19.744,276.713,51.559,273.61,87.7z"/>
			<path style="fill:#074785;" d="M261.748,86.683c-2.301,26.712-25.824,46.522-52.552,44.22     c-26.717-2.295-46.515-25.818-44.224-52.539c2.304-26.728,25.826-46.524,52.547-44.231     C244.243,36.434,264.038,59.959,261.748,86.683z"/>
			<path style="fill:#FFFFFF;" d="M253.889,65.246c-5.001-8.031-11.281-14.755-20.029-18.658c-3.93-1.754-6.215,4.512-2.32,6.256     c7.03,3.138,12.309,8.807,16.325,15.26C250.102,71.705,256.158,68.9,253.889,65.246z"/>
			<path style="fill:#FFFFFF;" d="M223.578,41.691c-1.022-0.301-2.029-0.627-3.044-0.929c-1.746-0.511-3.625,0.176-4.295,1.969     c-0.591,1.613,0.232,3.769,1.972,4.28c1.021,0.306,2.028,0.637,3.044,0.932c1.749,0.518,3.623-0.176,4.292-1.968     C226.14,44.359,225.319,42.206,223.578,41.691z"/>
			<g>
				<path style="fill:#FFFFFF;" d="M257.767,77.175c-0.629-1.705-2.912-2.312-4.439-1.582c-1.743,0.83-2.212,2.728-1.585,4.431      c0-0.038,0.002-0.062,0.004-0.109c-0.054,1.811,1.147,3.441,3.035,3.602c1.732,0.15,3.549-1.217,3.602-3.037      C258.421,79.275,258.183,78.298,257.767,77.175z"/>
				<path style="fill:#FFFFFF;" d="M251.718,80.014c0.007,0.051,0.016,0.106,0.02,0.158c0.002-0.043,0.002-0.097,0.004-0.148      C251.414,79.131,251.664,79.788,251.718,80.014z"/>
				<path style="fill:#FFFFFF;" d="M251.738,80.172C251.728,80.663,251.764,80.424,251.738,80.172L251.738,80.172z"/>
				<path style="fill:#FFFFFF;" d="M251.744,80.035l-0.002-0.012c-0.004,0,0,0,0,0C251.742,80.033,251.742,80.033,251.744,80.035z"/>
			</g>
			<path style="fill:#FFFFFF;" d="M416.464,86.614c-3.106,36.136-34.923,62.916-71.059,59.809     c-36.138-3.107-62.914-34.922-59.812-71.062c3.112-36.136,34.923-62.91,71.063-59.811     C392.797,18.658,419.573,50.468,416.464,86.614z"/>
			<path style="fill:#074785;" d="M395.102,86.001c-2.297,26.725-25.817,46.523-52.547,44.229     c-26.72-2.296-46.519-25.82-44.226-52.546c2.304-26.72,25.829-46.525,52.55-44.226C377.603,35.755,397.4,59.281,395.102,86.001z"/>
			<path style="fill:#FFFFFF;" d="M387.248,64.563c-4.996-8.027-11.279-14.748-20.023-18.649c-3.94-1.755-6.225,4.513-2.318,6.254     c7.029,3.136,12.3,8.806,16.315,15.258C383.464,71.031,389.521,68.223,387.248,64.563z"/>
			<path style="fill:#FFFFFF;" d="M356.934,41.017c-1.02-0.3-2.022-0.628-3.045-0.931c-1.739-0.512-3.622,0.176-4.282,1.966     c-0.599,1.618,0.227,3.772,1.966,4.286c1.018,0.302,2.029,0.63,3.044,0.925c1.741,0.518,3.626-0.172,4.285-1.963     C359.5,43.684,358.684,41.526,356.934,41.017z"/>
			<g>
				<path style="fill:#FFFFFF;" d="M391.13,76.497c-0.633-1.698-2.913-2.313-4.442-1.58c-1.749,0.829-2.209,2.728-1.584,4.429      c0.001-0.037,0.003-0.064,0.003-0.116c-0.053,1.816,1.143,3.449,3.032,3.61c1.734,0.148,3.558-1.216,3.612-3.038      C391.784,78.603,391.545,77.618,391.13,76.497z"/>
				<path style="fill:#FFFFFF;" d="M385.078,79.338c0.012,0.047,0.016,0.101,0.021,0.158c0.001-0.041-0.005-0.097,0.005-0.145      C384.773,78.455,385.021,79.114,385.078,79.338z"/>
				<path style="fill:#FFFFFF;" d="M385.099,79.496C385.094,79.991,385.124,79.744,385.099,79.496L385.099,79.496z"/>
				<path style="fill:#FFFFFF;" d="M385.107,79.361c-0.001-0.006-0.001-0.007-0.004-0.016v0.006      C385.106,79.354,385.106,79.355,385.107,79.361z"/>
			</g>
		</g>
		<path style="fill-rule:evenodd;clip-rule:evenodd;fill:#074785;" d="M301.318,143.125c-1.331-8.331-14.622-8.058-13.271,0.379    c1.073,6.696,0.709,14.019-7.563,14.163c-7.88,0.136-8.758-7.104-9.016-13.356c-0.349-8.552-13.622-8.18-13.272,0.378    c0.599,14.671,7.041,25.361,22.666,26.25C296.408,171.822,303.456,156.461,301.318,143.125z"/>
	</g>
	<g>
		<path style="fill:#FFFFFF;" d="M485.672,283.332l-0.164-86.599c-0.018-9.738-15.121-9.709-15.103,0.03l0.166,86.598    C470.587,293.101,485.692,293.07,485.672,283.332z"/>
		<path style="fill:#FFFFFF;" d="M484.453,172.065c-0.02-9.736-15.122-9.708-15.103,0.029    C469.369,181.838,484.471,181.808,484.453,172.065z"/>
		<path style="fill:#FFFFFF;" d="M486.733,309.899c-0.019-9.738-15.121-9.71-15.101,0.028    C471.651,319.67,486.751,319.641,486.733,309.899z"/>
	</g>
	<g>
		<path style="fill:#FFFFFF;" d="M90.348,430.546l-0.165-86.598c-0.018-9.739-15.122-9.709-15.103,0.03l0.167,86.597    C75.264,440.315,90.368,440.286,90.348,430.546z"/>
		<path style="fill:#FFFFFF;" d="M89.128,319.281c-0.019-9.738-15.121-9.711-15.102,0.026    C74.046,329.051,89.148,329.022,89.128,319.281z"/>
		<path style="fill:#FFFFFF;" d="M91.41,457.114c-0.019-9.739-15.122-9.71-15.102,0.029    C76.327,466.885,91.429,466.853,91.41,457.114z"/>
	</g>
	<g>
		<path style="fill-rule:evenodd;clip-rule:evenodd;fill:#FFFFFF;" d="M406.982,489.652c10.765,0.808,12.013-15.881,1.25-16.69    C397.47,472.159,396.223,488.845,406.982,489.652z"/>
		<path style="fill-rule:evenodd;clip-rule:evenodd;fill:#FFFFFF;" d="M279.269,490.13c32.206,0.119,64.409-0.444,96.617-0.323    c10.535,0.037,10.603-16.309,0.066-16.346c-32.206-0.117-64.41,0.442-96.614,0.327    C268.799,473.747,268.729,490.096,279.269,490.13z"/>
		<path style="fill-rule:evenodd;clip-rule:evenodd;fill:#FFFFFF;" d="M246.865,490.531c10.508,0.785,11.729-15.512,1.218-16.3    C237.573,473.446,236.358,489.743,246.865,490.531z"/>
	</g>
	<g>
		<path style="fill-rule:evenodd;clip-rule:evenodd;fill:#FFFFFF;" d="M212.17,275.917c10.764,0.806,12.012-15.883,1.251-16.689    C202.658,258.426,201.411,275.109,212.17,275.917z"/>
		<path style="fill-rule:evenodd;clip-rule:evenodd;fill:#FFFFFF;" d="M84.455,276.395c32.207,0.119,64.41-0.445,96.618-0.324    c10.535,0.038,10.605-16.307,0.066-16.345c-32.206-0.117-64.407,0.442-96.613,0.325C73.986,260.011,73.916,276.359,84.455,276.395    z"/>
		<path style="fill-rule:evenodd;clip-rule:evenodd;fill:#FFFFFF;" d="M52.053,276.794c10.507,0.787,11.729-15.512,1.217-16.299    C42.761,259.71,41.545,276.008,52.053,276.794z"/>
	</g>
	<path style="fill:#074785;" d="M367.302,197.868c-0.977-0.944-2.936-14.195-4.716-14.088c-1.779,0.108-3.335,13.247-4.168,14.113   c-1.668,1.733-13.883,2.964-13.785,4.649c0.1,1.677,12.096,2.473,13.792,4.114c0.947,0.916,2.935,14.202,4.717,14.096   c1.776-0.102,3.302-13.209,4.169-14.102c1.609-1.676,13.921-2.971,13.823-4.662C381.033,200.302,368.93,199.454,367.302,197.868z"/>
	<path style="fill:#074785;" d="M160.283,349.517c-0.978-0.945-2.937-14.195-4.717-14.088c-1.781,0.109-3.334,13.247-4.168,14.113   c-1.669,1.734-13.885,2.965-13.784,4.649c0.097,1.678,12.095,2.473,13.79,4.115c0.945,0.916,2.934,14.201,4.718,14.097   c1.778-0.103,3.302-13.21,4.167-14.104c1.61-1.677,13.921-2.972,13.823-4.663C174.012,351.95,161.91,351.103,160.283,349.517z"/>
	<path style="fill:#FFFFFF;" d="M355.447,368.007c-0.976-0.946-2.935-14.196-4.713-14.092c-1.782,0.111-3.336,13.249-4.168,14.115   c-1.67,1.736-13.888,2.965-13.787,4.649c0.099,1.679,12.098,2.474,13.791,4.116c0.945,0.913,2.935,14.202,4.718,14.096   c1.776-0.102,3.301-13.206,4.167-14.102c1.611-1.68,13.924-2.975,13.824-4.662C369.179,370.44,357.076,369.592,355.447,368.007z"/>
	<path style="fill:#FFFFFF;" d="M278.272,251.564c-0.975-0.944-2.935-14.194-4.714-14.09c-1.781,0.11-3.335,13.249-4.167,14.115   c-1.668,1.735-13.887,2.965-13.788,4.649c0.102,1.678,12.098,2.474,13.792,4.115c0.945,0.914,2.936,14.202,4.717,14.097   c1.777-0.103,3.301-13.207,4.168-14.104c1.611-1.676,13.924-2.972,13.823-4.661C292.005,253.998,279.902,253.152,278.272,251.564z"/>
	<path style="fill:#FFFFFF;" d="M401.969,276.822c0,3.692-2.991,6.686-6.686,6.686c-3.693,0-6.686-2.993-6.686-6.686   c0-3.693,2.993-6.687,6.686-6.687C398.978,270.136,401.969,273.129,401.969,276.822z"/>
	<path style="fill:#FFFFFF;" d="M246.253,325.152c0,3.693-2.993,6.686-6.688,6.686c-3.693,0-6.686-2.992-6.686-6.686   c0-3.693,2.993-6.688,6.686-6.688C243.26,318.465,246.253,321.459,246.253,325.152z"/>
	<path style="fill:#FFFFFF;" d="M252.94,202.268c0,3.692-2.993,6.686-6.687,6.686c-3.694,0-6.686-2.993-6.686-6.686   c0-3.695,2.993-6.688,6.686-6.688C249.947,195.58,252.94,198.572,252.94,202.268z"/>
	<path style="fill:#FFFFFF;" d="M155.863,213.536c0,3.692-2.992,6.686-6.686,6.686c-3.692,0-6.687-2.993-6.687-6.686   c0-3.694,2.995-6.687,6.687-6.687C152.872,206.85,155.863,209.842,155.863,213.536z"/>
	<path style="fill:#FFFFFF;" d="M97.035,206.85c0,3.693-2.992,6.686-6.688,6.686c-3.693,0-6.685-2.992-6.685-6.686   c0-3.693,2.993-6.688,6.685-6.688C94.042,200.162,97.035,203.156,97.035,206.85z"/>
	<path style="fill:#FFFFFF;" d="M82.995,123.334c0,3.691-2.994,6.686-6.689,6.686c-3.692,0-6.685-2.994-6.685-6.686   c0-3.695,2.993-6.687,6.685-6.687C80.001,116.647,82.995,119.639,82.995,123.334z"/>
	<path style="fill:#FFFFFF;" d="M117.791,52.327c0,3.692-2.994,6.686-6.689,6.686c-3.692,0-6.685-2.993-6.685-6.686   c0-3.693,2.992-6.688,6.685-6.688C114.798,45.64,117.791,48.634,117.791,52.327z"/>
	<path style="fill:#FFFFFF;" d="M429.08,147.754c0,3.692-2.992,6.686-6.688,6.686c-3.692,0-6.686-2.993-6.686-6.686   c0-3.694,2.993-6.688,6.686-6.688C426.088,141.066,429.08,144.06,429.08,147.754z"/>
	<path style="fill:#FFFFFF;" d="M454.782,48.113c0,3.69-2.991,6.686-6.688,6.686c-3.69,0-6.686-2.995-6.686-6.686   c0-3.696,2.995-6.688,6.686-6.688C451.791,41.425,454.782,44.417,454.782,48.113z"/>
	<path style="fill:#FFFFFF;" d="M287.229,33.277c0,3.692-2.993,6.686-6.688,6.686c-3.692,0-6.686-2.993-6.686-6.686   c0-3.693,2.993-6.687,6.686-6.687C284.236,26.591,287.229,29.584,287.229,33.277z"/>
	<path style="fill:#FFFFFF;" d="M491.139,113.645c0,3.693-2.992,6.686-6.686,6.686c-3.693,0-6.687-2.992-6.687-6.686   c0-3.694,2.993-6.687,6.687-6.687C488.146,106.958,491.139,109.95,491.139,113.645z"/>
	<path style="fill:#FFFFFF;" d="M485.87,345.275c0,3.693-2.992,6.686-6.688,6.686c-3.692,0-6.686-2.992-6.686-6.686   c0-3.693,2.993-6.686,6.686-6.686C482.878,338.589,485.87,341.582,485.87,345.275z"/>
	<path style="fill:#FFFFFF;" d="M478.318,447.418c0,3.693-2.993,6.685-6.686,6.685c-3.691,0-6.686-2.992-6.686-6.685   c0-3.694,2.994-6.688,6.686-6.688C475.325,440.73,478.318,443.724,478.318,447.418z"/>
	<path style="fill:#FFFFFF;" d="M406.197,406.692c0,3.693-2.992,6.686-6.688,6.686c-3.692,0-6.686-2.993-6.686-6.686   c0-3.693,2.994-6.687,6.686-6.687C403.205,400.006,406.197,402.999,406.197,406.692z"/>
	<path style="fill:#FFFFFF;" d="M280.542,406.692c0,3.693-2.993,6.686-6.688,6.686c-3.691,0-6.685-2.993-6.685-6.686   c0-3.693,2.993-6.687,6.685-6.687C277.549,400.006,280.542,402.999,280.542,406.692z"/>
	<path style="fill:#FFFFFF;" d="M183.699,413.38c0,3.691-2.992,6.685-6.687,6.685c-3.692,0-6.687-2.994-6.687-6.685   c0-3.695,2.994-6.688,6.687-6.688C180.707,406.692,183.699,409.685,183.699,413.38z"/>
	<path style="fill:#FFFFFF;" d="M190.386,477.623c0,3.692-2.992,6.685-6.687,6.685c-3.692,0-6.687-2.992-6.687-6.685   c0-3.693,2.995-6.688,6.687-6.688C187.394,470.935,190.386,473.93,190.386,477.623z"/>
	<path style="fill:#FFFFFF;" d="M131.165,474.205c0,3.692-2.993,6.685-6.689,6.685c-3.692,0-6.685-2.993-6.685-6.685   c0-3.694,2.993-6.688,6.685-6.688C128.172,467.518,131.165,470.511,131.165,474.205z"/>
	<path style="fill:#FFFFFF;" d="M422.395,326.603c0,3.692-2.994,6.686-6.689,6.686c-3.692,0-6.684-2.993-6.684-6.686   c0-3.693,2.991-6.688,6.684-6.688C419.4,319.915,422.395,322.909,422.395,326.603z"/>
</g>















</svg>
