<svg width="128" height="128" viewBox="0 0 128 128" xmlns="http://www.w3.org/2000/svg">
  <!-- Обложка книги -->
  <rect x="16" y="20" width="96" height="88" rx="8" ry="8" fill="#8b5e3c" stroke="#5a3d26" stroke-width="4"></rect>
  <!-- Линии сгиба обложки -->
  <line x1="64" y1="20" x2="64" y2="108" stroke="#5a3d26" stroke-width="2"></line>
  <!-- Страницы книги -->
  <path d="M18,24 C18,24 36,36 64,36 C92,36 110,24 110,24 L110,96 C110,96 92,84 64,84 C36,84 18,96 18,96 Z" fill="#f3e2b2" stroke="#d2b48c" stroke-width="2"></path>
  <!-- Магический символ на обложке -->
  <circle cx="64" cy="60" r="14" fill="none" stroke="#fcd000" stroke-width="3"></circle>
  <path d="M64,46 L64,74 M50,60 L78,60" stroke="#fcd000" stroke-width="2" stroke-linecap="round"></path>
  <!-- Звёздочка сверху -->
  <polygon points="64,42 66,50 74,50 68,54 70,62 64,58 58,62 60,54 54,50 62,50" fill="#fcd000"></polygon>
  <!-- Тонкий контур свечения -->
  <circle cx="64" cy="60" r="22" fill="none" stroke="#fcd00055" stroke-width="4"></circle>
</svg>
