<svg id="svg8" height="512" viewBox="0 0 135.46666 135.46666" width="512" xmlns="http://www.w3.org/2000/svg" xmlns:svg="http://www.w3.org/2000/svg"><clipPath id="clipPath5136"><rect id="rect5138" height="89.013" rx="7.858" width="87.501" x="-68.036" y="22.301"/></clipPath><clipPath id="clipPath3786"><path id="rect3788" d="m84.667 15.119h79.375v72.571h-79.375z" paint-order="fill markers stroke"/></clipPath><g id="layer1"><g id="g4582" transform="matrix(1.02 0 0 1.02 -11.216 .017)"><g id="g11030"><g id="g11010" stroke-linecap="round" stroke-linejoin="round"><path id="path4750-6" d="m131.30626 69.039204s3.12203 5.096262 2.38744 7.621438c-.7346 2.525175-.64277 2.616999.45912 3.810718 1.10189 1.193718-.32139 1.928316.13774 2.938386.45912 1.010069.68868 1.652841.0459 2.525176-.64277.87233-51.026646 23.402048-56.805396 24.246128-5.778747.84408-5.259311.0649-4.610013-4.22043.6493-4.28536-.129859-13.375531 8.570729-16.686947 8.700538-3.311419 49.81442-20.234469 49.81442-20.234469z" fill="#fff" stroke-width=".972"/><path id="path4560-1" d="m22.28814 34.905484s57.614157-14.570752 61.887522-12.888969c4.273366 1.681784 50.592498 45.209717 52.152388 48.179359 1.55984 2.969642-55.271872 21.426352-57.42564 23.763479-2.153771 2.337129-4.698322 13.207197-4.516498 15.187217s59.481318-24.257828 60.390568-23.327465c.90921.930362 1.26435 4.236976-3.54608 6.238287-4.81043 2.001308-53.116394 21.499648-58.026246 21.857528-4.90985.3579-54.743547-58.455146-55.558982-61.1676-.815435-2.712457 1.81865-16.07873 4.642968-17.841836z" fill="#7738c7" stroke-width=".845"/><g stroke-width=".972"><path id="path4585-2" d="m72.657854 31.01581c-.771445.01162-2.50144.381567-4.67968.933024-.710913 1.711395-2.245745 4.642162-1.04099 5.043749 1.377368.459121.734524 2.479046 1.836421 2.938171 1.101892.459121 1.193719-.367082 2.571086 1.561231 1.37737 1.928316 2.295968.734601 3.673341 2.571088 1.377368 1.836493 2.47926 2.295471 5.142174.458979 2.662912-1.836491 5.141817-.918317 5.968237-.734667.826422.183648 4.224217-.275546 4.866986-2.020211.510592-1.385888.618441-3.233178 1.514532-4.533552-3.547323-4.4351-3.09681-2.48112-8.420812-.747724-5.583959 1.818031-8.96055-5.06444-11.16816-5.454019-.06899-.01216-.157114-.01767-.263135-.01606zm-23.760966 6.50907s-8.310622 1.947714-4.284976 6.362937c.472998.518773 1.382553 1.528673 2.517858 2.790033 3.405834.622502 6.924588 1.795624 8.97219 2.435501 2.938384.918246 4.958452-2.846417 6.335822-.458977 1.377367 2.387436 2.47948.459049 4.77509 1.836417 2.295618 1.37737 2.203789 1.469121 4.499403 1.193647 2.295615-.275474 2.754452 2.111821 4.77459 1.101753 2.02014-1.010073.367584-3.489045.367584-3.489045s-5.601653-6.887275-7.529971-6.336327c-1.928316.550948-2.387294-.367226-3.672837-1.193645-1.285543-.826422-2.29576-1.285403-3.397653-1.101752-1.101891.183647-2.387149.000141-4.131817-1.101753-1.744666-1.101896-2.846489 1.101966-5.050279.0919-2.203785-1.01007-4.175004-2.130688-4.175004-2.130688zm49.793725 9.378442c-1.938486.04709.402596 3.449516-1.910238 2.026237-2.387435-1.469194-4.499546-2.295544-5.325965-1.193647-.826423 1.101893-1.652915-.183723-3.948527-.734668-2.295616-.550949-3.856346 3.030353-3.489045 3.39765.367297.367298 5.692687.09154 6.519109 1.56073.826425 1.469194 2.846777 5.60144 4.775093 5.968741 1.928316.367298 5.60115-1.836492 6.24393 0 .64277 1.836489-.91833 3.94831 1.83641 3.672836s2.20414-3.764378 3.67335-.734163c1.46918 3.030209 2.29526 2.20379 4.68269 1.928315.72976-.0842 1.33834-.159211 1.82788-.158184.64138-1.398454 1.06484-2.697232.25159-3.815452-.67482-.927874-2.72379-2.946358-5.24563-5.364635-.2569.55582-.88324.558677-2.06741-.854686-2.84657-3.397506-5.32625-5.509397-7.621869-5.693048-.07174-.0058-.138836-.0076-.201368-.006zm-21.285288 8.637747s-4.224142 1.2854-9.274492 1.101752c-5.050349-.183653-6.152103-2.203645-8.815014.183791-.646907.579987-1.216483 1.060201-1.727449 1.437199 3.384072 3.729432 7.016262 7.704876 10.458598 11.419745.582167-.140505 1.052198-.442404 1.369408-1.103256 1.101896-2.295614-2.754737-3.214147 1.285543-3.581445 4.040282-.367301 6.15217.0919 6.335821-1.83642.18365-1.928316-1.468832-2.20379-.183291-3.856631 1.285547-1.652841.550876-3.764735.550876-3.764735zm5.794989 1.291069c-.960255-.01105-2.305944.734812-2.305944 2.565562 0 2.662911.367658 3.764949-.826062 4.683197-1.193717.918243-1.377583 5.60108-2.204003 7.437572-.76344 1.696532-3.249041 2.532206-3.985689 4.386917 4.463973 4.693345 7.874685 8.074538 8.657334 8.309333 2.194076.658223 10.843674-2.718974 17.03044-5.34254-.100956-.457227.18653-1.291146.88683-2.670516 3.0302-5.968594-5.142316-2.479261-6.244217-4.866701-1.101889-2.387437 1.308413-4.605833-.734239-5.785159-2.042657-1.179328-1.836635-.09197-2.571231-2.663058s-.73474-3.305251-1.469335-3.948023c-.734599-.642772-4.958668-.734886-5.325969-1.653129-.114778-.286952-.471435-.448431-.907915-.453455z" fill="#171d8f"/><path id="path4566-7" d="m21.780456 35.347491c-2.621565 2.89456-4.901654 14.850944-4.135333 17.400033.815435 2.712453 50.649236 61.525156 55.559086 61.167256 4.909852-.35787 53.215801-19.855931 58.026221-21.85724 4.81044-2.001311 4.45552-5.308043 3.5463-6.238404-.90925-.930363-60.209101 25.307604-60.390925 23.327594-.181825-1.98002 2.362705-12.850362 4.516476-15.187491.095074-.103169.302142-.238959.600589-.402233-8.343039-2.955005-16.651403-9.172565-29.461547-24.333935-12.205984-14.44633-24.488072-29.303779-28.260867-33.87558z" fill="#5230ab"/><path id="path4562-4" d="m34.70684 73.905904-5.05035-6.152243s2.111965-12.763613 4.499404-14.875576c2.387437-2.111965 13.585344-4.857086 15.334696-5.325824 10.446234-2.799061-16.394515-15.271198-22.864309-3.21386-2.020141 3.764808-5.968596 14.508278-6.152246 17.079366-.183648 2.571086 5.050351 9.641577 8.172385 12.396314 3.122035 2.754737 6.06042.09182 6.06042.09182z" fill="#ffc517"/><path id="path4564-3" d="m64.086079 106.38952-5.504859-5.76267s2.111965-12.763616 4.499403-14.875578c2.387437-2.111966 13.585345-4.857087 15.334696-5.325825 10.446235-2.79906-16.394515-15.271198-22.864308-3.213859-2.020142 3.764807-5.968596 14.508278-6.152246 17.079365-.183648 2.571086 5.05035 9.641577 8.172385 12.396317 3.122035 2.75473 6.514929-.29773 6.514929-.29773z" fill="#ffc517"/><path id="path4573-1" d="m27.81297 42.635918c-.445512.504065-.84576 1.067109-1.186618 1.702343-2.020142 3.764807-5.96888 14.508563-6.152531 17.07965-.183648 2.571087 5.050709 9.641218 8.172744 12.395955 3.122034 2.754737 6.060132.0919 6.060132.0919l-5.050278-6.15203s2.111964-12.763685 4.499403-14.875648c.326367-.28871.821656-.589417 1.430669-.894358-2.922945-3.506554-5.530851-6.642462-7.773521-9.34781z" fill="#ffac17"/><path id="path4575-0" d="m56.190842 76.188105c-.230474.319826-.444726.659945-.639759 1.023414-2.020141 3.764807-5.968881 14.508563-6.152531 17.079653-.183648 2.571085 5.05071 9.641208 8.172743 12.395958 3.122035 2.75473 6.514592-.29779 6.514592-.29779l-5.504736-5.76235s2.111963-12.763683 4.499403-14.875646c.392463-.347179 1.026295-.711682 1.813822-1.080157-2.6797-2.297514-5.54954-5.086673-8.703534-8.483082z" fill="#ffac17"/><path id="path4581-4" d="m124.73501 56.873724s-4.48017.194789-3.50621 3.181559c.97394 2.986767 8.18115 7.59678 6.42805 9.155096-1.75311 1.558313-10.51863 4.99959-10.77834 6.817623-.25972 1.818034-.45451 4.480153 3.37633 3.506208 3.83086-.973946 16.62203-6.038469 17.07653-8.570728.45451-2.532261-6.23324-9.090166-8.44085-11.557496-2.20763-2.467331-2.40241-2.727049-4.15551-2.532262z" fill="#ffc517"/><path id="path4583-2" d="m68.911483 22.805547c-.229562 1.42328 2.020139 3.076123 4.728962 2.433351 2.708825-.642772 8.677419-2.892473 10.559823-1.010071 1.882403 1.882403 6.24407 6.106333 7.759173 6.381808 1.515105.275474 4.132106-.13774 3.259774-2.341527-.872334-2.203789-8.26421-9.549753-11.753543-9.366104s-14.875575 2.341526-14.554189 3.902543z" fill="#ffc517"/></g><path id="path5567-2" d="m89.807958 48.300944a13.658485 9.3240952 35.103141 0 1 -3.343447 13.244634 13.658485 9.3240952 35.103141 0 1 -17.206032-8.021183 13.658485 9.3240952 35.103141 0 1 3.343448-13.244634 13.658485 9.3240952 35.103141 0 1 17.206031 8.021183z" fill="#fff" stroke-width="1.171"/><path id="path4587-9" d="m89.450513 47.037395a11.335922 7.7385754 35.103141 0 1 -2.774909 10.992445 11.335922 7.7385754 35.103141 0 1 -14.280226-6.657218 11.335922 7.7385754 35.103141 0 1 2.774911-10.992445 11.335922 7.7385754 35.103141 0 1 14.280224 6.657218z" fill="#ff4b3d" stroke-width=".972"/><path id="path4756-8" d="m73.020661 52.254009a11.335923 7.7385756 35.103141 0 0 13.655153 5.775666 11.335923 7.7385756 35.103141 0 0 4.346384-7.361954c-1.64091 1.250209-4.266391 2.645089-8.191372 3.187643-3.683062.509113-7.163674-.449994-9.810165-1.601355z" fill="#cf1531" stroke-width=".972"/><path id="path4766-1" d="m84.000832 43.097955a3.2775116 2.2374245 35.103141 0 1 -.802299 3.178202 3.2775116 2.2374245 35.103141 0 1 -4.128785-1.924775 3.2775116 2.2374245 35.103141 0 1 .802298-3.178202 3.2775116 2.2374245 35.103141 0 1 4.128786 1.924775z" fill="#fff" stroke-width=".281"/><path id="path4785-3" d="m106.38274 92.952879 12.12338-4.301842s2.2161 12.058203 5.93133 12.644803c3.71522.58662 11.34121 2.41165 12.31891 3.12862.97769.71697-8.21261 1.8902-8.92958 2.54199-.71698.6518.19554 3.97595.84733 5.7358.6518 1.75984-12.84035-2.67236-16.8163-7.49563-3.97594-4.82328-5.47507-12.253741-5.47507-12.253741z" fill="#ff4b3d" stroke-width=".975"/><path id="path4752-4" d="m133.14275 79.048079s-46.922341 15.977471-49.585254 18.089436c-2.662911 2.111964 47.473294-15.242876 47.473294-15.242876s-.3673 1.744669-2.66292 2.662912c-2.29561.918247-48.575179 18.181259-49.4016 19.007679-.826422.82643 53.25823-18.089432 53.90101-19.466801.64276-1.377367.27547-5.05035.27547-5.05035z" fill="#7738c7" stroke-width=".972"/><path id="path4801-3" d="m120.64859 96.344372c-.89732.810957-2.25083 2.148039-4.29339 4.364978-1.77185 1.92309-3.62165 2.92584-5.32074 3.41172.26221.37264.5354.73619.82318 1.08532 1.77187 2.14947 5.43311 4.2201 8.89076 5.70082-.12029-3.51871.88292-8.2269 1.62672-11.183879-.65137-.901572-1.22902-2.099242-1.72653-3.378959z" fill="#cf1531" stroke-width=".975"/></g></g></g></g></svg>