<svg clip-rule="evenodd" fill-rule="evenodd" height="512" stroke-linejoin="round" stroke-miterlimit="2" viewBox="0 0 32 32" width="512" xmlns="http://www.w3.org/2000/svg"><g id="icon"><g><path d="m12.684 29.884s-2.286-.355-2.995-2.405c-.708-2.05-3.467-2.632-4.53-3.214s-3.721-4.379-3.265-6.733c.455-2.354.531-3.341 1.341-4.758.81-1.418 1.266-3.873 1.443-5.088.177-1.214 1.392-2.176 2.404-3.011 1.013-.836 3.291-1.848 5.392-2.253 2.1-.405 5.897-.557 7.415.051 1.519.607 2.481 2.581 3.291 3.138s3.923 1.341 4.733 2.683c.81 1.341 1.822 3.746 2.05 6.15.228 2.405-.101 4.202-.709 5.619-.607 1.418-2.505 2.987-2.607 4.126-.101 1.139-1.164 3.872-2.227 4.075-1.063.202-4.252.582-4.784.81-.531.227-4.134 1.392-6.952.81z" fill="#cdcdcd"/><path d="m16 24.549c.902 0 1.634.732 1.634 1.634s-.732 1.634-1.634 1.634-1.634-.732-1.634-1.634.732-1.634 1.634-1.634zm5.822-8.618c2 0 3.624 1.624 3.624 3.624s-1.624 3.624-3.624 3.624-3.625-1.624-3.625-3.624 1.625-3.624 3.625-3.624zm-13.255.384c1.578 0 2.858 1.281 2.858 2.858s-1.28 2.858-2.858 2.858c-1.577 0-2.858-1.281-2.858-2.858s1.281-2.858 2.858-2.858zm16.471-7.681c.866 0 1.569.703 1.569 1.57 0 .866-.703 1.569-1.569 1.569s-1.569-.703-1.569-1.569c0-.867.703-1.57 1.569-1.57zm-10.672-3.744c1.552 0 2.811 1.259 2.811 2.811 0 1.551-1.259 2.811-2.811 2.811-1.551 0-2.811-1.26-2.811-2.811 0-1.552 1.26-2.811 2.811-2.811z" fill="#acacac"/><path d="m21.512 3.725c.663.742 1.192 1.559 1.668 1.886.81.557 3.923 1.341 4.733 2.683.81 1.341 1.822 3.746 2.05 6.15.228 2.405-.101 4.202-.709 5.619-.607 1.418-2.505 2.987-2.607 4.126-.036.409-.743 2.117-.983 2.747-1.228 1.144-2.118 1.003-3.704 1.704-1.045.155-2.046.315-2.324.434-.365.156-2.184.756-4.201.926-1.302-.002-2.565-.157-3.771-.446-.704-.323-1.582-.938-1.975-2.075-.708-2.05-3.467-2.632-4.53-3.214-.536-.294-1.478-1.405-2.222-2.737 1.27.321 2.605.492 3.982.492 8.403 0 15.226-6.374 15.226-14.226 0-1.414-.221-2.779-.633-4.069z" fill-opacity=".2"/><path d="m29.5 16c0 2.541-.994 5.112-2.526 6.714-.709.742-.941 1.749-1.197 2.734-.205.785-.421 1.561-1.144 2.05-1.067.721-2.908.834-4.414 1.026-.817.104-1.555.356-2.277.585-.644.204-1.272.391-1.942.391-1.604 0-3.688-.128-4.869-.894-.572-.371-.921-.897-1.273-1.438-.416-.64-.833-1.302-1.486-1.849-.63-.528-1.468-.873-2.285-1.229-.701-.306-1.388-.615-1.84-1.135-1.496-1.723-1.747-4.442-1.747-6.955 0-.824.311-1.529.683-2.211.421-.772.921-1.518 1.246-2.336.34-.854.471-1.819.649-2.745.157-.812.344-1.594.827-2.2.172-.215.136-.53-.08-.702s-.531-.136-.703.079c-.58.729-.838 1.657-1.026 2.634-.166.864-.279 1.767-.596 2.565-.311.781-.793 1.489-1.195 2.226-.451.828-.805 1.69-.805 2.69 0 2.757.35 5.721 1.992 7.61.544.627 1.352 1.029 2.195 1.396.727.318 1.482.609 2.043 1.079.572.48.925 1.068 1.29 1.628.428.659.871 1.281 1.567 1.732 1.315.853 3.626 1.055 5.413 1.055.773 0 1.501-.203 2.244-.438.667-.211 1.347-.45 2.101-.546 1.659-.212 3.672-.395 4.848-1.189.94-.636 1.285-1.606 1.551-2.627.214-.82.362-1.677.953-2.295 1.69-1.768 2.803-4.601 2.803-7.405 0-.276-.224-.5-.5-.5s-.5.224-.5.5zm-13.5 8.066c-1.12 0-2.03.91-2.03 2.03s.91 2.03 2.03 2.03 2.03-.91 2.03-2.03-.91-2.03-2.03-2.03zm0 1c.568 0 1.03.462 1.03 1.03s-.462 1.03-1.03 1.03-1.03-.462-1.03-1.03.462-1.03 1.03-1.03zm4.087.215s1.149.26 2.421.113c.896-.103 1.844-.41 2.535-1.101.195-.195.195-.512 0-.707s-.512-.195-.707 0c-.527.526-1.26.736-1.943.815-1.096.126-2.086-.096-2.086-.096-.269-.06-.537.109-.598.378-.06.27.109.537.378.598zm.656-8.61c.323-.111.669-.171 1.03-.171 1.75 0 3.171 1.421 3.171 3.171 0 1.751-1.421 3.172-3.171 3.172s-3.171-1.421-3.171-3.172c0-.367.062-.719.177-1.047.091-.261-.046-.546-.307-.637-.26-.092-.546.046-.637.306-.151.432-.233.895-.233 1.378 0 2.302 1.869 4.172 4.171 4.172s4.171-1.87 4.171-4.172-1.869-4.171-4.171-4.171c-.474 0-.93.079-1.355.226-.261.089-.4.374-.311.635.09.261.375.4.636.31zm-11.217 4.779c-.284.109-.593.169-.915.169-1.413 0-2.56-1.147-2.56-2.56 0-1.412 1.147-2.559 2.56-2.559 1.412 0 2.559 1.147 2.559 2.559 0 .276.224.5.5.5s.5-.224.5-.5c0-1.964-1.595-3.559-3.559-3.559-1.965 0-3.56 1.595-3.56 3.559 0 1.965 1.595 3.56 3.56 3.56.449 0 .878-.084 1.274-.235.257-.099.386-.389.287-.646-.099-.258-.388-.387-.646-.288zm1.263-1.047c-.097.157-.21.302-.338.434-.191.198-.186.515.013.707.198.192.515.186.707-.012.176-.183.333-.385.468-.602.145-.235.073-.543-.162-.688-.235-.146-.543-.073-.688.161zm10.984-1.881c.592 0 1.073.48 1.073 1.072s-.481 1.073-1.073 1.073-1.073-.481-1.073-1.073.481-1.072 1.073-1.072zm-4.934.79c0-1.872 1.136-3.48 2.754-4.173.254-.109.372-.403.263-.656-.109-.254-.403-.372-.656-.263-1.976.846-3.361 2.808-3.361 5.092 0 .276.225.5.5.5.276 0 .5-.224.5-.5zm2.553-1.735c.08-.091.165-.177.255-.258.204-.185.22-.501.035-.706-.185-.204-.502-.22-.706-.035-.118.106-.229.219-.334.338-.182.207-.162.523.045.706.207.182.523.162.705-.045zm1.429-2.739c.247-.041.501-.063.76-.063.276 0 .5-.224.5-.5s-.224-.5-.5-.5c-.315 0-.625.027-.927.077-.272.046-.455.305-.409.577s.304.455.576.409zm-14.469-5.188s-.145 2.73-1.949 4.242c-.212.177-.24.493-.063.704.177.212.493.239.705.062 2.111-1.768 2.305-4.951 2.305-4.951.016-.275-.195-.512-.471-.528-.275-.015-.512.195-.527.471zm22.848 2.982c.084.441.149.89.196 1.34.029.275.276.474.55.445.275-.029.474-.275.445-.55-.05-.477-.119-.954-.209-1.423-.052-.271-.314-.449-.585-.397-.271.051-.449.313-.397.585zm-19.26-1.503c.592 0 1.072.481 1.072 1.073s-.48 1.072-1.072 1.072-1.073-.48-1.073-1.072.481-1.073 1.073-1.073zm15.053-2.953c-1.091 0-1.976.885-1.976 1.976 0 1.09.885 1.975 1.976 1.975 1.09 0 1.975-.885 1.975-1.975 0-1.091-.885-1.976-1.975-1.976zm-15.707-4.255c2.011-.958 4.395-1.421 6.714-1.421 1.89 0 3.743.179 5.099 1.15.383.274.653.702.935 1.129.348.526.706 1.055 1.192 1.427.629.483 1.436.747 2.223 1.023.657.232 1.304.466 1.749.947.733.791 1.252 1.803 1.611 2.914.085.263.368.407.63.322.263-.085.407-.367.322-.63-.406-1.255-1.002-2.392-1.829-3.285-.553-.597-1.335-.924-2.151-1.211-.686-.241-1.398-.452-1.947-.873-.399-.306-.68-.752-.966-1.185-.352-.533-.709-1.049-1.187-1.391-1.514-1.084-3.571-1.337-5.681-1.337-2.468 0-5.003.498-7.144 1.519-.25.118-.355.417-.237.666.119.249.418.355.667.236zm5.184.162c-1.957 0-3.547 1.589-3.547 3.546 0 1.958 1.59 3.547 3.547 3.547 1.958 0 3.547-1.589 3.547-3.547 0-1.957-1.589-3.546-3.547-3.546zm10.523 5.093c.538 0 .975.437.975.976 0 .538-.437.975-.975.975-.539 0-.976-.437-.976-.975 0-.539.437-.976.976-.976zm-10.523-4.093c1.406 0 2.547 1.141 2.547 2.546 0 1.406-1.141 2.547-2.547 2.547-1.405 0-2.547-1.141-2.547-2.547 0-1.405 1.142-2.546 2.547-2.546zm7.303 1.886c.471 0 .854.382.854.853 0 .472-.383.854-.854.854s-.854-.382-.854-.854c0-.471.383-.853.854-.853zm-4.541-2.407s1.652 1.169 1.436 3.509c-.026.275.177.519.452.544s.518-.177.544-.452c.273-2.962-1.862-4.422-1.862-4.422-.226-.158-.538-.101-.696.125-.157.227-.101.539.126.696zm-10.418.983c.218-.197.447-.384.686-.561.222-.164.269-.477.105-.699-.165-.222-.478-.269-.7-.104-.265.196-.519.403-.761.622-.205.185-.221.501-.036.706.184.205.501.221.706.036z"/></g></g></svg>