<?xml version="1.0" encoding="UTF-8"?>
<svg xmlns="http://www.w3.org/2000/svg" xmlns:xlink="http://www.w3.org/1999/xlink" version="1.1" id="Layer_1" x="0px" y="0px" viewBox="0 0 512 512" style="enable-background:new 0 0 512 512;" xml:space="preserve" width="512" height="512">
<g>
	<path style="fill:#FFE177;" d="M337.727,282.533C400.809,158.367,486.126,139.367,504.5,7.5&#10;&#9;&#9;c-64.582,84.892-137.048,36.922-197.67,176.266c6.559-61.83,28.516-118.692,79.778-166.096&#10;&#9;&#9;C263.24,38.473,262.82,136.989,219.234,146.235c13.723-28.468,19.724-57.478,18.089-87.021&#10;&#9;&#9;C185.5,158.022,113.657,157.045,93.662,192.458c-11.685,20.696-25.742,39.909-42.518,56.745C24.173,276.27,7.5,313.604,7.5,354.835&#10;&#9;&#9;c0,47.953,22.552,90.638,57.627,118.029c14.127,11.031,36.164,7.073,53.699,12.488c13.975,4.316,22.946,19.148,38.339,19.148&#10;&#9;&#9;c41.286,0,75.743-14.378,101.385-40.265c12.508-12.627,27.458-22.386,43.703-29.596c41.443-18.394,57.626-137.92,188.061-227.547&#10;&#9;&#9;C425.213,200.399,379.721,244.127,337.727,282.533z"/>
	<path style="fill:#FFD15B;" d="M337.727,282.533C400.809,158.367,486.126,139.367,504.5,7.5&#10;&#9;&#9;c-13.892,18.261-28.149,30.372-42.575,39.524c6.581,46.495-82.755,113.538-140.889,208.231&#10;&#9;&#9;C313.374,267.735,323.125,283.646,337.727,282.533L337.727,282.533z"/>
	<path style="fill:#FFD15B;" d="M429.799,215.674c-95.44,84.263-112.314,180.896-149.23,197.281&#10;&#9;&#9;c-16.244,7.21-31.195,16.969-43.703,29.596c-25.642,25.887-60.1,40.265-101.385,40.265c-15.392,0-24.363-14.833-38.339-19.148&#10;&#9;&#9;c-17.535-5.415-39.572-1.457-53.699-12.488c-0.812-0.634-1.61-1.285-2.408-1.935c7.119,8.746,15.201,16.676,24.093,23.62&#10;&#9;&#9;c14.127,11.031,36.164,7.073,53.699,12.488c13.975,4.316,22.946,19.148,38.339,19.148c41.286,0,75.743-14.378,101.385-40.265&#10;&#9;&#9;c12.508-12.627,27.458-22.386,43.703-29.596c41.442-18.394,57.626-137.92,188.061-227.547&#10;&#9;&#9;C468.066,204.805,448.11,208.408,429.799,215.674z"/>
	<path style="fill:#685E68;" d="M262.397,354.835c0,58.118-47.114,105.232-105.232,105.232c-10.823,0-17.13-10.429-26.956-13.463&#10;&#9;&#9;c-12.329-3.807-27.824-1.024-37.756-8.781c-24.662-19.259-40.519-49.271-40.519-82.988c0-58.118,47.114-105.232,105.232-105.232&#10;&#9;&#9;c13.396,0,19.998,0.321,31.783,4.885c5.558,2.152,15.142,17.349,20.197,20.372c7.358,4.401,16.088-0.73,22.139,5.274&#10;&#9;&#9;C250.498,299.2,262.397,325.628,262.397,354.835z"/>
	<path style="fill:#554E56;" d="M185.251,302.216l16.104,7.374c2.262,1.036,4.81,1.266,7.221,0.652l11.053-2.814&#10;&#9;&#9;c4.084-1.04,7.202-4.343,8.004-8.48l3.65-18.813c-6.051-6.004-14.78-0.874-22.138-5.274c-5.054-3.023-14.639-18.219-20.197-20.372&#10;&#9;&#9;l-12.727,18.8c-1.935,2.858-2.4,6.464-1.255,9.72l4.546,12.92C180.492,298.716,182.564,300.986,185.251,302.216z"/>
	<path style="fill:#554E56;" d="M155.975,416.955l-1.988-5.386c-2.575-6.977-10.229-10.644-17.28-8.277l-8.098,2.718&#10;&#9;&#9;c-1.884,0.632-3.882,0.849-5.857,0.635l-11.491-1.244c-7.185-0.778-13.746,4.137-15.019,11.251l-3.789,21.17&#10;&#9;&#9;c9.933,7.756,25.427,4.973,37.756,8.781c9.826,3.034,16.134,13.463,26.956,13.463l9.853-15.825&#10;&#9;&#9;c3.539-5.684,2.471-13.092-2.531-17.544l-4.754-4.231C158.047,420.966,156.756,419.073,155.975,416.955z"/>
	<path style="fill:#554E56;" d="M120.49,296.698l-13.711,4.983c-1.171,0.426-2.241,1.092-3.139,1.956l-8.447,8.122&#10;&#9;&#9;c-1.751,1.684-2.741,4.008-2.741,6.438v17.585c0,1.326,0.295,2.635,0.864,3.832l7.291,15.346c1.114,2.344,3.192,4.088,5.693,4.777&#10;&#9;&#9;l14.477,3.99c4.084,1.126,8.398-0.773,10.326-4.546l7.568-14.812c1.071-2.095,1.271-4.529,0.558-6.771l-4.84-15.211&#10;&#9;&#9;c-0.635-1.994-0.549-4.148,0.243-6.086l2.336-5.716c1.864-4.562-0.32-9.772-4.88-11.641l-5.16-2.115&#10;&#9;&#9;C124.873,295.986,122.578,295.939,120.49,296.698z"/>
	<path style="fill:none;stroke:#000000;stroke-width:15;stroke-linecap:round;stroke-linejoin:round;stroke-miterlimit:10;" d="&#10;&#9;&#9;M185.251,302.216l16.104,7.374c2.262,1.036,4.81,1.266,7.221,0.652l11.053-2.814c4.084-1.04,7.202-4.343,8.004-8.48l3.65-18.813&#10;&#9;&#9;c-6.051-6.004-14.78-0.874-22.138-5.274c-5.054-3.023-14.639-18.219-20.197-20.372l-12.727,18.8c-1.935,2.858-2.4,6.464-1.255,9.72&#10;&#9;&#9;l4.546,12.92C180.492,298.716,182.564,300.986,185.251,302.216z"/>
	<path style="fill:none;stroke:#000000;stroke-width:15;stroke-linecap:round;stroke-linejoin:round;stroke-miterlimit:10;" d="&#10;&#9;&#9;M155.975,416.955l-1.988-5.386c-2.575-6.977-10.229-10.644-17.28-8.277l-8.098,2.718c-1.884,0.632-3.882,0.849-5.857,0.635&#10;&#9;&#9;l-11.491-1.244c-7.185-0.778-13.746,4.137-15.019,11.251l-3.789,21.17c9.933,7.756,25.427,4.973,37.756,8.781&#10;&#9;&#9;c9.826,3.034,16.134,13.463,26.956,13.463l9.853-15.825c3.539-5.684,2.471-13.092-2.531-17.544l-4.754-4.231&#10;&#9;&#9;C158.047,420.966,156.756,419.073,155.975,416.955z"/>
	<path style="fill:none;stroke:#000000;stroke-width:15;stroke-linecap:round;stroke-linejoin:round;stroke-miterlimit:10;" d="&#10;&#9;&#9;M120.49,296.698l-13.711,4.983c-1.171,0.426-2.241,1.092-3.139,1.956l-8.447,8.122c-1.751,1.684-2.741,4.008-2.741,6.438v17.585&#10;&#9;&#9;c0,1.326,0.295,2.635,0.864,3.832l7.291,15.346c1.114,2.344,3.192,4.088,5.693,4.777l14.477,3.99&#10;&#9;&#9;c4.084,1.126,8.398-0.773,10.326-4.546l7.568-14.812c1.071-2.095,1.271-4.529,0.558-6.771l-4.84-15.211&#10;&#9;&#9;c-0.635-1.994-0.549-4.148,0.243-6.086l2.336-5.716c1.864-4.562-0.32-9.772-4.88-11.641l-5.16-2.115&#10;&#9;&#9;C124.873,295.986,122.578,295.939,120.49,296.698z"/>
	<g>
		
			<line style="fill:none;stroke:#000000;stroke-width:15;stroke-linecap:round;stroke-linejoin:round;stroke-miterlimit:10;" x1="212.447" y1="350.823" x2="219.234" y2="348.181"/>
		
			<line style="fill:none;stroke:#000000;stroke-width:15;stroke-linecap:round;stroke-linejoin:round;stroke-miterlimit:10;" x1="202.816" y1="379.557" x2="206.833" y2="384.842"/>
		
			<line style="fill:none;stroke:#000000;stroke-width:15;stroke-linecap:round;stroke-linejoin:round;stroke-miterlimit:10;" x1="174.348" y1="354.835" x2="171.493" y2="361.54"/>
	</g>
	<path style="fill:none;stroke:#000000;stroke-width:15;stroke-linecap:round;stroke-linejoin:round;stroke-miterlimit:10;" d="&#10;&#9;&#9;M307.786,431.493c37.626-26.109,58.051-138.868,182.529-224.401c-65.101-6.693-110.593,37.035-152.587,75.441&#10;&#9;&#9;C400.809,158.367,486.126,139.367,504.5,7.5c-64.582,84.892-137.048,36.922-197.67,176.266&#10;&#9;&#9;c6.559-61.83,28.516-118.692,79.778-166.096c-33.054,5.574-57.275,16.729-75.872,30.249"/>
	<path style="fill:none;stroke:#000000;stroke-width:15;stroke-linecap:round;stroke-linejoin:round;stroke-miterlimit:10;" d="&#10;&#9;&#9;M288.358,67.733c-32.045,34.132-42.58,72.872-69.124,78.502c13.723-28.468,19.724-57.478,18.089-87.021&#10;&#9;&#9;C185.5,158.022,113.657,157.045,93.662,192.458c-11.685,20.696-25.742,39.909-42.518,56.745C24.173,276.27,7.5,313.604,7.5,354.835&#10;&#9;&#9;c0,47.953,22.552,90.638,57.627,118.029c14.127,11.031,36.164,7.073,53.699,12.488c13.975,4.316,22.946,19.148,38.339,19.148&#10;&#9;&#9;c41.286,0,75.743-14.378,101.385-40.265c7.174-7.242,15.155-13.537,23.719-18.952"/>
	<path style="fill:none;stroke:#000000;stroke-width:15;stroke-linecap:round;stroke-linejoin:round;stroke-miterlimit:10;" d="&#10;&#9;&#9;M59.99,395.261c7.017,16.848,18.279,31.486,32.462,42.561c9.933,7.757,25.427,4.973,37.756,8.781&#10;&#9;&#9;c9.826,3.034,16.134,13.463,26.957,13.463c58.118,0,105.231-47.114,105.231-105.231c0-29.207-11.899-55.635-31.114-74.701&#10;&#9;&#9;c-6.051-6.004-14.78-0.874-22.139-5.274c-5.054-3.022-14.639-18.219-20.197-20.372c-11.784-4.564-18.387-4.885-31.782-4.885&#10;&#9;&#9;c-58.118,0-105.232,47.114-105.232,105.231c0,4.03,0.233,8.006,0.674,11.918"/>
</g>















</svg>
