<svg id="Music" height="512" viewBox="-70.866 -70.866 850.394 850.394" width="512" xmlns="http://www.w3.org/2000/svg">
    <g>
        <path d="m476.153 507.648c133.457-62.828 150.137-191.925 132.777-315.093-1.277-33.996-7.66-71.965-38.758-88.25-23.211-12.344-35.762-10.813-56.168-7.293-19.758-71.262-85.43-118.09-163.122-118.059-77.344-.961-136.398 49.215-155.34 118.473-45.313-10.289-86.711 10.945-93.418 68.363-.75 8.875-1.598 17.801-2.453 26.75-15.98 115.957-4.238 249.641 120.785 311.426 3.445 23.656 16.336 44.402 36.906 59.641-10.602 1.754-20.984 3.785-31.109 6.09-40.688 9.277-64.609 41.391-60.941 81.824 3.137 34.609 27.965 56.922 73.801 66.328 74.449 15.457 162.547 16.883 233.465-2.023 90.652-22.215 85.109-130.723-5.566-148.031-8.406-1.957-17.086-3.688-26-5.176 18.829-14.345 31-33.368 35.141-54.97z"
              fill="#fff"/>
        <g>
            <path d="m469.899 343.012c.527-.594 1.012-1.273 1.449-2.059.5-.758.871-1.516 1.148-2.258 20.797-39.586 19.781-90.863 18.113-134.125-1.668-43.125-5.629-96.188-30.117-133.215-44.495-67.3-162.339-74.714-208.132-6.042-26.977 40.461-31.867 91.605-34.359 139.035-2.301 43.801-2.16 97.082 19.703 136.605 49.925 90.238 178.629 80.336 232.195 2.059z"
                  fill="#68182b"/>
            <path d="m204.535 174.5c.117-.523.238-1.043.309-1.578 1.605-12.035-.848-24.383-9.836-33.055-5.516-5.32-11.055-6.43-18.426-6.852-7.543-.434-13.039.859-19.656 4.832-11.527 6.922-15.582 18.426-16.668 31.168-6.676 78.961-21.082 162.023 22.637 233.156 22.262 36.223 56.977 61.746 96.027 77.324-6.711 34.785 16.727 57.02 48.836 66.813.359 16.508 1.586 32.961 3.707 49.328-26.523 2.027-52.512 5.859-76.707 11.371-21.777 4.961-33.34 18.965-31.336 41.059 2.008 22.156 25.418 28.609 43.375 32.293 68.246 13.996 148.661 16.203 216.372-1.629 15.609-3.961 33.754-12.277 35.438-30.676 2.523-27.746-15.703-37.27-40.27-42.992-21.129-4.918-43.617-8.109-66.625-9.758 2.188-16.961 3.43-34.012 3.73-51.117 28.168-10.43 47.965-31.129 43.363-61.996 38.641-14.754 73.965-39.121 97.898-70.559 54.227-71.219 38.762-158.641 31.723-241.938-1.18-13.93-5.523-25.117-17.957-32.586-7.277-4.371-13.434-4.383-21.613-3.906-7.313.422-13.125 3.703-17.781 9.445-9.59 11.824-7.988 25.66-5.891 39.754 8.504 61.488 18.008 130.254-17.207 185.223-29.555 46.145-90.063 63.012-141.813 61.27-48.398-1.621-97.262-23.984-125.977-63.449-37.945-52.145-24.73-130.512-15.719-189.719.067-.429.048-.82.067-1.226z"
                  fill="#68182b"/>
            <path d="m251.188 319.434c-1.738-4.172-3.277-8.551-4.566-13.16-.887-2.656 1.063-4.586 4.652-4.871 9.684-.77 19.359-1.688 29.082-1.707 7.484-.02 29.59 4.535 18.699 16.91-5.629 6.398-20.844 4.793-28.375 4.938-4.34.086-8.773.137-13.184.434-4.101.276-5.054.467-6.308-2.544z"
                  fill="#dda96b"/>
            <path d="m462.384 307.793c-1.055 3.543-2.254 7.031-3.613 10.434-1.602 4.016-4.238 4.074-9.52 3.969-12.973-.27-26.406 1.402-37.797-4.277-4.586-2.289-4.434-8.242-2.496-12.297 2.512-5.254 11.52-5.527 16.301-5.84 10.957-.719 22.07.668 33.051 1.641 4.226.382 5.464 1.686 4.074 6.37z"
                  fill="#dda96b"/>
            <path d="m470.016 254.543c-.16 4.66-2.617 4.266-7.477 4.121-13.313-.391-27.168 1.547-38.883-4.301-4.594-2.285-4.445-8.238-2.5-12.293 2.512-5.254 11.523-5.523 16.301-5.84 9.078-.594 18.266.246 27.391 1.109 4.016.379 5.43 1.91 5.406 5.91-.035 3.739-.105 7.509-.238 11.294z"
                  fill="#dda96b"/>
            <path d="m468.001 179.566c.297 3.52.551 7.035.77 10.547.242 3.938-1.609 5.156-5.453 5.012-13.543-.48-27.723 1.641-39.66-4.316-4.594-2.289-4.445-8.242-2.5-12.297 2.512-5.254 11.523-5.523 16.301-5.84 8.141-.531 16.375.102 24.574.871 3.843.363 5.624 1.848 5.968 6.023z"
                  fill="#dda96b"/>
            <path d="m456.653 115.188c1.234 4 2.367 8.039 3.383 12.121.961 3.836-.578 4.883-4.039 4.547-14.965-1.438-31.16 2.07-44.543-4.602-4.586-2.285-4.434-8.238-2.496-12.293 2.512-5.254 11.52-5.531 16.301-5.84 8.465-.559 17.031.16 25.563.961 4.269.41 4.565.984 5.831 5.106z"
                  fill="#dda96b"/>
            <path d="m248.403 127.941c1.086-4.418 2.305-8.801 3.68-13.117 1.293-4.09 2.324-4.332 6.574-4.676 7.223-.578 14.445-1.102 21.699-1.113 7.484-.02 29.59 4.535 18.699 16.91-5.629 6.398-20.844 4.789-28.375 4.938-5.902.109-11.973.125-17.918.836-3.746.453-5.441.633-4.359-3.778z"
                  fill="#dda96b"/>
            <path d="m239.891 191.051c.086-1.438.172-2.859.273-4.277.184-2.676.391-5.375.613-8.07.34-4.125 2.027-4.711 6.914-5.094 6.809-.547 13.621-1.008 20.461-1.023 7.48-.02 29.59 4.535 18.699 16.91-5.629 6.395-20.844 4.793-28.375 4.938-4.426.09-8.941.129-13.426.441-4.757.327-5.429.382-5.159-3.825z"
                  fill="#dda96b"/>
            <path d="m238.91 208.445c20.887-3.168 55.867 5.137 62.035-19.617 7.965-31.957-33.902-29.766-58.414-27.586.602-4.969 1.305-9.941 2.129-14.898.102-.031.176-.004.273-.039 19.242-6.762 61.395 6.355 68.215-21.027 7.551-30.301-29.688-29.906-54.461-27.922 4.109-9.156 9.137-17.844 15.324-25.828 44.684-57.633 146.77-36.242 176.165 25.762-24.254-2.234-57.824-3.32-54.871 26.309 2.879 28.883 50.578 16.426 68.434 22.707.074.027.133.008.207.027.836 4.93 1.566 9.887 2.195 14.863-24.359-2.391-61.773-5.258-58.641 25.953 2.602 25.977 41.375 18.551 62.16 21.359.156 4.578.289 9.141.387 13.664.02.98.043 1.984.063 2.973-23.988-2.359-65.914-7.41-62.609 25.563 2.57 25.68 40.512 18.707 61.461 21.25-.547 5.953-1.313 11.879-2.332 17.715-.41-.105-.746-.297-1.207-.324-21.227-1.34-73.781-11.844-70.117 24.91 2.293 23.031 33.063 19.789 54.5 20.711-46.859 64.152-149.606 65.582-190.641-.156 20.82-.918 48.563 2.898 53.984-18.875 9.449-37.922-51.273-27.762-69.895-26.59-.176.012-.297.105-.469.125-1.094-5.828-1.922-11.727-2.586-17.672 21.004-2.656 54.707 4.832 60.746-19.414 8.441-33.867-39.074-29.387-62.59-27.211.106-5.603.294-11.181.555-16.732z"
                  fill="#ffc522"/>
            <path d="m243.789 237.469c8.109-.656 16.223-1.305 24.363-1.324 7.48-.02 29.59 4.535 18.699 16.91-5.629 6.391-20.844 4.789-28.375 4.938-4.25.086-8.586.125-12.906.398-5.27.352-6.578.746-6.809-3.848-.215-4.066-.348-8.148-.418-12.234-.065-3.731 1.521-4.516 5.446-4.84z"
                  fill="#dda96b"/>
            <path d="m442.29 623.441c7.91 1.258 15.945 2.781 23.582 5.383 6.879 2.348 8.449 4.313 9.707 12.223 1.359 8.508-2.246 13.656-10.805 15.445-2.391.672-4.797 1.305-7.211 1.898-39.746 10.465-81.809 10.758-122.645 9.773-24.816-.594-49.633-2.84-74.152-6.648-6.508-1.016-12.949-2.414-19.387-3.785-19.902-4.254-20.309-24.355-1.012-30.383 39.852-12.445 87.719-10.215 128.946-9.703 24.403.305 48.871 1.958 72.977 5.797z"
                  fill="#ffc522"/>
            <path d="m328.953 550.898c14.922 1.957 30.559 1.594 45.25-1.023-.406 14.84-1.469 29.672-3.461 44.375-12.742-.387-25.559-.359-38.333.133-1.956-14.41-3.03-28.945-3.456-43.485z"
                  fill="#dda96b"/>
            <path d="m278.949 493.746c-.641-6.52 1.859-6.684 7.793-5.082 21.727 5.895 44.148 9.031 66.043 9.395 19.915.336 40.45-2.348 60.575-7.641 3.645-.965 5.465.051 4.898 4.078-6.843 48.305-134.422 49.254-139.309-.75z"
                  fill="#ffc522"/>
            <path d="m201.973 376.09c30.785 47.789 89.617 70.418 144.191 73.898 57.274 3.66 117.133-18.477 153.754-63.215 47.418-57.941 35.055-141.645 25.605-209.973-.715-4.84-2.219-11.129-.738-16.258 2.797-9.77 14.438-7.566 18.965-1.863 2.27 2.84 3.191 6.477 3.582 11.016 5.898 69.773 20.93 146.957-14.867 211.039-33.539 60.039-106.699 92.723-173 96.109-71.668 3.672-145.059-31.133-182.817-92.574-38.332-62.371-21.105-146.574-15.297-215.254.723-8.512 5.938-16.324 14.512-14.879 9.492 1.59 8.859 10.645 8.098 17.074-10.305 67.798-21.074 144.2 18.012 204.88z"
                  fill="#dda96b"/>
            <g fill="#c48d51">
                <path d="m425.259 109.121c-4.781.309-13.789.586-16.301 5.84-.469.984-.832 2.082-1.051 3.219 16.086-6.902 32.137-4.379 49.059-1.895-.113-.367-.199-.738-.313-1.098-1.266-4.121-1.563-4.695-5.832-5.105-8.531-.801-17.098-1.519-25.562-.961z"/>
                <path d="m464.848 237.34c-9.125-.863-18.313-1.703-27.391-1.109-4.777.316-13.789.586-16.301 5.84-.27.563-.492 1.156-.684 1.773 13.82-7.738 33.559-4.785 49.641-1.93-.319-2.934-1.776-4.246-5.265-4.574z"/>
                <path d="m458.309 301.422c-10.98-.973-22.094-2.359-33.051-1.641-4.781.313-13.789.586-16.301 5.84-.324.68-.574 1.418-.785 2.176 14.688-8.238 37.203-4.172 54.375-.895.919-3.863-.335-5.121-4.238-5.48z"/>
                <path d="m532.466 380.734c25.328-45.344 25.188-97.246 20.863-148.445-.051 26.73-1.266 53.426-5.785 80.348-6.031 35.953-18.359 69.813-43.922 96.535-27.574 28.828-66.836 45.137-104.895 54.449-83.114 20.336-182.102-13.77-222.543-92.105-15.148-29.34-16.859-65.918-18.727-98.18-1.109-19.234-1.344-38.582-.793-57.902-5.965 57.711-10.051 119.965 19.984 168.836 37.758 61.441 111.148 96.246 182.817 92.574 66.301-3.387 139.462-36.071 173.001-96.11z"/>
                <path d="m371.817 584.02c-15.066 4.121-31 2.359-41.282-7.324.52 5.906 1.074 11.813 1.875 17.688 12.773-.492 25.59-.52 38.333-.133.461-3.396.715-6.821 1.074-10.231z"/>
                <path d="m280.356 299.695c-9.723.02-19.398.938-29.082 1.707-3.59.285-5.539 2.215-4.652 4.871.195.699.484 1.313.695 2 17.156-6.281 38.195-6.258 54.582 1.324-.981-7.12-15.696-9.913-21.543-9.902z"/>
                <path d="m289.492 185.152c2.855-9.109-14.813-12.586-21.34-12.566-6.84.016-13.652.477-20.461 1.023-4.887.383-6.574.969-6.914 5.094-.039.469-.066.93-.102 1.391 15.509-3.379 37.267-4.403 48.817 5.058z"/>
                <path d="m289.106 249.578c4.262-9.75-14.223-13.453-20.953-13.434-8.141.02-16.254.668-24.363 1.324-3.926.324-5.512 1.109-5.445 4.84.012.727.059 1.449.074 2.184 17.202-3.629 35.394-3.488 50.687 5.086z"/>
                <path d="m250.715 119.688c18.184-3.613 33.785-3.738 51.047 1.543 2.25-8.828-14.965-12.215-21.406-12.195-7.254.012-14.477.535-21.699 1.113-4.25.344-5.281.586-6.574 4.676-.512 1.601-.899 3.249-1.368 4.863z"/>
                <path d="m462.032 173.543c-8.199-.77-16.434-1.402-24.574-.871-4.777.316-13.789.586-16.301 5.84-.328.695-.586 1.445-.797 2.215 9.656-6.934 33.527-4.574 47.488-1.898-.5-3.548-2.234-4.95-5.816-5.286z"/>
            </g>
            <path d="m413.36 490.418c-20.125 5.293-40.66 7.977-60.575 7.641-21.895-.363-44.316-3.5-66.043-9.395-5.934-1.602-8.434-1.438-7.793 5.082.043.43.16.824.219 1.246 8.547-1.574 20.664 3.223 27.207 4.746 12.125 2.836 24.832 3.039 37.207 3.625 14.954.707 29.977.43 44.821-1.516 9.883-1.293 19.348-3.441 29.141-4.188.277-1.039.563-2.074.715-3.164.566-4.026-1.254-5.042-4.899-4.077z"
                  fill="#ffa222"/>
            <path d="m293.391 267.609c8.824-4.926 12.02-15.762 8.344-24.359.223 2.711.074 5.676-.789 9.137-6.039 24.246-39.742 16.758-60.746 19.414.23 2.07.512 4.121.789 6.176 9.367-4.621 23.746-2.992 32.809-4.199 6.976-.934 13.452-2.743 19.593-6.169z"
                  fill="#ffa222"/>
            <path d="m238.699 214.793c9.434-5.148 25.195-2.785 34.051-3.586 7.93-.719 15.402-3.121 21.855-7.785 5.449-3.934 8.77-12.449 7.113-19.281-.148 1.492-.355 3.016-.773 4.688-6.168 24.754-41.148 16.449-62.035 19.617-.097 2.109-.132 4.238-.211 6.347z"
                  fill="#ffa222"/>
            <path d="m244.66 146.344c-.414 2.492-.715 4.984-1.066 7.484 7.184-5.254 18.191-4.301 26.844-4.043 10.652.316 21.145-.914 30.953-5.148 9.379-4.047 14.453-14.645 12.477-23.586-.164 1.352-.348 2.723-.719 4.227-6.82 27.383-48.973 14.266-68.215 21.027-.098.035-.172.008-.274.039z"
                  fill="#ffa222"/>
            <path d="m463.739 146.305c-17.855-6.281-65.555 6.176-68.434-22.707-.496-4.977.113-9.02 1.457-12.398-4.887 7.902-4.953 19.695 1.699 26.359 17.773 17.797 45.582 4.27 66.207 13.703-.25-1.641-.445-3.293-.723-4.93-.073-.019-.132 0-.206-.027z"
                  fill="#ffa222"/>
            <path d="m395.305 314.258c-.844-8.484 1.398-14.363 5.465-18.504-9.078 6.895-11.301 23.289-3.027 31.699 13.172 13.383 33.242 5.883 47.852 12.91 1.441-1.75 2.859-3.543 4.211-5.395-21.438-.921-52.208 2.321-54.501-20.71z"
                  fill="#ffa222"/>
            <path d="m407.501 250.707c-1.09-10.883 2.801-17.566 9.293-21.629-14.852 5.082-16.023 27.652-4.582 37.613 7.207 6.27 18.867 6.711 27.883 6.875 7.469.141 14.707-.422 22.164.613 2.578.355 4.477 1.391 6.168 2.605.18-1.609.391-3.211.535-4.828-20.95-2.542-58.891 4.431-61.461-21.249z"
                  fill="#ffa222"/>
            <path d="m407.501 187.148c-.324-3.203-.121-5.961.355-8.484-4.035 8.539-1.008 20.961 6.848 26.211 16.184 10.805 38.082 1.816 55.07 7.5-.043-1.293-.066-2.57-.113-3.867-20.785-2.809-59.559 4.617-62.16-21.36z"
                  fill="#ffa222"/>
            <path d="m310.664 327.789c5.656-7.695 6.941-17.445 2.84-24.301.891 3.426.871 7.527-.355 12.449-5.422 21.773-33.164 17.957-53.984 18.875 1.008 1.613 2.086 3.156 3.168 4.699 8.031-2.34 22.141-1.43 26.129-1.891 7.245-.843 17.577-3.526 22.202-9.831z"
                  fill="#ffa222"/>
            <path d="m334.918 668.164c40.836.984 82.899.691 122.645-9.773 2.414-.594 4.82-1.227 7.211-1.898 8.559-1.789 12.164-6.938 10.805-15.445-.027-.145-.051-.258-.07-.395-15.215 13.262-33.242 17.414-54.352 19.617-27.434 2.859-55.543 2.676-83.083 2.484-13.785-.098-100.801-.316-110.371-25.84-4.168 8.066.379 17.977 13.676 20.816 6.438 1.371 12.879 2.77 19.387 3.785 24.519 3.809 49.336 6.055 74.152 6.649z"
                  fill="#ffa222"/>
            <path d="m434.505 631.191c-44.383-5.484-117.418-7.113-168.555-1.016-24.008 2.867-20.496 11.504-.32 13.133 52.945 4.27 121.575 2.496 169.293-1.023 19.351-1.422 19.687-8.609-.418-11.094z"
                  fill="#fbe134"/>
            <path d="m274.012 71.527c-4.113 5.309-7.672 10.949-10.832 16.816 10.043-10.816 20.016-21.371 32.695-29.77 20.508-13.57 45.395-17.277 69.43-14 22.246 3.027 42.102 14.035 59.941 27.086 8.574 6.277 15.68 13.723 22.66 21.277-32.003-58.604-130.281-77.663-173.894-21.409z"
                  fill="#fbe134"/>
            <path d="m415.497 503.207c-2.57 2.035-5.25 3.965-8.117 5.734-13.523 8.336-29.906 12.266-45.383 15.016-17.266 3.066-35.961 1.832-52.821-2.586-9.801-2.57-17.309-8.488-25.133-13.973 22.797 33.098 113.649 31.016 131.454-4.191z"
                  fill="#fbe134"/>
            <path d="m439.399 347.25c-4.09 2.598-8.289 5.051-12.723 7.172-20.816 9.973-43.828 16.031-66.742 18.273-18.161 1.773-36.586-.336-54.356-4.082-8.582-1.805-16.227-4.871-23.664-8.352 44.504 35.262 115.466 30.219 157.485-13.011z"
                  fill="#fbe134"/>
        </g>
    </g>
</svg>