<svg id="Layer_1" enable-background="new 0 0 180 180" height="512" viewBox="0 0 180 180" width="512" xmlns="http://www.w3.org/2000/svg"><g id="_x31_7"><g><path d="m146.5302887 125.8160477c-.5437012 2.395607-1.1569061 4.7603073-1.9707031 7.0781021l-.0166016.0473022c-.4971008 1.4156952-1.4736023 2.6313934-2.7928009 3.3462982-.0886993.0480957-.1728973.091095-.2509918.1279907l-64.7165298 30.9420013c-3.2720032 1.5626984-7.1984024.175705-8.7611008-3.0961914-.0676727-.1415405-41.4825974-86.7603531-41.4216995-86.6337051-.4750996-.9880981-.5618-2.1161957-.355999-3.1931.9916344-5.1856232 1.4454117-7.0132751 1.5114994-7.3311996l.8171234 2.4664001c.9804821-.7565002-2.7732029 1.2282944 65.8396759-31.635498 3.2718964-1.5627022 7.1983185-.1758003 8.7610931 3.0960999l40.5138321 84.7097015c1.523592.0292969 2.8432026.0757981 2.8432026.0757981z" fill="#3d76ef"/></g><g><path d="m142.8453827 130.5131531-64.427124 30.8045959c-3.353096 1.6031952-7.3710022.1846924-8.9742966-3.168396l-41.2783012-86.3326034c-1.6031761-3.3531036-.1845989-7.3710022 3.1685009-8.9743004l64.4270992-30.8046036c3.353096-1.603199 7.3709946-.1845989 8.9742203 3.1684036l41.2782974 86.3327026c1.603302 3.3530923.1847076 7.3709908-3.168396 8.9742013z" fill="#4f91ff"/></g><g><path d="m128.8800812 117.8973465-51.5114212 24.6324997c-1.9826965.9474945-4.356102.1074066-5.3035965-1.8753967-.0764847-.1599274-32.5902405-68.1529236-32.6610031-68.3009033-.9473991-1.9827957-.107399-4.356102 1.8753014-5.3034973 2.7850647-1.33181-13.9312916 6.6618881 51.5115013-24.6326027 1.9826965-.9473991 4.3559952-.107399 5.3034973 1.8753014 5.9144058 12.368248 25.591507 53.5171585 32.661026 68.3010025.9474029 1.9826964.1073913 4.3562011-1.8753052 5.3035964z" fill="#ebeef4"/></g><g><path d="m128.8800812 117.8973465-51.5114212 24.6324997c-1.9826965.9474945-4.356102.1074066-5.3035965-1.8753967-.0764847-.1599274-32.5902405-68.1529236-32.6610031-68.3009033-.9473991-1.9827957-.107399-4.356102 1.8753014-5.3034973l48.9035988-23.3824005c.2052002.1367989.4103012.2929993.6055984.4590988-2.9204025 4.7761002-7.8234024 7.9406013-12.6679001 10.7437019-7.1298981 4.1315994-14.5039978 7.8429985-22.0734978 11.1051979-2.7250023 1.1817017-6.3389015 2.4319-8.1555023 4.9029999-1.836174 2.5102005-1.9045982 6.3486023-1.3478966 9.259201.6641998 3.4281998 2.2659988 6.6025009 3.8579979 9.7182007 3.9361992 7.7258987 7.8722992 15.4612961 11.8181 23.196701 2.7152977 5.3426971 5.7334023 10.987999 10.9782982 13.879097 5.3815994 2.9496994 12.0427017 2.3539047 17.8932037.5468979 7.2472-2.2463989 13.8497009-6.1433945 20.3741226-10.0112 3.2034988-1.9045944 6.5047989-3.8872986 8.7220001-6.8856964 2.6467972-3.5747986 3.4574966-8.2533035 3.1253967-12.697197-.0292969-.3614044-.0585938-.7130051-.1074982-1.0646057 10.3465576 21.6163559 6.7780151 14.1608429 7.5500031 15.7737045.947403 1.9826966.1073914 4.3562013-1.8753051 5.3035966z" fill="#dbdfe6"/></g><g><path d="m90.2419586 47.8650475c1.4420013-.6894989 1.7067032-2.7142982.4942017-3.8824997-3.7141037-3.578701-9.0155029-5.3806-13.8719025-4.5066986-1.7919006.3223991-3.6430969.9695969-5.4039001.3498001-1.9198761-.6758003-3.1496964-2.676403-3.8890991-4.6399002-.739296-1.963501-1.1792984-4.0729008-2.3239975-5.8296013-1.7833023-2.7366009-5.5154991-4.3862-8.4836998-3.3262997-2.3173866.8274269-6.0255089 2.4476376-7.3885994 4.4949989-1.3020134 1.9556637-1.7223816 4.5519428-.9696999 6.8839016.6485977 1.9939995 2.0142212 3.6607971 3.0782242 5.4690971 1.0639992 1.8082008 1.8490753 4.0216026 1.1695747 5.9402008-.6231003 1.7596016-2.2891998 2.7941017-3.6651993 3.9864006-3.7292023 3.231102-5.6553001 8.4887009-5.2019005 13.6264.1479988 1.6772003 1.8901978 2.7425003 3.3322983 2.0530014z" fill="#ffca6c"/></g><g><path d="m51.1343613 36.9577484c.6543007 1.9925003 2.021698 3.6625977 3.0862999 5.4694977 1.0645981 1.8069 1.8460007 4.0142021 1.1623001 5.9383011-.6152992 1.7580986-2.2854767 2.793499-3.6627007 3.9850998-3.7308998 3.2328987-5.6551018 8.4874992-5.2056999 13.625.097599.9766998.712925 1.7385025 1.5041008 2.0802994l-.8986015.4299011c-1.4455757.6836014-3.1841011-.3809967-3.330574-2.0512009-.4589996-5.1375008 1.4650764-10.4017982 5.1960754-13.6348 1.3772011-1.1914978 3.0472984-2.2268982 3.6625977-3.9848976.6837006-1.914402-.097599-4.1316032-1.1623001-5.9383011-1.0644989-1.8069992-2.4319-3.4771996-3.0764999-5.4696999-.7488289-2.2459984-.3519897-4.9153824.9668999-6.8858013 1.3623619-2.0434532 5.0626564-3.6602764 7.3838997-4.4926987.7521019-.2637005 1.5529022-.3614998 2.3538017-.3028011-1.2891998.4687996-2.5393982 1.0255013-3.7406998 1.6896-1.2307014.6739006-2.4612999 1.4553013-3.2621994 2.6567001-1.2925721 1.9305249-1.7366868 4.5044232-.9766999 6.8858014z" fill="#ffb63c"/></g><g><path d="m62.0962601 33.4680481c1.1007996 2.3022995.1300011 5.0681-2.1725006 6.1689987-2.3092003 1.1040993-5.0712738.1231995-6.1721992-2.1791992-1.1008987-2.3025017-.1268005-5.0614014 2.1823006-6.1655006 2.3026236-1.1008988 5.0615004-.1268998 6.1623992 2.1757011z" fill="#fff"/></g><g><path d="m129.9651794 106.0322495c-1.5523987 1.2060013 4.557724-3.5407181-14.5640945 11.3143005-.8242416-24.8409195-.5395203-16.2601166-.6012039-18.1190033 7.0006027-.8068009 12.0186004 1.1194 15.1652984 6.8047028z" fill="#f3b2a1"/></g><g><path d="m120.2850876 113.5509491c-.1015701.0790024-1.8808136 1.4555435-1.7677994 1.3675003l-3.1157074 2.4319992c-.0033951-.1026306-.2287369-6.9032211-.2148972-6.4855042 1.8947983.4103013 3.6724015 1.3479996 5.098404 2.6860047z" fill="#3d4449"/></g><g><path d="m152.2721863 55.6810493-2.1585083 4.8153c-1.470047-.6591339 5.3253479 2.3877373-14.3770905-6.4463005.0456085-.1012039.6707153-1.4880028.6250916-1.3868027l1.5237122-3.4087982c.5761871-1.2696991 1.8556976-2.0705986 3.2425995-2.0511017 4.3029785.044281 7.7553101 1.6618347 10.5484009 4.7176018.9180907 1.0253983 1.1524962 2.5101013.5957946 3.7601013z" fill="#b785ff"/></g><g><path d="m152.2721863 55.6810493-2.1585083 4.8153-8.4386902-3.7799034c-2.2475281-1.8260002-4.3032074-3.2577744-5.5184021-3.9848976 2.7947083-1.1988983 6.0230408.8565521 8.6632996 1.4943008 1.4552917.3516998 3.0767059.3614998 4.3462982-.4297028.9571991-.5957985 1.6116943-1.7580986 1.5433044-2.8518982.3320923.3027.6542969.6347008.9669037.9766998.9180908 1.0253984 1.1524963 2.5101014.5957947 3.7601014z" fill="#a46ef2"/></g><g><path d="m148.1699829 65.4677505-18.2057037 40.5625992c-1.7287903-.5958023-3.0082932-1.8557053-4.092392-3.3403015-2.5981064.1072998-5.1473007-1.0158005-6.7393036-3.0670013-1.4242935.5865326-2.9256134.2518311-4.3366013-.3906021l18.2058029-40.5723991c20.7865754 9.3293037 13.6172486 6.1116142 15.1681977 6.8077048z" fill="#ff6161"/></g><g><path d="m148.1699829 65.4677505-18.2057037 40.5625992c-1.7287903-.5958023-3.0082932-1.8557053-4.092392-3.3403015-2.5981064.1072998-5.1473007-1.0158005-6.7393036-3.0670013-1.3283005.5469971-2.6957016.2930984-4.0045013-.2537994 4.6513367-.7515488 9.8781967 1.8628693 14.0841064-.7033005 2.3928986-1.4455032 3.5746918-4.2192993 4.6197968-6.8076019 2.3343048-5.7820969 4.658905-11.5642014 6.9933014-17.3366013.8887939-2.2170944 1.8067932-4.6001968 1.3379974-6.9442978-.3612976-1.8557968-1.572403-3.4673004-3.0375061-4.6783981-1.4650879-1.2111015-3.1840973-2.0609016-4.8834991-2.9009018.4589996-.0584984.9181061-.1171989 1.3673096-.1660995z" fill="#f04444"/></g><g><path d="m152.2917786 61.6488457-2.1390991 4.766201c-.4394989.9766998-1.7384949 1.1917038-2.7346954.5373001-4.2779999-2.8127975-9.2395935-5.0690994-14.8654938-6.6221008-.0781097-.0291977-.1562042-.0487976-.2344055-.0682983-1.1231995-.3027992-1.8069-1.4259987-1.3672943-2.3930016l2.1486969-4.7955971c.3027954-.6739006 1.0744019-1.0647011 1.8752899-.9180031 6.41362 1.1401711 12.0057068 3.6431427 16.7896118 7.5108032.6151885.5079003.8202972 1.3184967.5273895 1.9826966z" fill="#ebf2ff"/></g><g><path d="m56.2033997 84.5340652 39.5166016-20.1523438c.2963867-.1499481.521347.2960815.2275391.4453125l-39.5166017 20.1523438c-.2963867.1501694-.5211715-.2961654-.227539-.4453125z"/></g><g><path d="m62.2834778 94.6092606 39.5166016-20.1513672c.1230469-.0615234.2744141-.0136719.3364258.109375.0629883.1230469.0136719.2734375-.1088867.3359375l-39.5166017 20.1513672c-.296276.1501159-.5209274-.2956925-.227539-.4453125z"/></g><g><path d="m68.3635559 104.6854324 39.5166016-20.1513672c.1230469-.0615234.2744141-.0136719.3364258.109375.0629883.1230469.0136719.2734375-.1088867.3359375l-39.5166016 20.1513672c-.2962799.150116-.5209275-.2956924-.2275391-.4453125z"/></g><g><path d="m74.443634 114.7616043 39.5166016-20.1523438c.2969666-.1508408.5207672.2963715.2275391.4453125l-39.5166016 20.1523438c-.2963867.1501694-.5211716-.2961655-.2275391-.4453125z"/></g><g><path d="m153.8136902 21.9555473.0016937.0111008-4.0305023 21.096199c-.2812042 1.5461998-1.7696991 2.5758018-3.313797 2.3057022-.1219025-.0220604-10.7947845-1.9532967-11.3237-2.0490036-1.4285736 1.5179329 3.692749-3.9237022-7.1596985 7.607502l-2.7851028-.5649986.9570007-3.7681999-2.2291031-5.2942009-10.9584961-1.9695015c-1.5458984-.2812996-2.5644989-1.7714996-2.2945023-3.3157997 6.1562958-32.1356926 3.2119827-16.7664719 4.0418015-21.0980988.2792969-1.5570002 1.7566986-2.5847998 3.3136978-2.3056002 35.9365463 6.475071 33.5821304 6.026844 33.8180008 6.1138 1.361908.4123984 2.2261048 1.7901984 1.9627076 3.2310992z" fill="#2dc97d"/></g><g><path d="m151.0286865 21.3906479.0018005.0110989-4.0306091 21.0963993c-.281189 1.5458031-1.7696991 2.5757027-3.3138885 2.3055-3.0050354-.5437241-8.5405273-1.5452995-11.3238068-2.0488968l-7.1595993 7.6072998-4.0571976-9.6274033-10.9586029-1.9694977c-1.5458984-.2812004-2.5645218-1.7714005-2.294426-3.3157005 6.1560287-32.1356964 3.2118454-16.7664738 4.041626-21.0980988.2794037-1.5569 1.7567978-2.585 3.3138046-2.3056002 36.0787354 6.5007992 33.5922699 6.0308723 33.8181915 6.1138 1.3616029.4123985 2.2261048 1.7902996 1.9627076 3.2310993z" fill="#3be094"/></g><g><path d="m123.5219879 26.2983475c-.3085022 1.7133999-1.943306 2.8491993-3.6567001 2.5405998-1.7134018-.3085995-2.849205-1.9433994-2.5406036-3.6567993.3077011-1.7082005 1.9433975-2.8492012 3.6567993-2.5405998 1.7134018.3085994 2.8481979 1.9485988 2.5405044 3.6567993z" fill="#fff"/></g><g><path d="m132.1936798 27.9333477c-.3085022 1.7133999-1.9432983 2.8491993-3.6566925 2.5405998-1.7134018-.3085995-2.849205-1.9433994-2.5406036-3.6567993.3077011-1.7082005 1.9432983-2.8492012 3.6567993-2.5405998 1.7133941.3085995 2.8482055 1.9485988 2.5404968 3.6567993z" fill="#fff"/></g><g><path d="m140.843689 29.5995483c-.308609 1.7132988-1.9432983 2.8491974-3.6567078 2.5405998-1.713501-.3086014-2.8491974-1.9434013-2.5406036-3.6568012.3076019-1.7081985 1.9433136-2.8491993 3.6567078-2.5405998 1.7135009.3085995 2.848297 1.9486008 2.5406036 3.6568012z" fill="#fff"/></g><g><path d="m118.5172882 114.9184494-3.1157074 2.4319992-.0976944-3.0377045c.5694733.6694031 1.8997421 1.1184235 3.2134018.6057053z" fill="#2a3134"/></g><g><path d="m152.2917786 61.6488457-2.1390991 4.766201c-.4394989.9766998-1.7384949 1.1917038-2.7346954.5373001-4.2779999-2.8127975-9.2395935-5.0690994-14.8654938-6.6221008 3.7489014.0146942 6.1330109 2.3040009 13.0782013 4.3366013 2.2373505.6837463 3.0583038.189537 4.5024872-1.7287979 1.4025726-1.886879 1.161438-2.746582-.2442017-3.9556007-1.2988892-1.1038017-2.6272888-2.1682014-4.0043945-3.1743011 2.080307 1.0840988 4.0435028 2.3734016 5.8798065 3.8580017.6151885.5079001.8202972 1.3184965.5273895 1.9826964z" fill="#dbe6fa"/></g><g opacity=".4"><g><path d="m93.5261612 51.7495461c.1035995.2438011.1105957.2598.0209961.0480003 1.7475815 4.1616554 3.1961212 8.2587357 5.5834045 11.8921013.645401.9823036 2.0200958 1.489399 3.0783997.8071022.9804001-.6320038 1.4985199-2.0263023.8071976-3.0784035-2.4376907-3.7100868-3.8018723-7.707737-5.6043015-11.9400978-.4630966-1.087101-2.1460953-1.4083023-3.0784988-.8071022-1.1299973.7285004-1.3025971 1.9151001-.8071976 3.0783997z" fill="#fff"/></g></g><g opacity=".4"><g><path d="m103.1175613 71.1585464c.378418.7017059 1.3514175 1.2733612 2.2419205 1.0742035 1.2578049-.0571442 2.8696289-1.6549988 1.1765747-3.9896011-.1413956-.2621994-.3345718-.472702-.5795746-.6313019-.6656418-.6092072-1.7789841-.7328415-2.9542236.1759033-1.0432663 1.0499955-.7432404 2.1863709.115303 3.3707962z" fill="#fff"/></g></g><g opacity=".4"><g><path d="m130.3779907 68.3064499c-1.2257996 2.4801941-2.2847137 5.0495987-3.1504059 7.6774979-.3684998 1.1185989.4271011 2.507103 1.5715027 2.7677994 1.2384033.2819977 2.3731995-.3738022 2.7677917-1.5715027.8582153-2.6051559 1.6536102-4.4920883 2.696701-6.6026001.5207977-1.0536957.3182068-2.4838943-.8071899-3.0783997-1.0156097-.5366974-2.5216064-.3192978-3.0783996.8072052z" fill="#fff"/></g></g><g opacity=".4"><g><path d="m124.7032852 81.5512466c-.340416.5809021-.5604324.8543777-.5839996 1.3771973-.4306946 1.922699 2.5695038 4.133606 4.4697037.894104.4351959-.6837769.4380341-1.828064-.1760101-2.4989014-.3342133-.5162888-.7425995-.6265411-1.1686935-.8063965-.9947282-.2671432-2.018387.1512223-2.5410005 1.0339966z" fill="#fff"/></g></g><g opacity=".4"><g><path d="m113.0763855 17.2409477c-.3142014 2.0095997-.6285019 4.0193005-.9428024 6.0289001-.0643997.4123001-.0676956.7817001.1512985 1.1557999.7184448 1.2284527 2.5682068.749979 2.7416-.3583012.3142014-2.0095997.6285019-4.0191994.9428024-6.0288982.0644989-.4123001.0677032-.7817001-.1511993-1.1558018-.7192993-1.2292461-2.5684433-.7491054-2.7416992.3583012z" fill="#fff"/></g></g><g opacity=".4"><g><path d="m111.2939835 27.8546467c-.3193207 1.5136375-.3541336 1.5280399-.286499 1.8296013.0173492.3850136.2583542.7803783.5643005.9785995.6725006.6154175 2.0388336.3486156 2.3553009-.7791996.319252-1.5133305.354248-1.5267029.286499-1.8296013-.0274048-.6010818-.5702133-1.1271286-1.074501-1.2469997-1.0626145-.1431217-1.6532059.3627586-1.8451004 1.0475998z" fill="#fff"/></g></g></g></svg>