<?xml version="1.0" encoding="UTF-8"?>
<!-- Generator: Adobe Illustrator 25.3.1, SVG Export Plug-In . SVG Version: 6.00 Build 0)  -->
<svg xmlns="http://www.w3.org/2000/svg" xmlns:xlink="http://www.w3.org/1999/xlink" version="1.1" id="Capa_1" x="0px" y="0px" viewBox="0 0 512 512" style="enable-background:new 0 0 512 512;" xml:space="preserve" width="512" height="512">
<g>
	<path style="fill:#074784;" d="M470.428,66.377c-5.165-1.133-10.326-2.223-15.496-3.293c-2.607-10.119-9.534-18.381-18.112-20.296   C370.934,28.3,304.309,19.241,236.939,15.612C225,15.008,212.846,26.538,210.042,41.136c-5.259,27.612-10.009,55.296-14.272,83.048   c-9.927,61.076-17.428,122.474-22.502,184.212c-1.188,14.819,7.443,29.168,19.113,31.769   c57.471,12.644,115.508,21.141,174.112,25.514c20.786,2.175,41.644,3.831,62.571,4.959c11.941,0.61,24.091-10.916,26.899-25.519   c15.568-81.728,26.76-164.05,33.574-246.964C490.729,83.332,482.093,68.979,470.428,66.377z"/>
	<path style="fill:#FFFFFF;" d="M433.282,330.493c-2.808,14.603-14.958,26.124-26.899,25.519   c-67.367-3.629-133.995-12.688-199.881-27.175c-11.67-2.602-20.304-16.95-19.113-31.774   c6.814-82.918,18.007-165.241,33.574-246.964c2.808-14.603,14.958-26.129,26.897-25.524   c67.367,3.629,133.995,12.683,199.883,27.175c11.67,2.602,20.303,16.955,19.113,31.774   C460.04,166.438,448.85,248.765,433.282,330.493z"/>
	<path style="fill:#074784;" d="M461.518,309.428c-2.806,14.603-14.953,26.124-26.897,25.519   c-67.365-3.624-133.995-12.683-199.886-27.171c-11.665-2.607-20.299-16.955-19.111-31.774   c6.817-82.918,18.006-165.246,33.577-246.968c2.806-14.598,14.956-26.124,26.899-25.519   c67.367,3.629,133.995,12.683,199.883,27.171c11.668,2.607,20.304,16.96,19.113,31.779   C488.281,145.378,477.089,227.706,461.518,309.428z"/>
	<path style="fill:#29ADFC;" d="M431.146,144.591c-0.902,3.149-7.297,5.16-14.161,4.45c-38.716-4.052-77.268-9.294-115.662-15.721   c-6.802-1.147-12.431-4.791-12.462-8.074c-0.086-18.338,2.357-36.335,7.34-53.986c0.903-3.149,7.304-5.16,14.161-4.45   c38.715,4.052,77.273,9.294,115.667,15.721c6.802,1.147,12.428,4.796,12.462,8.074   C438.572,108.943,436.124,126.935,431.146,144.591z"/>
	<path style="fill:#F18545;" d="M321.585,87.965c-6.577,0.331-13.148,0.711-19.715,1.123c-6.452-11.32-17.5-18.986-28.438-18.472   c-84.003,4.191-167.113,15.15-249.33,32.888c-14.555,3.188-25.389,21.04-23.978,39.517c2.734,34.938,6.101,69.789,10.081,104.568   c8.096,76.711,19.214,153.029,33.361,228.943c3.435,18.223,18.522,32.643,33.413,31.952   c73.269-3.658,145.866-12.467,217.782-26.431c25.716-4.205,51.341-9.059,76.884-14.565c14.562-3.188,25.397-21.036,23.983-39.517   c-8.086-103.402-21.628-206.097-40.631-308.054C351.569,101.699,336.472,87.273,321.585,87.965z"/>
	<path style="fill:#FFFFFF;" d="M363.551,417.818c1.407,18.482-9.423,36.325-23.983,39.513   c-82.217,17.738-165.323,28.697-249.326,32.888c-14.891,0.701-29.979-13.729-33.411-31.947   c-19-101.962-32.547-204.648-40.631-308.054c-1.411-18.482,9.423-36.33,23.978-39.517c82.217-17.737,165.325-28.702,249.33-32.888   c14.886-0.696,29.981,13.734,33.411,31.947C341.918,211.725,355.462,314.411,363.551,417.818z"/>
	<path style="fill:#F18545;" d="M390.604,383.221c1.414,18.482-9.421,36.325-23.981,39.512   c-82.217,17.738-165.325,28.702-249.33,32.893c-14.886,0.691-29.974-13.739-33.404-31.952   C64.886,321.713,51.34,219.022,43.253,115.62c-1.409-18.482,9.421-36.33,23.983-39.517c82.22-17.733,165.325-28.697,249.333-32.888   c14.879-0.696,29.974,13.734,33.404,31.952C368.973,177.123,382.517,279.814,390.604,383.221z"/>
	<path style="fill:#F9D555;" d="M308.773,170.652c-0.062,4.493-7.789,9.452-17.114,10.984   c-52.637,8.602-105.49,15.577-158.554,20.915c-9.404,0.936-18.158-1.853-19.384-6.173c-6.723-24.213-9.978-48.878-9.759-74.004   c0.058-4.498,7.791-9.457,17.116-10.993c52.639-8.598,105.487-15.568,158.556-20.916c9.402-0.936,18.16,1.858,19.379,6.178   C305.739,120.852,308.989,145.522,308.773,170.652z"/>
	<g>
		<path style="fill-rule:evenodd;clip-rule:evenodd;fill:#074784;" d="M284.351,125.768c0.07,1.224-3.521,2.683-7.976,3.25    L131.08,147.481c-4.457,0.567-8.161,0.029-8.23-1.191c-0.074-1.219,3.519-2.679,7.976-3.25l145.293-18.463    C280.575,124.016,284.281,124.549,284.351,125.768z"/>
		<path style="fill-rule:evenodd;clip-rule:evenodd;fill:#074784;" d="M288.856,153.183c0.072,1.224-3.519,2.683-7.978,3.25    l-145.29,18.462c-4.457,0.567-8.161,0.034-8.233-1.191c-0.07-1.214,3.519-2.683,7.978-3.245l145.293-18.462    C285.083,151.431,288.786,151.964,288.856,153.183z"/>
	</g>
	<g>
		<path style="fill-rule:evenodd;clip-rule:evenodd;fill:#F9D555;" d="M360.037,336.983c-5.588,30.847-34.698,51.408-65.017,45.916    c-30.319-5.492-50.371-34.947-44.793-65.795c5.588-30.853,34.698-51.408,65.017-45.921    C345.568,276.675,365.615,306.135,360.037,336.983z"/>
		<path style="fill-rule:evenodd;clip-rule:evenodd;fill:#074784;" d="M306.958,367.811c-3.139,0.173-6.322-0.014-9.207-0.538    c-9.426-1.719-17.766-6.865-22.889-14.118c-2.967-4.205-5.362-8.933-6.572-12.976c-0.586-1.949-4.728-20.243-1.03-24.088    l0.876-0.903l1.248,0.168c0.35,0.048,0.73,0.159,1.123,0.322l0.657,0.278l0.41,0.581c0.468,0.662,0.982,1.935,1.001,2.972    l0.027,1.987c0.036,2.751,0.07,5.583,0.406,8.338c1.892,15.352,11.406,26.954,24.228,29.566c2.763,0.562,6.046,1.109,9.447,0.922    l0.274-0.014c10.962-0.711,20.904-7.882,27.257-19.672c0.854-1.579,1.546-3.269,2.22-4.911l0.312-0.758    c0.351-0.85,0.655-1.728,0.948-2.578c0.202-0.59,0.403-1.176,0.617-1.747l0.065-0.178l0.091-0.158    c0.514-0.927,1.769-1.699,2.859-1.757l0.274-0.014l0.274,0.048c1.769,0.298,2.971,1.647,2.856,3.216    c-0.125,1.728-0.662,3.461-1.111,4.781c-5.285,15.414-17.747,27.67-31.016,30.502    C310.842,367.461,308.943,367.706,306.958,367.811z"/>
		<g>
			<g>
				<path style="fill-rule:evenodd;clip-rule:evenodd;fill:#074784;" d="M291.967,319.197c-1.351-0.005-2.743-0.975-3.473-2.405      c-1.793-3.514-1.644-7.172-1.258-10.292c0.377-3.087,1.154-5.708,2.376-8.017c1.073-2.035,2.187-3.351,3.605-4.272      c0.679-0.437,1.428-0.662,2.182-0.658c1.543,0.005,2.861,0.951,3.432,2.477c1.625,4.272,1.831,6.951,0.912,11.944      c-0.35,2.611-1.378,5.281-2.957,7.59c-0.658,0.97-1.613,1.93-2.914,2.947C293.287,318.972,292.646,319.202,291.967,319.197z"/>
			</g>
			<g>
				<path style="fill-rule:evenodd;clip-rule:evenodd;fill:#074784;" d="M321.398,324.559c-1.488-0.005-2.897-1.047-3.499-2.592      c-0.646-1.676-1.051-3.605-1.282-6.077c-0.115-1.291-0.005-2.568,0.101-3.696l0.101-1.267l0.058-0.24      c0.955-3.744,1.939-7.623,4.995-10.479c0.617-0.576,1.584-1.349,2.847-1.344c0.276,0,0.557,0.038,0.843,0.11      c1.229,0.298,2.098,1.037,2.801,2.381c1.915,3.658,1.661,7.426,1.092,10.955c-0.41,2.544-1.013,5.247-2.616,7.743      c-0.9,1.387-1.829,2.813-3.336,3.831C322.824,324.339,322.116,324.564,321.398,324.559z"/>
			</g>
		</g>
		<path style="fill:#FFFFFF;" d="M256.986,311.632c0,0,0.023-0.159,0.065-0.468c1.786-13.138,12.235-23.537,23.774-29.007    c0.739-0.35,1.387-0.648,1.939-0.864c0.542-0.226,0.979-0.379,1.274-0.499c0.291-0.11,0.454-0.168,0.454-0.168    s-0.125,0.11-0.367,0.312c-0.247,0.202-0.598,0.504-1.059,0.864c-0.46,0.36-1.007,0.811-1.638,1.324    c-9.717,7.902-18.559,16.779-24.213,28.079C257.067,311.483,256.986,311.632,256.986,311.632z"/>
		<path style="fill:#FFFFFF;" d="M289.154,278.782c0,0,0.009-0.033,0.028-0.09c0.762-2.29,3.445-3.021,5.615-2.819    c0.103,0.01,0.194,0.033,0.252,0.043c0.062,0.014,0.096,0.019,0.096,0.019s-0.012,0.033-0.038,0.086    c-0.029,0.053-0.065,0.134-0.13,0.225c-1.235,1.737-3.1,2.237-5.093,2.506c-0.144,0.019-0.274,0.024-0.375,0.029    c-0.11,0.014-0.202,0-0.259,0.005C289.192,278.787,289.154,278.782,289.154,278.782z"/>
		<path style="fill:#074784;" d="M311.149,275.854c0,0,0.11-0.014,0.319-0.048c0.211-0.024,0.516-0.072,0.91-0.115    c0.384-0.058,0.868-0.062,1.424-0.077c8.632-0.224,17.512,4.819,22.685,11.517c-0.903-1.169-3.22-2.14-4.523-2.952    c-0.307-0.182-0.614-0.37-0.941-0.567c-0.317-0.182-0.655-0.374-0.995-0.571c-5.833-3.371-12.028-5.59-18.562-7.115    C311.26,275.878,311.149,275.854,311.149,275.854z"/>
		<path style="fill:#FFFFFF;" d="M274.846,369.252c0,0,0.096,0.033,0.266,0.11c0.168,0.086,0.422,0.192,0.734,0.341    c0.303,0.168,0.691,0.317,1.109,0.513c0.216,0.087,0.418,0.202,0.665,0.293c0.242,0.101,0.494,0.211,0.751,0.326    c3.841,1.724,7.86,3.026,11.807,4.479c0.665,0.245,1.308,0.49,1.923,0.729c0.614,0.226,1.186,0.466,1.723,0.682    c0.535,0.221,1.027,0.427,1.459,0.61c0.439,0.187,0.816,0.365,1.128,0.509c0.314,0.139,0.562,0.269,0.725,0.35    c0.168,0.087,0.259,0.134,0.259,0.134s-0.101,0.019-0.288,0.034c-0.185,0.014-0.461,0.048-0.809,0.067    c-0.348,0.014-0.766,0.024-1.246,0.024c-0.482,0-1.027-0.024-1.613-0.067c-5.903-0.433-12.266-2.555-16.619-6.702    c-0.202-0.178-0.379-0.384-0.547-0.567c-0.329-0.365-0.619-0.677-0.807-0.96c-0.211-0.278-0.36-0.514-0.466-0.667    C274.896,369.338,274.846,369.252,274.846,369.252z"/>
		<path style="fill:#FFFFFF;" d="M305.47,378.992c0,0,0.033-0.034,0.091-0.091c0.062-0.048,0.153-0.138,0.272-0.229    c2.131-1.624,4.803-1.844,7.38-1.648c0.187,0.014,0.355,0.038,0.504,0.062c0.139,0.014,0.269,0.048,0.348,0.058    c0.084,0.019,0.137,0.034,0.137,0.034s-0.019,0.043-0.053,0.115c-0.038,0.072-0.084,0.191-0.162,0.315    c-1.725,2.732-5.445,3.031-8.109,1.648c-0.13-0.067-0.231-0.144-0.3-0.182C305.509,379.025,305.47,378.992,305.47,378.992z"/>
		<path style="fill:#074784;" d="M333.26,368.843c0,0,0.065-0.077,0.182-0.202c0.127-0.125,0.303-0.322,0.54-0.552    c0.235-0.226,0.506-0.523,0.826-0.835c4.531-4.426,8.758-9.233,12.292-14.498c0.254-0.379,0.487-0.701,0.657-0.979    c0.173-0.278,0.331-0.49,0.427-0.639c0.101-0.144,0.156-0.226,0.156-0.226s-0.017,0.101-0.045,0.269    c-0.038,0.178-0.082,0.436-0.158,0.758c-1.496,6.259-6.09,11.829-11.519,15.165c-0.242,0.149-0.466,0.298-0.694,0.423    c-0.226,0.125-0.442,0.25-0.643,0.36c-0.408,0.226-0.768,0.403-1.064,0.538c-0.3,0.144-0.542,0.245-0.703,0.312    C333.351,368.805,333.26,368.843,333.26,368.843z"/>
		<path style="fill:#074784;" d="M339.239,289.751c0,0,0.151-0.005,0.406,0.043c0.132,0.029,0.29,0.058,0.461,0.115    c0.177,0.053,0.36,0.129,0.566,0.216c2.098,0.879,3.713,3.144,4.16,5.343c0.036,0.178,0.055,0.331,0.074,0.456    c0.036,0.254,0.038,0.403,0.038,0.403s-0.12-0.091-0.302-0.269c-0.091-0.091-0.202-0.197-0.322-0.326    c-0.11-0.125-0.245-0.269-0.389-0.422c-0.139-0.149-0.283-0.312-0.437-0.499c-1.101-1.34-2.2-2.685-3.332-3.999    c-0.269-0.312-0.499-0.581-0.658-0.763C339.335,289.857,339.239,289.751,339.239,289.751z"/>
	</g>
	<path style="fill-rule:evenodd;clip-rule:evenodd;fill:#FFA4AC;" d="M254.014,396.096c0.749,2.588-0.739,5.29-3.327,6.039   c-2.587,0.744-5.29-0.744-6.039-3.332c-0.746-2.587,0.744-5.29,3.329-6.034C250.565,392.02,253.265,393.508,254.014,396.096z"/>
	<path style="fill-rule:evenodd;clip-rule:evenodd;fill:#074784;" d="M177.027,222.54c0.746,2.587-0.742,5.29-3.332,6.039   c-2.585,0.749-5.288-0.744-6.037-3.332c-0.749-2.587,0.747-5.29,3.332-6.039C173.578,218.46,176.278,219.948,177.027,222.54z"/>
	<path style="fill-rule:evenodd;clip-rule:evenodd;fill:#FFA4AC;" d="M220.2,80.505c0.746,2.583-0.739,5.285-3.327,6.034   c-2.587,0.744-5.29-0.744-6.039-3.327c-0.749-2.592,0.744-5.29,3.331-6.039C216.753,76.424,219.451,77.912,220.2,80.505z"/>
	<path style="fill-rule:evenodd;clip-rule:evenodd;fill:#074784;" d="M344.44,170.969c0,2.871-2.328,5.199-5.201,5.199   c-2.868,0-5.196-2.328-5.196-5.199c0-2.875,2.328-5.204,5.196-5.204C342.112,165.765,344.44,168.094,344.44,170.969z"/>
	<path style="fill-rule:evenodd;clip-rule:evenodd;fill:#074784;" d="M91.363,103.681c0,2.87-2.326,5.199-5.197,5.199   c-2.873,0-5.204-2.328-5.204-5.199c0-2.875,2.331-5.204,5.204-5.204C89.038,98.478,91.363,100.806,91.363,103.681z"/>
	<circle style="fill-rule:evenodd;clip-rule:evenodd;fill:#074784;" cx="270.739" cy="70.592" r="5.199"/>
	<path style="fill-rule:evenodd;clip-rule:evenodd;fill:#074784;" d="M81.021,178.928c0.543,1.872-0.538,3.836-2.41,4.373   c-1.875,0.542-3.831-0.538-4.373-2.41c-0.542-1.877,0.538-3.835,2.412-4.378C78.524,175.971,80.481,177.051,81.021,178.928z"/>
	<path style="fill-rule:evenodd;clip-rule:evenodd;fill:#074784;" d="M364.362,375.967c0.54,1.872-0.538,3.831-2.412,4.373   c-1.875,0.542-3.833-0.538-4.376-2.41c-0.542-1.877,0.542-3.835,2.415-4.378C361.861,373.01,363.82,374.095,364.362,375.967z"/>
	<path style="fill-rule:evenodd;clip-rule:evenodd;fill:#FFFFFF;" d="M87.189,217.663c0.749,2.587-0.744,5.295-3.329,6.039   c-2.585,0.749-5.29-0.744-6.036-3.332c-0.749-2.587,0.739-5.29,3.329-6.039C83.738,213.583,86.44,215.076,87.189,217.663z"/>
	<path style="fill-rule:evenodd;clip-rule:evenodd;fill:#FFA4AC;" d="M103.636,312.736c0.749,2.588-0.744,5.295-3.329,6.039   c-2.585,0.749-5.29-0.744-6.036-3.332c-0.749-2.588,0.744-5.29,3.329-6.034C100.184,308.66,102.887,310.148,103.636,312.736z"/>
	<path style="fill-rule:evenodd;clip-rule:evenodd;fill:#FFFFFF;" d="M281.262,223.212c0.749,2.587-0.739,5.29-3.327,6.039   c-2.587,0.749-5.29-0.744-6.039-3.331c-0.746-2.588,0.746-5.29,3.332-6.039C277.812,219.132,280.515,220.625,281.262,223.212z"/>
	<path style="fill-rule:evenodd;clip-rule:evenodd;fill:#FFFFFF;" d="M335.31,111.338c0,2.156-1.75,3.908-3.905,3.908   c-2.158,0-3.905-1.752-3.905-3.908c0-2.155,1.747-3.907,3.905-3.907C333.56,107.431,335.31,109.183,335.31,111.338z"/>
	<path style="fill-rule:evenodd;clip-rule:evenodd;fill:#FFFFFF;" d="M117.444,426.67c0.562,1.949-0.559,3.979-2.499,4.536   c-1.944,0.567-3.98-0.557-4.539-2.496c-0.562-1.949,0.559-3.975,2.504-4.536C114.852,423.612,116.885,424.73,117.444,426.67z"/>
	<path style="fill-rule:evenodd;clip-rule:evenodd;fill:#074784;" d="M105.414,233.855c7.006,15.558,15.373,19.903,25.872,16.931   c-9.766,5.295-12.375,14.853-6.452,30.785c-7.045-15.045-15.035-21.016-25.882-17.301   C108.39,258.721,111.254,249.6,105.414,233.855z"/>
	<path style="fill-rule:evenodd;clip-rule:evenodd;fill:#FFFFFF;" d="M317.495,210.51c6.961,14.233,15.357,17.815,25.937,14.373   c-9.855,5.578-12.539,14.752-6.668,29.388c-7.004-13.739-15.009-18.875-25.951-14.713   C320.352,233.749,323.28,224.993,317.495,210.51z"/>
	<g>
		<g>
			<path style="fill-rule:evenodd;clip-rule:evenodd;fill:#FFA4AC;" d="M193.759,246.754c-20.296,5.986-38.694,35.547-45.921,53.899     c-7.556,16.821-12.371,42.652-10.698,61.479c2.105,17.133,20.145,34.021,37.652,26.244c19.797-8.276,35.859-30.142,42.925-49.257     c7.062-19.115,13.523-37.304,14.745-57.552c1.817-21.18-17.198-31.462-37.446-32.682"/>
		</g>
		<path style="fill-rule:evenodd;clip-rule:evenodd;fill:#074784;" d="M96.334,395.02c4.69-18.823,10.734-36.018,22.481-50.721    c5.348-6.697,11.68-12.203,19.37-16.038c1.455-0.725,3.106-1.075,5.377-1.838c-0.288,2.871-0.492,5.074-0.727,7.273    c-1.308,12.246-2.648,24.482-3.944,36.728c-0.787,7.441-0.778,7.148-8.072,7.532c-10.309,0.538-19.744,3.687-27.339,11.074    c-1.61,1.565-2.916,3.432-4.467,5.055C98.605,394.507,97.784,394.536,96.334,395.02z"/>
		<path style="fill-rule:evenodd;clip-rule:evenodd;fill:#074784;" d="M178.115,434.734c1.032-6.001,1.913-10.979,2.751-15.966    c1.517-9.092-0.007-17.565-5.436-25.125c-1.553-2.16-1.044-3.399,0.718-5.223c8.535-8.852,16.888-17.882,25.257-26.892    c1.663-1.786,2.897-1.282,3.399,0.696c0.943,3.744,2.028,7.546,2.211,11.363c0.516,10.576-0.243,21.165-4.892,30.824    c-2.986,6.202-7.023,11.953-11.012,17.608c-2.47,3.504-5.674,6.505-8.674,9.615C181.398,432.709,179.984,433.414,178.115,434.734z    "/>
		<path style="fill-rule:evenodd;clip-rule:evenodd;fill:#074784;" d="M229.369,242.673c0.514,4.33,1.469,12.534,2.472,20.733    c0.331,2.698-1.234,3.394-3.459,3.514c-10.971,0.6-20.383-3.188-28.498-10.355c-2.067-1.829-3.869-3.984-5.602-6.149    c-1.195-1.488-1.351-2.962,0.739-4.186c8.105-4.772,16-9.918,24.266-14.387C223.493,229.573,227.374,229.4,229.369,242.673z"/>
		<path style="fill-rule:evenodd;clip-rule:evenodd;fill:#074784;" d="M137.584,418.418c0.219-0.879,0.331-1.795,0.663-2.631    c4.407-11.123,8.742-22.279,13.3-33.334c3.874-9.409,9.404-17.752,16.458-25.03c0.401,0.096,0.797,0.192,1.198,0.293    c-0.113,1.238,0.06,2.597-0.386,3.711c-3.022,7.484-6.166,14.92-9.294,22.36c-4.296,10.23-9.308,20.076-15.813,29.1    c-1.553,2.155-3.245,4.215-4.872,6.317C138.424,418.946,138.007,418.682,137.584,418.418z"/>
		<path style="fill-rule:evenodd;clip-rule:evenodd;fill:#074784;" d="M210.186,346.214c-13.053,5.924-58.935-14.881-61.58-27.103    c1.642,0.864,2.955,1.286,3.917,2.107c10.724,9.14,22.658,16.168,36.195,20.143c5.636,1.651,11.54,2.376,17.313,3.581    C207.443,345.24,208.804,345.782,210.186,346.214z"/>
		<path style="fill-rule:evenodd;clip-rule:evenodd;fill:#FFFFFF;" d="M207.258,294.437c2.059,9.529-3.994,18.923-13.523,20.983    c-9.534,2.064-18.93-3.999-20.99-13.528c-2.059-9.529,3.996-18.923,13.528-20.988C195.802,278.85,205.199,284.903,207.258,294.437    z"/>
	</g>
	<path style="fill:#FC6084;" d="M193.409,259.235c0,0-0.283,0.087-0.811,0.255c-0.518,0.154-1.334,0.369-2.223,0.749   c-0.895,0.312-1.954,0.869-3.096,1.493c-1.128,0.672-2.34,1.464-3.528,2.496c-1.219,0.97-2.388,2.227-3.586,3.538   c-1.159,1.387-2.343,2.861-3.449,4.517c-0.559,0.811-1.099,1.68-1.659,2.535c-0.523,0.893-1.078,1.771-1.599,2.698   c-1.056,1.834-2.076,3.749-3.055,5.698c-1.001,1.939-1.93,3.932-2.864,5.895c-0.912,1.987-1.805,3.946-2.674,5.837   c-1.747,3.85-3.377,7.45-4.776,10.532c-1.435,3.106-2.712,5.698-3.672,7.508c-0.446,0.912-0.869,1.613-1.123,2.098   c-0.278,0.485-0.427,0.739-0.427,0.739s-0.058-1.191,0.019-3.24c0.065-2.055,0.264-4.964,0.778-8.425   c0.499-3.456,1.327-7.455,2.573-11.665c1.234-4.21,2.923-8.622,5.06-12.88c1.109-2.108,2.261-4.21,3.605-6.178   c1.298-1.987,2.763-3.855,4.311-5.559c1.524-1.719,3.238-3.212,4.925-4.527c1.757-1.253,3.485-2.343,5.252-3.063   c1.719-0.773,3.418-1.205,4.906-1.455c1.502-0.221,2.813-0.254,3.903-0.163c1.08,0.014,1.838,0.269,2.386,0.365   C193.123,259.168,193.409,259.235,193.409,259.235z"/>
	<g>
		<path style="fill-rule:evenodd;clip-rule:evenodd;fill:#E16B56;" d="M503.662,169.98c-2.251-1.315-4.498-2.626-6.745-3.946    c-0.538-0.341-1.087-0.686-1.627-1.032c-1.608-0.946-3.211-1.887-4.82-2.827c-0.062-0.187-0.122-0.365-0.173-0.557    c3.735-6.188,7.433-12.395,11.219-18.554c0.667-1.094,1.656-1.992,2.501-2.976c1.654,0.907,3.317,1.81,4.976,2.717    C507.216,151.858,505.438,160.917,503.662,169.98z"/>
		<path style="fill-rule:evenodd;clip-rule:evenodd;fill:#B25746;" d="M504.017,140.088c-0.845,0.984-1.834,1.882-2.501,2.976    c-3.785,6.159-7.484,12.366-11.223,18.554c-0.975-0.422-1.958-0.845-2.938-1.272c-0.571-0.303-1.147-0.614-1.719-0.922    c-2.251-1.32-4.503-2.636-6.752-3.951c7.117-5.981,14.236-11.962,21.355-17.944c1.193,0.682,2.391,1.358,3.584,2.035    C503.887,139.742,503.957,139.91,504.017,140.088z"/>
		<path style="fill-rule:evenodd;clip-rule:evenodd;fill:#FC6084;" d="M432.298,276.929c-0.847-0.605-1.694-1.215-2.539-1.824    c20.716-35.23,41.428-70.466,62.178-105.682c0.931-1.584,2.227-2.952,3.353-4.421c0.54,0.346,1.09,0.691,1.627,1.032    c-0.9,1.771-1.711,3.6-2.717,5.309c-20.318,34.606-40.662,69.203-60.997,103.805C432.867,275.724,432.596,276.334,432.298,276.929    z"/>
		<path style="fill-rule:evenodd;clip-rule:evenodd;fill:#FC6084;" d="M423.062,271.087c-0.946-0.446-1.896-0.878-2.837-1.32    c11.492-19.475,22.997-38.941,34.472-58.417c9.5-16.13,18.967-32.278,28.469-48.403c0.725-1.229,1.639-2.352,2.47-3.524    c0.571,0.307,1.147,0.619,1.719,0.922c-0.746,1.699-1.337,3.49-2.266,5.074C464.432,200.655,443.742,235.871,423.062,271.087z"/>
		<g>
			<path style="fill-rule:evenodd;clip-rule:evenodd;fill:#F9D455;" d="M483.166,162.948c0.725-1.229,1.639-2.352,2.47-3.524     c-2.251-1.32-4.503-2.636-6.752-3.951c-0.161,0.154-0.362,0.278-0.468,0.461c-21.564,36.68-43.113,73.361-64.667,110.036     c-0.05,0.091-0.05,0.216-0.072,0.326c2.179,1.157,4.363,2.314,6.548,3.471c11.492-19.475,22.997-38.941,34.472-58.417     C464.197,195.221,473.664,179.072,483.166,162.948z"/>
			<path style="fill-rule:evenodd;clip-rule:evenodd;fill:#F9D455;" d="M495.289,165.002c-1.608-0.946-3.211-1.887-4.82-2.827     c-0.062-0.187-0.122-0.365-0.178-0.557c-0.975-0.422-1.958-0.845-2.938-1.272c-0.746,1.699-1.337,3.49-2.266,5.074     c-20.656,35.235-41.346,70.451-62.026,105.663c0.66,0.49,1.318,0.984,1.973,1.474c0.221,0.346,0.437,0.701,0.653,1.046     c1.358,0.504,2.712,1.003,4.071,1.503c20.716-35.23,41.428-70.466,62.178-105.682     C492.868,167.839,494.164,166.471,495.289,165.002z"/>
			<path style="fill-rule:evenodd;clip-rule:evenodd;fill:#F9D455;" d="M439.657,279.219     c21.002-35.711,42.004-71.431,62.994-107.151c0.389-0.662,0.675-1.392,1.011-2.088c-2.251-1.315-4.498-2.626-6.745-3.941     c-0.9,1.766-1.711,3.596-2.717,5.304c-20.318,34.606-40.662,69.203-60.997,103.805c-0.336,0.576-0.607,1.186-0.905,1.781     c2.084,1.315,4.162,2.631,6.245,3.946C438.915,280.323,439.324,279.795,439.657,279.219z"/>
		</g>
		<path style="fill-rule:evenodd;clip-rule:evenodd;fill:#29ADFC;" d="M434.017,288.441c2.038-2.156,3.356-5.079,4.724-7.623    c0.017-0.029,0.497-0.883,0.468-0.898c-0.002,0-25.001-14.728-25.001-14.728c-1.006,1.68-1.999,3.37-3.022,5.04    c-1.094,1.8-2.247,3.672-2.407,5.828c-0.137,1.858,0.362,3.812,1.44,5.338c0.595,0.84,1.414,1.695,2.266,2.28    c3.531,2.429,7.342,4.536,11.132,6.533c2.743,1.455,6.416,1.392,8.96-0.49C433.097,289.339,433.575,288.906,434.017,288.441z"/>
		<path style="fill-rule:evenodd;clip-rule:evenodd;fill:#074784;" d="M504.017,140.088l4.976,2.717    c1.001-4.848,2.004-9.702,3.008-14.545c0,0-0.053-0.792-0.855-0.317c-1.282,1.186-2.561,2.362-3.845,3.547    c-2.352,2.011-4.709,4.028-7.061,6.039C501.432,138.211,502.822,139.406,504.017,140.088z"/>
		<path style="fill-rule:evenodd;clip-rule:evenodd;fill:#FFA4AC;" d="M500.239,137.529l8.754,5.275c0,0-2.47,15.837-5.331,27.175    l-24.778-14.507C478.884,155.473,489.303,146.117,500.239,137.529z"/>
	</g>
	<path style="fill:#FC6084;" d="M206.01,335.332c0,0,0.086-0.259,0.247-0.749c0.18-0.48,0.41-1.205,0.766-2.083   c0.372-0.878,0.72-1.978,1.162-3.192c0.223-0.6,0.459-1.238,0.708-1.915c0.231-0.682,0.478-1.402,0.732-2.151   c0.55-1.474,1.046-3.116,1.62-4.81c0.554-1.699,1.097-3.514,1.668-5.367c0.254-0.946,0.54-1.891,0.83-2.842   c0.283-0.96,0.509-1.954,0.797-2.928c0.293-0.975,0.533-1.973,0.787-2.976c0.254-0.999,0.533-1.997,0.768-3.01   c0.487-2.016,0.975-4.032,1.416-6.034c0.444-2.002,0.878-3.975,1.303-5.885c0.79-3.869,1.531-7.479,2.168-10.576   c0.326-1.565,0.626-3,0.893-4.272c0.288-1.287,0.538-2.405,0.744-3.322c0.182-0.927,0.394-1.661,0.509-2.156   c0.137-0.499,0.206-0.763,0.206-0.763s0.065,0.264,0.185,0.768c0.101,0.499,0.286,1.234,0.446,2.175   c0.18,0.941,0.377,2.088,0.526,3.408c0.173,1.32,0.322,2.813,0.408,4.44c0.038,0.816,0.077,1.671,0.12,2.549   c0,0.879,0.005,1.795,0.01,2.732c0.01,1.872-0.144,3.84-0.271,5.885c-0.091,1.022-0.219,2.055-0.338,3.101   c-0.103,1.051-0.269,2.107-0.458,3.163c-0.31,2.136-0.811,4.268-1.294,6.409c-0.581,2.112-1.107,4.249-1.848,6.279   c-0.667,2.059-1.474,4.033-2.288,5.924c-0.396,0.95-0.857,1.858-1.294,2.751c-0.456,0.883-0.845,1.767-1.339,2.578   c-0.941,1.642-1.829,3.187-2.787,4.536c-0.468,0.677-0.919,1.325-1.346,1.939c-0.466,0.6-0.907,1.166-1.335,1.69   c-0.843,1.051-1.608,1.925-2.28,2.592c-0.646,0.696-1.21,1.21-1.565,1.57C206.207,335.144,206.01,335.332,206.01,335.332z"/>
	<path style="fill:#FFA4AC;" d="M289.545,419.791c0,0,1.342-0.447,3.713-1.104c2.367-0.662,5.761-1.531,9.846-2.458   c2.045-0.456,4.263-0.926,6.61-1.397c2.347-0.456,4.822-0.936,7.383-1.44c2.559-0.475,5.204-0.946,7.902-1.378   c2.693-0.451,5.434-0.845,8.18-1.248c2.736-0.418,5.47-0.869,8.175-1.238c2.695-0.394,5.362-0.725,7.945-1.037   c2.578-0.326,5.098-0.523,7.458-0.84c2.364-0.302,4.608-0.557,6.685-0.768c4.157-0.408,7.647-0.658,10.11-0.778   c2.455-0.125,3.879-0.125,3.879-0.125s-1.306,0.538-3.624,1.349c-2.314,0.821-5.645,1.92-9.675,3.13   c-2.014,0.59-4.203,1.214-6.531,1.838c-2.318,0.639-4.8,1.128-7.359,1.68c-2.566,0.538-5.218,1.075-7.921,1.56   c-2.703,0.514-5.456,0.979-8.209,1.435c-2.765,0.37-5.528,0.749-8.257,1.061c-2.726,0.331-5.415,0.614-8.017,0.864   c-2.607,0.24-5.127,0.475-7.518,0.605c-2.395,0.144-4.656,0.245-6.749,0.317c-4.191,0.13-7.695,0.144-10.153,0.101   C290.959,419.882,289.545,419.791,289.545,419.791z"/>
	<path style="fill:#FFA4AC;" d="M192.511,74.73c0,0-1.344,0.451-3.706,1.119c-2.367,0.677-5.756,1.56-9.836,2.51   c-2.045,0.466-4.258,0.951-6.605,1.426c-2.343,0.466-4.815,0.965-7.373,1.479c-2.554,0.49-5.199,0.97-7.892,1.416   c-2.693,0.466-5.434,0.874-8.175,1.291c-2.736,0.432-5.468,0.898-8.17,1.282c-2.693,0.408-5.357,0.754-7.938,1.075   c-2.578,0.341-5.096,0.552-7.458,0.879c-2.362,0.312-4.604,0.576-6.68,0.797c-4.155,0.432-7.645,0.696-10.1,0.831   c-2.458,0.139-3.881,0.149-3.881,0.149s1.306-0.542,3.615-1.368c2.314-0.84,5.636-1.949,9.659-3.178   c2.016-0.605,4.2-1.234,6.524-1.877c2.321-0.648,4.796-1.147,7.354-1.714c2.559-0.547,5.209-1.099,7.911-1.603   c2.698-0.523,5.448-1.003,8.199-1.474c2.765-0.384,5.525-0.778,8.257-1.104c2.722-0.346,5.408-0.639,8.012-0.903   c2.602-0.254,5.122-0.499,7.513-0.643c2.391-0.154,4.654-0.269,6.749-0.35c4.188-0.149,7.69-0.182,10.148-0.149   C191.097,74.643,192.511,74.73,192.511,74.73z"/>
	<path style="fill:#F8D455;" d="M29.354,137.529c0,0,17.942,248.25,44.745,308.909L29.354,137.529z"/>
	<path style="fill-rule:evenodd;clip-rule:evenodd;fill:#F8D455;" d="M100.602,474.477c0,0,81.392,2.89,251.63-30.781   L100.602,474.477z"/>
</g>















</svg>
