<svg id="Layer_1" enable-background="new 0 0 512 512" height="512" viewBox="0 0 512 512" width="512"
     xmlns="http://www.w3.org/2000/svg">
    <g>
        <path d="m361.592 340.658c-.309 0-.618-.048-.919-.145l-30.357-9.771c-1.471-.473-2.342-1.985-2.012-3.495 2.484-11.386 3.174-22.174 3.358-26.416-.833-.407-1.894-.931-3.03-1.502-6.5-3.12-11.042-9.296-12.101-16.497-1.004-7.089-.448-12.743 1.648-16.823 1.495-3.436 4.799-5.563 8.656-5.563 4.148 0 8.876 2.668 10.085 8.627.083.413.079.84-.013 1.251-1.485 6.648-1.605 9.275.781 12.407 1 .1 1.964.149 2.876.149 7.231 0 11.749-2.948 14.467-9.512-2.348-2.86-4.89-3.231-8.53-3.763-1.826-.267-3.895-.568-6.087-1.249-2.895-.918-4.648-3.759-4.38-7.074.327-4.049 3.686-8.58 10.452-9.573 1.399-.212 2.705-.314 3.979-.314 7.035 0 12.523 3.179 17.118 9.965.446-.724.922-1.55 1.328-2.254 3.04-5.272 7.204-12.493 13.988-12.493 1.341 0 2.696.298 4.03.886 2.858 1.268 3.955 3.321 4.373 4.821 1.546 5.548-3.446 12.692-7.851 18.995-.603.861-1.292 1.849-1.919 2.785 1.78-.896 3.656-2.243 5.294-3.418 2.453-1.76 4.391-3.15 6.322-3.49.636-.117 1.678-.262 2.91-.262 3.469 0 6.292 1.107 8.164 3.201 1.948 2.179 2.718 5.224 2.288 9.049-1.128 9.968-18.725 14.672-25.163 16.065-4.328 9.502-14.433 15.583-18.903 17.898.692 4.08 1.997 13.174 2.145 24.476.013.966-.44 1.878-1.218 2.452-.519.386-1.145.587-1.779.587z"
              fill="#4e2800"/>
        <path d="m331.235 327.887 30.357 9.771c-.194-15.027-2.506-26.219-2.506-26.219s15.621-6.746 20.104-18.815c0 0 23.285-4.43 24.343-13.779 1.043-9.284-6.617-9.297-9.86-8.7-3.309.583-10.258 8.489-16.125 7.937-5.873-.564 19.296-22.908 8.175-27.839-11.087-4.888-16.088 20.391-19.409 14.714-5.538-9.362-11.87-11.415-19.39-10.281-8.709 1.279-9.663 9.532-5.618 10.815 6.734 2.092 12.384.231 17.108 7.424-3.172 9.09-9.685 14.33-22.272 12.655-4.152-4.75-3.804-8.544-2.16-15.901-1.53-7.545-10.693-8.097-13.086-2.378-2.202 4.199-2.11 10.053-1.395 15.104.91 6.189 4.837 11.544 10.479 14.253 2.571 1.292 4.747 2.335 4.747 2.335s-.204 13.835-3.492 28.904z"
              fill="#ffd9b9"/>
        <path d="m266.112 411.356c-.983-.322-1.977-.682-2.954-1.071-37.567-14.941-57.525-55.086-59.677-59.615-.711-1.496-.075-3.286 1.422-3.997l19.414-9.226 19.379-9.297c.726-.348 1.523-.379 2.232-.146.747.245 1.397.78 1.766 1.543 3.648 7.53 16.791 28.533 33.572 35.207.001 0 .002.001.004.001.085.028.787.099 2.678-.835 13.327-6.577 32.039-35.835 39.257-61.385.451-1.594 2.108-2.521 3.703-2.071 0 0 41.461 11.715 41.5 11.728 1.521.498 2.39 2.112 1.951 3.666-7.926 28.053-31.704 75.706-64.726 92.003-13.102 6.466-26.768 7.675-39.521 3.495z"
              fill="#4e2800"/>
        <path d="m267.046 408.505c-.933-.306-1.858-.641-2.781-1.008-36.502-14.517-55.975-53.695-58.076-58.115l38.837-18.457-19.419 9.229 19.385-9.299c3.789 7.821 17.493 29.659 35.163 36.687.537.213 1.791.711 5.118-.93 14.203-7.009 33.276-36.57 40.817-63.259l41.38 11.691c-7.78 27.538-31.023 74.265-63.167 90.129-12.429 6.133-25.25 7.268-37.257 3.332z"
              fill="#ebf2f2"/>
        <path d="m350.573 361.268c-.401-.132-.792-.305-1.159-.516l-40.393-23.119c-2.921-1.672-3.992-5.426-2.388-8.369 4.499-8.255 8.366-17.195 10.886-25.173 1.023-3.233 4.377-5.043 7.635-4.122l44.796 12.655c.084.024.167.049.249.076 3.203 1.05 5.005 4.532 4.016 7.761-3.796 12.399-9.418 25.509-16.257 37.912-1.438 2.609-4.544 3.826-7.385 2.895z"
              fill="#4e2800"/>
        <path d="m350.903 358.149-40.393-23.119c-1.518-.869-2.082-2.793-1.245-4.329 4.601-8.443 8.531-17.533 11.113-25.705.527-1.668 2.275-2.615 3.959-2.14l44.796 12.656c1.751.495 2.746 2.332 2.213 4.072-3.716 12.136-9.309 25.179-16.015 37.342-.868 1.573-2.869 2.115-4.428 1.223z"
              fill="#ebf2f2"/>
        <path d="m313.45 340.94s1.71 11.726 10.797 20.616c0 0-4.612-11.07-3.649-15.648l22.189 13.185s-25.262 46.472-57.777 45.667-31.961-54.417-31.961-54.417l23.786 18.558s-12.106 16.441-7.811 19.734c4.295 3.292 9.675-18.454 9.675-18.454s-2.683 28.273 1.966 29.662c4.65 1.39-.138-29.91-.138-29.91s9.336 28.08 14.093 27.091-11.616-27.272-11.616-27.272 3.928-.097 6.58-2.452 7.535-7.004 7.535-7.004-7.856 17.483 7.367 27.939c-12.93-14.242 8.964-47.295 8.964-47.295z"
              fill="#fff"/>
        <path d="m326.005 304.545s-.604 30.263 24.401 33.214c0 0-22.89 5.076-27.847-22.7l-5.831 12.598s-1.964 5.446 7.534 10.351c9.498 4.904 27.606 14.69 27.606 14.69s9.898-11.892 13.564-32.095c0 0-13.928 23.915-26.892 4.173 0 0 10.585 13.886 21.883-6.651-13.603-6.042-34.418-13.58-34.418-13.58z"
              fill="#fff"/>
        <path d="m78.1 449.306c-4.624-.129-8.765-1.468-12.314-3.982-6.801-4.828-10.297-9.974-10.393-15.297-.075-4.136 1.961-7.286 3.543-9.105-.733-1.106-1.742-2.672-2.908-4.582-1.265-2.046-3.244-5.379-5.433-9.558-2.068-4.082-3.663-7.686-4.891-11.043-1.453-4.009-2.371-7.645-2.734-10.813-.328-2.609-.268-5.044.181-7.212 1.058-5.189 6.61-11.99 16.501-20.205 2.579-2.144 5.518-4.42 8.733-6.769 3.324-2.445 6.755-4.793 10.191-6.972 3.44-2.254 6.727-4.28 9.738-6.001 5.64-3.245 15.764-8.678 20.128-8.556 8.834.247 14.639 6.407 15.785 7.73 8.072 6.615 11.339 16.789 8.131 25.393-2.425 6.507-7.754 9.905-10.715 11.352l-34.863 14.875c5.796 5.24 17.917 16.98 23.533 28.2 2.332 4.672 1.636 10.345-1.959 15.979-6.221 9.753-19.228 16.874-30.254 16.566z"
              fill="#4e2800"/>
        <g>
            <g>
                <path d="m103.113 458.008c-1.386.014-2.601-.923-2.94-2.267-8.964-35.583 4.888-98.068 7.257-108.221-1.721-2.79-1.741-5.24-1.406-6.886.528-2.596 2.145-4.52 3.523-5.743-1.322-4.174-1.09-7.874.696-11.027 3.604-6.36 12.228-7.577 12.593-7.626.121-.016.243-.025.365-.026.067-.001.135.001.202.005 18.458 1.054 110.989 6.633 120.033 12.929 3.904 2.718 4.822 5.858 4.905 8.014.16 4.156-2.548 7.714-4.372 9.624 3.706 11.449 22.311 71.449 17.332 107.046-.206 1.47-1.456 2.569-2.94 2.584z"
                      fill="#4e2800"/>
                <path d="m258.114 456.416-154.702 1.589c-9.498-37.704 7.249-111.09 7.249-111.09-5.209-6.677 2.488-10.956 2.488-10.956-6.28-14.566 10.088-16.744 10.088-16.744s109.68 6.264 118.484 12.394c8.803 6.13-1.193 14.303-1.193 14.303s22.962 72.127 17.586 110.504z"
                      fill="#ebf2f2"/>
                <path d="m133.287 394.285s.904 5.168 11.478 7.102c0 0-3.961 4.296-9.535 4.183 0 0 1.621 4.239 8.75 2.293l1.362 49.71-19.697.202z"
                      fill="#fff"/>
                <path d="m115.481 337.279s16.324 16.995 41.031 23.507c-9.059.54-9.419 2.778-9.419 2.778-6.156-2.204-13.054-5.146-20.329-9.111-4.58-2.496-8.71-5.071-12.398-7.596-1.816-1.568-2.58-3.963 1.115-9.578z"
                      fill="#fff"/>
                <path d="m251.844 456.48-15.119.155c11.067-13.034 9.439-23.488 9.439-23.488-3.277 9.104-13.418 17.759-21.709 23.614l-61.227.629.208-4.122c57.357-18.12 82.328-59.059 82.328-59.059 10.204 29.567 7.505 53.976 6.08 62.271z"
                      fill="#fff"/>
                <path d="m182.326 367.414-16.322 3.998s-9.123 6.739-5.065 16.524c4.058 9.786 1.482 57.304 1.482 57.304s36.716-17.484 52.663-31.053 21.105-21.92 21.105-21.92-18.784-.701-24.722-13.279c0 0-2.702 15.475-27.494 19.815 0 0-9.375-15.223-1.647-31.389z"
                      fill="#fff"/>
                <g fill="#4e2800">
                    <circle cx="167.857" cy="381.165" r="8.731"/>
                    <circle cx="232.884" cy="371.765" r="8.731"/>
                    <circle cx="173.327" cy="438.473" r="8.731"/>
                    <circle cx="242.265" cy="434.991" r="8.731"/>
                    <path d="m152.376 457.562-2.999-.083c.766-27.396 1.154-69.899-.913-74.712-1.264-2.944-1.084-6.364.508-9.631 2.408-4.943 7.78-9.038 14.018-10.688 9.871-2.609 39.017-11.645 39.31-11.736l.889 2.865c-.294.091-29.5 9.146-39.432 11.771-5.42 1.432-10.052 4.92-12.089 9.101-.851 1.748-1.62 4.404-.448 7.133 2.993 6.966 1.353 68.937 1.156 75.98z"/>
                </g>
                <g>
                    <path d="m203.172 357.139c-34.923-.782-83.596-13.706-92.776-22.007-10.082-9.116.391-17.459.391-17.459l136.949 3.064-.011 1.284c6.081 7.803 3.673 14.887-2.65 21.569-6.936 7.33-23.658 13.239-33.621 13.565-2.823.05-5.6.044-8.277-.016-.003 0-.004 0-.005 0z"
                          fill="#3c2415"/>
                    <path d="m203.268 352.857c-35.783-.801-83.158-13.159-91.457-20.157-2.575-2.171-3.847-4.443-3.781-6.753.089-3.065 2.476-5.552 3.55-6.519l134.233 3.003c.065.184.165.359.297.517 4.905 5.861 4.132 11.391-2.505 17.928-6.526 6.427-22.654 11.732-32.175 12.007-2.756.041-5.512.032-8.159-.027z"
                          fill="#ff1c1c"/>
                    <path d="m204.885 347.318c-34.608-.775-80.402-13.923-88.413-21.412-2.486-2.323-3.711-4.758-3.641-7.237.093-3.289 2.408-5.963 3.45-7.003l129.827 2.904c.063.198.159.385.286.554 4.73 6.278 3.97 12.213-2.465 19.244-6.327 6.912-21.94 12.643-31.149 12.96-2.666.051-5.332.047-7.891-.01z"
                          fill="#bd1414"/>
                    <g>
                        <path d="m187.008 390.117c-9.331-25.866 11.98-38.246 12.196-38.369l.451-.254 10.209 2.04.316.546c.177.307 4.265 7.676-2.264 22.003-6.593 14.466-19.034 14.941-19.56 14.954l-1.006.025z"
                              fill="#3c2415"/>
                        <path d="m199.89 352.963s-20.608 11.624-11.569 36.68c0 0 12.019-.3 18.325-14.138s2.326-20.726 2.326-20.726z"
                              fill="#bd1414"/>
                        <path d="m200.15 352.951s-16.884 10.499-9.899 32.385c0 0 9.757-.431 15.067-12.676s2.177-18.241 2.177-18.241z"
                              fill="#ff1c1c"/>
                        <path d="m192.672 376.698c-.123-.025-.241-.057-.353-.099-.677-.249-1.107-.78-1.211-1.494-.27-1.857 2.132-5.514 2.616-6.228.216-.319.65-.403.968-.186.319.216.402.65.186.969-1.078 1.591-2.532 4.269-2.39 5.245.03.206.118.314.312.386.701.257 2.269-.193 3.497-1.271.664-.583 1.119-2.597 1.602-4.73.7-3.096 1.572-6.95 3.678-9.607 3.428-4.326 4.263-6.215 4.271-6.234.152-.353.559-.516.915-.366.353.151.518.558.369.912-.034.081-.881 2.037-4.461 6.554-1.908 2.407-2.741 6.089-3.41 9.048-.58 2.563-1.038 4.588-2.042 5.47-1.416 1.244-3.257 1.889-4.547 1.631z"
                              fill="#3c2415"/>
                    </g>
                    <g>
                        <path d="m236.971 387.996c6.914-26.615-15.444-36.983-15.671-37.085l-.473-.212-9.978 2.97-.264.573c-.148.322-3.542 8.035 4.277 21.702 7.895 13.799 20.327 13.128 20.852 13.093l1.004-.067z"
                              fill="#3c2415"/>
                        <path d="m220.73 352.185s21.589 9.68 14.891 35.461c0 0-11.996.806-19.547-12.394s-4.221-20.425-4.221-20.425z"
                              fill="#bd1414"/>
                        <path d="m220.469 352.197s17.778 8.903 12.834 31.338c0 0-9.755.467-16.168-11.238s-3.844-17.964-3.844-17.964z"
                              fill="#ff1c1c"/>
                        <path d="m230.098 375.155c.12-.036.235-.079.343-.131.651-.31 1.031-.878 1.069-1.599.098-1.874-2.629-5.294-3.177-5.961-.244-.298-.684-.341-.981-.096-.298.244-.341.684-.097.982 1.22 1.485 2.913 4.019 2.862 5.003-.011.208-.088.323-.275.413-.675.32-2.278.016-3.599-.945-.715-.519-1.353-2.483-2.03-4.563-.982-3.019-2.205-6.776-4.545-9.228-3.811-3.992-4.816-5.797-4.826-5.815-.184-.337-.604-.462-.945-.28-.338.183-.465.604-.283.942.042.078 1.065 1.947 5.045 6.117 2.121 2.222 3.289 5.812 4.227 8.697.813 2.499 1.455 4.474 2.536 5.259 1.523 1.107 3.415 1.581 4.676 1.205z"
                              fill="#3c2415"/>
                    </g>
                    <g>
                        <path d="m210.63 364.453c-7.822.561-14.6-11.429-15.177-19.478-.686-9.564 7.564-10.156 13.024-10.547 5.459-.391 13.71-.983 14.395 8.581.578 8.049-4.419 20.883-12.242 21.444z"
                              fill="#3c2415"/>
                        <path d="m221.481 343.109c.539 7.522-4.147 19.464-10.95 19.952s-13.146-10.663-13.685-18.186 4.929-8.568 11.732-9.056 12.364-.232 12.903 7.29z"
                              fill="#bd1414"/>
                        <path d="m221.418 342.233c.482 6.716-3.854 17.388-10.114 17.837s-12.074-9.495-12.555-16.211c-.482-6.716 4.551-7.66 10.811-8.109s11.377-.233 11.858 6.483z"
                              fill="#ff1c1c"/>
                        <ellipse cx="215.265" cy="341.416" fill="#fff" rx="3.417" ry="5.053"
                                 transform="matrix(.593 -.805 .805 .593 -187.3 312.34)"/>
                    </g>
                    <g>
                        <path d="m282.212 292.79c-.211 1.406-.462 2.75-.801 4.063-1.091 4.507-2.921 8.517-5.311 12.074-2.721 4.05-13.823 12.934-30.681 21.619-14.844 4.059-35.558 8.017-60.364 7.532-19.396-.384-35.954-3.365-48.773-6.663-2.017-.615-3.992-1.31-5.935-2.063-14.587-5.648-26.819-14.653-31.981-19.97-3.041-3.129-5.774-6.601-8.088-10.483-.463-.771-.915-1.561-1.347-2.371-1.354-2.541-2.533-5.258-3.509-8.141-.76-2.258-1.418-4.563-1.917-6.865-1.003-4.364-1.544-8.797-1.645-13.23-1.111-42.886 37.685-86.549 98.172-87.086 1.341-.01 2.681-.01 4.031.02 4.839.108 9.591.505 14.218 1.158 37.761 5.276 67.049 28.087 71.321 60.68 1.266 9.591 4.756 16.761 7.821 23.741 2.112 4.868 4.006 9.632 4.795 15.041.494 3.343.564 6.926-.006 10.944z"
                              fill="#ffd9b9"/>
                        <path d="m130.346 329.353c-14.587-5.648-26.819-14.653-31.981-19.97-3.041-3.129-5.774-6.601-8.088-10.483-.463-.771-.915-1.561-1.347-2.371 2.849-.816 6.085-2.404 8.735-5.486 0 0 6.735 23.566 26.847 34.399 2.62 1.408 4.521 2.721 5.834 3.911z"
                              fill="#e0ae84"/>
                        <path d="m136.251 332.719c-.118-.003-.236-.021-.353-.056-17.475-5.354-32.578-16.314-38.465-22.375-3.239-3.339-6.023-6.949-8.275-10.729-2.022-3.365-3.694-6.984-4.967-10.753-.805-2.389-1.463-4.748-1.954-7.011-1.006-4.371-1.569-8.911-1.671-13.474-.531-20.533 8.113-41.579 23.718-57.737 18.846-19.514 45.743-30.409 75.737-30.678 6.161-.06 12.385.337 18.446 1.192 39.807 5.558 68.237 29.816 72.426 61.802 1.116 8.478 4.017 15.027 6.822 21.36l.895 2.027c2.026 4.665 4.07 9.69 4.892 15.375.554 3.717.553 7.42-.003 11.315-.23 1.567-.5 2.937-.823 4.196-1.079 4.461-2.929 8.667-5.493 12.483-5.044 7.523-20.182 19.078-31.415 22.142-.691.189-1.406-.22-1.595-.912s.219-1.406.912-1.595c10.715-2.922 25.141-13.923 29.941-21.083 2.392-3.561 4.118-7.486 5.13-11.665.304-1.186.555-2.469.772-3.938.52-3.638.522-7.095.004-10.565-.777-5.374-2.749-10.216-4.702-14.714l-.889-2.014c-2.88-6.502-5.858-13.224-7.023-22.073-4.033-30.794-31.593-54.176-70.211-59.568-5.935-.837-12.017-1.223-18.06-1.166-29.294.262-55.536 10.876-73.893 29.885-15.125 15.661-23.504 36.024-22.99 55.87.098 4.392.639 8.754 1.61 12.97.473 2.184 1.104 4.449 1.88 6.747 1.212 3.591 2.806 7.039 4.735 10.249 2.152 3.612 4.811 7.06 7.909 10.254 5.7 5.867 20.355 16.489 37.363 21.699.685.211 1.071.937.862 1.623-.177.568-.707.93-1.272.917z"
                              fill="#4e2800"/>
                    </g>
                    <path d="m261.197 250.058c.858-.337 1.395-1.237 1.241-2.183-.074-.451-1.882-11.069-8.843-15.778-3.091-2.091-6.672-2.702-10.644-1.818-15.696 3.492-11.149 26.716-10.948 27.703.22 1.081 1.276 1.78 2.358 1.559 1.08-.221 1.781-1.275 1.562-2.357-.041-.203-3.964-20.346 7.897-23.002 2.896-.645 5.361-.243 7.534 1.227 5.549 3.754 7.122 13.017 7.137 13.109.178 1.09 1.207 1.83 2.297 1.651.141-.022.279-.06.409-.111z"
                          fill="#4e2800"/>
                    <path clip-rule="evenodd"
                          d="m174.772 302.676c4.346-11.379 25.59 2.3 41.405-.362s22.505-16.207 31.265-7.162c8.18 8.449-3.829 25.806-29.427 29.271-28.936 3.918-48.913-6.903-43.243-21.747z"
                          fill="#4e2800" fill-rule="evenodd"/>
                    <path clip-rule="evenodd"
                          d="m236.972 315.032c-4.91 3.085-11.443 5.516-19.336 6.584-16.373 2.216-29.743-.333-36.633-5.941-3.848-3.132-5.371-7.292-3.579-11.982.634-1.659 1.897-2.39 3.526-2.644 1.545-.24 3.344-.119 5.32.164 8.824 1.262 20.616 5.547 30.381 3.904 1.465-.247 2.857-.58 4.183-.978 5.757 2.569 11.291 6.095 16.138 10.893z"
                          fill="#ff0075" fill-rule="evenodd"/>
                    <path d="m90.922 233.202c-.373-.008-.744-.091-1.092-.249-.8-.364-1.382-1.083-1.571-1.941l-13.067-59.466c-.136-.621-.057-1.27.226-1.839.209-.422 5.281-10.456 19.013-21.504 12.521-10.075 35.011-22.978 71.044-27.234 10.921-1.29 21.681-1.827 31.98-1.597 47.826 1.07 72.036 17.937 73.044 18.654.86.613 1.3 1.658 1.138 2.702l-11.408 73.382c-.134.863-.665 1.613-1.433 2.028-.431.232-.909.344-1.386.333-.374-.008-.747-.092-1.096-.251-15.6-7.115-33.293-10.942-52.589-11.373-57.215-1.28-110.864 27.72-111.399 28.013-.436.238-.921.352-1.404.342z"
                          fill="#4e2800"/>
                    <path d="m77.917 170.946 13.067 59.466s92.27-50.582 166.487-16.731l11.408-73.382s-34.597-24.648-103.078-16.559-87.884 47.206-87.884 47.206z"
                          fill="#ebf2f2"/>
                    <path d="m84.894 189.632 8.2 35.874 11.492-5.681-8.302-34.152z" fill="#fff"/>
                    <path d="m105.446 181.366 8.2 35.873 11.603-5.22-8.414-34.612z" fill="#fff"/>
                    <path d="m127.616 173.349 8.2 35.873 12.023-3.493-8.834-36.339z" fill="#fff"/>
                    <ellipse cx="133.41" cy="264.69" fill="#fac" rx="9.416" ry="18.692"
                             transform="matrix(.022 -1 1 .022 -134.197 392.146)"/>
                    <ellipse cx="259.998" cy="264.213" fill="#fac" rx="9.416" ry="18.692"
                             transform="matrix(.022 -1 1 .022 -9.963 518.237)"/>
                    <g fill="#4e2800">
                        <path d="m223.893 290.794s-10.606-19.819-40.651-22.491-31.128 11.19-45.905 6.504-6.903-14.027-1.683-12.887c0 0-7.066-2.288-10.685 5.308s-9.407 28.255 36.89 40.828 62.034-17.262 62.034-17.262z"/>
                        <path d="m209.927 294.035s4.548-21.065 30.49-29.128 30.286 5.12 42.222-2.1 2.685-14.798-1.658-12.745c0 0 5.696-3.498 10.755 3.174 5.058 6.671 15.227 25.555-22.683 46.14s-59.126-5.341-59.126-5.341z"/>
                        <ellipse cx="219.894" cy="276.048" rx="24.318" ry="30.487"
                                 transform="matrix(.022 -1 1 .022 -61.003 489.713)"/>
                    </g>
                    <path d="m247.363 275.826c-.029 1.3-.187 2.566-.475 3.8-2.529 11.106-14.856 19.343-29.483 19.015-16.256-.364-29.198-11.166-28.907-24.133.05-2.249.499-4.41 1.285-6.453 3.739-9.739 15.236-16.663 28.673-16.363 16.255.365 29.197 11.168 28.907 24.134z"
                          fill="#e0ae84"/>
                    <path d="m247.363 275.826c-.029 1.3-.187 2.566-.475 3.8-4.119 8.41-15.353 14.29-28.43 13.998-16.356-.366-29.408-10.26-29.143-22.097.026-1.18.183-2.347.468-3.47 3.739-9.739 15.236-16.663 28.673-16.363 16.255.363 29.197 11.166 28.907 24.132z"
                          fill="#ffd9b9"/>
                    <ellipse cx="233.014" cy="263.271" fill="#fff" rx="5.027" ry="10.864"
                             transform="matrix(.523 -.852 .852 .523 -113.258 324.122)"/>
                    <path d="m140.924 219.391c-.83-.019-1.668-.236-2.443-.671-2.519-1.416-3.413-4.606-1.997-7.125 5.236-9.313 14.86-14.858 25.746-14.832 10.567.022 19.979 5.201 24.597 13.508 1.404 2.525.495 5.711-2.031 7.115-2.525 1.403-5.711.495-7.115-2.031-2.736-4.922-8.812-8.135-15.475-8.128-7.147-.017-13.197 3.444-16.599 9.496-.981 1.745-2.813 2.71-4.683 2.668z"
                          fill="#4e2800"/>
                    <path d="m268.08 222.236c.83.019 1.677-.161 2.47-.561 2.579-1.302 3.615-4.449 2.313-7.028-4.814-9.538-14.181-15.508-25.057-15.969-10.558-.451-20.192 4.302-25.176 12.394-1.515 2.46-.75 5.684 1.711 7.199 2.46 1.514 5.684.75 7.199-1.711 2.953-4.794 9.167-7.733 15.823-7.427 7.141.303 13.03 4.031 16.158 10.229.902 1.786 2.689 2.832 4.559 2.874z"
                          fill="#4e2800"/>
                    <g fill="#4e2800">
                        <path d="m79.212 196.517c-23.622-.528-42.694-13.418-48.589-32.838-7.826-25.781 10.734-54.322 41.374-63.624 6.97-2.116 14.093-3.108 21.17-2.95 23.622.528 42.695 13.418 48.59 32.838 3.819 12.582 1.558 26.155-6.368 38.219-7.821 11.904-20.253 20.926-35.005 25.404-6.972 2.117-14.095 3.109-21.172 2.951z"/>
                        <path d="m159.008 175.145c-15.875-.355-31.071-5.33-42.788-14.007-12.009-8.893-19.852-21.331-22.083-35.022-5.343-32.789 22.071-64.641 61.111-71.003 5.19-.846 10.446-1.216 15.62-1.1 15.875.355 31.071 5.329 42.788 14.007 12.009 8.893 19.852 21.331 22.083 35.022 5.343 32.79-22.071 64.641-61.111 71.003-5.19.845-10.445 1.215-15.62 1.1z"/>
                        <path d="m257.754 179.909c-5.798-.13-11.639-.968-17.361-2.491-33.407-8.893-54.502-38.981-47.025-67.071 6.01-22.578 29.362-37.919 56.786-37.305 5.798.13 11.639.968 17.361 2.491 33.407 8.893 54.502 38.981 47.024 67.071-6.009 22.578-29.361 37.919-56.785 37.305z"/>
                    </g>
                    <g fill="#ebf2f2">
                        <ellipse cx="86.189" cy="146.811" rx="55.28" ry="46.072"
                                 transform="matrix(.957 -.291 .291 .957 -38.929 31.366)"/>
                        <ellipse cx="164.938" cy="114.578" rx="68.944" ry="57.46"
                                 transform="matrix(.987 -.161 .161 .987 -16.281 28.019)"/>
                        <ellipse cx="253.954" cy="126.476" rx="49.926" ry="59.905"
                                 transform="matrix(.257 -.966 .966 .257 66.407 339.349)"/>
                    </g>
                    <g>
                        <g>
                            <path d="m96.092 258.938s-12.036-14.454-28.33-8.167c-16.293 6.287-24.498 31.31-4.35 43.562s34.425-3.128 34.425-3.128z"
                                  fill="#ffd9b9"/>
                            <path d="m78.319 300.536c-4.674-.104-9.964-1.442-15.685-4.921-8.788-5.344-13.346-13.809-12.506-23.226.908-10.172 7.778-19.422 17.095-23.017 17.1-6.597 29.895 8.453 30.022 8.607.53.636.443 1.58-.192 2.111s-1.581.446-2.113-.189c-.465-.555-11.567-13.545-26.638-7.729-8.146 3.143-14.391 11.567-15.187 20.485-.746 8.355 3.188 15.599 11.076 20.395 18.883 11.483 32.412-2.722 32.546-2.867.564-.607 1.513-.642 2.12-.079.607.564.643 1.513.079 2.12-.109.117-8.174 8.587-20.617 8.31z"
                                  fill="#4e2800"/>
                        </g>
                    </g>
                    <path d="m86.483 267.563s-7.608-5.792-13.349-3.175-12.665 6.74-6.489 16.072 19.645 6.173 22.444 2.539c-4.747-.661-8.008-4.611-7.774-8.574.174-2.911 2.216-5.57 5.168-6.862z"
                          fill="#e0ae84"/>
                    <path d="m91.695 274.19c-4.3-3.682-8.611-8.609-13.856-9.144-2.44-.122-4.96.674-7.178 1.611-2.322 1.078-4.508 2.929-6.214 5.943l-.4-.009c.094-1.686.613-3.294 1.407-4.767 2.506-4.356 7.741-6.886 12.685-6.765 3.397.261 6.373 2.27 8.629 4.692 2.266 2.421 4.007 5.257 5.296 8.285z"
                          fill="#4e2800"/>
                    <path d="m86.709 267.761c-4.373 5.666-4.292 11.776 2.801 14.923 0 0-.121.275-.121.275-6.845 1.129-11.028-6.663-7.18-12.117 1.062-1.515 2.437-2.717 4.274-3.279z"
                          fill="#4e2800"/>
                    <ellipse cx="264.484" cy="123.662" fill="#fff" rx="42.321" ry="48.2"
                             transform="matrix(.387 -.922 .922 .387 48.062 319.636)"/>
                    <ellipse cx="83.004" cy="144.585" fill="#fff" rx="46.172" ry="37.78"
                             transform="matrix(.929 -.371 .371 .929 -47.735 41.136)"/>
                    <ellipse cx="165.047" cy="109.736" fill="#fff" rx="61.001" ry="51.051"
                             transform="matrix(.99 -.143 .143 .99 -14.016 24.771)"/>
                    <path d="m154.136 256.685c-.898-.207-1.563-1.017-1.549-1.976.006-.456.226-11.225 6.415-16.911 2.748-2.524 6.199-3.658 10.259-3.37 16.04 1.135 14.974 24.776 14.92 25.782-.058 1.102-.999 1.949-2.101 1.89-1.101-.059-1.949-.998-1.893-2.1.01-.207.914-20.708-11.208-21.583-2.959-.21-5.338.551-7.27 2.326-4.934 4.532-5.121 13.926-5.122 14.02-.015 1.105-.923 1.988-2.028 1.972-.146-.001-.287-.019-.423-.05z"
                          fill="#4e2800"/>
                </g>
            </g>
        </g>
        <g>
            <path d="m129.898 361.413c-2.303 6.168-7.717 9.088-9.41 9.911l-38.585 16.458s5.035 4.202 10.888 10.258c5.474 5.655 11.683 12.941 15.17 19.902 7.172 14.366-23.18 37.617-40.651 25.234-17.441-12.372-4.97-21.917-4.97-21.917s-1.723-2.429-4.066-6.286c-1.158-1.873-2.457-4.09-3.79-6.508-.514-.935-1.037-1.91-1.559-2.905-1.725-3.409-3.414-7.068-4.752-10.727-1.273-3.507-2.225-7.005-2.586-10.206-.286-2.289-.266-4.429.138-6.379 1.02-4.983 7.313-11.83 15.609-18.711 2.694-2.246 5.597-4.475 8.6-6.672 3.258-2.4 6.655-4.726 10.046-6.872 3.292-2.159 6.539-4.169 9.64-5.943 8.663-4.98 15.978-8.287 18.747-8.21 8.587.24 14.01 6.984 14.01 6.984 7.376 5.939 10.3 15.124 7.521 22.589z"
                  fill="#ebf2f2"/>
            <path d="m67.309 443.177c-17.441-12.372-4.97-21.917-4.97-21.917s-1.723-2.429-4.066-6.286c-1.158-1.873-2.457-4.09-3.79-6.508l38.306-10.424c5.474 5.655 11.683 12.941 15.17 19.902 7.173 14.365-23.179 37.616-40.65 25.233z"
                  fill="#ffd9b9"/>
            <path d="m78.135 448.014c-4.064-.114-8.038-1.249-11.58-3.756-6.456-4.568-9.776-9.364-9.869-14.251-.08-4.363 2.455-7.518 3.888-8.944-3.507-5.171-19.007-29.043-16.159-43.082 3.247-16.008 55.054-47.725 63.994-47.476 9.078.254 14.75 7.189 14.987 7.483.458.571.367 1.403-.203 1.863-.564.459-1.403.37-1.863-.199-.051-.063-5.168-6.279-12.995-6.498-8.058-.225-58.465 31.274-61.321 45.351-2.914 14.366 16.202 41.724 16.396 41.996.407.58.283 1.381-.275 1.815-.04.03-3.896 3.073-3.797 7.666.087 3.989 3.032 8.066 8.75 12.113 9.541 6.754 22.861 2.132 31.203-5.03 7.117-6.104 10.049-13.386 7.468-18.551-6.977-13.968-25.522-29.571-25.708-29.727-.355-.298-.529-.755-.461-1.212s.368-.846.793-1.026l38.603-16.445c.666-.286 1.452.027 1.739.699.286.676-.027 1.455-.701 1.741l-36.645 15.609c4.786 4.206 18.69 17.039 24.753 29.173 3.142 6.291-.044 14.83-8.116 21.753-6.086 5.222-14.665 9.165-22.881 8.935z"
                  fill="#4e2800"/>
        </g>
        <g>
            <path d="m43.238 381.774c.581-.074 1.185-.109 1.793-.107l49.198.216c2.58.011 4.82 1.732 5.077 3.811.703 5.684 2.003 11.257 3.619 15.685.633 1.737-.511 3.704-2.649 4.53l-37.724 14.569c-.089.034-.18.068-.269.1-3.59 1.281-7.827.69-9.348-1.412-6.223-8.606-11.715-19.594-15.595-31.783-.856-2.691 1.685-5.075 5.898-5.609z"
                  fill="#4e2800"/>
            <path d="m44.069 383.772 50.085-.463c1.38-.013 2.596.881 2.744 2.011.796 6.07 2.23 11.976 4.007 16.695.352.935-.273 2.008-1.433 2.441l-39.392 14.722c-1.972.737-4.273.409-5.082-.751-5.963-8.554-11.272-19.606-14.929-31.646-.493-1.625 1.353-2.984 4-3.009z"
                  fill="#ebf2f2"/>
            <path d="m97.833 403.249s-13.966-14.94-37.926-5.478c0 0 17.656-13.252 35.659-.567l-1.729-8.424s-1.178-3.615-10.825-2.727c-10.941 1.007-36.853 3.059-36.853 3.059s-.849 12.827 11.556 25.65c0 0-4.186-20.496 21.279-15.559 0 0-18.481-2.588-14.75 13.977 15.271-4.102 33.589-9.931 33.589-9.931z"
                  fill="#fff"/>
        </g>
        <path d="m51.648 378.892 35.459 1.566s-6.305-5.157-10.605-6.682-16.014 1.787-16.014 1.787 5.641-5.334 14.922-3.861c9.282 1.473 13.961 7.67 13.961 7.67s-2.094-7.338-5.347-9.728c-3.254-2.39-15.322-.109-15.322-.109s12.847-5.005 17.288-1.688 5.932 11.66 5.932 11.66l.166-5.934 1.839 5.032 23.126-9.507s6.629-10.347 6.824-14.16c.262-5.118-3.973-25.406-22.323-17.568-7.635 3.262-53.323 31.274-49.906 41.522z"
              fill="#fff"/>
        <path d="m311.878 229.543c-.938 0-1.848-.441-2.424-1.232-.784-1.074-.767-2.537.042-3.593l25.83-33.712c-8.1-12.796-12.37-27.538-12.37-42.773 0-44.171 35.936-80.106 80.106-80.106s80.106 35.936 80.106 80.106-35.936 80.106-80.106 80.106c-16.71 0-32.659-5.074-46.232-14.691l-43.942 15.72c-.331.118-.673.175-1.01.175z"
              fill="#4e2800"/>
        <path d="m403.062 71.127c-42.585 0-77.106 34.522-77.106 77.106 0 15.885 4.808 30.645 13.042 42.913l-27.12 35.397 45.43-16.252c12.8 9.453 28.621 15.048 45.754 15.048 42.585 0 77.106-34.522 77.106-77.106 0-42.585-34.521-77.106-77.106-77.106z"
              fill="#fff"/>
        <g fill="#fff577">
            <path d="m407.527 141.985c1.379 12.756-6.119 25.772-16.894 32.323-5.774 3.448-12.928 5.085-19.738 4.309-7.413-.948-13.618-4.482-18.1-10.429-7.498-9.998-7.154-24.134-1.81-34.907 2.845-5.861 7.327-10.861 12.671-14.395 19.393-13.016 41.458 1.033 43.871 23.099zm-45.681 16.118c2.585 5.085 7.326 8.791 14.307 8.188 5.603-.517 10.43-3.62 14.395-8.361 3.189-4.137 5.086-9.739 4.482-15.17-.862-6.377-4.913-13.015-11.292-15.428-16.376-6.723-28.184 17.928-21.892 30.771z"/>
            <path d="m459.416 175.255c-1.637 3.19-5.516 3.706-8.619 2.327-5.689-2.844-11.55-5.688-17.411-8.446-2.586-1.208-5.086-2.413-7.585-3.621-.431-.172-.862-.345-1.379-.69 0 4.137.172 8.274.172 12.412.087 3.534-2.845 6.12-6.292 6.292-3.361.087-6.206-3.016-6.206-6.292-.345-20.255-.431-40.596-.172-60.851 0-3.534 2.844-6.12 6.206-6.292 3.361-.087 6.292 3.016 6.292 6.292-.086 9.222-.172 18.359-.172 27.582 0-.087.087-.087.087-.087 8.274-7.498 16.635-14.997 24.823-22.497 2.672-2.413 6.377-2.413 8.877 0 2.413 2.155 2.5 6.637 0 8.878-4.31 3.792-8.447 7.671-12.756 11.636-3.879 3.448-7.672 6.809-11.464 10.343-.775.69-1.551 1.465-2.413 2.069 8.619 4.137 17.238 8.274 25.858 12.412 3.101 1.551 3.619 5.775 2.154 8.533z"/>
        </g>
    </g>
</svg>