<svg id="Travel" height="512" viewBox="0 0 1000 1000" width="512" xmlns="http://www.w3.org/2000/svg">
    <g>
        <path d="m928.557 351.132c-7.341-4.933-11.553-4.828-21.877-3.739l-114.861 4.052-61.842-290.291c-3.299-15.445-10.653-22.151-28.894-18.279l-624.225 132.99c-28.057 8.67-41.552 9.218-34.298 43.13 18.145 84.847 37.11 170.744 55.476 253.919 17.938 81.246 36.453 165.09 54.2 247.958 7.508 35.055 18.458 36.926 37.585 32.848 19.573-4.17 39.147-8.338 58.721-12.501 2.366 56.075 4.784 114.747 6.941 173.756 1.398 38.248 8.403 44.157 38.23 43.116 74.196-2.594 455.812-15.738 630.96-17.952 41.978-.536 35.003-37.855 33.046-46.168l-18.082-512.946c.367-12.721-1.75-23.625-11.08-29.893z"
              fill="none"/>
        <g>
            <path d="m938.665 909.303c-6.276-178.001-12.552-356-18.827-533.999-.218-6.207-3.697-8.65-10.837-8.398-41.776 1.472-83.553 2.946-125.329 4.419-4.426.156-8.002-1.704-8.967-6.23-21.026-98.731-42.063-197.457-63.096-296.184-1.002-4.698-4.401-7.319-9.974-6.132-211.16 44.986-422.321 89.975-633.48 134.96-7.908 1.687-9.365 3.5-7.643 11.564 37.004 173.291 76.412 346.061 113.41 519.35.983 4.604 5.075 7.354 9.363 6.438 27.945-5.954 55.894-11.903 83.84-17.843 2.979 70.287 5.908 140.582 8.425 210.888.304 8.49 2.335 10.915 9.785 10.651 214.711-7.578 429.493-15.671 644.332-18.297 5.406-.064 9.269-3.469 8.998-11.187z"
                  fill="#68182b"/>
            <g>
                <g fill="#b4d345">
                    <path d="m548.05 652.525c7.587 11.013 20.745 14.75 31.219 5.272.286-.258.596-.358.895-.532-5.001-13.773-12.657-26.443-23.161-36.908-12.062 6.761-17.644 19.558-8.953 32.168z"/>
                    <path d="m552.063 612.574c-5.968-9.959-14.368-17.891-24.29-23.951-12.141 12.825-11.266 40.08 7.706 45.055 1.85-8.577 7.661-16.143 16.584-21.104z"/>
                </g>
                <g fill="#d1ffff">
                    <path d="m273.859 347.345c6.06 4.765 11.647 10.795 18.776 13.976 12.68 5.655 26.995 3.373 31.881-11.263 2.629-7.875 4.136-15.727 9.71-21.547-25.578-14.235-59.133-29.91-71.474-16.728-9.532 10.186-17.119 23.252-23.482 36.957 9.562-8.432 21.715-11.516 34.589-1.395z"/>
                    <path d="m530.409 255.085c-7.868-2.94-24.632-11.756-31.965-4.471-9.907 9.846-17.239 22.391-24.094 34.463-8.967 15.786-17.303 31.932-25.206 48.289-3.023 6.252-2.53 8.254 2.835 11.153 9.759 5.27 23.842 5.114 32.293-.526 9.04-6.034 13.096-14.838 17.344-24.433 5.487-12.402 12.163-25.803 26.878-28.092 15.916-2.475 26.635 10.684 36.972 20.148 8.043 7.368 21.607 14.422 31.969 6.561 5.941-4.505 8.79-11.153 10.26-18.201.95-4.56.52-8.557-4.595-11.358-23.552-12.905-47.87-24.261-72.691-33.533z"/>
                </g>
                <g fill="#91deff">
                    <path d="m261.171 389.747c56.802-2.004 113.607-4.007 170.408-6.01-23.31-13.066-46.293-26.722-69.832-39.369-3.67-1.973-9.393-5.42-16.306-9.451-4.822-2.813-9.882-2.263-12.4 3.571-3.265 7.565-3.896 16.738-10.026 22.859-6.925 6.916-16.267 9.974-25.863 6.664-12.543-4.323-19.521-14.684-31.012-20.299-7.155-3.495-13.5-2.69-18.96.438-9.791 5.61-14.666 16.215-17.128 22.657-2.366 6.184-4.559 12.256-6.645 18.013-8.877 24.499-21.943 50.09-27.516 75.961-1.947 9.036-2.38 13.856-.682 21.713 11.965 55.362 23.81 110.751 35.613 166.147 1.041 4.885 2.846 5.191 6.962 4.315 8.854-1.887 17.709-3.773 26.564-5.66-3.607-84.599-7.197-169.199-10.213-253.823-.221-6.203.664-7.498 7.036-7.726z"/>
                    <path d="m448.747 383.134c82.867-2.921 165.735-5.844 248.602-8.763 3.43-.12 4.808-1.704 3.882-6.044-1.22-5.716-2.432-11.433-3.654-17.146-26.461-20.662-54.801-39.979-84.436-56.922-2.18 15.635-9.245 33.244-28.062 31.586-9.078-.799-16.346-4.639-22.869-10.969-8.356-8.104-17.428-19.356-30.342-18.965-26.021.789-24.639 38.291-43.019 50.557-12.694 8.473-33.44 8.869-44.96-2.094-4.433 9.453-8.769 18.953-12.919 28.525 5.503 3.094 11.015 6.17 16.553 9.2.529.287.888.656 1.224 1.035z"/>
                </g>
                <path d="m910.914 383.465c-.188-5.355-.289-7.406-6.911-7.173-211.39 7.452-422.776 14.907-634.164 22.359-5.02.177-6.334 2.948-6.127 8.665 6.214 171.915 14.649 343.741 20.853 515.656.207 5.732 2.113 6.559 8.263 6.341 210.105-7.423 420.272-15.264 630.5-17.938 5.404-.069 6.165-.937 5.961-6.743-6.127-173.72-12.25-347.444-18.375-521.167zm-43.576 482.442c-174.441 2.229-348.825 8.757-523.163 14.906-6.08.218-7.914 1.091-8.239-8.013-.535-15.121-1.081-30.24-1.62-45.357-.074-.342-.067-.709-.038-1.096-4.432-124.591-9.083-249.177-15.307-373.691-.378-7.542.606-8.124 7.866-8.38 174.891-6.167 349.778-12.334 524.665-18.499 1.175-.042 2.159.008 2.995.146l.027-.248v.251c3.793.64 4.384 3.192 4.515 8.041 3.117 114.756 7.687 229.461 12.012 344.174.002.055.01.11.007.164.996 26.389 1.993 52.777 2.942 79.166.262 7.227-.506 8.354-6.662 8.436z"
                      fill="#d1ffff"/>
                <path d="m717.358 491.282c-41.87.445-75.025 22.101-92.427 59.462 43.424 4.487 85.697 38.003 91.147 81.699 1.17 9.347-3.404 10.911-8.56 5.439-17.777-18.876-43.966-20.445-68.431-17.467 7.737 12.086 11.944 26.308 10.732 41.1-.049.603-.159 1.183-.218 1.78.126.082.252.143.376.238 42.533 33.239 100.033 29.998 138.939-7.943 27.268-26.588 34.49-66.862 20.644-102.371-14.909-38.238-50.767-62.378-92.202-61.937z"
                      fill="#ffe40e"/>
                <g fill="#cfff73">
                    <path d="m580.344 594.359c-1.837 3.176-3.801 6.295-5.907 9.336 50.2 17.946 52.332 81.9 30.116 126.22-3.312 6.604-2.669 7.29 2.313 1.995 14.976-15.916 26.974-34.572 31.491-55.496 8.356-38.705-15.922-79.871-58.013-82.055z"/>
                    <path d="m592.832 562.638c-1.089 5.118-2.597 10.141-4.481 15.045 32.88-11.851 75.987-5.177 102.474 18.397-22.608-28.249-64.14-43.633-97.993-33.442z"/>
                    <path d="m517.836 489.862c-39.214 4.56-70.21 28.438-92.667 59.109-4.877 6.662-3.564 7.842 2.905 2.718 25.818-20.446 58.816-34.64 89.12-27.919 18.457 4.095 36.43 14.886 43.959 33.03 3.883 9.357 6.329 20.752 6.281 31.921-.032 7.243 1.025 7.541 4.564 1.552 13.854-23.443 21.853-52.802 6.094-75.737-13.652-19.874-36.87-27.393-60.256-24.674z"/>
                </g>
                <g fill="#acff1d">
                    <path d="m571.615 607.597c-2.041 2.748-4.172 5.438-6.396 8.061 29.801 31.113 37.729 79.15 26.241 120.32-1.771 6.35-.843 8.138 2.587 2.914 27.428-41.772 30.736-113.504-22.432-131.295z"/>
                    <path d="m418.283 572.775c45.167-16.945 108.778-9.611 137.276 28.409 3.258 4.348 5.242 4.741 6.5-2.688 2.59-15.302-.431-33.541-7.815-45.095-10.089-15.789-27.89-25.256-46.526-26.334-33.168-1.913-67.889 17.361-91.997 41.703-6.72 6.785-1.858 5.663 2.562 4.005z"/>
                    <path d="m585.899 583.552c-.311.689-.635 1.377-.958 2.061 18.412 2.265 35.702 12.209 47.845 26.441 23.051-3.268 47.777-3.276 67.517 8.371 4.852 2.862 4.835 2.282 1.879-3.071-20.891-37.827-77.945-50.166-116.283-33.802z"/>
                </g>
                <g fill="#ad8353">
                    <path d="m479.225 712.806c8.266-10.825 17.141-21.321 26.608-31.515-13.436-5.022-22.642-20.719-22.668-35.127-12.743 8.485-24.857 17.604-36.204 27.447.061.299.066.623-.005.977-3.524 17.134 16.541 34.884 32.269 38.218z"/>
                    <path d="m509.349 677.577c8.723-9.188 17.895-18.15 27.551-26.879-.979-2.592-1.579-5.182-1.862-7.746-.212-.014-.391.047-.611.004-9.596-1.851-16.148-7.828-19.941-15.506-9.139 4.875-18.032 10.016-26.575 15.514-1.691 13.937 7.808 30.705 21.438 34.613z"/>
                    <path d="m428.494 802.677c6.013-15.55 13.071-30.485 21.111-44.865-.024-.022-.049-.045-.075-.066-4.942-.543-9.8-1.883-14.383-3.875-.121-.051-.239-.106-.36-.159-.349-.154-.7-.307-1.045-.47-4.8-2.211-9.2-5.159-13.007-8.655-8.188-7.406-13.89-17.315-14.944-28.296-.042-.021-.083-.044-.127-.061-9.079 11.088-17.54 22.7-25.271 34.906-1.228 26.326 23.35 47.094 48.101 51.541z"/>
                    <path d="m189.477 724.371c25.75-5.486 51.501-10.971 77.253-16.444-.671-15.77-1.317-31.536-1.99-47.307-10.36 2.205-20.722 4.413-31.084 6.62-4.246.903-8.541 2.747-9.63-2.371-29.478-138.376-59.032-276.746-90.551-414.675-1.412-6.167-.287-8.228 6-9.566 170.563-36.338 341.126-72.675 511.691-109.013 2.071-.442 3.681-.706 4.966-.778v-.217l.104.209c4.08-.199 4.725 1.673 5.735 6.613 12.85 62.783 41.499 197.313 48.402 229.658 1.443 6.757 3.745 6.677 10.144 6.452 15.414-.543 30.827-1.087 46.241-1.63-20.872-97.98-41.741-195.959-62.621-293.939-.829-3.889-1.416-6.032-6.328-4.986-207.929 44.3-415.861 88.599-623.792 132.898-3.438.732-4.313 2.349-3.524 6.039 36.181 169.21 74.581 337.938 110.776 507.146 1.429 6.677 3.117 6.375 8.208 5.291z"/>
                    <path d="m452.155 753.297c7.261-12.559 15.291-24.689 24.031-36.434-16.398-4.289-34.291-21.366-34.116-38.809-11.326 10.206-21.963 21.053-31.811 32.589-1.53 22.591 20.19 41.375 41.896 42.654z"/>
                    <path d="m426.779 807.017c-24.625-4.58-47.626-24.127-50.579-48.974-8.12 13.474-15.441 27.574-21.938 42.285 2.471 30.363 33.203 42.629 60.043 48.127 3.397-14.27 7.52-28.098 12.474-41.438z"/>
                    <path d="m351.669 871.338c19.426-.686 38.851-1.375 58.278-2.062.982-5.521 2.073-10.975 3.283-16.357-26.585-5.451-55.778-17.602-62.396-44.668-2.569 6.184-5.033 12.439-7.32 18.824.444 12.467.894 24.931 1.336 37.396.282 7.942.075 7.104 6.819 6.867z"/>
                </g>
                <path d="m864.556 851.137c-.774-21.444-1.582-42.891-2.39-64.333-.165-4.368-1.15-6.532-5.346-8.637-34.752-17.438-83.874-11.766-120.34-6.012-35.707 5.636-70.71 14.297-105.748 23.07-62.473 15.639-128.676 26.348-190.481 2.887-9.243 22.216-16.228 45.781-20.888 70.832 146.789-5.188 293.61-10.159 440.473-12.138 4.477-.06 4.901-.671 4.72-5.669z"
                      fill="#67d8eb"/>
                <g fill="#d1ffff">
                    <path d="m397.45 261.266c8.313-1.772 16.744-3.644 24.647-6.854 5.64-2.295 28.693-15.293 9.303-19.361-17.054-3.576-36.223.627-52.951 4.183-5.565 1.183-49.531 13.608-34.841 23.559 15.602 7.036 37.693 1.922 53.842-1.527z"/>
                    <path d="m633.435 208.153c-6.309 2.089-22.265 7.014-23.757 15.34-2.656 14.823 53.808 3.92 61.322 2.363-1.705-8.13-3.384-16.265-5.078-24.396-10.821 1.661-22.082 3.249-32.487 6.693z"/>
                    <path d="m189.563 310.935c5.437-2.131 23.451-8.934 22.752-17.172-1.192-14.071-46.099-2.502-59.367 1.049 1.828 8.121 3.671 16.238 5.487 24.359 10.425-2.175 21.223-4.35 31.128-8.236z"/>
                </g>
                <path d="m864.556 851.137c-.774-21.444-1.582-42.891-2.39-64.333-.11-2.92-.593-4.854-2.15-6.444-3.272 37.036-31.271 50.484-93.147 52.008-9.555.235-18.997-.848-28.424-2.151-29.25-4.05-52.739-2.793-88.484 7.531-26.91 7.771-52.544 15.509-97.255 7.063-48.683-5.928-75.689-4.12-132.569 20.255-.255 1.295-.53 2.577-.772 3.88 146.789-5.188 293.61-10.159 440.473-12.138 4.475-.062 4.899-.673 4.718-5.671z"
                      fill="#73bcd8"/>
                <path d="m811.668 781.964c-44.248 1.757-70.17 8.339-83.062 11.478-8.567 2.084-9.974-1.795-2.149-6.341 11.411-6.628 31.231-15.828 84.987-12.635 7.787.461 7.796 7.197.224 7.498zm-124.353 15.236c-6.946 2.262-14.027 4.063-21.11 5.846-14.079 3.547-28.5 5.791-42.93 7.332-13.877 1.484-27.872 2.392-41.815 2.949-8.195.327-16.27.639-23.98 2.4-16.564 3.786-17.128 9.691-1.327 10.239 24.341.84 48.717-.862 72.791-4.915 14.087-2.372 28-5.727 41.677-9.856 7-2.113 13.867-4.775 20.637-7.539 11.596-4.733 8.249-10.429-3.943-6.456z"
                      fill="#d1ffff"/>
                <path d="m782.172 630.118c-43.812 42.751-94.414 41.56-133.634 12.835 1.319 6.002 1.801 12.229 1.282 18.563-.049.603-.159 1.183-.218 1.78.126.082.252.143.376.238 42.533 33.239 100.033 29.998 138.939-7.943 27.256-26.576 34.483-66.828 20.66-102.325 1.992 24.246-5.168 55.154-27.405 76.852z"
                      fill="#fab301"/>
                <path d="m690.873 512.156c12.488-9.02 5.139-13.073-4.636-8.483-37.561 17.639-48.502 36.09-53.646 48.173 5.298.963 10.545 2.35 15.679 4.119 11.14-19.716 17.406-25.61 42.603-43.809z"
                      fill="#fbf686"/>
                <path d="m259.508 351.588c3.699 1.58 7.238 5.016 9.82 7.053 6.006 4.742 12.313 9.416 19.422 12.367 6.512 2.709 13.654 4.137 20.693 3.053 3.047-.471 5.975-1.676 8.768-2.934 6.786-3.048 11.069 1.882 4.683 5.926-2.928 1.853-6.425 2.705-9.82 3.125-6.847.849-13.636.414-20.2-1.813-7.589-2.572-14.589-6.826-21.086-11.447-3.121-2.219-6.138-4.574-9.171-6.912-.905-.698-3.05-2.073-5.127-3.426-4.607-2.999-2.924-7.103 2.018-4.992zm272.315-49.29c-11.285.441-15.476 9.855-18.379 19.604-1.453 4.877-4.53 13.03-10.948 20.353-5.931 6.769-2.632 7.797 3.084 5.368 6.584-2.798 11.386-8.541 14.908-14.514 7.399-12.551 7.599-19.973 15.188-23.12 5.355-2.22 3.596-7.978-3.853-7.691z"
                      fill="#d1ffff"/>
                <g fill="#aeae38">
                    <path d="m527.773 588.623c-3.256 3.439-5.565 7.921-6.852 12.729.911.229 1.82.459 2.726.715 5.4 1.524 10.566 3.389 15.563 5.951 2.459 1.26 7.512 4.871 10.183 6.192.858-.57 1.744-1.12 2.671-1.636-5.969-9.959-14.369-17.891-24.291-23.951z"/>
                    <path d="m580.163 657.265c-5.001-13.773-12.657-26.443-23.161-36.908-2.441 1.368-4.612 2.988-6.458 4.8.051.093.1.191.152.279 1.769 2.977 4.108 5.58 6.328 8.219 4.097 4.879 7.96 9.77 11.115 15.33 2.256 3.978 4.161 8.161 5.694 12.475 1.86-.873 3.686-2.079 5.435-3.662.287-.258.597-.359.895-.533z"/>
                </g>
                <g fill="#895725">
                    <path d="m446.961 673.612c.061.299.066.623-.005.977-.872 4.241-.295 8.519 1.299 12.606 5.409-6.338 10.925-12.558 16.586-18.561 5.973-6.332 12.209-12.155 18.671-17.648-.222-1.612-.344-3.225-.347-4.821-12.743 8.485-24.858 17.604-36.204 27.447z"/>
                    <path d="m415.267 730.854c9.105-13.883 19.159-27.188 29.794-39.898-1.933-4.146-3.035-8.512-2.991-12.901-11.326 10.206-21.963 21.053-31.811 32.589-.493 7.287 1.443 14.174 5.008 20.21z"/>
                    <path d="m389.06 778.536c.626-1.471 1.253-2.94 1.925-4.384 6.247-13.421 13.556-26.437 21.588-39.045-3.699-5.637-6.13-12.022-6.782-18.817-.042-.021-.083-.045-.127-.061-9.079 11.088-17.539 22.7-25.271 34.906-.475 10.173 2.914 19.509 8.667 27.401z"/>
                    <path d="m514.485 627.45c-9.139 4.875-18.032 10.016-26.575 15.514-.178 1.465-.225 2.962-.163 4.471 8.111-6.488 21.881-15.82 27.97-17.734-.436-.733-.852-1.482-1.232-2.251z"/>
                    <path d="m193.772 676.085c-13.312-18.096-16.184-51.602-22.324-72.785-26.323-90.819-47.618-183.284-75.46-273.65 28.394 129.817 57.484 259.483 85.281 389.431 1.43 6.677 3.118 6.375 8.209 5.291 25.75-5.486 51.501-10.971 77.253-16.444-.49-11.512-.969-23.023-1.453-34.535-8.807 2.106-17.632 4.151-26.468 6.117-14.228 3.165-34.605 10.753-45.038-3.425z"/>
                    <path d="m350.834 808.251c-2.569 6.184-5.033 12.439-7.32 18.824.444 12.467.894 24.931 1.336 37.396.282 7.942.075 7.104 6.819 6.867 3.638-.128 7.275-.258 10.913-.386 1.689-11.992 3.957-23.937 6.896-35.728-8.984-6.736-15.842-15.513-18.644-26.973z"/>
                    <path d="m766.758 371.921c-16.865-79.171-33.731-158.342-50.6-237.513 2.819 44.751 20.271 189.614 27.084 238.342 7.838-.276 15.677-.552 23.516-.829z"/>
                    <path d="m376.2 758.044c-8.12 13.474-15.441 27.574-21.938 42.285 1.069 13.138 7.434 22.882 16.48 30.161 4.278-16.16 9.736-31.976 16.278-47.224-5.78-7.32-9.712-15.898-10.82-25.222z"/>
                </g>
                <g fill="#73bcd8">
                    <path d="m196.338 462.865c-.146.639-.309 1.277-.447 1.917-1.947 9.036-2.38 13.856-.682 21.713 11.965 55.362 23.81 110.751 35.613 166.147 1.041 4.885 2.846 5.191 6.962 4.315 8.854-1.887 17.709-3.773 26.564-5.66-1.416-33.204-2.818-66.409-4.195-99.615-26.755 12.492-56.992-42.529-63.815-88.817z"/>
                    <path d="m448.747 383.134c82.867-2.921 165.735-5.844 248.602-8.763 3.43-.12 4.808-1.704 3.882-6.044-1.22-5.716-2.432-11.433-3.654-17.146-6.885-5.376-13.903-10.655-21.032-15.831-13.902 11.856-145.216 60.89-241.624 28.595-1.331 2.979-2.652 5.962-3.95 8.955 5.503 3.094 11.015 6.17 16.553 9.2.528.286.887.655 1.223 1.034z"/>
                </g>
                <g fill="#d7bd8c">
                    <path d="m506.338 672.515c-.831.882-1.63 1.797-2.435 2.707 1.723 1.004 3.542 1.809 5.445 2.354 8.723-9.188 17.895-18.15 27.551-26.879-.497-1.316-.895-2.632-1.204-3.943-3.569 2.305-6.867 5.38-9.568 7.683-6.861 5.855-13.582 11.49-19.789 18.078z"/>
                    <path d="m476.186 716.863c-1.356-.354-2.723-.805-4.088-1.327-8.327 11.942-16.088 24.479-23.079 37.443 1.044.142 2.089.256 3.136.317 7.261-12.558 15.291-24.689 24.031-36.433z"/>
                    <path d="m479.225 712.806c8.266-10.825 17.141-21.321 26.608-31.515-1.772-.662-3.469-1.516-5.082-2.521-9.227 10.402-17.783 21.483-25.822 32.805 1.454.517 2.893.934 4.296 1.231z"/>
                    <path d="m426.243 806.907c-.679 2.194-1.39 4.382-1.994 6.592-.221.811-.415 1.623-.627 2.435 1.015-2.994 2.062-5.969 3.156-8.916-.178-.034-.356-.076-.535-.111z"/>
                    <path d="m449.606 757.811c-.024-.023-.049-.045-.075-.066-.944-.104-1.884-.245-2.822-.405-7.58 14.552-14.064 29.648-19.08 45.164.289.056.577.121.865.173 6.013-15.551 13.071-30.486 21.112-44.866z"/>
                </g>
                <path d="m201.259 423.132c6.843-17.07 12.001-34.743 19.084-51.727 8.312-19.929 19.712-59.39 40.933-70.08 23.976-12.084 53.813 9.092 74.941 19.516 29.607 14.606 58.07 31.279 86.771 47.545.018-.041.008-.08.026-.123 15.548-35.867 32.138-72.82 54.072-105.305 14.039-20.799 22.891-28.44 47.507-19.76 58.416 20.602 113.849 52.473 163.729 89.458 3.498 2.594 5.777 2.242 4.408-4.16-6.67-31.201-13.29-62.41-19.854-93.633-17.065 3.639-65.93 16.48-72.322-8.189-2.176-8.398 6.841-16.309 13.178-19.925 15.354-8.761 33.064-11.597 50.322-14.259-3.203-15.392-6.454-30.772-9.629-46.168-.734-3.567-2.459-5.477-6.891-4.534-166.114 35.391-332.226 70.78-498.336 106.17-5.07 1.081-6.224 2.546-5.018 7.879 2.259 9.984 4.481 19.978 6.737 29.962 18.481-5.134 62.853-18.293 70.312 5.174 2.615 8.231-6.385 16.646-12.365 20.502-14.514 9.354-31.696 13.148-48.407 16.664 9.572 42.877 19.037 85.777 28.357 128.712 3.315-11.442 7.908-22.409 12.445-33.719zm152.552-186.494c22.995-8.766 63.927-19.58 87.448-7.329 18.212 9.488.283 27.074-10.858 31.604-20.695 8.412-49.73 15.726-77.597 13.781-9.823-.686-18.773-3.232-21.014-13.212-2.305-10.274 11.381-20.787 22.021-24.844z"
                      fill="#67d8eb"/>
                <path d="m844.671 435.231c-169.554 5.976-339.106 11.955-508.666 17.931-6.576.232-7.749 1.317-7.409 8.168 5.644 114.194 10 228.446 14.093 342.704 33.702-80.412 90.646-144.244 168.791-185.43-2.428-11.818.297-25.287 7.904-34.494-35.042-16.55-83.829-13.22-114.594 5.423-9.572 5.794-15.748 5.262-9.254-8.509 25.828-54.664 77.548-107.382 142.779-100.012 24.817 2.802 49.242 19.717 54.641 45.272 1.901 8.998 2.278 17.818 1.436 26.404 6.793-1.67 13.772-2.467 20.796-2.461 19.091-43.076 59.834-72.57 108.621-67.876 44.467 4.276 84.213 29.219 96.515 74.108 11.966 43.668 1.462 88.473-36.721 115.441-43.073 30.424-93.05 31.899-135.504 1.5-7.813 39.986-37.277 72.062-70.062 95.144-3.398 2.391-14.463 5.184-7.352-6.809 16.354-27.529 20.962-63.469 12.395-95.231-13.701 10.019-31.672 6.601-41.676-7.438-42.3 38.629-75.41 81.397-97.469 130.655 77.094 28.662 155.777 2.287 232.341-15.137 35.569-8.096 72.104-15.573 108.734-16.102 25.804-.373 53.24-.09 76.534 11.703-4.152-109.837-8.481-219.668-11.52-329.545-.101-3.697.499-5.615-5.353-5.409z"
                      fill="#ff821d"/>
            </g>
        </g>
    </g>
</svg>