<svg height="512" viewBox="0 0 512 512" width="512" xmlns="http://www.w3.org/2000/svg">
    <g id="Stickers">
        <path d="m372.078 255.974a18.106 18.106 0 0 0 6.528-13.993v-121.011a18.218 18.218 0 0 0 -18.2-18.2h-39.643a14.611 14.611 0 0 0 -14.229-11.37h-27.159a14.5 14.5 0 0 0 -7.529 2.1v-.571a24.089 24.089 0 0 0 -24.061-24.061h-110.966a24.089 24.089 0 0 0 -24.062 24.061v.7a14.5 14.5 0 0 0 -7.737-2.229h-27.159a14.612 14.612 0 0 0 -14.229 11.371h-39.432a18.218 18.218 0 0 0 -18.2 18.199v121.011a18.1 18.1 0 0 0 6.528 13.993v114.318a20.461 20.461 0 0 0 20.438 20.439h230.483a52.169 52.169 0 0 1 -8.535 9.316c-11.368-5.051-24.306-.016-34.056 4-1.392 15.653-1.808 26.566 13.847 39.089 11.5-2.477 26.229-6.711 30.784-18.5 8.3-5.2 15.959-13.272 23.192-24.429 51.615 13.312 116.545 17.168 166.018-2.192l8.623-3.374-14.415-56.544 57.093-11.431v-20.55l-133.922-26.8z"
              fill="none"/>
        <path d="m261.367 92.929v32.213h-8.524v-32.842a5.053 5.053 0 0 0 -5.053-5.053h-110.977a5.052 5.052 0 0 0 -5.052 5.053v32.839h-8.525v-32.21a13.583 13.583 0 0 1 13.583-13.583h110.966a13.582 13.582 0 0 1 13.582 13.583z"
              fill="#c72f55"/>
        <rect fill="#ff605b" height="245.944" rx="9.505" width="338.594" x="23.006" y="134.308"/>
        <rect fill="#c72f55" height="136.448" rx="7.366" width="351.649" x="16.478" y="113.251"/>
        <path d="m77.674 101.881h27.534a3.921 3.921 0 0 1 3.921 3.921v152.447a9.98 9.98 0 0 1 -9.98 9.98h-15.416a9.98 9.98 0 0 1 -9.98-9.98v-152.449a3.921 3.921 0 0 1 3.921-3.921z"
              fill="#00abfe"/>
        <path d="m68.489 221.361h45.904v11.442h-45.904z" fill="#ffb020"/>
        <path d="m279.187 101.881h27.534a3.921 3.921 0 0 1 3.921 3.921v152.447a9.98 9.98 0 0 1 -9.98 9.98h-15.415a9.98 9.98 0 0 1 -9.98-9.98v-152.449a3.921 3.921 0 0 1 3.921-3.921z"
              fill="#00abfe"/>
        <path d="m270.002 221.361h45.904v11.442h-45.904z" fill="#ffb020"/>
        <path d="m304.325 316.391-19.583 71.862s93.493 28.427 166.138 0l-18.319-71.862z" fill="#a369f7"/>
        <path d="m368.127 343.574-135.816-27.183 135.816-27.184 135.817 27.184z" fill="#00abfe"/>
        <g fill="#ffb020">
            <path d="m249.327 417.726a2.5 2.5 0 0 1 1.521-3.192c20.733-7.348 33.845-38.06 43.42-60.486 5.547-12.991 9.929-23.254 14.722-27.472 13.169-11.591 57.217-12.646 59.085-12.685a2.5 2.5 0 1 1 .105 5c-.439.009-44.081 1.048-55.886 11.439-3.943 3.471-8.338 13.764-13.427 25.683-9.938 23.276-23.549 55.154-46.349 63.235a2.5 2.5 0 0 1 -3.191-1.522z"/>
            <path d="m237.364 431.841s-7.9-6.317-6.632-20.53c0 0 20.616-8.5 24.976 3.839 4.192 11.85-18.344 16.691-18.344 16.691z"/>
        </g>
    </g>
</svg>