<svg clip-rule="evenodd" fill-rule="evenodd" height="512" stroke-linejoin="round" stroke-miterlimit="2"
		 viewBox="0 0 256 256" width="512" xmlns="http://www.w3.org/2000/svg" >
	<g id="Exp-2.-Sticker" >
		<g>
			<g fill="#800080">
				<path
					d="m167.753 215.876c.204 5.442 4.724 9.721 10.168 9.625 9.307-.163 39.346.562 39.346.562 2.77.067 5.443-1.019 7.382-2.999 1.94-1.979 2.971-4.674 2.847-7.442-2.881-64.8 1.21-131.934 1.21-131.934.163-2.682-.759-5.317-2.56-7.311s-4.329-3.179-7.014-3.289c-23.688-.967-42.394.785-42.394.785-5.027.469-8.917 4.611-9.069 9.657-2.169 72.176.084 132.346.084 132.346z" />
				<path
					d="m98.569 215.069c-.109 2.761.929 5.444 2.868 7.413 1.94 1.969 4.607 3.047 7.37 2.979 15.831-.388 37.104-.109 37.104-.109 2.67.035 5.243-.999 7.146-2.873 1.903-1.873 2.977-4.429 2.984-7.099.161-59.844-1.11-77.776-1.11-77.776-.348-4.976-4.311-8.934-9.287-9.277-21.227-1.464-36.429-.247-36.429-.247-5.33.421-9.386 4.959-9.208 10.302.735 22.081-1.438 76.687-1.438 76.687z"/>
				<path
					d="m48.754 215.931c-.03 2.689 1.023 5.277 2.923 7.179 1.899 1.903 4.485 2.961 7.174 2.935 17.967-.175 32.891-.438 32.891-.438 2.701-.048 5.268-1.186 7.117-3.157 1.848-1.97 2.821-4.605 2.696-7.304-1.154-24.946-.414-49.912-.414-49.912.154-5.174-3.667-9.61-8.806-10.226-22.221-2.662-32.619-.831-32.619-.831-4.185.68-7.486 3.926-8.237 8.099-2.174 12.079-2.725 53.655-2.725 53.655z" />
				<path
					d="m33.459 48.416s-2.465 96.321-.172 186.908c.161 6.345 5.442 11.366 11.787 11.205 6.345-.16 11.366-5.442 11.206-11.787-2.279-90.02.171-185.738.171-185.738.162-6.345-4.857-11.628-11.202-11.79s-11.628 4.857-11.79 11.202z"/>
				<path
					d="m24.064 228.262s107.127-2.918 207.894-.365c6.345.161 11.627-4.86 11.788-11.205s-4.86-11.627-11.205-11.787c-101.353-2.568-209.104.366-209.104.366-6.344.173-11.355 5.464-11.182 11.809.173 6.344 5.464 11.355 11.809 11.182z"/>
				<path
					d="m145.403 54.949c-4.187 4.265-9.398 9.322-15.516 14.782-5.68-1.003-16.152-3.033-28.097-6.212-3.34-.889-6.903.011-9.422 2.379 0 0-19.125 17.985-33.849 33.66-1.664 1.772-2.986 4.264-2.817 7.757.082 1.67 1.093 5.204 3.702 9.03 4.046 5.933 12.105 13.97 14.879 15.282 2.992 1.415 5.529 1.212 7.254.781 1.198-.3 3.977-1.433 6.986-4.718 3.398-3.709 10.188-12.733 18.901-22.765 7.944 1.429 22.959 3.96 36.623 5.318 3.708.369 7.314-1.356 9.355-4.474 0 0 10.353-15.815 23.931-35.174.238.247.478.493.722.737 2.681 2.68 6.647 3.615 10.242 2.413 3.596-1.203 6.202-4.334 6.732-8.088 0 0 3.627-25.846 3.627-44.69 0-3.571-1.904-6.871-4.996-8.658s-6.902-1.79-9.996-.007c0 0-23.922 13.82-38.944 27.12-2.901 2.57-4.057 6.584-2.966 10.303.627 2.135 1.929 3.951 3.649 5.224z"/>
			</g>
			<path
				d="m177.746 215.503s-2.239-59.864-.081-131.673c0 0 18.117-1.687 41.059-.75 0 0-4.122 67.669-1.218 132.986 0 0-30.355-.728-39.76-.563z"
				fill="#ffbe32"/>
			<g fill="#fff">
				<path
					d="m216.056 194.564s-3.563 4.017-8.654 8.279c-.423.354-.479.985-.125 1.409.355.423.986.479 1.409.124 5.217-4.367 8.867-8.485 8.867-8.485.366-.413.328-1.045-.085-1.412-.413-.366-1.045-.328-1.412.085z"/>
				<path
					d="m215.789 171.008s-10.983 10.572-21.076 21.867c-.368.411-.332 1.044.079 1.412.412.368 1.045.332 1.412-.079 10.044-11.239 20.972-21.759 20.972-21.759.398-.383.41-1.016.027-1.414s-1.016-.41-1.414-.027z"/>
				<path
					d="m215.806 151.766s-2.815 2.951-14.067 10.65c-.455.312-.572.935-.26 1.39.311.456.934.573 1.39.261 11.521-7.883 14.389-10.925 14.389-10.925.38-.4.363-1.034-.038-1.414-.4-.379-1.034-.363-1.414.038z"/>
				<path
					d="m216.193 131.947s-11.338 9.649-24.516 18.243c-.462.302-.592.922-.291 1.384.302.462.922.593 1.384.291 13.287-8.665 24.719-18.395 24.719-18.395.42-.358.471-.99.114-1.41-.358-.42-.99-.471-1.41-.113z"/>
				<path
					d="m216.752 116.463s-5.717 3.289-12.398 9.241c-.412.367-.449.999-.082 1.411.367.413 1 .449 1.412.082 6.504-5.794 12.066-9.001 12.066-9.001.478-.275.643-.887.367-1.365-.275-.479-.887-.643-1.365-.368z"/>
				<path
					d="m217.552 92.258s-15.643 13.425-32.946 25.863c-.448.322-.55.947-.228 1.395s.947.551 1.396.229c17.374-12.489 33.081-25.97 33.081-25.97.419-.359.467-.991.107-1.41-.359-.419-.991-.467-1.41-.107z"/>
				<path
					d="m205.673 81.929s-5.697 3.201-14.423 10.715c-.419.361-.466.992-.106 1.411.361.418.992.465 1.411.105 8.534-7.349 14.099-10.489 14.099-10.489.481-.27.651-.881.381-1.362-.271-.481-.881-.651-1.362-.38z"/>
			</g>
			<path
				d="m108.561 215.464s2.183-55.124 1.441-77.415c0 0 14.587-1.151 34.954.254 0 0 1.244 17.764 1.085 77.05 0 0-21.488-.281-37.48.111z"
				fill="#ff9227"/>
			<path
				d="m145.322 181.421s-7.984 6.831-18.326 17.294c-.388.392-.384 1.026.008 1.414.393.388 1.026.384 1.414-.008 10.274-10.393 18.204-17.181 18.204-17.181.42-.359.469-.991.11-1.41s-.991-.468-1.41-.109z"
				fill="#fff"/>
			<path
				d="m145.148 161.135s-5.741 3.958-12.613 10.443c-.402.379-.42 1.012-.041 1.414.378.401 1.012.419 1.413.041 6.744-6.365 12.376-10.252 12.376-10.252.455-.314.569-.937.256-1.391-.314-.455-.937-.569-1.391-.255z"
				fill="#fff"/>
			<path
				d="m144.823 145.623s-10.455 6.016-25.046 18.557c-.419.36-.466.992-.107 1.41.36.419.992.466 1.41.107 14.416-12.391 24.741-18.341 24.741-18.341.478-.276.643-.887.367-1.366-.275-.478-.887-.643-1.365-.367z"
				fill="#fff"/>
			<path
				d="m133.952 137.101s-4.486 4.908-12.157 9.983c-.461.305-.587.925-.283 1.386.305.46.926.587 1.386.282 7.911-5.233 12.531-10.303 12.531-10.303.372-.407.343-1.04-.064-1.412-.408-.372-1.041-.343-1.413.064z"
				fill="#fff"/>
			<path
				d="m58.754 216.045s.46-40.292 2.567-51.997c0 0 9.504-1.546 29.824.889 0 0-.751 25.346.421 50.672 0 0-14.888.262-32.812.436z"
				fill="#4bcbec"/>
			<path
				d="m90.43 192.054s-4.756 2.904-11.547 8.847c-.416.363-.458.995-.095 1.411.364.415.996.457 1.412.094 6.633-5.804 11.273-8.646 11.273-8.646.471-.288.62-.904.332-1.375s-.904-.619-1.375-.331z"
				fill="#fff"/>
			<path
				d="m90.275 176.456s-10.835 9.634-21.897 15.938c-.479.273-.647.885-.373 1.364.273.48.884.647 1.364.374 11.232-6.401 22.235-16.181 22.235-16.181.412-.367.449-.999.083-1.412-.367-.412-1-.449-1.412-.083z"
				fill="#fff"/>
			<path
				d="m85.879 163.59s-6.419 4.284-11.926 8.921c-.423.356-.477.987-.121 1.409.355.422.987.477 1.409.121 5.424-4.568 11.748-8.787 11.748-8.787.459-.306.583-.928.276-1.387-.306-.459-.927-.583-1.386-.277z"
				fill="#fff"/>
			<path
				d="m43.455 48.672s-2.458 96.058-.171 186.399c.021.828.71 1.483 1.537 1.462.828-.021 1.483-.71 1.462-1.538-2.285-90.267.171-186.246.171-186.246.021-.828-.633-1.517-1.461-1.538-.827-.022-1.517.633-1.538 1.461z"
				fill="none"/>
			<path
				d="m23.791 218.266s107.399-2.925 208.42-.366c.828.021 1.517-.634 1.538-1.461.021-.828-.634-1.517-1.462-1.538-101.098-2.561-208.577.366-208.577.366-.828.023-1.481.713-1.459 1.541.023.827.713 1.481 1.54 1.458z"
				fill="none"/>
			<path
				d="m65.807 106.405c-1.479 1.575 11.387 16.781 13.305 16.301 1.918-.479 11.507-14.143 24.571-28.647 0 0 22.055 4.315 41.353 6.233 0 0 14.615-22.328 31.935-46.476 0 0 3.361 5.65 8.155 10.445 0 0 3.53-25.038 3.53-43.294 0 0-22.923 13.207-37.306 25.942 0 0 5.068.786 13.818 1.265 0 0-11.862 14.521-32.239 32.201 0 0-15.132-2.248-33.711-7.192 0 0-18.877 17.75-33.411 33.222z"
				fill="none"/>
		</g>
	</g>
</svg>