<svg id="E-Commerce" height="512" viewBox="-70.866 -70.866 850.394 850.394" width="512" xmlns="http://www.w3.org/2000/svg"><g><path d="m557.047 55.896c-53.735-42.121-150.258-59.148-235.196-51.832-170.593 8.391-318.586 164.062-302.812 336.078 5.992 88.977 70.652 181.235 159.527 222.711-18.891 20.598-58.008 35.586-62.688 65.555-11.457 45.547 34.633 80.973 79.359 77.617 76.133.402 139.152-34.492 177.082-96.035 7.938-12.32 8.293-12.367 11.648-12.801 29.176-3.73 57.953-4.094 88.039-9.723 246.845-42.589 298.17-390.25 85.041-531.57z" fill="#fff"/><g><path d="m534.465 86.791c-57.95-42.352-140.809-49.391-209.942-44.551-152.285 10.652-278.426 137.754-267.312 295.211 4.109 58.219 36.09 111.297 77.727 150.618 19.195 18.121 42.238 31.891 65.98 43.07 51.398 24.188-3.137 70.703-29.621 86.348-12.098 7.039-24.801 19.898-15.828 34.547 5.98 9.762 18.898 14.52 29.77 15.504 58.969 2.617 111.117-17.633 146.535-65.867 14.652-19.957 20.211-38.91 47.25-42.43 28.695-3.738 57.414-4.105 86.012-9.398 133.211-24.688 202.754-150.406 185.637-280.95-9.783-74.587-56.619-138.556-116.208-182.102z" fill="#68182b"/><path d="m380.617 446.631c-2.555 13.91-12.516 21.457-26.516 21.762-19.855.441-24.445-18.793-19.414-34.219 3.797-8.016 9.5-14.02 19.082-14.23 14.106-.305 29.547 12.035 26.848 26.687z" fill="#ffc522"/><path d="m502.094 92.044c-73.117-35.652-168.422-40.418-245.922-16.285-86.406 26.898-148.492 98.25-170.953 185.313-14.848 57.574-7.547 117.856 26.547 167.579 26.695 38.926 59.285 61.852 99.805 84.27 63.977 35.398 14.852 96.512-29.621 122.785-9.93 5.746-6.395 10.395 5.008 10.809 26.434 1.043 54.273-.949 78.008-13.816 25.707-13.926 44.555-34.086 60.238-58.48 7.953-12.367 14.98-27.66 30.438-31.746 58.199-15.387 118.621-5.773 173.648-36.559 154.948-86.67 124.46-339.909-27.196-413.87zm-101.735 362.63c-7.301 24.016-30.465 40.176-56.152 33.645-19.672-5.004-30.918-20.184-32.559-37.891-1.496-16.023 4.594-31.797 16.039-41.664 10.434-9.004 24.777-12.863 38.871-7.762 23.125 8.375 41.758 27.516 33.801 53.672zm46.692-171.934c-9.004 13.855-20.164 23.383-31.652 33.664-9.789 8.77-13.773 12.551-16.559 27.813-1.684 9.234-2.844 18.649-8.734 26.688-7.773 10.59-22.02 14.813-34.648 12.203-27.059-5.598-37.023-30.395-35.141-54.833 1.391-18.035 7.391-32.859 25.617-51.766 8.152-8.449 20.805-15.113 27.867-24.184 7.016-9.004 11.539-28.082 1.586-37.027-15.48-13.895-36.594-5.785-49.492 7.113-7.781 9.289-14.676 21.488-26.836 25.609-11.016 3.73-22.941 1.016-31.57-6.848-12.305-11.215-17.188-26.191-16.629-41.484.789-21.211 10.574-39.379 32.465-56.895 39.676-31.758 99.656-34.844 142.758-4.508 25.406 17.879 39.75 51.766 38.035 82.473-1.192 21.283-5.224 43.747-17.067 61.982z" fill="#00ebed"/><path d="m378.648 340.443c-1.387 9.133-2.762 20.989-14.047 22.27-25.637 2.906-25.715-30.368-20.508-46.586 5.617-14.074 16.184-24.672 27.051-34.844 7.313-6.844 16.43-10.672 21.801-19.484 8.59-14.094 10.977-29.941 6.559-45.867-9.254-33.332-46.684-33.156-72.688-19.668-13.258 6.879-16.336 11.898-22.16 19.832-5.711 7.793-12.625 15.504-21.637 10.508-14.137-7.836-13.188-30.242-7.77-42.734 25.859-45.105 84.145-57.059 129.105-34.555 27.453 13.75 37.73 42.566 38.668 71.445 1.238 38.414-21.602 59.969-45.82 83.371-11.034 10.663-14.987 12.839-18.554 36.312z" fill="#ffc522"/><g fill="#19bfbb"><path d="m436.64 306.123c27.102-31.305 38.707-67.105 32.703-108.41-10.875-74.809-91.242-105.258-157.293-79.367-29.109 11.414-54.055 34.887-60.777 66.047-2.449 11.383-2.598 27.492 3.469 38.434-2.945-7.301-4.172-15.168-3.883-23.137.789-21.211 10.574-39.379 32.465-56.895 39.676-31.758 99.656-34.844 142.758-4.508 25.406 17.879 39.75 51.766 38.035 82.473-1.191 21.281-5.223 43.746-17.066 61.98-9.004 13.855-20.164 23.383-31.652 33.664-9.789 8.77-13.773 12.551-16.559 27.813-1.684 9.234-2.844 18.649-8.734 26.688-.879 1.199-1.867 2.289-2.895 3.316 4.371-2.242 8.266-5.469 11.527-10.258 5.406-7.91 6.238-18.75 10.613-27.25 6.086-11.817 18.696-20.665 27.289-30.59z"/><path d="m390.433 473.025c16.664-13.875 18.027-39.973 5.273-57.434-16.5-22.605-46.313-25.914-68.164-9.676-7.66 5.688-11.832 14.25-13.449 23.617 2.684-8.074 7.293-15.332 13.594-20.77 10.434-9.004 24.777-12.863 38.871-7.762 23.125 8.375 41.758 27.516 33.801 53.672-2.094 6.896-5.527 13.107-9.926 18.353z"/><path d="m621.191 268.681c3.152 52.121-3.672 105.5-26.895 152.645-22.93 46.543-68.387 78.457-117.656 92.133-25.68 7.133-52.84 8.207-79.191 11.352-16.441 1.957-36.977 3.027-51.957 10.672-15.695 8.016-24.715 21.957-33.535 36.723-14.555 24.371-31.77 42.289-57.629 54.629-12.934 6.168-27.191 9.129-41.379 10.254-9.625.773-9.734-5.906-3.078-10.906 3.355-2.52 6.461-5.223 9.652-7.938 14.25-12.117 26.121-27.02 33.109-44.422 11.613-28.898-3.875-53.777-27.039-70.336-14.102-10.078-30.059-17.391-44.91-26.254-20.883-12.48-38.543-30.621-52.934-50.051-31.652-42.742-41.898-97.356-38.355-149.512 2.219-32.746 12.172-62.555 26.641-90.332-13.582 22.629-24.031 47.445-30.816 73.734-14.848 57.574-7.547 117.856 26.547 167.579 26.695 38.926 59.285 61.852 99.805 84.27 63.977 35.398 14.852 96.512-29.621 122.785-9.93 5.746-6.395 10.395 5.008 10.809 26.434 1.043 54.273-.949 78.008-13.816 25.707-13.926 44.555-34.086 60.238-58.48 7.953-12.367 14.98-27.66 30.438-31.746 58.199-15.387 118.621-5.773 173.648-36.559 97.98-54.805 121.738-176.192 87.664-276.762 2.202 13.26 3.46 26.666 4.237 39.529z"/></g><path d="m380.617 446.631c.324-1.754.371-3.465.211-5.129-1.871 9.832-7.77 18.043-19.898 19.66-17.926 2.387-26.445-14.688-24.648-30.008-.566.969-1.102 1.973-1.594 3.02-5.031 15.426-.441 34.66 19.414 34.219 13.999-.305 23.96-7.852 26.515-21.762z" fill="#ffa222"/><path d="m409.32 217.646c-5.695-27.738-33-43.043-60.219-39.043-15.555 2.293-30.242 8.027-42.102 18.633-7.539 6.75-19.703 24.563-31.066 22.336 1.762 2.84 4.008 5.324 7.086 7.031 9.012 4.996 15.926-2.715 21.637-10.508 5.824-7.934 8.902-12.953 22.16-19.832 26.004-13.488 63.434-13.664 72.688 19.668 4.418 15.926 2.031 31.773-6.559 45.867-5.371 8.813-14.488 12.641-21.801 19.484-10.867 10.172-21.434 20.77-27.051 34.844-4.852 15.117-5.098 45.024 15.656 46.665-7.211-7.547-8.781-19.801-8.016-31.25 1.219-18.406 12.859-31.914 25.602-44.125 21.18-20.305 38.438-38.352 31.985-69.77z" fill="#ffa222"/><path d="m360.164 427.748c-6.434-.84-11.488 4.641-10.805 10.211.824 6.648 7.105 10.953 14.207 9.906 3.09-.449 5.523-2.418 6.934-4.805 2.801-4.706 1.613-13.749-10.336-15.312z" fill="#fbe134"/><path d="m404.355 149.314c-44.098-22.074-100.941-10.914-127.504 32.082 25.035-27.59 63.75-40.387 100.703-33.578 40.988 7.551 62.691 51.066 55.785 88.57-3.539 19.207-10.375 30.855-22.648 45.563-10.523 12.594-30.449 28.25-32.551 45.141-.66 5.305-.527 10.484.191 15.418.105-.695.219-1.398.316-2.066 3.566-23.473 7.52-25.648 18.555-36.313 24.219-23.402 47.059-44.957 45.82-83.371-.936-28.88-11.214-57.696-38.667-71.446z" fill="#fbe134"/></g></g></svg>