<svg id="Hats" height="512" viewBox="0 0 1000 1000" width="512" xmlns="http://www.w3.org/2000/svg">
    <g>
        <path d="m967.685 280.772c-.102-.66-.197-1.268-.273-1.803-3.342-23.821-25.459-28.628-36.088-30.938-2.152-.468-4.184-.91-5.799-1.377-23.861-6.9-47.447-13.657-69.381-19.93-19.85-5.679-39.695-11.384-59.543-17.089-91.651-26.346-186.422-53.588-280.42-77.831-1.996-.513-4.039-.773-6.072-.773-1.574 0-3.146.156-4.691.464-.164.028-.325.059-.484.091-106.112 21.537-210.583 49.643-317.182 78.966-23.584 6.487-47.525 13.156-70.681 19.605-20.37 5.675-41.436 11.542-62.155 17.257-10.878 3.001-18.69 10.098-21.998 19.983-2.303 6.883-1.998 13.585-1.729 19.499.053 1.178.109 2.381.14 3.602.199 8.123 1.221 16.644 7.289 23.928 5.497 6.6 12.725 9.259 19.099 11.604 24.25 8.926 48.991 17.925 72.915 26.627 42.561 15.479 86.451 31.443 129.619 47.736 2.4 31.281 3.772 57.642 4.287 82.175.61 29.004 2.326 46.399 30.473 66.645 28.947 20.818 61.563 34.797 92.496 46.803 44.534 17.279 79.92 25.074 114.736 25.271l.996.002c37.26 0 72.351-11.852 102.314-22.959 30.923-11.459 63.545-24.357 92.612-44.813 25.452-17.905 25.407-39.822 25.368-59.158-.004-1.969-.009-3.998.011-6.091.281-29.952 2.225-60.344 4.324-87.32 3.215-1.166 6.325-2.292 9.347-3.384-1.266 37.634-3.645 75.91-5.948 112.979-.494 7.945-.987 15.891-1.472 23.834-12.458 8.878-21.096 22.137-24.296 37.744-3.451 16.834-.164 34.674 8.614 48.908-19.586 61.178-31.074 126.354-33.301 189.16-.518 14.602 4.267 27.561 13.834 37.475 17.893 18.537 47.701 21.305 63.878 21.305h.005c3.922 0 7.861-.154 11.705-.459 21.016-1.66 38.854-8.727 51.588-20.436 16.672-15.332 15.65-38.838 14.973-54.393-.117-2.697-.229-5.246-.24-7.426-.26-43.457-2.807-106.803-21.146-165.135 3.088-4.969 5.572-10.391 7.338-16.063 4.963-15.918 3.633-32.576-3.744-46.903-5.01-9.727-12.506-17.826-21.74-23.657l.061-1.051c2.695-46.916 5.484-95.43 7.684-143.231.074-1.656.176-3.392.279-5.185.209-3.621.441-7.652.529-11.892 39.973-14.118 76.701-26.989 113.615-39.37 1.67-.561 4.898-1.301 8.021-2.018 11.625-2.669 24.803-5.694 33.182-14.072 11.066-11.065 8.453-27.875 7.051-36.906z"
              fill="none"/>
        <g>
            <g>
                <path d="m948.595 281.61c-1.877-13.374-17.156-13.467-28.35-16.704-23.096-6.68-46.211-13.303-69.328-19.914-112.91-32.304-225.736-65.453-339.464-94.785-.956-.246-1.817-.216-2.593-.017-.051.01-.096.006-.148.017-106.363 21.588-211.316 49.89-315.922 78.665-44.301 12.185-88.529 24.641-132.823 36.858-12.048 3.323-9.922 13.108-9.646 24.301.308 12.521 2.755 14.047 13.957 18.169 71.047 26.15 142.818 51.657 213.961 78.689 2.592 31.729 4.625 63.446 5.293 95.278.551 26.171 1.19 36.242 22.57 51.619 26.797 19.273 57.641 32.625 88.275 44.516 34.769 13.49 70.457 23.771 107.971 23.984 33.348.189 65.703-10.318 96.602-21.773 30.604-11.34 61.457-23.659 88.281-42.535 19.318-13.59 17.111-28.438 17.313-49.889.316-33.678 2.613-67.274 5.356-100.828 15.253-5.553 30.515-11.073 45.793-16.514 1.343 7.69.868 16.153.671 22.469-1.578 50.837-5.189 101.666-8.216 152.445-29.313 13.141-31.829 51.434-12.915 71.941-20.822 61.938-33.117 127.914-35.434 193.258-1.248 35.234 41.802 40.854 68.938 38.707 14.51-1.146 29.352-5.484 40.225-15.48 12.281-11.293 8.68-32.996 8.592-47.719-.334-55.926-4.732-115.457-23.275-168.613 4.648-5.16 8.189-11.484 10.328-18.35 7.229-23.191-4.879-45.814-27.039-53.398 2.996-52.211 6.053-104.419 8.457-156.663.398-8.679 1.432-19.412.352-29.487 42.252-14.94 84.523-29.852 127.014-44.103 8.535-2.862 27.363-5.067 33.807-11.511 4.768-4.768 2.192-16.983 1.397-22.633z"
                      fill="#68182b"/>
                <path d="m99.44 265.493c38.295-10.644 76.572-21.349 114.906-31.852 97.867-26.818 196.119-52.927 295.588-73.181 102.002 26.338 203.217 55.956 304.52 84.837 26.25 7.482 52.496 14.974 78.721 22.529 35.213 10.139 30.779 9.005 1.875 18.602-42.391 14.078-84.602 28.709-126.773 43.434-.16.056-.289.136-.436.202-10.849-5.961-24.176-7.496-36.202-10.493-65.046-16.21-129.35-35.137-194.184-52.109.04-2.588-.366-5.356-1.407-8.357-.004-.011-.01-.019-.012-.028-.119-.396-.278-.797-.51-1.203-16.414-28.719-93.863-16.838-74.862 18.631 7.132 13.314 31.702 17.953 51.165 13.81.018.004.025.013.043.016 53.702 14.003 107.02 29.493 160.713 43.55 16.208 4.243 32.439 8.394 48.711 12.379.08.02.158.036.238.055-71.223 25.176-142.219 51.083-213.66 75.646-21.69 7.455-33.096 8.688-49.508 2.105-69.191-27.752-138.6-54.975-208.041-82.089-50.539-19.736-101.014-40.956-152.268-59.258-17.393-6.212-30.63-8.338 1.383-17.226z"
                      fill="#808080"/>
                <path d="m474.302 275.159c-20.609-10.303 12.143-22.779 19.962-23.688 11.202-1.299 25.812.842 32.091 11.229 7.132 23.737-40.711 18.132-52.053 12.459z"
                      fill="#ff8e5b"/>
                <path d="m694.981 458.754c-.571 13.977-.93 27.995-.758 41.982.189 15.615-3.992 22.575-17.043 31.758-22.6 15.9-49.467 26.09-75.082 35.873-30.115 11.506-60.375 21.275-92.738 23.404-61.271 4.031-128.477-25.492-180.486-55.455-10.738-6.184-25.064-13.937-32.381-24.189-6.971-9.766-2.705-33.535-3.02-44.926-.553-20.134-1.828-40.235-3.356-60.313-1.245-16.426-3.938-17.036 17.495-8.726 52.76 20.445 105.061 41.902 156.338 65.283 13.629 6.215 15.313 5.977 31.398.613 61.801-20.606 123.004-43.28 184.238-65.723 22.499-8.248 19.601-6.573 18.454 8.915-1.275 17.152-2.352 34.313-3.059 51.504z"
                      fill="#808080"/>
                <path d="m465.579 452.941c-121.188-54.971-248.082-98.988-372.73-145.141-10.164-3.764-20.333-7.515-30.504-11.257-3.468-1.276-1.819-10.599-1.813-14.632 0-.402.063-.767.114-1.138 63.261 20.533 125.041 46.976 186.941 71.135 70.8 27.63 141.555 55.403 212.086 83.713 19.88 7.977 20.059 6.85 43.863-1.303 78.699-26.953 156.826-55.638 235.297-83.24.131-.045.234-.113.359-.166 1.9.674 3.772 1.447 5.6 2.369 3.482 1.759 5.947 4.458 7.705 7.693-85.412 30.418-170.285 63.137-256.287 91.933-16.365 5.484-16.16 6.599-30.631.034z"
                      fill="#808080"/>
                <g fill="#ff8e5b">
                    <path d="m753.861 347.315c-13.722-10.403-34.268-12.041-50.658-16.185-58.726-14.847-116.903-31.71-175.443-47.225 2.737-1.859 5.011-4.051 6.673-6.574 57.513 15.048 114.621 31.629 172.187 46.508 15.141 3.916 30.31 7.729 45.528 11.33 30.756 7.275 24.217 40.66 23.068 64.919-2.5 52.907-5.666 105.784-8.684 158.665-.227 2.287-3.285 2.83-5.221 2.834-3.158.007-3.737-1.176-3.571-4.142 3.239-56.432 7.335-112.908 9.091-169.412.422-13.633-1.082-31.7-12.97-40.718z"/>
                    <path d="m764.878 571.316c1.572-.299 3.092-.793 4.508-1.525 9.801 9.861 14.982 25.75 11.451 39.287-2.814 10.789-13.738 13.057-12.084 1.943 1.988-13.335.828-27.019-3.875-39.705z"/>
                    <path d="m758.304 571.348c5.131 12.313 6.324 25.875 4.314 38.99-1.813 11.82-9.892 9.41-12.76 1.781-4.975-13.238-4.336-31.232 3.559-42.619 1.479.891 3.145 1.506 4.887 1.848z"/>
                    <path d="m747.447 557.73c-.001.306-.003.609.038.885.035 2.465.607 4.578 1.593 6.344-9.366 12.695-10.772 32.4-5.56 47.732-14.362-13.955-13.869-42.822 3.929-54.961z"/>
                    <path d="m722.245 832.309c-18.586-9.115-11.816-33.01-10.464-49.795 4.306-53.408 15.269-106.924 32.011-157.85 1.283.793 2.638 1.5 4.035 2.158-20.346 66.789-24.625 139.322-17.898 208.611-2.623-.908-5.207-1.91-7.684-3.124z"/>
                    <path d="m736.285 837.32c-6.921-69.172-2.89-141.523 17.331-208.271 1.445.43 2.934.799 4.476 1.086-10.45 69.244-12.778 139.523-8.554 209.393-4.476-.389-8.916-1.124-13.253-2.208z"/>
                    <path d="m770.153 839.088c-.475.061-.967.125-1.416.176-4.258.492-8.621.682-13 .596-4.24-69.732-2.045-139.947 8.453-209.055 1.547.066 3.068.055 4.559-.059 6.502 68.887 3.344 139.307 1.404 208.342z"/>
                    <path d="m790.157 834.338c-4.51 1.77-9.348 2.975-13.793 3.789 1.951-69.063 5.074-139.496-1.525-208.387.775-.195 1.547-.395 2.303-.641 14.83 66.698 20.097 137.217 13.015 205.239z"/>
                    <path d="m806.532 760.123c.885 18.639 1.066 37.344.221 55.988-.307 6.789-4.453 11.6-10.111 15.047 6.676-67.863 1.156-138.033-13.711-204.484.998-.523 1.965-1.094 2.912-1.701 14.314 43.318 18.539 89.836 20.689 135.15z"/>
                    <path d="m786.972 610.289c3.803-15.35-1.873-33.391-12.85-44.523 1.156-1.543 1.988-3.389 2.414-5.541.154-.453.271-.931.301-1.471.039-.656.076-1.311.111-1.968 22.045 9.573 23.922 38.06 10.024 53.503z"/>
                </g>
                <path d="m905.692 307.481c-40.602 13.613-80.979 27.91-121.35 42.189-1.383-4.409-3.447-8.463-6.529-11.851-.094-.101-.193-.189-.287-.29 53.611-18.706 107.283-37.268 161.344-54.648-.42 3.635.238 12.317.189 14.566.008-.356-29.781 8.832-33.367 10.034z"
                      fill="#808080"/>
                <path d="m679.587 398.336c-61.234 22.442-122.438 45.116-184.238 65.723-16.086 5.363-17.77 5.602-31.398-.613-46.441-21.175-93.744-40.725-141.445-59.42 17.388 17.958 40.184 30.238 61.445 42.951 25.516 15.256 52.743 28.574 82.441 32.855 27.173 3.916 54.736-1.174 81.894-2.732 20.384-1.168 47.691-.947 60.089 18.268 15.156 23.49-14.614 45.424-31.898 55.938-25.009 15.208-53.623 23.101-82.705 24.841-32.486 1.941-67.416-.893-98.643-10.049-16.088-4.717-31.163-11.682-46.209-18.701 48.568 25.699 106.781 47.904 160.441 44.375 32.363-2.129 62.623-11.898 92.738-23.404 25.615-9.783 52.482-19.973 75.082-35.873 13.051-9.183 17.232-16.143 17.043-31.758-.172-13.987.187-28.006.758-41.982.707-17.191 1.783-34.352 3.06-51.503 1.146-15.489 4.044-17.164-18.455-8.916z"
                      fill="#515151"/>
                <path d="m489.913 448.238c-9.995 2.521-15.162-.222-24.753-3.953-13.612-5.295-27.226-10.584-40.841-15.872-34.816-13.523-69.658-26.986-104.496-40.456-69.924-27.043-235.849-86.139-259.64-99.872-.171 3.794.013 7.671 2.161 8.459 10.171 3.742 20.34 7.493 30.504 11.257 124.648 46.152 251.543 90.17 372.73 145.141 14.471 6.564 14.266 5.449 30.631-.033 86.002-28.796 170.875-61.515 256.287-91.933-.417-.769-.883-1.503-1.384-2.208-50.191 18.05-100.405 36.046-150.774 53.587-36.412 12.678-72.994 26.44-110.425 35.883z"
                      fill="#515151"/>
                <path d="m939.06 297.448c.023-1.121-.127-3.843-.23-6.738-51.686 19.118-103.543 37.785-155.396 56.443.322.829.641 1.66.91 2.518 40.371-14.279 80.748-28.576 121.35-42.189 3.584-1.203 33.373-10.391 33.366-10.034z"
                      fill="#515151"/>
                <path d="m98.058 282.717c51.254 18.302 101.729 39.521 152.268 59.258 69.441 27.114 138.85 54.337 208.041 82.089 16.412 6.583 27.817 5.35 49.508-2.105 71.441-24.563 142.438-50.47 213.66-75.646-.08-.019-.158-.035-.238-.055-14.894-3.647-29.754-7.445-44.595-11.315-32.269 12.3-65.102 23.133-98.278 33.15-32.109 9.697-64.472 19.982-98.15 22.098-31.943 2.007-64.153-5.912-94.295-15.728-33.834-11.016-66.123-26.298-98.732-40.395-30.078-13.003-59.843-27.192-88.457-43.182-12.116-6.771-37.802-18.941-32.385-36.675.947-3.102 2.676-5.97 4.776-8.646-23.917 6.63-47.827 13.281-71.739 19.928-32.015 8.888-18.778 11.014-1.384 17.224z"
                      fill="#515151"/>
                <path d="m768.276 329.862c42.172-14.725 84.383-29.355 126.773-43.434 28.904-9.597 33.338-8.463-1.875-18.602-26.225-7.556-52.471-15.047-78.721-22.529-2.582-.737-5.162-1.478-7.744-2.214 16.033 26.778-28.359 46.475-48.313 56.396-12.344 6.139-24.838 11.876-37.418 17.38 3.555.901 7.1 1.824 10.659 2.711 12.026 2.997 25.354 4.532 36.202 10.493.148-.065.277-.145.437-.201z"
                      fill="#515151"/>
                <path d="m526.354 262.701c-.507-.839-1.148-1.54-1.759-2.274-4.115 5.555-10.339 8.614-19.101 9.39-6.064.535-12.258-.129-18.26-.98-6.664-.947-12.411-3.15-15.057-7.98-5.525 4.332-7.391 9.548 2.123 14.304 11.344 5.671 59.187 11.276 52.054-12.46z"
                      fill="#ff564d"/>
                <path d="m749.858 612.119c2.868 7.629 10.947 10.039 12.76-1.781.9-5.873 1.119-11.83.668-17.729-3.824 12.957-15.924 12.866-13.428 19.51z"
                      fill="#ff564d"/>
                <path d="m768.753 611.021c-1.654 11.113 9.27 8.846 12.084-1.943 2.025-7.771 1.109-16.289-1.83-24.025-2.643 19.224-9.256 19.283-10.254 25.968z"
                      fill="#ff564d"/>
                <path d="m796.642 831.158c5.658-3.447 9.805-8.258 10.111-15.047.846-18.645.664-37.35-.221-55.988-1.764-37.174-8.893-80.887-18.551-108.783 10.987 59.004 14.514 120.299 8.661 179.818z"
                      fill="#ff564d"/>
                <path d="m736.285 837.32c4.337 1.084 8.776 1.818 13.253 2.207-3.715-61.404-2.354-123.121 5.122-184.178-16.196 46.301-24.505 120.702-18.375 181.971z"
                      fill="#ff564d"/>
                <path d="m770.153 839.088c1.693-60.24 4.307-121.529.627-181.939-12.606 48.107-18.751 121.734-15.043 182.711 4.379.086 8.742-.104 13-.596.45-.051.942-.116 1.416-.176z"
                      fill="#ff564d"/>
                <path d="m786.972 610.289c9.764-10.85 11.701-28.113 4.373-40.756-2.084 3.926 3.154 20.377-4.373 40.756z"
                      fill="#ff564d"/>
                <path d="m776.894 655.934c3.77 60.482 1.176 121.859-.529 182.193 4.445-.814 9.283-2.02 13.793-3.789 6.202-59.582-2.177-143.172-13.264-178.404z"
                      fill="#ff564d"/>
                <path d="m722.245 832.309c2.477 1.215 5.061 2.217 7.684 3.125-5.998-61.773-3.209-126.109 11.872-186.67-12.89 27.992-26.298 87.58-30.02 133.75-1.352 16.785-8.122 40.679 10.464 49.795z"
                      fill="#ff564d"/>
                <path d="m743.519 612.691c-2.756-8.113-9.695-20.082-9.322-33.939-2.438 12.162.807 25.668 9.322 33.939z"
                      fill="#ff564d"/>
                <path d="m603.927 555.536c19.125-7.548 38.031-15.917 54.865-27.813.543-.385.229-1.4-.484-1.146-19.084 6.78-37.16 15.909-55.809 23.775-18.754 7.908-38.004 14.463-56.951 21.861-.389.152-.24.688.173.621 20.032-3.199 39.389-9.869 58.206-17.298z"
                      fill="#68182b"/>
                <path d="m664.552 524.852c4.054.695 6.832-1.23 8.851-4.592.286-.479-.184-.92-.657-.852-3.395.491-5.69 1.703-8.412 3.762-.556.42-.661 1.527.218 1.682z"
                      fill="#68182b"/>
                <path d="m279.605 340.91c47.267 18.979 95.015 36.848 142.226 55.926.576.234.977-.731.42-1-44.493-21.61-91.496-38.522-137.398-56.817-51.213-20.411-102.528-40.546-153.896-60.527-.373-.146-.635.477-.273.647 48.499 22.978 99.141 41.783 148.921 61.771z"
                      fill="#68182b"/>
                <path d="m431.231 401.868c2.229.89 4.194 1.71 6.555 2.243.469.106 1.038-.435.689-.896-1.485-1.987-3.021-3.159-5.3-4.124-1.7-.721-4.162-1.819-5.815-.489-.107.082-.146.268-.105.39.529 1.634 2.517 2.293 3.976 2.876z"
                      fill="#68182b"/>
                <path d="m305.66 508.411c-.271-.151-.487.183-.312.403 9.719 12.2 24.596 18.572 38.047 25.65 16.068 8.456 31.312 17.251 49.078 21.537.535.128.902-.645.385-.912-29.281-15.191-58.412-30.695-87.198-46.678z"
                      fill="#68182b"/>
                <path d="m404.271 558.56c-1.729-.663-4.172-2.384-6.073-1.773-.126.04-.208.147-.214.28-.056 1.955 2.393 2.944 3.879 3.613 2.568 1.158 4.908 1.949 7.746 1.893.315-.006.464-.377.25-.604-1.621-1.719-3.418-2.576-5.588-3.409z"
                      fill="#68182b"/>
            </g>
        </g>
    </g>
</svg>