<svg height="512" viewBox="0 0 512 512" width="512" xmlns="http://www.w3.org/2000/svg"><g isolation="isolate"><g id="Layer_1" data-name="Layer 1"><path d="m82.13 260.31c-7-1-12.16-10.31 0-36.93 14.91-32.65 61.3-23.63 69.05 30.28 6.57 45.64 56.67 39.59 70.78 8.88a23.44 23.44 0 0 1 27.45-12.54s-28.32 70.37-82 51.5c-15.7-5.52-29.22-8.58-37.6-59.25-4.52-27.33-34.46-22.53-36.61-2.22-1.7 16.06-7.2 20.83-11.07 20.28z" fill="#6c2e15"/><path d="m252.6 361.3s5.87 7.55 20.21 4.75c0 0 16.18 8.39 25.56-5.78 0 0 7.23 1.74 11.22-4.92 0 0 10.54-1.19 5.24-13.29s-27.25-7.87-27.25-7.87l-19.3 4.81z" fill="#e1b78f"/><path d="m271.59 361.17s16.18 8.39 25.56-5.78c0 0 7.23 1.74 11.22-4.92 0 0 7.11-.82 6.7-7.82 4.7 11.54-5.47 12.7-5.47 12.7-4 6.66-11.22 4.92-11.22 4.92-9.38 14.17-25.57 5.78-25.57 5.78-14.34 2.8-20.2-4.75-20.2-4.75l1.71-2.43c3.06 1.91 8.62 3.98 17.27 2.3z" fill="#eaaf7f"/><path d="m304.91 334.51s-21.09-2.23-29 12.58-22.75 16.85-25.66 12.68a162.94 162.94 0 0 0 -6.09-45.8 111.75 111.75 0 0 0 -5.94-16l19-34.39s2.08 11.45 4.66 24.08c2 10 4.4 20.79 6.27 27.18 4.14 14.29 30.04 4.39 36.76 19.67z" fill="#8a4823"/><path d="m186.46 364.72s-5.85 7.55-20.2 4.78c0 0-16.17 8.41-25.57-5.75 0 0-7.23 1.76-11.22-4.9 0 0-10.55-1.18-5.26-13.28s27.24-7.91 27.24-7.91l19.3 4.82z" fill="#e1b78f"/><path d="m167.48 364.61s-16.17 8.42-25.57-5.74c0 0-7.23 1.75-11.22-4.91 0 0-7.12-.8-6.72-7.8-4.68 11.54 5.5 12.69 5.5 12.69 4 6.66 11.22 4.9 11.22 4.9 9.4 14.16 25.57 5.75 25.57 5.75 14.35 2.77 20.2-4.78 20.2-4.78l-1.71-2.43c-3.06 1.92-8.62 4-17.27 2.32z" fill="#eaaf7f"/><path d="m188.81 363.19c-2.9 4.17-17.73 2.14-25.67-12.65s-29-12.54-29-12.54c6.7-15.29 32.63-5.43 36.78-19.71 1.49-5.12 3.28-13 5-21.14 3.1-14.77 5.88-30.13 5.88-30.13l19 34.36a113.36 113.36 0 0 0 -6.36 17.56 163.63 163.63 0 0 0 -5.63 44.25z" fill="#753719"/><path d="m181.74 267 19 34.36a113.36 113.36 0 0 0 -6.36 17.56 51.4 51.4 0 0 1 -18.53-21.79c3.15-14.75 5.89-30.13 5.89-30.13z" fill="#5e2610" opacity=".68"/><path d="m257.19 263.59s2.08 11.45 4.66 24.08c-3.56 10.77-9.64 20-17.69 26.3a111.75 111.75 0 0 0 -5.94-16z" fill="#753719" opacity=".68"/><path d="m129.47 358.85s-.39-18.49 16.1-17c0-.02-10.57 1.31-16.1 17z" fill="#d29767"/><path d="m140.8 363.68s-.38-18.48 16.1-17c0-.02-10.53 1.32-16.1 17z" fill="#d29767"/><path d="m309.21 355.44s.36-18.48-16.12-17c0 .01 10.53 1.32 16.12 17z" fill="#d29767"/><path d="m297.89 360.29s.35-18.48-16.13-17c0 0 10.53 1.32 16.13 17z" fill="#d29767"/><path d="m348.15 170.52c-19.95 27.26-55.48 48.35-95.16 48.87-.44-5-.89-10-1.4-15-.28-2.8-.58-5.61-.92-8.44 31-3.51 59.71-21.06 76.56-43.08 1.4-1.84 5.12-2.46 8.9-1.52a14 14 0 0 1 6.48 3.51c.06.06.33.26.39.31 5.08 4.04 7.36 12.32 5.15 15.35z" fill="#8a4823"/><path d="m336.13 151.34a20.81 20.81 0 0 1 -2.65 5.13c-16.53 24.6-49.64 44.28-81.89 47.91-.28-2.8-.58-5.61-.92-8.44 31-3.51 59.71-21.06 76.56-43.08 1.4-1.86 5.12-2.46 8.9-1.52z" fill="#995634"/><path d="m87.08 170.79c19.16 27.81 54.08 49.9 93.73 51.55.58-5 1.17-10 1.82-15q.54-4.19 1.17-8.41c-30.94-4.4-59.09-22.75-75.31-45.25-1.35-1.87-5-2.6-8.85-1.77a14.09 14.09 0 0 0 -6.58 3.33c-.06.06-.34.25-.4.29-5.19 3.95-7.66 12.17-5.58 15.26z" fill="#753719"/><path d="m99.64 152a20.85 20.85 0 0 0 2.5 5.21c15.82 25.05 48.36 45.67 80.49 50.22q.54-4.19 1.17-8.41c-30.94-4.4-59.09-22.75-75.31-45.25-1.35-1.92-5.05-2.65-8.85-1.77z" fill="#894a2e"/><path d="m251.83 196.87s26.75 21.15 26.75 64.18l-2.15-4.05s1.82 12.85-3.39 19.21l-2.74-8s1 7.71-5.75 18.93l1.18-28.44z" fill="#8a4823"/><path d="m171.85 255.4-.75 3.32 1 23 .22 5.4c-6.72-11.22-5.74-18.93-5.74-18.93l-2.74 8c-5.21-6.36-3.39-19.21-3.39-19.21l-2.15 4.05c0-25.59 9.46-43.44 17.12-53.71a60.88 60.88 0 0 1 9.58-10.45l-3.13 13.95z" fill="#8a4823"/><path d="m270.4 247.67a81 81 0 0 1 -5.4 29.49c-8.35 21.38-25.51 36.31-45.5 37.23-.65 0-1.3 0-1.95 0-19.33 0-36.25-13.11-45.46-32.67a80 80 0 0 1 -7.42-34.09 78.45 78.45 0 0 1 10.74-40.33c.92-1.52 1.89-3 2.9-4.42 9.67-13.52 23.67-22 39.24-22h1.95c12.34.56 23.59 6.46 32.36 15.92a59.4 59.4 0 0 1 4 4.75c8.98 12.05 14.54 28.26 14.54 46.12z" fill="#8a4823"/><path d="m219.47 181v133.39c-.65 0-1.3 0-1.95 0-19.33 0-36.25-13.11-45.46-32.67l.22 5.4c-6.72-11.22-5.74-18.93-5.74-18.93l-2.74 8c-5.21-6.36-3.39-19.21-3.39-19.21l-2.15 4.05c0-25.59 9.46-43.44 17.12-53.71.92-1.52 1.89-3 2.9-4.42 9.67-13.52 23.67-22 39.24-22 .65 0 1.3.02 1.95.1z" fill="#753719"/><path d="m261.16 247.67c0 29.65-18.55 53.82-41.79 55-.62 0-1.23.05-1.85.05-24.09 0-43.63-24.66-43.63-55.09s19.54-55.09 43.63-55.09h1.85c23.24 1.3 41.79 25.46 41.79 55.13z" fill="#e1b78f"/><path d="m219.37 192.63v110.08c-.62 0-1.23.05-1.85.05-24.09 0-43.63-24.66-43.63-55.09s19.54-55.09 43.63-55.09c.62 0 1.23.01 1.85.05z" fill="#d29767"/><ellipse cx="219.47" cy="280.05" fill="#a06944" rx="2.96" ry="4.04"/><path d="m262.12 198.55c.23 21-23.93 32.31-46.07 32.36-21.53.05-44.28-12-44.51-33s22.16-42.91 43.69-43.18 46.67 22.78 46.89 43.82z" fill="#3a1908" opacity=".21"/><path d="m263.41 46.19c-.12.49-4 15.84-12.17 18.58a7 7 0 0 1 -1 .26l-2.43 2.57c-2.84-1.19-6.31-1.2-9.87-1-8.44.44-17.38 2-19.53-8.33 0 0 20.2-7.93 30.32-22.59-.15.51-5 16.82-8.51 18.62.63-.1 20.62-3.24 23.19-8.11z" fill="#8a4823"/><ellipse cx="295.84" cy="135.13" fill="#8a4823" rx="21.74" ry="24.49"/><ellipse cx="291.18" cy="135.13" fill="#d29767" rx="17.01" ry="16.45"/><path d="m290.37 166c0 13.11-7.31 25.06-19.3 34.08a73.23 73.23 0 0 1 -9.51 6 86.55 86.55 0 0 1 -10.51 4.66 102.74 102.74 0 0 1 -33.56 6.05h-1.9a104.76 104.76 0 0 1 -29.82-4.22c-2.21-.65-4.36-1.37-6.45-2.18a76.85 76.85 0 0 1 -19.89-10.88c-11.57-8.94-18.59-20.68-18.59-33.54a35.31 35.31 0 0 1 .63-6.67 1.24 1.24 0 0 1 0-.16 36.24 36.24 0 0 1 2.42-7.68 42.5 42.5 0 0 1 4.25-7.47 53.22 53.22 0 0 1 9.62-10.26l.9-.73.12-.09c1.09-.87 2.23-1.72 3.41-2.54l1.82-1.21.92-.59c13-8.12 30.18-13.16 49.11-13.41h1.5c1.27 0 2.52 0 3.77.06 1.48 0 2.94.13 4.39.24 19 1.4 35.82 7.62 47.82 16.82l1.47 1.17c.36.29.71.59 1.06.89 0 0 .05.05.08.06l.95.84a53.56 53.56 0 0 1 3.94 3.88 47.27 47.27 0 0 1 3.98 4.88 41.16 41.16 0 0 1 4.1 7.13 36.61 36.61 0 0 1 2.46 7.48 34.9 34.9 0 0 1 .81 7.39z" fill="#8a4823"/><path d="m158.91 135.13c0 .76 0 1.5-.09 2.24a26 26 0 0 1 -5.37 14 21.37 21.37 0 0 1 -11.94 7.77h-.11l-.68.14a19.86 19.86 0 0 1 -3.55.32c-12 0-21.74-11-21.74-24.49s9.74-24.48 21.74-24.48a19.8 19.8 0 0 1 4.17.45c6.7 1.46 12.29 6.39 15.27 13.06a26.7 26.7 0 0 1 2.21 8.74c.06.75.09 1.5.09 2.25z" fill="#8a4823"/><ellipse cx="141.84" cy="135.13" fill="#d29767" rx="17.01" ry="16.45"/><g fill="#8a4823"><path d="m290.37 118.09v.62a50 50 0 0 1 -7.37 25.29c-.8 1.33-1.65 2.64-2.57 3.92-.56.78-1.14 1.54-1.75 2.3a69.4 69.4 0 0 1 -22.39 18.09q-2.62 1.36-5.39 2.56a87.48 87.48 0 0 1 -23.55 6.34c-2.87.37-5.8.6-8.77.69-1 0-2 .05-3 .05-.79 0-1.58 0-2.36 0a88.86 88.86 0 0 1 -33.85-7.44q-2.49-1.1-4.86-2.36a70.09 70.09 0 0 1 -21.08-16.73c-.71-.86-1.4-1.74-2.07-2.62a56.71 56.71 0 0 1 -3.2-4.77 50 50 0 0 1 -7.34-25.27v-.62a49 49 0 0 1 .5-7c4.32-29.77 35.93-52.88 74.26-52.88.94 0 1.88 0 2.81.05a88.83 88.83 0 0 1 31.84 6.69c21.58 9 36.95 26.28 39.69 46.54a48.46 48.46 0 0 1 .45 6.55z"/><path d="m289.58 158.59s7.7 12.32 1.6 29.87l-.81-5.08s-2.76 14.32-10.61 19.17v-9.47s-1.77 8.55-13 18l11.63-29.8z"/><path d="m164 211.09c-11.24-9.46-13-18-13-18v9.47c-7.85-4.85-10.61-19.17-10.61-19.17l-.8 5.08c-5.25-15.08-.3-26.31 1.19-29.16.25-.47.4-.71.4-.71l.28.57.07.14 10.86 22 7.1 18.21z"/><path d="m263.41 46.19c-.12.49-4 15.84-12.17 18.58l-1 .26a26.6 26.6 0 0 0 -12.29 1.57 24.17 24.17 0 0 0 -5.89 3.21s0 0 0 0c-6.77 5-12.84 15-12.8 34.66v1.53q.08 4.4.11 9.2c.07 10.57 0 22.44-.2 34.49 0 3.21-.1 6.43-.16 9.64l-.06 3.16c-.1 5.2-.21 10.36-.34 15.39v.54c-.07 2.92-.15 5.8-.22 8.62-.16 6.05-.33 11.82-.49 17.12-.14 4.59-.27 8.83-.39 12.61h-1.9a104.76 104.76 0 0 1 -29.82-4.22c-2.21-.65-4.36-1.37-6.45-2.18a76.85 76.85 0 0 1 -19.89-10.88l4.55 11.6c-11.24-9.46-13-18-13-18v9.47c-7.85-4.85-10.61-19.17-10.61-19.17l-.8 5.08c-5.25-15.08-.3-26.31 1.19-29.16a19.86 19.86 0 0 1 -3.55.32c-12 0-21.74-11-21.74-24.49s9.74-24.48 21.74-24.48a19.8 19.8 0 0 1 4.17.45c4.32-29.77 35.93-52.88 74.26-52.88.94 0 1.88 0 2.81.05 0 0 20.2-7.93 30.32-22.59-.15.51-5 16.82-8.51 18.62.57-.11 20.56-3.25 23.13-8.12z" opacity=".33" mix-blend-mode="multiply"/><path d="m281.9 123.18c0 17.12-9.41 31.71-22.58 37.15a29.5 29.5 0 0 1 -11.46 2.31c-.92 0-1.84-.06-2.74-.14h-54.47c-.91.08-1.82.14-2.76.14a29.35 29.35 0 0 1 -7.51-1c-15.17-4-26.51-19.7-26.51-38.49 0-21.79 15.24-39.45 34-39.45 13 0 24.24 8.41 30 20.77 5.75-12.36 17-20.77 30-20.77 18.8.03 34.03 17.69 34.03 39.48z" opacity=".33" mix-blend-mode="multiply"/></g><path d="m276.76 123.18c0 15.75-8.66 29.16-20.77 34.17a27.27 27.27 0 0 1 -10.53 2.12c-.85 0-1.7-.06-2.53-.13h-50.09c-.84.07-1.68.13-2.54.13a27.19 27.19 0 0 1 -6.9-.89c-14-3.65-24.39-18.12-24.39-35.4 0-20 14-36.28 31.29-36.28 11.93 0 22.29 7.73 27.58 19.1 5.29-11.37 15.65-19.1 27.58-19.1 17.29 0 31.3 16.24 31.3 36.28z" fill="#e1b78f"/><path d="m262.45 186.57c0 17.61-19.44 35.93-44.8 35.93s-49-18.32-49.4-35.93a30.1 30.1 0 0 1 6.28-18.47 39.84 39.84 0 0 1 6.52-6.88 43.41 43.41 0 0 1 3.79-2.83 55.05 55.05 0 0 1 30.52-8.82c1.28 0 2.55.05 3.8.12a53.77 53.77 0 0 1 28.21 9.75 43.9 43.9 0 0 1 3.77 3.08 38.92 38.92 0 0 1 5.17 5.77 31 31 0 0 1 6.14 18.28z" fill="#e1b78f"/><path d="m232 69.8s-2.2 13.47 14.11 12.69 20.61 5.84 20.61 5.84-.67-17.23-13.62-17a98.14 98.14 0 0 1 -21.1-1.53z" fill="#3a1908"/><path d="m204.56 68.72s2.21 13.46-14.11 12.69-20.61 5.83-20.61 5.83.68-17.23 13.62-17a98 98 0 0 0 21.1-1.52z" fill="#3a1908"/><path d="m225.16 130.59a8.33 8.33 0 1 1 -16.65 0 8.57 8.57 0 0 1 .17-1.69 8.33 8.33 0 0 0 16.31 0 8.57 8.57 0 0 1 .17 1.69z" fill="#8a4823" opacity=".33" mix-blend-mode="multiply"/><path d="m285.5 456.84v-55.6h-137.49v55.6h-64.32v49.16h266.9v-49.16z" fill="#cb3e95"/><text style="font-size:77.54;stroke:#fff;stroke-miterlimit:10;stroke-width:3.71;font-family:Arial-Black, Arial Black;font-weight:800;fill:#fff" transform="translate(188.65 481.84)">1</text><path d="m148.01 401.24h137.49v9.73h-137.49z" fill="#d365a5"/><path d="m285.5 456.4h65.09v9.73h-65.09z" fill="#d365a5"/><path d="m83.69 456.4h64.5v9.73h-64.5z" fill="#d365a5"/><path d="m285.5 456.4v49.6l16.45-49.6z" fill="#b5378b" opacity=".7"/><path d="m148.19 456.4v49.6l-16.45-49.6z" fill="#b5378b" opacity=".7"/><path d="m303.28 16.41-1 10.59s-120.94 7.55-3.54 84l-2.26 9.69s-139.99-83.51 6.8-104.28z" fill="#f8b02f"/><path d="m379.93 27.6-1.34 10.54s115.46 42.06-14.86 82.34l.08 10s153.72-40.59 16.12-102.88z" fill="#f8b02f"/><path d="m332.54 190.94-21.41-3.12 4.31-40.72 21.41 3.12z" fill="#f8b02f"/><path d="m343.55 201.84-45.46-6.64c-2.92-.43-5-3.45-4.65-6.72.36-3.26 3-5.59 6-5.16l45.43 6.68c2.92.43 5 3.45 4.65 6.72-.37 3.22-3.05 5.54-5.97 5.12z" fill="#f8b02f"/><ellipse cx="327.43" cy="137.03" fill="#f8b02f" rx="22.38" ry="26.35" transform="matrix(.234 -.972 .972 .234 117.67 423.36)"/><path d="m396.09 22-55-8-55.09-8s-47.33 39.48-11.26 101.7a87.53 87.53 0 0 0 22.26 26.41s26.28 19.47 60.63 8.74l.25-.18a81.21 81.21 0 0 0 27.58-19.67c47.54-49.65 10.63-101 10.63-101z" fill="#fdc74b"/><path d="m375.8 27 14.39 2.1s27 46.32-20.67 96.41c0 0 31.15-36.78 6.28-98.51z" fill="#fbe175"/><ellipse cx="336.7" cy="165.96" fill="#8a4823" rx="12.29" ry="14.18"/><path d="m198.08 128.45h-.19a3.53 3.53 0 0 1 -3.34-3.71c.37-7-3.51-13.08-8.47-13.35s-9.47 5.4-9.84 12.38a3.53 3.53 0 0 1 -7.05-.38c.58-11 8.3-19.56 17.26-19s15.73 9.79 15.15 20.76a3.53 3.53 0 0 1 -3.52 3.3z" fill="#8a4823"/><path d="m264.09 128.45h-.19a3.54 3.54 0 0 1 -3.34-3.71c.37-7-3.51-13.08-8.47-13.35s-9.47 5.4-9.84 12.38a3.53 3.53 0 0 1 -7.05-.38c.59-11 8.31-19.56 17.26-19s15.73 9.79 15.15 20.76a3.53 3.53 0 0 1 -3.52 3.3z" fill="#8a4823"/><path d="m234 202.93c-10.8-22.11-32.77-23.64-42.56-23.12a139.71 139.71 0 0 1 -6.2-27.65c-.79-6.28.78-12.95 3.51-14.77l.7 12.58c.17 3 1.07 5.64 2.33 6.85 15.19 14.45 35 7.73 42.58 4.33 1.82-.81 3.13-4.33 3.13-8.42v-9c11.51 2.47 15.18 45.85-3.49 59.2z" fill="#663612"/><path d="m234 202.93a19.37 19.37 0 0 1 -5 2.63c-20.34 7.26-31.49-8.44-37.54-25.75 9.74-.52 31.71 1.01 42.54 23.12z" fill="#dd686e"/><path d="m237.46 143.69v9c0 4.09-1.31 7.61-3.13 8.42-7.57 3.4-27.39 10.12-42.58-4.33-1.26-1.21-2.16-3.82-2.33-6.85l-.7-12.58a2.29 2.29 0 0 1 .8-.42c1.51-.44 3.24.52 5.07 4.41 6.11 12.92 24.11 20.7 34.36 7.24 3.11-4.03 5.99-5.43 8.51-4.89z" fill="#fff"/></g></g></svg>