<svg viewBox="0 0 512 512" xmlns="http://www.w3.org/2000/svg"><g id="Flat"><g id="Color"><path d="m357.59 399.731-9.09-10.231c-11-13-21.561-22.983-45.13-14.831-63.14 21.842-130.57-1.52-152.011-53.088 20.364 4.872 40.881-12.266 37.728-34.552l-12.966-91.657a42 42 0 0 0 -57.808-32.858l-85.665 35.87c-26.621 11.147-28.123 48.3-2.488 61.561l3.719 1.924c-24.343 165.474 158.26 285.953 307 220.387 32.083-14.144 40.001-56.312 16.711-82.525z" fill="#4caf50"/><g fill="#388e3c"><path d="m151.572 322.1c20.388 4.771 40.82-12.467 37.558-34.738l-2.252-15.375a30.925 30.925 0 0 1 -24.636 18.655c-23.612 2.574-10.757 31.37-10.67 31.458z"/><path d="m15.4 214.946c-8.118 15.654-3.448 36.854 14.672 46.11l3.729 1.906s.983-8.536 2.716-16.882a11.938 11.938 0 0 0 -3.692-11.333c-6.979-6.242-15.019-15.308-17.425-19.801z"/><path d="m369.2 418.37c-4.128 13.27-18.147 26.954-32.855 33.78-133.404 61.913-291.966-34.912-304.026-175.45-11.851 158.375 165.281 269.585 309.558 205.137 24.957-11.149 35.141-39.253 27.323-63.467z"/></g><path d="m483.422 251.319a12.329 12.329 0 0 1 -6.179-12.634c25.511-163.014-154.85-273.33-308.669-208.3a44.994 44.994 0 0 0 -19.29 67.242l13.8 19.721a46.99 46.99 0 0 0 54.192 17.119c60.051-21 129.785 2.305 144.761 54.231-18.082-4.3-36.548 10.654-34.134 30.661l10.597 87.77a48 48 0 0 0 67.6 37.909l74.864-34.2c24.864-11.363 26.301-46.149 2.458-59.519z" fill="#4caf50"/><g fill="#388e3c"><path d="m366.132 158.936c-10.868-48.142-83.875-80.064-150.253-54.964a46.757 46.757 0 0 1 -53.862-17.228l-13.773-19.471a45.2 45.2 0 0 1 -5.456-10.335 44.849 44.849 0 0 0 5.612 41.213l13.9 19.649a46.99 46.99 0 0 0 54.276 16.853c59.946-21.3 129.794 1.666 145.026 53.518 4.588-9.271 6.787-19.234 4.53-29.235z"/><path d="m497.186 264.819c-2.119 5.132-7.431 9.965-16.04 13.95l-74.872 34.653c-24.714 11.438-57.717-2.8-70.146-26.686l2.512 19.988a48 48 0 0 0 67.786 37.576l74.7-34.571c18.086-8.374 23.641-29.137 16.06-44.91z"/></g></g></g></svg>