<svg id="Layer_1" height="512" viewBox="0 0 512 512" width="512" xmlns="http://www.w3.org/2000/svg" data-name="Layer 1"><g><rect fill="#b4d2d7" height="449.91" rx="20.379" width="383.196" x="26.709" y="53.09"/><path d="m389.526 53.09c11.225 0 20.379 9.156 20.379 20.379v409.152c0 11.224-9.156 20.379-20.379 20.379h-20c11.225 0 20.379-9.154 20.379-20.379v-409.152c0-11.225-9.154-20.379-20.379-20.379z" fill="#9bb9c3" fill-rule="evenodd"/><path d="m63.474 88.273h312.645v378.488h-312.645z" fill="#eff4f7"/><g fill-rule="evenodd"><path d="m63.474 88.273v378.487h20.001v-368.487h292.644v-10z" fill="#dee8ee"/><path d="m375.071 367.859c-7.985 35.988-32.735 50.288-52.778 39.585 6.534 27.378-9.759 51.202-25.046 57.838-.483.209-1.575.838-2.707 1.479h81.58v-100.788c-.54.751-.943 1.413-1.049 1.887z" fill="#dee8ee"/><path d="m375.071 367.859c-7.985 35.988-32.735 50.288-52.778 39.585 6.534 27.378-9.759 51.202-25.046 57.838-.483.209-1.575.838-2.707 1.479h18.912c12.561-9.927 23.117-30.373 17.642-53.317 15.507 8.281 33.828 1.592 45.027-18.524v-28.947c-.54.751-.943 1.413-1.049 1.887z" fill="#cedde5"/><path d="m287.495 379.409c4.418 0 8 3.582 8 8s-3.582 8-8 8h-81.587c-4.418 0-8-3.582-8-8s3.582-8 8-8zm0-246.176c4.418 0 8 3.582 8 8s-3.582 8-8 8h-81.587c-4.418 0-8-3.582-8-8s3.582-8 8-8zm41.005 34.47c4.418 0 8 3.582 8 8s-3.582 8-8 8h-122.592c-4.418 0-8-3.582-8-8s3.582-8 8-8zm-41.005 47.589c4.418 0 8 3.582 8 8s-3.582 8-8 8h-81.587c-4.418 0-8-3.582-8-8s3.582-8 8-8zm41.005 34.47c4.418 0 8 3.582 8 8s-3.582 8-8 8h-122.592c-4.418 0-8-3.582-8-8s3.582-8 8-8zm-41.005 47.588c4.418 0 8 3.582 8 8s-3.582 8-8 8h-81.587c-4.418 0-8-3.582-8-8s3.582-8 8-8zm41.005 34.47c4.418 0 8 3.582 8 8s-3.582 8-8 8h-122.592c-4.418 0-8-3.582-8-8s3.582-8 8-8zm-29.608 82.059c4.418 0 8 3.582 8 8s-3.582 8-8 8h-92.984c-4.418 0-8-3.582-8-8s3.582-8 8-8z" fill="#96a4af"/><path d="m115.444 376.022h48.543c2.392 0 4.35 1.958 4.35 4.35v48.543c0 2.392-1.957 4.35-4.35 4.35h-48.543c-2.392 0-4.35-1.957-4.35-4.35v-48.543c0-2.392 1.958-4.35 4.35-4.35zm0-246.176h48.543c2.392 0 4.35 1.957 4.35 4.35v48.543c0 2.392-1.957 4.35-4.35 4.35h-48.543c-2.392 0-4.35-1.958-4.35-4.35v-48.543c0-2.392 1.958-4.35 4.35-4.35zm0 82.059h48.543c2.392 0 4.35 1.958 4.35 4.35v48.542c0 2.393-1.957 4.35-4.35 4.35h-48.543c-2.392 0-4.35-1.957-4.35-4.35v-48.542c0-2.392 1.958-4.35 4.35-4.35zm0 82.059h48.543c2.392 0 4.35 1.957 4.35 4.35v48.542c0 2.392-1.957 4.35-4.35 4.35h-48.543c-2.392 0-4.35-1.958-4.35-4.35v-48.542c0-2.393 1.958-4.35 4.35-4.35z" fill="#64b5f6"/><path d="m115.444 376.022h48.543c2.087 0 3.843 1.49 4.257 3.459h-42.331c-2.392 0-4.35 1.958-4.35 4.35v48.543c0 .305.032.603.092.891h-6.211c-2.392 0-4.35-1.957-4.35-4.35v-48.543c0-2.392 1.958-4.35 4.35-4.35zm0-246.176h48.543c2.087 0 3.843 1.49 4.257 3.459h-42.331c-2.392 0-4.35 1.957-4.35 4.35v48.543c0 .305.032.603.093.891h-6.211c-2.392 0-4.35-1.958-4.35-4.35v-48.543c0-2.392 1.958-4.35 4.35-4.35zm0 82.059h48.543c2.087 0 3.843 1.49 4.257 3.459h-42.331c-2.392 0-4.35 1.958-4.35 4.35v48.542c0 .305.032.604.093.891h-6.211c-2.392 0-4.35-1.957-4.35-4.35v-48.542c0-2.392 1.958-4.35 4.35-4.35zm0 82.059h48.543c2.087 0 3.843 1.49 4.257 3.458h-42.331c-2.392 0-4.35 1.957-4.35 4.35v48.542c0 .305.032.604.093.892h-6.211c-2.392 0-4.35-1.958-4.35-4.35v-48.542c0-2.393 1.958-4.35 4.35-4.35z" fill="#42a5f5"/><path d="m144.865 145.841c3.106-3.124 8.157-3.138 11.281-.031s3.138 8.157.031 11.281l-13.872 14.003c-3.086 3.103-8.09 3.137-11.218.093l-7.739-7.542c-3.158-3.072-3.228-8.123-.156-11.281s8.123-3.228 11.281-.156l2.078 2.026 8.314-8.392zm0 164.117c3.106-3.124 8.157-3.138 11.281-.031s3.138 8.158.031 11.281l-13.872 14.003c-3.086 3.103-8.09 3.137-11.218.093l-7.739-7.542c-3.158-3.072-3.228-8.123-.156-11.281s8.123-3.228 11.281-.156l2.078 2.026 8.314-8.392zm0-82.058c3.106-3.124 8.157-3.138 11.281-.031s3.138 8.157.031 11.281l-13.872 14.003c-3.086 3.103-8.09 3.137-11.218.093l-7.739-7.542c-3.158-3.072-3.228-8.123-.156-11.281s8.123-3.228 11.281-.156l2.078 2.026 8.314-8.392z" fill="#e6f8ff"/><path d="m147.776 53.09h51.09l-20.327-28.74c-4.569-6.46.032-15.35 7.944-15.35h63.648c7.914 0 12.514 8.89 7.945 15.35l-20.327 28.74h51.09c2.563 0 4.451 2.339 3.91 4.844l-6.908 31.969c-1.207 5.585-6.015 9.465-11.729 9.465h-111.608c-5.714 0-10.523-3.88-11.729-9.465l-6.908-31.969c-.541-2.505 1.346-4.844 3.91-4.844z" fill="#da8c36"/><path d="m236.686 9h13.445c7.914 0 12.514 8.89 7.945 15.35l-20.327 28.74h-13.445l20.327-28.74c4.569-6.46-.031-15.35-7.945-15.35zm38.708 44.09c2.563 0 4.451 2.339 3.91 4.844l-6.908 31.969c-1.207 5.585-6.015 9.465-11.729 9.465h13.445c5.714 0 10.522-3.88 11.729-9.465l6.908-31.969c.541-2.505-1.346-4.844-3.91-4.844z" fill="#c97629"/></g></g><g fill-rule="evenodd"><path d="m324.012 262.88 117.014-201.123c3.112-5.349 10.014-7.174 15.363-4.062l23.321 13.568c5.349 3.112 7.174 10.014 4.061 15.363l-117.013 201.123-36.365 25.122c-2.138 1.477-4.771 1.579-7.017.272s-3.458-3.646-3.231-6.235l3.867-44.029z" fill="#ffda2d"/><path d="m324.012 262.881 117.014-201.123c2.755-4.736 8.481-6.709 13.47-4.939-.448.519-.855 1.085-1.212 1.698l-117.014 201.123-3.866 44.029c-.211 2.393.81 4.573 2.74 5.921l-4.751 3.282c-2.138 1.477-4.771 1.579-7.017.272s-3.459-3.646-3.231-6.235l3.867-44.029z" fill="#ffc700"/><path d="m428.241 83.734c14.249 8.29 28.497 16.58 42.746 24.869l12.786-21.976c3.112-5.349 1.288-12.251-4.062-15.363l-23.321-13.569c-5.349-3.112-12.251-1.288-15.363 4.062l-12.786 21.976z" fill="#fdb800"/><path d="m428.241 83.734 7.734 4.5 10.258-17.632c3.112-5.35 10.014-7.174 15.363-4.062l23.321 13.569c.12.07.237.142.353.215-.219-3.633-2.19-7.098-5.56-9.058l-23.321-13.569c-5.349-3.112-12.251-1.288-15.363 4.062l-12.786 21.976z" fill="#f4a40e"/><path d="m345.241 275.257c-7.077-4.117-14.154-8.235-21.231-12.352l-1.615 18.392-1.886 21.482-.363 4.13c-.228 2.589.985 4.928 3.231 6.235s4.878 1.205 7.017-.272l29.795-20.583 6.549-4.524c-7.166-4.169-14.332-8.338-21.497-12.507z" fill="#da8c36"/><path d="m335.402 269.533-11.392-6.628-1.615 18.392-1.886 21.482-.363 4.13c-.228 2.589.985 4.928 3.231 6.235s4.878 1.205 7.017-.272l4.751-3.282c-1.93-1.348-2.951-3.528-2.74-5.921l.363-4.13 1.886-21.482.749-8.524z" fill="#cd7d25"/></g></svg>