<svg viewBox="0 0 512 512" xmlns="http://www.w3.org/2000/svg">
    <g id="Flat">
        <g id="Color">
            <path d="m59.612 156.988h172.593a11.953 11.953 0 0 0 11.9-12v-13.624c0-35.383 38.639-56.925 68.366-38.113l151.917 96.135c47.355 29.966 47.507 99.48.284 129.656l-156.6 100.072c-27.737 17.725-63.963-2.366-63.963-35.474v-26.588h-184.497a47.807 47.807 0 0 1 -47.612-48v-104.064a47.807 47.807 0 0 1 47.612-48z"
                  fill="#2196f3"/>
            <path d="m464.391 189.386c16.842 10.654 23 29.261 23.231 47.3.274 21.663-9.292 39.11-26.544 50.834-37.527 25.5-153.007 96.6-153.007 96.6-27.737 17.725-63.963-2.366-63.963-35.474v-10.658a11.952 11.952 0 0 0 -11.9-12h-172.596a47.808 47.808 0 0 1 -47.612-48v31.064a47.807 47.807 0 0 0 47.612 48h184.5v26.588c0 33.108 36.226 53.2 63.963 35.474l156.6-100.072c47.225-30.176 47.071-99.69-.284-129.656z"
                  fill="#1976d2"/>
        </g>
    </g>
</svg>