<svg id="Layer_1" enable-background="new 0 0 66 66" viewBox="0 0 66 66" xmlns="http://www.w3.org/2000/svg"><g><g><path d="m22.45 27.33c-.13 0-.24-.11-.24-.24-.02-1.09 0-2.26.05-3.46.18-4.29.88-10.49 4.76-14.79 1.15-1.28 2.38-2.12 3.65-2.5.96-.29 1.99-.29 2.89-.02.13.04.2.18.16.3-.04.13-.18.2-.3.16-.81-.25-1.74-.24-2.61.02-1.18.35-2.33 1.14-3.43 2.36-3.78 4.18-4.46 10.27-4.64 14.49-.05 1.19-.07 2.34-.05 3.43.01.13-.1.24-.24.25z"/></g><g><path d="m53.03 25.67c1.21.3 2.33.96 3.17 1.89.7.77 1.25 1.73 1.52 2.75.05.2-.15.36-.33.28-.47-.22-1.05-.23-1.51.01 1.65.73 2.96 2.16 3.56 3.86.56 1.58.45 3.45-.24 4.99-.07.15-.28.18-.39.05-.92-.99-2.13-1.7-3.44-2.03-.82-.2-1.68-.26-2.49-.5-.54-.15-1.09-.33-1.61-.55.32.17.58.46.72.79.18.42.17.91-.02 1.32-.17-.39-.63-.59-1.06-.62s-.86.07-1.29.05c-.93-.04-1.79-.58-2.34-1.33-.55-.74-.82-1.67-.93-2.59-.28.82-.37 1.71-.26 2.56-1.31-1.82-1.65-4.29-.88-6.4.29-.8.64-1.52 1.08-2.18.38-.58.83-1.11 1.37-1.58.2-.19.43-.37.66-.54 1.69-1.25 4.07-1.65 5.96-.73-.47.01-.91.17-1.25.5z" fill="#ffcd3b"/></g><g><path d="m50.63 26.18c.81.15 1.57.54 2.16 1.11.46.44.83.99 1.06 1.58.07.18-.1.36-.29.31-.28-.07-.6-.04-.85.11 1.11.41 2.04 1.3 2.5 2.39.42.98.44 2.16.1 3.18-.05.16-.26.2-.39.08-.63-.57-1.42-.95-2.26-1.11-.55-.1-1.11-.1-1.66-.22-.36-.08-.74-.17-1.09-.3.22.1.41.28.51.5.13.26.15.59.04.86-.13-.25-.44-.36-.72-.36s-.56.08-.85.09c-.61.02-1.2-.31-1.6-.77-.39-.47-.61-1.06-.72-1.66-.15.55-.17 1.14-.06 1.7-.94-1.14-1.27-2.76-.85-4.17.16-.53.36-1.03.61-1.48.38-.58.83-1.11 1.37-1.58 1.05-.83 2.53-1.15 3.77-.64-.29.03-.57.15-.78.38z" fill="#ff7a43"/></g><g><path d="m50.66 22.62-7.67 11.69-.2.29v.01c-.11.17-.29.24-.46.23-.2-.01-.4-.13-.47-.36l-1.97-6.22 3.79-5.78.83-.08 5.66-.58c.43-.04.73.44.49.8z" fill="#1b38ab"/></g><g><path d="m44.51 22.4c-.12.2-.2.42-.21.65-.03.31.03.64-.1.92-.26.57-1.11.65-1.39 1.21-.31.65.37 1.39.26 2.11-.11.76-1.06 1.2-1.09 1.97-.03.65.63 1.13.78 1.76.1.43-.03.88-.18 1.3-.14.42-.29.86-.2 1.29.07.31.31.61.6.7l-.2.29v.01c-.11.17-.29.24-.46.23-.2-.01-.4-.13-.47-.36l-1.97-6.22 3.79-5.78z" fill="#142f84"/></g><g><path d="m35.89 39.55c-.12 0-.25-.01-.37-.02-3.2-.18-6.32-1.76-8.3-4.28-1.52-1.93-2.34-4.37-2.4-6.82-.02-1.18.14-2.36.48-3.48l10.26 4.74c-1.17 2.92-1.02 6.56.71 9.17.21.3-.01.7-.38.69z" fill="#fe515e"/></g><g><path d="m41.28 32.9c-.1 0-.2-.07-.23-.17l-1.39-4.39c-.04-.13.03-.27.16-.31s.27.03.31.16l1.39 4.39c.04.13-.03.27-.16.31-.03 0-.05.01-.08.01z"/></g><g><path d="m47.41 27.81c-.05 0-.09-.01-.13-.04-.11-.07-.14-.23-.07-.34l3.25-4.95c.09-.13.03-.25.01-.29-.06-.09-.16-.14-.26-.13l-6.49.66c-.13.02-.25-.08-.27-.22-.01-.13.08-.25.22-.27l6.49-.66c.3-.03.58.11.73.37.15.25.14.56-.02.81l-3.25 4.95c-.05.08-.13.11-.21.11z"/></g><g><path d="m35.89 39.55c-.12 0-.25-.01-.37-.02-.05-.82-.14-1.64-.37-2.43-.33-1.09-.98-2.14-1.97-2.71-.5-.29-1.1-.47-1.43-.94-.44-.63-.3-1.65-.96-2.03-.46-.27-1.05-.04-1.6-.11-.64-.09-1.14-.61-1.51-1.13-.37-.53-.68-1.13-1.18-1.54-.47-.37-1.19-.53-1.67-.21-.02-1.18.14-2.36.48-3.48l10.26 4.74c-1.17 2.92-1.02 6.56.71 9.17.2.3-.02.7-.39.69z" fill="#f83b4d"/></g><g><path d="m51.9 15.07c-.15-.03-.3-.05-.46-.07-2.96-.36-6.13.92-8.24 3.05l-8.43-7.53c.63-.54 1.32-1 2.04-1.38 2.48-1.3 5.45-1.67 8.17-.96 3.23.85 6.01 3.22 7.4 6.24.15.35-.13.72-.48.65z" fill="#fe515e"/></g><g><path d="m51.44 15.01c-2.96-.36-6.13.92-8.24 3.05l-8.43-7.53c.63-.54 1.32-1 2.04-1.38.73 1.14 2.1 1.85 3.45 1.78.43-.03.87-.12 1.28.03.51.18.82.7 1.11 1.16s.69.94 1.24.98c.44.04.86-.23 1.3-.24.61-.01 1.11.48 1.59.85 1.09.84 2.49 1.27 3.86 1.18.28-.02.6-.03.8.12z" fill="#f83b4d"/></g><g><path d="m32.66 39.24c-.02 0-.05 0-.08-.01-2.2-.71-4.18-2.07-5.56-3.83-1.52-1.94-2.39-4.41-2.45-6.96-.02-1.23.14-2.43.49-3.56.02-.07.07-.12.13-.15s.14-.03.2 0l10.26 4.74c.12.05.17.19.12.31-.46 1.15-.72 2.44-.74 3.71 0 .13-.11.24-.24.24-.13 0-.24-.11-.24-.25.02-1.26.26-2.52.69-3.67l-9.8-4.53c-.28 1-.41 2.06-.39 3.14.05 2.45.88 4.82 2.34 6.67 1.32 1.68 3.21 2.98 5.32 3.66.13.04.2.18.16.31-.01.11-.11.18-.21.18z"/></g><g><path d="m43.21 18.3c-.06 0-.12-.02-.16-.06l-8.43-7.53c-.05-.05-.08-.11-.08-.18s.03-.14.08-.18c.61-.53 1.31-1 2.09-1.41 2.57-1.34 5.61-1.7 8.34-.98 2.98.79 5.57 2.8 7.12 5.53.07.12.03.27-.09.33-.11.07-.27.03-.33-.09-1.46-2.57-4.01-4.55-6.82-5.29-2.62-.69-5.53-.35-7.99.94-.65.34-1.25.74-1.78 1.17l8.05 7.19c1.2-1.16 2.73-2.07 4.34-2.57.13-.04.27.03.31.16s-.03.27-.16.31c-1.61.5-3.14 1.43-4.31 2.61-.06.03-.12.05-.18.05z"/></g><g><path d="m45.6 19.39c-.03.16-.08.32-.18.46l-7.57 11.53c-.28.42-.79.64-1.28.52-7.1-1.63-13.75-5.2-19.01-10.23-1.27-1.21-2.47-2.51-3.57-3.87-.34-.43-.67-.86-1-1.3-2.92-3.94-5.14-8.4-6.5-13.12-.17-.54.2-1.1.77-1.18 4.5-.59 9.1-.4 13.54.51.35.07.71.15 1.06.23 2.25.52 4.45 1.24 6.57 2.14.03.01.07.03.1.04 6.67 2.84 12.55 7.5 16.85 13.34.2.28.27.62.22.93z" fill="#f4eded"/></g><g><path d="m28.51 5.39c-.02.46-.36.92-.81.94-.36.01-.66-.24-.96-.44-.29-.2-.7-.36-1-.18-.24.15-.34.49-.61.61-.27.13-.59-.05-.83-.21-.25-.18-.54-.37-.83-.29-.33.07-.47.44-.69.7-.33.38-.87.54-1.37.47-.49-.07-.94-.35-1.31-.69-.37-.35-.66-.76-.95-1.17l1.62-2.32c.35.07.71.15 1.06.23 2.25.52 4.45 1.24 6.57 2.14.03.01.07.03.1.04.01.05.01.11.01.17z" fill="#d8d6d6"/></g><g><path d="m20.48 8.85c-.42 0-.86-.1-1.28-.31-.82-.4-1.46-1.11-1.97-1.67-.09-.1-.08-.25.02-.34s.25-.08.34.01c.51.56 1.1 1.2 1.83 1.56.57.28 1.47.43 2.11-.08.12-.09.23-.2.33-.31.26-.26.55-.56.98-.61.49-.06.89.24 1.24.49.33.24.62.46.92.39.22-.05.4-.26.59-.48.22-.26.46-.55.83-.64.43-.1.89.07 1.39.54l.08.07c.27.25.56.52.88.54.26.02.54-.11.75-.36.22-.25.34-.58.43-.9.08-.29.14-.56.18-.83.02-.13.14-.23.28-.2.13.02.23.15.2.28-.04.28-.11.57-.19.89-.1.35-.25.76-.53 1.08-.31.37-.74.56-1.16.53-.49-.04-.85-.38-1.16-.67l-.07-.07c-.38-.35-.68-.49-.94-.42-.22.06-.4.27-.58.49-.22.26-.47.56-.85.64-.52.11-.94-.2-1.32-.47-.31-.23-.6-.44-.9-.4-.26.03-.46.23-.69.47-.12.12-.25.25-.38.35-.38.28-.85.43-1.36.43z" fill="#d8d6d6"/></g><g><path d="m21.86 2.95c-4.15 3.63-7.08 8.19-8.88 13.56-2.49-3.35-4.46-7.07-5.83-11.01-.01-.01-.01-.01-.01-.01-.24-.69-.46-1.39-.66-2.1-.12-.44.09-.9.48-1.09.09-.05.2-.08.3-.09 1.95-.25 3.91-.36 5.87-.33 2.48.04 4.97.31 7.4.79.45.08.89.18 1.33.28z" fill="#fe515e"/></g><g><path d="m13.14 2.08c-.02.4-.29.79-.68.9-.35.09-.7-.05-1.04-.16-.35-.11-.74-.18-1.04.03-.29.2-.37.6-.65.8-.33.24-.81.1-1.18-.09-.6-.3-1.15-.74-1.59-1.27.09-.05.2-.08.3-.09 1.95-.25 3.91-.36 5.87-.33.01.07.02.14.01.21z" fill="#f83b4d"/></g><g><path d="m9.62 5.63c-.18 0-.37-.03-.58-.09-.95-.25-1.84-.75-2.57-1.43-.1-.09-.1-.25-.01-.35s.25-.1.35-.01c.67.63 1.48 1.09 2.36 1.32.29.08.69.14.89-.07.09-.09.14-.24.2-.4.09-.25.19-.52.46-.68.35-.21.71-.07 1.03.04.2.07.39.14.55.13.22-.02.4-.2.6-.4.19-.19.38-.38.65-.49.36-.15.73-.09 1.08-.04.28.04.54.08.76.02.32-.09.57-.41.63-.79.02-.1.02-.2 0-.3-.02-.13.07-.26.2-.28s.26.07.28.2c.02.15.02.3 0 .45-.08.57-.48 1.04-.97 1.19-.33.09-.65.04-.97 0-.3-.05-.58-.09-.82.01-.17.07-.33.22-.49.38-.24.23-.51.5-.9.54-.28.03-.54-.07-.77-.15-.29-.11-.47-.16-.61-.08-.12.07-.18.24-.25.43s-.14.4-.31.57c-.19.18-.46.28-.79.28z" fill="#f83b4d"/></g><g><path d="m21.86 2.95c-4.15 3.63-7.08 8.19-8.88 13.56-2.49-3.35-4.46-7.07-5.83-11.01.27.31.48.69.69 1.06.27.49.57 1 1.02 1.35s1.1.49 1.59.2c.62-.37.84-1.33 1.56-1.45.79-.12 1.44.94 2.21.74.67-.19.74-1.13 1.24-1.61.42-.4 1.05-.41 1.62-.51 1.48-.25 2.78-1.28 3.46-2.61.44.08.88.18 1.32.28z" fill="#f83b4d"/></g><g><path d="m45.6 19.39c-.03.16-.08.32-.18.46l-7.57 11.53c-.28.42-.79.64-1.28.52-7.1-1.63-13.75-5.2-19.01-10.23-1.27-1.21-2.47-2.51-3.57-3.87.89 1.02 1.8 2.03 2.95 2.73 1.2.74 2.73 1.09 4.05.58.98-.38 1.78-1.19 2.81-1.37 1.05-.19 2.11.33 2.96.98.85.66 1.58 1.47 2.49 2.03s2.12.83 3.05.31c.94-.52 1.38-1.7 2.34-2.18 1.31-.66 2.82.24 4.23.66 2.4.71 5.13-.25 6.73-2.15z" fill="#d8d6d6"/></g><g><path d="m31.46 30.62c-.03 0-.06 0-.09-.02-5.19-1.94-10.03-4.96-14-8.75-1.29-1.23-2.5-2.54-3.59-3.9-.34-.43-.67-.87-1-1.3-2.98-4.01-5.18-8.45-6.54-13.2-.09-.32-.03-.68.16-.97s.49-.48.83-.52c4.9-.64 9.84-.38 14.69.75 2.25.52 4.47 1.24 6.61 2.15 6.78 2.86 12.67 7.52 17.05 13.46.24.32.33.73.26 1.11-.03.2-.11.39-.22.56l-.88 1.34c-.08.11-.23.14-.34.07s-.14-.23-.07-.34l.88-1.35c.08-.11.12-.23.15-.37.05-.26-.02-.53-.17-.74-4.32-5.87-10.15-10.47-16.85-13.3-2.11-.89-4.31-1.61-6.53-2.12-4.78-1.12-9.67-1.37-14.51-.74-.21.03-.38.14-.5.31-.11.17-.14.38-.09.57 1.35 4.69 3.52 9.08 6.46 13.04.32.43.65.86.99 1.29 1.07 1.34 2.27 2.63 3.55 3.85 3.92 3.74 8.7 6.73 13.83 8.65.13.05.19.19.14.31-.03.1-.12.16-.22.16z"/></g><g><path d="m31.39 18.63c-1.73 2.63-5.26 3.36-7.89 1.63-1.23-.81-2.04-2.01-2.38-3.33-.39-1.5-.17-3.16.75-4.56 1.73-2.63 5.26-3.37 7.89-1.63 1.31.86 2.15 2.16 2.44 3.58.31 1.44.07 2.99-.81 4.31z" fill="#fe515e"/></g><g><path d="m31.39 18.63c-1.73 2.63-5.26 3.36-7.89 1.63-1.23-.81-2.04-2.01-2.38-3.33.38.73.87 1.41 1.44 2 .37.38.87.76 1.38.63.51-.12.82-.66 1.32-.81.96-.31 1.89.98 2.85.68.8-.24.94-1.34 1.6-1.87.31-.25.71-.35 1.05-.53.63-.36 1.04-1.01 1.25-1.7.1-.33.16-.67.2-1.02.3 1.45.06 3-.82 4.32z" fill="#f83b4d"/></g><g><path d="m30.06 17.75c-1.24 1.89-3.78 2.42-5.68 1.18-.99-.65-1.61-1.66-1.79-2.75-.17-.98.02-2.04.61-2.94 1.24-1.89 3.79-2.42 5.68-1.18.81.53 1.37 1.31 1.65 2.17v.01c.37 1.14.24 2.43-.47 3.51z" fill="#90e2fd"/></g><g><path d="m30.06 17.75c-1.24 1.89-3.78 2.42-5.68 1.18-.99-.65-1.61-1.66-1.79-2.75.1.22.23.42.4.61.42.45 1.18.66 1.68.3.22-.16.38-.42.64-.51.37-.13.75.14 1.05.39.31.25.72.49 1.06.31.45-.23.37-.96.76-1.29.42-.36 1.12-.03 1.63-.25.27-.12.46-.37.56-.64s.12-.57.15-.85c.38 1.13.25 2.42-.46 3.5z" fill="#60d4f4"/></g><g><path d="m22.55 28.49c-.09 0-.17-.05-.21-.13-.06-.12-.02-.27.1-.33 6.22-3.38 12.15-7.51 13.46-14.77.34-1.88.4-4.42-1.2-5.8-.36-.31-.78-.53-1.27-.68-.13-.04-.2-.18-.16-.3.04-.13.18-.2.3-.16.55.17 1.03.43 1.44.78 1.78 1.53 1.73 4.24 1.37 6.25-1.34 7.46-7.38 11.68-13.71 15.11-.04.02-.08.03-.12.03z"/></g><g><path d="m20.11 31.53c-.29 0-.59-.1-.85-.3-.32-.24-.52-.59-.56-.96-.07-.6.25-1.2.88-1.64.05-.04.1-.07.15-.1-.34-.07-.71-.19-1.03-.47-.37-.34-.64-.98-.41-1.52.17-.4.56-.63 1.03-.62.38.02.72.19 1.04.38l.16.09c.6.35 1.5.88 1.82 1.52.01.03.03.06.04.09.07.04.13.12.13.21 0 .07-.03.14-.08.19-.02.58-.39 1.29-.61 1.72l-.06.11c-.37.73-.89 1.19-1.47 1.28-.05.01-.12.02-.18.02zm.52-2.91c-.27.1-.53.23-.78.41-.22.16-.74.59-.67 1.18.03.25.16.47.37.63.2.15.46.23.67.19.57-.09.94-.68 1.11-1.02l.06-.11c.14-.28.46-.9.54-1.36-.43.06-.86.09-1.3.08zm-1.36-2.22c-.19 0-.43.08-.53.32-.13.31.05.75.29.97.29.26.68.35 1.02.39.17.02.34.04.51.05.4-.13.84-.2 1.23-.19-.34-.44-1.06-.86-1.51-1.12l-.16-.1c-.26-.16-.54-.3-.82-.31-.01-.01-.02-.01-.03-.01z"/></g><g><path d="m41.07 64.14c-5.09 1.09-10.11-1.54-12.24-6.06-.36-.75-.63-1.56-.81-2.4-1.26-5.93 2.52-11.78 8.46-13.04 5.13-1.09 10.18 1.58 12.28 6.15.34.72.59 1.49.77 2.3 1.26 5.94-2.52 11.78-8.46 13.05z" fill="#fa778d"/></g><g><path d="m41.07 64.14c-5.09 1.09-10.11-1.54-12.24-6.06.38.49.82.95 1.33 1.32 1.15.85 2.8 1.19 4.02.44.96-.59 1.65-1.82 2.79-1.81 1.2.01 2.01 1.45 3.22 1.5.9.03 1.64-.75 1.95-1.59.31-.85.32-1.76.52-2.64s.66-1.78 1.5-2.1c.85-.32 1.84.07 2.7-.21.66-.22 1.14-.8 1.41-1.44s.34-1.34.41-2.03c.03-.25.05-.49.08-.74.34.72.59 1.49.77 2.3 1.26 5.95-2.52 11.79-8.46 13.06z" fill="#ef6280"/></g><g><g><path d="m33.62 50.88c0-1.48 1.2-2.68 2.68-2.68s2.68 1.2 2.68 2.68-1.2 2.68-2.68 2.68-2.68-1.21-2.68-2.68zm2.14 7.91c-.23-.17-.35-.43-.35-.71 0-.18.06-.37.19-.54l6.7-8.95c.17-.23.43-.35.71-.35.18 0 .39.06.54.18.23.17.35.43.35.71 0 .18-.05.37-.17.54l-6.7 8.95c-.18.23-.45.35-.72.35-.19.01-.38-.05-.55-.18zm-.35-7.91c0 .49.4.89.89.89s.89-.4.89-.89-.4-.89-.89-.89-.89.39-.89.89zm4.91 5.37c0-1.48 1.22-2.7 2.7-2.7s2.68 1.22 2.68 2.7-1.2 2.68-2.68 2.68-2.7-1.2-2.7-2.68zm1.8 0c0 .49.4.89.89.89s.89-.4.89-.89-.4-.89-.89-.89-.89.4-.89.89z" fill="#fff"/></g></g><g><circle cx="32.13" cy="48.19" fill="#fff" r="1.37"/></g><g><path d="m32.13 48.44c-.05 0-.1-.01-.14-.04-3.45-2.39-6.58-6.48-7.99-10.41-1.13-3.17-1.72-6.73-1.79-10.9 0-.13.1-.25.24-.25.13 0 .24.11.24.24.07 4.11.65 7.63 1.77 10.74 1.38 3.85 4.44 7.84 7.81 10.17.11.08.14.23.06.34-.05.07-.12.11-.2.11z"/></g><g><path d="m41.08 21.61c-.46 0-.87.22-1.17.58s-.49.84-.49 1.38c0-1.08-.74-1.96-1.65-1.96.46 0 .87-.22 1.17-.57.3-.36.48-.84.48-1.38 0 .54.19 1.03.49 1.38.29.35.71.57 1.17.57z" fill="#fff"/></g><g><path d="m14.15 7.29c-.46 0-.87.22-1.17.58s-.49.84-.49 1.38c0-1.08-.74-1.96-1.65-1.96.46 0 .87-.22 1.17-.57.3-.36.48-.84.48-1.38 0 .54.19 1.03.49 1.38s.72.57 1.17.57z" fill="#fff"/></g><g><path d="m38.25 20.05c-.27 0-.51.13-.69.34s-.29.49-.29.81c0-.63-.43-1.15-.97-1.15.27 0 .51-.13.69-.33.17-.21.28-.49.28-.81 0 .32.11.6.29.81.18.2.43.33.69.33z" fill="#fff"/></g><g><g><path d="m41.13 16.13c-.39.28-1.32-.37-2.31-1.23-.98-.87-1.75-1.7-1.53-2.13.21-.41 1.5-.16 2.65.85s1.57 2.25 1.19 2.51z" fill="#fff"/></g><g><path d="m42.34 18.06c-.19.09-.48-.14-.7-.51s-.28-.74-.11-.86.51.09.75.48c.23.39.24.8.06.89z" fill="#fff"/></g></g><g><g><path d="m28.28 33.83c.38-.29 1.3.27 2.33.97 1.02.71 1.88 1.38 1.74 1.84-.13.44-1.44.43-2.7-.44-1.27-.87-1.74-2.1-1.37-2.37z" fill="#fff"/></g><g><path d="m27.07 31.97c.19-.09.47.15.68.49.21.35.27.71.11.84-.16.12-.51-.07-.74-.46-.23-.38-.23-.79-.05-.87z" fill="#fff"/></g></g><g><g><path d="m42.86 45.23c-.1.21-.46.27-.94.26s-1.1-.07-1.8-.15c-1.39-.16-2.64-.44-2.65-.92-.02-.45 1.22-.94 2.86-.76.81.1 1.54.38 2 .7.44.32.63.66.53.87z" fill="#fff"/></g><g><path d="m44.79 46.71c-.16.13-.51-.05-.84-.33-.33-.29-.55-.61-.44-.79.1-.17.54-.11.93.23.38.33.51.77.35.89z" fill="#fff"/></g></g></g></svg>