<svg id="Layer_1" enable-background="new 0 0 66 66" viewBox="0 0 66 66" xmlns="http://www.w3.org/2000/svg">
    <g>
        <g>
            <path d="m19.12 54.24c-.78.72-2.03.96-3.11.76-1.07-.21-1.96-.81-2.62-1.56-.22-.25-.41-.5-.58-.77-.36-.53-.64-1.12-.9-1.71-.97-2.14-1.74-4.36-2.31-6.62-.45-1.78-.77-3.59-.96-5.41l3.74-.54 3.59-.52c.13 2 .46 3.98 1 5.91.49 1.76 1.13 3.49 1.94 5.14.42.85.88 1.7 1.03 2.63.17.93-.04 1.98-.82 2.69z"
                  fill="#509dff"/>
        </g>
        <g>
            <path d="m12.53 39.75c-.07.4-.26.79-.6 1.02-.35.24-.84.29-1.1.63-.25.32-.19.77-.1 1.17s.2.83.04 1.2c-.19.42-.69.61-1.16.58-.45-1.78-.77-3.59-.96-5.41l3.74-.54c.01.05.03.09.04.14.1.39.16.8.1 1.21z"
                  fill="#308cef"/>
        </g>
        <g>
            <path d="m10.83 46.69c-.15 0-.29-.02-.43-.05-.11-.02-.23-.06-.34-.1-.12-.05-.19-.19-.14-.32s.19-.19.32-.14c.08.03.17.06.25.08.5.11 1.16-.03 1.41-.51.22-.43.08-.98-.06-1.51-.15-.61-.26-1.35.19-1.89.26-.31.61-.44.96-.57.2-.08.39-.15.55-.25.53-.34.72-1.04.71-1.57-.01-.55-.19-1.1-.38-1.62-.02-.07-.04-.13-.06-.18l-.04-.12c-.04-.13.03-.27.16-.31s.27.03.31.16l.04.1c.02.07.05.13.07.2.2.53.39 1.13.4 1.76.01.85-.35 1.61-.94 1.99-.21.13-.42.21-.64.29-.3.11-.58.22-.75.43-.31.37-.21.97-.09 1.45.15.6.33 1.28.02 1.87-.31.56-.93.81-1.52.81z"
                  fill="#308cef"/>
        </g>
        <g>
            <path d="m19.96 51.56c.15.92-.06 1.97-.84 2.68-.78.72-2.03.97-3.1.76s-1.96-.81-2.62-1.55c-.22-.25-.41-.5-.58-.78.2.09.4.16.61.2.62.13 1.4-.04 1.74-.54.56-.81-.33-1.88.21-2.7.35-.54 1.21-.75 1.49-1.31.21-.41.03-.86-.2-1.24-.24-.38-.53-.73-.61-1.16-.11-.69.39-1.35.82-1.96.04-.06.08-.11.11-.17.49 1.76 1.14 3.49 1.94 5.15.42.85.87 1.69 1.03 2.62z"
                  fill="#308cef"/>
        </g>
        <g>
            <path d="m16.76 55.32c-.27 0-.54-.02-.8-.07-1.31-.25-2.22-1.03-2.76-1.63-.21-.24-.41-.5-.61-.81-.34-.52-.61-1.07-.91-1.74-1.74-3.82-2.84-7.89-3.29-12.1-.01-.13.08-.25.21-.27l7.34-1.06c.07-.01.14.01.19.05s.09.11.09.17c.13 1.98.46 3.95.99 5.86.48 1.75 1.13 3.47 1.93 5.11.06.12.01.27-.11.33s-.27.01-.33-.11c-.81-1.66-1.47-3.41-1.96-5.19-.52-1.86-.85-3.77-.99-5.7l-6.85.99c.46 4.07 1.54 8.01 3.23 11.72.29.65.55 1.18.88 1.67.18.29.37.53.56.75.49.55 1.31 1.25 2.48 1.48.37.07.77.08 1.16.04.14-.02.26.08.27.21.02.13-.08.26-.21.27-.17.02-.34.03-.51.03z"/>
        </g>
        <g>
            <path d="m32 42.18c-3.22-2.04-6.87-3.37-10.63-3.86-1.61-.22-3.48-.23-5.44-.12-.03 0-.07.01-.1.01-.2.01-.4.02-.59.03-.51.03-1.04.08-1.55.13-.08.01-.16.02-.23.03-1.43.14-2.87.32-4.28.53-.2.03-.39.05-.58.08-.55.08-1.1.17-1.64.26-2.45.4-4.76-1.26-5.16-3.71v-.01c-.36-2.22.99-4.36 3.15-5 .54-.16 1.1-.33 1.67-.5.2-.06.39-.12.59-.18 1.88-.58 3.82-1.22 5.65-1.94.2-.07.39-.15.58-.23.49-.2.97-.4 1.44-.61 1.3-.57 2.51-1.19 3.55-1.85.14-.09.29-.18.42-.27 2.68-1.82 5.02-4.13 6.86-6.79.01-.01.02-.03.03-.04.31-.45.61-.91.89-1.37l1.42 6.73z"
                  fill="#fe515e"/>
        </g>
        <g>
            <path d="m18.89 27.57c-.09.2-.3.37-.52.36-.34-.02-.57-.42-.91-.42-.33 0-.52.36-.61.68-.1.31-.2.68-.51.79-.21.08-.46-.01-.63-.15-.17-.15-.27-.36-.37-.56-.18-.38-.33-.76-.45-1.16 1.3-.57 2.51-1.19 3.55-1.85.28.51.46 1.07.51 1.65.02.22.03.45-.06.66z"
                  fill="#f83b4d"/>
        </g>
        <g>
            <path d="m16.47 31.67c-.3 0-.59-.08-.84-.22-.6-.35-.95-.99-1.16-1.44-.37-.79-.62-1.62-.73-2.49-.02-.13.08-.26.21-.27.13-.02.26.08.27.21.11.81.34 1.6.69 2.34.18.39.48.94.96 1.22.38.22.98.23 1.26-.13.15-.2.2-.47.26-.76l.04-.22c.12-.58.38-.95.76-1.09.42-.15.81.03 1.16.2.25.12.49.23.71.21.3-.03.53-.31.62-.56.09-.27.09-.6 0-1.03-.22-1.05-.78-2.03-1.59-2.77-.1-.09-.11-.25-.02-.34.09-.1.24-.11.34-.02.88.8 1.5 1.88 1.74 3.03.11.52.1.93-.02 1.29-.17.49-.59.85-1.05.89-.35.02-.68-.13-.96-.26-.3-.14-.55-.26-.78-.18-.26.1-.39.45-.45.73l-.04.21c-.06.34-.12.68-.35.97-.24.33-.63.48-1.03.48z"
                  fill="#f83b4d"/>
        </g>
        <g>
            <path d="m32 42.18c-3.21-2.03-6.87-3.36-10.63-3.86-1.61-.22-3.48-.22-5.44-.12.8-.34 1.49-.96 1.83-1.77.21-.51.33-1.13.8-1.43.58-.35 1.37-.03 1.99-.31.72-.33.87-1.29.8-2.09-.06-.8-.22-1.67.23-2.33.59-.86 1.96-.94 2.44-1.86.48-.91-.24-1.96-.41-2.98-.22-1.32.5-2.59 1.16-3.76.61-1.07 1.18-2.31.96-3.49.01-.01.02-.02.03-.04.72 1.81 1.49 3.6 2.31 5.37z"
                  fill="#f83b4d"/>
        </g>
        <g>
            <path d="m15.24 38.24c-2.19.15-4.47.44-6.64.77-1.99-2.46-2.76-5.89-1.98-8.96 2.07-.62 4.22-1.32 6.25-2.12-.98 3.55-.04 7.56 2.37 10.31z"
                  fill="#f4eded"/>
        </g>
        <g>
            <path d="m32 42.42c-.05 0-.09-.01-.13-.04-3.17-2.01-6.81-3.33-10.53-3.83-1.46-.2-3.22-.23-5.4-.11-.07 0-.09.01-.11.01l-.58.03c-.51.03-1.03.08-1.55.13l-.22.02c-1.36.13-2.79.31-4.27.53l-.58.09c-.51.08-1.01.16-1.51.24l-.12.03c-1.72.28-3.45-.4-4.52-1.78-.08-.11-.06-.26.04-.34.11-.08.26-.06.34.04.95 1.24 2.51 1.85 4.05 1.6l.13-.02c.5-.08 1-.16 1.51-.24l.58-.09c1.49-.22 2.93-.4 4.3-.53l.22-.02c.53-.05 1.05-.1 1.57-.13l.59-.03c.07 0 .09-.01.12-.01 2.19-.12 3.98-.08 5.47.12 3.59.48 7.12 1.72 10.24 3.6l-5.11-24.25c-.19.3-.38.59-.57.86-.01.01-.02.03-.03.04-1.84 2.66-4.24 5.03-6.93 6.85-1.38.93-3.22 1.86-5.46 2.75-.19.08-.38.16-.58.23-1.06.41-2.2.82-3.49 1.25-.13.04-.27-.03-.31-.16-.05-.12.02-.26.15-.3 1.28-.42 2.42-.83 3.47-1.24.2-.07.39-.15.57-.23 2.21-.88 4.02-1.79 5.37-2.7 2.64-1.79 4.99-4.12 6.8-6.73.01-.01.01-.02.02-.03.31-.46.59-.89.89-1.37.05-.09.15-.13.25-.11s.18.09.2.19l5.36 25.4c.02.1-.02.2-.1.25-.04.02-.09.03-.14.03z"/>
        </g>
        <g>
            <ellipse cx="32.71" cy="28.62" fill="#c6c4c4" rx="7.47" ry="15.34"
                     transform="matrix(.981 -.195 .195 .981 -4.942 6.906)"/>
        </g>
        <g>
            <path d="m34.96 43.98c-3.17 0-6.56-3.69-8.63-9.53-.05-.13.02-.27.15-.31.13-.05.27.02.31.15 2.13 5.99 5.78 9.75 8.86 9.14 1.86-.37 3.32-2.24 4.12-5.26.81-3.08.82-6.97.03-10.95s-2.28-7.57-4.21-10.11c-1.89-2.49-3.95-3.65-5.81-3.29-3.09.61-5.02 5.49-4.7 11.85.01.13-.1.25-.23.26s-.25-.1-.26-.23c-.34-6.72 1.71-11.68 5.09-12.36 2.05-.41 4.29.83 6.3 3.47 1.97 2.6 3.5 6.26 4.3 10.31s.79 8.02-.04 11.17c-.85 3.21-2.44 5.2-4.5 5.61-.26.06-.52.08-.78.08z"/>
        </g>
        <g>
            <ellipse cx="35.22" cy="28.12" fill="#f4eded" rx="8.5" ry="17.45"
                     transform="matrix(.981 -.195 .195 .981 -4.797 7.386)"/>
        </g>
        <g>
            <path d="m37.78 45.56c-2.07 0-4.26-1.4-6.25-4.02-2.24-2.95-3.97-7.11-4.89-11.72-.91-4.61-.9-9.12.05-12.7.96-3.64 2.77-5.9 5.09-6.36 3.07-.61 6.47 2.02 9.08 7.04.06.12.02.27-.1.33s-.27.02-.33-.1c-2.47-4.74-5.74-7.35-8.55-6.79-2.13.42-3.8 2.55-4.71 6-.92 3.51-.94 7.94-.04 12.48s2.6 8.63 4.8 11.52c2.16 2.84 4.52 4.17 6.65 3.75 3.15-.63 5.28-5.08 5.41-11.34 0-.13.12-.25.25-.24.13 0 .24.11.24.25-.14 6.5-2.41 11.14-5.8 11.81-.31.07-.6.09-.9.09z"/>
        </g>
        <g>
            <path d="m42.62 32.83c-.01.72-.04 1.43-.1 2.1-.31 3.42-1.34 6.1-2.94 7.32-.44.33-.92.56-1.44.66-.22.05-.44.07-.66.07-.41-.01-.83-.08-1.24-.23-2.62-.93-5.27-4.65-6.89-9.68-.36-1.14-.67-2.34-.92-3.59-.21-1.09-.37-2.16-.47-3.21-.03-.19-.03-.38-.05-.57-.5-6.51 1.22-11.73 4.38-12.35 2.83-.57 6.02 2.73 8.11 7.91.67 1.67 1.23 3.54 1.62 5.52.37 1.89.57 3.73.6 5.45z"
                  fill="#d8d6d6"/>
        </g>
        <g>
            <g>
                <path d="m42.62 32.83c-.25-.21-.53-.39-.83-.55-.37-.2-.89-.38-1.28-.16-.43.25-.49.89-.5 1.54-.01.38-.03 1.56-.88 1.92-.26.11-.53.11-.79.11-.24 0-.48 0-.65.1-.31.17-.37.63-.31.97.04.23.13.46.22.7.08.2.15.4.2.6.17.63.05 1.2-.32 1.54-.25.23-.59.31-.88.38-.25.06-.48.12-.65.25-.53.44-.11 1.21.18 1.63.34.49.81.87 1.34 1.09-.41-.01-.83-.08-1.24-.23-.19-.17-.35-.36-.5-.58-.66-.95-.69-1.78-.08-2.29.25-.21.55-.28.85-.35.25-.06.5-.12.66-.27.27-.25.27-.7.18-1.05-.05-.19-.12-.37-.19-.55-.1-.25-.2-.51-.25-.79-.1-.53.03-1.19.55-1.48.51-.3 1.11-.08 1.5-.24.38-.16.57-.64.58-1.48.01-.53.02-1.54.75-1.96.46-.27 1.06-.21 1.75.15.2.11.4.23.59.37z"
                      fill="#c6c4c4"/>
            </g>
        </g>
        <g>
            <path d="m40.4 21.26c-.29-.44-.63-.84-1.04-1.17-.88-.71-2.21-1.01-3.16-.4-.49.31-.91.85-1.49.83-.68-.02-1.27-.84-1.89-.57-.45.19-.51.8-.47 1.29.05.48.09 1.06-.28 1.37-.53.45-1.39-.04-2.02.24-.63.29-.7 1.15-.62 1.85.06.59.09 1.31-.42 1.62-.32.19-.7.11-1.05-.06-.02-.19-.03-.38-.05-.57-.5-6.51 1.22-11.73 4.38-12.36 2.83-.55 6.02 2.75 8.11 7.93z"
                  fill="#c6c4c4"/>
        </g>
        <g>
            <path d="m33.49 25.27 1.11 5.62-2.09.87-3.17 1.31c-.36-1.14-.68-2.34-.93-3.59-.26-1.29-.43-2.56-.52-3.78l.13-.01z"
                  fill="#509dff"/>
        </g>
        <g>
            <path d="m32.52 31.75-3.17 1.31c-.36-1.14-.68-2.34-.93-3.59-.26-1.29-.43-2.56-.52-3.78l.13-.01c-.12.66.11 1.35.85 1.61.23.08.49.1.69.23.25.18.35.5.37.81.03.3 0 .62.08.91.09.29.33.57.63.58.29 0 .58-.24.84-.14.16.06.26.24.29.41s.02.35.04.53c.05.46.31.88.7 1.13z"
                  fill="#308cef"/>
        </g>
        <g>
            <ellipse cx="34.05" cy="28.08" fill="#1c7dc6" rx="1.56" ry="2.86"
                     transform="matrix(.981 -.195 .195 .981 -4.809 7.158)"/>
        </g>
        <g>
            <path d="m18.33 43.93c.06.25-.11.5-.39.56l-1.66.39c-.23.05-.48-.05-.57-.24-.03-.06-.07-.13-.09-.19-.44-.93-.66-1.92-.67-2.95 0-.22.18-.42.41-.47l1.66-.39c.27-.06.54.08.6.34l.04.18z"
                  fill="#ffcd3b"/>
        </g>
        <g>
            <path d="m18.33 43.93c.06.25-.11.5-.39.56l-1.66.39c-.23.05-.48-.05-.57-.24-.03-.06-.07-.13-.09-.19.12.08.28.1.42.06.21-.06.37-.26.37-.46 0-.18-.11-.37.01-.52.11-.13.35-.11.47-.23.12-.11.09-.3.01-.44-.07-.14-.18-.27-.16-.43.03-.26.36-.4.56-.59.2-.18.3-.43.34-.67 0-.01 0-.02 0-.02z"
                  fill="#fcb910"/>
        </g>
        <g>
            <g>
                <path d="m43.5 26.58c.01.03.01.06.02.08.1.49-.07.97-.46 1.29-.43.36-1.08.5-1.83.48-.03 0-.06 0-.09 0-.97-.06-1.87-.36-2.34-.73-.05-.04-.07-.09-.08-.13-.02-.11.09-.23.32-.31.08-.03.17-.05.26-.05.24-.03.5.02.64.14.22.19.63.32 1.09.3h.06c.39-.02.7-.11.91-.27.19-.16.28-.36.24-.56 0-.01 0-.02-.01-.03-.1-.35-1.12-.5-1.54-.49-.02 0-.03 0-.05-.01-1.17-.05-1.8-.26-1.9-.74 0-.01-.01-.03-.01-.04-.03-.28.16-.62.57-1 .34-.32.83-.66 1.37-.91.03-.01.06-.03.09-.04.44-.19.91-.27 1.31-.22.18.03.29.13.31.27.02.1 0 .22-.07.33-.1.16-.27.29-.46.35-.13.04-.26.06-.39.05-.18-.03-.4-.01-.59.06-.02.01-.04.02-.06.02-.52.19-.88.5-.85.72v.03c.06.31.49.31.93.31.35-.06 2.31-.09 2.61 1.1z"
                      fill="#1b38ab"/>
            </g>
            <g>
                <path d="m50.84 27.74c.05.09.08.19.1.28.08.39-.11.74-.51.73-.26-.01-.55-.19-.7-.47-.25-.44-.5-.87-.75-1.29-1.01.06-2.02.12-3.03.18-.09.37-.19.72-.29 1.07-.06.22-.28.34-.54.33-.39-.02-.71-.28-.76-.53-.01-.07-.01-.13.01-.19.54-1.72 1.01-3.76 1.42-6.13.05-.27.24-.53.49-.64.24-.11.5-.05.64.16 1.24 1.84 2.55 4 3.92 6.5zm-2.65-2.05c-.49-.81-.97-1.57-1.45-2.28-.16.9-.32 1.75-.5 2.55.65-.09 1.3-.18 1.95-.27z"
                      fill="#1b38ab"/>
            </g>
            <g>
                <path d="m52.67 28.82c-.38-.02-.74-.38-.83-.81-.52-2.63-1.04-5.26-1.56-7.89-.09-.43.11-.9.46-1.06.33-.15.67.1.77.56.5 2.51 1 5.03 1.49 7.54.76-.03 1.52-.06 2.29-.1.36-.02.74.39.85.93.1.52-.12.94-.48.92-1-.02-1.99-.06-2.99-.09z"
                      fill="#1b38ab"/>
            </g>
            <g>
                <path d="m61.99 27.98c.13.64-.07 1.15-.44 1.14-1.21-.04-2.43-.08-3.64-.12-.38-.01-.76-.46-.86-1-.65-3.28-1.3-6.55-1.95-9.83-.11-.54.08-1.1.42-1.25 1.11-.5 2.21-1 3.32-1.5.34-.16.71.24.84.88.13.66-.04 1.28-.39 1.41-.92.33-1.84.67-2.76 1 .2 1.03.41 2.06.61 3.09.73-.17 1.47-.35 2.2-.52.34-.08.73.36.85.99s-.06 1.18-.41 1.24c-.74.12-1.49.24-2.23.35.2 1.03.41 2.06.61 3.09.98-.04 1.96-.08 2.94-.12.36-.02.76.48.89 1.15z"
                      fill="#1b38ab"/>
            </g>
            <g>
                <path d="m61.73 15.46c.58 2.92 1.16 5.84 1.74 8.76.14.69-.05 1.27-.41 1.3s-.75-.49-.88-1.14c-.56-2.81-1.11-5.61-1.67-8.42-.13-.66.03-1.31.36-1.47.34-.15.73.28.86.97zm2.48 12.51c.14.69-.06 1.24-.42 1.22-.36-.01-.77-.56-.9-1.22-.13-.68.05-1.22.41-1.24s.77.53.91 1.24z"
                      fill="#1b38ab"/>
            </g>
        </g>
        <g>
            <path d="m42.53 34.93c-.31 3.42-1.34 6.1-2.94 7.32-.47-.14-.87-.51-1.03-.98-.21-.61.03-1.35.55-1.73.27-.2.62-.33.76-.63.16-.35-.04-.76-.21-1.12s-.29-.83-.01-1.11c.2-.2.53-.2.75-.39.42-.36.13-1.09.42-1.57.19-.31.6-.43.95-.34.31.07.57.29.76.55z"
                  fill="#c6c4c4"/>
        </g>
        <g>
            <path d="m23.22 33.18c-.44 0-.85.21-1.14.56s-.47.82-.47 1.35c0-1.05-.72-1.91-1.61-1.91.44 0 .85-.21 1.14-.56s.47-.82.47-1.35c0 .53.18 1 .47 1.35s.7.56 1.14.56z"
                  fill="#fff"/>
        </g>
        <g>
            <path d="m39.55 19.99c-.44 0-.85.21-1.14.56s-.47.82-.47 1.35c0-1.05-.72-1.91-1.61-1.91.44 0 .85-.21 1.14-.56s.47-.82.47-1.35c0 .53.18 1 .47 1.35.29.34.7.56 1.14.56z"
                  fill="#fff"/>
        </g>
        <g>
            <path d="m16.86 49.43c-.26 0-.49.12-.65.32-.17.2-.27.47-.27.77 0-.61-.41-1.1-.92-1.1.26 0 .49-.12.65-.32.17-.2.27-.47.27-.77 0 .3.1.58.27.77.16.21.39.33.65.33z"
                  fill="#fff"/>
        </g>
        <g>
            <path d="m20.79 35.09c-.22 0-.41.1-.56.27-.14.17-.23.4-.23.66 0-.51-.35-.93-.78-.93.22 0 .41-.1.56-.27.14-.17.23-.4.23-.66 0 .26.09.49.23.66.13.17.33.27.55.27z"
                  fill="#fff"/>
        </g>
        <g>
            <g>
                <path d="m4.26 36.77c-.17.16-.49.14-.86-.12-.36-.26-.74-.8-.86-1.48-.12-.67.03-1.3.27-1.68s.55-.52.76-.43c.22.09.33.36.42.68.09.33.15.71.22 1.12.08.41.15.78.19 1.12.03.33.03.63-.14.79z"
                      fill="#fff"/>
            </g>
            <g>
                <path d="m5.73 37.72c-.06.19-.41.27-.74.08-.34-.18-.47-.51-.34-.66.13-.16.43-.13.69.01s.45.37.39.57z"
                      fill="#fff"/>
            </g>
        </g>
        <g>
            <g>
                <path d="m31.91 35.39c.44-.16 1.18.63 2.03 1.63.42.5.79 1.04.97 1.37.18.34.35.57.31.81-.03.23-.47.38-1.03.15-.56-.24-1.06-.67-1.56-1.24-.48-.59-.8-1.23-.91-1.74-.11-.52-.03-.88.19-.98z"
                      fill="#fff"/>
            </g>
            <g>
                <path d="m31.37 33.19c.21 0 .38.32.46.72.07.4.03.77-.16.84s-.48-.24-.56-.7c-.1-.47.06-.86.26-.86z"
                      fill="#fff"/>
            </g>
        </g>
    </g>
</svg>