<svg id="Layer_1" enable-background="new 0 0 66 66" viewBox="0 0 66 66" xmlns="http://www.w3.org/2000/svg"><g><g><path d="m60.94 41.64c0 8.91-4.88 16.68-12.11 20.8v.01h-23.63c-2.85-1.61-5.32-3.8-7.29-6.39-3.03-4-4.83-8.99-4.83-14.41 0-2.79.48-5.47 1.36-7.96 1.35-3.83 3.66-7.21 6.63-9.87.4-.36.64-.87.64-1.41v-1.91h30.59v1.91c0 .54.25 1.05.64 1.41 2.6 2.33 4.69 5.22 6.08 8.48 1.24 2.86 1.92 6.02 1.92 9.34z" fill="#f4eded"/></g><g><path d="m24.7 27.13c-.57.63-1.62.83-1.93 1.63-.21.57.01 1.29-.38 1.74-.52.59-1.56.15-2.24.54-.53.31-.66 1-.7 1.61-.03.61-.06 1.29-.49 1.72-.49.49-1.28.45-1.95.31-.9-.2-1.76-.54-2.57-1 1.35-3.83 3.66-7.21 6.63-9.87.4-.36.64-.87.64-1.41v-1.67c1.42.79 2.58 2.04 3.17 3.55.37.93.49 2.1-.18 2.85z" fill="#d8d6d6"/></g><g><path d="m18.07 40.15c-.61 0-1.32-.24-2.11-.71-.93-.54-1.82-1.17-2.64-1.87-.1-.09-.12-.24-.03-.34s.24-.11.34-.03c.8.68 1.67 1.3 2.58 1.82 1.12.67 2.01.81 2.64.44.65-.39.81-1.21.99-2.08.18-.9.37-1.83 1.12-2.37.8-.58 1.84-.42 2.76-.27l.13.02c.81.13 1.86.13 2.32-.55.26-.39.27-.91.29-1.45.02-.7.04-1.43.61-1.91.36-.29.79-.36 1.21-.42.22-.03.42-.07.62-.13 1.31-.43 1.41-2.82 1.18-4.01-.28-1.37-1-2.66-1.64-3.81-.07-.12-.02-.27.09-.33s.27-.02.33.09c.66 1.18 1.4 2.51 1.69 3.95.25 1.25.21 4.01-1.51 4.57-.23.07-.46.11-.69.15-.37.06-.72.11-.98.32-.4.33-.42.89-.43 1.54-.01.6-.03 1.21-.37 1.72-.48.71-1.45.97-2.8.76l-.13-.02c-.87-.14-1.77-.28-2.4.19-.6.43-.76 1.23-.93 2.07-.19.93-.38 1.9-1.21 2.41-.31.16-.66.25-1.03.25z" fill="#d8d6d6"/></g><g><g><path d="m5.38 46.26-.03-.22c-.1-.73.07-1.37.51-1.91.23-.22.42-.34.57-.36.24.01.38.11.41.31s-.1.35-.39.45c-.35.36-.48.87-.39 1.53.14.97.49 1.43 1.06 1.36.37-.05.56-.45.56-1.21 0-.9.05-1.53.15-1.88.22-.54.54-.84.98-.9l.15-.02c.5-.07.97.23 1.41.89.19.34.31.7.36 1.09.13.9-.08 1.62-.64 2.14-.15.12-.3.2-.45.24-.24-.01-.38-.11-.41-.31s.11-.35.4-.46c.34-.38.47-.84.39-1.39l-.03-.2c-.08-.58-.33-.99-.73-1.25-.09-.04-.18-.06-.25-.05l-.05.01c-.37.05-.56.48-.54 1.28 0 .9-.05 1.5-.16 1.83-.21.53-.53.82-.97.88l-.17.02c-.52.07-.99-.25-1.44-.96-.16-.32-.26-.62-.3-.91z" fill="#509dff"/></g><g><path d="m10.54 39.05c0 .14-.26.3-.75.48l-1.69.64-.04 1.36c1.52.6 2.27.93 2.27.99.07.05.1.13.1.23-.05.23-.18.35-.39.34-.08 0-1.7-.68-4.87-2.03-.08-.03-.12-.13-.11-.3 0-.09.04-.17.12-.23.11-.09.91-.41 2.41-.95l2.6-.94c.24.01.36.15.35.41zm-3.17 1.39-.97.36.95.41z" fill="#509dff"/></g><g><path d="m10.78 37.64c-.03.16-.24.29-.63.37-2.97.67-4.54 1.01-4.71 1.02-.23-.08-.33-.22-.3-.42.02-.15.26-.27.7-.37l3.61-.8-3.21-1.84c-.39-.23-.58-.41-.56-.56.03-.2.17-.3.41-.31.15.06 1.55.85 4.19 2.37.36.2.52.38.5.54z" fill="#509dff"/></g><g><path d="m12.55 31.21-1.21 3.5c-.09.25-.26.33-.52.24l-4.35-1.51c-.26-.09-.36-.23-.29-.43l1.25-3.6c.07-.21.22-.27.44-.19s.3.22.22.44l-1.11 3.2 1.56.54.49-1.43c.08-.22.23-.28.46-.2.2.07.27.21.22.44l-.49 1.43 1.54.53 1.11-3.2c.07-.22.24-.28.49-.19.2.07.26.21.19.43z" fill="#509dff"/></g><g><path d="m14.22 28.08c-.12.21-.29.25-.49.12l-4.01-2.4c-.23-.14-.28-.31-.15-.51.12-.21.3-.24.52-.11l3.96 2.37c.24.15.29.32.17.53z" fill="#509dff"/></g><g><path d="m15.95 25.53c-.15.19-.32.21-.53.05l-3.43-2.64-.93 1.21c-.13.17-.29.19-.48.04-.19-.14-.21-.3-.08-.47l2.32-3.02c.12-.15.27-.16.46-.02s.22.29.1.45l-.95 1.24 3.43 2.63c.21.16.24.34.09.53z" fill="#509dff"/></g><g><path d="m17.26 22.48c-.17.17-.34.17-.51.01l-2.66-2.59c-.16-.16-.16-.33.01-.5.16-.17.33-.17.49-.01l2.66 2.59c.17.16.17.33.01.5zm.72.71c-.17.17-.34.17-.52 0-.16-.16-.16-.33.01-.5s.34-.17.51-.01.17.33 0 .51z" fill="#509dff"/></g></g><g><path d="m48.83 62.69h-23.63c-.04 0-.08-.01-.12-.03-2.88-1.64-5.35-3.81-7.36-6.46-3.2-4.22-4.88-9.26-4.88-14.56 0-6.87 2.94-13.43 8.07-18.01.36-.32.56-.77.56-1.23v-1.9c0-.13.11-.24.24-.24h30.59c.13 0 .24.11.24.24v1.91c0 .46.21.91.56 1.22 2.64 2.36 4.76 5.33 6.14 8.57.43 1 .79 2.04 1.08 3.09.04.13-.04.26-.17.3-.13.03-.26-.04-.3-.17-.28-1.03-.64-2.04-1.05-3.02-1.35-3.18-3.43-6.08-6.01-8.4-.46-.41-.73-.99-.73-1.59v-1.67h-30.1v1.66c0 .6-.26 1.18-.73 1.6-5.03 4.49-7.91 10.92-7.91 17.65 0 5.19 1.65 10.13 4.79 14.26 1.95 2.58 4.36 4.7 7.15 6.3h23.48c1.92-1.1 3.67-2.45 5.21-4.04.09-.1.25-.1.35 0 .1.09.1.25 0 .35-1.58 1.62-3.37 3-5.33 4.12-.03.03-.09.05-.14.05z"/></g><g><path d="m48.83 62.44c0 1-5.29 1.8-11.81 1.8-6.53 0-11.82-.8-11.82-1.79s5.29-1.79 11.82-1.79c6.5-.01 11.78.79 11.81 1.78z" fill="#c6c4c4"/></g><g><path d="m31.43 64.27c-.01 0-.01 0-.02 0-2.95-.24-6.46-.75-6.46-1.83 0-1.61 7.89-2.04 12.06-2.04 4.15 0 12.02.42 12.05 2.03 0 1.06-3.34 1.57-6.14 1.81-.13.01-.25-.09-.26-.22s.09-.25.22-.26c4.65-.41 5.69-1.1 5.69-1.31-.01-.54-3.99-1.55-11.57-1.55-7.6 0-11.57 1.01-11.57 1.55 0 .28 1.47.97 6.01 1.34.13.01.23.13.22.26 0 .13-.1.22-.23.22z"/></g><g><path d="m53.44 14.86v4.56c0 2.85-7.43 5.17-16.6 5.17-2.34 0-4.56-.15-6.57-.42-1.98-.27-3.76-.64-5.25-1.12-.06-.02-.12-.04-.18-.06-2.82-.92-4.56-2.16-4.6-3.53v-4.6c0 .05 0 .1.01.16.07.76.67 1.48 1.69 2.12.76.48 1.76.92 2.94 1.31h.01c3.01.98 7.25 1.58 11.95 1.58 6.54 0 12.18-1.17 14.89-2.89 1.09-.68 1.71-1.46 1.71-2.28z" fill="#f26636"/></g><g><path d="m24.88 18.44c-.07.14-.16.26-.29.35-.39.29-.94.21-1.41.12-.48-.1-1-.21-1.43.03-.21.12-.38.33-.6.44-.27.16-.61.16-.91.07v-4.44h.01c.07.76.67 1.48 1.69 2.12.77.49 1.76.93 2.94 1.31z" fill="#ea552d"/></g><g><path d="m26.93 21.55c-.73 0-1.46-.3-1.95-.85l-.11-.13c-.14-.17-.28-.32-.42-.34-.17-.02-.35.12-.54.27l-.13.1c-.61.47-1.43.63-2.19.45-.6-.15-1.13-.52-1.49-1.03-.08-.11-.05-.26.06-.34s.26-.05.34.06c.29.41.73.71 1.21.83.61.15 1.28.01 1.77-.36l.12-.09c.24-.19.53-.42.9-.37.34.05.55.29.73.51l.1.12c.57.64 1.55.87 2.34.54.61-.25 1.1-.85 1.23-1.53.03-.13.16-.22.29-.19s.22.16.19.29c-.17.83-.77 1.57-1.53 1.88-.28.12-.6.18-.92.18z" fill="#ea552d"/></g><g><path d="m53.44 18.43v.99c0 2.85-7.43 5.17-16.6 5.17-2.34 0-4.56-.15-6.57-.42.76-.1 1.51-.3 2.21-.62.97-.44 1.89-1.09 2.96-1.15 1.61-.08 3.07 1.22 4.67 1.02 1.73-.21 2.95-2.14 4.69-2.16.76-.01 1.56.35 2.25.03.76-.36.98-1.39 1.73-1.79.61-.33 1.37-.11 2.06-.08.95.04 1.89-.35 2.6-.99z" fill="#ea552d"/></g><g><path d="m44.12 24.31c-.12 0-.22-.09-.24-.21-.02-.13.07-.26.2-.28 5.54-.84 9.12-2.57 9.12-4.41v-3.23c-.31.41-.76.8-1.34 1.16-2.85 1.81-8.6 2.93-15.02 2.93-6.41 0-12.17-1.12-15.02-2.93-.58-.36-1.02-.75-1.32-1.15v3.23c0 1.2 1.61 2.42 4.43 3.34l.18.06c.96.3 2.05.57 3.23.79.13.02.22.15.2.28s-.15.22-.28.2c-1.21-.23-2.32-.5-3.3-.81l-.18-.06c-3.13-1.02-4.78-2.33-4.78-3.8v-4.56c0-.13.11-.24.24-.24s.24.11.24.24c0 .7.55 1.42 1.58 2.07 2.78 1.76 8.44 2.85 14.76 2.85 6.33 0 11.99-1.09 14.76-2.85.73-.45 1.6-1.18 1.6-2.07 0-.13.11-.24.24-.24s.24.11.24.24v4.56c0 2.12-3.65 3.99-9.53 4.89.01 0 0 0-.01 0z"/></g><g><path d="m53.44 14.86c0 .82-.62 1.6-1.71 2.28-2.71 1.71-8.36 2.89-14.89 2.89s-12.18-1.17-14.89-2.89c-1.09-.69-1.71-1.47-1.71-2.28 0-2.85 7.43-5.16 16.6-5.16 9.17-.01 16.6 2.31 16.6 5.16z" fill="#ff7a43"/></g><g><path d="m36.84 20.27c-6.41 0-12.17-1.12-15.02-2.92-1.21-.76-1.82-1.6-1.82-2.48 0-1.69 2.21-3.19 6.22-4.22.13-.03.26.04.3.18.03.13-.05.26-.18.3-3.66.94-5.85 2.34-5.85 3.75 0 .7.55 1.42 1.59 2.07 2.78 1.76 8.44 2.85 14.76 2.85s11.98-1.09 14.76-2.85c.73-.45 1.6-1.18 1.6-2.07 0-1.25-1.72-2.5-4.71-3.42-.13-.04-.2-.18-.16-.31s.18-.2.31-.16c3.26 1.01 5.05 2.39 5.05 3.89 0 .88-.63 1.74-1.83 2.49-2.85 1.78-8.61 2.9-15.02 2.9z"/></g><g><path d="m50.44 14.86c0 .53-.51 1.03-1.4 1.48-2.22 1.11-6.84 1.87-12.19 1.87s-9.97-.76-12.19-1.87c-.9-.45-1.4-.95-1.4-1.48 0-1.85 6.09-3.35 13.59-3.35s13.59 1.5 13.59 3.35z" fill="#ea552d"/></g><g><path d="m45.04 14.86c0 .16-.31.31-.84.44-.12.03-.26.06-.4.09-1.05.2-2.68.35-4.61.42-.75.03-1.53.04-2.34.04-.59 0-1.17-.01-1.73-.02-1.84-.05-3.45-.17-4.6-.34-.4-.05-.74-.12-1.02-.18-.54-.13-.84-.28-.84-.44 0-.18.4-.34 1.11-.49.67-.14 1.62-.26 2.75-.34h.01c.11-.01.23-.01.34-.02.59-.04 1.22-.07 1.88-.09.32-.01.63-.02.96-.02.37-.01.75-.01 1.14-.01 1.81 0 3.49.07 4.84.19 1.19.1 2.15.25 2.73.41.39.09.62.22.62.36z" fill="#1d2856"/></g><g><g><circle cx="37.45" cy="47.69" fill="#fcb910" r="7.71"/></g><g><circle cx="37.45" cy="47.69" fill="#ffcd3b" r="5.45"/></g><g><path d="m37.77 53.13c-.11.01-.23.01-.35.01-3.01-.01-5.44-2.46-5.43-5.48.01-3.01 2.46-5.44 5.47-5.43.12 0 .23.01.35.01-2.85.16-5.13 2.52-5.14 5.42 0 2.91 2.25 5.29 5.1 5.47z" fill="#efa707"/></g><g><g><path d="m37.97 50.77v.94h-1.09v-.94c-.92-.18-1.51-.77-1.51-1.54v-.23l1.23-.1v.24c0 .47.31.75.82.76.51 0 .82-.24.82-.61 0-.45-.55-.84-1.2-1.25-.77-.49-1.54-1.07-1.54-1.89 0-.8.51-1.37 1.4-1.53v-.94h1.09v.94c.89.16 1.41.73 1.41 1.55v.17l-1.23.1v-.18c0-.5-.25-.75-.7-.76-.45 0-.7.21-.7.61 0 .45.56.83 1.2 1.25.76.5 1.54 1.07 1.54 1.89 0 .77-.61 1.35-1.54 1.52z" fill="#fcb910"/></g></g></g><g><g><path d="m44.48 14.34c-.02.04-.05.09-.08.13-.18.32-.39.62-.61.91-1.05.2-2.68.35-4.61.42-.75.03-1.53.04-2.34.04-.59 0-1.17-.01-1.73-.02-1.84-.05-3.45-.17-4.6-.34-.29-.35-.54-.73-.75-1.11-1.41-2.5-1.52-5.65-.01-8.33 2.29-4.07 7.46-5.51 11.52-3.22 4.07 2.29 5.5 7.45 3.21 11.52z" fill="#fcb910"/></g><g><path d="m42.33 13.13c-.19.34-.41.65-.65.94-.68.8-1.55 1.38-2.49 1.74-.75.03-1.53.04-2.34.04-.59 0-1.17-.01-1.73-.02-.21-.07-.41-.15-.61-.24-.01-.01-.01-.01-.02-.01-.1-.05-.21-.1-.32-.16-.48-.27-.92-.61-1.29-.99-.13-.12-.25-.26-.36-.4h-.01c-1.47-1.76-1.83-4.26-.8-6.42.05-.12.12-.24.18-.36.34-.61.78-1.14 1.27-1.57.3-.26.62-.49.96-.69.12-.07.23-.12.34-.18.23-.11.48-.21.73-.29 1.55-.52 3.31-.41 4.85.46.11.06.21.12.32.19l.01.01c2.64 1.7 3.52 5.18 1.96 7.95z" fill="#ffcd3b"/></g><g><path d="m34.5 15.58c-.11-.06-.22-.11-.34-.17-2.88-1.62-3.9-5.27-2.27-8.16 1.62-2.88 5.27-3.9 8.15-2.27.11.06.22.13.32.2-2.82-1.37-6.27-.33-7.83 2.44-1.55 2.77-.66 6.25 1.97 7.96z" fill="#efa707"/></g><g><g><path d="m39.28 7.53.51-.89-1.04-.59-.51.89c-.93-.32-1.73-.04-2.15.72-.44.78-.01 1.75.46 2.64.4.75.73 1.41.48 1.85-.21.36-.63.42-1.12.15-.48-.28-.63-.72-.38-1.16l.13-.23-1.23-.57-.12.22c-.42.74-.17 1.62.62 2.29l-.51.89.32.18.72.4.24-.42.26-.47c.98.34 1.88.1 2.29-.64.44-.78 0-1.75-.46-2.63-.39-.75-.73-1.42-.48-1.85.22-.39.57-.45 1-.21.42.24.53.62.26 1.1l-.1.18 1.24.56.09-.15c.44-.8.25-1.63-.52-2.26z" fill="#fcb910"/></g></g></g><g><g><circle cx="28.61" cy="54.51" fill="#fcb910" r="7.71"/></g><g><circle cx="28.61" cy="54.51" fill="#ffcd3b" r="5.45"/></g><g><path d="m30.71 59.55c-.11.04-.21.09-.32.12-2.84.98-5.95-.53-6.93-3.38-.98-2.84.53-5.95 3.38-6.93.11-.04.22-.07.33-.1-2.64 1.09-4.01 4.08-3.06 6.81.94 2.74 3.85 4.24 6.6 3.48z" fill="#efa707"/></g><g><g><path d="m30.12 57.25.31.88-1.03.35-.31-.88c-.93.13-1.68-.23-1.93-.96l-.07-.22 1.13-.5.08.23c.15.44.54.61 1.02.44s.7-.49.58-.85c-.15-.43-.8-.61-1.55-.79-.89-.21-1.81-.5-2.08-1.28-.26-.76.03-1.46.81-1.9l-.31-.89 1.03-.35.31.89c.9-.14 1.57.22 1.84 1l.05.16-1.13.5-.06-.17c-.16-.47-.49-.63-.91-.48s-.59.43-.46.81c.15.43.81.6 1.55.79.88.22 1.81.5 2.08 1.28.26.72-.12 1.48-.95 1.94z" fill="#fcb910"/></g></g></g><g><g><circle cx="44.03" cy="55.4" fill="#fcb910" r="7.71"/></g><g><circle cx="44.03" cy="55.4" fill="#ffcd3b" r="5.45"/></g><g><path d="m41.68 60.32c-.1-.05-.2-.1-.31-.16-2.63-1.46-3.57-4.79-2.11-7.42s4.79-3.57 7.42-2.11c.1.06.2.12.3.18-2.58-1.24-5.71-.27-7.12 2.26s-.59 5.71 1.82 7.25z" fill="#efa707"/></g><g><g><path d="m43 58.34-.46.82-.95-.53.46-.82c-.72-.6-.95-1.4-.57-2.08l.11-.2 1.13.51-.12.21c-.23.41-.09.81.35 1.06s.83.19 1.02-.14c.22-.39-.08-1-.45-1.68-.44-.8-.83-1.68-.43-2.4.39-.7 1.11-.95 1.96-.66l.46-.82.95.53-.46.83c.71.57.88 1.32.48 2.04l-.08.14-1.13-.51.09-.16c.24-.43.14-.78-.25-1s-.71-.16-.91.2c-.22.39.09 1 .45 1.68.42.8.83 1.68.43 2.4-.37.67-1.18.89-2.08.58z" fill="#fcb910"/></g></g></g><g><path d="m24.31 8.76c-.04 0-.07-.01-.11-.02-1.17-.56-2.47-.89-3.76-.95-.13-.01-.24-.12-.23-.26s.12-.24.26-.23c1.36.06 2.73.41 3.95 1 .12.06.17.2.11.33-.04.08-.13.13-.22.13z"/></g><g><path d="m23.34 6.53c-.05 0-.09-.01-.14-.04l-1.98-1.33c-.11-.08-.14-.23-.07-.34s.23-.14.34-.07l1.98 1.33c.11.08.14.23.07.34-.04.07-.12.11-.2.11z"/></g><g><path d="m25.48 7.2c-.06 0-.13-.02-.17-.07-.76-.77-1.25-1.83-1.34-2.91-.01-.13.09-.25.22-.26s.25.09.26.22c.08.97.52 1.92 1.2 2.61.09.1.09.25 0 .35-.04.04-.1.06-.17.06z"/></g><g opacity=".3"><path d="m60.88 41.55c0 8.86-4.85 16.57-12.03 20.66v.01c0 .99-5.25 1.78-11.73 1.78s-11.74-.79-11.74-1.78c-2.82-1.61-5.28-3.78-7.23-6.35 1.16 1.13 2.42 2.14 3.9 2.79 2.4 1.06 5.55.88 7.26-1.11 1.4-1.64 1.65-4.24 3.48-5.38 1.65-1.03 3.79-.39 5.64.23 1.85.61 4.08 1.11 5.59-.12 1.27-1.03 1.49-2.85 1.68-4.48s.6-3.47 2.03-4.27c1.75-.98 4.33.05 5.72-1.39 1.94-2.03-1.15-5.83.54-8.08 1.09-1.45 3.08-1.04 4.77-1.7 1.22 2.85 2.12 5.9 2.12 9.19z" fill="#d8d6d6"/></g><g><path d="m46.77 48.13c-.44 0-.85.21-1.14.56s-.47.82-.47 1.35c0-1.05-.72-1.91-1.61-1.91.44 0 .85-.21 1.14-.56s.47-.82.47-1.35c0 .53.18 1 .47 1.35s.7.56 1.14.56z" fill="#fff"/></g><g><path d="m48.79 18.67c-.44 0-.85.21-1.14.56s-.47.82-.47 1.35c0-1.05-.72-1.91-1.61-1.91.44 0 .85-.21 1.14-.56s.47-.82.47-1.35c0 .53.18 1 .47 1.35.29.34.7.56 1.14.56z" fill="#fff"/></g><g><path d="m33.61 7.54c-.44 0-.85.21-1.14.56-.29.34-.47.82-.47 1.34 0-1.05-.72-1.91-1.61-1.91.44 0 .85-.21 1.14-.56.29-.34.47-.81.47-1.34 0 .53.18 1 .47 1.35.29.34.69.56 1.14.56z" fill="#fff"/></g><g><path d="m46.98 45.53c-.22 0-.42.1-.56.27s-.23.4-.23.66c0-.51-.35-.93-.79-.93.22 0 .41-.1.56-.27.14-.17.23-.4.23-.66 0 .26.09.49.23.66.15.17.35.27.56.27z" fill="#fff"/></g><g><g><path d="m15.68 41.77c.48 0 .81 1.59 1.18 3.43.35 1.84.78 3.33.37 3.58-.2.11-.6-.15-1.01-.73-.41-.57-.82-1.47-1.02-2.51-.42-2.09.03-3.78.48-3.77z" fill="#fff"/></g><g><path d="m15.82 38.56c.21.02.32.53.28 1.14s-.22 1.1-.42 1.1c-.21 0-.36-.52-.32-1.15.04-.62.26-1.11.46-1.09z" fill="#fff"/></g></g></g></svg>