<?xml version="1.0" encoding="UTF-8"?>
<!-- Generator: Adobe Illustrator 27.0.0, SVG Export Plug-In . SVG Version: 6.00 Build 0)  -->
<svg xmlns="http://www.w3.org/2000/svg" xmlns:xlink="http://www.w3.org/1999/xlink" version="1.1" id="Capa_1" x="0px" y="0px" viewBox="0 0 512 512" style="enable-background:new 0 0 512 512;" xml:space="preserve" width="512" height="512">
<g>
	<g>
		<polygon style="fill:#FFCA93;" points="503.176,216.771 475.914,407.535 46.409,407.535 15.69,224.127 135.848,214.314     128.977,102.499 392.832,99.556 387.918,209.901   "/>
		<polygon style="fill:#FFB200;" points="40.292,371.011 46.409,407.535 475.914,407.535 481.102,371.241   "/>
		<polygon style="fill:#FFB200;" points="398.223,113.289 127.51,114.76 116.23,84.353 404.598,84.353   "/>
		<polygon style="fill:#FFB200;" points="141.242,204.997 0,204.997 10.3,234.912 142.355,225.48   "/>
		<polygon style="fill:#FFB200;" points="382.039,204.997 382.039,222.161 507.586,234.912 512,204.997   "/>
	</g>
	<path style="fill:#FFB200;" d="M298.668,158.161c0,18.283-17.512,33.104-39.111,33.104c-21.602,0-39.112-14.821-39.112-33.104   c0-18.282,17.51-33.103,39.112-33.103C281.156,125.058,298.668,139.879,298.668,158.161z"/>
	<path style="fill:#FFFFFF;" d="M292.293,158.161c0,15.303-14.656,27.709-32.736,27.709c-18.082,0-32.738-12.406-32.738-27.709   c0-15.303,14.656-27.707,32.738-27.707C277.637,130.454,292.293,142.859,292.293,158.161z"/>
	
		<rect x="344.215" y="117.547" transform="matrix(0.9993 -0.0387 0.0387 0.9993 -5.947 13.5037)" style="fill:#FFCA93;" width="2.942" height="85.51"/>
	<g>
		<polygon style="fill:#7BB4D0;" points="40.216,266.79 167.724,262.866 163.311,345.992 52.721,345.992   "/>
		
			<rect x="40.179" y="305.165" transform="matrix(0.9994 -0.0339 0.0339 0.9994 -10.3217 3.7605)" style="fill:#FFCA93;" width="131.383" height="2.941"/>
		
			<rect x="80.307" y="258.624" transform="matrix(0.9984 -0.057 0.057 0.9984 -17.1796 5.1537)" style="fill:#FFCA93;" width="2.942" height="90.384"/>
		
			<rect x="125.732" y="249.608" transform="matrix(0.9997 -0.0259 0.0259 0.9997 -7.7153 3.398)" style="fill:#FFCA93;" width="2.943" height="99.343"/>
		<path style="fill:#DD7A39;" d="M169.135,351.386H45.798l-12.66-92.421l139.922-1.758L169.135,351.386z M48.364,348.444h117.948    l3.677-88.256l-133.485,1.677L48.364,348.444z"/>
	</g>
	<g>
		<polygon style="fill:#2E65DC;" points="307.738,385.472 199.602,388.169 188.567,258.698 320.246,251.342   "/>
		<polygon style="fill:#7BB4D0;" points="199.847,267.525 307.738,260.415 304.307,324.414 202.3,321.717   "/>
		<polygon style="fill:#2E65DC;" points="245.456,260.415 263.846,258.698 262.621,331.524 246.683,331.524   "/>
		<path style="fill:#2E65DC;" d="M315.332,243.341l-122.885,6.284c0,0,9.038-40.852,57.032-41.442    C297.469,207.594,315.332,243.341,315.332,243.341z"/>
		
			<rect x="252.691" y="251.338" transform="matrix(0.9999 -0.0111 0.0111 0.9999 -3.506 2.8371)" style="fill:#FFCA93;" width="2.942" height="132.666"/>
		<path style="fill:#2E65DC;" d="M301.541,321.226h-37.488l1.551-57.133h38.652L301.541,321.226z M267.076,318.284h31.66    l2.434-51.249h-32.703L267.076,318.284z"/>
		<path style="fill:#2E65DC;" d="M245.264,321.325l-41.68-2.641l-2.078-47.817l41.936-4.484L245.264,321.325z M206.409,315.915    l35.806,2.269l-1.609-48.538l-36.04,3.854L206.409,315.915z"/>
		<polygon style="fill:#FFB200;" points="203.036,334.468 248.643,329.809 248.643,338.391 203.036,339.618   "/>
		<polygon style="fill:#FFB200;" points="263.846,337.656 262.621,331.524 306.023,331.524 306.023,336.429   "/>
		<path style="fill:#2E65DC;" d="M194.956,389.434l-15.24-138.222l0.081-0.279c0.138-0.477,14.437-47.628,71.457-50.961    c57.072-3.359,75.584,44.977,75.765,45.465l0.117,0.317L312.998,388.46l-2.928-0.289l14.07-142.014    c-1.639-4.017-20.201-46.323-72.712-43.247c-52.695,3.08-67.503,44.836-68.721,48.579l15.173,137.623L194.956,389.434z"/>
		<g>
			<path style="fill:#FFFFFF;" d="M229.686,236.178c-0.373,0.789-0.875,1.469-1.508,2.041c-0.633,0.572-1.378,1.014-2.236,1.326     c-0.858,0.312-1.781,0.468-2.769,0.468c-0.693,0-1.387-0.186-2.079-0.559c-0.694-0.373-1.361-0.966-2.003-1.781l1.924-3.77     c0.121,0.226,0.303,0.455,0.546,0.689c0.243,0.234,0.516,0.438,0.819,0.611c0.303,0.173,0.606,0.316,0.91,0.429     c0.303,0.113,0.576,0.169,0.819,0.169c0.208,0,0.425-0.034,0.65-0.104c0.225-0.069,0.433-0.173,0.624-0.312     c0.191-0.138,0.342-0.299,0.455-0.481c0.113-0.182,0.169-0.394,0.169-0.637c0-0.416-0.134-0.802-0.403-1.157     c-0.269-0.355-0.602-0.693-1.001-1.014c-0.399-0.321-0.832-0.646-1.3-0.975c-0.468-0.329-0.897-0.676-1.287-1.04     c-0.39-0.364-0.724-0.771-1.001-1.222c-0.277-0.45-0.416-0.953-0.416-1.508c0-0.901,0.269-1.742,0.806-2.522     c0.537-0.78,1.209-1.452,2.015-2.015c0.806-0.563,1.686-1.009,2.639-1.339c0.953-0.329,1.854-0.494,2.704-0.494     c0.468,0,0.91,0.057,1.326,0.169c0.416,0.113,0.776,0.295,1.079,0.546c0.303,0.251,0.546,0.568,0.728,0.949     c0.182,0.381,0.273,0.858,0.273,1.43c0,0.243-0.022,0.485-0.065,0.728c-0.043,0.243-0.082,0.503-0.117,0.78l-3.77,1.092     c0.035-0.138,0.065-0.277,0.091-0.416c0.026-0.138,0.039-0.277,0.039-0.416c0-0.52-0.091-0.897-0.273-1.131     c-0.182-0.234-0.421-0.351-0.715-0.351c-0.139,0-0.308,0.052-0.507,0.156c-0.2,0.104-0.399,0.238-0.598,0.403     c-0.199,0.165-0.368,0.36-0.507,0.585c-0.139,0.226-0.208,0.468-0.208,0.728c0,0.416,0.117,0.763,0.351,1.04     c0.234,0.277,0.524,0.538,0.871,0.78c0.346,0.243,0.723,0.49,1.131,0.741c0.407,0.251,0.784,0.577,1.131,0.975     c0.347,0.399,0.637,0.897,0.871,1.495c0.234,0.598,0.351,1.357,0.351,2.275C230.246,234.51,230.059,235.39,229.686,236.178z"/>
			<path style="fill:#FFFFFF;" d="M239.618,236.855c-0.511,0.702-1.049,1.292-1.612,1.768c-0.563,0.477-1.131,0.828-1.703,1.053     c-0.572,0.226-1.127,0.338-1.664,0.338c-0.538,0-1.027-0.121-1.469-0.364c-0.442-0.243-0.828-0.606-1.157-1.092     c-0.33-0.485-0.594-1.083-0.793-1.794c-0.2-0.711-0.299-1.543-0.299-2.496c0-1.629,0.225-3.237,0.676-4.823     c0.451-1.586,1.083-3.011,1.898-4.277c0.814-1.265,1.781-2.284,2.899-3.055c1.118-0.771,2.353-1.157,3.705-1.157     c0.416,0,0.814,0.087,1.196,0.26c0.381,0.174,0.711,0.416,0.988,0.728c0.277,0.312,0.498,0.694,0.663,1.144     c0.165,0.451,0.247,0.954,0.247,1.508c0,0.104,0,0.212,0,0.325c0,0.113-0.009,0.23-0.026,0.351l-3.406,0.91     c-0.208-0.433-0.451-0.65-0.728-0.65c-0.277,0-0.568,0.16-0.871,0.481c-0.303,0.321-0.602,0.737-0.897,1.247     c-0.295,0.512-0.581,1.083-0.858,1.716c-0.277,0.633-0.52,1.27-0.728,1.911c-0.208,0.641-0.377,1.252-0.507,1.833     c-0.13,0.581-0.195,1.053-0.195,1.417c0,0.555,0.074,0.945,0.221,1.17c0.147,0.225,0.342,0.338,0.585,0.338     c0.19,0,0.407-0.074,0.65-0.221c0.243-0.147,0.468-0.338,0.676-0.572c0.208-0.234,0.398-0.498,0.572-0.793     c0.173-0.294,0.294-0.589,0.364-0.884l2.964,1.196C240.593,235.325,240.129,236.153,239.618,236.855z"/>
			<path style="fill:#FFFFFF;" d="M240.879,240.013c0.485-2.426,0.953-4.792,1.404-7.098c0.173-0.988,0.355-2.015,0.546-3.081     c0.19-1.066,0.368-2.119,0.533-3.159c0.165-1.04,0.321-2.049,0.468-3.029c0.147-0.979,0.264-1.868,0.351-2.665     c0.399,0.018,0.767,0.039,1.105,0.065c0.338,0.026,0.672,0.048,1.001,0.065c0.329,0.018,0.663,0.031,1.001,0.039     c0.338,0.009,0.706,0.013,1.105,0.013c-0.295,1.231-0.585,2.461-0.871,3.692c-0.286,1.231-0.551,2.47-0.793,3.718l2.574-0.286     c0.243-1.231,0.459-2.422,0.65-3.575c0.191-1.152,0.442-2.344,0.754-3.575c0.398-0.069,0.84-0.126,1.326-0.169     c0.485-0.043,0.936-0.083,1.352-0.117c0.416-0.035,0.91-0.078,1.482-0.13c-0.243,0.78-0.472,1.634-0.689,2.561     c-0.217,0.927-0.429,1.889-0.637,2.886c-0.208,0.997-0.408,2.006-0.598,3.029c-0.191,1.023-0.364,1.994-0.52,2.912     c-0.381,2.202-0.737,4.455-1.066,6.76l-4.056,0.468c0.225-1.04,0.425-2.054,0.598-3.042c0.173-0.832,0.351-1.698,0.533-2.6     c0.182-0.901,0.325-1.672,0.429-2.314l-2.522,0.234c-0.122,0.659-0.265,1.422-0.429,2.288c-0.165,0.867-0.316,1.69-0.455,2.47     c-0.191,0.936-0.382,1.872-0.572,2.808L240.879,240.013z"/>
			<path style="fill:#FFFFFF;" d="M266.242,229.913c-0.305,1.257-0.707,2.409-1.209,3.458c-0.504,1.049-1.088,1.985-1.756,2.808     c-0.667,0.824-1.365,1.526-2.093,2.106c-0.728,0.581-1.465,1.022-2.21,1.326c-0.746,0.304-1.456,0.455-2.132,0.455     c-0.572,0-1.092-0.108-1.56-0.325c-0.468-0.216-0.876-0.537-1.222-0.962c-0.347-0.424-0.62-0.97-0.819-1.638     c-0.199-0.668-0.299-1.469-0.299-2.405c0-0.97,0.121-1.993,0.364-3.068c0.243-1.075,0.572-2.141,0.988-3.198     s0.927-2.063,1.534-3.016c0.607-0.953,1.274-1.798,2.001-2.535c0.729-0.736,1.509-1.321,2.341-1.755     c0.831-0.433,1.698-0.65,2.6-0.65c0.78,0,1.426,0.16,1.937,0.481c0.512,0.321,0.91,0.737,1.197,1.248     c0.285,0.511,0.488,1.088,0.61,1.729c0.121,0.641,0.183,1.283,0.183,1.924C266.697,227.317,266.545,228.656,266.242,229.913z      M256.921,234.657c0.069,0.208,0.165,0.39,0.286,0.546c0.121,0.156,0.272,0.29,0.455,0.403c0.182,0.113,0.377,0.169,0.584,0.169     c0.781,0,1.474-0.269,2.08-0.806c0.607-0.537,1.109-1.196,1.508-1.976c0.399-0.78,0.707-1.612,0.924-2.496     c0.217-0.884,0.324-1.69,0.324-2.418c0-0.208-0.012-0.433-0.039-0.676c-0.025-0.242-0.077-0.468-0.155-0.676     c-0.078-0.208-0.2-0.386-0.364-0.533c-0.164-0.147-0.386-0.221-0.662-0.221c-0.556,0-1.066,0.139-1.535,0.416     c-0.467,0.277-0.889,0.646-1.26,1.105c-0.373,0.46-0.699,0.98-0.976,1.56c-0.278,0.581-0.517,1.17-0.716,1.768     c-0.199,0.598-0.342,1.183-0.428,1.755c-0.087,0.572-0.13,1.066-0.13,1.482C256.817,234.251,256.851,234.449,256.921,234.657z"/>
			<path style="fill:#FFFFFF;" d="M279.06,229.913c-0.304,1.257-0.706,2.409-1.209,3.458s-1.088,1.985-1.755,2.808     c-0.668,0.824-1.365,1.526-2.094,2.106c-0.728,0.581-1.465,1.022-2.209,1.326c-0.746,0.304-1.457,0.455-2.133,0.455     c-0.572,0-1.092-0.108-1.56-0.325c-0.468-0.216-0.876-0.537-1.222-0.962c-0.348-0.424-0.62-0.97-0.819-1.638     c-0.199-0.668-0.299-1.469-0.299-2.405c0-0.97,0.121-1.993,0.364-3.068c0.242-1.075,0.572-2.141,0.988-3.198     c0.416-1.057,0.926-2.063,1.533-3.016c0.606-0.953,1.273-1.798,2.002-2.535c0.729-0.736,1.508-1.321,2.34-1.755     c0.832-0.433,1.699-0.65,2.6-0.65c0.781,0,1.426,0.16,1.938,0.481c0.512,0.321,0.91,0.737,1.196,1.248     c0.286,0.511,0.489,1.088,0.61,1.729c0.121,0.641,0.183,1.283,0.183,1.924C279.515,227.317,279.363,228.656,279.06,229.913z      M269.738,234.657c0.069,0.208,0.165,0.39,0.286,0.546c0.121,0.156,0.272,0.29,0.455,0.403c0.183,0.113,0.377,0.169,0.585,0.169     c0.78,0,1.473-0.269,2.08-0.806c0.607-0.537,1.109-1.196,1.508-1.976c0.398-0.78,0.706-1.612,0.924-2.496     c0.216-0.884,0.324-1.69,0.324-2.418c0-0.208-0.013-0.433-0.039-0.676c-0.025-0.242-0.078-0.468-0.156-0.676     c-0.078-0.208-0.199-0.386-0.363-0.533c-0.165-0.147-0.387-0.221-0.663-0.221c-0.556,0-1.066,0.139-1.534,0.416     c-0.468,0.277-0.889,0.646-1.261,1.105c-0.373,0.46-0.698,0.98-0.976,1.56c-0.277,0.581-0.516,1.17-0.715,1.768     c-0.199,0.598-0.342,1.183-0.429,1.755c-0.087,0.572-0.13,1.066-0.13,1.482C269.635,234.251,269.669,234.449,269.738,234.657z"/>
			<path style="fill:#FFFFFF;" d="M283.246,239.182c-0.599,0.035-1.201,0.087-1.808,0.156c-0.606,0.069-1.2,0.161-1.781,0.273     c-0.581,0.113-1.104,0.247-1.573,0.403c0.104-0.78,0.226-1.646,0.364-2.6c0.139-0.953,0.3-1.941,0.482-2.964     c0.182-1.022,0.363-2.054,0.546-3.094c0.182-1.04,0.368-2.037,0.56-2.99c0.432-2.271,0.892-4.585,1.377-6.942l4.551-0.598     c-0.469,2.011-0.92,3.969-1.353,5.876c-0.19,0.815-0.382,1.66-0.571,2.535c-0.191,0.875-0.373,1.729-0.547,2.561     c-0.174,0.832-0.329,1.638-0.468,2.418c-0.14,0.78-0.251,1.474-0.338,2.08c0.433-0.035,0.898-0.056,1.392-0.065     c0.493-0.009,0.931-0.013,1.312-0.013c0.018,0.33,0.043,0.655,0.078,0.975c0.034,0.321,0.073,0.611,0.117,0.871     c0.043,0.26,0.078,0.49,0.104,0.689c0.025,0.199,0.047,0.334,0.064,0.403c-0.139,0-0.272-0.004-0.402-0.013     c-0.131-0.009-0.265-0.013-0.403-0.013C284.411,239.13,283.844,239.147,283.246,239.182z"/>
		</g>
	</g>
	<polygon style="fill:#594343;" points="257.227,132.66 261.639,162.57 263.846,161.779 263.846,132.66  "/>
	<polygon style="fill:#594343;" points="240.061,168.215 243.74,175.571 259.557,164.536 259.432,162.57  "/>
	<path style="fill:#594343;" d="M268.26,163.433c0,2.099-2.99,3.801-6.682,3.801c-3.689,0-6.681-1.702-6.681-3.801   s2.992-3.801,6.681-3.801C265.269,159.633,268.26,161.335,268.26,163.433z"/>
	<rect x="229.763" y="159.628" style="fill:#594343;" width="11.524" height="5.884"/>
	
		<rect x="279.662" y="156.159" transform="matrix(0.0639 -0.998 0.998 0.0639 103.4326 433.1511)" style="fill:#594343;" width="5.885" height="10.566"/>
	
		<rect x="256.491" y="175.695" transform="matrix(0.1142 -0.9935 0.9935 0.1142 53.779 417.5888)" style="fill:#594343;" width="9.132" height="5.885"/>
	
		<rect x="233.318" y="147.401" transform="matrix(0.2524 -0.9676 0.9676 0.2524 30.0769 339.5598)" style="fill:#594343;" width="2.942" height="5.828"/>
	
		<rect x="239.816" y="138.332" transform="matrix(0.7401 -0.6725 0.6725 0.7401 -32.7654 199.1829)" style="fill:#594343;" width="2.942" height="7.291"/>
	
		<rect x="272.808" y="140.016" transform="matrix(0.7427 -0.6696 0.6696 0.7427 -23.7054 221.2763)" style="fill:#594343;" width="6.598" height="2.943"/>
	
		<rect x="277.114" y="147.493" transform="matrix(0.9486 -0.3166 0.3166 0.9486 -32.6858 96.7355)" style="fill:#594343;" width="8.53" height="2.943"/>
	
		<rect x="246.633" y="177.656" transform="matrix(0.6079 -0.794 0.794 0.6079 -44.4964 268.1461)" style="fill:#594343;" width="5.247" height="2.942"/>
	
		<rect x="271.325" y="172.989" transform="matrix(0.9548 -0.2971 0.2971 0.9548 -39.9364 88.9922)" style="fill:#594343;" width="2.943" height="5.778"/>
	
		<rect x="277.885" y="168.358" transform="matrix(0.7793 -0.6266 0.6266 0.7793 -45.8723 212.9124)" style="fill:#594343;" width="2.941" height="6.456"/>
	<g>
		<polygon style="fill:#7BB4D0;" points="356.045,343.785 350.16,256.491 474.728,256.491 462.467,345.992   "/>
		
			<rect x="408.399" y="237.869" transform="matrix(0.0367 -0.9993 0.9993 0.0367 88.6973 704.6746)" style="fill:#FFCA93;" width="2.942" height="136.92"/>
		
			<rect x="383.938" y="245.938" transform="matrix(0.9998 -0.0181 0.0181 0.9998 -5.3128 7.0336)" style="fill:#FFCA93;" width="2.943" height="101.411"/>
		<rect x="430.834" y="245.947" style="fill:#FFCA93;" width="2.943" height="101.395"/>
		<path style="fill:#DD7A39;" d="M467.906,351.415l-119.111-2.633l-7.33-96.663l141.342-4.015L467.906,351.415z M351.525,345.9    l113.842,2.516l14.027-97.27l-134.762,3.828L351.525,345.9z"/>
	</g>
	<g>
		<polygon style="fill:#7BB4D0;" points="148.844,126.284 151.295,196.905 199.847,198.131 202.054,124.077   "/>
		
			<rect x="145.742" y="158.161" transform="matrix(0.9988 -0.0494 0.0494 0.9988 -7.6761 8.8768)" style="fill:#FFCA93;" width="59.782" height="2.944"/>
		
			<rect x="172.444" y="122.106" transform="matrix(0.9997 -0.0232 0.0232 0.9997 -3.7036 4.0752)" style="fill:#FFCA93;" width="2.943" height="79.346"/>
		<path style="fill:#DD7A39;" d="M206.958,204.542l-60.752-1.835l-3.558-82.061h64.309V204.542z M149.027,199.848l54.989,1.661    v-77.922h-58.294L149.027,199.848z"/>
	</g>
	<g>
		<polygon style="fill:#7BB4D0;" points="321.227,124.077 374.928,122.116 370.023,203.026 325.394,203.026   "/>
		
			<rect x="344.644" y="116.138" transform="matrix(0.0715 -0.9974 0.9974 0.0715 169.6073 486.5067)" style="fill:#FFCA93;" width="2.943" height="72.032"/>
		<path style="fill:#DD7A39;" d="M374.852,209.646H319.85l-6.088-91.944h65.904L374.852,209.646z M322.603,206.704h49.457    l4.504-86.06h-59.66L322.603,206.704z"/>
	</g>
	<g>
		<g>
			<polygon style="fill:#FFCA93;" points="311.912,378.11 310.072,427.647 200.568,427.647 196.419,381.303    "/>
			
				<rect x="198.332" y="388.965" transform="matrix(0.9992 -0.0392 0.0392 0.9992 -15.0906 10.3565)" style="fill:#DD7A39;" width="117.045" height="2.942"/>
			
				<rect x="252.322" y="349.725" transform="matrix(0.0148 -0.9999 0.9999 0.0148 -153.5939 651.4708)" style="fill:#DD7A39;" width="2.942" height="107.904"/>
			
				<rect x="253.425" y="363.034" transform="matrix(0.007 -1 1 0.007 -162.7468 667.87)" style="fill:#DD7A39;" width="2.942" height="105.687"/>
		</g>
		<g>
			<path style="fill:#DD7A39;" d="M203.036,354.208c0,4.536-6.039,8.214-13.488,8.214c-7.448,0-13.486-3.678-13.486-8.214     c0-4.537,6.038-8.215,13.486-8.215C196.997,345.992,203.036,349.671,203.036,354.208z"/>
			<polygon style="fill:#DD7A39;" points="207.498,427.647 191.711,427.647 178.513,368.547 204.747,365.369    "/>
			
				<rect x="183.524" y="371.233" transform="matrix(0.9851 -0.1721 0.1721 0.9851 -61.2649 38.7519)" style="fill:#FFCA93;" width="18.67" height="2.942"/>
			
				<rect x="186.32" y="378.603" transform="matrix(0.9586 -0.2848 0.2848 0.9586 -100.2407 70.7687)" style="fill:#FFCA93;" width="13.812" height="2.942"/>
		</g>
		<g>
			<path style="fill:#DD7A39;" d="M329.685,352.368c0,4.536-6.039,8.214-13.488,8.214c-7.447,0-13.484-3.678-13.484-8.214     c0-4.537,6.037-8.215,13.484-8.215C323.646,344.154,329.685,347.832,329.685,352.368z"/>
			<polygon style="fill:#DD7A39;" points="330.303,365.369 317.945,427.647 302.291,427.647 303.82,364.134    "/>
			<rect x="307.738" y="376.639" style="fill:#FFCA93;" width="14.223" height="2.942"/>
			
				<rect x="315.218" y="362.029" transform="matrix(0.1745 -0.9847 0.9847 0.1745 -103.9993 618.1859)" style="fill:#FFCA93;" width="2.943" height="18.178"/>
		</g>
	</g>
</g>















</svg>
