<svg id="Layer_1" enable-background="new 0 0 68 68" height="512" viewBox="0 0 68 68" width="512" xmlns="http://www.w3.org/2000/svg"><g><g><g><g><path d="m9.34333 4.52384-5.44232 5.69999-1.2985-7.7731z" fill="#f9b938"/></g></g><g><g><path d="m17.75439 6.55156-5.01541 6.00976-1.85425-7.60479z" fill="#fc6559"/></g></g><g><g><path d="m26.86716 8.23903-4.68296 6.24999-2.26227-7.47494z" fill="#7979f7"/></g></g><g><g><path d="m35.80894 9.00622-4.23294 6.1805-2.77653-6.95756z" fill="#00d67f"/></g></g><g><g><path d="m45.38041 9.36501-3.80431 6.71688-3.24221-7.00546z" fill="#f9b938"/></g></g><g><g><path d="m55.14692 8.7755-3.13518 6.81273-3.90531-6.40238z" fill="#fc6559"/></g></g><g><g><path d="m53.81874 10.42672c-.19601.66623-.47684 1.29344-.75117 1.92369-.3.61839-.59317 1.23993-.97247 1.82181.19523-.66658.47661-1.29356.75117-1.92369.30023-.61828.59393-1.23952.97247-1.82181z" fill="#e24b40"/></g></g><g><g><path d="m50.53308 12.03113c-.25977-.28833-.43634-.61908-.61929-.9466-.15779-.3403-.32227-.67726-.40228-1.05721.26052.28795.43657.61895.61932.94655.15755.34049.3215.67764.40225 1.05726z" fill="#ff7b7b"/></g></g><g><g><path d="m43.85134 10.46703c-.19602.66629-.47685 1.2935-.75118 1.92368-.29998.61839-.59316 1.23993-.97246 1.82181.19523-.66658.47661-1.29356.75117-1.92369.30021-.61827.59392-1.23951.97247-1.8218z" fill="#e5a320"/></g></g><g><g><path d="m40.56569 12.07144c-.25977-.28833-.43634-.61908-.61931-.9466-.15779-.3403-.32226-.67726-.40228-1.05721.26052.28795.43658.61895.61932.94655.15755.34049.32152.67764.40227 1.05726z" fill="#ffce78"/></g></g><g><g><path d="m34.41084 9.81684c-.29886.62687-.67532 1.20181-1.04583 1.78076-.39398.56319-.78173 1.13056-1.24824 1.64514.29815-.62733.6751-1.20192 1.04581-1.78071.39421-.56307.78243-1.13009 1.24826-1.64519z" fill="#00af68"/></g></g><g><g><path d="m30.95855 11.38427c-.25976-.28833-.43634-.61908-.61929-.9466-.15779-.3403-.32227-.67726-.40228-1.05721.26052.28795.43657.61895.61931.94654.15756.3405.32151.67765.40226 1.05727z" fill="#20ed95"/></g></g><g><g><path d="m25.43737 8.71934c-.29889.62693-.67534 1.20181-1.04585 1.78076-.39398.56319-.78173 1.13056-1.24824 1.64514.29815-.62733.6751-1.20192 1.04582-1.7807.39421-.56308.78244-1.1301 1.24827-1.6452z" fill="#5e5eef"/></g></g><g><g><path d="m21.61612 10.24282c-.19963-.33281-.30952-.69127-.42628-1.04777-.08957-.36432-.18639-.72652-.19205-1.11478.20047.33257.30977.6912.42628 1.04777.08937.36433.18559.72671.19205 1.11478z" fill="#a2a2f9"/></g></g><g><g><g><path d="m15.89923 6.46663c-4.60305-1.02163-9.1643-2.28869-13.65003-3.79712-.17889-.0602-.275-.25378-.2148-.43267.05973-.179.24633-.28543.43267-.2148 17.21174 5.78847 35.54369 8.00488 53.01435 6.40705.18724-.017.35366.12143.37101.30924.0169.18771-.12143.35365-.30924.37101-13.00987 1.18941-26.49473.27569-39.64396-2.64271z" fill="#474646"/></g></g></g><g><g><path d="m16.08989 7.32944c-.32624.61305-.72771 1.17079-1.1234 1.73281-.41846.54525-.83087 1.09495-1.31965 1.58848.32557-.61356.7275-1.17096 1.12341-1.73286.41865-.54509.83155-1.09444 1.31964-1.58843z" fill="#e24b40"/></g></g><g><g><path d="m12.54834 8.23881c-.19633-.33476-.30264-.69431-.41585-1.05198-.08597-.36516-.17918-.72827-.18098-1.1166.19717.33452.30289.69425.41586 1.05193.08573.36523.17835.72857.18097 1.11665z" fill="#ff7b7b"/></g></g><g><g><path d="m7.77536 5.17922c-.39264.57282-.85386 1.08229-1.3098 1.59659-.47671.49511-.94791.99535-1.48872 1.43123.39202-.57338.85367-1.08245 1.3098-1.59659.47689-.49495.94853-.99479 1.48872-1.43123z" fill="#e5a320"/></g></g><g><g><path d="m3.76384 6.09042c-.14551-.35977-.19836-.73101-.2583-1.10131-.03191-.37379-.07128-.7466-.01652-1.13109.14635.35972.1986.731.2583 1.10131.03165.37384.07042.74677.01652 1.13109z" fill="#ffce78"/></g></g></g><g><g><path d="m54.56949 59.88538c.49546 1.23102 2.27952 1.63147 3.37046.85999.55183-.36841.94911-.97821 1.05282-1.63361.1337-.84479-.29881-1.29801-.86789-1.26929-.63573-.00562-1.04504.68591-.89764 1.30969.2182 1.08656 1.79648 1.65556 3.31263.53925 1.30619-.96091 3.53003-3.79322 2.46105-5.29718-.36301-.5401-1.21616-.70154-1.62713-.16559-.45284.49164-.29224 1.3103.22701 1.7301.90504.76753 2.58273.45381 3.48303-1.06433.73067-1.23041.61827-2.78058.26239-4.15564-.01616-.0625.02136-.12622.08381-.14233.06222-.01611.12582.02148.14227.08356.37029 1.39764.51799 3.00989-.25879 4.35034-.97764 1.673-2.84336 2.03584-3.90666 1.15753-.65851-.555-.83825-1.50895-.27414-2.16479.56536-.70176 1.61229-.54214 2.13846.17572.48389.67419.42338 1.55811.15306 2.25482-.49264 1.26398-1.586 2.74289-2.65801 3.54736-1.73025 1.29002-3.63247.64098-3.94655-.76184-.19714-.93358.39152-1.80534 1.28572-1.82965.84348-.06427 1.49392.64206 1.33228 1.7702-.12055.78876-.57953 1.50397-1.23661 1.95245-1.30838.92163-3.41634.51324-4.09432-1.05737-.05473-.12677.00369-.27393.13047-.32867.12678-.05469.27393.00372.32865.13049.00066.00152.003.00726.00363.00879z" fill="#fc6559"/></g></g><g><g><path d="m56.02501 6.62115.82345-1.69842-1.21521-1.11924 1.87675.16429s.8299-1.3044 1.08675-1.96778c.12027.74521.20072 2.08223.20072 2.08223l1.93497.26148-1.70142.8912.03767 2.07551-1.18748-1.59211z" fill="#f9b938"/></g></g><g><g><g><g><path d="m42.36592 56.74631c2.9987-.0123 5.98511-.0246 8.97152-.0369 5.5427-.02453 10.00389-4.57176 9.90555-10.11446-.04913-2.45795-.12294-4.95281-.2089-7.4599h-18.66817z" fill="#c2c2ef"/></g></g><g><g><path d="m61.11024 37.43928c.07759 2.17379-.47131 4.35682-1.72516 6.13424-.35971.50991-.76062.9911-1.19908 1.43694-1.36314 1.38301-3.10489 2.4358-4.97093 2.99521-.78681.23587-1.35237.8754-1.57059 1.66729-.49392 1.79236-1.65668 3.39853-3.05679 4.64079-1.75212 1.56595-4.01669 2.435-6.3666 2.44164-7.14857.02018-14.30857.03864-21.42055.11466-1.33962.0123-2.43335-1.0446-2.48256-2.37192-.1843-6.32926-.55298-23.19079-.34408-32.43272.03683-1.31501 1.10604-2.37192 2.42105-2.40875 12.69535-.27041 24.96052-.27041 37.66817-.11064 1.31501.0246 2.38422 1.0692 2.43335 2.38422.18384 4.92938.42465 10.21056.61377 15.50904z" fill="#e4e3ff"/></g></g><g><g><path d="m19.37919 47.00684c-.13477 0-.24609-.10742-.25-.24268-.0874-3.0083-.29053-11.89893-.17871-16.84814.00342-.1377.125-.23779.25586-.24414.1377.00342.24707.11768.24414.25586-.11182 4.93799.09131 13.81738.17871 16.82178.00391.13818-.10449.25342-.24268.25732-.00243 0-.00487 0-.00732 0z" fill="#fff"/></g></g><g><g><g><g><path d="m35.42021 38.24756c-4.66748 0-9.33301-.09424-13.97949-.2832-.1377-.00586-.24512-.12207-.23975-.26025.00586-.1377.12158-.23242.26025-.23975 11.75097.47803 23.63672.35059 35.3252-.38086.12842-.01855.25635.09619.26514.23389s-.09619.25635-.23389.26514c-7.08399.44286-14.24219.66503-21.39746.66503z" fill="#c2c2ef"/></g></g><g><g><path d="m35.41777 31.83984c-4.66601 0-9.33154-.09424-13.97705-.2832-.1377-.00586-.24512-.12207-.23975-.26025.00586-.1377.12158-.23387.26025-.23975 11.75342.479 23.63867.34961 35.3252-.38135.12842-.01318.25635.09619.26514.23389s-.09619.25635-.23389.26514c-7.08447.44336-14.24268.66552-21.3999.66552z" fill="#c2c2ef"/></g></g><g><g><path d="m35.42021 44.65527c-4.66748 0-9.33301-.09424-13.97949-.2832-.1377-.00586-.24512-.12207-.23975-.26025.00586-.1377.12158-.23047.26025-.23975 11.75146.47852 23.63672.3501 35.3252-.38086.12842-.01123.25635.0957.26514.23389.00879.1377-.09619.25635-.23389.26514-7.08399.44287-14.24219.66503-21.39746.66503z" fill="#c2c2ef"/></g></g><g><g><path d="m35.42021 51.06299c-4.66748 0-9.33301-.09424-13.97949-.2832-.1377-.00586-.24512-.12207-.23975-.26025.00586-.1377.12158-.22852.26025-.23975 11.75097.479 23.63672.3501 35.3252-.38086.12842-.01611.25635.09619.26514.23389s-.09619.25635-.23389.26514c-7.08399.44286-14.24219.66503-21.39746.66503z" fill="#c2c2ef"/></g></g></g><g><g><g><path d="m53.21513 53.16943c-1.49072-8.16016-1.75244-16.45947-.77734-24.6665.01563-.13721.14258-.23828.27734-.21875.13721.01611.23535.14063.21875.27734-.96875 8.1582-.7085 16.40723.77344 24.51807.059.32804-.43266.41658-.49219.08984z" fill="#c2c2ef"/></g></g><g><g><path d="m39.28154 53.37451c-.11816 0-.22363-.08447-.24561-.20508-1.49072-8.16016-1.75244-16.45947-.77734-24.6665.01563-.13721.14209-.23828.27734-.21875.13721.01611.23535.14063.21875.27734-.96875 8.1582-.7085 16.40723.77344 24.51807.02441.13574-.06543.26611-.20117.29102-.01514.00244-.03028.0039-.04541.0039z" fill="#c2c2ef"/></g></g><g><g><path d="m26.91679 53.37451c-.11816 0-.22363-.08447-.24561-.20508-1.49121-8.16016-1.75293-16.45947-.77734-24.6665.01611-.1377.15234-.23242.27734-.21875.13721.01611.23535.14063.21875.27734-.96924 8.1582-.70898 16.40723.77344 24.51807.02441.13574-.06543.26611-.20117.29102-.01513.00244-.03027.0039-.04541.0039z" fill="#c2c2ef"/></g></g></g></g><g><g><path d="m48.58454 54.31288c-1.7452 1.56083-4.01878 2.43343-6.36609 2.44573-7.14035.01223-14.30531.03683-21.42113.11057 2.35969-.52845 4.73161-.79879 7.09122-.99547 2.37192-.1966 4.73161-.30724 7.10352-.30724 2.35962-.0123 4.73153.06143 7.10345.23351 2.15071.19659 4.38745-.29495 6.48903-1.4871z" fill="#d0d0f7"/></g></g><g><g><path d="m61.10781 37.43905c.08604 2.17532-.46701 4.36285-1.7206 6.13258-.35638.51622-.76196.99547-1.20437 1.43796.43011-.95864.99547-1.7452 1.25351-2.66693.30724-.88483.47932-1.79426.55305-2.70376.06143-.93396.06143-1.74513-.06144-2.7529-.08604-.99547-.14747-1.99094-.18438-2.9864-.08596-1.97863-.06143-3.96957.03691-5.97281.09834-1.99094.28264-3.99417.71283-5.99741.18431 4.9282.43012 10.21279.61449 15.50967z" fill="#d0d0f7"/></g></g><g><g><path d="m41.16093 34.49512c-.0127.03857-.01904.0708-.01904.09668-.63363 3.59192-.93909 6.80409-.73535 10.81543-.02588.16748-.12891.3125-.30957.43506-.73628.49948-2.22667.58787-2.95068.08691-.18701-.12842-.30615-.29639-.35791-.50293-.10303-.43848-.16406-.97021-.18359-1.59619-.06016-1.92673.18795-4.29673.45459-6.20068-.21926.18319-.59984.35846-1.06396.58984-.16797.08447-.30957.13574-.42578.15479-.11621.01953-.21631-.00293-.2998-.06738-.08398-.06445-.1709-.18701-.26123-.36768-.09033-.19336-.20996-.48047-.35791-.86084-.14844-.38037-.26123-.75146-.33838-1.11279-.09956-.47458-.0343-.94173.41602-1.3252.63234-.5382 2.57778-1.15229 3.93701-2.33154.18018-.12842.40625-.1416.67725-.03857.57429.21976 1.10424.67725 1.47998 1.16113.19971.25781.31934.47705.35791.65771v.15479c-.00003.1289-.00686.21288-.01956.25146z" fill="#7979f7"/></g></g><g><g><path d="m60.70588 27.20486v.03691c-14.39127.28263-28.3648.28263-42.79298.11056v-.0123c0-1.9172.0246-3.69923.06143-5.27228.03691-1.31501 1.10611-2.37192 2.42112-2.40882 12.69535-.27034 24.96052-.27034 37.66817-.11057 1.31494.02453 2.38422 1.0692 2.43335 2.38422.06144 1.72052.13518 3.47794.20891 5.27228z" fill="#fc6559"/></g></g><g><g><path d="m46.83818 26.72119c-2.90381 0-5.9209-.01953-9.12354-.05762-.13818-.00146-.24854-.11475-.24707-.25293.00098-.13867.08887-.24756.25293-.24707 7.62451.09082 14.19873.07471 20.68945-.05322.13818.00342.25146.10742.25488.24512.00244.13818-.10693.25195-.24512.25488-3.76952.07422-7.56737.11084-11.58153.11084z" fill="#e24b40"/></g></g><g><g><path d="m30.97929 20.7998c-2.89893 0-5.91064-.01904-9.10889-.05713-.13818-.00146-.24854-.11475-.24707-.25293.00098-.13867.09814-.24756.25293-.24707 7.62988.09033 14.20361.07324 20.68994-.05371h.00488c.13574 0 .24707.10889.25.24512.00244.13818-.10693.25195-.24512.25488-3.77196.07422-7.5747.11084-11.59667.11084z" fill="#ff7b7b"/></g></g><g><g><path d="m23.59669 23.54924c-.00993-.49089.15233-.98338.49943-1.32242.39346-.38431 1.01025-.63468 1.63504-.61032s1.23203.34626 1.4392.81273c.30486.68648-.06483 1.54152-.43571 2.12661-.40992.64669-1.23453.86219-1.95579.67309-.7585-.19887-1.16716-.93745-1.18217-1.67969z" fill="#474646"/></g></g><g><g><path d="m32.84313 23.54924c-.00993-.49089.15233-.98338.49944-1.32242.39346-.38431 1.01025-.63468 1.63504-.61032s1.23203.34626 1.4392.81273c.30486.68648-.06483 1.54152-.43571 2.12661-.40992.64669-1.23453.86219-1.9558.67309-.7585-.19887-1.16716-.93745-1.18217-1.67969z" fill="#474646"/></g></g><g><g><path d="m42.08958 23.54924c-.00993-.49089.15232-.98338.49943-1.32242.39346-.38431 1.01025-.63468 1.63504-.61032s1.23203.34626 1.4392.81273c.30486.68648-.06483 1.54152-.43571 2.12661-.40992.64669-1.23453.86219-1.9558.67309-.7585-.19887-1.16715-.93745-1.18216-1.67969z" fill="#474646"/></g></g><g><g><path d="m51.33603 23.54924c-.00993-.49089.15233-.98338.49943-1.32242.39346-.38431 1.01025-.63468 1.63504-.61032s1.23203.34626 1.4392.81273c.30486.68648-.06483 1.54152-.43571 2.12661-.40992.64669-1.23453.86219-1.95579.67309-.75851-.19887-1.16716-.93745-1.18217-1.67969z" fill="#474646"/></g></g><g><g><path d="m37.59062 43.8623c-.06885 0-.12451-.05566-.125-.12451-.01367-2.7041.21436-5.40723.67725-8.03369.01221-.06836.07031-.11816.14453-.10156.06836.01172.11377.07666.10156.14453-.46045 2.6123-.68701 5.30029-.67334 7.98975.00049.06885-.05518.125-.12451.12549h-.00049z" fill="#a2a2f9"/></g></g><g><g><g><g><path d="m53.07204 24.31319c-.40926 0-.78251-.27424-.89113-.6883-.54188-2.0715-.48487-4.52525.15962-6.90999.13202-.49207.64149-.78311 1.13056-.64929.49147.13322.78191.63909.6493 1.13056-.56228 2.0793-.61809 4.197-.15602 5.96186.12902.49267-.16622.99614-.65829 1.12516-.07862.0204-.15663.03-.23404.03z" fill="#e4e3ff"/></g></g></g><g><g><g><path d="m52.4428 22.40188c-.07943 0-.14816-.05846-.15842-.13923-.17939-1.39364-.12317-2.92472.16288-4.42813.01651-.08702.09684-.14325.18698-.12718.08657.01651.14369.09996.12718.18698-.2798 1.47084-.33513 2.96711-.1602 4.32728.0116.08791-.05043.16779-.13789.17895-.00714.00088-.01384.00133-.02053.00133z" fill="#fff"/></g></g></g></g><g><g><g><g><path d="m43.90267 24.31319c-.40926 0-.78251-.27424-.89113-.6883-.54188-2.0715-.48487-4.52525.15962-6.90999.13202-.49207.64149-.78311 1.13056-.64929.49147.13322.78191.63909.6493 1.13056-.56228 2.0793-.61809 4.197-.15602 5.96186.12902.49267-.16622.99614-.65829 1.12516-.07862.0204-.15663.03-.23404.03z" fill="#e4e3ff"/></g></g></g><g><g><g><path d="m43.27371 22.40188c-.07943 0-.14816-.05846-.15842-.13923-.17984-1.39364-.12361-2.92472.16288-4.42813.01696-.08702.09951-.14325.18698-.12718.08657.01651.14369.10041.12718.18698-.28025 1.47084-.33558 2.96711-.16021 4.32728.0116.08746-.05043.16779-.13789.17895-.00713.00088-.01383.00133-.02052.00133z" fill="#fff"/></g></g></g></g><g><g><g><g><path d="m34.7333 24.31319c-.40926 0-.78251-.27424-.89113-.6883-.54188-2.0715-.48487-4.52525.15962-6.90999.13202-.49207.64149-.78311 1.13056-.64929.49147.13322.78191.63909.6493 1.13056-.56228 2.0793-.61809 4.197-.15602 5.96186.12902.49267-.16623.99614-.6583 1.12516-.07861.0204-.15662.03-.23403.03z" fill="#e4e3ff"/></g></g></g><g><g><g><path d="m34.10418 22.40188c-.07943 0-.14816-.05846-.15842-.13923-.17984-1.39498-.12317-2.92606.16288-4.42813.01651-.08702.09862-.14325.18698-.12718.08657.01651.14369.10041.12718.18698-.2798 1.4695-.33513 2.96577-.16021 4.32728.0116.08791-.05042.16779-.13789.17895-.00714.00088-.01383.00133-.02052.00133z" fill="#fff"/></g></g></g></g><g><g><g><g><path d="m25.56393 24.31319c-.40926 0-.78251-.27424-.89113-.6883-.54188-2.0715-.48487-4.52525.15962-6.90999.13202-.49207.64149-.78311 1.13056-.64929.49147.13322.78191.63909.64929 1.13056-.56228 2.0793-.61809 4.197-.15602 5.96186.12902.49267-.16622.99614-.65829 1.12516-.07861.0204-.15662.03-.23403.03z" fill="#e4e3ff"/></g></g></g><g><g><g><path d="m24.93509 22.40188c-.07943 0-.14816-.05846-.15842-.13923-.17984-1.39319-.12361-2.92427.16243-4.42813.01651-.08702.09773-.14325.18698-.12718.08657.01651.14369.09996.12718.18698-.2798 1.47128-.33469 2.96756-.15976 4.32728.0116.08746-.05043.16779-.13789.17895-.00714.00088-.01383.00133-.02052.00133z" fill="#fff"/></g></g></g></g></g><g><g><path d="m42.4395 52.23965.73639-1.51887-1.08674-1.00092 1.67834.14693s.74216-1.1665.97186-1.75975c.10756.66642.1795 1.8621.1795 1.8621l1.73041.23383-1.52155.79699.03369 1.85609-1.06194-1.42379z" fill="#fc6559"/></g></g><g><g><path d="m26.02341 33.34946.73639-1.51887-1.08674-1.00092 1.67834.14693s.74216-1.1665.97186-1.75975c.10756.66642.1795 1.8621.1795 1.8621l1.73041.23384-1.52155.79699.03369 1.85609-1.06194-1.42379z" fill="#fc6559"/></g></g><g><g><path d="m46.80357 37.94958 1.11174-2.29304-1.64065-1.51109 2.5338.22182s1.12045-1.76107 1.46722-2.6567c.16238 1.0061.271 2.81122.271 2.81122l2.6124.35302-2.29708 1.20321.05086 2.80215-1.60321-2.14951z" fill="#fc6559"/></g></g><g><g><path d="m49.21367 35.05029c-.00342 0-.00684 0-.01025-.00049l-1.66406-.13818c-.06885-.00586-.12012-.06592-.11426-.13477.00537-.06885.06982-.12158.13477-.11426l1.57422.13086c.21484-.49023.51025-.93506.87939-1.32373.04736-.0498.12646-.05273.17676-.00488s.05225.12695.00488.17676c-.36914.38916-.66064.83691-.86621 1.33154-.01905.04688-.06495.07715-.11524.07715z" fill="#ff7b7b"/></g></g></g><g><g><g><path d="m22.16989 64.35011c6.39357-.78636 10.97093-5.69292 11.97746-11.49392.96643-5.56992-1.55973-11.47487-6.01696-14.75147-4.65761-3.42389-10.76759-3.75572-15.80202-1.359-6.21711 2.95992-9.29924 10.96017-6.65841 17.70495 1.54611 3.94884 4.73223 7.04445 8.47666 8.68601 2.55192 1.11878 5.33217 1.5444 8.02327 1.21343z" fill="#f9b938"/></g></g><g><g><path d="m5.69218 49.18311c-.07959-.00732-.15137-.06885-.1499-.15234.07471-4.86865 2.97607-9.49756 7.21924-11.51709.07715-.03662.16455-.00391.19971.0708.03564.07471.00391.16406-.0708.19971-4.14258 1.97217-6.9751 6.49365-7.04834 11.25146-.00098.08203-.06788.14746-.14991.14746z" fill="#ffce78"/></g></g><g><g><path d="m23.34453 36.93945c-2.3374-.69971-4.85889-.78369-7.29004-.24365-.08643.0166-.16113-.0332-.1792-.11377-.01807-.08105.0332-.16113.11377-.1792 2.48389-.55029 5.05518-.46338 7.44141.24951.07959.02344.12451.10742.10059.18652-.02455.08159-.11065.12415-.18653.10059z" fill="#ffce78"/></g></g><g><g><path d="m7.86406 45.47412c-.01514 0-.03076-.00244-.04639-.00732-.07861-.02539-.12158-.10986-.09619-.18896.64697-2.00098 1.78809-3.75732 3.2998-5.07861.06201-.0542.15674-.04883.21143.01416.05469.0625.04834.15723-.01416.21143-1.4707 1.28564-2.58154 2.99609-3.21191 4.9458-.02051.06346-.07911.1035-.14258.1035z" fill="#ffce78"/></g></g><g><g><path d="m21.58608 61.14442c4.97864-.61233 8.543-4.43304 9.32678-8.95026.75256-4.33727-1.21455-8.93542-4.68538-11.48689-3.62686-2.66616-8.38467-2.92456-12.30495-1.05824-4.84123 2.30487-7.24127 8.53462-5.18487 13.78675 1.20395 3.07494 3.68496 5.48548 6.60073 6.76375 1.98718.87119 4.15214 1.20262 6.24769.94489z" fill="#fff"/></g></g><g><g><g><g><path d="m19.67853 50.062c-.01184.00705-.02539.01366-.03904.01888-.13214.051-.28075-.015-.33175-.14714l-2.4866-6.44568c-.05068-.1316.00953-.28259.14714-.33175.13214-.051.28075.015.33175.14714l2.4866 6.44568c.04578.11848-.00266.25008-.1081.31287z" fill="#f05543"/></g></g></g><g><g><g><path d="m16.39015 44.26052c.04025-.66803.16303-1.31166.36319-1.90399.29485.27466 1.14792 1.17083 1.29391 1.3577z" fill="#f05543"/></g></g></g></g><g><g><g><g><path d="m20.1403 49.41373.58083-4.87568c.01672-.14058-.08372-.2684-.22437-.28516-.14462-.02094-.26849.08438-.28527.2244l-.57379 4.81717c.17297.01717.33807.06397.5026.11927z" fill="#f05543"/></g></g></g><g><g><g><path d="m19.46925 44.9584c.34805-.57161.75763-1.08307 1.2116-1.51297.13214.38068.46695 1.57179.50856 1.80524z" fill="#f05543"/></g></g></g></g><g><g><path d="m19.90838 50.9676c.12108-.01489.23978-.0499.35114-.10602.28853-.14542.50348-.43883.56078-.76908.07358-.42407-.11875-.87365-.45811-1.12312-.35461-.26068-.8198-.28595-1.20311-.10347-.47334.22536-.70801.83447-.50694 1.34799.11772.30065.36029.53633.64538.66132.1943.08518.40598.11758.61086.09238z" fill="#7979f7"/></g></g><g><g><path d="m27.95312 42.27763c-.2385-.21426-.48701-.41337-.7482-.61005-3.54809-2.60511-8.19992-2.86115-12.03375-1.03068-4.73247 2.24356-7.08121 8.34217-5.07232 13.47404 1.1258 2.84904 3.34928 5.10184 5.99726 6.39487-.25379-.09355-.51007-.1997-.75386-.30839-2.91955-1.27847-5.39675-3.69018-6.60506-6.75826-2.05895-5.25264.34294-11.47937 5.18111-13.7831 3.92945-1.87548 8.68697-1.61427 12.31288 1.05388.62769.46396 1.20257.99079 1.72194 1.56769z" fill="#e4e3ff"/></g></g><g><g><path d="m14.61308 62.22852c-.07617-.0332-.11035-.12158-.07715-.19727s.12354-.11035.19727-.07715c2.3208 1.01709 4.82861 1.39844 7.26123 1.09814 5.83937-.71705 9.92994-5.21812 10.82715-10.39111.01416-.08154.09033-.13428.17383-.12207.08154.01416.13623.0918.12207.17383-.91816 5.29168-5.08722 9.89992-11.08691 10.63721-2.41072.29733-4.98454-.05487-7.41749-1.12158z" fill="#e5a320"/></g></g><g><g><g><path d="m29.94853 51.58936-2.29053-.47852c-.13525-.02832-.22168-.16064-.19336-.2959.02783-.13477.15674-.2251.2959-.19336l2.29053.47852c.13477.02832.22168.16064.19336.2959-.02861.1379-.16556.22232-.2959.19336z" fill="#7979f7"/></g></g><g><g><path d="m20.9124 41.86182c-.13379-.03369-.21484-.16943-.18164-.30371l.53467-2.12891c.03369-.1333.16797-.21338.30371-.18164.13379.03369.21484.16943.18164.30371l-.53467 2.12891c-.03302.12982-.16388.21493-.30371.18164z" fill="#7979f7"/></g></g><g><g><path d="m17.0789 59.854c-.13281-.0376-.20947-.17627-.17139-.30908l.68994-2.41455c.03711-.13281.17432-.21191.30908-.17139.13281.03809.20947.17627.17139.30908l-.68994 2.41455c-.03864.13586-.18131.20945-.30908.17139z" fill="#7979f7"/></g></g><g><g><path d="m11.90019 48.29199-2.50977-.6001c-.13428-.03223-.21729-.16699-.18506-.30127.03174-.13379.1665-.21875.30127-.18506l2.50977.6001c.13428.03223.21729.16699.18506.30127-.03296.13832-.17314.21709-.30127.18506z" fill="#7979f7"/></g></g><g><g><path d="m12.87529 44.64404-1.28564-.97168c-.05518-.0415-.06592-.11963-.02441-.1748.0415-.05615.12061-.06592.1748-.02441l1.28564.97168c.05518.0415.06592.11963.02441.1748-.04073.05458-.11929.06665-.1748.02441z" fill="#7979f7"/></g></g><g><g><path d="m15.66044 41.87012-.771-1.25c-.03613-.05859-.01807-.13574.04102-.17188.05908-.03516.13672-.01855.17188.04102l.771 1.25c.03613.05859.01807.13574-.04102.17188-.05827.03606-.13587.01824-.17188-.04102z" fill="#7979f7"/></g></g><g><g><path d="m24.94462 44.15381c-.05273-.04443-.05957-.12354-.01465-.17578.35986-.42529.78174-.79004 1.25293-1.0835.05859-.0376.13525-.01855.17188.04004s.01855.13525-.04004.17188c-.44873.28027-.85059.62744-1.19434 1.03271-.04326.05192-.1223.06033-.17578.01465z" fill="#7979f7"/></g></g><g><g><path d="m26.76933 47.75732c-.05859 0-.11084-.0415-.12256-.10107-.01318-.06787.03076-.1333.09863-.14648l1.88037-.36719c.06592-.01465.1333.03125.14648.09863.01318.06787-.03076.1333-.09863.14648l-1.88037.36719c-.00781.00147-.01611.00244-.02392.00244z" fill="#7979f7"/></g></g><g><g><path d="m27.41435 56.14014c-.47803-.40625-1.01416-.72656-1.59375-.95117-.06396-.0249-.09619-.09766-.07129-.16211s.09521-.0957.16211-.07129c.60547.23486 1.16553.56934 1.66504.99414.05273.04492.05908.12354.01416.17627-.04595.05315-.12451.05837-.17627.01416z" fill="#7979f7"/></g></g><g><g><path d="m23.3875 59.26318c-.05371 0-.10352-.03467-.11963-.08887-.16553-.54736-.49609-1.04541-.93115-1.40234-.05322-.04395-.06104-.12256-.01709-.17627.04443-.05225.12207-.06104.17627-.01709.47217.38818.83154.9292 1.01123 1.52344.02002.06592-.01758.13574-.0835.15576-.01221.00391-.02442.00537-.03613.00537z" fill="#7979f7"/></g></g><g><g><path d="m12.65703 56.46191c-.04395-.05322-.03662-.13184.0166-.17578l1.31006-1.08057c.0542-.04346.13232-.03564.17627.01709.04346.05322.03613.13232-.01709.17627l-1.31006 1.07959c-.0538.04483-.13278.03586-.17578-.0166z" fill="#7979f7"/></g></g><g><g><path d="m10.0164 52.5249c-.02344-.06494.01074-.13672.07568-.15967l1.53076-.54639c.06396-.02246.13672.01074.15967.07568.02344.06494-.01074.13672-.07568.15967l-1.53076.54639c-.06509.02325-.13679-.01075-.15967-.07568z" fill="#7979f7"/></g></g></g></g><g><g><path d="m31.73613 65.1792c-.66797-.65918-.74219-1.79688-.16504-2.53662.08447-.10938.2417-.12842.35107-.04346.10888.08496.12842.24219.04346.35107-.41895.53711-.36328 1.39453.12158 1.87256.48438.47754 1.34277.52246 1.87451.0957.39622-.31866.64132-.88053 1.03223-1.30566 1.4177-1.5406 4.16146-1.0582 5.32471 1.3335.06006.12451.0083.27393-.11572.33447-.12402.06104-.27344.0083-.33447-.11572-1.00883-2.07759-3.33758-2.48522-4.50635-1.21338-.38078.41356-.60208.96638-1.0874 1.35645-.73175.58708-1.87098.52961-2.53858-.12891z" fill="#7979f7"/></g></g><g><g><path d="m61.60065 65.35583.76956-1.58727-1.13568-1.04599 1.75393.15355s.77559-1.21903 1.01563-1.839c.1124.69644.18758 1.94596.18758 1.94596l1.80833.24436-1.59007.83288.03521 1.93968-1.10976-1.48791z" fill="#f9b938"/></g></g><g><g><path d="m41.87531 62.53131.76956-1.58727-1.13568-1.04599 1.75393.15355s.77559-1.21903 1.01563-1.839c.1124.69644.18759 1.94596.18759 1.94596l1.80833.24437-1.59007.83288.03521 1.93968-1.10976-1.48791z" fill="#f9b938"/></g></g><g><g><path d="m2.56272 34.082 1.18278-2.43958-1.7455-1.60765 2.69573.236s1.19205-1.87361 1.56098-2.82648c.17275 1.0704.28831 2.99087.28831 2.99087l2.77935.37558-2.44388 1.28011.05411 2.98122-1.70568-2.28687z" fill="#7979f7"/></g></g><g><g><path d="m56.99381 11.10162c.71609-.57306 1.59437-.95557 2.5105-1.05823.89834-.09583 1.87179.00244 2.70512.55164.85015.51733 1.31614 1.66241 1.07616 2.62183-.09625.48169-.34195.94366-.66944 1.29388-.34399.35248-.66828.61652-1.15241.83191-.23889.09308-.51991.16406-.83788.10626-.32236-.05151-.6087-.2757-.76431-.52283-.30738-.52252-.2988-1.07416-.0681-1.58813.24813-.51312.76626-.80756 1.22264-.91327.46832-.12219.95977-.11725 1.41288-.00592 1.85571.4566 2.99154 2.21814 3.24168 3.9212.13703.86438.10024 1.76447-.18798 2.61212-.28758.84448-.88389 1.61456-1.70518 2.02838-.81584.41498-1.8348.45288-2.65678-.04236-.40721-.24774-.72688-.68811-.79749-1.17694-.07141-.48254.04108-.97748.35315-1.37103.32248-.39954.84578-.56274 1.30417-.54315.46359.01965.90568.16632 1.287.39343.76706.45569 1.33107 1.16632 1.68411 1.95483.35596.79211.47794 1.67944.37082 2.53333-.10565.84875-.43015 1.70593-1.08119 2.31683-.06583.06177-.16927.05853-.23103-.00732-.0612-.06519-.05538-.17041.00867-.23236.56113-.54224.8544-1.3327.93693-2.1192.08578-.79187-.04166-1.60547-.37835-2.32098-.33262-.71466-.86443-1.35077-1.53575-1.73224-.64123-.37854-1.5603-.47229-1.98059.0686-.4269.54742-.28913 1.44867.34319 1.77991.61217.36072 1.46558.33643 2.10737-.01617.6609-.34711 1.14982-.98987 1.38229-1.71259.23524-.72913.25865-1.53528.12253-2.302-.24471-1.52582-1.2917-2.98059-2.7528-3.30316-.67583-.16376-1.53923.03467-1.76038.53595-.11514.23322-.09664.6134.03622.79779.13281.18738.2929.21069.60847.09155.60364-.29858 1.18548-.87585 1.28082-1.5282.13465-.67157-.14516-1.32867-.72562-1.68665-.56498-.37146-1.34865-.45721-2.08032-.36438-.73265.09473-1.42737.41187-1.99758.88306-.2126.17621-.52782.14673-.70406-.06586s-.14676-.52783.06584-.70404c.00132-.00115.00534-.00439.00668-.00549z" fill="#00d67f"/></g></g><g><g><path d="m63.36615 42.07489c.56951-1.52316.8454-3.54364.86127-5.19592.03897-1.64351-.18342-3.6706-.72771-5.21167 1.09005 1.48267 1.43887 3.40619 1.42722 5.22235-.04967 1.8164-.44795 3.72125-1.56078 5.18524z" fill="#7979f7"/></g></g><g><g><path d="m6.67376 65.85986c-.7993-.16522-1.66165-.33722-2.36574-.88885-.3466-.2793-.61969-.64874-.76863-1.07819-.15121-.42334-.14902-.93988.08659-1.35748.22694-.42114.61658-.70276 1.01102-.89136.39824-.18292.81945-.31342 1.27859-.33258.43248-.01801 1.00684.09521 1.29687.58643.29108.49445.09361 1.08594-.20152 1.43488-.62857.77313-1.68818.9118-2.54993.68658-.88805-.21948-1.65123-.90289-1.99976-1.7403-.36519-.82922-.39744-1.80035-.09918-2.65436.29361-.85535.85946-1.59161 1.56881-2.13232l.00507-.00391c.16477-.12561.40017-.09381.52576.07092.1256.16479.09384.40021-.07093.52582-.00389.00293-.00901.00665-.01297.0094-1.2377.86237-1.93734 2.5282-1.32946 3.93353.27466.69135.85106 1.23016 1.56653 1.42914.69194.20551 1.54798.08081 1.98705-.45673.2272-.26434.32028-.6076.17812-.85352-.13306-.25769-.48565-.37024-.85356-.3645-.71901.03345-1.57909.34631-1.93694.95386-.37073.61987-.02976 1.48358.54591 1.95605.5971.495 1.40713.69086 2.2023.87042.08188.01837.13338.09961.11503.18152-.01814.08095-.09812.13209-.17903.11555z" fill="#fc6559"/></g></g><g><g><path d="m11.71814 34.78491c.79586-.17712 1.61461-.36902 2.22954-.87347.59177-.48206.95643-1.37128.5686-2.03601-.38292-.6449-1.24953-.95782-1.99571-.99884-.98487-.02032-1.28401.72307-.74542 1.35193.8444 1.03471 3.03262.72731 3.71959-.98602.29589-.71167.31037-1.53009.04264-2.25348-.26367-.72675-.76921-1.36346-1.39545-1.8222-.11166-.08124-.13633-.23761-.0551-.34924.08123-.11169.23759-.13635.34925-.05511.0007.00049.00311.00232.00381.00281.69273.52429 1.24651 1.24072 1.53413 2.07031.29215.82788.26346 1.76849-.08788 2.57416-.79601 1.92511-3.33268 2.33223-4.38367 1.04022-.702-.82838-.26057-1.93615 1.02537-1.88739.78559.0295 1.83486.44812 2.23083 1.17889.45621.84399-.00323 1.83563-.65936 2.35571-.68626.54224-1.53989.7182-2.3385.8858-.05475.01147-.10844-.02356-.11994-.07831-.0114-.05433.02326-.10767.07727-.11976z" fill="#00d67f"/></g></g><g><g><path d="m6.34693 37.7287c-1.46695 2.76947-2.47762 5.84796-2.93578 9.06384-.20798-3.2417.14564-6.57593 1.07884-9.80664z" fill="#f9b938"/></g></g><g><g><g><g><path d="m9.58754 20.94374 1.30369 6.07837c.06562.30607.36693.5009.67301.43528.30607-.06562.50095-.36693.43533-.673-.02225-.10409-.06532-.1909-2.13308-5.92062-.02726-.07548-.11063-.11459-.18615-.08729-.06929.02502-.10791.09715-.0928.16726z" fill="#00d67f"/></g></g><g><g><path d="m8.65793 20.7308-1.21456 4.08366c-.08006.26908.07324.55207.34232.63214.26908.07998.55212-.07328.63214-.34236.02023-.06783.10193-.75284.55947-4.28139l.00308-.02378c.01167-.09055-.05223-.17343-.14282-.18514-.0816-.01049-.15699.04042-.17963.11687z" fill="#fc6559"/></g></g><g><g><path d="m8.542 20.0964c-2.02351.6686-4.09511 1.12027-6.17006 1.80877-.28449.09442-.43859.40155-.34417.68604.10315.31084.45584.46014.75162.31752 2.16817-1.04545 4.00728-1.71663 5.84554-2.61451.05333-.02607.07544-.09037.04937-.14366-.02388-.04887-.08205-.07081-.1323-.05416z" fill="#00d67f"/></g></g><g><g><path d="m7.86373 19.47052c-1.58369-.39098-3.04632-1.10538-4.52066-1.8278-.21509-.10534-.47492-.01647-.5803.19862-.11042.22546-.0091.50863.2471.60061 1.55101.54001 3.148 1.09341 4.80524 1.29449.07421.00907.14172-.04386.1507-.11811.00837-.06872-.03651-.13169-.10208-.14781z" fill="#fc6559"/></g></g><g><g><path d="m8.04869 18.57191c-1.178-1.76703-2.56616-3.41004-4.1229-4.89433-.22601-.2165-.58471-.20875-.8012.01726-.21645.22601-.2087.58475.01731.80116.22368.21421 2.25748 1.52647 4.64199 4.27744.06025.06967.16554.07724.23517.017.06424-.05559.07556-.14966.02963-.21853z" fill="#7979f7"/></g></g><g><g><path d="m8.99083 17.9287c-.32968-1.57026-.80296-3.12766-.73391-4.63899.01097-.23385-.16973-.43238-.40362-.44339-.24857-.01161-.45855.19369-.44295.45087.11058 1.71127.76698 3.2094 1.24626 4.71967.02893.09107.12617.14154.21729.11256.08526-.02703.13463-.11493.11693-.20072z" fill="#fc6559"/></g></g><g><g><path d="m9.89348 18.00935c.78108-1.66336 1.32633-3.45549 1.59435-5.30663.04377-.29489-.15977-.56943-.45466-.6132-.29493-.04386-.56947.15977-.61325.45466-.02876.19121.02024 2.43053-.93966 5.2994-.03924.1167.0236.24318.14035.28238.10847.03647.22539-.0155.27287-.11661z" fill="#00d67f"/></g></g><g><g><path d="m10.54098 18.23226 3.75557-3.26594c.22627-.19677.25019-.53974.05342-.76602-.19681-.22636-.53979-.25023-.76606-.05346-.05269.04579-3.1856 3.84928-3.23005 3.9031-.04611.05584-.03818.13846.01766.18452.05016.0414.12199.0392.16946-.0022z" fill="#7979f7"/></g></g><g><g><path d="m11.31378 18.8283 3.56871-.85506c.19426-.04659.314-.24177.26745-.43608-.0501-.20903-.27387-.33415-.485-.2519l-3.41145 1.35244c-.05144.02043-.07663.07865-.05624.13009.01863.04694.06879.07204.11653.06051z" fill="#fc6559"/></g></g><g><g><path d="m10.77397 19.60892 4.16958 1.2309c.19157.05646.39265-.05294.4492-.24451.06056-.20507-.06919-.41751-.27908-.45757-.10087-.01925-4.3644-.82582-4.26356-.80645l-.00868-.00167c-.07804-.01471-.1533.03655-.16805.11459-.01382.07311.03088.14393.10059.16471z" fill="#00d67f"/></g></g><g><g><path d="m10.63035 20.45332 2.5843 2.48583c.14392.13846.37279.13405.51121-.00986.13846-.14392.13401-.37284-.00991-.5113-.01119-.01066-.02453-.02176-.03664-.03083l-2.88998-2.12269c-.05509-.04043-.13251-.02854-.17294.02651-.03717.05057-.03012.12006.01396.16234z" fill="#7979f7"/></g></g><g><g><path d="m7.83557 21.19011c-.90738 1.02602-1.94684 1.92099-2.89254 2.99343-.13212.14982-.11776.37839.03206.51041.16054.14161.40942.11408.53477-.06289.81977-1.15733 1.73831-2.14208 2.54181-3.27669.04329-.06121.0288-.14595-.03237-.18919-.05694-.04034-.13837-.02598-.18373.02493z" fill="#7979f7"/></g></g></g></g><g><g><path d="m46.06566 5.1441c-.52271.62683-1.0811 1.30615-1.89965 1.66681-.4097.17389-.86433.24042-1.31322.16925-.44462-.06635-.89909-.31195-1.15616-.71667-.26434-.39874-.32888-.87512-.30916-1.31189.02654-.43744.11016-.87042.30984-1.2843.18811-.38983.55883-.8429 1.12875-.86694.57331-.02344 1.00169.42963 1.17022.85449.38526.91888.00774 1.91864-.59733 2.57227-.61238.67957-1.57498 1.03015-2.47778.9425-.9034-.06909-1.77496-.49872-2.38734-1.16449-.61572-.66235-.99808-1.50854-1.14029-2.3891l-.00101-.00629c-.03304-.20453.106-.39709.31053-.43018.20453-.03302.39712.10602.43015.31055.00078.00482.00163.01111.00222.01587.17659 1.49811 1.31554 2.90082 2.84142 3.02759.73917.08392 1.48616-.17017 1.99909-.70721.50755-.51324.80134-1.3269.53448-1.96759-.12597-.32501-.38474-.56897-.66862-.55963-.28999-.00421-.55556.2536-.72401.58075-.30961.64978-.43945 1.55573-.07251 2.15784.37176.61926 1.29416.72601 1.98232.44122.7181-.29303 1.27289-.91492 1.80628-1.53137.05481-.06354.15075-.07062.21429-.01587.06283.05419.07023.14886.01749.21239z" fill="#7979f7"/></g></g></g></svg>