<svg id="Startup" height="512" viewBox="-70.866 -70.866 850.394 850.394" width="512" xmlns="http://www.w3.org/2000/svg">
    <g>
        <path d="m707.461 205.21c.871-16.117-5.242-49.219-27.516-62.188 2.434-25.523-7.824-44.574-28.094-66.152-8.191-10.777-41.086-35.953-66.879-29.184-26.52-39.176-111.48-32.828-134.844.199-42.152-10.441-102.094 48.605-97.5 95.145-21.348 15.023-25.102 39.723-26.043 50.012-1.898 16.051-1.363 31.191 1.582 44.965 2.578 7.316 2.547 9.152-5.32 10.512-10.617-28.766-52.418-38.969-72.852-37.316-35.676-1.66-75.133 5.77-92.273 37.824-49.781-20.613-105.133 42.418-117.219 78.402-4.121 12.695-4.273 25.898-.57 38.082-31.32 12.496-38.183 50.375-38.183 67.34-3.5 39.27 4.621 79.816 37.645 98.57-10.344 21.145 1.574 54.09 11.59 63.465 28.371 37.883 57.387 57.098 86.238 57.098 6.852 0 13.527-1.113 19.867-3.281 8.973 18.121 30.352 39.266 81.219 39.266 35.426.766 74.184-9.207 85.359-39.254 37.762 10.039 68.086-11.887 94.543-41.504 11.457-13.262 33.938-38.012 22.723-73.324-.297-.91-.613-1.801-.949-2.672 9.934-5.258 18.406-13.195 24.258-23.043 12.434-20.883 13.777-44.66 13.707-60.711 1.586-75.957-36.605-48.879 37.703-44.047 25.273 1.813 62.141-9.992 70.355-27.852 31.137 2.633 55.27-14.852 76.207-39.832 7.559-9.215 24.363-29.676 18.727-57.152 23.636-18.114 27.777-54.95 26.519-73.368zm-441.559 265.473c-5.379 9.816-22.543 14.563-34.816 11.055-21.465-5.492-23.621-25.648-23.48-34.527 3.28-56.716 86.964-28.052 58.296 23.472zm259.914-248.676c-2.332 3.512-9.301 3.164-12.57 2.715-9.445-1.164-12.426-20.676-2.32-24.664 12.425-4.075 22.406 10.254 14.89 21.949z"
              fill="none"/>
        <g>
            <path d="m669.254 207.843c-.297-9.336-.336-22.488-6.926-29.824-5.797-6.457-13.113-6.715-21.051-5.305-4.539.805-2.926-.211-4.672-4.992-.961-2.637-2.016-5.238-3.133-7.816-.395-.91-.723-2.117-1.16-3.191-1.238-2.965-1.16-3.137 1.242-4.824 1.613-1.141 3.27-2.262 4.508-3.914 3.395-4.531 4.746-10.199 3.797-15.77-1.84-10.844-9.992-20.992-17.449-28.66-7.117-7.324-17.395-17.098-28.008-18.285-6.91-.766-14.918 2.813-18.953 8.867-1.766 2.641-2.188 2.258-4.305 1.094-1.898-1.07-4.133-1.836-6.043-2.617-1.973-.805-5.012-2.492-7.586-3.117-3.305-.82-3.066-1.742-2.75-4.602.707-6.199-.328-12.527-4.773-17.266-6.816-7.277-19.352-7.48-28.648-7.977-10.699-.574-22.066.125-32.133 4.016-8.504 3.289-16.387 11.555-15.48 21.02.359 3.699-.922 4.102-5.121 5.418-3.609 1.137-7.113 2.52-10.512 4.133-4.086 1.953-3.844 1.176-7.469-2.906-3-3.387-6.258-5.344-10.832-6.063-10.996-1.723-20.5 7.23-28.125 14.039-12.348 11.027-36.52 39.887-13.516 53.164 1.301.758 1.367 2.273.785 3.598-1.484 3.297-2.473 9.031-3.992 13.027-1.004 2.617-2.547 3.75-4.129 3.484-9.215-1.508-13.195-.289-15.133.523-10.277 4.309-11.934 14.555-13.098 24.434-1.273 10.773-1.273 21.832 1.008 32.492 2.285 10.727 9.242 23.77 22.18 23.07 1.648-.086 3.461-.598 5.207-1.266 2.309-.895 2.969.113 3.66 2.336.578 1.863 1.488 3.781 2.109 5.371.395 1.035 2.492 4.602 3.914 7.277 1.617 3.027 1.504 3.691-.902 5.219-2.063 1.313-4.949 2.645-5.973 3.523-8.313 7.109-7.566 19.387-1.719 27.664 10.441 14.766 32.359 41.02 53.195 33.32 4.285-1.586 7.27-4.219 9.484-8.102 1.59-2.793 2.348-2.004 4.602-.883.941.469 1.891.93 2.855 1.367 2.723 1.238 5.488 2.426 8.297 3.457.316.121 1.051.449 1.84.762 2.828 1.105 2.859 2.102 2.398 4.977-.781 4.902-1.621 7.453 2.098 13.566 9.598 15.766 39.453 14.262 54.891 12.199 9.664-1.285 19.551-4.008 22.684-14.555.973-3.289.328-6.25-.113-9.539-.488-3.715-.449-5.074 2.453-5.469 1.078-.145 9.324-2.426 14.426-4.492 3.402-1.383 3.113-.547 4.918 1.492 7.457 8.293 18.453 7.547 27.965 2.855 10.387-5.125 19.301-13.863 26.57-22.73 6.684-8.141 13.949-17.086 9.953-28.199-1.488-4.141-4.227-6.375-7.633-8.859-.238-.172-.574-.477-.941-.805-2.137-1.918-2.559-2.043-1.371-4.344 2.34-4.57 3.969-9.484 5.246-14.457.813-3.195.941-2.934 4.074-2.477 23.235 3.425 27.883-26.068 27.29-44.458zm-110.563 33.754c-5.145 8.629-13.152 15.309-22.715 18.512-10.652 3.566-22.57 4.152-32.223 1.688-24.066-6.164-37.836-27.313-37.258-52.16.988-21.984 13.289-41.418 35.434-46.777 22.91-5.543 46.238 3.52 57.953 24.133 9.422 16.569 8.872 37.705-1.191 54.604z"
                  fill="#68182b"/>
            <path d="m433.672 409.241c-2.805-4.613-7.648-8.301-12.848-9.785-4.512-1.285-9.461.152-14.043.633-6.031.633-6.953 1.367-8.957-4.559-1.445-4.266-3.031-8.465-4.773-12.617-.52-1.234-2.563-4.535-4.047-7.313-2.156-4.031-.789-6.141 3.156-8.508 1.867-1.113 3.773-2.137 4.703-3.027 5.621-5.402 7.77-14.324 6.156-21.785-3.035-14.047-13.711-26.953-23.652-36.809-8.684-8.621-21.82-21.41-34.793-22.102-6.836-.355-12.805 1.879-17.176 7.074-1.906 2.258-4.918 8.438-7.762 9.313-2.109.652-4.277-2.031-7.012-3.469-3.684-1.938-7.625-3.512-11.535-4.91-4.688-1.672-11.965-1.363-12.504-6.176-.43-3.828 1.145-7.797 1.383-11.602.363-5.859-2.445-11.535-6.664-15.57-8.785-8.383-25.84-8.254-37.219-8.668-13.629-.5-28.035.563-40.723 5.895-6.262 2.637-11.207 6.301-14.27 12.555-2.559 5.223-2.059 9.367-1.395 14.152.59 4.359.086 4.426-3.668 5.637-2.242.719-4.512 1.664-6.199 2.176-5.508 1.688-10.922 3.711-16.082 6.258-4.023 1.988-4.715 2.188-6.434.77.133-.094-4.172-4.707-5.676-6.434-3.344-3.836-7.074-6.023-12.207-6.848-13.961-2.23-26.895 10.738-36.355 19.457-10.719 9.875-21.602 22.145-26.176 36.27-1.992 6.129-1.867 12.809 1.063 18.652 1.574 3.152 3.652 5.922 6.563 7.914 1.434.973 5.242 1.883 6.191 3.367 1.516 2.367-4.633 12.684-5.84 16.387-1.766 5.418-1.004 13.215-7.039 14.543-3.48.762-8.762-.391-12.777-.945.707.164-4.699-.164-5.551 0-2.313.441-4.699 1.492-6.723 2.703-11.43 6.867-11.93 22.223-12.898 34.086-1.137 13.914-.859 28.914 3.465 42.313 4.129 12.789 15.148 26.309 30.125 20.496 1.18-.457 2.301-1.063 3.477-1.535 3.234-1.328 5.027 2.313 6.445 6.918 1.23 4.008 2.695 7.91 4.355 11.762 1.523 3.52 6.555 9.184 4.277 12.789-2.168 3.434-8.184 5.125-11.289 7.816-4.402 3.805-6.883 10.375-7.113 16.125-.316 7.664 3.594 13.445 7.984 19.305 13.023 17.398 46.277 56.023 70.664 36.297 2.168-1.754 3.188-3.211 4.469-5.566 1.73-3.215 3.801-6.484 7.051-4.594 4.285 2.5 9.023 4.43 13.605 6.324 2.73 1.117 5.559 2.352 8.434 3.254 4.191 1.301 4.758 1.332 3.875 5.453-.711 3.32-1.094 7.355-.793 10.309 3.074 29.82 50.613 27.473 71.59 24.832 12.016-1.516 25.23-4.047 28.977-17.543 1.141-4.113-.016-7.961-.563-12.047-.262-1.953-.969-4.516-.566-6.441.613-2.992 1.207-2.48 4.621-3.027 8.137-1.305 16.816-4.863 24.105-8.594 2.934-1.555 3.832.613 5.605 2.887 7.891 10.02 19.438 12.051 31.633 6.684 13.664-6.02 25.273-16.82 34.949-28 8.648-9.996 19.953-22.148 15.293-36.375-1.461-4.469-4.309-7.191-8-9.887-1.973-1.445-4.121-2.781-5.969-4.383-2.258-1.953-1.988-3.355-.473-6.336 2.895-5.73 5.438-11.32 7.191-17.691.414-1.504 1.199-3.629 1.84-5.762 1.324-4.445 1.566-3.941 5.332-2.883 2.941.824 5.82 1.504 9.051 1.168 7.266-.75 14.078-5.129 17.824-11.43 7.059-11.859 8.379-27.508 8.32-40.98-.044-11.584.187-28.131-6.008-38.373zm-134.895 81.031c-15.406 25.848-48.773 35.809-77.184 28.535-34.094-8.727-53.051-38.605-52.242-72.91 1.379-30.809 18.742-58.219 49.801-65.734 32.039-7.758 64.813 4.926 81.219 33.777 13.281 23.36 12.121 53.309-1.594 76.332z"
                  fill="#68182b"/>
            <path d="m648.109 206.64c-.141-3.121-.371-6.242-.805-9.332-.508-3.68-1.371-4.039-4.695-3.645-2.895.309-5.496.453-8.402-.066-9.328-1.656-13.508-7.945-16.555-16.309-2.617-7.199-8.754-15.762-8.668-23.52.074-7.086 4.148-12.309 9.336-16.379 1.547-1.207 2.918-3.066 1.648-5.309-5.883-10.355-18.52-21.5-19.941-22.398-3.855-2.406-4.734-3.211-7.605.305-1.043 1.277-2.137 2.512-3.375 3.617-6.707 5.992-14.813 6.656-22.633 2.438-4.453-2.406-8.363-4.516-13.234-6.016-4.266-1.324-8.418-3.824-11.766-5.227-6.871-2.883-6.75-11.301-6.324-18.102.168-2.738-.758-4.82-3.523-5.215-6.797-.965-19.875-1.363-30.691 1.258-3.211.773-3.816.207-3.332 3.328 1.215 7.535-.07 16.258-7.5 20.152-8.141 4.273-17.469 4.688-25.582 9.406-.574.383-1.215.711-1.918.988-6.008 2.941-12.762 3.035-22.004-6.922-1.996-2.141-3.219-2.516-5.984-.441-3.746 2.824-7.258 5.98-10.566 9.301-4.063 4.082-8.063 8.559-10.633 13.773-.926 1.836-.457 2.84 1.777 4.422 6.559 4.613 11.082 12.887 8.52 20.809-1.984 6.117-5.434 11.281-7.035 17.699-1.344 5.406-2.734 9.066-7.035 12.656-6.07 5.078-12.555 5.973-19.754 5.492-2.262-.152-3.258-.094-3.871 3.145-.664 3.531-.914 7.77-.98 8.898-.25 4.852-.316 9.801.25 14.641.309 2.598.797 5.18 1.555 7.688.891 2.945 1.379 2.965 4.027 2.023 3.738-1.348 7.641-2.129 11.398-1.301 10.641 2.367 12.484 12.109 15.293 20.918 2.863 8.957 9.379 16.121 6.625 26.031-1.457 5.219-4.969 9.523-9.262 12.813-3.531 2.703-3.719 2.98-.406 7.191 1.527 1.953 3.148 3.844 4.828 5.676 3.402 3.727 7.023 7.383 11.074 10.402 1.34.996 3.734 2.074 5.836 3.09 2.867 1.398 3.086 1.227 4.965-1.586 2.504-3.75 6.035-6.324 10.309-7.746 11.121-3.699 19.387 4.496 29.563 7.77 8.582 2.758 14.965 6.328 16.738 15.98.539 2.941.238 5.688-.211 8.57-.402 2.496-1.496 3.07 2.695 4.117 1.996.504 5.32 1.176 10.895 2.039 4.016.625 8.145.262 12.195.047 3.074-.16 6.145-.43 9.184-.898 2.484-.387 2.801-1.68 2.551-3.883-.363-3.164-.625-6.328.094-9.477 1.871-8.262 7.383-12.586 15.094-14.852 5.664-1.664 10.977-3.02 16.336-5.59 3.914-1.887 6.945-3.813 11.516-3.363 6.023.586 10.785 4.066 14.113 8.926 1.277 1.883 1.594 1.859 4.449.195 8.254-4.785 18.688-15.094 22.859-20.629 1.57-2.117 1.469-3.883-1.496-6.336-5.477-4.543-9.82-10.938-8.602-18.438.785-4.863 4.152-8.629 5.957-13.117 1.66-4.121 2.359-8.531 3.48-12.801 2.09-7.977 6.805-14.074 15.762-14.066 2.246 0 4.727.434 7.059 1.039 2.539.66 3.227 1.305 4.238-1.652 2.419-7.04 2.486-14.868 2.169-22.227zm-78.074 55.07c-18.516 21.754-52.828 28.313-79.051 18.113-29.488-11.461-46.32-38.773-45.582-70.188.746-16.602 5.77-32.578 16.297-45.598 11.441-14.141 28.383-21.582 46.207-23.402 31.258-3.184 60.91 13.609 73.547 42.492 11.164 25.544 6.742 57.251-11.418 78.583z"
                  fill="#ffc522"/>
            <path d="m416.926 426.358c-.699-4.172-1.707-5.34-7.301-5.063-2.789.141-5.348.172-6.363.211-4.957.191-10.109-.66-14.441-3.203-6.594-3.863-9.012-10.301-11.34-17.164-2.637-7.785-6.59-14.754-9.648-22.293-2.684-6.613-1.496-13.547 2.41-19.469 1.859-2.805 4.227-4.891 6.883-6.898 5.246-3.984 6.367-3.859 4.055-9.32-1.234-2.914-2.945-5.703-4.668-8.359-3.645-5.629-8.168-10.641-12.957-15.309-4.914-4.785-10.199-9.195-16.012-12.852-3.938-2.461-5.125-1.234-8.309 2.582-6.438 7.727-14.387 14.66-25.371 11.648-7.406-2.035-13.617-7.613-21.094-10.066-6.289-2.063-13.32-2.898-18.227-7.73-6.023-5.941-7.68-14.105-7.051-22.234.5-6.469.848-7.832-4.344-8.754-4.477-.813-9.059-1.188-13.574-1.457-11.359-.68-23.043-.453-33.848 3.238-5.906 2.008-4.887 4.363-4.41 11.652.289 4.594-.25 9.887-2.695 13.883-4.32 7.047-13.078 7.773-20.336 9.875-7.445 2.16-14.43 4.699-20.988 8.871-1.809 1.148-3.582 1.609-5.262 1.637-8.324 1.285-16.539-4.465-22.168-10.688-3.406-3.762-4.16-5.215-9.684-1.25-4.965 3.551-9.625 7.559-14.035 11.777-5.477 5.242-10.684 10.855-14.738 17.285-.902 1.422-1.641 2.918-2.379 4.414-2.035 4.16-3.68 6.977.875 9.336 1.742.902 3.629 1.754 4.871 2.836 1.941 1.691 3.688 3.773 5.078 5.957 3.758 5.895 4.41 12.301 1.438 18.617-3.566 7.578-6.727 14.367-8.684 22.609-1.527 6.434-3.824 10.617-9.16 14.605-7.867 5.867-16 6.211-25.004 5.328-2.945-.285-5.617 1.586-6.27 4.816-.836 4.188-1.082 8.621-1.363 12.789-.852 12.578.746 23.316 3.512 35.188 1.09 4.621 1.934 5.523 6.211 3.809 4.508-1.797 9.367-3.578 14.297-2.973 16.051 1.977 16.586 19.492 21.305 31.297 2.676 6.68 7.719 12.625 7.871 20.074.117 5.84-2.281 12.637-6.184 17.008-2.434 2.715-5.684 5.074-8.918 7.176-3.809 2.465-4.133 4.246-1.512 8.367 6.633 10.375 16.73 20.359 26.547 27.301 2.922 2.07 6.059 4.109 9.348 5.551 3.895 1.945 5.496 2.262 8.594-3.902 1.129-2.254 2.215-4.402 3.008-5.172 4.285-4.176 11.527-7.027 17.5-6.777 7.188.289 13.938 5.91 20.355 8.738 6.805 3 15.961 3.758 21.516 8.941 4.027 3.758 6.559 9.055 7.082 14.547.281 2.965-.133 5.793-.582 8.742-.938 6.273-2.32 6.281 2.07 7.836 2.578.918 5.094 1.84 7.766 2.484 12.492 3.008 26.223 2.551 38.891.844 7.566-1.035 9.012-2.41 8.219-9.563-1.352-12.09 2.699-24.043 15.313-27.82 7.906-2.363 15.992-3.734 23.422-7.531 6.156-3.145 11.398-6.527 18.609-4.301 4.754 1.473 8.918 4.656 11.773 8.664 4.516 6.367 4.793 6.902 12.109 3.297 9.582-4.727 18.402-14.793 24.613-21.859 2.434-2.77 4.773-5.609 6.949-8.582 2.18-2.98 5.285-5.453.453-9.105-10.367-7.758-18.715-18.555-11.398-31.688 4.063-7.289 6.805-14.039 8.77-22.211 1.602-6.688 2.418-13.48 8.449-17.715 4.758-3.34 10.52-3.355 16-2.285 2.023.395 4.012 1 5.992 1.539 3.559.992 5.113 1.301 6.707-4.508.965-3.52 1.688-7.738 2.031-9.789 1.027-6.117 1.188-12.418 1.063-18.613-.134-6.307-.602-12.635-1.637-18.866zm-108.54 86.465c-23.949 28.188-68.066 36.375-101.957 23.25-37.867-14.672-59.121-50.023-58.172-90.176.941-21.148 7.293-41.672 20.688-58.293 14.617-18.141 36.254-27.816 59.105-30.164 40.527-4.164 78.668 17.418 94.996 54.898 14.184 32.552 8.426 73.313-14.66 100.485z"
                  fill="#dda96b"/>
            <path d="m417.5 463.839c1.027-6.117 1.188-12.418 1.063-18.613-.133-6.309-.602-12.637-1.637-18.867-.699-4.172-1.707-5.34-7.301-5.063-2.789.141-5.348.172-6.363.211-4.957.191-10.109-.66-14.441-3.203-6.594-3.863-9.012-10.301-11.34-17.164-2.543-7.523-6.309-14.293-9.32-21.535 3.527 10.203 7.508 22.238 8.168 24.863 2.867 11.465 8.582 19.484 20.891 20.383 7.309.527 13.109.652 15.496 4.402 2.953 4.633 3.375 21.516 1.16 35.648-1.316 8.406-8.023 7.371-14.977 6.645-7.996-.816-16.969.086-18.992 7.41-8.145 30.086-15.527 37.762-16.973 42.965-.766 2.715-1.102 5.688-.738 9.215.805 7.91 6.738 13.309 11.254 18.406 1.922 2.172 3.254 4.473 3.195 7.223-.078 3.723-5.484 8.977-11.074 14.766-3.625 3.75-9.809 9.281-15.926 12.762-7.457 4.238-13.191-4.707-17.039-8.324-5.348-5.039-12.648-2.844-17.289-.938-18.551 7.648-24.133 8.313-34.945 12.313-13.594 5.039-17.594 15.164-15.965 26.691 1.602 11.352-13.07 11.152-22.945 11.172-7.055.016-14.785-.949-21.277-3.098-4.621-1.527-4.848-6.387-4.762-11.145.266-13.898-.711-18.234-11.988-24.504-9.711-5.398-22.137-11.277-32.465-14.336-9.91-2.941-18.73-5.227-32.988 11.418-2.918 3.406-7.922.656-12.766-1.789-5.559-2.809-10.238-8.805-14.293-13.426-5.488-6.262-10.875-12.098-3.992-18.906 9.828-9.715 16.855-16.711 9.18-31.309-8.207-15.617-9.875-22.578-14.145-35.887-4.332-13.488-19.098-12.043-29.348-5.801 3.91-1.477 8.027-2.695 12.215-2.184 16.051 1.977 16.586 19.492 21.305 31.297 2.676 6.68 7.719 12.625 7.871 20.074.117 5.84-2.281 12.637-6.184 17.008-2.434 2.715-5.684 5.074-8.918 7.176-3.809 2.465-4.133 4.246-1.512 8.367 6.633 10.375 16.73 20.359 26.547 27.301 2.922 2.07 6.059 4.109 9.348 5.551 3.895 1.945 5.496 2.262 8.594-3.902 1.129-2.254 2.215-4.402 3.008-5.172 4.285-4.176 11.527-7.027 17.5-6.777 7.188.289 13.938 5.91 20.355 8.738 6.805 3 15.961 3.758 21.516 8.941 4.027 3.758 6.559 9.055 7.082 14.547.281 2.965-.133 5.793-.582 8.742-.938 6.273-2.32 6.281 2.07 7.836 2.578.918 5.094 1.84 7.766 2.484 12.492 3.008 26.223 2.551 38.891.844 7.566-1.035 9.012-2.41 8.219-9.563-1.352-12.09 2.699-24.043 15.313-27.82 7.906-2.363 15.992-3.734 23.422-7.531 6.156-3.145 11.398-6.527 18.609-4.301 4.754 1.473 8.918 4.656 11.773 8.664 4.516 6.367 4.793 6.902 12.109 3.297 9.582-4.727 18.402-14.793 24.613-21.859 2.434-2.77 4.773-5.609 6.949-8.582 2.18-2.98 5.285-5.453.453-9.105-10.367-7.758-18.715-18.555-11.398-31.688 4.063-7.289 6.805-14.039 8.77-22.211 1.602-6.688 2.418-13.48 8.449-17.715 4.758-3.34 10.52-3.355 16-2.285 2.023.395 4.012 1 5.992 1.539 3.559.992 5.113 1.301 6.707-4.508.963-3.519 1.686-7.737 2.03-9.788z"
                  fill="#c48d51"/>
            <path d="m297.965 371.093c-43.129-32.418-103.926-29.379-136.879 15.754-22.301 30.539-21.672 73.176-3.09 104.961-6.719-13.773-10.125-29.418-9.738-45.91.941-21.148 7.293-41.672 20.688-58.293 14.617-18.141 36.254-27.816 59.105-30.164 40.527-4.164 78.668 17.418 94.996 54.898 9.734 22.332 10.07 48.535 1.871 71.555 6.574-12.797 9.551-28.293 10.117-40.91 1.234-27.364-15.652-55.786-37.07-71.891z"
                  fill="#c48d51"/>
            <path d="m251.394 545.347c34.816-4.855 60.656-23.629 69.762-52.488-3.395 7.156-7.629 13.914-12.77 19.965-23.949 28.188-68.066 36.375-101.957 23.25-20.254-7.852-35.699-21.648-45.586-38.898 11.52 34.393 57.442 52.8 90.551 48.171z"
                  fill="#f4c38e"/>
            <path d="m149.73 321.589c6.301 3.555 10.945 3.711 17.398.969 5.367-2.281 12.594-7.094 17.398-8.699 6.676-2.242 15.285-4.945 21.074-6.961 5.102-1.781 8.668-2.348 9.234-9.27.922-11.211-.645-14.738 3.527-18.766 7.25-7.008 23.137-8.023 34.078-8.012-.957-.07-1.918-.164-2.867-.223-11.359-.68-23.043-.453-33.848 3.238-5.906 2.008-4.887 4.363-4.41 11.652.289 4.594-.25 9.887-2.695 13.883-4.32 7.047-13.078 7.773-20.336 9.875-7.445 2.16-14.43 4.699-20.988 8.871-1.809 1.148-3.582 1.609-5.262 1.637-8.324 1.285-16.539-4.465-22.168-10.688-3.406-3.762-4.16-5.215-9.684-1.25-4.965 3.551-9.625 7.559-14.035 11.777-5 4.785-9.734 9.922-13.617 15.668 2.848-2.781 26.691-23.281 35.016-21.625 3.998.791 7.838 5.479 12.185 7.924z"
                  fill="#f4c38e"/>
            <path d="m589.215 213.628c1.723-20.93-4.27-38.938-17.914-54.844-27.832-32.43-77.48-30.672-107.98-4.125-29.539 25.699-28.285 74.605-2.859 102.613-10.141-13.086-15.48-29.684-15.059-47.637.746-16.602 5.77-32.578 16.297-45.598 11.441-14.141 28.383-21.582 46.207-23.402 31.258-3.184 60.91 13.609 73.547 42.492 7.871 18.004 7.844 39.012.867 57.348 4.069-8.757 6.241-18.91 6.894-26.847z"
                  fill="#ffa222"/>
            <path d="m645.937 228.87c2.422-7.043 2.488-14.871 2.172-22.23-.141-3.121-.371-6.242-.805-9.332-.508-3.68-1.371-4.039-4.695-3.645-2.895.309-5.496.453-8.402-.066-9.328-1.656-13.508-7.945-16.555-16.309-2.617-7.199-8.754-15.762-8.668-23.52.047-4.219 1.602-7.707 3.871-10.758-9.949 9.164-3.738 25.035 1.992 36.723 3.07 6.254 6.367 13.797 13.473 16.445 3 1.121 6.789 1.141 10.637 1.379 3.773.223 4.512 1.016 4.898 4.785.48 4.637.516 9.883.336 14.285-.086 2.035-.348 4.008-.719 5.945-.73 3.832-1.422 3.48-5.023 3.078-10.531-1.152-19.16 4.551-22.887 16.809-3.809 12.566-12.551 22.895-8.457 36.32 1.148 3.738 3.527 7.18 6.48 10.305 2.629 2.762 2.711 4.199.363 6.961-4.383 5.199-9.656 9.367-15.188 13.5-2.898 2.16-5.379 2.184-7.055.027-.77-1.004-1.605-1.965-2.516-2.887-7.965-8.051-18.148-4.121-27.039-.629-7.359 2.887-21.609 6.137-26.625 13.277-3.074 4.375-3.988 10.578-3.871 16.367.082 4.074-.406 4.18-4.738 4.824-7.238 1.094-14.652 1.102-21.324-.816-4.266-1.227-4.879-1.449-4.305-5.938.297-2.289.336-4.582-.047-6.879-1.984-12.016-9.09-13.359-19.168-17.844-9.738-4.328-18.914-10.156-29.855-7.348-3.914 1-8.188 3.828-11.594 6.949-2.656 2.41-3.078 3.5-6.145 1.383-7.289-5.023-12.641-10.41-15.648-15.227-2.223-3.555-2.445-3.496.223-6.039 2.184-2.07 4.18-4.516 6.223-7.805 6.113-9.855 1.848-18.34-1.863-28.352-3.969-10.703-9.012-25.293-21.727-24.172.172.027.348.02.52.059 10.641 2.367 12.484 12.109 15.293 20.918 2.863 8.957 9.379 16.121 6.625 26.031-1.457 5.219-4.969 9.523-9.262 12.813-3.531 2.703-3.719 2.98-.406 7.191 1.527 1.953 3.148 3.844 4.828 5.676 3.402 3.727 7.023 7.383 11.074 10.402 1.34.996 3.734 2.074 5.836 3.09 2.867 1.398 3.086 1.227 4.965-1.586 2.504-3.75 6.035-6.324 10.309-7.746 11.121-3.699 19.387 4.496 29.563 7.77 8.582 2.758 14.965 6.328 16.738 15.98.539 2.941.238 5.688-.211 8.57-.402 2.496-1.496 3.07 2.695 4.117 1.996.504 5.32 1.176 10.895 2.039 4.016.625 8.145.262 12.195.047 3.074-.16 6.145-.43 9.184-.898 2.484-.387 2.801-1.68 2.551-3.883-.363-3.164-.625-6.328.094-9.477 1.871-8.262 7.383-12.586 15.094-14.852 5.664-1.664 10.977-3.02 16.336-5.59 3.914-1.887 6.945-3.813 11.516-3.363 6.023.586 10.785 4.066 14.113 8.926 1.277 1.883 1.594 1.859 4.449.195 8.254-4.785 18.688-15.094 22.859-20.629 1.57-2.117 1.469-3.883-1.496-6.336-5.477-4.543-9.82-10.938-8.602-18.438.785-4.863 4.152-8.629 5.957-13.117 1.66-4.121 2.359-8.531 3.48-12.801 2.09-7.977 6.805-14.074 15.762-14.066 2.246 0 4.727.434 7.059 1.039 2.539.666 3.227 1.31 4.238-1.647z"
                  fill="#ffa222"/>
            <path d="m597.687 108.265c-2.051-1.121-3.086-.941-5.266 1.723-1.043 1.277-2.137 2.512-3.375 3.617-6.707 5.992-14.813 6.656-22.633 2.438-4.453-2.406-8.363-4.516-13.234-6.016-4.266-1.324-8.418-3.824-11.766-5.227-6.871-2.883-6.75-11.301-6.324-18.102.168-2.738-.758-4.82-3.523-5.215-6.797-.965-19.875-1.363-30.691 1.258-3.211.773-3.816.207-3.332 3.328 1.215 7.535-.07 16.258-7.5 20.152-8.141 4.273-17.469 4.688-25.582 9.406-.574.383-1.215.711-1.918.988-6.008 2.941-12.762 3.035-22.004-6.922-1.996-2.141-3.219-2.516-5.984-.441-3.746 2.824-7.258 5.98-10.566 9.301-4.063 4.082-8.063 8.559-10.633 13.773-.926 1.836-.457 2.84 1.777 4.422 6.453 4.543 10.898 12.617 8.605 20.422 2.629-4.773 3.563-10.285 1.277-15.543-.844-1.938-2.168-3.91-3.797-5.801-3.164-3.672-4.102-4.168.051-9.004 3.18-3.707 6.727-7.148 11.043-10.332 5.832-4.289 5.516-2.938 10.336.289 3.699 2.488 7.852 4.273 11.566 4.379 11.84.336 24.496-8.09 35.734-11.746 8.828-2.867 12.031-9.328 12.211-17.246.129-5.57.359-6.242 6.586-6.98 3.855-.461 7.738-.789 11.641-1.055 1.766-.117 3.504-.105 5.234 0 5.652.344 4.996 2.273 5.102 5.789.145 5.188 1.008 10.137 3.734 13.059 7.801 8.316 20.488 11.871 30.754 16.234 14.001 5.962 25.259.036 32.477-10.948z"
                  fill="#fbe134"/>
        </g>
    </g>
</svg>