<svg height="512" viewBox="0 0 64 64" width="512" xmlns="http://www.w3.org/2000/svg">
    <g id="Layer_31" data-name="Layer 31">
        <path d="m54 47a10.1 10.1 0 0 0 -1.881.176 11.939 11.939 0 0 1 -8.219-1.311 24.175 24.175 0 0 0 -11.9-2.865 27.1 27.1 0 0 0 -7.156.933 12.3 12.3 0 0 1 -7.285-.181 13.988 13.988 0 0 0 -4.559-.752c-6.627 0-12 4.477-12 10v8a2 2 0 0 0 2 2h58a2 2 0 0 0 2-2v-6c0-4.418-4.029-8-9-8z"
              fill="#dbe6fd"/>
        <path d="m14 60a10 10 0 0 1 -10-10 8.682 8.682 0 0 1 1.449-4.768 9.461 9.461 0 0 0 -4.449 7.768v8a2 2 0 0 0 2 2h58a2 2 0 0 0 2-2v-1z"
              fill="#bbcff2"/>
    </g>
</svg>