<svg id="Food" height="512" viewBox="0 0 1000 1000" width="512" xmlns="http://www.w3.org/2000/svg"><g><path d="m842.254 802.778c-1.785-.424-3.621-.639-5.479-.639-1.012 0-2.066.063-3.15.203-1.174.154-2.348.313-3.521.475-23.762-23.25-24.501-66.139-9.014-93.016 6.507-1.533 12.317-3.311 17.602-5.375 22.721-8.879 30.48-29.703 23.066-61.896-11.715-50.838-24.508-102.229-36.877-151.924-3.445-13.84-6.891-27.68-10.317-41.521-12.811-51.756-29.368-120.176-43.812-190.471-6.332-30.814-12.295-62.813-18.229-97.816-.896-5.273-1.508-11.664-2.154-18.432-2.213-23.152-4.971-51.965-22.681-71.118-16.928-18.302-36.469-20.649-51.601-20.649-5.257 0-10.598.307-15.762.603l-2.764.157c-28.408 1.584-59.441 4.669-94.874 9.434-58.908 7.918-122.425 19.168-199.884 35.4-5.666 1.188-11.52 2.379-17.518 3.598-89.109 18.127-223.771 45.518-220.555 172.736 1.488 58.986 15.264 117.58 28.584 174.242 2.647 11.262 5.281 22.463 7.799 33.586 17.225 76.145 28.821 148.703 35.453 221.82 1.14 12.58 2.106 25.238 3.078 37.924 2.775 36.313 5.646 73.865 12.711 110.492 6.863 35.574 23.889 63.352 49.229 80.332 24.727 16.563 55.254 18.479 76.067 18.479h.007c5.568 0 11.381-.145 18.842-.467 38.688-1.68 77.3-6.965 114.641-12.076 67.971-9.307 136.525-21.25 202.823-32.799 23.02-4.012 46.036-8.021 69.067-11.932 20.248-3.438 40.105-6.703 59.021-9.703 3.373-.535 7.684-.891 12.25-1.266 15.215-1.248 32.462-2.664 45.85-12.047 12.156-8.518 17.583-22.488 14.162-36.457-3.699-15.119-16.758-27.201-32.06-29.877z" fill="#fff"/><g><path d="m385.757 891.97c-15.228 0-28.005-1.549-39.06-4.736-.58-.17-.969-.711-.941-1.314.026-.602.463-1.107 1.057-1.223 5.559-1.078 11.299-1.861 16.85-2.621 4.261-.584 8.477-1.162 12.557-1.857 31.933-5.473 63.895-10.785 95.859-16.082 84.826-14.053 162.361-26.67 237.031-38.566l16.666-2.666c24.649-3.951 50.139-8.037 75.28-11.57.062-.008.122-.014.183-.014.414 0 .809.199 1.057.541 3.434 4.732 6.926 8.748 10.679 12.275.366.344.501.867.349 1.346-.152.48-.566.828-1.064.898-67.25 9.316-135.254 21.021-201.016 32.342-46.574 8.018-94.734 16.305-142.254 23.684-3.605.559-7.52 1.205-11.677 1.891-20.706 3.418-46.472 7.672-71.556 7.672zm-46.775-7.465c-.166 0-.332-.033-.488-.096-8.428-3.395-15.559-8.049-21.189-13.834-.346-.357-.461-.883-.294-1.35.169-.471.587-.803 1.081-.859 5.631-.641 11.393-1.707 16.965-2.736 3.662-.678 7.299-1.35 10.872-1.902 28.376-4.381 56.729-8.885 85.083-13.391 41.213-6.551 82.422-13.139 123.631-19.729 33.359-5.334 66.719-10.666 100.082-15.979 31.908-5.082 63.818-10.16 95.748-15.121 4.242-.66 8.563-1.469 12.92-2.285 9.035-1.691 18.377-3.439 27.477-3.93.023 0 .047-.002.07-.002.518 0 .986.307 1.195.783 2.244 5.131 4.607 9.596 7.219 13.652.24.373.274.844.09 1.25-.187.404-.566.688-1.008.748-108.813 15.162-219.063 33.939-325.682 52.098-24.318 4.141-48.628 8.281-72.934 12.383-15.363 2.59-30.722 5.199-46.064 7.896-1.887.332-3.824.617-5.779.906-2.909.428-5.857.861-8.725 1.467-.09.019-.18.031-.27.031zm-24.424-17.77c-.4 0-.78-.184-1.03-.504-4.045-5.191-7.137-11.117-9.192-17.611-.085-.275-.354-1.311-.354-1.311-.104-.365-.041-.762.172-1.082.215-.316.557-.525.938-.568 7.277-.822 14.682-2.084 21.844-3.305 3.738-.637 7.464-1.271 11.179-1.85 29.665-4.611 59.321-9.283 88.978-13.957 63.612-10.029 127.215-20.104 190.821-30.174l74.745-11.857c30.287-4.822 60.574-9.645 90.889-14.297.068-.01.133-.016.201-.016.615 0 1.16.438 1.279 1.061 1.189 6.227 2.952 12.406 5.234 18.367.148.385.105.816-.115 1.164s-.591.572-1 .605c-6.781.539-13.769 1.834-20.527 3.088-3.673.682-7.316 1.355-10.896 1.908-28.376 4.379-56.729 8.883-85.083 13.389-41.213 6.551-82.422 13.139-123.631 19.729-33.359 5.334-66.719 10.668-100.082 15.979-31.908 5.082-63.818 10.16-95.748 15.123-4.261.662-8.601 1.477-12.977 2.299-8.393 1.576-17.07 3.207-25.549 3.816-.033.002-.065.004-.096.004zm-10.355-22.92c-.623 0-1.17-.447-1.283-1.074-1.504-8.307-.893-17.041 1.813-25.959.141-.453.512-.797.975-.895 7.658-1.658 15.572-2.875 23.225-4.053 3.992-.615 7.978-1.229 11.92-1.9 31.173-5.311 62.361-10.529 93.553-15.727 91.847-15.305 167.326-27.656 237.529-38.873 7.906-1.264 15.813-2.547 23.721-3.834 28.266-4.592 57.492-9.34 86.364-13.002.054-.006.11-.012.164-.012.335 0 .661.131.903.367.287.271.432.662.396 1.053-.771 8.855-.48 17.898.865 26.883.108.711-.382 1.373-1.092 1.484-79.504 12.176-160.266 25.068-238.365 37.533-46.441 7.414-92.884 14.826-139.339 22.139-10.972 1.727-22.224 3.725-33.103 5.656-22.354 3.967-45.468 8.068-68.121 10.207-.043.005-.083.007-.125.007zm3.588-30.566c-.377 0-.742-.164-.994-.459-.313-.367-.397-.881-.218-1.33 2.772-6.971 6.813-13.742 11.687-19.58.549-.654 1.129-1.266 1.711-1.877l.392-.414c.183-.191.415-.324.675-.381 28.738-6.184 58.365-10.953 87.019-15.566 14.026-2.26 28.038-4.516 41.974-6.936 77.826-13.51 155.67-26.918 233.525-40.256l24.162-4.15c26.586-4.572 54.078-9.301 81.152-13.744.069-.012.141-.018.211-.018.389 0 .765.176 1.014.484.295.363.374.857.203 1.295-3.057 7.867-5.174 16.262-6.297 24.949-.076.59-.541 1.055-1.133 1.129-41.674 5.227-83.885 12.236-124.701 19.014-13.152 2.184-26.301 4.365-39.447 6.494-75.474 12.225-153.871 25.16-233.013 38.453-8.847 1.482-17.808 2.801-26.795 4.121-16.807 2.471-34.185 5.025-50.843 8.74-.095.02-.189.032-.284.032zm20.27-27.463c-.508 0-.979-.297-1.191-.773-.25-.557-.079-1.209.406-1.576 13.632-10.238 32.028-14.729 48.262-18.689 3.662-.893 7.258-1.771 10.726-2.691 107.567-28.555 220.14-44.078 329.005-59.09 12.15-1.676 24.289-3.348 36.412-5.039 7.309-1.02 14.797-1.744 22.725-2.512 7.25-.703 14.75-1.43 22.078-2.402.056-.006.114-.01.17-.01.439 0 .854.219 1.096.594.273.422.281.963.018 1.393-1.875 3.063-3.648 6.465-5.426 10.398-.18.398-.549.682-.98.752-102.67 16.736-206.875 34.984-307.646 52.631-26.127 4.576-52.252 9.15-78.377 13.707-9.082 1.582-18.207 3.078-27.344 4.574-16.332 2.678-33.219 5.445-49.678 8.707-.088.018-.172.026-.256.026z" fill="#fdf39b"/><path d="m342.049 727.542c-9.855 0-17.86-2.875-24.471-8.783-10.381-9.279-11.205-26.473-11.867-40.287-.176-3.658-.342-7.145-.666-10.271-1.59-15.307-3.396-30.557-4.793-42.127-5.961-49.391-13.895-100.207-24.254-155.355-9.996-53.229-21.92-106.637-32.314-152.52-1.369-6.041-3.035-12.191-4.799-18.705-5.234-19.33-10.646-39.318-8.74-58.385.034-.326.189-.631.437-.848 16.384-14.471 40.394-19.822 61.575-24.547l4.863-1.088c29.574-6.688 57.4-13.695 85.067-21.422 36.831-10.287 70.062-19.453 103.796-27.453 28.693-6.803 59.403-11.395 99.578-14.885 13.948-1.213 28.145-2.234 41.872-3.221l8.46-.609 2.406-.201c1.913-.168 3.809-.332 5.664-.332 3.211 0 7.398.418 11.283 3.691 5.959 5.023 7.188 13.467 8.271 20.918.164 1.127.323 2.223.496 3.275 2.156 13.137 6.133 26.1 9.975 38.637l1.184 3.869c4.693 15.395 7.947 31.277 11.095 46.637l1.415 6.889c8.549 41.277 18.551 82.967 28.225 123.287 6.867 28.629 13.971 58.232 20.496 87.449 4.457 19.955 10.283 39.943 15.918 59.277 3.07 10.523 6.243 21.404 9.158 32.16 2.156 7.953 4.701 15.93 7.164 23.643 1.29 4.043 2.58 8.088 3.826 12.152l.621 2.012c3.031 9.82 6.807 22.041 4.814 32.754-.1.527-.506.938-1.029 1.043-5.639 1.113-11.572 1.572-17.313 2.014-3.662.283-7.117.549-10.145.969-16.135 2.242-32.254 4.588-48.369 6.975-34.874 5.168-70.942 11.01-107.207 17.365-74.224 13.008-140.254 27.309-201.867 43.711-4.348 1.158-8.956 2.686-13.834 4.303-11.325 3.755-24.16 8.009-35.991 8.009z" fill="#ff905b"/><path d="m339.162 921.935c-53.781-.002-86.035-23.287-98.605-71.184-6.836-26.057-8.852-54.197-10.801-81.416-.596-8.313-1.186-16.566-1.906-24.682l-1.396-15.813c-2.859-32.447-5.813-66-9.77-98.896-7.105-59.064-20.346-117.994-33.151-174.982-2.433-10.824-4.866-21.652-7.261-32.49-9.432-42.686-15.824-77.555-20.119-109.729-4.055-30.363-8.646-64.779 6.43-95.631 26.707-54.646 98.758-70.594 151.368-82.236l2.835-.629c74.48-16.508 136.4-28.648 194.863-38.211 33.977-5.555 68.166-10.117 101.619-13.561 4.635-.479 9.729-1.188 15.094-1.934 11.578-1.612 24.699-3.438 37.111-3.438 26.023 0 42.108 8.45 49.17 25.835 4.014 9.879 5.254 21.391 6.453 32.521.52 4.807 1.01 9.348 1.707 13.723 2.971 18.604 6.197 36.867 8.672 50.701 5.588 31.191 12.382 65.256 20.768 104.146 13.748 63.74 29.662 127.703 45.049 189.563 7.623 30.631 15.237 61.262 22.691 91.932 3.842 15.797 7.605 31.615 11.329 47.441 1.876 7.969 3.715 15.949 5.554 23.928 1.611 6.988.951 12.438-1.889 16.5-5.148 7.369-16.412 8.779-24.639 9.809-1.084.135-2.125.266-3.101.402l-37.913 5.297c-48.865 6.811-99.395 13.854-149 21.404-74.094 11.275-130.881 21.463-184.135 33.031-26.068 5.662-51.467 12.029-75.489 18.924-16.991 4.877-33.372 10.447-46.995 24.842-5.127 5.414-9.258 11.723-12.282 18.748-.209.49-.688.793-1.198.793-.115 0-.232-.016-.349-.051-.63-.172-1.032-.785-.944-1.432.483-3.568 1.055-6.746 1.747-9.709 1.396-5.998 4.032-11.35 6.581-16.525 1.195-2.428 2.418-4.912 3.509-7.455-16.833 11.412-19.26 43.668-16.661 62.207.932 6.635 2.613 13.068 5.002 19.121 1.897 5.865 4.504 11.23 7.777 16.025 13.354 19.537 37.677 29.033 74.361 29.033 17.143 0 34.052-1.961 48.967-3.693l6.727-.773c71.914-8.088 144.501-21.105 214.697-33.695 60.293-10.814 122.641-21.998 184.339-30.018 9.289.102 11.407 3.334 11.583 6.027.387 6.014-9.092 13.527-14.607 14.311-5.624.799-11.241 1.643-16.858 2.488l-.872.129c-12.561 1.887-25.102 3.898-37.641 5.928-28.93 4.686-58.293 9.758-86.691 14.662l-18.982 3.283c-53.752 9.299-109.334 18.914-164.182 27.314-53.358 8.174-108.533 16.627-163.65 18.047-1.658.044-3.293.068-4.916.068zm318.945-809.916c-10.6 0-22.402 1.688-31.887 3.043-5.154.738-9.605 1.373-13.217 1.674-31.453 2.604-64.59 7.092-107.438 14.551-81.139 14.125-156.854 33.33-225.043 57.082-31.297 11.266-62.535 28.25-56.83 68.756 5.521 39.215 15.113 78.887 24.389 117.252 6.022 24.91 12.251 50.668 17.285 76 13.025 65.516 23.521 132.949 31.201 200.426.451 3.971.846 8.107 1.246 12.32 3.161 33.303 6.748 71.047 43.668 71.047 3.102 0 6.438-.266 9.92-.793 18.088-2.73 36.623-8.389 54.55-13.859 11.354-3.465 23.094-7.051 34.511-9.816 30.734-7.449 64.279-14.662 105.567-22.697 59.183-11.516 124.44-22.17 205.375-33.527 2.821-.396 6.171-.662 9.79-.945 13.861-1.088 31.111-2.443 38.199-12.465 7.371-10.422 3.631-24.543.334-37.006-.442-1.67-.875-3.299-1.264-4.871-7.544-30.381-15.646-61.17-23.48-90.947-3.713-14.105-7.425-28.209-11.092-42.324-15.775-60.691-33.969-131.348-50.252-201.893-7.57-32.813-13.246-59.76-17.861-84.805-2.352-12.771-4.227-26.553-5.73-42.127-.623-6.451-1.67-13.129-6.875-17.686-4.909-4.301-13.11-6.39-25.066-6.39z" fill="#7761d5"/><path d="m781.465 642.999c-.308 0-.611-.111-.852-.318-.338-.289-.504-.732-.441-1.174 2.016-14.105-3.908-30.4-9.133-44.779-1.42-3.904-2.779-7.646-3.906-11.139-8.486-26.357-15.712-53.76-22.699-80.258l-1.841-6.982c-5.444-20.607-10.167-41.781-14.735-62.256-2.971-13.318-6.043-27.088-9.277-40.555l-3.424-14.213c-7.105-29.482-14.451-59.969-21.09-90.096-2.123-9.643-4.078-19.318-6.033-28.992-1.524-7.553-3.051-15.1-4.656-22.637-2.146-10.066-5.262-20.113-8.273-29.828-2.057-6.635-4.185-13.498-5.992-20.324-.947-3.578-1.607-7.65-2.308-11.963-2.485-15.34-5.304-32.723-22.626-32.982l-2.025-.014c-9.899 0-20.133 1.037-30.031 2.037-4.793.486-9.562.971-14.283 1.338-19.063 1.49-35.813 3.131-51.209 5.018-33.739 4.137-67.09 12.109-95.26 19.361-17.374 4.475-34.959 9.533-51.963 14.424-27.104 7.799-55.133 15.863-83.135 21.803-4.146.879-8.48 1.727-12.924 2.594-23.916 4.68-51.023 9.98-70.029 24.414-.232.178-.512.268-.79.268-.245 0-.49-.07-.706-.209-.461-.295-.688-.848-.566-1.383 5.139-22.914 31.319-32.336 50.436-39.217 115.471-40.229 236.613-65.441 350.75-73.066 8.379-.563 18.316-1.133 28.5-1.133 2.402 0 4.803.031 7.203.102 14.305.416 15.092 10.67 15.853 20.586l.257 3.174c1.738 19.207 5.607 38.51 9.352 57.176l.488 2.438c9.766 48.76 21.73 97.723 34.159 147.771 13.272 53.428 27.556 108.166 40.157 156.461l1.322 5.064c5.057 19.375 10.113 38.746 15.127 58.135.723 2.797 1.939 6.504 3.348 10.795 6.271 19.098 15.75 47.959 1.727 56.988-2.123 1.367-4.77 2.518-8.093 3.516-.127.034-.252.055-.379.055z" fill="#ff811d"/><path d="m818.377 589.692c-4.027-5.986-7.351-12.32-11.1-19.986-7.908-16.166-13.121-49.055-18.2-65.771-9.876-32.479-14.409-45.377-17.767-70.684-1.074-8.1-2.148-16.199-3.324-24.275-3.018-20.758-6.121-36.6-10.061-51.367-3.596-13.486-8.041-26.982-12.34-40.035l-2.35-7.143c-4.779-14.598-10.189-31.609-13.902-48.842-3.813-17.717-6.137-35.93-7.906-51.406-.719-6.309-1.387-12.623-2.055-18.936-1.086-10.293-2.213-20.938-3.563-31.369l-.625-4.918c-1.906-15.082-3.877-30.676-9.264-44.332-5.422-13.738-18.284-20.137-40.479-20.137-7.445 0-14.996.689-21.656 1.299l-5.209.465c-35.865 3.002-72.459 8.604-104.744 13.545-34.277 5.244-69.678 11.004-105.225 17.123l-18.547 3.184c-28.4 4.873-57.768 9.91-86.587 15.164l-9.458 1.717c-13.744 2.492-27.955 5.068-41.869 7.879-3.408.689-6.813 1.4-10.219 2.107-6.301 1.314-12.605 2.627-18.932 3.814l-.692-2.51c24.013-8.857 49.417-14.482 71.829-19.443l2.65-.588c74.48-16.508 136.4-28.648 194.863-38.211 33.975-5.555 68.166-10.117 101.619-13.563 4.635-.477 9.729-1.186 15.094-1.932 11.578-1.612 24.701-3.438 37.111-3.438 26.023 0 42.105 8.45 49.17 25.833 4.014 9.881 5.254 21.393 6.453 32.523.52 4.807 1.01 9.348 1.707 13.723 2.973 18.605 6.197 36.869 8.672 50.701 5.588 31.191 12.382 65.256 20.77 104.146 13.746 63.736 29.66 127.701 45.047 189.563 7.623 30.631 15.237 61.262 22.691 91.932l.746 3.133z" fill="#9588f3"/><g fill="#584abb"><path d="m817.412 661.497c-17.066 5.518-35.881 7.803-54.131 10.018l-8.795 1.078c-8.428 1.066-16.854 2.105-25.275 3.145l-.521.063c-35.662 4.4-72.537 8.951-108.656 15.385-48.648 8.668-96.885 19.42-133.476 27.816-11.063 2.539-22.155 5.027-33.653 7.607-32.021 7.18-65.133 14.604-97.313 23.268-14.369 3.871-32.002 9.873-44.942 21.848-1.062 2.453-2.235 4.859-3.39 7.203-2.549 5.176-5.185 10.527-6.581 16.525-.692 2.963-1.264 6.141-1.747 9.709-.088.646.314 1.26.944 1.432.116.035.233.051.349.051.51 0 .989-.303 1.198-.793 3.024-7.025 7.155-13.334 12.282-18.748 13.623-14.395 30.004-19.965 46.995-24.842 24.022-6.895 49.421-13.262 75.489-18.924 53.254-11.568 110.041-21.756 184.135-33.031 49.605-7.551 100.135-14.594 149-21.404l37.913-5.297c.976-.137 2.017-.268 3.101-.402 8.227-1.029 19.49-2.439 24.639-9.809 2.84-4.063 3.5-9.512 1.889-16.5-.854-3.703-1.72-7.406-2.578-11.107l-2.686 3.803c-4.026 5.695-7.979 9.9-14.19 11.906z"/><path d="m847.074 833.872-1.392.164c-7.832.926-15.653 1.936-23.935 3.006-22.533 2.922-45.421 6.352-69.967 10.488-39.818 6.713-79.963 14.625-118.783 22.277l-20.133 3.957c-44.564 8.748-92 17.875-138.891 24.922-22.641 3.402-44.818 6.594-67.223 8.225-7.582.553-14.281.82-20.479.82-38.43 0-102.664 12.514-127.184-61.855-10.209-30.961-5.375-79.824-32.822-256.238-13.9-89.346-34.039-150.521-37.025-166.68-13.049-70.613-22.436-123.014-23.793-143.531-2.652-40.143 4.604-69.078 32.5-102.49-14.777 10.447-27.209 23.482-35.367 40.176-15.076 30.852-10.484 65.268-6.43 95.631 4.295 32.174 10.688 67.043 20.119 109.729 2.395 10.838 4.828 21.666 7.261 32.49 12.806 56.988 26.046 115.918 33.151 174.982 3.956 32.896 6.91 66.449 9.77 98.896l1.396 15.813c.721 8.115 1.311 16.369 1.906 24.682 1.949 27.219 3.965 55.359 10.801 81.416 12.57 47.896 44.824 71.182 98.605 71.184 1.623 0 3.258-.023 4.914-.066 55.117-1.42 110.292-9.873 163.65-18.047 54.848-8.4 110.43-18.016 164.182-27.314l18.982-3.283c28.398-4.904 57.762-9.977 86.691-14.662 12.539-2.029 25.08-4.041 37.641-5.928l.872-.129c5.617-.846 11.234-1.689 16.858-2.488 5.516-.783 14.994-8.297 14.607-14.311-.036-.6-.193-1.225-.482-1.836z"/></g><g fill="#f5b179"><path d="m304.203 843.815c.042 0 .082-.002.125-.006 22.653-2.139 45.768-6.24 68.121-10.207 10.879-1.932 22.131-3.93 33.103-5.656 46.455-7.313 92.897-14.725 139.339-22.139 78.1-12.465 158.861-25.357 238.365-37.533.71-.111 1.2-.773 1.092-1.484-.418-2.791-.699-5.586-.912-8.383-10.756 2.295-21.383 4.547-31.766 6.381-52.629 9.301-106.41 13.58-159.311 21.549-54.693 8.24-109.791 12.953-164.051 24.021-42.79 8.727-84.691 11.617-126.09 22.807-.033 3.238.135 6.445.701 9.576.114.627.661 1.074 1.284 1.074z"/><path d="m326.869 785.013c.213.477.684.773 1.191.773.084 0 .169-.008.254-.027 16.459-3.262 33.346-6.029 49.678-8.707 9.137-1.496 18.262-2.992 27.344-4.574 26.125-4.557 52.25-9.131 78.377-13.707 100.771-17.646 204.977-35.895 307.646-52.631.432-.07.801-.354.98-.752 1.268-2.811 2.551-5.277 3.854-7.613-19.162 3.289-38.336 6.537-57.504 9.793-52.785 8.967-105.891 15.955-158.659 25.006-51.551 8.846-102.548 20.705-154.135 29.387-25.394 4.273-50.681 8.973-75.982 13.764-4.046.768-8.536 1.303-13.182 1.877-3.317 1.729-6.513 3.625-9.456 5.836-.485.366-.656 1.018-.406 1.575z"/><path d="m338.982 884.505c.09 0 .18-.012.27-.029 2.867-.605 5.815-1.039 8.725-1.467 1.955-.289 3.893-.574 5.779-.906 15.343-2.697 30.701-5.307 46.064-7.896 24.306-4.102 48.615-8.242 72.934-12.383 106.619-18.158 216.869-36.936 325.682-52.098.441-.061.821-.344 1.008-.748.185-.406.15-.877-.09-1.25-1.104-1.717-2.145-3.555-3.17-5.434-16.038 3.467-31.9 6.975-47.319 9.41-51.153 8.08-102.643 13.574-153.774 21.936-52.129 8.525-104.414 16.621-156.389 26.018-27.492 4.973-54.854 10.75-82.577 14.338-9.62 1.244-19.835 2.004-29.472 4.248 3.594 2.369 7.545 4.436 11.842 6.166.155.062.321.095.487.095z"/></g><g fill="#f5b179"><path d="m621.968 850.485c-82.919 12.658-169.362 19.707-250.895 40.871 4.659.365 9.479.613 14.684.613 25.084 0 50.851-4.254 71.555-7.674 4.157-.686 8.071-1.332 11.677-1.891 47.52-7.379 95.68-15.666 142.254-23.684 65.762-11.32 133.766-23.025 201.016-32.342.498-.07.912-.418 1.064-.898.152-.479.018-1.002-.349-1.346-1.516-1.424-2.981-2.953-4.425-4.553-15.764 2.307-31.535 4.561-47.287 6.938-46.593 7.033-92.699 16.853-139.294 23.966z"/><path d="m306.579 811.46c-.18.449-.095.963.218 1.33.252.295.617.459.994.459.095 0 .189-.012.283-.031 16.658-3.715 34.036-6.27 50.843-8.74 8.987-1.32 17.948-2.639 26.795-4.121 79.142-13.293 157.539-26.229 233.013-38.453 13.146-2.129 26.295-4.311 39.447-6.494 40.816-6.777 83.027-13.787 124.701-19.014.592-.074 1.057-.539 1.133-1.129.383-2.961.922-5.867 1.534-8.75-23.436 4.756-47.239 8.029-70.897 11.338-49.465 6.916-98.803 13.164-147.99 22.012-49.504 8.906-98.855 18.578-148.42 27.15-23.351 4.037-46.65 8.352-70.01 12.336-12.732 2.17-25.717 3.721-38.621 5.625-1.112 2.13-2.151 4.287-3.023 6.482z"/><path d="m314.558 866.735c.031 0 .063-.002.095-.004 8.479-.609 17.156-2.24 25.549-3.816 4.376-.822 8.716-1.637 12.977-2.299 31.93-4.963 63.84-10.041 95.748-15.123 33.363-5.311 66.723-10.645 100.082-15.979 41.209-6.59 82.418-13.178 123.631-19.729 28.354-4.506 56.707-9.01 85.083-13.389 3.579-.553 7.223-1.227 10.896-1.908 6.759-1.254 13.746-2.549 20.527-3.088.409-.033.78-.258 1-.605.221-.348.264-.779.115-1.164-1.145-2.988-2.156-6.033-3.033-9.109-17.266 3.975-34.492 7.578-52.172 10.242-51.328 7.736-102.624 15.666-153.932 23.537-53.375 8.188-106.859 15.646-160.235 23.805-28.547 4.361-56.776 10.82-85.429 14.486-9.223 1.18-18.597 2.363-27.598 4.629 1.611 3.193 3.49 6.215 5.666 9.01.249.321.629.504 1.03.504z"/></g><path d="m700.949 654.153c16.115-2.387 32.234-4.732 48.369-6.975 3.027-.42 6.482-.686 10.145-.969 5.74-.441 11.674-.9 17.313-2.014.523-.105.93-.516 1.029-1.043 1.992-10.713-1.783-22.934-4.814-32.754l-.621-2.012c-1.246-4.064-2.536-8.109-3.826-12.152-2.463-7.713-5.008-15.689-7.164-23.643-2.915-10.756-6.088-21.637-9.158-32.16-2.711-9.309-5.463-18.77-8.09-28.303 7.2 44.521 12.291 97.947-37.781 115.145-37.117 12.746-81.594 12.84-120.315 18.896-51.452 8.051-103.081 14.811-154.288 24.369-16.643 3.105-33.332 5.537-50.293 4.754-26.746-1.236-36.418-21.807-42.443-44.654-13.955-52.904-12.681-108.844-22.094-162.6-9.721-55.52-29.215-108.92-40.604-164.102-5.386-26.088-9.365-56.203-4.5-83.318-15.084 4.088-29.963 9.688-41.231 19.641-.247.217-.402.521-.437.848-1.906 19.066 3.506 39.055 8.74 58.385 1.764 6.514 3.43 12.664 4.799 18.705 10.395 45.883 22.318 99.291 32.314 152.52 10.359 55.148 18.293 105.965 24.254 155.355 1.396 11.57 3.203 26.82 4.793 42.127.324 3.127.49 6.613.666 10.271.662 13.814 1.486 31.008 11.867 40.287 6.61 5.908 14.615 8.783 24.471 8.783 11.831 0 24.666-4.254 35.992-8.01 4.878-1.617 9.486-3.145 13.834-4.303 61.613-16.402 127.644-30.703 201.867-43.711 36.264-6.353 72.332-12.195 107.206-17.363z" fill="#ff564d"/><g fill="#f16200"><path d="m784.859 571.644c-5.014-19.389-10.07-38.76-15.127-58.135l-1.322-5.064c-12.602-48.295-26.885-103.033-40.157-156.461-1.593-6.414-3.146-12.762-4.718-19.141 5.064 51.9 12.91 103.621 20.508 155.014 1.822 12.324 3.703 24.646 5.557 36.975 5.42 20.289 11.113 40.82 17.533 60.758 1.127 3.492 2.486 7.234 3.906 11.139 5.225 14.379 11.148 30.674 9.133 44.779-.063.441.104.885.441 1.174.24.207.544.318.852.318.127 0 .252-.021.376-.057 3.323-.998 5.97-2.148 8.093-3.516 14.023-9.029 4.545-37.891-1.727-56.988-1.408-4.292-2.625-7.999-3.348-10.795z"/><path d="m532.986 132.729c-83.586 12.48-168.879 33.494-251.295 62.207-19.116 6.881-45.297 16.303-50.436 39.217-.121.535.105 1.088.566 1.383.216.139.461.209.706.209.278 0 .558-.09.79-.268 19.006-14.434 46.113-19.734 70.029-24.414 3.891-.76 7.672-1.506 11.342-2.271 23.311-11.168 47.002-21.475 71.15-30.854 48.285-18.75 97.531-32.357 147.148-45.209z"/></g><g><path d="m346.973 267.681c32.428 2.918 66.366-7.865 98.115-13.436 34.803-6.107 68.406-11.971 101.68-24.088 11.552-4.205 9.861-21.061-2.92-21.59-34.264-1.418-66.16 3.182-99.846 9.113-33.762 5.947-73.385 11.256-102.141 31.127-8.545 5.905-5.05 17.958 5.112 18.874z" fill="#fdc671"/></g><g><path d="m573.262 225.188c11.18 3.824 28.682 4.895 37.074-4.766 3.348-3.854 4.218-8.723 1.72-13.318-8.619-15.842-33.276-11.525-43.478.344-5.344 6.219-3.184 15.047 4.684 17.74z" fill="#fdc671"/></g><g fill="#ff564d"><path d="m396.299 379.757c-8.824-7.936-23.762-4.969-34.242-4.131-50.109 4-10.338-73.047 15.121-44.559 3.77 4.221 9.941-1.994 6.193-6.189-26.471-29.621-71.326 22.879-48.398 49.482 19.227 22.311 62.592-6.869 65.416 34.145 1.3 18.904-21.996 45.148-40.399 29.156-10.423-9.057-4.987-28.223 10.364-23.365 5.398 1.707 7.69-6.748 2.328-8.445-15.939-5.043-29.607 6.498-26.049 23.584 4.506 21.643 25.68 25.361 43.388 16.139 23.556-12.272 24.555-49.389 6.278-65.817z"/><path d="m411.863 326.946c.385-1.168.851-2.273 1.361-3.342 7.16 15.887 14.002 33.109 18.385 50.635-3.411-1.131-6.557-3.338-9.242-6.881-3.363-4.438-10.973-.082-7.561 4.422 5.424 7.158 11.963 10.73 18.871 11.672 3.191 16.324 3.934 32.746.392 48.445-1.241 5.498 7.2 7.836 8.444 2.326 3.766-16.688 3.158-33.879-.019-50.916 21.578-3.424 43.753-27.918 45.729-48.068 1.949-19.863-15.957-35.664-34.148-38.236-13.418-1.895-28.217 1.898-38.687 10.512-.229-.48-.458-.977-.687-1.457-2.416-5.1-9.965-.65-7.559 4.422.58 1.223 1.166 2.48 1.748 3.725-2.336 3.096-4.207 6.572-5.475 10.418-1.769 5.374 6.689 7.661 8.448 2.323zm67.172 11.559c-2.328 13.881-21.34 34.104-38.308 36.43-4.841-20.613-13.075-40.816-21.628-59.443 19.753-19.104 65.498-10.155 59.936 23.013z"/><path d="m493.857 378.054c.238 2.047.52 4.055.874 5.986 2.496 13.477 15.307 25.986 29.903 22.414 21.746-5.318 28.27-20.074 31.724-40.1.951-5.521-7.487-7.885-8.446-2.326-2.797 16.238-11.713 42.854-36.109 31.809-5.625-2.549-8.133-8.938-9.226-15.734 25.452 2.9 50.339-21.15 58.114-43.691 7.951-23.049-19.766-54.555-42.131-36.461-18.633 15.08-26.186 44.885-25.297 69.926-2.768 1.476-3.204 6.583.594 8.177zm7.985-14.153c.409-16.682 6.109-34.855 14.763-48.982 6.368-10.4 15.913-13.607 26.753-7.248 13.788 8.088 11.018 24.055 4.803 35.678-8.277 15.477-28.01 30.537-46.352 27.709-.061-2.645-.019-5.116.033-7.157z"/><path d="m615.469 378.396c1.846-5.354-6.615-7.631-8.443-2.326-14.469 12.975-22.631 13.027-24.48.158-.99-4.316-1.59-8.684-1.797-13.1-.471-5.832-.262-11.738-.181-17.582.297-21.395 3.333-42.77 8.63-63.48 1.402-5.473-7.047-7.795-8.445-2.326-8.055 31.488-14.887 71.131-5.365 103.141 7.544 25.366 33.333 15.1 40.081-4.485z"/><path d="m622.867 366.442c10.623 23.834 35.455 6.154 42.514-9.986 2.242-5.123-5.301-9.584-7.559-4.422-5.693 13.01-23.519 22.752-29.811 3.611-2.205-6.707-2.43-14.098-2.533-21.105-.291-19.703 8.828-38.254 6.568-58.016-.635-5.545-9.4-5.605-8.76 0 3.554 31.061-14.167 59.071-.419 89.918z"/><path d="m654.373 410.677c-92.959 11.084-184.817 29.705-271.398 66.174-5.387 2.27-3.023 11.188 2.447 8.883 85.793-36.139 176.818-54.861 268.951-65.846 5.822-.696 5.889-9.912 0-9.211z"/><path d="m680.469 407.608c-4.09.002-8.057.449-11.967 1.697-5.639 1.799-3.227 10.693 2.445 8.883 3.199-1.021 6.185-1.367 9.521-1.369 5.94-.006 5.94-9.215.001-9.211z"/></g><g fill="#68182b"><path d="m838.143 821.954c-.566-.205-1.223-.293-1.996-.191-4.037.523-8.06 1.127-12.092 1.668-.164-.162-.321-.33-.52-.479-38.684-29.236-42.205-93.006-14.373-130.641 7.785-1.473 15.354-3.369 22.4-6.123 17.234-6.734 14.453-24.762 11.113-39.262-14.879-64.576-31.197-128.813-47.121-193.139-15.717-63.502-30.814-127.148-43.982-191.232-6.723-32.713-12.773-65.561-18.356-98.486-4.046-23.863-2.265-60.451-19.903-79.523-15.413-16.666-33.375-14.822-54.663-13.635-31.211 1.738-62.381 5.122-93.354 9.287-66.628 8.957-132.693 21.373-198.477 35.16-89.287 18.715-225.504 38.309-222.514 156.674 1.729 68.494 20.879 137.578 35.906 204.002 16.82 74.355 28.968 148.424 35.855 224.371 4.414 48.656 6.252 98.438 15.516 146.475 5.219 27.047 17.645 52.191 40.9 67.773 23.695 15.873 55.9 15.9 83.17 14.717 37.732-1.637 75.447-6.795 112.833-11.914 90.792-12.43 180.938-29.295 271.268-44.633 19.728-3.35 39.472-6.604 59.231-9.738 14.819-2.35 37.428-1.246 49.932-10.01 14.623-10.244 3.299-29.267-10.773-31.121zm-26.065 3.133c-114.896 15.918-228.678 38.234-343.289 56.027-30.767 4.775-83.754 15.816-121.729 4.863 9.748-1.889 19.935-2.857 29.379-4.475 31.931-5.471 63.892-10.781 95.854-16.078 78.971-13.084 157.973-25.973 237.021-38.566 30.613-4.877 61.223-9.918 91.924-14.232 3.236 4.461 6.805 8.666 10.84 12.461zm-492.809-32.369c.651-.781 1.356-1.498 2.048-2.232 42.555-9.156 86.108-15.059 128.941-22.492 77.826-13.51 155.668-26.92 233.523-40.256 35.09-6.012 70.172-12.127 105.305-17.893-3.135 8.068-5.252 16.564-6.375 25.254-54.916 6.891-109.58 16.672-164.195 25.516-77.711 12.586-155.385 25.416-233.02 38.453-25.631 4.303-52.209 7.191-77.705 12.875 2.793-7.02 6.767-13.583 11.478-19.225zm463.788-25.735c-125.992 19.295-251.798 39.855-377.707 59.674-33.408 5.258-67.471 12.674-101.145 15.852-1.529-8.447-.721-17.117 1.778-25.348 11.558-2.498 23.496-3.963 35.088-5.939 31.171-5.313 62.358-10.529 93.547-15.725 79.135-13.188 158.3-26.215 237.522-38.873 36.609-5.85 73.248-12.164 110.042-16.83-.789 9.055-.471 18.201.875 27.189zm-464.817 102.68c9.344-1.063 18.814-3.244 27.889-4.645 28.375-4.381 56.731-8.887 85.087-13.393 74.579-11.852 149.138-23.832 223.713-35.707 31.909-5.082 63.817-10.158 95.743-15.121 13.086-2.035 26.908-5.482 40.268-6.199 2.102 4.803 4.496 9.455 7.316 13.834-133.248 18.566-266.01 42.104-398.654 64.488-15.365 2.59-30.726 5.197-46.072 7.896-4.707.828-9.736 1.367-14.547 2.381-7.946-3.198-14.983-7.616-20.743-13.534zm439.281-74.557c-28.375 4.379-56.731 8.885-85.088 13.391-74.578 11.852-149.137 23.832-223.712 35.707-31.909 5.082-63.817 10.158-95.743 15.121-12.482 1.941-25.637 5.188-38.421 6.104-3.782-4.854-6.86-10.512-8.978-17.201-.132-.42-.225-.848-.344-1.271 11.057-1.252 22.125-3.459 33.076-5.16 29.666-4.611 59.324-9.285 88.979-13.959 77.068-12.15 154.124-24.365 231.183-36.566 41.754-6.613 83.486-13.348 125.269-19.762 1.216 6.367 2.999 12.592 5.298 18.59-10.505.837-21.269 3.424-31.519 5.006zm33.629-90.255c-128.854 21.004-257.428 43.918-386.039 66.34-25.586 4.459-51.508 8.227-77.051 13.289 16.4-12.318 39.433-16.088 58.537-21.162 119.342-31.682 243.188-47.08 365.262-64.098 14.166-1.975 29.666-2.908 44.793-4.91-2.068 3.378-3.865 6.916-5.502 10.541zm41.619 143.873c-5.919.842-11.827 1.732-17.739 2.621-12.566 1.887-25.113 3.898-37.656 5.93-29.723 4.811-59.393 9.945-89.061 15.07-60.203 10.402-120.389 20.936-180.783 30.186-53.984 8.271-108.8 16.625-163.487 18.035-51.8 1.332-88.587-18.188-102.222-70.146-8.883-33.846-9.582-71.115-12.672-105.879-3.402-38.287-6.577-76.582-11.169-114.75-8.438-70.168-25.205-138.695-40.433-207.6-8.02-36.293-15.182-72.766-20.102-109.619-4.259-31.91-8.299-64.99 6.311-94.885 26.9-55.047 99.696-70.283 153.313-82.164 64.608-14.32 129.474-27.516 194.79-38.199 33.707-5.51 67.566-10.053 101.541-13.55 31.765-3.27 84.984-17.387 100.031 19.655 5.639 13.875 5.736 31.273 8.082 45.961 2.705 16.939 5.653 33.838 8.678 50.723 6.244 34.861 13.311 69.574 20.775 104.191 13.697 63.506 29.377 126.566 45.059 189.604 7.621 30.629 15.234 61.258 22.689 91.926 3.84 15.795 7.602 31.607 11.326 47.432 1.9 8.07 3.762 16.152 5.623 24.23 5.176 22.453-16.531 23.123-28.609 24.816-62.332 8.74-124.699 17.232-186.926 26.703-61.678 9.387-123.238 19.799-184.215 33.047-25.386 5.514-50.605 11.777-75.574 18.945-18.362 5.27-34.211 11.07-47.584 25.197-5.35 5.652-9.531 12.158-12.531 19.133.436-3.211.984-6.414 1.725-9.588 2.248-9.652 7.742-17.506 11.148-26.566.102-.27-.23-.457-.449-.344-19.896 10.236-22.496 46.031-19.834 65.021.945 6.732 2.637 13.223 5.08 19.418 1.846 5.719 4.455 11.217 7.916 16.281 27.031 39.555 91.588 29.594 131.277 25.129 133.719-15.039 265.541-46.357 399.059-63.715 20.636.255 4.614 16.616-3.377 17.751z"/><path d="m351.598 734.667c29.719-4.488 59.857-16.594 89.173-23.697 34.964-8.477 70.198-15.813 105.509-22.686 68.072-13.246 136.643-23.881 205.309-33.516 13.598-1.91 39.502-.701 48.871-13.949 8.76-12.383 2.561-29.707-.729-42.945-11.059-44.541-23.029-88.867-34.574-133.285-17.443-67.109-34.648-134.295-50.242-201.859-6.492-28.129-12.619-56.352-17.85-84.746-2.568-13.941-4.354-27.906-5.717-42.016-.674-6.98-1.828-13.742-7.314-18.543-14.805-12.959-53.924-3.418-71.137-1.992-36.057 2.986-71.928 8.365-107.556 14.566-76.21 13.268-152.158 31.678-225.247 57.137-33.289 11.982-63.371 29.85-57.693 70.17 9.123 64.793 28.911 129.063 41.688 193.324 13.185 66.324 23.537 133.135 31.183 200.32 4.352 38.248 3.21 91.738 56.326 83.717zm-69.057-538.648c111.809-38.947 231.811-64.951 349.988-72.846 11.828-.791 23.725-1.375 35.576-1.031 14.504.424 13.822 11.252 14.848 22.572 1.82 20.105 5.9 39.986 9.861 59.754 9.932 49.588 21.986 98.76 34.172 147.83 12.982 52.262 26.564 104.371 40.16 156.479 5.498 21.061 11 42.119 16.449 63.193 3.898 15.088 21.858 55.908 5.633 66.361-2.261 1.455-4.926 2.508-7.764 3.361 2.617-18.332-7.824-40.156-13.089-56.504-9.213-28.613-16.845-58.107-24.522-87.172-8.977-33.984-15.789-68.604-24.006-102.785-8.35-34.721-16.822-69.41-24.506-104.283-3.78-17.164-7.025-34.432-10.688-51.619-3.627-17.012-9.834-33.414-14.281-50.217-4.379-16.545-2.793-45.566-26.176-45.914-15.344-.225-31.164 2.168-46.461 3.365-17.121 1.338-34.221 2.934-51.268 5.023-32.348 3.967-63.9 11.277-95.426 19.393-45.066 11.605-89.516 26.559-135.042 36.213-26.569 5.635-60.671 9.93-83.473 27.246 5.021-22.375 31.075-31.603 50.015-38.419zm-37.584 121.892c-5.453-24.061-16.031-51.496-13.512-76.672 17.408-15.375 44.057-20.408 65.863-25.342 28.625-6.471 56.839-13.533 85.129-21.436 34.459-9.625 68.932-19.184 103.747-27.441 32.712-7.754 65.933-11.945 99.389-14.854 16.757-1.457 33.538-2.613 50.313-3.83 6.541-.475 12.939-1.76 18.419 2.855 6.465 5.449 7.052 15.67 8.319 23.406 2.391 14.557 6.904 28.598 11.199 42.676 5.361 17.586 8.758 35.43 12.48 53.41 14.621 70.604 33.01 140.393 48.724 210.756 6.894 30.863 16.819 60.99 25.091 91.494 3.273 12.08 7.338 23.871 11.002 35.834 3.166 10.336 7.467 23.039 5.399 34.146-9.208 1.822-19.644 1.896-27.382 2.971-16.139 2.242-32.262 4.588-48.381 6.979-35.822 5.307-71.57 11.117-107.24 17.367-67.867 11.896-135.383 26.006-201.977 43.736-22.498 5.992-52.691 22.057-73.094 3.816-12.602-11.264-10.541-34.627-12.104-49.719-1.46-14.066-3.102-28.111-4.797-42.15-6.285-52.078-14.582-103.891-24.266-155.439-9.592-51.092-20.837-101.868-32.321-152.563z"/><path d="m171.207 326.886c-.152-.416-.83-.383-.812.109.872 24.633 7.178 49.602 11.913 73.719 5.393 27.447 10.079 55.58 20.897 81.492.247.594 1.313.605 1.237-.168-2.463-25.152-9.02-49.646-14.363-74.309-5.782-26.707-9.411-55.142-18.872-80.843z"/><path d="m204.91 492.019c-.283 5.91 1.367 12.289 4.625 17.131.273.404.877.246.904-.246.328-5.742.025-12.48-3.283-17.492-.668-1.013-2.187-.612-2.246.607z"/></g></g></g></svg>