<svg id="Слой_1" height="132" viewBox="0 0 512 512" width="132" xmlns="http://www.w3.org/2000/svg"><g><g><g><g><g><g><g><g><g><g><g><g><g><g><g><g><path d="m303.023 267.02s22.278 3.415 36.437 26.085c14.159 22.669 16.682 42.479 14.102 46.968-2.581 4.488-40.065-23.073-40.065-23.073z" fill="#1a5fc4"/></g></g></g></g></g></g></g></g></g></g></g></g></g></g></g><g><g><g><g><g><g><g><g><g><g><g><g><g><g><g><path d="m355.511 331.004c-.846 0-1.585-.623-1.707-1.485-.057-.406-6.172-40.854-45.493-58.494-.869-.39-1.258-1.411-.868-2.281.39-.869 1.411-1.256 2.28-.868 21.484 9.638 33.252 25.737 39.341 37.547 6.594 12.788 8.097 23.182 8.157 23.619.131.944-.527 1.814-1.47 1.946-.08.011-.161.016-.24.016z" fill="#003677"/></g></g></g></g></g></g></g></g></g></g></g></g></g></g></g><g><g><g><g><g><g><g><g><g><g><g><g><g><g><g><path d="m185.038 267.02s-22.278 3.415-36.437 26.085c-14.159 22.669-16.682 42.479-14.102 46.968 2.58 4.488 40.065-23.073 40.065-23.073z" fill="#1a5fc4"/></g></g></g></g></g></g></g></g></g></g></g></g></g></g></g><g><g><g><g><g><g><g><g><g><g><g><g><g><g><g><path d="m132.55 331.004c-.08 0-.16-.005-.241-.017-.943-.131-1.601-1.002-1.47-1.946.061-.436 1.563-10.83 8.158-23.619 6.089-11.809 17.857-27.909 39.341-37.547.87-.39 1.89-.001 2.28.868s.002 1.89-.868 2.281c-39.321 17.639-45.436 58.087-45.493 58.494-.122.863-.861 1.486-1.707 1.486z" fill="#003677"/></g></g></g></g></g></g></g></g></g></g></g></g></g></g></g><g><g><g><g><g><g><g><g><g><g><g><g><g><g><g><path d="m226.522 412.532s.715 55.083-2.994 57.877c-1.734 1.306-53.613 2.588-54.503-.174-1.497-4.643 21.693-19.238 32.346-21.125 0 0-2.514-34.698-.294-36.918 1.968-1.97 23.648-3.92 25.445.34z" fill="#003677"/></g></g></g></g></g></g></g></g></g></g></g></g></g></g></g><g opacity=".5"><g><g><g><g><g><g><g><g><g><g><g><g><g><g><path d="m199.725 421.119.549 15.157 25.667 5.029.494-14.332z" fill="#00284f"/></g></g></g></g></g></g></g></g></g></g></g></g></g></g></g><g><g><g><g><g><g><g><g><g><g><g><g><g><g><g><path d="m266.907 412.532s-.715 55.083 2.994 57.877c1.734 1.306 53.478 2.588 54.369-.174 1.497-4.643-21.559-19.238-32.212-21.125 0 0 2.514-34.698.294-36.918-1.969-1.97-23.649-3.92-25.445.34z" fill="#003677"/></g></g></g></g></g></g></g></g></g></g></g></g></g></g></g><g opacity=".5"><g><g><g><g><g><g><g><g><g><g><g><g><g><g><path d="m293.513 421.119-.549 15.157-25.667 5.029-.494-14.332z" fill="#00284f"/></g></g></g></g></g></g></g></g></g></g></g></g></g></g></g><g><g><g><g><g><g><g><g><g><g><g><g><g><g><g><path d="m190.786 473.6c-8.126 0-18.286-.218-21.486-1.231-.386-.123-1.56-.494-1.918-1.605-.34-1.055-.111-2.257.681-3.573 3.667-6.093 21.393-16.91 31.483-19.45-.194-2.875-.617-9.488-.879-16.19-.732-18.658.425-19.814 1.189-20.579 2.358-2.356 16.749-3.4 23.085-2.161 2.848.557 4.539 1.555 5.17 3.052.087.206.132.425.135.648.002.138.176 13.961-.107 27.948-.587 29.079-2.457 30.487-3.575 31.329-1.597 1.203-16.963 1.614-25.979 1.752-1.998.029-4.757.06-7.799.06zm-19.938-4.362c6.628 1.556 46.452.826 51.632-.297 1.849-3.769 2.632-30.914 2.324-55.853-.235-.183-.833-.528-2.226-.83-6.236-1.349-18.143.118-20.198 1.129-.966 2.82-.411 20.093.712 35.598.064.882-.549 1.669-1.42 1.824-4.572.81-12.219 4.299-19.483 8.889-7.505 4.743-10.625 8.114-11.341 9.54zm54.091-56.022h.007z" fill="#00284f"/></g></g></g></g></g></g></g></g></g></g></g></g></g></g></g><g><g><g><g><g><g><g><g><g><g><g><g><g><g><g><path d="m302.562 473.6c-3.037 0-5.79-.031-7.786-.061-8.993-.138-24.316-.549-25.914-1.752-1.118-.842-2.989-2.25-3.575-31.329-.282-13.987-.108-27.81-.106-27.948.003-.223.049-.443.135-.648.631-1.496 2.322-2.494 5.171-3.052 6.336-1.239 20.728-.195 23.084 2.161.765.765 1.921 1.921 1.19 20.579-.263 6.704-.685 13.316-.879 16.191 10.034 2.534 27.676 13.337 31.343 19.43.797 1.325 1.028 2.533.687 3.593-.359 1.112-1.534 1.484-1.919 1.606-3.197 1.012-13.328 1.23-21.431 1.23zm-31.613-4.66c5.173 1.123 45.007 1.853 51.529.29-.679-1.358-3.763-4.745-11.297-9.53-7.231-4.593-14.855-8.083-19.423-8.892-.871-.154-1.484-.942-1.42-1.824 1.123-15.506 1.678-32.781.712-35.598-2.055-1.011-13.962-2.478-20.198-1.129-1.393.302-1.992.648-2.226.83-.309 24.94.474 52.086 2.323 55.853zm.128.222h.007z" fill="#00284f"/></g></g></g></g></g></g></g></g></g></g></g></g></g></g></g><g><g><g><g><g><g><g><g><g><g><g><g><g><g><g><g><path d="m248.316 240.005c-14.946.747-38.114 1.495-56.797 3.737 0 0-8.221 73.985-14.199 106.12-5.979 32.135-20.925 62.028-12.705 68.754 8.221 6.726 32.135 2.242 47.081 6.726 14.947 4.484 44.84 8.221 66.512.747 21.672-7.473 42.598 2.242 50.818-8.221 8.221-10.463-5.231-47.082-11.957-79.217s-11.21-98.647-11.21-98.647-42.8-.736-57.543.001z" fill="#1a5fc4"/></g></g></g></g></g></g></g></g></g></g></g></g></g></g></g><g opacity=".5"><g><g><g><g><g><g><g><g><g><g><g><g><g><g><path d="m311.884 303.035c1.689 3.179 3.617 9.208 3.556 12.807-.139 8.106.178 15.871 1.63 22.811 6.726 32.135 20.178 68.754 11.957 79.217s-29.146.747-50.818 8.221c-21.672 7.473-51.565 3.737-66.512-.747s-38.861 0-47.082-6.726c-4.179-3.419-2.367-12.832 1.206-25.476l.43.492c6.146 6.829 14.341 6.146 32.096 6.146s33.462 8.878 47.803 8.878 32.096-6.146 47.12-6.146 24.584-6.829 16.39-29.365c-8.195-22.536-13.93-55.37-13.93-55.37-23.973 37.444-55.421 45.435-55.421 45.435l1.744-30.357s50.535-64.876 50.535-66.924c9.958-4.55 22.923 1.209 30.037 9.532z" fill="#003677"/></g></g></g></g></g></g></g></g></g></g></g></g></g></g></g><g><g><g><g><g><g><g><g><g><g><g><g><g><g><g><path d="m248.802 432.074c-14.667.001-28.793-2.438-37.601-5.08-6.384-1.915-14.57-2.141-22.487-2.359-10.361-.286-20.147-.556-25.192-4.684-6.052-4.951-2.085-18.283 3.405-36.735 3.041-10.222 6.489-21.808 8.695-33.669 1.229-6.603 2.65-15.523 4.224-26.51.135-.943 1.01-1.605 1.952-1.463.943.135 1.598 1.01 1.463 1.952-1.581 11.034-3.01 20.002-4.247 26.651-2.24 12.04-5.715 23.718-8.781 34.022-4.723 15.874-8.802 29.583-4.527 33.081 4.133 3.381 13.347 3.635 23.102 3.905 8.141.224 16.56.457 23.383 2.504 14.549 4.365 43.985 8.172 65.454.769 10.348-3.568 20.307-3.334 29.092-3.128 9.531.224 17.06.402 20.932-4.528 5.543-7.054-.65-31.637-6.639-55.411-2.221-8.816-4.517-17.931-6.287-26.388-.195-.932.402-1.847 1.335-2.042.936-.193 1.847.403 2.042 1.336 1.756 8.388 4.044 17.47 6.256 26.252 6.759 26.829 12.596 49.998 6.006 58.385-4.94 6.288-13.644 6.082-23.727 5.846-8.494-.201-18.124-.427-27.885 2.94-9.158 3.159-19.696 4.354-29.968 4.354z" fill="#003677"/></g></g></g></g></g></g></g></g></g></g></g></g></g></g></g></g><g><g><g><g><g><g><g><g><g><g><g><g><g><g><g><g><path d="m132.04 163.839c4.114-9.122 33.201-39.62 74.619-45.238 41.419-5.619 93.825 6.502 114.906 19.196s50.353 32.073 46.255 46.757c0 0 1.553 24.189-32.736 38.548-37.009 15.498-97.495 19.156-150.72 2.647-52.33-16.231-56.438-52.788-52.324-61.91z" fill="#036"/></g></g></g></g></g></g></g></g></g></g></g></g></g></g></g><g><g><g><g><g><g><g><g><g><g><g><g><g><g><g><path d="m257.345 238.237c-23.515 0-48.788-3.177-73.492-10.84-31.796-9.862-45.104-26.663-50.669-39.019-4.842-10.751-4.802-20.624-2.717-25.248v.001c2.399-5.321 11.371-15.486 23.875-24.617 11.167-8.155 29.268-18.527 52.085-21.622 40.287-5.465 93.482 5.853 116.028 19.428 22.703 13.671 48.689 35.192 47.206 50.85-1.585 16.74-12.364 28.664-33.921 37.529-19.532 8.03-47.439 13.538-78.395 13.538zm-28.494-119.313c-7.556 0-14.955.436-21.96 1.386-41.978 5.695-69.925 36.803-73.278 44.238v.001c-1.483 3.289-1.984 11.972 2.718 22.412 5.274 11.71 17.977 27.659 48.545 37.141 56.403 17.495 115.755 11.303 149.552-2.595 26.595-10.936 30.885-25.02 31.798-34.662 1.246-13.162-21.98-33.376-45.551-47.569-18.15-10.93-56.688-20.352-91.824-20.352zm-96.811 44.916h.007z" fill="#003677"/></g></g></g></g></g></g></g></g></g></g></g></g></g></g></g><g><g><g><g><g><g><g><g><g><g><g><g><g><g><g><path d="m249.967 63.172c-.173 0-.348-.026-.522-.082-.282-.09-6.945-2.251-10.201-7.412-.508-.806-.267-1.871.539-2.38.807-.51 1.871-.268 2.38.538 2.574 4.081 8.27 5.947 8.328 5.965.906.291 1.407 1.261 1.118 2.168-.234.735-.911 1.203-1.642 1.203z" fill="#003677"/></g></g></g></g></g></g></g></g></g></g></g></g></g></g></g><g><g><g><g><g><g><g><g><g><g><g><g><g><g><g><path d="m367.82 184.554s-17.548-38.677-103.147-55.634c-37.565-7.442-78.684.393-103.023 12.316-24.584 12.043-29.61 22.603-29.61 22.603s4.023-19.586 24.66-32.485c20.637-12.898 34.876-16.951 34.876-16.951s26.322-47.887 31.443-51.979c5.122-4.092 17.685-7.668 17.685-7.668s15.708-14.13 32.857-14.62 63.682 11.734 73.252 22.183 17.629 39.769 17.629 39.769 16.8 30.491 16.704 33.153-41.529-19.063-46.073-30.942c-4.545-11.879-7.95-17.057-7.95-17.057l-22.573-2.358s12.481 14.011-.275 22.911c0 0 17.314 17.905 20.966 23.891.001.001 43.883 24.396 42.579 52.868z" fill="#1a5fc4"/></g></g></g></g></g></g></g></g></g></g></g></g></g></g></g><g><g><g><g><g><g><g><g><g><g><g><g><g><g><g><path d="m367.819 186.279c-.665 0-1.285-.386-1.569-1.009-.043-.094-4.517-9.593-19.221-21.014-13.611-10.572-39.006-24.991-82.692-33.645-37.915-7.51-78.513.703-101.929 12.174-23.558 11.54-28.766 21.704-28.816 21.805-.384.779-1.289 1.157-2.109.875-.821-.281-1.308-1.123-1.134-1.974.17-.83 4.414-20.462 25.436-33.601 18.294-11.434 31.476-15.948 34.617-16.934 3.941-7.154 26.474-47.832 31.54-51.879 4.88-3.899 15.708-7.219 17.911-7.869 2.355-2.041 17.191-14.325 33.659-14.795 17.303-.471 64.583 11.834 74.574 22.742 9.428 10.294 17.178 37.457 17.966 40.278 6.371 11.568 16.918 31.154 16.82 33.871-.034.946-.712 1.69-1.685 1.852-3.148.54-17.358-7.413-23.749-11.337-7.799-4.788-21.285-13.871-23.975-20.903-3.505-9.161-6.338-14.303-7.366-16.046l-17.872-1.867c1.844 2.946 3.99 7.538 3.426 12.336-.391 3.329-2.004 6.23-4.803 8.645 4.069 4.257 16.115 17.007 19.621 22.414 4.68 2.669 44.361 26.153 43.074 54.235-.037.797-.614 1.464-1.398 1.615-.109.021-.218.031-.326.031zm-133.997-61.999c10.337 0 20.858.902 31.186 2.948 44.551 8.826 70.487 23.637 84.4 34.509 8.043 6.284 13.11 11.977 16.129 16.012-5.029-24.193-40.74-44.335-41.134-44.554-.26-.145-.479-.354-.634-.609-3.512-5.756-20.562-23.412-20.734-23.589-.351-.364-.526-.863-.477-1.366.048-.503.315-.959.73-1.249 2.935-2.047 4.596-4.552 4.935-7.444.753-6.405-4.904-12.84-4.961-12.904-.474-.532-.572-1.301-.247-1.935.325-.633 1.006-1.001 1.714-.929l22.573 2.358c.515.054.978.336 1.262.768.143.218 3.56 5.472 8.119 17.388 1.667 4.358 9.679 11.226 21.982 18.841 8.889 5.503 16.333 9.148 19.943 10.56-2.49-5.692-10.095-20.029-15.678-30.163-.065-.119-.117-.245-.153-.375-.079-.29-8.06-29.04-17.238-39.061-9.294-10.147-55.563-22.077-71.931-21.624-16.297.466-31.601 14.042-31.753 14.179-.195.175-.428.305-.681.376-.122.035-12.291 3.529-17.08 7.356-3.56 2.845-20.495 32.334-31.009 51.461-.222.404-.596.702-1.039.828-.14.04-14.283 4.159-34.434 16.755-10.981 6.863-17.119 15.716-20.414 22.266 4.548-4.191 11.939-9.639 23.69-15.396 17.552-8.597 44.533-15.407 72.934-15.407z" fill="#003677"/></g></g></g></g></g></g></g></g></g></g></g></g></g></g></g><g><g><g><g><g><g><g><g><g><g><g><g><g><g><g><path d="m304.275 109.522c-.399 0-.8-.137-1.126-.419-.293-.249-22.805-19.091-63.19-16.651-.957.062-1.769-.666-1.827-1.617s.667-1.769 1.618-1.826c41.935-2.545 64.703 16.664 65.653 17.483.721.623.802 1.712.179 2.433-.341.394-.823.597-1.307.597z" fill="#003677"/></g></g></g></g></g></g></g></g></g></g></g></g></g></g></g><g><g><g><g><g><g><g><g><g><g><g><g><g><g><g><path d="m304.549 86.611c-.363 0-.728-.114-1.04-.35-.118-.09-12.023-9-29.604-14.316-.912-.276-1.428-1.239-1.152-2.151s1.238-1.429 2.151-1.152c18.205 5.503 30.187 14.488 30.688 14.868.759.575.908 1.656.333 2.416-.338.449-.854.685-1.376.685z" fill="#003677"/></g></g></g></g></g></g></g></g></g></g></g></g></g></g></g><g><g><g><g><g><g><g><g><g><g><g><g><g><g><g><path d="m327.122 88.969c-.922 0-1.687-.729-1.723-1.659-.395-10.213 7.672-18.7 8.015-19.057.661-.686 1.753-.706 2.44-.044.685.661.706 1.752.046 2.438-.078.081-7.39 7.807-7.053 16.53.037.952-.705 1.754-1.657 1.791-.023.001-.045.001-.068.001z" fill="#003677"/></g></g></g></g></g></g></g></g></g></g></g></g></g></g></g><g><g><g><g><g><g><g><g><g><g><g><g><g><g><g><path d="m354.781 105.1c-1.34 0-2.778-.065-4.293-.225-.948-.1-1.635-.949-1.535-1.897s.949-1.635 1.896-1.535c7.499.791 12.999-.975 13.054-.992.904-.297 1.879.195 2.177 1.099s-.191 1.878-1.094 2.177c-.205.067-4.225 1.373-10.205 1.373z" fill="#003677"/></g></g></g></g></g></g></g></g></g></g></g></g></g></g></g><g><g><g><g><g><g><g><g><g><g><g><g><g><g><g><path d="m325.24 133.412c-.328 0-.66-.093-.954-.288-.262-.173-26.758-17.416-76.944-20.236-36.688-2.062-55.104 3.12-55.286 3.173-.821.236-1.696-.164-2.05-.943-.355-.779-.085-1.701.635-2.165 12.149-7.83 33.324-10.951 34.22-11.08.942-.138 1.817.518 1.953 1.462.136.943-.518 1.818-1.461 1.954-.149.022-10.631 1.568-20.844 5.062 9.338-1.124 23.608-2 43.025-.908 51.21 2.877 77.566 20.078 78.663 20.81.793.528 1.007 1.598.479 2.39-.33.498-.878.769-1.436.769z" fill="#003677"/></g></g></g></g></g></g></g></g></g></g></g></g></g></g></g><g opacity=".5"><g><g><g><g><g><g><g><g><g><g><g><g><g><g><path d="m286.247 87.755c2.564-3.981 2.401-9.534-.393-13.357 6.348 1.064 13.332.915 19.68 1.979 4.977.834 10.088 1.667 15.036.672 4.969-.999 9.533-3.89 12.561-7.954-1.138 19.666 16.668 48.171 32.848 59.406-.154.105-3.64-2.216-3.792-2.107-11.62-4.532-24.977-16.511-27.113-22.093-4.545-11.879-7.95-17.057-7.95-17.057l-22.573-2.357s12.481 14.011-.275 22.91c0 0 15.113 15.629 20.077 22.564-.181-.072-.363-.143-.544-.215-11.252-4.485-25.267-9.652-36.52-14.137-.489-9.28-5.851-18.167-13.832-22.927 4.635.963 10.226-1.346 12.79-5.327z" fill="#003677"/></g></g></g></g></g></g></g></g></g></g></g></g></g></g></g></g><g><g><g><g><g><g><g><g><g><g><g><g><g><g><g><g><path d="m186.936 193.316c-1.153-2.967-2.344-5.998-4.471-8.44s-5.41-4.221-8.672-3.78c-5.259.711-7.877 6.512-8.108 11.574-.23 5.029.954 10.134 3.396 14.644 1.39 2.568 3.31 5.048 6.063 6.258 2.605 1.144 6.063.781 7.793-1.291.053-.064.154-.011.127.067l-.725 2.09z" fill="#f9bcac"/></g></g></g></g></g></g></g></g></g></g></g></g></g></g></g><g><g><g><g><g><g><g><g><g><g><g><g><g><g><g><path d="m178.262 215.93c-1.333 0-2.659-.272-3.812-.778-2.727-1.198-4.98-3.494-6.887-7.017-2.601-4.804-3.846-10.18-3.602-15.544.264-5.77 3.38-12.364 9.6-13.205 3.538-.479 7.447 1.19 10.204 4.356 2.349 2.698 3.64 6.019 4.778 8.949.345.888-.095 1.888-.983 2.233-.887.346-1.888-.095-2.233-.983-1.087-2.797-2.211-5.689-4.164-7.932-1.57-1.802-4.273-3.591-7.139-3.202-4.26.576-6.416 5.558-6.616 9.943-.216 4.737.887 9.49 3.189 13.744 1.528 2.823 3.242 4.622 5.24 5.5 1.955.859 4.811.644 5.946-1.046.531-.79 1.604-.999 2.394-.47.791.532 1.001 1.603.47 2.394-1.425 2.122-3.914 3.058-6.385 3.058z" fill="#914033"/></g></g></g></g></g></g></g></g></g></g></g></g></g></g></g><g><g><g><g><g><g><g><g><g><g><g><g><g><g><g><path d="m178.404 204.665c-.146 0-.294-.019-.442-.058-.921-.244-1.471-1.188-1.227-2.109 1.293-4.888-1.08-11.137-4.616-12.158-.916-.264-1.444-1.22-1.179-2.136.264-.915 1.22-1.442 2.136-1.179 5.309 1.532 8.774 9.633 6.996 16.356-.206.772-.905 1.284-1.668 1.284z" fill="#914033"/></g></g></g></g></g></g></g></g></g></g></g></g></g></g></g></g><g><g><g><g><g><g><g><g><g><g><g><g><g><g><g><path d="m307.635 163.291s21.309 41.628-4.204 77.906-100.888 31.422-120.103-8.432c-17.331-35.946 8.773-80.517 8.773-80.517s17.701-16.563 58.616-13.487c40.915 3.077 56.918 24.53 56.918 24.53z" fill="#f9bcac"/></g></g></g></g></g></g></g></g></g></g></g></g></g></g></g><g><g><g><g><g><g><g><g><g><g><g><g><g><g><g><path d="m307.961 163.964c4.131 15.311 10.336 41.272-5.905 64.366-25.296 35.97-101.044 36.347-123.063-8.135.95 4.249 2.357 8.466 4.335 12.569 19.215 39.854 94.591 44.71 120.103 8.432 23.621-33.586 7.11-71.754 4.53-77.232z" fill="#f2ada6"/></g></g></g></g></g></g></g></g></g></g></g></g></g></g></g><g><g><g><g><g><g><g><g><g><g><g><g><g><g><g><path d="m247.071 266.423c-3.028 0-6.098-.146-9.198-.443-25.797-2.47-46.42-14.774-55.167-32.915-9.046-18.762-6.165-39.843-2.156-54.224 4.333-15.542 10.889-26.83 10.955-26.942.034-.058.076-.11.124-.156.179-.168 18.393-16.731 59.139-13.671 40.757 3.065 57.257 24.588 57.419 24.805.021.029.04.059.057.091.056.107 5.652 10.861 7.904 25.834 2.082 13.843 1.662 34.242-12.165 52.806-11.686 15.694-32.963 24.815-56.912 24.815zm-54.427-113.735c-1.296 2.275-25.294 45.35-8.695 79.778 8.535 17.703 28.742 29.718 54.055 32.142 27.137 2.593 51.995-6.53 64.873-23.822 13.543-18.183 13.95-38.193 11.907-51.777-2.139-14.221-7.321-24.538-7.735-25.345-.825-1.056-17.15-21.262-56.385-24.214-38.851-2.917-56.749 12.117-58.02 13.238z" fill="#914033"/></g></g></g></g></g></g></g></g></g></g></g></g></g></g></g><g><g><g><g><g><g><g><g><g><g><g><g><g><g><g><g><path d="m309.936 192.991c1.4-2.858 2.844-5.778 5.171-8.031 2.326-2.253 5.748-3.747 8.961-3.031 5.179 1.155 7.296 7.157 7.097 12.22-.198 5.031-1.81 10.017-4.625 14.303-1.603 2.441-3.726 4.749-6.572 5.721-2.692.919-6.108.264-7.655-1.948-.048-.068-.152-.024-.132.056l.545 2.144z" fill="#f9bcac"/></g></g></g></g></g></g></g></g></g></g></g></g></g></g></g><g><g><g><g><g><g><g><g><g><g><g><g><g><g><g><path d="m317.496 216.294c-2.74 0-5.558-1.137-6.939-3.626-.462-.833-.162-1.884.672-2.346s1.884-.162 2.346.672c.988 1.78 3.814 2.238 5.836 1.546 2.065-.705 3.926-2.352 5.687-5.035 2.655-4.043 4.157-8.685 4.343-13.425.173-4.386-1.553-9.533-5.749-10.468-2.827-.632-5.668.923-7.386 2.586-2.136 2.068-3.501 4.855-4.822 7.55-.419.857-1.452 1.209-2.308.79s-1.209-1.453-.79-2.308c1.384-2.824 2.951-6.024 5.52-8.511 3.016-2.92 7.053-4.251 10.537-3.475 6.127 1.366 8.673 8.2 8.446 13.972-.211 5.366-1.908 10.616-4.907 15.182-2.199 3.349-4.638 5.444-7.457 6.407-.941.323-1.979.489-3.029.489z" fill="#914033"/></g></g></g></g></g></g></g></g></g></g></g></g></g></g></g><g><g><g><g><g><g><g><g><g><g><g><g><g><g><g><path d="m319.15 204.249c-.533 0-1.058-.246-1.396-.71-1.629-2.237-1.972-5.034-.941-7.671 1.094-2.799 3.574-4.895 6.471-5.471.934-.182 1.843.421 2.028 1.356.186.935-.422 1.843-1.356 2.029-1.754.348-3.26 1.63-3.93 3.343-.349.893-.746 2.65.517 4.384.561.77.391 1.849-.379 2.41-.307.223-.662.33-1.014.33z" fill="#914033"/></g></g></g></g></g></g></g></g></g></g></g></g></g></g></g></g><g><g><g><g><g><g><g><g><g><g><g><g><g><g><g><g><path d="m184.743 163.519c-12.173 23.105-12.473 67.799-8.944 96.891 2.285 18.835 13.706 47.037 15.991 47.037s7.997-18.835 7.997-18.835 5.043 22.151 9.139 31.784c9.356 21.999 26.798 42.122 30.225 42.122s13.135-9.498 20.869-22.856c10.931-18.881 11.428-31.8 11.428-31.8s3.23 15.9 5.466 15.9c2.981 0 12.399-11.916 16.894-27.328 3.478-11.925 4.526-24.42 4.526-24.42s4.685 13.737 7.151 13.737c3.727 0 14.658-26.086 15.652-55.898 1.221-36.632-12.422-71.55-12.422-71.55l-15.403 3.975s5.866 26.276.154 43.934-30.845 20.012-46.839 20.012-40.448-3.236-50.266-21.189c-6.399-11.702-3.667-28.099.06-43.75z" fill="#fbfcfc"/></g></g></g></g></g></g></g></g></g></g></g></g></g></g></g></g><g><g><g><g><g><g><g><g><g><g><g><g><g><g><g><path d="m298.333 272.013s4.685 13.737 7.151 13.737c3.727 0 14.658-26.086 15.652-55.898.128-3.842.091-7.665-.075-11.432-2.072 11.45-6.447 28.99-10.856 30.313-4.969 1.491-15.403-12.919-15.403-12.919s-4.472 28.322-10.931 30.806c-4.729 1.819-12.422-13.416-12.422-13.416s-17.391 45.713-32.794 46.209c-19.374.625-34.284-51.675-34.284-51.675s-9.937 15.9-16.894 12.919c-6.093-2.611-11.448-18.968-13.583-28.742.179 10.208.878 20.015 1.907 28.494 2.285 18.835 13.706 47.037 15.991 47.037s7.997-18.835 7.997-18.835 5.042 22.151 9.139 31.783c9.356 21.999 26.798 42.122 30.225 42.122s13.135-9.498 20.869-22.856c10.931-18.881 11.428-31.8 11.428-31.8s3.23 15.9 5.466 15.9c2.981 0 12.398-11.916 16.894-27.328 3.476-11.924 4.523-24.419 4.523-24.419z" fill="#dbdcdb"/></g></g></g></g></g></g></g></g></g></g></g></g></g></g></g><g><g><g><g><g><g><g><g><g><g><g><g><g><g><g><g><g><path d="m239.151 364.243c-3.547 0-11.153-9.432-14.259-13.488-4.14-5.406-11.926-16.452-17.554-29.684-2.804-6.594-5.984-18.697-7.787-26.013-4.714 14.113-6.732 14.114-7.761 14.114-.96 0-3.208 0-9.616-17.59-1.952-5.358-6.648-19.101-8.087-30.964-2.951-24.325-4.349-72.321 9.13-97.902.245-.464.687-.792 1.202-.89l11.677-2.236c.576-.111 1.167.079 1.571.502.405.423.567 1.022.432 1.592-3.699 15.535-6.286 31.439-.225 42.523 9.655 17.655 34.689 20.291 48.752 20.291 25.951 0 41.158-6.331 45.197-18.817 5.503-17.013-.139-42.768-.196-43.026-.203-.908.351-1.814 1.253-2.047l15.403-3.975c.844-.216 1.72.229 2.038 1.043.138.352 13.758 35.671 12.539 72.235-.594 17.817-4.568 32.46-6.884 39.603-1.751 5.401-6.279 17.963-10.492 17.963-.813 0-2.706.001-6.053-7.719-.58 5.046-1.677 11.921-3.732 18.598-5.376 17.47-14.52 27.132-18.786 27.132-.953 0-2.736-.001-5.228-9.028-1.47 5.743-4.389 14.076-10.173 24.067-7.442 12.855-17.682 23.716-22.361 23.716zm-39.364-77.357c.021 0 .041.001.062.001.782.028 1.448.578 1.621 1.341.05.22 5.055 22.112 9.045 31.491 9.208 21.651 25.622 40.144 28.71 41.069 2.4-.176 11.608-8.702 19.303-21.993 10.548-18.219 11.192-30.879 11.197-31.005.037-.871.718-1.58 1.587-1.649.873-.067 1.654.521 1.828 1.375 1.187 5.842 3.072 12.659 4.192 14.417 2.508-.959 10.168-8.66 15.07-24.594 3.712-12.065 4.203-25.254 4.208-25.385.029-.832.647-1.526 1.471-1.648.823-.125 1.617.361 1.886 1.149 1.721 5.045 4.244 10.854 5.586 12.362 1.259-1.201 4.289-6.204 7.541-16.624 2.121-6.797 5.762-20.692 6.319-37.4 1.057-31.713-9.287-62.523-11.775-69.433l-12.304 3.176c1.195 6.106 4.804 27.655-.226 43.204-4.552 14.071-20.863 21.206-48.48 21.206-14.827 0-41.27-2.87-51.779-22.087-6.268-11.461-4.22-27.008-.71-42.384l-8.245 1.579c-11.033 21.843-12.101 64.464-8.379 95.147 2.066 17.028 11.075 39.758 14.294 44.824 1.56-2.673 4.316-10.275 6.33-16.915.219-.728.891-1.224 1.648-1.224zm-7.277 19.049h.007z" fill="#757575"/></g></g></g></g></g></g></g></g></g></g></g></g></g></g></g></g></g><g><g><g><g><g><g><g><g><g><g><g><g><g><g><g><g><path d="m242.946 188.957c-9.548 0-4.407 14.689-11.751 22.034-7.345 7.345-5.876 22.034 10.283 22.034s19.096-13.873 11.751-22.034-.622-22.034-10.283-22.034z" fill="#efa980"/></g></g></g></g></g></g></g></g></g></g></g></g></g></g></g><g><g><g><g><g><g><g><g><g><g><g><g><g><g><g><path d="m241.477 234.75c-7.453 0-13.004-3.083-15.231-8.458-2.206-5.326-.673-12.12 3.728-16.521 2.874-2.874 3.597-7.144 4.297-11.273.134-.793.267-1.57.41-2.318.18-.937 1.084-1.544 2.021-1.368.935.181 1.548 1.085 1.368 2.02-.14.724-.267 1.475-.397 2.243-.753 4.446-1.608 9.484-5.26 13.136-3.441 3.441-4.667 8.688-2.98 12.761 1.69 4.081 5.967 6.328 12.042 6.328 6.469 0 11.077-2.349 12.977-6.614 1.765-3.964.781-8.886-2.508-12.54-3.708-4.12-4.195-9.472-4.586-13.773-.065-.718-.129-1.417-.205-2.088-.108-.947.572-1.802 1.519-1.91.945-.11 1.802.573 1.909 1.519.079.696.146 1.421.213 2.166.363 3.989.775 8.51 3.715 11.776 4.199 4.666 5.414 11.046 3.095 16.253-2.449 5.504-8.328 8.661-16.127 8.661z" fill="#914033"/></g></g></g></g></g></g></g></g></g></g></g></g></g></g></g></g><g><g><g><g><g><g><g><g><g><g><g><g><g><g><g><path d="m247.654 132.165s-11.47-10.068-24.787-9.293c-13.317.774-27.186 15.21-37.205 15.975-8.221.628-14.952-1.533-16.106-.715s4.381 15.96 20.655 15.689c0 0-7.257 6.878-12.521 8.009-5.264 1.132 14.563 11.342 38.108.447 16.421-7.598 30.323-15.16 41.815-11.173 11.492 3.986 23.129 13.068 36.446 12.294s25.67-7.798 24.202-11.091-7.739 3.753-22.48-10.929c-14.74-14.682-40.512-24.143-48.127-9.213z" fill="#fbfcfc"/></g></g></g></g></g></g></g></g></g></g></g></g></g></g></g><g><g><g><g><g><g><g><g><g><g><g><g><g><g><g><path d="m238.158 212.461c-2.867-.956-8.447 8.944-3.975 10.434 4.471 1.491 8.446-8.943 3.975-10.434z" fill="#f9bcac"/></g></g></g></g></g></g></g></g></g></g></g></g></g></g></g><g><g><g><g><g><g><g><g><g><g><g><g><g><g><g><path d="m169.557 138.131s15.71 10.234 24.753 9.282 13.326-3.332 14.278-2.38-12.85 9.519-10.471 13.802c1.55 2.791 29.032-3.807 49.497-20.941 0 0 17.201 14.708 41.407 18.086 20.465 2.856 29.241-3.673 29.241-3.673s-2.982 11.369-24.202 11.091-30.263-13.604-45.493-13.604-28.556 14.754-44.262 16.182-25.225-.476-26.176-2.38c-.952-1.904 10.471-6.663 10.471-9.519-.002-2.856-11.432.473-19.043-15.946z" fill="#dbdcdb"/></g></g></g></g></g></g></g></g></g></g></g></g></g></g></g><g><g><g><g><g><g><g><g><g><g><g><g><g><g><g><path d="m193.94 169.004c-8.986 0-15.474-2.51-17.514-4.185-1.339-1.1-1.421-2.154-1.254-2.843.131-.539.585-1.495 2.156-1.832 2.576-.553 5.974-2.853 8.551-4.884-10.724-1.646-16.264-9.874-17.779-14.496-.424-1.293-.838-3.12.459-4.04 1.048-.743 2.529-.549 5.48-.164 2.948.385 6.986.913 11.493.567 4.205-.321 9.495-3.487 15.095-6.838 6.811-4.077 14.53-8.696 22.141-9.139 11.046-.637 20.703 5.638 24.418 8.434 2.39-3.478 6.006-5.679 10.573-6.406 12.561-1.998 29.25 7.028 39.241 16.978 9.5 9.463 15.182 9.414 18.23 9.391 1.717-.013 3.676-.03 4.608 2.059.323.727.519 1.905-.388 3.395-2.576 4.233-13.939 9.461-25.29 10.121-9.499.553-17.977-3.573-26.171-7.562-3.785-1.843-7.359-3.583-10.941-4.825-9.689-3.36-21.748 2.303-35.71 8.859-1.58.742-3.185 1.495-4.814 2.25-8.337 3.856-16.11 5.159-22.584 5.16zm-14.009-6.064c4.567 2.15 18.547 5.45 35.142-2.229 1.624-.751 3.222-1.502 4.796-2.242 14.644-6.878 27.29-12.816 38.308-8.997 3.776 1.31 7.611 3.177 11.32 4.983 7.796 3.795 15.855 7.725 24.461 7.219 12.426-.722 21.938-6.635 22.656-8.643-.306-.044-.879-.039-1.357-.036-3.555.028-10.172.084-20.694-10.396-10.753-10.71-26.338-17.592-36.264-16.016-4.235.675-7.3 2.816-9.11 6.365-.242.474-.689.81-1.212.91-.523.102-1.062-.046-1.462-.397-.11-.096-11.117-9.605-23.55-8.868-6.766.393-13.783 4.593-20.569 8.655-5.959 3.566-11.588 6.935-16.605 7.319-4.863.371-9.28-.206-12.202-.586-.756-.098-1.567-.204-2.212-.265.523 1.545 1.903 4.245 4.334 6.695 2.589 2.61 7.119 5.688 14.074 5.688.131 0 .262-.001.395-.003h.029c.7 0 1.332.423 1.597 1.073.269.659.106 1.415-.41 1.905-.275.262-6.169 5.809-11.465 7.866z" fill="#757575"/></g></g></g></g></g></g></g></g></g></g></g></g></g></g></g><g><g><g><g><g><g><g><g><g><g><g><g><g><g><g><g><path d="m212.937 201.57c-.537 0-1.09-.027-1.664-.082-8.832-.855-11.664-8.424-11.928-12.308-.065-.95.654-1.773 1.604-1.838.953-.071 1.77.651 1.838 1.599.027.351.727 8.33 8.818 9.113 8.838.85 11.131-6.796 11.225-7.121.262-.917 1.217-1.446 2.133-1.185.916.262 1.447 1.217 1.185 2.133-.997 3.488-5.003 9.689-13.211 9.689z" fill="#33211e"/></g></g></g></g></g></g></g></g></g></g></g></g></g></g></g><g><g><g><g><g><g><g><g><g><g><g><g><g><g><g><path d="m273.687 201.574c-8.799 0-12.709-6.714-13.555-10.372-.215-.929.364-1.855 1.292-2.07.928-.216 1.855.364 2.07 1.292.078.324 2.059 8.089 10.847 7.684 8.127-.37 9.228-8.314 9.271-8.653.12-.943.983-1.613 1.923-1.498.943.116 1.615.97 1.503 1.913-.461 3.865-3.675 11.281-12.539 11.684-.276.014-.546.02-.812.02z" fill="#33211e"/></g></g></g></g></g></g></g></g></g></g></g></g></g></g></g></g><g><g><g><g><g><g><g><g><g><g><g><g><g><g><g><path d="m242.867 257.728c-.108 0-.216-.003-.325-.008-8.212-.411-7.948-14.583-7.932-15.186.024-.952.812-1.735 1.767-1.68.952.023 1.705.814 1.682 1.766-.07 2.959.633 11.453 4.655 11.654.777.038 1.404-.2 1.984-.751 2.313-2.196 2.827-8.168 2.83-10.284.001-.952.774-1.723 1.725-1.723h.001c.952.001 1.724.772 1.724 1.725 0 .929-.11 9.176-3.901 12.782-1.177 1.119-2.627 1.705-4.21 1.705z" fill="#ba4545"/></g></g></g></g></g></g></g></g></g></g></g></g></g></g></g><g><g><g><g><g><g><g><g><g><g><g><g><g><g><g><g><g><g><g><path d="m330.013 270.509s-37.574-2.585-59.185 7.664-26.827 20.489-27.41 27.924 33.419-.956 33.419-.956z" fill="#fcfcfc"/></g></g></g></g></g></g></g></g></g></g></g></g></g></g></g><g><g><g><g><g><g><g><g><g><g><g><g><g><g><g><path d="m332.239 268.603-13.028 85.298s-34.83 17.031-71.384 19.448l7.94-75.209z" fill="#7cc1eb"/></g></g></g></g></g></g></g></g></g></g></g></g></g></g></g><g><g><g><g><g><g><g><g><g><g><g><g><g><g><g><path d="m275.897 339.723c17.478 5.654 42.739-15.537 49.72-23.041l-6.407 37.219s-27.947 15.073-61.323 19.742c-.067-.049-9.977-.41-10.044-.459l7.837-74.956c0 .001-.251 34.874 20.217 41.495z" fill="#66afd3"/></g></g></g></g></g></g></g></g></g></g></g></g></g></g></g><g><g><g><g><g><g><g><g><g><g><g><g><g><g><g><path d="m156.02 271.928s31.471.022 54.311 7.122c25.617 7.964 31.316 19.639 32.07 27.059s-33.432-.187-33.432-.187z" fill="#fcfcfc"/></g></g></g></g></g></g></g></g></g></g></g></g></g></g></g><g><g><g><g><g><g><g><g><g><g><g><g><g><g><g><path d="m152.741 270.669 14.988 84.976s35.212 16.225 71.813 17.8l-9.426-75.061z" fill="#7cc1eb"/></g></g></g></g></g></g></g></g></g></g></g></g></g></g></g><g><g><g><g><g><g><g><g><g><g><g><g><g><g><g><path d="m230.116 298.383s4.738 5.932 13.299 5.834c8.561-.099 12.351-6.077 12.351-6.077l2.461 75.754s-9.232 9.419-18.685-.45z" fill="#66afd3"/></g></g></g></g></g></g></g></g></g></g></g></g></g></g></g><g><g><g><g><g><g><g><g><g><g><g><g><g><g><g><path d="m210.704 340.474c-17.343 6.055-43.276-16.896-50.427-24.237l7.452 39.409s35.072 16.159 71.594 17.789l.198-.153-9.405-74.897c0-.002.898 34.998-19.412 42.089z" fill="#66afd3"/></g></g></g></g></g></g></g></g></g></g></g></g></g></g></g></g><g><g><g><g><g><g><g><g><g><g><g><g><g><g><g><path d="m237.316 303.654s4.509 3.617 12.74-.277l3.324 73.672s-2.631 3.694-8.309-1.108z" fill="#7cc1eb"/></g></g></g></g></g></g></g></g></g></g></g></g></g></g></g></g><g><g><g><g><g><g><g><g><g><g><g><g><g><g><g><path d="m249.322 380.313c-6.455 0-9.614-3.53-10.801-5.323-33.598-.675-71.128-17.602-71.507-17.775-.517-.236-.885-.711-.984-1.27l-14.989-84.975c-.101-.576.095-1.163.522-1.561s1.026-.554 1.593-.412l10.412 2.589c1.902.053 17.482.554 41.172 3.327 25.88 3.029 35.343 16.244 38.672 23.768 3.218-7.232 12.226-19.832 36.697-24.621 23.849-4.669 43.098-4.926 45.801-4.939l5.727-2.134c.573-.213 1.217-.107 1.691.278.474.386.709.994.617 1.599l-13.028 85.298c-.076.497-.365.936-.791 1.202-18.703 11.688-54.348 18.851-60.672 20.056-.899 1.72-3.42 4.816-9.924 4.891-.071.001-.14.002-.208.002zm-80.054-25.875c5.702 2.482 39.887 16.794 70.271 17.117.675.007 1.284.408 1.559 1.025.076.162 2.071 4.282 8.229 4.282.053 0 .106-.001.161-.001 6.028-.069 7.033-3.275 7.073-3.411.162-.661.688-1.131 1.358-1.253.401-.073 39.899-7.361 59.707-19.346l12.464-81.605-3.266 1.216c-.196.073-.408.09-.613.109-.192.011-20.184-.069-45.439 4.875-31.936 6.251-35.516 26.196-35.653 27.041-.135.836-.856 1.452-1.702 1.453-.001 0-.001 0-.002 0-.845 0-1.567-.609-1.703-1.444-.154-.902-4.163-22.27-37.373-26.157-25.029-2.93-40.885-3.306-41.043-3.31-.127-.003-.254-.02-.378-.051l-8.018-1.994z" fill="#413f66"/></g></g></g></g></g></g></g></g></g></g></g></g></g></g></g><g><g><g><g><g><g><g><g><g><g><g><g><g><g><g><path d="m243.109 305.944c-9.096 0-12.346-4.436-13.328-6.361l-67.041-24.66c-.894-.329-1.353-1.321-1.024-2.215s1.319-1.351 2.215-1.024l67.73 24.913c.507.187.898.6 1.055 1.118.06.176 1.773 4.903 10.679 4.776 8.958-.103 10.665-4.697 10.733-4.892.167-.477.544-.885 1.015-1.068l70.455-27.295c.889-.344 1.888.097 2.232.985.344.889-.097 1.888-.985 2.232l-69.796 27.04c-.99 1.901-4.296 6.342-13.614 6.449-.109.002-.218.002-.326.002z" fill="#413f66"/></g></g></g></g></g></g></g></g></g></g></g></g></g></g></g></g><g><g><g><g><g><g><g><g><g><g><g><g><g><g><g><path d="m239.595 375.295c-.88 0-1.632-.67-1.716-1.564l-6.803-72.399c-.089-.948.608-1.79 1.556-1.879.955-.082 1.79.608 1.879 1.557l6.803 72.399c.089.948-.608 1.79-1.557 1.879-.053.004-.108.007-.162.007z" fill="#413f66"/></g></g></g></g></g></g></g></g></g></g></g></g></g></g></g><g><g><g><g><g><g><g><g><g><g><g><g><g><g><g><path d="m258.447 375.018c-.926 0-1.692-.735-1.723-1.667l-2.383-70.897c-.032-.952.753-2.573 1.705-2.606.969-.043 1.64-2.625 1.672-1.672l2.453 75.059c.032.952-.714 1.75-1.666 1.783-.018 0-.038 0-.058 0z" fill="#413f66"/></g></g></g></g></g></g></g></g></g></g></g></g></g></g></g></g><g><g><g><g><g><g><g><g><g><g><g><g><g><g><g><g><path d="m204.643 165.98c-1.873-6.708 23.439-11.567 24.138-5.367.715 6.341-22.553 11.043-24.138 5.367z" fill="#dbdcdb"/></g></g></g></g></g></g></g></g></g></g></g></g></g></g></g><g><g><g><g><g><g><g><g><g><g><g><g><g><g><g><path d="m211.195 170.255c-4.022 0-7.432-1.012-8.214-3.812-.35-1.253-.316-3.16 1.834-5.133 4.485-4.116 16.852-6.615 22.425-4.528 2.584.966 3.148 2.694 3.255 3.637.54 4.789-6.768 7.948-13.191 9.199-2.025.395-4.14.637-6.109.637zm10.893-10.796c-5.131 0-12.214 1.892-14.939 4.393-.691.635-.975 1.194-.844 1.664.26.928 3.937 1.962 10.34.715 6.363-1.239 10.599-3.854 10.421-5.425-.043-.382-.738-.681-1.034-.793-1.02-.381-2.393-.554-3.944-.554z" fill="#757575"/></g></g></g></g></g></g></g></g></g></g></g></g></g></g></g></g><g><g><g><g><g><g><g><g><g><g><g><g><g><g><g><g><path d="m284.127 165.217c1.49-7.027-24.88-10.377-25.196-3.95-.322 6.574 23.935 9.897 25.196 3.95z" fill="#dbdcdb"/></g></g></g></g></g></g></g></g></g></g></g></g></g></g></g><g><g><g><g><g><g><g><g><g><g><g><g><g><g><g><path d="m275.932 170.045c-1.512 0-3.074-.113-4.593-.31-6.67-.865-14.372-3.624-14.13-8.552.048-.966.511-2.758 3.081-3.909 5.589-2.503 18.448-.744 23.322 3.191 2.32 1.874 2.479 3.814 2.204 5.111-.702 3.302-5.032 4.469-9.884 4.469zm-8.65-10.5c-2.237 0-4.235.274-5.583.878-.381.171-1.025.519-1.045.929-.081 1.653 4.468 4.098 11.127 4.961 6.241.81 10.413-.301 10.657-1.453.041-.191.164-.774-.996-1.71-2.695-2.178-9.051-3.605-14.16-3.605zm16.845 5.672h.007z" fill="#757575"/></g></g></g></g></g></g></g></g></g></g></g></g></g></g></g></g><g><g><g><g><g><g><g><g><g><g><g><g><g><g><g><g><path d="m279.784 169.108c-13.945-.236-25.923 5.234-30.5 17.634-1.781-1.159-4.125-1.972-7.187-2.024-3.416-.058-6.019.855-7.971 2.093-4.057-12.715-15.924-18.746-29.99-18.984-17.636-.299-32.171 10.504-32.47 28.14s13.806 32.227 31.442 32.526 32.227-13.806 32.526-31.442c.016-.958-.018-1.904-.085-2.842 1.123-1.267 3.152-2.774 6.433-2.718 2.982.05 4.653 1.392 5.546 2.562-.123 1.051-.196 2.117-.215 3.196-.299 17.636 13.806 32.227 31.442 32.526s32.227-13.806 32.526-31.442-13.861-28.927-31.497-29.225zm-76.56 52.613c-13.903-.235-25.022-11.738-24.786-25.64s11.682-21.719 25.584-21.483c13.902.235 25.077 8.435 24.842 22.338-.236 13.902-11.738 25.021-25.64 24.785zm75.647 1.281c-13.903-.235-25.021-11.738-24.786-25.64s11.682-21.719 25.584-21.483c13.902.235 25.077 8.435 24.842 22.338-.235 13.902-11.737 25.021-25.64 24.785z" fill="#7cc1eb"/></g></g></g></g></g></g></g></g></g></g></g></g></g></g></g><g><g><g><g><g><g><g><g><g><g><g><g><g><g><g><g><path d="m279.311 231.504c-.194 0-.389-.001-.584-.005-8.99-.152-17.392-3.806-23.658-10.288-6.265-6.482-9.632-15.002-9.48-23.993.015-.861.063-1.733.145-2.602-.915-.904-2.184-1.376-3.781-1.402-1.852-.053-3.409.524-4.635 1.65.04.772.053 1.502.041 2.214-.312 18.394-15.375 33.143-33.701 33.144-.193 0-.385-.002-.579-.005-18.587-.315-33.453-15.694-33.138-34.28.152-8.967 3.733-16.607 10.358-22.095 6.213-5.147 14.686-7.894 23.867-7.741 15.233.258 26.374 6.875 30.91 18.247 2.114-.944 4.482-1.385 7.05-1.355 2.32.04 4.427.481 6.289 1.316 4.965-11.041 16.291-17.151 31.398-16.926 9.178.156 17.555 3.19 23.59 8.545 6.434 5.709 9.755 13.466 9.604 22.432-.152 8.991-3.806 17.393-10.287 23.658-6.341 6.13-14.634 9.486-23.409 9.486zm-37.507-41.742c.068 0 .138.001.207.001 3.698.063 5.787 1.797 6.889 3.241.271.356.394.803.342 1.247-.118 1.008-.186 2.027-.203 3.026-.136 8.068 2.886 15.717 8.511 21.535 5.625 5.819 13.167 9.099 21.236 9.236 8.059.143 15.717-2.887 21.536-8.511 5.819-5.625 9.099-13.167 9.236-21.236.134-7.929-2.786-14.773-8.444-19.793-5.419-4.808-13.004-7.535-21.359-7.675-14.349-.239-24.89 5.772-28.852 16.506-.182.492-.578.875-1.076 1.04-.499.164-1.044.094-1.484-.191-1.714-1.116-3.825-1.703-6.275-1.744-2.672-.053-5.037.568-7.017 1.824-.451.286-1.01.347-1.513.164-.502-.183-.892-.588-1.055-1.097-3.528-11.056-13.87-17.538-28.376-17.783-8.337-.152-16.027 2.325-21.607 6.948-5.825 4.826-8.975 11.567-9.109 19.496-.282 16.684 13.062 30.489 29.747 30.772 16.674.295 30.489-13.061 30.772-29.747.014-.845-.012-1.725-.081-2.69-.033-.463.122-.92.43-1.267 1.342-1.515 3.734-3.302 7.545-3.302zm37.505 34.969c-.155 0-.311-.001-.466-.003-14.854-.252-26.733-12.541-26.482-27.395.236-13.917 11.45-23.446 27.338-23.18 7.368.125 14.048 2.417 18.809 6.453 5.177 4.389 7.85 10.489 7.728 17.639-.121 7.185-3.041 13.899-8.221 18.906-5.067 4.899-11.694 7.58-18.706 7.58zm-.408-3.454c6.247.126 12.199-2.24 16.717-6.606 4.517-4.367 7.063-10.221 7.169-16.484.103-6.082-2.148-11.251-6.51-14.949-4.154-3.522-10.062-5.523-16.636-5.634-11.707-.207-23.594 5.844-23.83 19.787-.22 12.952 10.138 23.667 23.09 23.886zm-75.239 2.173c-.156 0-.312-.001-.468-.004-14.853-.251-26.733-12.541-26.482-27.394.121-7.15 2.999-13.156 8.321-17.368 4.894-3.872 11.647-5.934 19.017-5.812 7.368.125 14.048 2.417 18.809 6.453 5.177 4.389 7.85 10.489 7.728 17.639-.122 7.185-3.041 13.899-8.221 18.906-5.065 4.899-11.692 7.579-18.704 7.58zm-.245-47.133c-6.347 0-12.096 1.792-16.242 5.073-4.485 3.549-6.909 8.639-7.013 14.72-.219 12.952 10.139 23.666 23.091 23.885 6.265.135 12.2-2.239 16.717-6.606s7.063-10.221 7.169-16.484c.103-6.082-2.148-11.251-6.51-14.949-4.154-3.522-10.062-5.523-16.636-5.634-.192-.003-.384-.005-.576-.005z" fill="#413f66"/></g></g></g></g></g></g></g></g></g></g></g></g></g></g></g></g></g><g><g><g><g><g><g><g><g><g><g><g><g><g><g><g><g><path d="m187.117 324.823s9.01-6.647 18.783-7.955 14.82 1.48 14.699 5.437c-.122 3.956-11.601 1.639-12.23 3.527s14.567.446 12.366 5.937c-2.042 5.092-11.223.954-12.798 2.319s8.958 3.16 6.692 7.273-10.657-.075-13.178.768-5.194 9.945-17.669 4.695z" fill="#f9bcac"/></g></g></g></g></g></g></g></g></g></g></g></g></g></g></g><g><g><g><g><g><g><g><g><g><g><g><g><g><g><g><path d="m190.742 350.17c-2.122 0-4.635-.495-7.631-1.755-.878-.37-1.291-1.382-.921-2.26.369-.879 1.381-1.29 2.259-.921 8.316 3.5 11.437.027 13.717-2.508.908-1.011 1.693-1.884 2.736-2.232 1.326-.442 3.042-.095 5.216.345 2.736.555 6.142 1.245 6.997-.309.138-.25.108-.346.093-.392-.274-.863-2.583-1.988-3.825-2.593-1.822-.888-3.138-1.529-3.318-2.898-.092-.697.178-1.376.739-1.862 1.142-.989 2.844-.761 5.199-.446 3.448.461 6.365.689 7.128-1.212.053-.131.132-.369.07-.475-.623-1.059-4.902-1.602-6.958-1.863-2.942-.373-4.562-.579-5.305-1.76-.327-.52-.403-1.155-.208-1.742.633-1.903 2.975-2.058 6.215-2.273 1.42-.094 5.742-.38 6.004-1.221.15-.483.063-.867-.292-1.287-1.316-1.559-5.798-2.827-12.53-1.927-9.201 1.232-17.902 7.57-17.988 7.634-.768.564-1.847.4-2.412-.366-.565-.767-.402-1.846.365-2.411.382-.282 9.483-6.925 19.578-8.277 7.197-.965 13.185.232 15.624 3.121 1.113 1.318 1.45 2.93.95 4.538-.633 2.033-2.698 2.856-5.116 3.253 2.218.499 4.146 1.299 5.048 2.832.425.722.797 1.917.158 3.509-1.464 3.653-5.232 3.907-8.51 3.616 1.223.801 2.265 1.781 2.673 3.068.322 1.016.198 2.088-.359 3.099-2.079 3.774-7.065 2.764-10.705 2.026-1.176-.237-2.953-.596-3.439-.454-.221.107-.823.776-1.262 1.265-1.764 1.962-4.618 5.137-9.99 5.138z" fill="#914033"/></g></g></g></g></g></g></g></g></g></g></g></g></g></g></g></g><g><g><g><g><g><g><g><g><g><g><g><g><g><g><g><path d="m134.669 320.453s-13.054 21.092 5.437 37.704c16.691 14.995 45.902 7.187 48.726-.284 1.597-4.225 2.032-9.118 1.317-13.31-.714-4.192-2.046-8.258-1.687-12.683.304-3.746 1.812-7.655 1.096-11.158-.895-4.379-5.054-6.42-8.999-6.177-3.945.242-15.392 6.863-23.796 5.472z" fill="#1a5fc4"/></g></g></g></g></g></g></g></g></g></g></g></g></g></g></g><g opacity=".5"><g><g><g><g><g><g><g><g><g><g><g><g><g><g><path d="m188.688 332.249c-6.609 10.369-17.311 17.47-28.289 18.729-11.099 1.273-22.234-3.448-29.331-12.434l-.576-.193c.307 5.577 2.668 12.028 9.424 18.42 16.341 15.46 45.658 8.419 48.634 1.012 1.683-4.188 2.22-9.077 1.595-13.294-.602-4.057-1.77-8.011-1.457-12.24z" fill="#003677"/></g></g></g></g></g></g></g></g></g></g></g></g></g></g></g><g><g><g><g><g><g><g><g><g><g><g><g><g><g><g><path d="m165.552 367.611c-9.136.001-18.931-2.302-26.495-8.084-14.269-10.907-7.973-33.597-5.703-40.291.306-.902 1.284-1.388 2.188-1.08.902.306 1.386 1.285 1.08 2.188-2.083 6.144-7.913 26.93 4.531 36.441 10.674 8.16 26.83 8.648 37.325 5.648 5.614-1.605 8.217-3.789 8.739-5.172 1.465-3.876 1.914-8.4 1.23-12.41-.185-1.086-.42-2.198-.648-3.275-.66-3.119-1.341-6.344-1.058-9.837.115-1.417.385-2.829.647-4.194.449-2.34.872-4.55.478-6.479-.728-3.558-4.239-4.983-7.203-4.801-2.597.16-5.232 1.16-8.022 2.219-1.076.408-2.188.831-3.3 1.202-4.251 1.416-12.163 4.052-16.061 1.197-.769-.563-.935-1.643-.372-2.411.564-.768 1.643-.935 2.411-.372 2.46 1.803 10.067-.732 12.931-1.687 1.045-.348 2.123-.758 3.167-1.154 2.908-1.104 5.914-2.245 9.035-2.436 4.39-.284 9.654 1.977 10.795 7.553.531 2.599.023 5.253-.47 7.82-.255 1.333-.497 2.593-.597 3.823-.243 2.993.358 5.836.994 8.845.234 1.109.477 2.255.673 3.409.784 4.597.272 9.777-1.404 14.21-1.519 4.019-7.556 6.28-11.019 7.269-4.115 1.176-8.896 1.859-13.872 1.859z" fill="#003677"/></g></g></g></g></g></g></g></g></g></g></g></g></g></g></g><g><g><g><g><g><g><g><g><g><g><g><g><g><g><g><g><path d="m300.837 324.823s-9.01-6.647-18.783-7.955-14.82 1.48-14.699 5.437c.122 3.956 11.601 1.639 12.23 3.527s-14.567.446-12.366 5.937c2.042 5.092 11.223.954 12.798 2.319s-8.958 3.16-6.692 7.273 10.657-.075 13.178.768 5.194 9.945 17.669 4.695z" fill="#f9bcac"/></g></g></g></g></g></g></g></g></g></g></g></g></g></g></g><g><g><g><g><g><g><g><g><g><g><g><g><g><g><g><path d="m297.211 350.17c-5.373 0-8.226-3.176-9.99-5.139-.439-.489-1.041-1.158-1.286-1.274-.46-.135-2.238.225-3.415.463-3.641.739-8.627 1.747-10.705-2.026-.557-1.012-.681-2.084-.359-3.099.408-1.287 1.45-2.266 2.673-3.068-3.276.291-7.045.038-8.51-3.616-.638-1.592-.266-2.787.158-3.509.901-1.533 2.83-2.332 5.048-2.832-2.418-.397-4.483-1.22-5.116-3.253-.5-1.607-.163-3.219.95-4.538 2.439-2.888 8.426-4.084 15.625-3.121 10.096 1.351 19.196 7.994 19.578 8.277.767.565.929 1.644.365 2.411-.566.766-1.645.929-2.412.366-.087-.064-8.787-6.402-17.989-7.634-6.731-.9-11.214.368-12.53 1.927-.354.42-.442.805-.292 1.287.262.842 4.584 1.128 6.004 1.222 3.24.215 5.581.37 6.215 2.274.195.586.12 1.221-.208 1.741-.743 1.181-2.363 1.386-5.305 1.76-2.056.261-6.336.803-6.958 1.863-.063.106.017.343.07.475.762 1.901 3.679 1.673 7.128 1.212 2.355-.316 4.057-.544 5.199.446.561.486.831 1.165.739 1.862-.18 1.369-1.496 2.01-3.318 2.898-1.241.605-3.551 1.729-3.824 2.593-.015.046-.045.142.093.392.856 1.553 4.261.863 6.997.309 2.175-.439 3.891-.787 5.216-.345 1.044.348 1.828 1.221 2.736 2.232 2.279 2.536 5.401 6.009 13.716 2.508.877-.369 1.89.043 2.259.921.37.878-.043 1.89-.921 2.26-2.995 1.259-5.509 1.755-7.631 1.755z" fill="#914033"/></g></g></g></g></g></g></g></g></g></g></g></g></g></g></g></g><g><g><g><g><g><g><g><g><g><g><g><g><g><g><g><path d="m353.285 320.453s13.054 21.092-5.437 37.704c-16.691 14.995-45.902 7.187-48.726-.284-1.597-4.225-2.032-9.118-1.317-13.31.714-4.192 2.046-8.258 1.687-12.683-.304-3.746-1.812-7.655-1.096-11.158.896-4.379 5.054-6.42 8.999-6.177 3.945.242 15.392 6.863 23.796 5.472z" fill="#1a5fc4"/></g></g></g></g></g></g></g></g></g></g></g></g></g></g></g><g opacity=".5"><g><g><g><g><g><g><g><g><g><g><g><g><g><g><path d="m299.266 332.249c6.609 10.369 17.311 17.47 28.289 18.729 11.099 1.273 22.234-3.448 29.331-12.434l.576-.193c-.307 5.577-2.668 12.028-9.424 18.42-16.341 15.46-45.658 8.419-48.634 1.012-1.683-4.188-2.22-9.077-1.595-13.294.602-4.057 1.77-8.011 1.457-12.24z" fill="#003677"/></g></g></g></g></g></g></g></g></g></g></g></g></g></g></g><g><g><g><g><g><g><g><g><g><g><g><g><g><g><g><path d="m322.402 367.611c-4.977 0-9.756-.683-13.873-1.86-3.463-.989-9.5-3.25-11.019-7.269-1.676-4.433-2.188-9.613-1.404-14.21.196-1.154.439-2.3.673-3.409.636-3.009 1.237-5.852.994-8.845-.1-1.231-.341-2.49-.597-3.823-.492-2.567-1.001-5.221-.469-7.82 1.14-5.576 6.401-7.837 10.795-7.553 3.12.191 6.126 1.332 9.034 2.436 1.043.396 2.122.805 3.168 1.154 2.864.955 10.471 3.489 12.931 1.687.768-.563 1.848-.397 2.411.372.563.768.397 1.848-.372 2.411-3.898 2.855-11.811.22-16.061-1.197-1.113-.371-2.225-.793-3.301-1.202-2.789-1.059-5.424-2.06-8.02-2.219-2.963-.177-6.475 1.243-7.203 4.801-.395 1.93.029 4.139.478 6.479.262 1.365.532 2.777.647 4.194.283 3.494-.398 6.718-1.058 9.837-.227 1.076-.463 2.188-.648 3.275-.684 4.011-.235 8.534 1.23 12.41.523 1.383 3.125 3.567 8.74 5.172 10.495 2.998 26.65 2.51 37.324-5.648 12.444-9.511 6.6-30.803 4.517-36.948-.306-.902.191-1.375 1.093-1.681.903-.308 1.882.176 2.188 1.08.696 2.054 1.878 5.543 2.622 9.805 1.682 9.632 1.567 22.925-8.325 30.486-7.564 5.782-17.36 8.085-26.495 8.085z" fill="#003677"/></g></g></g></g></g></g></g></g></g></g></g></g></g></g></g></g></svg>