
<svg xmlns="http://www.w3.org/2000/svg" xmlns:xlink="http://www.w3.org/1999/xlink" version="1.1" id="Capa_1" x="0px" y="0px" viewBox="0 0 512 512" style="enable-background:new 0 0 512 512;" xml:space="preserve" width="512" height="512">
<g>
	<g>
		<polygon style="fill:#061535;" points="411.628,382.194 415.177,316.876 429.391,316.876 416.545,382.194   "/>
		<path style="fill:#FFB30B;" d="M451.387,326.898l-126.668-13.301l6.559-67.227C331.278,246.369,485.001,203.282,451.387,326.898z"/>
		<path style="fill:#061535;" d="M442.439,325.681c7.135-41.057-4.313-82.557-53.72-80.952    c50.754-3.765,64.192,39.669,58.558,81.835L442.439,325.681z"/>
	</g>
	<path style="fill:#FF889C;" d="M241.094,337.783l90.185-54.112c0,0,89.365,25.006,67.229,122.571L255.44,408.29L241.094,337.783z"/>
	<polygon style="fill:#F23838;" points="434.993,375.059 127.135,345.981 55.807,452.974 393.998,512  "/>
	<g>
		<g>
			<path style="fill:#7F4218;" d="M398.542,182.255l31.939-99.038c0,0-57.799-66.409-160.691-81.166     C166.897-12.707,41.868,57.39,145.581,46.732c0,0-77.886,31.566-77.068,44.682c0.82,12.988,85.66-15.84,87.3-16.381     c-1.477,0.902-95.497,59.571-96.317,77.46c-0.82,17.874,92.331-13.756,94.038-14.331c-1.001,0.64-34.158,21.809-31.729,27.859     c0.737,1.838,18.183-1.458,42.255-7.001l48.613,76.757l172.991,8.952L398.542,182.255z"/>
			<polygon style="fill:#061535;" points="156.369,75.636 155.257,74.43 156.384,75.621    "/>
			<g style="opacity:0.1;">
				<path style="fill:#FFFFFF;" d="M329.989,97.766c0,0-0.33,1.428-0.778,4.15c-0.434,2.695-0.96,6.587-1.314,11.293      c-0.707,9.394-0.565,22.133,2.261,34.458c0.744,3.061,1.563,6.113,2.613,9.038c0.509,1.468,1.038,2.917,1.654,4.311      c0.559,1.42,1.204,2.779,1.868,4.104c1.296,2.666,2.75,5.148,4.268,7.411c0.711,1.166,1.543,2.198,2.31,3.23      c0.747,1.049,1.551,1.993,2.346,2.885c1.512,1.853,3.137,3.329,4.502,4.718c1.46,1.281,2.748,2.395,3.834,3.278      c2.261,1.66,3.554,2.608,3.554,2.608s-1.353-0.866-3.72-2.381c-1.145-0.815-2.508-1.85-4.066-3.049      c-1.461-1.309-3.204-2.701-4.857-4.48c-0.865-0.854-1.745-1.764-2.573-2.779c-0.846-1-1.765-2.004-2.567-3.145      c-1.698-2.213-3.352-4.663-4.859-7.315c-0.77-1.319-1.523-2.678-2.193-4.101c-0.727-1.396-1.366-2.853-1.988-4.334      c-1.277-2.95-2.324-6.043-3.295-9.162c-3.737-12.551-4.73-25.722-4.619-35.518c0.053-4.909,0.342-9.002,0.617-11.874      c0.28-2.844,0.561-4.568,0.561-4.568L329.989,97.766z"/>
				<path style="fill:#FFFFFF;" d="M351.475,110.818c0,0-0.116,0.235-0.336,0.676c-0.199,0.396-0.49,1.022-0.855,1.881      c-0.384,0.827-0.757,1.898-1.238,3.095c-0.393,1.234-0.947,2.597-1.352,4.148c-0.474,1.533-0.911,3.214-1.29,5.018      c-0.471,1.79-0.668,3.723-1.035,5.71c-0.171,1.999-0.488,4.077-0.51,6.194c-0.042,2.117-0.128,4.283,0.092,6.432      c0.084,1.076,0.116,2.164,0.243,3.234c0.172,1.065,0.343,2.126,0.513,3.178c0.248,2.135,0.897,4.138,1.407,6.121      c0.435,2.011,1.29,3.803,1.935,5.572c0.358,0.87,0.632,1.755,1.031,2.545c0.412,0.788,0.809,1.547,1.191,2.277      c0.795,1.441,1.4,2.853,2.162,3.96c0.756,1.114,1.415,2.085,1.958,2.886c1.091,1.608,1.714,2.526,1.714,2.526      s-0.705-0.856-1.939-2.355c-0.62-0.754-1.372-1.669-2.234-2.717c-0.872-1.047-1.608-2.399-2.55-3.789      c-0.456-0.707-0.932-1.443-1.424-2.204c-0.483-0.77-0.843-1.637-1.291-2.492c-0.826-1.742-1.877-3.52-2.519-5.54      c-0.715-1.989-1.58-4.024-2.046-6.209c-0.278-1.084-0.56-2.176-0.842-3.272c-0.237-1.106-0.376-2.235-0.569-3.357      c-0.437-2.245-0.564-4.519-0.724-6.764c-0.181-2.246-0.057-4.459-0.066-6.61c0.187-2.131,0.218-4.224,0.536-6.169      c0.227-1.962,0.528-3.805,0.882-5.495c0.285-1.706,0.738-3.229,1.043-4.606c0.401-1.356,0.701-2.548,1.043-3.519      c0.307-0.962,0.587-1.749,0.805-2.306c0.198-0.511,0.304-0.783,0.304-0.783L351.475,110.818z"/>
				<polygon style="fill:#FFFFFF;" points="286.047,108.239 171.135,140.296 284.112,101.973     "/>
				<polygon style="fill:#FFFFFF;" points="244.651,100.317 87.6,140.296 242.904,93.994     "/>
				<polygon style="fill:#FFFFFF;" points="295.036,59.11 207.797,59.625 294.751,52.558     "/>
				<polygon style="fill:#FFFFFF;" points="350.511,62.863 171.135,88.318 349.472,56.386     "/>
			</g>
		</g>
		<g>
			<path style="fill:#FFD3A4;" d="M387.44,277.113c-14.398,13.414-24.383,10.282-30.498,4.56     c-11.183,35.318-50.275,107.497-181.437,90.953c0,0-40.55-80.328-11.445-213.606c56.276-12.953,148.772-38.09,148.772-38.09     s-17.513,64.096,40.157,91.726c5.019-15.233,16.038-36.584,37.73-33.106c2.922,0.46,5.511,1.395,7.824,2.705     C422.532,195.948,414.361,252.056,387.44,277.113z"/>
			<g>
				<path style="fill:#061535;" d="M287.165,283.976c0,0,5.978-4.48,16.202-1.932c0,0-9.729-6.796-19.314-1.634L287.165,283.976z"/>
				<polygon style="fill:#061535;" points="292.482,282.655 292.472,293.2 289.226,299.242 285.968,302.651 314.58,334.638       318.305,332.418 320.342,325.566 318.625,316.465 315.184,307.688 312.723,301.523 307.889,295.25 301.303,288.341     "/>
				<path style="fill:#061535;" d="M290.331,279.229c0,0,5.851,23.334-13.368,26.481c0,0,18.681-0.009,17.224-20.662      c0,0,14.707,6.494,20.976,25.122c6.278,18.624,2.479,26.046-10.815,23.599c0,0,19.378,7.802,17.015-10.55      C317.452,292.805,290.331,279.229,290.331,279.229z"/>
				<path style="fill:#FFFFFF;" d="M288.134,301.75l4.75,5.571l8.768-17.279l-9.451-7.387      C292.201,282.655,295.683,296.598,288.134,301.75z"/>
				<path style="fill:#FF889C;" d="M318.438,315.784c0,0,4.475,11.582-3.366,16.653      C315.071,332.436,310.649,312.777,318.438,315.784z"/>
			</g>
			<path style="fill:#FFFFFF;" d="M265.93,266.631c-1.927,26.921-13.405,48.034-25.641,47.161     c-12.234-0.876-20.59-23.409-18.664-50.33c1.925-26.921,13.402-48.038,25.636-47.161     C259.498,217.177,267.854,239.71,265.93,266.631z"/>
			<path style="fill:#061535;" d="M213.393,283.976c0,0-1.143,16.534,7.228,25.797c0,0-19.576,2.271-18.113,7.472     c1.463,5.199,16.085,6.662,28.27-1.135c0,0-23.724,6.008-25.997,1.46c-2.272-4.548,19.497-7.472,19.497-7.472     S214.205,293.434,213.393,283.976z"/>
			<g>
				<path style="fill:#F23838;" d="M359.057,198.488c-7.363,13.315-9.742,28.614-9.742,28.614l-33.285,8.675      c3.362-2.674,6.706-7.035-1.558-10.101c0,0,9.429-9.02-3.887-12.299c0,0,4.313-7.362-0.18-11.48l25.745-1.801L359.057,198.488z"/>
				<path style="fill:#FFB30B;" d="M316.03,235.777l-2.262,0.591c0,0-7.084-7.495-19.793-11.659h-0.016l-4.033-6.526      c6.721-2.018,15.806-6.477,17.575-16.085l2.904-0.2c4.492,4.118,0.18,11.48,0.18,11.48c13.316,3.28,3.887,12.299,3.887,12.299      C322.736,228.742,319.392,233.103,316.03,235.777z"/>
				<path style="fill:#F23838;" d="M293.959,224.709c-2.034-0.673-4.215-1.247-6.543-1.706l-4.919-3.28c0,0,3.247-0.296,7.429-1.54      L293.959,224.709z"/>
			</g>
			
				<rect x="157.168" y="192.061" transform="matrix(0.8971 -0.4419 0.4419 0.8971 -70.8647 99.5451)" style="fill:#7F4218;" width="42.191" height="19.678"/>
			
				<rect x="235.766" y="172.421" transform="matrix(0.2731 -0.962 0.962 0.2731 -9.6087 378.4315)" style="fill:#7F4218;" width="19.676" height="46.305"/>
			<g>
				<path style="fill:#FFFFFF;" d="M209.53,266.201c4.461,26.024-1.51,48.763-13.336,50.79      c-11.827,2.028-25.032-17.426-29.493-43.449c-4.462-26.024,1.511-48.766,13.336-50.791      C191.865,220.721,205.069,240.175,209.53,266.201z"/>
				<path style="fill:#061535;" d="M206.115,293.857c0,12.337-4.955,22.34-11.066,22.34c-6.117,0-11.071-10.003-11.071-22.34      c0-12.342,4.954-22.345,11.071-22.345C201.16,271.513,206.115,281.515,206.115,293.857z"/>
			</g>
			<path style="fill:#061535;" d="M251.184,289.482c0,12.339-4.956,22.34-11.068,22.34c-6.113,0-11.07-10.001-11.07-22.34     c0-12.34,4.956-22.343,11.07-22.343C246.227,267.139,251.184,277.142,251.184,289.482z"/>
			<path style="fill:#061535;" d="M391.93,249.668c0,0,4.279-32.815-5.539-40.39c-9.813-7.564-19.067,19.346-19.93,47.576     c-0.856,28.227,11.135,24.38,10.752-5.035l6.996,2.626l-8.471-8.241c0,0,0.115,20.737-5.076,22.225     c-5.189,1.504-2.591-46.581,9.164-55.269C391.592,204.49,391.93,249.668,391.93,249.668z"/>
		</g>
	</g>
	<g>
		<g>
			<path style="fill:#FFFFFF;" d="M195.186,382.194l-66.411-13.118l-25.416-46.188c0,0,45.705-55.841,80.075,31.156     c0,0,70.146-73.787,115.328-16.125L195.186,382.194z"/>
			<polygon style="fill:#23AFCF;" points="301.652,332.044 291.823,446.413 139.432,435.348 99.533,318.178 180.834,365.248    "/>
			<path style="fill:#061535;" d="M191.458,362.583c-2.566-3.983-5.433-6.087-8.521-6.25c-5.119-0.25-9.267,4.837-9.31,4.887     l-1.279-1.027c0.191-0.238,4.738-5.778,10.666-5.499c3.647,0.19,6.952,2.544,9.823,6.999L191.458,362.583z"/>
			
				<rect x="176.623" y="363.48" transform="matrix(0.9822 -0.1879 0.1879 0.9822 -72.2368 40.6351)" style="fill:#061535;" width="3.279" height="75.881"/>
			
				<rect x="194.217" y="362.119" transform="matrix(0.9995 -0.0316 0.0316 0.9995 -12.5586 6.384)" style="fill:#061535;" width="3.28" height="77.433"/>
			<path style="fill:#061535;" d="M191.571,353.46c19.288-18.492,63.852-49.377,92.482-26.563     c-28.731-22.237-72.501,9.088-91.33,27.73L191.571,353.46z"/>
			<path style="fill:#061535;" d="M191.593,358.215c20.453-17.977,68.64-50.717,96.541-23.577     c-28.054-26.572-75.43,6.647-95.432,24.785L191.593,358.215z"/>
			<path style="fill:#061535;" d="M196.571,358.175c18.632-13.674,61.676-41.6,86.58-22.759     c-25.038-18.312-67.298,10.151-85.563,24.047L196.571,358.175z"/>
			<path style="fill:#061535;" d="M205.577,356.107c16.947-10.946,48.872-29.147,71.386-19.594     c-22.52-9.03-53.879,9.721-70.44,20.932L205.577,356.107z"/>
			<path style="fill:#061535;" d="M177.486,352.939c-7.674-22.729-28.877-57.873-59.369-39.121     c30.476-19.551,52.79,15.861,60.922,38.599L177.486,352.939z"/>
			<path style="fill:#061535;" d="M174.725,355.748c-8.796-26.932-30.534-51.357-61.801-36.768     c31.925-15.668,54.404,10.259,63.366,36.28L174.725,355.748z"/>
			<path style="fill:#061535;" d="M170.375,355.812c-9.695-23.169-31.146-43.825-58.543-31.858     c27.92-12.967,50.255,8.889,60.062,31.242L170.375,355.812z"/>
			<path style="fill:#061535;" d="M166.038,355.89c-8.934-16.937-27.607-33.656-49.014-28.992     c21.57-5.303,41.008,11.355,50.462,28.221L166.038,355.89z"/>
			<polygon style="fill:#061535;" points="180.607,367.011 98.711,319.597 100.354,316.759 181.061,363.484 301.217,330.462      302.087,333.625    "/>
			<path style="fill:#FFB30B;" d="M203.103,398.686l-2.406-33.025l96.027-26.145l-3.89,46.229L203.103,398.686z M204.163,368.115     l1.954,26.824l83.668-12.066l3.279-38.962L204.163,368.115z"/>
			
				<rect x="220.651" y="362.455" transform="matrix(0.9741 -0.226 0.226 0.9741 -76.0488 65.3867)" style="fill:#FFFFFF;" width="53.936" height="4.919"/>
			
				<rect x="210.146" y="376.641" transform="matrix(0.9774 -0.2112 0.2112 0.9774 -74.4659 61.0375)" style="fill:#FFFFFF;" width="76.685" height="4.918"/>
		</g>
		<g>
			<path style="fill:#FFD3A4;" d="M133.134,416.836c-1.425,0.803-3.066,1.227-4.902,1.161c-15.3-0.509-24.613-39.664-11.478-49.271     l3.837,11.279h23.218C143.81,380.005,144.663,410.473,133.134,416.836z"/>
			<path style="fill:#061535;" d="M127.489,392.586c-2.329,0-4.579-0.367-6.514-1.314c-2.93-1.433-4.799-3.958-5.555-7.509     l3.208-0.684c0.542,2.548,1.779,4.264,3.785,5.245c7.032,3.441,20.562-3.032,20.698-3.097l1.43,2.951     C144.068,388.407,135.34,392.586,127.489,392.586z"/>
			<path style="fill:#061535;" d="M126.821,405.007c-1.815,0-3.604-0.268-5.264-0.926c-3.557-1.412-5.982-4.351-7.205-8.737     l3.16-0.882c0.945,3.393,2.665,5.544,5.256,6.57c7.26,2.883,18.677-3.928,18.791-3.998l1.696,2.807     C142.829,400.097,134.591,405.007,126.821,405.007z"/>
			<path style="fill:#061535;" d="M126.834,414.542c-0.96,0-1.913-0.1-2.838-0.329c-2.793-0.693-4.938-2.429-6.374-5.16l2.901-1.527     c0.996,1.894,2.391,3.039,4.263,3.504c4.821,1.193,11.74-2.55,13.996-4.094l1.853,2.706     C140.303,409.87,133.391,414.542,126.834,414.542z"/>
		</g>
		<g>
			<g>
				<path style="fill:#FFD3A4;" d="M353.962,309.496c0,0,53.29,85.816,29.788,115.601c-23.5,29.79-79.115-20.769-79.115-20.769      l3.689-14.755c0,0,73.414,36.346,39.304-54.931L353.962,309.496z"/>
				<path style="fill:#FFD3A4;" d="M309.963,399.403c-2.72,23.219-9.135,32.022-17.006,33.762v0.019      c-2.409,0.539-4.967,0.408-7.59-0.167c-11.199-2.461-20.758-28.088-16.398-47.553l27.482,7.052l1.542-17.858      C304.026,375.283,312.289,379.611,309.963,399.403z"/>
				<path style="fill:#061535;" d="M288.235,405.148c-10.459,0-21.022-10.156-21.488-10.611l2.287-2.351      c0.11,0.107,11.049,10.586,20.461,9.618c3.411-0.357,6.162-2.155,8.407-5.497l2.723,1.829c-2.784,4.143-6.417,6.475-10.797,6.93      C289.299,405.122,288.766,405.148,288.235,405.148z"/>
				<path style="fill:#061535;" d="M287.129,418.924c-9.236,0-17.823-6.382-18.221-6.682l1.972-2.62      c0.098,0.074,9.854,7.319,18.762,5.821c3.736-0.623,6.854-2.742,9.265-6.296l2.713,1.841c-2.936,4.331-6.79,6.918-11.452,7.692      C289.154,418.848,288.137,418.924,287.129,418.924z"/>
				<path style="fill:#061535;" d="M286.719,429.284c-0.102,0-0.204-0.001-0.307-0.003c-6.345-0.105-11.984-3.435-12.531-4.326      l2.795-1.715l-1.397,0.858l1.063-1.244c0.905,0.69,6.756,3.973,12.771,2.953c3.885-0.659,7.176-2.995,9.783-6.943l2.737,1.807      C297.908,426.311,292.757,429.284,286.719,429.284z"/>
			</g>
			<g>
				<polygon style="fill:#FF889C;" points="338.249,326.898 350.752,377.547 393.998,375.906 356.692,305.242     "/>
				<polygon style="fill:#061535;" points="356.692,305.242 393.998,375.906 350.752,377.547 338.249,326.898 353.416,374.659       388.053,373.24     "/>
			</g>
		</g>
	</g>
</g>















</svg>
