<svg width="330" height="435" viewBox="0 0 330 435" fill="none" xmlns="http://www.w3.org/2000/svg">
<path d="M329.604 224.983C326.507 210.264 321.329 196.198 312.167 183.388C311.485 182.431 312.317 181.11 313.464 181.354C317.568 182.223 323.129 185.835 327.402 188.69C328.384 189.344 329.666 188.46 329.392 187.314C326.157 173.726 320.555 160.475 311.342 147.727C310.55 146.628 311.762 145.204 312.974 145.806C318.444 148.534 323.564 150.48 328.125 151.192C329.07 151.339 329.841 150.451 329.574 149.535C325.517 135.619 318.656 123.024 306.876 112.742C305.828 111.829 306.738 110.123 308.074 110.507C312.27 111.712 316.17 112.216 319.909 112.333C320.814 112.362 321.461 111.467 321.172 110.609C315.257 92.9612 301.921 77.5808 281.816 64.2673C280.855 63.6319 281.129 62.164 282.254 61.9157C287.023 60.8677 291.332 59.1551 295.199 56.8108C295.823 56.4347 296.035 55.6168 295.641 55.007C291.792 49.0403 279.314 43.6616 269.583 42.2594C268.385 42.0878 268.064 40.4957 269.097 39.8713C272.607 37.7497 275.572 35.1316 278.087 32.1117C278.646 31.4399 278.387 30.4138 277.576 30.0815C254.283 20.4998 231.749 14.8472 211.655 21.8144C210.841 22.0955 209.968 21.5186 209.931 20.6568C209.756 16.2677 211.841 12.3203 215.752 8.73451C216.548 8.00785 216.128 6.68234 215.069 6.49976C201.292 4.15181 188.106 6.81745 175.738 16.3991C175.577 16.5233 178.327 0 174.763 0C170.045 0 166.843 4.29788 164.816 8.62861C162.79 4.29788 159.587 0 154.87 0C151.306 0 154.055 16.5233 153.887 16.3955C141.519 6.81379 128.334 4.15181 114.556 6.49611C113.494 6.67869 113.078 8.00055 113.874 8.73086C117.784 12.3167 119.869 16.264 119.694 20.6532C119.661 21.5149 118.789 22.0919 117.971 21.8107C97.8761 14.8472 75.3424 20.4998 52.0492 30.0778C51.2422 30.4101 50.9793 31.4362 51.5416 32.1081C54.0612 35.1279 57.0226 37.7461 60.5317 39.8676C61.5688 40.4957 61.2438 42.0841 60.0461 42.2557C50.3147 43.6616 37.8373 49.0367 33.9886 55.0033C33.5942 55.6168 33.8097 56.4311 34.4304 56.8072C38.2974 59.1478 42.6026 60.8604 47.3752 61.912C48.4999 62.1604 48.7737 63.6283 47.8134 64.2636C27.7079 77.5772 14.3725 92.9575 8.45695 110.605C8.16847 111.464 8.81845 112.358 9.72038 112.329C13.4596 112.212 17.3594 111.708 21.5551 110.503C22.8915 110.12 23.8008 111.821 22.7528 112.738C10.9765 123.021 4.11525 135.615 0.0620291 149.531C-0.204534 150.448 0.565943 151.339 1.5117 151.189C6.07613 150.477 11.192 148.527 16.662 145.803C17.8743 145.2 19.0866 146.624 18.2942 147.723C9.07771 160.471 3.47623 173.726 0.244607 187.31C-0.0292597 188.457 1.25243 189.34 2.2347 188.687C6.50702 185.835 12.0683 182.223 16.1727 181.351C17.3229 181.106 18.1518 182.428 17.469 183.385C8.30358 196.198 3.12568 210.264 0.0291652 224.983C-0.193579 226.042 0.901886 226.911 1.8732 226.429C4.08239 225.334 6.07979 223.975 7.92017 222.423C8.90974 221.587 10.3777 222.547 10.0052 223.789C5.7621 237.888 2.48666 246.319 3.10742 257.025C3.15854 257.88 4.0057 258.453 4.82 258.183C7.38704 257.336 12.6599 255.342 17.6004 251.946C18.7215 251.176 20.109 252.45 19.4664 253.648C12.2692 267.107 10.7866 279.983 9.93582 294.687C9.8774 295.728 11.0021 296.415 11.8967 295.885C14.6609 294.253 16.2421 293.066 18.4841 291.138C19.4335 290.32 20.8759 291.186 20.5984 292.409C17.1111 307.749 17.0673 323.688 19.1012 339.989C19.2254 340.986 20.3939 341.464 21.1899 340.85C24.1769 338.546 27.4815 335.231 31.0089 331.218C31.8853 330.217 33.5248 331.035 33.2583 332.335C29.2416 351.838 31.5092 362.825 35.7486 371.144C36.1284 371.892 37.1216 372.086 37.7533 371.534C42.0768 367.74 45.1733 362.555 46.9845 355.92C47.346 354.606 49.2265 354.657 49.5077 355.993C53.2578 373.93 62.8687 385.359 77.4238 391.3C77.5808 391.366 77.7524 391.399 77.9241 391.399H251.723C251.895 391.399 252.063 391.366 252.224 391.3C266.779 385.359 276.39 373.93 280.14 355.993C280.417 354.657 282.301 354.606 282.659 355.92C284.474 362.555 287.567 367.74 291.89 371.534C292.522 372.086 293.512 371.892 293.895 371.144C298.134 362.825 300.402 351.838 296.385 332.335C296.115 331.031 297.755 330.217 298.635 331.218C302.162 335.231 305.467 338.546 308.454 340.85C309.25 341.464 310.418 340.989 310.542 339.989C312.576 323.688 312.533 307.749 309.045 292.409C308.768 291.186 310.21 290.32 311.16 291.138C313.398 293.066 314.979 294.257 317.747 295.885C318.645 296.415 319.77 295.728 319.708 294.687C318.857 279.983 317.375 267.107 310.177 253.648C309.535 252.45 310.922 251.176 312.043 251.946C316.984 255.342 322.257 257.336 324.824 258.183C325.634 258.453 326.485 257.88 326.536 257.025C327.153 246.319 323.882 237.888 319.638 223.789C319.266 222.547 320.734 221.587 321.724 222.423C323.56 223.975 325.558 225.334 327.771 226.429C328.742 226.911 329.837 226.046 329.615 224.983H329.604Z" fill="#BC7655"/>
<path d="M298.97 222.971C296.447 210.987 292.233 199.539 284.773 189.107C284.218 188.329 284.894 187.252 285.828 187.449C289.17 188.157 293.698 191.097 297.177 193.419C297.977 193.952 299.021 193.233 298.799 192.298C296.166 181.238 291.605 170.447 284.101 160.069C283.455 159.175 284.441 158.014 285.43 158.507C289.882 160.727 294.052 162.312 297.765 162.892C298.536 163.013 299.164 162.29 298.945 161.541C295.644 150.214 290.057 139.957 280.464 131.587C279.61 130.842 280.351 129.455 281.439 129.769C284.853 130.751 288.03 131.16 291.076 131.255C291.813 131.277 292.339 130.55 292.105 129.853C287.289 115.484 276.433 102.963 260.063 92.1251C259.282 91.6066 259.504 90.4125 260.421 90.2117C264.303 89.3572 267.812 87.9623 270.959 86.0562C271.467 85.7495 271.642 85.0849 271.321 84.5883C268.188 79.7281 258.029 75.3535 250.109 74.2106C249.134 74.0682 248.871 72.7755 249.715 72.2643C252.57 70.5371 254.984 68.4046 257.032 65.9471C257.489 65.3994 257.273 64.5668 256.616 64.293C237.653 56.4933 219.308 51.8923 202.949 57.5595C202.285 57.7896 201.576 57.3185 201.547 56.6174C201.405 53.0425 203.103 49.8328 206.287 46.9116C206.933 46.32 206.593 45.2428 205.728 45.0931C194.51 43.1833 183.775 45.3524 173.708 53.1521C173.572 53.258 175.811 39.8057 172.908 39.8057C169.066 39.8057 166.459 43.3075 164.812 46.8312C163.166 43.3075 160.555 39.8057 156.717 39.8057C153.814 39.8057 156.052 53.258 155.917 53.1521C145.85 45.3524 135.114 43.1833 123.897 45.0931C123.031 45.2392 122.692 46.32 123.338 46.9116C126.522 49.8328 128.22 53.0425 128.078 56.6174C128.049 57.3185 127.34 57.7896 126.676 57.5595C110.317 51.8886 91.9712 56.4896 73.0087 64.293C72.3514 64.5632 72.1396 65.3994 72.5924 65.9471C74.6409 68.4083 77.0546 70.5371 79.9101 72.2643C80.7536 72.7755 80.4907 74.0682 79.5158 74.2106C71.5956 75.3535 61.4369 79.7317 58.3039 84.5883C57.9826 85.0849 58.1578 85.7495 58.6654 86.0562C61.813 87.9623 65.3185 89.3572 69.2038 90.2117C70.1203 90.4125 70.3431 91.6102 69.5616 92.1251C53.1954 102.963 42.3357 115.484 37.5193 129.853C37.2856 130.55 37.8114 131.277 38.549 131.255C41.5944 131.16 44.7676 130.751 48.1855 129.769C49.2736 129.455 50.0149 130.842 49.1604 131.587C39.5678 139.96 33.9809 150.214 30.6799 161.541C30.4608 162.29 31.0925 163.013 31.8594 162.892C35.573 162.312 39.7431 160.727 44.1943 158.507C45.1802 158.014 46.1661 159.179 45.5235 160.069C38.0195 170.447 33.4624 181.238 30.826 192.298C30.6032 193.233 31.6476 193.952 32.4473 193.419C35.9272 191.097 40.4515 188.157 43.7963 187.449C44.7311 187.252 45.4103 188.325 44.8516 189.107C37.3915 199.535 33.1776 210.987 30.6544 222.971C30.4718 223.833 31.3664 224.541 32.1551 224.147C33.9554 223.252 35.5803 222.15 37.0774 220.886C37.8844 220.207 39.0785 220.985 38.7754 221.996C35.321 233.473 32.6554 240.338 33.1593 249.054C33.1995 249.748 33.8933 250.215 34.5542 249.996C36.6429 249.306 40.9371 247.685 44.9575 244.917C45.8704 244.289 46.9987 245.326 46.4765 246.301C40.6194 257.256 39.4108 267.739 38.717 279.713C38.6695 280.56 39.5824 281.118 40.3127 280.688C42.5657 279.358 43.8511 278.391 45.6732 276.821C46.4473 276.152 47.6231 276.857 47.3967 277.854C44.5558 290.342 44.5229 303.32 46.1771 316.59C46.2793 317.404 47.2287 317.791 47.8787 317.291C50.3107 315.414 53.0018 312.715 55.872 309.447C56.5877 308.633 57.9205 309.297 57.7014 310.356C54.4296 326.233 56.2773 335.176 59.728 341.95C60.0384 342.559 60.8454 342.716 61.3602 342.267C64.8803 339.178 67.3999 334.957 68.8751 329.556C69.1673 328.486 70.7009 328.53 70.9273 329.615C73.98 344.217 81.8053 353.521 93.6546 358.36C93.7824 358.411 93.9211 358.44 94.0599 358.44H235.554C235.693 358.44 235.831 358.414 235.959 358.36C247.808 353.521 255.634 344.217 258.686 329.615C258.913 328.527 260.446 328.483 260.739 329.556C262.214 334.957 264.737 339.178 268.253 342.267C268.768 342.716 269.575 342.559 269.886 341.95C273.336 335.176 275.184 326.233 271.912 310.356C271.693 309.297 273.026 308.633 273.742 309.447C276.612 312.715 279.303 315.414 281.735 317.291C282.385 317.791 283.334 317.404 283.437 316.59C285.094 303.32 285.058 290.342 282.217 277.854C281.991 276.857 283.166 276.152 283.941 276.821C285.763 278.391 287.052 279.358 289.301 280.688C290.031 281.118 290.948 280.56 290.897 279.713C290.203 267.743 288.994 257.259 283.137 246.301C282.615 245.326 283.743 244.289 284.656 244.917C288.677 247.681 292.971 249.302 295.06 249.996C295.72 250.215 296.414 249.748 296.454 249.054C296.958 240.338 294.293 233.473 290.838 221.996C290.535 220.985 291.729 220.203 292.536 220.886C294.033 222.15 295.658 223.256 297.459 224.147C298.247 224.538 299.142 223.833 298.959 222.971H298.97Z" fill="#A16143"/>
<path d="M329.604 224.983C326.507 210.264 321.329 196.198 312.167 183.388C311.485 182.432 312.313 181.11 313.464 181.354C317.568 182.223 323.129 185.835 327.402 188.687C328.384 189.34 329.666 188.457 329.392 187.31C326.157 173.723 320.555 160.471 311.342 147.72C310.55 146.624 311.762 145.197 312.974 145.799C318.444 148.527 323.564 150.473 328.125 151.185C329.07 151.331 329.841 150.444 329.574 149.527C325.517 135.611 318.656 123.017 306.876 112.734C305.828 111.821 306.738 110.116 308.074 110.5C312.27 111.705 316.17 112.209 319.909 112.325C320.814 112.355 321.461 111.46 321.172 110.602C315.257 92.9539 301.921 77.5736 281.816 64.26C280.855 63.6246 281.129 62.1567 282.254 61.9084C287.023 60.8604 291.332 59.1478 295.199 56.8035C295.823 56.4274 296.035 55.6095 295.641 54.9997C291.792 49.033 279.314 43.6543 269.583 42.2521C268.385 42.0805 268.064 40.4884 269.097 39.864C272.607 37.7424 275.572 35.1243 278.087 32.1044C278.646 31.4326 278.387 30.4065 277.576 30.0742C254.283 20.4925 231.749 14.8399 211.655 21.8071C210.841 22.0882 209.968 21.5113 209.931 20.6495C209.756 16.2604 211.841 12.313 215.752 8.72721C216.548 8.00055 216.128 6.67504 215.069 6.49246C201.292 4.14451 188.106 6.81014 175.738 16.3918C175.577 16.5233 178.327 0 174.763 0C170.045 0 166.843 4.29788 164.816 8.62862C162.79 4.29788 159.587 0 154.87 0C151.306 0 154.055 16.5233 153.887 16.3955C141.519 6.8138 128.334 4.15181 114.556 6.49611C113.494 6.67869 113.078 8.00055 113.874 8.73086C117.784 12.3167 119.869 16.264 119.694 20.6532C119.661 21.5149 118.789 22.0919 117.971 21.8107C97.8761 14.8472 75.3424 20.4998 52.0492 30.0778C51.2422 30.4101 50.9793 31.4362 51.5416 32.1081C54.0612 35.1279 57.0226 37.7461 60.5317 39.8676C61.5688 40.4957 61.2438 42.0841 60.0461 42.2558C50.3147 43.6616 37.8373 49.0367 33.9886 55.0033C33.5942 55.6168 33.8097 56.4311 34.4304 56.8072C38.2974 59.1478 42.6026 60.8604 47.3752 61.9121C48.4999 62.1604 48.7737 63.6283 47.8134 64.2637C27.7079 77.5772 14.3725 92.9575 8.45695 110.605C8.16847 111.464 8.81845 112.358 9.72038 112.329C13.4596 112.212 17.3594 111.708 21.5551 110.503C22.8915 110.12 23.8008 111.821 22.7528 112.738C10.9765 123.021 4.11525 135.619 0.0620291 149.531C-0.204534 150.448 0.565943 151.339 1.5117 151.189C6.07613 150.477 11.192 148.527 16.662 145.803C17.8743 145.2 19.0866 146.624 18.2942 147.724C9.07771 160.471 3.47623 173.726 0.244607 187.314C-0.0292597 188.46 1.25243 189.344 2.2347 188.69C6.50702 185.838 12.0683 182.227 16.1727 181.358C17.3229 181.113 18.1555 182.435 17.469 183.392C8.30358 196.198 3.12568 210.264 0.0291652 224.983C-0.193579 226.042 0.901886 226.911 1.8732 226.429C4.08239 225.334 6.07979 223.975 7.92017 222.423C8.90974 221.587 10.3777 222.547 10.0052 223.789C5.7621 237.888 2.48666 246.319 3.10742 257.025C3.15854 257.88 4.0057 258.453 4.82 258.183C7.38704 257.336 12.6599 255.342 17.6004 251.946C17.9072 251.734 67.6267 235.865 67.6267 235.865L262.01 237.869C262.01 237.869 311.755 251.753 312.036 251.946C316.977 255.342 322.249 257.336 324.816 258.183C325.627 258.453 326.478 257.88 326.529 257.025C327.146 246.319 323.874 237.888 319.631 223.789C319.259 222.547 320.727 221.587 321.716 222.423C323.553 223.975 325.55 225.334 327.763 226.429C328.734 226.911 329.83 226.046 329.607 224.983H329.604Z" fill="#BC7655"/>
<path d="M274.914 35.555C277.427 33.3933 279.369 31.0673 277.58 30.0777C255.276 21.2117 234.78 14.8653 213.079 21.3724C210.432 22.6869 207.923 24.3995 206.616 27.0286C208.033 28.1131 209.939 28.6682 212.392 28.3724C218.337 26.5539 224.125 25.1736 230.924 25.2832C240.024 25.2832 250.226 27.2441 262.4 31.374C264.701 32.1554 267.034 32.8346 269.393 33.4189C271.31 33.8936 273.176 34.6312 274.911 35.555H274.914Z" fill="#EB936A"/>
<path d="M302.549 117.689C308.465 122.853 313.277 128.9 317.064 135.965C319.605 140.705 323.064 144.901 327.361 148.136C328.154 148.731 328.917 149.275 329.603 149.706L329.622 149.692C325.729 136.254 319.226 122.959 306.876 112.731C304.222 111.317 300.088 109.992 300.088 109.992C299.409 112.526 299.997 115.393 302.556 117.682L302.549 117.689Z" fill="#EB936A"/>
<path d="M306.091 179.244C305.942 179.58 321.844 211.68 329.6 224.983C327.099 209.205 319.832 194.219 311.963 182.961C309.805 181.219 308.406 180.763 306.091 179.244Z" fill="#EB936A"/>
<path d="M328.665 187.018C328.913 187.273 329.165 187.522 329.417 187.77C330.695 180.715 315.873 152.85 311.342 147.723C310.936 147.161 311.057 146.515 311.429 146.098C309.987 144.744 301.062 136.747 301.062 136.747C301.431 141.158 304.575 149.582 306.014 151.572C309.87 156.907 313.149 162.45 315.877 168.278C319.108 175.176 323.33 181.581 328.665 187.018Z" fill="#EB936A"/>
<path d="M309.235 100.421C310.667 102.82 312.569 104.902 314.873 106.479C314.884 106.487 314.895 106.494 314.91 106.505C316.911 107.871 319.054 108.984 321.074 110.317C315.359 93.5235 302.903 78.7859 284.281 65.9361C283.799 65.7791 282.29 64.4426 281.819 64.2673C279.548 63.4275 275.064 63.369 274.666 63.3946C274.732 65.9251 276.017 68.3096 278.19 69.7483C291.533 78.7567 301.793 87.9513 309.235 100.425V100.421Z" fill="#EB936A"/>
<path d="M289.575 57.1067C290.451 57.5924 291.317 58.0963 292.182 58.6075C294.545 57.5011 296.217 56.2413 295.644 55.0107C289.466 45.608 272.756 42.9935 269.272 41.7373C267.994 41.5876 266.713 41.4635 265.427 41.3649C264.292 41.2772 263.149 41.3503 262.028 41.5766H262.013C262.192 44.9178 264.401 48.0326 268.652 48.7666C274.567 49.621 287.906 56.1865 289.579 57.1103L289.575 57.1067Z" fill="#EB936A"/>
<path d="M205.885 5.69642C195.416 5.69642 185.335 8.96821 175.746 16.3955C175.596 16.4028 178.316 0 174.763 0C170.133 0 166.847 4.38186 164.816 8.62862C162.834 4.10434 159.503 0 154.873 0C151.32 0 154.041 16.4028 153.891 16.3955C144.298 8.96456 134.22 5.69642 123.751 5.69642C121.914 6.05792 111.456 5.08296 113.877 8.73086C114.06 8.89883 114.232 9.06315 114.407 9.23112C116.203 9.35893 118.007 9.41735 119.76 9.70582C139.869 13.0032 155.012 26.7184 156.852 27.1274L160.307 14.493L164.82 23.6511L169.333 14.493L172.788 27.1274C174.632 26.7184 189.775 13.0032 209.88 9.70582C211.633 9.41735 213.441 9.35893 215.233 9.23112C215.405 9.06315 215.58 8.89518 215.763 8.73086C218.184 5.07931 207.726 6.05792 205.889 5.69642H205.885Z" fill="#EB936A"/>
<path d="M54.7184 35.555C52.2062 33.3933 50.2635 31.0673 52.0528 30.0777C74.3565 21.2117 94.8526 14.8653 116.554 21.3724C119.201 22.6869 121.71 24.3995 123.017 27.0286C121.6 28.1131 119.694 28.6682 117.24 28.3724C111.296 26.5539 105.508 25.1736 98.7087 25.2832C89.609 25.2832 79.4066 27.2441 67.2323 31.374C64.9318 32.1554 62.5985 32.8346 60.2396 33.4189C58.3225 33.8936 56.4566 34.6312 54.7221 35.555H54.7184Z" fill="#EB936A"/>
<path d="M27.0833 117.689C21.1678 122.853 16.3551 128.9 12.5684 135.965C10.0269 140.705 6.56893 144.901 2.27105 148.136C1.47867 148.731 0.715492 149.275 0.0289999 149.706L0.0107422 149.692C3.9033 136.254 10.4067 122.959 22.7563 112.731C25.4109 111.317 29.5445 109.992 29.5445 109.992C30.2237 112.526 29.6358 115.393 27.076 117.682L27.0833 117.689Z" fill="#EB936A"/>
<path d="M23.5414 179.244C23.6911 179.58 7.78861 211.68 0.0327148 224.983C2.53403 209.205 9.80061 194.219 17.6697 182.961C19.8278 181.219 21.2263 180.763 23.5414 179.244Z" fill="#EB936A"/>
<path d="M0.967254 187.018C0.718949 187.273 0.466992 187.522 0.215035 187.77C-1.06301 180.715 13.7586 152.85 18.2902 147.723C18.6955 147.161 18.575 146.515 18.2026 146.098C19.6449 144.744 28.5693 136.747 28.5693 136.747C28.2005 141.158 25.0565 149.582 23.6178 151.572C19.7618 156.907 16.4827 162.45 13.755 168.278C10.5234 175.176 6.30217 181.581 0.967254 187.018Z" fill="#EB936A"/>
<path d="M20.4008 100.421C18.9694 102.82 17.067 104.902 14.7628 106.479C14.7519 106.487 14.7409 106.494 14.7263 106.505C12.7253 107.871 10.5818 108.984 8.5625 110.317C14.2772 93.5235 26.7326 78.7859 45.3555 65.9361C45.8375 65.7791 47.3456 64.4426 47.8167 64.2673C50.0879 63.4275 54.572 63.369 54.9701 63.3946C54.9043 65.9251 53.619 68.3096 51.4463 69.7483C38.1035 78.7567 27.8427 87.9513 20.4008 100.425V100.421Z" fill="#EB936A"/>
<path d="M40.0576 57.1067C39.1812 57.5924 38.3158 58.0963 37.4504 58.6075C35.0878 57.5011 33.4154 56.2413 33.9887 55.0107C40.1671 45.608 56.8766 42.9935 60.3602 41.7373C61.6383 41.5876 62.92 41.4635 64.2053 41.3649C65.3409 41.2772 66.4839 41.3503 67.6049 41.5766H67.6195C67.4406 44.9178 65.2314 48.0326 60.981 48.7666C55.0655 49.621 41.7264 56.1865 40.054 57.1103L40.0576 57.1067Z" fill="#EB936A"/>
<path d="M298.971 222.971C296.448 210.987 292.234 199.535 284.773 189.107C284.218 188.329 284.898 187.255 285.832 187.452C289.174 188.161 293.702 191.104 297.181 193.426C297.981 193.96 299.022 193.237 298.799 192.302C296.166 181.245 291.606 170.455 284.105 160.077C283.455 159.179 284.438 158.017 285.431 158.51C289.886 160.73 294.052 162.319 297.769 162.896C298.54 163.016 299.164 162.293 298.945 161.545C295.641 150.21 290.05 139.949 280.446 131.573C279.596 130.832 280.359 129.459 281.443 129.773C284.861 130.755 288.034 131.164 291.08 131.259C291.817 131.281 292.343 130.558 292.106 129.857C287.289 115.488 276.433 102.967 260.067 92.1324C259.289 91.6175 259.505 90.4162 260.418 90.219C264.303 89.3645 267.812 87.9697 270.96 86.0635C271.475 85.7495 271.628 85.063 271.296 84.5591C268.137 79.7135 258.008 75.3572 250.106 74.2179C249.123 74.0755 248.875 72.7792 249.726 72.2643C252.574 70.5408 254.981 68.4119 257.029 65.9581C257.485 65.4104 257.274 64.5742 256.616 64.3003C237.654 56.5006 219.308 51.8996 202.95 57.5705C202.278 57.8042 201.573 57.3112 201.547 56.6028C201.412 53.0389 203.11 49.8365 206.287 46.9226C206.926 46.3347 206.605 45.2538 205.747 45.1077C194.522 43.1907 183.783 45.3597 173.708 53.1631C173.573 53.269 175.811 39.8167 172.908 39.8167C169.067 39.8167 166.46 43.3185 164.813 46.8422C163.166 43.3185 160.559 39.8167 156.717 39.8167C153.814 39.8167 156.053 53.269 155.918 53.1631C145.843 45.3597 135.104 43.1907 123.879 45.1077C123.021 45.2538 122.699 46.3347 123.338 46.9226C126.515 49.8365 128.213 53.0389 128.078 56.6028C128.053 57.3112 127.348 57.8042 126.676 57.5705C110.317 51.8996 91.9716 56.5006 73.0091 64.3003C72.3518 64.5705 72.14 65.4104 72.5965 65.9581C74.6413 68.4119 77.0477 70.5371 79.8996 72.2643C80.7504 72.7792 80.5057 74.0755 79.5198 74.2179C71.6179 75.3572 61.4885 79.7172 58.3299 84.5591C58.0012 85.063 58.1509 85.7532 58.6658 86.0635C61.8134 87.9697 65.3226 89.3645 69.2078 90.219C70.1207 90.4198 70.3362 91.6175 69.5584 92.1324C53.1921 102.97 42.3361 115.491 37.5197 129.857C37.286 130.558 37.8081 131.281 38.5458 131.259C41.5912 131.164 44.768 130.755 48.1822 129.773C49.2704 129.459 50.0299 130.832 49.1791 131.573C39.5755 139.949 33.985 150.21 30.6803 161.545C30.4612 162.293 31.0856 163.016 31.8561 162.896C35.5697 162.315 39.7398 160.73 44.1947 158.51C45.1879 158.014 46.1702 159.175 45.5202 160.077C38.0199 170.455 33.4592 181.241 30.8264 192.302C30.6036 193.237 31.6443 193.96 32.444 193.426C35.9239 191.104 40.4519 188.165 43.793 187.452C44.7278 187.255 45.407 188.329 44.852 189.107C37.3919 199.535 33.178 210.99 30.6548 222.971C30.4722 223.837 31.3705 224.538 32.1629 224.143C33.9594 223.252 35.5844 222.146 37.0778 220.886C37.8848 220.207 39.0789 220.985 38.7758 221.996L35.9459 243.613C35.5624 246.546 38.5348 248.766 41.237 247.564L67.6194 235.861L262.002 237.866L290.437 247.353C293.282 248.576 296.312 246.056 295.626 243.036L290.842 221.996C290.539 220.985 291.733 220.203 292.54 220.886C294.034 222.15 295.659 223.252 297.455 224.143C298.248 224.538 299.146 223.837 298.963 222.971H298.971Z" fill="#A16143"/>
<path d="M256.915 335.278C254.79 327.774 251.719 320.066 247.954 312.208C245.365 306.8 243.711 300.986 243.105 295.023C240.64 270.664 235.484 246.951 228.692 223.635L162.052 235.934L95.4108 223.635C88.619 246.954 83.463 270.664 80.9982 295.023C80.3957 300.986 78.7379 306.8 76.1489 312.208C72.3878 320.066 69.3169 327.774 67.188 335.278C58.5703 365.695 75.0461 397.358 104.832 407.962C123.261 414.524 142.498 416.149 162.052 415.787C181.609 416.149 200.842 414.524 219.271 407.962C249.053 397.362 265.533 365.695 256.915 335.278Z" fill="#FFD183"/>
<path d="M163.422 263.989C131.613 263.989 105.826 308.914 105.826 355.281C105.826 385.071 116.47 404.395 132.519 414.407C142.239 415.641 152.102 415.974 162.052 415.791C173.197 415.996 184.235 415.554 195.081 413.925C210.706 403.785 221.018 384.603 221.018 355.285C221.018 308.917 195.23 263.992 163.422 263.992V263.989Z" fill="#FFEACD"/>
<path d="M219.272 380.021C200.843 386.582 181.606 388.207 162.052 387.846C142.495 388.207 123.262 386.582 104.833 380.021C85.0813 372.988 71.1835 356.691 66.5752 337.641C59.4364 367.32 75.821 397.636 104.833 407.962C123.262 414.524 142.498 416.149 162.052 415.787C181.61 416.149 200.843 414.524 219.272 407.962C248.284 397.636 264.668 367.32 257.529 337.641C252.921 356.694 239.023 372.991 219.272 380.021Z" fill="#FBB96D"/>
<path d="M99.1983 250.785C142.78 264.423 189.585 264.423 233.163 250.785C233.973 250.529 234.78 250.27 235.58 250.011C233.55 241.156 231.238 232.366 228.693 223.635L162.052 235.934L95.4116 223.635C93.1257 231.486 91.0297 239.385 89.1528 247.334C92.3662 248.55 95.7366 249.7 99.1983 250.785Z" fill="#FBB96D"/>
<path d="M164.63 415.82C165.087 415.824 165.547 415.828 166.003 415.831C166.237 415.831 166.467 415.831 166.7 415.831C167.131 415.831 167.566 415.831 167.997 415.831C168.23 415.831 168.464 415.831 168.698 415.828C169.136 415.828 169.578 415.82 170.016 415.817C170.235 415.817 170.454 415.813 170.67 415.809C171.141 415.802 171.615 415.795 172.087 415.784C172.269 415.78 172.452 415.777 172.634 415.773C173.189 415.758 173.748 415.744 174.303 415.725C174.398 415.725 174.497 415.722 174.591 415.718C176.625 415.652 178.652 415.558 180.675 415.43C180.748 415.426 180.817 415.419 180.89 415.415C181.486 415.379 182.081 415.335 182.676 415.291C182.775 415.284 182.87 415.276 182.968 415.269C183.549 415.225 184.126 415.178 184.706 415.13C184.798 415.123 184.889 415.116 184.98 415.108C185.586 415.057 186.196 414.999 186.802 414.94C186.853 414.937 186.908 414.929 186.959 414.926C189.676 414.659 192.382 414.327 195.073 413.922C205.666 407.046 213.816 396.007 217.965 380.473C199.93 386.655 181.142 388.2 162.045 387.846C144.006 388.178 126.245 386.82 109.134 381.459C113.465 396.836 121.775 407.71 132.511 414.407C138.58 415.178 144.707 415.598 150.875 415.758C150.882 415.758 150.886 415.758 150.893 415.758C152.12 415.791 153.343 415.813 154.574 415.824C154.585 415.824 154.596 415.824 154.607 415.824C155.83 415.835 157.057 415.839 158.284 415.831C158.298 415.831 158.313 415.831 158.331 415.831C159.569 415.824 160.807 415.809 162.045 415.788C162.702 415.799 163.359 415.809 164.017 415.817C164.221 415.817 164.422 415.817 164.626 415.82H164.63Z" fill="#F5DEC3"/>
<path d="M104.018 279.749C111.427 268.813 115.666 256.536 116.094 244.292C116.152 242.627 116.134 241.174 115.999 240.137C115.776 238.424 114.64 236.792 113.129 235.335C107.034 229.46 97.5803 229.025 90.7409 234.01C83.792 239.074 74.7362 249.558 63.0877 271.77C57.8843 290.883 64.5958 303.458 66.8452 306.161C74.7946 315.713 84.694 308.264 104.025 279.742V279.749H104.018Z" fill="#E89C4C"/>
<path d="M220.079 279.742C239.41 308.268 249.309 315.717 257.259 306.161C259.512 303.458 266.22 290.883 261.016 271.77C249.364 249.558 240.308 239.074 233.363 234.01C226.524 229.022 217.07 229.46 210.976 235.335C209.464 236.792 208.328 238.424 208.105 240.137C207.97 241.174 207.952 242.627 208.01 244.292C208.438 256.536 212.677 268.809 220.086 279.749V279.742H220.079Z" fill="#E89C4C"/>
<path d="M268.1 125.047C308.921 119.669 295.564 78.7019 277.229 69.1129C264.062 62.2261 247.882 72.3665 244.373 83.522C214.109 82.7004 198.944 96.5361 198.944 96.5361C200.105 93.0671 202.018 89.5142 204.253 85.921C193.309 85.607 174.453 96.0833 166.182 104.584C157.908 96.0797 139.051 85.607 128.111 85.921C130.346 89.5142 132.259 93.0671 133.42 96.5361C133.42 96.5361 118.255 82.6967 87.9912 83.522C84.4858 72.3628 68.3057 62.2225 55.1346 69.1129C36.8002 78.7019 23.4428 119.669 64.2635 125.047C50.8915 136.155 44.4027 151.203 40.5357 167.756L52.9911 161.826C41.5326 176.98 43.3109 191.659 45.8743 206.313L52.3996 197.414C49.325 206.163 50.771 214.076 53.5863 221.733L61.2984 213.43C63.6646 223.628 80.0528 231.647 99.2015 237.639C142.783 251.278 189.588 251.278 233.166 237.639C252.311 231.647 268.699 223.628 271.069 213.43L278.781 221.733C281.597 214.072 283.043 206.163 279.968 197.414L286.493 206.313C289.057 191.659 290.831 176.976 279.376 161.826L291.832 167.756C287.965 151.203 281.476 136.155 268.104 125.047H268.1Z" fill="#FFD183"/>
<path d="M221.017 182.395C229.401 182.395 236.197 173.637 236.197 162.834C236.197 152.03 229.401 143.272 221.017 143.272C212.634 143.272 205.838 152.03 205.838 162.834C205.838 173.637 212.634 182.395 221.017 182.395Z" fill="#2D1815"/>
<path d="M111.343 182.395C119.726 182.395 126.523 173.637 126.523 162.834C126.523 152.03 119.726 143.272 111.343 143.272C102.96 143.272 96.1636 152.03 96.1636 162.834C96.1636 173.637 102.96 182.395 111.343 182.395Z" fill="#2D1815"/>
<path d="M111.343 164.506C106.965 164.506 103.182 161.245 101.367 156.509C100.637 158.419 100.224 160.566 100.224 162.837C100.224 170.75 105.201 177.162 111.339 177.162C117.478 177.162 122.455 170.75 122.455 162.837C122.455 160.566 122.042 158.419 121.312 156.509C119.497 161.249 115.714 164.506 111.336 164.506H111.343Z" fill="#5A302A"/>
<path d="M221.017 164.506C216.639 164.506 212.856 161.245 211.041 156.509C210.311 158.419 209.898 160.566 209.898 162.837C209.898 170.75 214.876 177.162 221.014 177.162C227.152 177.162 232.129 170.75 232.129 162.837C232.129 160.566 231.716 158.419 230.986 156.509C229.171 161.249 225.388 164.506 221.01 164.506H221.017Z" fill="#5A302A"/>
<path d="M105.826 164.4C108.873 164.4 111.343 161.217 111.343 157.29C111.343 153.364 108.873 150.181 105.826 150.181C102.778 150.181 100.308 153.364 100.308 157.29C100.308 161.217 102.778 164.4 105.826 164.4Z" fill="white"/>
<path d="M216.438 164.477C219.486 164.477 221.956 161.294 221.956 157.367C221.956 153.441 219.486 150.258 216.438 150.258C213.391 150.258 210.921 153.441 210.921 157.367C210.921 161.294 213.391 164.477 216.438 164.477Z" fill="white"/>
<path d="M81.5317 201.956C89.6126 201.956 96.1634 195.406 96.1634 187.325C96.1634 179.244 89.6126 172.693 81.5317 172.693C73.4508 172.693 66.8999 179.244 66.8999 187.325C66.8999 195.406 73.4508 201.956 81.5317 201.956Z" fill="#FDAB40"/>
<path d="M250.876 202.873C258.957 202.873 265.508 196.322 265.508 188.241C265.508 180.16 258.957 173.609 250.876 173.609C242.795 173.609 236.244 180.16 236.244 188.241C236.244 196.322 242.795 202.873 250.876 202.873Z" fill="#FDAB40"/>
<path d="M181.723 209.804C177.02 209.804 172.594 208.65 169.257 206.554C165.189 203.998 162.947 200.142 162.947 195.698C162.947 194.124 164.221 192.849 165.795 192.849C167.369 192.849 168.643 194.124 168.643 195.698C168.643 199.751 172.737 204.111 181.723 204.111C190.71 204.111 194.803 199.751 194.803 195.698C194.803 194.124 196.077 192.849 197.651 192.849C199.225 192.849 200.499 194.124 200.499 195.698C200.499 200.142 198.257 203.998 194.189 206.554C190.852 208.65 186.426 209.804 181.723 209.804Z" fill="#2D1815"/>
<path d="M149.863 209.804C145.16 209.804 140.734 208.65 137.397 206.554C133.329 203.998 131.087 200.142 131.087 195.698C131.087 194.124 132.361 192.849 133.935 192.849C135.509 192.849 136.783 194.124 136.783 195.698C136.783 199.751 140.877 204.111 149.863 204.111C158.85 204.111 162.943 199.751 162.943 195.698C162.943 194.124 164.217 192.849 165.791 192.849C167.365 192.849 168.639 194.124 168.639 195.698C168.639 200.142 166.397 203.998 162.33 206.554C158.992 208.65 154.566 209.804 149.863 209.804Z" fill="#2D1815"/>
<path d="M248.386 139.307C229.843 146.511 208.164 133.384 211.209 125.19C211.673 123.937 213.353 123.747 214.302 124.784C223.277 134.563 234.637 139.402 248.386 139.307Z" fill="#5A302A"/>
<path d="M87.0928 139.307C105.635 146.511 127.315 133.384 124.269 125.19C123.805 123.937 122.126 123.747 121.176 124.784C112.201 134.563 100.841 139.402 87.0928 139.307Z" fill="#5A302A"/>
<path d="M281.341 92.1105C281.531 98.6248 277 104.146 271.256 106.746C272.399 103.733 272.621 100.305 272.125 97.3139C270.485 86.9691 266.111 82.4083 276.021 74.9226C272.223 75.6091 268.437 77.4531 266.432 81.0828C264.391 84.7489 264.683 88.9446 265.092 92.8809C265.42 96.1053 265.961 99.3515 265.326 102.338C264.77 105.121 263.149 107.184 260.955 109.039L254.13 114.922L262.901 115.141C268.933 115.294 274.801 112.395 278.639 107.823C282.254 103.653 284.142 97.0437 281.338 92.1032L281.341 92.1105Z" fill="#FDAB57"/>
<path d="M51.0193 92.1105C50.8295 98.6248 55.361 104.146 61.1049 106.746C59.962 103.733 59.7392 100.305 60.2359 97.3139C61.8754 86.9691 66.25 82.4083 56.3396 74.9226C60.1373 75.6091 63.9239 77.4531 65.9286 81.0828C67.9698 84.7489 67.6777 88.9446 67.2687 92.8809C66.9401 96.1053 66.3997 99.3515 67.035 102.338C67.5901 105.121 69.2114 107.184 71.4059 109.039L78.2307 114.922L69.4597 115.141C63.4273 115.294 57.5593 112.395 53.7215 107.823C50.1064 103.653 48.2186 97.0437 51.023 92.1032L51.0193 92.1105Z" fill="#FDAB57"/>
<path d="M187.39 178.48C185.334 200.952 146.245 200.938 144.2 178.48C144.167 159.704 187.427 159.708 187.39 178.48Z" fill="#2D1815"/>
<path d="M155.538 188.128C156.907 191.191 163.064 191.202 166.507 191.177C169.797 191.064 173.022 190.22 175.925 189.092C185.251 185.462 184.619 177.107 183.79 175.793C182.917 174.796 181.402 176.498 180.511 177.173C177.568 179.915 170.378 183.72 166.179 184.721C162.914 185.736 154.946 184.257 155.523 188.084L155.538 188.131V188.128Z" fill="#1E100E"/>
<path d="M152.912 180.876C155.509 179.861 158.649 177.849 160.57 175.716C165.284 170.224 157.075 168.216 152.821 170.48C150.568 171.502 148.662 173.456 147.848 175.789C146.515 179.58 148.6 182.647 152.825 180.909L152.912 180.876Z" fill="white"/>
<path d="M246.293 174.018C230.46 172.835 218.742 174.219 204.983 182.84L227.178 186.072L246.293 174.015V174.018Z" fill="#FFD183"/>
<path d="M89.1523 174.018C104.985 172.835 116.703 174.219 130.462 182.84L108.268 186.072L89.1523 174.015V174.018Z" fill="#FFD183"/>
<path d="M260.845 419.439C260.812 426.454 257.712 427.531 254.966 427.819C252.943 428.031 250.84 429.09 248.638 430.332C240.166 435.112 231.87 432.895 231.87 432.895C229.686 433.07 227.415 433.213 225.071 433.341C225.071 433.341 222.274 434.688 217.99 434.816C195.709 435.473 183.355 425.092 182.914 415.269C182.417 404.223 202.957 395.573 211.575 395.635C233.864 395.788 260.911 406.294 260.849 419.443L260.845 419.439Z" fill="#E89C4C"/>
<path d="M230.562 415.623C229.138 413.465 227.309 411.625 225.268 410.08C226.137 411.004 226.958 411.957 227.67 412.983C229.759 415.948 231.07 419.618 231.019 423.193C231.063 427.155 228.945 432.402 225.074 433.341C227.422 433.213 229.69 433.067 231.873 432.895C234.765 427.531 233.867 420.56 230.562 415.623Z" fill="#8B5E30"/>
<path d="M249.485 412.465C247.71 410.752 245.625 409.383 243.372 408.565C245.457 409.751 247.206 411.398 248.583 413.261C249.956 415.127 250.971 417.226 251.526 419.388C252.6 423.332 251.866 427.827 248.641 430.332C251.077 429.652 253.202 428.827 254.966 427.819C255.072 427.323 255.156 426.826 255.196 426.326C255.623 420.991 253.136 416.039 249.488 412.468L249.485 412.465Z" fill="#8B5E30"/>
<path d="M63.2591 419.439C63.292 426.454 66.3922 427.531 69.1381 427.819C71.1611 428.031 73.2644 429.09 75.4663 430.332C83.9379 435.112 92.2342 432.895 92.2342 432.895C94.4178 433.07 96.6891 433.213 99.0334 433.341C99.0334 433.341 101.83 434.688 106.114 434.816C128.396 435.473 140.749 425.092 141.191 415.269C141.687 404.223 121.147 395.573 112.53 395.635C90.2404 395.788 63.1934 406.294 63.2555 419.443L63.2591 419.439Z" fill="#E89C4C"/>
<path d="M93.5418 415.623C94.9659 413.465 96.7954 411.625 98.8366 410.08C97.9675 411.004 97.1459 411.957 96.4339 412.983C94.3452 415.948 93.0343 419.618 93.0854 423.193C93.0416 427.155 95.1595 432.402 99.0301 433.341C96.6822 433.213 94.4146 433.067 92.2309 432.895C89.3389 427.531 90.2372 420.56 93.5418 415.623Z" fill="#8B5E30"/>
<path d="M74.6191 412.465C76.3937 410.752 78.4788 409.383 80.7318 408.565C78.6467 409.751 76.8976 411.398 75.521 413.261C74.148 415.127 73.1329 417.226 72.5778 419.388C71.5043 423.332 72.2383 427.827 75.4626 430.332C73.027 429.652 70.9018 428.827 69.1381 427.819C69.0322 427.323 68.9482 426.826 68.908 426.326C68.4808 420.991 70.9675 416.039 74.6154 412.468L74.6191 412.465Z" fill="#8B5E30"/>
<path d="M244.373 83.5257C214.109 82.7041 198.944 96.5398 198.944 96.5398C200.105 93.0708 202.018 89.5179 204.253 85.9247C193.309 85.6107 174.453 96.087 166.182 104.588C166.182 104.588 166.182 104.591 166.178 104.602V104.595C157.904 96.0907 139.047 85.618 128.107 85.932C130.342 89.5252 132.256 93.0781 133.417 96.5471C133.417 96.5471 118.252 82.7077 87.9878 83.533C87.9878 83.533 126.53 91.9425 144.024 117.894C147.132 112.873 144.886 102.141 144.886 102.141C149.622 103.642 153.979 106.439 158.167 109.065C160.953 110.81 163.725 112.716 166.178 114.944C166.178 114.944 166.182 114.947 166.186 114.951C166.186 114.947 166.186 114.944 166.186 114.936C168.64 112.709 171.415 110.806 174.201 109.057C178.389 106.428 182.746 103.635 187.482 102.134C187.482 102.134 185.236 112.862 188.343 117.887C205.845 91.9315 244.38 83.5257 244.38 83.5257H244.373Z" fill="#FBB96D"/>
<path d="M83.175 299.986C65.527 333.73 51.0121 259.172 45.6188 250.507C44.2056 248.232 41.7372 245.702 38.8999 243.029C37.1837 241.408 35.3214 239.735 33.4774 238.026C26.7914 231.859 20.2697 225.297 21.0512 219.462C21.0512 219.447 21.0548 219.436 21.0548 219.425C21.5879 215.577 23.0887 211.794 25.3016 208.562C28.8983 203.293 34.3903 199.477 40.7001 199.152C45.7685 198.893 50.6324 200.791 55.1895 203.125C55.9089 203.486 56.6209 203.866 57.322 204.246C57.6105 204.403 57.9026 204.564 58.1911 204.724C64.8661 208.401 71.344 212.674 76.1896 218.542C77.1609 219.717 78.0774 220.992 78.9501 222.361C79.6914 223.53 80.3962 224.768 81.0607 226.06C91.6283 246.575 92.7201 281.721 83.175 299.986Z" fill="#FDAB57"/>
<path d="M38.8706 242.898C38.9071 242.963 38.9291 242.978 38.9437 243L38.8998 243.029C37.1836 241.404 35.3213 239.732 33.4773 238.026C33.397 236.986 33.3933 235.941 33.4371 234.904C33.7986 228.127 37.819 221.456 44.1617 218.838C47.1633 217.516 50.3256 216.8 53.4951 216.453C48.9562 217.567 44.3772 219.338 41.12 222.708C36.0882 228.215 35.3834 236.427 38.8706 242.898Z" fill="#836138"/>
<path d="M42.9966 206.751C40.1009 206.393 37.1724 206.484 34.3534 206.992C28.2297 208.025 24.4358 211.052 22.1061 216.756C21.7336 217.603 21.3758 218.567 21.0508 219.462C21.0508 219.451 21.0544 219.44 21.0544 219.425C21.5876 215.577 23.0883 211.797 25.2975 208.562C27.7696 206.963 30.6909 206.105 34.2256 205.933C37.1943 205.769 40.1593 206.042 42.993 206.755L42.9966 206.751Z" fill="#836138"/>
<path d="M81.0607 226.06C76.3356 226.652 68.5724 223.676 64.5813 221.006C62.4159 219.553 60.4148 217.545 59.0126 215.186C57.1869 212.319 56.1279 207.897 58.191 204.724C64.8661 208.401 71.3439 212.674 76.1895 218.542C77.1609 219.717 78.0774 220.992 78.9501 222.361C79.6914 223.53 80.3961 224.767 81.0607 226.06Z" fill="#E89C4C"/>
<path d="M240.929 299.986C258.577 333.73 273.092 259.172 278.485 250.507C279.898 248.232 282.367 245.702 285.204 243.029C286.92 241.407 288.783 239.735 290.627 238.026C297.313 231.859 303.834 225.297 303.053 219.462C303.053 219.447 303.049 219.436 303.049 219.425C302.516 215.576 301.015 211.793 298.802 208.562C295.206 203.293 289.714 199.477 283.404 199.152C278.335 198.892 273.472 200.791 268.914 203.125C268.195 203.486 267.483 203.866 266.782 204.246C266.493 204.403 266.201 204.563 265.913 204.724C259.238 208.401 252.76 212.673 247.914 218.541C246.943 219.717 246.027 220.992 245.154 222.361C244.413 223.529 243.708 224.767 243.043 226.06C232.476 246.574 231.384 281.721 240.929 299.986Z" fill="#FDAB57"/>
<path d="M285.233 242.897C285.197 242.963 285.175 242.978 285.16 243L285.204 243.029C286.92 241.404 288.783 239.732 290.627 238.026C290.707 236.986 290.711 235.941 290.667 234.904C290.305 228.127 286.285 221.455 279.942 218.837C276.941 217.515 273.778 216.8 270.609 216.453C275.148 217.567 279.727 219.338 282.984 222.708C288.016 228.215 288.721 236.427 285.233 242.897Z" fill="#836138"/>
<path d="M281.107 206.751C284.003 206.393 286.931 206.484 289.75 206.992C295.874 208.025 299.668 211.052 301.997 216.756C302.37 217.603 302.728 218.567 303.053 219.462C303.053 219.451 303.049 219.44 303.049 219.425C302.516 215.576 301.015 211.797 298.806 208.562C296.334 206.962 293.413 206.104 289.878 205.933C286.909 205.768 283.944 206.042 281.111 206.754L281.107 206.751Z" fill="#836138"/>
<path d="M243.043 226.06C247.769 226.652 255.532 223.676 259.523 221.006C261.688 219.553 263.689 217.545 265.092 215.186C266.917 212.319 267.976 207.897 265.913 204.724C259.238 208.401 252.76 212.674 247.915 218.542C246.943 219.717 246.027 220.992 245.154 222.361C244.413 223.53 243.708 224.767 243.043 226.06Z" fill="#E89C4C"/>
</svg>
