<svg id="Layer_1" enable-background="new 0 0 66 66" viewBox="0 0 66 66" xmlns="http://www.w3.org/2000/svg"><g><g><g><path d="m63.76 20.65v32.03c0 1.27-1.03 2.31-2.31 2.31h-56.9c-.83 0-1.56-.44-1.97-1.1-.22-.35-.34-.77-.34-1.21v-32.03c0-1.27 1.03-2.31 2.31-2.31h56.91c1.27 0 2.3 1.04 2.3 2.31z" fill="#2c449c"/></g></g><g><g><path d="m63.63 32.29c.05-.02.08-.05.13-.07v20.45c0 1.27-1.03 2.31-2.31 2.31h-56.9c-.83 0-1.56-.44-1.97-1.1 1.52.7 3.5.25 5.03-.57 1.81-.96 3.41-2.36 5.4-2.88 4.82-1.29 9.95 3.04 14.69 1.42 3.13-1.06 5.17-4.51 8.43-5.03 1.97-.32 3.91.52 5.8 1.14s4.1.99 5.76-.1c2.46-1.64 2.55-5.76 5.25-6.95 1.55-.69 3.56-.16 4.87-1.23 1.61-1.31 1.06-4.06 2.44-5.61.86-.95 2.24-1.21 3.38-1.78z" fill="#28387f"/></g></g><g><g><path d="m29.91 49.05h6.43v5.93h-6.43z" fill="#1f2b5c"/></g></g><g><g><path d="m44.12 55.22h-39.57c-.89 0-1.71-.45-2.17-1.22-.25-.39-.38-.85-.38-1.32v-32.03c0-1.4 1.14-2.55 2.55-2.55h56.91c1.4 0 2.55 1.14 2.55 2.55v6.1c0 .13-.11.24-.24.24s-.24-.11-.24-.24v-6.1c0-1.14-.93-2.07-2.07-2.07h-56.91c-1.14 0-2.07.93-2.07 2.07v32.03c0 .38.11.76.3 1.08.38.62 1.04.99 1.76.99h39.58c.13 0 .24.11.24.24 0 .12-.11.23-.24.23z" fill="#010101"/></g></g><g><g><path d="m5.99 18.34h54.88v32.57h-54.88z" fill="#c7c4c4"/></g></g><g><g><path d="m26.5 51.15h-20.51c-.13 0-.24-.11-.24-.24v-32.57c0-.13.11-.24.24-.24h32.43c.13 0 .24.11.24.24s-.11.24-.24.24h-32.19v32.09h20.27c.13 0 .24.11.24.24 0 .14-.1.24-.24.24z" fill="#010101"/></g></g><g><g><path d="m60.87 51.15h-14.9c-.13 0-.24-.11-.24-.24s.11-.24.24-.24h14.66v-7.74c0-.13.11-.24.24-.24s.24.11.24.24v7.98c0 .14-.11.24-.24.24z" fill="#010101"/></g></g><g><g><path d="m60.87 15.56v35.35c-9.14-5.36-18.3-5.36-27.43 0-5.18-3.04-10.36-4.35-15.54-3.95-3.97.31-7.93 1.63-11.9 3.95v-35.35c0-.79.46-1.54 1.19-1.85 2.24-.96 4.47-1.67 6.7-2.11 4.33-.87 8.65-.76 12.98.3.04.01.08.01.12.03.18.04.37.09.55.15 1.79.47 3.56 1.12 5.35 1.93.18.08.37.17.55.26 8.72-4.13 17.46-4.31 26.18-.57.75.31 1.25 1.04 1.25 1.86z" fill="#f3eded"/></g></g><g><g><path d="m14.62 13.47c-.09.55-.49 1.06-1.03 1.2-.62.15-1.33-.15-1.85.22-.41.29-.47.87-.51 1.38-.04.5-.17 1.08-.64 1.29-.51.22-1.13-.17-1.65.03-.37.13-.59.53-.66.91s-.03.78-.04 1.17-.1.81-.37 1.08c-.38.38-1.02.4-1.51.17-.13-.06-.26-.13-.37-.22v-5.13c0-.79.46-1.54 1.19-1.85 2.24-.96 4.47-1.67 6.7-2.11.1.1.19.19.28.3.35.43.55 1 .46 1.56z" fill="#d8d6d6"/></g></g><g><g><path d="m7.47 23c-.13 0-.25-.01-.37-.03-.4-.07-.8-.22-1.23-.46-.12-.07-.16-.21-.09-.33s.21-.15.33-.09c.38.22.73.35 1.07.41.51.08 1.2-.05 1.51-.56.22-.35.22-.79.23-1.25 0-.12 0-.23.01-.35.04-.87.37-1.48.92-1.69.5-.19 1.01 0 1.46.17.41.15.79.3 1.11.16.42-.18.55-.78.62-1.28.06-.47.18-1.34.84-1.69.51-.28 1.12-.1 1.6.09.45.19.87.36 1.24.27.35-.09.64-.43.74-.87.1-.45 0-.93-.11-1.33-.27-1-.78-1.96-1.45-2.78-.08-.1-.07-.25.03-.34.1-.08.25-.07.34.03.72.87 1.25 1.9 1.55 2.96.13.46.24 1.01.11 1.56-.14.61-.57 1.09-1.09 1.22-.53.14-1.05-.08-1.51-.27-.43-.17-.89-.31-1.23-.13-.41.22-.52.8-.59 1.33-.08.63-.26 1.38-.91 1.66-.5.21-1.02.02-1.47-.15-.4-.15-.78-.3-1.11-.17-.51.2-.59.95-.61 1.27-.01.11-.01.22-.01.33-.01.51-.02 1.04-.3 1.5-.36.58-1.02.81-1.63.81z" fill="#d8d6d6"/></g></g><g><g><path d="m32.88 14v16.37c0 .29-.35.47-.58.29l-2.16-1.65c-.13-.1-.31-.1-.44 0l-2.15 1.65c-.23.18-.58.01-.58-.29v-18.45c.18.05.37.09.55.14 1.8.48 3.57 1.13 5.36 1.94z" fill="#f05360"/></g></g><g><g><path d="m32.88 19.05v11.32c0 .29-.35.47-.58.29l-2.16-1.65c-.13-.1-.31-.1-.44 0l-2.15 1.65c-.23.18-.58.01-.58-.29v-1.45c.61.32 1.48.14 1.86-.45.29-.46.3-1.03.35-1.58.05-.54.19-1.14.63-1.45.41-.29.99-.26 1.36-.6.39-.34.41-.94.32-1.45s-.27-1.03-.17-1.54c.11-.54.48-.96.79-1.4.33-.43.58-.91.77-1.4z" fill="#ef4050"/></g></g><g><g><path d="m60.87 26.36v24.55c-9.15-5.37-18.3-5.37-27.44 0-5.18-3.04-10.35-4.36-15.54-3.96 1.05-1.23 2.84-1.67 4.48-1.59 1.76.08 3.48.64 5.24.84s3.72-.05 4.97-1.3c.33-.33.6-.72.84-1.12.57-.93 1.04-1.94 1.91-2.58 1.56-1.12 3.71-.57 5.52.07 1.81.63 3.92 1.26 5.55.24 1.36-.84 1.87-2.52 2.34-4.05.47-1.52 1.17-3.2 2.64-3.8 1.02-.42 2.19-.21 3.28-.35 2.18-.28 3.99-1.93 5.03-3.87.54-.96.9-2.01 1.18-3.08z" fill="#d8d6d6"/></g></g><g><g><path d="m33.43 14.28c.43 11.91.43 23.9 0 35.81-.43-11.91-.43-23.9 0-35.81z" fill="#c7c4c4"/></g></g><g><g><path d="m33.43 51.15c-.04 0-.08-.01-.12-.03-5.11-3-10.29-4.32-15.4-3.92-3.91.3-7.88 1.62-11.8 3.92-.07.04-.17.04-.24 0s-.12-.12-.12-.21v-35.35c0-.91.52-1.72 1.33-2.07 6.58-2.83 13.25-3.45 19.84-1.83.04.01.09.02.14.04l.05.01c.16.04.32.08.48.13 1.75.46 3.56 1.12 5.38 1.94l.45.21c6.27-2.94 12.64-3.87 18.92-2.75.13.02.22.15.19.28-.02.13-.15.22-.28.19-6.22-1.1-12.52-.18-18.74 2.76-.06.03-.14.03-.2 0l-.55-.26c-1.8-.81-3.59-1.46-5.31-1.92-.16-.05-.31-.08-.47-.12l-.08-.02c-.05-.02-.08-.02-.1-.03-6.49-1.6-13.06-.99-19.54 1.8-.63.28-1.05.92-1.05 1.63v34.95c3.87-2.21 7.78-3.48 11.64-3.78 5.17-.4 10.4.92 15.56 3.92 9.02-5.25 18.17-5.29 27.2-.14v-19.15c0-.13.11-.24.24-.24s.24.11.24.24v19.56c0 .09-.05.17-.12.21s-.17.04-.24 0c-9.03-5.29-18.17-5.29-27.19 0-.03.02-.07.03-.11.03z" fill="#010101"/></g></g><g><g><path d="m10.68 25.74c-.27 0-.52-.09-.73-.27-.26-.22-.41-.54-.41-.88v-2.94c0-.55.4-1.03.94-1.13l2.97-.54c.34-.06.68.03.94.25s.41.54.41.88v2.94c0 .55-.4 1.03-.94 1.13l-2.97.54c-.08.01-.15.02-.21.02zm2.97-5.29c-.04 0-.08 0-.12.01l-2.97.54c-.32.06-.55.33-.55.65v2.94c0 .2.09.38.24.51s.35.18.54.14l2.97-.54c.32-.06.55-.33.55-.65v-2.94c0-.2-.09-.38-.24-.51-.12-.09-.27-.15-.42-.15z" fill="#010101"/></g></g><g><g><path d="m25.97 22.22c-.02 0-.03 0-.05-.01-3.17-.7-6.41-.88-9.64-.54-.14.02-.25-.08-.26-.21s.08-.25.21-.26c3.28-.35 6.57-.16 9.79.54.13.03.21.16.18.29-.02.11-.12.19-.23.19z" fill="#010101"/></g></g><g><g><path d="m25.97 24.61c-.02 0-.03 0-.05-.01-3.17-.7-6.41-.88-9.64-.54-.14.02-.25-.08-.26-.21s.08-.25.21-.26c3.28-.35 6.57-.16 9.79.55.13.03.21.16.18.29-.02.11-.12.18-.23.18z" fill="#010101"/></g></g><g><g><path d="m10.68 33.43c-.27 0-.52-.09-.73-.27-.26-.22-.41-.54-.41-.88v-2.94c0-.55.4-1.03.94-1.13l2.97-.54c.34-.06.68.03.94.25s.41.54.41.88v2.94c0 .55-.4 1.03-.94 1.13l-2.97.54c-.08.01-.15.02-.21.02zm2.97-5.29c-.04 0-.08 0-.12.01l-2.97.54c-.32.06-.55.33-.55.65v2.94c0 .2.09.38.24.51s.35.18.54.14l2.97-.54c.32-.06.55-.33.55-.65v-2.94c0-.2-.09-.38-.24-.51-.12-.09-.27-.15-.42-.15z" fill="#010101"/></g></g><g><g><path d="m25.97 29.91c-.02 0-.03 0-.05-.01-3.17-.7-6.41-.88-9.64-.54-.14.02-.25-.08-.26-.21s.08-.25.21-.26c3.28-.35 6.57-.16 9.79.54.13.03.21.16.18.29-.02.11-.12.19-.23.19z" fill="#010101"/></g></g><g><g><path d="m25.97 32.3c-.02 0-.03 0-.05-.01-3.17-.7-6.41-.88-9.64-.54-.14.02-.25-.08-.26-.21s.08-.25.21-.26c3.28-.35 6.57-.17 9.79.55.13.03.21.16.18.29-.02.1-.12.18-.23.18z" fill="#010101"/></g></g><g><g><path d="m10.68 41.12c-.27 0-.52-.09-.73-.27-.26-.22-.41-.54-.41-.88v-2.94c0-.55.4-1.03.94-1.13l2.97-.54c.34-.06.68.03.94.25s.41.54.41.88v2.94c0 .55-.4 1.03-.94 1.13l-2.97.54c-.08.01-.15.02-.21.02zm2.97-5.29c-.04 0-.08 0-.12.01l-2.97.54c-.32.06-.55.33-.55.65v2.94c0 .2.09.38.24.51s.35.18.54.14l2.97-.54c.32-.06.55-.33.55-.65v-2.94c0-.2-.09-.38-.24-.51-.12-.1-.27-.15-.42-.15z" fill="#010101"/></g></g><g><g><path d="m25.97 37.6c-.02 0-.03 0-.05-.01-3.17-.7-6.41-.88-9.64-.54-.14.01-.25-.08-.26-.21s.08-.25.21-.26c3.28-.35 6.57-.16 9.79.54.13.03.21.16.18.29-.02.11-.12.19-.23.19z" fill="#010101"/></g></g><g><g><path d="m25.97 39.99c-.02 0-.03 0-.05-.01-3.17-.7-6.41-.88-9.64-.54-.14.02-.25-.08-.26-.21s.08-.25.21-.26c3.28-.35 6.57-.17 9.79.55.13.03.21.16.18.29-.02.1-.12.18-.23.18z" fill="#010101"/></g></g><g><g><path d="m39.21 20.61c-.1 0-.19-.06-.23-.16-.04-.13.02-.26.15-.31 5.3-1.86 10.53-2.07 15.54-.62.13.04.2.17.16.3s-.17.2-.3.16c-4.91-1.42-10.04-1.22-15.25.61-.01.02-.04.02-.07.02z" fill="#010101"/></g></g><g><g><path d="m39.21 24.76c-.1 0-.19-.06-.23-.16-.04-.13.02-.26.15-.31 5.3-1.86 10.53-2.07 15.54-.62.13.04.2.17.16.3s-.17.2-.3.16c-4.91-1.42-10.04-1.22-15.25.61-.01.02-.04.02-.07.02z" fill="#010101"/></g></g><g><g><path d="m39.21 28.91c-.1 0-.19-.06-.23-.16-.04-.13.02-.26.15-.31 5.3-1.86 10.53-2.07 15.54-.62.13.04.2.17.16.3s-.17.2-.3.16c-4.91-1.42-10.04-1.22-15.25.61-.01.02-.04.02-.07.02z" fill="#010101"/></g></g><g><g><path d="m39.21 33.06c-.1 0-.19-.06-.23-.16-.04-.13.02-.26.15-.31 5.3-1.86 10.53-2.07 15.54-.62.13.04.2.17.16.3s-.17.2-.3.16c-4.91-1.42-10.04-1.22-15.25.61-.01.01-.04.02-.07.02z" fill="#010101"/></g></g><g><g><path d="m39.21 37.21c-.1 0-.19-.06-.23-.16-.04-.13.02-.26.15-.31 5.3-1.86 10.53-2.07 15.54-.62.13.04.2.17.16.3s-.17.2-.3.16c-4.91-1.42-10.04-1.22-15.25.61-.01.01-.04.02-.07.02z" fill="#010101"/></g></g><g><g><path d="m39.21 41.35c-.1 0-.19-.06-.23-.16-.04-.13.02-.26.15-.31 5.3-1.86 10.53-2.07 15.54-.62.13.04.2.17.16.3s-.17.2-.3.16c-4.91-1.42-10.04-1.22-15.25.61-.01.02-.04.02-.07.02z" fill="#010101"/></g></g><g><g><path d="m11.46 24.48c-.41 0-.78-.28-.96-.41-.14-.11-.17-.31-.06-.45s.31-.17.45-.06c.21.16.48.34.66.27.1-.04.19-.16.28-.29l1.55-2.16c.1-.14.3-.18.45-.07.14.1.18.3.07.45l-1.55 2.16c-.12.17-.29.41-.57.52-.11.02-.22.04-.32.04z" fill="#d3dc60"/></g></g><g><g><path d="m11.46 32.17c-.41 0-.78-.28-.96-.41-.14-.11-.17-.31-.06-.45s.31-.17.45-.06c.21.16.48.34.66.27.1-.04.19-.16.28-.29l1.55-2.16c.1-.14.3-.18.45-.07.14.1.18.3.07.45l-1.55 2.16c-.12.17-.29.41-.57.52-.11.02-.22.04-.32.04z" fill="#d3dc60"/></g></g><g><g><g><path d="m13.51 39.75c-.07 0-.14-.02-.2-.07l-2.81-2.19c-.14-.11-.17-.31-.06-.45s.31-.17.45-.06l2.81 2.19c.14.11.17.31.06.45-.06.08-.16.13-.25.13z" fill="#f05360"/></g></g><g><g><path d="m11.05 40.09c-.07 0-.13-.02-.19-.06-.14-.1-.17-.31-.07-.45l2.11-2.87c.11-.14.31-.17.45-.07s.17.31.07.45l-2.11 2.87c-.07.08-.16.13-.26.13z" fill="#f05360"/></g></g></g><g><g><path d="m35.62 42.93c-.44 0-.84.21-1.12.55-.29.34-.47.81-.47 1.33 0-1.04-.71-1.88-1.58-1.88.44 0 .83-.21 1.12-.55.28-.34.46-.81.46-1.33 0 .52.18.98.47 1.33.28.34.68.55 1.12.55z" fill="#fff"/></g></g><g><g><path d="m30.52 26.76c-.44 0-.84.21-1.12.55-.29.34-.47.81-.47 1.33 0-1.04-.71-1.88-1.58-1.88.44 0 .83-.21 1.12-.55.28-.34.46-.81.46-1.33 0 .52.18.98.47 1.33.28.34.68.55 1.12.55z" fill="#fff"/></g></g><g><g><path d="m61.91 34.63c-.44 0-.84.21-1.12.55-.29.34-.47.81-.47 1.33 0-1.04-.71-1.88-1.58-1.88.44 0 .83-.21 1.12-.55.28-.34.46-.81.46-1.33 0 .52.18.98.47 1.33.28.33.68.55 1.12.55z" fill="#fff"/></g></g><g><g><path d="m36.86 40.87c-.22 0-.42.11-.56.28s-.23.41-.23.67c0-.52-.35-.94-.79-.94.22 0 .42-.11.56-.27.14-.17.23-.41.23-.67 0 .26.09.49.23.67.14.16.34.26.56.26z" fill="#fff"/></g></g><g><g><g><path d="m44.25 13.47c.01.47-1.43.87-3.14 1.31-1.72.42-3.17.75-3.38.33-.21-.4 1.05-1.48 2.97-1.95 1.93-.49 3.55-.14 3.55.31z" fill="#fff"/></g></g><g><g><path d="m47.25 13.59c-.03.2-.5.3-1.07.26-.56-.04-1.02-.2-1.02-.4s.48-.37 1.07-.33 1.04.28 1.02.47z" fill="#fff"/></g></g></g><g><g><g><path d="m8.57 44.61c-.46.04-.95-1.47-.98-3.36-.04-1.9.4-3.42.85-3.4.46.02.78 1.53.81 3.37.04 1.83-.22 3.35-.68 3.39z" fill="#fff"/></g></g><g><g><path d="m8.84 47.59c-.2.02-.42-.43-.47-1.01-.06-.58.07-1.06.27-1.08s.4.44.46 1.01c.05.58-.05 1.06-.26 1.08z" fill="#fff"/></g></g></g><g><g><g><path d="m3.69 24.98c.46-.01.86 1.42.94 3.18.09 1.76-.17 3.22-.63 3.26s-.95-1.38-1.04-3.17c-.08-1.8.27-3.27.73-3.27z" fill="#fff"/></g></g><g><g><path d="m3.67 22.12c.2 0 .36.45.36 1s-.16 1-.36 1-.37-.44-.37-1c.01-.55.17-1 .37-1z" fill="#fff"/></g></g></g></g></svg>