<?xml version="1.0" encoding="UTF-8"?>
<svg xmlns="http://www.w3.org/2000/svg" viewBox="0 0 512 512" width="512" height="512">
    <g id="Stickers">
        <path d="M85.485,6V34.041C71.7,37.913,62.072,48.342,62.072,60.915S71.7,83.907,85.485,87.777v20.739c-13.781,3.872-23.413,14.3-23.413,26.873S71.7,158.381,85.485,162.25v20.74c-13.781,3.871-23.413,14.3-23.413,26.873s9.632,22.992,23.413,26.861v20.739c-13.781,3.872-23.413,14.3-23.413,26.873S71.7,307.328,85.485,311.2v20.739c-13.781,3.872-23.413,14.3-23.413,26.873S71.7,381.8,85.485,385.671V406.41c-13.781,3.872-23.413,14.3-23.413,26.874s9.632,22.992,23.413,26.861V506H449.928V6Z"
              fill="none"/>
        <rect x="97.481" y="35.811" width="340.451" height="458.193" fill="#00abfe"/>
        <rect x="97.481" y="17.996" width="340.451" height="458.193" fill="#eae5db"/>
        <rect x="150.924" y="50.502" width="233.566" height="52.453" fill="#ff605b"/>
        <rect x="195.13" y="118.896" width="145.154" height="26.227" fill="#b2aca3"/>
        <path d="M400.819,178.692H141.027a2.5,2.5,0,0,1,0-5H400.819a2.5,2.5,0,0,1,0,5Z" fill="#1d1d3d"/>
        <path d="M400.819,238.691H141.027a2.5,2.5,0,0,1,0-5H400.819a2.5,2.5,0,0,1,0,5Z" fill="#1d1d3d"/>
        <path d="M400.819,298.691H141.027a2.5,2.5,0,0,1,0-5H400.819a2.5,2.5,0,0,1,0,5Z" fill="#1d1d3d"/>
        <path d="M400.819,358.69H141.027a2.5,2.5,0,0,1,0-5H400.819a2.5,2.5,0,0,1,0,5Z" fill="#1d1d3d"/>
        <path d="M400.819,418.69H141.027a2.5,2.5,0,0,1,0-5H400.819a2.5,2.5,0,0,1,0,5Z" fill="#1d1d3d"/>
        <path d="M120.9,60.915a4.859,4.859,0,1,1-9.718,0c0-3.137-5.984-6.775-13.7-6.775s-13.688,3.638-13.688,6.775c0,2.749,5.331,6.761,13.688,6.761V77.4c-13.119,0-23.406-7.233-23.406-16.48S84.355,44.422,97.474,44.422C110.608,44.422,120.9,51.669,120.9,60.915Z"
              fill="#ffb020"/>
        <path d="M120.9,135.389a4.859,4.859,0,1,1-9.718,0c0-3.137-5.984-6.775-13.7-6.775s-13.688,3.638-13.688,6.775c0,2.749,5.331,6.761,13.688,6.761v9.718c-13.119,0-23.406-7.233-23.406-16.479S84.355,118.9,97.474,118.9C110.608,118.9,120.9,126.143,120.9,135.389Z"
              fill="#ffb020"/>
        <path d="M120.9,209.863a4.859,4.859,0,1,1-9.718,0c0-3.138-5.984-6.775-13.7-6.775s-13.688,3.637-13.688,6.775c0,2.749,5.331,6.761,13.688,6.761v9.718c-13.119,0-23.406-7.233-23.406-16.479S84.355,193.37,97.474,193.37C110.608,193.37,120.9,200.617,120.9,209.863Z"
              fill="#ffb020"/>
        <path d="M120.9,284.337a4.859,4.859,0,1,1-9.718,0c0-3.138-5.984-6.775-13.7-6.775s-13.688,3.637-13.688,6.775c0,2.749,5.331,6.761,13.688,6.761v9.718c-13.119,0-23.406-7.233-23.406-16.479s10.287-16.493,23.406-16.493C110.608,267.844,120.9,275.091,120.9,284.337Z"
              fill="#ffb020"/>
        <path d="M120.9,358.81a4.859,4.859,0,0,1-9.718,0c0-3.137-5.984-6.775-13.7-6.775s-13.688,3.638-13.688,6.775c0,2.749,5.331,6.761,13.688,6.761v9.719c-13.119,0-23.406-7.233-23.406-16.48s10.287-16.493,23.406-16.493C110.608,342.317,120.9,349.564,120.9,358.81Z"
              fill="#ffb020"/>
        <path d="M120.9,433.284a4.859,4.859,0,0,1-9.718,0c0-3.137-5.984-6.775-13.7-6.775s-13.688,3.638-13.688,6.775c0,2.749,5.331,6.761,13.688,6.761v9.718c-13.119,0-23.406-7.233-23.406-16.479s10.287-16.493,23.406-16.493C110.608,416.791,120.9,424.038,120.9,433.284Z"
              fill="#ffb020"/>
    </g>
</svg>
