<svg id="Icons" height="512" viewBox="0 0 60 60" width="512" xmlns="http://www.w3.org/2000/svg"><path d="m49 20a18.955 18.955 0 0 1 -6.5 14.3 7.112 7.112 0 0 0 -2.5 5.33v3.37a2.006 2.006 0 0 1 -2 2v1h-16v-1a2.006 2.006 0 0 1 -2-2v-3.37a7.112 7.112 0 0 0 -2.5-5.33 19 19 0 1 1 31.5-14.3z" fill="#f7c331"/><path d="m38 52v2.039a2 2 0 0 1 -.751 1.561l-3.7 2.962a2 2 0 0 1 -1.249.438h-4.6a2 2 0 0 1 -1.25-.438l-3.7-2.962a2 2 0 0 1 -.75-1.561v-2.039z" fill="#c5dfef"/><rect fill="#dcf0ff" height="8" rx="1" width="18" x="21" y="45"/><path d="m41 18a2.006 2.006 0 0 1 -2 2h-7v15a2 2 0 0 1 -4 0v-15h-7a2 2 0 0 1 0-4h18a2.006 2.006 0 0 1 2 2z" fill="#e2a427"/><path d="m21 48h18v2h-18z" fill="#c5dfef"/></svg>