<?xml version="1.0" encoding="UTF-8"?>
<!-- Generator: Adobe Illustrator 26.0.1, SVG Export Plug-In . SVG Version: 6.00 Build 0)  -->
<svg xmlns="http://www.w3.org/2000/svg" xmlns:xlink="http://www.w3.org/1999/xlink" version="1.1" id="Capa_1" x="0px" y="0px" viewBox="0 0 512 512" style="enable-background:new 0 0 512 512;" xml:space="preserve" width="512" height="512">
<g>
	<path style="fill:#14435B;" d="M103.534,367.139c12.968,37.26,1.497,75.115-25.619,84.551   c-27.117,9.437-59.61-13.116-72.577-50.375c-12.967-37.259-1.497-75.113,25.62-84.55   C58.075,307.327,90.568,329.882,103.534,367.139z"/>
	<g>
		<g>
			<path style="fill:#4DB29E;" d="M190.413,279.087l7.529-61.255c0,0,94.041-34.076,67.208,69.023L190.413,279.087z"/>
			<polygon style="fill:#14435B;" points="258.294,290.79 255.471,290.69 257.616,230.703 197.536,220.629 198.004,217.843      260.527,228.327    "/>
			
				<rect x="226.608" y="207.198" transform="matrix(0.0552 -0.9985 0.9985 0.0552 -23.8779 452.7734)" style="fill:#14435B;" width="1.412" height="63.612"/>
			
				<rect x="193.779" y="249.91" transform="matrix(0.9996 -0.0296 0.0296 0.9996 -7.3239 6.8061)" style="fill:#14435B;" width="64.588" height="1.413"/>
			
				<rect x="192.184" y="263.715" transform="matrix(1 -0.0085 0.0085 1 -2.2348 1.9204)" style="fill:#14435B;" width="66.169" height="1.413"/>
		</g>
		<g>
			<path style="fill:#14435B;" d="M458.246,305.079c0,0,13.974-48.371,7.619-56.61c-6.355-8.238-180.439-20.008-180.439-20.008     l4.52,62.277L458.246,305.079z"/>
			<polygon style="fill:#4DB29E;" points="450.612,303.43 449.218,303.198 457.424,253.981 294.116,239.757 294.24,238.351      459.069,252.707    "/>
			
				<rect x="371.829" y="173.96" transform="matrix(0.0777 -0.997 0.997 0.0777 86.2335 609.4762)" style="fill:#4DB29E;" width="1.413" height="168.339"/>
			
				<rect x="371.855" y="189.8" transform="matrix(0.0777 -0.997 0.997 0.0777 72.8186 621.9619)" style="fill:#4DB29E;" width="1.412" height="163.649"/>
			
				<rect x="370.388" y="201.768" transform="matrix(0.0762 -0.9971 0.9971 0.0762 60.4868 631.5912)" style="fill:#4DB29E;" width="1.413" height="162.769"/>
		</g>
		<g>
			<path style="fill:#4DB29E;" d="M310.585,293.426l7.529-61.255c0,0,94.041-34.076,67.208,69.023L310.585,293.426z"/>
			<polygon style="fill:#14435B;" points="378.467,305.129 375.644,305.029 377.785,245.146 323.732,240.46 323.976,237.646      380.703,242.565    "/>
			
				<rect x="350.842" y="225.593" transform="matrix(0.0633 -0.998 0.998 0.0633 76.4634 588.1536)" style="fill:#14435B;" width="1.412" height="55.501"/>
			
				<rect x="321.915" y="263.965" transform="matrix(0.9997 -0.0244 0.0244 0.9997 -6.3591 8.6317)" style="fill:#14435B;" width="56.618" height="1.413"/>
			
				<rect x="352.018" y="249.683" transform="matrix(0.1105 -0.9939 0.9939 0.1105 39.7946 595.7473)" style="fill:#14435B;" width="1.412" height="51.918"/>
		</g>
		<g>
			<g>
				<g>
					<path style="fill:#FF5076;" d="M370.854,273.753l-5.917,1.286h-0.014l-14.562,3.178c0.679,6.441,1.356,13.6,1.766,17.922       l-59.416-6.144l18.473-38.302c2.09,1.369,4.307,2.43,6.482,2.994c8.883,2.048,14.801-3.841,18.544-10.833       C348.413,246.313,362.875,253.713,370.854,273.753z"/>
					<path style="fill:#FFBD99;" d="M372.309,298.229l-20.181-2.089c-0.41-4.323-1.087-11.482-1.766-17.922l14.562-3.178h0.014       L372.309,298.229z"/>
					<polygon style="fill:#AF2345;" points="346.416,279.808 345.438,257.08 346.85,257.018 347.755,278.071 370.709,273.07        371.009,274.451      "/>
				</g>
				<g>
					<path style="fill:#FFBD99;" d="M340.377,186.741v-47.49l-46.931-25.795c-52.764-1.552-39.545,64.246-34.363,84.089       l5.998,29.231l39.545,10.472l3.931,2.498c1.92,1.977,3.913,3.997,5.621,5.72l-2.994,6.228c2.09,1.369,4.307,2.43,6.482,2.994       c8.883,2.048,14.801-3.841,18.544-10.833c-1.525-0.309-3.008-0.537-4.434-0.705c0.593-11.129,3.543-39.064,3.543-39.064       s17.881,7.641,27.767-8.305C370.021,184.609,351.858,185.315,340.377,186.741z"/>
					<path style="fill:#C16A56;" d="M340.377,186.741c-4.901,0.608-8.587,1.342-8.587,1.342s1.046,33.246-23.232,51.662       c-6.016,4.576-13.601,8.233-23.148,10.24c-48.018,10.125-66.844,2.118-57.425-21.891c5.001-12.753,15.055-25.648,31.099-30.549       c4.718-1.44,9.944-2.188,15.705-2.047l1.779,11.525l11.313-3.884c0,0,5.48-17.117,28.246,5.649l10.946-21.892       c0,0-18.361,0.948,7.541-44.488c0,0-35.548,2.061-41.169-28.953c-0.41-2.188-0.664-4.533-0.735-7.061l62.609,34.842       L340.377,186.741z"/>
					<g>
						<path style="fill:#FFBD99;" d="M271.292,179.136l-1.306,24.009c0,0-8.934,1.941-6.108,8.65c0,0,27.522-5.052,28.069-8.65        c0.549-3.6-6.164-5.065-9.003,0l-3.531-24.009H271.292z"/>
						<path style="fill:#14435B;" d="M270.776,179.185c-0.399,7.33-0.798,14.658-1.196,21.986c-0.152,2.798-0.57,1.604-3.485,3.232        c-2.99,1.673-3.695,4.405-2.73,7.529c0.075,0.243,0.408,0.206,0.594,0.171c8.716-1.612,18.26-3.081,26.285-6.984        c1.754-0.855,3.67-3.44,0.936-4.792c-3.49-1.726-6.579-0.19-8.721,2.781c-0.304,0.422,0.74,0.388,0.967,0.073        c-0.284,0.397,12.126-1.027,4.836,2.128c-1.637,0.707-3.369,1.205-5.075,1.717c-3.65,1.096-7.376,1.945-11.096,2.77        c-2.542,0.564-5.097,1.08-7.655,1.57c-1.556,0.296,0.111-4.583,0.053-4.457c0.833-1.813,3.676-3.004,5.578-3.459        c0.153-0.037,0.423-0.17,0.434-0.357c0.435-8.004,0.871-16.008,1.306-24.009C271.833,178.6,270.798,178.78,270.776,179.185        L270.776,179.185z"/>
					</g>
					<g>
						<path style="fill:#14435B;" d="M240.927,169.015c0.706,0,28.011-1.177,28.011-1.177s6.354,28.717-12.239,33.189        C238.101,205.499,240.927,169.015,240.927,169.015z"/>
						<path style="fill:#14435B;" d="M276.723,167.534c0.706,0,28.012-1.177,28.012-1.177s6.355,28.717-12.24,33.189        C273.899,204.018,276.723,167.534,276.723,167.534z"/>
						<path style="fill:#14435B;" d="M266.54,184.014c-0.824-2.07,3.486-3.514,4.963-3.934c3.588-1.019,6.665,2.744,7.421,5.738        c0.506,2.005,4.6,0.917,4.092-1.097c-1.379-5.464-6.768-8.847-12.312-7.627c-3.095,0.681-9.914,3.852-8.256,8.018        C263.217,187.048,267.29,185.901,266.54,184.014L266.54,184.014z"/>
						<path style="fill:#14435B;" d="M264.925,175.091c6.654,0.069,13.237,0.93,19.831,1.745c2.119,0.263,4.129-2.802,1.372-3.143        c-6.95-0.859-13.878-1.714-20.891-1.786C262.829,171.883,262.161,175.062,264.925,175.091L264.925,175.091z"/>
						<polygon style="fill:#14435B;" points="349.053,191.866 298.338,182.524 349.686,177.756       "/>
					</g>
					<path style="fill:#C16A56;" d="M254.525,166.17l-5.486-1.348c0.069-0.287,1.793-7.06,7.674-10.479       c3.63-2.109,7.935-2.478,12.79-1.097l-1.546,5.434c-3.323-0.948-6.153-0.762-8.405,0.549       C255.782,161.418,254.537,166.123,254.525,166.17z"/>
					<path style="fill:#C16A56;" d="M299.299,164.185c-8.508-13.413-20.012-8.563-20.497-8.349l-2.315-5.154       c0.16-0.073,16.394-7.165,27.583,10.475L299.299,164.185z"/>
					<g>
						<polygon style="fill:#FFFFFF;" points="289.947,213.194 292.557,212.157 295.602,209.812 297.106,207.234 297.581,204.177         299.332,205.431 302.846,208.375 305.372,212.523 306.995,215.559 308.049,221.656 307.584,226.463 306.338,229.501         304.17,231.53 302.945,232.172       "/>
						<path style="fill:#14435B;" d="M307.839,217.262c0.378,1.635,0.589,3.437,0.571,5.416c-0.122,13.87-12.089,9.301-12.089,9.301        s11.097,3.38,11.078-9.234c-0.02-12.612-9.587-17.798-9.587-17.798c-0.737,11.03-15.311,9.218-15.311,9.218        s13.703,0.622,14.887-10.484C297.387,203.682,305.578,207.449,307.839,217.262"/>
						<polyline style="fill:#14435B;" points="304.819,211.276 300.363,219.236 305.451,212.456 304.955,211.241       "/>
						<path style="fill:#14435B;" d="M295.901,205.288c0,0,1.541-1.678,4.803-1.445c0,0-3.259-1.361-5.095,0.286L295.901,205.288z"/>
					</g>
					<path style="fill:#14435B;" d="M362.678,193.863c0,0-3.081-5.496-11.194-5.378c-8.113,0.118-16.662,10.276-6.267,13.25       c10.388,2.975,8.086-4.22,4.393-5.671l6.32,0.743l-8.903-1.82c0,0,6.642,5.39,3.249,6.472       c-3.393,1.082-11.972-2.068-7.215-7.649C351.434,183.991,362.678,193.863,362.678,193.863z"/>
				</g>
			</g>
			<g>
				<path style="fill:#14435B;" d="M321.924,296.852c-1.978-0.197-3.97-0.381-5.976-0.522c-0.719-3.502-2.246-7.033-3.346-9.321      c-4.237-8.659-11.652-13.955-21.538-13.601c-6.879,0.168-12.74,3.22-16.002,9.039c-2.062-0.89-4.096-1.794-6.073-2.486      c1.243-10.154,10.55-18.544,20.662-19.617C310.822,258.069,319.832,278.915,321.924,296.852z"/>
			</g>
			<g>
				<path style="fill:#FFBD99;" d="M252.033,283.412c0,0,0.354-16.536,25.599-23.304l7.795,29.246L252.033,283.412z"/>
				<path style="fill:#14435B;" d="M279.756,285.128c-6.864-2.994-6.865-13.369-4.894-19.415c0.143-0.442-1.848-0.19-2.023,0.348      c-2.024,6.216-2.023,16.716,4.992,19.776C278.394,286.084,280.011,285.241,279.756,285.128L279.756,285.128z"/>
				<path style="fill:#14435B;" d="M270.92,286.865c-5.467-3.288-5.613-13.162-3.113-18.299c0.252-0.517-1.742-0.314-2.036,0.292      c-2.573,5.288-2.364,15.403,3.241,18.773C269.589,287.979,271.388,287.146,270.92,286.865L270.92,286.865z"/>
				<path style="fill:#14435B;" d="M261.292,286.575c0.108-0.044-0.625-2.312-0.704-2.794c-0.239-1.476-0.228-3.001-0.201-4.491      c0.042-2.339,0.029-5.615,1.238-7.733c0.234-0.409-1.71-0.249-2.032,0.312c-1.464,2.566-3.204,17.676,2.451,15.347      C263.381,286.667,262.133,286.228,261.292,286.575L261.292,286.575z"/>
			</g>
			<g>
				<path style="fill:#FFBD99;" d="M300.244,286.295c0,0,3.003-21.184,15.889-26.835l17.3,12.211l-10.239,18.331L300.244,286.295z"/>
				<path style="fill:#14435B;" d="M304.355,285.739c0.239-8.788,5.25-16.663,13.487-20.022c1.333-0.544,0.098-1.075-0.776-0.718      c-8.865,3.615-14.497,11.693-14.759,21.288C302.295,286.812,304.335,286.473,304.355,285.739L304.355,285.739z"/>
				<path style="fill:#14435B;" d="M311.698,288.263c-1.541-2.481,0.804-7.001,1.702-9.402c1.599-4.286,4.085-8.353,8.517-10.094      c1.334-0.522,0.11-1.176-0.803-0.818c-4.264,1.675-6.838,4.878-8.806,8.936c-1.469,3.031-4.512,8.95-2.512,12.172      C310.146,289.621,312.137,288.971,311.698,288.263L311.698,288.263z"/>
				<path style="fill:#14435B;" d="M317.419,288.562c0.022-8.046,4.654-14.891,12.919-16.255c0.852-0.14,1.794-1.072,0.36-0.836      c-9.17,1.513-15.3,8.207-15.327,17.64C315.372,289.511,317.417,289.197,317.419,288.562L317.419,288.562z"/>
			</g>
		</g>
		<g>
			<polygon style="fill:#AF2345;" points="384.906,296.252 394.426,125.362 229.537,93.586 169.516,280.011 152.92,278.951      229.537,79.109 403.959,114.77 502.468,306.491 487.991,309.427 402.193,133.483 397.251,301.549    "/>
			<g>
				<path style="fill:#14435B;" d="M258.744,61.722c-1.739,9.99-15.606,15.92-30.976,13.246c-15.37-2.674-26.42-12.94-24.681-22.93      c1.738-9.99,15.606-15.92,30.975-13.246C249.431,41.465,260.482,51.732,258.744,61.722z"/>
				<path style="fill:#FFE14D;" d="M243.661,55.806c0,6.045-7.639,10.945-17.064,10.945c-9.426,0-17.066-4.9-17.066-10.945      c0-6.046,7.64-10.945,17.066-10.945C236.022,44.861,243.661,49.76,243.661,55.806z"/>
			</g>
			<g>
				<path style="fill:#14435B;" d="M432.892,96.22c-1.739,9.99-15.607,15.92-30.977,13.246c-15.37-2.675-26.417-12.941-24.68-22.93      c1.738-9.99,15.606-15.922,30.976-13.247C423.58,75.963,434.63,86.23,432.892,96.22z"/>
				<path style="fill:#FFE14D;" d="M416.905,90.055c0,6.045-7.639,10.945-17.066,10.945c-9.425,0-17.066-4.9-17.066-10.945      c0-6.046,7.641-10.946,17.066-10.946C409.266,79.109,416.905,84.009,416.905,90.055z"/>
			</g>
			<g>
				<path style="fill:#14435B;" d="M307.656,60.469c2.587,8.895-1.993,18.047-10.232,20.444      c-8.239,2.396-17.015-2.871-19.602-11.764c-2.587-8.895,1.994-18.048,10.232-20.444      C296.294,46.309,305.069,51.575,307.656,60.469z"/>
				<path style="fill:#FFE14D;" d="M296.387,65.708c0,5.469-2.844,9.902-6.355,9.902c-3.51,0-6.356-4.433-6.356-9.902      s2.846-9.902,6.356-9.902C293.543,55.806,296.387,60.239,296.387,65.708z"/>
			</g>
			<g>
				<path style="fill:#14435B;" d="M359.855,71.27c2.587,8.894-1.994,18.047-10.233,20.443c-8.237,2.396-17.013-2.871-19.602-11.764      c-2.586-8.894,1.994-18.047,10.234-20.444C348.493,57.109,357.267,62.376,359.855,71.27z"/>
				<path style="fill:#FFE14D;" d="M347.325,75.611c0,5.468-2.846,9.9-6.356,9.9c-3.509,0-6.355-4.433-6.355-9.9      c0-5.469,2.846-9.903,6.355-9.903C344.479,65.708,347.325,70.142,347.325,75.611z"/>
			</g>
		</g>
	</g>
	<g>
		<path style="fill:#14435B;" d="M322.474,397.019c0,22.184,5.222,41.522-3.83,55.649c-8.413,13.13-19.766,21.182-32.259,21.182    c-25.935,0-46.958-34.697-46.958-77.5s21.024-77.5,46.958-77.5c4.192,0,8.255,0.906,12.122,2.607    C318.566,330.277,322.474,361.134,322.474,397.019z"/>
		<g>
			<path style="fill:#4DB29E;" d="M333.343,396.342c0,22.116-5.608,42.074-14.618,56.197c-1.807-2.359-3.135-4.224-3.742-5.17     c-25.337-37.397-27.738-83.538-16.468-125.907C318.571,330.288,333.343,360.47,333.343,396.342z"/>
		</g>
		<path style="fill:#14435B;" d="M321.924,394.937c0,11.408-3.373,20.656-7.531,20.656c-4.159,0-7.53-9.248-7.53-20.656    c0-11.406,3.371-20.654,7.53-20.654C318.551,374.282,321.924,383.531,321.924,394.937z"/>
		
			<rect x="249.427" y="442.069" transform="matrix(0.96 -0.2801 0.2801 0.96 -112.9528 96.674)" style="fill:#4DB29E;" width="64.585" height="2.825"/>
		
			<rect x="238.986" y="415.239" transform="matrix(0.9862 -0.1656 0.1656 0.9862 -65.3828 50.6436)" style="fill:#4DB29E;" width="63.964" height="4.237"/>
		
			<rect x="237.731" y="390.399" transform="matrix(0.9985 -0.055 0.055 0.9985 -21.1534 15.3218)" style="fill:#4DB29E;" width="59.879" height="2.825"/>
		
			<rect x="270.26" y="328.554" transform="matrix(0.0726 -0.9974 0.9974 0.0726 -99.3368 598.8905)" style="fill:#4DB29E;" width="4.237" height="48.618"/>
		
			<rect x="275.674" y="312.698" transform="matrix(0.0698 -0.9976 0.9976 0.0698 -74.6698 586.3772)" style="fill:#4DB29E;" width="2.824" height="41.058"/>
	</g>
	<g>
		<path style="fill:#14435B;" d="M467.577,376.36c0,19.439,3.16,35.657-4.705,46.878c-5.784,8.253-12.601,13.185-18.84,13.185    c-14.722,0-26.656-27.347-26.656-61.082c0-33.734,20.233-63.201,34.954-63.201c1.84,0,3.601,0.459,5.274,1.327    C469.312,319.545,467.577,346.842,467.577,376.36z"/>
		<g>
			<path style="fill:#4DB29E;" d="M476.693,375.215c0,19.603-6.059,37.087-14.011,48.3c-3.643-7.782-6.101-16.679-7.174-20.28     c-8.544-30.394-7.075-60.97,2.881-89.315C469.645,320.741,476.693,346.376,476.693,375.215z"/>
		</g>
		<path style="fill:#14435B;" d="M468.363,369.48c0,7.663-2.265,13.876-5.058,13.876c-2.794,0-5.059-6.212-5.059-13.876    c0-7.663,2.265-13.875,5.059-13.875C466.098,355.605,468.363,361.817,468.363,369.48z"/>
		
			<rect x="420.897" y="409.943" transform="matrix(0.9745 -0.2243 0.2243 0.9745 -81.0555 109.1222)" style="fill:#4DB29E;" width="37.83" height="2.824"/>
		
			<rect x="417.303" y="389.693" transform="matrix(0.9962 -0.0874 0.0874 0.9962 -32.5816 39.6325)" style="fill:#4DB29E;" width="37.806" height="4.236"/>
		
			<rect x="433.617" y="356.206" transform="matrix(0.0236 -0.9997 0.9997 0.0236 51.0086 799.9569)" style="fill:#4DB29E;" width="2.825" height="35.319"/>
		
			<rect x="436.143" y="329.847" transform="matrix(0.1502 -0.9887 0.9887 0.1502 31.9195 726.0028)" style="fill:#4DB29E;" width="4.237" height="29.176"/>
		
			<rect x="441.385" y="315.725" transform="matrix(0.1616 -0.9868 0.9868 0.1616 45.9972 713.2626)" style="fill:#4DB29E;" width="2.824" height="27.668"/>
	</g>
	<g>
		<g>
			<g>
				<path style="fill:#FFE14D;" d="M18.158,255.534l29.066,120.344l18.957,23.296l164.572,14.612      c3.036-36.34,13.516-96.928,49.628-103.65c39.587-7.358,53.371,43.907,58.159,80.487l75.954-14.842      c0.649-26.284,6.242-61.324,30.775-66.351c27.314-5.608,33.937,26.721,34.869,53.54l12.089,10.48l3.998-13.629l11.538-58.159      L18.158,255.534z"/>
				<path style="fill:#AF2345;" d="M340.854,384.647l0.022-0.851c1.155-42.462-26.281-64.174-26.56-64.388l-0.343-0.267      l6.849-35.162l1.386,0.27l-6.687,34.321c3.193,2.672,27.524,24.392,26.785,64.415l63.356-10.147l7.771-80.065l1.405,0.136      l-7.876,81.151L340.854,384.647z"/>
				<polygon style="fill:#AF2345;" points="384.422,312.14 408.196,308.257 408.196,303.313 384.422,303.313     "/>
				<polygon style="fill:#AF2345;" points="310.393,309.316 320.162,312.14 310.393,314.965     "/>
				<polygon style="fill:#AF2345;" points="315.25,286.575 325.576,291.309 314.246,292.134     "/>
				<g>
					
						<rect x="341.604" y="346.743" transform="matrix(0.9932 -0.1166 0.1166 0.9932 -38.3008 45.8713)" style="fill:#AF2345;" width="62.568" height="7.061"/>
					
						<rect x="345.973" y="358.629" transform="matrix(0.9938 -0.1114 0.1114 0.9938 -37.8757 43.859)" style="fill:#AF2345;" width="54.862" height="4.237"/>
					
						<rect x="350.074" y="367.22" transform="matrix(0.9877 -0.1565 0.1565 0.9877 -53.1035 62.987)" style="fill:#AF2345;" width="46.523" height="2.825"/>
					
						<rect x="353.82" y="373.223" transform="matrix(0.9879 -0.1548 0.1548 0.9879 -53.3927 62.3761)" style="fill:#AF2345;" width="39.783" height="1.413"/>
					<path style="fill:#AF2345;" d="M352.336,352.373c-5.336-11.019,6.797-23.773,16.58-26.566       c10.86-3.099,27.696,8.531,23.798,20.945c-0.555,1.768,3.615,1.261,4.129-0.374c2.137-6.803-2.953-14.286-7.81-18.61       c-5.008-4.459-11.749-5.8-18.228-5.005c-12.334,1.511-29.108,17.189-22.559,30.706       C349.053,355.139,353.081,353.908,352.336,352.373L352.336,352.373z"/>
					<path style="fill:#AF2345;" d="M346.863,351.071c1.784-4.312-1.113-9.608-3.674-13.069c-1.268,0.531-2.535,1.061-3.803,1.593       c6.638,5.577,14.527-5.751,11.01-11.937c-1.316,0.448-2.633,0.896-3.948,1.343c6.331,8.29,15.807-1.214,16.48-8.825       c-1.362,0.27-2.727,0.54-4.091,0.81c3.745,8.872,14.686,1.819,16.979-4.164c-1.364,0.27-2.729,0.54-4.091,0.809       c3.434,10.414,15.031,7.099,21.512,1.541c-1.226-0.02-2.454-0.041-3.682-0.062c-3.784,8.531,2.244,15.049,10.941,13.742       c-0.328-0.569-0.654-1.139-0.981-1.708c-5.163,3.221-6.437,13.465-0.189,16.226c1.199,0.529,4.948-1.216,3.262-1.961       c-4.285-1.894-4.527-10.595-0.543-13.081c1.503-0.937,0.399-1.915-0.981-1.708c-8.442,1.27-9.869-6.509-7.418-12.033       c0.661-1.489-3.228-0.453-3.682-0.062c-5.066,4.344-11.778,5.195-14.148-1.99c-0.492-1.495-3.688-0.24-4.091,0.809       c-0.969,4.215-3.901,5.064-8.796,2.546c-0.532-1.262-3.977-0.472-4.09,0.809c-0.349,3.927-4.164,12.503-8.588,6.711       c-0.75-0.982-4.576,0.239-3.949,1.345c0.935,1.642,0.144,11.984-3.113,9.247c-0.95-0.798-4.838,0.194-3.803,1.593       c2.267,3.064,4.982,8.144,3.388,11.999C342.241,352.877,346.314,352.398,346.863,351.071L346.863,351.071z"/>
				</g>
				<path style="fill:#AF2345;" d="M193.047,295.624c-43.687,0-78.625-5.239-103.884-11.023      c-46.756-10.706-70.744-25.135-71.743-25.743l2.206-3.619c0.24,0.147,24.556,14.747,70.719,25.286      c42.614,9.728,113.095,17.888,206.856,1.502l0.729,4.175C258.864,293.028,223.788,295.624,193.047,295.624z"/>
			</g>
			<g>
				<polyline style="fill:#AF2345;" points="65.358,393.938 61.121,303.313 202.351,318.849 193.525,412.062     "/>
				
					<rect x="25.751" y="341.093" transform="matrix(0.0471 -0.9989 0.9989 0.0471 -266.0833 407.5013)" style="fill:#FFE14D;" width="109.577" height="4.237"/>
				
					<rect x="127.793" y="359.488" transform="matrix(0.0719 -0.9974 0.9974 0.0719 -193.5157 515.2405)" style="fill:#FFE14D;" width="104.629" height="4.237"/>
				
					<rect x="74.42" y="350.744" transform="matrix(0.0511 -0.9987 0.9987 0.0511 -232.6907 460.8299)" style="fill:#FFE14D;" width="103.469" height="4.236"/>
				
					<rect x="50.381" y="347.243" transform="matrix(0.002 -1 1 0.002 -249.3633 448.8685)" style="fill:#FFE14D;" width="99.627" height="4.237"/>
				
					<rect x="101.436" y="351.803" transform="matrix(0.1064 -0.9943 0.9943 0.1064 -215.7831 467.7495)" style="fill:#FFE14D;" width="101.794" height="4.237"/>
			</g>
			<g>
				<path style="fill:#FFFFFF;" d="M71.712,315.142c0,16.478-7.35,29.836-16.418,29.836s-16.419-13.358-16.419-29.836      c0-16.479,7.351-29.835,16.419-29.835S71.712,298.663,71.712,315.142z"/>
				<path style="fill:#AF2345;" d="M69.665,315.392c-0.173,7.742-3.438,32.642-16.69,27.716      c-9.214-3.425-11.441-17.777-11.998-26.068c-0.529-7.901,2.921-34.961,16.637-29.864c9.954,3.699,11.856,19.679,12.052,28.515      c0.03,1.328,4.128,0.514,4.092-1.097c-0.221-9.951-3.912-31.491-18.19-30.441c-14.591,1.071-18.479,19.533-18.74,31.24      c-0.222,10.009,4.057,31.778,18.192,30.74c14.591-1.072,18.479-19.533,18.738-31.241      C73.798,313.159,69.695,314.013,69.665,315.392z"/>
			</g>
			<g>
				<path style="fill:#FFFFFF;" d="M221.345,333.148c0,16.479-7.35,29.835-16.418,29.835c-9.068,0-16.419-13.357-16.419-29.835      c0-16.477,7.351-29.836,16.419-29.836C213.995,303.313,221.345,316.671,221.345,333.148z"/>
				<path style="fill:#AF2345;" d="M219.299,333.697c-0.165,7.415-4.021,34.206-17.64,27.046      c-9.094-4.781-10.904-19.178-11.104-28.142c-0.167-7.543,4.288-34.065,17.639-27.046      C217.288,310.335,219.1,324.733,219.299,333.697c0.018,0.832,4.12,0.16,4.092-1.096c-0.232-10.467-4.331-32.552-19.453-30.028      c-13.798,2.304-17.217,19.529-17.475,31.124c-0.234,10.516,4.624,32.503,19.452,30.028      c13.799-2.304,17.218-19.529,17.476-31.124C223.409,331.82,219.328,332.414,219.299,333.697z"/>
			</g>
		</g>
		<path style="fill:#AF2345;" d="M512,356.741l-3.29,28.727l-29.291,4.688c0.508-6.143,1.087-16.199,0.72-27.187l16.086-3.149    L512,356.741z"/>
		<path style="fill:#AF2345;" d="M230.754,413.785c-0.467,5.733-0.764,10.86-0.932,15.083L29.936,412.782L16.279,369.48    l30.945,6.398L230.754,413.785z"/>
	</g>
</g>















</svg>
