<?xml version="1.0" encoding="UTF-8"?>
<!-- Generator: Adobe Illustrator 25.2.3, SVG Export Plug-In . SVG Version: 6.00 Build 0)  -->
<svg xmlns="http://www.w3.org/2000/svg" xmlns:xlink="http://www.w3.org/1999/xlink" version="1.1" id="Capa_1" x="0px" y="0px" viewBox="0 0 512 512" style="enable-background:new 0 0 512 512;" xml:space="preserve" width="512" height="512">
<g>
	<g>
		<g>
			<g>
				<path style="fill:#6280FF;" d="M378.44,410.817c-19.84,22.315-45.441,40.062-75.552,50.762      c-95.553,33.957-200.541-15.998-234.497-111.551c-22.923-64.566-7.567-133.43,34.29-181.766      c20.081-23.252,46.29-41.725,77.282-52.736c95.558-33.935,200.545,16.019,234.502,111.572      C437.7,292.547,421.591,362.394,378.44,410.817z"/>
				<g>
					<path style="fill:#91D728;" d="M290.841,311.577c2.282-4.775-0.789-7.998-4.561-7.251c-6.018,1.191-11.935,8.437-18.476,5.172       c-6.746-3.367-5.884-12.932-9.871-18.254c-0.044-0.059-0.036-0.246-0.01-0.255c2.713-0.937,9.774,11.179,15.808,13.602       c3.725,1.495,7.679,0.104,9.79-1.855c3.508-3.255,10.132-5.822,12.468-9.456c3.824-5.947-2.879-8.446-7.886-8.01       c-3.209,0.28-5.271,1.786-8.377-0.051c-2.865-1.694-4.711-5.157-2.134-7.983c5.651-6.196,28.457,4.18,34.213,7.917       c5.377,3.492,7.524,10.356,13.655,13.034c3.011,1.315,7.277,0.09,7.913-3.882c0.867-5.409-4.621-7.427,1.852-12.978       c1.86-1.596,2.915-3.615,3.193-6.04c0.207-1.794,0.369-1.725,1.993-1.508c2.191,0.293,3.272-0.216,5.506,0.316       c1.947,0.464,2.339,2.063,2.905,3.029c4.85,8.278,7.507,1.945,15.338,5.642c4.105,1.936,7.254,1.805,10.236-1.664       c4.509-5.245-4.338-11.95-5.563-14.075c-0.629-1.093-0.249-2.735,1.018-2.722c3.738,0.037,6.844,1.022,10.49-2.178       c4.756-4.177,5.265-9.54,2.098-14.709c-3.411-5.57-6.926-7.34-6.291-13.919c0.129-1.33,1.188-3.857,2.24-3.21       c2.676,1.643,5.92,7.412,10.691,7.527c2.906,0.069,4.177-3.406,3.447-5.851c-1.355-4.54-2.255-5.445-1.353-7.864       c1.394-3.743,2.819-3.425,5.778-6.356c5.845-5.787,7.912-14.546,1.905-20.112c-2.217-2.054-3.107-2.096-5.113-3.331       c-1.36-0.836-1.729-4.134,0.712-7.256c-11.791-17.803-26.422-33.118-43.058-45.535c0.022,0.536,0.06,1.074,0.021,1.606       c-0.062,0.876-1.187,1.475-1.993,1.075c-2.482-1.225-2.983-4.567-8.149-3.026c-6.913,2.055-8.114,7.09-10.659,7.705       c-2.283,0.551-2.111-1.54-1.138-3.676c2.282-5.024,8.75-9.178,6.11-14.275c-1.471-0.878-2.974-1.697-4.468-2.533       c-4.361-0.251-5.294,2.688-6.299,3.599c-1.119,1.003-0.137-6.078-5.478-5.842c-3.319,0.146-5.994,3.024-5.514,7.478       c0.445,4.114,0.646,3.859-5.018,5.661c-3.723,1.204-6.634,2.249-10.254,6.349c-3.211,3.638-3.125,6.44-2.355,10.301       c0.201,1.017-0.938,1.084-3.213,2.617c-4.421,2.987-1.46,5.439,0.589,8.123c0.582,0.761-0.692,1.419-1.668,1.087       c-1.663-0.565-4.494-2.78-7.039-0.595c-2.017,1.73-1.015,4.073-0.857,5.427c0.911,7.803,3.631,6.917,3.936,14.514       c0.037,0.91-0.352,2.922-1.077,3.856c-1.248,1.611-3.711,0.264-3.753-4.094c-0.059-5.871,0.567-16.16-4.254-20.222       c-2.114-1.776-4.563-0.183-5.593,2.478c-1.253,3.234-0.898,5.477-0.497,9.196c0.571,5.33,2.757,5.68,3.986,7.852       c0.163,0.289-0.048,1.04-0.623,1.014c-2.162-0.098-2.313-1.214-8.56-3.553c-4.175-1.564-6.247,1.348-3.699,4.392       c1.348,1.613,2.578,2.289,1.819,3.299c-1.264,1.683-3.599,3.93-5.466,2.963c-2.302-1.191-2.537-1.157-4.769,1.516       c-6.585,7.889-14.488,10.482-16.859,15.457c-1.391,2.914-1.697,4.311-3.76,4.887c-5.529,1.543-9.907-3.25-3.795-4.901       c1.896-0.512,3.556-1.558,5.357-2.283c4.398-1.77,3.105-7.111-1.149-7.428c-2.662-0.199-3.571,0.223-6.547,1.143       c-2.016,0.622-3.682-0.217-7.183-1.794c-9.354-4.22-18.329,3.18-22.304,12.068c-3.862,8.643,0.803,16.035-2.587,18.862       c-2.561,2.136-4.203,3.165-4.718,6.369c-0.521,3.232,1.221,6.189,5.504,6.789c2.271,0.318,2.99-0.964,5.166-3.228       c0.602-0.624,1.044,0.548,2.136,2.296c4.547,7.279,12.39-0.502,7.76-8.526c-0.533-0.924-1.344-1.85-0.777-2.944       c1.606-3.109,2.402-3.361,2.447-5.502c0.094-4.432-2.24-6.02-0.183-8.113c4.065-4.136,5.445-2.305,5.151-1.661       c-1.927,4.222-4.94,11.552,0.89,14.317c2.872,1.362,6.862-0.555,9.958-0.735c0.252-0.015,0.517,0.428,0.131,0.626       c-8.481,4.348-8.414,7.783-7.619,14.145c0.55,4.423-7.688,3.376-14.175,8.311c-1.992,1.515-3.699,1.971-6.107,2.64       c-3.418,0.954-5.815,4.564-6.656,7.903c-1.289,5.114,2.663,5.435-1.787,7.39c-2.856,1.255-4.65,2.385-4.989,5.48       c-0.232,2.129,0.867,2.917,2.898,5.102c1.045,1.123,0.12,1.683-1.877,2.733c-8.605,4.527-4.179,14.089,3.326,11.958       c2.559-0.726,5.448-2.697,6.667-5.659c1.464-3.553,0.614-4.961,2.522-8.019c1.141-1.828,2.802-3.177,4.759-2.299       c8.175,3.666,5.962-4.249,7.526-4.947c0.423-0.19,1.479,3.892,4.821,6.046c2.704,1.743,4.739-1.266,3.522-3.148       c-0.836-1.292-0.847-2.768-1.042-4.199c-0.252-1.843,1.187-3.276,1.793-2.337c1.729,2.675,2.86,7.7,6.837,9.894       c1.306,0.719,3.784,0.017,4.052-2.037c0.134-1.025,0.063-2.875,0.336-4.638c0.131-0.844,1.176-1.215,1.819-0.69       c1.376,1.121,1.599,2.565,2.965,4.282c5.21,6.564,16.284-5.564,15.383,3.081c-0.139,1.344-0.827,2.35-1.986,3.057       c-6.789,4.143-8.875,1.798-14.338,2.548c-3.852,0.527-6.671,6.683-10.082,7.044c-5.223,0.552-7.103-2.562-9.165-4.58       c-6.607-6.468-22.313,3.742-23.145,11.486c-0.417,3.888-0.446,5.987-2.519,7.484c-2.149,1.553-4.929,2.465-6.192,6.615       c-3.34,10.952,2.86,33.047,24.854,26.273c4.661-1.435,11.224-5.101,13.238-6.031c2.101-0.969,2.33,0.046,3.005,2.526       c2.104,7.71,9.596,6.742,10.476,14.371c0.604,5.22-0.594,9.589,4.703,14.441c11.751,10.771,11.539,12.613,17.171,15.18       c7.558,3.446,19.03-2.947,17.725-15.301c-0.43-4.071,9.002-4.504,3.39-11.896c-1.191-1.571-3.224-2.93-1.591-4.972       c2.366-2.961,8-2.325,6.638-8.192c-1.593-6.863-7.231-6.547-6.551-12.494C281.543,322.716,287.442,318.692,290.841,311.577z"/>
					<path style="fill:#91D728;" d="M125.43,366.436c7.507,3.256,10.961-4.798,9.572,2.688c-0.674,3.643,0.098,7.156,1.029,10.634       c0.271,1.015,0.897,1.932,1.333,2.906c2.416,5.388,7.153,9.384,12.256,11.485c1.707,0.703,2.197,2.152,2.494,3.983       c3.745,23.145,15.504,16.796,14.863,36.473c-0.159,4.921,0.234,12.253,3.125,16.341c1.936,2.737,5.877,2.698,7.785,1.057       c2.643-2.275,2.247-3.634,3.921-7.661c4.364-10.498-1.355-18.23,6.77-29.011c1.76-2.337,3.186-4.867,4.159-7.653       c3.086-8.836,5.183-11.062,4.559-18.755c-0.843-10.396-3.676-12.973-0.507-18.191c1.708-2.812,3.592-5.297,4.488-7.485       c1.745-4.26-3.87-9.354-8.507-10.312c-11.051-2.284-10.546-0.344-18.271-1.202c-16.904-1.875-8.554,1.27-24.955-3.459       c-2.698-0.778-5.376-0.92-7.921,0.524c-7.795,4.423-7.913,8.711-12.721,5.188c-3.42-2.506-6.036-2.057-8.556-2.204       c-0.723-0.042-0.94-0.701-1.403-5.085c-0.377-3.572-4.62-5.78-7.101-4.045c-0.671,0.469-2.422,1.603-3.53,2.025       c-1.494,0.569-3.367-0.709-3.545-2.111c-1.289-10.181,9.618-13.035,18.704-17.96c12.363-6.701,2.741-20.934,10.126-26.495       c1.533-1.155,16.411-8.405,9.881-15.194c-4.334-4.501-5.092,0.175-8.468-8.774c-5.299-14.064-29.816-11.497-28.763,0.784       c0.283,3.288,0.539,3.542,2.04,8.174c-0.006,0.002-0.013,0.004-0.019,0.006c1.339,4.137,2.407,6.817,1.657,7.178       c-1.278,0.614-2.76-6.849-10.204-7.739c-1.55-0.186-3.111-0.23-4.634,0.197c-4.659,1.306-7.468-0.754-7.954-3.528       c-2.445-13.993,5.962-14.611,4.624-22.527c-1.016-1.076-2.019-2.609-2.35-4.088c-7.099-6.285-21.171,2.314-28.182,8.294       c-0.482,0.411-0.99,0.793-1.5,1.171c-4.146,28.264-1.745,57.894,8.264,86.71c2.928,2.897,1.287,2.992,8.534,11.197       c3.931,4.454,9.756,2.381,7.58-4.322c-0.496-1.532,1.929,1.13,4.001,2.699c9.775,7.395,21.4-4.294,30.741,3.294       C122.757,364.825,123.82,365.738,125.43,366.436z"/>
					<path style="fill:#91D728;" d="M97.211,174.94c1.899,5.931,0.097,5.168-3.642,11.245c-2.505,4.074-1.611,9.936,2.358,12.47       c8.11,5.178,11.42-2.068,18.54,3.178c1.774,1.309,3.026,2.983,3.633,5.134c0.448,1.59,0.939,3.158,1.11,4.819       c0.817,7.975,5.268,7.908,9.806,11.103c5.742,4.038-2.098,11.636,6.732,22.525c8.259,10.19,16.989,7.573,17.36,1.319       c0.35-5.862-0.157-3.79,0.314-11.059c0.686-10.487,16.717-10.644,18.102-30.245c0.608-8.598-1.225-10.886-3.284-19.991       c-2.382-10.519,6.777-11.256,3.184-28.509c-1.193-5.707-4.599-11.023-10.302-10.027c-1.084,0.19-1.604,0.63-3.982,0.766       c-3.735,0.212-3.089-8.705-6.192-14.359c-0.64-1.165-1.412-2.219-2.249-3.218C128.497,141.88,111.167,157.191,97.211,174.94z"/>
					<path style="fill:#91D728;" d="M362.424,351.366c-1.601,4.25-0.272,5.739-1.562,5.565c-3.091-0.417-4.303-4.987-7.918-6.587       c-3.398-1.504-7.233-0.431-9.073,4.583c-0.644,1.756-0.985,3.974-3.755,4.807c-3.572,1.075-9.453,7.788-11.565,10.857       c-6.967,10.121,1.298,24.822,13.669,20.149c3.766-1.423,5.582-3.553,9.849-6.678c2.232-1.636,6.992-2.413,8.155,0.015       c4.395,9.165,18.028,11.607,27.297,3.255C405.073,371.514,369.492,332.585,362.424,351.366z"/>
					<path style="fill:#91D728;" d="M108.796,245.217c-2.862-7.965-9.608-15.706-18.541-16.506c-3.415-0.305-6.151,0.395-7.89-2.524       c-0.397-0.667-0.796-1.337-1.261-1.956c-4.268-5.697-10.563-0.131-12.038,5.925c-1.108,4.557,3.233,8.783,7.922,9.21       c3.595,0.326,8.903-1.682,10.613,2.917c2.207,5.935,0.401,9.354,3.315,13.392C96.858,263.908,113.168,257.391,108.796,245.217z       "/>
					<path style="fill:#91D728;" d="M177.746,171.96c1.383,3.187,5.994,9.045,9.497,9.153c3.48,0.106,4.881-3.611,4.804-7.02       c-0.049-2.087-0.368-3.15,0.753-3.731c1.486-0.77,2.812-1.531,3.018-3.255c0.507-4.239-2.839-3.69-0.026-6.314       c4.111-3.818,4.041-9.197-1.337-9.731c-3.57-0.354-4.388,2.74-4.864,3.677c-0.355,0.696-1.152,0.032-2.665-0.38       c-1.053-0.287-2.112-0.198-3.046,0.048C177.401,157.038,174.347,167.067,177.746,171.96z"/>
					<path style="fill:#91D728;" d="M414.152,278.278c-3.109-0.1-6.048,0.524-7.619,3.22c-1.415,2.433-1.57,5.727,1.465,7.278       c2.573,1.318,4.003,0.446,6.058,2.593c2.762,2.882,6.759,2.905,9.289,1.223c0.586-0.39,1.148-0.816,1.709-1.243       c0.058-3.782-0.007-7.576-0.187-11.38C420.576,280.436,418.49,278.417,414.152,278.278z"/>
					<path style="fill:#91D728;" d="M266.04,151.476c-2.659,2.809-1.802,4.609-4.057,5.024c-0.76,0.14-1.586,0.133-2.271,0.44       c-3.981,1.79-6.927,4.62-8.29,8.848c-2.564,7.961-2.595,19.358,1.653,20.811c2.821,0.964,4.809-2.288,5.26-5.22       c1.565-10.189-0.276-9.583,6.135-16.632c3.888-4.268,7.939-7.97,4.813-12.934C268.628,150.773,267.135,150.319,266.04,151.476z       "/>
					<path style="fill:#91D728;" d="M276.615,136.028c0.935-0.129,2.222-0.672,2.298,0.274c0.341,4.24,6.571,7.184,10.677,3.561       c2.962-2.613,3.405-7.518,2.556-9.824c-1.015-3.766-3.747-3.957-5.946-4.321c-1.376-0.227-1.392-0.928-2.966-4.05       c-1.721-3.412-5.827-5.599-8.465-2.901c-3.032,3.1,1.052,6.119-1.746,8.97C268.836,131.997,272.273,136.632,276.615,136.028z"/>
					<path style="fill:#91D728;" d="M355.286,304.947c-1.287-0.283-1.552-1.143-2.734-2.493c-3.258-3.709-10.024-3.916-13.458-1.77       c-2.574,1.607-0.671,5.449,4.41,6.276c2.692,0.439,3.583,3.961,4.922,6.12c3.901,6.286,12.612,4.901,13.458-1.414       C362.583,306.484,358.45,305.638,355.286,304.947z"/>
					<path style="fill:#91D728;" d="M298.84,340.563c5.098,10.681,13.073-10.992,5.739-19.113c-2.166-2.4-4.642-0.457-4.558,2.154       c0.058,1.726-1.085,2.095-2.453,3.341c-1.534,1.397-1.638,3.912-0.424,5.261c0.918,1.021,1.596,1.804,1.416,2.727       C298.281,336.357,297.494,337.737,298.84,340.563z"/>
					<path style="fill:#91D728;" d="M371.035,298.11c-0.066,0.48-0.06,0.969-0.1,1.453c-0.206,2.548-2.348,1.673-4.706,4.375       c-1.992,2.28-1.608,5.85,1.858,7.052c5.648,1.959,13.176-3.011,11.275-12.643C378.298,292.966,371.68,293.459,371.035,298.11z"/>
				</g>
				<g>
					<path style="fill:#FC09B2;" d="M113.349,183.723c2.596,11.297,28.804,31.638,28.804,31.638s14.702-29.741,12.106-41.038       c-2.596-11.297-13.858-18.351-25.155-15.755C117.808,161.163,110.754,172.426,113.349,183.723z"/>
					<path style="fill:#FC09B2;" d="M343.23,348.375c2.596,11.297,28.804,31.638,28.804,31.638s14.702-29.741,12.106-41.038       s-13.858-18.351-25.155-15.755C347.688,325.816,340.634,337.078,343.23,348.375z"/>
					<path style="fill:#FC09B2;" d="M145.464,360.739c2.596,11.297,28.804,31.638,28.804,31.638s14.702-29.741,12.106-41.038       c-2.596-11.297-13.858-18.351-25.155-15.755C149.922,338.18,142.868,349.442,145.464,360.739z"/>
					<path style="fill:#FC09B2;" d="M143.84,258.699c7.189-12.821,27.156-17.835,40.585-13.648       c13.294,4.144,15.982,19.411-0.774,28.653C160.697,286.362,134.515,275.331,143.84,258.699z"/>
					<path style="fill:#FC09B2;" d="M314.089,220.351c-11.991-8.501-32.18-4.469-42.517,5.07       c-10.233,9.444-6.116,24.389,12.984,25.554C310.719,252.57,329.643,231.378,314.089,220.351z"/>
				</g>
				<path style="opacity:0.5;fill:#FFFFFF;" d="M215.554,133.741c56.855-15.577,129.296,14.35,148.275,73.366      c0.703,2.185-0.499,4.526-2.684,5.229c-11.497,3.699-21.936-53.852-144.759-70.73l-0.319-0.044      C211.778,140.972,211.368,134.894,215.554,133.741z"/>
				<g>
					<path style="fill:#FFFFFF;" d="M244.51,208.295c5.966,0.073,9.443,3.269,10.647,8.04c6.456,25.59-29.917,42.897-49.314,28.826       c-6.942-5.036-16.275-18.828-6.574-25.85C204.385,215.608,225.066,208.057,244.51,208.295z"/>
					<path style="fill:#FFFFFF;" d="M123.336,181.238c1.323,5.759,7.064,9.355,12.823,8.032c5.759-1.323,9.354-7.064,8.031-12.823       c-1.323-5.759-7.064-9.355-12.823-8.032C125.609,169.738,122.013,175.479,123.336,181.238z"/>
					<path style="fill:#FFFFFF;" d="M353.216,345.891c1.323,5.759,7.064,9.355,12.823,8.031c5.759-1.323,9.355-7.064,8.031-12.823       c-1.323-5.759-7.064-9.355-12.823-8.031C355.489,334.39,351.893,340.132,353.216,345.891z"/>
					
						<ellipse transform="matrix(0.9295 -0.3689 0.3689 0.9295 -119.5879 86.3029)" style="fill:#FFFFFF;" cx="165.877" cy="355.859" rx="10.699" ry="10.699"/>
				</g>
				<path style="opacity:0.25;fill:#000E3F;" d="M378.44,410.817c-19.84,22.315-45.441,40.062-75.552,50.762      c-95.553,33.957-200.541-15.998-234.497-111.551c-22.923-64.566-7.567-133.43,34.29-181.766      c-10.851,38.997-10.199,81.607,4.368,122.646C147.475,404.731,274.232,454.809,378.44,410.817z"/>
			</g>
			<g>
				<path style="fill:#000E3F;" d="M158.907,211.325c6.466-3.107,15.206-1.518,20.002,5.498c8.441,12.347-5.697,26.567-19.07,20.706      C149.081,232.815,147.851,216.638,158.907,211.325z"/>
				<path style="fill:#000E3F;" d="M280.12,184.022c-7.173-0.034-14.388,5.148-15.713,13.543      c-2.332,14.774,16.537,21.558,26.105,10.53C298.21,199.223,292.386,184.081,280.12,184.022z"/>
				<path style="fill:#000E3F;" d="M241.408,104.89c75.544-0.006,146.316,46.963,173.057,122.209      c23.235,65.447,7.127,135.295-36.024,183.718c-19.84,22.315-45.442,40.062-75.552,50.763      c-20.319,7.22-41.069,10.647-61.468,10.647c-75.528,0-146.294-46.964-173.03-122.198      c-22.923-64.566-7.567-133.429,34.29-181.766c20.081-23.252,46.29-41.725,77.282-52.736      C200.271,108.315,221.02,104.892,241.408,104.89 M241.423,101.136v3.754l-0.005-3.754c-21.341,0.002-42.437,3.653-62.711,10.853      c-30.567,10.861-57.839,29.471-78.867,53.82C55.728,216.749,42.321,287.82,64.853,351.285      c26.505,74.585,97.462,124.697,176.568,124.697c21.335,0,42.439-3.655,62.725-10.865c29.687-10.55,56.348-28.464,77.101-51.805      c45.568-51.137,59.654-122.972,36.757-187.469C391.495,151.252,320.533,101.136,241.423,101.136L241.423,101.136z"/>
			</g>
		</g>
		<g>
			<g>
				<path style="fill:#FFFFFF;" d="M499.949,299.858c1.304,4.281-3.562,7.913-12.797,6.325c-8.696-1.506-21.971-4.54-35.904-8.083      l-8.17,8.77l1.818,0.632c2.626,0.903,4.089,3.676,3.352,6.334c-0.716,2.652-3.403,4.299-6.107,3.754l-7.506-1.548      c-0.022,0.005-0.048-0.012-0.07-0.007l-8.934,9.599l4.147,1.421c2.605,0.908,4.068,3.681,3.352,6.333      c-0.733,2.679-3.397,4.321-6.107,3.754l-7.522-1.521c-0.832-0.175-1.574-0.552-2.184-1.049l-6.68,7.144l-8.054-0.768      l24.909-49.274c-10.339-2.971-19.763-5.898-26.415-8.385c-2.567-0.939-6.625-2.766-10.987-4.84l-18.219,15.133      c-0.803,0.656-1.891,0.856-2.879,0.49c-1.727-0.63-2.445-2.71-1.459-4.269l10.022-16.23c0.217-0.344,0.497-0.61,0.808-0.839      c-3.343-1.67-6.13-3.081-7.634-3.829c-0.694-0.365-1.048-1.236-0.825-2.056c0.239-0.847,0.971-1.419,1.757-1.347      c1.698,0.094,4.801,0.3,8.526,0.548c-0.169-0.347-0.256-0.735-0.279-1.137l-0.395-19.048c-0.032-1.85,1.642-3.269,3.457-2.953      c1.019,0.201,1.86,0.917,2.217,1.901l8.011,22.292c4.808,0.434,9.241,0.908,11.931,1.389c6.987,1.257,16.593,3.487,27.008,6.191      l0.042-0.621l3.521-54.443l7.333,3.398l2.108,9.558c0.79-0.11,1.62-0.048,2.428,0.223l7.263,2.486      c2.605,0.908,4.068,3.681,3.33,6.338c-0.716,2.653-3.381,4.295-6.085,3.749l-4.321-0.884l2.841,12.813      c0.005,0.022,0.026,0.017,0.053,0.033l7.263,2.486c1.77,0.62,3.011,2.107,3.399,3.832c0.18,0.798,0.192,1.655-0.048,2.502      c-0.737,2.657-3.402,4.299-6.107,3.753l-1.878-0.392l2.572,11.718c13.81,4.001,26.769,8.147,35.015,11.273      C496.285,294.546,499.195,297.31,499.949,299.858z"/>
				<g>
					<g style="opacity:0.18;">
						<path style="fill:#000E3F;" d="M499.949,299.858c1.304,4.281-3.562,7.913-12.797,6.325c-8.696-1.506-21.971-4.54-35.904-8.083        l-8.17,8.77l1.818,0.632c2.626,0.903,4.089,3.676,3.352,6.334c-0.716,2.652-3.403,4.299-6.107,3.754l-7.506-1.548        c-0.022,0.005-0.048-0.012-0.07-0.007l-8.934,9.599l4.147,1.421c2.605,0.908,4.068,3.681,3.352,6.333        c-0.733,2.679-3.397,4.321-6.107,3.754l-7.522-1.521c-0.832-0.175-1.574-0.552-2.184-1.049l-6.68,7.144l-8.054-0.768        l24.909-49.274c-10.339-2.971-19.763-5.898-26.415-8.385c-2.567-0.939-6.625-2.766-10.987-4.84l-18.219,15.133        c-0.803,0.656-1.891,0.856-2.879,0.49c-1.727-0.63-2.445-2.71-1.459-4.269l10.022-16.23c0.217-0.344,0.497-0.61,0.808-0.839        c-3.343-1.67-6.13-3.081-7.634-3.829c-0.694-0.365-1.048-1.236-0.825-2.056c0.239-0.847,0.971-1.419,1.757-1.347        c1.698,0.094,4.801,0.3,8.526,0.548c-0.169-0.347-0.256-0.735-0.279-1.137l-0.395-19.048c-0.032-1.85,1.642-3.269,3.457-2.953        c1.019,0.201,1.86,0.917,2.217,1.901l8.011,22.292c4.808,0.434,9.241,0.908,11.931,1.389        c6.987,1.257,16.593,3.487,27.008,6.191l0.042-0.621C450.902,291.135,475.492,295.742,499.949,299.858z"/>
					</g>
				</g>
			</g>
			<g>
				<path style="fill:#000E3F;" d="M435.702,219.61l7.334,3.418l2.105,9.555c0.258-0.036,0.519-0.056,0.783-0.056      c0.544,0,1.097,0.083,1.643,0.271l7.257,2.496c2.61,0.898,4.075,3.667,3.349,6.33c-0.632,2.315-2.732,3.859-5.048,3.859      c-0.347,0-0.699-0.035-1.052-0.107l-4.308-0.88l2.823,12.814c0.023,0.008,0.045,0.008,0.068,0.016l7.257,2.496      c2.611,0.898,4.075,3.667,3.349,6.33v0c-0.632,2.315-2.732,3.859-5.047,3.859c-0.348,0-0.7-0.035-1.053-0.107l-1.885-0.385      l2.58,11.712c13.797,4.013,26.764,8.15,35.019,11.275c13.09,4.956,11.512,14.053,0.46,14.053c-1.274,0-2.674-0.121-4.191-0.383      c-8.698-1.502-21.969-4.524-35.891-8.076l-8.172,8.778l1.819,0.626c2.611,0.898,4.075,3.667,3.349,6.33      c-0.632,2.315-2.732,3.859-5.047,3.859c-0.347,0-0.7-0.035-1.052-0.107l-7.519-1.536c-0.024-0.004-0.043-0.016-0.067-0.021      l-8.941,9.605l4.158,1.43c2.61,0.898,4.075,3.667,3.348,6.33c-0.632,2.315-2.732,3.858-5.047,3.858      c-0.347,0-0.7-0.034-1.052-0.107l-7.52-1.536c-0.839-0.171-1.574-0.549-2.199-1.047l-6.666,7.161l-8.053-0.78l24.905-49.262      c-10.347-2.965-19.758-5.91-26.415-8.382c-2.563-0.952-6.622-2.783-10.985-4.85l-18.216,15.131      c-0.532,0.443-1.194,0.675-1.867,0.675c-0.34,0-0.682-0.06-1.011-0.181c-1.733-0.639-2.446-2.706-1.475-4.277l10.021-16.217      c0.213-0.346,0.495-0.626,0.813-0.848c-3.337-1.661-6.122-3.072-7.629-3.839c-0.71-0.361-1.051-1.22-0.824-2.053      c0.218-0.798,0.899-1.352,1.656-1.352c0.032,0,0.064,0.001,0.096,0.003c1.688,0.105,4.803,0.305,8.522,0.569      c-0.16-0.353-0.261-0.737-0.269-1.144l-0.394-19.059c-0.034-1.666,1.316-2.983,2.914-2.983c0.174,0,0.351,0.015,0.529,0.048      c1.026,0.187,1.876,0.905,2.228,1.887l8.004,22.287c4.807,0.436,9.234,0.919,11.925,1.402c6.99,1.253,16.593,3.496,27.011,6.198      L435.702,219.61 M435.702,215.856c-0.664,0-1.326,0.176-1.914,0.524c-1.066,0.632-1.752,1.75-1.832,2.987l-3.278,50.569      c-9.253-2.335-17.106-4.097-22.895-5.134c-2.135-0.383-5.446-0.793-9.861-1.221l-7.198-20.04      c-0.801-2.235-2.752-3.887-5.091-4.312c-0.395-0.072-0.799-0.109-1.2-0.109c-1.778,0-3.514,0.731-4.763,2.006      c-1.265,1.291-1.942,2.999-1.904,4.808l0.332,16.082c-1.772-0.118-3.226-0.211-4.203-0.271c-0.077-0.005-0.252-0.011-0.33-0.011      c-2.446,0-4.616,1.694-5.278,4.118c-0.692,2.541,0.461,5.227,2.744,6.388c0.872,0.444,2.172,1.103,3.758,1.901l-8.456,13.683      c-1.057,1.712-1.287,3.784-0.631,5.686c0.656,1.902,2.114,3.392,4.001,4.087c0.742,0.274,1.519,0.413,2.31,0.413      c1.556,0,3.071-0.548,4.267-1.542l16.378-13.605c4.018,1.872,7.078,3.2,9.115,3.956c5.513,2.047,13.172,4.518,22.329,7.207      l-22.864,45.224c-0.559,1.106-0.536,2.417,0.062,3.503c0.597,1.086,1.693,1.808,2.927,1.927l8.053,0.781      c0.121,0.012,0.242,0.018,0.362,0.018c1.037,0,2.034-0.43,2.748-1.196l4.779-5.135c0.193,0.054,0.39,0.101,0.587,0.141      l7.518,1.536c0.594,0.121,1.201,0.183,1.804,0.183c4.04,0,7.605-2.724,8.669-6.624c1.124-4.12-0.832-8.418-4.518-10.34      l3.638-3.908l5.527,1.13c0.594,0.121,1.201,0.183,1.804,0.183c4.04,0,7.604-2.724,8.669-6.625      c0.915-3.353-0.21-6.822-2.646-9.034l3.26-3.502c13.708,3.46,26.016,6.208,34.02,7.589c1.682,0.291,3.307,0.438,4.83,0.438      c8.143,0,11.773-3.984,12.455-7.712c0.763-4.168-1.88-9.931-11.586-13.606c-7.592-2.874-19.589-6.759-33.161-10.744      l-1.029-4.669c3.264-0.672,5.965-3.134,6.868-6.441c1.243-4.559-1.282-9.333-5.75-10.869l-5.334-1.835l-1.149-5.213      c0.158,0.008,0.316,0.013,0.474,0.013c4.04,0,7.605-2.724,8.67-6.625c1.243-4.558-1.282-9.332-5.749-10.869l-7.257-2.496      c-0.19-0.065-0.382-0.124-0.576-0.176l-1.509-6.851c-0.252-1.142-1.02-2.101-2.08-2.596l-7.334-3.418      C436.784,215.973,436.242,215.856,435.702,215.856L435.702,215.856z"/>
				<g>
					<path style="fill:#000E3F;" d="M45.455,257.593c-0.43,0-0.863-0.132-1.234-0.406c-0.929-0.683-1.126-1.989-0.442-2.917       c1.739-2.362,3.609-4.578,5.556-6.587c0.801-0.829,2.127-0.846,2.947-0.047c0.829,0.801,0.849,2.122,0.047,2.949       c-1.815,1.875-3.563,3.947-5.194,6.16C46.728,257.3,46.095,257.593,45.455,257.593z"/>
					<path style="fill:#000E3F;" d="M250.189,355.804c-1.167,0-2.367-0.035-3.601-0.111c-0.713-0.044-1.418-0.101-2.116-0.173       c-1.145-0.119-1.978-1.144-1.86-2.289c0.118-1.145,1.137-1.986,2.291-1.86c0.637,0.066,1.285,0.119,1.939,0.159       c4.984,0.304,9.465-0.056,13.514-1.055c1.114-0.27,2.251,0.409,2.524,1.527c0.277,1.118-0.407,2.249-1.526,2.525       C257.911,355.374,254.155,355.804,250.189,355.804z"/>
					<path style="fill:#000E3F;" d="M232.848,352.708c-0.246,0-0.497-0.044-0.739-0.137c-4.913-1.866-9.72-4.54-14.692-8.178       c-0.929-0.68-1.131-1.986-0.45-2.915c0.678-0.931,1.98-1.133,2.915-0.452c4.664,3.414,9.149,5.914,13.706,7.644       c1.078,0.41,1.619,1.613,1.21,2.691C234.481,352.195,233.689,352.708,232.848,352.708z"/>
					<path style="fill:#000E3F;" d="M271.967,349.738c-0.676,0-1.34-0.328-1.741-0.934c-0.636-0.962-0.373-2.255,0.589-2.891       c3.915-2.592,7.512-6.153,10.995-10.885c0.684-0.927,1.988-1.125,2.917-0.443c0.927,0.682,1.126,1.988,0.444,2.916       c-3.778,5.134-7.722,9.023-12.054,11.891C272.762,349.626,272.362,349.738,271.967,349.738z"/>
					<path style="fill:#000E3F;" d="M209.243,336.973c-0.505,0-1.01-0.181-1.411-0.55c-3.542-3.253-7.013-6.732-10.37-10.095       l-1.373-1.376c-0.815-0.815-0.815-2.135,0-2.95c0.815-0.813,2.135-0.814,2.949,0.001l1.377,1.379       c3.326,3.332,6.764,6.778,10.239,9.97c0.847,0.779,0.904,2.099,0.124,2.947C210.367,336.746,209.805,336.973,209.243,336.973z"/>
					<path style="fill:#000E3F;" d="M70.113,330.232c-1.08,0-1.994-0.833-2.078-1.928c-0.088-1.148,0.772-2.15,1.921-2.238       c4.622-0.351,9.579-1.596,15.158-3.802c1.073-0.425,2.283,0.099,2.707,1.172c0.424,1.071-0.1,2.282-1.171,2.706       c-5.976,2.364-11.333,3.699-16.376,4.083C70.219,330.229,70.166,330.232,70.113,330.232z"/>
					<path style="fill:#000E3F;" d="M58.006,329.036c-0.193,0-0.391-0.028-0.587-0.086c-4.043-1.185-7.968-3.171-11.661-5.901       c-1.116-0.826-2.19-1.709-3.188-2.623c-0.851-0.777-0.908-2.097-0.13-2.946c0.778-0.85,2.098-0.906,2.945-0.13       c0.892,0.817,1.852,1.606,2.854,2.345c3.298,2.438,6.781,4.206,10.353,5.253c1.106,0.324,1.739,1.483,1.416,2.588       C59.741,328.445,58.908,329.036,58.006,329.036z"/>
					<path style="fill:#000E3F;" d="M290.044,328.023c-0.348,0-0.701-0.087-1.027-0.271c-1.002-0.568-1.355-1.84-0.786-2.842       c1.695-2.993,3.312-6.045,5.023-9.277c0.89-1.679,1.784-3.37,2.699-5.063c0.546-1.014,1.809-1.391,2.825-0.846       c1.014,0.547,1.393,1.812,0.845,2.826c-0.909,1.684-1.799,3.366-2.683,5.036c-1.65,3.116-3.355,6.337-5.08,9.38       C291.478,327.643,290.771,328.023,290.044,328.023z"/>
					<path style="fill:#000E3F;" d="M96.983,321.129c-0.754,0-1.479-0.409-1.852-1.121c-0.532-1.021-0.137-2.281,0.886-2.814       c4.067-2.12,8.202-4.476,12.203-6.754l2.004-1.141c1.006-0.566,2.279-0.217,2.843,0.783c0.57,1.002,0.22,2.275-0.782,2.844       l-2,1.137c-4.033,2.298-8.204,4.673-12.341,6.829C97.637,321.054,97.307,321.129,96.983,321.129z"/>
					<path style="fill:#000E3F;" d="M188.771,317.044c-0.505,0-1.01-0.181-1.41-0.549c-4.609-4.229-8.581-7.367-12.506-9.874       c-0.969-0.621-1.253-1.91-0.633-2.881c0.621-0.971,1.909-1.257,2.882-0.634c4.131,2.641,8.286,5.919,13.076,10.316       c0.849,0.779,0.906,2.098,0.126,2.947C189.897,316.817,189.335,317.044,188.771,317.044z"/>
					<path style="fill:#000E3F;" d="M36.599,311.298c-0.762,0-1.495-0.418-1.861-1.143c-2.507-4.943-3.894-10.519-4.123-16.577       c-0.045-1.151,0.853-2.119,2.004-2.163c1.188-0.06,2.12,0.855,2.163,2.006c0.206,5.45,1.442,10.446,3.675,14.847       c0.521,1.027,0.112,2.282-0.917,2.803C37.238,311.226,36.917,311.298,36.599,311.298z"/>
					<path style="fill:#000E3F;" d="M121.995,307.315c-0.758,0-1.487-0.413-1.856-1.131c-0.527-1.025-0.124-2.281,0.898-2.809       c5.941-3.057,10.828-5.115,15.38-6.473c1.106-0.335,2.267,0.297,2.595,1.401c0.33,1.104-0.297,2.266-1.401,2.595       c-4.298,1.284-8.958,3.249-14.663,6.186C122.643,307.241,122.317,307.315,121.995,307.315z"/>
					<path style="fill:#000E3F;" d="M303.884,303.035c-0.379,0-0.76-0.103-1.104-0.318c-0.978-0.611-1.273-1.898-0.662-2.875       c3.273-5.229,6.54-9.596,9.989-13.348c0.782-0.848,2.102-0.902,2.947-0.124c0.847,0.779,0.904,2.099,0.124,2.947       c-3.273,3.562-6.388,7.729-9.524,12.739C305.259,302.688,304.579,303.035,303.884,303.035z"/>
					<path style="fill:#000E3F;" d="M165.054,301.531c-0.23,0-0.464-0.039-0.692-0.119c-4.952-1.746-9.928-2.509-15.246-2.371       c-1.059,0.077-2.11-0.875-2.143-2.027c-0.031-1.152,0.876-2.111,2.029-2.143c5.838-0.165,11.306,0.688,16.745,2.605       c1.088,0.383,1.658,1.575,1.275,2.661C166.718,300.995,165.913,301.531,165.054,301.531z"/>
					<path style="fill:#000E3F;" d="M33.776,283.422c-0.14,0-0.281-0.013-0.424-0.043c-1.128-0.233-1.854-1.336-1.621-2.464       c1.102-5.345,2.955-10.687,5.51-15.877c0.509-1.033,1.764-1.458,2.792-0.951c1.035,0.509,1.458,1.759,0.951,2.792       c-2.397,4.874-4.137,9.88-5.167,14.879C35.613,282.744,34.745,283.422,33.776,283.422z"/>
					<path style="fill:#000E3F;" d="M322.717,281.841c-0.644,0-1.279-0.297-1.687-0.856c-0.68-0.931-0.475-2.236,0.456-2.915       c4.485-3.271,9.477-5.922,14.832-7.881c1.082-0.397,2.281,0.159,2.676,1.242c0.395,1.082-0.161,2.279-1.242,2.674       c-5.062,1.85-9.579,4.25-13.81,7.335C323.572,281.711,323.143,281.841,322.717,281.841z"/>
					<path style="fill:#000E3F;" d="M349.273,271.036c-0.998,0-1.882-0.719-2.055-1.736c-0.191-1.135,0.572-2.212,1.707-2.406       c2.703-0.459,5.561-0.799,8.493-1.01c1.145-0.075,2.147,0.782,2.228,1.931c0.084,1.149-0.782,2.148-1.931,2.23       c-2.799,0.201-5.52,0.525-8.09,0.961C349.507,271.027,349.389,271.036,349.273,271.036z"/>
				</g>
			</g>
		</g>
	</g>
	<g>
		<g>
			<g>
				<path style="fill:#000E3F;" d="M256.369,25.748c0.246,1.962,0.365,4.161-0.039,6.019c-6.231,0.297-12.85,1.12-18.786,0.941      c-0.585-10.628-1.695-20.812-1.676-31.337c7.08-0.756,18.934-1.593,18.951-1.318c0.44,2.135,0.24,4.353,0.359,6.506l0.002,0.047      c-3.848,1.082-7.962,0.621-11.972,1.208l-0.138,0.008l-0.041,0.049c0.141,1.784-0.165,3.731,0.338,5.357l0.049,0.045      c1.841,0.037,3.762-0.118,5.644-0.173v0.045c0.436,2.045,0.273,4.121,0.442,6.363c-1.852,0.607-4.901,0.271-5.516,0.809      c-0.222,1.805,0.098,4.267,0.316,5.725l0.047,0.043c4.033-0.22,7.856-0.061,12.015-0.428L256.369,25.748z"/>
				<path style="fill:#000E3F;" d="M274.554,17.039c0.597,5.222,2.473,10.651,3.444,15.755c-0.41-0.067-0.774-0.088-1.188-0.11      c-0.962-0.049-1.884-0.006-2.939-0.061c-0.776-0.041-1.416-0.12-2.004-0.289l-0.043-0.047      c-1.173-3.002-1.263-7.463-2.575-10.427l-0.047-0.049c-1.74,3.401-2.355,7.273-3.984,10.31c-0.69,0.012-1.426,0.018-2.159-0.02      c-1.42-0.073-2.933-0.155-4.057-0.627c1.475-4.469,4.208-10.16,5.579-15.234c-0.774-5.416-2.656-10.659-4.4-15.94      c1.976-0.033,3.489,0,4.589,0.057c1.65,0.087,2.204,0.022,2.371,0.352c0.597,2.607,1.743,7.903,2.493,10.286      c1.228-2.416,2.697-7.624,3.709-10.28l0.002-0.047c1.611-0.053,3.536,0.002,7.017,0.185l0.047,0.002      c-0.004,0.047-0.051,0.045-0.051,0.09C278.383,6.17,275.721,11.405,274.554,17.039z"/>
				<path style="fill:#000E3F;" d="M304.263,14.159c-0.065,0.409-0.128,0.817-0.234,1.171c-1.644,5.642-8.227,9.007-13.83,7.133      c-0.133,1.699-0.46,2.579-1.638,11.408l-0.008,0.043c-0.045-0.004-0.096,0.033-0.143,0.024c-1.75,0.185-5.595-0.475-7.599-1.027      c1.043-8.852,3.43-21.163,4.676-31.284c7.797-0.801,19.886,2.108,18.782,12.486L304.263,14.159z M291.234,9.008      c-0.045-0.008-0.09-0.012-0.145,0.024c-0.21,2.196-0.976,4.958-0.676,6.864l0.134,0.02c1.925,0.171,4.514,0.864,6.194-0.354      c1.216-1.202,1.336-3.414-0.1-4.62C295.344,9.48,293.264,8.822,291.234,9.008z"/>
				<path style="fill:#000E3F;" d="M319.081,41.33c-1.206-0.466-3.306-0.601-17.515-4.642l0.212-0.799      c4.092-13.154,5.116-17.865,8.276-30.365c1.326-0.167,5.559,0.872,7.051,2.033c-2.273,7.606-4.2,16.398-6.373,23.986      l-0.012,0.045c1.249-0.045,9.94,3.137,11.406,3.338c-0.086,0.311-0.179,0.664-0.306,0.963c-0.2,0.564-0.422,1.218-0.507,1.715      C320.393,41.919,320.322,41.662,319.081,41.33z"/>
				<path style="fill:#000E3F;" d="M348.047,26.158c-0.409,1.463-0.947,2.878-1.53,4.275c-1.328,2.982-2.216,5.834-3.556,8.712      l-0.666,1.367c-0.892,1.965-2.165,3.888-3.829,5.169c-1.509,0.996-3.475,1.135-5.412,0.935c-1.768-0.13-3.43-0.664-5.055-1.428      c-2.275-1.11-4.355-2.491-4.518-5.155c-0.275-1.723,0.187-3.463,0.78-5.151c1.526-4.524,2.893-9.16,4.907-13.549      c1.02-2.556,2.536-5.123,5.062-6.467c0.413-0.188,0.811-0.33,1.277-0.399c4.477-0.41,9.763,1.699,12.103,5.485      c0.538,1.041,0.794,2.165,0.764,3.283C348.43,24.239,348.263,25.204,348.047,26.158z M340.826,29.005      c0.018-0.041,0.428-1.505,0.76-2.507c0.475-1.638,0.238-3.347-0.843-4.495c-0.98-0.909-2.412-1.015-3.575-0.67      c-1.279,0.397-2.342,1.122-3.143,2.194c-1.304,2.008-2.273,4.434-3.057,6.887c-0.466,2.129-1.324,4.255-1.485,6.355      c0.25,2.699,3.754,4.324,6.263,3.021c1.609-1.006,1.181-1.169,2.342-3.577c0.483-1.14,0.884-2.069,0.933-2.196l0.782-2.061      L340.826,29.005z"/>
				<path style="fill:#000E3F;" d="M360.905,59.639c-1.915-0.992-4.444-1.994-6.803-3.422l-0.043-0.024      c0.23-3.031,0.483-9.103-0.361-13.158l-0.018-0.165c-1.595,2.275-3.994,7.905-4.947,10.046      c-2.237-0.177-6.728-3.074-7.322-3.228c0.326,0.171,13.469-25.68,14.478-28.622c3.288,1.137,7.288,2.489,11.009,4.984      c6.267,3.664,6.768,12.865,0.452,16.775c-2.031,1.426-4.442,1.986-7.133,0.796l-0.163-0.084l-0.043-0.02l-0.02,0.039      c0.193,5.218,1.568,10.738,0.874,16.063L360.905,59.639z M356.486,34.969l0.039,0.02c1.2,0.778,2.707,1.662,4.116,2.135      c2.307,0.627,4.163-2.546,3.265-4.51c-0.611-1.711-2.711-2.544-5.027-2.762C358.282,31.301,356.915,33.641,356.486,34.969z"/>
				<path style="fill:#000E3F;" d="M381.256,65.835c-0.97,1.721-2.182,3.561-3.611,4.815c-5.186-3.471-10.993-6.744-15.657-10.42      c5.854-8.889,11.021-17.733,17.297-26.182c6.139,3.605,16.164,9.989,16.009,10.217c-0.914,1.98-2.395,3.642-3.583,5.44      l-0.022,0.039c-3.736-1.418-6.768-4.236-10.343-6.151l-0.112-0.073l-0.063,0.012c-0.949,1.519-2.353,2.9-2.917,4.506      l0.014,0.065c1.456,1.124,3.092,2.145,4.638,3.218l-0.027,0.037c-0.868,1.902-2.23,3.475-3.43,5.377      c-1.847-0.611-4.1-2.699-4.913-2.632c-1.255,1.318-2.463,3.487-3.155,4.788l0.014,0.063c3.373,2.22,6.347,4.62,9.911,6.803      L381.256,65.835z"/>
			</g>
		</g>
		<g>
			<g>
				<path style="fill:#000E3F;" d="M221.861,59.051c-1.167-0.071-2.701,0.234-5.542,0.764l-0.094,0.012l-0.045,0.008      c0.006,0.045-0.033,0.098-0.026,0.143c-0.063,0.888,0.44,4.2,3.542,24.016l0.006,0.045l0.006,0.045      c-2.175,0.67-5.277,0.682-7.41,1.346c-0.212-0.528-0.593-7.331-3.658-24.183l-0.053-0.039c-1.507-0.534-4.77,0.332-5.528,0.206      c-0.291-0.426-1-4.218-1.167-7.111c-0.006-0.049-0.051-0.041-0.059-0.088c6.178-0.898,12.918-2.055,19.238-2.234      C221.484,53.962,221.879,56.824,221.861,59.051z"/>
				<path style="fill:#000E3F;" d="M246.753,82.511c-2.098,0.438-4.905,0.299-6.414,0.487L240.294,83      c-0.729-4.064-0.47-8.708-1.106-12.635l-0.047-0.045c-1.797-0.261-3.54-0.204-5.314,0.269c-0.23,4.229,0.597,8.429,0.128,12.298      c-1.485,0.921-5.147-0.151-6.229,0.481c-0.536-5.169-1.568-22.58-1.693-31.942l-0.002-0.045l0.047-0.004l0.09-0.004      c1.847,0.308,4.072-0.499,5.827-0.053c0.692,4.202,0.501,8.155,1.363,12.029h0.045c1.526,0.316,3.442-0.024,4.95-0.21      l0.049-0.002c0.226-4.233,0.116-7.577-0.21-11.975c1.542-0.556,4.424-0.788,6.263-0.711L246.753,82.511z"/>
				<path style="fill:#000E3F;" d="M268.647,78.174c-0.01,1.976-0.175,4.171-0.813,5.964c-6.219-0.509-12.885-0.546-18.749-1.491      c0.792-10.612,1.004-20.853,2.381-31.282c7.115,0.163,18.977,0.863,18.957,1.137c0.161,2.175-0.326,4.347-0.485,6.495      l-0.002,0.047c-3.953,0.578-7.972-0.412-12.025-0.346l-0.138-0.008l-0.047,0.041c-0.09,1.788-0.644,3.679-0.356,5.355      l0.045,0.051c1.817,0.273,3.742,0.371,5.614,0.554l-0.002,0.049c0.167,2.082-0.261,4.118-0.383,6.363      c-1.912,0.363-4.894-0.362-5.573,0.09c-0.452,1.76-0.454,4.245-0.426,5.719l0.041,0.049c4.027,0.302,7.797,0.949,11.969,1.122      L268.647,78.174z"/>
				<path style="fill:#000E3F;" d="M306.491,59.519c-3.312,10.109-6.905,20.008-10.182,30.172c-0.436,0.041-0.96-0.13-1.54-0.267      l-1.607-0.377l-0.538-0.126c-0.703-1.625-0.169-6.306-0.856-8.209l-0.043-0.012c-1.324,0.823-2.858,5.548-4.151,6.848      c-0.79-0.043-1.393-0.09-2.243-0.289c-0.489-0.114-1.014-0.285-1.664-0.53l-0.045-0.012c0.959-10.518,1.725-21.222,3.964-31.581      l0.012-0.047c0.923,0.077,1.929,0.218,2.953,0.46c1.208,0.281,2.393,0.652,3.452,0.949c-0.741,5.385-3.518,13.406-3.428,18.845      c1.389-2.503,2.566-4.913,3.864-7.434c0.077-0.122,0.086-0.167,0.14-0.202c0.444,0.527,0.12,7.331,0.415,9.286      c1.697-5.023,3.538-13.683,5.255-18.794l0.01-0.047c1.08,0.02,2.161,0.226,3.235,0.477c1.027,0.24,1.996,0.517,2.961,0.835      L306.491,59.519z"/>
				<path style="fill:#000E3F;" d="M326.805,74.325c-0.364,1.481-0.858,2.91-1.395,4.328c-1.236,3.021-2.035,5.901-3.283,8.817      l-0.625,1.389c-0.833,1.992-2.045,3.956-3.67,5.287c-1.475,1.043-3.436,1.24-5.381,1.104c-1.77-0.077-3.448-0.558-5.094-1.271      c-2.314-1.039-4.432-2.355-4.681-5.013c-0.33-1.717,0.079-3.469,0.621-5.176c1.383-4.573,2.607-9.247,4.481-13.7      c0.943-2.587,2.377-5.198,4.86-6.624c0.409-0.2,0.802-0.357,1.267-0.436c4.461-0.55,9.811,1.393,12.268,5.104      c0.572,1.022,0.866,2.143,0.868,3.261C327.129,72.4,326.988,73.371,326.805,74.325z M319.674,77.402      c0.016-0.043,0.381-1.517,0.682-2.532c0.422-1.65,0.135-3.353-0.984-4.467c-1.006-0.882-2.444-0.941-3.595-0.56      c-1.267,0.436-2.306,1.194-3.071,2.29c-1.242,2.049-2.139,4.508-2.845,6.982c-0.399,2.143-1.192,4.298-1.287,6.4      c0.336,2.688,3.89,4.208,6.359,2.823c1.579-1.055,1.145-1.206,2.228-3.646c0.448-1.157,0.819-2.098,0.865-2.228l0.719-2.082      L319.674,77.402z"/>
				<path style="fill:#000E3F;" d="M340.696,107.374c-1.945-0.931-4.508-1.849-6.913-3.206l-0.041-0.018      c0.132-3.041,0.189-9.119-0.784-13.148l-0.022-0.163c-1.519,2.326-3.742,8.031-4.628,10.2c-2.24-0.104-6.823-2.856-7.422-2.99      c0.334,0.159,12.645-26.108,13.555-29.08c3.328,1.029,7.371,2.255,11.17,4.63c6.383,3.463,7.18,12.645,0.99,16.755      c-1.988,1.493-4.379,2.131-7.109,1.029l-0.163-0.079l-0.043-0.02l-0.02,0.041c0.357,5.21,1.911,10.685,1.389,16.03      L340.696,107.374z M335.486,82.851l0.043,0.02c1.222,0.737,2.756,1.572,4.18,2c2.33,0.554,4.082-2.681,3.124-4.611      c-0.668-1.693-2.794-2.457-5.116-2.603C337.166,79.128,335.873,81.511,335.486,82.851z"/>
				<path style="fill:#000E3F;" d="M358.594,118.622c-1.016-0.798-2.986-1.544-15.395-9.573l0.438-0.701      c7.767-11.382,10.127-15.588,16.81-26.619c1.316,0.23,5.062,2.463,6.151,4.011c-4.404,6.61-8.823,14.453-13.123,21.073      l-0.024,0.041c1.206,0.32,8.587,5.913,9.93,6.534c-0.171,0.273-0.362,0.585-0.572,0.833c-0.356,0.483-0.76,1.041-0.99,1.493      C359.677,119.571,359.683,119.302,358.594,118.622z"/>
				<path style="fill:#000E3F;" d="M388.995,114.764c-0.34,0.957-0.896,1.746-1.452,2.534c-1.884,2.196-3.652,4.542-5.803,6.41      c-0.031,0.035-0.067,0.008-0.094,0.045c-3.204,2.096-6.952,3.249-10.573,4.094c-3.271-2.373-6.565-4.939-9.604-7.306      l-0.065,0.008c4.899-8.453,12.4-16.743,18.759-25.281c0.063-0.01,0.157-0.053,0.22-0.061c3.288,1.456,6.133,4.371,9.005,6.432      c1.247,1.609,1.809,4.025,1.577,6.113C390.747,110.197,390.055,112.507,388.995,114.764z M381.797,114.448      c0.866-1.709,1.839-3.856,0.664-5.705c-0.75-0.758-1.735-1.581-2.744-2.078l-0.073-0.055l-0.037-0.029l-0.112,0.145      c-1.847,2.746-4.872,6.033-7.229,9.431c0.175,0.894,1.338,1.566,2.291,2.135c0.228,0.232,0.483,0.2,0.821,0.289      c0.699,0.077,1.397-0.077,2.025-0.283C379.225,117.677,380.813,116.532,381.797,114.448z"/>
			</g>
		</g>
	</g>
	<g>
		<path style="fill:#FD8A02;" d="M484.112,458.196l-7.666,8.38c-0.49,0.535-0.685,1.276-0.521,1.983l2.557,11.066    c0.411,1.779-1.396,3.257-3.058,2.501l-10.339-4.701c-0.66-0.3-1.425-0.256-2.047,0.117l-9.734,5.851    c-1.565,0.941-3.529-0.321-3.324-2.135l1.276-11.285c0.082-0.72-0.197-1.435-0.744-1.91l-8.573-7.449    c-1.378-1.198-0.785-3.455,1.004-3.821l11.127-2.273c0.711-0.145,1.304-0.631,1.587-1.298l4.435-10.455    c0.713-1.681,3.044-1.814,3.944-0.226l5.601,9.88c0.358,0.631,1.002,1.045,1.725,1.108l11.314,0.987    C484.497,454.674,485.344,456.849,484.112,458.196z"/>
		<path style="fill:#FD8A02;" d="M382.548,505.029l-9.842-1.491c-0.628-0.095-1.263,0.125-1.698,0.588l-6.808,7.262    c-1.095,1.167-3.052,0.573-3.313-1.006l-1.623-9.821c-0.104-0.627-0.509-1.163-1.084-1.433l-9.011-4.231    c-1.448-0.68-1.488-2.726-0.067-3.462l8.839-4.579c0.564-0.292,0.948-0.843,1.028-1.474l1.24-9.877    c0.199-1.588,2.132-2.258,3.272-1.134l7.086,6.992c0.452,0.447,1.095,0.641,1.719,0.522l9.777-1.874    c1.571-0.301,2.806,1.331,2.089,2.761l-4.46,8.9c-0.285,0.568-0.272,1.24,0.035,1.797l4.803,8.719    C385.3,503.59,384.13,505.269,382.548,505.029z"/>
		<path style="fill:#FD8A02;" d="M482.612,367.472l-2.449,8.347c-0.156,0.533-0.04,1.108,0.31,1.539l5.487,6.75    c0.882,1.085,0.137,2.71-1.261,2.751l-8.695,0.25c-0.555,0.016-1.067,0.304-1.368,0.77l-4.724,7.304    c-0.759,1.174-2.535,0.968-3.005-0.349l-2.925-8.192c-0.187-0.523-0.619-0.92-1.156-1.063l-8.406-2.235    c-1.351-0.36-1.704-2.112-0.597-2.966l6.888-5.313c0.44-0.339,0.684-0.873,0.654-1.428l-0.472-8.686    c-0.076-1.396,1.482-2.273,2.636-1.484l7.181,4.909c0.458,0.313,1.042,0.381,1.559,0.181l8.115-3.133    C481.691,364.92,483.006,366.131,482.612,367.472z"/>
		<path style="fill:#FD8A02;" d="M20.635,85.068l8.988-6.943c0.574-0.443,0.893-1.14,0.853-1.864l-0.624-11.34    c-0.1-1.823,1.933-2.969,3.441-1.94l9.38,6.403c0.599,0.409,1.36,0.497,2.036,0.235l10.592-4.097    c1.703-0.658,3.421,0.921,2.909,2.673l-3.191,10.9c-0.204,0.696-0.052,1.447,0.405,2.009l7.17,8.808    c1.153,1.416,0.181,3.539-1.643,3.592l-11.352,0.333c-0.725,0.021-1.392,0.398-1.786,1.007l-6.161,9.541    c-0.991,1.533-3.309,1.266-3.925-0.453l-3.825-10.694c-0.244-0.683-0.809-1.201-1.509-1.387L21.417,88.94    C19.653,88.472,19.191,86.183,20.635,85.068z"/>
		<path style="fill:#FD8A02;" d="M120.664,59.05l9.441,3.156c0.602,0.201,1.266,0.093,1.773-0.289l7.952-5.989    c1.278-0.963,3.105-0.041,3.092,1.559l-0.084,9.954c-0.005,0.636,0.302,1.233,0.823,1.597l8.152,5.712    c1.31,0.918,0.999,2.941-0.527,3.422l-9.493,2.996c-0.606,0.191-1.079,0.668-1.265,1.276l-2.914,9.519    c-0.468,1.53-2.488,1.859-3.417,0.556l-5.783-8.102c-0.369-0.517-0.969-0.82-1.604-0.809l-9.953,0.171    c-1.6,0.027-2.536-1.792-1.585-3.078l5.919-8.004c0.378-0.511,0.48-1.175,0.273-1.776l-3.238-9.413    C117.705,59.996,119.146,58.542,120.664,59.05z"/>
		<path style="fill:#FD8A02;" d="M8.753,193.492l3.843-7.804c0.245-0.498,0.23-1.085-0.042-1.569l-4.25-7.59    c-0.683-1.22,0.329-2.694,1.713-2.494l8.61,1.244c0.549,0.079,1.103-0.117,1.48-0.525l5.905-6.387    c0.949-1.027,2.664-0.52,2.901,0.859l1.478,8.572c0.094,0.547,0.452,1.013,0.956,1.245l7.899,3.642    c1.27,0.585,1.317,2.373,0.08,3.025l-7.696,4.054c-0.491,0.259-0.824,0.743-0.889,1.294l-1.023,8.638    c-0.164,1.389-1.849,1.986-2.852,1.011l-6.234-6.066c-0.398-0.387-0.961-0.554-1.505-0.446l-8.532,1.696    C9.224,196.165,8.135,194.747,8.753,193.492z"/>
	</g>
</g>















</svg>
