<svg id="Layer_1" enable-background="new 0 0 512 512" viewBox="0 0 512 512" xmlns="http://www.w3.org/2000/svg"><g fill="#fab03c"><path d="m250.2 262.2c0-33.1 0-66.2 0-99.4 0-5.8.1-5.9 6-5.7 38.4 1.5 67.1 19 86.6 52.2 14.7 25 19.4 51.5 11.3 79.2-9.8 33.6-30.1 58.9-63.5 72.2-11.7 4.7-24 6.4-36.6 6.5-3.7 0-3.9-1.9-3.9-4.7.1-33.5.1-66.9.1-100.3z"/><path d="m402 250.8c8.9 0 17.8-.1 26.7 0 7.7.1 11.7 4.1 11.6 11.5 0 7.2-4 11.2-11.5 11.1-18.4-.2-36.8-.5-55.2-.9-6-.1-10.1-4.5-10.1-10.3-.1-5.9 4.2-10.3 10.4-10.5 9.3-.2 18.7 0 28 0 .1-.3.1-.6.1-.9z"/><path d="m313.2 166.8c-7.8.1-13.2-7.7-9.6-14.5 9-16.9 18.3-33.6 27.8-50.2 3.2-5.7 9.2-6.5 15.1-3 5.6 3.3 7.4 8.9 4.2 14.5-6.1 10.5-12.6 20.8-18.8 31.2-3.4 5.6-6.7 11.2-10 16.9-1.9 3.3-4.8 5-8.7 5.1z"/><path d="m313.9 357.3c3 .2 5.8 1.6 7.6 4.7 9.7 16.2 19.5 32.3 29 48.5 3.4 5.8 1.5 11.4-4.2 14.8s-11.8 2.3-15-3.4c-9.4-16.5-18.7-33.1-27.6-49.8-3.7-6.9 1.9-15.1 10.2-14.8z"/><path d="m361 314.3c.9.2 2.5.4 3.7 1.1 10.3 5.6 20.7 11 30.4 17.6 3.2 2.2 4.9 5.2 4.7 9.1-.3 6.7-7 11.7-13.2 9.1-11.8-4.9-22.5-11.8-33.1-18.9-3.6-2.4-4.3-7.2-2.6-11.3 1.7-4.3 4.9-6.5 10.1-6.7z"/><path d="m388.9 172.5c5.1 0 8.8 2.6 10.3 6.7 1.5 4 .5 8.7-3.1 11.2-10 7.2-20.9 13-31.8 18.6-4.8 2.5-10.4.1-13-4.5-2.5-4.5-1.5-10.2 2.9-13.1 10.1-6.5 20.4-12.7 31.2-18 1.2-.6 2.8-.7 3.5-.9z"/><path d="m250.2 120.1c0-7.7.2-15.4-.1-23.1-.1-4.1 1.7-4.6 4.9-3.5 4 1.3 6.6 4.2 7 8.4 1.1 12.3.7 24.5.1 36.8-.1 2.8-1.7 5-4 6.6-2 1.4-4.3 2.6-6.6 1.7-2.5-1-1.2-3.7-1.3-5.6-.1-7.1 0-14.2 0-21.3z"/><path d="m250.2 404c0-7.7.1-15.5-.1-23.2-.1-3.8 1.6-4.4 4.7-3.5 4.5 1.3 7.3 4.4 7.4 9 .5 11.9.8 23.7-.1 35.6-.3 4.5-2.9 7.4-7.1 8.8-3.1 1-5.1.6-4.9-3.5.2-7.7.1-15.4.1-23.2z"/></g><path d="m117.5 344.9c-5.2 3.3-10.1 6.4-14.9 9.5-1.8 1.2-3.6 1.9-5.8 1.6-7.1-1-14.1-2-21.2-2.8-2.7-.3-3.8-1-2.3-3.8 1.4-2.6 2.8-5.4 3.4-8.2 2.5-11.6 10.1-18.2 20.8-22 1.2-.4 3-.8 3-2.2 0-1.5-1.9-1.5-3-2.3-2.5-1.9-7.4-1-8-4.5-.4-2.7 1.7-5.8 2.8-8.8 1.9-5 4-9.9 5.7-15 .9-2.8 2.2-3.3 4.9-2.3 8.6 3.3 16.7 7.8 25.1 11.4 6.5 2.8 11.9 1.8 16.9-3 1.9-1.8-.1-2.2-1-2.8-4.7-3.1-9.7-5.8-14.2-9.1-13.3-9.7-16.9-23.6-9.8-38.5 3.4-7.2 10.2-10.9 16.5-15.1 2.6-1.7 5.3-3.3 8-4.8 1.7-1 1.6-1.9-.1-2.8-2.6-1.5-5.1-3-7.7-4.5-1.8-1.1-3.4-.3-5.1.4-9.3 4.2-18.7 8.2-28 12.5-3.5 1.6-4.9.5-6-2.9-2.3-6.7-4.9-13.4-7.6-20-1.4-3.2-.5-4.5 2.6-5.4 2.9-.9 5.9-1.7 8.6-4.4-5.4-2.8-10.5-5.6-15.6-8.1-2.3-1.1-3.7-2.7-4.6-5.1-2.4-6.2-4.9-12.4-7.6-18.5-1.2-2.6-1.2-3.9 2.2-4.3 7.1-.7 14.1-1.8 21.2-2.8 2.3-.3 4 .6 5.8 1.7 4.8 3.1 9.6 6.2 15 9.6.3-3.9.1-7-.8-9.9-1-3.4.3-4.4 3.5-4.8 7.4-1 14.7-2.1 22-3.5 2.9-.6 4 .3 4.5 3.1 1.5 8.8 2.2 17.7 2.4 26.6.1 8.1 5.1 10.9 10.9 13.7 2.6 1.3 2.3-.6 2.3-2.1.2-6.5.3-13 1-19.6 1.8-18.1 23.9-30.3 40-22.8 5.7 2.6 11.2 5.5 16.6 8.5 2.3 1.3 3.2 1.2 3.5-1.8.9-7-1-12-7.4-15.8-6.9-4.1-13.1-9.2-19.7-13.8-3.1-2.1-4.1-3.9-1-7.2 5-5.5 9.6-11.3 14.1-17.2 1.7-2.2 2.7-1.9 4.6-.4 2.6 2.1 5.4 6.2 8.2 4.9 2.1-1 .6-6.1.2-9.2-1.2-7.8.8-14.2 6.3-19.8 3.3-3.4 5.9-7.4 9.4-11.9v383.5c-5.5-7.2-10.5-13.6-15.3-20-1-1.4-.6-3.1-.6-4.8 0-5.6 0-11.2 0-17-3.1 1.3-5.7 3.5-8.2 5.7-1.8 1.7-3.1 1.5-4.7-.5-4.8-6.2-9.8-12.3-14.9-18.3-1.9-2.2-1.3-3.3.7-5 7.8-6.7 16.9-11.5 24.9-18 2.9-2.3 4.9-11.3 3.3-14.6-1-1.9-2-.5-2.9 0-5.8 2.9-11.5 6.1-17.5 8.8-16.2 7.3-37.9-5.4-39.5-23-.6-6.2-.9-12.4-.9-18.7 0-2.9-.2-3.9-3.6-2.4-6.6 2.8-9.6 7.2-9.8 14.6-.2 8.1-1.5 16.2-2.2 24.4-.3 3.3-1.4 4.6-5.1 3.9-7.4-1.5-14.9-2.6-22.4-3.6-2.6-.4-3.3-1.5-2.7-3.9.8-3.4 1.3-6.8.8-10.8zm90.6-88.8c-10.2-5.8-19.9-11.3-29.5-16.8-1.1-.6-2.2-1-3.3-.3-9.1 5.5-18.2 11-27.4 16.6.6.7.7 1.2 1.1 1.4 8.6 5.3 17.2 10.5 25.8 15.8 1.5.9 2.8.6 4.2-.1 9.4-5.4 19-10.8 29.1-16.6zm15.5-44.6c-.1 0-.1 0-.2 0 0-5 0-10.1 0-15.1 0-1.9-.2-3.4-2.2-4.5-8.3-4.5-16.7-9-24.9-13.7-2.8-1.6-3.3-.3-3.3 2.2-.2 9.3-.4 18.7-.6 28-.1 1.9.6 3 2.2 4 8.7 5.1 17.4 10.2 26.1 15.3 2.5 1.5 3 .4 3-2-.1-4.7-.1-9.4-.1-14.2zm-.2 90h.2c0-4.9-.1-9.8 0-14.7.1-2.7-.5-3.7-3.2-2.1-8.4 5-16.7 10-25.2 14.8-2.1 1.2-2.8 2.7-2.8 5 .2 9 .5 18.1.5 27.1 0 3.6 1.4 3.6 4 2.1 7.9-4.4 15.8-8.7 23.7-13 2.1-1.1 2.8-2.7 2.8-5-.1-4.8 0-9.5 0-14.2z" fill="#6ea4dd"/><path d="m104.1 354.4c4.1-2.7 7.9-6.1 12.8-7.9.8 3.5-.2 6.4-.9 9.2-.8 3.1.4 3.9 3.1 4.3 7 1 14 2.3 21 3.4 5.7.9 7 .1 7.6-5.6.9-8.5 1.5-17.1 2.5-25.7.8-7.2 4-10.3 11.7-11.7.2 6.4-.1 12.7.9 19.1 1.3 8.2 3.9 15.4 10.8 20.6 2.3 1.7 3.6 1.4 4.9-.8 2.8-4.4 5.5-8.8 8.4-13.1 8.9-13.1 17.3-26.6 25.1-40.4 6.7-11.7 11.4-24.6 20.6-34.7 5.2-5.8 6.4-12 6.4-19.4-.2-61.3-.1-122.7-.2-184 0-1.2.7-2.7-1-3.7-3.4 4.3-6.5 9-10.3 12.9-5.2 5.4-7 11.3-5.8 18.6.5 3 1.9 7.9 0 8.8-2.8 1.4-5.3-2.7-7.7-4.7-1.8-1.5-3-1.7-4.7.5-4.9 6.3-9.9 12.6-15.2 18.6-2.3 2.7-1.7 4 .6 6 7 5.8 14.8 10.3 22.1 15.7 6.7 5 7.7 8.3 5.2 16.6-4.2-2.2-8.3-4.6-12.6-6.6-7.1-3.4-14.3-6.2-22.6-4.5-6.7 1.4-7.3 2.2-4.5 8.3 11.6 26.1 28.1 49.5 41.1 74.9 3.9 7.6 8.4 14.8 11.3 22.3-54.6-29.4-107.1-63.2-162.8-91.4 3 8.4 6.4 16.4 9.8 24.4.6 1.5 2 2.1 3.3 2.8 4.8 2.5 9.6 5.1 15 8-2.8 2.3-5.5 3.2-8.1 4-2.9.9-3.7 2.2-2.5 5.2 3 7.4 5.7 14.9 8.4 22.4.9 2.6 2.2 3.3 4.9 2.3 8.2-3.1 16-7.1 23.6-11.1 6-3.2 11.1-3.3 16.5 1 2.4 1.9 2.2 2.4-.2 3.8-5.7 3.3-11.3 6.6-16.3 10.8-5 4.1-8.2 9.3-9.8 15.5-.8 3.2-.5 5.6 3.9 5.7 7.6.1 15.1 1.1 22.6 1.2 7.4.1 14.8.8 22.2 1.3 12.6.9 25 3.2 37.9-.3 8.7-2.3 18.3-.2 27.8.7-5.5 6.2-12.2 9.7-19 13.2-46.4 23.5-90.2 51.6-136.2 75.8-1.1.6-2.3 1.4-3.1 2.4-2.2 2.9-1.5 4.3 2.2 4.8 6 .7 12.1 1.6 18.1 2.4 4.1.4 7.6.5 11.2-1.9z" fill="#3981bf"/><path d="m336.7 293.9c1.3-2.9 3.6-6.5-.8-8.4-4.7-2.1-5.5 2.3-6.9 5.4-11.5 26.1-30.9 43.4-57.7 52.5-1.5.5-3.2.9-4.6 1.6-1.8.9-2.6 2.5-2.1 4.5.5 2.1 2.1 3.2 4.4 3.2 1-.3 2.2-.5 3.3-.9 30-9.9 51.7-28.9 64.4-57.9z"/><path d="m338.3 246.6c-.3-2.6-1.8-4.2-4.5-3.9-2.6.2-3.8 2-3.7 4.6.2 2.8.4 5.6.6 8.4-.1 0-.1 0-.2 0v9.8c0 2.5 1.1 4.4 3.8 4.6 2.9.2 4.3-1.6 4.5-4.4.4-6.4.3-12.8-.5-19.1z"/><path d="m321.7 218c.9 2.9 2 5.9 3.4 8.7.9 1.9 2.8 2.6 4.9 1.9 1.9-.7 2.7-2.1 2.8-4.5-1-3-1.9-6.5-3.9-9.5-1.1-1.6-2.9-2.1-4.7-1.3-2.1.9-3.2 2.6-2.5 4.7z"/></svg>