<?xml version="1.0" encoding="UTF-8"?>
<!-- Generator: Adobe Illustrator 25.4.1, SVG Export Plug-In . SVG Version: 6.00 Build 0)  -->
<svg xmlns="http://www.w3.org/2000/svg" xmlns:xlink="http://www.w3.org/1999/xlink" version="1.1" id="Capa_1" x="0px" y="0px" viewBox="0 0 512 512" style="enable-background:new 0 0 512 512;" xml:space="preserve" width="512" height="512">
<g>
	<g>
		<g>
			<path style="fill:#002B59;" d="M174.383,145.765l-78.992,41.191c0,0,10.296,6.742,2.492,22.63     c-13.807,28.103-44.3,51.126-43.327,75.708c0.979,24.585,49.345,7.184,49.345,7.184s-29.72,30.1-13.862,35.176     c15.854,5.073,90.875-38.74,90.875-38.74L174.383,145.765z"/>
			<path style="opacity:0.2;fill:#FFFFFF;" d="M108.404,319.734c3.562-11.274,7.733-22.361,9.119-34.174     c0.621-5.268,0.404-12.196-5.484-14.13c-4.732-1.557-10.656,1.447-14.761,3.437c-2.966,1.439-5.82,3.094-8.741,4.622     c-1.616,0.844-3.25,1.663-4.894,2.456c-4.209,2.034-2.964-6.098-2.721-7.563c1.519-9.203,8.32-17.647,13.335-25.225     c5.728-8.653,10.178-18.267,14.086-27.856c7.797-19.146,12.839-40.905,7.944-61.411c-0.389-1.635-4.179-0.656-3.784,0.996     c5.14,21.544-0.989,44.072-9.369,63.975c-3.697,8.782-8.109,17.367-13.371,25.314c-5.089,7.694-10.5,15.426-12.66,24.53     c-1.023,4.309-0.788,10.836,4.961,10.326c5.587-0.495,11.893-5.628,16.83-8.116c2.849-1.437,5.847-2.773,9.038-3.175     c5.561-0.7,5.986,5.995,5.956,9.82c-0.101,12.408-5.623,24.847-9.302,36.498C104.065,321.711,107.922,321.258,108.404,319.734     L108.404,319.734z"/>
			<path style="opacity:0.2;fill:#FFFFFF;" d="M122.234,232.607c16.845,2.042,25.133-16.736,30.539-29.646     c8.363-19.963,9.838-42.175,7.688-63.495c-0.094-0.933-1.99-0.465-1.894,0.496c1.841,18.248,0.779,36.476-4.521,54.093     c-4.062,13.503-13.488,39.244-31.171,37.097C121.895,231.034,120.961,232.452,122.234,232.607L122.234,232.607z"/>
			<path style="opacity:0.2;fill:#FFFFFF;" d="M126.747,226.772c9.491-0.873,12.128-12.538,14.475-20.085     c5.783-18.614,4.95-38.721,0.598-57.522c-0.111-0.479-2.01-0.005-1.896,0.502c3.515,15.173,4.508,30.577,2.076,46.002     c-1.1,6.989-4.912,29.387-14.453,30.264C127.012,225.981,125.497,226.888,126.747,226.772L126.747,226.772z"/>
		</g>
		<g>
			<g>
				<g>
					<g>
						<path style="fill:#9B5C50;" d="M311.552,325.648c1.288,6.226,17.738,28.043,18.932,18.486        c1.196-9.558-16.57-27.282-23.758-24.774c-7.188,2.514,0.809,16.321,0.809,16.321l-17.018,10.202l3.964,12.007l27.794-5.319        c0,0,4.024,12.873,13.527,9.047c9.499-3.824,12.715-21.833-9.39-37.439c0,0,30.071-35.867,25.836-43.15        c-4.239-7.278-33.189,47.935-33.189,47.935"/>
						<path style="fill:#002B59;" d="M291.606,345.941c5.674-3.402,11.346-6.8,17.02-10.201c0.075-0.046,0.419-0.276,0.329-0.434        c-1.461-2.576-7.773-17.004,0.107-15.349c7.547,1.588,14.481,10.357,17.967,16.601c1.482,2.653,2.795,6.258,1.659,9.25        c-0.118,0.313-4.664-3.713-5.469-4.561c-4.047-4.255-8.726-10.15-10.248-15.973c-0.173-0.665-3.015,0.08-2.84,0.747        c1.286,4.912,4.85,9.381,7.932,13.302c2.36,3.001,5.952,7.883,10.248,7.758c3.641-0.109,3.874-3.684,3.387-6.518        c-1.174-6.814-7.438-13.154-12.502-17.356c-6.477-5.373-19.216-7.386-16.346,5.032c0.594,2.575,1.79,5.063,3.026,7.385        c0.269,0.505,0.784-0.134-0.224,0.471c-0.991,0.594-1.984,1.188-2.975,1.785c-4.419,2.647-8.833,5.294-13.249,7.941        C288.212,346.548,291.078,346.258,291.606,345.941L291.606,345.941z"/>
					</g>
					<path style="fill:#002B59;" d="M331.411,360.328c-5.822-2.251-7.521-8.059-6.65-13.827c0.184-1.208-2.689-0.734-2.847,0.31       c-0.938,6.211,0.999,12.528,7.252,14.944C330.082,362.111,332.655,360.808,331.411,360.328L331.411,360.328z"/>
					<path style="fill:#002B59;" d="M322.541,353.556c0.888,2.544,5.717,2.928,7.942,2.631c4.683-0.619,8.199-3.268,11.272-6.721       c0.703-0.789-2.086-0.497-2.601,0.08c-1.768,1.984-3.646,3.805-6.119,4.894c-1.555,0.689-6.829,0.737-7.652-1.63       C325.094,351.987,322.285,352.816,322.541,353.556L322.541,353.556z"/>
					<path style="fill:#002B59;" d="M329.881,344.242c6.825,3.147,7.342-6.821,7.357-10.997c0.006-1.535-2.877-1.148-2.881,0.182       c-0.006,1.851-0.051,3.693-0.312,5.526c-0.137,0.967-0.371,1.905-0.775,2.798c-0.453,1.003-0.82,0.964-1.758,0.532       C330.281,341.715,328.226,343.481,329.881,344.242L329.881,344.242z"/>
				</g>
				<g>
					<path style="fill:#FFC33E;" d="M167.72,320.559c0,0,36.245,65.249,130.436,15.651l14.714,64.449       c0,0-73.327,102.765-138.683-18.897l-22.189-47.519L167.72,320.559z"/>
					
						<rect x="279.58" y="347.029" transform="matrix(0.9579 -0.287 0.287 0.9579 -98.9364 96.6714)" style="fill:#002B59;" width="1.304" height="77.463"/>
					
						<rect x="300.74" y="337.555" transform="matrix(0.9765 -0.2157 0.2157 0.9765 -73.1585 73.7698)" style="fill:#002B59;" width="1.303" height="69"/>
					<path style="fill:#002B59;" d="M281.797,362.101c3.041,4.971,10.819-3.156,5.294-6.127c-3.821-2.056-11.178,2.127-10.594,6.54       c0.675,5.095,8.581,7.678,12.856,6.344c2.61-0.813,3.953-2.584,4.237-5.316c0.265-2.542-1.333-5.3-2.057-7.661       c-0.286-0.921-0.959-5.144,0.739-4.497c0.38,0.145,1.875-0.453,1.358-0.651c-2.436-0.931-3.995,0.399-4.094,2.876       c-0.171,4.274,6.569,15.465-2.635,14.879c-3.66-0.232-8.293-2.986-8.811-6.889c-0.44-3.316,4.352-5.69,7.03-5.194       c1.296,0.242,1.992,1.425,2.131,2.622c0.163,1.424-1.582,6.256-3.799,2.638C283.191,361.238,281.648,361.86,281.797,362.101       L281.797,362.101z"/>
					<path style="fill:#002B59;" d="M287.074,382.504c3.043,4.969,10.821-3.157,5.296-6.128c-3.821-2.057-11.18,2.126-10.596,6.539       c0.677,5.097,8.583,7.679,12.858,6.344c2.61-0.813,3.955-2.582,4.239-5.314c0.263-2.542-1.335-5.302-2.061-7.663       c-0.284-0.921-0.957-5.142,0.741-4.495c0.38,0.145,1.873-0.455,1.358-0.653c-2.437-0.93-3.996,0.399-4.096,2.876       c-0.169,4.275,6.569,15.465-2.633,14.88c-3.663-0.236-8.295-2.988-8.812-6.892c-0.44-3.316,4.354-5.689,7.031-5.193       c1.296,0.244,1.99,1.426,2.127,2.622c0.167,1.424-1.578,6.26-3.795,2.638C288.469,381.64,286.927,382.261,287.074,382.504       L287.074,382.504z"/>
					<path style="fill:#002B59;" d="M292.622,403.128c3.045,4.969,10.821-3.158,5.294-6.129c-3.821-2.057-11.178,2.129-10.593,6.539       c0.677,5.096,8.583,7.679,12.856,6.347c2.614-0.815,3.953-2.586,4.239-5.318c0.265-2.542-1.335-5.3-2.059-7.663       c-0.284-0.921-0.959-5.143,0.737-4.493c0.382,0.145,1.879-0.454,1.362-0.652c-2.437-0.93-3.998,0.399-4.096,2.877       c-0.171,4.273,6.571,15.464-2.631,14.878c-3.664-0.232-8.297-2.987-8.815-6.89c-0.438-3.318,4.352-5.688,7.03-5.191       c1.298,0.24,1.992,1.424,2.131,2.621c0.163,1.424-1.582,6.256-3.799,2.637C294.015,402.263,292.473,402.887,292.622,403.128       L292.622,403.128z"/>
				</g>
			</g>
			<g>
				<g>
					<path style="fill:#FFC33E;" d="M166.583,330.831l11.989,23.901l13.147-1.391l-6.642,71.971c0,0-192.239-7.397-166.973-62.318       c25.254-54.906,106.402-58.024,106.402-58.024s-8.615-19.392,0.101-21.963c8.715-2.573,77.957,27.317,79.027,32.985       C204.691,321.647,166.583,330.831,166.583,330.831z"/>
					<path style="fill:#002B59;" d="M51.796,366.847l136.423-10.037l-3.139,68.502l6.635-71.967L62.254,363.09       c0,0,0.732-17.507,36.684-31.914C98.938,331.176,59.117,335.126,51.796,366.847z"/>
					
						<rect x="171.925" y="329.413" transform="matrix(0.8938 -0.4485 0.4485 0.8938 -135.4186 113.826)" style="fill:#002B59;" width="1.305" height="26.737"/>
					
						<rect x="121.366" y="388.985" transform="matrix(0.0158 -0.9999 0.9999 0.0158 -237.0997 538.402)" style="fill:#002B59;" width="67.138" height="1.304"/>
					<polygon style="fill:#002B59;" points="180.949,425.312 179.643,425.269 182.024,355.589 183.331,355.632      "/>
					<path style="fill:#002B59;" d="M162.921,415.527c3.041,4.967,10.819-3.156,5.294-6.128c-3.821-2.056-11.178,2.129-10.594,6.539       c0.675,5.096,8.583,7.676,12.856,6.348c2.614-0.816,3.953-2.586,4.239-5.317c0.265-2.542-1.333-5.301-2.059-7.663       c-0.284-0.92-0.957-5.143,0.739-4.493c0.38,0.142,1.875-0.456,1.36-0.654c-2.437-0.929-3.996,0.397-4.094,2.878       c-0.169,4.274,6.567,15.464-2.633,14.876c-3.665-0.233-8.295-2.986-8.815-6.887c-0.44-3.318,4.352-5.691,7.03-5.194       c1.298,0.243,1.99,1.427,2.133,2.622c0.164,1.425-1.581,6.257-3.799,2.637C164.315,414.664,162.772,415.287,162.921,415.527       L162.921,415.527z"/>
					<path style="fill:#002B59;" d="M163.008,396.632c3.041,4.969,10.817-3.158,5.294-6.128c-3.823-2.058-11.18,2.126-10.596,6.538       c0.677,5.096,8.583,7.677,12.856,6.347c2.612-0.816,3.957-2.586,4.237-5.32c0.267-2.539-1.331-5.298-2.056-7.661       c-0.284-0.92-0.961-5.142,0.737-4.492c0.38,0.145,1.875-0.457,1.36-0.653c-2.437-0.929-3.996,0.398-4.094,2.877       c-0.171,4.274,6.569,15.464-2.633,14.879c-3.667-0.234-8.297-2.987-8.814-6.89c-0.438-3.318,4.352-5.689,7.03-5.193       c1.298,0.242,1.991,1.428,2.131,2.621c0.164,1.425-1.582,6.257-3.797,2.638C164.401,395.768,162.857,396.387,163.008,396.632       L163.008,396.632z"/>
					<path style="fill:#002B59;" d="M163.098,376.649c3.041,4.969,10.819-3.156,5.294-6.127c-3.821-2.056-11.178,2.127-10.594,6.539       c0.675,5.095,8.583,7.679,12.854,6.345c2.614-0.813,3.957-2.585,4.239-5.316c0.263-2.542-1.331-5.301-2.057-7.661       c-0.284-0.922-0.961-5.145,0.737-4.496c0.38,0.144,1.877-0.455,1.36-0.653c-2.437-0.929-3.996,0.401-4.092,2.878       c-0.173,4.274,6.567,15.465-2.637,14.879c-3.663-0.236-8.293-2.986-8.812-6.892c-0.438-3.314,4.352-5.687,7.03-5.191       c1.299,0.242,1.994,1.425,2.131,2.621c0.165,1.425-1.582,6.258-3.797,2.638C164.491,375.786,162.947,376.409,163.098,376.649       L163.098,376.649z"/>
				</g>
				<g>
					<path style="fill:#9B5C50;" d="M245.292,385.125c-3.774,17.603-36.629,19.411-39.527-12.353l-15.652-2.094l1.362-14.741h0.011       c9.967-2.148,25.906-5.519,25.906-5.519s-6.261-9.817-1.256-10.879c5.016-1.074,25.593,16.64,25.593,16.64l-3.697,3.898       C238.031,360.076,249.078,367.526,245.292,385.125z"/>
					<path style="fill:#002B59;" d="M231.5,357.877l6.503,9.815c0,0,14.462-28.426,33.21-37.91       c18.75-9.487,42.19-46.084,42.19-46.084l-1.508-3.978c0,0-18.633,32.977-36.508,41.053       C257.516,328.848,241.358,342.261,231.5,357.877z"/>
					<path style="fill:#002B59;" d="M226.008,356.055c6.176,2.631,9.159,7.648,11.632,13.593c0.395,0.948,3.184,0.082,2.842-0.747       c-2.582-6.197-5.77-11.428-12.198-14.164C227.479,354.395,224.874,355.574,226.008,356.055L226.008,356.055z"/>
					<path style="fill:#002B59;" d="M212.08,383.167c10.076,5.084,17.983-7.082,22.417-14.259c0.638-1.033-2.183-0.669-2.616,0.028       c-3.426,5.551-9.646,16.936-17.512,12.965C213.638,381.533,211.012,382.627,212.08,383.167L212.08,383.167z"/>
					<path style="fill:#002B59;" d="M216.116,384.561c-1.499,2.66,2.142,6.421,3.891,8.074c2.691,2.542,6.315,3.591,9.93,3.799       c1.253,0.071,2.966-1.757,1.042-1.865c-2.996-0.173-5.612-0.997-8.013-2.825c-1.318-1.002-5.243-5.05-4.167-6.955       C219.537,383.477,216.662,383.595,216.116,384.561L216.116,384.561z"/>
					<path style="fill:#002B59;" d="M223.052,381.052c-0.263,3.728,4.151,6.934,7.007,8.562c4.198,2.399,9.298,2.293,13.738,0.734       c1.685-0.593,1.207-2.582-0.519-1.976c-3.505,1.232-6.782,1.272-10.268-0.05c-2.467-0.936-7.301-4.34-7.084-7.468       C226.031,379.365,223.142,379.75,223.052,381.052L223.052,381.052z"/>
					<path style="fill:#002B59;" d="M228.156,376.607c4.459,3.939,11.137,3.973,16.405,1.756c1.785-0.75,0.22-2.455-1.286-1.819       c-4.235,1.785-9.422,1.474-12.944-1.639C229.311,374.001,226.885,375.481,228.156,376.607L228.156,376.607z"/>
				</g>
			</g>
		</g>
		<g>
			<path style="fill:#9B5C50;" d="M304.908,237.927c-11.667,29.035-49.62,43.557-66.544,48.729c-0.133,3.586-2.761,7.53-8.107,9.438     c-12.64,4.509-17.373-5.079-17.373-5.079c-25.582,6.45-40.62,15.764-48.268,21.799c-2.516-0.521-5.021-1.119-7.509-1.823     c-3.519-1.006-7.571-2.096-10.879-4.172l16.405-63.013c0,0-44.208,12.42-50.446-4.366c-6.228-16.772,22.088-24.695,37.25-12.438     c0,0,27.606-43.815,16.638-71.924l72.129-28.606C249.764,167.633,320.154,200.004,304.908,237.927z"/>
			<g>
				<path style="fill:#E24747;" d="M228.404,235.994c1.475,6.485-5.153,13.526-14.804,15.725c-9.655,2.197-18.678-1.28-20.153-7.768      c-1.476-6.486,5.153-13.526,14.804-15.723C217.905,226.031,226.928,229.508,228.404,235.994z"/>
				<path style="fill:#002B59;" d="M165.042,313.322l-0.809-1.026c8.226-6.496,23.32-15.573,48.486-21.912l0.508-0.127l0.237,0.469      c0.184,0.371,4.662,9.007,16.572,4.758c6.389-2.28,8.566-7.44,7.372-11.139c-0.968-3.001-4.604-5.782-11.684-3.737l-0.635,0.184      l-0.173-0.638c-0.055-0.191-5.042-19.277,10.285-40.962l1.065,0.754c-13.414,18.978-10.934,35.793-10.236,39.226      c7.534-1.936,11.506,1.312,12.623,4.771c1.38,4.281-1.015,10.21-8.175,12.766c-11.372,4.064-16.711-3.014-17.913-4.939      C187.903,298.047,173.118,306.943,165.042,313.322z"/>
				<path style="fill:#002B59;" d="M216.945,244.909c-3.27-0.014-6.245-0.65-8.698-2.14c-5.395-3.279-7.537-10.283-6.362-20.821      l1.298,0.144c-1.115,9.987,0.816,16.568,5.741,19.564c13.257,8.05,44.341-11.274,49.319-14.478l-12.205-11.957l0.916-0.931      l13.356,13.084l-0.668,0.449C258.408,228.649,233.773,244.984,216.945,244.909z"/>
				<path style="fill:#002B59;" d="M222.337,223.127c-1.264-0.004-2.238-0.238-2.832-0.754c-1.959-1.711-1.974-4.434-0.036-6.776      c2.492-3.012,8.497-5.283,14.06-0.912l-0.809,1.027c-4.865-3.827-10.09-1.887-12.245,0.715      c-1.177,1.422-1.822,3.472-0.109,4.964c3.21,2.799,25.245-6.502,38.515-13.087c0.696-1.361,4.914-10.019,1.988-13.9      c-0.256-0.337-0.461-0.379-0.592-0.385c-0.006,0-0.013,0-0.019,0c-1.025-0.005-2.889,2.164-4.688,4.261      c-4.156,4.836-9.845,11.459-17.091,8.412c-11.767-4.96-10.091-41.33-10.012-42.875l1.301,0.066      c-0.017,0.369-1.715,36.999,9.221,41.605c6.358,2.683,11.698-3.524,15.589-8.057c2.379-2.768,4.073-4.755,5.741-4.716      c0.619,0.019,1.153,0.324,1.589,0.907c3.671,4.858-1.738,15.05-1.969,15.48l-0.098,0.184l-0.188,0.092      C256.497,210.946,231.624,223.17,222.337,223.127z"/>
				<path style="fill:#002B59;" d="M191.74,230.794l-1.108-0.684c7.419-12.022,18.69-8.295,18.801-8.26l-0.423,1.235      C208.588,222.939,198.596,219.687,191.74,230.794z"/>
			</g>
			<g>
				
					<rect x="169.984" y="202.113" transform="matrix(0.9986 -0.052 0.052 0.9986 -10.3001 9.5298)" style="fill:#002B59;" width="16.118" height="1.305"/>
				
					<rect x="177.897" y="191.523" transform="matrix(0.1117 -0.9937 0.9937 0.1117 -39.2692 354.3235)" style="fill:#002B59;" width="1.304" height="15.206"/>
				<path style="fill:#FFFFFF;" d="M222.828,207.538c0,0-35.717,10.279-40.45-1.488      C177.644,194.283,211.373,191.391,222.828,207.538z"/>
				<path style="fill:#002B59;" d="M171.077,209.03l-0.26-1.277l10.701-2.194c-0.859-2.974,0.487-5.594,3.853-7.429      c8.991-4.905,29.586-2.812,37.987,9.032l-1.062,0.755c-8.034-11.323-27.709-13.33-36.3-8.643      c-2.108,1.152-4.346,3.22-3.013,6.533l0.292,0.726L171.077,209.03z"/>
				<path style="fill:#002B59;" d="M195.65,205.243c-0.009,2.4-2.163,4.341-4.805,4.328c-2.642-0.013-4.775-1.97-4.765-4.372      c0.011-2.402,2.163-4.34,4.805-4.327C193.526,200.883,195.661,202.84,195.65,205.243z"/>
			</g>
			<g>
				<polygon style="fill:#002B59;" points="263.075,179.8 262.16,178.871 272.243,168.908 273.159,169.838     "/>
				
					<rect x="256.047" y="171.452" transform="matrix(0.543 -0.8397 0.8397 0.543 -24.0581 300.0034)" style="fill:#002B59;" width="15.105" height="1.306"/>
				<path style="fill:#FFFFFF;" d="M238.751,202.391c0,0,27.008-13.147,26.396-21.849      C264.533,171.838,239.534,178.25,238.751,202.391z"/>
				<path style="fill:#002B59;" d="M239.404,202.413l-1.305-0.044c0.591-18.222,14.372-26.038,21.618-26.174      c3.065-0.079,5.243,1.169,5.89,3.268l9.326-6.057l0.713,1.096l-11.071,7.192l-0.079-1.106c-0.203-2.866-3.381-3.106-4.752-3.089      C252.927,177.629,239.966,185.068,239.404,202.413z"/>
				<path style="fill:#002B59;" d="M248.301,193.289c-0.011,1.917-1.725,3.46-3.835,3.452c-2.104-0.01-3.806-1.57-3.797-3.486      c0.009-1.917,1.723-3.46,3.829-3.451C246.607,189.813,248.307,191.375,248.301,193.289z"/>
			</g>
			<path style="fill:#002B59;" d="M178.829,194.401l-3.396-1.948c0.337-0.589,8.399-14.416,21.706-17.309     c6.924-1.503,13.939,0.237,20.83,5.181l-2.279,3.18c-5.956-4.272-11.914-5.792-17.717-4.535     C186.344,181.497,178.903,194.272,178.829,194.401z"/>
			<path style="fill:#002B59;" d="M269.101,164.586c-6.998-6.624-13.892-9.673-20.48-9.045c-9.083,0.856-14.701,8.514-14.755,8.593     l-3.184-2.277c0.267-0.376,6.653-9.159,17.522-10.207c7.784-0.765,15.72,2.642,23.589,10.095L269.101,164.586z"/>
			<path style="fill:#002B59;" d="M115.437,242.432c0,0,0.075-7.049,10.031-9.549c9.956-2.498,18.436-0.703,18.595,3.554     c0.162,4.252-16.775,10.132-14.417,2.219l-5.324,1.436l6.998-2.736c0,0-3.314,5.491,4.342,4.116     c7.656-1.374,9.32-6.707,4.013-8.215C134.368,231.747,120.733,231.728,115.437,242.432z"/>
			<g>
				<path style="fill:#FFC33E;" d="M132.086,271.809c0,0,4.863,1.231,7.19-4.898c2.328-6.13-8.045-9.451-8.045-9.451      S142.943,266.289,132.086,271.809z"/>
				<path style="fill:#FFC33E;" d="M137.45,256.743l-1.303-0.007l0.006-1.305l1.305,0.007L137.45,256.743z M137.463,254.133      l-1.307-0.008l0.006-1.305l1.305,0.008L137.463,254.133z M137.472,251.524l-1.303-0.008l0.006-1.305l1.305,0.008      L137.472,251.524z M137.486,248.914l-1.305-0.008l0.006-1.304l1.305,0.008L137.486,248.914z M137.499,246.303l-1.305-0.008      l0.006-1.305l1.305,0.008L137.499,246.303z"/>
			</g>
			<path style="fill:#002B59;" d="M138.021,296.444c0.88,8.615,6.894,12.224,14.577,14.704c10.437,3.366,21.386,4.697,32.277,5.532     c1.631,0.128,3.97-2.221,1.407-2.417c-9.484-0.731-18.842-1.921-28.042-4.409c-8.057-2.172-15.483-5.135-16.435-14.405     C141.653,293.963,137.854,294.828,138.021,296.444L138.021,296.444z"/>
		</g>
		<g>
			<path style="fill:#008975;" d="M350.06,115.026C118.401,137.466,0,277.222,0,277.222s0.042-58.294,97.235-96.576l-5.657-47.66     c0,0-33.07,40.097-36.523,38.777c-3.452-1.322,37.457-100.971,37.457-100.971s67.04-0.139,143.371,51.715     C295.661,81.252,350.06,115.026,350.06,115.026z"/>
			<polygon style="fill:#FFC33E;" points="94.032,166.501 213.498,106.137 239.107,124.09 96.129,183.474    "/>
			
				<rect x="88.572" y="143.828" transform="matrix(0.9082 -0.4185 0.4185 0.9082 -46.2307 80.7595)" style="fill:#008975;" width="144.889" height="3.915"/>
		</g>
	</g>
	<g>
		<g>
			<polygon style="fill:#9B5C50;" points="321.907,245.724 471.828,287.797 511.483,185.284 333.679,156.695    "/>
			<path style="fill:#C6AA97;" d="M326.599,243.435l143.719,39.431l35.651-96c0,0-12.846-54.516-91.432-16.572     c0,0-29.048-44.562-79.182-15.123L326.599,243.435z"/>
			<path style="fill:#002B59;" d="M499.646,173.861c0.353-0.071,0.1,0.11-0.058,0.493c-0.246,0.597-0.481,1.199-0.719,1.797     c-0.816,2.071-1.617,4.142-2.418,6.216c-2.62,6.791-5.219,13.591-7.814,20.392c-6.28,16.45-12.533,32.912-18.778,49.374     c-2.326,6.135-4.656,12.269-6.979,18.406c-0.168,0.439-0.98,0.084-1.172-0.152c-4.973-6.134-12.04-10.98-19.032-14.465     c-17.114-8.529-36.352-7.097-53.398,0.86c-0.331,0.153-0.829-0.008-1.046-0.284c-4.593-5.885-10.541-10.984-16.709-15.119     c-12.92-8.66-28.401-11.551-42.696-4.37c-0.361,0.181-1.469-0.34-0.961-0.596c13.868-6.969,28.864-4.734,41.874,2.994     c7.348,4.366,14.344,10.299,19.624,17.065c-0.35-0.097-0.7-0.192-1.048-0.287c17.249-8.05,36.399-9.374,53.85-1.25     c7.626,3.549,15.322,8.828,20.674,15.425c-0.389-0.05-0.78-0.101-1.17-0.152c9.824-25.933,19.658-51.868,29.577-77.77     c1.794-4.687,3.59-9.371,5.407-14.047c0.284-0.727,1.331-5.012,2.259-5.199C499.304,173.111,500.338,173.721,499.646,173.861     L499.646,173.861z"/>
			
				<rect x="434.944" y="221.789" transform="matrix(0.3628 -0.9319 0.9319 0.3628 101.3449 592.201)" style="fill:#002B59;" width="97.478" height="0.419"/>
			<polygon style="fill:#002B59;" points="468.776,271.917 499.381,193.918 498.992,193.768 468.388,271.762    "/>
			<polygon style="fill:#002B59;" points="469.867,276.796 504.442,187.628 504.052,187.478 469.477,276.645    "/>
			<path style="fill:#002B59;" d="M461.686,277.411c-3.011-4.057-6.255-7.856-10.223-11.006c-4.622-3.67-10.157-6.002-15.679-7.947     c-12.6-4.441-25.415-3.616-36.969,3.198c-0.449,0.263-1.851-0.4-1.506-0.604c11.652-6.868,24.22-7.719,37.029-3.804     c5.775,1.768,11.462,4.217,16.482,7.594c4.935,3.318,8.837,7.876,12.35,12.609C463.559,277.972,461.957,277.775,461.686,277.411     L461.686,277.411z"/>
			<path style="fill:#002B59;" d="M453.274,276.165c-1.488-9.063-10.075-13.36-18.169-15.458     c-8.122-2.108-17.095-2.537-25.392-1.299c-0.48,0.071-1.896-0.703-0.997-0.839c8.952-1.337,18.445-0.724,27.192,1.544     c8.363,2.168,17.439,6.959,18.972,16.28C454.978,276.979,453.356,276.683,453.274,276.165L453.274,276.165z"/>
			<path style="fill:#002B59;" d="M449.199,275.375c-7.485-14.331-28.456-14.734-42.312-12.178c-0.386,0.07-1.785-0.556-1.32-0.64     c14.612-2.697,37.302-2.06,45.223,13.104C450.919,275.904,449.415,275.786,449.199,275.375L449.199,275.375z"/>
			<path style="fill:#002B59;" d="M382.984,257.241c-9.834-17.677-33.452-23.456-51.939-17.984     c-0.361,0.105-1.781-0.482-1.328-0.619c19.216-5.684,44.62,0.5,54.858,18.901C384.678,257.728,383.208,257.639,382.984,257.241     L382.984,257.241z"/>
			<path style="fill:#002B59;" d="M374.799,255.069c-1.805-7.381-9.915-11.102-16.561-12.979c-6.633-1.876-15.09-2.752-21.473,0.43     c-0.713,0.355-1.845-0.683-0.912-1.147c6.988-3.485,16.106-2.334,23.331-0.293c7.139,2.018,15.35,6.31,17.255,14.101     C376.642,256.005,374.984,255.827,374.799,255.069L374.799,255.069z"/>
			<path style="fill:#002B59;" d="M369.994,253.132c-1.717-5.192-8.032-6.937-12.816-7.889c-4.568-0.91-9.42-1.251-14.065-0.808     c-0.47,0.045-1.89-0.752-0.997-0.837c5.627-0.539,11.44-0.005,16.937,1.261c4.82,1.11,10.847,3.352,12.551,8.499     C371.771,253.868,370.163,253.644,369.994,253.132L369.994,253.132z"/>
			<path style="fill:#002B59;" d="M365.02,252.921c-4.344-6.849-16.141-7.608-23.248-5.79c-0.649,0.166-1.909-0.795-0.94-1.041     c8.028-2.056,20.839-1.016,25.721,6.688C367.017,253.511,365.372,253.476,365.02,252.921L365.02,252.921z"/>
			<polygon style="fill:#002B59;" points="472.167,288.472 472.349,287.998 512,185.484 510.962,185.082 471.493,287.124      322.059,245.187 321.756,246.26    "/>
			<path style="fill:#002B59;" d="M350.257,152.084c-7.184,0.167-12.952,14.471-4.28,16.353c1.38,0.3,3.005-0.703,3.94-1.595     c2.695-2.578,4.006,3.806,4.895,5.164c3.218,4.905,9.642,1.633,13.83,0.567c2.356-0.6,1.64-3.304-0.711-2.704     c-1.691,0.431-3.323,1.013-4.986,1.542c-4.316,1.38-5.418-1.906-6.202-4.656c-0.515-1.807-1.206-3.779-3.348-4.08     c-2.272-0.317-4.344,0.746-5.933,2.264c-2.225,2.124-1.595-4.584-1.46-5.033c0.532-1.8,1.734-4.899,3.932-4.95     C352.126,154.904,352.828,152.024,350.257,152.084L350.257,152.084z"/>
			<path style="fill:#002B59;" d="M377.163,173.69c3.556,3.681,10.686,3.184,15.348,3.965c0.976,0.165,4.421-1.424,2.4-1.762     c-4.307-0.726-10.945-0.19-14.201-3.563C379.931,171.52,376.379,172.877,377.163,173.69L377.163,173.69z"/>
			<path style="fill:#002B59;" d="M343.481,175.475c-5.964,2.379-4.922,15.411,1.736,16.02c2.718,0.25,5.821-1.305,7.446-3.414     c1.523-1.98,3.054-7.395-0.882-7.019c-9.326,0.891-6.355,15.141,2.768,12.738c2.024-0.531,3.587-1.431,5.253-2.67     c4.66-3.464,5.926,1.345,9.089,3.764c2.319,1.775,7.466,0.851,9.963,0.745c4.572-0.199,9.132,2.229,13.742,2.527     c0.75,0.047,4.32-1.334,2.481-1.453c-4.735-0.302-9.01-2.323-13.742-2.528c-3.432-0.148-4.6,1.087-8.867-0.53     c-1.668-0.636-2.507-2.772-3.669-4.008c-2.904-3.094-6.992-2.512-10.193,0.022c-4.459,3.531-8.38,2.261-8.98-3.415     c-0.284-2.689,1.412-4.252,0.485-0.289c-0.228,0.968-1.38,4.465-3.016,3.899c-3.78-1.306-5.544-12.349-1.46-13.978     C347.938,174.969,344.326,175.14,343.481,175.475L343.481,175.475z"/>
			<path style="fill:#002B59;" d="M338.517,197.775c-2.84,1.758-4.536,5.269-2.518,8.326c2.029,3.081,6.676-0.662,8.01-2.359     c-1.213,0.164-2.428,0.323-3.645,0.486c0.989,2.607,1.16,5.134,3.765,6.604c3.729,2.104,8.862-0.555,12.801,0.251     c1.121,0.231,4.459-1.513,2.353-1.946c-2.684-0.549-5.209-0.233-7.899,0.165c-5.45,0.808-5.726-2.092-7.233-6.072     c-0.474-1.25-3.099-0.207-3.645,0.487c-1.362,1.729-1.32,0.85-1.574-0.843c-0.233-1.55,0.585-3.278,1.896-4.087     C343,197.441,339.665,197.064,338.517,197.775L338.517,197.775z"/>
			<path style="fill:#002B59;" d="M373.176,198.793c-4.134,0.119-13.65,6.745-8.835,11.241c3.532,3.298,11.842,0.29,12.867-4.178     c0.207-0.904-1.115-0.984-1.668-0.964c-2.983,0.12-5.08,1.976-3.509,4.925c2.236,4.205,7.381,2.524,11.024,3.909     c1.322,0.501,4.434-1.395,2.281-2.213c-1.901-0.724-3.754-0.73-5.766-0.806c-1.568-0.059-2.565-0.546-3.507-1.599     c0.041,0.05-1.012-1.892-0.989-1.894c-0.555-0.322-1.112-0.643-1.668-0.965c-0.605,2.651-5.326,3.915-6.434,0.999     c-0.97-2.542,3.682-6.073,5.738-6.134C374.688,201.058,375.775,198.715,373.176,198.793L373.176,198.793z"/>
			<path style="fill:#002B59;" d="M339.487,224.526c-0.677-4.102-1.027-8.252-1.249-12.404c-0.07-1.262-3.453-0.061-3.778,0.754     c-1.337,3.349-1.096,10.886,2.236,13.075c0.931,0.609,2.864,0.206,3.513-0.709c0.794-1.124,1.303-2.414,2.191-3.47     c-1.172,0.235-2.342,0.471-3.513,0.708c1.174,1.382,1.602,2.788,3.272,3.648c1.493,0.766,3.18-0.622,4.568,0.239     c0.952,0.588,4.476-0.828,3.043-1.717c-1.174-0.727-2.36-0.766-3.697-0.495c-2.001,0.408-2.588-1.829-3.652-3.084     c-0.745-0.875-2.945,0.029-3.515,0.708c-0.89,1.058-1.397,2.344-2.193,3.471c1.174-0.237,2.343-0.473,3.515-0.708     c-3.062-2.012-3.212-9.131-1.999-12.177c-1.258,0.255-2.518,0.504-3.778,0.757c0.224,4.151,0.574,8.299,1.251,12.405     C335.891,226.678,339.696,225.803,339.487,224.526L339.487,224.526z"/>
			<path style="fill:#002B59;" d="M355.801,224.308c-0.658-0.403-0.827-1-0.511-1.792c0.079-1.144,0.585-2.239,1.036-3.274     c0.34-0.788,2.481-4.683,3.304-2.482c0.852,2.284,0.128,6.171-1.439,7.993c1.057,0.394,2.116,0.786,3.172,1.178     c1.034-1.574,3.299-3.81,3.398-0.731c0.03,0.929,0.468,1.713,1.316,2.123c2.469,1.191,5.614,0.9,8.26,1.448     c1.898,0.391,3.821-2.284,1.309-2.802c-2.005-0.412-4.058-0.543-6.08-0.847c-1.567-0.234-0.777-2.747-1.973-3.945     c-3.071-3.081-7.733,1.034-9.403,3.576c-1.36,2.068,2.05,2.483,3.172,1.178c3.077-3.579,3.639-16.532-4.045-12.368     c-3.551,1.924-5.651,6.094-5.926,10.053c-0.339,4.889,5.166,4.413,7.579,1.87C360.621,223.747,356.997,223.047,355.801,224.308     L355.801,224.308z"/>
			<path style="fill:#002B59;" d="M380.823,219.271c-2.668,1.184-2.992,4.373-3.317,6.964c-0.355,2.861-0.833,7.043,0.561,9.703     c0.455,0.862,1.918,0.527,2.625,0.234c2.49-1.032,3.558-2.773,5.174-4.824c-1.174,0.231-2.345,0.464-3.519,0.695     c1.245,2.05,0.51,5.734,2.593,7.231c2.296,1.645,5.219-1.092,6.558-2.682c1.038-1.238-2.755-0.939-3.509-0.044     c-1.275,0.9-1.202,1.266,0.22,1.102c-0.22-0.231-0.372-0.495-0.464-0.799c-0.275-0.647-0.395-1.378-0.542-2.06     c-0.314-1.46-0.545-2.892-1.33-4.184c-0.604-1-3.02,0.066-3.515,0.693c-0.899,1.144-1.713,2.818-3.127,3.407     c0.874,0.079,1.749,0.157,2.625,0.234c-1.062-2.018-0.846-4.847-0.75-7.035c0.062-1.403,0.237-2.797,0.481-4.179     c0.103-0.593,0.26-1.172,0.421-1.753c0.128-0.453,0.954-1.539,0.275-1.237C384.697,219.663,382.478,218.532,380.823,219.271     L380.823,219.271z"/>
			<path style="fill:#002B59;" d="M421.258,179.436c2.29-0.762,4.585-1.523,6.877-2.286c0.579,0.668,1.14,1.349,1.685,2.045     c0.562,0.702,1.407,1.568,2.328,1.776c1.572,0.357,2.834,0.283,4.278-0.563c0.937-0.548,1.704-1.395,2.466-2.145     c3.013-2.966,6.65-3.807,10.678-4.147c8.015-0.682,15.957,0.678,23.893,1.623c1.134,0.135,4.45-1.729,2.342-1.981     c-13.401-1.595-30.308-5.535-41.001,4.995c-0.5,0.494-3.795-3.788-4.374-4.121c-1.755-1.021-3.41-1.34-5.413-0.918     c-3.554,0.749-7.944,2.451-7.549,6.719C417.582,181.623,421.386,180.824,421.258,179.436L421.258,179.436z"/>
			<path style="fill:#002B59;" d="M419.065,189.907c-2.781,2.463-3.189,8.134,1.489,8.554c4.877,0.437,9.242-4.663,11.21-8.53     c0.953-1.874-2.58-1.429-3.346-0.633c-4.891,5.086-1.683,13.291,5.975,11.323c3.994-1.026,11.598-7.907,14.9-3.689     c4.149,5.299,8.82,1.002,13.96,3.586c1.328,0.666,4.726-1.152,2.958-2.041c-2.891-1.451-5.172-1.276-8.389-0.866     c-5.089,0.644-4.792-4.479-8.762-5.1c-2.541-0.397-4.562,0.162-6.866,1.247c-1.476,0.692-2.84,1.7-4.201,2.59     c-4.952,3.239-11.282-1.091-6.462-6.104c-1.115-0.21-2.23-0.421-3.344-0.632c-0.726,1.422-1.651,2.632-2.7,3.827     c-2.49,2.843-6.829,0.527-3.31-2.585C423.9,189.328,420.184,188.917,419.065,189.907L419.065,189.907z"/>
			<path style="fill:#002B59;" d="M471.207,190.236c-0.882,0.626-2.373,1.563-2.475,2.784c-0.092,1.126,1.121,1.557,1.992,1.829     c1.183,0.372,2.464,0.463,3.684,0.636c0.878,0.126,2.287,0.287,2.725,0.687c1.016,0.928,4.576-0.515,3.513-1.482     c-1.42-1.299-3.887-1.286-5.681-1.55c-0.854-0.124-1.73-0.219-2.392-0.605c-0.026-0.016-0.032-0.143-0.049-0.111     c0.205-0.421,0.671-0.73,1.04-0.995c0.491-0.348,1.164-1.1,0.324-1.523C473.122,189.517,471.883,189.751,471.207,190.236     L471.207,190.236z"/>
			<path style="fill:#002B59;" d="M415.396,203.956c-5.284,0.761-12.469,8.784-6.859,13.4c4.544,3.741,11.088-4.66,11.707-8.309     c0.277-1.605-3.148-0.286-3.637,0.235c-2.603,2.773-2.55,9.273,2.33,9.707c5.537,0.493,7.302-3.74,11.351-6.554     c-1.132,0.078-2.264,0.154-3.395,0.233c1.76,4.931,4.32,2.39,7.936,5.035c1.036,0.757,4.478-0.733,3.528-1.425     c-2.759-2.018-6.407-1.051-7.679-4.608c-0.429-1.202-2.77-0.202-3.395,0.232c-1.858,1.29-3.201,3.089-4.845,4.625     c-1.931,1.806-3.517-1.571-3.799-2.884c-0.346-1.612,0.416-3.218,1.469-4.339c-1.211,0.079-2.426,0.158-3.637,0.237     c-0.231,1.355-2.847,7.67-5.119,5.802c-2.693-2.215,0.528-9.015,3.483-9.439C416.59,205.653,418.027,203.575,415.396,203.956     L415.396,203.956z"/>
			<path style="fill:#002B59;" d="M446.823,201.137c-4.568,1.535-9.298,9.366-6.046,13.915c3.065,4.282,8.899-1.993,10.862-4.317     c-1.215,0.168-2.426,0.337-3.641,0.507c0.918,2.464-0.278,6.352,2.511,7.758c3.398,1.715,6.383-2.361,8.777-3.832     c2.17-1.339-1.183-1.629-2.292-0.947c-1.091,0.673-3.63,3.797-4.342,1.804c-0.662-1.847-0.179-3.931-0.865-5.782     c-0.457-1.223-3.103-0.132-3.639,0.506c-0.724,0.855-1.452,1.703-2.255,2.489c-1.634,1.602-1.834-0.053-2.161-1.726     c-0.56-2.884,1.661-8.062,4.523-9.022C450.782,201.641,448.452,200.591,446.823,201.137L446.823,201.137z"/>
			<path style="fill:#002B59;" d="M466.703,215.853c-1.689-0.155-2.339-2.285-2.249-3.677c0.128-1.944,1.61-2.038,2.409-0.527     c1.025,1.94,1.106,4.494,1.113,6.642c1.264-0.334,2.526-0.666,3.788-0.998c-0.15-0.924-0.062-1.801,0.117-2.718     c0.126-0.642,0.378-1.246,0.698-1.814c0.592-1.058,0.203-0.232,0.587,0.223c1.363,1.613,0.748,4.976,0.246,6.805     c1.26-0.243,2.522-0.488,3.784-0.731c0.006-0.954,0.043-1.904,0.124-2.855c0.051-0.584,0.16-1.15,0.282-1.723     c0.228-1.082,0.897-0.983-0.404-1.038c1.409,0.064,4.049-1.988,1.493-2.102c-5.046-0.229-5.262,4.931-5.283,8.713     c-0.008,1.25,3.505,0.273,3.784-0.732c0.73-2.655,1.268-9.197-3.067-9.09c-4.376,0.108-6.827,3.846-6.148,8.058     c0.215,1.321,3.793,0.331,3.788-0.998c-0.017-4.384-0.972-10.263-6.676-8.794c-2.264,0.581-4.602,2.372-4.449,4.93     c0.16,2.711,1.965,4.285,4.576,4.525C466.636,218.087,469.253,216.087,466.703,215.853L466.703,215.853z"/>
			<path style="fill:#002B59;" d="M406.948,225.339c-4.897,0.513-6.872,5.875-3.539,9.541c3.799,4.179,9.07-3.297,10.028-6.199     c0.555-1.672-2.885-1.059-3.474-0.347c-4.656,5.617,3.504,8.121,7.837,5.349c4.032-2.581,6.232-2.575,9.595,0.96     c1.422,1.5,3.284,2.855,5.23,3.547c5.236,1.866,10.592,1.708,16.078,1.694c2.101-0.009,2.966-2.616,0.389-2.607     c-5.377,0.016-10.631,0.293-15.585-2.197c-2.968-1.489-4.523-4.65-7.485-6.173c-1.484-0.764-3.485-0.557-5.031-0.15     c-0.686,0.181-1.363,0.527-1.958,0.912c-0.389,0.246-0.775,0.493-1.16,0.74c-1.493,1.567-3.086,1.211-4.781-1.062     c-1.158-0.117-2.317-0.235-3.474-0.351c-2.738,8.269-5.234-0.821-3.06-1.049C408.605,227.731,409.538,225.068,406.948,225.339     L406.948,225.339z"/>
			<path style="fill:#002B59;" d="M451.794,237.575c1.183,4.246,5.922,0.018,7.316-1.708c2.432-3.008,3.667-8.549,1.593-11.976     c-0.547-0.908-2.321-0.556-2.977-0.016c-3.421,2.818-3.353,9.057-1.807,12.863c2.272,5.593,10.016,2.992,13.817,1.048     c-0.905-0.193-1.809-0.385-2.714-0.574c0.581,1.207,0.848,2.384,1.072,3.699c0.288,1.696,4.083,0.755,3.788-0.995     c-0.226-1.316-0.491-2.495-1.072-3.702c-0.48-0.996-1.813-1.035-2.716-0.575c-2.896,1.484-7.415,3.353-8.771-0.973     c-0.686-2.19-1.175-7.441,0.882-9.136c-0.991-0.005-1.986-0.008-2.979-0.013c1.072,1.768,0.653,3.96,0.211,5.855     c-0.269,1.144-0.775,2.208-1.341,3.225c-0.291,0.395-0.587,0.787-0.886,1.177c-0.764,0.508-0.64,0.778,0.372,0.805     C455.109,234.886,451.326,235.891,451.794,237.575L451.794,237.575z"/>
			<path style="fill:#002B59;" d="M438.567,248.516c4.188,1.421,8.222-2.063,12.405-1.469c2.518,0.359,4.749,2.364,6.977,3.46     c1.977,0.972,4.171,0.935,6.306,0.768c1.9-0.15,3.116-2.402,0.498-2.194c-4.775,0.374-7.867-3.639-12.406-4.286     c-3.733-0.53-8.01,2.778-11.474,1.6C439.62,245.97,436.425,247.785,438.567,248.516L438.567,248.516z"/>
			<g>
				<path style="fill:#008975;" d="M412.086,169.074c-4.925,12.912-9.315,26.054-13.388,39.258      c-6.133,19.87-13.095,41.542-12.523,62.575c0.026,1.061,3.821,0.361,3.786-0.998c-0.568-20.856,6.477-42.368,12.508-62.087      c4.04-13.212,8.463-26.345,13.388-39.26C416.284,167.451,412.534,167.901,412.086,169.074L412.086,169.074z"/>
				<path style="fill:#008975;" d="M393.5,271.291c-0.008,1.616-2.885,2.913-6.43,2.899c-3.545-0.018-6.409-1.34-6.404-2.955      c0.008-1.615,2.885-2.913,6.43-2.897C390.642,268.354,393.508,269.676,393.5,271.291z"/>
				
					<rect x="374.174" y="279.934" transform="matrix(0.3464 -0.9381 0.9381 0.3464 -13.9299 541.1782)" style="fill:#008975;" width="14.477" height="1.305"/>
				<polygon style="fill:#008975;" points="381.998,290.163 380.74,289.808 385.186,273.95 386.442,274.3     "/>
				
					<rect x="376.616" y="281.935" transform="matrix(0.1122 -0.9937 0.9937 0.1122 62.6562 635.3052)" style="fill:#008975;" width="20.509" height="1.305"/>
				
					<rect x="390.026" y="273.154" transform="matrix(0.9928 -0.1195 0.1195 0.9928 -30.9409 48.7064)" style="fill:#008975;" width="1.303" height="18.412"/>
				
					<rect x="392.077" y="272.131" transform="matrix(0.9624 -0.2718 0.2718 0.9624 -61.1815 117.2503)" style="fill:#008975;" width="1.305" height="14.766"/>
			</g>
			<polygon style="fill:#002B59;" points="475.384,247.482 501.521,184.834 501.136,184.672 475.001,247.324    "/>
		</g>
		<g>
			<path style="fill:#002B59;" d="M315.392,234.475c-3.219,9.494-0.421,21.019,8.574,26.229c0.632,0.364,2.345-0.507,1.486-1.007     c-8.739-5.057-11.259-16.244-8.156-25.398C317.561,233.526,315.637,233.752,315.392,234.475L315.392,234.475z"/>
			<path style="fill:#002B59;" d="M308.24,247.104c-7.378,9.522,7.199,20.858,15.831,22.35c0.493,0.086,2.213-0.711,1.198-0.887     c-8.117-1.403-22.27-12.506-15.293-21.511C310.426,246.474,308.56,246.693,308.24,247.104L308.24,247.104z"/>
			<path style="fill:#002B59;" d="M461.857,297.245c5.975-0.077,11.654-1.226,16.219-5.305c5.189-4.64,7.28-12.362,9.347-18.725     c0.212-0.651-1.685-0.398-1.892,0.234c-1.634,5.031-3.271,10.117-6.08,14.638c-3.767,6.066-10.007,8.011-16.852,8.096     C461.902,296.194,460.578,297.261,461.857,297.245L461.857,297.245z"/>
			<path style="fill:#002B59;" d="M470.295,304.42c23.622-0.195,26.84-23.722,24.358-42.724c-0.075-0.565-1.98-0.152-1.894,0.5     c2.213,16.955,0.747,41.056-21.701,41.244C470.414,303.444,469.022,304.431,470.295,304.42L470.295,304.42z"/>
		</g>
	</g>
</g>















</svg>
