<?xml version="1.0" encoding="UTF-8"?>
<svg xmlns="http://www.w3.org/2000/svg" xmlns:xlink="http://www.w3.org/1999/xlink" version="1.1" id="character" x="0px" y="0px" viewBox="0 0 512 512" xml:space="preserve" width="512" height="512">
<g>
	<polygon fill="#BBF9F6" points="413.792,362.448 158.522,371.678 158.522,205.417 378.432,157.342  "/>
	<ellipse fill="#D5E9ED" cx="288.63" cy="486.866" rx="67.668" ry="15.343"/>
	<g>
		<path fill="#703516" d="M426.379,214.283l-56.745-31.826l-28.344,68.95l43.09,21.281c0,0-0.863,1.631,4.082,4.547    c3.427,2.021,5.638,0.932,5.638,0.932l44.808,28.832l41.99-66.955L426.379,214.283z"/>
		<path fill="#52200C" d="M426.379,214.283l-9.495-5.325l-32.504,63.73c0,0-0.863,1.631,4.082,4.547    c3.427,2.021,5.638,0.932,5.638,0.932l36.019-62.116L426.379,214.283z"/>
		<polygon fill="#C2AA95" points="476.982,241.205 475.814,233.193 429.822,213.002 391.463,271.568 391.462,271.568 390.4,274.336     437.422,304.051   "/>
		<polygon fill="#507FED" points="416.668,252.115 388.459,301.981 396.925,299.901 398.639,309.853 426.297,262.68   "/>
		<polygon fill="#4066BD" points="399.506,282.454 410.483,289.652 426.297,262.68 416.668,252.115   "/>
		<polygon fill="#C2AA95" points="391.462,271.568 402.145,202.378 377.703,181.063 371.475,186.236 344.834,250.665 390.4,274.336       "/>
		<polygon fill="#E6DBBF" points="424.315,208.576 391.055,271.411 434.527,299.834 475.313,228.523   "/>
		<path fill="#CFBBA3" d="M427.444,209.799l-3.129-1.224l-33.261,62.836l43.472,28.422l0.762-1.332    c-49.347-29.992-31.775-44.749-7.995-88.413C427.348,209.989,427.392,209.898,427.444,209.799z"/>
		<polygon fill="#9C8270" points="424.315,208.576 391.055,271.411 392.403,272.293 424.585,208.681   "/>
		<polygon fill="#E6DBBF" points="382.324,179.549 349.32,249.476 391.055,271.411 424.315,208.576   "/>
		<path fill="#CFBBA3" d="M355.686,252.822l35.368,18.59l33.261-62.836l-2.731-1.888    C395.914,256.425,397.084,270.803,355.686,252.822z"/>
	</g>
	<g>
		<path fill="#703516" d="M97.508,232.219l69.128-38.771l34.529,83.997l-52.494,25.925c0,0,1.052,1.987-4.973,5.54    c-4.175,2.461-6.868,1.135-6.868,1.135l-54.587,35.124L31.09,263.601L97.508,232.219z"/>
		<path fill="#52200C" d="M97.508,232.219l11.567-6.487l39.597,77.638c0,0,1.052,1.987-4.973,5.54    c-4.175,2.461-6.868,1.135-6.868,1.135l-43.88-75.672L97.508,232.219z"/>
		<polygon fill="#C2AA95" points="35.861,265.016 37.284,255.256 93.313,230.659 140.044,302.005 140.044,302.006 141.339,305.378     84.054,341.577   "/>
		<polygon fill="#D62044" points="109.337,278.308 143.703,339.056 133.389,336.522 131.302,348.646 97.607,291.178   "/>
		<polygon fill="#A61935" points="130.245,315.267 116.872,324.036 97.607,291.178 109.337,278.308   "/>
		<polygon fill="#C2AA95" points="140.044,302.005 127.03,217.716 156.806,191.75 164.394,198.051 196.849,276.541 141.339,305.378       "/>
		<polygon fill="#E6DBBF" points="100.022,225.266 140.541,301.815 87.581,336.44 37.894,249.566   "/>
		<path fill="#CFBBA3" d="M96.21,226.757l3.811-1.491l40.519,76.549L87.581,336.44l-0.928-1.623    c60.116-36.538,38.71-54.515,9.74-107.707C96.328,226.988,96.274,226.876,96.21,226.757z"/>
		<polygon fill="#9C8270" points="100.022,225.266 140.541,301.815 138.898,302.889 99.693,225.394   "/>
		<polygon fill="#E6DBBF" points="151.177,189.905 191.383,275.092 140.541,301.815 100.022,225.266   "/>
		<path fill="#CFBBA3" d="M183.628,279.168l-43.087,22.646l-40.519-76.549l3.328-2.3    C134.622,283.558,133.196,301.074,183.628,279.168z"/>
	</g>
	<polygon fill="#E6DBBF" points="99.953,203.731 160.062,216.685 185.519,119.107 119.222,113.034  "/>
	<path fill="#CFBBA3" d="M123.535,113.429L123.535,113.429l-4.312-0.395l-19.269,90.697l50.941,10.978   C94.428,198.08,107.624,184.671,123.535,113.429z"/>
	<polygon fill="#E6DBBF" points="343.147,128.692 346.55,193.972 389.848,191.841 389.404,120.748  "/>
	<path fill="#CFBBA3" d="M346.156,128.175L346.156,128.175l-3.009,0.517l3.404,65.28l32.6-1.604   C344.023,190.175,348.19,176.907,346.156,128.175z"/>
	<polygon fill="#E6DBBF" points="230.318,98.147 269.692,116.281 302.177,53.042 257.489,38.694  "/>
	<path fill="#CFBBA3" d="M260.396,39.627l-2.907-0.933l-27.171,59.454l33.369,15.368C227.383,93.411,238.52,86.208,260.396,39.627z"/>
	<polygon fill="#E6DBBF" points="329.813,153.614 371.343,118.894 317.377,48.402 277.275,91.143  "/>
	<path fill="#CFBBA3" d="M279.883,88.363L279.883,88.363l-2.608,2.78l52.538,62.471l35.196-29.425   C322.899,154.391,320.733,137.971,279.883,88.363z"/>
	<polygon fill="#E6DBBF" points="177.156,135.449 239.052,112.804 206.304,9.791 142.736,42.214  "/>
	<path fill="#CFBBA3" d="M229.611,116.258c-60.696,17.23-56.406-2.474-82.741-76.153l0,0l-4.135,2.109l34.42,93.235L229.611,116.258   z"/>
	<path fill="#333466" d="M158.116,184.292c0,0,36.656,22.686,121.796-13.946c55.634-23.937,80.428-47.439,80.03-53.936   C331.955,114.874,245.736,113.477,158.116,184.292z"/>
	<path fill="#6E82BA" d="M278.522,169.563c55.773-23.905,76.18-43.797,80.528-52.258c3.715-1.548,6.147-3.97,7.523,0.168   c-6.874,10.565-44.56,36.34-85.998,54.699c-49.355,21.867-96.531,26.484-126.99,15.726c-1.021-3.99,0.869-7.09,7.936-5.186   C180.895,187.932,213.372,197.487,278.522,169.563z"/>
	<g>
		<path fill="#C9D7DB" d="M216.355,122.703c-5.036,19.939,13.314,47.024,2.188,65.591s-19.021,9.458-16.325-0.688    c-10.315,8.048-14.044,31.804,24.559,31.812s30.666-55.719,26.573-67.399C241.53,118.286,216.355,122.703,216.355,122.703z"/>
		<path fill="#A5B6C9" d="M225.446,123.195c-3.96,0.6-7.226,1.189-9.531,1.636c-1.369,8.081,0.628,17.192,2.726,26.368    c1.481,5.15,1.804,13.452,18.449,20.627c1.035,5.876,0.508,6.871-1.364,11.933c-12.833-1.263-15.408,6.754-11.41,16.053    c-9.432,8.115-22.079,16.893-28.257,6.416c2.465,7.073,11.143,13.186,30.719,13.19c38.603,0.008,30.666-55.719,26.573-67.399    C246.106,131.346,233.854,125.009,225.446,123.195z"/>
	</g>
	<g>
		<path fill="#822C0F" d="M296.106,418.077c3.487,8.956,26.417,51.242,64.556,47.186c3.694-10.918-2.026-25.629-10.437-40.48    C343.34,412.625,301.379,412.947,296.106,418.077z"/>
		<path fill="#63200B" d="M360.662,465.262c-16.973-2.963-38.197-12.28-44.12-29.258c5.849-6.718,20.038-11.555,36.638-5.778    c-0.936-1.808-1.925-3.625-2.955-5.444c-6.885-12.157-48.845-11.835-54.119-6.705    C299.592,427.033,322.522,469.319,360.662,465.262z"/>
	</g>
	<g>
		<path fill="#822C0F" d="M217.383,413.356c-1.185,9.538-1.089,57.64,34.402,72.184c8.436-7.854,10.388-23.517,10.04-40.581    C261.539,430.991,224.46,411.346,217.383,413.356z"/>
		<path fill="#63200B" d="M251.784,485.54c-13.529-10.668-26.851-28.244-25.251-40.373c12.373,4.21,26.132,4.21,35.291-0.208    c-0.285-13.968-37.364-33.613-44.442-31.603C216.197,422.894,216.294,470.997,251.784,485.54z"/>
	</g>
	<g>
		<path fill="#F5AB6C" d="M222.003,143.592c-6.079,7.954,1.33,21.503,13.069,24.808c10.44,2.939,10.968-12.878,4.223-19.52    C232.55,142.24,224.622,140.165,222.003,143.592z"/>
		<path fill="#E07950" d="M223.215,146.77c2.67-1.606,9,1.342,12.427,7.259c1.558,2.69-3.682,0.998-5.283,4.792    c-0.716,1.696,2.081,6.053-0.698,4.285C223.051,158.901,220.054,148.672,223.215,146.77z"/>
	</g>
	<g>
		<path fill="#F5AB6C" d="M170.799,327.186c0.144-4.936-3.734-10.245-9.107-8.923c0.295-4.744-2.361-7.932-5.764-9.236    c-2.309,0.829-9.37-1.033-12.742,0.535c-5.472,2.545-10.923,9.761-19.788,6.87c-2.077,6.645,2.88,11.77,9.246,10.155    c2.543-2.642,7.408-4.456,7.16-3.183c-0.905,4.651-2.392,8.351-4.062,11.305c-6.859,5.533-11.495,6.128-12.769,7.659    c-3.486,4.19,0.276,11.111,2.72,9.607c1.258,2.396,4.386,4.779,5.637,4.111c1.317-0.704,2.798-1.43,4.898-2.587    c1.274,1.387,4.323,3.225,6.116,3.104c3.736-2.349,10.75-6.578,15.99-8.822C162.101,343.343,170.573,334.897,170.799,327.186z"/>
		<path fill="#E88D51" d="M151.216,324.236c4.363-0.687,8.135-3.425,8.991-4.986c-0.962,0.769-8.154,6.66-17.852,4.013    C144.775,324.48,147.679,324.793,151.216,324.236z"/>
		<path fill="#E88D51" d="M154.622,333.224c-0.836-3.67-0.135-7.353,0.505-8.422c-0.304,1.004-2.095,8.29,3.066,15.127    C156.466,338.398,155.299,336.199,154.622,333.224z"/>
		<path fill="#E88D51" d="M144.921,340.531c5.053,3.004,9.529,5.073,11.109,5.345c-6.185-3.003-13.455-7.515-17.659-11.269    C139.87,336.864,141.843,338.701,144.921,340.531z"/>
		<path fill="#E88D51" d="M161.692,318.263c0.295-4.744-2.361-7.932-5.764-9.236c-1.782,0.64-6.388-0.317-9.95-0.07    c1.275,7.187,9.129,17.029,22.687,22.054c-1.94,5.423-6.444,11.484-11.119,15.942c-5.011,2.127-9.08,4.74-15.041,7.877    c-2.16,0.438-4.256-0.362-5.744-2.229c0.24-1.208,1.29-3.866,10.412-8.089c-3.802,1.284-10.866,4.173-11.828,8.227    c-3.326,1.946-5.2,3.095-7.569,0.142c-0.53-0.661-2.113-1.703-1.15-3.542c0.121-0.23,6.177-5.97,11.479-8.755    c-7.907,2.764-12.92,11.101-15.235,9.005c-0.184-0.166-1.097-1.835-1.27-3.853c-0.363,3.682,2.24,7.382,4.092,6.242    c1.258,2.396,4.386,4.779,5.637,4.111c1.317-0.704,2.798-1.43,4.898-2.587c1.274,1.387,4.323,3.225,6.116,3.104    c3.736-2.349,10.75-6.578,15.99-8.822c3.767-4.439,12.239-12.885,12.464-20.595C170.943,322.25,167.065,316.942,161.692,318.263z"/>
	</g>
	<g>
		<path fill="#F5AB6C" d="M386.05,327.186c-0.144-4.936,3.734-10.245,9.107-8.923c-0.295-4.744,2.361-7.932,5.764-9.236    c2.309,0.829,9.37-1.033,12.742,0.535c5.472,2.545,10.923,9.761,19.788,6.87c2.077,6.645-2.88,11.77-9.246,10.155    c-2.543-2.642-7.408-4.456-7.16-3.183c0.905,4.651,2.392,8.351,4.062,11.305c6.859,5.533,11.495,6.128,12.769,7.659    c3.486,4.19-0.276,11.111-2.72,9.607c-1.258,2.396-4.386,4.779-5.637,4.111c-1.317-0.704-2.798-1.43-4.898-2.587    c-1.274,1.387-4.323,3.225-6.116,3.104c-3.736-2.349-10.75-6.578-15.99-8.822C394.748,343.343,386.276,334.897,386.05,327.186z"/>
		<path fill="#E88D51" d="M405.633,324.236c-4.363-0.687-8.135-3.425-8.991-4.986c0.962,0.769,8.154,6.66,17.852,4.013    C412.074,324.48,409.17,324.793,405.633,324.236z"/>
		<path fill="#E88D51" d="M402.227,333.224c0.836-3.67,0.135-7.353-0.505-8.422c0.304,1.004,2.095,8.29-3.066,15.127    C400.383,338.398,401.55,336.199,402.227,333.224z"/>
		<path fill="#E88D51" d="M411.928,340.531c-5.053,3.004-9.529,5.073-11.109,5.345c6.185-3.003,13.455-7.515,17.659-11.269    C416.979,336.864,415.006,338.701,411.928,340.531z"/>
		<path fill="#E88D51" d="M395.157,318.263c-0.295-4.744,2.361-7.932,5.764-9.236c1.782,0.64,6.388-0.317,9.95-0.07    c-1.275,7.187-9.129,17.029-22.687,22.054c1.94,5.423,6.444,11.484,11.119,15.942c5.011,2.127,9.079,4.74,15.041,7.877    c2.16,0.438,4.256-0.362,5.744-2.229c-0.24-1.208-1.29-3.866-10.412-8.089c3.802,1.284,10.866,4.173,11.828,8.227    c3.326,1.946,5.2,3.095,7.569,0.142c0.53-0.661,2.113-1.703,1.15-3.542c-0.121-0.23-6.177-5.97-11.479-8.755    c7.907,2.764,12.92,11.101,15.235,9.005c0.184-0.166,1.097-1.835,1.27-3.853c0.363,3.682-2.24,7.382-4.092,6.242    c-1.258,2.396-4.386,4.779-5.637,4.111c-1.317-0.704-2.798-1.43-4.898-2.587c-1.274,1.387-4.323,3.225-6.116,3.104    c-3.736-2.349-10.75-6.578-15.99-8.822c-3.767-4.439-12.239-12.885-12.464-20.595C385.906,322.25,389.784,316.942,395.157,318.263    z"/>
	</g>
	<path fill="#554594" d="M243.169,257.181c1.486-10.575,3.504-22.659,7.033-37.195c0.517-2.131,0.715-4.05,0.643-5.78   c-10.398-8.115-41.388-2.382-41.388-2.382c-15.262,30.856-39.737,34.387-44.46,46.372s15.719,29.679,26.038,36.616   c10.615,7.136,22.071,9.088,35.312,2.528C230.435,286.028,236.937,273.063,243.169,257.181z"/>
	<path fill="#433380" d="M243.169,257.181c1.486-10.575,3.504-22.659,7.033-37.195c0.517-2.131,0.715-4.05,0.643-5.78   c-10.398-8.115-41.388-2.382-41.388-2.382c-5.622,11.366-12.493,19.017-19.167,24.756c9.117,8.92,24.349,19.866,28.325,22.147   c2.119,22.067,1.534,28.943-7.367,27.569c-15.857-22.113-36.062-26.238-41.817-34.076c-2.024,1.855-3.565,3.772-4.433,5.976   c-4.723,11.985,15.719,29.679,26.038,36.616c10.615,7.136,22.071,9.088,35.312,2.528   C230.435,286.028,236.937,273.063,243.169,257.181z"/>
	<path fill="#554594" d="M153.555,297.639c-2.613-0.68-9.827-0.77-9.177,6.105c0.934,9.868,17.759,26.114,33.112,26.383   c6.809-2.979,11.129-7.685,5.732-11.544C177.902,314.779,153.555,297.639,153.555,297.639z"/>
	<g>
		<path fill="#3E2869" d="M210.422,295.794c-9.146-21.033-36.964-32.613-36.964-32.613c-12.951,12.667-10.96,25.014-22.822,38.307    c5.056,14.893,17.754,22.554,31.523,20.474C190.191,309.042,191.765,318.467,210.422,295.794z"/>
		<path fill="#3E2869" d="M210.422,295.794c-9.146-21.033-36.964-32.613-36.964-32.613c-12.951,12.667-10.96,25.014-22.822,38.307    c5.056,14.893,17.754,22.554,31.523,20.474C190.191,309.042,191.765,318.467,210.422,295.794z"/>
		<path fill="#261D54" d="M201.517,300.544c-6.718-10.908-13.136-21.309-31.534-33.552c-0.323,0.398-0.634,0.795-0.934,1.193    c18.211,12.104,24.549,22.377,31.183,33.15c0.487,0.789,0.976,1.586,1.476,2.389l-33.751-34.02    c-0.294,0.428-0.578,0.856-0.851,1.285l34.36,34.634c0.627-0.599,1.291-1.262,1.979-1.968    C202.791,302.608,202.147,301.568,201.517,300.544z"/>
		<g>
			<path fill="#261D54" d="M185.011,317.947c0.374-0.445,0.738-0.846,1.095-1.207c-12.138-4.415-21.209-8.064-32.243-19.297     c-0.291,0.409-0.593,0.819-0.907,1.23C163.943,309.817,173.017,313.572,185.011,317.947z"/>
			<path fill="#261D54" d="M154.813,296.054l31.83,20.169c0.408-0.378,0.812-0.713,1.215-1.016l-32.235-20.426     C155.362,295.205,155.093,295.629,154.813,296.054z"/>
		</g>
		<path fill="#261D54" d="M194.65,311.128c1.187-0.769,2.521-1.737,4.049-3.021l-34.327-32.213c-0.454,0.928-0.881,1.857-1.29,2.787    l30.43,28.259c-6.458-3.875-23.301-18.067-30.533-28.021c-0.341,0.783-0.672,1.566-0.997,2.351    C170.861,291.232,183.896,302.901,194.65,311.128z"/>
		<path fill="#261D54" d="M210.422,295.794c-9.146-21.033-36.964-32.613-36.964-32.613c-0.338,0.331-0.66,0.661-0.978,0.991    c13.411,7.345,27.108,18.674,27.781,25.191c1.249,12.09-9.423,13.356-19.738,26.09c-4.312,5.323-22.57-3.212-29.327-14.613    c-0.186,0.216-0.366,0.432-0.56,0.649c5.056,14.893,17.754,22.554,31.523,20.474C190.191,309.042,191.765,318.467,210.422,295.794    z"/>
	</g>
	<path fill="#554594" d="M357.488,209.855c0,0-38.709-5.204-50.493,4.213c-0.043,1.647,0.136,3.385,0.583,5.226   c3.529,14.536,5.547,26.62,7.033,37.195c6.232,15.882,12.734,28.848,16.822,40.159c13.241,6.559,24.697,4.608,35.312-2.528   c10.319-6.937,30.762-24.631,26.038-36.616C388.059,245.518,372.75,240.711,357.488,209.855z"/>
	<path fill="#433380" d="M392.782,257.503c-1.616-4.102-4.474-7.363-8.143-11.115c4.047,10.71-3.568,7.832-12.654,15.15   c-0.651-10.239-4.226-20.259-7.997-30.665c0.904-1.916,1.607-3.911,2.192-5.94c-2.85-4.23-5.771-9.174-8.692-15.079   c0,0-38.709-5.204-50.493,4.213c-0.043,1.647,0.136,3.385,0.583,5.226c3.529,14.536,5.547,26.62,7.033,37.195   c6.232,15.882,12.734,28.848,16.822,40.159c13.241,6.559,24.697,4.608,35.312-2.528   C377.063,287.182,397.505,269.488,392.782,257.503z"/>
	<path fill="#554594" d="M404.224,296.947c2.613-0.68,9.827-0.77,9.177,6.105c-0.934,9.868-17.759,26.114-33.112,26.383   c-6.809-2.979-11.129-7.685-5.732-11.544C379.877,314.087,404.224,296.947,404.224,296.947z"/>
	<g>
		<path fill="#3E2869" d="M345.783,295.794c9.146-21.033,36.964-32.613,36.964-32.613c12.951,12.667,10.96,25.014,22.822,38.307    c-5.056,14.893-17.754,22.554-31.523,20.474C366.013,309.042,364.439,318.467,345.783,295.794z"/>
		<path fill="#3E2869" d="M345.783,295.794c9.146-21.033,36.964-32.613,36.964-32.613c12.951,12.667,10.96,25.014,22.822,38.307    c-5.056,14.893-17.754,22.554-31.523,20.474C366.013,309.042,364.439,318.467,345.783,295.794z"/>
		<path fill="#261D54" d="M354.687,300.544c6.718-10.908,13.136-21.309,31.534-33.552c0.323,0.398,0.634,0.795,0.934,1.193    c-18.211,12.104-24.549,22.377-31.183,33.15c-0.487,0.789-0.976,1.586-1.476,2.389l33.751-34.02    c0.294,0.428,0.578,0.856,0.851,1.285l-34.36,34.634c-0.627-0.599-1.291-1.262-1.979-1.968    C353.413,302.608,354.057,301.568,354.687,300.544z"/>
		<g>
			<path fill="#261D54" d="M371.193,317.947c-0.374-0.445-0.738-0.846-1.095-1.207c12.138-4.415,21.209-8.064,32.243-19.297     c0.291,0.409,0.593,0.819,0.907,1.23C392.261,309.817,383.187,313.572,371.193,317.947z"/>
			<path fill="#261D54" d="M401.391,296.054l-31.83,20.169c-0.408-0.378-0.812-0.713-1.215-1.016l32.235-20.426     C400.842,295.205,401.112,295.629,401.391,296.054z"/>
		</g>
		<path fill="#261D54" d="M361.554,311.128c-1.187-0.769-2.521-1.737-4.049-3.021l34.327-32.213c0.454,0.928,0.881,1.857,1.29,2.787    l-30.43,28.259c6.458-3.875,23.301-18.067,30.533-28.021c0.341,0.783,0.672,1.566,0.997,2.351    C385.343,291.232,372.308,302.901,361.554,311.128z"/>
		<path fill="#261D54" d="M345.783,295.794c9.146-21.033,36.964-32.613,36.964-32.613c0.338,0.331,0.66,0.661,0.978,0.991    c-13.411,7.345-27.108,18.674-27.781,25.191c-1.249,12.09,9.423,13.356,19.738,26.09c4.312,5.323,22.57-3.212,29.327-14.613    c0.186,0.216,0.366,0.432,0.56,0.649c-5.056,14.893-17.754,22.554-31.523,20.474C366.013,309.042,364.439,318.467,345.783,295.794    z"/>
	</g>
	<path fill="#6857AB" d="M349.925,424.107c7.726,0.752,9.364-6.575,5.683-8.206c-11.528-8.339-17.2-46.407-17.936-63.393   c-0.736-16.985,5.519-22.504-5.641-35.013c-9.47-10.615-78.978-18.886-91.732-8.585c-12.754,10.302-17.476,20.575-16.433,33.235   c2.031,24.65-8.217,61.904-16.802,80.299c-30.772,0.259,11.55,34.651,80.939,14.74   C316.686,428.955,329.378,417.791,349.925,424.107z"/>
	<path fill="#4A458F" d="M303.574,427.039c-30.221,11.116-46.673,17.935-84.96-3.387c2.647-32.097,11.71-21.843,10.646-98.369   c-0.025-1.809-0.256-3.003-0.656-3.673c-3.923,6.341-5.358,13.016-4.739,20.535c2.031,24.65-8.217,61.904-16.802,80.299   c-30.772,0.259,11.55,34.651,80.939,14.74c28.682-8.23,41.375-19.394,61.921-13.078c7.726,0.752,9.364-6.575,5.683-8.206   C335.067,414.947,326.072,418.764,303.574,427.039z"/>
	<path fill="#4A458F" d="M233.418,382.805c37.431-46.631,26.554-60.638,24.312-87.843c36.94-15.391,45.185-8.87,56.887-3.709   c6.443,18.679,19.157,63.164-1.703,113.782C287.056,416.067,255.084,402.682,233.418,382.805z"/>
	<path fill="#46C2E3" d="M240.749,382.607c19.118-29.147,20.323-45.627,17.183-70.866c36.181-2.374,68.542-15.784,77.062-7.931   c0.052,17.902-0.876,63.642-16.623,97.351C290.921,412.333,258.071,399.995,240.749,382.607z"/>
	<path fill="#95EDEC" d="M252.394,381.588c9.498-9.876,16.984-32.974,19.567-49.404c24.421-1.602,45.202-9.684,50.953-4.383   c4.426,16.868-0.113,53.365-11.723,66.027C292.662,401.369,264.085,393.325,252.394,381.588z"/>
	<path fill="#4A458F" d="M208.73,344.69c-0.137-10.591,5.945-29.089,8.656-40.289c26.172,3.293,39.691,10.288,46.448,15.254   c1.301,8.926-5.683,29.186-10.318,39.674c-2.274,1.756-5.419,3.717-8.906,3.94C236.085,361.751,219.775,355.962,208.73,344.69z"/>
	<path fill="#2F2C42" d="M247.412,313.204c20.358,3.859,52.488,6.254,77.016,3.802c6.622-1.962,12.325-3.403,11.852,4.231   c-3.513,6.438-11.635,16.82-39.2,16.985c-34.706,0.208-54.575-9.686-67.82-19.62C229.875,303.148,241.158,306.091,247.412,313.204z   "/>
	<path fill="#6857AB" d="M336.28,316.638c0-19.499-7.069-53.95-3.022-75.421c4.047-21.471-113.316,7.726-113.316,7.726   c4.047,17.66,8.83,43.413,8.462,56.29c-0.368,12.877,20.235,21.707,53.974,26.96C306.473,335.945,326.058,327.307,336.28,316.638z"/>
	<path fill="#4A458F" d="M326.535,234.406c-24.486-5.887-106.593,14.536-106.593,14.536c0.645,2.813,1.308,5.832,1.966,8.971   c0.964,0.57,1.929,1.131,2.889,1.679c2.22,11.007,7.596,22.183,19.724,33.3c1.802,7.621,4.315,15.924,7.798,25.218   c0.382,3.165,1.619,5.951,3.516,8.39c7.535,2.226,16.445,4.121,26.543,5.694c18.888,2.941,34.98-1.743,45.988-9.039   C327.426,295.704,324.047,262.44,326.535,234.406z"/>
	<path fill="#46C2E3" d="M244.838,243.289c0.531,24.53,1.942,55.308,13.408,83.899c7.004,1.93,15.09,3.598,24.131,5.005   c16.577,2.581,31.017-0.702,41.745-6.475c-0.402-25.938-4.299-59.308-1.79-86.952c0.181-1.996-0.039-3.687-0.583-5.125   C303.76,231.878,268.735,238.233,244.838,243.289z"/>
	<path fill="#95EDEC" d="M321.979,242.626c0.314-4.464-0.929-7.407-3.241-9.202c-7.666-0.359-17.675,0.432-28.382,1.822   c-13.73,4.702-26.726,11.724-26.726,11.724c0.406,24.266-1.243,55.063,7.731,83.281c3.497,0.693,7.167,1.342,11.018,1.942   c16.175,2.519,30.3-0.558,40.943-6.073C322.958,301.077,320.113,269.134,321.979,242.626z"/>
	<path fill="#318CC4" d="M243.308,310.41c-0.447,2.945-2.019,6.195-3.898,9.496c5.904,3.356,14.046,6.222,24.055,8.623   c1.255-4.693,2.494-10.523,1.4-11.207C257.805,312.909,243.308,310.41,243.308,310.41z"/>
	<path fill="#8C4712" d="M327.045,187.607c1.057-5.573,4.428-20-9.495-10.6s-62.715,18.211-72.777,14.404   c-10.062-3.808-25.281-7.546-14.699,8.763c-14.788,5.082-27.515,16.181-38.965,31.871c29.744,22.262,58.217,33.79,101.644,26.71   c52.328-8.531,67.194-30.256,72.051-47.524C355.219,197.56,338.48,187.014,327.045,187.607z"/>
	<path fill="#70310D" d="M244.773,191.411c-2.318-0.877-4.908-1.747-7.395-2.373c-4.21,22.199-11.597,43.597-8.303,64.767   c8.691,3.272,17.805,5.478,27.677,6.452c1.118-30.028-1.129-41.602-0.765-68.026C250.938,192.465,246.948,192.234,244.773,191.411z   "/>
	<g>
		<path fill="#A15834" d="M256.573,313.041c-7.803-2.878-41.864-9.593-41.864-9.593s-9.51,6.821-11,42.944    c5.993,5.752,39.181,14.527,39.181,14.527s7.587-1.571,8.618-4.766c2.81-8.702,7.544-25.963,9.988-36.146    C262.143,317.314,258.074,314.569,256.573,313.041z"/>
		<path fill="#803320" d="M205.987,324.825c-0.092,0.489-0.183,0.988-0.272,1.498c8.607,8.867,31.123,8.712,42.915,7.53    c-2.397,8.225-4.521,16.683-5.809,21.457c-14.133-1.639-31.558-4.87-38.806-14.396c-0.121,1.752-0.227,3.566-0.306,5.479    c5.993,5.752,39.181,14.527,39.181,14.527s7.587-1.571,8.618-4.766c2.81-8.702,7.544-25.963,9.988-36.146    c0.647-2.694-3.422-5.439-4.923-6.967c-2.176,3.018-4.639,9.881-6.933,17.418C244.222,333.495,215.75,335.951,205.987,324.825z"/>
		<path opacity="0.5" fill="#3B1A15" d="M222.234,339.615c0,0,2.672-6.491,4.523-9.896    c-0.123-0.169-8.845-2.222-8.845-2.222s-0.582,3.018-1.897,9.977C216.454,337.726,222.234,339.615,222.234,339.615z"/>
		<path opacity="0.5" fill="#3B1A15" d="M256.765,314.398c-1.311,3.4-3.206,9.039-5.501,16.576    c-5.376,3.012-35.147,5.331-45.393-5.514c-0.036,0.197-0.072,0.392-0.107,0.592c8.776,8.864,33.101,8.308,44.912,7.123    c1.667-3.434,3.695-10.144,6.192-17.338c2.185,1.526,2.948,1.999,4.204,3.025C260.675,318.011,257.03,313.713,256.765,314.398z"/>
		<path fill="#9DC7C4" d="M221.65,338.819c0,0,2.672-6.491,4.523-9.896c-0.123-0.169-8.845-2.222-8.845-2.222    s-0.582,3.018-1.897,9.977C215.871,336.93,221.65,338.819,221.65,338.819z"/>
	</g>
	<g>
		<path fill="#DBE5E6" d="M361.774,250.735c-7.219-39.86-23.271-50.716-49.185-79.74c-12.284-13.758-23.599-51.048-23.599-51.048    s-21.304,3.906-63.31,16.892c8.19,9.255,15.978,26.704,13.871,41.981s-18.129,58.128-11.049,84.211    c4.365,16.082,17.513,35.895,50.055,51.793c15.435,7.541,32.045,22.743,18.134,31.051    C329.6,344.41,369.212,291.809,361.774,250.735z"/>
		<path fill="#CBC8DE" d="M314.638,307.931c-22.436-2.998-75.81-11.108-80.862-58.565c-5.646-53.033,19.94-63.492,1.263-103.485    c14.563-13.34,26.973-8.338,30.413-6.309c12.23,7.216,21.301,9.12,30.83,0.984c-4.419-11.148-7.291-20.61-7.291-20.61    s-21.304,3.906-63.31,16.892c8.19,9.255,15.978,26.704,13.871,41.981s-18.129,58.128-11.049,84.211    c4.365,16.082,17.513,35.895,50.055,51.793c15.435,7.541,32.045,22.743,18.134,31.051c25.152-1.12,54.217-32.11,63.203-64.994    C345.921,298.322,328.522,309.786,314.638,307.931z"/>
		<path fill="#CBC8DE" d="M283.878,185.861c0.064-0.581-0.646-0.723-1.344-0.435c-1.89,4.23-44.623,75.845-6.817,127.975    c0.93,0.478,1.875,0.953,2.839,1.424c0.001,0.001,0.003,0.002,0.005,0.002C240.655,260.078,279.131,196.095,283.878,185.861z"/>
		<path fill="#CBC8DE" d="M265.451,185.309c-3.651,2.417-34.714,33.058-38.429,69.187c0.141,1.506,0.337,2.977,0.587,4.412    c3.005-33.221,28.215-61.073,38.743-72.511C267.176,185.64,266.487,185.212,265.451,185.309z"/>
		<path fill="#CBC8DE" d="M234.649,151.122c0.175,0.388,0.35,0.775,0.518,1.169c10.192-2.662,19.871-3.055,26.126-3.467    c0.457-0.022,0.499-0.394,0.052-0.748C259.507,147.748,246.676,147.696,234.649,151.122z"/>
		<path fill="#CBC8DE" d="M264.193,160.69c-1.922,0.571-15.037,7.125-24.496,16.638c-0.048,0.498-0.077,0.999-0.145,1.492    c-0.015,0.11-0.038,0.236-0.055,0.348c8.739-8.621,18.844-14.179,24.985-17.787C264.863,161.152,264.763,160.808,264.193,160.69z"/>
		<path fill="#CBC8DE" d="M331.871,191.932c-19.632-12.897-40.5-18.232-43.504-18.427c-0.32,0.518-0.692,0.96-0.242,1.391    c10.045,3.183,28.643,7.646,45.982,19.519C333.376,193.594,332.629,192.766,331.871,191.932z"/>
		<path fill="#CBC8DE" d="M346.657,309.787c0.991-1.514,1.944-3.058,2.863-4.625c18.41-61.972-46.196-115.22-49.406-118.574    c-0.754-0.037-1.375,0.336-1.119,0.862C307.022,195.601,366.294,244.103,346.657,309.787z"/>
		<path fill="#9895AB" d="M277.501,310.944c-14.352-6.26-41.672-25.544-46.331-49.09c-6.573-33.214,4.362-55.485,8.862-78.849    c2.9-15.056,0.158-27.069-10.356-45.157c-0.935-1.545-2.254-1.545-3.996-1.009c8.19,9.255,15.978,26.704,13.871,41.981    s-18.129,58.128-11.049,84.211c4.365,16.082,17.513,35.895,50.055,51.793c15.435,7.541,32.045,22.743,18.134,31.051    c19.301-0.86,40.905-19.307,53.973-42.703c-9.459,14.22-24.787,30.602-44.247,36.389    C306.417,328.229,293.811,318.058,277.501,310.944z"/>
		<path fill="#AEB1BF" d="M316.655,175.493c-3.794,1.509-8.288,0.596-11.767,0.131c-6.161-0.823-27.387-3.229-32.169,1.955    c-3.475,3.768-21.833,10.806-21.783-0.596c-11.64,24.568,18.324,24.708,25.781,19.755c23.243,16.043,37.085,0.806,35.423-9.162    c3.838-0.963,6.548-2.549,8.965-7.254C319.658,178.763,318.175,177.157,316.655,175.493z"/>
	</g>
	<path fill="#F5AB6C" d="M237.118,134.563c2.038,12.223,8.668,21.647,14.583,29.026c5.366,2.847,12.449,5.132,16.805,11.566   c16.93,2.345,14.1,15.087,29.219-7.409c0.418-7.735,2.013-11.212,3.705-17.182c-1.074-4.573-3.644-9.086-6.05-11.612   c0.466-8.454-1.49-16.577-3.89-19.397C280.648,119.532,235.811,126.721,237.118,134.563z"/>
	<g>
		<path fill="#C95E31" d="M271.38,140.201c1.816,5.019-0.24,10.365-4.593,11.94s-9.354-1.216-11.17-6.235s0.24-10.365,4.593-11.94    C264.563,132.391,269.564,135.182,271.38,140.201z"/>
		<path fill="#F2F2F2" d="M270.957,141.114c1.536,4.245-0.203,8.766-3.884,10.098c-3.682,1.332-7.911-1.029-9.448-5.274    c-1.536-4.245,0.203-8.766,3.884-10.098C265.191,134.508,269.42,136.869,270.957,141.114z"/>
		<path fill="#1F315C" d="M270.22,140.622c1.434,2.418,0.897,5.387-1.2,6.631c-2.097,1.244-4.96,0.292-6.395-2.126    c-1.434-2.418-0.897-5.387,1.2-6.631C265.922,137.252,268.785,138.204,270.22,140.622z"/>
		<path fill="#EB834B" d="M272.004,143.054c-1.851,1.788-6.533,5.101-15.083,5.383c2.627,5.057,6.26,7.857,10.356,6.642    C272.116,153.643,272.949,146.869,272.004,143.054z"/>
	</g>
	<g>
		<path fill="#C95E31" d="M293.699,136.89c0.279,4.468-2.637,8.286-6.512,8.527c-3.875,0.242-7.242-3.185-7.521-7.652    c-0.279-4.468,2.637-8.286,6.512-8.527C290.053,128.996,293.42,132.422,293.699,136.89z"/>
		<path fill="#F2F2F2" d="M293.143,137.525c0.236,3.779-2.23,7.008-5.508,7.212s-6.125-2.693-6.361-6.472s2.23-7.008,5.508-7.212    C290.059,130.848,292.907,133.746,293.143,137.525z"/>
		<path fill="#1F315C" d="M292.744,137.237c0.584,2.285-0.548,4.548-2.529,5.054c-1.981,0.507-4.061-0.934-4.646-3.219    c-0.584-2.285,0.548-4.548,2.529-5.054C290.079,133.512,292.159,134.953,292.744,137.237z"/>
		<path fill="#EB834B" d="M293.591,138.984c-2.592,1.682-7.139,2.666-13.131,2c0.211,3.447,2.367,8.414,7.448,8.349    C292.141,149.279,294.002,145.704,293.591,138.984z"/>
	</g>
	<path fill="#E27844" d="M275.169,193.574c4.143-4.62,32.194-15.868,34.906-12.99c2.712,2.878,1.218,15.6-8.647,19.466   C290.643,204.275,280.773,199.699,275.169,193.574z"/>
	<g>
		<path fill="#04070D" d="M309.373,178.076c-5.008,2.404-7.844,1.894-16.002,4.143c-7.28,2.007-10.87,4.833-20.509,6.767    c6.644,7.819,14.711,11.846,23.642,9.266C305.141,195.758,308.588,189.707,309.373,178.076z"/>
		<path fill="#F7F7D9" d="M277.419,188.143c0.517,1.024,2.124,3.159,7.26,5.266c3.899,1.6,18.175-2.544,20.223-6.057    c1.211-2.078,2.502-5.697,2.613-7.823C307.565,178.566,277.419,188.143,277.419,188.143z"/>
		<path fill="#D4D4B0" d="M277.419,188.143c0.28,0.554,1.645,2.96,5.924,4.694c6.525-2.797,10.286-6.395,11.762-8.506    c2.252,0.872,7.555,1.96,10.78,1.054c1.117-2.228,1.586-5.007,1.63-5.856C307.565,178.566,277.419,188.143,277.419,188.143z"/>
	</g>
	<g>
		<path fill="#BCCAD1" d="M317.218,162.437c1.679,9.409-5.283,5.85-10.882-0.469c-14.169-15.989-42.109-5.21-45.488,10.2    c-1.85,8.435-10.353,13.615-10.337,3.353c-11.542,24.792,23.215,27.811,43.98,7.476    C312.258,189.797,329.696,176.089,317.218,162.437z"/>
		<path fill="#ADB2C4" d="M266.044,163.109c10.517,24.31,46.198,11.83,31.083-7.47C286.381,151.64,273.303,155.702,266.044,163.109z    "/>
		<path fill="#ADB2C4" d="M320.657,167.815c-0.107-0.28-0.231-0.562-0.361-0.845c-2.602,10.59-18.473-1.073-23.038-9.294    c-1.137-1.225-0.613,1.575-1.382,1.089C307.159,175.339,318.921,175.683,320.657,167.815z"/>
		<path fill="#ADB2C4" d="M308.959,184.274c0.18-0.039,0.356-0.084,0.534-0.127c-7.114-3.911-11.651-12.265-15.807-19.749    c-1.137-1.225-0.613,1.575-1.382,1.089C294.466,170.496,300.775,180.233,308.959,184.274z"/>
		<path fill="#ADB2C4" d="M281.331,165.573c2.689,6.07,7.645,14.974,2.644,25.244c0.508-0.281,1.013-0.577,1.517-0.879    c4.808-7.739,4.233-14.449,1.666-22.875C286.591,165.491,281.847,166.321,281.331,165.573z"/>
		<g>
			<path fill="#ADB2C4" d="M277.143,166.754c0.146-0.791,0.208-0.902,0.227-0.907c-0.009-0.021-0.027-0.1-0.047-0.357     c-6.99-1.28-8.392,1.643-10.509,5.098c-6.682,10.905-15.636,20.115-18.519,12.433c-0.036,0.368-0.056,0.726-0.065,1.079     c3.052,9.319,14.776-0.76,21.045-10.558C271.943,169.373,273.144,167.404,277.143,166.754z"/>
			<path fill="#9FA6BD" d="M277.371,165.847C277.378,165.865,277.38,165.844,277.371,165.847L277.371,165.847z"/>
		</g>
	</g>
	<path fill="#EB673B" d="M274.549,152.942c-3.701-1.248-15.623,10.742,2.589,19.233c18.212,8.491,25.157-5.36,22.14-11.653   s-14.028-23.463-21.413-22.649C270.481,138.687,273.916,151.629,274.549,152.942z"/>
	<path fill="#CC4B2B" d="M274.549,152.942c-3.701-1.248-15.623,10.742,2.589,19.233c18.212,8.491,25.157-5.36,22.14-11.653   c2.316,8.738-8.529,16.418-21.431,10.191c-4.764-2.3-6.624-3.973-7.674-5.935c-3.806-7.114,2.012-12.302,4.009-11.288   c1.318,0.669,1.689,1.242,2.427,2.762C276.624,154.803,275.567,153.505,274.549,152.942z"/>
	<path fill="#DBE5E6" d="M252.287,148.112c4.753-7.479,10.285-12.938,17.629-19.015c-1.897-5.314-8.398-11.505-12.489-6.613   C253.013,127.76,249.884,141.725,252.287,148.112z"/>
	<path fill="#DBE5E6" d="M296.586,135.625c-3.316-1.86-10.822-4.666-18.024-5.814c-0.743-5.594,1.424-12.935,7.628-9.962   C292.922,123.075,294.648,127.476,296.586,135.625z"/>
	<path fill="#4D5399" d="M222.836,35.669c-19.189,2.648-32.993-6.091-30.685-16.553c2.484-11.254,34.795-2.013,41.962,11.327   c9.783,18.21,23.604,38.459,32.234,49.336s-49.618,30.088-47.5,12.858S228.741,56.224,222.836,35.669z"/>
	<g>
		<path fill="#E61C52" d="M247.668,109.253c-22.753-9.742-59.37-29.034-69.583-42.163c-16.962-21.804,7.345-23.239,14.002-20.741    C213.148,54.254,246.698,95.228,247.668,109.253z"/>
		<path fill="#AB0E37" d="M207.676,89.15l17.011-1.822l-20.908-0.484C205.059,87.615,206.359,88.384,207.676,89.15z"/>
		<path fill="#AB0E37" d="M217.364,64.735l4.38,19.568l-0.159-15.258C220.196,67.575,218.787,66.137,217.364,64.735z"/>
		<path fill="#AB0E37" d="M186.421,75.077l15.212-6.554l-19.856,2.553C183.147,72.375,184.703,73.712,186.421,75.077z"/>
		<path fill="#AB0E37" d="M175.333,63.169l16.385-1.135L174.532,61.8C174.779,62.246,175.043,62.7,175.333,63.169z"/>
		<path fill="#AB0E37" d="M205.269,54.133l-0.653,15.46l1.827-14.548C206.052,54.738,205.659,54.429,205.269,54.133z"/>
		<path fill="#AB0E37" d="M197.948,66.21l-1.221-17.695c-1.465-0.796-2.891-1.472-4.266-2.01L197.948,66.21z"/>
		<path fill="#821F48" d="M234.309,94.446c-6.542-6.251-13.347-12.229-20.306-18.029c-6.959-5.802-14.144-11.345-21.569-16.578    c-1.862-1.3-3.74-2.58-5.62-3.859c-1.913-1.233-3.788-2.52-5.739-3.704c-1.924-1.22-3.893-2.384-5.874-3.535    c-0.113-0.062-0.225-0.125-0.337-0.187c-1.131,0.939-1.982,2.122-2.399,3.595c0.225,0.116,0.45,0.233,0.676,0.347    c1.957,1.054,3.911,2.124,5.837,3.259c1.946,1.095,3.835,2.303,5.755,3.454c1.892,1.199,3.785,2.401,5.665,3.624    c7.499,4.927,14.8,10.186,21.894,15.718c7.094,5.53,14.055,11.251,20.768,17.259c3.405,2.951,6.679,6.048,9.987,9.109    c1.523,1.382,2.979,2.831,4.453,4.264c0.054,0.023,0.111,0.048,0.165,0.071c-0.042-0.602-0.164-1.271-0.323-1.968    c-1.092-1.138-2.185-2.276-3.317-3.373C240.812,100.734,237.629,97.519,234.309,94.446z"/>
	</g>
	<path fill="#8C4712" d="M271.112,82.345c3.577,2.73-0.266,6.19-2.282,7.88c2.018,1.351,12.245,11.875,13.229,14.395   c3.541-0.862,6.104,0.364,2.602,6.383c-3.502,6.02-61.035,22.071-66.892,21.232c-5.857-0.84-11.119-8.535,0.705-8.06   c2.177-6.584,1.968-17.537,3.124-19.727c-3.241-0.262-10.75-5.516,1.054-11.399C234.456,87.168,267.536,79.615,271.112,82.345z"/>
	<polygon fill="#C1D1D6" points="250.204,121.849 256.292,121.113 251.796,83.921 251.796,83.921 251.796,83.921 251.329,80.06    245.241,80.796 223.946,90.116 228.592,128.552 231.636,128.184 227.153,91.103 245.829,85.66  "/>
	
		<rect x="236.915" y="102.41" transform="matrix(0.978 -0.2085 0.2085 0.978 -16.3071 53.1851)" fill="#C1D1D6" width="14.414" height="3.066"/>
	<path fill="#4D5399" d="M159.648,179.57c0,0,45.101-53.667,92.765-65.418s99.306,0.236,106.637,3.153   C328.283,115.099,260.973,112.298,159.648,179.57z"/>
	<path fill="#778CC9" d="M262.337,130.707c57.507-19.365,93.108-9.582,98.959-10.221c5.851-0.638,9.93-7.481-2.519-7.652   c-13.32-0.183-53.7-0.108-96.826,13.834c-51.365,16.605-97.092,44.572-106.774,53.175c-7.267,6.457-1.103,11.2,4.235,6.192   C168.04,177.943,195.161,153.329,262.337,130.707z"/>
</g>
</svg>
