<?xml version="1.0" encoding="UTF-8"?>
<svg xmlns="http://www.w3.org/2000/svg" xmlns:xlink="http://www.w3.org/1999/xlink" version="1.1" id="character" x="0px" y="0px" viewBox="0 0 512 512" xml:space="preserve" width="112" height="112">
<g>
	<polygon fill="none" points="395.462,394.472 102.737,426.227 92.12,187.577 345.952,189.921  "/>
	<ellipse fill="none" cx="244.598" cy="474.469" rx="113.802" ry="22.693"/>
	<polygon fill="none" points="382.828,463.614 330.784,468.248 328.093,461.473 380.418,457.02  "/>
	<path fill="#333466" d="M100.781,194.893c0,0,37.888,26.78,131.759-6.978c61.34-22.059,89.519-45.678,89.519-52.683   C292.095,131.743,199.564,124.576,100.781,194.893z"/>
	<path fill="#6E82BA" d="M231.099,186.983c61.487-22.015,84.717-42.044,89.944-50.848c4.093-1.419,6.864-3.861,8.071,0.674   c-8.079,10.898-50.258,36.111-95.981,53.111c-54.458,20.248-105.442,22.107-137.457,8.548c-0.835-4.353,1.399-7.56,8.867-5.049   C125.013,200.301,159.274,212.7,231.099,186.983z"/>
	<g>
		<path fill="#C9D7DB" d="M169.228,147.565c-6.518,16.631,6.336,41.974-5.28,56.757c-11.615,14.783-17.423,6.072-13.991-2.376    c-9.767,5.808-15.575,25.871,17.687,30.094c33.262,4.224,32.511-44.662,30.26-55.173    C191.403,146.509,169.228,147.565,169.228,147.565z"/>
		<path fill="#A5B6C9" d="M177.008,148.982c-3.478,0.084-6.356,0.235-8.391,0.369c-2.062,6.813-1.337,14.883-0.532,23.018    c8.319,11.434,12.801,12.741,19.975,15.009c2.614,5.322,2.368,9.074,0.201,13.231c-11.67-4.575-18.536,3.921-12.468,12.324    c-9.014,5.962-29,14.089-33.179,4.386c1.352,6.364,8.161,12.579,25.029,14.721c33.262,4.224,32.511-44.662,30.26-55.173    C193.919,158.262,184.054,151.464,177.008,148.982z"/>
	</g>
	<g>
		<path fill="#F5AB6C" d="M129.895,406.543c-0.061,6.213,9.905,5.284,10.415,2.071c1.224-7.716,0.939-11.32,2.199-14.006    c2.828-6.029,6.249-8.321,5.763-6.118c-1.899,8.606,0.056,12.573,7.482,12.103c0.432-10.492,6.294-16.708,0.641-25.232    c-6.035-18.147-31.444-22.835-37.303-9.648c-1.933,4.349-2.914,6.646-3.653,11.258c0.669,10.161-3.729,18.569,5.607,21.183    C120.374,403.597,124.713,408.205,129.895,406.543z"/>
		<path fill="#E88D51" d="M131.262,390.245c-0.985,3.488-2.29,12.914-2.733,16.581c0.448-0.052,0.902-0.134,1.366-0.283    C130.253,402.91,131.408,392.275,131.262,390.245z"/>
		<path fill="#E88D51" d="M121.044,398.154L121.044,398.154c0.617-4.264,1.019-9.686,1.276-13.141    c-0.955,2.433-1.567,8.642-2.726,12.64C120.037,397.838,120.516,398.007,121.044,398.154z"/>
		<path fill="#E88D51" d="M156.394,375.362c-6.035-18.147-31.444-22.835-37.303-9.648c-1.93,4.344-2.912,6.641-3.65,11.242    c18.401,12.487,35.749,5.118,43.044,3.06C158.125,378.517,157.468,376.981,156.394,375.362z"/>
		<path fill="#554594" d="M142.985,241.6c-12.046,50.71-30.448,56.237-31.872,70.028c-1.423,13.792,23.442,21.029,36.821,21.331    c26.24,0.592,25.866-0.06,37.69-10.696c1.558-20.929-5.206-37.621-6.441-73.541C178.375,225.22,142.985,241.6,142.985,241.6z"/>
		<path fill="#433380" d="M142.985,241.6c-1.698,7.146-3.521,13.395-5.406,18.896c8.128,6.643,22.811,13.731,28.116,15.076    c3.628,14.962,3.675,40.759-5.95,41.914c-26.736-14.962-46.394,0.412-48.185-8.305c-0.209,0.793-0.36,1.605-0.447,2.448    c-1.423,13.792,23.442,21.029,36.821,21.331c26.24,0.592,25.866-0.06,37.69-10.696c1.558-20.929-5.206-37.621-6.441-73.541    C178.375,225.22,142.985,241.6,142.985,241.6z"/>
		<path fill="#554594" d="M119.22,359.81c-2.82,0.702-9.686,4.328-5.534,10.493c5.959,8.848,30.223,15.551,44.876,7.906    c4.904-6.319,6.567-12.99-0.52-13.862C151.055,363.488,119.22,359.81,119.22,359.81z"/>
		<path fill="#3E2869" d="M157.84,366.574c0.922-15.947,7.104-8.044,12.931-38.317c-18.991-14.807-50.457-11.525-50.457-11.525    c-5.586,18.182,2.446,28.569-1.821,46.782C130.631,374.711,146.186,375.404,157.84,366.574z"/>
		<path fill="#261D54" d="M170.771,328.257c-18.991-14.807-50.457-11.525-50.457-11.525c-0.146,0.475-0.277,0.941-0.405,1.405    c16.054,0.043,34.372,3.617,38.263,9.289c7.22,10.523-1.987,17.047-5.109,33.967c-1.305,7.073-22.427,8.366-34.38,1.242    c-0.063,0.293-0.121,0.582-0.19,0.879c12.138,11.197,27.693,11.89,39.347,3.061C158.762,350.628,164.944,358.53,170.771,328.257z"/>
		<path fill="#261D54" d="M164.94,337.105c-11.67-6.688-22.8-13.064-45.918-15.12c0,0.001,0,0.002-0.001,0.004    c-0.098,0.528-0.185,1.051-0.262,1.567c22.874,2.021,33.868,8.319,45.393,14.924c0.844,0.484,1.697,0.973,2.561,1.463    l-48.2-14.435c-0.057,0.543-0.103,1.08-0.14,1.611l49.07,14.696c0.111-0.346,0.222-0.712,0.333-1.081    c0.035-0.113,0.069-0.224,0.103-0.339c0.133-0.449,0.267-0.91,0.4-1.386c0-0.001,0-0.002,0.001-0.002    C167.153,338.37,166.037,337.734,164.94,337.105z"/>
		<path fill="#261D54" d="M118.406,334.676c0.061,0.913,0.138,1.819,0.223,2.721c13.2,4.798,31.682,9.214,46.056,11.428    c0.279-0.57,0.561-1.185,0.848-1.851L118.406,334.676z"/>
		<g>
			<path fill="#261D54" d="M119.439,358.156c-0.064,0.528-0.137,1.063-0.221,1.604c6.132,1.858,11.433,2.827,16.402,3.197     c7.773,0.578,14.748-0.306,22.835-1.516c0.121-0.598,0.256-1.151,0.404-1.662C145.455,361.795,135.242,362.972,119.439,358.156z"/>
			<path fill="#261D54" d="M159.094,359.03c0.187-0.553,0.391-1.065,0.61-1.547l-39.98-2.658c-0.027,0.521-0.063,1.048-0.108,1.58     L159.094,359.03z"/>
		</g>
	</g>
	<g>
		<path fill="#822C0F" d="M178.356,471.93c5.057,6.642,22.584,28.136,51.66,20.98c4.757-12.496-1.638-24.914-15.707-42.706    C206.781,440.686,181.529,466.384,178.356,471.93z"/>
		<path fill="#63200B" d="M186.45,473.233c9.613-15.036,26.705-8.083,40.33-4.869c-2.937-5.482-7.155-11.437-12.472-18.159    c-7.527-9.518-32.779,16.179-35.953,21.726c5.057,6.642,22.584,28.136,51.66,20.98    C204.984,493.001,195.268,481.864,186.45,473.233z"/>
	</g>
	<g>
		<path fill="#822C0F" d="M256.578,466.816c6.29,5.489,40.963,28.799,68.682,10.32c-1.554-9.89-11.879-18.908-24.332-26.951    C290.734,443.601,258.571,460.744,256.578,466.816z"/>
		<path fill="#63200B" d="M325.26,477.135c-14.255,4.554-34.341,9.557-56.135-7.256c13.562-11.113,24.508-22.119,49.081-5.797    c-4.44-4.906-10.54-9.546-17.278-13.898c-10.194-6.584-42.357,10.56-44.35,16.631C262.868,472.304,297.542,495.614,325.26,477.135    z"/>
	</g>
	<g>
		<path fill="#F5AB6C" d="M170.629,159.519c-5.28,6.909,1.155,18.677,11.351,21.548c9.068,2.553,9.526-11.186,3.668-16.954    C179.79,158.344,172.904,156.542,170.629,159.519z"/>
		<path fill="#E07950" d="M171.683,162.279c2.319-1.395,7.817,1.165,10.793,6.305c1.353,2.337-3.199,0.867-4.589,4.162    c-0.621,1.473,1.808,5.257-0.606,3.722C171.54,172.816,168.937,163.931,171.683,162.279z"/>
	</g>
	<g>
		<path fill="#6857AB" d="M263.346,465.781c23.828-18.223,31.67-20.426,47.427-8.555c10.249-2.05,9.736-11.017,2.818-8.968    c-12.042-8.711-17.967-48.478-18.736-66.221c-0.769-17.743,5.765-23.508-5.893-36.575c-9.893-11.089-82.501-19.729-95.825-8.968    c-13.323,10.761-18.256,21.493-17.166,34.717c2.122,25.75-4.099,66.232-13.067,85.448c-13.579,1.025,3.859,13.804,16.289,14.742    c7.015,0.53,14.781-22.335,47.797-7.696C239.763,469.369,251.203,470.012,263.346,465.781z"/>
		<path fill="#4A458F" d="M250.743,459.455c-30.598-0.285-32.785-18.232-71.549,1.561c-17.613-3.267,3.524-27.479,2.413-107.418    c-0.026-1.889-0.268-3.137-0.685-3.836c-4.098,6.624-5.597,13.597-4.95,21.451c2.122,25.75-4.099,66.232-13.067,85.448    c-13.579,1.025,3.859,13.804,16.289,14.742c7.015,0.53,14.781-22.335,47.797-7.696c12.772,5.663,24.212,6.306,36.355,2.075    c23.828-18.223,31.67-20.426,47.427-8.555c10.249-2.05,9.736-11.017,2.818-8.968C274.572,433.729,268.106,459.617,250.743,459.455    z"/>
		<path fill="#4A458F" d="M203.643,432.063c9.897-21.209,10.045-81.722,7.704-110.141c38.588-16.078,47.201-9.266,59.425-3.874    c6.731,19.512,9.753,87.931,19.985,107.867C264.972,448.337,229.023,444.576,203.643,432.063z"/>
		<path fill="#46C2E3" d="M208.437,429.73c8.968-19.216,8.657-76.886,6.536-102.636c34.963-14.567,48.935-11.973,60.01-7.088    c6.098,17.679,7.18,83.783,16.451,101.846C268.072,442.168,231.432,441.068,208.437,429.73z"/>
		<path fill="#95EDEC" d="M223.935,423.653c6.053-12.97,5.843-51.896,4.411-69.277c23.599-9.832,33.03-8.082,40.505-4.785    c4.116,11.933,4.847,56.551,11.104,68.744C264.187,432.048,239.456,431.306,223.935,423.653z"/>
		<path fill="#4A458F" d="M211.56,381.303c3.556-11.438,8.38-33.299,5.962-42.406c-3.376-1.929-8.186-4.112-14.895-5.969    c-4.205,0.798-7.506,1.966-9.488,3.567c-13.323,10.761-18.256,21.493-17.166,34.717c0.214,2.602,0.34,5.361,0.389,8.227    c9.967,4.601,20.225,6.636,26.429,7.018C206.382,385.808,209.411,383.397,211.56,381.303z"/>
	</g>
	<g>
		<path fill="#C1A800" d="M422.674,36.635c-3.937-5.532-25.506-14.916-36.355-8.241c-4.407,10.818,1.609,35.862,1.609,35.862    s2.506,2.219,8.388,4.94c12.09,1.281,19.942,4.422,20.243-1.557c0.133-2.64-3.239-9.53-7.728-12.734    C420.751,48.145,427.675,43.662,422.674,36.635z"/>
		<path fill="#82140C" d="M405.231,45.344c-0.905-0.962-0.366-3.911,0.677-6.742c1.518-4.12,6.53-2.984,8.753-0.454    c2.224,2.53,0.985,5.382-2.744,7.081C409.399,46.377,406.477,46.669,405.231,45.344z"/>
		<path fill="#82140C" d="M404.739,62.996c0.218-0.637,1.677-1.097,3.202-1.301c2.22-0.297,2.902,2.233,2.291,3.839    c-0.611,1.606-2.192,1.727-3.847,0.45C405.267,65.122,404.439,63.874,404.739,62.996z"/>
		<path fill="#C9BB5F" d="M422.674,36.635c-3.937-5.532-25.506-14.916-36.355-8.241c-4.405,10.814,1.605,35.843,1.609,35.862    c-0.277-5.394-5.34-25.255-0.585-35.612c36.402-4.343,41.865,15.995,19.437,26.484c3.623,2.4,17.127,16.963-7.837,14.384    c10.585,1.386,17.339,3.661,17.617-1.872c0.133-2.64-3.239-9.53-7.728-12.734C420.751,48.145,427.675,43.662,422.674,36.635z"/>
		<path fill="#A86A00" d="M395.024,26.104c-2.471,8.119-6.506,21.387-8.236,32.656c0.266,1.427,0.513,2.637,0.709,3.556    c0.816-7.352,3.042-18.988,7.634-36.214C395.094,26.103,395.059,26.103,395.024,26.104z"/>
		<path fill="#322847" d="M377.184,49.785c3.417-5.629,11.761,9.14,11.761,9.14l12.869,23.392c0,0-2.734-1.32-11.68-10.313    c-8.402-8.446-8.906-12.232-7.472-16.614C380.422,56.032,373.767,55.414,377.184,49.785z"/>
		<path fill="#F7D809" d="M386.829,60.791c0,0,8.038-29.15,18.708-37.764c14.938-0.7,31.774,21.19,32.678,29.109    c1.149,10.06-8.511,10.736-24.597,10.915c2.794,5.841,2.347,14.834,0.711,17.472c-3.704,5.973-9.989-1.713-21.684-9.894    C388.145,64.494,386.829,60.791,386.829,60.791z"/>
		<path fill="#B35407" d="M415.347,51.182c-0.384-1.502,1.845-4.226,4.524-6.543c3.899-3.372,8.404,0.641,9.252,4.503    c0.848,3.862-2.043,6.09-6.84,5.718C419.043,54.609,415.875,53.25,415.347,51.182z"/>
		<path fill="#B35407" d="M404.819,69.041c0.586-0.531,2.346-0.175,4.028,0.481c2.45,0.955,1.713,3.942,0.174,5.245    s-3.233,0.53-4.208-1.722C404.154,71.525,404.012,69.772,404.819,69.041z"/>
		<path fill="#FFEF82" d="M406.449,23.865c39.87,16.206,33.936,40.205,4.935,38.249c2.359,4.519,7.958,27.118-16.16,10.373    c10.056,7.416,15.683,13.554,19.105,8.037c1.636-2.638,2.083-11.631-0.711-17.472c16.087-0.179,25.746-0.855,24.597-10.915    c-0.904-7.919-17.739-29.809-32.678-29.109c-10.67,8.614-18.708,37.764-18.708,37.764    C389.607,55.093,395.681,31.808,406.449,23.865z"/>
		<path fill="#E68A08" d="M432.799,41.115c-14.606,4.473-36.835,11.793-45.833,20.022c0.078,0.19,0.195,0.459,0.353,0.801    c3.556-3.57,19.789-12.356,45.525-20.761C432.829,41.156,432.814,41.135,432.799,41.115z"/>
		<path fill="#E68A08" d="M387.486,58.553c5.013-7.091,13.907-17.784,28.406-32.878c-0.037-0.019-0.073-0.04-0.11-0.058    c-7.149,6.94-18.828,18.283-27.005,28.879C388.241,56.114,387.807,57.497,387.486,58.553z"/>
		<path fill="#E68A08" d="M388.581,64.383c0.244,0.435,0.515,0.903,0.821,1.41c6.366-0.181,14.657-0.17,25.251,0.064    c-0.088-0.309-0.182-0.613-0.284-0.913C406.17,64.376,396.866,63.979,388.581,64.383z"/>
		<path fill="#322847" d="M380.174,50.058c-1.56-1.133-2.85-2.707-3.554-4.459c-0.365-0.872-0.577-1.797-0.611-2.726    c-0.08-0.928,0.084-1.855,0.273-2.758l0.012-0.059c0.085-0.409-0.177-0.809-0.585-0.895c-0.409-0.086-0.809,0.177-0.895,0.585    c-0.004,0.02-0.008,0.042-0.01,0.062c-0.131,1.059-0.216,2.134-0.033,3.192c0.136,1.057,0.472,2.083,0.96,3.011    c0.964,1.873,2.451,3.378,4.213,4.437c0.107,0.064,0.246,0.03,0.31-0.077c0.061-0.101,0.033-0.23-0.06-0.299L380.174,50.058z"/>
		<path fill="#322847" d="M379.058,50.508c-1.849-0.546-3.591-1.599-4.84-3.015c-0.635-0.7-1.145-1.501-1.487-2.365    c-0.386-0.847-0.541-1.776-0.665-2.69l-0.008-0.06c-0.056-0.414-0.437-0.704-0.851-0.648s-0.704,0.437-0.648,0.851    c0.003,0.02,0.007,0.042,0.011,0.061c0.23,1.043,0.51,2.083,1.035,3.019c0.481,0.951,1.14,1.805,1.911,2.517    c1.535,1.443,3.439,2.365,5.454,2.773c0.122,0.025,0.241-0.054,0.266-0.177c0.023-0.115-0.046-0.228-0.156-0.261L379.058,50.508z"/>
	</g>
	<g>
		<path fill="#322847" d="M422.868,100.293c2.64-2.385,4.674,6.551,4.674,6.551l3.043,14.101c0,0-1.211-1.107-4.451-7.146    c-3.043-5.672-2.718-7.71-1.297-9.757C423.578,104.028,420.229,102.678,422.868,100.293z"/>
		<path fill="#F75BB4" d="M426.159,107.483c0,0,8.672-13.847,15.528-16.655c7.842,1.949,13.17,15.886,12.413,20.126    c-0.962,5.386-6.067,4.241-14.422,1.845c0.543,3.456-1.081,8.043-2.336,9.155c-2.842,2.519-4.906-2.433-9.695-8.477    C426.267,109.603,426.159,107.483,426.159,107.483z"/>
		<path fill="#274E8F" d="M442.409,106.921c0.034-0.837,1.609-1.903,3.354-2.687c2.54-1.142,4.251,1.632,4.093,3.763    s-2,2.836-4.426,1.902C443.792,109.267,442.362,108.073,442.409,106.921z"/>
		<path fill="#274E8F" d="M434.195,114.537c0.386-0.184,1.241,0.272,2.011,0.872c1.12,0.873,0.277,2.306-0.722,2.742    s-1.756-0.226-1.912-1.543C433.467,115.72,433.664,114.791,434.195,114.537z"/>
		<path fill="#FFCFEA" d="M441.687,90.828c-6.293,2.577-14.11,14.445-15.353,16.38c2.461-2.834,9.045-13.484,15.695-15.875    c18.133,14.559,11.347,26.065-3.364,20.565c0.54,2.797-0.118,16.144-11.019,1.509c0.011,0.037,0.021,0.074,0.032,0.111    c4.765,6.026,6.828,10.95,9.663,8.436c1.255-1.112,2.878-5.699,2.335-9.155c8.355,2.396,13.46,3.541,14.422-1.845    C454.857,106.714,449.529,92.777,441.687,90.828z"/>
		<path fill="#D42A8A" d="M426.236,108.152c2.391-1.298,12.165-3.327,26.781-3.697c-0.005-0.015-0.01-0.03-0.016-0.046    c-8.253,0.056-20.892,0.405-26.825,3.273C426.187,107.79,426.207,107.948,426.236,108.152z"/>
		<path fill="#D42A8A" d="M428.141,104.525c-0.528,0.755-0.967,1.403-1.296,1.901c3.692-2.895,9.951-7.055,19.793-12.626    c-0.016-0.016-0.032-0.032-0.048-0.047C441.815,96.24,434.014,100.305,428.141,104.525z"/>
		<path fill="#D42A8A" d="M426.721,110.472c3.323,0.891,7.612,2.179,13.058,3.939c0.002-0.174,0-0.345-0.005-0.516    c-4.157-1.563-8.909-3.204-13.26-4.277C426.571,109.878,426.642,110.165,426.721,110.472z"/>
		<path fill="#322847" d="M424.194,101.062c-0.749-0.821-1.285-1.83-1.495-2.949c-0.233-1.116-0.014-2.317,0.48-3.354    c0.097-0.204,0.341-0.29,0.544-0.193c0.204,0.097,0.29,0.341,0.193,0.544c-0.005,0.01-0.014,0.027-0.02,0.036    c-0.503,0.861-0.792,1.871-0.673,2.892c0.093,1.016,0.518,2.031,1.15,2.858l0.007,0.009c0.041,0.054,0.031,0.13-0.023,0.171    C424.308,101.116,424.236,101.108,424.194,101.062z"/>
		<path fill="#322847" d="M423.612,101.173c-0.98-0.523-1.823-1.295-2.394-2.28c-0.592-0.974-0.787-2.179-0.669-3.322    c0.023-0.224,0.224-0.387,0.449-0.364c0.224,0.023,0.387,0.224,0.364,0.448c-0.001,0.011-0.004,0.03-0.006,0.041    c-0.186,0.98-0.121,2.028,0.332,2.95c0.428,0.926,1.166,1.741,2.039,2.31l0.01,0.007c0.057,0.037,0.072,0.112,0.036,0.169    C423.737,101.185,423.667,101.202,423.612,101.173z"/>
	</g>
	<path fill="#554594" d="M317.744,243.61c-5.678-27.119-60.788,13.991-60.788,13.991c-5.016,19.35,8.783,52.329,13.006,66.26   c4.023,13.268,33.755,19.952,49.101,19.294c18.487-0.792,30.024-14.979,26.135-29.854   C337.649,284.425,328.392,294.464,317.744,243.61z"/>
	<path fill="#433380" d="M317.744,243.61c-5.678-27.119-60.788,13.991-60.788,13.991c-5.016,19.35,8.783,52.329,13.006,66.26   c3.57,11.775,27.38,18.359,43.422,19.233c-14.133-6.371,8.291-20.19,8.675-43.241c0.545-32.711-65.767,27.357-1.961-45.865   C319.322,250.837,318.537,247.396,317.744,243.61z"/>
	<path fill="#F5AB6C" d="M369.574,260.113c-1.254,7.406-2.563,14.777-5.478,25.621c-8.438-2.859-27.253-16.862-26.3-23.66   c4.688-4.923,9.899-9.899,13.661-13.601C359.877,246.298,370.72,253.343,369.574,260.113z"/>
	<path fill="#554594" d="M334.765,256.324c-2.999-1.295-5.279,6.088-5.127,8.93c0.469,8.804,20.889,25.004,33.098,26.829   c4.306,0.643,7.828-4.621,5.896-7.129C364.97,280.2,343.79,260.222,334.765,256.324z"/>
	<path fill="#2F2C42" d="M198.687,338.513c21.911,4.153,56.493,6.732,82.891,4.092c7.128-2.112,13.265-3.663,12.756,4.554   c-3.781,6.93-12.523,18.103-42.191,18.281c-37.354,0.224-58.739-10.425-72.994-21.116   C179.812,327.689,191.955,330.857,198.687,338.513z"/>
	<path fill="#6857AB" d="M294.334,342.209c0-20.987-7.608-58.067-3.253-81.176c4.356-23.109-121.961,8.316-121.961,8.316   c4.356,19.007,9.503,46.725,9.108,60.585c-0.396,13.859,21.779,23.363,58.091,29.017   C262.254,362.989,283.332,353.692,294.334,342.209z"/>
	<path fill="#4A458F" d="M283.846,253.703c-26.354-6.336-114.725,15.646-114.725,15.646c0.694,3.028,1.408,6.279,2.117,9.658   c7.841,4.629,15.722,8.707,20.661,10.446c1.01,15.275,3.806,32.289,12.069,54.34c0.411,3.406,1.742,6.405,3.784,9.03   c8.109,2.396,17.7,4.436,28.568,6.128c20.316,3.163,37.65-1.857,49.497-9.7C284.806,319.7,281.167,283.885,283.846,253.703z"/>
	<path fill="#46C2E3" d="M279.322,258.395c0.195-2.148-0.042-3.969-0.628-5.516c-19.361-1.897-57.058,4.943-82.778,10.385   c0.571,26.398,2.065,59.523,14.401,90.291c7.545,2.081,16.259,3.878,26.002,5.396c17.841,2.778,33.384-0.755,44.929-6.969   C280.816,324.064,276.622,288.148,279.322,258.395z"/>
	<path fill="#95EDEC" d="M278.942,262.551c0.338-4.805-1-7.972-3.489-9.904c-8.25-0.386-19.023,0.465-30.547,1.961   c-14.778,5.061-28.766,12.619-28.766,12.619c0.442,26.373,1.627,59.672,11.684,90.279c2.74,0.506,5.566,0.99,8.495,1.446   c17.403,2.71,32.614-0.589,44.066-6.52C279.998,325.474,276.934,291.086,278.942,262.551z"/>
	<path fill="#318CC4" d="M195.744,337.501c-0.439,2.895-1.885,6.064-3.673,9.298c6.541,3.356,15.24,6.234,25.772,8.651   c1.189-4.704,2.162-9.847,1.103-10.509C211.348,340.191,195.744,337.501,195.744,337.501z"/>
	<path fill="#8C4712" d="M282.04,209.556c1.501-5.918,6.072-21.194-9.503-12.011c-15.575,9.183-68.57,15.443-79.13,10.691   s-26.662-9.767-16.367,8.448c-16.22,4.488-30.622,15.575-43.953,31.678c30.49,25.87,60.321,40.126,107.439,35.374   c56.776-5.726,82.235-37.75,85.402-45.669C316.688,223.811,302.169,213.78,282.04,209.556z"/>
	<path fill="#70310D" d="M205.402,209.854c-5.441-0.08-9.712-0.59-11.994-1.617c-2.432-1.095-5.158-2.2-7.788-3.035   c-5.981,23.572-15.323,46.073-13.175,69.032c9.122,4.086,18.767,7.055,29.309,8.75   C204.927,250.798,203.274,238.216,205.402,209.854z"/>
	<g>
		<path fill="#3E2869" d="M331.304,267.696c-5.795,7.007-9.937,2.669-15.097,7.478c0.01,21.953-1.376,50.314,17.664,52.293    c19.436-11.354,27.421-28.84,30.453-38.919C360.671,279.285,333.879,266.085,331.304,267.696z"/>
		<g>
			<path fill="#261D54" d="M338.76,324.286c0.461-0.326,0.928-0.648,1.374-0.981l-23.946-40.263c-0.001,1.097,0.001,2.2,0.008,3.305     L338.76,324.286z"/>
			<path fill="#261D54" d="M341.853,321.965c-2.341-12.585-14.916-30.456-25.653-43.406c-0.003,0.848-0.006,1.7-0.008,2.559     c12.047,14.674,22.572,31.176,24.16,42.032C340.869,322.761,341.356,322.361,341.853,321.965z"/>
		</g>
		<g>
			<path fill="#261D54" d="M321.861,272.52c-0.692,0.117-1.386,0.266-2.086,0.498l38.206,30.129     c0.287-0.498,0.568-0.993,0.836-1.485L321.861,272.52z"/>
			<path fill="#261D54" d="M328.57,270.302c-0.651,0.468-1.284,0.824-1.904,1.091c14.494,5.696,27.885,15.085,34.261,26.082     c0.307-0.667,0.589-1.317,0.863-1.962C355.159,284.765,342.373,275.896,328.57,270.302z"/>
		</g>
		<g>
			<path fill="#261D54" d="M346.791,317.617c0.818-0.8,1.607-1.607,2.359-2.422l-32.945-38.848c-0.002,1.701-0.01,3.432-0.015,5.187     L346.791,317.617z"/>
			<path fill="#261D54" d="M353.633,309.782c-6.939-13.61-18.563-28.442-31.371-37.326c-1.373,0.215-2.738,0.486-4.16,1.303     c13.475,8.509,26.219,24.642,33.237,38.948C352.148,311.734,352.907,310.758,353.633,309.782z"/>
		</g>
		<path fill="#261D54" d="M331.304,267.696c-0.122,0.148-0.239,0.262-0.36,0.4c12.156,4.556,27.555,14.433,28.764,25.826    c-8.53,17.484-14.83,21.343-26.109,28.245c-11.338-5.016-12.112-36.034-12.03-49.593c-1.738,0.315-3.482,0.85-5.362,2.601    c0.01,21.953-1.376,50.314,17.664,52.293c19.436-11.354,27.421-28.84,30.453-38.919    C360.671,279.285,333.879,266.085,331.304,267.696z"/>
	</g>
	<g>
		<path fill="#A15834" d="M211.004,340.301c-6.777-2.5-36.362-8.332-36.362-8.332s-8.26,5.924-9.554,37.3    c5.205,4.996,34.032,12.618,34.032,12.618s6.589-1.364,7.485-4.139c2.44-7.558,6.552-22.551,8.675-31.395    C215.842,344.012,212.308,341.628,211.004,340.301z"/>
		<path fill="#803320" d="M167.067,350.536c-0.08,0.425-0.159,0.858-0.236,1.301c7.476,7.702,27.032,7.567,37.275,6.54    c-2.082,7.144-3.927,14.491-5.045,18.636c-12.275-1.424-27.41-4.23-33.706-12.504c-0.105,1.522-0.197,3.097-0.266,4.759    c5.205,4.996,34.032,12.618,34.032,12.618s6.589-1.364,7.485-4.139c2.44-7.558,6.552-22.551,8.675-31.395    c0.562-2.34-2.972-4.724-4.276-6.051c-1.89,2.621-4.029,8.582-6.022,15.128C200.276,358.066,175.547,360.2,167.067,350.536z"/>
		<path opacity="0.5" fill="#3B1A15" d="M181.178,363.382c0,0,2.321-5.637,3.929-8.595    c-0.107-0.147-7.682-1.93-7.682-1.93s-0.505,2.621-1.648,8.666C176.159,361.742,181.178,363.382,181.178,363.382z"/>
		<path opacity="0.5" fill="#3B1A15" d="M211.171,341.479c-1.139,2.953-2.785,7.851-4.778,14.397    c-4.669,2.616-30.527,4.63-39.427-4.789c-0.031,0.171-0.063,0.341-0.093,0.515c7.623,7.699,28.751,7.216,39.009,6.187    c1.448-2.983,3.21-8.811,5.379-15.059c1.898,1.326,2.561,1.737,3.652,2.628C214.567,344.617,211.401,340.884,211.171,341.479z"/>
		<path fill="#9DC7C4" d="M180.672,362.69c0,0,2.321-5.637,3.929-8.595c-0.107-0.147-7.682-1.93-7.682-1.93    s-0.505,2.621-1.648,8.666C175.652,361.05,180.672,362.69,180.672,362.69z"/>
	</g>
	<g>
		<path fill="#E88D51" d="M378.019,247.469c-0.982-2.485-2.737-5.266-4.603-7.653c-4.819-0.66-12.196,1.395-23.276,7.969    c-0.878,5.314,2.404,12.499,3.971,15.474c-0.11,15.008,14.526,14.236,23.21,7.859    C378.095,263.205,379.711,251.749,378.019,247.469z"/>
		<path fill="#F5AB6C" d="M353.752,261.646c0.143,1.829,1.222,7.564,5.956,10.732c2.27,1.519,5.265,1.984,8.489,1.489    c-0.22-6.874-0.613-15.866-0.365-20.857C366.924,252.775,353.609,259.817,353.752,261.646z"/>
		<polygon fill="#5E1B0B" points="376.833,462.479 382.828,463.574 379.708,153.386 364.28,151.293   "/>
		<polygon fill="#401308" points="379.708,153.386 364.28,151.293 365.04,170.117 379.895,172.044   "/>
		<path fill="#401308" d="M380.927,274.628l-0.331-32.884l-12.693-0.626l1.151,28.522    C371.934,271.851,377.032,273.56,380.927,274.628z"/>
		<path fill="#F5AB6C" d="M378.796,249.698c2.559,0.913,10.182-0.997,13.325-1.898c5.165-1.482,4.038-14.169-0.112-13.055    s-8.844,3.162-13.969,4.237C373.617,239.909,375.872,248.655,378.796,249.698z"/>
		<path fill="#E88D51" d="M386.316,247.989c-0.66-3.835,1.864-6.408-0.383-11.296c-1.162,0.394-2.355,0.787-3.578,1.158    c-2.642,2.361-4.775,6.913-5.164,10.439c0.479,0.688,1.028,1.202,1.605,1.408c2.559,0.913,10.182-0.997,13.325-1.898    c0.873-0.25,1.562-0.826,2.091-1.595C391.06,247.287,388.384,248.227,386.316,247.989z"/>
		<path fill="#F5AB6C" d="M387.693,248.492c-4.285,0.311-9.282,1.436-14.518,1.524c-4.517,0.076-3.954,9.091-1.279,10.667    c2.341,1.38,10.187,0.943,13.443,0.651C390.691,260.853,391.979,248.181,387.693,248.492z"/>
		<path fill="#E88D51" d="M370.095,257.506c0-0.001-0.001-0.002-0.001-0.002c0.332,1.455,0.962,2.684,1.802,3.179    c2.341,1.38,10.187,0.943,13.443,0.651c0.952-0.085,1.773-0.562,2.459-1.277C377.514,261.023,375.101,260.711,370.095,257.506z"/>
		<path fill="#F5AB6C" d="M387.975,261.725c-3.497-0.368-7.685-0.182-11.916-0.866c-3.65-0.59-4.496,6.754-2.569,8.409    c1.687,1.449,8.071,2.229,10.737,2.463C388.607,272.116,391.472,262.093,387.975,261.725z"/>
		<path fill="#E88D51" d="M386.39,271.051c-8.767-0.786-12.96-1.963-13.887-4.521c0.068,1.186,0.396,2.231,0.987,2.739    c1.687,1.449,8.071,2.229,10.737,2.463C385.006,271.8,385.733,271.528,386.39,271.051z"/>
		<path fill="#F5AB6C" d="M384.329,236.709c0.242-4.938-7.216-6.924-9.513-5.86c-8.479,3.926-13.482-1.123-20.814,5.428    c-2.519,6.755-14.389,13.787-1.48,25.779c4.562,4.238,8.918,1.597,12.503-2.423c3.204-3.593,3.316-7.116,2.089-11.53    c2.564-0.169,4.917-1.127,6.914-1.739c-1.21,3.482-1.27,9.251,2.055,10.365c3.117,1.044,6.365-1.001,8.317-3.385    C383.57,247.296,384.048,242.428,384.329,236.709z"/>
		<path fill="#E88D51" d="M375.85,244.476c-2.975,0.837-6.551,2.059-10.09,2.977c1.916,8.751-2.449,14.981-7.659,16.701    c2.494-0.324,4.84-2.184,6.925-4.521c3.204-3.593,3.316-7.116,2.089-11.53c2.564-0.169,4.917-1.127,6.914-1.739    c-1.21,3.482-1.27,9.251,2.055,10.365c3.117,1.044,6.365-1.001,8.317-3.385C375.444,258.714,374.18,253.953,375.85,244.476z"/>
		<polygon fill="#D18B2A" points="362.391,155.322 382.065,155.081 390.617,135.788 352.978,137.126   "/>
		<g>
			<path fill="#0EB360" d="M370.495,74.69c-25.492-0.448-27.655,37.619-26.792,44.975c0.863,7.357,12.755,15.106,12.755,15.106     l31.888-2.603c0,0,7.661-7.841,8.538-15.402S395.988,75.138,370.495,74.69z"/>
			<path fill="#098053" d="M370.495,74.69c-25.492-0.448-27.655,37.619-26.792,44.975c0.863,7.357,12.755,15.106,12.755,15.106     l31.888-2.603c0,0,5.923-6.067,7.947-12.675c-6.536,10.356-25.688,12.517-37.653,5.763     C344.135,117.069,345.326,75.464,370.495,74.69z"/>
			<path fill="#098C5C" d="M394.898,122.925c0.737-1.485,1.356-3.05,1.717-4.633c-14.606-3.614-39.82-4.516-53.006-4.298     c-0.085,2.042-0.061,3.744,0.027,4.945C371.254,111.081,385.704,119.019,394.898,122.925z"/>
			<path fill="#098C5C" d="M344.74,103.85c-0.36,1.993-0.623,3.92-0.809,5.718c15.312-2.072,41.009-3.457,52.658-3.591     c-0.069-0.574-0.147-1.158-0.235-1.752C384.31,103.077,359.963,102.732,344.74,103.85z"/>
			<path fill="#098C5C" d="M345.243,101.347l48.978-6.427c-0.323-0.998-0.687-1.989-1.081-2.97l-47.537,7.824     C345.475,100.3,345.356,100.824,345.243,101.347z"/>
			<path fill="#098C5C" d="M354.597,81.364c17.854-2.291,28.786,2.672,36.345,5.986c-1.088-1.923-2.357-3.729-3.836-5.343     c-9.231-1.507-20.496-2.311-30.376-2.655C355.977,79.972,355.271,80.65,354.597,81.364z"/>
			<path fill="#10C76B" d="M386.548,90.421c2.671,5.76,5.341,15.28,5.341,15.28s1.457-4.382-1.779-15.394     c-3.236-11.013-12.922-13.156-18.549-13.274c-5.627-0.117-7.982,5.443,0.589,6.023C380.719,83.636,384.42,85.833,386.548,90.421z     "/>
			<path fill="#17D475" d="M378.896,80.227c0.298-1.023-2.803-2.68-6.404-2.424c-3.676,0.261-5.179,3.123,0.385,3.943     C376.695,82.308,378.368,82.035,378.896,80.227z"/>
		</g>
		<polygon fill="#E8BE38" points="352.984,166.546 390.796,165.291 384.686,153.39 358.03,154.166   "/>
		<polygon fill="#E8BE38" points="350.102,140.235 393.579,138.219 392.771,130.134 349.236,131.568   "/>
	</g>
	<g>
		<path fill="#DBE5E6" d="M323.666,267.29c-10.063-41.839-27.743-52.383-56.981-81.601c-13.859-13.85-28.112-52.716-28.112-52.716    s-22.359,5.43-66.125,21.739c9.245,9.321,18.559,27.357,17.247,43.687c-1.312,16.33-15.717,62.745-6.633,89.98    c5.601,16.793,20.742,37.013,56.215,51.909c16.826,7.066,35.36,22.186,21.108,31.837    C295.201,368.584,334.036,310.403,323.666,267.29z"/>
		<path fill="#CBC8DE" d="M277.129,330.798c-23.976-1.824-81.074-7.203-89.299-57.23c-9.191-55.905,17.314-68.543-4.91-109.832    c14.64-15.028,28.104-10.472,31.874-8.527c13.407,6.914,23.142,8.387,32.757-0.818c-5.36-11.557-8.977-21.418-8.977-21.418    s-22.359,5.43-66.125,21.739c9.245,9.321,18.559,27.357,17.247,43.687c-1.312,16.33-15.717,62.745-6.633,89.98    c5.601,16.793,20.742,37.013,56.215,51.909c16.826,7.066,35.36,22.186,21.108,31.837c26.608-2.707,55.563-37.33,63.107-72.749    C309.727,318.717,291.966,331.927,277.129,330.798z"/>
		<path fill="#CBC8DE" d="M237.133,203.189c0.033-0.62-0.729-0.728-1.452-0.38c-1.749,4.601-42.747,83.135,0.499,136.14    c1.016,0.451,2.046,0.897,3.097,1.339c0.002,0.001,0.003,0.001,0.005,0.002C195.773,284.513,232.717,214.33,237.133,203.189z"/>
		<path fill="#CBC8DE" d="M217.556,203.717c-3.727,2.784-34.822,37.158-36.579,75.7c0.241,1.589,0.537,3.137,0.889,4.643    c1.181-35.416,26.236-66.478,36.712-79.244C219.406,203.963,218.649,203.551,217.556,203.717z"/>
		<path fill="#CBC8DE" d="M182.824,169.318c0.209,0.401,0.418,0.801,0.62,1.208c10.648-3.439,20.89-4.44,27.499-5.255    c0.483-0.051,0.505-0.448,0.01-0.796C208.985,164.239,195.372,164.958,182.824,169.318z"/>
		<path fill="#CBC8DE" d="M214.735,177.682c-2.004,0.722-15.518,8.465-24.975,19.126c-0.021,0.531-0.022,1.064-0.064,1.591    c-0.009,0.118-0.026,0.252-0.037,0.373c8.748-9.671,19.129-16.176,25.425-20.374C215.474,178.132,215.348,177.773,214.735,177.682    z"/>
		<path fill="#CBC8DE" d="M288.401,206.73c-21.6-12.493-44.055-16.891-47.252-16.916c-0.308,0.568-0.676,1.06-0.173,1.49    c10.846,2.769,30.84,6.38,49.947,17.925C290.098,208.402,289.256,207.568,288.401,206.73z"/>
		<path fill="#CBC8DE" d="M311.2,330.833c0.96-1.666,1.878-3.361,2.757-5.078c15.783-66.839-55.953-119.412-59.56-122.774    c-0.802,0.007-1.438,0.439-1.135,0.982C262.267,212.122,328.061,259.983,311.2,330.833z"/>
		<path fill="#9895AB" d="M237.923,336.236c-15.6-5.772-45.739-24.575-52.103-49.266c-8.977-34.83,1.276-59.11,4.638-84.162    c2.166-16.144-1.467-28.719-13.71-47.268c-1.085-1.582-2.484-1.503-4.299-0.828c9.245,9.321,18.559,27.357,17.247,43.687    c-1.312,16.33-15.717,62.745-6.633,89.98c5.601,16.793,20.742,37.013,56.215,51.909c16.826,7.066,35.36,22.186,21.108,31.837    c20.418-2.077,42.218-22.947,54.665-48.55c-9.173,15.652-24.441,33.953-44.73,41.266    C269.635,352.822,255.652,342.796,237.923,336.236z"/>
		<path fill="#AEB1BF" d="M271.27,190.213c-3.933,1.829-8.754,1.132-12.472,0.849c-6.584-0.501-29.242-1.771-34,4.016    c-3.459,4.206-22.18,12.959-22.816,0.863c-9.505,18.338,8.516,26.519,20.95,20.633c26.764,19.472,46.398,4.673,43.849-10.532    c5.322-0.595,9.134-5.752,9.429-11.044C274.582,193.434,272.983,191.886,271.27,190.213z"/>
	</g>
	<path fill="#E27844" d="M222.205,213.501c4.995-4.434,45.403-15.659,44.091-11.61c-1.506,4.647-1.949,16.326-13.937,19.119   C242.803,223.238,231.891,220.264,222.205,213.501z"/>
	<g>
		<path fill="#04070D" d="M264.293,199.041c-5.649,1.959-8.619,1.067-17.618,2.475c-8.03,1.257-17.024,4.249-20.163,12.266    c5.575,1.523,14.265,5.417,24.13,3.75C260.183,215.92,261.855,207.174,264.293,199.041z"/>
		<path fill="#F7F7D9" d="M228.893,205.902c0.428,1.159,1.885,3.637,7.12,6.519c3.974,2.188,19.746-0.499,22.365-4.005    c1.549-2.074,3.372-5.786,3.75-8.046C262.3,199.345,228.893,205.902,228.893,205.902z"/>
		<path fill="#D4D4B0" d="M228.893,205.902c0.231,0.626,1.398,3.366,5.761,5.743c7.319-2.194,12.106-4.987,13.941-7.064    c2.302,1.208,7.514,2.425,11.074,1.85c1.467-2.246,2.307-5.16,2.458-6.063C262.3,199.345,228.893,205.902,228.893,205.902z"/>
	</g>
	<path fill="#F5AB6C" d="M188.919,146.661c1.386,13.265,7.889,23.825,13.758,32.14c5.578,3.412,13.037,6.332,17.293,13.529   c18.033,3.631,14.156,17.135,31.876-6.039c0.957-8.283,2.899-11.912,5.11-18.215c-0.853-4.983-3.318-10.001-5.737-12.872   c1.056-9.051-0.511-17.906-2.904-21.094C236.671,133.375,188.03,138.151,188.919,146.661z"/>
	<g>
		<path fill="#C95E31" d="M225.356,154.971c1.621,5.511-0.939,11.119-5.719,12.525c-4.78,1.406-9.969-1.921-11.59-7.432    s0.939-11.119,5.719-12.525C218.546,146.132,223.735,149.459,225.356,154.971z"/>
		<path fill="#F2F2F2" d="M224.841,155.923c1.371,4.661-0.794,9.404-4.837,10.593s-8.431-1.625-9.803-6.286    c-1.371-4.661,0.794-9.404,4.837-10.593C219.081,148.447,223.47,151.262,224.841,155.923z"/>
		<path fill="#1F315C" d="M224.307,155.774c1.11,2.815,0.03,5.878-2.412,6.84c-2.442,0.963-5.321-0.539-6.431-3.355    c-1.11-2.815-0.03-5.878,2.411-6.84C220.318,151.457,223.197,152.959,224.307,155.774z"/>
		<path fill="#EB834B" d="M225.839,158.077c-2.106,1.8-7.353,5.051-16.557,4.791c2.49,5.605,6.209,8.852,10.689,7.816    C225.263,169.459,226.603,162.237,225.839,158.077z"/>
	</g>
	<g>
		<path fill="#C95E31" d="M249.551,152.88c0.006,4.818-3.377,8.728-7.556,8.733s-7.571-3.897-7.576-8.715    c-0.006-4.818,3.377-8.728,7.556-8.733C246.153,144.16,249.545,148.062,249.551,152.88z"/>
		<path fill="#F2F2F2" d="M248.911,153.525c0.005,4.075-2.856,7.382-6.391,7.386s-6.403-3.296-6.408-7.371s2.856-7.382,6.391-7.386    S248.907,149.45,248.911,153.525z"/>
		<path fill="#1F315C" d="M248.552,152.671c0.549,2.478-0.748,4.873-2.897,5.349s-4.336-1.147-4.885-3.625s0.748-4.873,2.897-5.349    C245.816,148.57,248.003,150.193,248.552,152.671z"/>
		<path fill="#EB834B" d="M249.297,155.122c-2.895,1.637-7.845,2.395-14.238,1.286c0,3.717,1.99,9.195,7.452,9.459    C247.063,166.086,249.297,162.369,249.297,155.122z"/>
	</g>
	<g>
		<path fill="#BCCAD1" d="M272.72,182.759c1.287,9.909-5.807,5.847-11.341-1.03c-14.005-17.4-43.717-7.528-48.01,8.396    c-2.35,8.717-11.487,13.705-10.961,2.989c-13.283,25.318,22.865,30.195,45.558,9.988    C266.183,211.085,285.075,197.634,272.72,182.759z"/>
		<path fill="#ADB2C4" d="M219.244,180.922c9.778,25.909,47.66,14.644,32.831-6.26C241.051,169.953,227.192,173.547,219.244,180.922    z"/>
		<path fill="#ADB2C4" d="M276.044,188.545c-0.098-0.298-0.213-0.599-0.335-0.9c-3.242,10.93-19.238-2.037-23.598-10.848    c-1.127-1.335-0.718,1.615-1.497,1.069C261.575,195.733,273.841,196.676,276.044,188.545z"/>
		<path fill="#ADB2C4" d="M263.012,205.154c0.19-0.031,0.376-0.071,0.564-0.106c-7.236-4.437-11.56-13.387-15.528-21.408    c-1.127-1.335-0.718,1.615-1.497,1.069C248.559,190.046,254.665,200.527,263.012,205.154z"/>
		<path fill="#ADB2C4" d="M235.086,184.254c2.507,6.472,7.242,16.016,1.51,26.494c0.545-0.268,1.087-0.552,1.628-0.843    c5.405-7.844,5.137-14.88,2.874-23.807C240.584,184.429,235.589,185.061,235.086,184.254z"/>
		<g>
			<path fill="#ADB2C4" d="M230.655,185.279c0.191-0.819,0.262-0.932,0.282-0.936c-0.009-0.023-0.024-0.106-0.032-0.375     c-7.236-1.683-8.846,1.3-11.228,4.803c-7.519,11.057-17.326,20.232-19.957,12.066c-0.056,0.382-0.094,0.756-0.121,1.124     c2.725,9.884,15.469-0.062,22.501-9.983C225.094,187.757,226.446,185.76,230.655,185.279z"/>
			<path fill="#9FA6BD" d="M230.937,184.343C230.944,184.362,230.947,184.341,230.937,184.343L230.937,184.343z"/>
		</g>
	</g>
	<path fill="#EB673B" d="M227.923,168.866c-3.894-1.584-17.489,10.513,1.518,20.832s27.378-4.105,24.551-11.064   s-13.528-26.128-21.515-25.739C224.49,153.284,227.329,167.414,227.923,168.866z"/>
	<path fill="#CC4B2B" d="M227.923,168.866c-3.894-1.584-17.489,10.513,1.518,20.832s27.378-4.105,24.551-11.064   c1.914,9.54-10.242,17.077-23.693,9.54c-4.967-2.784-6.855-4.704-7.854-6.88c-3.622-7.893,2.97-13.084,5.049-11.863   c1.372,0.806,1.732,1.445,2.425,3.127C230.03,171.002,228.979,169.537,227.923,168.866z"/>
	<path fill="#DBE5E6" d="M205.481,162.301c5.43-7.84,11.612-13.476,19.77-19.698c-1.814-5.796-8.541-12.731-13.15-7.645   C207.13,140.444,203.17,155.33,205.481,162.301z"/>
	<path fill="#DBE5E6" d="M252.212,151.093c-3.373-2.316-11.146-6.055-18.754-7.985c-0.252-6.068,2.785-13.726,9.145-9.936   C249.506,137.285,250.928,142.17,252.212,151.093z"/>
	<path fill="#4D5399" d="M180.076,39.483c-20.789,1.584-35.044-8.712-31.876-19.799c3.408-11.927,37.512,0.124,44.335,14.926   c9.313,20.206,22.83,42.867,31.386,55.119s-55.282,29.062-51.873,10.691S185.068,61.953,180.076,39.483z"/>
	<path fill="#8C4712" d="M228.871,92.799c3.663,3.168-0.693,6.633-2.97,8.316c2.079,1.584,12.374,13.562,13.265,16.334   c3.861-0.693,6.534,0.792,2.376,7.029c-4.158,6.237-67.019,19.7-73.256,18.413s-11.384-9.899,1.287-8.613   c2.772-6.93,3.267-18.71,4.653-20.987c-3.465-0.495-11.186-6.633,1.881-12.176C189.174,95.571,225.208,89.631,228.871,92.799z"/>
	<polygon fill="#C1D1D6" points="203.813,133.863 210.401,133.473 208.015,93.223 208.015,93.223 208.015,93.223 207.768,89.044    201.18,89.434 177.69,98.047 180.155,139.644 183.449,139.448 181.07,99.319 201.492,94.698  "/>
	
		<rect x="196.004" y="109.837" transform="matrix(0.9774 -0.2116 0.2116 0.9774 -19.0338 45.1)" fill="#C1D1D6" width="10.427" height="3.3"/>
	<path fill="#4D5399" d="M102.737,189.921c0,0,51.978-54.69,103.955-64.181c51.978-9.492,106.667,6.78,114.351,10.396   C288.135,131.743,216.009,124.31,102.737,189.921z"/>
	<path fill="#778CC9" d="M216.265,144.177c63.051-17.025,100.654-4.175,106.982-4.476s11.16-7.384-2.204-8.386   c-14.297-1.072-57.682-3.645-104.927,8.498c-56.271,14.463-107.233,41.503-118.2,50.109c-8.232,6.459-1.921,11.96,4.143,6.931   C111.859,188.725,142.613,164.064,216.265,144.177z"/>
	<g>
		<path fill="#322847" d="M310.05,62.945c-2.555-2.476-4.9,6.384-4.9,6.384l-3.533,13.986c0,0,1.249-1.064,4.697-6.987    c3.239-5.563,2.985-7.611,1.637-9.706C309.211,66.653,312.605,65.421,310.05,62.945z"/>
		<path fill="#5BBEF7" d="M306.512,70.016c0,0-8.184-14.141-14.938-17.186c-7.905,1.675-13.716,15.417-13.107,19.681    c0.774,5.416,5.916,4.45,14.349,2.346c-0.663,3.435,0.799,8.076,2.015,9.231c2.752,2.617,4.988-2.26,9.985-8.134    C306.33,72.131,306.512,70.016,306.512,70.016z"/>
		<path fill="#274E8F" d="M290.291,68.888c-0.005-0.838-1.542-1.957-3.259-2.802c-2.499-1.23-4.306,1.483-4.222,3.618    c0.084,2.135,1.9,2.904,4.357,2.055C288.827,71.184,290.297,70.041,290.291,68.888z"/>
		<path fill="#274E8F" d="M298.234,76.786c-0.379-0.198-1.25,0.229-2.04,0.802c-1.15,0.834-0.357,2.295,0.625,2.766    c0.983,0.471,1.763-0.165,1.965-1.475C298.921,77.993,298.756,77.058,298.234,76.786z"/>
		<g>
			<path fill="#99DBEB" d="M304.815,75.954L304.815,75.954c-0.008,0.01-0.016,0.019-0.024,0.029     C304.799,75.973,304.807,75.964,304.815,75.954z"/>
			<path fill="#99DBEB" d="M291.211,53.392c6.714,2.682,13.07,14.025,15.3,16.624l0,0c-0.002-0.003-8.184-14.141-14.938-17.186     c-7.905,1.675-13.716,15.417-13.107,19.681c0.774,5.416,5.916,4.45,14.349,2.346c-0.663,3.435,0.799,8.076,2.015,9.231     c2.547,2.422,4.656-1.578,8.917-6.843c-10.347,12.101-10.508-0.496-9.892-3.184C278.962,79.045,272.582,67.309,291.211,53.392z"/>
		</g>
		<path fill="#336BAB" d="M279.775,66.054c14.594,0.88,24.291,3.248,26.636,4.629c0.036-0.203,0.062-0.36,0.076-0.467    c-5.829-3.073-18.448-3.863-26.694-4.206C279.787,66.023,279.781,66.038,279.775,66.054z"/>
		<path fill="#336BAB" d="M304.634,66.991c-5.722-4.423-13.377-8.758-18.062-11.409c-0.017,0.015-0.033,0.031-0.05,0.046    c9.641,5.91,15.752,10.286,19.34,13.308C305.551,68.428,305.135,67.764,304.634,66.991z"/>
		<path fill="#336BAB" d="M305.845,72.983c0.09-0.304,0.17-0.588,0.238-0.847c-4.386,0.92-9.193,2.395-13.402,3.812    c-0.012,0.171-0.019,0.342-0.023,0.516C298.162,74.896,302.493,73.758,305.845,72.983z"/>
		<path fill="#322847" d="M308.525,63.496c0.661-0.805,1.12-1.804,1.249-2.816c0.154-1.016-0.099-2.035-0.572-2.913    c-0.11-0.197-0.04-0.446,0.156-0.556c0.197-0.11,0.446-0.04,0.556,0.157c0.006,0.01,0.014,0.027,0.018,0.037    c0.457,1.054,0.634,2.262,0.363,3.369c-0.248,1.111-0.82,2.101-1.597,2.895c-0.047,0.048-0.124,0.049-0.172,0.002    c-0.046-0.044-0.049-0.116-0.009-0.164L308.525,63.496z"/>
		<path fill="#322847" d="M309.169,63.579c0.892-0.538,1.659-1.326,2.118-2.237c0.485-0.906,0.587-1.951,0.435-2.937    c-0.038-0.222,0.111-0.433,0.333-0.472c0.222-0.038,0.433,0.111,0.472,0.333c0.002,0.011,0.004,0.03,0.005,0.041    c0.079,1.146-0.158,2.343-0.784,3.297c-0.605,0.964-1.475,1.706-2.472,2.195c-0.06,0.03-0.134,0.005-0.163-0.056    c-0.028-0.057-0.007-0.125,0.046-0.158L309.169,63.579z"/>
	</g>
</g>
</svg>
