<svg id="Capa_1" enable-background="new 0 0 512 512" height="512" viewBox="0 0 512 512" width="512" xmlns="http://www.w3.org/2000/svg"><g><path d="m472.293 504.908h-181.936c-20.753 0-37.576-16.823-37.576-37.576v-184.067c0-20.753 16.823-37.576 37.576-37.576h181.936c20.753 0 37.576 16.823 37.576 37.576v184.068c0 20.752-16.824 37.575-37.576 37.575z" fill="#fdb441"/><path d="m474.424 245.689h-26.75c20.753 0 37.576 16.823 37.576 37.576v184.068c0 20.752-16.823 37.576-37.576 37.576h26.75c20.753 0 37.576-16.823 37.576-37.576v-184.068c0-20.753-16.823-37.576-37.576-37.576z" fill="#fd9468"/><path d="m290.093 457.586c.022-31.982.093-132.759.142-164.746.008-5.444 4.424-9.846 9.868-9.846l164.499-.006c5.444 0 9.859 4.401 9.868 9.844.054 32.005-.015 132.887-.039 164.916-.004 5.45-4.419 9.858-9.869 9.854-31.989-.023-132.649-.098-164.625-.149-5.445-.008-9.848-4.421-9.844-9.867z" fill="#dedbee"/><path d="m450.491 448.41c-38.232-.029-101.943-.078-136.45-.119-2.633-.003-4.758-2.131-4.756-4.765.025-35.366.073-101.232.114-136.594.003-2.632 2.138-4.756 4.77-4.756l136.364-.006c2.633 0 4.768 2.125 4.77 4.759.02 34.538-.016 98.407-.043 136.719-.002 2.634-2.135 4.764-4.769 4.762z" fill="#f9f7f8"/><path d="m436.14 289.725h-181.937c-20.752 0-37.576-16.823-37.576-37.576v-184.068c0-20.752 16.823-37.576 37.576-37.576h181.937c20.753 0 37.576 16.823 37.576 37.576v184.068c-.001 20.752-16.824 37.576-37.576 37.576z" fill="#fe73c5"/><path d="m438.271 30.506h-26.75c20.753 0 37.576 16.823 37.576 37.576v184.068c0 20.753-16.823 37.576-37.576 37.576h26.75c20.753 0 37.576-16.823 37.576-37.576v-184.069c0-20.752-16.824-37.575-37.576-37.575z" fill="#fe4fb7"/><path d="m253.94 242.402c.022-31.982.093-132.759.142-164.746.008-5.444 4.424-9.846 9.868-9.846l164.499-.006c5.444 0 9.859 4.401 9.868 9.844.054 32.005-.015 132.887-.039 164.916-.004 5.45-4.419 9.858-9.869 9.854-31.989-.023-132.649-.098-164.625-.149-5.445-.007-9.848-4.42-9.844-9.867z" fill="#dedbee"/><path d="m414.338 233.227c-38.232-.029-101.943-.078-136.45-.119-2.633-.003-4.758-2.131-4.756-4.765.025-35.366.073-101.232.114-136.594.003-2.632 2.138-4.756 4.77-4.756l136.364-.006c2.633 0 4.768 2.125 4.77 4.759.02 34.538-.016 98.407-.043 136.719-.002 2.634-2.135 4.764-4.769 4.762z" fill="#f9f7f8"/><path d="m277.555 458.832h-181.936c-20.752 0-37.576-16.823-37.576-37.576v-184.068c0-20.753 16.823-37.576 37.576-37.576h181.936c20.753 0 37.576 16.823 37.576 37.576v184.068c0 20.752-16.823 37.576-37.576 37.576z" fill="#ffe270"/><path d="m279.687 199.613h-26.75c20.753 0 37.576 16.823 37.576 37.576v184.068c0 20.752-16.823 37.576-37.576 37.576h26.75c20.753 0 37.576-16.823 37.576-37.576v-184.069c-.001-20.752-16.824-37.575-37.576-37.575z" fill="#ffd250"/><path d="m95.355 411.509c.022-31.982.093-132.759.142-164.746.008-5.444 4.424-9.846 9.868-9.846l164.499-.006c5.444 0 9.859 4.401 9.868 9.844.054 32.005-.015 132.887-.039 164.916-.004 5.45-4.419 9.858-9.869 9.854-31.989-.023-132.649-.098-164.625-.149-5.445-.007-9.847-4.42-9.844-9.867z" fill="#dedbee"/><path d="m255.753 402.334c-38.232-.029-101.943-.078-136.45-.119-2.633-.003-4.758-2.131-4.756-4.765.025-35.366.073-101.232.114-136.594.003-2.632 2.138-4.756 4.77-4.756l136.364-.006c2.633 0 4.768 2.125 4.77 4.759.02 34.538-.016 98.406-.043 136.719-.002 2.634-2.134 4.764-4.769 4.762z" fill="#f9f7f8"/><path d="m219.512 266.311h-181.936c-20.753 0-37.576-16.823-37.576-37.576v-184.067c0-20.753 16.823-37.576 37.576-37.576h181.936c20.752 0 37.576 16.823 37.576 37.576v184.068c0 20.752-16.824 37.575-37.576 37.575z" fill="#9be69d"/><path d="m221.643 7.092h-26.75c20.752 0 37.576 16.823 37.576 37.576v184.068c0 20.752-16.823 37.576-37.576 37.576h26.75c20.753 0 37.576-16.823 37.576-37.576v-184.068c0-20.753-16.823-37.576-37.576-37.576z" fill="#6fd7a3"/><path d="m37.312 218.989c.022-31.982.093-132.759.142-164.746.008-5.444 4.424-9.846 9.868-9.846l164.499-.006c5.444 0 9.859 4.401 9.868 9.844.054 32.005-.015 132.887-.039 164.916-.004 5.45-4.419 9.858-9.869 9.854-31.989-.023-132.649-.098-164.625-.149-5.445-.008-9.848-4.421-9.844-9.867z" fill="#dedbee"/><path d="m197.71 209.813c-38.232-.029-101.943-.078-136.45-.119-2.633-.003-4.758-2.131-4.756-4.765.025-35.366.073-101.232.114-136.594.003-2.632 2.138-4.756 4.77-4.756l136.364-.006c2.633 0 4.768 2.125 4.77 4.759.02 34.538-.016 98.407-.043 136.719-.002 2.635-2.135 4.764-4.769 4.762z" fill="#f9f7f8"/><g fill="#574d56"><path d="m377.685 329.322h-21.662c-4.271 0-7.735 3.47-7.726 7.74v.063.003 75.161c0 5.87 3.768 8.969 7.881 8.969h.029c.654-.003 16.088-.061 22.246-.169 21.928-.383 37.843-19.644 37.843-45.799 0-27.495-15.517-45.968-38.611-45.968zm.499 76.316c-3.26.057-9.352.101-14.306.13l-.115-60.993h13.922c17.075 0 23.159 15.764 23.159 30.515 0 14.426-7.092 30.076-22.66 30.348z"/><path d="m164.369 176.402 15.417-77.463c.832-4.185-1.885-8.253-6.07-9.086-4.187-.835-8.253 1.884-9.086 6.069l-10.774 54.132-16.956-55.042c-1.256-4.078-5.582-6.365-9.658-5.11-2.813.867-4.772 3.193-5.306 5.891l-16.797 54.266-10.736-54.271c-.828-4.186-4.893-6.903-9.079-6.08-4.186.828-6.908 4.892-6.08 9.078l15.356 77.63c.791 4.004 4.583 7.411 9.256 7.411.021 0 .043 0 .064-.001 4.211-.028 7.834-2.836 9.001-6.647l16.601-53.634 16.629 53.957c1.346 3.79 4.94 6.325 8.957 6.325.021 0 .043 0 .064-.001 4.633-.031 8.395-3.41 9.197-7.424z"/><path d="m216.591 310.29c0-15.554-13.175-28.209-29.369-28.209h-20.944c-.004 0-.008.001-.013.001-.004 0-.008-.001-.012-.001-4.267 0-7.726 3.459-7.726 7.726v78.814c0 4.268 3.459 7.726 7.726 7.726s7.726-3.459 7.726-7.726v-27.941l29.085 33.046c1.527 1.735 3.659 2.622 5.803 2.622 1.813 0 3.634-.635 5.102-1.927 3.203-2.819 3.515-7.701.695-10.904l-22.393-25.443c13.796-2.308 24.32-13.884 24.32-27.784zm-29.369 12.756c-3.024 0-8.525.024-13.116.048l-.077-25.561h13.193c7.543 0 13.916 5.842 13.916 12.757 0 6.914-6.372 12.756-13.916 12.756z"/><path d="m393.276 160.107c0-25.989-21.144-47.133-47.133-47.133-25.99 0-47.134 21.144-47.134 47.133 0 25.99 21.144 47.134 47.134 47.134 25.989-.001 47.133-21.144 47.133-47.134zm-47.132 31.681c-17.469 0-31.681-14.212-31.681-31.681s14.212-31.68 31.681-31.68 31.68 14.211 31.68 31.68-14.212 31.681-31.68 31.681z"/></g></g></svg>