<svg id="Layer_2" viewBox="0 0 64 64" xmlns="http://www.w3.org/2000/svg" data-name="Layer 2"><path d="m36.62 59.34v-7.67c0-.07.01-.13.04-.19l2.32-5.5v-16.43l-1.84-6.24s-.02-.09-.02-.14v-4.21c-.14-4.03-3.82-13.12-5.12-16.23-1.3 3.1-4.98 12.2-5.12 16.25v4.2s0 .09-.02.14l-1.84 6.24v16.43l2.32 5.5c.02.06.04.13.04.19v7.67h.25c.23 0 .43.16.48.39l.49 2.29h1.61l.34-2.26c0-.07.03-.13.07-.18l.96-1.59c.18-.29.66-.29.84 0l.97 1.59c.03.06.06.12.07.18l.34 2.26h1.61l.49-2.29c.05-.23.25-.39.48-.39h.25zm-2.14-11.65-.66 5.19c-.12.91-.9 1.6-1.82 1.6s-1.7-.69-1.82-1.6l-.66-5.13v-8.85c0-1.37 1.11-2.48 2.48-2.48s2.48 1.11 2.48 2.48v8.78zm-2.48-14.61c-1.7 0-2.48-4.17-2.48-8.04s.78-8.04 2.48-8.04 2.48 4.17 2.48 8.04-.78 8.04-2.48 8.04z" fill="#575ecb"/><path d="m39.97 34.58 4.72 2.82v-2.6l-4.72-4.22z" fill="#e03838"/><path d="m39.97 35.73v10.13l5.97 5.32h3.14l11.45 1.54-.52-5.03-20.03-11.95zm16.32 13.15c-.07.2-.26.33-.46.33-.02 0-.04 0-.07 0l-6.04-.81h-2.59c-.12 0-.24-.04-.33-.12l-3.42-3.04c-.11-.09-.17-.23-.17-.37v-3.38c0-.18.1-.34.25-.43.16-.09.34-.09.5 0l12.11 7.23c.2.12.29.36.21.59z" fill="#3c46ae"/><path d="m60.72 46.96-15.04-8.98v-3.4c0-.14-.06-.27-.16-.37l-5.6-5.02-1.8-6.1v-4.16c-.18-5.08-5.43-17.15-5.65-17.67-.16-.36-.75-.36-.9 0-.22.51-5.47 12.59-5.65 17.68v4.14l-1.8 6.1-5.61 5.02c-.1.09-.16.23-.16.37v3.4l-15.04 8.98c-.13.08-.22.22-.24.37l-.61 5.9c-.02.15.04.3.15.4.09.09.22.14.34.14h.07l11.94-1.61h10.23l-5 3.11c-.15.09-.23.25-.23.42v3.58c0 .14.06.28.17.37.09.08.2.12.32.12h.08l5.9-.94v1.01c0 .27.22.49.49.49h.34l.49 2.29c.05.23.25.39.48.39h2.43c.24 0 .45-.18.49-.42l.39-2.58.49-.81.49.81.39 2.58c.04.24.24.42.49.42h2.43c.23 0 .43-.16.48-.39l.49-2.29h.34c.27 0 .49-.22.49-.49v-1.01l5.9.94s.05 0 .08 0c.12 0 .23-.04.32-.12.11-.09.17-.23.17-.37v-3.58c0-.17-.09-.33-.23-.42l-5.01-3.11h10.18s12 1.61 12 1.61h.07c.13 0 .25-.05.34-.14.11-.11.16-.25.15-.4l-.61-5.9c-.02-.15-.1-.29-.24-.37zm-11.64 4.21h-3.14l-5.97-5.32v-10.13l20.03 11.95.52 5.03-11.45-1.54zm-5.99 7.52-5.48-.87v-5.27l5.48 3.41zm-7.2 1.03-.49 2.29h-1.61l-.34-2.26c0-.07-.03-.13-.07-.18l-.97-1.59c-.18-.29-.66-.29-.84 0l-.96 1.59c-.03.06-.06.12-.07.18l-.34 2.26h-1.61l-.49-2.29c-.05-.23-.25-.39-.48-.39h-.25v-7.67c0-.07-.01-.13-.04-.19l-2.32-5.5v-16.43l1.84-6.24s.02-.09.02-.14v-4.2c.14-4.04 3.82-13.14 5.12-16.25 1.3 3.1 4.98 12.2 5.12 16.23v4.21s0 .09.02.14l1.84 6.24v16.43l-2.32 5.5c-.02.06-.04.13-.04.19v7.67h-.25c-.23 0-.43.16-.48.39zm-9.49-1.9-5.48.87v-2.73l5.48-3.41zm-22.92-5.11.52-5.03 15.06-8.99s0 0 .01 0l4.96-2.96v10.13l-5.97 5.32h-3.2s-11.39 1.53-11.39 1.53zm15.83-17.91 4.72-4.23v4l-4.72 2.82zm.23 16.37 4.79-4.27 1.81 4.27zm25.14-13.78-4.72-2.82v-4l4.72 4.23zm-6.84 13.78 1.81-4.28 4.79 4.28z"/><path d="m24.03 45.86v-10.13l-4.96 2.96s0 0-.01 0l-15.06 8.99-.52 5.03 11.39-1.53h3.2s5.97-5.33 5.97-5.33zm-9.99 2.57-5.79.77s-.04 0-.07 0c-.21 0-.4-.13-.46-.33-.08-.22.01-.47.21-.59l12.11-7.23c.15-.09.34-.09.5 0 .15.09.25.25.25.43v3.38c0 .14-.06.27-.17.37l-3.42 3.04c-.09.08-.21.12-.33.12l-2.83.03z" fill="#3c46ae"/><path d="m44.45 51.18-4.79-4.28-1.81 4.28z" fill="#e03838"/><path d="m44.21 44.64 3.11 2.77 2.8.05 3.39.45-9.3-5.56z" fill="#f9be56"/><path d="m56.07 48.29-12.11-7.23c-.15-.09-.34-.09-.5 0-.15.09-.25.25-.25.43v3.38c0 .14.06.27.17.37l3.42 3.04c.09.08.21.12.33.12h2.59s6.04.81 6.04.81h.07c.21 0 .4-.13.46-.33.08-.22-.01-.47-.21-.59zm-5.96-.84-2.8-.04-3.11-2.77v-2.29l9.31 5.56-3.4-.45z"/><path d="m16.68 47.41 3.12-2.77v-2.29l-9.31 5.56 3.64-.49z" fill="#f9be56"/><path d="m20.62 45.23c.11-.09.17-.23.17-.37v-3.38c0-.18-.1-.34-.25-.43s-.34-.09-.5 0l-12.11 7.23c-.2.12-.29.36-.21.59.07.2.26.33.46.33h.07l5.79-.77 2.83-.03c.12 0 .24-.04.33-.12l3.42-3.04zm-.82-2.88v2.29l-3.11 2.77h-2.55s-3.64.5-3.64.5l9.31-5.56z"/><path d="m37.61 57.82 5.48.87v-2.72l-5.48-3.41z" fill="#3c46ae"/><path d="m24.03 30.58-4.72 4.22v2.6l4.72-2.82z" fill="#e03838"/><path d="m24.34 46.9-4.79 4.28h6.6z" fill="#e03838"/><path d="m20.91 58.69 5.49-.87v-5.26l-5.49 3.41z" fill="#3c46ae"/><path d="m33.5 25.04c0-4.66-1.05-7.06-1.5-7.06s-1.5 2.4-1.5 7.06 1.05 7.06 1.5 7.06 1.5-2.4 1.5-7.06z" fill="#f9be56"/><path d="m32 17c-1.7 0-2.48 4.17-2.48 8.04s.78 8.04 2.48 8.04 2.48-4.17 2.48-8.04-.78-8.04-2.48-8.04zm-1.5 8.04c0-4.66 1.05-7.06 1.5-7.06s1.5 2.4 1.5 7.06-1.05 7.06-1.5 7.06-1.5-2.4-1.5-7.06z"/><path d="m33.5 38.91c0-.82-.67-1.5-1.5-1.5s-1.5.67-1.5 1.5v8.78l.66 5.07c.05.42.41.74.84.74s.78-.32.84-.74l.66-5.13z" fill="#f9be56"/><path d="m32 36.43c-1.37 0-2.48 1.11-2.48 2.48v8.85s.66 5.13.66 5.13c.12.91.9 1.6 1.82 1.6s1.7-.69 1.82-1.6l.66-5.19v-8.78c0-1.37-1.11-2.48-2.48-2.48zm0 17.07c-.42 0-.78-.32-.84-.74l-.66-5.07v-8.78c0-.82.67-1.5 1.5-1.5s1.5.67 1.5 1.5v8.72s-.66 5.13-.66 5.13c-.05.42-.42.74-.84.74z"/></svg>