<svg enable-background="new 0 0 512 512" viewBox="0 0 512 512" xmlns="http://www.w3.org/2000/svg"><g id="Layer_31" display="none"><g display="inline"><g fill="none" stroke-miterlimit="10"><g stroke="#9e9e9e"><ellipse cx="256" cy="256" rx="248.1" ry="248.3"/><path d="m398.8 504.5h-285.6c-18.8 0-34.1-15.3-34.1-34.1v-428.8c0-18.8 15.3-34.1 34.1-34.1h285.5c18.8 0 34.1 15.3 34.1 34.1v428.9c.1 18.8-15.2 34-34 34z"/><path d="m7.9 399.8v-287.6c0-16.4 13.3-29.8 29.8-29.8h436.7c16.4 0 29.8 13.3 29.8 29.8v287.6c0 16.4-13.3 29.8-29.8 29.8h-436.8c-16.4 0-29.7-13.4-29.7-29.8z"/><path d="m440.4 469.9h-368.8c-16.4 0-29.8-13.3-29.8-29.8v-368.2c0-16.4 13.3-29.8 29.8-29.8h368.8c16.4 0 29.8 13.3 29.8 29.8v368.2c0 16.4-13.4 29.8-29.8 29.8z"/></g><path d="m7.5 7.5h497v497h-497z" stroke="#d81c24" transform="matrix(0 1 -1 0 512 0)"/></g></g></g><g id="Layer_56" display="none"/><g id="_x35_0_pani_puri" display="none"/><g id="_x34_9_kashmiri_aab_gosht"/><g id="_x34_8_pitha_in_assam"/><g id="_x34_7_malaiyo"/><g id="_x34_6_awan_bangwi"/><g id="_x34_5_Indian_lamb_chops"/><g id="_x34_4_rasmalai"/><g id="_x34_3_rajma_kebab"/><g id="_x34_2_belt"/><g id="_x34_1_backpack"/><g id="_x34_0_sleeveless_t-shirt"/><g id="_x33_9_online_exam"/><g id="_x33_8_task"/><g id="_x33_7_mobile_learning"/><g id="_x33_6_math"/><g id="_x33_5_robotics"/><g id="_x33_4_study_time"/><g id="_x33_3_chemical"/><g id="_x33_2_certificate"/><g id="_x33_1_test_scores"/><g id="_x33_0_medal"/><g id="_x32_9_coding"/><g id="_x32_8_math"/><g id="_x32_7_chemistry_olympiad"/><g id="_x32_6_lecturer"/><g id="_x32_5_scholarship"/><g id="_x32_4_online_learning"/><g id="_x32_3_exams"/><g id="_x32_2_online_education"/><g id="_x32_1_college_student"/><g id="_x32_0_teach"/><g id="_x31_9_college_student"/><g id="_x31_8_backpack"/><g id="_x31_7_lectern"/><g id="_x31_6_college_chair"/><g id="_x31_5_mail"/><g id="_x31_4_graduates"/><g id="_x31_3_college_book"/><g id="_x31_2_graduates"/><g id="_x31_1_research"/><g id="_x31_0_stationary"/><g id="_x30_9_book"/><g id="_x30_8_locker"/><g id="_x30_7_folder"/><g id="_x30_6_notebooks"/><g id="_x30_5_test_scores"/><g id="_x30_4_tuition_fee"/><g id="_x30_3_jersey_shirt"/><g id="_x30_2_audiobook"/><g id="_x30_1_id_card"/><g id="Layer_54"/><g id="Layer_57" display="none"/><g id="Layer_55"><g><g><g><g><g><g><path d="m247.6 108.8c8.6-1.2 17.2-1 25.8-.4 5.4.4 10.9.7 16.3 1 .7 0 1.5 0 2.2.1 9.1 1.5 18.2 2.9 27.3 4.4 4.1.7 7.9 2.5 11.5 4.5 1.2.6 2.3 1.3 3.5 2 2.2 1.2 4.3 2 7.1 1.6 3.3-.5 6.7.6 10.1 1.3 9.5 2 18.9 4.5 27.5 9.4 3.1 1.8 5.6 4.2 8 6.7 1.4 1.5 1.1 2.7-.7 3.8-2.2 1.3-147.5 71.8-272.7 9.1-1.1-.9-.6-2.5-.4-3.8.4-2 1.4-3.4 2.9-4.8 6.1-5.6 13.5-8.9 20.7-12.7 10.3-5.5 21.3-7.2 32.5-8.1 2.9-.3 5.9-.1 8.7.6 1.9.5 3.6.2 5.3-.4 10.2-3.6 20.6-6.3 31.5-7.1 1-.1 1.9-.5 2.8-.8 4.5-1.7 9.1-3.3 13.8-4.5 1.2-.9 2.5-.6 3.8-.4 4.4.6 8.6.5 12.5-1.5z" fill="#d76027"/><path d="m241 107.3c-5 0-9.6-1.3-13.9-3.7-5.2-2.9-9.5-6.9-13-11.6-4.5-6.1-15-9.1-22.1-6.5-3.2 1.2-6.4 2-9.8 2.3-8.7.8-16.3 4.5-23.8 8.5-2.1 1.2-4.1 2.6-5.8 4.4-.6.7-1.2 1.3-.6 2.2 11-7.5 24.1-12.6 30.2-11.5-.8 1.2-1.7 2.4-2.3 3.7s-1.2 2.7-1.4 4.1c-1 4.7.6 10.3 6.1 12.7 6.9 3 15.1 1.1 19.9-4.4 3.2-3.5 3.6-8.5.3-12.6-1.6-2-3.5-3.7-5.8-4.9-.8-.5-1.7-.9-3-1.6 6.6-.1 11.6 1.6 15.4 6.5 5.3 7 11.8 12.5 20 15.8 3.5.4 6.9 1.3 10.4 1 2.3-.2 4.5-.6 5.8-2.9-2-1.2-4.3-1.5-6.6-1.5zm-37.9-9.5c1.8 2.8 1.5 5.2-.8 7.6-3.8 4.1-10.9 5.6-16.1 3.5-2.8-1.2-4.4-3.1-4.7-6.3-.5-5.7 4.4-11.8 10-11.6 4.6.3 8.8 2.4 11.6 6.8z" fill="#9cc04c"/><path d="m285.8 118.6c1.1 2 3 2.3 5 2.5 3.1.3 6-.5 9-.9 7.1-2.9 12.7-7.7 17.3-13.7 3.2-4.2 7.6-5.7 13.3-5.6-1.2.6-1.9 1-2.6 1.4-2 1.1-3.6 2.5-5 4.3-2.9 3.6-2.4 7.8.3 10.9 4.2 4.7 11.3 6.4 17.2 3.8 4.7-2 6.1-6.9 5.2-10.9-.2-1.2-.7-2.4-1.2-3.5s-1.3-2.1-2-3.2c5.2-.9 16.6 3.4 26.1 9.9.5-.8 0-1.4-.5-1.9-1.4-1.6-3.1-2.8-5-3.8-6.5-3.5-13.1-6.7-20.6-7.4-3-.3-5.7-1-8.4-2-6.1-2.2-15.1.4-19 5.6-3 4-6.7 7.5-11.2 10-3.8 2.1-7.7 3.2-12 3.2-2.2 0-4.1.3-5.9 1.3zm48.3-15.3c4.9-.2 9.1 5.1 8.7 10-.2 2.7-1.6 4.4-4 5.4-4.5 1.9-10.6.5-13.9-3-1.9-2.1-2.2-4.1-.7-6.5 2.4-3.9 6-5.7 9.9-5.9z" fill="#8baf3e"/></g><g><path d="m234.5 83.9c0-.7 0-1.5 0-2.2.2-4.2-1.5-7.3-5-9.5-5.4-3.3-11.1-6-17-8.3-10.9-4.2-21.3-9.4-30.5-16.9-.5-.4-1-.7-1.4-1.2-3.4-4.6-6.6-9.3-8-15-.8-3-.3-6 .6-9 .4-1.3 1.2-2.1 2.6-2.1 1.5 0 1.8 1.2 2 2.2 1.5 9.4 8.6 13.9 15.9 18.1 2.7 1.5 5.9 1.5 8.8 2.1 7.7 1.6 15.6 2.1 23.4 3.1 6.9.8 13.8.4 20.7.8 14.9.8 28.7 4.7 39.8 15.5 5.8 5.6 9.7 12.4 11.9 20.2 1.3 4.7 2.7 9.3 3.4 14.1.7 4.9 3.6 9 5.8 13.3.3.5.8 1 1 1.5 3.2 7.9 9.7 13 16.1 18.1 1.6 1.3 3.3 2.2 5.2 2.9 2.5.9 4.9 1.8 7.3 2.8 7.6 3.2 7.4 14-.3 16.9-27.9 10.6-109.8 14.3-141.2-6-1.3-2.8-.7-5.3 1.5-7.3 3.6-3.3 6.9-6.9 11.5-8.9 2.8-1.2 5-3.4 6.9-5.9 3.2-4.2 6.5-8.5 9.7-12.7 6.1-7.9 9.4-16.7 9.3-26.6z" fill="#9cc04c"/></g><g><path d="m275.2 110.1s-.5-.7-.9-1.9-.7-2.9-.3-4.7 1.4-3.2 2.2-4.1c.9-.9 1.6-1.4 1.6-1.4s.2.8.3 2 .2 2.8-.2 4.3c-.3 1.6-1.1 3-1.7 4-.5 1.1-1 1.8-1 1.8z" fill="#c0da73"/></g><g><path d="m295.2 120.5s-1-.4-2.3-1.4-2.9-2.6-3.9-4.9c-1-2.2-1.2-4.5-1.1-6.2.1-1.6.5-2.7.5-2.7s.7.8 1.5 2.1c.9 1.3 2 3 2.9 5s1.5 3.9 1.9 5.4c.3 1.6.5 2.7.5 2.7z" fill="#c0da73"/></g><g><path d="m287 98.9s-1.9-2-1.8-4.3 2.3-4 2.3-4 1.9 2 1.8 4.3-2.3 4-2.3 4z" fill="#c0da73"/></g><path d="m312.7 141.6c-37-18.4-34.8 3-37.7-3.2s-8.4-3.7-21.6-6.6 38.3-52.7-1.7-63.4-56.1-19-68.6-28.6-7.3-19.9-7.3-19.9c-1.4 0-2.3.8-2.6 2.1-.8 3-1.3 6-.6 9 1.4 5.7 4.6 10.4 8 15 .4.5.9.8 1.4 1.2 9.2 7.4 19.6 12.6 30.5 16.9 5.9 2.3 11.6 5 17 8.3 3.5 2.2 5.2 5.3 5 9.5v2.2c.2 10-3.2 18.8-9.2 26.7-3.2 4.3-6.5 8.5-9.7 12.7-1.9 2.5-4 4.6-6.9 5.9-4.6 2-7.9 5.6-11.5 8.9-2.2 2-2.9 4.5-1.5 7.3 23.9 15.5 76.8 17.1 113.1 12.3 10.4-5.8 13.9-11.4 3.9-16.3z" fill="#8baf3e"/><g><path d="m350.9 469.9c-18.1 16.5-41.3 24.2-61.3 6-13.9 21.2-41.6 19.2-61.5 8.8-3.8-2-9.1-7.8-13-8.9-3.8-1.1-6.1 3.9-9.5 6.6-9.3 7.5-21 7.7-32.3 5.8-5.5-.9-10.9-2.5-16-4.5-6.6-2.7-5.8-2.6-11.7.1-11.4 5.3-24 1.7-35.1-2.8-10.7-4.4-20.3-10.3-29.8-16.8-9.3-6.4-18.6-11.6-26.7-19.6-7.7-7.7-13.5-16.7-19.3-25.8-6.5-10.1-13.9-20.1-19-30.9-10.6-22.7-14.3-47.1-15.3-71.9-1-22.8.5-47 9.2-68.5 9-22.1 22.3-45 38-63.2 15.9-18.5 37.3-31.2 59.8-39.9 21.4-8.3 49.1-16.8 72.3-12.9 5.2.9 9.1 3.5 13.8 5.3 5 1.9 7.7 1.1 13.1 1.1 5.3 0 11.6.7 16.3 3.3 5.8 3.3 3.5 4.3 9.9 2.9 9.4-2.1 21.1-4.9 30.4-.9 2.2.9 10.8 9 12.6 8.9.3 0 4.4-3.9 5.2-4.5 2.8-2 6.1-4 9.5-5.2 7.1-2.5 11.6.8 18.3.1 4.3-.5 6.1-2.9 10.1-5.3 10.2-6.1 23.3-8.7 35.1-7.7 11.4.9 23 4.7 33.3 9.4 9.9 4.5 20.6 6.8 30.7 11.1 41.6 17.8 70 62.4 83.3 104.1 8.9 28 14.2 56.1 8.6 85.4-5 25.7-17.1 51-31.1 73-14.3 22.5-36.9 43-59.7 56.6-11.7 7-25.2 11.2-38.4 14.3-6.3 1.5-12 2.2-18.1-.1-8.9-3.2-7.2-7.2-11.7-13.4z" fill="#e37e25"/></g><g fill="#f48734"><path d="m169.5 148.7s-71.9 28.6-89.5 102.4 13.4 139.2 13.4 139.2l28.5 63.4s-47.7-48.3-61-114.4 15.9-175.1 108.6-190.6z"/><path d="m400.8 151.2s41.8 1.8 73.7 74.7 22.9 95 13.5 133.9-61.8 84.7-61.8 84.7 67.8-74.2 54.6-156.8-80-136.5-80-136.5z"/><path d="m330.9 167s51.4 33.6 68.6 79.5 12 91.5 0 126.9-40.4 71.1-40.4 71.1 96.7-139.1-28.2-277.5z"/><path d="m209 159.4s-51.1 67.1-45.8 144.7 34.5 136.1 34.5 136.1-39.7-49.2-49.6-124.6 21.4-117.9 60.9-156.2z"/><path d="m273.9 175.3s28.6 33.8 39.8 94-17.2 157.6-28 176.1-10.8 18.5-10.8 18.5 48-133.7-1-288.6z"/></g><g><path d="m102.1 308.2s-1.2-1.4-2.6-3.9-2.9-6.3-3.2-10.7.2-8.3 1-11.1 1.8-4.4 2.7-4.2c1.7.3 1.9 7 2.5 14.9.3 4 .2 7.7 0 10.5-.2 2.6-.4 4.5-.4 4.5z" fill="#f69148"/></g><g><path d="m106 429.7s-1.2-.9-2.9-2.5c-1.6-1.6-3.6-3.9-5.1-6.8-3-5.8-4.7-10.9-3.2-11.9 1.4-.9 5.5 3 8.7 9 1.6 3 2.2 6.1 2.5 8.4.2 2.2 0 3.8 0 3.8z" fill="#f69148"/></g><g><path d="m93.1 439s-4.2-1.1-6.1-4.4c-1.9-3.4-2.3-6.7-.8-7.5s4.2 1.2 6.1 4.4c1.8 3.2.8 7.5.8 7.5z" fill="#f69148"/></g><g><path d="m122.3 457s-1.3-.6-3-1.8-3.8-3.1-5.3-5.6c-3.1-5.1-4.1-10-2.6-10.8s4.9 2.7 7.9 7.7c1.5 2.5 2.2 5.1 2.6 7.1s.4 3.4.4 3.4z" fill="#f69148"/></g><g><path d="m310.6 311.6s-.5-1.8-1.2-4.6c-.6-2.8-1.5-6.4-2-10.5-1.1-8-2.6-14.6-1.1-15.4.8-.3 2.2 1 3.6 3.6 1.5 2.6 2.9 6.5 3.5 10.9.6 4.5-.1 8.6-1 11.4-.4 1.4-.9 2.5-1.3 3.3-.3.9-.5 1.3-.5 1.3z" fill="#f69148"/></g><g><path d="m302.5 340.1s-.9-1.1-1.8-2.8-2-4-2.4-6.7c-.8-5.3-.5-9.9 1.2-10.3 1.6-.4 4 3.8 4.9 9.4.4 2.8 0 5.4-.6 7.3-.6 2-1.3 3.1-1.3 3.1z" fill="#f69148"/></g><g><path d="m407.6 189.1s-2.2-1.1-5.5-3.1-7.7-4.9-12.1-8.7c-8.7-7.5-15.3-14.2-14.3-15.6 1-1.3 9.4 3.3 18.3 10.9 4.4 3.8 7.9 7.9 10.2 11.1 2.2 3.2 3.4 5.4 3.4 5.4z" fill="#f69148"/></g><g><path d="m436.6 189.8s-6.8-2.5-12.5-8.2-9.3-11.4-8.1-12.6 6.8 2.5 12.5 8.2c5.7 5.8 8.1 12.6 8.1 12.6z" fill="#f69148"/></g><g><path d="m428.2 202.5s-1.2-.2-2.9-.8-3.7-1.8-5.3-3.6c-3.2-3.8-4.5-7.8-3.1-8.8s4.7 1.2 7.8 4.8c1.5 1.8 2.4 3.9 2.9 5.5s.6 2.9.6 2.9z" fill="#f69148"/></g><g><path d="m122.9 388.6c-1.4-2.6-3.1-4.9-4.3-6.5-1.3-1.6-2.2-2.6-2.2-2.6s-.1 1.4.3 3.5c.3 2.1 1.1 4.9 2.6 7.7s3.5 4.9 5.1 6.3 2.8 2.1 2.8 2.1-.4-1.3-1.1-3.3c-.7-1.9-1.7-4.5-3.2-7.2z" fill="#e36b25"/><path d="m139.9 384.7s.1 4.2 2.4 8.1 5.9 6 5.9 6-.1-4.2-2.4-8.1c-2.3-4-5.9-6-5.9-6z" fill="#e36b25"/><path d="m136.2 420.3c-1.7-2.3-3.5-4.2-5-5.6-1.4-1.4-2.4-2.2-2.4-2.2s.1 1.3.7 3.2 1.6 4.5 3.4 7c1.8 2.4 4 4.2 5.7 5.3s2.9 1.6 2.9 1.6-.5-1.2-1.4-3c-1-1.7-2.2-4-3.9-6.3z" fill="#db6027"/><path d="m152.4 413.5s.6 5.4 3.6 10.8 7.2 8.8 7.2 8.8-.6-5.4-3.6-10.8c-2.9-5.4-7.2-8.8-7.2-8.8z" fill="#e36b25"/><path d="m326.8 197.1c-2.1-2.5-4.5-4.3-6.3-5.5s-3.1-1.8-3.1-1.8 2.2 5.2 6.3 10c4.2 4.8 9 7.7 9 7.7s-.4-1.4-1.3-3.3c-1-2-2.5-4.6-4.6-7.1z" fill="#db6027"/><path d="m377.3 215.9c-2.3-6.2-6.1-10.4-6.1-10.4s-.1 5.7 2.2 11.9 6.1 10.4 6.1 10.4.1-5.8-2.2-11.9z" fill="#e36b25"/><path d="m342.4 231.1s.2 4.7 2.6 9.3 6.3 7.4 6.3 7.4-.2-4.7-2.6-9.3c-2.5-4.7-6.3-7.4-6.3-7.4z" fill="#e36b25"/><path d="m376.2 244.1s.2 4.9 2.8 9.9 6.5 8 6.5 8-.3-5-2.8-9.9-6.5-8-6.5-8z" fill="#e36b25"/><path d="m437.1 413.3c-3.5 4.8-6.7 9-9.2 12.1s-4 5-4 5 .5-.3 1.5-.9 2.3-1.5 4-2.7c3.2-2.4 7.5-6.2 11.1-11.2 3.7-5 6-10.2 7.3-14 .7-1.9 1.1-3.5 1.3-4.6s.4-1.7.4-1.7-1.4 2.1-3.6 5.4c-2.2 3.5-5.3 7.9-8.8 12.6z" fill="#db6027"/><path d="m362 400c-1.2 2.1-2.8 5-4.2 8.4-1.4 3.3-2.3 6.5-2.9 8.9s-.8 3.9-.8 3.9 1.2-1.1 2.7-3 3.4-4.8 4.9-8.2c1.4-3.5 2.1-6.8 2.3-9.3.3-2.5.2-4 .2-4s-1 1.2-2.2 3.3z" fill="#e36b25"/><path d="m227.2 322.3c-.7-4.9-1.5-9.4-2-12.6-.6-3.3-1-5.4-1-5.4s-.6 2-1.1 5.4-.7 8.1 0 13.2 2.3 9.6 3.7 12.7 2.5 4.9 2.5 4.9-.2-2.1-.5-5.4c-.4-3.4-.9-7.9-1.6-12.8z" fill="#f69148"/><g fill="#e36b25"><path d="m118.4 254.3c1-2 2.3-4.6 3.3-7.7s1.6-6 2-8.2.5-3.6.5-3.6-1 1-2.4 2.8c-1.3 1.8-2.9 4.5-4 7.7s-1.4 6.3-1.4 8.5.2 3.7.2 3.7.8-1.2 1.8-3.2z"/><path d="m139.9 281.6s1.4-4.8.7-10.3c-.8-5.5-3.4-9.7-3.4-9.7s-1.4 4.8-.7 10.3 3.4 9.7 3.4 9.7z"/><path d="m73.9 226.4c-1.1 4.4-1.4 8.5-1.3 11.4.1 3 .4 4.8.4 4.8s.7-1.7 1.6-4.5 2.2-6.5 3.2-10.7c1.1-4.2 1.8-8.1 2.4-10.9.5-2.9.8-4.7.8-4.7s-1.2 1.4-2.7 4c-1.5 2.5-3.3 6.2-4.4 10.6z"/><path d="m299.1 358.9c-.3-.9-.4-1.4-.4-1.4s-.3 2.1-.7 5.3-1.1 7.6-1.9 12.4-1.6 9.1-2.2 12.3-1 5.3-1 5.3.3-.4.9-1.2 1.3-1.9 2.1-3.4c1.6-2.9 3.5-7.3 4.3-12.4s.5-9.8-.1-13.1c-.4-1.6-.7-2.9-1-3.8z"/><path d="m469.3 225.1c-3.9-9.1-9-15.7-9-15.7s1.3 8.2 5.2 17.3 9 15.7 9 15.7-1.3-8.2-5.2-17.3z"/><path d="m453.1 298c-1-2.2-1.8-4-2.5-5.2-.6-1.2-1-1.9-1-1.9s.6 3 1.5 7.7 2 11.2 3.1 18.3 1.9 13.7 2.5 18.4c.5 4.8.9 7.8.9 7.8s.1-.7.4-2.1c.3-1.3.6-3.3.8-5.7.5-4.8.7-11.6-.5-19-1.1-7.4-3.3-13.8-5.2-18.3z"/></g></g><path d="m509.6 325.6c-5 25.7-17.1 51-31.1 73-14.3 22.5-36.9 43-59.7 56.6-11.7 7-25.2 11.2-38.4 14.3-6.3 1.5-12 2.2-18.1-.1-8.5-3.2-6.8-7.2-11.3-13.4-18.1 16.5-41.3 24.2-61.3 6-13.9 21.2-41.6 19.2-61.5 8.8-3.8-2-9.1-7.8-13-8.9-3.8-1.1-6.1 3.9-9.5 6.6-9.3 7.5-21 7.7-32.3 5.8-5.5-.9-10.9-2.5-16-4.5-6.6-2.7-5.8-2.6-11.7.1-11.4 5.3-24 1.7-35.1-2.8-10.7-4.4-20.3-10.3-29.8-16.8-9.3-6.4-18.6-11.6-26.7-19.6-7.7-7.7-13.5-16.7-19.3-25.8-6.5-10.1-13.9-20.1-19-30.9-10.7-22.6-14.4-47-15.4-71.8-.1-1.6-.1-3.1-.2-4.7-.2 6.3-.1 12.4.2 18.5 1.1 24.8 4.7 49.1 15.4 71.8 5.1 10.8 12.5 20.9 19 30.9 5.9 9.1 11.6 18.1 19.3 25.8 8 8 17.4 13.2 26.7 19.6 9.5 6.5 19.1 12.4 29.8 16.8 11 4.5 23.7 8 35.1 2.8 5.8-2.7 5.1-2.7 11.7-.1 5.1 2.1 10.5 3.6 16 4.5 11.4 2 23 1.7 32.3-5.8 3.4-2.7 5.7-7.7 9.5-6.6 3.9 1.1 9.2 7 13 8.9 19.9 10.4 47.5 12.4 61.5-8.8 20 18.2 43.2 10.5 61.3-6 4.5 6.3 2.8 10.3 11.3 13.4 6.1 2.3 11.9 1.5 18.1.1 13.2-3.1 26.7-7.4 38.4-14.3 22.8-13.6 45.4-34.1 59.7-56.6 14-22 26.2-47.3 31.1-73 2.1-10.8 2.7-21.4 2.1-31.9-.2 6-.9 12.1-2.1 18.1z" fill="#da7127"/></g></g><g><g><path d="m142.2 461s-.2-.2-.7-.7-1.1-1.2-1.9-2.1c-1.7-1.9-4.1-4.7-6.9-8.5-5.8-7.6-13.5-19-21.6-34.1-8-15-16.4-33.7-22.6-55.5-6.1-21.7-10.1-46.8-7.9-73 .6-6.5 1.4-13 2.7-19.2 1.3-6.3 2.9-12.4 4.9-18.2 3.9-11.8 9.1-22.6 15-32.3 11.9-19.4 26.6-34 39.7-44.9 13.3-10.8 25.1-18 33.3-22.7 4.1-2.4 7.4-4.1 9.6-5.3s3.4-1.8 3.4-1.8-1.1.7-3.3 1.9c-2.2 1.3-5.4 3.1-9.4 5.7-8 5-19.5 12.7-32.3 23.8-12.7 11.1-26.7 25.9-38 45.1-5.6 9.6-10.5 20.2-14.2 31.7-1.9 5.7-3.3 11.7-4.6 17.8-1.2 6.1-2.1 12.4-2.6 18.8-2.1 25.6 1.4 50.2 7.1 71.7 5.7 21.6 13.5 40.3 21 55.5s14.8 26.9 20.3 34.6c2.7 3.9 5 6.8 6.6 8.7.8 1 1.4 1.7 1.8 2.2.3.6.6.8.6.8z" fill="#d35027"/></g><g><path d="m210.6 455.7s-.1-.3-.3-.8-.4-1.3-.8-2.3c-.8-2-2.1-4.9-3.9-8.6-3.5-7.4-8.9-18.1-14.6-31.7-2.8-6.8-5.7-14.4-8.4-22.6-2.7-8.3-5.2-17.2-7.3-26.8-2-9.6-3.7-19.7-4.7-30.3-.3-2.6-.4-5.3-.6-8-.1-1.4-.2-2.7-.3-4.1 0-1.4-.1-2.7-.1-4.1 0-2.8-.1-5.5-.1-8.3.1-2.8.2-5.6.2-8.4s.3-5.6.5-8.4c.3-2.8.4-5.6.8-8.3.7-5.5 1.3-10.9 2.4-16.1.5-2.6.9-5.2 1.5-7.8.6-2.5 1.2-5.1 1.8-7.6 1.1-5 2.7-9.8 4-14.5 5.8-18.7 13.2-34.8 20-47.8 1.8-3.2 3.5-6.3 5.1-9.2 1.5-2.9 3.3-5.5 4.8-8.1 3.1-5 5.7-9.3 8.1-12.6 4.7-6.8 7.3-10.5 7.3-10.5s-2.4 3.9-6.7 10.9c-2.2 3.4-4.6 7.9-7.5 12.9-1.4 2.6-3 5.2-4.5 8.2s-3 6.1-4.7 9.4c-6.3 13.2-13.1 29.3-18.5 47.9-1.3 4.7-2.7 9.4-3.7 14.4-.6 2.5-1.1 5-1.7 7.5-.5 2.5-.9 5.1-1.4 7.7-1 5.2-1.5 10.5-2.2 15.8-.4 2.7-.5 5.4-.7 8.2-.2 2.7-.5 5.5-.5 8.3-.1 2.8-.2 5.5-.3 8.3 0 2.7.1 5.5.1 8.2 0 1.4 0 2.7.1 4s.2 2.7.2 4c.2 2.7.2 5.3.5 7.9.9 10.5 2.4 20.5 4.2 30 1.9 9.5 4.2 18.4 6.6 26.6 2.5 8.2 5.1 15.8 7.6 22.7 5.2 13.7 10 24.6 13.2 32.2 1.6 3.8 2.7 6.8 3.4 8.8.4 1 .5 1.8.7 2.4.3.3.4.6.4.6z" fill="#d35027"/></g></g><g><g><path d="m358.4 461s.2-.2.6-.7 1.1-1.2 1.9-2.1c1.6-1.9 3.9-4.7 6.6-8.4 5.5-7.5 13-18.8 20.8-33.5s16-32.8 22.3-53.8c6.2-21 10.5-45 9-70.2-.7-12.6-2.9-24.7-6.4-36s-8.3-21.8-13.8-31.2c-11.1-18.8-25.1-33.1-37.7-43.9-12.7-10.7-24.1-18-32.1-22.8-4-2.5-7.2-4.2-9.3-5.4s-3.3-1.8-3.3-1.8 1.2.6 3.3 1.7c2.2 1.1 5.5 2.7 9.5 5 8.2 4.5 19.9 11.4 33.1 21.8 13 10.5 27.6 24.6 39.4 43.7 5.8 9.5 10.9 20.2 14.6 31.8s6 24.1 6.8 37c1.5 25.8-3.1 50.3-9.8 71.4-6.7 21.2-15.5 39.3-23.8 53.8s-16.2 25.6-22.1 32.9c-2.9 3.7-5.3 6.4-7 8.2-.8.9-1.5 1.6-1.9 2-.4.3-.7.5-.7.5z" fill="#d35027"/></g><g><path d="m290 455.9s.1-.3.2-.8c.2-.5.3-1.3.7-2.3.7-2 1.9-4.8 3.6-8.4 3.3-7.2 8.4-17.5 14-30.5 2.7-6.5 5.6-13.7 8.3-21.6 2.6-7.9 5.2-16.3 7.4-25.4 2.1-9.1 4-18.7 5-28.7.4-2.5.5-5.1.7-7.6.2-2.6.5-5.1.5-7.8.1-2.6.2-5.2.3-7.9 0-2.6-.1-5.3-.1-8s-.2-5.3-.3-8c-.2-2.6-.2-5.3-.5-7.9-.6-5.2-1-10.3-2-15.3-.4-2.5-.8-5-1.2-7.4-.5-2.4-1.1-4.8-1.6-7.2-.9-4.8-2.3-9.3-3.5-13.8-5.1-17.9-11.9-33.4-18.1-46-1.6-3.1-3.2-6.1-4.6-9-.4-.7-.7-1.4-1.1-2.1s-.8-1.3-1.1-2c-.8-1.3-1.5-2.6-2.2-3.8-2.8-4.9-5.2-9.1-7.4-12.4-4.3-6.7-6.7-10.4-6.7-10.4s2.6 3.6 7.2 10c2.4 3.2 5 7.3 8 12 .8 1.2 1.5 2.4 2.4 3.7.4.6.8 1.3 1.2 1.9.4.7.8 1.4 1.2 2.1 1.6 2.8 3.3 5.7 5 8.8 6.7 12.5 14 27.9 19.6 46 1.3 4.5 2.8 9.1 3.9 14 .6 2.4 1.1 4.8 1.7 7.3.4 2.5.9 5 1.4 7.5 1 5 1.5 10.3 2.1 15.5.3 2.6.4 5.3.6 8s.4 5.4.4 8.1.1 5.4.1 8.1c-.1 2.7-.2 5.4-.3 8-.1 2.7-.3 5.3-.6 7.9s-.4 5.2-.8 7.7c-1.2 10.2-3.3 19.9-5.6 29.1-2.4 9.1-5.2 17.7-8.1 25.5-3 7.8-6.1 15-9 21.5-6 12.9-11.6 22.9-15.3 29.9-1.9 3.5-3.2 6.3-4 8.2-.4 1-.6 1.7-.8 2.2-.5 1-.6 1.3-.6 1.3z" fill="#d35027"/></g></g></g><path d="m180.8 131.8-10.8-.8c-4.6.1-9.2.6-13.7 1-8.8.8-17.6 2-26 5.2-3.5 1.3-7.1 2.6-10.7 3.5-3.5.9-7.1 1.6-10.5 3-13.8 5.6-27.5 11.5-39.5 20.8-9.8 7.6-19.3 15.5-26.6 25.7-2.1 3-4 6.1-6 9.1-6.7 9.8-13.6 19.5-18.9 30.3-5.3 10.7-10.6 21.3-13.4 33-1.4 5.7-1.7 11.5-2.8 17.2-1.4 7.3-1.9 14.7-1.9 22.1 0 2.1.9 4.1.5 6.1-.8 4-.1 8 .2 12 .2 2.2.5 4.3.5 6.5-.2 10.1 1.3 20.1 3.9 29.8 3 11.4 6.4 22.6 11.5 33.3 3.8 7.9 9.7 14.5 13.7 22.3 2 3.9 5 7.2 7.2 11 6.9 12.1 16 22.2 26.9 30.8 4.1 3.2 9 5.2 13.2 8.3 8.3 5.9 16.7 11.7 26 16 6.8 3.1 13.6 6.1 20.9 7.5-94.6-68.5-97.4-108.5-88.1-220.7 9.1-111.6 142.8-132.7 144.4-133z" fill="#dc6927"/></g><g><g><g><g fill="#da7127"><path d="m168.2 213.9s.5-1.7-5.1 7.7c-5.7 9.4-10 19.3-14.4 29.3-5.5 12.4-27.2 40 .7 40.9 20.7 2.4 28.2 3.7 38.9 3.3 10.2-.4 22 .4 22.9-12 .7-12-39.6-72.7-43-69.2z"/><path d="m390.7 260.4c-4-10.3-26.5-57.5-40.5-52.5-4.2.9-11.7 21.8-12.9 24.9-2.7 7-24.8 51-8.5 50 14.6 1 30.4-2.9 45.1-3.7 14.5-.9 23-2.8 16.8-18.7z"/><path d="m426.1 312.1s-18.9 12.9-24.8 16.1c-7.2 3.9-14.9 6.8-22.1 10.8-6.6 3.7-17.3 8.1-22.8 13.2-5 4.6-7.2 13.1-10.5 19.2-8.8 16.7-16.7-5-28-8.6-5.5-1.7-16.9 1.1-22.8 1.8-8.8 1-17.4 2.2-26.3 2.3-10.9.2-21.8.5-32.7.7-6 .1-11.2-.3-18.4 1.1-1.9.3-3.5 1.5-4.4 3.1-2.9 4.8-9.6 15.3-15 18.3-6.2 3.4-14.9-12.9-19.5-20.2-.9-1.5-2.4-2.5-4.1-2.9-6-1.3-21.3-4.6-33.3-7.1-8.2-1.7-16.3-2.3-24.7-2.4-5.1 0-15.9-2.8-20.7-1.5-1.2.3 18.5 10.7 20.5 11.8 8.7 4.7 37.7 40.8 82.5 56.8 17.8 6.3 22.7-8.1 29.9-21.9 1.4-2.6 4.9-3.1 6.9-.9l.1.1c3.5 3.7 8.2 13 11.2 19.2 1.7 3.6 5.4 5.8 9.4 5.5l27.1-1.8c3.8-.3 7.2-2.8 8.5-6.4 2.4-6.7 6.4-17.6 9.6-24.2 1.1-2.2 3.9-3.1 6-1.9 1.8 1.1 3.9 2.9 6.5 5.6 4.6 4.7 6.5 6 7.7 7.5 17.1 15.1 17.9 9 28.7 1 11.5-8.5 23.6-25 32.4-36.2 4.4-5.4 45.4-56 43.1-58.1z"/></g></g><g><g fill="#522725"><path d="m176.2 213.9s.5-1.7-5.1 7.7c-5.7 9.4-10 19.3-14.4 29.3-5.5 12.4-27.2 40 .7 40.9 20.7 2.4 28.2 3.7 38.9 3.3 10.2-.4 22 .4 22.9-12 .7-12-39.6-72.7-43-69.2z"/><path d="m398.7 260.4c-4-10.3-26.5-57.5-40.5-52.5-4.2.9-11.7 21.8-12.9 24.9-2.7 7-24.8 51-8.5 50 14.6 1 30.4-2.9 45.1-3.7 14.5-.9 23-2.8 16.8-18.7z"/><path d="m434.1 312.1s-18.9 12.9-24.8 16.1c-7.2 3.9-14.9 6.8-22.1 10.8-6.6 3.7-17.3 8.1-22.8 13.2-5 4.6-7.2 13.1-10.5 19.2-8.8 16.7-16.7-5-28-8.6-5.5-1.7-16.9 1.1-22.8 1.8-8.8 1-17.4 2.2-26.3 2.3-10.9.2-21.8.5-32.7.7-6 .1-11.2-.3-18.4 1.1-1.9.3-3.5 1.5-4.4 3.1-2.9 4.8-9.6 15.3-15 18.3-6.2 3.4-14.9-12.9-19.5-20.2-.9-1.5-2.4-2.5-4.1-2.9-6-1.3-21.3-4.6-33.3-7.1-8.2-1.7-16.3-2.3-24.7-2.4-5.1 0-15.9-2.8-20.7-1.5-1.2.3 18.5 10.7 20.5 11.8 8.7 4.7 37.7 40.8 82.5 56.8 17.8 6.3 22.7-8.1 29.9-21.9 1.4-2.6 4.9-3.1 6.9-.9l.1.1c3.5 3.7 8.2 13 11.2 19.2 1.7 3.6 5.4 5.8 9.4 5.5l27.1-1.8c3.8-.3 7.2-2.8 8.5-6.4 2.4-6.7 6.4-17.6 9.6-24.2 1.1-2.2 3.9-3.1 6-1.9 1.8 1.1 3.9 2.9 6.5 5.6 4.6 4.7 6.5 6 7.7 7.5 17.1 15.1 17.9 9 28.7 1 11.5-8.5 23.6-25 32.4-36.2 4.4-5.4 45.4-56 43.1-58.1z"/></g><g><path d="m434.1 312.1s-7.6 5.2-14.6 9.8c-11.8 16-30.7 39.4-33.5 42.9-8.8 11.2-20.9 27.6-32.4 36.2-10.8 8-11.6 14.1-28.7-1-1.2-1.5-3.1-2.8-7.7-7.5-2.6-2.6-4.6-4.5-6.5-5.6-2.2-1.3-4.9-.4-6 1.9-3.2 6.6-7.3 17.5-9.6 24.2-1.3 3.6-4.6 6.1-8.5 6.4l-27.1 1.8c-1.5.1-3-.2-4.3-.7.1.2.2.4.3.5 1.7 3.6 5.4 5.8 9.4 5.5l27.1-1.8c3.8-.3 7.2-2.8 8.5-6.4 2.4-6.7 6.4-17.6 9.6-24.2 1.1-2.2 3.9-3.1 6-1.9 1.8 1.1 3.9 2.9 6.5 5.6 4.6 4.7 6.5 6 7.7 7.5 17.1 15.1 17.9 9 28.7 1 11.5-8.5 23.6-25 32.4-36.2 4-5.3 45-55.9 42.7-58z" fill="#311414"/><g><path d="m238.8 396.5c-2.1-2.2-5.6-1.7-6.9.9-7.2 13.8-11.7 26.9-29.9 21.9-9.5-2.6-18-6-25.6-9.9 9.2 5.8 19.6 11.1 30.9 15.2 17.8 6.3 22.7-8.1 29.9-21.9.9-1.8 2.9-2.5 4.7-2.2-1.2-1.6-2.2-3-3.1-4z" fill="#311414"/></g></g></g></g><g><path d="m176.1 213.8c.1.1.1 0 0 0z" fill="#3f1818"/><path d="m176.2 213.9s27.4 60.1 20.6 69c-6.7 8.8-42.7 8.5-43.3 8.5 1.2.2 2.4.3 3.8.3 20.7 2.4 28.2 3.7 38.9 3.3 10.2-.4 22 .4 22.9-12 .8-11.9-39.5-72.6-42.9-69.1z" fill="#311414"/></g><path d="m362.8 281.1c6.5-.8 12.9-1.7 19.1-2.1 14.4-.8 23-2.7 16.8-18.7-4-10.3-26.5-57.5-40.5-52.5 0 0 18.6 24.4 22 46.6 3.6 22.3-17.4 26.7-17.4 26.7z" fill="#311414"/></g></g></g><g id="Layer_63" display="none"/></svg>