<svg id="Cake_and_Bakery" height="512" viewBox="0 0 1200 1200" width="512" xmlns="http://www.w3.org/2000/svg"><g><path d="m99.568 844.051c-8.541-81.31-10.809-163.728-6.74-245.015.214-34.744 17.895-67.82 52.592-98.417 12.653-28.545 43.305-77.903 94.557-72.67 21.014-26.946 58.703-54.393 92.76-54.654 11.806 0 22.201 3.07 31.267 7.473.65-3.272 1.295-6.656 1.934-10.162 11.451-57.901 82.463-70.058 125.086-77.255 26.225-39.655 69.707-97.444 131.043-98.179 20.295-68.152 100.518-51.906 122.42 6.978 28.475.731 50.418 26.13 51.078 54.456.311 11.473-2.803 22.161-8.732 30.958 2.822 5.15 5.047 10.427 6.65 15.772 32.602 9.042 68.328 33.757 70.23 64.726 6.883 32.266.875 21.439 30.832 34.128 12.645 5.628 28.984 13.823 43.09 26.114 2.938-.454 6.061-.706 9.041-.702 30.807 0 52.191 23.969 64.244 39.563 34.512 20.438 85.795 61.071 89.211 123.303 7.908 54 7.719 108.049 9.004 161.659-1.838 55.286 4.799 127.421-27.922 172.522-113.57 151.792-691.647 162.298-903.684 46.431-53.493-29.961-76.875-68.014-77.961-127.029z" fill="#fff"/><g><path d="m132.177 842.088c.566 48.912 18.689 76.65 61.299 100.516 121.861 63.947 285.464 71.543 421.344 73.191 120.047-2.156 362.195-13.705 440.965-111.61 24.771-35.157 19.037-108.169 20.723-151.268-1.283-52.904-1.064-107.188-8.9-159.271-1.758-45.459-40.893-80.403-78.705-101.5-10.738-14.351-25.93-33.424-44.424-31.814-5.885.51-11.313 2.829-16.584 5.708-10.502-16.009-29.766-26.533-46.621-34.037-52.963-22.45-34.566 4.498-49.857-58.677-.705-14.461-15.381-24.975-27.535-30.824-12.76-6.298-26.51-10.319-40.377-13.384 2.898-18.468-9.432-35.319-22.879-46.66 4.553-2.181 8.996-4.637 13.055-7.574 14.879-8.419 10.482-31.684-3.518-38.639-9.857-3.629-20.949.027-31.094.823-.52-19.678-11.172-41.013-28.785-50.771-11.742-6.004-27.012-3.784-33.199 8.892-5.514 11.292-7.738 24.525-9.355 37.213-61.776-23.19-108.62 46.522-137.51 91.28-27.127 3.457-55.174 7.89-80.188 19.411-12.795 5.892-30.414 17.666-31.789 32.293-3.057 16.827-6.627 33.525-11.326 49.975-1.303 9.534-14.408-1.983-20.352-3.922-21.457-17.614-36.476-20.823-61.634-6.537-22.803 12.273-42.982 32.639-53.281 56.75-4.473-5.131-8.369-10.286-15.865-11.337-33.809-1.423-51.41 33.948-63.813 60.536-23.701 19.689-46.606 46.63-46.508 79.041-4.086 80.751-1.809 161.79 6.713 242.196z" fill="#68182b"/><path d="m134.976 677.848c1.924-83.135-15.074-12.748 96.277 33.593 192.384 76.621 571.555 83.583 757.066-12.507 17.494-9.703 35.436-22.096 49.846-37.296 28.039-29.578 22.543-32.566 24.771 8.774.574 10.608 1.041 21.227 1.404 31.852.482 14.195 3.332 12.298-11.916 14.504-9.121 1.32-18.166 4.641-26.232 8.303-22.162 7.881-31.137 32.29-51.67 42.398-8.352 3.93-17.875 4.43-26.877 5.73-15.684 2.27-29.615 9.138-43.35 16.729-.313.171-.627.364-.926.561-74.156 48.735-76.777 13.563-146.859 27.412-.469.094-.951.207-1.412.334-46.484 12.75-90.535 44.171-140.592 31.244-26.692-6.669-50.52-21.131-78.102-24.818-55.896-5.354-107.998 25.969-161.34-7.402-15.301-8.828-28.691-20.413-45.597-26.293-44.928-15.943-98.271 5.652-138.818-24.418-12.75-8.955-24.904-19.202-39.332-25.412-1.963-.844-3.949-1.597-5.959-2.229-6.413-2.02-9.474-8.049-9.629-13.018-.503-16.006-.759-32.024-.753-48.041z" fill="#ffa0b9"/><path d="m144.284 750.524c10.18 2.557 19.034 10.39 27.152 16.251.117.084.229.175.34.27 41.8 37.095 84.792 25.262 134.917 30.346 35.801 4.197 59.633 34.895 94.219 42.902 52.207 15.65 105.615-18.343 157.359 1.166 42.432 17.397 81.366 31.477 126.975 14.807 69.236-26.21 73.611-36.273 150.246-26.896.293.035.605.054.9.049 33.199-.569 59.258-23.786 88.172-37.076 15.174-8.486 32.836-7.58 49.068-12.205 15.904-5.292 26.633-18.03 37.434-30.13 9.436-10.569 22.129-16.607 35.73-20.174 4.201-1.1 8.455-1.908 12.754-2.084 3.014-.123 5.52 2.365 5.561 5.381.301 22.5.084 44.986-.764 67.401-.627 16.636-1.461 16.116-15.666 21.985-20.787 8.588-35.357 32.674-50.691 47.734-24.832 27.688-61.461 14.564-93.297 12-.232-.02-.465-.027-.697-.023-69.818.818-88.307 71.883-171.553 49.258-32.99-6.566-65.43-16.515-99.236-9.328-33.319 7.086-64.131 25.025-99.204 19.107-31.721-5.354-59.74-22.748-89.592-33.743-15.344-5.651-31.113-9.271-47.479-10.007-54.827-.806-105.187 16.217-149.314-28.039-23.957-20.611-48.91-45.127-82.582-46.279-5.576-.178-11.154.451-16.516 1.918-3.29.898-6.621-1.295-6.931-4.693-1.963-21.463-3.501-42.961-4.597-64.484-.194-3.874 2.234-6.684 7.292-5.414z" fill="#ffb578"/><path d="m1040.396 904.281c-48.709 56.194-162.398 74.664-228.588 85.938-155.568 21.234-315.366 19.655-469.785-9.603-63.465-13.941-196.605-42.868-196.729-123.835-2.357-20.77-3.26-21.275 16.617-22.068 26.631-1.064 51.204 19.729 70.379 36.624 23.859 23.116 53.684 41.003 87.865 40.405 35.023 1.057 70.13-7.656 104.664 1.574 45.172 12.089 85.92 45.01 134.645 40.346.26-.024.531-.061.789-.105 62.102-10.634 80.497-34.765 150.024-15.094 31.545 7.041 64.123 13.865 95.035.574 26.883-11.563 48.025-34.805 76.488-42.878 32.07-9.097 65.045 11.041 96.932.162 30.496-10.114 43.258-43.448 68.865-60.286 1.322-.826 2.658-1.548 4.01-2.173 13.381-6.177 10.762 1.954 10.316 7.319-.58 7.012-1.307 14.309-2.422 21.381-2.998 19.008-5.857 26.435-19.105 41.719z" fill="#ffa0b9"/><path d="m953.265 473.473c11.547 5.981 19.475 17.227 27.514 27.049 7.352 10.274 16.139 20.11 21.854 31.464 3.385 6.723 1.248 7.427-5.014 6.757-33.945-3.631-67.303-23.207-88.16-49.752 5.348-2.107 10.525-4.5 15.568-7.429 9.24-5.071 18.187-13.423 28.238-8.089z" fill="#d5d5d5"/><path d="m248.755 634.521c-43.031-32.779-58.773-102.504-39.33-151.43.223-.318.441-.627.666-.944 1.779-1.561 3.646-3.004 5.607-4.297 6.344-4.178 6.497-2.107 4.977 4.311-4.641 19.602-2.923 40.56 4.979 59.164 13.285 31.659 45.303 53.59 79.352 55.956 1.381.097 2.35 1.367 2.096 2.73-7.609 40.753 12.277 38.108-28.793 42.122-16.335 1.596-17.54 1.54-29.554-7.612z" fill="#d5d5d5"/><path d="m326.066 578.306c6.639-13.235 14.771-26.269 23.896-38.254 4.254-5.585 5.047-3.719 2.732 3.38-9.602 29.455-12.812 61.559-4.387 91.376 3.873 12.565 10.988 24.058 19.287 34.167 1.908 4.185 17.465 15.541 11.588 14.045-58.939-12.168-76.714-50.206-53.116-104.714z" fill="#afafaf"/><path d="m250.236 486.281c25.289 19.53 64.632 10.947 86.92 35.052 1.908 2.061.88 5.426-1.834 6.143-29.854 7.89-66.393 6.382-81.543-24.656-1.709-3.49-7.782-19.424-3.543-16.539z" fill="#d5d5d5"/><path d="m424.118 473.975c33.184 4.124 59.994 29.284 81.256 53.813.938 1.078.955 2.664.072 3.786-1.742 2.217-3.465 4.446-5.17 6.683-.85 1.118-2.344 1.459-3.611.857-11.455-5.449-23.891-8.784-36.709-10.054-11.088-1.1-21.703.841-32.719.909-4.371.027-9.547-.412-12.316-4.304-2.982-4.193-3.039-10.322-4.863-15.06-3.498-9.078-10.795-16.208-21.076-15.66-12.125.647-22.818 9.807-30.98 17.949-8.326 11.169-8.172 4.337-14.613-1.734-1.291-1.217-1.337-3.271-.008-4.443 22.362-19.682 49.952-36.569 80.737-32.742z" fill="#ff5671"/><path d="m853.365 440.112c12.771 12.399 21.535 29.275 25.07 46.619.256 1.252-.416 2.506-1.578 3.041-2.373 1.087-4.725 2.23-7.051 3.419-1.461.749-3.223.112-3.801-1.426-5.697-15.115-13.152-34.242-17.195-48.919-2.084-7.569.289-6.874 4.555-2.734z" fill="#d5d5d5"/><path d="m883.99 641.186c-4.908 18.082-28.215 13.379-42.902 12.285-28.551-4.73-58.871-15.492-76.205-39.997-8.189-11.61-13.432-25.006-16.297-38.874-1.557-6.134-8.225-65.207 3.873-53.163 5.902 4.983 10.66 24.506 28.818 37.366 26.871 19.033 58.631 31.42 91.576 30.375 6.846-.215 8.197.583 10.65 5.537 7.166 14.468 6.945 31.47.487 46.471z" fill="#afafaf"/><path d="m840.156 558.967c10.424 3.637 20.426 9.279 28.682 16.757 5.486 4.969 8.297 6.845-2.76 6.613-24.859-.521-49.303-8.005-70.15-21.461-7.936-5.122-5.129-6.588 1.857-6.998 14.324-.84 28.732-.177 42.371 5.089z" fill="#d5d5d5"/><path d="m858.415 554.488c-6.037-3.233-12.422-5.822-19-7.814-1.182-.357-1.963-1.531-1.74-2.748 2.279-12.507 10.078-22.441 20.24-30.357 4.844-3.775 4.678-.904 3.859 2.525-2.793 11.715-2.582 23.932.129 35.685.969 4.188 7.172 8.416-3.488 2.709z" fill="#afafaf"/><path d="m826.931 538.889c-.619 2.585-3.146 4.173-5.783 3.834-6.111-.787-12.275-1.084-18.391-.879-8.883.298-26.154 5.687-31.402-4.372-3.227-7.445-3.281-16.523-9.305-22.68-26.691-23.507-59.617 24.032-75.584 48.438-4.016 6.136-4.189 6.667-8.678.016-5.443-8.065-11.055-16.044-16.906-23.836-1.492-1.985-1.408-4.733.244-6.586 18.67-20.896 40.299-41.623 66.975-50.914 38.625-13.596 77.416 5.257 109.785 26.257 2.658 1.725 3.104 5.388 1.037 7.79-5.642 6.555-9.879 14.115-11.992 22.932z" fill="#ff5671"/><path d="m563.489 528.541c5.227 3.139 6.479 12.533 8.152 18.111 2.271 7.128 7.557 12.783 14.893 14.697 26.735 23.913 63.735 40.072 99.811 36.658 8.355-.792 7.121.301 9.555 5.541 4.283 9.218 5.945 19.646 4.594 29.869-1.412 10.695-3.402 13.901-13.473 19.066-21.947 11.258-49.848 8.945-71.258-3.11-38.764-22.313-62.215-69.22-58.834-113.719.433-5.695 1.054-10.419 6.56-7.113z" fill="#afafaf"/><path d="m674.464 578.294c2.645 1.887 5.184 3.978 7.559 6.235 5.973 5.678 5.131 6.863-2.648 7.099-25.168.76-50.578-8.457-71.785-22.689-5.723-3.838-5.389-7.002 2.014-7.442 22.829-1.36 46.104 2.975 64.86 16.797z" fill="#d5d5d5"/><path d="m703.554 593.057c-2.246-3.822-4.857-7.377-7.74-10.692-4.387-5.044-3.576-6.44-1.357-10.045 5.871-9.545 12.205-18.963 19.393-27.588 1.906-2.291 3.273-.601 2.143 2.518-6.949 19.163-9.117 39.997-6.227 60.282-1.443-4.957-3.474-9.811-6.212-14.475z" fill="#afafaf"/><path d="m654.253 549.615c3.281 4.518 6.045 7.54-3.336 4.698-14.096-4.268-29.039-5.565-43.688-4.126-6.035.603-13.52 2.226-19.286-.452-6.465-3.002-6.219-11.836-8.4-17.657-13.246-34.421-48.984-5.37-62.568 13.438-2.492 4.88-4.486 3.476-8.182.499 57.706-79.889 95.366-65.385 145.46 3.6z" fill="#ff5671"/><path d="m487.046 590.552c-4.604 8.417-8.025 17.761-10.199 27.43-.457 2.053-2.297 3.553-4.395 3.415-54.918-3.579-95.887-59.476-81.758-113.188-.42-2.998 2.025-1.468 3.879-.49 2.658 1.835 4.543 5.892 5.582 9.591 2.537 9.042 4.715 17.539 13.602 21.663.654.306 1.238.763 1.656 1.35 16.412 23.101 45.002 34.484 73.104 35.187 6.018.151 6.973.652 3.502 6.467-1.694 2.838-3.354 5.694-4.973 8.575z" fill="#afafaf"/><path d="m500.452 568.328c-27.146 2.613-57.33-6.109-75.428-26.885 7.365.288 14.947-1.244 22.195-1.374 21.225-.385 42.814 5.734 59.77 18.694-2.234 3.151-4.43 6.327-6.537 9.565z" fill="#d5d5d5"/><path d="m399.481 686.375c-1.268-.134-2.512-.554-3.598-1.224-56.767-34.96-55.414-112.917-24.646-165.66.779-1.34 3.646-4.389 6.533-7.041 6.26-5.743 5.287-1.877 4.598 2.842-2.988 20.404.365 41.474 9.711 59.965 14.352 28.583 43.566 48.418 75.117 52.412 9.494 1.203 7.584.378 7.15 8.6-.549 10.354.285 20.831 3.518 30.501 2.459 7.359.299 8.436-4.65 10.395-23.069 9.141-48.918 11.833-73.733 9.21z" fill="#d5d5d5"/><path d="m490.659 668.428c-17.475-44.479 12.371-91.111 42.668-123.64 2.045-2.195 2.99-1.078 1.533 1.65-26.355 49.32-28.725 113.841 10.992 157.022-20.47-5.314-45.689-14.44-55.193-35.032z" fill="#afafaf"/><path d="m561.307 706.523c-2.08-.317-4.045-1.265-5.57-2.715-43.191-41.081-41.408-109.65-12.434-158.914 6.102-10.369 6.105-8.57 6.404 1.935 1.645 57.435 44.682 118.624 105.235 119.912 1.604.007 3.205-.031 4.803-.118 29.307-1.604 34.836-2.014 7.158 18.425-2.607 1.923-5.299 3.704-8.053 5.329-28.519 16.824-64.435 21.196-97.543 16.146z" fill="#d5d5d5"/><path d="m703.034 660.859c4.283-7.898 7.17-16.321 8.482-24.878 1.451-9.507 2.758-8.12 5.773-.777 7.824 19.046 20.605 36.023 36.744 48.906 4.957 3.96 10.184 7.526 15.641 10.677 3.016 1.74 11.406 6.058-1.49 5.742-26.055-.633-52.994-6.988-73.543-21.713-1.611-1.155-1.637-3.016-.553-4.394 3.319-4.231 6.331-8.742 8.946-13.563z" fill="#afafaf"/><path d="m788.679 696.139c-21.889-7.725-41.014-24.262-54.146-43.201-16.143-23.963-22.391-53.54-17.674-82.041 2.559-15.478 8.102-30.21 16.447-43.451 3.551-5.635 6.523-7.117 6.064.002-1.951 30.314 1.057 61.98 18.355 87.777 23.053 32.542 66.717 48.271 106.041 45.594 5.727-.391 9.512-.717 2.848 6.061-15.221 15.486-35.91 25.189-57.484 29.943-9.777 2.156-11.865 2.347-20.451-.684z" fill="#d5d5d5"/><path d="m907.48 611.438c9.283 5.5 19.316 9.685 29.703 12.673 6.979 2.009 27.586 5.196-.615 9.215-10.932 1.559-22.043 2.194-32.66 2.514-5.992.183-6.1 1.247-4.795-5.576.932-4.862 1.352-9.799 1.189-14.752-.127-3.969.318-8.14 7.178-4.074z" fill="#afafaf"/><path d="m971.818 623.076c-26.816-1.872-54.189-9.776-74.924-27.431-.48-.409-.85-.938-1.086-1.522-4.588-11.279-12.256-21.039-21.572-28.888-.459-.385-.832-.864-1.074-1.411-8.059-18.104-9.32-39.875-.623-58.02 1.549-3.532 6.117-5.093 10.363-6.64 5.211-1.898 5.191.076 5.27 3.531 1.053 46.009 36.979 86.584 82.461 94.302 7.6 1.475 15.268 2.134 22.938 2.048 5.324-.058 9.313-.839 3.066 6.397-6.398 7.416-14.133 13.012-22.717 17.225-.651.32-1.38.462-2.102.409z" fill="#d5d5d5"/><path d="m905.288 495.414c23.779 26.957 60.193 49.423 97.465 50.727 6.975.245 5.125-.804 6.428 5.325 2.529 11.909 2.689 24.344-1.42 35.702-.891 2.461-3.049 4.299-5.656 4.518-41.35 3.465-84.076-17.387-100.23-57.132-5.041-12.404-7.09-25.662-6.764-39.007-.301-1.631 1.516-2.229 3.451-2.708 3.861-.956 4.445-.011 6.726 2.575z" fill="#afafaf"/><path d="m913.14 474.737c-7.367 3.953-14.992 6.296-22.918 9.363-3.527 1.365-5.189.25-6.006-3.042-2.896-11.642-8.061-22.748-14.943-32.614-4.301-6.164-9.227-12.876 5.404-6.8 14.787 6.143 29.313 14.056 39.734 25.981 1.95 2.232 1.342 5.711-1.271 7.112z" fill="#afafaf"/><path d="m751.243 315.754c8.781 28.67-27.789 25.785-46.531 18.854-2.15-.796-3.309-3.033-2.934-5.295 2.33-14.075.229-28.716-4.848-42.237-.717-1.909-.193-4.059 1.406-5.324 1.721-1.363 3.326-2.879 4.863-4.312 1.271-1.183 3.092-1.603 4.729-1.025 18.567 6.558 36.366 20.664 43.315 39.339z" fill="#83e1c4"/><path d="m720.935 248.337c7.219-.74 15.777-2.647 23.305-1.819.646.072 1.287.265 1.814.646 1.561 1.128 2.777 2.916 3.701 4.627 2.162 3.778 2.689 9.479-.221 11.756-4.117 3.778-12.76 8.049-17.127 10.11-1.002.475-2.135.54-3.158.105-4.143-1.761-8.404-4.702-12.887-6.672-2.018-.888-2.912-3.132-2.148-5.201 1.988-5.36 2.084-12.799 6.721-13.552z" fill="#b1d045"/><path d="m661.554 220.089c3.9-27.405 15.441-35.189 35.008-13.047.197.221.393.461.564.695 13.115 17.762 14.32 43.482-.191 59.695-2.902 3.243-8.121 2.728-10.512-.908-6.525-9.928-14.783-18.844-24.502-25.911-2.031-1.478-3.17-3.902-2.814-6.391.674-4.733 1.47-9.453 2.447-14.133z" fill="#83e1c4"/><path d="m430.223 355.832c19.809-10.733 43.223-15.496 65.855-18.743 8.846-1.271 6.006-.516 4.555 5.01-3.789 14.448 5.309 30.54 19.605 35.9 24.578 8.194 51.598 7.292 77.227 9.503 36.53 3.254 81.026-4.192 98.547-40.063.932-1.909 3.07-2.86 5.086-2.186 18.012 6.021 41.686 10.04 56.182-3.924.959-.925 2.236-1.426 3.547-1.206 26.727 4.509 87.207 26.9 43.189 53.963-30.344 17.231-66.215 21.288-100.297 25.619-69.188 7.036-139.456 5.752-208.264-4.39-27.843-2.916-128.142-26.756-65.232-59.483z" fill="#ff7cc4"/><path d="m404.966 400.573c1.215-5.657 1.779-5.232 5.816-2.214 68.492 51.217 326.889 46.635 396.348 7.261 4.047-2.3 8.168-5.143 11.84-8.42 2.148-1.915 5.498-.917 6.145 1.887 7.744 33.58 18.211 66.741 30.865 98.669.672 1.698.02 3.631-1.557 4.558-.818.479-1.65.96-2.197 1.51-48.836-35.105-108.041-56.18-160.35-15.16-70.598 57.476-14.287 40.469-86.559-2.718-33.165-18.194-66.499 6.176-88.106 31.317-1.51 1.754-4.166 1.763-5.668.006-29.074-34.018-72.721-64.918-118.373-52.461-5.422 1.48-5.67-.93-4.553-4.647 5.935-19.727 12.018-39.444 16.349-59.588z" fill="#ffa0b9"/><path d="m349.177 423.195c8.516 6.752 17.916 12.048 28.014 15.938 3.549 1.367 5.254.674 3.416 6.797-2.568 8.563-4.135 18.073-7.928 25.487-.514 1-1.363 1.774-2.363 2.291-5.787 2.988-11.32 6.429-16.654 10.178-1.703 1.198-3.955 1.434-5.758.394-21.478-12.398-26.232-38.9-22.906-62.174.338-2.361 2.229-4.256 4.588-4.618 7.04-1.076 13.78 1.239 19.591 5.707z" fill="#afafaf"/><path d="m317.056 429.759c-1.563 21.45 5.148 44.42 22.614 57.336 2.442 1.806 2.64 5.406.315 7.365-2.199 1.855-4.365 3.753-6.497 5.678-1.499 1.356-3.656 1.569-5.444.624-9.878-5.238-20.693-8.004-31.573-10.025-1.593-.297-2.979-1.357-3.56-2.869-7.166-18.722-.74-39.272 8.504-56.691.395-.74.977-1.37 1.68-1.821 2.328-1.496 4.678-2.895 7.074-4.203 9.171-5.009 7.264-.573 6.887 4.606z" fill="#d5d5d5"/><path d="m289.066 441.562c-5.648 14.551-8.227 30.166-3.871 44.971.285.97-.527 1.898-1.512 1.68-7.598-1.673-15.242-3.895-21.902-7.956-.563-.343-.805-1.07-.566-1.684 5.547-14.355 15.162-27.27 26.822-37.741.505-.457 1.277.096 1.029.73z" fill="#afafaf"/><path d="m241.318 482.807c1.802 15.3 7.52 30.087 19.4 40.519 19.617 17.04 47.295 17.958 71.719 12.1 7.162-1.718 6.912-.346 3.35 4.81-10.385 15.021-20.186 30.775-25.701 48.052-.432 1.352-1.693 2.286-3.111 2.228-56.349-2.327-95.369-60.143-78.035-113.053 1.918-5.854 3.326-6.589 6.915-5.224 4.406 1.679 4.763 4.634 5.463 10.568z" fill="#afafaf"/><path d="m195.648 506.447c-2.078 14.016-1.662 28.524.277 42.252 4.008 28.392 15.203 56.917 34.354 78.548 13.113 14.98 29.144 19.41-1.746 12.937-61.119-12.903-62.666-90.173-36.041-135.361 3.539-6.006 4.615-8.208 3.156 1.624z" fill="#afafaf"/><path d="m153.009 556.764c.043-.058.085-.115.127-.173 11.523-15.482 12.166-7.942 11.386 4.359-5.042 79.564 64.974 108.425 139.653 88.674 2.828-.748 5.891.403 7.245 2.998 26.923 51.589 122.442 55.442 171.393 33.049 2.434-1.113 5.354-.533 7.178 1.425 7.449 8.004 17.088 14.098 27.631 18.818 51.043 22.297 119.204 19.79 162.762-17.25 2.275-1.937 5.494-2.088 7.945-.379 27.885 19.418 64.844 25.496 98.1 23.242 42.211-2.619 85.684-21.422 105.457-60.428 1.076-2.125 3.17-3.528 5.555-3.579 38.875-.835 82.627-4.133 109.244-36.217 18.268-21.273 19.262-51.358 9.627-76.771-2.395-6.309-14.035-22.646 5.072-5.585 19.189 17.137 34.139 38.648 34.881 64.519 1.139 39.651-32.637 70.475-63.711 89.65-130.824 72.368-308.855 77.733-455.725 73.129-86.275-4.457-172.998-14.794-256.167-38.823-61.731-18.452-188.249-78.874-127.653-160.658z" fill="#ff7cc4"/><path d="m670.884 264.716c-36.07-45.614-81.295-23.063-113.575 13.44-16.15 18.682-30.273 39.299-42.857 60.514-12.859 25.095 17.104 33.516 36.439 33.687 40.094 2.597 87.795 14.074 121.78-13.434 28.967-23.965 20.485-68.635-1.787-94.207zm-70.338.002c11.465-14.054 35.207-7.946 29.203 11.927-2.076 5.242-6.592 8.631-11.029 11.806-8.598 5.489-17.496 12.408-27.584 14.423-19.094-5.364 1.494-30.481 9.41-38.156zm-8.51 76.185c-3.357 4.564-8.648 6.678-13.785 8.592-5.52 1.729-11.264 3.885-17.074 5.293-10.461 2.534-15.504 2.73-18.283-3.85-4.4-10.416 14.988-23.822 23.168-28.642 14.898-11.004 36.877.136 25.974 18.607zm70.637-7.825c-8.939 9.809-23.777 11.644-36.086 14.814-8.291 2.775-15.232-1.709-13.248-10.81 5.746-12.745 24.887-27.551 39.248-27.031 10.985.889 16.856 14.356 10.086 23.027z" fill="#ff5671"/><path d="m590.169 292.631c3.51-10.157 16.702-31.873 29.381-28.315 9.049 4.74 2.211 14.74-4.316 18.169-3.412 1.702-26.698 19.532-25.065 10.146z" fill="#ffb578"/><path d="m549.473 346.41c4.512-7.329 17.316-19.604 28.008-21.295 8.799-1.392 10.32 3.095 10.664 7.048.762 8.808-19.139 13.157-26.568 15.183-3.221.222-13.762 5.338-12.104-.936z" fill="#ffb578"/><path d="m633.144 324.954c6.256-4.014 14.248-10.751 21.951-6.938 3.57 2.087 4.479 6.42 2.617 10.011-5.607 7.787-16.984 8.509-25.5 11.493-23.053 7.425-8.135-7.674.932-14.566z" fill="#ffb578"/><path d="m1033.261 554.097c-3.963-10.228-10.906-18.318-19.518-24.855 1.021 1.941 2.027 3.871 2.568 5.291 9.635 25.413 8.641 55.498-9.627 76.771-26.617 32.084-70.369 35.382-109.244 36.217-2.385.051-4.479 1.454-5.555 3.579-19.773 39.006-63.246 57.809-105.457 60.428-33.256 2.254-70.215-3.824-98.1-23.242-2.451-1.709-5.67-1.558-7.945.379-43.559 37.04-111.719 39.547-162.762 17.25-10.543-4.721-20.182-10.814-27.631-18.818-1.824-1.958-4.744-2.538-7.178-1.425-48.951 22.394-144.47 18.54-171.393-33.049-1.354-2.595-4.417-3.746-7.245-2.998-68.488 18.114-133.006-4.692-139.354-69.96-.5 10.625.717 21.283 4.027 31.311 7.434 22.514 28.166 41.2 48.418 52.141 10.689 5.775 22.537 9.141 34.508 10.887 18.402 2.686 36.674-2.226 55.004 2.187 14.588 3.507 27.129 16.108 39.23 24.296 13.275 8.982 28.869 13.789 44.576 16.256 32.131 5.049 63.148-7.22 94.914-4.654 16.4 1.326 32.342 7.38 48.023 11.954 15.344 4.478 30.197 6.642 46.189 5.95 33.227-1.439 64.743-14.297 98.135-14.861 35.174-.594 69.098 11.326 104.473 10.028 28.662-1.05 57.285-7.623 82.805-20.843 13.141-6.807 24.531-16.564 37.063-24.38 15.436-9.624 32.672-14.646 49.855-20.13 27.225-8.691 51.881-18.894 70.145-41.849 14.277-17.941 19.455-42.245 11.076-63.861z" fill="#f55091"/><path d="m520.319 387.268c23.08 14.179 53.854 12.532 79.785 11.639 29.084-.998 58.475-.858 83.877-17.078 13.783-8.801 25.635-16.332 41.885-20.018 12.436-2.82 24.047-6.492 34.813-13.472 3.193-2.071 5.719-4.313 7.682-6.66-2.697-.642-5.244-1.167-7.533-1.554-1.311-.22-2.588.281-3.547 1.206-14.496 13.964-38.17 9.945-56.182 3.924-2.016-.675-4.154.276-5.086 2.186-17.521 35.871-62.018 43.316-98.547 40.063-25.629-2.211-52.648-1.309-77.227-9.503-11.344-4.254-19.389-15.269-20.344-26.853-3.385 13.852 7.858 28.403 20.424 36.12z" fill="#f55091"/><path d="m985.064 682.814c-31.553 13.475-63.844 25.168-96.854 34.535-67.398 19.125-136.865 24.504-206.533 28.087-68.943 3.543-138.764 4.276-207.581-1.916-60.863-5.476-121.477-18.771-179.91-36.42-42.181-12.739-86.797-27.427-120.516-56.864-20.645-18.023-32.195-40.397-34.93-64.513-16.383 66.95 87.727 115.499 141.92 131.698 83.169 24.029 169.892 34.366 256.167 38.823 146.87 4.604 324.901-.761 455.725-73.129 6.107-3.769 12.311-8.005 18.342-12.651-8.33 4.508-16.979 8.571-25.83 12.35z" fill="#ffbcdf"/><path d="m495.456 415.318c68.809 10.142 139.077 11.425 208.264 4.39 34.082-4.331 69.953-8.388 100.297-25.619 22.088-13.58 17.857-25.983 4.787-35.54 1.896 6.472 1.145 13.125-4.656 19.489-5.543 6.077-14.26 9.356-21.787 12.021-15.842 5.606-33.109 8.669-49.576 11.678-48.146 8.794-97.549 13.462-146.493 12.104-38.563-1.07-78.537-5.748-115.605-16.982-14.611-4.425-38.213-13.37-34.486-32.67 1.213-6.274 5.365-11.369 10.666-15.761-5.746 2.104-11.332 4.526-16.643 7.405-62.911 32.726 37.388 56.566 65.232 59.485z" fill="#ffbcdf"/><path d="m342.023 980.616c154.419 29.258 314.217 30.837 469.785 9.603 66.189-11.273 179.879-29.743 228.588-85.938 2.787-3.213 5.092-6.071 7.055-8.77-77.477 63.448-190.842 77.066-287.828 88.367-147.98 17.246-297.942 15.166-443.127-19.938-39.264-9.493-79.609-20.303-114.543-41.204-17.791-10.646-38.25-24.756-52.475-42.41 22.902 63.235 135.669 87.797 192.545 100.29z" fill="#ed7490"/><path d="m511.544 517.27c1.502 1.756 4.158 1.748 5.668-.006 21.607-25.141 54.941-49.511 88.106-31.317 72.271 43.187 15.961 60.194 86.559 2.718 46.607-36.55 98.688-23.787 144.031 4.261-1.979-2.469-4.086-4.863-6.326-7.159-31.395-32.201-77.271-42.486-119.426-27.589-17.943 6.341-28.721 18.524-42.895 30.354-11.365 9.481-23.061 10.232-34.527.272-7.986-6.935-16.203-13.269-25.563-18.272-16.026-8.567-35.129-9.449-51.672-2.058-10.309 4.605-19.293 11.52-29.986 15.376-14.578 5.257-24.6-4.603-35.625-12.384-16.994-11.992-35.686-16.918-56.359-15.601-10.225.65-21.535 2.699-31.486 7.07 42.389-6.536 82.315 22.528 109.501 54.335z" fill="#ed7490"/><path d="m190.65 766.547c40.547 30.07 93.891 8.475 138.818 24.418 16.906 5.88 30.296 17.465 45.597 26.293 53.342 33.371 105.443 2.049 161.34 7.402 27.582 3.688 51.41 18.149 78.102 24.818 50.057 12.927 94.107-18.494 140.592-31.244.461-.127.943-.24 1.412-.334 70.082-13.849 72.703 21.323 146.859-27.412.299-.196.613-.39.926-.561 13.734-7.591 27.666-14.459 43.35-16.729 9.002-1.301 18.525-1.801 26.877-5.73 20.533-10.108 29.508-34.518 51.67-42.398 8.066-3.662 17.111-6.982 26.232-8.303 2.17-.314 3.939-.542 5.432-.748-16.43-5.766-36.752-4.975-51.463 2.421-11.273 5.671-19.098 14.671-27.109 24.204-11.906 14.172-23.832 20.811-42.238 22.617-13.664 1.341-26.713 2.57-39.801 7.072-14.381 4.943-26.229 15.23-39.166 22.888-17.424 10.31-35.113 8.573-54.152 4.94-15.658-2.989-30.598-4.678-46.541-2.613-30.77 3.986-57.826 23.082-87.07 32.286-34.209 10.767-63.752-3.058-95.262-15.077-29.918-11.41-58.051-10.497-89.08-4.666-16.73 3.146-33.303 5.973-50.248 7.763-19.934 2.106-35.549-1.36-52.256-12.555-19.787-13.257-36.758-28.136-60.589-33.595-22.809-5.227-48.232-1.115-71.24.793-15.678 1.303-30.836-.191-44.813-7.886-10.215-5.623-18.756-14.005-28.77-20.011-8.38-5.026-17.815-7.197-27.505-6.361-1.704.146-3.362.428-5.007.734 1.944.621 3.869 1.344 5.771 2.16 14.427 6.212 26.582 16.459 39.332 25.414z" fill="#ed7490"/><path d="m186.609 687.746c19.65 15.702 42.523 27.641 67.17 36.745 58.898 21.757 123.335 32.56 185.33 40.73 73.607 9.703 147.941 12.741 222.143 11.518 70.822-1.167 141.1-9.194 210.051-25.554 57.41-13.623 118.545-34.555 161.59-76.693 7.889-7.724 15.215-18.097 20.221-29.288-3.438 3.791-8.203 9.32-14.947 16.434-14.41 15.2-32.352 27.593-49.846 37.296-185.512 96.09-564.682 89.128-757.066 12.507-18.068-7.52-32.709-15.669-44.646-23.695z" fill="#ffe1dc"/><path d="m978.732 896.321c-31.887 10.879-64.861-9.259-96.932-.162-28.463 8.073-49.605 31.315-76.488 42.878-30.912 13.291-63.49 6.467-95.035-.574-69.527-19.671-87.922 4.46-150.024 15.094-.258.045-.529.081-.789.105-48.725 4.664-89.473-28.257-134.645-40.346-34.533-9.23-69.641-.518-104.664-1.574-34.182.598-64.006-17.289-87.865-40.405-18.246-16.077-41.387-35.642-66.531-36.587 17.119 6.199 32.065 16.506 46.243 30.908 17.317 17.592 34.483 37.141 57.151 47.888 26.385 12.507 55.248 10.733 83.482 7.716 16.479-1.762 32.826-3.183 49.406-2.112 17.217 1.11 33.846 10.504 48.672 18.565 26.889 14.621 50.785 28.223 82.205 29.328 34.545 1.22 65.783-13.279 98.44-21.846 35.801-9.392 70.65-3.441 105.771 5.566 14.432 3.701 28.514 7.549 43.52 5.936 14.613-1.568 28.543-8.92 41.746-14.903 22.936-10.394 42.182-27.29 66.703-34.371 23.477-6.774 48.053 2.624 71.988 1.284 19.141-1.072 34.949-10.29 47.754-24.139 8.471-9.16 15.768-19.715 22.904-29.91 2.563-3.66 5.068-7.958 7.682-12.359-20.511 17.792-33.626 45.041-60.694 54.02z" fill="#ffe1dc"/><path d="m429.247 408.938c12.096 7.538 26.1 12.615 39.082 17.198 29.646 10.463 60.637 13.021 91.773 15.282 4.623.335 9.266.65 13.922.947 7.418.472 14.877.881 22.355 1.224 57.506 2.624 116.475.793 171.686-14.486 17.098-4.731 38.4-12.604 47.502-29.21-2.744 2.128-5.582 4.104-8.438 5.728-64.251 36.42-290.156 43.067-377.882 3.317z" fill="#ffe1dc"/><path d="m561.577 347.346c6.662-1.817 23.305-5.514 26.135-12.606-11.273 6.278-24.242 9.766-36.92 9.781-.463.644-.957 1.302-1.318 1.889-1.659 6.274 8.882 1.158 12.103.936z" fill="#ff9750"/><path d="m141.034 813.576c.2 2.281.349 4.566.558 6.846.31 3.398 3.641 5.592 6.931 4.693 5.361-1.467 10.939-2.096 16.516-1.918 33.672 1.152 58.625 25.668 82.582 46.279 44.127 44.256 94.487 27.233 149.314 28.039 16.365.736 32.135 4.355 47.479 10.007 29.852 10.995 57.871 28.389 89.592 33.743 35.072 5.918 65.885-12.021 99.204-19.107 33.807-7.187 66.246 2.762 99.236 9.328 83.246 22.625 101.734-48.439 171.553-49.258.232-.004.465.004.697.023 31.836 2.564 68.465 15.688 93.297-12 15.334-15.061 29.904-39.146 50.691-47.734 14.205-5.869 15.039-5.35 15.666-21.985.08-2.091.084-4.19.15-6.282-12.643 2.396-24.982 6.865-36.742 13.166-24.852 13.314-38.76 38.128-60.992 54.568-28.791 21.293-66.637 7.564-99.268 10.066-26.199 2.008-48.389 18.574-70.967 30.271-13.422 6.952-27.412 11.177-42.578 11.483-17.852.361-36.293-4.637-53.74-8.004-31.168-6.02-60.166-7.172-91.166.506-17.184 4.258-34.002 9.445-51.706 11.163-20.637 2.004-38.342-5.026-56.365-14.159-26.111-13.232-50.809-28.565-80.295-32.855-30.857-4.49-60.371 8.882-90.796 11.078-31.913 2.306-56.633-16.493-79.958-35.555-17.976-14.693-36.464-28.828-59.511-34.173-15.566-3.61-33.762-3.76-49.382 1.771z" fill="#ff9750"/><path d="m621.804 335.816c-3.527 4.785-2.85 7.974 10.408 3.704 8.516-2.984 19.893-3.706 25.5-11.493.754-1.453.932-3.006.787-4.504-10.773 7.432-23.816 12.251-36.695 12.293z" fill="#ff9750"/><path d="m590.477 291.815c-.1.27-.221.56-.309.816-1.633 9.386 21.653-8.444 25.065-10.146 5.176-2.718 10.516-9.563 8.006-14.647-7.626 10.464-20.189 19.88-32.762 23.977z" fill="#ff9750"/><path d="m209.461 794.821c31.716 12.783 65.792 4.642 98.509 11.796 31.621 6.917 58.583 29.071 89.365 39.008 32.389 10.454 66.172 3.33 99.211 1.193 35.5-2.293 66.551 10.697 99.779 20.808 31.215 9.499 63.375 8.251 94.481-.965 34.754-10.296 65.533-28.49 103.012-26.804 30.17 1.355 60.246 8.859 89.307-3.155 20.625-8.524 34.172-28.274 55.539-35.632 19.154-6.596 40.533-4.719 57.297-17.791 13.641-10.639 22.891-25.273 33.549-38.65 3.912-4.912 8.182-9.436 12.869-13.52-11.914 3.68-22.908 9.484-31.311 18.898-10.801 12.1-21.529 24.838-37.434 30.13-16.232 4.625-33.895 3.719-49.068 12.205-28.914 13.29-54.973 36.507-88.172 37.076-.295.005-.607-.014-.9-.049-76.635-9.378-81.01.686-150.246 26.896-45.609 16.67-84.543 2.591-126.975-14.807-51.744-19.509-105.152 14.484-157.359-1.166-34.586-8.008-58.418-38.705-94.219-42.902-50.125-5.084-93.117 6.749-134.917-30.346-.111-.095-.223-.186-.34-.27-1.907-1.376-3.861-2.865-5.855-4.367 12.473 13.552 26.852 25.551 43.878 32.414z" fill="#ffc9a1"/><g fill="#bebebe"><path d="m391.417 544.902c-1.047-2.766-2.195-5.842-3.295-9.032 3.004 43.747 38.871 82.564 84.33 85.527 2.098.138 3.938-1.362 4.395-3.415 2.174-9.669 5.596-19.012 10.199-27.43.314-.562.648-1.111.969-1.671-7.002 4.702-14.189 9.069-22.504 11.821-18.492 6.114-37.496-4.106-50.822-16.379-11.626-10.703-17.809-24.971-23.272-39.421z"/><path d="m560.991 576.129c8.258 30.259 27.791 57.712 54.772 73.243 21.41 12.056 49.311 14.368 71.258 3.11 10.07-5.165 12.061-8.371 13.473-19.066.488-3.69.568-7.407.289-11.084-7.832 9.573-16.41 17.609-29.641 21.307-22.561 6.308-46.762-2.924-65.506-15.143-18.178-11.85-34.514-30.987-44.645-52.367z"/><path d="m884.216 481.058c.816 3.292 2.479 4.407 6.006 3.042 5.182-2.006 10.221-3.733 15.156-5.77-6.859-1.655-13.328-5.188-19.023-11.352-5.607-6.066-10.016-12.315-15.877-16.633 6.252 9.394 11.021 19.798 13.738 30.713z"/><path d="m306.974 590.516c1.418.058 2.68-.876 3.111-2.228 2.768-8.668 6.615-16.953 11.074-24.956-10.299 4.684-20.677 7.274-33.094 6.449-15.736-1.045-29.431-8.358-40.467-19.339-13.266-13.204-20.615-30.469-22.789-48.501-.812 44.863 34.46 86.605 82.165 88.575z"/><path d="m228.532 640.185c28.58 5.99 16.992 2.639 4.715-9.762-16.35-4.115-30.683-13.521-42.027-28.614-9.131-12.149-13.211-25.408-15.08-39.183-1.131 35.337 13.652 69.381 52.392 77.559z"/><path d="m261.214 478.573c-.238.614.004 1.341.566 1.684 6.66 4.062 14.305 6.283 21.902 7.956.984.218 1.797-.71 1.512-1.68-.373-1.268-.631-2.552-.902-3.832-4.715-2.975-8.223-7.528-10.021-14.765-.928-3.724-1.096-7.465-.793-11.189-5.053 6.758-9.266 14.07-12.264 21.826z"/><path d="m839.415 546.674c6.578 1.992 12.963 4.581 19 7.814 10.66 5.707 4.457 1.479 3.488-2.709-.498-2.166-.883-4.352-1.211-6.544-7.797-2.597-13.943-9.777-16.059-17.884-3.391 4.956-5.844 10.453-6.959 16.575-.222 1.217.56 2.39 1.741 2.748z"/><path d="m694.642 678.816c15.467 11.082 34.553 17.418 54.16 20.146-3.035-1.266-6.029-2.619-8.939-4.148-11.852-6.229-21.385-15.768-26.25-28.324-3.355-8.662-1.27-19.047-1.811-28.145-.051-.825-.145-1.642-.27-2.449-.006.033-.012.052-.016.085-1.313 8.557-4.199 16.979-8.482 24.878-2.615 4.82-5.627 9.332-8.945 13.563-1.084 1.379-1.058 3.239.553 4.394z"/><path d="m903.907 635.84c8.721-.262 17.77-.769 26.781-1.794-.996-.238-1.994-.473-2.975-.727-12.197-3.159-20.904-8.823-27.432-16.966.09 4.669-.291 9.325-1.17 13.91-1.303 6.824-1.196 5.759 4.796 5.577z"/><path d="m379.182 683.02c5.877 1.496-9.68-9.86-11.588-14.045-.832-1.014-1.643-2.051-2.449-3.092-10.23-3.656-19.645-9.438-27.816-18.316-13.121-14.259-18.066-34.192-16.926-53.65-13.904 46.107 5.663 78.136 58.779 89.103z"/><path d="m490.659 668.428c9.504 20.592 34.723 29.719 55.193 35.032-6.027-6.553-10.975-13.643-15.125-21.053-1.359-.552-2.719-1.144-4.078-1.806-12.41-6.023-21.881-16.266-27.789-28.598-6.836-14.266-7.854-31.625-5.281-48.649-8.664 20.932-11.49 43.259-2.92 65.074z"/><path d="m351.71 465.425c-14.316.108-23.435-13.204-27.603-27.301.582 18.477 7.156 36.552 23.796 46.157 1.803 1.041 4.055.804 5.758-.394 5.334-3.75 10.867-7.19 16.654-10.178 1-.517 1.85-1.291 2.363-2.291 2.67-5.22 4.234-11.482 5.824-17.718-7.638 6.693-16.57 11.646-26.792 11.725z"/><path d="m703.554 593.057c2.738 4.665 4.77 9.519 6.211 14.475-2.131-14.947-1.492-30.184 1.76-44.838-4.82 9.01-7.301 19.374-8.502 29.554.168.276.367.531.531.809z"/><path d="m948.714 567.233c-14.254-7.394-26.859-18.561-37.807-30.193-6.734-7.155-10.895-14.826-14.604-22.862 1.082 6.955 2.893 13.787 5.57 20.375 16.154 39.745 58.881 60.597 100.23 57.132 2.607-.218 4.766-2.057 5.656-4.518 2.051-5.668 3.037-11.605 3.199-17.609-3.611 2.374-7.475 4.4-11.764 5.844-16.82 5.662-35.484-.393-50.48-8.169z"/><path d="m747.281 565.992c.512 4.246 1.004 7.423 1.305 8.608 2.865 13.868 8.107 27.264 16.297 38.874 17.334 24.505 47.654 35.267 76.205 39.997 14.688 1.094 37.994 5.797 42.902-12.285 3.16-7.343 4.805-15.163 4.84-22.933-3.516 6.549-8.1 12.415-14.363 16.912-19.361 13.906-51.266 4.226-70.639-5.198-27.055-13.163-46.469-36.635-56.547-63.975z"/></g><path d="m324.997 422.106c-.063.435-.102.877-.157 1.314 12.003.207 22.479 11.277 33.397 17.31 6.758 3.732 15.26 4.839 22.887 3.243.871-4.021-.82-3.641-3.934-4.839-10.098-3.891-19.498-9.186-28.014-15.938-5.811-4.468-12.55-6.784-19.591-5.707-2.359.361-4.25 2.257-4.588 4.617z" fill="#efefef"/><path d="m273.782 540.724c14.385 9.242 36.66 17.079 54.051 11.461 2.57-4.041 5.239-8.023 7.953-11.949 3.563-5.156 3.813-6.528-3.35-4.81-24.424 5.858-52.102 4.94-71.719-12.1-11.809-10.369-17.52-25.041-19.357-40.242 1.614 23.084 12.165 44.624 32.422 57.64z" fill="#efefef"/><path d="m802.495 583.295c13.295 7.077 28.207 10.958 43.051 12.995 13.404 1.84 28.018-.242 40.439 4.437-.703-2.042-1.512-4.055-2.482-6.013-2.453-4.954-3.805-5.752-10.65-5.537-32.945 1.046-64.705-11.341-91.576-30.375-8.277-5.863-13.754-13.099-17.84-19.723 5.865 19.088 20.785 34.494 39.058 44.216z" fill="#efefef"/><path d="m209.877 599.526c1.536 1.94 3.276 4.034 5.147 6.116-9.975-17.495-16.316-37.225-19.1-56.943-1.939-13.728-2.355-28.236-.277-42.252 1.459-9.833.383-7.63-3.156-1.624-1.535 2.604-2.965 5.327-4.307 8.126-1.383 17.451.592 35.396 4.941 51.731 3.281 12.315 8.814 24.818 16.752 34.846z" fill="#efefef"/><path d="m891.48 449.702c8.426 7.154 15.121 15.709 18.98 26.332.893-.431 1.795-.823 2.68-1.297 2.613-1.4 3.221-4.88 1.271-7.113-6.394-7.314-14.338-13.109-22.931-17.922z" fill="#efefef"/><path d="m337.183 596.77c1.221 13.73 5.109 27.494 11.675 39.639-.18-.535-.385-1.062-.551-1.602-8.425-29.817-5.215-61.921 4.387-91.376 2.314-7.099 1.521-8.965-2.732-3.38-3.842 5.046-7.46 10.308-10.912 15.662-2.758 13.933-2.978 28.559-1.867 41.057z" fill="#efefef"/><path d="m415.413 540.321c-.418-.587-1.002-1.043-1.656-1.35-8.887-4.124-11.064-12.622-13.602-21.663-1.039-3.699-2.924-7.755-5.582-9.591-.063-.034-.131-.069-.193-.103 3.221 23.388 16.941 44.771 36.254 58.449 16.23 11.495 37.508 16.334 55.654 9.336-27.375-1.235-54.897-12.586-70.875-35.078z" fill="#efefef"/><path d="m519.536 654.279c-8.412-33.078-3.027-69.598 11.932-100.976-14.691 16.145-23.357 42.904-24.439 62.497-.767 13.841 5.696 26.8 12.507 38.479z" fill="#efefef"/><path d="m579.719 558.09c6.303 16.477 22.184 29.691 36.532 38.61 11.744 7.301 25.131 11.048 38.799 12.429 12.574 1.268 29.01-4.659 42.201-2.385-.422-1.076-.863-2.146-1.352-3.197-2.434-5.239-1.199-6.332-9.555-5.541-36.076 3.415-73.076-12.745-99.811-36.658-2.536-.66-4.808-1.796-6.814-3.258z" fill="#efefef"/><path d="m906.433 496.657c6.307 18.098 24.727 31.085 41.229 39.142 13.957 6.816 28.771 11.574 43.848 15.229 6.643 1.61 12.861 3.105 18.57 5.433-.254-1.67-.549-3.339-.898-4.994-1.303-6.129.547-5.08-6.428-5.325-36.692-1.286-72.526-23.088-96.321-49.485z" fill="#efefef"/><path d="m293.792 448.618c-4.33 12.885-5.766 26.492-.881 39.249.58 1.512 1.967 2.572 3.56 2.869 10.88 2.021 21.695 4.788 31.573 10.025 1.788.946 3.945.732 5.444-.624.263-.238.538-.463.8-.699-6.52-4.739-14.229-8.364-20.588-12.285-14.823-9.14-19.761-23.29-19.908-38.535z" fill="#d3d3c9"/><path d="m814.341 570.743c16.254 7.196 33.875 11.219 51.736 11.594 11.057.232 8.246-1.644 2.76-6.613-1.764-1.597-3.641-3.065-5.547-4.493-15.689 4.287-32.738 3.601-48.949-.488z" fill="#d3d3c9"/><path d="m619.351 575.98c18.539 10.092 39.344 16.274 60.023 15.648 7.779-.236 8.621-1.421 2.648-7.099-1.818-1.729-3.758-3.326-5.744-4.843-18.501 4.88-38.322 2.188-56.927-3.706z" fill="#d3d3c9"/><path d="m873.161 563.824c.242.547.615 1.026 1.074 1.411 9.316 7.85 16.984 17.609 21.572 28.888.236.584.605 1.113 1.086 1.522 20.734 17.655 48.107 25.559 74.924 27.431.723.053 1.451-.089 2.102-.409 2.537-1.245 4.969-2.653 7.344-4.15-19.328-3.144-38.223-10.067-55.777-18.653-26.977-13.195-45.98-34.414-58.568-60.379.741 8.398 2.843 16.699 6.243 24.339z" fill="#d3d3c9"/><path d="m286.06 521.916c-8.752-1.309-17.963-4.135-25.693-8.857 17.542 21.025 48.813 21.329 74.955 14.418 2.714-.717 3.742-4.083 1.834-6.143-1.619-1.751-3.35-3.287-5.138-4.715-14.218 6.291-29.941 7.687-45.958 5.297z" fill="#d3d3c9"/><path d="m555.737 703.809c1.525 1.45 3.49 2.397 5.57 2.715 33.107 5.05 69.024.678 97.543-16.146 2.754-1.625 5.445-3.406 8.053-5.329 1.117-.825 2.096-1.565 3.104-2.323-34.309 11.576-73.641 10.693-103.204-10.519-17.873-12.825-27.787-33.589-34.104-54.022-3.049-9.855-5.232-20.688-6.168-31.681-10.06 41.518-2.733 86.926 29.206 117.305z" fill="#d3d3c9"/><path d="m734.532 652.938c13.133 18.939 32.258 35.477 54.146 43.201 8.586 3.031 10.674 2.84 20.451.684 14.588-3.213 28.727-8.754 41.088-16.753-29.609 2.782-58.959-.874-84.93-18.106-21.074-13.984-36.615-35.77-43.756-59.9-3.133-10.582-4.211-21.438-4.439-32.39-.072.409-.166.814-.234 1.224-4.716 28.5 1.532 58.077 17.674 82.04z" fill="#d3d3c9"/><path d="m869.806 493.191c.203-.103.412-.195.613-.299-.375-4.862-1.592-9.739-2.574-13.438-3.039-11.457-8.742-23.622-17.67-31.939 4.207 13.91 10.717 30.685 15.83 44.251.578 1.538 2.34 2.174 3.801 1.425z" fill="#d3d3c9"/><path d="m997.618 538.743c6.262.67 8.398-.034 5.014-6.757-1.979-3.929-4.338-7.668-6.863-11.315-24.75 1.329-49.178-4.306-71.814-16.177 20.238 18.447 46.751 31.371 73.663 34.249z" fill="#d3d3c9"/><path d="m395.884 685.151c1.086.67 2.33 1.09 3.598 1.224 24.814 2.623 50.664-.069 73.732-9.209 4.949-1.959 7.109-3.035 4.65-10.395-1.133-3.395-1.883-6.91-2.469-10.464-36.668 19.788-83.451 19.157-107.176-21.704-10.686-18.408-15.768-41.057-15.742-63.756-7.748 43.532 3.338 89.628 43.407 114.304z" fill="#d3d3c9"/><path d="m248.755 634.521c12.014 9.152 13.219 9.208 29.553 7.611 35.961-3.515 25.188-1.927 27.061-28.835-12.435 8.035-26.604 12.22-42.396 9.36-19.295-3.498-32.277-19.675-40.88-36.029-13.075-24.856-17.099-51.947-19.122-79.335-7.321 45.592 9.458 99.558 45.784 127.228z" fill="#d3d3c9"/><path d="m500.452 568.328c2.107-3.238 4.303-6.415 6.537-9.565-2.045-1.563-4.162-3.016-6.332-4.379-16.555 6.784-34.389 8.377-51.949 4.884 15.867 7.754 34.418 10.73 51.744 9.06z" fill="#d3d3c9"/><path d="m539.184 572.445c4.768 19.359 12.59 38.502 25.041 54.175 16.443 20.697 42.543 34.999 68.946 36.972-48.864-13.33-82.024-66.485-83.463-116.762-.299-10.505-.303-12.303-6.404-1.935-2.586 4.398-4.945 8.954-7.088 13.627.816 4.749 1.861 9.426 2.968 13.923z" fill="#f7f7f5"/><path d="m400.788 607.078c13.113 15.17 31.609 24.123 51.166 27.374 6.863 1.141 14.762 1.648 22.455.854.514-7.171 1.885-6.482-7.213-7.636-31.551-3.994-60.766-23.829-75.117-52.412-9.346-18.491-12.699-39.561-9.711-59.965.668-4.563 1.535-8.244-4.059-3.299-6.845 33.139-.019 69.057 22.479 95.084z" fill="#f7f7f5"/><path d="m730.308 571.901c5.23 20.694 13.623 40.312 28.783 55.644 13.211 13.359 30.139 21.428 47.994 24.601-19.693-7.601-37.338-19.953-49.359-36.921-17.299-25.797-20.307-57.463-18.355-87.777.459-7.119-2.514-5.637-6.064-.002-2.967 4.704-5.559 9.606-7.809 14.654.482 10.018 2.351 20.067 4.81 29.801z" fill="#f7f7f5"/><path d="m306.271 605.078c.234-1.619.496-3.287.83-5.068.254-1.363-.715-2.633-2.096-2.73-34.049-2.366-66.066-24.297-79.352-55.956-5.965-14.047-8.396-29.432-7.236-44.564-10.109 51.521 35.091 116.555 87.854 108.318z" fill="#f7f7f5"/><path d="m882.218 499.414c.494 27.906 9.818 52.133 32.355 71.146 6.439 5.433 13.717 9.716 21.371 13.175-27.828-17.184-47.01-47.645-47.773-81.039-.078-3.455-.059-5.429-5.27-3.531-.226.083-.454.165-.683.249z" fill="#f7f7f5"/><path d="m928.163 479.731c16.438 1.185 32.096 5.792 46.533 13.245-6.158-7.58-12.777-15.021-21.432-19.502-8.909-4.73-16.952 1.294-25.101 6.257z" fill="#f7f7f5"/><path d="m459.956 529.06c12.818 1.271 25.254 4.605 36.709 10.054.639.303 1.334.364 1.975.211-6.24-10.186-20.055-15.057-31.063-16.901-8.467-1.419-17.074-.627-25.58-.251-11.258.497-16.102-5.114-20.918-14.416-5.715-11.037-13.547-15.943-26.207-14.605-3.008.317-6.02 1.093-8.934 2.217 1.008-.171 2.012-.366 3.043-.423 10.281-.549 17.578 6.582 21.076 15.66 1.824 4.738 1.881 10.866 4.863 15.06 2.77 3.892 7.945 4.331 12.316 4.304 11.017-.069 21.632-2.01 32.72-.91z" fill="#df3f58"/><path d="m550.891 372.357c40.094 2.597 87.795 14.074 121.78-13.434 28.668-23.719 20.633-67.687-1.125-93.382 5.158 14.506 8.43 29.246 6.068 46.151-3.693 26.46-22.137 45.097-47.336 51.573-23.162 5.95-50.459 3.648-73.815.239-12.533-1.828-26.023-4.358-35.178-13.753-3.406-3.494-5.307-7.647-6.223-12.07-.197.33-.414.656-.611.989-12.858 25.095 17.104 33.517 36.44 33.687z" fill="#df3f58"/><path d="m710.659 525.199c-11.521 11.403-19.717 25.727-26.004 40.714.521-.731 1.092-1.583 1.811-2.683 15.967-24.407 48.893-71.946 75.584-48.438 6.023 6.157 6.078 15.235 9.305 22.68 5.248 10.059 22.52 4.67 31.402 4.372 6.115-.205 12.279.092 18.391.879 2.637.339 5.164-1.249 5.783-3.834.332-1.39.807-2.694 1.244-4.023-4.32-1.882-8.943-2.689-13.832-2.73-10.777-.087-33.549 9.105-33.984-9.558-.184-7.86.508-13.12-5.576-18.867-5.221-4.932-13.295-5.739-20.039-5.118-16.979 1.567-32.524 15.167-44.085 26.606z" fill="#df3f58"/><path d="m594.331 535.338c-3.748-5.406-3.816-12.507-7.629-17.949-6.395-9.123-20.391-6.793-32.723-.461 10.293-2.602 19.949.562 25.564 15.149 2.182 5.82 1.936 14.655 8.4 17.657 5.766 2.678 13.25 1.054 19.286.452 13.582-1.333 27.408-.283 40.588 3.276-7.197-5.509-17.006-8.622-25.115-9.365-9.837-.907-21.953.499-28.371-8.759z" fill="#df3f58"/><path d="m593.555 257.082c14.397-8.459 29.84-13.555 45.635-15.743-28.496-8.621-58.565 10.452-81.881 36.818-4.699 5.435-9.18 11.074-13.549 16.804 15.526-13.863 31.864-27.339 49.795-37.879z" fill="#ff9780"/><path d="m454.76 484.104c-9.553-5.122-19.748-8.776-30.643-10.13-30.785-3.827-58.375 13.06-80.738 32.743-1.33 1.172-1.283 3.227.008 4.443.209.196.391.393.586.589 16.721-15.123 40.316-24.422 60.928-29.095 16.734-3.793 33.818-3.065 49.859 1.45z" fill="#ff9780"/><path d="m532.725 517.151c12.389-8.07 26.449-13.724 40.229-14.688 22.785-1.597 44.963 10.56 63.241 24.159-34.756-40.163-65.017-48.492-103.47-9.471z" fill="#ff9780"/><path d="m728.101 481.91c-26.676 9.291-48.305 30.017-66.975 50.914-1.652 1.853-1.736 4.601-.244 6.586 2.5 3.327 4.932 6.701 7.35 10.09 7.119-10.757 16.881-20.283 25.574-29.234 13.455-13.859 28.727-24.712 47.057-31.036 16.51-5.697 34.92-6.452 53.164-4.167-21.184-7.99-43.58-11.019-65.926-3.153z" fill="#ff9780"/><path d="m750.634 331.222c-11.016 4.136-23.76 2.807-33.529-6.053-10.742-9.741-11.172-32.797-5.156-47.121-1.338-.556-2.67-1.156-4.02-1.633-1.637-.577-3.457-.157-4.729 1.025-1.537 1.433-3.143 2.948-4.863 4.312-1.6 1.266-2.123 3.415-1.406 5.324 5.076 13.521 7.178 28.162 4.848 42.237-.375 2.262.783 4.499 2.934 5.295 14.278 5.281 38.884 8.195 45.921-3.386z" fill="#39b487"/><path d="m661.921 240.613c9.719 7.067 17.977 15.983 24.502 25.911 2.391 3.636 7.609 4.151 10.512.908 10.361-11.576 12.672-27.988 8.395-42.901-.42 3.011-.986 5.997-1.834 8.917-2.729 9.4-9.535 15.508-19.643 13.687-11.537-2.078-18.113-11.426-23.455-20.956-.473 2.674-.908 5.356-1.291 8.044-.356 2.488.783 4.912 2.814 6.39z" fill="#39b487"/><path d="m671.564 211.866c-1.516 4.533-1.898 9.332.676 13.301 3.736 5.768 12.656 5.287 17.479 1.486 5.043-3.973 2.422-11.005-.566-16.06-9.242-15.603-14.167-8.981-17.589 1.273z" fill="#b4efd7"/><path d="m740.743 309.186c-2.201-2.701-8.801-8.015-11.67-3.016-2.307 4.021.326 10.074 2.514 13.609 1.291 2.091 3.564 3.553 6.117 2.959 6.244-1.461 9.975-5.039 3.039-13.552z" fill="#b4efd7"/><path d="m724.179 263.912c-3.818-.54-6.664-2.523-9.037-5.101-.275 1.057-.564 2.104-.928 3.078-.764 2.069.131 4.313 2.148 5.201 4.482 1.97 8.744 4.911 12.887 6.672 1.023.435 2.156.369 3.158-.105 4.367-2.062 13.01-6.332 17.127-10.11 1.781-1.394 2.264-4.072 1.885-6.805-1.715.945-3.404 1.925-5.158 2.8-6.875 3.427-14.385 5.456-22.082 4.37z" fill="#abab38"/></g></g></svg>