<svg id="Layer_1" enable-background="new 0 0 512 512" height="512" viewBox="0 0 512 512" width="512" xmlns="http://www.w3.org/2000/svg"><g><g><g><g><path d="m401.81 94.628v293.519c0 14.142-11.463 25.621-25.621 25.621h-319.565c-14.159 0-25.621-11.48-25.621-25.621v-293.519c0-14.159 11.463-25.621 25.621-25.621h319.564c14.159 0 25.622 11.48 25.622 25.621z" fill="#fff7db"/></g><g><path d="m401.81 94.628v93.194h-370.807v-93.194c0-14.159 11.463-25.621 25.621-25.621h319.564c14.159 0 25.622 11.48 25.622 25.621z" fill="#18ac86"/></g><g><path d="m401.811 370.059v18.078c0 1.632-.152 3.242-.457 4.786-.674 3.59-2.088 6.896-4.09 9.79-4.612 6.679-12.335 11.051-21.08 11.051h-319.555c-8.745 0-16.447-4.373-21.059-11.03-2.001-2.872-3.437-6.2-4.112-9.768-.305-1.566-.457-3.176-.457-4.83v-18.078c0 14.14 11.465 25.627 25.627 25.627h319.555c14.163.001 25.628-11.485 25.628-25.626z" fill="#fad2a2"/></g><g><g><path d="m31.459 392.967c4.438 6.07 11.595 10.029 19.666 10.029h330.563c8.071 0 15.25-3.981 19.666-10.072-.674 3.59-2.088 6.896-4.09 9.79-4.481 2.937-9.833 4.634-15.576 4.634h-330.563c-5.721 0-11.073-1.697-15.555-4.612z" fill="#f6bc8d"/></g></g><g><path d="m31 177.504h370.813v10.318h-370.813z" fill="#048c6c"/></g><g><g><path d="m31.003 158.891h5.439v4.351h-5.439z" fill="#048c6c"/></g><g><path d="m385.465 163.242h-10.907v-4.351h10.907zm-21.815 0h-10.907v-4.351h10.907zm-21.814 0h-10.906v-4.351h10.906zm-21.813 0h-10.907v-4.351h10.907zm-21.814 0h-10.907v-4.351h10.907zm-21.814 0h-10.907v-4.351h10.907zm-21.815 0h-10.906v-4.351h10.906zm-21.813 0h-10.907v-4.351h10.907zm-21.814 0h-10.907v-4.351h10.907zm-21.814 0h-10.907v-4.351h10.907zm-21.814 0h-10.906v-4.351h10.906zm-21.813 0h-10.907v-4.351h10.907zm-21.815 0h-10.907v-4.351h10.907zm-21.814 0h-10.907v-4.351h10.907zm-21.813 0h-10.907v-4.351h10.907zm-21.814 0h-10.907v-4.351h10.907z" fill="#048c6c"/></g><g><path d="m396.372 158.891h5.439v4.351h-5.439z" fill="#048c6c"/></g></g><g><circle cx="120.692" cy="115.896" fill="#048c6c" r="22.012"/></g><g><circle cx="312.134" cy="115.896" fill="#048c6c" r="22.012"/></g><g><g><g><g><path d="m328.58 66.37c-1.515 3.431-2.184 6.863-2.635 10.294-.443 3.431-.452 6.863-.354 10.294.1 3.431.359 6.863.814 10.294.462 3.431 1.104 6.863 2.175 10.294 2.836 9.083-2.229 18.745-11.312 21.581s-18.745-2.229-21.581-11.312c-1.086-3.479-1.014-7.037 0-10.27 1.071-3.431 1.713-6.863 2.175-10.294.454-3.431.713-6.863.814-10.294.098-3.431.09-6.863-.354-10.294-.451-3.431-1.12-6.863-2.635-10.294-4.011-9.083.101-19.698 9.184-23.709s19.698.101 23.709 9.184c2.117 4.794 1.944 10.075 0 14.526z" fill="#c9e8f7"/></g></g><g><g><path d="m137.139 66.37c-1.515 3.431-2.184 6.863-2.635 10.294-.443 3.431-.452 6.863-.354 10.294.1 3.431.359 6.863.813 10.294.462 3.431 1.104 6.863 2.175 10.294 2.836 9.083-2.229 18.745-11.312 21.581s-18.745-2.229-21.581-11.312c-1.086-3.479-1.014-7.037 0-10.27 1.071-3.431 1.713-6.863 2.175-10.294.454-3.431.713-6.863.813-10.294.098-3.431.09-6.863-.354-10.294-.451-3.431-1.12-6.863-2.635-10.294-4.011-9.083.101-19.698 9.184-23.709s19.698.101 23.709 9.184c2.118 4.794 1.946 10.075.002 14.526z" fill="#c9e8f7"/></g></g></g><g><g><path d="m327.891 105.108c-1.936 4.398-5.676 7.973-10.623 9.518-8.459 2.641-17.415-1.575-20.896-9.503-.208.808-.433 1.617-.685 2.425-1.014 3.233-1.086 6.791 0 10.27 2.836 9.083 12.498 14.148 21.581 11.312s14.148-12.498 11.312-21.581c-.253-.815-.48-1.628-.689-2.441z" fill="#89cbe5"/></g></g><g><g><path d="m136.45 105.108c-1.936 4.398-5.676 7.973-10.623 9.518-8.459 2.641-17.415-1.575-20.896-9.503-.208.808-.433 1.617-.685 2.425-1.014 3.233-1.086 6.791 0 10.27 2.836 9.083 12.498 14.148 21.581 11.312s14.148-12.498 11.312-21.581c-.254-.815-.48-1.628-.689-2.441z" fill="#89cbe5"/></g></g><g><ellipse cx="318.812" cy="53.139" fill="#fff" rx="3.988" ry="7.614" transform="matrix(.707 -.707 .707 .707 55.803 240.999)"/></g><g><ellipse cx="126.771" cy="53.139" fill="#fff" rx="3.988" ry="7.614" transform="matrix(.707 -.707 .707 .707 -.445 105.205)"/></g></g></g><g fill="#4a1e2c"><path d="m165.658 283.4h9.744c3.76 0 7.12-.628 10.085-1.889 2.963-1.258 5.471-2.916 7.522-4.976s3.617-4.49 4.701-7.294c1.081-2.802 1.623-5.748 1.623-8.838 0-2.516-.427-4.977-1.282-7.38-.854-2.401-2.195-4.545-4.016-6.434-1.825-1.889-4.132-3.406-6.924-4.549-2.794-1.144-6.127-1.718-10-1.718-3.077 0-5.926.427-8.547 1.282-2.623.854-4.957 1.939-7.009 3.247-2.051 1.312-3.876 2.795-5.471 4.444-1.597 1.654-2.965 3.278-4.102 4.872l-7.522-7.009c1.822-2.164 3.903-4.3 6.24-6.411 2.335-2.107 4.899-3.988 7.693-5.641 2.791-1.651 5.838-2.963 9.145-3.932 3.305-.967 6.779-1.452 10.428-1.452 4.556 0 8.83.801 12.82 2.397 3.988 1.598 7.436 3.767 10.342 6.507s5.185 5.996 6.838 9.762c1.651 3.766 2.479 7.818 2.479 12.155 0 5.369-1.483 10.534-4.445 15.5-2.965 4.968-7.692 8.704-14.187 11.215 6.838 2.39 12.136 6.458 15.898 12.203 3.76 5.749 5.641 12.204 5.641 19.373 0 4.778-.914 9.215-2.735 13.312-1.824 4.097-4.358 7.623-7.607 10.582-3.247 2.959-7.18 5.291-11.795 6.998-4.615 1.704-9.716 2.559-15.298 2.559-4.218 0-8.093-.598-11.624-1.795-3.534-1.196-6.726-2.82-9.573-4.871-2.85-2.051-5.385-4.416-7.607-7.095-2.222-2.676-4.132-5.496-5.727-8.461l8.718-6.155c.342.799 1.111 2.167 2.307 4.103 1.197 1.939 2.878 3.931 5.044 5.983 2.163 2.051 4.898 3.846 8.205 5.384 3.305 1.538 7.292 2.308 11.966 2.308 3.531 0 6.779-.569 9.744-1.71 2.962-1.138 5.556-2.735 7.778-4.786s3.958-4.501 5.213-7.35c1.252-2.848 1.88-5.984 1.88-9.402 0-3.19-.542-6.326-1.624-9.402-1.085-3.077-2.708-5.813-4.871-8.206-2.166-2.393-4.901-4.3-8.205-5.727-3.307-1.423-7.18-2.136-11.624-2.136h-10.257v-9.567z"/><path d="m290.081 226.134 1.347.171v123.42l-10.77-.171v-104.787l-.854-.513-30.257 18.804-4.102-8.376z"/></g></g><g><g><g><path d="m447.697 403.022c-47.92-.258-77.647 6.93-77.647 6.93 4.713-13.46 31.762-69.288 31.762-69.288s5.296 6.004 19.623 3.711c14.334-2.286 19.479-19.206 19.479-19.206 10.093 22.227 39.27 11.615 40.064 11.316.015.001.022-.007.022-.007-25.314 21.779-4 38.557-3.161 39.204-.733-.35-13.081-6.023-22.415 4.459-8.431 9.449-7.727 22.881-7.727 22.881z" fill="#18ac86"/></g><g><path d="m447.697 403.022c-47.92-.258-77.647 6.93-77.647 6.93 53.225-46.84 109.654-72.879 110.928-73.467.015.001.022-.007.022-.007-25.314 21.779-4 38.557-3.161 39.204-.733-.35-13.081-6.023-22.415 4.459-8.431 9.449-7.727 22.881-7.727 22.881z" fill="#048c6c"/></g></g><g><g><g><path d="m337.518 456.831c31.708-51.51 59.251-78.56 59.251-78.56-17.566-3.936-95.43-12.22-95.43-12.22s2.898 9.682-9.122 23.5c-12.017 13.831-33.577 8.049-33.577 8.049 17.075 25.649-13.768 49.824-14.618 50.475-.009.016-.022.02-.022.02 40.229-12.582 43.977 21.451 44.11 22.781.114-1.019 2.279-18.034 19.738-21.038 15.749-2.726 29.67 6.993 29.67 6.993z" fill="#4ab696"/></g><g><path d="m337.518 456.831c31.708-51.51 59.251-78.56 59.251-78.56-85.707 25.758-151.268 68.832-152.748 69.804-.009.016-.022.02-.022.02 40.229-12.582 43.977 21.451 44.11 22.781.114-1.019 2.279-18.034 19.738-21.038 15.75-2.726 29.671 6.993 29.671 6.993z" fill="#048c6c"/></g></g></g><g><g><circle cx="337.68" cy="366.536" fill="#e94454" r="22.028"/></g><g><path d="m350.382 348.546c.797 2.037 1.305 4.227 1.463 6.525.834 12.137-8.329 22.652-20.466 23.487-5.263.362-10.217-1.161-14.213-3.986 3.414 8.722 12.185 14.617 22.024 13.941 12.137-.834 21.3-11.349 20.466-23.487-.473-6.875-4.054-12.79-9.274-16.48z" fill="#db2c3e"/></g><g><path d="m316.316 369.57c-.834-12.137 8.329-22.652 20.466-23.487 9.502-.653 17.987 4.834 21.634 13.066-3.227-9.072-12.167-15.282-22.246-14.59-12.137.834-21.3 11.349-20.466 23.487.181 2.635.842 5.117 1.853 7.4-.66-1.853-1.1-3.817-1.241-5.876z" fill="#ed6d7d"/></g><g><ellipse cx="326.868" cy="353.957" fill="#ed6d7d" rx="4.801" ry="2.367" transform="matrix(.657 -.754 .754 .657 -154.728 367.856)"/></g><g><path d="m332.051 353.099s2.529-.25 4.505 1.347-1.17.845-1.17.845z" fill="#ed6d7d"/></g><g><path d="m332.499 359.616s.211-2.628 1.682-3.743.419 1.43.419 1.43z" fill="#ed6d7d"/></g><g><path d="m338.061 355.958c.241-.291.475-.59.69-.909.477-.736.912-1.516 1.163-2.49-.985.202-1.786.598-2.544 1.039-.451.273-.869.581-1.272.904-.443-.266-.9-.513-1.384-.722-.812-.332-1.659-.615-2.662-.681.382.93.919 1.644 1.493 2.307.257.286.529.551.808.806-.242.292-.476.592-.692.911-.478.735-.912 1.516-1.161 2.492.987-.2 1.789-.595 2.546-1.036.45-.273.868-.58 1.27-.904.443.266.898.513 1.382.722.811.334 1.659.615 2.664.678-.38-.933-.917-1.647-1.491-2.31-.258-.286-.531-.551-.81-.807z" fill="#7d232d"/></g></g><g><g><circle cx="379.296" cy="355.823" fill="#e94454" r="24.984"/></g><g><path d="m393.703 335.418c.904 2.31 1.48 4.794 1.659 7.401.946 13.766-9.446 25.692-23.212 26.638-5.969.41-11.588-1.317-16.12-4.521 3.872 9.892 13.82 16.579 24.979 15.812 13.766-.946 24.158-12.873 23.212-26.639-.535-7.796-4.598-14.505-10.518-18.691z" fill="#db2c3e"/></g><g><path d="m355.065 359.264c-.946-13.766 9.446-25.692 23.212-26.638 10.777-.741 20.401 5.483 24.537 14.82-3.661-10.29-13.8-17.333-25.231-16.548-13.766.946-24.158 12.872-23.212 26.638.205 2.989.955 5.804 2.102 8.393-.749-2.102-1.248-4.329-1.408-6.665z" fill="#ed6d7d"/></g><g><ellipse cx="367.033" cy="341.555" fill="#ed6d7d" rx="5.445" ry="2.685" transform="matrix(.657 -.754 .754 .657 -131.6 393.883)"/></g><g><path d="m372.912 340.583s2.869-.283 5.109 1.528-1.327.959-1.327.959z" fill="#ed6d7d"/></g><g><path d="m373.42 347.974s.239-2.98 1.908-4.245.475 1.622.475 1.622z" fill="#ed6d7d"/></g><g><path d="m379.728 343.825c.273-.331.538-.67.782-1.031.541-.834 1.035-1.719 1.319-2.824-1.117.23-2.025.679-2.885 1.178-.512.31-.986.659-1.443 1.026-.503-.301-1.021-.582-1.57-.819-.92-.377-1.882-.698-3.02-.772.433 1.055 1.043 1.864 1.693 2.617.291.325.6.624.916.914-.274.331-.54.671-.785 1.033-.542.833-1.034 1.72-1.317 2.827 1.12-.227 2.029-.675 2.888-1.175.511-.309.985-.658 1.44-1.025.502.301 1.019.582 1.567.818.919.378 1.882.697 3.022.769-.431-1.058-1.04-1.869-1.691-2.62-.289-.325-.599-.626-.916-.916z" fill="#7d232d"/></g></g><g><g><circle cx="373.345" cy="392.074" fill="#e94454" r="30.973"/></g><g><path d="m391.206 366.778c1.121 2.864 1.835 5.944 2.057 9.175 1.173 17.066-11.711 31.851-28.777 33.024-7.4.509-14.366-1.633-19.985-5.605 4.8 12.264 17.132 20.553 30.967 19.602 17.066-1.173 29.95-15.958 28.777-33.024-.664-9.666-5.7-17.983-13.039-23.172z" fill="#db2c3e"/></g><g><path d="m343.305 396.34c-1.173-17.066 11.711-31.851 28.777-33.024 13.361-.918 25.291 6.797 30.419 18.372-4.538-12.757-17.108-21.488-31.279-20.514-17.066 1.173-29.95 15.958-28.777 33.024.255 3.705 1.184 7.195 2.606 10.405-.928-2.606-1.547-5.368-1.746-8.263z" fill="#ed6d7d"/></g><g><ellipse cx="358.143" cy="374.386" fill="#ed6d7d" rx="6.75" ry="3.328" transform="matrix(.657 -.754 .754 .657 -159.402 398.443)"/></g><g><path d="m365.431 373.181s3.556-.351 6.334 1.894-1.644 1.189-1.644 1.189z" fill="#ed6d7d"/></g><g><path d="m366.061 382.344s.296-3.695 2.365-5.263.589 2.011.589 2.011z" fill="#ed6d7d"/></g><g><path d="m373.881 377.2c.339-.41.667-.83.97-1.278.671-1.034 1.283-2.131 1.636-3.501-1.385.285-2.511.841-3.577 1.461-.634.384-1.222.816-1.789 1.272-.623-.373-1.265-.721-1.946-1.015-1.141-.468-2.333-.865-3.743-.958.537 1.308 1.293 2.311 2.099 3.244.361.402.744.774 1.136 1.134-.34.41-.67.832-.973 1.281-.673 1.033-1.282 2.132-1.632 3.504 1.388-.282 2.515-.836 3.58-1.457.633-.384 1.221-.816 1.786-1.271.622.374 1.263.721 1.943 1.015 1.14.469 2.333.865 3.746.954-.534-1.311-1.289-2.317-2.096-3.248-.363-.404-.747-.777-1.14-1.137z" fill="#7d232d"/></g></g></g></g></svg>