<svg id="svg8" height="512" viewBox="0 0 135.46666 135.46666" width="512" xmlns="http://www.w3.org/2000/svg" xmlns:svg="http://www.w3.org/2000/svg"><clipPath id="clipPath5136"><rect id="rect5138" height="89.013" rx="7.858" width="87.501" x="-68.036" y="22.301"/></clipPath><clipPath id="clipPath3786"><path id="rect3788" d="m84.667 15.119h79.375v72.571h-79.375z" paint-order="fill markers stroke"/></clipPath><g id="layer1"><g id="g4582" transform="matrix(1.02 0 0 1.02 -11.216 .017)"><g id="g3546" transform="translate(-1.455)"><path id="path3424" d="m108.68567 25.217255c-.3078-2.204692-.693-8.850579-6.10646-11.788885-5.413459-2.938299-31.477511 1.375738-43.519802 8.479858-12.042285 7.104116-13.156315 12.461795-11.666002 17.801703 1.490308 5.339911-.923587 6.721762-2.772173 6.817966-1.848582.0962-8.020061-4.097176-13.628521-5.59149-5.608462-1.494318-12.885666 1.063173-9.710007 5.137661 3.175659 4.074493 3.094041 3.489884 1.262062 6.372474-1.831978 2.882587-3.117542 5.677854.432994 7.102617 3.550534 1.424757 4.607853-.33795 3.504424 2.42821-1.103425 2.766159-.722545 5.494331 1.599135 6.119387 2.321681.625057 4.289684-1.283187 4.643358 1.250114.353675 2.5333 4.360705 1.892935 6.866823-1.49582 2.506116-3.388756 9.107779-18.787395 11.437762-16.769143 2.329983 2.018251.868283 10.220525 15.776365 7.638846 14.908087-2.581678 36.448742-11.004512 41.276532-13.768215 4.82781-2.7637-.0569-11.744695 3.0938-11.849784 3.15074-.105094 11.9005 1.883303 16.89755 5.666717 4.99702 3.783414 10.01757-1.600907 8.20679-3.901349-1.81078-2.300439-.66354-2.085348.64923-4.685748 1.31278-2.600398-1.79187-3.498765-2.56423-6.363584-.77238-2.864823.81246-3.516531.5593-6.663547-.25313-3.147018-1.62863-2.329548-4.64106-5.23482-3.01242-2.9052743-3.8558-8.9462245-8.58537-2.8115315-4.72958 6.1346925-4.09554 12.0098765-6.94704 14.2585305-2.85148 2.248645-6.06546 1.849833-6.06546 1.849833z" fill="#ffc517" stroke-linecap="round" stroke-linejoin="round" stroke-width="2.851" paint-order="stroke fill markers"/><path id="path3426" d="m46.917946 90.250347c-2.843332-.315255-7.600119.313089-10.264355-3.112843-2.664235-3.425934-6.688205-5.701269-10.623612-3.807904s2.217486 5.478595-.771161 8.987597c-2.988643 3.509007-6.425107 2.154245-3.012683 5.299122 3.412422 3.144871 5.851453 1.813622 2.49792 4.508631-3.353533 2.69502-2.318208 8.47935 1.890485 7.76294 4.208694-.71641 2.151445 1.78561 3.229218 3.87079 1.077778 2.08519 5.634471 1.82598 9.179878-6.00769 3.545411-7.833669 5.323744-11.631567 8.223378-10.127024 2.899629 1.504554-1.131939 10.558374 11.486541 19.738284 12.618479 9.17991 33.170863 13.18273 42.044515 2.39062 8.87365-10.79211 6.05033-15.1849 13.02642-14.06395 6.97608 1.12097 8.18332 7.12349 15.2231 9.58999 7.0398 2.46649.54423-4.75301 1.35334-7.16006.80912-2.40706 6.76693-.0477 6.09962-4.39446-.66732-4.346798-5.45557-4.748988-3.29739-7.907355 2.15816-3.158374 4.8982-7.024426 1.43512-8.682513-3.4631-1.658091-7.22141 3.4464-10.28424 6.993522-3.06283 3.547126-8.97501 5.401249-11.97781 3.716978-3.00278-1.684272-.8939-15.633098-12.566348-21.714881-11.672443-6.081781-19.883952-7.301106-31.602655-4.610739-11.718706 2.690367-19.126104 9.650573-21.289281 18.730945z" fill="#ff4b3d" stroke-linecap="round" stroke-linejoin="round" stroke-width="2.407" paint-order="stroke fill markers"/><path id="path3428" d="m46.917946 90.250347s1.426727-3.899995-1.631333-4.178001c-3.058063-.278003-3.058063 10.564213-.64868 14.734294 2.409381 4.17009 4.262752 2.50205 3.892078-1.853368-.370673-4.35542-2.112106-5.173604-1.612065-8.702925z" fill="#ffc517" stroke-linecap="round" stroke-linejoin="round" stroke-width="1.961" paint-order="stroke fill markers"/><path id="path3487" d="m155.52344 354.17578c-9.07467-.2681-10.56641 30.69141-10.56641 30.69141s-.30589 1.12356-.32226 1.18359c2.56556 14.00913 3.25337 40.02221 39.41015 66.32617 48.6314 35.37921 127.84017 50.8055 162.03906 9.21289 13.51996-16.44293 19.96394-28.97124 24.51172-37.91601-10.41768-17.74335-31.36511-18.40714-41.0332.58984-14.39444 28.28388-53.7908 35.8609-100.25781 21.71875-46.46702-14.14215-55.05435-74.75043-68.69141-88.89258-1.91771-1.98873-3.6049-2.87019-5.08984-2.91406z" fill="#cf1531" transform="matrix(.259 0 0 .259 10.999 -.017)" paint-order="stroke fill markers"/><path id="path3430" d="m263.35352 270.49609c-7.82255-.085-15.8245.49694-24.20704 1.69336a30.052038 30.052038 0 0 0 -.24609 3.83399 30.052038 30.052038 0 0 0 30.05273 30.05273 30.052038 30.052038 0 0 0 30.05274-30.05273 30.052038 30.052038 0 0 0 -.004-.3711c-11.9992-3.3373-23.62096-5.0255-35.64843-5.15625zm-68.83204 33.56055a30.052038 30.052038 0 0 0 -29.86718 30.05078 30.052038 30.052038 0 0 0 30.05273 30.05274 30.052038 30.052038 0 0 0 30.05274-30.05274 30.052038 30.052038 0 0 0 -30.05274-30.05078 30.052038 30.052038 0 0 0 -.18555 0zm132.83399 2.52539a30.052038 30.052038 0 0 0 -29.86524 30.05078 30.052038 30.052038 0 0 0 30.05079 30.05274 30.052038 30.052038 0 0 0 30.05273-30.05274 30.052038 30.052038 0 0 0 -30.05273-30.05078 30.052038 30.052038 0 0 0 -.18555 0zm-61.61914 65.1543a30.052038 30.052038 0 0 0 -29.86524 30.05273 30.052038 30.052038 0 0 0 30.05079 30.05078 30.052038 30.052038 0 0 0 30.05273-30.05078 30.052038 30.052038 0 0 0 -30.05273-30.05273 30.052038 30.052038 0 0 0 -.18555 0zm-82.83203 36.87109a30.052038 30.052038 0 0 0 -26.13282 15.54688c5.56122 8.98755 14.02517 18.58457 27.27344 28.22265 5.22142 3.79857 10.80975 7.3499 16.64258 10.64258a30.052038 30.052038 0 0 0 12.45508-24.36133 30.052038 30.052038 0 0 0 -30.05274-30.05078 30.052038 30.052038 0 0 0 -.18554 0zm146.6582 15.65625a30.052038 30.052038 0 0 0 -30.05273 30.05274 30.052038 30.052038 0 0 0 17.25585 27.1914c11.49645-4.00027 21.56664-10.49034 29.31836-19.91797 4.89479-5.95303 8.84208-11.38335 12.13282-16.33593a30.052038 30.052038 0 0 0 -28.6543-20.99024z" fill="#ffc517" stroke-linecap="round" stroke-linejoin="round" stroke-width="7.559" transform="matrix(.259 0 0 .259 10.999 -.017)" paint-order="stroke fill markers"/><path id="path3449" d="m43.479577 89.269411c.32434 2.594718 1.6217 8.942514 1.714367 11.722569.09267 2.78006-2.780056 4.03108-4.44809-2.455716-1.668033-6.486796-1.621699-10.378874-.04633-10.98122 1.575365-.602346 2.270378-.32434 2.780056 1.714367z" fill="#ffac17" stroke-linecap="round" stroke-linejoin="round" stroke-width="1.961" paint-order="stroke fill markers"/><path id="path3451" d="m114.53301 96.589566c-.66152 2.529853-1.81197 8.905914-2.7574 11.521914-.94539 2.61602-4.07726 2.71187-3.21945-3.9308.85781-6.642664 2.3449-10.239742 4.03134-10.214577 1.6864.02515 2.22867.541185 1.94555 2.623478z" fill="#ffc517" stroke-linecap="round" stroke-linejoin="round" stroke-width="1.961" paint-order="stroke fill markers"/><path id="path3453" d="m118.5862 98.230615c-.91217 2.450655-2.69696 8.678995-3.90026 11.186855-1.20326 2.50788-4.32893 2.28881-2.80853-4.23417 1.52039-6.522976 3.36112-9.952576 5.03651-9.75822 1.67535.194337 2.16307.762208 1.67232 2.805554z" fill="#ffac17" stroke-linecap="round" stroke-linejoin="round" stroke-width="1.961" paint-order="stroke fill markers"/><path id="path3477" d="m381.98633 140.63281s-33.41434 26.51088-111.27149 50.43946c-56.58541 17.39092-94.00832 18.17126-110.29296 17.30468 5.02001 11.38411 14.15329 25.00978 54.65429 17.9961 57.45551-9.94974 140.47386-42.41124 159.08008-53.0625 11.24898-6.43953 8.82969-21.57607 7.83008-32.67774z" fill="#ffac17" transform="matrix(.259 0 0 .259 10.999 -.017)" paint-order="stroke fill markers"/><path id="path3455" d="m302.86914 49.972656c-14.26614 1.671228-30.09911 4.500639-45.85742 8.251953 15.46562 9.265775 32.40186 23.435352 50.17383 44.625001 27.1922 32.42148 46.33519 56.33237 59.94726 74.04687 2.80278-1.34557 5.27894-2.58728 7.02344-3.58593 11.24898-6.43953 8.82969-21.57607 7.83008-32.67774-12.62086-15.97204-28.41554-35.40846-48.73438-59.634763-10.13127-12.079589-20.30149-22.337507-30.38281-31.025391zm-85.70508 20.011719c-12.01435 4.357568-22.98927 9.232533-31.9414 14.513672-.64098.37813-1.24415.74942-1.86914 1.125 1.4322 1.234477 2.8556 2.459211 4.35742 3.767578 17.10344 14.900315 38.56064 34.424215 60.16601 54.806645 20.43832 19.28142 40.98983 39.32498 58.19532 56.98437 12.60351-4.40157 24.47319-8.84246 34.76757-12.94922-2.37724-2.49584-4.81863-5.04154-7.36132-7.66992-18.29903-18.91567-40.36545-40.4524-62.25977-61.10742-19.0286-17.95151-37.90139-35.208358-54.05469-49.470705zm-59.79101 34.294925c-11.48263 10.37371-16.82648 19.83661-18.49414 28.90234 17.36086 14.8044 36.67579 33.70491 56.1875 52.98047 12.52843 12.37681 25.13771 24.89325 37.54101 36.67773 12.5092-2.82942 25.70233-6.41006 38.83985-10.36718-16.519-14.90344-34.43892-32.69431-52.47461-50.51172-20.81637-20.56443-41.76539-41.13859-61.59961-57.68164z" fill="#7738c7" transform="matrix(.259 0 0 .259 10.999 -.017)" font-variant-ligatures="normal" font-variant-position="normal" font-variant-caps="normal" font-variant-numeric="normal" font-variant-alternates="normal" font-variant-east-asian="normal" font-feature-settings="normal" font-variation-settings="normal" text-indent="0" text-align="start" text-decoration-line="none" text-decoration-style="solid" text-decoration-color="#000000" text-transform="none" text-orientation="mixed" white-space="normal" shape-padding="0" shape-margin="0" inline-size="0" isolation="auto" mix-blend-mode="normal" solid-color="#000000" solid-opacity="1" vector-effect="none" paint-order="stroke fill markers"/><path id="path3464" d="m47.923465 43.623965c-2.260667-2.162376-4.357516.262106-3.50567 2.719351s3.046983 5.733573 3.898829 8.059765c.851844 2.326193 3.636724-.589738 2.5883-4.029881-1.048425-3.440146-1.245006-4.980018-2.981459-6.749235z" fill="#7738c7" paint-order="stroke fill markers"/><path id="path3466" d="m44.352268 46.179501c-1.31053-1.638165-4.980018-1.310533-3.01422 4.259226 1.965795 5.569755 5.373175 7.338972 6.356075 5.700807.982897-1.638163-.720792-7.338973-3.341855-9.960033z" fill="#171d8f" paint-order="stroke fill markers"/><path id="path3468" d="m108.68567 25.217255c-.51055 1.435335-.50726 8.477675 2.24486 10.377946 2.75211 1.900268 4.18053-8.455983 1.69052-11.601258-2.49001-3.145274-3.93538 1.223312-3.93538 1.223312z" fill="#7738c7" paint-order="stroke fill markers"/><path id="path3470" d="m113.74488 22.458892c-1.63817 2.686588-2.62107 12.253463 1.245 13.039782s1.04842-18.478485-1.245-13.039782z" fill="#171d8f" paint-order="stroke fill markers"/><path id="path3482" d="m381.98633 140.63281s-9.32182 7.34007-29.3418 17.7461c5.39265 6.79422 10.24619 12.99699 14.48828 18.51757 2.80278-1.34557 5.27894-2.58728 7.02344-3.58593 11.24898-6.43953 8.82969-21.57607 7.83008-32.67774zm-57.3418 30.90039c-10.13241 4.31183-21.69759 8.80646-34.76953 13.30078 5.62694 5.59974 11.07261 11.08781 16.19727 16.34766 2.82139-.98533 5.59167-1.97195 8.33007-2.95703.61127-.22019 1.2236-.44021 1.83008-.66016 2.39142-.86589 4.74066-1.72974 7.05078-2.58789 1.21613-.45268 2.40878-.90225 3.59961-1.35156 1.72381-.64912 3.44723-1.29756 5.11328-1.9375 2.34068-.90055 4.60388-1.78615 6.81836-2.66211.64243-.25399 1.33013-.516 1.96094-.76758.0224-.009.042-.0165.0644-.0254-2.37724-2.49584-4.81863-5.04154-7.36132-7.66992-2.84916-2.94516-5.81704-5.97027-8.83399-9.0293zm-70.91797 24.42383c-14.88105 3.99113-28.18755 6.76692-39.92187 8.68555 6.29578 6.17625 12.57451 12.27978 18.80273 18.19726.31909-.0722.64291-.14951.96289-.22265 2.43213-.55599 4.8885-1.14098 7.36524-1.75.45098-.11085.8993-.21953 1.35156-.33203 3.03255-.75468 6.09358-1.54594 9.17187-2.36914.2562-.0685.5131-.13812.76954-.20704 6.3624-1.7107 12.79653-3.5519 19.21875-5.48632-5.75261-5.19-11.68259-10.74612-17.72071-16.51563z" fill="#171d8f" transform="matrix(.259 0 0 .259 10.999 -.017)" paint-order="stroke fill markers"/><path id="path3492" d="m182.9043 408.60742a30.052038 30.052038 0 0 0 -26.13282 15.54688c2.07974 3.36108 4.56658 6.80676 7.55664 10.30859.0115.0134.0217.0276.0332.041.45538.5327.92521 1.0664 1.40429 1.60156.12538.13986.25384.27989.38086.41992.75587.8343 1.54736 1.67224 2.36329 2.51172.25718.26461.50621.52985.76953.79492.33025.33245.67752.66492 1.01758.99805.41147.40267.82591.80539 1.25195 1.20898.32303.30632.6489.61312.98047.91992.51759.47849 1.04917.95795 1.58789 1.4375.28331.25241.55837.5032.84765.75586.004.004.008.008.0117.0117.77072.67251 1.56713 1.34542 2.38086 2.01953.29569.24508.60084.49108.90235.73633.64719.52622 1.30612 1.05319 1.98046 1.58008.29265.22872.58495.45672.88282.68555.95048.73001 1.91745 1.46069 2.92187 2.1914 1.3845 1.00722 2.80011 1.99473 4.23242 2.96875.8268.56063 1.67168 1.10737 2.51368 1.65625.56146.36734 1.11959.73751 1.6875 1.09961 1.15944.73651 2.33296 1.46132 3.51757 2.17578.19071.11537.38093.23094.57227.34571 1.35325.80945 2.7192 1.60617 4.10156 2.38672.006.003.0117.006.0176.01a30.052038 30.052038 0 0 0 12.45508-24.36133 30.052038 30.052038 0 0 0 -.002-.26562c-11.44646-7.51804-19.86728-18.25934-26.48828-29.57227a30.052038 30.052038 0 0 0 -3.5625-.21289 30.052038 30.052038 0 0 0 -.18554 0zm146.6582 15.65625c-5.96619 11.72307-16.23788 19.87765-29.51758 24.41406a30.052038 30.052038 0 0 0 -.53515 5.63868 30.052038 30.052038 0 0 0 17.25585 27.1914c.001-.00047.003-.001.004-.002.70934-.24686 1.41306-.5036 2.11133-.76953.008-.003.0158-.005.0234-.008.0126-.005.0245-.0108.0371-.0156.69167-.26409 1.37821-.53533 2.05859-.81836.003-.001.005-.003.008-.004.006-.003.0131-.005.0195-.008 3.37241-1.40444 6.60123-3.04672 9.66602-4.93164.10365-.0638.20923-.12508.3125-.18945.49116-.30588.97462-.6227 1.45703-.94141.15413-.10191.30967-.20145.46289-.30469.44354-.29857.88058-.60635 1.31641-.91601.20791-.14785.41692-.29493.62304-.44531.39033-.28454.77632-.57547 1.16016-.86914.23804-.18227.47543-.36498.71094-.55078.3551-.27995.70737-.56355 1.05664-.85157.28703-.23687.57048-.47835.85351-.7207.2834-.2425.56638-.48635.84571-.73438.31891-.28335.63373-.57269.94726-.86328.27089-.25091.54179-.50146.8086-.75781.32467-.3121.64432-.63099.96289-.95117.22658-.22764.45428-.45379.67773-.68555.37224-.38621.73619-.78201 1.09961-1.17969.17758-.19425.35972-.38306.53516-.58007.52938-.59462 1.05091-1.2005 1.56054-1.82032 1.1137-1.35447 2.16458-2.67372 3.1836-3.97461.21527-.27454.42738-.54615.63867-.81835 3.18392-4.10665 5.92647-7.95493 8.31055-11.54297a30.052038 30.052038 0 0 0 -28.6543-20.99024z" fill="#ffac17" transform="matrix(.259 0 0 .259 10.999 -.017)" paint-order="stroke fill markers"/><path id="path3497" d="m27.479183 89.754652c2.490009 1.212239 6.454365 1.31053 6.093969 2.62106-.360396 1.310533-3.178038 2.457245-5.569756 2.064086-2.391719-.393157.229343-3.538434-.524213-4.685146z" fill="#cf1531" paint-order="stroke fill markers"/><path id="path3499" d="m26.594575 98.862841c.688029 1.310529.655266 3.079749.03276 3.964359-.622503.8846 3.702249-.49145 7.273446-3.112516 3.571197-2.62106-2.915931-1.277766-4.324752-1.179476s-3.243564-.917373-2.981458.327633z" fill="#cf1531" paint-order="stroke fill markers"/><path id="path3501" d="m29.412216 107.9055c1.834744 1.80198.360396 3.24357 2.227903 2.32619 1.867506-.91737 4.554095-5.53699 5.602518-7.07686 1.048425-1.53987-4.652383 3.44014-6.12673 3.80054-1.474348.36039-1.769217.36039-1.703691.95013z" fill="#cf1531" paint-order="stroke fill markers"/><path id="path3503" d="m132.02678 94.898484c-.6225 1.212242.0655 4.39028.78632 5.045545.72079.655261-4.06265-.163818-7.96147-.458687-3.89883-.294869 1.53987-1.638162 3.50567-2.784877 1.96579-1.146716 4.12817-3.603961 3.66948-1.801981z" fill="#cf1531" paint-order="stroke fill markers"/><path id="path3505" d="m130.42138 106.13629c-1.80198 2.29343.6225 4.12817-1.245 3.66948-1.86751-.45868-4.94726-3.30909-6.84753-4.65238-1.90027-1.3433 3.80054.13105 5.37318.16381 1.57264.0328 3.60396.0983 2.71935.81909z" fill="#cf1531" paint-order="stroke fill markers"/><g fill="#ffac17"><path id="path3507" d="m24.06552 47.661244c1.621699 2.594718.231671 3.567738 2.548385 3.428736 2.316713-.139004 7.784156-1.899705 9.68386-2.502051 1.899705-.602345-2.641053-.695013-4.911431-1.158357-2.270379-.463342-8.525505-1.019354-7.320814.231672z" paint-order="stroke fill markers"/><path id="path3509" d="m26.56757 57.206101c1.853371 2.872724.509677 4.726096 2.50205 3.984748 1.992374-.74135 9.081517-6.533131 6.579466-6.394129-2.50205.139002-8.896179 1.204692-9.081516 2.409381z" paint-order="stroke fill markers"/><path id="path3511" d="m31.293665 65.175595c2.733721 1.575365 2.548384 3.3824 3.892078 1.436361s4.679761-6.486797 1.575365-5.004099c-3.104396 1.482697-5.374774 2.502051-5.467443 3.567738z" paint-order="stroke fill markers"/><path id="path3513" d="m127.94694 11.937527c2.50205 3.104396 4.8651 3.011728 1.11202 4.587092-3.75308 1.575365-10.79588 3.753076-8.84984 2.316714 1.94603-1.436363 6.06978-9.6838614 7.73782-6.903806z" paint-order="stroke fill markers"/><path id="path3515" d="m132.7657 21.343383c-.60234 3.845743 2.40938 3.614072-.18534 4.911431-2.59472 1.29736-8.6645.787682-10.05453-.139001-1.39003-.926687 5.83812-2.27038 7.41348-3.289734 1.57537-1.019354 2.82639-1.482696 2.82639-1.482696z" paint-order="stroke fill markers"/><path id="path3517" d="m134.15573 32.046598c-1.06569 2.177711.92668 2.363046-1.34369 2.40938-2.27038.04633-5.09677-1.992373-7.18182-2.965392-2.08504-.97302 3.28974-.926686 4.91144-.64868s4.21641-.509675 3.61407 1.204692z" paint-order="stroke fill markers"/></g></g></g></g></svg>