<svg height="512" viewBox="0 0 512 512" width="512" xmlns="http://www.w3.org/2000/svg"><g id="Christmas_Tree" data-name="Christmas Tree"><path d="m105.92 252.48a41.47 41.47 0 0 1 10.46 7 43.59 43.59 0 0 1 12.69 21.89 32.19 32.19 0 0 1 7.93-20.37 31.77 31.77 0 0 1 15.54-9.51 30.07 30.07 0 0 1 -14.27-6 31 31 0 0 1 -11.1-19 27.51 27.51 0 0 1 -4.76 14.91 28 28 0 0 1 -16.49 11.08z" fill="#ffb833"/><path d="m359.46 214.32a41.85 41.85 0 0 1 10.47 7 43.55 43.55 0 0 1 12.68 21.89 32.18 32.18 0 0 1 7.93-20.3 31.85 31.85 0 0 1 15.54-9.52 30 30 0 0 1 -14.27-6 31 31 0 0 1 -11.1-19 27.37 27.37 0 0 1 -4.76 14.9 28 28 0 0 1 -16.49 11.03z" fill="#ffb833"/><path d="m166 102.42a34.16 34.16 0 0 1 8.54 5.69 35.52 35.52 0 0 1 10.39 17.89 25.63 25.63 0 0 1 19.15-24.33 24.44 24.44 0 0 1 -11.64-4.91 25.28 25.28 0 0 1 -9.06-15.53 22.35 22.35 0 0 1 -3.88 12.16 22.85 22.85 0 0 1 -13.5 9.03z" fill="#ffb833"/><path d="m298.67 481h-50.94l7.51-75.76h35.92z" fill="#e36929"/><path d="m159.23 361.16s-5.88 23-21.55 43.11 4.74 41.14 40.57 17.63c0 0 6 30.37 34.37 3.92 0 0 17.81 27.92 45.4-4.41 0 0 23.59 38 50.6-1.47 0 0 18.57 27.37 43.6 1 0 0 25.47 21.55 41.14 2.94s-14.86-43.54-26-81.31z" fill="#257c23"/><path d="m172.42 309.73s-6.37 14.7-23.51 44.58 6.86 33.3 29.39 15.67c0 0 7.34 32.33 35.26 5.88 0 0 22.23 30.37 41.48-8.33 0 0 26.12 36.74 45.22-5.39 0 0 9.79 20.09 29.88 18.62s10.78-26 10.78-26 21.95 34.28 42.32 15.18-48.69-84.74-48.69-84.74z" fill="#37ad36"/><path d="m190.75 262.06s-11.27 25.63-25 45.22 8.82 28.9 35.27 10.29c0 0 10.29 34.29 41.64-2.45 0 0 21.55 33.31 50-3.92 0 0 28.41 28.41 42.12-8.33 0 0 18.13 22.54 30.86 6.86s-20.64-36.24-32.36-59.73z" fill="#257c23"/><path d="m204.81 226.14a418.72 418.72 0 0 1 -27.11 35.92c-15 17.63 7.84 24.16 21.88 12.08 0 0-.32 24.42 27.11 6.17 0 0 15.67 25.5 34.94-1.6 0 0 7.83 11.56 24.49 12.47s8.49-19.65 8.49-19.65 8.45 17 24.8 13.71 4.91-23.18 4.91-23.18 14 19.92 29.07 11.1-17.31-33.64-27.11-52.9z" fill="#37ad36"/><path d="m234.23 174.05a227.19 227.19 0 0 1 -31.84 38.7c-20.09 19.59-17.64 29.88-4.9 32.82s23.66-11.27 23.66-11.27-7.5 19.59 4.75 23.51 26-21.55 26-21.55 6.85 23.84 22.77 22 6.13-24.41 6.13-24.41 13.07 24.39 29.88 21.06 0-31.84 0-31.84 16.65 29.39 29.39 20.58-28-49.4-36.74-78.38z" fill="#257c23"/><path d="m222.58 172.58s16.66-9.79 27.43-40.65 13.71-39.19 22.78-30.86 25.21 52.93 39.92 65.63-9.15 12.88-14.69 8.82c0 0 13.71 23.51 1 29.88s-26.21-26-26.21-26-.74 25-14.94 29.39-11.27-29.39-11.27-29.39-11.26 12.73-24 12.25-13.73-11.72-.02-19.07z" fill="#37ad36"/><path d="m216.06 210.79s-.17 1.61-6-1.56-19.6 11.52-23.84 20.5 4.24 16.14 14.94 16.23 18.53-19.17 24.24-20.64 2.45 8 11.6 6.53 11.75-9.31 16.32-8.16 5.72 6.07 13.56 3.68 6.69-18.24 6-18.14-2.12 10.21-7.84 8.42-13.55-5.39-18.94-1.64-12.41 6.86-15 1.31-9.33-9.47-15.04-6.53z" fill="#aaeeea"/><path d="m298.18 265.32s3.22 15.15 15.35 16 8.35-14.86 13.48-16 7.09 9 20.65 5.72 7.62-19.92 0-23.68-1.8 10.38-11.6 8.38-17.47-4-19.75 3.54-4.25 13.39-8.66 9.47-11.3-8.66-9.47-3.43z" fill="#aaeeea"/><path d="m177.11 289.06s-3.83-2-10.52 8.26-13 24.37 2.12 26.62 18.28-10.78 26.61-14.7 4.57 8.82 16 10.94 12.9-1.47 18.78-9.79 11.26-.34 15.51-3.84-6.69-8.41-15.18-6.29-15 7.51-20.58 2-10.77-8-19.26-3.92-6.59-9.88-13.48-9.28z" fill="#aaeeea"/><path d="m276.47 346s3.92 10 12.49 9.55 13-11.76 18.12-7.59 7.63 23.76 21.55 23.51 12.25-11.51 12.25-23 10.78 14 29.88 14 18.37-9.31 14.45-19.84-12.5-18.34-15.8-18.35 9.5 10.51-.94 14.43-25.14-7.35-33.22-4.65-4.17 16.9-10 15.43-8.09-12.43-16.9-13.19-12.04 8.7-19.35 7.7-14.25-13.45-12.53 2z" fill="#aaeeea"/><path d="m154.34 386.31s-4.41-3.27-10 2.45-15.18 19.92-8.49 26.77 15.18 3.27 24.82-2.94 12.9-6 15.83.66 14.37 12.08 21.72 3.1 14.86-7.35 22.53-1.47 19.27-9.8 20.41-16.82-5.88 7-18.61 3.27-18.62-8-29.72-1.8-8.32-2-13.22-6-15.68 4.74-21.88 5.06 2.65-9.51-3.39-12.28z" fill="#aaeeea"/><path d="m249 127.68s3.59-9.3 7.51-22 12.77-12.48 17.84-7.68 20.24 39.94 25.47 47 10.45 14.86 5.22 17.63-14.53-10.61-19.1-8-5.23 9.31-10.94 7.19-6.7-19.6-11.59-18.78-2.94 18-9.31 22.2-6.2-8.81-10.12-9.3-7 2.09-7-2.3 10.92-18.28 12.02-25.96z" fill="#aaeeea"/><path d="m252.06 59 13.44-27.59a.73.73 0 0 1 1.32 0l13.69 27.41a.75.75 0 0 0 .55.41l30.35 4.26a.74.74 0 0 1 .41 1.26l-21.82 21.49a.76.76 0 0 0 -.21.66l5.32 30.17a.74.74 0 0 1 -1.07.79l-27.19-14.14a.76.76 0 0 0 -.69 0l-27 14.39a.75.75 0 0 1 -1.08-.78l5-30.22a.74.74 0 0 0 -.21-.65l-22-21.29a.74.74 0 0 1 .4-1.26l30.31-4.55a.73.73 0 0 0 .48-.36z" fill="#ffb833"/><path d="m300.38 202.87c-12.81 0-26.31-5.14-39.89-15.34a137.41 137.41 0 0 1 -26.28-26.53 1 1 0 0 1 .24-1.4 1 1 0 0 1 1.39.24c.41.57 41.15 56.85 83.86 36.62a1 1 0 1 1 .85 1.81 46.76 46.76 0 0 1 -20.17 4.6z" fill="#383333"/><path d="m224 272.28a118.24 118.24 0 0 1 -46.72-9.3 1 1 0 0 1 -.53-1.31 1 1 0 0 1 1.32-.53c40.38 17.21 81.75 6.93 109.34-4.73a226.88 226.88 0 0 0 50.84-29.81 1 1 0 0 1 1.28 1.54 228.64 228.64 0 0 1 -51.29 30.09c-17.24 7.3-39.8 14.05-64.24 14.05z" fill="#383333"/><path d="m317.49 354.69h-2.19c-20.3-.3-43.3-4.58-68.41-12.69a425.12 425.12 0 0 1 -77.52-34.58 1 1 0 1 1 1-1.71 422.85 422.85 0 0 0 77.14 34.39c39.08 12.66 93.28 22.13 129.56-4.67a1 1 0 0 1 1.19 1.61c-15.85 11.71-36.26 17.65-60.77 17.65z" fill="#383333"/><path d="m224.31 410.2c-6.58 0-12.82-.26-18.6-.67-36.2-2.61-62.69-11.82-63-11.91a1 1 0 0 1 -.61-1.27 1 1 0 0 1 1.28-.62c.26.1 26.54 9.23 62.49 11.81 33.13 2.38 81.47-.49 123.69-27.62a1 1 0 0 1 1.38.29 1 1 0 0 1 -.3 1.39c-35.28 22.7-74.8 28.6-106.33 28.6z" fill="#383333"/><circle cx="252.99" cy="183.26" fill="#ff1a26" r="10.45"/><circle cx="321.38" cy="193.7" fill="#ffb833" r="10.45"/><circle cx="297.88" cy="258.33" fill="#ff1a26" r="10.45"/><circle cx="224.58" cy="274.79" fill="#ffb833" r="10.45"/><circle cx="169.88" cy="306.55" fill="#ff1a26" r="10.45"/><circle cx="254.59" cy="343.24" fill="#ffb833" r="10.45"/><circle cx="380.64" cy="332.11" fill="#ff1a26" r="10.45"/><circle cx="331.83" cy="381.9" fill="#ffb833" r="10.45"/><circle cx="244.14" cy="413.68" fill="#ff1a26" r="10.45"/><circle cx="139.68" cy="394.99" fill="#ffb833" r="10.45"/><g fill="#fff"><path d="m246.29 66.4a2.5 2.5 0 0 1 -.37-5l8.08-1.2 2.48-8.13a2.5 2.5 0 0 1 4.78 1.46l-2.94 9.63a2.48 2.48 0 0 1 -2 1.74l-9.64 1.47a2.34 2.34 0 0 1 -.39.03z"/><path d="m287.44 96a2.52 2.52 0 0 1 -2.46-2l-1.63-8.82a2.48 2.48 0 0 1 .92-2.42l6-4.73a2.5 2.5 0 1 1 3.08 3.93l-4.85 3.8 1.4 7.24a2.54 2.54 0 0 1 -2.46 3z"/><path d="m252.58 108a2.5 2.5 0 0 1 -1.11-4.74l11.59-5.76a2.5 2.5 0 0 1 2.23 4.48l-11.6 5.76a2.55 2.55 0 0 1 -1.11.26z"/><path d="m246.29 145.51a2.51 2.51 0 0 1 -2-4c3.79-5 6.23-15.59 6.25-15.7a2.5 2.5 0 0 1 4.88 1.11c-.11.47-2.7 11.73-7.14 17.61a2.49 2.49 0 0 1 -1.99.98z"/><path d="m224.76 188.89a8.61 8.61 0 0 1 -5.63-1.78 7.54 7.54 0 0 1 -2.59-6.11 2.5 2.5 0 0 1 5 .33 2.55 2.55 0 0 0 .8 1.94c1 .81 3.29.82 6.21 0a2.5 2.5 0 0 1 1.32 4.83 19.69 19.69 0 0 1 -5.11.79z"/><path d="m200.07 240.63a10.48 10.48 0 0 1 -7.47-2.58c-3.58-3.36-2.85-8.57-2.82-8.79a2.5 2.5 0 0 1 4.95.72c0 .09-.35 2.91 1.31 4.44 1.39 1.29 4.08 1.55 7.77.76a2.5 2.5 0 1 1 1.05 4.89 23.07 23.07 0 0 1 -4.79.56z"/><path d="m187.4 274.33a11.55 11.55 0 0 1 -5.72-1.33 7.65 7.65 0 0 1 -3.78-4.59l4.87-1.16v-.08a2.88 2.88 0 0 0 1.49 1.53c2 1 5.42.79 9.67-.63a2.5 2.5 0 0 1 1.58 4.75 26 26 0 0 1 -8.11 1.51z"/><path d="m157.89 371.51a10.74 10.74 0 0 1 -3.16-.47c-6.41-2-8.12-9.45-8.19-9.77a2.5 2.5 0 0 1 4.89-1.08c0 .08 1.18 5 4.81 6.08s8.73-1.47 15-7.36a2.5 2.5 0 0 1 3.41 3.65c-6.32 5.95-11.96 8.95-16.76 8.95z"/><path d="m148.93 428a20.62 20.62 0 0 1 -10.62-2.77 2.5 2.5 0 0 1 2.69-4.23c.42.26 9.6 5.85 21.47-3.15a2.5 2.5 0 0 1 3 4c-6.21 4.73-11.95 6.15-16.54 6.15z"/><path d="m329.73 224.78a2.49 2.49 0 0 1 -2.16-1.24l-7.67-13a2.5 2.5 0 1 1 4.31-2.53l7.67 13a2.5 2.5 0 0 1 -.88 3.42 2.46 2.46 0 0 1 -1.27.35z"/><path d="m348.67 261.84a2 2 0 0 1 -.49 0 2.5 2.5 0 0 1 -2-2.94c1.2-6-6-9.87-6.06-9.91a2.5 2.5 0 0 1 2.32-4.43c.43.22 10.58 5.63 8.64 15.32a2.5 2.5 0 0 1 -2.41 1.96z"/><path d="m357.3 311.78a2.5 2.5 0 0 1 -.9-4.84c2.3-.89 2.82-2.06 3-2.86.89-3.72-3.45-10.26-6.39-13.51a2.5 2.5 0 0 1 3.7-3.36c1 1.06 9.33 10.54 7.56 18-.48 2-1.92 4.78-6.07 6.39a2.66 2.66 0 0 1 -.9.18z"/><path d="m373.56 370.6a24.75 24.75 0 0 1 -7-1.06 32.4 32.4 0 0 1 -8.89-4.16 2.5 2.5 0 0 1 2.89-4.07c.12.08 12.23 8.46 21.55 1.5a2.5 2.5 0 0 1 3 4 18.92 18.92 0 0 1 -11.55 3.79z"/><path d="m383.61 416.18a2.47 2.47 0 0 1 -1.46-.47 2.5 2.5 0 0 1 -.57-3.49c3.21-4.47 4.38-8.69 3.47-12.55-1.53-6.51-8.45-10.23-8.52-10.27a2.5 2.5 0 0 1 2.32-4.43c.36.19 9 4.77 11 13.51 1.28 5.35-.16 10.95-4.26 16.66a2.5 2.5 0 0 1 -1.98 1.04z"/><path d="m255.93 461.85h-.32a2.5 2.5 0 0 1 -2.16-2.8l2.12-16.23a2.5 2.5 0 1 1 5 .64l-2.12 16.24a2.51 2.51 0 0 1 -2.52 2.15z"/><path d="m290.54 468.38a2.49 2.49 0 0 1 -2.48-2.25l-1.64-16.49a2.5 2.5 0 1 1 5-.49l1.58 16.49a2.5 2.5 0 0 1 -2.24 2.73z"/><path d="m291.53 471.47c-4.38 0-3.73 6.79.64 6.79s3.73-6.79-.64-6.79z"/><path d="m258.06 429.83c-4.38 0-3.73 6.79.63 6.79s3.74-6.79-.63-6.79z"/><path d="m173.32 408.44c-4.38 0-3.73 6.79.63 6.79s3.74-6.79-.63-6.79z"/><path d="m181.81 348.68c-4.38 0-3.73 6.8.64 6.8s3.73-6.8-.64-6.8z"/><path d="m204 266.39c-4.39 0-3.74 6.8.63 6.8s3.76-6.8-.63-6.8z"/><path d="m213.82 230.8c-4.39 0-3.74 6.79.63 6.79s3.73-6.79-.63-6.79z"/><path d="m237 177.25c-4.38 0-3.73 6.79.63 6.79s3.74-6.79-.63-6.79z"/><path d="m257.9 113.24c-4.38 0-3.74 6.8.63 6.8s3.74-6.8-.63-6.8z"/><path d="m287 101.49c-4.38 0-3.73 6.79.63 6.79s3.7-6.79-.63-6.79z"/><path d="m298.07 65.57c-4.39 0-3.74 6.79.63 6.79s3.73-6.79-.63-6.79z"/><path d="m264.76 40.42c-4.39 0-3.74 6.8.63 6.8s3.73-6.8-.63-6.8z"/><path d="m335.94 230.8c-4.38 0-3.73 6.79.64 6.79s3.73-6.79-.64-6.79z"/><path d="m340.52 262.48c-4.39 0-3.74 6.79.63 6.79s3.73-6.79-.63-6.79z"/><path d="m346.07 304.93c-4.39 0-3.74 6.79.63 6.79s3.73-6.79-.63-6.79z"/><path d="m349.33 351.62c-4.38 0-3.73 6.79.63 6.79s3.74-6.79-.63-6.79z"/><path d="m370.56 414.65c-4.39 0-3.74 6.79.63 6.79s3.73-6.79-.63-6.79z"/></g></g></svg>