<?xml version="1.0" encoding="UTF-8"?>
<!-- Generator: Adobe Illustrator 25.2.1, SVG Export Plug-In . SVG Version: 6.00 Build 0)  -->
<svg xmlns="http://www.w3.org/2000/svg" xmlns:xlink="http://www.w3.org/1999/xlink" version="1.1" id="Capa_1" x="0px" y="0px" viewBox="0 0 512 512" style="enable-background:new 0 0 512 512;" xml:space="preserve" width="512" height="512">
<g>
	<path style="fill:none;" d="M242.993,497.783c-57.091,0-112.313-20.204-155.826-56.947   c-10.141-3.854-20.006-8.132-29.365-12.731c-4.466-2.194-7.637-6.364-8.56-11.252c-0.832-4.407,0.251-8.934,2.931-12.474   C32.508,379.121,17.95,350.06,9.608,319.341c-9.095-7.334-12.294-20.143-7.159-30.975c0.235-0.497,0.485-0.985,0.75-1.466   c-1.33-10.344-2.003-20.714-2.003-30.914c0-34.539,7.128-67.791,21.203-98.995c-0.503-1.042-0.881-2.043-1.165-2.966   c-0.003-0.01-0.007-0.018-0.009-0.028c-6.127-2.835-11.43-7.355-13.67-14.627c-1.785-5.796-0.841-11.787,2.593-16.436   c1.017-1.381,2.414-2.863,4.3-4.16c-2.548-4.232-3.379-8.247-2.893-12.507c0.786-6.894,5.303-12.502,12.086-15.003   c2.386-0.88,4.908-1.325,7.5-1.325c3.752,0,7.514,0.911,11.381,2.802c0.558-1.271,1.252-2.464,2.077-3.612   c3.409-4.731,8.727-7.445,14.587-7.445c1.749,0,3.527,0.25,5.281,0.736c2.531,0.702,4.839,1.811,6.915,3.318   c1.793-1.801,3.619-3.578,5.474-5.333c-2.081-13.081-1.533-33.774,19.873-50.467c5.593-4.36,12.495-6.568,20.518-6.568   c9.297,0,20.235,3.028,33.278,9.23c29.393-12.204,60.461-18.383,92.468-18.383c30.69,0,60.541,5.678,88.841,16.883   c13.243-6.351,24.326-9.449,33.728-9.449c8.024,0,14.926,2.207,20.518,6.565c15.939,12.433,22.623,28.979,19.937,49.287   c8.312,7.599,16.122,15.81,23.325,24.518c2.11,0.926,4.036,2.266,5.68,3.977c1.564,1.628,2.791,3.493,3.681,5.587   c3.864-1.896,7.635-2.814,11.419-2.814c2.593,0,5.117,0.445,7.501,1.327c6.588,2.426,11.085,7.856,12.024,14.524   c0.656,4.648-0.391,8.878-2.837,12.981c1.888,1.297,3.285,2.781,4.306,4.16c3.432,4.651,4.378,10.642,2.593,16.438   c-1.106,3.581-3.005,6.678-5.685,9.284c4.906,12.448,8.759,25.259,11.522,38.31c17.93,4.592,30.178,21.889,27.96,40.756   c-0.62,5.287-2.323,10.21-4.867,14.558c2.935,2.601,5.294,5.688,6.91,9.104c5.785,12.196,0.993,26.908-10.91,33.484   c-4.113,2.271-8.844,3.555-14.47,3.928c-1.243,0.08-2.478,0.121-3.71,0.121c-0.412,0-0.826-0.005-1.24-0.013   c-0.435,1.989-0.893,3.969-1.374,5.937c0.62,6.403-1.212,12.814-5.127,17.948c-8.764,26.672-21.972,51.324-39.333,73.437   c-0.026,1.384-0.237,2.768-0.63,4.118c-1.232,4.206-4.155,7.715-8.07,9.683c-0.098,0.049-1.971,0.99-5.354,2.542   c-5.791,6.172-11.877,12.029-18.133,17.447C357.328,476.85,301.142,497.783,242.993,497.783z"/>
	<g>
		<path style="fill:#8EE5D5;" d="M471.675,255.987c0,68.279-30.268,129.473-78.132,170.909    c-39.619,34.324-91.329,55.082-147.86,55.082c-65.513,0-124.52-27.87-165.773-72.442c-37.38-40.304-60.219-94.253-60.219-153.55    c0-124.784,101.181-225.965,225.991-225.965S471.675,131.203,471.675,255.987z"/>
		<path style="fill:#5E2D42;" d="M419.36,159.905c2.803-2.65,5.661-5.238,8.555-7.782c12.576-8.121,35.478-24.044,26.931-27.196    c-9.238-3.407-25.729,18.977-32.017,28.163c-2.487,2.248-4.93,4.547-7.348,6.873c4.205-10.203,18.454-46.319,8.235-43.481    c-10.564,2.934-9.737,37.074-9.422,44.644c-4.107,3.992-8.111,8.093-12.005,12.3c4.705-11.546,17.602-45.029,7.749-42.292    c-10.341,2.872-9.766,35.655-9.442,44.14c-4.404,4.831-8.674,9.786-12.781,14.873c4.836-11.913,17.32-44.589,7.582-41.884    c-10.368,2.879-9.763,35.829-9.439,44.21c-4.228,5.335-8.279,10.806-12.162,16.39c4.543-11.102,17.918-45.522,7.935-42.75    c-6,1.666-8.323,13.406-9.155,24.627c0.147-3.688-0.807-5.82-3.586-5.048c-11.022,3.061-9.644,40.093-9.385,45.474    c-2.09,3.605-4.134,7.234-6.078,10.913c-0.339,0.643-0.094,1.44,0.549,1.781c0.177,0.094,0.364,0.142,0.55,0.151    c0.496,0.024,0.983-0.233,1.23-0.7c2.194-4.154,4.509-8.25,6.891-12.308c9.267,0.582,40.726,1.799,43.819-8.244    c3.048-9.898-31.702,2.498-42.941,6.734c3.658-6.153,7.535-12.182,11.606-18.086c8.92,0.574,40.952,1.912,44.075-8.227    c3.06-9.934-31.959,2.59-43.068,6.782c3.906-5.599,7.977-11.087,12.233-16.433c8.301,0.555,41.329,2.101,44.501-8.199    c3.102-10.073-32.927,2.938-43.501,6.946c4.376-5.441,8.943-10.727,13.661-15.874c8.331,0.556,41.311,2.092,44.481-8.201    c3.076-9.988-32.333,2.724-43.24,6.847c4.212-4.543,8.545-8.971,13.007-13.261c9.144,0.579,40.808,1.84,43.912-8.237    C464.257,143.93,431.526,155.363,419.36,159.905z M372.485,192.063c-0.53,8.251-0.294,15.971-0.167,18.919    c-4.071,5.956-7.933,12.045-11.589,18.249C363.641,222.174,371.473,202.426,372.485,192.063z"/>
		<path style="fill:#5E2D42;" d="M25.349,134.716c3.104,10.078,34.768,8.817,43.912,8.238c4.462,4.29,8.795,8.717,13.007,13.261    c-10.907-4.123-46.317-16.835-43.24-6.847c3.17,10.293,36.15,8.757,44.481,8.201c4.717,5.147,9.284,10.433,13.661,15.874    c-10.574-4.008-46.603-17.019-43.501-6.946c3.173,10.301,36.201,8.755,44.502,8.2c4.256,5.345,8.327,10.833,12.233,16.432    c-11.109-4.192-46.128-16.716-43.068-6.782c3.123,10.139,35.155,8.801,44.075,8.227c4.071,5.904,7.948,11.933,11.607,18.086    c-11.239-4.236-45.989-16.633-42.941-6.734c3.093,10.043,34.553,8.825,43.819,8.243c2.383,4.058,4.697,8.154,6.891,12.308    c0.247,0.467,0.735,0.724,1.231,0.7c0.186-0.009,0.373-0.057,0.55-0.15c0.643-0.341,0.888-1.138,0.549-1.781    c-1.943-3.679-3.987-7.309-6.077-10.913c0.259-5.381,1.637-42.413-9.385-45.474c-2.779-0.772-3.733,1.361-3.586,5.048    c-0.832-11.221-3.155-22.961-9.155-24.627c-9.984-2.772,3.392,31.648,7.935,42.75c-3.883-5.584-7.934-11.055-12.162-16.39    c0.324-8.381,0.928-41.331-9.439-44.21c-9.738-2.704,2.746,29.972,7.582,41.884c-4.108-5.087-8.377-10.042-12.781-14.873    c0.325-8.485,0.899-41.269-9.442-44.14c-9.854-2.736,3.044,30.746,7.749,42.292c-3.894-4.206-7.898-8.307-12.005-12.3    c0.315-7.569,1.143-41.71-9.422-44.644c-10.219-2.838,4.03,33.278,8.235,43.481c-2.418-2.326-4.861-4.625-7.348-6.873    c-6.288-9.186-22.779-31.57-32.017-28.163c-8.547,3.152,14.356,19.075,26.931,27.196c2.895,2.544,5.752,5.132,8.555,7.782    C55.118,136.531,22.387,125.098,25.349,134.716z M125.914,210.4c-3.656-6.204-7.517-12.294-11.589-18.249    c0.128-2.948,0.363-10.668-0.167-18.919C115.171,183.594,123.003,203.342,125.914,210.4z"/>
		<g>
			<path style="fill:#491D30;" d="M319.111,397.04c-0.219,0-0.443-0.056-0.647-0.174c-0.633-0.358-0.855-1.163-0.494-1.794     c35.098-61.798,85.945-113.652,147.041-149.962c0.631-0.367,1.434-0.164,1.806,0.459c0.372,0.626,0.165,1.434-0.459,1.806     c-60.705,36.075-111.225,87.599-146.099,148.996C320.015,396.8,319.57,397.04,319.111,397.04z"/>
			
				<ellipse transform="matrix(0.7805 -0.6252 0.6252 0.7805 -47.5868 348.8236)" style="fill:#FFE7E0;" cx="472.903" cy="242.172" rx="21.747" ry="21.747"/>
			<path style="fill:#491D30;" d="M443.467,214.233c2.162-2.258,4.604-4.428,7.611-5.284c1.779-0.507,3.804-0.488,5.355,0.519     c2.58,1.675,2.932,5.308,2.537,8.358c-0.943,7.292-4.532,13.946-8.233,20.3c-3.581,6.148-7.329,12.199-11.238,18.143     c-1.983,3.015-4.007,6.004-6.072,8.963c-1.787,2.562-3.774,6.603-6.293,8.373c-3.845-8.943-1.748-22.485,0.744-31.558     C430.72,231.697,436.034,221.997,443.467,214.233z"/>
			<path style="fill:#491D30;" d="M480.431,267.325c3.662,0.576,7.149,1.511,10.273,2.942c3.056,1.4,5.813,3.67,7.252,6.707     c2.268,4.785,0.323,10.353-4.269,12.889c-2.389,1.319-5.149,1.81-7.872,1.99c-13.413,0.886-26.084-5.139-38.383-9.634     c-1.579-0.577-21.407-8.497-21.475-8.393c1.693-2.583,8.986-3.277,12.009-3.94c4.67-1.025,9.398-1.787,14.154-2.284     C460.596,266.717,471.081,265.853,480.431,267.325z"/>
			<path style="fill:#491D30;" d="M395.802,239.298c1.61-2.68,3.512-5.336,6.255-6.836c1.623-0.887,3.602-1.317,5.337-0.677     c2.887,1.063,4.032,4.528,4.322,7.591c0.692,7.32-1.338,14.603-3.543,21.617c-2.134,6.787-4.452,13.517-6.951,20.178     c-1.267,3.379-2.581,6.741-3.941,10.084c-1.177,2.893-2.221,7.273-4.287,9.556c-5.727-7.872-6.674-21.543-6.249-30.942     C387.23,259.148,390.269,248.513,395.802,239.298z"/>
			<path style="fill:#491D30;" d="M448.299,301.271c3.553,1.058,6.885,2.447,9.791,4.281c2.843,1.794,5.273,4.41,6.297,7.611     c1.612,5.044-1.056,10.304-5.944,12.208c-2.543,0.99-5.344,1.11-8.066,0.927c-13.412-0.903-25.17-8.559-36.763-14.648     c-1.489-0.782-20.088-11.265-20.17-11.171c2.02-2.335,9.342-2.054,12.426-2.31c4.765-0.396,9.552-0.522,14.332-0.383     C428.72,298.033,439.227,298.57,448.299,301.271z"/>
			<g>
				<path style="fill:#491D30;" d="M352.023,276.17c1.111-2.922,2.514-5.873,4.949-7.833c1.44-1.16,3.312-1.932,5.133-1.61      c3.029,0.536,4.769,3.745,5.595,6.708c1.975,7.083,1.264,14.609,0.333,21.903c-0.901,7.058-1.993,14.091-3.275,21.089      c-0.65,3.55-1.349,7.091-2.097,10.622c-0.647,3.056-0.901,7.552-2.531,10.164c-7.027-6.737-10.376-20.025-11.619-29.351      C347.093,297.222,348.204,286.219,352.023,276.17z"/>
				<path style="fill:#491D30;" d="M414.645,327.892c3.683,0.413,7.209,1.192,10.394,2.483c3.115,1.263,5.97,3.408,7.543,6.378      c2.478,4.679,0.782,10.329-3.693,13.066c-2.328,1.424-5.064,2.037-7.776,2.338c-13.36,1.481-26.287-3.976-38.773-7.921      c-1.603-0.507-21.763-7.538-21.827-7.431c1.576-2.655,8.832-3.673,11.822-4.469c4.62-1.232,9.309-2.202,14.038-2.91      C394.801,328.164,405.238,326.836,414.645,327.892z"/>
			</g>
		</g>
		<g>
			<path style="fill:#491D30;" d="M198.268,415.198c-0.459,0-0.904-0.24-1.147-0.669c-34.879-61.4-85.401-112.921-146.101-148.995     c-0.624-0.372-0.831-1.18-0.459-1.806c0.372-0.624,1.177-0.831,1.806-0.459c61.094,36.308,111.941,88.163,147.043,149.96     c0.36,0.631,0.139,1.436-0.494,1.794C198.711,415.141,198.487,415.198,198.268,415.198z"/>
			<path style="fill:#FFE7E0;" d="M22.877,262.868c1.401,11.928,12.207,20.462,24.135,19.061     c11.928-1.401,20.462-12.207,19.061-24.135c-1.401-11.928-12.207-20.462-24.135-19.061     C30.01,240.134,21.476,250.94,22.877,262.868z"/>
			<path style="fill:#491D30;" d="M73.911,232.392c-2.162-2.258-4.604-4.428-7.611-5.284c-1.779-0.507-3.804-0.488-5.355,0.519     c-2.58,1.675-2.932,5.307-2.537,8.358c0.943,7.292,4.532,13.946,8.233,20.3c3.581,6.148,7.329,12.199,11.238,18.143     c1.983,3.015,4.007,6.004,6.072,8.964c1.787,2.561,3.773,6.603,6.293,8.373c3.845-8.943,1.748-22.485-0.744-31.558     C86.658,249.856,81.345,240.157,73.911,232.392z"/>
			<path style="fill:#491D30;" d="M36.947,285.484c-3.662,0.576-7.149,1.511-10.273,2.942c-3.055,1.4-5.813,3.67-7.252,6.707     c-2.268,4.785-0.322,10.353,4.269,12.889c2.389,1.319,5.149,1.81,7.872,1.99c13.413,0.886,26.085-5.139,38.383-9.634     c1.579-0.577,21.407-8.497,21.475-8.393c-1.692-2.583-8.987-3.277-12.009-3.94c-4.67-1.025-9.398-1.787-14.154-2.284     C56.783,284.876,46.298,284.013,36.947,285.484z"/>
			<path style="fill:#491D30;" d="M121.576,257.457c-1.609-2.68-3.512-5.336-6.255-6.836c-1.623-0.887-3.602-1.317-5.337-0.677     c-2.887,1.063-4.032,4.528-4.322,7.591c-0.692,7.32,1.338,14.603,3.543,21.617c2.134,6.787,4.452,13.517,6.95,20.178     c1.267,3.379,2.581,6.741,3.941,10.084c1.177,2.893,2.221,7.273,4.287,9.556c5.726-7.872,6.674-21.543,6.249-30.942     C130.148,277.307,127.11,266.673,121.576,257.457z"/>
			<path style="fill:#491D30;" d="M69.079,319.431c-3.552,1.057-6.885,2.447-9.791,4.281c-2.843,1.794-5.274,4.41-6.297,7.611     c-1.612,5.043,1.056,10.304,5.944,12.208c2.543,0.99,5.344,1.11,8.066,0.927c13.412-0.903,25.171-8.559,36.763-14.648     c1.489-0.782,20.088-11.266,20.17-11.171c-2.02-2.335-9.342-2.054-12.426-2.31c-4.765-0.395-9.552-0.522-14.332-0.383     C88.658,316.192,78.151,316.73,69.079,319.431z"/>
			<g>
				<path style="fill:#491D30;" d="M165.356,294.33c-1.11-2.923-2.514-5.873-4.949-7.834c-1.441-1.16-3.312-1.932-5.133-1.61      c-3.029,0.536-4.769,3.745-5.595,6.708c-1.975,7.083-1.264,14.609-0.333,21.903c0.901,7.058,1.993,14.091,3.275,21.089      c0.65,3.55,1.349,7.091,2.097,10.622c0.647,3.056,0.901,7.552,2.531,10.164c7.027-6.736,10.376-20.024,11.619-29.351      C170.286,315.382,169.174,304.378,165.356,294.33z"/>
				<path style="fill:#491D30;" d="M102.734,346.051c-3.683,0.413-7.209,1.192-10.394,2.483c-3.115,1.263-5.97,3.408-7.543,6.379      c-2.478,4.679-0.782,10.328,3.693,13.066c2.328,1.424,5.064,2.037,7.776,2.338c13.36,1.481,26.287-3.976,38.773-7.921      c1.603-0.507,21.763-7.538,21.827-7.431c-1.576-2.655-8.832-3.673-11.822-4.47c-4.62-1.232-9.31-2.202-14.038-2.91      C122.577,346.324,112.14,344.996,102.734,346.051z"/>
			</g>
		</g>
		<g>
			<g>
				<path style="fill:#FF5647;" d="M239.286,130.236l-15.506,20.782L117.474,293.641l-22.317-60.005l-49.021-19.759      c1.4-2.099,2.907-4.172,4.469-6.165c53.005-68.457,185.748-76.56,185.748-76.56L239.286,130.236z"/>
				<path style="opacity:0.7;fill:#C32D02;" d="M239.286,130.236l-15.506,20.782c-40.326,11.63-80.464,23.878-120.413,36.773      c-15.64,5.061-31.308,10.23-46.06,17.525c-2.477,1.238-4.846,2.1-6.703,2.396c53.005-68.457,185.748-76.56,185.748-76.56      L239.286,130.236z"/>
			</g>
			<g>
				<path style="fill:#FF5647;" d="M250.269,129.549l15.506,20.782l106.307,142.622l22.317-60.004l49.021-19.759      c-1.4-2.1-2.907-4.173-4.469-6.165c-53.006-68.458-185.748-76.561-185.748-76.561L250.269,129.549z"/>
				<path style="opacity:0.7;fill:#C32D02;" d="M250.269,129.549l15.506,20.782c40.326,11.629,80.463,23.878,120.413,36.773      c15.64,5.061,31.308,10.23,46.06,17.525c2.477,1.238,4.846,2.1,6.703,2.396c-53.006-68.458-185.748-76.561-185.748-76.561      L250.269,129.549z"/>
			</g>
			<g>
				<g>
					<path style="fill:#FFD179;" d="M420.276,404.739c0,0-17.659,8.91-47.056,18.709c-65.362,21.778-188.817,47.971-305.757-9.53       c0,0,4.926-5.357,12.033-15.91c0.673-0.969,1.346-1.992,2.019-3.042c10.903-16.771,25.87-44.526,36.342-82.779       c4.28-15.56,8.291-33.112,13.137-50.879c0.269-0.996,0.539-1.992,0.808-2.988c0.027,0.027,0.027,0.027,0.027,0       c0.511-1.831,1.023-3.661,1.561-5.492c0.646-2.288,1.319-4.549,2.019-6.838c1.669-5.492,3.446-10.93,5.357-16.314       c0.431-1.184,0.861-2.369,1.292-3.553c1.803-4.819,3.715-9.583,5.761-14.241l1.615-3.554       c15.856-34.188,40.057-61.862,82.241-67.408c4.334-0.592,8.857-0.942,13.567-1.023c2.315-0.054,4.577-0.027,6.811,0.054       c39.787,1.238,63.962,20.621,79.548,45.764c0.592,0.969,1.185,1.965,1.777,2.961c2.45,4.2,4.684,8.534,6.703,12.949       c0.458,0.969,0.888,1.965,1.319,2.934c0.7,1.615,1.4,3.23,2.046,4.872c0.458,1.077,0.888,2.207,1.292,3.311       c1.158,2.988,2.234,6.003,3.23,9.018c1.481,4.361,2.8,8.722,4.038,13.056c0.269,0.915,0.512,1.804,0.754,2.692       c4.523,16.475,7.592,32.169,10.714,44.418c7.914,31.066,30.366,75.026,44.553,101.057c0.565,1.05,1.131,2.073,1.669,3.042       C415.969,397.471,420.276,404.739,420.276,404.739z"/>
					<path style="opacity:0.15;fill:#F5755D;" d="M420.276,404.739c0,0-17.659,8.91-47.056,18.709       c-1.615-0.511-3.23-1.023-4.846-1.534c-2.8-0.915-5.599-1.857-8.399-2.854c-11.414-4.065-22.639-8.722-33.596-13.971       c-2.099-1.023-4.334-2.18-5.438-4.28c-1.023-2.019-0.727-4.442-0.431-6.703c0.404-2.988,0.754-6.003,1.05-8.991       c0.458-4.173,0.835-8.372,1.104-12.572c0.081-0.888,0.135-1.777,0.189-2.665c2.665-41.753-1.562-83.882-8.641-125.205       c-3.595-21.249-8.25-42.731-19.221-61.539c-4.092-7.161-8.937-13.971-14.402-20.136c-8.184-9.314-17.821-17.229-28.535-23.043       c39.787,1.238,63.962,20.621,79.548,45.764c9.849,15.926,16.198,33.849,21.159,51.794c4.523,16.475,7.592,32.169,10.714,44.418       c7.914,31.066,30.366,75.026,44.553,101.057c0.565,1.05,1.131,2.073,1.669,3.042       C415.969,397.471,420.276,404.739,420.276,404.739z"/>
					<path style="fill:#5E2D42;" d="M415.7,403.609c0,0-173.553,85.121-331.842,13.541c-3.257-1.454-6.515-2.988-9.745-4.603       c0,0,211.645-57.367,340.295-9.422C414.838,403.286,415.269,403.447,415.7,403.609z"/>
					<path style="fill:#491D30;" d="M414.401,403.124c-105.607,36.853-222.171,41.726-330.55,14.025       c-3.257-1.454-6.514-2.988-9.745-4.603c0,0,81.756-22.155,174.522-27.405c1.185-0.081,2.342-0.162,3.527-0.215       C307.636,382.046,366.726,385.357,414.401,403.124z"/>
					<g>
						<g>
							<polygon style="fill:#FFD179;" points="256.004,412.519 252.504,413.004 251.131,403.178 249.785,393.406 250.199,385.036          252.989,390.875 254.658,402.909        "/>
							<circle style="fill:#FFD179;" cx="254.029" cy="416.58" r="13.709"/>
						</g>
						<path style="fill:#5E2D42;" d="M253.321,390.969c-1.104,0.888-2.671,1.539-3.694,2.32l-0.999-8.147        c1.185-0.081,2.342-0.162,3.527-0.215L253.321,390.969z"/>
					</g>
					<path style="fill:#FFE7E0;" d="M333.379,188.679c-6.622-0.915-13.379-1.642-20.244-2.1c-5.465-0.404-11.01-0.619-16.637-0.727       c-35.992-0.646-74.837,4.549-116.186,15.506c-10.768,2.853-21.832,6.111-32.492,10.526l1.615-3.554       c9.96-3.93,20.19-6.945,30.177-9.583c40.972-10.876,79.575-16.071,115.379-15.614c4.926,0.054,9.826,0.242,14.644,0.512       c7.457,0.431,14.779,1.131,21.967,2.073C332.194,186.688,332.786,187.684,333.379,188.679z"/>
					<path style="fill:#FFE7E0;" d="M341.401,204.562c-3.446-0.565-6.919-1.104-10.445-1.535c-8.776-1.158-17.74-1.911-26.92-2.288       c-0.242,0-0.485-0.027-0.727-0.027c-1.373-0.054-2.746-0.108-4.119-0.135c-13.729-0.35-27.916,0.135-42.48,1.508       c-1.238,0.108-2.477,0.242-3.742,0.377c-23.232,2.369-47.487,6.892-72.657,13.568c-8.13,2.154-16.421,4.549-24.578,7.457       c-1.131,0.404-2.234,0.834-3.338,1.238c-3.93,1.508-7.833,3.15-11.629,4.953c0.431-1.184,0.861-2.369,1.292-3.553       c12.248-5.545,25.089-9.395,37.553-12.706c43.772-11.629,84.771-16.771,122.62-15.425c8.695,0.296,17.229,0.915,25.601,1.911       c4.119,0.485,8.211,1.077,12.249,1.723C340.539,202.597,340.97,203.593,341.401,204.562z"/>
					<path style="fill:#FFE7E0;" d="M409.697,386.03c-28.562-5.545-57.716-10.822-87.032-13.487       c-7.699-0.7-15.425-1.211-23.151-1.508c-59.332-2.261-119.013,8.668-176.73,19.248c-14.187,2.611-28.777,5.276-43.287,7.726       c0.673-0.969,1.346-1.992,2.019-3.042c13.675-2.342,27.405-4.873,40.784-7.322c57.851-10.607,117.694-21.563,177.322-19.302       c7.753,0.296,15.506,0.808,23.232,1.534c28.697,2.611,57.232,7.699,85.175,13.11       C408.593,384.038,409.158,385.061,409.697,386.03z"/>
					<path style="fill:#FFE7E0;" d="M344.739,212.746l-1.696,3.203l-9.799,18.575l-1.238,2.342c-0.081,0.135-0.162,0.242-0.269,0.35       c-0.215,0.215-0.485,0.323-0.781,0.35c-0.404,0.027-0.781-0.081-1.05-0.35c-0.053-0.027-0.108-0.081-0.135-0.135l-2.046-2.53       l-22.236-27.674l-3.984-4.953l-17.632,34.081c-0.027,0-0.027,0-0.027,0l-0.969,1.884c-0.215,0.404-0.619,0.673-1.077,0.727       c-0.485,0.027-0.915-0.161-1.212-0.538l-1.346-1.777l-24.228-31.981l-20.594,36.1l-0.727,1.292       c-0.215,0.35-0.565,0.619-0.969,0.673c-0.431,0.054-0.835-0.081-1.131-0.377l-1.158-1.131l-27.162-26.516l-19.113,33.327       l-1.319,2.288c-0.215,0.35-0.565,0.592-0.969,0.646c-0.431,0.054-0.808-0.054-1.13-0.35l-1.804-1.669l-24.282-22.424       L133.39,252.83c0.646-2.288,1.319-4.549,2.019-6.838l16.986-21.267l1.077-1.346c0.215-0.296,0.565-0.484,0.942-0.511       c0.377-0.027,0.754,0.108,1.023,0.35l0.296,0.269l25.601,23.663l20.486-35.642c0.189-0.35,0.565-0.592,0.969-0.673       c0.404-0.054,0.834,0.081,1.131,0.377l28.293,27.647l20.755-36.396l0.727-1.265c0.215-0.377,0.646-0.646,1.077-0.673       c0.458-0.027,0.888,0.162,1.158,0.539l0.781,1.023l24.739,32.681l17.74-34.188l0.888-1.723c0.189-0.404,0.592-0.673,1.05-0.727       c0.458-0.054,0.888,0.135,1.185,0.484l0.323,0.404l1.4,1.723l26.543,33.058l10.553-19.975l2.315-4.388       C343.904,210.512,344.335,211.642,344.739,212.746z"/>
					<path style="fill:#FFE7E0;" d="M352.761,237.512c-7.053-0.189-14.079-0.296-21.024-0.296h-1.831       c-5.707,0.027-11.387,0.108-16.986,0.215c-82.348,2.046-152.905,16.879-181.925,23.878c0.269-0.996,0.539-1.992,0.808-2.988       c0.027,0.027,0.027,0.027,0.027,0c10.93-2.584,27.082-6.138,47.11-9.718c1.723-0.296,3.473-0.592,5.222-0.915       c13.891-2.396,29.45-4.738,46.276-6.811c1.319-0.135,2.638-0.296,3.984-0.458c14.16-1.669,29.181-3.096,44.822-4.119       c1.535-0.108,3.069-0.215,4.604-0.296c0,0,0,0,0.027,0c9.314-0.565,18.844-0.996,28.562-1.238       c5.061-0.135,10.149-0.215,15.29-0.215c1.831-0.027,3.661-0.054,5.519-0.027c6.218,0.027,12.464,0.108,18.763,0.296       C352.276,235.736,352.519,236.624,352.761,237.512z"/>
				</g>
				<path style="fill:#FFD179;" d="M229.666,142.188c0,0-3.208-66.899,9.622-67.815c12.83-0.916,19.245,68.274,19.245,68.274      L229.666,142.188z"/>
				<path style="fill:#491D30;" d="M347.969,221.764c-1.615-1.965-3.257-3.903-4.926-5.815c-0.619-0.727-1.265-1.427-1.911-2.127      c-3.257-3.688-6.649-7.295-10.176-10.795c-0.996-1.05-2.046-2.1-3.123-3.123c-4.738-4.63-9.637-9.099-14.698-13.325      c-1.158-0.996-2.342-1.965-3.5-2.934c-9.099-7.403-18.683-14.241-28.67-20.432c-0.135-0.081-0.242-0.162-0.377-0.216      c-15.264-9.449-31.631-17.39-48.913-22.074c4.334-0.592,8.857-0.942,13.567-1.023c2.315-0.054,4.577-0.027,6.811,0.054      c39.787,1.238,63.962,20.621,79.548,45.764c0.592,0.969,1.185,1.965,1.777,2.961c2.45,4.2,4.684,8.534,6.703,12.949      c0.458,0.969,0.888,1.965,1.319,2.934c0.7,1.615,1.4,3.23,2.046,4.872c0.458,1.077,0.888,2.207,1.292,3.311      C345.896,215.734,346.973,218.749,347.969,221.764z"/>
			</g>
			<g>
				<g>
					<path style="fill:#FF5647;" d="M388.208,97.511c1.373,7.322,11.926,42.157-2.746,52.225       c-13.433,9.234-89.536-1.131-124.047-15.964c-2.934-1.265-5.572-2.557-7.861-3.876c-0.162-0.108-0.35-0.189-0.511-0.296       v-21.078c0,0,2.853-2.558,7.726-6.73c23.797-20.298,95.835-78.606,118.286-61.108       C406.083,61.762,386.835,90.189,388.208,97.511z"/>
					<path style="opacity:0.4;fill:#C32D02;" d="M265.803,128.093c-1.131,2.127-2.611,4.065-4.388,5.68       c-2.934-1.265-5.572-2.557-7.861-3.876c-0.162-0.969-0.323-1.992-0.511-3.042v-18.332c0,0,2.853-2.558,7.726-6.73       c0.673,0.161,1.346,0.404,2.019,0.754c3.688,1.884,5.223,6.299,5.68,10.176C269.087,117.971,268.28,123.435,265.803,128.093z"/>
					<path style="fill:#491D30;" d="M265.292,132.566c0,0,26.462-8.591,71.137-1.718c44.596,6.861,44.676,19.312,44.676,19.312       S315.581,156.622,265.292,132.566z"/>
					<g>
						<path style="fill:#491D30;" d="M255.18,122.588c-0.186,0-0.37-0.078-0.501-0.225c-0.214-0.241-0.228-0.6-0.033-0.857        c5.114-6.706,11.327-12.421,17.254-17.702c1.895-1.689,3.631-3.184,5.298-4.57c6.494-5.392,13.486-10.882,21.287-13.597        c1.994-0.696,4.907-0.574,6.369,1.019c0.678,0.738,1.288,2.064,0.339,4.189c-0.643,1.436-1.865,2.449-2.726,3.086        c-0.626,0.463-1.271,0.903-1.917,1.342c-0.607,0.414-1.215,0.828-1.804,1.261c-3.195,2.344-6.67,4.683-10.626,7.153        c-6.089,3.802-12.45,7.364-18.603,10.807l-3.647,2.045c-3.075,1.728-6.708,3.787-10.346,5.954        C255.418,122.556,255.298,122.588,255.18,122.588z M300.934,86.577c-0.669,0-1.366,0.106-2.008,0.331        c-7.588,2.641-14.471,8.049-20.868,13.362l0,0c-1.658,1.375-3.379,2.861-5.265,4.539c-5.015,4.469-10.237,9.251-14.793,14.666        c2.552-1.484,5.022-2.881,7.209-4.11l3.649-2.047c6.138-3.435,12.486-6.989,18.548-10.774        c3.925-2.451,7.374-4.772,10.541-7.096c0.6-0.441,1.22-0.864,1.841-1.287c0.631-0.43,1.262-0.861,1.874-1.314        c1.177-0.869,1.907-1.679,2.298-2.552c0.523-1.169,0.487-2.087-0.101-2.728C303.275,86.927,302.147,86.577,300.934,86.577z         M277.628,99.752h0.016H277.628z"/>
						<path style="fill:#491D30;" d="M283.549,122.95c-4.146,0-8.281-0.065-12.335-0.128l-4.198-0.064        c-3.548-0.048-7.734-0.094-11.937-0.045c-0.002,0-0.005,0-0.007,0c-0.32,0-0.596-0.225-0.659-0.538        c-0.066-0.315,0.104-0.633,0.403-0.757c7.793-3.231,16.036-5.055,23.811-6.644c2.446-0.502,4.697-0.924,6.877-1.291l0,0        c8.318-1.402,17.119-2.643,25.233-1.069c2.074,0.401,4.532,1.968,4.996,4.08c0.217,0.977,0.078,2.429-1.811,3.792        c-1.274,0.916-2.839,1.18-3.908,1.297c-0.777,0.086-1.561,0.144-2.343,0.2c-0.73,0.053-1.457,0.106-2.18,0.182        c-3.937,0.424-8.116,0.702-12.78,0.851C289.668,122.915,286.605,122.95,283.549,122.95z M258.921,121.346        c2.875,0,5.648,0.032,8.113,0.066l4.2,0.064c7.026,0.111,14.294,0.224,21.433-0.002c4.629-0.15,8.777-0.425,12.679-0.844        c0.739-0.079,1.481-0.133,2.227-0.187c0.765-0.057,1.53-0.112,2.293-0.195c1.457-0.161,2.496-0.496,3.268-1.052        c1.038-0.75,1.472-1.561,1.283-2.41c-0.29-1.316-2.055-2.684-3.937-3.049c-7.89-1.525-16.554-0.306-24.757,1.076l0,0        c-2.164,0.364-4.398,0.784-6.83,1.282c-6.581,1.346-13.496,2.858-20.157,5.253        C258.799,121.346,258.86,121.346,258.921,121.346z M285.614,114.147h0.016H285.614z"/>
					</g>
				</g>
				<g>
					<path style="fill:#FF5647;" d="M99.986,99.23c-1.373,7.322-11.925,42.157,2.746,52.225       c13.433,9.234,89.536-1.13,124.047-15.964c2.934-1.265,5.572-2.557,7.86-3.876c0.162-0.108,0.35-0.189,0.512-0.296V110.24       c0,0-2.854-2.558-7.726-6.73c-23.797-20.298-95.835-78.606-118.286-61.108C82.111,63.48,101.359,91.908,99.986,99.23z"/>
					<path style="opacity:0.4;fill:#C32D02;" d="M222.391,129.811c1.13,2.127,2.611,4.065,4.388,5.68       c2.934-1.265,5.572-2.557,7.86-3.876c0.162-0.969,0.323-1.992,0.512-3.042V110.24c0,0-2.854-2.558-7.726-6.73       c-0.673,0.161-1.346,0.404-2.019,0.754c-3.688,1.884-5.222,6.299-5.68,10.176C219.106,119.689,219.914,125.154,222.391,129.811       z"/>
					<path style="fill:#491D30;" d="M222.902,134.284c0,0-26.462-8.591-71.138-1.718c-44.596,6.861-44.676,19.312-44.676,19.312       S172.613,158.34,222.902,134.284z"/>
					<g>
						<path style="fill:#491D30;" d="M233.013,124.306c-0.118,0-0.238-0.032-0.344-0.095c-3.569-2.128-7.231-4.205-10.343-5.956        l-3.675-2.059c-6.143-3.439-12.495-6.995-18.574-10.792c-3.967-2.478-7.442-4.817-10.626-7.153        c-0.586-0.43-1.189-0.841-1.792-1.253c-0.647-0.443-1.297-0.885-1.928-1.351c-0.864-0.638-2.088-1.653-2.726-3.084        c-0.949-2.126-0.339-3.452,0.337-4.189c1.464-1.593,4.377-1.715,6.371-1.019c7.8,2.715,14.791,8.205,21.284,13.597        c1.698,1.41,3.43,2.904,5.298,4.569c5.929,5.283,12.142,11.001,17.253,17.703c0.195,0.257,0.181,0.616-0.033,0.857        C233.383,124.229,233.199,124.306,233.013,124.306z M187.261,88.296c-1.213,0-2.34,0.35-2.929,0.989        c-0.589,0.64-0.622,1.56-0.099,2.73c0.388,0.869,1.118,1.679,2.298,2.55c0.617,0.457,1.253,0.89,1.886,1.323        c0.617,0.42,1.231,0.839,1.829,1.278c3.155,2.316,6.604,4.637,10.541,7.096c6.053,3.78,12.392,7.327,18.523,10.759        l3.675,2.061c2.201,1.238,4.681,2.639,7.205,4.109c-4.554-5.412-9.776-10.195-14.791-14.665        c-1.855-1.654-3.576-3.138-5.265-4.538l0,0c-6.397-5.313-13.277-10.721-20.865-13.362        C188.624,88.403,187.93,88.296,187.261,88.296z"/>
						<path style="fill:#491D30;" d="M204.668,124.669c-3.063,0-6.133-0.036-9.182-0.134c-4.676-0.15-8.857-0.427-12.782-0.85        c-0.725-0.078-1.457-0.131-2.192-0.184c-0.777-0.057-1.556-0.113-2.331-0.199c-1.069-0.118-2.637-0.381-3.906-1.3        c-1.888-1.361-2.027-2.812-1.813-3.791c0.466-2.112,2.922-3.679,4.999-4.08c8.099-1.568,16.907-0.332,25.233,1.069        c0.002,0,0.002,0,0.002,0c2.159,0.365,4.41,0.788,6.875,1.291c7.781,1.593,16.027,3.418,23.808,6.644        c0.299,0.124,0.469,0.441,0.403,0.757c-0.064,0.314-0.384,0.512-0.666,0.538c-4.165-0.054-8.368-0.005-11.935,0.046        l-4.189,0.062C212.941,124.603,208.809,124.669,204.668,124.669z M185.695,114.746c-2.715,0-5.392,0.205-7.982,0.706        c-1.881,0.365-3.649,1.733-3.939,3.049c-0.186,0.85,0.247,1.66,1.286,2.41c0.772,0.557,1.808,0.892,3.266,1.054        c0.758,0.084,1.521,0.139,2.284,0.193c0.749,0.055,1.495,0.109,2.239,0.19c3.89,0.418,8.038,0.693,12.679,0.843        c7.141,0.227,14.409,0.114,21.442,0.004l4.191-0.064c2.526-0.034,5.3-0.097,8.297-0.066        c-6.656-2.392-13.573-3.906-20.157-5.254c-2.451-0.5-4.685-0.919-6.833-1.282        C196.961,115.601,191.245,114.746,185.695,114.746z"/>
					</g>
				</g>
				<g>
					<path style="fill:#FF5647;" d="M264.925,119.839c-0.915,5.991-4.657,10.941-9.153,13.709c-2.611,1.628-4.873,1.107-7.484,0.456       c-0.431-0.098-0.888-0.195-1.346-0.325c-0.915-0.195-1.857-0.391-2.907-0.456c-0.431-0.033-0.888-0.065-1.373-0.065       c-0.216,0-0.458,0.033-0.673,0.033c-4.442,0.195-9.96,3.549-13.621,0.521c-5.869-4.852-7.43-15.337-4.388-23.12       c3.581-9.085,10.903-10.681,19.328-7.359c0.404,0.163,0.781,0.293,1.185,0.358c0.458,0.13,0.942,0.195,1.4,0.261       c0.512,0.033,0.996,0.033,1.508,0c0.458,0,0.888-0.033,1.346-0.13c5.384-0.684,10.472-3.68,13.891,2.833       C264.656,110.493,265.652,115.28,264.925,119.839z"/>
					<path style="fill:#491D30;" d="M245.721,103.85c0.484,5.275-0.189,10.616-0.888,15.826c-0.565,4.494-1.158,9.085-0.969,13.547       c-0.431-0.033-0.888-0.065-1.373-0.065c-0.135-4.624,0.431-9.216,1.023-13.709c0.7-5.471,1.373-10.714,0.807-15.859       C244.779,103.72,245.263,103.785,245.721,103.85z"/>
					<path style="fill:#491D30;" d="M248.289,134.004c-0.431-0.098-0.888-0.195-1.346-0.325c1.4-4.82,1.992-10.453,1.777-16.673       c-0.162-4.396-0.7-8.825-1.319-13.156c0.458,0,0.888-0.033,1.346-0.13c0.646,4.363,1.158,8.792,1.319,13.221       C250.281,123.323,249.689,129.022,248.289,134.004z"/>
				</g>
			</g>
		</g>
		<g>
			<path style="fill:#FFE7E0;" d="M245.627,52.23l7.174,2.245c0.383,0.12,0.367,0.666-0.021,0.764l-6.648,1.68     c-3.214,0.812-5.775,3.235-6.764,6.399l-2.491,7.969c-0.117,0.376-0.653,0.37-0.761-0.01l-2.2-7.724     c-0.938-3.294-3.571-5.831-6.897-6.647l-6.693-1.641c-0.4-0.098-0.405-0.664-0.008-0.769l7.133-1.902     c3.305-0.881,5.885-3.467,6.759-6.774l1.929-7.294c0.101-0.382,0.637-0.398,0.761-0.023l2.523,7.625     C240.388,49.042,242.697,51.313,245.627,52.23z"/>
			<path style="fill:#FFE7E0;" d="M363.906,170.509l7.174,2.245c0.383,0.12,0.367,0.666-0.021,0.764l-6.648,1.679     c-3.214,0.812-5.775,3.235-6.764,6.399l-2.491,7.969c-0.117,0.377-0.653,0.37-0.761-0.01l-2.2-7.724     c-0.938-3.294-3.571-5.831-6.897-6.647l-6.693-1.641c-0.399-0.098-0.405-0.664-0.008-0.77l7.133-1.902     c3.305-0.881,5.885-3.466,6.759-6.774l1.929-7.294c0.101-0.382,0.637-0.398,0.761-0.023l2.522,7.625     C358.667,167.321,360.976,169.593,363.906,170.509z"/>
			<path style="fill:#FFE7E0;" d="M415.115,364.304l7.175,2.245c0.382,0.12,0.367,0.666-0.021,0.764l-6.648,1.68     c-3.214,0.812-5.775,3.235-6.764,6.399l-2.49,7.969c-0.118,0.376-0.653,0.37-0.761-0.01l-2.2-7.724     c-0.938-3.294-3.571-5.831-6.897-6.647l-6.693-1.641c-0.399-0.098-0.405-0.664-0.008-0.77l7.133-1.902     c3.305-0.881,5.885-3.467,6.759-6.774l1.929-7.294c0.101-0.382,0.637-0.398,0.761-0.023l2.523,7.625     C409.876,361.115,412.185,363.387,415.115,364.304z"/>
			<path style="fill:#FFE7E0;" d="M84.21,364.304l7.174,2.245c0.383,0.12,0.367,0.666-0.021,0.764l-6.648,1.68     c-3.214,0.812-5.775,3.235-6.764,6.399l-2.491,7.969c-0.117,0.376-0.653,0.37-0.761-0.01l-2.2-7.724     c-0.938-3.294-3.571-5.831-6.897-6.647l-6.693-1.641c-0.399-0.098-0.405-0.664-0.008-0.77l7.133-1.902     c3.305-0.881,5.885-3.467,6.759-6.774l1.929-7.294c0.101-0.382,0.637-0.398,0.761-0.023l2.523,7.625     C78.971,361.115,81.28,363.387,84.21,364.304z"/>
			<path style="fill:#FFE7E0;" d="M109.226,210.864l7.174,2.245c0.383,0.12,0.367,0.666-0.021,0.764l-6.648,1.679     c-3.214,0.812-5.775,3.235-6.764,6.399l-2.491,7.969c-0.117,0.377-0.653,0.37-0.761-0.01l-2.2-7.724     c-0.938-3.294-3.571-5.831-6.897-6.647l-6.693-1.641c-0.399-0.098-0.405-0.664-0.008-0.77l7.133-1.902     c3.305-0.881,5.885-3.466,6.759-6.774l1.929-7.294c0.101-0.382,0.637-0.398,0.761-0.023l2.522,7.625     C103.987,207.675,106.296,209.947,109.226,210.864z"/>
		</g>
	</g>
</g>















</svg>
