<?xml version="1.0" encoding="UTF-8"?>
<!-- Generator: Adobe Illustrator 26.5.0, SVG Export Plug-In . SVG Version: 6.00 Build 0)  -->
<svg xmlns="http://www.w3.org/2000/svg" xmlns:xlink="http://www.w3.org/1999/xlink" version="1.1" id="Capa_1" x="0px" y="0px" viewBox="0 0 512 512" style="enable-background:new 0 0 512 512;" xml:space="preserve" width="512" height="512">
<g>
	<g>
		<g>
			<path style="fill:#00A73E;" d="M447.966,300.687c3.62-2.698,6.729-5.712,8.925-9.014c5.494-8.006,1.807-13.669-4.632-16.853     c0.147-0.096,0.265-0.217,0.409-0.314c8.438-6.314,28.327-21.986,19.889-34.666c-6.941-10.534-29.531-7.521-39.777-6.317     c-5.567,0.604-13.11,1.593-19.333,4.123c3.085-2.579,5.977-5.424,8.777-7.738c8.146-6.942,16.293-14.465,23.214-22.612     c9.04-10.536,12.055-24.107-5.135-26.518c-5.956-0.822-12.607-0.726-19.264,0.265c5.764-7.571,19.865-26.809,9.933-36.114     c-8.439-8.439-28.615-1.809-37.678,2.098c-1.35,0.529-3.063,1.276-4.971,2.193c2.702-3.544,5.064-7.039,6.802-9.426     c4.818-6.316,14.462-19.576,6.605-27.099c-3.88-3.471-9.477-4.314-15.141-3.687c2.916-3.763,5.497-7.738,7.616-11.982     c5.737-11.765,4.533-25.024-10.554-26.831c-18.083-2.725-38.264,6.628-53.328,15.669c-4.462,2.652-9.695,5.859-14.49,9.666     c2.871-5.447,5.234-11.039,6.964-14.488c3.908-7.231,14.152-25.625,1.208-29.821c-14.175-4.821-33.75,12.344-41.294,22.276     c-1.76,2.289-3.812,4.967-5.814,7.835c6.269-21.769,8.922-43.925-7.76-38.26c-18.082,6.317-30.134,27.123-36.452,43.998     c-0.676,1.662-1.325,3.399-1.976,5.159c0.408-9.259,0.239-18.588-0.438-27.75c-1.494-18.08-6.315-45.514-30.423-41.898     c-27.435,4.22-41.295,40.381-44.91,63.885c-0.218,1.567-0.388,3.16-0.58,4.726c-9.617-25.239-24.663-43.369-46.745-26.422     c-19.865,15.068-17.766,48.507-12.345,69.912c1.282,4.822,2.8,9.909,4.727,14.876c-9.931-10.753-23.118-19.503-31.533-13.38     c-9.352,6.942,0,30.136,3.615,37.681c0.17,0.29,0.315,0.579,0.484,0.866c-13.14-10.22-28.833-17.356-29.413,1.231     c-0.458,10.823,3.762,20.853,9.642,29.651C37.173,200.353,15.646,199.1,9.4,217.854c-10.269,31.316,9.134,71.117,36.497,93.057     c-9.617,0.94-19.019,3.11-26.567,7.594c-13.257,7.835-14.462,22.01-3.614,32.232c12.972,12.366,31.339,10.558,47.012,7.232     c1.012-0.24,2.069-0.457,3.205-0.698c-1.738,1.012-3.329,1.977-4.703,2.82c-7.855,4.531-15.669,14.464-6.026,22.299     c9.33,7.353,21.217,4.581,32.593,0.409c-7.396,12.465-12.222,27.148-10.003,40.887c3.302,19.867,30.74,6.92,40.091-0.312     c3.28-2.482,6.366-5.183,9.331-8.027c-5.544,11.283-14.396,30.207-7.547,41.176c7.642,11.957,23.748-0.867,39.197-18.539     c0.245,4.147,0.991,8.029,2.413,11.308c6.318,14.464,22.59,0.289,29.219-6.63c2.482-2.625,4.812-5.41,7.072-8.258     c11.499,12.492,28.862,23.338,38.733-9.278c0,0,13.129,73.716,26.183-0.959c6.6,10.281,15.145,20.037,25.646,23.003     c17.191,4.652,20.614-10.245,19.359-27.578c5.883,9.328,14.588,20.201,23.436,18.248c17.187-3.615,3.302-39.175,2.097-49.107     c9.354,16.562,31.967,62.97,56.968,44.888c14.923-10.75,15.09-30.157,8.269-48.046c13.739,3.857,36.643,5.497,43.561-8.896     c6.028-12.971-7.231-25.314-17.48-30.762c-2.748-1.445-7.011-3.566-11.378-4.87c5.857-0.843,11.741-2.29,17.118-3.857     c10.847-3.014,31.92-9.04,37.364-20.201C472.68,305.921,456.891,301.967,447.966,300.687z M296.863,258.838     c-1.786,3.882-2.362,8.196-1.786,12.271c-5.135-0.048-9.91,2.628-12.365,9.427c-2.825,8.462-1.76,17.358,1.081,25.53     c-2.771-0.844-5.735-0.82-8.628,0.699c-4.605,2.361-7.594,7.642-9.091,13.598c-1.976-2.34-4.555-3.665-7.784-3.376     c-7.718,0.892-12.226,7.4-14.368,15.524c-1.134-8.679-3.569-20.01-10.634-24.542c-5.327-3.422-10.751-0.193-14.92,5.45     c-1.425-11.837-30.38-10.416-33.654-4.92c3.228-15.043,3.397-29.701-8.076-30.977c-4.149-0.53-9.188,0.531-14.152,2.603     c4.701-13.019,7.783-27.363,4.626-39.537c5.98,4.918,12.417,6.87,17.359,0.459c3.182-4.437,3.253-13.888,1.518-22.759     c4.895,5.593,11.306,9.812,17.165,10.125c10.969,0.436,16.104-7.426,18.371-17.165c1.592,3.955,3.907,7.306,7.254,9.307     c13.887,8.294,22.205-5.81,27.242-19.431c3.282,4.267,8.006,7.185,13.744,6.484c2.895-0.312,6.339-2.242,9.764-5.086     c-0.603,4.652-0.58,8.967,0.166,12.319c2.025,9.112,7.258,11.86,13.648,11.16c-0.678,4.364,0.094,8.848,2.939,13.26     c2.339,3.809,8.535,5.617,15.067,5.907C305.106,247.965,299.728,252.497,296.863,258.838z"/>
		</g>
		<g>
			<path style="fill:#8ECD37;" d="M397.725,294.695c2.739-2.045,5.097-4.327,6.757-6.832c4.163-6.064,1.371-10.357-3.506-12.769     c0.108-0.073,0.202-0.164,0.314-0.236c6.392-4.785,21.46-16.659,15.065-26.268c-5.259-7.982-22.375-5.698-30.137-4.785     c-4.221,0.455-9.941,1.205-14.65,3.123c2.336-1.955,4.529-4.111,6.648-5.864c6.173-5.26,12.348-10.96,17.591-17.133     c6.851-7.983,9.131-18.268-3.892-20.093c-4.513-0.621-9.55-0.548-14.595,0.2c4.367-5.735,15.051-20.312,7.524-27.363     c-6.393-6.394-21.682-1.37-28.55,1.589c-1.022,0.401-2.318,0.968-3.761,1.662c2.044-2.685,3.838-5.333,5.149-7.142     c3.652-4.787,10.962-14.833,5.006-20.532c-2.943-2.63-7.178-3.268-11.471-2.793c2.212-2.85,4.164-5.864,5.771-9.081     c4.346-8.912,3.433-18.958-7.999-20.33c-13.701-2.062-28.99,5.025-40.409,11.874c-3.376,2.01-7.339,4.438-10.977,7.325     c2.176-4.129,3.965-8.366,5.281-10.979c2.959-5.479,10.72-19.416,0.912-22.595c-10.742-3.654-25.573,9.353-31.292,16.877     c-1.332,1.735-2.886,3.764-4.403,5.938c4.751-16.496,6.76-33.281-5.879-28.989c-13.699,4.786-22.834,20.549-27.62,33.337     c-0.512,1.258-1.003,2.576-1.497,3.909c0.312-7.016,0.181-14.083-0.331-21.025c-1.13-13.7-4.783-34.486-23.052-31.747     c-20.784,3.195-31.29,30.596-34.029,48.406c-0.164,1.188-0.292,2.393-0.438,3.58c-7.288-19.125-18.688-32.861-35.418-20.021     c-15.053,11.417-13.465,36.754-9.354,52.973c0.969,3.653,2.12,7.509,3.58,11.27c-7.527-8.146-17.516-14.776-23.892-10.138     c-7.086,5.261,0,22.834,2.739,28.55c0.128,0.221,0.239,0.44,0.368,0.659c-9.958-7.745-21.848-13.153-22.286,0.93     c-0.35,8.203,2.848,15.802,7.305,22.47c-11.836-3.981-28.146-4.932-32.878,9.278c-7.782,23.729,6.922,53.887,27.655,70.509     c-7.289,0.713-14.415,2.355-20.129,5.753c-10.046,5.938-10.962,16.679-2.742,24.424c9.827,9.37,23.749,8,35.619,5.479     c0.766-0.183,1.573-0.347,2.431-0.529c-1.313,0.768-2.521,1.497-3.562,2.137c-5.956,3.436-11.875,10.959-4.568,16.897     c7.068,5.57,16.076,3.469,24.698,0.31c-5.606,9.442-9.262,20.568-7.58,30.98c2.5,15.053,23.288,5.242,30.376-0.238     c2.485-1.881,4.825-3.927,7.07-6.082c-4.204,8.548-10.907,22.889-5.72,31.198c5.79,9.062,17.994-0.656,29.702-14.047     c0.18,3.142,0.748,6.083,1.827,8.567c4.695,10.756,16.643,0.623,21.833-4.715c0.52,3.3,1.698,5.446,3.836,5.73     c12.052,1.607,24.104-22.902,24.104-22.902s-0.8,26.117,4.422,25.315c5.223-0.805,3.217-23.273,3.217-23.273     s22.836,27.396,27.49,11.201c3.34,3.286,7.076,5.867,11.217,7.036c13.023,3.526,15.616-7.763,14.666-20.896     c4.459,7.068,11.053,15.307,17.757,13.828c13.024-2.74,2.5-29.684,1.588-37.209c7.089,12.549,24.222,47.713,43.164,34.011     c11.31-8.147,11.435-22.851,6.268-36.404c10.408,2.923,27.763,4.165,33.005-6.741c4.567-9.826-5.479-19.18-13.243-23.307     c-2.083-1.097-5.314-2.703-8.622-3.689c4.439-0.642,8.895-1.736,12.97-2.923c8.221-2.283,24.186-6.851,28.311-15.308     C416.446,298.658,404.481,295.664,397.725,294.695z M283.231,262.986c-1.354,2.94-1.789,6.209-1.354,9.296     c-3.891-0.037-7.506,1.991-9.371,7.143c-2.135,6.411-1.332,13.152,0.824,19.344c-2.102-0.639-4.351-0.62-6.543,0.529     c-3.485,1.791-5.752,5.79-6.883,10.303c-1.5-1.772-3.453-2.775-5.9-2.557c-5.85,0.677-9.264,5.607-10.889,11.764     c-0.857-6.576-2.702-15.162-8.053-18.597c-4.039-2.592-8.149-0.146-11.31,4.129c-1.076-8.969-4.603-16.642-14.723-13.042     c-4.915,1.698-8.295,5.15-10.774,9.317c2.443-11.4,2.573-22.507-6.123-23.474c-3.14-0.402-6.958,0.402-10.722,1.972     c3.564-9.861,5.902-20.732,3.509-29.955c4.529,3.725,9.406,5.204,13.152,0.347c2.411-3.362,2.465-10.521,1.148-17.244     c3.711,4.238,8.568,7.435,13.007,7.673c8.31,0.327,12.204-5.628,13.92-13.008c1.205,2.997,2.96,5.535,5.499,7.051     c10.521,6.284,16.823-4.401,20.639-14.722c2.485,3.234,6.064,5.442,10.415,4.914c2.189-0.237,4.801-1.699,7.398-3.854     c-0.456,3.524-0.439,6.794,0.128,9.333c1.532,6.904,5.497,8.988,10.339,8.457c-0.515,3.307,0.07,6.705,2.229,10.047     c1.771,2.888,6.465,4.256,11.414,4.477C289.478,254.747,285.404,258.182,283.231,262.986z"/>
		</g>
		<path style="fill:#00A73E;" d="M151.567,234.85c0,0-35.76,12.77-47.812-19.128C103.756,215.722,135.095,205.519,151.567,234.85z"/>
		<path style="fill:#8ECD37;" d="M40.309,180.331c0,0-37.213-7.562-31.032-41.1C9.276,139.231,41.376,146.706,40.309,180.331z"/>
		<path style="fill:#00A73E;" d="M328.412,227.616c0,0,25.64-15.897,40.336,6.862C368.748,234.478,346.113,247.644,328.412,227.616z    "/>
		<path style="fill:#00A73E;" d="M0,185.729c0,0,25.64-15.898,40.336,6.862C40.336,192.592,17.698,205.755,0,185.729z"/>
		<path style="fill:#00A73E;" d="M395.318,295.641c0,0-36.384,10.866-46.736-21.623    C348.582,274.018,380.415,265.481,395.318,295.641z"/>
		<path style="fill:#00A73E;" d="M196.356,191.232c0,0-37.766-3.935-34.854-37.91C161.503,153.322,194.174,157.664,196.356,191.232z    "/>
		<path style="fill:#00A73E;" d="M175.549,246.775c0,0-25.474,51.123-71.793,29.093    C103.756,275.868,127.106,232.137,175.549,246.775z"/>
		<path style="fill:#00A73E;" d="M512,193.886c0,0-25.467,51.125-71.788,29.095C440.212,222.98,463.562,179.248,512,193.886z"/>
		<path style="fill:#00A73E;" d="M210.923,132.011c0,0,24.746,36.068-7.234,58.878C203.689,190.889,183.105,158.988,210.923,132.011    z"/>
		<path style="fill:#00A73E;" d="M361.179,188.741c0,0-13.55,41.589-51.117,30.106C310.061,218.848,322.836,183.097,361.179,188.741    z"/>
		<path style="fill:#00A73E;" d="M214.99,297.977c0,0-1.158,29.317-27.499,28.758C187.491,326.735,189.21,301.328,214.99,297.977z"/>
		<path style="fill:#00A73E;" d="M218.785,306.856c0,0,20.041,21.428,1.126,39.775C219.911,346.632,203.052,327.548,218.785,306.856    z"/>
	</g>
	<g>
		<g>
			<path style="fill:#FF2339;" d="M260.524,371.109c0,0,121.317,11.553,123.414,2.101c2.105-9.453-21.528-76.676-36.761-87.178     c-15.228-10.503-95.054,75.624-95.054,75.624s1.049-25.733-12.604-25.209c-13.652,0.528-14.179,26.259-14.179,26.259     s-84.03-73.523-106.083-65.646c-22.058,7.877-28.888,82.978-22.584,98.731c6.302,15.755,122.366-22.582,122.366-22.582     s-39.158,13.709-28.239,32.817c10.918,19.108-24.566,40.491-63.242,33.213l27.302,50.503c0,0,73.303-19.565,69.408-56.873     c-3.896-37.309-10.485-41.857,6.686-54.141c0,0,8.074,14.558,18.991-2.729c0,0,16.381,7.28,10.922,20.473     c-5.459,13.195-27.108,59.146,47.183,90.541l40.819-64.152c0,0-33.466,5.459-54.591-8.189     C273.15,401.022,302.951,391.247,260.524,371.109z"/>
			<path style="fill:#2B2426;" d="M187.77,365.751c-23.432,0-41.723-5.7-54.554-17.034c-18.344-16.204-18.402-37.798-18.396-38.708     l5.459,0.033c0,0.199,0.124,20.131,16.621,34.645c15.53,13.666,40.132,18.394,73.107,14.048l0.714,5.412     C202.596,365.216,194.94,365.75,187.77,365.751z"/>
			<path style="fill:#2B2426;" d="M267.251,361.894l-0.027-5.459c32.684-0.159,55.677-8.056,68.348-23.468     c13.782-16.771,10.133-36.778,10.093-36.978l5.362-1.032c0.179,0.921,4.158,22.745-11.239,41.478     C326.039,353.16,301.635,361.727,267.251,361.894z"/>
		</g>
		<path style="fill:#FFCA00;" d="M200.762,241.048c-4.949,0-9.832-0.847-14.633-2.546c-24.007-8.498-38.767-36.195-44.635-49.479    c-10.873,6.515-20.494,7.812-28.669,3.839c-19.215-9.342-20.502-44.075-20.585-48.005l12.051-0.262    c0.185,8.061,3.12,32.24,13.812,37.43c6.669,3.233,15.949-2.013,22.564-6.982l6.582-4.947l2.729,7.773    c0.139,0.4,14.357,40.152,40.197,49.276c10.356,3.658,21.082,1.908,32.801-5.345l6.344,10.249    C219.636,238.044,210.081,241.048,200.762,241.048z"/>
		<path style="fill:#FFCA00;" d="M302.768,289.251c-13.799,0-24.889-12.392-25.413-12.986l9.035-7.979    c2.714,3.045,11.416,10.525,18.959,8.589c7.714-1.974,14.415-13.684,18.865-32.973l1.966-8.498l7.254,4.838    c6.1,4.049,24.169,13.362,34.353,7.904c7.644-4.103,9.246-16.442,9.246-26.073v-10.215l8.944,4.94    c4.118,2.251,16.374,7.053,23.324,2.234c6.503-4.509,8.548-17.699,5.77-37.139l11.936-1.704    c3.562,24.928-0.1,41.338-10.879,48.777c-8.851,6.105-19.953,4.352-27.475,1.934c-1.453,13.892-6.546,23.251-15.195,27.88    c-13.139,7.027-29.996,0.573-39.53-4.339c-5.766,19.811-14.381,31.277-25.654,34.126    C306.401,289.042,304.561,289.251,302.768,289.251z"/>
		<g>
			<path style="fill:#FFCA00;" d="M392.269,316.343c-5.711,21.062,10.394,43.755,35.973,50.685     c25.576,6.931,50.935-4.526,56.643-25.59c5.707-21.062-10.397-43.757-35.974-50.686     C423.335,283.819,397.974,295.277,392.269,316.343z"/>
			<path style="fill:#FF2339;" d="M400.065,302.342c33.972,19.859,68.38,13.922,80.216,10.957c-1.672-2.733-3.677-5.334-5.991-7.747     c-11.096,2.623-39.435,6.864-67.905-8.689C404.054,298.472,401.935,300.31,400.065,302.342z"/>
			<path style="fill:#FF2339;" d="M392.974,336.146c1.488,4.479,3.85,8.774,6.944,12.698c28.745,12.676,56.392,12.159,73.925,9.706     c3.553-3.01,6.471-6.607,8.561-10.707C470.06,351.043,431.323,358.289,392.974,336.146z"/>
			<path style="fill:#F7F1E9;" d="M455.023,313.566c-0.794-0.003-1.607-0.012-2.432-0.029l0.053-2.409     c0.807,0.018,1.605,0.026,2.386,0.026L455.023,313.566z M457.454,313.549l-0.029-2.409c0.816-0.011,1.614-0.029,2.39-0.055     l0.076,2.41C459.101,313.519,458.288,313.538,457.454,313.549z M450.159,313.467c-0.801-0.03-1.608-0.07-2.43-0.115l0.135-2.406     c0.804,0.046,1.605,0.081,2.389,0.112L450.159,313.467z M462.317,313.399l-0.117-2.408c0.829-0.04,1.632-0.087,2.392-0.137     l0.152,2.406C463.972,313.31,463.165,313.357,462.317,313.399z M445.3,313.192c-0.802-0.06-1.609-0.13-2.424-0.206l0.225-2.401     c0.801,0.077,1.596,0.144,2.38,0.204L445.3,313.192z M467.171,313.081l-0.199-2.403c0.862-0.07,1.658-0.146,2.38-0.218     l0.246,2.397C468.86,312.934,468.051,313.008,467.171,313.081z M440.452,312.727c-0.803-0.094-1.608-0.195-2.419-0.308     l0.331-2.389c0.792,0.109,1.581,0.211,2.365,0.302L440.452,312.727z M472.018,312.586l-0.292-2.392     c1.49-0.184,2.325-0.322,2.34-0.324l0.395,2.378C474.46,312.248,473.593,312.394,472.018,312.586z M435.621,312.058     c-0.802-0.129-1.602-0.268-2.403-0.416l0.438-2.372c0.784,0.147,1.568,0.282,2.349,0.408L435.621,312.058z M430.82,311.163     c-0.795-0.168-1.588-0.349-2.381-0.536l0.562-2.345c0.771,0.186,1.544,0.359,2.321,0.523L430.82,311.163z M426.071,310.024     c-0.783-0.213-1.569-0.435-2.35-0.669l0.695-2.31c0.757,0.229,1.521,0.444,2.283,0.651L426.071,310.024z M421.394,308.613     c-0.777-0.259-1.544-0.53-2.31-0.815l0.836-2.26c0.743,0.274,1.485,0.537,2.233,0.788L421.394,308.613z M416.796,306.903     c-0.753-0.31-1.508-0.637-2.25-0.976l1-2.193c0.717,0.328,1.439,0.639,2.17,0.94L416.796,306.903z M412.327,304.867     c-0.732-0.367-1.455-0.751-2.17-1.146l1.164-2.111c0.687,0.38,1.386,0.749,2.09,1.102L412.327,304.867z M408.024,302.477     c-0.695-0.428-1.386-0.872-2.065-1.332l1.347-1.997c0.648,0.439,1.311,0.862,1.982,1.273L408.024,302.477z"/>
			<path style="fill:#F7F1E9;" d="M454.329,356.633l-0.012-2.409c0.812-0.004,1.613-0.015,2.395-0.029l0.044,2.409     C455.966,356.618,455.153,356.629,454.329,356.633z M451.898,356.625c-0.795-0.007-1.604-0.02-2.43-0.039l0.058-2.409     c0.811,0.02,1.609,0.032,2.396,0.04L451.898,356.625z M459.183,356.538l-0.076-2.41c0.817-0.026,1.616-0.058,2.393-0.094     l0.11,2.409C460.825,356.479,460.013,356.512,459.183,356.538z M447.043,356.511c-0.802-0.031-1.609-0.067-2.428-0.113     l0.128-2.406c0.808,0.043,1.604,0.079,2.393,0.109L447.043,356.511z M464.036,356.312l-0.147-2.406     c0.831-0.051,1.625-0.105,2.387-0.163l0.183,2.402C465.691,356.205,464.882,356.262,464.036,356.312z M442.191,356.252     c-0.801-0.057-1.607-0.117-2.425-0.187l0.206-2.403c0.8,0.068,1.595,0.13,2.383,0.183L442.191,356.252z M468.878,355.944     l-0.216-2.4c0.859-0.079,1.654-0.158,2.38-0.236l0.257,2.396C470.568,355.784,469.756,355.865,468.878,355.944z M437.347,355.838     c-0.801-0.08-1.607-0.17-2.415-0.266l0.28-2.394c0.799,0.095,1.591,0.181,2.38,0.261L437.347,355.838z M473.721,355.421     l-0.305-2.392c1.5-0.191,2.329-0.33,2.343-0.332l0.398,2.377C476.156,355.074,475.294,355.22,473.721,355.421z M432.517,355.269     c-0.799-0.107-1.6-0.224-2.406-0.348l0.362-2.382c0.792,0.119,1.582,0.233,2.364,0.34L432.517,355.269z M427.709,354.529     c-0.795-0.136-1.597-0.281-2.398-0.435l0.455-2.368c0.784,0.15,1.568,0.292,2.353,0.428L427.709,354.529z M422.926,353.611     c-0.789-0.168-1.579-0.346-2.371-0.527l0.544-2.349c0.774,0.18,1.552,0.354,2.33,0.52L422.926,353.611z M418.19,352.503     c-0.782-0.201-1.565-0.41-2.348-0.63l0.645-2.321c0.77,0.213,1.536,0.419,2.305,0.615L418.19,352.503z M413.498,351.186     c-0.774-0.236-1.55-0.481-2.321-0.737l0.755-2.29c0.761,0.25,1.515,0.49,2.271,0.721L413.498,351.186z M408.874,349.653     c-0.767-0.273-1.527-0.558-2.288-0.852l0.872-2.249c0.743,0.288,1.485,0.565,2.228,0.832L408.874,349.653z M404.324,347.885     c-0.75-0.314-1.497-0.639-2.24-0.976l0.993-2.195c0.723,0.327,1.451,0.643,2.179,0.948L404.324,347.885z M399.873,345.868     c-0.722-0.353-1.438-0.713-2.152-1.088l1.123-2.134c0.689,0.362,1.386,0.715,2.085,1.056L399.873,345.868z"/>
			<path style="fill:#F7F1E9;" d="M455.276,279.14l-2.334,10.598l5.422,3.36c0,0-19.621,11.662-33.52-5.062l6.391-0.938     l0.294-13.863L455.276,279.14z"/>
			<g>
				<polygon style="fill:#F7F1E9;" points="446.732,283.315 446.574,282.154 448.961,281.818 449.124,283.02     "/>
				<path style="fill:#F7F1E9;" d="M446.229,279.821c-0.111-0.699-0.239-1.483-0.387-2.338l2.375-0.411      c0.148,0.867,0.279,1.664,0.392,2.375L446.229,279.821z M438.976,278.165c-0.356-0.624-0.755-1.329-1.179-2.095l2.11-1.164      c0.419,0.754,0.811,1.447,1.161,2.062L438.976,278.165z M445.423,275.151c-0.141-0.745-0.29-1.522-0.45-2.326l2.362-0.475      c0.163,0.812,0.315,1.602,0.456,2.359L445.423,275.151z M436.65,273.959c-0.362-0.685-0.736-1.398-1.11-2.133l2.145-1.097      c0.369,0.724,0.737,1.424,1.094,2.098L436.65,273.959z M444.487,270.51c-0.17-0.757-0.347-1.527-0.533-2.305l2.346-0.562      c0.191,0.794,0.368,1.578,0.538,2.35L444.487,270.51z M434.463,269.675c-0.348-0.716-0.692-1.444-1.031-2.18l2.189-1.009      c0.331,0.719,0.669,1.432,1.012,2.132L434.463,269.675z M443.385,265.918c-0.199-0.76-0.406-1.519-0.624-2.273l2.315-0.666      c0.224,0.771,0.438,1.551,0.642,2.329L443.385,265.918z M432.451,265.286c-0.32-0.747-0.631-1.495-0.921-2.241l2.246-0.876      c0.284,0.719,0.578,1.443,0.892,2.167L432.451,265.286z M442.078,261.394c-0.24-0.751-0.491-1.49-0.756-2.212l2.268-0.824      c0.27,0.75,0.532,1.519,0.785,2.303L442.078,261.394z M430.69,260.761c-0.273-0.797-0.518-1.58-0.729-2.344l2.321-0.646      c0.199,0.716,0.433,1.457,0.69,2.206L430.69,260.761z M440.481,257.012c-0.306-0.732-0.626-1.435-0.954-2.099l2.157-1.075      c0.353,0.71,0.694,1.459,1.023,2.244L440.481,257.012z M429.384,255.997c-0.165-0.898-0.27-1.748-0.306-2.538l2.409-0.097      c0.029,0.682,0.123,1.416,0.265,2.19L429.384,255.997z M438.423,252.941c-0.415-0.658-0.848-1.247-1.298-1.748l1.789-1.611      c0.526,0.583,1.046,1.279,1.543,2.07L438.423,252.941z M431.662,251.362l-2.327-0.627c0.298-1.115,0.855-1.997,1.649-2.622      l1.491,1.892C432.095,250.308,431.826,250.75,431.662,251.362z M435.607,249.92c-0.512-0.291-1.004-0.432-1.509-0.432      l-0.19-2.407c0.005,0,0.014,0,0.022,0c1.1,0,2.001,0.251,2.869,0.742L435.607,249.92z"/>
				<polygon style="fill:#F7F1E9;" points="440.832,281.306 440.199,280.265 442.271,279.027 442.878,280.037     "/>
			</g>
			<path style="fill:#FF2339;" d="M448.858,340.436l-0.244-7.228c2.288-0.077,4.604-0.261,6.881-0.545l0.898,7.175     C453.896,340.151,451.363,340.352,448.858,340.436z M441.299,340.345c-2.49-0.141-5.017-0.399-7.509-0.766l1.048-7.154     c2.283,0.334,4.596,0.569,6.877,0.701L441.299,340.345z M463.839,338.561l-1.545-7.066c2.233-0.487,4.479-1.084,6.678-1.772     l2.164,6.9C468.735,337.376,466.279,338.028,463.839,338.561z M426.381,338.162c-2.42-0.57-4.858-1.252-7.25-2.029l2.23-6.879     c2.205,0.716,4.452,1.344,6.679,1.867L426.381,338.162z M478.223,334.076l-2.727-6.699c1.784-0.728,3.575-1.528,5.317-2.38     l3.176,6.498C482.101,332.417,480.162,333.285,478.223,334.076z M412.074,333.532c-2.317-0.964-4.616-2.021-6.827-3.148     l3.284-6.444c2.044,1.042,4.169,2.021,6.315,2.912L412.074,333.532z M398.68,326.699c-4.014-2.475-6.269-4.317-6.364-4.394     l4.587-5.594c0.019,0.017,2.016,1.638,5.573,3.83L398.68,326.699z"/>
		</g>
		<g>
			<path style="fill:#F7F1E9;" d="M240.402,151.787c-5.71,21.062,10.394,43.755,35.97,50.685     c25.579,6.932,50.938-4.526,56.643-25.59c5.709-21.062-10.397-43.757-35.972-50.688     C271.466,119.264,246.109,130.722,240.402,151.787z"/>
			<path style="fill:#FF2339;" d="M248.197,137.786c33.974,19.858,68.379,13.923,80.215,10.957     c-1.668-2.734-3.678-5.335-5.988-7.747c-11.099,2.623-39.436,6.864-67.905-8.689     C252.186,133.916,250.069,135.754,248.197,137.786z"/>
			<path style="fill:#FF2339;" d="M241.107,171.591c1.487,4.479,3.851,8.775,6.944,12.699c28.742,12.674,56.394,12.158,73.923,9.705     c3.555-3.01,6.473-6.608,8.561-10.707C318.19,186.486,279.458,193.733,241.107,171.591z"/>
			<path style="fill:#F7F1E9;" d="M303.158,149.011c-0.795-0.003-1.605-0.012-2.435-0.029l0.052-2.409     c0.812,0.018,1.608,0.026,2.389,0.026L303.158,149.011z M305.588,148.993l-0.029-2.409c0.819-0.011,1.615-0.029,2.387-0.055     l0.075,2.409C307.235,148.964,306.425,148.983,305.588,148.993z M298.294,148.913c-0.799-0.031-1.611-0.07-2.431-0.116     l0.135-2.406c0.807,0.046,1.602,0.082,2.39,0.112L298.294,148.913z M310.454,148.845l-0.117-2.41     c0.831-0.039,1.626-0.086,2.387-0.136l0.156,2.406C312.108,148.755,311.296,148.802,310.454,148.845z M293.436,148.637     c-0.802-0.061-1.611-0.131-2.427-0.206l0.225-2.4c0.802,0.075,1.594,0.143,2.385,0.202L293.436,148.637z M315.308,148.525     l-0.199-2.403c0.859-0.07,1.655-0.145,2.377-0.218l0.247,2.398C316.995,148.378,316.185,148.452,315.308,148.525z      M288.583,148.173c-0.802-0.094-1.607-0.194-2.415-0.307l0.328-2.39c0.794,0.11,1.584,0.211,2.368,0.302L288.583,148.173z      M320.149,148.029l-0.293-2.392c1.494-0.183,2.329-0.321,2.344-0.323l0.395,2.377     C322.595,147.691,321.723,147.839,320.149,148.029z M283.755,147.502c-0.797-0.128-1.599-0.268-2.406-0.417l0.445-2.371     c0.784,0.146,1.566,0.282,2.345,0.408L283.755,147.502z M278.951,146.607c-0.789-0.168-1.584-0.349-2.377-0.537l0.562-2.345     c0.772,0.186,1.546,0.359,2.317,0.524L278.951,146.607z M274.21,145.469c-0.788-0.213-1.574-0.435-2.353-0.669l0.692-2.31     c0.758,0.229,1.521,0.444,2.283,0.65L274.21,145.469z M269.525,144.059c-0.772-0.258-1.545-0.53-2.311-0.814l0.842-2.26     c0.737,0.274,1.485,0.538,2.235,0.788L269.525,144.059z M264.931,142.347c-0.757-0.31-1.508-0.636-2.254-0.975l1-2.192     c0.719,0.327,1.444,0.638,2.172,0.939L264.931,142.347z M260.463,140.313c-0.729-0.368-1.454-0.751-2.173-1.146l1.164-2.112     c0.69,0.381,1.39,0.749,2.094,1.102L260.463,140.313z M256.161,137.923c-0.701-0.429-1.391-0.873-2.069-1.332l1.349-1.997     c0.652,0.439,1.312,0.863,1.979,1.273L256.161,137.923z"/>
			<path style="fill:#F7F1E9;" d="M302.46,192.077l-0.012-2.409c0.816-0.005,1.613-0.015,2.397-0.029l0.041,2.409     C304.098,192.062,303.288,192.073,302.46,192.077z M300.032,192.07c-0.794-0.008-1.606-0.02-2.429-0.04l0.055-2.409     c0.814,0.018,1.609,0.032,2.398,0.039L300.032,192.07z M307.314,191.982l-0.076-2.409c0.821-0.027,1.62-0.059,2.392-0.096     l0.115,2.41C308.956,191.924,308.147,191.956,307.314,191.982z M295.173,191.955c-0.797-0.031-1.608-0.067-2.427-0.113     l0.136-2.406c0.8,0.042,1.599,0.079,2.385,0.109L295.173,191.955z M312.167,191.757l-0.146-2.406     c0.831-0.052,1.629-0.105,2.386-0.164l0.188,2.403C313.822,191.648,313.016,191.706,312.167,191.757z M290.325,191.695     c-0.801-0.055-1.608-0.116-2.427-0.186l0.205-2.403c0.801,0.068,1.597,0.131,2.387,0.183L290.325,191.695z M317.013,191.389     l-0.22-2.4c0.863-0.079,1.658-0.158,2.381-0.237l0.26,2.398C318.7,191.227,317.889,191.31,317.013,191.389z M285.481,191.281     c-0.803-0.08-1.606-0.169-2.419-0.265l0.283-2.395c0.799,0.096,1.591,0.182,2.377,0.263L285.481,191.281z M321.851,190.865     l-0.304-2.392c1.504-0.192,2.327-0.331,2.345-0.332l0.399,2.377C324.291,190.519,323.427,190.663,321.851,190.865z      M280.651,190.713c-0.799-0.107-1.601-0.224-2.408-0.346l0.364-2.384c0.788,0.12,1.579,0.234,2.364,0.341L280.651,190.713z      M275.84,189.974c-0.794-0.137-1.593-0.28-2.395-0.434l0.454-2.368c0.786,0.15,1.57,0.293,2.35,0.429L275.84,189.974z      M271.056,189.055c-0.788-0.167-1.577-0.344-2.366-0.527l0.543-2.348c0.774,0.18,1.55,0.354,2.327,0.518L271.056,189.055z      M266.323,187.947c-0.781-0.201-1.564-0.411-2.349-0.631l0.644-2.321c0.772,0.214,1.539,0.42,2.303,0.615L266.323,187.947z      M261.63,186.632c-0.772-0.237-1.547-0.483-2.321-0.739l0.754-2.289c0.762,0.25,1.515,0.489,2.275,0.721L261.63,186.632z      M257.004,185.098c-0.763-0.273-1.526-0.559-2.286-0.853l0.872-2.248c0.742,0.288,1.484,0.564,2.228,0.832L257.004,185.098z      M252.456,183.329c-0.75-0.314-1.498-0.639-2.241-0.976l0.994-2.196c0.726,0.328,1.45,0.645,2.182,0.949L252.456,183.329z      M248.005,181.313c-0.72-0.353-1.439-0.714-2.149-1.088l1.123-2.135c0.686,0.362,1.383,0.715,2.085,1.055L248.005,181.313z"/>
			<path style="fill:#FFCA00;" d="M303.411,114.584l-2.338,10.598l5.425,3.36c0,0-19.62,11.662-33.523-5.062l6.398-0.938     l0.289-13.863L303.411,114.584z"/>
			<g>
				<polygon style="fill:#FFCA00;" points="294.864,118.759 294.709,117.599 297.094,117.263 297.256,118.465     "/>
				<path style="fill:#FFCA00;" d="M294.361,115.266c-0.112-0.699-0.241-1.483-0.387-2.338l2.374-0.412      c0.152,0.868,0.28,1.665,0.392,2.376L294.361,115.266z M287.109,113.609c-0.357-0.625-0.754-1.329-1.179-2.096l2.111-1.163      c0.419,0.754,0.81,1.447,1.161,2.062L287.109,113.609z M293.558,110.596c-0.141-0.745-0.291-1.522-0.455-2.327l2.363-0.474      c0.164,0.812,0.319,1.603,0.46,2.359L293.558,110.596z M284.784,109.403c-0.364-0.685-0.737-1.397-1.113-2.133l2.146-1.097      c0.372,0.724,0.737,1.424,1.098,2.098L284.784,109.403z M292.618,105.954c-0.167-0.757-0.343-1.527-0.529-2.304l2.345-0.564      c0.189,0.794,0.368,1.579,0.539,2.351L292.618,105.954z M282.598,105.118c-0.349-0.716-0.693-1.443-1.032-2.179l2.186-1.009      c0.335,0.719,0.674,1.432,1.013,2.132L282.598,105.118z M291.519,101.362c-0.199-0.761-0.41-1.52-0.625-2.273l2.314-0.666      c0.224,0.771,0.439,1.551,0.644,2.328L291.519,101.362z M280.583,100.73c-0.323-0.747-0.629-1.496-0.918-2.241l2.244-0.877      c0.281,0.72,0.58,1.444,0.89,2.168L280.583,100.73z M290.211,96.839c-0.242-0.751-0.491-1.491-0.754-2.212l2.266-0.824      c0.272,0.75,0.532,1.519,0.784,2.303L290.211,96.839z M278.823,96.204c-0.271-0.797-0.521-1.58-0.731-2.343l2.321-0.646      c0.199,0.717,0.433,1.456,0.69,2.206L278.823,96.204z M288.615,92.456c-0.308-0.732-0.625-1.436-0.956-2.098l2.157-1.076      c0.353,0.709,0.697,1.459,1.023,2.244L288.615,92.456z M277.519,91.441c-0.17-0.897-0.275-1.748-0.306-2.538l2.409-0.097      c0.025,0.682,0.119,1.416,0.265,2.19L277.519,91.441z M286.554,88.386c-0.416-0.659-0.849-1.247-1.298-1.748l1.792-1.611      c0.524,0.583,1.044,1.279,1.544,2.069L286.554,88.386z M279.797,86.806l-2.328-0.626c0.298-1.115,0.853-1.997,1.646-2.622      l1.494,1.892C280.226,85.752,279.961,86.194,279.797,86.806z M283.74,85.364c-0.512-0.291-1.006-0.432-1.509-0.432l-0.192-2.408      c0.009,0,0.018,0,0.023,0c1.1,0,2.003,0.252,2.871,0.743L283.74,85.364z"/>
				<polygon style="fill:#FFCA00;" points="288.964,116.75 288.331,115.705 290.407,114.475 291.013,115.48     "/>
			</g>
			<path style="fill:#FF2339;" d="M296.991,175.88l-0.245-7.228c2.286-0.078,4.603-0.26,6.883-0.546l0.896,7.176     C302.03,175.596,299.495,175.797,296.991,175.88z M289.431,175.79c-2.491-0.143-5.018-0.401-7.509-0.767l1.051-7.155     c2.283,0.335,4.593,0.571,6.874,0.702L289.431,175.79z M311.972,174.006l-1.545-7.067c2.231-0.486,4.48-1.083,6.676-1.771     l2.165,6.9C316.868,172.82,314.412,173.472,311.972,174.006z M274.513,173.606c-2.419-0.569-4.859-1.253-7.251-2.028l2.233-6.881     c2.204,0.717,4.451,1.345,6.679,1.868L274.513,173.606z M326.354,169.52l-2.726-6.698c1.786-0.729,3.576-1.529,5.319-2.381     l3.176,6.497C330.234,167.861,328.295,168.729,326.354,169.52z M260.209,168.977c-2.321-0.964-4.617-2.021-6.83-3.15l3.285-6.444     c2.044,1.043,4.171,2.023,6.316,2.912L260.209,168.977z M246.811,162.144c-4.011-2.476-6.268-4.317-6.362-4.395l4.585-5.594     c0.018,0.016,2.017,1.638,5.572,3.831L246.811,162.144z"/>
		</g>
		<g>
			<path style="fill:#FF2339;" d="M98.24,278.839c6.485,20.839-8.771,44.112-34.074,51.979c-25.302,7.873-51.07-2.64-57.55-23.479     c-6.481-20.836,8.775-44.11,34.074-51.98C65.995,247.488,91.761,258.002,98.24,278.839z"/>
			<path style="fill:#FFCA00;" d="M89.932,265.138c-33.217,21.101-67.817,16.439-79.754,13.913c1.567-2.792,3.479-5.467,5.699-7.963     c11.189,2.212,39.662,5.401,67.539-11.193C85.803,261.418,87.989,263.176,89.932,265.138z"/>
			<path style="fill:#FFCA00;" d="M98.268,298.657c-1.319,4.532-3.523,8.912-6.469,12.947c-28.259,13.73-55.908,14.233-73.516,12.43     c-3.661-2.876-6.714-6.365-8.953-10.383C21.79,316.393,60.762,322.202,98.268,298.657z"/>
			<path style="fill:#F7F1E9;" d="M30.56,278.494l-0.015-2.409c0.778-0.004,1.573-0.015,2.392-0.034l0.054,2.41     C32.16,278.479,31.347,278.489,30.56,278.494z M28.131,278.485c-0.848-0.009-1.661-0.025-2.436-0.047l0.07-2.409     c0.761,0.022,1.56,0.038,2.389,0.047L28.131,278.485z M35.423,278.386l-0.094-2.409c0.78-0.031,1.576-0.067,2.386-0.115     l0.141,2.406C37.032,278.315,36.219,278.354,35.423,278.386z M23.266,278.351c-0.878-0.04-1.69-0.086-2.43-0.133l0.155-2.406     c0.725,0.047,1.52,0.092,2.385,0.13L23.266,278.351z M40.283,278.106l-0.182-2.403c0.784-0.06,1.578-0.125,2.386-0.2l0.219,2.4     C41.891,277.977,41.084,278.047,40.283,278.106z M18.407,278.035c-1.579-0.135-2.452-0.247-2.452-0.247l0.305-2.393     c0.015,0.002,0.854,0.108,2.354,0.239L18.407,278.035z M45.132,277.651l-0.271-2.395c0.781-0.089,1.573-0.186,2.368-0.291     l0.317,2.39C46.732,277.463,45.929,277.563,45.132,277.651z M49.962,277.01l-0.37-2.383c0.784-0.12,1.568-0.249,2.354-0.389     l0.418,2.374C51.561,276.754,50.756,276.887,49.962,277.01z M54.762,276.161l-0.471-2.366c0.774-0.152,1.554-0.318,2.33-0.492     l0.53,2.351C56.353,275.833,55.558,276.001,54.762,276.161z M59.521,275.09l-0.584-2.34c0.766-0.191,1.531-0.395,2.296-0.608     l0.649,2.321C61.099,274.683,60.312,274.892,59.521,275.09z M64.228,273.776l-0.715-2.305c0.758-0.232,1.509-0.478,2.258-0.732     l0.777,2.281C65.779,273.283,65.002,273.535,64.228,273.776z M68.855,272.191l-0.854-2.254c0.743-0.279,1.477-0.57,2.205-0.873     l0.924,2.227C70.375,271.603,69.616,271.904,68.855,272.191z M73.379,270.314l-1-2.193c0.716-0.327,1.43-0.668,2.138-1.02     l1.076,2.158C74.86,269.623,74.124,269.975,73.379,270.314z M77.771,268.114l-1.163-2.111c0.69-0.38,1.371-0.773,2.046-1.181     l1.245,2.065C79.197,267.311,78.486,267.719,77.771,268.114z M81.981,265.568l-1.337-2.006c0.654-0.435,1.298-0.884,1.936-1.347     l1.422,1.946C83.335,264.646,82.663,265.115,81.981,265.568z"/>
			<path style="fill:#F7F1E9;" d="M32.155,321.484l-1.729-0.011l0.025-2.408l2.392,0.007l0.012,2.409L32.155,321.484z      M35.282,321.455l-0.04-2.409l2.396-0.06l0.071,2.41L35.282,321.455z M27.999,321.434c-0.844-0.021-1.656-0.047-2.427-0.076     l0.091-2.41c0.76,0.029,1.562,0.057,2.395,0.076L27.999,321.434z M40.14,321.3l-0.11-2.408c0.785-0.035,1.581-0.078,2.388-0.128     l0.146,2.406C41.744,321.22,40.938,321.262,40.14,321.3z M23.144,321.246c-0.881-0.048-1.691-0.1-2.428-0.151l0.169-2.404     c0.726,0.05,1.523,0.101,2.392,0.149L23.144,321.246z M44.991,321.004l-0.183-2.404c0.784-0.06,1.579-0.126,2.383-0.197     l0.217,2.401C46.594,320.878,45.785,320.943,44.991,321.004z M18.288,320.898c-1.577-0.142-2.443-0.253-2.443-0.253l0.306-2.393     c0.016,0.002,0.846,0.109,2.355,0.244L18.288,320.898z M49.832,320.564l-0.258-2.397c0.784-0.084,1.579-0.175,2.378-0.271     l0.293,2.392C51.435,320.388,50.627,320.478,49.832,320.564z M54.653,319.976l-0.33-2.389c0.784-0.108,1.573-0.224,2.368-0.348     l0.368,2.383C56.254,319.746,55.452,319.864,54.653,319.976z M59.459,319.227l-0.41-2.375c0.784-0.136,1.566-0.279,2.351-0.43     l0.456,2.368C61.055,318.945,60.253,319.091,59.459,319.227z M64.241,318.311l-0.497-2.359c0.772-0.164,1.55-0.333,2.327-0.515     l0.55,2.348C65.826,317.97,65.031,318.145,64.241,318.311z M68.983,317.214l-0.59-2.336c0.772-0.194,1.54-0.396,2.316-0.607     l0.631,2.328C70.554,316.812,69.768,317.017,68.983,317.214z M73.681,315.931l-0.688-2.311c0.761-0.227,1.521-0.46,2.278-0.701     l0.73,2.296C75.23,315.461,74.455,315.701,73.681,315.931z M78.311,314.444l-0.782-2.278c0.748-0.259,1.494-0.528,2.24-0.804     l0.835,2.26C79.844,313.904,79.078,314.179,78.311,314.444z M82.878,312.741l-0.895-2.237c0.734-0.296,1.466-0.6,2.197-0.914     l0.952,2.214C84.384,312.126,83.633,312.439,82.878,312.741z M87.357,310.806l-1.011-2.187c0.72-0.333,1.432-0.677,2.14-1.029     l1.07,2.161C88.832,310.112,88.095,310.465,87.357,310.806z M91.731,308.628l-1.137-2.126c0.687-0.367,1.372-0.743,2.05-1.133     l1.198,2.091C93.142,307.86,92.44,308.249,91.731,308.628z"/>
			<path style="fill:#FFCA00;" d="M33.903,243.993l2.725,10.502l-5.299,3.56c0,0,20.038,10.928,33.312-6.299l-6.424-0.697     l-0.801-13.845L33.903,243.993z"/>
			<g>
				<polygon style="fill:#FFCA00;" points="42.596,247.849 40.195,247.644 40.312,246.435 42.709,246.684     "/>
				<path style="fill:#FFCA00;" d="M42.973,244.34l-2.397-0.287c0.089-0.715,0.188-1.516,0.305-2.387l2.392,0.324      C43.154,242.847,43.056,243.637,42.973,244.34z M50.156,242.414l-2.137-1.117c0.331-0.63,0.695-1.337,1.084-2.107l2.152,1.087      C50.861,241.059,50.49,241.775,50.156,242.414z M43.599,239.644l-2.384-0.354c0.114-0.763,0.238-1.557,0.372-2.374l2.381,0.389      C43.832,238.11,43.713,238.894,43.599,239.644z M52.323,238.125l-2.169-1.05c0.334-0.686,0.673-1.4,1.017-2.138l2.189,1.015      C53.008,236.701,52.662,237.428,52.323,238.125z M44.371,234.97l-2.375-0.427c0.141-0.777,0.293-1.57,0.45-2.367l2.362,0.474      C44.657,233.431,44.508,234.207,44.371,234.97z M54.351,233.763l-2.206-0.977c0.317-0.711,0.629-1.434,0.93-2.166l2.229,0.925      C54.99,232.293,54.671,233.034,54.351,233.763z M45.297,230.34l-2.354-0.523c0.176-0.787,0.356-1.572,0.554-2.353l2.338,0.582      C45.645,228.807,45.467,229.574,45.297,230.34z M56.201,229.304l-2.252-0.866c0.286-0.736,0.557-1.472,0.812-2.201l2.274,0.795      C56.774,227.784,56.493,228.543,56.201,229.304z M46.435,225.772l-2.321-0.652c0.222-0.79,0.456-1.569,0.701-2.328l2.293,0.739      C46.873,224.261,46.65,225.011,46.435,225.772z M57.791,224.717l-2.304-0.696c0.228-0.763,0.434-1.51,0.607-2.234l2.346,0.564      C58.253,223.119,58.036,223.91,57.791,224.717z M47.867,221.333l-2.256-0.849c0.301-0.796,0.612-1.558,0.94-2.278l2.193,0.994      C48.44,219.874,48.148,220.589,47.867,221.333z M58.92,219.909l-2.384-0.36c0.117-0.779,0.185-1.515,0.185-2.195l2.409,0.005      C59.13,218.148,59.057,219.003,58.92,219.909z M49.776,217.189l-2.082-1.213c0.471-0.811,0.966-1.525,1.465-2.126l1.855,1.544      C50.58,215.911,50.171,216.517,49.776,217.189z M56.471,215.357c-0.188-0.603-0.469-1.034-0.86-1.321l1.42-1.947      c0.82,0.598,1.404,1.459,1.743,2.561L56.471,215.357z M52.477,214.064l-1.268-2.049c0.91-0.564,1.871-0.848,2.856-0.851      l0.018,2.411C53.529,213.576,53.008,213.738,52.477,214.064z"/>
				<polygon style="fill:#FFCA00;" points="48.421,245.622 46.323,244.432 46.896,243.401 49.008,244.559     "/>
			</g>
			<path style="fill:#FFCA00;" d="M33.335,305.562c-1.993,0-3.918-0.044-5.754-0.122l0.304-7.225     c1.738,0.072,3.562,0.115,5.45,0.115l1.585-0.01l0.094,7.23L33.335,305.562z M37.493,305.496l-0.231-7.227     c2.373-0.076,4.723-0.222,6.997-0.436l0.679,7.202C42.515,305.261,40.008,305.416,37.493,305.496z M25.11,305.313     c-2.723-0.162-5.209-0.391-7.397-0.636l0.81-7.188c2.074,0.234,4.434,0.45,7.018,0.604L25.11,305.313z M47.411,304.777     l-0.83-7.185c2.351-0.272,4.673-0.622,6.896-1.042l1.345,7.105C52.426,304.108,49.932,304.486,47.411,304.777z M15.253,304.376     c-4.572-0.6-7.337-1.208-7.452-1.233l1.564-7.061c0.023,0.006,2.602,0.569,6.83,1.126L15.253,304.376z M57.273,303.161     l-1.522-7.069c2.298-0.496,4.555-1.08,6.7-1.735l2.114,6.915C62.225,301.988,59.773,302.623,57.273,303.161z M66.961,300.501     l-2.321-6.848c2.201-0.747,4.35-1.596,6.386-2.52l2.993,6.585C71.765,298.74,69.391,299.678,66.961,300.501z M76.312,296.625     l-3.228-6.47c2.059-1.028,4.044-2.166,5.902-3.383l3.96,6.054C80.85,294.195,78.619,295.473,76.312,296.625z M85.06,291.384     l-4.202-5.889c1.853-1.318,3.611-2.754,5.243-4.268l4.922,5.298C89.166,288.25,87.16,289.884,85.06,291.384z M92.864,284.742     l-5.148-5.081c0.834-0.844,1.644-1.725,2.432-2.643l5.489,4.707C94.74,282.773,93.814,283.779,92.864,284.742z"/>
		</g>
	</g>
</g>















</svg>
