<svg id="Capa_2" enable-background="new 0 0 453.543 453.543" viewBox="0 0 453.543 453.543" xmlns="http://www.w3.org/2000/svg"><g><path d="m294.919 144.435c-5.338-2.478-8.835-7.734-8.835-13.62v-52.106h-118.625v51.889c0 5.867-3.328 11.289-8.653 13.753-55.315 25.593-93.779 81.416-94.104 146.294-.439 87.804 70.358 160.774 158.139 162.852 91.306 2.162 166.002-71.209 166.002-162.025 0-65.159-38.472-121.297-93.924-147.037z" fill="#ff435a"/><path d="m295.343 63.929h-36.468c4.971-6.672 7.949-14.917 7.949-23.877 0-22.12-17.932-40.052-40.053-40.052-22.12 0-40.052 17.932-40.052 40.053 0 8.96 2.978 17.204 7.949 23.877h-36.469c-4.584 0-8.299 3.716-8.299 8.3v38.31 7.7c0 8.49 6.882 15.373 15.372 15.373 8.491 0 15.373-6.883 15.373-15.373 0 8.49 6.883 15.373 15.373 15.373s15.373-6.883 15.373-15.373c0 8.49 6.882 15.373 15.372 15.373 8.491 0 15.373-6.883 15.373-15.373 0 8.49 6.883 15.373 15.373 15.373s15.373-6.883 15.373-15.373c0 8.49 6.882 15.373 15.373 15.373 8.49 0 15.372-6.883 15.372-15.373v-7.7h.016v-38.31c0-4.585-3.716-8.301-8.3-8.301zm-98.078-23.876c0-16.296 13.21-29.506 29.506-29.506s29.507 13.21 29.507 29.506c0 9.831-4.826 18.515-12.219 23.877h-34.574c-7.393-5.363-12.22-14.046-12.22-23.877z" fill="#f9b233"/><path d="m277.381 376.064c-31.272-20.823-57.578-45.778-76.325-78.615-15.686-27.477-27.075-58.476-33.583-89.447-4.344-20.669-7.375-42.039-8.795-63.588-55.246 25.62-93.651 81.405-93.975 146.232-.439 87.804 70.358 160.774 158.139 162.852 45.203 1.07 86.305-16.401 116.313-45.312-21.61-8.859-42.593-19.351-61.774-32.122z" fill="#d61637"/><path d="m161.801 63.929h-3.602c-4.584 0-8.299 3.716-8.299 8.3v46.011c0 5.875 3.297 10.976 8.141 13.564-.801-22.733.295-45.551 3.76-67.875z" fill="#e29820"/><path d="m360.939 306.683c-11.663-5.772-30.199 7.896-41.401 30.53-11.201 22.633-10.826 45.661.836 51.433 11.664 5.772 30.2-7.896 41.401-30.529 11.203-22.634 10.829-45.661-.836-51.434z" fill="#ff94a6"/><path d="m327.374 312.724c.59-.089 1.045-.569 1.086-1.164.326-4.674 1.294-8.064 2.438-8.064 1.143 0 2.111 3.39 2.438 8.064.042.595.496 1.075 1.086 1.164 2.72.413 4.598 1.288 4.598 2.302 0 1.015-1.878 1.89-4.598 2.302-.589.09-1.045.569-1.087 1.165-.326 4.673-1.294 8.063-2.438 8.063-1.143 0-2.111-3.39-2.437-8.063-.042-.596-.497-1.075-1.088-1.165-2.719-.413-4.597-1.288-4.597-2.302s1.879-1.889 4.599-2.302z" fill="#fff"/><path d="m338.647 338.792c.906-.137 1.605-.873 1.668-1.788.502-7.177 1.988-12.383 3.744-12.383s3.242 5.206 3.743 12.383c.064.915.763 1.651 1.669 1.788 4.177.635 7.061 1.979 7.061 3.535 0 1.557-2.883 2.901-7.061 3.535-.905.138-1.604.874-1.667 1.788-.501 7.177-1.987 12.383-3.744 12.382-1.756 0-3.242-5.206-3.744-12.382-.064-.915-.762-1.651-1.669-1.788-4.177-.634-7.06-1.978-7.06-3.535s2.883-2.9 7.06-3.535z" fill="#fff"/><path d="m360.554 295.755c3.642 5.183 10.796 6.432 15.979 2.79s6.432-10.797 2.79-15.98c-3.643-5.183-10.797-6.432-15.98-2.789-5.183 3.642-6.431 10.796-2.789 15.979z" fill="#ff94a6"/><path d="m181.141 119.748c4.062-7.72 5.955-16.782 4.488-25.445-.285-1.682-.756-3.584-2.449-4.378-1.504-.705-2.994-.012-3.803 1.347-1.002 1.682-1.312 3.923-1.65 5.817-.408 2.29-.643 4.614-.687 6.939-.099 5.277.775 10.543 2.535 15.516.366 1.033 2.022.588 1.653-.456-1.655-4.676-2.515-9.578-2.48-14.541.017-2.52.253-5.037.727-7.513.254-1.33.875-6.57 3.112-5.425 1.066.546 1.21 2.087 1.39 3.15.203 1.205.324 2.422.386 3.642.121 2.386.002 4.791-.341 7.155-.675 4.656-2.171 9.167-4.36 13.327-.514.976.965 1.843 1.479.865z"/><path d="m212.088 119.748c4.062-7.72 5.955-16.782 4.487-25.445-.285-1.682-.755-3.584-2.449-4.378-1.503-.705-2.993-.012-3.802 1.347-1.002 1.682-1.312 3.923-1.651 5.817-.408 2.29-.643 4.614-.686 6.939-.1 5.277.775 10.543 2.535 15.516.366 1.033 2.022.588 1.653-.456-1.655-4.676-2.514-9.578-2.48-14.541.017-2.52.253-5.037.727-7.513.254-1.33.874-6.57 3.112-5.425 1.066.546 1.211 2.087 1.39 3.15.203 1.205.324 2.422.386 3.642.121 2.386.002 4.791-.341 7.155-.675 4.656-2.171 9.167-4.36 13.327-.515.976.964 1.843 1.479.865z"/><path d="m243.034 119.748c4.062-7.72 5.955-16.782 4.488-25.445-.285-1.682-.756-3.584-2.449-4.378-1.504-.705-2.994-.012-3.803 1.347-1.002 1.682-1.312 3.923-1.65 5.817-.409 2.29-.643 4.614-.687 6.939-.1 5.277.775 10.543 2.535 15.516.366 1.033 2.023.588 1.653-.456-1.655-4.676-2.515-9.578-2.48-14.541.017-2.52.253-5.037.727-7.513.254-1.33.875-6.57 3.112-5.425 1.066.546 1.21 2.087 1.389 3.15.203 1.205.325 2.422.387 3.642.121 2.386.002 4.791-.341 7.155-.676 4.656-2.171 9.167-4.36 13.327-.515.976.964 1.843 1.479.865z"/><path d="m273.98 119.748c4.062-7.72 5.955-16.782 4.488-25.445-.285-1.682-.756-3.584-2.449-4.378-1.504-.705-2.994-.012-3.803 1.347-1.002 1.682-1.312 3.923-1.65 5.817-.408 2.29-.643 4.614-.687 6.939-.099 5.277.775 10.543 2.535 15.516.366 1.033 2.022.588 1.653-.456-1.655-4.676-2.515-9.578-2.48-14.541.017-2.52.253-5.037.727-7.513.254-1.33.875-6.57 3.112-5.425 1.066.546 1.211 2.087 1.39 3.15.203 1.205.324 2.422.386 3.642.121 2.386.002 4.791-.341 7.155-.675 4.656-2.171 9.167-4.36 13.327-.515.976.964 1.843 1.479.865z"/></g></svg>