<svg id="Layer_1" enable-background="new 0 0 55 55" viewBox="0 0 55 55" xmlns="http://www.w3.org/2000/svg"><g id="_x35_"><g><path d="m27.4847775 36.9291573c4.6337643 0 9.705595.2921677 14.2247143 1.0229607 5.7585487.9312248 7.2048187 1.9822388 7.7560539 2.0724983.2318306.0379601.4815712-.0081406.7070618.0072746.8698311.0594559 1.3209038.53339 1.3273315 1.3304596.0028648.3547401-.098526.7022018-.1493797 1.0473976-.0166626.1130829-.0521812.2117805-.1039696.3142815-.7964363 1.5763054-4.547699 2.5708275-6.2563667 2.9713097-8.5304298 1.9993896-21.9169827 2.1344299-31.1595211.7294312-2.3505058-.3573112-9.621006-1.6362572-10.2071266-3.9514542-.2169394-.8569183-.2084839-1.7623672.524168-2.3895607 1.0301337-.8818588 2.5496287-.5365791 3.579987-.8618546 5.7195201-1.8056031 13.8920684-2.2927437 19.7570472-2.2927437z" fill="#19345d"/></g><g><ellipse cx="27.489" cy="41.061" fill="#095da4" rx="23.908" ry="5.215"/></g><g><ellipse cx="27.489" cy="41.061" fill="#28b6f4" rx="17.792" ry="3.881"/></g><g><g><g><path d="m32.4676361 39.8662949c-4.5217781 4.9534035-16.1539097 5.9174767-22.9000225 2.1000366-2.7199712-1.4899902-4.3999639-3.5800171-4.3999639-5.8900146 0-.2000122 0-.4100342.0499878-.5900269v-.0099487c.2236056-1.7635269 1.3579168-3.2039337 2.7800293-4.3100567v-.0099487c.1299443-.0900269.2599492-.1900024.3999639-.2800293 6.8029604-4.7929306 21.3838768-3.9153938 25.1000347 2.8900127v.0100098c1.1267433 2.0592498.6043434 4.3536605-1.0300293 6.0899658z" fill="#ff9f1c"/></g><g><path d="m33.502636 33.764286c-.7880249 1.7116928-2.3095112 3.0973663-4.0212059 3.9124184-2.3907661 1.1682701-5.1077194 1.4398994-7.7432518 1.6573029-4.9864502.3794479-10.4443064.4439316-14.2912035-2.798542-.5162277-.434639-1.0324554-.9236717-1.7116938-1.0322914-.1630106-.027195-.3532176-.05439-.5162282-.027195.5162282-4.2928333 6.7653546-7.634634 14.3999882-7.634634 6.5749821-.0000001 12.1447034 2.4995517 13.883595 5.9229411z"/></g><g><path d="m33.3185768 33.4465065c0 3.0988083-6.1259003 5.5975227-13.6937656 5.5975227-2.0896053 0-4.3641844-.2098083-6.3588228-.6358986-4.3615875-.9403725-7.3349996-2.8032455-7.3349996-4.9616241 0-1.0478439.716527-2.0509148 1.9703398-2.892786 7.1253304-4.8473854 25.4172482-2.7388516 25.4172482 2.892786z" fill="#f72f43"/></g><g><path d="m33.3189507 33.4508896c0 3.0913277-6.1241341 5.5958176-13.6961269 5.5958176-7.5525274 0-13.6961288-2.5044899-13.6961288-5.5958176 0-1.056633.7239289-2.0545139 1.9760556-2.895834 0 1.7908611 2.8304591 5.0332775 7.3372111 5.3024006 2.6218834.1565628 5.2241802-.7043419 7.5133572-1.9957581 3.5928249-2.039114 3.4610329-3.8370571 3.9327641-5.2044754 3.9914015.9587098 6.6328677 2.739153 6.6328677 4.7936669z" fill="#e2212e"/></g><g><path d="m32.4676361 39.8662949c-4.5217781 4.9534035-16.1539097 5.9174767-22.9000225 2.1000366.0400391-.3800049.1900024-.710022.4900513-.9400024.5099487-.4299927 1.2699585-.4100342 1.9499512-.3600464 5.6199951.4000244 11.3500366 0 16.710022-1.6799927 2.193224-.6379356 4.26581-1.6247253 5.3300152-3.6199951.1438407 1.1518783-.3874932 3.2331009-1.5800172 4.5z" fill="#ffca28"/></g></g><g><g><path d="m27.9270229 28.9953785c-4.6212921 2.2837791-8.7142105 5.7049923-11.7144623 9.8695202-.7930889-.1017609-1.5239277-.1528664-2.9465723-.456768.4119978-.6268768.8508348-1.2448463 1.3165665-1.8359756 2.6175241-3.4373817 5.9541159-6.3728085 9.3679838-8.4455414 1.4718438.1908111 3.0300179.5675868 3.9764843.8687648z" fill="#19345d"/></g></g><g><path d="m27.9270229 28.9953785c-4.6212921 2.2837791-8.7142105 5.7049923-11.7144623 9.8695202-.7930889-.1017609-1.5239277-.1528664-2.9465723-.456768.4119978-.6268768.8508348-1.2448463 1.3165665-1.8359756.967268-.170166 1.8986769-.6985435 2.6688833-1.3254776 1.2449017-1.0209999 2.2569389-2.337513 3.6182213-3.2062759.7433662-.4746437 1.6210957-.8598022 2.0330372-1.6389732.2866001-.5463047.2866001-1.1642742.2955647-1.7912083.2418308-.170166.5015373-.3313694.7522774-.4836063 1.4718437.190811 3.0300178.5675867 3.9764842.8687647z"/></g><g><path d="m22.3535881 36.0054588-7.1733398-3.2470703c-.312295-.1406364-.3935957-.5484619-.1577148-.7978516l2.3720703-2.515625c.1474609-.1552734.3769531-.2001953.5698242-.1123047l7.1728516 3.2470703c.312294.1406364.3935947.5484619.1577148.7978516l-2.371582 2.515625c-.1480962.1570702-.3782121.200306-.5698243.1123047zm-6.1230469-3.8691406 6.2099609 2.8115234 1.6464844-1.7460938-6.2094727-2.8115234z" fill="#f2f8fd"/></g><g><path d="m11.7824917 32.1886864c.3244238.7677116 1.0930395 1.2115326 1.5434418 1.1999092.4432402-.0114365.7471495-.4257736.3625088-1.0579796-.4718103-.7754765-1.3656578-1.1085205-1.6712513-1.0301609-.2416325.0619602-.3683071.3478985-.3382454.5955296s.1752787.4640236.3163347.6697617z" fill="#e2212e"/></g><g><path d="m13.4172964 30.2948818c.1468906.3476009.4949007.5485516.6988316.5432892.1586132-.0040932.2627316-.118885.2410231-.2830429-.0466805-.3530064-.6020727-.7217808-.8335886-.6624146-.1094046.0280533-.1667604.1575184-.1531487.26964.0136108.1121216.079361.2100983.1432276.3032513z" fill="#e2212e"/></g></g><g><path d="m33.2876434 38.7962875c-.2299805.3699951-.5.7300415-.8200073 1.0700073-.4632835-.0881844-1.3967762-.8872375-2.1199932-1.4500122-.1485596-.1155128-.7700195-.5846367-.7700195-.789978-.0999756-.289978.3200073-.3300171.5800171-.3499756.0200195 0 .0499878-.0100098.0700073 0 .827322-.0428314 1.5500259.2244644 2.2299786.6399536.3500366.210022.6900024.4900513.830017.8800049z"/></g><g><g><g><path d="m49.0592079 39.0461655c-2.1988602 3.97118-9.6730766 4.0596886-16.6567764.1927795-3.42342-1.895565-6.1122322-4.3908272-7.6608639-6.9256897-1.6589794-2.6183491-2.11689-5.2649708-.9985142-7.2847767.0947552-.1711292.1989975-.3593922.3356209-.4850883 2.5301952-3.5193501 9.6283607-3.4133911 16.3040695.2829838 5.7513237 3.184536 9.416523 8.0766296 9.2642174 11.9061737.0012398.8547668-.2211418 1.6515121-.5877533 2.3136177z" fill="#ff9f1c"/></g><g><path d="m49.6534691 36.736599c-1.5185509 1.1157417-3.5208435 1.5909729-5.4131241 1.474865-2.6574631-.1360474-5.1659508-1.2145233-7.5769386-2.3009949-4.5461731-2.0835037-9.3521805-4.6709061-11.1469402-9.3710232-.2410774-.6303043-.4558067-1.3081951-.9974194-1.7322464-.1294346-.1027546-.2826614-.2186852-.4384441-.2738552 2.5310898-3.5054951 9.6168842-3.4019356 16.2959957.2963219 5.7520828 3.1849555 9.4139213 8.0696754 9.2768707 11.9069328z"/></g><g><path d="m49.6463814 36.3694344c-2.1137619 3.8174858-13.1701813.524044-19.9463196-5.3729343-3.3601856-2.9354572-5.0590706-6.0055161-4.0135384-7.8937626 2.245966-4.0562477 14.9825058-.0305481 21.3992424 6.7609596 2.3896332 2.4697265 3.4456292 4.9073867 2.5606156 6.5057373z" fill="#f72f43"/></g><g><path d="m49.6445847 36.3734512c-1.4974556 2.7044296-8.068306 1.9289017-14.6926155-1.7390137-6.6072807-3.6584835-10.7687817-8.8255157-9.2713261-11.5299435.5118389-.9243889 1.6285419-1.446703 3.1314964-1.576189-.8675022 1.5667229.038063 5.7744198 3.8504009 8.1929569 2.2178993 1.4070206 4.9115295 1.9144306 7.5397682 1.8935337 4.1309204-.0435238 4.8865547-1.6802826 5.9616318-2.6480503 3.0274468 2.7721768 4.4758606 5.6093274 3.4806443 7.4067059z" fill="#e2212e"/></g><g><path d="m49.0592079 39.0461655c-2.1988602 3.97118-9.6730766 4.0596886-16.6567764.1927795-3.42342-1.895565-6.1122322-4.3908272-7.6608639-6.9256897.2142429-.3063126.5123158-.5214367.882843-.5846424.6536045-.1301994 1.3116055.2565269 1.8823051.6396885 4.7230892 3.0623894 9.9278965 5.4971275 15.4331036 6.621891 2.2209015.4865189 4.5180473.6521149 6.4092789-.588623-.0795631.2243118-.1761589.4391975-.2898903.6445961z" fill="#ffca28"/></g></g><g><g><path d="m47.0857658 29.8636971c-5.1491852-.2406292-10.387104.7697659-15.0291748 2.9597359-.6445351-.4731979-1.2591496-.8719311-2.3565292-1.8269329 4.1364899-2.1728802 9.2756996-3.616993 14.3277359-3.819067 1.1952019.879898 2.3758469 1.9643058 3.0579681 2.686264z" fill="#19345d"/></g></g><g><path d="m47.0857658 29.8636971c-5.1491852-.2406292-10.387104.7697659-15.0291748 2.9597359-.6445351-.4731979-1.2591496-.8719311-2.3565292-1.8269329.6640968-.3488483 1.3473587-.676899 2.0411472-.9684429.9286366.3196812 1.9994221.3086147 2.976923.1332378 1.5836754-.2901802 3.1067734-.951685 4.7185173-1.0523071.880249-.0551453 1.8346977.0330772 2.5725174-.449028.5153618-.3391018.8147087-.8797264 1.1262436-1.4238529.2939949-.0317268.5992813-.0469494.8923874-.0586739 1.1952019.879898 2.3758469 1.9643058 3.0579681 2.686264z"/></g><g><path d="m38.813549 33.297451-4.7021484-6.3164063c-.2038803-.2738972-.0804863-.6690311.2490234-.7753906l3.2939453-1.0517578c.2021484-.0644531.425293.0068359.5527344.1777344l4.7016602 6.3164063c.2037888.273777.0803986.6688805-.2485352.7753906l-3.293457 1.0517578c-.2106628.0654488-.4292488-.0107498-.5532227-.1777344zm-3.4819336-6.3515625 4.0708008 5.4677734 2.2861328-.7304688-4.0703125-5.4677734z" fill="#f2f8fd"/></g><g><path d="m31.4149666 24.8368435c-.0556717.5239353.0980282 1.0672035.4199352 1.484314.5167789.6696186 1.2146206.4403496 1.1787243-.4368954-.037117-.9069691-.6577644-1.6313152-.9630699-1.7107925-.2414036-.0628433-.4907341.125946-.5843887.3571472-.0936546.2311993-.071434.4908524-.0476933.7391701" fill="#e2212e"/></g><g><path d="m33.7625351 23.9719696c-.0252075.2372227.044384.483202.190136.67206.2320442.3006706.5500221.2011623.5336952-.1978149-.0168037-.4106541-.2978172-.7386189-.4360504-.7746048-.1093025-.0284538-.2221947.057024-.2645988.1617069-.0424042.104681-.0323448.2222462-.021595.3346767" fill="#e2212e"/></g></g><g><path d="m21.6545773 21.5476437c-.1334686.4892902-.3647823.9696732-.7473183 1.2721729-.0089054.0177555-.0266609.0266609-.0355663.0355663 0-.0089054.0089054-.0178108.0089054-.0266609.7348881-2.6863403-2.4789162-4.6981678-.7562237-8.4248772.427063-.9430113 1.147665-1.7614613 2.0461521-2.1885233-2.7004738 4.8609839.1792698 6.5450678-.5159492 9.3323222z" fill="#d0dcee"/></g><g><path d="m17.9180965 18.3627338c.2345428.5375061.8227997 1.4847107 1.0231018 2.0283413.2846355.7473183.3291607 1.7170448-.2046528 2.3130856.6864758-1.9408264-1.8787575-3.1132107-2.1884689-5.0887451-.545063-3.0874643 3.0452042-5.0102262 2.2240887-7.2238359-.5004654-1.3341932-2.1050224-1.9685879-3.1760044-2.7489433 1.5844154.4493294 3.2599506.7525349 4.0833969 2.3308411.2224083.4003468.3291607.8807306.3202553 1.3344526 0 2.7573661-3.3231793 4.5533322-2.0817166 7.0548037z" fill="#d0dcee"/></g><g><path d="m21.6901417 21.3429909c-.0633106.5061111-.363966 1.1455574-.7828827 1.4768257-.0089054.0089054-.0178108.0089054-.0266609.0089054.7348881-2.6863403-2.4789162-4.6981678-.7562237-8.4248772.427063-.9430113 1.147665-1.7614613 2.0461521-2.1885233-.2224102.4003468-.4181023.7917891-.5693264 1.1832304-.2491245.1067524-.4359131.3736324-.5693798.6316614-.551569 1.0586681-.7473183 2.2952738-.6405659 3.4873552.1822911 2.0346661 1.1661453 3.5031129 1.2988873 3.8254224z" fill="#a5c0dd"/></g><g><path d="m18.9411983 20.3910751c.2846355.7473183.3291607 1.7170448-.2046528 2.3130856.536747-1.5175076-1.0080032-2.7030258-1.7080841-3.8699474-.9855442-1.6424904-.5008659-3.2081614.5160027-4.8307152.7153034-1.0729551 1.6815491-2.3884106 1.2277012-3.6119184-.5004654-1.3341932-2.1050224-1.9685879-3.1760044-2.7489433.5960407.1690331 1.1920815.3024459 1.7792702.5248547.8184509.720603 1.7436523 1.4679203 1.9838696 2.5354939.5565453 2.4416046-2.6693554 4.4415903-2.1262417 6.8857698.1957493.9074459.8718796 1.5924282 1.4857311 2.3130322.0800361.1601274.1601276.3202551.2224082.4892881z" fill="#a5c0dd"/></g></g></svg>