<svg id="Layer_1" enable-background="new 0 0 55 55" viewBox="0 0 55 55" xmlns="http://www.w3.org/2000/svg"><g id="_x31_5"><g><path d="m19.7756996 17.6694679c-1.3288803-.1134892-2.2704697-1.8461008-1.4874363-3.5412397-1.4069614-.0526295-5.3815432.5559254-9.153677-1.0336666-2.6950722-1.1361151-4.698617-3.2633715-5.3592162-5.6902409-.0720041-.2638535.0836017-.5354385.347455-.6074424.26337-.0729704.5359216.0831184.6074424.347455.5813465 2.1359544 2.3717794 4.0191703 4.7889843 5.0378566 3.8735247 1.6327696 7.6475935.7671661 9.4020662 1.0080547.7103729-.7717466 1.7450066-1.2975197 2.784956-1.398035 3.4026337-.3399162 6.3590832 2.5965824 10.5700741 3.9085064 1.9943657.6219406 3.8712997.6857281 5.429287.1831512 1.3110542-.4223585 2.4031906-1.284956 3.0352821-2.3427849-1.7262993-.5641851-2.2840271-2.0203218-1.6536751-3.1981325.963665-1.8046856 3.9442711-.7011728 3.0517082 2.4447498 1.4516754.0700703 3.0444603-.4383059 4.5343132-1.454092 1.5004845-1.0235186 2.7525787-2.4186554 3.9635963-3.7678823.1831512-.2034473.4962959-.2198777.6987762-.0376935.2034492.1826677.2203598.4953294.037693.6987767-1.2501602 1.3932028-2.5428467 2.8332806-4.1423988 3.9244537-1.7798004 1.2148848-3.7161751 1.7802839-5.476162 1.5995493-1.4033012 2.7036943-4.9473038 4.3991041-9.7731991 2.8951368-4.8491783-1.5123272-8.8327675-5.575202-11.9424992-3.1430426 1.6011257.7359562 2.1375656 2.4132814 1.1153355 3.5750666-.3877047.4397679-.9021414.6343328-1.3787058.5914956zm-.4513531-3.3827343c-.9235249 1.4916916.3064556 3.0229053 1.087307 2.1374035.7103119-.8079595-.0393562-1.8083639-1.087307-2.1374035zm20.6356411-3.4774503c-.158989.2976809-.169136.693944-.0246468.9635963.2561226.4774485.7741623.7277708 1.2173004.8582478.1619606-.5084267.2565193-1.1501617.031414-1.6338606-.2467917-.5322438-.9041136-.783927-1.2240676-.1879835z" fill="#ffca28"/></g><g><g><path d="m8.3405972 26.175169c-.0075407.0080719-.0184155.010004-.0259476.0180473-.4450288.3211803-.9223228.6122341-1.4545107.7583771-.5307488.141386-1.1203036.1161575-1.5949535-.1581478-.7280741-.4265251-1.0131145-1.3240318-1.2066278-2.1481762-.4526877-1.8786583-.7628977-3.8386898-.3978782-5.7326794.36761-1.8913975 1.4889784-3.7092876 3.2856112-4.4931831l4.2706265.8728962c1.2916803.8869133 1.8446913 2.450716 1.5637827 3.8801975-.4933978 2.4802284-2.0413895 5.2683258-4.4401026 7.0026684z" fill="#e2212e"/></g><g><path d="m8.3405972 26.175169c-4.3211384-2.4675045-3.6423683-10.4529524 1.8497601-9.5706768.8901091.139946 1.7280731.4908772 2.5425444.8863716.1386108.5402298.1596212 1.1125927.0477982 1.6816368-.4933979 2.4802284-2.0413896 5.2683258-4.4401027 7.0026684z" fill="#f72f43"/></g><g><path d="m8.3019505 20.2939854c-.318912 0-.3316627-.4774742-.0130472-.4943619.4172277-.0224094.6912823-.3515377.6451349-.6775131-.0808535-.5763435-1.080924-.8657532-1.265625-1.6502914-.1415915-.6026096.2696519-1.1486797.71134-1.4009342.4484539-.2561216.9645624-.3034801 1.4197817-.3450394.1319265-.0077324.2570877.0874672.2691689.2237434.0125647.1362762-.0879507.2566051-.2237434.2691689-.4252577.03866-.8645296.0792522-1.219717.282217-.289465.1647873-.554285.5214233-.4755154.8572807.1379137.581955 1.1552792.8471527 1.2743235 1.6952324.0880404.6240177-.4129858 1.2035484-1.1090527 1.2400131-.0043499.0004845-.0086986.0004845-.0130483.0004845z" fill="#f2f8fd"/></g><g><path d="m6.6874204 21.8195972c-.1295104-.0434913-.1990981-.1841163-.1551228-.3136272.0439758-.1285439.1841178-.197649.3136277-.1551228.7311788.2440853 1.4451303-.4758034 1.1810579-1.2332478-.1922412-.547245-.8445983-.9516964-.8669467-1.695715-.0125647-.4107609.2624035-.8819275.7297039-.9268703.3412623-.0168228.3613334.4627438.047358.4929123-.168653.0159473-.2880154.234375-.2822165.4189758.0092683.3206844.2488275.5973434.4054446.8220043.1652708.2193947.3358574.4460373.4334736.7253551.4005862 1.1482756-.6897244 2.2438642-1.8063797 1.8653356z" fill="#f2f8fd"/></g><g><path d="m9.4871159 24.3588104c.1907606.0016594.3238964-.1918087.3782854-.3746605.2107372-.7084846-.2964773-1.4008427-.5821199-1.4090824-.2949753-.0085087-.4727659.3656731-.4848957.6097126-.0164977.331913.2641191 1.1703339.6887302 1.1740303z" fill="#e2212e"/></g><g><path d="m9.838829 22.1158752c.2231178.0019417.34167-.5343285.017046-.8415165-.0336123-.0318069-.07411-.0612793-.1203642-.0626125-.1495152-.0043125-.2396326.1853485-.2457809.3090458-.0083618.1682377.1338749.5932102.3490991.5950832z" fill="#e2212e"/></g><g><path d="m12.0574598 16.086628c-1.7099714.7470055-3.5295095-.6105242-5.0843434-1.0622902-.255548-.0756388-.516675-.1323214-.7688885-.2018213.2320023-.1577816.4820304-.2896538.7420626-.4031096l4.2706265.8728962c.329361.2261505.6101885.4945402.8405428.7943249z"/></g><g><path d="m11.9046297 16.0465431c-.090395.0967579-.2311106.1374722-.368681.1327515-.3083944-.007637-3.3228245-.9843712-4.0616693-1.2484951-.170877-.0660315-.346499-.1334362-.4727173-.2634296-.3477197-.3489113.0938339-.9456339.3961964-1.3906784.2398224-.3666887.4329948-1.012167 1.2358122-1.2193766.4009457-.1026249.7597218.0241423 1.1564865.0746708.4015026.0519304.7993374.1336536 1.1663542.3194962.4909163.236249.4996738.3257961.7122297.7409229.3089294.6088181.4026527 1.7725945.3539667 2.4207335-.0164204.1598023.0058765.310522-.1179781.4334048z" fill="#095da4"/></g><g><path d="m11.1600657 14.997571c-2.0661297.151228-3.3021874-.6751614-3.6006198-.6848869-.3159904.0064325-.3817892.3286428-.1035986.4891472.1653728.0954132.4296217.1130791.5258327.31003-.4368382-.1554184-.8030014-.2620783-.9801178-.4444914-.3477197-.3489113.0938339-.9456339.3961964-1.3906784.256763-.3925905.3689275-.8459921.9875174-1.1281729-.1086607.2370615.1203737.4377289.3772984.5336981.7876158.294879 1.7095671.2229195 2.4183922.6797781.1368694.09548.0630894.1802254-.0740747.1633444-.8317263-.0763322-1.6552489-.2325993-2.4535601-.4740392-.1798201-.0532236-.3629742-.112586-.5481939-.0953484-.4860311.0330248-.7064128.5700197-.0295181.9691267.919487.5449076 2.0473766.55966 3.0927591.766139.3205518.0784942.2497138.2930423-.0083132.3063537z" fill="#19345d"/></g></g><g><g><path d="m25.6783638 29.067625c-1.6389027.4365864-2.4121799-.6479206-2.8015804-2.3063259-.4526882-1.8786583-.7628975-3.8386898-.3978786-5.7326794.3676109-1.8913975 1.4889793-3.7092876 3.2856121-4.4931831l4.2706261.8728962c1.2916813.8869133 1.8446903 2.4507179 1.5637817 3.8801975-.8372574 4.2087555-4.1259614 7.2862835-5.9205609 7.7790947z" fill="#ff9f1c"/></g><g><path d="m27.158823 28.2911987c-4.2880497-2.4486103-3.6627579-10.4562283 1.8497601-9.5706768.8901081.139946 1.7280731.4908772 2.5425434.8863716.1386108.5402298.1596222 1.1125927.0477982 1.6816368-.4933968 2.4802285-2.0413876 5.2683259-4.4401017 7.0026684z" fill="#ffca28"/></g><g><path d="m27.1205807 22.4101257c-.3189125 0-.3316631-.4774742-.0130482-.4943619.4107552-.0221176.6916237-.3457127.6446533-.6775131-.080843-.5762577-1.0805569-.8664284-1.2656269-1.650774-.1420746-.6026096.2696533-1.1481953.7113419-1.4004517.4484539-.2561207.9645615-.3034801 1.4197807-.3450394.1295109-.0072479.2566051.0874691.2691689.2237453.0125656.1362743-.0879517.2566032-.2237434.2691689-.4252586.0386581-.8645306.0792522-1.219717.2822151-.289465.1647873-.554285.5209408-.4755154.8567982.0637894.2686863.3223267.4832478.5731316.6905613.3063793.2532215.6388531.5610504.7011929 1.0051556.0870323.6227703-.4106865 1.2033958-1.1085701 1.2400131-.0043508.0004826-.0086996.0004826-.0130483.0004826z" fill="#f2f8fd"/></g><g><path d="m25.5060501 23.935257c-.3075733-.1044388-.1553688-.5718136.1585045-.4687519.7260265.2469997 1.4450035-.4742985 1.1805744-1.2327633-.1916428-.5455456-.8446102-.95401-.8669453-1.6957169-.0120811-.4107609.2633686-.8819275.7297039-.9268684.3422604-.0119667.3600426.4628677.0473576.4929123-.1681709.0159473-.2880154.234375-.282217.4194584.0149708.5150051.6266842.9395924.8389187 1.5468769.3986015 1.1414985-.6845246 2.2449779-1.8058968 1.8648529z" fill="#f2f8fd"/></g><g><path d="m28.3053417 26.4748402c.4401855.00383.6740761-1.0541706.0336304-1.6602135-.0663128-.0627518-.1462116-.1208973-.2374649-.1235294-.2949753-.0085087-.4727669.3656731-.4848957.6097126-.0164986.331913.2641201 1.1703338.6887302 1.1740303z" fill="#ff9f1c"/></g><g><path d="m28.6570549 24.231905c.0966911.0008411.1641731-.0972214.1917419-.1899033.1068172-.3591118-.1502762-.7100506-.2950611-.7142258-.1495152-.0043125-.2396317.1853485-.245779.3090458-.0083637.1682377.1338749.5932103.3490982.5950833z" fill="#ff9f1c"/></g><g><path d="m30.8756847 18.2026577c-1.7099705.7470055-3.5295086-.6105232-5.084343-1.0622902-.2555485-.0756378-.516674-.1323204-.7688885-.2018204.2320023-.1577835.4820309-.2896538.7420635-.4031105l4.2706261.8728962c.3293611.2261505.6101876.4945412.8405419.7943249z"/></g><g><path d="m30.7228546 18.1625748c-.090395.096756-.2311096.1374702-.368681.1327496-.2264538-.0056076-.365015-.0822811-1.7152653-.4819336-3.1364517-.980711-3.4653473-.8863354-2.422924-2.4206696.1128101-.1724854.2033577-.3566809.306694-.531971.1913109-.3154726.5513725-.5899076.9291172-.6874046.4009457-.1026258.7597218.0241413 1.1564884.0746698.4015007.0519304.7993355.1336536 1.1663532.3194971.4909153.236248.4996738.3257952.7122288.740922.2919178.5752926.3076534 1.2745409.3660851 1.8581762.0205708.1913586.0018768.3762474-.0121174.5625572-.0164203.1598034.0058766.3105221-.117979.4334069z" fill="#095da4"/></g><g><path d="m29.9782906 17.1136017c-2.0661297.151226-3.302187-.6751614-3.6006184-.6848869-.3159904.0064316-.3817902.3286419-.1035995.4891472.1653728.0954132.4296227.1130791.5258331.31003-1.2250214-.4358387-1.4755898-.5227318-.5839214-1.8351707.2567635-.3925896.368927-.8459921.9875164-1.1281729-.1086597.2370625.1203747.4377289.3772984.533699.7876167.294879 1.709568.2229185 2.4183922.6797771.1368694.09548.0630894.1802263-.0740738.1633453-.8317261-.076333-1.6552486-.2325993-2.4535599-.4740391-.179821-.0532246-.3629742-.112587-.5481949-.0953493-.4860306.0330257-.7064114.5700207-.0295162.9691277.9194851.5449066 2.0473747.55966 3.0927582.7661381.3205508.0784931.2497138.2930431-.0083142.3063545z" fill="#19345d"/></g></g><g><g><path d="m45.3263321 27.9377041c-.1915512.5143108-.4266663 1.0215034-.787941 1.4387131-1.1200447 1.2736206-2.3655548.8015919-3.6107826-.3608856-1.4202232-1.3104382-2.7672005-2.7676964-3.5160789-4.5452271-.745285-1.7768154-.8230324-3.9113293.2351761-5.5613518l4.0357246-1.6471577c1.544838.0194244 2.886776.991869 3.4561424 2.3572083 1.8334961 4.4257278.2046356 8.2164059.1877594 8.3187008z" fill="#018e9a"/></g><g><path d="m45.3378754 27.9082813c-4.9637375.3494244-8.83638-6.667038-3.7798576-8.9851055.8178215-.3782196 1.7095146-.5520477 2.6064377-.6757717.4154167.3721447.7509079.8363476.9741173 1.3715992.9678763 2.3362751 1.2299994 5.514492.1993026 8.289278z" fill="#00c6c5"/></g><g><path d="m41.7025795 22.9827747c-.0816689-.1096973-.0594406-.2648201.0497742-.346489.3319283-.2481518.3817711-.6728764.1599541-.9215527-.3862-.4339561-1.3810196-.1209602-1.9697189-.6692982-.4523201-.4223576-.4136581-1.1042213-.1865311-1.5599232.2319565-.4639187.6345024-.7891426.9892082-1.0757084.1067963-.0860195.2624016-.0691051.3479385.036726.0860176.1063137.0695877.2624035-.0367279.3479385-.3160439.2551537-.6736488.5446205-.8577652.9123707-.1483574.2976818-.1705856.7413025.0811844.9766445.4372368.4069748 1.4319839.0636177 2.0016136.7016754.7169724.803076-.2381935 2.0542052-.5789299 1.5976164z" fill="#f2f8fd"/></g><g><path d="m41.2401085 25.0307789c-.035759-.1319275.0425262-.2677193.1744537-.3029976.7428093-.2004395.9383316-1.1977692.2967148-1.6817017-.4648781-.350584-1.2285614-.3199024-1.6628571-.927351-.4908829-.6900234.1302872-1.5198517.4392738-1.1414318.0865021.1058311.0710373.2614365-.0347939.3479385-.1304779.1072807-.1087303.3556709-.0014496.5059605.3016243.4218712 1.0452461.4338226 1.5575066.8195877.9656258.7280159.6778145 2.2465782-.4658508 2.5544472-.1310424.035738-.2676887-.0419121-.3029975-.1744518z" fill="#f2f8fd"/></g><g><path d="m45.2818909 25.7610664c.1595268-.1046124.1627197-.3394413.1063423-.5216885-.2184448-.7061481-1.0248566-.9999676-1.2669258-.8481045-.2499771.1568241-.189888.5667152-.0643768.7763557.1707076.2851297.869873.8262941 1.2249603.5934373z" fill="#018e9a"/></g><g><path d="m44.328064 23.7008076c.0808563-.0530243.0824776-.1720543.0539017-.2644291-.1107254-.3579273-.519474-.506855-.64217-.4298801-.1267052.0794888-.0962486.2872524-.0326309.3935127.0865249.1445236.4409141.4188251.6208992.3007965z" fill="#018e9a"/></g><g><path d="m42.8226357 17.455183c-1.0066566 1.5711994-3.2737579 1.4535103-4.8175049 1.9418201-.2544975.0791035-.5031013.1770668-.7514153.2594223.1052246-.2600937.2398338-.5086594.3929901-.7474728l4.0357246-1.6471577c.3994942.0050222.7821122.0721323 1.1402055.1933881z"/></g><g><path d="m42.6732941 17.506773c-.0458336.2799339-.3494492.3876705-.599514.4653969-.9613609.2876244-2.2191277.6781902-3.1814728.9372101-1.2606812.3182964-1.517292.3852768-1.5051727-1.2013626-.0020447-.2060909-.0291061-.4095478-.0405846-.6127052-.0162277-.3685913.1306496-.7968254.3905449-1.0877762.2763367-.3081045.6450691-.4020557 1.0030251-.5805016.3626747-.1799116.7388535-.3330154 1.1472588-.3824282.5394287-.0763464.5964661-.0067606 1.003849.2202835.5951347.3345356 1.3196907 1.2500544 1.6393433 1.8159857.075138.1419888.1774215.2549114.142723.4258976z" fill="#095da4"/></g><g><path d="m41.4713974 17.048336c-1.6338081 1.2737465-3.1206703 1.2734604-3.3741951 1.4311943-.2591515.1809235-.1348267.4853783.1856499.4642525.1905098-.012558.4200287-.1446953.6094551-.0344028-1.2606812.3182964-1.517292.3852768-1.5051727-1.2013626-.0046539-.4690762-.1633263-.9083691.1941986-1.4866924.0413742.2574768.3432999.2970562.6102371.2340927.8186874-.1924572 1.5452423-.764555 2.3884239-.7785568.046814.0009356.0997925.0051594.1176872.0460901.0222931.0550823-.0349007.1038656-.0885162.1308765-.7339325.3986712-1.5054588.726325-2.3033485.9691553-.1790771.0556622-.3643417.1080723-.5087624.2253189-.385746.297514-.270607.8664379.5139389.8221588 1.0672569-.057848 2.0132103-.6722775 2.997097-1.0814552.3101273-.1128483.3704414.1048946.1633072.2593307z" fill="#19345d"/></g></g><g><path d="m15.4008589 32.6056862c-.2454901-.1193619-.3484221-.4155922-.2295427-.6615677 2.9634094-6.1109867-1.1434603-14.2799835 1.3323135-18.3638916.1420746-.2338924.4460373-.3068628.6799297-.1667213.2338924.1420755.3083115.4465218.1667194.6799297-2.1931763 3.6144629 1.7978954 11.9118185-1.2878551 18.282711-.1181316.2436047-.4126034.3488331-.6615648.2295399z" fill="#ffca28"/></g><g><path d="m33.2375298 36.7635498c-.1353111-.2377586-.0517082-.5397911.1855659-.674614 1.0017738-.5687828 1.3487434-1.8725853 1.3414955-2.8163681-.008091-1.0955963-.3486595-2.1671352-.7543488-3.5760326-1.1462631-4.1438484-1.3231316-8.5660477-.5107918-12.7881832.0521889-.2677193.3116951-.4416885.5794144-.3928795.2686844.0517063.4441032.3112106.3928795.5794125-.7838287 4.0737782-.6137238 8.3398895.4924278 12.3377972.3828468 1.3299026.7803268 2.5748291.7901115 3.8321533.0096626 1.2699738-.4692345 2.9048004-1.8421402 3.6842804-.2358779.1341552-.5391539.0536499-.6746138-.185566z" fill="#ffca28"/></g><g><g><path d="m12.8495188 46.0845413c-.5307484.1413879-1.1203032.1161575-1.5949526-.1581459-.728075-.4265289-1.0131149-1.3240356-1.2066278-2.1481781-.4526882-1.8786583-.7628984-3.8386917-.3978786-5.7326813.36761-1.8913956 1.4889784-3.7092857 3.2856112-4.4931793l4.2706261.8728943c1.2916813.8869133 1.8446922 2.4507179 1.5637836 3.8801956-.8372575 4.2087555-4.1259624 7.2862854-5.9205619 7.7790947z" fill="#095da4"/></g><g><path d="m14.329978 45.3081169c-4.2781048-2.4429321-3.6800709-10.4590111 1.8497591-9.5706787.89011.139946 1.7280731.4908791 2.5425453.8863716.1386108.5402336.1596203 1.1125946.0477982 1.6816368-.4933987 2.4802284-2.0413895 5.2683296-4.4401026 7.0026703z" fill="#28b6f4"/></g><g><path d="m14.2913218 39.4272079c-.3189125 0-.3316631-.4774742-.0130472-.4943619.4169941-.0223961.6903181-.3514137.6451359-.6775131-.080842-.5762596-1.0805559-.8664284-1.265626-1.6507721-.1420746-.6026115.2691689-1.1486816.7113409-1.4009361.4508696-.2570877.966012-.3034782 1.4202642-.3445549.13241-.0130501.2566042.0879517.2686853.2242279.0120811.1362724-.0879507.2561188-.224226.2686844-.4039955.0367279-.862114.0778008-1.2192345.2817345-.289465.1647873-.554285.5214233-.4755154.8572807.0637884.2686844.3223257.4832458.5731316.6905594.3063793.2532234.6388531.5610504.7011929 1.0051575.086298.6175079-.4052143 1.2021141-1.1090536 1.2400131-.0043497.0004806-.0086984.0004806-.0130481.0004806z" fill="#f2f8fd"/></g><g><path d="m12.6767912 40.9523392c-.3085947-.1047859-.1540413-.5721512.1585054-.46875.7289886.2444267 1.4455986-.4739799 1.1810579-1.2327652-.19135-.5485344-.8445063-.9505157-.8669472-1.6957169-.0125637-.410759.2624035-.8824081.7297049-.9273529.3439569-.0142326.3591862.4629517.0473576.4929123-.1686535.0159492-.2880154.2348595-.2822161.4194603.0149794.5162888.6288757.9442673.8389177 1.5473595.3991728 1.143135-.686613 2.2444343-1.8063802 1.8648529z" fill="#f2f8fd"/></g><g><path d="m15.4764967 43.4917564c.1907606.0016594.3238964-.1918068.3782845-.3746567.2107382-.7084885-.2964773-1.4008446-.5821199-1.4090843-.2949753-.0085106-.4727659.3656731-.4848957.6097107-.0164968.331913.26412 1.1703339.6887311 1.1740303z" fill="#095da4"/></g><g><path d="m15.8282089 41.2488213c.0966911.000843.1641741-.0972214.1917419-.1899033.1068172-.3591118-.1502762-.7100487-.2950602-.7142258-.1495152-.0043106-.2396317.1853485-.24578.3090477-.0083617.1682358.133875.5932083.3490983.5950814z" fill="#095da4"/></g><g><path d="m18.0468407 35.219574c-1.7099724.7470055-3.5295095-.6105232-5.0843439-1.0622902-.2555485-.0756378-.516675-.1323204-.7688885-.2018204.2320023-.1577797.4820299-.2896538.7420626-.4031067l4.2706261.8728943c.3293609.2261505.6101894.4945412.8405437.794323z"/></g><g><path d="m17.8940105 35.179493c-.1936493.2072754-.5059433.1281509-.7570438.0538292-2.7388592-.8424797-3.8753014-1.1541862-4.1460238-1.4330063-.3477201-.3489113.0938339-.9456329.3961964-1.3906784.1128092-.1724854.2033587-.356678.306695-.5319691.1913099-.3154736.5513706-.5899086.9291162-.6874065.4009466-.1026249.7597227.0241432 1.1564875.0746708.4015026.0519314.7993374.1336536 1.1663532.3194962.4909172.2362499.4996738.3257961.7122307.7409229.2919178.5752945.3076515 1.2745399.3660831 1.8581772.0205727.1913567.0018787.3762474-.0121174.5625572-.0164203.1598014.0058766.3105201-.1179771.4334068z" fill="#f72f43"/></g><g><path d="m17.1494465 34.1305199c-2.0661306.151226-3.3021879-.6751633-3.6006203-.6848869-.3159904.0064316-.3817892.32864-.1035986.4891472.1653728.0954132.4296217.1130791.5258331.3100281-.4368391-.1554184-.8030024-.2620773-.9801178-.4444923-.3477201-.3489113.0938339-.9456329.3961964-1.3906784.2567625-.3925896.368927-.8459911.9875174-1.1281719-.1086617.2370625.1203728.4377289.3772984.533699.7876148.294878 1.7095661.2229176 2.4183922.6797771.1368694.0954819.0630894.1802254-.0740757.1633453-.8317261-.0763321-1.6552477-.2326012-2.4535599-.474041-.1798191-.0532227-.3629732-.1125832-.548193-.0953484-.4860315.0330276-.7064133.5700226-.0295181.9691277.919487.5449066 2.0473766.5596619 3.0927582.76614.3205527.078495.2497138.2930412-.0083123.3063545z" fill="#e2212e"/></g></g><g><g><path d="m36.808567 43.7693481c-1.3604202 2.4428978-3.0845757 3.5087852-3.1782837 3.6088409-.4450302.3211823-.9223213.612236-1.4545097.7583809-.5307503.1413841-1.1203041.1161575-1.5949554-.1581497-.7280731-.4265251-1.0131149-1.3240318-1.2066269-2.1481743-.4526882-1.8786583-.7628975-3.8386917-.3978786-5.7326813.3676109-1.8913956 1.4889793-3.7092857 3.2856121-4.4931831l4.2706261.8728981c1.2736282.8745155 1.8490257 2.4286575 1.5637817 3.8801956-.2320519 1.1664811-.7173195 2.3712808-1.2877656 3.4118729z" fill="#b73f9e"/></g><g><path d="m33.6562309 47.3601456c-4.3211384-2.4675064-3.6423683-10.4529533 1.8497581-9.5706787.89011.139946 1.7280731.4908791 2.5425453.8863716.1386108.5402298.1596222 1.1125946.0477982 1.6816368-.4933967 2.4802284-2.0413894 5.2683258-4.4401016 7.0026703z" fill="#f990e8"/></g><g><path d="m33.6178436 41.4790802c-.1309586 0-.2401733-.1024513-.2469368-.234375-.0072517-.1362762.0971298-.252739.2338905-.2599907.4187927-.0224915.6902618-.352787.645134-.6775131-.0809174-.5747261-1.0822601-.8686676-1.265625-1.6512566-.1420746-.6021271.2691689-1.1477127.7108574-1.3999672.4484558-.2561226.9645615-.3034782 1.4197807-.3450394.1328964-.009182.2570915.0879517.2691727.2237434.0125618.1362762-.0879517.2566032-.2237473.2691689-.4252548.038662-.8645287.0792542-1.2197151.2822189-.2894669.1647873-.5538025.5209389-.4750328.8567963.1369171.5821609 1.1550407.8477821 1.2743225 1.6957169.0864449.6185417-.4057999 1.2020874-1.1090508 1.2400131-.0043486.0004845-.0086974.0004845-.01305.0004845z" fill="#f2f8fd"/></g><g><path d="m32.003315 43.0042076c-.3100243-.1052704-.1522064-.5738602.1585045-.46875.7284698.2453117 1.4449005-.4735031 1.1805763-1.2327652-.1905479-.5449638-.8438377-.9584732-.8669472-1.6952324-.0251083-.8546066.9541473-1.1818085.9998398-.7045746.0130463.1362762-.0869865.2570877-.2227783.270134-.1681709.0159492-.2880173.234375-.2822151.4194603.0159683.5149727.6270103.939476.8389168 1.546875.1778336.5083771.0492897 1.1090546-.3194275 1.4951706-.3711777.3897057-.9654465.5457039-1.4864693.3696823z" fill="#f2f8fd"/></g><g><path d="m34.8027496 45.5437851c.1907616.0016594.3238945-.1918106.3782845-.3746605.2107391-.7084846-.2964783-1.4008446-.582119-1.4090805-.2949753-.0085106-.4727669.3656731-.4848976.6097107-.0164948.331913.264122 1.1703339.6887321 1.1740303z" fill="#b73f9e"/></g><g><path d="m35.1544609 43.3008499c.0966911.000843.1641769-.0972214.1917419-.1899033.1068192-.3591118-.1502762-.7100487-.2950592-.7142258-.1495132-.0043106-.2396317.1853485-.2457809.3090477-.0083618.1682359.1338768.5932084.3490982.5950814z" fill="#b73f9e"/></g><g><path d="m37.3730927 37.2716026c-1.7099724.7470055-3.5295105-.6105232-5.084343-1.0622902-.2555466-.0756378-.516674-.1323204-.7688885-.2018204.2320023-.1577835.4820309-.2896538.7420635-.4031105l4.2706261.8728981c.329361.2261506.6101875.4945412.8405419.794323z"/></g><g><path d="m37.2202644 37.2315178c-.0903969.0967598-.2311134.1374741-.3686829.1327515-.2264519-.0056076-.3650169-.0822792-1.7152634-.4819336-1.6763573-.5241661-2.5842552-.7880974-2.8191223-1.0299911-.3477192-.3489113.0938339-.9456329.3961945-1.3906784.2567635-.3925896.368927-.845993.9875183-1.1281738.4999428-.2480507.9439125-.075222 1.4047813-.0165329.4015045.0519333.7993393.1336555 1.1663551.3194962.4909172.2362518.4996719.325798.7122307.7409248.2919159.5752907.3076515 1.2745399.3660812 1.8581772.0205727.1913567.0018806.3762436-.0121155.5625572-.0164221.1598014.0058748.31052-.117977.4334029z" fill="#095da4"/></g><g><path d="m36.4757004 36.1825447c-2.0661316.1512299-3.3021889-.6751595-3.6006203-.6848831-.1138954.0023155-.2460289.0661469-.2735062.1763725-.0316811.1244431.060009.2493668.1699066.3127708.1653748.0954132.4296227.1130791.5258331.3100319-.4368401-.1554184-.8030014-.2620773-.9801178-.4444923-.3477192-.3489113.0938339-.9456329.3961945-1.3906784.2567635-.3925896.368927-.845993.9875183-1.1281738-.1086617.2370644.1203728.4377289.3773003.533699.7876129.2948799 1.7095642.2229195 2.4183922.6797791.1368675.0954781.0630875.1802254-.0740776.1633453-.8317261-.0763321-1.6552467-.2326012-2.4535599-.474041-.1798172-.0532227-.3629723-.112587-.5481911-.0953484-.4860306.0330276-.7064133.5700226-.0295181.9691277.919487.5449066 2.0473747.5596581 3.0927582.76614.3205528.0784912.2497139.2930412-.0083122.3063507z" fill="#19345d"/></g></g></g></svg>