<svg id="Layer_1" enable-background="new 0 0 1417.3 1417.3" height="512" viewBox="0 0 1417.3 1417.3" width="512"
     xmlns="http://www.w3.org/2000/svg" xmlns:xlink="http://www.w3.org/1999/xlink">
    <linearGradient id="SVGID_1_" gradientUnits="userSpaceOnUse" x1="163.036" x2="1254.287" y1="708.661" y2="708.661">
        <stop offset="0" stop-color="#ebebec"/>
        <stop offset="1" stop-color="#fbfcfc"/>
    </linearGradient>
    <g>
        <path d="m1250.3 649.8c-2.1-19.8-1.8-9.9-4.7-25.7-5-8.4-7.4-13.9-13.4-21.4l-1.6-3.2c-4.4-8.6-8.1-12.5-14.5-21.3-7.5-5.4-12.1-9.7-21-14.3l-2.3-1.8c-8-6.5-13.4-8.8-22.3-13.9-43.3-8.8-41.6-13.6-98.6.6-10.6 6.1-14.6 8.4-20.3 13-1.3.7-7.5 3.6-14.8 9.4l-8.1 6c-34.4 47.6-19.5 27.9-27.2 38.9-9.2 35.2-3 15.3-7.6 30.3-41.5-1.3-72.4 17.1-88.4 45l35.9-172.3-.3-.1 17.6-84.6c12.3-4.1 23.6-10.1 33.6-18.6l21.5-11.3c9.3-65.7 38.8-32.2-88.4-349.2-13.3-33.5-45.5-55.3-81.8-55.3-23.4 0-45.4 9-62.1 25.5-153.3 151.1-210.2 214.6-212.9 248.7 0 .1-.3 2-.3 1.8-4 24.2 2.4 49.4 18 69.5 3.9 5 8.3 9.7 13.2 14.2l-30.1 144.5-57.3-168c-3.9-4.4-19.4-42.5-71.1-50.8-7.2-42-42.5-132.4-155.9-119.4-10 .8-15.1 2.9-25.5 5.4-8 5-102.3 54.1-73.2 169.5 4.8 8.1 7.2 13.7 13.4 21.4-33.9 29.2-43.7 68.1-32 102.1l129.6 378.3c9.2 26.7 30.5 47.1 58.6 56 11.2 3.5 23.4 5.2 37.2 5.2 32.6 0 70.5-9.7 96.6-17.8l-7.6 36.4c-3.7 17.6 1.9 35.9 14.7 48.6 5.8 9.5 13.5 18.3 22.9 26 .4.3.8.6 1.2 1-3.2 51.3 19.6 101.3 18.4 121.7-1.8 30.4 35.5 80.2 62.8 96.6l-21 124.9c9.2 45.5 49.9 76.2 95.6 76.2 45.6 0 83.7-30.3 92.8-73.7l30.2-145c19.5 12.8 43.3 25.5 69.7 36.9 27.4 11.9 79.6 31.8 121 31.8 12.9 0 24.5-1.8 35.4-5.5 24.4-8.3 43.3-25.5 53.2-48.5l156.7-362.1 2.5-4.1 2.4-7.9c9.3-27.9 4.4-59.7-16.5-86.3 1.2-1.7 2.3-3.5 3.3-5.3 6.3-7.1 8.6-11.7 14.6-20.8 2.4-9 4.9-15 6-25.4 0-.1 1.4-4.2 1.3-3.9 3-9.4 3.2-14.8 4.9-25.7-1.7-10.3-1.9-14.8-4-22.2z"
              fill="none"/>
        <g>
            <g>
                <g>
                    <g>
                        <g>
                            <g>
                                <path d="m902 1160.5c-51.6-22.3-89.6-49.5-84.8-60.6l158.8-367.1 187 80.9-158.8 367.1c-4.8 11.2-50.5 2.1-102.2-20.3z"
                                      fill="#ef3e4a"/>
                                <path d="m902 1160.5c-51.6-22.3-89.6-49.5-84.8-60.6l158.8-367.1 187 80.9-158.8 367.1c-4.8 11.2-50.5 2.1-102.2-20.3z"
                                      fill="#f04b5b"/>
                                <g>
                                    <path d="m1154 825.7c-10.8 2.9-35.3-1.6-65.1-11.9-20.9 83.9-89.2 311.1-216.7 323.7 10 5.4 21.1 10.7 32.9 15.8 43.3 18.7 82.3 28.1 96.7 24.1z"
                                          fill="#ef3e4a"/>
                                </g>
                                <ellipse cx="1069.6" cy="773.3" fill="#e02c3f" rx="22" ry="101.9"
                                         transform="matrix(.397 -.918 .918 .397 -64.919 1447.831)"/>
                                <path d="m1075.8 758.9c-47.1-20.4-89.3-29.7-100-22.7 2.2 12.6 37.8 36.9 85 57.3 47.1 20.4 89.3 29.7 100 22.7-2.2-12.6-37.9-36.9-85-57.3z"
                                      fill="#b2203d"/>
                                <ellipse cx="1069" cy="774.5" fill="#911932" rx="4.2" ry="19.5"
                                         transform="matrix(.397 -.918 .918 .397 -66.334 1448.078)"/>
                            </g>
                            <path d="m1019.3 889.5c-51.6-22.3-89.6-49.5-84.8-60.6l-84.5 195.2c-4.8 11.1 33.1 38.3 84.8 60.6s97.4 31.4 102.2 20.3l84.5-195.3c-4.8 11.2-50.6 2.1-102.2-20.2z"
                                  fill="#f7941d"/>
                            <path d="m1033.4 1104.5 80.9-186.9c-9.4 2.6-29.4-.6-54.1-8.2-22.2 62.5-55 134.2-99.8 180.5 33.3 12.1 61.2 17.8 73 14.6z"
                                  fill="#ee8622"/>
                            <path d="m1049.9 905.9c-10.3-3.5-21.1-7.7-32.3-12.5-41.9-18.1-74.8-39.4-83.1-52.8l-80.9 186.9c8.3 13.3 41.2 34.6 83.1 52.8 4.5 1.9 8.9 3.8 13.3 5.5 44.8-46 77.6-117.4 99.9-179.9z"
                                  fill="#f9a341"/>
                            <path d="m1136.5 699.8c.8-14.3-7-28.7-14.6-32-1.3-.6-2.9 0-3.4 1.4-.6 1.3 0 2.9 1.4 3.4 5.1 2.2 12.2 14 11.4 26.8-.5 9.1-5.3 21.2-24.7 27-34.5 10.3-39.7 38.1-40.5 46.6 1 .5 1.9.9 3 1.4.7.3 1.4.6 2.1.9 0-2.8 1.4-33.2 36.9-43.8 23.5-7 27.9-22.8 28.4-31.7z"
                                  fill="#aa713d"/>
                            <path d="m1136.5 699.8c.8-14.3-7-28.7-14.6-32-.4-.2-.8-.2-1.2-.2 6.9 4.7 13.4 17.7 12.6 30.7-.5 8.8-4.9 24.7-28.4 31.7-35.5 10.6-36.9 41.1-36.9 43.8-.2-.1-.3-.1-.5-.2.5.2 1 .5 1.6.7l2.1.9c0-2.8 1.4-33.2 36.9-43.8 23.5-6.9 27.9-22.7 28.4-31.6z"
                                  fill="#9e5e29"/>
                        </g>
                        <path d="m1053.7 995.4c-14.9-9.3-24.2-15.1-40.1-25.3-.9-.6-1.6-1.7-1.6-2.8-.6-19-.9-30-1.3-47.6-.1-2.8-3.4-4.4-5.6-2.5-13.5 11.2-22.1 18.2-36.8 30.1-.9.7-2.1 1-3.2.6-18.1-5.4-28.6-8.6-45.3-13.9-2.7-.8-5.2 1.8-4.2 4.4 6 16.7 9.9 27.1 16.6 45 .4 1 .2 2.3-.4 3.2-10.9 15.7-17.2 24.8-27.4 39.3-1.6 2.3.1 5.5 2.9 5.4 17.9-.7 29-1.2 48.2-2.2 1.1-.1 2.2.5 2.9 1.3 11.8 15.2 18.6 23.9 29.8 37.9 1.7 2.2 5.3 1.4 6-1.3 4.4-17.2 7.1-27.9 11.8-46.4.3-1.1 1.1-2 2.2-2.4 17.9-6.6 28.3-10.5 44.8-16.8 2.7-.9 3-4.5.7-6z"
                              fill="#ffe3a4"/>
                        <g>
                            <path d="m984.4 1061.2c1.6 2 3.2 4.1 5 6.3.2.3.4.4.7.6.5.2 1.1.2 1.6-.1.4-.2.8-.5 1-1.2 2.8-11 4.9-19.4 7.3-28.8-4.9 8-10.1 15.8-15.6 23.2z"
                                  fill="#f4d38f"/>
                            <path d="m1030.3 982.6c-5.1 10.9-10.6 21.6-16.4 32.1 14.3-5.3 24.1-9 38.6-14.5.7-.3 1.1-.9 1.2-1.6s-.3-1.4-.9-1.8c-8.6-5.5-15.3-9.7-22.5-14.2z"
                                  fill="#f4d38f"/>
                            <g>
                                <path d="m1053.8 998.5c.1-.7-.3-1.4-.9-1.8-8.6-5.3-15.4-9.6-22.6-14.1-.3.6-.8 1.7-.8 1.7 6.9 4.4 14.6 8.9 22.7 13.9.5.3.8.9.8 1.5.4-.3.7-.7.8-1.2z"
                                      fill="#e5bf7e"/>
                            </g>
                        </g>
                        <path d="m957.7 1028.1c.8.3 1.5.9 1.9 1.5 7.1 9.1 12.4 15.9 17.9 22.9 16.5-23 30.9-49.1 43.5-75.8-2.6-1.6-5.3-3.4-8.2-5.2-1.4-.9-2.2-2.4-2.3-4-.6-19-.9-30-1.3-47.6 0-.8-.5-1.4-1.2-1.7s-1.4-.2-2 .3c-13.5 11.2-22.1 18.2-36.8 30.2-1.2 1-3 1.4-4.5.9-18.1-5.4-28.6-8.6-45.3-13.9-.7-.2-1.4 0-2 .5-.5.5-.7 1.3-.4 2 6 16.7 9.9 27 16.6 44.9.6 1.5.3 3.2-.6 4.6-10.9 15.7-17.2 24.8-27.4 39.3-.5.6-.4 1.3-.3 1.6.2.6.6 1 1.1 1.3.3.1.5.2.8.2 17.9-.7 29-1.2 48.1-2.2.9-.3 1.7-.1 2.4.2z"
                              fill="#ffe7b8"/>
                        <g>
                            <ellipse cx="992.4" cy="942.1" fill="#fff" rx="6.4" ry="3.5"
                                     transform="matrix(.773 -.635 .635 .773 -372.469 844.336)"/>
                        </g>
                        <g fill="#fff">
                            <path d="m1013.7 973.8c2.4 1.5 4.5 2.9 6.6 4.2.2-.5.5-.9.7-1.4-2.6-1.6-5.3-3.4-8.2-5.2-.5-.3-.9-.8-1.3-1.2.1 1.4.9 2.8 2.2 3.6z"/>
                            <path d="m906.6 1029.3c10.2-14.6 16.5-23.6 27.4-39.3.9-1.3 1.1-3.1.6-4.6-6.7-17.9-10.6-28.3-16.6-44.9-.3-.7-.1-1.4.4-2 .5-.5 1.3-.7 2-.5 16.7 5.3 27.2 8.5 45.3 13.9 1.6.5 3.3.1 4.5-.9 14.7-12 23.2-19 36.8-30.2.6-.5 1.3-.6 2-.3.1 0 .2.1.2.2 0-.3 0-.6 0-.9 0-.8-.5-1.4-1.2-1.7s-1.4-.2-2 .3c-13.5 11.2-22.1 18.2-36.8 30.2-1.2 1-3 1.4-4.5.9-18.1-5.4-28.6-8.6-45.3-13.9-.7-.2-1.4 0-2 .5-.5.5-.7 1.3-.4 2 6 16.7 9.9 27 16.6 44.9.6 1.5.3 3.2-.6 4.6-10.9 15.7-17.2 24.8-27.4 39.3-.5.6-.4 1.3-.3 1.6.2.6.6 1 1.1 1.2.1-.1.1-.3.2-.4z"/>
                        </g>
                    </g>
                    <g>
                        <path d="m941.5 830.8c.9 6.5 28.7 29.3 80.7 51.8 11.3 4.9 21.9 8.9 31.5 12.2 11.4-33.4 19.7-63.5 25-84.7-7-2.6-14.1-5.5-21.4-8.6-41.9-18.1-74.8-39.4-83.1-52.8l-33.6 77.6c.5 2.7.9 4.5.9 4.5z"
                              fill="#f16378"/>
                        <path d="m956.6 826.9 22.6-52.2c18.9 14.8 47.3 29.7 72.3 40.5 3.2 1.4 6.4 2.7 9.7 4-4.2 15.5-65-32.6-104.6 7.7z"
                              fill="#f37f97"/>
                        <ellipse cx="983.8" cy="790.6" fill="#fff" rx="5.8" ry="6.4"
                                 transform="matrix(.397 -.918 .918 .397 -132.452 1379.533)"/>
                        <path d="m931.9 1091.5c-25.4-11-48.5-23.5-64.9-35.3-8.4-6-14.6-11.4-18.7-16.4l-26.3 60.7c5.3 8.5 20.7 20.3 42 32.4 28.4-3.3 53.9-17.3 76.5-37.9-2.9-1-5.8-2.2-8.6-3.5z"
                              fill="#f16378"/>
                        <path d="m839.3 1098 14.4-33.2c1.5 1.1 3.1 2.3 4.7 3.5 14.1 10.1 32.9 20.7 53.7 30.5-14.8 10-67.7 4.1-72.8-.8z"
                              fill="#f37f97"/>
                    </g>
                </g>
                <g>
                    <g>
                        <g>
                            <g>
                                <path d="m478.1 804c-53.2 18.2-99.6 23.7-103.5 12.2l-129.6-378.3 192.8-66 129.6 378.4c3.9 11.4-36.1 35.5-89.3 53.7z"
                                      fill="#ef3e4a"/>
                                <path d="m478.1 804c-53.2 18.2-99.6 23.7-103.5 12.2l-129.6-378.3 192.8-66 129.6 378.4c3.9 11.4-36.1 35.5-89.3 53.7z"
                                      fill="#f04b5b"/>
                                <g>
                                    <path d="m439.1 386.8c-6 9.4-27.2 22.6-56.1 35.1 41 76.1 143.4 290.1 57.6 385.2 11-2.8 22.8-6.3 35-10.4 44.6-15.3 79.8-34.6 87.7-47.3z"
                                          fill="#ef3e4a"/>
                                </g>
                                <ellipse cx="341.4" cy="404.9" fill="#e02c3f" rx="101.9" ry="22"
                                         transform="matrix(.946 -.324 .324 .946 -112.8 132.497)"/>
                                <path d="m336.3 390c-48.6 16.6-86 38.1-89.2 50.5 10.1 7.8 52.8 1.8 101.4-14.8s86-38.1 89.2-50.5c-10.1-7.8-52.8-1.9-101.4 14.8z"
                                      fill="#b2203d"/>
                                <ellipse cx="341.8" cy="406.1" fill="#911932" rx="19.5" ry="4.2"
                                         transform="matrix(.946 -.324 .324 .946 -113.178 132.701)"/>
                            </g>
                            <path d="m382.4 524.6c-53.2 18.2-99.6 23.7-103.5 12.2l69 201.3c3.9 11.5 50.3 6 103.5-12.2s93.2-42.3 89.3-53.8l-69-201.3c3.9 11.5-36.1 35.5-89.3 53.8z"
                                  fill="#f7941d"/>
                            <path d="m537.5 674.1-66-192.7c-5.3 8.2-22.1 19.3-45.5 30.3 25.7 61.2 49.7 136.3 47.7 200.6 32.8-13.2 57.3-27.9 63.8-38.2z"
                                  fill="#ee8622"/>
                            <path d="m416.1 516.2c-10 4.3-20.8 8.5-32.3 12.5-43.2 14.8-81.8 21.2-97 16.9l66 192.7c15.1 4.2 53.8-2.2 97-16.9 4.6-1.6 9.1-3.2 13.5-4.9 2.1-64.2-21.6-139.1-47.2-200.3z"
                                  fill="#f9a341"/>
                            <path d="m341.4 305.5c-9-11.2-24.5-16.5-32.3-13.8-1.4.5-2.1 2-1.6 3.3.5 1.4 2 2.1 3.3 1.6 5.2-1.8 18.5 2.1 26.5 12.1 5.7 7.1 10.4 19.2-.1 36.6-18.6 30.9-3.7 54.9 1.4 61.8 1-.3 2.1-.6 3.1-1 .7-.3 1.4-.5 2.1-.8-1.8-2.1-21.3-25.5-2.2-57.3 12.8-21 5.4-35.7-.2-42.5z"
                                  fill="#aa713d"/>
                            <path d="m341.4 305.5c-9-11.2-24.5-16.5-32.3-13.8-.4.1-.7.4-1 .7 8.3-1.2 21.8 4.1 30 14.3 5.6 6.9 13 21.6.3 42.6-19.1 31.7.4 55.2 2.2 57.3-.2.1-.3.1-.5.2.6-.2 1.1-.3 1.7-.5.7-.3 1.4-.5 2.1-.8-1.8-2.1-21.3-25.5-2.2-57.3 12.7-21.2 5.3-35.9-.3-42.7z"
                                  fill="#9e5e29"/>
                        </g>
                        <path d="m479.1 579.8c-17.3 3.2-28.1 5.1-46.7 8.3-1.1.2-2.3-.2-3.1-1-13.2-13.6-20.9-21.6-33-34.3-2-2.1-5.4-.9-5.8 1.9-2.5 17.4-4.1 28.3-6.9 47-.2 1.1-.9 2.1-1.9 2.6-17 8.2-26.9 12.9-42.8 20.2-2.5 1.2-2.6 4.8-.2 6.1 15.7 8.3 25.5 13.4 42.6 22.1 1 .5 1.7 1.5 1.9 2.6 2.5 18.9 4 29.9 6.2 47.5.4 2.8 3.8 4 5.8 2 12.8-12.6 20.6-20.4 34.1-34.1.8-.8 2-1.2 3.1-1 18.9 3.3 29.9 5.2 47.6 8 2.8.4 4.9-2.5 3.6-5-8.4-15.7-13.6-25.4-22.5-42.3-.5-1-.5-2.2 0-3.2 8.8-17 13.9-26.8 21.8-42.6 1.1-2.4-1-5.3-3.8-4.8z"
                              fill="#ffe3a4"/>
                        <g>
                            <path d="m472.2 675.1c2.5.4 5.1.8 8 1.3.3.1.6 0 .9-.1.5-.2 1-.6 1.2-1.2.1-.4.2-.9-.1-1.6-5.3-10-9.4-17.6-14-26.2 1.6 9.4 3 18.6 4 27.8z"
                                  fill="#f4d38f"/>
                            <path d="m453.2 586c3.5 11.5 6.7 23.1 9.5 34.7 7-13.6 11.8-22.8 18.8-36.7.3-.7.3-1.4-.2-2s-1.2-.9-1.9-.7c-10 1.8-17.8 3.3-26.2 4.7z"
                                  fill="#f4d38f"/>
                            <g>
                                <path d="m481.3 582c-.5-.6-1.2-.9-1.9-.7-10 1.9-17.8 3.3-26.2 4.8.2.6.5 1.8.5 1.8 8.1-1.5 16.7-3.3 26.2-5 .6-.1 1.2.1 1.7.6 0-.6 0-1.1-.3-1.5z"
                                      fill="#e5bf7e"/>
                            </g>
                        </g>
                        <path d="m430.1 668.6c.8-.3 1.6-.3 2.5-.2 11.3 2 19.8 3.4 28.6 4.9-3.3-28.1-10.2-57.1-18.9-85.3-3 .5-6.2 1.1-9.6 1.7-1.6.3-3.3-.3-4.4-1.4-13.2-13.6-20.9-21.6-33-34.3-.5-.6-1.3-.7-2-.5s-1.2.8-1.3 1.5c-2.5 17.4-4.1 28.3-6.9 47.1-.2 1.6-1.3 3-2.8 3.7-17 8.2-26.9 12.9-42.8 20.3-.7.3-1.1.9-1.1 1.7s.4 1.4 1 1.8c15.7 8.3 25.5 13.3 42.5 22.1 1.4.7 2.4 2.2 2.7 3.8 2.5 18.9 4 29.9 6.2 47.5.1.8.6 1.2.9 1.4.5.3 1.1.4 1.7.2.3-.1.5-.2.7-.5 12.7-12.5 20.6-20.4 34.1-34 .5-.9 1.2-1.3 1.9-1.5z"
                              fill="#ffe7b8"/>
                        <g>
                            <ellipse cx="398" cy="581.6" fill="#fff" rx="6.4" ry="3.5"
                                     transform="matrix(.144 -.99 .99 .144 -234.884 891.701)"/>
                        </g>
                        <g fill="#fff">
                            <path d="m435 590.7c2.8-.5 5.3-.9 7.7-1.3-.1-.5-.3-1-.4-1.5-3 .5-6.2 1.1-9.6 1.7-.6.1-1.2.1-1.8-.1 1.1 1 2.6 1.5 4.1 1.2z"/>
                            <path d="m393.2 703.8c-2.3-17.6-3.7-28.6-6.2-47.5-.2-1.6-1.2-3-2.7-3.8-17-8.7-26.9-13.8-42.5-22.1-.7-.3-1-1-1-1.8s.4-1.4 1.1-1.7c15.9-7.4 25.8-12.1 42.8-20.3 1.5-.7 2.5-2.1 2.8-3.7 2.8-18.8 4.4-29.7 6.9-47.1.1-.7.6-1.3 1.3-1.5h.3c-.2-.2-.4-.4-.6-.6-.5-.6-1.3-.7-2-.5s-1.2.8-1.3 1.5c-2.5 17.4-4.1 28.3-6.9 47.1-.2 1.6-1.3 3-2.8 3.7-17 8.2-26.9 12.9-42.8 20.3-.7.3-1.1.9-1.1 1.7s.4 1.4 1 1.8c15.7 8.3 25.5 13.3 42.5 22.1 1.4.7 2.4 2.2 2.7 3.8 2.5 18.9 4 29.9 6.2 47.5.1.8.6 1.2.9 1.4.5.3 1.1.4 1.6.2-.1-.2-.2-.3-.2-.5z"/>
                        </g>
                    </g>
                    <g>
                        <path d="m285.4 533.6c5 4.2 40.9 2.4 94.6-16 11.7-4 22.2-8.1 31.5-12.2-14-32.4-28.2-60.2-38.5-79.4-6.9 2.8-14.1 5.5-21.6 8-43.2 14.8-81.8 21.2-97 16.9l27.4 80c2.1 1.6 3.6 2.7 3.6 2.7z"
                              fill="#f16378"/>
                        <path d="m293.9 520.6-18.4-53.8c23.9-1.7 55-9.9 80.7-18.7 3.3-1.1 6.6-2.3 9.9-3.5 7.3 14.1-70.1 19.5-72.2 76z"
                              fill="#f37f97"/>
                        <ellipse cx="289.6" cy="475.4" fill="#fff" rx="6.4" ry="5.8"
                                 transform="matrix(.946 -.324 .324 .946 -138.44 119.513)"/>
                        <path d="m453.7 732.9c-26.2 9-51.7 15.2-71.8 17.6-10.2 1.2-18.5 1.4-24.8.4l21.5 62.6c9.7 2.7 28.9 1.1 52.9-4.3 18.8-21.5 28.2-49 31.1-79.5-3 1.1-5.9 2.2-8.9 3.2z"
                              fill="#f16378"/>
                        <path d="m389.6 800-11.7-34.2c1.9-.2 3.8-.4 5.8-.6 17.3-2 38.3-6.8 60.3-13.6-4.2 17.3-47.3 48.5-54.4 48.4z"
                              fill="#f37f97"/>
                    </g>
                </g>
                <g>
                    <g>
                        <g>
                            <g>
                                <path d="m675.1 1335.5-3.9-.8c-6.8-1.4-11.1-8-9.7-14.8l155-743.2 28.4 5.9-155 743.2c-1.4 6.8-8 11.2-14.8 9.7z"
                                      fill="#e18026"/>
                                <path d="m835.8 580.7-81.4 390.5c-5.2 1-12 1.5-20.4 1.5l-2 9.8c2.7 0 5.2-.1 7.6-.2 6.2-.3 11.6 4.3 10.7 9l-67.9 325.7c-1 4.6-5 8.4-10.9 9.4-4 .7-7.2-.2-10-1.5 1 5 6.4 9.5 13.5 10.4 7.5 1 13.8-3 15-8.5l155.2-744.3z"
                                      fill="#ce6d28"/>
                                <g>
                                    <path d="m732.2 990.7-69.1 331.3c-.1.7-.1 1.4-.1 2.1.2 0 .4.1.6.2 7.8 1.6 15.2-1.7 16.3-7.4l66.7-319.8c.7-3.5-3.3-6.9-8-6.7-1.9.2-4.1.3-6.4.3z"
                                          fill="#ef8e40"/>
                                </g>
                                <ellipse cx="704.4" cy="1161.9" fill="#fbb585" rx="99.4" ry="3.4"
                                         transform="matrix(.204 -.979 .979 .204 -576.856 1614.344)"/>
                            </g>
                            <g>
                                <g>
                                    <path d="m838.8 83.6c-35 34.5-185.5 183.9-190 205.7l146.5 30.5 146.5 30.5c4.6-21.8-73.7-218.9-92-264.5-1.8-4.4-7.5-5.6-11-2.2z"
                                          fill="#fccf07"/>
                                    <path d="m849.8 85.9c-1.8-4.5-7.6-5.7-11-2.3 8.3 20.6 14.6 58.9 18.6 96.7 5.3 49.5-37.4 90.5-86.7 83.7-47.4-6.5-99.1-6.5-116.1 19.4-1.2 1.9-3 3.2-5.2 4.2-.3.6-.5 1.3-.6 1.8l146.5 30.5 146.5 30.5c4.6-21.8-73.7-218.9-92-264.5z"
                                          fill="#ecbf1d"/>
                                    <g>
                                        <path d="m762.4 254.6c49.3 6.7 92-34.2 86.7-83.7-3-28.5-7.4-57.2-12.9-78.5-70.6 69.8-125.6 126.9-156.2 161.9 23.3-5.1 53.6-3.6 82.4.3z"
                                              fill="#fedb45"/>
                                    </g>
                                    <ellipse cx="810.5" cy="147.1" fill="#fff" rx="20.2" ry="12.7"
                                             transform="matrix(.456 -.89 .89 .456 310.088 801.437)"/>
                                    <g>
                                        <path d="m941.8 350.4c-3.1 14.9-71.2 13.2-152.1-3.7s-144-42.6-140.9-57.4c3.1-14.9 72.3-18.7 153.2-1.8s142.9 48 139.8 62.9z"
                                              fill="#f7941d"/>
                                    </g>
                                    <path d="m800.5 295.1c-59-12.3-108.9-12-111.6.8-2.5 11.9 4.2 23.7 15.7 27.8 23.5 8.3 52.9 16.4 85.1 23.1s62.4 11 87.3 12.8c12.1.9 23-7.3 25.5-19.2 2.6-12.8-43-33-102-45.3z"
                                          fill="#e18026"/>
                                    <path d="m799.2 301.1c-55.1-11.5-101.7-11.2-104.2.7l-129.7 622 199.5 41.6 129.7-622c2.5-11.9-40.2-30.8-95.3-42.3z"
                                          fill="#ccd0d3"/>
                                    <path d="m799.2 301.1c-55.1-11.5-101.7-11.2-104.2.7l-129.7 622 199.5 41.6 129.7-622c2.5-11.9-40.2-30.8-95.3-42.3z"
                                          fill="#f04b5b"/>
                                    <path d="m799.2 301.1c-12.2-2.5-23.9-4.5-34.9-5.9 37.4 11 62.9 24.5 61 33.7l-102.6 492.3c-14.9 71.7-85.2 117.7-156.8 102.7l198.9 41.5 129.7-622c2.5-11.9-40.2-30.8-95.3-42.3z"
                                          fill="#ef3e4a"/>
                                    <path d="m799.2 301.1c-2.2-.5-4.3-.9-6.4-1.3 51.9 11.6 91.2 29.5 88.9 40.9l-129.7 622.1 12.8 2.7 129.7-622c2.5-12-40.2-30.9-95.3-42.4z"
                                          fill="#dd3242"/>
                                    <g>
                                        <path d="m709.9 818.6 102.6-492.2c1.8-8.7-20.8-21.3-54.7-31.8-35.3-3.8-61-1.4-62.8 7.3l-129.6 621.3c67.2 7.6 130.4-37.1 144.5-104.6z"
                                              fill="#f16378"/>
                                    </g>
                                    <ellipse cx="665" cy="944.6" fill="#dd3242" rx="22" ry="101.9"
                                             transform="matrix(.204 -.979 .979 .204 -395.45 1402.857)"/>
                                    <g fill="#c42437">
                                        <ellipse cx="665" cy="944.6" rx="9.8" ry="45.4"
                                                 transform="matrix(.204 -.979 .979 .204 -395.45 1402.857)"/>
                                        <path d="m669.5 923.1c-49.8-10.4-92.7-11.1-102.2-2.3 18.8-2.5 51.1-.1 87.1 7.4 55.1 11.5 97.7 30.4 95.3 42.3-.2 1.1-1 2.1-2 3 10-1.3 16.2-4 17.1-8.1 2.5-11.8-40.2-30.8-95.3-42.3z"/>
                                    </g>
                                </g>
                                <g fill="#d0e3ee">
                                    <path d="m860.7 505.5 12.3-58.9-212.1 18.8-12.3 58.9z"/>
                                    <path d="m673.3 405.9 212.1-18.9 9.1-43.6c.8-4-3.6-8.9-11.8-13.9l-197 17.5z"/>
                                    <path d="m836 623.9 12.3-58.9-212.1 18.9-12.3 58.9z"/>
                                    <path d="m811.3 742.4 12.3-58.9-212.1 18.8-12.3 58.9z"/>
                                    <path d="m786.6 860.8 12.3-58.9-212.1 18.9-12.3 58.9z"/>
                                </g>
                                <g fill="#bfd6e2">
                                    <path d="m836 623.9 12.3-58.9-73.5 6.6-12.3 58.8z"/>
                                    <path d="m885.4 387 9.1-43.6c.8-4-3.6-8.9-11.8-13.9l-58.5 5.2-12.3 58.9z"/>
                                    <path d="m860.7 505.5 12.3-58.9-73.5 6.5-12.3 58.9z"/>
                                    <path d="m786.6 860.8 12.3-58.9-73.5 6.5-2.7 12.8c-3.6 17.3-10.5 33.2-19.8 47z"/>
                                    <path d="m811.3 742.4 12.3-58.9-73.5 6.5-12.3 58.9z"/>
                                </g>
                                <g fill="#eff9fe">
                                    <path d="m810.5 335.9-124.9 11.1-12.3 58.9 125-11.1z"/>
                                    <path d="m785.8 454.3-124.9 11.1-12.3 58.9 125-11.1z"/>
                                    <path d="m709.9 818.6 1.9-8.9-124.9 11.1-12.3 58.9 112.7-10c10.7-14.8 18.6-32.1 22.6-51.1z"/>
                                    <path d="m736.4 691.2-124.9 11.1-12.3 58.9 125-11.1z"/>
                                    <path d="m761.1 572.8-124.9 11.1-12.3 58.9 125-11.1z"/>
                                </g>
                            </g>
                        </g>
                        <g>
                            <path d="m624.2 1126.3c-1.4 1.2-3.4.1-3.3-1.7 2.8-46.2-23.1-84.2-18-124.6 2.1-17.2 9.6-30.5 18.7-40.5 25.6-28.4 71.6-16.4 79.4 21 2 9.6 2.5 20.8.5 33.6-8 49.6-62.5 99.5-77.3 112.2z"
                                  fill="#f7941d"/>
                            <path d="m701.4 1014.1c2-12.8 1.5-24-.5-33.6-4.2-20-19.2-32.6-36.2-35.8 10.6 68.5-40.5 181.6-40.5 181.6 14.8-12.7 69.3-62.6 77.2-112.2z"
                                  fill="#ee8622"/>
                            <path d="m665.5 944.7c-3.9-.8-13.9-1.7-22.4 7.6-7.4 8.2-11.6 17.3-12.9 28-2 16 2.5 32.7 7.7 52 2.1 7.8 4.3 15.9 6.2 24.5 19.5-21.8 35.8-46.7 39.3-68.8 1.4-9 1.3-17.6-.3-25.3-1.9-9.4-8.5-16.1-17.6-18z"
                                  fill="#fccf07"/>
                            <path d="m683.4 988.1c1.4-9 1.3-17.6-.3-25.3-1.7-8-6.8-14.1-13.9-16.9-1.5-.5-3-.9-4.6-1.2 4.6 29.9-2.5 68.3-12 102.1 15.6-19.3 27.9-40 30.8-58.7z"
                                  fill="#e9bd1f"/>
                        </g>
                    </g>
                    <g>
                        <ellipse cx="734.1" cy="369.2" fill="#fff" rx="19.3" ry="10.7"
                                 transform="matrix(.981 -.193 .193 .981 -57.354 148.233)"/>
                    </g>
                    <g>
                        <ellipse cx="684.7" cy="606.1" fill="#fff" rx="19.3" ry="10.7"
                                 transform="matrix(.981 -.193 .193 .981 -103.884 143.155)"/>
                    </g>
                </g>
            </g>
            <g>
                <path d="m1171.6 671.6c-3.3-6.5-38.5-2-47.6-.7 0-.2 0-.3-.1-.5 22.5-8.8 48.3-13.2 44.5-16.6-5.5-4.9-36.6 11.9-44.6 16.4-.1-.2-.2-.4-.3-.5 17-17.2 38.7-31.7 33.8-33.3-7-2.3-28.5 25.8-34.1 33.1-.2-.1-.3-.3-.5-.3 8.7-22.5 22.8-44.5 17.6-44-7.3.7-15.8 35-18 44-.2 0-.3-.1-.5-.1-.2-24.1 5-49.8.4-47.4-6.5 3.3-2 38.2-.7 47.4-.2 0-.4 0-.6.1-9.4-22.2-14.5-47.8-17.9-43.9-4.7 5.6 12.8 36 17.6 44-.2.1-.3.2-.5.3-17.1-16.9-31.6-38.6-33.2-33.7-2.3 6.9 25.5 28.4 33 34-.1.1-.2.3-.3.4-22-9.9-43.1-25.3-42.8-20.1.3 7.3 33.8 17.7 42.8 20.4-.1.2-.1.4-.1.6-24.1.1-49.7-5-47.3-.4 3.3 6.5 38.1 2 47.4.7 0 .2 0 .4.1.5-22.5 8.7-48.2 13.1-44.3 16.6 5.4 4.9 36.3-11.8 44.5-16.3.1.2.2.4.4.5-16.9 17.2-38.7 31.6-33.7 33.2 7 2.3 28.4-25.6 34-33.1.2.1.3.2.5.3-8.7 22.5-22.8 44.5-17.6 44 7.3-.7 15.8-34.9 18-43.9.1 0 .3.1.4.1h.1c.2 24.1-5 49.8-.4 47.4 6.5-3.3 2-38.4.7-47.5.2 0 .4-.1.5-.1 9.4 22.2 14.5 47.9 17.9 44 4.8-5.6-12.9-36.3-17.6-44.1.2-.1.3-.2.4-.3 17.2 17 31.7 38.8 33.3 33.8 2.3-7-25.8-28.6-33.2-34.1.1-.1.2-.2.3-.4 22 9.9 43.2 25.3 43 20.2-.3-7.3-34.2-17.9-42.9-20.5.1-.2.1-.4.1-.6 24.1-.2 49.8 5 47.5.4z"
                      fill="#fccf07"/>
                <path d="m1171.6 671.6c-3.3-6.5-38.5-2-47.6-.7 0-.2 0-.3-.1-.5 22.5-8.8 48.3-13.2 44.5-16.6-5.5-4.9-36.6 11.9-44.6 16.4-.1-.2-.2-.4-.3-.5 17-17.2 38.7-31.7 33.8-33.3-7-2.3-28.5 25.8-34.1 33.1-.2-.1-.3-.3-.5-.3 8.7-22.5 22.8-44.5 17.6-44-7.3.7-15.8 35-18 44-.2 0-.3-.1-.5-.1-.2-24.1 5-49.8.4-47.4-6.5 3.3-2 38.2-.7 47.4-.2 0-.4 0-.6.1-9.4-22.2-14.5-47.8-17.9-43.9-4.7 5.6 12.8 36 17.6 44-.2.1-.3.2-.5.3-17.1-16.9-31.6-38.6-33.2-33.7-2.3 6.9 25.5 28.4 33 34-.1.1-.2.3-.3.4-22-9.9-43.1-25.3-42.8-20.1.3 7.3 33.8 17.7 42.8 20.4-.1.2-.1.4-.1.6-24.1.1-49.7-5-47.3-.4 3.3 6.5 38.1 2 47.4.7 0 .2 0 .4.1.5-22.5 8.7-48.2 13.1-44.3 16.6 5.4 4.9 36.3-11.8 44.5-16.3.1.2.2.4.4.5-16.9 17.2-38.7 31.6-33.7 33.2 7 2.3 28.4-25.6 34-33.1.2.1.3.2.5.3-8.7 22.5-22.8 44.5-17.6 44 7.3-.7 15.8-34.9 18-43.9.1 0 .3.1.4.1h.1c.2 24.1-5 49.8-.4 47.4 6.5-3.3 2-38.4.7-47.5.2 0 .4-.1.5-.1 9.4 22.2 14.5 47.9 17.9 44 4.8-5.6-12.9-36.3-17.6-44.1.2-.1.3-.2.4-.3 17.2 17 31.7 38.8 33.3 33.8 2.3-7-25.8-28.6-33.2-34.1.1-.1.2-.2.3-.4 22 9.9 43.2 25.3 43 20.2-.3-7.3-34.2-17.9-42.9-20.5.1-.2.1-.4.1-.6 24.1-.2 49.8 5 47.5.4z"
                      fill="#fccf07"/>
                <g fill="#f16378">
                    <g>
                        <path d="m1110.1 638.3c-3-9.2-5.2-15.1-7-13.1-1.8 2.2-.3 8.1 2.5 15 1.5-.7 3-1.3 4.5-1.9z"/>
                        <path d="m1095.1 648.8c1-1.2 2.2-2.4 3.4-3.5-6.3-7.4-10.6-12-11.4-9.4-.9 2.7 2.7 7.6 8 12.9z"/>
                        <path d="m1087.1 674.3c-.1-1-.2-2-.2-3.1 0-.6.1-1.2.1-1.7-9.7-.7-16-1-14.8 1.4 1.3 2.5 7.4 3.4 14.9 3.4z"/>
                        <path d="m1089 659.5c.5-1.5 1.2-3 1.9-4.4-8.5-4.7-14.1-7.5-14-4.9.1 2.8 5.3 6.1 12.1 9.3z"/>
                        <path d="m1155.2 660.4c9.3-2.8 15.2-4.8 13.2-6.6-2.1-1.9-8.1-.5-15.1 2.1.8 1.4 1.4 2.9 1.9 4.5z"/>
                        <path d="m1136.3 639.3c4.2-8.7 6.7-14.5 4.1-14.2-2.8.3-5.8 5.6-8.6 12.5 1.5.5 3 1.1 4.5 1.7z"/>
                        <path d="m1147.8 647.8c7.4-6.3 12-10.6 9.4-11.4-2.7-.9-7.6 2.8-12.9 8.1 1.3.9 2.5 2.1 3.5 3.3z"/>
                        <path d="m1121.9 636.2c.6 0 1.2.1 1.7.1.7-9.7 1-16-1.4-14.8-2.5 1.3-3.4 7.4-3.4 14.8 1 0 2.1-.1 3.1-.1z"/>
                        <path d="m1133.7 704.2c3 9.2 5.2 15.1 7 13.1 1.8-2.2.3-8.1-2.5-15-1.5.7-3 1.3-4.5 1.9z"/>
                        <path d="m1154.9 683c-.5 1.5-1.2 3-1.9 4.4 8.5 4.7 14.1 7.5 14 4.9-.2-2.8-5.4-6.2-12.1-9.3z"/>
                        <path d="m1148.8 693.7c-1 1.2-2.2 2.4-3.4 3.5 6.3 7.4 10.6 12 11.4 9.4.9-2.7-2.8-7.6-8-12.9z"/>
                        <path d="m1171.6 671.6c-1.3-2.5-7.4-3.4-14.8-3.4.1 1 .2 2 .2 3.1 0 .6-.1 1.2-.1 1.7 9.6.7 15.9 1 14.7-1.4z"/>
                        <path d="m1088.7 682.1c-9.3 2.8-15.2 4.8-13.2 6.6 2.1 1.9 8.1.5 15.1-2.1-.8-1.5-1.4-3-1.9-4.5z"/>
                        <path d="m1121.9 706.2c-.6 0-1.2-.1-1.7-.1-.7 9.7-1 16 1.4 14.8 2.5-1.3 3.4-7.4 3.4-14.8-1 .1-2 .1-3.1.1z"/>
                        <path d="m1096 694.7c-7.4 6.3-12 10.6-9.4 11.4 2.7.9 7.6-2.8 12.9-8.1-1.3-1-2.4-2.1-3.5-3.3z"/>
                        <path d="m1107.5 703.1c-4.2 8.7-6.7 14.5-4.1 14.2 2.8-.3 5.8-5.6 8.6-12.5-1.5-.4-3-1-4.5-1.7z"/>
                    </g>
                    <path d="m1136.7 678.5c.4-.7.6-1.5.9-2.3-5.8-2-10.9-3.6-13.6-4.4.1-.2.1-.4.1-.6 4.8 0 9.6.1 14.3.4 0-.1 0-.3 0-.4 0-.7-.1-1.4-.2-2.1-6.1.6-11.4 1.3-14.2 1.7 0-.2 0-.3-.1-.5 4.5-1.7 9-3.3 13.5-4.7-.3-.8-.6-1.5-1-2.2-5.5 2.7-10.2 5.3-12.6 6.7-.1-.2-.2-.4-.3-.5 3.4-3.4 6.9-6.7 10.4-9.8-.6-.6-1.2-1.1-1.8-1.6-3.9 4.7-7.1 9-8.8 11.2-.2-.1-.3-.3-.5-.3 1.7-4.5 3.6-8.9 5.6-13.2-.7-.3-1.5-.5-2.3-.7-1.7 5.9-2.9 11-3.6 13.8-.2 0-.3-.1-.5-.1 0-4.8.1-9.6.4-14.2-.1 0-.3 0-.4 0-.7 0-1.4.1-2.1.2.6 6 1.3 11.3 1.7 14.1-.2 0-.4 0-.6.1-1.9-4.4-3.5-8.9-5.1-13.3-.8.3-1.5.7-2.2 1.1 2.9 5.3 5.5 9.9 7 12.3-.2.1-.3.2-.5.3-3.4-3.3-6.6-6.8-9.7-10.3-.6.6-1.1 1.2-1.6 1.8 4.7 3.8 8.9 7 11.1 8.7-.1.1-.2.3-.3.4-4.3-2-8.6-4.1-12.7-6.3-.4.7-.6 1.5-.9 2.3 5.7 2 10.7 3.5 13.5 4.3-.1.2-.1.4-.1.6-4.7 0-9.5-.1-14.2-.4v.4c0 .7.1 1.4.2 2.1 6-.6 11.2-1.3 14.1-1.7 0 .2 0 .4.1.5-4.4 1.7-8.9 3.3-13.3 4.7.3.8.6 1.5 1 2.2 5.4-2.7 10-5.2 12.5-6.6.1.2.2.4.4.5-3.3 3.4-6.9 6.7-10.3 9.7.6.6 1.2 1.1 1.8 1.6 3.8-4.7 7-8.9 8.8-11.2.2.1.3.2.5.3-1.7 4.5-3.6 8.9-5.6 13.1.7.3 1.5.5 2.3.7 1.6-5.8 2.9-11 3.6-13.8.1 0 .3.1.4.1h.1c0 4.8-.1 9.6-.4 14.3h.4c.7 0 1.4-.1 2.1-.2-.6-6.1-1.3-11.4-1.7-14.2.2 0 .4-.1.5-.1 1.9 4.4 3.6 8.9 5.1 13.4.8-.3 1.5-.7 2.2-1.1-2.9-5.4-5.6-10-7-12.5.2-.1.3-.2.4-.3 3.4 3.4 6.7 6.9 9.8 10.4.6-.6 1.1-1.2 1.6-1.8-4.7-3.9-9-7.1-11.3-8.8.1-.1.2-.2.3-.4 4.4 2.2 8.7 4.4 12.8 6.6z"/>
                </g>
            </g>
            <g>
                <path d="m359.7 294.1c-3.3-6.5-38.5-2-47.6-.7 0-.2 0-.3-.1-.5 22.5-8.8 48.3-13.2 44.5-16.6-5.5-4.9-36.6 11.9-44.6 16.4-.1-.2-.2-.4-.3-.5 17-17.2 38.7-31.7 33.8-33.3-7-2.3-28.5 25.8-34.1 33.1-.2-.1-.3-.3-.5-.3 8.7-22.5 22.8-44.5 17.6-44-7.3.7-15.8 35-18 44-.2 0-.3-.1-.5-.1-.2-24.1 5-49.8.4-47.4-6.5 3.3-2 38.2-.7 47.4-.2 0-.4 0-.6.1-9.4-22.2-14.5-47.8-17.9-43.9-4.7 5.6 12.8 36 17.6 44-.2.1-.3.2-.5.3-17.1-16.9-31.6-38.6-33.2-33.7-2.3 6.9 25.5 28.4 33 34-.1.1-.2.3-.3.4-22-9.9-43.1-25.3-42.8-20.1.3 7.3 33.8 17.7 42.8 20.4-.1.2-.1.4-.1.6-24.1.1-49.7-5-47.3-.4 3.3 6.5 38.1 2 47.4.7 0 .2 0 .4.1.5-22.5 8.7-48.2 13.1-44.3 16.6 5.4 4.9 36.3-11.8 44.5-16.3.1.2.2.4.4.5-16.9 17.2-38.7 31.6-33.7 33.2 7 2.3 28.4-25.6 34-33.1.2.1.3.2.5.3-8.7 22.5-22.8 44.5-17.6 44 7.3-.7 15.8-34.9 18-43.9.1 0 .3.1.4.1h.1c.2 24.1-5 49.8-.4 47.4 6.5-3.3 2-38.4.7-47.5.2 0 .4-.1.5-.1 9.4 22.2 14.5 47.9 17.9 44 4.8-5.6-12.9-36.3-17.6-44.1.2-.1.3-.2.4-.3 17.2 17 31.7 38.8 33.3 33.8 2.3-7-25.8-28.6-33.2-34.1.1-.1.2-.2.3-.4 22 9.9 43.2 25.3 43 20.2-.3-7.3-34.2-17.9-42.9-20.5.1-.2.1-.4.1-.6 24.2-.1 49.9 5 47.5.4z"
                      fill="#fccf07"/>
                <path d="m359.7 294.1c-3.3-6.5-38.5-2-47.6-.7 0-.2 0-.3-.1-.5 22.5-8.8 48.3-13.2 44.5-16.6-5.5-4.9-36.6 11.9-44.6 16.4-.1-.2-.2-.4-.3-.5 17-17.2 38.7-31.7 33.8-33.3-7-2.3-28.5 25.8-34.1 33.1-.2-.1-.3-.3-.5-.3 8.7-22.5 22.8-44.5 17.6-44-7.3.7-15.8 35-18 44-.2 0-.3-.1-.5-.1-.2-24.1 5-49.8.4-47.4-6.5 3.3-2 38.2-.7 47.4-.2 0-.4 0-.6.1-9.4-22.2-14.5-47.8-17.9-43.9-4.7 5.6 12.8 36 17.6 44-.2.1-.3.2-.5.3-17.1-16.9-31.6-38.6-33.2-33.7-2.3 6.9 25.5 28.4 33 34-.1.1-.2.3-.3.4-22-9.9-43.1-25.3-42.8-20.1.3 7.3 33.8 17.7 42.8 20.4-.1.2-.1.4-.1.6-24.1.1-49.7-5-47.3-.4 3.3 6.5 38.1 2 47.4.7 0 .2 0 .4.1.5-22.5 8.7-48.2 13.1-44.3 16.6 5.4 4.9 36.3-11.8 44.5-16.3.1.2.2.4.4.5-16.9 17.2-38.7 31.6-33.7 33.2 7 2.3 28.4-25.6 34-33.1.2.1.3.2.5.3-8.7 22.5-22.8 44.5-17.6 44 7.3-.7 15.8-34.9 18-43.9.1 0 .3.1.4.1h.1c.2 24.1-5 49.8-.4 47.4 6.5-3.3 2-38.4.7-47.5.2 0 .4-.1.5-.1 9.4 22.2 14.5 47.9 17.9 44 4.8-5.6-12.9-36.3-17.6-44.1.2-.1.3-.2.4-.3 17.2 17 31.7 38.8 33.3 33.8 2.3-7-25.8-28.6-33.2-34.1.1-.1.2-.2.3-.4 22 9.9 43.2 25.3 43 20.2-.3-7.3-34.2-17.9-42.9-20.5.1-.2.1-.4.1-.6 24.2-.1 49.9 5 47.5.4z"
                      fill="#fccf07"/>
                <g fill="#f16378">
                    <g>
                        <path d="m298.2 260.8c-3-9.2-5.2-15.1-7-13.1-1.8 2.2-.3 8.1 2.5 15 1.5-.7 3-1.3 4.5-1.9z"/>
                        <path d="m283.2 271.3c1-1.2 2.2-2.4 3.4-3.5-6.3-7.4-10.6-12-11.4-9.4-.9 2.7 2.7 7.6 8 12.9z"/>
                        <path d="m275.2 296.9c-.1-1-.2-2-.2-3.1 0-.6.1-1.2.1-1.7-9.7-.7-16-1-14.8 1.4 1.3 2.5 7.4 3.3 14.9 3.4z"/>
                        <path d="m277.1 282c.5-1.5 1.2-3 1.9-4.4-8.5-4.7-14.1-7.5-14-4.9.1 2.9 5.3 6.2 12.1 9.3z"/>
                        <path d="m343.3 282.9c9.3-2.8 15.2-4.8 13.2-6.6-2.1-1.9-8.1-.5-15.1 2.1.8 1.5 1.4 3 1.9 4.5z"/>
                        <path d="m324.4 261.9c4.2-8.7 6.7-14.5 4.1-14.2-2.8.3-5.8 5.6-8.6 12.5 1.5.5 3 1 4.5 1.7z"/>
                        <path d="m336 270.3c7.4-6.3 12-10.6 9.4-11.4-2.7-.9-7.6 2.8-12.9 8.1 1.2 1 2.4 2.1 3.5 3.3z"/>
                        <path d="m310 258.8c.6 0 1.2.1 1.7.1.7-9.7 1-16-1.4-14.8-2.5 1.3-3.4 7.4-3.4 14.8 1.1-.1 2.1-.1 3.1-.1z"/>
                        <path d="m321.8 326.7c3 9.2 5.2 15.1 7 13.1 1.8-2.2.3-8.1-2.5-15-1.5.7-3 1.3-4.5 1.9z"/>
                        <path d="m343 305.5c-.5 1.5-1.2 3-1.9 4.4 8.5 4.7 14.1 7.5 14 4.9-.2-2.8-5.4-6.1-12.1-9.3z"/>
                        <path d="m336.9 316.2c-1 1.2-2.2 2.4-3.4 3.5 6.3 7.4 10.6 12 11.4 9.4.9-2.7-2.8-7.6-8-12.9z"/>
                        <path d="m359.7 294.1c-1.3-2.5-7.4-3.4-14.8-3.4.1 1 .2 2 .2 3.1 0 .6-.1 1.2-.1 1.7 9.6.8 15.9 1 14.7-1.4z"/>
                        <path d="m276.8 304.6c-9.3 2.8-15.2 4.8-13.2 6.6 2.1 1.9 8.1.5 15.1-2.1-.8-1.4-1.4-2.9-1.9-4.5z"/>
                        <path d="m310 328.8c-.6 0-1.2-.1-1.7-.1-.7 9.7-1 16 1.4 14.8 2.5-1.3 3.4-7.4 3.4-14.8-1 0-2 .1-3.1.1z"/>
                        <path d="m284.1 317.2c-7.4 6.3-12 10.6-9.4 11.4 2.7.9 7.6-2.8 12.9-8.1-1.3-.9-2.4-2.1-3.5-3.3z"/>
                        <path d="m295.6 325.7c-4.2 8.7-6.7 14.5-4.1 14.2 2.8-.3 5.8-5.6 8.6-12.5-1.5-.5-3-1.1-4.5-1.7z"/>
                    </g>
                    <path d="m324.8 301c.4-.7.6-1.5.9-2.3-5.8-2-10.9-3.6-13.6-4.4.1-.2.1-.4.1-.6 4.8 0 9.6.1 14.3.4 0-.1 0-.3 0-.4 0-.7-.1-1.4-.2-2.1-6.1.6-11.4 1.3-14.2 1.7 0-.2 0-.3-.1-.5 4.5-1.7 9-3.3 13.5-4.7-.3-.8-.6-1.5-1-2.2-5.5 2.7-10.2 5.3-12.6 6.7-.1-.2-.2-.4-.3-.5 3.4-3.4 6.9-6.7 10.4-9.8-.6-.6-1.2-1.1-1.8-1.6-3.9 4.7-7.1 9-8.8 11.2-.2-.1-.3-.3-.5-.3 1.7-4.5 3.6-8.9 5.6-13.2-.7-.3-1.5-.5-2.3-.7-1.7 5.9-2.9 11-3.6 13.8-.2 0-.3-.1-.5-.1 0-4.8.1-9.6.4-14.2-.1 0-.3 0-.4 0-.7 0-1.4.1-2.1.2.6 6 1.3 11.3 1.7 14.1-.2 0-.4 0-.6.1-1.9-4.4-3.5-8.9-5.1-13.3-.8.3-1.5.7-2.2 1.1 2.9 5.3 5.5 9.9 7 12.3-.2.1-.3.2-.5.3-3.4-3.3-6.6-6.8-9.7-10.3-.6.6-1.1 1.2-1.6 1.8 4.7 3.8 8.9 7 11.1 8.7-.1.1-.2.3-.3.4-4.3-2-8.6-4.1-12.7-6.3-.4.7-.6 1.5-.9 2.3 5.7 2 10.7 3.5 13.5 4.3-.1.2-.1.4-.1.6-4.7 0-9.5-.1-14.2-.4v.4c0 .7.1 1.4.2 2.1 6-.6 11.2-1.3 14.1-1.7 0 .2 0 .4.1.5-4.4 1.7-8.9 3.3-13.3 4.7.3.8.6 1.5 1 2.2 5.4-2.7 10-5.2 12.5-6.6.1.2.2.4.4.5-3.3 3.4-6.9 6.7-10.3 9.7.6.6 1.2 1.1 1.8 1.6 3.8-4.7 7-8.9 8.8-11.2.2.1.3.2.5.3-1.7 4.5-3.6 8.9-5.6 13.1.7.3 1.5.5 2.3.7 1.6-5.8 2.9-11 3.6-13.8.1 0 .3.1.4.1h.1c0 4.8-.1 9.6-.4 14.3h.4c.7 0 1.4-.1 2.1-.2-.6-6.1-1.3-11.4-1.7-14.2.2 0 .4-.1.5-.1 1.9 4.4 3.6 8.9 5.1 13.4.8-.3 1.5-.7 2.2-1.1-2.9-5.4-5.6-10-7-12.5.2-.1.3-.2.4-.3 3.4 3.4 6.7 6.9 9.8 10.4.6-.6 1.1-1.2 1.6-1.8-4.7-3.9-9-7.1-11.3-8.8.1-.1.2-.2.3-.4 4.4 2.2 8.7 4.4 12.8 6.6z"/>
                </g>
            </g>
        </g>
    </g>
</svg>