<?xml version="1.0" encoding="UTF-8"?>
<svg xmlns="http://www.w3.org/2000/svg" xmlns:xlink="http://www.w3.org/1999/xlink" version="1.1" id="gradient_lineal_color" x="0px" y="0px" viewBox="0 0 200 200" style="enable-background:new 0 0 200 200;" xml:space="preserve" width="512" height="512">
<style type="text/css">
	.st0{fill:url(#SVGID_1_);}
	.st1{fill:url(#SVGID_2_);}
	.st2{fill:url(#SVGID_3_);}
	.st3{fill:url(#SVGID_4_);}
	.st4{fill:url(#SVGID_5_);}
	.st5{fill:url(#SVGID_6_);}
	.st6{fill:url(#SVGID_7_);}
	.st7{fill:url(#SVGID_8_);}
	.st8{fill:url(#SVGID_9_);}
	.st9{fill:url(#SVGID_10_);}
	.st10{fill:url(#SVGID_12_);}
	.st11{fill:url(#SVGID_13_);}
	.st12{fill:url(#SVGID_14_);}
	.st13{fill:url(#SVGID_15_);}
	.st14{fill:url(#SVGID_16_);}
	.st15{fill:url(#SVGID_17_);}
	.st16{fill:url(#SVGID_18_);}
	.st17{fill:url(#SVGID_19_);}
	.st18{fill:url(#SVGID_20_);}
	.st19{fill:url(#SVGID_21_);}
	.st20{fill:url(#SVGID_22_);}
	.st21{fill:url(#SVGID_23_);}
	.st22{opacity:0.3;fill:#FFE1E1;}
	.st23{opacity:0.2;}
	.st24{fill:#FFFFFF;}
	.st25{opacity:0.6;}
	.st26{opacity:0.8;}
	.st27{opacity:0.3;}
	.st28{fill:#BA0000;}
	.st29{fill:url(#SVGID_24_);}
	.st30{fill:url(#SVGID_25_);}
	.st31{fill:url(#SVGID_26_);}
	.st32{fill:url(#SVGID_27_);}
	.st33{fill:url(#SVGID_28_);}
	.st34{fill:url(#SVGID_29_);}
	.st35{fill:url(#SVGID_30_);}
	.st36{fill:url(#SVGID_31_);}
	.st37{fill:url(#SVGID_32_);}
	.st38{fill:url(#SVGID_33_);}
	.st39{fill:url(#SVGID_34_);}
	.st40{fill:url(#SVGID_35_);}
	.st41{fill:url(#SVGID_36_);}
	.st42{fill:url(#SVGID_37_);}
	.st43{fill:url(#SVGID_38_);}
	.st44{fill:url(#SVGID_39_);}
	.st45{fill:url(#SVGID_40_);}
	.st46{fill:url(#SVGID_41_);}
	.st47{fill:url(#SVGID_42_);}
	.st48{fill:url(#SVGID_43_);}
	.st49{fill:url(#SVGID_44_);}
	.st50{fill:url(#SVGID_45_);}
	.st51{fill:url(#SVGID_46_);}
	.st52{fill:url(#SVGID_47_);}
	.st53{fill:url(#SVGID_48_);}
	.st54{fill:url(#SVGID_49_);}
	.st55{fill:url(#SVGID_50_);}
	.st56{fill:url(#SVGID_51_);}
	.st57{fill:url(#SVGID_52_);}
	.st58{fill:url(#SVGID_53_);}
	.st59{opacity:0.3;fill:#E3FFE6;}
	.st60{fill:url(#SVGID_54_);}
	.st61{fill:url(#SVGID_55_);}
	.st62{fill:url(#SVGID_56_);}
	.st63{fill:url(#SVGID_57_);}
	.st64{fill:url(#SVGID_58_);}
	.st65{fill:url(#SVGID_59_);}
	.st66{fill:url(#SVGID_60_);}
	.st67{fill:url(#SVGID_61_);}
	.st68{fill:url(#SVGID_62_);}
	.st69{fill:url(#SVGID_63_);}
	.st70{fill:url(#SVGID_64_);}
	.st71{fill:url(#SVGID_65_);}
	.st72{fill:url(#SVGID_66_);}
	.st73{fill:url(#SVGID_67_);}
	.st74{fill:url(#SVGID_68_);}
	.st75{fill:url(#SVGID_69_);}
	.st76{fill:url(#SVGID_70_);}
	.st77{fill:url(#SVGID_71_);}
	.st78{fill:url(#SVGID_72_);}
	.st79{fill:url(#SVGID_73_);}
	.st80{fill:url(#SVGID_74_);}
	.st81{fill:url(#SVGID_75_);}
	.st82{opacity:0.5;fill:#FFFFFF;}
	.st83{opacity:0.3;fill:#FFDEEB;}
	.st84{fill:url(#SVGID_76_);}
	.st85{fill:url(#SVGID_77_);}
	.st86{fill:url(#SVGID_78_);}
	.st87{fill:url(#SVGID_79_);}
	.st88{fill:url(#SVGID_80_);}
	.st89{fill:url(#SVGID_81_);}
	.st90{fill:url(#SVGID_82_);}
	.st91{fill:url(#SVGID_83_);}
	.st92{fill:url(#SVGID_84_);}
	.st93{fill:url(#SVGID_85_);}
	.st94{fill:url(#SVGID_86_);}
	.st95{fill:url(#SVGID_87_);}
	.st96{fill:url(#SVGID_88_);}
	.st97{fill:url(#SVGID_89_);}
	.st98{fill:url(#SVGID_90_);}
	.st99{fill:url(#SVGID_91_);}
	.st100{fill:url(#SVGID_92_);}
	.st101{fill:url(#SVGID_93_);}
	.st102{fill:url(#SVGID_94_);}
	.st103{fill:url(#SVGID_95_);}
	.st104{fill:url(#SVGID_96_);}
	.st105{fill:url(#SVGID_97_);}
	.st106{fill:url(#SVGID_98_);}
	.st107{opacity:0.3;fill:url(#SVGID_99_);}
	.st108{fill:url(#SVGID_100_);}
	.st109{fill:url(#SVGID_101_);}
	.st110{fill:url(#SVGID_102_);}
	.st111{fill:url(#SVGID_103_);}
	.st112{fill:url(#SVGID_104_);}
	.st113{fill:url(#SVGID_105_);}
	.st114{fill:url(#SVGID_106_);}
	.st115{fill:url(#SVGID_107_);}
	.st116{fill:url(#SVGID_108_);}
	.st117{fill:url(#SVGID_109_);}
	.st118{fill:url(#SVGID_110_);}
	.st119{opacity:0.5;fill:url(#SVGID_111_);}
	.st120{opacity:0.5;}
	.st121{fill:url(#SVGID_112_);}
	.st122{fill:url(#SVGID_113_);}
	.st123{fill:url(#SVGID_114_);}
	.st124{fill:url(#SVGID_115_);}
	.st125{fill:url(#SVGID_116_);}
	.st126{fill:url(#SVGID_117_);}
	.st127{fill:url(#SVGID_118_);}
	.st128{fill:url(#SVGID_119_);}
	.st129{fill:url(#SVGID_120_);}
	.st130{fill:url(#SVGID_121_);}
	.st131{fill:url(#SVGID_122_);}
	.st132{fill:url(#SVGID_123_);}
	.st133{fill:url(#SVGID_124_);}
	.st134{fill:url(#SVGID_125_);}
	.st135{fill:url(#SVGID_126_);}
	.st136{fill:url(#SVGID_127_);}
	.st137{fill:url(#SVGID_128_);}
	.st138{fill:url(#SVGID_129_);}
	.st139{fill:url(#SVGID_130_);}
	.st140{fill:url(#SVGID_131_);}
	.st141{fill:url(#SVGID_132_);}
	.st142{fill:url(#SVGID_133_);}
	.st143{fill:url(#SVGID_134_);}
	.st144{fill:url(#SVGID_135_);}
	.st145{fill:url(#SVGID_136_);}
	.st146{fill:url(#SVGID_137_);}
	.st147{fill:url(#SVGID_138_);}
	.st148{fill:url(#SVGID_139_);}
	.st149{fill:url(#SVGID_140_);}
	.st150{fill:url(#SVGID_141_);}
	.st151{fill:url(#SVGID_142_);}
	.st152{fill:url(#SVGID_143_);}
	.st153{fill:url(#SVGID_144_);}
	.st154{fill:url(#SVGID_145_);}
	.st155{opacity:0.3;fill:#FCF8D5;}
	.st156{fill:url(#SVGID_146_);}
	.st157{fill:url(#SVGID_147_);}
	.st158{fill:url(#SVGID_148_);}
	.st159{fill:url(#SVGID_149_);}
	.st160{fill:url(#SVGID_150_);}
	.st161{fill:url(#SVGID_151_);}
	.st162{fill:url(#SVGID_152_);}
	.st163{fill:url(#SVGID_153_);}
	.st164{fill:url(#SVGID_154_);}
	.st165{fill:url(#SVGID_155_);}
	.st166{fill:url(#SVGID_156_);}
	.st167{fill:url(#SVGID_157_);}
	.st168{fill:url(#SVGID_158_);}
	.st169{fill:url(#SVGID_159_);}
	.st170{fill:url(#SVGID_160_);}
	.st171{fill:url(#SVGID_161_);}
	.st172{fill:url(#SVGID_162_);}
	.st173{fill:url(#SVGID_163_);}
	.st174{fill:url(#SVGID_164_);}
	.st175{fill:url(#SVGID_165_);}
	.st176{fill:url(#SVGID_166_);}
	.st177{fill:url(#SVGID_167_);}
	.st178{fill:url(#SVGID_168_);}
	.st179{fill:url(#SVGID_169_);}
	.st180{fill:url(#SVGID_170_);}
	.st181{fill:url(#SVGID_171_);}
	.st182{fill:url(#SVGID_172_);}
	.st183{fill:url(#SVGID_173_);}
	.st184{fill:url(#SVGID_174_);}
	.st185{fill:url(#SVGID_175_);}
	.st186{fill:url(#SVGID_176_);}
	.st187{fill:url(#SVGID_177_);}
	.st188{fill:url(#SVGID_178_);}
	.st189{fill:url(#SVGID_179_);}
	.st190{fill:url(#SVGID_180_);}
	.st191{fill:url(#SVGID_181_);}
	.st192{fill:url(#SVGID_182_);}
	.st193{fill:url(#SVGID_183_);}
	.st194{fill:url(#SVGID_184_);}
	.st195{fill:url(#SVGID_185_);}
	.st196{fill:url(#SVGID_186_);}
	.st197{fill:url(#SVGID_187_);}
	.st198{fill:url(#SVGID_188_);}
	.st199{opacity:0.5;fill:url(#SVGID_189_);}
	.st200{fill:url(#SVGID_190_);}
	.st201{fill:url(#SVGID_191_);}
	.st202{fill:url(#SVGID_192_);}
	.st203{fill:url(#SVGID_193_);}
	.st204{fill:url(#SVGID_194_);}
	.st205{fill:url(#SVGID_195_);}
	.st206{fill:url(#SVGID_196_);}
	.st207{opacity:0.5;fill:url(#SVGID_197_);}
	.st208{fill:url(#SVGID_198_);}
	.st209{opacity:0.5;fill:url(#SVGID_199_);}
	.st210{fill:url(#SVGID_200_);}
	.st211{opacity:0.5;fill:url(#SVGID_201_);}
	.st212{fill:url(#SVGID_202_);}
	.st213{opacity:0.5;fill:url(#SVGID_203_);}
	.st214{fill:url(#SVGID_204_);}
	.st215{opacity:0.5;fill:url(#SVGID_205_);}
	.st216{fill:url(#SVGID_206_);}
	.st217{opacity:0.5;fill:url(#SVGID_207_);}
	.st218{fill:url(#SVGID_208_);}
	.st219{opacity:0.5;fill:url(#SVGID_209_);}
	.st220{fill:url(#SVGID_210_);}
	.st221{opacity:0.5;fill:url(#SVGID_211_);}
	.st222{fill:url(#SVGID_212_);}
	.st223{fill:url(#SVGID_213_);}
	.st224{fill:url(#SVGID_214_);}
	.st225{fill:url(#SVGID_215_);}
	.st226{fill:url(#SVGID_216_);}
	.st227{fill:url(#SVGID_217_);}
	.st228{fill:url(#SVGID_218_);}
	.st229{fill:url(#SVGID_219_);}
	.st230{fill:url(#SVGID_220_);}
	.st231{fill:url(#SVGID_221_);}
	.st232{fill:url(#SVGID_222_);}
	.st233{fill:url(#SVGID_223_);}
	.st234{fill:url(#SVGID_224_);}
	.st235{fill:url(#SVGID_225_);}
	.st236{fill:url(#SVGID_226_);}
	.st237{fill:url(#SVGID_227_);}
	.st238{fill:url(#SVGID_228_);}
	.st239{fill:url(#SVGID_229_);}
	.st240{fill:url(#SVGID_230_);}
	.st241{fill:url(#SVGID_231_);}
	.st242{fill:url(#SVGID_232_);}
	.st243{fill:url(#SVGID_233_);}
	.st244{fill:url(#SVGID_234_);}
	.st245{fill:url(#SVGID_235_);}
	.st246{fill:url(#SVGID_236_);}
	.st247{fill:url(#SVGID_237_);}
	.st248{fill:url(#SVGID_238_);}
	.st249{fill:url(#SVGID_239_);}
	.st250{fill:url(#SVGID_240_);}
	.st251{fill:url(#SVGID_241_);}
	.st252{fill:url(#SVGID_242_);}
	.st253{fill:url(#SVGID_243_);}
	.st254{fill:url(#SVGID_244_);}
	.st255{fill:url(#SVGID_245_);}
	.st256{fill:url(#SVGID_246_);}
	.st257{fill:url(#SVGID_247_);}
	.st258{fill:url(#SVGID_248_);}
	.st259{fill:url(#SVGID_249_);}
	.st260{fill:url(#SVGID_250_);}
	.st261{fill:url(#SVGID_251_);}
	.st262{fill:url(#SVGID_252_);}
	.st263{fill:url(#SVGID_253_);}
	.st264{fill:url(#SVGID_254_);}
	.st265{fill:url(#SVGID_255_);}
	.st266{fill:url(#SVGID_256_);}
	.st267{fill:url(#SVGID_257_);}
	.st268{fill:url(#SVGID_258_);}
	.st269{fill:url(#SVGID_259_);}
	.st270{fill:url(#SVGID_260_);}
	.st271{fill:url(#SVGID_261_);}
	.st272{fill:url(#SVGID_262_);}
	.st273{fill:url(#SVGID_263_);}
	.st274{fill:url(#SVGID_264_);}
	.st275{fill:url(#SVGID_265_);}
	.st276{fill:url(#SVGID_266_);}
	.st277{fill:url(#SVGID_267_);}
	.st278{fill:url(#SVGID_268_);}
	.st279{fill:url(#SVGID_269_);}
	.st280{fill:url(#SVGID_270_);}
	.st281{fill:url(#SVGID_271_);}
	.st282{fill:url(#SVGID_272_);}
	.st283{fill:url(#SVGID_273_);}
	.st284{fill:url(#SVGID_274_);}
	.st285{fill:url(#SVGID_275_);}
	.st286{fill:url(#SVGID_276_);}
	.st287{fill:url(#SVGID_277_);}
	.st288{fill:url(#SVGID_278_);}
	.st289{fill:url(#SVGID_279_);}
	.st290{fill:url(#SVGID_280_);}
	.st291{fill:url(#SVGID_281_);}
	.st292{fill:url(#SVGID_282_);}
	.st293{fill:url(#SVGID_283_);}
	.st294{fill:url(#SVGID_284_);}
	.st295{fill:url(#SVGID_285_);}
	.st296{fill:url(#SVGID_286_);}
	.st297{fill:url(#SVGID_287_);}
	.st298{fill:url(#SVGID_288_);}
	.st299{fill:url(#SVGID_289_);}
	.st300{fill:url(#SVGID_290_);}
	.st301{fill:url(#SVGID_291_);}
	.st302{fill:url(#SVGID_292_);}
	.st303{fill:url(#SVGID_293_);}
	.st304{fill:url(#SVGID_294_);}
	.st305{fill:url(#SVGID_295_);}
	.st306{fill:url(#SVGID_296_);}
	.st307{fill:url(#SVGID_297_);}
	.st308{fill:url(#SVGID_298_);}
	.st309{fill:url(#SVGID_299_);}
	.st310{fill:url(#SVGID_300_);}
	.st311{fill:url(#SVGID_301_);}
	.st312{fill:url(#SVGID_302_);}
	.st313{fill:url(#SVGID_303_);}
	.st314{fill:#E3FFE6;}
	.st315{fill:url(#SVGID_304_);}
	.st316{fill:url(#SVGID_305_);}
	.st317{fill:url(#SVGID_306_);}
	.st318{fill:url(#SVGID_307_);}
	.st319{fill:url(#SVGID_308_);}
	.st320{fill:url(#SVGID_309_);}
	.st321{fill:url(#SVGID_310_);}
	.st322{fill:url(#SVGID_311_);}
	.st323{fill:url(#SVGID_312_);}
	.st324{fill:url(#SVGID_313_);}
	.st325{fill:url(#SVGID_314_);}
	.st326{fill:url(#SVGID_315_);}
	.st327{fill:url(#SVGID_316_);}
	.st328{fill:url(#SVGID_317_);}
	.st329{fill:url(#SVGID_318_);}
	.st330{fill:url(#SVGID_319_);}
	.st331{fill:url(#SVGID_320_);}
	.st332{fill:url(#SVGID_321_);}
	.st333{fill:url(#SVGID_322_);}
	.st334{fill:url(#SVGID_323_);}
	.st335{fill:url(#SVGID_324_);}
	.st336{fill:url(#SVGID_325_);}
	.st337{fill:url(#SVGID_326_);}
	.st338{fill:url(#SVGID_327_);}
	.st339{fill:url(#SVGID_328_);}
	.st340{fill:url(#SVGID_329_);}
	.st341{fill:url(#SVGID_330_);}
	.st342{fill:url(#SVGID_331_);}
	.st343{fill:url(#SVGID_332_);}
	.st344{fill:url(#SVGID_333_);}
	.st345{fill:url(#SVGID_334_);}
	.st346{fill:url(#SVGID_335_);}
	.st347{fill:url(#SVGID_336_);}
	.st348{fill:url(#SVGID_337_);}
	.st349{fill:url(#SVGID_338_);}
	.st350{fill:url(#SVGID_339_);}
	.st351{fill:url(#SVGID_340_);}
	.st352{fill:url(#SVGID_341_);}
	.st353{fill:url(#SVGID_342_);}
	.st354{fill:url(#SVGID_343_);}
	.st355{fill:url(#SVGID_344_);}
	.st356{fill:url(#SVGID_345_);}
	.st357{fill:url(#SVGID_346_);}
	.st358{fill:url(#SVGID_347_);}
	.st359{fill:url(#SVGID_348_);}
	.st360{fill:url(#SVGID_349_);}
	.st361{fill:url(#SVGID_350_);}
	.st362{fill:url(#SVGID_351_);}
	.st363{fill:url(#SVGID_352_);}
	.st364{fill:url(#SVGID_353_);}
	.st365{fill:url(#SVGID_354_);}
	.st366{fill:url(#SVGID_355_);}
	.st367{fill:url(#SVGID_356_);}
	.st368{fill:url(#SVGID_357_);}
	.st369{fill:url(#SVGID_358_);}
	.st370{fill:url(#SVGID_359_);}
	.st371{fill:url(#SVGID_360_);}
	.st372{fill:url(#SVGID_361_);}
	.st373{fill:url(#SVGID_362_);}
	.st374{fill:url(#SVGID_363_);}
	.st375{fill:url(#SVGID_364_);}
	.st376{fill:url(#SVGID_365_);}
	.st377{fill:url(#SVGID_366_);}
	.st378{fill:url(#SVGID_367_);}
	.st379{fill:url(#SVGID_368_);}
	.st380{fill:url(#SVGID_369_);}
	.st381{fill:url(#SVGID_370_);}
	.st382{fill:url(#SVGID_371_);}
	.st383{fill:url(#SVGID_372_);}
	.st384{fill:url(#SVGID_373_);}
	.st385{fill:url(#SVGID_374_);}
	.st386{fill:url(#SVGID_375_);}
	.st387{fill:url(#SVGID_376_);}
	.st388{fill:url(#SVGID_377_);}
	.st389{fill:url(#SVGID_378_);}
	.st390{fill:url(#SVGID_379_);}
	.st391{fill:url(#SVGID_380_);}
	.st392{fill:url(#SVGID_381_);}
	.st393{fill:url(#SVGID_382_);}
	.st394{fill:url(#SVGID_383_);}
	.st395{fill:url(#SVGID_384_);}
	.st396{fill:url(#SVGID_385_);}
	.st397{fill:url(#SVGID_386_);}
	.st398{fill:url(#SVGID_387_);}
	.st399{fill:url(#SVGID_388_);}
	.st400{fill:url(#SVGID_389_);}
	.st401{fill:url(#SVGID_390_);}
	.st402{fill:url(#SVGID_391_);}
	.st403{fill:url(#SVGID_392_);}
	.st404{fill:url(#SVGID_393_);}
	.st405{fill:url(#SVGID_394_);}
	.st406{fill:url(#SVGID_395_);}
	.st407{fill:url(#SVGID_396_);}
	.st408{fill:url(#SVGID_397_);}
	.st409{fill:url(#SVGID_398_);}
	.st410{fill:url(#SVGID_399_);}
	.st411{fill:url(#SVGID_400_);}
	.st412{fill:url(#SVGID_401_);}
	.st413{fill:url(#SVGID_402_);}
	.st414{fill:url(#SVGID_403_);}
	.st415{fill:url(#SVGID_404_);}
	.st416{fill:url(#SVGID_405_);}
	.st417{fill:url(#SVGID_406_);}
	.st418{fill:url(#SVGID_407_);}
	.st419{fill:url(#SVGID_408_);}
	.st420{fill:url(#SVGID_409_);}
</style>
<g>
	<g>
		<radialGradient id="SVGID_1_" cx="100.051" cy="124.0196" r="69.426" gradientUnits="userSpaceOnUse">
			<stop offset="1.600000e-07" style="stop-color:#A5F0A4"/>
			<stop offset="0.1541" style="stop-color:#95EC83"/>
			<stop offset="0.441" style="stop-color:#7AE64B"/>
			<stop offset="0.6879" style="stop-color:#67E122"/>
			<stop offset="0.8823" style="stop-color:#5ADE09"/>
			<stop offset="1" style="stop-color:#56DD00"/>
		</radialGradient>
		<path class="st0" d="M173.5671,166.0455c-0.1824-4.2083-2.4293-8.0862-4.8801-11.3871c-2.5114-3.3825-5.4598-6.4116-8.404-9.4136    c-4.5598-4.6492-8.7948-9.6378-10.9351-15.904c-2.4241-7.0969-1.3076-14.5962-1.307-21.9436    c0.0007-8.1139-1.0806-16.1038-5.4712-23.0952c-4.9174-7.8301-10.878-14.8198-17.6974-21.0484    c-0.0045-0.003-0.0074-0.0074-0.0119-0.0104c-1.0036-0.8535-2.0078-1.7007-3.0349-2.5259    c-1.6206,0.9724-4.1575,0.6034-5.9711,0.6125c-2.3345,0.0118-4.6561-0.0709-6.9862-0.2059    c3.9715,3.4162,8.7705,5.6544,13.0345,8.6565c3.9934,2.8117,7.4639,6.3837,10.0361,10.5438    c0.5928,0.9589,1.1389,1.9495,1.6125,2.9729c0.2101,0.454,1.2887,2.4549,0.96,2.9207c-0.308,0.4366-1.2822-1.1898-1.4888-1.4783    c-0.7565-1.0562-1.5075-2.1165-2.3044-3.143c-2.8779-3.7072-6.2258-7.0255-10.0624-9.7379    c-4.7471-3.3562-10.3729-6.0632-13.88-10.8653c-5.2671-0.3459-10.5687-0.8485-15.7206-2.0406    c-0.5958,1.4712-1.7401,2.7887-2.6391,4.0846c-1.1399,1.6431-2.2687,3.2927-3.3575,4.9703    c-2.0227,3.1165-3.6945,6.4818-5.8046,9.5359c1.0972,6.4402-3.2852,13.6542-10.2207,13.9323    c-0.6488,2.7043-4.6755,2.5311-5.0958-0.2104c-0.4535-2.9584,3.8215-4.1512,4.9697-1.3938    c0.4739-0.1786,0.9477-0.3756,1.395-0.6144h0.0015c2.2214-1.1393,4.0293-2.9877,4.9375-5.3278    c1.1308-2.9135,0.7414-5.8443-0.4668-8.6502c-1.2109-2.8124-2.3157-5.5257-1.63-8.6416c0.6299-2.8623,2.3089-5.4286,4.308-7.5291    c-5.6838,3.8811-11.2319,8.2181-15.9254,13.2734c-4.4384,4.7806-7.3951,10.5087-9.958,16.4597    c-1.6653,3.8667-3.1772,7.7989-4.9375,11.6246c0,0.0015,0,0.0015,0,0.0015c-2.6786,5.9441-6.7141,11.1512-9.3377,17.1067    c-2.7109,6.1539-2.0339,12.6413-1.8016,19.1757c0.1349,3.7958,0.1984,7.9201-0.7317,11.6348v0.0015    c-0.7598,4.2153-1.8855,8.6203-3.6864,12.524v0.0015c-0.8994,2.1352-2.0314,4.1634-2.9676,6.282    c-1.1479,2.5978-2.3331,5.8187-0.9759,8.5616c2.7082,5.4733,10.2079,4.4662,15.1939,3.9181    c5.3731-0.5907,10.6717-0.7173,16.0474-0.1323c5.3452,0.5817,10.6138,1.664,15.8389,2.9115    c12.145,2.8996,24.2785,6.7419,36.8904,6.631c5.5599-0.0489,11.0721-1.0672,16.4114-2.5714    c2.8637-0.8068,5.6871-1.7609,8.4773-2.7923c2.7241-1.0069,5.3178-2.3119,8.0197-3.3712    c2.9774-1.1673,5.9959-1.7221,9.1833-1.8788c2.732-0.1343,5.4866-0.0244,8.2091-0.3193c2.9056-0.3147,6.0258-1.0611,8.3555-2.923    c1.4267-1.1402,2.3958-2.7948,3.0396-4.4857C173.3661,169.2466,173.6382,167.6457,173.5671,166.0455z M34.6636,171.0201    c-0.1424,0.4346-0.3124,2.011-0.7116,2.2636c-0.4891,0.3095-0.5188-1.5173-0.5149-1.8114    c0.0233-1.7822,0.5597-3.5558,1.1907-5.2075c1.3881-3.6329,3.1806-7.0742,4.4186-10.7725    c1.2724-3.8013,2.1995-7.6992,2.861-11.6512c0.2923-1.7462,0.4262-3.5725,0.8717-5.2872    c0.0947-0.3647,0.1426-0.8304,0.4903-0.5518c0.3902,0.3127,0.3445,1.6521,0.3811,2.1052    c0.3405,4.2164-0.2515,8.5469-1.2832,12.6321v0.0015c-0.8448,3.3709-2.0659,6.6325-3.6166,9.7414    C37.3403,165.3101,35.6523,167.9997,34.6636,171.0201z M138.0862,119.6835c-0.2267,2.3112-0.7423,4.5279-1.5625,6.7024    c-0.2533,0.6715-0.5377,1.8004-1.0566,2.3039c-0.6472,0.628-0.4967-0.623-0.4691-1.0563    c0.1375-2.1589,0.6353-4.2823,0.7935-6.4424c0.1658-2.2652,0.0434-4.5552-0.3387-6.7937    c-0.7773-4.5528-2.7061-8.6387-5.1812-12.4979c-0.2142-0.3339-0.9256-1.133-0.9112-1.5701    c0.0195-0.5875,0.5931-0.1155,0.9294,0.1077c1.5992,1.0619,2.8865,2.6999,3.934,4.2831    C137.1147,109.0898,138.4981,114.4607,138.0862,119.6835z M65.1803,114.8781c0.309-0.8324,0.7098-1.6688,1.1811-2.4214    c0.1812-0.2893,0.7644-1.389,1.091-0.8663c0.2702,0.4323-0.2091,1.7343-0.3028,2.1955c-0.1809,0.8905-0.3853,1.7763-0.5562,2.6689    c-0.7463,3.8971-1.0866,7.8467-0.9217,11.8135c0.0771,1.8552,0.2732,3.6953,0.5192,5.5346    c0.0739,0.5525,0.8111,3.9519,0.1223,3.9569c-0.4193,0.0031-0.9973-1.5209-1.1259-1.82    c-0.3769-0.8766-0.6952-1.7757-0.9524-2.6949c-0.4942-1.7665-0.7898-3.5922-0.9272-5.42    C62.9789,123.4522,63.5555,118.9622,65.1803,114.8781z M70.5764,126.3024c0.122-0.7815,0.4031-3.0701,1.3067-3.4079    c0.87-0.3252,0.8348,1.7035,0.8629,2.1491c0.0956,1.5135,0.0831,3.0371,0.0893,4.5529c0.0056,1.3572,0.1051,2.8276-0.1931,4.1618    v0.0015c-0.4471,2.1094-1.7209-1.3173-1.8557-1.8808C70.3526,130.0657,70.303,128.1439,70.5764,126.3024z M155.193,152.2467    c2.8916,2.4216,5.4111,5.2569,7.151,8.6277c0.2156,0.4177,1.7132,3.7886,1.2465,3.8187    c-0.3448,0.0222-1.0956-1.5203-1.2876-1.8066c-0.4332-0.6461-0.8614-1.2945-1.3195-1.9236    c-4.8243-6.6258-11.9766-11.2704-20.1272-12.4906c-8.6138-1.2896-17.5886,0.4089-25.9571-2.5399    c-1.8056-0.6362-3.5715-1.474-5.1199-2.6086c-0.6892-0.505-1.3727-1.0676-1.9276-1.7212    c-0.0672-0.0791-0.5537-0.5825-0.4709-0.7392c0.1021-0.1933,0.7293,0.2564,0.8288,0.3155    c3.4981,2.076,7.1033,3.3886,11.1486,3.9398c9.561,1.3027,19.4984-0.9711,28.6638,2.8644h0.0015    C150.5864,149.0428,153.0564,150.4727,155.193,152.2467z M132.4127,92.5742c3.5341,2.7261,6.3297,6.8047,8.2247,10.7929    c0.912,1.9195,1.6606,3.93,2.155,5.9988c0.2372,0.9924,0.416,1.9972,0.528,3.0111c0.0698,0.6314,0.3851,2.1286-0.0215,2.6863    c-0.417,0.572-0.8102-0.9226-0.9146-1.213c-0.3146-0.8747-0.5989-1.7607-0.9197-2.6332    c-0.7284-1.9813-1.5051-3.9343-2.4429-5.8277c-1.995-4.0276-4.5425-7.6817-7.5187-11.0419    c-0.7411-0.8368-1.5261-1.632-2.3013-2.4369c-0.3163-0.3284-1.9413-1.6674-1.7843-2.1314    C127.6972,88.9523,132.0112,92.2491,132.4127,92.5742z M102.5564,62.3365c0.4684-0.451,3.0074,1.9958,3.2956,2.2468    c1.6101,1.4024,3.1537,2.8831,4.6704,4.3853c1.5366,1.5219,3.026,3.1017,4.0796,5.007c1.087,1.9659,1.7435,4.1359,2.0975,6.3477    c0.2975,1.8588,0.5166,3.876,0.2647,5.7547c-0.0889,0.663-0.2774,1.1681-0.682,0.3639c-0.4392-0.8731-0.5992-1.9646-0.8308-2.9058    c-0.5354-2.1755-1.0601-4.3702-1.9578-6.4313c-0.8809-2.0226-2.1184-3.744-3.5854-5.3802    c-1.5897-1.773-3.2041-3.5208-4.718-5.3603C104.9133,66.0278,102.0338,62.8397,102.5564,62.3365z M42.866,117.0048    c1.1597-3.8933,3.845-7.1672,5.8456-10.6443c2.0629-3.5854,3.7869-7.3676,5.1141-11.2862    c1.3509-3.9886,2.28-8.1109,3.7717-12.0533c0.6875-1.8168,1.4956-3.5962,2.5294-5.2444c0.4901-0.7814,1.0318-1.5317,1.637-2.2284    c0.3465-0.3989,1.2239-1.5962,1.8149-1.6305c0.5151-0.0299,0.0811,0.4903-0.0992,0.8086c-0.4929,0.87-1.0256,1.7136-1.4875,2.6016    c-1.0762,2.0692-1.8843,4.2649-2.5565,6.4949c0,0,0,0.0015,0,0.003c-1.0692,3.5432-1.825,7.1725-2.9073,10.7119    c-1.1385,3.7232-2.6736,7.3272-4.6068,10.7081c-1.8247,3.1911-4.1075,6.0203-6.2156,9.0173    c-0.9481,1.3479-1.7286,2.7678-2.5689,4.1804C42.2075,120.0058,42.7065,117.5535,42.866,117.0048z M83.1137,181.0656    c-0.2963,0.6493-8.0189-2.2554-8.808-2.4937c-3.7599-1.1351-7.5812-1.9857-11.4881-2.4173    c-3.7047-0.4092-7.429-0.5279-11.1532-0.5915c-1.7819-0.0305-3.5657-0.0444-5.346-0.1305    c-0.4827-0.0234-2.4376,0.1169-2.7899-0.3425c-0.3312-0.4319,1.1821-0.6231,1.4578-0.678    c1.8764-0.3739,3.7988-0.5632,5.7036-0.7194c0.0015-0.0015,0.003,0,0.003,0c5.9013-0.4894,11.9103-0.3668,17.7052,0.937    c2.9404,0.6616,5.8058,1.653,8.5645,2.8616C77.4883,177.7218,83.4512,180.3171,83.1137,181.0656z M141.2873,173.5415    c-6.8027,4.4132-14.6818,7.6772-22.7595,8.6506h-0.0015c-2.969,0.3569-5.961,0.3706-8.934,0.0594    c-1.7896,0-3.7944-0.583-5.5058-1.0819c-1.8931-0.5518-3.7585-1.2913-5.4703-2.2736c-0.0015-0.0015-0.0015-0.0015-0.0015-0.0015    c-0.2492-0.143-2.393-1.3438-2.189-1.7007c0.1896-0.3204,3.7449,1.1247,4.1319,1.2468c1.447,0.4563,2.9182,0.8358,4.4104,1.1129    c3.1918,0.5926,6.4559,0.8047,9.6983,0.6159c6.2641-0.3358,12.3721-2.068,18.1286-4.5021    c2.8319-1.1975,5.5928-2.5445,8.3217-3.9597c1.2603-0.6536,2.5141-1.3197,3.7767-1.9688c0.327-0.1681,2.4297-1.4868,2.7611-1.1747    C148.1042,168.9874,141.7846,173.2271,141.2873,173.5415z"/>
		<linearGradient id="SVGID_2_" gradientUnits="userSpaceOnUse" x1="110.8228" y1="53.9619" x2="110.8228" y2="11.4249">
			<stop offset="1.000000e-07" style="stop-color:#56DD00"/>
			<stop offset="0.1177" style="stop-color:#5ADE09"/>
			<stop offset="0.3121" style="stop-color:#67E122"/>
			<stop offset="0.559" style="stop-color:#7AE64B"/>
			<stop offset="0.8459" style="stop-color:#95EC83"/>
			<stop offset="1" style="stop-color:#A5F0A4"/>
		</linearGradient>
		<path class="st1" d="M139.2305,36.2868c-0.3028-1.2276-1.0188-2.5026-2.1104-3.1922c-0.0014,0-0.003-0.0015-0.003-0.003    c-0.0014-0.0015-0.0014-0.0015-0.0014-0.003c-0.6854-0.4106-1.5964-0.6085-2.3384-0.889    c-1.2555-0.4747-2.5101-0.9529-3.7611-1.4394c-1.6263-0.5207-3.4668,0.3415-4.8761,1.0925    c-1.5331,0.817-2.9951,1.8096-4.3948,2.8373c-1.3898,1.0204-2.6732,2.1809-3.866,3.4245    c-0.4764,0.4967-0.9375,1.0075-1.398,1.5189c-0.3029,0.3363-0.8994,1.2863-1.3683,1.4083    c-0.3717,0.0968-0.3152,0.1321-0.363-0.2815c-0.0694-0.5997,0.5049-1.5216,0.757-2.0264c0.6809-1.3631,1.5516-2.6347,2.5268-3.803    c2.1615-2.5895,5.0413-5.0215,8.0671-6.5244c-0.1092-0.8975-0.3231-1.7317-1.0032-2.3508c-0.428-0.3159-1.0455-0.4478-1.5299-0.67    c-0.711-0.3261-1.3976-0.7089-2.0422-1.1524c-1.1045-0.7597-1.944-1.806-3.0082-2.6001c-0.046-0.0282-0.0905-0.0579-0.1336-0.0905    c-1.9274-1.1502-4.8224-0.0386-6.8519,0.2627c-2.3873,2.675-5.16,5.1515-7.0135,8.2485    c-0.9189,1.5354-1.6413,3.1689-2.2757,4.8392c-0.1062,0.2797-0.7622,2.7737-1.1787,2.7777    c-0.9737,0.0094,1.1022-7.0484,1.318-7.5808c1.4133-3.4881,3.9311-6.2306,6.2564-9.1265    c0.6587-0.8203,7.3329-8.5661,6.5042-9.2304c-0.5684-0.5674-1.8053-0.2245-2.4654,0.0247    c-1.151,0.4345-2.1969,1.0992-3.1837,1.8259c-2.6845,1.9771-5.0253,4.3922-8.1422,5.718    c-2.4038,1.0225-5.0004,1.2225-7.4514,0.2923c-1.4887-0.565-2.8252-1.431-4.211-2.2c-1.106-0.6138-2.3182-1.2546-3.6221-1.1879    c-3.1134,0.381-3.9981,3.918-3.7476,6.5552c0.1526,1.6058,0.603,3.1844,1.3078,4.6346c0.6035,1.2417,1.4774,2.3182,2.1202,3.5392    c3.0595,5.8121,2.3871,12.9259-0.553,18.6504c9.3675,3.387,19.6802,4.3524,29.5921,4.3765    c1.0698-3.0581,3.2555-5.8208,5.7082-7.8932c1.2824-1.0836,2.6832-2.0298,4.192-2.7683c1.2098-0.5921,2.6991-1.2912,4.0722-1.2744    c1.6647,0.0204-0.8541,1.5168-1.2569,1.7833c-1.2704,0.8405-2.5299,1.6974-3.7232,2.6457    c-2.7366,2.1746-5.0708,4.7086-7.1638,7.4995c1.051-0.0117,2.1021-0.0326,3.1521-0.0787    c3.4262-3.4589,7.3633-6.3951,11.4213-9.0646c0.9792-0.6442,2.0114-1.2758,2.8776-2.0717    c0.7634-0.7014,1.4398-1.4428,2.2814-2.0611c0.7382-0.5423,1.5536-1.0002,2.2628-1.5793    C139.4616,38.4038,139.4721,37.2995,139.2305,36.2868z M86.3238,29.144c-0.6343-1.2811-1.31-2.8445-1.1913-4.3155    c0.1539-1.9089,1.1381-0.0212,1.5341,0.6617c1.4792,2.5511,3.4842,4.913,4.2953,7.7953c0.4184,1.4867,0.4437,3.0858,0.0992,4.5913    c-0.0768,0.3356-0.2618,1.4038-0.645,1.4868c-0.503,0.109-0.6038-0.7661-0.6813-1.1144    c-0.3354-1.5057-0.4684-3.0224-1.0528-4.4673C88.0304,32.1711,87.0858,30.7012,86.3238,29.144z M104.3432,46.279    c-0.172,1.5012-0.1124,3.1867-0.5172,4.6498c-0.4408,1.593-1.3517,0.0356-1.5694-0.8343    c-0.0017-0.0022-0.0022-0.0047-0.0015-0.0074c-0.8482-2.6185-0.4215-6.0781,1.1547-8.3535    c0.6787-0.9799,1.5563-1.3823,1.4859,0.1873C104.8304,43.3752,104.5151,44.8347,104.3432,46.279z M108.5787,46.3873    c-0.2908,0.752-0.579,1.5031-0.8547,2.2608c-0.2271,0.6242-0.4084,1.5311-0.8232,2.0652    c-0.8683,1.1181-0.9322-1.4741-0.9183-1.9701c0.0911-3.2595,1.5255-6.536,3.5753-9.0352c0.894-1.09,1.963-2.1378,3.2045-2.828    c0.287-0.1596,1.0793-0.6482,1.346-0.3291c0.282,0.3374-0.4579,1.196-0.6248,1.4395    C111.6223,40.7068,109.8602,43.3324,108.5787,46.3873z"/>
		<linearGradient id="SVGID_3_" gradientUnits="userSpaceOnUse" x1="76.4834" y1="66.1124" x2="90.2098" y2="66.1124">
			<stop offset="1.000000e-07" style="stop-color:#56DD00"/>
			<stop offset="0.1388" style="stop-color:#58DE05"/>
			<stop offset="0.2969" style="stop-color:#5FDF12"/>
			<stop offset="0.4646" style="stop-color:#6AE229"/>
			<stop offset="0.6389" style="stop-color:#79E549"/>
			<stop offset="0.8183" style="stop-color:#8DEA72"/>
			<stop offset="1" style="stop-color:#A5F0A4"/>
		</linearGradient>
		<path class="st2" d="M78.9233,74.862c-0.0745,0.2053-0.1386,0.4027-0.1987,0.5948c-0.5478-1.6606-1.4332-3.1944-1.9375-4.87    c-0.535-1.7774-0.327-3.5217,0.3423-5.2359c1.3095-3.354,3.8199-6.0292,6.2756-8.583c2.2291,0.7792,4.5078,1.446,6.8049,1.9924    c-2.5975,1.5584-4.7089,4.4103-6.4269,6.8377C81.7678,68.4452,80.0726,71.5639,78.9233,74.862z"/>
	</g>
	<g>
		<path class="st59" d="M61.0621,179.8725c-3.0674-0.4324-6.1583-0.6901-9.2553-0.7528c-3.9871-0.0807-7.8949,0.4472-11.8554,0.7958    c-0.3426-1.0076-0.4528-2.1199-0.2419-3.167c1.4855-4.798,7.1935-4.0081,10.9805-3.0557c0.0015-0.0015,0.003,0,0.003,0    c1.8907,0.4734,3.7754,1.1457,5.4346,1.9842h0.0015C58.3596,176.8034,60.182,178.2281,61.0621,179.8725z"/>
		<path class="st59" d="M51.7422,129.2319c-0.7323,2.7244-5.0035,3.3161-7.3093,3.4796c-3.1556,0.2238-6.4211-0.5064-9.1979-2.0237    c-0.1264-4.1432,0.0726-8.2746,1.6592-12.1574C44.0815,119.1611,53.9193,123.456,51.7422,129.2319z"/>
		<path class="st59" d="M137.408,76.8357c-3.7755,0.5257-7.7521-0.2274-11.0269-2.2062c-2.7459-1.6593-5.2548-4.6278-4.5631-8.062    c0.4641-1.5158,1.5723-2.7291,3.0423-3.3243c0.0045,0.003,0.0074,0.0074,0.0119,0.0104    C129.4442,67.4295,133.65,71.9068,137.408,76.8357z"/>
		<path class="st59" d="M168.272,176.2068c-5.9176,3.301-13.162,1.5656-19.554,2.7381c-1.3087-1.5482-2.0982-3.629-1.6874-5.6647    c1.2562-4.066,5.6985-4.0898,9.1793-3.4501C160.3638,170.5936,165.985,172.3147,168.272,176.2068z"/>
		<path class="st59" d="M106.6969,133.2127c0.6768,4.5198,5.5893,7.1031,9.6156,7.9978c2.3984,0.533,4.8684,0.5388,7.2689,0.0063    c1.7228-0.3822,4.2415-1.1706,4.7646-3.1188c1.7934-4.7561-4.3566-7.8698-7.891-9.1439    c-4.1163-1.4839-11.9457-3.538-13.7255,2.2231C106.6006,131.8174,106.5861,132.5014,106.6969,133.2127z"/>
		<path class="st59" d="M65.5116,144.8987c0.6768,4.5198,5.5893,7.1031,9.6156,7.9978c2.3985,0.533,4.8684,0.5388,7.269,0.0063    c1.7228-0.3822,4.2415-1.1706,4.7646-3.1188c1.7934-4.7561-4.3566-7.8698-7.891-9.1439    c-4.1163-1.4839-11.9457-3.538-13.7255,2.2231C65.4153,143.5033,65.4008,144.1873,65.5116,144.8987z"/>
		<path class="st59" d="M113.8263,188.9846c-7.0578,0.5166-14.198-0.5694-21.0826-2.0302    c-0.6982-1.2846-1.0154-2.8194-0.7242-4.2652c0.374-1.2105,1.1516-2.2558,2.2347-2.9202c0.582-0.357,1.2341-0.5947,1.9-0.7379    c0.4046-0.087,2.1252-0.4709,2.4619-0.1352c3.5781,0.2849,7.8507,1.4945,10.9746,3.3555c0,0,0,0,0.0015,0    C111.9131,183.6333,114.5319,185.9753,113.8263,188.9846z"/>
		<path class="st59" d="M77.4795,135.3771c4.4346-0.9556,6.7014-5.9619,7.356-10.0094c0.3898-2.4101,0.256-4.8533-0.4-7.2067    c-0.4835-1.7346-1.4327-4.2922-3.4566-4.6999c-4.8277-1.4775-7.5468,4.7874-8.5996,8.3733    c-1.2356,4.2084-2.8147,12.2248,3.0668,13.6393C76.0931,135.5619,76.7766,135.5329,77.4795,135.3771z"/>
		<path class="st59" d="M146.9976,145.2973c0.6768,4.5198,5.5893,7.1031,9.6156,7.9978c2.3985,0.533,4.8683,0.5388,7.269,0.0063    c1.7228-0.3822,4.2415-1.1706,4.7646-3.1188c1.7934-4.7561-4.3566-7.8698-7.891-9.1439    c-4.1163-1.4839-11.9457-3.538-13.7255,2.2231C146.9012,143.9019,146.8868,144.5859,146.9976,145.2973z"/>
		<path class="st59" d="M111.0966,174.8261c0.6768,4.5198,5.5893,7.1031,9.6156,7.9978c2.3984,0.533,4.8684,0.5388,7.2689,0.0063    c1.7228-0.3822,4.2415-1.1706,4.7646-3.1188c1.7934-4.7561-4.3566-7.8698-7.891-9.1439    c-4.1163-1.4839-11.9457-3.538-13.7255,2.2231C111.0003,173.4307,110.9858,174.1147,111.0966,174.8261z"/>
		<path class="st59" d="M82.4609,80.4679c0.6768,4.5198,5.5893,7.1031,9.6156,7.9978c2.3985,0.533,4.8684,0.5388,7.269,0.0063    c1.7228-0.3822,4.2415-1.1706,4.7646-3.1188c1.7934-4.7561-4.3566-7.8698-7.891-9.1439    c-4.1163-1.4839-11.9457-3.538-13.7255,2.2231C82.3646,79.0725,82.3501,79.7565,82.4609,80.4679z"/>
		<path class="st59" d="M139.3625,37.5097c-0.0403,1.2932-0.9637,1.7469-1.9236,2.4027c-0.9666,0.6603-1.9346,1.3326-2.7452,2.1846    c-3.403-1.5186-7.0731-4.7878-6.236-8.934c0.3042-0.9839,0.8593-1.8729,1.7007-2.5452c0.2914,0.0076,0.5803,0.0536,0.8578,0.1425    c1.251,0.4866,2.5056,0.9647,3.7611,1.4394c0.7457,0.2819,1.6519,0.4778,2.3384,0.889c0,0.0015,0,0.0015,0.0014,0.003    c0,0.0015,0.0015,0.003,0.003,0.003C138.5109,33.9718,139.4387,35.8833,139.3625,37.5097z"/>
		<path class="st59" d="M116.8508,50.0648c-0.8198,1.2231-1.576,2.5011-2.0644,3.8971c-3.7693-0.0092-7.5493-0.2765-11.3026-0.6085    c-0.6577-0.9595-1.13-2.0917-1.2273-3.259l-0.0015-0.003v-0.0045c-0.0608-0.5921-0.0341-1.1635,0.0742-1.7022    c1.0075-3.2613,4.3104-4.0637,7.3484-3.7227c3.2215,0.3616,6.4635,1.2814,9.3399,2.7877    C118.185,48.3121,117.4622,49.2026,116.8508,50.0648z"/>
		<path class="st59" d="M123.1907,50.7356c-1.3446,1.1383-2.4917,2.1994-3.4237,3.1403c-1.05,0.0466-2.1012,0.0669-3.1521,0.0787    c1.3811-1.8416,2.857-3.5985,4.513-5.2016C121.9575,49.3614,122.6609,50.0247,123.1907,50.7356z"/>
		<path class="st59" d="M126.101,28.4064c-1.6811,0.835-3.1845,1.9773-4.6273,3.167c-5.4049-0.4437-10.7401-3.394-11.8932-7.6177    c0.6337-0.6886,1.2867-1.4054,1.9515-2.1504c2.0311-0.3015,4.9238-1.4133,6.8519-0.2627c0.043,0.0326,0.0876,0.0623,0.1336,0.0905    c1.0647,0.7944,1.9032,1.84,3.0082,2.6001c0.6447,0.4434,1.3313,0.8262,2.0422,1.1524c0.4838,0.2219,1.1007,0.3532,1.5299,0.67    C125.7795,26.6763,125.9914,27.5062,126.101,28.4064z"/>
		<path class="st59" d="M102.7164,70.3465c0.8557-5.0281-4.1116-10.5009-9.2821-8.0384c-2.3101,1.1002-2.9056,4.1801-2.1213,6.424    c0.8252,2.3608,2.8854,4.2589,5.0957,5.3322c1.2567,0.6102,2.6017,0.9723,3.8903,0.2263    C101.7006,73.4794,102.4606,71.8871,102.7164,70.3465z"/>
		<path class="st59" d="M126.8058,159.7387c0.8557-5.0281-4.1116-10.5009-9.2821-8.0384c-2.3101,1.1002-2.9056,4.1801-2.1213,6.424    c0.8252,2.3609,2.8854,4.2589,5.0957,5.3322c1.2567,0.6102,2.6017,0.9723,3.8903,0.2263    C125.79,162.8716,126.5501,161.2793,126.8058,159.7387z"/>
		<path class="st59" d="M71.161,86.8862c0.8557-5.0281-4.1116-10.5009-9.2821-8.0384c-2.3101,1.1002-2.9056,4.1801-2.1213,6.424    c0.8252,2.3608,2.8854,4.2589,5.0957,5.3322c1.2567,0.6102,2.6017,0.9723,3.8903,0.2263    C70.1452,90.019,70.9053,88.4267,71.161,86.8862z"/>
		<path class="st59" d="M60.711,118.6651c0.8557-5.0281-4.1116-10.5009-9.2821-8.0384c-2.3101,1.1002-2.9056,4.1802-2.1213,6.424    c0.8252,2.3608,2.8854,4.2589,5.0957,5.3322c1.2567,0.6102,2.6017,0.9723,3.8903,0.2263    C59.6952,121.7979,60.4552,120.2056,60.711,118.6651z"/>
		<path class="st59" d="M104.337,145.2786c-2.3454-1.3927-5.3175-1.4597-7.6722-0.0507c-2.1116,1.2635-3.6331,3.9118-3.0783,6.4166    c0.5213,2.3536,3.1859,3.7212,5.4288,3.6987c2.2951-0.023,4.5575-1.1162,6.2632-2.6051c0.9886-0.8629,1.9315-1.9041,1.9148-3.2979    C107.1717,147.645,105.7995,146.1391,104.337,145.2786z"/>
		<path class="st59" d="M59.4147,151.401c-3.8773-0.4072-7.7801,1.2449-10.0512,4.4425c-2.0318,2.8607-2.4792,6.9602-0.5789,10.023    c1.985,3.1993,6.6431,3.5193,9.7715,2.0177c3.1759-1.5244,5.5981-4.5895,6.8835-7.8171c0.7326-1.8395,1.0897-3.7649-0.0781-5.5183    C64.0544,152.586,61.6791,151.6296,59.4147,151.401z"/>
		<path class="st59" d="M88.6537,182.4147c-0.2152,1.0804-0.6129,2.2231-1.165,3.3451c-5.4635-1.3157-10.887-2.7962-16.3721-4.0218    c1.8347-3.6137,5.7076-5.843,9.7341-5.7999C84.4549,175.9765,89.1846,178.0988,88.6537,182.4147z"/>
		<path class="st59" d="M96.4547,100.0007c-0.6667,3.5802-0.2861,7.5146,1.7686,10.6032c1.6465,2.4749,4.2687,4.1006,7.2926,3.8681    c8.0249-0.617,9.8537-10.6838,6.3631-16.6176c-1.7288-2.9389-4.6731-5.5089-8.0531-6.2859    C99.4426,90.979,97.0805,96.5783,96.4547,100.0007z"/>
		<path class="st59" d="M143.2557,152.5373c-3.8773-0.4072-7.7801,1.2449-10.0512,4.4425    c-2.0318,2.8607-2.4792,6.9602-0.5789,10.023c1.985,3.1993,6.6431,3.5193,9.7715,2.0177    c3.1759-1.5243,5.5981-4.5894,6.8835-7.8171c0.7326-1.8395,1.0897-3.7648-0.0781-5.5183    C147.8953,153.7222,145.52,152.7658,143.2557,152.5373z"/>
		<path class="st59" d="M75.4528,109.0666c4.2591,0.2649,8.9873-0.3872,12.484-3.023c2.5894-1.9518,3.9836-4.8885,2.828-8.0522    c-1.5593-4.2689-5.7512-5.9985-9.9666-6.5257c-4.037-0.5049-8.2105,0.3267-11.5767,2.6624    c-2.7604,1.9153-5.2335,5.0086-5.4515,8.4829c0.1032,2.0869,1.917,3.5188,3.6232,4.413    C69.885,108.33,72.6635,108.9005,75.4528,109.0666z"/>
		<path class="st59" d="M147.9626,103.5518v0.0015c-2.5564,0.9693-4.7574-0.5039-6.5391-2.2243    c-1.6861-1.6281-3.0657-3.6377-3.8642-5.8477c-1.5117-4.1842-0.1609-10.4604,5.0103-11.1791    C146.2567,90.0993,147.6861,96.7568,147.9626,103.5518z"/>
		<path class="st59" d="M131.2478,121.2347c1.5957-3.5408,1.2589-7.7478-1.044-10.9033c-2.0819-2.8526-5.8728-4.5899-9.3984-3.7142    c-3.4902,0.8668-5.2858,4.9371-4.9817,8.2663c0.3216,3.5209,2.4263,6.8296,5.038,9.1262c1.508,1.3261,3.2394,2.4169,5.331,1.9351    C128.5638,125.3986,130.2964,123.3687,131.2478,121.2347z"/>
		<path class="st59" d="M56.8631,141.1736c0.0416-1.898,1.4826-3.1296,2.7316-4.3545c1.2334-1.2096,1.6469-2.5309,0.4203-3.9295    c-1.0362-1.1815-2.641-1.9571-4.2218-1.95c-1.7112,0.0077-3.3453,1.1337-4.587,2.2183c-2.5655,2.2409-4.0969,5.4024-3.9893,8.8376    c0.0899,2.8721,1.7605,6.6205,4.9572,7.0792c1.7968,0.2578,4.1284-0.4884,5.201-2.0188    C58.7269,145.1273,56.819,143.1882,56.8631,141.1736z"/>
		<path class="st59" d="M106.8176,169.7044c0.3083-1.7406,1.7596-2.7733,3.1152-3.7126c1.265-0.8766,2.2906-1.9412,1.5199-3.5414    c-0.7056-1.4651-2.2122-2.6036-3.7899-2.959c-1.715-0.3863-3.4957,0.3958-4.9448,1.2629c-3.006,1.7988-5.1163,4.755-5.5557,8.263    c-0.3659,2.9218,0.7757,6.9971,4.0045,7.832c1.7008,0.4398,4.0045,0.0531,5.2581-1.2534    C108.0554,173.8964,106.4662,171.6886,106.8176,169.7044z"/>
		<path class="st59" d="M143.5589,135.6266c0.0416-1.8981,1.4826-3.1296,2.7316-4.3545c1.2334-1.2096,1.6469-2.5309,0.4203-3.9295    c-1.0362-1.1815-2.641-1.9571-4.2218-1.95c-1.7112,0.0077-3.3453,1.1337-4.587,2.2183c-2.5655,2.2409-4.0969,5.4024-3.9893,8.8376    c0.09,2.8721,1.7605,6.6205,4.9572,7.0792c1.7968,0.2578,4.1284-0.4884,5.201-2.0188    C145.4227,139.5803,143.5148,137.6412,143.5589,135.6266z"/>
		<path class="st59" d="M126.8618,91.0967c0.0416-1.8981,1.4826-3.1296,2.7316-4.3545c1.2334-1.2096,1.6469-2.5309,0.4203-3.9295    c-1.0362-1.1815-2.641-1.9571-4.2217-1.95c-1.7112,0.0077-3.3453,1.1337-4.587,2.2183c-2.5655,2.2409-4.0969,5.4024-3.9893,8.8376    c0.0899,2.8721,1.7605,6.6205,4.9572,7.0792c1.7968,0.2578,4.1284-0.4884,5.201-2.0188    C128.7256,95.0504,126.8178,93.1113,126.8618,91.0967z"/>
		<path class="st59" d="M101.9631,129.8662c0.055-2.5107,1.9609-4.1392,3.6153-5.7556c1.7071-1.6678,2.1478-3.4499,0.413-5.3174    c-1.417-1.5255-3.5714-2.509-5.6682-2.4209c-2.2667,0.0952-4.4372,1.656-6.0587,3.1309    c-3.2638,2.9687-5.1873,7.0764-5.0223,11.5261c0.1427,3.8474,2.4618,8.8603,6.7947,9.2892    c2.3487,0.2325,5.3773-0.7793,6.7003-2.8395C104.3509,134.9663,101.9065,132.4562,101.9631,129.8662z"/>
		<path class="st59" d="M81.5178,160.4448c-2.2391,1.3316-4.6785,0.4669-7.0027-0.066c-2.2113-0.507-3.8643,0.1598-4.5069,2.4593    c-0.5316,1.9024-0.2909,4.0969,0.7169,5.8045c1.1848,2.0073,3.636,3.0862,5.7791,3.7335    c4.3674,1.3192,9.0512,0.7902,12.8405-1.8279c3.0847-2.1313,6.0069-6.6044,4.2639-10.4349    c-1.0186-2.2386-3.6335-4.4243-6.197-4.3584C84.5338,155.829,83.6983,159.1479,81.5178,160.4448z"/>
		<path class="st59" d="M76.7486,59.8833c-1.5998,1.6014-2.8339,3.9409-3.4416,6.1025c-0.7091,2.5224-0.3387,4.96,0.6322,7.355    c-1.1034,1.9757-4.2894,2.874-6.3304,2.0379c-2.0793-0.8517-3.4164-3.1601-3.828-5.2747    c3.8848-3.8814,8.3327-7.272,12.8253-10.4136C76.6566,59.7542,76.7026,59.818,76.7486,59.8833z"/>
		<path class="st59" d="M58.1815,93.9737c-1.5305,1.4418-2.557,3.105-1.9086,5.2536c0.5847,1.9371,1.4133,3.7081-0.4735,5.2107    c-1.5298,1.2184-4.0114,1.7646-5.7913,0.8064c-1.7586-0.9468-2.9335-2.879-3.3772-4.7764c0,0,0,0,0-0.0015    c1.7602-3.8256,3.2764-7.7562,4.9375-11.6246c2.2719-1.5302,4.8598-1.7644,7.0505,0.0899    c0.7265,0.615,1.4881,1.5274,1.3697,2.5478C59.8662,92.5361,58.9014,93.2947,58.1815,93.9737z"/>
		<path class="st59" d="M39.9935,156.7565c0.0416-1.8981,1.4826-3.1296,2.7316-4.3545c1.2334-1.2096,1.6469-2.5309,0.4203-3.9295    c-1.0362-1.1815-2.641-1.9571-4.2218-1.95c-1.7112,0.0077-3.3453,1.1337-4.587,2.2183c-2.5655,2.2409-4.0969,5.4024-3.9893,8.8376    c0.0899,2.8721,1.7605,6.6205,4.9572,7.0792c1.7968,0.2578,4.1284-0.4884,5.201-2.0188    C41.8573,160.7102,39.9495,158.7711,39.9935,156.7565z"/>
		<path class="st59" d="M103.1033,41.3542c1.4386-1.7431,3.699-1.8952,5.7837-2.1014c1.8573-0.1837,3.4494-0.8137,3.5449-2.9258    c0.0824-1.8225-0.6869-3.7201-1.9354-5.0364c-1.5472-1.6311-3.8594-1.9666-6.0157-1.9652    c-4.6365,0.0031-9.0773,2.1197-11.66,6.0343c-2.0545,3.1142-2.8314,8.2225,0.5659,10.731    c1.6316,1.2048,4.1895,2.0035,6.1468,1.1679C101.9196,46.24,101.6285,43.1414,103.1033,41.3542z"/>
		<path class="st59" d="M94.863,19.9087c0.049,0.0119,0.098,0.0252,0.1469,0.0386c-1.1765,1.1768-1.3494,2.8818-2.0304,4.3267    c-0.7277,1.544-2.0925,2.2533-3.7766,2.1808c-1.8135-0.0781-3.7511-0.8853-4.9983-2.22c-1.2798-1.3697-1.6056-3.4031-1.456-5.2165    c0.6015-1.4519,1.7151-2.6161,3.3184-2.8123c1.4888-0.0761,2.8668,0.7522,4.1117,1.4665    C91.6807,18.5342,93.1772,19.4502,94.863,19.9087z"/>
		<path class="st59" d="M80.8787,64.5863c-1.6384,0-1.6354-2.5392,0-2.5392C82.5156,62.0471,82.5127,64.5863,80.8787,64.5863z"/>
		<path class="st59" d="M95.3646,52.3072c-3.46-0.6156-6.8653-1.5268-10.1703-2.7218c0.3086-0.6009,0.5847-1.2189,0.8385-1.8447    c1.9617-0.2252,4.3275-0.2035,6.144,0.6729C93.7309,49.1634,94.8359,50.6964,95.3646,52.3072z"/>
		<path class="st59" d="M115.1857,12.0432c-0.191,1.1258-1.3807,2.2777-2.0168,3.1284c-1.7606,0.1948-3.5595,0.7193-4.6376,2.2297    c-1.0552,1.4783-1.0275,3.56-2.2892,4.904c-2.349,2.5022-7.3168,0.4627-8.7686-2.0968c4.1503-0.133,7.4153-2.9048,10.4657-5.4035    c1.2467-1.0212,2.5353-2.0371,3.9995-2.7306c0.7808-0.3699,2.4508-1.0933,3.2041-0.3413    C115.2264,11.8002,115.1992,11.966,115.1857,12.0432z"/>
		<path class="st59" d="M33.0564,174.6263c-1.3009,1.2273-2.4221,2.7288-2.0717,4.6184c-1.6783-0.6646-3.0957-1.9021-3.8808-3.5395    c-1.0357-2.1601-0.4908-4.6419,0.3012-6.7881c2.1418-1.1429,4.5659-0.7978,6.3391,0.8942c0.6602,0.63,1.2708,1.4809,1.0965,2.4435    C34.6595,173.2558,33.7552,173.9673,33.0564,174.6263z"/>
		<g class="st23">
			<path class="st24" d="M86.0472,130.5967c2.2211,0,2.2223-3.5184,0-3.518C83.8261,127.0792,83.8249,130.5967,86.0472,130.5967z"/>
		</g>
		<g class="st23">
			<path class="st24" d="M122.0616,108.0982c2.2211,0,2.2223-3.5184,0-3.518C119.8405,104.5807,119.8393,108.0982,122.0616,108.0982     z"/>
		</g>
		<g class="st23">
			<path class="st24" d="M112.4318,89.034c2.2211,0,2.2223-3.5184,0-3.518C110.2107,85.5165,110.2095,89.034,112.4318,89.034z"/>
		</g>
		<g class="st23">
			<path class="st24" d="M93.4023,95.3622c2.2211,0,2.2223-3.5184,0-3.518C91.1812,91.8447,91.18,95.3622,93.4023,95.3622z"/>
		</g>
		<g class="st23">
			<path class="st24" d="M142.4213,123.9965c2.2211,0,2.2223-3.5184,0-3.518C140.2002,120.4789,140.199,123.9965,142.4213,123.9965z     "/>
		</g>
		<g class="st23">
			<path class="st24" d="M71.2363,117.2516c2.2211,0,2.2223-3.5184,0-3.518C69.0152,113.7341,69.0139,117.2516,71.2363,117.2516z"/>
		</g>
		<g class="st23">
			<path class="st24" d="M39.8504,119.5401c2.2211,0,2.2223-3.5184,0-3.518C37.6293,116.0226,37.628,119.5401,39.8504,119.5401z"/>
		</g>
		<g class="st23">
			<path class="st24" d="M81.2059,89.3006c2.2211,0,2.2223-3.5184,0-3.518C78.9848,85.7831,78.9836,89.3006,81.2059,89.3006z"/>
		</g>
		<g class="st23">
			<path class="st24" d="M88.2128,71.8896c2.2211,0,2.2223-3.5184,0-3.518C85.9918,68.372,85.9905,71.8896,88.2128,71.8896z"/>
		</g>
		<g class="st23">
			<path class="st24" d="M130.5557,43.5104c2.2211,0,2.2223-3.5184,0-3.518C128.3346,39.9928,128.3334,43.5104,130.5557,43.5104z"/>
		</g>
		<g class="st23">
			<path class="st24" d="M100.8196,29.4935c2.2211,0,2.2223-3.5184,0-3.518C98.5985,25.9759,98.5973,29.4935,100.8196,29.4935z"/>
		</g>
		<g class="st23">
			<path class="st24" d="M115.4678,47.3427c2.2211,0,2.2223-3.5184,0-3.518C113.2467,43.8252,113.2454,47.3427,115.4678,47.3427z"/>
		</g>
		<g class="st23">
			<path class="st24" d="M118.3926,28.2211c2.2211,0,2.2223-3.5184,0-3.518C116.1716,24.7035,116.1703,28.2211,118.3926,28.2211z"/>
		</g>
		<g class="st23">
			<path class="st24" d="M98.2122,37.3618c2.2211,0,2.2223-3.5184,0-3.518C95.9911,33.8443,95.9899,37.3618,98.2122,37.3618z"/>
		</g>
		<g class="st23">
			<path class="st24" d="M100.0538,25.1401c2.2211,0,2.2223-3.5184,0-3.518C97.8328,21.6225,97.8315,25.1401,100.0538,25.1401z"/>
		</g>
		<g class="st23">
			<path class="st24" d="M67.4702,87.2751c2.2211,0,2.2223-3.5184,0-3.518C65.2492,83.7575,65.2479,87.2751,67.4702,87.2751z"/>
		</g>
		<g class="st23">
			<path class="st24" d="M93.4023,88.3118c2.2211,0,2.2223-3.5184,0-3.518C91.1812,84.7942,91.18,88.3118,93.4023,88.3118z"/>
		</g>
		<g class="st23">
			<path class="st24" d="M58.2912,118.3317c2.2211,0,2.2223-3.5184,0-3.518C56.0701,114.8141,56.0689,118.3317,58.2912,118.3317z"/>
		</g>
		<g class="st23">
			<path class="st24" d="M56.5921,154.5186c2.2211,0,2.2223-3.5184,0-3.518C54.371,151.0011,54.3698,154.5186,56.5921,154.5186z"/>
		</g>
		<g class="st23">
			<path class="st24" d="M86.7297,178.3448c2.2211,0,2.2223-3.5184,0-3.518C84.5086,174.8273,84.5074,178.3448,86.7297,178.3448z"/>
		</g>
		<g class="st23">
			<path class="st24" d="M133.7169,162.317c2.2211,0,2.2223-3.5184,0-3.518C131.4958,158.7995,131.4946,162.317,133.7169,162.317z"/>
		</g>
		<g class="st23">
			<path class="st24" d="M151.8114,175.5491c2.2211,0,2.2223-3.5184,0-3.518C149.5904,172.0316,149.5891,175.5491,151.8114,175.5491     z"/>
		</g>
		<g class="st23">
			<path class="st24" d="M131.0281,136.2424c2.2211,0,2.2223-3.5184,0-3.518C128.807,132.7248,128.8058,136.2424,131.0281,136.2424z     "/>
		</g>
		<g class="st23">
			<path class="st24" d="M101.6991,150.0859c2.2211,0,2.2223-3.5184,0-3.518C99.478,146.5684,99.4768,150.0859,101.6991,150.0859z"/>
		</g>
		<g class="st23">
			<path class="st24" d="M111.7514,149.3051c2.2211,0,2.2223-3.5184,0-3.518C109.5303,145.7876,109.5291,149.3051,111.7514,149.3051     z"/>
		</g>
		<g class="st23">
			<path class="st24" d="M100.8196,161.0128c2.2211,0,2.2223-3.5184,0-3.518C98.5985,157.4952,98.5973,161.0128,100.8196,161.0128z"/>
		</g>
		<g class="st23">
			<path class="st24" d="M69.1693,72.0561c2.2211,0,2.2223-3.5184,0-3.518C66.9483,68.5386,66.947,72.0561,69.1693,72.0561z"/>
		</g>
		<g class="st23">
			<path class="st24" d="M50.6186,101.4891c2.2211,0,2.2223-3.5184,0-3.518C48.3975,97.9715,48.3963,101.4891,50.6186,101.4891z"/>
		</g>
		<g class="st23">
			<path class="st24" d="M53.1938,126.1447c2.2211,0,2.2223-3.5184,0-3.518C50.9727,122.6272,50.9715,126.1447,53.1938,126.1447z"/>
		</g>
		<g class="st23">
			<path class="st24" d="M37.1498,150.0859c2.2211,0,2.2223-3.5184,0-3.518C34.9287,146.5684,34.9275,150.0859,37.1498,150.0859z"/>
		</g>
		<g class="st23">
			<path class="st24" d="M37.1068,179.044c2.2211,0,2.2223-3.5184,0-3.518C34.8857,175.5265,34.8845,179.044,37.1068,179.044z"/>
		</g>
		<g class="st23">
			<path class="st24" d="M61.217,167.1048c2.2211,0,2.2223-3.5184,0-3.518C58.9959,163.5873,58.9947,167.1048,61.217,167.1048z"/>
		</g>
		<g class="st23">
			<path class="st24" d="M78.1522,167.1048c2.2211,0,2.2223-3.5184,0-3.518C75.9311,163.5873,75.9298,167.1048,78.1522,167.1048z"/>
		</g>
		<g class="st23">
			<path class="st24" d="M95.4172,185.9959c2.2211,0,2.2223-3.5184,0-3.518C93.1961,182.4784,93.1949,185.9959,95.4172,185.9959z"/>
		</g>
		<g class="st23">
			<path class="st24" d="M102.5187,168.8638c2.2211,0,2.2223-3.5184,0-3.518C100.2977,165.3463,100.2964,168.8638,102.5187,168.8638     z"/>
		</g>
		<g class="st23">
			<path class="st24" d="M131.0281,184.2369c2.2211,0,2.2223-3.5184,0-3.518C128.807,180.7194,128.8058,184.2369,131.0281,184.2369z     "/>
		</g>
		<g class="st23">
			<path class="st24" d="M155.4856,166.4703c2.2211,0,2.2223-3.5184,0-3.518C153.2645,162.9527,153.2633,166.4703,155.4856,166.4703     z"/>
		</g>
		<g class="st23">
			<path class="st24" d="M127.4163,154.5186c2.2211,0,2.2223-3.5184,0-3.518C125.1952,151.0011,125.194,154.5186,127.4163,154.5186z     "/>
		</g>
		<g class="st23">
			<path class="st24" d="M115.9392,135.7173c2.2211,0,2.2223-3.5184,0-3.518C113.7181,132.1998,113.7169,135.7173,115.9392,135.7173     z"/>
		</g>
		<g class="st23">
			<path class="st24" d="M90.2098,141.7894c2.2211,0,2.2223-3.5184,0-3.518C87.9887,138.2718,87.9875,141.7894,90.2098,141.7894z"/>
		</g>
		<g class="st23">
			<path class="st24" d="M100.0537,120.81c2.2211,0,2.2223-3.5184,0-3.518C97.8326,117.2925,97.8314,120.81,100.0537,120.81z"/>
		</g>
		<g class="st23">
			<path class="st24" d="M82.1047,116.2433c2.2211,0,2.2223-3.5184,0-3.518C79.8836,112.7257,79.8824,116.2433,82.1047,116.2433z"/>
		</g>
		<g class="st23">
			<path class="st24" d="M103.821,98.3911c2.2211,0,2.2223-3.5184,0-3.518C101.6,94.8736,101.5987,98.3911,103.821,98.3911z"/>
		</g>
		<g class="st23">
			<path class="st24" d="M143.4157,132.1703c2.2211,0,2.2223-3.5184,0-3.518C141.1947,128.6528,141.1934,132.1703,143.4157,132.1703     z"/>
		</g>
		<g class="st23">
			<path class="st24" d="M125.7172,69.874c2.2211,0,2.2223-3.5184,0-3.518C123.4961,66.3565,123.4949,69.874,125.7172,69.874z"/>
		</g>
		<g class="st25">
			<path class="st24" d="M70.4107,85.5161c2.2211,0,2.2223-3.5184,0-3.518C68.1896,81.9986,68.1883,85.5161,70.4107,85.5161z"/>
		</g>
		<g class="st25">
			<path class="st24" d="M54.893,116.5727c2.2211,0,2.2223-3.5184,0-3.518C52.6719,113.0551,52.6706,116.5727,54.893,116.5727z"/>
		</g>
		<g class="st25">
			<path class="st24" d="M54.893,151.8449c2.2211,0,2.2223-3.5184,0-3.518C52.6719,148.3274,52.6706,151.8449,54.893,151.8449z"/>
		</g>
		<g class="st25">
			<path class="st24" d="M86.0472,175.5491c2.2211,0,2.2223-3.5184,0-3.518C83.8261,172.0316,83.8248,175.5491,86.0472,175.5491z"/>
		</g>
		<g class="st25">
			<path class="st24" d="M135.4161,164.7113c2.2211,0,2.2223-3.5184,0-3.518C133.1949,161.1937,133.1937,164.7113,135.4161,164.7113     z"/>
		</g>
		<g class="st25">
			<path class="st24" d="M100,151.8449c2.2211,0,2.2223-3.5184,0-3.518C97.7789,148.3274,97.7776,151.8449,100,151.8449z"/>
		</g>
		<g class="st25">
			<path class="st24" d="M85.0306,127.9037c2.2211,0,2.2223-3.5184,0-3.518C82.8095,124.3861,82.8082,127.9037,85.0306,127.9037z"/>
		</g>
		<g class="st25">
			<path class="st24" d="M120.339,105.5584c2.2211,0,2.2223-3.5184,0-3.518C118.1178,102.0409,118.1165,105.5584,120.339,105.5584z"/>
		</g>
		<g class="st25">
			<path class="st24" d="M113.2387,49.1017c2.2211,0,2.2223-3.5184,0-3.518C111.0176,45.5842,111.0163,49.1017,113.2387,49.1017z"/>
		</g>
		<g class="st25">
			<path class="st24" d="M120.3626,29.4935c2.2211,0,2.2223-3.5184,0-3.518C118.1414,25.9759,118.1402,29.4935,120.3626,29.4935z"/>
		</g>
		<g class="st25">
			<path class="st24" d="M102.5188,23.8507c2.2211,0,2.2223-3.5184,0-3.518C100.2976,20.3332,100.2964,23.8507,102.5188,23.8507z"/>
		</g>
		<g class="st25">
			<path class="st24" d="M97.0742,40.2138c2.2211,0,2.2223-3.5184,0-3.518C94.8531,36.6962,94.8518,40.2138,97.0742,40.2138z"/>
		</g>
		<g class="st25">
			<path class="st24" d="M90.7018,85.5161c2.2211,0,2.2223-3.5184,0-3.518C88.4807,81.9986,88.4794,85.5161,90.7018,85.5161z"/>
		</g>
		<g class="st25">
			<path class="st24" d="M131.0281,140.0304c2.2211,0,2.2223-3.5184,0-3.518C128.807,136.5128,128.8057,140.0304,131.0281,140.0304z     "/>
		</g>
		<g class="st25">
			<path class="st24" d="M155.0132,175.5491c2.2211,0,2.2223-3.5184,0-3.518C152.7921,172.0316,152.7908,175.5491,155.0132,175.5491     z"/>
		</g>
		<g class="st26">
			<path class="st24" d="M83.3315,96.143c1.6026,0,1.6038-2.5402,0-2.5398C81.7294,93.6036,81.7269,96.143,83.3315,96.143z"/>
		</g>
		<g class="st26">
			<path class="st24" d="M98.3009,110.638c1.6027,0,1.6038-2.5402,0-2.5398C96.6989,108.0986,96.6964,110.638,98.3009,110.638z"/>
		</g>
		<g class="st26">
			<path class="st24" d="M117.1659,93.6032c1.6027,0,1.6038-2.5402,0-2.5398C115.5639,91.0638,115.5614,93.6032,117.1659,93.6032z"/>
		</g>
		<g class="st26">
			<path class="st24" d="M119.9028,42.0402c1.6026,0,1.6038-2.5402,0-2.5398C118.3008,39.5008,118.2983,42.0402,119.9028,42.0402z"/>
		</g>
		<g class="st26">
			<path class="st24" d="M95.5791,30.7634c1.6026,0,1.6038-2.5402,0-2.5398C93.9771,28.2239,93.9746,30.7634,95.5791,30.7634z"/>
		</g>
		<g class="st26">
			<path class="st24" d="M113.6585,25.973c1.6026,0,1.6038-2.5402,0-2.5398C112.0565,23.4336,112.054,25.973,113.6585,25.973z"/>
		</g>
		<g class="st26">
			<path class="st24" d="M99.1192,51.3494c1.6027,0,1.6038-2.5402,0-2.5398C97.5172,48.81,97.5147,51.3494,99.1192,51.3494z"/>
		</g>
		<g class="st26">
			<path class="st24" d="M139.3822,92.3333c1.6027,0,1.6038-2.5402,0-2.5398C137.7802,89.7939,137.7777,92.3333,139.3822,92.3333z"/>
		</g>
		<g class="st26">
			<path class="st24" d="M120.9878,66.5893c1.6026,0,1.6038-2.5402,0-2.5398C119.3858,64.0499,119.3833,66.5893,120.9878,66.5893z"/>
		</g>
		<g class="st26">
			<path class="st24" d="M80.8787,64.5863c-1.6384,0-1.6354-2.5392,0-2.5392C82.5156,62.0471,82.5127,64.5863,80.8787,64.5863z"/>
		</g>
		<g class="st26">
			<path class="st24" d="M59.9903,102.2699c1.6027,0,1.6038-2.5402,0-2.5398C58.3883,99.7305,58.3858,102.2699,59.9903,102.2699z"/>
		</g>
		<g class="st26">
			<path class="st24" d="M58.2912,135.7533c1.6026,0,1.6038-2.5402,0-2.5398C56.6892,133.2139,56.6867,135.7533,58.2912,135.7533z"/>
		</g>
		<g class="st26">
			<path class="st24" d="M38.3335,146.1693c1.6026,0,1.6038-2.5402,0-2.5398C36.7315,143.6299,36.729,146.1693,38.3335,146.1693z"/>
		</g>
		<g class="st26">
			<path class="st24" d="M30.9588,176.0968c1.6026,0,1.6038-2.5402,0-2.5398C29.3567,173.5573,29.3543,176.0968,30.9588,176.0968z"/>
		</g>
		<g class="st26">
			<path class="st24" d="M63.8367,171.0963c1.6027,0,1.6038-2.5402,0-2.5398C62.2347,168.5569,62.2322,171.0963,63.8367,171.0963z"/>
		</g>
		<g class="st26">
			<path class="st24" d="M90.7018,159.2538c1.6026,0,1.6038-2.5402,0-2.5398C89.0997,156.7144,89.0973,159.2538,90.7018,159.2538z"/>
		</g>
		<g class="st26">
			<path class="st24" d="M129.329,120.321c1.6027,0,1.6038-2.5402,0-2.5398C127.727,117.7815,127.7245,120.321,129.329,120.321z"/>
		</g>
		<g class="st26">
			<path class="st24" d="M117.1659,163.5869c1.6027,0,1.6038-2.5402,0-2.5398     C115.5639,161.0475,115.5614,163.5869,117.1659,163.5869z"/>
		</g>
		<g class="st26">
			<path class="st24" d="M151.8115,159.2538c1.6026,0,1.6038-2.5402,0-2.5398C150.2094,156.7144,150.207,159.2538,151.8115,159.2538     z"/>
		</g>
		<g class="st26">
			<path class="st24" d="M156.7123,150.0859c1.6026,0,1.6038-2.5402,0-2.5398     C155.1103,147.5465,155.1078,150.0859,156.7123,150.0859z"/>
		</g>
		<g class="st26">
			<path class="st24" d="M112.012,187.1986c1.6026,0,1.6038-2.5402,0-2.5398C110.41,184.6591,110.4075,187.1986,112.012,187.1986z"/>
		</g>
		<g class="st26">
			<path class="st24" d="M164.8616,174.8269c3.5305,0,3.5313-5.5871,0-5.5914     C161.3318,169.2313,161.3293,174.8269,164.8616,174.8269z"/>
		</g>
		<g class="st26">
			<path class="st24" d="M112.541,179.0233c3.5305,0,3.5313-5.5871,0-5.5913C109.0112,173.4277,109.0087,179.0233,112.541,179.0233z     "/>
		</g>
		<g class="st26">
			<path class="st24" d="M43.7347,172.0312c3.5305,0,3.5313-5.5871,0-5.5914C40.2049,166.4356,40.2023,172.0312,43.7347,172.0312z"/>
		</g>
		<g class="st26">
			<path class="st24" d="M39.8504,128.8377c3.5305,0,3.5313-5.5871,0-5.5913C36.3206,123.2422,36.318,128.8377,39.8504,128.8377z"/>
		</g>
		<g class="st26">
			<path class="st24" d="M70.1708,153.9183c3.5305,0,3.5313-5.5871,0-5.5914C66.641,148.3228,66.6385,153.9183,70.1708,153.9183z"/>
		</g>
		<g class="st26">
			<path class="st24" d="M143.4158,142.1038c3.5305,0,3.5313-5.5871,0-5.5914C139.886,136.5082,139.8834,142.1038,143.4158,142.1038     z"/>
		</g>
		<g class="st26">
			<path class="st24" d="M109.8405,125.617c3.5305,0,3.5313-5.5871,0-5.5913C106.3107,120.0214,106.3081,125.617,109.8405,125.617z"/>
		</g>
		<g class="st26">
			<path class="st24" d="M70.4107,105.8101c3.5305,0,3.5313-5.5871,0-5.5913C66.8809,100.2146,66.8783,105.8101,70.4107,105.8101z"/>
		</g>
		<g class="st26">
			<path class="st24" d="M123.6884,86.5528c3.5305,0,3.5313-5.5871,0-5.5913C120.1586,80.9572,120.156,86.5528,123.6884,86.5528z"/>
		</g>
		<g class="st26">
			<path class="st24" d="M93.4023,68.9081c3.5305,0,3.5313-5.5871,0-5.5913C89.8725,63.3125,89.87,68.9081,93.4023,68.9081z"/>
		</g>
		<g class="st26">
			<path class="st24" d="M133.7145,39.2649c3.5305,0,3.5313-5.5871,0-5.5913C130.1846,33.6694,130.1821,39.2649,133.7145,39.2649z"/>
		</g>
		<g class="st26">
			<path class="st24" d="M110.0667,36.4692c3.5305,0,3.5313-5.5871,0-5.5913C106.5368,30.8737,106.5343,36.4692,110.0667,36.4692z"/>
		</g>
		<g class="st26">
			<path class="st24" d="M89.2331,24.1267c3.5305,0,3.5313-5.5871,0-5.5913C85.7033,18.5312,85.7008,24.1267,89.2331,24.1267z"/>
		</g>
		<g class="st26">
			<path class="st24" d="M92.4009,49.3805c3.5305,0,3.5313-5.5871,0-5.5913C88.8711,43.7849,88.8685,49.3805,92.4009,49.3805z"/>
		</g>
		<g class="st27">
			<path class="st24" d="M41.0341,174.8269c3.5305,0,3.5313-5.5871,0-5.5914C37.5043,169.2313,37.5017,174.8269,41.0341,174.8269z"/>
		</g>
		<g class="st27">
			<path class="st24" d="M71.6236,156.714c3.5305,0,3.5313-5.5871,0-5.5913C68.0938,151.1184,68.0912,156.714,71.6236,156.714z"/>
		</g>
		<g class="st27">
			<path class="st24" d="M43.4149,132.4061c3.5305,0,3.5313-5.5872,0-5.5914C39.8851,126.8105,39.8825,132.4061,43.4149,132.4061z"/>
		</g>
		<g class="st27">
			<path class="st24" d="M115.9393,176.1749c3.5305,0,3.5313-5.5871,0-5.5913     C112.4094,170.5793,112.4069,176.1749,115.9393,176.1749z"/>
		</g>
		<g class="st27">
			<path class="st24" d="M168.3265,172.0312c3.5305,0,3.5313-5.5871,0-5.5914     C164.7967,166.4356,164.7942,172.0312,168.3265,172.0312z"/>
		</g>
		<g class="st27">
			<path class="st24" d="M147.7047,144.8994c3.5305,0,3.5313-5.5871,0-5.5914     C144.1749,139.3039,144.1723,144.8994,147.7047,144.8994z"/>
		</g>
		<g class="st27">
			<path class="st24" d="M107.3723,130.6993c3.5305,0,3.5313-5.5871,0-5.5914     C103.8425,125.1038,103.8399,130.6993,107.3723,130.6993z"/>
		</g>
		<g class="st27">
			<path class="st24" d="M71.6236,108.6058c3.5305,0,3.5313-5.5871,0-5.5913C68.0938,103.0103,68.0912,108.6058,71.6236,108.6058z"/>
		</g>
		<g class="st27">
			<path class="st24" d="M96.4187,70.9107c3.5305,0,3.5313-5.5871,0-5.5913C92.8889,65.3152,92.8863,70.9107,96.4187,70.9107z"/>
		</g>
		<g class="st27">
			<path class="st24" d="M95.5791,47.3427c3.5305,0,3.5313-5.5871,0-5.5914C92.0493,41.7472,92.0467,47.3427,95.5791,47.3427z"/>
		</g>
		<g class="st27">
			<path class="st24" d="M91.2981,26.1767c3.5305,0,3.5313-5.5871,0-5.5913C87.7683,20.5812,87.7658,26.1767,91.2981,26.1767z"/>
		</g>
		<g class="st27">
			<path class="st24" d="M112.7672,34.3691c3.5305,0,3.5313-5.5871,0-5.5913C109.2374,28.7735,109.2349,34.3691,112.7672,34.3691z"/>
		</g>
		<g class="st27">
			<path class="st24" d="M128.3503,39.153c3.5305,0,3.5313-5.5871,0-5.5913C124.8205,33.5574,124.8179,39.153,128.3503,39.153z"/>
		</g>
		<g class="st27">
			<path class="st24" d="M123.6884,82.7832c3.5305,0,3.5313-5.5871,0-5.5913C120.1586,77.1876,120.156,82.7832,123.6884,82.7832z"/>
		</g>
		<path class="st24" d="M105.7332,77.6807l2.929-2.0569c-0.6263-0.0602-1.2526-0.1204-1.8789-0.1806    c-0.5534-0.0532-1.4604,0.0354-1.9657-0.255c-0.5042-0.2898-0.8765-1.1308-1.191-1.5822    c-0.3598-0.5166-0.7196-1.0332-1.0794-1.5498c-0.0602,0.6263-0.1204,1.2526-0.1805,1.8789    c-0.0527,0.5482,0.0381,1.4671-0.2574,1.9651c-0.2934,0.4944-1.1451,0.8768-1.5901,1.1894    c-0.5132,0.3605-1.0264,0.721-1.5396,1.0815c0.6242,0.0616,1.2484,0.1231,1.8726,0.1847c0.5456,0.0538,1.4723-0.0266,1.9685,0.265    c0.4739,0.2786,0.8343,1.0689,1.1356,1.4979c0.3793,0.5401,0.7587,1.0801,1.138,1.6202c0.0634-0.659,0.1267-1.3181,0.1901-1.9771    C105.3317,79.2715,105.2378,78.006,105.7332,77.6807z"/>
		<path class="st24" d="M87.9594,111.4347l2.929-2.0569c-0.6263-0.0602-1.2526-0.1204-1.8789-0.1806    c-0.5534-0.0532-1.4604,0.0354-1.9657-0.255c-0.5042-0.2898-0.8765-1.1308-1.191-1.5822    c-0.3598-0.5166-0.7196-1.0332-1.0794-1.5498c-0.0602,0.6263-0.1204,1.2526-0.1805,1.8789    c-0.0527,0.5482,0.0381,1.4671-0.2574,1.9651c-0.2934,0.4944-1.1451,0.8768-1.5901,1.1894    c-0.5132,0.3605-1.0264,0.721-1.5396,1.0815c0.6242,0.0616,1.2484,0.1231,1.8726,0.1847c0.5456,0.0538,1.4723-0.0266,1.9685,0.265    c0.4739,0.2786,0.8343,1.0689,1.1356,1.4979c0.3793,0.5401,0.7587,1.0801,1.138,1.6202c0.0634-0.659,0.1267-1.3181,0.1901-1.9772    C87.5578,113.0255,87.4639,111.7601,87.9594,111.4347z"/>
		<path class="st24" d="M125.1461,127.862l2.929-2.0569c-0.6263-0.0602-1.2526-0.1204-1.8789-0.1806    c-0.5534-0.0532-1.4604,0.0354-1.9657-0.255c-0.5042-0.2898-0.8765-1.1308-1.191-1.5822    c-0.3598-0.5166-0.7196-1.0332-1.0794-1.5498c-0.0602,0.6263-0.1204,1.2526-0.1806,1.8789    c-0.0527,0.5482,0.0381,1.4671-0.2574,1.9651c-0.2934,0.4944-1.1451,0.8768-1.5901,1.1894    c-0.5132,0.3605-1.0264,0.721-1.5396,1.0815c0.6242,0.0616,1.2484,0.1231,1.8726,0.1847c0.5456,0.0538,1.4723-0.0266,1.9685,0.265    c0.4739,0.2785,0.8343,1.0689,1.1356,1.4979c0.3793,0.5401,0.7587,1.0801,1.138,1.6202c0.0634-0.6591,0.1267-1.3181,0.1901-1.9772    C124.7446,129.4529,124.6507,128.1874,125.1461,127.862z"/>
		<path class="st24" d="M128.3011,169.3398l2.929-2.0569c-0.6263-0.0602-1.2526-0.1204-1.8789-0.1806    c-0.5534-0.0532-1.4604,0.0354-1.9657-0.255c-0.5042-0.2898-0.8766-1.1308-1.191-1.5822    c-0.3598-0.5166-0.7196-1.0332-1.0794-1.5498c-0.0602,0.6263-0.1204,1.2526-0.1806,1.8788    c-0.0527,0.5482,0.0381,1.4671-0.2574,1.9651c-0.2934,0.4944-1.1451,0.8768-1.5901,1.1893    c-0.5132,0.3605-1.0264,0.721-1.5396,1.0815c0.6242,0.0616,1.2484,0.1231,1.8726,0.1847c0.5456,0.0538,1.4723-0.0266,1.9685,0.265    c0.4739,0.2785,0.8343,1.0689,1.1356,1.4979c0.3793,0.5401,0.7587,1.0801,1.1381,1.6202c0.0634-0.659,0.1267-1.3181,0.1901-1.9771    C127.8996,170.9306,127.8057,169.6652,128.3011,169.3398z"/>
		<path class="st24" d="M50.1683,134.7417l2.929-2.057c-0.6263-0.0602-1.2526-0.1204-1.8789-0.1806    c-0.5534-0.0532-1.4605,0.0354-1.9657-0.255c-0.5042-0.2898-0.8765-1.1308-1.191-1.5822    c-0.3598-0.5166-0.7196-1.0332-1.0794-1.5498c-0.0602,0.6263-0.1204,1.2526-0.1806,1.8789    c-0.0527,0.5482,0.0381,1.4671-0.2574,1.9651c-0.2934,0.4944-1.1451,0.8768-1.5901,1.1894    c-0.5132,0.3605-1.0264,0.721-1.5396,1.0815c0.6242,0.0616,1.2484,0.1231,1.8726,0.1847c0.5456,0.0538,1.4723-0.0266,1.9685,0.265    c0.4739,0.2785,0.8343,1.0689,1.1356,1.4979c0.3793,0.5401,0.7587,1.0801,1.1381,1.6202    c0.0634-0.6591,0.1267-1.3181,0.1901-1.9772C49.7668,136.3325,49.6729,135.067,50.1683,134.7417z"/>
		<path class="st24" d="M84.0169,152.6282l2.929-2.0569c-0.6263-0.0602-1.2526-0.1204-1.8789-0.1806    c-0.5534-0.0532-1.4604,0.0354-1.9657-0.255c-0.5042-0.2898-0.8766-1.1308-1.191-1.5822    c-0.3598-0.5166-0.7196-1.0332-1.0794-1.5498c-0.0602,0.6263-0.1204,1.2526-0.1806,1.8789    c-0.0527,0.5482,0.0381,1.4671-0.2574,1.9651c-0.2934,0.4944-1.1451,0.8768-1.5901,1.1894    c-0.5132,0.3605-1.0264,0.721-1.5396,1.0815c0.6242,0.0616,1.2484,0.1231,1.8726,0.1847c0.5456,0.0538,1.4723-0.0266,1.9685,0.265    c0.4739,0.2785,0.8343,1.0689,1.1356,1.4979c0.3794,0.5401,0.7587,1.0801,1.1381,1.6202    c0.0634-0.6591,0.1267-1.3181,0.1901-1.9772C83.6154,154.2191,83.5215,152.9536,84.0169,152.6282z"/>
		<path class="st24" d="M67.3683,76.0071l-2.0575-1.4449c0.7489-0.072,2.0411,0.0749,2.7006-0.306    c0.6593-0.3808,1.1649-1.5829,1.5948-2.2001c0.0715,0.744-0.0772,2.0481,0.3077,2.7002c0.3863,0.6545,1.5836,1.1633,2.1984,1.5951    c-0.7438,0.0734-2.0483-0.0723-2.7012,0.3114c-0.6545,0.3847-1.1627,1.5805-1.5941,2.1947    C67.7601,78.2664,67.9181,76.3682,67.3683,76.0071z"/>
		<path class="st24" d="M97.6366,96.6933l-2.0575-1.4449c0.7489-0.072,2.0411,0.0749,2.7006-0.3059    c0.6593-0.3808,1.1649-1.5829,1.5948-2.2001c0.0715,0.744-0.0772,2.0481,0.3076,2.7002c0.3863,0.6545,1.5836,1.1633,2.1984,1.5951    c-0.7438,0.0733-2.0483-0.0723-2.7012,0.3114c-0.6545,0.3847-1.1627,1.5805-1.5941,2.1947    C98.0284,98.9526,98.1864,97.0544,97.6366,96.6933z"/>
		<path class="st24" d="M111.8955,109.1561l-2.0575-1.4449c0.7489-0.072,2.0411,0.0749,2.7006-0.3059    c0.6593-0.3808,1.1649-1.5829,1.5948-2.2001c0.0715,0.744-0.0772,2.0481,0.3076,2.7002c0.3863,0.6545,1.5836,1.1633,2.1984,1.5951    c-0.7438,0.0734-2.0483-0.0723-2.7012,0.3114c-0.6545,0.3847-1.1627,1.5805-1.5941,2.1947    C112.2873,111.4154,112.4452,109.5171,111.8955,109.1561z"/>
		<path class="st24" d="M98.1844,136.2676l-2.0575-1.4449c0.7489-0.072,2.0411,0.0749,2.7006-0.306    c0.6593-0.3808,1.1649-1.5829,1.5948-2.2001c0.0715,0.744-0.0772,2.0481,0.3077,2.7002c0.3863,0.6545,1.5836,1.1633,2.1984,1.5951    c-0.7438,0.0734-2.0483-0.0723-2.7012,0.3114c-0.6545,0.3847-1.1627,1.5805-1.5941,2.1947    C98.5762,138.5269,98.7341,136.6286,98.1844,136.2676z"/>
		<path class="st24" d="M52.6761,161.1082l-2.0575-1.4449c0.7489-0.072,2.0411,0.0749,2.7006-0.306    c0.6593-0.3808,1.1649-1.5829,1.5948-2.2001c0.0715,0.744-0.0772,2.0481,0.3077,2.7002c0.3863,0.6545,1.5836,1.1633,2.1984,1.5951    c-0.7438,0.0733-2.0483-0.0723-2.7012,0.3114c-0.6545,0.3847-1.1627,1.5805-1.5941,2.1947    C53.0679,163.3676,53.2259,161.4693,52.6761,161.1082z"/>
		<path class="st24" d="M59.8738,109.9184l-2.0575-1.4449c0.7489-0.072,2.0411,0.0749,2.7006-0.3059    c0.6593-0.3808,1.1649-1.5829,1.5948-2.2001c0.0715,0.744-0.0772,2.0481,0.3077,2.7002c0.3863,0.6545,1.5836,1.1633,2.1984,1.5951    c-0.7438,0.0733-2.0483-0.0723-2.7012,0.3114c-0.6545,0.3847-1.1627,1.5805-1.5941,2.1947    C60.2656,112.1777,60.4235,110.2795,59.8738,109.9184z"/>
		<path class="st24" d="M90.36,177.8353l-2.0575-1.4449c0.7489-0.072,2.0411,0.0749,2.7006-0.306    c0.6593-0.3808,1.1649-1.5829,1.5948-2.2001c0.0715,0.744-0.0772,2.0481,0.3077,2.7002c0.3863,0.6545,1.5836,1.1633,2.1984,1.5951    c-0.7438,0.0733-2.0483-0.0723-2.7012,0.3114c-0.6545,0.3847-1.1627,1.5805-1.5941,2.1947    C90.7518,180.0947,90.9098,178.1964,90.36,177.8353z"/>
		<path class="st24" d="M113.8983,155.0689l-2.0575-1.4449c0.7489-0.072,2.0411,0.0749,2.7006-0.3059    c0.6593-0.3808,1.1649-1.5829,1.5948-2.2001c0.0715,0.744-0.0772,2.0481,0.3076,2.7002c0.3863,0.6545,1.5836,1.1633,2.1984,1.5952    c-0.7438,0.0733-2.0483-0.0723-2.7012,0.3114c-0.6545,0.3847-1.1627,1.5805-1.5941,2.1947    C114.2902,157.3282,114.4481,155.43,113.8983,155.0689z"/>
		<path class="st24" d="M144.7731,162.8672l-2.0575-1.4449c0.7489-0.072,2.0411,0.0749,2.7006-0.3059    c0.6593-0.3808,1.1649-1.5829,1.5948-2.2001c0.0715,0.744-0.0772,2.0481,0.3076,2.7002c0.3863,0.6545,1.5836,1.1633,2.1984,1.5952    c-0.7438,0.0733-2.0483-0.0723-2.7012,0.3114c-0.6546,0.3847-1.1627,1.5805-1.5941,2.1947    C145.1649,165.1266,145.3229,163.2283,144.7731,162.8672z"/>
		<path class="st24" d="M165.7696,161.5973l-2.0575-1.4449c0.7489-0.072,2.041,0.0749,2.7006-0.306    c0.6593-0.3808,1.1649-1.5829,1.5948-2.2001c0.0715,0.744-0.0772,2.0481,0.3077,2.7002c0.3863,0.6545,1.5836,1.1633,2.1984,1.5951    c-0.7438,0.0733-2.0483-0.0723-2.7012,0.3114c-0.6545,0.3847-1.1627,1.5805-1.5941,2.1947    C166.1614,163.8567,166.3193,161.9584,165.7696,161.5973z"/>
		<path class="st24" d="M135.7719,87.103l-2.0575-1.4449c0.7489-0.072,2.041,0.0749,2.7006-0.306    c0.6593-0.3808,1.1649-1.5829,1.5948-2.2001c0.0715,0.744-0.0772,2.0481,0.3076,2.7002c0.3863,0.6545,1.5836,1.1633,2.1984,1.5951    c-0.7438,0.0733-2.0483-0.0723-2.7012,0.3114c-0.6546,0.3847-1.1627,1.5805-1.5941,2.1947    C136.1638,89.3624,136.3217,87.4641,135.7719,87.103z"/>
	</g>
	<g>
		<path class="st28" d="M163.6124,164.0092c0.2939,1.1442-0.2766,0.4566-0.6491-0.1042c-0.4538-0.6833-0.8894-1.3784-1.3534-2.0554    c-1.1764-1.7164-2.4957-3.3407-3.9645-4.8162c-3.0073-3.0207-6.6317-5.4257-10.6139-6.9552    c-8.7105-3.3456-18.1635-1.3723-27.1763-2.8958c-4.0901-0.6914-8.4281-2.0898-11.4787-5.0309    c-0.2227-0.2147-1.2889-1.2079-0.8482-1.3243c0.2065-0.0545,0.7476,0.3932,0.9361,0.5076    c0.5234,0.3175,1.0528,0.6242,1.5898,0.918c1.8806,1.029,3.9249,1.7548,6.0062,2.255c8.8672,2.1311,18.1081-0.0172,26.997,1.9176    c4.9652,1.0808,9.6425,3.4775,13.4002,6.9013C159.5492,156.1438,162.5319,159.8883,163.6124,164.0092z"/>
		<path class="st28" d="M147.6951,168.5916c0.4837,0.743-7.0289,5.3409-7.6482,5.7143c-3.2059,1.9332-6.5686,3.6369-10.0667,4.9774    c-7.5312,2.8862-15.6963,4.0574-23.6527,2.4402c-1.8371-0.3734-3.6537-0.9382-5.3794-1.6707    c-0.341-0.1447-4.8745-2.2524-4.5217-2.8587c0.1826-0.3195,4.0735,1.2317,4.4699,1.3544c1.594,0.4935,3.2202,0.8602,4.8632,1.1466    c3.5292,0.6153,7.1743,0.6804,10.7358,0.3351c7.6106-0.738,14.7975-3.4554,21.616-6.7985    C138.88,172.8549,147.3465,168.0613,147.6951,168.5916z"/>
		<path class="st28" d="M143.4082,113.3079c0.0066,0.2468,0.1439,1.9551-0.2988,1.9337c-0.4782-0.0231-0.8697-1.8138-1.002-2.1814    c-0.6861-1.9076-1.3405-3.8163-2.1571-5.6738c-1.8339-4.1719-4.2393-8.0286-7.1449-11.5374    c-1.2509-1.5106-2.6185-2.9118-3.9728-4.3283c-0.1639-0.1715-1.6789-1.5267-1.3967-1.8305    c0.3268-0.3518,1.8085,0.626,2.0648,0.7796c3.6768,2.2042,6.7013,5.5458,9.0297,9.108    C141.1504,103.586,143.1487,108.4823,143.4082,113.3079z"/>
		<path class="st28" d="M137.7251,113.3772c0.8822,4.599,0.3253,9.2401-1.4196,13.5683c-0.1177,0.2918-0.759,2.1384-1.1507,1.9921    c-0.4291-0.1603-0.1265-1.6897-0.0875-2.031c0.2484-2.1736,0.6915-4.3168,0.7718-6.5089c0.1723-4.7017-0.7962-9.37-2.7983-13.6265    c-0.8926-1.8976-2.0043-3.6375-3.1141-5.4105c-0.1154-0.1843-0.741-0.9764-0.5929-1.2246c0.2612-0.4377,1.566,0.759,1.7485,0.9178    C134.6345,104.1456,136.8541,108.809,137.7251,113.3772z"/>
		<path class="st28" d="M116.9613,82.5337c0.0672,0.913,0.1051,1.834,0.063,2.7492c-0.0196,0.4262,0.0458,1.7881-0.5421,1.5285    c-0.4454-0.1966-0.6695-1.8416-0.7836-2.2856c-0.2923-1.1376-0.5515-2.2836-0.8578-3.4176    c-0.5678-2.1018-1.2758-4.1784-2.3894-6.0598c-1.0976-1.8544-2.6173-3.3963-4.053-4.9858    c-0.6068-0.6718-6.4674-7.4573-5.7365-7.7601c0.2897-0.12,1.0232,0.5314,1.2239,0.6771c0.8673,0.6296,1.6777,1.3424,2.4772,2.0546    c1.5549,1.3851,3.0605,2.8291,4.5303,4.3038c1.7484,1.7542,3.3145,3.6121,4.3334,5.8914    C116.257,77.5341,116.7573,80.0271,116.9613,82.5337z"/>
		<path class="st28" d="M114.1086,36.5507c0.4171,0.5213-1.7073,2.9551-1.9926,3.3685c-0.9484,1.3744-1.8261,2.8055-2.5613,4.3062    c-0.6832,1.3947-1.2544,2.8309-1.783,4.2897c-0.1782,0.4918-0.9822,3.4261-1.5867,2.1348    c-0.5051-1.0788-0.1921-2.7519,0.0217-3.8574c0.3141-1.6245,0.9047-3.2106,1.7067-4.6565    c0.7971-1.4372,1.811-2.7862,3.0268-3.8955C111.2479,37.9597,113.5865,35.8898,114.1086,36.5507z"/>
		<path class="st28" d="M104.6406,40.7957c0.624,0.2935,0.1585,2.0993,0.0928,2.5847c-0.1545,1.1414-0.3275,2.2797-0.4482,3.4256    c-0.1113,1.0568-0.1805,2.1191-0.3074,3.1741c-0.0591,0.4911-0.1376,2.0745-0.9525,1.5698    c-0.65-0.4025-0.8707-1.7072-0.9966-2.3981c-0.2094-1.1494-0.2141-2.3434-0.0413-3.4982    c0.1681-1.1233,0.4877-2.2565,1.0256-3.2615C103.2153,42.0139,104.014,40.4977,104.6406,40.7957z"/>
		<path class="st28" d="M91.1564,34.1137c0.2494,1.3814,0.1954,2.9115-0.2246,4.2575c-0.1063,0.3407-0.2886,1.1357-0.7622,0.9795    c-0.3944-0.1301-0.4845-1.3447-0.5463-1.6865c-0.2803-1.5496-0.5402-3.0268-1.1966-4.4723    c-0.7069-1.5567-1.6363-3.0008-2.3444-4.5568c-0.5317-1.1683-1.2281-2.8256-0.9038-4.1475    c0.3686-1.5024,1.3891,0.8416,1.6741,1.3263C88.4195,28.4782,90.595,30.9871,91.1564,34.1137z"/>
		<path class="st28" d="M81.8426,179.9828c0.4886,0.3015,2.0558,1.3486,0.5627,1.0944c-1.2477-0.2124-2.4855-0.7017-3.6837-1.0938    c-2.7644-0.9046-5.5306-1.8047-8.3569-2.4999c-6.0822-1.496-12.3281-1.8102-18.566-1.9183    c-2.4416-0.0423-4.9367,0.0415-7.3622-0.2753c-0.2113-0.0276-1.0659-0.0535-0.9908-0.3904    c0.0735-0.3297,1.5218-0.485,1.767-0.5309c5.76-1.0795,11.8986-1.2326,17.718-0.6311    C69.4993,174.4164,76.2026,176.4992,81.8426,179.9828z"/>
		<path class="st28" d="M75.7568,35.6068c-0.0052,0.0026-0.0092,0.0026-0.0131,0c-0.0052-0.0013-0.0078,0.0065-0.0118,0.0052    c-0.017-0.0013-0.0366,0.0157-0.0732,0.0314c-0.3903,0.2555-0.5616,0.7655-0.7034,1.1819    c-1.039,4.3288,2.3224,8.8628,4.7954,12.0801c0.3646,0.2638,0.716,0.5544,1.0904,0.804c0.3661-0.2628,0.7779-0.4563,1.2132-0.5713    c-0.4158-2.6387-0.8497-5.2455-1.8052-7.7536c-0.6847-1.7974-1.8042-4.5061-3.6583-5.4143    C76.4469,35.8725,75.8904,35.4955,75.7568,35.6068z M177.9687,165.833c0.2376,4.223-1.3152,8.8905-4.3132,11.9561    c-3.5623,3.6426-8.9998,4.8539-13.9122,5.1084c-2.5957,0.1345-5.2012,0.0927-7.7914,0.3286    c-2.8456,0.2591-5.4174,1.1147-8.0199,2.2644c-4.5867,2.0262-9.1791,3.8493-13.9895,5.2921    c-5.3399,1.6016-10.8787,2.7851-16.4599,3.0435c-5.1787,0.2397-10.3426-0.1384-15.4579-0.9633    c-10.7683-1.7365-21.1545-5.1599-31.8418-7.2717c-4.4259-0.8746-8.9203-1.562-13.4355-1.7077    c-2.4492-0.079-4.8956-0.0421-7.3374,0.1794c-2.9093,0.2639-5.8048,0.675-8.7322,0.6752    c-5.1605,0.0002-10.4642-1.4669-13.2147-6.2011c-2.5303-4.3552-1.2403-9.2507,0.7494-13.5459    c1.5707-3.3909,3.249-6.5406,4.4387-10.0946c1.8201-5.4376,2.8041-11.0429,2.7556-16.781    c-0.0429-5.0765-0.5392-10.1772,0.2587-15.2216c0.7191-4.5463,2.898-8.6721,5.2823-12.5445    c1.4709-2.3889,3.0436-4.717,4.4314-7.1565c1.309-2.3009,2.4507-4.6964,3.5503-7.1029    c2.3624-5.1699,4.5014-10.4446,7.2937-15.4059c5.2947-9.4076,13.828-16.3102,22.9219-21.8822    c1.8371-1.1257,3.7149-2.189,5.6441-3.1492c-0.2013-0.1503-0.3844-0.3177-0.5478-0.502c-2.0795,0.6226-4.2236,1.035-6.3826,1.2538    c-3.5828,0.8194-6.9581,2.0292-9.9727,4.1805c-2.812,2.0068-4.7051,4.681-6.9939,7.208    c-4.3655,4.8198-11.4132,8.3666-17.9064,5.8035c-1.6621,2.3731-5.4713,0.4916-4.6144-2.2627    c0.8233-2.6465,4.8377-2.2236,5.0746,0.5488c5.3053,0.674,10.1912-1.6966,13.8298-5.4408    c1.7561-1.807,3.1387-3.9332,4.9157-5.7226c1.9569-1.9706,4.2769-3.5932,6.8006-4.7526    c-2.3868-0.6162-4.7472-1.8263-6.3761-3.7156c-1.6564-1.9212-2.4171-4.902-0.537-6.9525c1.8558-2.024,5.143-2.3612,7.7191-2.1723    c2.619,0.192,5.3199,0.9479,7.6971,2.0623c-1.6538-2.6257-2.7248-5.7553-2.1127-8.8797c0.5091-2.5987,2.7091-4.9819,5.5473-4.1553    c2.8599,0.8329,4.734,3.8276,5.7746,6.4237c1.2036,3.0028,1.6437,6.2147,1.5846,9.4352    c1.6603-5.9353,1.5994-12.152-2.1778-17.2647c-3.3774-4.5716-5.0398-12.4262-0.0418-16.541    c1.747-1.4383,3.992-1.8572,6.159-1.3123c2.9191,0.734,5.236,3.2348,8.2252,3.6449c2.7228,0.3735,5.2998-1.3652,7.3383-2.9562    c2.2872-1.785,4.4813-3.7653,7.2107-4.857c2.4179-0.9671,6.2271-1.044,7.2678,1.9281c1.005,2.8702-1.9916,5.6164-3.6254,7.5658    c1.6541-0.4981,3.4763-0.6556,5.0993,0.0444c1.405,0.606,2.3563,1.8384,3.5205,2.7805c1.2007,0.9716,2.7984,1.513,3.8835,2.5989    c1.0168,1.0175,1.4415,2.4656,1.2999,3.8809c1.6712-0.4053,3.1183-0.1477,4.7105,0.3976    c1.6452,0.5634,3.3083,1.0953,4.9335,1.7145c2.1062,0.8025,3.6047,2.7347,4.364,4.8136c0.589,1.6127,0.7543,3.4408,0.1611,5.0762    c-0.5635,1.5539-1.7632,2.4069-3.0943,3.2718c-1.3819,0.8979-2.4874,2.0282-3.7986,2.9993    c-1.2837,0.9507-2.6973,1.7159-4.0719,2.5234c-3.2886,1.932-6.4709,4.0491-9.6027,6.2244    c1.7784,1.2547,2.0752,3.8617,0.6132,5.4818c7.1694,4.6737,13.3025,11.005,18.5143,17.751    c2.5791,3.3383,5.0875,6.8112,6.777,10.6966c1.7651,4.0592,2.6821,8.4195,3.1119,12.811    c0.4492,4.5892,0.3922,9.2071,0.3568,13.8122c-0.0238,3.092-0.146,6.2082,0.4609,9.2577    c1.3391,6.7291,5.4829,12.2223,10.2501,16.9651C168.7965,147.9494,177.4382,155.754,177.9687,165.833z M173.0255,170.0885    c2.8211-8.8136-5.3791-17.2363-10.9281-22.983c-4.8989-5.0734-9.7575-10.0139-12.3653-16.7299    c-2.9127-7.5009-1.6712-15.4939-1.6918-23.3389c-0.0116-4.4263-0.2897-8.8941-1.3756-13.2002    c-1.1008-4.3657-3.1425-8.1806-5.6248-11.9047c-5.3144-7.9729-11.7475-15.2011-19.2137-21.2144    c-1.6613,0.9959-4.2968,0.6063-6.1549,0.6133c-2.2731,0.0086-4.5338-0.0759-6.8025-0.2067    c3.9662,3.4211,8.7721,5.6539,13.0345,8.6561c4.0891,2.8801,7.6396,6.5616,10.2263,10.8525    c0.5675,0.9414,1.0893,1.9158,1.5379,2.9195c0.1505,0.3366,1.1702,2.4156,0.8355,2.7222    c-0.3275,0.2999-3.432-4.2231-3.7854-4.6782c-2.8782-3.7071-6.2259-7.025-10.0621-9.7381    c-4.7478-3.3578-10.3708-6.0624-13.8798-10.8649c-5.271-0.3468-10.5633-0.8609-15.7212-2.0408    c-0.5964,1.4714-1.7397,2.789-2.6391,4.0851c-1.1399,1.6427-2.2691,3.2919-3.3571,4.9696    c-2.0216,3.1174-3.6962,6.4803-5.8042,9.5361c1.0939,6.44-3.283,13.6552-10.2211,13.9327    c-0.6653,2.7721-4.8265,2.4875-5.1154-0.3393c-0.2954-2.8896,3.8647-3.9653,4.9899-1.2648    c5.6953-2.1471,8.4786-8.1031,6.1885-13.8262c-1.1487-2.8707-2.5608-5.532-2.0785-8.7314    c0.4708-3.1225,2.2904-5.9562,4.4349-8.2062c-7.4319,5.0752-15.0434,10.9717-20.0827,18.5376    C51.8053,86,49.2488,95.8888,44.5516,104.6963c-2.3193,4.3489-5.2656,8.3548-7.2585,12.8783    c-1.9015,4.3161-2.202,8.7961-2.0474,13.4572c0.1681,5.0668,0.5531,10.0877-0.1348,15.1365    c-0.6612,4.8527-1.9868,9.6433-3.8069,14.1876c-1.4359,3.585-3.7112,6.8897-4.5386,10.6989    c-0.9488,4.3683,1.6688,7.8053,5.9604,8.7024c5.0686,1.0596,10.3634-0.4025,15.4522-0.5907    c4.0691-0.1504,8.1245,0.0779,12.1618,0.6075c18.8827,2.4769,37.2185,11.2684,56.5683,8.9236    c5.2185-0.6324,10.3248-1.9722,15.3003-3.6438c1.9025-0.6392,3.809-1.2973,5.6671-2.0582c2.3329-0.9554,4.5883-2.093,6.9583-2.959    c4.7419-1.7328,9.6361-1.5303,14.598-1.7447c4.0993-0.1772,9.3332-1.0424,11.8596-4.6855    C172.0345,172.5351,172.6313,171.3277,173.0255,170.0885z M139.3632,37.509c0.073-1.6291-0.8508-3.5351-2.2435-4.4137    c-0.0013-0.0013-0.0026-0.0026-0.0026-0.0039c-0.0013-0.0013-0.0013-0.0013-0.0013-0.0026c0.0052,0.0013,0.0039,0.0013,0,0    c-1.9186-0.9588-4.1023-1.5396-6.0989-2.3284c-1.6323-0.5146-3.4615,0.3383-4.8771,1.0927    c-1.5336,0.8173-2.9938,1.8106-4.3948,2.8373c-1.3098,0.9599-2.5254,2.0467-3.6581,3.209    c-0.4977,0.5107-0.9782,1.0376-1.4553,1.5675c-0.385,0.4275-0.9163,1.2942-1.4611,1.5328    c-0.3918,0.1716-0.3706,0.1928-0.4208-0.2393c-0.0697-0.5996,0.5058-1.5222,0.7578-2.0269    c0.6289-1.2597,1.421-2.4403,2.3054-3.5339c2.1939-2.7127,5.1602-5.2358,8.2883-6.7938    c-0.1106-0.8989-0.3243-1.7274-1.0028-2.3494c-0.4217-0.3123-1.0591-0.4534-1.5308-0.6704    c-0.6046-0.2781-1.1936-0.5952-1.7519-0.9579c-1.1956-0.7768-2.0662-1.877-3.1938-2.7152    c-1.906-1.4169-4.994-0.2117-7.0902,0.0918c-2.9521,3.3069-6.1847,6.2728-8.1258,10.3294    c-0.7713,1.6119-1.2713,3.3252-1.9916,4.9542c-0.491,1.1105-0.5701,0.1179-0.5458-0.5754    c0.145-4.1294,1.9613-8.3147,4.5069-11.5129c2.8457-3.5751,5.7906-7.073,8.4863-10.7654c0.3675-0.5034,0.8039-0.9994,1.086-1.5592    c0.4539-0.9007,0.1565-1.1709-0.7936-1.2041c-1.2561-0.0438-2.5229,0.6962-3.5451,1.3429    c-3.8715,2.4494-6.865,6.2993-11.5831,7.2183c-1.4963,0.2914-3.0366,0.2324-4.4925-0.2195    c-2.0884-0.6481-3.8347-1.9726-5.7834-2.915c-1.5438-0.7466-3.1972-1.0773-4.6061,0.1229    c-1.6124,1.3736-2.0018,3.5589-1.8393,5.5631c0.1819,2.2433,0.9401,4.4293,2.1826,6.3039    c1.3743,2.0735,2.4145,4.2399,2.9079,6.6938c0.9509,4.7285-0.0341,9.7381-2.2006,14.0034    c9.3635,3.387,19.6838,4.3558,29.5924,4.3771c1.0586-3.0581,3.2619-5.8268,5.7078-7.8938    c1.2822-1.0836,2.6829-2.0295,4.1916-2.7678c1.1657-0.5704,2.8566-1.4427,4.198-1.2746c1.4268,0.1789-1.1062,1.5972-1.518,1.8716    c-1.2711,0.8469-2.5296,1.7087-3.7224,2.6645c-2.6835,2.1503-4.9678,4.65-7.0294,7.3923c1.05-0.0115,2.1027-0.0784,3.1521-0.0784    c3.2906-3.3199,7.0575-6.1944,10.9561-8.7593c0.959-0.631,1.9394-1.2453,2.8407-1.9585c0.8319-0.6583,1.4984-1.487,2.3363-2.1428    C137.1317,40.0514,139.302,39.2959,139.3632,37.509z M90.1131,58.8218c0.034-0.0222,0.0641-0.0418,0.0967-0.0614    c-2.2971-0.5465-4.5758-1.2132-6.8049-1.9924c-2.4557,2.5538-4.966,5.229-6.2756,8.583    c-0.6693,1.7142-0.8774,3.4585-0.3423,5.2359c0.5044,1.6756,1.3897,3.2093,1.9375,4.87c1.0457-3.3414,2.7589-6.5228,4.7375-9.3982    C85.2594,63.4466,87.4302,60.5925,90.1131,58.8218z M79.3534,53.272c-0.0732-0.4641-0.0588-0.9478,0.0562-1.425    c-0.5099-0.4144-1.0524-0.8877-1.6146-1.4224c-3.317-1.6696-6.7271-3.129-10.4305-3.6635    c-1.7235-0.2487-3.5825-0.3169-5.2523,0.2553c-0.5553,0.1903-1.4429,0.4687-1.5289,1.1347    c-0.0571,1.4836,1.6751,2.7474,2.7924,3.4178c1.4964,0.8979,3.1971,1.3689,4.9106,1.6288    C71.9482,53.7531,75.6783,53.6248,79.3534,53.272z"/>
		<path class="st28" d="M72.8283,128.6474c0.0073,0.7218,0.4125,5.7577-0.6599,5.83c-0.6903,0.0466-1.1321-1.6795-1.2609-2.1302    c-0.3406-1.1916-0.4857-2.4442-0.4965-3.6815c-0.0103-1.1846,0.1092-2.3862,0.4023-3.5353    c0.1155-0.453,0.5303-2.2989,1.2117-2.3012C73.1585,122.8253,72.8246,127.9098,72.8283,128.6474z"/>
		<path class="st28" d="M67.3478,111.4109c0.5754,0.2508-0.5482,4.0372-0.6563,4.568c-0.3646,1.7898-0.6418,3.596-0.8236,5.4137    c-0.393,3.9295-0.284,7.8859,0.2405,11.7979c0.0768,0.5726,0.9592,4.3404,0.3452,4.602    c-0.7056,0.3006-1.9347-3.6189-2.0726-4.0666c-1.1348-3.6828-1.4062-7.6844-0.9838-11.5036    c0.229-2.0709,0.6543-4.1186,1.3154-6.0956C64.8975,115.5738,66.516,111.0555,67.3478,111.4109z"/>
		<path class="st28" d="M63.8126,73.8801c0.2783,0.2639-1.4607,2.7712-1.6555,3.1347c-0.7481,1.3957-1.3753,2.8556-1.9126,4.3445    c-1.1776,3.2633-1.9389,6.6567-2.8232,10.0059c-1.8693,7.0796-4.8249,13.604-9.2025,19.4926    c-1.0027,1.3487-2.0309,2.6793-2.974,4.0711c-0.4309,0.6359-0.8417,1.2843-1.2287,1.9478    c-0.3356,0.5754-0.6167,1.441-1.0897,1.9141c-0.2466,0.2466-0.2137,0.3367-0.3704,0.0383    c-0.2224-0.4236,0.2328-1.5695,0.3528-1.9626c0.4868-1.5945,1.273-3.0865,2.1146-4.5188c1.8187-3.0955,3.8342-6.0408,5.449-9.257    c1.6166-3.2197,2.9392-6.5747,3.9974-10.0176c1.1604-3.7753,2.0957-7.6311,3.6165-11.2858    c0.7005-1.6835,1.5324-3.3273,2.5782-4.8244C60.9085,76.6136,63.3176,73.4079,63.8126,73.8801z"/>
		<path class="st28" d="M43.7117,141.0504c0.1245,5.3649-0.8037,10.6941-2.5598,15.7602c-0.8499,2.4518-1.9243,4.8133-3.1428,7.1025    c-1.1755,2.2085-2.411,4.391-3.2299,6.7646c-0.1483,0.4299-0.2797,0.864-0.4048,1.3012    c-0.0633,0.2215-0.1997,1.1595-0.4228,1.3043c-0.5364,0.3481-0.5132-2.0434-0.4883-2.3626    c0.1894-2.4322,1.1452-4.7407,2.1257-6.9459c2.2384-5.0345,4.1904-10.0751,5.4101-15.4651    c0.6056-2.6759,1.0324-5.3824,1.4452-8.0931c0.0518-0.3398,0.2231-2.6309,0.7345-2.545    C43.6935,137.958,43.6921,140.6875,43.7117,141.0504z"/>
	</g>
</g>
</svg>
