<svg id="Layer_1" enable-background="new 0 0 68 68" height="512" viewBox="0 0 68 68" width="512" xmlns="http://www.w3.org/2000/svg"><g id="_x31_"><g><g><path d="m55 31.8-4-2.2c-.2-.1-.3-.4-.2-.7.1-.2.4-.3.7-.2l3.6 2 4.5-4.7c-.2-.2-.3-.6-.2-.9.2-.6 1.1-.8 1.5-.3.3.1.5.4.3.9 0 .2-.2.4-.4.5l-5.2 5.5c-.1.2-.4.2-.6.1z"/></g><g><path d="m66 40.9c-.2 1.1-1.4 1.7-2.6 1.9-1.1.2-2.3.1-3.3.6s-1.7 1.9-1 2.8c.2.3.6.5.8.8.7.9.1 2.3-.9 3-4.5 3.3-11.1-2-15.7.8 1.5 1.4.3 4.1-1.5 4.8-3.7 1.5-8.2-2.2-11.8-.2-1.1.6-2.2 1.7-3.3 1.3-1-.4-1.2-1.6-1.9-2.4-.9-1-2.4-1.1-3.7-.8s-2.4 1.1-3.7 1.5c-4.5 1.7-5.9-2.1-4.4-3.4.3-.2.6-.4.9-.7.8-.9-.3-2.4-1.5-2.7-2.7-.8-5.8.9-8.5-.3-1.3-.6-2.2-2.2-1.7-3.5.6-1.3 2.2-1.7 3.6-1.6s2.8.4 4.1 0c-.3-.1.5-.3.7-.1.4.3.2.3 8.1-1.7-.1.8.4 1.5 1.1 1.8.7.4 1.5.4 2.2.5 7.4.5 13.9-.9 21.1-2.5 3.2-.7 6.2-1.8 9.1-3.4.9-.5 1.9-1 3-1 1.7.1 1.6 2.3 3.3 2.7 1.8.5 3.5-1.3 5.5-.8 1.1.3 2.2 1.4 2 2.6z" fill="#59c5ef"/></g><g><path d="m31.4 49.2c-1 .4-3.2.7-3.2 2.1 0 .6.3.8.9.9 3 .6 0 .5 25.9-7.1 2-.6 1.8-1.9.3-2.5-1.9-.7-4-.9-5.9-.5-2 .4-2.5.7-18 7.1z"/></g><g><g><path d="m54.3 20.1c-.1-.4-.4-.7-.8-.8-5.9-2.3-11.9-4.7-17.7-7-.2-.1-.4-.1-.7-.1-8.8 1.7-17.4 4.2-25.9 7.3-.3.1-.6.4-.7.7 7.1 3.4 14.6 6.1 22.3 7.9 7.7-2.6 15.6-5.3 23.5-8z" fill="#dcf1ff"/></g><g><g><path d="m54.7 41.5c0 .6-.3 1.2-.8 1.4-8.2 3.2-15.4 6.1-23.6 9.3.4-8.3.5-15.9.6-24.1.1 0 23.3-8 23.4-8 .5 1.5-.1 15.3.4 21.4z" fill="#8cd3fd"/></g><g><path d="m30.8 28.1c0 8-.2 16.1-.6 24.1-.3.1-.7.2-1 .1-6.6-2.6-12.8-5.6-19.1-9.1-.3-.2-.6-.6-.7-1-.2-.5-1-12.1-1.1-21.4 0-.2 0-.4.1-.6 6.8 3.3 14 5.9 21.4 7.7.4.1.7.2 1 .2z" fill="#c5eaff"/></g></g></g><g><ellipse cx="38" cy="28.4" rx="1.8" ry="3.7"/></g><g><ellipse cx="43.7" cy="26.9" rx="1.8" ry="3.7"/></g><g><ellipse cx="43.5" cy="28.6" fill="#fff" rx=".6" ry="1.3"/></g><g><ellipse cx="38.6" cy="29.4" fill="#fff" rx=".6" ry="1.3"/></g><g><path d="m37 37.7c-.6-.4-.8-1-1-1.5-.1-.3 0-.5.3-.6s.5 0 .6.3c.2.6.5 1.3 1.1 1.1.1 0 .1-.1.1-.1.1-.3.4-.4.6-.3.6.2.3 1.1-.5 1.3 0 0-.9 0-1.2-.2z"/></g><g><path d="m18.4 42c.3-.1.7-.1 1 .1l-4-4.9c-.2-.2-.1-.5.1-.7 1.6-1.4 3-3 4.3-4.8.2-.2.5-.3.7-.1s.3.5.1.7c-1.2 1.7-2.6 3.3-4.1 4.7 4.2 5.3 4.3 5 4.2 5.4-.1.6-.6 1-1.2 1.1-1.1.1-1.9-1.2-1.1-1.5z"/></g><g><path d="m9.1 36c-.3 0-.5-.2-.5-.5 0-15.9-.3-15.5.1-15.8.2-.1.3-.1.5 0 14.2 7.7 15.7 6.5 15.3 7.6-.1.3-.4.4-.6.3-5.2-1.9-10.1-4.4-14.4-6.6l.1 14.5c0 .3-.3.5-.5.5z"/></g><g><path d="m9.2 19.5c-.1-.3.1-.5.3-.6l26.3-7.7h.4c4 2 8.1 4 12.7 5.6.3.1.4.4.3.6-.1.3-.4.4-.6.3-4.6-1.6-8.7-3.6-12.7-5.6l-26.1 7.7c-.3.1-.6 0-.6-.3z"/></g></g><g><path d="m54.7 41.5c0 .6-.3 1.2-.8 1.4-8.2 3.2-15.4 6.1-23.6 9.3.4-9.4.3-6.3.3-6.9-.1.5 0 .8 0 0 5.8.2 10.4-4.1 14-8.7 3.8-4.8 7.3-10.1 8.4-16.1.4-.1.9-.3 1.3-.4.5 1.5-.1 15.3.4 21.4z" fill="#6cc7f4"/></g></g></svg>