<?xml version="1.0" encoding="UTF-8"?>
<!-- Generator: Adobe Illustrator 25.2.1, SVG Export Plug-In . SVG Version: 6.00 Build 0)  -->
<svg xmlns="http://www.w3.org/2000/svg" xmlns:xlink="http://www.w3.org/1999/xlink" version="1.1" id="Capa_1" x="0px" y="0px" viewBox="0 0 512 512" style="enable-background:new 0 0 512 512;" xml:space="preserve" width="512" height="512">
<g>
	<path style="fill:none;" d="M55.473,456.592c0.474,1.077,0.972,2.136,1.494,3.169c2.027,4.016,4.49,7.874,7.338,11.487   c0.689,0.871,1.393,1.723,2.109,2.547c1.419,1.637,2.951,3.249,4.543,4.783c1.071,1.036,2.258,2.104,3.611,3.254   c7.208,6.14,15.955,11.396,25.995,15.624c0.967,0.407,1.937,0.8,2.916,1.184c2.511,0.985,5.202,1.944,7.985,2.844l1.616,0.514   c2.404,0.748,4.875,1.451,7.35,2.093l1.58,0.4c5.275,1.313,10.795,2.422,16.405,3.294c0.769,0.12,1.547,0.234,2.326,0.349   l4.131,0.612c18.295,2.592,34.102,3.621,48.315,3.141c1.045-0.034,2.088-0.078,3.129-0.13c3.766-0.188,7.488-0.489,11.063-0.897   c4.861-0.554,9.613-1.32,14.125-2.28c9.863-2.093,19.096-5.208,27.443-9.261c25.417-12.34,58.531-42.255,71.945-114.69   c0.786-4.249,1.672-8.406,2.511-12.265l0.752-3.442c1.241-5.663,2.502-11.422,3.557-17.303   c16.961,12.032,32.915,17.517,48.705,16.728c6.371-0.338,11.442-5.462,11.715-11.835c1.329-31.113-10.855-63-32.592-85.298   c-4.317-4.428-9.961-9.399-16.756-13.623c3.482-2.722,6.858-5.589,10.118-8.59c7.379-6.792,14.787-14.57,21.425-22.494   c1.497-1.788,2.842-3.57,4.145-5.293c3.972-5.264,6.582-8.531,9.999-9.352c1.42-0.339,3.886-0.336,6.57-0.276   c0.769,0.017,1.539,0.034,2.308,0.042c14.352,0.145,28.694-3.291,40.902-9.783c35.225-18.737,31.54-38.481,28.323-46.1   c-4.128-9.762-13.045-15.033-24.472-14.462c-9.017,0.45-19.928,4.506-33.36,12.4c-0.035,0.02-0.069,0.04-0.104,0.061   c0.779-1.688,1.6-3.399,2.437-5.149c1.292-2.695,2.628-5.481,3.878-8.331l0.832-1.89c1.651-3.748,3.561-8.085,5.45-12.805   c1.048,0.583,2.12,1.113,3.209,1.587c3.34,1.458,6.691,2.387,10.245,2.838c0.136,0.017,0.272,0.032,0.408,0.045   c4.158,0.387,7.772-0.296,10.84-1.851c4.91-2.406,8.455-7.108,9.5-12.592c0.81-4.107,0.297-8.281-1.498-12.091   c-1.266-2.683-3.119-5.113-5.641-7.34c-0.645-0.554-1.286-1.06-1.921-1.525c0.933-1.4,1.736-2.858,2.422-4.396   c1.231-2.826,1.911-5.721,2.017-8.466c0.204-4.069-0.832-8.183-2.858-11.482c-2.265-3.77-5.534-6.603-9.461-8.198   c-4.325-1.788-9.601-1.754-13.97,0.06c-1.728-2.849-3.824-5.462-6.287-7.831c-4.949-4.758-12.485-7.37-20.161-6.986   c-7,0.35-13.156,3.073-17.331,7.67c-6.822,7.513-7.069,17.065-7.234,23.388c-0.167,6.426-0.485,12.993-0.952,19.566   c-0.201,0.534-0.369,1.087-0.5,1.657c-0.374,1.635-0.417,3.451-0.05,5.265c-0.003,0.026-0.005,0.054-0.008,0.08   c-3.711,1.575-7.674,3.023-11.799,4.309c-0.46,0.113-0.912,0.251-1.353,0.415c-1.69,0.509-3.353,0.978-5.036,1.417   c-5.956-5.569-14.523-7.85-21.879-5.704c-5.083,1.485-9.485,4.823-13.098,9.929c-0.919-0.011-1.822-0.034-2.713-0.068   c-7.834-0.299-14.355-0.936-20.569-2.011c-7.275-1.23-14.616-2.941-21.744-5.063c-13.728-4.19-27.178-9.958-39.971-17.142   c-10.65-5.988-20.626-12.697-29.661-19.943c-5.265-4.215-9.616-8.021-13.053-11.188c0.918-1.735,1.807-3.381,2.691-4.983   c2.663-4.826,7.118-12.903,5.144-22.286c-2.342-11.137-14.126-19.705-26.267-19.099c-1.369,0.068-2.721,0.261-4.021,0.574   c-1.428,0.344-2.817,0.765-4.168,1.266c-0.828-1.983-1.887-4.079-3.328-6.199c-0.061-0.087-0.122-0.174-0.182-0.259   c-2.305-3.208-4.982-5.525-8.182-7.077c-4.888-2.405-10.993-2.472-15.932-0.16c-3.973,1.828-7.199,4.855-9.368,8.81   c-1.559,2.881-2.462,6.124-2.692,9.802c-0.153,3.038,0.155,5.766,0.62,8.127c-2.989,0.229-6.637,0.752-10.55,2.196   c-2.935,1.108-5.437,2.52-7.656,4.318c-0.118,0.097-0.238,0.197-0.354,0.298c-3.992,3.491-6.316,7.713-6.911,12.558   c-0.504,4.132,0.616,8.455,3.083,11.87c1.619,2.238,3.686,4.021,6.319,5.451c0.089,0.049,0.18,0.096,0.272,0.143   c2.305,1.18,4.723,2.047,7.409,2.655c3.541,0.795,7.202,1.065,11.526,0.849l0.614-0.034c1.322-0.084,2.635-0.204,3.945-0.362   c-0.729,4.752-1.245,9.216-1.693,13.088l-0.216,1.865c-0.328,2.799-0.559,5.576-0.784,8.261c-0.032,0.38-0.063,0.757-0.095,1.133   c-7.366-12.498-18.391-26.962-33.484-26.208c-4.386,0.219-8.493,1.736-12.206,4.507c-6.235,4.651-18.649,18.859,0.693,50.278   c6.676,10.845,16.26,20.044,27.719,26.606c0.602,0.345,1.212,0.684,1.823,1.024c1.928,1.073,3.75,2.087,4.711,3.01   c1.969,1.892,2.47,5.426,3.128,11.036c0.228,1.944,0.464,3.953,0.817,6.052c1.555,9.203,3.777,18.654,6.43,27.335   c1.659,5.422,3.622,10.739,5.872,15.918c-1.706,0.07-3.419,0.184-5.114,0.348c-28.657,2.774-56.287,18.021-73.914,40.783   c-3.906,5.045-3.34,12.231,1.308,16.602c12.013,11.296,29.077,17.114,52.166,17.79c3.714,0.108,7.363,0.089,10.861-0.058   c-2.063,9.065-3.377,18.394-3.855,27.519c-0.37,7.057-3.329,13.791-9.311,21.19c-0.791,0.978-1.612,1.94-2.457,2.886   c-0.097,0.11-0.121,0.132-0.185,0.209c-1.525,1.699-3.225,3.457-5.161,5.341l-0.579,0.562c-0.913,0.877-1.832,1.748-2.765,2.606   c-3.214,2.957-6.798,5.809-10.594,8.828c-1.929,1.535-3.864,3.075-5.771,4.645c-7.586,6.242-16.094,14.042-21.675,24.563   c-11.115,20.95-7.958,47.616-1.3,65.592C54.209,453.584,54.836,455.147,55.473,456.592z"/>
	<g>
		<g>
			<g>
				<path style="fill:#8DBBED;" d="M149.334,49.08c0.295,0.072,1.916-4.384,2.405-12.035c0.193-3.808,0.013-8.462-1.431-13.428      c-0.775-2.48-1.68-4.98-3.372-7.468c-0.865-1.205-1.974-2.416-3.568-3.178c-1.569-0.783-3.651-0.826-5.276-0.05      c-1.638,0.744-2.884,1.999-3.693,3.476c-0.793,1.464-1.121,3.04-1.214,4.524c-0.151,2.986,0.432,5.657,1.157,8.138      c1.559,4.944,3.759,8.88,5.731,12.169c2.018,3.275,4.302,5.587,6.157,6.744c1.845,1.191,3.081,1.366,3.132,1.219      c0.096-0.212-0.959-0.731-2.464-2.096c-1.523-1.339-3.383-3.628-5.096-6.875c-1.668-3.254-3.667-7.301-4.955-11.882      c-0.606-2.281-1.064-4.804-0.897-7.226c0.136-2.405,1.239-4.699,3.294-5.608c1.958-0.955,4.046,0.264,5.444,2.264      c1.391,1.96,2.382,4.396,3.132,6.619c1.468,4.549,1.858,8.944,1.92,12.619C149.777,44.393,148.869,49.001,149.334,49.08z"/>
			</g>
		</g>
		<g>
			<path style="fill:#DE5F62;" d="M169.235,236.284c-10.64-10.192-26.641-12.754-41.306-11.334     c-25.45,2.463-49.663,15.822-65.317,36.039c11.512,10.825,28.249,13.971,44.045,14.433c13.914,0.407,28.107-0.952,40.973-6.268     c12.865-5.316,24.337-14.937,29.823-27.731"/>
		</g>
		<g>
			<path style="fill:#DE5F62;" d="M304.215,260.186c16.064-1.002,31.221,8.143,42.457,19.668c19.499,20,30.281,48.219,29.088,76.126     c-17.239,0.915-33.422-8.261-46.927-19.014c-11.897-9.471-22.781-20.613-29.767-34.12c-6.986-13.507-9.774-29.623-5.33-44.166"/>
		</g>
		<g>
			<path style="fill:#FA7EDC;" d="M162.031,243.365c-13.401-0.895-27.019-0.937-40.264,1.55c-6.603,1.24-13.112,3.128-19.214,5.963     c-5.063,2.351-10.432,4.968-14.174,9.217c-0.382,0.434-0.767,0.926-0.794,1.503c-0.116,2.448,6.803,3.583,8.465,3.911     c3.84,0.757,7.764,1.048,11.672,1.14c9.982,0.234,20.07-0.315,29.79-2.735c10.452-2.602,20.506-7.484,28.112-15.11"/>
		</g>
		<g>
			<path style="fill:#FA7EDC;" d="M305.234,271.173c7.235,5.33,14.246,10.99,20.743,17.206c10.05,9.614,19.115,20.735,24.433,33.703     c1.135,2.769,6.668,15.064,1.738,16.106c-2.746,0.58-7.575-2.244-9.876-3.54c-2.881-1.624-5.659-3.755-8.14-5.754     c-8.493-6.843-16.524-14.414-22.928-23.286c-6.886-9.541-11.833-20.703-12.802-32.429"/>
		</g>
		<g>
			<g>
				<path style="fill:#8DBBED;" d="M381.971,112.498c-0.113-0.209-3.127,1.262-8.654,3.66c-5.535,2.376-13.735,5.432-24.206,7.873      c-5.224,1.266-11.051,2.165-17.32,2.91c-6.291,0.541-13.037,0.968-20.139,0.693c-7.092-0.271-14.54-0.855-22.161-2.175      c-7.621-1.288-15.433-3.088-23.293-5.43c-15.694-4.789-30.033-11.231-42.428-18.192c-12.399-6.973-22.935-14.336-31.328-21.069      c-8.402-6.726-14.818-12.65-19.097-16.893c-4.303-4.221-6.625-6.631-6.796-6.479c-0.074,0.065,0.419,0.743,1.427,1.978      c1.032,1.212,2.478,3.076,4.572,5.266c4.056,4.5,10.305,10.69,18.619,17.675c8.305,6.991,18.831,14.606,31.306,21.786      c12.47,7.168,26.971,13.774,42.899,18.634c7.977,2.378,15.918,4.187,23.669,5.458c7.75,1.303,15.332,1.844,22.546,2.046      c7.224,0.206,14.084-0.314,20.467-0.968c6.363-0.857,12.262-1.888,17.533-3.297c10.567-2.728,18.754-6.112,24.191-8.815      c2.757-1.277,4.759-2.546,6.159-3.31C381.317,113.045,382.018,112.583,381.971,112.498z"/>
			</g>
		</g>
		<g>
			<g>
				<path style="fill:#8DBBED;" d="M150.18,47.867c-0.208-0.412-4.62,1.937-12.266,3.924c-3.818,0.97-8.457,1.793-13.636,1.981      c-2.573,0.083-5.266-0.007-7.888-0.634c-1.296-0.303-2.625-0.777-3.769-1.372c-1.144-0.624-1.639-1.299-1.548-2.2      c0.077-0.942,0.845-2.075,1.766-2.849c0.96-0.793,2.185-1.447,3.407-1.918c2.476-0.96,5.176-1.321,7.718-1.511      c5.11-0.351,9.75,0.407,13.498,1.471c7.535,2.223,11.46,5.461,11.742,5.036c0.104-0.131-0.731-1.09-2.564-2.45      c-1.826-1.359-4.692-3.08-8.562-4.489c-3.864-1.37-8.763-2.398-14.255-2.171c-2.729,0.135-5.625,0.44-8.56,1.522      c-1.466,0.554-2.886,1.261-4.235,2.354c-1.302,1.139-2.51,2.599-2.772,4.736c-0.128,1.056,0.192,2.24,0.822,3.11      c0.634,0.878,1.447,1.423,2.201,1.832c1.503,0.77,2.971,1.255,4.483,1.597c3.007,0.674,5.932,0.696,8.64,0.538      c5.412-0.343,10.192-1.411,14.065-2.662C146.234,51.151,150.351,48.132,150.18,47.867z"/>
			</g>
		</g>
		<g>
			<path style="fill:#912C4B;" d="M162.859,240.245c-5.432-5.007-10.175-14.736-12.786-19.264     c-5.138-8.91-9.248-18.407-12.254-28.242c-2.553-8.352-4.615-17.208-6.062-25.777c-1.418-8.403-0.88-17.519-7.574-23.954     c-2.579-2.48-5.856-4.073-8.961-5.851c-9.411-5.389-17.631-13.098-23.327-22.35c-4.972-8.076-14.169-26.157-3.837-33.865     c11.948-8.914,24.988,13.264,29.413,21.186c5.215,9.336,15.965,23.838,19.667,4.369c1.351-7.112,1.544-14.543,2.385-21.732     c2.128-18.192,5.389-53.156,28.048-58.608c5.855-1.407,14.029,3.122,15.273,9.036c1.003,4.769-1.515,9.491-3.869,13.757     c-13.327,24.15-24.171,49.669-32.307,76.025c-1.05,3.401-2.065,6.971-1.434,10.473c0.632,3.503,3.441,6.881,7,6.923     c2.607,0.03,4.906-1.657,6.79-3.459c9.878-9.442,14.025-23.567,23.413-33.495c2.382-2.518,5.181-4.792,8.51-5.756     c3.33-0.963,7.27-0.38,9.649,2.141c1.893,2.004,2.546,4.883,2.696,7.636c0.59,10.837-5.344,20.867-11.484,29.817     c-7.765,11.319-16.387,22.347-27.616,30.242c-2.817,1.981-5.936,3.926-7.347,7.067c-1.017,2.262-0.993,4.85-0.708,7.314     c1.251,10.822,7.019,20.239,13.024,29.061c3.515,5.164,9.826,10.101,11.244,16.423c1.474,6.572-4.915,15.216-12.231,13.903     C166.364,242.94,164.577,241.829,162.859,240.245z"/>
		</g>
		<g>
			<g>
				<path style="fill:#8DBBED;" d="M407.007,99.349c0.029,0.187,1.111,0.229,3.044,0.03c1.929-0.21,4.731-0.631,8.09-1.719      c3.332-1.098,7.288-2.926,10.805-6.223c1.729-1.658,3.376-3.63,4.498-6.139c0.545-1.252,0.945-2.648,1.004-4.146      c0.073-1.47-0.276-3.133-1.106-4.486c-0.815-1.355-2.007-2.502-3.541-3.116c-1.524-0.645-3.389-0.504-4.736,0.13      c-1.377,0.615-2.424,1.487-3.329,2.329c-0.922,0.84-1.771,1.719-2.535,2.625c-3.076,3.63-4.932,7.508-6.078,10.822      c-2.258,6.691-2.152,11.084-1.855,11.106c0.469,0.086,1.091-4.181,3.718-10.378c1.325-3.074,3.258-6.604,6.174-9.83      c0.725-0.808,1.519-1.585,2.372-2.327c0.842-0.759,1.729-1.422,2.624-1.799c0.904-0.377,1.744-0.408,2.595-0.067      c0.849,0.337,1.635,1.068,2.162,1.952c1.087,1.74,0.844,4.078-0.013,6.09c-0.865,2.034-2.275,3.846-3.77,5.365      c-3.044,3.046-6.599,4.941-9.679,6.214c-3.103,1.268-5.772,1.98-7.607,2.515C408.002,98.824,406.975,99.15,407.007,99.349z"/>
			</g>
		</g>
		<g>
			<g>
				<path style="fill:#8DBBED;" d="M411.45,99.099c-0.153,0.046-0.092,1.091,0.539,2.841c0.622,1.743,1.82,4.215,3.978,6.804      c2.167,2.551,5.285,5.26,9.43,7.062c2.077,0.907,4.319,1.58,6.846,1.901c1.276,0.119,2.775,0.102,4.241-0.641      c1.493-0.732,2.515-2.308,2.794-3.83c0.312-1.538,0.101-3.088-0.54-4.45c-0.619-1.314-1.541-2.375-2.505-3.228      c-1.967-1.688-4.004-2.746-6.011-3.723c-4.035-1.882-7.986-2.754-11.302-3.021c-6.691-0.525-10.649,1.021-10.552,1.298      c0.068,0.476,4.07-0.313,10.307,0.687c3.1,0.498,6.735,1.515,10.407,3.38c1.802,0.943,3.755,2.057,5.3,3.441      c1.553,1.389,2.536,3.204,2.126,5.043c-0.188,0.894-0.642,1.556-1.327,1.909c-0.691,0.371-1.667,0.464-2.69,0.375      c-2.096-0.234-4.218-0.792-6.083-1.543c-3.788-1.495-6.768-3.806-8.959-6.004C413.089,102.882,411.912,98.909,411.45,99.099z"/>
			</g>
		</g>
		<g>
			<path style="fill:#F87974;" d="M291.905,244.949c-20.563-17.937-41.071-28.21-68.794-29.71     c-32.133-1.739-67.35,15.527-82.837,44.504c-8.747,16.366-13.644,37.708-14.61,56.166c-0.569,10.878-5.391,20.111-12.04,28.335     c-3.706,4.584-1.835,8.854-6.256,12.921c-12.017,11.054-26.589,19.886-34.462,34.727c-9.265,17.466-6.626,42.252,1.067,59.715     c12.334,27.998,38.328,32.419,66.342,36.775c33.515,5.212,71.958,14.976,103.222-0.203     c39.282-19.072,57.59-64.829,65.178-105.806c4.221-22.794,11.22-43.593,8.655-67.22     C314.819,291.634,310.838,261.464,291.905,244.949z"/>
			<path style="fill:#F77366;" d="M243.539,488.179c39.282-19.072,57.59-64.829,65.178-105.806     c4.221-22.794,11.22-43.593,8.655-67.22c-1.9-17.507-4.603-38.693-13.665-55.195c-7.785,7.481-13.353,17.486-16.83,27.821     c-5.05,15.012-6.332,30.978-8.503,46.667c-5.103,36.872-17.1,75.741-46.859,98.103c-18.487,13.892-41.739,19.737-64.582,23.339     c-24.448,3.855-49.587,5.493-73.853,0.622c-9.603-1.928-19.071-4.974-27.969-9.135c0.536,1.446,1.094,2.868,1.694,4.232     c12.334,27.998,45.496,39.587,73.51,43.943C173.831,500.762,212.274,503.358,243.539,488.179z"/>
		</g>
		<g>
			<path style="fill:#F4C3D3;" d="M242.754,426.846c-10.087-28.489-33.073-51.362-60.063-64.958     c-21.381-10.771-45.112-16.077-69.074-17.65c-3.706,4.584-7.97,8.861-12.391,12.928c-12.017,11.054-27.613,19.886-35.486,34.727     c-9.265,17.466-6.626,42.252,1.067,59.715c12.334,27.998,45.496,39.587,73.51,43.943c33.22,5.166,71.271,7.737,102.385-6.999     C249.851,469.015,249.749,446.602,242.754,426.846z"/>
			<path style="fill:#EAB5C8;" d="M242.702,488.551c7.149-19.536,7.047-41.949,0.052-61.706c-0.373-1.054-0.769-2.097-1.177-3.136     c-3.107,3.166-6.45,6.126-10.061,8.839c-18.487,13.892-41.739,19.737-64.582,23.339c-24.448,3.855-49.587,5.493-73.853,0.622     c-9.603-1.928-19.071-4.974-27.969-9.135c0.536,1.446,1.094,2.868,1.695,4.232c12.334,27.998,45.496,39.587,73.51,43.943     c1.04,0.162,2.084,0.321,3.133,0.477C175.912,500.86,212.562,502.827,242.702,488.551z"/>
		</g>
		<g>
			<path style="fill:#821548;" d="M171.977,268.436c0.977,5.408-7.46,11.458-18.843,13.513c-11.383,2.056-21.403-0.662-22.38-6.069     c-0.977-5.408,7.46-11.458,18.843-13.513C160.98,260.311,171,263.029,171.977,268.436z"/>
		</g>
		<g>
			<path style="fill:#821548;" d="M265.608,296.722c-2.39,4.948-12.771,4.881-23.188-0.15c-10.416-5.031-16.923-13.12-14.533-18.069     c2.39-4.948,12.771-4.881,23.188,0.15C261.491,283.684,267.997,291.774,265.608,296.722z"/>
		</g>
		<g>
			<g>
				<path style="fill:#821548;" d="M165.367,323.313c-0.176,6.65-5.709,11.899-12.36,11.723c-6.65-0.176-11.899-5.709-11.723-12.36      c0.176-6.65,5.709-11.899,12.36-11.723C160.295,311.129,165.543,316.663,165.367,323.313z"/>
			</g>
			<g>
				<path style="fill:#821548;" d="M236.239,337.237c-0.176,6.65-5.709,11.899-12.36,11.723c-6.65-0.176-11.899-5.709-11.723-12.36      c0.176-6.65,5.709-11.899,12.36-11.723C231.166,325.053,236.415,330.586,236.239,337.237z"/>
			</g>
		</g>
		<g>
			<path style="fill:#912C4B;" d="M289.758,271.405c8.03-1.751,18.055-8.422,23.109-11.3c9.944-5.662,19.23-12.467,27.648-20.217     c7.148-6.581,14.109-13.922,20.318-21.334c6.088-7.268,10.698-16.321,20.744-18.734c3.87-0.929,7.913-0.616,11.893-0.576     c12.065,0.121,24.292-2.656,34.963-8.333c9.315-4.956,28.314-17.139,22.731-30.349c-6.456-15.277-31.447-1.323-40.15,3.793     c-10.257,6.029-28.734,13.903-21.336-6.869c2.703-7.587,6.698-14.828,9.934-22.202c8.189-18.66,24.726-54.056,6.042-72.035     c-4.829-4.644-15.223-4.894-19.743,0.083c-3.645,4.013-3.884,9.962-4.024,15.382c-0.792,30.678-4.735,61.273-11.75,91.149     c-0.905,3.855-1.938,7.853-4.515,10.86c-2.577,3.007-7.174,4.669-10.614,2.707c-2.52-1.437-3.777-4.35-4.573-7.139     c-4.171-14.619-0.207-30.51-3.634-45.322c-0.87-3.757-2.277-7.514-4.931-10.311c-2.654-2.797-6.765-4.453-10.466-3.373     c-2.944,0.86-5.191,3.255-6.883,5.813c-6.662,10.071-6.607,23.036-5.747,35.08c1.087,15.233,3.161,30.669,9.498,44.563     c1.59,3.486,3.489,7.108,3.078,10.917c-0.297,2.743-1.775,5.214-3.434,7.419c-7.288,9.685-18.121,15.48-28.848,20.57     c-6.279,2.98-15.113,4.169-20.031,9.44c-5.111,5.479-3.84,17.37,3.92,20.225C284.878,272.02,287.218,271.959,289.758,271.405z"/>
		</g>
		<g>
			<g>
				<g>
					<path style="fill:#D45C63;" d="M188.55,252.086c0.758-0.223,0.625-2.925,0.17-6.127c-0.468-3.201-1.103-5.831-1.893-5.83       c-0.771-0.005-1.405,2.808-0.906,6.233C186.41,249.788,187.811,252.308,188.55,252.086z"/>
				</g>
			</g>
			<g>
				<g>
					<path style="fill:#D45C63;" d="M209.077,242.186c0.754,0.203,2.11-2.39,3.028-5.793c0.918-3.403,1.051-6.326,0.297-6.53       c-0.754-0.203-2.11,2.39-3.028,5.793S208.323,241.982,209.077,242.186z"/>
				</g>
			</g>
			<g>
				<g>
					<path style="fill:#D45C63;" d="M238.237,250.425c0.683,0.38,2.637-1.833,4.365-4.941c1.728-3.108,2.575-5.936,1.892-6.315       c-0.683-0.38-2.637,1.833-4.365,4.941C238.401,247.218,237.554,250.045,238.237,250.425z"/>
				</g>
			</g>
			<g>
				<g>
					<path style="fill:#D45C63;" d="M208.831,272.985c0.717,0.31,2.626-2.506,4.265-6.29c1.638-3.784,2.386-7.104,1.669-7.414       c-0.717-0.31-2.626,2.506-4.265,6.29C208.861,269.355,208.114,272.674,208.831,272.985z"/>
				</g>
			</g>
			<g>
				<g>
					<path style="fill:#D45C63;" d="M180.698,288.111c0.752-0.252,0.404-3.274-0.206-6.882c-0.627-3.604-1.307-6.57-2.099-6.557       c-0.769,0.006-1.355,3.189-0.689,7.035C178.358,285.556,179.97,288.362,180.698,288.111z"/>
				</g>
			</g>
			<g>
				<g>
					<path style="fill:#D45C63;" d="M203.962,288.251c-0.57-0.534-1.947,0.009-3.076,1.213c-1.129,1.204-1.583,2.613-1.013,3.148       c0.57,0.534,1.947-0.009,3.076-1.213C204.078,290.195,204.532,288.785,203.962,288.251z"/>
				</g>
			</g>
			<g>
				<g>
					<path style="fill:#D45C63;" d="M222.445,302.124c-0.497-0.602-2.48,0.213-4.43,1.822c-1.95,1.609-3.127,3.401-2.63,4.004       c0.497,0.602,2.48-0.213,4.43-1.822C221.765,304.519,222.943,302.726,222.445,302.124z"/>
				</g>
			</g>
			<g>
				<g>
					<path style="fill:#D45C63;" d="M194.511,307.869c-0.674-0.395-2.001,0.615-2.965,2.258c-0.964,1.642-1.199,3.294-0.525,3.689       c0.674,0.395,2.001-0.615,2.965-2.257C194.949,309.916,195.184,308.265,194.511,307.869z"/>
				</g>
			</g>
			<g>
				<g>
					<path style="fill:#D45C63;" d="M259.011,253.965c-0.544-0.567-2.771,0.688-5.125,2.633c-2.35,1.95-3.999,3.904-3.543,4.543       c0.45,0.633,2.909-0.342,5.347-2.364C258.132,256.759,259.549,254.524,259.011,253.965z"/>
				</g>
			</g>
			<g>
				<g>
					<path style="fill:#D45C63;" d="M269.394,274.611c-0.409-0.666-2.657-0.028-5.023,1.425c-2.365,1.452-3.951,3.17-3.542,3.835       c0.409,0.666,2.658,0.028,5.023-1.425C268.217,276.993,269.803,275.276,269.394,274.611z"/>
				</g>
			</g>
		</g>
		<g>
			<g>
				<g>
					<path style="fill:#821548;" d="M112.488,456.157c1.101,0.111,2.716-7.118,4.238-16.053c1.505-8.938,2.361-16.295,1.285-16.553       c-1.05-0.255-3.658,6.805-5.189,15.892C111.275,448.527,111.412,456.052,112.488,456.157z"/>
				</g>
			</g>
			<g>
				<g>
					<path style="fill:#821548;" d="M145.122,442.476c-0.497-0.396-2.953,2.564-7.941,5.772c-4.875,3.197-12.803,6.457-21.558,5.389       c-4.301-0.575-8.245-2.19-11.435-4.268c-3.194-2.086-5.684-4.553-7.412-6.896c-3.518-4.697-4.249-8.521-4.896-8.379       c-0.247,0.04-0.366,1.038-0.104,2.813c0.251,1.774,1.041,4.3,2.665,7.112c1.61,2.815,4.181,5.82,7.683,8.36       c3.493,2.53,7.983,4.521,13.004,5.187c5.001,0.599,9.826-0.121,13.862-1.556c4.057-1.421,7.369-3.46,9.836-5.497       C143.799,446.407,145.501,442.713,145.122,442.476z"/>
				</g>
			</g>
		</g>
		<g>
			<g>
				<path style="fill:#8DBBED;" d="M173.034,63.581c0.079-0.397-1.681-1.063-4.474-2.06c-2.786-1.004-6.62-2.371-10.432-4.531      c-1.891-1.1-3.557-2.319-4.961-3.554c-1.38-1.257-2.486-2.533-3.317-3.692c-1.657-2.32-2.389-4.044-2.819-3.914      c-0.316,0.076-0.275,2.068,1.103,4.941c0.69,1.425,1.766,3.011,3.218,4.535c1.469,1.499,3.294,2.933,5.364,4.135      c4.175,2.362,8.333,3.479,11.331,4.013C171.06,63.979,172.962,63.949,173.034,63.581z"/>
			</g>
		</g>
		<g>
			<g>
				<path style="fill:#8DBBED;" d="M166.041,76.331c0.13-0.393-1.843-1.284-4.635-3.211c-2.783-1.913-6.361-5.013-9.14-9.371      c-2.847-4.338-4.288-8.866-4.712-12.256c-0.465-3.393-0.252-5.605-0.66-5.673c-0.309-0.074-1.217,2.075-1.222,5.815      c-0.054,3.713,1.272,8.934,4.37,13.631c3.045,4.778,7.204,7.943,10.419,9.532C163.706,76.413,165.949,76.654,166.041,76.331z"/>
			</g>
		</g>
		<g>
			<g>
				<path style="fill:#8DBBED;" d="M415.544,97.058c-0.422-0.737-7.619,3.249-17.41,4.657c-9.771,1.54-17.823-0.149-18.009,0.68      c-0.089,0.35,1.832,1.25,5.172,1.916c3.327,0.671,8.093,0.972,13.258,0.201c5.163-0.785,9.629-2.477,12.611-4.099      C414.162,98.793,415.732,97.366,415.544,97.058z"/>
			</g>
		</g>
		<g>
			<g>
				<path style="fill:#8DBBED;" d="M413.801,98.803c-0.633-0.631-7.092,5.763-16.856,10.69c-9.707,5.04-18.612,6.509-18.488,7.401      c0.045,0.383,2.361,0.521,6.039-0.076c3.67-0.589,8.679-2.041,13.779-4.644c5.094-2.616,9.223-5.841,11.872-8.486      C412.81,101.04,414.077,99.068,413.801,98.803z"/>
			</g>
		</g>
		<g>
			<g>
				<path style="fill:#FFDDFF;" d="M189.584,111.918c0.781,0.021,1.602-7.087,1.835-15.875c0.232-8.788-0.212-15.929-0.993-15.95      c-0.781-0.021-1.602,7.087-1.835,15.875C188.359,104.756,188.803,111.897,189.584,111.918z"/>
			</g>
		</g>
		<g>
			
				<ellipse transform="matrix(0.7071 -0.7071 0.7071 0.7071 -33.4173 170.2378)" style="fill:#4C86F2;" cx="188.787" cy="125.457" rx="19.553" ry="19.553"/>
		</g>
		<g>
			<g>
				<path style="fill:#8DBBED;" d="M243.66,160.946c0.781,0.021,1.694-10.583,2.041-23.683c0.346-13.1-0.006-23.737-0.787-23.758      c-0.781-0.021-1.695,10.583-2.041,23.683C242.527,150.288,242.879,160.925,243.66,160.946z"/>
			</g>
		</g>
		<g>
			<g>
				<path style="fill:#8DBBED;" d="M297.201,168.632c0.781,0.021,1.652-8.98,1.946-20.103c0.294-11.123-0.101-20.156-0.881-20.177      c-0.781-0.021-1.652,8.98-1.946,20.102C296.025,159.577,296.42,168.611,297.201,168.632z"/>
			</g>
		</g>
		<g>
			<g>
				<path style="fill:#8DBBED;" d="M360.103,158.952c0.781-0.02,1.197-8.465,0.929-18.863c-0.268-10.397-1.118-18.81-1.899-18.79      s-1.197,8.465-0.929,18.863C358.472,150.559,359.322,158.972,360.103,158.952z"/>
			</g>
		</g>
		<g>
			<path style="fill:#7E9061;" d="M260.488,159.546c-0.285,10.795-9.268,19.314-20.063,19.029     c-10.795-0.285-19.314-9.268-19.029-20.063c0.285-10.795,9.268-19.314,20.063-19.029     C252.254,139.769,260.774,148.751,260.488,159.546z"/>
		</g>
		<g>
			
				<ellipse transform="matrix(0.7071 -0.7071 0.7071 0.7071 -32.1925 259.5437)" style="fill:#FC12AD;" cx="297.201" cy="168.632" rx="19.553" ry="19.553"/>
		</g>
		<g>
			
				<ellipse transform="matrix(0.0279 -0.9996 0.9996 0.0279 188.5901 518.5322)" style="fill:#FFB339;" cx="360.897" cy="162.303" rx="19.553" ry="19.553"/>
		</g>
		<g>
			
				<ellipse transform="matrix(0.4273 -0.9041 0.9041 0.4273 -0.305 233.7846)" style="fill:#70D6F9;" cx="184.379" cy="117.133" rx="5.464" ry="5.465"/>
		</g>
		<g>
			<path style="fill:#E2E0A6;" d="M241.915,150.915c-0.08,3.017-2.59,5.398-5.607,5.318c-3.017-0.08-5.398-2.59-5.318-5.607     c0.08-3.017,2.59-5.398,5.607-5.318C239.613,145.388,241.994,147.898,241.915,150.915z"/>
		</g>
		<g>
			<path style="fill:#EE43F7;" d="M297.413,160.625c-0.08,3.017-2.59,5.398-5.607,5.318s-5.398-2.59-5.318-5.607     c0.08-3.017,2.59-5.398,5.607-5.318C295.111,155.097,297.492,157.607,297.413,160.625z"/>
		</g>
		<g>
			<path style="fill:#FFEE8D;" d="M363.732,154.097c-0.08,3.017-2.59,5.398-5.607,5.318c-3.017-0.08-5.398-2.59-5.318-5.607     c0.08-3.017,2.59-5.398,5.607-5.318C361.431,148.569,363.812,151.08,363.732,154.097z"/>
		</g>
		<g>
			<path style="fill:#FD1042;" d="M104.107,368.305c-7.359,0.577-15.819,2.578-19.486,7.567c-5.749,7.823-3.356,18.93,0.245,27.062     c5.065,11.438,14.631,24.934,26.909,29.389c12.505,4.537,26.1,1.808,37.46-4.521c9.196-5.123,23.925-15.358,23.098-27.414     c-0.704-10.247-12.385-18.387-20.761-22.555c-12.101-6.023-26.368-8.969-39.788-9.65     C109.613,368.072,106.941,368.083,104.107,368.305z"/>
		</g>
		<g>
			<g>
				<path style="fill:#AD0E41;" d="M156.365,409.721c-3.74-1.202-8.323-1.522-12.731,0.108c-2.182,0.806-4.179,2.088-5.717,3.67      c-1.548,1.577-2.681,3.378-3.509,5.165c-1.644,3.605-2.085,7.136-2.195,9.991c-0.036,2.071,0.033,3.842,0.149,5.256      c0.466-0.081,0.928-0.161,1.392-0.257c0.109-1.349,0.248-2.98,0.452-4.838c0.352-2.71,0.977-5.907,2.549-9.021      c1.546-3.109,4.163-5.998,7.862-7.315c3.673-1.369,7.667-1.197,10.982-0.268c3.34,0.977,6.124,2.674,8.274,4.316      c0.161,0.126,0.302,0.25,0.457,0.374c0.463-0.454,0.913-0.916,1.35-1.387c-0.174-0.171-0.338-0.346-0.522-0.52      C163.031,413.044,160.123,410.981,156.365,409.721z"/>
			</g>
			<g>
				<path style="fill:#AD0E41;" d="M98.12,420.595c-0.212,0.621-0.419,1.202-0.619,1.756c0.427,0.454,0.853,0.898,1.293,1.334      c0.382-0.714,0.785-1.489,1.189-2.363c1.038-2.317,2.075-5.226,2.514-8.658c0.431-3.404,0.234-7.359-1.322-11.167      c-1.533-3.83-4.455-6.831-7.646-8.442c-3.192-1.684-6.708-1.814-9.267-1.099c-0.978,0.262-1.806,0.609-2.56,0.979      c0.102,0.555,0.217,1.11,0.344,1.659c0.786-0.276,1.651-0.526,2.628-0.681c2.263-0.369,5.023-0.067,7.624,1.439      c2.597,1.467,4.967,3.988,6.261,7.222c1.326,3.238,1.603,6.719,1.345,9.819C99.646,415.504,98.88,418.292,98.12,420.595z"/>
			</g>
		</g>
		<g>
			<g>
				<path style="fill:#EF3087;" d="M151.484,387.595c-0.351-8.343-17.122-11.989-23.196-13.239      c-5.943-1.223-18.664-2.753-21.28,5.082c-1.13,3.384,1.161,7.866,3.691,10.027c6.653,5.684,15.647,8.777,24.373,8.561      c6.105-0.151,12.786-2.345,15.661-7.733C151.177,389.461,151.524,388.54,151.484,387.595z"/>
			</g>
		</g>
		<g>
			<g>
				<g>
					<path style="fill:#F94690;" d="M401.555,108.761c0.871,0.261,2.415-1.751,3.762-5.469c1.35-3.7,2.374-9.135,2.195-15.17       c-0.192-6.035-1.548-11.396-3.122-15.006c-1.573-3.629-3.238-5.541-4.091-5.228c-1.809,0.709,0.163,9.572,0.428,20.443       C401.13,99.197,399.706,108.164,401.555,108.761z"/>
				</g>
			</g>
			<g>
				<g>
					<path style="fill:#8DBBED;" d="M415.544,97.058c-0.422-0.737-7.619,3.249-17.41,4.657c-9.771,1.54-17.823-0.149-18.009,0.68       c-0.089,0.35,1.832,1.25,5.172,1.916c3.327,0.671,8.093,0.972,13.258,0.201c5.163-0.785,9.629-2.477,12.611-4.099       C414.162,98.793,415.732,97.366,415.544,97.058z"/>
				</g>
			</g>
			<g>
				<g>
					<path style="fill:#8DBBED;" d="M413.801,98.803c-0.633-0.631-7.092,5.763-16.856,10.69c-9.707,5.04-18.612,6.509-18.488,7.401       c0.045,0.383,2.361,0.521,6.039-0.076c3.67-0.589,8.679-2.041,13.779-4.644c5.094-2.616,9.223-5.841,11.872-8.486       C412.81,101.04,414.077,99.068,413.801,98.803z"/>
				</g>
			</g>
			<path style="fill:#FFDDFF;" d="M400.793,107.387c0.148,0.765,0.384,1.252,0.762,1.374c0.727,0.217,1.921-1.165,3.079-3.781     C403.448,105.769,402.166,106.58,400.793,107.387z"/>
			<path style="fill:#FFDDFF;" d="M406.327,99.891c-1.724,0.509-3.643,0.998-5.701,1.396c-0.028,1.047-0.045,2.002-0.043,2.862     c1.739-0.354,3.376-0.803,4.884-1.306C405.777,101.945,406.068,100.96,406.327,99.891z"/>
			<g>
				<g>
					<path style="fill:#F94690;" d="M327.416,156.049c1.838-0.558,1.606-6.478,2.106-13.415c0.395-6.944,1.383-12.785-0.367-13.574       c-0.848-0.351-2.272,0.772-3.619,3.123c-1.345,2.334-2.522,5.923-2.789,10.015c-0.26,4.093,0.446,7.803,1.481,10.29       C325.262,154.992,326.53,156.288,327.416,156.049z"/>
				</g>
			</g>
			<g>
				<g>
					<path style="fill:#F94690;" d="M442.591,170.743c-1.516-1.194-6.798,3.137-13.861,7.034       c-6.998,4.011-13.442,6.275-13.209,8.191c0.137,0.902,2.073,1.516,5.163,1.322c3.072-0.184,7.266-1.291,11.375-3.597       c4.104-2.314,7.228-5.322,8.981-7.852C442.809,173.303,443.291,171.329,442.591,170.743z"/>
				</g>
			</g>
			<g>
				<g>
					<path style="fill:#F94690;" d="M104.337,116.859c1.427-1.279-1.596-6.895-4.845-13.724c-3.322-6.794-5.835-12.655-7.724-12.335       c-0.904,0.178-1.445,1.984-1.295,4.808c0.144,2.813,1.051,6.626,2.905,10.476c1.859,3.848,4.279,6.931,6.391,8.795       C101.885,116.754,103.635,117.455,104.337,116.859z"/>
				</g>
			</g>
			<g>
				<g>
					<path style="fill:#F94690;" d="M168.259,32.676c-0.572-0.72-2.549-0.279-5.168,1.337c-2.611,1.604-5.805,4.449-8.55,8.222       c-2.738,3.778-4.453,7.696-5.171,10.675c-0.726,2.99-0.532,5.007,0.329,5.328c1.818,0.623,5.427-5.334,10.335-12.014       C164.867,39.488,169.414,34.212,168.259,32.676z"/>
				</g>
			</g>
			<g>
				<g>
					<path style="fill:#8DBBED;" d="M173.034,63.581c0.079-0.397-1.681-1.063-4.474-2.06c-2.786-1.004-6.62-2.371-10.432-4.531       c-1.891-1.1-3.557-2.319-4.961-3.554c-1.38-1.257-2.486-2.533-3.317-3.692c-1.657-2.32-2.389-4.044-2.819-3.914       c-0.316,0.076-0.275,2.068,1.103,4.941c0.69,1.425,1.766,3.011,3.218,4.535c1.469,1.499,3.294,2.933,5.364,4.135       c4.175,2.362,8.333,3.479,11.331,4.013C171.06,63.979,172.962,63.949,173.034,63.581z"/>
				</g>
			</g>
			<g>
				<g>
					<path style="fill:#F94690;" d="M168.259,32.676c-0.572-0.72-2.549-0.279-5.168,1.337c-2.611,1.604-5.805,4.449-8.55,8.222       c-2.738,3.778-4.453,7.696-5.171,10.675c-0.726,2.99-0.532,5.007,0.329,5.328c1.818,0.623,5.427-5.334,10.335-12.014       C164.867,39.488,169.414,34.212,168.259,32.676z"/>
				</g>
			</g>
			<path style="fill:#FFDDFF;" d="M151.352,55.307c0.368,0.375,0.758,0.746,1.168,1.111c0.519-0.589,1.084-1.304,1.69-2.108     c-0.361-0.289-0.711-0.58-1.043-0.872c-1.196-1.089-2.173-2.188-2.956-3.217c-0.351,0.941-0.633,1.838-0.832,2.66     C149.934,53.685,150.587,54.504,151.352,55.307z"/>
		</g>
		<g>
			<g>
				<path style="fill:#FFDDFF;" d="M249.601,231.664c0.356-1.123-3.442-3.639-10.405-5.616c-3.47-1.006-7.726-1.745-12.504-2.113      c-4.777-0.298-10.076-0.182-15.566,0.582c-5.482,0.814-10.599,2.196-15.099,3.827c-4.481,1.699-8.356,3.607-11.402,5.55      c-6.124,3.86-9.059,7.343-8.401,8.32c1.468,2.199,16.226-6.043,36.19-8.738C232.329,230.437,248.812,234.187,249.601,231.664z"/>
			</g>
		</g>
		<g>
			<g>
				<path style="fill:#FFDDFF;" d="M267.562,239.839c1.104-2.243-0.599-5.339-3.803-6.915c-3.204-1.576-6.696-1.036-7.799,1.206      c-1.104,2.243,0.599,5.339,3.803,6.915C262.966,242.622,266.458,242.081,267.562,239.839z"/>
			</g>
		</g>
		<g>
			
				<ellipse transform="matrix(0.5388 -0.8424 0.8424 0.5388 -239.9891 389.3765)" style="fill:#F230B3;" cx="235.626" cy="413.872" rx="31.268" ry="31.268"/>
		</g>
	</g>
</g>















</svg>
