<svg id="Layer_1" height="512" viewBox="0 0 1000 1000" width="512" xmlns="http://www.w3.org/2000/svg"><switch><g><g><g><g><g><path d="m812.7 811.6c3.7 4.4 4.3 10.7 6.8 15.9 4.2 8.8 14.3 14.3 24 13.6s18.7-7.5 22.4-16.5c10-24-15.1-82.2-60.8-94.3l-33.2 57.4c1 25.5-.3 41.5 10.4 47.9 8.6 5.2 26.4 1.7 30.4-24z" fill="#524f56"/></g><g><path d="m812.7 811.6c3.7 4.4 4.3 10.7 6.8 15.9 4.2 8.8 14.3 14.3 24 13.6s18.7-7.5 22.4-16.5c1.4-3.3 2.1-7.4 2.2-11.8-13.8 1.6-28.1-4-39.1-12.7-12.9-10.4-22-24.7-30.3-39.1l-14 4.6-12.8 22.1c1 25.5-.3 41.5 10.4 47.9 8.6 5.2 26.4 1.7 30.4-24z" fill="#444247"/></g><g><path d="m670.4 578.5c-37.8 3.4-42.3 110.2-42.3 110.2 40.2 29.4 82.5 56 120.2 82.4 16.6-20.3 33.8-40.1 51.5-59.5-31.2-41.6-113.2-134.6-129.4-133.1z" fill="#f7343e"/></g><g><path d="m751.2 767.5c2.4-2.9 4.7-5.7 7.1-8.6.1-.5.3-.9.4-1.4l-2.7-15.6c-29.6-20.3-67.1-78-80.2-106-.7-1.5-3-1-2.9.7 4.9 99.4 40.8 110.1 73.4 132.9 1.6-.4 3.3-1.1 4.9-2z" fill="#c61e36"/></g><g><path d="m219.4 604.8 39.4-57c-2.4-13.5-9.4-47-19-56.7-4.8-4.9-12.5-7.5-18.7-4.4-8.6 4.3-9.3 15-9.7 23.3-25.9-21.3-32.7-28.2-42.9-29.4-28.2-3.5-43.8 31.6-33.6 65.3 5.7 18.7 38.1 52.7 84.5 58.9z" fill="#524f56"/></g><g><path d="m219.4 604.8 9-13.1c0-1.6-.3-3.3-1-4.8-2.7-6.5-10.3-9-16.8-11.7-27.8-11.6-47.2-36.8-64.7-61.3-3.3-4.6-6.5-9.2-8.8-14.3-6 12.5-7.3 29.5-2.2 46.1 5.7 18.9 38.1 52.9 84.5 59.1z" fill="#444247"/></g><g><path d="m382.3 595.7c-.6-.9-1.6-1.3-2.6-1.7-35.3-13.6-70.5-27.2-105.8-40.8-12.5 23.1-25.6 45.8-39.3 68.1 37.3 26.9 76.3 58.1 117.3 86.5 0 0 29.9-71.3 31-109.2-.1-1 0-2.1-.6-2.9z" fill="#f7343e"/></g><path d="m357.6 635.1s-24.6 30.8-55.5 14-53.8-37.2-53.8-37.2l-13.6 9.3c0 .1-.1.1-.1.2 35.7 25.7 72.9 55.4 112 82.8l8.8-18.8z" fill="#c61e36"/><path d="m518.9 871.3c21 27.3 106.5 20.5 153.1-5 52-28.4 48.1-69 37.9-117.9-11.6-55.5-37.9-175.1-37.9-175.1l-153.1 38.5-153.1-38.5s-26.3 119.5-37.9 175.1c-10.2 49-14.2 89.5 37.9 117.9 46.6 25.5 132.1 32.3 153.1 5z" fill="#f7343e"/><path d="m622 662.1c36.6-17.8 62-34.2 83.7-57.6-6.4-6.2-12.2-11.5-17.4-15.8-.2 0-.4-.1-.6-.1l-15.7-15.3-153.1 38.5-153.1-38.5s-1.2 5.3-3.1 14.1c-20.2-7.8-40.5-15.6-60.7-23.4 38.1 75.5 164.5 128.4 216.9 128.5.1 0 38.7 1 103.1-30.4z" fill="#c61e36"/><path d="m494.3 655.3v155.5c0 10-8.7 17.7-18.6 16.6-82.1-9-133-28.4-153.9-37.9-1.5 30.8 7.4 56.8 44 76.8 46.6 25.5 132.1 32.3 153.1 5 21 27.3 106.5 20.5 153.1-5 36.7-20 45.5-46.1 44-76.8-20.9 9.5-71.8 28.9-153.9 37.9-9.9 1.1-18.6-6.7-18.6-16.6v-155.5z" fill="#e8edec"/><path d="m736.2 329.2s-34.7-209.1-225.9-217.8-288 197.4-306.6 249.5l22.3 31s25.8-21.1 72.5-37.2c46.6-16.1 437.7-25.5 437.7-25.5z" fill="#f7343e"/><g><path d="m242.2 350c-7 8.1-14.4 16.2-24 20.8l-3.3 5.9 11 15.3s25.8-21.1 72.5-37.2c10-3.5 35.8-6.6 70.1-9.4 1.4-3.9 2.4-7.9 2.5-12 .2-11.2-6.2-21.2-11.4-31.1-14.6-27.6-20.9-59.5-18-90.7-28.8 49-62.1 95.4-99.4 138.4z" fill="#c61e36"/></g><path d="m756.5 423.8c8.4-53.3-7-92.3-13.7-97.7-6.6-5.4-26.1-19.5-93.9-40.1-86-26.2-173.9-26.2-259.9 0-67.9 20.7-87.3 34.8-93.9 40.1-6.6 5.4-22.1 44.4-13.7 97.7 0 0 114.2-48.4 237.5-62.9 123.4 14.5 237.6 62.9 237.6 62.9z" fill="#fff"/><path d="m756.5 423.8c8.4-53.3-7-92.3-13.7-97.7-6.6-5.4-26.1-19.5-93.9-40.1-86-26.2-173.9-26.2-259.9 0-67.9 20.7-87.3 34.8-93.9 40.1-6.6 5.4-22.1 44.4-13.7 97.7 0 0 114.2-48.4 237.5-62.9 123.4 14.5 237.6 62.9 237.6 62.9z" fill="#e8edec"/><path d="m295.1 326.2c-6.6 5.4-22.1 44.4-13.7 97.7 0 0 114.2-48.4 237.5-62.9 123.3 14.5 237.5 62.9 237.5 62.9 8.4-53.3-7-92.3-13.7-97.7-3-2.4-8.5-6.5-19.7-12.2 7.2 16.7 13.4 40.9 3.9 51.1-17.7 19-79.9-38.5-208.1-38.5s-190.2 57.4-207.9 38.4c-9.5-10.2-3.3-34.3 3.9-51-11.3 5.6-16.8 9.8-19.7 12.2z" fill="#cbd4e3"/><path d="m323.1 403.8s-41.6-9-50.1 27.3c-9.1 38.9 39.2 61.8 39.2 61.8s18.7-59.3 10.9-89.1z" fill="#ffc8a9"/><path d="m328.6 430.9s-24.6-15.9-33.5 0c-10.7 19 26.9 44.3 26.9 44.3z" fill="#f49f80"/><path d="m764.9 431.1c-8.5-36.3-50.1-27.3-50.1-27.3-7.8 29.8 10.9 89.1 10.9 89.1s48.3-22.9 39.2-61.8z" fill="#ffc8a9"/><path d="m742.8 430.9c-8.9-15.9-33.5 0-33.5 0l6.6 44.3c0-.1 37.6-25.3 26.9-44.3z" fill="#f49f80"/><path d="m543.6 689.7v-34.4h-49.3v34.4c9.2 1.8 17.6 2.8 24.6 2.8 7.1 0 15.5-1 24.7-2.8z" fill="#d0dbe2"/><path d="m323.1 403.8s-3 51.7-14.9 85.7c-37.2 106.5 150 190 210.7 190 60.7-.1 248-83.4 210.7-190-11.9-34-14.9-85.7-14.9-85.7-15.8-8.4-32-14.3-32-14.3s11.6 51.3-31.3 87.8c-45.9 39.1-132 46.3-132.5 46.4-.5 0-86.6-7.3-132.5-46.4-42.9-36.5-31.3-87.8-31.3-87.8s-16.2 5.9-32 14.3z" fill="#e8edec"/><path d="m333.7 398.5c-3.4 18-9.7 69.6 18.2 115.3 29.3 48.1 85.5 72.5 167 72.5s137.7-24.4 167-72.5c27.8-45.7 21.6-97.3 18.2-115.3-11.7-5.5-21.3-9-21.3-9s11.6 51.3-31.3 87.8c-46 39.2-132.5 46.4-132.5 46.4s-86.5-7.2-132.5-46.4c-42.9-36.5-31.3-87.8-31.3-87.8s-9.8 3.5-21.5 9z" fill="#d0dbe2"/><path d="m682.8 389.5s-75.7-28.6-163.9-28.6c-88.1 0-163.9 28.6-163.9 28.6s-42.2 134.2 163.9 134.2 163.9-134.2 163.9-134.2z" fill="#ffc8a9"/><path d="m682.5 444.9c-18.5 31.1-62.7 60.3-163.5 60.3s-145.1-29.1-163.5-60.3c10.8 36.9 48.5 78.7 163.5 78.7 115 .1 152.6-41.7 163.5-78.7z" fill="#f49f80"/><ellipse cx="518.9" cy="512.2" fill="#4b2b30" rx="27.3" ry="27.9"/><path d="m539.9 530.1c-2.5-6.1-11-10.6-21-10.6s-18.5 4.5-21 10.6c5 6.2 12.6 10.1 21 10.1 8.5 0 16-3.9 21-10.1z" fill="#fc8383"/><g><path d="m518.9 482.2-21.9-36.8c-13.5-3.8-28.2 1.4-39.4 9.9-24.6 18.7-36.1 52.1-59.6 48.1 9.2 48.1 110.1 52.4 120.9-21.2z" fill="#fff"/></g><g><path d="m398 503.4c9.3 48.1 110.1 52.4 121-21.2l-22-36.8c-1.4-.4-2.9-.7-4.4-.9l7.4 12.5c-8.1 56.3-69.8 66.3-102 46.4z" fill="#e8edec"/></g><g><path d="m639.9 503.4c-23.5 4-35.1-29.4-59.7-48.1-11.2-8.5-25.9-13.7-39.4-9.9l-21.9 36.8c10.9 73.6 111.7 69.3 121 21.2z" fill="#fff"/></g><g><path d="m540.9 445.4-21.9 36.8c10.8 73.6 111.7 69.3 121 21.2-32.3 19.8-93.9 9.9-102.1-46.4l7.4-12.5c-1.5.2-3 .5-4.4.9z" fill="#e8edec"/></g><ellipse cx="518.9" cy="457.8" fill="#fc8383" rx="38.5" ry="29.8"/><path d="m556.1 450c-4.4 12.7-19.4 22.1-37.2 22.1s-32.8-9.4-37.2-22.1c-6.9 19.8 13.1 37.5 37.2 37.5 24.9.1 43.9-18.2 37.2-37.5z" fill="#d66969"/><ellipse cx="409.8" cy="454" fill="#fc8383" rx="22.8" ry="16.1"/><ellipse cx="628.1" cy="454" fill="#fc8383" rx="22.8" ry="16.1"/><path d="m433.9 382c21.4-3.7 40-9.6 39.1-21.1s-16.8-18.3-43.4-13.1c-20.3 4-32.2 14.1-31.6 25.5s14.5 12.5 35.9 8.7z" fill="#fff"/><path d="m640 373.3c.6-11.4-11.3-21.5-31.6-25.5-26.6-5.2-42.5 1.6-43.4 13.1s17.7 17.4 39.1 21.1c21.4 3.8 35.3 2.7 35.9-8.7z" fill="#fff"/><g><ellipse cx="194.4" cy="397.2" fill="#e8edec" rx="53.8" ry="53.8" transform="matrix(.982 -.187 .187 .982 -70.856 43.367)"/></g><g><path d="m237 364.3c-7.4 46.5-67 61.5-95.8 24.3-5.3 32.8 20.1 62.4 53.2 62.4 45 .1 69.7-51.6 42.6-86.7z" fill="#cbd4e3"/></g><g fill="#4b2b30"><path d="m618 415.7c1.1-2 .6-4.8-1.6-6-15.3-8.1-30.2-8.1-45.5 0-2 1.1-2.8 4-1.6 6 1.3 2 3.8 2.7 6 1.6 1.9-1 2.9-1.5 3.8-1.8-.2.1-.2.1 0 0 .8-.3 4.7-1.9 9.3-2.7.1 0 .4-.1.6-.1-.1 0-.2 0-.2 0 .5-.1.5-.1.2 0 3.2-.4 6.6-.4 9.7 0-1.7-.2 3.3.2 9.1 2.5.2.1 1.2.5.5.2 1.1.5 2.1 1 3.8 1.8 1.9 1.1 4.7.6 5.9-1.5z"/><path d="m579 415.4c.1 0 .1 0 0 0z"/><path d="m588.7 412.6h.2c.2 0 .3 0-.2 0z"/></g><g fill="#4b2b30"><path d="m439.3 412.6h.2c.2 0 .3 0-.2 0z"/><path d="m468.6 415.7c1.1-2 .6-4.8-1.6-6-15.3-8.1-30.2-8.1-45.5 0-2 1.1-2.8 4-1.6 6 1.3 2 3.8 2.7 6 1.6 2-1 3-1.5 3.8-1.8-.6.3 3.8-1.8 9.2-2.7.1 0 .4-.1.6-.1-.1 0-.2 0-.2 0 .5-.1.5-.1.2 0 3.2-.4 6.6-.4 9.7 0-1.8-.2 3.4.3 9.1 2.5.2.1 1.2.5.5.2 1.1.5 2.1 1 3.8 1.8 2 1.1 4.8.6 6-1.5z"/></g><path d="m713.2 765.8c-1.8-10.4-4.4-22.7-8.8-43.2-28 7.5-102.7 27.9-185.5 27.9s-157.4-20.4-185.5-27.9c-3.6 16.7-7 32.5-8.8 43.2 27.9 9.2 114.6 32.2 194.3 32.2s166.5-23.1 194.3-32.2z" fill="#524f56"/><path d="m713.2 765.8c-.9-5.5-2.1-11.5-3.7-18.9-31.2 9.8-114.1 31.1-190.7 31.1-76.5 0-159.4-21.3-190.6-31.1-1.5 7.2-2.8 13.7-3.7 18.9 28 9.2 114.7 32.2 194.4 32.2s166.5-23.1 194.3-32.2z" fill="#444247"/><g><g><path d="m481.6 811.5 74.9-.3c7.5 0 13.6-6.1 13.6-13.6l-.2-48.9c0-7.5-6.1-13.6-13.6-13.6l-74.9.3c-7.5 0-13.6 6.1-13.6 13.6l.2 49c0 7.5 6.1 13.6 13.6 13.5zm13.8-56.9 46.9-.2c3.9 0 7 3.1 7 7l.1 23.7c0 3.9-3.1 7-7 7l-46.9.2c-3.9 0-7-3.1-7-7l-.1-23.7c0-3.9 3.1-7 7-7z" fill="#fdcc00"/></g></g><path d="m271.8 595.7c22.6-31.7 31.5-44.7 12.1-61.2-21.7-18.4-43.2 12-53.4 25.2-17.5 22.7-38.1 50.3-15.6 65.2s34.3 2.4 56.9-29.2z" fill="#e8edec"/><path d="m807.2 757.2c10-13.4 33.5-42.3 9.9-58.2-21.1-14.3-31.3-2.2-55.7 28.1s-33.1 45.1-12.7 62.7c20.3 17.6 41.3-9.7 58.5-32.6z" fill="#e8edec"/><g><path d="m807.2 757.2c.1-.1.1-.2.2-.3-10.1 1.3-20.4 1-30.2-1.6-9.8-2.7-19-7.8-26-15.1-16.2 21.9-19.7 34.7-2.5 49.6 20.3 17.6 41.3-9.7 58.5-32.6z" fill="#d0dbe2"/></g><g><path d="m255.1 617.4c-.3-.1-.6-.3-.8-.4-16.6-8.3-29.7-23.3-35.9-40.8-12.6 18.4-20.7 37.3-3.5 48.7 16.2 10.7 27 7.2 40.2-7.5z" fill="#d0dbe2"/></g><path d="m518.9 871.3c21 27.3 106.5 20.5 153.1-5 27.8-15.2 39.6-33.8 43-55.3-17 13.8-47.6 33.4-93.9 45.4-77 19.9-102.2-11.2-102.2-11.2s-25.2 31-102.2 11.2c-46.3-12-76.9-31.6-93.9-45.4 3.4 21.5 15.3 40.1 43 55.3 46.6 25.5 132.1 32.3 153.1 5z" fill="#cbd4e3"/></g></g><g><path d="m542.5 792.2-46.9.2c-3.9 0-7-3.1-7-7v-6.3h-20.6l.1 19c0 7.5 6.1 13.6 13.6 13.6l74.9-.3c7.5 0 13.6-6.1 13.6-13.6l-.2-18.8h-20.6v6.1c0 3.9-3.1 7-6.9 7.1z" fill="#fca800"/></g></g></g></switch></svg>