<svg id="Layer_1" enable-background="new 0 0 512 512" height="512" viewBox="0 0 512 512" width="512" xmlns="http://www.w3.org/2000/svg"><g><path d="m339.259 93.024c-16.297-37.201-46.058-36.138-46.058-36.138-11.338-27.635-37.201-25.863-37.201-25.863s-25.863-1.772-37.201 25.863c0 0-29.76-1.063-46.058 36.138s15.056 62.246 15.056 62.246l68.203-3.079 68.202 3.079s31.354-25.045 15.057-62.246z" fill="#c9e8f7"/><path d="m339.259 93.024c-5.861-13.379-13.463-21.792-20.796-27.102 23.062 48.475-17.9 61.659-17.9 61.659 7.4-9.405 3.922-26.733 3.922-26.733-13.802 35.054-78.121 19.132-77.944-21.966.103-23.98 9.46-35.94 24.996-47.676-7.902.858-24.319 5.161-32.737 25.68 0 0-29.76-1.063-46.058 36.138s15.056 62.246 15.056 62.246l68.202-3.079 68.202 3.079s31.354-25.045 15.057-62.246z" fill="#b2dff4"/><path d="m460.781 358.389c-2.126-68.024-47.964-63.825-47.964-63.825l-156.817 45.401-156.817-45.401s-45.838-4.199-47.964 63.825 88.573 124.002 204.781 122.585c116.208 1.417 206.907-54.561 204.781-122.585z" fill="#c9e8f7"/><path d="m415.181 305.416-159.181-8.844-159.181 8.844s-18.743 2.516-18.743 23.774c0 21.257 56.332 52.081 177.924 56.555 121.591-4.474 177.924-35.297 177.924-56.555s-18.743-23.774-18.743-23.774z" fill="#89cbe5"/><path d="m225.465 133.957c-103.83 45.391-126.493 151.519-131.236 187.075-.972 7.283 2.615 14.434 9.067 17.95 78.688 42.882 226.721 42.882 305.408 0 6.452-3.516 10.039-10.667 9.067-17.95-4.743-35.556-27.407-141.684-131.236-187.074-19.446-8.502-41.624-8.502-61.07-.001z" fill="#e94454"/><path d="m256 459.259c-98.685 1.165-179.55-36.446-204.008-87.647 9.128 61.9 95.427 110.686 204.008 109.362 108.581 1.324 194.881-47.462 204.008-109.362-24.458 51.201-105.323 88.812-204.008 87.647z" fill="#e2f3fa"/><g fill="#db2c3e"><path d="m417.771 321.032c-4.743-35.556-27.406-141.684-131.236-187.074-12.495-5.462-26.116-7.395-39.418-5.837 19.346 13.409 79.426 60.452 73.472 123.931-7.052 75.18-119.627 123.905-190.888 98.791 82.077 30.54 208.421 26.604 279.003-11.86 6.452-3.517 10.039-10.668 9.067-17.951z"/><path d="m247.113 128.115c13.297-1.555 26.928.383 39.411 5.835 30.467 13.321 53.952 31.878 72.031 52.325-9.757 8.801-24.871 8.49-34.27-.909l-.263-.239c-7.174-7.174-17.147-9.901-26.45-8.155-17.433-24.368-39.96-41.563-50.459-48.857z"/><path d="m408.705 338.971c-70.572 38.479-196.938 42.401-279.013 11.862 71.266 25.134 183.856-23.604 190.887-98.792 2.535-26.976-6.864-51.01-20.017-70.716 7.174-.693 14.612 1.698 20.088 7.174l.239.263c11.192 11.168 29.128 11.551 40.799 1.148 41.038 48.571 52.828 106.612 56.08 131.124.981 7.271-2.606 14.422-9.063 17.937z"/></g><g><path d="m361.689 189.911c-11.67 10.403-29.606 10.02-40.799-1.148l-.239-.263c-5.476-5.476-12.914-7.868-20.088-7.174-.98-1.483-1.985-2.941-2.989-4.352 9.303-1.746 19.275.981 26.45 8.155l.263.239c9.398 9.398 24.513 9.709 34.27.909 1.075 1.218 2.103 2.414 3.132 3.634z" fill="#e2f3fa"/><path d="m300.563 181.325c-5.524.55-10.905 2.941-15.138 7.174l-3.563 3.539c-11.575 11.599-30.42 11.575-41.994 0l-3.539-3.539c-9.709-9.709-25.517-9.709-35.226 0l-3.205 3.181c-5.596 5.62-13.057 8.705-20.997 8.705s-15.377-3.085-20.997-8.705l-3.85-3.826c1.028-1.196 2.105-2.391 3.181-3.587.048.024.12.096.167.143l3.874 3.898c4.711 4.711 10.977 7.294 17.625 7.294s12.914-2.583 17.625-7.294l3.181-3.181c11.575-11.575 30.419-11.599 41.994 0l3.563 3.539c9.709 9.709 25.517 9.709 35.226 0l3.539-3.539c4.4-4.4 9.829-7.127 15.545-8.155 1.004 1.412 2.008 2.871 2.989 4.353z" fill="#fff"/></g><g><path d="m303.935 294.92c-1.196 1.674-2.439 3.324-3.755 4.926-5.572.622-10.738 3.085-14.755 7.127l-3.563 3.539c-11.575 11.575-30.42 11.575-41.994 0l-3.539-3.539c-4.711-4.711-10.953-7.294-17.625-7.294-6.648 0-12.914 2.583-17.601 7.294l-3.205 3.181c-11.575 11.575-30.419 11.575-41.994 0l-3.898-3.898c-9.709-9.709-25.517-9.709-35.226 0l-1.435 1.411c-5.477 5.5-12.723 8.561-20.447 8.705.239-1.507.502-3.109.789-4.807 6.17-.335 11.886-2.87 16.286-7.27l1.411-1.411c5.62-5.62 13.081-8.705 20.997-8.705 7.94 0 15.401 3.085 21.021 8.705l3.874 3.898c9.733 9.709 25.541 9.709 35.25 0l3.181-3.205c5.62-5.596 13.081-8.681 20.997-8.681 7.94 0 15.401 3.085 20.997 8.681l3.563 3.563c9.709 9.709 25.517 9.709 35.226 0l3.539-3.563c5.62-5.596 13.081-8.681 20.997-8.681.311 0 .598 0 .909.024z" fill="#fff"/></g><path d="m417.099 316.419c-6.696-.598-13.201-3.444-18.319-8.561l-.646-.646c-9.709-9.709-25.517-9.709-35.226 0-11.599 11.575-30.419 11.575-42.018 0l-.239-.239c-4.711-4.711-10.953-7.294-17.625-7.294-.957 0-1.913.048-2.846.167 1.315-1.602 2.559-3.252 3.755-4.926 7.605.215 14.708 3.276 20.088 8.657l.263.263c9.709 9.709 25.517 9.709 35.226 0 11.575-11.575 30.42-11.575 41.994 0l.646.646c3.97 3.97 8.968 6.337 14.157 7.055.312 1.698.575 3.348.79 4.878z" fill="#e2f3fa"/></g></svg>