<svg id="Layer_1" enable-background="new 0 0 55 55" viewBox="0 0 55 55" xmlns="http://www.w3.org/2000/svg"><g id="_x35_5"><g><path d="m29.3067436 19.8870468c-2.3169155 1.1821232-3.9306812 3.3344498-4.5499878 5.2400513-1.5224037 4.3685818.2380333 8.726944-1.7700195 13.4599609-.8399658 2.1000366-2.1900024 4-3.9199829 5.4500122-.3246231.2657127.0930767.0891457-11.6499634.1400146-.5400391 0-.7900391-.6300049-.4200439-1.0100098 1.8787169-1.9145775 3.1491551-4.3860855 3.6400151-6.7000122.4254265-1.8229942.4000244-3.5418854.4000244-5.5200195.0099487-.3399658.0099487-.6900024.0199585-1.0199585.0300293-1.6400146.1500244-3.25.6799927-4.7999878.8520765-2.3888798 2.6461868-4.267849 4.5599966-5.2400513h13.0100102z" fill="#ffca28"/></g><g><path d="m29.3067436 19.8870468c-1.6434193.8384953-3.0680809 2.1864014-4.0499878 4.0800171-2.2399902-.25-4.5100098-.4899902-6.7600098-.75-1.2799683-.1300049-2.669982-.2600098-3.7899771.3900146-1.9454641 1.1168137-2.8343334 4.8950081-1.5499878 7.0599976 1.668622 2.7575951 6.4831171 2.7803612 4.8499746 4.1799927-1.1300049.9000244-2.6900015 1-4.0100088 1.5700073-.9799805.4299927-2.0499878 1.3300171-2.6799927 2.1799927-1.2799292 1.749321-.8106689 3.8024559 1.8400269 4.5 3.7796679.9537277 8.1358347-1.1467819 10.2799673-5.7799683-.7860203 2.6594353-2.3568916 5.0200386-4.3699951 6.7199707-.3246231.2657127.0930767.0891457-11.6499634.1400146-.5400391 0-.7900391-.6300049-.4200439-1.0100098 1.8574147-1.8574142 3.3537679-4.5963326 3.8200078-7.6099854.5400391-3.4700317-.2299805-7.1199951.9199829-10.4299927.8520765-2.3888798 2.6461868-4.267849 4.5599966-5.2400513h13.0100103z" fill="#ff9f1c"/></g><g><path d="m29.3026104 19.8821983c-1.4639244.758316-2.7172012 1.9062386-3.5913506 3.2964325-8.4840183-1.8260975-9.4298763-2.0958023-11.1741381-2.0958023.5371284-.4739399 1.1269016-.8741493 1.7587786-1.2006302z"/></g><g><path d="m43.9416618 20.5773277c-.5556984.7707996-1.4830894 1.5961037-2.8540573 2.2327194-1.4744644.6635036-3.1068687.926796-4.7392731 1.0320873-5.7669601.3656101-11.1485901-1.0681057-16.8929157-2.3064499-2.2966404-.480175-4.8902645-1.1059856-6.0241108-3.2648067-1.4007368-2.6961164 1.0741911-4.4759789 3.0015144-5.7924442 2.6223869-1.7904043 4.7392731-4.3285198 6.0346527-7.2247424.2738342-.6108575.5582123-1.284903 1.1585274-1.5902998.5476704-.2738349 1.2006321-.1474593 1.8009472-.0210838 13.1348782 2.8258254 14.3581715 3.0279433 15.4500103 3.4544341.8109016.3053966 1.53759.7371688 2.0536995 1.4322987.8846283 1.1690044.8846283 2.759304 1.1690063 4.2021446.5022546 2.4798622 2.062584 4.9808893-.1580009 7.8461427z" fill="#ff9f1c"/></g><g><path d="m42.8147583 21.4093094c-.010479.1263752-.021019.2422104-.0421028.3686485-.3774796.3170242-.8051376.623497-1.685051 1.0320892-1.5453911-.6622143-2.8110733-2.2787476-3.5702667-3.8651237-.6951294-1.4639244-1.0953407-3.0542231-1.4533806-4.6339808-.2651482-1.1835747-.901535-4.0593395-.6003189-5.2342329.1052933-.4002104.3475647-.7898788.7161522-1.0005264l.6424179 1.2216511c1.5461082.7505169 3.31353 2.9377747 4.1916656 4.2548552.4423141.6634398.6213379 1.4112148.8530693 2.1695318.5750352 1.8597545 1.029358 3.7320537.947815 5.687088z"/></g><g><path d="m32.5568771 21.451479c-.1052933.8108978-.2843132 1.6534214-.6950665 2.3485508-.5897732-.0526447-1.1900902-.1158333-1.7798634-.1895618v-.0842724c.4375801-4.551836.3436794-3.1327686.2422085-4.5180836-.1347294-1.7187786-.3787804-4.095788-.9583569-5.7187147-.5055656-1.4007368-.9584217-2.8014736-2.1906147-3.7598314-.2572632-.2090693-.7712936-.5202122-.747776-.9899836l2.2432613-2.0747824c1.5797577 1.5587378 2.8330345 3.370163 3.2753487 5.5607777.621399 3.0963277 1.0321504 6.287405.610859 9.4259014z"/></g><g><path d="m26.2232475 4.5863214c-1.181448-.5020213-2.8657455.0146999-3.874054 2.0378809-1.370842 2.7506089-.8578968 5.3170648.5752468 6.8736911.1619453.1758986.350029.386014.2987213.6195393-.2075138.9444599-3.2162189-.2652388-5.0501003-.3461895-1.4462376-.063838-3.1246033.6267004-3.4272528 2.0423555-.178236.833704.1845446 1.7126293.760931 2.340807.5763884.6281796 1.3432055 1.0453854 2.1119261 1.4140282 2.2923069 1.0992813 6.7805138 2.6391239 9.1672287 2.3213081 2.070118-.2756596 3.2941875-1.7510509 3.025898-3.9630928-.1147766-.9463291-.4806824-1.8420506-.8621464-2.715663-2.2611275-5.1783323-2.9625912-5.2212696-2.7498894-6.822793.1268768-.9552956-.0579815-1.9523482-.5323162-2.7924132" fill="#ffca28"/></g><g><path d="m38.6652603 9.1082716c-.2211266.1263752-.473877.1580009-.7266922.1790209-2.3250618.2846956-5.3140793.1655989-7.6144123.0210838-1.6218605-.0948133-3.5280991-.0210838-4.7076454-1.3480902-.6951294-.7793369-.9689655-1.8640704-1.0953407-2.8962226-.021019-.2105827-.0315609-.4317722.0737305-.6002512.1895638-.3054609.6319408-.294919.9794426-.2422733 3.5649261.5093389 6.6814899 1.0547881 10.8371792 2.2011576 1.0352859.2885003 1.916481.5803161 2.4117393 1.5375896.2106475.4318361.2632942.895234-.158001 1.1479854z" fill="#f72f43"/></g><g><path d="m38.6652603 9.1082716c-.2211266.1263752-.473877.1580009-.7266922.1790209-2.3250618.2846956-5.3140793.1655989-7.6144123.0210838-1.6218605-.0948133-3.5280991-.0210838-4.7076454-1.3480902-.6877041-.769444-.9822636-1.8793988-1.0953407-2.8962226-.021019-.2105827-.0315609-.4317722.0737305-.6002512.1895638-.3054609.6319408-.294919.9794426-.2422733.5160427.07373 1.0321503.1369176 1.5481949.2211895-.4140148.6899323-.1862164 1.5264826.3370228 2.1063433 1.2377949 1.405025 4.2730885 1.6679206 6.0030289 1.8219666 3.4673576.2786961 4.0105782.4112797 4.5602493.2738352.3370247-.0737305.6635056-.2948551.7793388-.621336.01054-.0210838.01054-.0421677.0210838-.0632515.210186.4203749.2447586.9062968-.158001 1.1479855z" fill="#e2212e"/></g><g><path d="m38.9390945 8.7607069c-.0919266.3987761-.59235.4926491-1.0005264.5265856-2.3250618.2846956-5.3140793.1655989-7.6144123.0210838-1.6218605-.0948133-3.5280991-.0210838-4.7076454-1.3480902-.442379-.4949598-.7161503-1.1163597-.8846931-1.758779.463398.9267964 1.4639244 1.6008415 2.4960117 1.8852191 2.1880035.6125975 4.1756859-.1414633 8.288456.8003559 1.179325.2798557 2.4578628.6268187 3.4228095-.1263752z"/></g><g><path d="m47.9767876 44.7570419c-1.8600464 2.3300171-3.75 4.460022-5.9100342 6.4900513-.4500122.4299927-1.2000122.289978-1.5100098-.2600098-2.118988-3.7372131-6.0878601-8.0920982-7.9299927-11.4299927-.9699707-1.6700439-1.75-3.4400024-2.1699829-5.3699951-1.2488136-5.8413239.7976284-11.8646851-.1199951-17.710022-1.1713982-7.5688143-4.1956062-7.1828184-3.7600098-7.8599863.0599976-.1300049.2299805-.1400146.3699951-.1400146 2.7299805-.039978 5.4700317.1500244 8.1900024.4299927 1.1699829.1300049 2.1500244.7200317 3 1.5h.0100098c.6900024.5999756 1.2799683 1.3200073 1.8200073 2 4.2338448 5.3047304 1.8410797 12.6795893 2.3499756 18.7700195.0700073.7600098.1799927 1.5199585.3400269 2.2600098.0700073.3699951.1499634.7299805.25 1.0999756.3800049 1.4400024.9199829 2.8400269 1.6099854 4.1699829.1500244.3099976.3200073.6100464.4899902.9100342.8356361 1.4431801 1.8418617 2.7600975 2.8900146 3.8599854.3399659.3499765.380005.8900155.0800172 1.2799691z" fill="#ffca28"/></g><g><path d="m43.9416618 20.5773277c-.1790237-.1580009-.3264809-.3686485-.4423141-.5792313-.8846931-1.6008415-.3264809-3.6018944-.747776-5.3712149-.5691566-2.3804331-2.763031-3.949913-3.1068077-5.2026711-.2489357-.8848639.2002487-1.9836626 1.232193-2.3274689.8109016.3053966 1.53759.7371688 2.0536995 1.4322987.8846283 1.1690044.8846283 2.759304 1.1690063 4.2021446.5022545 2.4798624 2.0625839 4.9808895-.158001 7.8461429z" fill="#ffca28"/></g><g><path d="m47.9767876 44.7570419c-1.8600464 2.3300171-3.75 4.460022-5.9100342 6.4900513-.4500122.4299927-1.2000122.289978-1.5100098-.2600098-.25-.4299927-.5-.8599854-.7699585-1.2800293 0 0 0 0-.0100098-.0100098-3.25-5.1099854-8.0200195-9.4799805-9.3200073-15.5099487-1.2488136-5.8413239.7976284-11.8646851-.1199951-17.710022-1.1713982-7.5688143-4.1956062-7.1828184-3.7600098-7.8599863.0599976-.1300049.2299805-.1400146.3699951-.1400146 2.7299805-.039978 5.4700317.1500244 8.1900024.4299927 1.1699829.1300049 2.1500244.7200317 3 1.5-.8552895-.7236834-2.6592102-1.1992455-3.3499756-.3200073-.25.3300171-.2800293.7800293-.2300415 1.1900024.2000122 1.7900391 1.6100464 3.2399902 1.9700317 5.000001.039978.2399902.039978.5200195-.1699829.6099854-.1900024.1000366-.4000244-.039978-.5500488-.1900024-.7099609-.6799927-1.1499634-1.5999765-1.5199585-2.5099497-.4449692-1.1064806-1.1038742-3.0469332-2.1500244-3.5700073-.8927574-.4463787-1.7636623.1085062-1.6900024 1.1900024.0877724.9440479 1.4346275 4.5469923 1.4700317 4.6499643 1.0327454 2.9837818 1.4704781 6.1045933 1.3299561 9.0900269-.0799561 1.7000122-.4699707 3.2799683-.7999878 4.9500122-.2199707 1.0599976.4100342 2 1.4299927 2.3699951 2.4019127.8762512 5.0567589-1.61693 5.5900269-.6100464.0999756.1800537.0499878.4100342-.0700073.5800171-.2734909.3979454-2.8261604 1.8250084-3.2000122 2.0300293-.5700073.3099976-1.1599731.6199951-1.5700073 1.1199951-1.2326584 1.5407791-.2988281 4.1849976.5599976 5.9599609.9000244 1.8500366 2.1300049 3.5400391 3.6199951 4.9700317 1.7222328 1.6187973 3.0765228 1.3269997 3.5300293.4199829.6900024-1.3399658-1.4000244-2.7299805-1.0900269-4.2099609.8200073.1900024 1.3200073.9899902 1.8400269 1.6499634.8900146 1.1400146 2.5299683 1.6099854 2.9699707-.0700073.3500366-1.3099976.0599976-2.7000122-.3599854-3.9799805.6300049.9299927 1.3200073 1.8099976 2.0900269 2.6199951.0299683.039978.0700073.0900269.1099854.1300049.3399657.3499756.3800048.8900146.080017 1.2799682z" fill="#ff9f1c"/></g><g><g><path d="m42.9067802 34.5370712c-2.9100342 2.4799805-6.210022 4.4699707-9.7700195 5.8800049-.1799927-.289978-.3499756-.5700073-.5100098-.8599854 3.6799927-1.4500122 7.0700073-3.5200195 10.0300293-6.1199951.0700074.3699952.1499634.7299805.25 1.0999756z" fill="#f72f43"/></g></g><g><g><path d="m45.0067558 39.6170883c-2.4699707 2.3200073-5.2600098 4.2799683-8.289978 5.8099976-.2000122-.2700195-.4100342-.5400391-.6199951-.8099976 3.0899658-1.5400391 5.9299927-3.5300293 8.4199829-5.9100342.1500244.3099976.3200073.6100464.4899902.9100342z" fill="#f72f43"/></g></g><g><g><path d="m24.0567436 31.3171005c0 .3299561 0 .6699829-.0100098 1.0199585-4.3582134.5069618-8.7429619-.3565102-13.0099478-1.3900146.0099487-.3399658.0099487-.6900024.0199585-1.0199585 4.2051764 1.0066261 8.6854964 1.970705 12.9999991 1.3900146z" fill="#f72f43"/></g></g><g><g><path d="m23.3567924 37.5671005c-.1100464.3499756-.2300415.6899414-.3700562 1.0199585-3.9828835.1449776-8.371295-.2123871-12.5999746-1.1599731.0999756-.3200073.1799927-.6300049.25-.960022 4.1500245.9100342 8.4600211 1.289978 12.7200308 1.1000366z" fill="#f72f43"/></g></g><g><path d="m37.98452 29.6143761c.343605.103405.7626038-.0083714.9496994-.3145599.6846275-1.1204185-1.9770279-4.6216011-2.2463684-2.7115726-.1293602.9173754.2638702 2.7153186 1.296669 3.0261325z" fill="#ff9f1c"/></g><g><path d="m39.5343246 25.4255028c.1945953.0585632.4318924-.0047398.5378532-.1781483.0942383-.1542263.0696602-.3520012.0221825-.5263939-.2356796-.8656998-1.1777039-1.8368073-1.2943954-1.0092831-.0732613.5195466.1494408 1.537798.7343597 1.7138253z" fill="#ff9f1c"/></g><g><path d="m32.897316 7.3898854c.1387024-.0010486.290493-.0296483.3202972-.1163702.088913-.2587252-.9632721-.6675086-1.2737751-.6972237-.391901-.0375047-.5182724.2465143-.2255402.4381409.3264561.2137018.761118.3786125 1.1790181.375453z" fill="#e2212e"/></g><g><path d="m34.1502342 6.6974654c-.4265556-.1540189-.5055351.0639944-.3328629.1770287.5729943.3750901 1.28825.1679396.3328629-.1770287z" fill="#e2212e"/></g><g><path d="m16.4308777 41.4462776c.3422318-.0973053.4730015-.467041.0384369-.8145981-.5897045-.4716377-1.3504972-.5220413-1.5147572-.4468994-.1409369.0644722-.1774693.2603798-.1176853.403389.1804504.4316063 1.107749.9963608 1.5940056.8581085z" fill="#ff9f1c"/></g><g><path d="m18.1478176 40.4645271c.2180653.0641556.3407841-.0307808.3553371-.1359024.0380421-.2747955-.6501675-.5014267-.8137779-.4265823-.0641365.0293388-.080761.1184921-.0535545.1835709.0714703.1709442.3429375.3291778.5119953.3789138z" fill="#ff9f1c"/></g><g><path d="m47.9767876 44.7570419c-1.8600464 2.3300171-3.75 4.460022-5.9100342 6.4900513-.4500122.4299927-1.2000122.289978-1.5100098-.2600098-.25-.4299927-.5-.8599854-.7699585-1.2800293.8399658.3500366 1.8599854.3200073 2.7199707-.0299683 2.6022606-1.0739822 3.5336723-4.1183815 5.1600342-6.1900024.039978-.0499878.0799561-.1000366.1199951-.1400146.0299683.039978.0700073.0900269.1099854.1300049.3399658.3499756.3800049.8900146.0800171 1.2799682z"/></g><g><path d="m20.3367729 42.8070908c-.3900146.4400024-.8200073.8499756-1.2700195 1.2299805-.3246231.2657127.0930767.0891457-11.6499634.1400146-.5400391 0-.7900391-.6300049-.4200439-1.0100098.1400146-.1400146.2800293-.289978.4000244-.4400024.1300049.3800049.460022.6799927.8200078.8499756.9303341.4430618 3.4660215.3728333 5.0599976.3600464 2.4099736-.0400391 4.8999628-.0900269 7.059997-1.1300049z"/></g></g></svg>