 <svg id="Layer_1" enable-background="new 0 0 512 512" viewBox="0 0 512 512" xmlns="http://www.w3.org/2000/svg"><path d="m256.1 447.4c-5.5-7.1-10.8-14-16.1-20.9-.9-1.2-.8-2.6-.7-4 .2-4.7.5-9.4.7-14.1 0-1.2.8-2.9-.4-3.5-1.1-.5-2.2.9-3.2 1.6-2 1.4-3.9 2.9-5.7 4.5-1.4 1.2-2.3 1.1-3.4-.3-5.2-6.6-10.5-13.1-15.9-19.5-1.5-1.8-.7-2.8.7-3.9 5.7-4.9 12.1-8.8 18.2-13.1.8-.6 1.7-1.2 2.6-1.8 8.4-6 8.6-6.4 7.9-16.7-.2-2.6-1.1-2.6-3-1.5-4.9 2.8-9.8 5.5-14.9 7.9-15 7.3-29.7.8-37.5-10.1-3.8-5.4-4.5-11.7-4.9-18.1-.3-4.4-.3-8.7-.4-13.1 0-2.3-.6-2.9-2.8-1.8-9.3 4.7-9.4 4.9-10.4 15.2-.8 8.2-.9 16.5-2.3 24.7-.5 2.8-1.6 3.5-4.4 3-7.5-1.4-15-2.6-22.5-3.6-3.2-.4-3.7-1.6-3-4.5.6-2.4.7-5 1-7.5.3-2.1-.5-2.5-2.3-1.4-4.5 2.9-9.1 5.8-13.6 8.8-1.6 1.1-3.3 1.3-5.3 1.1-7.2-1-14.4-2-21.5-2.8-2.6-.3-2.7-1.2-1.8-3.3 2.8-6.5 5.5-13.2 8.1-19.8.8-1.9 2-3.3 3.8-4.2 4.6-2.3 9.2-4.7 13.8-7.1.7-.4 1.8-.5 1.8-1.4.1-1.1-1.1-1.4-1.9-1.7-2.5-1.1-5.1-2.2-7.7-3.1-1.8-.6-2.3-1.5-1.6-3.3 3-7.7 6-15.4 8.9-23.2.9-2.4 2.3-2 4-1.4 6.7 2.3 12.8 5.7 19.2 8.6 1.4.6 2.7 1.3 4.1 1.9 11.7 4.8 7.1 4.5 18.3-1.8 2.2-1.2 1.5-2-.2-3-5.5-3.2-10.8-6.6-16-10.2-12.9-9.1-13.9-26-8.1-37.5 2.2-4.4 5.9-7.6 10-10.3 4.7-3.1 9.5-6.1 14.3-9 2.1-1.2 1.7-1.9 0-3-9.1-5.9-9.1-5.9-19-1.3-7.4 3.4-14.6 7.3-22.3 10.2-2.5.9-3.6.5-4.6-2.1-2.5-6.9-5.2-13.8-7.8-20.6-1.6-4.3-1.6-4.2 2.5-5.8 2.3-.8 4.5-1.8 6.7-2.8 1.7-.8 1.7-1.6 0-2.5-4.7-2.4-9.4-4.9-14.1-7.3-2-1-3.3-2.3-4.1-4.4-2.6-6.6-5.3-13.2-8.1-19.8-.9-2.2-.7-3 1.8-3.3 7.2-.8 14.4-1.8 21.5-2.9 2.1-.3 3.8.2 5.5 1.3 4.2 2.8 8.5 5.5 12.8 8.2.7.5 1.5 1.5 2.4.9.8-.6.4-1.7.3-2.6-.3-2.7-.7-5.5-1.2-8.2-.3-1.8.2-2.5 1.9-2.8 8.3-1.3 16.6-2.6 24.9-4 2.3-.4 2.7.7 3.1 2.5 1.5 7.2 1.4 14.6 2.2 22 .1 1.1.1 2.3.3 3.4 1.7 12.8-.3 8.7 10.4 15.2 2.3 1.4 2.7.4 2.8-1.8.1-6.7.3-13.3 1.1-20 1.9-17.2 23.1-29.2 38.6-22.5 6.1 2.6 12.1 5.7 17.8 9 2.3 1.3 3.3 1.1 3.2-1.8-.2-12.2 2.3-8.4-8-16.2-6.3-4.8-13.2-8.9-19.4-13.8-2.7-2.1-3.4-3.5-.8-6.4 5.1-5.7 9.8-11.6 14.4-17.6 1.6-2 2.6-1.9 4.3-.3 2 1.8 4.1 3.3 6.3 4.8.6.4 1.2 1.3 2.1.8s.5-1.4.5-2.2c-.2-5.2-.5-10.3-.7-15.5-.1-1.8.1-3.4 1.3-4.9 5.1-6.5 10.1-13.1 15.5-20 2.8 3.6 5.1 7.5 8.3 10.6 7.3 7.2 10 15.5 8.1 25.6-.4 2-1.4 5.3.3 6.1 1.9 1 3.9-1.8 5.7-3.1 5.3-3.9 5.2-3.9 9.3 1.1 4.2 5.2 8.3 10.5 12.7 15.5 1.8 2 1.4 3.2-.4 4.7-5.6 4.6-11.8 8.5-17.7 12.7-1.1.8-2.2 1.7-3.4 2.3-6.8 3.3-8.4 8.9-7.4 16 .4 2.9 1.2 3 3.3 1.7 5-2.9 10.1-5.5 15.3-8 14.4-6.9 29.3-.3 36.9 10.4 3.8 5.4 4.5 11.7 4.9 18.1.3 4.4.3 8.7.4 13.1 0 2.2.6 3.1 2.8 1.7 10.8-6.5 8.8-2.5 10.4-15.6 1-8.2 1-16.5 2.5-24.7.5-2.5 1.4-3.2 3.9-2.7 7.7 1.4 15.4 2.6 23.2 3.7 2.5.4 3.4 1.1 2.8 3.8s-.8 5.5-1.1 8.2c-.3 2.1.4 2.5 2.3 1.3 4.4-2.9 8.9-5.7 13.3-8.6 1.7-1.1 3.5-1.6 5.5-1.3 7.2 1 14.4 2 21.5 2.9 2.2.3 2.8.9 1.9 3.1-2.9 6.9-5.8 13.8-8.6 20.7-.7 1.7-2 2.7-3.6 3.5-4.6 2.3-9.2 4.7-13.8 7.1-.7.4-1.8.4-1.8 1.4-.1 1.2 1.2 1.3 1.9 1.7 2.5 1.1 5.1 2.2 7.7 3.1 1.8.6 2.4 1.4 1.7 3.3-3.1 7.8-6.1 15.6-9 23.5-.8 2.3-2.2 1.8-3.8 1.2-6.8-2.3-13-5.8-19.5-8.8-3.4-1.5-6.8-2.8-10.1-4.4-2.1-1-3.9-.8-5.8.6-1.4 1-3 1.7-4.4 2.7-1.2.8-3.4 1-3.3 2.6.1 1.5 2.2 1.8 3.4 2.6 6.7 4.1 13.6 7.8 18.9 13.7 10.2 11.4 8.8 30.5-2.9 40.3-5.4 4.6-11.4 8.2-17.5 11.6-2.2 1.2-2.8 1.9-.2 3.5 9.2 5.6 9.1 5.6 19 1 7.3-3.4 14.4-7.1 22-10 2.5-.9 3.6-.5 4.6 2.1 2.5 7.1 5.3 14.2 8.2 21.3 1.1 2.7.9 4.1-2.2 5-2.5.7-4.9 2-7.3 3-1.7.8-1.7 1.6.1 2.5 4.8 2.4 9.6 5 14.4 7.4 1.7.9 2.9 2.1 3.6 4 2.7 6.7 5.4 13.4 8.3 20.1 1 2.2.6 3-1.9 3.3-7 .8-13.9 1.8-20.9 2.8-2.4.4-4.5 0-6.5-1.4-3.8-2.6-7.7-5.1-11.6-7.5-1-.6-2.1-2.2-3.2-1.3-1 .7-.3 2.4-.2 3.6.3 2.4.6 4.8 1.1 7.2.4 1.8-.3 2.5-2 2.8-8.3 1.3-16.6 2.6-24.9 4-2.3.4-2.7-.9-3-2.6-1.5-7.4-1.4-14.9-2.3-22.3-.1-1-.1-2.1-.3-3.1-1.6-12.6.4-8.7-10.2-15-2.3-1.4-3-.7-3 1.8-.1 6.8-.3 13.5-1.1 20.3-2.1 16.8-23 28.6-38.3 22.1-6.2-2.6-12-5.7-17.9-9-3.1-1.7-3.3-1.6-3.4 2-.3 9.9-.3 9.9 7.7 15.7 6.7 4.9 13.8 9.1 20.2 14.4 2.2 1.8 2.8 3 .7 5.4-5 5.7-9.7 11.7-14.3 17.7-1.7 2.2-3 2.7-5.1.5-1.7-1.7-3.7-3-5.7-4.4-.7-.5-1.5-1.4-2.4-.8-.7.5-.4 1.5-.4 2.3.2 5.1.4 10.1.7 15.2.1 2.2-.5 4-1.8 5.7-5.4 6-10.2 12.4-15.3 19zm-30.7-191.8c-10-5.7-19.8-11.2-29.6-16.8-1.3-.7-2.3-.6-3.5.1-8.2 5-16.5 10-24.7 15-2.1 1.3-2.1 2.2 0 3.4 8.3 4.9 16.5 10 24.7 15 1.2.7 2.3.8 3.5.1 9.8-5.5 19.6-11 29.6-16.8zm61.4 0c10.1 5.8 19.8 11.2 29.4 16.8 1.6.9 2.8.5 4.1-.3 4.7-2.9 9.4-5.7 14.1-8.6 4.1-2.5 8.4-4.8 12.2-7.7-.3-.3-.4-.6-.5-.7-8.9-5.5-17.8-10.9-26.7-16.4-1-.6-1.9-.5-2.9.1-9.8 5.5-19.6 11.1-29.7 16.8zm-46-44.7c-.1 0-.2 0-.2 0 0-4.9 0-9.9 0-14.8 0-1.9-.5-3.2-2.3-4.2-8-4.3-15.9-8.8-23.9-13.1-3.7-2-4-1.9-4.1 2.2-.2 9.2-.4 18.4-.6 27.6 0 1.8.6 2.8 2.1 3.6 8.7 5.1 17.4 10.2 26.1 15.4 2.4 1.4 3 .6 2.9-1.8 0-5.1 0-10 0-14.9zm30.8-.3c-.1 0-.2 0-.3 0v15.2c0 1.9.2 3.3 2.7 1.9 8.8-5.2 17.6-10.4 26.4-15.5 1.4-.8 2-2 2-3.7-.3-9.3-.4-18.6-.6-27.9-.1-3.5-.5-3.7-3.6-2.1-8.1 4.4-16.1 8.9-24.2 13.3-1.9 1-2.5 2.4-2.5 4.4.2 4.7.1 9.6.1 14.4zm-.2 89.7h.3v15.2c0 1.7.5 3 2.1 3.9 8.1 4.4 16.1 8.9 24.2 13.3 3.5 1.9 3.9 1.7 4-2.5.2-9.1.3-18.1.6-27.2.1-1.9-.7-3-2.2-3.9-8.6-5-17.3-10.1-25.8-15.2-2.6-1.6-3.1-.5-3.1 2-.1 4.8-.1 9.6-.1 14.4zm-30.9.3h.3c0-5.1 0-10.1 0-15.2 0-2.2-.5-3.1-2.8-1.7-8.8 5.2-17.6 10.4-26.4 15.5-1.5.9-2 2-1.9 3.7.3 9.2.4 18.4.6 27.6.1 3.8.4 4 3.6 2.3 8.2-4.4 16.3-9 24.5-13.4 1.7-.9 2.1-2.2 2.1-3.9 0-5 0-9.9 0-14.9z" fill="#3981bf"/><g fill="#6ea4dd"><path d="m412.7 327.2c-.6-1.5-1.9-2.5-3.4-3.2-4.3-2.2-8.6-4.4-12.8-6.6-.7-.3-1.8-.3-1.7-1.4 0-.9 1.1-1.1 1.8-1.4 2.1-.9 4.2-2 6.4-2.5 2.9-.7 3.3-2.1 2.3-4.7-3.1-7.8-6.1-15.5-8.9-23.4-.8-2.1-1.8-2.3-3.8-1.6-8.5 2.9-16.4 7-24.3 11.1-6.2 3.2-11.2 3.2-16.4-1.2-.1-.1-.2-.1-.3-.2-1.9-1-2.1-1.8 0-3 5.1-2.8 10.1-5.9 14.7-9.4 7-5.3 11.7-11.8 12.1-20.9.1-2.6-.7-3.3-3.2-3.3-13 0-26-.1-39-.2-24.7-.1-49.5-.2-74.2-.3-.8 0-1.7.4-2.6-.8 5.3-2.4 9.7-5.9 14.5-8.8 9.5-5.8 19.3-11.2 28.6-17.2 19.2-12.3 39-23.5 58.9-34.4 19.4-10.6 37.9-22.4 56.4-35.4-5.8-.8-11.2-1.2-16.5-2.3-4.7-1-8.5.1-12.2 2.8-3.6 2.6-7.5 4.9-11.8 7.6.4-3.6.6-6.6 1.2-9.5.7-4.2.8-4.1-3.3-4.7-7.9-1.2-15.8-2.2-23.7-3.8-2.8-.6-3.6.2-3.9 2.5-.8 5.8-1.7 11.5-2 17.4-.3 5.4-1 10.7-1.6 16.1-.1 1-.1 2.1-1.2 2.7-3.1 1.7-6.1 3.5-9.5 5.4-.6-7.6-.2-14.7-1.3-21.7-1.2-7.7-4.6-13.9-10.8-18.7-2.6-1.9-3.5-1.3-5 1.2-19.1 32.5-38.4 64.9-57.5 97.3-2.4 4.1-5.3 7.2-9.7 9.2-3.6 1.7-6.9 4.1-10.3 6.2-8.4 5.2-16.4 10.9-25 15.9-9.3 5.3-18.9 10-28.2 15.2-19.2 10.7-37.7 22.5-56.4 33.9-9.1 5.6-18.2 11.1-28 15.5-3.2 1.5-6.6 2.6-9.7 5.3 6.1.9 11.6 1.4 16.9 2.6 6.9 1.5 12.7 0 18.2-4.4 2.5-2 5.2-4.1 8.4-5.4 1 3.4-.2 6.5-.9 9.5s.2 3.7 2.9 4.2c8.2 1.6 16.5 2 24.6 4.1 2.4.6 3.2-.9 3.5-3 1.6-8.5 2.2-17 2.5-25.6.2-6.8 1.9-12 9-14.3.2-.1.4-.2.6-.4 1.8-1.3 2.5-.8 2.5 1.4.1 6.3 0 12.6 1 18.9 1.2 7.8 4.6 14.2 11 19 2.4 1.8 3.4 1.3 4.8-1.1 19.3-32.6 38.7-65.2 58.1-97.8.7-1.1 1-2.6 2.6-3.4.1.9.2 1.7.1 2.4-.2 10.1-.6 20.2-.5 30.3.2 20.7 1.5 41.3.7 62-.7 18.9-2 37.9-2.8 56.8-.6 12.5.7 25 .5 37.6 0 .9.2 1.7 1 2 1.1.4 1.2-.9 1.6-1.4 3.8-4.9 7.3-10 11.3-14.7 3.4-3.9 5.1-7.9 4.8-13.3-.2-4.3-1.7-8.5-.8-13.1 3.1 1.2 5.4 3.4 7.6 5.5 2.3 2.3 3.7 1.6 5.4-.6 4.8-6.1 9.6-12.3 14.7-18.2 2.5-2.8 1.6-4.3-.8-6.2-6.3-5-12.9-9.6-19.7-13.8-6-3.7-9.6-8-8.2-15.5.4-2.4.6-3.1 2.9-1.7 4.7 2.9 9.5 5.4 14.5 7.7 7.7 3.4 15.4 4.4 23.5 1 3-1.3 3.1-2.3 1.6-4.9-16.8-30.2-33.5-60.5-50.2-90.8-1.7-3.2-3.5-6.3-5.2-9.5 55.6 27.9 107.2 62.5 163 91.8-3.3-7.6-6.3-15-9.4-22.4z"/><path d="m237.6 156.5c-3.5-2-7-3.9-10.5-5.8-9.3-4.9-18.9-7.6-29.1-2.5-2.5 1.2-3.4 2.2-1.7 5 19.1 32.5 38 65 57.1 97.6.5.9.7 2.2 2.3 2.6 2.9-63.1-2-126 0-189-5.5 6.4-10.5 12.8-15.5 19.3-1.3 1.7-1.8 3.6-1.7 5.8.2 5.5 1.3 10.9 1 16.8-3.6-1.9-6.2-4.4-8.9-6.6-1.4-1.2-2.1-1.1-3.2.4-4.2 5.4-8.6 10.7-13 16-5.6 6.7-5.6 6.7 1.6 12 7.3 5.3 14.7 10.5 22.1 15.8 1.7 1.2 2.4 2.5 2.3 4.6-.2 2.3-.1 4.6-.1 6.9-.2 1.9-.9 2.1-2.7 1.1z"/><path d="m99.1 183.3c.8 1.9 2.1 3.1 4 4 4.4 2.1 8.8 4.5 13.2 6.7 1.7.8 1.9 1.5 0 2.4-2.1 1-4.1 2.1-6.3 2.6-3.2.6-4 2.1-2.7 5.3 3.1 7.6 6 15.3 8.9 23 .8 2.2 1.9 2.2 3.8 1.5 8.5-3 16.5-7 24.3-11.1 6.2-3.2 11.2-3.2 16.4 1.2.1.1.2.1.3.2 2.1 1.1 1.7 1.9-.1 3-5 2.9-9.9 5.9-14.5 9.3-6.9 5.1-11.5 11.6-12.3 20.5-.2 2.6.4 3.5 3.3 3.5 37.7-.1 75.4-.1 113.2-.1.8 0 1.7.4 2.4-.5-9.7-6.9-20.2-12.1-30.4-17.8-10.6-5.9-21.7-11-32.2-17.1-11.7-6.8-23.3-13.9-34.5-21.5-16.5-11.1-33.8-20.9-50.9-31-4.8-2.8-9.8-5.4-15.2-8.3.1 1.1 0 1.4.1 1.7 3 7.5 6.1 15 9.2 22.5z"/></g></svg>