<?xml version="1.0" encoding="iso-8859-1"?>
<!-- Generator: Adobe Illustrator 27.8.1, SVG Export Plug-In . SVG Version: 6.00 Build 0)  -->
<svg xmlns="http://www.w3.org/2000/svg" xmlns:xlink="http://www.w3.org/1999/xlink" version="1.1" id="Capa_1" x="0px" y="0px" viewBox="0 0 512 512" style="enable-background:new 0 0 512 512;" xml:space="preserve">
<g>
	<g>
		<path style="fill:#E4F3F7;" d="M328.273,30.286L111.885,170.353c5.871,68.775,107.355,88.064,107.355,88.064l133.356-38.58    C481.757,69.706,328.273,30.286,328.273,30.286z"/>
		<g>
			<path style="fill:#FFAF74;" d="M327.016,22.318L108.531,172.87c0,0-18.872-109.739,20.129-134.615     C230.563-26.746,327.016,22.318,327.016,22.318z"/>
			<path style="fill:#409DF5;" d="M98.885,170.773l20.55,33.547c0,0,70.87-100.647,251.194-158.518l-46.968-31.871     C323.661,13.931,182.757,28.608,98.885,170.773z"/>
			<path style="fill:#409DF5;" d="M135.849,4.882c12.923,9.978,12.672,31.963-0.564,49.103     c-13.234,17.141-34.44,22.945-47.363,12.967c-12.925-9.978-12.673-31.963,0.56-49.103C101.718,0.708,122.924-5.096,135.849,4.882     z"/>
			<path style="fill:#8DCFEC;" d="M110.994,44.259c0,0-7.957,16.185-4.381,16.863c3.578,0.678,8.873-17.085,8.873-17.085     s1.94,19.393,5.338,16.893c3.396-2.504,1.395-18.693,1.395-18.693s7.259,10.876,10.752,6.837     c3.493-4.042-5.239-12.833-5.239-12.833s10.974-1.071,11.642-4.716c0.671-3.647-12.217-1.881-12.217-1.881     s8.185-11.983,6.72-15.02c-1.467-3.035-13.127,11.686-13.127,11.686s3.668-19.163,0.112-19.112     c-3.555,0.051-5.685,16.276-5.685,16.276s-4.064-14.271-8.692-11.691c-4.628,2.577,2.6,19.581,2.6,19.581     S96.834,18.988,94.03,22.233c-2.807,3.244,12.071,15.464,12.071,15.464s-18.288-6.092-19.131-1.02     c-0.843,5.075,15.197,5.543,15.197,5.543s-19.359,5.157-15.773,9.618C89.98,56.297,110.994,44.259,110.994,44.259z"/>
			<path style="fill:#8DCFEC;" d="M120.673,192.119c-4.494-5.275-18.788-22.923-14.049-28.549c3.73-4.433,13.872,0.823,20.401,4.957     c-2.808-6.988-7.06-19.482-4.631-26.012c0.713-1.914,1.927-3.263,3.611-4.011c7.001-3.112,17.135,3.148,23.207,7.762     c-3.972-9.94-9.991-28.338-2.127-32.609c7.49-4.059,21.408,5.394,28.911,11.267c-3.49-9.149-9.238-26.478-5.975-34.002     c0.801-1.846,2.074-3.091,3.784-3.701c8.514-3.025,21.545,8.37,28.678,15.59c-3.386-11.684-8.199-34.504,4.156-39.055     c11.01-4.053,22.353,11.413,28.779,22.364c-2.609-14.424-5.157-36.742,3.238-40.1c8.833-3.53,23.5,12.523,30.769,21.443     c-2.065-11.59-4.566-32.413,3.539-34.855c7.704-2.332,22.169,12.228,29.482,20.337c-1.653-7.985-3.589-21.411,0.264-27.989     c1.215-2.073,2.911-3.387,5.042-3.909c12.419-3.026,36.426,20.511,39.12,23.206l-2.248,2.248     c-6.973-6.972-27.046-24.6-36.118-22.365c-1.281,0.312-2.279,1.107-3.053,2.428c-4.062,6.934-0.253,25.361,1.558,31.876     l1.995,7.18l-4.752-5.741c-8.548-10.328-24.359-26.048-30.375-24.229c-5.419,1.633-3.285,23.047-0.039,37.731l1.619,7.327     l-4.451-6.042c-8.397-11.396-24.28-28.465-31.174-25.694c-6.791,2.716-3.018,30.539,0.958,47.436l-2.993,1.026     c-4.547-9.941-18.814-34.836-30.062-30.696c-11.166,4.114-3.828,31.595-0.058,41.837l3.013,8.187l-5.708-6.597     c-5.641-6.523-22.037-22.832-30.115-19.949c-0.858,0.306-1.49,0.95-1.933,1.97c-3.237,7.461,4.924,29.481,8.341,37.335     l2.869,6.593l-5.38-4.77c-6.085-5.393-23.367-18.589-30.163-14.893c-5.795,3.147,0.675,22.888,6.116,34.591l3.446,7.417     l-5.975-5.585c-4.542-4.246-17.856-14.584-24.895-11.464c-0.886,0.393-1.514,1.118-1.922,2.214     c-2.451,6.59,3.996,22.858,6.687,28.571l2.609,5.536l-4.974-3.567c-8.381-6.011-18.675-10.885-20.643-8.542     c-2.015,2.392,5.63,14.569,14.038,24.438L120.673,192.119z"/>
		</g>
		<g>
			<path style="fill:#00283B;" d="M250.273,133.45c0,8.567-3.473,15.516-7.759,15.516c-4.284,0-7.757-6.948-7.757-15.516     c0-8.57,3.473-15.519,7.757-15.519C246.8,117.931,250.273,124.879,250.273,133.45z"/>
			<path style="fill:#00283B;" d="M279.208,123.383c0,7.875-3.097,14.26-6.919,14.26c-3.822,0-6.92-6.385-6.92-14.26     c0-7.873,3.098-14.258,6.92-14.258C276.111,109.125,279.208,115.51,279.208,123.383z"/>
			<path style="fill:#00283B;" d="M259.112,200.46c-2.755,0-5.239-0.615-7.445-1.844c-9.728-5.43-10.818-21.118-10.823-27.823     l-13.198,8.446l-1.714-2.676l18.381-11.764l-0.213,3.146c-0.016,0.219-1.369,22.046,9.12,27.895     c6.169,3.437,15.443,0.778,27.579-7.911l1.85,2.586C273.401,197.136,265.521,200.46,259.112,200.46z"/>
			<g>
				<path style="fill:#FF7941;" d="M255.725,148.965c0,0,64.58-34.808,111.13-36.905      C366.855,112.06,259.918,226.966,255.725,148.965z"/>
				<path style="fill:#FFAF74;" d="M286.813,174.455c-0.303-0.024-7.482-0.63-11.821-6.07c-2.717-3.407-3.685-7.881-2.877-13.297      l3.145,0.469c-0.672,4.497,0.068,8.139,2.201,10.826c3.459,4.357,9.536,4.898,9.597,4.902L286.813,174.455z"/>
				<path style="fill:#FFAF74;" d="M290.987,169.361c-17.121-5.07-12.406-27.144-12.357-27.366l3.103,0.691      c-0.175,0.79-4.115,19.401,10.157,23.626L290.987,169.361z"/>
				<path style="fill:#FFAF74;" d="M305.218,153.025c-0.092-0.136-8.98-13.774,0.026-26.441l2.592,1.841      c-7.754,10.903-0.053,22.718,0.026,22.836L305.218,153.025z"/>
				<path style="fill:#FFAF74;" d="M312.574,154.253c-0.388-0.686-9.407-16.942,0.106-29.813l2.555,1.891      c-8.274,11.195,0.022,26.205,0.106,26.355L312.574,154.253z"/>
			</g>
		</g>
	</g>
	<g>
		<g>
			<path style="fill:#E4F3F7;" d="M370.628,250.08l-178.646,25.112c0,0-101.484,100.642-97.291,145.094     c4.193,44.453,65.42,126.645,271.742,75.485C572.758,444.609,514.887,289.129,370.628,250.08z"/>
			<path style="fill:#8DCFEC;" d="M186.441,491.77c-3.111,0-5.916-0.633-8.409-1.903c-7.597-3.872-9.909-12.444-10.581-16.363     c-4.939,1.475-8.76,1.125-11.389-1.031c-3.111-2.552-3.594-6.926-3.561-9.614c-7.413,1.636-12.956,0.652-16.498-2.943     c-7.389-7.499-2.861-23.406-2.664-24.08l3.052,0.889c-0.042,0.147-4.205,14.794,1.88,20.963     c3.011,3.053,8.246,3.578,15.548,1.568l2.369-0.654l-0.375,2.431c-0.011,0.064-0.942,6.357,2.272,8.987     c2.023,1.653,5.436,1.613,10.14-0.127l1.985-0.733l0.15,2.113c0.01,0.115,0.927,11.602,9.131,15.769     c6.854,3.48,16.863,1.143,29.771-6.936l1.686,2.695C201.407,488.773,193.203,491.77,186.441,491.77z"/>
			<path style="fill:#8DCFEC;" d="M203.006,471.202c-0.396,0-0.782-0.036-1.161-0.112c-4.808-0.961-6.239-8.384-6.664-12.575     c-4.749,2.797-15.707,8.307-22.913,4.472c-9.406-4.995-6.507-20.895-6.38-21.57l3.123,0.592     c-0.026,0.143-2.592,14.272,4.747,18.172c6.264,3.319,17.957-3.015,21.938-5.737l2.423-1.658l0.064,2.936     c0.081,3.735,1.236,11.642,4.286,12.253c3.203,0.627,9.421-4.409,12.572-7.746l2.313,2.183     C216.458,463.36,208.883,471.2,203.006,471.202z"/>
			<path style="fill:#8DCFEC;" d="M429.338,448.508l-2.152-2.341c3.55-3.265,5.193-6.462,4.882-9.505     c-0.478-4.683-5.374-7.67-5.424-7.699l-4.891-2.934l5.705-0.019c8.958-0.029,32.472-2.567,33.681-13.795     c1.512-14.044-16.063-27.133-16.241-27.264l-2.761-2.029l3.333-0.798c4.233-1.014,15.163-4.961,14.916-10.964     c-0.247-6.011-11.331-8.952-15.579-9.579l0.463-3.145c0.731,0.107,17.888,2.751,18.293,12.594     c0.306,7.419-9.308,11.618-14.364,13.308c5.132,4.403,16.453,15.651,15.101,28.218c-1.41,13.092-23.282,15.88-32.661,16.473     c1.618,1.725,3.274,4.202,3.592,7.31C435.648,440.433,433.666,444.527,429.338,448.508z"/>
			<path style="fill:#8DCFEC;" d="M401.659,436.81l-0.02-3.179c0.087,0,8.74-0.129,11.388-5.109c1.807-3.4,0.438-8.702-3.96-15.337     l-1.728-2.608l3.126,0.141c2.769,0.124,10.376-0.323,12.357-3.833c1.096-1.943,0.391-4.818-2.096-8.546l2.645-1.763     c3.207,4.808,3.954,8.803,2.217,11.875c-2.366,4.185-8.584,5.196-12.35,5.411c3.89,6.661,4.763,12.09,2.591,16.163     C412.282,436.675,402.091,436.807,401.659,436.81z"/>
		</g>
		<g>
			<path style="fill:#FFB9E4;" d="M378.596,251.708l-4.194-49.484l-194.58,49.484v33.549c0.337,0.115,0.661,0.202,0.998,0.315     c-14.671,9.974-34.977,25.382-41.677,38.265l32.582,21.455c-6.569,11.608-12.675,23.695-17.484,35.575     c0,0,23.012,24.817,74.646,12.58l11.059-95.969C326.722,302.92,378.596,251.708,378.596,251.708z"/>
			<path style="fill:#00283B;" d="M254.56,298.581c38.509,0,85.492-9.534,125.107-45.699l-2.142-2.347     c-81.89,74.756-196.005,33.656-197.151,33.233l-1.105,2.98c0.321,0.12,9.485,3.424,24.334,6.512     c-16.38,22.574-38.074,55.479-50.836,87.011l-0.396,0.978l0.747,0.743c0.21,0.21,17.181,16.666,49.137,16.664     c8.066,0,17.09-1.049,27.036-3.673l-0.81-3.074c-42.913,11.319-67.764-7.546-72.347-11.477     c12.919-31.469,34.707-64.28,50.896-86.488C219.818,296.42,236.224,298.581,254.56,298.581z"/>
			
				<rect x="181.034" y="233.082" transform="matrix(0.969 -0.2471 0.2471 0.969 -49.3797 75.7862)" style="fill:#00283B;" width="192.568" height="3.178"/>
		</g>
		<g>
			<polygon style="fill:#FF7941;" points="147.951,347.318 63.782,290.128 58.207,260.515 44.789,260.515 55.893,284.768      17.111,258.417 11.24,275.192 49.444,297.106 18.37,302.03 22.563,316.498 62.526,304.612 145.014,351.932    "/>
			<path style="fill:#8DCFEC;" d="M129.792,368.426c-0.048-0.256-1.157-6.313,2.606-10.029c2.304-2.273,5.806-3.098,10.415-2.458     c0.315-2.774,1.372-7.996,4.908-10.978c2.228-1.88,5.03-2.569,8.321-2.048l-0.497,3.139c-2.364-0.37-4.257,0.064-5.769,1.333     c-3.761,3.164-3.916,10.366-3.918,10.439l-0.03,1.917l-1.878-0.383c-4.389-0.893-7.521-0.463-9.308,1.29     c-2.558,2.512-1.736,7.138-1.728,7.184L129.792,368.426z"/>
		</g>
		<g>
			<path style="fill:#FF7941;" d="M496.855,176.106l-2.097-12.045l-37.586,23.105c10.272-24.139,18.28-42.671,18.715-42.813     c1.259-0.419-14.677-6.711-14.677-6.711l-15.407,42.129l-8.077-30.806l-12.161,6.711l14.772,39.038l-36.027,98.51l6.158,4.714     c0,0,24.415-58.287,43.419-103.047L496.855,176.106z"/>
			<path style="fill:#8DCFEC;" d="M439.447,312.612c-1.944-4.947-4.802-7.946-8.491-8.915c-8.099-2.121-17.937,5.775-18.035,5.855     l-2.971,2.416l0.385-3.808c0.457-4.489,0.343-10.22-2.783-12.037c-3.994-2.326-11.737,2.068-14.383,3.954l-1.757,1.251     l-0.675-2.048c-2.194-6.644-5.188-10.744-8.662-11.854c-3.494-1.117-6.537,1.085-6.566,1.107l-1.9-2.547     c0.174-0.132,4.336-3.19,9.384-1.604c4.177,1.312,7.561,5.331,10.076,11.958c3.44-2.113,10.936-5.955,16.077-2.968     c3.131,1.818,4.66,5.756,4.561,11.73c3.896-2.505,11.236-6.265,18.047-4.483c4.732,1.239,8.315,4.882,10.652,10.829     L439.447,312.612z"/>
		</g>
		<g>
			<g>
				<path style="fill:#A971F1;" d="M331.209,319.702c0,8.021-9.013,14.528-20.129,14.528c-11.116,0-20.129-6.507-20.129-14.528      c0-8.026,9.013-14.527,20.129-14.527C322.196,305.175,331.209,311.676,331.209,319.702z"/>
				<path style="fill:#00283B;" d="M304.42,312.955c0,0.952-0.948,1.723-2.119,1.723c-1.171,0-2.119-0.772-2.119-1.723      c0-0.95,0.948-1.722,2.119-1.722C303.471,311.234,304.42,312.005,304.42,312.955z"/>
				<path style="fill:#00283B;" d="M304.42,326.467c0,0.952-0.948,1.723-2.119,1.723c-1.171,0-2.119-0.772-2.119-1.723      c0-0.95,0.948-1.721,2.119-1.721C303.471,324.745,304.42,325.517,304.42,326.467z"/>
				<path style="fill:#00283B;" d="M322.171,312.029c0,0.952-0.948,1.723-2.119,1.723s-2.119-0.772-2.119-1.723      c0-0.95,0.948-1.722,2.119-1.722S322.171,311.079,322.171,312.029z"/>
				<path style="fill:#00283B;" d="M322.171,324.744c0,0.952-0.948,1.723-2.119,1.723s-2.119-0.772-2.119-1.723      c0-0.95,0.948-1.721,2.119-1.721S322.171,323.794,322.171,324.744z"/>
			</g>
			<g>
				<ellipse style="fill:#A971F1;" cx="324.29" cy="372.899" rx="29.145" ry="17.194"/>
				<path style="fill:#00283B;" d="M315.811,364.869c0,1.303-1.72,2.358-3.84,2.358s-3.84-1.055-3.84-2.358      c0-1.301,1.72-2.356,3.84-2.356S315.811,363.568,315.811,364.869z"/>
				<path style="fill:#00283B;" d="M315.811,381.039c0,1.059-1.572,1.917-3.513,1.917c-1.94,0-3.513-0.859-3.513-1.917      c0-1.057,1.573-1.915,3.513-1.915C314.238,379.124,315.811,379.982,315.811,381.039z"/>
				<ellipse style="fill:#00283B;" cx="335.948" cy="363.361" rx="3.443" ry="2.223"/>
				<path style="fill:#00283B;" d="M342.305,380.376c0,1.25-1.304,2.262-2.914,2.262s-2.914-1.012-2.914-2.262      c0-1.247,1.304-2.258,2.914-2.258S342.305,379.13,342.305,380.376z"/>
			</g>
			<g>
				<path style="fill:#A971F1;" d="M351.338,428.732c0,8.027-9.013,14.527-20.129,14.527c-11.116,0-20.129-6.5-20.129-14.527      c0-8.019,9.013-14.527,20.129-14.527C342.325,414.205,351.338,420.712,351.338,428.732z"/>
				<path style="fill:#00283B;" d="M324.29,421.974c0,0.952-0.948,1.723-2.119,1.723c-1.171,0-2.119-0.772-2.119-1.723      c0-0.95,0.948-1.722,2.119-1.722C323.341,420.253,324.29,421.024,324.29,421.974z"/>
				<path style="fill:#00283B;" d="M343.629,420.782c0,0.952-0.948,1.723-2.119,1.723c-1.171,0-2.119-0.772-2.119-1.723      c0-0.95,0.948-1.722,2.119-1.722C342.68,419.061,343.629,419.832,343.629,420.782z"/>
				<path style="fill:#00283B;" d="M344.423,435.22c0,0.952-0.948,1.723-2.119,1.723c-1.171,0-2.119-0.772-2.119-1.723      c0-0.95,0.948-1.721,2.119-1.721C343.475,433.499,344.423,434.27,344.423,435.22z"/>
				<path style="fill:#00283B;" d="M326.409,436.281c0,0.952-0.948,1.723-2.119,1.723c-1.171,0-2.119-0.772-2.119-1.723      c0-0.95,0.948-1.722,2.119-1.722C325.46,434.559,326.409,435.331,326.409,436.281z"/>
			</g>
			<path style="fill:#8DCFEC;" d="M290.18,333.158c-7.139-3.952-10.526-7.74-10.356-11.577c0.192-4.3,4.941-6.447,5.143-6.537     l1.29,2.906c-0.031,0.014-3.162,1.489-3.257,3.783c-0.058,1.394,1,4.37,8.72,8.644L290.18,333.158z"/>
			<path style="fill:#8DCFEC;" d="M358.882,380.347l-2.422-2.059c3.935-4.63,5.394-8.595,4.337-11.788     c-1.736-5.235-9.733-7.13-9.814-7.148l0.706-3.1c0.399,0.092,9.812,2.304,12.121,9.236     C365.25,369.81,363.592,374.808,358.882,380.347z"/>
			<path style="fill:#8DCFEC;" d="M367.789,376.353l-2.221-2.276c2.816-2.748,4.045-5.452,3.659-8.035     c-0.75-5-7.167-8.362-7.232-8.395l1.45-2.83c0.325,0.166,7.922,4.125,8.924,10.739     C372.923,369.212,371.381,372.844,367.789,376.353z"/>
			<path style="fill:#8DCFEC;" d="M325.633,452.607c-5.54,0-10.199-1.467-13.918-4.393c-8.666-6.819-8.879-18.954-8.884-19.466     l3.179-0.033c0.002,0.11,0.22,11.155,7.687,17.014c4.806,3.769,11.638,4.658,20.3,2.651l0.72,3.095     C331.468,452.229,328.438,452.607,325.633,452.607z"/>
		</g>
	</g>
</g>
<g>
</g>
<g>
</g>
<g>
</g>
<g>
</g>
<g>
</g>
<g>
</g>
<g>
</g>
<g>
</g>
<g>
</g>
<g>
</g>
<g>
</g>
<g>
</g>
<g>
</g>
<g>
</g>
<g>
</g>
</svg>
