<?xml version="1.0" encoding="UTF-8"?>
<!-- Generator: Adobe Illustrator 26.0.1, SVG Export Plug-In . SVG Version: 6.00 Build 0)  -->
<svg xmlns="http://www.w3.org/2000/svg" xmlns:xlink="http://www.w3.org/1999/xlink" version="1.1" id="Capa_1" x="0px" y="0px" viewBox="0 0 512 512" style="enable-background:new 0 0 512 512;" xml:space="preserve" width="512" height="512">
<g>
	<path style="fill-rule:evenodd;clip-rule:evenodd;fill:#F9D555;" d="M1.826,194.996c4.923-13.691,17.083-18.272,30.487-20.022   c31.181-4.062,62.287-8.789,93.555-11.956c26.144-2.651,45.709-10.811,56.356-38.294c12.135-31.331,28.998-60.83,43.793-91.123   c5.891-12.073,13.239-21.464,28.625-22.013c0.387-0.012,0.745,0.006,1.127,0c0.379,0.006,0.739-0.012,1.127,0   c15.388,0.51,22.752,9.883,28.679,21.94c14.868,30.259,31.797,59.718,44.01,91.022c10.712,27.452,30.297,35.567,56.444,38.157   c31.278,3.091,62.395,7.745,93.584,11.736c13.413,1.713,25.584,6.264,30.536,19.946c5.204,14.378-1.139,25.486-11.825,35.64   c-27.874,26.5-54.943,53.839-82.674,80.492c-10.565,10.161-14.522,20.938-11.518,35.964c7.294,36.532,13.497,73.309,19.134,110.143   c2.089,13.636,4.479,28.995-9.533,38.563c-13.428,9.174-26.558,3.857-39.484-3.134c-32.317-17.472-64.911-34.419-97.307-51.747   c-7.178-3.842-13.874-5.73-20.665-5.589c-6.795-0.128-13.483,1.778-20.656,5.638c-32.35,17.408-64.907,34.431-97.18,51.982   c-12.909,7.021-26.028,12.372-39.476,3.228c-14.036-9.538-11.682-24.899-9.626-38.545c5.549-36.847,11.662-73.635,18.874-110.186   c2.963-15.032-1.017-25.803-11.608-35.94c-27.795-26.582-54.927-53.854-82.865-80.287C3.028,220.478-3.34,209.389,1.826,194.996z"/>
	<g>
		<g>
			<path style="fill:#074785;" d="M228.845,318.549c-0.263,18.688,7.133,37.766,28.454,38.08     c22.048,0.324,25.877-20.575,25.865-38.08c-0.006-7.84-12.164-7.84-12.158,0c0.008,9.654,0.852,24.237-11.677,25.809     c-15.437,1.936-18.497-13.81-18.329-25.809C241.11,310.703,228.95,310.715,228.845,318.549L228.845,318.549z"/>
		</g>
		<g>
			<g>
				<path style="fill:#074785;" d="M128.012,204.139c5.838,5.006,11.68,10.011,17.52,15.017c3.332,2.852,8.191-1.967,4.838-4.838      c-5.839-5.002-11.68-10.008-17.521-15.014C129.517,196.453,124.659,201.269,128.012,204.139L128.012,204.139z"/>
			</g>
			<g>
				<path style="fill:#074785;" d="M148.197,185.797c3.414,7.95,6.83,15.896,10.245,23.846c1.739,4.043,7.63,0.556,5.907-3.454      c-3.413-7.946-6.83-15.896-10.245-23.846C152.367,178.306,146.476,181.79,148.197,185.797L148.197,185.797z"/>
			</g>
			<g>
				<path style="fill:#074785;" d="M175.404,180.523c-0.701,8.496-1.4,16.993-2.101,25.489c-0.361,4.401,6.479,4.364,6.842,0      c0.698-8.496,1.399-16.993,2.101-25.489C182.608,176.119,175.763,176.162,175.404,180.523L175.404,180.523z"/>
			</g>
		</g>
		<g>
			<g>
				<path style="fill:#074785;" d="M376.926,204.139c-5.838,5.006-11.679,10.011-17.52,15.017c-3.332,2.852-8.191-1.967-4.837-4.838      c5.841-5.002,11.68-10.008,17.522-15.014C375.42,196.453,380.282,201.269,376.926,204.139L376.926,204.139z"/>
			</g>
			<g>
				<path style="fill:#074785;" d="M356.742,185.797c-3.416,7.95-6.832,15.896-10.246,23.846c-1.739,4.043-7.627,0.556-5.907-3.454      c3.414-7.946,6.832-15.896,10.245-23.846C352.572,178.306,358.462,181.79,356.742,185.797L356.742,185.797z"/>
			</g>
			<g>
				<path style="fill:#074785;" d="M329.536,180.523c0.699,8.496,1.4,16.993,2.103,25.489c0.357,4.401-6.482,4.364-6.842,0      c-0.7-8.496-1.4-16.993-2.101-25.489C322.331,176.119,329.178,176.162,329.536,180.523L329.536,180.523z"/>
			</g>
		</g>
		<path style="fill:#FFFFFF;" d="M249.441,261.228c-3.787,33.71-34.184,57.971-67.895,54.184    c-33.713-3.781-57.971-34.181-54.189-67.894c3.788-33.71,34.185-57.974,67.898-54.181    C228.967,197.118,253.228,227.518,249.441,261.228z"/>
		<path style="fill:#074785;" d="M238.378,259.985c-2.802,24.93-25.277,42.866-50.205,40.066    c-24.928-2.797-42.868-25.275-40.067-50.202c2.798-24.927,25.275-42.866,50.206-40.066    C223.239,212.584,241.175,235.061,238.378,259.985z"/>
		<path style="fill:#FD6085;" d="M184.184,333.156c-0.852,7.574-10.279,12.729-21.064,11.52    c-10.779-1.209-18.828-8.331-17.982-15.902c0.852-7.574,10.281-12.732,21.062-11.52    C176.98,318.461,185.032,325.582,184.184,333.156z"/>
		<path style="fill:#FD6085;" d="M365.403,329.009c0.759,7.782-7.643,14.959-18.77,16.04c-11.118,1.084-20.749-4.346-21.502-12.131    c-0.757-7.775,7.647-14.959,18.767-16.033C355.02,315.797,364.649,321.227,365.403,329.009z"/>
		<path style="fill:#FFFFFF;" d="M231.553,239.752c-4.474-7.629-10.188-14.064-18.269-17.927c-3.639-1.735-5.923,4.071-2.321,5.79    c6.496,3.109,11.292,8.533,14.885,14.662C227.861,245.701,233.591,243.225,231.553,239.752z"/>
		<path style="fill:#FFFFFF;" d="M203.786,216.997c-0.942-0.305-1.88-0.644-2.822-0.944c-1.614-0.525-3.393,0.076-4.056,1.735    c-0.595,1.496,0.119,3.53,1.736,4.053c0.944,0.302,1.878,0.641,2.82,0.943c1.62,0.525,3.396-0.079,4.059-1.735    C206.12,219.553,205.404,217.516,203.786,216.997z"/>
		<g>
			<path style="fill:#FFFFFF;" d="M234.89,251.003c-0.55-1.603-2.666-2.229-4.112-1.585c-1.654,0.733-2.133,2.495-1.593,4.108     c0.003-0.043,0.006-0.067,0.006-0.116c-0.092,1.698,0.991,3.252,2.75,3.451c1.619,0.183,3.355-1.057,3.45-2.752     C235.454,252.988,235.251,252.06,234.89,251.003z"/>
			<path style="fill:#FFFFFF;" d="M229.164,253.507c0.007,0.049,0.014,0.098,0.014,0.153c0.004-0.037,0.008-0.092,0.009-0.134     C228.898,252.677,229.119,253.3,229.164,253.507z"/>
			<path style="fill:#FFFFFF;" d="M229.178,253.66C229.162,254.118,229.194,253.896,229.178,253.66L229.178,253.66z"/>
			<path style="fill:#FFFFFF;" d="M229.187,253.532c0.002-0.006,0-0.006,0-0.006l0,0     C229.187,253.526,229.188,253.526,229.187,253.532z"/>
		</g>
		<path style="fill:#FFFFFF;" d="M383.031,263.702c-3.782,33.71-34.181,57.971-67.892,54.184    c-33.716-3.781-57.973-34.184-54.186-67.891c3.781-33.722,34.184-57.978,67.896-54.19    C362.562,199.589,386.82,229.989,383.031,263.702z"/>
		<path style="fill:#074785;" d="M363.075,262.609c-2.796,24.927-25.275,42.866-50.202,40.062    c-24.928-2.797-42.865-25.275-40.067-50.202c2.799-24.924,25.275-42.866,50.205-40.062    C347.936,215.204,365.872,237.679,363.075,262.609z"/>
		<path style="fill:#FFFFFF;" d="M356.251,242.376c-4.47-7.632-10.184-14.064-18.265-17.924c-3.637-1.741-5.922,4.062-2.32,5.787    c6.496,3.106,11.292,8.533,14.885,14.666C352.558,248.325,358.289,245.848,356.251,242.376z"/>
		<path style="fill:#FFFFFF;" d="M328.486,219.62c-0.945-0.306-1.88-0.645-2.823-0.947c-1.612-0.519-3.393,0.079-4.056,1.734    c-0.597,1.494,0.118,3.531,1.739,4.056c0.942,0.306,1.88,0.638,2.822,0.944c1.614,0.522,3.393-0.079,4.056-1.735    C330.818,222.18,330.107,220.139,328.486,219.62z"/>
		<g>
			<path style="fill:#FFFFFF;" d="M359.59,253.624c-0.545-1.606-2.664-2.223-4.114-1.585c-1.651,0.736-2.133,2.501-1.591,4.101     c0.003-0.033,0.005-0.061,0.008-0.104c-0.09,1.695,0.986,3.246,2.75,3.445c1.619,0.183,3.353-1.054,3.451-2.749     C360.152,255.609,359.953,254.68,359.59,253.624z"/>
			<path style="fill:#FFFFFF;" d="M353.865,256.134c0.008,0.043,0.009,0.098,0.012,0.146c0.004-0.039,0.004-0.089,0.009-0.134     C353.598,255.3,353.819,255.92,353.865,256.134z"/>
			<path style="fill:#FFFFFF;" d="M353.878,256.28C353.858,256.742,353.894,256.519,353.878,256.28L353.878,256.28z"/>
			<path style="fill:#FFFFFF;" d="M353.893,256.159c-0.003-0.009-0.006-0.012-0.008-0.018l0.002,0.006     C353.887,256.149,353.89,256.149,353.893,256.159z"/>
		</g>
	</g>
	<g>
		<path style="fill:#FFFFFF;" d="M362.259,401.719c-1.951-1.884-5.861-28.335-9.408-28.127c-3.556,0.217-6.659,26.454-8.317,28.182    c-3.335,3.463-27.729,5.919-27.529,9.281c0.199,3.356,24.154,4.938,27.535,8.218c1.894,1.826,5.862,28.35,9.416,28.143    c3.553-0.205,6.594-26.365,8.321-28.158c3.222-3.35,27.802-5.934,27.601-9.306C389.678,406.578,365.518,404.889,362.259,401.719z"/>
		<path style="fill:#FFFFFF;" d="M233.285,113.707c-0.907-0.873-2.724-13.169-4.373-13.068c-1.652,0.101-3.092,12.289-3.862,13.092    c-1.551,1.612-12.886,2.752-12.793,4.312c0.093,1.561,11.225,2.297,12.795,3.818c0.881,0.849,2.724,13.175,4.375,13.08    c1.651-0.098,3.063-12.256,3.867-13.086c1.498-1.555,12.918-2.755,12.825-4.324C246.027,115.967,234.8,115.182,233.285,113.707z"/>
		<path style="fill:#FFFFFF;" d="M155.597,386.663c-0.907-0.88-2.724-13.169-4.372-13.071c-1.657,0.101-3.095,12.289-3.865,13.096    c-1.55,1.609-12.885,2.749-12.794,4.312c0.095,1.557,11.227,2.294,12.795,3.818c0.881,0.849,2.724,13.175,4.375,13.077    c1.652-0.098,3.063-12.253,3.866-13.083c1.498-1.557,12.919-2.758,12.825-4.324C168.337,388.917,157.109,388.135,155.597,386.663z    "/>
		<path style="fill:#FFFFFF;" d="M179.461,451.878c9.484-5.543,0.919-20.267-8.568-14.727    c-11.378,6.646-22.435,13.822-33.811,20.465c-9.486,5.543-0.922,20.27,8.565,14.723    C157.025,465.694,168.083,458.524,179.461,451.878z"/>
		<path style="fill:#FFFFFF;" d="M202.687,426.628c-5.525-9.495-20.248-0.925-14.725,8.569    C193.487,444.689,208.213,436.119,202.687,426.628z"/>
		<path style="fill:#FFFFFF;" d="M74.42,201.602c10.959-0.736,9.854-17.735-1.109-16.999c-13.146,0.88-26.245,2.37-39.389,3.25    c-10.959,0.733-9.855,17.732,1.107,16.999C48.175,203.972,61.274,202.475,74.42,201.602z"/>
		<path style="fill:#FFFFFF;" d="M106.463,189.349c-0.713-10.964-17.713-9.855-16.998,1.109    C90.179,201.418,107.179,200.313,106.463,189.349z"/>
		<path style="fill:#FFFFFF;" d="M467.073,220.979c-7.501,6.679-15.318,13.05-21.986,20.59c-6.665,7.531,5.253,17.613,11.921,10.075    c5.757-6.508,12.407-12.027,18.878-17.79c3.176-2.825,4.663-6.997,2.031-10.848C475.746,219.837,470.255,218.142,467.073,220.979z    "/>
		<path style="fill:#FFFFFF;" d="M425.668,259.252c-8.307,5.684,0.512,18.566,8.814,12.879    C442.785,266.444,433.971,253.569,425.668,259.252z"/>
		<path style="fill:#FFFFFF;" d="M255.295,385.24c-10.063,0-10.063,15.606,0,15.606C265.357,400.845,265.357,385.24,255.295,385.24z    "/>
		<path style="fill:#FFFFFF;" d="M422.33,190.919c-10.061,0-10.061,15.603,0,15.603C432.395,206.522,432.395,190.919,422.33,190.919    z"/>
		<path style="fill:#FFFFFF;" d="M281.652,54.325c-3.543-9.419-18.17-3.982-14.627,5.436c4.955,13.163,11.199,25.788,16.151,38.945    c3.543,9.419,18.171,3.983,14.626-5.436C292.848,80.107,286.605,67.482,281.652,54.325z"/>
		<path style="fill:#FFFFFF;" d="M296.444,110.726c-9.111,4.269-2.486,18.397,6.624,14.125    C312.18,120.579,305.555,106.454,296.444,110.726z"/>
	</g>
</g>















</svg>
