<svg id="Layer_1" height="512" viewBox="0 0 400 400" width="512" xmlns="http://www.w3.org/2000/svg" xmlns:xlink="http://www.w3.org/1999/xlink"><linearGradient id="lg1"><stop offset="0" stop-color="#d1bdd3"/><stop offset="1" stop-color="#d4f1e3"/></linearGradient><linearGradient id="SVGID_1_" gradientUnits="userSpaceOnUse" x1="115.359" x2="323.388" xlink:href="#lg1" y1="222.427" y2="337.039"/><linearGradient id="lg2"><stop offset="0" stop-color="#1c1c1c"/><stop offset=".5767"/></linearGradient><linearGradient id="SVGID_2_" gradientTransform="matrix(.995 -.096 .096 .995 -38.045 96.142)" gradientUnits="userSpaceOnUse" x1="174.892" x2="229.792" xlink:href="#lg2" y1="139.147" y2="139.147"/><linearGradient id="SVGID_3_" gradientTransform="matrix(.995 -.096 .096 .995 -38.045 96.142)" gradientUnits="userSpaceOnUse" x1="240.746" x2="295.647" xlink:href="#lg2" y1="139.147" y2="139.147"/><linearGradient id="lg3"><stop offset="0" stop-color="#d14dd3"/><stop offset="1" stop-color="#700e84"/></linearGradient><linearGradient id="SVGID_4_" gradientUnits="userSpaceOnUse" x1="208.663" x2="221.053" xlink:href="#lg3" y1="248.78" y2="255.607"/><linearGradient id="SVGID_5_" gradientTransform="matrix(.997 -.081 .081 .997 -20.924 29.341)" gradientUnits="userSpaceOnUse" x1="135.351" x2="274.585" xlink:href="#lg2" y1="98.882" y2="175.592"/><linearGradient id="SVGID_6_" gradientTransform="matrix(.997 -.081 .081 .997 -20.924 29.341)" gradientUnits="userSpaceOnUse" x1="184.585" x2="262.112" xlink:href="#lg2" y1="62.592" y2="105.305"/><linearGradient id="SVGID_7_" gradientTransform="matrix(.997 -.081 .081 .997 -20.924 29.341)" gradientUnits="userSpaceOnUse" x1="168.261" x2="242.049" xlink:href="#lg3" y1="102.106" y2="142.759"/><linearGradient id="SVGID_8_" gradientUnits="userSpaceOnUse" x1="149.045" x2="186.338" xlink:href="#lg2" y1="320.618" y2="320.618"/><linearGradient id="SVGID_9_" gradientUnits="userSpaceOnUse" x1="184.654" x2="263.445" xlink:href="#lg2" y1="315.772" y2="315.772"/><linearGradient id="SVGID_10_" gradientUnits="userSpaceOnUse" x1="278.74" x2="299.814" xlink:href="#lg2" y1="299.135" y2="299.135"/><linearGradient id="SVGID_11_" gradientTransform="matrix(.988 -.153 .153 .988 -64.649 71.907)" gradientUnits="userSpaceOnUse" x1="313.375" x2="326.59" xlink:href="#lg2" y1="314.853" y2="314.853"/><linearGradient id="SVGID_12_" gradientUnits="userSpaceOnUse" x1="196.189" x2="213.824" xlink:href="#lg1" y1="302.704" y2="302.704"/><linearGradient id="SVGID_13_" gradientUnits="userSpaceOnUse" x1="227.263" x2="244.898" xlink:href="#lg1" y1="299.135" y2="299.135"/><linearGradient id="lg4"><stop offset="0" stop-color="#ffe33c"/><stop offset=".4603" stop-color="#ffaf00"/><stop offset="1" stop-color="#ff7900"/></linearGradient><linearGradient id="SVGID_14_" gradientUnits="userSpaceOnUse" x1="37.44" x2="71.282" xlink:href="#lg4" y1="180.109" y2="180.109"/><linearGradient id="lg5"><stop offset="0" stop-color="#2c5018"/><stop offset="1" stop-color="#6aab61"/></linearGradient><linearGradient id="SVGID_15_" gradientUnits="userSpaceOnUse" x1="325.025" x2="358.868" xlink:href="#lg5" y1="171.168" y2="171.168"/><linearGradient id="SVGID_16_" gradientUnits="userSpaceOnUse" x1="96.595" x2="127.802" xlink:href="#lg5" y1="76.038" y2="76.038"/><linearGradient id="SVGID_17_" gradientUnits="userSpaceOnUse" x1="263.382" x2="319.977" xlink:href="#lg4" y1="76.038" y2="76.038"/><g><g><path d="m108.46 276.279s-38.895-16.403-29.387-46.079c10.48-32.711 34.272-3.475 42.77-16.827 8.112-12.748-.403-80.379 70.06-90.049 93.216-12.791 97.178 78.358 102.966 91.106s10.893-4.09 19.147-9.489c10.801-7.064 35.931-6.735 31.566 16.442s-23.135 36.781-24.18 54.896 40.675 46 30.245 67.23-48.715 4.363-75.928 19.75-60.452 28.904-88.076 18.669-53.865-17.704-71.249-9.334-38.243 5.312-24.337-29.085 21.216-47.101 16.403-67.23z" fill="url(#SVGID_1_)"/><g><g><circle cx="176.765" cy="215.144" fill="url(#SVGID_2_)" r="27.45"/><g fill="#fff"><circle cx="180.479" cy="221.31" r="12.652"/><circle cx="162.754" cy="213.266" r="4.214"/><circle cx="181.982" cy="199.94" r="5.64"/></g></g><g><circle cx="242.312" cy="208.799" fill="url(#SVGID_3_)" r="27.45"/><g fill="#fff"><circle cx="239.85" cy="215.562" r="12.652"/><circle cx="255.702" cy="204.268" r="4.214"/><circle cx="234.274" cy="194.878" r="5.64"/></g></g></g><ellipse cx="214.833" cy="252.179" fill="url(#SVGID_4_)" rx="8.497" ry="9.585"/></g><g><path d="m304.795 140.515c1.436 17.74-46.938 36.131-108.047 41.075-61.107 4.944-111.808-5.43-113.243-23.169-1.437-17.739 46.938-36.13 108.044-41.075 61.109-4.945 111.811 5.43 113.246 23.169z" fill="url(#SVGID_5_)"/><path d="m135.916 144.407s35.854 20.479 112.68-5.397c0 0-12.014-37.938-37.601-100.581 0 0 15.482 9.27 29.948 5.996 0 0-25.27-32.68-39.027-33.672-13.76-.99-60.783 81.074-66 133.654z" fill="url(#SVGID_6_)"/><path d="m138.207 129.97c-1.049 4.987-1.834 9.828-2.291 14.438 0 0 35.854 20.479 112.68-5.397 0 0-1.945-6.145-5.936-17.56-42.673 14.732-88.729 10.584-104.453 8.519z" fill="url(#SVGID_7_)"/></g><g><path d="m153.245 352.779c-1.032 0-2.034-.381-2.809-1.077-.886-.797-1.392-1.932-1.392-3.123v-55.923c0-1.238.547-2.413 1.493-3.212.947-.797 2.198-1.135 3.418-.928 3.785.65 22.794 4.468 25.315 15.759.925 4.139-.413 8.283-4.073 12.528 3.254.79 5.893 2.234 7.785 4.285 1.745 1.891 3.732 5.292 3.293 10.755-1.376 17.107-29.397 20.573-32.588 20.912-.146.016-.294.024-.442.024zm4.2-54.852v45.735c7.88-1.581 19.893-5.466 20.458-12.492.237-2.943-.765-4.028-1.093-4.385-1.342-1.453-4.261-2.287-8.01-2.287-2.082 0-3.652.258-3.668.261-1.93.325-3.845-.736-4.586-2.554-.742-1.817-.132-3.906 1.478-5.03 6.239-4.357 9.622-8.494 9.05-11.066-.753-3.383-7.443-6.438-13.629-8.182z" fill="url(#SVGID_8_)"/><path d="m260.448 305.957c-5.153-14.383-15.539-24.429-25.257-24.429-1.592 0-3.144.267-4.61.792-5.353 1.918-9.04 6.959-10.441 14.215-3.667-6.876-9.133-11.173-15.342-11.173-11.295 0-20.144 14.199-20.144 32.326s8.849 32.326 20.144 32.326c9.862 0 17.857-10.825 19.728-25.638 5.56 11.75 14.666 19.599 23.254 19.599 1.592 0 3.144-.267 4.61-.792 5.495-1.97 9.243-7.224 10.556-14.795 1.164-6.72.278-14.686-2.498-22.431z" fill="url(#SVGID_9_)"/><path d="m295.61 325.021c-1.818 0-3.494-1.19-4.029-3.023l-12.671-43.37c-.65-2.227.627-4.559 2.854-5.209 2.223-.652 4.56.628 5.209 2.854l12.671 43.37c.65 2.227-.627 4.559-2.854 5.209-.393.115-.79.169-1.18.169z" fill="url(#SVGID_10_)"/><circle cx="299.813" cy="333.989" fill="url(#SVGID_11_)" r="6.607"/><ellipse cx="205.006" cy="302.704" fill="url(#SVGID_12_)" rx="8.818" ry="10.048"/><ellipse cx="236.081" cy="299.135" fill="url(#SVGID_13_)" rx="8.818" ry="10.048"/></g><path d="m54.36 164.016 5.23 10.595 11.692 1.699-8.461 8.247 1.997 11.645-10.458-5.499-10.458 5.499 1.997-11.645-8.46-8.247 11.693-1.699z" fill="url(#SVGID_14_)"/><path d="m341.946 155.074 5.23 10.596 11.692 1.698-8.461 8.247 1.997 11.646-10.458-5.499-10.458 5.499 1.997-11.646-8.46-8.247 11.693-1.698z" fill="url(#SVGID_15_)"/><path d="m112.198 61.198 4.822 9.771 10.782 1.566-7.802 7.605 1.841 10.738-9.643-5.07-9.643 5.07 1.841-10.738-7.801-7.605 10.781-1.566z" fill="url(#SVGID_16_)"/><path d="m291.679 49.125 8.745 17.719 19.553 2.841-14.15 13.791 3.34 19.474-17.488-9.196-17.49 9.196 3.34-19.474-14.147-13.791 19.553-2.841z" fill="url(#SVGID_17_)"/></g></svg>