<svg id="Layer_1" enable-background="new 0 0 66 66" viewBox="0 0 66 66" xmlns="http://www.w3.org/2000/svg"><g><g><path d="m60.83 51.08-43.34 12.74c-2.35.69-4.82-.66-5.51-3.01l-7.56-25.72c-.01-.01-.01-.01-.01-.01l-2-6.82c-.69-2.35.66-4.83 3.01-5.51l37.14-10.92 4.17-1.23c2.35-.69 4.83.66 5.51 3l.56 1.91c.2-.06.4-.08.6-.08.91 0 1.74.59 2.01 1.5l.94 3.2 2.3 7.82 3.08 10.48 1.74 5.94.36 1.21c.7 2.35-.65 4.82-3 5.5z" fill="#ff7a43"/></g><g><path d="m56.36 20.12c-.46.46-1.06.78-1.71.82-1.05.06-2.13-.58-3.12-.22-1.02.37-1.46 1.63-2.43 2.12-1.69.85-3.78-1.07-5.53-.35-1.41.58-1.71 2.5-2.85 3.51-.86.75-2.15.9-3.23.55-1.09-.35-2-1.14-2.68-2.06s-1.17-1.97-1.65-3l3.96-4.39c1.41-1.83 3-3.55 4.87-4.89.19-.14.38-.27.58-.4l4.17-1.23c2.35-.69 4.83.66 5.51 3l.56 1.91c.2-.06.4-.08.6-.08.91 0 1.74.59 2.01 1.5z" fill="#f26636"/></g><g><path d="m33.26 33.36c-.73 0-1.48-.15-2.18-.44-1.6-.68-3.01-2.12-3.97-4.05-.84-1.7-1.27-3.58-1.69-5.4-.03-.13.05-.26.18-.29s.26.05.29.18c.41 1.79.83 3.64 1.65 5.29.91 1.82 2.23 3.18 3.72 3.82 1.74.74 3.79.45 4.97-.72.24-.24.47-.53.69-.81.51-.65 1.04-1.32 1.87-1.54.98-.27 1.9.2 2.78.66.79.41 1.54.79 2.31.67.73-.11 1.4-.67 2.04-1.7.09-.14.17-.28.25-.42.43-.72.88-1.47 1.6-1.96.99-.69 2.21-.72 3.39-.74.51-.01 1.04-.02 1.54-.09 1.73-.23 3.34-1.24 4.3-2.7.04-.13.18-.2.31-.15.13.04.2.18.15.31-.02.05-.04.09-.06.12-1.03 1.57-2.77 2.66-4.64 2.91-.52.07-1.07.08-1.59.09-1.16.02-2.25.05-3.13.66-.63.44-1.05 1.14-1.46 1.81-.09.14-.17.29-.26.42-.73 1.16-1.51 1.79-2.38 1.92-.93.14-1.78-.3-2.6-.72-.84-.43-1.63-.84-2.43-.62-.67.18-1.13.76-1.61 1.37-.23.29-.47.59-.73.85-.82.84-2.04 1.27-3.31 1.27z" fill="#f26636"/></g><g><path d="m60.83 51.08-43.34 12.74c-2.35.69-4.82-.66-5.51-3.01l-7.56-25.72c.67 2.13 2.02 4.31 3.33 6.12 1.31 1.82 3.36 3.25 5.6 3.24 1.42-.01 2.93-.58 4.21.04 2.21 1.06 2.15 4.86 4.51 5.55 1.53.44 3-.8 4.08-1.97s2.43-2.48 4-2.22c2.17.36 3.15 3.48 5.34 3.58 1.98.1 3.1-2.29 4.91-3.09 2.17-.96 4.55.56 6.72 1.52 3.64 1.6 7.94 1.59 11.57-.01 1.82-.8 3.46-2 4.79-3.48l.36 1.21c.69 2.35-.66 4.82-3.01 5.5z" fill="#f26636"/></g><g><path d="m23.13 57.63c-1.18 0-2.45-.46-3.64-1.32-.89-.65-1.66-1.45-2.41-2.23-.35-.36-.71-.73-1.07-1.08-1.41-1.35-2.67-2.07-3.95-2.25-.96-.14-2.01.12-2.75.69-.1.08-.26.06-.34-.05s-.06-.26.05-.34c.84-.64 2.03-.94 3.11-.78 1.39.2 2.73.95 4.22 2.38.37.35.73.72 1.08 1.09.73.76 1.49 1.55 2.35 2.17 1.43 1.04 2.98 1.45 4.27 1.12.92-.24 1.69-.82 2.51-1.44.25-.19.5-.38.76-.57 1.44-1.01 2.83-1.32 3.92-.87.5.21.91.57 1.31.91.39.34.77.67 1.21.84.72.28 1.62.16 2.69-.36.29-.14.56-.29.84-.43.6-.32 1.22-.66 1.91-.84 1.67-.42 3.6.27 4.7 1.69.08.11.06.26-.04.34-.11.08-.26.06-.34-.04-.99-1.27-2.72-1.9-4.2-1.52-.63.16-1.2.47-1.8.8-.28.15-.57.31-.86.44-1.19.58-2.22.7-3.07.37-.53-.2-.95-.57-1.36-.93-.38-.33-.74-.65-1.18-.83-1.25-.52-2.7.29-3.45.82-.25.18-.5.37-.75.55-.82.62-1.66 1.27-2.68 1.53-.33.09-.68.14-1.04.14z" fill="#ff7a43"/></g><g><path d="m52.22 13.51.59 1.99-43.08 12.66c-1.44.42-2.95-.4-3.37-1.84-.19-.66-.13-1.32.14-1.89.03-.06.06-.12.09-.17.33-.61.9-1.09 1.62-1.3l39.86-11.71c.2-.06.41-.1.61-.12 1.57-.17 3.08.8 3.54 2.38z" fill="#ea552d"/></g><g><path d="m8.97 28.52c-1.28 0-2.46-.84-2.84-2.13-.2-.69-.15-1.43.15-2.06.03-.07.06-.13.1-.19.37-.68 1.01-1.2 1.76-1.42l39.86-11.71c.24-.07.45-.11.67-.12 1.71-.18 3.31.9 3.79 2.56l.59 1.99c.04.13-.04.26-.16.3l-3.14.92c-.13.04-.26-.03-.3-.16s.04-.26.16-.3l2.91-.85-.52-1.76c-.42-1.44-1.8-2.37-3.28-2.21-.18.01-.37.05-.57.11l-39.88 11.7c-.63.18-1.16.62-1.47 1.18-.03.05-.05.1-.08.15-.25.54-.3 1.15-.13 1.73.39 1.31 1.76 2.06 3.07 1.68l17.34-5.1c.13-.04.26.04.3.16.04.13-.04.26-.16.3l-17.34 5.1c-.28.09-.56.13-.83.13z"/></g><g><path d="m16.23 64.25c-.77 0-1.54-.19-2.24-.57-1.1-.6-1.9-1.59-2.25-2.79l-9.57-32.57c-.35-1.2-.22-2.47.38-3.56.6-1.1 1.59-1.9 2.79-2.25l41.32-12.14c1.2-.35 2.47-.22 3.56.38 1.1.6 1.9 1.59 2.25 2.79l.49 1.68c.53-.1 1.07-.01 1.55.25.55.3.95.8 1.13 1.4l2.66 9.04c.04.13-.04.26-.16.3-.13.04-.26-.04-.3-.16l-2.65-9.05c-.29-.98-1.33-1.55-2.31-1.26-.13.04-.26-.03-.3-.16l-.56-1.9c-.65-2.22-2.99-3.49-5.21-2.84l-41.33 12.13c-1.08.32-1.96 1.03-2.5 2.02-.54.98-.66 2.12-.34 3.2l9.57 32.56c.32 1.08 1.03 1.96 2.02 2.5.98.54 2.12.66 3.2.34l31.42-9.24c.13-.04.26.04.3.16.04.13-.04.26-.16.3l-31.42 9.24c-.45.14-.89.2-1.34.2z"/></g><g><g><path d="m5.45 30.25c-.05 0-.11-.02-.15-.05-.18-.14-.35-.3-.5-.47-.09-.1-.08-.25.02-.34s.25-.08.34.02c.13.15.28.29.44.42.11.08.12.24.04.34-.05.05-.12.08-.19.08z" fill="#ea552d"/></g><g><path d="m16.52 61.29c-.01 0-.01 0-.02 0-.36 0-.72-.06-1.08-.19-.13-.04-.19-.18-.15-.31s.18-.19.31-.15c.3.11.61.16.92.16.1 0 .18 0 .26-.01.13-.01.25.08.27.22.01.13-.08.25-.22.27-.09 0-.19.01-.29.01zm1.54-.35c-.11 0-.2-.07-.23-.17-.04-.13.04-.26.16-.3l1.26-.37c.13-.04.26.04.3.16.04.13-.04.26-.16.3l-1.26.37c-.03.01-.05.01-.07.01zm2.51-.74c-.11 0-.2-.07-.23-.17-.04-.13.04-.26.16-.3l1.26-.37c.13-.04.26.04.3.16.04.13-.04.26-.16.3l-1.26.37c-.03.01-.05.01-.07.01zm2.51-.73c-.11 0-.2-.07-.23-.17-.04-.13.04-.26.16-.3l1.26-.37c.13-.04.26.03.3.16s-.04.26-.16.3l-1.26.37c-.03 0-.05.01-.07.01zm2.51-.74c-.11 0-.2-.07-.23-.17-.04-.13.04-.26.16-.3l1.26-.37c.13-.04.26.04.3.16.04.13-.04.26-.16.3l-1.26.37c-.03 0-.05.01-.07.01zm2.51-.74c-.11 0-.2-.07-.23-.17-.04-.13.04-.26.16-.3l1.26-.37c.13-.04.26.04.3.16.04.13-.04.26-.16.3l-1.26.37c-.02.01-.05.01-.07.01zm2.51-.74c-.11 0-.2-.07-.23-.17-.04-.13.04-.26.16-.3l1.26-.37c.13-.04.26.03.3.16s-.04.26-.16.3l-1.26.37c-.02.01-.05.01-.07.01zm2.51-.74c-.11 0-.2-.07-.23-.17-.04-.13.04-.26.16-.3l1.26-.37c.13-.04.26.04.3.16.04.13-.04.26-.16.3l-1.26.37c-.02.01-.04.01-.07.01zm2.51-.73c-.11 0-.2-.07-.23-.17-.04-.13.04-.26.16-.3l1.26-.37c.13-.04.26.04.3.16.04.13-.04.26-.16.3l-1.26.37c-.02 0-.04.01-.07.01zm2.51-.74c-.11 0-.2-.07-.23-.17-.04-.13.04-.26.16-.3l1.26-.37c.13-.04.26.04.3.16.04.13-.04.26-.16.3l-1.26.37c-.02 0-.04.01-.07.01zm2.52-.74c-.11 0-.2-.07-.23-.17-.04-.13.04-.26.16-.3l1.26-.37c.13-.04.26.04.3.16.04.13-.04.26-.16.3l-1.26.37c-.03.01-.05.01-.07.01zm2.51-.74c-.11 0-.2-.07-.23-.17-.04-.13.04-.26.16-.3l1.26-.37c.13-.04.26.04.3.16.04.13-.04.26-.16.3l-1.26.37c-.03.01-.05.01-.07.01zm2.51-.74c-.11 0-.2-.07-.23-.17-.04-.13.04-.26.16-.3l1.26-.37c.13-.04.26.04.3.16.04.13-.04.26-.16.3l-1.26.37c-.03.01-.05.01-.07.01zm2.51-.73c-.11 0-.2-.07-.23-.17-.04-.13.04-.26.16-.3l1.26-.37c.13-.04.26.04.3.16.04.13-.04.26-.16.3l-1.26.37c-.03 0-.05.01-.07.01zm2.51-.74c-.11 0-.2-.07-.23-.17-.04-.13.04-.26.16-.3l1.26-.37c.13-.04.26.03.3.16s-.04.26-.16.3l-1.26.37c-.02 0-.05.01-.07.01zm2.51-.74c-.11 0-.2-.07-.23-.17-.04-.13.04-.26.16-.3l1.26-.37c.13-.04.26.04.3.16.04.13-.04.26-.16.3l-1.26.37c-.02.01-.05.01-.07.01zm2.51-.74c-.11 0-.2-.07-.23-.17-.04-.13.04-.26.16-.3l1.26-.37c.13-.04.26.04.3.16.04.13-.04.26-.16.3l-1.26.37c-.02.01-.04.01-.07.01zm2.51-.74c-.11 0-.2-.07-.23-.17-.04-.13.04-.26.16-.3l.73-.21c.16-.05.32-.11.46-.19.12-.06.27-.02.33.1s.02.27-.1.33c-.18.09-.36.17-.55.22l-.73.21c-.02.01-.04.01-.07.01zm2.22-1.26c-.05 0-.1-.02-.14-.05-.11-.08-.13-.23-.06-.34.23-.32.39-.7.44-1.09.02-.13.14-.22.27-.21.13.02.23.14.21.27-.06.47-.25.92-.53 1.31-.04.08-.11.11-.19.11zm.34-2.49c-.11 0-.2-.07-.23-.17l-.37-1.26c-.04-.13.04-.26.16-.3.13-.04.26.04.3.16l.37 1.26c.04.13-.04.26-.16.3-.03.01-.05.01-.07.01zm-.74-2.51c-.11 0-.2-.07-.23-.17l-.37-1.26c-.04-.13.04-.26.16-.3.13-.04.26.04.3.16l.37 1.26c.04.13-.04.26-.16.3-.02.01-.05.01-.07.01zm-.74-2.51c-.11 0-.2-.07-.23-.17l-.37-1.26c-.04-.13.04-.26.16-.3.13-.04.26.04.3.16l.37 1.26c.04.13-.04.26-.16.3-.02 0-.04.01-.07.01zm-.74-2.51c-.11 0-.2-.07-.23-.17l-.37-1.26c-.04-.13.04-.26.16-.3.13-.04.26.04.3.16l.37 1.26c.04.13-.04.26-.16.3-.02 0-.04.01-.07.01zm-.73-2.51c-.11 0-.2-.07-.23-.17l-.37-1.26c-.04-.13.04-.26.16-.3.13-.04.26.04.3.16l.37 1.26c.04.13-.04.26-.16.3-.03 0-.05.01-.07.01zm-.74-2.52c-.11 0-.2-.07-.23-.17l-.37-1.26c-.04-.13.04-.26.16-.3.13-.04.26.04.3.16l.37 1.26c.04.13-.04.26-.16.3-.03.01-.05.01-.07.01zm-47.95-1.55c-.13 0-.24-.1-.24-.23-.01-.13.1-.25.23-.26.4-.02.81-.07 1.27-.16.13-.02.26.06.28.2.02.13-.06.26-.2.28-.47.09-.91.14-1.33.16 0 .01 0 .01-.01.01zm-1.3-.05c-.01 0-.02 0-.03 0-.47-.07-.91-.18-1.32-.34-.13-.05-.19-.19-.14-.31.05-.13.19-.19.31-.14.37.15.78.25 1.21.31.13.02.23.14.21.27-.02.12-.12.21-.24.21zm3.88-.4c-.11 0-.21-.07-.24-.18-.03-.13.04-.26.17-.3.36-.1.72-.2 1.08-.3l.18-.05c.13-.04.26.04.3.17s-.04.26-.17.3l-.18.05c-.36.1-.72.21-1.09.3-.01 0-.03.01-.05.01zm44.63-.51c-.11 0-.2-.07-.23-.17l-.37-1.26c-.04-.13.04-.26.16-.3.13-.04.26.04.3.16l.37 1.26c.04.13-.04.26-.16.3-.02.01-.05.01-.07.01zm-42.12-.21c-.11 0-.2-.07-.23-.18-.04-.13.04-.26.17-.3l1.26-.36c.13-.04.26.04.3.17s-.04.26-.17.3l-1.26.36c-.02.01-.04.01-.07.01zm2.52-.72c-.11 0-.2-.07-.23-.18-.04-.13.04-.26.17-.3l1.26-.36c.13-.04.26.04.3.17s-.04.26-.17.3l-1.26.36c-.03.01-.05.01-.07.01zm2.51-.72c-.11 0-.2-.07-.23-.18-.04-.13.04-.26.17-.3l1.26-.36c.13-.04.26.04.3.17s-.04.26-.17.3l-1.26.36c-.02 0-.04.01-.07.01zm2.52-.73c-.11 0-.2-.07-.23-.18-.04-.13.04-.26.17-.3l1.26-.36c.13-.04.26.04.3.17s-.04.26-.17.3l-1.26.36c-.02.01-.05.01-.07.01zm33.83-.13c-.11 0-.2-.07-.23-.17l-.37-1.26c-.04-.13.04-.26.16-.3.13-.04.26.04.3.16l.37 1.26c.04.13-.04.26-.16.3-.02.01-.05.01-.07.01zm-31.31-.59c-.11 0-.2-.07-.23-.18-.04-.13.04-.26.17-.3l1.26-.36c.13-.04.26.04.3.17s-.04.26-.17.3l-1.26.36c-.03.01-.05.01-.07.01zm2.51-.72c-.11 0-.2-.07-.23-.18-.04-.13.04-.26.17-.3l1.26-.36c.13-.04.26.04.3.17s-.04.26-.17.3l-1.26.36c-.02.01-.05.01-.07.01zm2.52-.72c-.11 0-.2-.07-.23-.18-.04-.13.04-.26.17-.3l1.26-.36c.13-.04.26.04.3.17s-.04.26-.17.3l-1.26.36c-.03 0-.05.01-.07.01zm25.54-.48c-.11 0-.2-.07-.23-.17l-.37-1.26c-.04-.13.04-.26.16-.3.13-.04.26.04.3.16l.37 1.26c.04.13-.04.26-.16.3-.02.01-.04.01-.07.01zm-23.03-.24c-.11 0-.2-.07-.23-.18-.04-.13.04-.26.17-.3l1.26-.36c.13-.04.26.04.3.17s-.04.26-.17.3l-1.26.36c-.02 0-.05.01-.07.01zm2.52-.73c-.11 0-.2-.07-.23-.18-.04-.13.04-.26.17-.3l1.26-.36c.13-.04.26.04.3.17s-.04.26-.17.3l-1.26.36c-.03.01-.05.01-.07.01zm2.51-.72c-.11 0-.2-.07-.23-.18-.04-.13.04-.26.17-.3l1.26-.36c.13-.04.26.04.3.17s-.04.26-.17.3l-1.26.36c-.02.01-.04.01-.07.01zm2.52-.72c-.11 0-.2-.07-.23-.18-.04-.13.04-.26.17-.3l1.26-.36c.13-.04.26.04.3.17s-.04.26-.17.3l-1.26.36c-.03 0-.05.01-.07.01zm14.75-.1c-.11 0-.2-.07-.23-.17l-.37-1.26c-.04-.13.04-.26.16-.3.13-.04.26.04.3.16l.37 1.26c.04.13-.04.26-.16.3-.03.01-.05.01-.07.01zm-12.23-.62c-.11 0-.2-.07-.23-.18-.04-.13.04-.26.17-.3l1.26-.36c.13-.04.26.04.3.17s-.04.26-.17.3l-1.26.36c-.03 0-.05.01-.07.01zm2.51-.73c-.11 0-.2-.07-.23-.18-.04-.13.04-.26.17-.3l1.26-.36c.13-.04.26.04.3.17s-.04.26-.17.3l-1.26.36c-.02.01-.05.01-.07.01zm2.52-.72c-.11 0-.2-.07-.23-.18-.04-.13.04-.26.17-.3l1.26-.36c.13-.04.26.04.3.17s-.04.26-.17.3l-1.26.36c-.03.01-.05.01-.07.01zm6.18-.3c-.06 0-.13-.02-.17-.07-.28-.28-.63-.49-1.01-.61-.13-.04-.2-.18-.16-.3.04-.13.18-.2.3-.16.46.14.88.4 1.21.73.09.1.09.25 0 .34-.05.04-.11.07-.17.07zm-3.67-.42c-.11 0-.2-.07-.23-.18-.04-.13.04-.26.17-.3l.94-.27c.12-.03.23-.06.35-.08.14-.02.26.07.28.2s-.07.26-.2.28c-.1.02-.2.04-.3.07l-.94.27c-.02.01-.05.01-.07.01z" fill="#ea552d"/></g><g><path d="m14.37 60.44c-.06 0-.11-.02-.16-.06-.17-.15-.33-.32-.48-.5-.08-.1-.07-.26.04-.34.1-.08.26-.07.34.04.13.16.27.31.42.44.1.09.11.24.02.34-.05.05-.11.08-.18.08z" fill="#ea552d"/></g></g><g><g><path d="m36.42 20.07-2.35.69-1.58.46-11.13 3.28-1.43.42-5.63 1.65-3.92 1.15-2.02-1.79-1.93-1.73-.09-.08-.44-.39-1.47-1.3-1.83-1.62c-.58-.53-.64-1.41-.12-2l2.5-2.81 2.28-2.57.32-.36 8.3-9.34c.52-.59 1.42-.64 2.01-.12l4.74 4.21 2.54 2.26 4.08 3.63 2.38 2.11 2.9 2.58z" fill="#d3dc5e"/></g><g><path d="m5.13 22.14c-.21.15-.45.24-.7.29l-1.83-1.62c-.58-.53-.64-1.41-.12-2l2.5-2.81c.33.12.6.41.67.75.19.84-.67 1.65-.51 2.5.08.47.46.84.6 1.3.17.58-.11 1.24-.61 1.59z" fill="#c6c945"/></g><g><g><path d="m7.61 23.6c-.37.29-.81.47-1.28.53l-.43-.4c.05-.05.11-.08.18-.08.44-.01.88-.16 1.23-.43.56-.45.86-1.22.73-1.93-.06-.35-.21-.69-.38-1.06-.25-.53-.49-1.09-.43-1.71.04-.41.21-.77.38-1.12.06-.13.12-.26.18-.39.36-.89.36-1.9-.02-2.77-.13-.3-.3-.58-.51-.83l.32-.36c.01.01.02.01.03.02.25.29.45.62.6.97.43.99.44 2.13.03 3.15-.06.14-.12.28-.19.42-.16.32-.3.64-.34.96-.05.49.16.95.39 1.45.17.38.34.76.42 1.18.16.9-.2 1.84-.91 2.4z" fill="#c6c945"/></g></g><g><path d="m32.51 21.22-12.57 3.69-5.63 1.65-2.65-2.35-1.75-1.56c-.19-.18-.2-.45-.05-.66 1.3-1.78 1.15-4.25-.34-5.86-.17-.19-.19-.47-.02-.66l3.93-4.44c.17-.19.45-.2.66-.05 1.78 1.3 4.25 1.15 5.86-.34.19-.18.47-.19.66-.03l3.04 2.7 2.39 2.13 1.69 1.5 2.39 2.13z" fill="#b2b234"/></g><g><path d="m19.53 20.45c-.87.99-2.36 1.08-3.36.25-.02-.01-.04-.03-.06-.05-1-.89-1.09-2.42-.2-3.42s2.42-1.09 3.42-.2c.4.36.66.82.76 1.3v.01c.16.73-.02 1.51-.56 2.11z" fill="#d3dc5e"/></g><g><path d="m34.54 18.39c0 .11-.01.21-.03.32-.09.69-.23 1.38-.43 2.04l-1.58.46-2.38-2.12-2.39-2.13-1.69-1.5-2.39-2.13c.4-1.1.38-2.39.01-3.52-.24-.72-.6-1.38-1.02-2l2.54 2.26 4.08 3.63 2.38 2.11z" fill="#c6c945"/></g><g><path d="m14.31 26.57-3.92 1.15-2.02-1.79c1.28-.08 2.53-.69 3.29-1.71z" fill="#c6c945"/></g><g><path d="m32.5 21.21-12.56 3.7-5.63 1.65-2.65-2.35c.08-.12.17-.24.24-.36.4-.7.61-1.52 1.17-2.11.77-.82 1.96-.95 3.11-1.04 1 .83 2.49.73 3.36-.25.53-.6.71-1.38.56-2.1v-.01c.06-.61-.02-1.25.26-1.79.38-.72 1.26-.98 1.94-1.44.64-.43 1.08-1.06 1.35-1.77l2.39 2.13 1.69 1.5 2.39 2.13z" fill="#9e9b2b"/></g><g><path d="m19.53 20.45c-.87.99-2.36 1.08-3.36.25.19-.02.39-.03.58-.05 1.31-.1 2.83-.54 3.24-1.8.05-.16.08-.34.1-.51.16.73-.02 1.51-.56 2.11z" fill="#c6c945"/></g></g><g><g><path d="m49.46 16.48-3.35.99-15.57 4.57-3.35.99-.86-5.4-.24-1.49-.06-.42-.86-5.38-.6-3.76c-.13-.78.41-1.5 1.18-1.62l12.88-2.05.48-.08 3.19-.51 3.37-.54c.77-.12 1.5.4 1.62 1.18l.64 3.98.27 1.68.08.49.32 2.04.29 1.84z" fill="#d3dc5e"/></g><g><path d="m30.54 22.04-3.35.99-.86-5.4-.24-1.49c.51-.34 1.22-.34 1.81-.1.67.26 1.22.76 1.77 1.22.04.03.08.07.12.1l.32 2z" fill="#c6c945"/></g><g><path d="m49.46 16.48-3.35.99-.19-1.23c1.3-.74 2.36-1.89 2.98-3.26z" fill="#c6c945"/></g><g><path d="m47.94 6.93c-.41.18-.87.24-1.3.13-.68-.18-1.24-.82-1.23-1.52.01-.23.06-.45.07-.69.01-.23-.06-.48-.25-.61-.19-.12-.43-.1-.65-.03-.21.07-.42.18-.64.22-.56.1-1.12-.31-1.37-.83-.19-.4-.25-.85-.27-1.3l3.37-.54c.77-.12 1.5.4 1.62 1.18z" fill="#c6c945"/></g><g><g><path d="m48.28 9.1c-.56.27-1.17.39-1.77.39-.51 0-1-.09-1.45-.27-1.27-.53-2.16-1.75-2.21-3.07l-.01-.16c-.01-.32-.01-.64-.19-.79-.18-.14-.5-.06-.73.08-.1.06-.19.13-.3.2-.19.14-.4.29-.66.38-.85.3-1.76-.3-2.11-1.02-.26-.52-.33-1.15-.22-1.93l.48-.08c.01.03.01.05.01.08-.11.71-.05 1.27.17 1.72.27.54.93.98 1.52.78.18-.06.35-.19.53-.32.11-.08.21-.16.33-.22.36-.21.88-.34 1.27-.05.38.3.38.78.39 1.17l.01.16c.04 1.1.82 2.19 1.9 2.63.89.36 1.97.32 2.89-.13.02-.01.05-.02.06-.02z" fill="#c6c945"/></g></g><g><path d="m46.11 17.47-15.57 4.57-.42-2.7-.32-2-.12-.71-.43-2.69-.21-1.32c-.04-.25.13-.48.38-.54 2.13-.55 3.57-2.54 3.44-4.75-.01-.25.15-.49.4-.53l5.85-.93c.25-.04.48.13.54.38.56 2.13 2.56 3.58 4.75 3.44.25-.01.48.15.53.4l.31 1.96.66 4.18z" fill="#b2b234"/></g><g><path d="m46.11 17.47-15.57 4.57-.42-2.7-.32-2c.52.43 1.09.82 1.74.94 1.06.19 2.1-.37 3.01-.95.46-.29.93-.6 1.41-.84.52.43 1.21.64 1.92.53.46-.07.88-.27 1.21-.56.33.12.66.26.99.37 1.72.56 3.65.45 5.29-.31.18-.08.36-.18.53-.28z" fill="#9e9b2b"/></g><g><path d="m39.1 16.46c-.33.29-.75.49-1.21.56-.71.11-1.4-.1-1.92-.53-.44-.36-.75-.88-.85-1.49-.21-1.32.69-2.56 2.01-2.77s2.56.69 2.77 2.01c.14.86-.19 1.69-.8 2.22z" fill="#d3dc5e"/></g><g><path d="m39.1 16.46c-.33.29-.75.49-1.21.56-.71.11-1.4-.1-1.92-.53.48-.23.99-.39 1.52-.4.56 0 1.08.17 1.61.37z" fill="#c6c945"/></g></g><g><path d="m61.88 38.91-11.38 3.35c-2.95.87-6.04-.78-6.9-3.67-.35-1.21-.27-2.45.18-3.54.09-.21.19-.42.3-.62.69-1.23 1.86-2.21 3.33-2.65l1.83-.54.47-.14 9.09-2.67z" fill="#ea552d"/></g><g><path d="m62.34 37.57-11.41 3.35c-2.95.87-6.04-.77-6.9-3.67-.35-1.21-.27-2.45.18-3.54.09-.21.19-.42.3-.62.69-1.24 1.86-2.22 3.33-2.65l1.83-.54.47-.14 9.11-2.67c.45-.14.91.12 1.04.55l.59 2.02.21.73.8 2.71 1.01 3.44c.15.44-.11.9-.56 1.03z" fill="#ffcd3b"/></g><g><g><path d="m61.11 30.39c-.14.49-.4.93-.75 1.28-.72.71-1.83 1-2.81.75-.28-.07-.54-.18-.8-.29-.49-.21-.95-.4-1.41-.29-.3.06-.57.26-.85.47-.24.18-.48.35-.77.47-.25.1-.5.14-.75.14-.72 0-1.42-.36-1.89-.81-.62-.59-1.01-1.36-1.37-2.17-.01-.01-.01-.03-.01-.04l.47-.14c.34.75.69 1.47 1.25 1.99.53.5 1.38.87 2.13.56.23-.1.44-.25.67-.42.3-.22.62-.45 1.03-.55.61-.14 1.17.1 1.71.32.24.1.49.21.73.27.83.21 1.75-.03 2.35-.63.38-.38.64-.88.71-1.43 0-.11.06-.19.16-.22z" fill="#fcb910"/></g></g><g><path d="m62.34 37.57-11.41 3.35c-2.95.87-6.04-.77-6.9-3.67-.35-1.21-.27-2.45.18-3.54.18 1.09.44 2.16 1.08 3.05.82 1.14 2.47 1.83 3.68 1.12.65-.38 1.09-1.08 1.8-1.32.75-.25 1.56.09 2.31.38.74.3 1.63.53 2.3.09.78-.51.88-1.71 1.69-2.18.78-.46 1.77.01 2.68-.04.84-.04 1.63-.56 2-1.31.06-.13.12-.27.15-.41l1.01 3.44c.14.45-.12.91-.57 1.04z" fill="#fcb910"/></g><g><circle cx="49.26" cy="35.78" fill="#1b38ab" r="2.42"/></g><g><path d="m51.65 36.14c-.14.9-.78 1.69-1.71 1.96-1.28.38-2.63-.36-3.01-1.64-.29-1.01.09-2.04.88-2.63-.06.34-.04.7.06 1.05.38 1.28 1.73 2.02 3 1.64.3-.08.56-.21.78-.38z" fill="#142f84"/></g><g><path d="m29.26 45.85c.6 0 1.14.26 1.53.68s.64 1 .64 1.64c0-1.28.96-2.32 2.16-2.32-.6 0-1.13-.26-1.53-.67-.39-.42-.63-1-.63-1.64 0 .64-.24 1.22-.64 1.64-.39.41-.94.67-1.53.67z" fill="#fff"/></g><g><path d="m16.17 11.24c.43 0 .82.19 1.1.49s.46.72.46 1.18c0-.92.69-1.67 1.55-1.67-.43 0-.82-.19-1.1-.48-.28-.3-.45-.72-.45-1.18 0 .46-.17.87-.46 1.18-.28.3-.67.48-1.1.48z" fill="#fff"/></g><g><path d="m28.08 43.41c.31 0 .59.13.79.35s.33.51.33.84c0-.66.5-1.2 1.11-1.2-.31 0-.59-.13-.79-.35s-.32-.51-.32-.84c0 .33-.13.63-.33.84-.2.23-.48.36-.79.36z" fill="#fff"/></g><g><path d="m41.88 16.57c.43 0 .82.19 1.1.49s.46.72.46 1.18c0-.92.69-1.67 1.55-1.67-.43 0-.82-.19-1.1-.48-.28-.3-.45-.72-.45-1.18 0 .46-.17.87-.46 1.18-.28.29-.67.48-1.1.48z" fill="#fff"/></g><g><g><path d="m16.24 32.43c.16.43-1.22 1.35-3.1 2.01-.95.32-1.91.48-2.61.44-.71-.04-1.13-.25-1.14-.48-.01-.24.37-.45.94-.7s1.35-.55 2.27-.86c1.85-.65 3.48-.86 3.64-.41z" fill="#fff"/></g><g><path d="m19.22 31.35c.07.19-.33.51-.91.72s-1.1.22-1.17.03.34-.51.91-.72 1.1-.22 1.17-.03z" fill="#fff"/></g></g><g><g><path d="m27.27 9.89c-.23-.05-.38-.38-.36-.91.01-.52.2-1.2.58-1.86.38-.68.99-1.25 1.59-1.42.61-.18.99.03 1 .25.02.24-.19.46-.38.76-.2.29-.44.7-.75 1.25-.65 1.11-1.22 2-1.68 1.93z" fill="#fff"/></g><g><path d="m27.31 12.12c-.19.07-.47-.26-.52-.74-.04-.48.17-.84.37-.82s.33.36.37.75c.03.39-.02.74-.22.81z" fill="#fff"/></g></g></g></svg>