<svg id="Layer_1" height="512" viewBox="0 0 1000 1000" width="512" xmlns="http://www.w3.org/2000/svg"><g><path d="m797.1 474.8c1.1-6.2 2.2-12.7 3.3-19.4 7.6-46.3-35.8-72.7-69.8-53.7 22.2-123.8-39.5-251.8-168.2-304.3-29.4-27.2-69.7-44.1-117-44.1-48.6 0-88.7 17.5-103.1 26.7-13.2 8.5-21.6 20.3-26.5 29.5-69.2 36.7-120.6 100.3-139.7 175.9-7.3 7-13.7 15.7-19 25.8-25.9 40.7-23.3 111.4 5.4 150.2 14.3 23.6 31.4 33.5 44.7 37.6 2 3.4 4.1 6.8 6.3 10-46.2 19.1-78.7 64.8-78.5 117.8l.5 134.6c.1 32.6 12.8 63.7 35.1 87.1 6.3 33 27.7 74.3 57.1 90.7l5.8 3.2 1 .1c32.6 13.5 63.7-8.7 74-37.2.4-.1.8-.2 1.2-.3 16.2 4.2 33.3 6.3 50.8 6.3 4.9 0 34.2 8.8 87.2 8.8 63.8 0 161.3-14.6 180.1-75.9 3.8-12.4 6.8-25.2 8.8-38.2 62.2 28.2 124.2 4.9 150.5-41.3 17-29.8 23.2-65.5 25.5-89.8 7.4-10 9.6-21.8 9.1-34.2 7-7.1 14.9-16.6 23.9-33.6 4.5-4.6 7.5-9.8 8.9-16.2 5.4-9.6 8.8-20.7 10.1-32.8 4.3-39-29.7-71.1-67.5-83.3zm-134.9 131c-11.9-12.3-24.8-24-37.6-34.8 2.8-2 5.6-4.1 8.3-6.2 12.1 9.3 21.7 7.4 26.2 10.6 1.3 9.3 4 16.7 6.3 22.1-1.1 2.4-2.2 5.2-3.2 8.3z" fill="#fff"/><g><path d="m697.5 632.5c-10.1 18.5-20.5 40.6-20.5 40.6-30.7-54.9-113.9-111.4-113.2-111.7l-33.5 13.4 69 166.8c67 72 138.3 49.9 161.8 8.6s22.8-99.3 22.8-99.3z" fill="#e8edec"/><path d="m767.5 647.3-7.9 12.9s.2 2.1.3 5.8c.4 16.9 2.4 73.8-39.5 94.7-55.6 27.7-119.1-65.5-129.4-126.1-6-34.9-21.7-16.8-33.9 4.8l42.2 102c67 72 138.3 49.9 161.8 8.6s22.8-99.3 22.8-99.3z" fill="#d0dbe2"/><path d="m563.8 561.4-33.5 13.4 38.6 93.4 17.5 12.3c7.3-46.9 5.1-80.5 2-100.2-14.6-11.7-24.9-18.8-24.6-18.9z" fill="#f7343e"/><path d="m568.4 564.9c-3.1-2.3-4.8-3.5-4.7-3.6l-33.5 13.4 12.6 30.6c16-5 31.5-11.3 46.4-19-.3-2.2-.6-4.2-.9-6.1-8.3-6.7-15.5-12-19.9-15.3z" fill="#c61e36"/><g><path d="m290.6 529.5-29.1.1c-53.5.2-96.7 43.7-96.4 97.2l.5 134.6c.2 53.5 43.7 96.7 97.2 96.4l29.1-.1c53.5-.2 96.7-43.7 96.4-97.2l-.5-134.6c-.2-53.4-43.8-96.6-97.2-96.4z" fill="#d0dbe2"/><path d="m331.3 530-29.1.1c-53.5.2-96.7 43.7-96.4 97.2l.5 134.6c.2 53.5 43.7 96.7 97.2 96.4l29.1-.1c53.5-.2 96.7-43.7 96.4-97.2l-.5-134.6c-.2-53.4-43.7-96.6-97.2-96.4z" fill="#bec9ce"/><ellipse cx="188.7" cy="666.1" fill="#f7343e" rx="16.4" ry="19.3" transform="matrix(1 -.004 .004 1 -2.675 .764)"/><path d="m177.9 656.7c0-2 .3-4 .7-5.9-3.9 3.5-6.4 9.1-6.4 15.3 0 10.6 7.4 19.2 16.5 19.2 7.3 0 13.5-5.7 15.6-13.5-2.8 2.5-6.2 4-9.9 4-9.1.1-16.4-8.5-16.5-19.1z" fill="#c61e36"/><path d="m192.4 704.1h-7c-4.1 0-7.5 3.4-7.5 7.5l.2 50c0 4.1 3.4 7.5 7.5 7.5h7c4.1 0 7.5-3.4 7.5-7.5l-.2-50c0-4.2-3.4-7.5-7.5-7.5z" fill="#fdcc00"/><path d="m194.1 758.1c-4.1 0-7.5-3.3-7.5-7.5l-.2-46.5h-1.1c-4.1 0-7.5 3.4-7.5 7.5l.2 50c0 4.1 3.4 7.5 7.5 7.5h7c4.1 0 7.5-3.4 7.5-7.5v-3.5z" fill="#fca800"/></g><path d="m538.1 564.5-228.5-9.2s-57.9 199.8-16.4 284.6c33 67.4 283.7 68.5 306.1-4.3 42.1-136.6-52.7-271.3-61.2-271.1z" fill="#e8edec"/><path d="m538.1 564.5-228.5-9.2s-3.2 10.9-7.5 28.7c75.7 41.4 176.6 47.6 261.4 14.1-12.2-21.2-22.8-33.7-25.4-33.6z" fill="#bec9ce"/><path d="m337 711-58.6 56.1c.9 27.8 5.2 53.3 14.7 72.7 7.9 16.1 28.1 28.3 54.6 36.8l13.5-16.2c-40.5-40-24.2-149.4-24.2-149.4z" fill="#bec9ce"/><g><path d="m573.5 699.5c-1.7-16.2-16.3-28-32.5-26.3l-86.9 9.2c-16.2 1.7-28 16.3-26.3 32.5l5 46.9c1.7 16.2 16.3 28 32.5 26.3l86.9-9.2c16.2-1.7 28-16.3 26.3-32.5z" fill="#bec9ce"/><path d="m576 691.9c-1.3-12.2-12.3-21.1-24.5-19.8l-87.5 9.3c-12.2 1.3-21.1 12.3-19.8 24.5l5.1 47.9c1.3 12.2 12.3 21.1 24.5 19.8l87.5-9.3c12.2-1.3 21.1-12.3 19.8-24.5z" fill="#d0dbe2"/><ellipse cx="481.1" cy="726.3" fill="#f7343e" rx="16.4" ry="19.3" transform="matrix(.994 -.106 .106 .994 -73.962 54.828)"/><path d="m487.7 735.4c-9 1-17.2-6.9-18.3-17.4-.2-2-.2-4 .2-5.9-3.5 3.9-5.4 9.7-4.8 15.9 1.1 10.6 9.3 18.4 18.3 17.4 7.3-.8 12.8-7 14.1-15-2.5 2.8-5.7 4.6-9.5 5z" fill="#c61e36"/><path d="m560.2 701.8c-.4-4.1-4.1-7.1-8.2-6.7l-34.3 3.6c-4.1.4-7.1 4.1-6.7 8.2l.2 1.8c.4 4.1 4.1 7.1 8.2 6.7l34.3-3.6c4.1-.4 7.1-4.1 6.7-8.2z" fill="#a0cf30"/><path d="m563.4 731.8c-.4-4.1-4.1-7.1-8.2-6.7l-34.3 3.6c-4.1.4-7.1 4.1-6.7 8.2l.2 1.8c.4 4.1 4.1 7.1 8.2 6.7l34.3-3.6c4.1-.4 7.1-4.1 6.7-8.2z" fill="#fdcc00"/><path d="m560.5 704.3-39 4.1c-2.8.3-5.4-2.2-5.8-5.5l-.4-4c-2.8.3-4.8 3.2-4.5 6.6l.5 4.6c.4 3.3 2.9 5.8 5.8 5.5l39-4.1c2.8-.3 4.8-3.2 4.5-6.6z" fill="#89a520"/><path d="m563.7 734.4-39 4.1c-2.8.3-5.4-2.2-5.8-5.5l-.4-4c-2.8.3-4.8 3.2-4.5 6.6l.5 4.6c.4 3.3 2.9 5.8 5.8 5.5l39-4.1c2.8-.3 4.8-3.2 4.5-6.6z" fill="#fca800"/></g><path d="m458.9 783.8s-8.3 49.6-78.6 58.4c-50.7 6.4-83.1-12.7-98.6-25.5-6.8-5.7-16.6-5.9-23.7-.6-9.7 7.4-10 21.8-.7 29.6 18.6 15.4 53 36 103.7 35.8 47.3-.2 91-16.5 118.5-55 15.9-22.3 19.9-43 20.3-45.3-9.5-6.1-30.2-5.3-40.9 2.6z" fill="#5b79fd"/><path d="m357.5 867.8c-56.1.2-98.8-28.4-106.7-39-.8 6.1 1.4 12.5 6.6 16.8 18.6 15.4 53 36 103.7 35.8 47.3-.2 91-16.5 118.5-55 15.9-22.3 19.9-43 20.3-45.3-1.8-1.2-4-2.1-6.5-2.7-16.4 50.6-62.8 89.1-135.9 89.4z" fill="#4665d3"/><path d="m464.2 855.3c.1.4.4.8.1.1 0 0-.1 0-.1-.1z" fill="none"/><path d="" fill="#4665d3"/><g fill="#4665d3"><path d="m273.4 833.6c-3.8 5-8.1 9.9-12.8 14.7 2.5 1.9 5.2 3.9 8.2 5.9 8.8-9.2 16.6-19.3 23-30.2-3.1-2-5.8-4-8.2-5.9-5.9 10.3-11.7 17.5-10.2 15.5z"/><path d="m290 866.3c3 1.4 6.1 2.7 9.3 4 7.5-10.4 13.3-21.9 18.4-33.7-3.3-1.1-6.3-2.3-9.2-3.6-8.7 19.9-16.7 31-18.5 33.3z"/><path d="m326.5 878.2c3.2.6 6.5 1.2 9.9 1.7 3.7-12.2 6.1-24.7 7.4-37.4-3.4-.4-6.7-.9-9.9-1.5-1.1 12.6-3.6 25-7.4 37.2z"/><path d="m361.3 843.5c.9 12.7.9 25.4 0 38 3.4 0 6.7-.1 10-.3.8-12.7.8-25.4-.1-38.1-3.4.3-6.7.4-9.9.4z"/><path d="m389.8 840.7c4.8 19 6.6 34.2 6.2 31.3.3 1.9.5 3.9.8 6 3.3-.7 6.5-1.4 9.7-2.3-1.5-12.6-3.9-25-7-37.3-3 .9-6.3 1.7-9.7 2.3z"/><path d="m414.9 833c6 10.9 10.9 22.2 14.7 34.5 3.1-1.4 6.1-2.9 9-4.5-3.8-11.9-8.8-23.5-14.9-34.5-2.6 1.5-5.6 3.1-8.8 4.5z"/><path d="m443.1 813c-2.1 2.3-4.5 4.7-7.3 7 6.2 4.7 14.3 13.7 18.1 18.7-1.3-1.7 2.5 2.9 6.3 9.2 2.5-2.2 5-4.6 7.4-7-6.8-10.7-16.6-21.5-24.5-27.9z"/><path d="m450.9 802.7c4.8 1.4 9.3 3 13.7 4.8-2.3-1 8 2.9 20.5 10.7 1.8-3 3.4-5.9 4.8-8.8-10.7-6.7-22.2-12-34.2-15.8-1.2 2.8-2.7 5.9-4.8 9.1z"/></g><path d="m760.4 509.4s5.2-27.6 10.4-58.9c4.9-29.9-28.9-31.7-34.2-11.5-4.1 15.9-12.4 50.3-16.2 69.7-3.8 19.5-8.8 21.5-12.8 20.6-8.2-1.8-14.7-21.6-38.9-21.1-26.5.6-29.4 32.4-11.7 35.3 19.2 3.2 29.6 13.8 31.5 27.6s8.5 20.9 8.9 26.1c.3 5.2-15.5 25.2-5.6 39.4 10 14.3 69.9 25.7 86.5 25.2s13.3-20 12.8-26.6c-.5-6.7 1.4-7.6 9.5-15.7s34.2-45.1 27.1-64.4c-6.9-19.1-67.3-45.7-67.3-45.7z" fill="#f7343e"/><path d="m749.5 594.3c10.5 5.5 47.3 13.4 10.2 66 8 1.2 14.7 1.8 18.8 1.7 16.6-.5 13.3-20 12.8-26.6-.5-6.7 1.4-7.6 9.5-15.7 5.6-5.6 19.9-25.1 25.7-43-.1 0-22.3-13.2-96.3-15.3 0 0-3.1 21.3 19.3 32.9z" fill="#c61e36"/><path d="m759.7 501.4c-19.3 6.2-34.9 43.1-29.4 59.9s51.5 33.8 67 33.8c23.8 0 35.4-19.6 37.5-39.9 3.7-34.2-50.9-61.5-75.1-53.8z" fill="#f7343e"/><g fill="#c61e36"><path d="m732.9 561.4v-.1c0 .1.1.5 0 .1z"/><path d="m793.2 592.4c-.2-.1.2 0 0 0z"/><path d="m735.1 565c-.1-.1 0 0 0 0z"/><path d="m821.1 582.5c-4.8 5.2-10.9 8.5-17.8 9.7-2.8.5-5.7.6-8.5.3-.5 0-.9-.1-1.4-.1-.1 0-.1 0-.2 0s0 0-.1 0c-.3 0-.6-.1-.8-.1-1.1-.2-2.3-.4-3.4-.6-11.3-2.3-22.4-6.4-32.7-11.6-5.1-2.5-10.3-5.5-14.7-8.9-1.7-1.3-3.7-3.1-5.3-4.9-.4-.4-.7-.8-1-1.2-.1-.1-.1-.1-.1-.2 0 .1-.1-.1 0 0 0 0 0 0-.1-.1-.2-.2-.3-.4-.5-.7-.6-.8-1.1-1.7-1.5-2.6 0-.1-.1-.2-.1-.2.1.4 0 0 0-.1v.1c-.1-.2-.1-.4-.2-.6-.2-.5-.3-1-.4-1.5s-.2-1-.3-1.5c0-.1-.1-.6-.1-.6v.1c0-.1 0-.2 0-.1 0-.3-.1-.5-.1-.8-.2-2.5-.1-5.1.2-7.6.6-5.4 2.4-11.6 4.6-16.9 2.3-5.7 5.4-11.2 9.1-16.1 3.2-4.2 7.1-8 11.7-10.5 1.2-.7 1.7-.9 3-1.3 3-1 1.7-5.8-1.3-4.8-11.7 3.8-19.8 15.4-25 26-2.9 5.9-5.1 12.2-6.4 18.6-1.1 5.5-1.6 11.3-.3 16.8 1.1 4.7 4 8.5 7.5 11.7 4.3 4 9.3 7.2 14.4 10 11 6 23 10.7 35.2 13.7 4.7 1.1 9.5 2.1 14.3 1.9 8.1-.3 15.7-2.9 22-8 1.4-1.1 2.7-2.3 3.9-3.7 2.1-2.5-1.4-6-3.6-3.6z"/><path d="m731.9 557.2v-.1c-.1-.1-.1 0 0 .1z"/></g><path d="m212.4 770.7c36.5 4.2 92 22 92 22 25.4-85.3 96.4-198.4 96.4-198.4l3.7-5.8-95-33.3c-84.9 59.4-97.1 215.5-97.1 215.5z" fill="#e8edec"/><path d="m309.6 555.2c-8.2 5.7-15.8 12.4-22.6 19.7 30.1 19.3 65 32.5 101.8 39.3 17.6-6.9 18.1-21.6 15.8-25.7z" fill="#bec9ce"/><path d="m286.9 773.4c-1.5 4.8-2.6 9.1-3.5 13 12.5 3.6 21 6.3 21 6.3 7.7-26 19.7-54.6 32.6-81.7 7.2-15.2 6.2-67.3 6.2-67.3s-33.7 56.1-56.3 129.7z" fill="#d0dbe2"/><path d="m307.7 556.6c-12.5 9-23.3 20.2-32.8 32.5 35.5 25 58.5 79.1 62.1 121.9 17.7-50.7 12.9-115.1-29.3-154.4z" fill="#f7343e"/><path d="m328.7 670.5c4.4 13.8 7.2 27.7 8.3 40.5 7.7-22.1 11.1-46.7 9.1-70.8-4.4 7.1-11.6 19-17.4 30.3z" fill="#c61e36"/><path d="m313.1 784.3c-9.1-9-87.6-27.9-99.5-26-10.9 1.8-18 34.5-14.8 75s39.2 96.7 65.9 80.7c23.8-14.3 17.2-41 17.2-41s19.6 10.8 29.6-3.4c10.5-14.9-8.5-41.9-10.2-46.5-1.7-4.8 18.6-32.1 11.8-38.8z" fill="#f7343e"/><path d="m313.1 784.3c-3-2.9-13.3-6.9-26.2-10.9-28.4 57.7-20.8 69.4-23.7 98-2.5 24.7-12.2 35.5-21.4 41.4.2.1.4.2.6.4 7.6 4.2 15.2 5 22.3.8 23.8-14.3 17.2-41 17.2-41s19.6 10.8 29.6-3.4c10.5-14.9-8.5-41.9-10.2-46.5-1.7-4.8 18.6-32.1 11.8-38.8z" fill="#c61e36"/><g><ellipse cx="451.5" cy="349.9" fill="#e8edec" rx="253.5" ry="244.1" transform="matrix(.999 -.036 .036 .999 -12.229 16.374)"/><path d="m241.5 357.5c-4.6-127.7 93.6-236.1 223-251.3-149.3-6.8-271.4 110.7-266.3 252.8 5.5 153.5 119.9 250.1 282.9 233.4-151.5-4-235-106.4-239.6-234.9z" fill="#d0dbe2"/><path d="m520.4 103.3c-66.6-40.1-144.8-9.4-162.4 2.4-13.9 9.2-19.2 25.9-19.2 25.9s88.6-1.7 118.7 88.6l124-4.4s6.3-72-61.1-112.5z" fill="#f7343e"/><path d="m358.5 105.3c-.2.1-.4.3-.6.4-13.9 9.2-19.2 25.9-19.2 25.9s88.6-1.7 118.7 88.6l22-.8c-1-3.2-2-6.4-3.2-9.9-28.5-83.4-80.5-102.4-117.7-104.2z" fill="#c61e36"/><path d="m523.5 192.9c-128.4-4.2-209.8 38.8-236.9 129.9-19.9 66.8 19.9 231.3 209.3 224.5 220-7.9 210.9-197.3 193.6-249.8-27.5-83.5-83.9-101.9-166-104.6z" fill="#2a0e59"/><path d="m567.1 539.8c-7.6 0 7-19.3-25.4-18.3-36.2 1.1-31.1 29.7-70.3 36.1-39.1 6.4 3.6 25.4 53.8 18.1 29.1-4.3 81.5-35.7 41.9-35.9z" fill="#e8edec"/><ellipse cx="223.1" cy="384.2" fill="#f7343e" rx="51.4" ry="87.6" transform="matrix(.999 -.036 .036 .999 -13.598 8.227)"/><ellipse cx="208.6" cy="384.7" fill="#c61e36" rx="39.3" ry="73.7" transform="matrix(.999 -.036 .036 .999 -13.626 7.708)"/><g fill="#5f30b2"><ellipse cx="641.7" cy="263.9" rx="15.1" ry="15.1" transform="matrix(.766 -.643 .643 .766 -19.507 474.31)"/><path d="m669.6 289.8c-2.8-5.9-9.9-8.5-15.8-5.7-6 2.8-8.7 10.2-5.4 16.3 20.5 38.5 21.7 90.7 9.9 132.7-7.7 27.2-19.5 42.6-19.3 42.3-1.3 1.9 1.3 4 2.9 2.3 39.1-40.5 55.6-128.8 27.7-187.9z"/><path d="m325.9 422.8c-13.6-24.5-17.6-45.7-17.5-45-.9-3.8-6.5-2.8-6.1 1.1 2.1 16.7 6.7 33.2 13.4 48.9 11.7 27.2 26.8 44.7 26.4 44.1 2.8 3.5 8 4.1 11.5 1.2 3.5-2.8 4.1-8 1.2-11.5-1.3-1.7-15.6-14.9-28.9-38.8z"/><path d="m366.7 475.6c-5.5 1-9.2 6.3-8.2 11.8s6.3 9.2 11.8 8.2 9.2-6.3 8.2-11.8-6.3-9.2-11.8-8.2z"/></g></g></g></g></svg>