<svg viewBox="0 0 512 512" xmlns="http://www.w3.org/2000/svg"><g id="Construction_workers_building_the_wall" data-name="Construction workers building the wall"><path d="m68.94 230-32.09-14c-3.57-2.2-4.29-6.68-2.35-9.21a6.32 6.32 0 0 1 7.11-1.65l32.1 14.08z" fill="#e67925"/><path d="m304.52 49.84a28.92 28.92 0 0 0 -28.89 42.51l1.88 12.74c1.53 10.39 8.84 18 17.39 19l.86.1c8.78 1.06 17.94-4.7 22-14.75l4.68-11.44a28.92 28.92 0 0 0 -17.92-48.17z" fill="#e67925"/><path d="m275.12 118.27h39.25v24.9h-39.25z" fill="#e67925" transform="matrix(.12 -.993 .993 .12 129.62 407.65)"/><path d="m299.54 104.73-3.51-.38a1.71 1.71 0 0 1 -1.44-2.27l3.21-9.25a.52.52 0 0 1 .64-.31.51.51 0 0 1 .31.64l-3.22 9.25a.73.73 0 0 0 .61 1l3.46.37a.5.5 0 0 1 -.06.95z" fill="#262246"/><path d="m290 88.3a2.46 2.46 0 1 0 2.12 2.7 2.45 2.45 0 0 0 -2.12-2.7z" fill="#262246"/><path d="m308.52 90.54a2.46 2.46 0 1 0 2.14 2.73 2.45 2.45 0 0 0 -2.14-2.73z" fill="#262246"/><path d="m292 81.44c-.68-.26-4.77-1.82-7.89.5-1 .76-1.95 2-1.7 2.33.39.58 3-2 6.28-1.35 2.24.42 3.48 2.07 5 1.38.09 0 .81-.38.85-.91.03-.94-2.1-1.78-2.54-1.95z" fill="#262246"/><path d="m315.56 85.74c-2.47-3-6.82-2.46-7.54-2.37-.49.06-2.76.37-2.91 1.3-.09.52.53 1 .6 1.09 1.29 1 2.9-.28 5.17-.15 3.32.18 5.26 3.27 5.78 2.8.34-.3-.28-1.68-1.1-2.67z" fill="#262246"/><path d="m283.55 118.7a.5.5 0 0 1 .73-.68 18.38 18.38 0 0 0 23.6 2.71.51.51 0 0 1 .7.14.5.5 0 0 1 -.14.69 19.4 19.4 0 0 1 -24.89-2.86z" fill="#68003c"/><path d="m294.5 136.84-51.89 3.68a50.66 50.66 0 0 0 -43.15 31l-61.65 147.8 52.47 44.51 60.78-173.49z" fill="#e67925"/><path d="m100.31 201.15 90.28 146.08c4.08 16.13-5.17 32.39-19.79 37-16 5-34.41-5.25-38.49-23.09l-52.77-136.38z" fill="#e67925"/><path d="m294.5 136.84 61.5 14.85a33.51 33.51 0 0 1 25.28 27.62q13.29 88.91 26.59 177.8h-52.07l-31.89-172z" fill="#e67925"/><path d="m221.12 151.92 73.38-15.08 66.23 22.7q-18.15 96.73-36.29 193.46l-102.44-5.9z" fill="#68003c"/><path d="m294.5 136.84-63.74 3.73a39.72 39.72 0 0 0 -34.33 24.37l-39.93 95.83 55.95 39.76 23.22-62.3z" fill="#68003c"/><path d="m294.5 136.84 57.84 12.4a42.7 42.7 0 0 1 33.05 34.06l19.9 108.91-57.54 20.51-16.11-74z" fill="#68003c"/><path d="m412.55 198.18-57.68 151.32c-.53 15.8 10 29.28 23.44 32.13 16.15 3.42 34.13-8.95 36.46-28.22l29-139.22z" fill="#e67925"/><path d="m214.6 350.28q-19.15 58.19-38.3 116.38h83.56l15.06-45.08 9 45.08h76.81q-6.75-60-13.48-120c-2.26-122.12-.86-79.5-6.4-199.92l-11.51-2.46-2.82 51.45a66.25 66.25 0 0 1 -75.46-5.42q1.81-25.59 3.62-51.17l-12.07 1.35q-18.1 104.24-28.01 209.79z" fill="#2351fb"/><path d="m273.19 138.35s4.81 12.29 22.81 13.34 21.73-9.86 21.73-9.86l-24.1-7.78z" fill="#e67925"/><path d="m321.6 100.07 3-14.2a20.88 20.88 0 0 1 -1.59-9.5c.37-4.6 2.16-5.67 1.47-7.51-1.61-4.28-12-.19-27.12-4-8.27-2.09-14.92-5.77-17.78-2.81a5.88 5.88 0 0 0 -1.19 2.81c-1.42 5.35 1.3 8 .2 12a9.5 9.5 0 0 1 -3.7 5c.24 3.5.47 7 .71 10.48l-5.54 1.59c-5.78-19.72.49-38.9 13.55-46.52 10.92-6.37 24-3.14 26.17-2.6 4 1 13.92 3.44 19.74 12.5 4.08 6.35 4.16 12.81 4.21 16.67.18 14-7.14 27.31-7.14 27.31z" fill="#68003c"/><path d="m279.25 90.47c-1.49-3.92-5.4-6.07-8.75-4.81s-4.86 5.48-3.38 9.4 5.4 6.07 8.75 4.8 4.86-5.47 3.38-9.39z" fill="#e67925"/><path d="m274.24 97.53a3.37 3.37 0 0 1 -2.21-3.4 3.45 3.45 0 0 1 1.2-2.4l-3.2-.39a.5.5 0 0 1 -.44-.55.52.52 0 0 1 .56-.44l4.83.58a.5.5 0 0 1 0 1 2.47 2.47 0 0 0 -.56 4.66.5.5 0 0 1 -.18.94z" fill="#262246"/><path d="m328.93 92.73c-2.95-2-7.26-.88-9.64 2.58s-1.91 7.9 1 9.92 7.27.88 9.64-2.58 1.95-7.9-1-9.92z" fill="#e67925"/><path d="m322.49 102.38a2.47 2.47 0 0 0 .56-4.66.5.5 0 0 1 .28-.94l4.82.58a.5.5 0 1 1 -.12 1l-3.19-.36a3.45 3.45 0 0 1 -2.14 5.39.5.5 0 0 1 -.21-1.01z" fill="#262246"/><path d="m267.64 65.23 69.92 9.9a36.57 36.57 0 0 0 -11.81-35c-10.29-8.82-25.69-11.75-38.83-5.15a35.56 35.56 0 0 0 -19.28 30.25z" fill="#fdc500"/><rect fill="#fdc500" height="10.61" rx="1.23" transform="matrix(.993 .118 -.118 .993 10.54 -35.27)" width="77.74" x="263.03" y="65.71"/><path d="m270.74 70.05.61 2.7a8.47 8.47 0 0 0 9.12 6.56c7-.73 18.94-.51 36 4.88a13.4 13.4 0 0 0 15.72-6.19l.68-1.22z" fill="#fdc500"/><path d="m292.34 29.38a25.4 25.4 0 0 1 26.36 1.27q-3.61 18.09-7.22 36.17l-15.54-1.72z" fill="#fdc500"/><path d="m295.94 65.6a.5.5 0 0 1 -.5-.46l-2.44-32.63a.5.5 0 0 1 1-.08l2.47 32.64a.5.5 0 0 1 -.53.53z" fill="#68003c"/><path d="m311.48 67.32a.5.5 0 0 1 -.5-.59l5.56-32.25a.5.5 0 0 1 1 .17l-5.54 32.25a.49.49 0 0 1 -.52.42z" fill="#68003c"/><path d="m337.16 70.38c-.1 0 1.67.21-68.39-8.15a.5.5 0 0 1 .12-1l68.33 8.15a.5.5 0 0 1 -.06 1z" fill="#68003c"/><path d="m36.93 187.57-.97 13.3 89.71 65.61 31.44-45.48-3.64-12.21z" fill="#fdc500"/><path d="m69.21 144.96h51.98v106.43h-51.98z" fill="#fdc500" transform="matrix(.593 -.805 .805 .593 -120.84 157.39)"/><circle cx="57.26" cy="186.06" fill="#68003c" r="8.11"/><circle cx="72.69" cy="165.08" fill="#68003c" r="8.11"/><circle cx="77.25" cy="200.77" fill="#68003c" r="8.11"/><circle cx="92.69" cy="179.8" fill="#68003c" r="8.11"/><circle cx="97.25" cy="215.49" fill="#68003c" r="8.11"/><circle cx="112.68" cy="194.52" fill="#68003c" r="8.11"/><circle cx="117.24" cy="230.2" fill="#68003c" r="8.11"/><circle cx="132.68" cy="209.23" fill="#68003c" r="8.11"/><path d="m122.65 251.16c-.25 0 3.64 2.79-86-63.19a.5.5 0 1 1 .59-.8l85.31 62.83 30.51-41.47a.5.5 0 0 1 .81.59c-32.56 44.21-30.87 42.04-31.22 42.04z" fill="#68003c"/><path d="m125.67 267a.49.49 0 0 1 -.49-.41l-3-15.82a.5.5 0 0 1 1-.19l3 15.83a.5.5 0 0 1 -.51.59z" fill="#68003c"/><path d="m90.27 246c-1.63.16-4 .34-6.77.4-3.42.07-5.15.09-6.25-.4-4.06-1.81-4.49-8.93-4.56-11-6.1 2.82-11.56-2.22-10.7-8.57a5.84 5.84 0 0 1 -11.36-1.59q-.74-11.11-1.49-22.22a5 5 0 1 1 9.86-1.47l4.38 18 2-15.17a5.7 5.7 0 0 1 6.18-3.39c2.8.7 4.82 4.42 3.32 8l-.54 19.72q2.19-7.47 4.39-14.94c3.73-3.11 9.24-1.17 9 4q-1.16 9.84-2.32 19.66l9.84 7.2z" fill="#e67925"/><path d="m50.44 222.41a.5.5 0 0 1 -.5-.44l-1.29-11.4a.5.5 0 0 1 1-.11l1.29 11.4a.49.49 0 0 1 -.5.55z" fill="#68003c"/><path d="m62 226.94a.5.5 0 0 1 -.5-.59l1.4-7.33a.5.5 0 1 1 1 .19l-1.39 7.33a.5.5 0 0 1 -.51.4z" fill="#68003c"/><path d="m72.69 235.51a.51.51 0 0 1 -.49-.62l1.65-6.77a.5.5 0 0 1 .6-.37.49.49 0 0 1 .37.6l-1.64 6.77a.51.51 0 0 1 -.49.39z" fill="#68003c"/><path d="m184.87 338.47c-.44 0 1.89 3.51-33.17-53.21a.5.5 0 0 1 .86-.52l32.73 53a.5.5 0 0 1 -.42.73z" fill="#68003c"/><path d="m292.13 107.39 12.5 1.32a6.82 6.82 0 0 1 -12.5-1.32z" fill="#fff"/><path d="m458 95.42a5.63 5.63 0 0 1 10.1 3.26c.12 4.5 1.83 67.78 1.8 66.65a5.62 5.62 0 0 1 -7.35 5.5l-42.26-13.63a5.63 5.63 0 0 1 -2.75-8.76z" fill="#2351fb"/><rect fill="#fdc500" height="43.82" rx="2.84" transform="matrix(.952 .307 -.307 .952 72.99 -124.85)" width="5.98" x="430.15" y="147.55"/><rect fill="#2351fb" height="56.95" rx="4.18" transform="matrix(.952 .307 -.307 .952 81.71 -120.44)" width="13.86" x="416.56" y="170.89"/><path d="m446.47 150.58-4.32-2a3.64 3.64 0 0 0 -6.16 2.33l-3.33 10.3 5.7 1.84c.81-2.5 1.61-5 2.42-7.49l3.62 1.15a5.64 5.64 0 0 0 2.07-6.13z" fill="#fdc500"/><path d="m407.88 210.43 2-24.94a5.29 5.29 0 0 1 3.5-4.57l13.36-4.82a5.54 5.54 0 0 1 5.82 2.54 5.67 5.67 0 0 1 -2.39 7.47l-11.17 4.55-5.27 16.34z" fill="#e67925"/><path d="m426.57 178.11 14.86-4.06c4.13-.38 7.73 2.25 8.44 5.7a7.47 7.47 0 0 1 -2.84 7.17 5.92 5.92 0 0 1 4.93 3.42c1.06 2.68-.51 6.34-4 7.78a6.54 6.54 0 0 1 4 5.53 6.61 6.61 0 0 1 -4.78 6.57 6.18 6.18 0 0 1 4.78 5.53c.1 3.14-2.78 6.15-6.57 6.1l-16.13 2.86.29-3.88c-3.72.11-6.66-2.55-6.87-5.53a6.17 6.17 0 0 1 3.24-5.54 5.17 5.17 0 0 1 -1.3-10 5 5 0 0 1 -4.43-5.28 5 5 0 0 1 4-4.19 6.51 6.51 0 0 1 2.39-12.18z" fill="#e67925"/><path d="m423.49 188.9a.5.5 0 0 1 -.16-1l6.6-2.27a5.63 5.63 0 0 0 2.41-4.25 5.52 5.52 0 0 0 -1.77-4.12.5.5 0 0 1 .67-.74 6.46 6.46 0 0 1 2.1 4.9 6.55 6.55 0 0 1 -2.92 5.08c-.09.08-6.78 2.4-6.93 2.4z" fill="#68003c"/><path d="m424.18 190.79a.5.5 0 0 1 -.08-1l22.9-3.37a.5.5 0 0 1 .14 1c-23.5 3.46-22.86 3.37-22.96 3.37z" fill="#68003c"/><path d="m424.59 199.27 23.3-1.65a.52.52 0 0 1 .54.47.5.5 0 0 1 -.47.53l-23.3 1.64a.5.5 0 1 1 -.07-.99z" fill="#68003c"/><path d="m447.18 210.72c-2.09 0 7.75.17-21.27-.46a.5.5 0 0 1 0-1l21.26.46a.5.5 0 0 1 .01 1z" fill="#68003c"/><path d="m440.62 220-16-1.11a.5.5 0 0 1 .07-1l16 1.11a.5.5 0 0 1 -.07 1z" fill="#68003c"/><path d="m360.26 334 11.48-30.12a.5.5 0 0 1 .94.35l-11.49 30.07a.5.5 0 0 1 -.93-.3z" fill="#68003c"/><path d="m221.12 276 1.79-96.5a.52.52 0 0 1 .51-.49.49.49 0 0 1 .49.51l-1.79 96.5a.5.5 0 0 1 -1-.02z" fill="#fff"/><path d="m346.2 290.69a.5.5 0 0 1 -.49-.56l11.65-95.42a.5.5 0 0 1 1 .12l-11.66 95.42a.51.51 0 0 1 -.5.44z" fill="#fff"/><path d="m250 214.49 78.58 9.11c-26.26 8.04-54.15 4.84-78.58-9.11z" fill="#68003c"/><path d="m268.51 444.44a.5.5 0 0 1 -.49-.61l9.27-40.8-9.52-28.85a.5.5 0 0 1 1-.31c10.25 31.07 9.62 29 9.57 29.25l-9.34 40.93a.5.5 0 0 1 -.49.39z" fill="#68003c"/><g fill="#fdc500"><path d="m42.67 447.28h370.12v38.76h-370.12z"/><path d="m42.67 408.52h273.51v38.76h-273.51z"/><path d="m42.59 403.01h19.12v12.85h-19.12z"/><path d="m69.6 403.01h19.12v12.85h-19.12z"/><path d="m96.61 403.01h19.12v12.85h-19.12z"/><path d="m123.62 403.01h19.12v12.85h-19.12z"/><path d="m150.64 403.01h19.12v12.85h-19.12z"/><path d="m177.65 403.01h19.12v12.85h-19.12z"/><path d="m204.66 403.01h19.12v12.85h-19.12z"/><path d="m231.67 403.01h19.12v12.85h-19.12z"/><path d="m258.69 403.01h19.12v12.85h-19.12z"/><path d="m285.7 403.01h19.12v12.85h-19.12z"/><path d="m312.71 440.85h19.12v12.85h-19.12z"/><path d="m339.72 440.85h19.12v12.85h-19.12z"/><path d="m366.74 440.85h19.12v12.85h-19.12z"/><path d="m393.75 440.85h19.12v12.85h-19.12z"/></g><path d="m316.17 447.78h-273.5a.5.5 0 0 1 -.5-.5.5.5 0 0 1 .5-.5h273v-5.93a.51.51 0 0 1 .5-.5.5.5 0 0 1 .5.5v6.43a.5.5 0 0 1 -.5.5z" fill="#68003c"/><path d="m177.65 447.78a.5.5 0 0 1 -.5-.5v-38.76a.5.5 0 0 1 1 0v38.76a.5.5 0 0 1 -.5.5z" fill="#68003c"/><path d="m148.28 486.54a.5.5 0 0 1 -.5-.5v-38.76a.5.5 0 0 1 .5-.5.5.5 0 0 1 .5.5v38.72a.51.51 0 0 1 -.5.54z" fill="#68003c"/><path d="m316.17 486.54a.51.51 0 0 1 -.5-.5v-38.76a.5.5 0 0 1 .5-.5.5.5 0 0 1 .5.5v38.72a.5.5 0 0 1 -.5.54z" fill="#68003c"/><path d="m469.14 96.63s-9.41 1.2-10.76 8.82 10.76 7.09 5.38 13.14-2.76 13.6 2.69 14.79-13.74 15.39-7.17 25.84 12.7 6.95 14.49 3.81 5.01-63.78-4.63-66.4z" fill="#e67925"/></g></svg>