<?xml version="1.0" encoding="UTF-8"?>
<!-- Generator: Adobe Illustrator 25.4.1, SVG Export Plug-In . SVG Version: 6.00 Build 0)  -->
<svg xmlns="http://www.w3.org/2000/svg" xmlns:xlink="http://www.w3.org/1999/xlink" version="1.1" id="Capa_1" x="0px" y="0px" viewBox="0 0 512 512" style="enable-background:new 0 0 512 512;" xml:space="preserve" width="200" height="200">
<g>
	<g>
		<g>
			<g>
				<polygon style="fill:#4217A6;" points="417.975,258.882 357.171,238.66 400.664,142.543 440.689,155.855 426.718,219.212           "/>
				<g style="opacity:0.18;">
					<path style="fill:#000E3F;" d="M417.975,258.882l-60.804-20.223l43.493-96.117l16.501,5.488       c-4.13,16.477-16.609,33.553-10.852,49.619c3.405,9.458,12.224,15.566,20.406,21.563L417.975,258.882z"/>
				</g>
			</g>
			<path style="fill:#000E3F;" d="M417.974,261.018c-0.227,0-0.454-0.037-0.674-0.111l-60.804-20.223     c-0.575-0.19-1.04-0.614-1.281-1.17c-0.243-0.554-0.239-1.184,0.009-1.735l43.493-96.116c0.452-0.996,1.589-1.476,2.62-1.147     l40.027,13.312c1.038,0.345,1.647,1.42,1.411,2.486l-22.716,103.027c-0.13,0.591-0.505,1.1-1.031,1.397     C418.704,260.923,418.34,261.018,417.974,261.018z M360.092,237.38l56.307,18.729l21.792-98.836l-36.376-12.096L360.092,237.38z"/>
		</g>
		<g>
			<g>
				<path style="fill:#FFCF00;" d="M452.346,192.907c-1.172,0-2.298-0.373-3.255-1.08c-0.018-0.014-33.362-26.034-33.362-26.034      c-0.037-0.023-0.074-0.049-0.111-0.074c-0.236-0.176-0.489-0.264-0.748-0.264c0,0-42.316,0.869-42.318,0.869      c-1.918,0-3.561-0.852-4.622-2.34c-0.994-1.362-1.297-3.088-0.82-4.733c0.003-0.014,0.007-0.028,0.009-0.042      c0.025-0.141,0.065-0.278,0.116-0.408l14.413-39.661c0.109-0.301,0.116-0.568,0.021-0.82l-13.887-39.988      c-0.609-1.738-0.331-3.607,0.767-5.12c1.066-1.441,2.678-2.259,4.437-2.259c0.03,0,42.691,1.455,42.691,1.455      c0.118-0.007,0.415-0.12,0.69-0.313l33.603-25.498c0.989-0.746,2.15-1.137,3.364-1.137c0.593,0,1.184,0.095,1.749,0.282      c1.77,0.591,3.111,2.002,3.596,3.776l11.693,40.639c0.086,0.285,0.239,0.51,0.461,0.66l30.86,21.474l3.878,2.687      c1.524,1.043,2.398,2.715,2.386,4.58c0,1.751-0.862,3.429-2.303,4.471c-0.019,0.014-35.201,23.777-35.201,23.777      c-0.176,0.118-0.408,0.334-0.514,0.688l-12.232,40.467c-0.524,1.798-1.916,3.186-3.718,3.691      C453.523,192.812,452.937,192.907,452.346,192.907z"/>
				<g style="opacity:0.5;">
					<path style="fill:#FD8A02;" d="M430.707,119.042l-18.769,13.434l-42.269,30.269c-0.601-0.825-0.819-1.898-0.49-2.963       c0.007-0.023-0.008-0.053,0.022-0.068c0.007-0.022-0.015-0.03,0.015-0.045l13.576-37.362l1.296-3.594L430.707,119.042z"/>
					<path style="fill:#FD8A02;" d="M430.715,119.019l-60.438-44.552c0.637-0.863,1.65-1.426,2.857-1.375l42.471,1.45l1.013,0.037       l1.654,5.25l3.346,10.538L430.715,119.019z"/>
					<path style="fill:#FD8A02;" d="M504.403,122.301c-0.03,0.015-0.068,0.053-0.098,0.068l-35.049,23.67l-0.998,0.668       l-19.575-14.436l-17.954-13.222l5.864,18.527l16.818,53.021c-1.012,0.338-2.138,0.189-3.061-0.493       c-0.022-0.007-0.037-0.037-0.06-0.045l-33.327-26.01c-0.022-0.008-0.06-0.045-0.083-0.052l-0.893-0.697l38.424-115.529       c1.013,0.337,1.891,1.154,2.207,2.309l11.7,40.669l0.323,1.133l-37.905,27.146l29.461,0.198l45.621,0.322       C505.82,120.597,505.325,121.633,504.403,122.301z"/>
				</g>
				<path style="fill:#FFFFFF;" d="M398.857,87.037c-2.388-1.476-1.422-5.137,1.349-5.289c13.925-0.764,17.674,0.967,36.816-12.306      l0.367-0.255c1.219-0.845,2.893-0.542,3.738,0.677C444.869,75.261,423.092,102.015,398.857,87.037z"/>
				<g style="opacity:0.5;">
					<path style="fill:#FD8A02;" d="M504.403,122.301c-0.03,0.015-0.068,0.053-0.098,0.068l-35.049,23.67       c-0.645,0.436-1.132,1.073-1.364,1.846l-12.231,40.46c-0.337,1.163-1.229,1.966-2.249,2.252       c-1.012,0.338-2.138,0.189-3.061-0.493c-0.022-0.007-0.037-0.037-0.06-0.045l-33.327-26.01       c-0.022-0.008-0.06-0.045-0.083-0.052c-0.623-0.457-1.343-0.697-2.101-0.674l-42.266,0.868       c-1.208,0.023-2.214-0.561-2.844-1.446c-0.601-0.825-0.819-1.898-0.49-2.963c0.007-0.023-0.008-0.053,0.022-0.068       c0.007-0.022-0.015-0.03,0.015-0.045c-0.015-0.03-0.008-0.052,0-0.075l13.554-37.295l0.022,0.007       c0.923,0.082,1.823,0.156,2.731,0.283c9.341,1.307,17.747,6.027,26.414,9.885c0.871,0.39,1.719,0.771,2.596,1.139       c3.249,1.355,6.739,2.516,10.235,3.279c3.962,0.867,7.975,1.203,11.824,0.683c2.768-0.355,5.461-1.159,7.981-2.496       c1.485-0.781,2.85-1.728,4.109-2.808c4.386-3.642,7.782-8.588,11.515-13.046c3.171-3.746,6.612-7.102,11.112-8.98       c9.075-3.757,19.408-0.096,28.548,3.544c0.195,0.09,0.42,0.165,0.615,0.255l3.88,2.69c0.998,0.682,1.472,1.739,1.465,2.812       C505.82,120.597,505.325,121.633,504.403,122.301z"/>
				</g>
			</g>
			<path style="fill:#000E3F;" d="M453.332,47.595c0.368,0,0.733,0.06,1.079,0.175c1.013,0.337,1.891,1.154,2.207,2.309l11.7,40.668     c0.226,0.75,0.661,1.395,1.314,1.837l30.841,21.458l3.88,2.691c0.998,0.682,1.472,1.739,1.465,2.812     c0.001,1.051-0.494,2.086-1.416,2.754c-0.03,0.015-0.068,0.053-0.098,0.068l-35.049,23.67c-0.645,0.436-1.132,1.073-1.364,1.846     l-12.231,40.46c-0.337,1.163-1.229,1.966-2.249,2.252c-0.345,0.115-0.704,0.174-1.064,0.174c-0.693,0-1.389-0.218-1.997-0.667     c-0.022-0.007-0.037-0.038-0.06-0.045l-33.327-26.01c-0.023-0.007-0.06-0.045-0.083-0.052c-0.596-0.437-1.281-0.675-2.002-0.675     c-0.033,0-0.066,0.001-0.099,0.002l-42.266,0.868c-0.024,0.001-0.047,0.001-0.07,0.001c-1.177,0-2.156-0.579-2.774-1.446     c-0.6-0.825-0.819-1.898-0.49-2.963c0.008-0.023-0.007-0.052,0.023-0.067c0.007-0.023-0.015-0.03,0.015-0.045     c-0.015-0.03-0.008-0.052,0-0.075l13.554-37.295l0.883-2.431c0.277-0.758,0.292-1.554,0.014-2.296l-13.868-39.94     c-0.399-1.132-0.167-2.28,0.478-3.166c0.61-0.827,1.564-1.378,2.704-1.378c0.051,0,0.102,0.001,0.154,0.003l42.471,1.449     c0.705-0.015,1.395-0.286,1.98-0.691l33.675-25.552C451.897,47.818,452.622,47.595,453.332,47.595 M453.332,43.325     c-1.68,0-3.285,0.54-4.641,1.562l-33.435,25.37l-41.976-1.433c-0.076-0.004-0.188-0.006-0.299-0.006     c-2.442,0-4.68,1.134-6.14,3.112c-1.516,2.084-1.909,4.736-1.07,7.12l13.765,39.644l-0.78,2.146l-13.554,37.294     c-0.075,0.207-0.134,0.421-0.176,0.638c-0.007,0.028-0.013,0.056-0.019,0.084c-0.575,2.272-0.135,4.556,1.208,6.4     c1.442,2.023,3.721,3.203,6.227,3.203c0.027,0,0.125-0.001,0.152-0.001l41.975-0.862l33.093,25.827     c0.03,0.023,0.059,0.046,0.089,0.068c0.02,0.015,0.04,0.03,0.061,0.045v0c1.331,0.983,2.899,1.503,4.534,1.503     c0.786,0,1.565-0.122,2.317-0.362c2.472-0.729,4.373-2.646,5.098-5.147l12.129-40.121l34.804-23.505l-0.001-0.001     c0.039-0.026,0.078-0.053,0.116-0.079c0.033-0.022,0.065-0.045,0.097-0.068c1.994-1.444,3.183-3.768,3.181-6.216     c0.017-2.519-1.226-4.9-3.326-6.334l-3.855-2.674l-30.573-21.271l-11.613-40.364c-0.659-2.412-2.52-4.368-4.963-5.181     C454.974,43.458,454.158,43.325,453.332,43.325L453.332,43.325z"/>
		</g>
		<g>
			<g>
				<path style="fill:#915EFD;" d="M411.027,377.946c-1.474,5.86-7.646,9.233-13.386,7.323l-99.906-33.228      c-5.74-1.909-8.64-8.299-6.311-13.875l5.865-14.1l10.314-24.772l27.721-66.66l16.77-40.275c1.273-3.077,3.868-5.239,6.883-6.037      c1.905-0.541,3.998-0.52,6.002,0.146l77.98,25.935c5.177,1.722,8.145,7.159,6.813,12.442l-10.692,42.297l-17.726,69.984      l-5.14,20.342l-1.437,5.672L411.027,377.946z"/>
				<path style="opacity:0.5;fill:#FFFFFF;" d="M382.197,208.763c14.487,2.354,38.882,10.363,52.118,17.225      c1.753,0.909,0.867,3.591-1.088,3.27c-14.714-2.433-39.044-10.631-52.053-17.421      C379.533,210.982,380.361,208.468,382.197,208.763z"/>
				<g style="opacity:0.18;">
					<path style="fill:#000E3F;" d="M411.027,377.946c-1.474,5.86-7.646,9.233-13.386,7.323l-99.906-33.228       c-5.74-1.909-8.64-8.299-6.311-13.875l5.865-14.1l10.314-24.772l27.721-66.66l16.77-40.275       c1.273-3.077,3.868-5.239,6.883-6.037c3.732,6.442,4.233,14.559,2.835,21.995c-1.495,8.028-4.994,15.54-8.222,23.067       c-6.696,15.624-12.357,31.667-16.945,48.018c-2.605,9.259-4.864,19.134-2.254,28.352c4.512,15.827,21.45,24.135,37.11,28.693       c15.66,4.558,32.917,7.923,43.901,20.076c0.27,0.315,0.548,0.607,0.811,0.945l-1.437,5.672L411.027,377.946z"/>
				</g>
				<path style="fill:#4217A6;" d="M411.027,377.946c-1.474,5.86-7.646,9.233-13.386,7.323l-99.906-33.228      c-5.74-1.909-8.64-8.299-6.311-13.875l5.865-14.1l117.487,39.075L411.027,377.946z"/>
				<g>
					<path style="fill:#FF8EDE;" d="M348.103,236.836c6.036-3.433,15.336-0.59,19.747,4.379c4.367,4.919,1.73,11.751-7.303,11.402       C348.175,252.138,340.274,241.289,348.103,236.836z"/>
					<path style="fill:#FF8EDE;" d="M426.328,262.853c-2.777-6.364-11.927-9.658-18.436-8.32c-6.443,1.324-8.424,8.374-0.981,13.504       C417.106,275.064,429.931,271.108,426.328,262.853z"/>
				</g>
				<g>
					<path style="fill:#FFFFFF;" d="M351.976,319.413c-0.218,0-0.436-0.035-0.651-0.102c-0.232-0.074-5.702-1.823-7.497-2.497       c-0.605-0.227-1.075-0.714-1.277-1.325c-0.204-0.612-0.12-1.284,0.227-1.826c1.24-1.937,2.53-3.565,3.776-5.141       c0.41-0.517,0.808-1.02,1.193-1.52c-0.841-0.28-1.918-0.632-3.29-1.061c-2.662,3.364-6.198,7.347-6.364,7.534       c-0.412,0.463-0.996,0.718-1.596,0.718c-0.213,0-0.426-0.032-0.635-0.097l-7.81-2.432c-0.616-0.192-1.112-0.653-1.351-1.253       c-0.236-0.6-0.19-1.274,0.127-1.837c1.381-2.44,3.151-4.411,4.863-6.316c0.056-0.062,0.111-0.125,0.167-0.188       c-0.429-0.13-0.839-0.264-1.228-0.415c-0.992-0.387-1.548-1.448-1.302-2.486c0.382-1.601,0.908-3.229,1.416-4.805       c0.252-0.781,0.503-1.561,0.734-2.331c0.174-0.575,0.579-1.047,1.117-1.309c0.292-0.141,0.612-0.213,0.929-0.213       c0.266,0,0.535,0.051,0.79,0.153c1.972,0.783,4.119,1.626,5.438,2.129c0.069-0.104,0.146-0.218,0.229-0.341       c0.491-0.723,1.205-1.772,2.252-3.211c-1.304-0.424-3.211-1.043-5.987-1.941c-1.114-0.361-1.728-1.552-1.381-2.669l2.164-6.932       c0.278-0.89,1.103-1.497,2.034-1.499c0.011,0,0.021,0,0.03,0c0.452,0,0.558,0.042,5.642,1.934       c1.469,0.547,3.285,1.223,4.515,1.67c0.901-1.26,2.505-3.473,5.391-7.455c0.41-0.565,1.059-0.883,1.728-0.883       c0.255,0,0.51,0.046,0.758,0.139l7.483,2.843c0.614,0.234,1.087,0.734,1.281,1.362c0.195,0.626,0.093,1.307-0.28,1.847       c0,0-0.938,1.362-4.3,6.142c1.2,0.401,2.465,0.811,3.403,1.114l5.525-7.467c0.412-0.556,1.054-0.866,1.717-0.866       c0.25,0,0.5,0.044,0.744,0.134l7.247,2.695c0.575,0.213,1.029,0.665,1.249,1.237c0.22,0.57,0.183,1.21-0.1,1.754       c-0.074,0.141-0.769,1.42-4.397,6.751c0.445,0.158,0.89,0.313,1.337,0.464c1.061,0.352,1.67,1.464,1.395,2.548l-1.592,6.302       c-0.146,0.545-0.503,1.024-0.989,1.307c-0.329,0.192-0.702,0.292-1.077,0.292c-0.195,0-0.391-0.025-0.581-0.081       c-0.095-0.028-0.188-0.06-0.276-0.097l-5.164-1.557c-0.625,0.827-1.228,1.645-1.833,2.463       c-0.292,0.396-0.584,0.792-0.878,1.189c1.693,0.6,3.857,1.355,5.495,1.923c1.047,0.364,1.643,1.469,1.369,2.544l-1.603,6.304       c-0.144,0.568-0.514,1.05-1.024,1.335c-0.322,0.183-0.681,0.276-1.045,0.276c-0.211,0-0.422-0.032-0.628-0.095l-9.712-2.982       l-6.294,7.379C353.188,319.146,352.59,319.413,351.976,319.413z M355.245,297.918c0.73-0.947,1.772-2.305,2.727-3.603       c-1.314-0.468-2.551-0.904-3.67-1.288c-0.609,0.806-2.437,3.264-2.757,3.691L355.245,297.918z"/>
					<path style="fill:#FFFFFF;" d="M399.046,334.578c-0.199,0-0.403-0.028-0.607-0.088c-0.878-0.26-8.635-2.567-10.632-3.487       c-0.987-0.456-1.473-1.578-1.133-2.609c0.032-0.102,0.389-1.063,0.959-2.599c4.552-12.281,7.168-19.512,8.621-23.671       c-0.051,0.005-0.104,0.007-0.155,0.007c-0.227,0-0.454-0.037-0.674-0.111c-0.097-0.032-9.246-4.666-8.287-7.613       c0.109-0.331,0.297-0.633,0.549-0.876c12.003-11.549,12.636-11.864,12.976-12.033c0.299-0.151,0.626-0.227,0.955-0.227       c0.204,0,0.41,0.03,0.609,0.09c4.184,1.244,12.251,4.205,12.592,4.33c1.084,0.398,1.656,1.589,1.288,2.685l-15.036,44.746       C400.772,334.011,399.94,334.578,399.046,334.578z"/>
					<path style="fill:#FFFFFF;" d="M401.123,241.003c2.395,1.485,3.023,3.626,2.346,5.85c-3.631,11.927-22.567,10.055-26.981-0.369       c-1.58-3.731-1.99-11.586,3.647-12.061C383.108,234.173,393.316,236.163,401.123,241.003z"/>
				</g>
			</g>
			<g>
				<path style="fill:#000E3F;" d="M443.632,210.378l-77.983-25.936c-2.374-0.79-4.884-0.848-7.217-0.183      c-3.781,0.999-6.811,3.653-8.31,7.282l-60.668,145.804c-1.341,3.204-1.283,6.858,0.155,10.023      c1.438,3.162,4.154,5.604,7.451,6.703l99.904,33.227c1.284,0.426,2.62,0.637,3.953,0.637c2.097,0,4.186-0.523,6.054-1.547      c3.047-1.67,5.278-4.555,6.123-7.917l38.746-153.103C453.44,219.024,449.835,212.44,443.632,210.378z M447.701,224.323      l-38.744,153.1c-0.002,0-0.002,0.003-0.002,0.003c-0.565,2.247-2,4.098-4.038,5.217c-2.043,1.124-4.388,1.341-6.603,0.602      l-99.904-33.23c-2.206-0.732-3.95-2.3-4.912-4.416c-0.964-2.117-1.001-4.464-0.102-6.612l60.672-145.811      c0.987-2.389,2.975-4.133,5.491-4.798c0.711-0.202,1.441-0.304,2.171-0.304c0.864,0,1.733,0.141,2.574,0.419l77.981,25.939      C446.378,215.792,448.755,220.136,447.701,224.323z"/>
				<path style="fill:#000E3F;" d="M380.694,277.408l-7.248-2.694c-0.486-0.181-0.989-0.268-1.487-0.268      c-1.326,0-2.611,0.619-3.434,1.73l-0.412,0.557c0.035-0.521-0.025-1.049-0.185-1.559c-0.39-1.251-1.334-2.254-2.559-2.72      l-7.482-2.843c-0.495-0.188-1.009-0.279-1.516-0.279c-1.339,0-2.638,0.631-3.459,1.765c-2.039,2.813-3.455,4.768-4.446,6.145      c-1.005-0.372-2.111-0.784-3.016-1.121c-5.52-2.056-5.52-2.056-6.38-2.056c-1.868,0-3.519,1.214-4.076,2.997l-2.166,6.932      c-0.507,1.623,0.004,3.323,1.175,4.409c-0.159-0.018-0.319-0.027-0.478-0.027c-0.636,0-1.272,0.143-1.857,0.425      c-1.078,0.521-1.888,1.47-2.233,2.617c-0.228,0.76-0.477,1.53-0.725,2.302c-0.519,1.61-1.056,3.276-1.457,4.954      c-0.358,1.502,0.125,3.028,1.174,4.05c-1.231,1.435-2.429,2.979-3.458,4.801c-0.635,1.124-0.728,2.475-0.252,3.674      c0.475,1.2,1.468,2.121,2.7,2.504l7.81,2.432c0.418,0.13,0.845,0.193,1.269,0.193c1.2,0,2.369-0.507,3.193-1.434      c0.041-0.046,0.285-0.321,0.67-0.761c-0.109,0.672-0.056,1.369,0.165,2.031c0.407,1.224,1.346,2.198,2.554,2.649      c1.844,0.69,7.363,2.455,7.597,2.53c0.428,0.137,0.866,0.203,1.299,0.203c1.229,0,2.424-0.532,3.249-1.499l5.385-6.312      l8.373,2.57c0.41,0.126,0.832,0.188,1.253,0.188c0.726,0,1.447-0.185,2.092-0.548c1.019-0.573,1.758-1.538,2.046-2.67      l1.603-6.304c0.547-2.15-0.644-4.36-2.739-5.087c-0.913-0.317-1.855-0.645-2.761-0.961c0.03-0.04,0.06-0.08,0.089-0.121      l3.663,1.104c0.486,0.19,1.009,0.292,1.543,0.292c3.324,0,3.982-2.599,4.678-5.35l1.052-4.161      c0.435-1.718-0.239-3.47-1.592-4.476c2.304-3.438,2.924-4.527,3.078-4.82c0.569-1.087,0.643-2.365,0.204-3.511      C382.754,278.736,381.844,277.835,380.694,277.408z M373.366,290.24c1.344,0.447,2.66,0.955,3.998,1.4      c-0.954,3.773-1.59,6.288-1.59,6.288s0.001-0.005,0.004-0.015l-6.825-2.057c-1.873,2.423-3.488,4.722-5.355,7.147      c0.933,0.382,8.241,2.917,8.241,2.917l-1.603,6.304l-11.054-3.393l-7.206,8.446c0,0-5.632-1.8-7.4-2.462      c2.206-3.446,4.696-6.018,6.564-8.872l-0.061-0.02c0,0-1.557-0.659-7.4-2.461c-2.659,3.508-7.181,8.596-7.181,8.596l-7.81-2.432      c1.887-3.34,4.678-5.836,6.97-8.689c-1.465-0.487-3-0.785-4.25-1.272c0.548-2.296,1.42-4.697,2.118-7.018      c0,0,6.667,2.655,6.904,2.655c0.004,0,0.006-0.001,0.006-0.002c0.599-0.297,1.277-1.912,5.288-7.169c0,0-0.444-0.148-8.82-2.863      l2.164-6.932c0.001,0,0.001,0,0.002,0c0.193,0,10.459,3.905,10.988,4.01c0.021-0.064,6.311-8.743,6.311-8.743l7.482,2.843      c0,0-1.229,1.786-5.923,8.447c2.272,0.826,7.53,2.503,7.589,2.524l6.439-8.7l7.248,2.694      C379.206,281.411,378.447,282.86,373.366,290.24z"/>
				<path style="fill:#000E3F;" d="M353.51,290.507l-0.021,0.064c-1.867,2.425-3.592,4.829-5.458,7.254l7.993,2.588      c0.021-0.064,3.573-4.552,5.273-7.103l0.021-0.064c-2.894-1.042-5.573-1.995-7.68-2.696L353.51,290.507z"/>
				<path style="fill:#000E3F;" d="M415.555,283.687c-0.344-0.126-8.471-3.109-12.722-4.372c-0.398-0.118-0.808-0.177-1.216-0.177      c-0.658,0-1.313,0.152-1.912,0.452c-0.677,0.339-1.262,0.632-13.497,12.403c-0.499,0.481-0.875,1.076-1.093,1.734      c-1.044,3.15,1.006,4.612,4.727,7.265c1.878,1.339,2.983,2.062,3.681,2.471c-1.529,4.305-4.001,11.1-7.921,21.669      c-0.567,1.528-0.919,2.484-0.953,2.586c-0.686,2.064,0.289,4.314,2.265,5.225c2.088,0.962,9.464,3.163,10.921,3.594      c0.404,0.12,0.812,0.177,1.213,0.177c1.789,0,3.449-1.132,4.047-2.911l15.036-44.747      C418.866,286.864,417.725,284.484,415.555,283.687z M399.046,332.442c0,0-8.432-2.495-10.346-3.378      c0.189-0.568,10.846-29.015,11.308-31.666l-3.909,2.596c-0.766-0.255-7.001-4.718-6.931-4.926c0,0,11.768-11.321,12.448-11.662      c4.17,1.239,12.465,4.288,12.465,4.288L399.046,332.442z"/>
				<path style="fill:#000E3F;" d="M372.505,228.451c-0.229-4.008-3.377-6.783-6.75-7.104c-5.768-0.548-9.217,6.296-6.015,10.828      C363.719,237.808,372.907,235.504,372.505,228.451z"/>
				<path style="fill:#000E3F;" d="M421.449,239.87c-2.893-1.764-7.076-1.427-9.66,1.646c-4.547,5.407,1.431,12.755,7.992,10.628      C425.059,250.433,426.397,242.886,421.449,239.87z"/>
			</g>
		</g>
	</g>
	<g>
		<g>
			<g>
				<path style="fill:#FFCF00;" d="M259.076,433.761c-0.255,0.51-0.662,0.917-1.197,1.121l-60.462,22.489      c-0.255,0.076-0.509,0.127-0.739,0.127c-0.306,0-0.611-0.077-0.891-0.204c-0.535-0.229-0.917-0.662-1.121-1.197l-15.434-41.488      c-0.408-1.095,0.153-2.317,1.273-2.75l60.437-22.463c0.255-0.102,0.509-0.153,0.764-0.153c0.866,0,1.681,0.535,1.987,1.401      l15.434,41.488C259.331,432.666,259.306,433.252,259.076,433.761z"/>
				<path style="fill:#FFCF00;" d="M239.139,364.293l-2.083-5.604c-3.619-9.733-12.656-16.127-23.001-16.289l-0.64-0.009      c-0.583,0-1.166,0.037-1.749,0.08c-0.327-0.3-0.671-0.566-0.99-0.877c-14.178-13.618-24.293-37.18-30.265-54.453l5.663-2.106      c0.712-0.265,1.39-0.618,1.999-1.022c3.655-2.422,5.281-7.102,3.693-11.371c-0.934-2.512-2.77-4.386-5.028-5.42      c-2.249-1.012-4.898-1.191-7.388-0.265l-3.8,1.414c3.289-1.955,6.442-4.129,9.382-6.552c2.14-1.732,4.133-3.587,6.032-5.559      c5.867-6.095,10.068-12.642,12.984-19.351c0.286,1.634,0.754,3.276,1.477,4.907c3.76,8.47,12.492,14.385,21.236,14.385      c2.938,0,5.776-0.653,8.419-1.932c9.948-4.717,11.681-14.378,10.141-21.22c-1.142-5.081-4.006-8.495-7.124-8.495      c-0.992,0-1.965,0.345-2.813,1.001c-2.043,1.587-2.419,4.541-0.836,6.584c0.056,0.072,0.114,0.137,0.174,0.199      c0.343,0.489,2.101,3.253,0.987,6.964c-1.527,5.338-6.221,5.915-8.167,5.915h-0.002c-5.013,0-10.769-3.373-11.561-9.626      c-0.695-5.359,3.232-7.645,10.861-11.574c5.122-2.653,10.931-5.66,16.15-10.803c7.639-7.479,12.17-18.469,12.124-29.402      c-0.044-9.86-3.712-18.794-10.324-25.153c-5.602-5.421-12.346-8.287-19.503-8.287c-10.018,0-19.991,5.692-24.82,14.165      c-0.071,0.125-0.119,0.251-0.187,0.376c-1.531-3.509-2.641-5.507-2.682-5.492L90.41,199.243      c-16.01,5.954-27.284,10.147-27.284,10.147c0.461,2.031,0.992,4.045,1.567,6.046c-2.805-1.091-6.006-1.694-9.476-1.694      c-12.606,0-26.903,8.13-28.506,25.971c-0.85,9.14,2.21,18.3,8.621,25.793c7.108,8.308,17.721,13.667,28.383,14.336      c0.941,0.063,1.87,0.09,2.785,0.09c6.181,0,11.663-1.309,16.558-2.477c3.452-0.832,6.712-1.62,9.346-1.62      c2.954,0,4.863,0.987,6.39,3.301c2.212,3.332,2.317,7.585,0.283,11.382c-1.865,3.475-5.15,5.722-8.366,5.722      c-1.513,0-3.003-0.473-4.453-1.422c-3.248-2.069-3.723-5.324-3.781-5.91c0.005-0.083,0.005-0.167,0-0.25      c-0.125-2.495-2.185-4.451-4.687-4.451c-0.039,0-0.213,0.005-0.25,0.007c-2.836,0.155-4.608,2.412-4.518,5.75      c0.185,6.767,7.342,16.595,18.138,16.595c1.731,0,3.515-0.253,5.285-0.741c10.896-2.912,15.935-14.058,15.279-23.562      c-0.261-3.773-1.335-7.155-3.062-9.986c3.206,1.585,6.536,2.953,10.019,4.009c10.098,3.069,20.762,3.474,31.084,1.678      l-2.633,0.979c-5.003,1.861-7.545,7.413-5.684,12.416c0.926,2.49,2.784,4.356,5.019,5.398c2.257,1.034,4.875,1.199,7.388,0.264      l5.664-2.106c6.924,17.348,14.841,42.509,12.505,62.291c-0.644,0.474-1.27,0.979-1.873,1.518      c-7.606,6.79-10.323,17.788-6.763,27.366l2.083,5.602c0.197,0.531,0.598,0.961,1.112,1.198c0.282,0.13,0.586,0.195,0.89,0.195      c0.252,0,0.503-0.046,0.744-0.134l69.666-25.906C238.986,366.627,239.549,365.399,239.139,364.293z M208.588,180.997      c0.081-0.19,0.132-0.387,0.155-0.586c0.371-1.031,2.9-7.129,11.531-10.646c1.754-0.725,3.554-1.091,5.356-1.091      c3.57,0,6.937,1.453,9.476,4.091c3.125,3.248,4.731,8.018,4.522,13.47c-0.074,3.162-0.579,6.017-1.543,8.718      c-3.16,8.794-10.66,13.31-17.911,17.677c-4.383,2.639-8.523,5.132-11.489,8.452c-0.051,0.057-0.088,0.119-0.139,0.176      c2.316-13.622,0.621-26.995-2.086-37.808C207.434,182.902,208.215,182.068,208.588,180.997z M94.771,263.448      c-0.992-0.127-2.016-0.19-3.132-0.19c-3.528,0-7.207,0.63-11.1,1.3c-4.057,0.698-8.25,1.418-12.418,1.418      c-4.849,0-9.001-1.012-12.689-3.095c-2.497-1.416-4.745-3.244-6.888-5.616c-4.483-4.807-6.288-10.562-4.953-15.789      c1.128-4.418,4.358-7.808,8.871-9.304c2.576-0.866,5.139-1.307,7.615-1.307c4.636,0,7.509,1.513,8.09,1.851      c0.114,0.104,0.239,0.195,0.373,0.271c0.735,0.424,1.561,0.649,2.393,0.649c0.259,0,0.511-0.044,0.763-0.085      c5.665,11.42,13.57,21.918,23.406,29.953C94.991,263.488,94.884,263.462,94.771,263.448z"/>
				<path style="fill:#FFCF00;" d="M63.066,209.16c3.402-1.265,14.765-5.491,29.56-10.968      c39.708-14.716,103.964-38.562,104.078-38.731c-0.008-0.022,0.395-0.299,0.44-0.315c-5.637-6.788-25.744-17.838-50.105-18.144      c1.119-3.049,1.203-6.496-0.012-9.766c-1.348-3.624-4.039-6.369-7.304-7.864c-3.286-1.486-7.123-1.73-10.747-0.382l-1.89,0.703      c-0.183-0.97-0.464-1.928-0.811-2.862c-2.423-6.515-8.134-10.845-14.554-11.774c-0.436-1.989-1.033-4.07-1.819-6.183      c-4.077-10.962-11.267-18.387-16.092-16.593c-0.578,0.215-1.084,0.555-1.549,1.006c-3.341,3.268-3.358,12.411,0.231,22.062      c0.786,2.113,1.672,4.087,2.664,5.869c-4.253,4.897-5.769,11.915-3.346,18.43c0.356,0.956,0.761,1.843,1.256,2.697l-1.89,0.703      c-7.249,2.696-10.95,10.78-8.255,18.029c1.232,3.313,3.58,5.882,6.494,7.456C74.937,175.13,65.273,191.886,63.066,209.16z"/>
			</g>
			<g style="opacity:0.75;">
				<path style="fill:#FFFFFF;" d="M249.448,179.531c0.116,0.865-0.492,1.66-1.357,1.776c-2.247,0.299-2.614-4.216-6.625-9.61      c-0.495-0.627-0.973-1.255-1.424-1.9c-0.349-0.548-2.301-2.613-4.996-4.648c-7.603-5.501-19.68-3.382-18.196-3.527      c-0.815,0.08-1.541-0.516-1.62-1.331C214.783,155.748,245.399,149.184,249.448,179.531z"/>
				<path style="fill:#FFFFFF;" d="M36.75,258.632c0.478,0.73,1.457,0.935,2.188,0.457c1.896-1.241-0.776-4.899-1.264-11.604      c-0.035-0.798-0.083-1.586-0.164-2.369c-0.093-0.642,0.035-3.481,0.745-6.782c2.161-9.132,12.688-15.419,11.47-14.56      c0.669-0.472,0.829-1.397,0.357-2.066C47.451,217.978,19.986,233.014,36.75,258.632z"/>
				<path style="fill:#FFFFFF;" d="M174.416,156.835c1.656,1.095,0.568,3.693-1.379,3.271c-3.832-0.832-7.736-1.947-11.651-2.651      c-27.413-5.494-36.816-0.38-36.831-4.525C124.54,148.538,154.121,143.421,174.416,156.835z"/>
				<path style="fill:#FFFFFF;" d="M195.901,183.544c6.464,14.039,8.502,35.608-0.482,52.717      c-2.807,5.512-7.134,10.105-11.857,13.798c-0.778,0.608-1.901,0.471-2.509-0.307c-2.507-3.206,10.034-9.127,12.857-31.898      c2.256-16.628-1.41-34.551-1.202-33.324C192.381,182.599,195.081,181.765,195.901,183.544z"/>
			</g>
			<path style="fill:#FF8EDE;" d="M297.686,417.487l-35.223-51.293c-3.387-4.966-9.703-6.953-15.332-4.864l-7.997,2.98     l-73.655,27.379l-7.997,2.98c-1.834,0.687-3.464,1.757-4.788,3.081c-2.674,2.751-4.1,6.622-3.667,10.646l9.933,89.038     l154.211-57.355L297.686,417.487z M259.076,433.761c-0.255,0.51-0.662,0.917-1.197,1.121l-60.462,22.489     c-0.255,0.076-0.509,0.127-0.739,0.127c-0.306,0-0.611-0.077-0.891-0.204c-0.535-0.229-0.917-0.662-1.121-1.197l-15.434-41.488     c-0.408-1.095,0.153-2.317,1.273-2.75l60.437-22.463c0.255-0.102,0.509-0.153,0.764-0.153c0.866,0,1.681,0.535,1.987,1.401     l15.434,41.488C259.331,432.666,259.306,433.252,259.076,433.761z"/>
			<g style="opacity:0.5;">
				<path style="fill:#FC09B2;" d="M313.165,440.084l-154.207,57.348l-9.931-89.047c-0.431-4.016,0.99-7.886,3.666-10.628      c0.632,0.474,1.241,0.956,1.837,1.469c7.682,6.635,12.075,16.341,19.15,23.657c4.242,4.396,9.228,7.73,14.678,10.133      l8.311,22.347l60.459-22.484l-0.968-2.602c11.831-3.919,23.508-8.388,35.548-11.474c1.942-0.494,3.954-0.939,5.968-1.308      L313.165,440.084z"/>
			</g>
			<path style="opacity:0.5;fill:#FFFFFF;" d="M276.429,410.002c0.784,2.843-1.649,4.714-3.668,2.747     c-8.118-7.986-18.213-25.528-21.445-37.438c-0.428-1.577,0.216-3.054,1.439-3.299     C256.505,371.259,272.192,394.642,276.429,410.002z"/>
			<g style="opacity:0.5;">
				<path style="fill:#FD8A02;" d="M223.709,220.989c0.397,0.708,1.073,1.018,2.006,1.152c-7.292,3.755-12.869,6.658-11.954,13.722      c1.588,12.536,20.424,16.171,23.901,4.025c1.601-5.327-1.602-9.269-1.524-9.058c-0.871-1.12-0.664-2.721,0.455-3.592      c5.546-4.281,13.549,17.525-2.429,25.098c-16.924,8.192-37.67-14.596-23.897-29.824c7.552-8.449,24.442-11.844,29.827-26.839      c6.72,4.986-3.406,14.206-10.731,19.31C227.719,216.102,222.288,218.39,223.709,220.989z"/>
				<path style="fill:#FD8A02;" d="M83.324,273.197c0.162,0.796-0.148,1.472-0.766,2.183c7.974-1.923,14.092-3.369,18.015,2.577      c6.989,10.528-4.895,25.587-15.463,18.664c-4.693-2.987-4.843-8.064-4.765-7.852c-0.073-1.417-1.275-2.493-2.692-2.421      c-6.996,0.383,1.195,22.12,18.238,17.412c18.164-4.857,18.979-35.664-1.397-38.192c-11.237-1.461-26.241,7.005-40.116-0.827      c-1.829,8.165,11.86,8.529,20.741,7.605C77.094,272.118,82.701,270.301,83.324,273.197z"/>
				<path style="fill:#FD8A02;" d="M60.792,209.853c0.045-0.017,0.531-0.071,0.539-0.048c0.197,0.053,64.42-23.881,104.095-38.687      c-2.622-0.923-5.893-0.872-8.739-0.699c-9.437,0.624-18.927,0.357-28.304-0.763c-8.155-0.967-16.578-2.719-23.02-7.79      c-2.53-1.971-4.646-4.6-6.083-7.508c-0.751,0.431-1.516,0.893-2.25,1.368C71.561,171.906,60.596,199.523,60.792,209.853z"/>
				<path style="fill:#FD8A02;" d="M184.932,261.818c-18.075,14.897-43.594,21.35-66.252,14.464      c-22.195-6.73-38.906-24.916-48.368-45.595c-3.116-6.814-5.524-13.968-7.186-21.297c0,0,11.274-4.193,27.284-10.147      C101.923,229.385,128.43,272.757,184.932,261.818z"/>
				<path style="fill:#FD8A02;" d="M188.073,284.012c-0.609,0.404-1.288,0.757-1.999,1.022l-32.22,11.982      c-2.513,0.934-5.131,0.769-7.388-0.264c-2.235-1.042-4.093-2.907-5.019-5.398c-1.861-5.003,0.681-10.555,5.685-12.416      l11.007-4.093C158.795,279.335,163.037,288.767,188.073,284.012z"/>
				<path style="fill:#FD8A02;" d="M213.998,344.534c-2.788-0.077-5.624,0.396-8.381,1.421l-26.75,9.948      c-2.757,1.025-5.205,2.543-7.295,4.409c3.631-20.182-4.769-47.128-12.048-65.404l10.184-3.787      c4.076,20.556,15.052,57.352,40.968,50.473C211.748,342.637,212.87,343.612,213.998,344.534z"/>
				<path style="fill:#FD8A02;" d="M204.696,377.102l-37.223,13.843l-2.084-5.604c-3.374-9.072-0.62-18.955,6.183-25.029      c2.09-1.866,4.538-3.383,7.295-4.409l5.248-1.951C185.3,361.358,189.552,373.95,204.696,377.102z"/>
				<path style="fill:#FD8A02;" d="M115.737,146.744c-9.84,3.76-18.751,9.201-26.324,15.789c-2.914-1.574-5.262-4.143-6.494-7.456      c-2.696-7.249,1.005-15.333,8.255-18.029l12.118-4.507c0.821,4.454,3.175,9.627,9.101,12.765      C113.402,145.841,114.514,146.313,115.737,146.744z"/>
				<path style="fill:#FD8A02;" d="M112.164,129.241l-19.101,7.103c-0.495-0.854-0.9-1.741-1.256-2.697      c-3.448-9.272,1.056-19.553,10.098-23.346C102.437,116.154,104.622,124.478,112.164,129.241z"/>
				<path style="fill:#FD8A02;" d="M104.124,109.527c-0.506,0.137-1.003,0.297-1.492,0.479c-0.245,0.091-0.489,0.182-0.726,0.295      c-2.671,1.12-4.97,2.835-6.752,4.916c-0.992-1.783-1.878-3.757-2.664-5.869c-3.589-9.65-3.572-18.794-0.231-22.061      C94.388,93.76,98.126,102.52,104.124,109.527z"/>
				<path style="fill:#FD8A02;" d="M256.161,430.276l0.968,2.602l-60.459,22.484l-8.311-22.347      c13.188,5.853,29.113,6.41,43.592,3.759C240.193,435.253,248.204,432.907,256.161,430.276z"/>
			</g>
			<g>
				<path style="fill:#FC09B2;" d="M104.116,234.91c2.605-6.588,11.817-10.273,18.502-9.141c6.617,1.12,8.888,8.238,1.482,13.735      C113.955,247.033,100.737,243.456,104.116,234.91z"/>
				<path style="fill:#FC09B2;" d="M182.95,205.592c-6.277-3.285-15.658-0.055-19.979,5.169c-4.277,5.172-1.345,12.044,7.853,11.366      C183.423,221.198,191.092,209.854,182.95,205.592z"/>
				<path style="fill:#FC09B2;" d="M154.943,509.251l168.975-62.841c5.018-1.866,7.574-7.447,5.707-12.466l0,0      c-1.866-5.018-7.447-7.574-12.466-5.707l-168.976,62.841c-5.018,1.866-7.574,7.447-5.707,12.466l0,0      C144.344,508.562,149.925,511.117,154.943,509.251z"/>
			</g>
		</g>
		<g>
			<path style="fill:#000E3F;" d="M151.625,203.73c-0.433-1.095-1.655-1.63-2.751-1.222c-1.095,0.433-1.655,1.655-1.248,2.75     c1.808,4.737,1.044,11.079-3.973,13.524c-2.547,1.248-4.89,0.764-6.393,0.153c-2.929-1.223-5.501-4.075-6.596-7.31     c-0.382-1.121-1.605-1.706-2.725-1.324c-1.121,0.382-1.706,1.579-1.324,2.7c1.503,4.406,4.941,8.175,9.016,9.882     c1.554,0.637,3.158,0.968,4.737,0.968c1.757,0,3.489-0.408,5.17-1.223C152.822,219.063,154.096,210.25,151.625,203.73z"/>
			<path style="fill:#000E3F;" d="M167.747,200.14c1.019-1.528,1.248-3.311,0.866-4.966l4.381-3.056     c0.968-0.688,1.197-2.012,0.509-2.98c-0.662-0.968-1.987-1.197-2.98-0.535l-2.725,1.91l1.248-2.929     c0.458-1.07-0.051-2.318-1.146-2.776c-1.095-0.458-2.343,0.026-2.802,1.121l-1.757,4.177c-0.509-0.077-1.07-0.077-1.63,0     c-3.184,0.407-6.061,3.132-6.138,6.927C155.42,203.73,164.181,205.59,167.747,200.14z"/>
			<path style="fill:#000E3F;" d="M110.061,209.308c-0.458,0.306-0.866,0.662-1.222,1.044l-4.049-1.987     c-1.07-0.535-2.343-0.102-2.878,0.968c-0.509,1.044-0.076,2.343,0.993,2.852l2.878,1.426l-3.362,0.331     c-1.172,0.127-2.037,1.172-1.91,2.343c0.102,1.095,1.044,1.91,2.114,1.91h0.204l5.348-0.535c0.764,1.477,2.088,2.674,3.871,3.184     c6.291,1.808,11.69-5.349,7.208-10.315C116.708,207.729,112.76,207.551,110.061,209.308z"/>
			<path style="fill:#000E3F;" d="M261.139,431.393l-15.434-41.488c-0.637-1.732-2.267-2.802-3.999-2.802     c-0.509,0-1.019,0.102-1.503,0.28l-60.462,22.489c-1.044,0.382-1.91,1.197-2.394,2.216c-0.458,1.044-0.509,2.216-0.102,3.26     l15.408,41.513c0.662,1.706,2.292,2.776,4.024,2.776c0.484,0,0.993-0.102,1.477-0.28l60.462-22.489     c1.07-0.382,1.91-1.171,2.394-2.216C261.47,433.634,261.521,432.462,261.139,431.393z M196.679,455.358l-15.434-41.488     l60.462-22.489l15.434,41.488L196.679,455.358z"/>
			<path style="fill:#000E3F;" d="M201.299,424.511l32.164-11.961c1.105-0.413,1.668-1.64,1.258-2.745     c-0.41-1.103-1.64-1.659-2.745-1.258l-32.164,11.961c-1.105,0.412-1.668,1.64-1.258,2.746c0.32,0.859,1.135,1.392,2.002,1.392     C200.803,424.646,201.054,424.602,201.299,424.511z"/>
			<path style="fill:#000E3F;" d="M240.801,420.849l-39.629,14.737c-1.105,0.412-1.668,1.64-1.258,2.745     c0.32,0.86,1.135,1.392,2.002,1.392c0.248,0,0.498-0.044,0.744-0.134l39.628-14.737c1.105-0.412,1.668-1.64,1.258-2.745     C243.133,421.004,241.908,420.445,240.801,420.849z"/>
			<path style="fill:#000E3F;" d="M331.636,433.201c-1.121-2.954-3.285-5.323-6.163-6.622c-2.878-1.324-6.087-1.452-9.067-0.357     l-8.099,3.005l-44.06-64.231c-3.948-5.781-11.308-8.124-17.879-5.679l-5.96,2.216l-1.35-3.591     c-3.922-10.569-13.727-17.497-24.984-17.675h-0.662c-0.331,0-0.662,0-0.993,0.025c-0.102-0.076-0.178-0.153-0.255-0.229     c-13.295-12.785-23.023-34.79-29.009-51.676l3.667-1.35c0.84-0.306,1.655-0.739,2.419-1.248c3.387-2.241,5.272-5.909,5.272-9.78     c0-1.375-0.229-2.776-0.739-4.126c-1.121-2.955-3.285-5.298-6.163-6.622c-0.84-0.356-1.681-0.637-2.547-0.815     c0.408-0.306,0.815-0.637,1.222-0.968c2.114-1.732,4.151-3.591,6.214-5.73c4.61-4.788,8.226-9.831,11.028-15.001     c4.075,9.169,13.6,15.587,23.125,15.587c3.26,0,6.418-0.713,9.372-2.165c11.053-5.221,12.989-15.969,11.283-23.584     c-1.401-6.189-5.017-10.162-9.22-10.162c-1.452,0-2.878,0.484-4.1,1.426c-3.005,2.343-3.54,6.622-1.222,9.601     c0.051,0.077,0.102,0.153,0.178,0.204c0.306,0.484,1.401,2.471,0.637,4.992c-1.121,3.871-4.33,4.432-6.138,4.432     c-4.151,0-8.838-2.904-9.449-7.743c-0.458-3.642,1.63-5.272,9.678-9.398c5.043-2.598,11.257-5.833,16.707-11.206     c8.175-7.997,12.811-19.254,12.76-30.944c-0.051-10.442-3.948-19.916-10.977-26.665c-5.985-5.807-13.244-8.888-20.986-8.888     c-9.525,0-19.05,4.839-24.704,12.276c-0.688-1.376-1.095-2.165-1.146-2.216c-0.178-0.28-0.408-0.484-0.662-0.637     c-6.061-7.157-25.392-17.675-48.874-18.719c0.178-0.917,0.255-1.859,0.255-2.801c0-1.936-0.331-3.846-1.019-5.654     c-1.503-4.049-4.482-7.258-8.43-9.067c-3.846-1.732-8.099-1.936-12.072-0.535c-0.051-0.255-0.153-0.535-0.255-0.79     c-2.445-6.571-8.048-11.41-14.797-12.862c-0.433-1.732-0.942-3.438-1.579-5.094c-2.063-5.578-4.992-10.493-8.226-13.829     c-3.667-3.769-7.437-5.221-10.595-4.024c-0.84,0.306-1.605,0.79-2.318,1.477c-4.075,3.999-4.202,13.779-0.28,24.322     c0.662,1.757,1.375,3.387,2.139,4.89c-4.177,5.552-5.246,12.836-2.802,19.407c0.102,0.28,0.204,0.535,0.331,0.79     c-8.175,3.184-12.301,12.403-9.22,20.655c1.019,2.751,2.751,5.145,5.017,6.953c-13.804,12.811-22.871,29.467-24.985,46.124     c-0.051,0.28-0.025,0.586,0.051,0.84c0,0.051,0.025,0.077,0.025,0.127c0.178,0.815,0.382,1.605,0.586,2.419     c-2.012-0.458-4.151-0.687-6.393-0.687c-13.549,0-28.932,8.736-30.638,27.939c-0.917,9.703,2.343,19.432,9.118,27.353     c7.59,8.863,18.49,14.364,29.874,15.078c0.942,0.076,1.936,0.102,2.929,0.102c6.444,0,12.047-1.35,17.013-2.521     c3.362-0.815,6.494-1.579,8.888-1.579c2.267,0,3.464,0.611,4.61,2.343c1.757,2.674,1.834,6.113,0.178,9.194     c-1.503,2.802-4.049,4.61-6.494,4.61c-1.095,0-2.19-0.357-3.26-1.07c-2.267-1.452-2.751-3.667-2.827-4.228v-0.28     c-0.204-3.617-3.184-6.469-6.826-6.469h-0.357c-3.362,0.204-6.698,2.725-6.545,7.946c0.204,7.793,8.023,18.669,20.273,18.669     c1.91,0,3.897-0.255,5.858-0.815c11.996-3.209,17.548-15.383,16.835-25.774c-0.127-1.961-0.484-3.846-1.019-5.603     c1.732,0.688,3.464,1.299,5.221,1.834c6.342,1.936,12.963,2.878,19.636,2.878c1.07,0,2.139-0.025,3.209-0.076     c-2.19,3.081-2.878,7.157-1.452,10.977c1.07,2.903,3.26,5.246,6.138,6.596c1.554,0.713,3.209,1.07,4.89,1.07     c1.375,0,2.776-0.255,4.126-0.764l3.693-1.375c6.393,16.478,13.575,39.884,11.715,58.424c-0.433,0.331-0.866,0.688-1.273,1.07     c-8.277,7.36-11.232,19.305-7.36,29.696l1.35,3.616l-5.985,2.216c-2.088,0.764-3.948,1.987-5.578,3.617     c-3.209,3.26-4.763,7.768-4.253,12.352l8.634,77.449l-8.099,3.005c-6.112,2.267-9.245,9.092-6.978,15.205     c1.095,2.954,3.285,5.323,6.163,6.647c1.579,0.713,3.234,1.07,4.915,1.07c1.401,0,2.802-0.255,4.126-0.739l168.983-62.856     c2.98-1.095,5.323-3.285,6.647-6.163C332.604,439.364,332.731,436.155,331.636,433.201z M225.178,152.514     c6.036,0,12.378,2.216,18.032,7.666c14.186,13.651,12.072,37.922-1.808,51.497c-5.017,4.941-10.722,7.895-15.689,10.468     c-7.284,3.744-12.862,6.648-11.945,13.727c0.917,7.208,7.539,11.486,13.677,11.486c4.508,0,8.736-2.317,10.213-7.462     c1.554-5.196-1.426-9.067-1.528-9.067c-0.357-0.458-0.535-1.019-0.535-1.579c0-0.764,0.331-1.503,0.993-2.012     c0.484-0.382,0.993-0.56,1.503-0.56c5.272,0,10.646,18.744-3.922,25.647c-2.47,1.197-5.017,1.732-7.513,1.732     c-9.525,0-18.516-7.768-20.477-16.758c2.165-5.042,3.617-10.162,4.533-15.256c7.717-8.099,24.093-11.665,29.391-26.36     c0.968-2.725,1.579-5.807,1.655-9.398c0.458-12.123-7.309-19.738-16.122-19.738c-2.037,0-4.126,0.407-6.189,1.248     c-7.462,3.031-10.824,7.92-12.123,10.544c-1.579-5.349-3.336-9.907-4.788-13.295     C206.815,158.066,215.627,152.514,225.178,152.514z M208.929,184.273c0.688-0.662,1.222-1.452,1.579-2.343     c0.153-0.331,0.255-0.662,0.331-1.019c0.458-1.146,2.878-6.163,10.238-9.169c1.503-0.611,3.031-0.942,4.559-0.942     c2.98,0,5.807,1.222,7.921,3.438c2.725,2.827,4.126,7.055,3.948,11.894c-0.076,2.98-0.535,5.628-1.426,8.099     c-2.903,8.073-10.085,12.403-17.013,16.58c-2.649,1.604-5.221,3.158-7.513,4.89C212.597,204.393,211.145,193.492,208.929,184.273     z M110.388,111.097c3.215,0.279,6.355,1.473,8.867,3.494c2.241,1.809,3.999,4.203,5.017,6.978c0.102,0.28,0.178,0.535,0.28,0.79     l-30.435,11.308c-0.102-0.229-0.204-0.484-0.306-0.764c-2.063-5.552-0.942-11.792,2.954-16.3c1.63-1.885,3.667-3.387,6.062-4.381     C105.209,111.234,107.822,110.874,110.388,111.097z M93.761,88.817c0.255-0.254,0.509-0.433,0.79-0.535     c0.229-0.102,0.509-0.127,0.79-0.127c1.401,0,3.311,1.121,5.272,3.133c2.827,2.903,5.425,7.31,7.284,12.327     c0.382,1.019,0.713,2.063,1.019,3.107c-1.808,0-3.617,0.255-5.348,0.739c-0.56,0.153-1.121,0.331-1.732,0.56     c-0.28,0.102-0.56,0.229-0.764,0.306c-1.579,0.662-3.082,1.554-4.457,2.598c-0.306,0.229-0.586,0.458-0.866,0.713     c-0.458-0.968-0.866-1.987-1.248-3.031C90.985,99.183,91.367,91.135,93.761,88.817z M84.923,154.322     c-2.292-6.138,0.84-12.989,7.004-15.281l1.757-0.662l34.459-12.811l1.579-0.586c1.35-0.484,2.751-0.739,4.151-0.739     c1.706,0,3.387,0.357,4.966,1.07c2.878,1.324,5.068,3.693,6.189,6.673c0.815,2.19,0.968,4.584,0.433,6.876     c-4.724,0-9.434,0.52-14.084,1.324c-5.603,0.968-11.13,2.521-16.402,4.559c-5.136,1.96-10.081,4.392-14.772,7.258     c-3.173,1.939-6.254,4.05-9.143,6.393c-0.637,0.484-1.248,0.993-1.859,1.502C87.267,158.524,85.764,156.588,84.923,154.322z      M90.807,164.153c7.615-6.622,16.249-11.818,25.698-15.409c5.043-1.961,10.289-3.413,15.638-4.355     c0.815-0.153,1.655-0.306,2.521-0.433c3.693-0.535,7.462-0.815,11.206-0.815h1.172c21.699,0.28,39.349,9.194,46.378,15.307     c-10.875,4.1-56.693,21.113-101.543,37.744c-11.486,4.253-20.884,7.743-26.131,9.703     C68.649,190.64,77.639,175.614,90.807,164.153z M95.9,303.771c-1.681,0.458-3.26,0.662-4.737,0.662     c-13.778,0-19.814-17.751-13.498-18.083h0.127c1.35,0,2.47,1.044,2.547,2.42c0,0,0,0.025,0,0.076     c0,0.688,0.535,5.068,4.763,7.768c1.859,1.222,3.769,1.757,5.603,1.757c8.583,0,15.638-11.741,9.856-20.425     c-2.088-3.184-4.839-4.253-8.15-4.253c-2.878,0-6.163,0.79-9.856,1.681c-4.737,1.146-10.111,2.42-16.045,2.42     c-0.891,0-1.757-0.026-2.649-0.077c-19.381-1.223-36.853-18.21-35.019-37.795c1.477-16.504,14.67-24.042,26.385-24.042     c2.7,0,5.323,0.407,7.717,1.197c1.324,4.482,2.929,8.863,4.814,13.091c-1.605-0.662-4.253-1.426-7.691-1.426     c-2.394,0-5.196,0.357-8.277,1.401c-11.257,3.744-15.001,17.675-4.814,28.576c2.419,2.674,4.89,4.61,7.411,6.011     c4.508,2.572,9.143,3.387,13.727,3.387c8.354,0,16.529-2.725,23.533-2.725c0.866,0,1.732,0.051,2.572,0.153     c4.1,3.285,8.43,6.112,12.938,8.379C112.862,284.134,108.66,300.358,95.9,303.771z M70.381,235.744     c5.068,9.856,11.486,18.465,18.847,25.443c-2.929,0.204-5.934,0.739-9.041,1.273c-3.973,0.688-8.073,1.375-12.072,1.375     c-4.533,0-8.226-0.891-11.639-2.827c-2.292-1.273-4.355-2.98-6.316-5.144c-4.024-4.33-5.654-9.347-4.508-13.855     c0.942-3.693,3.667-6.545,7.462-7.819c2.394-0.79,4.712-1.197,6.953-1.197c3.744,0,6.163,1.121,6.851,1.477     c0.229,0.179,0.458,0.331,0.713,0.458C68.496,235.388,69.439,235.668,70.381,235.744z M119.306,274.227     c-3.133-0.942-6.189-2.139-9.169-3.591c-4.966-2.394-9.678-5.476-14.109-9.118c-8.43-6.978-15.739-16.096-21.368-26.843     c-0.662-1.273-1.324-2.547-1.91-3.871c-0.178-0.331-0.331-0.662-0.484-0.993c-1.503-3.234-2.827-6.571-3.973-9.984     c-0.662-1.961-1.273-3.947-1.808-5.96c-0.306-1.044-0.586-2.088-0.84-3.133l130.857-48.67c0.331,0.687,0.789,1.604,1.299,2.75     c3.05,6.862,5.488,14.064,7.131,21.393c2.482,11.075,3.532,22.797,1.681,34.051c-0.917,5.833-2.547,11.359-4.89,16.504     c-2.98,6.571-7.08,12.581-12.301,18.006c-10.666,11.089-25.292,18.802-40.495,21.215c-0.051,0.025-0.127,0.025-0.178,0.025     C138.84,277.64,128.729,277.105,119.306,274.227z M156.695,293.664c-1.198,0.447-2.396,0.896-3.593,1.346     c-3.773,1.418-8.24-0.587-9.653-4.406c-1.422-3.845,0.577-8.246,4.431-9.653c2.286-0.834,4.715-1.236,7.106-1.834     c6.367-1.528,12.581-3.897,18.465-7.055c1.095-0.561,2.19-1.172,3.261-1.834c2.583-1.597,6.292-2.351,9.143-1.069     c1.808,0.841,3.209,2.343,3.897,4.228c1.222,3.286,0.051,6.927-2.853,8.838c-2.69,1.75-6.188,2.527-9.194,3.642     c0,0-17.013,6.316-17.013,6.316C159.359,292.673,158.026,293.167,156.695,293.664z M162.296,296.155l16.784-6.24     c5.807,16.351,15.128,37.515,28.041,51.115c-1.019,0.255-2.012,0.56-3.005,0.917l-26.742,9.958     c-0.993,0.357-1.936,0.79-2.878,1.248C175.362,334.434,168.485,312.073,162.296,296.155z M165.378,385.346     c-3.107-8.353-0.993-17.395,4.661-23.533c0.484-0.535,0.993-1.019,1.528-1.503c2.088-1.859,4.533-3.387,7.309-4.406l26.742-9.958     c2.572-0.942,5.196-1.426,7.793-1.426c0.204,0,0.382,0,0.586,0.025c0.713,0,1.426,0.051,2.139,0.128     c8.303,0.917,15.79,6.367,18.923,14.772l1.324,3.591l-69.656,25.902L165.378,385.346z M151.141,408.166     c-0.357-3.311,0.764-6.545,3.056-8.888c1.172-1.172,2.521-2.063,4.024-2.624l6.52-2.419l76.583-28.499l6.545-2.419     c1.248-0.458,2.547-0.687,3.82-0.687c3.54,0,6.927,1.706,9.016,4.763l43.475,63.365l-144.533,53.789L151.141,408.166z      M327.408,440.46c-0.84,1.833-2.343,3.234-4.228,3.947l-168.983,62.831c-1.885,0.713-3.948,0.637-5.781-0.203     c-1.834-0.84-3.234-2.343-3.948-4.228c-1.452-3.922,0.56-8.277,4.457-9.729l7.106-2.649l4.126-1.528l146.545-54.477l4.1-1.528     l7.106-2.649c0.866-0.331,1.757-0.484,2.649-0.484c1.07,0,2.139,0.229,3.133,0.688c1.834,0.84,3.234,2.343,3.922,4.228     C328.325,436.588,328.249,438.626,327.408,440.46z"/>
		</g>
	</g>
	<g>
	</g>
	<g>
		<path style="fill:#FD8A02;" d="M31.67,55.898c-1.866,2.183-5.721,4.892-9.087,13.834c-0.302,0.801-0.618,1.61-1.041,2.35    c-0.588,1.031-1.842,1.096-2.536,0.105c-1.57-2.24-1.659-5.8-6.894-11.953c-3.073-3.611-6.064-4.748-3.493-6.932    c6.41-5.446,8.612-13.611,9.779-15.771c0.504-0.932,1.7-1.005,2.355-0.184c0.702,0.88,1.064,1.948,1.486,2.979    c3.122,7.634,7.427,11.123,9.184,12.82C31.865,53.57,32.314,55.146,31.67,55.898z"/>
		<path style="fill:#FD8A02;" d="M130.1,44.029c-2.15,2.513-6.585,5.621-10.466,15.933c-0.348,0.923-0.712,1.854-1.199,2.707    c-0.677,1.187-2.121,1.262-2.921,0.121c-1.811-2.582-1.911-6.68-7.941-13.767c-3.539-4.159-6.984-5.468-4.023-7.984    c7.383-6.272,9.919-15.677,11.264-18.165c0.58-1.074,1.958-1.158,2.712-0.212c0.808,1.014,1.226,2.243,1.712,3.431    c3.603,8.809,8.577,12.835,10.578,14.766C130.325,41.348,130.842,43.164,130.1,44.029z"/>
		<path style="fill:#FD8A02;" d="M29.575,155.718c-0.448,0.524-0.903,1.049-1.403,1.522c-7.049,6.669-8.707,14.395-10.262,17.118    c-0.677,1.187-2.121,1.262-2.921,0.121c-0.558-0.795-0.98-1.715-1.316-2.634C8.432,157.513-1.402,156.49,3.027,152.727    c7.382-6.272,9.919-15.677,11.263-18.165c0.58-1.074,1.958-1.158,2.712-0.212c0.808,1.014,1.226,2.243,1.712,3.431    c3.603,8.809,8.578,12.834,10.578,14.765C29.8,153.036,30.318,154.85,29.575,155.718z"/>
		<path style="fill:#FD8A02;" d="M488.084,336.672c-1.866,2.183-5.721,4.892-9.087,13.834c-0.302,0.801-0.618,1.61-1.041,2.35    c-0.588,1.03-1.841,1.096-2.536,0.105c-1.57-2.239-1.659-5.8-6.894-11.953c-3.073-3.611-6.064-4.747-3.493-6.932    c6.41-5.446,8.612-13.611,9.779-15.771c0.504-0.932,1.7-1.005,2.355-0.185c0.702,0.881,1.064,1.948,1.486,2.979    c3.122,7.634,7.427,11.123,9.184,12.82C488.279,334.345,488.727,335.921,488.084,336.672z"/>
		<path style="fill:#FD8A02;" d="M394.96,444.925c-1.866,2.183-5.721,4.892-9.087,13.834c-0.302,0.801-0.618,1.61-1.041,2.35    c-0.588,1.031-1.841,1.096-2.536,0.105c-1.57-2.239-1.659-5.8-6.894-11.953c-3.072-3.611-6.064-4.748-3.493-6.932    c6.41-5.446,8.612-13.611,9.779-15.771c0.504-0.932,1.7-1.006,2.355-0.184c0.702,0.88,1.064,1.947,1.487,2.979    c3.121,7.634,7.426,11.123,9.183,12.82C395.155,442.597,395.603,444.173,394.96,444.925z"/>
		<path style="fill:#FD8A02;" d="M483.927,431.444c-2.15,2.513-6.585,5.621-10.466,15.933c-0.348,0.923-0.712,1.854-1.198,2.706    c-0.678,1.187-2.121,1.262-2.921,0.121c-1.81-2.582-1.911-6.68-7.94-13.767c-3.538-4.159-6.984-5.468-4.023-7.984    c7.382-6.272,9.919-15.677,11.263-18.165c0.58-1.074,1.958-1.158,2.712-0.212c0.809,1.014,1.226,2.243,1.712,3.431    c3.603,8.809,8.578,12.835,10.578,14.766C484.151,428.763,484.668,430.579,483.927,431.444z"/>
	</g>
</g>















</svg>
