<?xml version="1.0" encoding="UTF-8"?>
<!-- Generator: Adobe Illustrator 27.0.0, SVG Export Plug-In . SVG Version: 6.00 Build 0)  -->
<svg xmlns="http://www.w3.org/2000/svg" xmlns:xlink="http://www.w3.org/1999/xlink" version="1.1" id="Capa_1" x="0px" y="0px" viewBox="0 0 512 512" style="enable-background:new 0 0 512 512;" xml:space="preserve" width="200" height="200">
<g>
	<circle style="fill:#514BDB;" cx="260.976" cy="260.992" r="249.572"/>
	<g>
		<path style="fill:#FE5D0D;" d="M508.989,182.449c8.673,21.831-2.033,46.656-23.862,55.33    c-21.831,8.677-46.656-2.026-55.333-23.862c-8.679-21.829,2.029-46.654,23.858-55.328    C475.486,149.912,500.308,160.613,508.989,182.449z M440.907,209.505c6.24,15.705,24.097,23.406,39.802,17.162    c15.709-6.239,23.404-24.097,17.164-39.802c-6.244-15.709-24.099-23.408-39.804-17.166    C442.364,175.943,434.665,193.798,440.907,209.505z"/>
		<g>
			<polygon style="fill:#79BB35;" points="10.483,146.025 0,151.102 40.18,234.045 50.654,228.967    "/>
			
				<rect x="37.561" y="149.753" transform="matrix(0.1735 -0.9848 0.9848 0.1735 -95.4351 197.4345)" style="fill:#79BB35;" width="64.699" height="11.646"/>
		</g>
		
			<ellipse transform="matrix(0.1981 -0.9802 0.9802 0.1981 69.9595 685.7285)" style="fill-rule:evenodd;clip-rule:evenodd;fill:#B8CBFE;" cx="454.062" cy="300.109" rx="15.664" ry="15.664"/>
		
			<rect x="429.71" y="411.513" transform="matrix(0.7775 -0.6289 0.6289 0.7775 -169.0792 374.1846)" style="fill-rule:evenodd;clip-rule:evenodd;fill:#79BB35;" width="29.008" height="29.004"/>
		<polygon style="fill-rule:evenodd;clip-rule:evenodd;fill:#FEC900;" points="447.018,353.492 458.14,360.183 446.784,366.474     435.428,372.762 435.66,359.784 435.893,346.805   "/>
		<path style="fill-rule:evenodd;clip-rule:evenodd;fill:#FEC900;" d="M308.607,473.974c1.977,3.341,4.359,6.231,5.716,10.268    c-6.021,2.933-8.643,5.391-15.426,5.359c-4.811-0.023-9.313-1.652-13.671-3.405c-5.498-2.213-9.831-5.772-16.616-4.524    c-6.402,1.18-10.455,7.053-17.523,8.044c-9.046,1.27-16.295-2.932-22.485-6.115c-3.054-1.573-5.274-3.504-10.418-2.626    c-3.577,0.609-6.687,3.308-10.303,5.073c-9.111,4.433-18.319,4.976-26.395-1.408c1.733-3.112,4.305-5.477,6.268-8.373    c12.719,6.365,19.347-7.902,33.927-7.363c10.687,0.391,18.216,10.48,27.788,9.029c3.58-0.538,6.995-3.682,9.661-5.032    c3.296-1.668,6.918-3.297,11.036-3.508c10.69-0.549,19.886,9.452,29.982,8.265C303.507,477.263,305.237,475.365,308.607,473.974z"/>
		
			<ellipse transform="matrix(0.0709 -0.9975 0.9975 0.0709 243.2972 280.6258)" style="fill-rule:evenodd;clip-rule:evenodd;fill:#FEC900;" cx="272.287" cy="9.712" rx="8.276" ry="8.276"/>
		<circle style="fill-rule:evenodd;clip-rule:evenodd;fill:#B8CBFE;" cx="11.404" cy="278.82" r="8.276"/>
	</g>
	<g>
		<g>
			<path style="fill:#B8CBFE;" d="M354.81,455.18l-304.506,0.384c-13.018,0.016-23.674-10.4-23.854-23.417     c-0.515-37.267,4.815-114.776,48.296-201.907c36.436-73.021,42.484-143.529,42.866-178.93     c0.141-13.08,10.711-23.625,23.792-23.641l304.133-0.384c13.386-0.017,24.118,10.988,23.849,24.371     c-0.819,40.848-7.604,125.656-46.415,197.385c-39.888,73.727-44.909,145.647-44.373,181.869     C378.795,444.235,368.135,455.163,354.81,455.18z"/>
			<g>
				<g>
					<path style="fill:#8E8EFF;" d="M86.979,346.747c-0.674,0.089-1.365,0.076-2.052-0.048c-2.286-0.413-4.191-1.988-5.022-4.157       l-9.154-23.816c-1.317-3.427,0.393-7.269,3.819-8.586c3.392-1.336,7.269,0.393,8.586,3.819l5.226,13.596l22.296-25.204       c2.433-2.752,6.634-3.004,9.382-0.576c2.749,2.433,3.006,6.634,0.576,9.383l-29.549,33.404       C90.009,345.779,88.544,346.54,86.979,346.747z"/>
					<path style="fill:#8E8EFF;" d="M112.978,268.596c-0.674,0.089-1.365,0.076-2.051-0.048c-2.286-0.413-4.191-1.988-5.022-4.157       l-9.154-23.816c-1.317-3.426,0.393-7.269,3.819-8.586c3.393-1.329,7.269,0.393,8.586,3.819l5.226,13.596l22.296-25.204       c2.433-2.752,6.634-3.004,9.382-0.576c2.749,2.433,3.006,6.634,0.576,9.383l-29.549,33.404       C116.007,267.627,114.542,268.389,112.978,268.596z"/>
					<path style="fill:#8E8EFF;" d="M140.954,191.798c-0.674,0.089-1.365,0.076-2.052-0.048c-2.286-0.413-4.191-1.988-5.022-4.157       l-9.154-23.816c-1.317-3.427,0.393-7.269,3.819-8.586c3.394-1.326,7.269,0.393,8.586,3.819l5.226,13.596l22.296-25.204       c2.432-2.755,6.631-3.003,9.382-0.576c2.749,2.433,3.006,6.634,0.576,9.382l-29.549,33.404       C143.984,190.829,142.519,191.591,140.954,191.798z"/>
					<path style="fill:#8E8EFF;" d="M157.288,118.156c-0.674,0.089-1.365,0.076-2.051-0.048c-2.286-0.413-4.191-1.989-5.022-4.157       l-9.154-23.816c-1.317-3.426,0.392-7.269,3.819-8.586c3.408-1.338,7.269,0.393,8.586,3.819l5.226,13.596l22.296-25.204       c2.433-2.752,6.634-3.004,9.383-0.576c2.749,2.433,3.006,6.633,0.575,9.382l-29.549,33.404       C160.318,117.187,158.852,117.949,157.288,118.156z"/>
				</g>
				<g>
					<path style="fill:#1D1D1B;" d="M428.756,101.62c-1.607-1.618-3.751-2.512-6.035-2.518l-217.617-0.609       c-4.702,0.006-8.542,3.827-8.557,8.52c-0.011,4.71,3.814,8.553,8.52,8.564l217.617,0.607c0.415,0,0.833-0.03,1.233-0.087       c4.165-0.596,7.312-4.221,7.324-8.431C431.248,105.385,430.366,103.238,428.756,101.62z"/>
					<path style="fill:#1D1D1B;" d="M403.249,178.412l-217.61-1.933c-0.022,0-0.044,0-0.067,0c-4.68,0-8.508,3.784-8.546,8.466       c-0.022,2.281,0.848,4.434,2.447,6.061c1.6,1.627,3.736,2.534,6.017,2.555l217.61,1.935c0.018,0,0.037,0,0.052,0       c0.404,0,0.796-0.026,1.188-0.08c4.165-0.572,7.335-4.176,7.372-8.388C411.75,182.32,407.955,178.455,403.249,178.412z"/>
					<path style="fill:#1D1D1B;" d="M370.948,255.357l-210.794-1.477c-2.266-0.078-4.432,0.844-6.057,2.447       c-1.629,1.603-2.533,3.747-2.547,6.033c-0.015,2.281,0.859,4.432,2.458,6.056c1.603,1.624,3.74,2.527,6.02,2.544l210.79,1.479       c0.03,0,0.063,0,0.093,0c0.407,0,0.803-0.03,1.196-0.085h0.004c4.143-0.598,7.287-4.206,7.316-8.396       c0.015-2.281-0.855-4.432-2.458-6.057C375.369,256.277,373.229,255.373,370.948,255.357z"/>
					<path style="fill:#1D1D1B;" d="M344.053,331.618l-208.528-2.832c-4.695-0.193-8.586,3.732-8.649,8.425       c-0.033,2.281,0.826,4.438,2.418,6.072c1.592,1.635,3.725,2.553,6.006,2.584l208.524,2.833c0.037,0,0.07,0,0.104,0       c0.389,0,0.77-0.024,1.144-0.074c4.165-0.555,7.35-4.143,7.405-8.351c0.033-2.281-0.826-4.438-2.418-6.072       C348.466,332.568,346.333,331.65,344.053,331.618z"/>
				</g>
			</g>
		</g>
		<g>
			<g>
				<path style="fill:#FFFFFF;" d="M424.482,41.753c9.884,1.11,17.677,4.521,24.057,10.933c5.953,5.984,7.095,12.529,3.416,17.401      c-3.743,4.959-9.74,5.269-17.098,0.409c-6.114-4.04-11.592-9.024-18.985-10.869c-4.434-1.107-7.683-4.394-7.414-9.458      c0.308-5.817,4.571-7.736,9.505-8.352C420.459,41.505,423.039,41.755,424.482,41.753z"/>
				<path style="fill:#FFFFFF;" d="M392.217,41.696c-4.335-2.442-12.549,0.164-15.349,4.725c-2.122,3.457-1.47,6.543,2.035,8.605      c4.289,2.523,12.262-0.098,14.936-4.793C395.799,46.794,395.299,43.803,392.217,41.696z"/>
			</g>
			<g>
				<path style="fill:#FFFFFF;" d="M68.871,437.823c-9.802-1.689-17.381-5.552-23.374-12.328      c-5.591-6.324-6.347-12.924-2.387-17.571c4.028-4.731,10.033-4.687,17.092,0.596c5.866,4.392,11.042,9.689,18.313,11.965      c4.361,1.366,7.411,4.838,6.845,9.877c-0.649,5.788-5.017,7.454-9.98,7.779C72.873,438.306,70.312,437.905,68.871,437.823z"/>
				<path style="fill:#FFFFFF;" d="M101.077,439.775c4.184,2.693,12.537,0.573,15.6-3.815c2.321-3.326,1.852-6.445-1.526-8.709      c-4.134-2.771-12.247-0.623-15.192,3.907C97.801,434.475,98.124,437.49,101.077,439.775z"/>
			</g>
		</g>
	</g>
</g>















</svg>
