<svg height="200" viewBox="0 0 1000 1000" width="200" xmlns="http://www.w3.org/2000/svg"><g><g><g><g><path d="m560.022 542.528h357.324v329.02h-357.324z" fill="#ec1f81"/><path d="m483.443 752.75 76.579 118.798v-329.02l-76.579-118.798z" fill="#ffb100"/><path d="m483.443 423.73h357.324l76.579 118.798h-357.324z" fill="#aed300"/></g><g><path d="m159.233 542.528h357.324v329.02h-357.324z" fill="#00aeef"/><path d="m82.654 752.75 76.579 118.798v-329.02l-76.579-118.798z" fill="#aed300"/><path d="m82.654 423.73h357.324l76.579 118.798h-357.324z" fill="#ec1f81"/></g><g><path d="m365.246 213.508h357.324v329.02h-357.324z" fill="#ab6dfc"/><path d="m288.667 423.73 76.579 118.798v-329.02l-76.579-118.798z" fill="#ffb100"/><path d="m288.667 94.71h357.324l76.579 118.798h-357.324z" fill="#00aeef"/></g><g fill="#fff"><path d="m557.4 256.1c-6.844 0-11.725 1.644-14.912 5.021-1.219 1.29-3.721 4.231-11.345 14.854a112.993 112.993 0 0 1 -17.628 19.342c-6.525 5.668-15.471 11.2-26.584 16.428-8.478 3.983-14.329 7.218-17.879 9.884-3.531 2.647-7.74 7.758-7.74 17.084a23.554 23.554 0 0 0 6.91 16.656 22.5 22.5 0 0 0 16.386 7.226c6.287 0 16.781-2.609 42.467-21.012v118.108c0 9.721 2.484 17.4 7.383 22.833 5.03 5.573 11.95 8.521 20.014 8.521 10.34 0 27.689-4.813 27.689-37.065v-167.7c0-8.738-2.12-15.886-6.3-21.243a22.646 22.646 0 0 0 -18.461-8.937z"/><path d="m411.715 779.163c-5.361-4.181-12.8-6.3-22.12-6.3h-60.8c5.549-6.016 14.471-14.058 26.6-23.965 14.7-12.013 25.358-20.985 31.689-26.67 6.779-6.091 13.443-14.5 19.806-25.007a70.307 70.307 0 0 0 10.111-36.979 68.136 68.136 0 0 0 -18.501-46.542 65.48 65.48 0 0 0 -20.453-14.614c-11.478-5.1-25.381-7.688-41.324-7.688-13.308 0-25.169 2.029-35.254 6.031a74.916 74.916 0 0 0 -25.407 16.1 68.258 68.258 0 0 0 -15.223 22.417 62.947 62.947 0 0 0 -5.119 24c0 7.639 2.377 13.89 7.064 18.573a24.231 24.231 0 0 0 17.55 7.066c9.881 0 15.549-4.386 18.566-8.064 3.479-4.244 6.443-9.936 9.06-17.393 2.876-8.2 3.9-10.052 4.1-10.368 5.954-9.133 13.514-13.384 23.785-13.384a27.317 27.317 0 0 1 13.181 3.2 23.277 23.277 0 0 1 9.22 8.712 24.113 24.113 0 0 1 3.367 12.825 34.465 34.465 0 0 1 -3.466 14.445 60.585 60.585 0 0 1 -10.819 15.584 122.039 122.039 0 0 1 -18.674 15.938c-4.847 3.265-12.473 9.7-23.31 19.679-10.48 9.646-22.418 21.407-35.539 35.021a57.018 57.018 0 0 0 -10.033 15.77c-3.12 6.873-4.637 12.479-4.637 17.14a26.879 26.879 0 0 0 8.415 19.7c5.559 5.5 13.129 8.284 22.5 8.284h107.8c8.576 0 15.284-2.469 19.936-7.338a24.387 24.387 0 0 0 6.876-17.423 22.957 22.957 0 0 0 -8.947-18.75z"/><path d="m816.769 734.456a61.953 61.953 0 0 0 -13.425-19.97 81.965 81.965 0 0 0 -12.045-9.94 83.44 83.44 0 0 0 12.118-15.219c4.964-8.157 7.483-17.94 7.483-29.083a57.443 57.443 0 0 0 -5.078-23.949 56.188 56.188 0 0 0 -15.046-19.653 68.5 68.5 0 0 0 -22.892-12.629 90.13 90.13 0 0 0 -28.32-4.266 96.669 96.669 0 0 0 -31.958 5.043 75.548 75.548 0 0 0 -24.494 13.644 66.326 66.326 0 0 0 -15.194 18.158c-3.681 6.726-5.549 13.351-5.549 19.7 0 7.394 2.432 13.5 7.219 18.138 4.725 4.591 10.134 6.917 16.077 6.917a28.464 28.464 0 0 0 11.988-2.461 17.873 17.873 0 0 0 9.06-8.707q2.457-5.63 5.418-11.988a42.157 42.157 0 0 1 5.35-8.92 16.312 16.312 0 0 1 6.273-4.428c2.884-1.24 6.823-1.869 11.709-1.869 6.675 0 11.721 1.887 15.429 5.772a19.581 19.581 0 0 1 5.654 14.14c0 7.509-2.264 13-6.923 16.779a28.015 28.015 0 0 1 -18.408 6.206h-6c-8.706 0-15.605 2.032-20.506 6.046a21.608 21.608 0 0 0 -8.063 17.248c0 8.708 3.735 13.957 6.865 16.823 4.365 4.006 10.288 6.035 17.6 6.035.92 0 2.813-.063 8.634-.618 4.8-.458 7.194-.554 8.356-.554 9.052 0 15.783 2.419 20.576 7.4 4.873 5.067 7.243 12.129 7.243 21.592a29.882 29.882 0 0 1 -4.334 16.318 28.7 28.7 0 0 1 -11.023 10.558 29.053 29.053 0 0 1 -13.927 3.578c-8.328 0-14.482-2.387-18.812-7.3-5.169-5.863-10.186-15.241-14.853-27.717a18.865 18.865 0 0 0 -8.093-9.709 22.133 22.133 0 0 0 -11.993-3.6 26.638 26.638 0 0 0 -18.939 7.286c-5.225 4.951-7.874 11.422-7.874 19.232 0 5.551 1.735 12.048 5.3 19.866a79.618 79.618 0 0 0 40.335 39.075c10.234 4.628 21.887 6.977 34.632 6.977a95.25 95.25 0 0 0 34.3-6 83.049 83.049 0 0 0 27.161-16.79 73.66 73.66 0 0 0 17.537-24.746 72.548 72.548 0 0 0 5.966-28.789 61.69 61.69 0 0 0 -4.534-23.626z"/></g></g><g opacity=".7"><path d="m550.613 125.274h-198.266a8.5 8.5 0 0 1 0-17h198.266a8.5 8.5 0 0 1 0 17z" fill="#fff"/></g><g opacity=".7"><path d="m269.581 455.983h-139.871a8.5 8.5 0 0 1 0-17h139.871a8.5 8.5 0 0 1 0 17z" fill="#fff"/></g><g opacity=".7"><path d="m587.774 769.016a8.5 8.5 0 0 1 -8.5-8.5v-185.033a8.5 8.5 0 0 1 17 0v185.033a8.5 8.5 0 0 1 -8.5 8.5z" fill="#fff"/></g></g><g fill="#203063"><g><path d="m159.232 384.554a7 7 0 0 1 -7-7v-50.839a7 7 0 0 1 14 0v50.839a7 7 0 0 1 -7 7z"/><path d="m184.652 359.134h-50.838a7 7 0 1 1 0-14h50.838a7 7 0 1 1 0 14z"/></g><g><path d="m819.958 211.948a7 7 0 0 1 -7-7v-50.839a7 7 0 0 1 14 0v50.839a7 7 0 0 1 -7 7z"/><path d="m845.378 186.528h-50.839a7 7 0 0 1 0-14h50.839a7 7 0 0 1 0 14z"/></g><g><path d="m917.346 878.549h-357.324a7 7 0 0 1 -7-7v-329.021a7 7 0 0 1 7-7h357.324a7 7 0 0 1 7 7v329.021a7 7 0 0 1 -7 7zm-350.324-14h343.324v-315.021h-343.324zm169.319-23.149c-13.744 0-26.366-2.556-37.516-7.6a86.625 86.625 0 0 1 -43.819-42.545c-3.994-8.752-5.936-16.2-5.936-22.774 0-9.669 3.479-18.078 10.059-24.313a33.434 33.434 0 0 1 23.753-9.2 29.017 29.017 0 0 1 15.745 4.694 25.7 25.7 0 0 1 10.923 13.232c4.318 11.529 8.994 20.338 13.523 25.475 1.865 2.117 5.3 4.93 13.561 4.93a21.929 21.929 0 0 0 10.642-2.759 21.633 21.633 0 0 0 8.372-8.086 22.809 22.809 0 0 0 3.27-12.608c0-7.566-1.73-13.041-5.288-16.74-3.449-3.584-8.384-5.254-15.531-5.254-.825 0-2.922.068-7.691.523-6.044.575-8.144.65-9.3.65-9.125 0-16.64-2.651-22.336-7.878-4.164-3.814-9.132-10.728-9.132-21.981a28.768 28.768 0 0 1 10.626-22.666c6.187-5.066 14.578-7.634 24.944-7.634h6c5.652 0 10.1-1.473 13.993-4.638 1.864-1.513 4.337-4.333 4.337-11.346a12.556 12.556 0 0 0 -3.712-9.3c-1.482-1.553-4.164-3.61-10.37-3.61-4.894 0-7.564.707-8.942 1.3a9.649 9.649 0 0 0 -3.632 2.442 35.783 35.783 0 0 0 -4.411 7.428c-1.94 4.165-3.74 8.145-5.35 11.835-.029.068-.061.137-.093.205a24.853 24.853 0 0 1 -12.446 12.057 35.429 35.429 0 0 1 -14.923 3.107 29.753 29.753 0 0 1 -20.956-8.9c-6.108-5.918-9.34-13.928-9.34-23.158 0-7.534 2.156-15.293 6.409-23.059a73.218 73.218 0 0 1 16.77-20.106 82.472 82.472 0 0 1 26.756-14.94 103.6 103.6 0 0 1 34.269-5.436 97.106 97.106 0 0 1 30.519 4.621 75.453 75.453 0 0 1 25.212 13.932 63.139 63.139 0 0 1 16.9 22.1 64.4 64.4 0 0 1 5.7 26.845c0 12.442-2.86 23.451-8.5 32.722a83.988 83.988 0 0 1 -7.7 10.6 84.166 84.166 0 0 1 6.622 5.99 67.179 67.179 0 0 1 19.978 48.524 79.486 79.486 0 0 1 -6.534 31.551 80.6 80.6 0 0 1 -19.184 27.094 90.038 90.038 0 0 1 -29.427 18.207 102.205 102.205 0 0 1 -36.814 6.467zm-53.459-92.435a19.6 19.6 0 0 0 -14.129 5.373c-3.822 3.621-5.683 8.25-5.683 14.145 0 4.525 1.528 10.072 4.672 16.959a72.726 72.726 0 0 0 13.738 19.726 73.488 73.488 0 0 0 23.12 15.879c9.323 4.216 20 6.353 31.746 6.353a88.314 88.314 0 0 0 31.787-5.534 76.089 76.089 0 0 0 24.882-15.359 66.663 66.663 0 0 0 15.889-22.4 65.561 65.561 0 0 0 5.4-26.025 53.2 53.2 0 0 0 -15.929-38.671 75.18 75.18 0 0 0 -11.014-9.081 7 7 0 0 1 -1.027-10.712 76.643 76.643 0 0 0 11.109-13.928c4.288-7.047 6.462-15.608 6.462-25.445a50.506 50.506 0 0 0 -4.449-21.052 49.245 49.245 0 0 0 -13.2-17.211 61.539 61.539 0 0 0 -20.568-11.323 83.181 83.181 0 0 0 -26.117-3.911 89.707 89.707 0 0 0 -29.645 4.65 68.641 68.641 0 0 0 -22.245 12.345 59.406 59.406 0 0 0 -13.616 16.213c-3.111 5.682-4.688 11.178-4.688 16.335 0 5.5 1.664 9.792 5.089 13.11s7.09 4.946 11.207 4.946a21.558 21.558 0 0 0 9.063-1.822 10.932 10.932 0 0 0 5.619-5.263c1.642-3.76 3.471-7.807 5.438-12.029a49.015 49.015 0 0 1 6.291-10.414 23.2 23.2 0 0 1 8.91-6.407c3.764-1.619 8.634-2.439 14.476-2.439 8.57 0 15.464 2.671 20.493 7.939a26.617 26.617 0 0 1 7.589 18.973c0 9.616-3.2 17.09-9.511 22.213a35.2 35.2 0 0 1 -22.819 7.771h-6c-7.048 0-12.455 1.5-16.071 4.463a14.622 14.622 0 0 0 -5.5 11.832c0 4.946 1.545 8.87 4.593 11.661s7.367 4.2 12.875 4.2c1.2 0 3.885-.2 7.97-.587s7.111-.586 9.02-.586c10.9 0 19.524 3.212 25.62 9.548 6.19 6.435 9.2 15.085 9.2 26.446a36.666 36.666 0 0 1 -5.4 20.026 35.523 35.523 0 0 1 -13.69 13.028 35.882 35.882 0 0 1 -17.205 4.393c-10.313 0-18.409-3.255-24.065-9.673-5.733-6.5-11.169-16.561-16.156-29.892-.018-.048-.036-.1-.053-.147a11.9 11.9 0 0 0 -5.234-6.1 15.233 15.233 0 0 0 -8.244-2.516z"/><path d="m560.022 878.55a7 7 0 0 1 -5.884-3.208l-43.465-67.43a7 7 0 0 1 -1.116-3.793v-261.591a7 7 0 0 1 7-7h43.465a7 7 0 0 1 7 7v329.021a7 7 0 0 1 -7 7zm-36.465-76.491 29.465 45.711v-298.242h-29.465z"/><path d="m917.346 549.528h-194.776a7 7 0 0 1 -7-7v-118.798a7 7 0 0 1 7-7h118.2a7 7 0 0 1 5.883 3.207l76.58 118.8a7 7 0 0 1 -5.884 10.793zm-187.776-14h174.935l-67.554-104.8h-107.381z"/><path d="m516.557 878.549h-357.325a7 7 0 0 1 -7-7v-329.021a7 7 0 0 1 7-7h357.325a7 7 0 0 1 7 7v329.021a7 7 0 0 1 -7 7zm-350.325-14h343.325v-315.021h-343.325zm227.611-34.869h-107.8c-11.281 0-20.507-3.468-27.42-10.307a34.079 34.079 0 0 1 -10.489-24.673c0-5.679 1.721-12.232 5.263-20.033a63.81 63.81 0 0 1 11.31-17.675c13.238-13.735 25.3-25.617 35.895-35.374 11.048-10.171 18.923-16.807 24.071-20.287a114.682 114.682 0 0 0 17.534-14.951 53.674 53.674 0 0 0 9.589-13.757 27.558 27.558 0 0 0 2.816-11.5 17.088 17.088 0 0 0 -2.36-9.207 16.24 16.24 0 0 0 -6.52-6.153 20.218 20.218 0 0 0 -9.888-2.382c-7.824 0-13.157 3-17.793 10.011a93.311 93.311 0 0 0 -3.486 9.057c-2.895 8.248-6.248 14.631-10.251 19.515-3.978 4.849-11.365 10.626-23.98 10.626a31.091 31.091 0 0 1 -22.5-9.117c-6.046-6.041-9.113-13.956-9.113-23.523a69.875 69.875 0 0 1 5.65-26.676 75.231 75.231 0 0 1 16.762-24.714 81.888 81.888 0 0 1 27.756-17.637c10.908-4.328 23.638-6.524 37.835-6.524 16.927 0 31.787 2.79 44.167 8.292a72.671 72.671 0 0 1 22.694 16.2 75.13 75.13 0 0 1 20.41 51.355 77.2 77.2 0 0 1 -11.125 40.608c-6.717 11.089-13.821 20.034-21.114 26.586-6.414 5.759-17.159 14.8-31.937 26.883q-7.713 6.3-13.633 11.544h43.414c10.914 0 19.8 2.618 26.425 7.781a30.117 30.117 0 0 1 11.635 24.275 31.59 31.59 0 0 1 -8.814 22.259c-6.029 6.3-14.44 9.498-25.003 9.498zm-58-200.3a34.142 34.142 0 0 1 16.476 4.029 30.072 30.072 0 0 1 11.914 11.266 30.91 30.91 0 0 1 4.378 16.447 41.383 41.383 0 0 1 -4.114 17.388 67.571 67.571 0 0 1 -12.049 17.414 128.7 128.7 0 0 1 -19.748 16.876l-.134.093c-4.491 3.024-12.054 9.424-22.48 19.023-10.395 9.568-22.252 21.253-35.24 34.729a50.25 50.25 0 0 0 -8.7 13.805c-2.662 5.863-4.011 10.656-4.011 14.247a19.851 19.851 0 0 0 6.334 14.718c4.2 4.157 10.116 6.264 17.579 6.264h107.8c6.591 0 11.6-1.741 14.875-5.174a17.372 17.372 0 0 0 4.934-12.584 15.979 15.979 0 0 0 -6.25-13.24c-4.1-3.194-10.09-4.816-17.81-4.816h-60.8a7 7 0 0 1 -5.145-11.746c5.775-6.261 14.964-14.55 27.313-24.638 14.61-11.943 25.189-20.845 31.441-26.458 6.268-5.632 12.491-13.514 18.5-23.426a63.391 63.391 0 0 0 9.1-33.353 61.132 61.132 0 0 0 -16.577-41.731 58.646 58.646 0 0 0 -18.282-13.06c-10.509-4.67-23.456-7.054-38.412-7.054-12.421 0-23.413 1.864-32.673 5.538a67.981 67.981 0 0 0 -23.071 14.563 61.312 61.312 0 0 0 -13.682 20.119 56.019 56.019 0 0 0 -4.589 21.331c0 5.8 1.639 10.253 5.012 13.623a17.155 17.155 0 0 0 12.6 5.017c5.733 0 10.158-1.852 13.154-5.5 2.949-3.6 5.523-8.594 7.867-15.272 3.295-9.4 4.4-11.171 4.764-11.753.025-.041.05-.08.076-.121 7.268-11.144 16.967-16.565 29.651-16.565z"/><path d="m159.232 878.55a7 7 0 0 1 -5.883-3.208l-76.579-118.799a7.007 7.007 0 0 1 -1.116-3.793v-329.02a7 7 0 0 1 12.884-3.793l76.578 118.8a7 7 0 0 1 1.116 3.793v329.019a7 7 0 0 1 -7 7zm-69.578-127.861 62.578 97.081v-303.181l-62.578-97.08z"/><path d="m365.246 549.528h-206.014a7 7 0 0 1 -5.883-3.207l-76.579-118.799a7 7 0 0 1 5.884-10.792h206.013a7 7 0 0 1 5.884 3.207l76.579 118.8a7 7 0 0 1 -5.884 10.793zm-202.2-14h189.36l-67.555-104.8h-189.357z"/><path d="m722.57 549.528h-357.324a7 7 0 0 1 -7-7v-329.02a7 7 0 0 1 7-7h357.324a7 7 0 0 1 7 7v329.02a7 7 0 0 1 -7 7zm-350.324-14h343.324v-315.019h-343.324zm182.222-37.483c-10.1 0-18.816-3.745-25.211-10.832-6.1-6.758-9.186-16.018-9.186-27.522v-104.824c-19.66 12.8-28.973 14.728-35.466 14.728a29.344 29.344 0 0 1 -21.415-9.357 30.413 30.413 0 0 1 -8.882-21.526c0-9.531 3.742-17.586 10.537-22.682 3.995-3 10.066-6.376 19.106-10.623 10.527-4.954 18.929-10.128 24.969-15.375a105.917 105.917 0 0 0 16.533-18.142c7.784-10.845 10.473-14.023 11.946-15.58 4.577-4.85 11.12-7.21 20-7.21a29.806 29.806 0 0 1 23.975 11.628c5.167 6.618 7.786 15.214 7.786 25.551v167.7c0 16.2-4.1 28.225-12.2 35.752-5.851 5.44-13.627 8.314-22.492 8.314zm-27.4-163.463a7 7 0 0 1 7 7v118.109c0 7.934 1.878 14.039 5.581 18.144 3.718 4.12 8.7 6.21 14.816 6.21 13.728 0 20.689-10.115 20.689-30.064v-167.7c0-7.14-1.622-12.838-4.821-16.935a15.667 15.667 0 0 0 -12.933-6.246c-4.747 0-8.052.95-9.821 2.825-1.673 1.767-5.287 6.52-10.749 14.131a120.06 120.06 0 0 1 -18.73 20.544c-7.013 6.091-16.5 11.971-28.195 17.477-7.931 3.727-13.534 6.8-16.656 9.149h-.006c-3.276 2.456-4.938 6.319-4.938 11.482a16.466 16.466 0 0 0 4.931 11.779 15.462 15.462 0 0 0 11.366 5.1c7.326 0 19.884-6.446 38.39-19.7a6.988 6.988 0 0 1 4.08-1.305z"/><path d="m365.246 549.529a7 7 0 0 1 -5.884-3.208l-76.578-118.8a7 7 0 0 1 -1.117-3.792v-329.019a7 7 0 0 1 12.884-3.793l76.578 118.8a7 7 0 0 1 1.117 3.792v329.02a7 7 0 0 1 -7 7zm-69.579-127.86 62.579 97.08v-303.18l-62.579-97.08z"/><path d="m722.57 220.509h-357.324a7 7 0 0 1 -5.884-3.208l-76.578-118.801a7 7 0 0 1 5.883-10.792h357.324a7 7 0 0 1 5.884 3.207l76.579 118.8a7 7 0 0 1 -5.884 10.793zm-353.508-14h340.668l-67.555-104.8h-340.668z"/><path d="m554.468 498.045c-10.1 0-18.816-3.745-25.211-10.832-6.1-6.758-9.186-16.018-9.186-27.522v-104.824c-19.66 12.8-28.973 14.728-35.466 14.728a29.344 29.344 0 0 1 -21.415-9.357 30.413 30.413 0 0 1 -8.882-21.526c0-9.534 3.744-17.591 10.542-22.686 3.99-3 10.061-6.372 19.1-10.619 10.527-4.954 18.929-10.128 24.969-15.375a105.917 105.917 0 0 0 16.533-18.142c7.784-10.845 10.473-14.023 11.946-15.58 4.577-4.85 11.12-7.21 20-7.21a29.806 29.806 0 0 1 23.975 11.628c5.167 6.618 7.786 15.214 7.786 25.551v167.7c0 16.2-4.105 28.225-12.2 35.752-5.85 5.44-13.626 8.314-22.491 8.314zm-27.4-163.463a7 7 0 0 1 7 7v118.109c0 7.934 1.878 14.039 5.581 18.144 3.718 4.12 8.7 6.21 14.816 6.21 13.728 0 20.689-10.115 20.689-30.064v-167.7c0-7.14-1.622-12.838-4.821-16.935a15.667 15.667 0 0 0 -12.933-6.246c-4.747 0-8.052.95-9.821 2.825-1.673 1.767-5.287 6.52-10.749 14.131a120.06 120.06 0 0 1 -18.73 20.544c-7.013 6.092-16.5 11.971-28.195 17.477-7.932 3.727-13.534 6.8-16.656 9.149-3.282 2.46-4.944 6.323-4.944 11.486a16.466 16.466 0 0 0 4.931 11.779 15.462 15.462 0 0 0 11.366 5.1c7.326 0 19.884-6.446 38.39-19.7a6.986 6.986 0 0 1 4.08-1.309z"/><path d="m393.843 829.68h-107.8c-11.281 0-20.507-3.468-27.42-10.307a34.079 34.079 0 0 1 -10.489-24.673c0-5.679 1.722-12.232 5.263-20.033a63.81 63.81 0 0 1 11.31-17.675c13.238-13.735 25.3-25.617 35.895-35.374 11.047-10.17 18.922-16.806 24.07-20.286a114.7 114.7 0 0 0 17.535-14.952 53.674 53.674 0 0 0 9.589-13.757 27.558 27.558 0 0 0 2.816-11.5 17.088 17.088 0 0 0 -2.36-9.207 16.24 16.24 0 0 0 -6.52-6.153 20.216 20.216 0 0 0 -9.888-2.382c-7.824 0-13.157 3-17.793 10.011a93.311 93.311 0 0 0 -3.486 9.057c-2.895 8.248-6.248 14.631-10.251 19.515-3.978 4.849-11.365 10.626-23.98 10.626a31.091 31.091 0 0 1 -22.5-9.117c-6.046-6.041-9.113-13.956-9.113-23.523a69.875 69.875 0 0 1 5.65-26.676 75.231 75.231 0 0 1 16.762-24.714 81.873 81.873 0 0 1 27.756-17.637c10.908-4.328 23.638-6.524 37.835-6.524 16.927 0 31.787 2.79 44.167 8.292a72.671 72.671 0 0 1 22.694 16.2 75.13 75.13 0 0 1 20.41 51.355 77.2 77.2 0 0 1 -11.125 40.608c-6.717 11.089-13.821 20.034-21.114 26.586-6.414 5.759-17.159 14.8-31.937 26.883q-7.713 6.3-13.633 11.544h43.414c10.914 0 19.8 2.618 26.425 7.781a30.117 30.117 0 0 1 11.63 24.272 31.583 31.583 0 0 1 -8.818 22.262c-6.02 6.3-14.431 9.498-24.994 9.498zm-58-200.3a34.142 34.142 0 0 1 16.476 4.029 30.072 30.072 0 0 1 11.914 11.266 30.91 30.91 0 0 1 4.378 16.447 41.383 41.383 0 0 1 -4.114 17.388 67.571 67.571 0 0 1 -12.049 17.414 128.7 128.7 0 0 1 -19.748 16.876l-.134.093c-4.491 3.024-12.054 9.424-22.48 19.023-10.395 9.568-22.252 21.253-35.24 34.729a50.25 50.25 0 0 0 -8.7 13.805c-2.662 5.863-4.011 10.656-4.011 14.247a19.851 19.851 0 0 0 6.334 14.718c4.2 4.157 10.116 6.264 17.579 6.264h107.8c6.591 0 11.6-1.741 14.875-5.174a17.374 17.374 0 0 0 4.937-12.587 15.979 15.979 0 0 0 -6.25-13.24c-4.1-3.2-10.093-4.816-17.81-4.816h-60.8a7 7 0 0 1 -5.145-11.746c5.775-6.261 14.964-14.55 27.313-24.638 14.61-11.943 25.189-20.845 31.441-26.458 6.268-5.632 12.491-13.514 18.5-23.426a63.391 63.391 0 0 0 9.1-33.353 61.132 61.132 0 0 0 -16.577-41.731 58.665 58.665 0 0 0 -18.282-13.061c-10.508-4.669-23.456-7.053-38.412-7.053-12.421 0-23.414 1.864-32.673 5.538a67.981 67.981 0 0 0 -23.074 14.566 61.312 61.312 0 0 0 -13.682 20.119 56.019 56.019 0 0 0 -4.589 21.331c0 5.8 1.64 10.253 5.012 13.623a17.155 17.155 0 0 0 12.6 5.017c5.732 0 10.158-1.852 13.154-5.5 2.949-3.6 5.523-8.594 7.867-15.272 3.295-9.4 4.4-11.171 4.764-11.753.025-.041.05-.081.076-.121 7.268-11.144 16.967-16.565 29.651-16.565z"/><path d="m736.341 841.4c-13.744 0-26.366-2.556-37.516-7.6a86.625 86.625 0 0 1 -43.819-42.545c-3.994-8.752-5.936-16.2-5.936-22.774 0-9.669 3.479-18.078 10.059-24.313a33.434 33.434 0 0 1 23.753-9.2 29.019 29.019 0 0 1 15.745 4.694 25.7 25.7 0 0 1 10.923 13.233c4.319 11.529 8.994 20.337 13.523 25.474 1.865 2.117 5.3 4.93 13.561 4.93a21.92 21.92 0 0 0 10.642-2.76 21.623 21.623 0 0 0 8.372-8.085 22.809 22.809 0 0 0 3.27-12.608c0-7.566-1.729-13.041-5.288-16.74-3.449-3.584-8.384-5.254-15.531-5.254-.825 0-2.922.068-7.691.523-6.045.575-8.144.65-9.3.65-9.125 0-16.64-2.651-22.336-7.878-4.164-3.814-9.132-10.728-9.132-21.981a28.768 28.768 0 0 1 10.626-22.666c6.187-5.066 14.578-7.634 24.944-7.634h6c5.652 0 10.1-1.473 13.993-4.638 1.864-1.513 4.337-4.333 4.337-11.346a12.556 12.556 0 0 0 -3.712-9.3c-1.482-1.553-4.164-3.61-10.37-3.61-4.894 0-7.564.707-8.942 1.3a9.66 9.66 0 0 0 -3.632 2.441 35.848 35.848 0 0 0 -4.411 7.429c-1.94 4.165-3.74 8.145-5.35 11.835-.029.069-.061.137-.093.205a24.853 24.853 0 0 1 -12.446 12.057 35.429 35.429 0 0 1 -14.923 3.107 29.753 29.753 0 0 1 -20.956-8.9c-6.108-5.918-9.34-13.928-9.34-23.158 0-7.534 2.156-15.293 6.409-23.059a73.236 73.236 0 0 1 16.77-20.106 82.472 82.472 0 0 1 26.756-14.94 103.6 103.6 0 0 1 34.269-5.436 97.106 97.106 0 0 1 30.519 4.621 75.453 75.453 0 0 1 25.212 13.932 63.139 63.139 0 0 1 16.9 22.1 64.4 64.4 0 0 1 5.7 26.845c0 12.442-2.86 23.451-8.5 32.722a83.988 83.988 0 0 1 -7.7 10.6 84.166 84.166 0 0 1 6.622 5.99 67.178 67.178 0 0 1 19.978 48.524 79.5 79.5 0 0 1 -6.535 31.553 80.59 80.59 0 0 1 -19.183 27.092 90.038 90.038 0 0 1 -29.427 18.207 102.205 102.205 0 0 1 -36.814 6.467zm-53.459-92.435a19.6 19.6 0 0 0 -14.129 5.373c-3.822 3.621-5.683 8.25-5.683 14.145 0 4.525 1.528 10.072 4.672 16.959a72.726 72.726 0 0 0 13.738 19.726 73.469 73.469 0 0 0 23.12 15.878c9.323 4.217 20 6.354 31.746 6.354a88.314 88.314 0 0 0 31.787-5.534 76.089 76.089 0 0 0 24.882-15.359 66.663 66.663 0 0 0 15.889-22.4 65.561 65.561 0 0 0 5.4-26.027 53.194 53.194 0 0 0 -15.927-38.668 75.159 75.159 0 0 0 -11.016-9.084 7 7 0 0 1 -1.027-10.712 76.643 76.643 0 0 0 11.109-13.928c4.288-7.047 6.462-15.608 6.462-25.445a50.506 50.506 0 0 0 -4.449-21.052 49.236 49.236 0 0 0 -13.2-17.211 61.539 61.539 0 0 0 -20.568-11.323 83.181 83.181 0 0 0 -26.117-3.911 89.707 89.707 0 0 0 -29.645 4.65 68.641 68.641 0 0 0 -22.245 12.345 59.406 59.406 0 0 0 -13.616 16.213c-3.111 5.682-4.688 11.178-4.688 16.335 0 5.5 1.664 9.792 5.089 13.11s7.09 4.946 11.207 4.946a21.558 21.558 0 0 0 9.063-1.822 10.932 10.932 0 0 0 5.619-5.263c1.642-3.76 3.471-7.807 5.438-12.029a49.015 49.015 0 0 1 6.291-10.414 23.2 23.2 0 0 1 8.91-6.407c3.764-1.619 8.634-2.439 14.476-2.439 8.57 0 15.464 2.671 20.493 7.939a26.617 26.617 0 0 1 7.589 18.973c0 9.616-3.2 17.09-9.511 22.213a35.2 35.2 0 0 1 -22.819 7.771h-6c-7.048 0-12.455 1.5-16.071 4.463a14.622 14.622 0 0 0 -5.5 11.832c0 4.946 1.545 8.87 4.593 11.661s7.367 4.2 12.875 4.2c1.2 0 3.885-.2 7.97-.587s7.111-.586 9.02-.586c10.9 0 19.524 3.212 25.62 9.548 6.19 6.435 9.2 15.085 9.2 26.446a36.666 36.666 0 0 1 -5.4 20.026 35.523 35.523 0 0 1 -13.69 13.03 35.882 35.882 0 0 1 -17.205 4.393c-10.313 0-18.409-3.255-24.065-9.673-5.733-6.5-11.169-16.561-16.156-29.892-.018-.048-.036-.1-.053-.147a11.9 11.9 0 0 0 -5.234-6.1 15.233 15.233 0 0 0 -8.244-2.516z"/></g><path d="m805.7 385.021a7 7 0 0 1 -2.77-13.432 38.247 38.247 0 0 0 19.686-18.841c-21.449 1.9-31.868-8.543-34.436-20.016-3.091-13.806 5.681-31.931 23.21-35.867 11.886-2.667 22.572 4.89 27.232 19.255a53.974 53.974 0 0 1 2.51 17.378c27.565-12.954 26.787-42.547 26.733-43.957a7 7 0 0 1 13.986-.619 67.3 67.3 0 0 1 -5.321 26.753c-4.988 11.787-15.553 26.689-37.8 33.769-4.264 14.631-14.229 28.1-30.263 35a6.963 6.963 0 0 1 -2.767.577zm10.277-74.669a6.953 6.953 0 0 0 -1.521.173c-9.21 2.068-14.256 11.816-12.615 19.149 1.776 7.93 11.043 10.993 24.96 8.362a42.83 42.83 0 0 0 -1.5-17.6c-1.025-3.173-3.893-10.084-9.322-10.084z"/><path d="m132.43 210.552a7.005 7.005 0 0 1 -6.913-8.151c2.867-17.216 13.569-30.114 26.754-37.752 1.557-23.3 13.5-37.119 23.754-44.781a67.3 67.3 0 0 1 24.7-11.561 7 7 0 0 1 2.743 13.729c-1.383.284-30.3 6.6-36.292 36.465a53.8 53.8 0 0 1 17.474-1.716c15.061 1.09 24.955 9.662 25.205 21.839.37 17.961-15.133 30.812-29.278 31.111-11.733.258-24.386-7.364-27.667-28.654a38.242 38.242 0 0 0 -13.589 23.62 7 7 0 0 1 -6.891 5.851zm33.77-37.052c.764 14 5.857 22.24 13.838 22.24h.248c7.513-.159 15.771-7.388 15.577-16.826-.135-6.58-8.59-7.9-12.218-8.164a42.859 42.859 0 0 0 -17.445 2.75z"/><path d="m789.839 912.29h-81.291a7 7 0 0 1 0-14h81.291a7 7 0 0 1 0 14z"/><path d="m305.193 912.29h-57.171a7 7 0 1 1 0-14h57.171a7 7 0 0 1 0 14z"/></g></g></svg>