<?xml version="1.0" encoding="UTF-8"?>
<!-- Generator: Adobe Illustrator 25.2.3, SVG Export Plug-In . SVG Version: 6.00 Build 0)  -->
<svg xmlns="http://www.w3.org/2000/svg" xmlns:xlink="http://www.w3.org/1999/xlink" version="1.1" id="Capa_1" x="0px" y="0px" viewBox="0 0 512 512" style="enable-background:new 0 0 512 512;" xml:space="preserve" width="512" height="512">
<g>
	<g>
		<g>
			<g>
				<path style="fill:#6280FF;" d="M470.753,75.308l37.1,274.071c0.874,6.453-3.646,12.389-10.121,13.265L63.537,421.421      c-3.806,0.515-7.445-0.863-9.949-3.398c-1.752-1.745-2.955-4.055-3.313-6.702l-37.1-274.071      c-0.873-6.453,3.668-12.392,10.1-13.262L457.47,65.211C463.945,64.335,469.88,68.855,470.753,75.308z"/>
				<g>
					<path style="fill:#FFCF00;" d="M425.41,230.294c-5.683,1.975-11.891-1.03-13.867-6.713c-1.975-5.683,1.03-11.891,6.713-13.867       c5.683-1.975,11.891,1.03,13.867,6.713C434.099,222.11,431.093,228.318,425.41,230.294z"/>
					<path style="fill:#FFCF00;" d="M463.362,334.509c-4.803,3.623-11.634,2.666-15.257-2.137       c-3.623-4.803-2.666-11.634,2.137-15.257c4.803-3.623,11.634-2.666,15.257,2.137       C469.123,324.055,468.166,330.886,463.362,334.509z"/>
					<path style="fill:#FFCF00;" d="M333.297,339.236c-5.043,3.281-11.791,1.853-15.073-3.189       c-3.281-5.043-1.853-11.791,3.189-15.073c5.043-3.281,11.791-1.853,15.072,3.189       C339.768,329.206,338.34,335.955,333.297,339.236z"/>
				</g>
				<g style="opacity:0.25;">
					<path style="fill:#000E3F;" d="M476.024,114.246l31.829,235.134c0.874,6.453-3.646,12.389-10.121,13.265L63.537,421.421       c-3.806,0.515-7.445-0.863-9.949-3.398c11.03-11.161,25.132-20.198,40.05-26.338c32.463-13.282,68.558-15.518,103.751-18.5       c75.05-6.395,149.801-17.137,223.595-32.161c12.337-2.494,25.328-5.434,34.533-13.451       c15.034-13.017,14.847-34.31,12.973-52.767c-3.523-34.741-9.093-69.473-6.785-104.424       C462.974,151.297,467.028,131.547,476.024,114.246z"/>
				</g>
				<g>
					<path style="fill:#FF8EDE;" d="M193.531,163.743c5.283-7.755,18.26-9.836,26.568-6.429c8.225,3.373,9.088,13.232-2.082,18.179       C202.718,182.271,186.678,173.803,193.531,163.743z"/>
					<path style="fill:#FF8EDE;" d="M303.931,148.799c-7.155-6.072-20.217-4.627-27.32,0.866c-7.032,5.438-5.243,15.171,6.84,16.971       C300.001,169.102,313.212,156.675,303.931,148.799z"/>
				</g>
				<path style="opacity:0.5;fill:#FFFFFF;" d="M175.88,125.468c-7.953,2.273-15.981,3.993-24.036,5.517      c-8.049,1.559-16.144,2.791-24.246,3.958l-12.186,1.52c-4.076,0.399-8.138,0.906-12.228,1.2      c-8.165,0.7-16.359,1.202-24.627,1.145c-1.545-0.01-2.789-1.271-2.778-2.816c0.009-1.272,0.869-2.341,2.035-2.672      c7.955-2.253,15.987-3.948,24.045-5.444c4.022-0.803,8.072-1.395,12.107-2.094l12.151-1.774      c8.121-1.028,16.252-1.994,24.426-2.63c8.17-0.672,16.366-1.148,24.637-1.072c1.453,0.013,2.619,1.202,2.606,2.655      C177.776,124.156,176.971,125.156,175.88,125.468z"/>
				<g>
					<path style="fill:#FC09B2;" d="M416.868,299.351c-7.67,5.785-18.576,4.257-24.361-3.413       c-5.785-7.669-4.257-18.576,3.412-24.361c7.67-5.785,18.576-4.257,24.361,3.413       C426.065,282.659,424.537,293.566,416.868,299.351z"/>
					<path style="fill:#FC09B2;" d="M167.325,289.083c-7.902,8.558-21.246,9.089-29.804,1.187       c-8.558-7.903-9.089-21.246-1.187-29.804c7.902-8.558,21.246-9.089,29.804-1.187       C174.696,267.181,175.228,280.525,167.325,289.083z"/>
				</g>
				<g>
					<path style="fill:#FFFFFF;" d="M414.197,278.668c1.216,3.283-2.234,6.381-5.366,4.816c-2.41-1.204-1.585-0.895-2.794-1.728       c-2.353-2-7.394-4.579-6.733-4.268c-1.019-0.624-1.338-1.956-0.714-2.974C400.478,271.423,411.482,271.352,414.197,278.668z"/>
					<path style="fill:#FFFFFF;" d="M145.842,260.406c8.545-3.443,10.95,4.104,6.931,6.634c-3.636,2.29-5.532,1.52-8.152,5.082       c-0.566,0.77-1.848,4.444-4.069,3.312c-0.469-0.239-0.781-0.701-1.028-1.166C136.736,268.997,140.512,262.554,145.842,260.406z       "/>
				</g>
			</g>
			<g>
				<path style="fill:#000E3F;" d="M511.856,348.836L474.755,74.763c-1.058-7.817-7.799-13.712-15.679-13.712      c-0.711,0-1.43,0.048-2.139,0.145L22.74,119.972c-4.191,0.567-7.911,2.733-10.474,6.098c-2.563,3.365-3.661,7.527-3.093,11.718      l37.1,274.072c1.058,7.818,7.798,13.712,15.677,13.712c0.711,0,1.431-0.048,2.139-0.145l434.198-58.776      C506.939,365.481,513.026,357.489,511.856,348.836z M497.745,362.649L63.547,421.425c-0.537,0.073-1.07,0.108-1.597,0.108      c-5.812,0-10.873-4.296-11.674-10.215l-37.1-274.072c-0.874-6.456,3.651-12.398,10.106-13.272l434.197-58.776      c0.537-0.072,1.07-0.108,1.597-0.108c5.812,0,10.874,4.296,11.675,10.215l37.101,274.073      C508.726,355.834,504.201,361.775,497.745,362.649z"/>
				<path style="fill:#000E3F;" d="M260.904,135.698c-1.102,0.16-1.869,1.184-1.711,2.288c1.008,6.99-2.047,15.403-9.689,17.223      c-3.952,0.945-7.056-0.462-8.958-1.806c-3.6-2.548-6.251-7.232-6.752-11.939c-0.12-1.112-1.15-1.905-2.223-1.795      c-1.109,0.117-1.912,1.114-1.795,2.223c0.629,5.9,3.862,11.574,8.438,14.809c2.68,1.896,5.636,2.861,8.695,2.861      c1.166,0,2.344-0.14,3.528-0.422c9.975-2.376,14.015-12.969,12.755-21.731C263.035,136.307,262.029,135.536,260.904,135.698z"/>
				<path style="fill:#000E3F;" d="M288.396,130.328l6.285-2.598c1.032-0.426,1.521-1.607,1.096-2.638      c-0.429-1.032-1.607-1.517-2.638-1.096l-5.994,2.478c-0.079-0.131-0.161-0.258-0.247-0.385l3.629-5.067      c0.651-0.908,0.442-2.169-0.465-2.818c-0.911-0.656-2.175-0.442-2.818,0.464l-3.399,4.746c-0.85-0.421-1.795-0.717-2.849-0.814      c-4.228-0.389-8.749,2.296-9.962,7.178c-2.135,8.592,8.643,13.564,14.853,7.552      C287.864,135.417,288.626,132.816,288.396,130.328z"/>
				<path style="fill:#000E3F;" d="M196.844,140.971l6.752,0.834c0.44,2.46,1.866,4.767,4.282,6.087      c7.584,4.144,16.654-3.514,12.311-11.229c-2.468-4.385-7.54-5.771-11.513-4.271c-0.99,0.374-1.82,0.91-2.528,1.541l-4.538-3.671      c-0.87-0.703-2.141-0.559-2.843,0.3c-0.701,0.868-0.566,2.139,0.3,2.842l4.847,3.921c-0.048,0.144-0.094,0.287-0.135,0.434      l-6.438-0.795c-1.078-0.14-2.114,0.649-2.252,1.756C194.951,139.826,195.738,140.836,196.844,140.971z"/>
				<path style="fill:#000E3F;" d="M377.092,301.097l-4.103,2.115c-1.287,0.663-1.794,2.248-1.129,3.537      c0.464,0.904,1.384,1.423,2.335,1.423c0.406,0,0.816-0.095,1.202-0.293l4.103-2.115c1.287-0.663,1.794-2.247,1.13-3.537      C379.966,300.937,378.379,300.432,377.092,301.097z"/>
				<path style="fill:#000E3F;" d="M348.366,315.905l-4.103,2.115c-1.287,0.663-1.794,2.247-1.129,3.537      c0.464,0.904,1.384,1.422,2.335,1.422c0.406,0,0.816-0.095,1.201-0.293l4.103-2.115c1.287-0.663,1.794-2.247,1.129-3.537      C351.238,315.745,349.651,315.238,348.366,315.905z"/>
				<path style="fill:#000E3F;" d="M362.73,308.5l-4.105,2.117c-1.29,0.665-1.794,2.248-1.129,3.537      c0.464,0.904,1.384,1.422,2.335,1.422c0.406,0,0.816-0.095,1.201-0.293l4.105-2.117c1.289-0.665,1.795-2.247,1.13-3.537      C365.604,308.34,364.017,307.835,362.73,308.5z"/>
				<path style="fill:#000E3F;" d="M416.821,235.008c-1.418-0.338-2.825,0.539-3.161,1.952l-1.062,4.493      c-0.336,1.411,0.539,2.825,1.95,3.161c0.203,0.047,0.406,0.07,0.606,0.07c1.19,0,2.268-0.814,2.554-2.022l1.062-4.493      C419.107,236.758,418.232,235.344,416.821,235.008z"/>
				<path style="fill:#000E3F;" d="M413.1,250.732c-1.416-0.34-2.827,0.539-3.161,1.952l-1.064,4.493      c-0.334,1.411,0.541,2.825,1.952,3.161c0.203,0.047,0.406,0.07,0.606,0.07c1.19,0,2.268-0.814,2.552-2.022l1.066-4.493      C415.385,252.481,414.511,251.068,413.1,250.732z"/>
				<path style="fill:#000E3F;" d="M439.941,307.959c-1.147-0.893-2.797-0.688-3.686,0.458c-0.89,1.145-0.685,2.795,0.458,3.686      l3.643,2.836c0.48,0.374,1.048,0.555,1.612,0.555c0.782,0,1.558-0.347,2.074-1.012c0.89-1.145,0.685-2.796-0.458-3.686      L439.941,307.959z"/>
				<path style="fill:#000E3F;" d="M427.193,298.029c-1.147-0.893-2.798-0.687-3.686,0.458c-0.891,1.145-0.685,2.795,0.457,3.686      l3.643,2.836c0.48,0.374,1.048,0.555,1.612,0.555c0.782,0,1.558-0.347,2.074-1.012c0.89-1.145,0.685-2.795-0.457-3.686      L427.193,298.029z"/>
				<path style="fill:#000E3F;" d="M319.88,211.663c-5.005,2.139-9.799,3.495-14.699,5.402l-0.078-0.035      c-0.86-1.719-2.253-4.64-2.711-6.962c0.541-0.916,4.456-1.735,6.501-3.238c-1.119-2.706-1.758-5.339-3.125-7.693l-0.023-0.057      c-2.306,0.833-4.621,1.799-6.913,2.501l-0.078-0.035c-1.282-1.811-1.691-4.343-2.595-6.496l0.037-0.074l0.169-0.066      c4.725-2.356,10.007-3.45,14.325-6.349l-0.022-0.057c-1.018-2.615-1.667-5.439-3.079-7.906      c-0.13-0.335-14.462,5.505-22.922,9.311c4.241,13.031,9.747,25.188,14.777,38.107c7.419-2.182,15.278-5.883,22.871-8.774      c-0.253-2.467-1.295-5.143-2.393-7.472L319.88,211.663z"/>
				<path style="fill:#000E3F;" d="M350.693,201.139c-1.42-2.334-2.191-5.306-3.266-7.899l-21.104,8.217      c0.172,0.443,2.22,6.191,2.805,7.692c1.114-0.434,20.399-7.556,21.513-7.99L350.693,201.139z"/>
				<path style="fill:#000E3F;" d="M346.205,189.612c-1.42-2.333-2.191-5.306-3.266-7.898l-21.103,8.217      c0.172,0.443,2.22,6.191,2.805,7.692c1.113-0.434,20.399-7.556,21.512-7.99L346.205,189.612z"/>
				<path style="fill:#000E3F;" d="M370.147,156.118c-2.34,0.911-7.033,3.184-8.155,3.431c-0.665,2.243,0.605,9.957,0.096,9.964      c-0.113,0.044-0.248,0.032-0.4-0.035c-1.843-1.271-4.951-5.96-6.952-6.979l-0.056,0.022c-2.384,1.123-5.694,1.836-7.463,3.226      c11.551,30.324,14.196,37.116,14.865,38.013c0.099,0.087,0.174,0.123,0.23,0.101c2.397-0.933,5.49-1.882,7.733-3.201      c-3.137-6.731-6.287-13.843-8.387-21.038c0.012-0.135,5.333,6.773,6.467,6.391c0.614-0.239-0.015-7.621,0.343-9.494      c3.15,5.954,6.462,15.117,9.212,21.358c1.784-0.695,5.04-2.218,7.372-2.805l-6.746-17.829      C375.92,169.966,372.644,163.354,370.147,156.118z"/>
				<path style="fill:#000E3F;" d="M411.81,166.636c-2.354,0.21-5.365,2.024-7.594,2.571c0.328,1.987,1.587,3.742,1.425,5.795      c-0.139,1.783-1.514,3.024-3.197,3.489c-2.41,0.232-4.099-1.801-5.166-3.887c-2.418-4.896-6.028-15.482-5.959-15.96      c-0.008-0.188-0.047-0.623,0.054-0.853c0.374-0.852,1.556-1.437,2.438-1.976c4.278-1.856,5.185,3.112,6.782,5.888      c3.032-0.604,5.725-1.267,8.216-2.938c-0.448-11.691-14.669-16.928-23.557-9.619c-0.949,0.69-1.746,1.451-2.344,2.386      c-0.893,1.826-1.265,3.829-1.176,6.04c-0.01,1.287,0.175,2.753,0.843,3.966c4.513,12.093,6.802,17.806,9.163,23.046      c3.041,5.997,10.514,5.267,15.524,2.485C415.324,183.733,417.308,173.344,411.81,166.636z"/>
				<path style="fill:#000E3F;" d="M432.056,149.924c-2.825,1.1-5.072,2.16-7.998,3.189c-0.424-0.02-0.379-1.536-0.377-2.023      c1.224-3.769,6.892-5.94,5.412-10.901c-0.312-0.891-0.819-2.001-1.206-2.903c-1.141-2.247-2.955-3.936-5.298-4.186      c-2.707-0.028-7.914,2.069-8.762,4.985c-0.896,2.408-0.387,5.352,1.295,8.139l0.025,0.065l0.035-0.014      c1.525-0.408,2.884-1.048,4.746-2.033l0.034-0.014l-0.025-0.065c-0.513-1.599-1.24-4.047,0.87-4.869      c2.117-0.523,3.678,2.612,2.363,4.432c-1.533,2.691-3.819,4.518-4.987,7.669c-0.512,2.819,1.124,5.475,2.002,8.501      c0.014,0.035,0.025,0.065,0.068,0.084l1.466-0.571l12.286-4.969c0.096-0.037,0.131-0.051,0.118-0.081      c-0.32-0.437-0.433-0.919-0.622-1.406C433.114,151.872,432.759,150.663,432.056,149.924z"/>
				<path style="fill:#000E3F;" d="M225.205,272.731c-2.659-2.26-5.54-4.498-8.605-6.702c2.369-2.94,4.55-5.863,6.513-8.749      c11.636-17.11,14.529-31.367,8.148-40.144c-2.673-3.675-8.29-8.057-19.874-8.057h-0.003c-9.685,0-21.763,3.02-34.931,8.444      c-1.682-4.304-3.469-8.379-5.362-12.15c-9.152-18.235-19.539-27.873-30.039-27.873c0,0,0,0-0.001,0      c-0.738,0-1.481,0.05-2.21,0.149c-10.753,1.455-19.055,13.401-23.376,33.637c-0.987,4.624-1.746,9.585-2.289,14.798      c-5.802-0.704-11.368-1.09-16.577-1.09c-25.295,0-33.731,8.316-36.354,15.292c-3.818,10.157,2.761,23.131,18.527,36.533      c2.66,2.261,5.54,4.498,8.604,6.702c-2.369,2.94-4.55,5.863-6.513,8.749c-11.635,17.111-14.529,31.367-8.148,40.144      c2.673,3.675,8.291,8.057,19.878,8.057c9.684,0,21.763-3.019,34.931-8.444c1.682,4.304,3.47,8.379,5.363,12.15      c9.152,18.234,19.539,27.872,30.04,27.872c0.738,0,1.481-0.05,2.209-0.149c10.753-1.455,19.055-13.401,23.376-33.637      c0.988-4.624,1.747-9.584,2.289-14.798c5.802,0.704,11.368,1.09,16.577,1.09c25.295,0,33.731-8.316,36.354-15.292      C247.55,299.107,240.971,286.133,225.205,272.731z M211.385,213.119c7.659,0,13.455,2.054,16.609,6.393      c6.524,8.973,0.266,25.694-14.712,44.194c-8.167-5.563-17.531-10.867-27.701-15.703c-2.115-9.491-4.71-18.478-7.698-26.689      C190.771,215.996,202.374,213.12,211.385,213.119z M187.161,318.899c-7.845-1.155-16.229-2.928-24.94-5.324      c4.007-2.59,8.016-5.327,12-8.223c4.638-3.372,9.098-6.851,13.367-10.393C187.899,303.409,187.748,311.454,187.161,318.899z       M171.845,302.084c-4.945,3.596-9.9,6.916-14.818,9.996c-5.551-1.66-11.206-3.552-16.919-5.7      c-6.331-2.38-12.407-4.945-18.187-7.638c-1.337-6.237-2.484-12.733-3.391-19.437c-0.907-6.704-1.531-13.27-1.901-19.637      c4.856-4.134,10.033-8.223,15.504-12.201c4.945-3.596,9.9-6.916,14.818-9.996c5.551,1.66,11.206,3.552,16.919,5.7      c6.331,2.38,12.407,4.944,18.187,7.638c1.337,6.238,2.484,12.733,3.391,19.438c0.908,6.703,1.532,13.27,1.901,19.637      C182.493,294.017,177.316,298.106,171.845,302.084z M152.457,314.872c-7.766,4.63-15.381,8.579-22.641,11.78      c-2.546-7.02-4.832-14.727-6.777-22.955c5.057,2.28,10.281,4.448,15.648,6.465C143.301,311.896,147.892,313.435,152.457,314.872      z M114.527,279.847c0.768,5.674,1.715,11.254,2.812,16.698c-8.892-4.375-16.986-9.046-24.043-13.825      c5.536-6.487,12.102-13.146,19.516-19.732C113.204,268.529,113.756,274.156,114.527,279.847z M116.817,230.652      c7.845,1.155,16.229,2.928,24.94,5.324c-4.007,2.59-8.016,5.327-12,8.223c-4.638,3.372-9.098,6.851-13.367,10.394      C116.078,246.142,116.229,238.097,116.817,230.652z M151.521,234.679c7.767-4.63,15.381-8.578,22.641-11.779      c2.546,7.02,4.831,14.727,6.777,22.955c-5.057-2.28-10.281-4.447-15.648-6.465C160.677,237.654,156.086,236.116,151.521,234.679      z M189.451,269.704c-0.768-5.674-1.715-11.254-2.812-16.698c8.892,4.375,16.986,9.046,24.042,13.824      c-5.536,6.487-12.102,13.146-19.516,19.732C190.774,281.022,190.221,275.395,189.451,269.704z M139.383,181.653      c0.554-0.075,1.11-0.112,1.668-0.112c11.085-0.001,22.76,14.676,31.683,37.562c-8.51,3.742-17.411,8.434-26.39,13.97      c-10.092-2.944-19.9-5.081-29.164-6.427C119.821,200.965,127.807,183.219,139.383,181.653z M64.027,241.708      c3.184-8.47,15.343-12.675,32.572-12.675c5.014,0,10.469,0.37,16.245,1.081c-0.702,8.704-0.815,18.038-0.329,27.759      c-8.529,7.374-16.156,14.984-22.557,22.527C70.602,266.548,60.123,252.093,64.027,241.708z M92.594,336.431      c-7.66,0-13.455-2.055-16.61-6.393c-6.524-8.973-0.266-25.694,14.712-44.194c8.167,5.563,17.532,10.867,27.701,15.703      c2.115,9.491,4.71,18.479,7.699,26.69C113.207,333.556,101.605,336.431,92.594,336.431z M164.595,367.898      c-0.554,0.075-1.11,0.112-1.667,0.112c-11.085,0-22.759-14.677-31.682-37.561c8.51-3.743,17.411-8.434,26.39-13.971      c10.093,2.944,19.9,5.081,29.164,6.427C184.158,348.586,176.171,366.331,164.595,367.898z M239.951,307.843      c-3.184,8.47-15.343,12.674-32.573,12.674c-5.014,0-10.469-0.369-16.245-1.08c0.702-8.705,0.815-18.038,0.329-27.759      c8.529-7.374,16.156-14.985,22.557-22.527C233.377,283.003,243.855,297.458,239.951,307.843z"/>
			</g>
			<g>
				<path style="fill:#FFFFFF;" d="M219.19,328.379c-6.268-3.343-8.638-11.135-5.295-17.402c3.343-6.268,11.134-8.638,17.402-5.295      c6.268,3.343,8.638,11.134,5.295,17.402C233.249,329.351,225.457,331.722,219.19,328.379z"/>
				<path style="fill:#FFFFFF;" d="M70.095,314.969c-6.268-3.343-8.638-11.135-5.295-17.402c3.343-6.268,11.135-8.638,17.402-5.295      c6.268,3.343,8.638,11.135,5.295,17.402C84.154,315.942,76.363,318.313,70.095,314.969z"/>
				<path style="fill:#FFFFFF;" d="M157.068,211.608c-6.268-3.343-8.638-11.135-5.295-17.402c3.343-6.268,11.135-8.638,17.402-5.295      c6.268,3.343,8.638,11.135,5.295,17.402C171.127,212.581,163.335,214.952,157.068,211.608z"/>
			</g>
		</g>
		<g>
			<g>
				<g>
					<path style="fill:#FFCF00;" d="M478.748,114.89c-0.161,0.093-0.237,0.288-0.169,0.483l1.865,4.947       c0.146,0.399-0.291,0.714-0.611,0.471L409.61,67.312c-0.33-0.252-0.132-0.748,0.28-0.722l4.718,0.444l0.558,0.047       c0.289,0.022,0.514-0.274,0.416-0.547l-2.146-5.665c-0.11-0.281,0.116-0.578,0.416-0.547l6.031,0.562       c0.289,0.022,0.514-0.274,0.416-0.547l-1.876-4.956c-0.143-0.379,0.292-0.714,0.622-0.462l70.223,53.478       c0.194,0.147,0.198,0.402,0.076,0.562c-0.104,0.065-0.19,0.107-0.267,0.138c-0.04,0.006-0.069,0.02-0.1,0.014l-5.265-0.482       c-0.3-0.031-0.526,0.265-0.416,0.547c0.474,1.315,0.881,2.363,1.21,3.207l0.809,2.128c0.002,0.02,0.005,0.04,0.005,0.04       l0.109,0.281c0.043,0.086,0.036,0.189-0.004,0.266c0,0,0,0,0.003,0.02c-0.05,0.16-0.217,0.285-0.414,0.26       c-1.682-0.13-2.969-0.282-3.931-0.367l-1.748-0.162c-0.02,0.003-0.032-0.006-0.04,0.005l-0.3-0.031       C478.9,114.808,478.811,114.83,478.748,114.89z"/>
					<g style="opacity:0.5;">
						<path style="fill:#FD8A02;" d="M478.748,114.89c-0.236,0.073-0.268,0.21-0.169,0.483l1.865,4.947        c0.146,0.399-0.291,0.714-0.611,0.471L409.61,67.312c-0.33-0.252-0.132-0.748,0.28-0.722l4.718,0.444        c4.027,1.447,7.893,3.528,11.47,5.802c9.974,6.372,18.952,13.982,27.963,21.618c4.487,3.795,10.609,10.005,17.063,9.611        c1.833-0.116,3.387-1.164,5.207-1.451c2.089-0.334,3.899-0.252,5.613,0.19l7.346,5.594c0.194,0.147,0.198,0.402,0.076,0.562        c-0.104,0.065-0.19,0.107-0.267,0.138c-0.04,0.006-0.069,0.02-0.1,0.014l-5.265-0.482c-0.3-0.031-0.526,0.265-0.416,0.547        c0.474,1.315,0.881,2.363,1.21,3.207c0.388,0.979,0.666,1.677,0.809,2.128c0.002,0.02,0.005,0.04,0.005,0.04        c0.072,0.235,0.106,0.404,0.105,0.548c0,0,0,0,0.003,0.02c-0.013,0.206-0.145,0.285-0.414,0.26        c-1.682-0.13-2.969-0.282-3.931-0.367c-0.778-0.088-1.348-0.144-1.748-0.162c-0.02,0.003-0.032-0.006-0.04,0.005        C479.049,114.849,478.877,114.862,478.748,114.89z"/>
					</g>
				</g>
				<path style="fill:#000E3F;" d="M418.799,54.835c0.081,0,0.166,0.026,0.242,0.084l70.223,53.478      c0.308,0.235,0.137,0.721-0.234,0.721c-0.016,0-0.032-0.001-0.047-0.003l-5.276-0.482c-0.015-0.002-0.029-0.002-0.044-0.002      c-0.275,0-0.47,0.277-0.372,0.549l2.139,5.659c0.105,0.268-0.096,0.548-0.382,0.548c-0.011,0-0.022,0-0.035-0.001l-6.025-0.558      c-0.014-0.002-0.029-0.002-0.044-0.002c-0.275,0-0.47,0.276-0.372,0.549l1.874,4.95c0.108,0.292-0.117,0.548-0.373,0.548      c-0.082,0-0.167-0.026-0.245-0.085L409.605,67.31c-0.31-0.236-0.141-0.72,0.241-0.72c0.013,0,0.027,0,0.041,0.002l4.72,0.44      l0.55,0.05c0.011,0.001,0.023,0.002,0.035,0.002c0.285,0,0.486-0.28,0.381-0.548l-2.139-5.659      c-0.098-0.273,0.097-0.549,0.372-0.549c0.015,0,0.03,0,0.045,0.002l6.025,0.557c0.011,0.001,0.024,0.001,0.035,0.001      c0.285,0,0.486-0.28,0.381-0.548l-1.868-4.958C418.311,55.094,418.541,54.835,418.799,54.835 M418.799,50.796      c-1.472,0-2.846,0.727-3.677,1.946c-0.72,1.057-0.942,2.365-0.629,3.59l-0.271-0.025c-0.124-0.012-0.292-0.02-0.417-0.02      c-1.444,0-2.801,0.706-3.63,1.888c-0.832,1.186-1.034,2.709-0.54,4.074l0.114,0.302c-1.868,0.04-3.512,1.243-4.112,3.02      c-0.608,1.806,0.002,3.797,1.521,4.953l70.223,53.477c0.771,0.588,1.727,0.911,2.692,0.911c1.453,0,2.816-0.714,3.647-1.908      c0.736-1.058,0.969-2.38,0.657-3.621l0.264,0.025c0.124,0.012,0.283,0.019,0.407,0.019c1.473,0,2.848-0.725,3.678-1.94      c0.827-1.212,1.001-2.751,0.467-4.119l-0.08-0.211c1.867-0.034,3.515-1.238,4.116-3.017c0.611-1.807,0.002-3.797-1.514-4.954      l-70.226-53.48C420.718,51.119,419.763,50.796,418.799,50.796L418.799,50.796z"/>
			</g>
			<g>
				<g>
					<path style="fill:#FFCF00;" d="M15.991,177.532c0.18,0.047,0.305,0.214,0.292,0.421l-0.483,5.264       c-0.034,0.423,0.471,0.61,0.714,0.291l53.478-70.223c0.252-0.33-0.072-0.756-0.462-0.622l-4.43,1.683l-0.526,0.194       c-0.272,0.098-0.569-0.127-0.547-0.416l0.563-6.031c0.031-0.301-0.265-0.526-0.547-0.416l-5.664,2.146       c-0.273,0.098-0.569-0.127-0.547-0.416l0.491-5.276c0.037-0.403-0.471-0.611-0.722-0.281L4.123,174.072       c-0.148,0.193-0.084,0.44,0.076,0.562c0.117,0.035,0.211,0.053,0.295,0.062c0.04-0.006,0.071,0.001,0.1-0.013l4.947-1.865       c0.282-0.11,0.577,0.116,0.547,0.416c-0.107,1.393-0.222,2.512-0.314,3.413l-0.214,2.266c0.003,0.02,0.006,0.04,0.006,0.04       l-0.031,0.3c-0.018,0.094,0.016,0.192,0.075,0.256c0,0,0,0,0.003,0.02c0.091,0.141,0.285,0.217,0.469,0.141       c1.587-0.572,2.788-1.061,3.692-1.399l1.643-0.62c0.02-0.003,0.029-0.014,0.04-0.006l0.281-0.109       C15.822,177.494,15.914,177.492,15.991,177.532z"/>
					<g style="opacity:0.5;">
						<path style="fill:#FD8A02;" d="M15.991,177.532c0.246,0.007,0.314,0.131,0.292,0.421l-0.483,5.264        c-0.034,0.423,0.471,0.61,0.714,0.291l53.478-70.223c0.252-0.33-0.072-0.756-0.462-0.622l-4.43,1.683        c-3.497,2.465-6.671,5.499-9.515,8.643c-7.921,8.795-14.552,18.518-21.209,28.275c-3.317,4.852-7.567,12.465-13.893,13.801        c-1.798,0.376-3.574-0.221-5.405-0.014c-2.103,0.234-3.825,0.794-5.361,1.675l-5.594,7.346        c-0.148,0.193-0.084,0.44,0.076,0.562c0.117,0.035,0.211,0.053,0.295,0.062c0.04-0.006,0.071,0.001,0.1-0.013l4.947-1.865        c0.282-0.11,0.577,0.116,0.547,0.416c-0.107,1.393-0.222,2.512-0.314,3.413c-0.114,1.047-0.197,1.794-0.214,2.266        c0.003,0.02,0.006,0.04,0.006,0.04c-0.007,0.246,0.006,0.418,0.045,0.556c0,0,0,0,0.003,0.02        c0.067,0.195,0.216,0.236,0.469,0.141c1.587-0.572,2.788-1.061,3.692-1.399c0.726-0.292,1.261-0.498,1.643-0.62        c0.02-0.003,0.029-0.014,0.04-0.006C15.69,177.573,15.859,177.54,15.991,177.532z"/>
					</g>
				</g>
				<path style="fill:#000E3F;" d="M57.921,103.687c0.219,0,0.431,0.176,0.402,0.441l-0.483,5.276      c-0.026,0.247,0.17,0.442,0.401,0.442c0.047,0,0.096-0.008,0.145-0.026l5.659-2.139c0.05-0.019,0.1-0.028,0.148-0.028      c0.225,0,0.418,0.195,0.398,0.445l-0.557,6.024c-0.026,0.247,0.17,0.442,0.401,0.442c0.047,0,0.096-0.008,0.145-0.026      l0.516-0.194l4.434-1.679c0.052-0.019,0.102-0.028,0.15-0.028c0.312,0,0.524,0.368,0.312,0.645l-53.478,70.223      c-0.085,0.112-0.202,0.161-0.317,0.161c-0.216,0-0.425-0.175-0.401-0.442l0.489-5.27c0.02-0.25-0.174-0.445-0.399-0.445      c-0.049,0-0.098,0.009-0.148,0.028l-5.659,2.139c-0.049,0.018-0.098,0.026-0.146,0.026c-0.231,0-0.427-0.195-0.401-0.442      l0.557-6.025c0.02-0.25-0.174-0.445-0.398-0.445c-0.049,0-0.098,0.009-0.148,0.029l-4.958,1.868      c-0.052,0.02-0.102,0.029-0.151,0.029c-0.306,0-0.523-0.37-0.312-0.647l53.477-70.223      C57.689,103.736,57.806,103.687,57.921,103.687 M57.922,99.647C57.922,99.647,57.922,99.647,57.922,99.647L57.922,99.647      c-1.395,0-2.682,0.638-3.53,1.751L0.913,171.622c-1.03,1.353-1.201,3.14-0.447,4.662c0.756,1.525,2.278,2.473,3.973,2.473      c0.372,0,0.74-0.046,1.1-0.138l-0.025,0.27c-0.127,1.198,0.279,2.45,1.119,3.383c0.841,0.935,2.046,1.472,3.305,1.472      c0.523,0,1.039-0.091,1.532-0.271l0.293-0.11c0.026,1.08,0.436,2.112,1.16,2.903c0.84,0.917,2.036,1.443,3.28,1.443      c1.395,0,2.681-0.639,3.53-1.752l53.479-70.224c1.03-1.352,1.203-3.138,0.45-4.66c-0.755-1.525-2.278-2.472-3.975-2.472      c-0.37,0-0.735,0.045-1.092,0.136l0.025-0.263c0.103-1.288-0.323-2.519-1.162-3.428c-0.837-0.908-2.026-1.428-3.259-1.428      c-0.559,0-1.106,0.104-1.627,0.309l-0.199,0.075c-0.016-1.032-0.415-2.072-1.136-2.874      C60.391,100.185,59.184,99.647,57.922,99.647L57.922,99.647L57.922,99.647z"/>
			</g>
		</g>
		<g>
			<g>
				<path style="fill:#FFCF00;" d="M219.553,441.532c-1.166,2.595-0.006,5.653,2.597,6.822c2.603,1.17,5.66,0.009,6.83-2.594      c0.061-0.14-1.329,3.084,46.99-109.347c12.917-30.044,18.414-43.5,39.4-92.333c0.697-1.628-0.053-3.507-1.678-4.213      c-1.614-0.691-3.476,0.04-4.193,1.634l-56.715,125.97L219.553,441.532z"/>
				<path style="opacity:0.5;fill:#FD8A02;" d="M219.553,441.532c-1.166,2.595-0.006,5.653,2.597,6.822      c2.603,1.17,5.66,0.009,6.83-2.594c0.061-0.14-1.329,3.084,46.99-109.347c-6.981,10.652-15.273,22.313-23.185,31.058      L219.553,441.532z"/>
			</g>
			<path style="fill:#000E3F;" d="M312.429,239.608c0.422,0,0.852,0.084,1.264,0.261c1.625,0.705,2.375,2.585,1.678,4.213     c-20.987,48.833-26.483,62.288-39.4,92.333c-48.319,112.431-46.929,109.207-46.99,109.347c-0.861,1.915-2.742,3.049-4.714,3.049     c-0.708,0-1.428-0.147-2.116-0.456c-2.603-1.169-3.763-4.227-2.597-6.822l33.233-74.06l56.715-125.97     C310.033,240.317,311.201,239.608,312.429,239.608 M312.429,235.568c-2.848,0-5.444,1.679-6.613,4.277l-56.714,125.969     l-33.235,74.064c-1.005,2.239-1.079,4.738-0.204,7.036c0.874,2.298,2.59,4.118,4.833,5.125c1.196,0.538,2.465,0.81,3.771,0.81     c3.619,0,6.916-2.133,8.399-5.434c0.002-0.003,0.002-0.003,0.348-0.808c1.351-3.146,8.505-19.797,46.669-108.599     c5.728-13.323,9.933-23.235,14.803-34.711c6.054-14.268,12.915-30.439,24.598-57.622c1.569-3.662-0.128-7.928-3.781-9.514     C314.375,235.766,313.414,235.568,312.429,235.568L312.429,235.568z"/>
		</g>
	</g>
	<g>
		<path style="fill:#FD8A02;" d="M391.117,427.347l11.162,1.071c0.713,0.069,1.413-0.218,1.873-0.766l7.211-8.588    c1.159-1.38,3.398-0.832,3.789,0.927l2.43,10.947c0.155,0.699,0.644,1.277,1.308,1.545l10.396,4.204    c1.671,0.676,1.842,2.974,0.289,3.89l-9.66,5.694c-0.617,0.363-1.015,1.007-1.065,1.721l-0.786,11.186    c-0.126,1.798-2.26,2.671-3.61,1.477l-8.401-7.428c-0.536-0.474-1.272-0.654-1.966-0.481l-10.881,2.709    c-1.749,0.435-3.238-1.324-2.52-2.977l4.468-10.285c0.285-0.657,0.23-1.411-0.15-2.018l-5.939-9.511    C388.11,429.135,389.323,427.175,391.117,427.347z"/>
		<path style="fill:#FD8A02;" d="M492.816,386.018l4.668,8.65c0.298,0.552,0.849,0.922,1.472,0.99l9.771,1.059    c1.571,0.17,2.264,2.068,1.174,3.211l-6.784,7.112c-0.433,0.454-0.615,1.092-0.487,1.706l2.013,9.62    c0.323,1.546-1.267,2.793-2.691,2.109l-8.86-4.254c-0.565-0.272-1.228-0.247-1.773,0.064l-8.527,4.887    c-1.371,0.785-3.047-0.341-2.837-1.907l1.308-9.741c0.083-0.622-0.145-1.245-0.609-1.666l-7.283-6.6    c-1.17-1.061-0.617-3.004,0.938-3.287l9.668-1.766c0.617-0.113,1.139-0.522,1.396-1.094l4.027-8.966    C490.047,384.701,492.066,384.628,492.816,386.018z"/>
		<path style="fill:#FD8A02;" d="M284.65,436.945l8.039-3.024c0.513-0.193,0.898-0.626,1.03-1.158l2.066-8.336    c0.332-1.34,2.057-1.717,2.918-0.639l5.36,6.711c0.342,0.428,0.873,0.661,1.42,0.622l8.567-0.611    c1.377-0.098,2.269,1.425,1.509,2.578l-4.726,7.171c-0.302,0.458-0.359,1.035-0.153,1.543l3.229,7.959    c0.519,1.28-0.654,2.598-1.986,2.232l-8.281-2.279c-0.529-0.145-1.095-0.021-1.514,0.332l-6.572,5.53    c-1.056,0.889-2.673,0.181-2.736-1.198l-0.392-8.58c-0.025-0.548-0.318-1.048-0.783-1.338l-7.29-4.541    C283.184,439.188,283.358,437.431,284.65,436.945z"/>
	</g>
</g>















</svg>
