<svg id="Layer_1" enable-background="new 0 0 180 180" height="200" viewBox="0 0 180 180" width="200"
     xmlns="http://www.w3.org/2000/svg">
    <g id="_x37_">
        <g>
            <path d="m145.7936096 85.6357498-30.6769943 22.1396942-24.1506271-6.3507995v-28.9189987z" fill="#2b5bde"/>
        </g>
        <g>
            <g>
                <path d="m106.6965866 82.0820465c-10.5879974 1.728302-20.5825958-5.4449005-22.3108749-16.0432968-1.7255249-10.6558571 5.511528-20.601265 16.0434799-22.3110046 10.5984192-1.7386971 20.5827255 5.4554024 22.3109207 16.0435028l.0312042.2185974c1.5928955 10.5046997-5.5491028 20.3641052-16.0747299 22.0922012z"
                      fill="#ff6161"/>
            </g>
            <g>
                <g>
                    <path d="m111.2671127 63.217247-2.8422012.4580994.0416031-3.7793007 3.7687988-.6140976c1.1973038-.1979027 1.842804-1.7284012.655899-2.8423004-.2289963-.2082024-.5621948-.2914009-.8744965-.239502l-3.4669037.5623016.1352997-3.4981003c.0209045-.8538017-.6455002-1.5616989-1.4992218-1.5721016-.8432999-.0312996-1.5615997.6455002-1.5719986 1.4990997l-.1561813 4.0811996-3.8208237.6247025.1456985-3.4981003c.0208054-.8536987-.6558685-1.5616989-1.5095978-1.5825005-.8536987-.0209007-1.5512772.645401-1.5824966 1.4991989l-.1456985 4.0811005-3.4669037.5726013c-.3124008.0416985-.6037979.2290001-.7496033.5102005-.7703934 1.4263.3227005 2.6756973 1.530426 2.4777985l2.6027756-.426899-.0416946 3.7791977c-.101326.0166626-4.0118713.6595306-3.8000031.6247025-.3123016.0521011-.6037979.2289963-.7496033.5101013-.7807999 1.4263992.3227005 2.6860962 1.5304031 2.4882965l2.9358978-.4788971-.1144943 4.1123962c-.0208054.8536987.655899 1.5616989 1.5095978 1.5824051.9296417 0 1.5604401-.7043457 1.5824966-1.4992065l.114624-4.7056961c.1013412-.016571 4.0326767-.6593475 3.8207779-.6247025-.0027924.1006546-.1220474 4.3946686-.114502 4.1228027-.0208969.8536987.655899 1.5615997 1.5096054 1.5824966.8861084 0 1.5493469-.681076 1.5720215-1.5095978.0026779-.1006546.133316-5.0077515.125-4.6953964l3.7166977-.6143036c.3124008-.0521011.593399-.2289963.7496033-.5102005.7704012-1.4262998-.3330991-2.6756971-1.5408018-2.4777982zm-9.7551269 1.5929031.0416031-3.7792053 3.8208008-.6245995-.052002 3.7792015z"
                          fill="#fff"/>
                </g>
            </g>
            <g>
                <path d="m106.6965866 82.0820465c-10.5879974 1.728302-20.5825958-5.4449005-22.3108749-16.0432968-.41642-2.5716019-.3123245-5.1119041.2394791-7.4961014 3.5397949 2.925499 7.4439011 5.4553986 11.7123947 7.1106949l-1.7177963.2812042c-.3123016.0521011-.6037979.2289963-.7496033.5101013-.7807999 1.4263992.3227005 2.6860962 1.5304031 2.4882965l2.9358978-.4788971-.1144943 4.1123962c-.0208054.8536987.655899 1.5616989 1.5095978 1.5824051.9296417 0 1.5604401-.7043457 1.5824966-1.4992065l.114624-4.7056961 2.6338806-.4269028c.3955994.0312042.7807999.0625 1.1764984.0833054l-.1041031 3.8416977c-.0208969.8536987.655899 1.5615997 1.5096054 1.5824966.8861084 0 1.5493469-.681076 1.5720215-1.5095978l.1042023-3.9561996c6.180275-.43647 11.3442764-3.3952866 14.4505005-7.5689011 1.5928955 10.5046998-5.5491028 20.3641053-16.0747299 22.0922013z"
                      fill="#f04444"/>
            </g>
            <g>
                <path d="m104.0625916 67.5170441-2.6338806.4269028-.114624 4.7056961c-.0219803.7923279-.6499176 1.4992065-1.5824966 1.4992065-.8536987-.0207062-1.5304031-.7287064-1.5095978-1.5824051l.1144943-4.1123962-2.9358978.4788971c-1.2077026.1977997-2.311203-1.0618973-1.5304031-2.4882965.1458054-.281105.4373016-.4580002.7496033-.5101013l1.7177963-.2812042c2.1786879.8719405 4.9839858 1.597618 7.725006 1.8637008z"
                      fill="#ebf2ff"/>
            </g>
            <g>
                <path d="m108.320816 67.5587463-.1042023 3.9561996c-.0226288.826828-.6840363 1.5095978-1.5720215 1.5095978-.8537064-.0208969-1.5305023-.7287979-1.5096054-1.5824966l.1041031-3.8416977c1.0307007.0519944 2.0614014.0415955 3.0817261-.0416031z"
                      fill="#ebf2ff"/>
            </g>
        </g>
        <g>
            <path d="m90.9659882 72.5056458v28.9189987l-40.8844986-10.7456971z" fill="#1940ce"/>
        </g>
        <g>
            <g>
                <path d="m87.2695923 104.007843c-10.7674637 1.7601776-20.7308273-5.7076874-22.3214035-16.0330963-1.728199-10.5985031 5.4555283-20.5931015 16.0539017-22.3214035 5.4553986-.8848953 10.7443008.583107 14.8358002 3.6752014h.0103989c3.8416977 2.9047012 6.6214981 7.2460022 7.4542999 12.3787994 1.7387008 10.5881043-5.4448777 20.5722046-16.0329972 22.300499z"
                      fill="#ffca6c"/>
            </g>
            <g>
                <g>
                    <path d="m91.8399887 85.1428452-2.8526001.468605.0521011-3.7792053 3.7583008-.6141968c1.2078018-.1978989 1.8531952-1.7387009.6663971-2.8423996-.2394714-.218605-.5621948-.3018036-.8744736-.2498016l-3.4774246.5622025.1457977-3.4877014c.0209045-.8535995-.655899-1.5615997-1.5095978-1.5825043-.8432999-.0206985-1.5512009.6455002-1.5720978 1.4993057l-.156105 4.0811005-3.8105011.6246948.1354065-3.4981995c.0207977-.8536987-.6454773-1.5616989-1.4991989-1.5720978-.8538055-.0310974-1.5617065.6455994-1.5825043 1.4992981l-.1561966 4.0811005-3.4669037.5623016c-.3123016.052002-.593399.2289963-.7494965.5101013-.7705002 1.4262009.3330994 2.685997 1.5408249 2.4881973l2.5922699-.426796-.0415955 3.7790985-3.8001022.614296c-.3123016.0521011-.6037979.239502-.7494965.5205994-.770401 1.4263.3227005 2.6756058 1.5303955 2.4778061l2.9358978-.4790039c-.0025406.1006622-.1109619 4.394783-.1040955 4.1229019-.0207977.8535995.6455002 1.5512009 1.4991989 1.5823975.9124985 0 1.5601578-.6930771 1.5823975-1.5095978.0026779-.1006622.1333008-5.018158.125-4.7058029l3.8105011-.6141968c-.0025482.1006622-.111084 4.3842773-.1042023 4.1123962-.0311737.8536987.6455002 1.5616989 1.4992065 1.5825043.9358597 0 1.5605011-.7065353 1.5824966-1.4991989.002449-.1006699.1221008-5.01828.114502-4.7059021.1013565-.0164642 3.9287262-.6382294 3.7167969-.6037979.3123016-.0521011.6038284-.2394028.7496033-.5205002.7785647-1.4334106-.3431013-2.6796265-1.5305021-2.4780044zm-9.7655029 1.5930023.052002-3.7790985 3.8209-.6248016-.052002 3.7791977z"
                          fill="#fff"/>
                </g>
            </g>
            <g>
                <path d="m87.2695923 104.007843c-10.3174057 1.6866074-20.0725021-5.0805969-22.1756058-15.2313995 4.0811005 2.6131058 8.932724 4.0708008 13.7531052 3.8625031l-.0521011 1.8636017c-.0207977.8535995.6455002 1.5512009 1.4991989 1.5823975.9124985 0 1.5601578-.6930771 1.5823975-1.5095978l.0625-2.3216019c1.3118057-.2602997 2.5923996-.6663971 3.8312988-1.1764984l-.0625 2.2904968c-.0311737.8536987.6455002 1.5616989 1.4992065 1.5825043.9358597 0 1.5605011-.7065353 1.5824966-1.4991989l.0936966-4.039505c.4164276-.2706985.8225021-.5518951 1.2077026-.8537979l2.5298996-.4163971c.3123016-.0521011.6038284-.2394028.7496033-.5205002.4580994-.8434067.2602997-1.6242065-.2291031-2.0821991.1666031-.1875.3123245-.3854065.4580994-.583107 3.1753998-4.3933945 4.2893982-10.5983963 2.2384033-15.6269989h.0103989c3.8416977 2.9047012 6.6214981 7.2460022 7.4542999 12.3787994 1.7387009 10.5881042-5.4448776 20.5722045-16.0329971 22.3004989z"
                      fill="#ffb63c"/>
            </g>
            <g>
                <path d="m81.9390869 92.253746-.0625 2.3216019c-.0221634.8138351-.6667938 1.5095978-1.5823975 1.5095978-.8536987-.0311966-1.5199966-.7287979-1.4991989-1.5823975l.0521011-1.8636017c.9511414-.063652 1.6373826-.0901794 3.0919953-.3852005z"
                      fill="#ebf2ff"/>
            </g>
            <g>
                <path d="m85.7703857 91.0772476c1.0828018-.4685974 2.1343307-1.0203018 3.1128998-1.6657028l-.0936966 4.039505c-.021759.7840805-.6371307 1.4991989-1.5824966 1.4991989-.8537064-.0208054-1.5303802-.7288055-1.4992065-1.5825043z"
                      fill="#ebf2ff"/>
            </g>
            <g>
                <path d="m93.370491 87.6208496c-.1457748.2810974-.4373016.468399-.7496033.5205002l-2.5298996.4163971c1.1348038-.884903 2.1759033-1.8947983 3.0503998-3.0190964.4894028.4579926.6872025 1.2387924.2291031 2.0821991z"
                      fill="#ebf2ff"/>
            </g>
        </g>
        <g>
            <g>
                <path d="m119.9916153 109.8588486c-9.0576019 1.4784012-17.6780243-3.5606003-21.0616302-11.6813049-4.8449554-11.5395737 2.4018402-24.6504211 14.7941284-26.6729965 10.7572098-1.7596436 20.6465683 5.6589279 22.3109055 16.0432968 1.7281951 10.5881042-5.4450074 20.5723037-16.0434037 22.3110046z"
                      fill="#b785ff"/>
            </g>
            <g>
                <path d="m119.9916153 109.8588486c-9.0576019 1.4784012-17.6780243-3.5606003-21.0616302-11.6813049 4.9696503 4.0742798 13.0034485 5.295372 22.2588272.9059067 6.7617416-3.0767441 12.5768585-8.73526 13.4927979-16.137207.6350098 1.4365997 1.0931091 2.9775009 1.3534088 4.6016006 1.7281951 10.5881042-5.4450074 20.5723037-16.0434037 22.3110046z"
                      fill="#a46ef2"/>
            </g>
            <g>
                <g>
                    <path d="m124.5620117 90.9940491-2.8422012.4580002.0416031-3.7792053 3.7584991-.6141968c1.2076035-.1977997 1.8531036-1.728302.6661987-2.8422012-.2289963-.2081985-.5620956-.2915955-.8744965-.239502l-3.4669037.5623016.1353989-3.4982986c.0208054-.8535995-.6454926-1.5512009-1.4991989-1.5720978-.8432999-.0312042-1.5616989.6456985-1.5720978 1.4992981l-.1560974 4.0811996-3.8209.6244965.1456985-3.4979935c.0208969-.8538055-.655899-1.5615997-1.5095978-1.5825043-.8537064-.0207977-1.5615997.645401-1.5824051 1.4991989l-.1457977 4.0811005-3.4669037.5726013c-.312294.0521011-.6037979.2290039-.7495956.5101013-.7704239 1.4263992.3227997 2.6756973 1.5303955 2.4779968l2.6028061-.4165955-.0416031 3.7792969-3.8001022.6142044c-.312294.0519943-.6038208.2394943-.7495193.5101929-.7809067 1.4367065.3227234 2.6860046 1.530426 2.488205l2.9358978-.4787979-.114502 4.1122971c-.0153046.873291.6675644 1.550148 1.5095978 1.5824966.9233475 0 1.5379639-.6763077 1.5824051-1.4992981l.1144943-4.7056961 3.8105011-.6247025-.1040955 4.1226959c-.0251389.8308105.6315613 1.5648193 1.4991989 1.5825043.9143372 0 1.5600815-.6944809 1.5824966-1.5094986.0026779-.1006622.1332092-5.0077591.1249008-4.6954041l3.7168045-.614296c.312294-.0521011.593399-.2291031.7495956-.5102005.7704013-1.4262007-.3331982-2.675598-1.5409009-2.4776991zm-5.9446945.9680938-3.8105011.6248016.0416946-3.7793961 3.8209-.6245041z"
                          fill="#fff"/>
                </g>
            </g>
        </g>
        <g>
            <path d="m50.0814896 90.6790466 2.1677017 55.2761994 62.5019226 18.1846008.3612976-56.3600998z"
                  fill="#4f91ff"/>
        </g>
        <g>
            <path d="m114.7511139 164.1398468 31.5951996-28.946106-.547699-49.5592956-30.686203 22.1453018z"
                  fill="#3d76ef"/>
        </g>
        <g>
            <path d="m11.9999914 85.6650467 21.1454973-39.8050003 50.8187981-24.1907997-11.6091003 34.8684997z"
                  fill="#4f91ff"/>
        </g>
        <g>
            <path d="m11.9999914 85.6650467 6.2785998 8.4673004 62.4957008-27.2958984-8.4191055-10.2987023z"
                  fill="#4f91ff"/>
        </g>
        <g>
            <path d="m83.9642868 21.6692467 7.0017014 9.0072002-10.1916962 36.1600018-8.4191055-10.2987023z"
                  fill="#4f91ff"/>
        </g>
        <g>
            <g>
                <path d="m160.2784119 81.9671478c-.1560974.1794968-.503891.2503967-1.043396.211998-1.4575806-.1026459-4.0404816-.8202133-4.6347046-1.3039017-.9937592-.7819061-3.6815643-6.3701172-4.0067902-7.2123947-.5226135 1.4953003-.9933014 2.7726974-1.4133148 3.8312988-.4191895 1.0598984-.7494965 1.6131973-.990387 1.6608963-.7109985.1283035-1.8318024-.0416946-3.3637085-.5094986-1.5329895-.4678955-2.3360901-.8945007-2.4104919-1.280098-.5713806-1.4324112 2.6132202-14.3956413 4.3240967-18.3331032.4113312-.9943352 5.4909515.3347359 6.9346924 1.443203.5249023.4191971 1.0821075 1.3181 1.6750031 2.6974983.5915985 1.3797035 1.0131989 2.417202 1.2644043 3.1136971.5809326-2.5470352.7023468-3.3413391.9546967-4.0251961.123703-.4076996.5989075-.6192017 1.4271088-.6350021 1.6880646-.0309906 3.683075.431324 5.1402893 1.132.7371063.3546028 1.0861969.696701 1.0467072 1.0250015-.755234 5.0100785-4.2282259 17.252945-4.9042055 18.1836014z"
                      fill="none"/>
            </g>
            <g>
                <path d="m159.2920074 80.7184448c-.1560974.1794052-.5039978.2501984-1.043396.2117996-1.4571991-.1026154-4.0406342-.820343-4.6347046-1.303894-.9936981-.7815704-3.6817627-6.3702393-4.0067902-7.2124023-.5225983 1.4953995-.9933014 2.7726974-1.4134064 3.8312988-.4190979 1.0599976-.7494965 1.6131973-.9902954 1.6610031-.7111053.1282959-1.8318024-.0418015-3.3638-.5095062-1.5330048-.4678955-2.3361053-.8945999-2.4104004-1.2801971-.5713959-1.4324799 2.613266-14.3953934 4.3240967-18.3330994.4104004-.9916725 5.4869385.3318138 6.9346008 1.4431992.5249023.4192009 1.0821991 1.3181992 1.6750946 2.6976013.5916138 1.3796005 1.0132141 2.4171982 1.2644043 3.1137009.5832825-2.558773.7021637-3.3410263.9546051-4.0253029.123703-.4076004.598999-.6190987 1.4270935-.6348991 1.7211609-.0318069 3.7134705.4457893 5.1404114 1.132.7369995.354702 1.0861969.6968002 1.0466919 1.0250015-.7525787 4.9925727-4.2253875 17.2487143-4.9042053 18.1836966z"
                      fill="none"/>
            </g>
            <g opacity=".4">
                <g>
                    <path d="m156.2992096 74.7467499c-.0981903.3809967-.194397.7623978-.2884979 1.1442947-.2456207.7836304.2994843 1.6673431 1.047699 1.8451996.1329041.0179062.2658081.0357056.3986969.0536041.677536-.0020065 1.2631836-.4478683 1.4465027-1.1012039.2606964-1.0582962.6671295-2.1279449-.2490997-2.7210007-.1448975-.1325989-.3148956-.2220993-.5101013-.2684937-.5967712-.0803223-.797287-.1260147-1.4594879.3856964-.1859132.1872026-.3144075.4077989-.3857118.6619035z"
                          fill="none"/>
                </g>
            </g>
            <g opacity=".4">
                <g>
                    <path d="m159.7279205 63.8210449c-.7266083 1.9576035-1.3985138 3.9348984-2.0151062 5.9298019-.2317047.7498016.274704 1.6691971 1.047699 1.8451996.8132935.1853027 1.5970001-.2447968 1.845108-1.0475998.6165924-1.9950027 1.2884979-3.9722977 2.0150909-5.9298019.2736053-.7369995-.3047943-1.6759987-1.0475922-1.8451996-.8502044-.1936989-1.552307.2586022-1.8451995 1.0475998z"
                          fill="none"/>
                </g>
            </g>
        </g>
        <g>
            <g>
                <path d="m167.9281158 99.3492432c-.2996063 2.4964066-1.3491974 4.4508057-3.1453094 5.8628998-2.4401093 1.9167404-5.1817017 3.0239639-8.3456879 3.5279007-.7373047.1163025-1.2828064.1527023-1.6371002.1075058-2.2168121-.2454224-7.4267273-16.5038528-5.8753052-18.2089005.3955078-.4469986 1.0720062-.8875046 2.0252991-1.3212051 1.5289001-.6832962 3.256897-1.1610947 5.1860046-1.4346008 4.470459-.6326752 8.0607758 1.3402405 10.2933044 4.9840012 1.2704926 2.0736006 1.7708894 4.2345046 1.4987946 6.4823989zm-11.316101-2.9220963c-.008194.5102997.1584015 1.2070007.5032959 2.0905991.6464233 1.6616974 1.0818481 1.5718231 1.8800964 1.303299 2.7162323-.8631058 2.3505402-3.2128601.6942139-3.9817963-.8982239-.416008-1.8405457-.5158844-2.7240143-.0342026-.235199.1286011-.3523865.3358993-.3535919.6221008z"
                      fill="none"/>
            </g>
            <g>
                <path d="m166.5194092 98.6359482c-.2997894 2.4962006-1.3492889 4.4506989-3.145401 5.8628006-2.4944305 1.959549-5.2623444 3.0371704-8.3455963 3.5279007-.7373047.1162949-1.2827911.1526947-1.6371002.1075974-2.0929108-.2320404-5.2420197-11.0493011-5.9281921-14.6625977-.3633118-1.9252014-.3470001-3.1070023.0527954-3.546402.3954926-.4469986 1.0720062-.8873978 2.0252991-1.3211975 1.5289001-.6832047 3.2570038-1.1611023 5.1860962-1.4347 4.4782867-.6333542 8.0649872 1.3475418 10.2933044 4.9839935 1.2704009 2.0738068 1.7707061 4.2346039 1.4987945 6.482605zm-11.3161011-2.9222031c-.008194.5102997.1583099 1.2069016.5032043 2.0906982.6463623 1.6610565 1.081665 1.5720215 1.8800964 1.3031006 1.1926422-.3789673 2.192627-1.1972275 1.9524078-2.4354935-.1408081-.7070007-.5605011-1.2222061-1.2582092-1.5461044-.8983002-.4161072-1.8408356-.5160217-2.723999-.0343018-.2351989.1286012-.3524017.3358994-.3535003.6221009z"
                      fill="none"/>
            </g>
            <g opacity=".4">
                <g>
                    <path d="m150.8930206 102.8952484c.0463867.1951981.1358948.3652954.2684937.5102005.3349304.5169601 1.079483.6933441 1.5767059.5374985.1194-.0503998.2388916-.1007996.3582916-.1511993.5868835-.3473434.8679962-1.0294495.6893005-1.6940002-.1049957-.2900009-.2077026-.5809021-.3078918-.8726044-.1847992-.7774124-1.0936584-1.2832642-1.8451996-1.047699-.1195068.0503998-.2389069.1007996-.3583069.1511993-1.1610412.6871567-.6345367 1.8681183-.3813934 2.5666046z"
                          fill="none"/>
                </g>
            </g>
            <g opacity=".4">
                <g>
                    <path d="m148.1633148 92.0308456c.2736053 1.8651047.6405945 3.7146988 1.0995026 5.5430984.1911011.7612991 1.0865021 1.2932053 1.8451996 1.047699.7879028-.2549973 1.2525024-1.0294952 1.047699-1.8451996-.4589996-1.8283997-.826004-3.6779938-1.0995026-5.5431976-.0507965-.3456955-.4026031-.7285995-.6893921-.8964005-.9323731-.5455016-2.4506531.0075151-2.2035065 1.6940003z"
                          fill="none"/>
                </g>
            </g>
        </g>
        <g>
            <g>
                <path d="m137.2893066 54.4581451c3.5788879 1.9718208 5.3639679 2.6017647 5.5193024 3.2607002.113205.2884026-.1520996 1.1114006-.7935944 2.4696999-.6417084 1.3586998-1.2127991 2.283802-1.7140045 2.7740021-.8947754.8355865-11.5119324-4.8163528-12.6083984-6.2638016-.1791-.2235985-.0171967-.9545975.4846954-2.1938972 1.5411835-3.7968102 4.7724915-9.8441887 6.7375031-12.9736023.3294373-.5821609 1.2446442-2.0456467 1.9169006-2.0630989 1.0823517-.0285149 11.2576294 5.4155121 11.5603027 6.4958.1112976.2872009-.1499939 1.0233002-.783493 2.2075005-.6350098 1.1847992-1.2051086 2.0259972-1.7107086 2.5240974-.2422943.2296028-.8822021.0943031-1.9185944-.4053001-1.0360107-.5000992-2.2344971-1.1042976-3.5960083-1.8135986-.1085663.1920319-.2408752.4679451-.3315887.6680984.8624878.5088005 1.5357971.9760017 2.0183868 1.4019012.1086121.1128006.1086121.4153023-.0024872.9076004-.2093048.9356575-.6855927 2.0831337-1.3011017 2.9085007-.2949066.3936996-.5590057.5449982-.792099.4533997-.5003204-.1140099-1.8457642-.802887-2.2985077-1.040802-.1799773.3178215-.2866363.5068435-.3865051.6828002z"
                      fill="none"/>
            </g>
            <g>
                <path d="m137.0813141 52.8928452c3.5783539 1.9718208 5.3640747 2.6017914 5.5191956 3.2607002.1130981.2882996-.1520996 1.1114006-.7935944 2.4696007-.6417084 1.358799-1.2129059 2.283802-1.7140045 2.7741013-.8938293.834301-11.5109406-4.8141861-12.6083984-6.2638016-.7348175-.9169846 7.4779816-17.1870308 9.1392059-17.2308006 1.0831146-.0281143 11.257782 5.4165459 11.5601959 6.495903.1112061.2873001-.1499939 1.0233002-.783493 2.2075996-.634903 1.1847992-1.2051086 2.025898-1.7107086 2.5240974-.2424011.2296028-.8822021.0943031-1.9185028-.4053001-1.0361023-.5001984-2.2345886-1.1043968-3.595993-1.8136978-.1091309.1926765-.2399445.465416-.331604.6680984.8623962.5088997 1.5357056.9760017 2.0184021 1.4020004.1085052.1128006.1083984.4153023-.002594.907402-.2108459.9429359-.6899567 2.0894547-1.3011017 2.908699-.2949066.3936005-.5590057.5449982-.7920074.4533997-.5013275-.1145172-1.8450775-.8024902-2.2985992-1.0409012-.1014254.179474-.2865908.5061913-.3863985.6828996z"
                      fill="none"/>
            </g>
            <g opacity=".4">
                <g>
                    <path d="m135.4185181 40.6242485c-1.0917969 2.1914978-2.238205 4.3552971-3.4384003 6.489399-.3847046.6839981-.186203 1.6695976.5381012 2.0522995.7090912.3745995 1.6414948.1922989 2.0522919-.5382004 1.2002106-2.1340981 2.3466034-4.2977982 3.4384003-6.489399.3493958-.7014008.2105103-1.6567001-.5381927-2.0522995-.679001-.3586998-1.6787111-.2117004-2.0522004.5382004z"
                          fill="none"/>
                </g>
            </g>
            <g opacity=".4">
                <g>
                    <path d="m129.8138123 51.4267464c-.1206055.2583008-.2411957.5164986-.3616943.7747993-.1097107.1721992-.1690063.3581009-.178009.5577011-.1322784.590107.1593323 1.2595367 1.0744019 1.6458015.6456451.1736107 1.3379211-.0876465 1.6940002-.6893005.1204987-.2583008.2411041-.5166016.3617096-.7749023.4172668-.6546249.3071747-1.6953545-.8964081-2.2033997-.6614381-.1779289-1.3450013.0996247-1.6940003.6893006z"
                          fill="none"/>
                </g>
            </g>
        </g>
        <g>
            <g>
                <path d="m128.0882111 36.7854462c.5632782.7353554 2.6807404 3.5386276 2.4974976 4.4505997-.2275085 1.0061951-3.7211838 3.8358269-4.2095947 3.7252007-.5877991-.0144997-1.3406982-.4917984-2.2603989-1.4317017-.7662506-.7830086-2.9912491-2.9820251-3.3819046-1.9572983-.1323929.6245003-.2959976 1.0876999-.4906998 1.3889008-.1957932.3015976-.6660995.4085007-1.4101944.3219986-1.1186142-.132946-4.1504517-.6965599-4.8922043-1.0377998-.1903992-.0790977-.3247986-.2277985-.4030991-.4456978-.4893875-1.1071243 2.2937622-18.4276752 3.4395981-18.775301 1.9918289-.5884571 5.6075821-.4974842 8.7472992.9069996 1.4977036.6707001 2.7562027 1.6369991 3.7755051 2.8988991 1.0193024 1.2623005 1.4528046 2.8716011 1.3016968 4.8282013-.2160035 2.6056975-1.1204987 4.3144988-2.713501 5.1269988zm-5.9682999-3.9399987c.6735992.0797005 1.2388992-.0471992 1.6959991-.3801003.8914719-.6494408 1.1634521-1.6173439.4721069-2.4841003-.3366013-.4211998-.947403-.6821003-1.834404-.7828007-.7264023-.0823994-1.1478958.4839001-1.2631989 1.698101-.1155013 1.2152005.1948015 1.8645993.9294969 1.9489003z"
                      fill="none"/>
            </g>
            <g>
                <path d="m126.6794128 36.0720482c.5640564.7364426 2.680954 3.5387077 2.4974976 4.4506989-.2266693 1.0038185-3.7193909 3.8361969-4.2094955 3.7251015-.5879974-.0145035-1.3406982-.4918022-2.260498-1.4317017-.765564-.7824783-2.9911499-2.982029-3.3818054-1.9572983-.1325989.6244965-.296196 1.0876999-.4906998 1.3888969-.1959.3015022-.6661987.4084015-1.4101944.3220024-1.1208038-.1332092-4.1520004-.6970253-4.8922043-1.0377998-.1904984-.0791016-.3248978-.2278023-.4032974-.4456024-.1204987-.2728004-.0639038-1.3867989.1690979-3.343399.458992-3.8395576 1.2830963-8.6652164 2.1793976-12.5016003.434906-1.8652.7985001-2.8416004 1.091301-2.9302998 1.9918289-.5884571 5.6075821-.4974842 8.7472992.9069996 1.4976044.6707001 2.7561035 1.637001 3.7754974 2.8987007 1.0192108 1.2623997 1.4526978 2.8717995 1.301712 4.8283005-.2161103 2.6056995-1.120514 4.3145008-2.7136079 5.1270008zm-5.9682998-3.9400025c.6735992.0797005 1.2388992-.0471992 1.6959991-.3801994.8926392-.6502914 1.1626892-1.6181717.4721985-2.4839001-.3367996-.4214001-.9475937-.6821995-1.8344955-.7828999-.7265015-.0823994-1.1479034.4839001-1.2630997 1.698101-.1155014 1.2151986.1947021 1.8646013.9293976 1.9488984z"
                      fill="none"/>
            </g>
            <g opacity=".4">
                <g>
                    <path d="m115.6970139 24.8620472c-.3563995 1.5614986-.7128983 3.1229992-1.0692978 4.6844997-.1743011.7632999.2337952 1.6597996 1.0475998 1.8451996.7634964.1739006 1.6584015-.2294998 1.8451996-1.047699.3563995-1.5615005.7128983-3.1230011 1.069397-4.6845016.174202-.7632999-.233902-1.6597996-1.047699-1.8451996-.7634965-.1738987-1.6584015.2294998-1.8451996 1.0477009z"
                          fill="none"/>
                </g>
            </g>
            <g opacity=".4">
                <g>
                    <path d="m114.0918121 33.8413467c-.0805054.2148132-.1070023.4871941-.1316986.7296982-.1882553 1.8500404 1.9958878 2.4640198 2.8050003 1.0969009.0503998-.1194.1007996-.2388992.1511993-.3582993.0044632-.016613.1257706-1.1320953.0951004-1.268898-.0174103-.3861046-.2593536-.7810326-.5643005-.9786034-.670494-.6131133-2.0382003-.3508681-2.3553009.7792016z"
                          fill="none"/>
                </g>
            </g>
        </g>
        <g>
            <g>
                <path d="m108.0880127 36.819046c-.2285385.8293571-4.8130646 2.0007019-6.1566238 1.7581024-1.0330276-.1865768-3.9307022-9.6770973-4.2310028-10.666502-.6422195.1397438-4.5810471.9991283-4.9850998.4799995-.9173431-1.0884247-2.5484619-6.3424473-1.9483948-6.8909988.5720291-.7266541 6.4281387-2.2841301 7.3279953-2.523201 2.9849777-.793972 7.4756241-1.8665447 10.4915237-2.3907986.4998016-.0828018.9371033.2595997 1.3119049 1.0265999.7736816 1.5843143 1.1232529 3.7000389 1.0207977 5.3897991-.0514984.8693008-.2518005 1.3591003-.5984955 1.4692993-.8523636.3513699-3.0669937.9840107-3.9585266 1.2330017.2659226 1.1677419 2.2150117 10.0143872 1.7259217 11.1146985z"
                      fill="none"/>
            </g>
            <g>
                <path d="m106.6791916 36.105648c-.2253571.8162842-4.7856522 2.0054398-6.1564789 1.7581978-1.03302-.1867867-3.9285583-9.6699467-4.2309952-10.6665993-.6380463.1388321-4.5810394.9991302-4.9852295.4801006-.9198837-1.0923767-2.5478439-6.3427467-1.9484024-6.8910999 1.0434723-1.3255272 15.4716949-4.5058727 17.8195038-4.9140005.4999237-.0827999.9371262.2596006 1.311821 1.0266008.3749008.7674999.6524048 1.6402988.8313065 2.6181984.1766815.9651985.5129013 3.9479332-.4088058 4.2409-.852211.3511982-3.0676193.9842949-3.958519 1.2329998.2649612 1.1635267 2.2149963 10.014433 1.7257995 11.1147023z"
                      fill="none"/>
            </g>
            <g opacity=".4">
                <g>
                    <path d="m92.6258926 23.8590469c2.3331985-.4188004 4.4690933-1.514101 6.7720947-2.0458012.7653046-.1766987 1.2899017-1.0966988 1.0477295-1.8451996-.2589264-.7999001-1.0253296-1.2369003-1.8452301-1.0475998-2.3031006.5317001-4.4388962 1.6270008-6.7720947 2.0458012-.7742004.1388988-1.2813034 1.1229992-1.0476761 1.8450985.4421921 1.366375 1.9451905 1.0614377 1.8451767 1.0477009z"
                          fill="none"/>
                </g>
            </g>
            <g opacity=".4">
                <g>
                    <path d="m104.5708923 20.7685471c.1774979-.0578003.3550949-.1156006.5326996-.1732998 1.1611176-.2760048 1.755249-2.151989 0-2.8929005-.5233612-.1405468-.8482895.0164719-1.3302002.173399-.1952057.0464001-.365303.1359005-.5102005.2685013-.5168686.3345528-.693306 1.0797367-.5374756 1.5767002.0503769.1194.1007767.2388.1511765.3582993.3473358.5868873 1.0294418.867998 1.6940002.6893005z"
                          fill="none"/>
                </g>
            </g>
        </g>
        <g opacity=".4">
            <g>
                <path d="m97.3974915 50.6217461c2.5909042-1.2758636 5.8665924-1.3748245 8.2680969-.7057991 1.1329041.3156013 2.4985275-.3892021 2.7678223-1.5714989.2714996-1.1921997-.3580933-2.4298019-1.5715256-2.7678032-3.9266968-1.0938988-8.0929947-.6345978-11.7355957 1.1594009-1.058403.5213013-1.4333038 2.107399-.8071976 3.0785027.6988983 1.0839996 1.9463959 1.3646965 3.0783997.8071976z"
                      fill="#fff"/>
            </g>
        </g>
        <g opacity=".4">
            <g>
                <path d="m110.9382172 51.5208473c.2938995.1317978.5877991.2635002.8816986.395298.9535141.606884 2.4866028.2901764 3.0783997-.8071976.0755997-.1791992.1511993-.3582993.2268982-.5375023.2644958-.984642-.1444168-2.0146141-1.0341034-2.5408974-.2938995-.1318016-.5877991-.2635002-.8816986-.3953018-.9487686-.6040955-2.4837418-.295475-3.0783997.8072014-.0755997.1791992-.1511993.3582993-.226799.5374985-.2672196.9940987.1509552 2.0185433 1.0340042 2.5409012z"
                      fill="#fff"/>
            </g>
        </g>
        <g opacity=".4">
            <g>
                <path d="m110.5110168 73.7733459c-1.2015457.5349579-3.9490051 2.1224213-5.1539307 3.392601-.9466858.9982758-.8035431 2.444458 0 3.1819992 1.0478363.9618149 2.4460754.7760162 3.1820297 0 .9001007-.9486313 3.4534073-2.3373337 4.2431946-2.689003.4822998-.214798.9001007-.8583984 1.0340042-1.344696.5336534-1.9381332-1.5674209-3.5489731-3.3052978-2.5409012z"
                      fill="#fff"/>
            </g>
        </g>
        <g opacity=".4">
            <g>
                <path d="m100.9071884 82.0822449c-.3781662.3781662-.6557617.5901794-.8121033 1.0709-.4246826.8083878-.1187973 1.9154205.4652023 2.457901.1518021.1173019.3036041.2344971.4554291.351799.874527.5072098 1.9861221.3839035 2.7265701-.351799.378334-.3783264.6555939-.5901031.8121033-1.0709991.2659912-.5064774.2691574-1.2211838 0-1.7337036-.0908051-.2789993-.2458038-.5202942-.4653015-.7240982-.7212296-.5576782-.9380417-.7462158-2.1891022-.5786972-.3810958.1068953-.7120971.2997969-.9927978.5786971z"
                      fill="#fff"/>
            </g>
        </g>
        <g opacity=".4">
            <g>
                <path d="m54.1107903 103.0151443c.0909233 3.9011993.1818008 7.8023987.2725983 11.7036057.027401 1.1757965 1.0153236 2.3052979 2.25 2.25 1.1956024-.0535049 2.2793999-.9894028 2.25-2.25-.0907974-3.901207-.181675-7.8024063-.2725983-11.7036057-.027401-1.1756973-1.0153008-2.3052979-2.25-2.25-1.1955986.0536042-2.2793007.9894028-2.25 2.25z"
                      fill="#fff"/>
            </g>
        </g>
        <g opacity=".4">
            <g>
                <path d="m54.7084885 122.02285v1.7789001c-.0448685 1.1983261 1.053093 2.2952118 2.25 2.25.1994019-.0268021.3987999-.0536041.5982246-.0804062.9749565-.2734909 1.6487579-1.1478958 1.6517754-2.1695938 0-.5930023 0-1.1859055 0-1.7789001.0289726-.7671204-.5147552-1.7739105-1.3830986-2.0562057-.5638123-.2963104-.9911613-.1770859-1.4650002-.1133957-.9769745.2739716-1.6486359 1.1495514-1.6519012 2.1696014z"
                      fill="#fff"/>
            </g>
        </g>
    </g>
</svg>