<svg id="Layer_1" enable-background="new 0 0 66 66" viewBox="0 0 66 66" xmlns="http://www.w3.org/2000/svg"><g><g><g><path d="m64.26 46.04v2.63c.05.63-.53 1.22-1.24 1.04l-13.49-3.51c-.39-.1-.8-.01-1.11.25l-.78.64-1.13.93-10.8 8.9c-.28.23-.65.33-1 .27l-10.34-1.75-.22-.04-2.04-.35-2.75-.46c-.24-.05-.49-.01-.72.08l-15.5 6.79c-.66.29-1.37-.2-1.39-.87v-.03l.01-2.78s.16.13.4.33l1.67-9.53.68-3.91 2.55-14.57c.07-.36.29-.67.61-.84l9.58-5.12 10.66 1.5 7.22-5.39 10.58 2.53c.28.07.53.23.69.47l7.14 10.08 1.32 1.86 7.63 10.77z" fill="#c6c945"/></g><g><path d="m35.7 56.91c-.28.23-.65.33-1 .27l-10.34-1.75-.22-.04-2.04-.35.39-4.26 12.77 3.88z" fill="#b2b234"/></g><g><path d="m64.26 46.04v2.63c.05.63-.53 1.22-1.24 1.04l-13.49-3.51c-.39-.1-.8-.01-1.11.25l-.78.64c-.88-.05-1.16-.7-1.13-1.67l4.28-8.38c1.18-.96 2.59-1.58 4.08-1.86l7.63 10.77z" fill="#2485dd"/></g><g><path d="m24.36 52.82c.71 1.1.46 1.92-.22 2.57l-4.79-.81c-.24-.05-.49-.01-.72.08l-15.5 6.79c-.66.29-1.37-.2-1.39-.87v-.03l.01-2.78s.16.13.4.33l1.67-9.53c4.88-2.67 10.9-3.24 16.17-1.45z" fill="#2485dd"/></g><g><path d="m2.73 61.78c-.23 0-.46-.07-.66-.2-.35-.22-.56-.59-.57-1l.01-2.82c0-.09.05-.18.14-.22s.18-.03.26.03l.08.07 4.84-27.6c.08-.44.35-.81.74-1.01l9.58-5.12c.05-.02.1-.03.15-.03l10.56 1.48 7.14-5.33c.06-.04.13-.06.2-.04l10.58 2.53c.35.09.64.29.83.57l16.02 22.61 1.64.09c.13.01.23.11.23.24v2.63c.03.37-.13.76-.44 1.02s-.71.35-1.11.25l-13.49-3.51c-.32-.09-.64-.01-.9.2l-2.2 1.81c-.1.09-.26.07-.34-.03-.09-.1-.07-.26.03-.34l2.2-1.81c.38-.31.86-.42 1.33-.29l13.49 3.51c.24.06.48.01.67-.15s.29-.4.27-.63v-2.42l-1.53-.08c-.07 0-.14-.04-.19-.1l-16.08-22.72c-.13-.18-.32-.31-.55-.37l-10.46-2.51-7.13 5.32c-.05.04-.12.06-.18.05l-10.58-1.49-9.51 5.09c-.26.13-.43.38-.49.67l-4.91 28.01c-.01.09-.07.16-.16.19-.08.02-.17.01-.24-.05l-.01 2.27c.01.27.14.49.35.63s.47.16.71.05l15.5-6.79c.28-.12.57-.16.86-.1l5.76.97c.13.02.22.15.2.28s-.15.22-.28.2l-5.76-.97c-.19-.04-.39-.01-.58.07l-15.5 6.79c-.18.07-.35.1-.52.1z"/></g><g><path d="m18.98 51.91-15.84 6.94c-.73.32-1.52-.3-1.38-1.08l2.76-15.72 1.82-10.41.73-4.16c.07-.36.29-.67.61-.84l1.15-.61 8.43-4.51 1.12 19.9z" fill="#d3dc5e"/></g><g><path d="m7.43 36.93c-.61 0-1.29-.21-1.99-.63-.12-.07-.15-.22-.09-.33.07-.12.22-.15.33-.08 1.07.64 2.1.73 2.76.25.57-.42.79-1.24.49-1.88-.07-.17-.18-.33-.29-.5-.25-.38-.53-.82-.43-1.33.12-.65.76-.99 1.31-1.22.49-.22.95-.44 1.06-.84.06-.25-.03-.53-.13-.82-.11-.32-.21-.64-.16-1 .06-.44.36-.79.64-1.06.44-.42.57-.61.64-1.14.09-.65.04-1.23-.14-1.76 0-.01-.01-.02-.01-.04-.05-.12.01-.25.12-.31.12-.06.27-.01.33.11.01.02.02.05.02.08.2.6.26 1.25.16 1.98-.1.7-.32.98-.78 1.42-.22.22-.46.48-.5.78-.03.24.05.5.14.77.12.35.23.71.14 1.09-.17.66-.87.97-1.34 1.17-.46.19-.94.44-1.02.86-.06.32.14.62.36.98.12.18.23.36.32.56.38.84.1 1.93-.65 2.48-.36.28-.8.41-1.29.41z" fill="#c6c945"/></g><g><path d="m9.16 26.94c-.04.31-.12.42-.35.63-.13.12-.26.27-.29.45-.04.31.22.61.14.91-.07.26-.35.39-.59.49-.25.1-.52.25-.57.51-.05.3.22.55.35.83.16.36.04.83-.29 1.07-.33.23-.81.21-1.11-.06-.05-.04-.09-.08-.13-.13l.73-4.16c.07-.36.29-.67.61-.84l1.15-.61c.08-.01.17-.01.25-.02.13.3.14.61.1.93z" fill="#c6c945"/></g><g><path d="m35.26 54.67-10.9-1.85-5.38-.91-.6-10.49-1.12-19.9 10.66 1.49.8 3.43 2.27 9.79z" fill="#c6c945"/></g><g><path d="m48.91 43.43-2.4 1.98-11.25 9.26-7.34-31.66 7.22-5.39 11.81 22.15z" fill="#d3dc5e"/></g><g><path d="m48.91 43.43-2.4 1.98c-.54-.04-1.11.01-1.64-.09-.7-.13-1.42-.68-1.34-1.38.12-1.09 1.77-1.19 2.38-2.1.34-.52.3-1.22.67-1.73.11-.14.23-.26.38-.34z" fill="#509dff"/></g><g><path d="m63.01 47.1-14.11-3.67-1.95-3.66-11.81-22.15 3.94.94.48.12 3.59.86 2.57.61c.28.07.53.23.69.47l2.32 3.28 1.69 2.38.3.42 2.83 3.99 10.52 14.86c.54.77-.16 1.78-1.06 1.55z" fill="#c6c945"/></g><g><g><path d="m50.72 26.71c-.27.35-.59.68-.98.92-.37.24-.85.39-1.32.39-.48 0-.95-.16-1.3-.53-.23-.25-.38-.57-.53-.87-.2-.41-.36-.77-.7-.89s-.72.06-1.13.25c-.43.2-.92.43-1.43.3-.56-.14-.98-.67-1.17-1.5-.03-.11-.05-.23-.07-.35-.09-.44-.18-.87-.44-1.18-.21-.26-.54-.42-.88-.59-.18-.09-.36-.18-.53-.29-1.24-.78-1.75-2.49-1.17-3.83l.48.12c-.54 1.11-.11 2.63.94 3.3.16.1.33.18.49.27.37.18.76.37 1.04.71.34.4.44.91.54 1.39.03.11.05.22.07.33.07.3.29 1 .81 1.13.34.08.71-.08 1.1-.27.46-.21.97-.46 1.5-.27s.76.67.98 1.14c.13.28.25.55.44.74.49.53 1.4.44 2 .07.37-.24.68-.57.94-.94z" fill="#b2b234"/></g></g><g><path d="m48.74 23.91c-.01.01-.02.02-.03.03-.38.23-.92.27-1.22-.05-.28-.3-.33-.83-.7-.96-.46-.16-.91.4-1.37.29-.3-.07-.46-.4-.53-.7s-.1-.63-.3-.86c-.2-.24-.51-.33-.78-.49-.53-.33-.78-1.02-.65-1.61l2.57.61c.28.07.53.23.69.47z" fill="#b2b234"/></g><g><path d="m18.98 51.91-11.1 4.86-4.75 2.08c-.73.32-1.52-.3-1.38-1.08l.88-5.01 1.88-10.71c.61-.76 1.73-.91 2.69-.75.98.16 1.93.57 2.92.68.99.1 2.14-.21 2.61-1.1.25-.49.25-1.07.38-1.62.12-.55.45-1.13 1-1.21.76-.12 1.3.76 1.48 1.51.18.76.33 1.66 1.04 1.99.54.26 1.15.07 1.75-.14z" fill="#509dff"/></g><g><path d="m13.01 54.77c-.09 0-.18-.05-.22-.14-.41-.85-.53-1.83-.32-2.74.04-.2.11-.41.17-.61.09-.29.17-.57.21-.85.05-.38-.02-.91-.37-1.15-.4-.29-.98-.11-1.21-.02-.19.07-.36.16-.54.25-.27.13-.55.27-.86.36-.51.14-1.24.11-1.63-.4-.27-.35-.31-.81-.34-1.22-.04-.51-.08-.82-.34-.98-.29-.16-.69.03-.81.09s-.23.13-.34.2c-.21.13-.42.27-.67.35-.58.19-1.27.04-1.71-.39-.31-.3-.5-.73-.51-1.18 0-.21.02-.38.07-.53.04-.13.18-.2.31-.16s.2.18.16.31c-.04.1-.06.22-.06.38.01.31.14.62.36.83.31.3.81.41 1.22.27.19-.06.37-.18.56-.3.12-.08.24-.15.37-.22.46-.25.93-.29 1.28-.09.5.3.54.86.58 1.37.03.37.05.72.23.96.25.33.76.33 1.12.23.26-.07.51-.2.78-.33.19-.09.38-.19.58-.26.64-.25 1.25-.23 1.67.07.53.37.64 1.08.58 1.61-.04.32-.13.64-.22.94-.06.2-.11.38-.16.58-.18.81-.08 1.67.28 2.42.06.12.01.27-.11.33-.03.01-.07.02-.11.02z" fill="#308cef"/></g><g><path d="m7.88 55.71c-.08.35-.07.71.01 1.06l-4.75 2.08c-.73.32-1.52-.3-1.38-1.08l.88-5.01c.04.08.09.15.16.21.22.21.58.29.87.2.21-.07.38-.21.58-.32.2-.1.44-.16.63-.05.43.25.14.96.45 1.35.18.24.53.27.82.19s.54-.25.82-.36c.28-.1.62-.14.86.03.25.17.33.52.29.82-.05.29-.17.58-.24.88z" fill="#308cef"/></g><g><path d="m26.67 51.57c-.56.5-1.58.12-2.1.67-.15.17-.22.38-.22.59l-5.38-.91-.6-10.49c.67-.23 1.34-.48 1.9-.11.85.58.44 1.9.71 2.9.2.75 1.1 2.04 2.02 1.42.5-.35.7-.99.96-1.54s.75-1.12 1.36-1.06c.8.08 1.07 1.09 1.15 1.89.17 1.73.34 3.47.49 5.2.07.5.09 1.09-.29 1.44z" fill="#308cef"/></g><g><path d="m38.26 36.85c-.91.36-1.82-.46-2.41-1.24s-1.37-1.68-2.32-1.51c-.86.15-1.32 1.09-1.95 1.69-.19.18-.39.33-.59.44l-2.27-9.79c1.41.17 1.82 1.82 3.08 1.99 1.41.18 1.66-1.85 2.94-1.99.92-.11 1.54.98 1.57 1.91s-.28 1.88-.03 2.77c.22.75.79 1.33 1.35 1.89.56.54 1.14 1.11 1.37 1.86.23.72-.01 1.69-.74 1.98z" fill="#509dff"/></g><g><path d="m30.99 36.23c-1.77 1.06-3.92-.07-5.4-1.17-.31-.23-.63-.47-.84-.79-.21-.33-.3-.76-.13-1.1.41-.78 1.73-.54 2.24-1.26.4-.58.03-1.37-.35-1.97-.93-1.52.14-3.6 2.05-3.52.05 0 .1.01.15.02z" fill="#308cef"/></g><g><path d="m63.01 47.1-14.11-3.67-1.95-3.66c1.15-.71 3.34.24 4.16-.97.35-.52.26-1.22.03-1.8-.23-.59-.6-1.12-.74-1.73-.29-1.22.33-2.51 1.24-3.34.56-.52 1.22-.9 1.91-1.22l10.53 14.86c.53.75-.17 1.76-1.07 1.53z" fill="#308cef"/></g><g><path d="m2.73 59.18c-.27 0-.54-.09-.76-.27-.36-.29-.53-.73-.45-1.19l5.31-30.29c.08-.44.35-.81.74-1.01l9.58-5.12c.12-.06.27-.02.33.1s.02.27-.1.33l-9.58 5.12c-.26.13-.43.38-.49.67l-5.32 30.29c-.05.28.05.54.28.72.22.17.51.21.77.1l15.85-6.94c.04-.02.09-.02.14-.02l16.17 2.74 13.56-11.17c.06-.05.14-.07.22-.05l14.11 3.67c.38.1.66-.09.81-.3.14-.21.22-.54-.01-.86l-17.68-24.93c-.13-.18-.32-.31-.55-.37l-5.91-1.42c-.13-.03-.21-.16-.18-.29s.16-.21.29-.18l5.91 1.42c.35.09.64.29.83.57l17.66 24.93c.31.43.31.98.01 1.42s-.82.63-1.33.5l-13.98-3.64-13.54 11.15c-.05.04-.13.07-.2.05l-16.21-2.74-15.78 6.9c-.16.07-.33.11-.5.11z"/></g><g><ellipse cx="36.63" cy="43.69" fill="#c6c945" rx=".9" ry="1.11"/></g><g><ellipse cx="37.09" cy="41.46" fill="#c6c945" rx=".41" ry=".5"/></g><g><circle cx="54.24" cy="40.6" fill="#2485dd" r="1.14"/></g><g><circle cx="56.01" cy="42.21" fill="#2485dd" r=".63"/></g><g><path d="m24.05 43.69c.41 0 .78.18 1.05.47s.44.68.44 1.12c0-.88.66-1.59 1.48-1.59-.41 0-.78-.18-1.05-.46-.27-.29-.43-.68-.43-1.12 0 .44-.17.83-.44 1.12-.27.28-.65.46-1.05.46z" fill="#fff"/></g><g><path d="m37.61 25.43c.41 0 .78.18 1.05.47s.44.68.44 1.12c0-.88.66-1.59 1.48-1.59-.41 0-.78-.18-1.05-.46-.27-.29-.43-.68-.43-1.12 0 .44-.17.83-.44 1.12-.27.28-.65.46-1.05.46z" fill="#fff"/></g><g><path d="m39.74 27.04c.2 0 .39.09.52.23s.22.34.22.56c0-.43.33-.79.73-.79-.2 0-.38-.09-.52-.23-.13-.14-.21-.34-.21-.56 0 .22-.08.41-.22.56s-.32.23-.52.23z" fill="#fff"/></g><g><g><path d="m16.66 46.28c.47-.04.9.62.97 1.45.07.84-.25 1.56-.71 1.61-.47.05-.9-.6-.97-1.45-.08-.85.24-1.57.71-1.61z" fill="#fff"/></g><g><path d="m16.54 44.92c.2-.01.39.19.41.45s-.12.49-.33.5c-.2.02-.39-.18-.41-.45-.02-.26.13-.48.33-.5z" fill="#fff"/></g></g></g><g><g><path d="m28.1 4.32c-5.19-.26-9.59 3.36-10.55 8.21-.13.65-.2 1.32-.2 2.01 0 3.97 2.26 7.41 5.57 9.1.42.22.74.61.89 1.06l3.24 9.41c.17.5.88.5 1.05 0l2.38-6.91.86-2.49c.16-.46.48-.84.91-1.06 3.4-1.74 5.68-5.33 5.55-9.45-.18-5.27-4.46-9.62-9.7-9.88zm-.52 14.9c-2.59 0-4.69-2.1-4.69-4.69s2.1-4.69 4.69-4.69 4.69 2.1 4.69 4.69-2.1 4.69-4.69 4.69z" fill="#ff7a43"/></g><g><path d="m37.57 16.96c-.02 0-.05 0-.07-.01-.55-.17-1.06-.44-1.51-.81-.89-.75-1.44-1.86-1.5-3.05-.03-.56.05-1.14.12-1.7.12-.9.23-1.75-.07-2.49-.19-.46-.79-.64-1.42-.84-.33-.1-.67-.21-.96-.36-.82-.43-1.31-.8-2.08-1.58-.3-.31-.62-.82-.95-1.54-.06-.12 0-.27.12-.32.12-.06.27 0 .32.12.3.65.59 1.14.85 1.4.75.75 1.19 1.08 1.96 1.49.25.13.55.22.88.32.71.22 1.45.45 1.73 1.12.35.86.23 1.81.1 2.74-.07.54-.15 1.1-.12 1.61.05 1.06.54 2.04 1.33 2.7.4.33.85.57 1.34.72.13.04.2.18.16.3-.03.11-.13.18-.23.18z" fill="#f26636"/></g><g><path d="m30.48 27.18-2.38 6.92c-.17.5-.88.5-1.05 0l-3.24-9.41c-.16-.45-.47-.84-.89-1.06-3.31-1.69-5.57-5.13-5.57-9.1 0-.68.07-1.35.2-2.01.12 1.33.68 2.62 1.63 3.58.85.86 2.01 1.52 2.46 2.62.29.72.24 1.51.36 2.27s.51 1.58 1.26 1.8c.76.22 1.59-.22 2.34-.03.93.24 1.32 1.3 1.53 2.22.21.91.49 1.98 1.38 2.34.62.26 1.29.09 1.97-.14z" fill="#f26636"/></g><g><path d="m28.1 4.32c-5.19-.26-9.59 3.36-10.55 8.21-.13.65-.2 1.32-.2 2.01 0 3.97 2.26 7.41 5.57 9.1.42.22.74.61.89 1.06l3.24 9.41c.17.5.88.5 1.05 0l2.38-6.91.86-2.49c.16-.46.48-.84.91-1.06 3.4-1.74 5.68-5.33 5.55-9.45-.18-5.27-4.46-9.62-9.7-9.88zm-.52 14.9c-2.59 0-4.69-2.1-4.69-4.69s2.1-4.69 4.69-4.69 4.69 2.1 4.69 4.69-2.1 4.69-4.69 4.69z" style="fill:none;stroke:#000;stroke-width:.75;stroke-linecap:round;stroke-linejoin:round;stroke-miterlimit:10"/></g><g><path d="m24.98 23.16c.31 0 .58.13.78.35s.33.51.33.84c0-.65.49-1.19 1.1-1.19-.31 0-.58-.13-.78-.34-.2-.22-.32-.51-.32-.84 0 .33-.12.62-.33.84-.2.21-.48.34-.78.34z" fill="#fff"/></g><g><g><path d="m20.79 9.71c-.4-.24-.35-1.04.25-1.67s1.4-.72 1.66-.33c.27.39.03 1.01-.43 1.5s-1.08.75-1.48.5z" fill="#fff"/></g><g><path d="m20.2 10.8c-.18-.08-.26-.34-.14-.56s.36-.31.54-.21c.17.11.22.35.12.55-.11.2-.34.3-.52.22z" fill="#fff"/></g></g></g></g></svg>