<svg height="512" viewBox="0 0 512 512" width="512" xmlns="http://www.w3.org/2000/svg"><g id="Stickers"><path d="m505.22 80.22a38.47 38.47 0 0 0 -38.47-38.47h-151.92c1.15-1.23 2.23-2.42 3.26-3.59 11.78-13.43 2.28-32.16-14.18-32.16-7.1 0-11.83 3.29-16.9 7.14a30.21 30.21 0 0 0 -7.15 1.8c-20.91-5.68-38.63 9.18-52.4 25.91-.25.3-.48.6-.7.9h-15.76c-3.59-13.75-12.3-20.33-22-21.09-7.54-11.66-23.59-11.66-31.85-1.37-3.55-.08-7.09-.12-10.61-.15-8.1-10.29-23.34-9.61-31.07.52-3.81.14-7.62.32-11.41.53-8.58-12.45-27-10.81-33.88 2.7-13.85 1.74-22.08 9.92-25.1 22.54-25.23 1.23-38.3 10-38.3 55.09v312.48a35 35 0 0 0 35 35h39.7c-1.43 5.34-.63 11.68 4.22 18.47.21.29.44.6.66.94a115.71 115.71 0 0 0 32.14 33c11.64 7.91 23.18 7.66 34.32-2.81l52.87-49.63h52.93c27.14 16.54 56.23 19.66 81.36 0h132.53a32.71 32.71 0 0 0 32.71-32.71z" fill="#fff"/><rect fill="#00abfe" height="371.82" rx="24.08" width="463.95" x="24.02" y="59"/><rect fill="#fff" height="331.15" rx="24.08" width="427.73" x="39.55" y="81.42"/><path d="m187.62 37.85a679.92 679.92 0 0 0 -113.62 1.96c-7.94.81-11.24 2.75-12.82 13.24-3.59 23.85-3.45 48.07-3.3 72.18.48 78.37.06 75 1.37 77.53 2.12 4.09 7.71 4.47 12.32 4.3 119.68-4.27 113.19-3.5 116.09-5.17 3.63-2.09 4.44-6.89 4.84-11.06a989 989 0 0 0 3.81-126.6c-.31-10.59-1.23-25.89-8.69-26.38z" fill="#eae5db"/><path d="m86.05 30c-1.71 2-2.22 10.8-1.71 14.22a2.91 2.91 0 0 0 1.26 2.33 2.08 2.08 0 0 0 2.4-.7c1.53-1.75 2.47-9.83 2.63-12.3.24-4.41-2.63-5.83-4.58-3.55z" fill="#ffb020"/><path d="m129.31 30c-1.72 2-2.23 10.8-1.71 14.22a2.88 2.88 0 0 0 1.26 2.33 2.09 2.09 0 0 0 2.36-.66c1.53-1.75 2.47-9.83 2.62-12.3.29-4.45-2.62-5.87-4.53-3.59z" fill="#ffb020"/><path d="m170.7 30c-1.72 2-2.22 10.8-1.71 14.22a2.91 2.91 0 0 0 1.26 2.33 2.09 2.09 0 0 0 2.36-.66c1.53-1.75 2.47-9.83 2.63-12.3.28-4.45-2.63-5.87-4.54-3.59z" fill="#ffb020"/><path d="m74.48 73.21a116.09 116.09 0 0 0 13 15.73c2.91 2.94 4.5 2.5 6.47.49 12.6-12.81 19-28.81 18.9-31-.12-2.51-3.64-3.58-5.86-2.39-3.88 2.08-2.2 4.63-16.37 23.53-4.52-2.12-6-8.73-11.12-9.7-2.42-.46-6.08 1.81-5.02 3.34z" fill="#1d1d3d"/><path d="m130 71.27c14.39-2 28.94-4 43.38-2.51a8.1 8.1 0 0 1 3.82 1.09 2.89 2.89 0 0 1 1.14 3.49c-.62 1.15-2.09 1.47-3.39 1.66a345.51 345.51 0 0 1 -37.87 3.3c-3 .1-10.62.18-11.21-2.75-.36-1.69 1.29-3.89 4.13-4.28z" fill="#fff"/><path d="m73.86 121.64a117.59 117.59 0 0 0 13 15.73c2.91 2.94 4.5 2.49 6.47.49 12.6-12.81 19-28.82 18.9-31-.12-2.52-3.64-3.59-5.85-2.4-3.89 2.09-2.2 4.64-16.38 23.53-4.51-2.11-6-8.72-11.12-9.7-2.42-.46-6.08 1.82-5.02 3.35z" fill="#1d1d3d"/><path d="m129.37 119.7c14.39-2 28.94-4 43.39-2.51a7.84 7.84 0 0 1 3.81 1.09 2.87 2.87 0 0 1 1.14 3.49c-.61 1.15-2.09 1.47-3.39 1.65-7.68 1.1-39.41 4.94-46.78 2.51-4.36-1.44-1.99-5.7 1.83-6.23z" fill="#fff"/><path d="m73.24 170.06a115.68 115.68 0 0 0 13.05 15.73c2.9 2.94 4.49 2.5 6.47.49 12.6-12.81 19-28.81 18.89-31-.12-2.51-3.64-3.58-5.85-2.39-3.88 2.09-2.2 4.63-16.37 23.53-4.52-2.12-6-8.73-11.13-9.7-2.46-.46-6.11 1.81-5.06 3.34z" fill="#1d1d3d"/><path d="m128.76 168.12c14.38-2 28.93-4 43.38-2.5a7.91 7.91 0 0 1 3.86 1.08 2.88 2.88 0 0 1 1.14 3.49c-.61 1.16-2.09 1.47-3.38 1.66-7.69 1.1-39.42 4.94-46.79 2.51-1-.33-2.09-.93-2.3-2-.39-1.64 1.26-3.84 4.09-4.24z" fill="#fff"/><path d="m284.62 39.26c-2.41-6.28-10.16-9.2-16.78-8-10.12 1.74-20.51 12.58-27.06 20.55-2 2.42-.76 5 1.85 2.84 8.14-6.75 15.55-15.17 25.7-18.12 3.38-1 7.56-1.07 9.83 1.61.9 1.06 1.42 2.48 2.56 3.28s3.28.25 3.9-2.16z" fill="#1d1d3d"/><path d="m288.36 34.27a146.86 146.86 0 0 1 11.91-9.48c1.44-1 3.31-2.07 4.88-1.25 1.1.57 1.38 1.64 0 3.25-.85 1-10.75 12-12 11.9-1.04-.08-4.15-3.69-4.79-4.42z" fill="#1d1d3d"/><path d="m297.53 40.17c-1.16 7.66-15.83 24.83-20.92 30.49a237 237 0 0 1 -31.48 28.85c-15.85 12.28-33.08 23.13-50.81 33.74-8.94 5.36-10.88 7.27-7.38-1.74a45.14 45.14 0 0 1 1.93-4.4c6-12.26 36.7-48.53 72-79.16a174.68 174.68 0 0 1 19.84-14.15c4-2.48 9-5 13.09-2.71 3.04 1.71 4.25 5.63 3.73 9.08z" fill="#a369f7"/><path d="m194.32 133.25c-8.94 5.36-10.88 7.27-7.38-1.74a45.14 45.14 0 0 1 1.93-4.4 16.29 16.29 0 0 1 5.45 6.14z" fill="#1d1d3d"/><g fill="#ff605b"><path d="m276.61 70.66a237 237 0 0 1 -31.48 28.85 43.36 43.36 0 0 1 -18.07-19.57 423.83 423.83 0 0 1 31.82-30.32 59 59 0 0 0 17.73 21.04z"/><path d="m82.21 294.91h60.37v117.28h-60.37z"/><path d="m177.07 244.9h60.37v167.28h-60.37z"/><path d="m274.63 182.8h60.37v229.39h-60.37z"/><path d="m367.76 146.58h60.37v265.61h-60.37z"/></g><path d="m113.45 270.09-61.19-40.79c-2.75-1.83 0-6 2.77-4.16 69.89 45.82 63.3 45 70.3 41.59 35.63-17.51 67.41-42.82 98.14-67.3 26.91-21.43 54.74-43.6 85.25-60.65a2.4 2.4 0 0 1 .9-.3c41.08-5.22 82.49-12 123.08-20.27 3.25-.66 4.23 4.24 1 4.9-40.55 8.22-81.91 15-122.95 20.27-30 16.82-57.52 38.75-84.16 60-30.93 24.65-62.93 50.13-99.05 67.87-5.75 2.75-8.54 2.56-14.09-1.16z" fill="#7ad001"/><path d="m135.94 253.37c-3.41-.59-7.09-1.15-10.19.38-7.49 3.7-10.18 20.27-.37 24.4 10.83 4.56 20-11.44 16.93-19.43a9.27 9.27 0 0 0 -6.37-5.35z" fill="#ffb020"/><path d="m318.35 132.89c-5.59-1.18-12.16-2.12-16.36 1.75-4.45 4.08-4.65 13.2-1.38 17.2s14.52 7.23 21.29 3c9.28-5.84 5.98-19.94-3.55-21.95z" fill="#ffb020"/><path d="m437.33 110.11c-6.88-1.63-13.85 3.88-14.3 12-.32 5.67 2.42 8.73 7.94 10.05 12.6 3 20-6.73 13-16.9-1.97-2.77-4.97-5.2-6.64-5.15z" fill="#ffb020"/><path d="m100.2 450c35.33-25.6 59.62-66.09 100.19-83.81 20.05-8.76 44.13-10.64 63.42-.31 15.08 8.09 28.39 23.54 45.38 21.5 10.86-1.31 19.36-9.64 26.9-17.57 16.13-16.95 32-34.16 48-50.86-8.48-5.93-16.62-16.09-17-19.8-.38-4.23 4.74-6.56 8.89-7.48a257.21 257.21 0 0 1 50.15-6.09c25.73-.58 23.58 13.51 24.92 48.75.25 6.69.77 24.48-5.51 27.14-3.78 1.61-20.1-2-31.69-14.72q-35.05 41-74 78.42c-6.63 6.36-13.55 12.78-22.05 16.28-18.78 7.71-40.45-.67-56.89-12.58-10.46-7.58-21.5-17.12-34.35-15.75s-15.6 6.38-85.5 72c-4.51 4.23-7.11 5-12.82 1.12a97.8 97.8 0 0 1 -27.32-28.07c-2.3-3.53-4.75-5.17-.72-8.17z" fill="#7ad001"/></g></svg>