<svg id="Ramadhan" height="512" viewBox="0 0 1200 1200" width="512" xmlns="http://www.w3.org/2000/svg"><g><path d="m1074.612 718.035c-7.785-77.015-30.91-140.092-68.888-187.851-3.166-22.75-8.158-46.529-19.478-69.388-6.814-14.238-16.447-28.369-21.655-42.234-9.521-25.268-11.806-56.088-14.825-85.586-3.188-76.309-44.57-129.496-100.908-129.496-16.989 0-41.111 5.068-68.209 25.994-12.471-33.419-49.213-64.006-86.857-62.773-48.986.048-90.794 40.233-111.781 74.782-45.099 71.226-36.248 180.581-101.228 233.004-2.292 1.221-3.906 1.81-4.902 2.094-11.433-11.084-16.303-68.173-10.893-98.18 62.675-26.849 91.896-103.193 52.916-160.514 22.143-21.226 31.177-48.717 22.954-74.874-16.519-50.862-78.323-59.846-121.387-35.045-8.436-21.954-28.607-35.945-52.894-35.752-46.341.135-70.588 52.529-75.447 84.541-36.733 12.988-68.272 39.046-90.234 71.896-5.962 8.41-11.473 15.928-17.679 21.934-4.086 4.216-11.014 6.505-21.979 9.89-18.008 5.561-45.092 13.924-61.072 43.855-52.453 89.072-.35 151.958 81.121 153.57 28.699 0 57.289-8.493 81.535-24.074-32.392 132.328 22.188 270.086 178.778 269.157 6.824 0 13.678-.297 20.506-.886.543 13.769 1.891 27.163 3.211 40.289 5.965 52.27 3.098 103.908-5.316 152.277-32.703 13.84-75.699 33.395-77.311 75.366-1.213 18.425 6.172 35.718 20.285 47.588 27.664 22.267 60.873 23.434 86.991 22.358-2.989 16.254.292 32.902 9.512 47.606 43.372 68.218 215.944 46.783 219.839-42.859.209-7.798-1.453-15.505-2.128-23.273-1.065-9.177-2.114-18.219-3.024-27.152.823.121 1.65.233 2.484.337 17.794 2.147 25.977 2.42 49.086-.337-.548 5.882-.482 12.419.52 18.931 17.752 85.171 160.777 73.545 209.473 18.849 18.252-20.31 21.938-47.591 14.897-73.281-3.087-15.12-6.073-29.759-8.382-44.27 24.441 34.389 67.233 18.357 88.004-3.915 36.19-30.235 56.049-79.509 49.455-122.9-4.516-29.721-20.29-53.872-45.09-69.678zm-489.537 180.146c-.452-6.658 1.021-25.338 2.467-35.859-.602 11.274-1.423 23.183-2.467 35.859zm136.74-44.347c1.166-5.981 2.401-11.946 3.688-17.883-1.231 6.096 1.163 14.515-3.688 17.883zm126.221-44.042c.577 14.093 1.097 27.901 1.153 41.432-1.566-13.614-1.807-27.493-1.153-41.432z" fill="#fff"/><g><path d="m1043.6 738.638c-4.717-69.54-22.74-141.083-69.027-194.921-2.875-23.553-7.011-47.109-17.62-68.532-7.464-15.196-16.954-29.239-22.925-45.176-11.283-30.13-13.506-62.974-16.832-94.693-3.37-91.912-68.234-136.489-137.209-60.777-6.734 7.958-12.49 16.604-17.613 25.626-3.162-32.017-7.43-67.748-34.803-88.876-43.194-33.229-94.676 9.51-117.454 46.776-45.405 76.97-34.507 185.609-111.288 243.717-62.631 36.568-72.016-66.818-67.975-107.311.627-13.368 2.604-26.636 4.195-39.885 63.345-16.995 92.085-84.271 43.436-133.869-15.453-11.419-7.54-8.303 4.897-17.043 16.308-10.537 32.293-28.814 26.714-49.763-15.372-43.386-75.02-27.479-97.877 1.084-7.887 8.619-14.02 18.558-18.248 29.257-4.79-1.524-9.756-2.489-14.687-3.411 15.546-22.981 23.81-81.741-18.673-75.53-29.697 11.518-36.595 48.812-40.633 77.008-34.537 7.585-64.618 27.594-85.661 55.863-8.938 11.916-16.921 24.697-27.669 35.124-23.18 23.908-61.068 13.96-78.107 47.197-60.121 96.661 53.865 132.75 123.035 81.449 12.898-9.215 23.496-20.526 32.283-33.686 7.072-13.289 21.162-18.744 35.66-15.223-26.867 79.492-53.234 175.485-8.646 253.271 34.092 54.694 103.592 71.239 164.045 61.316 12.586-3.18 13.424-3.268 20.008 8.07-2.104 32.776 4.012 64.804 5.736 97.388 1.396 26.421-.024 53.133-2.271 79.465-2.579 20.701-2.802 44.713-11.433 63.522-16.519 12.84-38.531 16.82-55.238 29.636-16.051 9.902-23.826 33.813-7.42 47.194 30.322 27.647 151.397 17.859 132.972-41.366-15.084-77.797 7.504-140.964 24.716-214.985 11.261 3.306 22.752 5.847 34.251 7.832 2.038 15.417 3.915 30.867 4.597 46.403 1.611 36.741-.24 73.819-3.266 110.44-2.689 25.424-3.6 51.735-12.396 75.942-10.102 12.057-26.741 16.552-39.959 24.436-25.414 11.208-56.68 38.994-38.088 68.632 28.761 42.122 155.855 29.693 159.623-27.656-4.56-41.366-10.857-83.178-6.791-125.08 3.447-45.861 13.697-91.466 24.873-135.98 2.768-11.025 5.08-22.082 6.989-33.19.479.107.987.178 1.552.162 14.285-.45 28.711-1.327 43.117-2.784 2.353 25.731 3.018 51.694 2.22 77.512-.69 15.559-.796 31.92-5.519 46.837-13.1 15.206-35.44 19.643-50.574 32.855-30.665 23.292-17.971 55.304 18.597 59.394 31.833 5.431 113.198-5.688 106.656-50.757-3.079-15.084-7.114-29.857-9.489-45.104-7.354-44.265-1.418-89.223 6.532-132.983 16.276-4.396 32.181-9.959 47.478-16.948 3.704 20.564 5.877 41.169 7.115 62.142 1.422 46.726 5.74 94.817-3.092 140.984-.881 6.227-5.979 9.608-11.104 13.558-26.051 19.367-71.779 34.641-66.896 74.476 2.831 16.397 17.456 26.098 32.403 30.499 40.536 12.305 138.709-4.521 130.105-61.646-6.166-30.617-12.908-60.734-15.015-91.997-3.357-49.897 3.237-99.72 10.596-148.983 5.317-29.768 17.755-57.824 20.263-88.134 12.158 31.825 17.218 65.814 18.01 99.978-10.107 12.465-19.537 26.575-22.379 42.65-4.896 23.953 8.943 45.224 21.036 64.596 5.687 9.651 9.192 18.848 11.122 29.855 1.36 7.758 5.197 16.035 13.832 17.304 11.468 1.684 22.727-8.774 30.415-15.8 46.949-38.69 60.075-120.703-5.202-147.361z" fill="#68182b"/><path d="m456.971 218.754c-9.655 5.918-18.317 12.949-23.166 23.633-3.061 6.744-12.979.886-9.941-5.811 8.494-18.709 27.65-27.905 44.621-37.447 14.182-7.936 34.299-21.308 30.896-40.496-3.292-18.549-26.182-22.668-41.414-18.834-32.471 8.171-56.855 39.747-58.861 72.741-.449 7.374-11.963 7.4-11.512 0 .359-5.911 1.34-11.713 2.801-17.37-29.922-8.664-62.361-6.326-91.066 5.668-14.499 6.061-28.07 14.659-39.49 25.464-20.65 19.47-32.018 47.344-55.639 63.898-19.41 13.957-49.867 10.44-63.154 32.507 21.201 17.105 51.25 8.262 72.813-3.483 6.516-3.548 12.32 6.397 5.811 9.939-15.736 9.988-37.068 13.222-53.379 15.407-7.477 21.646-4.358 45.207-3.477 67.636 38.146 7.114 77.498-9.456 102.479-38.126 9.658-11.214 15.324-25.882 30.282-31.162 13.375-4.72 28.29-1.086 41.562 2.146 54.061 13.739 143.209 5.239 153.816-62.126 2.827-26.861-11.861-50.292-33.982-64.184zm-70.111 40.527c-8.77 18.684-32.223 19.313-49.963 22.324-15.482 2.591-46.664 6.73-45.573-16.703 2.384-27.489 32.569-43.954 57.692-45.829 22.172-3.117 47.721 16.716 37.844 40.208z" fill="#ffb578"/><path d="m338.533 269.784c-4.27.747-8.549 1.444-12.842 1.914-6.975.344-16.865 1.988-22.504-2.802-2.877-15.572 13.791-27.357 26.184-33.227 7.371 10.061 10.443 21.649 9.162 34.115z" fill="#00ebed"/><path d="m370.701 261.251c-5.941 4.185-13.48 5.303-20.515 6.48.769-12.531-2.634-25.396-9.552-35.873 9.006-2.098 19.602-2.388 27.809 2.451 10.047 5.921 12.346 19.837 2.258 26.942z" fill="#d5d5d5"/><path d="m934.572 457.847c.263 2.58.419 5.175.458 7.783-19.061-.167-38.035 2.631-56.221 8.264-5.882-17.762-14.121-34.933-25.33-49.932 19.896-8.048 40.57-14.097 61.75-18.029 3.601 18.44 10.802 35.505 19.343 51.914z" fill="#ceffff"/><path d="m899.492 502.368c-8.193-7.083-17.009-13.411-25.985-19.451 19.757-7.013 40.485-10.537 61.449-10.38-.236 5.344-.796 10.68-1.474 15.91-.053.425-.111.872-.166 1.306-12.515-2.269-25.924 2.548-33.824 12.615z" fill="#83e1c4"/><path d="m932.395 496.551c-.732 7.864-4.108 17.915-7.121 23.137-7.652.423-14.861-8.07-20.627-12.741 6.599-8.156 17.35-12.535 27.748-10.396z" fill="#ff801d"/><path d="m872.25 476.05c-5.726 3.672-9.67-.016-14.731-3.051-15.267-8.645-31.429-15.598-48.067-21.14-.867-1.538-1.742-3.072-2.617-4.608 13.047-7.832 26.547-14.87 40.5-20.815.072.452.25.922.59 1.396 10.556 14.742 18.737 30.984 24.325 48.218z" fill="#ff5671"/><path d="m910.428 376.315c-8.271 9.431-30.908 8.637-33.211-5.728-.969-14.718 20.205-17.668 29.945-12.86 3.471 4.62 1.692 12.755 3.266 18.588z" fill="#a2603f"/><path d="m816.758 349.554c-9.459-17.475-18.338-35.412-23.82-54.665 18.065-10.245 36.904-18.819 56.855-24.848 17.471 77.205 41.341 41.162-33.035 79.513z" fill="#ff801d"/><path d="m902.403 309.066c.49 2.786.891 5.586 1.307 8.383-9.176 1.676-18.227 3.942-27.14 6.694-9.116-17.404-15.983-36.669-20.116-55.929 8.516-2.446 17.377-3.256 25.977-4.654 11.62 12.44 17.055 28.931 19.972 45.506z" fill="#00ebed"/><path d="m831.504 250.937c15.84-5.5 31.596-3.229 44.453 6.674-34.85 4.564-67.678 19.505-97.338 37.919 13.071-19.721 30.399-36.786 52.885-44.593z" fill="#ff5671"/><path d="m770.248 309.555c5.398-3.879 10.944-7.551 16.636-11.005 5.728 18.526 13.546 36.374 23.422 53.066.259.434.575.748.911 1.005-12.922 7.15-25.459 14.982-37.477 23.55-2.199-8.12-3.946-16.386-5.305-24.812-1.33-14.222-7.667-29.322 1.813-41.804z" fill="#00ebed"/><path d="m659.481 222.376c20.405-14.544 49.975-16.613 67.402 3.652 11.455 11.872 16.783 27.147 19.813 43.037-33.016 33.32-92.582 20.413-126.762-5.12 9.957-16.48 22.66-30.984 39.547-41.569z" fill="#ceffff"/><path d="m616.422 269.969c15.029 11.417 33.07 18.979 51.451 22.835 27.063 5.726 58.957 3.956 80.167-15.68 2.393 17.14 3.659 33.931 5.696 51.04-3.758 1.992-7.596 3.775-11.49 5.413-11.902-22.055-32.24-47.067-48.336-12.365-10.971 28.528.369 25.702-33.799 21.974-4.565-20.411-16.793-68.773-43.686-39.788-5.275 5.446-9.498 11.88-13.154 18.527-2.125-1.343-4.219-2.746-6.278-4.203 5.046-16.451 11.21-32.792 19.429-47.753z" fill="#b1d045"/><path d="m735.742 336.206c-13.379 4.87-27.385 7.726-41.51 8.635 1.314-10.031 4.406-20.097 10.465-28.298 11.799-17.292 25.063 10.416 31.045 19.663z" fill="#ff5671"/><path d="m652.621 341.863c-15.17-3.185-29.836-8.723-43.406-16.429 3.543-6.467 7.611-12.75 12.863-17.931 3.037-2.993 8.523-7.87 13.23-5.869 10.657 9.892 13.143 26.706 17.313 40.229z" fill="#ff5671"/><path d="m579.377 384.536c46.597 11.787 87.309 40.57 114.795 80.012 3.781 5.273 7.373 10.679 10.791 16.195 4.85 8.549 8.909 20.86 21.271 16.939 28.459-8.363 58.619-21.853 87.51-7.046 1.037.664 2.203.2 2.93.223 4.477 10.299 6.447 20.587 9.111 31.369-6.805 1.372-13.651-.724-20.289-2.275-23.572-5.197-48.848-1.345-69.797 10.667-10.393 5.959-19.742 15.926-31.637 18.86-13.584 3.351-18.313-10.821-22.14-20.87-15.718-41.276-41.544-81.714-80.403-104.563-9.505-5.534-19.698-10.012-30.323-12.869 3.056-8.777 5.734-17.672 8.181-26.642z" fill="#00ebed"/><path d="m336.112 158.215c4.854-16.253 12.725-40.498 31.945-42.338 19.41 4.646 12.563 35.925 5.84 50.177-1.971 4.531-4.495 8.792-6.826 13.13-11.75-1.095-23.605-.767-35.289.938 1.007-7.34 2.406-14.686 4.33-21.907z" fill="#ffb578"/><path d="m151.108 408.928c-11.82-4.459-21.828-12.22-26.104-24.59-5.575-16.122 1.109-33.761 8.264-48.251.591-1.196 1.2-2.344 1.807-3.497 6.227 4.644 12.969 7.627 19.988 9.287-7.358 21.447-4.91 44.809-3.955 67.051z" fill="#ffb578"/><path d="m442.61 988.255c5.863-8.255 21.096-27.865 32.27-24.142 2.43 1.527 2.104 4.826 1.166 7.164-4.518 7.942-11.341 14.735-13.336 24.102-4.115-.578-24.97-3.692-20.1-7.124z" fill="#fac135"/><path d="m561.44 772.519c-18.671 62.978-26.643 126.194-13.813 191.053-1.788 30.144-54.791 32.716-77.829 32.363 2.238-10.953 14.257-17.695 13.778-29.271-3.373-17.613-23.415-8.556-31.53.286-5.762 5.869-14.014 12.322-15.84 20.397-4.797-2.862-8.543-6.582-9.506-11.729-.637-22.262 30.099-29.768 46.232-38.333 8.004-3.646 19.02-7.722 24.014-15.478 8.635-16.93 8.957-37.053 11.657-55.575 7.956-56.354 1.552-112.582-2.608-168.879-.338-5.696.117-5.903 3.76-1.194 16.604 17.537 38.594 28.979 61.186 36.864-2.415 13.368-6.002 26.34-9.501 39.496z" fill="#ffb578"/><path d="m544.614 708.663c-20.195-10.485-34.219-28.236-45.752-47.258 12.015-4.304 23.387-10.131 34.337-16.809 88.878 59.535 71.175-.493 81.454 87.866-24.321-4.494-48.52-11.461-70.039-23.799z" fill="#fac135"/><path d="m566.449 1080.52c-7.031-1.644-14.402-4.211-20.429-8.036 6.632-13.775 16.581-25.975 29.253-34.623 2.127-1.455 6.172-4.347 8.902-2.916 5.781 5.909-8.666 22.383-11.311 28.901-2.907 5.266-5.329 10.821-6.415 16.674z" fill="#fac135"/><path d="m725.19 951.375c-6.332-.768-12.91-2.256-18.331-5.215 6.22-11.329 13.661-24.362 26.833-28.226 1.522-.425 6.582-1.407 6.57 1.55-2.849 5.576-7.359 10.656-9.688 16.688-2.259 4.908-4.048 9.99-5.384 15.203z" fill="#fac135"/><path d="m813.467 927.253c-19.509 21.309-52.751 24.994-80.191 24.806-1.806-6.19 6.26-17.767 10.119-24.502 2.154-3.144 4.564-6.222 3.449-10.276-2.32-8.433-12.469-7.306-18.699-4.686-12.75 5.417-20.371 17.843-26.883 29.443-3.73-3.283-5.258-8.001-4.246-13.368 9.546-26.251 44.722-28.963 62.428-47.862 17.166-22.498 10.314-106.081 8.464-136.384 15.065-1.867 30.063-4.446 44.823-7.891-8.805 47.532-13.357 96.456-3.521 144.197 1.166 6.235 2.479 12.446 3.893 18.631 2.1 9.48 7.288 19.521.364 27.892z" fill="#ffb578"/><path d="m820.151 722.936c-34.396 9.048-71.191 13.006-106.525 14.036 14.035-90.417-18.662-47.052 60.079-80.957 25.88-13.451 51.753-28.609 81.462-31.353 2.682 26.819 9.337 53.39 14.938 79.688-14.433 8.588-33.168 13.678-49.954 18.586z" fill="#fac135"/><path d="m840.539 1028.773c-8.403-1.578-16.826-4.468-22.926-9.79 4.979-12.442 13.984-23.204 25.6-29.962 3.679-2.141 14.881-7.481 14.777.925-1.145 7.939-8.762 13.273-11.479 20.748-2.8 5.778-4.739 11.842-5.972 18.079z" fill="#fac135"/><path d="m958.01 685.252c-5.85 19.505-12.591 38.609-14.355 59.048-9.278 60.464-14.861 122.242-4.305 182.929 2.487 15.614 5.648 31.115 9.139 46.531 1.729 7.637 2.875 14.065-.571 21.169-18.136 29.817-62.249 36.244-94.433 35.443-12.025 1.709-1.461-13.772.904-19.859 4.15-7.394 12.957-15.12 9.957-24.509-11.898-23.06-46.748 12.395-51.732 27.119-10.14-16.192 4.796-33.937 17.852-43.707 42.371-30.96 60.617-22.227 61.445-83.041 2.291-49.554.998-99.432-4.39-148.754-4.048-33.5-14.009-65.931-19.132-99.258-3.076-20.033-4.088-40.353-1.393-60.487.979-7.319-10.543-7.247-11.512 0-1.791 13.366-1.896 26.676-.928 39.923-18.598 2.438-36.252 7.832-53.207 16.109-26.23 13.606-52.414 28.814-82.407 32.106.104-5.736.181-11.475.187-17.213.01-7.41-11.504-7.421-11.513 0-.043 38.634-1.723 77.659-10.4 115.439-8.772 38.198-18.497 76.14-24.339 114.951-8.08 51.823-6.391 104.165 1.69 155.885 6.479 43.266-69.405 52.274-99.753 47.037-4.524-1.183 4.352-14.69 5.961-18.194 4.199-7.162 10.203-14.915 11.507-23.298 2.183-8.826-6.611-15.557-14.621-11.859-8.174 3.517-14.872 9.876-21.09 16.12-6.503 6.906-11.892 14.799-16.083 23.301-5.424-5.176-8.52-11.974-6.943-20.848 11.117-42.49 80.048-35.416 86.834-80.354 11.68-66.333 15.695-134.942 9.715-202.09-5.229-43.592-14.99-88.104-5.505-131.801 1.565-7.225-9.53-10.31-11.103-3.063-3.104 14.333-4.173 28.585-4.076 42.801-24.949-6.671-48.274-18.063-69.814-32.252 6.363-4.117 12.602-8.478 18.754-12.95 5.935-4.315.195-14.309-5.811-9.941-48.889 40.141-111.716 52.616-171.715 30.858-53.167-17.735-81.385-73.212-81.814-126.856-2.363-56.706 13.163-113.366 31.865-166.347 30.092 7.623 61.822 10.314 92.299 2.5-5.605 38.524-8.35 80.403 3.953 117.806 21.516 65.575 75.705 53.869 108.703 4.846 13.091-17.98 23.297-38.085 31.438-58.739 45.554 13.166 77.487 51.933 96.695 93.641 15.531 43.743 28.203 62.511 71.158 29.197 20.809-14.536 47.587-18.94 72.041-12.368 7.42 1.802 17.514 3.929 24.592-.105 15.723-9.379-7.928-52.522-13.947-65.052 29.146 11.317 55.844 27.765 79.509 48.412 8.144 7.105 24.831 23.795 35.938 12.226 10.523-13.024 10.351-32.257 12.816-48.155 24.633 52.279 26.684 149.891 11.94 205.703z" fill="#ffb578"/><path d="m978.634 622.748c.718-19.093-.013-38.447-1.738-57.635 36.422 50.203 51.782 113.427 54.913 174.619.404 8.714 1.607 18.608-2.551 26.606-2.95 5.681-9.192 9.572-15.003 5.248-9.348-6.957-7.841-21.858-8.234-31.951-1.572-40.52-9.532-80.308-27.387-116.887z" fill="#ffb578"/><path d="m1050.848 867.832c-8.648 8.46-17.299 18.911-29.205 22.559-5.292.825-5.193-6.244-6.126-9.838-8.903-44.265-55.233-69.504-18.757-116.912 10.381 36.352 49.166 21.947 47.229-12.431 46.005 20.971 39.06 85.841 6.859 116.622z" fill="#fac135"/><path d="m911.467 384.55c-13.987 9.784-41.58 4.531-41.178-15.691.946-17.854 22.871-23.424 37.348-18.414-.877-8.745-1.799-17.485-2.95-26.192-46.471 8.561-90.897 31.468-128.932 58.872 6.118 20.51 17.067 39.804 27.73 58.112 33.899-20.589 71.38-34.872 110.372-42.053-.902-4.864-1.706-9.739-2.39-14.634zm-67.066 15.34c-5.213 8.755-16.204 13.337-26.076 13.443-9.096.097-18.291-4.633-20.469-14.124-4.051-18.862 19.086-30.78 35.182-27.598 12.093 3.137 17.717 17.614 11.363 28.279z" fill="#b1d045"/><path d="m812.303 382.537c5.478-3.193 12.642-5.325 18.897-4.266 7.36 1.909 11.176 10.42 7.727 17.249-5.784 11.005-27.825 16.613-33.973 3.366-2.536-6.774 1.726-12.958 7.349-16.349z" fill="#a2603f"/><path d="m759.834 368.069c-8.504-43.943 2.996-31.243-36.695-20.686-43.494 10.967-91.273 2.824-128.212-22.716-5.154 17.748-9.063 35.36-13.741 53.146 49.416 11.918 92.264 43.76 120.636 85.62 6.294 8.689 11.743 18.417 17.288 27.459 3.058 2.044 10.506-1.167 13.807-2.249 25.514-9.476 54.018-17.119 80.074-5.785-18.768-37.779-45.001-72.566-53.157-114.789zm-4.098 86.263c-8.294 17.185-37.192-16.8-44.893-24.002-3.169-3.44-5.763-6.71-6.397-11.461-.295-11.396-3.477-25.044 3.434-35.008 10.828-12.26 44.767 21.464 55.11 28.723 6.518 11.009-1.754 31.166-7.254 41.748z" fill="#83e1c4"/><path d="m711.953 390.302c.438-1.16 1.058-2.123 2.191-2.377.061.031.869-.033 1.16-.018.047.002-.52-.126.249.04.325.072.649.144.97.231 14.694 5.802 26.106 17.668 38.717 26.858 8.254 4.635-1.272 27.834-4.783 34.577-.764 1.66-1.637 4.093-3.869 2.344-6.035-3.649-11.592-8.115-16.948-12.698-6.058-6.342-15.077-12.084-18.286-20.389-.495-9.443-2.028-19.376.599-28.568z" fill="#ff801d"/><path d="m846.512 1010.694c2.59-7.131 9.579-12.336 11.217-19.691-1.113.775-2.211 1.585-3.259 2.484-6.288 5.401-18.876 22.453-28.673 22.446-1.745-.227-3.338-.791-4.756-1.668-.295-.232-.578-.516-.861-.801-.934 1.801-1.811 3.632-2.566 5.519 6.1 5.322 14.522 8.212 22.926 9.79 1.232-6.237 3.171-12.301 5.972-18.079z" fill="#ee9e2b"/><path d="m730.574 936.172c2.024-5.244 5.645-9.784 8.442-14.543-1.374.98-2.729 2-4.041 3.115-2.382 2.023-4.05 5.03-5.685 7.632-.899 1.479-1.83 2.937-2.793 4.376-3.377 5.167-12.33 9.17-17.542 5.642-.715 1.266-1.419 2.527-2.098 3.767 5.421 2.959 11.999 4.447 18.331 5.215 1.338-5.214 3.127-10.296 5.386-15.204z" fill="#ee9e2b"/><path d="m797.326 661.2c18.756-9.712 38.943-19.365 59.668-22.165-.705-4.785-1.349-9.572-1.828-14.373-29.709 2.743-55.582 17.901-81.462 31.353-60.476 26.04-55.225 6.562-55.888 37.059 27.723-6.981 54.243-18.789 79.51-31.874z" fill="#ee9e2b"/><path d="m566.449 1080.52c1.086-5.853 3.508-11.407 6.416-16.674 1.891-4.663 9.791-14.404 12.037-21.744-2.346 1.637-4.59 3.456-6.709 5.559-2.659 2.638-4.8 5.433-6.949 8.471-1.973 3-4.08 5.902-6.326 8.705-6.13 7.688-11.965 6.676-16.287 2.619-.92 1.65-1.792 3.326-2.61 5.028 6.026 3.825 13.397 6.392 20.428 8.036z" fill="#ee9e2b"/><path d="m533.198 644.597c-4.47 2.725-9.032 5.262-13.658 7.658 10.872 2.283 21.571 8.194 31.466 12.973 16.143 7.792 31.727 16.598 48.332 23.411 3.656 1.5 7.373 2.822 11.131 4.007-3.489-27.757-8.125-1.732-77.271-48.049z" fill="#ee9e2b"/><path d="m476.045 971.277c.527-1.319.795-2.919.551-4.36-.4.367-.803.693-1.201 1.075-6.75 6.461-20.822 26.89-30.316 16.895-.938 1.241-1.771 2.388-2.469 3.368-4.869 3.432 15.985 6.546 20.1 7.124 1.994-9.366 8.818-16.159 13.335-24.102z" fill="#ee9e2b"/><path d="m1005.254 779.039c-3.537-3.451-6.525-8.509-8.494-15.398-36.477 47.408 9.854 72.647 18.757 116.912.276 1.068.475 2.442.737 3.827 3.092-3.892 5.064-8.828 5.523-13.896 2.686-29.696-28.551-64.15-16.523-91.445z" fill="#ee9e2b"/><path d="m1051.295 789.986c-6.665 8.906-16.365 15.188-22.174 25.668-5.555 10.022-4.086 24.812 8.025 29.395 13.903 5.265 22.736-5.572 27.636-17.598 4.493-11.039 3.747-24.706.012-36.822-4.075-13.213-6.712-9.712-13.499-.643z" fill="#fbe134"/><path d="m532.606 701c3.766 2.824 7.721 5.437 12.008 7.663 21.52 12.338 45.719 19.305 70.039 23.8-.275-2.354-.52-4.552-.756-6.701-5.293-.775-10.578-1.68-15.849-2.736-21.997-4.413-45.12-11.053-65.442-22.026z" fill="#fbe134"/><path d="m870.105 704.35c-.684-3.206-1.383-6.417-2.087-9.631-44.651 21.284-94.219 29.327-144.346 32.842-2.922.205-5.846.369-8.766.551-.38 2.812-.799 5.739-1.281 8.86 35.334-1.03 72.13-4.988 106.525-14.036 16.787-4.908 35.522-9.998 49.955-18.586z" fill="#fbe134"/><path d="m930.549 506.173c-1.488 1.502-3.081 2.892-4.873 4.053-7.85 5.075-13.256-1.444-15.32-8.676-2.118 1.529-4.047 3.342-5.709 5.396 5.766 4.671 12.975 13.164 20.627 12.741 1.857-3.217 3.847-8.27 5.275-13.514z" fill="#ef6200"/><path d="m833.492 327.112c-11.892 4.002-21.99 1.048-30.537-5.152 4.189 9.399 8.914 18.561 13.803 27.594 56.547-29.156 56.293-15.358 45.249-40.973-7.49 8.54-17.735 14.904-28.515 18.531z" fill="#ef6200"/><path d="m729.64 439.26c5.356 4.583 10.913 9.049 16.948 12.698 2.232 1.749 3.105-.684 3.869-2.344 3.511-6.743 13.037-29.942 4.783-34.577-1.763-1.284-3.501-2.629-5.23-3.994.514 3.618.646 7.264-.08 11.006-2.754 14.195-18.604 10.273-26.377 4.097-5.627-4.471-9.798-10.481-12.854-17.021.205 3.272.485 6.537.654 9.746 3.21 8.305 12.229 14.047 18.287 20.389z" fill="#ef6200"/><path d="m746.696 269.065c-.719-3.78-1.583-7.522-2.617-11.196-16.99 16.111-39.705 24.368-65.661 20.028-17.474-2.921-35.946-11.668-37.192-31.271-.236-3.722.211-7.405 1.164-10.985-8.813 8.329-16.182 17.922-22.455 28.305 34.179 25.533 93.745 38.44 126.761 5.119z" fill="#a9cddd"/><path d="m890.125 452.036c-10.561-5.5-17.52-21.029-17.975-34.888-6.285 2.103-12.527 4.329-18.672 6.813 11.209 14.999 19.448 32.17 25.33 49.932 18.186-5.633 37.16-8.431 56.221-8.264-.039-2.608-.195-5.203-.458-7.783-1.518-2.918-2.976-5.866-4.396-8.83-12.612 6.288-27.186 9.719-40.05 3.02z" fill="#a9cddd"/><path d="m722.725 236.648c-5.642-6.922-13.238-12.113-22.234-12.748-11.885-.836-26.346 6.076-33.941 14.992-8.201 9.624 2.232 17.061 10.592 20.692 12.4 5.388 27.258 3.209 40.165-2.085 9.381-3.849 15.156-8.888 5.418-20.851z" fill="#e9fffb"/><path d="m896.537 417.528c-4.52 1.467-7.979 4.576-8.25 10.438-.391 8.379 6.867 14.473 14.457 15.842 9.658 1.743 12.205-6.233 11.198-14.333-1.68-13.44-7.726-15.088-17.405-11.947z" fill="#e9fffb"/><g fill="#ff9750"><path d="m653.696 532.179c7.293 16.422 14.107 33.584 31.942 40.647 18.833 7.458 37.368-5.631 52.792-14.628 10.447-6.097 21.293-11.106 33.148-13.708 10.992-2.408 22.064-1.079 33.133-.319 12.03.823 29.473 1.77 39.291-6.876 9.213-8.111 8.189-19.822 3.744-30.24-2.307-5.396-5.375-13.22 3.888-13.29 5.395-.04 11.165 2.308 16.173 4.093 5.583 1.99 10.998 4.388 16.363 6.903-20.273-15.65-42.479-28.421-66.363-37.694 6.02 12.529 29.67 55.673 13.947 65.052-7.078 4.034-17.172 1.907-24.592.105-24.454-6.572-51.232-2.168-72.041 12.368-42.955 33.313-55.627 14.546-71.158-29.197-16.551-35.936-42.572-69.643-78.589-86.72 32.952 26.575 51.03 64.568 68.322 103.504z"/><path d="m554.203 630.576c-4.813 3.432-9.662 6.802-14.607 10.002 21.54 14.188 44.865 25.581 69.814 32.252-.078-11.438.661-22.904 2.545-34.415-6.785 5.983-13.683 11.425-22.897 13.793-16.256 4.176-31.444-6.931-34.855-21.632z"/><path d="m785.258 626.758c-12.267 7.895-48.311 34.377-66.172 25.945-.026 4.438-.063 8.875-.144 13.312 29.993-3.292 56.177-18.5 82.407-32.106 16.955-8.277 34.609-13.672 53.207-16.109-.56-7.668-.703-15.358-.424-23.064-25.473 4.217-47.163 18.048-68.874 32.022z"/><path d="m958.01 685.252c6.781-25.671 9.999-60.186 9.111-95.063-2.082 17.542-5.561 34.938-8.9 51.425-8.992 44.396-22.078 87.703-28.927 132.572-8.19 53.64-4.267 106.076-.407 159.864.844 11.761 2.166 23.629 2.127 35.426-.051 16.273-10.577 29.277-24.016 37.258-9.213 5.474-20.371 7.83-30.945 8.415-8.842.487-15.643-2.054-20.018-7.279-.594.886-1.156 1.768-1.646 2.643-2.365 6.087-12.93 21.568-.904 19.859 32.184.801 76.297-5.626 94.433-35.443 3.446-7.104 2.301-13.532.571-21.169-3.49-15.416-6.651-30.917-9.139-46.531-10.557-60.687-4.974-122.465 4.305-182.929 1.764-20.439 8.505-39.543 14.355-59.048z"/><path d="m265.291 374.08c9.658-11.214 15.324-25.882 30.282-31.162 13.375-4.72 28.29-1.086 41.562 2.146 54.061 13.739 143.209 5.239 153.816-62.126.943-8.961-.1-17.526-2.682-25.498 1.177 9.662.331 19.548-3.049 29.849-6.19 18.873-21.279 33.672-38.656 42.493-19.622 9.959-43.803 11.108-65.354 11.268-21.641.162-41.51-8.763-62.717-11.18-14.844-1.691-28.529.231-41.771 7.285-15.541 8.277-26.55 23.681-38.155 36.424-13.598 14.934-31.378 28.959-52.624 28.559-12.219-.231-20.408-10.816-24.514-23.247.002 11.14.951 22.363 1.383 33.316 38.147 7.113 77.499-9.457 102.479-38.127z"/><path d="m149.981 374.819c-4.656 7.072-10.963 11.46-19.008 7.461-3.631-1.806-6.165-5.023-7.969-8.832.16 3.67.765 7.319 2 10.89 4.275 12.37 14.283 20.131 26.104 24.59-.481-11.215-1.336-22.712-1.127-34.109z"/><path d="m1007.316 701.285c-3.323-24.059-9.597-47.641-16.13-70.992-3.525-12.608-8.412-24.729-12.541-37.081.334 9.876.358 19.741-.011 29.536 17.854 36.579 25.815 76.367 27.387 116.888.394 10.093-1.113 24.994 8.234 31.951 4.091 3.045 8.372 1.975 11.589-.881-20.975-12.23-15.497-47.51-18.528-69.421z"/><path d="m389.729 248.067c1.596-10.934-5.172-20.81-13.266-27.266-20.994-16.741-55.246-4.385-73.77 10.306-13.041 10.337-21.356 30.874-9.863 42.334-1.07-2.339-1.666-5.114-1.507-8.539 2.384-27.489 32.569-43.954 57.692-45.829 20.123-2.829 42.938 13.265 39.611 33.824.476-1.627.874-3.256 1.103-4.83z"/><path d="m570.94 733.022c-19.936-6.959-39.392-16.703-55.105-30.946 1.401 4.977 3.603 9.696 6.931 13.884 11.851 14.908 23.444 24.951 24.308 45.445.723 17.108-5.329 34.342-9.236 50.798-4.129 17.377-6.859 35.162-8.539 52.933-1.59 16.822-1.138 33.394.65 50.154 1.821 17.079 3.662 35.021-4.49 50.834-4.736 9.188-16.483 15.255-25.902 18.076-9.915 2.971-16.494.257-19.607-5.972-3.6 5.723-8.76 10.901-10.15 17.706 23.038.353 76.041-2.22 77.829-32.363-12.829-64.858-4.857-128.075 13.813-191.053 3.497-13.155 7.084-26.127 9.498-39.496z"/><path d="m631.443 1064.705c-8.464 2.905-18.659 3.218-27.528 2.971-8.863-.248-14.912-4.585-18.763-10.834-1.502 2.419-3.03 4.782-4.376 7.078-1.609 3.504-10.485 17.012-5.961 18.194 30.348 5.237 106.231-3.771 99.753-47.037-8.081-51.72-9.771-104.062-1.69-155.885 5.842-38.812 15.566-76.753 24.339-114.951 7.963-34.663 10.011-70.37 10.333-105.865-3.523 9.089-5.055 19.06-6.323 28.605-2.669 20.069-5.976 39.565-10.951 59.223-11.079 43.772-21.255 87.579-28.054 132.262-3.236 21.253-5.311 42.66-6.095 64.142-.784 21.418 1.407 42.402 2.544 63.735 1.224 23.045-2.39 49.833-27.228 58.362z"/><path d="m813.467 927.253c6.924-8.371 1.736-18.412-.365-27.892-1.413-6.185-2.727-12.396-3.893-18.631-9.836-47.741-5.283-96.665 3.521-144.197-10.699 2.496-21.522 4.526-32.406 6.172 10.418 7.927 11.254 22.12 9.941 37.394-2.161 25.11-3.014 49.355.216 74.448 2.608 20.279 14.626 46.723 4.788 66.246-5.49 10.893-21.521 17.49-32.327 21.231-11.927 4.131-18.243-1.378-22.456-9.59-3.945 6.559-8.632 14.749-7.211 19.624 27.441.189 60.683-3.496 80.192-24.805z"/><path d="m352.555 359.837c-7.291-1.179-14.533-2.685-21.68-4.495-18.702 52.98-34.229 109.641-31.865 166.347.43 53.645 28.647 109.121 81.814 126.856 55.475 20.116 113.342 10.915 160.397-22.305-42.055 17.074-88.487 25.5-133.677 17.338-38.311-6.922-68.955-33.447-84.756-68.468-17.526-38.846-14.392-84.586-6.92-125.455 5.453-29.812 14.937-66.288 36.687-89.818z"/><path d="m368.057 115.877c-.211.021-.404.081-.613.105 5.115 5.57 5.124 16.249 4.094 22.8-1.084 6.885-3.584 13.465-6.512 19.747-3.575 7.664-8.729 13.917-14.092 20.079 5.383-.09 10.771.076 16.137.575 2.331-4.338 4.855-8.599 6.826-13.13 6.722-14.251 13.57-45.531-5.84-50.176z"/><path d="m423.864 236.576c8.494-18.709 27.65-27.905 44.621-37.447 14.182-7.936 34.299-21.308 30.896-40.496-1.183-6.662-4.916-11.437-9.893-14.677 1.458 3.479 1.971 7.657 1.152 12.95-1.363 8.792-7.385 16.271-13.701 22.091-10.014 9.227-23.432 14.414-34.551 22.136-8.801 6.112-15.926 14.551-19.479 24.686-1.243 3.549-1.27 8.562.498 12.278.091-.499.224-1.005.457-1.521z"/></g><path d="m901.862 856.753c-.867-46.808-3.06-93.634-10.592-139.9-3.926-24.104-9.832-47.867-14.759-71.775-4.062-19.688-4.745-40.93-10.27-60.41-1.671 17.904-.583 35.914 2.147 53.696 5.123 33.327 15.084 65.758 19.132 99.258 5.388 49.322 6.681 99.2 4.39 148.754-.828 60.814-19.074 52.081-61.445 83.041-8.05 6.023-16.795 15.084-19.957 24.938 16.451-16.192 39.053-27.211 59.086-38.666 34.357-19.643 32.912-64.106 32.268-98.936z" fill="#ffc9a1"/><path d="m728.149 906.082c14.891-7.684 32.398-14.024 41.762-28.863 9.895-15.683 6.043-40.304 5.66-57.551-.564-25.405-1.524-50.712-1.405-76.097-2.087.288-4.169.594-6.258.853 1.851 30.303 8.702 113.886-8.464 136.384-17.706 18.899-52.882 21.611-62.428 47.862-.451 2.395-.322 4.628.207 6.694 6.111-12.541 17.162-22.18 30.926-29.282z" fill="#ffc9a1"/><path d="m427.127 475.647c-12.303-37.402-9.559-79.281-3.953-117.806-9.596 2.461-19.318 3.776-29.07 4.329.818.488 1.632 1.025 2.432 1.666 7.396 5.926 8.99 17.599 10.027 26.285 1.662 13.896.709 27.998 2.256 41.941 2.34 21.075 5.43 42.374 14.346 61.805 7.855 17.115 22.543 29.997 41.699 32.103 23.682 2.602 43.609-8.916 58.654-26.51 5.35-6.256 10.635-14.241 15.248-23.173-.973 1.405-1.929 2.824-2.936 4.205-32.998 49.025-87.187 60.731-108.703-4.845z" fill="#ffc9a1"/><path d="m465.586 947.577c9.93-4.334 20.053-8.365 29.196-14.246 9.313-5.992 13.29-16.916 15.612-27.197 7.535-33.356 7.183-69.884 6.25-103.812-.552-20.04-2.891-40.013-5.451-59.88-1.117-8.664-2.137-17.311-3.564-25.932-.074-.445-.178-.884-.259-1.324 3.978 50.341 8.347 100.641 1.232 151.045-2.7 18.522-3.022 38.646-11.657 55.575-4.994 7.756-16.01 11.831-24.014 15.478-16.134 8.565-46.869 16.071-46.232 38.333.117.628.396 1.172.594 1.759 6.184-14.371 21.702-22.559 38.293-29.799z" fill="#ffc9a1"/><path d="m363.541 116.826c-15.961 4.897-22.977 26.48-27.43 41.389-1.924 7.221-3.322 14.567-4.33 21.906 2.66-.387 5.33-.684 8.006-.929-4.086-21.868 7.676-46.075 23.754-62.366z" fill="#ffc9a1"/><path d="m1029.584 712.78c-5.889-52.468-21.598-104.813-52.688-147.667.274 3.042.478 6.096.697 9.145 2.141 2.979 4.062 6.105 5.804 8.743 9.028 13.667 16.047 28.647 22.219 43.774 9.014 22.094 15.482 45.207 20.549 68.492 1.265 5.813 2.374 11.658 3.419 17.513z" fill="#ffc9a1"/><path d="m168.274 304.081c11.908-1.381 24.193-1.232 35.492-6.458 20.242-9.365 31.551-27.346 44.943-44.294 16.238-20.551 35.262-36.624 59.893-46.106 26.908-10.357 52.674-7.765 80.096-4.017.459-2.707 1.014-5.39 1.697-8.036-29.922-8.664-62.361-6.326-91.066 5.668-14.499 6.061-28.07 14.659-39.49 25.464-20.65 19.47-32.018 47.344-55.639 63.898-10.28 7.392-23.641 9.897-35.926 13.881z" fill="#ffc9a1"/><path d="m476.156 235.549c-5.338-6.496-11.839-12.181-19.186-16.795-7.566 4.639-14.494 9.988-19.484 17.218 12.164-7.266 26.559-6.733 38.67-.423z" fill="#ffc9a1"/><path d="m418.418 180.573c8.209-13.208 19.246-24.107 32.309-32.473 7.162-4.587 14.483-7.466 21.998-9.431-5.119-.416-10.271 0-14.758 1.129-32.471 8.171-56.855 39.747-58.861 72.741-.004.062-.021.113-.026.174 9.106-6.163 15.387-25.782 19.338-32.14z" fill="#ffc9a1"/><path d="m630.094 764.893c5.98 67.147 1.965 135.757-9.715 202.09-6.586 43.608-71.686 38.243-85.689 76.718 6.75-7.355 14.362-13.807 23.553-19.125 15.396-8.913 33.631-11.661 47.617-23.179 31.15-25.657 26.654-70.091 30.734-106.485 9.295-82.837-6.576-164.285-14.56-246.456-4.686 38.732 3.443 77.942 8.06 116.437z" fill="#ffc9a1"/><path d="m903.709 317.449c-.416-2.797-.816-5.597-1.307-8.383-.25-1.419-.547-2.835-.837-4.252-6.96 5.129-15.288 6.373-23.872 1.21-9.08-5.46-13.978-15.013-17.988-24.81 4.135 14.846 9.804 29.448 16.864 42.929 8.914-2.751 17.964-5.018 27.14-6.694z" fill="#00afb3"/><path d="m321.389 267.826c-1.602 1.466-3.363 2.941-5.186 4.398 3.322-.048 6.646-.387 9.488-.526 4.293-.47 8.572-1.167 12.842-1.914.949-9.246-.508-18.002-4.324-26.017.395 9.212-5.041 16.94-12.82 24.059z" fill="#00afb3"/><path d="m823.22 511.622c-8.103 2.267-16.638 2.455-26.122 1.2-15.168-2.006-29.391-1.9-44.145 2.323-14.414 4.126-25.2 10.813-37.969 18.187-17.662 10.196-25.209-8.932-29.832-22.136-18.322-52.321-59.162-91.275-111.42-107.803-.836 2.6-1.639 5.205-2.536 7.785 10.625 2.857 20.818 7.335 30.323 12.869 38.859 22.849 64.686 63.286 80.403 104.563 3.827 10.049 8.556 24.221 22.14 20.87 11.895-2.935 21.244-12.901 31.637-18.86 20.949-12.012 46.225-15.864 69.797-10.667 6.638 1.552 13.484 3.647 20.289 2.275-.885-3.588-1.714-7.11-2.565-10.606z" fill="#00afb3"/><path d="m765.682 319.948c-1.892 10.02 1.775 20.95 2.754 31.411 1.358 8.426 3.105 16.691 5.305 24.812 12.018-8.567 24.555-16.399 37.477-23.55-.336-.257-.652-.571-.911-1.005-.948-1.606-1.79-3.272-2.7-4.898-4.878 4.189-10.307 7.65-16.665 9.692-18.791 6.033-23.621-17.944-25.26-36.462z" fill="#00afb3"/><path d="m783.53 300.677c2.645 14.814 9.885 31.882 20.805 40.109-7.086-13.512-12.941-27.651-17.45-42.236-1.135.687-2.234 1.421-3.355 2.127z" fill="#88f9f9"/><path d="m329.371 235.67c-10.271 4.864-23.443 13.803-26.026 25.581.069-.102.135-.209.204-.311 6.283-9.246 16.818-18.007 27.596-22.61-.572-.892-1.135-1.79-1.774-2.66z" fill="#88f9f9"/><path d="m726.235 497.683c-12.362 3.921-16.422-8.391-21.271-16.939-3.418-5.517-7.01-10.922-10.791-16.195-27.486-39.441-68.198-68.225-114.795-80.012-.349 1.279-.742 2.543-1.102 3.818 25.362 7.036 48.033 21.758 68.26 38.29 17.1 13.974 36.701 31.333 46.322 51.641 3.977 8.39 6.288 17.558 13.621 23.791 7.105 6.04 19.12 3.197 26.975.751 21.389-6.66 46.059-14.699 70.172-16.222-25.759-7.675-52.239 3.685-77.391 11.077z" fill="#88f9f9"/><path d="m864.428 266.38c9.297 2.251 17.685 5.046 24.926 12.817 3.37 3.618 6.096 7.785 8.688 12.056-3.331-10.189-8.208-19.766-15.612-27.692-5.943.966-12.008 1.679-18.002 2.819z" fill="#88f9f9"/><path d="m826.852 267.269c-12.775 3.841-26.662 9.161-39.291 16.177-3.164 3.879-6.17 7.901-8.941 12.084 22.941-14.243 47.791-26.343 73.993-33.235-8.64.802-17.239 2.41-25.761 4.974z" fill="#df3f58"/><path d="m728.216 323.988c-2.771 3.551-6.698 6.526-10.19 8.61-8.488 5.071-15.431 1.512-19.391-5.023-2.229 5.516-3.631 11.392-4.402 17.266 14.125-.909 28.131-3.765 41.51-8.635-1.881-2.905-4.479-7.635-7.527-12.218z" fill="#df3f58"/><path d="m647.479 323.779c-1.641 1.293-3.381 2.508-5.339 3.56-10.612 5.698-23.073-.249-27.789-10.346-1.847 2.729-3.556 5.559-5.136 8.441 13.57 7.706 28.236 13.244 43.406 16.429-1.759-5.702-3.246-11.976-5.142-18.084z" fill="#df3f58"/><path d="m850.051 461.729c-11.418-1.612-24.137-10.987-29.55-22.237-4.603 2.498-9.172 5.062-13.667 7.76.875 1.536 1.75 3.07 2.617 4.608 16.639 5.542 32.801 12.495 48.067 21.14 5.062 3.035 9.006 6.723 14.731 3.051-1.624-5.005-3.528-9.896-5.584-14.722-5.359 1-10.916 1.204-16.614.4z" fill="#df3f58"/><path d="m831.504 250.937c-3.627 1.259-7.074 2.838-10.438 4.554 14.942-2.779 29.978-2.152 43.716 4.002 3.707-.724 7.424-1.39 11.176-1.882-12.858-9.904-28.614-12.174-44.454-6.674z" fill="#ff9780"/><path d="m795.098 468.337c-3.053 1.111-8.223-.375-11.385-.53-4.051-.198-8.108.242-12.129.668-6.366.674-12.582 2.457-18.662 4.385-10.453 3.313-19.869 4.661-29.904-.87-7.693-4.241-12.891-12.777-17.811-19.705-16.059-22.615-36.178-42.514-59.043-58.183-12.678-8.688-26.445-15.823-40.34-22.338-6.322-2.964-12.056-6.679-16.901-11.747-.974-1.019-1.757-2.091-2.436-3.188-1.731 6.982-3.456 13.969-5.302 20.986 49.416 11.918 92.264 43.76 120.636 85.62 6.294 8.689 11.743 18.417 17.288 27.459 3.058 2.044 10.506-1.167 13.807-2.249 25.514-9.476 54.018-17.119 80.074-5.785-3.48-7.007-7.221-13.911-11.052-20.78-1.686 2.97-3.905 5.191-6.84 6.257z" fill="#39b487"/><path d="m925.621 484.523c-11.912-1.741-24.13 3.791-32.791 12.354 2.257 1.785 4.484 3.609 6.662 5.491 7.899-10.067 21.309-14.884 33.824-12.615.055-.434.113-.881.166-1.306.077-.583.129-1.177.201-1.761-2.531-1.021-5.259-1.753-8.062-2.163z" fill="#39b487"/><path d="m759.834 368.069c-8.504-43.943 2.996-31.243-36.695-20.686-39.334 9.919-82.146 4.155-117.302-15.918 8.534 9.768 23.285 16.196 33.748 20.197 31.034 11.868 60.675 1.947 92.431 3.399 18.695.854 27.05 24.14 34.704 38.108.218.398.448.799.666 1.196-3.171-8.496-5.798-17.216-7.552-26.296z" fill="#b4efd7"/><path d="m882.168 488.924c17.4-6.719 34.571-12.323 52.734-15.638.014-.249.043-.499.054-.749-20.964-.157-41.692 3.367-61.449 10.38 2.914 1.961 5.797 3.97 8.661 6.007z" fill="#b4efd7"/><path d="m752.237 314.528c-.879 1.723-1.906 3.351-3.133 4.844-4.242 5.161-10.643 2.582-16.46-.976 3.556 4.686 6.812 10.011 9.603 15.181 3.895-1.638 7.732-3.421 11.49-5.413-.545-4.564-1.031-9.104-1.5-13.636z" fill="#abab38"/><path d="m836.852 417.081c-11.184 5.017-22.757 12.557-34.889 5.833-7.594-4.209-13.08-11.05-18.053-18.352 5.739 12.672 12.705 24.882 19.575 36.674 33.899-20.589 71.38-34.872 110.372-42.053-.271-1.454-.464-2.918-.716-4.376-19.275 2.818-38.263 8.517-56.489 14.864-6.617 2.306-13.406 4.541-19.8 7.41z" fill="#abab38"/><path d="m602.53 306.562c-.551-.434-1.027-.893-1.439-1.374-1.447 4.158-2.811 8.343-4.097 12.534 2.06 1.457 4.153 2.86 6.278 4.203 2.494-4.534 5.281-8.938 8.457-13.029-2.914.719-5.83.317-9.199-2.334z" fill="#abab38"/><path d="m693.91 321.212c1.729-3.729 3.51-6.73 5.322-9.159-14.627 7.913-27.453 32.095-42.131 12.12-1.601-2.179-3.02-4.551-4.418-6.924 3.508 9.146 5.9 19.105 7.428 25.937 34.169 3.728 22.829 6.554 33.799-21.974z" fill="#abab38"/><path d="m702.008 300.033c15.904-.651 34.335-4.915 47.011-15.142-.317-2.586-.616-5.168-.979-7.768-21.21 19.636-53.104 21.405-80.167 15.68-15.188-3.186-30.116-8.944-43.334-17.276 20.454 18.244 50.861 25.597 77.469 24.506z" fill="#d7e338"/><path d="m808.365 366.478c16.26-9.939 34.195-17.342 51.82-24.45 14.59-5.883 29.568-10.618 45-13.638-.17-1.379-.316-2.762-.499-4.138-46.471 8.561-90.897 31.468-128.932 58.872 1.065 3.568 2.321 7.09 3.649 10.587 1.383-4.446 3.587-8.386 7.775-12.348 6.184-5.85 13.963-10.469 21.187-14.885z" fill="#d7e338"/><path d="m877.217 370.588c2.303 14.364 24.939 15.158 33.211 5.728-.613-2.273-.72-4.898-.823-7.526-4.333 3.363-9.431 5.569-15.503 6.291-7.492.891-13.184-2.073-16.819-6.93-.089.777-.123 1.582-.066 2.437z" fill="#81391c"/><path d="m838.927 395.521c2.267-4.485 1.354-9.66-1.593-13.251-1.112 4.763-3.641 9.348-6.807 12.597-4.918 5.044-12.814 5.698-19.197 3.812-2.885-.852-5.207-2.683-7.049-4.936-.168 1.65.01 3.375.673 5.145 6.148 13.246 28.189 7.637 33.973-3.367z" fill="#81391c"/><path d="m367.782 250.774c-4.2 2.752-11.396 5.981-17.866 7.007.367 3.308.473 6.641.271 9.95 7.034-1.178 14.573-2.296 20.515-6.48 6.496-4.576 7.832-11.968 5.293-18.239-2.008 2.898-4.76 5.501-8.213 7.762z" fill="#bebebe"/></g></g></svg>