<svg id="Layer_1" height="512" viewBox="0 0 128 128" width="512" xmlns="http://www.w3.org/2000/svg" data-name="Layer 1"><path d="m106.3 88.255a5.5 5.5 0 0 0 -2.808-1.858 5.773 5.773 0 0 0 .113-5.47 4.907 4.907 0 0 0 -3.336-2.244 5.087 5.087 0 0 0 -.286-3.007 4.714 4.714 0 0 0 -1.378-1.8c.1-.073.79-.6 1.386-1.052a1.031 1.031 0 0 0 .127-1.524l-.744-.8 1.275-1.151a4.176 4.176 0 0 0 1.4-3.3 3.4 3.4 0 0 0 -2.478-2.849c2.188-3.385 1.052-5.255 1.052-5.255a3.643 3.643 0 0 0 -4.566-2.145c-.311-1.573-.774-3.209-3.563-3.847s-4.266 2.072-4.266 2.072a4.16 4.16 0 0 0 -3.96-1.97c-4.1.957-4.246 4.266-4.121 6.032a5.659 5.659 0 0 1 -.617 3.022 6.779 6.779 0 0 1 -1.491 2.191 1.514 1.514 0 0 1 -1.19.463 36.559 36.559 0 0 1 -5.921-.73.748.748 0 0 1 -.557-.739 55.6 55.6 0 0 0 -.549-8.069 34.417 34.417 0 0 1 .077-6.379c1.914-8.171 1.631-10.921 1.631-10.921a19.2 19.2 0 0 0 -6.981-15.073 17.677 17.677 0 0 0 -1.762-8.464c-1.276-2.618-3.071-4.25-5.192-4.72-.331-.074-1.172-.386-3.269.4a13.134 13.134 0 0 0 -.911-1.838 8.314 8.314 0 0 0 -5.8-4.164 5.789 5.789 0 0 0 -6.6 4.172 5.3 5.3 0 0 0 .106 2.872 6.771 6.771 0 0 0 -4.748 2.39 5.378 5.378 0 0 0 .1 7c1.481 1.547 3.471 1.706 5.068 1.834.752.061 2.547-.043 3.238 1.4a17.822 17.822 0 0 0 -2.943 3.617c-4.454.863-7.8 5.281-7.8 10.568a11.182 11.182 0 0 0 4.043 8.833q-1.13.779-2.1 1.605l-2.181 1.85 2.485 1.417a31.254 31.254 0 0 0 6.217 2.476c.622 1.2 2.363 1.919 2.687 5.825.231 2.8 1.028 5.9-.482 7-.219.159-.428.317-.635.475-6.044 1.6-13.57 6.728-15.98 13.336 0 0-.178.495-1.147 2.88a2.662 2.662 0 0 0 -3.932-.161c-.516.477-1.212 1.29-.388 4.657-.713.032-2.7.228-2.522 2.978a12.64 12.64 0 0 0 4.318 8.371 13.7 13.7 0 0 0 8.843 3.346 9.69 9.69 0 0 0 2.851-.323 19.909 19.909 0 0 0 6.477 5.269v5.132a13.126 13.126 0 0 0 -5.676 1.988c-.04.025-4.013 2.569-2.569 5.1a2.791 2.791 0 0 0 2.55 1.361c.108 0 .218 0 .324-.012a4.421 4.421 0 0 0 .968 3.242 3.56 3.56 0 0 0 2.728 1.34 3.3 3.3 0 0 0 2.747-1.3 4.254 4.254 0 0 0 3.047 1.4 3.4 3.4 0 0 0 2.056-.679c1.772-1.332 1.533-3.52 1.39-4.827 0 0-.041-.55-.029-.682a6.246 6.246 0 0 0 3.679.79 4.052 4.052 0 0 0 2.042-.884c2.376 2.119 5.651.128 5.721.094a3.327 3.327 0 0 1 -.028.675c-.145 1.309-.386 3.5 1.389 4.834a3.392 3.392 0 0 0 2.056.679 4.258 4.258 0 0 0 3.046-1.4 3.822 3.822 0 0 0 2.293 1.273c.681.124 4.322.033 4.149-4.551a2.866 2.866 0 0 0 2.877-1.35c1.443-2.535-2.532-5.078-2.574-5.1a13.1 13.1 0 0 0 -5.672-1.987v-4.989c1.512-.618 4.919-1.656 11.157-6.909.069-.058 9.521 4.539 22.129-.617 3.702-1.511 7.885-5.738 3.91-11.119zm-46.873 23.252a4.324 4.324 0 0 0 -3.58 1.332 4.692 4.692 0 0 0 -3.58-1.332v-1.921a25.276 25.276 0 0 0 7.16-.108z" fill="#fff"/><path d="m53.792 113.753a6.426 6.426 0 0 0 -3.365-.045v-9.819h-5.672v9.967a10.873 10.873 0 0 0 -6.626 1.718c-.559.343-2.207 1.836-1.882 2.406.215.378.75.38 1.181.324a29.08 29.08 0 0 0 4.017-.813 5.8 5.8 0 0 0 -2.051 2.916c-.229 1.187.669 2.644 1.868 2.481.983-.134 1.533-1.184 1.863-2.12s.71-2.008 1.634-2.369a5.8 5.8 0 0 0 .183 3.324c.488 1.015 1.882 1.67 2.782.993.924-.694.7-2.1.577-3.245-.116-1.109.17-2.517 1.251-2.789a3.463 3.463 0 0 1 2.149.579 3.615 3.615 0 0 0 1.979.355 2.024 2.024 0 0 0 1.587-1.13 2.252 2.252 0 0 0 -1.475-2.733z" fill="#f1b845"/><path d="m73.89 115.574a10.873 10.873 0 0 0 -6.626-1.718v-9.967h-5.672v9.819a6.427 6.427 0 0 0 -3.365.045 2.253 2.253 0 0 0 -1.475 2.733 2.026 2.026 0 0 0 1.588 1.13 3.61 3.61 0 0 0 1.978-.355 3.465 3.465 0 0 1 2.149-.579c1.081.272 1.368 1.68 1.251 2.789-.121 1.148-.347 2.551.577 3.245.9.677 2.294.022 2.783-.993a5.8 5.8 0 0 0 .182-3.324c.924.361 1.3 1.434 1.634 2.369s.88 1.986 1.863 2.12c1.2.163 2.1-1.294 1.868-2.481a5.8 5.8 0 0 0 -2.05-2.916 29.066 29.066 0 0 0 4.016.813c.431.056.966.054 1.181-.324.328-.57-1.323-2.063-1.882-2.406z" fill="#f1b845"/><path d="m61.15 14.258c-.8-1.639-2.046-3.247-3.826-3.642s-3.948 1.118-3.568 2.9a19.018 19.018 0 0 0 -1.893-5.255 6.425 6.425 0 0 0 -4.363-3.215 3.933 3.933 0 0 0 -4.371 2.654c-.577 2.414 1.679 4.488 3.687 5.947a10.367 10.367 0 0 0 -4.456-1.555 5.083 5.083 0 0 0 -4.27 1.663 3.412 3.412 0 0 0 -.007 4.358c1.518 1.587 4.167.932 6.255 1.612 3.324 1.082 2.331 4.122 4.129 6.2 1.848 2.136 6.917 2.286 9.486 2.255a5 5 0 0 0 2.636-.578 4.8 4.8 0 0 0 1.8-3.188 15.83 15.83 0 0 0 -1.239-10.156z" fill="#dc5b56"/><path d="m46.617 67.939c-6.387.9-14.274 6.419-16.482 12.478-.393 1.077-1.481 4.525-2.626 4.5a2.925 2.925 0 0 1 -1.923-1 .659.659 0 0 0 -1.174.406 8.775 8.775 0 0 0 2.273 5.866 5.12 5.12 0 0 1 -3.389-.95.657.657 0 0 0 -1.043.616 11.177 11.177 0 0 0 12.841 9.818 15.046 15.046 0 0 0 8.191-4.595 44.778 44.778 0 0 0 5.638-7.69z" fill="#ccc"/><path d="m100.223 66.266c-.116-1.1-1.59-1.468-2.671-1.219s-2.173.821-3.241.522a8.92 8.92 0 0 0 4.471-5.03 2.488 2.488 0 0 0 -.078-2.284 2.087 2.087 0 0 0 -2.695-.219 13.38 13.38 0 0 0 -2.137 2.049 2.947 2.947 0 0 1 -2.653 1 10.788 10.788 0 0 0 2.4-2.494 3.655 3.655 0 0 0 .4-3.317 2.241 2.241 0 0 0 -2.863-1.215 3.611 3.611 0 0 0 -1.257 1.3l-3.7 5.423a7.8 7.8 0 0 0 1.109-4.209c-.182-1.461-1.582-2.866-3-2.477a2.833 2.833 0 0 0 -1.794 2.16 21 21 0 0 0 -.271 2.929 9.379 9.379 0 0 1 -5.194 7.4l-.944 8a22.323 22.323 0 0 0 21.979-2.707 3.387 3.387 0 0 0 -3.107-.982 13.443 13.443 0 0 0 4.405-2.96 2.234 2.234 0 0 0 .841-1.67z" fill="#ccc"/><path d="m88.69 70.143c-1.895-2.292-4.854-3.451-7.784-3.96s-5.929-.461-8.88-.829a4.958 4.958 0 0 1 -2.878-1.054c-1.323-1.257-.662-3.372-.753-5.195-.155-3.1-.482-3.943-.559-8.066-.059-3.193.926-7.313 1.525-10.45a18.9 18.9 0 0 0 .333-3.545c0-9.142-6.423-16.553-14.346-16.553s-14.348 7.409-14.348 16.55a18.217 18.217 0 0 0 2.6 9.485 25.269 25.269 0 0 1 3.374 9.9c.493 3.788 2.144 8.887-.932 11.114-10.457 7.572-14 14.348-11.6 25.679a16.45 16.45 0 0 0 3.905 7.592c5.969 6.6 15.245 7.942 23.545 6.27a38.2 38.2 0 0 0 27.324-22.6c1.899-4.659 2.676-10.464-.526-14.338z" fill="#e6e6e6"/><path d="m89.221 84.478a38.2 38.2 0 0 1 -27.327 22.6c-8.3 1.674-17.574.333-23.55-6.261a16.547 16.547 0 0 1 -3.9-7.593 26.589 26.589 0 0 1 -.552-8.916 32.527 32.527 0 0 0 .552 3.445 16.464 16.464 0 0 0 3.9 7.583c5.976 6.6 15.253 7.945 23.55 6.271a38.2 38.2 0 0 0 27.327-22.6 23.02 23.02 0 0 0 1.389-4.777c.69 3.292-.086 7.041-1.389 10.248z" fill="#ccc" opacity=".5"/><path d="m100.348 87.926s6.13-7.357-2.7-7.6c0 0 3.678-5.395-3.924-6.131l-7.6-.736-20.109 6.865s2.34 25.73 36.031 17.108a4.83 4.83 0 0 0 3.533-3.721c.514-2.553.111-5.785-5.231-5.785z" fill="#e6e6e6"/><path d="m100.349 87.93s6.125-7.357-2.7-7.607c0 0 3.683-5.395-3.924-6.126-4.981-.491-6.7-.654-7.289-.712l6.491 1.654c2.049.2 3.357.779 3.77 1.664.491 1.029-.231 2.5-.558 2.972l-.971 1.452 1.741.048c1.433.038 3.241.307 3.7 1.336.625 1.385-1.067 3.915-1.712 4.694l-1.308 1.577h2.049c2.048 0 3.4.509 4.01 1.51a3.311 3.311 0 0 1 .419 1.664 4.707 4.707 0 0 1 -3.617 4.6 49.88 49.88 0 0 1 -11.766 1.575c-14.473 0-20.186-9.77-22.234-15.569 1.56 6.129 8.249 21.78 35.607 14.773a4.823 4.823 0 0 0 3.52-3.715c.516-2.555.116-5.79-5.228-5.79z" fill="#ccc"/><ellipse cx="43.587" cy="36.914" fill="#f2f2f2" rx="7.385" ry="8.729"/><ellipse cx="61.176" cy="36.306" fill="#f2f2f2" rx="7.899" ry="9.337"/><ellipse cx="59.76" cy="36.305" fill="#4d4d4d" rx="2.138" ry="2.527"/><ellipse cx="44.653" cy="36.305" fill="#4d4d4d" rx="2.138" ry="2.527"/><path d="m42.961 49.991s4.594 7.779 9.242 7.038 4.868-4.63 4.868-4.63l-6.1-1.369z" fill="#f1b845"/><path d="m52.2 41.657c-5.926 1.77-11.039 4.056-14.77 7.223a34.745 34.745 0 0 0 19.641 3.52c1.129-2.9-2.661-9.273-4.871-10.743z" fill="#f6e24d"/></svg>