<svg id="Layer_1" height="512" viewBox="0 0 128 128" width="512" xmlns="http://www.w3.org/2000/svg" data-name="Layer 1"><path d="m124.441 62.762a16.843 16.843 0 0 0 -9.734-10.075 25.5 25.5 0 0 0 -5.544-1.632 18.42 18.42 0 0 0 -2.494-3.349l-.223-.289-.088-.044c-6.212-6.525-18.05-7.422-21.557-7.541a235.57 235.57 0 0 0 -37.577.2q-.142-.508-.292-.988a17.187 17.187 0 0 0 5.844-4.844c1.958-2.6 2.072-6.205 1.821-8.775a4.476 4.476 0 0 0 -4.466-4.059 4.7 4.7 0 0 0 -.6.04c-7.758 1.049-10.89 5.8-12.153 9.419a26.878 26.878 0 0 0 -8.606 1.148 28.775 28.775 0 0 0 -7.828 3.585 13.5 13.5 0 0 0 -8.57-3.116 16.387 16.387 0 0 0 -6.743 1.565 4.435 4.435 0 0 0 -2.372 2.58 4.516 4.516 0 0 0 .21 3.513c1.149 2.309 3.158 5.307 6.2 6.47a16.63 16.63 0 0 0 5.98 1.075c.511 0 1.029-.022 1.551-.064 3.063 10.921 9.742 20.435 9.955 20.831a20.172 20.172 0 0 1 1.013 2.988c.715 2.528 1.7 5.989 5.763 5.989h.241c.892-.032 1.8-.1 2.714-.214l-1.686 20.902a2.3 2.3 0 0 0 -.24.684l-.88 5.194a2.221 2.221 0 0 0 .466 1.792 2.248 2.248 0 0 0 1.718.819h9.214a2.246 2.246 0 0 0 .553-.069 2.256 2.256 0 0 0 .728.139h.029l9.227-.07a2.228 2.228 0 0 0 2.225-2.2l.062-5.428a2.207 2.207 0 0 0 -.32-1.168l.053-7.888c11.912 1.742 18.957.866 21.793.5l-.808 7.434a2.245 2.245 0 0 0 -.407.945l-.88 5.194a2.227 2.227 0 0 0 .466 1.792 2.25 2.25 0 0 0 1.719.819h9.213a2.209 2.209 0 0 0 1.194-.349 2.334 2.334 0 0 0 1.188.349h9.214a2.228 2.228 0 0 0 2.224-2.2l.062-5.444v-.064l2.617-13.074a61.857 61.857 0 0 0 3.052-6.905c.284-.051 3.186-.566 4.214-.776a2.373 2.373 0 0 0 .853-.356h.418a10.618 10.618 0 0 0 5.723-1.447c4.2-2.595 6.157-8.413 4.551-13.538zm-5.957 5.455a5.89 5.89 0 0 1 -3.955 3.477 14.864 14.864 0 0 1 -1.51.329c-.577-.258-1.27-.525-2.042-.8a36.97 36.97 0 0 0 .931-10.9 9.294 9.294 0 0 1 1.378-.121 2.815 2.815 0 0 1 1.621.4c2.393 1.598 4.454 5.124 3.577 7.615z" fill="#fff"/><path d="m122.532 63.361c-1.268-4.05-4.717-7.157-8.615-8.835a24.472 24.472 0 0 0 -6.042-1.655 16.432 16.432 0 0 0 -2.729-3.864c-6.552-6.89-20.688-7.183-20.688-7.183s-6.825-.344-9.863-.443c-.427-.014-24.356.363-24.565.382-9.53.837-12.03 2.297-12.03 2.297s-8.848.275-8.848 14.222c0 7.468 5.094 13.7 9.828 17.882l-1.938 23.936h8.371l1.587-16.289.676 16.288h8.282l.084-12.587a73.827 73.827 0 0 0 26.052.5l-1.381 12.7h8.287l1.9-15.079a20.307 20.307 0 0 0 2.366-1.068l-1.045 16.147h8.379l3.118-15.612s7.871-14.259 5.987-26.412c2.285-.452 4.549-.939 6.318.245 3.089 2.068 5.586 6.443 4.352 9.949a7.919 7.919 0 0 1 -5.3 4.74 16.717 16.717 0 0 1 -5.533.593l-.228.958c3.207.63 6.777 1.118 9.529-.581 3.608-2.228 4.957-7.182 3.689-11.231z" fill="#ccc"/><path d="m52.606 25.619a2.493 2.493 0 0 0 -2.8-2.23c-12.026 1.625-11.338 13.122-11.338 13.122l2.632 2.452a16.811 16.811 0 0 0 10.083-5.971c1.581-2.103 1.633-5.224 1.423-7.373z" fill="#4d4d4d"/><path d="m51.73 27.346a1.8 1.8 0 0 0 -2.244-1.406c-8.642 1.777-6.978 10.169-6.611 11.66a14.742 14.742 0 0 0 7.525-4.955 7.564 7.564 0 0 0 1.33-5.299z" fill="#fdd1a3"/><path d="m6.458 35.829c11.054-5 16.567 5.115 16.567 5.115l-.925 3.471a16.809 16.809 0 0 1 -11.714.285c-2.46-.942-4.159-3.56-5.121-5.493a2.493 2.493 0 0 1 1.193-3.378z" fill="#4d4d4d"/><path d="m8.079 37.824c9.082-3.379 12.5 6.135 12.5 6.135l-.621.212a15.325 15.325 0 0 1 -9.2-.172 7.345 7.345 0 0 1 -3.835-3.793 1.8 1.8 0 0 1 1.156-2.382z" fill="#fdd1a3"/><path d="m37.379 34c-2.228-1.04-4.967 0-7.279.68a20.456 20.456 0 0 0 -7.75 4c-6.093 5.225 3.264 23.05 3.622 23.932.03.044 2.833 4.609 3 4.96 1.72 3.71 1.31 7.945 5.134 7.813a29.231 29.231 0 0 0 6.894-1.069 29.166 29.166 0 0 0 6.419-2.757c3.413-1.972.63-5.491.19-9.717-.043-.38-.1-4.86-.155-5.41-.698-3.851.027-17.717-10.075-22.432z" fill="#e6e6e6"/><path d="m47.613 61.842-.014-.133c-4.568.5-6.938 2.284-7.978 3.5a2.132 2.132 0 0 1 -2.259.622c-4.017-1.231-7.628 1.18-8.392 1.739 1.72 3.71 1.31 7.945 5.134 7.813a29.231 29.231 0 0 0 6.896-1.067 29.166 29.166 0 0 0 6.419-2.757c3.417-1.972.634-5.491.194-9.717z" fill="#fdd1a3"/><g fill="#4d4d4d"><path d="m41.467 33.754c-2.552-1.41-8.464-1.176-12.07.121-4.634 1.375-8.877 3.748-10.292 6.3-2.236 4.037 2.4 14.783 6.867 22.437 1.826-.119 5.054-1.713 5.729-3.3a5.849 5.849 0 0 0 -.67-5.153c-.886-1.555-2.135-2.912-3-4.477-1.752-3.163-3.167-6.713-1.539-10.092a6.867 6.867 0 0 1 3.563-3.271 6.862 6.862 0 0 1 4.755.884c3.173 2 3.856 5.761 4.048 9.372.1 1.785-.239 3.6-.169 5.386a5.862 5.862 0 0 0 2.164 4.724c1.42.994 5.016.629 6.628-.25-.357-8.55-2.015-20.465-6.014-22.681z"/><path d="m46.826 66.045a.257.257 0 0 0 -.287-.333c-1.049.18-3.673.878-3.967 3.353-.368 3.1 2.92 2.932 4.229 1.359.893-1.076-.654-2.216.025-4.379z"/><path d="m31.805 70.419a.257.257 0 0 1 .067-.435c.985-.4 3.58-1.2 5.141.739 1.957 2.435-.921 4.035-2.864 3.394-1.328-.438-.621-2.225-2.344-3.698z"/><path d="m100.78 98.7-8.388.214a.221.221 0 0 0 -.212.182l-.88 5.204a.221.221 0 0 0 .212.26h9.208a.222.222 0 0 0 .228-.219l.061-5.421a.221.221 0 0 0 -.229-.22z"/><path d="m89.184 98.7-8.387.214a.221.221 0 0 0 -.213.182l-.884 5.204a.221.221 0 0 0 .212.26h9.209a.222.222 0 0 0 .227-.219l.061-5.421a.221.221 0 0 0 -.225-.22z"/><path d="m56.069 98.7-8.388.214a.22.22 0 0 0 -.212.182l-.882 5.278a.221.221 0 0 0 .212.26l9.208-.07a.221.221 0 0 0 .227-.219l.062-5.421a.222.222 0 0 0 -.227-.224z"/><path d="m45.531 98.7-8.387.214a.222.222 0 0 0 -.213.182l-.882 5.208a.222.222 0 0 0 .212.26h9.209a.221.221 0 0 0 .227-.219l.061-5.421a.221.221 0 0 0 -.227-.224z"/><path d="m105.272 49.584a5.448 5.448 0 0 0 -.13-.581c-6.334-7.003-20.167-7.149-20.688-7.179-.39.05-1.351.921-1.972 1.221-2.614 1.312-3.044 2.824-7.891-1.662a208.366 208.366 0 0 0 -24.563.381 10.029 10.029 0 0 0 .04 6.408c.771 2.463 3.3 4.576 5.8 3.945 3.495-.871 4.236-5.928 7.48-7.52 2.874-1.4 6.189.511 8.842 2.3s6.1 3.575 8.872 1.963c.981-.571 1.842-1.572 2.984-1.572a2.561 2.561 0 0 1 2.273 2.223l.006.034a3.765 3.765 0 0 1 -3.638 4.28c-2.478.112-5.229-.507-7.172.973-2.043 1.552-1.983 4.917-.311 6.869 1.652 1.953 4.426 2.654 6.979 2.494a13.471 13.471 0 0 0 10.775-6.84c.961-1.752 1.752-3.935 3.655-4.546 2.333-.751 5.067 1.392 7.2.191a3.372 3.372 0 0 0 1.459-3.382z"/><path d="m55.582 63.791c1.139-1.37 3.278-1.293 4.971-.739s3.343 1.473 5.123 1.39c1.369-.064 2.712-.726 4.061-.486a3.109 3.109 0 0 1 1.958 4.909 6.289 6.289 0 0 1 -3.258 1.882l-4.655 1.539c-1.352.447-2.891.942-4.271.327-1.161-.516-1.286-1.376-1.9-2.324-1.226-1.889-4.144-3.954-2.029-6.498z"/><path d="m84.185 72.523a2.724 2.724 0 0 0 1.614 1.6 6.331 6.331 0 0 0 2.3.368c2.663.038 3.328-3.76 1.263-5.158-1.969-1.333-6.021.567-5.177 3.19z"/><path d="m112.6 74.232a.363.363 0 0 0 -.206-.293c-2.061-.97-6.516-2.23-8.428-3.182q.247.5.494.994c-.921-.4-2.439-.869-3.361-1.269a7.261 7.261 0 0 1 .87 1.077 6.794 6.794 0 0 1 -2.639-.486c.126.261.252.521.377.782l-4.354-.148a4.821 4.821 0 0 0 2.824 1.867l-1.471.368a11.18 11.18 0 0 0 4.158.89 4.521 4.521 0 0 0 -2.259.523l4.116.057a8.65 8.65 0 0 0 -2.8.977l6.781.206-1.19.848c2.074-.438 4.836-.864 6.978-1.3a.368.368 0 0 0 .291-.41 5.452 5.452 0 0 0 -.181-1.501z"/></g><g fill="#333"><path d="m43.171 48.529a1.644 1.644 0 1 0 1.644 1.644 1.644 1.644 0 0 0 -1.644-1.644z"/><path d="m26.68 53.44a1.644 1.644 0 1 0 1.644 1.644 1.644 1.644 0 0 0 -1.644-1.644z"/></g></svg>