<svg id="Слой_1" height="512" viewBox="0 0 512 512" width="512" xmlns="http://www.w3.org/2000/svg"><g><g opacity=".32"><path d="m122.187 123.539c-2.782-9.274 60.235-13.789 61.687-5.08 1.451 8.709-59.51 12.338-61.687 5.08z" fill="#fff"/></g><g opacity=".32"><path d="m240.48 179.42s-42.451 5.433-57.512 4.894c0 0-33.204 121.382-15.061 170.006s51.527 55.881 110.31 60.235c58.784 4.354 124.099-11.612 151.637-49.695 0 0-23.91 33.729-103.739 36.632-70.409 2.56-129.905-11.612-143.694-58.058s7.257-135.711 13.063-143.694c5.807-7.982 44.996-20.32 44.996-20.32z" fill="#233338"/></g><g><path d="m293.557 92.779s29.055-11.868 31.166 5.723c2.124 17.703-28.325 18.411-28.325 18.411z" fill="#768901"/></g><g><path d="m299.57 128.501s24.273-7.723 25.376 6.62-27.583 13.24-27.583 13.24z" fill="#768901"/></g><g><path d="m301.777 166.014s20.963-6.62 22.066 4.413-22.066 13.24-22.066 13.24z" fill="#768901"/></g><g><path d="m300.673 203.527s20.963-6.62 23.17 4.413-23.17 12.137-23.17 12.137z" fill="#768901"/></g><g><path d="m300.673 241.04s19.86-5.517 20.963 4.413c1.482 13.34-20.963 9.93-20.963 9.93z" fill="#768901"/></g><g><path d="m304.119 281.779s16.524-12.321 21.141-3.461c6.204 11.903-15.957 16.835-15.957 16.835z" fill="#768901"/></g><g><path d="m321.144 320.796s6.926-19.413 15.679-14.598c11.76 6.47-3.953 22.857-3.953 22.857z" fill="#768901"/></g><g><path d="m361.743 339.469s-6.151-19.673 3.739-21.094c13.286-1.909 10.597 20.634 10.597 20.634z" fill="#768901"/></g><g><path d="m400.79 328.747s-18.171-9.729-12.11-17.671c8.143-10.67 22.018 7.3 22.018 7.3z" fill="#768901"/></g><g><path d="m415.363 299.611s-18.259-2.003-16.746-9.413c2.032-9.956 17.412-2.283 17.412-2.283z" fill="#768901"/></g><g><path d="m413.903 269.391s-18.006 3.629-18.812-3.892c-1.083-10.104 15.899-7.456 15.899-7.456z" fill="#768901"/></g><g><path d="m296.397 118.957c-1.033 0-1.908-.773-2.029-1.804l-2.841-24.134c-.107-.912.407-1.783 1.257-2.131.76-.311 18.719-7.537 28.261-1.922 3.278 1.928 5.197 5.055 5.706 9.293.514 4.284-.603 8.047-3.32 11.182-7.772 8.967-26.205 9.497-26.987 9.516-.015 0-.031 0-.047 0zm-.625-24.838 2.43 20.642c4.656-.363 16.85-1.886 22.145-8.001 1.956-2.259 2.723-4.881 2.347-8.015-.353-2.944-1.569-4.991-3.718-6.256-5.897-3.473-17.638-.384-23.204 1.63z" fill="#4c5600"/></g><g><path d="m298.839 150.426c-.877 0-1.432-.019-1.554-.024-.567-.022-1.1-.278-1.47-.708s-.545-.995-.482-1.559l2.206-19.86c.089-.802.642-1.477 1.411-1.721.641-.205 15.791-4.936 23.546.29 2.704 1.822 4.214 4.554 4.488 8.121.252 3.275-.764 6.124-3.019 8.467-6.192 6.434-20.378 6.994-25.126 6.994zm2.611-20.347-1.807 16.261c5.942-.078 16.975-1.165 21.379-5.745 1.43-1.488 2.048-3.227 1.887-5.318-.176-2.29-1.058-3.939-2.695-5.044-4.598-3.102-14.149-1.408-18.764-.154z" fill="#4c5600"/></g><g><path d="m301.777 185.71c-.506 0-.997-.188-1.375-.532-.425-.387-.668-.936-.668-1.511v-17.653c0-.891.578-1.68 1.428-1.948 1.463-.462 14.486-4.389 21.056-.061 2.127 1.401 3.392 3.552 3.659 6.219.253 2.538-.478 4.872-2.175 6.936-5.707 6.942-21.079 8.479-21.731 8.541-.065.006-.13.009-.194.009zm2.043-18.16v13.795c4.932-.762 13.466-2.813 16.727-6.783.994-1.21 1.407-2.496 1.263-3.932-.146-1.461-.731-2.483-1.841-3.214-3.729-2.457-11.917-.993-16.149.134z" fill="#4c5600"/></g><g><path d="m300.673 222.12c-.525 0-1.032-.202-1.413-.567-.403-.386-.63-.919-.63-1.476v-16.55c0-.891.578-1.68 1.428-1.948.579-.183 14.243-4.424 21.475-.148 2.326 1.374 3.777 3.43 4.313 6.109.49 2.447-.063 4.777-1.6 6.736-5.382 6.863-21.647 7.762-23.485 7.842-.028.001-.058.002-.088.002zm2.043-17.054v12.819c5.442-.498 15.203-2.161 18.315-6.133.81-1.034 1.066-2.118.808-3.412-.303-1.512-1.082-2.621-2.383-3.391-4.16-2.461-12.485-1.005-16.74.117z" fill="#4c5600"/></g><g><path d="m306.498 257.815c-3.334 0-5.887-.375-6.132-.412-.999-.152-1.736-1.01-1.736-2.02v-14.343c0-.918.612-1.723 1.496-1.969 1.41-.391 13.956-3.706 20.154.486 1.95 1.318 3.121 3.279 3.386 5.671.385 3.463-.553 6.307-2.786 8.454-3.541 3.401-9.724 4.133-14.382 4.133zm-3.782-4.249c4.276.383 12.023.352 15.336-2.834 1.286-1.237 1.794-2.89 1.553-5.053-.135-1.213-.648-2.083-1.614-2.737-3.46-2.34-11.179-1.238-15.275-.308z" fill="#4c5600"/></g><g><path d="m309.302 297.196c-.828 0-1.594-.506-1.904-1.305l-5.184-13.373c-.332-.856-.052-1.828.683-2.376 1.174-.874 11.674-8.498 18.967-6.831 2.295.525 4.095 1.93 5.207 4.063 1.611 3.09 1.764 6.081.457 8.89-3.556 7.639-17.202 10.755-17.782 10.884-.147.032-.297.048-.444.048zm-2.701-14.668 3.951 10.192c4.124-1.186 11.337-4.017 13.274-8.185.752-1.618.628-3.343-.378-5.273-.564-1.082-1.356-1.707-2.492-1.968-4.062-.934-10.868 2.887-14.355 5.234z" fill="#4c5600"/></g><g><path d="m332.87 331.099c-.409 0-.82-.122-1.176-.373l-11.726-8.259c-.75-.529-1.056-1.493-.748-2.357.492-1.379 5.006-13.544 12.003-16.198 2.201-.835 4.478-.663 6.586.496 3.053 1.68 4.839 4.084 5.307 7.146 1.274 8.33-8.359 18.487-8.77 18.915-.398.415-.935.63-1.476.63zm-9.245-11.055 8.937 6.295c2.776-3.273 7.211-9.627 6.513-14.17-.27-1.763-1.329-3.131-3.236-4.18-1.069-.588-2.075-.669-3.167-.256-3.906 1.482-7.449 8.427-9.047 12.311z" fill="#4c5600"/></g><g><path d="m361.742 341.513c-.891 0-1.682-.579-1.949-1.434-.437-1.397-4.152-13.829-.161-20.159 1.256-1.991 3.178-3.224 5.559-3.567 3.447-.497 6.322.349 8.539 2.514 6.029 5.887 4.448 19.795 4.378 20.384-.12 1.003-.954 1.768-1.963 1.8l-14.336.46c-.023.001-.045.002-.067.002zm5.276-21.209c-.396 0-.811.031-1.246.094-1.209.174-2.062.714-2.684 1.701-2.228 3.533-.878 11.214.183 15.277l10.926-.351c.247-4.285-.034-12.029-3.325-15.237-1.019-.994-2.288-1.484-3.854-1.484z" fill="#4c5600"/></g><g><path d="m400.789 330.79c-.329 0-.659-.079-.964-.242-1.291-.691-12.651-6.96-14.238-14.273-.499-2.3.009-4.527 1.468-6.439 2.114-2.77 4.757-4.179 7.855-4.188h.027c8.418 0 17.015 11.01 17.377 11.479.617.799.558 1.929-.14 2.66l-9.908 10.372c-.394.413-.932.631-1.477.631zm-5.85-21.056c-.007 0-.013 0-.02 0-1.784.006-3.293.85-4.614 2.581-.741.971-.97 1.953-.723 3.094.885 4.082 7.229 8.617 10.833 10.774l7.551-7.905c-2.822-3.226-8.435-8.544-13.027-8.544z" fill="#4c5600"/></g><g><path d="m415.363 301.654c-.074 0-.148-.004-.223-.012-1.377-.151-13.563-1.628-17.409-6.901-1.087-1.49-1.473-3.203-1.116-4.952.552-2.705 2.019-4.707 4.241-5.79 5.85-2.852 15.055 1.574 16.085 2.088.73.365 1.174 1.129 1.127 1.944l-.666 11.696c-.031.56-.292 1.081-.72 1.444-.37.313-.838.483-1.319.483zm-9.89-14.529c-1.056 0-2.032.159-2.83.549-.679.332-1.629.997-2.024 2.932-.128.627 0 1.16.414 1.727 1.804 2.474 7.877 4.194 12.416 4.949l.461-8.09c-2.13-.905-5.58-2.067-8.437-2.067z" fill="#4c5600"/></g><g><path d="m405.166 272.316c-3.498 0-7.195-.498-9.541-2.218-1.488-1.091-2.375-2.606-2.565-4.381-.294-2.745.496-5.098 2.286-6.804 4.712-4.491 14.823-3.065 15.96-2.889.807.126 1.461.72 1.664 1.511l2.913 11.348c.14.543.05 1.119-.248 1.594s-.778.806-1.327.917c-.754.152-4.795.922-9.142.922zm1.243-12.55c-2.992 0-6.502.441-8.247 2.107-.547.522-1.25 1.444-1.04 3.408.068.636.351 1.105.917 1.52 2.462 1.806 8.773 1.605 13.333.949l-2.014-7.847c-.841-.078-1.861-.137-2.949-.137z" fill="#4c5600"/></g><g><path d="m210.623 393.478s-.779 22.602 2.338 38.189c0 0-19.484 8.573-18.705 11.691s16.367 1.559 18.705 2.338-.779 12.47 1.559 14.029 12.47-11.691 14.029-11.691 10.911 10.911 14.029 9.352-3.897-22.602-3.897-22.602l5.456-26.499z" fill="#768901"/></g><g><path d="m214.968 461.918c-.557 0-1.08-.159-1.581-.493-2.152-1.435-1.934-5.023-1.682-9.177.086-1.415.221-3.643.074-4.688-.974-.079-2.856-.08-4.452-.08-.026 0-.053 0-.08 0-8.752 0-14.127-.244-14.973-3.626-.35-1.399-1.157-4.629 18.379-13.396-2.775-15.502-2.102-36.149-2.072-37.05.024-.678.382-1.3.957-1.661.575-.36 1.291-.41 1.911-.138l33.513 14.808c.88.389 1.37 1.339 1.176 2.281l-5.345 25.962c7.35 22.231 3.975 23.916 2.699 24.554-3.009 1.504-6.793-1.59-12.221-6.484-.854-.77-1.937-1.746-2.652-2.317-.853.776-2.257 2.255-3.349 3.407-4.705 4.957-7.83 8.098-10.302 8.098zm-7.708-18.524c3.452 0 5.304.016 6.348.364 2.652.884 2.442 4.35 2.176 8.737-.087 1.431-.218 3.598-.095 4.874 1.731-1.213 4.82-4.469 6.616-6.362 3.694-3.894 4.823-5.016 6.245-5.016 1.287 0 2.336.89 5.457 3.704 1.731 1.561 5.547 5.002 7.34 5.683.277-2.876-2.02-12.194-4.604-19.947-.114-.341-.135-.706-.063-1.058l5.123-24.884-29.199-12.902c-.084 6.651-.006 22.844 2.361 34.68.188.94-.303 1.884-1.18 2.271-6.862 3.02-14.611 7.135-16.943 9.253 2.248.602 7.645.572 10.405.603z" fill="#4c5600"/></g><g><path d="m181.305 230.737s-16.371-2.461-34.312-12.553c-13.39-7.532-20.53-22.846-23.584-22.221-3.054.626 1.877 9.162-.864 11.315s-7.516-5.62-10.257-3.467c-2.527 1.985 3.11 11.296 1.132 13.292s-10.101-2.704-11.766.819c-.942 1.993 10.678 15.905 27.764 25.368 18.466 10.227 48.539 15.901 48.539 15.901z" fill="#768901"/></g><g><path d="m177.957 261.234c-.126 0-.253-.012-.379-.035-1.241-.234-30.61-5.852-49.151-16.121-10.228-5.665-17.607-12.346-21.095-15.826-9.034-9.01-7.899-11.413-7.526-12.202 1.616-3.419 5.827-2.561 8.903-1.934.921.188 2.356.467 3.103.466-.04-.939-.629-2.897-1-4.134-1.085-3.61-2.208-7.343.212-9.244 2.604-2.045 5.499.122 7.614 1.704.741.554 2.076 1.552 2.678 1.692.255-.651-.224-2.993-.46-4.142-.279-1.361-.543-2.647-.53-3.788.031-2.86 1.879-3.546 2.671-3.709 2.469-.504 4.427 1.931 7.97 6.359 3.997 4.994 9.47 11.834 17.025 16.083 17.413 9.794 33.454 12.289 33.614 12.314 1.09.164 1.854 1.164 1.725 2.259l-3.348 28.454c-.066.562-.363 1.072-.82 1.408-.349.259-.774.396-1.206.396zm-74.112-42.602c1.63 3.33 11.853 14.724 26.562 22.871 15.144 8.387 38.614 13.739 45.78 15.244l2.864-24.341c-4.92-.975-18.4-4.195-33.06-12.442-8.246-4.639-14.243-12.132-18.212-17.092-1.062-1.326-2.291-2.863-3.231-3.869.092.553.214 1.149.314 1.634.614 2.995 1.31 6.391-1.055 8.247-2.604 2.045-5.499-.123-7.614-1.704-.688-.515-1.888-1.412-2.538-1.649-.047 1.018.668 3.396 1.072 4.74 1.042 3.464 1.941 6.456.145 8.269-1.649 1.666-4.238 1.137-6.978.579-1.002-.204-3.159-.644-4.049-.487z" fill="#4c5600"/></g><g><path d="m303.597 198.075s.779-76.378-.779-91.186c-1.559-14.808-13.249-35.851-32.734-37.41-16.48-1.318-25.719 9.352-29.616 9.352-3.118 0-12.47-8.573-23.381-6.235-12.978 2.781-25.719 36.63-25.719 36.63s.779 6.235-6.235 6.235-20.264-7.794-64.688 4.676c0 0-3.59-11.143-11.691-11.69-11.69-.79-11.691 13.249-11.691 13.249s-2.163-11.809-13.684-8.517c-11.716 3.347-8.505 37.531-5.8 44.368 3.179 8.037 4.198 17.508 33.417 22.582 28.473 4.944 71.972 4.184 71.972 4.184s-4.184 20.085-6.695 31.801c-2.654 12.383-31.989 116.448 3.404 164.333 39.748 53.777 213.548 44.424 250.178-15.588 34.914-57.199-14.73-133.515-27.278-122.361-7.014 6.235 44.163 82.364-31.954 94.304-79.496 12.471-67.026-138.727-67.026-138.727z" fill="#89a401"/></g><g><path d="m269.78 369.025c-45.236-43.03-5.517-114.745-23.17-144.535-14.337-24.193-54.142-19.278-68.593-16.577-.619 2.927-1.218 5.749-1.744 8.203-2.654 12.383-31.989 116.448 3.404 164.333 39.748 53.777 213.548 44.424 250.178-15.588.933-1.529 1.794-3.074 2.609-4.628-30.285 34.168-119.57 49.802-162.684 8.792z" fill="#ffe862"/></g><g><path d="m340.969 395.592c-29.882 0-55.476-8.802-72.597-25.086-28.206-26.83-24.334-63.595-20.918-96.031 2.138-20.299 3.984-37.83-2.601-48.943-13.876-23.416-54.378-17.868-66.46-15.611l-.75-4.017c16.331-3.053 55.913-7.451 70.726 17.544 7.275 12.278 5.363 30.433 3.15 51.454-3.317 31.498-7.077 67.199 19.671 92.642 17.565 16.709 44.642 25.173 76.253 23.822 34-1.449 67.553-14.505 83.493-32.489l3.058 2.711c-16.628 18.76-51.34 32.368-86.377 33.862-2.238.095-4.456.142-6.648.142z" fill="#777c0d"/></g><g><path d="m159.07 165.694c-.193 0-.384 0-.578 0-80.61-.093-84.567-15.006-84.646-18.012l3.566-.189s.008-.058-.013-.165c.028.142 3.728 14.189 81.098 14.279h.576c53.574 0 68.865-8.702 73.213-13.903 1.962-2.347 1.688-4.01 1.676-4.079-.279-1.093.389-2.173 1.482-2.452 1.091-.281 2.213.414 2.492 1.508.087.341.765 3.444-2.192 7.245-5.602 7.202-23.461 15.768-76.674 15.768z" fill="#4c5600"/></g><g><path d="m245.551 151.213c-.095 0-.192-.007-.289-.021-7.629-1.08-12.548-7.082-13.853-16.9-.149-1.119.637-2.146 1.756-2.295 1.12-.148 2.147.637 2.295 1.756.737 5.543 3.136 12.367 10.377 13.392 1.117.159 1.895 1.193 1.736 2.31-.145 1.02-1.02 1.758-2.022 1.758z" fill="#4c5600"/></g><g><path d="m107.932 114.049c-5.489.549-5.154 15.556.764 15.556 4.858-.001 6.263-16.259-.764-15.556z" fill="#768901"/></g><g><g><path d="m87.141 119.911c-6.708 0-4.883 11.9.012 11.9 4.464 0 4.779-11.9-.012-11.9z" fill="#768901"/></g><g><path d="m87.153 133.854c-3.97 0-6.428-4.508-6.428-8.686 0-1.897.49-3.575 1.416-4.852 1.146-1.579 2.922-2.449 5-2.449 1.868 0 3.44 1.027 4.428 2.892.705 1.33 1.093 3.09 1.093 4.955 0 4.793-2.266 8.14-5.509 8.14zm-.012-11.9c-1.021 0-1.455.435-1.693.763-.411.566-.637 1.437-.637 2.452 0 2.477 1.287 4.599 2.341 4.599.488 0 1.423-1.578 1.423-4.053 0-1.193-.225-2.302-.618-3.043-.38-.718-.697-.718-.816-.718z" fill="#4c5600"/></g></g><g><path d="m108.695 131.647c-3.725 0-6.413-3.738-6.691-9.301-.233-4.676 1.459-9.904 5.724-10.331 2.219-.219 4.137.703 5.409 2.603 2.445 3.651 2.005 10.212.08 13.817-1.491 2.795-3.473 3.212-4.522 3.212zm-.327-15.578c-.074 0-.152.004-.232.012h-.001c-1.104.11-2.215 2.726-2.049 6.061.152 3.038 1.297 5.418 2.609 5.418.112 0 .498-.264.918-1.051 1.444-2.704 1.509-7.558.129-9.618-.383-.572-.793-.822-1.374-.822zm-.436-2.02h.01z" fill="#4c5600"/></g><g><path d="m253.986 125.458c-5.8 2.515-6.931 11.773-1.908 15.611s13.658.314 14.561-5.943-6.383-12.079-12.287-9.817z" fill="#fd4d4d"/></g><g><path d="m249.173 252.068c-34.913-6.83-77.948-6.15-78.382-6.144l-.073-4.085c.435-.008 43.893-.697 79.239 6.218z" fill="#777c0d"/></g><g opacity=".32"><path d="m240.48 179.42s-42.451 5.433-57.512 4.894c0 0-33.204 121.382-15.061 170.006s51.527 55.881 110.31 60.235c58.784 4.354 124.099-11.612 151.637-49.695 0 0-23.91 33.729-103.739 36.632-70.409 2.56-129.905-11.612-143.694-58.058s7.257-135.711 13.063-143.694c5.807-7.982 44.996-20.32 44.996-20.32z" fill="#233338"/></g><g><path d="m246.8 291.461c-30.29-6.815-83.151-4.611-83.682-4.588l-.178-4.082c.536-.023 53.941-2.251 84.756 4.683z" fill="#777c0d"/></g><g><path d="m163.235 328.589-.412-4.065c2.499-.253 61.478-6.184 85.329-4.642l-.263 4.077c-23.508-1.511-84.045 4.568-84.654 4.63z" fill="#777c0d"/></g><g><path d="m174.235 372.602-.778-4.012c.515-.1 51.88-10.145 79.934-22.277l1.622 3.751c-28.463 12.309-80.258 22.438-80.778 22.538z" fill="#777c0d"/></g><g><path d="m219.823 407.046-2.327-3.36c.3-.207 30.133-20.937 46.013-38.33l3.018 2.755c-16.195 17.738-45.466 38.078-46.704 38.935z" fill="#777c0d"/></g><g><path d="m266.693 415.81-3.348-2.344c.16-.228 16.045-23.013 19.008-34.865l3.965.991c-3.147 12.584-18.954 35.258-19.625 36.218z" fill="#777c0d"/></g><g><path d="m306.344 415.336-3.84-1.397c2.913-8.011 2.205-23.771 2.197-23.93l4.081-.194c.033.68.756 16.737-2.438 25.521z" fill="#777c0d"/></g><g><path d="m337.104 411.788-3.548-2.027c2.276-3.984 2.254-12.227 2.054-15.068l4.076-.29c.033.467.779 11.505-2.582 17.385z" fill="#777c0d"/></g><g><path d="m365.363 406.811-2.889-2.889c2.402-2.403.984-8.332.297-10.219l3.84-1.397c.362.995 3.401 9.856-1.248 14.505z" fill="#777c0d"/></g><g><path d="m389.08 398.135-3.965-.991c.562-2.249.154-8.066-.051-10.119l4.066-.407c.083.828.784 8.178-.05 11.517z" fill="#777c0d"/></g><g><g><path d="m282.64 229.72c-11.116.029-18.025 13.088-37.492 23.823-14.529 8.013-32.571 5.832-33.749 8.998s10.546 4.905 10.938 8.656c.393 3.751-9.424 3.702-9.031 7.453.362 3.458 12.074 3.592 12.761 6.551s-9.369 6.346-7.111 9.89c1.277 2.004 20.218-1.476 39.01-11.045 26.945-13.721 32.296-20.091 36.478-27.282 5.565-9.57 4.027-27.085-11.804-27.044z" fill="#768901"/></g><g><path d="m221.461 297.666c-3.287 0-3.913-.983-4.228-1.477-2.254-3.539 1.58-6.462 4.116-8.397.78-.595 1.994-1.52 2.509-2.124-.891-.512-3.032-1.094-4.389-1.463-3.864-1.051-7.86-2.138-8.195-5.342-.358-3.421 3.202-4.82 5.801-5.841 1.044-.41 2.987-1.173 3.247-1.678-.268-.715-3.339-2.124-4.815-2.8-3.412-1.565-7.279-3.339-6.023-6.715.917-2.465 4.222-2.863 10.22-3.585 6.851-.825 16.233-1.954 24.457-6.49 8.34-4.6 14.224-9.547 19.413-13.912 6.741-5.669 12.065-10.147 19.061-10.165h.005c1.126 0 2.04.911 2.043 2.038.003 1.128-.909 2.045-2.038 2.048-5.511.014-10.095 3.87-16.44 9.206-5.069 4.264-11.379 9.571-20.07 14.364-8.92 4.919-19.164 6.152-25.942 6.968-2.168.261-4.739.57-6.156.938.867.532 2.241 1.162 3.175 1.59 3.365 1.543 6.844 3.139 7.16 6.155.358 3.421-3.202 4.82-5.801 5.841-.971.381-2.719 1.068-3.169 1.568.737.67 3.573 1.441 5.14 1.868 3.71 1.009 6.913 1.88 7.516 4.478.607 2.613-1.852 4.488-4.23 6.302-.876.668-2.371 1.809-2.938 2.565 3.998.181 19.393-2.848 36.149-11.381 26.63-13.561 31.734-19.774 35.639-26.489.568-.976 1.818-1.307 2.793-.739.976.568 1.306 1.818.739 2.793-4.248 7.304-9.693 14.009-37.317 28.076-11.376 5.793-21.488 8.766-26.503 10.023-5.316 1.333-8.723 1.776-10.929 1.777z" fill="#4c5600"/></g></g><g><path d="m288.915 142.362c-7.158-1.432-8.716 29.78-1.453 29.053 7.263-.726 8.716-27.601 1.453-29.053z" fill="#b7ce11"/></g><g><path d="m277.293 180.131c-7.255-.806-5.811 18.885-.726 20.337 5.084 1.453 7.263-19.611.726-20.337z" fill="#b7ce11"/></g><g><path d="m293.273 201.195c-5.775-.642-5.084 13.8-1.453 14.527 3.632.726 7.99-13.801 1.453-14.527z" fill="#b7ce11"/></g><g><path d="m296.904 277.46c-5.965-.542-2.905 21.064 2.179 20.337 5.085-.726 5.811-19.611-2.179-20.337z" fill="#b7ce11"/></g><g><path d="m289.641 308.692c-6.537 2.905 1.453 21.79 6.537 19.611s0-22.516-6.537-19.611z" fill="#b7ce11"/></g><g><path d="m309.252 315.955c-5.455 1.558 5.084 15.979 8.716 13.074s-3.632-14.526-8.716-13.074z" fill="#b7ce11"/></g><g><path d="m328.863 345.009c-1.894 5.682 21.79 11.621 22.516 6.537.727-5.085-20.337-13.074-22.516-6.537z" fill="#b7ce11"/></g><g><path d="m369.538 348.64c.548 4.384 14.527 1.453 13.074-1.453-1.453-2.905-13.801-4.357-13.074 1.453z" fill="#b7ce11"/></g><g><path d="m309.978 342.83c-2.465 3.287 5.811 8.716 7.263 6.537 1.453-2.179-5.084-9.443-7.263-6.537z" fill="#b7ce11"/></g><g><path d="m357.19 361.714c0 2.995 9.442 2.179 9.442-1.453 0-2.618-9.442-2.905-9.442 1.453z" fill="#b7ce11"/></g><g><path d="m395.686 341.377c1.894 3.788 13.074-.726 11.621-4.358-1.349-3.372-13.074 1.453-11.621 4.358z" fill="#b7ce11"/></g><g><path d="m291.82 122.751c-4.358 0-2.179 9.442 0 9.442s4.358-9.442 0-9.442z" fill="#b7ce11"/></g><g><path d="m423.286 298.523c-3.615-.803-6.537 16.706-2.905 17.432 3.632.727 9.442-15.979 2.905-17.432z" fill="#b7ce11"/></g><g><path d="m417.476 276.007c-2.564 1.709-.726 10.169 2.179 10.169s0-11.622-2.179-10.169z" fill="#b7ce11"/></g><g><path d="m425.465 325.398c-2.812-2.41-10.169 10.169-6.537 13.074s11.622-8.716 6.537-13.074z" fill="#b7ce11"/></g><g><path d="m288.871 417.871c-42.746.002-91.008-9.38-110.837-36.208-14.118-19.101-19.852-48.957-17.043-88.739 2.23-31.59 9.216-60.367 12.2-72.656.498-2.053.875-3.605 1.084-4.58 1.959-9.145 4.974-23.556 6.174-29.304-9.769.07-45.426-.008-69.802-4.24-27.965-4.856-31.29-13.895-34.224-21.87-.244-.665-.487-1.324-.744-1.973-2.243-5.671-5.059-29.492.605-40.984 1.612-3.269 3.81-5.322 6.535-6.1 3.971-1.135 7.436-.809 10.299.969 1.284.797 2.305 1.809 3.112 2.867.699-1.977 1.803-4.046 3.546-5.674 2.372-2.218 5.439-3.213 9.117-2.968 7.257.491 11.268 7.768 12.787 11.267 34.676-9.49 50.217-6.54 58.63-4.941 2.013.383 3.603.684 4.824.684 1.578 0 2.716-.376 3.383-1.117.993-1.102.824-2.822.822-2.839-.033-.317.005-.657.118-.955 1.344-3.572 13.529-34.979 27.204-37.909 8.247-1.766 15.434 2.021 20.19 4.527 1.376.725 3.089 1.628 3.63 1.663.643 0 2.636-1.197 4.236-2.158 5.074-3.047 13.56-8.147 25.531-7.189 20.964 1.677 33.041 24.403 34.602 39.233 1.553 14.756.823 88.298.791 91.422-.001.049-.003.098-.007.147-.077.935-7.293 93.858 27.553 126.234 9.855 9.156 22.342 12.625 37.119 10.307 17.377-2.726 29.296-9.145 35.426-19.08 10.436-16.913 2.767-40.896-2.308-56.766-3.199-10.005-4.961-15.516-2.205-17.966 1.845-1.642 6.018-3.495 13.218 2.522 8.948 7.477 20.569 25.629 26.36 49.325 4.62 18.905 6.775 46.935-9.199 73.105-17.497 28.666-68.478 48.945-129.88 51.663-4.197.184-8.497.281-12.847.281zm-105.903-235.6c.608 0 1.185.271 1.574.74.396.479.553 1.111.426 1.719-.042.201-4.215 20.225-6.698 31.813-.214.999-.599 2.587-1.109 4.688-23.014 94.803-10.441 138.249 4.159 158.001 17.214 23.291 64.403 36.748 120.219 34.272 60.081-2.66 109.764-22.172 126.572-49.709 27.616-45.243 1.097-102.634-16.294-117.166-1.657-1.384-5.706-4.389-7.811-2.666-.602 1.498 1.565 8.273 3.31 13.73 5.303 16.583 13.316 41.644 1.893 60.157-6.785 10.996-19.661 18.052-38.27 20.971-16.078 2.52-29.716-1.298-40.537-11.354-36.093-33.539-29.242-124.633-28.848-129.487.027-2.747.738-76.554-.769-90.879-1.418-13.469-12.208-34.095-30.865-35.587-10.66-.855-18.147 3.643-23.101 6.618-2.65 1.591-4.564 2.741-6.352 2.741-1.474 0-3.173-.895-5.523-2.133-4.234-2.231-10.63-5.602-17.429-4.147-9.609 2.059-20.479 25.529-24.08 34.945.032 1.098-.122 3.504-1.839 5.448-1.475 1.671-3.649 2.518-6.463 2.518-1.606 0-3.362-.334-5.586-.756-8.229-1.563-23.54-4.472-58.55 5.356-1.057.294-2.16-.295-2.497-1.341-.031-.095-3.276-9.832-9.883-10.278-2.537-.174-4.516.441-6.051 1.876-3.365 3.145-3.459 9.274-3.459 9.335 0 1.057-.806 1.939-1.859 2.035-1.046.102-2.004-.627-2.194-1.667-.007-.037-.879-4.431-4.113-6.422-1.838-1.133-4.193-1.3-7-.499-1.568.449-2.912 1.787-3.992 3.978-4.989 10.123-2.418 32.75-.47 37.674.269.679.523 1.369.779 2.066 2.677 7.277 5.445 14.802 31.088 19.255 27.958 4.855 71.155 4.163 71.586 4.155zm120.629 15.804h.01z" fill="#4c5600"/></g><g><path d="m182.935 90.918c.045-15.575 11.111-27.641 26.56-27.596s26.86 13.121 26.815 28.696c-.046 15.575-11.168 26.608-26.618 26.563-15.449-.045-26.803-12.088-26.757-27.663z" fill="#768901"/></g><g><path d="m209.785 120.624c-.033 0-.066 0-.099 0-16.465-.048-28.844-12.822-28.794-29.712.023-8.121 2.888-15.599 8.065-21.055 5.249-5.533 12.51-8.577 20.453-8.577h.091c7.96.023 15.318 3.286 20.719 9.188 5.268 5.757 8.157 13.412 8.133 21.557-.048 16.585-12.057 28.599-28.568 28.599zm-.375-55.258c-6.811 0-13.02 2.592-17.489 7.303-4.457 4.697-6.922 11.181-6.943 18.255-.042 14.561 10.585 25.572 24.72 25.614h.09c14.377.002 24.437-10.073 24.479-24.526.021-7.116-2.487-13.787-7.061-18.786-4.621-5.049-10.912-7.84-17.717-7.86-.027 0-.052 0-.079 0z" fill="#4c5600"/></g><g><ellipse cx="209.972" cy="92.271" fill="#fff" rx="20.783" ry="20.783" transform="matrix(.321 -.947 .947 .321 55.191 261.519)"/></g><g><ellipse cx="211.925" cy="94.195" fill="#cc9211" rx="11.82" ry="11.82" transform="matrix(.928 -.372 .372 .928 -19.832 85.629)"/></g><g><ellipse cx="211.925" cy="94.195" fill="#233338" rx="7.196" ry="7.196" transform="matrix(.16 -.987 .987 .16 85.092 288.355)"/></g><g><ellipse cx="217.189" cy="89.648" fill="#fff" rx="2.987" ry="2.811"/></g><g><path d="m271.838 64.034c15.493-1.194 28.413 9.363 29.653 25.449s-10.815 29.007-26.308 30.201-27.39-9.505-28.63-25.591c-1.241-16.087 9.792-28.865 25.285-30.059z" fill="#768901"/></g><g><path d="m272.868 121.816c-15.342.001-27.094-11.24-28.353-27.567-1.317-17.092 10.362-30.958 27.166-32.253 16.869-1.289 30.545 10.451 31.846 27.329.636 8.245-1.989 16.13-7.39 22.2-5.292 5.948-12.679 9.569-20.799 10.194-.832.065-1.657.097-2.47.097zm-.873-55.745c-14.482 1.116-24.544 13.095-23.406 27.864 1.161 15.071 12.039 24.819 26.436 23.711 7.06-.544 13.474-3.682 18.06-8.836 4.656-5.234 6.918-12.042 6.368-19.17-1.14-14.795-12.697-24.71-27.458-23.569z" fill="#4c5600"/></g><g><ellipse cx="272.861" cy="92.271" fill="#fff" rx="20.783" ry="20.783" transform="matrix(.238 -.971 .971 .238 118.235 335.289)"/></g><g><circle cx="273.711" cy="94.195" fill="#cc9211" r="11.82"/></g><g><path d="m280.907 94.195c0 3.974-3.222 7.196-7.196 7.196s-7.196-3.222-7.196-7.196 3.222-7.196 7.196-7.196 7.196 3.221 7.196 7.196z" fill="#233338"/></g><g><ellipse cx="278.975" cy="89.648" fill="#fff" rx="2.987" ry="2.811"/></g><g><path d="m196.461 58.891c-.071 0-.143-.003-.216-.011-1.122-.118-1.937-1.123-1.819-2.245.43-4.102 3.694-7.579 7.76-8.267 4.071-.687 8.293 1.522 10.049 5.253.48 1.021.042 2.238-.979 2.719-1.022.479-2.238.042-2.719-.979-.959-2.038-3.445-3.341-5.67-2.964-2.22.376-4.143 2.424-4.378 4.663-.109 1.051-.996 1.831-2.028 1.831z" fill="#4c5600"/></g><g><path d="m281.319 55.637c-.956 0-1.809-.673-2.002-1.646-.55-2.776-3.301-5.066-6.131-5.103-.023-.001-.047-.001-.071-.001-2.806 0-5.574 2.201-6.192 4.939-.248 1.101-1.342 1.795-2.443 1.543-1.101-.248-1.792-1.342-1.543-2.443 1.043-4.619 5.553-8.204 10.303-8.125 4.734.063 9.164 3.75 10.085 8.394.219 1.107-.5 2.182-1.607 2.402-.133.027-.267.04-.399.04z" fill="#4c5600"/></g><g><path d="m290.099 370.087s4.939 69.593 4.377 72.66-7.688 16.023-5.529 17.211 13.184-7.094 15.97-4.999 9.188 10.398 12.395 10.193 3.779-11.985 3.779-11.985 14.285 4.201 15.754.508-14.414-12.148-14.414-12.148l-1.439-70.337s-5.2-6.74-15.751-6.74c-9.284.001-15.142 5.637-15.142 5.637z" fill="#768901"/></g><g><path d="m317.185 467.2c-2.83 0-5.882-2.937-10.159-7.368-1.273-1.318-2.478-2.566-3.249-3.171-1.178-.205-5.117 1.763-7.252 2.823-4.012 1.993-6.661 3.31-8.563 2.265-2.903-1.597-1.203-5.857 2.313-13.879.955-2.179 2.038-4.649 2.192-5.491.319-2.816-2.489-43.773-4.456-70.605-.082-1.125.763-2.105 1.889-2.187 1.118-.078 2.104.763 2.187 1.889.837 11.408 4.979 68.476 4.4 71.639-.229 1.247-1.087 3.242-2.469 6.395-.982 2.241-2.628 5.997-3.219 8.144 1.151-.459 2.731-1.244 3.909-1.829 4.77-2.369 8.888-4.415 11.438-2.498 1.025.771 2.321 2.114 3.822 3.668 1.82 1.885 5.52 5.719 7.035 6.09.882-1.039 1.836-5.641 2.049-10.016.03-.625.346-1.203.857-1.566.51-.362 1.158-.472 1.76-.295 5.567 1.634 11.55 2.395 13.133 1.712-.885-1.822-6.85-6.137-13.33-9.588-.66-.351-1.075-1.034-1.083-1.781l-.731-67.792c-.012-1.128.893-2.053 2.021-2.065 1.117-.024 2.053.893 2.065 2.021l.718 66.587c7.703 4.203 15.976 9.871 14.283 14.13-1.64 4.125-9.759 2.919-15.787 1.371-.507 5.534-1.913 11.16-5.514 11.391-.087.003-.172.006-.259.006z" fill="#4c5600"/></g><g><path d="m186.371 186.386c-2.149 0-3.39-.027-3.453-.029-1.128-.028-2.02-.965-1.992-2.093.027-1.128.933-2.032 2.093-1.992.331.007 33.521.739 59.419-5.735 1.095-.271 2.204.392 2.478 1.487.273 1.094-.392 2.204-1.487 2.478-21.477 5.368-47.763 5.884-57.058 5.884z" fill="#4c5600"/></g></g></svg>