<svg id="Layer_2" enable-background="new 0 0 1000 1000" height="1000" viewBox="0 0 1000 1000" width="1000" xmlns="http://www.w3.org/2000/svg"><g><path d="m759.1 906s39.3 3.1 34.6 20.8c-4.6 17.7-9.2 33.1-48.5 32.3s-78.2-1.5-78.2-1.5-10 30.2-38.1 30.2-40-1.7-49.1-24.3l-24.1.6s-10.4 28.9-43.5 26.9c-33.1-1.9-51.1-9.8-47.1-25.1s-159.5-5.4-163.3-7.1c-3.8-1.6-11.4-40.3 16.9-45.7 0 0-6.5-25.6-33.8-47.4s-65.9-115.4-1.6-165c11.6-9 22.1-17 31.5-24.5l-33.7 24.5c-108.3-95.7-110.1-202.9-105-195.3 36.7 54.5 40.8 49 40.8 49s-33.2-88.2 46.8-129 126.9 45.7 126.9 45.7c-117.1 38.7-65.6 177.5-59.8 192 32.1-27.9 49.8-52.7 62.6-103.3 18-71.3 30.5-105.1 30.5-105.1l-75.7-65.9 27.2-3.3-32.1-25 62.8-107.1 62-90.5-62 90.5s-1.2-200.2 40.8-226.4c0 0 7.7-10.4 64.7 121.3l-11.5 3.9 95.9-10c.5-69.7 27.2-131.8 27.2-131.8 87.1 33.2 95.3 197.6 95.3 197.6l-7.1-5.7c34.6 34.2 92.7 91.7 97.9 113.1 0 0-18.9 31.2-20.4 32s20 .8 20 .8-49.7 68.1-65.1 85.9l12.8 232s80.4 80.6 70.4 119.9c-10.1 39.2-54 108.5-67.9 120z" fill="#926f69"/><path d="m441.3 196.3s-13.6-83.3 8.7-116.2c0-1.1 17.9 65.5 36.5 73.5 0 0-15.7 1.6-17.1 5.5-1.3 3.9-28.1 37.2-28.1 37.2zm-61.6 261.2s-86.6-114.3-162.8 21.2c-7.3 25.7-4.1 50.7 0 75.7l-39.2-47.9s10.3 107.8 66.4 153.5c.1 0-60.4-200.4 135.6-202.5zm307.7-279.4c3-62.9-44.9-130.7-41.4-117.3 3.5 13.3-12.1 76.1-12.1 76.1zm62.6 532c-.3-.4-.3.4-.1 2 0-.7 0-1.3.1-2zm40.8 237.9c-5.4 3.8-71 20.3-123.7 9.6s-9.2 23.9-14.6 26.2-57 10.8-67.4-1.2c-10.4-11.9-5.2-19.1-5.2-19.1l-24.1.6s3.8 28.1-34.7 27.3-46.9-5.2-56-25.5l-165.4-6.1s-13.3-43.1 19-46.7l-10.1-21s19.2-95.5 22.3-141.7 50.4-211.4 159.3-124.2c0 0 10.9 11.4 20.1 6 9.3-5.4-49.9-90.7-38.5-148.9 0 0-23-29.7-29.5-44.4-4.3-12.5-11.3-42.5.5-62.1 12.2-20.2-3.8-27.8-10.3-35.4s-16.3-87.7 39.2-131.2 100.2 2.7 104.5 15.8c4.4 13.1 12 6.5 14.2 1.1s26.4-66.4 87.7-30.5c64.4 37.7 67.5 129 39.2 148.6 0 0 55.5 61.5-7.1 118.1 0 0-27.8 122.5-59.3 159.5 0 0-10.9 10.9-4.9 19.1s14.7-1.1 18.5-3.8 29.4-24 86 8.2c0 0 .9 71-8.4 98.7-4.2 12.6-10.1 34.2-17.3 57.3 12.8-35.5 23.2-69 25-90.2 1.2 10.3 10.9 56.4 21.9 95.4 8.8 31 21.2 45.7 21.2 45.7l-24 35.4-9.9 17.3s28.4-2.6 31.7 13.7c3.4 16.4 5.6 24.6.1 28.4zm-167.4-662.9s-42.7-13.3-70.5 3.3c0 0 22.3 27 35.4 25.6 13-1.4 34-24.5 35.1-28.9zm74.7 586.7c-1.2 2.3-2.5 4.5-3.7 6.5-14.1 22.9-21.6 51.1-25 67 5.1-15 16.2-42.2 28.7-73.5z" fill="#fcf8f5"/><path d="m633.5 371.4s-6 47.9-43 51.7-49-47.9-49-47.9l46.3-21.8z" fill="#f76988"/><path d="m808.4 719.2c-19.8-31.8-45.5-54.8-48.2-57.2.2-5.3.1-9.4-.6-11.6-2.7-9.1-7.7-132.7-10.5-214.8 8.7-10.6 19.1-23.6 28.7-35.7 9.8-12.3 19-24.1 25.9-33.1 12.5-16.3 12.5-16.6 12.5-18.8 0-1.6-.7-3.1-1.9-4.2-2.4-2.2-5.3-1.8-13.9-.8-.7.1-1.4.2-2.2.3 6.6-7.8 15.5-19.6 16.2-27.3.1-.8 0-1.7-.3-2.4-9.7-25.5-58.9-76.2-79.6-96.8-3.7-3.6-7.3-7.2-11-10.8-.6-8.7-3.5-45.3-15.1-85.7-7.7-26.8-17.5-49.6-29.3-67.8-15-23.2-33.3-39-54.3-47-2.7-1-5.8.3-6.9 2.9-1.1 2.5-26.2 61.8-27.6 130.2-9.8.8-20.7 1.8-32 3-1.6.2-21.5 2.2-42 4.6-53-123-64-124.2-68.1-124.7-1.7-.2-3.3.2-4.5 1.2-19 12.2-31.6 53.8-38.4 126.9-4.4 47.7-4.7 93.3-4.7 102.3-20.1 31.8-58.8 94.7-61.8 106.4-.6 2.4-.3 4.4.9 5.9 2.3 3 14.4 11.8 23.8 17.8-5 .6-10.5 1-12.4.6-1.8-.6-3.8-.3-5.3.9-1.5 1.3-2.3 3.3-1.9 5.3.3 1.8.5 2.9 15.2 17 5.8 5.6 17.8 16.8 32.8 29.7 7.7 6.6 16.4 13.8 25.3 20.7-2.7 7.8-13.6 40-29.3 102.2-11.6 46.1-27 69.9-54.9 95.3-7.4-21.5-23.6-79.7-3-125.1 11.3-24.9 32.2-42.5 62.2-52.4 1.5-.5 2.8-1.7 3.4-3.2s.5-3.2-.3-4.6c-.5-.9-12.5-22.9-34.9-39.9-21.1-16-55.4-30.5-99.2-8.1-43.6 22.3-54.7 58.2-56.4 84.3-.8 13.1.6 25 2.3 34-5.7-6.8-14.1-18-26.6-36.5-1.4-2.1-3.6-3.1-5.9-2.7-1.1.2-3.9 1-5 4.7-2 6.9.3 35 15 71.9 12.7 32 38.5 79.4 89.2 125.4-20.1 18.2-30.8 42.8-31 71.7-.4 40.3 19.8 81.6 38.7 96.7 18.4 14.7 26.8 31.4 30.1 39.5-10.8 4.2-17.4 13.8-18.9 27.4-.9 8 .3 24.1 6.9 27 1.6.7 3.3 1.4 83 4.6 34.8 1.4 69.5 2.6 76.8 2.9 6.6 13.3 8.6 16 10.3 17 4.2 2.6 23.5 5.7 39.6 6.4 2.7.1 5.3.2 7.8.2 20.4 0 33.8-3.9 39.8-11.7 3.5-4.5 4.7-9.3 4.5-14 5.4-.3 10.8-.5 14.1-.5.3 3.5 1.2 7 2.9 10.2 3.8 7.2 10.9 11.9 21.1 14.1.1 0 .2 0 .3.1 4.4.9 9.5 1.4 15.1 1.4 41.8 0 51.7-17.1 55-31.5 9.5.2 19 .7 28.2 1.1 12.7.6 24.9 1.1 36.2 1.1 32.1 0 56.7-4.5 63.3-25.8 3.5-11.5 2.9-20.7-1.9-27.4-7.4-10.4-22.3-11.2-30.8-11.4 5.5-8.4 21.2-28.8 49.1-65.3 24.2-31.3 22.2-71.4-5.6-116.1zm-182.3-701.6c64.2 29.5 81.4 138 85.6 176.8-6.5-6.1-12.8-11.9-18.9-17.4 1.1-30.5-9-60.5-17.8-80.5-9-20.5-20.7-39.4-26-42.1-2.2-1.1-4.7-.9-6.5.6-1.4 1.1-2.9 3.3-1.8 7.3 2.3 8.7-6.2 49.6-12.1 73.4 0 .2-.1.3-.1.5-3.9.1-8.8.3-15.1.7-3.6.2-7.6.5-11.9.8 1.3-54.8 18.6-104.5 24.6-120.1zm17.1 120.2c-.7-.6-1.6-1.1-3.6-1.4 2.6-10.6 10-41.7 11.9-61.9 11.1 18.2 28.9 56 30.5 92.9-16.7-14.3-30.5-25-38.8-29.6zm-195.7-104.4c4.6 4.9 19.5 25.8 57.8 114-5.4.7-10.6 1.4-15.3 2-.4-.3-.9-.6-1.4-.8-3.3-1.4-15.4-10.5-32.7-67.8-.2-.7-.4-1.3-.5-1.7-1.5-4.9-5.5-4.5-6.3-4.3-1.6.3-2.9 1.2-3.7 2.5-23.2 34.4-10.1 116.5-9.5 120 0 .2.1.3.1.4-7.3 10.8-15.6 23.3-24.3 36.9.4-19.3 1.4-51.1 4.5-83.9 7.7-83.3 22.1-109.3 31.3-117.3zm-2.3 151c-2.3-20.1-5.7-62.9 3.7-89.6 9.1 28.1 18.1 47.3 26.8 57.1-2 .4-3.6.8-4.4 1.2-2.1.9-6.1 2.6-26.1 31.3zm-264.2 337.7c26.5 37.7 32.3 37.8 35.3 37.9 2 0 3.9-.8 5-2.4 1.1-1.5 1.4-3.4.7-5.2-.1-.2-7.9-21.3-6.3-46.9 2.1-34 19.1-59.3 50.5-75.3 31.1-15.8 60.5-13.5 87.4 6.8 14.2 10.7 24 23.9 28.8 31.2-29.5 11.2-50.5 30-62.2 56-24 52.9-2.8 118.8 4.1 137.3-11.4 9.7-24.6 19.9-40.2 31.9l-1.7 1.3c-76-68.5-97.1-141.6-101.4-172.6zm479.9 430.8c-1.7 11.9-3.6 25-26.9 29.4.2-5.9 2-16 4-24.3.7-2.9-1.1-5.9-4-6.6s-5.9 1.1-6.6 4c-1.2 4.8-4.3 18.7-4.2 28.1-2.5.1-5.1.2-8 .2-2.8 0-5.9-.1-8.9-.5.6-6.5 4.1-17.7 6.9-25 1.1-2.8-.3-6-3.1-7-2.8-1.1-6 .3-7 3.1-1.2 3.1-6 15.9-7.3 26.1-3.2-1.5-5.8-3.6-7.4-6.5-4.7-8.7 1.2-22.7 4.5-27.7.7-1.1 1.8-1.9 3.2-3.1 11.9-9.4 29.8-23.5 30.8-239.6 0-3-2.4-5.5-5.4-5.5-3 0-5.4 2.4-5.4 5.4-1 210.8-17.7 224-26.6 231.1-1.8 1.4-3.8 3-5.5 5.5-2.1 3.2-5.6 10-7.2 17.8-3.3 0-8.8.1-17.9.6-4.3-9-12.2-17.2-17.6-22.8-2.1-2.2-4.1-4.2-5.1-5.5-4-12.1-14.9-151.8-20.8-237.8-.2-3-2.8-5.3-5.8-5.1s-5.3 2.8-5.1 5.8c0 .6 4.1 58.8 8.8 117.3 9.6 119.7 12.2 123.4 13.8 125.7 1.4 2 3.6 4.3 6.4 7.2 11.5 12 22.2 24.4 15.3 33.3-2.2 2.8-7 4.9-13.9 6.1-1.8-16.6-10-28.8-10.4-29.3-1.7-2.5-5.1-3.1-7.6-1.4s-3.1 5.1-1.5 7.6c.1.1 7 10.6 8.6 24.4-3.9.2-8.2.2-12.8.1-1.7-.1-3.4-.2-5.1-.3-.6-4.5-2.3-12.4-6.4-26.3-.8-2.9-3.9-4.6-6.8-3.7-2.9.8-4.6 3.9-3.7 6.8 2.2 7.7 4.5 16.7 5.6 22.2-9.1-1.1-16.1-2.5-18.6-3.4-5.3-7.9-29.9-62.3-46.3-98.6-11.7-25.9-21.9-48.3-25.3-54.9-4.4-8.4-13.5-30.9-19.7-61.8-7.7-38.4-8.7-76.3-2.8-112.7.5-3-1.5-5.8-4.5-6.2-3-.5-5.8 1.5-6.2 4.5-13.7 85.2 12.4 159.7 23.6 181.3 3.3 6.4 13.4 28.6 25.1 54.4 16.5 36.5 27.3 60 34.5 75.1-56.5-2-135.1-5.1-149.1-6.4-1.4-4-3.2-15.2.7-24.3 2.6-6.1 7.2-9.7 14-11 1.5-.3 2.8-1.2 3.6-2.4.8-1.3 1.1-2.8.7-4.3-.3-1.1-7.3-27.6-35.6-50.3-14.7-11.8-35-49-34.6-88.1.3-28.7 11.3-51.7 32.9-68.3l4.1-3.1c15.5-12 28.9-22.3 40.6-32.2.7 0 1.4-.1 2-.4 1.8-.8 3-2.4 3.3-4.2 31.3-27.6 49.2-53.3 62-104.1 13.8-54.7 24-86.5 27.9-98 15.5 11.4 31.2 21.2 43.6 25.3.6.2 1.2.3 1.7.3 2.3 0 4.4-1.4 5.2-3.7 1-2.9-.6-5.9-3.4-6.9-31.5-10.5-90.3-63.9-111.7-84.9.9-.1 1.7-.2 2.3-.3 13.6-1.6 15.8-4.2 16.9-6.7 1.2-2.7.5-6.6-3.8-8.7-6.5-3.2-21.8-14-27.2-18.5 4.2-10.1 26.2-48.3 58.4-99.3 39.1-61.8 62.2-93.4 67.2-96.7 4.4-1.5 36-5.9 80.5-10.4 46.9-4.7 75.9-6.4 81.2-5.6 30.7 16.1 150 131.1 166.2 169-1.8 6.4-13.8 21.3-20.1 27.6-3.2 3.2-2 6.5-1.6 7.4 2.2 4.6 7.6 4.2 18.1 3-17.7 23.3-67.3 85.6-75.5 93.8-2.1 2.1-2.1 5.6 0 7.7s5.6 2.1 7.7 0c1.4-1.4 3.7-4 6.6-7.4 1.7 48.8 7.1 193.5 10.5 205.3 1.2 4.3-1.3 32.5-9.3 74.1-8.2 42.8-18.1 77.7-26.5 93.5-19.6 36.9-49.6 112.7-52.2 128.8-.7.8-.9 1.8-1 2.9zm101.3-67c-8.9 12.1-10.6 15.6-10 19.2.5 2.9 2.6 4.3 3.5 5 1.9 1.3 4.2 1.3 8.3 1.5 6.5.2 18.6.6 23.1 6.9 2.7 3.8 2.8 9.8.4 17.9-6.3 20.7-44.4 19-88.5 17-8.8-.4-17.8-.8-26.9-1.1 0-.2.1-.5.1-.8 2.2-13.7 31-87.6 51-125.3 12.8-24.1 23.5-75.6 27.6-96.6 2.7-13.8 6.4-36 8.4-53.7 9 8.8 26.3 26.8 40.1 49.1 25.5 41.1 27.6 76 6.4 103.8-22.8 29.5-35.9 46.7-43.5 57.1zm-97.9-560.1c-2.9.7-4.7 3.6-4.1 6.6 3.2 13.9 2 23.1-3.6 27.6-12.4 9.8-47.4-1.8-66.5-11.4-1.6-.8-3.5-.8-5.1.1-57.7 31.9-73.8 26.9-78 23.3-6.2-5.3-1.4-19.1-1.3-19.4 1-2.8-.4-6-3.2-7-2.8-1.1-6 .4-7 3.2-.3.9-7.6 21 4.4 31.4 4.1 3.5 9.7 5.3 16.9 5.3 5.9 0 12.8-1.2 20.9-3.6 1.7 5.2 4.8 13.4 9.7 21.5 10.2 16.7 23.7 25.3 39.2 25.3 1.5 0 2.9-.1 4.4-.2 36.3-3.7 45.7-43.7 47.5-54.1 9.5.6 18.5-.9 24.9-6 9.3-7.3 11.8-20.3 7.5-38.6-.7-2.8-3.6-4.6-6.6-4zm-74.4 91.9c-25.9 2.7-38.1-27.6-41.9-39.3 11.5-4.3 24.7-10.6 39.8-18.8 1.2.6 2.7 1.3 4.4 2l-.5 18.9c-.1 3 2.3 5.5 5.3 5.6h.1c2.9 0 5.4-2.3 5.4-5.3l.4-14.8c7.2 2.7 15.8 5.5 24.6 7.1-1.6 9.2-9.8 41.8-37.6 44.6zm-56.7-123.1c.9 2.1 2.9 3.3 5 3.3.7 0 1.4-.1 2.1-.4.2-.1 4-1.6 10-3.7 6.2 7.1 23.5 25.7 37.1 25.7.5 0 1 0 1.5-.1 8.7-.9 18.5-8.5 25.2-14.7.5-.4 9.5-8.8 13.2-15 1.4.8 2.7 1.7 3.9 2.7 2.3 1.9 5.8 1.6 7.7-.8 1.9-2.3 1.6-5.8-.8-7.7-31.6-25.7-99.1 2.4-101.9 3.6-2.9 1.1-4.2 4.3-3 7.1zm83.7-9c-4.9 6.7-20.5 22.1-29.2 23-5.8.6-17.4-9.3-25.9-18.4 16.1-4.5 38.1-8.8 55.1-4.6zm-107.4-20.8c-.4-13.9 2.9-27.7 11.1-28.5 8.7-.8 15.3 12.9 14.7 27.1-.6 13.9-2.5 24.9-12.2 24.7-6-.2-13.1-7.5-13.6-23.3zm123.2-6.9c-1.7-13.8.3-27.8 8.4-29.4 8.5-1.6 16.4 11.5 17.1 25.7.7 13.9-.1 25-9.9 25.7-6 .3-13.7-6.4-15.6-22z" fill="#7c1d22"/></g></svg>