<svg height="512" viewBox="0 0 512 512" width="512" xmlns="http://www.w3.org/2000/svg"><g id="Stickers"><path d="m463.134 453.094a48.715 48.715 0 0 0 4.9-27.221c-2.7-24.966-24.023-44.953-36.425-54.605 8.348-14.2 23.369-43.944 28.483-81.21 6.6-48.1-2.682-117.864-84.392-177.062-22.558-16.338-56.43-26.739-96.256-29.7.716-4.614 1.586-9.585 2.536-14.655 6.666.481 6.666.517 7.508.517a13.439 13.439 0 0 0 13.348-12.4 13.386 13.386 0 0 0 -12.368-14.336l-3.094-.228c.548-2.521 1.083-4.949 1.591-7.223 14.628.745 20.09 2.485 23.233 2.485a13.388 13.388 0 0 0 2.234-26.588 208.835 208.835 0 0 0 -33.632-2.907 18.185 18.185 0 0 0 -12.21-1.518c-58.383 13.039-83.4 60.571-92.729 85.7-25.278 6.392-47.786 15.752-65.384 27.22-44.869 29.237-60.603 74.923-50.877 116.897-20.74 40.04-18.134 60.367-12.127 70.421 4.248 7.109 11.476 11.007 18.935 10.5 6.078-.4 13.917-4.3 32.421-22.011 5.54-5.3 10.642-10.529 14.116-14.166 21.482 4.681 57.475-1.208 79.3-5.373 9.01 25.285 27.676 42.609 53.417 49.264a15.19 15.19 0 0 0 5.657.376 13.345 13.345 0 0 0 9.5 4 280.086 280.086 0 0 0 28.119-3.089 13.409 13.409 0 0 0 8.924-20.844 16.736 16.736 0 0 0 8.531-1.625 13.285 13.285 0 0 0 4.948 2.52c11.816 3.141 21.925-3.66 26.006-4.147a13.388 13.388 0 0 0 7.238-25.776c-12.115-3.6-22.633 3.566-26.676 3.967a13.122 13.122 0 0 0 -5.119-.214 110.532 110.532 0 0 1 -14.421-30.975c1.71-.513 2.937-.886 3.626-1.1 42.548-7.507 79.352 13.673 90.628 44.621l.109.3c6.3 17.553 3.873 37.065-6.775 55.7-11.435-4.524-22.424-6.811-32.767-6.811a62.354 62.354 0 0 0 -45.067 18.447 13.37 13.37 0 0 0 -17.977-.957c-10.841 8.853-22.051 18.007-34.331 23.19a13.388 13.388 0 1 0 10.411 24.67 116.3 116.3 0 0 0 20.919-11.728l-1.925 4.085c20.918-7.111 29.31-11.137 43.561-11.137 16.591 0 21 5.692 33.192 11.113l-17.125 17.549a13.388 13.388 0 0 0 19.152 18.707l19.187-19.637c8.552 15.377 25.569 27.538 42.137 31.489 7.83 1.863 6.188 12.308 5.762 14.457-.463 3.291 1.664-11.816-4.456 31.656a13.4 13.4 0 0 0 22.828 8.355 71.787 71.787 0 0 0 19.07-35.214 13.362 13.362 0 0 0 -5.394-13.749z" fill="#fff"/><path d="m181.81 109.018s16.464-75.9 89.109-92.121a7.631 7.631 0 0 1 9.081 9.155c-4.931 21.591-14.959 67.94-12.934 79.414 2.663 15.097-85.256 3.552-85.256 3.552z" fill="#00abfe"/><path d="m197.135 238.037s-4.265 62.151 51.209 76.491a4.51 4.51 0 0 0 5.346-5.943c-3.854-10.337-8.789-30.814-3.39-60.12z" fill="#a369f7"/><path d="m441.567 464.25s4.886-22.648-13.763-27.086-40.41-22.648-39.522-42.633c0 0-10.212 2.662-32.411-10.212s-50.174-3.112-50.174-3.112 23.087-48.837 84.37-19.088c17.864-25.563 20.48-51.3 12.753-72.821a.034.034 0 0 0 -.009-.028c-13.006-36.233-55.284-60.479-103.336-51.706 0 0-73.952 22.882-131.6 31.366-24.834 3.643-46.65 4.624-58.217-.057 0 0-33.972 36.962-43.96 37.626s-22.985-16.314 5.325-68.935c0 0-21.648-65.608 45.3-109.232s196.47-47.678 253.1-6.661c149.856 108.568 47.735 252.435 47.735 252.435s71.48 44.409 24.409 90.144z" fill="#00abfe"/><path d="m402.811 289.27c-13.006-36.233-55.284-60.479-103.336-51.706 0 0-73.952 22.882-131.6 31.366 16.519-18.052 48.865-41.765 105.411-43.129 91.89-2.224 119.201 19.079 129.525 63.469z" fill="#ff605b"/><path d="m214.517 218.231s13.677 75.984 84.684 76.435a5.589 5.589 0 0 0 4.627-8.76c-7.759-11.257-19.884-34.373-22.262-71.227z" fill="#00abfe"/><path d="m63.345 303.455a2.5 2.5 0 0 1 -.931-3.41c.593-1.036 14.7-25.514 32.311-37.251 18.611-12.407 28.3-24.544 26.6-28.672a2.5 2.5 0 1 1 4.625-1.9c3.752 9.132-12.984 24.418-28.456 34.732-16.614 11.076-30.6 35.328-30.743 35.572a2.5 2.5 0 0 1 -3.406.929z" fill="#1d1d3d"/><g fill="#eae5db"><path d="m258.726 395.789a2.5 2.5 0 0 1 1.332-3.275c13.721-5.79 25.547-15.449 36.984-24.789a2.5 2.5 0 1 1 3.158 3.875c-11.71 9.563-23.819 19.453-38.2 25.523a2.5 2.5 0 0 1 -3.274-1.334z"/><path d="m352.68 428.17a2.5 2.5 0 0 1 -.041-3.535l20.066-20.548a2.5 2.5 0 0 1 3.578 3.494l-20.068 20.548a2.5 2.5 0 0 1 -3.535.041z"/><path d="m438.2 494.385a2.5 2.5 0 0 1 -.01-3.535 55.686 55.686 0 0 0 14.8-27.327 2.5 2.5 0 0 1 4.891 1.043 60.743 60.743 0 0 1 -16.143 29.809 2.5 2.5 0 0 1 -3.538.01z"/><path d="m314.148 295.712a2.5 2.5 0 0 1 1.286-4.832c7.51 2 16.493-6.973 26.054-4.133a2.5 2.5 0 0 1 -1.425 4.793c-7.436-2.216-16.289 6.735-25.915 4.172z"/><path d="m258.336 316.049a2.5 2.5 0 0 1 2.329-2.659c8.6-.569 17.277-1.543 25.787-2.9a2.5 2.5 0 0 1 .785 4.938c-8.659 1.379-17.489 2.37-26.242 2.948a2.5 2.5 0 0 1 -2.659-2.327z"/><path d="m312.2 26.566a2.424 2.424 0 0 1 -.421-.035 192.085 192.085 0 0 0 -37.528-2.621h-.072a2.5 2.5 0 0 1 -.071-5 197.243 197.243 0 0 1 38.507 2.69 2.5 2.5 0 0 1 -.415 4.964z"/><path d="m289.3 58.266-10.648-.785a2.5 2.5 0 0 1 .367-4.986l10.648.784a2.5 2.5 0 0 1 -.367 4.987z"/></g></g></svg>