<svg id="Layer_1" height="512" viewBox="0 0 1000 1000" width="512" xmlns="http://www.w3.org/2000/svg"><g><path d="m840.546 213.191c14.425-22.355 26.266-47.219 35.198-73.896l.893-2.641c6.054-17.865 16.184-47.764 4.216-69.223-13.484-24.184-40.356-24.803-56.412-25.174l-1.031-.025c-2.218-.051-4.439-.076-6.654-.076-25.133 0-52.016 3.383-79.902 10.055-48.91 11.701-93.52 36.594-127.199 70.695-35.08-19.041-73.788-29.066-112.55-29.066-17.496 0-35.1 2.025-52.314 6.018-18.937 4.395-37.969 11.592-56.756 21.453-30.92-30.709-70.456-53.225-117.752-67.029-25.273-7.377-53.381-11.32-85.934-12.053l-2.707-.072c-2.685-.076-5.711-.16-8.906-.16-10.963 0-40.078 0-52.545 22.357-11.816 21.193-5.156 44.984-.295 62.355l1.309 4.727c6.324 23.439 17.029 47.424 33.688 75.479 17.853 30.061 41.059 59.127 67.636 84.809-12.327 22.525-21.587 44.861-27.589 66.576-13.247 47.953 6.439 92.957 55.436 126.723 23.891 16.465 52.734 30.492 84.555 41.219-27.328 39.875-47.625 94.023-53.748 145.729-3.889 32.854.682 61.73 13.252 84.625-12.221 15.494-15.545 33.016-9.02 49.816 6.727 17.316 22.26 28.529 43.553 31.895.42 5.988 1.227 11.9 2.422 17.699 11.992 58.264 67.806 101.16 132.715 101.998.084.002.313.002.313.002 9.419 0 18.321-5.574 22.683-14.201 4.24-8.389 3.469-18.223-2.006-25.654-4.207-5.713-4.922-8.807-5.045-9.699 2.412-3.111 15.715-9.516 44.227-11.221 27.285-1.633 56.706-3.912 86.972-9.5 68-12.551 115.16-37.779 148.426-79.398 33.559-41.994 41.8-102.346 20.508-150.178-15.771-35.422-45.561-58.77-83.111-65.768-4.49-23.553-14.828-47.857-29.531-69.68 8.506-3.137 16.975-6.521 25.349-10.139 43.851-18.941 95.926-47.633 109.503-101.836 9.991-39.885-8.05-81.863-28.203-116.475 24.353-23.288 46.627-50.491 66.356-81.066z" fill="#fff"/><g><path d="m824.093 202.576c13.971-21.654 24.912-45.092 33.084-69.5 4.709-14.061 14.81-41.342 6.575-56.107-8.222-14.742-25.743-14.803-40.807-15.158-27.431-.648-54.91 3.072-81.536 9.443-49.051 11.736-94.743 37.945-127.766 76.174-.105.121-.17.25-.262.373-1.752-1.084-3.488-2.189-5.258-3.242-48.355-28.768-104.12-38.334-158.91-25.625-22.955 5.324-44.646 14.787-64.938 26.934-31.808-36.111-73.529-59.375-119.482-72.789-26.197-7.648-53.689-10.662-80.887-11.273-12.973-.291-38.719-2.08-46.615 12.084-8.758 15.709-1.509 36.426 2.814 52.445 6.725 24.916 18.503 48.492 31.619 70.582 20.031 33.73 46.282 64.855 75.521 91.068-14.439 24.023-26.246 49.512-33.436 75.529-12.433 45.002 11.609 80.533 47.672 105.385 30.539 21.045 68.016 36.705 106.576 46.818-37.137 40.688-61.115 105.186-67.434 158.555-3.844 32.443 1.086 62.676 18.879 84.723-12.023 9.838-22.07 24.291-15.842 40.326 6.686 17.209 27.498 21.289 43.832 20.342.369-.023.705-.092 1.039-.166-.783 10.715-.219 21.635 2.029 32.559 10.792 52.428 62.207 85.701 113.789 86.367 4.035.053 7.621-5.064 4.971-8.662-30.227-41.043 23.982-50.295 53.781-52.078 28.573-1.709 56.41-4.008 84.586-9.209 53.068-9.795 102.284-29.328 136.682-72.369 52.869-66.15 30.293-180.539-64.678-186.139-2.658-35.646-21.432-71.449-44.584-97.01 17.127-5.201 33.889-11.402 50.01-18.365 40.482-17.486 86.711-42.455 98.273-88.617 9.496-37.912-12.779-80.941-34.292-115.354.159-.121.323-.211.479-.348 28.865-25.444 53.682-55.409 74.516-87.696z" fill="#68182b"/><path d="m494.054 124.375c119.687-4.633 225.037 112.941 267.903 217.328-19.872-25.262-45.321-47.516-69.673-66.061-31.66-24.111-77.199-46.428-115.186-23.799-19.857 11.83-25.781 44.326-31.521 64.416-14.094 49.322-23.451 100.1-32.594 150.531-3.01-.125-5.739-.203-7.922-.289-4.841-.191-10.466-.277-16.328.004-8.887-48.928-18.309-97.889-31.333-145.906-6.261-23.09-12.292-53.746-32.729-68.756-35.4-26.002-85.617 2.254-115.186 23.799-30.752 22.41-61.91 52.037-83.086 85.184 13.906-53.047 53.781-105.121 89.816-144.193 46.234-50.135 108.238-89.565 177.839-92.258z" fill="#ff801d"/><path d="m665.87 187.414c30.041-19.795 61.723-38.492 96.746-47.785 3.283-.869 17.76-6.078 16.229 1.691-2.436 12.357-12.596 25.922-19.132 36.5-13.265 21.469-29.776 41.133-48.49 58.039-13.794-17.341-28.941-33.601-45.353-48.445z" fill="#813341"/><path d="m569.587 527.17c18.85 17.625 22.162 42.693 17.246 67.074-6.531-12.449-18.336-22.266-31.059-27.906-8.081-3.578-9.151-.115-7.321 5.818 10.755 35-3.44 78.834-34.616 99.338-1.307-16.367-13.189-27.949-25.542-38.934-18.988-16.889-34.463-28.139-33.063-54.369.513-9.635-3.456-9.641-9.577-6.188-13 7.326-21.568 20.166-25.512 34.43-9.461-26.598-9.522-56.643 9.135-79.387 9.193 1.012 18.277 1.723 27.152 2.074 11.822 13.74 29.375 23.332 44.82 22.375 11.951-.738 28.01-9.74 40.463-21.99 9.274-.37 18.579-1.165 27.874-2.335z" fill="#faf098"/><path d="m533.083 520.037c-15.293 16.707-37.554 27.922-57.412 11.168-6.816-5.75-14.725-14.264-18.707-23.6-5.662-13.277-1.376-23.037 13.416-27.643 18.965-5.906 47.653-1.688 61.219 1.033 15.255 3.063 21.747 11.08 12.602 25.105-3.888 5.963-8.821 11.431-11.118 13.937z" fill="#a1603f"/><path d="m285.912 233.725c-15.988-14.842-29.73-31.525-42.125-49.518-5.723-8.307-10.713-17.076-15.533-25.928-6.515-11.961-13.289-23.457 5.219-19.432 35.254 7.67 67.809 27.398 97.709 47.057-11.848 10.816-22.997 22.256-33.363 33.91-4.013 4.512-7.984 9.165-11.907 13.911z" fill="#813341"/><path d="m146.339 102.609c-2.506-12.41-2.904-24.104 11.732-28.01 12.472-3.328 28.01-1.355 40.77-.773 23.676 1.082 46.987 5.709 69.686 12.336 40.621 11.857 77.567 34.533 105.871 65.902-11.972 7.85-23.412 16.6-34.299 25.947-24.473-16.141-49.68-30.777-76.895-41.809-11.43-4.633-34.623-14.967-47.078-9.463-32.363 14.303 43.979 98.279 62.496 116.004-8.859 11.252-17.361 23.059-25.221 35.309-51.003-46.279-93.339-107.411-107.062-175.443z" fill="#ff801d"/><path d="m347.496 808.148c-11.703.678-25.817-.561-32.51-11.639-6.521-10.795 4.311-23.018 12.289-29.131 7.752 7.178 17.338 13.125 28.871 17.619-2.869 7.592-4.957 15.455-6.295 23.482-.678-.254-1.459-.383-2.355-.331z" fill="#a1603f"/><path d="m492.095 869.436c-16.76 2.965-29.934 10.449-37.066 20.742.986-7.473 4.205-14.404 8.469-21.479.496-.822-.533-1.982-1.379-1.377-14.959 10.719-18.84 40.305-8.358 58.93-63.864-6.67-107.81-65.447-90.019-129.465 2.939-10.57 7.646-20.363 13.629-29.34 9.721-14.582 22.893-24.359 40.404-30.934 18.1-6.797 37.936-9.938 56.938-10.617-14.481 9.035-27.302 21.959-36.153 36.244-7.014 11.338-1.527 11.857 6.385 7.635 23.316-12.436 50.816-17.557 77.345-16.814-20.014 10.402-37.41 24.816-51.033 42.939-7.357 9.781-2.977 10.91 5.836 11.445 25.214 1.523 51.333-1.895 75.708-8.773-14.355 17.896-32.207 32.854-53.699 41.051-9.148 3.498-11.391 7.973-2.061 11.299 17.345 6.189 35.529 10.975 53.929 13.479-19.683 1.228-39.44 1.593-58.875 5.035z" fill="#faf098"/><path d="m761.226 731.336c-8.87 60.479-61.619 98.803-115.908 116.109-29.373 9.365-70.967 13.756-98.27 9.404-15.059-2.396-29.928-6.336-44.297-11.262 22.296-8.828 40.791-24.461 55.756-43.16 6.539-8.176 9.498-15.414-5.745-11.01-24.53 7.094-50.694 10.51-76.167 8.9 14.246-19.139 33.078-34.254 54.718-44.268 7.662-3.537 12.02-8.727-2.035-9.676-27.341-1.844-56.287 2.484-81.236 14.129 9.141-12.85 21.488-24.133 35.211-31.666 5.186-2.85 17.266-10.178-2.586-9.99-21.904.199-45.109 3.523-66.092 11.533 3.674-2.564 7.427-4.988 11.236-7.242 33.959-20.066 76.173-19.42 114.326-19.354 15.723.027 33.99.4 52.025-1.246 4.508-.217 9.012-.49 13.503-.855 23.894-1.953 53.534-5.83 69.247-25.893.236-.301-.061-.795-.436-.564-9.755 5.998-19.887 10.17-30.275 13.09 12.437-7.135 22.625-17.506 28.798-32.639 4.493-11.016 6.679-22.543 6.993-34.205 55.939 3.828 89.062 56.506 81.234 109.865z" fill="#ff801d"/><path d="m623.772 517.658c46.662 48.797 73.309 149.404-12.57 170.488 11.027-23.314 16.57-48.594 12.572-74.543-.105-.689-1.029-.416-1.104.148-3.574 27.1-10.095 53.479-24.531 76.965-31.338 4.725-64.693.877-96.004 2.184-30.851 1.287-59.984 7.824-86.505 23.184-7.773-16.031-14.785-32.355-19.83-49.48-2.621-8.908-4.56-17.91-6.172-27.049-1.709-9.684-1.877-20.178-5.281-29.42-.21-.57-.965-.582-1.17 0-6.002 16.977-1.629 38.664 2.057 55.818 4.174 19.414 12.643 37.932 21.358 55.736-19.921 13.504-35.751 31.859-45.888 52.807-47.832-17.975-54.836-64.449-46.945-110.129.109-.645.252-1.305.365-1.951 2.389 19.717 9.496 39.455 22.964 52.121.612.572 1.751.016 1.466-.855-8.34-25.418-16.262-50.732-14.202-77.787 1.046-13.725 4.438-26.693 8.581-39.459 11.646-29.266 27.662-57.002 47.982-77.563 13.496 3.094 27.035 5.486 40.393 7.221-17.893 24.838-17.367 56.154-7.01 84.277 6.634 18.02 10.297 5.908 12.199-1.371 3.276-12.512 10.682-23.689 21.752-30.436-1.021 16.111 3.098 29.541 14.962 41.787 15.212 15.701 41.834 28.08 43.747 51.721.783 9.586 3.711 9.908 11.118 4.992 32.158-21.375 47.608-66.057 38.097-102.924 10.701 5.432 20.396 14.313 25.443 25.205 4.816 10.408 8.961 10.357 11.619-1.924 5.498-25.432 2.651-52.133-15.094-71.432 15.033-2.264 30.002-5.496 44.752-9.51.237.404.514.8.879 1.179z" fill="#ff801d"/><path d="m718.245 244.934c2.289-1.668 106.299-99.92 64.955-118.193-19.826-8.764-108.471 32.551-126.105 52.977-10.805-9.186-22.121-17.758-33.934-25.629 27.354-31.064 61.935-52.244 100.938-65.787 21.823-7.578 130.967-34.871 130.411 3.744-.606 42.469-27.794 87.223-51.231 120.953-17.225 24.789-37.842 47.746-60.406 67.832-2.729-4.229-18.806-28.161-24.628-35.897z" fill="#ff801d"/><path d="m463.405 470.943c5.757-2.068 12.108-3.262 18.423-3.912-7.67-42.201-15.713-84.438-26.23-126.033-6.154-24.334-11.391-55.436-26.682-76.129-30.016-40.625-96.402.316-124.051 23.041-23.444 19.268-47.23 41.34-65.598 66.502-15.564 21.334-19.902 36.916-11.529 58.33 12.602 32.223 47.014 53.758 81.23 68.424 43.658 18.709 91.568 32.834 139.283 35.996-2.278-4.348-3.938-8.883-4.811-13.467-2.673-14.05 4.729-27.283 19.965-32.752zm-47.366-75.211c-5.963 4.094-14.281 5.561-21.398 4.656-8.033-1.021-14.836-4.082-18.672-9.324-5.487 1.656-12.553 1.984-16.758-2.383-.17-.18-.104-.51.153-.572 4.595-1.098 9.28-1.033 13.774-2.508-5.742.242-12.678-1.246-15.67-6.543-.123-.221.031-.521.295-.516 4.467.129 8.762 1.232 13.211 1.104-4.691-1.961-9.146-5.361-10.055-10.42-.04-.225.156-.523.421-.42 4.157 1.637 7.845 3.965 12.042 5.357 2.968-12.789 13.672-22.637 27.35-21.359 11.239 1.051 18.381 8.945 21.493 18.658 2.995 9.343 2.862 18.061-6.186 24.27z" fill="#faf098"/><path d="m396.093 388.998c-8.533-.35-13.223-4.063-11.459-12.656 1.512-7.383 7.346-12.346 14.857-12.139 9.148.25 12.781 10.137 13.027 17.754-.347 6.834-11.595 7.238-16.425 7.041z" fill="#ff5671"/><path d="m754.903 343.795c-18.994-23.885-43.066-45.398-66.104-62.188-17.776-12.951-37.814-25.662-59.624-30.279-18.794-3.982-46.001-3.57-57.435 15.213-14.284 23.461-20.395 53.021-26.787 79.385-9.728 40.119-17.643 80.646-25.034 121.254 15.567 1.098 34.962 4.381 39.452 16.572 3.918 10.631.148 22.686-7.406 33.654 49.524-3.611 100.951-18.879 144.971-40.727 30.268-15.023 57.865-35.055 69.74-62.016 11.72-26.612.22-55.788-11.773-70.868zm-118.779 44.314c.256.063.324.393.152.572-3.48 3.617-8.929 4.01-13.814 3.104-8.532 10.338-28.134 11.914-39.195 4.242-8.304-5.762-9.762-16.781-4.875-27.871 3.773-8.566 10.967-15.18 21.445-15.467 12.826-.35 22.508 8.418 25.721 20.121 2.855-1.301 5.604-2.828 8.59-4.004.266-.104.461.195.42.42-.773 4.309-4.131 7.408-8.004 9.449.02.336.051.674.056 1.004 3.71-.195 7.345-1.029 11.106-1.137.263-.006.418.295.295.516-2.406 4.258-7.374 6.066-12.213 6.486-.092.307-.166.621-.275.916 3.503.667 7.074.808 10.591 1.649z" fill="#faf098"/><path d="m604.688 388.875c-4.992.635-17.514.248-17.88-6.918.268-8.209 3.53-15.682 12.087-17.646 7.173-1.645 13.265 4.203 15.371 10.443 2.928 8.666-.984 13.031-9.578 14.121z" fill="#ff5671"/><path d="m412.519 381.957c-.08-2.475-.564-5.172-1.432-7.719-1.348 3.355-3.737 6.133-6.953 7.896-4.844 2.66-12.441 1.877-16.59-1.631-1.605-1.357-2.348-3.152-2.641-5.096-.083.314-.202.609-.27.934-1.764 8.594 2.926 12.307 11.459 12.656 4.831.198 16.079-.206 16.427-7.04z" fill="#de3f58"/><path d="m612.306 370.797c.057.936.131 1.895.141 2.762.082 7.197-7.594 9.438-13.488 9.125-6.002-.32-9.672-3.908-10.382-9.563-1.11 2.662-1.664 5.691-1.768 8.836.366 7.166 12.888 7.553 17.88 6.918 8.594-1.09 12.506-5.455 9.578-14.121-.463-1.367-1.145-2.703-1.961-3.957z" fill="#de3f58"/><path d="m428.916 264.869c-30.016-40.625-96.402.316-124.051 23.041-23.444 19.268-47.23 41.34-65.598 66.502-15.564 21.334-19.902 36.916-11.529 58.33 4.756 12.162 12.625 22.795 22.41 32.117-38.096-64.291 56.229-151.279 112.133-169.729 52.989-17.484 71.631 46.969 87.803 83.041 6.822 15.217 13.631 30.783 19.895 46.617-4.342-21.369-9.037-42.664-14.381-63.791-6.155-24.333-11.391-55.434-26.682-76.128z" fill="#f2ae79"/><path d="m453.76 926.252c-7.403-13.154-7.612-31.748-1.844-45.328-3.563 3.504-6.64 8.113-9.056 13.301-6.139 13.205-8.043 16.557-21.646 8.027-18.065-11.328-33.147-27.182-42.181-45.723-16.611-34.102-11.563-72.301 8.811-101.619-3.85 3.738-7.359 7.867-10.475 12.537-5.983 8.977-10.689 18.77-13.629 29.34-17.789 64.018 26.156 122.795 90.02 129.465z" fill="#f2ae79"/><path d="m688.8 281.607c-17.776-12.951-37.814-25.662-59.624-30.279-18.794-3.982-46.001-3.57-57.435 15.213-14.284 23.461-20.395 53.021-26.787 79.385-3.959 16.334-7.563 32.748-11.01 49.197 5.113-13.961 10.27-27.906 16.061-41.617 8.902-21.08 18.531-41.734 35.072-57.963 26.271-25.779 63.377-10.834 90.061 5.244 19.886 11.979 38.581 26.572 54.672 43.277 25.229 26.191 32.28 55.27 13.656 87.563-7.617 13.211-17.393 24.779-28.473 35.211 22.797-13.65 42.23-30.709 51.684-52.174 11.719-26.613.219-55.789-11.773-70.869-18.995-23.885-43.067-45.399-66.104-62.188z" fill="#f2ae79"/><path d="m445.654 572.004c6.121-3.453 10.09-3.447 9.577 6.188-1.399 26.23 14.075 37.48 33.063 54.369 12.354 10.984 24.236 22.566 25.542 38.934 31.176-20.504 45.371-64.338 34.616-99.338-1.83-5.934-.76-9.396 7.321-5.818 12.723 5.641 24.527 15.457 31.059 27.906-6.772-30.215-32.262-48.445-43.133-42.391-13.961 7.775-11.008 21.83-7.936 35.502 3.6 16.016 2.371 29.494-2.244 41.529-10.54 27.463-15.143 19.947-27.891 6.701-4.664-4.854-9.789-9.314-14.636-13.576-17.162-15.086-17.303-28.338-22.176-48.426-2.922-12.033-14.871-21.395-27.588-14.816-12.252 6.338-21.314 24.834-21.088 47.666 3.945-14.264 12.514-27.104 25.514-34.43z" fill="#f2ae79"/><path d="m684.349 378.762c-17.105 13.666-23.267 37.826-34.217 55.836-7.766 12.766-18.147 23.895-28.529 34.541-17.648 18.107-12.633 23.359 4.531 20.779 20.914-3.146 42.51-13.678 59.227-23.18 25.389-14.428 47.137-37.816 49.23-67.924 2.291-32.947-29.68-36.482-50.242-20.052z" fill="#fff6ce"/><path d="m389.326 475.656c-11.545-6.912-22.34-14.943-31.952-24.641-15.171-15.314-22.81-33.779-32.255-52.738-7.086-14.223-16.277-26.32-32.416-29.746-10.932-2.318-22.713 5.68-25.871 16.039-9.211 30.189 6.625 57.238 31.756 73.396 11.076 7.119 51.251 27.727 86.461 33.217 19.763 3.081 17.31-7.726 4.277-15.527z" fill="#fff6ce"/><g fill="#ee6200"><path d="m411.645 602.25c-7.604-25.916-6.526-53.684 9.663-76.156-4.072-.529-8.163-1.141-12.262-1.793-5.771 13.811-7.141 29.588-6.268 44.268.603 10.148 3.054 23.562 8.867 33.681z"/><path d="m598.14 690.717c12.688-20.639 19.256-43.514 23.09-67.148-18.795 54.277-32.534 64.996-93.943 69.127 23.631.335 47.786 1.499 70.853-1.979z"/><path d="m309.486 275.643c29.568-21.545 79.785-49.801 115.186-23.799 20.438 15.01 26.469 45.666 32.729 68.756 13.024 48.018 22.446 96.979 31.333 145.906 5.861-.281 11.486-.195 16.328-.004 2.183.086 4.912.164 7.922.289 9.143-50.432 18.5-101.209 32.594-150.531 5.74-20.09 11.664-52.586 31.521-64.416 37.986-22.629 83.525-.313 115.186 23.799 19.316 14.711 39.279 31.789 56.646 50.818-4.668-7.137-10.477-13.727-15.646-19.93-14.677-17.604-31.568-33.291-49.972-46.924-32.876-24.357-68.818-43.262-107.987-20.531-26.35 15.293-46.6 86.145-58.078 141.463-15.795 76.139-18.869 87.52-34.855-.527-8.311-45.766-18.221-127.613-61.629-146.113-41.337-17.619-92.596 14.094-122.66 40.143-16.855 14.604-31.176 31.545-43.127 50.027 16.743-18.272 35.69-34.712 54.509-48.426z"/><path d="m714.647 631.26c47.919 36.592 46.139 111.975 9.802 152.896-31.349 35.316-87.038 65.096-146.308 65.59-26.83.221-52.523-2.615-35.801-22.223 5.52-6.467 12.175-15.416 15.523-24.332-14.854 18.354-33.127 33.689-55.113 42.396 14.369 4.926 29.238 8.865 44.297 11.262 27.303 4.352 68.896-.039 98.27-9.404 54.289-17.307 107.038-55.631 115.908-116.109 6.032-41.119-12.272-81.811-46.578-100.076z"/><path d="m245.275 226.504c7.232 9.996 14.811 20.268 24.322 28.25 2.982-4.041 5.947-8.1 9.025-12.01-15.193-14.543-69.271-73.662-70.336-102.328-4.141 13.887 4.768 35.359 9.508 44.813 7.405 14.767 17.834 27.943 27.481 41.275z"/><path d="m785.581 128.078c34.443 21.168-65.096 115.225-67.336 116.855 2.217 2.947 5.926 8.246 9.813 13.91 25.075-28.508 51.37-56.807 65.962-92.381 3.944-9.611 7.344-21.869 1.592-31.389-2.363-3.909-5.943-6.012-10.031-6.995z"/><path d="m462.041 698.139c-15.988-2.002-46.426 8.463-72.4-58.533 1.609 9.121 3.543 18.107 6.16 26.998 5.045 17.125 12.057 33.449 19.83 49.48 14.71-8.52 30.245-14.244 46.41-17.945z"/><path d="m360.705 774.496c7.739-15.994 18.818-30.457 32.483-42.426-8.345 3.045-16.312 7.5-23.938 11.672-13.219 7.227-26.242 9.854-38.242-1.014-11.234-10.176-17.004-26.658-19.879-42.881 1.238 32.557 14.257 61.376 49.576 74.649z"/><path d="m535.152 661.799c11.089-10.504 19.856-23.455 25.45-37.645 5.188-13.154 7.254-29.518 4.482-44.451-2.836-2.107-5.822-3.994-8.912-5.563 7.626 29.551-.819 64.092-21.02 87.659z"/><path d="m502.884 658.754c-8.394-15.559-27.603-25.945-39.672-38.402-11.864-12.246-15.983-25.676-14.962-41.787-1.386.844-2.713 1.758-3.982 2.734-.17 16.809 2.355 31.721 15.274 44.619 12.872 12.85 31.364 19.377 43.342 32.836z"/><path d="m594.196 592.459c14.135-16.25 8.4-50.514-4.525-68.398-3.836.701-7.682 1.35-11.529 1.93 16.593 18.044 20.156 42.566 16.054 66.468z"/></g><path d="m504.274 139.926c87.117 2.398 160.239 66.422 218.35 128.736-53.197-79.287-136.637-147.846-228.57-144.287-69.602 2.693-131.605 42.123-177.838 92.258-10.941 11.863-22.229 24.938-33.045 38.861 58.715-60.967 134.701-117.945 221.103-115.568z" fill="#f9ca1a"/><path d="m154.083 107.631c2.412-16.732 13.492-24.123 29.674-25.211 19.121-1.289 38.739 5.313 56.842 10.662 12.205 3.607 24.002 7.424 35.582 12.783 30.85 14.279 55.371 36.17 78.883 60.006 6.285-4.836 12.721-9.469 19.334-13.807-28.304-31.369-65.25-54.045-105.871-65.902-22.698-6.627-46.01-11.254-69.686-12.336-12.76-.582-28.298-2.555-40.77.773-14.637 3.906-14.238 15.6-11.732 28.01 1.939 9.615 4.508 19.076 7.535 28.395-.785-7.785-.908-15.625.209-23.373z" fill="#f9ca1a"/><path d="m667.398 683.375c-16.536 13.51-41.235 16.635-61.732 18.309-4.491.365-8.995.639-13.503.855-18.035 1.646-36.303 1.273-52.025 1.246-38.152-.066-80.367-.713-114.326 19.354-3.81 2.254-7.563 4.678-11.236 7.242 15.861-6.057 32.994-9.428 49.877-10.799 34.828-7.213 71.759-3.715 107.386-3.957 28.578-.193 84.103 2.111 95.559-32.25z" fill="#f9ca1a"/><path d="m392.714 521.383c-3.934-.785-7.869-1.607-11.799-2.51-20.32 20.561-36.337 48.297-47.982 77.563-4.143 12.766-7.535 25.734-8.581 39.459-.985 12.93.349 25.453 2.88 37.787.773-28.881 6.335-56.158 19.33-83.541 6.865-14.471 15.705-27.658 24.896-40.713 6.821-9.688 13.334-19.416 21.256-28.045z" fill="#f9ca1a"/><path d="m637.536 677.227c52.776-33.748 27.258-116.67-13.764-159.568-.365-.379-.643-.775-.879-1.178-2.867.781-5.75 1.504-8.633 2.225 19.374 18.797 31.982 43.447 39.596 69.355 4.768 16.219 7.637 33.857 5.026 50.688-2.338 15.06-11.047 27.675-21.346 38.478z" fill="#f9ca1a"/><path d="m826.577 72.326c-33.742-3.086-87.813 10.883-102.479 15.975-39.003 13.543-73.583 34.723-100.938 65.787 7.834 5.219 15.428 10.775 22.821 16.586 20.935-33.869 54.807-59.57 89.987-77.174 28.96-14.49 59.447-21.461 90.609-21.174z" fill="#f9ca1a"/><path d="m759.713 177.82c4.136-6.691 9.71-14.578 13.872-22.6-22.035 5.84-42.999 19.857-60.822 33.564-8.313 6.393-16.543 13.357-24.326 20.793 7.951 8.438 15.563 17.201 22.786 26.281 18.714-16.905 35.225-36.569 48.49-58.038z" fill="#7a2537"/><path d="m299.724 194.686c-12.086-9.822-26.785-15.867-41.336-20.994-8.553-3.012-17.578-6.307-26.668-9.139 3.762 6.709 7.699 13.318 12.066 19.654 12.395 17.992 26.137 34.676 42.125 49.518 3.924-4.746 7.895-9.398 11.906-13.91 4.256-4.785 8.678-9.518 13.19-14.203-3.824-4.313-7.763-8.069-11.283-10.926z" fill="#7a2537"/><path d="m346.757 780.75c-8.228 9.156-21.157 13.682-33.504 11.229.291 1.523.834 3.041 1.732 4.531 6.692 11.078 20.807 12.316 32.51 11.639.896-.053 1.678.076 2.355.332 1.338-8.027 3.426-15.891 6.295-23.482-3.302-1.29-6.401-2.726-9.388-4.249z" fill="#80391c"/><path d="m533.083 520.037c2.297-2.506 7.23-7.975 11.118-13.936 7.313-11.215 4.607-18.576-4.558-22.646 4.727 11.207-.439 18.955-7.65 26.795-10.225 11.113-29.709 17.945-44.037 14.922-17.49-3.689-31.662-26.48-20.281-44.156-12.494 4.934-15.995 14.201-10.711 26.59 3.982 9.336 11.891 17.85 18.707 23.6 19.858 16.753 42.119 5.538 57.412-11.169z" fill="#80391c"/><path d="m516.196 487.861c-12.701-1.479-33.373-.496-35.193 6.123-1.428 5.193 5.352 8.568 8.828 10.566 5.99 3.441 11.949 3.736 18.548 2.119 2.926-.715 8.414-2.357 12.666-4.916 8.009-4.817 11.596-11.978-4.849-13.892z" fill="#f4985a"/><path d="m728.464 774.818c20.422-17.561 30.892-54.607 18.709-79.422-.086-.174-.39-.098-.369.098 1.385 13.512 1.516 25.801-1.875 39.102-3.592 14.084-11.398 26.389-17.484 39.438-.313.669.447 1.275 1.019.784z" fill="#68182b"/><path d="m717.805 789.34c1.131-.393 2.163-.398 3.27-.914.909-.424 1.887-1.77 2.413-2.6 1.225-1.926 2.385-4.127 1.637-6.443-.117-.357-.533-.563-.873-.355-1.704 1.041-2.973 2.617-4.385 4.006-.654.645-1.475 1.445-1.942 2.242-.62 1.061-.483 2.199-.87 3.314-.15.426.323.9.75.75z" fill="#68182b"/><path d="m369.642 196.289c13.703-9.596 25.891-19.768 40.912-27.498 17.481-8.994 36.531-14.994 55.773-18.787 39.359-7.75 78.811.113 116.416 12.566.836.279 1.223-.895.568-1.348-33.406-23.037-76.746-26.826-115.853-19.576-19.947 3.699-39.304 10.672-57.234 20.105-14.824 7.801-32.439 19.172-41.319 33.799-.271.444.283 1.055.737.739z" fill="#68182b"/><path d="m592.835 167.465c.982.49 1.909 1.076 2.797 1.721 1.203.873 2.38 1.188 3.729 1.775.414.18.927-.111.792-.609-.803-2.969-2.431-4.719-5.376-5.832-.761-.287-6.002-1.82-5.848.219.113 1.47 2.784 2.165 3.906 2.726z" fill="#68182b"/><path d="m305.294 111.268c.76.119 1.131-.756.514-1.217-14.833-11.074-35.147-15.426-52.898-19.404-18.061-4.045-39.687-8.018-58.045-5.068-.316.053-.268.508 0 .59 18.029 5.498 38.029 5.932 56.563 9.859 18.228 3.865 35.54 12.378 53.866 15.24z" fill="#68182b"/><path d="m312.935 115.883c.578.291 1.1.691 1.662 1.012.641.367 1.547.332 2.254.549.35.109.748-.258.62-.619-.747-2.107-1.374-3.014-3.497-3.949-1.684-.742-3.133-.607-4.609.396-.18.123-.162.342 0 .467 1.156.888 2.256 1.486 3.57 2.144z" fill="#68182b"/><path d="m741.245 97.818c-29.035-.369-65.313 17.014-83.787 39.547-.313.379.076.971.543.705 12.432-7.063 24.084-15.176 36.924-21.557 14.699-7.305 30.802-12.58 46.512-17.281.779-.234.628-1.404-.192-1.414z" fill="#68182b"/><path d="m746.147 97.107c-.165.178-.158.498.078.621 3.375 1.729 8.479.402 10.994-2.213.256-.266.242-.785-.125-.961-3.423-1.638-8.396-.238-10.947 2.553z" fill="#68182b"/></g></g></svg>