<svg id="Layer_1" height="512" viewBox="0 0 128 128" width="512" xmlns="http://www.w3.org/2000/svg" data-name="Layer 1"><path d="m115.625 107.3a5.139 5.139 0 0 0 .567-1.266 2.7 2.7 0 0 0 -.434-2.393 2.756 2.756 0 0 0 -2.194-1.1 2.722 2.722 0 0 0 -.976.18l-14.34 5.451c3.349-4.53 4.5-7.863 3.415-9.95-.477-.915-1.573-2.656-3.352-5.321-2.884-4.32-6.783-9.909-8.368-12.174a20.856 20.856 0 0 0 3.449-13.052 11.558 11.558 0 0 0 2.492-7.445c-.184-4.888-4.884-11.172-7.91-14.73 12.114-3.134 19.487-9.191 19.487-16.223 0-3.973-2.346-7.668-6.807-10.753a12.463 12.463 0 0 0 .346-2.924 12.6 12.6 0 0 0 -24.39-4.428c-2.1-.173-4.218-.26-6.324-.26s-4.225.087-6.323.26a12.6 12.6 0 0 0 -24.392 4.428 12.448 12.448 0 0 0 .348 2.922c-4.461 3.086-6.808 6.781-6.808 10.754 0 5.683 5.007 10.844 13.472 14.249a26.727 26.727 0 0 0 -7.335-1.154 14.552 14.552 0 0 0 -6.5 1.392 15.456 15.456 0 0 0 -8.3 9.846 15.98 15.98 0 0 0 2.807 13.164c2.643 3.793 4.938 5.485 7.442 5.485a7.389 7.389 0 0 0 2.629-.566 3.386 3.386 0 0 1 .947-.256h.027a8.65 8.65 0 0 1 2 1.022 4.547 4.547 0 0 0 2.513.956 3.131 3.131 0 0 0 1.986-.726 29.82 29.82 0 0 0 1.766 4.059c-.286.246-.563.494-.83.747-.448.421-.9.888-1.38 1.425a22.442 22.442 0 0 0 -5.027 9.386 25.7 25.7 0 0 0 -.571 2.837 33.383 33.383 0 0 0 -.055 8.374c.03.3.059.548.069.718-.411 1.4-3.775 7.385-7.182 13.059-3.059-3.392-7.585-8.156-9.5-8.893a3.48 3.48 0 0 0 -1.261-.25 2.783 2.783 0 0 0 -1.89.716 4.793 4.793 0 0 0 -2.87-1 4.535 4.535 0 0 0 -1.61.3 3.679 3.679 0 0 0 -2.319 2.473 5.915 5.915 0 0 0 .618 4 3.6 3.6 0 0 0 -.834.921c-.541.862-.96 2.352.108 4.562 2.092 4.326 15.856 8.878 20.957 8.878a4.643 4.643 0 0 0 3.694-1.293 24.581 24.581 0 0 0 2.368-3.562l.549-.937a50.568 50.568 0 0 1 2.991-4.73 11.2 11.2 0 0 1 1.107-1.285 2.821 2.821 0 0 1 .867-.643c3.564-1.358 3.6-3.93 3.627-5.809a11.82 11.82 0 0 1 .171-2.176c.31-1.417 4.682-6.52 9-10.923a18.746 18.746 0 0 0 11.059 3.8 19.72 19.72 0 0 0 10.879-3.511 16.363 16.363 0 0 0 10.211 8.556c-.468.659-.985 1.424-1.517 2.273-.621.99-1.2 1.992-1.716 2.98a35.261 35.261 0 0 0 -1.582 3.441c-.34.852-.618 1.649-.849 2.43-.713 2.389-.584 4.185.391 5.494a4.713 4.713 0 0 0 4.028 1.721 28.184 28.184 0 0 0 7.588-1.687l1.115-.35a117.481 117.481 0 0 1 13.246-2.8 2.737 2.737 0 0 0 2.266-3.106l2.388-.907a2.741 2.741 0 0 0 .757-4.685zm-64.9-62.329-.022.024-.276-.115zm-7.033 13.202a2.8 2.8 0 0 0 -1.978-.754 4.078 4.078 0 0 0 -.922.111 8.434 8.434 0 0 0 -4.826 3.027 4.512 4.512 0 0 1 -.514-3.481c.639-2.087 3.106-5.026 6.586-5.026a7.762 7.762 0 0 1 3.381.845 25.654 25.654 0 0 0 -1.727 5.278z" fill="#fff"/><path d="m51.988 47.879s-11.032-5.862-18.32-2.25-10.244 12-4.7 19.952 7.274 2.961 10 3.88 3.418 2.608 4.632 1.513c1.727-1.557-.988-3.319-.988-3.319s2.673-1.519 1.688-3.655c-.641-1.387-2.95-.755-2.95-.755s2.553-4.289-.091-3.684a6.817 6.817 0 0 0 -4.947 4.763s-4.159-3.587-2.85-7.857 8.072-10.732 16.879-2.638" fill="#40a06d"/><path d="m114.037 108.785-3.053-.671c2.184-.62 2.951-1.787 3.208-2.668a.653.653 0 0 0 -.864-.783l-21.9 8.325c.28-.3 10.027-10.64 8.385-13.806-.482-.925-1.72-2.854-3.238-5.128-3.375-5.054-8.128-11.838-9.053-13.154-.105-.15-.163-.228-.163-.228 9.962-11.845-1.935-32.036-1.935-32.036l-3.043-9.727-22.216-2.273-7.716 9.537c-14.049 15.044-3.186 31.078-3.186 31.078-.058.039-.111.085-.163.124a20.739 20.739 0 0 0 -8.287 14.067 37.725 37.725 0 0 0 .039 8.939c-.033 1.844-8.952 16.405-8.952 16.405s-8.418-9.616-10.568-10.444-1.264 3.408-1.264 3.408-1.987-4.737-4.867-3.642.671 5.609.671 5.609-3.688-.065-1.968 3.493 19.032 9.6 21.208 7.128a23.591 23.591 0 0 0 2.143-3.252c1.5-2.541 3.226-5.675 4.978-7.375a4.809 4.809 0 0 1 1.59-1.108c3.2-1.218 1.87-3.277 2.495-6.443s10.868-13.292 10.868-13.292c12.347 10.314 23.114-.368 23.114-.368 2.411 9.7 12.848 10.672 12.848 10.672a41.822 41.822 0 0 0 -3.388 4.7 37.649 37.649 0 0 0 -3.127 6.085c-.293.736-.56 1.486-.788 2.254-2.092 7.017 5.264 4.216 10.509 2.593a119.226 119.226 0 0 1 13.53-2.861.652.652 0 0 0 .362-1.1l-.939-.973 4.826-1.834a.653.653 0 0 0 -.096-1.251z" fill="#54b27c"/><g fill="#40a06d"><path d="m96.578 94.054a4 4 0 0 1 -.476 1.03 3.244 3.244 0 0 1 -2.866 1.557 3.852 3.852 0 0 1 -2.945-2.3 26.767 26.767 0 0 1 -1.232-3.7c-.534-1.609-1.368-3.1-1.876-4.717-.424-1.355-.88-3.935.339-5.023.925 1.315 5.678 8.099 9.056 13.153z"/><path d="m47.556 82.691a5.827 5.827 0 0 0 -2.339 2.5c-.7 1.9.548 4.372-.788 5.9a2.993 2.993 0 0 1 -3.616.352 20.739 20.739 0 0 1 8.287-14.068 1.905 1.905 0 0 1 1.147 1.5c.274 1.751-1.453 2.956-2.691 3.816z"/><path d="m42.233 111.711c-1.752 1.7-3.479 4.834-4.978 7.375a.5.5 0 0 1 -.1-.026c-1.7-.619-.372-4.248 0-5.355a3.545 3.545 0 0 1 1.042-1.812 3.657 3.657 0 0 1 2.3-.475 4.525 4.525 0 0 1 1.736.293z"/><path d="m92.35 108.545a2.024 2.024 0 0 1 -.958 1.25 15.432 15.432 0 0 1 -1.447.717 6.38 6.38 0 0 0 -2.313 2.013c-.117.17-.247.365-.456.391-.391.046-.547-.488-.547-.886v-.078a37.649 37.649 0 0 1 3.127-6.085c.157.065.313.137.476.2a4.587 4.587 0 0 1 1.518.886 1.841 1.841 0 0 1 .6 1.592z"/><path d="m82.944 80.9c-3.3 4.495-10.1 9.755-15.592 8.816-4.769-.814-18.811-7.008-17.008-27.275 1.256-14.152 12.035-21.053 12.341-22.734.007-.046 18.837 2.333 18.837 2.333 1.2 4.633 4.664 15.808 4.82 20.584.183 5.571-.094 13.787-3.398 18.276z"/></g><g fill="#54b27c"><path d="m84.053 44.255s9.512 9.78 9.75 16.05-6.47 11.224-11.941 11.789-7.971-2.021-7.971-2.021-1.594 2.122-3.312 1.26 2.243-3.682-2.69-1.757c-2.1.821-2.831-2.46-1.26-3.311s3.158-.661 3.273-1.5c.2-1.48-2.066-1.449-1.51-2.836.767-1.914 5.586.4 7.713 3 0 0 9.954 1.673 11.177-5.741l-3.453-9.569z"/><ellipse cx="70.287" cy="29.275" rx="35.092" ry="16.281"/><circle cx="52.17" cy="15.599" r="10.515" transform="matrix(.383 -.924 .924 .383 17.794 57.828)"/></g><circle cx="52.17" cy="15.599" fill="#fff" r="7.995"/><circle cx="52.17" cy="16.868" fill="#4d4d4d" r="4.963"/><circle cx="88.403" cy="15.599" fill="#54b27c" r="10.515" transform="matrix(.383 -.924 .924 .383 40.161 91.304)"/><circle cx="88.403" cy="15.599" fill="#fff" r="7.995"/><circle cx="88.403" cy="16.868" fill="#4d4d4d" r="4.963"/><path d="m69.772 35.929a75.616 75.616 0 0 1 -25.71-4.5.45.45 0 0 1 .3-.847c16.517 5.933 33.963 5.931 51.852 0a.449.449 0 1 1 .283.853 84.646 84.646 0 0 1 -26.725 4.494z" fill="#333"/></svg>