<svg id="Layer_1" height="512" viewBox="0 0 128 128" width="512" xmlns="http://www.w3.org/2000/svg" data-name="Layer 1"><path d="m105.282 67.543c.816-2.038 2.046-6 1.12-9.644a2.613 2.613 0 0 0 -2.324-1.962l-1.111-2.531a2.633 2.633 0 0 0 -3.45-1.359l-.283-.346a2.612 2.612 0 0 0 -2.03-.968 2.642 2.642 0 0 0 -2 .919 2.6 2.6 0 0 0 -.384.595 2.646 2.646 0 0 0 -1.267 1.086 2.6 2.6 0 0 0 -.219 2.235 2.627 2.627 0 0 0 -.514 3.374l.117.187a2.428 2.428 0 0 0 -.24 3.524l1.586 1.715a2.618 2.618 0 0 0 .714 2.6l2.445 2.345c.081.077.165.153.251.225.023.063.048.126.073.193.878 2.229.773 4.095-.327 5.656-.7-.611-1.433-1.212-2.189-1.791q-.882-.674-1.779-1.284t-1.8-1.162c-1.169-.711-2.392-1.376-3.633-1.975a45.081 45.081 0 0 0 -9.639-3.353 51.035 51.035 0 0 0 -8.086-1.17c-1.132-.072-2.282-.108-3.418-.108-1.738 0-3.26.084-4.5.193-1.8-10.757-5.269-31.533-5.681-33.8l-.2-1.13c-1.242-6.807-2.214-12.229-5.314-15.378.309-.629.612-1.329.979-2.176l.316-.727a7.932 7.932 0 0 0 .767-3.465 3.7 3.7 0 0 0 -3.723-3.527 3.66 3.66 0 0 0 -1.63.38 11.572 11.572 0 0 0 -2.773 1.908 3.969 3.969 0 0 0 -4.043-3.822 4.029 4.029 0 0 0 -3.1 1.417 4.035 4.035 0 0 0 -2.733-1.059 4.193 4.193 0 0 0 -.858.089 3.962 3.962 0 0 0 -3.152 4.621 3.813 3.813 0 0 0 1.681 2.411c.228.9.427 1.944.6 2.943a13.164 13.164 0 0 0 -4.931 7.952 7.377 7.377 0 0 0 .043 2.613.933.933 0 0 1 -.19.586 6.269 6.269 0 0 1 -2.311 1.979 9.5 9.5 0 0 0 -4.876 8.107 8.228 8.228 0 0 0 4.04 7.141 9.542 9.542 0 0 0 5.013 1.3 13.184 13.184 0 0 0 1.513-.09 14.861 14.861 0 0 0 6.168-2.21 15.735 15.735 0 0 0 2.142-1.628l.39-.354.582-.514.894-.807c.136 6.3.545 12.732 1.221 19.188-.552 2.853-4.189 22.7-.924 32.932-1.388 6.863-2.689 16.479-1.529 25.007-1.493 1.606-1.953 3.04-1.37 4.27.35.738 1.186 1.617 3.185 1.617a10.023 10.023 0 0 0 4.266-1.018c1.022-.538 2.067-1.632 3.443-7.4.47 1.857.892 3.479 1.29 4.733-.063.089-.141.193-.2.273a2.907 2.907 0 0 0 -.725 2.625c.268.927 1.154 2.482 4.068 2.482.389 0 .768-.025 1.09-.048.15-.01.279-.022.419-.023a4.644 4.644 0 0 0 3.216-1.512 5.924 5.924 0 0 0 1.325-4.61 125.366 125.366 0 0 0 -2.288-15.945 20.4 20.4 0 0 0 1.743-2 51.414 51.414 0 0 0 16.916 4.424 64.45 64.45 0 0 0 -.023 15.155 3.426 3.426 0 0 0 -1.213 3.486c.478 1.4 1.991 2.231 4.048 2.231a7.1 7.1 0 0 0 3.256-.771c1.018-.535 2.468-1.3 4.665-13.318l2.63 9.142a5.557 5.557 0 0 1 -.4.691 3.9 3.9 0 0 0 -.824 3.095 3.842 3.842 0 0 0 3.957 2.797 7.052 7.052 0 0 0 5.195-2.5 8.428 8.428 0 0 0 1.829-6.982l-.014-.105-3.028-12.332a53.166 53.166 0 0 0 4.2-16.433c4.915-4.781 4.182-13.651 3.393-18.217a5.073 5.073 0 0 0 .457-.888z" fill="#fff"/><path d="m61.419 71.663-13.419 2.959a220.687 220.687 0 0 1 -3.95-41.794l-4.34 3.917-.564.5-.413.376a13.837 13.837 0 0 1 -1.842 1.4 12.733 12.733 0 0 1 -5.307 1.917 8.15 8.15 0 0 1 -5.195-.93c-4.368-2.631-3.936-8.849.817-11.649a8.223 8.223 0 0 0 3.044-2.705 2.9 2.9 0 0 0 .46-2.011 5.378 5.378 0 0 1 -.047-1.9 11.14 11.14 0 0 1 4.585-7c4.922-3.607 11.357-1.8 14.288.987s3.8 8.374 5.11 15.584c.554 3.063 6.773 40.349 6.773 40.349z" fill="#f1b845"/><g fill="#df9d4f"><path d="m102.566 67.74c-.9-4.465-5.957-6.658-2.855 1.226s-4.679 10.862-4.679 10.862l2.8 6.833c7.011-3.329 5.592-14.671 4.734-18.921z"/><path d="m43 115.363s-2.066 1.872-1.706 2.63 3.145.4 4.584-.358c2.878-1.515 6.21-29.527 6.21-29.527l-6.21-4.553s-5.147 17.873-2.878 31.808z"/><path d="m82.244 86.661s-5.144 17.874-2.877 31.809c0 0-1.7 1.3-1.471 1.987.306.893 2.717 1.143 4.348.285 2.878-1.515 6.211-29.528 6.211-29.528z"/></g><path d="m95.032 102.9c3.493-8.032 4.883-15.988 4.181-20.269a9.565 9.565 0 0 0 -3.129-5.643q-1.044-.915-2.107-1.725a39.8 39.8 0 0 0 -6.856-4.2 42.9 42.9 0 0 0 -9.2-3.2 48.812 48.812 0 0 0 -7.749-1.121 45.389 45.389 0 0 0 -10.854.5l-13.975-10.471s-5.334 26.445.222 35.014c4.06 6.246 6.419 19.552 8.107 24.677.406 1.244-1.146 2.162-1 2.679.388 1.343 2.716.9 3.523.9 0 0 2.779-.056 2.495-3.875a123.356 123.356 0 0 0 -2.49-16.792 20.792 20.792 0 0 0 3.372-4.032c13.294 6.985 27.933 5.054 27.933 5.054l5.008 17.409c.591 1.595-1.448 2.876-1.195 3.9.659 2.68 7.841.951 6.879-5.895z" fill="#f3bd53"/><g fill="#cc7b43"><path d="m49.067 41.448a1.179 1.179 0 0 0 .465.323 2.317 2.317 0 0 0 .613.224.6.6 0 0 0 .444-.073.813.813 0 0 0 .254-.423 1.374 1.374 0 0 0 .03-1.208c-.232-.341-1.267-.78-1.592-.455a1.7 1.7 0 0 0 -.214 1.612z"/><path d="m47.033 34.818a1.279 1.279 0 0 0 -.569.232 2.461 2.461 0 0 0 -.566.425.65.65 0 0 0 -.2.447.883.883 0 0 0 .234.481c.279.358.626.751 1.08.741s1.458-.692 1.354-1.179a1.844 1.844 0 0 0 -1.333-1.147z"/><path d="m45.889 39.755a1.008 1.008 0 0 0 .4.28 1.964 1.964 0 0 0 .53.194.526.526 0 0 0 .384-.063.7.7 0 0 0 .22-.367 1.192 1.192 0 0 0 .026-1.044c-.2-.3-1.1-.674-1.377-.393a1.469 1.469 0 0 0 -.183 1.393z"/><path d="m45.1 42.71a.5.5 0 0 0 .2.14.982.982 0 0 0 .265.1.256.256 0 0 0 .192-.032.338.338 0 0 0 .11-.183.593.593 0 0 0 .013-.522c-.1-.147-.548-.337-.688-.2a.736.736 0 0 0 -.092.697z"/><path d="m45.39 46.94a.5.5 0 0 0 .2.14.982.982 0 0 0 .265.1.26.26 0 0 0 .192-.032.354.354 0 0 0 .11-.183.6.6 0 0 0 .013-.522c-.1-.147-.548-.337-.689-.2a.736.736 0 0 0 -.091.697z"/><path d="m46.418 53.948a.494.494 0 0 0 .2.14.982.982 0 0 0 .265.1.256.256 0 0 0 .192-.032.35.35 0 0 0 .11-.183.6.6 0 0 0 .013-.522c-.1-.147-.548-.337-.689-.2a.736.736 0 0 0 -.091.697z"/><path d="m50.37 46.954a1.53 1.53 0 0 0 .606.422 2.994 2.994 0 0 0 .8.292.79.79 0 0 0 .579-.095 1.065 1.065 0 0 0 .332-.552 1.8 1.8 0 0 0 .039-1.575c-.3-.445-1.653-1.017-2.077-.593a2.218 2.218 0 0 0 -.279 2.101z"/><path d="m53.369 60.533a1.642 1.642 0 0 0 .623.558 2.684 2.684 0 0 0 .821.386.66.66 0 0 0 .595-.126 1.516 1.516 0 0 0 .34-.73 2.994 2.994 0 0 0 .041-2.083c-.312-.587-1.7-1.344-2.134-.783a3.65 3.65 0 0 0 -.286 2.778z"/><path d="m49.621 65.082a3.141 3.141 0 0 0 .108 1.505 6.126 6.126 0 0 0 .563 1.644 1.608 1.608 0 0 0 .895.8 2.168 2.168 0 0 0 1.3-.182c1.048-.379 2.23-.892 2.55-1.959.316-1.052-.507-3.928-1.724-4.057-1.113-.122-3.405 1.15-3.692 2.249z"/><path d="m48.283 77.378a3.14 3.14 0 0 0 .108 1.5 6.126 6.126 0 0 0 .563 1.644 1.608 1.608 0 0 0 .895.8 2.168 2.168 0 0 0 1.3-.182c1.048-.378 2.23-.891 2.55-1.959.316-1.052-.507-3.927-1.724-4.057-1.11-.117-3.405 1.156-3.692 2.254z"/><path d="m45.062 64.137a1.422 1.422 0 0 0 .049.683 2.771 2.771 0 0 0 .255.745.729.729 0 0 0 .406.361.989.989 0 0 0 .59-.082c.475-.172 1.011-.405 1.157-.889s-.23-1.781-.782-1.84a2.054 2.054 0 0 0 -1.675 1.022z"/><path d="m81.706 77.66a2.106 2.106 0 0 0 .073 1.015 4.168 4.168 0 0 0 .379 1.109 1.084 1.084 0 0 0 .6.537 1.465 1.465 0 0 0 .878-.123c.707-.255 1.5-.6 1.721-1.321s-.343-2.65-1.164-2.738a3.054 3.054 0 0 0 -2.487 1.521z"/><path d="m45.539 70.307a1.692 1.692 0 0 0 .059.818 3.309 3.309 0 0 0 .3.893.878.878 0 0 0 .487.433 1.182 1.182 0 0 0 .707-.1c.569-.206 1.212-.485 1.386-1.065s-.276-2.134-.937-2.2a2.456 2.456 0 0 0 -2.002 1.221z"/><path d="m93.977 75.263c-.548 1.417-2.181 2.126-3.641 2.649a3.121 3.121 0 0 1 -1.891.265 2.336 2.336 0 0 1 -1.306-1.158 8.956 8.956 0 0 1 -.819-2.4 4.492 4.492 0 0 1 -.154-2.187 3.087 3.087 0 0 1 .955-1.374 39.8 39.8 0 0 1 6.856 4.205z"/><path d="m76.921 86.887a1.9 1.9 0 0 0 .066.915 3.75 3.75 0 0 0 .342 1 .979.979 0 0 0 .545.484 1.319 1.319 0 0 0 .791-.111c.638-.23 1.357-.542 1.552-1.191s-.309-2.39-1.049-2.469a2.754 2.754 0 0 0 -2.247 1.372z"/><path d="m83.83 82.969a4.61 4.61 0 0 0 .37 1.941 10.443 10.443 0 0 0 .947 2.192 2.864 2.864 0 0 0 1.21 1.163 2.324 2.324 0 0 0 1.544-.022c1.206-.314 2.551-.778 2.766-2.091.211-1.293-1.25-5.1-2.742-5.465-1.358-.331-3.925.924-4.095 2.282z"/><path d="m91.163 80.464a3.14 3.14 0 0 0 .058 1.549 5.916 5.916 0 0 0 .528 1.676 1.521 1.521 0 0 0 .909.789 2.37 2.37 0 0 0 1.37-.237c1.113-.429 2.371-1 2.746-2.116.369-1.1-.386-4.035-1.657-4.124-1.16-.08-3.612 1.318-3.954 2.463z"/><path d="m64.454 81.756a3.308 3.308 0 0 0 .267 1.387 7.529 7.529 0 0 0 .679 1.567 2.055 2.055 0 0 0 .865.831 1.659 1.659 0 0 0 1.1-.016c.862-.224 1.824-.556 1.977-1.494s-.893-3.647-1.959-3.907c-.973-.236-2.808.661-2.929 1.632z"/><path d="m57.7 80.008a2.352 2.352 0 0 0 .19.988 5.348 5.348 0 0 0 .482 1.116 1.46 1.46 0 0 0 .616.592 1.181 1.181 0 0 0 .786-.011c.614-.16 1.3-.4 1.409-1.065s-.636-2.6-1.4-2.782c-.683-.169-1.994.47-2.083 1.162z"/><path d="m47.093 59.8a2.712 2.712 0 0 0 1.071.745 5.317 5.317 0 0 0 1.411.515 1.387 1.387 0 0 0 1.022-.169 1.866 1.866 0 0 0 .585-.974 3.169 3.169 0 0 0 .07-2.78c-.536-.784-2.917-1.794-3.666-1.046-.686.686-1.075 2.921-.493 3.709z"/><path d="m46.9 51.024a2.16 2.16 0 0 0 .857.6 4.237 4.237 0 0 0 1.131.413 1.118 1.118 0 0 0 .819-.135 1.5 1.5 0 0 0 .468-.78 2.539 2.539 0 0 0 .056-2.227c-.429-.628-2.337-1.437-2.936-.838a3.131 3.131 0 0 0 -.395 2.967z"/><path d="m46.949 44.977a1.157 1.157 0 0 0 .457.318 2.276 2.276 0 0 0 .6.22.6.6 0 0 0 .437-.072.8.8 0 0 0 .25-.416 1.351 1.351 0 0 0 .029-1.188c-.228-.335-1.246-.766-1.566-.447a1.673 1.673 0 0 0 -.207 1.585z"/></g><path d="m87.509 100.4s-14.706 1.961-28-5.024l2.378-3.3s2.6 5.155 21.756 4.071c0 0 .172 1.302 3.866 4.253z" fill="#e6e6e6"/><ellipse cx="34.996" cy="22.053" fill="#534741" rx=".88" ry="1.123"/><path d="m37.089 6.848a1.942 1.942 0 0 0 -3.789.791 1.771 1.771 0 0 0 1.381 1.338 53.6 53.6 0 0 1 1.44 7.5l1.919-.4c-.833-2.638-1.9-5.521-1.907-7.3a1.8 1.8 0 0 0 .956-1.929z" fill="#f1b845"/><path d="m39.174 36.538a4.291 4.291 0 0 1 -.028.705l-.413.376a13.837 13.837 0 0 1 -1.842 1.4 12.733 12.733 0 0 1 -5.307 1.917 8.15 8.15 0 0 1 -5.195-.93c-4.368-2.631-3.936-8.849.817-11.649a8.223 8.223 0 0 0 3.044-2.705 11.3 11.3 0 0 1 8.924 10.886z" fill="#df9d4f"/><ellipse cx="26.211" cy="34.12" fill="#cc7b43" rx="1.154" ry="1.723"/><path d="m104.373 58.413a.533.533 0 0 0 -.878-.248l-.516.478-1.929-4.4a.535.535 0 0 0 -1.011.095l-.3 1.294-2.13-2.61a.534.534 0 0 0 -.942.417l.147.985-.858-.258a.535.535 0 0 0 -.626.763l1.439 2.7-1.534-.578a.535.535 0 0 0 -.643.783l2.02 3.254-2.078-.413a.332.332 0 0 0 -.308.552l3.059 3.305h-.479a.534.534 0 0 0 -.367.92l2.449 2.349a2.908 2.908 0 0 0 .442.349 2.7 2.7 0 0 0 4.006-1.391c.695-1.727 1.822-5.252 1.037-8.346z" fill="#ce7f44"/><g fill="#cc7b43"><path d="m68.225 70.229a7.334 7.334 0 0 0 .37 1.584 7.243 7.243 0 0 0 .952 1.292 1.906 1.906 0 0 1 .49 1.48c-.144.712-.886 1.11-1.548 1.409-1.032.469-2.254.934-3.25.393a3.715 3.715 0 0 1 -1.22-1.331c-1.213-1.863-1.706-3.746.139-5.4 1.235-1.107 3.647-1.397 4.067.573z"/><path d="m60.589 74.189a.893.893 0 0 1 1.035 0 1.513 1.513 0 0 1 .351.747 4.134 4.134 0 0 0 .864 1.564c.215.243.477.508.449.831a.8.8 0 0 1 -.7.623c-.836.154-1.665-.428-2.51-.329a2.527 2.527 0 0 1 -.662.065c-2.068-.305.55-3.114 1.173-3.501z"/><path d="m71.562 75.473c.793-.909 2.163-.974 3.369-.935a9.312 9.312 0 0 0 2.018-.087 1.719 1.719 0 0 1 1.958 1.306q.213.868.387 1.747a1.75 1.75 0 0 1 -1.185 2.019l-3.517 1.105a2.1 2.1 0 0 1 -2.957-.915c-.423-.575-1.486-1.543-1.391-2.309.081-.66.977-1.377 1.318-1.931z"/><path d="m79.485 80.052a.957.957 0 0 1 1.643.441l.985 1.958a1.237 1.237 0 0 1 .162 1.119 1.205 1.205 0 0 1 -.8.467q-.8.208-1.608.371a2.732 2.732 0 0 1 -1.355.028 1.917 1.917 0 0 1 -1.154-1.306c-.167-.547-.369-1.472.1-1.888a12.97 12.97 0 0 1 2.027-1.19z"/><path d="m72.539 82.624a1.556 1.556 0 0 1 1.413-.172 2.326 2.326 0 0 1 .786.7l1.007 1.224a.332.332 0 0 1 .1.218.326.326 0 0 1 -.132.2 6.677 6.677 0 0 1 -1.788 1.273 2.452 2.452 0 0 1 -2.129-.008 1.853 1.853 0 0 1 -.9-1.229 1.17 1.17 0 0 1 .442-1.218c.406-.296.762-.712 1.201-.988z"/><path d="m79.769 71.195a1.487 1.487 0 0 0 -.465 1 1.636 1.636 0 0 0 .347.78l.858 1.261a1.007 1.007 0 0 0 1.547.454l1.492-.657a1.469 1.469 0 0 0 .672-.463c.273-.407.083-.967.222-1.437.094-.318.339-.613.277-.938-.068-.364-.475-.542-.828-.651a9.131 9.131 0 0 0 -2.548-.611c-.577.014-1.221.855-1.574 1.262z"/><path d="m54.571 70.539a2.916 2.916 0 0 0 -.953 1.731 2.6 2.6 0 0 0 .941 1.8c.214.215.439.428.644.653a.939.939 0 0 0 1.435-.053l1.042-1.33a3.684 3.684 0 0 1 1.97-1.565c.328-.066.755-.1.849-.424a.73.73 0 0 0 -.05-.428c-.594-1.773-2.029-5.878-3.275-3.779-.177.3-.227.66-.419.953a21.727 21.727 0 0 1 -2.184 2.442z"/><path d="m50.345 52.934a1.159 1.159 0 0 0 -.159 1.178c.355.681 1.416.622 1.907 1.213.165.2.3.49.561.493a.632.632 0 0 0 .4-.209l.888-.8a1.7 1.7 0 0 0 .628-.87 1.526 1.526 0 0 0 -.218-.939 7.384 7.384 0 0 0 -1.02-1.527 1.762 1.762 0 0 0 -.567-.476.716.716 0 0 0 -.71.029c-.346.25-.429.762-.733 1.064a7.489 7.489 0 0 0 -.977.844z"/></g><path d="m48.836 6.792c-5.617 2.773-5.617 9.246-5.617 9.246l2.348 2.006c3.207-2.866 3.384-3.63 5.008-7.356a5.855 5.855 0 0 0 .595-2.537 1.629 1.629 0 0 0 -2.334-1.359z" fill="#df9d4f"/><path d="m47.722 8.77c-4.5 2.223-4.359 7.7-4.359 7.7l1.52 2.054c2.571-2.3 2.931-3.647 4.233-6.634a4.676 4.676 0 0 0 .477-2.034 1.306 1.306 0 0 0 -1.871-1.086z" fill="#f1b845"/><path d="m43.04 6.872a1.941 1.941 0 0 0 -3.87.012 1.772 1.772 0 0 0 1.082 1.589 53.578 53.578 0 0 1 -.1 7.633l1.961-.006c-.285-2.752-.753-5.791-.4-7.537a1.8 1.8 0 0 0 1.327-1.691z" fill="#f1b845"/><path d="m71.474 72.266a1.105 1.105 0 0 0 .419.721 1.048 1.048 0 0 0 .69.038l4-.69a.764.764 0 0 0 .8-.934l.008-2.1a.537.537 0 0 0 -.584-.662l-5.157-.668a3.91 3.91 0 0 0 -1.162-.034c-.292.051-.87.237-.828.6.036.319.57.859.736 1.153a11.725 11.725 0 0 1 1.078 2.576z" fill="#cc7b43"/></svg>