<?xml version="1.0" encoding="UTF-8"?>
<svg xmlns="http://www.w3.org/2000/svg" xmlns:xlink="http://www.w3.org/1999/xlink" version="1.1" id="Слой_1" x="0px" y="0px" viewBox="0 0 512 512" style="enable-background:new 0 0 512 512;" xml:space="preserve" width="512" height="512">
<style type="text/css">
	.st0{fill:#C0D3D9;}
	.st1{fill:#2B0C09;}
	.st2{fill:#56180F;}
	.st3{fill:#E9B986;}
	.st4{fill:#99503B;}
	.st5{fill:#F2CFAD;}
	.st6{fill:#F2DBD8;}
	.st7{fill:#FFFFFF;}
</style>
<g>
	<g>
		<circle class="st0" cx="251.901" cy="254.045" r="209"/>
		<g>
			<path class="st1" d="M368.554,246.597c-3.374,0.365-6.806,0.017-10.02-1.056c3.123-1.311,5.39-4.502,5.267-7.983     c-0.018-0.521-0.557-0.829-1.017-0.583c-6.864,3.672-15.285,2.907-22.1-0.484c-5.438-2.706-9.687-7.063-12.858-12.14     c-0.784-2.114-1.724-4.176-2.607-6.248c-1.171-2.75-2.342-5.5-3.514-8.25c-0.121-0.38-2.163-5.078-2.396-5.626     c-0.686-1.61-1.472-3.633-3.274-4.274c-1.763-0.628-3.211,0.667-3.773,2.239c-0.631,1.767-0.418,3.797-0.27,5.627     c0.171,2.106,0.493,4.203,0.961,6.263c1.885,8.305,6.109,16.022,11.84,22.295c5.631,6.164,12.681,10.972,20.306,14.327     c1.911,0.841,3.857,1.6,5.836,2.266c2.252,0.758,4.573,1.383,6.954,1.533c3.928,0.247,8.165-1.143,10.338-4.623     c0.464-0.743,0.797-1.571,0.977-2.428C369.287,247.067,369.02,246.546,368.554,246.597z"/>
			<path class="st1" d="M250.153,443.828c-0.918-0.908-2.032-1.603-3.192-2.157c-2.342-1.119-4.896-1.713-7.234-2.834     c-1.065-0.511-2.082-1.136-2.877-2.022c-0.996-1.11-1.418-2.54-1.524-4.005c-0.141-1.944-0.026-3.925,0.03-5.871     c0.059-2.064,0.149-4.127,0.272-6.188c0.243-4.09,0.613-8.173,1.108-12.241c0.495-4.071,1.121-8.125,1.87-12.157     c0.746-4.018,1.704-7.998,2.338-12.036c0.622-3.957,0.949-8.036,0.256-12.008c-0.283-1.622-0.844-3.277-2.003-4.49     c-1.044-1.093-2.627-1.71-4.133-1.491c-1.583,0.23-2.631,1.44-3.112,2.901c-0.25,0.759-0.353,1.558-0.446,2.349     c-0.026,0.223-0.051,0.447-0.077,0.671c-0.239,1.453-0.455,2.907-0.616,4.375c-0.23,2.087-0.46,4.175-0.69,6.262     c-0.453,4.11-0.89,8.221-1.334,12.332c-0.898,8.318-1.797,16.635-2.695,24.953c-0.432,3.999-0.914,7.997-1.289,12.002     c-0.282,3.018-0.397,6.159,0.395,9.115c0.814,3.04,2.735,5.545,5.63,6.861c1.642,0.747,3.398,1.162,5.164,1.49     c2.001,0.371,4.027,0.619,6.058,0.735c1.947,0.112,3.93,0.143,5.874-0.034c1.516-0.138,3.178-0.647,3.681-2.263     C252.08,446.553,251.218,444.882,250.153,443.828z"/>
			<path class="st1" d="M305.364,428.178c-0.917-0.908-2.032-1.603-3.192-2.157c-2.342-1.119-4.896-1.713-7.234-2.834     c-1.065-0.511-2.082-1.136-2.877-2.022c-0.996-1.11-1.418-2.54-1.524-4.005c-0.141-1.944-0.026-3.925,0.03-5.871     c0.059-2.064,0.149-4.127,0.272-6.188c0.243-4.09,0.613-8.173,1.108-12.241c0.495-4.071,1.121-8.125,1.87-12.157     c0.746-4.018,1.704-7.998,2.339-12.035c0.622-3.957,0.949-8.036,0.256-12.008c-0.283-1.622-0.844-3.277-2.003-4.49     c-1.044-1.093-2.627-1.71-4.133-1.491c-1.583,0.23-2.631,1.44-3.112,2.901c-0.25,0.759-0.353,1.558-0.446,2.349     c-0.026,0.223-0.051,0.447-0.077,0.671c-0.239,1.453-0.455,2.907-0.616,4.375c-0.23,2.087-0.46,4.175-0.69,6.262     c-0.453,4.11-0.89,8.221-1.334,12.332c-0.899,8.318-1.797,16.635-2.695,24.953c-0.432,3.999-0.914,7.997-1.289,12.002     c-0.282,3.018-0.397,6.159,0.395,9.115c0.814,3.04,2.735,5.545,5.63,6.861c1.642,0.747,3.398,1.162,5.164,1.49     c2.001,0.371,4.027,0.619,6.058,0.735c1.947,0.112,3.93,0.143,5.874-0.034c1.516-0.138,3.178-0.647,3.681-2.263     C307.29,430.904,306.429,429.232,305.364,428.178z"/>
			<path class="st2" d="M365.192,100.43c0.615-0.092,0.607-0.958,0.162-1.239c-8.594-5.425-19.328-3.555-28.22,0.032     c-1.948,0.786-3.862,1.648-5.763,2.54c3.481-4.7,7.878-8.707,12.886-11.736c1.642-0.993,3.346-1.877,5.1-2.656     c0.517-0.23,0.394-1.144-0.162-1.239c-10.295-1.75-21.055,0.05-30.266,4.959c-1.842,0.982-3.608,2.092-5.296,3.315     c2.33-5.533,5.071-10.889,8.184-16.024c0.291-0.48-0.198-1.2-0.765-0.996c-8.502,3.068-16.248,8.129-22.458,14.699     c-1.312,1.388-2.551,2.844-3.718,4.355c-0.34-6.612-0.244-13.241,0.291-19.841c0.047-0.579-0.779-0.904-1.157-0.479     c-4.78,5.371-8.345,11.78-10.372,18.681c-0.439,1.495-0.801,3.011-1.091,4.541c-4.534-6.196-5.304-14.728-11.565-19.75     c-1.651-1.324-3.56-2.277-5.671-2.563c-0.564-0.076-1.078,0.432-0.765,0.996c3.774,6.816,5.346,14.75,4.555,22.495     c-0.164,1.602-0.439,3.19-0.812,4.755c-4.037-7.632-10.177-14.119-17.546-18.618c-2.233-1.363-4.577-2.526-7.001-3.507     c-0.693-0.281-1.041,0.677-0.659,1.133c3.839,4.59,6.34,10.189,7.468,16.049c0.541,2.812,0.76,5.689,0.656,8.554     c-5.97-4.281-12.675-7.539-19.719-9.617c-2.603-0.768-5.254-1.369-7.932-1.806c-0.595-0.097-1.23,0.645-0.659,1.133     c5.166,4.42,10.378,9.267,13.322,15.514c0.321,0.682,0.607,1.379,0.858,2.088c-2.579-3.048-5.657-5.66-9.08-7.733     c-4.414-2.675-9.383-4.466-14.498-5.169c-2.906-0.399-5.842-0.463-8.759-0.141c-0.59,0.065-1.019,0.944-0.342,1.263     c7.252,3.42,13.003,9.784,15.773,17.302c0.474,1.286,0.866,2.605,1.164,3.945c-2.52-3.018-5.573-5.572-8.979-7.552     c-4.225-2.455-8.947-4.015-13.803-4.554c-2.755-0.306-5.527-0.244-8.269,0.151c-0.643,0.093-0.572,0.942-0.162,1.239     c5.971,4.325,11.267,9.606,15.6,15.571c0.66,0.908,1.297,1.833,1.912,2.772c-6.955-4.037-14.699-6.679-22.672-7.75     c-2.539-0.341-5.096-0.524-7.658-0.543c-0.585-0.004-0.897,0.746-0.479,1.157c4.014,3.948,7.974,7.993,11.412,12.462     c1.998,2.598,3.842,5.362,5.318,8.301c-2.755-0.853-5.515-1.691-8.291-2.47c-4.955-1.391-10.051-2.535-15.219-2.623     c-2.844-0.048-5.695,0.249-8.45,0.966c-0.615,0.16-0.603,0.91-0.162,1.239c5.663,4.228,10.499,9.56,14.18,15.592     c0.62,1.016,1.205,2.051,1.758,3.104c-8.366-4.748-18.307-6.511-27.821-5.11c-2.914,0.429-5.776,1.168-8.531,2.207     c-0.475,0.179-0.752,0.982-0.162,1.239c8.343,3.626,15.762,9.227,21.558,16.237c1.011,1.223,1.967,2.491,2.869,3.796     c-3.828-2.1-8.054-3.435-12.387-4.008c-5.282-0.699-10.732-0.255-15.816,1.351c-2.888,0.913-5.658,2.2-8.202,3.845     c-0.557,0.36-0.348,1.255,0.342,1.263c7.5,0.086,14.905,2.704,20.846,7.277c0.984,0.757,1.923,1.573,2.816,2.435     c-8.64-2.537-17.954-4.177-26.507-0.527c-2.285,0.975-4.395,2.321-6.202,4.03c-0.45,0.426-0.081,1.124,0.479,1.157     c6.762,0.401,13.34,2.89,18.732,6.98c0.644,0.489,1.268,1.004,1.873,1.54c-8.443-2.861-17.888-2.477-26.118,0.99     c-2.611,1.1-5.082,2.499-7.35,4.199c-0.499,0.374-0.391,1.276,0.342,1.263c7.994-0.141,16.016,1.462,23.331,4.699     c1.228,0.543,2.434,1.133,3.619,1.764c-4.038-0.075-8.084,0.157-12.066,0.849c-4.711,0.819-9.38,2.331-13.432,4.915     c-2.271,1.448-4.325,3.225-6.045,5.299c-0.359,0.433-0.148,1.16,0.479,1.157c8.13-0.036,16.234,1.939,23.444,5.692     c-0.081,0.013-0.162,0.025-0.243,0.037c-2.706,0.428-5.403,0.95-8.053,1.649c-4.745,1.251-9.39,3.116-13.408,5.97     c-2.193,1.558-4.185,3.385-5.841,5.509c-0.317,0.407-0.174,1.214,0.479,1.157c7.149-0.624,14.444,0.595,20.988,3.553     c1.226,0.554,2.422,1.168,3.588,1.837c-8.054,0.977-15.655,5.127-20.895,11.325c-1.608,1.902-2.995,3.981-4.105,6.211     c-0.243,0.488,0.166,1.202,0.765,0.996c5.949-2.05,12.251-2.956,18.537-2.654c1.013,0.049,2.024,0.13,3.031,0.242     c-3.644,1.739-6.935,4.174-9.694,7.133c-3.33,3.572-5.889,7.858-7.409,12.501c-0.855,2.611-1.359,5.334-1.501,8.078     c-0.029,0.567,0.776,0.921,1.157,0.479c4.346-5.043,10.237-8.648,16.694-10.265c0.994-0.249,1.998-0.447,3.009-0.598     c-3.473,2.685-6.377,6.079-8.553,9.898c-2.617,4.592-4.199,9.773-4.543,15.049c-0.193,2.963,0.028,5.948,0.655,8.85     c0.1,0.465,0.818,0.697,1.133,0.299c3.584-4.539,8.68-7.751,14.3-9.091c-5.089,6.473-8.33,14.374-9.297,22.575     c-0.374,3.172-0.385,6.374-0.04,9.548c0.08,0.737,1.087,0.948,1.331,0.18c2.428-7.62,8.459-13.842,15.927-16.606     c-5.134,7.545-7.279,16.931-6.019,25.989c0.393,2.825,1.122,5.584,2.183,8.231c0.235,0.586,1.114,0.697,1.307,0     c2.068-7.466,7.115-13.88,13.789-17.729c-4.736,7.965-3.336,18.016-0.268,26.468c1.09,3.003,2.37,5.933,3.649,8.859     c0.289,0.662,1.234,0.265,1.263-0.342c0.364-7.535,3.05-14.859,7.606-20.849c-1.682,9.928-0.063,20.319,4.5,29.309     c1.421,2.8,3.137,5.429,5.096,7.882c0.356,0.446,1.212,0.086,1.157-0.479c-0.838-8.537,0.395-17.192,3.584-25.131     c-0.342,11.101,4.987,21.642,12.234,29.935c2.389,2.733,5.014,5.251,7.813,7.56c0.595,0.49,1.408-0.108,1.064-0.821     c-3.968-8.236-3.789-18.17,0.324-26.294c2.101,10.713,8.227,20.552,16.815,27.283c2.544,1.994,5.285,3.711,8.2,5.11     c0.619,0.297,1.234-0.303,0.927-0.927c-3.674-7.493-5.288-15.933-4.649-24.245c4.354,10.86,14.238,19.212,25.566,22.086     c3.488,0.885,7.104,1.236,10.696,1.001c0.64-0.042,0.961-0.917,0.342-1.263c-7.524-4.211-13.075-11.635-15.025-20.011     c6.585,8.609,17.29,13.786,28.126,13.928c3.365,0.044,6.731-0.416,9.955-1.378c0.604-0.18,0.686-1.172,0-1.307     c-6.781-1.339-12.962-5.044-17.325-10.372c9.341,3.898,20.397,3.184,29.11-2.066c0.573-0.345,0.336-1.26-0.342-1.263     c-5.258-0.02-10.383-1.512-14.826-4.266c10.889-0.437,21.481-4.472,29.92-11.394c0.429-0.352,0.095-1.234-0.479-1.157     c-3.946,0.527-7.941,0.292-11.761-0.68c0.105-0.281,0.225-0.555,0.356-0.818c0.726-1.467,1.73-2.77,2.556-4.18     c1.664-2.84,2.902-5.931,3.726-9.116c1.669-6.455,1.687-13.282,0.443-19.812c-1.308-6.868-4.058-13.418-7.502-19.477     c-0.664-1.169-1.356-2.321-2.072-3.459c-0.48-1.811-1.02-3.607-1.619-5.383c-0.831-3.726-1.721-7.441-2.617-11.151     c-2.422-10.026-4.891-20.064-6.365-30.284c-1.451-10.061-1.918-20.268-1.44-30.42c0.478-10.177,2.066-20.237,4.026-30.224     c0.012-0.06,0.023-0.12,0.034-0.18c1.59-6.765,3.475-13.459,5.762-20.024c3.766-10.809,8.63-21.269,14.969-30.818     c5.682-8.559,12.504-16.398,20.397-22.989c7.835-6.542,16.77-11.798,26.446-15.095c1.21-0.412,2.414-0.822,3.616-1.259     c0.13-0.047,0.223-0.123,0.284-0.212c4.551-0.349,9.184,0.519,13.249,2.661c0.562,0.296,1.327-0.332,0.927-0.927     c-4.199-6.254-11.605-10.016-19.108-10.04c-1.139-0.004-2.278,0.083-3.404,0.257c4.96-3.732,10.622-6.516,16.608-8.167     C361.224,101.141,363.198,100.728,365.192,100.43z"/>
			<path class="st3" d="M406.075,164.4c-3.429-4.851-9.911-2.374-14.711-2.171c-4.773,0.202-9.561-0.947-13.763-3.202     c-1.825-1.483-3.545-3.095-5.15-4.813c-4.862-5.204-8.676-11.429-11.034-18.153c-0.66-1.88-1.207-3.8-1.635-5.747     c-0.214-0.972-0.392-1.95-0.647-2.912c-0.112-0.422-0.204-0.861-0.316-1.293c-1.068-5.166-4.201-9.831-8.323-13.1     c-5.271-4.181-12.019-6.084-18.682-6.183c-6.832-0.102-13.738,1.598-19.394,5.513c-5.064,3.505-9.081,8.461-11.633,14.054     c-2.795,6.124-3.932,12.906-3.71,19.615c-1.343-2.248-3.241-4.175-5.501-5.479c-3.399-1.962-7.668-2.886-11.073-0.827     c-8.359,5.055-5.194,12.151-3.888,15.261c1.05,2.501,3.621,4.534,5.533,6.44c2.312,2.305,5.302,4.563,8.731,4.431     c0.48-0.019,0.665,0.679,0.245,0.906c-0.641,0.346-1.272,0.711-1.889,1.098c-5.309,3.33-9.637,8.082-13.225,13.172     c-2.963,4.204-9.432,20.009-10.076,23.379c-2.977,15.585-2.572,31.566,0.056,47.17c2.874,17.063,8.306,33.586,14.608,49.662     c6.11,15.586,13.606,31.569,13.923,48.618c0.04,2.142-0.094,12.417,0.238,13.955c0.019,0.09,0.039,0.18,0.06,0.27     c3.482-4.295,25.439-22.277,27.99-57.488c0.47-6.488,0.887-15.154,0.229-20.508c-1.617-13.166-1.543-26.512-1.136-39.784     c0.199-6.493,0.689-13.001,1.73-19.416c0.905-5.576,2.291-11.188,5.001-16.185c5.533-10.205,16.335-14.825,26.867-18.227     c10.254-3.312,20.852-5.577,30.877-9.587c4.857-1.943,9.568-4.295,13.832-7.342C403.484,173.184,409.328,169.001,406.075,164.4z"/>
			<ellipse class="st4" cx="323.609" cy="170.467" rx="7.436" ry="7.436"/>
			<g>
				<path class="st1" d="M406.075,164.4c-3.366-4.761-9.671-2.464-14.442-2.185c0.664,0.332,1.29,0.74,1.858,1.214      c1.654,1.379,2.742,3.217,3.112,5.342c0.446,2.562-0.163,5.271-1.228,7.608c-0.503,1.105-1.102,2.156-1.755,3.175      c2.281-1.198,4.49-2.529,6.59-4.03C403.484,173.184,409.328,169.001,406.075,164.4z"/>
			</g>
			<g>
				<path class="st4" d="M367.239,187.459c-7.346-0.356-14.634-1.8-21.556-4.286c-1.91-0.686-3.808-1.434-5.64-2.309      c-1.502-0.717-4.069-3.637-4.129-3.657c0.344-0.955,0.748-1.886,1.216-2.788c0.578-1.114,1.422-2.117,1.155-3.449      c-0.088-0.438-1.26,0.516-1.273,0.66c-0.002,0.02-0.961,0.795-1.402,1.182c-0.512,0.448-1,0.926-1.43,1.453      c-0.97,1.189-1.515,2.534-1.775,4.041c-0.54,3.129-0.246,6.368,0.862,9.344c0.002,0.004,0.004,0.009,0.006,0.013      c0.012,0.061,0.024,0.123,0.037,0.184c0.158,0.734,1.41,0.587,1.331-0.18c-0.226-2.214-0.143-4.443,0.247-6.625      c0.133-0.444,0.288-0.881,0.468-1.307c0.029-0.069,0.062-0.137,0.094-0.205c0.148,0.117,0.302,0.228,0.455,0.339      c0.53,0.463,1.112,0.871,1.714,1.235c0.084,0.059,0.169,0.118,0.253,0.177c1.216,0.844,2.611,1.51,3.931,2.175      c2.624,1.323,5.327,2.494,8.086,3.507c2.786,1.023,5.632,1.88,8.52,2.564c1.345,0.318,2.705,0.605,4.076,0.809      c3.294-0.948,6.601-1.854,9.893-2.807C370.666,187.566,368.952,187.542,367.239,187.459z"/>
				<path class="st4" d="M374.318,186.963c-0.084,0.002-0.169,0.026-0.254,0.076C374.148,187.014,374.233,186.988,374.318,186.963z"/>
			</g>
			<g>
				<path class="st4" d="M312.581,96.761c-0.568-0.877-1.726-1.275-2.706-0.862c-0.039-0.017-0.077-0.036-0.118-0.052      c-1.139-0.444-2.296,0.029-3.358,0.467c-1.466,0.605-2.854,1.506-4.026,2.572c-2.547,2.315-4.193,5.378-4.728,8.772      c-0.126,0.801,0.373,1.621,1.068,2.06c0.273,0.387,0.652,0.692,1.076,0.82c1.255,0.379,2.319-0.229,2.851-1.368      c0.067-0.144,0.136-0.286,0.204-0.429c0.005-0.01,0.009-0.019,0.013-0.028c0-0.001,0.001-0.001,0.001-0.002      c0.138-0.255,0.276-0.511,0.422-0.762c0.304-0.525,0.631-1.037,0.978-1.535c0.332-0.476,0.683-0.94,1.051-1.388      c0.149-0.181,0.299-0.392,0.465-0.571c-0.015,0.022,0.027-0.01,0.139-0.13c0.108-0.115,0.218-0.23,0.329-0.343      c0.832-0.848,1.731-1.629,2.687-2.334c0.234-0.172,0.471-0.34,0.711-0.502c0.041-0.028,0.082-0.055,0.123-0.083      c0.087-0.055,0.174-0.11,0.262-0.164c0.29-0.177,0.585-0.346,0.882-0.509c0.476-0.128,0.921-0.36,1.261-0.719      C312.943,98.853,313.23,97.763,312.581,96.761z"/>
				<path class="st4" d="M257.09,115.518c-0.67-0.802-1.868-1.057-2.79-0.528c-0.041-0.013-0.081-0.026-0.123-0.037      c-1.184-0.303-2.275,0.307-3.277,0.87c-1.382,0.778-2.651,1.841-3.685,3.04c-2.248,2.607-3.511,5.846-3.631,9.28      c-0.028,0.81,0.566,1.564,1.309,1.916c0.318,0.351,0.731,0.607,1.168,0.683c1.292,0.224,2.274-0.508,2.664-1.703      c0.049-0.151,0.1-0.3,0.151-0.45c0.004-0.011,0.007-0.02,0.01-0.029c0-0.001,0.001-0.002,0.001-0.002      c0.106-0.27,0.212-0.54,0.326-0.807c0.239-0.558,0.501-1.106,0.785-1.642c0.272-0.513,0.564-1.015,0.875-1.505      c0.126-0.198,0.249-0.426,0.392-0.623c-0.012,0.023,0.025-0.014,0.122-0.145c0.094-0.128,0.189-0.254,0.285-0.38      c0.723-0.942,1.521-1.827,2.384-2.642c0.211-0.199,0.426-0.394,0.645-0.585c0.037-0.033,0.075-0.065,0.112-0.097      c0.08-0.065,0.16-0.13,0.24-0.194c0.266-0.211,0.538-0.414,0.814-0.612c0.457-0.184,0.87-0.469,1.164-0.867      C257.703,117.551,257.856,116.434,257.09,115.518z"/>
				<path class="st4" d="M275.031,124.444c-0.67-0.802-1.868-1.057-2.79-0.528c-0.041-0.013-0.081-0.026-0.123-0.037      c-1.184-0.303-2.275,0.307-3.277,0.87c-1.382,0.778-2.651,1.841-3.685,3.04c-2.248,2.607-3.511,5.846-3.631,9.28      c-0.028,0.81,0.566,1.564,1.309,1.916c0.318,0.351,0.731,0.607,1.168,0.683c1.292,0.224,2.274-0.508,2.664-1.703      c0.049-0.151,0.1-0.3,0.151-0.451c0.004-0.011,0.007-0.02,0.01-0.029c0-0.001,0.001-0.002,0.001-0.002      c0.106-0.27,0.212-0.54,0.326-0.807c0.239-0.558,0.501-1.106,0.785-1.642c0.272-0.513,0.564-1.015,0.875-1.505      c0.126-0.198,0.249-0.426,0.392-0.623c-0.012,0.023,0.025-0.014,0.122-0.145c0.094-0.128,0.189-0.254,0.285-0.38      c0.723-0.942,1.521-1.827,2.384-2.642c0.211-0.199,0.426-0.394,0.645-0.585c0.037-0.033,0.075-0.065,0.112-0.097      c0.08-0.065,0.16-0.13,0.24-0.194c0.266-0.211,0.538-0.414,0.814-0.612c0.457-0.184,0.87-0.469,1.164-0.867      C275.644,126.476,275.797,125.36,275.031,124.444z"/>
				<path class="st4" d="M211.505,143.893c-0.79-0.684-2.013-0.744-2.839-0.074c-0.042-0.006-0.084-0.013-0.127-0.017      c-1.218-0.109-2.197,0.668-3.095,1.384c-1.24,0.989-2.322,2.242-3.151,3.591c-1.801,2.933-2.53,6.333-2.097,9.742      c0.102,0.804,0.81,1.453,1.599,1.681c0.37,0.295,0.819,0.483,1.262,0.487c1.311,0.014,2.163-0.866,2.357-2.108      c0.024-0.157,0.051-0.313,0.077-0.469c0.002-0.011,0.003-0.021,0.005-0.031c0-0.001,0-0.002,0.001-0.003      c0.062-0.284,0.123-0.567,0.193-0.849c0.146-0.589,0.317-1.172,0.512-1.747c0.186-0.55,0.394-1.093,0.623-1.626      c0.093-0.216,0.177-0.46,0.287-0.678c-0.009,0.025,0.023-0.017,0.097-0.163c0.072-0.141,0.146-0.281,0.221-0.421      c0.563-1.046,1.208-2.047,1.93-2.99c0.176-0.23,0.358-0.457,0.543-0.681c0.031-0.038,0.063-0.076,0.095-0.114      c0.069-0.077,0.137-0.154,0.206-0.23c0.229-0.251,0.465-0.495,0.706-0.734c0.421-0.255,0.784-0.602,1.01-1.042      C212.435,145.802,212.408,144.675,211.505,143.893z"/>
				<path class="st4" d="M230.644,149.83c-0.79-0.684-2.013-0.744-2.839-0.074c-0.042-0.006-0.084-0.013-0.127-0.017      c-1.218-0.109-2.197,0.668-3.095,1.384c-1.24,0.989-2.322,2.242-3.151,3.591c-1.801,2.933-2.529,6.333-2.097,9.742      c0.102,0.804,0.81,1.453,1.599,1.681c0.37,0.295,0.819,0.482,1.262,0.487c1.311,0.014,2.163-0.866,2.357-2.107      c0.024-0.157,0.051-0.313,0.077-0.469c0.002-0.011,0.003-0.021,0.005-0.031c0-0.001,0-0.002,0.001-0.003      c0.062-0.284,0.123-0.567,0.193-0.849c0.146-0.589,0.317-1.172,0.512-1.747c0.186-0.55,0.394-1.093,0.623-1.626      c0.093-0.216,0.177-0.46,0.287-0.678c-0.009,0.025,0.023-0.017,0.097-0.163c0.072-0.141,0.146-0.281,0.221-0.421      c0.563-1.046,1.208-2.047,1.93-2.99c0.176-0.23,0.358-0.457,0.543-0.681c0.031-0.038,0.063-0.076,0.095-0.114      c0.069-0.077,0.137-0.154,0.206-0.23c0.229-0.251,0.465-0.495,0.706-0.734c0.421-0.255,0.784-0.602,1.01-1.042      C231.574,151.738,231.547,150.612,230.644,149.83z"/>
				<path class="st4" d="M249.783,155.766c-0.79-0.684-2.013-0.744-2.839-0.074c-0.042-0.006-0.084-0.013-0.127-0.017      c-1.218-0.109-2.197,0.668-3.095,1.384c-1.24,0.989-2.322,2.242-3.151,3.591c-1.801,2.933-2.529,6.333-2.097,9.742      c0.102,0.804,0.81,1.453,1.599,1.681c0.37,0.295,0.819,0.482,1.262,0.487c1.311,0.014,2.163-0.866,2.357-2.107      c0.024-0.157,0.051-0.313,0.077-0.469c0.002-0.011,0.003-0.021,0.005-0.031c0-0.001,0-0.002,0.001-0.003      c0.062-0.284,0.123-0.567,0.193-0.849c0.146-0.589,0.317-1.172,0.512-1.747c0.186-0.55,0.394-1.092,0.623-1.626      c0.093-0.216,0.177-0.46,0.287-0.678c-0.009,0.025,0.023-0.018,0.097-0.163c0.072-0.141,0.146-0.281,0.221-0.421      c0.563-1.046,1.208-2.047,1.93-2.99c0.176-0.23,0.358-0.457,0.543-0.681c0.031-0.038,0.063-0.076,0.095-0.114      c0.069-0.077,0.137-0.154,0.206-0.23c0.229-0.251,0.465-0.495,0.706-0.734c0.421-0.255,0.784-0.603,1.01-1.042      C250.714,157.675,250.686,156.548,249.783,155.766z"/>
				<path class="st4" d="M268.922,161.703c-0.79-0.684-2.013-0.744-2.839-0.074c-0.042-0.006-0.084-0.013-0.127-0.017      c-1.218-0.109-2.197,0.668-3.095,1.384c-1.24,0.989-2.322,2.242-3.151,3.591c-1.801,2.933-2.529,6.333-2.097,9.742      c0.102,0.804,0.81,1.453,1.599,1.681c0.37,0.295,0.819,0.483,1.262,0.487c1.311,0.014,2.163-0.866,2.357-2.108      c0.024-0.157,0.051-0.313,0.077-0.469c0.002-0.011,0.003-0.021,0.005-0.031c0-0.001,0-0.002,0.001-0.003      c0.062-0.284,0.123-0.567,0.193-0.849c0.146-0.589,0.317-1.172,0.512-1.747c0.186-0.55,0.394-1.093,0.623-1.626      c0.092-0.216,0.177-0.46,0.287-0.678c-0.009,0.025,0.023-0.017,0.097-0.163c0.072-0.141,0.146-0.281,0.221-0.421      c0.563-1.046,1.208-2.047,1.93-2.99c0.176-0.23,0.358-0.457,0.543-0.681c0.031-0.038,0.063-0.076,0.095-0.114      c0.069-0.077,0.137-0.154,0.206-0.23c0.229-0.251,0.465-0.495,0.706-0.734c0.421-0.255,0.784-0.602,1.01-1.042      C269.853,163.611,269.825,162.485,268.922,161.703z"/>
				<path class="st4" d="M180.175,184.63c-0.85-0.608-2.073-0.554-2.833,0.188c-0.043-0.002-0.085-0.005-0.128-0.005      c-1.223,0.004-2.126,0.868-2.954,1.664c-1.143,1.099-2.105,2.447-2.805,3.867c-1.522,3.087-1.933,6.54-1.188,9.894      c0.176,0.791,0.94,1.372,1.748,1.526c0.396,0.26,0.86,0.405,1.302,0.369c1.307-0.107,2.074-1.062,2.152-2.316      c0.01-0.158,0.022-0.316,0.033-0.474c0.001-0.011,0.002-0.021,0.002-0.031c0-0.001,0-0.002,0-0.003      c0.035-0.288,0.07-0.576,0.113-0.863c0.091-0.6,0.207-1.196,0.348-1.786c0.134-0.565,0.291-1.124,0.47-1.677      c0.072-0.223,0.134-0.475,0.223-0.702c-0.006,0.026,0.021-0.02,0.082-0.171c0.059-0.147,0.119-0.294,0.181-0.439      c0.463-1.093,1.014-2.15,1.646-3.156c0.154-0.246,0.314-0.488,0.478-0.728c0.028-0.041,0.056-0.081,0.084-0.122      c0.061-0.083,0.122-0.166,0.184-0.248c0.205-0.271,0.417-0.536,0.635-0.797c0.396-0.293,0.725-0.672,0.91-1.131      C181.278,186.444,181.146,185.325,180.175,184.63z"/>
				<path class="st4" d="M199.781,188.771c-0.85-0.608-2.073-0.554-2.833,0.188c-0.043-0.002-0.085-0.005-0.128-0.005      c-1.223,0.004-2.126,0.868-2.954,1.664c-1.143,1.099-2.105,2.447-2.805,3.867c-1.522,3.087-1.933,6.54-1.188,9.894      c0.176,0.791,0.94,1.372,1.748,1.526c0.396,0.26,0.86,0.405,1.302,0.369c1.307-0.107,2.074-1.062,2.152-2.316      c0.01-0.158,0.022-0.316,0.033-0.474c0.001-0.011,0.002-0.021,0.002-0.031c0-0.001,0-0.002,0-0.003      c0.035-0.288,0.07-0.576,0.113-0.863c0.091-0.6,0.207-1.196,0.348-1.786c0.134-0.565,0.291-1.124,0.47-1.677      c0.072-0.223,0.134-0.474,0.223-0.702c-0.006,0.026,0.021-0.02,0.082-0.171c0.059-0.147,0.119-0.294,0.181-0.439      c0.463-1.093,1.014-2.15,1.646-3.156c0.154-0.246,0.314-0.488,0.478-0.728c0.028-0.041,0.056-0.081,0.084-0.122      c0.061-0.083,0.122-0.166,0.184-0.248c0.205-0.271,0.417-0.536,0.635-0.797c0.396-0.293,0.725-0.672,0.91-1.131      C200.884,190.586,200.752,189.466,199.781,188.771z"/>
				<path class="st4" d="M219.387,192.913c-0.85-0.608-2.073-0.554-2.833,0.188c-0.043-0.002-0.085-0.005-0.128-0.005      c-1.223,0.004-2.126,0.868-2.954,1.664c-1.143,1.099-2.105,2.447-2.805,3.867c-1.522,3.087-1.933,6.54-1.188,9.894      c0.176,0.791,0.94,1.372,1.748,1.526c0.396,0.26,0.86,0.405,1.302,0.369c1.307-0.107,2.074-1.062,2.152-2.316      c0.01-0.158,0.022-0.316,0.033-0.474c0.001-0.011,0.002-0.021,0.002-0.031c0-0.001,0-0.002,0-0.003      c0.035-0.288,0.07-0.576,0.113-0.863c0.091-0.6,0.207-1.196,0.348-1.786c0.134-0.565,0.291-1.124,0.47-1.677      c0.072-0.223,0.134-0.474,0.223-0.702c-0.006,0.026,0.021-0.02,0.082-0.171c0.059-0.147,0.119-0.294,0.181-0.439      c0.463-1.093,1.014-2.15,1.646-3.156c0.154-0.246,0.314-0.488,0.478-0.728c0.028-0.041,0.056-0.081,0.084-0.122      c0.061-0.083,0.122-0.166,0.184-0.248c0.205-0.271,0.417-0.536,0.635-0.797c0.396-0.293,0.725-0.672,0.91-1.131      C220.49,194.727,220.358,193.608,219.387,192.913z"/>
				<path class="st4" d="M238.993,197.055c-0.85-0.608-2.073-0.554-2.833,0.188c-0.043-0.002-0.085-0.005-0.128-0.005      c-1.223,0.004-2.126,0.868-2.954,1.664c-1.143,1.099-2.105,2.447-2.805,3.867c-1.522,3.087-1.933,6.54-1.188,9.894      c0.176,0.791,0.94,1.372,1.748,1.526c0.396,0.26,0.86,0.405,1.302,0.369c1.307-0.107,2.074-1.062,2.152-2.316      c0.01-0.158,0.022-0.316,0.033-0.474c0.001-0.011,0.002-0.021,0.002-0.031c0-0.001,0-0.002,0-0.003      c0.035-0.288,0.07-0.576,0.113-0.863c0.091-0.6,0.207-1.196,0.348-1.786c0.134-0.565,0.291-1.124,0.47-1.677      c0.072-0.223,0.134-0.475,0.223-0.702c-0.006,0.026,0.021-0.02,0.082-0.171c0.059-0.147,0.119-0.294,0.181-0.439      c0.463-1.093,1.014-2.15,1.646-3.156c0.154-0.246,0.314-0.488,0.478-0.728c0.028-0.041,0.056-0.081,0.084-0.122      c0.061-0.083,0.122-0.166,0.184-0.248c0.205-0.271,0.417-0.536,0.635-0.797c0.396-0.293,0.725-0.672,0.91-1.131      C240.096,198.869,239.965,197.75,238.993,197.055z"/>
				<path class="st4" d="M258.599,201.197c-0.85-0.608-2.073-0.554-2.833,0.188c-0.043-0.002-0.085-0.005-0.128-0.005      c-1.223,0.004-2.126,0.868-2.954,1.664c-1.143,1.099-2.105,2.447-2.805,3.867c-1.522,3.087-1.933,6.54-1.188,9.894      c0.176,0.791,0.94,1.372,1.748,1.526c0.396,0.26,0.86,0.405,1.302,0.369c1.307-0.107,2.074-1.062,2.152-2.316      c0.01-0.158,0.022-0.316,0.033-0.474c0.001-0.011,0.002-0.021,0.002-0.031c0-0.001,0-0.002,0-0.003      c0.035-0.288,0.07-0.576,0.113-0.863c0.091-0.6,0.207-1.196,0.348-1.786c0.134-0.565,0.291-1.124,0.47-1.677      c0.072-0.223,0.134-0.475,0.223-0.702c-0.006,0.026,0.021-0.02,0.082-0.171c0.059-0.147,0.119-0.294,0.181-0.439      c0.463-1.093,1.014-2.15,1.646-3.156c0.154-0.246,0.314-0.488,0.478-0.728c0.028-0.041,0.056-0.081,0.084-0.122      c0.061-0.083,0.122-0.166,0.184-0.248c0.205-0.271,0.417-0.536,0.635-0.797c0.396-0.293,0.725-0.672,0.91-1.131      C259.702,203.011,259.571,201.892,258.599,201.197z"/>
				<path class="st4" d="M138.673,225.456c-0.918-0.5-2.125-0.297-2.789,0.533c-0.043,0.003-0.085,0.005-0.128,0.011      c-1.213,0.153-2.004,1.121-2.728,2.013c-1,1.231-1.79,2.685-2.312,4.181c-1.134,3.25-1.12,6.727,0.03,9.965      c0.271,0.764,1.101,1.247,1.921,1.301c0.425,0.21,0.903,0.297,1.337,0.207c1.284-0.266,1.929-1.307,1.853-2.562      c-0.01-0.158-0.017-0.316-0.025-0.474c-0.001-0.011-0.001-0.021-0.002-0.031c0-0.001,0-0.002,0-0.003      c0-0.29-0.001-0.58,0.007-0.871c0.017-0.607,0.06-1.212,0.127-1.815c0.064-0.577,0.152-1.151,0.261-1.721      c0.044-0.23,0.075-0.487,0.136-0.724c-0.003,0.026,0.018-0.022,0.06-0.18c0.04-0.153,0.082-0.306,0.126-0.458      c0.326-1.142,0.744-2.257,1.248-3.333c0.123-0.263,0.252-0.523,0.385-0.781c0.023-0.044,0.046-0.088,0.069-0.131      c0.051-0.09,0.101-0.18,0.152-0.269c0.17-0.294,0.349-0.583,0.533-0.868c0.357-0.339,0.637-0.756,0.765-1.234      C139.989,227.122,139.721,226.027,138.673,225.456z"/>
				<path class="st4" d="M158.638,227.173c-0.918-0.5-2.125-0.297-2.789,0.533c-0.043,0.003-0.085,0.005-0.128,0.011      c-1.213,0.153-2.004,1.121-2.728,2.013c-1,1.231-1.79,2.685-2.312,4.181c-1.134,3.25-1.12,6.727,0.03,9.965      c0.271,0.764,1.101,1.247,1.921,1.301c0.425,0.209,0.903,0.297,1.337,0.207c1.284-0.266,1.929-1.307,1.853-2.562      c-0.01-0.158-0.017-0.316-0.025-0.474c-0.001-0.011-0.001-0.021-0.002-0.031c0-0.001,0-0.002,0-0.003      c0-0.29-0.001-0.58,0.007-0.871c0.017-0.607,0.06-1.212,0.127-1.816c0.064-0.577,0.152-1.151,0.262-1.721      c0.044-0.23,0.075-0.487,0.136-0.724c-0.003,0.026,0.018-0.022,0.06-0.18c0.04-0.153,0.082-0.306,0.126-0.458      c0.326-1.142,0.744-2.257,1.248-3.333c0.123-0.263,0.252-0.523,0.385-0.781c0.023-0.044,0.046-0.088,0.069-0.131      c0.051-0.09,0.101-0.18,0.152-0.269c0.17-0.294,0.349-0.583,0.533-0.868c0.357-0.339,0.637-0.756,0.765-1.234      C159.954,228.839,159.687,227.744,158.638,227.173z"/>
				<path class="st4" d="M178.603,228.889c-0.918-0.5-2.125-0.297-2.789,0.533c-0.043,0.003-0.085,0.005-0.128,0.011      c-1.213,0.153-2.004,1.121-2.728,2.012c-1,1.231-1.79,2.685-2.312,4.181c-1.134,3.25-1.12,6.727,0.03,9.965      c0.271,0.764,1.101,1.247,1.921,1.301c0.425,0.209,0.903,0.297,1.337,0.207c1.284-0.266,1.929-1.307,1.853-2.562      c-0.01-0.158-0.017-0.316-0.025-0.474c-0.001-0.011-0.001-0.021-0.002-0.031c0-0.001,0-0.002,0-0.003      c0-0.29-0.001-0.58,0.007-0.871c0.017-0.607,0.06-1.212,0.127-1.816c0.064-0.577,0.152-1.151,0.261-1.721      c0.044-0.23,0.075-0.487,0.136-0.724c-0.003,0.026,0.018-0.022,0.06-0.18c0.04-0.153,0.082-0.306,0.126-0.458      c0.326-1.142,0.744-2.257,1.248-3.333c0.123-0.263,0.252-0.523,0.385-0.781c0.023-0.044,0.046-0.088,0.069-0.131      c0.051-0.09,0.101-0.18,0.152-0.269c0.17-0.294,0.349-0.583,0.533-0.868c0.357-0.339,0.637-0.756,0.765-1.234      C179.919,230.555,179.652,229.46,178.603,228.889z"/>
				<path class="st4" d="M198.568,230.606c-0.918-0.5-2.125-0.297-2.789,0.533c-0.043,0.003-0.085,0.005-0.128,0.011      c-1.213,0.153-2.004,1.121-2.728,2.013c-1,1.231-1.79,2.685-2.312,4.181c-1.134,3.25-1.12,6.727,0.03,9.965      c0.271,0.764,1.101,1.247,1.921,1.301c0.425,0.21,0.903,0.297,1.337,0.207c1.284-0.266,1.929-1.307,1.853-2.562      c-0.01-0.158-0.017-0.316-0.025-0.474c-0.001-0.011-0.001-0.021-0.002-0.031c0-0.001,0-0.002,0-0.003      c0-0.29-0.001-0.58,0.007-0.871c0.017-0.607,0.06-1.212,0.127-1.816c0.064-0.577,0.152-1.151,0.261-1.721      c0.044-0.23,0.075-0.487,0.136-0.724c-0.003,0.026,0.018-0.022,0.06-0.18c0.04-0.153,0.082-0.306,0.126-0.458      c0.326-1.142,0.744-2.257,1.248-3.333c0.123-0.263,0.252-0.523,0.385-0.781c0.023-0.044,0.046-0.088,0.069-0.131      c0.051-0.09,0.101-0.18,0.152-0.269c0.17-0.294,0.349-0.583,0.533-0.868c0.357-0.339,0.637-0.756,0.765-1.234      C199.884,232.272,199.617,231.177,198.568,230.606z"/>
				<path class="st4" d="M218.533,232.322c-0.918-0.5-2.125-0.297-2.789,0.533c-0.043,0.003-0.085,0.005-0.128,0.011      c-1.213,0.153-2.004,1.121-2.728,2.012c-1,1.231-1.79,2.685-2.312,4.181c-1.134,3.25-1.12,6.727,0.03,9.965      c0.271,0.764,1.101,1.247,1.921,1.301c0.425,0.21,0.903,0.297,1.337,0.207c1.284-0.266,1.929-1.307,1.853-2.562      c-0.01-0.158-0.017-0.316-0.025-0.474c-0.001-0.011-0.001-0.021-0.002-0.031c0-0.001,0-0.002,0-0.003      c0-0.29-0.001-0.58,0.007-0.871c0.017-0.607,0.06-1.212,0.127-1.815c0.064-0.577,0.152-1.151,0.261-1.721      c0.044-0.23,0.075-0.487,0.136-0.724c-0.003,0.026,0.018-0.022,0.06-0.18c0.04-0.153,0.082-0.306,0.126-0.458      c0.326-1.142,0.744-2.257,1.248-3.333c0.123-0.263,0.252-0.523,0.385-0.781c0.023-0.044,0.046-0.088,0.069-0.131      c0.051-0.09,0.101-0.18,0.152-0.269c0.171-0.294,0.349-0.583,0.533-0.868c0.357-0.339,0.637-0.756,0.765-1.234      C219.849,233.988,219.582,232.894,218.533,232.322z"/>
				<path class="st4" d="M238.498,234.039c-0.918-0.5-2.125-0.297-2.789,0.533c-0.043,0.003-0.085,0.005-0.128,0.011      c-1.213,0.153-2.004,1.121-2.728,2.013c-1,1.231-1.79,2.685-2.312,4.181c-1.134,3.25-1.12,6.727,0.03,9.965      c0.271,0.764,1.101,1.247,1.921,1.301c0.425,0.21,0.903,0.297,1.337,0.207c1.284-0.266,1.929-1.307,1.853-2.562      c-0.01-0.158-0.017-0.316-0.025-0.474c-0.001-0.011-0.001-0.021-0.002-0.031c0-0.001,0-0.002,0-0.003      c0-0.29-0.001-0.58,0.007-0.871c0.017-0.607,0.06-1.212,0.127-1.815c0.064-0.577,0.152-1.151,0.261-1.721      c0.044-0.23,0.075-0.487,0.136-0.724c-0.003,0.026,0.018-0.022,0.06-0.18c0.04-0.153,0.082-0.306,0.126-0.458      c0.326-1.142,0.744-2.257,1.248-3.333c0.123-0.263,0.252-0.523,0.385-0.781c0.023-0.044,0.046-0.088,0.069-0.131      c0.051-0.09,0.101-0.18,0.152-0.269c0.17-0.294,0.349-0.583,0.533-0.868c0.357-0.339,0.637-0.756,0.765-1.234      C239.815,235.705,239.547,234.61,238.498,234.039z"/>
				<path class="st4" d="M258.463,235.756c-0.918-0.5-2.125-0.297-2.789,0.533c-0.043,0.003-0.085,0.005-0.128,0.011      c-1.213,0.153-2.004,1.121-2.728,2.012c-1,1.231-1.79,2.685-2.312,4.181c-1.134,3.25-1.12,6.727,0.03,9.965      c0.271,0.764,1.101,1.247,1.921,1.301c0.425,0.209,0.903,0.297,1.337,0.207c1.284-0.266,1.929-1.307,1.853-2.562      c-0.01-0.158-0.017-0.316-0.025-0.474c-0.001-0.011-0.001-0.021-0.002-0.031c0-0.001,0-0.002,0-0.003      c0-0.29-0.001-0.58,0.007-0.871c0.017-0.607,0.06-1.212,0.127-1.816c0.064-0.577,0.152-1.151,0.262-1.721      c0.044-0.23,0.075-0.487,0.136-0.724c-0.003,0.026,0.018-0.022,0.06-0.18c0.04-0.153,0.082-0.306,0.126-0.458      c0.326-1.142,0.744-2.257,1.248-3.333c0.123-0.263,0.252-0.523,0.385-0.781c0.023-0.044,0.046-0.088,0.069-0.131      c0.051-0.09,0.101-0.18,0.152-0.269c0.171-0.294,0.349-0.583,0.533-0.868c0.357-0.339,0.637-0.756,0.765-1.234      C259.78,237.421,259.512,236.327,258.463,235.756z"/>
				<path class="st4" d="M143.513,277.077c-0.972-0.384-2.146-0.036-2.703,0.869c-0.042,0.008-0.083,0.016-0.126,0.026      c-1.185,0.3-1.852,1.357-2.463,2.33c-0.843,1.343-1.449,2.884-1.785,4.432c-0.729,3.364-0.292,6.813,1.244,9.887      c0.362,0.725,1.245,1.103,2.066,1.057c0.447,0.156,0.932,0.184,1.352,0.042c1.242-0.42,1.755-1.533,1.527-2.769      c-0.029-0.156-0.055-0.312-0.083-0.468c-0.002-0.011-0.004-0.021-0.005-0.031c0-0.001,0-0.002,0-0.003      c-0.036-0.288-0.072-0.576-0.099-0.865c-0.057-0.604-0.088-1.211-0.095-1.817c-0.006-0.58,0.01-1.161,0.05-1.74      c0.016-0.234,0.015-0.493,0.047-0.735c0,0.026,0.016-0.024,0.038-0.186c0.021-0.157,0.044-0.314,0.069-0.47      c0.185-1.173,0.463-2.331,0.832-3.46c0.09-0.276,0.186-0.55,0.287-0.822c0.017-0.046,0.035-0.092,0.052-0.139      c0.039-0.095,0.078-0.191,0.118-0.285c0.133-0.312,0.275-0.621,0.423-0.927c0.313-0.38,0.54-0.828,0.609-1.318      C145.023,278.57,144.624,277.516,143.513,277.077z"/>
				<path class="st4" d="M163.539,276.346c-0.972-0.384-2.146-0.036-2.703,0.869c-0.042,0.009-0.083,0.016-0.126,0.026      c-1.185,0.3-1.852,1.357-2.463,2.33c-0.843,1.343-1.45,2.884-1.785,4.432c-0.729,3.364-0.292,6.813,1.244,9.887      c0.362,0.725,1.245,1.103,2.065,1.057c0.447,0.156,0.932,0.184,1.352,0.042c1.242-0.42,1.755-1.533,1.527-2.769      c-0.029-0.156-0.055-0.312-0.083-0.468c-0.002-0.011-0.004-0.021-0.005-0.031c0-0.001,0-0.002,0-0.003      c-0.036-0.288-0.072-0.576-0.099-0.865c-0.057-0.604-0.088-1.211-0.095-1.817c-0.006-0.58,0.01-1.161,0.05-1.74      c0.016-0.234,0.015-0.493,0.047-0.735c0,0.026,0.016-0.024,0.038-0.186c0.021-0.157,0.044-0.314,0.069-0.47      c0.185-1.173,0.463-2.331,0.832-3.46c0.09-0.276,0.186-0.55,0.287-0.822c0.017-0.046,0.035-0.092,0.052-0.139      c0.039-0.095,0.078-0.191,0.118-0.285c0.133-0.312,0.275-0.621,0.423-0.927c0.313-0.38,0.54-0.828,0.609-1.318      C165.048,277.839,164.65,276.785,163.539,276.346z"/>
				<path class="st4" d="M183.564,275.616c-0.972-0.384-2.146-0.036-2.703,0.869c-0.042,0.008-0.083,0.016-0.126,0.026      c-1.185,0.3-1.852,1.357-2.463,2.33c-0.843,1.343-1.449,2.884-1.785,4.432c-0.729,3.364-0.292,6.813,1.244,9.887      c0.362,0.725,1.245,1.103,2.066,1.057c0.447,0.156,0.932,0.184,1.352,0.042c1.242-0.42,1.755-1.533,1.527-2.769      c-0.029-0.156-0.055-0.312-0.083-0.468c-0.002-0.011-0.004-0.021-0.005-0.031c0-0.001,0-0.002,0-0.003      c-0.036-0.288-0.072-0.576-0.099-0.865c-0.057-0.604-0.089-1.211-0.095-1.818c-0.006-0.58,0.01-1.161,0.05-1.74      c0.016-0.234,0.015-0.493,0.047-0.735c0,0.026,0.016-0.024,0.038-0.186c0.021-0.157,0.044-0.314,0.069-0.47      c0.185-1.173,0.463-2.331,0.832-3.46c0.09-0.276,0.186-0.55,0.287-0.822c0.017-0.046,0.035-0.092,0.052-0.139      c0.039-0.095,0.078-0.191,0.118-0.285c0.133-0.312,0.275-0.621,0.423-0.927c0.313-0.38,0.54-0.828,0.609-1.318      C185.074,277.109,184.675,276.055,183.564,275.616z"/>
				<path class="st4" d="M203.59,274.885c-0.972-0.384-2.146-0.036-2.703,0.869c-0.042,0.008-0.083,0.016-0.126,0.026      c-1.185,0.3-1.852,1.357-2.463,2.33c-0.843,1.343-1.449,2.884-1.785,4.432c-0.729,3.364-0.292,6.813,1.244,9.887      c0.362,0.725,1.245,1.103,2.065,1.057c0.447,0.156,0.932,0.184,1.352,0.042c1.242-0.42,1.755-1.533,1.527-2.769      c-0.029-0.156-0.055-0.312-0.083-0.468c-0.002-0.011-0.004-0.021-0.005-0.031c0-0.001,0-0.002,0-0.003      c-0.036-0.288-0.072-0.576-0.099-0.865c-0.057-0.604-0.088-1.211-0.095-1.817c-0.006-0.58,0.01-1.161,0.05-1.74      c0.016-0.234,0.015-0.493,0.047-0.735c0,0.026,0.016-0.024,0.038-0.186c0.021-0.157,0.044-0.314,0.069-0.47      c0.185-1.173,0.463-2.331,0.832-3.46c0.09-0.276,0.186-0.55,0.287-0.822c0.017-0.046,0.035-0.092,0.052-0.139      c0.039-0.095,0.078-0.191,0.118-0.285c0.133-0.312,0.275-0.621,0.423-0.927c0.313-0.38,0.54-0.828,0.609-1.318      C205.099,276.378,204.7,275.324,203.59,274.885z"/>
				<path class="st4" d="M223.615,274.155c-0.972-0.384-2.146-0.036-2.703,0.869c-0.042,0.009-0.083,0.016-0.126,0.026      c-1.185,0.3-1.852,1.357-2.463,2.33c-0.843,1.343-1.449,2.884-1.785,4.432c-0.729,3.364-0.292,6.813,1.244,9.887      c0.362,0.725,1.245,1.103,2.066,1.057c0.447,0.156,0.932,0.184,1.352,0.042c1.242-0.42,1.755-1.533,1.527-2.769      c-0.029-0.156-0.055-0.312-0.083-0.468c-0.002-0.011-0.004-0.021-0.005-0.031c0-0.001,0-0.002,0-0.003      c-0.036-0.288-0.072-0.576-0.099-0.865c-0.057-0.604-0.089-1.211-0.095-1.817c-0.006-0.58,0.01-1.161,0.05-1.74      c0.016-0.234,0.015-0.493,0.047-0.735c0,0.026,0.016-0.024,0.038-0.186c0.021-0.157,0.044-0.314,0.069-0.47      c0.185-1.173,0.463-2.331,0.832-3.46c0.09-0.276,0.186-0.55,0.287-0.822c0.017-0.046,0.035-0.092,0.052-0.139      c0.039-0.095,0.078-0.191,0.118-0.285c0.133-0.313,0.275-0.621,0.423-0.927c0.313-0.38,0.54-0.828,0.609-1.318      C225.125,275.648,224.726,274.594,223.615,274.155z"/>
				<path class="st4" d="M243.641,273.425c-0.972-0.384-2.146-0.036-2.703,0.869c-0.042,0.008-0.083,0.016-0.126,0.026      c-1.185,0.3-1.852,1.357-2.463,2.33c-0.843,1.343-1.45,2.884-1.785,4.432c-0.729,3.364-0.292,6.813,1.244,9.887      c0.362,0.725,1.245,1.103,2.065,1.057c0.447,0.156,0.932,0.184,1.352,0.042c1.242-0.42,1.755-1.533,1.527-2.769      c-0.029-0.156-0.055-0.312-0.083-0.468c-0.002-0.011-0.004-0.021-0.005-0.031c0-0.001,0-0.002,0-0.003      c-0.036-0.288-0.072-0.576-0.099-0.865c-0.057-0.604-0.088-1.211-0.095-1.818c-0.006-0.58,0.01-1.161,0.05-1.74      c0.016-0.234,0.015-0.493,0.047-0.735c0,0.026,0.016-0.024,0.038-0.186c0.021-0.157,0.044-0.314,0.069-0.47      c0.185-1.173,0.463-2.331,0.832-3.46c0.09-0.276,0.186-0.55,0.287-0.822c0.017-0.046,0.035-0.092,0.052-0.139      c0.039-0.095,0.078-0.191,0.118-0.285c0.133-0.313,0.275-0.621,0.423-0.927c0.313-0.38,0.54-0.828,0.609-1.318      C245.15,274.918,244.751,273.864,243.641,273.425z"/>
				<path class="st4" d="M263.666,272.694c-0.972-0.384-2.146-0.036-2.703,0.869c-0.042,0.008-0.083,0.016-0.126,0.026      c-1.185,0.3-1.852,1.357-2.463,2.33c-0.843,1.343-1.45,2.884-1.785,4.432c-0.729,3.364-0.292,6.813,1.244,9.887      c0.362,0.725,1.245,1.103,2.065,1.057c0.447,0.156,0.932,0.184,1.352,0.042c1.242-0.42,1.755-1.533,1.527-2.769      c-0.029-0.156-0.055-0.312-0.083-0.468c-0.002-0.011-0.004-0.021-0.005-0.031c0-0.001,0-0.002,0-0.003      c-0.036-0.288-0.072-0.576-0.099-0.865c-0.057-0.604-0.089-1.211-0.095-1.817c-0.006-0.58,0.01-1.161,0.05-1.74      c0.016-0.234,0.015-0.493,0.047-0.735c0,0.026,0.016-0.024,0.038-0.186c0.021-0.157,0.044-0.314,0.069-0.47      c0.185-1.173,0.463-2.331,0.832-3.46c0.09-0.276,0.186-0.55,0.287-0.822c0.017-0.046,0.035-0.092,0.052-0.139      c0.039-0.095,0.078-0.191,0.118-0.285c0.133-0.312,0.275-0.621,0.423-0.927c0.313-0.38,0.54-0.828,0.609-1.318      C265.176,274.187,264.777,273.133,263.666,272.694z"/>
				<path class="st4" d="M157.378,328.844c-1.017-0.239-2.128,0.276-2.549,1.252c-0.04,0.014-0.08,0.028-0.121,0.044      c-1.129,0.468-1.636,1.611-2.099,2.663c-0.639,1.451-1.016,3.063-1.124,4.644c-0.234,3.434,0.699,6.783,2.665,9.602      c0.464,0.665,1.391,0.911,2.197,0.747c0.465,0.09,0.949,0.047,1.344-0.154c1.168-0.596,1.514-1.771,1.109-2.961      c-0.051-0.15-0.1-0.3-0.15-0.451c-0.004-0.011-0.007-0.02-0.01-0.029c0-0.001,0-0.002-0.001-0.003      c-0.077-0.28-0.154-0.559-0.223-0.841c-0.144-0.59-0.263-1.185-0.358-1.785c-0.091-0.573-0.158-1.151-0.203-1.729      c-0.018-0.234-0.056-0.49-0.06-0.734c0.004,0.026,0.012-0.026,0.01-0.189c-0.002-0.158-0.002-0.317,0-0.475      c0.013-1.188,0.12-2.374,0.322-3.544c0.049-0.286,0.104-0.571,0.165-0.855c0.01-0.048,0.021-0.097,0.032-0.145      c0.025-0.1,0.05-0.2,0.076-0.299c0.087-0.329,0.182-0.654,0.284-0.978c0.255-0.421,0.415-0.898,0.411-1.392      C159.088,330.102,158.541,329.117,157.378,328.844z"/>
				<path class="st4" d="M177.086,325.217c-1.017-0.239-2.128,0.276-2.549,1.252c-0.04,0.014-0.08,0.028-0.121,0.044      c-1.129,0.468-1.636,1.611-2.099,2.663c-0.639,1.451-1.016,3.063-1.124,4.644c-0.234,3.434,0.699,6.783,2.665,9.602      c0.464,0.665,1.391,0.911,2.197,0.747c0.465,0.09,0.949,0.047,1.344-0.154c1.168-0.596,1.514-1.771,1.109-2.961      c-0.051-0.15-0.1-0.3-0.15-0.451c-0.004-0.011-0.007-0.02-0.01-0.029c0-0.001,0-0.002-0.001-0.003      c-0.077-0.28-0.154-0.559-0.223-0.841c-0.144-0.59-0.263-1.185-0.358-1.784c-0.091-0.573-0.158-1.151-0.203-1.729      c-0.018-0.234-0.056-0.49-0.06-0.734c0.004,0.026,0.012-0.026,0.01-0.189c-0.002-0.158-0.002-0.317,0-0.475      c0.013-1.188,0.12-2.374,0.322-3.544c0.049-0.286,0.104-0.571,0.165-0.855c0.01-0.048,0.021-0.097,0.032-0.145      c0.025-0.1,0.05-0.2,0.076-0.299c0.087-0.329,0.182-0.654,0.284-0.978c0.255-0.421,0.415-0.898,0.411-1.392      C178.796,326.475,178.249,325.49,177.086,325.217z"/>
				<path class="st4" d="M196.794,321.591c-1.017-0.239-2.128,0.276-2.549,1.252c-0.04,0.014-0.08,0.028-0.121,0.044      c-1.129,0.469-1.636,1.611-2.099,2.663c-0.639,1.451-1.016,3.063-1.124,4.644c-0.234,3.434,0.699,6.783,2.665,9.602      c0.464,0.665,1.391,0.911,2.197,0.747c0.465,0.09,0.949,0.047,1.344-0.154c1.168-0.596,1.514-1.771,1.109-2.961      c-0.051-0.15-0.1-0.3-0.15-0.451c-0.004-0.011-0.007-0.02-0.01-0.029c0-0.001,0-0.002-0.001-0.003      c-0.077-0.28-0.155-0.559-0.223-0.841c-0.144-0.59-0.263-1.185-0.358-1.785c-0.091-0.573-0.158-1.15-0.203-1.729      c-0.018-0.234-0.056-0.49-0.06-0.734c0.004,0.026,0.012-0.026,0.01-0.189c-0.002-0.158-0.002-0.317,0-0.475      c0.013-1.188,0.12-2.374,0.322-3.544c0.049-0.286,0.104-0.571,0.165-0.855c0.01-0.048,0.021-0.097,0.032-0.145      c0.025-0.1,0.05-0.2,0.076-0.299c0.087-0.328,0.182-0.654,0.284-0.978c0.255-0.421,0.415-0.898,0.411-1.392      C198.504,322.849,197.957,321.864,196.794,321.591z"/>
				<path class="st4" d="M216.502,317.964c-1.017-0.239-2.128,0.276-2.549,1.252c-0.04,0.014-0.08,0.028-0.121,0.044      c-1.129,0.468-1.636,1.611-2.099,2.663c-0.639,1.451-1.016,3.063-1.124,4.644c-0.234,3.434,0.699,6.783,2.665,9.602      c0.464,0.665,1.391,0.911,2.197,0.747c0.465,0.09,0.949,0.047,1.344-0.154c1.168-0.596,1.514-1.771,1.109-2.961      c-0.051-0.15-0.1-0.3-0.15-0.451c-0.004-0.011-0.007-0.02-0.01-0.029c0-0.001,0-0.002-0.001-0.003      c-0.077-0.28-0.154-0.559-0.223-0.841c-0.144-0.59-0.263-1.185-0.358-1.785c-0.091-0.573-0.158-1.151-0.203-1.729      c-0.018-0.234-0.056-0.49-0.06-0.734c0.004,0.026,0.012-0.026,0.01-0.189c-0.002-0.158-0.002-0.317,0-0.475      c0.013-1.188,0.12-2.374,0.322-3.544c0.049-0.286,0.104-0.571,0.165-0.855c0.01-0.048,0.021-0.097,0.032-0.145      c0.025-0.1,0.05-0.2,0.076-0.299c0.087-0.329,0.182-0.654,0.284-0.978c0.255-0.421,0.415-0.898,0.411-1.392      C218.212,319.223,217.665,318.238,216.502,317.964z"/>
				<path class="st4" d="M236.21,314.338c-1.017-0.239-2.128,0.276-2.549,1.252c-0.04,0.014-0.08,0.028-0.121,0.044      c-1.129,0.468-1.636,1.611-2.099,2.663c-0.639,1.451-1.016,3.063-1.124,4.644c-0.234,3.434,0.699,6.783,2.665,9.602      c0.464,0.665,1.391,0.911,2.197,0.747c0.465,0.09,0.949,0.047,1.344-0.154c1.168-0.596,1.514-1.771,1.109-2.961      c-0.051-0.15-0.1-0.3-0.15-0.451c-0.004-0.011-0.007-0.02-0.01-0.029c0-0.001,0-0.002-0.001-0.003      c-0.077-0.28-0.154-0.559-0.223-0.841c-0.144-0.59-0.263-1.185-0.358-1.785c-0.091-0.573-0.158-1.15-0.203-1.729      c-0.018-0.234-0.056-0.49-0.06-0.734c0.004,0.026,0.012-0.026,0.01-0.189c-0.002-0.158-0.002-0.317,0-0.475      c0.013-1.188,0.12-2.374,0.322-3.544c0.049-0.286,0.104-0.571,0.165-0.855c0.01-0.048,0.021-0.097,0.032-0.145      c0.025-0.1,0.05-0.2,0.076-0.299c0.087-0.329,0.182-0.654,0.284-0.978c0.255-0.421,0.415-0.898,0.411-1.392      C237.92,315.596,237.373,314.611,236.21,314.338z"/>
				<path class="st4" d="M255.918,310.711c-1.017-0.239-2.128,0.276-2.549,1.252c-0.04,0.014-0.08,0.028-0.121,0.044      c-1.129,0.469-1.636,1.611-2.099,2.663c-0.639,1.451-1.016,3.063-1.124,4.644c-0.234,3.434,0.699,6.783,2.665,9.602      c0.464,0.665,1.391,0.911,2.197,0.747c0.465,0.09,0.949,0.047,1.344-0.154c1.168-0.596,1.514-1.771,1.109-2.961      c-0.051-0.15-0.1-0.3-0.15-0.451c-0.004-0.011-0.007-0.02-0.01-0.029c0-0.001,0-0.002-0.001-0.003      c-0.077-0.28-0.155-0.559-0.223-0.841c-0.144-0.59-0.263-1.185-0.358-1.785c-0.091-0.573-0.158-1.151-0.203-1.729      c-0.018-0.234-0.056-0.49-0.06-0.734c0.004,0.026,0.012-0.026,0.01-0.189c-0.002-0.158-0.002-0.317,0-0.475      c0.013-1.188,0.12-2.374,0.322-3.544c0.049-0.286,0.104-0.571,0.165-0.855c0.01-0.048,0.021-0.097,0.032-0.145      c0.025-0.1,0.05-0.2,0.076-0.299c0.087-0.328,0.182-0.654,0.284-0.978c0.255-0.421,0.415-0.898,0.411-1.392      C257.628,311.97,257.081,310.985,255.918,310.711z"/>
				<path class="st4" d="M275.626,307.085c-1.017-0.239-2.128,0.276-2.549,1.252c-0.04,0.014-0.08,0.028-0.121,0.044      c-1.129,0.468-1.636,1.611-2.099,2.663c-0.639,1.451-1.016,3.063-1.124,4.644c-0.234,3.434,0.699,6.783,2.665,9.602      c0.464,0.665,1.392,0.911,2.197,0.747c0.465,0.09,0.949,0.047,1.344-0.154c1.168-0.596,1.514-1.771,1.109-2.961      c-0.051-0.15-0.1-0.3-0.15-0.451c-0.004-0.011-0.007-0.02-0.01-0.029c0-0.001,0-0.002-0.001-0.003      c-0.077-0.28-0.154-0.559-0.223-0.841c-0.144-0.59-0.263-1.185-0.358-1.785c-0.091-0.573-0.158-1.151-0.203-1.729      c-0.018-0.234-0.056-0.49-0.06-0.734c0.004,0.026,0.012-0.026,0.01-0.189c-0.002-0.158-0.002-0.317,0-0.475      c0.013-1.188,0.12-2.374,0.322-3.544c0.049-0.286,0.104-0.571,0.165-0.855c0.01-0.048,0.021-0.097,0.032-0.145      c0.025-0.1,0.05-0.2,0.076-0.299c0.087-0.329,0.182-0.654,0.284-0.978c0.255-0.421,0.415-0.898,0.411-1.392      C277.336,308.343,276.788,307.358,275.626,307.085z"/>
				<path class="st4" d="M186.183,375.407c-1.041-0.083-2.063,0.593-2.332,1.621c-0.038,0.02-0.075,0.039-0.113,0.062      c-1.046,0.633-1.375,1.839-1.675,2.948c-0.413,1.531-0.544,3.181-0.413,4.76c0.285,3.43,1.711,6.601,4.078,9.093      c0.558,0.588,1.513,0.691,2.284,0.408c0.473,0.019,0.946-0.096,1.306-0.355c1.065-0.765,1.231-1.978,0.652-3.094      c-0.073-0.141-0.144-0.282-0.216-0.423c-0.005-0.01-0.009-0.019-0.014-0.028c0-0.001-0.001-0.002-0.001-0.002      c-0.118-0.265-0.237-0.53-0.347-0.798c-0.231-0.561-0.438-1.132-0.622-1.71c-0.176-0.553-0.329-1.114-0.461-1.679      c-0.053-0.229-0.129-0.476-0.17-0.716c0.008,0.025,0.008-0.027-0.018-0.189c-0.025-0.156-0.049-0.313-0.071-0.47      c-0.166-1.176-0.238-2.365-0.215-3.552c0.006-0.29,0.017-0.58,0.035-0.87c0.003-0.049,0.006-0.099,0.01-0.148      c0.01-0.103,0.019-0.205,0.03-0.307c0.036-0.338,0.082-0.674,0.134-1.01c0.189-0.455,0.275-0.95,0.197-1.438      C188.063,376.394,187.373,375.502,186.183,375.407z"/>
				<path class="st4" d="M205.122,368.859c-1.041-0.083-2.063,0.593-2.332,1.621c-0.038,0.02-0.075,0.039-0.113,0.062      c-1.046,0.633-1.375,1.839-1.675,2.948c-0.413,1.531-0.544,3.181-0.413,4.76c0.285,3.43,1.711,6.601,4.078,9.093      c0.558,0.588,1.513,0.691,2.284,0.408c0.473,0.019,0.946-0.096,1.306-0.354c1.065-0.765,1.231-1.978,0.652-3.094      c-0.073-0.141-0.144-0.282-0.216-0.423c-0.005-0.01-0.01-0.019-0.014-0.028c0-0.001-0.001-0.001-0.001-0.002      c-0.118-0.265-0.237-0.53-0.347-0.798c-0.231-0.561-0.438-1.132-0.622-1.71c-0.176-0.553-0.329-1.114-0.461-1.679      c-0.053-0.229-0.129-0.476-0.17-0.716c0.008,0.025,0.008-0.027-0.018-0.189c-0.025-0.156-0.049-0.313-0.071-0.47      c-0.166-1.176-0.238-2.365-0.215-3.552c0.006-0.29,0.017-0.58,0.035-0.87c0.003-0.049,0.006-0.099,0.01-0.148      c0.01-0.103,0.019-0.205,0.03-0.307c0.036-0.338,0.082-0.674,0.134-1.01c0.189-0.455,0.275-0.95,0.197-1.438      C207.002,369.846,206.312,368.955,205.122,368.859z"/>
				<path class="st4" d="M224.061,362.312c-1.041-0.083-2.063,0.593-2.332,1.621c-0.038,0.02-0.075,0.039-0.113,0.062      c-1.046,0.633-1.375,1.839-1.675,2.948c-0.413,1.531-0.544,3.181-0.413,4.76c0.285,3.43,1.711,6.601,4.078,9.093      c0.558,0.588,1.513,0.691,2.284,0.408c0.473,0.019,0.946-0.096,1.306-0.355c1.065-0.765,1.231-1.978,0.652-3.094      c-0.073-0.141-0.144-0.282-0.216-0.423c-0.005-0.01-0.009-0.019-0.014-0.028c0-0.001-0.001-0.002-0.001-0.002      c-0.118-0.265-0.237-0.53-0.347-0.798c-0.231-0.561-0.438-1.132-0.622-1.71c-0.176-0.553-0.329-1.114-0.461-1.679      c-0.053-0.229-0.129-0.476-0.17-0.716c0.008,0.025,0.008-0.028-0.018-0.189c-0.025-0.156-0.049-0.313-0.071-0.47      c-0.166-1.176-0.238-2.365-0.215-3.552c0.006-0.29,0.017-0.58,0.035-0.87c0.003-0.049,0.006-0.099,0.009-0.148      c0.01-0.102,0.019-0.205,0.03-0.307c0.036-0.338,0.082-0.674,0.134-1.01c0.189-0.455,0.275-0.95,0.197-1.438      C225.941,363.299,225.252,362.408,224.061,362.312z"/>
				<path class="st4" d="M243,355.765c-1.041-0.083-2.063,0.593-2.332,1.621c-0.038,0.02-0.075,0.039-0.113,0.062      c-1.046,0.633-1.375,1.839-1.675,2.948c-0.413,1.531-0.544,3.181-0.413,4.76c0.285,3.43,1.711,6.601,4.078,9.093      c0.558,0.588,1.513,0.691,2.284,0.408c0.473,0.019,0.946-0.096,1.306-0.354c1.065-0.765,1.231-1.978,0.652-3.094      c-0.073-0.141-0.144-0.282-0.216-0.423c-0.005-0.01-0.009-0.019-0.014-0.028c0-0.001-0.001-0.002-0.001-0.002      c-0.118-0.265-0.237-0.53-0.347-0.798c-0.231-0.561-0.438-1.132-0.622-1.71c-0.176-0.553-0.329-1.114-0.461-1.679      c-0.053-0.229-0.129-0.476-0.17-0.716c0.008,0.025,0.008-0.028-0.018-0.189c-0.025-0.156-0.049-0.313-0.071-0.47      c-0.166-1.176-0.238-2.365-0.215-3.552c0.006-0.29,0.017-0.58,0.035-0.87c0.003-0.049,0.006-0.099,0.01-0.148      c0.01-0.103,0.019-0.205,0.03-0.308c0.036-0.338,0.082-0.674,0.134-1.01c0.189-0.455,0.275-0.95,0.197-1.438      C244.88,356.752,244.191,355.86,243,355.765z"/>
				<path class="st4" d="M261.939,349.218c-1.041-0.083-2.063,0.593-2.332,1.621c-0.038,0.02-0.075,0.039-0.113,0.062      c-1.046,0.633-1.375,1.839-1.675,2.948c-0.413,1.531-0.544,3.181-0.413,4.76c0.285,3.43,1.711,6.601,4.078,9.093      c0.558,0.588,1.513,0.691,2.284,0.408c0.473,0.019,0.946-0.096,1.306-0.354c1.065-0.765,1.231-1.978,0.652-3.094      c-0.073-0.141-0.144-0.282-0.216-0.423c-0.005-0.01-0.009-0.019-0.014-0.028c0-0.001-0.001-0.002-0.001-0.002      c-0.118-0.265-0.237-0.53-0.347-0.798c-0.231-0.561-0.438-1.132-0.622-1.71c-0.176-0.553-0.329-1.114-0.461-1.679      c-0.053-0.229-0.129-0.476-0.17-0.716c0.008,0.025,0.008-0.028-0.018-0.189c-0.025-0.156-0.049-0.313-0.071-0.47      c-0.166-1.176-0.238-2.365-0.215-3.552c0.006-0.29,0.017-0.58,0.035-0.87c0.003-0.049,0.006-0.099,0.01-0.148      c0.01-0.103,0.019-0.205,0.03-0.307c0.036-0.338,0.082-0.674,0.134-1.01c0.188-0.455,0.275-0.95,0.197-1.438      C263.819,350.205,263.13,349.313,261.939,349.218z"/>
				<path class="st4" d="M280.878,342.67c-1.041-0.083-2.063,0.593-2.332,1.621c-0.038,0.02-0.075,0.039-0.113,0.062      c-1.046,0.633-1.375,1.839-1.675,2.948c-0.413,1.531-0.544,3.181-0.413,4.76c0.285,3.43,1.711,6.601,4.078,9.093      c0.558,0.588,1.513,0.691,2.284,0.408c0.473,0.019,0.946-0.096,1.306-0.354c1.065-0.765,1.231-1.978,0.652-3.094      c-0.073-0.141-0.144-0.282-0.216-0.423c-0.005-0.01-0.009-0.019-0.014-0.028c0-0.001-0.001-0.002-0.001-0.002      c-0.118-0.265-0.237-0.53-0.347-0.798c-0.231-0.561-0.438-1.132-0.622-1.71c-0.176-0.553-0.329-1.114-0.461-1.679      c-0.053-0.229-0.129-0.476-0.17-0.716c0.008,0.025,0.008-0.028-0.018-0.189c-0.025-0.156-0.049-0.313-0.071-0.47      c-0.166-1.176-0.238-2.365-0.215-3.552c0.006-0.29,0.017-0.58,0.035-0.87c0.003-0.049,0.006-0.099,0.009-0.148      c0.01-0.103,0.019-0.205,0.03-0.307c0.036-0.338,0.082-0.674,0.134-1.01c0.189-0.455,0.275-0.95,0.197-1.438      C282.758,343.657,282.069,342.766,280.878,342.67z"/>
			</g>
			<g>
				<path class="st5" d="M318.572,220.201c-5.279,9.813-7.733,20.928-8.857,31.937c-1.199,11.742-0.68,23.582,0.275,35.321      c0.965,11.871,2.391,23.703,3.098,35.594c0.327,5.487,0.504,11.035,0.396,16.562c4.534-8.625,8.349-19.572,9.325-33.041      c0.47-6.488,0.887-15.154,0.229-20.508c-1.617-13.166-1.543-26.512-1.136-39.784c0.199-6.493,0.689-13.001,1.73-19.416      c0.905-5.576,2.291-11.188,5.001-16.185c1.717-3.167,3.942-5.796,6.509-8.018C327.982,206.554,322.446,213,318.572,220.201z"/>
			</g>
			<path class="st1" d="M339.879,270.897c-3.374,0.366-6.806,0.017-10.02-1.056c3.123-1.311,5.39-4.502,5.267-7.983     c-0.018-0.521-0.557-0.829-1.017-0.583c-6.864,3.672-15.285,2.907-22.1-0.484c-5.438-2.706-9.687-7.063-12.858-12.14     c-0.784-2.114-1.724-4.176-2.607-6.248c-1.171-2.75-2.342-5.5-3.514-8.25c-0.121-0.38-2.163-5.078-2.396-5.626     c-0.686-1.61-1.472-3.633-3.274-4.274c-1.763-0.628-3.211,0.667-3.773,2.239c-0.631,1.767-0.418,3.797-0.27,5.627     c0.171,2.106,0.494,4.203,0.961,6.263c1.885,8.305,6.109,16.022,11.84,22.295c5.631,6.164,12.681,10.972,20.306,14.327     c1.911,0.841,3.857,1.6,5.836,2.266c2.252,0.758,4.573,1.383,6.954,1.533c3.928,0.247,8.165-1.143,10.338-4.623     c0.464-0.743,0.797-1.571,0.977-2.428C340.613,271.367,340.345,270.847,339.879,270.897z"/>
			<path class="st6" d="M403.362,163.671c-0.561-0.464-1.178-0.832-1.866-1.077c-0.647-0.23-1.315-0.318-1.998-0.239     c-0.337,0.039-0.695,0.128-0.99,0.304c-0.324,0.194-0.4,0.445-0.62,0.714c-0.039,0.047-0.028,0.121,0.037,0.14     c0.231,0.065,0.451,0.255,0.686,0.34c0.231,0.084,0.483,0.132,0.724,0.184c0.485,0.106,0.988,0.226,1.449,0.414     c0.443,0.181,0.881,0.428,1.241,0.742c0.197,0.172,0.38,0.363,0.545,0.566c0.273,0.335,0.467,0.482,0.87,0.65     c0.559,0.233,1.067-0.341,1.099-0.837C404.59,164.785,403.928,164.14,403.362,163.671z"/>
			<path class="st4" d="M295.022,148.739c0.074-2.666-2.497-4.92-4.721-5.979c-2.52-1.201-5.36-1.218-7.869,0.028     c-1.181,0.586-2.194,1.466-2.96,2.535c-0.877,1.224-1.11,2.637-1,4.115c0.224,3.014,1.665,5.698,3.774,7.827     c1.19,1.201,2.539,2.244,3.923,3.209c1.498,1.045,3.084,1.949,4.805,2.574c0.522,0.19,0.926-0.559,0.536-0.921     c-0.363-0.337-0.662-0.738-0.997-1.102c-0.377-0.409-0.784-0.792-1.172-1.19c-0.735-0.753-1.457-1.519-2.158-2.305     c-1.187-1.331-2.391-2.686-3.046-4.371c-0.53-1.362-0.723-2.986-0.148-4.369c0.712-1.713,2.663-2.081,4.323-1.899     c2.162,0.237,4.236,1.124,5.986,2.396C294.699,149.579,295.096,149.132,295.022,148.739z"/>
			<path class="st4" d="M335.717,160.546c-0.388,0.032-0.772,0.04-1.162,0.02c-0.196-0.01-0.395-0.014-0.59-0.036     c-0.219-0.025-0.322-0.117-0.528-0.199c-0.781-0.308-1.792-0.107-2.619-0.169c-1.555-0.115-3.118-0.543-4.511-1.244     c-3.188-1.605-5.249-4.574-6.885-7.65c-3.258-6.127-4.557-13.712-1.481-20.176c0.734-1.543,1.668-3.008,2.816-4.276     c0.592-0.653,1.181-1.31,1.789-1.948c0.622-0.652,1.247-1.342,1.99-1.856c0.269-0.186,0.114-0.691-0.238-0.565     c-0.797,0.286-1.628,0.52-2.378,0.921c-0.76,0.406-1.487,0.893-2.132,1.467c-1.259,1.123-2.305,2.623-3.122,4.088     c-1.775,3.18-2.645,6.8-2.609,10.436c0.041,4.082,1.154,8.086,2.909,11.753c1.679,3.51,3.96,7.062,7.349,9.128     c1.753,1.068,3.724,1.71,5.754,1.967c0.991,0.126,2.147,0.256,3.113-0.051c0.315-0.1,0.475-0.269,0.732-0.448     c0.173-0.12,0.396-0.182,0.587-0.273c0.435-0.207,0.854-0.453,1.268-0.697C335.854,160.69,335.824,160.537,335.717,160.546z"/>
			<path class="st4" d="M367.16,154.023c-0.692,0.308-1.435,0.429-2.17,0.592c-0.716,0.159-1.407,0.407-2.129,0.551     c-1.392,0.277-2.864,0.214-4.242-0.111c-2.953-0.696-5.443-2.652-7.263-5.032c-1.992-2.605-3.583-5.9-3.977-9.176     c-0.338-2.813,0.335-5.654,1.736-8.108c0.806-1.413,1.838-2.657,3.03-3.762c0.592-0.548,1.123-1.173,1.744-1.688     c0.619-0.514,1.235-1.026,1.854-1.54c0.127-0.105,0.026-0.35-0.139-0.335c-0.736,0.067-1.548,0.245-2.227,0.54     c-0.719,0.312-1.473,0.622-2.115,1.08c-1.349,0.962-2.469,2.317-3.383,3.685c-1.798,2.689-2.831,5.975-2.689,9.222     c0.164,3.734,1.757,7.483,3.879,10.523c2.009,2.878,4.749,5.332,8.144,6.405c1.869,0.59,3.855,0.721,5.787,0.419     c0.911-0.142,1.905-0.36,2.654-0.914c0.755-0.558,1.306-1.25,1.823-2.03C367.622,154.128,367.353,153.937,367.16,154.023z"/>
			<g>
				<g>
					<ellipse class="st6" cx="332.797" cy="140.236" rx="16.622" ry="21.142"/>
					<ellipse class="st6" cx="361.229" cy="139.895" rx="14.823" ry="15.941"/>
					<path class="st1" d="M347.28,138.389c0,1.852-1.501,3.354-3.354,3.354c-1.852,0-3.353-1.501-3.353-3.354       c0-1.852,1.501-3.353,3.353-3.353C345.779,135.035,347.28,136.537,347.28,138.389z"/>
					<path class="st1" d="M374.108,140.916c0,1.423-1.153,2.576-2.576,2.576c-1.423,0-2.576-1.153-2.576-2.576       s1.153-2.576,2.576-2.576S374.108,139.493,374.108,140.916z"/>
				</g>
				<path class="st7" d="M342.158,124.394c-1.114-1.058-2.41-1.868-3.835-2.434c-1.474-0.586-3.112-0.83-4.694-0.741      c-0.829,0.047-1.656,0.175-2.455,0.403c-0.797,0.228-2.111,2.16-1.715,2.26c0.739,0.187,1.477-0.04,2.191-0.226      c0.675-0.176,1.364-0.287,2.06-0.32c1.36-0.066,2.712,0.14,3.98,0.643c1.097,0.435,2.112,1.105,2.967,1.915      c0.429,0.407,0.833,0.848,1.175,1.33c0.268,0.378,0.483,0.822,0.962,0.964C343.013,128.253,342.684,124.894,342.158,124.394z"/>
				<path class="st7" d="M373.259,132.154c-0.575-1.334-1.515-2.509-2.578-3.489c-2.151-1.982-4.969-3.294-7.931-3.229      c-0.844,0.018-1.7,0.141-2.508,0.388c-0.835,0.255-2.213,2.693-1.559,2.676c0.817-0.022,1.564-0.511,2.352-0.706      c0.749-0.185,1.511-0.254,2.281-0.222c1.49,0.061,2.921,0.568,4.188,1.34c1.243,0.758,2.396,1.787,3.203,3.005      c0.204,0.307,1.462,2.582,1.594,2.919c0.156,0.401,0.2,0.782,0.198,1.211c-0.001,0.159,0.803-1.086,0.939-1.696      c0.075-0.338,0.196-0.647,0.182-1.004C373.603,132.925,373.423,132.534,373.259,132.154z"/>
				<path class="st7" d="M346.163,136.768c-0.452-0.543-1.081-0.743-1.765-0.64c-0.489,0.073-0.595,0.675-0.422,1.038      c0.17,0.358,0.428,0.674,0.632,0.97c0.239,0.348,0.375,0.765,0.81,1.004c0.403,0.221,0.994,0.119,1.218-0.319      C347.022,138.061,346.661,137.366,346.163,136.768z"/>
				<path class="st7" d="M373.722,140.574c-0.037-0.493-0.257-0.865-0.581-1.224s-0.701-0.538-1.184-0.539      c-0.689-0.001-1.163,0.788-0.797,1.388c-0.068-0.186-0.046-0.139,0.066,0.14c0.062,0.099,0.136,0.189,0.221,0.268      c0.062,0.063,0.128,0.121,0.19,0.184c0.009,0.01,0.017,0.017,0.024,0.024c0.004,0.012,0.011,0.027,0.021,0.049      c0.077,0.161,0.18,0.297,0.299,0.43C372.551,141.931,373.787,141.449,373.722,140.574z"/>
			</g>
		</g>
	</g>
</g>
</svg>
