<svg id="Layer_1" height="512" viewBox="0 0 1000 1000" width="512" xmlns="http://www.w3.org/2000/svg"><g><path d="m817.21 516.975c-9.344 0-19.82 3.135-31.269 9.381-14.052 7.813-30.588 15.787-47.966 16.875-.182-2.424-.381-4.826-.596-7.209-2.67-29.449-7.264-62.262-20.252-90.428 31.59-19.623 59.331-44.627 80.977-73.109l1.75-2.293c15.138-19.807 40.476-52.957 27.805-83.053-5.184-12.309-15.536-19.658-27.692-19.658-19.928 0-37.112 20.383-41.904 26.629-18.093 23.584-36.532 46.125-60.755 62.779-2.58-6.004-5.637-12-9.148-17.959 5.407-25.4-2.27-52.74-20.302-70.186-10.152-9.816-23.487-15.008-38.564-15.008-10.144 0-20.513 2.42-29.943 6.797 7.759-40.691 28.759-87.797 63.01-112.816 4.862-3.549 10.187-6.246 15.817-8.041-13.879 16.357-14.668 41.182-6.223 59.02 5.676 11.975 14.938 20.908 26.771 25.818 7.256 3.021 14.939 4.557 22.837 4.557 19.707 0 38.808-9.805 51.095-26.229 12.248-16.375 16.479-37.777 11.604-58.727-9.229-39.652-53.749-57.715-91.21-57.715-2.193 0-4.336.068-6.418.193-61.078 3.732-102.971 59.873-124.511 119.328-2.265-43.98-16.997-87.504-41.927-117.609-17.649-21.312-50.496-36.783-78.101-36.783-27.043 0-47.706 14.125-56.696 38.752-9.354 25.627-5.554 60.076 19.809 76.348 8.444 5.414 18.358 8.279 28.668 8.279 18.507 0 35.007-9.066 44.14-24.246 5.395-8.971 7.775-17.035 8.398-24.006 22.752 29.93 29.759 80.17 22.821 120.051-12.005-15.547-28.944-24.203-48.15-24.203-2.829 0-5.736.188-8.635.557-27.028 3.449-46.472 21.57-53.336 49.111-6.741 4.395-14.075 10.105-20.967 16.869-6.622-13.686-11.241-29.152-16.028-45.189-3.969-13.293-8.072-27.037-13.517-40.16-5.305-12.791-21.486-30.807-40.845-30.807-12.674 0-23.348 7.811-28.554 20.898-9.177 23.08-3.099 49.602 1.788 70.91.564 2.465 1.113 4.852 1.611 7.141 6.78 31.104 19.798 60.27 40.501 90.4-32.614 20.656-52.765 52.238-67.602 83.387-10.813-7.139-20.825-18.318-32.048-35.359-4.502-6.75-18.201-27.303-40.602-27.303-5.736 0-11.428 1.363-16.917 4.047-7.566 3.701-30.919 19.227-13.741 63.584.191.5.393.977.609 1.439.083.215.164.418.24.602 8.928 20.99 20.043 38.377 33.045 51.666 10.606 10.848 23.682 18.592 36.711 24.627-10.273 32.412-16.305 62.303-18.286 90.621-10.007 3.742-20.593 8.914-30.7 16.92-15.094 11.949-18.006 29.627-20.131 42.535-.328 1.982-.646 3.936-1.01 5.82-8.189 42.432-6.512 87.369 4.718 126.523 4.709 16.438 13.472 47.027 42.581 47.027 2.086 0 4.232-.18 6.379-.539 18.799-3.148 30.114-20.152 28.828-43.322-.016-.271-.036-.535-.061-.801-.592-6.107-1.678-13.129-2.935-21.26-1.628-10.533-4.03-26.063-4.81-40.84 14.342 33.379 35.074 66.547 61.402 97.961 43.021 51.332 93.955 77.961 151.395 79.148 1.275.027 2.557.041 3.832.041 65.15 0 124.659-34.279 163.109-63.031 12.586-9.412 24.377-19.662 35.322-30.689-4.662 9.605-10.684 20.773-18.066 33.496l-3.337 5.766c-6.615 11.459-26.745 46.332 2.971 67.703 5.878 4.232 12.688 6.467 19.696 6.467 12.241 0 24.137-6.471 35.354-19.234.114-.131.225-.262.337-.393 30.103-36.135 50.55-75.879 60.774-118.121 9.242-38.191 1.676-66.979-24.555-91.557 10.119-27.412 17.053-56.725 20.705-87.51 34.145-.584 63.745-11.945 92.938-35.619.187-.152.371-.311.554-.467 28.765-25.148 26.683-45.953 19.869-58.979-6.519-12.465-18.351-19.615-32.461-19.615z" fill="#fff"/><g><path d="m795.456 543.473c-23.946 13.313-48.268 23.066-76.039 18.184-.313-7.943-.818-15.902-1.54-23.867-3.038-33.547-8.491-71.494-27.146-99.535 35.547-19.092 67.329-45.441 91.786-77.619 11.682-15.367 35.78-45.271 27.096-65.895-8.188-19.443-29.814 3.205-36.015 11.287-25.725 33.533-50.303 62.121-87.999 80.232-.045-2.086-.323-4.223-.927-6.426-3.708-13.588-10.006-26.234-17.751-37.945.165-.305.319-.619.438-.98 6.52-19.576 1.892-43.57-13.116-58.086-16.573-16.029-44.667-9.863-59.94 4.303-5.754-1.975-11.599-3.729-17.499-5.297 3.791-53.455 30.015-117.795 74.006-149.924 23.409-17.098 54.026-18.885 79.611-6.004 30.893 15.553 34.659 61.471-2.433 71.535-18.43 3.072-32.719-8.904-30.101-28.135 1.324-9.725 10.845-17.877 20.843-16.074 11.414 2.061 10.838 17.18-1.66 16.334-7.414-.504-5.988 4.615 1.149 6.508 12.282 3.26 24.963-6.697 19.329-20.287-6.977-16.83-26.3-16.9-39.502-7.885-13.127 8.965-14.77 28.959-8.396 42.414 3.812 8.047 9.646 13.24 16.602 16.129 17.646 7.348 38.438 1.098 50.724-15.328 8.653-11.566 11.833-27.006 8.215-42.557-7.43-31.924-49.397-44.119-77.363-42.416-75.429 4.611-116.712 107.676-122.343 172.869-10.314-2.375-20.619-4.326-30.621-6.104 16.912-54.184 6.416-128.43-29.749-172.104-22.199-26.809-84.869-48.881-101.323-3.805-6.131 16.799-4.91 42.311 11.986 53.15 14.515 9.309 36.059 6.043 45.457-9.58 24.451-40.643-37.542-53.469-31.419-15.543 1.183 7.318 7.877 6.518 6.706-.742-1.752-10.848 25.836-14.045 16.949 6.854-3.993 9.391-15.445 14.162-25.283 12.553-20.494-3.359-17.803-34.643-11.435-46.988 13.647-26.443 53.894-11.217 70.59 2.672 43.731 36.375 52.727 119.445 36.122 171.604-7.805-1.178-15.715-2.031-23.65-2.473-8.945-18.146-24.295-28.648-44.889-26.018-22.631 2.889-35.029 19.6-38.144 41.254-.038.266-.027.514-.034.77-.58.314-1.176.59-1.752.914-13.548 7.609-29.668 21.496-38.564 37.184-26.172-31.145-30.777-74.908-45.918-111.412-4.719-11.379-25.38-29.625-33.115-10.174-7.857 19.756.007 46.785 4.336 66.646 8.407 38.568 26.846 70.904 50.702 101.438-5.089 2.109-10.157 4.502-15.189 7.441-35.992 21.043-56.129 57.912-72.017 95.209-26.281-8.338-43.291-28.189-58.07-50.631-7.406-11.107-18.213-23.574-32.622-16.527-14.188 6.939-8.272 28.107-4.057 38.996.11.287.257.531.396.783.063.197.102.395.188.594 6.979 16.414 16.469 32.803 29.021 45.639 12.536 12.816 30.563 20.953 47.073 27.271-13.322 37.664-22.801 76.49-23.721 116.031-13.625 4.02-26.215 8.994-37.469 17.904-10.934 8.656-11.627 24.047-14.07 36.715-7.326 37.967-6.504 79.701 4.314 117.422 5.061 17.66 10.889 35.244 26.901 32.568 10.872-1.82 13.02-13.77 12.511-22.928-3.023-31.26-22.861-105.395 13.259-122.658 11.448 53.217 40.337 102.816 74.898 144.057 35.866 42.797 79.967 70.979 136.79 72.152 56.166 1.154 110.965-26.307 154.813-59.096 27.948-20.898 50.74-45.379 68.829-72.439 25.507 20.766-7.976 74.828-25.892 105.904-6.645 11.521-18.479 31.383-2.883 42.598 10.566 7.605 22.033-1.982 28.902-9.799 26.8-32.17 46.91-69.375 56.788-110.193 8.716-36.02.183-59.127-28.896-81.002 14.884-35.654 23.429-74.121 26.359-113.736 38.225 3.57 68.152-6.082 98.32-30.551 9.12-7.975 22.348-21.893 15.408-35.16-7.799-14.914-25.422-8.441-36.865-2.195z" fill="#68182b"/><path d="m395.358 528.16c26.467 5.432 32.367 35.529 25.682 57.498-6.663 21.896-28.238 39.941-51.709 36.568-30.738-4.412-39.566-36.012-31.582-61.775 8.926-22.771 33.359-37.265 57.609-32.291z" fill="#808080"/><path d="m617.929 640.012c-43.715 50.941-121.809-7.586-85.306-66.41 19.678-26.121 51.225-30.744 75.288-7.623 20.044 19.261 29.145 51.75 10.018 74.033z" fill="#808080"/><path d="m490.225 386.188c-13.353-3.408-26.719-6.875-40.22-9.668-32.262-6.68-65.598-11.061-95.888 3.785 32.251 12.076 39.534 57.732 18.786 86.184-24.678 33.838-71.012 21.813-88.553-10.322-21.99 42.379-40.479 92.73-47.247 141.365 20.987-6.635 37.71 19.252 42.315 38.174 7.746 31.822-1.019 62.211-32.9 74.91-.227.092-.436.127-.654.189 13.107 43.494 36.519 84.307 66.059 118.047 22.838 26.08 49.166 52.023 83.388 61.963 2.864.832 5.757 1.516 8.648 2.191 20.989-88.936 39.185-178.598 58.497-267.902 16.7-77.232 29.438-156.768 50.327-233.041-7.547-1.885-15.059-3.901-22.558-5.875zm-118.079 382.007c-9.563 7.727-20.394 10.025-30.684 8.207-19.869-3.508-37.668-23.129-40.061-47.082-1.357-13.568 2.827-27.033 15.458-36.104 21.452-15.408 47.427-6.107 62.681 13.158 15.287 19.304 11.491 46.562-7.394 61.821zm58.613-175.746c-9.691 26.102-39.531 49.633-68.492 39.928-20.443-6.85-33.033-21.381-37.321-39.15-6.179-25.598 3.204-49.43 25.134-65.836 14.969-11.203 34.15-16.475 52.083-9.207 30.5 12.359 39.518 44.847 28.596 74.265z" fill="#ff5671"/><path d="m367.556 757.006c-14.723 15.107-34.362 8.24-46.098-6.129-10.014-15.025-13.801-33.658.663-47.209 13.724-12.857 33.485-5.91 45.029 5.766 13.574 13.726 13.751 33.882.406 47.572z" fill="#808080"/><path d="m706.568 527.549c-25.174 22.994-67.935 10.775-79.637-23.379-12.124-35.393 15.446-69.199 50.013-66.23-8.711-10.633-19.754-18.85-33.789-23.4-30.001-9.723-62.339-11.262-93.49-15.184-8.635-1.088-17.18-2.729-25.672-4.641-20.958 76.4-33.703 156.08-50.434 233.447-19.256 89.033-37.4 178.422-58.308 267.088 23.852 3.895 48.256 2.697 71.858-3.652 60.896-16.393 116.979-54.508 156.504-103.672-25.897-13.695-24.204-58.232-10.867-79.406 11.599-18.406 41.313-36.037 62.783-25.014 7.969-29.416 11.989-60.039 12.678-90.418.421-18.502.603-41.817-1.639-65.539zm-144.71 277.529c-15.6 13.959-40.245 26.314-61.112 16.479-21.801-10.281-26.354-32.674-19.348-52.043 8.177-22.6 32.417-35.85 59.899-34.01 13.259.891 25.705 5.576 33.094 15.359 13.51 17.895 2.247 40.989-12.533 54.215zm67.451-160.81c-17.061 22.756-52.157 33.279-78.568 22.104-30.009-12.705-43.116-44.783-37.391-74.475 4.844-25.137 15.347-41.461 46.683-50.547 17.568-5.096 36.655-2.117 52.293 12.904 24.158 23.215 38.868 60.812 16.983 90.014z" fill="#ff5671"/><path d="m543.925 747.436c6.943.9 13.339 3.148 18.135 7.033 13.632 11.041 4.602 28.51-4.719 38.861-10.607 11.779-26.527 20.373-42.584 20-9.779-.229-16.799-6.385-21.695-14.279-3.852-6.211-4.734-12.691-3.635-18.91 3.941-22.358 29.999-35.875 54.498-32.705z" fill="#808080"/><path d="m691.347 524.898c-20.346 10.723-46.877-5.018-54.779-28.072-7.158-20.898 5.408-38.178 22.736-44.523 21.24-7.775 30.775 5.334 35.457 18.17 2.736 7.506 4.947 15.402 6.729 23.516 3.354 15.304 3.772 23.579-10.143 30.909z" fill="#808080"/><path d="m743.914 360.539c17.533-16.213 28.896-36.863 44.643-54.439 5.296-5.91 12.728-7.174 10.138 3.395-1.484 6.059-5.037 11.896-8.02 17.324-5.331 9.701-11.794 18.92-18.099 28.006-21.704 31.27-55.513 56.486-88.786 74.146-3.953-4.627-8.368-8.887-13.336-12.668 4.381-4.895 8.736-10.174 11.653-15.947 23.056-9.733 43.287-22.69 61.807-39.817z" fill="#a98053"/><path d="m648.24 293.035c9.106 8.811 11.692 23.836 9.838 36.631-.897-1.143-1.78-2.299-2.703-3.418-12.97-15.777-29.964-26.594-48.627-34.428 12.455-8.552 29.916-9.988 41.492 1.215z" fill="#f9c035"/><path d="m453.038 254.488c14.432-4.008 25.761 2.613 33.258 13.682-19.426.152-38.704 3.146-56.626 10.293 3.294-11.801 9.995-20.26 23.368-23.975z" fill="#f9c035"/><path d="m447.896 283.982c26.46-7.533 57.715-4.588 84.489.111 31.999 5.617 66.448 13.227 93.858 31.221 14.486 9.508 25.476 23.508 34.428 38.078 13.564 22.078 16.384 37.076-.086 56.545-2.298-1.289-4.613-2.563-7.107-3.678-22.95-10.258-48.839-11.486-73.417-14.563-29.583-3.705-57.968-9.031-86.773-16.609-35.642-9.105-71.256-18.502-106.009-14.795-.025-.027-.038-.059-.063-.086-28.817-31.71 37.912-69.743 60.68-76.224z" fill="#ff801d"/><path d="m306.255 218.879c-.704-21.637 12.657-7.053 16.992 5.469 5.104 14.715 9.15 29.871 13.924 44.707 7.315 22.73 17.855 47.631 34.193 65.289-2.738 9.344-2.312 18.924 3.145 27.904-3.609.748-7.203 1.695-10.789 2.779-33.565-41.951-55.698-91.82-57.465-146.148z" fill="#a98053"/><path d="m360.276 396.99c15.61 13.74 16.258 41.92 4.853 60.715-15.322 25.252-46.169 20.934-63.403 3.053-10.703-11.104-7.934-23.926 2.995-38.361 5.979-7.889 12.655-15.193 20.005-21.777 14.593-13.079 23.961-13.825 35.55-3.63z" fill="#808080"/><path d="m250.933 507.059c-15.811-6.021-32.447-14.1-44.439-26.369-10.904-11.148-18.955-26.35-25.08-40.602-2.627-6.75-6.555-16.285-3.17-23.291 4.877-10.109 16.408 6.283 18.979 10.137 16.189 24.588 35.097 46.076 63.569 55.484-1.534 3.76-3.047 7.51-4.526 11.234-1.779 4.475-3.499 8.971-5.188 13.479-.054-.024-.091-.055-.145-.072z" fill="#a98053"/><path d="m253.285 611.666c8.383 6.871 13.784 21.982 15.864 30.523 4.148 17.041 1.369 34.135-9.172 45.963-10.376 11.643-17.191 15.744-21.529-7.992-2.391-13.088-3.809-26.318-4.104-39.59-.102-4.668-.047-9.387.142-14.139.681-17.302 9.048-22.743 18.799-14.765z" fill="#808080"/><path d="m199.085 726.506c-4.674 30.479 2.121 59.035 5.028 89.086.196 3.549.43 11.352-3.202 11.68-3.971.361-6.184-3.598-7.844-7.203-11.771-30.65-15.018-63.516-13.372-96.104.891-17.639.625-43.652 9.926-59.344 6.226-10.5 21.808-15.375 33.802-18.775.25 11.742 1.309 23.549 3.26 35.398-22.637 8.02-23.772 20.324-27.598 45.262z" fill="#a98053"/><path d="m636.516 760.348c-3.665-13.799-.594-31.176 3.929-41.727 4.661-10.875 17.883-22.127 31.375-25.666 20.839-5.469 18.189 9.336 14.824 18.381-6.378 17.152-14.291 33.686-23.852 49.299-8.636 14.103-20.609 21.004-26.276-.287z" fill="#808080"/><path d="m713.896 773.029c1.696 16.768-5.019 36.402-10.152 52.215-9.798 30.172-27.314 58.645-47.542 82.926-2.844 3.234-9.041 11.514-14.215 8.531-4.393-2.535-2.328-10.461-.828-14.445 14.281-29.277 30.586-56.914 40.834-88.021 6.656-20.207 5.545-34.287-11.525-46.416 6.338-10.332 12.002-21.018 17.059-31.98 12.237 9.249 24.745 21.167 26.369 37.19z" fill="#a98053"/><path d="m808.774 572.688c-27.456 22.271-54.933 30.326-89.49 27.244.412-8.832.566-17.709.441-26.619 29.599 4.264 55.647-5.5 81.541-19.9 4.713-2.572 17.92-10.264 21.041-1.965 2.887 7.681-8.703 17.017-13.533 21.24z" fill="#a98053"/><g fill="#de3f58"><path d="m514.987 584.719c-.16.346-.324.701-.482 1.029-8.324 17.383-5.435 40.688 2.404 57.688 17.598 38.174 68.09 49.344 100.826 22.463 25.137-20.643 30.959-52.803 16.875-79.301 7.738 18.902 8.058 39.846-5.302 57.67-17.061 22.756-52.157 33.279-78.568 22.104-30.009-12.705-43.116-44.783-37.391-74.475.48-2.489 1.035-4.864 1.638-7.178z"/><path d="m395.311 890.814c2.864.832 5.757 1.516 8.648 2.191 20.989-88.936 39.185-178.598 58.497-267.902 8.816-40.777 16.553-82.184 24.941-123.424-3.755 13.707-7.48 27.43-11.219 41.146-13.921 51.088-27.885 102.229-44.941 152.377-12.57 36.965-26.131 78.596-52.072 108.697-31.236 36.244-69.414.008-89.024-29.66-14.178-21.453-24.074-45.504-31.249-70.254-3.67 2.537-7.752 4.791-12.373 6.629-.227.092-.436.127-.654.189 13.107 43.494 36.519 84.307 66.059 118.047 22.837 26.082 49.165 52.025 83.387 61.964z"/><path d="m492.298 824.65c23.132 17.332 60.102-3.656 75.84-21.916 6.556-7.604 10.697-17.053 11.372-26.008-2.448 10.768-9.503 21.057-17.651 28.352-15.6 13.959-40.245 26.314-61.112 16.479-20.146-9.498-25.538-29.336-20.718-47.582-11.005 15.164-1.132 40.632 12.269 50.675z"/><path d="m436.835 563.297c-.914-4.137-2.258-7.875-3.92-11.293 3.623 12.619 2.892 26.85-2.156 40.445-9.691 26.102-39.531 49.633-68.492 39.928-20.443-6.85-33.033-21.381-37.321-39.15-5.792-23.992 2.089-46.43 21.155-62.66-22.297 13.5-33.224 45.008-28.488 69.744 6.604 34.49 43.811 50.117 75.022 39.631 31.231-10.493 51.301-44.462 44.2-76.645z"/><path d="m707.357 537.371c-.225-3.262-.479-6.535-.789-9.822-25.174 22.994-67.935 10.775-79.637-23.379-4.727-13.797-3.364-27.324 2.04-38.555-8.473 14.307-10.227 32.498-4 48.957 10.762 28.447 44.307 41.637 71.79 29.35 4.006-1.789 7.498-4.024 10.596-6.551z"/><path d="m643.614 787.926c-5.896-3.117-10.299-7.889-13.521-13.564-14.011 12.35-29.108 23.57-44.531 34.176-16.348 11.242-33.582 21.52-51.977 29.043-14.402 5.896-31.337 10.664-46.668 5.666-20.394-6.643-23.363-31.377-24.537-49.475-2.398-36.936 2.594-74.094 8.722-110.436 5.97-35.404 13.585-70.51 18.788-106.047 5.354-36.582 10.469-73.055 16.984-109.465.91-5.102 1.834-10.195 2.754-15.297-13.213 58.273-23.521 117.605-36.068 175.635-19.256 89.033-37.4 178.422-58.308 267.088 23.852 3.895 48.256 2.697 71.858-3.652 60.896-16.393 116.98-54.508 156.504-103.672z"/><path d="m298.899 748.52c7.104 28.648 35.813 45.648 63.193 33.096 17.205-7.889 25.664-23.525 26.13-40.318-1.884 10.213-7.345 19.842-16.077 26.898-9.563 7.727-20.394 10.025-30.684 8.207-19.869-3.508-37.668-23.129-40.061-47.082-1.086-10.848 1.46-21.588 8.941-30.109-14.059 10.688-15.656 32.317-11.442 49.308z"/><path d="m284.351 456.166c-1.258 2.424-2.498 4.875-3.73 7.35 10.328 21.191 35.133 34.508 58.734 30.486 25.813-4.393 45.967-28.135 48.521-54.084 1.078-10.955-1.205-20.842-6.03-28.752 5.532 17.855 2.731 39.311-8.942 55.322-24.678 33.838-71.012 21.813-88.553-10.322z"/></g><path d="m475.183 407.623c-10.732-6.926-24.674-10.215-37.525-11.689-26.5-3.059-25.424 11.4-23.465 21.375 2.209 11.258.291 23.527-2.624 34.311-5.015 18.57-3.651 32.768 9.327 48.279 6.29 7.516 18.7 19.248 30.454 14.189 12.95-5.576 17.686-21.588 22.185-33.016 5.676-14.414 9.934-29.461 11.291-44.762.876-9.88.022-22.451-9.643-28.687z" fill="#ff9680"/><path d="m593.163 432.15c-7.111-1.789-14.544-2.645-21.314-3.17-12.037-.945-22.828.967-30.986 10.275-14.785 16.883-16.427 46.166-13.42 67.258 3.447 24.191 28.561 21.83 45.634 13.219 10.78-5.438 18.509-13.561 21.464-25.352 2.055-8.213 1.376-17.064 1.808-25.447.259-5.031 1.662-9.197 3.853-12.938 4.819-8.243 11.352-19.208-7.039-23.845z" fill="#ff9680"/><path d="m278.884 530.211c-4.857 13.234-6.971 28.035-6.917 40.826.043 9.857 3.544 28.166 16.377 17.369 8.952-7.533 10.715-22.441 16.399-32.152 5.658-9.654 16.586-18.375 19.721-29.395 2.617-9.201-3.066-15.465-10.951-18.357-14.976-5.5-25.974-1.871-34.629 21.709z" fill="#ff9680"/><path d="m658.624 591.027c1.772 7.682 2.276 15.574 1.709 24.111-.568 8.58-2.559 17.025-3.154 25.611-.373 5.348-.568 13.838 4.94 17.441 5.747 3.76 12.927.48 17.427-3.373 7.605-6.508 10.805-17.805 13.308-26.566 2.829-9.889 5.21-20.221 6.222-30.383 1.399-14.037-8.326-25.752-21.541-30.564-16.497-6.003-21.575 12.175-18.911 23.723z" fill="#ff9680"/><path d="m608.87 290.471c-.719.432-1.432.877-2.122 1.35 18.663 7.834 35.657 18.65 48.627 34.428.923 1.119 1.806 2.275 2.703 3.418.692-4.771.763-9.854.11-14.811-10.958-14.405-31.42-24.372-49.318-24.385z" fill="#ed9d2b"/><path d="m485.267 266.816c-11.015-4.377-26.353-1.926-36.557.75-5.318 1.395-13.918 5.105-18.883 10.416-.047.162-.109.314-.157.48 17.922-7.146 37.2-10.141 56.626-10.293-.321-.476-.692-.896-1.029-1.353z" fill="#ed9d2b"/><path d="m638.601 325.264c32.985 62.832-5.426 55.486-17.707 56.131-20.096 1.047-40.025-5.713-58.674-12.377-18.145-6.49-35.963-13.447-54.746-17.926-17.204-4.098-34.869-6.18-52.459-7.754-16.529-1.48-33.969-.449-49.875-5.73-8.561-2.842-13.496-8.197-16.537-14.818-9.359 11.959-12.527 25.158-1.387 37.418.024.027.037.059.063.086 34.753-3.707 70.367 5.689 106.009 14.795 28.806 7.578 57.19 12.904 86.773 16.609 24.578 3.076 50.467 4.305 73.417 14.563 2.494 1.115 4.81 2.389 7.107 3.678 16.47-19.469 13.65-34.467.086-56.545-6.204-10.101-13.422-19.888-22.07-28.13z" fill="#ee6200"/><path d="m574.274 305.496c-19.236-7.982-42.316-9.957-61.822-12.709-24.449-3.449-50.295-3.975-72.594 8.041-13.015 7.016-11.68 22.834 3.789 24.605 16.107 1.848 32.154-1.502 48.309-.705 17.684.871 34.674 6.795 50.617 14.111 15.664 7.191 29.541 15.488 46.417 19.68 41.159 10.236 39.847-12.098 23.955-30.693-8.532-9.98-23.39-18.035-38.671-22.33z" fill="#f9ca1a"/><path d="m191.147 721c-1.709 24.924 2.629 51.926 10.828 76.348-3.068-23.545-6.611-46.588-2.891-70.842 3.826-24.938 4.961-37.242 27.598-45.262-1.274-7.744-2.131-15.467-2.668-23.17-21.792 10.358-31.349 40.764-32.867 62.926z" fill="#855725"/><path d="m333.835 310.436c-8.842-13.52-15.143-27.609-20.245-42.1 9.363 35.227 27.04 67.832 50.13 96.691 3.586-1.084 7.18-2.031 10.789-2.779-2.085-3.432-3.426-6.947-4.145-10.51-.18-.145-.371-.26-.551-.404-14.241-11.424-26.026-25.68-35.978-40.898z" fill="#855725"/><path d="m778.254 591.568c-4.588.498-9.199.889-13.87 1.02-11.349.314-29.479-.26-44.711-4.879-.078 4.078-.199 8.158-.389 12.223 21.903 1.953 40.958-.588 58.97-8.364z" fill="#855725"/><path d="m222.782 485.146c-7.851-2.697-15.356-6.488-22.17-11.252 1.873 2.379 3.809 4.678 5.881 6.795 11.992 12.27 28.629 20.348 44.439 26.369.055.018.092.049.145.072 1.688-4.508 3.408-9.004 5.188-13.479.292-.738.6-1.484.896-2.227-11.457-.596-22.842-2.311-34.379-6.278z" fill="#855725"/><path d="m683.79 428.971c22.295-11.832 44.811-27.074 63.785-45.242-2.336 1.213-4.688 2.428-6.957 3.639-20.021 10.666-41.105 16.828-62.965 20.115-2.227 3.072-4.691 6.018-7.199 8.82 4.968 3.781 9.383 8.041 13.336 12.668z" fill="#855725"/><path d="m656.191 872.592c10.611-12.971 19.251-27.547 26.233-42.725 6.845-14.887 12.809-31.711 11.961-48.283-.599-11.666-5.602-24.367-12.164-35.053-3.665 7.223-7.506 14.361-11.754 21.287 17.07 12.129 18.182 26.209 11.525 46.416-6.743 20.473-16.113 39.438-25.801 58.358z" fill="#855725"/><path d="m617.929 640.012c10.703-12.471 12.557-28.135 8.609-42.891-3.406 28.652-25.047 54.068-57.979 39.973-28.504-12.197-37.515-51.963-22.158-76.963-4.987 3.525-9.653 7.996-13.777 13.471-36.504 58.824 41.59 117.351 85.305 66.41z" fill="#515151"/><path d="m562.06 754.469c-3.707-3.004-8.381-5.004-13.512-6.188 9.986 6.498 14.879 17.49 8.253 29.998-5.194 9.803-17.085 15.807-27.083 19.225-9.89 3.373-21.498 3.648-29.617-3.719-9.717-8.818-7.191-20.512-1.98-30.9-4.406 4.855-7.531 10.658-8.693 17.256-1.1 6.219-.217 12.699 3.635 18.91 4.896 7.895 11.916 14.051 21.695 14.279 16.057.373 31.977-8.221 42.584-20 9.319-10.351 18.349-27.82 4.718-38.861z" fill="#515151"/><path d="m636.567 496.826c7.902 23.055 34.434 38.795 54.779 28.072 13.915-7.33 13.497-15.605 10.143-30.91-.496-2.252-1.107-4.443-1.672-6.66-.787 5.793-2.988 11.283-7.546 16.096-7.464 7.889-19.548 9.318-29.595 6.998-21.414-4.947-25.403-27.775-20.144-46.654-7.226 8.435-10.422 20.043-5.965 33.058z" fill="#515151"/><path d="m676.684 692.02c3.927 5.686 5.132 12.588 3.076 20.98-2.499 10.209-7.647 20.049-14.104 28.293-7.099 9.066-22.235 16.113-27.604.756-1.037-2.965-1.552-6.197-1.734-9.535-1.735 8.959-2.12 19.109.198 27.834 5.667 21.291 17.641 14.391 26.276.287 9.561-15.613 17.474-32.146 23.852-49.299 3.073-8.258 5.488-21.264-9.96-19.316z" fill="#515151"/><path d="m417.997 544.975c3.601 24.264-1 49.115-27.679 59.334-19.284 7.385-38.733-6.867-44.746-24.727-4.936-14.67.599-28.611 8.381-41.002-7.083 5.662-12.786 13.154-16.204 21.871-7.984 25.764.844 57.363 31.582 61.775 23.471 3.373 45.046-14.672 51.709-36.568 3.953-12.988 3.453-28.787-3.043-40.683z" fill="#515151"/><path d="m368.1 710.486c5.188 18.682.603 40.004-23.078 40.146-25.797.154-29.94-37.242-14.081-52.385-3.102 1.111-6.082 2.855-8.819 5.42-14.464 13.551-10.677 32.184-.663 47.209 11.735 14.369 31.375 21.236 46.098 6.129 13.011-13.347 13.128-32.829.543-46.519z" fill="#515151"/><path d="m257.89 616.68c4.527 9.504 7.65 19.564 7.697 30.299.048 10.309-12.174 36.02-25.252 23.904-1.693-1.566-3.04-3.549-4.14-5.744.62 5.02 1.343 10.033 2.253 15.021 4.338 23.736 11.153 19.635 21.529 7.992 10.541-11.828 13.32-28.922 9.172-45.963-1.666-6.845-5.502-17.845-11.259-25.509z" fill="#515151"/><path d="m365.129 457.705c8.95-14.748 10.437-35.246 3.138-50.043 1.886 21.035-5.178 41.24-28.926 48.438-12.925 3.916-25.816-.908-31.021-13.664-3.331-8.152-2.254-17.404 1.065-25.9-1.597 1.916-3.153 3.869-4.664 5.861-10.929 14.436-13.698 27.258-2.995 38.361 17.234 17.881 48.081 22.199 63.403-3.053z" fill="#515151"/><path d="m573.796 565.061c-18.39 3.557-24.492 22.5-14.481 37.457 8.956 13.381 30.425 19.848 44.314 10.982 27.854-17.781-2.745-53.687-29.833-48.439z" fill="#9f9f9f"/><path d="m657.768 467.234c-7.587 6.723-7.159 17.777 1.212 23.277 6.692 4.395 16.472 4.336 22.75-.633 7.392-5.855 4.061-16.451-1.277-22.406-5.775-6.435-14.208-7.753-22.685-.238z" fill="#9f9f9f"/><path d="m392.302 540.865c-10.53-3.279-22.79 1.955-29.298 10.424-14.609 19.02 3.274 37.629 19.066 35.053 11.999-1.961 23.688-11.725 26.139-22.969 2.403-11.014-6.2-19.49-15.907-22.508z" fill="#9f9f9f"/><path d="m349.366 435.289c9.943-6.152 14.221-17.799 6.208-27.307-3.213-3.814-17.568-9.152-28.931 5.594-4.106 5.334-6.035 12.719-2.885 19.043 4.981 9.992 17.807 7.496 25.608 2.67z" fill="#9f9f9f"/><path d="m339.712 709.051c-10.715 4.246-7.164 18.34.45 23.787 3.837 2.738 8.871 4.375 13.505 2.846 16.076-5.284 1.707-32.844-13.955-26.633z" fill="#9f9f9f"/><path d="m508.423 773.039c-2.579 18.184 43.224 9.992 40.056-7.381-2.591-14.193-37.533-10.437-40.056 7.381z" fill="#9f9f9f"/><path d="m645.735 724.918c-1.383 4.092-.338 8.842 3.061 11.604 3.594 2.914 8.016 1.574 11.392-.949 6.202-4.633 14.609-16.16 11.891-24.363-3.599-10.853-20.902-2.401-26.344 13.708z" fill="#9f9f9f"/><path d="m240.532 632.906c-1.828 10.561-.588 23.1 10.439 20.959 9.685-1.877 9.469-14.078 5.713-23.459-9.767-24.381-13.873-10.668-16.152 2.5z" fill="#9f9f9f"/><path d="m463.442 297.385c16.555-2.092 33.544-1.314 50.186-2.168.639-.031.846-1.035.158-1.166-30.809-5.877-76.871-6.246-99.412 19.9-.249.289.063.738.414.541 15.584-8.879 30.767-14.846 48.654-17.107z" fill="#68182b"/><path d="m529.3 296.816c.283-.066.477-.457.292-.709-2.048-2.799-6.483-3.104-9.318-1.359-.337.207-.337.693 0 .9 2.434 1.506 6.278 1.848 9.026 1.168z" fill="#68182b"/><path d="m572.064 831.805c-20.157 11.203-38.877 24.008-60.363 32.756-19.026 7.744-39.03 11.674-59.165 15.244-.32.059-.209.504.072.531 21.965 2.074 43.779-3.877 64.104-11.811 20.503-8 41.323-19.197 56.027-35.844.416-.47-.105-1.195-.675-.876z" fill="#68182b"/><path d="m586.618 820.342c-1.691.566-3.146 1.242-4.52 2.389-.77.646-1.482 1.406-2.221 2.09-.914.852-1.69 2.098-2.742 2.771-.778.494-.248 1.543.596 1.412 2.478-.387 4-.783 5.975-2.482 1.869-1.605 2.719-3.318 3.465-5.627.103-.319-.234-.661-.553-.553z" fill="#68182b"/><path d="m287.165 482.057c-9.086 10.125-14.393 24.395-19.609 36.83-5.684 13.545-11.889 29.066-10.725 43.992.045.57.875.926 1.174.32 6.006-12.252 8.714-26.217 13.314-39.061 4.965-13.861 13.344-27.357 16.389-41.766.063-.296-.311-.571-.543-.315z" fill="#68182b"/><path d="m255.826 568.725c-3.101 2.889-3.556 9.242-1.664 12.818.173.328.663.311.841 0 1.811-3.166 3.701-9.16 1.898-12.678-.209-.404-.767-.424-1.075-.14z" fill="#68182b"/></g></g></svg>