<svg id="Layer_1" height="512" viewBox="0 0 128 128" width="512" xmlns="http://www.w3.org/2000/svg" data-name="Layer 1"><path d="m124.753 109.747c-1.038-2.838-5.254-4.316-6.522-4.7 0 0-1.6-.614-6.309-.6-1.394 0-2.931.057-4.529.169-.569.029-1.458.108-2.172.177-.852-3.1-2.754-9.906-4.222-14.313a41.873 41.873 0 0 0 -2.479-5.905 21.672 21.672 0 0 0 -3.539-4.923c-.994-1.05-1.289-2.188-1.779-4.072a35.179 35.179 0 0 0 -2.955-8c-2.063-4.024-4.049-6.1-6.053-7.154a18.485 18.485 0 0 0 8.39-8.389 12.063 12.063 0 0 0 6.884-2.853c3.157-3 5.521-10.485 3.719-15.28a7.348 7.348 0 0 0 -7.042-4.81l-.279-.008a24.457 24.457 0 0 0 -17.872-19.213 37.755 37.755 0 0 0 -9.8-1.407c-6.939 0-13.012 2.351-19.115 7.4a21.159 21.159 0 0 0 -7.379 13.734 7.705 7.705 0 0 0 -3.42-.492 5.287 5.287 0 0 0 -4.025 2.166c-1.857 2.479-1.731 6.11-1.417 8.342a9.1 9.1 0 0 0 -2.838 3.648l-.071-.043c-2.853-6.989-7.825-6.67-8.3-6.67a4.186 4.186 0 0 0 -4.214 2.906h-.115c-3.109 0-5.319 1.391-6.064 3.816a4.058 4.058 0 0 0 .642 3.716 5.284 5.284 0 0 0 -1.314 1.081 4.323 4.323 0 0 0 -1.042 3.248c.314 3.847 4.266 4.322 6.389 4.578a10.645 10.645 0 0 1 1.485.236c.3.169 5.636 4.5 9.266 5.394 3.467 8.615 8.1 18.569 11.413 19.858a6.449 6.449 0 0 0 2.349.4 15.5 15.5 0 0 0 4.976-1.029 25.965 25.965 0 0 0 -.5 3.919 15.25 15.25 0 0 0 -7.175-1.827 14.391 14.391 0 0 0 -8.879 3.026c-.773.617-2.049 2-4.591 6.711-2.972-5.01-6.982-4.536-7.423-4.536a6.217 6.217 0 0 0 -5.554 2.8c-.11-.007-.222-.011-.338-.011-1.378 0-4.472.565-5.177 5.48a5.591 5.591 0 0 0 -2.685 6.075 5.148 5.148 0 0 0 5.022 4.442 4.971 4.971 0 0 0 .879-.079 9.97 9.97 0 0 0 1.3 1.98c.4 4.131 2.876 10.8 10.128 10.8a13.79 13.79 0 0 0 2.95-.341c.987-.117 5.749-.913 7.6-5.478 3.2-2.99 5.694-7.723 6.991-10.521l15.866 10.6a9.286 9.286 0 0 0 8.736 5.744 15.564 15.564 0 0 0 5.114-.85 14.1 14.1 0 0 0 2.768 0c9.89-.615 12.259-5.772 13.531-8.542 2.24-4.879 1.723-13.384-.236-17.727-.743-1.652-.753-5.457-.5-8.945a9.76 9.76 0 0 1 .919 1.519c.41.89 1.086 2.778 1.869 4.964 1.307 3.653 2.935 8.2 4.523 11.495a26.247 26.247 0 0 1 1.842 5.918c.62 2.771 1.26 5.637 3.45 8.218a7.662 7.662 0 0 0 5.847 2.606 11.882 11.882 0 0 0 4.961-1.132 14.736 14.736 0 0 0 3.814.594 4.92 4.92 0 0 0 3.852-1.445l.062-.07a15.138 15.138 0 0 0 3.664.536 4.6 4.6 0 0 0 3.909-1.6 3.434 3.434 0 0 0 .459-.82 3.742 3.742 0 0 0 2.056-1.39 3.289 3.289 0 0 0 .299-3.121zm-80.563-44.232-8.143-9.34a7.453 7.453 0 0 0 1.053-3.575 8.665 8.665 0 0 0 -.681-3.624c.251-.214.519-.471.792-.756.077.048.154.093.233.136a11.288 11.288 0 0 0 4.056 1.271 12.312 12.312 0 0 0 2.632 8.46 13.075 13.075 0 0 0 6.648 4.273 68.113 68.113 0 0 1 -6.59 3.155z" fill="#fff"/><path d="m104.427 106.882a.805.805 0 0 1 -.871-.591c-.638-2.341-2.824-10.278-4.456-15.181a39.9 39.9 0 0 0 -2.363-5.627 19.15 19.15 0 0 0 -3.185-4.432c-2.655-2.78-1.625-5.808-5.088-12.558-3.861-7.533-6.956-7.145-10.817-7.145a4.377 4.377 0 0 1 -2.447-.734 14.24 14.24 0 0 0 -11.355-2.159c-4.275 1.094-8.845 2.626-10.358 4.436-1.578 1.89-9.86 5.025-9.86 5.025l-11.792-13.524-3.861 5.025s7.343 18.747 10.825 20.1c3.384 1.32 10.422-2.682 10.8-2.9-3.268 2.541-2.69 11.783-2.69 11.783-7.144-5.8-13.909-3.28-16.809-.962s-9.473 17.2-9.473 17.2l5.793 9.663c6-2.129 10.635-14.11 10.635-14.11l18.734 12.509a23.47 23.47 0 0 0 14.212 4c8.713-.452 10.756-4.388 12.137-7.4 2-4.349 1.5-12.208-.242-16.07s-.19-14.5-.19-14.5a22.727 22.727 0 0 1 4.25 5.412c1.155 2.509 3.861 11.206 6.378 16.429s1.741 9.852 5.025 13.722a5.257 5.257 0 0 0 1.214 1.06c8.583-2.614 8.924-8.753 8.924-8.753-.873.057-2.597.23-3.07.282z" fill="#5b3e36"/><path d="m72.42 72.973c-.895-1.094-5.573-4.542-15.261-1.636-4.814 1.444-8 6.479-8.732 11.452a18.243 18.243 0 0 0 4.186 14.031l-.285-2.988a9.679 9.679 0 0 0 8.043 7.968 4.664 4.664 0 0 0 3.507-.695c1.7-1.328 1.535-3.909 2.379-5.893a6.044 6.044 0 0 1 7.613-3.086c.808.34 1.83.832 2.452.215a1.857 1.857 0 0 0 .4-1.2c.538-6.363-.264-13.227-4.302-18.168z" fill="#e59b6a"/><path d="m122.872 110.435c-.775-2.121-5.223-3.474-5.223-3.474-3.086-.743-7.9-.536-10.982-.289l-3.582 1.626.5 1.774-3.053-.4s-1.032 2.013-.537 3.094l-1.972-.388a4.138 4.138 0 0 0 0 2.575v.008a.936.936 0 0 0 .085.07c3.341 2.714 8.34-.111 8.34-.111 7.146 2.17 6.766-1.2 6.766-1.2 8.5 2.7 7.371-1.229 7.371-1.229s3.063.073 2.287-2.056z" fill="#fbbc91"/><path d="m36.53 40.66c-4.026-.66-5.478 5.61-5.478 5.61l-2.772-1.716s-1.453-5.017-5.545-5.875-3.564 2.971-3.564 2.971-4.991-1.15-6.024 2.21c-.8 2.615 3.384 3.9 3.384 3.9s-5.281.162-5.017 3.4 5.347 2.375 6.865 3.234 6.336 5.149 9.108 5.215 4.555-2.64 4.555-2.64 2.858-.734 3.058-4.469a6.74 6.74 0 0 0 -.569-2.839 1.809 1.809 0 0 1 .579-2.2c1.552-1.323 5.447-6.141 1.42-6.801z" fill="#fbbc91"/><g fill="#e59b6a"><path d="m23.84 46.372a6.827 6.827 0 0 0 -4.669-4.722c2.37.727 4.389 4.238 4.661 4.727a5.042 5.042 0 0 0 -2.532 3.183 5.485 5.485 0 0 0 -4.934-1.792 8.956 8.956 0 0 1 4.926 1.823 4.978 4.978 0 0 0 -.137 1.746 6.549 6.549 0 0 1 4.542-5.7 7.923 7.923 0 0 0 -1.857.735z"/><path d="m25.7 45.636c.07-.018.13-.042.2-.06 0 0-.077.024-.2.06z"/><path d="m24.648 50.066a6.071 6.071 0 0 1 4.291 2.894 11.968 11.968 0 0 0 -4.291-2.894z"/><path d="m120.582 112.5s-1.2-2.551-6.154-3.189c0 0 4.278.826 6.154 3.189"/><path d="m113.21 113.727s.142-1.8-4.151-2.406c0 0 3.074.314 4.151 2.406"/></g><path d="m43.641 35.765s-1.876-11.256 6.711-18.358 16.937-8.322 27.125-5.6c13.136 3.51 16.917 15.607 16.679 20.73s.834 24.543-15.607 27.64-28.2-1.072-28.2-1.072z" fill="#5b3e36"/><path d="m96.062 31.1a14.029 14.029 0 0 0 -12.747 7.161l2.74 11.794s8.339 1.192 12.033-2.318 6.912-16.271-2.026-16.637z" fill="#fbbc91"/><path d="m94.193 33.545a11.2 11.2 0 0 0 -9.513 4.516 14.444 14.444 0 0 1 2.623.16c-.77.411-1.532.831-2.293 1.252a10.281 10.281 0 0 0 3.335.8 10.584 10.584 0 0 0 -2.545 1.874 6.042 6.042 0 0 1 2.744 2.123 3.873 3.873 0 0 0 -2.544-.241 2.585 2.585 0 0 0 2.163 2.063c-.571.28-1.152.571-1.723.851.932.04 1.873.07 2.814.11a9.727 9.727 0 0 0 -2.213 1.472 6.742 6.742 0 0 0 -.5.521c1.613.15 6.78.441 9.293-1.953 3.015-2.854 5.629-13.248-1.641-13.548z" fill="#e59b6a"/><path d="m46.977 38.257s-2.621-7.506-8.578-7.149-3.932 13.344 0 15.488 8.578.6 8.578.6l1.072-6.553z" fill="#fbbc91"/><path d="m43.233 39.092a8.73 8.73 0 0 1 2.564-.821 4.8 4.8 0 0 0 -2.243-3.064l.13-.04a5.448 5.448 0 0 0 -3.535-1.041c-4.877.29-3.214 10.925 0 12.677a7.843 7.843 0 0 0 3.064.891 7.388 7.388 0 0 0 -2.1-2.794c.181.08 1.312.551 1.773-.15.33-.521-.641-1.672-1.532-2.473.28-.01 2.333 1.372 2.473.45.13-.8-.751-1.572-.891-1.692.17.05 1.332.4 1.562-.17.428-1.022-1.265-1.773-1.265-1.773z" fill="#e59b6a"/><path d="m86.442 46.943c.571-.28 1.152-.571 1.723-.851a2.585 2.585 0 0 1 -2.165-2.063 3.873 3.873 0 0 1 2.543.241 6.042 6.042 0 0 0 -2.743-2.123 10.584 10.584 0 0 1 2.544-1.873 10.281 10.281 0 0 1 -3.335-.8c.761-.421 1.523-.841 2.293-1.252a14.782 14.782 0 0 0 -4.966.09 9.819 9.819 0 0 0 -1.422 1.422 30.081 30.081 0 0 1 -.731 3.055c4.286 1.441 5.7 4.155 5.878 6.839a8.39 8.39 0 0 1 .981-1.1 9.727 9.727 0 0 1 2.213-1.472c-.94-.043-1.881-.073-2.813-.113z" fill="#5b3e36"/><path d="m46.838 34.166-3.284 1.041a4.8 4.8 0 0 1 2.246 3.064 8.73 8.73 0 0 0 -2.564.821s1.693.751 1.262 1.773c-.23.571-1.392.22-1.562.17.14.12 1.021.891.891 1.692-.14.922-2.193-.46-2.473-.45.891.8 1.862 1.952 1.532 2.473-.461.7-1.592.23-1.773.15a7.275 7.275 0 0 1 2.484 3.976c.01-.04.01-.09.02-.13a10.026 10.026 0 0 1 4.526-6.8 63.738 63.738 0 0 1 -1.305-7.78z" fill="#5b3e36"/><path d="m80.187 42.784s3.455-10.961-1.072-17.156-12.748-7.506-19.9.715c0 0-2.859-5.838-6.91-5.123s-5.957 8.339-5.48 12.867a63.151 63.151 0 0 0 1.31 7.863 10.007 10.007 0 0 0 -4.527 6.791c-.814 4.652 1.664 11.8 11.755 12.361a1.466 1.466 0 0 1 1.123.623 5.256 5.256 0 0 0 1.636 1.561c1.443.81 6.117 1.25 8.012-.58a1.494 1.494 0 0 1 1.318-.447c2.027.4 7.594.894 14.32-3.478a9.111 9.111 0 0 0 3.816-5.15c.98-3.449 1.156-8.631-5.401-10.847z" fill="#fbbc91"/><path d="m52.33 46.077s1.058 5.331 4.241 8.7a8.019 8.019 0 0 0 5.285 2.677 9.532 9.532 0 0 0 6.306-2.054 25.324 25.324 0 0 0 6.468-7.663c-14.839 7.489-22.3-1.66-22.3-1.66z" fill="#4d4d4d"/><path d="m62.877 52.719a9.546 9.546 0 0 0 -6.306 2.056 8.019 8.019 0 0 0 5.285 2.677 9.532 9.532 0 0 0 6.306-2.052 8.043 8.043 0 0 0 -5.285-2.681z" fill="#dc5b56"/><ellipse cx="69.532" cy="37.827" fill="#333" rx="2.06" ry="2.838"/><ellipse cx="55.236" cy="37.827" fill="#333" rx="2.06" ry="2.838"/><path d="m24.175 97.984s-1.309-7.2-6.218-7.855-5.483 3.027-5.483 3.027-4.5-2.127-4.828 4.583c0 0-3.131.525-2.579 4.363a3.065 3.065 0 0 0 4.221 2.477 4.993 4.993 0 0 0 .813-.458 8.813 8.813 0 0 0 2.128 3.764s.409 11.7 10.8 9.329c0 0 6.628-.491 6.628-7.283s.778-14.389-5.482-11.947z" fill="#fbbc91"/><g fill="#e59b6a"><path d="m12.489 93.156s.708 4.214 2.479 5.093a4 4 0 0 0 4.895-1.494s-1.72 3.639-5.1 2.08c-2.581-1.191-2.274-5.679-2.274-5.679z"/><path d="m15.323 99.817a1.716 1.716 0 0 1 -1.479 1.589 4.974 4.974 0 0 1 -5.207-1.8 6.2 6.2 0 0 1 -.976-1.863 4.622 4.622 0 0 0 1.44 3.17 4.305 4.305 0 0 0 4.745.962c2.135-.738 1.477-2.058 1.477-2.058z"/><path d="m24.19 97.984s-1.617 1.359-1.154 6.474c0 0 .31 4.54 3.993 1.788 0 0-2.678 2.958-3.966.477-1.719-3.312-.497-7.66 1.127-8.739z"/></g><path d="m66.315 97.984s-1.309-7.2-6.219-7.855-5.483 3.027-5.483 3.027-4.5-2.127-4.827 4.583c0 0-3.132.525-2.579 4.363a3.065 3.065 0 0 0 4.221 2.477 5.028 5.028 0 0 0 .812-.458 8.813 8.813 0 0 0 2.128 3.764s.409 11.7 10.8 9.329c0 0 6.628-.491 6.628-7.283s.779-14.389-5.481-11.947z" fill="#fbbc91"/><g fill="#e59b6a"><path d="m54.628 93.156s.709 4.214 2.479 5.093a4 4 0 0 0 4.893-1.494s-1.719 3.639-5.1 2.08c-2.579-1.191-2.272-5.679-2.272-5.679z"/><path d="m57.463 99.817a1.718 1.718 0 0 1 -1.48 1.589 4.971 4.971 0 0 1 -5.206-1.8 6.2 6.2 0 0 1 -.976-1.863 4.619 4.619 0 0 0 1.439 3.17 4.305 4.305 0 0 0 4.745.962c2.135-.738 1.478-2.058 1.478-2.058z"/><path d="m66.33 97.984s-1.617 1.359-1.155 6.474c0 0 .31 4.54 3.994 1.788 0 0-2.678 2.958-3.966.477-1.72-3.312-.498-7.66 1.127-8.739z"/></g></svg>