<svg id="Layer_1" height="512" viewBox="0 0 128 128" width="512" xmlns="http://www.w3.org/2000/svg" data-name="Layer 1"><path d="m115.924 103.168c-.118-1.719-.413-6.006-20.265-12.712 1.638-.452 2.617-.779 2.7-.807l3.686-1.24-6.065-4.578 7.621-4.4-5.536-.988c-.12-.022-12.08-2.262-16.711-12.155-3.383-7.227-9.741-13.144-16.425-15.374a25.164 25.164 0 0 1 -.729-11.132l.353-2.516c.472-5.74-1.147-12.039-3.907-14.392-1.928-1.643-.724-6.2-.151-7.67l2.082-5.269-4.977 2.712a7.662 7.662 0 0 0 -3.134 3.224 14.6 14.6 0 0 0 -2.71-2.077 17.3 17.3 0 0 1 -4.7-4.814l-3.786-5.98v7.078a15.167 15.167 0 0 0 .7 4.559 12.331 12.331 0 0 0 -1.911-.169c-.262 0-.4.012-.4.012l-3.12.292 1.3 2.406a19.475 19.475 0 0 0 -13.189 6.1 16.841 16.841 0 0 0 -10.119 5.491c-2.255 2.517-4.857 6.977-4.443 13.928.7 11.846 8.546 12.767 10.932 12.767a8.078 8.078 0 0 0 1.205-.08l1.609-.273.113-1.624a9.633 9.633 0 0 1 1.067-3.421 6.464 6.464 0 0 1 .676-.035 8.85 8.85 0 0 1 5.831 2.3 5.6 5.6 0 0 0 .433.39l.673 7.825c-4.373 13.149-2.463 24.68 5.52 33.554-.057.039-.112.078-.167.118a6.639 6.639 0 0 0 -2.84 5.375 5.635 5.635 0 0 0 2.158 4.316 2.577 2.577 0 0 0 1.573.535 2.615 2.615 0 0 0 1.465-.45 5.208 5.208 0 0 0 .719.666 2.571 2.571 0 0 0 1.573.535 2.643 2.643 0 0 0 2.611-2.981 4.3 4.3 0 0 1 -.039-.882 1.758 1.758 0 0 1 .089-.442 5.466 5.466 0 0 0 1.64 2.1 2.572 2.572 0 0 0 1.574.535 2.617 2.617 0 0 0 1.472-.455 4.732 4.732 0 0 0 .709.669 2.567 2.567 0 0 0 1.573.537 2.613 2.613 0 0 0 .825-.135 25.093 25.093 0 0 0 7.682 1.224 25.805 25.805 0 0 0 7.311-1.084c3.937 7.127 6.894 10.029 10.765 12.68 1 .73 2.034 1.412 3.028 2.072.6.4 1.2.8 1.78 1.193.856.618 1.655 1.231 2.443 1.873a17.8 17.8 0 0 0 2.133 1.5 7.439 7.439 0 0 0 4.024 1.4c3.547 0 5.155-3.411 5.722-6.377 4.832-.07 7.284-2.5 8.343-4.011a6.152 6.152 0 0 0 4.7-3.725 9.492 9.492 0 0 0 2.911-7.718z" fill="#fff"/><path d="m80.871 88.193s32.531 8.228 33.006 15.117-6.877 8.672-6.877 8.672-1.151 4.946-9.465 4c0 0 .611 11.649-8.146 4.523s-11.84-5.23-20.153-22.331 11.635-9.981 11.635-9.981z" fill="#54b27c"/><path d="m80.231 91.81s30.878 9.384 31.281 15.221-4.428 5.636-4.428 5.636-1.875 4.615-8.92 3.81c0 0-.456 10.668-7.877 4.629s-12.874-6.349-19.919-20.842 9.863-8.454 9.863-8.454z" fill="#f6e24d"/><path d="m101.548 101.425c-6.664-.688-13.667-1.5-19.108-5.41l10.474 7.772a41.373 41.373 0 0 1 -7.5-2.929l4.211 5.13a55.339 55.339 0 0 0 -13.139-7.424c2.521 3.574 5.977 6.362 9.386 9.1a25.249 25.249 0 0 1 -11.449-7.031c2.065 4.565 6.158 7.831 10.107 10.915a19.3 19.3 0 0 1 -7.2-5.292 57.672 57.672 0 0 1 -5.265-7.313c.3.467 5.316-2.506 5.812-2.837 1.408-.936 3.245-3.146 5.151-2.45.679.248 1.191.959 1.759 1.381a22.48 22.48 0 0 0 2.888 1.695 45.489 45.489 0 0 0 13.877 4.691z" fill="#f1b845" opacity=".5"/><path d="m90.233 86.07s-20.688 31.28-45.6 9.573 3.344-54.9 3.344-54.9l8.746-.876h.262a178.837 178.837 0 0 0 8.645 18.188l.925 1.052z" fill="#f6e24d"/><path d="m44.958 56.1c-1.19-.633-3.96-1.52-4-3.233s2.787-2.98 3.993-3.8a107.306 107.306 0 0 0 11.781-9.2l5.47-.551s-2.022 8.7 3.437 18.738l.925 1.052a82.817 82.817 0 0 0 -14.5 5.079c1.836-.847-6.429-7.726-7.106-8.085z" fill="#40a06d"/><path d="m26.7 26.527s5.218-8.872 18.04-7.127a11.651 11.651 0 0 1 -2.914-2.876 14.489 14.489 0 0 1 6.12 1.419 12.912 12.912 0 0 1 -2.623-7.868 19.253 19.253 0 0 0 5.391 5.484 13.92 13.92 0 0 1 4.663 4.716s0-4.08 3.2-5.829c0 0-2.768 7.006.729 9.987s5.537 16.942-1.02 21.764a10.13 10.13 0 0 0 -1.514 4.676l-3.44-2.768s-.146 4.333-5.829 5.3c0 0-4.309 3.565-3.479 6.479l-2.924-3.762a8.049 8.049 0 0 0 -4.385 4.663l-1.155-13.406z" fill="#54b27c"/><path d="m37.163 40.822a8.178 8.178 0 0 1 2.914 5.392c.146 3.2-2.622 7.139-5.1 4.662s-8.014-4.225-11.511-1.6-3.059-9.619 13.697-8.454z" fill="#db5745"/><path d="m35.706 43.591s4.663 0 3.351-3.5-6.119-15.005-11.219-14.859-14.425 5.1-13.7 17.339 9.762 10.782 9.762 10.782a11.558 11.558 0 0 1 2.8-6.411c2.6-2.914 9.006-3.351 9.006-3.351z" fill="#eb6750"/><ellipse cx="46.622" cy="32.446" fill="#f2f2f2" rx="5.562" ry="7.216"/><ellipse cx="46.347" cy="32.972" fill="#4d4d4d" rx="2.952" ry="3.639"/><path d="m97.7 80.467s-13.07-2.335-18.2-13.307-18.914-20.652-30.12-11.61-1.145 28.418 13.2 33.788 35.12-1.638 35.12-1.638l-5.434-4.1z" fill="#54b27c"/><g fill="#f1b845"><path d="m38.242 78.293a5.4 5.4 0 0 0 2.348 1.965 15.5 15.5 0 0 0 .143-5.112l3.072 3.082-.471-5.789c-.012-.151-.066-.346-.217-.353s-.22.169-.251.311a12.539 12.539 0 0 0 -.284 2.916l-2.274-2.022q-.33 2.2-.66 4.4c-.609-.777-1.451-2.445-2.294-2.931-.734-.423-1.015.151-.6.934.028.012 0-.112.049-.1a16 16 0 0 0 1.439 2.699z" opacity=".25"/><path d="m47.549 83.222a49.158 49.158 0 0 0 5.064 6.672 13.4 13.4 0 0 1 -8.156-4.056l4.7 6.929a19.113 19.113 0 0 1 -7.863-5.714 10.794 10.794 0 0 1 4.284 2.5 16.989 16.989 0 0 1 -2.269-5.5l5.291 3.124a24.677 24.677 0 0 1 -2.551-5.323c.155.458 3.24 1.571 3.794 1.909a12.521 12.521 0 0 1 3.416 2.572 38.947 38.947 0 0 1 -5.71-3.113z" opacity=".25"/><path d="m75.96 94.246a40.747 40.747 0 0 1 -14.563.482 27.607 27.607 0 0 0 6.519 1.872 31.949 31.949 0 0 1 -15.232-3.28 41.587 41.587 0 0 0 6.841 1.019 4.721 4.721 0 0 1 -2.614-1.707l5.845 1.35a42.6 42.6 0 0 0 -4.874-3.377 34.661 34.661 0 0 0 18.078 3.641z" opacity=".5"/></g><g fill="#40a06d"><path d="m72.667 62.781a2.709 2.709 0 0 0 -.911-1.067 11.28 11.28 0 0 0 -1.034-.644l-1.017-.584q-2.037-1.164-4.1-2.287 1.862 1.434 3.75 2.823c.609.47 1.308.918 1.837 1.382a1.767 1.767 0 0 1 .532.742.857.857 0 0 1 -.086.693 2.536 2.536 0 0 1 -1.563.905 7.5 7.5 0 0 1 -1.053.13 10.85 10.85 0 0 1 -5.275-1.023l-2.885-1.051s2.629 3.908 3.247 4.522 1.253 1.145 1.761 1.678a4.165 4.165 0 0 1 .985 1.665 1.915 1.915 0 0 1 .07.781 1.022 1.022 0 0 1 -.242.542c-.481.631-2.318.739-3.736.627a12.129 12.129 0 0 1 -4.277-1.186l-3.322-1.642 1.9 3.16a22.628 22.628 0 0 0 4.612 5.534 23.745 23.745 0 0 0 3.954 2.774 13.537 13.537 0 0 1 -2.074.225 14.687 14.687 0 0 1 -4.408-.5 15.325 15.325 0 0 1 -4.145-1.762 14.72 14.72 0 0 1 -3.5-2.964 13.17 13.17 0 0 0 3.134 3.489 15.4 15.4 0 0 0 4.174 2.308 15.991 15.991 0 0 0 4.742.926 14.7 14.7 0 0 0 4.857-.659l2.083-.657-2.008-.989a22.372 22.372 0 0 1 -5.44-3.719 24.457 24.457 0 0 1 -2.261-2.426 12.892 12.892 0 0 0 1.813.259 13.535 13.535 0 0 0 2.666-.074 6.076 6.076 0 0 0 1.439-.36 3.531 3.531 0 0 0 1.413-.987 3.15 3.15 0 0 0 .721-1.667 4.011 4.011 0 0 0 -.188-1.635 6.148 6.148 0 0 0 -1.559-2.463c-.534-.516-1.07-.945-1.55-1.369a11.985 11.985 0 0 0 2.2.151 11.5 11.5 0 0 0 1.244-.111 8.691 8.691 0 0 0 1.253-.263 4.752 4.752 0 0 0 1.22-.576 2.833 2.833 0 0 0 .993-1.078 1.9 1.9 0 0 0 .034-1.573z" opacity=".5"/><path d="m82.381 75.425s4.654 5.284 9.544 5.363l-6.152 2.051 6.627 4.023a34.424 34.424 0 0 1 -16.169.867l12.069-1.42-5.206-3.785 4.89-1.578a15.048 15.048 0 0 1 -5.603-5.521z" opacity=".5"/><path d="m47.426 20.985a3.813 3.813 0 0 0 -2.2-2.226 12.876 12.876 0 0 1 4.44 1.272l-1.255-2.718 8.075 5.724-5.614-2.837 1.394 2.152a6.789 6.789 0 0 1 -3.408-1.64 1.5 1.5 0 0 1 .551 1.417 39.5 39.5 0 0 0 -10.084-.742c-2.452.135-4.957.993-7.364 1.02a17.509 17.509 0 0 1 5.277-1.683 20.5 20.5 0 0 1 4.492-.513c.724-.002 5.415.004 5.696.774z" opacity=".25"/></g><path d="m48.4 96.464c-.968-3.029-5.318-1.967-7.212-.588a4.65 4.65 0 0 0 -2 3.688 3.547 3.547 0 0 0 1.353 2.714.575.575 0 0 0 .9-.552 6.333 6.333 0 0 1 -.05-1.3 3.1 3.1 0 0 1 .96-2.124c1.695-1.465 7.132 1.548 6.049-1.838z" fill="#db965e"/><path d="m52.157 97.215c-.968-3.028-5.319-1.967-7.212-.587a4.647 4.647 0 0 0 -2 3.688 3.547 3.547 0 0 0 1.355 2.714.575.575 0 0 0 .9-.552 6.273 6.273 0 0 1 -.049-1.306 3.1 3.1 0 0 1 .959-2.124c1.69-1.46 7.13 1.552 6.047-1.833z" fill="#db965e"/><path d="m58.032 95.541c-.969-3.029-5.319-1.968-7.213-.588a4.648 4.648 0 0 0 -2 3.688 3.547 3.547 0 0 0 1.352 2.714.575.575 0 0 0 .9-.552 6.343 6.343 0 0 1 -.05-1.306 3.1 3.1 0 0 1 .96-2.124c1.696-1.46 7.133 1.554 6.051-1.832z" fill="#e3a164"/><path d="m61.788 96.292c-.968-3.029-5.318-1.967-7.212-.588a4.649 4.649 0 0 0 -2 3.688 3.547 3.547 0 0 0 1.353 2.714.575.575 0 0 0 .9-.552 6.336 6.336 0 0 1 -.05-1.305 3.107 3.107 0 0 1 .96-2.125c1.695-1.459 7.132 1.554 6.049-1.832z" fill="#e3a164"/><path d="m57.978 42.287c-.877 1.358-1.887 2.792-1.815 4.407l-1.421-3.714c-2.316 1.854-3.41 4.8-4.4 7.6l-1.301-4.58a18.455 18.455 0 0 1 -3.253 5.928 19.334 19.334 0 0 0 -.309-5.3 27.145 27.145 0 0 1 -2.462 4.56 9.081 9.081 0 0 1 -3.94 3.267 25.769 25.769 0 0 0 2.884-5.4 8.685 8.685 0 0 0 .089-6.005 7.04 7.04 0 0 1 2.22 3.033 5.931 5.931 0 0 1 2.33-2.31 7.586 7.586 0 0 1 .6 3.64 40.06 40.06 0 0 0 3.207-4.379l.107 3.662a14.172 14.172 0 0 1 5.6-6.508l.086 2.812a13.688 13.688 0 0 0 1.842-7.265c0 .153.952.968 1.076 1.264a3.527 3.527 0 0 1 .193 1.464 7.067 7.067 0 0 1 -1.333 3.824z" fill="#40a06d" opacity=".25"/></svg>