<svg id="Layer_1" enable-background="new 0 0 55 55" viewBox="0 0 55 55" xmlns="http://www.w3.org/2000/svg"><g id="_x36_3"><g><path d="m35.7178726 48.3215904c-.123745-.0515518-.2578087-.0927773-.3918114-.0927773-.1340637.0102577-.2784538.0618706-.3300018.1649704-.1319427.3695679.9900436.7077751 1.2580719 1.227169.1443901.3196793.0206451.7012291-.2474823.9487152-.6084557.5671654-1.9387245.8971672-3.258667.9281349-1.3200092.0206451-2.6193714-.2371635-3.681509-.6187782-.7321968-.2680664-1.6190414-.6702614-1.8356228-1.3509102-.0618725-.2061958-.1030979-.4743271-.350584-.5361977-.2538528-.0667877-.4705067.1362076-.9900055.4330978-1.680912.8913689-2.8726082.9773483-4.6405468 1.0209122-1.7324619.051548-3.434021.0412865-5.1251945-.3505859-1.5159435-.3609695-2.7946615-1.0003281-3.1865349-1.7943954-.4021959-.7940063.1443872-1.6499481 1.2168465-2.2893066 2.4053688-1.4148979 6.5587845-1.620327 9.3429623-1.6705933 4.4826508-.0947914 4.7825489.2371635 5.6717777.2371635.4125195 0 .8352966-.0721931 1.2478142-.0309029 1.4501629.0965729 1.6850624.0476418 4.5683517.4434204 2.8692627.3715439 3.4201927.5150185 4.7951927.8043289 5.3023452 1.0821344.9218444 4.2097666-4.063057 2.5265352z" fill="#f2f8fd"/></g><g><path d="m35.7178726 48.3215904c-.123745-.0515518-.2578087-.0927773-.3918114-.0927773-.1340637.0102577-.2784538.0618706-.3300018.1649704-.1319427.3695679.9900436.7077751 1.2580719 1.227169.1443901.3196793.0206451.7012291-.2474823.9487152-.6084557.5671654-1.9387245.8971672-3.258667.9281349-1.3200092.0206451-2.6193714-.2371635-3.681509-.6187782-.7321968-.2680664-1.6190414-.6702614-1.8356228-1.3509102-.0618725-.2061958-.1030979-.4743271-.350584-.5361977-.2538528-.0667877-.4705067.1362076-.9900055.4330978-1.680912.8913689-2.8726082.9773483-4.6405468 1.0209122-1.7324619.051548-3.434021.0412865-5.1251945-.3505859-1.5159435-.3609695-2.7946615-1.0003281-3.1865349-1.7943954-.4021959-.7940063.1443872-1.6499481 1.2168465-2.2893066.350647-.2062607.7528419-.3918724 1.1962643-.5568428-.7218094 1.0612106-.0469408 2.4017944 1.051815 3.031826.7734241.4434204 1.6912365.5568428 2.5884037.5877457 1.4127827.0412903 2.8462105-.1237411 4.2177677-.5052948 1.2065239-.3300018 2.4543381-.8249702 3.6815071-.5774841 1.9902706.402195 3.2071171 2.5884018 5.1561604 3.1246643.4743271.1237411 1.000267.1443863 1.4436874-.0618744.4434242-.2165794.7837486-.7012291.7115555-1.1859398-.0927773-.5981331-.7218781-1.0518799-.6805878-1.6499481.0618706-.6909714.9590378-.9796829 1.6396255-.8249741 1.2699738.2692871 2.3877373 1.4557266 4.2177658-1.0518761.1340675-.1856155.2681313-.3712273.4021339-.5465851 5.3023453 1.0821343.9218445 4.2097665-4.0630569 2.5265351z" fill="#d0dcee"/></g><g><path d="m39.7807465 45.8449974c-.003418 0-.0068359 0-.0102539-.0009766-1.4224319-.3007431-1.944458-.4345016-4.7910156-.8037109-5.299181-.726944-5.0835838-.2688065-6.6591797-.4907227-1.4414635-.1969986-3.3770103-.1876183-4.8212891-.1586914-2.6383419.0481834-6.0382252.2252159-8.4746094 1.246582-.0616703.0239143-.0991764-.0674133-.0380859-.0927734 2.4662647-1.0249405 5.8243923-1.2053795 8.5107422-1.253418 1.4413414-.0320168 3.4106464-.0386887 4.8369141.159668 1.6316185.2268562 1.1270275-.2678871 6.6586914.4902344 2.688076.3481865 3.2983475.4862137 4.7983398.8051758.0273438.0058594.0444336.0322266.0385742.059082-.0048828.0234375-.0258789.0395508-.0488281.0395508z"/></g><g><path d="m20.19174 48.2502213c.1390018.0345459.2817383-.0285835.4330769-.0620308.1612911-.0364189.4586658-.0480614.5911541.0744171.1266403.1026802.1535549.3418922.2365017.4788399.4504185.7700882 1.6302681.4798851 2.1490078-.2194023.061861-.0825233.1208286-.1749573.225563-.1841049.0849953-.003315.1633968.0812569.1894073.170311.061945.1752777-.0089188.4108505.2534256.4631424.1134758.0205612.2235928-.0437965.3167686-.0925179.4627914-.2883415 1.0799007-.6961136 1.3290253-1.1509438.3532124-.6445236-.1222-1.2641983-.093277-1.4230576.0234547-.103569.1422348-.1382599.2226276-.1939354.2610741-.172966.2163906-.5466537.0946331-.7796707-.4941101-.9192505-.9147987-1.8814507-1.2661915-2.8638916l-2.61553.1300926c.1620522.5548553-.1390266 1.1201172-.1941071 1.6896057-.0933552.7319832.246685 1.4166069-.7024879 2.1926918-.4807835.3859673-1.3152542.5994225-1.4032669 1.3015442-.0300024.1913758.0533487.4033509.2336694.4689103z" fill="#095da4"/></g><g><path d="m20.19174 48.2502213c.1390018.0345459.2817383-.0285835.4330769-.0620308.1612911-.0364189.4586658-.0480614.5911541.0744171.1266403.1026802.1535549.3418922.2365017.4788399.4504185.7700882 1.6302681.4798851 2.1490078-.2194023.061861-.0825233.1208286-.1749573.225563-.1841049.0849953-.003315.1633968.0812569.1894073.170311.061945.1752777-.0089188.4108505.2534256.4631424.1134758.0205612.2235928-.0437965.3167686-.0925179.4627914-.2883415 1.0799007-.6961136 1.3290253-1.1509438.3532124-.6445236-.1222-1.2641983-.093277-1.4230576.0234547-.103569.1422348-.1382599.2226276-.1939354.2610741-.172966.2163906-.5466537.0946331-.7796707-.4941101-.9192505-.9147987-1.8814507-1.2661915-2.8638916l-2.61553.1300926c.1058044.3622665.0020142.8709946-.1105843 1.2032623.6046638.3046722 1.2956409.2010612 1.8456078.2130013 1.0845566-.0100822 1.3116722.3791924 1.5428944.5377274.0854168.0717697.1621532.1138153.2067528.229702.0805359.2021065.0381527.4615555-.1396084.5886917-.1869678.1500816-.4917412.0432053-.6664429-.0883141-.0311966-.0234833-.061079-.0495415-.0965405-.0658913-.0901566-.0415726-.1638832.0071793-.1680298.0964165-.0018387.0395241.0107136.0782852.0257244.1148949.1172943.2860947.3803062.3726959.5944901.570816.6231689.6127853.5419464 1.5826149-.1436157 2.0831718-.3385906.2384911-.8751755.2770462-1.1137257-.0615273-.1828594-.2581215-.1140671-.611248-.0791206-.9329796.0443535-.3997574.0306396-.8146858-.0454369-1.2222176-.0132256-.0821037-.0520382-.1781731-.1329117-.197567-.1489124-.0316505-.1900673.195179-.1594963.3366699.1017647.6793633-.0032177 1.3867836-.2942123 2.0089302-.5982685 1.2522812-1.7744541.7718658-1.4240284-.314621.2300739-.7449493 1.2482033-1.8059959.9356079-2.056591-.0825253-.0618629-.2013054-.0271683-.2660599.0454445-.1481209.1664009-.2243462 1.0051575-1.1122799 1.6355553-.1608257.1114273-.337347.2059326-.5270748.2183952-.1926231.0025558-.4072132-.1066971-.4522343-.2976685-.0173454-.059391-.0078602-.1373711-.0053902-.202549-.6902616.4889262-.59638 1.0951464-.2804773 1.2099994z" fill="#19345d"/></g><g><path d="m25.8779793 45.8397141c.0284824.2976608.430191.3915825.5046768.6726761-.0088329-.0333366.0605965-.1077461.0600567-.3067856-.0019646-.7240067-.6014805-.7499276-.5647335-.3658905z"/></g><g><path d="m24.138834 48.4553146c-.1572132.0689583-.1584263.2630386-.1427498.4211006.0064468.0650101.0515251.5081596.0974865.5549545.1510105.1537437.3878651-.4318047.4326973-.5363503.091795-.2140692-.1432323-.5468176-.387434-.4397048z"/></g><g><path d="m21.3165245 48.5866127c-.1239281.3420906-.1622639.6895142-.1790714 1.0544662-.0020618.044754-.0005817.0966492.0345974.1243858.0368385.0290489.0942707.0141068.1267071-.0197868.0666714-.0696716.096777-.1946678.1542416-.2761765.1679325-.2381973.4243603-.427475.5288181-.7099991.2177829-.5890158-.4172097-.8576888-.6652928-.1728896z"/></g><g><path d="m19.7931805 48.2520676c-.0224285.0861855-.0964947.5211563.0132828.5568047.0299225.0097046.0628223-.0085526.0816708-.033741.0749073-.1000938-.0172062-.1338196.3325405-.4017601.1867008-.1430283.313467-.2896614.2724285-.5370216-.0150356-.0906219-.0798264-.1798019-.1707973-.1925659-.2161237-.0303232-.4669687.369419-.5291253.6082839z"/></g><g><path d="m34.7085838 29.1525917c-.1273384 2.2505341-.4568062 3.9020081-.8558807 5.7646179-.2475471 1.0209084-.5569038 2.0624657-1.1756172 2.8771133-1.0125484 1.3016586-2.2679901 1.6281776-3.5165386.5981331-.9074898-.7527771-1.4127827-1.9593658-1.3096218-3.134922l2.6502743-23.2440186c1.3199444 1.5881376 2.3511753 3.4031172 3.0730534 5.3417759.8734169 2.3087387 1.1390839 4.3512306 1.278717 6.8989468.0721931 1.6500111-.0515481 3.25873-.1443864 4.8983536z" fill="#19345d"/></g><g><path d="m33.6258011 46.611412c-.1237411.0721321-.2784538.051548-.4331017.0618706-.1650314.0102615-.453743.0824547-.5465813.2371635-.0927773.1340675-.051548.3712273-.0927773.5259399-.2164612.8654823-1.4303532.9176865-2.1243343.3918724-.0825176-.0618706-.1650333-.1340637-.2681313-.1134834-.0825157.0206451-.1340656.123806-.1340656.2165833-.0103226.1856117.1237431.3918724-.1134205.5156136-.1031609.0515518-.2269039.0206451-.3300018 0-.2578087-.0721931-.5156155-.1547089-.7631016-.2474861-1.0764885-.3945961-1.209446-.8876419-1.1343937-1.73246 0-.0515518.0103226-.1031609-.0103226-.1443901-.051548-.0928383-.1752911-.0928383-.2680664-.1237411-.299099-.0928383-.3609695-.4640694-.3094215-.7218742.2165813-1.0209122.350647-2.0624657.4125195-3.104023l2.5471134-.6083908c0 .5801697.443367 1.0259514.6600037 1.5674324.2948265.6764565.1603565 1.4289551 1.2890415 1.9078178.569706.2356987 1.4305573.2066498 1.7118797.855938.0824548.1752928.0618706.4021338-.0928382.5156172z" fill="#095da4"/></g><g><path d="m33.6258011 46.611412c-.1237411.0721321-.2784538.051548-.4331017.0618706-.1650314.0102615-.453743.0824547-.5465813.2371635-.0927773.1340675-.051548.3712273-.0927773.5259399-.2164612.8654823-1.4303532.9176865-2.1243343.3918724-.0825176-.0618706-.1650333-.1340637-.2681313-.1134834-.0825157.0206451-.1340656.123806-.1340656.2165833-.0103226.1856117.1237431.3918724-.1134205.5156136-.1031609.0515518-.2269039.0206451-.3300018 0-.2578087-.0721931-.5156155-.1547089-.7631016-.2474861-1.0764885-.3945961-1.209446-.8876419-1.1343937-1.73246 0-.0515518.0103226-.1031609-.0103226-.1443901-.051548-.0928383-.1752911-.0928383-.2680664-.1237411-.299099-.0928383-.3609695-.4640694-.3094215-.7218742.2165813-1.0209122.350647-2.0624657.4125195-3.104023l2.5471134-.6083908c0 .3773994.2422504.8366318.4434853 1.1240082-.7907162.7379608-2.0878105.535675-2.7843399 1.3096848-.1031609.1134224-.1650333.2474861-.2578087.3609085-.0618706.0928383-.1237431.1547089-.1340656.27845-.0206432.2165833.0927773.4537468.2990513.5259476.2215462.0916443.4841347-.096386.6149578-.2716103.0233631-.031292.0447426-.0646782.0741978-.0903168.0898018-.0781631.2166271-.0344505.1958389.1629448-.032383.3075027-.2605686.4643707-.4106216.714592-.4263821.7629128-.0765247 1.6710815.7218761 1.9593658.3918724.1340027.9177494.0205803 1.051815-.3712921.1711559-.4961357-.3647041-.9034996-.4846497-2.1036911-.0421638-.3370476.2933979-.3160706.3196793.051548.1171532.8594894.7251339 2.0464783 1.4849777 2.2996292.6530571.1905022 1.1376877-.4205284.6393585-1.1549759-.4296951-.6505737-1.7044621-1.3836365-1.4746552-1.7118187.0618725-.0825157.1856155-.0825157.2681313-.0309639.0824528.051609.1443253.1443863.1959362.226902.4428139.6571159 1.3592587 1.212635 1.8974323 1.0931053.1856155-.0515518.3609695-.2165833.350647-.4125214 0-.0618706-.0309677-.1340637-.0516129-.1959343.299099.1031609.5672302.2578087.7012939.5672264.0824549.1752929.0618707.4021339-.0928381.5156173z" fill="#19345d"/></g><g><path d="m32.620369 32.7084656c-1.0667076 5.3859558-1.0918331 4.9494743-1.2426472 5.9727669-.0989685.5437202-.0657864 1.5090828-.2887745 2.3614998-.0223427.1005516-.5245743 1.342308-.5774879 1.4437485-.2474861.4846497-.8456192.6805878-1.3921394.6599426-1.0022411-.0577583-1.6301994-.5938568-3.1349239-.4434204-.9131889.0731239-1.1636791.855938-3.1968575.855938-.5671654 0-1.0415554-.0309677-1.3818169-.5671654-.2887745-.453743-.3300018-1.0106506-.3815498-1.5365257-.4168491-4.4913597-1.5519466-7.11026-1.8768501-8.5076675-.1650333-.7218742-.2372265-1.454073-.2578087-2.1965294-.0103226-.6290989-.2165813-1.227169-.2578087-1.8562679-.2128925-3.4761333 1.2211952-6.8040428 2.3099518-10.0338707 1.1039181-3.2923708 2.0245552-7.0920582 4.8364811-9.4460611.0825157-.0928392.175293-.1547108.2578087-.2269039.1030464.0288334 2.3910713.6690464 2.2480793.6290359l1.5468483.6703262c.226841.2681303.2784519.2681303.4846497.5568428.8250351 1.1652975 1.4849758 2.4543381 1.9387226 3.8155727 1.2678717 3.8020734 1.8786849 10.211604.3661231 17.8487386z" fill="#f2f8fd"/></g><g><path d="m22.0347595 24.0686245c-.6909084 2.155304-1.3200073 4.4549313-1.2787189 6.7133331.0515499 2.279047.4949722 4.5477695 1.3199482 6.6721172 1.1451492 2.9902229 3.0240936 2.8149071 3.6453362.9256668.2350883-.7149124.4065266-2.2183914.9425144-2.2219696.8046513-.0053711-.0565395 2.2057648.3667145 3.9463692.1634064.6719971.6157093 1.6707878 1.4494076 1.6707878.8352966.0824547 1.4953003-.6600037 1.9490452-1.3612328.3505821-.5569077.6702633-1.1343956.9487152-1.7324638-.0989685.5437202-.0657864 1.5090828-.2887745 2.3614998-.0223427.1005516-.5245743 1.342308-.5774879 1.4437485-.2474861.4846497-.8456192.6805878-1.3921394.6599426-1.0022411-.0577583-1.6301994-.5938568-3.1349239-.4434204-.9131889.0731239-1.1636791.855938-3.1968575.855938-.5671654 0-1.0415554-.0309677-1.3818169-.5671654-.2887745-.453743-.3300018-1.0106506-.3815498-1.5365257-.4168491-4.4913597-1.5519466-7.11026-1.8768501-8.5076675-.1650333-.7218742-.2372265-1.454073-.2578087-2.1965294-.0103226-.6290989-.2165813-1.227169-.2578087-1.8562679-.2128925-3.4761333 1.2211952-6.8040428 2.3099518-10.0338707 1.1039181-3.2923708 2.0245552-7.0920582 4.8364811-9.4460611.2681313-.0309677.5361977-.0516129.8043289-.0721941.1013889.0282631 1.8084908.5041351 1.7015591.4743261l1.5468483.6703262c.226841.2681303.2784519.2681303.4846497.5568428 1.2460461 1.7599401 2.113699 3.7870073 2.5368519 6.1668119-.7321968 1.0002651-1.8458824 1.7118187-3.0730515 1.8871098-2.495167.3594131-5.6468661-1.5189915-7.7445643 4.9705486z" fill="#d0dcee"/></g><g><path d="m38.1219597 5.6508293c-.2208214.0737066-1.0622482-.1257215-2.6193085.1856141-1.0827827.2062593-2.155304.4228406-3.2174416.7115531-1.5595837.4137912-2.2081757 1.5658379-3.1658897 2.155303-.1030979.0618715-.2062588.1443253-.2165813.2578087-.020483.2045765.1622753.347929.9281349 1.5262032-.4847126-.1134205-.9281349-.4434223-1.4231052-.4021959-.975647.0697575-.3925247.8398037-1.402462 1.577816-.863266.6653681-1.6473408.5324469-2.8977604 1.8871727-1.9034767 2.1037321-2.065546 5.0104809-2.804985 7.4351463-.6290359 2.0521412-1.5365257 3.9908638-1.9077549 6.1152-.1547089.9178123-.1650314 1.8871727-.2165813 2.8255653-.4834824 7.2973309.055645 9.6097584-1.0621357 9.6729641-.5255527.0525894-.4453697-.5811462-.4847126-1.0724564-.1750488-2.3947105-.4728947-5.2433243-.3403244-8.8892193.308342-8.0388432 2.1792469-9.9996243 2.7224693-12.2716904 1.1627922-4.7745275 2.483984-6.1481361 2.8358879-7.5795326.1753559-.6909084.0206451-1.3921385.1547108-2.0831099.7834167-3.6238613 5.1456089-4.8893166 7.0226898-3.8464766.0412273.0103226.0825157.0309043.1134205.0515492 1.4846325.8833463 3.2762241.692672 4.362093.7321975 1.8838539.0940876 2.4199562.1066532 2.8153076.1959367.3093567.0721941.6187134.2062593.8661995.4227777.1547087.1443879.1753539.330002-.0618707.3918735z" fill="#19345d"/></g><g><path d="m24.3447094 7.5483246c.1237431.4537449.4434223.8352957.5774879 1.278718.2062588.6702633-.0103226 1.4024611-.3712292 1.9902706-.7413979 1.1945591-2.0942841 1.9992943-3.1143417 4.661191-.4124546 1.0827808-.3918724 2.2996273-.928072 3.2998924-2.5901871 4.8321743-1.693861 10.8105183-2.1862698 16.0562973-.0721302.8147125-.226841 1.7222023-.8043289 2.2790451-.4892712-5.3116055-.4569569-12.0677395 1.4849777-17.0153332.350584-.9074898.7837467-1.7840118 1.0105877-2.7327919 1.1627922-4.7745275 2.483984-6.1481361 2.8358879-7.5795326.1753559-.6909084.0206451-1.3921385.1547108-2.0831099.4863987-2.2499399 2.2988586-3.6683159 4.4961586-4.1042843.8146496-.1650324 1.8063259-.148128 2.5488453.26439-1.3200073.1030982-2.631361.4987118-3.7863369 1.1587155-.9693603.5465205-2.3511772 1.0931037-1.9180774 2.526532z" fill="#095da4"/></g><g><path d="m32.5430183 15.8290882c0 1.1552467-.5644569 1.8630505-1.8149776 1.6602688-1.6190434-.2474861-3.0524712-1.3405895-4.7024174-1.4127827-1.0621986-.0412273-2.1449814.3815498-2.8977604 1.1343918-.1134205.1134205-.9796829 1.1034279-1.103426.7631035-.0309048-.0618725-.0103226-.1443882.0103226-.2062607.4380779-1.63307.8878193-3.4072895 2.2171116-4.6508675 1.0789032-1.0235233 2.9102192-1.6771135 3.2380848-2.1243362.2165813-.2887125.2474861-.6393585.175354-.9899426-.0776176-.3683357-.4922771-.5285625-.8250351-.7425203-.2783909-.1649694-.5156174-.4125175-.7734241-.6083918-.6393604-.5156164-1.227169-1.0621996-1.4952374-1.8356237-.2578087-.7424569.1237431-1.6396871.8249741-1.9696259.2887115-.1443877.7012291-.1650324.8868446.1030979.0103226.0103226.0206451.0309043.0206451.0412269.3151627.5518966-.6485844 1.5757699-.4537449 2.5987253.1270771.7412663.8059616 1.2321692 1.381815 1.629365.7298584.5333443.8903866.2254705 1.051878.2578077.051548 0 .1030979.0618715.0721931.1030989-.0103226.0309668-.0412903.0412264-.0721931.0618706-.0412273.0412903-.0412273.1237431 0 .175292 0 .0103226.0103226.0206451.0206451.0309677.0618706.051549.1340637.0721931.2165184.0928383.5062675.1379461.3969631.1462755.6496811.2474861.1375504.0499973.3643436.1320171.5052929.2165184.2018642.0807447.2843857.1969156.3918743.3196793.0825157.0928383.1547089.1856146.2269039.2887754.9383698 1.3559885 1.6982365 2.8002462 2.2480774 4.8158378z" fill="#ff9f1c"/></g><g><path d="m35.7294922 5.5786352c-.1990852.0819941-1.3728714.3030772-1.5777512.3403244-2.1687813.3669615-2.1047974.7321978-2.578083.7321978-.1547089.0102596-.3609676-.0618715-.4330997-.2165813-.1009388-.2163091.3132935-.4928331.4743271-.5465837.4476566-.3196445 1.1818295-.3956885 1.6705914-.4434223.6058083-.0632954 1.7640533-.170238 2.3615608-.0618711.1856154.0206447.3505858.0825162.0824546.1959362z" fill="#ff9f1c"/></g><g><path d="m27.4357052 46.1673622c-.0868454.1643448-.2447109.3142471-.2397518.5115395-.0008659-.0344772-.0883732-.0864372-.1436558-.2776489-.0252914-.087471-.0469284-.1887245-.042778-.2804794.0302353-.6683999.6870384-.4470406.4261856.0465888z"/></g><g><path d="m29.8944931 47.9148521c.078846.0102425.1450481.0685043.1844139.1375847.0744057.1305695.1242313.5475235.1409206.6969376.0033875.0303268.0061741.0628052-.0082493.0896988-.1018524.1899147-.4933662-.305748-.5657101-.3935318-.1481284-.1797486-.0158137-.5650444.2486249-.5306893z"/></g><g><path d="m33.1079445 48.2116241c.0145226.0423813.0276527.0926094.0016594.129097-.0272179.0382118-.0865364.0399704-.1271744.0165291-.0835304-.0481834-.1474686-.159729-.2254829-.221859-.2279739-.1815643-.5271835-.2913628-.7066574-.5332718-.1141911-.1539116-.2046623-.4668732-.0006142-.5901451.4648437-.2808151.8828277.6877556 1.0582695 1.1996498z"/></g><g><path d="m34.0088959 46.5014496c.0456886.0764389.2387314.4732018.1433525.5381966-.0260048.017704-.0627022.0094032-.0878563-.009491-.1000824-.0751686-.0210037-.1332779-.431839-.2924194-.2193108-.0849495-.382103-.1901665-.4120598-.4391098-.0109749-.0912056.0262184-.194973.1099625-.2327271.1989555-.0896988.5518074.2236862.6784401.4355507z"/></g><g><path d="m35.6470375 5.382699-.0618706.0618711c-.1856117.1650324-.4434204.1959367-.6909714.2269039-2.1958809.3135266-2.6311188.5582128-3.0524063.4434223-.1031609-.0412264-.2062588-.1237426-.2269039-.2269039.4476566-.3196445 1.1818295-.3956885 1.6705914-.4434223.6058082-.0632954 1.7640533-.1702381 2.3615608-.0618711z" fill="#ffca28"/></g><g><path d="m31.8830166 13.9006882c.0412254.4021959.0928383.8146515-.0206451 1.1962652-.1959381.6496181-.9590397 1.0827818-1.6189804.9074259-.5156155-.1340017-.8869076-.5361977-1.3200073-.8455544-.9487152-.6806488-2.2480793-.8559408-3.3411827-.4434853-.1650333.0618706-.3403244.1340647-.5156155.1443872-.4620857.0272112-.7544441-.4242611-.1547108-.9383936.9239006-.7427912 2.1604652-1.0896168 2.8255672-2.1243362.2578068-.4228411.525938-1.0209103.3815498-1.5159445-.2345181-.7875261-1.0546246-.752286-2.1655617-2.031498-1.6917915-1.9737964-.5320988-3.4264169.4125175-3.021503.038187.5339217-.6841087 1.4768758-.5156155 2.3614993.1270771.7412663.8059616 1.2321692 1.381815 1.629365.7298584.5333443.8903866.2254705 1.051878.2578077.051548 0 .1030979.0618715.0721931.1030989-.0103226.0309668-.0412903.0412264-.0721931.0618706-.0412273.0412903-.0412273.1237431 0 .175292 0 .0103226.0103226.0206451.0206451.0309677.0618706.051549.1340637.0721931.2165184.0928383.5062675.1379461.3969631.1462755.6496811.2474861.1375504.0499973.3643436.1320171.5052929.2165184.6491739.2596695 1.851698 2.616522 2.206854 3.4958927z" fill="#ffca28"/></g><g><path d="m34.7085838 29.1525917c-.1273384 2.2505341-.4568062 3.9020081-.8558807 5.7646179-.2475471 1.0209084-.5569038 2.0624657-1.1756172 2.8771133-.0206451-.0205803-.0309677-.0309029-.0412903-.051548-.3815498-.6083908-.1546478-1.4024582.0618706-2.083107 2.6262856-8.3823833 1.0639725-13.772377.8765869-18.3043766.8734169 2.3087387 1.1390839 4.3512306 1.278717 6.8989468.0721932 1.6500111-.051548 3.25873-.1443863 4.8983536z" fill="#095da4"/></g><g><ellipse cx="28.903" cy="5.32" fill="#a5c0dd" rx=".718" ry=".378"/></g><g><ellipse cx="28.903" cy="5.32" rx=".415" ry=".218"/></g><g><path d="m28.6320152 5.2403636c-.1232777 0-.1234531-.1864877 0-.1864877.1232796 0 .1234551.1864877 0 .1864877z" fill="#f2f8fd"/></g><g><path d="m28.7560329 27.4127045c.3078766 1.3920193 1.8525524-.9438381 1.0341511-2.890789-.3485126-.8290977-.9095802.4702625-1.0416946.8329048-.2273903.6241645-.1318245 1.427761.0075435 2.0578842z" fill="#d0dcee"/></g><g><path d="m26.8834953 28.8647404c.1394405.6304588.8390369-.4274712.4683762-1.3092613-.1578445-.3755054-.4119568.212986-.4717922.3772297-.1029873.2826881-.0597039.6466445.003416.9320316z" fill="#d0dcee"/></g><g><path d="m29.8673496 13.0148935c.3148689.1650114.5546246-.0514793.3368816-.4050179-.171793-.2789326-.443327-.4949856-.7537251-.599719-.132473-.0446997-.2196884-.004241-.1849136.1454735.0781899.3366337.2885876.6951428.6017571.8592634z" fill="#ff9f1c"/></g><g><path d="m28.6208057 12.9546814c.1860771.0975161.3380852-.0258055.2033806-.2445164-.103714-.168396-.267643-.298831-.4550362-.3620605-.0810928-.0273628-.1325626-.0022764-.1116352.0878248.047205.2032318.1742249.4196691.3632908.5187521z" fill="#ff9f1c"/></g><g><path d="m29.9255428 44.7676811c.2408218-.024765.0288963-.3994408-.3201733-.4981918-.162632-.0460091-.2001457.1236877-.1205463.23489.0956822.1336708.3117752.2765579.4407196.2633018z" fill="#19345d"/></g><g><path d="m29.8888092 44.0369568c.120739-.0124168.0144863-.200264-.1605225-.2497749-.0815392-.0230675-.1003475.0620117-.0604382.1177673.045126.0630417.1554604.1387405.2209607.1320076z" fill="#19345d"/></g><g><path d="m19.1197395 47.7265282c.3082409-.0914459.3847103-.651783-.2078381-1.1383095-.1800766-.1478577-.3859692-.2603836-.5904961-.3719978-.2702637-.1474838-.4856682-.115284-.5528374.2068901-.0989952.4748344.2041397.6293983.5779648.9297218.1912996.1536865.5010549.454422.7732068.3736954z" fill="#d0dcee"/></g><g><path d="m19.063755 45.8282776c.1086006-.0322189.1525688-.2351379-.0774097-.4239655-.06707-.055069-.143755-.096981-.2199306-.1385498-.2201862-.1201591-.2548656.1569443-.1694279.2682457.0472431.0615463.1189251.1069946.1787853.1550865.0712509.0572434.1866207.1692505.2879829.1391831z" fill="#d0dcee"/></g></g></svg>