<svg id="Layer_1" height="512" viewBox="0 0 1000 1000" width="512" xmlns="http://www.w3.org/2000/svg"><g><path d="m242.115 819.931c-9.197 26.534 8.146 52.077 28.152 64.58 12.871 8.041 28.785 12.291 46.02 12.291 26.646 0 54.436-10.117 73.854-26.379 6.713 1.162 13.396 1.989 19.893 2.469 6.072 16.356 20.383 29.066 34.504 35.302 11.45 5.06 24.85 7.625 39.826 7.625h.002c10.877 0 22.496-1.34 34.526-3.984 23.319-5.12 44.19-19.066 60.945-40.589 5.354.5 10.681.754 15.938.754.471 0 .938-.003 1.41-.007 3.679 4.573 8.072 8.583 13.047 11.875 13.051 8.633 29.662 13.011 49.365 13.011 11.735 0 24.578-1.549 38.164-4.603 16.633-3.74 29.39-9.37 38.994-17.214 31.456-7.58 45.796-28.104 55.663-47.444 3.477-6.816 7.776-13.276 12.325-20.117 1.783-2.678 3.572-5.369 5.338-8.115 4.354-6.762 8.125-14.229 11.402-22.607 17.183-2.748 32.568-10.875 45.043-23.901 18.408-19.224 28.646-48.061 27.385-77.141-1.922-44.351-41.278-83.268-84.298-83.435-22.958-53.902-59.224-96.263-102.175-119.318-22.167-11.899-47.824-17.936-76.259-17.936-5.262 0-10.661.214-16.048.637-13.34 1.043-25.869 4.181-37.985 7.212-11.724 2.934-22.864 5.725-33.429 6.249-.844-19.748-4.742-40.447-11.256-59.003-5.713-16.271-13.877-32.037-23.609-45.597-2.184-3.04-4.211-6.952-3.359-8.806 4.518-9.833 16.264-18.687 27.627-27.249 4.582-3.454 9.32-7.027 13.719-10.756 21.547-18.266 41.578-40.529 59.538-66.169 18.603-26.563 30.91-54.775 36.579-83.846 2.332-11.949 9.424-48.313-16.303-70.286-10.295-8.795-23.384-13.252-38.902-13.252-18.785 0-37.23 6.627-49.398 12.188-23.964 10.953-48.146 28.618-76.107 55.591-22.215 21.43-40.52 45.488-54.406 71.506-5.971 11.183-10.293 22.635-14.471 33.709-4.973 13.173-9.721 25.761-16.746 36.363-1.383-.054-2.766-.083-4.148-.083-.749 0-1.5.009-2.246.024-.824-8.029-1.377-16.296-1.95-24.829-2.163-32.213-4.398-65.52-21.917-96.304-12.982-22.815-36.176-38.214-62.041-41.193-3.664-.423-7.395-.637-11.088-.637-35.02 0-64.807 19.273-84.17 33.773-24.191 18.117-44.592 42.411-60.633 72.209-12.278 22.799-25.992 56.614-21.613 88.235.896 6.446 3.617 26.063 20.198 35.589 8.158 4.687 18.189 7.062 29.817 7.062 5.467 0 11.215-.524 17.076-1.557 20.135-3.544 39.923-11.925 61.803-26.229 3.381 12.91 4.423 27.785 5.082 39.136-2.336 6.423-4.156 13.297-5.439 20.553-17.16 14.556-24.396 38.271-20 65.076-10.227 20.775-13.221 43.71-9.156 69.849 4.227 27.209 16.565 53.455 33.008 70.212 0 0 1.963 1.977 2.084 2.098.061.189.127.394.198.614 1.084 3.333 2.401 6.629 3.919 9.824-26.486 49.241-21.031 114.127 15.109 168.906 1.059 1.604 2.145 3.197 3.254 4.778-8.577 7.143-17.114 16.176-21.655 29.286z" fill="#fff"/><g><path d="m452.45 890.282c18.833 8.32 42.63 6.735 62.241 2.427 24.266-5.329 42.996-22.379 56.01-42.369 12.257 2.006 24.56 2.604 36.932 1.597 2.766 6.04 7.145 11.459 13.402 15.599 20.217 13.373 50.075 10.661 72.432 5.635 10.73-2.412 22.488-6.313 31.094-13.434 1.102-.912 2.094-1.841 3.031-2.779.045-.006.082.012.129.003 23.966-4.343 36.525-17.205 47.256-38.241 5.435-10.654 12.196-19.919 18.641-29.932 6.038-9.379 10.324-19.862 13.566-30.551 43.85.605 68.924-41.092 67.166-81.653-1.622-37.404-39.646-72.454-77.477-63.198-1.596-4.34-3.246-8.619-4.996-12.752-18.92-44.733-50.248-87.073-93.699-110.398-24.936-13.387-53.596-17.214-81.517-15.03-31.198 2.442-61.222 18.897-92.667 11.882 1.596-24.351-2.807-49.947-10.008-70.457-4.867-13.865-11.946-27.996-21.039-40.665-5.456-7.601-10.041-17.962-5.247-28.4 8.829-19.215 30.892-31.551 46.478-44.765 21.286-18.045 40.18-39.65 56.16-62.468 16.037-22.897 28.039-48.863 33.4-76.359 3.396-17.419 5.07-38.947-9.803-51.65-18.191-15.538-48.445-6.824-67.441 1.857-26.178 11.966-50.09 32.037-70.653 51.875-20.126 19.415-37.556 41.955-50.728 66.635-14.316 26.817-19.109 58.04-39.552 81.377-10.558-1.676-21.808-1.327-32.062 1.241-8.088-44.09-1.162-92.868-24.157-133.274-9.849-17.308-27.444-29.143-47.263-31.425-30.438-3.506-57.676 11.682-81.279 29.356-23.121 17.314-41.498 40.494-55.131 65.818-11.848 22.005-22.969 50.909-19.455 76.264 1.041 7.508 3.354 17.164 10.555 21.299 9.586 5.507 23.227 5.053 33.744 3.2 21.973-3.868 41.807-14.475 60.102-27.114 9.633-6.652 15.291-7.851 19.451 1.711 7.898 18.172 9.401 41.045 10.427 59.136.024.42.19.735.29 1.102-3.877 9.188-6.159 19.264-7.262 29.032-1.252.715-2.504 1.479-3.752 2.415-16.734 12.552-18.574 34.934-13.834 54.573-11.445 19.65-13.969 40.784-10.389 63.808 3.193 20.551 12.584 44.164 27.631 59.5 4.873 4.963 5.068 4.616 6.932 10.373 1.881 5.785 4.629 11.313 7.969 16.12-32.372 48.547-21.904 111.372 8.783 157.884 4.365 6.615 9.195 12.992 14.434 19.046-11.826 9.372-25.488 17.233-30.678 32.214-5.664 16.344 6.998 33.418 20.025 41.561 30.568 19.098 79.936 6.831 103.398-18.644 14.363 3.206 29.152 4.863 42.676 4.481-1.54 16.172 11.808 30.388 25.734 36.537z" fill="#68182b"/><path d="m863.119 676.583c2.145 25.961-9.908 52.949-31.72 64.534-13.536 7.194-19.94 4.398-18.032-13.467 3.641-34.04-2.152-70.95-12.816-103.675 31.195-6.534 60.084 22.533 62.568 52.608z" fill="#eee"/><path d="m246.396 439.752c2.389-11.745 11.773-23.67 24.856-21.563 12.085 1.947 20.675 14.929 24.507 25.407 6.943 23.461-.057 80.912-34.615 48.317-13.484-12.718-18.341-34.505-14.748-52.161z" fill="#faf098"/><path d="m318.215 847.437c.395-.765-.391-1.504-1.141-1.14-4.645 2.264-8.669 6.824-9.22 12.111-.171 1.646-.171 4.021.235 6.303-5.336-.632-10.545-1.778-15.463-3.533-.691-.247-1.383-.521-2.072-.82-8.582-3.753-8.213-15.554 4.863-23.063.598-.342.389-1.481-.374-1.383-6.075.785-15.595 5.505-19.957 11.697-4.282-6.363-5.968-14.038-2.442-21.625 4.671-10.049 16.316-17.38 24.738-25.271 14.605 15.293 31.872 28.155 50.936 36.876 7.021 3.211 14.836 6.009 22.975 8.396-10.615 9.294-24.461 15.441-38.867 17.972-8.266 1.448-23.121.646-14.211-16.52z" fill="#eee"/><path d="m313.928 561.353c6.805-11.112 17.58-14 29.961-13.175 10.043.67 27.633 6 28.814 18.075 2.931 29.911-75.563 30.451-58.775-4.9z" fill="#ff5671"/><path d="m346.902 618.489c10.319 11.338 24.533 17.654 41.406 17.893-8.537 11.142-21.313 13.805-36.135 14.193-15.496.404-31.236-.936-38.642-15.32 12.619-2.055 24.842-8.136 33.371-16.766z" fill="#eee"/><path d="m776.693 594.226c-20.051-41.175-52.641-84.217-97.402-100.142-27.625-9.826-57.227-10.434-85.729-3.971-24.148 5.473-45.992 13.211-70.718 8.248-1.868 12.509-5.552 24.397-11.524 34.746-.52.901-1.877.288-1.645-.692 4.26-17.783 4.168-37.175 4.266-55.405.106-19.696-2.596-39.189-9.279-57.809-6.207-17.29-14.853-35.642-27.18-49.583-13.488-15.255-29.717-25.405-46.662-36.293-.309-.2-.104-.642.242-.576 16.938 3.169 31.766 11.742 44.302 23.273 3.519-20.31 18.728-34.359 34.775-46.882 19.422-15.156 37.479-31.618 53.448-50.458 18.281-21.571 35.091-45.88 44.16-72.913 5.243-15.633 16.453-48.672 2.567-63.091-20.472-21.261-59.567-1.162-78.952 11.828-22.436 15.032-43.406 32.253-61.383 52.481-18.002 20.263-35.304 43.91-44.656 69.628-7.508 20.645-14.971 42.735-29.125 59.887 6.381 1.963 12.209 4.704 16.965 8.207.332.245.281.932-.238.88-15.307-1.527-30.072-3.773-45.49-1.736-15.24 2.015-29.961 8.516-43.691 15.212-.906.443-1.802-.445-1.354-1.354 4.363-8.847 12.098-15.115 21.393-19.151-8.272-42.338.031-93.124-23.316-131.341-35.07-57.399-109.375-9.766-140.508 27.009-18.414 21.752-33.7 48.126-40.502 76.008-2.744 11.243-7.635 31.499.156 42.038 7.275 9.848 28.896 5.336 38.6 2.384 56.426-17.173 103.395-66.552 131.227-116.935.691-1.248 2.869-.387 2.344.989-3.549 9.244-7.531 18.025-11.965 26.422.016.033.045.045.061.081 11.508 24.812 20.429 58.366 6.867 84.084-.193.369-.823.209-.797-.216 1.35-20.703-.193-40.15-5.985-59.207-3.425-11.267-5.975-13.126-15.026-.74-9.521 13.04-20.804 24.853-34.352 35.473-.1.079-.201.155-.299.231 12.754 16.582 17.195 39.847 19.348 61.164 7.506-9.703 17.881-16.791 31.948-18.718.837-.115 1.499.769.854 1.466-10.393 11.21-23.846 18.228-30.867 32.464-3.974 8.05-5.768 16.694-6.859 25.491 18.121-1.943 34.773 15.098 41.639 32.59.203.373.373.782.509 1.236 6.116 20.658 6.581 50.434-9.858 66.669-17.782 17.558-45.295-3.902-53.945-20.549-1.357-2.613-2.611-5.424-3.74-8.36-11.014 33.674-4.109 73.678 18.285 101.273.533-4.988 1.906-9.735 4.406-13.889.322-.535 1.199-.285 1.131.307-3.064 26.878 8.539 44.827 16.67 51.353 1.828 1.468 3.87 2.781 6.15 3.91 16.396 8.115 33.802 4.183 47.803-5.521 6.531-4.531 4.766-7.677 1.09-17.022-22.855-1.83-42.461-16.222-31.537-41.544.141-.533.342-1.07.676-1.619.275-.575.612-1.027.973-1.426 11.584-17.256 33.289-21.373 52.607-14.746 16.781 5.759 35.609 20.651 23.227 40.514-6.85 10.989-20.053 17.063-33.816 18.614 8.766 18.593 26.04 28.84 47.701 26.51 13.445-1.445 36.65-9.981 47.715-42.594.445-1.312 2.221-.481 2.346.636.953 8.648-1.834 17.328-6.78 25.12 12.581-.704 25.048-4.274 35.473-11.526 16.579-11.533 24.521-27.861 31.864-45.742 1.87-4.55 2.668-3.414 2.537.521-1.271 38.031-34.865 65.708-71.48 67.662-5.457.288-7.294.369-11.943 4.131-6.839 5.531-14.671 9.667-22.348 11.687-.082.209-.143.418-.252.629-11.262 21.623-33.775 27.261-56.84 25.363-18.041-1.484-32.906-7.682-39.348-24.884-9.687.218-19.205-2.118-27.068-7.792-1.41-1.017-2.76-2.206-4.077-3.467-27.036 44.305-17.649 104.003 11.038 145.272 18.172 26.143 43.357 49.475 73.59 60.718 22.703 8.446 46.629 10.468 70.512 12.582 11.467-26.357 49.525-34.468 58.295-63.579.369-1.226 2.527-1.476 2.729 0 3.558 25.868-27.863 40.953-43.013 56.536-9.467 9.738-14.295 22.253-5.793 33.417 2.926-4.925 9.184-11.238 19.213-9.646.725.114.746 1.151.193 1.479-10.32 6.101-12.774 15.576-5.221 19.026 7.289 3.332 15.453 4.688 23.674 4.987-.508-1.617-.733-3.351-.623-5.015.383-5.788 4.617-11.733 9.48-14.776.734-.461 1.922.437 1.421 1.091-6.978 9.099-3.274 19.008 6.608 18.138 4.139-.362 8.125-.969 11.968-1.823 18.435-4.095 33.56-13.848 45.97-29.442 15.738-19.774 29.145-42.744 35.794-67.275 9.472-34.955 9.343-83.52-37.852-85.739-1.364-.065-1.723-2.071-.329-2.429 48.94-12.624 58.99 41.547 51.711 78.02-4.556 22.82-14.039 45.145-26.789 64.81 9.139.321 18.26.409 27.383-.189-1.727-13.024 2.764-27.161 12.401-37.631 16.56-17.992 54.078-31.745 75.636-14.274.768.622.145 2.03-.812 1.958-24.821-1.859-50.167-1.902-67.46 19.683-12.963 16.184-12.881 40.233 6.66 49.374-.665-4.531-.699-13.946 7.628-21.286.827-.727 2.179-.038 1.88 1.096-5.455 20.651 10.936 25.475 16.631 25.785 6.955.378 13.996.018 20.895-.938-6.948-4.855-10.943-13.863-12.997-22.03-.229-.918 1.115-1.662 1.505-.875 11.596 23.519 35.1 20.202 48.439 11.059 12.25-8.392 18.275-21.216 21.154-37.622.301-1.723 2.102-2.222 2.16-.38.336 10.722.75 20.339-2.26 29.015 9.204-3.575 17.098-9.26 22.514-18.275 5.021-8.355 8.721-17.458 13.904-25.716 6.168-9.826 13.512-18.637 18.295-29.326 5.059-11.305 8.582-23.346 10.285-35.624 6.392-46.152-3.864-98.912-24.206-140.681zm-297.767-100.579c-13.879 27.632-46.602 46.037-75.764 30.029-26.17-14.369-19.52-52.102-10.1-74.105 11.043-21.836 40.038-55.038 68.185-38.962 27.195 15.534 30.782 56.948 17.679 83.038z" fill="#eee"/><path d="m470.691 483.293c-7.295 25.387-41.135 46.372-64.691 28.138-16.348-12.653-9.746-40.281-2.998-56.049 9.391-18.564 25.766-39.816 49.358-35.85 26.125 4.389 23.329 46.367 18.331 63.761z" fill="#faf098"/><path d="m372.703 566.253c-.463-4.725-3.451-8.401-7.501-11.186.806 1.469 1.493 3.012 1.925 4.721 2.757 10.895-7.205 16.201-16.201 18.164-9.996 2.182-22.332 2.22-31.354-3.016-4.938-2.864-6.508-7.161-6.361-11.812-13.318 33.526 62.371 32.523 59.492 3.129z" fill="#de3f58"/><path d="m261.145 491.914c34.559 32.595 41.559-24.856 34.615-48.317-3.072-8.396-9.24-18.306-17.771-22.952 11.989 16.031 18.035 34.261 14.57 56.134-2.43 15.35-18.875 18.464-29.141 9.991-5.911-4.878-9.416-13.169-11.841-20.164-2.993-8.631-4.612-17.94-5.089-27.233-.029.126-.064.254-.092.38-3.593 17.655 1.264 39.442 14.749 52.161z" fill="#f2ae79"/><path d="m406 511.431c23.557 18.234 57.396-2.751 64.691-28.138 4.537-15.793 7.182-51.758-11.908-61.549 13.648 18.201 11.485 42.813-1.938 65.122-12.527 20.824-44.885 32.887-56.666 2.138-4.088-10.67-1.452-20.793 1.693-30.852-6.286 16.061-11.303 41.333 4.128 53.279z" fill="#f2ae79"/><g fill="#d4d4d4"><path d="m565.178 144.354c-30.584 20.018-95.424 83.077-112.008 112.348-12.979 22.914-20.128 44.576-13.461 57.566 17.447 33.99 129.397-172.485 125.469-169.914z"/><path d="m466.311 824.208c6.553-5.938 12.225-11.851 16.031-19.028-9.689 11.965-25.322 21.441-34.713 31.102-9.467 9.738-14.295 22.253-5.793 33.417 1.561-2.626 4.102-5.615 7.625-7.62-13.231-13.192 6.668-28.641 16.85-37.871z"/><path d="m479.072 880.53c.117-1.776.632-3.56 1.381-5.275-3.828 2.487-7.816 4.214-12.905 4.198-4.534-.012-9.284-2.458-11.931-6.08-1.596-2.184-1.438-4.563-.578-6.807-4.717 5.405-4.693 11.4.982 13.991 7.289 3.332 15.453 4.688 23.674 4.987-.507-1.616-.733-3.35-.623-5.014z"/><path d="m307.854 858.408c.112-1.08.403-2.118.78-3.126-3.44 1.738-7.014 2.444-11.664 1.365-7.189-1.667-10.256-7.113-8.727-13.463-5.553 6.755-4.241 14.308 2.311 17.173.689.299 1.381.573 2.072.82 4.918 1.755 10.127 2.901 15.463 3.533-.405-2.281-.405-4.656-.235-6.302z"/><path d="m371.293 845.986c-8.139-2.388-15.953-5.186-22.975-8.396-13.145-6.013-25.409-14.032-36.563-23.422 5.746 5.585 11.551 11.115 16.391 17.525 2.889 3.827 4.688 8.158 5.322 12.901 1.791 13.395-9.766 13.365-17.75 9.707-1.873 10.456 9.734 10.877 16.707 9.656 14.407-2.529 28.253-8.677 38.868-17.971z"/><path d="m802.654 712.827c-1.963 14.309-6.415 28.259-12.164 41.456-6.326 14.52-15.332 27.254-24.029 40.382-3.463 5.226-5.971 10.477-8.184 16.305-1.963 5.179-4.092 8.916-7.796 12.93-2.552 2.767-4.605 4.237-6.292 4.866-1.588.315-2.941.122-4.063-.477-.742-.62-1.301-1.547-1.746-2.6-.024 6.477-.527 12.519-2.482 18.156 9.204-3.575 17.098-9.26 22.514-18.275 5.021-8.355 8.721-17.458 13.904-25.716 6.168-9.826 13.512-18.637 18.295-29.326 5.059-11.305 8.582-23.346 10.285-35.624 1-7.216 1.547-14.604 1.758-22.077z"/><path d="m849.236 723.231c-10.354 7.104-25.34 10.985-27.271-6.809-.869-8.008-.887-16.206-1.465-24.247-1.223-17.059-2.759-47.472-17.602-60.429 9.106 30.734 13.826 64.519 10.469 95.903-1.908 17.865 4.496 20.661 18.032 13.467 8.853-4.701 16.064-11.967 21.405-20.645-1.177.928-2.306 1.895-3.568 2.76z"/><path d="m621.089 843.097c-2.66-3.991-2.451-9.57-2.244-14.146.263-5.772 2.001-11.261 4.126-16.61-11.666 16.125-10.986 38.853 7.893 47.683-.393-2.685-.521-7.095 1.139-11.763-3.614 1.083-7.757-.429-10.914-5.164z"/><path d="m577.016 708.15c9.977 11.564 12.045 32.675 11.47 45.297-.866 18.925-8.103 38.155-16.458 54.914-8.077 16.197-19.338 30.654-32.586 42.925-4.164 3.854-45.863 34.994-52.679 22.094-1.597 6.698 2.313 12.264 9.819 11.603 4.139-.362 8.125-.969 11.968-1.823 18.435-4.095 33.56-13.848 45.97-29.442 15.738-19.774 29.145-42.744 35.794-67.275 7.405-27.332 8.94-62.98-13.298-78.293z"/><path d="m275.633 827.07c.961-6.498 5.939-11.229 9.979-16.265-5.328 4.581-10.295 9.431-12.967 15.179-3.525 7.587-1.84 15.262 2.442 21.625 1.585-2.253 3.863-4.299 6.399-6.044-4.668-1.897-6.658-9.028-5.853-14.495z"/><path d="m667.674 850.936c-.026 1.595-.233 3.171-.922 4.747-2.004 4.59-9.021 3.962-12.968 3.054-6.049-1.395-11.808-4.949-14.448-10.421.467 13.518 12.856 17.041 17.666 17.302 6.955.378 13.996.018 20.895-.938-4.624-3.232-7.916-8.307-10.223-13.744z"/><path d="m410.645 535.59c17.436 6.408 35.534-.463 49.277-11.488 20.041-16.073 28.6-40.546 26.306-64.782.254 12.147-2.294 24.355-7.302 34.328-13.879 27.632-46.602 46.037-75.764 30.029-26.17-14.369-19.52-52.102-10.1-74.105 4.291-8.486 11.303-18.68 19.912-27.04-9.738 7.511-17.805 21.221-22.832 29.892-9.213 15.883-12.451 34.924-7.9 52.738 3.729 14.586 14.52 25.323 28.403 30.428z"/><path d="m480.303 587.786c-7.115 5.16-27.053 13.397-36.182 5.79-.074.347-.162.69-.248 1.036 5.434 4.383 15.463 2.991 21.588 1.633 8.293-1.837 15.109-6.064 20.934-11.497 3.301-3.884 6.165-8.039 8.703-12.429-4.218 5.619-8.584 10.962-14.795 15.467z"/><path d="m735.053 819.798c-5.031 11.838-11.494 20.63-22.945 27.927-9.305 5.93-28.513 10.513-39.367 3.213 12.467 13.092 30.875 9.593 42.104 1.896 11.075-7.588 17.034-18.829 20.208-33.036z"/><path d="m263.566 585.946c.496 3 1.17 5.815 1.984 8.446 7.078 12.664 20.935 22.646 34.146 23.89 13.304 1.25 29.32-3.652 37.182-14.338-.265-.729-.546-1.488-.874-2.325-6.773 10.351-19.225 15.688-32.893 15.467-18.06-.29-33.805-14.319-39.545-31.14z"/><path d="m316.283 471.265c.539-15.082-5.607-34.739-17.615-45.825 3.174 4.337 5.805 9.073 7.682 13.858.203.373.373.782.509 1.236 6.116 20.658 6.581 50.434-9.858 66.669-17.782 17.558-45.295-3.902-53.945-20.549-1.357-2.613-2.611-5.424-3.74-8.36-.752 2.301-1.402 4.637-1.989 6.989 2.298 6.199 6.827 12.219 10.438 16.541 8.83 10.56 20.723 16.779 34.615 16.356 23.733-.717 33.192-27.096 33.903-46.915z"/><path d="m299.964 269.877c-3.425-11.267-5.975-13.126-15.026-.74-9.521 13.04-20.804 24.853-34.352 35.473-.1.079-.201.155-.299.231 2.59 3.366 4.758 7.063 6.711 10.908 13.486-11.468 35.631-12.676 49.391-1.095-.069-15.41-1.997-30.211-6.425-44.777z"/><path d="m389.359 618.462c11.461 1.666 26.498-2.141 37.708-9.788 2.687-2.817 5.269-6.064 7.646-9.863-10.199 11.257-24.744 18.514-40.235 18.554-15.091.041-31.504-7.335-36.489-21.187-.479.148-.953.302-1.438.438 3.773 12.852 19.773 19.95 32.808 21.846z"/><path d="m326.892 631.504c-4.3 1.726-8.802 3.009-13.359 3.751 7.405 14.385 23.146 15.725 38.642 15.32 12.959-.34 24.35-2.42 32.715-10.38-17.839 6.582-54.906 9.067-57.998-8.691z"/></g><path d="m424.439 463.495c-2.152-.144-3.75 1.222-4.932 3.007-.027.024-.057.018-.082.045-4.385 4.902-6.184 13.359-4.451 19.671.945 3.452 3.712 5.444 7.186 5.683 4.08.279 7.178-3.53 8.424-6.964 2.101-5.8 2.336-20.874-6.145-21.442z" fill="#68182b"/><path d="m281.809 474.393c1.711-4.707.178-19.413-7.167-18.529-1.493.18-2.7.863-3.663 1.862-.227-.063-.467-.043-.65.188-3.373 4.307-3.728 11.185-2.3 16.299 2.1 7.519 11.198 7.283 13.78.18z" fill="#68182b"/><path d="m475.992 318.293c15.291-11.106 25.154-29.686 30.236-47.506.273-.955-1.119-1.552-1.603-.677-8.786 15.923-20.354 31.803-35.048 42.774-9.327 6.966-25.801 9.329-29.207-4.601-4.65-19.013 14.199-43.683 23.968-58.093 17.007-25.088 37.595-47.391 59.421-68.312 19.055-18.264 40.564-31.059 61.773-46.177.568-.407.438-1.471-.387-1.426-11.934.659-23.979 8.179-33.744 14.475-14.292 9.213-27.643 20.349-39.996 31.992-25.545 24.081-49.008 51.535-66.064 82.326-8.342 15.063-21.989 42.355-6.921 57.615 10.707 10.845 27.043 5.257 37.572-2.39z" fill="#68182b"/><path d="m737.518 569.115c17.285 22.849 28.654 49.554 40.52 75.438.318.696 1.338.187 1.185-.5-13.335-59.54-58.647-122.12-120.311-136.867-.209-.049-.362.266-.15.362 31.183 14.455 57.916 34.016 78.756 61.567z" fill="#68182b"/><path d="m245.367 181.697c-32.606 13.263-66.399 42.64-81.391 74.959-.105.232.17.486.365.286 12.578-12.769 23.139-27.114 36.387-39.312 13.951-12.847 29.811-23.627 45.135-34.748.547-.398.233-1.482-.496-1.185z" fill="#68182b"/><path d="m255.982 174.687c-.904.319-1.875.86-2.584 1.511-.941.865-1.236 1.923-1.982 2.9-.189.248.172.583.418.419 1.299-.864 3.568-1.068 5.061-1.522 1.945-.592 3.418-.891 5.088-2.02.4-.27.436-.856 0-1.12-2.096-1.264-3.694-.985-6.001-.168z" fill="#68182b"/><path d="m842.363 720.05c9.064-11.668 19.057-37.603 7.538-50.643-.265-.299-.72-.045-.737.307-.871 16.979-3.213 33.307-7.853 49.725-.159.564.65 1.128 1.052.611z" fill="#68182b"/><path d="m278.5 709.396c-3.35-17.686.232-36.644-3.869-53.909-.068-.283-.529-.376-.656-.086-6.68 15.066-4.693 36.037-2.359 51.897 3.088 20.971 10.051 38.454 23.395 54.89.437.537 1.174-.146.904-.697-7.997-16.364-14.028-34.217-17.415-52.095z" fill="#68182b"/><path d="m298.869 766.056c-.344-.155-.686-.029-.818.332-1.163 3.195 2.909 8.932 6.348 8.669.297-.022.627-.254.594-.594-.18-1.804-1.338-3.045-2.422-4.409-1.102-1.386-2.024-3.241-3.702-3.998z" fill="#68182b"/></g></g></svg>