<svg id="Слой_1" enable-background="new 0 0 230.3999939 230.3999939" height="512" viewBox="0 0 230.3999939 230.3999939" width="512" xmlns="http://www.w3.org/2000/svg"><g><path d="m155.6109619 147.1804657s6.2797089-2.6403046 10.8275604.7937927c0 0 2.9066315 2.1641235 2.2569275 6.0622864 0 0 1.3615875 2.8112488 3.8053589 5.5688171 3.4087067 3.8463898 9.9310455 11.9729462 9.2813568 16.6136169-.649704 4.640686-1.3922119 10.2094879-7.4250946 13.8292236-6.0328674 3.6197205-15.6854858.5568848-15.6854858.5568848s-11.6945038-.649704-17.4489746 3.0628662c-4.4909363 2.8973541-10.5173187 3.8525696-15.7671967 3.4037018-2.8164749-.2408142-5.4361572-1.078598-7.8359299-2.5871124-2.1465836-1.3493652-4.035614-3.0662231-5.8698502-4.8166962-3.6368332-3.4707642-7.12117-7.1268005-11.100441-10.2165375-3.7419815-2.9054871-7.6106796-6.2454376-12.2374573-7.6103363-6.8682022-2.026123-10.1166763-3.6039581-30.4428406 2.057663 0 0-7.7035255 3.8053589-9.1885414-2.7843933-1.4850159-6.5897675 5.4759979-7.3322754 5.7544403-7.4250946.2784386-.092804 3.3412857-12.7154541 8.910099-19.2124023s6.1256943-8.1675873 6.1256943-8.1675873 3.4341049-19.0267792 1.2065735-27.1015549c0 0-1.9490585-4.362175-10.210453-7.6110916-11.1330032-4.3793259-10.6632156-19.683136-8.6813965-29.3127518 7.5242882-36.5603447 52.2161446-48.4305954 82.1544189-31.3494949 13.5340729 7.7217865 21.7385406 22.6671524 21.3833771 38.2945633-.1856232 8.1675949-4.73349 24.0387115-4.73349 24.0387115s-.4640656 28.2153091 3.2484741 32.8559952z" fill="#f6ad5e"/><path d="m155.5301056 79.188118c-.1302032 5.7356949-2.4091644 15.2657013-3.7587585 20.4331741-4.6879883-4.6821976-15.8989716-9.9207687-27.796669-5.3037415-12.1581116 4.7176056-13.8568573 19.9419785-14.0759354 25.044281-13.8864822-.8582611-31.5791321 5.2148666-40.2151871 16.8875732.0710983-.426178 3.4035568-19.1013641 1.201622-27.0804672 0 0-.2250061-.5031891-.8406296-1.2962723-.5741501-.7280579-1.4737396-1.6929626-2.8411102-2.7347565l-.005928-.0059204c-1.5331345-1.1779251-3.6463356-2.4445724-6.5229988-3.5750961-9.713398-3.8239365-10.5955009-15.9583511-9.3464813-25.3876419.0651741-.4854126.1302032-.9647598.2070847-1.4324036.1362762-.8641815.2901802-1.6988907.4557915-2.4919739.6807976-3.2911224 1.6574135-6.3810883 2.9064331-9.2695999v-.0059242c.2130127-.5148964.443943-1.0240135.6865807-1.5212822.1776047-.3846893.3611336-.757534.5504456-1.1305199.2309303-.4557915.4676437-.9056587.7163467-1.3436737 3.6343422-6.593956 8.7425652-11.9627342 14.762516-16.0528679.4911957-.3374367.9825439-.6630211 1.485733-.9826851.6451035-.4024658 1.3022003-.7990074 1.9711456-1.1719933.4143219-.2426376.8345642-.473423 1.2548065-.6984291 4.7649994-2.5512199 9.9561768-4.4038696 15.3485107-5.5226822v-.005928c.6274719-.1302032 1.2608719-.2544861 1.9000473-.3669167.7754517-.1361313 1.5627594-.2605553 2.3441315-.3670616.5030518-.0709534 1.0062408-.1302032 1.515213-.1894531 6.564476-.7399063 13.2945633-.4378738 19.8117828.9293594.5741425.1183548 1.1423645.248703 1.7105865.3789101.4024734.1005783.8108597.2011604 1.2134705.3076668.4439468.1125755.881958.2368546 1.3199768.3611374 4.3979492 1.2608681 8.6597595 3.0247879 12.6552429 5.3036003.0829468.0474014.1657562.0948029.248703.1420555.3787689.2190819.7458191.443943 1.1127472.6748734 4.8181763 2.995163 8.9084625 6.9373169 12.1107025 11.4891663.325592.4617195.639328.9293594.9471436 1.4029274.4083862.627327.7932281 1.2666512 1.1660614 1.9118996.1598358.2722588.3078156.5445213.4617157.8167839 3.6048736 6.5940972 5.5167694 14.1411133 5.3391571 21.8538819z" fill="#a14b2c" opacity=".5"/><path d="m170.8694458 127.3026199c-.3500519-1.5926208-.9812012-3.0915833-1.8045959-4.4771423-.754425-1.272049-1.6765289-2.4456253-2.7069702-3.5155563-1.0947266-1.1390228-2.3175354-2.1547852-3.5945129-3.0817032-.5966034-.4338455-3.2740784-1.6715851-3.4416504-2.1941528 0-.0098724-2.0117645-6.4296875-5.2266083-11.3210526-.5523071-.8382034-1.1390381-1.6319809-1.7553711-2.3370438-.0245667-.0296097-.0443115-.0542908-.068985-.0789642-2.0807495-2.3519669-5.9267426-4.9702148-10.7638245-6.4739914-.0016785-.0004807-.003479-.0009613-.0051727-.001564.6220093-6.7622986-4.1642761-19.2891922-7.9683685-23.8218307-1.4740448-1.7563324-2.4069824-2.5050888-2.9969635-2.731041.1221771-1.6646042 1.3688354-3.030426 1.9352112-4.600647.7857208-2.1782608-1.4055481-1.8517952-1.4055481-1.8517952-2.5534821-3.8993187-2.8676605 1.0759506-2.8676605 1.0759506-2.3685837-2.8782654-2.1871719.2506294-1.9986649.7498398.4474564 1.1856155 2.1527481 3.4457359 3.4045639 5.0168037-.0993042.3135834-.0687408.6687012-.0687408.6687012 3.3081512 9.2094879 4.1968994 19.5394592 4.4356232 24.2530289-3.183075-.0731888-6.5578995.4198837-9.9968948 1.7400818-1.648468-4.8908844-4.5862045-14.9355621-4.7357101-24.7823334 0 0-.0339508-.1114731-.1028061-.2564087.6904984-1.9825211 1.558548-4.7307816 1.5613174-6.0260582.0012054-.5557899-1.0417633-3.6728897-2.3962631 0 0 0-2.2921448-4.7360764-3.4382706 0 0 0-2.431778.4833221-.7470779 2.319706 1.0993042 1.1982498 2.7184067 2.0294724 3.5986176 3.3462982-.5232849.4635773-1.1903076 1.5337524-2.0180359 3.7094803-2.2554245 5.9281921-2.3055038 20.34552 1.223053 26.5202484-.0004807.0004807-.0012054.0010834-.0016861.0016861-7.5341721 8.2884674-7.1544952 21.9366913-7.1544952 21.9366913s-1.0799179.818573-2.391449 2.2977982c-1.1981354 1.3362045-2.5837021 3.2099075-3.5501022 5.4977112-2.0413895 4.8272095-5.9415512 11.1385651 4.0826569 20.7880402 7.2481461 6.9818573 18.6824799 7.992691 25.8764572 1.2524109 2.1153107-1.9821625 5.6407318-1.203186 8.4857635-.6804962 7.0707092 1.2968445 11.4249878-3.4434357 22.2918091-3.8854828 6.8145596-.2772066 7.6771848-12.8641969 6.3113553-19.057213z" fill="#f6ad5e"/><path d="m164.5580902 146.3598328c-13.053833.0351562-15.2210999 5.1823273-22.2918091 3.8854828-2.8450317-.5226898-6.3704529-1.3016663-8.4857635.6804962-7.1939774 6.7402802-18.6283112 5.7294464-25.8764572-1.2524109-10.0242081-9.6494751-6.1240463-15.9608307-4.0826569-20.7880402.9664001-2.2878036 2.3519669-4.1615067 3.5501022-5.4977112 3.3233032 2.1103668 2.3569031 5.3113861 6.1486053 10.7105255 4.3736115 6.2274475 18.8790131 5.7005463 26.3991394 1.907135 2.1070709-1.0628815 3.6004333-4.2344513 13.2784271-2.9683075 13.6002655 1.7792664 14.8902283-5.099472 15.8671722-10.211525.8233948 1.3855591 1.4545441 2.8845215 1.8045959 4.4771423 1.3658297 6.1930162.5088198 19.0388566-6.3113554 19.057213z" fill="#f6e8e3"/><path d="m156.6308289 136.8995972c.8950653 5.4137115-2.8525543 9.5531616-8.1742249 10.4330139-5.3216705.879837-10.2022095-1.8331146-11.0972595-7.2468262-.8950653-5.4137115 3.9650574-8.4012451 9.2867432-9.2810822 5.3216705-.879837 9.0896911.6811829 9.9847412 6.0948945z" fill="#f6e8e3"/><path d="m123.031 171.114 6.126-11.137" fill="#dd8d3e"/><path d="m126.5875015 124.6146545s-4.5772629-11.5088806-8.4754333-11.1376266c-3.8981628.371254-2.7797928 10.2161102-2.7797928 10.2161102s5.3151626 3.1490402 11.2552261.9215164z" fill="#662612"/><path d="m150.3452454 118.6429596s-2.7184753-12.877121 2.4790955-12.8694611c3.915802.0057755 6.496933 8.2603989 6.496933 8.2603989s-2.9700166 4.4550629-8.9760285 4.6090622z" fill="#662612"/><path d="m116.1629868 110.7854309s1.108223-.5568771 3.4313278-1.2065735c2.3231125-.6496964 3.3222275-3.3412857 1.2912445-3.0628433-2.030983.2784348-5.2891159 1.4850159-5.7019424 2.8772125-.4128342 1.3922043-.4400407 1.9649964.9793701 1.3922043z" fill="#f6e8e3"/><path d="m147.5302734 137.0790405s3.2529755-4.3084564 3.135498-6.3526001-2.462326-.5981293-4.4204407-.0739136c-1.9581299.5242157-4.2827911.7638245-4.9479218 1.6809692-.6651152.9171449 4.0984499 4.7098542 6.2328645 4.7455445z" fill="#a14b2c"/><path d="m146.8399811 136.9845276c1.1000061 1.4669647 2.2056274 3.071701 2.0939636 5.0019379-.0001068.0000458-.4460754-.7180786-.4460754-.7180786 1.2186127.737793 2.6618042.9264221 4.0150757.4039764 1.3654785-.5097961 2.5975494-1.5637207 3.522583-2.7829742.1266479-.2038727.4538422-.0086517.3298798.199646-1.5762634 3.02211-5.2499847 5.2454681-8.5896606 3.6231079.000061.0001678-.4462891-.7181396-.4462891-.7181396-.211853-.5540924-.2728577-1.7264404-.3397522-2.3591156 0 0-.1030579-1.2951202-.1030579-1.2951202-.0427704-.4351349-.068985-.8809052-.0806122-1.3384857-.0010376-.0226595.0296325-.0348818.0439453-.0167543z" fill="#a14b2c"/><path d="m139.3825378 143.3742676c2.8478241 1.0018768 5.9524231.8856201 7.8899689-1.5473175.2924957-.3372498.8027039-.3735046 1.1398926-.0812531.3082123.2672272.3649597.7165375.1493683 1.0491791-1.8682404 3.3526764-6.8342438 2.927597-9.1792298.5793915z" fill="#a14b2c"/><g fill="#662612"><path d="m151.3397064 134.0885925c3.1952362-3.9163361 8.0912781-6.290863 13.0543213-6.9586411.0251923-.0041275.034729.0363922.0075836.0423508-4.8574829 1.1108094-9.4909515 3.5608979-13.0619049 6.9162903z"/><path d="m151.7874146 134.7892151c3.9962769-3.0946655 9.3018341-4.3033447 14.2875061-3.8342743.0256805.001709.0255585.0432129-.0021515.042923-4.9826203-.0135956-10.0497895 1.3278961-14.2853546 3.7913513z"/><path d="m152.2302856 135.6529846c4.5970917-2.1011353 10.038208-2.0677032 14.7855682-.4736176.0246582.0075684.0150757.0478821-.0119171.0414124-4.8482818-1.1502075-10.0874481-.9996643-14.7736511.4322052z"/></g><g fill="#662612"><path d="m140.562088 137.8162994c-4.6158142-1.9355469-10.0004425-1.7317657-14.6491089-.0050659-.023941.0081177-.0134125.0479736.013092.0405579 4.7626496-1.2903595 9.952942-1.3058624 14.6360169-.035492z"/><path d="m140.4969177 138.6370697c-4.9334259-.8444824-10.1332703.5689087-14.2724915 3.2997589-.0216522.0134583-.0022202.0496826.0218582.0365295 4.3485948-2.3313598 9.4018937-3.5177001 14.2506333-3.3362884z"/><path d="m140.5119324 139.5981903c-4.996048.3035583-9.736145 2.8656921-13.1433792 6.4689026-.0180283.0181122.0091095.0488739.0296936.0306549 3.7020645-3.2622375 8.3512954-5.5695648 13.1136856-6.4995575z"/></g><path d="m154.092804 102.711792c-.5966034.0690994-1.5630035.2071686-2.8746643.4981308-2.356781.5274963-4.5115662-1.3707581-2.588623-2.0856934 1.0109406-.3748627 2.4309387-.6854401 3.7081604-.7494812.6163329.7050629 1.2030639 1.4989624 1.7551269 2.3370438z" fill="#f6e8e3"/><g fill="#a14b2c"><g><path d="m168.6241608 153.9369202c1.0491638 1.4547882.7990112 3.5134735.1548309 5.0884552-.3595428.6547241-.9205627 2.239975-1.8846588 1.5753784-.2492981-.2065277-.3140106-.5447388-.193573-.8261261.8180084-1.8933869 1.9794617-3.6876526 1.9234009-5.8377075z"/><path d="m157.5669556 150.8564758c-2.498703-.0996704-4.9178467 1.0731812-6.2161407 2.8948822.3261108-6.0035553 6.6775513-6.6340942 11.4609375-7.3330231-4.8658447-1.5339813-13.4126434.7904205-11.5011444 7.3920135-1.084137 1.5617981-1.350174 3.5877686-.1490326 5.6982574.0547791.0944977.1217041.1658936.1953888.219101-.5553131.8264008-.8144989 1.8128967-.5580902 2.920639.0018158.0076904.0049438.0135956.0067444.0211792-.3291168-.8362732-.8756409-1.5829926-1.6128387-2.0961609.2289581-.5829926.3903961-1.2068024.4257812-1.8635864.2190857-2.4397278-1.7720947-4.3736115-4.025116-5.0261993-.7616425-6.2020416-7.9055328-5.7251129-12.0575409-2.811203-2.7717285 1.9130554-4.1339417 5.2216797-5.3861237 8.1665192-.64077 1.4644012-1.2029419 2.9561462-1.7606583 4.433197-.5612106 1.4740448-1.0936432 2.9628906-1.7213058 4.3908234-.6500473 1.3954468-1.4057846 2.8210907-2.7736511 3.6689301 1.5069046-.6027527 2.5555267-2.0073242 3.3519592-3.3694153 1.5938187-2.7554779 2.7546387-5.7129517 4.16716-8.5381317 1.3381348-2.7073364 2.639679-5.5995636 5.1092529-7.3536072 2.2568665-1.4948578 5.5700684-2.6335297 8.1639862-1.5367584 1.2188416.5514526 2.104599 1.6978302 2.7560883 2.9057159-.5784302-.1519165-1.1705627-.22258-1.7452545-.190918-2.1072388.1632233-4.0205536 1.3144073-5.4697876 2.7493286.6325836-.0752258 2.6425629-1.0011902 3.7289734-1.1882629 1.2213745-.2765045 2.4083099-.4014587 3.4734344.0375671 1.1414337.4262543 2.1965485 1.0481415 2.7630615 2.0294647.543869.884552.6230774 2.0328522.4972839 3.1965485-1.621994-.8414459-3.6166687-.6547394-4.9385529.3297272 2.7895355-.8084717 5.8961639.6968689 5.9721222 3.63797.077774 2.1762085-1.8433685 3.6874542-3.438385 4.9319305-1.3731689 1.0164795-2.8889771 1.9302826-4.409729 2.7257538-.2576141.1283264-.4202423.4080811-.3859406.7107086.4147034 3.5286713 1.1755066 6.9466095 1.0423584 10.502243-.0868988 3.5429993-.6237946 7.0710754-1.3096008 10.5562897 1.6886749-5.1074524 2.8691254-10.5304108 2.388443-15.941452-.1473389-1.6359558-.4090424-3.2426453-.7124023-4.8276825.6839905-.300827 1.3411407-.627533 1.9931183-.9839783 2.7849731-1.6209106 6.5371857-4.0690613 6.2603149-7.7565155-.0244293-.3112946-.0823364-.6206665-.1629944-.9241486.578186 1.3801422 1.8498688 1.8838196 3.2709503 1.9980621-2.4754791 3.7113953-2.3425751 9.1938324-1.4633331 13.3860321.0757141.5105286.3231049 1.2076416.4581604 1.7109528.2450867.986496.8601074 2.3512421 1.2352142 3.3062134.2666321.5014954.9842224 1.8468475 1.2409821 2.328125.3188934.5269012 1.1249542 1.6354675 1.4734497 2.1751404.69133.9356995 1.4754791 1.8011017 2.223526 2.6796265l-.9534149-1.4516449c-.7896881-1.0728149-1.5348358-2.5466156-2.1707916-3.7146606-.216568-.4923553-.8111115-1.8442078-1.0340576-2.3495636-.3056488-.9336548-.824234-2.293457-1.0056458-3.2507172-.1054535-.4854889-.3123779-1.1665955-.3681183-1.6544952l-.2546082-1.6737366-.1145935-1.6866455c-.1766052-3.3356934.5447083-6.4761505 1.1201172-9.7832031 1.2314911.040329 2.5361481-.1698608 3.5800781-.3412781-2.1349182-.3917084-5.6832123.2087402-6.2706604-2.5046082-.2744751-1.5945435.9703674-2.7710114 2.3229523-3.4300842 2.2764893-1.1971741 4.8322601-.9530334 7.0839539.5104065-1.104248-1.4958344-2.9749298-2.4251556-4.8743896-2.3746033-1.431076.0254059-3.0565491.6099701-4.2208557 1.598526-.925354-2.1960754-.1395264-4.4695587 1.8990936-5.7361908 2.0613708-1.3360901 4.8514099-1.7802887 7.1647339-.6785736.0599518.0297241.1107483-.052002.0627136-.0948639-1.0297241-.8804473-2.4368286-1.318756-3.8275756-1.3459625z"/></g><path d="m109.7900391 119.4027328c-13.9688797.7504425-27.8960342 5.9693451-38.202713 15.5373764-1.4477615 1.381546-2.7892685 2.8817139-4.0408478 4.4799957 7.5872497-13.7157134 27.1638107-20.952629 42.2435608-20.0173721z"/><path d="m54.5578079 163.6977997c-1.0816422 3.6235962-.6194229 8.4645691 3.6351814 9.5739288-.0000954.0000763-.2898483-.0354462-.2898483-.0354462 2.3865166-.2497864 4.8462257-.7422485 7.2515221-1.2624054 7.622345-1.7400665 14.3230362-4.2187042 21.9006729-.5373383-7.7087021-3.3210602-14.1352158-.5600739-21.6642532 1.5074921-2.4213028.6351013-4.8157654 1.2355499-7.3563652 1.6169128-.1017838.0151825-.2003937.0016174-.289875-.0355225-3.3106956-1.2646637-4.6290436-4.5788727-4.0368042-7.906311.1555405-1.0129395.4200134-2.000412.8037834-2.9386444.0108985-.028839.0558547-.0110473.0459861.0173341z"/><g opacity=".7"><path d="m149.5865479 158.5996857c-.0354004.6445618-.1648102 1.4016571-.3937683 1.9736786.7371979.5037384 1.6128387 2.0961609 1.5740814 1.891571-.2079163-1.0974121.03479-1.9263306.5901031-2.7372284-.0736847-.0522308-.1726227-.2514343-.2274017-.3440552-1.2011414-2.0711975-.9351044-4.0594635.1490326-5.5921936-.5646973-1.9140625-.1977081-3.891922 1.436203-5.5252533-2.6976929.8251953-5.8458099 2.3592682-8.5325623 2.2425537.7110901.7532501 1.2077637 1.7884979 1.3791962 3.1581879 2.253006.6405487 4.2442016 2.5383148 4.025116 4.9327393z"/><path d="m155.6990356 185.3461761c-.2567749-.4723206-.97435-1.7926331-1.2409973-2.2848053-.3750916-.9373016-.9901123-2.2765198-1.235199-3.2447815-.1350708-.4938049-.3824463-1.1780701-.4581604-1.6789703-.8792572-4.1142883-.9801331-9.2629089 1.4953461-12.9053345-1.4210815-.1119995-2.7247925-.8379211-3.3029633-2.1924896.080658.2979431.1385498.6015625.1629944.9070587.2768707 3.6188202-3.4433289 6.377182-6.228302 7.9680328-.6519775.3496857-1.3091278.6703186-1.9931183.9656525.30336 1.5554199.5330353 2.776413.6803894 4.3819122.4806671 5.3101959-.6997681 10.6322021-2.388443 15.6445618 5.7544861-3.6433868 17.4489594-3.0059052 17.4489594-3.0059052s.2762604.0854187.7563324.2093353c-.7480316-.8621674-1.5321808-1.7114716-2.2234039-2.6297455-.3484955-.5294951-1.1545563-1.6175536-1.4734345-2.1345214z"/></g></g><circle cx="123.531" cy="123.761" fill="#f9d995" r=".975"/><circle cx="153.205" cy="115.912" fill="#f9d995" r=".975"/><path d="m73.1995392 109.3819504c-.1361313.1125717-.3255844.1184998-.4676437.0179214v-.006073c-.8345566-.6156235-1.7402115-1.1127472-2.6873474-1.5211334-.5741501-.7280579-1.4737396-1.6929626-2.8411102-2.7347565.1302032.0414734.2663345.0887299.3965378.1361313 1.0477142.3848343 2.0717316.8523331 3.0364914 1.4324036l.3611374.2250061.3492889.2368622c.1183548.0828018.2307816.1598282.3432159.24263l.3374329.2663422c.4380188.3552094.8523407.7458267 1.2134705 1.1779175.1361312.1598281.1124343.3966827-.0414735.5267486z" fill="#a14b2c"/><path d="m53.7080727 166.6191559c.1546898-1.0074463.4175949-1.9893799.7978745-2.9230499-.5279846.1182251-7.1809769.959671-5.7255936 7.4181366 1.182724 5.2485199 6.3067856 3.9035339 8.3450432 3.1382751-2.8537064-1.4234772-3.9710656-4.5221558-3.4173241-7.6333618z" fill="#a14b2c" opacity=".5"/></g></svg>