<svg id="Layer_1" height="512" viewBox="0 0 128 128" width="512" xmlns="http://www.w3.org/2000/svg" data-name="Layer 1"><path d="m53.409 99.824c-5.236 0-15.965-11.264-21-21.451a15.931 15.931 0 0 1 -.391 3.192c-1.743 7.165-4.637 8.669-6.758 8.669a5.405 5.405 0 0 1 -3.343-1.289c-4.327-3.391-5.753-20.275-2.917-31.456a27.411 27.411 0 0 1 -2.987.553 12.911 12.911 0 0 1 -3.013.306 20.428 20.428 0 0 1 -2.143-.11c-6.723-.47-7.984-4.905-7.844-8.54a18.715 18.715 0 0 1 2.9-8.449s1.334-1.962 2.65-3.483c2.66-2.814 5.691-4.3 8.8-4.3 5.925 0 7.724 2.68 9.17 4.833a9.078 9.078 0 0 0 1.54 1.919 4.073 4.073 0 0 0 .4.3 4.184 4.184 0 0 1 .53-.587c4.774-4.389 15.241-11.755 31.597-11.755q1.222 0 2.489.057a37.64 37.64 0 0 1 26.874 13.021 56.741 56.741 0 0 1 9.865-.885c3.9 0 9.275.434 12.714 2.5l1.727 1.037-1.047 1.721c-.211.347-5.079 8.236-13.49 12.231a34.914 34.914 0 0 1 -3.54 7.688 47.434 47.434 0 0 1 8.755-.756c6.249 0 14.379 1.1 18.45 4.2l1.6 1.217-1.225 1.6c-.377.49-9.368 12.015-22.3 12.015-.448 0-.9-.014-1.36-.043a35.3 35.3 0 0 1 -18.03-6.086 35.741 35.741 0 0 1 -14.158 2.775 47.1 47.1 0 0 1 -12.718-1.833 44.323 44.323 0 0 1 -5.857-2.08c.608 1.99 2.263 4.036 3.876 6.03a25.741 25.741 0 0 1 3.575 5.2c2.031 4.467 2.369 7.805 1.007 9.92a4.862 4.862 0 0 1 -4.398 2.119z" fill="#fff"/><path d="m37.379 51.259-1.368-1.866s-11.141-3.893-14.561 6.814-1.846 28.38 1.7 31.162 5.8-1.677 6.917-6.278-1.121-12.219 2.633-16.055c1.131-1.155 2.393-2.333 3.6-3.416a7.752 7.752 0 0 0 1.079-10.361z" fill="#eaac3d"/><g fill="#ce7f44"><ellipse cx="26.518" cy="83.359" rx=".7" ry="1.257" transform="matrix(.919 -.395 .395 .919 -30.754 17.239)"/><ellipse cx="28.539" cy="78.575" rx=".576" ry="1.035" transform="matrix(.919 -.395 .395 .919 -28.701 17.648)"/><ellipse cx="27.898" cy="81.63" rx=".414" ry=".743" transform="matrix(.919 -.395 .395 .919 -29.959 17.643)"/><ellipse cx="26.505" cy="78.501" rx=".414" ry=".743" transform="matrix(.919 -.395 .395 .919 -28.837 16.839)"/><ellipse cx="28.486" cy="76.017" rx=".414" ry=".743" transform="matrix(.919 -.395 .395 .919 -27.696 17.42)"/></g><path d="m54.977 88.611c-1.959-4.311-8.425-8.922-7.837-14.258.164-1.494.3-2.578.413-3.366a4.8 4.8 0 0 0 -1.165-3.867l-4.69-5.3a3.212 3.212 0 0 0 -4.065-.626c-3.037 1.829-7.5 5.9-4.8 13.154 3.921 10.54 16.067 23.472 20.577 23.472s3.527-4.898 1.567-9.209z" fill="#f1b845"/><ellipse cx="53.511" cy="91.597" fill="#ce7f44" rx=".7" ry="1.257" transform="matrix(.472 -.882 .882 .472 -52.498 95.527)"/><ellipse cx="52.107" cy="86.597" fill="#ce7f44" rx=".576" ry="1.035" transform="matrix(.472 -.882 .882 .472 -48.832 91.65)"/><ellipse cx="53.511" cy="89.384" fill="#ce7f44" rx=".414" ry=".743" transform="matrix(.472 -.882 .882 .472 -50.548 94.359)"/><ellipse cx="50.471" cy="87.808" fill="#ce7f44" rx=".414" ry=".743" transform="matrix(.472 -.882 .882 .472 -50.763 90.847)"/><ellipse cx="50.471" cy="84.63" fill="#ce7f44" rx=".414" ry=".743" transform="matrix(.472 -.882 .882 .472 -47.961 89.17)"/><path d="m85.089 44.517-.026.008v13.358a36.326 36.326 0 0 0 5.847.214c12.748-.58 20.6-13.51 20.6-13.51-5.274-3.169-18.431-2.717-26.421-.07z" fill="#f1b845"/><g fill="#ce7f44"><ellipse cx="105.809" cy="45.399" rx="1.924" ry="1.072" transform="matrix(.87 -.493 .493 .87 -8.627 58.083)"/><ellipse cx="101.495" cy="44.803" rx="1.402" ry=".781" transform="matrix(.87 -.493 .493 .87 -8.895 55.878)"/><ellipse cx="97.674" cy="44.397" rx="1.066" ry=".594" transform="matrix(.87 -.493 .493 .87 -9.191 53.941)"/><ellipse cx="102.155" cy="47.35" rx=".791" ry=".441" transform="matrix(.747 -.665 .665 .747 -5.628 79.916)"/><ellipse cx="106.829" cy="47.823" rx=".682" ry=".38" transform="matrix(.747 -.665 .665 .747 -4.759 83.143)"/><ellipse cx="98.57" cy="46.193" rx=".509" ry=".284" transform="matrix(.747 -.665 .665 .747 -5.766 77.238)"/><ellipse cx="100.073" cy="43.434" rx=".509" ry=".284" transform="matrix(.747 -.665 .665 .747 -3.551 77.54)"/><ellipse cx="104.477" cy="43.833" rx=".509" ry=".284" transform="matrix(.747 -.665 .665 .747 -2.702 80.569)"/></g><path d="m95.929 67.645c-3.429.735-5.225.593-6.154.178a8.158 8.158 0 0 0 -5.789-.55c-2.452.772-4.908 1.938-4.908 3.507 0 3.135 8.426 10.189 21.162 11s21.945-11.193 21.945-11.193c-4.898-3.726-18.027-4.705-26.256-2.942z" fill="#f1b845"/><g fill="#ce7f44"><ellipse cx="116.898" cy="70.904" rx="2.047" ry="1.14" transform="matrix(.959 -.284 .284 .959 -15.308 36.059)"/><ellipse cx="112.082" cy="69.536" rx="1.257" ry=".7" transform="matrix(.959 -.284 .284 .959 -15.117 34.637)"/><ellipse cx="107.128" cy="68.906" rx="1.257" ry=".7" transform="matrix(.959 -.284 .284 .959 -15.142 33.207)"/><ellipse cx="103.508" cy="68.541" rx=".791" ry=".441" transform="matrix(.747 -.665 .665 .747 -19.376 86.179)"/><ellipse cx="108.878" cy="71.021" rx=".615" ry=".343" transform="matrix(.747 -.665 .665 .747 -19.667 90.378)"/><ellipse cx="113.303" cy="71.986" rx=".615" ry=".343" transform="matrix(.747 -.665 .665 .747 -19.188 93.565)"/></g><path d="m34.6 43.9s-5.094.2-7.837-2.156-2.548-6.27-9.406-6.27-12.149 9.207-12.345 14.302 2.743 6.858 8.818 6.466 7.837-2.155 10.776-2.155 6.27 10.855 16.655 9.052-6.661-19.239-6.661-19.239z" fill="#f3bd53"/><path d="m94.924 52.338s-8.771-21.047-31.924-22.103c-17.326-.79-28.249 7.135-32.65 11.175a2.2 2.2 0 0 0 .289 3.476 8.926 8.926 0 0 1 4.184 6.894c.558 6.418 1.4 19.433 20.928 24.924s36.47-2.1 42.092-19.509c-.002.005.54-3.741-2.919-4.857z" fill="#8c6239"/><g fill="#a67c52"><path d="m67.791 68.871c.19 1.613-1.072 4.4-1.944 6.072a2.257 2.257 0 0 1 -2.295 1.2l-3.516-.431c-7.687-1.955-12.525-5.46-11.723-6.442.621-.752 3.817-3.437 5.24-4.609a1.829 1.829 0 0 1 1.543-.391c2.956.573 12.454 2.567 12.695 4.601z"/><path d="m75.987 35.009a23.471 23.471 0 0 0 -11.914-3.877.375.375 0 0 0 -.34.6l2.99 4.192a1.348 1.348 0 0 0 .7.48l7.866 2.071a.356.356 0 0 0 .471-.3l.361-2.846a.341.341 0 0 0 -.134-.32z"/><path d="m75.746 40.845a1.38 1.38 0 0 1 .872.691l4.168 7.946a1.371 1.371 0 0 1 .11.992l-1.132 4.388a1.4 1.4 0 0 1 -1.473 1.032l-7.691-.681a1.371 1.371 0 0 1 -1.132-.792l-4.288-9.137a1.393 1.393 0 0 1 -.1-.922l1.12-4.609a1.379 1.379 0 0 1 1.7-1.012z"/><path d="m82.349 68.925c.1 1.884-.1 4.639-2.034 5.611-3.036 1.513-11.2 2.895-11.733 1.9-.4-.762 1.133-4.89 1.854-6.764a1.7 1.7 0 0 1 1.333-1.052l8.631-1.288a1.708 1.708 0 0 1 1.949 1.593z"/><path d="m82.1 59.116-.471 5.14a1.335 1.335 0 0 1 -1.192 1.212l-10.16 1.173a1.357 1.357 0 0 1 -1.477-1.593l1.243-6.613a1.357 1.357 0 0 1 1.372-1.092l9.389.3a1.352 1.352 0 0 1 1.296 1.473z"/><path d="m83.33 59.577v-1.653a1.053 1.053 0 0 0 -.36-.792l-.892-.781a1.072 1.072 0 0 1 -.321-1.1l2.454-5.988a1.052 1.052 0 0 1 1.543-.6l2.957 1.91a1.058 1.058 0 0 1 .521.962l-.232 4.435a1.1 1.1 0 0 1 -.29.681l-3.577 3.667a1.052 1.052 0 0 1 -1.803-.741z"/><path d="m49.325 33.527a.692.692 0 0 1 .371-1.053 42.612 42.612 0 0 1 11.131-1.462.659.659 0 0 1 .541.26l3.848 4.95a.692.692 0 0 1 .09.681l-2.144 5.26a.7.7 0 0 1 -.882.391l-8.937-3.266a.705.705 0 0 1 -.331-.261z"/><path d="m62.376 44.8 5.649 12.238a1.967 1.967 0 0 1 .13 1.1l-.95 5.527a1.914 1.914 0 0 1 -2.464 1.483l-9.719-3.127a1.885 1.885 0 0 1 -.992-.741l-6.356-9.244a1.916 1.916 0 0 1 -.14-1.924l4.422-7.839a1.907 1.907 0 0 1 2.344-.962l6.954 2.445a1.859 1.859 0 0 1 1.122 1.044z"/><path d="m41.007 37.049a.974.974 0 0 1 .4-1.523l5.261-1.984a.975.975 0 0 1 1.172.411l3.16 5.06a.966.966 0 0 1 -.01 1.022l-3.36 5.921a.964.964 0 0 1 -1.673-.07c-1.057-2.124-1.723-4.686-4.95-8.837z"/><path d="m51.41 64.358c-2.274 2.134-4.6 5.22-8.316 2.695-4.228-2.886-5.581-8.647-4.669-10.27.641-1.122 3.7-2.385 5.5-3.046a2.673 2.673 0 0 1 2.845.631c1.894 1.974 4.018 5.982 5.02 7.976a1.7 1.7 0 0 1 -.38 2.014z"/><path d="m37.262 54.3a1.225 1.225 0 0 1 -1.323-1.183c-.04-1.062-.11-2.745-.3-4.769-.311-3.487-4.97-4.438-4.229-6.022s5.821-4.859 7.515-4.648 8.346 9.822 5.39 13.422c-2.054 2.485-5.27 3.076-7.053 3.2z"/><path d="m96.546 57.333a12.148 12.148 0 0 1 -1.453 3.476c-.14.231-.34.481-.611.481-.4-.01-.541-.511-.621-.9 0-1.192-1.082-1.943-1.663-2.8-.511-.741.511-2.595.771-3.417a.928.928 0 0 1 1.644-.541 3.965 3.965 0 0 1 2.023 2.094 3.372 3.372 0 0 1 -.09 1.607z"/><path d="m76.969 39.258a.815.815 0 0 1 -.111-.511l.4-2.057a.826.826 0 0 1 1.032-.7 40.543 40.543 0 0 1 11.333 9.62.605.605 0 0 1 .15.311l.411 1.683a.829.829 0 0 1 -1.184.932l-3.808-1.954a.826.826 0 0 0 -1.1.351l-.591 1.1a.817.817 0 0 1 -1.433.03z"/><path d="m90.527 57.355c-.5-.331-5.651 5.851-6.162 6.492-.942 1.193-.491 2.154-.391 3.627.072 1.161.092 2.331.065 3.5a.622.622 0 0 0 1.02.5q.966-.805 1.941-1.606a24.685 24.685 0 0 0 3.667-3.5 8.236 8.236 0 0 0 1.914-4.619 4.969 4.969 0 0 0 -2.054-4.394z"/><path d="m91.046 55.489-.591-6.082a.356.356 0 0 1 .07-.24l.9-1.062a.331.331 0 0 1 .511.01 14.63 14.63 0 0 1 1.694 3.436.3.3 0 0 1 -.04.291l-.561.832c-.01.02-.02.03-.02.04l-1.4 2.9a.3.3 0 0 1 -.563-.125z"/></g><path d="m14.552 47.935a1.9 1.9 0 0 0 -1.361 3.423 1.9 1.9 0 0 0 1.361-3.423z" fill="#4d4d4d"/><path d="m9.886 40.483c-.566-.225-1.3.28-1.635 1.128s-.152 1.717.414 1.942 1.3-.279 1.635-1.127.152-1.718-.414-1.943z" fill="#4d4d4d"/><path d="m11.054 56.245s4.787-.01 7.168-3.522c0 0-.753 2.87-2.6 3.351a15.464 15.464 0 0 1 -4.568.171z" fill="#4d4d4d"/></svg>