<svg id="Layer_1" enable-background="new 0 0 1417.3 1417.3" height="512" viewBox="0 0 1417.3 1417.3" width="512"
     xmlns="http://www.w3.org/2000/svg" xmlns:xlink="http://www.w3.org/1999/xlink">
    <linearGradient id="SVGID_1_" gradientUnits="userSpaceOnUse" x1="62.929" x2="1354.393" y1="708.661" y2="708.661">
        <stop offset="0" stop-color="#ebebec"/>
        <stop offset="1" stop-color="#fbfbfb"/>
    </linearGradient>
    <g>
        <g>
            <path d="m116.6 1196.1s272.4-80.8 323.4-82.6l6.3-72.5 63.2 60.5-58.6 142.2c.7 9.5 3.4 18.5 7.7 26.5l3.1 14 8.9 1.8c.7.7 1.5 1.4 2.3 2.1l-.8 3.9 7.8 1.6s.1 0 .1.1l18.4 66c9.4 33.9 40.6 57.5 75.8 57.5h88.8c35.2 0 66.3-23.7 75.7-57.5l18.4-66s.1 0 .1-.1l7.9-1.6-.8-3.9c13.7-12.2 22.3-29.9 22.3-49.6 0-24.9-13-38-20.9-55l-.5-2.1c-14.2-3.4-2.5 1.1-24.3-6.1-3.2-10.9-2.6-28.6-18.5-47.1 32-44.4-23 5.4 170.4-226.3h.1c.3-.4 19.8-23.8 18.5-22.3h-.2c1.8-2.2 3.5-4.3 5.3-6.5 111.2-27.2 180.5-23.2 213.8-25.9l-9.7-346c14.5-1.1 19.4-.9 67.8-2.6v-97.6s41-29.3 154.1-9.4l-78-120.6 89.9-121.1c-66.3-3-190.5-22.7-338.3 21.2-264.8-325.6-977.6-175.9-878.2 358.8-37.8 7-16.2 2.1-65.5 6.9v257.1l55.4 4.1c17.5 1.3 68.2 4.9 138.3 9.4v74.5c-40.9 8.4-82 22.4-122.8 41.9l-80.3 38.4 109.6 78.6z"
                  fill="none"/>
            <g>
                <g>
                    <path d="m477.3 1279.7c-.5 0-.9-.2-1.3-.5l-1.1-1.1-5.9-1.2-1.9-8.4c-.2-1 .4-2 1.4-2.2s2 .4 2.2 1.4l1.3 6.1 4.6 1 1.9 1.8c.7.7.7 1.9 0 2.6-.2.3-.7.5-1.2.5z"
                          fill="#cecece"/>
                </g>
                <g>
                    <path d="m463.2 1255.2c-.8 0-1.6-.5-1.8-1.4-.7-2.7-1.3-5.5-1.6-8.3l-.1-.5 3.1-7.6c.4-1 1.5-1.4 2.4-1s1.4 1.5 1 2.4l-2.8 6.7c.3 2.5.8 4.9 1.4 7.3.3 1-.3 2-1.3 2.3 0 0-.2.1-.3.1zm7.5-29.9c-.2 0-.5 0-.7-.1-.9-.4-1.4-1.5-1-2.4l6.1-14.7c.4-.9 1.5-1.4 2.4-1s1.4 1.5 1 2.4l-6.1 14.7c-.3.7-1 1.1-1.7 1.1zm12.1-29.4c-.2 0-.5 0-.7-.1-.9-.4-1.4-1.5-1-2.4l6.1-14.7c.4-.9 1.5-1.4 2.4-1s1.4 1.5 1 2.4l-6.1 14.7c-.3.6-1 1.1-1.7 1.1zm12.1-29.4c-.2 0-.5 0-.7-.1-.9-.4-1.4-1.5-1-2.4l6.1-14.7c.4-.9 1.5-1.4 2.4-1s1.4 1.5 1 2.4l-6.1 14.7c-.3.6-.9 1.1-1.7 1.1zm12.2-29.5c-.2 0-.5 0-.7-.1-.9-.4-1.4-1.5-1-2.4l6.1-14.7c.4-.9 1.5-1.4 2.4-1s1.4 1.5 1 2.4l-6.1 14.7c-.3.7-1 1.1-1.7 1.1z"
                          fill="#cecece"/>
                </g>
                <g>
                    <path d="m519.2 1107.6c-.2 0-.5 0-.7-.1-.9-.4-1.4-1.5-1-2.4l2.4-5.7-4.5-4.3c-.7-.7-.8-1.9-.1-2.6s1.9-.8 2.6-.1l6.3 6-3.3 8c-.3.8-1 1.2-1.7 1.2z"
                          fill="#cecece"/>
                </g>
                <g>
                    <path d="m506.2 1085.5c-.5 0-.9-.2-1.3-.5l-10.5-10.1c-.7-.7-.8-1.9-.1-2.6s1.9-.8 2.6-.1l10.5 10.1c.7.7.8 1.9.1 2.6-.4.5-.8.6-1.3.6zm-21-20.1c-.5 0-.9-.2-1.3-.5l-10.5-10.1c-.7-.7-.8-1.9-.1-2.6s1.9-.8 2.6-.1l10.5 10.1c.7.7.8 1.9.1 2.6-.4.4-.8.6-1.3.6zm-21-20.1c-.5 0-.9-.2-1.3-.5l-10.5-10.1c-.7-.7-.8-1.9-.1-2.6s1.9-.8 2.6-.1l10.5 10.1c.7.7.8 1.9.1 2.6-.4.4-.8.6-1.3.6z"
                          fill="#cecece"/>
                </g>
                <g>
                    <path d="m437.2 1027.4c-.1 0-.1 0-.2 0-1-.1-1.8-1-1.7-2l1-11.3 8.2 7.8c.7.7.8 1.9.1 2.6s-1.9.8-2.6.1l-2.6-2.5-.3 3.5c-.2 1.1-1 1.8-1.9 1.8z"
                          fill="#cecece"/>
                </g>
                <g>
                    <path d="m432.2 1084.1c-.1 0-.1 0-.2 0-1-.1-1.8-1-1.7-2l1.2-14.2c.1-1 1-1.8 2-1.7s1.8 1 1.7 2l-1.2 14.2c0 1-.8 1.7-1.8 1.7zm2.5-28.3c-.1 0-.1 0-.2 0-1-.1-1.8-1-1.7-2l1.2-14.2c.1-1 1-1.8 2-1.7s1.8 1 1.7 2l-1.2 14.2c0 .9-.9 1.7-1.8 1.7z"
                          fill="#cecece"/>
                </g>
                <g>
                    <path d="m423 1106.7c-.9 0-1.7-.7-1.8-1.6-.2-1 .5-2 1.5-2.1 2.1-.3 4.1-.6 5.9-.9l.5-5.9c.1-1 1-1.8 2-1.7s1.8 1 1.7 2l-.8 8.9-1.5.2c-2.2.3-4.7.6-7.3 1.1 0 0-.1 0-.2 0z"
                          fill="#cecece"/>
                </g>
                <g>
                    <path d="m155.2 1175.7c-.8 0-1.5-.5-1.8-1.3-.3-1 .3-2 1.3-2.3l14.8-4.3c1-.3 2 .3 2.3 1.3s-.3 2-1.3 2.3l-14.8 4.3c-.1 0-.3 0-.5 0zm29.6-8.5c-.8 0-1.6-.5-1.8-1.3-.3-1 .3-2 1.3-2.3l14.8-4.2c1-.3 2 .3 2.3 1.3s-.3 2-1.3 2.3l-14.8 4.2c-.2 0-.4 0-.5 0zm29.5-8.3c-.8 0-1.6-.5-1.8-1.4-.3-1 .3-2 1.3-2.3l14.8-4.1c1-.3 2 .3 2.3 1.3s-.3 2-1.3 2.3l-14.8 4.1c-.1 0-.3.1-.5.1zm29.6-8.3c-.8 0-1.6-.5-1.8-1.4-.3-1 .3-2 1.3-2.3 4.9-1.4 9.8-2.7 14.8-4.1 1-.3 2 .3 2.3 1.3s-.3 2-1.3 2.3c-5 1.4-9.9 2.7-14.8 4.1-.1.1-.3.1-.5.1zm29.7-8.1c-.8 0-1.6-.5-1.8-1.4-.3-1 .3-2 1.3-2.3 4.9-1.3 9.9-2.7 14.8-4 1-.3 2 .3 2.3 1.3s-.3 2-1.3 2.3c-4.9 1.3-9.9 2.7-14.8 4-.2.1-.3.1-.5.1zm29.7-8c-.8 0-1.6-.6-1.8-1.4-.3-1 .3-2 1.3-2.3 5-1.3 10-2.6 14.9-3.9 1-.3 2 .3 2.3 1.3s-.3 2-1.3 2.3c-4.9 1.3-9.9 2.6-14.9 3.9-.2.1-.4.1-.5.1zm29.7-7.7c-.8 0-1.6-.6-1.8-1.4-.3-1 .3-2 1.3-2.3 5-1.3 10-2.5 14.9-3.7 1-.2 2 .4 2.3 1.4.2 1-.4 2-1.4 2.3-4.9 1.2-9.9 2.5-14.9 3.7 0 0-.2 0-.4 0zm29.9-7.4c-.8 0-1.6-.6-1.8-1.4-.2-1 .4-2 1.4-2.2 5.1-1.2 10.1-2.4 15-3.5 1-.2 2 .4 2.2 1.4s-.4 2-1.4 2.2c-4.8 1.1-9.8 2.3-14.9 3.5-.2 0-.4 0-.5 0zm29.9-6.9c-.9 0-1.6-.6-1.8-1.5-.2-1 .4-2 1.4-2.2 5.3-1.2 10.4-2.2 15.1-3.1 1-.2 2 .5 2.2 1.5s-.5 2-1.5 2.2c-4.7.9-9.7 2-15 3.1-.1 0-.2 0-.4 0z"
                          fill="#cecece"/>
                </g>
                <g>
                    <path d="m130.6 1183 3.8-10.4c.3-1 1.4-1.5 2.4-1.1 1 .3 1.5 1.4 1.1 2.4l-1.3 3.6 3.6-1.1c1-.3 2 .3 2.3 1.3s-.3 2-1.3 2.3z"
                          fill="#cecece"/>
                </g>
                <g>
                    <path d="m141.2 1160.7c-.2 0-.4 0-.6-.1-1-.3-1.5-1.4-1.1-2.4l5.2-14.4c.3-1 1.4-1.5 2.4-1.1 1 .3 1.5 1.4 1.1 2.4l-5.2 14.4c-.3.7-1 1.2-1.8 1.2zm10.4-28.7c-.2 0-.4 0-.6-.1-1-.3-1.5-1.4-1.1-2.4l5.2-14.4c.3-1 1.4-1.5 2.4-1.1 1 .3 1.5 1.4 1.1 2.4l-5.2 14.4c-.3.7-1.1 1.2-1.8 1.2zm10.3-28.8c-.2 0-.4 0-.6-.1-1-.3-1.5-1.4-1.1-2.4l5.2-14.4c.4-1 1.4-1.5 2.4-1.1 1 .3 1.5 1.4 1.1 2.4l-5.2 14.4c-.3.8-1 1.2-1.8 1.2zm10.3-28.7c-.2 0-.4 0-.6-.1-1-.3-1.5-1.4-1.1-2.4l5.2-14.4c.3-1 1.4-1.5 2.4-1.1 1 .3 1.5 1.4 1.1 2.4l-5.2 14.4c-.3.8-1 1.2-1.8 1.2z"
                          fill="#cecece"/>
                </g>
                <g>
                    <path d="m182.6 1045.8c-.2 0-.4 0-.6-.1-1-.3-1.5-1.4-1.1-2.4l2-5.7-4.9-3.5c-.8-.6-1-1.8-.4-2.6s1.8-1 2.6-.4l7.2 5.2-3 8.3c-.3.7-1.1 1.2-1.8 1.2z"
                          fill="#cecece"/>
                </g>
                <g>
                    <path d="m166.3 1025.3c-.4 0-.8-.1-1.1-.3l-12.8-9.2c-.8-.6-1-1.8-.4-2.6s1.8-1 2.6-.4l12.8 9.2c.8.6 1 1.8.4 2.6-.4.4-.9.7-1.5.7zm-25.6-18.3c-.4 0-.8-.1-1.1-.3l-12.8-9.2c-.8-.6-1-1.8-.4-2.6s1.8-1 2.6-.4l12.8 9.2c.8.6 1 1.8.4 2.6-.3.4-.9.7-1.5.7zm-25.6-18.4c-.4 0-.8-.1-1.1-.3l-12.8-9.2c-.8-.6-1-1.8-.4-2.6s1.8-1 2.6-.4l12.8 9.2c.8.6 1 1.8.4 2.6-.3.5-.9.7-1.5.7z"
                          fill="#cecece"/>
                </g>
                <g>
                    <path d="m89.6 970.3c-.4 0-.8-.1-1.1-.3l-8.6-6.2 9.5-4.6c.9-.4 2-.1 2.5.9.4.9.1 2-.9 2.5l-3.9 1.8 3.5 2.5c.8.6 1 1.8.4 2.6-.3.5-.8.8-1.4.8z"
                          fill="#cecece"/>
                </g>
                <g>
                    <path d="m103.6 956.4c-.7 0-1.4-.4-1.7-1.1-.4-.9-.1-2 .9-2.5l13.4-6.4c.9-.4 2 0 2.5.9.4.9.1 2-.9 2.5l-13.4 6.4c-.3.1-.5.2-.8.2zm26.7-12.8c-.7 0-1.4-.4-1.7-1.1-.4-.9-.1-2 .9-2.5l13.4-6.4c.9-.4 2-.1 2.5.9.4.9.1 2-.9 2.5l-13.4 6.4c-.2.1-.5.2-.8.2zm26.8-12.7c-.7 0-1.4-.4-1.7-1.1-.4-.9 0-2 .9-2.5 4.5-2.1 9.1-4.1 13.6-6 .9-.4 2 0 2.4 1 .4.9 0 2-1 2.4-4.5 1.9-9 3.9-13.5 6-.2.2-.5.2-.7.2zm27.2-11.6c-.7 0-1.4-.4-1.7-1.2-.4-1 .1-2 1-2.4 4.6-1.8 9.3-3.6 13.9-5.3 1-.4 2 .1 2.4 1.1s-.1 2-1.1 2.4c-4.6 1.7-9.2 3.4-13.8 5.2-.2.2-.4.2-.7.2zm27.9-10.1c-.8 0-1.5-.5-1.8-1.3-.3-1 .2-2 1.2-2.3 4.7-1.6 9.4-3.1 14.2-4.5 1-.3 2 .3 2.3 1.2.3 1-.3 2-1.2 2.3-4.7 1.4-9.4 2.9-14.1 4.5-.2.1-.4.1-.6.1zm28.3-8.5c-.8 0-1.6-.5-1.8-1.4-.3-1 .3-2 1.3-2.3 4.8-1.3 9.6-2.5 14.4-3.6 1-.2 2 .4 2.2 1.4s-.4 2-1.4 2.2c-4.8 1.1-9.5 2.3-14.3 3.6-.1.1-.2.1-.4.1z"
                          fill="#cecece"/>
                </g>
                <g>
                    <path d="m269.3 893.9c-.9 0-1.6-.6-1.8-1.5-.2-1 .4-2 1.4-2.2l5.8-1.2v-5.9c0-1 .8-1.9 1.9-1.9 1 0 1.9.8 1.9 1.9v8.9l-8.8 1.8c-.1.1-.2.1-.4.1z"
                          fill="#cecece"/>
                </g>
                <g>
                    <path d="m276.6 869.3c-1 0-1.9-.8-1.9-1.9v-15.6c0-1 .8-1.9 1.9-1.9 1 0 1.9.8 1.9 1.9v15.6c0 1.1-.9 1.9-1.9 1.9zm0-31.2c-1 0-1.9-.8-1.9-1.9v-15.6c0-1 .8-1.9 1.9-1.9 1 0 1.9.8 1.9 1.9v15.6c0 1-.9 1.9-1.9 1.9z"
                          fill="#cecece"/>
                </g>
                <g>
                    <path d="m276.6 806.8c-1 0-1.9-.8-1.9-1.9v-5.7l-5.7-.4c-1-.1-1.8-.9-1.7-2 .1-1 .9-1.8 2-1.7l9.2.6v9.2c0 1.1-.9 1.9-1.9 1.9z"
                          fill="#cecece"/>
                </g>
                <g>
                    <path d="m255.4 798h-.1l-13.8-.9c-1-.1-1.8-1-1.7-2s.9-1.8 2-1.7l13.8.9c1 .1 1.8 1 1.7 2s-.9 1.7-1.9 1.7zm-27.5-1.8h-.1l-13.8-.9c-1-.1-1.8-1-1.7-2s.9-1.8 2-1.7l13.8.9c1 .1 1.8 1 1.7 2-.1.9-.9 1.7-1.9 1.7zm-27.5-1.8h-.1l-13.8-.9c-1-.1-1.8-1-1.7-2s1-1.8 2-1.7l13.8.9c1 .1 1.8 1 1.7 2-.1.9-1 1.7-1.9 1.7zm-27.6-1.9h-.1l-13.8-1c-1-.1-1.8-1-1.7-2s.9-1.8 2-1.7l13.8 1c1 .1 1.8 1 1.7 2-.1.9-.9 1.7-1.9 1.7zm-27.5-2h-.1l-13.8-1c-1-.1-1.8-1-1.7-2s1-1.8 2-1.7l13.8 1c1 .1 1.8 1 1.7 2s-.9 1.7-1.9 1.7zm-27.5-2h-.1l-13.8-1c-1-.1-1.8-1-1.7-2s.9-1.8 2-1.7l13.8 1c1 .1 1.8 1 1.7 2s-.9 1.7-1.9 1.7z"
                          fill="#cecece"/>
                </g>
                <g>
                    <path d="m90.3 786.5h-.1l-9.1-.7v-9.2c0-1 .8-1.9 1.9-1.9 1 0 1.9.8 1.9 1.9v5.7l5.7.4c1 .1 1.8 1 1.7 2-.2 1.1-1 1.8-2 1.8z"
                          fill="#cecece"/>
                </g>
                <g>
                    <path d="m82.9 763.7c-1 0-1.9-.8-1.9-1.9v-14.9c0-1 .8-1.9 1.9-1.9 1 0 1.9.8 1.9 1.9v14.9c-.1 1-.9 1.9-1.9 1.9zm0-29.8c-1 0-1.9-.8-1.9-1.9v-14.9c0-1 .8-1.9 1.9-1.9 1 0 1.9.8 1.9 1.9v14.9c-.1 1.1-.9 1.9-1.9 1.9zm0-29.7c-1 0-1.9-.8-1.9-1.9v-14.9c0-1 .8-1.9 1.9-1.9 1 0 1.9.8 1.9 1.9v14.9c-.1 1.1-.9 1.9-1.9 1.9zm0-29.7c-1 0-1.9-.8-1.9-1.9v-14.9c0-1 .8-1.9 1.9-1.9 1 0 1.9.8 1.9 1.9v14.9c-.1 1.1-.9 1.9-1.9 1.9zm0-29.7c-1 0-1.9-.8-1.9-1.9v-14.9c0-1 .8-1.9 1.9-1.9 1 0 1.9.8 1.9 1.9v14.9c-.1 1.1-.9 1.9-1.9 1.9zm0-29.7c-1 0-1.9-.8-1.9-1.9v-14.9c0-1 .8-1.9 1.9-1.9 1 0 1.9.8 1.9 1.9v14.9c-.1 1.1-.9 1.9-1.9 1.9zm0-29.7c-1 0-1.9-.8-1.9-1.9v-14.9c0-1 .8-1.9 1.9-1.9 1 0 1.9.8 1.9 1.9v14.9c-.1 1-.9 1.9-1.9 1.9z"
                          fill="#cecece"/>
                </g>
                <g>
                    <path d="m82.9 555.7c-1 0-1.9-.8-1.9-1.9v-9.1l1.7-.1c2.8-.2 5.2-.4 7.4-.6 1-.1 1.9.7 2 1.7s-.7 1.9-1.7 2c-1.7.1-3.6.3-5.7.5v5.7c0 .9-.8 1.8-1.8 1.8z"
                          fill="#cecece"/>
                </g>
                <g>
                    <path d="m107.9 546.6c-1 0-1.8-.8-1.9-1.8 0-1 .8-1.9 1.8-1.9 5.3-.2 8.5-.4 17.3-1.9 1-.2 2 .5 2.1 1.5.2 1-.5 2-1.5 2.1-8.9 1.6-12.3 1.8-17.8 2z"
                          fill="#cecece"/>
                </g>
                <g>
                    <path d="m142.9 541.5c-.9 0-1.7-.6-1.8-1.5-.2-1 .5-2 1.5-2.2l5.5-1-1-5.5c-.2-1 .5-2 1.5-2.2s2 .5 2.2 1.5l1.7 9.1-9.1 1.7c-.3.1-.4.1-.5.1z"
                          fill="#cecece"/>
                </g>
                <g>
                    <path d="m146.2 518.4c-.9 0-1.7-.6-1.8-1.6-.8-4.9-1.5-9.8-2.2-14.6-.1-1 .6-2 1.6-2.1 1-.2 2 .6 2.1 1.6.7 4.8 1.4 9.6 2.2 14.5.2 1-.5 2-1.5 2.1-.2.1-.3.1-.4.1zm-4-29.2c-.9 0-1.7-.7-1.8-1.7-.5-4.9-1-9.8-1.4-14.7-.1-1 .7-1.9 1.7-2s1.9.7 2 1.7c.4 4.8.9 9.7 1.4 14.6.1 1-.6 1.9-1.6 2.1-.2 0-.2 0-.3 0zm-2.4-29.3c-1 0-1.8-.8-1.9-1.8-.3-4.9-.5-9.9-.6-14.8 0-1 .8-1.9 1.8-1.9s1.9.8 1.9 1.8c.1 4.9.3 9.7.6 14.6.1 1-.7 1.9-1.8 2zm-.7-29.4c-1 0-1.9-.8-1.9-1.9 0-5 .1-9.9.3-14.8 0-1 .9-1.8 1.9-1.8s1.8.9 1.8 1.9c-.2 4.9-.3 9.7-.3 14.6 0 1.2-.8 2-1.8 2zm1.1-29.4h-.1c-1-.1-1.8-1-1.7-2 .4-4.9.8-9.9 1.3-14.7.1-1 1-1.8 2-1.7s1.8 1 1.7 2c-.5 4.8-.9 9.7-1.3 14.6-.1 1-.9 1.8-1.9 1.8zm3.1-29.3c-.1 0-.2 0-.3 0-1-.1-1.7-1.1-1.6-2.1.7-4.9 1.5-9.8 2.3-14.6.2-1 1.1-1.7 2.2-1.5 1 .2 1.7 1.1 1.5 2.2-.8 4.8-1.6 9.6-2.3 14.5-.1.9-.9 1.5-1.8 1.5zm5.2-29c-.1 0-.3 0-.4 0-1-.2-1.6-1.2-1.4-2.2 1-4.8 2.2-9.6 3.4-14.4.3-1 1.3-1.6 2.3-1.3s1.6 1.3 1.3 2.3c-1.2 4.7-2.3 9.5-3.3 14.3-.3.7-1.1 1.3-1.9 1.3zm7.2-28.5c-.2 0-.4 0-.5-.1-1-.3-1.5-1.3-1.3-2.3 1.4-4.7 2.9-9.5 4.4-14.1.3-1 1.4-1.5 2.4-1.2s1.5 1.4 1.2 2.4c-1.5 4.6-3 9.3-4.4 14-.2.8-1 1.3-1.8 1.3zm9.4-27.9c-.2 0-.4 0-.7-.1-1-.4-1.4-1.4-1.1-2.4 1.7-4.6 3.6-9.2 5.5-13.7.4-.9 1.5-1.4 2.4-1s1.4 1.5 1 2.4c-1.9 4.5-3.8 9.1-5.5 13.6-.1.8-.8 1.2-1.6 1.2zm11.5-27c-.3 0-.5-.1-.8-.2-.9-.4-1.3-1.5-.9-2.5 2.1-4.4 4.3-8.9 6.6-13.2.5-.9 1.6-1.3 2.5-.8s1.3 1.6.8 2.5c-2.3 4.3-4.4 8.7-6.5 13.1-.3.7-1 1.1-1.7 1.1zm13.7-26.1c-.3 0-.6-.1-.9-.2-.9-.5-1.2-1.6-.7-2.5 2.4-4.3 5-8.5 7.6-12.7.5-.9 1.7-1.1 2.6-.6s1.1 1.7.6 2.6c-2.6 4.1-5.1 8.3-7.5 12.5-.5.6-1.1.9-1.7.9zm15.6-24.9c-.4 0-.7-.1-1-.3-.8-.6-1.1-1.7-.5-2.6 2.8-4.1 5.7-8.1 8.6-12 .6-.8 1.8-1 2.6-.4s1 1.8.4 2.6c-2.9 3.9-5.7 7.9-8.5 11.9-.4.5-1 .8-1.6.8zm17.6-23.6c-.4 0-.8-.1-1.2-.4-.8-.6-.9-1.8-.3-2.6 1.2-1.5 2.5-3.1 3.8-4.6 1.9-2.3 3.8-4.5 5.7-6.7.7-.8 1.9-.9 2.6-.2.8.7.9 1.8.2 2.6-1.9 2.2-3.8 4.4-5.7 6.7-1.3 1.5-2.5 3-3.7 4.5-.3.5-.9.7-1.4.7zm774.5-16.9c-.5 0-1-.2-1.4-.6-3.2-3.7-6.5-7.3-9.9-10.8-.7-.7-.7-1.9.1-2.6.7-.7 1.9-.7 2.6.1 3.4 3.6 6.7 7.2 10 10.9.7.8.6 1.9-.2 2.6-.4.2-.8.4-1.2.4zm-755.2-5.2c-.5 0-.9-.2-1.3-.5-.7-.7-.8-1.9-.1-2.6 3.4-3.6 6.8-7.1 10.3-10.6.7-.7 1.9-.7 2.6 0s.7 1.9 0 2.6c-3.4 3.4-6.9 6.9-10.2 10.5-.3.4-.8.6-1.3.6zm734.9-16.2c-.5 0-.9-.2-1.3-.5-3.5-3.4-7-6.8-10.6-10.1-.8-.7-.8-1.9-.1-2.6.7-.8 1.9-.8 2.6-.1 3.6 3.3 7.2 6.7 10.7 10.2.7.7.7 1.9 0 2.6-.3.3-.8.5-1.3.5zm-714.1-4.5c-.5 0-1-.2-1.4-.6-.7-.8-.6-1.9.1-2.6 3.6-3.3 7.3-6.6 11-9.8.8-.7 1.9-.6 2.6.2s.6 2-.2 2.6c-3.7 3.2-7.4 6.5-10.9 9.7-.3.3-.7.5-1.2.5zm692.4-15.4c-.4 0-.9-.1-1.2-.4-3.7-3.1-7.5-6.3-11.3-9.3-.8-.6-.9-1.8-.3-2.6s1.8-.9 2.6-.3c3.9 3.1 7.7 6.2 11.4 9.4.8.7.9 1.8.2 2.6-.3.4-.8.6-1.4.6zm-670.1-3.7c-.5 0-1.1-.2-1.5-.7-.6-.8-.5-2 .3-2.6 3.8-3.1 7.7-6.1 11.7-9 .8-.6 2-.4 2.6.4s.4 2-.4 2.6c-3.9 2.9-7.8 5.9-11.6 8.9-.3.2-.7.4-1.1.4zm647.1-14.6c-.4 0-.8-.1-1.1-.4-3.9-2.9-7.9-5.7-11.9-8.5-.8-.6-1.1-1.7-.5-2.6s1.7-1.1 2.6-.5c4.1 2.8 8.1 5.7 12 8.6.8.6 1 1.8.4 2.6-.4.5-.9.8-1.5.8zm-623.5-3c-.6 0-1.2-.3-1.5-.8-.6-.8-.4-2 .5-2.6 4-2.8 8.1-5.6 12.3-8.3.9-.6 2-.3 2.6.5.6.9.3 2-.5 2.6-4.1 2.7-8.2 5.4-12.2 8.2-.5.3-.9.4-1.2.4zm599.2-13.7c-.3 0-.7-.1-1-.3-4.1-2.6-8.3-5.2-12.5-7.7-.9-.5-1.2-1.7-.6-2.5.5-.9 1.7-1.2 2.5-.6 4.2 2.5 8.4 5.1 12.6 7.8.9.6 1.1 1.7.6 2.6-.4.4-1 .7-1.6.7zm-574.6-2.4c-.6 0-1.2-.3-1.6-.9-.5-.9-.3-2 .6-2.6 4.2-2.5 8.4-5 12.7-7.5.9-.5 2-.2 2.5.7s.2 2-.7 2.5c-4.3 2.4-8.5 4.9-12.6 7.4-.2.4-.6.4-.9.4zm549.3-12.7c-.3 0-.6-.1-.9-.2-4.3-2.4-8.6-4.7-13-6.9-.9-.5-1.3-1.6-.8-2.5s1.6-1.3 2.5-.8c4.4 2.3 8.8 4.6 13.1 7 .9.5 1.2 1.6.7 2.5-.3.5-.9.9-1.6.9zm-523.7-1.7c-.7 0-1.3-.4-1.6-1-.5-.9-.1-2 .8-2.5 4.3-2.3 8.7-4.5 13.2-6.7.9-.5 2-.1 2.5.9.4.9.1 2-.9 2.5-4.4 2.2-8.8 4.4-13.1 6.6-.3.1-.6.2-.9.2zm497.5-11.8c-.3 0-.5-.1-.8-.2-4.4-2.1-8.9-4.1-13.4-6.1-.9-.4-1.4-1.5-1-2.4s1.5-1.4 2.4-1c4.5 2 9 4 13.5 6.1.9.4 1.3 1.5.9 2.5-.3.7-.9 1.1-1.6 1.1zm-471-1.2c-.7 0-1.4-.4-1.7-1.1-.4-.9 0-2 .9-2.5 4.5-2 9-4 13.5-5.9.9-.4 2 0 2.4 1 .4.9 0 2-1 2.4-4.5 1.9-9 3.9-13.4 5.9-.2.2-.5.2-.7.2zm444-10.6c-.2 0-.5 0-.7-.1-4.5-1.8-9.1-3.6-13.7-5.3-1-.4-1.5-1.4-1.1-2.4s1.4-1.5 2.4-1.1c4.6 1.7 9.2 3.5 13.8 5.3 1 .4 1.4 1.5 1 2.4-.3.8-1 1.2-1.7 1.2zm-416.9-.8c-.7 0-1.4-.4-1.7-1.2-.4-1 .1-2 1.1-2.4 4.6-1.8 9.2-3.5 13.8-5.1 1-.3 2 .2 2.4 1.1.3 1-.2 2-1.1 2.4-4.6 1.6-9.2 3.3-13.7 5.1-.4.1-.6.1-.8.1zm389.3-9.4c-.2 0-.4 0-.6-.1-4.6-1.6-9.3-3-14-4.5-1-.3-1.5-1.3-1.2-2.3s1.3-1.5 2.3-1.2c4.7 1.4 9.4 2.9 14.1 4.5 1 .3 1.5 1.4 1.2 2.4-.3.7-1 1.2-1.8 1.2zm-361.6-.4c-.8 0-1.5-.5-1.8-1.3-.3-1 .2-2 1.2-2.3 4.7-1.5 9.4-3 14.1-4.4 1-.3 2 .3 2.3 1.3s-.3 2-1.3 2.3c-4.7 1.4-9.4 2.8-14 4.4-.1-.1-.3 0-.5 0zm333.5-8.2c-.2 0-.3 0-.5-.1-4.7-1.3-9.4-2.5-14.2-3.7-1-.2-1.6-1.3-1.4-2.2.2-1 1.3-1.6 2.2-1.4 4.8 1.2 9.6 2.4 14.3 3.7 1 .3 1.6 1.3 1.3 2.3-.2.9-.9 1.4-1.7 1.4zm-305.3-.2c-.8 0-1.6-.5-1.8-1.4-.3-1 .3-2 1.3-2.3 4.7-1.3 9.5-2.5 14.3-3.6 1-.2 2 .4 2.2 1.4s-.4 2-1.4 2.2c-4.8 1.1-9.5 2.3-14.2 3.6-.1.1-.2.1-.4.1zm276.7-6.8c-.1 0-.3 0-.4 0-4.8-1-9.6-2-14.4-2.9-1-.2-1.7-1.2-1.5-2.2s1.1-1.7 2.2-1.5c4.9.9 9.7 1.9 14.5 2.9 1 .2 1.6 1.2 1.4 2.2-.2.9-1 1.5-1.8 1.5zm-248.1-.1c-.9 0-1.6-.6-1.8-1.5-.2-1 .4-2 1.4-2.2 4.8-1 9.6-2 14.5-2.9 1-.2 2 .5 2.2 1.5s-.5 2-1.5 2.2c-4.8.9-9.6 1.9-14.4 2.9-.1 0-.3 0-.4 0zm219.2-5.3c-.1 0-.2 0-.3 0-4.8-.8-9.6-1.5-14.5-2.2-1-.1-1.7-1.1-1.6-2.1s1.1-1.7 2.1-1.6c4.9.7 9.8 1.4 14.6 2.2 1 .2 1.7 1.1 1.5 2.1-.1.9-.9 1.6-1.8 1.6zm-190.3-.1c-.9 0-1.7-.6-1.8-1.6-.2-1 .5-2 1.5-2.1 4.8-.8 9.7-1.5 14.6-2.2 1-.1 2 .6 2.1 1.6s-.6 2-1.6 2.1c-4.8.7-9.7 1.4-14.5 2.1-.1.1-.2.1-.3.1zm29.1-3.9c-.9 0-1.7-.7-1.8-1.7s.6-1.9 1.6-2.1c4.9-.5 9.8-1 14.7-1.4 1-.1 1.9.7 2 1.7s-.7 1.9-1.7 2c-4.9.4-9.7.9-14.6 1.4-.1.1-.1.1-.2.1zm132 0c-.1 0-.1 0-.2 0-4.8-.5-9.7-1-14.6-1.4-1-.1-1.8-1-1.7-2s.9-1.8 2-1.7c4.9.4 9.8.9 14.7 1.4 1 .1 1.8 1 1.6 2.1 0 .9-.8 1.6-1.8 1.6zm-102.8-2.5c-1 0-1.8-.8-1.9-1.7-.1-1 .7-1.9 1.7-2 4.9-.3 9.8-.5 14.7-.7 1-.1 1.9.8 1.9 1.8s-.8 1.9-1.8 1.9c-4.9.2-9.8.4-14.6.7.1 0 .1 0 0 0zm73.5 0h-.1c-4.9-.3-9.7-.5-14.7-.7-1 0-1.8-.9-1.8-1.9s.9-1.9 1.9-1.8c4.9.2 9.8.4 14.7.7 1 .1 1.8.9 1.7 2 .1.9-.7 1.7-1.7 1.7zm-29.4-1.1c-4.9-.1-9.8-.1-14.7 0-1.1 0-1.9-.8-1.9-1.8s.8-1.9 1.8-1.9c4.9-.1 9.8-.1 14.8 0 1 0 1.8.9 1.8 1.9.1 1-.8 1.8-1.8 1.8z"
                          fill="#cecece"/>
                </g>
                <g>
                    <path d="m1011.7 185.4-5.2-6.4 1.2-1.5 1.5-1.1-1.5 1.1 1.6-1 3.8 4.7 5.5-1.7.9 1.7.5 1.8-.9-1.7.6 1.8z"
                          fill="#cecece"/>
                </g>
                <g>
                    <path d="m1033.7 179c-.8 0-1.6-.5-1.8-1.4-.3-1 .3-2 1.3-2.3 4.8-1.3 9.5-2.5 14.3-3.7 1-.2 2 .4 2.2 1.4s-.4 2-1.4 2.2c-4.8 1.2-9.5 2.4-14.2 3.7-.1.1-.2.1-.4.1zm28.7-7.1c-.9 0-1.6-.6-1.8-1.5-.2-1 .4-2 1.4-2.2 4.8-1.1 9.6-2.1 14.5-3.1 1-.2 2 .5 2.2 1.5s-.5 2-1.5 2.2c-4.8 1-9.6 2-14.4 3.1-.2 0-.3 0-.4 0zm28.9-5.8c-.9 0-1.7-.6-1.8-1.5-.2-1 .5-2 1.5-2.2 4.8-.9 9.7-1.7 14.6-2.4 1-.2 2 .5 2.1 1.6.2 1-.5 2-1.6 2.1-4.9.7-9.7 1.6-14.5 2.4-.1 0-.2 0-.3 0zm29.2-4.5c-.9 0-1.7-.7-1.8-1.6-.1-1 .6-2 1.6-2.1 4.9-.6 9.8-1.2 14.7-1.8 1-.1 1.9.6 2.1 1.6.1 1-.6 1.9-1.6 2.1-4.9.5-9.8 1.1-14.6 1.8-.2 0-.3 0-.4 0zm191.6-2.1h-.1c-4.7-.4-9.6-.7-14.7-1.1-1-.1-1.8-1-1.7-2s1-1.8 2-1.7c5.1.4 10 .7 14.7 1.1 1 .1 1.8 1 1.7 2-.2 1-1 1.7-1.9 1.7zm-162.3-1.2c-1 0-1.8-.7-1.8-1.7-.1-1 .7-1.9 1.7-2 4.9-.4 9.8-.8 14.8-1.2 1-.1 1.9.7 2 1.7s-.7 1.9-1.7 2c-4.9.3-9.8.7-14.7 1.2-.1 0-.2 0-.3 0zm132.8-.8h-.1c-4.8-.3-9.7-.6-14.7-.8-1-.1-1.8-.9-1.8-1.9.1-1 .9-1.9 1.9-1.8 5 .3 10 .5 14.8.8 1 .1 1.8.9 1.7 2 0 .9-.8 1.7-1.8 1.7zm-103.3-1.2c-1 0-1.8-.8-1.9-1.8s.7-1.9 1.8-1.9c4.9-.2 9.8-.4 14.8-.6 1 .1 1.9.8 1.9 1.8s-.8 1.9-1.8 1.9c-4.9.2-9.8.4-14.8.6zm73.8-.3c-4.9-.2-9.8-.3-14.8-.4-1 0-1.8-.9-1.8-1.9s.7-1.8 1.9-1.8c5 .1 9.9.3 14.8.4 1 0 1.8.9 1.8 1.9-.1 1-.9 1.8-1.9 1.8zm-44.3-.6c-1 0-1.8-.8-1.9-1.8 0-1 .8-1.9 1.8-1.9 3.3 0 6.6-.1 9.8-.1h5c1 0 1.9.8 1.8 1.9 0 1-.7 1.8-1.9 1.8h-4.9c-3.2.1-6.4.1-9.7.1z"
                          fill="#cecece"/>
                </g>
                <g>
                    <path d="m1329.9 167.1c-.4 0-.8-.1-1.1-.4-.8-.6-1-1.8-.4-2.6l2.4-3.2-4-.3c-1-.1-1.8-1-1.7-2s1-1.8 2-1.7l10.8.8-6.5 8.7c-.4.5-.9.7-1.5.7z"
                          fill="#cecece"/>
                </g>
                <g>
                    <path d="m1264.3 255.5c-.4 0-.8-.1-1.1-.4-.8-.6-1-1.8-.4-2.6l8.2-11c.6-.8 1.8-1 2.6-.4s1 1.8.4 2.6l-8.2 11c-.4.5-1 .8-1.5.8zm16.4-22.1c-.4 0-.8-.1-1.1-.4-.8-.6-1-1.8-.4-2.6l8.2-11c.6-.8 1.8-1 2.6-.4s1 1.8.4 2.6l-8.2 11c-.4.5-.9.8-1.5.8zm16.4-22.1c-.4 0-.8-.1-1.1-.4-.8-.6-1-1.8-.4-2.6l8.2-11c.6-.8 1.8-1 2.6-.4s1 1.8.4 2.6l-8.2 11c-.4.5-.9.8-1.5.8zm16.4-22.1c-.4 0-.8-.1-1.1-.4-.8-.6-1-1.8-.4-2.6l8.2-11c.6-.8 1.8-1 2.6-.4s1 1.8.4 2.6l-8.2 11c-.4.6-.9.8-1.5.8z"
                          fill="#cecece"/>
                </g>
                <g>
                    <path d="m1255.7 278.7c-.6 0-1.2-.3-1.6-.8l-4.7-7.3 5.2-7c.6-.8 1.8-1 2.6-.4s1 1.8.4 2.6l-3.7 4.9 3.3 5.2c.6.9.3 2-.6 2.6-.2.1-.6.2-.9.2z"
                          fill="#cecece"/>
                </g>
                <g>
                    <path d="m1308.2 359.8c-.6 0-1.2-.3-1.6-.8l-8.7-13.5c-.6-.9-.3-2 .6-2.6s2-.3 2.6.6l8.7 13.5c.6.9.3 2-.6 2.6-.4.1-.7.2-1 .2zm-17.5-27c-.6 0-1.2-.3-1.6-.8l-8.7-13.5c-.6-.9-.3-2 .6-2.6s2-.3 2.6.6l8.7 13.5c.6.9.3 2-.6 2.6-.3.1-.7.2-1 .2zm-17.5-27c-.6 0-1.2-.3-1.6-.8l-8.7-13.5c-.6-.9-.3-2 .6-2.6s2-.3 2.6.6l8.7 13.5c.6.9.3 2-.6 2.6-.3.1-.7.2-1 .2z"
                          fill="#cecece"/>
                </g>
                <g>
                    <path d="m1324.7 380.1-4-.5c-2.5-.3-4.9-.6-7.4-.9-1-.1-1.8-1-1.6-2.1.1-1 1-1.8 2.1-1.6 1.1.1 2.3.3 3.4.4l-1.9-2.9c-.6-.9-.3-2 .6-2.6s2-.3 2.6.6z"
                          fill="#cecece"/>
                </g>
                <g>
                    <path d="m1197.3 387.1c-.8 0-1.5-.5-1.7-1.2-.4-1 .1-2 1.1-2.4 4.4-1.6 9.2-3.1 14.2-4.4 1-.3 2 .3 2.3 1.3s-.3 2-1.3 2.3c-4.9 1.3-9.6 2.7-13.8 4.3-.4.1-.6.1-.8.1zm28.4-7.4c-.9 0-1.7-.6-1.8-1.5-.2-1 .5-2 1.5-2.1 4.7-.8 9.6-1.5 14.7-2 1-.1 1.9.6 2 1.6s-.6 1.9-1.6 2c-4.9.5-9.8 1.2-14.4 2-.2-.1-.3 0-.4 0zm73.2-2.4h-.1c-4.9-.4-9.8-.7-14.6-.9-1 0-1.8-.9-1.8-1.9s1-1.8 1.9-1.8c4.8.2 9.8.5 14.7.9 1 .1 1.8 1 1.7 2 0 1-.8 1.7-1.8 1.7zm-44-.8c-1 0-1.8-.8-1.9-1.8s.7-1.9 1.8-2c4.8-.2 9.8-.4 14.8-.4 1 0 1.9.8 1.9 1.9s-.8 1.9-1.9 1.9c-5 0-9.9.1-14.7.4z"
                          fill="#cecece"/>
                </g>
                <g>
                    <path d="m1177.9 405c-1 0-1.9-.8-1.9-1.9v-8.4l5.2-3.7c.1-.1.7-.5 1.8-1.2.9-.5 2-.2 2.5.6.5.9.2 2-.6 2.5-.9.5-1.4.9-1.5 1l-3.6 2.6v6.5c-.1 1.1-.9 2-1.9 2z"
                          fill="#cecece"/>
                </g>
                <g>
                    <path d="m1177.9 467.3c-1 0-1.9-.8-1.9-1.9v-15.6c0-1 .8-1.9 1.9-1.9s1.9.8 1.9 1.9v15.6c-.1 1.1-.9 1.9-1.9 1.9zm0-31.1c-1 0-1.9-.8-1.9-1.9v-15.6c0-1 .8-1.9 1.9-1.9s1.9.8 1.9 1.9v15.6c-.1 1-.9 1.9-1.9 1.9z"
                          fill="#cecece"/>
                </g>
                <g>
                    <path d="m1170.4 490.6c-1 0-1.8-.8-1.9-1.8 0-1 .8-1.9 1.8-1.9l5.6-.2v-5.6c0-1 .8-1.9 1.9-1.9s1.9.8 1.9 1.9v9.2z"
                          fill="#cecece"/>
                </g>
                <g>
                    <path d="m1134.9 491.8c-1 0-1.8-.8-1.9-1.8 0-1 .8-1.9 1.8-1.9 4.2-.2 9.2-.3 16.3-.5h1.2l.3 1.8-.2 1.9h-1.2c-7 .2-12 .3-16.3.5.1 0 .1 0 0 0z"
                          fill="#cecece"/>
                </g>
                <g>
                    <path d="m1110 500.8c-1 0-1.8-.8-1.9-1.8l-.3-9.2 9.2-.7c1-.1 1.9.7 2 1.7s-.7 1.9-1.7 2l-5.6.4.2 5.7c0 1.1-.8 1.9-1.9 1.9z"
                          fill="#cecece"/>
                </g>
                <g>
                    <path d="m1118.9 817.5c-1 0-1.8-.8-1.9-1.8l-.4-14.4c0-1 .8-1.9 1.8-1.9s1.9.8 1.9 1.8l.4 14.4c0 1-.8 1.8-1.8 1.9zm-.8-28.8c-1 0-1.8-.8-1.9-1.8l-.4-14.4c0-1 .8-1.9 1.8-1.9s1.9.8 1.9 1.8l.4 14.4c0 1-.8 1.9-1.8 1.9zm-.9-28.8c-1 0-1.8-.8-1.9-1.8l-.4-14.4c0-1 .8-1.9 1.8-1.9 1.1 0 1.9.8 1.9 1.8l.4 14.4c.1 1-.7 1.9-1.8 1.9.1 0 .1 0 0 0zm-.8-28.8c-1 0-1.8-.8-1.9-1.8l-.4-14.4c0-1 .8-1.9 1.8-1.9 1.1 0 1.9.8 1.9 1.8l.4 14.4c.1 1-.7 1.9-1.8 1.9.1 0 .1 0 0 0zm-.8-28.8c-1 0-1.8-.8-1.9-1.8l-.4-14.4c0-1 .8-1.9 1.8-1.9 1.1 0 1.9.8 1.9 1.8l.4 14.4c.1 1-.7 1.9-1.8 1.9.1 0 .1 0 0 0zm-.8-28.8c-1 0-1.8-.8-1.9-1.8l-.4-14.4c0-1 .8-1.9 1.8-1.9s1.9.8 1.9 1.8l.4 14.4c.1 1.1-.7 1.9-1.8 1.9.1 0 .1 0 0 0zm-.8-28.7c-1 0-1.8-.8-1.9-1.8l-.4-14.4c0-1 .8-1.9 1.8-1.9s1.9.8 1.9 1.8l.4 14.4c.1 1-.7 1.8-1.8 1.9zm-.8-28.8c-1 0-1.8-.8-1.9-1.8l-.4-14.4c0-1 .8-1.9 1.8-1.9s1.9.8 1.9 1.8l.4 14.4c.1 1-.7 1.9-1.8 1.9zm-.8-28.8c-1 0-1.8-.8-1.9-1.8l-.4-14.4c0-1 .8-1.9 1.8-1.9s1.9.8 1.9 1.8l.4 14.4c.1 1-.7 1.9-1.8 1.9zm-.8-28.8c-1 0-1.8-.8-1.9-1.8l-.4-14.4c0-1 .8-1.9 1.8-1.9s1.9.8 1.9 1.8l.4 14.4c.1 1-.7 1.9-1.8 1.9zm-.8-28.8c-1 0-1.8-.8-1.9-1.8l-.4-14.4c0-1 .8-1.9 1.8-1.9s1.9.8 1.9 1.8l.4 14.4c.1 1-.7 1.9-1.8 1.9z"
                          fill="#cecece"/>
                </g>
                <g>
                    <path d="m1112.1 839.6c-1 0-1.8-.8-1.9-1.8 0-1 .8-1.9 1.8-1.9 1.9-.1 3.8-.1 5.6-.2l-.2-5.6c0-1 .8-1.9 1.8-1.9s1.9.8 1.9 1.8l.3 9.3-1.8.1c-2.4 0-4.9.1-7.5.2z"
                          fill="#cecece"/>
                </g>
                <g>
                    <path d="m721.9 1111.8c-.3 0-.6-.1-.9-.2-.9-.5-1.2-1.6-.7-2.5 1.9-3.3 3-5.7 4.2-8.4.8-1.7 1.5-3.3 2.4-5.1.4-.9 1.6-1.3 2.5-.9s1.3 1.6.9 2.5c-.8 1.7-1.5 3.3-2.3 4.8-1.3 2.9-2.5 5.4-4.4 8.8-.4.7-1.1 1-1.7 1zm14-26.7c-.3 0-.7-.1-1-.3-.9-.5-1.1-1.7-.6-2.6 2.4-3.8 5.1-7.9 8.4-12.6.6-.8 1.7-1 2.6-.5.8.6 1 1.7.5 2.6-3.3 4.7-6 8.8-8.3 12.5-.4.6-1 .9-1.6.9zm17.2-24.8c-.4 0-.8-.1-1.1-.4-.8-.6-1-1.8-.4-2.6 2.7-3.7 5.7-7.7 9.1-12.1.6-.8 1.8-1 2.6-.4s1 1.8.4 2.6c-3.3 4.4-6.3 8.4-9 12.1-.5.5-1 .8-1.6.8zm18.3-24.1c-.4 0-.8-.1-1.1-.4-.8-.6-1-1.8-.3-2.6 2.9-3.7 6-7.7 9.3-11.9.6-.8 1.8-.9 2.6-.3s.9 1.8.3 2.6c-3.3 4.2-6.4 8.2-9.3 11.9-.4.5-1 .7-1.5.7zm18.7-23.8c-.4 0-.8-.1-1.2-.4-.8-.6-.9-1.8-.3-2.6 3-3.8 6.1-7.7 9.5-11.8.6-.8 1.8-.9 2.6-.3s.9 1.8.3 2.6c-3.3 4.1-6.5 8-9.4 11.8-.4.5-1 .7-1.5.7zm18.9-23.5c-.4 0-.8-.1-1.2-.4-.8-.6-.9-1.8-.3-2.6l9.5-11.7c.6-.8 1.8-.9 2.6-.3s.9 1.8.3 2.6l-9.5 11.7c-.3.4-.8.7-1.4.7zm19.1-23.5c-.4 0-.8-.1-1.2-.4-.8-.6-.9-1.8-.3-2.6l9.6-11.7c.6-.8 1.8-.9 2.6-.3.8.7.9 1.8.3 2.6l-9.6 11.7c-.3.5-.8.7-1.4.7zm19.3-23.4c-.4 0-.8-.1-1.2-.4-.8-.7-.9-1.8-.3-2.6l9.6-11.7c.7-.8 1.8-.9 2.6-.2s.9 1.8.2 2.6l-9.6 11.7c-.3.4-.8.6-1.3.6zm19.3-23.3c-.4 0-.8-.1-1.2-.4-.8-.7-.9-1.8-.2-2.6l9.7-11.6c.7-.8 1.8-.9 2.6-.2s.9 1.8.2 2.6l-9.7 11.6c-.4.4-.9.6-1.4.6zm19.3-23.2c-.4 0-.9-.1-1.2-.4-.8-.7-.9-1.8-.2-2.6l9.6-11.6c.7-.8 1.8-.9 2.6-.3s.9 1.8.3 2.6l-9.7 11.7c-.3.4-.8.6-1.4.6zm19.3-23.4c-.4 0-.8-.1-1.2-.4-.8-.6-.9-1.8-.3-2.6l5.6-6.9 7.3-1.8c1-.2 2 .4 2.2 1.4s-.4 2-1.4 2.2l-6.1 1.5-4.8 5.9c-.2.5-.8.7-1.3.7zm26.6-11.4c-.9 0-1.6-.6-1.8-1.5-.2-1 .4-2 1.4-2.2 5-1.1 10-2.2 14.8-3.2 1-.2 2 .4 2.2 1.4s-.4 2-1.4 2.2c-4.8 1-9.8 2.1-14.8 3.2-.1.1-.2.1-.4.1zm29.7-6.1c-.9 0-1.7-.6-1.8-1.5-.2-1 .5-2 1.5-2.2 5.1-1 10.1-1.9 14.9-2.7 1-.2 2 .5 2.1 1.5.2 1-.5 2-1.5 2.1-4.9.8-9.8 1.7-14.9 2.7-.1 0-.2.1-.3.1zm29.8-5.1c-.9 0-1.7-.7-1.8-1.6-.2-1 .5-2 1.6-2.1 5.1-.8 10.1-1.5 15-2.2 1-.1 2 .6 2.1 1.6s-.6 2-1.6 2.1c-4.9.7-9.8 1.4-14.9 2.1-.2 0-.3.1-.4.1zm30-4.1c-.9 0-1.7-.7-1.8-1.6-.1-1 .6-1.9 1.6-2.1 5.2-.6 10.2-1.1 15.1-1.6 1.1-.1 1.9.6 2 1.7.1 1-.6 1.9-1.7 2-4.8.5-9.9 1-15 1.6 0 0-.1 0-.2 0zm30.2-2.9c-1 0-1.8-.7-1.9-1.7s.7-1.9 1.7-2c5.3-.4 10.3-.8 15.1-1 1 0 1.9.7 2 1.7s-.7 1.9-1.7 2c-4.8.3-9.8.6-15.1 1zm30.2-1.8c-1 0-1.8-.8-1.9-1.8 0-1 .7-1.9 1.8-1.9 5.4-.2 10.4-.4 15.1-.6 1 0 1.9.8 1.9 1.8s-.8 1.9-1.8 1.9c-4.6.1-9.6.3-15.1.6z"
                          fill="#cecece"/>
                </g>
                <g>
                    <path d="m713.8 1136.4c-.5 0-1-.2-1.4-.6l-5.8-6.7 5.2-7.2c.6-.8 1.8-1 2.6-.4s1 1.8.4 2.6l-3.5 4.8 3.9 4.5c.7.8.6 2-.2 2.6-.4.3-.8.4-1.2.4z"
                          fill="#cecece"/>
                </g>
                <g>
                    <path d="m727.2 1163.5c-.9 0-1.6-.6-1.8-1.5-1.2-5.4-2.7-9.9-4.7-14-.5-.9-.1-2 .8-2.5s2-.1 2.5.8c2.2 4.4 3.8 9.1 5 14.8.2 1-.4 2-1.4 2.2-.1.2-.3.2-.4.2z"
                          fill="#cecece"/>
                </g>
                <g>
                    <path d="m739.3 1187.9c-.2 0-.4 0-.6-.1l-8-2.6-1.8-6.3c-.2-.6-.3-1.2-.5-1.9-.3-1 .4-2 1.4-2.3s2 .4 2.3 1.4c.1.6.3 1.2.5 1.7l1.3 4.4 6.1 2c1 .3 1.5 1.4 1.2 2.3-.4.9-1.1 1.4-1.9 1.4z"
                          fill="#cecece"/>
                </g>
                <g>
                    <path d="m760.9 1199.1c-.6 0-1.3-.3-1.6-.9-1.1-1.9-2.1-3.8-3.1-5.7-.1 0-.1 0-.2 0-1.8-.1-3.1-.3-6.4-1.2-1-.3-1.6-1.3-1.3-2.3s1.3-1.6 2.3-1.3c2.9.8 4.1.9 5.6 1 .3 0 .7.1 1.5.2l.9.1.4.9c1.1 2.2 2.3 4.4 3.5 6.5.5.9.2 2-.7 2.5-.3.1-.6.2-.9.2z"
                          fill="#cecece"/>
                </g>
                <g>
                    <path d="m663 1408.6h-7.8c-1 0-1.9-.8-1.9-1.9s.8-1.9 1.9-1.9h7.8c2.4 0 4.8-.1 7.1-.4 1-.1 1.9.6 2 1.6s-.6 1.9-1.6 2c-2.5.5-5 .6-7.5.6zm-22.9 0h-15.1c-1 0-1.9-.8-1.9-1.9s.8-1.9 1.9-1.9h15.1c1 0 1.9.8 1.9 1.9s-.9 1.9-1.9 1.9zm-30.3 0h-15.1c-1 0-1.9-.8-1.9-1.9s.8-1.9 1.9-1.9h15.1c1 0 1.9.8 1.9 1.9s-.8 1.9-1.9 1.9zm-30.2 0h-5.4c-3.3 0-6.7-.2-10-.7-1-.1-1.7-1.1-1.6-2.1s1.1-1.7 2.1-1.6c3.1.5 6.3.7 9.4.7h5.4c1 0 1.9.8 1.9 1.9s-.8 1.8-1.8 1.8zm105.4-3.6c-.8 0-1.5-.5-1.8-1.3-.3-1 .2-2 1.2-2.4 4.6-1.6 9.1-3.7 13.3-6.3.9-.5 2-.3 2.6.6.5.9.3 2-.6 2.6-4.4 2.7-9.1 5-14 6.6-.3.1-.5.2-.7.2zm-135.1-.9c-.2 0-.4 0-.7-.1-4.8-1.9-9.4-4.3-13.8-7.1-.9-.6-1.1-1.7-.5-2.6s1.7-1.1 2.6-.5c4.1 2.7 8.5 5 13 6.7 1 .4 1.4 1.4 1.1 2.4-.2.8-.9 1.2-1.7 1.2zm160.6-14.9c-.5 0-1-.2-1.3-.6-.7-.7-.7-1.9 0-2.6 3.5-3.4 6.6-7.2 9.3-11.3.6-.9 1.7-1.1 2.6-.5s1.1 1.7.5 2.6c-2.8 4.3-6.1 8.4-9.8 12-.3.2-.8.4-1.3.4zm-185.5-1.7c-.5 0-1-.2-1.3-.6-3.6-3.7-6.7-7.9-9.4-12.3-.5-.9-.2-2 .6-2.5.9-.5 2-.2 2.5.6 2.5 4.2 5.5 8.1 8.9 11.7.7.7.7 1.9-.1 2.6-.3.3-.8.5-1.2.5zm201.9-23.4c-.2 0-.4 0-.6-.1-1-.4-1.5-1.4-1.1-2.4.6-1.7 1.2-3.4 1.7-5.1l2.6-9.2c.3-1 1.3-1.6 2.3-1.3s1.6 1.3 1.3 2.3l-2.6 9.2c-.5 1.8-1.1 3.6-1.8 5.4-.4.7-1.1 1.2-1.8 1.2zm-217.4-2.3c-.8 0-1.5-.5-1.8-1.3-.3-1-.6-2-.9-3.1l-3.2-11.5c-.3-1 .3-2 1.3-2.3s2 .3 2.3 1.3l3.2 11.5c.3 1 .6 2 .9 2.9.3 1-.2 2-1.2 2.3-.2.2-.4.2-.6.2zm225.7-26.8c-.2 0-.3 0-.5-.1-1-.3-1.6-1.3-1.3-2.3l4.1-14.6c.3-1 1.3-1.6 2.3-1.3s1.6 1.3 1.3 2.3l-4.1 14.6c-.2.9-1 1.4-1.8 1.4zm-233.8-2.3c-.8 0-1.6-.5-1.8-1.4l-4.1-14.6c-.3-1 .3-2 1.3-2.3s2 .3 2.3 1.3l4.1 14.6c.3 1-.3 2-1.3 2.3-.2.1-.4.1-.5.1zm241.9-26.8c-.2 0-.3 0-.5-.1-1-.3-1.6-1.3-1.3-2.3l4.1-14.6c.3-1 1.3-1.6 2.3-1.3s1.6 1.3 1.3 2.3l-4.1 14.6c-.2.9-1 1.4-1.8 1.4zm-250.1-2.3c-.8 0-1.6-.5-1.8-1.4l-4.1-14.6c-.3-1 .3-2 1.3-2.3s2 .3 2.3 1.3l4.1 14.6c.3 1-.3 2-1.3 2.3-.1.1-.3.1-.5.1zm264.9-22.2c-.5 0-1-.2-1.4-.6-.7-.8-.7-1.9.1-2.6 3.6-3.3 6.7-7.1 9.3-11.3.5-.9 1.7-1.1 2.6-.6s1.1 1.7.6 2.6c-2.7 4.4-6.1 8.5-9.9 12-.4.3-.9.5-1.3.5zm15.7-25.4c-.2 0-.3 0-.5-.1-1-.3-1.5-1.3-1.3-2.3 1.4-4.7 2.1-9.5 2.2-14.4 0-1 .9-2 1.9-1.8 1 0 1.8.9 1.8 1.9-.1 5.2-.8 10.4-2.3 15.4-.3.8-1 1.3-1.8 1.3zm.3-29.9c-.8 0-1.6-.5-1.8-1.4-1.2-4.3-2.9-8.5-5.6-13.5-.5-.9-.1-2 .8-2.5s2-.1 2.5.8c2.9 5.3 4.7 9.8 5.9 14.3.3 1-.3 2-1.3 2.3-.1 0-.3 0-.5 0z"
                          fill="#cecece"/>
                </g>
            </g>
        </g>
        <g>
            <g>
                <g>
                    <path d="m1031.3 381.1c145-47.9 228.2-31 228.2-31l-61.2-78.2 56.4-75.9s-139.3-9.5-262.8 39.2z"
                          fill="#82cfce"/>
                </g>
                <path d="m1170.5 260c2.9 37.2-6.4 59.6-67.7 63.7-24 1.6-52.1 4.3-77.5 7l11.7 44.1c132.9-44.6 209.1-28.9 209.1-28.9l-56.1-72.9 51.7-70.8s-74.1 20.6-71.2 57.8z"
                      fill="#65c5c0"/>
                <g>
                    <path d="m1097.1 317.9c61.4-4.1 70.6-26.5 67.7-63.7-2.1-26.4 34.8-44.5 56.2-52.7-40.6-.4-134.5 2.8-220.2 37.2l22.8 85.8c24.3-2.5 50.7-5 73.5-6.6z"
                          fill="#99d6d3"/>
                </g>
                <g>
                    <path d="m991.8 235.2 143.9 53.4c-25.2.8-50.1 3.9-136.6 31.9z" fill="#4caea6"/>
                </g>
                <path d="m1040.4 253.2-48.6-18 7.3 85.3c26.3-8.5 46.9-14.7 63.5-19.3-6.3-16.8-13.7-32.8-22.2-48z"
                      fill="#319288"/>
                <g>
                    <path d="m1032.4 243.1c101.3-37.2 186.2-35.4 191.5-37.4-38.4-.4-124.5 2.5-206.3 31.9z"
                          fill="#bae2df"/>
                </g>
                <g>
                    <g>
                        <path d="m1077.6 637.7c-113.2-112.2-952.6-51.9-952.6-51.9v159.2s593.2 44.2 882.1 36.1z"
                              fill="#4caea6"/>
                    </g>
                </g>
                <path d="m975.7 596.5c-19.6 61-49.6 124.4-83.7 185.4 24.7.2 48.4.2 70.8 0 35.6-50.6 66.9-104.4 88-162-19.2-9.3-44.7-17-75.1-23.4z"
                      fill="#319288"/>
                <g>
                    <path d="m685.7 1169.3c-1.4-6.9-7.6-11.9-14.7-11.9h-16.6l12.4-55-3.7-.8-12.6 55.8h-30.1v-55.4h-3.8v55.4h-30.1l-12.6-55.8-3.7.8 12.4 55h-16.6c-7.1 0-13.2 5-14.7 11.9l-17 82 5.2 1.1 17-82c.9-4.4 4.9-7.7 9.4-7.7h104.9c4.5 0 8.5 3.2 9.4 7.7l17 82 5.2-1.1z"
                          fill="#e2d5a7"/>
                    <g>
                        <path d="m663 1364.7h-88.7c-11.7 0-21.9-7.8-25-19l-30.5-109.3h199.7l-30.5 109.2c-3.1 11.3-13.4 19.1-25 19.1z"
                              fill="#dd8b49"/>
                        <g>
                            <path d="m577.4 1362.4c101.6-9.3 101.5-113.4 101.5-113.4l.2-10.4h-157.4l29.7 106.4c2.8 10.2 12.2 17.4 22.8 17.4z"
                                  fill="#e69457"/>
                        </g>
                        <path d="m663 1362.4c10.6 0 20-7.1 22.8-17.4l29.7-106.4h-32l-.3 13.8s0 93.8-87.5 109.9h67.3z"
                              fill="#d67e3a"/>
                        <path d="m720.1 1252.4h-203c-7.6 0-13.8-6.2-13.8-13.8 0-7.6 6.2-13.8 13.8-13.8h203c7.6 0 13.8 6.2 13.8 13.8 0 7.6-6.2 13.8-13.8 13.8z"
                              fill="#f39b5b"/>
                        <path d="m723.9 1227.8c.4 1.2.7 2.5.7 3.8 0 6.4-5.2 11.5-11.5 11.5h-203c-1.3 0-2.6-.3-3.8-.7 1.6 4.5 5.8 7.7 10.8 7.7h203c6.4 0 11.5-5.2 11.5-11.5 0-5-3.2-9.2-7.7-10.8z"
                              fill="#d67e3a"/>
                        <g>
                            <path d="m508.2 1239.8h203c6.4 0 11.5-4.7 11.5-10.4 0-.7-.1-1.4-.3-2.1-.7-.1-1.5-.2-2.3-.2h-203c-6.4 0-11.5 4.7-11.5 10.4 0 .7.1 1.4.2 2.1.8.1 1.5.2 2.4.2z"
                                  fill="#f9ae7c"/>
                        </g>
                    </g>
                    <g>
                        <g>
                            <g>
                                <path d="m618.6 53.2c-240.9 0-436.3 143.4-436.3 388.4 0 281.4 282.7 474.3 372.9 652.1 5 9.8 15.1 15.8 26.1 15.8h37.3 37.3c11 0 21.1-6.1 26.1-15.8 90.2-177.8 372.9-370.7 372.9-652.1 0-245-195.4-388.4-436.3-388.4z"
                                      fill="#ee3d4a"/>
                                <g>
                                    <path d="m623.7 1103.6c-3.5-2.6-6.4-5.9-8.4-9.9-6.6-13.1-14.3-26.3-22.9-39.6-118.5-169.2-351.6-357.6-351.6-619.1 0-160.6 80.1-279.4 202-345.9-142.3 56.9-239.9 179.3-239.9 352.5 0 281.4 282.7 474.3 372.9 652.1 5 9.8 15.1 15.8 26.1 15.8h25.1c-1.1-1.9-2.2-3.9-3.3-5.9z"
                                          fill="#f0657c"/>
                                </g>
                                <ellipse cx="240.9" cy="312" fill="#fffdf0" rx="24.3" ry="10"
                                         transform="matrix(.294 -.956 .956 .294 -128.084 450.556)"/>
                                <ellipse cx="228.7" cy="351.8" fill="#fffdf0" rx="9.1" ry="5.8"
                                         transform="matrix(.294 -.956 .956 .294 -174.717 467.117)"/>
                                <g fill="#d32a3a">
                                    <path d="m993.9 668.2c-242.2 34.6-421.7 163.7-615.2 192.5 38.5 46.4 77.1 90.4 110.3 132.9 118.2-37.2 236.7-98.6 373.7-137.8 48-58.1 95.4-120.1 131.2-187.6z"/>
                                    <path d="m286.4 739.6c399.7-92 589.1-217.3 766.2-254 1.5-14.4 2.4-29.1 2.4-44 0-40.3-5.3-77.8-15.2-112.4-184.2 42.5-387 176.9-828.5 267.6 18.5 50.4 44.8 97.8 75.1 142.8z"/>
                                    <path d="m618.6 53.2c-151.6 0-357.1 143.4-357.1 388.4 0 248.5 319.7 668 319.7 668h2.2c-50.7-182.2-239.4-378.2-239.4-668 .1-245 123-388.4 274.6-388.4z"/>
                                </g>
                                <path d="m344.6 725.6c18.3-4.6 36.1-9.2 53.5-13.9-18.1-46.5-33.2-95.6-42.9-148-22.3 5.7-45.4 11.3-69.1 16.7 14.8 47.4 35.3 96.6 58.5 145.2z"
                                      fill="#b61f30"/>
                                <path d="m620.5 53.2c202 29.9 356.9 171.7 354.7 388.4-2.6 264-356.7 668-356.7 668h37.3c11 0 21.1-6.1 26.1-15.8 90.2-177.8 372.9-370.7 372.9-652.1.1-244.5-194.2-387.7-434.3-388.5z"
                                      fill="#d32a3a"/>
                                <path d="m905.4 685.3c-32.2 66.8-72 132.9-111.6 192.4 22.5-7.8 45.3-15.2 68.8-21.9 48.1-58.2 95.5-120.2 131.3-187.7-30.5 4.5-59.9 10.3-88.5 17.2z"
                                      fill="#b61f30"/>
                                <path d="m1039.7 329.2c-24 5.5-48.4 12.6-73.5 21 6.2 28.7 9.4 59.2 9.1 91.4-.2 21.6-2.8 44.1-7.3 67.2 29-9.6 56.9-17.5 84.6-23.2-.2-6.1 11.8-70-12.9-156.4z"
                                      fill="#b61f30"/>
                                <path d="m618.6 53.2c-151.6 0-274.5 143.4-274.5 388.4 0 289.8 188.7 485.8 239.4 668h35.2 35.2c50.7-182.2 239.4-378.2 239.4-668-.2-245-123.1-388.4-274.7-388.4z"
                                      fill="#fff7d2"/>
                                <path d="m530.1 979.8c72-25.6 144.9-58.1 222.7-87.2 31.3-59 63.8-121.7 89.7-189.9-140.1 42.8-261.3 106.8-383.9 140.8 24.5 47.6 49.6 92.8 71.5 136.3z"
                                      fill="#e8dbb7"/>
                                <path d="m398.2 711.6c217.7-58.8 365.8-125.4 487.8-172.9 4.6-31.2 7.1-63.5 7.1-97.1 0-22.1-1-43.3-3-63.7-130.6 50.7-290.8 123.8-534.9 185.8 9.7 52.3 24.8 101.4 43 147.9z"
                                      fill="#e8dbb7"/>
                                <path d="m625 53.4c119.2 38.5 232 245 195.6 449.4-55.9 314.3-189.3 606.8-189.3 606.8h22.4c50.7-182.2 239.4-378.2 239.4-668 0-241.5-119.4-384.2-268.1-388.2z"
                                      fill="#f1e8c1"/>
                                <g>
                                    <path d="m852.1 736.6c58.4-87.7 102-184.5 102-295 0-108.6-38.4-197.2-102.1-262.2 40.1 65 64.3 153.6 64.3 262.2 0 110.5-27.5 207.3-64.2 295z"
                                          fill="#f0657c"/>
                                </g>
                                <ellipse cx="924.1" cy="548.7" fill="#fffdf0" rx="16.2" ry="8.9"
                                         transform="matrix(.248 -.969 .969 .248 163.716 1308.153)"/>
                                <ellipse cx="918.4" cy="574.6" fill="#fffdf0" rx="5" ry="3.8"
                                         transform="matrix(.247 -.969 .969 .247 134.803 1322.657)"/>
                                <path d="m752.8 892.6c31.3-59 63.8-121.7 89.7-189.9-25.4 7.7-50.1 16.2-74.3 25-18.8 66.2-38.9 127.7-57.8 181.2 14-5.5 28.1-11 42.4-16.3z"
                                      fill="#dbc993"/>
                                <path d="m807.4 570c27.5-11.1 53.6-21.6 78.6-31.4 4.6-31.2 7.1-63.5 7.1-97.1 0-22.1-1-43.3-3-63.7-20.3 7.9-41.2 16.2-63.1 25.1 1.4 32.9-.5 66.4-6.5 99.9-3.9 22.5-8.3 45-13.1 67.2z"
                                      fill="#dbc993"/>
                                <path d="m618.6 53.2c-55 0-99.6 143.4-99.6 388.4 0 289.8 68.5 485.8 86.9 668h12.8 12.8c18.4-182.2 86.9-378.2 86.9-668-.2-245-44.8-388.4-99.8-388.4z"
                                      fill="#ee3d4a"/>
                                <g>
                                    <path d="m586.7 441.6c0-148 10.2-297.7 29.9-384.4-41.9 24.8-74 163.1-74 384.4 0 289.8 60.3 485.8 76.5 668h11.2 11.2c2.6-29.2 6.3-58.7 10.8-89-23.1-158.5-65.6-335.7-65.6-579z"
                                          fill="#f0657c"/>
                                </g>
                                <path d="m533.3 671.6c65.7-21.2 124.2-42.6 177.3-63.2 4.6-50.8 7.4-104.6 7.6-162.1-58.4 22.7-123.5 46.7-197.7 70.2 2.3 55 6.9 106.5 12.8 155.1z"
                                      fill="#d32a3a"/>
                                <g>
                                    <path d="m519 441.6c0-221.7 36.5-360.3 84.3-384.5-110.6 37.7-170.9 177-170.9 384.5 0 237.6 96.6 412.2 159.3 567.8-26.7-155.7-72.7-330.2-72.7-567.8z"
                                          fill="#f1e8c1"/>
                                </g>
                                <path d="m468.3 691.7c22.4-6.7 44.1-13.4 65-20.1-6-48.6-10.5-100.1-12.8-155.1-26.3 8.3-53.7 16.6-82.3 24.8 6.1 53.3 16.7 103.2 30.1 150.4z"
                                      fill="#dbc993"/>
                                <path d="m619.8 53.3c22.3 78.9 12.3 208.7 12.3 388.3 0 225.9-30.3 627.8-26.2 668h12.8 12.8c18.4-182.2 86.9-378.2 86.9-668-.2-243.3-44.2-386.3-98.6-388.3z"
                                      fill="#d32a3a"/>
                                <path d="m631.8 478.7c-.6 49.1-2.3 104.2-4.6 160.9 29.3-10.5 57-20.9 83.4-31.1 4.6-50.8 7.4-104.6 7.6-162.1-27.3 10.5-56 21.4-86.4 32.3z"
                                      fill="#b61f30"/>
                                <circle cx="633" cy="675.8" fill="#a04070" r="100.4"/>
                                <g fill="#8e2f63">
                                    <path d="m708.2 609.4c-58.2-65.9-171.9-29.3-175.5 62.4 9.9-3.2 19.7-6.4 29.3-9.6 1.6-3.6 3.7-7.1 6.3-10.6 8.3-11.1 20.2-19.6 32.6-23.4 2.1-.6 4.1-1.1 6.1-1.5l5.9-1.3.6 6 1.1 12.8c4.6-1.6 9.2-3.3 13.8-4.9 2.4-12.4 13.1-23.5 28.9-28.3 4.5-1.4 8.8-2.1 12.7-2.1 10.9 0 18.6 5.5 21.7 15.5s-.3 19.3-8 23.2c3.6 3.9 6.4 8.6 8.3 13.7 5.7 4.6 10.7 10.9 13.6 20.5 3.9 12.6 2.3 24.6-4.7 34.7-5.7 8.3-14.7 14.8-25.6 18.5-14.6 20.1-36.5 34.6-61.8 39.6 11.8 2.3 24.2 2.6 37.1.3 44.4-7.9 78.5-45.3 82.3-90.2 2.5-29.1-7.3-55.6-24.7-75.3z"/>
                                    <path d="m669.8 630c-1-3.2-2.9-3.2-3.8-3.2-.8 0-1.8.2-2.9.5-4.6 1.4-6 3.9-6.1 6.4 4.3.5 8.5 1.7 12.4 3.4.9-2.1 1.1-4.8.4-7.1z"/>
                                </g>
                            </g>
                        </g>
                        <path d="m438.9 932.4c47.3 56.3 90 109.4 116.3 161.3 5 9.8 15.1 15.8 26.1 15.8h37.3 37.3c11 0 21.1-6.1 26.1-15.8 26.3-51.9 69-105 116.3-161.3z"
                              fill="#fbce08"/>
                        <ellipse cx="557.7" cy="1017.2" fill="#f1e8c1" rx="25.6" ry="20.9"
                                 transform="matrix(.754 -.657 .657 .754 -531.023 616.684)"/>
                        <path d="m651.8 932.4h-212.9c16.4 19.5 34.3 41.2 50 61.3 53.7-16.9 107.5-38.8 162.9-61.3z"
                              fill="#edc01b"/>
                        <path d="m786.7 946.3c3.8-4.6 7.7-9.3 11.6-13.9h-359.4c3.9 4.7 7.8 9.3 11.6 13.9z"
                              fill="#f89d1c"/>
                        <path d="m450.5 946.3h166.9c11.4-4.6 22.9-9.2 34.4-13.9h-212.9c3.4 4 6.7 8 10 12 .6.6 1.1 1.2 1.6 1.9z"
                              fill="#ed8b22"/>
                        <path d="m682 1093.7c26.3-51.9 69-105 116.3-161.3h-42c-81.1 149.2-158.8 177.1-158.8 177.1h58.5c10.9 0 21-6 26-15.8z"
                              fill="#edc01b"/>
                        <path d="m786.7 946.3c3.8-4.6 7.7-9.3 11.6-13.9h-42c-2.6 4.8-5.2 9.4-7.8 13.9z" fill="#ed8b22"/>
                    </g>
                    <g>
                        <g>
                            <path d="m577.2 1348.3c-.6 0-1.2-.4-1.3-1.1l-16.5-82.1c-.1-.7.3-1.4 1-1.6s1.4.3 1.6 1.1l16.5 82.1c.1.7-.3 1.4-1 1.6-.1 0-.2 0-.3 0z"
                                  fill="#c57234"/>
                        </g>
                        <g>
                            <path d="m597.9 1348.3c-.7 0-1.3-.5-1.3-1.2l-8.3-82.1c-.1-.7.5-1.4 1.2-1.5.8-.1 1.4.5 1.5 1.2l8.3 82.1c.1.7-.5 1.4-1.2 1.5-.1 0-.1 0-.2 0z"
                                  fill="#c57234"/>
                        </g>
                        <g>
                            <path d="m618.6 1348.3c-.7 0-1.3-.6-1.3-1.3v-82.1c0-.7.6-1.3 1.3-1.3s1.3.6 1.3 1.3v82.1c0 .7-.6 1.3-1.3 1.3z"
                                  fill="#c57234"/>
                        </g>
                        <g>
                            <path d="m639.3 1348.3h-.1c-.7-.1-1.3-.7-1.2-1.5l8.3-82.1c.1-.7.7-1.3 1.5-1.2.7.1 1.3.7 1.2 1.5l-8.3 82.1c-.1.7-.7 1.2-1.4 1.2z"
                                  fill="#c57234"/>
                        </g>
                        <g>
                            <path d="m660 1348.3c-.1 0-.2 0-.3 0-.7-.1-1.2-.9-1-1.6l16.5-82.1c.1-.7.9-1.2 1.6-1.1s1.2.9 1 1.6l-16.5 82.1c-.1.7-.7 1.1-1.3 1.1z"
                                  fill="#c57234"/>
                        </g>
                    </g>
                </g>
                <g>
                    <path d="m398.5 927.3c-84.6-9.5-165.4 12-232.5 44.1l77 55.2-63.7 104.2c123.1-56.1 219.2-55.7 219.2-55.7z"
                          fill="#82cfce"/>
                    <path d="m318.8 1002.7s33.7 51.8-43.4 65.1c-48.5 8.4-74 31.1-86.3 46.9l-9.9 16.1c123.1-56.1 219.2-55.7 219.2-55.7v-110.4z"
                          fill="#65c5c0"/>
                    <path d="m1077.6 796.9c-312.3 13.3-519.5 198.2-758.9 205.8 0-53.1 0-106.1 0-159.2 239.4-7.6 446.6-192.5 758.9-205.8z"
                          fill="#82cfce"/>
                    <g>
                        <path d="m214.9 1082.7c13.8-8.4 31.9-15.9 55.5-19.9 77.1-13.3 43.4-65.1 43.4-65.1 0-21.6 0-43.1 0-64.7-45.3 5.2-91.3 18.4-137.2 39.4l73.6 52.8z"
                              fill="#99d6d3"/>
                    </g>
                    <path d="m265.1 1025.2-73.6-52.8c40.9-18.7 122.2-38.7 122.2-39.4-45.3 5.2-91.3 18.4-137.2 39.4l73.6 52.8-35.2 57.6c6.3-3.9 50.2-57.6 50.2-57.6z"
                          fill="#bae2df"/>
                    <path d="m1023.4 738.8c-3.7 46.9-246.4 35.6-371 121-108.6 74.4-265.9 79.4-324 79.1v56.1c108.4-4.7 211.1-46.4 319.7-90.5 126.8-51.5 257.8-104.7 419.8-112.5v-145.8c-12.2 15.3-41.5 55.5-44.5 92.6z"
                          fill="#65c5c0"/>
                    <g>
                        <path d="m645.7 853.1c124.6-85.4 367.2-74.1 371-121 2.6-32.6 25.6-67.6 39.4-86-154.6 9.8-281.3 61.2-404 111.1-109.7 44.5-213.3 86.6-323.7 91.3v83.9c62.8-.4 212.7-7.6 317.3-79.3z"
                              fill="#99d6d3"/>
                    </g>
                    <path d="m333.6 853.5c110.4-4.7 213.7-47.5 323.7-91.3 266.2-106 397.6-114.4 398.9-116.2-154.6 9.8-281.3 61.2-404 111.1-109.7 44.5-213.3 86.6-323.7 91.3v83.9c1.6-.1 5.1-78.8 5.1-78.8z"
                          fill="#bae2df"/>
                    <path d="m397.1 994.1 1.4 80.9-79.7-72.4c26.5-.8 54-4 79.7-8.7z" fill="#4caea6"/>
                </g>
                <path d="m1135.7 447.7c-228.3 7.6-425.9 192.6-1010.7 297.3v-159.2c584.7-104.7 782.3-289.6 1010.7-297.3z"
                      fill="#82cfce"/>
                <path d="m1073.4 385.1c-22.5 57.2-182.7 57.2-493 188.6-206.9 87.7-382.6 93.7-445.3 81.4v81.3c317.1-57.4 514.4-137 673.2-201 121.3-48.9 217.5-87.7 317.3-92.2v-144.9c-12.4 18.1-43 63.5-52.2 86.8z"
                      fill="#65c5c0"/>
                <g>
                    <path d="m577.6 562.9c310.3-131.4 470.5-131.4 493-188.6 7.9-19.9 31.4-56.1 45.9-77.4-94.2 6.3-183.2 42.1-304.1 90.8-151.2 60.9-358 144.3-677.3 201.9v55.2c65 11.6 238.5 4.5 442.5-81.9z"
                          fill="#99d6d3"/>
                </g>
                <path d="m138.2 592.7c319.3-57.6 527.4-137.9 677.2-201.9 183.1-78.3 300.3-92.8 301.1-93.9-94.2 6.3-183.2 42.1-304.1 90.8-151.2 60.9-358 144.3-677.3 201.9v55.2c1 .2 3.1-52.1 3.1-52.1z"
                      fill="#bae2df"/>
            </g>
            <path d="m436.8 625.7 4.7-1.7c1.1-.4 2.1-.8 2.9-1.2 0-.1 0-.3 0-.8s-.1-1.8-.8-4.3l-13.2-45.2c-.3-1.1-.6-2.2-.9-3.3-.2-.7-.4-1.4-.5-2.1l-8.4 2.8-5.7-19.4 43.9-12.8 5.1 17.6-4.7 1.7c-1.1.4-2 .8-2.8 1.2s-.1.3-.1.8.1 1.8.8 4.3l13.2 45.1c.3 1.1.6 2.2.9 3.2.2.7.4 1.4.6 2.1l10.3-3.1c3.1-.9 5.1-2.5 6.2-5 1.2-2.8 1-6.9-.5-12.1l-1.5-5.1 18-5.3 10.3 38.6-72.7 21.3z"
                  fill="#65c5c0"/>
            <path d="m445.5 636.6-2.2-7.7c1.3-.5 2.4-.9 3.4-1.4s1.8-1.2 2.3-2 .8-2 .8-3.5-.4-3.4-1.1-5.7l-13.2-45.2c-.3-1.1-.6-2.1-.9-3.2-.3-1-.5-2-.8-3-.2-.9-.4-1.8-.6-2.6s-.3-1.4-.4-2l-8.7 2.9-2.7-9.1 33.8-9.9 2.3 7.8c-1.3.5-2.5.9-3.4 1.4-1 .5-1.7 1.2-2.2 2-.5.9-.8 2-.8 3.5s.4 3.4 1.1 5.7l13.2 45.2c.3 1.1.6 2.1.9 3.1s.5 2 .8 2.9c.2.9.4 1.8.6 2.5.2.8.3 1.4.3 1.9l15.8-4.7c4.6-1.4 7.8-4 9.5-8s1.6-9.2-.3-15.7l7.8-2.3 7.6 28.4z"
                  fill="#fff"/>
            <path d="m561.5 606.3c-4.2 0-8.3-.5-12-1.6-4.2-1.2-8.1-3-11.6-5.3-3.4-2.3-6.5-5-9.2-8-2.6-3-5-6.3-6.9-9.8s-3.5-7.1-4.7-10.7-2-7.4-2.4-11.4-.4-8.1.1-12.1 1.5-8.1 3-12c1.5-4 3.6-7.8 6.2-11.3 2.7-3.5 5.9-6.7 9.7-9.4 3.8-2.8 8.3-5 13.4-6.7 5.2-1.7 10.2-2.6 15-2.7h.8c4.5 0 8.7.6 12.7 1.8 4.2 1.2 8.1 3 11.6 5.4 3.4 2.3 6.6 4.9 9.3 7.9s5.2 6.2 7.1 9.7c2 3.4 3.6 7 4.7 10.5 1.2 3.6 2 7.4 2.4 11.3.4 4 .4 8-.1 12.1-.5 4-1.5 8.1-3 12-1.5 4-3.6 7.8-6.2 11.3s-5.9 6.7-9.7 9.4c-3.8 2.8-8.3 5-13.4 6.7-5.4 1.8-10.5 2.8-15.3 2.9-.5 0-1 0-1.5 0zm-3.9-80.4c-1.6 0-3.4.3-5.3.9-2.1.7-3.8 1.6-5 2.8-1.3 1.2-2.4 2.5-3.1 4.1-.8 1.7-1.4 3.5-1.7 5.5-.3 2.2-.5 4.4-.4 6.7.1 2.4.4 4.8.9 7.1.5 2.4 1.1 4.8 1.9 7.1.7 2.2 1.7 4.6 2.8 6.9s2.4 4.6 3.9 6.7c1.4 2.1 3.1 4 4.8 5.8 1.6 1.6 3.4 2.9 5.2 3.9 1.8.9 3.6 1.5 5.6 1.7.4.1.9.1 1.4.1 1.5 0 3.1-.3 4.7-.8 2-.7 3.6-1.5 4.8-2.7 1.3-1.2 2.3-2.5 3.1-4 .8-1.6 1.4-3.4 1.7-5.4.3-2.1.5-4.3.4-6.6s-.4-4.6-.9-7-1.1-4.7-1.8-6.8c-1.6-4.9-3.5-9.2-5.7-13-2.1-3.6-4.4-6.5-6.9-8.7-2.3-2-4.8-3.3-7.4-4-1-.2-2-.3-3-.3z"
                  fill="#65c5c0"/>
            <path d="m522 569.2c-1.1-3.3-1.8-6.7-2.2-10.3s-.3-7.2.1-10.9c.5-3.6 1.3-7.2 2.7-10.8 1.3-3.5 3.2-6.8 5.5-9.9s5.2-5.9 8.6-8.3c3.4-2.5 7.4-4.4 12-6 4.7-1.6 9.2-2.4 13.4-2.4 4.2-.1 8.2.4 11.9 1.5s7.1 2.7 10.2 4.7c3.1 2.1 5.9 4.4 8.4 7.1s4.6 5.6 6.4 8.7 3.2 6.3 4.3 9.5 1.8 6.6 2.2 10.2.3 7.2-.1 10.9c-.5 3.6-1.3 7.2-2.7 10.8-1.3 3.6-3.2 6.9-5.5 10s-5.2 5.9-8.6 8.3-7.4 4.5-12 6c-4.9 1.6-9.5 2.5-13.8 2.6s-8.3-.3-12-1.4c-3.7-1-7.1-2.6-10.1-4.6-3.1-2-5.8-4.4-8.2-7.1s-4.5-5.7-6.3-8.9c-1.6-3-3.1-6.3-4.2-9.7zm17.9-7.4c.8 2.5 1.8 5 3.1 7.6 1.2 2.6 2.7 5.1 4.3 7.4 1.6 2.4 3.4 4.6 5.5 6.5 2 2 4.2 3.6 6.5 4.8s4.8 2 7.5 2.3 5.5 0 8.4-1c2.7-.9 4.9-2.1 6.7-3.8 1.8-1.6 3.2-3.5 4.2-5.6s1.8-4.4 2.2-6.9.5-5 .4-7.6-.4-5.2-1-7.8c-.5-2.6-1.2-5.1-2-7.5-1.7-5.2-3.8-9.9-6.2-14s-5-7.5-8-10c-3-2.6-6.2-4.3-9.7-5.1s-7.2-.6-11.1.7c-2.8.9-5.1 2.2-6.9 3.8s-3.3 3.5-4.4 5.7-1.8 4.5-2.2 7-.5 5.1-.4 7.7c.1 2.7.4 5.3 1 8 .6 2.8 1.2 5.3 2.1 7.8z"
                  fill="#fff"/>
            <path d="m622.6 514c-.8-.8-1.6-1.7-2.4-2.7-.9-1-1.7-2-2.4-2.9-.3-.4-.5-.7-.8-1.1l-6.8 3-7.1-19 43.7-16.2 6.5 17.5-5.6 2.1c-.9.3-1.5.7-1.9 1 .2.4.6.9 1.2 1.7l20.2 22.1c1.1 1.2 2.2 2.4 3.3 3.5 0-1.3-.3-34.7-.3-35.2l-5.6 2.4-7-19 35.8-13.3 6.4 17.2-4.5 2c-.7.3-1.3.7-1.9 1.2-.4.4-.8.9-1.2 1.6-.4.9-.8 2.1-1 3.5-.3 1.6-.4 3.5-.4 5.7l-.2 73.5-16.1 6z"
                  fill="#65c5c0"/>
            <path d="m663.4 522.9c1.3 1.3 2.4 2.6 3.5 3.7 1 1.2 2.1 2.3 3 3.4 1 1.1 1.9 2.2 2.9 3.3s2 2.3 3.2 3.5h.1c0-2.6 0-5.5-.1-8.6-.1-3.2-.2-6.2-.2-9.2l-.2-27.3c0-.7 0-1.6 0-2.7s0-2.2 0-3.3c0-1.2.1-2.3.2-3.4s.3-2 .6-2.8v-.1l-8.6 3.7-3.3-8.9 25.9-9.6 2.8 7.6c-1.2.5-2.3 1.3-3.3 2.1-1 .9-1.8 2-2.4 3.3s-1.1 2.9-1.4 4.8-.5 4.1-.5 6.6l-.2 69.8-9.4 3.5-49.4-51.9c-.8-.8-1.5-1.6-2.3-2.5s-1.5-1.8-2.2-2.6c-.7-.9-1.3-1.7-1.8-2.5s-.9-1.5-1.1-2.1l-6 2.6-3.3-8.9 33.8-12.6 2.8 7.6-.6.2c-2.1.8-3.6 1.8-4.6 3s-1.2 2.7-.5 4.5c.4 1.1 1.2 2.3 2.4 3.7z"
                  fill="#fff"/>
            <path d="m736.4 524.7 4.5-2.1c1-.5 1.9-1 2.7-1.4.1 0 .1-.3 0-.8s-.3-1.8-1.2-4.2l-17.4-43.7c-.4-1.1-.8-2.1-1.2-3.2-.3-.7-.5-1.4-.7-2l-8.1 3.6-7.5-18.8 66.7-26.5 13.6 31.5-11.6 4.6 9.1 22.8 14.7-5.8 12.9 35.2-69.8 27.8zm31.7-20.3c.4 1.1.8 2.1 1.2 3.1.3.7.5 1.4.8 2.1l10-4c1.2-.5 2.2-1.1 3.2-2 .8-.7 1.5-1.6 1.9-2.6.5-1.1.7-2.5.7-4.2 0-1.1-.2-2.4-.6-3.8l-14.4 5.7-1.9-4.9c-.9-2.3-1.7-3.2-2-3.5-.6-.6-.9-.7-1-.7s-.3 0-.4 0c-.3 0-.6.1-1 .2-.7.2-1.3.4-2.1.7zm-18.6-48.7c0 .1 0 .4.1.9s.3 1.8 1.2 4.1l4.8 12.2 3.4-1.3-4.4-9.6 12.8-5.1c-.8-1.5-1.5-2.4-2-2.9-1-1-2-1.7-3-1.9-.7-.2-1.3-.3-2-.3-.3 0-.7 0-1 .1-1.3.2-2.6.6-3.7 1l-4.1 1.7c-.8.3-1.5.7-2.1 1.1z"
                  fill="#65c5c0"/>
            <path d="m755.8 487.6 7.4 18.7c.4 1 .8 2.1 1.2 3 .4 1 .7 1.9 1 2.8s.6 1.7.8 2.5c.2.7.4 1.4.5 1.9l15.3-6.1c1.7-.7 3.2-1.6 4.7-2.8 1.4-1.2 2.6-2.7 3.4-4.5s1.2-3.9 1.2-6.3-.6-5.2-1.9-8.3l7.5-3 9.3 25.4-60.1 23.9-3-7.5c1.2-.6 2.3-1.2 3.3-1.8.9-.6 1.6-1.3 2.1-2.2.4-.9.6-2.1.4-3.5-.1-1.4-.7-3.3-1.6-5.6l-17.4-43.7c-.4-1-.8-2.1-1.2-3.1s-.7-2-1.1-2.9c-.3-.9-.6-1.8-.8-2.5-.2-.8-.4-1.4-.5-1.9l-8.4 3.7-3.5-8.8 57-22.7 9.5 21.8-7.5 3c-1.2-3.1-2.7-5.4-4.3-7s-3.3-2.6-5.1-3.2c-1.8-.5-3.5-.7-5.3-.4s-3.4.7-5 1.4l-4.1 1.7c-1.2.5-2.2 1.1-3.1 1.6-.9.6-1.5 1.3-1.9 2.3-.4.9-.5 2.1-.3 3.5s.7 3.3 1.6 5.5l6.8 17.1 13.4-5.3-4.4-9.6 8.8-3.5 11 27.7-7.5 3c-.9-2.4-2-4.1-3.1-5.3-1.1-1.1-2.3-1.8-3.6-2.1s-2.6-.2-4 .2-2.9.9-4.4 1.6z"
                  fill="#fff"/>
            <path d="m365.9 946.4 4.9-1c1.1-.2 2-.5 2.9-.7 0-.1.1-.3.1-.6.1-.5.1-1.8-.2-4.2l-6.7-45.3c-.2-1.1-.3-2.2-.5-3.3-.1-.7-.2-1.3-.2-1.9l-8.4 1.6-2.9-19.7 44.3-6.6 2.7 17.9-4.9 1c-1.1.2-2 .5-2.9.8v-.1s-.1.2-.1.7c-.1.5-.1 1.8.2 4.2l6.7 45.3c.2 1.1.3 2.2.5 3.3.1.7.2 1.3.2 1.9l8.4-1.6 2.9 19.7-44.3 6.6z"
                  fill="#65c5c0"/>
            <path d="m395.7 935.1c.2 1.1.3 2.1.4 3.2.1 1 .3 2 .4 3 .1.9.2 1.8.2 2.6.1.8.1 1.4.1 1.9l8.8-1.7 1.4 9.1-33.9 5.1-1.2-7.8c1.3-.3 2.5-.6 3.5-.9s1.9-.9 2.5-1.7 1-1.9 1.2-3.3.1-3.3-.3-5.7l-6.7-45.3c-.2-1.1-.3-2.1-.4-3.2-.1-1-.3-2-.4-3-.1-.9-.2-1.8-.2-2.6-.1-.8-.1-1.4-.1-1.9l-8.8 1.7-1.4-9.1 33.9-5.1 1.2 7.8c-1.3.3-2.5.6-3.5.9s-1.8.9-2.4 1.7-1 1.8-1.2 3.2-.1 3.3.3 5.7z"
                  fill="#fff"/>
            <path d="m419.4 939 4.7-1.6c1-.4 2-.7 2.8-1.1 0-.1 0-.3 0-.6 0-.5-.1-1.7-.7-4.2l-12.4-44c-.3-1.1-.6-2.2-.9-3.2-.2-.6-.3-1.3-.5-1.9l-8.2 2.6-5.3-19.2 25.6-7 48.3 35.4-5.8-21.2c-.3-1.1-.6-2.1-.8-3.2-.2-.6-.3-1.3-.5-1.9l-8.2 2.6-5.3-19.2 36.4-10 4.8 17.5-4.7 1.6c-1.1.4-2 .7-2.8 1.1s-.1.2-.1.7.1 1.8.7 4.2l19 69.2-17.3 4.8-48.1-35.7 5.7 20.4c.3 1.1.6 2.2.9 3.2.2.6.3 1.3.5 1.9l8.2-2.6 5.3 19.2-36.4 10z"
                  fill="#65c5c0"/>
            <path d="m499.1 931.6-9.8 2.7-49.8-36.9c-2.6-2-5.5-4.3-8.7-6.9h-.1l10 35.6c.3 1 .6 2.1.8 3.1.3 1 .5 2 .7 2.9s.4 1.8.5 2.5c.2.8.3 1.4.3 1.9l8.6-2.7 2.4 8.9-26.3 7.2-2.1-7.6c1.3-.4 2.4-.9 3.4-1.3 1-.5 1.7-1.1 2.2-1.9s.8-2 .8-3.4-.3-3.3-.9-5.6l-12.3-44.1c-.3-1-.6-2.1-.8-3.1-.3-1-.5-2-.7-2.9s-.4-1.8-.5-2.5c-.2-.8-.3-1.4-.3-1.9l-8.6 2.7-2.4-8.9 18.1-5 47.4 34.7c2.6 1.9 4.8 3.6 6.6 5.1 1.7 1.4 3.3 2.7 4.5 3.8h.1l-10.2-36.6c-.3-1-.6-2.1-.8-3.1-.3-1-.5-2-.7-2.9s-.4-1.8-.5-2.5c-.2-.8-.3-1.4-.3-1.9l-8.6 2.7-2.4-8.9 26.2-7.2 2.1 7.6c-1.3.4-2.4.9-3.4 1.4s-1.7 1.1-2.2 1.9-.8 2-.8 3.4.3 3.3.9 5.6z"
                  fill="#fff"/>
            <path d="m560.8 894.5 4.7-2c.9-.4 1.8-.8 2.4-1.2.1 0 .1-.2 0-.7 0-.5-.3-1.7-1.2-4.1l-18.9-48.4-.3.1c-2.8 1.1-4.5 2.7-5.3 5-.9 2.6-.4 6.4 1.4 11.1l1.9 4.9-17.2 6.7-12.7-35.4 77-30 14.6 34.7-17.3 6.7-1.9-4.9c-1.8-4.7-4-7.8-6.5-9.3-1.2-.7-2.3-1-3.6-1-1.1 0-2.4.3-3.7.8l-.5.2 18.4 47.3c.4 1.1.8 2.1 1.2 3.1.2.6.5 1.2.7 1.8l8.4-3.6 7.2 18.6-42.3 16.5z"
                  fill="#65c5c0"/>
            <path d="m589.8 807.3 10.5 25-7.3 2.9c-2.3-5.9-5.2-9.9-8.8-11.9s-7.5-2.2-11.8-.5l-5.3 2.1 20.3 52.2c.4 1 .8 2 1.1 3 .4 1 .7 1.9 1 2.8s.6 1.7.8 2.5c.2.7.4 1.4.5 1.9l8.8-3.8 3.3 8.6-32.5 12.7-2.9-7.3c1.2-.5 2.3-1.1 3.2-1.7s1.6-1.3 2-2.2.6-2 .4-3.4c-.1-1.4-.6-3.2-1.5-5.5l-20.8-53.3-5.2 2c-4.2 1.7-7 4.4-8.4 8.2-1.3 3.8-.8 8.7 1.5 14.8l-7.3 2.9-9.2-25.5z"
                  fill="#fff"/>
            <path d="m620.7 871 4.5-2.1c1-.5 1.9-.9 2.6-1.4 0-.1 0-.3 0-.6-.1-.5-.3-1.7-1.2-4l-17.2-42.4c-.4-1-.8-2.1-1.2-3.1-.2-.6-.5-1.2-.7-1.8l-7.8 3.5-7.5-18.5 41.5-16.8 6.8 16.8-4.5 2.1c-1 .5-1.9.9-2.6 1.4v.7c.1.5.3 1.7 1.2 4.1l5.1 12.5 20.7-8.4-4.5-11.2c-.4-1-.8-2.1-1.2-3.1-.2-.6-.5-1.2-.7-1.8l-7.8 3.5-7.5-18.5 41.5-16.8 6.8 16.8-4.5 2.1c-1 .5-1.9.9-2.6 1.4v-.1.7c.1.5.3 1.7 1.2 4l17.2 42.4c.4 1 .8 2.1 1.2 3.1.2.6.5 1.2.7 1.8l7.8-3.5 7.5 18.5-41.5 16.6-6.8-16.8 4.5-2.1c1-.5 1.9-.9 2.6-1.4 0-.1 0-.3 0-.6-.1-.5-.3-1.7-1.2-4l-5.3-13-20.6 8.7 4.7 11.5c.4 1 .8 2.1 1.2 3.1.2.6.5 1.2.7 1.8l7.8-3.5 7.5 18.5-41.5 16.8z"
                  fill="#65c5c0"/>
            <path d="m693.5 834.2 1.2 3c.4 1 .7 1.9 1 2.8s.6 1.7.8 2.5c.2.7.4 1.4.5 1.9l8.2-3.7 3.5 8.5-31.8 12.8-3-7.3c1.2-.6 2.3-1.1 3.2-1.7s1.6-1.3 2-2.2.5-2.1.4-3.5c-.2-1.4-.7-3.2-1.6-5.5l-7.3-17.9-30.3 12.7 6.7 16.4c.4 1 .8 2 1.2 3s.7 1.9 1 2.8.6 1.7.8 2.5c.2.7.4 1.4.5 1.9l8.2-3.7 3.5 8.5-31.8 12.9-3-7.3c1.2-.6 2.3-1.1 3.2-1.7s1.6-1.3 2-2.2.5-2.1.4-3.5c-.2-1.4-.7-3.2-1.6-5.5l-17.2-42.4c-.4-1-.8-2-1.2-3s-.7-1.9-1-2.8-.6-1.7-.8-2.5c-.2-.7-.4-1.4-.5-1.9l-8.2 3.7-3.5-8.5 31.8-12.9 3 7.3c-1.2.6-2.3 1.2-3.2 1.7-.9.6-1.6 1.3-2 2.2s-.6 2-.4 3.4.7 3.2 1.6 5.5l7 17.4 30.5-12.3-6.5-16.1c-.4-1-.8-2-1.2-3s-.7-1.9-1-2.8-.6-1.7-.8-2.5c-.2-.7-.4-1.4-.5-1.9l-8.2 3.7-3.5-8.5 31.8-12.9 3 7.3c-1.2.6-2.3 1.2-3.2 1.7-.9.6-1.6 1.3-2 2.2s-.6 2-.4 3.4.7 3.2 1.6 5.5z"
                  fill="#fff"/>
            <path d="m712.6 833.7 4.5-2c1-.4 1.9-.9 2.6-1.3v.1s0-.2 0-.7-.2-1.7-1.1-4.1l-16.1-42.9c-.4-1.1-.8-2.1-1.1-3.1-.2-.6-.4-1.2-.6-1.8l-7.9 3.3-7-18.7 65.7-24.7 12.8 31.2-11.3 4.3 8.3 22.1 14.4-5.4 12 34.8-68.7 25.8zm31.6-19.1c.4 1.1.8 2.1 1.1 3.1.2.7.4 1.3.7 1.9l9.7-3.7c1.1-.4 2.2-1 3.2-1.8.8-.7 1.4-1.5 1.9-2.5.5-1.1.7-2.4.8-4 0-1-.2-2.2-.5-3.5l-14.1 5.3-1.9-4.9c-.8-2.2-1.5-3.1-1.8-3.4-.4-.4-.7-.6-.9-.6-.1 0-.3 0-.4 0-.3 0-.6 0-.9.1-.6.2-1.2.4-1.9.6zm-17.3-47.6v.7c0 .5.3 1.7 1.1 4l4.4 11.8 3-1.1-4.1-9.5 12.6-4.7c-.7-1.4-1.3-2.2-1.8-2.7-1-1-1.9-1.6-2.8-1.9-.7-.2-1.3-.3-2-.3-.3 0-.6 0-.8.1-1.3.2-2.5.5-3.6.9l-4 1.6c-.8.4-1.5.7-2 1.1z"
                  fill="#65c5c0"/>
            <path d="m732.3 798.1 6.9 18.4c.4 1 .7 2 1.1 3 .3 1 .7 1.9 1 2.8s.5 1.7.8 2.4c.2.7.4 1.3.5 1.9l15-5.7c1.6-.6 3.2-1.5 4.6-2.7s2.5-2.6 3.3-4.4c.8-1.7 1.2-3.8 1.2-6.2s-.5-5.1-1.7-8.1l7.4-2.8 8.6 24.9-59 22.2-2.8-7.3c1.2-.5 2.3-1.1 3.2-1.6.9-.6 1.6-1.3 2.1-2.1.4-.9.6-2 .5-3.4s-.6-3.2-1.4-5.5l-16.1-42.9c-.4-1-.8-2-1.1-3-.4-1-.7-1.9-1-2.8s-.6-1.7-.8-2.5c-.2-.7-.4-1.4-.5-1.9l-8.3 3.5-3.2-8.6 56-21 8.8 21.4-7.4 2.8c-1.1-3-2.5-5.3-4.1-6.9s-3.2-2.6-4.9-3.2-3.4-.7-5.2-.5c-1.7.2-3.4.7-4.9 1.3l-4 1.6c-1.2.5-2.2 1-3 1.5-.9.5-1.5 1.3-1.9 2.2s-.5 2-.4 3.4.6 3.2 1.4 5.4l6.3 16.8 13.2-4.9-4.1-9.5 8.6-3.2 10.2 27.2-7.4 2.8c-.9-2.3-1.9-4.1-2.9-5.2-1.1-1.1-2.2-1.8-3.5-2.1-1.2-.3-2.5-.2-3.9.1-1.4.4-2.8.9-4.3 1.5z"
                  fill="#fff"/>
            <path d="m811.4 796.4 5.1-1.5c.6-.2 1-.4 1.2-.6.5-.5.8-1.2 1.1-2 .4-1.1.6-2.3.7-3.7.2-1.7.3-3.5.5-5.4l4.9-71.5 14.9-4.3 44.8 58.3c.4.5 1 1.3 1.6 2.2s1.2 1.8 1.9 2.8c.5.7.9 1.4 1.4 2.1l7.5-2.6 5.6 19.2-41 11.9-5.1-17.7s5.4-1.6 5.5-1.6c-.1-.2-.2-.5-.4-.8-.4-.8-.9-1.5-1.5-2.4l-1.8-2.5-17.7 5.5s-.3 4.7-.3 4.8l5.6-1.9 5.7 19.5-34.7 10.1zm30-34.9 4.8-1.4-4.4-6.1z"
                  fill="#65c5c0"/>
            <path d="m860.1 770.3-24.8 7.7-.3 5.9c0 .6-.1 1.3-.1 2.2-.1.9-.1 1.8-.2 2.8s-.2 1.9-.3 2.9c-.1.9-.2 1.8-.3 2.5l8.1-2.7 2.7 9.2-24.6 7.1-2.3-7.9c1.6-.5 2.9-1.2 3.7-2.3.9-1 1.6-2.3 2-3.7s.8-3 1-4.8.3-3.6.5-5.5l4.6-67.8 8-2.3 42.6 55.4c.4.5.9 1.2 1.5 2s1.2 1.7 1.8 2.7 1.3 1.9 1.8 2.9c.6 1 1 1.9 1.4 2.7l6.5-2.3 2.6 8.9-30.9 9-2.2-7.6c2.1-.6 3.4-1.4 4-2.5.6-1 .7-2.3.3-3.6-.2-.8-.6-1.6-1.1-2.5s-1.1-1.8-1.8-2.8zm-24.4-1.7 19.1-5.5-9.4-12.9c-1.8-2.5-3.5-5-5.1-7.5s-2.9-4.8-3.9-6.8h-.1c.1 1.4.2 3.5.3 6.2.1 2.8.1 6.1-.1 10.1z"
                  fill="#fff"/>
            <path d="m895.9 773.2 4.8-1.4c1.1-.3 2-.6 2.8-.9 0-.1 0-.3.1-.6 0-.5 0-1.7-.5-4.2l-10-44.7c-.2-1.1-.5-2.2-.7-3.2-.1-.6-.3-1.3-.4-1.9l-8.3 2.2-4.4-19.5 43.8-9.8 3.9 17.7-4.8 1.4c-1.1.3-2 .6-2.8 1v-.1s-.1.2-.1.7 0 1.7.5 4.2l10 44.7c.2 1.1.5 2.2.7 3.2.1.7.3 1.3.4 1.9l8.3-2.2 4.4 19.5-43.8 9.8z"
                  fill="#65c5c0"/>
            <path d="m924.8 759.8c.2 1.1.5 2.1.7 3.1s.4 2 .6 2.9.3 1.8.4 2.6.2 1.4.2 1.9l8.7-2.3 2 9-33.5 7.5-1.7-7.7c1.3-.4 2.4-.7 3.4-1.2 1-.4 1.8-1 2.3-1.8.6-.8.9-1.9 1-3.4.1-1.4-.1-3.3-.7-5.6l-10-44.7c-.2-1.1-.5-2.1-.7-3.1s-.4-2-.6-2.9-.3-1.8-.4-2.6-.2-1.4-.2-1.9l-8.7 2.3-2-9 33.5-7.5 1.7 7.7c-1.3.4-2.5.8-3.4 1.2-1 .4-1.8 1-2.3 1.8-.6.8-.9 1.9-1 3.3s.1 3.3.7 5.6z"
                  fill="#fff"/>
            <path d="m943.3 762 4.9-1c1.1-.2 2-.5 2.9-.7 0-.1.1-.3.1-.6.1-.5.1-1.7-.2-4.2l-6.7-45.3c-.2-1.1-.3-2.2-.5-3.3-.1-.7-.2-1.3-.2-1.9l-8.4 1.6-2.9-19.7 38.8-6c4.2-.6 8.1-.9 11.8-.9 1.2 0 2.3 0 3.4.1 4.9.3 9.3 1.3 13.2 3.1 4.1 1.9 7.4 4.7 10 8.3 2.5 3.5 4.2 8.1 5 13.4.5 3.1.5 6.4-.1 9.5-.6 3.2-1.8 6.2-3.5 9.1-1.7 2.8-4 5.3-6.7 7.7-.5.4-1.1.9-1.7 1.3 1 .9 1.9 1.8 2.8 2.7l6.8 7.5c1.5 1.7 2.9 3.1 4 4.3 1 1 1.9 1.8 2.7 2.3.6.4 1.1.7 1.7.8.3.1.6.1 1 .1.3 0 .6 0 .8-.1l5.1-.6 2.7 18.1-26.3 3.9-1.5-.8c-2-1.1-4.1-2.6-6.2-4.7-1.8-1.8-3.8-4-5.8-6.4l-.8-.9 2.2 14.6-45.5 6.7zm34.9-12c.3 1.8.5 3.6.7 5.3l6.6-1.2-6.2-7.4c-.7-.8-1.3-1.5-1.9-2.1zm-7-49.4c-.1.4-.1 1.5.2 3.5l2.9 19.4c.2 0 .4-.1.6-.1 2.7-.4 5-1 6.7-1.8 1.4-.7 2.5-1.5 3.2-2.5s1.2-2.2 1.5-3.7c.3-1.8.2-4-.1-6.4-.3-2-.7-3.6-1.3-4.8-.6-1.1-1.2-2.1-1.8-2.7s-1.3-1-1.9-1.3c-.9-.4-1.8-.6-2.6-.7-.7-.1-1.3-.2-1.9-.2h-.6c-.9.1-1.7.1-2.4.2-.9.1-1.6.3-2.2.5-.2.1-.2.3-.3.6z"
                  fill="#65c5c0"/>
            <path d="m1007.9 746.2c1.6 1.8 3 3.3 4.3 4.5 1.2 1.2 2.4 2.2 3.5 3 1.1.7 2.2 1.2 3.3 1.5s2.4.3 3.7.2l1.2 7.8-19.4 2.9c-1.5-.8-3.2-2-4.9-3.8-1.7-1.7-3.5-3.7-5.5-6.1l-10.7-12.9c-1.2-1.5-2.3-2.7-3.3-3.6-1-1-1.9-1.8-2.7-2.6-.6.1-1.2.2-1.7.3s-1 .1-1.5.2-.9.1-1.4.2-1 .1-1.6.2l1.9 12.7c.3 2.2.6 4.2.8 6.2s.3 3.5.3 4.5l10-1.8 1.3 9.1-35.1 5.2-1.2-7.8c1.3-.3 2.5-.6 3.5-.9s1.9-.9 2.5-1.7 1-1.9 1.2-3.3.1-3.3-.3-5.7l-6.7-45.3c-.2-1.1-.3-2.1-.4-3.2-.1-1-.3-2-.4-3-.1-.9-.2-1.8-.2-2.6-.1-.8-.1-1.4-.1-1.9l-8.8 1.7-1.3-9.1 33.6-5.2c5.1-.8 9.8-1 14.1-.8s8 1.1 11.3 2.6c3.2 1.5 5.9 3.7 7.9 6.6s3.4 6.6 4.1 11.1c.4 2.6.4 5.2-.1 7.8s-1.4 5-2.8 7.3-3.3 4.4-5.7 6.4-5.2 3.8-8.6 5.3v.1c1.5.4 3.2 1.1 4.8 2.3 1.7 1.2 3.1 2.5 4.4 3.9zm-32.3-17.5c3.3-.5 6-1.3 8.2-2.3 2.2-1.1 3.9-2.4 5.2-4.1 1.2-1.7 2-3.7 2.4-6s.3-5-.1-8c-.4-2.5-1-4.7-1.8-6.4s-1.8-3.1-2.9-4.1c-1.1-1.1-2.3-1.8-3.6-2.4-1.3-.5-2.5-.9-3.8-1.1s-2.4-.3-3.5-.2-2.1.2-2.9.3c-1.3.2-2.4.5-3.3.8-1 .3-1.7.9-2.3 1.6-.6.8-1 1.8-1.1 3.1-.2 1.3-.1 3 .2 5l3.6 24.2c.9 0 1.9-.1 2.9-.1.8-.1 1.8-.2 2.8-.3z"
                  fill="#fff"/>
            <path d="m618.3 743.7-20.2 6.2-9-101.7c-10.7 8.8-14.9 21.6-10.2 36.7 2.2 7.2 4.4 7.7 4.9 8.9-9.7 3-16.1 1.1-19.2-9-5.8-18.7 14.6-44.5 38.1-51.7 2-.6 3.8-1 5.7-1.5z"
                  fill="#fff"/>
            <g fill="#eae7e8">
                <path d="m572 684.9c2.2 7.2 4.4 7.7 4.9 8.9-1.2.4-2.4.7-3.6.9 2.9.7 6.3.3 10.4-.9-.5-1.2-2.7-1.8-4.9-8.9-4.6-15-.4-27.9 10.2-36.7-10.6 8.9-21.6 21.7-17 36.7z"/>
                <path d="m608.3 631.7c-1.9.4-3.7.8-5.7 1.5-.3.1-.6.2-.9.3l9.8 110.2-13.6 4.2.2 2 20.2-6.2z"/>
            </g>
            <path d="m679.6 643.5c-2.5.8-4.9.6-7.4-1 3.1-3.4 4-9.4 2.6-14-1.5-4.9-5.6-8.6-13.3-6.2s-11.6 8.3-9 16.8c6.4 20.7 38.8 13.7 48.2 44.1 7.3 23.6-8.3 41-28.7 47.3-16 4.9-31.9 2.1-37.2-15-4.7-15.2 3.7-26.4 13.6-29.4 4.9-1.5 12.5-1.7 15.2 5.5-7.6 2.3-15.4 8.6-12.4 18.3 2.2 7 8.6 12.1 17.6 9.3 9.4-2.9 14.2-11.9 10.5-23.7-7.4-24-38.8-23.7-45.2-44.4-4.5-14.6 6.6-29.6 24.7-35.1 6.6-2 23.1-5.6 27.8 9.9 2.6 8 0 15.4-7 17.6z"
                  fill="#fff"/>
            <g fill="#eae7e8">
                <path d="m678.5 625.7c2.3 7.5.2 14.4-5.7 17.1 2.2 1.2 4.4 1.3 6.7.6 7-2.2 9.7-9.6 7.2-17.7-3.5-11.4-13.4-12.5-21-11.4 5.4.9 10.5 3.9 12.8 11.4z"/>
                <path d="m651.2 709.7c-3-9.7 4.8-15.9 12.4-18.3-2.5-6.7-9.3-7-14.2-5.7 2.5.8 4.8 2.5 6 5.7-7.6 2.3-15.4 8.6-12.4 18.3 2.1 6.8 8.3 11.8 17 9.5-4.4-1.4-7.4-5-8.8-9.5z"/>
                <path d="m700.7 683.1c-9.3-30.3-41.8-23.4-48.2-44.1-2.6-8.4 1.3-14.4 8.9-16.7-2.1-.9-4.7-1.1-8.1 0-7.7 2.4-11.6 8.3-9 16.8 6.4 20.7 38.8 13.7 48.2 44.1 7.3 23.6-8.3 41-28.7 47.3-3.1 1-6.2 1.6-9.2 1.9 5.4.7 11.4-.1 17.4-1.9 20.4-6.4 36-23.8 28.7-47.4z"/>
            </g>
            <path d="m888 465.5c-10.2-.3-34.9-3-44-22.1-2.7-5.8-3-12.5-.8-18.5 2.2-5.8 6.5-10.3 12.1-12.7 2.8-1.2 5.8-1.8 8.9-1.8 3 0 6 .6 8.7 1.8 2.6-5.5 7.3-9.8 13.1-11.8 2.3-.8 4.8-1.2 7.2-1.2 10 0 19.1 6.9 22.1 16.7 7.1 23.5-11.7 40.5-17.9 46.1-2.6 2.3-5.8 3.6-9.1 3.6z"
                  fill="#65c5c0"/>
            <path d="m887.8 405.4c-6.1 2.1-10.3 7.3-11.4 13.2-.1.8-1.1 1.1-1.7.6-4.8-3.6-11.3-4.6-17.3-2.1-9.2 3.9-12.9 15-8.6 24.1 7.9 16.6 30.8 18.9 39.4 19.1 2.1.1 4.2-.8 5.8-2.2 10.3-9.3 21.7-23 16.4-40.6-3-9.7-13.1-15.4-22.6-12.1z"
                  fill="#fff"/>
            <path d="m337.1 660c-10.2-.3-34.9-3-44-22.1-2.7-5.8-3-12.5-.8-18.5 2.2-5.8 6.5-10.3 12.1-12.7 2.8-1.2 5.8-1.8 8.9-1.8 3 0 6 .6 8.7 1.8 2.6-5.5 7.3-9.8 13.1-11.8 2.3-.8 4.8-1.2 7.2-1.2 10 0 19.1 6.9 22.1 16.7 7.1 23.5-11.7 40.5-17.9 46.1-2.6 2.3-5.8 3.6-9.1 3.6z"
                  fill="#65c5c0"/>
            <path d="m336.9 599.8c-6.1 2.1-10.3 7.3-11.4 13.2-.1.8-1.1 1.1-1.7.6-4.8-3.6-11.3-4.6-17.3-2.1-9.2 3.9-12.9 15-8.6 24.1 7.9 16.6 30.8 18.9 39.4 19.1 2.1.1 4.2-.8 5.8-2.2 10.3-9.3 21.7-23 16.4-40.6-3-9.7-13.1-15.4-22.6-12.1z"
                  fill="#fff"/>
        </g>
    </g>
</svg>