<?xml version="1.0" encoding="iso-8859-1"?>
<!-- Generator: Adobe Illustrator 27.7.0, SVG Export Plug-In . SVG Version: 6.00 Build 0)  -->
<svg xmlns="http://www.w3.org/2000/svg" xmlns:xlink="http://www.w3.org/1999/xlink" version="1.1" id="Layer_1" x="0px" y="0px" viewBox="0 0 512 512" style="enable-background:new 0 0 512 512;" xml:space="preserve">
<g>
	<g>
		<g>
			<path style="fill:#FDFDFF;" d="M494.324,178.296c0,0,2.093,6.182,0.722,7.411c-1.37,1.229-15.72,5.577-16.337,4.509     c-0.616-1.067-2.716-8.778-2.716-8.778L494.324,178.296z"/>
			<path style="fill:#261D2A;" d="M479.272,191.422c-0.162,0-0.303-0.008-0.421-0.027c-0.609-0.098-0.906-0.411-1.047-0.656     c-0.652-1.13-2.463-7.718-2.82-9.025c-0.078-0.286-0.032-0.59,0.128-0.838c0.158-0.249,0.414-0.419,0.705-0.47l18.331-3.143     c0.506-0.078,1.002,0.208,1.168,0.697c0.696,2.054,2.13,6.998,0.43,8.525C494.315,187.769,482.542,191.422,479.272,191.422z      M479.462,189.351c0.002,0,0.004,0,0.006,0c2.525,0,13.713-3.463,14.883-4.426c0.346-0.48-0.001-2.955-0.748-5.443l-16.296,2.793     C478.135,185.248,479.039,188.27,479.462,189.351z"/>
		</g>
		<path style="fill:#C45041;" d="M494.531,157.045c0,0,13.751-1.593,17.12,15.896c2.297,11.927-7.256,1.18-13.135,2.66    C492.637,177.081,494.531,157.045,494.531,157.045z"/>
		<path style="fill:#C45041;" d="M464.915,165.284c0,0-11.891,7.088-3.944,23.026c5.42,10.87,6.481-3.47,12.05-5.865    C478.59,180.049,464.915,165.284,464.915,165.284z"/>
		<g>
			<path style="fill:#FDFDFF;" d="M500.577,178.322c0,0-24.636,8.238-28.842,7.875c-4.206-0.363-11.791-37.094,1.249-43.805     C490.729,133.261,502.556,176.632,500.577,178.322z"/>
			<path style="fill:#261D2A;" d="M471.989,187.254c-0.125,0-0.239-0.004-0.343-0.014c-2.986-0.257-4.957-8.643-5.666-12.235     c-2.007-10.178-2.891-28.696,6.525-33.541c6.592-3.394,13.197-0.527,19.108,8.28c5.526,8.23,12.22,27.172,9.643,29.375     c-0.102,0.088-0.22,0.155-0.347,0.198C498.427,180.145,477.017,187.254,471.989,187.254z M477.895,142.168     c-1.464,0-2.937,0.386-4.432,1.155c-4.716,2.427-7.146,10.076-6.668,20.983c0.484,11.05,3.631,20.268,5.084,20.86     c2.862,0.198,18.036-4.397,27.878-7.673c0.231-3.361-5.47-24.501-14.924-32.415C482.511,143.137,480.214,142.168,477.895,142.168     z M500.577,178.323h0.02H500.577z M499.711,177.777L499.711,177.777L499.711,177.777z"/>
		</g>
		<path style="fill:#C45041;" d="M464.627,158.903c0,0,26.393-6.505,27.686-7.964c1.293-1.458-10.866-16.005-18.435-13.442    C464.033,140.829,464.543,157.145,464.627,158.903z"/>
		<g>
			<path style="fill:#FDFDFF;" d="M473.809,169.929c1.541,4.552,6.48,6.993,11.032,5.452c4.552-1.541,6.993-6.48,5.452-11.032     c-1.541-4.552-6.48-6.993-11.032-5.452C474.709,160.438,472.268,165.377,473.809,169.929z"/>
			<path style="fill:#261D2A;" d="M482.043,176.892c-1.478,0-2.947-0.339-4.311-1.014c-2.335-1.154-4.079-3.149-4.914-5.615     c-1.723-5.092,1.018-10.635,6.108-12.358c2.466-0.834,5.109-0.658,7.444,0.494c2.334,1.152,4.079,3.147,4.914,5.613     c1.723,5.09-1.017,10.635-6.107,12.36C484.152,176.721,483.095,176.892,482.043,176.892z M482.058,159.479     c-0.827,0-1.656,0.135-2.462,0.409c-3.998,1.353-6.15,5.707-4.797,9.706c0.656,1.937,2.026,3.502,3.86,4.41     c1.834,0.905,3.909,1.042,5.847,0.388c3.997-1.355,6.148-5.709,4.796-9.708c-0.656-1.937-2.026-3.502-3.859-4.407     C484.372,159.747,483.218,159.479,482.058,159.479z"/>
		</g>
		<path style="fill:#C45041;" d="M484.68,192.023c0,0-6.037,0.257-6.15,8.972c-0.112,8.715,16.066,19.57,17.817,17.957    c1.751-1.613,11.789-12.667,7.544-21.438C499.647,188.743,495.596,188.838,484.68,192.023z"/>
		<path style="fill:#E8C01B;" d="M487.431,193.524c0,0-3.106,0.132-3.163,4.615c-0.058,4.483,8.265,10.067,9.165,9.237    c0.9-0.83,6.064-6.516,3.881-11.028C495.13,191.837,493.046,191.886,487.431,193.524z"/>
		<g>
			<path style="fill:#FDFDFF;" d="M480.646,162.766c0,0-4.738,0.328-3.874,5.139"/>
			<path style="fill:#261D2A;" d="M476.77,168.952c-0.497,0-0.938-0.356-1.029-0.862c-0.314-1.747-0.024-3.208,0.859-4.342     c1.425-1.829,3.869-2.017,3.972-2.025c0.567-0.039,1.077,0.396,1.117,0.973c0.039,0.574-0.393,1.073-0.967,1.116l0,0     c-0.016,0-1.638,0.141-2.48,1.232c-0.496,0.644-0.646,1.545-0.442,2.679c0.102,0.568-0.277,1.112-0.845,1.214     C476.894,168.946,476.832,168.952,476.77,168.952z"/>
		</g>
		<path style="fill:#261D2A;" d="M469.661,152.475c-0.543,0-1.003-0.421-1.042-0.973c-0.441-6.177,4.454-10.558,4.663-10.74    c0.433-0.382,1.091-0.337,1.474,0.092c0.382,0.433,0.34,1.095-0.091,1.477c-0.044,0.039-4.325,3.895-3.96,9.023    c0.042,0.576-0.392,1.077-0.968,1.118C469.712,152.475,469.686,152.475,469.661,152.475z"/>
	</g>
	<g>
		<g>
			<path style="fill:#FDFDFF;" d="M34.597,361.829c0,0-2.743-5.922-1.513-7.291s15.032-7.23,15.759-6.235     c0.727,0.995,3.642,8.436,3.642,8.436L34.597,361.829z"/>
			<path style="fill:#261D2A;" d="M34.596,362.875c-0.399,0-0.774-0.229-0.949-0.607c-1.133-2.444-2.814-6.792-1.342-8.429     c1.352-1.502,13.747-6.925,16.272-6.694c0.615,0.031,0.943,0.31,1.111,0.539c0.768,1.05,3.277,7.409,3.771,8.672     c0.108,0.276,0.095,0.582-0.037,0.846c-0.131,0.266-0.367,0.462-0.651,0.541l-17.888,5.09     C34.788,362.863,34.691,362.875,34.596,362.875z M48.187,349.244c-2.497,0.264-13.266,4.914-14.329,5.997     c-0.292,0.515,0.319,2.938,1.328,5.333l15.901-4.526C49.947,353.18,48.723,350.272,48.187,349.244z"/>
		</g>
		<path style="fill:#C45041;" d="M36.67,382.979c0,0-13.501,3.058-18.725-13.968c-3.563-11.612,7.088-1.952,12.774-4.053    C36.404,362.856,36.67,382.979,36.67,382.979z"/>
		<path style="fill:#C45041;" d="M65.231,371.612c0,0,11.063-8.322,1.452-23.316c-6.554-10.226-6.072,4.145-11.352,7.124    C50.052,358.398,65.231,371.612,65.231,371.612z"/>
		<g>
			<path style="fill:#FDFDFF;" d="M28.377,362.473c0,0,23.611-10.832,27.831-10.923c4.22-0.09,15.701,35.616,3.456,43.686     C43,406.219,26.59,364.366,28.377,362.473z"/>
			<path style="fill:#261D2A;" d="M53.916,398.122c-4.396,0-8.993-2.756-13.566-8.2c-6.376-7.591-15.059-25.703-12.735-28.167     c0.092-0.098,0.202-0.178,0.325-0.233c2.437-1.118,23.932-10.926,28.245-11.017c0.012,0,0.024,0,0.036,0     c2.983,0,5.823,8.073,6.909,11.555c3.087,9.904,5.954,28.22-2.89,34.05C58.198,397.454,56.081,398.122,53.916,398.122z      M29.282,363.208c0.131,3.369,8.064,23.772,18.314,30.627c4.103,2.742,7.863,2.916,11.492,0.527     c4.428-2.918,6.024-10.783,4.38-21.575c-1.666-10.934-5.783-19.761-7.292-20.194C53.34,352.659,38.717,358.895,29.282,363.208z"/>
		</g>
		<path style="fill:#C45041;" d="M66.202,377.926c0,0-25.544,9.298-26.673,10.887c-1.129,1.589,12.519,14.747,19.77,11.388    C68.73,395.831,66.474,379.664,66.202,377.926z"/>
		<g>
			<path style="fill:#FDFDFF;" d="M55.891,367.947c-2.02-4.361-7.193-6.258-11.554-4.238c-4.361,2.02-6.258,7.193-4.238,11.554     c2.02,4.361,7.193,6.258,11.553,4.238C56.014,377.48,57.911,372.308,55.891,367.947z"/>
			<path style="fill:#261D2A;" d="M48,381.357c-1.132,0-2.267-0.198-3.361-0.601c-2.445-0.897-4.393-2.691-5.487-5.055     c-2.26-4.875-0.131-10.68,4.746-12.942c4.882-2.256,10.686-0.129,12.943,4.749c1.094,2.362,1.203,5.01,0.306,7.454     c-0.896,2.446-2.691,4.393-5.054,5.488C50.788,381.055,49.396,381.357,48,381.357z M47.983,363.95     c-1.076,0-2.168,0.227-3.207,0.709c-1.855,0.858-3.264,2.391-3.968,4.309s-0.619,3.999,0.241,5.854     c0.859,1.855,2.39,3.265,4.309,3.97c1.918,0.703,3.998,0.619,5.854-0.243c1.856-0.858,3.265-2.389,3.969-4.309     c0.705-1.919,0.619-3.999-0.24-5.854C53.648,365.595,50.876,363.95,47.983,363.95z"/>
		</g>
		<path style="fill:#C45041;" d="M42.713,347.146c0,0,5.975-0.903,5.152-9.579c-0.823-8.676-18.072-17.734-19.64-15.942    c-1.568,1.792-10.363,13.858-5.202,22.123C28.184,352.012,32.201,351.483,42.713,347.146z"/>
		<path style="fill:#E8C01B;" d="M39.817,345.949c0,0,3.074-0.465,2.65-4.928c-0.423-4.463-9.296-9.122-10.103-8.201    c-0.806,0.922-5.33,7.129-2.676,11.38C32.343,348.452,34.41,348.18,39.817,345.949z"/>
		<g>
			<path style="fill:#FDFDFF;" d="M49.861,375.802c0,0,4.675-0.834,3.301-5.525"/>
			<path style="fill:#261D2A;" d="M49.86,376.847c-0.498,0-0.939-0.355-1.029-0.862c-0.101-0.568,0.275-1.109,0.841-1.214l0,0     c0.016-0.002,1.613-0.317,2.333-1.492c0.425-0.695,0.476-1.606,0.152-2.71c-0.162-0.554,0.155-1.136,0.71-1.298     c0.557-0.161,1.137,0.157,1.299,0.709c0.499,1.704,0.368,3.188-0.389,4.409c-1.221,1.972-3.63,2.421-3.732,2.44     C49.983,376.841,49.92,376.847,49.86,376.847z"/>
		</g>
		<path style="fill:#261D2A;" d="M58.771,397.229c-0.252,0-0.505-0.092-0.706-0.274c-0.426-0.39-0.456-1.05-0.067-1.477    c0.039-0.043,3.883-4.338,2.97-9.395c-0.102-0.568,0.276-1.114,0.844-1.216c0.575-0.098,1.113,0.278,1.216,0.844    c1.1,6.095-3.299,10.975-3.486,11.179C59.335,397.115,59.053,397.229,58.771,397.229z"/>
	</g>
	<path style="fill:#E8C01B;" d="M476.843,81.763c0,0-6.061-16.235-3.031-14.937c3.031,1.299,12.828,6.246,12.828,6.246   s10.551-7.305,11.201-6.32c0.649,0.985-0.866,14.361-0.866,14.361s12.988,6.927,10.607,8.442   c-2.381,1.515-14.287,2.814-14.287,2.814s-4.518,16.668-6.655,14.99c-3.259-2.56-6.117-12.825-6.117-12.825   s-13.657-0.216-13.224-2.381C467.732,89.989,476.843,81.763,476.843,81.763z"/>
	<path style="fill:#E8C01B;" d="M62.93,437.224c0,0-6.061-16.235-3.031-14.937c3.031,1.299,12.828,6.246,12.828,6.246   s10.551-7.305,11.201-6.32c0.649,0.985-0.866,14.361-0.866,14.361s12.988,6.927,10.607,8.442   c-2.381,1.515-14.287,2.814-14.287,2.814s-4.518,16.668-6.655,14.99c-3.259-2.56-6.117-12.825-6.117-12.825   s-13.657-0.216-13.224-2.381C53.819,445.45,62.93,437.224,62.93,437.224z"/>
	<path style="fill:#261D2A;" d="M41.244,70.447h-0.006l-4.047-0.014l4.288-2.907c0.478-0.325,0.603-0.975,0.278-1.453   c-0.327-0.48-0.981-0.599-1.453-0.279l-5.784,3.922l0.128-6.758c0.012-0.578-0.448-1.054-1.026-1.066l-0.006,0   c-0.574-0.007-1.048,0.45-1.06,1.026l-0.113,5.964l-3.538-3.837c-0.393-0.422-1.053-0.453-1.479-0.06   c-0.424,0.391-0.451,1.055-0.06,1.479l3.64,3.948l-6.703-0.023c-0.578-0.001-1.048,0.465-1.05,1.043   c-0.001,0.574,0.458,1.042,1.033,1.049l0.01,0l6.115,0.022l-4.778,3.239c-0.478,0.325-0.603,0.975-0.279,1.453   c0.201,0.295,0.523,0.454,0.852,0.459c0.208,0.003,0.418-0.056,0.601-0.18l5.543-3.758l-0.129,6.808   c-0.012,0.578,0.448,1.054,1.026,1.066l0.006,0c0.574,0.007,1.048-0.45,1.06-1.026l0.122-6.43l3.771,4.09   c0.204,0.219,0.478,0.333,0.756,0.337c0.257,0.003,0.518-0.087,0.723-0.277c0.424-0.391,0.451-1.055,0.06-1.479l-3.949-4.283   l5.435,0.019c0.578,0.001,1.048-0.465,1.05-1.043C42.282,70.922,41.822,70.455,41.244,70.447z"/>
	<path style="fill:#261D2A;" d="M21.19,132.988c-0.772,0-1.506,0-3.545-8.118c-6.878-1.325-7.481-2.133-7.683-2.405   c-0.196-0.261-0.28-0.74-0.19-1.052c0.125-0.44,0.413-1.462,8.273-4.631c2.824-7.36,3.78-7.36,4.418-7.36   c0.329,0,0.785,0.237,0.983,0.502c0.505,0.679,0.962,2.441,1.655,5.261c0.219,0.884,0.48,1.949,0.631,2.419   c0.413,0.184,1.324,0.51,2.08,0.782c4.042,1.449,5.084,1.942,5.272,2.907c0.072,0.362-0.112,0.889-0.386,1.135   c-0.821,0.738-4.728,2.187-6.778,2.917c-3.329,7.574-4.04,7.61-4.669,7.644C21.233,132.988,21.208,132.988,21.19,132.988z    M12.622,121.564c1.375,0.396,3.882,0.965,6.069,1.373c0.403,0.076,0.725,0.38,0.824,0.779c0.56,2.266,1.291,4.848,1.816,6.32   c0.762-1.371,1.917-3.8,2.854-5.946c0.116-0.267,0.337-0.473,0.611-0.569c1.87-0.657,3.978-1.465,5.294-2.04   c-0.921-0.387-2.174-0.837-2.985-1.128c-2.309-0.828-2.744-1.006-3.04-1.406c-0.26-0.347-0.421-0.929-0.995-3.264   c-0.217-0.878-0.548-2.223-0.842-3.23c-0.684,1.308-1.643,3.532-2.389,5.501c-0.104,0.274-0.319,0.493-0.59,0.601   C16.821,119.522,14.067,120.757,12.622,121.564z"/>
	<path style="fill:#261D2A;" d="M437.125,220.393c-0.772,0-1.506,0-3.545-8.118c-6.878-1.325-7.481-2.133-7.683-2.405   c-0.196-0.261-0.28-0.74-0.19-1.052c0.125-0.44,0.413-1.462,8.273-4.631c2.824-7.36,3.78-7.36,4.418-7.36   c0.329,0,0.785,0.237,0.983,0.502c0.505,0.679,0.962,2.441,1.655,5.261c0.219,0.884,0.48,1.949,0.631,2.419   c0.413,0.184,1.324,0.51,2.08,0.782c4.042,1.449,5.084,1.942,5.272,2.907c0.072,0.362-0.112,0.889-0.386,1.135   c-0.821,0.738-4.728,2.187-6.778,2.917c-3.328,7.574-4.04,7.61-4.669,7.644C437.168,220.393,437.144,220.393,437.125,220.393z    M428.558,208.97c1.375,0.396,3.882,0.965,6.069,1.373c0.402,0.076,0.725,0.38,0.823,0.779c0.56,2.266,1.291,4.848,1.817,6.32   c0.762-1.371,1.917-3.8,2.855-5.946c0.116-0.267,0.337-0.473,0.611-0.569c1.87-0.657,3.978-1.465,5.294-2.04   c-0.922-0.387-2.174-0.837-2.985-1.128c-2.309-0.828-2.744-1.006-3.04-1.406c-0.26-0.347-0.421-0.929-0.995-3.264   c-0.217-0.878-0.548-2.223-0.842-3.23c-0.684,1.308-1.643,3.532-2.389,5.501c-0.104,0.274-0.319,0.492-0.59,0.601   C432.757,206.927,430.002,208.163,428.558,208.97z"/>
	<g>
		<path style="fill:#FDFDFF;" d="M448.451,433.186c0,0-1.775-15.695,12.69-10.445c14.464,5.251,9.533,19.54,4.059,14.561    c-5.474-4.978,5.15-21.502,16.17-13.949c11.02,7.553,8.336,21.91,0.433,22.874c-7.903,0.964,5.005-16.694,14.792-5.568    c9.787,11.125-12.184,30.915-20.957,23.43c-8.772-7.485-1.666-19.302,0.364-12.021c2.029,7.281-3.808,14.323-19.542,13.847    c-15.734-0.476-8.227-25.516-2.826-18.134c5.401,7.383-3.844,15.525-14.828,6.771C427.822,445.797,440.73,428.14,448.451,433.186z    "/>
		<path style="fill:#261D2A;" d="M457.906,466.984c-0.486,0-0.978-0.008-1.478-0.022c-5.177-0.157-8.779-2.94-10-7.679    c-2.511-0.366-5.337-1.571-8.274-3.913c-6.535-5.208-5.347-13.341-1.478-18.692c3.069-4.246,7.22-6.187,10.658-5.153    c0.013-2.477,0.496-6.91,3.54-9.309c2.486-1.96,6.061-2.115,10.624-0.456c2.16,0.783,3.863,1.735,5.206,2.752    c3.506-3.688,9.249-6.142,15.257-2.021c5.582,3.825,7.634,9.034,7.779,13.433c2.351,0.096,5.043,1.093,7.64,4.046    c5.661,6.434,1.663,14.816-3.481,20.037c-5.595,5.68-13.898,9.177-18.941,4.879c-0.691-0.591-1.296-1.21-1.82-1.851    C469.723,465.611,464.466,466.984,457.906,466.984z M448.637,459.395c0.861,2.65,2.951,5.327,7.854,5.474    c6.834,0.204,12.198-1.042,15.453-3.549c-1.964-3.367-2.025-7.031-0.954-9.708c0.747-1.863,1.988-2.951,3.271-2.869    c0.88,0.047,2.071,0.615,2.747,3.045c0.925,3.314,0.326,6.555-1.688,9.123c-0.195,0.251-0.405,0.495-0.625,0.729    c0.456,0.562,0.992,1.116,1.621,1.653c4.024,3.433,11.295,0.112,16.092-4.755c4.513-4.583,8.111-11.833,3.4-17.188    c-2.099-2.387-4.242-3.237-6.144-3.328c-0.066,0.619-0.171,1.21-0.307,1.767c-1.022,4.177-3.868,7.043-7.428,7.477    c-2.542,0.298-3.284-1.054-3.484-1.653c-0.751-2.258,1.775-6.065,5.405-8.151c0.841-0.484,2.177-1.114,3.804-1.396    c-0.106-3.845-1.908-8.445-6.876-11.851c-4.887-3.347-9.499-1.473-12.501,1.676c2.909,2.951,3.355,6.099,3.41,7.317    c0.124,2.712-0.957,5.008-2.752,5.852c-1.405,0.66-3.027,0.302-4.439-0.983c-3.1-2.82-1.893-8.124,0.869-11.951    c-1.174-0.879-2.672-1.708-4.581-2.401c-3.838-1.391-6.734-1.347-8.611,0.129c-3.368,2.65-2.689,9.15-2.682,9.215    c0.044,0.402-0.147,0.795-0.492,1.007c-0.345,0.212-0.781,0.206-1.12-0.014c-3.142-2.06-7.13,0.554-9.509,3.841    c-3.305,4.573-4.375,11.477,1.087,15.832c2.359,1.88,4.6,2.934,6.593,3.359c-0.468-4.916,1.413-10.229,4.233-11.459    c0.703-0.305,2.516-0.766,4.195,1.528c2.488,3.398,2.358,7.411-0.324,9.986C452.814,458.435,450.91,459.279,448.637,459.395z     M474.142,450.832c-0.202,0-0.771,0.462-1.21,1.557c-0.634,1.588-0.961,4.495,0.572,7.444c0.058-0.069,0.114-0.139,0.17-0.21    c1.615-2.062,2.072-4.577,1.32-7.272c-0.342-1.228-0.76-1.512-0.846-1.518C474.146,450.832,474.143,450.832,474.142,450.832z     M451.493,447.466c-0.17,0-0.295,0.053-0.375,0.088c-1.67,0.73-3.52,5.268-2.939,9.767c1.897-0.016,3.458-0.656,4.526-1.682    c1.921-1.843,1.954-4.685,0.085-7.242C452.232,447.638,451.795,447.466,451.493,447.466z M487.532,438.22    c-1.04,0.241-1.943,0.656-2.64,1.056c-3.132,1.8-4.767,4.757-4.462,5.674c0.121,0.358,1.06,0.262,1.245,0.239    c2.676-0.327,4.84-2.587,5.649-5.897C487.409,438.95,487.478,438.592,487.532,438.22z M466.939,427.522    c-2.435,3.445-2.913,7.299-1.035,9.007c0.544,0.492,1.354,1.005,2.142,0.638c0.814-0.384,1.647-1.755,1.551-3.862    C469.553,432.34,469.2,429.904,466.939,427.522z"/>
	</g>
	<path style="fill:#261D2A;" d="M341.111,208.304l-0.023-0.018c-3.043-2.359-3.598-6.754-1.238-9.799   c2.35-3.031,6.734-3.594,9.774-1.257c1.498,1.162,2.44,2.811,2.673,4.663c0.233,1.849-0.267,3.681-1.409,5.154   C348.536,210.076,344.15,210.64,341.111,208.304z M348.41,198.844c-2.179-1.675-5.294-1.273-6.963,0.88   c-1.678,2.163-1.283,5.288,0.878,6.965l0.017,0.013c2.16,1.66,5.277,1.26,6.949-0.893c0.812-1.047,1.169-2.349,1.001-3.664   C350.126,200.828,349.457,199.657,348.41,198.844z"/>
	<path style="fill:#261D2A;" d="M28.507,422.98l-0.023-0.018c-3.043-2.359-3.598-6.754-1.238-9.799   c2.35-3.031,6.734-3.594,9.774-1.257c1.498,1.161,2.44,2.811,2.673,4.662c0.233,1.849-0.267,3.681-1.409,5.154   C35.933,424.752,31.546,425.316,28.507,422.98z M35.806,413.521c-2.179-1.675-5.294-1.273-6.963,0.88   c-1.678,2.164-1.284,5.288,0.878,6.965l0.017,0.013c2.16,1.66,5.277,1.26,6.949-0.893c0.812-1.047,1.169-2.349,1.001-3.664   C37.523,415.505,36.853,414.333,35.806,413.521z"/>
	<g>
		<path style="fill:#76ADA2;" d="M99.372,202.728c-2.707,0.29-4.777,6.049-11.604,5.316c-5.155-6.832-17.243-16.437-30.204-5.418    c0,0,1.595,18.643,5.162,16.885c2.059-1.014,6.741-6.646,12.283-9.341c2.577,8.504,12.916,20.459,28.884,6.904    C103.894,217.074,103.055,202.333,99.372,202.728z"/>
		<path style="fill:#261D2A;" d="M68.098,215.045c-0.314,0-0.624-0.141-0.831-0.409c-0.351-0.458-0.267-1.114,0.192-1.467    c0.57-0.437,14.075-10.691,22.34-5.439c0.487,0.311,0.631,0.956,0.321,1.445c-0.311,0.486-0.955,0.629-1.445,0.321    c-7.038-4.479-19.812,5.235-19.941,5.333C68.544,214.974,68.32,215.045,68.098,215.045z"/>
	</g>
	<g>
		<path style="fill:#A17296;" d="M481.585,389.194c-2.707,0.29-4.777,6.049-11.604,5.316c-5.155-6.832-17.243-16.438-30.204-5.418    c0,0,1.595,18.642,5.162,16.885c2.059-1.014,6.741-6.646,12.283-9.341c2.577,8.504,12.916,20.459,28.884,6.904    C486.107,403.54,485.268,388.799,481.585,389.194z"/>
		<path style="fill:#261D2A;" d="M450.31,401.51c-0.314,0-0.624-0.141-0.831-0.409c-0.352-0.458-0.266-1.114,0.192-1.467    c0.571-0.439,14.078-10.689,22.34-5.437c0.487,0.311,0.631,0.956,0.321,1.445c-0.309,0.486-0.954,0.631-1.445,0.321    c-7.024-4.473-19.813,5.233-19.941,5.331C450.757,401.439,450.533,401.51,450.31,401.51z"/>
	</g>
	<path style="fill:#261D2A;" d="M465.013,366.567c-0.012,0-0.023,0-0.036,0c-1.447-0.049-2.886-0.172-4.28-0.37   c-0.572-0.082-0.97-0.611-0.889-1.183c0.082-0.57,0.609-0.956,1.183-0.889c1.319,0.188,2.683,0.305,4.055,0.349   c0.577,0.021,1.03,0.503,1.01,1.081C466.039,366.122,465.575,366.567,465.013,366.567z M469.195,366.498   c-0.548,0-1.007-0.425-1.043-0.979c-0.037-0.578,0.4-1.075,0.978-1.112c1.35-0.086,2.716-0.239,4.058-0.456   c0.567-0.104,1.108,0.296,1.2,0.864c0.092,0.572-0.296,1.107-0.866,1.199c-1.408,0.229-2.841,0.39-4.258,0.48   C469.24,366.498,469.217,366.498,469.195,366.498z M456.751,365.352c-0.094,0-0.19-0.012-0.285-0.039   c-1.493-0.421-2.869-0.942-4.091-1.547c-0.518-0.258-0.729-0.885-0.472-1.404c0.255-0.517,0.885-0.725,1.402-0.472   c1.106,0.55,2.361,1.024,3.729,1.408c0.556,0.157,0.88,0.736,0.723,1.291C457.627,365.051,457.208,365.352,456.751,365.352z    M477.45,365.162c-0.463,0-0.887-0.311-1.01-0.779c-0.148-0.56,0.186-1.132,0.744-1.279c1.333-0.352,2.639-0.77,3.881-1.24   c0.54-0.196,1.145,0.067,1.35,0.609c0.204,0.539-0.067,1.144-0.608,1.349c-1.31,0.497-2.685,0.936-4.088,1.306   C477.628,365.151,477.539,365.162,477.45,365.162z M485.256,362.185c-0.378,0-0.744-0.206-0.93-0.564   c-0.266-0.513-0.066-1.144,0.447-1.41c1.22-0.633,2.386-1.336,3.466-2.086c0.476-0.331,1.128-0.213,1.457,0.262   c0.33,0.474,0.212,1.126-0.262,1.455c-1.154,0.803-2.399,1.551-3.697,2.225C485.583,362.148,485.419,362.185,485.256,362.185z    M449.396,361.527c-0.26,0-0.521-0.096-0.723-0.29c-0.711-0.681-1.296-1.42-1.739-2.195c-0.287-0.501-0.112-1.14,0.389-1.428   c0.501-0.282,1.14-0.11,1.427,0.39c0.343,0.601,0.804,1.179,1.369,1.72c0.418,0.401,0.432,1.062,0.032,1.479   C449.945,361.418,449.671,361.527,449.396,361.527z M492.089,357.401c-0.279,0-0.558-0.11-0.763-0.331   c-0.395-0.421-0.374-1.083,0.048-1.479c0.984-0.922,1.893-1.921,2.701-2.965c0.353-0.458,1.01-0.541,1.467-0.188   c0.458,0.354,0.541,1.009,0.188,1.467c-0.875,1.134-1.86,2.215-2.926,3.214C492.603,357.307,492.345,357.401,492.089,357.401z    M497.173,350.805c-0.165,0-0.334-0.039-0.491-0.123c-0.51-0.272-0.703-0.905-0.431-1.416c0.35-0.656,0.673-1.334,0.967-2.035   c0.228-0.546,0.422-1.085,0.581-1.618c0.164-0.554,0.745-0.871,1.303-0.701c0.554,0.165,0.867,0.748,0.702,1.302   c-0.18,0.599-0.398,1.208-0.656,1.825c-0.32,0.764-0.671,1.5-1.05,2.213C497.909,350.605,497.547,350.805,497.173,350.805z    M499.423,342.834c-0.576,0-1.044-0.466-1.046-1.044c-0.004-1.277-0.213-2.546-0.622-3.774c-0.182-0.548,0.114-1.14,0.662-1.324   c0.551-0.184,1.141,0.115,1.324,0.662c0.479,1.441,0.724,2.93,0.728,4.432c0.002,0.576-0.466,1.046-1.043,1.048   C499.426,342.834,499.424,342.834,499.423,342.834z M496.88,335.008c-0.335,0-0.665-0.161-0.867-0.46   c-0.699-1.032-1.562-2.045-2.566-3.016c-0.416-0.401-0.428-1.063-0.027-1.479c0.402-0.415,1.065-0.425,1.479-0.025   c1.108,1.069,2.066,2.194,2.846,3.347c0.324,0.478,0.199,1.128-0.28,1.453C497.286,334.949,497.083,335.008,496.88,335.008z    M468.906,329.867c-0.014,0-0.03,0-0.044,0l-0.479-0.004c-0.578-0.008-1.04-0.482-1.033-1.061c0.007-0.572,0.474-1.032,1.046-1.032   c0.004,0,0.009,0,0.013,0l0.455,0.004c1.131,0.055,2.311-0.078,3.581-0.235c0.564-0.067,1.096,0.337,1.167,0.909   c0.072,0.572-0.335,1.095-0.909,1.167C471.364,329.784,470.087,329.867,468.906,329.867z M464.268,329.279   c-0.104,0-0.211-0.016-0.316-0.049c-2.715-0.86-3.477-2.389-3.639-3.519c-0.082-0.572,0.316-1.103,0.888-1.185   c0.565-0.08,1.102,0.315,1.184,0.887c0.139,0.975,1.273,1.528,2.199,1.823c0.551,0.174,0.856,0.762,0.681,1.314   C465.124,328.995,464.713,329.279,464.268,329.279z M490.942,329.173c-0.208,0-0.419-0.061-0.602-0.192   c-1.065-0.75-2.227-1.467-3.456-2.129c-0.443-0.239-0.645-0.752-0.508-1.216c-0.436,0.2-0.878,0.392-1.32,0.58   c-0.531,0.223-1.145-0.025-1.37-0.558c-0.065-0.155-0.091-0.317-0.081-0.474c-0.174-0.051-0.279-0.025-0.413-0.08   c-1.243-0.517-2.537-0.983-3.843-1.387c-0.553-0.17-0.861-0.756-0.691-1.308c0.169-0.552,0.754-0.872,1.308-0.691   c1.369,0.423,2.725,0.911,4.029,1.453c0.395,0.165,0.637,0.543,0.645,0.946c1.126-0.486,2.233-1.02,3.298-1.586   c0.511-0.274,1.143-0.078,1.415,0.433c0.272,0.509,0.078,1.142-0.432,1.414c-0.375,0.2-0.755,0.394-1.138,0.584   c0.032,0.014,0.063,0.029,0.094,0.045c1.303,0.703,2.537,1.465,3.669,2.264c0.472,0.333,0.585,0.985,0.252,1.457   C491.593,329.019,491.271,329.173,490.942,329.173z M476.694,328.889c-0.476,0-0.907-0.327-1.019-0.811   c-0.13-0.564,0.222-1.126,0.785-1.255c1.304-0.3,2.63-0.668,3.945-1.097c0.545-0.176,1.14,0.12,1.319,0.67   c0.179,0.55-0.122,1.14-0.671,1.32c-1.373,0.447-2.759,0.834-4.122,1.146C476.85,328.88,476.771,328.889,476.694,328.889z    M463.27,323.182c-0.365,0-0.718-0.19-0.911-0.529c-0.285-0.503-0.108-1.142,0.393-1.426c1.13-0.642,2.62-1.052,4.43-1.222   c0.565-0.02,1.085,0.37,1.139,0.944c0.053,0.576-0.37,1.085-0.945,1.14c-1.492,0.139-2.733,0.47-3.59,0.956   C463.622,323.139,463.445,323.182,463.27,323.182z M475.604,322.72c-0.07,0-0.14-0.006-0.211-0.02   c-1.388-0.284-2.741-0.482-4.022-0.593c-0.575-0.049-1.002-0.556-0.953-1.13c0.048-0.576,0.532-0.999,1.131-0.954   c1.362,0.116,2.796,0.327,4.263,0.625c0.566,0.116,0.931,0.668,0.815,1.234C476.526,322.379,476.091,322.72,475.604,322.72z    M492.031,322.366c-0.34,0-0.674-0.165-0.875-0.472c-0.317-0.482-0.183-1.132,0.3-1.449c1.148-0.754,2.252-1.567,3.28-2.413   c0.447-0.37,1.105-0.3,1.472,0.141c0.368,0.447,0.304,1.105-0.142,1.473c-1.085,0.895-2.25,1.751-3.461,2.548   C492.427,322.311,492.228,322.366,492.031,322.366z M498.468,317.046c-0.259,0-0.52-0.096-0.722-0.29   c-0.418-0.398-0.433-1.06-0.034-1.479c0.949-0.993,1.821-2.035,2.589-3.098c0.34-0.472,0.994-0.57,1.461-0.235   c0.469,0.339,0.573,0.993,0.235,1.461c-0.824,1.14-1.757,2.256-2.773,3.318C499.019,316.937,498.744,317.046,498.468,317.046z    M503.344,310.28c-0.161,0-0.325-0.037-0.478-0.116c-0.514-0.264-0.715-0.895-0.451-1.41c0.533-1.034,0.995-2.105,1.374-3.184   l0.169-0.507c0.175-0.552,0.762-0.856,1.313-0.682c0.551,0.174,0.856,0.762,0.681,1.312l-0.188,0.566   c-0.411,1.173-0.912,2.333-1.49,3.455C504.088,310.074,503.723,310.28,503.344,310.28z M505.746,302.328   c-0.025,0-0.05,0-0.076-0.002c-0.576-0.041-1.01-0.542-0.969-1.118c0.027-0.378,0.04-0.754,0.04-1.128   c-0.001-0.924-0.081-1.864-0.239-2.789c-0.096-0.57,0.287-1.11,0.857-1.208c0.569-0.09,1.111,0.288,1.206,0.856   c0.177,1.042,0.267,2.099,0.268,3.139c0,0.425-0.015,0.85-0.046,1.277C506.749,301.907,506.29,302.328,505.746,302.328z    M504.396,294.15c-0.416,0-0.809-0.249-0.972-0.66c-0.473-1.187-1.081-2.389-1.806-3.568c-0.302-0.49-0.149-1.136,0.342-1.439   c0.495-0.309,1.137-0.151,1.44,0.343c0.789,1.281,1.451,2.589,1.968,3.891c0.215,0.535-0.048,1.144-0.584,1.359   C504.655,294.126,504.525,294.15,504.396,294.15z M500.068,287.025c-0.301,0-0.601-0.129-0.807-0.38   c-0.837-1.012-1.77-2.013-2.77-2.975c-0.417-0.401-0.43-1.062-0.03-1.479c0.4-0.415,1.063-0.431,1.478-0.029   c1.058,1.016,2.045,2.076,2.933,3.151c0.369,0.445,0.305,1.103-0.14,1.473C500.539,286.948,500.302,287.025,500.068,287.025z    M494.051,281.216c-0.226,0-0.454-0.074-0.645-0.223c-1.056-0.83-2.176-1.629-3.33-2.374c-0.485-0.315-0.624-0.962-0.311-1.447   c0.315-0.486,0.961-0.619,1.447-0.311c1.207,0.78,2.379,1.618,3.485,2.485c0.455,0.358,0.534,1.016,0.178,1.469   C494.669,281.079,494.361,281.216,494.051,281.216z M475.01,280.946c-1.016,0-1.931-0.115-2.72-0.339   c-0.556-0.157-0.879-0.736-0.72-1.291c0.157-0.556,0.737-0.889,1.292-0.719c0.972,0.274,2.272,0.329,3.751,0.161   c0.584-0.053,1.092,0.349,1.156,0.924c0.064,0.574-0.349,1.091-0.924,1.156C476.202,280.91,475.588,280.946,475.01,280.946z    M480.828,280.004c-0.455,0-0.874-0.298-1.004-0.758c-0.159-0.556,0.161-1.134,0.717-1.293c1.247-0.358,2.544-0.807,3.856-1.334   c0.533-0.212,1.145,0.041,1.361,0.58c0.216,0.535-0.044,1.144-0.58,1.361c-1.377,0.554-2.743,1.028-4.06,1.404   C481.021,279.992,480.924,280.004,480.828,280.004z M469.838,277.82c-0.506,0-0.95-0.368-1.032-0.883   c-0.044-0.276-0.068-0.57-0.068-0.881c0-0.18,0.008-0.362,0.025-0.55c0.114-1.392,0.715-2.544,1.737-3.327   c0.46-0.354,1.116-0.264,1.467,0.192c0.351,0.46,0.265,1.116-0.194,1.467c-0.556,0.427-0.858,1.03-0.925,1.841   c-0.011,0.129-0.017,0.253-0.017,0.376c0,0.196,0.013,0.38,0.041,0.554c0.091,0.57-0.298,1.105-0.868,1.197   C469.948,277.816,469.892,277.82,469.838,277.82z M488.601,276.907c-0.351,0-0.691-0.178-0.887-0.488   c-0.315,0.272-0.774,0.339-1.17,0.137c-1.249-0.652-2.495-1.226-3.704-1.708c-0.537-0.215-0.799-0.824-0.584-1.361   c0.215-0.537,0.826-0.789,1.359-0.584c1.276,0.511,2.587,1.114,3.899,1.798c0.17,0.09,0.306,0.219,0.402,0.37   c0.063-0.055,0.135-0.104,0.214-0.143c1.21-0.611,2.418-1.281,3.593-1.99c0.496-0.302,1.137-0.141,1.436,0.353   c0.299,0.494,0.141,1.138-0.353,1.436c-1.221,0.738-2.477,1.434-3.732,2.068C488.921,276.87,488.759,276.907,488.601,276.907z    M479.251,273.617c-0.084,0-0.169-0.01-0.254-0.031c-1.443-0.36-2.752-0.55-3.895-0.562c-0.577-0.006-1.04-0.48-1.034-1.058   c0.007-0.574,0.474-1.034,1.046-1.034c0.004,0,0.008,0,0.012,0c1.304,0.014,2.776,0.225,4.377,0.623   c0.56,0.141,0.901,0.707,0.762,1.269C480.147,273.3,479.72,273.617,479.251,273.617z M495.763,272.575   c-0.327,0-0.649-0.153-0.852-0.437c-0.336-0.472-0.227-1.124,0.243-1.461c1.126-0.803,2.213-1.651,3.233-2.519   c0.442-0.374,1.101-0.321,1.475,0.118c0.374,0.439,0.321,1.099-0.118,1.475c-1.065,0.907-2.2,1.792-3.373,2.63   C496.186,272.512,495.973,272.575,495.763,272.575z M502.119,267.144c-0.263,0-0.525-0.098-0.728-0.294   c-0.415-0.402-0.425-1.064-0.022-1.479c0.97-1.001,1.863-2.035,2.653-3.073c0.35-0.46,1.007-0.55,1.466-0.198   c0.46,0.349,0.549,1.005,0.199,1.465c-0.841,1.103-1.788,2.203-2.817,3.261C502.664,267.037,502.391,267.144,502.119,267.144z    M507.14,260.476c-0.169,0-0.34-0.041-0.5-0.127c-0.508-0.278-0.695-0.913-0.418-1.42c0.664-1.218,1.191-2.446,1.568-3.649   c0.171-0.552,0.753-0.864,1.311-0.687c0.552,0.174,0.858,0.76,0.686,1.312c-0.417,1.332-0.998,2.687-1.728,4.025   C507.87,260.278,507.511,260.476,507.14,260.476z M509.617,252.544c-0.039,0-0.078-0.002-0.117-0.006   c-0.574-0.065-0.987-0.582-0.924-1.156c0.09-0.801,0.133-1.573,0.133-2.317c0.001-0.566-0.025-1.116-0.072-1.649   c-0.051-0.574,0.374-1.083,0.949-1.134c0.583-0.039,1.085,0.374,1.135,0.95c0.053,0.595,0.081,1.206,0.08,1.835   c0,0.826-0.049,1.684-0.145,2.548C510.596,252.15,510.144,252.544,509.617,252.544z M508.832,244.289   c-0.436,0-0.844-0.276-0.991-0.711c-0.416-1.232-0.987-2.419-1.698-3.529c-0.312-0.486-0.171-1.132,0.316-1.445   c0.485-0.313,1.132-0.174,1.446,0.317c0.803,1.252,1.449,2.593,1.919,3.986c0.185,0.548-0.109,1.142-0.657,1.326   C509.056,244.271,508.942,244.289,508.832,244.289z M504.386,237.295c-0.266,0-0.532-0.1-0.736-0.302   c-0.909-0.899-1.948-1.751-3.09-2.528c-0.478-0.325-0.602-0.975-0.277-1.453c0.326-0.476,0.978-0.601,1.454-0.276   c1.247,0.848,2.385,1.78,3.385,2.769c0.411,0.407,0.415,1.069,0.008,1.479C504.924,237.191,504.655,237.295,504.386,237.295z    M497.511,232.573c-0.15,0-0.303-0.033-0.447-0.102c-2.127-1.009-3.717-1.426-3.733-1.43c-0.559-0.145-0.895-0.715-0.751-1.275   c0.144-0.562,0.716-0.893,1.273-0.752c0.072,0.018,1.786,0.466,4.108,1.569c0.522,0.247,0.745,0.87,0.496,1.393   C498.278,232.352,497.902,232.573,497.511,232.573z"/>
	<path style="fill:#261D2A;" d="M41.132,302.579c-0.672,0-1.497-0.027-2.434-0.11c-0.576-0.051-1.001-0.558-0.95-1.134   c0.051-0.576,0.546-0.962,1.134-0.95c2.332,0.204,3.921,0.033,3.969,0.029c0.58-0.102,1.091,0.341,1.16,0.915   c0.069,0.572-0.341,1.091-0.913,1.161C43.098,302.489,42.364,302.579,41.132,302.579z M34.663,301.782   c-0.084,0-0.17-0.01-0.254-0.031c-1.434-0.36-2.823-0.834-4.127-1.412c-0.528-0.235-0.766-0.852-0.532-1.379   c0.235-0.529,0.851-0.766,1.38-0.533c1.194,0.529,2.468,0.964,3.786,1.293c0.561,0.141,0.902,0.709,0.761,1.269   C35.558,301.465,35.132,301.782,34.663,301.782z M27.058,298.39c-0.205,0-0.414-0.061-0.596-0.186   c-1.2-0.834-2.322-1.79-3.334-2.842c-0.401-0.417-0.387-1.079,0.029-1.479c0.418-0.402,1.079-0.384,1.479,0.029   c0.915,0.952,1.931,1.819,3.019,2.573c0.474,0.331,0.593,0.983,0.263,1.457C27.715,298.233,27.389,298.39,27.058,298.39z    M21.296,292.405c-0.342,0-0.678-0.168-0.879-0.476c-0.768-1.185-1.456-2.477-2.045-3.839c-0.229-0.529,0.015-1.146,0.545-1.375   c0.53-0.237,1.146,0.014,1.375,0.546c0.543,1.257,1.175,2.444,1.88,3.529c0.315,0.486,0.177,1.134-0.309,1.449   C21.688,292.35,21.491,292.405,21.296,292.405z M17.951,284.78c-0.459,0-0.88-0.304-1.007-0.768   c-0.368-1.332-0.671-2.746-0.9-4.199c-0.091-0.572,0.299-1.107,0.869-1.197c0.57-0.08,1.108,0.3,1.196,0.871   c0.218,1.377,0.504,2.711,0.851,3.97c0.154,0.556-0.173,1.132-0.729,1.287C18.137,284.767,18.044,284.78,17.951,284.78z    M16.679,276.533c-0.564,0-1.029-0.449-1.045-1.018l-0.011-0.805c0-1.173,0.068-2.354,0.203-3.519   c0.066-0.572,0.582-0.96,1.16-0.919c0.574,0.067,0.985,0.586,0.918,1.161c-0.126,1.083-0.189,2.186-0.189,3.273l0.011,0.752   c0.015,0.578-0.44,1.059-1.018,1.075C16.698,276.533,16.689,276.533,16.679,276.533z M17.636,268.249   c-0.088,0-0.177-0.01-0.265-0.035c-0.56-0.145-0.895-0.717-0.749-1.275c0.36-1.379,0.82-2.758,1.368-4.099   c0.219-0.533,0.83-0.793,1.365-0.572c0.534,0.219,0.791,0.83,0.572,1.365c-0.513,1.255-0.944,2.544-1.28,3.833   C18.525,267.939,18.1,268.249,17.636,268.249z M20.786,260.523c-0.175,0-0.351-0.043-0.514-0.135   c-0.503-0.286-0.681-0.924-0.395-1.426c0.698-1.234,1.486-2.45,2.344-3.615c0.343-0.468,0.997-0.568,1.463-0.223   c0.465,0.341,0.565,0.997,0.223,1.461c-0.808,1.099-1.552,2.246-2.209,3.406C21.505,260.333,21.15,260.523,20.786,260.523z    M38.385,258.556c-1.268,0-2.567-0.074-3.865-0.217c-0.574-0.063-0.988-0.58-0.925-1.155c0.064-0.574,0.575-0.993,1.155-0.926   c1.221,0.135,2.444,0.204,3.634,0.204l0.414-0.002c0.586-0.033,1.053,0.452,1.062,1.032c0.008,0.576-0.454,1.052-1.031,1.061   L38.385,258.556z M42.978,258.2c-0.504,0-0.947-0.364-1.032-0.877c-0.093-0.57,0.293-1.109,0.864-1.202   c1.407-0.231,2.696-0.57,3.832-1.009c0.537-0.202,1.144,0.059,1.353,0.601c0.208,0.537-0.06,1.144-0.599,1.353   c-1.271,0.49-2.7,0.866-4.249,1.12C43.091,258.196,43.034,258.2,42.978,258.2z M30.512,257.652c-0.077,0-0.153-0.008-0.231-0.027   c-1.385-0.311-2.776-0.703-4.133-1.163c-0.548-0.186-0.84-0.78-0.655-1.328c0.186-0.548,0.781-0.832,1.327-0.654   c1.287,0.437,2.606,0.809,3.92,1.105c0.564,0.127,0.917,0.687,0.791,1.248C31.422,257.321,30.99,257.652,30.512,257.652z    M50.608,255.029c-0.284,0-0.567-0.114-0.773-0.341c-0.389-0.427-0.359-1.089,0.068-1.477c0.966-0.881,1.48-1.855,1.531-2.893   c0.029-0.576,0.52-1.042,1.096-0.993c0.576,0.027,1.022,0.517,0.994,1.095c-0.077,1.588-0.842,3.087-2.211,4.336   C51.113,254.939,50.86,255.029,50.608,255.029z M22.597,254.972c-0.146,0-0.294-0.031-0.435-0.096   c-1.296-0.595-2.575-1.263-3.802-1.986c-0.497-0.294-0.663-0.934-0.37-1.432c0.294-0.498,0.934-0.664,1.432-0.37   c1.166,0.686,2.38,1.322,3.611,1.888c0.525,0.241,0.756,0.862,0.515,1.387C23.373,254.745,22.994,254.972,22.597,254.972z    M25.736,253.795c-0.255,0-0.512-0.094-0.713-0.28c-0.423-0.394-0.447-1.056-0.052-1.479c0.983-1.054,2.031-2.056,3.113-2.975   c0.442-0.372,1.101-0.323,1.474,0.121c0.375,0.439,0.321,1.099-0.119,1.473c-1.021,0.866-2.009,1.812-2.937,2.807   C26.294,253.682,26.016,253.795,25.736,253.795z M15.398,250.734c-0.214,0-0.431-0.065-0.617-0.202   c-1.139-0.836-2.259-1.745-3.327-2.703c-0.43-0.386-0.466-1.048-0.08-1.477c0.387-0.431,1.051-0.466,1.477-0.08   c1.016,0.913,2.082,1.778,3.165,2.572c0.466,0.341,0.567,0.997,0.226,1.463C16.038,250.587,15.72,250.734,15.398,250.734z    M32.107,248.392c-0.34,0-0.674-0.165-0.874-0.472c-0.318-0.482-0.184-1.13,0.298-1.449c1.233-0.811,2.5-1.528,3.768-2.129   c0.522-0.251,1.147-0.025,1.395,0.494c0.248,0.523,0.026,1.146-0.495,1.394c-1.181,0.562-2.364,1.232-3.517,1.99   C32.504,248.337,32.304,248.392,32.107,248.392z M51.13,247.538c-0.322,0-0.639-0.147-0.844-0.427   c-0.724-0.987-1.669-1.729-2.81-2.207c-0.532-0.223-0.784-0.836-0.56-1.369c0.223-0.531,0.839-0.785,1.369-0.56   c1.494,0.625,2.734,1.6,3.686,2.897c0.342,0.466,0.242,1.12-0.224,1.463C51.562,247.473,51.345,247.538,51.13,247.538z    M9.182,245.154c-0.282,0-0.564-0.114-0.77-0.337c-0.951-1.036-1.875-2.139-2.746-3.284c-0.349-0.46-0.26-1.116,0.199-1.465   c0.459-0.351,1.116-0.264,1.466,0.198c0.832,1.093,1.714,2.147,2.622,3.132c0.391,0.427,0.363,1.087-0.062,1.479   C9.688,245.062,9.435,245.154,9.182,245.154z M39.663,244.867c-0.46,0-0.882-0.307-1.008-0.77   c-0.152-0.558,0.177-1.134,0.734-1.285c1.533-0.419,3.012-0.637,4.393-0.65c0.004,0,0.007,0,0.01,0   c0.573,0,1.041,0.462,1.046,1.036c0.005,0.578-0.459,1.05-1.036,1.056c-1.203,0.01-2.502,0.204-3.862,0.576   C39.847,244.855,39.755,244.867,39.663,244.867z M4.146,238.488c-0.361,0-0.712-0.186-0.906-0.521   c-0.748-1.289-1.368-2.624-1.842-3.964c-0.193-0.546,0.092-1.142,0.637-1.336c0.547-0.192,1.144,0.094,1.335,0.637   c0.432,1.22,0.997,2.436,1.681,3.613c0.29,0.501,0.119,1.14-0.38,1.43C4.505,238.443,4.324,238.488,4.146,238.488z M1.398,230.638   c-0.516,0-0.964-0.38-1.036-0.905c-0.127-0.94-0.191-1.896-0.19-2.842c0-0.515,0.018-1.03,0.055-1.547   c0.041-0.576,0.54-1.018,1.117-0.97c0.576,0.041,1.01,0.541,0.969,1.118c-0.033,0.468-0.049,0.934-0.049,1.402   c-0.001,0.852,0.056,1.712,0.172,2.558c0.078,0.572-0.324,1.099-0.897,1.177C1.492,230.636,1.444,230.638,1.398,230.638z    M1.965,222.348c-0.089,0-0.179-0.01-0.268-0.035c-0.559-0.147-0.892-0.719-0.745-1.279c0.361-1.365,0.849-2.742,1.453-4.095   c0.235-0.527,0.851-0.766,1.381-0.531c0.528,0.237,0.765,0.854,0.529,1.381c-0.558,1.253-1.008,2.523-1.34,3.78   C2.852,222.037,2.428,222.348,1.965,222.348z M5.322,214.718c-0.188,0-0.378-0.051-0.55-0.157   c-0.491-0.302-0.643-0.948-0.339-1.438c0.736-1.189,1.568-2.372,2.477-3.521c0.359-0.449,1.016-0.529,1.469-0.172   c0.454,0.36,0.53,1.018,0.172,1.471c-0.858,1.085-1.645,2.203-2.338,3.32C6.015,214.543,5.672,214.718,5.322,214.718z    M31.375,212.123c-0.549,0-1.009-0.427-1.043-0.983c-0.035-0.576,0.404-1.073,0.981-1.107c1.407-0.086,2.708-0.311,3.869-0.666   c0.556-0.178,1.137,0.139,1.308,0.693c0.17,0.552-0.141,1.136-0.693,1.306c-1.319,0.407-2.785,0.66-4.357,0.756   C31.418,212.123,31.397,212.123,31.375,212.123z M27.197,212.007c-0.038,0-0.077-0.002-0.115-0.006   c-1.398-0.153-2.83-0.415-4.259-0.779c-0.56-0.141-0.899-0.711-0.756-1.271c0.142-0.562,0.714-0.907,1.271-0.756   c1.335,0.339,2.672,0.582,3.971,0.725c0.575,0.063,0.989,0.58,0.927,1.154C28.177,211.61,27.724,212.007,27.197,212.007z    M19.102,209.961c-0.129,0-0.26-0.025-0.386-0.074c-1.337-0.531-2.65-1.154-3.901-1.853c-0.505-0.28-0.687-0.917-0.406-1.422   c0.282-0.507,0.92-0.687,1.423-0.404c1.173,0.654,2.403,1.236,3.655,1.735c0.537,0.215,0.8,0.822,0.586,1.359   C19.911,209.712,19.518,209.961,19.102,209.961z M39.186,209.506c-0.302,0-0.603-0.131-0.81-0.382   c-0.366-0.447-0.301-1.105,0.145-1.473c0.973-0.797,1.642-1.774,1.988-2.9c0.17-0.552,0.754-0.872,1.309-0.691   c0.552,0.17,0.861,0.756,0.692,1.308c-0.47,1.524-1.365,2.836-2.66,3.901C39.654,209.428,39.419,209.506,39.186,209.506z    M42.933,200.69c-0.121,0.277-0.362,0.5-0.675,0.589c-0.557,0.155-1.134-0.168-1.291-0.724c-0.34-1.211-0.966-2.216-1.858-2.985   c-0.437-0.377-0.497-1.041-0.107-1.476c0.377-0.437,1.038-0.485,1.475-0.109c1.208,1.042,2.05,2.388,2.505,4.002   C43.05,200.23,43.026,200.476,42.933,200.69z M10.492,208.155c-0.263,0-0.525-0.098-0.728-0.296   c-0.415-0.403-0.425-1.065-0.023-1.479c0.333-0.341,0.674-0.683,1.023-1.02c-1.008-0.785-1.966-1.628-2.849-2.517   c-0.408-0.409-0.406-1.073,0.004-1.479c0.409-0.407,1.071-0.407,1.479,0.004c0.901,0.905,1.885,1.763,2.926,2.552   c0.179-0.157,0.359-0.315,0.54-0.47c0.438-0.376,1.098-0.323,1.475,0.114c0.376,0.439,0.325,1.099-0.114,1.475   c-1.049,0.899-2.052,1.841-2.982,2.799C11.038,208.049,10.765,208.155,10.492,208.155z M16.845,202.714   c-0.327,0-0.649-0.153-0.853-0.439c-0.335-0.47-0.226-1.124,0.245-1.459c1.164-0.828,2.374-1.61,3.598-2.323   c0.5-0.292,1.139-0.12,1.43,0.378c0.29,0.501,0.122,1.14-0.378,1.432c-1.169,0.68-2.325,1.426-3.437,2.217   C17.267,202.651,17.055,202.714,16.845,202.714z M5.948,199.97c-0.324,0-0.644-0.149-0.848-0.433   c-0.854-1.177-1.614-2.43-2.257-3.717c-0.258-0.517-0.048-1.146,0.469-1.404c0.516-0.257,1.146-0.045,1.403,0.468   c0.593,1.187,1.292,2.34,2.079,3.427c0.339,0.466,0.235,1.122-0.233,1.461C6.375,199.904,6.161,199.97,5.948,199.97z    M24.083,198.523c-0.399,0-0.781-0.229-0.954-0.615c-0.238-0.527-0.004-1.146,0.523-1.385c1.374-0.619,2.733-1.134,4.04-1.53   c0.554-0.172,1.137,0.145,1.305,0.697c0.167,0.554-0.145,1.138-0.698,1.306c-1.22,0.37-2.494,0.852-3.786,1.436   C24.372,198.494,24.226,198.523,24.083,198.523z M36.248,196.316c-0.074,0-0.149-0.008-0.225-0.024   c-1.112-0.245-2.424-0.284-3.826-0.129c-0.589,0.047-1.091-0.351-1.154-0.926c-0.063-0.574,0.351-1.091,0.926-1.154   c1.643-0.178,3.172-0.127,4.503,0.165c0.564,0.123,0.922,0.681,0.798,1.244C37.163,195.983,36.73,196.316,36.248,196.316z    M2.228,192.52c-0.447,0-0.862-0.29-1-0.74c-0.419-1.367-0.736-2.793-0.94-4.238c-0.081-0.572,0.318-1.101,0.89-1.183   c0.573-0.074,1.101,0.319,1.182,0.889c0.189,1.338,0.481,2.656,0.868,3.919c0.17,0.552-0.141,1.138-0.694,1.306   C2.433,192.505,2.329,192.52,2.228,192.52z M1.046,184.275c-0.001,0-0.003,0-0.004,0c-0.578-0.002-1.044-0.472-1.042-1.05   c0.004-1.058,0.064-2.16,0.178-3.269c0.036-0.347,0.075-0.689,0.116-1.028c0.071-0.572,0.608-0.989,1.166-0.909   c0.574,0.072,0.982,0.592,0.91,1.167l-0.11,0.983c-0.107,1.042-0.164,2.074-0.168,3.065C2.09,183.809,1.622,184.275,1.046,184.275z    M2.069,175.989c-0.08,0-0.16-0.008-0.24-0.029c-0.563-0.131-0.911-0.695-0.78-1.257c0.334-1.422,0.75-2.809,1.235-4.125   c0.2-0.544,0.81-0.822,1.343-0.619c0.543,0.2,0.819,0.801,0.62,1.342c-0.457,1.236-0.847,2.542-1.162,3.88   C2.973,175.664,2.543,175.989,2.069,175.989z M4.975,168.178c-0.167,0-0.336-0.039-0.492-0.125   c-0.51-0.272-0.702-0.905-0.429-1.416c0.687-1.279,1.467-2.511,2.321-3.658c0.346-0.462,1.001-0.556,1.464-0.215   c0.463,0.345,0.559,1.001,0.214,1.465c-0.792,1.062-1.517,2.207-2.154,3.396C5.709,167.977,5.348,168.178,4.975,168.178z    M9.961,161.5c-0.271,0-0.542-0.104-0.747-0.313c-0.405-0.413-0.398-1.075,0.014-1.479c1.023-1.005,2.137-1.945,3.313-2.797   c0.466-0.337,1.121-0.235,1.46,0.235c0.339,0.468,0.235,1.122-0.234,1.461c-1.09,0.789-2.125,1.661-3.074,2.593   C10.49,161.4,10.226,161.5,9.961,161.5z M51.422,156.968c-0.23,0-0.461-0.076-0.654-0.231c-0.592-0.474-1.311-0.93-2.138-1.353   c-0.514-0.264-0.717-0.895-0.454-1.408c0.265-0.513,0.893-0.715,1.408-0.456c0.953,0.488,1.792,1.022,2.494,1.586   c0.451,0.362,0.523,1.02,0.161,1.469C52.032,156.833,51.729,156.968,51.422,156.968z M16.709,156.6   c-0.375,0-0.738-0.202-0.926-0.556c-0.271-0.511-0.076-1.144,0.435-1.416c1.249-0.66,2.576-1.255,3.942-1.765   c0.539-0.2,1.143,0.074,1.346,0.615c0.202,0.542-0.073,1.144-0.614,1.347c-1.281,0.478-2.524,1.034-3.694,1.655   C17.041,156.561,16.874,156.6,16.709,156.6z M45.219,153.968c-0.099,0-0.201-0.014-0.301-0.045   c-1.231-0.37-2.559-0.676-3.948-0.909c-0.57-0.096-0.954-0.635-0.858-1.206c0.095-0.57,0.628-0.956,1.206-0.858   c1.474,0.249,2.888,0.574,4.203,0.97c0.553,0.166,0.866,0.75,0.701,1.302C46.084,153.676,45.669,153.968,45.219,153.968z    M24.523,153.652c-0.47,0-0.897-0.319-1.015-0.795c-0.139-0.562,0.203-1.128,0.764-1.267c1.369-0.339,2.788-0.609,4.218-0.805   c0.565-0.076,1.099,0.323,1.178,0.893c0.079,0.572-0.321,1.101-0.894,1.179c-1.357,0.186-2.702,0.443-4,0.764   C24.69,153.642,24.606,153.652,24.523,153.652z M36.988,152.555c-0.021,0-0.044,0-0.065-0.002   c-0.878-0.053-1.776-0.059-2.675-0.078c-0.467,0-0.935,0.01-1.405,0.029c-0.577,0.008-1.065-0.427-1.086-1.005   c-0.022-0.578,0.427-1.065,1.004-1.087c0.542-0.02,1.076-0.035,1.619-0.029c0.9,0,1.794,0.027,2.671,0.082   c0.577,0.035,1.015,0.531,0.98,1.11C37.997,152.127,37.537,152.555,36.988,152.555z"/>
	<g>
		<g>
			<path style="fill:#D37E3A;" d="M209.143,301.631c-28.822,9.933-33.349,29.723-32.589,43.449     c-5.196-6.96-9.591-13.917-13.291-20.796c34.945-4.287,33.179-57.899,33.179-57.899c-31.466,5.718-38.713,28.431-39.921,43.725     c-3.963-9.552-6.69-18.836-8.497-27.642c43.048-8.986,35.244-52.384,35.244-52.384c-27.788,2.898-35.218,26.322-37.133,41.007     c-1.263-9.969-1.413-19.106-0.994-27.049c27.068-21.893-0.394-58.175-0.394-58.175c-31.364,29.418-15.746,51.281-8.182,58.9     c-0.262,5.499-0.262,11.509,0.161,17.948c0.163,2.478,0.399,5.067,0.712,7.745c-11.433-26.932-46.046-37.554-46.046-37.554     c0.701,55.409,41.36,53.108,48.488,52.278c1.739,8.093,4.265,16.746,7.859,25.748c-22.498-24.851-53.88-11.704-53.88-11.704     c13.363,52.39,51.151,32.863,60.835,26.839c4.216,8.087,9.342,16.343,15.588,24.63c-24.116-18.261-60.888-0.812-60.888-0.812     c27.447,36.4,65.05,15.507,70.298,12.325c3.214,3.641,6.65,7.274,10.341,10.888c0.761,0.747,1.735,1.142,2.723,1.191     c1.152,0.056,2.323-0.362,3.194-1.252c1.618-1.652,1.589-4.3-0.061-5.917c-3.136-3.072-6.074-6.16-8.853-9.256     C218.982,346.302,209.143,301.631,209.143,301.631z"/>
			<path style="fill:#261D2A;" d="M142.077,239.974c-0.381,0-0.748-0.208-0.933-0.57c-8.135-15.946-0.112-35.789,0.234-36.624     c0.221-0.535,0.836-0.795,1.365-0.568c0.534,0.221,0.789,0.832,0.569,1.365c-0.081,0.196-7.996,19.8-0.304,34.875     c0.262,0.515,0.058,1.146-0.457,1.408C142.399,239.937,142.236,239.974,142.077,239.974z"/>
			<path style="fill:#261D2A;" d="M132.416,276.371c-0.1,0-0.203-0.014-0.304-0.045c-13.328-4.06-27.252-27.037-27.838-28.012     c-0.297-0.497-0.137-1.138,0.359-1.436c0.497-0.296,1.138-0.135,1.436,0.357c0.139,0.233,14.095,23.263,26.653,27.088     c0.553,0.17,0.864,0.754,0.697,1.306C133.279,276.081,132.865,276.371,132.416,276.371z"/>
			<path style="fill:#261D2A;" d="M154.568,273.31c-0.407,0-0.793-0.237-0.962-0.633c-0.228-0.531,0.018-1.146,0.55-1.375     c12.109-5.188,14.691-26.389,14.716-26.604c0.066-0.574,0.585-0.958,1.16-0.92c0.573,0.068,0.985,0.587,0.919,1.161     c-0.106,0.922-2.758,22.626-15.971,28.288C154.845,273.284,154.705,273.31,154.568,273.31z"/>
			<path style="fill:#261D2A;" d="M163.771,308.623c-0.366,0-0.72-0.192-0.912-0.531c-0.284-0.505-0.106-1.142,0.397-1.426     c12.243-6.906,16.412-27.597,16.453-27.805c0.109-0.566,0.662-0.952,1.227-0.826c0.567,0.11,0.937,0.658,0.827,1.226     c-0.173,0.889-4.391,21.843-17.479,29.228C164.121,308.58,163.945,308.623,163.771,308.623z"/>
			<path style="fill:#261D2A;" d="M138.09,317.757c-17.309,0-28.642-11.547-29.165-12.09c-0.4-0.417-0.387-1.077,0.029-1.477     c0.416-0.4,1.077-0.386,1.478,0.027c0.136,0.139,13.677,13.909,33.091,11.048c0.583-0.063,1.102,0.313,1.187,0.885     c0.084,0.57-0.312,1.101-0.883,1.187C141.852,317.626,139.937,317.757,138.09,317.757z"/>
			<path style="fill:#261D2A;" d="M147.1,361.308c-10.226,0-18.497-3.308-19.052-3.535c-0.534-0.219-0.791-0.829-0.572-1.365     c0.218-0.535,0.832-0.793,1.364-0.572c0.214,0.086,21.351,8.521,37.381-1.851c0.485-0.311,1.133-0.176,1.447,0.311     c0.314,0.484,0.175,1.132-0.311,1.447C160.794,359.988,153.557,361.308,147.1,361.308z"/>
			<path style="fill:#261D2A;" d="M184.602,342.34c-0.294,0-0.587-0.125-0.795-0.366c-0.376-0.439-0.325-1.099,0.114-1.475     c13.148-11.263,10.202-24.283,10.171-24.411c-0.135-0.562,0.212-1.128,0.773-1.263c0.56-0.125,1.127,0.212,1.262,0.772     c0.14,0.582,3.265,14.403-10.845,26.492C185.086,342.258,184.844,342.34,184.602,342.34z"/>
			<path style="fill:#FDFDFF;" d="M151.258,229.569c-0.146,0-0.295-0.031-0.438-0.096c-0.524-0.243-0.753-0.864-0.511-1.389     c3.529-7.634-0.546-20.345-0.586-20.472c-0.18-0.55,0.121-1.14,0.669-1.32c0.554-0.178,1.14,0.123,1.319,0.67     c0.181,0.552,4.373,13.617,0.499,22C152.032,229.344,151.653,229.569,151.258,229.569z"/>
			<path style="fill:#FDFDFF;" d="M154.091,260.472c-0.051,0-0.103-0.004-0.155-0.012c-0.572-0.084-0.965-0.617-0.881-1.189     c0.601-4.013,9.361-18.206,10.359-19.812c0.304-0.49,0.95-0.642,1.441-0.337c0.491,0.305,0.642,0.95,0.337,1.441     c-2.646,4.26-9.613,15.983-10.066,19.019C155.047,260.1,154.6,260.472,154.091,260.472z"/>
			<path style="fill:#FDFDFF;" d="M127.641,267.462c-0.003,0-0.005,0-0.008,0c-0.577-0.004-1.042-0.476-1.038-1.054     c0.084-10.821-12.516-17.182-12.643-17.246c-0.518-0.255-0.73-0.883-0.475-1.402c0.257-0.517,0.883-0.727,1.401-0.474     c0.568,0.28,13.904,6.994,13.81,19.138C128.683,266.999,128.215,267.462,127.641,267.462z"/>
			<path style="fill:#FDFDFF;" d="M137.065,312.532c-0.211,0-0.423-0.063-0.608-0.196c-0.064-0.045-6.59-4.661-16.967-8.04     c-0.55-0.18-0.85-0.77-0.671-1.32c0.18-0.55,0.772-0.848,1.319-0.67c10.705,3.488,17.263,8.134,17.537,8.331     c0.47,0.335,0.578,0.989,0.242,1.459C137.712,312.379,137.391,312.532,137.065,312.532z"/>
			<path style="fill:#FDFDFF;" d="M165.607,299.277c-0.028,0-0.056-0.002-0.085-0.004c-0.575-0.045-1.005-0.55-0.959-1.126     c0.527-6.579,11.156-17.912,11.608-18.39c0.397-0.423,1.06-0.443,1.479-0.043c0.42,0.396,0.439,1.058,0.043,1.477     c-2.94,3.116-10.656,12.268-11.044,17.123C166.605,298.862,166.147,299.277,165.607,299.277z"/>
			<path style="fill:#FDFDFF;" d="M180.268,338.267c-0.048,0-0.097-0.004-0.147-0.01c-0.572-0.08-0.971-0.609-0.89-1.181     c0.617-4.383,9.545-18.627,10.561-20.235c0.311-0.49,0.954-0.635,1.444-0.327c0.488,0.309,0.634,0.954,0.326,1.443     c-2.694,4.268-9.788,16.077-10.258,19.409C181.229,337.889,180.78,338.267,180.268,338.267z"/>
			<path style="fill:#FDFDFF;" d="M154.533,351.22c-0.051,0-0.104-0.004-0.156-0.012c-0.208-0.033-20.844-3.112-27.7-1.387     c-0.556,0.137-1.129-0.2-1.269-0.762c-0.141-0.56,0.2-1.128,0.76-1.269c7.257-1.819,27.654,1.22,28.52,1.351     c0.572,0.086,0.965,0.619,0.88,1.189C155.488,350.848,155.042,351.22,154.533,351.22z"/>
		</g>
		<g>
			<path style="fill:#D37E3A;" d="M375.384,322.025c4.453-8.609,7.808-16.975,10.326-24.861c7.014,1.519,47.256,7.763,53.342-47.315     c0,0-35.481,7.206-49.479,32.898c0.572-2.635,1.058-5.189,1.461-7.64c1.047-6.367,1.632-12.348,1.906-17.847     c8.269-6.847,25.939-27.088-2.415-59.416c0,0-30.859,33.441-6.049,57.861c-0.355,7.946-1.393,17.026-3.619,26.825     c-0.478-14.801-5.595-38.837-32.97-44.424c0,0-11.986,42.434,29.984,55.563c-2.654,8.588-6.271,17.564-11.145,26.685     c0.285-15.339-4.718-38.648-35.48-47.399c0,0-6.971,53.187,27.392,60.851c-4.352,6.487-9.402,12.983-15.25,19.405     c2.092-13.587-0.49-33.723-28.209-46.412c0,0-14.136,43.503,16.532,58.114c-3.067,2.812-6.291,5.6-9.711,8.352     c-1.8,1.449-2.086,4.082-0.637,5.883c0.78,0.971,1.905,1.5,3.057,1.556c0.988,0.048,1.996-0.251,2.826-0.92     c4.024-3.238,7.798-6.521,11.35-9.832c4.915,3.677,40.307,28.127,71.164-5.431c0,0-34.901-20.943-60.678-5.113     c7.022-7.64,12.927-15.358,17.909-22.997c9.053,6.938,44.763,30.046,63.157-20.796     C430.146,315.615,400.191,299.479,375.384,322.025z"/>
			<path style="fill:#261D2A;" d="M388.023,251.96c-0.193,0-0.388-0.053-0.563-0.165c-0.486-0.311-0.628-0.958-0.318-1.445     c9.122-14.256,3.152-34.536,3.09-34.74c-0.168-0.552,0.145-1.136,0.699-1.304c0.546-0.17,1.135,0.143,1.304,0.699     c0.263,0.866,6.317,21.396-3.33,36.473C388.705,251.79,388.368,251.96,388.023,251.96z"/>
			<path style="fill:#261D2A;" d="M394.099,289.126c-0.488,0-0.925-0.343-1.025-0.84c-0.113-0.566,0.253-1.118,0.819-1.232     c12.871-2.587,29.001-24.152,29.162-24.369c0.346-0.462,1-0.558,1.463-0.217c0.464,0.343,0.561,0.999,0.217,1.463     c-0.678,0.915-16.772,22.43-30.429,25.174C394.237,289.12,394.167,289.126,394.099,289.126z"/>
			<path style="fill:#261D2A;" d="M372.35,283.923c-0.171,0-0.343-0.041-0.503-0.129c-12.599-6.919-13.127-28.778-13.144-29.706     c-0.01-0.578,0.449-1.054,1.028-1.065c0.529,0.023,1.053,0.45,1.064,1.028c0.004,0.215,0.525,21.573,12.059,27.908     c0.507,0.278,0.692,0.915,0.414,1.42C373.077,283.727,372.719,283.923,372.35,283.923z"/>
			<path style="fill:#261D2A;" d="M359.757,318.176c-0.207,0-0.417-0.061-0.6-0.19c-12.308-8.623-14.467-29.888-14.553-30.789     c-0.055-0.576,0.367-1.087,0.942-1.142c0.576-0.031,1.086,0.368,1.14,0.942c0.021,0.212,2.158,21.21,13.672,29.277     c0.473,0.331,0.587,0.983,0.256,1.457C360.41,318.02,360.087,318.176,359.757,318.176z"/>
			<path style="fill:#261D2A;" d="M388.105,329.941c-2.988,0-6.15-0.343-9.448-1.161c-0.561-0.139-0.903-0.707-0.764-1.267     c0.139-0.562,0.711-0.903,1.267-0.764c19.091,4.736,33.864-7.654,34.01-7.779c0.438-0.376,1.098-0.323,1.475,0.114     c0.375,0.439,0.323,1.101-0.116,1.475C413.997,321.014,403.337,329.941,388.105,329.941z"/>
			<path style="fill:#261D2A;" d="M376.017,372.46c-7.545,0-16.789-1.602-24.514-7.744c-0.453-0.36-0.527-1.018-0.168-1.471     c0.361-0.452,1.019-0.529,1.47-0.167c14.946,11.884,36.806,5.546,37.024,5.478c0.547-0.159,1.136,0.149,1.302,0.703     c0.165,0.554-0.149,1.136-0.702,1.302C389.95,370.705,383.915,372.46,376.017,372.46z"/>
			<path style="fill:#261D2A;" d="M335.745,349.706c-0.275,0-0.55-0.108-0.755-0.321c-12.867-13.404-8.411-26.855-8.216-27.421     c0.189-0.548,0.783-0.838,1.329-0.648c0.546,0.188,0.836,0.783,0.649,1.328c-0.177,0.519-4.199,12.846,7.748,25.29     c0.399,0.417,0.386,1.081-0.031,1.479C336.267,349.61,336.005,349.706,335.745,349.706z"/>
			<path style="fill:#FDFDFF;" d="M379.898,240.713c-0.432,0-0.838-0.27-0.988-0.701c-3.042-8.721,2.401-21.318,2.634-21.851     c0.232-0.529,0.851-0.764,1.378-0.537c0.529,0.231,0.77,0.848,0.538,1.377c-0.054,0.125-5.344,12.38-2.575,20.321     c0.19,0.546-0.098,1.142-0.644,1.332C380.129,240.695,380.012,240.713,379.898,240.713z"/>
			<path style="fill:#FDFDFF;" d="M374.073,271.194c-0.554,0-1.016-0.433-1.044-0.993c-0.155-3.065-5.95-15.409-8.169-19.906     c-0.257-0.519-0.043-1.146,0.475-1.402c0.519-0.257,1.146-0.041,1.401,0.474c0.837,1.696,8.177,16.675,8.384,20.727     c0.029,0.576-0.415,1.069-0.992,1.097C374.109,271.194,374.091,271.194,374.073,271.194z"/>
			<path style="fill:#FDFDFF;" d="M399.719,280.724c-0.032,0-0.062-0.002-0.095-0.004c-0.575-0.051-1-0.56-0.948-1.136     c1.087-12.096,15.013-17.483,15.606-17.705c0.54-0.2,1.142,0.067,1.348,0.609c0.203,0.539-0.069,1.144-0.609,1.349     c-0.133,0.051-13.292,5.155-14.26,15.936C400.711,280.315,400.254,280.724,399.719,280.724z"/>
			<path style="fill:#FDFDFF;" d="M385.956,324.661c-0.362,0-0.713-0.188-0.907-0.523c-0.288-0.501-0.117-1.14,0.383-1.428     c0.291-0.17,7.269-4.156,18.263-6.586c0.562-0.125,1.122,0.233,1.247,0.795c0.125,0.566-0.232,1.124-0.796,1.248     c-10.657,2.356-17.6,6.314-17.668,6.353C386.314,324.616,386.134,324.661,385.956,324.661z"/>
			<path style="fill:#FDFDFF;" d="M358.839,308.695c-0.006,0-0.012,0-0.018,0c-0.577-0.01-1.038-0.486-1.028-1.065     c0.086-4.871-6.704-14.728-9.328-18.114c-0.354-0.458-0.27-1.116,0.187-1.469c0.458-0.354,1.115-0.27,1.467,0.186     c0.404,0.521,9.882,12.832,9.766,19.434C359.875,308.239,359.409,308.695,358.839,308.695z"/>
			<path style="fill:#FDFDFF;" d="M340.455,346.075c-0.557,0-1.021-0.439-1.044-1.001c-0.143-3.363-6.056-15.805-8.322-20.315     c-0.259-0.517-0.051-1.146,0.465-1.404c0.519-0.266,1.146-0.051,1.405,0.464c0.854,1.7,8.355,16.743,8.543,21.165     c0.024,0.578-0.423,1.067-1.001,1.091C340.486,346.075,340.471,346.075,340.455,346.075z"/>
			<path style="fill:#FDFDFF;" d="M392.92,362.838c-0.116,0-0.235-0.018-0.351-0.061c-6.654-2.376-27.494-1.318-27.704-1.31     c-0.597,0.067-1.069-0.413-1.099-0.989c-0.03-0.578,0.414-1.071,0.991-1.099c0.872-0.049,21.469-1.087,28.516,1.428     c0.544,0.194,0.827,0.793,0.633,1.336C393.752,362.573,393.35,362.838,392.92,362.838z"/>
		</g>
		<path style="fill:#E8C01B;" d="M458.99,88.45c-0.09-1.054-0.163-1.857-0.187-2.37c-0.717-15.595-24.043-17.064-42.785-18.247    c-16.081-1.011-31.809-0.969-32.487-0.969c-0.381,0.002-0.758,0.024-1.129,0.061c-0.641-9.23-1.956-15.749-2.905-17.747    c-4.831-10.17-242.801-11.434-242.801-11.434c-0.967,5.714-1.7,11.194-2.262,16.497c-5.581-0.411-12.363-0.833-19.237-1.07    c-18.764-0.644-42.127-1.449-44.355,14.001c-0.073,0.507-0.225,1.3-0.417,2.342c-1.516,8.216-5.544,30.041-2.352,51.387    c4.377,29.264,20.489,47.528,46.595,52.814c7.467,1.512,14.118,2.148,20.092,2.148c15.049-0.002,25.769-4.034,34.276-8.237    c28.316,24.556,63.07,25.974,63.07,25.974l-0.795,13.914c0,0-34.713,1.798-29.544,30.02c5.855,31.973,32.811,73.494,32.811,73.494    l-2.296,23.966l-40.632,17.436l-2.365,48.536l138.206,4.332l2.32-47.597l-38.581-19.835l1.171-24.02    c0,0,24.438-39.567,32.513-76.184c5.885-26.686-40.624-29.346-40.624-29.346l0.664-13.615c26.456-1.949,45.973-10.318,60.3-22.137    c10.239,6.87,23.788,15.897,48.231,15.897c3.542,0,7.316-0.19,11.339-0.605c26.496-2.722,44.307-19.33,51.51-48.03    C461.586,118.891,459.7,96.776,458.99,88.45z M119.238,151.157c-25.36-5.135-34.33-30.247-26.68-74.659    c7.8-0.942,24.352-0.506,40.603,0.707c0.014,32.206,8.144,55.508,19.74,72.369C144.666,152.68,134.559,154.258,119.238,151.157z     M402.47,164.962c-21.224,2.176-31.951-3.357-41.363-9.503c14.462-20.339,19.885-45.075,21.279-65.64    c0.39,0.04,0.786,0.061,1.187,0.061c0.013,0,0.026,0,0.04,0c19.549-0.086,43.056,1.242,52.672,3.369    C439.578,138.196,428.209,162.315,402.47,164.962z"/>
		<path style="fill:#403955;" d="M112.874,390.827l287.372,13.906c2.774,10.71-0.483,69.524-0.483,69.524    s-290.423-10.911-290.265-14.146C109.655,456.875,112.874,390.827,112.874,390.827z"/>
		<path style="fill:#EEEBD5;" d="M177.015,404.954l164.561,7.953c1.537,7.186-0.614,46.739-0.614,46.739    s-166.323-5.925-166.217-8.101C174.851,449.37,177.015,404.954,177.015,404.954z"/>
		<path style="fill:#261D2A;" d="M335.177,454.271c-0.014,0-0.028,0-0.042,0c-102.621-3.988-155.236-6.647-156.385-7.901    c-0.189-0.206-0.297-0.501-0.284-0.78l1.601-32.838c0.029-0.578,0.507-1.089,1.096-0.993l154.112,7.462    c0.442,0.02,0.825,0.319,0.951,0.744c1.555,5.202,0.058,32.174-0.006,33.32C336.189,453.84,335.728,454.271,335.177,454.271z     M180.597,444.853c9.749,1.447,112.314,5.678,153.591,7.286c0.422-7.955,1.113-25.774,0.195-30.868l-152.277-7.374    L180.597,444.853z"/>
		<path style="fill:#D37E3A;" d="M155.573,46.851c0,0,204.655,4.583,202.6,9.874c-2.055,5.291-15.18,29.725-100.617,29.093    C164.147,85.127,155.573,46.851,155.573,46.851z"/>
		<path style="fill:#261D2A;" d="M262.116,102.315c-38.794,0-68.13-11.069-86.743-21.095c-23.146-12.47-35.207-26.109-35.327-26.246    c-0.38-0.435-0.336-1.095,0.099-1.475c0.432-0.382,1.094-0.339,1.476,0.098c0.469,0.535,47.913,53.463,137.949,45.885    c70.827-5.964,95.996-34.17,96.242-34.454c0.378-0.437,1.038-0.488,1.475-0.106c0.437,0.376,0.486,1.036,0.109,1.473    c-1.023,1.187-25.867,29.127-97.651,35.172C273.67,102.078,267.791,102.315,262.116,102.315z"/>
		<path style="fill:#261D2A;" d="M267.345,196.745c-17.326,0-35.12-2.08-35.362-2.109c-0.573-0.068-0.984-0.589-0.915-1.161    c0.068-0.574,0.587-0.989,1.163-0.915c0.327,0.039,32.922,3.848,52.578,1.103c0.571-0.082,1.101,0.319,1.181,0.891    c0.08,0.572-0.319,1.101-0.891,1.181C279.809,196.474,273.606,196.745,267.345,196.745z"/>
		<path style="fill:#261D2A;" d="M291.231,338.911c-0.017,0-0.035,0-0.052-0.002l-61.716-3.008    c-0.577-0.027-1.022-0.517-0.994-1.095c0.028-0.578,0.515-1.085,1.096-0.993l61.716,3.008c0.577,0.027,1.022,0.517,0.994,1.095    C292.247,338.476,291.785,338.911,291.231,338.911z"/>
		<path style="fill:#261D2A;" d="M292.402,314.892c-0.017,0-0.035,0-0.052-0.002l-57.822-2.818    c-0.577-0.026-1.022-0.517-0.994-1.095c0.029-0.576,0.522-1.04,1.096-0.993l57.822,2.818c0.577,0.027,1.022,0.517,0.994,1.095    C293.418,314.457,292.956,314.892,292.402,314.892z"/>
		<path style="fill:#261D2A;" d="M284.29,209.361c-0.005,0-0.01,0-0.015,0l-52.978-0.801c-0.578-0.008-1.039-0.484-1.031-1.062    c0.009-0.578,0.414-1.097,1.062-1.03l52.978,0.801c0.578,0.008,1.039,0.484,1.031,1.062    C285.327,208.903,284.861,209.361,284.29,209.361z"/>
		<path style="fill:#FDFDFF;" d="M269.381,366.228c-51.66,0-71.925-8.03-72.631-9.338c-0.197-0.366-0.16-0.83,0.095-1.156    s0.827-0.46,1.236-0.355c0.224,0.057,0.412,0.182,0.548,0.347c3.332,1.443,34.496,13.316,122.403,6.142    c0.564-0.037,1.081,0.382,1.128,0.956c0.047,0.576-0.382,1.081-0.958,1.128C301.221,365.583,284.036,366.228,269.381,366.228z"/>
		<path style="fill:#FDFDFF;" d="M304.422,273.172c-0.187,0-0.376-0.049-0.547-0.155c-0.492-0.302-0.647-0.946-0.344-1.439    c11.009-17.938,14.162-31.896,9.373-41.481c-5.341-10.691-19.108-12.103-19.247-12.115c-0.575-0.055-0.998-0.564-0.944-1.138    c0.054-0.574,0.562-0.956,1.137-0.946c0.612,0.057,15.045,1.516,20.919,13.247c5.145,10.278,1.965,24.922-9.453,43.529    C305.117,272.994,304.773,273.172,304.422,273.172z"/>
		<path style="fill:#FDFDFF;" d="M294.758,292.575c-0.217,0-0.435-0.067-0.622-0.206c-0.464-0.343-0.561-0.999-0.217-1.463    l7.609-10.251c0.345-0.466,1-0.56,1.463-0.217c0.464,0.343,0.561,0.999,0.217,1.463l-7.609,10.251    C295.393,292.43,295.077,292.575,294.758,292.575z"/>
		<path style="fill:#FDFDFF;" d="M304.033,166.333c-0.482,0-0.916-0.335-1.022-0.826c-0.121-0.566,0.238-1.122,0.803-1.244    c54.758-11.774,59.298-64.726,59.338-65.261c0.043-0.576,0.539-0.954,1.12-0.966c0.576,0.043,1.009,0.543,0.966,1.12    c-0.04,0.55-4.666,55.043-60.985,67.156C304.18,166.324,304.106,166.333,304.033,166.333z"/>
		<g>
			<path style="fill:#FDFDFF;" d="M163.416,135.481c-0.106,0-0.214-0.016-0.321-0.051c-5.344-1.723-6.49-6.13-6.349-8.218     c0.04-0.576,0.523-1.003,1.115-0.975c0.574,0.039,1.009,0.535,0.974,1.107c-0.01,0.182-0.187,4.454,4.902,6.095     c0.55,0.176,0.852,0.766,0.675,1.316C164.269,135.199,163.859,135.481,163.416,135.481z"/>
			<path style="fill:#FDFDFF;" d="M174.162,135.491c-0.106,0-0.215-0.016-0.321-0.051c-5.344-1.722-6.49-6.128-6.349-8.218     c0.04-0.576,0.54-1.014,1.115-0.973c0.574,0.039,1.009,0.535,0.974,1.109c-0.01,0.182-0.186,4.45,4.902,6.091     c0.55,0.176,0.852,0.766,0.675,1.316C175.015,135.209,174.605,135.491,174.162,135.491z"/>
			<path style="fill:#FDFDFF;" d="M173.699,148.347c-0.106,0-0.215-0.016-0.321-0.051c-5.344-1.722-6.49-6.128-6.349-8.218     c0.04-0.574,0.558-1.005,1.115-0.973c0.574,0.039,1.009,0.535,0.974,1.11c-0.01,0.182-0.186,4.45,4.902,6.091     c0.55,0.176,0.852,0.766,0.675,1.316C174.552,148.065,174.142,148.347,173.699,148.347z"/>
			<path style="fill:#FDFDFF;" d="M185.189,149.994c-0.106,0-0.215-0.016-0.321-0.051c-5.344-1.723-6.49-6.128-6.349-8.218     c0.04-0.576,0.549-1.02,1.115-0.973c0.574,0.039,1.009,0.535,0.974,1.11c-0.01,0.182-0.186,4.45,4.902,6.091     c0.55,0.176,0.852,0.766,0.675,1.316C186.042,149.712,185.631,149.994,185.189,149.994z"/>
			<path style="fill:#FDFDFF;" d="M185.428,137.336c-0.106,0-0.214-0.016-0.321-0.051c-5.344-1.723-6.49-6.13-6.348-8.22     c0.04-0.576,0.557-1.026,1.115-0.973c0.574,0.039,1.009,0.535,0.974,1.11c-0.01,0.18-0.188,4.452,4.902,6.093     c0.55,0.176,0.852,0.766,0.675,1.316C186.281,137.054,185.87,137.336,185.428,137.336z"/>
			<path style="fill:#FDFDFF;" d="M185.96,162.416c-0.106,0-0.214-0.016-0.321-0.051c-5.344-1.723-6.49-6.128-6.349-8.216     c0.04-0.578,0.519-1.022,1.115-0.975c0.574,0.039,1.009,0.535,0.974,1.107c-0.01,0.182-0.186,4.452,4.902,6.093     c0.55,0.176,0.852,0.766,0.675,1.316C186.813,162.134,186.403,162.416,185.96,162.416z"/>
			<path style="fill:#FDFDFF;" d="M196.984,160.325c-0.019,0-0.039,0-0.058-0.002c-5.844-0.317-8.171-4.121-8.586-6.087     c-0.12-0.566,0.242-1.122,0.808-1.24c0.564-0.112,1.117,0.239,1.238,0.803c0.046,0.2,1.025,4.13,6.654,4.436     c0.576,0.031,1.019,0.523,0.988,1.101C197.997,159.894,197.536,160.325,196.984,160.325z"/>
		</g>
		<path style="fill:#261D2A;" d="M324.826,62.642c-0.087,0-0.176-0.01-0.264-0.033c-23.574-6.11-145.915-5.562-147.146-5.562    c-0.002,0-0.003,0-0.005,0c-0.575,0-1.043-0.466-1.046-1.04c-0.003-0.578,0.463-1.05,1.041-1.052    c5.049-0.027,123.844-0.552,147.682,5.627c0.559,0.145,0.895,0.717,0.75,1.275C325.716,62.33,325.291,62.642,324.826,62.642z"/>
		<path style="fill:#261D2A;" d="M133.462,88.881c-0.529,0-0.984-0.4-1.039-0.938c-1.477-14.183,1.156-35.68,1.183-35.895    c0.072-0.572,0.59-0.987,1.167-0.909c0.573,0.071,0.981,0.595,0.909,1.167c-0.027,0.213-2.631,21.477-1.179,35.421    c0.06,0.574-0.357,1.089-0.932,1.148C133.535,88.879,133.498,88.881,133.462,88.881z"/>
		<path style="fill:#261D2A;" d="M381.195,102.469c-0.058,0-0.117-0.004-0.177-0.014c-0.569-0.098-0.952-0.638-0.855-1.208    c1.567-9.205,0.386-42.16,0.374-42.491c-0.021-0.578,0.429-1.062,1.007-1.085c0.545-0.031,1.062,0.429,1.083,1.007    c0.05,1.365,1.202,33.504-0.402,42.92C382.138,102.109,381.696,102.469,381.195,102.469z"/>
		<path style="fill:#261D2A;" d="M336.802,179.763c-0.358,0-0.707-0.184-0.902-0.515c-0.293-0.496-0.129-1.138,0.369-1.432    c4.125-2.436,20.292-20.366,28.264-29.508c0.382-0.435,1.043-0.48,1.476-0.1c0.435,0.38,0.48,1.04,0.101,1.477    c-0.95,1.089-23.334,26.719-28.777,29.933C337.166,179.716,336.983,179.763,336.802,179.763z"/>
		<path style="fill:#261D2A;" d="M168.981,168.584c-0.135,0-0.272-0.027-0.404-0.082c-8.395-3.51-21.122-25.915-21.66-26.867    c-0.284-0.503-0.106-1.142,0.396-1.426c0.506-0.282,1.14-0.104,1.426,0.396c0.128,0.227,12.908,22.732,20.645,25.969    c0.533,0.223,0.785,0.836,0.562,1.369C169.779,168.343,169.39,168.584,168.981,168.584z"/>
		<path style="fill:#FDFDFF;" d="M438.51,81.455c-0.208,0-0.419-0.061-0.602-0.19c-8.412-5.93-33.146-5.311-33.391-5.298    c-0.671,0.041-1.06-0.441-1.076-1.018c-0.015-0.576,0.439-1.059,1.017-1.075c1.042-0.024,25.676-0.648,34.656,5.678    c0.472,0.333,0.585,0.987,0.252,1.459C439.163,81.3,438.839,81.455,438.51,81.455z"/>
		<path style="fill:#FDFDFF;" d="M114.199,63.578c-0.068,0-0.137-0.006-0.207-0.02c-6.744-1.355-25.186-4.281-29.469-1.61    c-0.49,0.302-1.136,0.155-1.441-0.335c-0.306-0.49-0.156-1.136,0.334-1.443c5.763-3.59,28.424,0.823,30.989,1.336    c0.566,0.114,0.933,0.666,0.819,1.232C115.124,63.235,114.687,63.578,114.199,63.578z"/>
		<path style="fill:#261D2A;" d="M282.644,445.685c-1.521,0-2.566-0.355-3.249-1.079c-1.395-1.475-0.761-3.817-0.029-6.528    c1.083-4.009,2.31-8.551-2.241-11.453c-5.44-3.472-14.146,2.192-22.563,7.671c-7.092,4.616-13.776,8.958-19.152,8.494    c-6.868-0.619-6.735-6.077-6.617-10.891c0.106-4.34,0.206-8.441-3.865-10.112c-9.135-3.758-30.031,13.138-30.24,13.308    c-0.449,0.366-1.107,0.298-1.472-0.151c-0.365-0.447-0.297-1.105,0.15-1.471c0.897-0.729,22.078-17.836,32.357-13.623    c5.403,2.221,5.275,7.47,5.162,12.1c-0.13,5.309,0.024,8.333,4.713,8.756c4.655,0.421,11.34-3.946,17.823-8.163    c8.973-5.838,18.253-11.872,24.83-7.683c5.846,3.731,4.28,9.528,3.135,13.764c-0.521,1.929-1.06,3.923-0.47,4.546    c0.308,0.327,1.358,0.762,4.916,0.016c4.278-0.897,9.147-3.202,13.856-5.429c8.181-3.87,15.91-7.525,21.542-4.818    c2.96,1.422,4.942,4.407,6.059,9.125c0.134,0.562-0.215,1.126-0.776,1.259c-0.565,0.143-1.126-0.212-1.259-0.776    c-0.964-4.064-2.577-6.59-4.931-7.722c-4.735-2.272-12.363,1.332-19.74,4.824c-4.819,2.278-9.802,4.636-14.322,5.584    C284.832,445.533,283.636,445.685,282.644,445.685z"/>
		<path style="fill:#FDFDFF;" d="M127.025,441.527c-0.294,0-0.586-0.125-0.794-0.364c-0.376-0.439-0.326-1.099,0.112-1.475    l37.146-31.896c0.437-0.376,1.098-0.323,1.475,0.11c0.376,0.439,0.326,1.099-0.112,1.475l-37.145,31.896    C127.509,441.443,127.267,441.527,127.025,441.527z"/>
		<path style="fill:#FDFDFF;" d="M146.569,439.064c-0.291,0-0.58-0.121-0.788-0.358c-0.38-0.435-0.336-1.095,0.099-1.475    l14.545-12.73c0.433-0.38,1.093-0.339,1.476,0.098c0.38,0.435,0.336,1.095-0.099,1.475l-14.545,12.73    C147.06,438.978,146.814,439.064,146.569,439.064z"/>
		<path style="fill:#FDFDFF;" d="M350.627,442.291c-0.253,0-0.507-0.092-0.708-0.276c-0.425-0.39-0.454-1.052-0.062-1.477    l20.732-22.562c0.392-0.425,1.054-0.452,1.478-0.063c0.425,0.39,0.454,1.052,0.062,1.477l-20.733,22.562    C351.191,442.176,350.909,442.291,350.627,442.291z"/>
		<path style="fill:#FDFDFF;" d="M355.569,455.031c-0.239,0-0.48-0.082-0.677-0.249c-0.439-0.374-0.492-1.034-0.119-1.475    l29.474-34.636c0.376-0.441,1.035-0.492,1.475-0.118c0.439,0.374,0.492,1.034,0.119,1.475l-29.474,34.636    C356.159,454.906,355.865,455.031,355.569,455.031z"/>
	</g>
</g>
<g>
</g>
<g>
</g>
<g>
</g>
<g>
</g>
<g>
</g>
<g>
</g>
<g>
</g>
<g>
</g>
<g>
</g>
<g>
</g>
<g>
</g>
<g>
</g>
<g>
</g>
<g>
</g>
<g>
</g>
</svg>
