<?xml version="1.0" encoding="UTF-8"?>
<!-- Generator: Adobe Illustrator 25.4.1, SVG Export Plug-In . SVG Version: 6.00 Build 0)  -->
<svg xmlns="http://www.w3.org/2000/svg" xmlns:xlink="http://www.w3.org/1999/xlink" version="1.1" id="Capa_1" x="0px" y="0px" viewBox="0 0 512 512" style="enable-background:new 0 0 512 512;" xml:space="preserve" width="512" height="512">
<g>
	<g>
		<polygon style="fill:#9B5C50;" points="511.599,324.972 107.023,436.539 1.407,159.761 480.963,84.883   "/>
		<polygon style="fill:#002B59;" points="106.105,438.35 105.621,437.074 0,160.295 2.807,159.225 107.938,434.728 511.201,323.523     512,326.418   "/>
	</g>
	<g>
		<g>
			<path style="fill:#C6AA97;" d="M498.981,318.743L111.153,423.261L16.247,164.088c0,0,35.283-146.773,246.621-43.544     c0,0,78.828-119.745,213.593-39.788L498.981,318.743z"/>
			<path style="fill:#002B59;" d="M33.441,129.116c-0.952-0.197-0.262,0.303,0.158,1.333c0.653,1.612,1.279,3.235,1.914,4.856     c2.171,5.582,4.306,11.183,6.44,16.777c6.98,18.337,13.898,36.698,20.808,55.059c16.724,44.41,33.372,88.851,50.012,133.294     c6.193,16.561,12.391,33.131,18.587,49.692c0.435,1.186,2.632,0.238,3.149-0.393c13.482-16.467,32.59-29.448,51.476-38.751     c46.228-22.782,98.057-18.682,143.907,2.974c0.888,0.418,2.236-0.015,2.819-0.757c12.448-15.807,28.546-29.47,45.224-40.543     c34.925-23.182,76.681-30.79,115.125-11.258c0.967,0.492,3.957-0.899,2.59-1.597c-37.292-18.949-77.727-13.105-112.887,7.563     c-19.855,11.674-38.786,27.582-53.096,45.747c0.937-0.252,1.877-0.503,2.82-0.757c-46.394-21.911-97.986-25.703-145.119-4.028     c-20.595,9.473-41.397,23.606-55.903,41.319c1.051-0.129,2.102-0.261,3.156-0.392c-26.167-70.02-52.354-140.032-78.766-209.964     c-4.778-12.652-9.562-25.305-14.407-37.936c-0.747-1.955-3.532-13.52-6.018-14.035C34.373,127.105,31.576,128.732,33.441,129.116     L33.441,129.116z"/>
			
				<rect x="75.311" y="127.689" transform="matrix(0.9335 -0.3586 0.3586 0.9335 -87.8398 44.4303)" style="fill:#002B59;" width="1.129" height="262.728"/>
			
				<rect x="63.05" y="151.563" transform="matrix(0.9246 -0.3808 0.3808 0.9246 -87.7626 42.5388)" style="fill:#002B59;" width="1.128" height="182.961"/>
			
				<rect x="74.639" y="175.364" transform="matrix(0.9325 -0.3611 0.3611 0.9325 -99.0131 46.5997)" style="fill:#002B59;" width="1.125" height="225.819"/>
			
				<rect x="66.36" y="157.458" transform="matrix(0.934 -0.3573 0.3573 0.934 -97.8882 42.8105)" style="fill:#002B59;" width="1.122" height="257.757"/>
			<path style="fill:#002B59;" d="M134.489,408.665c8.159-10.892,16.954-21.097,27.688-29.538     c12.5-9.831,27.446-16.052,42.347-21.227c34.02-11.817,68.544-9.434,99.603,9.07c1.207,0.72,4.994-1.054,4.071-1.605     c-31.321-18.66-65.188-21.102-99.752-10.707c-15.594,4.692-30.948,11.229-44.524,20.267     c-13.333,8.879-23.909,21.117-33.436,33.832C129.436,410.161,133.749,409.648,134.489,408.665L134.489,408.665z"/>
			<path style="fill:#002B59;" d="M157.178,405.415c4.121-24.407,27.312-35.887,49.154-41.443     c21.916-5.577,46.094-6.627,68.453-3.187c1.286,0.2,5.117-1.877,2.693-2.253c-24.112-3.71-49.703-2.174-73.31,3.831     c-22.559,5.739-47.094,18.536-51.328,43.638C152.573,407.585,156.943,406.81,157.178,405.415L157.178,405.415z"/>
			<path style="fill:#002B59;" d="M168.167,403.329c20.352-38.53,76.874-39.357,114.191-32.302c1.039,0.198,4.81-1.477,3.569-1.711     c-39.35-7.443-100.516-6.002-122.053,34.764C163.522,404.742,167.578,404.443,168.167,403.329L168.167,403.329z"/>
			<path style="fill:#002B59;" d="M186.079,399.315c10.076-22.438,46.68-21.819,67.216-19.78c1.833,0.183,4.571-2.416,1.63-2.709     c-22.319-2.22-61.941-2.222-72.929,22.259C181.065,401.151,185.433,400.768,186.079,399.315L186.079,399.315z"/>
			<path style="fill:#002B59;" d="M346.843,355.264c26.721-47.519,90.45-62.803,140.214-47.832c0.965,0.289,4.798-1.283,3.584-1.647     c-51.726-15.563-120.265,0.8-148.082,50.269C342.272,356.561,346.239,356.337,346.843,355.264L346.843,355.264z"/>
			<path style="fill:#002B59;" d="M368.934,349.514c4.956-19.869,26.857-29.8,44.793-34.783c17.902-4.969,40.7-7.231,57.869,1.425     c1.914,0.968,4.976-1.819,2.471-3.085c-18.794-9.475-43.381-6.482-62.875-1.069c-19.272,5.351-41.452,16.816-46.68,37.786     C363.958,352.014,368.427,351.551,368.934,349.514L368.934,349.514z"/>
			<path style="fill:#002B59;" d="M381.906,344.348c4.694-13.967,21.73-18.59,34.641-21.106c12.324-2.394,25.405-3.254,37.915-2.001     c1.269,0.13,5.102-2,2.701-2.241c-15.166-1.518-30.834-0.156-45.664,3.19c-13.007,2.928-29.281,8.896-33.933,22.75     C377.106,346.318,381.444,345.732,381.906,344.348L381.906,344.348z"/>
			<path style="fill:#002B59;" d="M395.317,343.844c11.788-18.405,43.591-20.309,62.727-15.319c1.751,0.456,5.154-2.116,2.548-2.796     c-21.611-5.632-56.153-2.991-69.41,17.717C389.925,345.41,394.359,345.338,395.317,343.844L395.317,343.844z"/>
			<g>
				<polygon style="fill:#E24747;" points="49.404,128.219 122.973,114.412 147.501,172.972 69.924,195.998     "/>
				<path style="fill:#FFC33E;" d="M99.937,148.402c0.049,8.207,10.615,8.726,16.074,4.9c2.661-1.861,9.683-10.997,2.767-12.353      c-5.595-1.096-12.581,3.26-11.755,9.577c0.984,7.528,7.761,14.461,15.176,15.906c2.147-1.857,4.289-3.719,6.433-5.577      c-7.588-1.112-14.1,0.139-20.679,4.107c-3.074,1.854-5.795,4.332-8.614,6.543c-6.216,4.874-11.303,0.939-14.387-4.764      c-4.217-7.807-3.134-16.607,1.541-23.808c2.451-3.769,6.275-7.721,10.734-8.883c1.274-0.335,2.609-0.366,3.917-0.359      c2.241,0.009,4.858,4.781,2.347,5.397c1.62,0.016,3.237,0.033,4.855,0.049c-0.156-0.153-0.312-0.309-0.465-0.464      c-2.466,0.335-4.929,0.673-7.398,1.003c0.237,0.135,0.472,0.265,0.71,0.397c2.918,1.615,12.584-2.639,8.347-4.986      c-3.099-1.715-14.308,1.035-12.25,6.357c2.429,6.296,11.637,1.867,14.916-1.364c4.175-4.123,2.8-10.446-3.146-11.689      c-6.438-1.343-14.399-0.116-20.11,3.206c-13.652,7.945-22.843,25.405-13.264,40.094c4.311,6.615,10.855,9.095,18.567,7.964      c10.264-1.502,17.817-14.708,27.945-13.224c3.062,0.448,12.47-4.402,6.433-5.577c-3.601-0.7-6.22-3.582-8.431-6.305      c-1.118-1.38-4.647-8.017-1.989-9.438c-2.149,0.437-4.294,0.867-6.443,1.301c-1.942-0.381-1.328,6.873-1.375-0.809      C110.374,142.443,99.915,144.418,99.937,148.402L99.937,148.402z"/>
				<polygon style="fill:#FFC33E;" points="60.271,131.514 60.053,130.028 117.22,121.804 117.438,123.29     "/>
				
					<rect x="130.486" y="124.054" transform="matrix(0.9273 -0.3742 0.3742 0.9273 -45.1486 59.7328)" style="fill:#FFC33E;" width="1.502" height="44.139"/>
				
					<rect x="76.624" y="178.665" transform="matrix(0.9642 -0.2651 0.2651 0.9642 -43.7385 34.7954)" style="fill:#FFC33E;" width="60.795" height="1.502"/>
				
					<rect x="64.792" y="135.416" transform="matrix(0.9606 -0.2779 0.2779 0.9606 -42.1854 24.5618)" style="fill:#FFC33E;" width="1.504" height="51.332"/>
				<path style="fill:#FFC33E;" d="M55.99,135.314c-0.418-0.262-0.561-0.605-0.564-1.072c-0.007-1.096,1.182-0.074,1.375,0.317      c0.717,1.512-1.885,3.487-2.862,1.848c-0.487-0.814-0.114-1.954,0.361-2.674c1.301-1.976,4.14,0.333,5.55,0.966      c0.19-0.079,0.386-0.155,0.586-0.236c-1.425-0.172-2.125-1.235-2.485-2.525c-0.178-0.65-0.163-1.303,0.079-1.934      c0.361-0.944,0.648,0.339,0.66,0.641c0.131-0.066,0.262-0.135,0.396-0.202c-0.247-0.077-0.497-0.15-0.742-0.224      c-0.146-0.104-0.705,0.165-0.623,0.221c0.448,0.317,0.72,0.313,1.237,0.23c0.079-0.011,0.403-0.081,0.393-0.202      c-0.069-1.313-1.063-1.608-1.845-0.574c-1.318,1.73,0.502,4.59,2.382,4.817c0.109,0.012,0.695-0.186,0.591-0.234      c-2.06-0.923-4.318-2.804-6.477-1.023c-1.219,1.008-1.415,4.025,0.715,3.913c1.632-0.088,3.997-2.105,2.238-3.641      c-1.298-1.125-3.173,0.822-1.59,1.808C55.517,135.632,56.064,135.36,55.99,135.314L55.99,135.314z"/>
				<path style="fill:#FFC33E;" d="M75.956,190.518c-0.482,1.052-1.375,0.24-1.172-0.576c0.277-1.116,1.445-0.785,2.105-0.378      c0.908,0.555,1.37,1.95,0.532,2.758c-0.628,0.601-1.796,0.176-2.414-0.185c-0.601-0.355-0.868-1.014-1.012-1.663      c-0.309-1.433,0.809-3.085,1.214-4.418c-0.22,0.052-0.435,0.098-0.658,0.15c0.01,1.244-0.655,2.024-1.743,2.583      c-0.846,0.433-1.603,0.437-2.31-0.036c-0.754-0.502,0.774-1.175,0.104,0.078c-0.042,0.077,0.564,0.045,0.653-0.12      c0.21-0.396,0.237-0.589,0.106-1.039c-0.02-0.075-0.223-0.035-0.27-0.026c-0.524,0.102-1.298,0.208-1.486,0.801      c-0.24,0.767,1.388,0.91,1.783,0.91c1.823-0.013,3.838-1.423,3.826-3.327c0-0.112-0.618,0.019-0.655,0.146      c-0.49,1.613-1.514,3.135-1.138,4.876c0.245,1.13,1.427,1.683,2.461,1.784c1.655,0.171,3.191-0.937,2.389-2.687      c-0.685-1.515-3.107-1.731-4.012-0.381c-1.093,1.637,1.721,2.005,2.35,0.632C76.651,190.308,76.033,190.356,75.956,190.518      L75.956,190.518z"/>
				<path style="fill:#FFC33E;" d="M123.413,123.018c0.868-1.861-2.221-2.324-2.397-0.407c-0.188,2.006,2.755,2.564,4.064,1.52      c1.746-1.392-0.448-3.827-2.219-3.639c-2.493,0.268-3.109,2.499-4.348,4.321c-0.064,0.094,0.537-0.024,0.623-0.09      c1.642-1.312,1.313-4.227-0.453-5.315c-0.366-0.22-0.873-0.231-1.256-0.057c-0.677,0.307-0.383,0.939-0.089,1.467      c0.069,0.127,0.428-0.015,0.522-0.053c0.453-0.195,0.658-0.345,0.851-0.814c0.04-0.104-0.579-0.044-0.653,0.12      c-0.19,0.206-0.386,0.412-0.579,0.619c0.173-0.016,0.346-0.033,0.522-0.052c-0.19-0.341-0.586-1.401,0.272-0.878      c0.537,0.332,0.801,0.947,1.017,1.508c0.472,1.243,0.331,2.649-0.747,3.511c0.208-0.028,0.415-0.056,0.623-0.087      c0.616-0.909,1.054-1.925,1.689-2.824c1.214-1.717,3.225-1.098,4.051,0.493c0.215,0.417,0.215,0.881,0.052,1.308      c-0.468,1.199-2.023,0.671-2.743,0.124c-0.643-0.491-0.658-1.232-0.312-1.894c0.48-0.913,1.108,0.7,0.863,1.239      C122.721,123.228,123.339,123.18,123.413,123.018L123.413,123.018z"/>
				<path style="fill:#FFC33E;" d="M139.171,171.755c1.543,0.703,3.354-1.329,1.125-1.981c-2.011-0.587-3.04,2.251-2.206,3.664      c0.962,1.634,3.225,0.073,3.861-0.977c1.625-2.685-2.258-4.081-3.868-5.158c-0.114-0.077-0.702,0.129-0.646,0.199      c1.192,1.461,3.678,1.307,5.105,0.189c0.47-0.367,1.385-1.313,0.712-1.888c-0.416-0.357-1.38,0.198-1.729,0.395      c-0.018,0.01-0.092,0.057-0.077,0.093c0.185,0.419,0.299,0.552,0.744,0.73c0.178,0.073,0.678-0.198,0.623-0.22      c-0.561-0.225-0.049-0.68,0-0.414c0.052,0.267-0.146,0.565-0.275,0.782c-0.94,1.557-3.391,1.443-4.439,0.157      c-0.215,0.067-0.43,0.135-0.646,0.199c1.704,1.138,4.961,2.118,3.96,4.813c-0.205,0.556-0.655,1.007-1.135,1.328      c-0.997,0.664-1.682-0.483-1.882-1.214c-0.171-0.619,0.104-1.298,0.411-1.824c0.438-0.74,1.407-0.621,1.885,0.015      c0.363,0.481-0.337,1.146-0.896,0.891C139.621,171.457,139.116,171.728,139.171,171.755L139.171,171.755z"/>
				<path style="fill:#E24747;" d="M91.674,178.837c-1.284,0-2.577-0.174-3.826-0.524c-3.638-1.026-9.972-4.505-11.557-16.249      c-1.242-9.172,1.949-18.113,8.745-24.541c6.03-5.7,14.028-8.421,20.857-7.101c6.337,1.223,7.393,3.709,7.165,5.58      c-0.453,3.672-6.46,7.096-9.517,6.939c-1.383-0.074-2.241-0.818-2.29-1.99c-0.079-1.871,2.107-4.499,3.972-4.763      c0.458-0.064,1.996-0.109,2.533,2.071l-1.462,0.356c-0.25-1.024-0.68-0.969-0.861-0.941c-1.125,0.163-2.73,2.083-2.684,3.213      c0.008,0.178,0.025,0.511,0.871,0.555c2.691,0.157,7.63-3.029,7.947-5.625c0.292-2.356-3.608-3.465-5.956-3.922      c-6.366-1.227-13.858,1.347-19.541,6.721c-6.445,6.089-9.468,14.56-8.293,23.245c1.471,10.897,7.197,14.079,10.482,15.005      c4.788,1.35,10.239-0.284,13.252-3.981c4.768-5.838,13.776-9.474,17.726-10.853c-5.8-2.745-7.769-6.543-8.313-9.611      c-1.271,0.157-2.483,0.037-3.628-0.367c-3.443-1.214-4.959-4.536-5.026-4.678l1.373-0.611c0.015,0.027,1.333,2.885,4.167,3.879      c0.92,0.318,1.907,0.412,2.956,0.284c-0.161-3.738,1.533-7.138,3.309-8.247c1.108-0.695,2.543-0.705,3.732-0.027      c1.145,0.652,1.823,1.796,1.791,3.052c-0.027,1.383-0.885,3.448-4.786,5.447c-0.821,0.421-1.627,0.745-2.414,0.966      c0.517,2.975,2.612,6.774,9.243,9.302l2.09,0.799l-2.149,0.625c-0.129,0.041-13.108,3.889-18.908,10.994      C100.078,177.012,95.896,178.837,91.674,178.837z M115.937,143.651c-0.379,0-0.747,0.103-1.069,0.304      c-1.172,0.732-2.661,3.438-2.612,6.641c0.609-0.189,1.229-0.448,1.872-0.775c2.491-1.28,3.942-2.789,3.972-4.146      c0.012-0.7-0.376-1.339-1.039-1.717C116.703,143.756,116.32,143.651,115.937,143.651z"/>
			</g>
			<path style="fill:#002B59;" d="M145.675,122.213c0.06-1.146-0.067-2.274-0.376-3.379c-0.245-1.233-4.336-0.124-4.355,1.165     c-0.109,9.757,4.768,32.437,17.417,33.102c11.167,0.587,11.402-17.046,7.581-23.754c-0.638-1.135-4.002-0.213-4.336,0.915     c-2.451,8.335,3.245,19.35,12.109,20.445c9.307,1.15,15.52-8.584,19.24-15.484c-1.447,0.309-2.886,0.615-4.336,0.92     c2.34,4.353,4.071,12.919,10.464,12.795c3.433-0.069,6.628-1.012,9.698-2.577c4.066-2.071,7.806-4.48,12.441-5.314     c3.767-0.68,7.664-0.372,11.466-0.325c1.375,0.021,4.719-2.032,1.803-2.07c-7.009-0.098-14.169-0.324-20.637,2.838     c-4.761,2.327-12.554,8.515-16.697,2.212c-1.749-2.657-2.684-5.92-4.185-8.727c-0.69-1.284-3.811-0.053-4.336,0.917     c-3.368,6.244-10.266,17.691-18.349,9.576c-3.732-3.742-5.852-10.81-4.36-15.875c-1.444,0.307-2.891,0.61-4.336,0.918     c3.213,5.646,2.869,26.671-6.413,17.358c-6.668-6.683-9.987-19.831-9.878-29.035c-1.452,0.387-2.904,0.777-4.355,1.165     c0.314,1.105,0.44,2.231,0.378,3.379C141.352,124.418,145.712,123.649,145.675,122.213L145.675,122.213z"/>
			<path style="fill:#002B59;" d="M99.811,216.567c7.274,0.185,16.934-7.872,13.012-15.764c-2.778-5.582-11.229-0.224-13.039,3.225     c-4.108,7.828-4.071,18.828,0.383,26.484c4.84,8.318,15.337,6.348,22.606,2.899c10.326-4.901,17.444-17.2,17.538-28.368     c0.042-5.319-0.297-16.631-8.291-12.239c-7.672,4.212-7.205,19.25-2.473,25.085c2.008,2.473,6.611,2.843,9.393,1.838     c5.095-1.846,6.923-6.426,10.309-10.281c-1.395,0.219-2.783,0.432-4.172,0.644c3.93,7.014,8.394,9.228,15.656,4.667     c1.726-1.09,3.257-2.516,4.823-3.815c4.281-3.56,10.331-2.957,15.552-3.371c4.266-0.335,7.853-1.963,11.392-4.234     c1.934-1.245-2.468-1.019-3.408-0.415c-6.93,4.453-14.609,1.258-21.624,4.397c-1.976,0.884-3.581,1.872-5.322,3.209     c-0.975,0.811-1.949,1.619-2.928,2.431c-6.176,5.105-7.863-0.592-9.792-4.035c-0.683-1.223-3.49-0.125-4.172,0.644     c-1.66,1.893-2.956,4.034-4.44,6.061c-3.421,4.694-7.6,0.926-9.097-2.574c-2.34-5.465-1.333-13.29,1.954-18.128     c0.923-1.352,1.368,1.979,1.667,3.416c0.542,2.565,0.589,5.256,0.623,7.864c0.096,7.101-2.953,13.304-7.182,18.895     c-5.157,6.816-15.901,13.113-23.019,5.865c-3.403-3.458-4.252-9.116-4.504-13.729c-0.265-4.82,0.628-10.275,3.205-14.435     c1.709-2.757,4.049-1.723,4.724,1.184c0.93,4.003-3.277,10.589-7.585,10.478C100.204,214.429,96.888,216.49,99.811,216.567     L99.811,216.567z"/>
			<path style="fill:#002B59;" d="M204.094,201.344c5.953-10.383,4.13-24.881,0.982-36.028c-2.236-7.897-9.547-9.165-12.797-0.782     c-2.817,7.26-3.257,21.894,7.291,22.465c4.506,0.246,8.55-2.716,10.93-6.24c3.351-4.948,2.542-15.715,8.585-18.315     c-0.97-0.033-1.934-0.07-2.896-0.109c4.318,7.379-0.015,15.24-1.242,22.868c-0.554,3.444,0.049,10.623,4.187,11.882     c7.427,2.259,13.116-7.669,15.745-13.006c-1.407,0.161-2.809,0.324-4.214,0.487c0.48,5.652,0.858,14.397,8.795,12.339     c5.99-1.547,6.178-11.403,5.315-16.132c-0.312-1.707-4.031-0.41-4.358,0.831c-3.324,12.731,14.575,10.149,17.122-0.12     c-1.298,0.45-2.597,0.899-3.895,1.346c2.891,1.758,4.509,2.958,7.826,2.826c2.238-0.09,3.544-2.712,0.547-2.592     c-1.798,0.071-3.512-1.567-4.939-2.432c-1.086-0.664-3.566,0.021-3.895,1.347c-1.813,7.28-10.519,7.249-8.402-0.869     c-1.452,0.276-2.904,0.553-4.358,0.828c0.618,3.381,0.208,6.842-0.685,10.13c-1.63,5.978-4.16-2.639-4.303-3.566     c-0.265-1.678-0.277-3.406-0.418-5.1c-0.136-1.609-3.769-0.422-4.217,0.485c-1.247,2.544-2.728,4.901-4.405,7.178     c-5.958,8.07-7.543-3.469-6.762-8.337c1.276-7.956,5.051-14.518,0.579-22.144c-0.482-0.827-2.26-0.382-2.896-0.108     c-5.595,2.401-6.792,8.132-8.31,13.514c-1.415,5.015-7.872,15.789-12.562,6.83c-1.84-3.522-1.61-8.146-1.125-11.932     c0.309-2.377,1.909-9.988,4.197-5.65c1.531,2.911,2.087,6.463,2.678,9.656c1.714,9.173,2.602,19.928-2.174,28.266     C198.942,203.036,203.332,202.674,204.094,201.344L204.094,201.344z"/>
			<path style="fill:#002B59;" d="M248.464,173.208c5.844,4.765,12.826-1.969,15.307-7.182c0.925-1.93-3.43-1.438-4.061-0.124     c-1.083,2.274-4.237,8.008-7.212,5.585C251.276,170.492,247.23,172.205,248.464,173.208L248.464,173.208z"/>
			<path style="fill:#002B59;" d="M207.26,229.212c0.527-3.484-0.799-10.78-4.264-12.652c-1.633-0.88-7.412-2.833-7.677,0.981     c-0.762,11.084,14.545,6.542,19.682,4.356c3.621-1.535,22.583-12.614,13.652-18.452c-7.528-4.924-14.523,9.901-16.863,14.632     c-3.806,7.705-6.252,19.699-2.162,27.692c4.373,8.529,15.705,7.363,20.484-0.176c2.382-3.763,4.546-8.784,2.483-13.135     c-1.506-3.188-6.483-3.766-9.374-2.419c-8.271,3.851-4.652,17.953,3.156,19.925c9.22,2.331,17.619-10.924,10.714-17.737     c-0.96-0.945-2.985-0.691-3.804,0.359c-3.866,4.981,0.178,11.256,6.463,10.704c7.148-0.631,9.062-8.529,8.797-14.451     c-0.096-2.168-4.237-1.456-4.393,0.382c-0.497,5.779,2.911,9.804,8.951,9.537c2.973-0.129,6.03-0.772,8.555-2.442     c2.248-1.485,4.046-3.33,6.114-5.055c1.425-1.188,5.417,1.557,6.955,2.168c1.721,0.684,5.088-1.781,2.555-2.791     c-3.735-1.485-6.656-4.566-10.739-2.144c-3.096,1.836-5.303,4.719-8.506,6.391c-5.263,2.745-9.974-0.451-9.492-6.045     c-1.467,0.125-2.931,0.256-4.393,0.382c0.069,1.565,0.015,3.044-0.151,4.604c-0.19,1.485-0.628,2.904-1.316,4.249     c-6.196,1.204-8.125-0.241-5.8-4.343c-1.264,0.123-2.53,0.239-3.796,0.36c3.433,3.386,2.577,7.525-0.292,11.036     c-5.013,6.138-8.518-1.191-9.386-4.53c-0.267-1.226-0.354-2.475-0.265-3.732c0.037-1.343,2.357-9.027,5.553-2.278     c1.365,2.885-0.611,6.887-1.954,9.386c-4.59,8.576-12.446,3.851-14.095-3.487c-1.177-5.248-0.212-11.151,1.086-16.287     c0.96-3.788,2.889-7.282,4.813-10.66c1.343-2.357,2.901-4.569,4.722-6.589c1.773-1.965,2.748-0.531,2.721,1.563     c-0.02,1.621-1.341,3.05-2.33,4.181c-4.019,4.606-10.887,7.435-16.65,8.965c-2.837,0.757-5.273-0.612-6.962-2.238     c2.132,2.053,3.23,7.414,2.812,10.175C202.545,231.69,206.98,231.048,207.26,229.212L207.26,229.212z"/>
			<path style="fill:#002B59;" d="M125.667,310.793c-8.894,4.6-4.484,24.275,5.938,23.373c10.682-0.925,13.032-20.587,7.135-27.243     c-0.975-1.096-3.487-0.594-4.069,0.733c-3.025,6.958-0.475,23.229,9.354,23.78c11.055,0.62,16.158-12.71,12.908-21.907     c-0.606-1.714-4.257-0.935-4.373,0.772c-0.354,5.2,2.827,10.14,8.182,10.699c5.416,0.565,7.43-4.704,8.847-8.807     c-1.353,0.242-2.708,0.487-4.064,0.728c2.731,2.654,4.858,3.448,8.565,2.526c1.417-0.352,2.82-1.36,4.056-2.101     c4.729-2.824,10.004-1.288,15.06-1.73c2.372-0.208,3.413-3.274,0.43-3.01c-3.826,0.33-8.857-1.207-12.606,0.103     c-3.044,1.065-8.434,5.331-11.508,2.343c-0.977-0.947-3.562-0.725-4.066,0.731c-0.495,1.417-0.972,2.823-1.538,4.217     c-2.656,6.518-7.106-3.98-6.96-6.079c-1.459,0.26-2.918,0.514-4.378,0.774c1.949,5.513-1.39,24.104-10.284,15.721     c-4.338-4.088-5.807-13.007-3.487-18.355c-1.36,0.246-2.711,0.487-4.068,0.731c4.101,4.624,2.681,13.504,0.571,18.718     c-4.224,10.42-15.601-10.269-7.769-14.326C130.19,311.816,127.801,309.686,125.667,310.793L125.667,310.793z"/>
			<path style="fill:#002B59;" d="M205.197,302.892c7.744-0.683,8.008-10.177,5.417-15.887c-0.707-1.561-3.549-0.827-4.232,0.428     c-5.137,9.445,6.28,20.558,14.513,11.985c7.343-7.646,5.52-24.872,2.105-33.948c-1.521-4.056-4.526-6.147-8.451-3.793     c-3.957,2.367-1.405,11.478-0.727,14.828c2.649,13.07,17.288,20.743,26.808,9.341c1.726-2.064-2.461-2.356-3.571-1.024     c-8.689,10.406-17.441-2.348-19.123-10.666c-0.668-3.291-1.16-6.655-0.683-9.999c-0.166,1.181,2.706,6.391,3.109,8.125     c1.214,5.256,0.93,10.988,0.309,16.295c-0.376,3.226-1.249,6.364-2.884,9.179c-4.014,6.903-9.406-6.125-7.289-10.013     c-1.412,0.142-2.825,0.285-4.234,0.428c0.866,1.905,3.183,11.556-0.586,11.888C203.372,300.263,202.206,303.157,205.197,302.892     L205.197,302.892z"/>
			<path style="fill:#002B59;" d="M249.916,251.856c-9.947-8.566-10.521,16.703-10.338,20.884     c0.529,12.07,16.801,21.97,22.205,7.531c1.64-4.399,2.07-14.333-2.562-17.229c-5.34-3.349-6.995,5.169-6.688,8.264     c0.532,5.366,3.755,14.566,10.63,13.461c6.351-1.023,7.727-10.775,7.905-15.768c-1.454,0.258-2.908,0.517-4.368,0.778     c1.622,3.933,3.492,8,8.35,6.546c2.347-0.703,4.264-2.81,6.101-4.311c1.464-1.204,3.035-2.262,4.88-2.739     c0.564-0.145,7.417-0.61,7.43-0.646c-0.819,2.282,3.529,2.055,4.128,0.383c1.583-4.401-6.903-3.252-9.04-3.036     c-2.678,0.271-5.31,0.895-7.585,2.389c-1.726,1.133-3.307,2.388-4.882,3.719c-3.109,2.617-3.88-0.679-5.031-3.472     c-0.663-1.606-4.309-0.961-4.368,0.78c-0.148,4.112-0.853,8.619-3.324,12.024c-2.112,2.907-6.027-8.923-6.198-9.657     c-0.23-0.99,0.049-4.531-0.007-4.662c0.739,1.569,0.888,3.505,1.105,5.199c0.425,3.326-0.03,13.543-5.963,12.219     c-6.806-1.526-8.461-10.809-8.357-16.578c0.052-2.949,0.302-5.886,0.712-8.807c0.166-1.166,0.433-2.31,0.722-3.451     c0.601-2.373,0.25-2.215,1.165-1.427C247.883,255.407,251.758,253.438,249.916,251.856L249.916,251.856z"/>
			<path style="fill:#002B59;" d="M169.033,336.891c8.209,1.693,14.268-3.909,16.326-11.585c0.767-2.87,1.66-15.972-5.248-10.197     c-5.706,4.769-3.685,18.09,3.807,20.156c9.124,2.515,18.844-9.614,19.972-17.422c-1.472,0.1-2.943,0.198-4.417,0.303     c-0.045,6.845,4.138,9.573,10.746,8.076c12.413-2.807,23.773-11.645,36.894-9.98c2.201,0.281,4.417-2.881,1.484-3.256     c-8.055-1.025-15.285,1.278-22.687,4.242c-4.998,2-22.091,11.582-22.019,0.614c0.017-2.374-4.13-1.687-4.417,0.303     c-0.668,4.617-8.328,17.191-14.61,13.489c-5.471-3.223-1.452-10.17-3.294-14.272c3.025,6.725-3.858,17.757-11.055,16.268     C168.313,333.18,166.144,336.291,169.033,336.891L169.033,336.891z"/>
			<path style="fill:#002B59;" d="M105.932,284.381c6.24-2.178,6.556-9.482,6.42-15.171c-0.133-5.618-0.935-15.996-6.567-19.192     c-1.157-0.659-3.588-0.09-3.895,1.376c-1.731,8.404-0.542,22.582,6.136,28.69c8.078,7.399,12.712-5.761,13.262-11.481     c-1.402,0.376-2.8,0.75-4.195,1.124c6.72,10.748,15.243,9.49,22.452-0.005c1.316-1.736-3.124-1.607-4.11-0.304     c-2.721,3.586-6.72,7.004-10.845,3.254c-1.445-1.308-2.471-3.134-3.49-4.757c-0.789-1.269-4.061-0.286-4.195,1.12     c-0.26,2.761-0.675,5.451-1.739,8.028c-2.325,5.635-6.618-4.179-7.225-5.97c-2.06-6.12-2.98-13.78-1.669-20.133     c-1.299,0.459-2.597,0.915-3.895,1.378c3.975,2.252,4.727,9.627,5.278,13.638c0.391,2.808,1.608,14.405-2.421,15.811     C102.687,282.675,103.316,285.295,105.932,284.381L105.932,284.381z"/>
			<path style="fill:#002B59;" d="M153.81,263.024c-9.505-1.528-11.023-16.373-9.314-23.982c0.858-3.846,6.712-14.856,9.223-6.32     c1.348,4.598-0.838,10.014-1.956,14.451c-1.101,4.336-3.735,15.73,3.841,16.403c7.294,0.647,10.101-6.942,14.068-11.558     c-1.313,0.037-2.629,0.079-3.947,0.115c2.134,5.823,2.218,11.843,9.831,7.968c5.105-2.6,6.759-12.888,3.735-17.328     c-0.789-1.159-3.537-0.275-4.059,0.772c-5.411,10.978,11.419,16.591,12.871,5.522c-1.397,0.375-2.792,0.752-4.195,1.127     c3.735,4.292,8.523,2.687,12.779-0.116c2.468-1.626-1.239-2.565-2.773-1.553c-1.996-0.04-3.992-0.076-5.988-0.118     c-0.927-1.062-4.002-0.35-4.197,1.127c-0.648,4.953-7.096-0.286-4.4-5.742c-1.353,0.256-2.703,0.511-4.056,0.769     c2.342,3.438,0.641,8.916-0.989,12.287c-2.112,4.374-3.913-5.084-4.209-5.879c-0.527-1.436-3.21-0.747-3.952,0.117     c-2.11,2.461-8.392,13.775-11.063,6.677c-1.922-5.101,1.655-13.054,2.81-18.063c1.313-5.692,0.322-15.779-7.729-13.231     c-14.607,4.619-14.632,36.611,1.066,39.138C152.761,265.853,156.352,263.432,153.81,263.024L153.81,263.024z"/>
			<path style="fill:#002B59;" d="M185.673,241.401c2.154-2.307,2.75-5.389,2.792-8.451c0.02-1.153-4.326-0.408-4.351,1.166     c-0.04,2.643-0.613,5.337-2.461,7.316c-0.725,0.777,0.613,1.119,1.135,1.116C183.823,242.538,184.958,242.172,185.673,241.401     L185.673,241.401z"/>
			<g>
				<path style="fill:#002B59;" d="M296.604,162.644c-6.102,15.353,3.987,37.457,21.604,37.969      c15.671,0.455,37.264-8.948,39.787-26.258c0.144-0.941-1.4-0.855-1.969-0.738c-8.421,1.724-15.839,2.896-23.894-1.044      c-6.176-3.03-11.365-7.992-15.777-13.171c-8.528-10.029-13.326-23.676-11.09-36.777c0.257-1.514-4.479-0.657-4.711,0.71      c-2.612,15.348,3.984,29.869,14.226,41.035c4.759,5.188,10.694,9.16,17.13,11.927c7.818,3.361,15.431,1.135,23.348-0.492      c-0.655-0.243-1.313-0.492-1.969-0.736c-2.285,15.656-21.297,25.071-35.815,22.886c-14.533-2.186-20.953-23.965-16.165-36.027      C301.79,160.715,297.153,161.262,296.604,162.644L296.604,162.644z"/>
				<path style="fill:#002B59;" d="M316.273,185.423c-7.294,0.091-8.983-6.852-9.675-12.568c-0.675-5.6,2.983-10.115,6.539-13.876      c4.519-4.778,8.11-8.979,10.773-15.018c3.982-9.018,10.289-28.083-3.143-32.118c-1.115-0.337-4.533,1.528-4.202,1.647      c8.726,3.072,16.356,8.653,18.05,18.197c0.67,3.752-3.685,19.356,2.394,20.538c3.255,0.634,6.23-0.772,8.679-2.823      c6.26-5.232,7.712-13.245,5.34-20.56c-1.583,0.423-3.161,0.846-4.741,1.268c4.323,5.011,10.017,9.14,9.74,16.32      c-0.245,6.298-6.228,10.982-6.151,17.361c0.049,3.972,6.542,5.326,9.529,5.044c4.662-0.439,8.946-2.139,12.834-4.719      c3.522-2.337,6.361-5.924,4.951-10.251c-1.142-3.518-5.434-4.223-8.513-3.381c-7.126,1.954-10.244,9.092-0.213,7.666      c1.096-0.156,5.172-2.169,2.1-1.734c-8.82,1.26-2.597-4.767-0.754-4.104c3.292,1.191,3.517,5.148,2.443,7.786      c-3.463,8.485-21.228,9.312-16.556-2.408c1.944-4.892,4.927-8.889,5.137-14.333c0.22-5.674-6.527-10.715-9.806-14.515      c-0.658-0.761-5.036,0.354-4.741,1.268c2.045,6.296,1.209,11.08-2.409,16.577c-5.941,9.025-4.788-8.285-4.536-11.011      c1.123-12.275-7.516-19.952-18.292-23.748c-1.402,0.554-2.802,1.102-4.202,1.651c14.726,4.423,4.256,29.008-0.735,37.517      c-3.816,6.521-12.92,11.053-13.996,19.148c-1.069,7.958,1.946,17.085,11.046,16.973      C314.065,187.203,318.522,185.395,316.273,185.423L316.273,185.423z"/>
			</g>
			<path style="fill:#002B59;" d="M392.752,113.773c1.447-1.277,2.891-2.55,4.343-3.829c1.316,1.075,2.31,2.405,2.993,3.995     c1.509,2.897,0.888,6.082-0.977,8.617c-4.655,6.333-15.606,1.869-18.854-3.329c-5.516-8.825,1.922-18.835,10.417-21.387     c10.818-3.246,21.329,4.72,22.675,15.465c1.917,15.266-17.214,24.868-29.744,21.281c-11.236-3.214-16.45-15.057-13.764-25.832     c2.914-11.702,16.217-18.54,27.307-19.363c26.731-1.977,21.653,25.418,17.869,42.264c-0.361,1.598,3.252,0.569,3.791,0.234     c6.327-3.953,12.661-7.91,18.99-11.864c-1.207-0.181-2.419-0.363-3.621-0.541c-8.518,10.082-17.033,20.172-25.546,30.256     c-1.279,1.512,2.594,0.997,3.084,0.8c8.513-3.463,17.031-6.923,25.547-10.385c-1.032-0.267-2.053-0.534-3.084-0.801     c-10.086,12.742-20.177,25.489-30.263,38.23c-1.207,1.525,3.515,1.03,4.373-0.054c10.086-12.741,20.172-25.484,30.26-38.228     c1.229-1.553-2.572-1.011-3.087-0.799c-8.51,3.459-17.028,6.921-25.541,10.384c1.026,0.267,2.055,0.529,3.082,0.798     c8.515-10.084,17.033-20.172,25.546-30.254c1.338-1.578-3.037-0.911-3.618-0.546c-6.332,3.955-12.661,7.907-18.99,11.861     c1.264,0.079,2.528,0.16,3.794,0.235c2.555-11.361,7.036-25.584,0.163-36.244c-6.507-10.079-23.592-8.906-33.253-5.287     c-12.062,4.521-22.455,13.649-22.373,27.372c0.087,15.073,15.295,22.29,28.41,20.999c11.426-1.12,25.574-11.46,25.428-23.971     c-0.154-13.467-12.347-20.1-24.468-18.787c-8.943,0.961-19.929,7.798-19.734,17.883c0.242,12.422,12.141,17.001,22.902,13.778     c8.29-2.48,11.142-10.32,5.956-17.351c-4.356-5.901-17.58-2.262-14.761,5.67C388.537,116.531,393.231,115.132,392.752,113.773     L392.752,113.773z"/>
			<path style="fill:#002B59;" d="M372.407,267.967c7.148-3.162,6.064-11.775-2.073-12.348c-7.491-0.527-16.699,8.159-10.672,14.983     c5.926,6.714,18.134,3.391,23.585-1.794c10.108-9.609-8.98-19.157-16.759-18.947c-0.462,0.697-0.93,1.401-1.39,2.101     c18.099-3.737,22.294-19.848,22.44-36.46c0.012-1.142-4.398-0.04-4.724,1.014c-1.776,5.815-4.632,10.45-9.467,14.262     c-2.073,1.636-4.736,2.836-7.155,3.845c-6.846,2.848-5.417-4.041-4.402-6.927c1.682-4.764,3.188-7.521,1.063-12.504     c-1.978-4.641-5.788-8.438-9.965-11.1c-0.819-0.523-4.969,0.057-4.593,1.481c2.34,8.858-8.461,13.828-10.39,22.091     c-1.88,8.048,5.99,13.824,12.347,16.403c0.777-0.672,1.551-1.344,2.332-2.013c-6.168,0.721-10.82,1.014-15.977-3.012     c-3.124-2.44-4.474-7.004-5.963-10.526c-0.517-1.212-4.481-0.111-4.724,1.013c-1.793,8.368-4.16,18.353,0.433,26.224     c3.569,6.104,11.874,6.819,18.038,5.252c3.544-0.9,14.491-4.701,9.373-10.063c-2.184-2.29-13.076-2.373-10.61,2.451     c0.678,1.326,5.228-0.308,4.734-1.27c-0.92-1.815,2.134,1.593,2.318,2.134c1.355,3.989-6.542,5.146-9.047,5.351     c-5.125,0.422-9.443-3.35-11.377-7.688c-3.119-6.979-0.68-16.055,0.839-23.147c-1.576,0.339-3.143,0.674-4.719,1.01     c2.273,5.353,4.506,11.342,10.4,13.698c5.216,2.09,10.044,1.249,15.48,0.611c0.505-0.061,4.002-1.333,2.325-2.013     c-10.234-4.146-15.357-13.824-7.511-23.224c3.96-4.752,8.224-7.807,6.443-14.55c-1.528,0.496-3.059,0.985-4.598,1.48     c4.291,2.734,7.284,6.156,9.671,10.673c2.221,4.202,0.705,7.997-1.017,11.994c-1.949,4.556-0.945,9.298,4.615,9.035     c11.995-0.565,22.489-10.874,25.811-21.726c-1.578,0.335-3.149,0.673-4.719,1.01c-0.111,12.387-1.974,30.068-16.902,33.152     c-1.207,0.247-4.43,2.181-1.395,2.102c5.211-0.137,9.527,2.293,13.269,5.642c5.901,5.282,2.488,14.501-6.223,14.295     c-4.84-0.112-10.081-3.584-9.158-8.867c2.03-11.595,16.215,0,8.3,3.507C367.631,267.96,370.515,268.808,372.407,267.967     L372.407,267.967z"/>
			<g>
				<path style="fill:#002B59;" d="M407.089,222.307c1.13-0.498,2.263-0.998,3.398-1.498c2.1,3.557,1.15,6.193-2.852,7.914      c-3.228,1.563-7.402,1.018-9.992-1.365c-5.896-5.429,2.758-12.003,7.514-12.646c9.458-1.277,16.445,6.688,25.064,9.004      c8.278,2.223,15.779,1.749,23.906-0.833c5.849-1.864,12.334-3.277,16.687-7.921c3.361-3.585,0.91-9.518-3.467-10.906      c-4.806-1.526-9.703,0.215-13.524,3.46c-9.114,7.72,4.514,10.168,8.904,3.825c0.089-0.13,0.146-0.362-0.002-0.483      c-1.348-1.049-1.051-0.95-2.689-1.231c-0.744-0.125-2.797,1.048-1.457,1.281c-8.696-1.483-3.359-3.135,1.061-5.314      c8.278-4.087,12.745,5.289,8.29,10.039c-3.354,3.579-9.591,4.708-14.117,6.073c-14.078,4.247-24.339,0.586-36.471-6.324      c-7.021-4.002-20.55-3.046-23.244,5.84c-3.114,10.248,11.733,11.933,17.315,6.835c8.874-8.1-7.452-13.573-7.425-5.175      c0.042,0.119,0.124,0.202,0.24,0.251c0.324,0.105,0.648,0.21,0.972,0.314C405.912,223.68,408.059,222.623,407.089,222.307      L407.089,222.307z"/>
				<path style="fill:#002B59;" d="M436.867,191.252c-4.036,8.437-6.208,3.042-6.829-1.425c-0.905-6.575,5.424-11.89,10.944-6.568      c6.008,5.789,1.083,16.845-3.111,21.896c-5.78,6.944-10.266,16.211-9.955,25.425c0.232,6.85,1.046,16.922,4.704,22.927      c2.693,4.418,6.426,5.403,11.036,3.282c5.884-2.708,4.711-9.428,2.736-14.148c-5.046-12.039-14.704-0.911-7.558,5.566      c0.502,0.454,1.618,0.151,2.05-0.272c1.222-1.198,1.091-0.91,1.581-2.493c0.257-0.826-2.122-0.496-2.372,0.297      c-0.366,0.607-0.737,1.212-1.105,1.818c0.683-0.09,1.368-0.183,2.048-0.273c-4.373-3.966-1.056-11.874,2.985-4.008      c0.752,1.463,1.175,3.079,1.59,4.658c1.375,5.263-6.149,10.652-9.994,5.954c-5.041-6.16-5.765-21.127-5.021-28.362      c0.616-5.979,3.45-11.534,6.653-16.505c2.021-3.143,5.055-5.711,6.539-9.187c2.362-5.55,3.243-12.402-0.603-17.497      c-2.501-3.315-7.971-3.454-11.409-1.828c-4.469,2.111-4.595,8.55-3.599,12.601c0.809,3.261,4.571,6.799,8.186,5.107      c3.618-1.69,6.485-7.777,0.571-8.544c-0.529-0.068-1.561,0.048-1.833,0.617c-0.143,0.307-0.294,0.614-0.44,0.915      C434.172,192.236,436.538,191.94,436.867,191.252L436.867,191.252z"/>
				<path style="fill:#002B59;" d="M449.491,219.402c-0.646,12.009-11.627,20.841-23.55,14.663      c-5.948-3.082-8.77-9.579-9.114-15.931c-0.665-12.36,12.787-20.241,23.548-14.661      C446.323,206.554,449.149,213.046,449.491,219.402c0.059,1.104,4.823,0.239,4.741-1.269      c-1.422-26.44-40.789-23.884-42.145,1.269c-0.635,11.755,11.676,20.792,22.709,18.991c10.791-1.755,18.827-8.967,19.435-20.26      C454.282,217.164,449.575,217.833,449.491,219.402z"/>
			</g>
		</g>
		<g>
			<polygon style="fill:#E24747;" points="256.505,114.412 329.453,345.724 319.993,381.704 377.531,458.76 379.735,434.769      419.735,434.769 339.769,379.086 342.542,338.584 263.764,114.412    "/>
			<path style="fill:#FFC33E;" d="M373.851,448.747l-45.629-60.916l10.843-3.536l65.841,45.686h-26.773L373.851,448.747z      M330.68,388.608l42.429,56.64l3.821-16.767h23.179l-61.285-42.528L330.68,388.608z"/>
			<g>
				<polygon style="fill:#FFC33E;" points="261.147,119.252 260.902,118.541 262.327,118.059 262.572,118.768     "/>
				<path style="fill:#FFC33E;" d="M329.431,378.166l-1.459-0.343l0.341-1.458l1.462,0.342L329.431,378.166z M330.119,375.251      l-1.462-0.345l0.341-1.459l1.464,0.346L330.119,375.251z M330.806,372.334l-1.462-0.345l0.344-1.456l1.464,0.341      L330.806,372.334z M331.496,369.417l-1.464-0.341l0.341-1.458l1.464,0.345L331.496,369.417z M332.182,366.503l-1.459-0.346      l0.341-1.457l1.464,0.345L332.182,366.503z M332.867,363.589l-1.459-0.345l0.346-1.457l1.459,0.344L332.867,363.589z       M333.562,360.671l-1.464-0.341l0.341-1.46l1.462,0.345L333.562,360.671z M334.247,357.757l-1.467-0.345l0.349-1.458      l1.462,0.345L334.247,357.757z M334.932,354.839l-1.459-0.342l0.341-1.458l1.464,0.345L334.932,354.839z M335.622,351.927      l-1.464-0.345l0.346-1.458l1.457,0.345L335.622,351.927z M336.307,349.01l-1.462-0.345l0.346-1.458l1.459,0.342L336.307,349.01z       M336.994,346.093l-1.462-0.341l0.341-1.458l1.464,0.342L336.994,346.093z M337.687,343.179l-1.467-0.345l0.344-1.459      l1.464,0.347L337.687,343.179z M336.757,340.339l-0.485-1.413l1.42-0.486l0.485,1.418L336.757,340.339z M335.79,337.508      l-0.485-1.419l1.42-0.485l0.487,1.416L335.79,337.508z M334.82,334.675l-0.485-1.42l1.42-0.483l0.485,1.415L334.82,334.675z       M333.851,331.839l-0.485-1.417l1.42-0.487l0.485,1.416L333.851,331.839z M332.879,329.004l-0.482-1.417l1.422-0.486      l0.482,1.419L332.879,329.004z M331.909,326.168l-0.482-1.415l1.417-0.488l0.49,1.42L331.909,326.168z M330.94,323.335      l-0.485-1.417l1.425-0.487l0.482,1.419L330.94,323.335z M329.975,320.498l-0.487-1.413l1.422-0.489l0.482,1.42L329.975,320.498z       M328.998,317.666l-0.48-1.42l1.42-0.484l0.485,1.416L328.998,317.666z M328.034,314.833l-0.485-1.421l1.422-0.481l0.482,1.413      L328.034,314.833z M327.064,311.997l-0.487-1.418l1.425-0.486l0.485,1.418L327.064,311.997z M326.095,309.162l-0.487-1.416      l1.425-0.485l0.485,1.416L326.095,309.162z M325.128,306.329l-0.485-1.417l1.422-0.489l0.482,1.419L325.128,306.329z       M324.156,303.492l-0.482-1.415l1.417-0.487l0.487,1.42L324.156,303.492z M323.189,300.66l-0.487-1.42l1.42-0.482l0.487,1.413      L323.189,300.66z M322.222,297.824l-0.49-1.417l1.425-0.486l0.48,1.418L322.222,297.824z M321.247,294.989l-0.48-1.42      l1.415-0.481l0.49,1.413L321.247,294.989z M320.28,292.156l-0.485-1.417l1.42-0.487l0.485,1.419L320.28,292.156z       M319.311,289.319l-0.485-1.413l1.42-0.49l0.485,1.422L319.311,289.319z M318.339,286.485l-0.482-1.416l1.419-0.485l0.485,1.419      L318.339,286.485z M317.369,283.651l-0.48-1.417l1.42-0.486l0.482,1.42L317.369,283.651z M316.4,280.818l-0.482-1.421      l1.422-0.482l0.485,1.416L316.4,280.818z M315.435,277.983l-0.49-1.417l1.425-0.485l0.482,1.416L315.435,277.983z       M314.465,275.15l-0.487-1.421l1.425-0.485l0.48,1.418L314.465,275.15z M313.493,272.313l-0.485-1.415l1.42-0.485l0.485,1.417      L313.493,272.313z M312.524,269.481l-0.485-1.42l1.42-0.486l0.49,1.418L312.524,269.481z M311.554,266.645l-0.487-1.417      l1.425-0.483l0.482,1.416L311.554,266.645z M310.585,263.811l-0.482-1.42l1.417-0.482l0.487,1.413L310.585,263.811z       M309.615,260.977l-0.482-1.418l1.422-0.486l0.482,1.418L309.615,260.977z M308.646,258.144l-0.48-1.42l1.415-0.485l0.487,1.415      L308.646,258.144z M307.676,255.306l-0.485-1.413l1.425-0.489l0.485,1.417L307.676,255.306z M306.712,252.472l-0.49-1.417      l1.425-0.486l0.48,1.42L306.712,252.472z M305.737,249.638l-0.48-1.416l1.415-0.489l0.487,1.42L305.737,249.638z       M304.77,246.802l-0.487-1.416l1.422-0.484l0.485,1.416L304.77,246.802z M303.801,243.972l-0.485-1.421l1.425-0.483l0.48,1.415      L303.801,243.972z M302.831,241.134l-0.485-1.415l1.419-0.487l0.485,1.418L302.831,241.134z M301.864,238.299l-0.487-1.418      l1.422-0.484l0.485,1.416L301.864,238.299z M300.89,235.465l-0.48-1.415l1.42-0.491l0.482,1.421L300.89,235.465z       M299.925,232.628l-0.487-1.415l1.422-0.487l0.485,1.42L299.925,232.628z M298.956,229.798l-0.487-1.419l1.422-0.483      l0.482,1.416L298.956,229.798z M297.984,226.963l-0.485-1.42l1.42-0.483l0.485,1.416L297.984,226.963z M297.014,224.126      l-0.485-1.417l1.422-0.484l0.487,1.416L297.014,224.126z M296.045,221.296l-0.482-1.42l1.42-0.486l0.485,1.416L296.045,221.296z       M295.075,218.457l-0.482-1.414l1.42-0.489l0.485,1.422L295.075,218.457z M294.106,215.623l-0.482-1.416l1.417-0.485      l0.487,1.417L294.106,215.623z M293.136,212.79l-0.482-1.417l1.422-0.487l0.482,1.42L293.136,212.79z M292.166,209.954      l-0.485-1.417l1.42-0.484l0.487,1.417L292.166,209.954z M291.197,207.123l-0.482-1.42l1.422-0.485l0.482,1.415L291.197,207.123z       M290.227,204.286l-0.485-1.416l1.422-0.487l0.482,1.421L290.227,204.286z M289.261,201.453l-0.482-1.421l1.417-0.482      l0.49,1.415L289.261,201.453z M288.291,198.616l-0.487-1.415l1.425-0.49l0.482,1.421L288.291,198.616z M287.322,195.78      l-0.482-1.416l1.417-0.484l0.482,1.416L287.322,195.78z M286.352,192.947l-0.485-1.415l1.42-0.483l0.487,1.413L286.352,192.947z       M285.385,190.116l-0.487-1.42l1.422-0.486l0.48,1.417L285.385,190.116z M284.41,187.28l-0.482-1.417l1.417-0.486l0.49,1.419      L284.41,187.28z M283.446,184.445l-0.487-1.416l1.425-0.489l0.48,1.419L283.446,184.445z M282.474,181.611l-0.485-1.417      l1.42-0.487l0.485,1.421L282.474,181.611z M281.504,178.778l-0.485-1.417l1.422-0.487l0.487,1.419L281.504,178.778z       M280.537,175.941l-0.485-1.417l1.42-0.485l0.487,1.418L280.537,175.941z M279.565,173.108l-0.482-1.419l1.42-0.485l0.485,1.417      L279.565,173.108z M278.596,170.275l-0.482-1.416l1.417-0.489l0.487,1.416L278.596,170.275z M277.626,167.437l-0.482-1.416      l1.417-0.485l0.487,1.417L277.626,167.437z M276.657,164.605l-0.485-1.416l1.42-0.49l0.487,1.419L276.657,164.605z       M275.692,161.767l-0.487-1.413l1.422-0.485l0.482,1.417L275.692,161.767z M274.718,158.937l-0.482-1.422l1.42-0.484      l0.482,1.416L274.718,158.937z M273.751,156.1l-0.485-1.417l1.42-0.485l0.485,1.417L273.751,156.1z M272.781,153.266      l-0.487-1.418l1.425-0.484l0.482,1.414L272.781,153.266z M271.812,150.432l-0.487-1.417l1.422-0.485l0.487,1.415      L271.812,150.432z M270.842,147.597l-0.485-1.416l1.422-0.489l0.485,1.421L270.842,147.597z M269.873,144.762l-0.482-1.417      l1.417-0.485l0.487,1.419L269.873,144.762z M268.901,141.93l-0.482-1.418l1.42-0.486l0.487,1.417L268.901,141.93z       M267.936,139.095l-0.487-1.42l1.425-0.484l0.482,1.416L267.936,139.095z M266.967,136.26l-0.487-1.419l1.422-0.485l0.482,1.415      L266.967,136.26z M265.995,133.423l-0.48-1.415l1.417-0.487l0.485,1.42L265.995,133.423z M265.027,130.589l-0.49-1.415      l1.425-0.487l0.487,1.417L265.027,130.589z M264.058,127.754l-0.485-1.415l1.42-0.489l0.48,1.419L264.058,127.754z       M263.088,124.92l-0.485-1.416l1.422-0.486l0.485,1.418L263.088,124.92z M262.116,122.087l-0.482-1.419l1.422-0.483l0.482,1.413      L262.116,122.087z"/>
				<polygon style="fill:#FFC33E;" points="328.182,381.245 327.359,380.417 327.623,379.279 329.09,379.622 329.011,379.947       329.243,380.183     "/>
				<path style="fill:#FFC33E;" d="M372.614,425.671l-1.061-1.057l1.064-1.061l1.054,1.055L372.614,425.671z M370.5,423.557      l-1.061-1.06l1.061-1.062l1.061,1.061L370.5,423.557z M368.383,421.441l-1.059-1.06l1.061-1.064l1.061,1.062L368.383,421.441z       M366.266,419.325l-1.059-1.059l1.063-1.062l1.054,1.057L366.266,419.325z M364.148,417.209l-1.054-1.057l1.061-1.062      l1.058,1.059L364.148,417.209z M362.034,415.094l-1.056-1.058l1.061-1.061l1.059,1.059L362.034,415.094z M359.919,412.978      l-1.061-1.057l1.063-1.063l1.058,1.06L359.919,412.978z M357.802,410.86l-1.056-1.057l1.061-1.06l1.059,1.056L357.802,410.86z       M355.687,408.747l-1.054-1.056l1.061-1.061l1.054,1.057L355.687,408.747z M353.573,406.633l-1.061-1.061l1.061-1.061      l1.061,1.06L353.573,406.633z M351.458,404.515l-1.061-1.057l1.064-1.061l1.058,1.057L351.458,404.515z M349.339,402.399      l-1.054-1.056l1.059-1.065l1.056,1.058L349.339,402.399z M347.226,400.286l-1.059-1.059l1.061-1.062l1.061,1.058      L347.226,400.286z M345.109,398.17l-1.056-1.057l1.061-1.061l1.061,1.056L345.109,398.17z M342.992,396.053l-1.056-1.059      l1.059-1.063l1.059,1.06L342.992,396.053z M340.877,393.938l-1.058-1.057l1.063-1.062l1.056,1.057L340.877,393.938z       M338.76,391.82l-1.054-1.056l1.061-1.06l1.059,1.057L338.76,391.82z M336.648,389.709l-1.061-1.059l1.063-1.062l1.059,1.059      L336.648,389.709z M334.531,387.592l-1.059-1.06l1.061-1.061l1.058,1.058L334.531,387.592z M332.412,385.473l-1.054-1.057      l1.061-1.06l1.059,1.056L332.412,385.473z M330.302,383.361l-1.059-1.059l1.061-1.065l1.059,1.06L330.302,383.361z"/>
				
					<rect x="373.716" y="426.088" transform="matrix(0.7056 -0.7086 0.7086 0.7056 -191.9551 390.9284)" style="fill:#FFC33E;" width="1.5" height="0.75"/>
			</g>
		</g>
	</g>
</g>















</svg>
