<svg id="Trophy" height="512" viewBox="0 0 1200 1200" width="512" xmlns="http://www.w3.org/2000/svg"><g><path d="m237.025 676.005c54.637 38.25 120.346 46.206 179.234 47.359 14.973 15.426 33.295 28.493 54.731 39.037 2.841 7.416 6.575 14.333 11.126 20.636-80.661 23.064-112.615 40.629-108.545 98.501-1.396 35.099-2.84 71.386 2.613 108.146 4.338 37.033 30.408 47.026 47.105 54.049 39.166 18.075 75.771 34.751 117.541 51.886 17.186 7.304 36.088 16.91 58.673 15.315 48.755-6.622 93.72-25 137.204-42.771 29.344-12.547 57.845-21.338 83.478-44.485 21.519-21.785 16.358-43.503 16.552-61.677.736-38.436.479-74.424.426-108.868-2.344-34.031-35.539-42.543-46.446-45.338-20.843-5.921-42.745-11.293-62.009-15.712 7.692-7.598 13.881-16.205 18.319-25.531 47.231-20.289 81.614-53.082 97.356-92.691 198.004-42.952 243.757-316.243 235.158-462.182.049-33.739.113-84.725-47.117-110.105-57.416-29.678-134.508-4.255-171.631 44.957-75.229-63.963-322.91-57.878-415.047-40.129-66.219 14.081-101.605 35.299-110.609 76.902-43.17-21.776-108.674-12.804-147.861 13.436-41.748 24.337-67.239 68.362-66.742 115.316-2.961 95.502-8.113 272.273 116.491 363.949zm122.691-101.109c2.281 7.956-22.557-9.306-26.885-11.616 8.733 4.594 17.782 8.354 26.885 11.616zm-106.248-245.256c2.059 33.521 1.154 69.097 5.406 104.364-5.636-31.544-8.662-70.968-5.406-104.364z" fill="#fff"/><g><path d="m1016.978 130.32c-53.296-26.474-129.596 10.047-146.178 66.342-4.425 15.811-2.973 32.536-2.4 48.738 1.441 42.14 3.793 84.539-1.16 126.537-2.515 20.541-6.74 42.059-17.718 59.916 1.237-58.83-1.446-117.654-4.692-176.336 15.82-15.763 12.922-40.926 9.363-61.101-10.932-49.372-120.654-58.618-162.783-63.21-63.135-5.819-300.916-14.816-323.234 53.851-4.521 18.401-4.52 40.895 2.883 58.598 1.493 3.508 3.387 6.602 5.473 9.496-3.699 70.366-5.5 140.911.797 211.145-16.227-19.462-21.486-45.844-23.771-70.478-3.777-41.528 1.137-83.151 1.363-124.713-.081-77.597-101.385-77.561-150.436-44.616-31.594 18.063-51.938 51.2-51.309 87.849-3.629 117.074-.135 261.36 103.189 337.38 50.855 35.197 114.572 40.967 174.719 41.176 17.443 21.814 41.252 37.328 67.141 48.005 3.065 17.501 12.978 32.309 28.576 41.314 1.203.706 2.769.956 2.566 2.62 1.24 6.736 2.21 14.252 1.609 21.465-25.527 6.385-120.953 26.996-123.922 54.468-1.238 42.181-4.809 84.896 1.514 126.804 1.787 18.217 12.598 21.909 27.875 28.289 11.357 5.281 22.752 10.494 34.164 15.657 27.33 12.367 54.759 24.56 82.541 35.882 13.233 5.393 27.422 13.002 41.963 13.199 51.699-7.022 100.834-29.334 149.039-48.684 18.043-7.949 38.984-16.192 53.588-29.925 11.195-10.609 4.934-28.167 6.602-41.917.188-34.231.288-68.463.266-102.697-.842-12.21-16.896-14.391-26.203-17.09-19.561-5.648-39.42-10.296-59.242-14.915-29.559-8.531-46.412.13-35.684-39.39 17.879-8.188 33.622-22.849 37.822-42.381 43.604-15.495 84.919-45.854 96.809-92.238.462-1.499.852-3.02 1.299-4.521 48.773-5.086 92.633-30.912 125.635-66.625 83.932-93.451 101.631-226.556 102.127-347.667-1.562-34.734 6.133-80.706-30.191-100.227zm-741.979 423.461c-27.311-34.344-42.008-77.338-49.352-120.14-4.004-23.336-5.736-47.044-5.877-70.707-.129-21.164-2.306-46.05 12.58-63.151 10.855-13.033 38.859-26.523 51.646-10.238 2.692 11.673.782 24.455 1.935 36.451 4.223 58.52-4.02 150.771 40.859 193.907 17.156 15.354 39.633 23.401 61.52 30.004 4.248 24.205 9.244 48.263 14.658 72.231-49.902-5.221-96.693-28.733-127.969-68.357zm710.451-284.777c-7.096 102.319-33.178 265.597-140.895 307.916-3.037 1.017-6.113 1.89-9.217 2.649 4.207-22.174 7.281-44.558 9.514-67.015 71.463-26.258 77.996-111.124 81.734-176.581 3.576-37.665.435-76.335 5.782-113.573 5.069-14.261 32.007-41.414 47.741-32.333 4.146 3.231 5.07 9.633 5.428 14.484 1.277 21.454.971 42.994-.087 64.453z" fill="#68182b"/><path d="m805.594 165.536c-71.966-32.713-373.655-45.072-423.859 16.647-25.529 71.141 269.495 66.061 312.636 61.125 40.646-.204 226.062-27.919 111.223-77.772zm-58.011 46.075c-30.578 6.717-62.495 7.927-93.688 8.815-61.901.499-125.217 1.922-185.853-12.026-36.57-9.771-30.674-33.307 3.223-39.588 30.148-7.508 62.209-8.423 93.1-9.401 56.479-1.282 113.551-.63 169.367 8.814 10.132 1.93 20.352 4.417 29.877 8.435 5.651 2.384 12.818 5.813 14.824 12.172 4.807 15.242-21.236 20.668-30.85 22.779z" fill="#ffe10e"/><path d="m767.171 192.019c-26.27 23.921-292.328 24.425-312.332-3.701 31.627-26.469 279.828-23.551 312.332 3.701z" fill="#fbf199"/><path d="m730.043 342.601c.513-12.977 15.345-23.13 26.325-13.996 8.93 8.346 9.829 24.842 2.265 34.38-16.204 14.998-32.358-1.349-28.59-20.384z" fill="#fac135"/><path d="m759.087 371.739c-1.864 1.048-3.674 1.857-5.432 2.479 3.309 1.749 6.709 4.983 10.21 10.124 15.423 20.944 19.869 49.232 37.493 68.323 17.289-15.562 27.907-37.14 36.98-58.265 2.341-19.737-6.816-10.45-13.658-24.502-6.18-14.531-3.502-35.992 12.098-42.855-.796-20.715-1.814-41.413-2.948-62.087-5.579 3.863-11.652 7.067-17.786 9.752-18.817 8.234-38.977 12.941-59.174 16.327-86.792 13.643-297.246 19.703-369.379-26.606-3.916 160.584-17.82 62.702 57.547 129.348 37.828 34.939 51.842 85.545 62.046 134.236 19.657 82.208 65.013 179.867 162.718 179.613 42.526.884 84.464-12.914 123.011-29.959 4.079-5.945 7.544-12.336 10.192-19.23 5.133-13.354 9.227-27.308 12.699-41.434-29.48 11.481-61.072 18.257-92.29 22.322-27.698 2.353-94.626 10.942-115.28-7.27-14.311-13.031-17.684-44.533 3.018-53.605 16.074-4.716 33.102 3.188 49.676 2.286 56.678 1.823 114.495-6.907 167.389-27.72 2.217-14.396 3.975-28.856 5.373-43.355-2.873 9.313-6.6 18.713-14.17 24.623-40.732 25.031-102.922 29.376-149.857 25.295-33.939-1.826-68.414-77.721-74.824-107.557-2.306-10.919-8.712-39.072 2.973-46.542-22.09-.214-31.091-35.403-13.188-52.11 31.131-22.75 52.986 30.004 27.023 48.13-2.27 1.277-4.453 2.188-6.561 2.838 12.879 5.108 21.869 19.705 33.188 27.782 15.188 13.512 39.764 34.82 56.295 11.257 12.785-10.953 27.701-57.399 45.645-68.397-18.232-5.123-24.485-36.03-8.047-51.373 31.131-22.749 52.983 30.005 27.02 48.132z" fill="#fbf199"/><path d="m585.639 391.811c-10.042-15.696 1.887-47.827 23.187-33.442 8.932 8.345 9.828 24.841 2.264 34.38-6.479 7.678-19.708 7.613-25.451-.938z" fill="#fac135"/><path d="m589.232 1066.551c-5.609-1.616-11.081-3.686-16.541-5.741-50.146-19.075-99.061-41.946-147.506-64.95-2.174-.987-1.463-.233-2.652-2.815-10.545-38.76-4.859-81.849-4.49-121.803 56.639 22.326 113.768 45.099 172.365 61.517-2.338 44.308-5.853 89.536-1.176 133.792z" fill="#db9f6e"/><path d="m745.685 841.561c15.574 4.032 31.83 7.259 46.631 13.634.02.038-.052.115-.076.162-.219.271-.064.095-.2.25-16.491 14.52-38.839 21.18-58.987 29.098-40.412 14.394-81.638 27.192-123.791 35.367-10.818 2.923-21.088 1.432-31.414-2.684-50.523-16.189-100.25-35.189-149.699-54.372-3.105-1.365-6.922-2.301-9.428-4.491 9.031-10.869 24.789-15.65 37.508-20.719 23.292-8.783 47.328-15.55 71.598-21.031-2.234 5.385-7.157 8.989-10.568 13.638-19.712 4.437-90.236 23.565-35.522 38.744 36.538 12.831 73.021 26.719 110.421 36.681 23.557.513 144.724-25.973 152.592-45.646 3.492-13.888-42.805-14.057-47.932-20.958-1.307-3.984-3.461-7.243-5.779-10.48 18.249 4.116 36.486 8.306 54.646 12.807z" fill="#ffb578"/><path d="m697.937 848.017c12.834 3.063 26.826 6.051 39.094 10.459.197.085.492.242.73.371-.203.195-.661.67-.828.812-.791.679-.582.521-1.322 1.039-42.658 21.702-91.707 31.135-138.729 38.347-32.619-5.617-63.92-19.998-95.458-30.187-10.274-3.613-21.473-7.499-31.187-11.309-.481-.306-1.907-.585-1.705-1.282 12.154-10.316 29.503-13.025 44.441-17.656-1.622 5.01-1.689 10.364.615 15.436 15.535 38.903 181.495 44.259 184.349-6.03z" fill="#ff8e5b"/><path d="m685.454 841.565c1.194 3.018 1.637 6.37.362 9.429-22.055 31.18-125.11 25.329-154.868 5.61-19.535-12.813 3.611-24.162 8.444-37.645 10.556-43.636-13.216-30.483 36.307-23.287 31.419 4.518 63.9 3.111 94.35-6.366-1.599 8.302-1.403 16.928.758 25.16 2.561 10.403 10.347 18.082 14.647 27.099z" fill="#fbf199"/><path d="m640.962 784.299c-40.671 5.667-112.981 5.044-130.023-40.618 12.098 4.189 24.463 7.466 36.702 9.901 52.886 10.47 109.099 8.284 160.692-7.63-9.618 24.853-43.887 34.654-67.371 38.347z" fill="#fac135"/><path d="m712.194 732.61c-85.382 27.115-196.333 23.998-264.599-40.271-3.289-2.244 9.508-.599 11.348-2.237 6.948-2.184 10.84-8.7 11.956-15.559 2.687-16.487-5.905-35.806-19.64-45.146-9.553-6.499-20.236-5.365-31.238-5.881-1.678-.076-3.352-.213-5.026-.321-5.274-23.136-10.147-46.365-14.38-69.716 15.156 3.15 31.434 12.651 46.758 5.943 14.496-7.316 14.154-26.012 8.534-38.969-12.068-30.643-43.167-28.271-66.001-44.294-3.563-34.556-5.031-69.194-5.209-103.856 18.097-.205 35.08 8.913 48.721 20.322 40.038 33.064 56.686 84.033 66.021 133.354 14.029 54.139 33.084 110.699 74.395 150.352 56.207 54.838 142.648 41.922 208.555 13.242-11.734 16.584-46.319 35.383-70.195 43.037z" fill="#ffe10e"/><path d="m837.079 334.722c.463 13.08.789 26.165 1.006 39.25-13.488-6.743-12.344-31.266-1.006-39.25z" fill="#fac135"/><path d="m837.534 449.176c.436 25.395-6.216 50.422-16.801 73.39-18.697 23.453-70.659 27.398-99.224 30.615-20.993.857-44.099 3.891-64.02-3.953-12.743-9.943-22.374-26.145-31.324-39.756-15.104-26.004-27.751-55.288-28.155-85.779.799-15.986 4.24-16.73 15.106-5.033 45.054 42 72.333 69.315 106.14-1.688 8.15-12.925 13.693-31.178 28.482-37.757 18.188 7.146 29.711 54.165 42.467 71.017 3.283 5.177 8.975 12.779 15.586 7.733 14.488-12.096 23.695-29.508 32.212-46.044.639 9.457-.295 25.582-.469 37.255z" fill="#fac135"/><path d="m817.615 608.892c-24.646 10.148-51.185 16.494-77.35 20.974-39.282 5.601-81.017 10.477-120.029 1.929-17.44-6.86-24.19-36.561-6.753-46.848 5.393-2.598 11.143-1.039 16.76-.212 9.653 1.421 19.372 2.358 29.117 2.843 56.662 2.03 114.432-6.49 167.558-26.679-1.192 7.733-2.577 15.367-4.077 23.069-1.702 8.241-3.256 16.639-5.226 24.924z" fill="#fac135"/><path d="m849.002 451.028c24.821-24.838 29.376-65.791 31.578-98.954 2.631-39.655-.014-79.324-1.055-118.977-3.144-29.919 8.767-59.592 33.741-77.053 29.817-22.379 80.985-36.084 110.105-5.971 22.852 23.308 9.562 163.318 4.68 199.827-10.342 71.994-32.003 146.235-77.588 204.256-30.119 38.335-71.461 68.822-120.133 77.668-2.525.459-5.019.84-7.525 1.161 3.793-13.611 7.299-27.308 9.992-41.183 120.927-31.04 151.392-192.24 162.554-299.371 2.206-30.076 4.021-60.531 1.45-90.619-1.331-11.873-7.202-23.543-20.251-24.956-24.609-.479-46.522 21.378-55.454 42.925-4.508 18.767-1.813 38.715-3.447 57.905-1.215 36.174-2.438 72.523-6.998 108.462-3.004 23.674-7.516 48.315-18.549 69.72-10.005 19.55-26.178 34.535-46.094 43.68 1.37-16.15 2.39-32.324 2.994-48.52z" fill="#fac135"/><path d="m377.06 212.601c6.86 7.445 16.363 13.076 24.816 16.989 88.555 36.646 318.457 37.429 409.221 4.922 10.018-3.658 24.652-9.874 34.061-19.037.111 4.189.061 8.379-.241 12.521 3.206 83.99-421.898 73.785-457.497 20.749-8.534-9.93-10.175-23.482-10.36-36.144z" fill="#fac135"/><path d="m163.71 343.098c1.02-22.505-1.574-46.491 8.061-67.498 13.817-29.759 44.451-48.646 75.338-56.567 39.408-11.747 97.518-1.05 96.297 50.073 1.809 71.298-23.504 177.226 48.264 221.983 17.295 8.549 39.445 9.627 50.334 27.737 5.242 8.005 11.723 27.555-2.086 31.157-14.188 1.799-28.436-6.555-42.184-9.346-32.742-9.305-70.707-23.053-83.008-58.967-18.912-55.618-14.275-116.322-17.881-174.201 5.588-43.892-39.412-44.072-65.485-22.655-16.442 13.271-21.739 31.875-22.616 52.218-9.049 131.345 43.924 282.992 193.572 296.586 18.953 3.406 43.014-4.711 52.748 17.254 4.504 8.115 10.413 29.129-4.398 28.54-6.012.274-12.264-.349-18.146.011-225.421 7.391-271.058-141-268.81-336.325z" fill="#fac135"/><path d="m792.939 933.99c.083-21.421.123-42.842.126-64.263-2.991 2.087-5.986 3.818-8.163 5.028-57.415 27.978-120.195 46.691-182.98 57.999-2.341 44.359-5.859 89.633-1.16 133.934 26.783-5.211 53.287-14.457 79.021-23.587 34.704-12.804 69.853-25.806 101.563-45.09 4.551-2.788 8.526-6.089 11.378-9.458-.285-16.489.33-36.796.215-54.563zm-24.92 53.72c-37.732 20.922-79.594 33.748-120.51 47.036-7.106 2.212-15.344 6.629-22.287 1.841-16.995-14.119-14.088-57.488-5.258-75.905 5.278-10.656 14.954-12.287 25.334-15.567 41.135-12.107 81.489-28.355 121.983-41.394 25.08 3.463 18.332 73.538.738 83.989z" fill="#db9f6e"/><path d="m771.976 945.321c-1.126 11.174-1.805 26.154-10.941 33.721-39.518 21.055-83.098 34.748-125.777 47.769-3.627 1.338-3.964.998-5.773-2.089-6.998-15.762-6.316-34.899-2.326-51.423 1.918-8.446 5.411-14.052 14.864-15.428 13.271-4.118 26.487-8.424 39.681-12.784 28.627-9.363 57.207-19.393 85.264-30.13 5.753 8.277 5.22 20.461 5.008 30.364z" fill="#ff8e5b"/><path d="m694.37 243.309c38.36-.193 205.615-24.893 127.781-69.576 6.529 8.599 10.013 18.129 2.773 25.815-10.969 11.644-34.857 15.347-49.746 19.64-47.443 13.683-97.385 16.58-146.51 16.469-49.885-.112-100.871-1.376-150.254-8.727-22.373-3.33-47.269-7.231-66.369-20.026-12.26-8.212-20.793-20.065-22.167-32.491-3.175 2.449-5.919 5.035-8.145 7.771-25.528 71.14 269.497 66.06 312.637 61.125z" fill="#f7b001"/><path d="m448.902 566.761c20.652-9.964 20.77-32.801 6.155-48.148.276.627.591 1.186.85 1.842 5.62 12.957 5.962 31.652-8.534 38.969-15.324 6.708-31.602-2.793-46.758-5.943.908 5.008 1.951 9.989 2.916 14.988 15.343 3.823 32.353 4.572 45.371-1.708z" fill="#f7b001"/><path d="m447.595 692.34c68.266 64.269 179.217 67.386 264.599 40.271 13.948-4.473 31.526-12.756 46.093-22.172-22.051 9.939-45.338 16.91-69.825 20.78-38.452 6.078-78.462 4.947-117.034.425-17.422-2.043-34.76-5.766-50.617-13.458-17.279-8.381-27.064-22.068-34.396-39.245-6.231-14.599-13.146-28.572-23.647-37.746 6.598 9.774 9.949 22.205 8.132 33.35-1.116 6.858-5.008 13.375-11.956 15.559-1.841 1.637-14.638-.008-11.349 2.236z" fill="#f7b001"/><path d="m569.615 679.072c35.32 33.097 91.982 49.12 139.156 35.673 5.334-1.52 10.449-3.604 15.361-6.118-53.107 11.58-109.621 7.394-150.299-32.296-41.311-39.652-60.365-96.213-74.395-150.352-9.336-49.32-25.983-100.289-66.021-133.354-13.641-11.409-30.624-20.527-48.721-20.322.061 11.929.344 23.852.744 35.771 6.531-9.024 16.324-14.844 28.924-12.591 17.045 3.045 30.457 20.672 39.322 34.083 18.334 27.732 28.469 59.592 37.259 91.359 16.162 58.408 33.053 115.4 78.67 158.147z" fill="#f8f383"/><path d="m404.675 165.464c52.787-13.341 107.148-17.294 161.526-20.499 37.568-2.215 74.933-2.851 112.546-1.203 12.048.528 24.092 1.16 36.136 1.756-101.424-12.259-247.801-10.404-310.208 19.946z" fill="#f8f383"/><path d="m749.472 199.289c-10.485-2.46-21.061-4.515-31.563-6.303-33.121-5.642-66.775-8.167-100.344-8.831-32.307-.637-64.891.692-96.918 5.143-15.048 2.089-30.6 4.59-45.521 8.826 58.162 15.412 218.217 15.064 274.346 1.165z" fill="#f3af79"/><path d="m647.727 573.966c-10.276-1.584-20.416-2.308-30.661-.203-8.447 1.734-20.85 11.918-19.563 21.594 1.783-7.289 6.098-13.595 13.648-16.904 16.074-4.716 33.102 3.188 49.676 2.286 56.678 1.823 114.495-6.907 167.389-27.72.413-2.68.732-5.371 1.115-8.057-40.782 22.719-88.713 29.396-135.075 31.72-15.624.78-31.085-.337-46.529-2.716z" fill="#f3af79"/><path d="m496.722 452.11c-14.748-34.245-39.021-76.856-80.129-82.195-2.986-.389-5.941-.523-8.882-.547 8.947 3.307 21.052 10.018 37.327 24.41 37.828 34.939 51.842 85.545 62.046 134.236 19.657 82.208 65.013 179.867 162.718 179.613 42.526.884 84.464-12.914 123.011-29.959 3.571-5.205 6.636-10.777 9.13-16.705-47.727 23.953-101.015 39.527-154.002 29.707-57.578-10.67-89.792-56.811-109.052-108.374-15.97-42.762-24.066-88.164-42.167-130.186z" fill="#f3af79"/><path d="m588.607 350.826c28.887-15.534 47.748 33.354 22.939 50.676-2.27 1.277-4.453 2.188-6.561 2.838 12.879 5.108 21.869 19.705 33.188 27.782 15.188 13.512 39.764 34.82 56.295 11.257 4.363-3.739 8.984-11.646 13.881-20.836-8.6 9.874-18.258 18.478-29.342 21.475-14.071 3.807-27.902-9.971-38.246-17.373-4.77-3.413-9.4-6.868-13.443-11.138-7.516-7.938-4.232-16.278-.982-25.001 5.369-14.4 3.611-36.331-13.748-41.893-7.454-2.385-17.003-1.828-23.981 2.213z" fill="#f3af79"/><path d="m607.253 864.333c-15.33.202-31.545-.571-46.446-4.281-13.722-3.416-30.177-13.218-31.739-26.15-6.033 7.569-10.072 14.864 1.881 22.703 29.758 19.719 132.813 25.569 154.868-5.61 1.274-3.059.832-6.411-.362-9.429-.258-.542-.564-1.066-.846-1.597-17.443 20.725-52.125 24.031-77.356 24.364z" fill="#f3af79"/><path d="m794.601 428.785c-5.113-9.767-9.344-20.159-13.82-30.235-2.348-5.282-4.759-10.531-7.252-15.748-5.415-11.335-.835-16.559 2.541-26.889 7.207-22.058-15.681-46.957-34.884-36.973 25.938-7.725 41.237 36.507 17.901 52.799-1.864 1.048-3.674 1.857-5.432 2.479 3.309 1.749 6.709 4.983 10.21 10.124 15.423 20.944 19.869 49.232 37.493 68.323 13.443-12.101 22.832-27.843 30.619-44.177-.59.879-1.176 1.758-1.766 2.635-5.471 8.142-24.797 38.315-35.61 17.662z" fill="#f3af79"/><path d="m638.822 809.47c-19.115 2.879-38.227-1.383-57.401 2.146-5.688 1.048-13.685 3.164-15.987 10.016-2.604 7.753.268 16.139 5.806 21.248 18.972 17.503 71.462 13.303 82.946-6.105 3.178-5.37 3.825-12.536 2.318-19.037-2.448-10.592-8.251-9.686-17.682-8.268z" fill="#fff7cf"/><path d="m723.414 639.327c-27.698 2.353-94.626 10.942-115.28-7.27-5.816-5.298-9.779-13.652-11.1-22.305.412 9.707 7.098 20.107 13.746 26.265 7.286 6.748 19.387 9.17 28.662 11.259 13.941 3.142 28.455 3.242 42.633 2.213 44.215-3.211 91.281-9.551 132.424-27.82.4-1.555.82-3.104 1.205-4.664-29.48 11.481-61.072 18.257-92.29 22.322z" fill="#fff7cf"/><path d="m630.214 544.946c14.523 19.908 43.118 21.223 65.377 21.896 33 .996 66.004-3.511 97.474-13.539 16.487-5.255 29.651-13.107 38.54-25.527.715-6.03 1.402-12.065 1.984-18.112-2.873 9.313-6.6 18.713-14.17 24.623-40.732 25.031-102.922 29.376-149.857 25.295-33.939-1.826-68.414-77.721-74.824-107.557-1.33-6.301-4.008-18.324-3.805-28.814-3.084 12.848.791 28.938 3.455 40.256 6.592 27.972 18.835 58.197 35.826 81.479z" fill="#fff7cf"/><path d="m386.124 305.079c4.553-5.938 10.787-10.384 18.975-12.622 17.289-4.724 39.945 3.893 56.958 7.544 34.562 7.418 69.716 10.195 104.979 11.821 36.876 1.702 73.837 1.174 110.685-.942 34.229-1.966 68.629-4.632 102.179-11.936 18.077-3.935 38.798-9.519 54.608-20.861-.229-4.376-.436-8.754-.677-13.127-5.579 3.863-11.652 7.067-17.786 9.752-18.817 8.234-38.977 12.941-59.174 16.327-86.792 13.643-297.246 19.703-369.379-26.606-.389 15.985-.879 29.371-1.368 40.65z" fill="#fff7cf"/><g fill="#ee9e2b"><path d="m989.512 176.978c-7.354-9.651-20.862-8.563-31.079-5.327-32.052 10.155-50.062 42.826-50.968 74.485-1.29 45.021.897 90.185-4.114 135.047-4.455 39.881-17.835 84.379-56.113 101.681-.387 5.563-.756 11.128-1.229 16.687 19.916-9.145 36.089-24.13 46.094-43.68 11.033-21.404 15.545-46.046 18.549-69.72 4.561-35.938 5.783-72.288 6.998-108.462 1.635-19.19-1.061-39.138 3.447-57.905 8.932-21.547 30.845-43.404 55.454-42.925 13.049 1.412 18.92 13.083 20.251 24.956.362 4.239.619 8.484.816 12.736 2.488-12.773-.476-27.565-8.106-37.573z"/><path d="m1023.528 361.976c-8.046 38.715-19.638 76.863-36.495 112.689-11.131 23.655-24.943 45.877-40.838 66.613-16.637 21.705-35.695 41.605-58.794 56.465-18.757 12.066-39.429 18.389-60.997 21.827-1.164 4.481-2.355 8.956-3.598 13.416 2.507-.321 5-.702 7.525-1.161 48.672-8.846 90.014-39.333 120.133-77.668 45.585-58.021 67.246-132.262 77.588-204.256 1.23-9.189 2.99-24.948 4.574-43.747-2.332 18.642-5.237 37.245-9.098 55.822z"/><path d="m432.519 679.423c5.883-.359 12.135.264 18.146-.011 14.812.589 8.902-20.425 4.398-28.54-.578-1.302-1.215-2.484-1.887-3.584-27.568 22.374-70.565 24.141-104.617 18.466-57.32-9.555-107.582-48.601-134.992-99.389-14.371-26.631-22.285-58.178-28.313-87.655-6.037-29.527-10.223-59.639-12.705-89.668-2.404-29.104-2.973-58.609.375-87.659 1.919-16.636 6.387-31.576 13.738-46.658.451-.926.971-1.81 1.445-2.721-6.629 6.915-12.236 14.765-16.338 23.596-9.635 21.007-7.041 44.993-8.061 67.498-2.246 195.325 43.391 343.716 268.811 336.325z"/><path d="m828.537 351.056c-1.136 9.161 1.743 19.015 9.548 22.916-.081-4.882-.264-9.762-.377-14.641-1.928-1.203-3.754-2.791-5.218-4.102-1.418-1.271-2.758-2.673-3.953-4.173z"/><path d="m429.657 538.849c-9.34.416-20.588-3.839-29.588-6.146-18.357-4.706-36.383-11.324-52.031-22.189-18.846-13.088-26.563-31.939-31.16-53.635-5.154-24.328-7.086-49.309-8.531-74.09-1.295-22.225-1.834-44.489-2.838-66.729-.621-13.802.124-29.774-10.049-40.525-12.279-12.975-37.076-8.441-53.785 2.424 26.031-13.854 60.072-9.001 55.17 29.512 3.605 57.879-1.031 118.583 17.881 174.201 12.301 35.914 50.266 49.662 83.008 58.967 13.748 2.791 27.996 11.145 42.184 9.346 8.692-2.269 9.34-10.854 7.32-18.904-4.682 4.383-10.175 7.439-17.581 7.768z"/><path d="m585.639 391.811c5.743 8.552 18.972 8.616 25.45.938 4.357-5.493 5.814-13.278 4.639-20.501-1.405 6.484-4.813 12.057-11.695 14.915-9.781 4.063-16.992-5.842-19.098-13.896-.523-2.013-.801-4.05-.96-6.092-2.912 7.867-2.705 17.806 1.664 24.636z"/><path d="m547.641 753.582c-12.239-2.436-24.604-5.712-36.702-9.901 1.335 3.578 3.044 6.85 5.019 9.893 15.134 6.811 32.216 9.604 48.558 11.763 32.799 4.331 66.721 3.813 99.377-1.476 14.561-2.358 29.318-6.463 42.381-13.474.773-1.424 1.467-2.898 2.061-4.435-51.595 15.914-107.808 18.1-160.694 7.63z"/><path d="m843.835 235.998c-19.42 19.577-51.977 27.344-77.258 32.731-42.695 9.096-86.738 11.421-130.249 12.689-57.989 1.688-116.157-.088-173.442-9.833-26.361-4.481-60.205-10.976-80.414-30.454 1.32 2.696 2.928 5.262 4.947 7.612 34.422 51.288 433.041 62.516 456.416-12.745z"/><path d="m822.207 587.108c-10.925 12.451-24.587 21.162-42.12 25.698-22.264 5.761-45.535 8.196-68.395 10.13-22.438 1.9-45.181 2.912-67.66 1.197-8.147-.621-16.98-1.519-24.455-5.09-8.586-4.102-13.359-11.947-15.574-20.762-2.918 12.701 4.014 28.705 16.233 33.512 39.013 8.548 80.747 3.672 120.029-1.929 26.165-4.479 52.704-10.825 77.35-20.974 1.722-7.237 3.13-14.549 4.592-21.782z"/><path d="m758.633 362.984c3.135-3.95 4.731-9.103 4.989-14.366-2.691 5.774-7.402 9.561-15.659 8.203-12.588-2.073-15.095-14.441-13.126-25.801-2.768 3.111-4.618 7.17-4.794 11.58-3.768 19.036 12.386 35.383 28.59 20.384z"/><path d="m801.546 521.542c-14.44 9.002-32.333 12.251-48.888 14.806-16.366 2.525-32.88 4.552-49.46 4.407-16.229-.142-32.68-3.133-46.592-11.803-12.781-7.965-22.127-21.062-30.204-33.438-7.108-10.893-13.192-22.451-19.606-33.756-1.641-2.894-3.252-5.806-4.814-8.735 4.949 19.883 14 38.913 24.185 56.448 8.95 13.611 18.581 29.813 31.324 39.756 19.921 7.844 43.026 4.811 64.02 3.953 28.564-3.217 80.526-7.162 99.224-30.615 5.855-12.705 10.443-26.055 13.355-39.736-6.899 15.519-17.132 29.108-32.544 38.713z"/></g><path d="m238.134 529.188c20.084 40.493 52.125 73.773 94.166 91.376 20.461 8.565 41.822 13.722 63.83 16.267 13.16 1.522 26.199.727 39.158-1.059-10.348-1.912-22.445-.262-32.973-2.154-149.648-13.594-202.621-165.241-193.572-296.586.58-13.439 3.174-26.082 9.551-36.967-2.908 4.194-5.285 8.815-7.111 13.436-8.955 22.668-9.131 47.91-7.668 71.9 3.016 49.433 12.493 99.176 34.619 143.787z" fill="#fbe134"/><path d="m913.267 156.045c-24.975 17.46-36.885 47.134-33.741 77.053 1.041 39.652 3.686 79.321 1.055 118.977-2.202 33.163-6.757 74.116-31.578 98.954-.171 4.586-.45 9.166-.687 13.749 64.557-51.62 38.93-155.529 40.463-226.677.578-26.835 4.4-50.977 22.89-71.391 15.571-17.193 38.119-28.263 60.817-31.972 4.803-.784 9.674-1.239 14.564-1.542-25.637-2.633-54.271 8.203-73.783 22.849z" fill="#fbe134"/><path d="m306.902 229.952c22.055 11.662 27.207 35.473 27.9 58.467.475 15.693-1.234 31.438-1.961 47.103-.66 14.216.094 28.521.645 42.733 1.398 36.116 5.133 75.254 31.539 102.48 14.643 15.101 34.629 23.16 54.365 29.143 7.626 2.313 14.869 4.543 21.688 7.583-11.17-16.761-32.574-18.05-49.408-26.372-71.768-44.758-46.455-150.686-48.264-221.983 1.221-51.124-56.889-61.82-96.297-50.073-2.162.555-4.321 1.178-6.479 1.839 23.02-2.463 46.339-1.462 66.272 9.08z" fill="#fbe134"/><path d="m997.585 255.004c-.497 12.505-1.322 25-2.233 37.429-11.162 107.131-41.627 268.331-162.554 299.371-.506 2.606-1.065 5.201-1.625 7.797 67.951-14.68 109.951-69.756 135.193-131.572 26.517-64.93 41.241-141.79 31.219-213.025z" fill="#fbe134"/><path d="m691.548 766.249c-47.959 15.129-99.525 24.268-146.945 10.139 29.379 12.638 69.678 11.628 96.359 7.911 15.574-2.449 35.86-7.618 50.586-18.05z" fill="#fbe134"/><path d="m659.361 587.577c-9.745-.484-19.464-1.422-29.117-2.843-5.617-.827-11.367-2.386-16.76.212-.634.373-1.166.824-1.738 1.248 7.416.26 15.134 2.541 22.064 4.508 9.395 2.67 18.299 4.443 28.027 5.143 22.238 1.6 44.746.333 66.9-1.83 22.908-2.237 45.775-6.092 67.918-12.436 7.998-2.293 19.037-5.4 28.509-10.144.616-3.503 1.21-7.009 1.754-10.537-53.126 20.189-110.895 28.709-167.557 26.679z" fill="#fbe134"/><path d="m614.39 263.483c46.548-.227 93.514-2.93 139.314-11.61 21.658-4.104 47.415-9.615 67.885-21.598-3.744 1.662-7.354 3.09-10.492 4.236-90.764 32.507-320.666 31.724-409.221-4.922-8.453-3.913-17.956-9.543-24.816-16.989.063 4.241.321 8.577.912 12.849 26.117 20.528 64.898 26.373 96.183 30.217 46.479 5.713 93.424 8.045 140.235 7.817z" fill="#fbe134"/><path d="m838.004 411.92c-8.517 16.536-17.724 33.948-32.212 46.044-6.611 5.046-12.303-2.557-15.586-7.733-12.756-16.852-24.279-63.871-42.467-71.017-14.789 6.579-20.332 24.832-28.482 37.757-32.455 68.166-58.904 45.706-100.83 6.64 12.92 17.029 30.439 32.66 48.922 39.883 20.227 7.906 35.383-1.196 48.009-17.225 6.712-8.521 12.143-18.063 17.808-27.287 4.002-6.513 9.538-16.178 17.993-17.268 9.377-1.208 14.994 18.102 17.195 24.087 5.472 14.884 13.083 38.828 32.54 38.83 12.805 0 27.219-10.636 36.861-24.268.307-10.065.736-21.202.249-28.443z" fill="#fbe134"/><path d="m787.118 941.539c.864-13.183-.217-34.856-14.777-40.584-5.885-2.316-13.104.827-18.43 3.116-10.566 4.54-21.68 7.947-32.52 11.792-24.484 8.688-49.152 16.89-74.279 23.546-7.906 2.094-18.424 4.945-23.215 12.341-2.562 3.953-4.342 8.214-5.508 12.644.5-1.324 1.025-2.567 1.574-3.712 5.278-10.656 14.954-12.287 25.334-15.567 41.135-12.107 81.489-28.355 121.983-41.394 22.325 3.083 19.419 58.917 6.103 78.523 11.122-9.253 12.829-26.876 13.735-40.705z" fill="#c98450"/><path d="m751.968 1006.743c-26.975 12.206-54.456 23.58-82.314 33.622-12.572 4.533-25.436 8.241-38.502 11.034-23.836 5.096-26.674-18.191-28.913-35.516-1.446-11.203-2.046-22.512-2.912-33.781-1.22 28.266-1.531 56.619 1.435 84.586 26.783-5.211 53.287-14.457 79.021-23.587 34.704-12.804 69.853-25.806 101.563-45.09 4.551-2.788 8.526-6.089 11.378-9.458-.063-3.674-.077-7.558-.069-11.54-8.841 14.358-23.294 21.86-40.687 29.73z" fill="#c98450"/><path d="m425.185 995.859c48.445 23.004 97.359 45.875 147.506 64.95 5.46 2.056 10.932 4.125 16.541 5.741-3.617-34.231-2.329-69.04-.48-103.56-3.722 10.555-7.776 20.953-13.737 30.746-14.106 23.17-35.616 29.994-61.458 23.876-21.367-5.06-43.199-12.826-63.203-21.79-9.941-4.452-20.006-9.685-27.697-17.515-1.715-1.747-3.064-3.634-4.203-5.604.963 6.879 2.268 13.677 4.08 20.339 1.188 2.584.477 1.83 2.651 2.817z" fill="#c98450"/><path d="m548.423 936.333c-22.374-6.766-44.807-13.344-67.059-20.52-26.886-8.666-44.407-8.416-47.07 16.063-.568 5.253-.484 10.515-.418 14.642.59 35.814 47.09 46.913 75.751 46.59 10.899-.122 24.216-1.608 31.509-10.573 5.305-6.521 9.433-15.21 14.34-23.049 7.843-12.535 9.377-18.183-7.053-23.153z" fill="#f9c6a0"/><path d="m600.943 950.59c4.084-6.803 10.502-11.635 19.582-14.542 13.346-4.271 26.959-7.688 40.537-11.134 25.42-6.451 49.641-14.825 74.324-23.608 18.039-6.42 35.689-12.433 49.361-26.479-57.373 27.938-120.098 46.629-182.826 57.928-.312 5.93-.644 11.878-.978 17.835z" fill="#f9c6a0"/><path d="m600.98 888.839c28.658.488 67.07-2.075 90.479-20.708 7.684-6.114 8.65-11.873 5.975-16.993-8.398 41.492-133.896 41.621-173.241 14.718 6.308 5.237 14.425 9.008 21.046 12.051 17.452 8.016 36.716 10.608 55.741 10.932z" fill="#ff564d"/><path d="m770.58 957.813c-5.332 11.041-15.657 18.558-27.513 24.004-17.551 8.063-35.967 14.433-54.273 20.542-13.764 4.592-28.36 10.299-42.928 11.585-21.753 1.918-15.279-36.273-9.605-54.38-5.24 2.521-7.641 7.295-9.104 13.735-3.99 16.523-4.672 35.661 2.326 51.423 1.81 3.087 2.146 3.427 5.773 2.089 42.68-13.021 86.26-26.714 125.777-47.769 5.978-4.951 8.317-13.074 9.547-21.229z" fill="#ff564d"/><path d="m746.895 932.58c-12.147 4.021-67.84 23.147-83.765 28.271-7.951 2.557-12.039 6.103-13.009 15.155-1.595 14.846 7.112 15.595 14.859 13.394 24.585-6.984 65.942-21.374 79.192-27.057 9.861-4.227 15.076-7.52 16.823-18.647 1.874-11.929-6.437-13.648-14.1-11.116z" fill="#fbc471"/><path d="m606.673 897.508c-8.932-.488-17.675-1.885-25.952-4.7-19.959-6.791-39.878-13.705-59.862-20.427-8.43-2.835-16.857-5.675-25.24-8.646-2.66-.945-5.325-1.9-7.916-3.022-7.382-3.19-8.402-7.659-6.676-12.026-4.498 2.011-8.756 4.41-12.494 7.58-.202.697 1.224.977 1.705 1.282 9.714 3.81 20.912 7.695 31.187 11.309 31.538 10.188 62.839 24.569 95.458 30.187 3.253-.501 6.521-1.014 9.79-1.537z" fill="#fbc471"/><path d="m745.685 841.561c15.574 4.032 31.83 7.259 46.631 13.634.02.038-.052.115-.076.162-.219.271-.064.095-.2.25-16.491 14.52-38.839 21.18-58.987 29.098-40.412 14.394-81.638 27.192-123.791 35.367-10.818 2.923-21.088 1.432-31.414-2.684-50.523-16.189-100.25-35.189-149.699-54.372-3.105-1.365-6.922-2.301-9.428-4.491 9.031-10.869 24.789-15.65 37.508-20.719 23.292-8.783 47.328-15.55 71.598-21.031-2.234 5.385-7.157 8.989-10.568 13.638-19.712 4.437-90.236 23.565-35.522 38.744 36.538 12.831 73.021 26.719 110.421 36.681 23.557.513 144.724-25.973 152.592-45.646 3.492-13.888-42.805-14.057-47.932-20.958-1.307-3.984-3.461-7.243-5.779-10.48 18.249 4.116 36.486 8.306 54.646 12.807z" fill="#ffb578"/><path d="m771.621 857.571c-5.541 7.084-17.773 11.045-25.571 14.756-23.022 10.953-47.391 19.109-71.814 26.303-31.096 9.158-67.473 22.077-99.523 12.77-32.283-9.374-63.961-21.44-95.289-33.576-12.184-4.723-24.396-9.487-36.16-15.194-4.436-2.152-8.912-4.012-12.512-7.502-1.559-1.511-2.355-3.085-2.604-4.682-3.541 2.294-6.789 4.907-9.428 8.079 2.506 2.19 6.322 3.126 9.428 4.491 49.449 19.183 99.176 38.183 149.699 54.372 10.326 4.115 20.596 5.606 31.414 2.684 42.153-8.175 83.379-20.974 123.791-35.367 20.148-7.918 42.496-14.578 58.987-29.098.136-.155-.019.021.2-.25.024-.047.096-.124.076-.162-7.244-3.119-14.834-5.479-22.525-7.556 3.081 3.196 4.426 6.616 1.831 9.932z" fill="#ff9750"/></g></g></svg>