<svg id="Trophy" height="512" viewBox="0 0 1200 1200" width="512" xmlns="http://www.w3.org/2000/svg"><g><path d="m177.988 360.148c-1.686 28.711-6.633 52.021-14.615 79.416-30.719 95.848-18.992 166.229 77.23 221.692 42.617 27.233 95.51 32.35 139.701 33.294 11.309 6.553 23.422 12.41 36.58 17.69 7.646 21.079 24.793 39.162 49.116 51.363-38.052 15.28-60.275 39.876-62.099 69.464-.135 1.019-.262 2.035-.381 3.047-21.857 14.2-35.121 32.015-39.512 53.132-4.943 34.58-3.1 67.783-2.904 101.392-6.652 113.034 139.954 130.63 251.452 133.434 57.577.944 228.044-11.274 229.062-114.768 1.251-38.276 2.875-77.307-3.465-116.9-4.81-22.204-22.283-39.366-37.429-49.795.3-34.845-29.163-60.384-63.312-75.33 25.143-10.344 49.365-31.268 56.563-54.263 38.893-16.202 68.771-36.244 93.119-65.24 57.12-7.661 100.448-30.63 125.855-66.896 53.431-75.72 4.54-149.831 3.124-242.86 62.449-14.311 69.377-101.471 11.564-127.524-26.267-16.709-63.536-36.496-99.539-25.211-48.589-98.431-244.059-109.404-328.471-109.404-112.171 3.909-311.152 7.735-323.247 132.485-2.771 39.484 29.15 50.588-16.48 30.802-105.459-56.192-178.662 65.058-81.912 120.98zm675.543-30.836c.753-1.868 1.495-3.78 2.239-5.691 1.374 13.722 3.587 27.221 5.712 40.188 3.425 20.737 5.92 40.465 7.936 59.364-2.31-1.306-4.635-2.561-6.978-3.762-14.825-36.394-17.734-65.957-8.909-90.099zm-499.685-19.12c7.058 9.995 14.11 23.332 15.431 37.964 1.736 18.725-4.576 38.198-15.229 60.802-8.657 3.805-17.566 8.563-26.127 14.236 5.807-40.224 18.012-89.4-.506-127.506 8.379 5.538 16.807 10.243 26.431 14.504z" fill="#fff"/><g><path d="m204.939 335.566c2.051 1.405 4.207 2.638 6.479 3.663-.27 24.688-2.555 49.268-7.467 73.486-11.514 54.192-41.193 114.11-8.217 166.493 16.346 25.86 42.947 41.862 68.055 58.184 38.203 20.571 83.163 24.322 125.803 24.639 17.252 10.887 36.059 19.238 55.475 25.842.615 24.556 22.283 41.644 43.623 50.175 5.301 2.118 10.727 3.929 16.225 5.54-.738 15.669-3.791 30.438-9.429 44.499-23.184 6.416-58.247 21.333-59.054 47.972-.877 6.298-1.498 13.037-1.619 19.904-16.746 8.035-34.844 20.656-38.852 39.928-3.698 28.951-2.641 58.258-2.302 87.405.368 16.771-1.138 34.94 8.854 49.403 45.021 76.846 406.871 87.524 406.471-23.946 1.201-36.956 2.812-74.657-3.053-111.176-5.852-16.573-21.734-27.775-36.469-35.913-.885-5.724-.486-12.292-1.592-18.296 2.014-26.439-37.475-45.295-59.918-52.324-1.561-6.139-2.76-12.36-3.609-18.54-1.336-9.156-1.441-18.4-1.23-27.625 11.631-3.271 22.902-7.584 33.305-13.627 15.66-9.094 29.577-23.674 28.642-42.248 32.476-11.085 63.716-27.596 87.907-52.072 6.132-6.203 11.695-12.923 16.563-20.06 104.605-8.896 156.764-69.352 128.416-174.353-6.785-30.938-13.455-62.56-14.358-94.322-.306-10.718-.726-23.649 4.407-33.453 5.075-9.753 17.027-5.681 25.764-10.34 29.322-11.691 27.283-52.853-.747-64.696-20.384-11.355-41.782-27.126-66.134-24.78-20.307 1.958-37.729 13.71-48.145 31.135-24.655 45.326-3.151 104.75.539 153.606 4.627 24.573 7.094 57.797-20.231 69.727-12.766-10.625-26.589-19.298-41.671-25.718-17.797-39.188-29.871-84.19-14.285-126.123 6.411-15.831 11.727-34.688 29.905-39.455 25.934-12.75 57.03-36.453 49.554-69.401-42.73-126.991-451.383-117.363-549.045-58.537-58.072 30.649-59.455 87.214-3.442 121.252 7.726 4.811 15.964 8.745 24.45 12.023 14.311 17.711 25.193 38.749 27.264 61.706 2.944 31.733-9.994 61.824-23.98 89.546-37.268 12.707-83.797 47.76-64.85 91.855-8.521-.177-17.039-.359-25.523-1.149-2.551-10.73-3.027-22.122-2.305-32.569 3.775-47.23 16.047-93.483 19.242-140.8 3.313-33.047-12.062-66.504-45.182-77.835-23.42-9.01-51.529-26.118-75.787-11.315-35.238 23.116-12.892 64.233 21.553 72.69z" fill="#68182b"/><path d="m844.152 163.921c-54.958-28.342-118.31-35.544-179.111-41.065-68.982-6.517-366.943-8.307-342.352 101.849 39.373 101.693 391.82 88.723 481.76 59.29 74.291-19.145 132.404-69.97 39.703-120.074zm-60.297 69.108c-38.316 13.701-80.754 16.672-121.076 18.702-43.51 2.19-87.242 1.586-130.663-1.931-38.241-3.418-78.188-6.726-113.839-22.003-13.557-6.233-30.031-17.311-30.969-33.822 1.059-34.573 56.141-43.422 82.972-48.841 97.281-13.233 198.817-13.861 294.538 9.752 53.111 13.887 89.74 53.21 19.037 78.143z" fill="#fbf199"/><path d="m417.55 214.799c-10.832-6.056-23.971-16.38-16.449-29.282 41.682-54.334 361.932-48.654 406.658 4.421 11.844 13.665-8.104 24.207-19.164 28.929-36.688-16.271-77.354-20.396-116.912-24.366-61.883-5.422-125.207-4.988-186.814 3.326-22.655 3.057-46.356 7.222-67.319 16.972z" fill="#ffe10e"/><path d="m425.82 218.687c47.001-17.175 98.063-18.489 147.534-20.366 68.836-.414 140.536.839 206.026 24.07-71.852 22.529-149.275 19.743-223.676 17.497-43.699-2.894-88.459-5.89-129.884-21.201z" fill="#fac135"/><path d="m212.363 561.754c1.039 10.479 3.665 20.301 7.676 29.341-4.627-4.612-8.904-9.56-12.59-14.99-33.334-48.665-3.957-106.955 7.129-158.024 5.191-24.812 7.822-50.058 8.299-75.382 4.941.663 9.632.727 12.485 3.993 7.909 9.054 7.122 26.728 6.856 38.146-1.16 39.064-10.359 77.395-21.873 114.574-6.127 19.984-10.059 41.391-7.982 62.342z" fill="#fbf199"/><path d="m798.144 945.939c.336 20.631.233 41.28-.633 61.898.151 9.035-1.832 18.535-8.07 25.282-52.688 53.126-187.609 50.823-258.25 41.476-40.682-7.294-101.752-15.677-122.983-55.406-5.638-28.83-2.847-59.271-3.146-88.651 27.996 33.403 76.054 37.48 116.449 43.961 76.067 8.312 155.67 8.481 229.41-13.966 16.148-5.572 33.101-13.072 45.091-25.65 3.935-5.579 1.208 8.407 2.132 11.056z" fill="#ff8e5b"/><path d="m768.872 874.677c17.328 10.706 37.332 29.177 21.5 49.239-37.499 58.948-378.232 64.983-383.738-18.703-.807-17.233 14.287-28.949 28.591-36.583 1.476 17.04 7.005 33.419 20.589 43.757 54.137 37.789 236.23 40.865 289.863 1.043 12.646-9.065 22.854-22.694 23.195-38.753z" fill="#db9f6e"/><path d="m476.655 911.08c-20.789-7.618-30.206-26.919-30.195-48.309 44.177 51.148 264.96 51.158 311.222 1.519 11.056 87.188-231.796 71.31-281.027 46.79z" fill="#fac135"/><path d="m747.468 824.997c21.485 20.501-2.521 39.655-22.613 46.835-61.111 21.73-129.141 20.396-192.782 12.408-27.173-5.046-59.509-8.396-78.271-30.978-18.792-25.39 11.657-42.642 35.03-50.962-5.242 11.095-17.866 21.55-11.062 34.666 27.845 37.793 158.829 33.125 202.976 24.787 23.691-4.051 59.131-15.807 36.586-44.929-1.99-3.987-3.717-8.129-5.256-12.354 12.997 4.512 25.732 10.774 35.392 20.527z" fill="#fbf199"/><path d="m711.673 830.221c.882 1.4 1.932 3.399 1.498 4.841-.275 1.898-1.923 3.021-3.607 4.579-45.922 24.402-147.063 18.771-197.288 5.362-9.044-3.197-23.974-7.137-25.082-16.726.976-4.571 4.765-8.336 7.114-12.548 13.268-20.935 20.373-44.17 21.971-69.116 15.314 3.608 31.063 5.725 46.533 7.242 42.977 4.086 86.418 2.684 128.813-6.104-.85 28.392 5.589 57.945 20.048 82.47z" fill="#fac135"/><path d="m731.815 720.598c-45.839 32.712-261.007 39.689-274.773-28.886 10.155 3.059 20.405 5.741 30.646 8.039 42.081 9.451 85.491 13.409 128.587 12.774 44.667-.656 89.813-6.164 132.824-18.479 1.536-.44 3.063-.965 4.597-1.426-.835 12.251-11.751 21.891-21.881 27.978z" fill="#fbf199"/><path d="m756.35 679.805c-81.397 25.213-169.583 27.021-253.042 11.486-34.987-6.93-70.381-17.281-101.393-35.342 12.053-19.125 7.643-45.45.324-65.639 92.617 19.708 207.309 29.219 308.217 17.56 58.115-6.838 120.832-14.42 169.008-50.521-4.868 63.413-66.654 104.254-123.114 122.456z" fill="#fac135"/><path d="m1003.878 248.448c18.178 5.871 28.814 29.979 10.499 42.603-8.831 7.14-21.241 3.984-30.182 10.387-7.716 6.091-10.121 16.604-11.296 25.868-12.704 81.301 62.313 183.255-13.652 247.837-23.363 18.239-53.368 25.694-82.252 29.373 9.541-17.85 14.82-37.738 14.205-58.473 92.539-32.468 46.977-135.697 43.482-207.79-1.759-17.083-4.298-35.118.783-51.854 8.419-27.717 39.804-47.193 68.413-37.951z" fill="#fac135"/><path d="m913.702 427.642c1.469-56.673-47.51-172.414 23.289-199.072 16.045-5.102 30.854-.398 44.957 6.782-53.994 7.261-67.347 56.862-58.686 103.798 2.146 20.656 5.07 41.225 7.826 61.808 5.824 43.374 18.972 104.479-29.602 128.012 5.004-15.489.18-37.654-13.719-51.074 17.867-9.897 26.65-29.996 25.935-50.254z" fill="#fbf199"/><path d="m829.137 453.647c16.708 35.641 21.442 60.035-22.435 74.86-18.959 7.221-39.02 11.678-59.176 14.869 1.973-28.86 6.318-57.618 13.826-85.568 8.518-29.795 18.842-62.855 43.703-83.12 2.549 27.71 13.282 53.617 24.082 78.959z" fill="#ffe10e"/><path d="m393.679 290.343c95.314 27.35 196.369 29.792 294.714 23.685 44.542-3.377 91.275-8.54 134.112-23.332-9.064 17.144-15.32 35.569-17.436 55.036-.763 7.021-.913 14.079-.58 21.115-15.918 9.598-26.344 27.692-33.85 43.99-12.05 26.163-19.294 54.493-24.143 82.803-2.881 16.815-4.814 33.781-5.946 50.802-6.194.896-12.39 1.704-18.551 2.429-3.152.371-6.33.627-9.489.962-9.993-35.241-23.333-70.388-43.938-100.881-45.318-70.984-119.454-78.991-169.356-7.727-21.493 29.433-34.922 64.373-44.429 99.388-11.355-2.293-22.604-5.059-33.645-8.445 9.883-55.245 14.287-115.797-7.707-168.679 1.568-25.109-5.871-50.249-19.756-71.146z" fill="#fac135"/><path d="m705.515 548.541c-81.117 7.712-163.713 5.278-243.929-8.621 55.839-201.897 192.341-183.138 243.929 8.621z" fill="#ffe10e"/><path d="m398.704 417.221c5.788-13.431 10.528-27.26 13.053-41.616 13.005 40.173 11.691 83.478 7.311 124.959-1.105 9.23-2.567 18.423-4.465 27.525-.535-.18-1.082-.332-1.617-.515-16.492-6.563-38.73-12.793-43.826-32.186-1.262-28.082 20.222-52.593 29.544-78.167z" fill="#ffe10e"/><path d="m359.468 455.806c33.396-20.505-43.072 45.317 33.785 76.376 108.377 41.202 288.404 41.059 400.68 12.693 47.443-12.77 73.596-34.047 50.203-85.098 71.436 38.095 58.012 84.706-11.639 110.643-121.719 42.04-285.41 37.717-410.722 11.333-23.807-5.799-48.212-12.824-68.899-26.41-46.543-30.064-41.719-74.653 6.592-99.537z" fill="#fbf199"/><path d="m319.06 538.202c8.568 13.251 21.13 23.422 34.689 31.148-15.791-1.06-33.48-1.563-46.766-11.216-7.171-5.541-12.232-12.786-15.7-20.865 9.24.654 18.513.658 27.777.933z" fill="#fbf199"/><path d="m291.794 327.441c12.473 68.643-60.895 210.893 21.783 246.998 19.92 7.428 42.488 6.532 63.41 6.951 11.799-.859 14.965 13.817 17.654 22.799 3.234 13.914 6.205 32.145-1.836 44.867-1.145 1.226-1.668 1.372-2.93 1.464-32.949.009-66.65-2.678-98.018-13.399-82.19-28.185-76.535-92.403-52.289-161.96 7.154-32.66 29.113-116.901-.139-140.002-5.756-3.551-12.918-2.833-19.236-4.799-19.148-4.468-24.801-28.057-9.517-40.563 29.823-22.588 75.726 2.727 81.118 37.644z" fill="#fac135"/><path d="m187.708 273.856c9.281-8.154 22.131-5.606 32.873-2.224-18.631 3.708-34.73 25.095-29.291 44.701-15.65-9.77-20.228-31.18-3.582-42.477z" fill="#fbf199"/><path d="m409.863 209.856c2.496 1.864 5.151 3.524 7.688 4.943 20.963-9.75 44.664-13.915 67.318-16.973 61.607-8.313 124.932-8.748 186.814-3.326 39.559 3.971 80.224 8.095 116.912 24.366 3.524-1.504 7.947-3.606 11.961-6.206-32.887-19.681-74.438-26.049-111.641-30.58-53.492-6.517-108.082-6.59-161.736-2.04-39.535 3.352-82.699 9.019-117.316 29.816z" fill="#f7b001"/><path d="m674.26 525.503c-17.342 17.733-53.687 13.061-76.218 13.447-17.596.304-35.145-.603-52.557-3.202-15.41-2.303-32.518-5.536-44.8-15.711-15.217-12.606-10.425-36.568-6.525-53.078 1.153-4.891 2.617-9.685 4.198-14.443-14.203 22.268-26.784 51.285-36.772 87.403 80.216 13.899 162.812 16.333 243.929 8.621-5.701-21.188-12.442-40.257-19.994-57.158.375 12.917-2.61 25.276-11.261 34.121z" fill="#f7b001"/><path d="m412.986 527.575c.535.183 1.082.335 1.617.515 1.897-9.103 3.359-18.295 4.465-27.525 3.551-33.622 5.082-68.44-1.389-101.82.938 24.009 1.264 48.041-3.133 71.804-2.602 14.054-8.547 29.111-23.58 33.235-11.334 3.11-17.681-6.287-21.496-16.577-.283 2.698-.434 5.42-.311 8.183 5.096 19.392 27.334 25.621 43.827 32.185z" fill="#f7b001"/><path d="m824.084 501.16c-12.912 16.104-48.485 28.972-57.61 2.617-8.002-23.105 2.742-51.195 9.625-73.264 4.924-15.778 12.148-30.517 18.514-45.605-17.512 20.159-26.051 47.683-33.26 72.9-7.508 27.95-11.854 56.708-13.826 85.568 20.156-3.191 40.217-7.648 59.176-14.869 35.145-11.875 39.088-29.894 30.685-54.91-2.81 9.877-6.701 19.328-13.304 27.563z" fill="#f7b001"/><path d="m624.347 439.7c-4.738-5.157-10.171-10.012-16.085-14.32-16.647-12.136-34.259-14.591-53.053-.746-6.301 4.639-11.873 10.011-16.391 16.026-5.911 7.868-10.148 19.058-3.413 27.44 11.717 14.58 83.398 12.034 96.755-.187 9.015-8.252-1.717-21.58-7.813-28.213z" fill="#f8f383"/><path d="m818.296 453.186c-.945-6.138-4.785-12.169-7.477-17.627-2.159-4.373-4.027-8.729-5.477-13.166-3.201-9.838-7.555-12.642-11.886-1.929-4.261 10.542-7.604 21.385-7.452 32.844.129 9.681 5.902 20.323 17.105 18.448 9.377-1.57 16.696-8.75 15.187-18.57z" fill="#f8f383"/><path d="m401.011 436.762c-1.768 3.409-3.674 6.755-5.682 10.083-3.643 6.036-8.7 12.417-10.735 19.249-1.597 5.363-3.331 17.033 4.669 18.124 8.227 1.117 13.842-14.731 15.531-20.373 2.488-8.311 3.381-17.292 3.598-26.224.35-14.463-3.272-8.774-7.381-.859z" fill="#f8f383"/><path d="m460.452 166.082c38.021-8.778 77.845-12.298 116.773-13.415 43.85-1.262 87.766 2.343 130.938 9.99 32.52 5.762 66.979 12.822 98.192 25.783-49.456-51.672-363.972-56.74-405.255-2.923-1.168 2.006-1.789 3.939-2.045 5.813 14.485-15.221 44.405-21.322 61.397-25.248z" fill="#f8f383"/><g fill="#f3af79"><path d="m222.646 348.417c14.063 6.602 13.971 28.45 13.301 42.306-.951 19.667-5.287 39.208-9.896 58.295-9.105 37.696-24.072 78.894-17.711 118.07.848 5.217 2.195 10.429 4.014 15.455 2.427 2.97 4.968 5.842 7.686 8.552-4.011-9.04-6.637-18.862-7.676-29.341-2.076-20.951 1.855-42.358 7.982-62.342 11.514-37.18 20.713-75.51 21.873-114.574.266-11.419 1.053-29.093-6.856-38.146-2.854-3.267-7.544-3.33-12.485-3.993-.037 1.909-.172 3.811-.232 5.718z"/><path d="m306.984 558.134c13.285 9.653 30.975 10.156 46.766 11.216-5.441-3.101-10.706-6.617-15.633-10.546-12.921-.031-25.393-.335-36.426-5.489 1.627 1.712 3.373 3.335 5.293 4.819z"/><path d="m421.776 581.753c125.312 26.384 289.003 30.707 410.722-11.333 43.279-16.116 64.826-40.217 57.816-65.294-3.016 22.776-25.064 42.854-44.533 52.688-22.918 11.575-49.15 17.08-73.986 22.938-62.75 14.801-128.982 17.411-193.23 16.273-57.469-1.019-116.311-6.76-171.27-24.349-22.725-7.272-45.285-17.339-63.477-33.056-8.521-7.361-18.75-21.387-23.229-35.603-1.248 17.895 9.184 36.399 32.288 51.323 20.687 13.589 45.092 20.615 68.899 26.413z"/><path d="m915.531 338.779c3.841 31.804 9.57 63.336 10.863 95.402 1.146 28.394-.563 61.779-23.04 81.235.052 4.794-.53 9.417-1.866 13.553 48.573-23.533 35.426-84.638 29.602-128.012-2.756-20.583-5.68-41.151-7.826-61.808-7.732-41.903 2.176-85.843 42.793-99.969-16.482 2.822-30.67 10.477-41.236 25.059-15.429 21.294-12.236 50.146-9.29 74.54z"/><path d="m804.448 283.995c64.442-16.606 116.643-57.053 68.861-100.189 10.896 16.055 16.103 34.229.782 51.555-17.077 19.316-46.433 27.955-70.05 35.625-43.133 14.009-88.549 18.839-133.609 22.053-54.822 3.908-110.18 4.12-164.939-.873-25.612-2.336-51.092-6.188-76.014-12.599-30.047-7.729-63.547-18.387-85.971-40.906-8.459-8.493-14.569-21.488-17.785-32.909-.967-3.44-1.41-6.8-1.531-10.096-3.201 8.694-3.896 18.335-1.504 29.048 39.374 101.694 391.821 88.724 481.76 59.291z"/><path d="m422.853 151.079c-16.719 6.249-57.17 29.855-34.647 48.221-.466-1.711-.792-3.479-.897-5.325 1.059-34.573 56.141-43.422 82.972-48.841 97.281-13.233 198.817-13.861 294.538 9.752 33.157 8.668 59.885 27.251 58.09 46.057 1.854-4.864 1.939-10.218-.852-15.898-8.34-16.975-27.346-27.271-44.56-33.138-47.177-16.083-100.219-19.264-149.595-21.376-35.436-1.515-70.999-.951-106.361 1.777-33.35 2.571-67.205 7.008-98.688 18.771z"/><path d="m453.801 853.263c18.763 22.581 51.099 25.932 78.271 30.978 63.642 7.987 131.671 9.322 192.782-12.408 18.979-6.782 41.428-24.247 25.754-43.439.439 48.555-104.975 53.084-138.738 53.814-31.596.686-63.902-.69-94.916-7.045-22.572-4.625-63.219-19.028-67.348-45.2-2.906 6.779-2.277 14.557 4.195 23.3z"/><path d="m191.29 316.333c-.963-3.472-1.221-6.998-.938-10.472-6.02-2.964-10.514-9.053-12.98-15.792-1.158 9.779 4.262 20.235 13.918 26.264z"/><path d="m601.118 737.049c-42.254-.532-89.641-.375-127.459-20.838 54.092 41.616 218.731 32.518 258.152 4.387-8.492 2.132-16.982 4.125-25.301 6.178-34.149 8.423-70.309 10.714-105.392 10.273z"/></g><path d="m936.991 228.57c-52.805 19.883-38.982 89.313-29.154 146.838-1.115-18.179-3.995-36.467-5.365-53.593-1.82-22.817-.359-46.205 10.656-66.733 11.395-21.234 31.154-23.308 51.452-26.662-8.833-2.4-17.985-2.904-27.589.15z" fill="#fff7cf"/><path d="m191.607 271.167c4.592.107 9.172.71 13.387 1.67 2.189.5 4.248 1.311 6.254 2.237 2.975-1.598 6.109-2.801 9.334-3.442-9.311-2.93-20.194-5.208-28.975-.465z" fill="#fff7cf"/><path d="m193.429 541.098c.639-20.114 5.023-40.496 10.424-60.136 8.666-31.488 23.856-69.675 16.901-103.421-1.374 13.601-3.373 27.137-6.177 40.539-8.529 39.292-27.854 82.85-21.148 123.018z" fill="#fff7cf"/><path d="m793.933 544.875c-112.275 28.365-292.303 28.509-400.68-12.693-37.113-14.998-38.456-38.086-33.697-55.661-4.82 10.178-6.189 22.082-2.748 32.529 6.346 19.253 27.629 29.021 45.285 34.998 29.604 10.022 61.771 14.359 92.57 18.896 34.529 5.084 69.348 7.979 104.215 9.233 57.008 2.051 115.129-1.685 170.791-14.644 30.401-7.081 82.576-20.005 88.258-57.433 1.072-7.065-1.314-11.864-5.752-15.075 5.012 33.328-19.515 49.427-58.242 59.85z" fill="#fff7cf"/><path d="m807.616 221.682c-5.963 3.994-13.752 7.816-23.762 11.347-38.316 13.701-80.754 16.672-121.076 18.702-43.51 2.19-87.242 1.586-130.663-1.931-38.241-3.418-78.188-6.726-113.839-22.003-2.981-1.369-6.098-2.988-9.166-4.835 10.664 7.272 23.957 11.653 35.584 15.494 28.78 9.507 58.265 15.16 88.51 17.238 56.335 3.872 113.545 2.424 169.756-2.545 27.434-2.424 56.117-5.359 81.5-16.795 7.143-3.222 16.89-7.978 23.156-14.672z" fill="#fff7cf"/><path d="m541.327 869.336c46.754 6.617 96.922 3.438 143.105-8.264-1.25.245-2.486.477-3.688.682-44.146 8.338-175.131 13.006-202.976-24.787-3.445-6.643-1.905-12.602 1.134-18.307-5.953 7.387-5.591 17.225 1.131 26.776 12.38 17.606 41.945 21.164 61.294 23.9z" fill="#fff7cf"/><path d="m616.274 712.525c-43.096.635-86.506-3.323-128.587-12.774-3.268-.733-6.533-1.572-9.801-2.384 39.237 18.032 87.579 19.857 128.971 19.921 30.957.047 61.984-2.312 92.582-6.978 16.237-2.476 32.034-6.408 47.762-11.079 1.857-.551 3.71-1.11 5.557-1.683.474-1.594.822-3.23.938-4.929-1.534.461-3.061.985-4.597 1.426-43.012 12.316-88.158 17.824-132.825 18.48z" fill="#fff7cf"/><path d="m436.937 447.365c-1.895-22.28-5.002-51.809-18.494-72.14 16.128 49.476 11.736 104.419 2.699 154.942 11.041 3.387 22.289 6.152 33.645 8.445 9.507-35.016 22.936-69.955 44.429-99.388 49.902-71.264 124.038-63.257 169.356 7.727 20.605 30.493 33.945 65.64 43.938 100.881 3.159-.335 6.337-.591 9.489-.962 6.161-.725 12.356-1.533 18.551-2.429 1.132-17.021 3.065-33.986 5.946-50.802 4.849-28.311 12.093-56.64 24.144-82.803 7.506-16.298 17.932-34.393 33.85-43.99-.225-4.758-.131-9.523.125-14.284-12.453 8.498-22.927 20.992-31.275 32.676-12.719 17.796-20.592 38.407-26.566 59.309-6.334 22.149-11.061 46.61-12.84 71.188-1.855 25.705-16.352 27.744-22.93 3.087-8.284-31.104-20.746-61.444-37.588-87.821-21.547-33.75-55.077-65.209-97.943-60.044-33.908 4.086-62.495 30.112-82.054 56.343-17.254 23.143-31.193 51.427-40.298 80.556-7.066 22.559-17.792 20.917-15.964-2.015 1.538-19.41 1.436-38.96-.22-58.476z" fill="#ee9e2b"/><path d="m476.655 911.08c43.251 21.54 235.913 36.399 274.593-19.422-2.484 1.354-4.967 2.641-7.42 3.865-29.158 14.557-61.986 21.766-94.145 25.64-38.633 4.652-77.962 2.979-116.293-3.361-29.733-4.918-59.767-11.395-82.101-30.62 4.736 10.735 13.036 19.381 25.366 23.898z" fill="#ee9e2b"/><path d="m756.35 679.805c24.188-7.798 49.345-19.766 70.595-35.87-18.445 10.301-39.015 17.549-58.088 23.316-43.904 13.273-90.369 20.967-136.111 23.602-48.211 2.777-97.621.122-144.751-10.753-18.806-4.338-37.526-10.443-54.263-20.186-11.307-6.585-19.381-14.986-23.8-27.528-.229-.65-.409-1.315-.618-1.973-.426 9.094-2.582 17.893-7.398 25.536 31.012 18.061 66.405 28.412 101.393 35.342 83.458 15.534 171.643 13.727 253.041-11.486z" fill="#ee9e2b"/><path d="m220.195 330.36c6.318 1.966 13.48 1.248 19.236 4.799 29.252 23.101 7.293 107.342.139 140.002-24.246 69.558-29.901 133.776 52.289 161.96 31.367 10.722 65.068 13.408 98.018 13.399 1.262-.092 1.785-.238 2.93-1.464 7.652-12.109 5.322-29.162 2.291-42.778-9.768 36.604-71.717 32.084-103.442 20.233-21.231-7.934-39.232-23.395-47.981-44.486-9.844-23.728-3.913-53.74.501-77.999 8.306-45.671 25.245-92.137 19.141-139.173-1.552-11.951-6.519-24.227-16.525-31.555-7.556-5.536-15.819-7.854-24.181-11.792-11.225-5.287-17.674-15.103-17.307-25.518-7.891 12.89-1.426 30.565 14.891 34.372z" fill="#ee9e2b"/><path d="m555.704 239.887c63.248 1.909 128.668 4.149 191.004-9.044-3.725-.778-7.448-1.565-11.18-2.318-33.281-6.712-67.043-9.273-100.903-10.974-35.644-1.79-71.37-1.481-106.976.922-16.484 1.113-32.909 3.243-49.203 5.941-6.326 1.048-12.534 2.534-18.709 4.137 31.41 7.023 63.971 9.218 95.967 11.336z" fill="#ee9e2b"/><path d="m887.857 576.537c-2.436 9.73-6.119 19.107-10.861 27.979 28.884-3.679 58.889-11.133 82.252-29.373 75.966-64.582.948-166.536 13.652-247.837 1.175-9.264 3.58-19.777 11.296-25.868 8.94-6.402 21.351-3.247 30.182-10.387 10.638-7.333 11.47-18.526 6.767-27.785.159 4.675-1.287 9.393-4.961 13.814-6.746 8.115-20.105 10.066-29.462 13.915-12.683 5.214-18.97 16.608-21.929 29.368-8.539 36.823 3.773 76.733 11.42 112.572 8.265 38.733 14.482 84.676-14.173 116.881-12.009 13.499-55.068 42.774-74.183 26.721z" fill="#ee9e2b"/><path d="m634.027 757.411c2.684-.812 5.551-1.721 8.498-2.724-26.512 2.101-53.201 1.689-79.713-.832-15.471-1.518-31.219-3.634-46.533-7.242-1.598 24.946-8.703 48.182-21.971 69.116-2.35 4.212-6.139 7.977-7.114 12.548 1.108 9.589 16.038 13.528 25.082 16.726 39.675 10.591 111.102 16.316 162.003 6.231-19.596 1.524-39.386 1.345-58.965.508-25.729-1.1-122.318-14.654-83.84-59.342 24.999-29.028 69.046-24.847 102.553-34.989z" fill="#ee9e2b"/><path d="m680.37 805.943c-1.779-7.416-3.857-13.726-4.852-20.287-1.481-9.824-7.08-10.112-18.899-5.205-26.171 10.86-57.557 3.93-84.734 13.793-6.708 2.436-19.511 9.577-15.14 18.818 4.72 9.979 17.471 15.739 27.641 18.467 23.197 6.222 50.99 6.523 74.439 2.073 8.023-1.522 17.82-4.468 21.771-12.318 2.362-4.692.921-10.561-.226-15.341z" fill="#fbe134"/><path d="m402.24 590.31c1.5 4.138 2.865 8.541 4.002 13.079 24.488 13.82 56.519 17.252 83.219 20.492 48.947 5.943 98.701 6.166 147.886 3.689 46.64-2.347 93.661-7.463 139.053-18.744 20.996-5.219 40.807-12.623 59.714-23.203 8.057-4.509 16.252-9.696 23.883-15.614-44.924 25.376-98.969 31.911-149.539 37.861-100.91 11.659-215.601 2.148-308.218-17.56z" fill="#fbe134"/><path d="m923.547 527.437c.161-.09.333-.17.492-.263 21.072-12.138 30.241-33.116 33.57-56.32 6.323-44.085-8.679-88.964-15.044-132.183-3.22-21.857-3.103-45.733 8.809-65.095 10.701-17.394 32.151-25.027 52.725-25.041-.074-.024-.145-.063-.221-.087-28.609-9.242-59.994 10.233-68.412 37.951-5.081 16.736-2.542 34.771-.783 51.854 2.98 61.501 36.506 145.625-11.136 189.184z" fill="#fbe134"/><path d="m586.837 329.998c44.141 1.297 87.887-3.737 131.555-9.305 20.808-2.653 42.369-3.829 62.371 3.544 9.872 3.641 17.985 9.434 24.992 16.449 2.579-17.607 8.475-34.337 16.75-49.99-42.837 14.792-89.57 19.955-134.112 23.332-90.524 5.622-183.331 3.946-271.856-17.679 49.232 29.954 114.94 32.024 170.3 33.649z" fill="#fbe134"/><path d="m285.592 344.291c.413 33.413-9.835 66.875-16.132 99.414-9.139 47.229-11.27 116.842 45.996 133.069 5.9 1.671 13.152 2.703 20.81 2.928-7.776-.962-15.41-2.548-22.688-5.262-82.678-36.104-9.311-178.354-21.783-246.998-3.256-21.077-21.275-38.634-41.605-44.29 21.858 11.728 35.048 32.477 35.402 61.139z" fill="#fbe134"/><path d="m599.49 909.828c29.496-.355 59.561-2.53 88.424-8.852 18.683-4.092 37.022-10.757 52.467-22.236 2.291-1.703 4.322-3.551 6.23-5.47-62.98 40.437-258.825 37.349-300.151-10.499-.003 3.947.321 7.821.974 11.565 14.771 12.307 33.451 19.888 51.969 25.041 32.333 9.002 66.692 10.852 100.087 10.451z" fill="#fbe134"/><path d="m533.804 942.434c58.969 8.857 120.844 5.854 178.793-8.21 22.438-5.444 44.09-15.011 55.043-36.674 3.333-6.591 3.359-12.374.559-16.575-2.467 13.316-11.565 24.604-22.521 32.455-53.633 39.822-235.727 36.746-289.863-1.043-3.207-2.439-5.93-5.239-8.291-8.279 16.549 25.746 56.895 33.912 86.28 38.326z" fill="#c98450"/><path d="m406.634 905.213c5.452 82.877 339.621 77.75 382.513 20.392-7.019 5.331-14.473 10.081-22.741 13.915-18.599 8.625-39.32 12.345-59.423 15.511-41.157 6.483-82.993 9.669-124.655 9.373-39.686-.284-79.694-4.933-117.104-18.702-14.906-5.487-30.089-12.575-41.33-24.063-16.689-17.059-3.939-35.951 12.061-46.845-.305-2.037-.549-4.094-.729-6.163-14.305 7.633-29.399 19.348-28.592 36.582z" fill="#f9c6a0"/><path d="m408.207 1019.189c21.231 39.729 82.302 48.112 122.983 55.406 70.641 9.348 205.563 11.65 258.25-41.476 3.252-3.518 5.328-7.788 6.566-12.346-.832.812-1.599 1.666-2.469 2.453-15.507 14.009-35.16 22.835-54.824 29.237-41.305 13.442-87.197 16.784-130.398 17.112-49.799.378-103.861-7.87-150.334-26.316-16.459-6.532-31.063-16.595-41.756-30.8-4.707-6.251-8.248-13.103-11.105-20.256.475 9.094 1.354 18.119 3.087 26.986z" fill="#ff564d"/><path d="m730.121 990.267c-73.63 12.771-152.81 15.442-226.359.996-17.521-3.44-35.394-8.343-51.848-14.91-34.548-13.792-33.363 8.355-22.813 20.584 6.372 7.384 16.038 13.013 25.995 17.749 26.512 12.605 57.086 18.383 86.418 21.986 35.621 4.379 71.265 5.049 107.092 2.639 28.725-1.93 58.569-4.894 86.369-12.111 15.121-3.927 32.631-11.469 33.986-27.73 1.779-21.281-26.643-11.319-38.84-9.203z" fill="#fbc471"/></g></g></svg>