<?xml version="1.0" encoding="UTF-8"?>
<!-- Generator: Adobe Illustrator 26.0.3, SVG Export Plug-In . SVG Version: 6.00 Build 0)  -->
<svg xmlns="http://www.w3.org/2000/svg" xmlns:xlink="http://www.w3.org/1999/xlink" version="1.1" id="Capa_1" x="0px" y="0px" viewBox="0 0 512 512" style="enable-background:new 0 0 512 512;" xml:space="preserve" width="512" height="512">
<g>
	<path style="fill-rule:evenodd;clip-rule:evenodd;fill:#074785;" d="M299.234,19.259c-4.346-0.795-8.682-1.44-13.009-1.961   c102.52,25.556,169.175,124.354,150.346,226.666c-16.734,90.932-100.591,160.638-190.754,166.93   c-11.285,0.786-14.115,3.981-25.781,2.578l0,0c109.739,20.195,222.794-58.217,242.399-164.748   C482.039,142.189,408.97,39.454,299.234,19.259z"/>
	<path style="fill-rule:evenodd;clip-rule:evenodd;fill:#7BEFE5;" d="M258.596,36.379c4.678-15.941,23.384-46.936,40.53-32.766   c9.355,7.085,7.798,37.195,5.456,48.707"/>
	<path style="fill-rule:evenodd;clip-rule:evenodd;fill:#074785;" d="M264.702,22.164c-2.781,5.053-4.908,10.128-6.106,14.215   l45.986,15.941c0.864-4.25,1.619-11.028,1.76-18.246C293.182,28.583,279.231,24.548,264.702,22.164z"/>
	<path style="fill-rule:evenodd;clip-rule:evenodd;fill:#7BEFE5;" d="M282.732,430.064c-1.376-0.569-2.708-1.119-3.974-1.643   c-10.042-4.179-21.4-9.772-28.951-18.605c-1.54-1.803-3.709-3.679-4.487-6.011c-3.864-11.581,0.951-27.892-5.725-27.857h-15.901   c-6.635-0.035-1.938,16.012-5.68,27.574c-0.783,2.419-2.946,4.432-4.536,6.293c-10.758,12.083-25.925,16.704-39.511,23.411   c-19.986,9.865-57.269,27.491-51.666,58.923c3.57,20.033,62.221,3.4,72.925,3.4c11.89,0,24.28,1.238,36.419,2.033   c12.137-0.795,24.527-2.033,36.419-2.033c10.699,0,69.348,16.633,72.925-3.4C347.224,457.178,307.036,440.104,282.732,430.064z"/>
	<path style="fill-rule:evenodd;clip-rule:evenodd;fill:#074785;" d="M232.775,404.552c4.228,0,8.412-0.261,12.546-0.747   c-2.03-13.015,0.153-27.893-5.725-27.857h-15.901c-5.84-0.037-3.725,14.628-5.68,27.574   C222.864,404.196,227.786,404.552,232.775,404.552z"/>
	<path style="fill-rule:evenodd;clip-rule:evenodd;fill:#A089E4;" d="M413.766,210.694c0,98.484-82.243,178.323-183.69,178.323   c-101.455,0-183.69-79.839-183.69-178.323c0-98.485,82.236-178.327,183.69-178.327C331.523,32.367,413.766,112.209,413.766,210.694   z"/>
	<path style="fill-rule:evenodd;clip-rule:evenodd;fill:#29AEFD;" d="M354.316,477.013c1.264,10.502-5.661,21.141-15.503,23.322   c-70.052,15.553-141.267,15.553-211.319,0c-9.842-2.179-16.772-12.82-15.506-23.322c0.217-1.866,0.435-3.727,0.652-5.589   c1.264-10.518,9.859-17.024,19.228-14.947c67.153,14.909,135.415,14.909,202.566,0c9.37-2.076,17.967,4.427,19.231,14.947   C353.881,473.286,354.1,475.147,354.316,477.013z"/>
	<path style="fill:#7BEFE5;" d="M128.576,478.48c0,0,3.379-0.031,9.273,0.128c5.892,0.142,14.294,0.44,24.341,0.939   c10.023,0.514,21.72,1.117,34.245,1.76c6.242,0.293,12.694,0.606,19.249,0.92c6.548,0.341,13.191,0.517,19.836,0.787   c6.633,0.131,13.275,0.373,19.793,0.387c3.264,0,6.508,0.132,9.696,0.066c3.195-0.019,6.353-0.037,9.459-0.048   c3.108,0,6.144-0.194,9.137-0.199c2.988-0.056,5.925-0.075,8.758-0.26c5.671-0.311,11.068-0.458,16.019-0.871   c2.48-0.167,4.861-0.334,7.127-0.487c2.261-0.212,4.398-0.411,6.417-0.6c4.033-0.392,7.583-0.642,10.464-1.053   c5.786-0.705,9.165-0.988,9.165-0.988s-3.097,1.14-8.638,2.941c-1.386,0.436-2.911,0.991-4.609,1.453   c-1.687,0.482-3.539,0.927-5.511,1.446c-1.976,0.501-4.08,1.046-6.297,1.612c-2.249,0.453-4.612,0.918-7.08,1.408   c-2.478,0.462-5.042,1.055-7.734,1.458c-2.694,0.379-5.482,0.775-8.348,1.186c-5.739,0.812-11.83,1.374-18.146,1.894   c-6.32,0.372-12.861,0.807-19.52,0.833c-6.659,0.219-13.421-0.009-20.181-0.096c-6.758-0.327-13.52-0.546-20.148-1.108   c-6.643-0.438-13.151-1.125-19.45-1.794c-6.292-0.698-12.358-1.528-18.094-2.355c-5.744-0.799-11.158-1.676-16.146-2.565   c-4.986-0.825-9.546-1.707-13.579-2.513c-4.04-0.765-7.548-1.54-10.435-2.172C131.864,479.321,128.576,478.48,128.576,478.48z"/>
	<g>
		<path style="fill-rule:evenodd;clip-rule:evenodd;fill:#7BEFE5;" d="M246.255,135.408c1.633,5.575-0.023,16.592-6.092,16.514    c-54.224-0.7-77.191,2.882-127.471,37.368c-5.007,3.434-12.409-5.035-14.047-10.607C90.4,150.566,82.16,122.451,73.917,94.332    c-1.635-5.573,1.607-11.512,7.214-13.193c42.4-12.429,84.803-24.86,127.203-37.292c5.623-1.609,11.56,1.638,13.195,7.212    C229.77,79.177,238.015,107.294,246.255,135.408z"/>
		<path style="fill-rule:evenodd;clip-rule:evenodd;fill:#074785;" d="M242.8,31.887l0.005,0.002l-2.094-7.149l-5.144,1.506    l0.819,3.424l-99.153-16.564c-3.097-0.515-7.539,0.785-9.868,2.894L58.334,78.498l-11.061,1.922l2.336,7.974h0.016    c0.32,0.792,1.217,1.403,2.666,1.657l102.047,17.9c3.097,0.542,7.536-0.739,9.866-2.847l77.339-70.031    C242.8,33.937,243.186,32.785,242.8,31.887z"/>
		<path style="fill-rule:evenodd;clip-rule:evenodd;fill:#29AEFD;" d="M135.43,6.952c-3.085-0.467-7.525,0.835-9.873,2.891    l-76.97,67.509c-2.344,2.055-1.741,4.137,1.337,4.629l101.534,16.14c3.078,0.491,7.518-0.792,9.863-2.849l77.85-68.289    c2.343-2.055,1.739-4.119-1.343-4.586L135.43,6.952z"/>
		<path style="fill-rule:evenodd;clip-rule:evenodd;fill:#074785;" d="M98.395,93.256c-1.43,1.361-3.492,1.511-4.609,0.337l0,0    c-1.118-1.174-0.866-3.227,0.565-4.586l43.268-41.167c1.426-1.359,3.492-1.508,4.607-0.334l0,0    c1.117,1.17,0.864,3.225-0.565,4.586L98.395,93.256z"/>
		<path style="fill-rule:evenodd;clip-rule:evenodd;fill:#074785;" d="M108.607,128.092c0.388,1.326-0.374,2.717-1.701,3.106l0,0    c-1.325,0.391-2.718-0.371-3.108-1.698L93.341,93.828c-0.386-1.327,0.372-2.716,1.699-3.107l0,0    c1.327-0.389,2.72,0.371,3.108,1.698L108.607,128.092z"/>
		<path style="fill-rule:evenodd;clip-rule:evenodd;fill:#074785;" d="M117.061,132.462c1.362,4.645-1.567,9.593-6.544,11.051    c-4.976,1.46-10.115-1.124-11.478-5.767c-1.36-4.644,1.572-9.593,6.546-11.053C110.565,125.235,115.701,127.818,117.061,132.462z"/>
		<path style="fill-rule:evenodd;clip-rule:evenodd;fill:#074785;" d="M114.673,166.748c1.377-0.275,3.581-0.921,4.889-1.432    c2.72-1.02,5.313-2.382,7.718-4.071c1.158-0.828,1.416-2.264,0.612-3.135c-2.372-2.593-4.885-5.487-7.461-8.568    c-0.88-1.052-2.337-2.817-3.233-3.92c-2.626-3.224-5.292-6.583-7.951-9.971c-0.908-1.157-1.767-0.906-1.906,0.56    c-0.409,4.287-0.838,8.553-1.31,12.683c-0.158,1.414-0.431,3.688-0.605,5.044c-0.504,3.987-1.057,7.78-1.652,11.241    c-0.207,1.167,0.784,2.238,2.205,2.311C108.917,167.612,111.835,167.357,114.673,166.748z"/>
	</g>
	<g>
		<path style="fill-rule:evenodd;clip-rule:evenodd;fill:#F9D555;" d="M341.523,202.796l3.857-53.664l-32.81-0.467l-16.155-21.795    l-38.588,36.325c-0.852,0.806-0.701,1.547,0.336,1.643l19.417,1.881c1.038,0.102,1.807,1.126,1.711,2.28l-1.798,21.511    c-0.099,1.155,0.541,1.469,1.416,0.698l29.687-26.098l-1.438,36.932c-0.045,1.19,0.588,1.531,1.407,0.759l15.282-14.327    c0.819-0.77,2.078-0.746,2.793,0.054l13.424,14.972C340.78,204.299,341.434,203.982,341.523,202.796z"/>
		<path style="fill-rule:evenodd;clip-rule:evenodd;fill:#074785;" d="M344.382,162.977l0.998-13.845l-32.81-0.467l-16.155-21.795    l-11.29,10.628c2.932,6.664,7.661,12.679,14.207,17.917C313.05,166.4,328.551,169.026,344.382,162.977z"/>
		<path style="fill-rule:evenodd;clip-rule:evenodd;fill:#FFA4AC;" d="M383.328,134.424c-13.191,25.423-44.499,35.339-69.923,22.146    c-25.424-13.193-35.341-44.499-22.148-69.925c13.195-25.421,44.501-35.339,69.925-22.146    C386.606,77.692,396.523,108.998,383.328,134.424z"/>
		<path style="fill-rule:evenodd;clip-rule:evenodd;fill:#FFFFFF;" d="M342.57,93.449c0.812,2.245,3.355,3.565,5.659,2.934    l15.426-4.216c2.301-0.631,2.925,0.346,1.388,2.172l-10.313,12.225c-1.539,1.823-1.409,4.687,0.287,6.367l11.365,11.249    c1.696,1.678,1.162,2.707-1.186,2.287l-15.741-2.818c-2.348-0.421-4.767,1.124-5.372,3.432l-4.059,15.468    c-0.607,2.307-1.765,2.361-2.574,0.117l-5.431-15.044c-0.812-2.243-3.358-3.566-5.659-2.936l-15.426,4.22    c-2.304,0.63-2.927-0.346-1.388-2.172l10.313-12.225c1.536-1.823,1.407-4.689-0.29-6.367l-11.367-11.25    c-1.694-1.678-1.163-2.707,1.19-2.287l15.739,2.818c2.351,0.42,4.767-1.124,5.372-3.434l4.061-15.466    c0.605-2.309,1.762-2.361,2.574-0.116L342.57,93.449z"/>
	</g>
	<g>
		<path style="fill:#FFFFFF;" d="M214.261,302.747c3.113,0,6.746-2.305,8.068-5.12c0,0,7.273-15.449,7.273-27.654    c0-8.317-1.664-16.217-4.654-23.339l-48.452-33.59l-45.417,27.409c-4.879,8.607-7.689,18.712-7.689,29.519    c0,12.205,7.273,27.654,7.273,27.654c1.327,2.815,4.955,5.12,8.071,5.12H214.261z"/>
		<path style="fill:#074785;" d="M176.497,213.045c-19.273,0-36.151,11.01-45.457,27.484c4.983,22.83,24.499,39.865,47.814,39.865    c21.186,0,39.231-14.062,46.094-33.759C216.636,226.831,198.066,213.045,176.497,213.045z"/>
		<path style="fill:#FFFFFF;" d="M331.394,302.747c3.115,0,6.748-2.305,8.073-5.12c0,0,7.273-15.449,7.273-27.654    c0-8.317-1.664-16.217-4.654-23.34l-48.452-33.589l-45.459,27.482c-4.853,8.592-7.647,18.669-7.647,29.446    c0,12.205,7.271,27.654,7.271,27.654c1.329,2.815,4.958,5.12,8.071,5.12H331.394z"/>
		<path style="fill:#074785;" d="M293.634,213.045c-19.275,0-36.151,11.01-45.457,27.484c4.981,22.83,24.497,39.865,47.814,39.865    c21.181,0,39.231-14.062,46.092-33.759C333.77,226.831,315.203,213.045,293.634,213.045z"/>
		<path style="fill:#074785;" d="M255.452,316.751c0-6.988-10.831-6.988-10.831,0c0,7.141,2.221,28.293-10.334,26.284    c-9.887-1.583-8.207-18.344-8.198-25.564c0.005-6.982-10.824-6.982-10.833,0c-0.014,13.176,0.113,33.439,16.953,36.137    c8.741,1.398,16.678-2.522,20.181-10.769C255.895,334.602,255.452,325.514,255.452,316.751z"/>
	</g>
	<g>
		<path style="fill-rule:evenodd;clip-rule:evenodd;fill:#FFFFFF;" d="M152.525,346.456c4.951-8.163-7.718-15.845-12.666-7.678    C134.906,346.947,147.572,354.624,152.525,346.456z"/>
		<path style="fill-rule:evenodd;clip-rule:evenodd;fill:#FFFFFF;" d="M77.557,231.754c4.951-8.171-7.713-15.846-12.664-7.678    C59.941,232.242,72.607,239.922,77.557,231.754z"/>
		<path style="fill-rule:evenodd;clip-rule:evenodd;fill:#FFFFFF;" d="M129.962,325.858c-24.386-18.436-46.146-44.901-49.781-76.202    c-0.845-7.265-12.052-5.651-11.21,1.596c3.979,34.22,27.49,63.469,54.193,83.66C128.988,339.316,135.783,330.259,129.962,325.858z    "/>
	</g>
	<path style="fill:#FFFFFF;" d="M301.257,335.355c0,4.211-3.412,7.624-7.624,7.624c-4.212,0-7.624-3.413-7.624-7.624   c0-4.21,3.412-7.625,7.624-7.625C297.845,327.73,301.257,331.144,301.257,335.355z"/>
	<path style="fill:#FFFFFF;" d="M271.172,76.755c0,4.212-3.414,7.625-7.623,7.625c-4.212,0-7.624-3.413-7.624-7.625   c0-4.21,3.412-7.624,7.624-7.624C267.758,69.131,271.172,72.545,271.172,76.755z"/>
	<path style="fill:#FFFFFF;" d="M112.776,221.699c0,2.609-2.113,4.724-4.725,4.724c-2.609,0-4.725-2.114-4.725-4.724   c0-2.607,2.115-4.723,4.725-4.723C110.663,216.975,112.776,219.092,112.776,221.699z"/>
	<path style="fill:#FFFFFF;" d="M245.248,199.479c0,2.611-2.111,4.725-4.722,4.725c-2.607,0-4.722-2.114-4.722-4.725   c0-2.607,2.115-4.724,4.722-4.724C243.137,194.755,245.248,196.872,245.248,199.479z"/>
	<path style="fill:#FFFFFF;" d="M398.618,216.975c0,2.609-2.115,4.723-4.725,4.723s-4.725-2.114-4.725-4.723   c0-2.608,2.115-4.722,4.725-4.722S398.618,214.367,398.618,216.975z"/>
	<path style="fill:#FFFFFF;" d="M154.555,76.755c0,2.611-2.113,4.724-4.725,4.724c-2.607,0-4.722-2.113-4.722-4.724   c0-2.607,2.115-4.723,4.722-4.723C152.442,72.031,154.555,74.148,154.555,76.755z"/>
	<path style="fill:#FFFFFF;" d="M136.908,22.164c0,2.611-2.113,4.723-4.722,4.723s-4.722-2.113-4.722-4.723   c0-2.607,2.113-4.721,4.722-4.721S136.908,19.557,136.908,22.164z"/>
	<path style="fill:#FFFFFF;" d="M103.43,63.383c0,2.611-2.113,4.725-4.722,4.725c-2.609,0-4.725-2.114-4.725-4.725   c0-2.607,2.115-4.723,4.725-4.723C101.317,58.659,103.43,60.776,103.43,63.383z"/>
	<path style="fill:#FFFFFF;" d="M78.219,182.741c0,2.607-2.115,4.723-4.725,4.723s-4.722-2.116-4.722-4.723   c0-2.611,2.113-4.724,4.722-4.724S78.219,180.13,78.219,182.741z"/>
	<path style="fill:#FFFFFF;" d="M202.824,364.354c0,2.607-2.113,4.721-4.722,4.721c-2.607,0-4.722-2.114-4.722-4.721   c0-2.609,2.115-4.724,4.722-4.724C200.711,359.63,202.824,361.744,202.824,364.354z"/>
	<path style="fill:#FFFFFF;" d="M187.443,445.657c0,2.611-2.115,4.727-4.722,4.727c-2.609,0-4.725-2.116-4.725-4.727   c0-2.607,2.115-4.721,4.725-4.721C185.327,440.936,187.443,443.05,187.443,445.657z"/>
	<path style="fill:#FFFFFF;" d="M224.758,426.136c0,2.609-2.113,4.722-4.722,4.722s-4.722-2.113-4.722-4.722   c0-2.61,2.113-4.722,4.722-4.722S224.758,423.527,224.758,426.136z"/>
	<path style="fill:#FFFFFF;" d="M435.823,295.63c0,2.609-2.113,4.726-4.722,4.726s-4.722-2.116-4.722-4.726   c0-2.608,2.113-4.721,4.722-4.721S435.823,293.021,435.823,295.63z"/>
	<path style="fill:#FFFFFF;" d="M376.822,369.075c0,2.611-2.113,4.726-4.722,4.726c-2.612,0-4.725-2.115-4.725-4.726   c0-2.608,2.113-4.721,4.725-4.721C374.709,364.354,376.822,366.466,376.822,369.075z"/>
	<path style="fill:#FFFFFF;" d="M459.416,219.885c0,2.608-2.115,4.724-4.725,4.724c-2.607,0-4.725-2.115-4.725-4.724   c0-2.611,2.118-4.723,4.725-4.723C457.3,215.161,459.416,217.274,459.416,219.885z"/>
	<path style="fill:#FFFFFF;" d="M439.22,132.116c0,2.609-2.113,4.723-4.722,4.723s-4.722-2.114-4.722-4.723   c0-2.608,2.113-4.725,4.722-4.725S439.22,129.508,439.22,132.116z"/>
	<path style="fill:#FFFFFF;" d="M351.464,323.006c0,2.607-2.115,4.724-4.725,4.724c-2.607,0-4.725-2.117-4.725-4.724   s2.118-4.723,4.725-4.723C349.349,318.283,351.464,320.399,351.464,323.006z"/>
	<path style="fill:#FFFFFF;" d="M372.1,178.017c0,2.607-2.115,4.724-4.725,4.724c-2.612,0-4.725-2.116-4.725-4.724   c0-2.611,2.113-4.725,4.725-4.725C369.985,173.293,372.1,175.407,372.1,178.017z"/>
	<path style="fill:#FFFFFF;" d="M219.979,127.138c0,2.609-2.113,4.724-4.722,4.724c-2.609,0-4.725-2.114-4.725-4.724   c0-2.608,2.115-4.722,4.725-4.722C217.866,122.416,219.979,124.53,219.979,127.138z"/>
	<path style="fill:#FFFFFF;" d="M164.894,131.862c0,2.609-2.113,4.723-4.725,4.723c-2.609,0-4.722-2.114-4.722-4.723   c0-2.607,2.113-4.724,4.722-4.724C162.781,127.138,164.894,129.255,164.894,131.862z"/>
	<path style="fill:#FFFFFF;" d="M210.995,90.618c0,2.608-2.115,4.725-4.725,4.725s-4.722-2.116-4.722-4.725   c0-2.607,2.113-4.723,4.722-4.723S210.995,88.011,210.995,90.618z"/>
	<path style="fill:#FFFFFF;" d="M268.271,122.416c0,2.608-2.113,4.722-4.722,4.722s-4.725-2.114-4.725-4.722   c0-2.609,2.115-4.724,4.725-4.724S268.271,119.807,268.271,122.416z"/>
	<path style="fill:#074785;" d="M196.499,186.979c-0.692-0.668-2.075-10.029-3.332-9.953c-1.257,0.077-2.355,9.36-2.946,9.969   c-1.176,1.226-9.807,2.095-9.736,3.286c0.071,1.185,8.546,1.746,9.741,2.906c0.671,0.646,2.075,10.033,3.332,9.958   c1.259-0.073,2.334-9.332,2.946-9.963c1.139-1.184,9.835-2.099,9.767-3.292C206.198,188.698,197.647,188.1,196.499,186.979z"/>
	<path style="fill:#074785;" d="M264.189,442.55c-0.689-0.666-2.073-10.026-3.329-9.951c-1.259,0.075-2.355,9.358-2.944,9.968   c-1.181,1.227-9.81,2.096-9.739,3.285c0.071,1.187,8.544,1.749,9.743,2.908c0.668,0.647,2.071,10.032,3.332,9.956   c1.257-0.073,2.329-9.33,2.941-9.961c1.139-1.186,9.838-2.101,9.77-3.293C273.89,444.272,265.342,443.672,264.189,442.55z"/>
	<path style="fill:#FFFFFF;" d="M383.389,250.065c-0.692-0.666-2.075-10.026-3.332-9.953c-1.259,0.08-2.355,9.36-2.943,9.972   c-1.179,1.226-9.809,2.095-9.739,3.285c0.071,1.186,8.546,1.745,9.741,2.907c0.668,0.647,2.076,10.031,3.332,9.959   c1.257-0.075,2.334-9.332,2.946-9.963c1.137-1.186,9.833-2.099,9.765-3.293C393.088,251.784,384.538,251.186,383.389,250.065z"/>
	<path style="fill:#FFFFFF;" d="M179.619,49.213c-0.692-0.668-2.075-10.028-3.33-9.953c-1.259,0.078-2.355,9.358-2.946,9.971   c-1.179,1.225-9.809,2.094-9.739,3.282c0.071,1.187,8.546,1.749,9.741,2.908c0.671,0.647,2.075,10.032,3.336,9.958   c1.252-0.074,2.329-9.327,2.941-9.962c1.139-1.186,9.836-2.099,9.767-3.293C189.318,50.932,180.767,50.335,179.619,49.213z"/>
</g>















</svg>
