<svg id="Layer_1" enable-background="new 0 0 512 512" height="512" viewBox="0 0 512 512" width="512" xmlns="http://www.w3.org/2000/svg"><g><g><g><path d="m426.452 305.371c-10.501-29.25-38.124-77.892-76.148-57.951l-9.645 30.275 27.602 37.576 11.036-5.444c-13.894 6.93-60.886 31.065-62.17 41.134-1.508 11.819 8.086 32.47 18.56 40.166 10.474 7.695 25.885 9.313 33.014 3.54 6.203-5.023 1.081-14.806-9.166-13.97 7.942-1.15 6.127 3.591 14.748 1.807 10.069-2.085 62.67-47.883 52.169-77.133z" fill="#289d35"/><path d="m356.846 399.586c-7.294 0-15.599-2.513-22.047-7.25-10.87-7.986-20.718-29.352-19.16-41.564 1.109-8.694 30.843-25.625 50.461-35.908l-26.65-36.28c-.49-.667-.347-1.606.321-2.097s1.606-.347 2.097.321l26.857 36.562 7.738-3.817c2.908-1.457 5.032-2.491 6.02-2.97.744-.358 1.639-.05 2.001.692.363.742.057 1.638-.684 2.004l-6.611 3.261c-24.513 12.312-57.638 31.273-58.574 38.61-1.421 11.145 7.979 31.434 17.96 38.768 9.77 7.18 24.633 8.889 31.182 3.583 2.716-2.2 2.463-5.118 1.321-7.116-1.469-2.57-4.901-4.591-9.566-4.177-1.204.189-2.662.525-4.464 1.058-.774.229-1.592-.197-1.848-.963-.256-.767.141-1.598.897-1.881 1.869-.698 3.645-1.086 5.304-1.218 4.246-.594 6.07.339 7.731 1.188 1.538.785 2.866 1.466 6.846.642 6.37-1.318 32.751-22.787 45.496-45.516 6.556-11.692 8.428-21.665 5.565-29.641-8.419-23.45-24.708-51.35-45.178-59.326-9.394-3.659-19.104-2.921-28.861 2.196-.735.387-1.64.102-2.025-.632-.385-.733-.102-1.64.632-2.024 10.561-5.538 21.106-6.323 31.344-2.335 21.408 8.342 38.271 37.036 46.912 61.107 3.17 8.83 1.228 19.637-5.772 32.121-12.658 22.576-39.623 45.355-47.504 46.986-1.239.257-2.296.387-3.211.423.108.165.211.332.307.501 2.17 3.797 1.351 8.192-2.038 10.938-3.13 2.535-7.719 3.754-12.799 3.754z" fill="#3c2415"/></g><g fill="#3c2415"><path d="m320.599 370.554c-.458 0-.871-.315-.975-.781-.027-.123-2.608-12.391 8.861-20.98 7.376-5.523 64.214-36.286 66.63-37.594.484-.262 1.092-.083 1.355.404.263.485.082 1.093-.404 1.355-.59.319-59.124 31.999-66.382 37.436-10.409 7.795-8.207 18.494-8.108 18.945.118.539-.223 1.072-.761 1.191-.072.016-.144.024-.216.024z"/><path d="m330.343 387.027c-.538 0-.982-.427-.999-.969-.022-.691-.414-17.038 10.336-24.621 2.58-1.818 9.299-4.953 17.807-8.922 25.201-11.755 72.109-33.636 67.112-49.28-.168-.526.122-1.089.648-1.257.524-.174 1.088.121 1.257.647 5.533 17.322-40.605 38.844-68.172 51.702-8.417 3.927-15.066 7.027-17.5 8.744-9.878 6.968-9.495 22.765-9.49 22.924.018.552-.416 1.014-.968 1.03-.01.002-.02.002-.031.002z"/><path d="m368.572 372.379c-.384 0-.75-.222-.915-.596-.223-.506.005-1.096.51-1.319 17.58-7.766 50.29-32.367 50.618-32.615.441-.332 1.068-.243 1.4.196.333.441.245 1.068-.196 1.401-.33.249-33.223 24.988-51.014 32.848-.131.057-.268.085-.403.085z"/><path d="m393.039 302.673c-.359 0-.706-.193-.885-.533-.176-.333-17.811-33.396-36.286-39.024-4.409-1.345-8.557-.994-12.331 1.036-.486.261-1.093.079-1.354-.407s-.079-1.093.407-1.354c4.261-2.292 8.926-2.691 13.862-1.188 19.271 5.873 36.736 38.613 37.47 40.004.258.488.071 1.094-.417 1.352-.149.077-.309.114-.466.114z"/><path d="m411.913 302.802c-.342 0-.676-.176-.862-.492-.281-.476-.122-1.089.354-1.369.685-.404.916-2.355-.689-6.526-6.361-16.535-34.986-52.635-53.671-48.816-.544.109-1.07-.238-1.18-.779-.111-.541.238-1.069.779-1.18 19.658-4.034 49.396 33.051 55.939 50.058 1.846 4.799 1.792 7.815-.162 8.967-.161.092-.335.137-.508.137z"/></g><g><path d="m390.463 248.172c-3.148 2.826-2.719 5.666-.741 7.87s4.756 2.936 7.904.11 7.327-9.802 5.348-12.006c-1.977-2.204-9.363 1.2-12.511 4.026z" fill="#b0eb39"/><path d="m388.234 257.378c-1.401-1.561-2.114-3.323-2.063-5.096.058-2.007 1.053-3.89 2.956-5.598 2.87-2.576 11.933-7.668 15.336-3.873 3.405 3.793-2.632 12.254-5.501 14.83-1.652 1.483-3.417 2.261-5.135 2.338-2.01.089-3.958-.78-5.593-2.601zm3.565-7.718c-1.056.948-1.604 1.869-1.629 2.738-.021.738.329 1.514 1.041 2.308 1.552 1.729 3.119 1.718 5.08-.042 3.052-2.74 5.572-7.9 5.183-9.17-1.223-.523-6.622 1.426-9.675 4.166z" fill="#3c2415"/></g><g><path d="m422.024 296.717c-3.796 1.867-4.153 4.718-2.846 7.375s3.783 4.115 7.579 2.247 9.708-7.451 8.401-10.108-9.338-1.381-13.134.486z" fill="#b0eb39"/><path d="m417.384 304.975c-.926-1.882-1.135-3.772-.605-5.464.6-1.916 2.068-3.46 4.362-4.588 3.46-1.702 13.564-4.148 15.812.427 2.25 4.574-5.853 11.083-9.313 12.785-1.992.98-3.901 1.251-5.576.859-1.96-.459-3.6-1.823-4.68-4.019zm5.522-6.463c-1.273.626-2.051 1.364-2.31 2.194-.22.704-.094 1.547.377 2.504 1.026 2.085 2.537 2.499 4.901 1.336 3.68-1.811 7.504-6.095 7.474-7.423-1.035-.835-6.76-.422-10.442 1.389z" fill="#3c2415"/></g><g><path d="m407.062 353.205c-3.991-1.402-6.276.34-7.257 3.134s-.288 5.582 3.703 6.984 12.117 1.712 13.099-1.082-5.554-7.634-9.545-9.036z" fill="#b0eb39"/><path d="m397.918 355.676c.695-1.979 1.897-3.452 3.477-4.259 1.788-.913 3.917-.947 6.33-.099 3.638 1.278 12.46 6.778 10.769 11.585-1.689 4.809-12.01 3.584-15.648 2.306-2.095-.736-3.625-1.909-4.519-3.379-1.045-1.719-1.22-3.844-.409-6.154zm8.481-.584c-1.339-.47-2.41-.508-3.184-.112-.657.336-1.17 1.016-1.523 2.022-.77 2.193-.007 3.561 2.479 4.434 3.87 1.359 9.606 1.088 10.532.136-.128-1.323-4.433-5.12-8.304-6.48z" fill="#3c2415"/></g><g><path d="m356.673 321.339c3.038 2.944 5.842 2.318 7.903.191s2.597-4.949-.441-7.893-10.289-6.626-12.349-4.499c-2.061 2.127 1.849 9.257 4.887 12.201z" fill="#b0eb39"/><path d="m366.012 322.921c-1.459 1.506-3.168 2.341-4.94 2.413-2.006.082-3.954-.779-5.79-2.559-2.769-2.683-8.48-11.37-4.932-15.029 3.547-3.661 12.408 1.772 15.177 4.455 1.595 1.545 2.494 3.251 2.69 4.96.229 1.999-.502 4.003-2.205 5.76zm-7.947-3.018c1.019.987 1.976 1.47 2.845 1.435.737-.03 1.488-.433 2.23-1.199 1.617-1.669 1.496-3.231-.396-5.065-2.946-2.854-8.269-5.008-9.509-4.532-.437 1.255 1.884 6.505 4.83 9.361z" fill="#3c2415"/></g><g><path d="m316.849 349.584c3.576 2.261 6.192 1.075 7.775-1.428 1.582-2.503 1.531-5.375-2.044-7.636-3.576-2.261-11.426-4.384-13.008-1.881-1.583 2.504 3.701 8.685 7.277 10.945z" fill="#b0eb39"/><path d="m326.314 349.225c-1.121 1.773-2.622 2.939-4.343 3.372-1.947.49-4.03.045-6.191-1.322-3.259-2.061-10.625-9.397-7.899-13.704 2.724-4.309 12.508-.801 15.767 1.259 1.877 1.186 3.105 2.673 3.647 4.305.633 1.91.327 4.021-.981 6.09zm-8.396-1.331c1.199.758 2.235 1.035 3.078.823.715-.18 1.368-.728 1.938-1.63 1.242-1.964.805-3.469-1.423-4.877-3.467-2.192-9.118-3.213-10.234-2.493-.171 1.319 3.173 5.984 6.641 8.177z" fill="#3c2415"/></g><g><path d="m398.79 276.132c-3.655 2.13-3.809 4.999-2.318 7.557s4.064 3.837 7.718 1.707c3.655-2.13 5.233-5.79 3.741-8.348-1.491-2.558-5.486-3.047-9.141-.916z" fill="#b0eb39"/><path d="m398.962 288.222c-1.703-.494-3.162-1.713-4.218-3.525s-1.398-3.682-.989-5.408c.463-1.953 1.818-3.597 4.028-4.884 2.119-1.235 4.464-1.789 6.602-1.561 2.298.251 4.234 1.413 5.275 3.198 1.042 1.787 1.1 4.029.16 6.151-.862 1.945-2.503 3.697-4.622 4.932-1.859 1.084-3.64 1.518-5.308 1.293-.313-.043-.622-.108-.928-.196zm4.997-11.402c-1.296-.138-2.775.231-4.162 1.04-1.226.714-1.949 1.506-2.15 2.352-.17.718.016 1.549.553 2.47s1.168 1.492 1.877 1.698c.834.244 1.88.003 3.106-.712 1.398-.815 2.456-1.914 2.979-3.096.244-.549.572-1.607.042-2.517-.505-.867-1.505-1.137-2.128-1.221-.041-.005-.079-.01-.117-.014z" fill="#3c2415"/></g><g><path d="m412.961 321.698c-4.109-1.004-6.212.953-6.916 3.829-.703 2.876.26 5.583 4.369 6.588 4.109 1.004 7.785-.533 8.489-3.41s-1.832-6.002-5.942-7.007z" fill="#b0eb39"/><path d="m404.691 330.518c-.883-1.538-1.086-3.428-.588-5.466.498-2.037 1.55-3.621 3.044-4.578 1.69-1.084 3.806-1.326 6.29-.718 2.383.583 4.455 1.812 5.835 3.461 1.479 1.776 2.066 3.957 1.575 5.964-.491 2.009-2.006 3.663-4.156 4.538-1.971.802-4.368.922-6.75.34-2.091-.511-3.674-1.436-4.718-2.755-.197-.249-.374-.51-.532-.786zm11.512-4.735c-.837-1-2.157-1.761-3.717-2.142-1.378-.337-2.448-.27-3.18.199-.621.399-1.064 1.126-1.318 2.162s-.195 1.885.172 2.525c.431.755 1.35 1.308 2.73 1.645 1.571.384 3.096.328 4.293-.159.557-.226 1.527-.759 1.778-1.782.238-.975-.293-1.863-.683-2.356-.026-.033-.051-.063-.075-.092z" fill="#3c2415"/></g><g><path d="m388.225 373.314c-2.655-3.293-5.515-3.015-7.82-1.156s-3.183 4.594-.528 7.887 6.51 4.303 8.815 2.444 2.188-5.882-.467-9.175z" fill="#b0eb39"/><path d="m376.298 375.301c.233-1.758 1.218-3.384 2.851-4.7s3.43-1.936 5.198-1.79c2.001.164 3.829 1.257 5.434 3.248 1.539 1.909 2.44 4.144 2.536 6.292.097 2.309-.761 4.398-2.369 5.696-1.61 1.298-3.818 1.693-6.057 1.082-2.053-.559-4.031-1.919-5.57-3.828-1.351-1.675-2.047-3.371-2.076-5.053-.006-.316.012-.632.053-.947zm12.023 3.227c-.058-1.302-.645-2.708-1.653-3.959-.891-1.105-1.781-1.701-2.648-1.772-.736-.06-1.529.248-2.359.918-.83.669-1.3 1.379-1.396 2.111-.116.862.279 1.859 1.171 2.964 1.015 1.259 2.261 2.14 3.508 2.48.579.158 1.674.324 2.494-.337.781-.63.898-1.659.887-2.287-.001-.042-.002-.081-.004-.118z" fill="#3c2415"/></g></g><g><g><path d="m229.954 76.523c11.779 12.387 10.748 33.455 9.751 41.987-.261 2.238-2.076 3.963-4.324 4.112-8.572.567-29.665.538-41.444-11.849s-10.748-33.455-9.751-41.987c.261-2.238 2.076-3.963 4.324-4.112 8.572-.566 29.665-.537 41.444 11.849z" fill="#ff0075"/><path d="m229.905 124.247c-10.367 0-26.922-1.863-37.016-12.477-12.203-12.833-11.156-34.452-10.139-43.152.341-2.927 2.724-5.193 5.665-5.388 8.743-.577 30.387-.535 42.588 12.296 12.202 12.831 11.156 34.452 10.14 43.152-.341 2.927-2.724 5.192-5.665 5.387-1.511.101-3.408.182-5.573.182zm-35.867-58.306c-2.114 0-3.964.08-5.433.177-1.548.103-2.803 1.295-2.983 2.836-.969 8.295-1.997 28.877 9.363 40.823 11.358 11.944 31.966 11.954 40.301 11.402 1.548-.103 2.803-1.295 2.983-2.836.969-8.295 1.996-28.879-9.363-40.824-9.356-9.838-24.989-11.578-34.868-11.578z" fill="#3c2415"/></g><g><path d="m236.448 78.285c-9.865 13.96-5.799 34.657-3.579 42.956.582 2.177 2.627 3.622 4.873 3.444 8.564-.679 29.431-3.757 39.296-17.716s5.799-34.657 3.579-42.956c-.582-2.177-2.627-3.622-4.873-3.444-8.564.679-29.431 3.757-39.296 17.716z" fill="#ff0075"/><path d="m237.37 126.147c-2.744 0-5.179-1.842-5.899-4.531-2.263-8.461-6.421-29.704 3.795-44.165 10.218-14.46 31.631-17.631 40.363-18.323 2.931-.241 5.623 1.665 6.385 4.512 2.263 8.461 6.424 29.703-3.795 44.165-10.218 14.46-31.631 17.631-40.363 18.323-.162.012-.324.019-.486.019zm38.744-64.146c-.085 0-.17.003-.256.01-8.326.66-28.717 3.648-38.229 17.109-9.513 13.461-5.521 33.68-3.363 41.748.401 1.499 1.821 2.5 3.361 2.375 8.326-.66 28.717-3.648 38.229-17.109 9.513-13.462 5.521-33.68 3.363-41.747-.378-1.416-1.661-2.386-3.105-2.386z" fill="#3c2415"/></g><g><path d="m281.726 126.054c-16.494 4.486-34.547-6.423-41.583-11.351-1.846-1.293-2.503-3.708-1.566-5.758 3.571-7.813 13.61-26.364 30.105-30.85 16.494-4.486 34.547 6.423 41.583 11.351 1.846 1.293 2.503 3.708 1.566 5.758-3.571 7.813-13.611 26.363-30.105 30.85z" fill="#ff0075"/><path d="m273.541 128.556c-14.36 0-28.244-8.477-34.229-12.669-2.414-1.69-3.277-4.862-2.052-7.543 3.641-7.967 13.955-26.998 31.041-31.646 17.091-4.646 35.619 6.538 42.793 11.563 2.414 1.69 3.277 4.863 2.052 7.543-3.641 7.967-13.955 26.998-31.041 31.646-2.833.77-5.709 1.106-8.564 1.106zm3.362-50.077c-2.625 0-5.254.307-7.842 1.011-15.906 4.326-25.697 22.46-29.169 30.056-.645 1.412-.19 3.082 1.081 3.972 6.84 4.791 24.468 15.471 40.374 11.141 15.906-4.326 25.697-22.46 29.169-30.056.645-1.412.19-3.082-1.081-3.972-5.728-4.012-19.022-12.152-32.532-12.152z" fill="#3c2415"/></g><g><path d="m195.748 85.993c16.884 2.667 28.88 20.017 33.279 27.396 1.154 1.936.763 4.408-.931 5.894-6.459 5.663-23.22 18.47-40.104 15.803s-28.88-20.017-33.279-27.396c-1.154-1.936-.763-4.408.931-5.894 6.459-5.664 23.22-18.471 40.104-15.803z" fill="#ff0075"/><path d="m192.644 136.892c-1.619 0-3.246-.12-4.878-.377-17.49-2.763-29.811-20.561-34.296-28.084-1.509-2.531-.996-5.779 1.22-7.722 6.585-5.774 23.796-18.909 41.283-16.144 17.492 2.763 29.811 20.561 34.296 28.084 1.509 2.531.996 5.779-1.22 7.722-5.971 5.235-20.675 16.52-36.405 16.521zm-1.575-49.814c-14.733 0-28.765 10.802-34.471 15.805-1.167 1.023-1.437 2.733-.642 4.066 4.276 7.173 15.98 24.136 32.262 26.708 16.28 2.574 32.645-9.956 38.924-15.462 1.167-1.023 1.437-2.733.642-4.066-4.276-7.173-15.979-24.136-32.262-26.708-1.486-.234-2.974-.343-4.453-.343z" fill="#3c2415"/></g><g><path d="m262.996 92.233c-.06 3.62-.81 7.11-2.02 10.42-4.47 12.32-15.23 22.08-20.52 26.32-1.75 1.41-4.26 1.36-5.96-.11-6.5-5.62-21.5-20.45-21.19-37.54.16-8.91 4.46-17.06 9.49-23.58 4.61-5.98 9.84-10.59 13.05-13.16 1.76-1.41 4.26-1.37 5.96.11 6.51 5.61 21.5 20.44 21.19 37.54z" fill="#ff0075"/><path d="m237.543 131.443c-1.426 0-2.849-.497-3.994-1.486-6.629-5.726-22.011-20.954-21.689-38.659s16.248-32.364 23.08-37.845c2.299-1.845 5.586-1.785 7.817.142 6.628 5.726 22.011 20.954 21.689 38.659-.322 17.704-16.248 32.363-23.08 37.845-1.119.897-2.472 1.344-3.823 1.344zm1.22-76.441c-.711 0-1.423.235-2.012.708-6.515 5.226-21.699 19.159-21.998 35.641s14.368 30.958 20.688 36.417c1.175 1.015 2.906 1.046 4.116.075 6.515-5.226 21.699-19.16 21.998-35.641s-14.368-30.958-20.688-36.417c-.604-.521-1.354-.783-2.104-.783z" fill="#3c2415"/></g><g><path d="m359.596 306.123c-1.21 15.18-2.65 29.01-4.18 41.44-1.97 16.02-4.08 29.72-6.06 40.97-3.8 21.68-22.78 37.4-44.8 37.19l-93.37-.91c-18.62-.18-35.21-11.78-41.75-29.21-4.5-12.02-9.78-27.93-15.08-48.04-3.64-13.76-7.3-29.5-10.74-47.28-7.6-39.36-11.25-82-1.95-117.29.17-.64.34-1.28.52-1.92 5.7-20.44 15.87-38.31 32.3-51.49.52-.43 1.05-.84 1.58-1.24 6.71-5.15 14.43-9.53 23.26-13.02.01 0 .01-.01.01-.01 3.43-1.36 7.02-2.58 10.8-3.65.66-.2 1.32-.38 2-.56h.01c9.9-2.66 20.97-4.37 33.34-4.97 1.1-.05 2.2-.09 3.28-.13.92-.02 1.84-.04 2.75-.04 14.71-.15 27.52 1.96 38.67 5.89 1.06.37 2.11.76 3.14 1.17 14.27 5.62 25.69 14.33 34.78 25.2 0 0 .01 0 .01.01 1.72 2.04 3.33 4.15 4.88 6.33 21.81 30.79 28.05 75.39 28.37 116.31.12 15.99-.66 31.42-1.77 45.25z" fill="#289d35"/><path d="m361.366 260.873c-1.65 8.25-4 16.31-7.06 24.06-1.4 3.55-2.95 7.03-4.65 10.43-10.15 18.45-21.15 41.45-45.15 43.45-70 5-127-50-138.19-115.77-.86-3.36-1.62-6.72-2.27-10.09-4.56-23.59-3.65-47.47 7.15-69.51 1.14-1.82 2.33-3.53 3.55-5.16 7.22-8.72 15.46-16.54 24.58-22.96.01 0 .01-.01.01-.01 12.88-5.1 28.15-8.3 46.15-9.18 1.21-.06 2.41-.1 3.6-.14 83.9-2.16 107.54 67.27 111.61 134.57.41 6.82.62 13.61.67 20.31z" fill="#69c74b"/><path d="m360.696 240.563c-2.2 15.92-7.41 31.19-15.82 44.48-1.59 2.27-3.32 4.43-5.21 6.45-1.89 2.03-3.94 3.92-6.15 5.66-19.09 15.05-47.01 15.18-69.15 5.15s-39.26-28.7-53.01-48.75c-12.01-17.53-22.06-36.81-26.01-57.69-3.29-17.39-2.07-36.09 5.39-52.29 1.24-2.68 2.76-5.37 4.53-8.04 12.18-17.61 32.49-27.1 53.82-29.54 83.9-2.16 107.54 67.27 111.61 134.57z" fill="#b0eb39"/><g fill="#3c2415"><path d="m279.103 338.217c-.059 0-.119-.005-.18-.016-.543-.099-.904-.619-.805-1.163 3.613-19.883-.753-62.608-.798-63.038-.057-.549.342-1.041.892-1.098.541-.056 1.041.342 1.098.892.183 1.764 4.44 43.438.776 63.601-.088.484-.509.822-.983.822z"/><path d="m317.976 342.047c-.053 0-.107-.004-.161-.013-.545-.088-.916-.601-.828-1.146 3.768-23.361.028-78.621-.01-79.176-.038-.551.378-1.029.929-1.066.555-.033 1.029.378 1.066.929.039.558 3.793 56.047-.01 79.632-.079.49-.504.84-.986.84z"/><path d="m346.571 340.129c-.08 0-.161-.009-.242-.029-.536-.133-.863-.675-.73-1.211 11.885-47.897.732-129.016.619-129.83-.077-.547.305-1.052.852-1.129.543-.083 1.052.304 1.129.852.115.817 11.321 82.314-.658 130.589-.113.453-.521.758-.97.758z"/><path d="m268.416 152.003c.06.55-.34 1.04-.89 1.1-.04.01-.07.01-.11.01-.5 0-.93-.38-.99-.9-.04-.35-3.6-32.47-17.66-46.21.92-.02 1.84-.04 2.75-.04 13.43 14.77 16.75 44.63 16.9 46.04z"/><path d="m302.126 146.253c-.01.54-.46.99-1 .99-.01 0-.01 0-.01 0-.56-.01-1-.46-.99-1.01 0-.23.06-19.47-9.94-34.38 1.06.37 2.11.76 3.14 1.17 8.87 14.86 8.81 32.32 8.8 33.23z"/><path d="m342.966 181.593c.07.55-.31 1.05-.86 1.13-.05 0-.09.01-.13.01-.5 0-.93-.37-.99-.87-.04-.3-3.1-22.57-12.87-43.63 1.72 2.04 3.33 4.15 4.88 6.33 7.5 18.97 9.94 36.77 9.97 37.03z"/><path d="m233.006 338.188c-.082 0-.165-.01-.248-.032-.535-.137-.858-.681-.721-1.216 6.522-25.531 1.277-76.783 1.224-77.297-.057-.549.341-1.041.891-1.099.549-.054 1.042.341 1.099.891.054.519 5.335 52.123-1.275 78-.117.452-.523.753-.97.753z"/><path d="m224.566 144.393c-.09.03-.18.04-.26.04-.44 0-.84-.29-.97-.74-.07-.25-6.08-21.69-13.2-32.03.66-.2 1.32-.38 2-.56h.01c7.18 10.85 12.83 30.99 13.12 32.06.15.53-.16 1.08-.7 1.23z"/><path d="m194.196 177.893c.09.54-.27 1.06-.81 1.16-.06.01-.12.02-.18.02-.47 0-.89-.34-.98-.83-4.18-22.96-11.86-39.04-17.74-48.66.52-.43 1.05-.84 1.58-1.24 6.01 9.8 13.88 26.18 18.13 49.55z"/><path d="m193.209 338.217c-.055 0-.11-.004-.167-.014-.544-.091-.912-.607-.821-1.152 5.031-30.016 2.734-87.893 2.71-88.474-.023-.552.406-1.018.958-1.04.554-.02 1.018.407 1.04.958.024.583 2.329 58.666-2.736 88.887-.08.489-.504.835-.984.835z"/><path d="m165.946 339.803c-.04.53-.48.93-.99.93-.03 0-.05-.01-.08-.01-.55-.04-.96-.52-.92-1.07.1-1.3 9.75-130.01-17.25-153.68-1.6-1.4-3.27-2.4-5.04-2.98.17-.64.34-1.28.52-1.92 2.07.67 4.02 1.8 5.84 3.4 27.75 24.32 18.34 149.99 17.92 155.33z"/></g><path d="m304.999 427.725c-.155 0-.307 0-.462-.002l-93.37-.91c-19.304-.187-36.827-12.447-43.603-30.507-5.447-14.549-10.541-30.777-15.142-48.233-3.945-14.912-7.568-30.864-10.77-47.41-8.493-43.972-9.769-81.047-3.791-110.196 7.747-37.775 27.752-63.505 59.475-76.499v-.014l1.264-.5c13.44-5.322 29.182-8.458 46.789-9.318 31.833-1.562 57.676 6.803 76.799 24.868 26.835 25.35 40.69 69.712 41.178 131.855.106 14.138-.492 29.421-1.776 45.426-1.125 14.11-2.534 28.082-4.188 41.524-1.775 14.435-3.819 28.254-6.075 41.072-3.958 22.573-23.402 38.844-46.328 38.844zm-105.285-310.404c-30.912 12.345-50.402 37.223-57.934 73.949-5.871 28.632-4.593 65.182 3.8 108.634 3.184 16.458 6.787 32.321 10.71 47.148 4.567 17.329 9.62 33.428 15.02 47.851 6.199 16.523 22.233 27.74 39.896 27.911l93.37.91c.141.001.283.002.423.002 20.979.001 38.767-14.883 42.387-35.538 2.245-12.752 4.278-26.502 6.045-40.869 1.647-13.386 3.051-27.3 4.171-41.354v-.001c1.276-15.888 1.869-31.054 1.764-45.075-.479-61.011-13.912-104.405-39.925-128.978-18.301-17.287-43.148-25.29-73.857-23.78-16.616.812-31.494 3.689-44.248 8.551z" fill="#3c2415"/><g><g><path d="m162.185 144.797c3.271 2.682 2.969 5.539 1.092 7.829-1.878 2.29-4.62 3.145-7.891.463s-7.757-9.465-5.879-11.755c1.877-2.29 9.407.78 12.678 3.463z" fill="#b0eb39"/><path d="m159.352 156.741c-1.72 0-3.518-.698-5.234-2.106-2.981-2.445-9.39-10.628-6.158-14.569 3.23-3.942 12.512.74 15.494 3.185 1.978 1.621 3.055 3.458 3.203 5.46.13 1.769-.503 3.562-1.833 5.183-1.553 1.892-3.46 2.847-5.472 2.847zm-8.286-14.128c-.332 1.286 2.416 6.328 5.587 8.929 2.038 1.671 3.603 1.612 5.077-.185.676-.825.991-1.616.937-2.352-.064-.867-.653-1.763-1.75-2.663-3.172-2.6-8.653-4.306-9.851-3.729z" fill="#3c2415"/></g><g><path d="m203.474 114.447c2.008 3.723.644 6.252-1.962 7.657s-5.468 1.156-7.476-2.568c-2.008-3.723-3.583-11.701-.977-13.107s8.407 4.295 10.415 8.018z" fill="#b0eb39"/><path d="m198.705 124.891c-2.572 0-4.875-1.521-6.43-4.404-1.144-2.121-2.103-5.312-2.444-8.132-.606-5.009.904-6.944 2.278-7.685 1.373-.743 3.82-.941 7.673 2.318 2.168 1.834 4.309 4.39 5.452 6.51 1.214 2.25 1.513 4.359.89 6.268-.55 1.687-1.817 3.104-3.663 4.099-1.278.689-2.547 1.026-3.756 1.026zm-4.689-16.685c-.795 1.063-.167 6.771 1.779 10.382 1.25 2.318 2.719 2.859 4.767 1.756.938-.506 1.53-1.118 1.759-1.82.27-.827.065-1.879-.608-3.128-1.946-3.61-6.34-7.286-7.697-7.19z" fill="#3c2415"/></g><g><path d="m257.17 106.139c.247 4.223-2.057 5.939-5.013 6.112s-5.445-1.262-5.692-5.485 1.694-12.12 4.65-12.293c2.957-.173 5.807 7.443 6.055 11.666z" fill="#b0eb39"/><path d="m251.698 114.265c-1.852 0-3.465-.542-4.694-1.581-1.533-1.296-2.386-3.248-2.536-5.801-.141-2.405.338-5.704 1.219-8.403 1.566-4.797 3.753-5.912 5.312-6.003 1.571-.091 3.86.763 5.975 5.342 1.191 2.578 2.051 5.798 2.192 8.203.282 4.808-2.359 7.96-6.892 8.226-.195.011-.386.017-.576.017zm-.465-17.777c-1.17.627-3.012 6.066-2.772 10.162.083 1.417.462 2.419 1.125 2.981.564.477 1.387.689 2.453.624 2.321-.136 3.288-1.369 3.133-3.999-.239-4.095-2.703-9.282-3.939-9.768z" fill="#3c2415"/></g><g><path d="m306.972 118.538c-2.015 3.72-4.877 3.964-7.481 2.554s-3.963-3.941-1.948-7.661 7.826-9.408 10.43-7.998c2.603 1.41 1.013 9.385-1.001 13.105z" fill="#b0eb39"/><path d="m302.305 123.883c-1.213 0-2.485-.338-3.767-1.032-1.845-.999-3.108-2.419-3.656-4.106-.62-1.91-.316-4.018.902-6.267 1.147-2.118 3.292-4.669 5.463-6.5 3.858-3.251 6.304-3.048 7.677-2.305 1.373.744 2.88 2.681 2.264 7.689-.346 2.819-1.312 6.009-2.458 8.127-1.557 2.877-3.859 4.394-6.425 4.394zm4.661-16.677c-1.378 0-5.732 3.611-7.664 7.178-.676 1.248-.883 2.3-.615 3.127.228.702.819 1.315 1.756 1.823 2.043 1.108 3.516.569 4.77-1.748 1.954-3.607 2.592-9.314 1.798-10.378-.015-.002-.03-.002-.045-.002z" fill="#3c2415"/></g><g><path d="m340.064 152.661c-3.05 2.931-5.851 2.294-7.903.159s-2.577-4.96.473-7.891 10.316-6.584 12.368-4.449c2.052 2.136-1.887 9.25-4.938 12.181z" fill="#b0eb39"/><path d="m335.903 156.634c-1.835 0-3.627-.809-5.184-2.428-3.146-3.274-2.943-7.381.529-10.718 1.737-1.669 4.556-3.448 7.181-4.531 4.665-1.925 6.933-.987 8.014.139 1.082 1.125 1.928 3.429-.181 8.013-1.187 2.581-3.076 5.326-4.813 6.995-1.754 1.686-3.672 2.53-5.546 2.53zm7.183-14.824c-1.773 0-6.391 1.99-9.066 4.561-1.899 1.825-2.028 3.387-.417 5.063 1.612 1.676 3.176 1.61 5.076-.215 2.958-2.842 5.301-8.085 4.868-9.341-.118-.045-.274-.068-.461-.068z" fill="#3c2415"/></g><g><path d="m142.007 202.057c3.971 1.457 4.626 4.254 3.606 7.034s-3.329 4.49-7.3 3.033-10.439-6.387-9.419-9.167c1.021-2.78 9.142-2.357 13.113-.9z" fill="#b0eb39"/><path d="m140.971 214.642c-1.049 0-2.172-.209-3.347-.641-3.62-1.329-12.363-6.948-10.607-11.733 1.756-4.786 12.059-3.418 15.679-2.089 4.521 1.659 6.359 5.338 4.794 9.601-1.157 3.156-3.531 4.862-6.519 4.862zm-10.183-10.99c.109 1.323 4.363 5.181 8.214 6.595 2.474.908 3.932.338 4.733-1.844.801-2.183.055-3.561-2.417-4.468-3.851-1.413-9.59-1.221-10.53-.283z" fill="#3c2415"/></g><g><path d="m140.033 254.913c4.215-.358 5.991 1.9 6.242 4.851s-1.119 5.476-5.334 5.834-12.16-1.376-12.411-4.326c-.25-2.951 7.288-6.001 11.503-6.359z" fill="#b0eb39"/><path d="m139.768 267.644c-2.204 0-4.846-.384-7.09-1.052-4.836-1.44-6.009-3.596-6.141-5.152-.132-1.555.66-3.878 5.183-6.113 2.546-1.258 5.743-2.203 8.143-2.407 2.55-.216 4.602.349 6.104 1.681 1.327 1.177 2.123 2.903 2.3 4.994.178 2.089-.314 3.925-1.424 5.309-1.256 1.566-3.185 2.47-5.732 2.687-.422.036-.873.053-1.343.053zm-9.227-6.543c.658 1.154 6.147 2.852 10.231 2.504 1.414-.12 2.407-.525 2.951-1.203.461-.576.65-1.406.56-2.469s-.416-1.85-.968-2.339c-.65-.577-1.697-.807-3.111-.688-4.089.347-9.209 2.947-9.663 4.195z" fill="#3c2415"/></g><g><path d="m183.971 271.594c4.215-.358 5.991 1.9 6.242 4.851s-1.119 5.476-5.334 5.834-7.61-1.728-7.861-4.679c-.25-2.951 2.738-5.648 6.953-6.006z" fill="#b0eb39"/><path d="m183.954 284.319c-2.044 0-3.973-.493-5.522-1.424-1.989-1.196-3.231-3.064-3.406-5.125-.175-2.058.728-4.117 2.477-5.648 1.618-1.417 3.855-2.312 6.299-2.519 4.801-.402 8.019 2.149 8.404 6.674.384 4.524-2.358 7.589-7.157 7.997-.368.029-.734.045-1.095.045zm.187-10.732c-1.601.136-3.022.684-4.003 1.543-.459.402-1.216 1.236-1.126 2.301.089 1.05.966 1.726 1.481 2.036 1.107.666 2.605.956 4.217.82 2.625-.223 3.707-1.356 3.511-3.673-.198-2.317-1.456-3.249-4.08-3.027z" fill="#3c2415"/></g><g><path d="m194.902 144.606c2.609 3.33 1.693 6.053-.638 7.879s-5.194 2.065-7.803-1.265-2.724-7.313-.393-9.139 6.225-.804 8.834 2.525z" fill="#b0eb39"/><path d="m190.869 155.805c-.198 0-.396-.009-.593-.028-1.999-.192-3.812-1.31-5.389-3.323-1.513-1.931-2.391-4.165-2.474-6.29-.09-2.319.793-4.382 2.421-5.657 1.626-1.274 3.843-1.647 6.083-1.023 2.072.577 4.045 1.958 5.559 3.889 1.577 2.013 2.229 4.041 1.938 6.027-.257 1.755-1.266 3.366-2.917 4.66-1.465 1.148-3.054 1.745-4.628 1.745zm-2.078-12.62c-.491 0-1.03.111-1.489.471-.83.65-.915 1.754-.892 2.354.05 1.292.627 2.704 1.625 3.977.875 1.117 1.758 1.726 2.623 1.809.736.069 1.533-.227 2.372-.885.84-.658 1.319-1.361 1.427-2.091.126-.86-.254-1.863-1.129-2.979-.991-1.264-2.228-2.153-3.484-2.503-.267-.076-.643-.153-1.053-.153z" fill="#3c2415"/></g><g><path d="m312.516 134.004c-2.609 3.33-1.693 6.053.638 7.879s5.194 2.065 7.803-1.265 2.724-7.313.393-9.139c-2.331-1.827-6.224-.805-8.834 2.525z" fill="#b0eb39"/><path d="m316.522 145.196c-1.543 0-3.115-.574-4.602-1.739-1.651-1.293-2.66-2.905-2.917-4.66-.291-1.986.361-4.014 1.938-6.026 1.513-1.931 3.487-3.312 5.559-3.889 2.238-.624 4.456-.251 6.083 1.023 1.628 1.275 2.511 3.338 2.421 5.657-.083 2.125-.961 4.359-2.474 6.29-1.734 2.213-3.842 3.344-6.008 3.344zm2.105-12.613c-.41 0-.785.077-1.053.151-1.256.35-2.493 1.239-3.484 2.503-.875 1.117-1.255 2.119-1.129 2.979.107.73.587 1.434 1.426 2.091 1.831 1.434 3.371 1.15 4.996-.924.998-1.273 1.575-2.686 1.625-3.977.023-.6-.062-1.704-.891-2.354-.459-.358-.999-.469-1.49-.469z" fill="#3c2415"/></g><g><path d="m166.529 183.5c3.339 2.598 3.11 5.461 1.292 7.799-1.818 2.337-4.538 3.263-7.877.665s-4.416-6.434-2.598-8.771 5.844-2.29 9.183.307z" fill="#b0eb39"/><path d="m163.805 195.53c-1.682 0-3.39-.666-5.088-1.988-1.936-1.506-3.33-3.46-3.925-5.502-.649-2.229-.293-4.443.977-6.075 1.269-1.631 3.343-2.525 5.653-2.468 2.149.058 4.399.919 6.335 2.425 2.019 1.57 3.143 3.379 3.342 5.376.176 1.765-.412 3.573-1.699 5.229-1.288 1.656-2.896 2.67-4.65 2.933-.315.047-.63.07-.945.07zm-2.609-12.037c-.628 0-1.655.135-2.271.927-.647.832-.462 1.923-.293 2.5.361 1.241 1.264 2.471 2.541 3.464 1.121.872 2.125 1.25 2.984 1.119.73-.109 1.432-.591 2.086-1.433s.95-1.641.876-2.375c-.086-.865-.698-1.746-1.818-2.617-1.268-.986-2.684-1.549-3.987-1.584-.038 0-.077-.001-.118-.001z" fill="#3c2415"/></g><g><path d="m221.824 304.491c3.415-2.496 6.106-1.49 7.853.901s1.89 5.26-1.526 7.756-7.4 2.477-9.147.087c-1.747-2.391-.595-6.248 2.82-8.744z" fill="#b0eb39"/><path d="m222.919 317.024c-2.303 0-4.316-.949-5.529-2.609-1.219-1.668-1.518-3.896-.819-6.114.646-2.051 2.093-3.978 4.073-5.425 3.889-2.841 7.968-2.33 10.648 1.335 2.679 3.667 1.928 7.709-1.96 10.551-1.98 1.447-4.242 2.25-6.369 2.261-.014.001-.029.001-.044.001zm2.675-11.982c-.77 0-1.621.356-2.589 1.064-1.296.948-2.227 2.154-2.618 3.398-.184.583-.397 1.688.233 2.551.621.851 1.693.965 2.323.969 1.292-.007 2.723-.536 4.029-1.491 2.126-1.554 2.463-3.084 1.091-4.961-.747-1.022-1.55-1.53-2.469-1.53z" fill="#3c2415"/></g><g><path d="m289.297 312.4c-.185-4.226 2.144-5.908 5.103-6.037 2.958-.129 5.426 1.342 5.611 5.569s-2.039 7.533-4.998 7.662-5.531-2.967-5.716-7.194z" fill="#b0eb39"/><path d="m294.829 321.597c-4.021 0-7.304-3.938-7.53-9.109-.112-2.555.537-4.583 1.93-6.03 1.23-1.278 2.988-2.001 5.083-2.093 2.099-.091 3.91.476 5.247 1.641 1.513 1.319 2.337 3.284 2.449 5.838.107 2.45-.478 4.778-1.647 6.554-1.277 1.939-3.194 3.103-5.261 3.193-.09.004-.181.006-.271.006zm-3.534-9.284c.142 3.249 1.978 5.351 3.63 5.282 1.053-.046 1.764-.895 2.095-1.396.71-1.079 1.063-2.563.992-4.18-.062-1.418-.426-2.426-1.081-2.998-.556-.485-1.384-.707-2.444-.661-1.065.047-1.865.34-2.376.872-.603.627-.878 1.663-.816 3.081z" fill="#3c2415"/></g><g><path d="m339.028 291.574c-3.922-1.586-4.485-4.403-3.375-7.148s3.473-4.379 7.395-2.793 6.007 4.982 4.896 7.727-4.994 3.8-8.916 2.214z" fill="#b0eb39"/><path d="m342.681 294.315c-1.442 0-2.948-.299-4.403-.888-2.371-.958-3.947-2.391-4.685-4.258-.652-1.649-.581-3.549.206-5.494 1.702-4.209 5.534-5.703 9.999-3.897 2.273.919 4.148 2.418 5.279 4.22 1.234 1.966 1.497 4.193.721 6.111-.774 1.915-2.51 3.344-4.763 3.919-.75.192-1.542.287-2.354.287zm-2.458-11.309c-1.257 0-2.125.71-2.715 2.169-.4.988-.465 1.837-.194 2.524.319.808 1.148 1.488 2.464 2.02 1.489.603 3.004.756 4.268.434.591-.151 1.644-.552 2.044-1.543.395-.977-.082-1.977-.401-2.485-.687-1.095-1.892-2.032-3.391-2.638-.788-.319-1.476-.481-2.075-.481z" fill="#3c2415"/></g><g><path d="m148.961 312.872c4.134-.897 6.186 1.114 6.814 4.008s-.405 5.574-4.539 6.472c-4.134.897-12.236.199-12.864-2.695s6.455-6.888 10.589-7.785z" fill="#b0eb39"/><path d="m147.246 325.697c-4.478 0-10.052-1.04-10.829-4.616-.331-1.525.156-3.931 4.354-6.729 2.364-1.575 5.412-2.923 7.766-3.434 2.499-.541 4.608-.246 6.27.882 1.467.997 2.478 2.607 2.923 4.656s.193 3.934-.73 5.449c-1.044 1.715-2.84 2.859-5.339 3.402-1.064.229-2.655.39-4.415.39zm-6.903-5.468c.801 1.059 6.46 2.039 10.468 1.168 1.387-.301 2.319-.83 2.771-1.573.384-.63.464-1.478.237-2.52-.226-1.042-.65-1.781-1.261-2.195-.72-.489-1.787-.584-3.174-.282-4.007.869-8.75 4.105-9.041 5.402z" fill="#3c2415"/></g><g><path d="m354.785 203.19c-3.971 1.457-4.626 4.254-3.606 7.034s3.329 4.49 7.3 3.033 10.439-6.387 9.419-9.167c-1.021-2.78-9.142-2.357-13.113-.9z" fill="#b0eb39"/><path d="m355.821 215.776c-2.989 0-5.362-1.706-6.52-4.862-1.564-4.263.273-7.942 4.795-9.601 2.261-.83 5.548-1.33 8.397-1.261 5.044.113 6.744 1.884 7.282 3.35.538 1.465.387 3.915-3.388 7.265-2.124 1.885-4.958 3.639-7.219 4.469-1.174.43-2.298.64-3.347.64zm-.347-10.708c-2.473.908-3.219 2.286-2.418 4.468.801 2.183 2.26 2.752 4.734 1.844 3.851-1.413 8.104-5.271 8.213-6.595-.938-.938-6.678-1.13-10.529.283z" fill="#3c2415"/></g><g><path d="m362.159 257.084c-4.215-.358-5.991 1.9-6.242 4.851s1.119 5.476 5.334 5.834 12.16-1.376 12.411-4.326c.251-2.951-7.288-6.001-11.503-6.359z" fill="#b0eb39"/><path d="m362.265 269.807c-.439 0-.837-.016-1.183-.045-2.548-.216-4.477-1.121-5.732-2.687-1.109-1.384-1.602-3.22-1.424-5.31.177-2.09.973-3.816 2.3-4.993 1.502-1.332 3.558-1.897 6.104-1.681 3.842.327 13.757 3.441 13.326 8.521-.394 4.622-8.957 6.195-13.391 6.195zm-.969-10.761c-1.067 0-1.878.241-2.417.719-.552.49-.878 1.277-.968 2.339-.09 1.063.098 1.894.56 2.469.544.678 1.537 1.083 2.951 1.204 4.084.346 9.573-1.351 10.231-2.505-.454-1.248-5.575-3.847-9.662-4.195-.244-.021-.475-.031-.695-.031z" fill="#3c2415"/></g><g><path d="m360.553 312.872c-4.134-.897-6.185 1.114-6.814 4.008-.628 2.894.405 5.574 4.539 6.472 4.134.897 12.236.199 12.864-2.695.629-2.894-6.455-6.888-10.589-7.785z" fill="#b0eb39"/><path d="m362.268 325.697c-1.76 0-3.351-.161-4.414-.391-4.707-1.022-7.033-4.413-6.07-8.851.964-4.438 4.485-6.561 9.192-5.538 2.354.511 5.402 1.859 7.766 3.434 4.199 2.798 4.686 5.204 4.354 6.729-.775 3.577-6.35 4.617-10.828 4.617zm-3.593-11.046c-1.652 0-2.591.854-2.981 2.653-.493 2.272.435 3.534 3.009 4.093 4.01.87 9.668-.109 10.468-1.168-.29-1.296-5.034-4.533-9.042-5.402-.536-.117-1.02-.176-1.454-.176z" fill="#3c2415"/></g></g></g><g><path d="m355.416 347.563c-1.97 16.02-4.08 29.72-6.06 40.97-3.8 21.68-22.78 37.4-44.8 37.19l-93.37-.91c-18.62-.18-35.21-11.78-41.75-29.21-4.5-12.02-9.78-27.93-15.08-48.04z" fill="#8b5e3c"/><path d="m305 427.724c-.155 0-.307-.001-.462-.002l-93.371-.91c-19.304-.187-36.827-12.446-43.603-30.508-5.445-14.544-10.54-30.771-15.142-48.232l-.661-2.51h205.916l-.276 2.244c-1.774 14.428-3.818 28.247-6.075 41.073-3.957 22.575-23.401 38.845-46.326 38.845zm-148.043-78.162c4.391 16.377 9.216 31.619 14.352 45.339 6.2 16.523 22.233 27.741 39.896 27.911l93.37.91c21.133.21 39.166-14.742 42.811-35.535 2.128-12.094 4.066-25.076 5.766-38.625z" fill="#3c2415"/></g><path d="m338.783 374.494c-1.169 6.227-2.422 11.553-3.598 15.926-2.256 8.427-13.524 14.538-26.596 14.456l-55.43-.354c-11.054-.07-20.903-4.579-24.785-11.354-2.671-4.672-5.806-10.857-8.952-18.674z" fill="#a97c50"/><path d="m332.369 374.494c-.864 4.601-1.789 8.535-2.658 11.766-1.667 6.226-9.991 10.74-19.649 10.68l-40.951-.261c-8.166-.052-15.443-3.383-18.311-8.388-1.974-3.452-4.289-8.021-6.614-13.796h88.183z" fill="#c49a6c"/><g><path d="m358.368 373.265h-209.218c-12.127 0-21.957-9.831-21.957-21.957 0-12.127 9.831-21.957 21.957-21.957h209.218c12.127 0 21.957 9.831 21.957 21.957 0 12.126-9.83 21.957-21.957 21.957z" fill="#8b5e3c"/><path d="m358.368 375.264h-209.218c-13.21 0-23.958-10.747-23.958-23.957 0-13.211 10.747-23.958 23.958-23.958h209.217c13.21 0 23.958 10.747 23.958 23.958 0 13.21-10.747 23.957-23.957 23.957zm-209.218-43.915c-11.004 0-19.958 8.953-19.958 19.958 0 11.004 8.953 19.957 19.958 19.957h209.217c11.004 0 19.958-8.953 19.958-19.957 0-11.005-8.953-19.958-19.958-19.958z" fill="#3c2415"/></g><path d="m357.506 360.877h-183.66c-8.179 0-14.809-6.63-14.809-14.809 0-8.178 6.63-14.808 14.809-14.808h183.66c8.178 0 14.809 6.63 14.809 14.808 0 8.179-6.63 14.809-14.809 14.809z" fill="#a97c50"/><path d="m352.91 348.196h-155.617c-4.677 0-8.468-3.791-8.468-8.468 0-4.677 3.791-8.468 8.468-8.468h155.617c4.677 0 8.468 3.791 8.468 8.468 0 4.676-3.791 8.468-8.468 8.468z" fill="#c49a6c"/><g><ellipse cx="227.443" cy="197.327" fill="#3c2415" rx="18.923" ry="9.679" transform="matrix(.073 -.997 .997 .073 14.104 409.823)"/><ellipse cx="309.149" cy="197.327" fill="#3c2415" rx="9.679" ry="18.923" transform="matrix(.997 -.073 .073 .997 -13.527 22.996)"/><ellipse cx="202.558" cy="225.689" fill="#ff84d0" rx="21.745" ry="10.954"/><ellipse cx="326.698" cy="225.689" fill="#ff84d0" rx="19.872" ry="10.954"/><path d="m274.529 235.839c-7.764-.368-19.809-16.013-23.346-20.844-.936-1.28-.657-3.078.62-4.016 1.286-.936 3.082-.661 4.016.62 6.538 8.922 15.827 18.523 18.985 18.499 3.017.011 9.973-9.604 14.33-18.241.713-1.416 2.446-1.989 3.858-1.272 1.418.715 1.988 2.441 1.272 3.858-2.534 5.028-11.425 21.429-19.48 21.401-.084.002-.171-.001-.255-.005z" fill="#3c2415"/></g><g><g><path d="m181.675 406.722s1.879 51.474 19.12 51.474 28.514-33.155 28.514-33.155z" fill="#69c74b"/><path d="m200.795 459.891c-18.346 0-20.615-47.671-20.814-53.107-.035-.935.695-1.721 1.632-1.754.889-.033 1.721.695 1.755 1.632.508 13.862 4.63 49.84 17.428 49.84 15.844 0 26.799-31.685 26.907-32.007.301-.884 1.261-1.362 2.152-1.059.886.303 1.361 1.265 1.059 2.152-.477 1.399-11.873 34.303-30.119 34.303z" fill="#3c2415"/></g><g><path d="m233.741 421.157-55.715-19.956c.144.93 1.954 22.315 1.954 22.315s-5.028 6.807 1.695 8.866 41.59 9.962 45.541 8.567c3.952-1.395 2.092-7.241 2.092-7.241z" fill="#8b5e3c"/><path d="m225.731 443.148c-8.893.001-39.276-7.177-44.456-8.764-2.22-.68-3.635-1.899-4.204-3.625-.91-2.76.762-5.771 1.507-6.917-.721-8.517-1.794-20.997-1.902-21.737-.108-.744.404-1.44 1.147-1.552.746-.109 1.436.393 1.552 1.135.147.95 1.779 20.216 1.965 22.409.028.33-.065.66-.262.926-.579.792-1.966 3.217-1.412 4.884.281.845 1.069 1.455 2.408 1.865 7.688 2.354 41.373 9.752 44.688 8.585 2.652-.936 1.258-5.496 1.244-5.542-.088-.282-.084-.588.015-.866l4.432-12.551c.252-.711 1.033-1.082 1.743-.833.711.251 1.084 1.031.833 1.743l-4.287 12.138c.68 2.578.801 7.121-3.071 8.487-.416.148-1.077.215-1.94.215z" fill="#3c2415"/></g></g><g><g><path d="m290.374 424.301s11.273 33.155 28.514 33.155 19.12-51.474 19.12-51.474z" fill="#69c74b"/><path d="m318.888 459.152c-18.245 0-29.643-32.904-30.118-34.304-.303-.887.172-1.849 1.058-2.15.886-.303 1.849.174 2.15 1.058.109.321 11.083 32.007 26.91 32.007 12.796 0 16.918-35.977 17.426-49.84.033-.939.924-1.682 1.755-1.632.937.033 1.667.819 1.632 1.755-.199 5.435-2.469 53.106-20.813 53.106z" fill="#3c2415"/></g><g><path d="m338.436 421.115 1.932-18.329-54.642 18.329 4.648 10.149s-3.028 6.982 4.297 6.918c7.325-.065 42.986-6.805 45.03-10.524s-1.265-6.543-1.265-6.543z" fill="#8b5e3c"/><path d="m294.572 439.549c-2.545 0-4.348-.773-5.359-2.3-1.368-2.065-.722-4.734-.317-5.933l-4.412-9.633c-.314-.685-.013-1.496.673-1.81.685-.314 1.496-.013 1.81.673l4.648 10.15c.161.352.165.757.011 1.112-.298.7-.907 2.779-.134 3.937.484.725 1.558 1.094 3.167 1.072 7.953-.07 41.579-6.791 43.861-9.843 1.429-2.604-.727-4.606-.978-4.825-.334-.293-.512-.735-.465-1.176l1.931-18.329c.079-.75.751-1.293 1.501-1.215.75.079 1.294.751 1.215 1.501l-1.863 17.675c1.358 1.496 2.83 4.444 1.035 7.711-2.643 4.81-40.605 11.183-46.215 11.233-.034 0-.072 0-.109 0z" fill="#3c2415"/></g></g></g><g><g><path d="m130.523 308.966 10.218 6.866 32.354-33.571-5.533-31.289c-35.034-24.821-68.881 19.715-83.179 47.309s31.745 79.98 41.447 83.385c8.308 2.915 7.139-2.026 14.858.171-10.046-2.191-16.423 6.823-10.943 12.627 6.298 6.671 21.787 7.117 33.191.883s23.66-25.426 23.737-37.341c.068-10.152-43.306-40.328-56.15-49.04z" fill="#289d35"/><path d="m145.432 401.215c-6.902 0-13.197-1.931-16.777-5.721-2.994-3.172-3.221-7.637-.565-11.111.118-.154.242-.307.372-.456-.903-.158-1.933-.427-3.127-.847-7.593-2.663-31.286-28.822-40.831-52.881-5.279-13.307-5.768-24.278-1.451-32.609 11.767-22.708 32.295-48.904 54.623-54.325 10.677-2.594 21.024-.411 30.755 6.483.676.479.835 1.415.357 2.091-.479.677-1.416.835-2.091.356-8.991-6.369-18.515-8.392-28.313-6.015-21.349 5.183-41.204 30.668-52.667 52.79-3.899 7.524-3.369 17.659 1.576 30.123 9.609 24.221 32.899 49.003 39.036 51.156 3.834 1.345 5.242.85 6.871.274 1.759-.621 3.692-1.303 7.817-.15 1.628.352 3.336.972 5.097 1.914.712.381.995 1.257.639 1.982-.355.726-1.22 1.039-1.959.709-1.716-.767-3.117-1.294-4.285-1.643-4.568-1.026-8.237.516-10.035 2.867-1.397 1.829-2.036 4.688.364 7.23 5.785 6.127 20.744 6.411 31.381.596 10.869-5.941 22.883-24.801 22.957-36.034.048-7.397-30.269-30.603-52.928-46.064l-6.109-4.105c-.686-.461-.87-1.39-.412-2.077s1.385-.876 2.075-.419c.915.604 2.879 1.91 5.562 3.737l7.17 4.818 31.482-32.665c.576-.597 1.525-.612 2.121-.039.596.575.614 1.524.039 2.121l-31.239 32.412c18.077 12.802 45.295 33.537 45.238 42.301-.08 12.312-12.683 32.178-24.518 38.647-5.581 3.052-12.139 4.554-18.225 4.554z" fill="#3c2415"/></g><g fill="#3c2415"><path d="m180.759 376.971c-.115 0-.231-.02-.346-.062-.518-.19-.783-.765-.593-1.283.162-.444 3.758-10.749-5.516-19.854-6.472-6.354-60.271-45.537-60.814-45.932-.447-.325-.545-.95-.22-1.397.325-.446.95-.544 1.397-.22 2.221 1.616 54.462 39.665 61.039 46.121 10.225 10.039 6.036 21.854 5.992 21.972-.15.405-.532.655-.939.655z"/><path d="m168.914 392.003c-.055 0-.11-.005-.165-.014-.545-.091-.913-.605-.823-1.15.026-.156 2.492-15.776-6.357-23.982-2.183-2.024-8.36-5.982-16.181-10.994-25.612-16.41-68.478-43.877-60.69-60.31.236-.499.833-.711 1.332-.475s.712.832.476 1.332c-7.034 14.841 36.548 42.767 59.962 57.769 7.904 5.064 14.147 9.065 16.461 11.211 9.646 8.945 7.084 25.095 6.97 25.777-.082.489-.505.836-.985.836z"/><path d="m132.971 372.4c-.178 0-.358-.048-.521-.147-16.587-10.155-45.897-39.05-46.192-39.341-.393-.388-.396-1.021-.008-1.414.389-.392 1.021-.397 1.415-.008.292.289 29.439 29.021 45.83 39.058.471.288.619.903.331 1.375-.19.307-.519.477-.855.477z"/><path d="m117.992 300.059c-.201 0-.403-.061-.579-.186-.45-.32-.555-.945-.234-1.395.913-1.281 22.577-31.407 42.458-34.665 5.095-.833 9.663.182 13.582 3.021.447.324.547.949.223 1.396-.323.447-.947.549-1.396.223-3.469-2.514-7.536-3.414-12.083-2.666-19.06 3.121-40.936 33.545-41.154 33.852-.197.275-.504.42-.817.42z"/><path d="m99.27 297.677c-.216 0-.434-.069-.617-.214-1.783-1.401-1.436-4.398 1.032-8.91 8.748-15.985 43.165-48.771 62.099-42.172.521.182.797.752.615 1.273-.183.522-.753.798-1.273.615-18.008-6.274-51.181 25.701-59.686 41.243-2.146 3.922-2.177 5.887-1.552 6.378.435.341.51.97.168 1.404-.197.252-.49.383-.786.383z"/></g><g><path d="m127.661 246.376c2.744 3.219 1.941 5.978-.312 7.899-2.254 1.921-5.104 2.277-7.848-.942s-5.958-10.69-3.704-12.611 9.12 2.435 11.864 5.654z" fill="#b0eb39"/><path d="m122.757 257.63c-1.693-.305-3.338-1.31-4.778-3-2.501-2.934-7.359-12.123-3.48-15.43 3.877-3.308 12.183 2.944 14.685 5.879 1.659 1.946 2.394 3.945 2.185 5.941-.185 1.764-1.126 3.416-2.723 4.776-1.863 1.589-3.909 2.191-5.889 1.834zm-5.652-15.372c-.555 1.206 1.257 6.656 3.917 9.778 1.709 2.005 3.26 2.225 5.029.718.812-.692 1.262-1.415 1.339-2.149.091-.865-.33-1.85-1.251-2.93-2.662-3.123-7.753-5.773-9.034-5.417z" fill="#3c2415"/></g><g><path d="m89.924 290.293c3.514 2.355 3.488 5.228 1.839 7.688s-4.296 3.575-7.81 1.219c-3.514-2.355-8.631-8.676-6.982-11.135 1.649-2.46 9.439-.128 12.953 2.228z" fill="#b0eb39"/><path d="m88.252 302.455c-1.712.165-3.568-.357-5.413-1.593-3.203-2.147-10.368-9.676-7.53-13.91 2.836-4.235 12.525-.467 15.728 1.68 2.124 1.423 3.374 3.149 3.713 5.127.3 1.748-.159 3.593-1.327 5.335-1.361 2.033-3.168 3.167-5.171 3.361zm-9.605-13.267c-.207 1.312 3.013 6.067 6.42 8.351 2.189 1.467 3.741 1.258 5.035-.672.594-.886.831-1.704.707-2.431-.147-.857-.819-1.692-1.998-2.482-3.408-2.284-9.027-3.455-10.164-2.766z" fill="#3c2415"/></g><g><path d="m97.24 348.269c4.142-.859 6.175 1.172 6.776 4.071s-.457 5.57-4.599 6.429-12.237.085-12.839-2.814c-.601-2.9 6.52-6.828 10.662-7.686z" fill="#b0eb39"/><path d="m104.751 357.98c-1.081 1.338-2.754 2.297-4.928 2.748-3.775.783-14.168.625-15.202-4.367-1.037-4.99 8.439-9.267 12.214-10.05 2.504-.519 4.61-.203 6.26.94 1.458 1.01 2.454 2.63 2.879 4.684.497 2.396.041 4.479-1.223 6.045zm-16.197-2.435c.791 1.066 6.441 2.098 10.457 1.266 2.58-.535 3.518-1.789 3.047-4.065-.216-1.044-.634-1.787-1.241-2.207-.715-.495-1.781-.6-3.171-.312-4.017.833-8.788 4.024-9.092 5.318z" fill="#3c2415"/></g><g><path d="m151.42 323.387c-3.403 2.513-6.098 1.52-7.858-.862-1.759-2.382-1.916-5.25 1.486-7.764 3.403-2.513 11.079-5.199 12.838-2.817 1.76 2.382-3.064 8.93-6.466 11.443z" fill="#b0eb39"/><path d="m140.534 317.711c.422-1.668 1.54-3.239 3.326-4.558 3.101-2.291 12.606-6.497 15.635-2.397 3.03 4.098-3.786 11.948-6.887 14.24-2.057 1.52-4.102 2.114-6.079 1.766-1.747-.307-3.329-1.361-4.575-3.049-1.455-1.968-1.913-4.051-1.42-6.002zm15.729-4.568c-1.165-.637-6.727.79-10.027 3.227-2.12 1.566-2.447 3.098-1.066 4.967.634.858 1.324 1.357 2.05 1.485.856.151 1.869-.201 3.01-1.044 3.301-2.437 6.299-7.332 6.033-8.635z" fill="#3c2415"/></g><g><path d="m187.133 356.678c-3.844 1.765-6.28.242-7.516-2.449-1.235-2.691-.803-5.531 3.042-7.296s11.907-2.825 13.143-.134c1.235 2.691-4.824 8.114-8.669 9.879z" fill="#b0eb39"/><path d="m177.638 348.897c.754-1.546 2.169-2.856 4.187-3.782 3.504-1.609 13.668-3.784 15.794.849 2.128 4.631-6.147 10.922-9.652 12.532-2.324 1.067-4.448 1.231-6.312.487-1.647-.658-2.981-2.013-3.856-3.919-1.02-2.225-1.043-4.358-.161-6.167zm16.33-1.257c-1.01-.862-6.747-.601-10.475 1.11-2.395 1.099-3.028 2.532-2.059 4.644.445.969 1.018 1.599 1.704 1.873.808.322 1.871.186 3.16-.406 3.729-1.712 7.664-5.891 7.67-7.221z" fill="#3c2415"/></g><g><path d="m115.69 272.98c3.339 2.598 3.11 5.461 1.292 7.799s-4.538 3.263-7.877.665-4.416-6.434-2.598-8.771c1.819-2.338 5.844-2.29 9.183.307z" fill="#b0eb39"/><path d="m112.965 285.01c-1.682 0-3.39-.666-5.088-1.988-1.936-1.506-3.33-3.46-3.925-5.502-.649-2.229-.293-4.443.977-6.075 1.269-1.631 3.343-2.525 5.653-2.468 2.149.058 4.399.919 6.335 2.425 2.019 1.57 3.143 3.379 3.342 5.376.176 1.765-.412 3.573-1.699 5.229-1.288 1.656-2.896 2.67-4.65 2.933-.314.047-.629.07-.945.07zm-2.608-12.036c-.628 0-1.655.135-2.271.927-.647.832-.462 1.923-.293 2.5.361 1.241 1.264 2.471 2.541 3.464 1.121.872 2.125 1.25 2.984 1.119.73-.109 1.432-.591 2.086-1.433s.95-1.641.876-2.375c-.086-.865-.698-1.746-1.818-2.617-1.268-.986-2.684-1.549-3.987-1.584-.038-.001-.077-.001-.118-.001z" fill="#3c2415"/></g><g><path d="m95.584 316.257c4.206-.449 6.031 1.77 6.345 4.715.314 2.944-1 5.499-5.207 5.948-4.206.449-7.645-1.564-7.96-4.508-.314-2.945 2.615-5.706 6.822-6.155z" fill="#b0eb39"/><path d="m101.976 326.806c-1.21 1.168-2.902 1.874-5.042 2.103-2.438.26-4.799-.178-6.645-1.235-2.015-1.153-3.296-2.993-3.516-5.05-.219-2.055.652-4.138 2.354-5.702 1.587-1.451 3.804-2.393 6.243-2.654 2.543-.272 4.608.249 6.138 1.548 1.352 1.148 2.185 2.857 2.408 4.942.223 2.086-.23 3.932-1.31 5.339-.192.254-.402.489-.63.709zm-10.234-6.851c-.452.436-1.097 1.246-.99 2.244.112 1.048 1.003 1.705 1.525 2.003 1.122.642 2.625.901 4.234.729 1.412-.151 2.397-.576 2.924-1.267.449-.586.62-1.42.506-2.48-.113-1.06-.456-1.84-1.018-2.318-.663-.563-1.715-.771-3.125-.62-1.597.17-3.007.749-3.969 1.628-.029.026-.058.053-.087.081z" fill="#3c2415"/></g><g><path d="m113.236 370.704c3.07-2.911 5.867-2.254 7.904-.106 2.037 2.149 2.544 4.977-.526 7.887s-7.025 3.399-9.062 1.25c-2.038-2.148-1.386-6.121 1.684-9.031z" fill="#b0eb39"/><path d="m124.719 375.205c-.252 1.663-1.168 3.251-2.73 4.732-1.78 1.687-3.921 2.772-6.03 3.053-2.301.307-4.437-.378-5.859-1.878s-1.994-3.684-1.591-5.96c.38-2.116 1.57-4.211 3.35-5.899 1.855-1.76 3.813-2.6 5.818-2.496 1.772.091 3.471.944 4.914 2.466s2.204 3.264 2.201 5.038c-.001.317-.025.632-.073.944zm-12.291.77c-.094.621-.115 1.656.575 2.385.725.765 1.832.746 2.428.666 1.281-.171 2.633-.878 3.807-1.991 1.031-.977 1.555-1.913 1.554-2.782.002-.738-.369-1.504-1.103-2.278s-1.479-1.185-2.216-1.223c-.868-.045-1.831.428-2.86 1.404-1.166 1.105-1.935 2.42-2.165 3.703-.008.037-.014.075-.02.116z" fill="#3c2415"/></g></g></g></svg>