<svg height="512" viewBox="0 0 512 512" width="512" xmlns="http://www.w3.org/2000/svg">
    <g id="Stickers">
        <path d="m501.567 338.324c7.465-48.456-25.27-72.081-73.58-80.456l.53-25.56c12.086-7.078 21.037-14.05 26.659-20.771 36.117-43.187 29.584-185.473-81.994-203.368-32.9-5.276-66.729-1.975-90.081 21.978-25.046 25.693-24.413 62.143-24.373 63.682l.014.575 4.472 36.907h-70.56a37.307 37.307 0 0 0 -32.318 18.59c-10.255-21.107-20.758-36.289-29.174-46.575a62.571 62.571 0 0 0 -80.016-14.794c-60.141 35.236-44.6 137.815-21.192 202.84l.494.868c35.357 62.218 79.517 106.612 131.337 132.068l1.151 45.289a37.139 37.139 0 0 0 37.338 36.403h185.983a37.555 37.555 0 0 0 37.343-36.576l.714-34.474c64.956-18.943 84.192-57.805 77.253-96.626z"
              fill="none"/>
        <path d="m270.8 93.522s-2.287-89.913 100.471-73.433 104.26 148.291 74.645 183.7-182.25 84.339-248.17 64.223-80.461-180.549-115.36-174.49-50.41 123.531-17.45 179.186 95.972 136.115 217.149 135.146 209.393-11.633 208.424-84.339-144.923-55.5-144.923-55.5l24.714 26.175s115.376-19.63 120.216 53.076-94.768 85.066-148.571 87.974-198.487 31.429-301-148.964c0 0-53.683-146.323 16.306-187.328 21.452-12.569 48.826-7.222 64.569 12.022 14.355 17.546 32.57 46.822 46.441 92.823 26.821 88.943 258.026 22.781 264.57-23.751s-3.638-151.228-63.257-155.591-60.033 69.071-60.033 69.071-8.107 21.812-38.741 0z"
              fill="#ff605b"/>
        <path d="m192.654 143.382h199.825a25.279 25.279 0 0 1 25.273 25.8l-6.222 299.992a25.278 25.278 0 0 1 -25.273 24.754h-185.983a25.279 25.279 0 0 1 -25.274-24.636l-7.617-299.992a25.279 25.279 0 0 1 25.271-25.918z"
              fill="#eae5db"/>
        <path d="m204.532 186.411h173.525v47.501h-173.525z" fill="#a369f7"/>
        <path d="m204.532 414.64h173.525v30.052h-173.525z" fill="#00abfe"/>
        <path d="m394.537 259.853h-204.546a2.5 2.5 0 0 1 0-5h204.546a2.5 2.5 0 0 1 0 5z" fill="#1d1d3d"/>
        <path d="m345.586 336a54.292 54.292 0 1 1 -54.3-54.285 54.023 54.023 0 0 1 54.3 54.285z" fill="#ff605b"/>
        <path d="m336.415 366.185a54.295 54.295 0 0 1 -92.493-3.666 54.8 54.8 0 0 1 92.493 3.666z" fill="#ffb020"/>
        <ellipse cx="289.003" cy="313.128" fill="#ffb020" rx="15.365" ry="17.563"/>
        <path d="m270.796 93.522 8.016 66.162h23.956l6.773-66.162z" fill="#00abfe"/>
        <path d="m315.772 162.185h-48.956a2.5 2.5 0 0 1 0-5h48.956a2.5 2.5 0 0 1 0 5z" fill="#1d1d3d"/>
    </g>
</svg>