<?xml version="1.0" encoding="iso-8859-1"?>
<!-- Generator: Adobe Illustrator 26.5.1, SVG Export Plug-In . SVG Version: 6.00 Build 0)  -->
<svg xmlns="http://www.w3.org/2000/svg" xmlns:xlink="http://www.w3.org/1999/xlink" version="1.1" id="Capa_1" x="0px" y="0px" viewBox="0 0 512 512" style="enable-background:new 0 0 512 512;" xml:space="preserve">
<g>
	<path style="fill:none" d="M51.373,67.28h-0.006l-3.997-0.014l4.234-2.87c0.472-0.321,0.596-0.963,0.275-1.435   c-0.323-0.474-0.969-0.592-1.435-0.275l-5.712,3.872l0.127-6.673c0.011-0.571-0.442-1.041-1.013-1.052l-0.006,0   c-0.567-0.007-1.035,0.445-1.046,1.013l-0.112,5.889l-3.493-3.789c-0.388-0.417-1.039-0.447-1.46-0.059   c-0.419,0.386-0.445,1.041-0.059,1.46l3.594,3.898l-6.619-0.023c-0.571-0.001-1.035,0.459-1.036,1.03   c-0.001,0.567,0.453,1.029,1.02,1.036l0.01,0l6.038,0.021l-4.718,3.198c-0.472,0.321-0.596,0.963-0.275,1.435   c0.198,0.291,0.517,0.449,0.842,0.453c0.206,0.003,0.412-0.055,0.594-0.178l5.474-3.711l-0.127,6.723   c-0.011,0.571,0.442,1.041,1.013,1.052l0.006,0c0.567,0.007,1.035-0.445,1.046-1.013l0.12-6.349l3.723,4.039   c0.201,0.217,0.472,0.329,0.746,0.333c0.254,0.003,0.512-0.086,0.714-0.273c0.419-0.386,0.445-1.041,0.059-1.46l-3.899-4.229   l5.366,0.019c0.571,0.001,1.035-0.459,1.037-1.03C52.398,67.749,51.944,67.287,51.373,67.28z"/>
	<path style="fill:none;" d="M477.669,382.483h-0.006l-3.997-0.014l4.234-2.87c0.472-0.321,0.596-0.963,0.275-1.435   c-0.323-0.474-0.969-0.592-1.435-0.275l-5.712,3.872l0.127-6.673c0.011-0.571-0.443-1.041-1.013-1.052l-0.006,0   c-0.567-0.007-1.035,0.445-1.046,1.013l-0.112,5.889l-3.493-3.789c-0.388-0.417-1.039-0.447-1.46-0.059   c-0.419,0.386-0.445,1.042-0.059,1.46l3.594,3.898l-6.619-0.023c-0.571-0.001-1.035,0.459-1.036,1.03   c-0.001,0.567,0.453,1.029,1.02,1.036l0.01,0l6.038,0.021l-4.718,3.198c-0.472,0.321-0.596,0.963-0.275,1.435   c0.198,0.291,0.517,0.449,0.842,0.453c0.206,0.003,0.412-0.055,0.594-0.178l5.474-3.711l-0.127,6.723   c-0.011,0.571,0.442,1.041,1.013,1.052l0.006,0c0.567,0.007,1.035-0.445,1.046-1.013l0.12-6.349l3.723,4.039   c0.201,0.217,0.472,0.329,0.746,0.333c0.254,0.003,0.512-0.086,0.714-0.273c0.419-0.386,0.445-1.041,0.059-1.46l-3.899-4.229   l5.366,0.019c0.571,0.001,1.035-0.459,1.037-1.03C478.694,382.952,478.24,382.49,477.669,382.483z"/>
	<path style="fill:none;" d="M42.777,332.262c-0.763,0-1.487,0-3.501-8.016c-6.791-1.308-7.387-2.106-7.586-2.375   c-0.194-0.257-0.276-0.73-0.188-1.039c0.123-0.435,0.408-1.444,8.169-4.573c2.788-7.268,3.733-7.268,4.362-7.268   c0.325,0,0.775,0.234,0.97,0.495c0.498,0.671,0.95,2.41,1.634,5.194c0.216,0.873,0.474,1.925,0.623,2.389   c0.408,0.182,1.307,0.503,2.054,0.772c3.991,1.431,5.02,1.918,5.206,2.87c0.071,0.357-0.111,0.878-0.381,1.121   c-0.811,0.728-4.669,2.16-6.693,2.88c-3.287,7.478-3.989,7.515-4.61,7.548C42.819,332.262,42.795,332.262,42.777,332.262z    M34.317,320.983c1.358,0.391,3.834,0.953,5.992,1.356c0.397,0.075,0.716,0.375,0.813,0.769c0.553,2.238,1.275,4.787,1.794,6.241   c0.753-1.354,1.893-3.752,2.819-5.871c0.115-0.263,0.333-0.467,0.603-0.562c1.846-0.649,3.928-1.447,5.228-2.015   c-0.91-0.382-2.147-0.826-2.948-1.114c-2.28-0.817-2.71-0.994-3.002-1.388c-0.256-0.343-0.416-0.917-0.983-3.223   c-0.214-0.867-0.541-2.195-0.831-3.19c-0.676,1.291-1.622,3.488-2.359,5.432c-0.103,0.27-0.315,0.486-0.583,0.593   C38.463,318.966,35.743,320.186,34.317,320.983z"/>
	<path style="fill:none;" d="M463.725,206.687c-0.763,0-1.487,0-3.501-8.016c-6.791-1.308-7.387-2.106-7.586-2.375   c-0.194-0.257-0.276-0.73-0.188-1.039c0.123-0.435,0.408-1.444,8.169-4.573c2.788-7.268,3.733-7.268,4.362-7.268   c0.325,0,0.775,0.234,0.97,0.495c0.498,0.671,0.95,2.41,1.634,5.194c0.216,0.873,0.474,1.925,0.623,2.389   c0.408,0.182,1.307,0.503,2.054,0.772c3.991,1.431,5.02,1.918,5.206,2.87c0.071,0.357-0.111,0.878-0.381,1.121   c-0.811,0.728-4.669,2.16-6.693,2.88c-3.287,7.478-3.989,7.515-4.61,7.548C463.768,206.687,463.743,206.687,463.725,206.687z    M455.265,195.407c1.358,0.391,3.833,0.953,5.992,1.356c0.397,0.075,0.716,0.375,0.813,0.769c0.553,2.238,1.275,4.787,1.794,6.241   c0.753-1.354,1.893-3.752,2.819-5.871c0.115-0.263,0.333-0.467,0.603-0.562c1.846-0.649,3.928-1.447,5.228-2.015   c-0.91-0.382-2.147-0.826-2.948-1.114c-2.28-0.817-2.71-0.994-3.002-1.388c-0.256-0.343-0.416-0.917-0.983-3.223   c-0.214-0.867-0.541-2.195-0.831-3.19c-0.676,1.291-1.622,3.488-2.359,5.432c-0.103,0.27-0.315,0.486-0.583,0.593   C459.411,193.391,456.692,194.61,455.265,195.407z"/>
	<path style="fill:none;" d="M36.394,270.977l-0.024-0.018c-3.113-2.413-3.68-6.909-1.266-10.023   c2.403-3.1,6.888-3.676,9.997-1.286c1.532,1.188,2.495,2.875,2.734,4.769c0.239,1.891-0.273,3.765-1.441,5.272   C43.989,272.79,39.502,273.366,36.394,270.977z M43.859,261.302c-2.228-1.713-5.415-1.302-7.123,0.9   c-1.716,2.213-1.313,5.409,0.899,7.124l0.018,0.014c2.209,1.698,5.397,1.288,7.108-0.914c0.831-1.071,1.195-2.402,1.023-3.748   C45.615,263.331,44.931,262.133,43.859,261.302z"/>
	<path style="fill:none;" d="M466.239,264.778l-0.024-0.018c-3.113-2.413-3.68-6.909-1.266-10.023   c2.403-3.1,6.888-3.676,9.997-1.286c1.532,1.188,2.495,2.875,2.734,4.769c0.239,1.891-0.273,3.765-1.441,5.272   C473.834,266.591,469.347,267.168,466.239,264.778z M473.704,255.103c-2.228-1.713-5.415-1.302-7.123,0.9   c-1.716,2.213-1.313,5.409,0.899,7.124l0.018,0.014c2.209,1.698,5.397,1.288,7.108-0.914c0.831-1.071,1.195-2.402,1.023-3.748   C475.46,257.132,474.775,255.934,473.704,255.103z"/>
	<g>
		<path style="fill:none;" d="M421.164,499.086c-0.614,0-1.059-0.023-1.214-0.032c-0.338-0.02-0.644-0.204-0.819-0.492    c-0.177-0.288-0.201-0.644-0.066-0.953l4.684-10.697c0.152-0.348,0.484-0.585,0.864-0.615c0.398-0.027,0.745,0.15,0.951,0.471    c1.196,1.857,4.936,8.098,2.829,10.406C426.86,498.85,423.136,499.086,421.164,499.086z M424.839,489.576l-3.26,7.441    c2.09-0.042,4.52-0.396,5.288-1.238C427.381,495.217,426.434,492.446,424.839,489.576z"/>
		<path style="fill:none;" d="M424.021,495.528c0,0,10.854-11.666,2.963-18.107c-7.891-6.441-21.487-3.801-21.487-3.801    l6.983,16.959l-17.381,0.893c0,0,5.146,15.779,15.807,18.243C421.566,512.178,424.021,495.528,424.021,495.528z"/>
		
			<ellipse transform="matrix(0.9991 -0.0429 0.0429 0.9991 -20.7065 18.3592)" style="fill:none;" cx="417.55" cy="491.792" rx="2.69" ry="2.719"/>
		
			<ellipse transform="matrix(0.9991 -0.0429 0.0429 0.9991 -21.1678 18.3162)" style="fill:none;" cx="416.316" cy="502.521" rx="2.69" ry="2.719"/>
		
			<ellipse transform="matrix(0.9991 -0.0429 0.0429 0.9991 -20.3258 18.6853)" style="fill:none;" cx="425.339" cy="483.08" rx="2.69" ry="2.719"/>
		
			<ellipse transform="matrix(0.9991 -0.0429 0.0429 0.9991 -20.9693 17.8114)" style="fill:none;" cx="404.65" cy="497.643" rx="2.69" ry="2.719"/>
		
			<ellipse transform="matrix(0.9991 -0.0429 0.0429 0.9991 -20.0746 18.2752)" style="fill:none;" cx="415.908" cy="477.021" rx="2.69" ry="2.719"/>
		<path style="fill:none;" d="M436.896,498.039c-1.501,0-3.259-0.211-5.266-0.632c-0.559-0.117-0.916-0.665-0.799-1.223    c0.118-0.559,0.662-0.919,1.223-0.799c6.028,1.262,8.022,0.232,8.676-0.494c0.746-0.83,0.399-1.985,0.395-1.996    c-0.177-0.543,0.121-1.125,0.664-1.301c0.54-0.175,1.124,0.12,1.301,0.664c0.03,0.093,0.721,2.295-0.823,4.015    C441.209,497.449,439.411,498.039,436.896,498.039z"/>
		<path style="fill:none;" d="M429.964,511.72c-0.258,0-0.517-0.096-0.716-0.29c-0.411-0.394-0.424-1.048-0.029-1.46    c0.029-0.03,2.931-3.094,2.349-5.739c-0.289-1.312-1.456-2.379-3.47-3.169c-0.531-0.208-0.793-0.807-0.584-1.339    c0.208-0.533,0.81-0.794,1.339-0.584c2.7,1.058,4.293,2.625,4.735,4.656c0.813,3.728-2.729,7.452-2.88,7.609    C430.504,511.614,430.234,511.72,429.964,511.72z"/>
		<path style="fill:none;" d="M403.927,492.051c-0.201,0-0.404-0.059-0.582-0.181c-0.19-0.13-4.629-3.242-3.588-8.337    c0.265-1.297,0.944-2.307,2.021-3.001c2.622-1.692,6.728-0.786,6.901-0.747c0.556,0.127,0.904,0.679,0.778,1.235    c-0.126,0.558-0.685,0.902-1.234,0.781c-0.951-0.215-3.763-0.545-5.33,0.469c-0.597,0.386-0.961,0.935-1.113,1.677    c-0.764,3.738,2.593,6.122,2.736,6.22c0.467,0.326,0.585,0.968,0.261,1.437C404.577,491.894,404.255,492.051,403.927,492.051z"/>
		<path style="fill:none;" d="M408.023,491.074c-0.161,0-0.325-0.037-0.478-0.118c-0.505-0.264-0.7-0.888-0.436-1.394    l2.077-3.972c0.264-0.504,0.888-0.701,1.394-0.436c0.505,0.264,0.7,0.888,0.436,1.394l-2.077,3.972    C408.755,490.872,408.395,491.074,408.023,491.074z"/>
		<path style="fill:none;" d="M404.347,489.229c-0.171,0-0.343-0.042-0.501-0.131c-0.498-0.277-0.678-0.906-0.399-1.404    l2.959-5.309c0.276-0.501,0.909-0.677,1.404-0.4c0.498,0.277,0.678,0.906,0.399,1.404l-2.959,5.309    C405.061,489.038,404.709,489.229,404.347,489.229z"/>
	</g>
	<g>
		<path style="fill:none;" d="M93.958,43.31c-0.218,0-0.435-0.069-0.616-0.204c-1.774-1.318-7.471-5.842-6.31-8.744    c1.108-2.767,6.617-4.54,7.241-4.732c0.324-0.102,0.673-0.036,0.939,0.171c0.267,0.208,0.415,0.533,0.397,0.87L94.99,42.331    c-0.02,0.38-0.248,0.718-0.592,0.881C94.257,43.277,94.107,43.31,93.958,43.31z M93.463,32.109    c-1.941,0.776-4.091,1.963-4.513,3.02c-0.284,0.708,1.578,2.969,4.083,5.094L93.463,32.109z"/>
		<path style="fill:none;" d="M91.703,34.363c0,0-6.053,14.739,3.6,17.991c9.654,3.251,21.45-4.005,21.45-4.005l-12.505-13.416    l15.955-6.954c0,0-10.371-12.958-21.217-11.512S91.703,34.363,91.703,34.363z"/>
		
			<ellipse transform="matrix(0.9201 -0.3918 0.3918 0.9201 -6.0201 41.6613)" style="fill:none;" cx="99.074" cy="35.582" rx="2.69" ry="2.719"/>
		
			<ellipse transform="matrix(0.9201 -0.3918 0.3918 0.9201 -2.1248 39.7966)" style="fill:none;" cx="96.453" cy="25.105" rx="2.69" ry="2.719"/>
		
			<ellipse transform="matrix(0.9201 -0.3918 0.3918 0.9201 -10.6266 40.8772)" style="fill:none;" cx="94.85" cy="46.477" rx="2.69" ry="2.719"/>
		
			<ellipse transform="matrix(0.9201 -0.3918 0.3918 0.9201 -1.2946 44.7843)" style="fill:none;" cx="109.089" cy="25.564" rx="2.69" ry="2.719"/>
		
			<ellipse transform="matrix(0.9201 -0.3918 0.3918 0.9201 -10.6721 45.3595)" style="fill:none;" cx="105.81" cy="48.83" rx="2.69" ry="2.719"/>
		<path style="fill:none;" d="M75.807,44.522c-0.302,0-0.599-0.132-0.802-0.386c-0.062-0.077-1.483-1.896-0.643-4.048    c0.919-2.353,4.134-3.97,9.558-4.806c0.564-0.087,1.092,0.301,1.178,0.864c0.087,0.564-0.3,1.092-0.864,1.178    c-6.062,0.935-7.577,2.594-7.94,3.499c-0.418,1.038,0.301,1.992,0.331,2.033c0.345,0.449,0.266,1.097-0.18,1.446    C76.255,44.45,76.03,44.522,75.807,44.522z"/>
		<path style="fill:none;" d="M85.926,32.683c-0.005,0-0.009,0-0.014,0c-2.899-0.04-4.943-0.946-6.073-2.692    c-2.073-3.203-0.069-7.936,0.018-8.136c0.225-0.524,0.831-0.766,1.356-0.539c0.524,0.225,0.766,0.832,0.542,1.357    c-0.017,0.038-1.654,3.927-0.179,6.199c0.732,1.127,2.2,1.714,4.364,1.744c0.571,0.008,1.027,0.477,1.019,1.047    C86.95,32.23,86.489,32.683,85.926,32.683z"/>
		<path style="fill:none;" d="M111.462,43.706c-0.507,0-0.95-0.374-1.022-0.891c-0.078-0.565,0.317-1.087,0.881-1.165    c0.965-0.135,3.714-0.815,4.824-2.315c0.423-0.572,0.571-1.213,0.452-1.96c-0.601-3.768-4.581-4.818-4.751-4.862    c-0.552-0.139-0.889-0.699-0.751-1.252c0.137-0.551,0.687-0.897,1.248-0.753c0.223,0.054,5.475,1.405,6.293,6.541    c0.209,1.307-0.073,2.492-0.835,3.519c-1.859,2.507-6.022,3.104-6.198,3.127C111.556,43.703,111.508,43.706,111.462,43.706z"/>
		<path style="fill:none;" d="M108.062,39.35c-0.041,0-0.084-0.002-0.127-0.008c-0.566-0.069-0.968-0.584-0.899-1.151    l0.546-4.449c0.069-0.566,0.57-0.976,1.151-0.899c0.566,0.069,0.968,0.584,0.899,1.151l-0.546,4.449    C109.022,38.967,108.577,39.35,108.062,39.35z"/>
		<path style="fill:none;" d="M111.798,41.344c-0.05,0-0.102-0.004-0.154-0.011c-0.564-0.085-0.953-0.61-0.869-1.175l0.901-6.011    c0.085-0.564,0.601-0.937,1.175-0.869c0.564,0.085,0.953,0.61,0.869,1.175l-0.901,6.011    C112.742,40.977,112.301,41.344,111.798,41.344z"/>
	</g>
	<path style="fill:none;" d="M36.749,194.574c-0.243,0-0.485-0.066-0.707-0.196c-0.777-0.457-3.019-3.659-5.483-7.697   c-5.395,0.947-9.923,1.438-10.611,0.594c-0.303-0.369-0.411-0.989,0.027-1.54c0.96-1.208,3.218-4.02,5.954-7.247   c-2.421-4.677-4.181-8.917-3.71-10.32c0.226-0.676,0.831-1.067,1.542-0.976c1.333,0.154,5.275,1.77,9.126,3.476   c3.626-3.82,7.006-6.871,8.671-7.011c0.633-0.05,1.044,0.189,1.279,0.399c0.246,0.221,0.372,0.546,0.339,0.874   c-0.298,2.938-0.682,6.449-1.137,10.01c9.347,4.585,9.513,5.501,9.606,6.017c0.081,0.448-0.212,1.028-0.617,1.236   c-0.099,0.05-4.761,1.224-10.45,2.476c-0.935,5.162-2.02,9.157-3.191,9.751C37.181,194.523,36.964,194.574,36.749,194.574z    M32.653,186.299c1.657,2.742,3.144,4.973,3.994,5.899c0.518-1.064,1.123-3.629,1.739-7.056   C36.496,185.544,34.545,185.942,32.653,186.299z M26.974,180.459c-1.471,1.739-2.949,3.531-4.38,5.309   c1.502-0.1,3.975-0.463,6.843-0.958C28.604,183.397,27.768,181.923,26.974,180.459z M28.397,178.789   c1.002,1.885,2.088,3.829,3.149,5.644c2.337-0.427,4.828-0.915,7.203-1.404c0.347-2.102,0.694-4.438,1.025-6.891   c-2.083-1.01-4.279-2.041-6.37-2.987C31.824,174.863,30.128,176.776,28.397,178.789z M41.752,177.11   c-0.253,1.861-0.526,3.707-0.814,5.462c3.216-0.684,6.034-1.332,7.696-1.774C47.231,179.915,44.697,178.571,41.752,177.11z    M24.221,169.4c0.252,1.378,1.504,4.195,3.143,7.408c1.302-1.51,2.674-3.064,4.04-4.552   C28.292,170.883,25.616,169.799,24.221,169.4z M34.888,171.566c1.371,0.622,2.666,1.225,3.751,1.738   c0.491,0.232,0.964,0.458,1.419,0.676c0.335-2.609,0.65-5.31,0.929-7.979C39.739,166.727,37.543,168.775,34.888,171.566z"/>
	<g>
		<path style="fill:none;" d="M156.79,509.803c-1.44,0-2.834-0.234-4.157-0.703c-3.412-1.209-6.235-3.992-8.162-8.046    c-1.559-3.281-4.322-5.827-6.34-7.686c-1.93-1.778-3.204-2.953-3.001-4.273c0.069-0.445,0.345-1.068,1.274-1.506    c3.515-1.652,5.148-3.857,6.877-6.19c1.627-2.196,3.311-4.467,6.564-6.006c5.607-2.649,9.594-1.096,11.686,0.303    c0.335-2.541,1.416-6.782,4.89-9.391c3.36-2.523,8.083-2.874,14.038-1.04c5.054,1.557,6.784,5.12,7.346,7.835    c1.08,5.223-1.395,11.141-4.309,13.629c-1.592,1.361-3.329,1.787-4.897,1.192c-2.224-0.84-3.661-2.184-4.27-3.993    c-1.119-3.327,1.1-6.917,1.194-7.069c0.302-0.483,0.936-0.63,1.421-0.325c0.483,0.302,0.631,0.938,0.329,1.422    c-0.018,0.028-1.794,2.928-0.984,5.32c0.403,1.189,1.425,2.102,3.04,2.712c1.057,0.402,2.123-0.23,2.825-0.83    c2.477-2.116,4.526-7.298,3.627-11.64c-0.448-2.169-1.841-5.019-5.93-6.278c-5.279-1.628-9.378-1.387-12.181,0.71    c-4.261,3.191-4.223,9.756-4.222,9.823c0.006,0.44-0.267,0.835-0.681,0.986c-0.414,0.147-0.878,0.022-1.154-0.32    c-0.15-0.181-3.852-4.505-10.885-1.177c-2.786,1.317-4.244,3.284-5.788,5.367c-1.722,2.323-3.672,4.955-7.658,6.831    c-0.018,0.008-0.034,0.016-0.048,0.023c0.28,0.509,1.388,1.53,2.296,2.367c2.143,1.973,5.076,4.677,6.807,8.319    c1.711,3.598,4.062,5.949,6.986,6.986c2.87,1.016,6.193,0.696,9.599-0.932c3.394-1.621,4.419-5.845,3.929-9.311    c-0.431-3.05-1.954-5.228-3.879-5.548c-2.157-0.357-4.085,0.356-5.279,1.965c-1.316,1.773-1.463,4.232-0.384,6.414    c0.253,0.511,0.043,1.131-0.468,1.384c-0.514,0.254-1.133,0.041-1.384-0.468c-1.424-2.881-1.203-6.162,0.578-8.561    c1.647-2.219,4.369-3.256,7.277-2.772c2.877,0.479,5.017,3.276,5.586,7.298c0.594,4.213-0.747,9.391-5.083,11.464    C161.424,509.227,159.051,509.803,156.79,509.803z M137.103,489.565L137.103,489.565L137.103,489.565z"/>
		<path style="fill:none" d="M193.574,508.776c-5.259,0-7.213-3.371-7.917-5.459c-1.531-4.536,0.174-10.901,3.509-13.099    c2.112-1.392,4.113-1.73,5.945-1.012c3.877,1.522,5.339,7.334,5.399,7.581c0.135,0.554-0.204,1.112-0.758,1.248    c-0.55,0.137-1.112-0.202-1.249-0.757c-0.344-1.393-1.76-5.215-4.151-6.151c-1.186-0.464-2.51-0.198-4.05,0.815    c-2.321,1.529-4.017,6.773-2.688,10.713c0.677,2.001,2.368,4.338,6.722,4.026c6.927-0.476,15.241-7.701,18.933-12.681    c1.452-1.957,1.81-3.063,1.844-3.454c-4.781-1.443-7.522-5.045-10.422-8.857c-1.759-2.312-3.578-4.703-5.971-6.779    c-5.186-4.496-10.405-0.912-10.457-0.874c-0.467,0.328-1.11,0.218-1.44-0.249c-0.329-0.466-0.217-1.111,0.249-1.44    c0.066-0.046,6.606-4.545,13.002,1.002c2.554,2.216,4.439,4.693,6.262,7.089c2.836,3.727,5.284,6.946,9.499,8.166    c0.732,0.213,1.466,0.898,1.328,2.185c-0.499,4.665-13.161,17.299-22.684,17.954C194.166,508.766,193.864,508.776,193.574,508.776    z"/>
		<path style="fill:none" d="M176.315,512c-0.11,0-0.219-0.001-0.329-0.004c-6.667-0.165-11.263-5.319-11.456-5.538    c-0.375-0.428-0.333-1.079,0.095-1.456c0.428-0.376,1.08-0.336,1.458,0.092c0.041,0.047,4.217,4.703,9.972,4.837    c3.605,0.079,7.121-1.613,10.446-5.042c0.398-0.41,1.051-0.419,1.461-0.022c0.41,0.396,0.42,1.051,0.022,1.461    C184.334,510.092,180.41,512,176.315,512z"/>
	</g>
	<g>
		<path style="fill:none;" d="M339.363,45.696c-1.44,0-2.834-0.234-4.157-0.703c-3.412-1.209-6.235-3.992-8.162-8.046    c-1.559-3.281-4.322-5.827-6.34-7.686c-1.93-1.778-3.204-2.953-3.001-4.273c0.069-0.445,0.345-1.068,1.274-1.506    c3.515-1.652,5.148-3.857,6.876-6.19c1.628-2.196,3.311-4.467,6.565-6.006c5.606-2.647,9.595-1.095,11.685,0.303    c0.335-2.541,1.416-6.782,4.89-9.39c3.362-2.526,8.088-2.875,14.039-1.041c5.054,1.557,6.784,5.12,7.346,7.835    c1.08,5.223-1.395,11.141-4.309,13.629c-1.592,1.36-3.33,1.787-4.897,1.192c-2.225-0.84-3.662-2.184-4.27-3.993    c-1.119-3.327,1.1-6.917,1.194-7.069c0.302-0.482,0.935-0.63,1.421-0.325c0.483,0.302,0.631,0.938,0.329,1.422    c-0.018,0.029-1.795,2.927-0.984,5.32c0.403,1.189,1.425,2.102,3.04,2.712c1.061,0.402,2.123-0.23,2.825-0.83    c2.477-2.115,4.526-7.298,3.627-11.64c-0.448-2.169-1.841-5.019-5.93-6.278c-5.281-1.628-9.379-1.388-12.182,0.71    c-4.261,3.191-4.223,9.756-4.222,9.823c0.006,0.44-0.267,0.835-0.681,0.986c-0.413,0.145-0.878,0.023-1.154-0.32    c-0.151-0.183-3.853-4.506-10.884-1.177c-2.786,1.317-4.245,3.285-5.789,5.368c-1.721,2.322-3.672,4.954-7.657,6.83    c-0.018,0.008-0.034,0.016-0.048,0.023c0.28,0.509,1.388,1.53,2.296,2.367c2.143,1.973,5.076,4.677,6.807,8.318    c1.711,3.599,4.062,5.95,6.986,6.987c2.87,1.017,6.193,0.696,9.599-0.932c3.394-1.622,4.419-5.845,3.929-9.311    c-0.432-3.05-1.954-5.227-3.879-5.548c-2.162-0.361-4.086,0.356-5.279,1.965c-1.316,1.774-1.464,4.231-0.384,6.413    c0.253,0.511,0.043,1.131-0.468,1.384c-0.512,0.253-1.131,0.042-1.384-0.468c-1.424-2.881-1.204-6.161,0.577-8.561    c1.648-2.219,4.376-3.254,7.278-2.771c2.877,0.479,5.017,3.275,5.585,7.296c0.596,4.213-0.745,9.392-5.082,11.465    C343.996,45.119,341.623,45.696,339.363,45.696z M319.676,25.458L319.676,25.458L319.676,25.458z"/>
		<path style="fill:none;" d="M376.146,44.669c-5.259,0-7.213-3.371-7.917-5.459c-1.532-4.536,0.173-10.901,3.508-13.099    c2.111-1.391,4.115-1.729,5.945-1.012c3.877,1.522,5.339,7.334,5.399,7.581c0.135,0.554-0.204,1.112-0.758,1.248    c-0.55,0.136-1.112-0.203-1.249-0.757c-0.344-1.393-1.76-5.215-4.151-6.151c-1.187-0.464-2.511-0.199-4.05,0.815    c-2.321,1.529-4.017,6.773-2.686,10.713c0.677,2.002,2.374,4.339,6.722,4.026c6.927-0.476,15.241-7.701,18.933-12.681    c1.452-1.957,1.81-3.063,1.844-3.454c-4.781-1.443-7.523-5.046-10.423-8.857c-1.759-2.312-3.578-4.703-5.971-6.779    c-5.152-4.47-10.245-1.02-10.459-0.872c-0.465,0.325-1.11,0.212-1.437-0.255c-0.327-0.466-0.216-1.108,0.249-1.436    c0.066-0.045,6.61-4.542,13.001,1.002c2.553,2.216,4.439,4.693,6.262,7.088c2.836,3.728,5.285,6.947,9.5,8.167    c0.732,0.213,1.466,0.898,1.328,2.185c-0.499,4.665-13.161,17.299-22.684,17.954C376.738,44.658,376.437,44.669,376.146,44.669z"/>
		<path style="fill:none;" d="M358.886,47.893c-0.109,0-0.218-0.001-0.328-0.004c-6.667-0.165-11.263-5.319-11.456-5.538    c-0.375-0.428-0.333-1.079,0.095-1.456c0.427-0.377,1.079-0.335,1.458,0.092c0.041,0.047,4.217,4.703,9.972,4.837    c3.571,0.079,7.12-1.611,10.445-5.042c0.398-0.41,1.051-0.42,1.461-0.022c0.41,0.396,0.42,1.051,0.022,1.461    C366.905,45.985,362.981,47.893,358.886,47.893z"/>
	</g>
	<polygon style="fill:none;" points="85.3,497.494 78.646,510.286 73.957,497.503 61.755,495.151 69.164,486.42 68.05,473.555    78.221,479.501 90.41,473.014 86.901,486.902 97.167,494.657  "/>
	<polygon style="fill:none;" points="457.431,43.539 450.777,56.331 446.088,43.548 433.886,41.196 441.295,32.465    440.181,19.599 450.352,25.546 462.541,19.059 459.032,32.947 469.298,40.701  "/>
	<g>
		<g>
			<path style="fill:none;" d="M160.581,129.802l-10.542-37.587c6.402-1.51,15.863,7.754,43.81,4.634     s-12.837-43.725,59.442-47.834c74.753-4.249,25.58,27.652,62.748,43.2c19.205,8.034,44.96-9.1,47.17-5.305     s-8.846,42.892-8.846,42.892H160.581z"/>
			<path style="fill:none;" d="M354.365,116.928c-0.074,0-0.148-0.008-0.223-0.024c-0.557-0.122-0.91-0.674-0.787-1.231     c0.036-0.163,3.59-16.428,2.964-22.74c-0.031-0.311-0.061-0.546-0.089-0.724c-0.254,0.17-0.564,0.393-0.852,0.602     c-3.133,2.258-10.471,7.547-27.842,9.067c-33.898,2.972-35.762-9.579-37.551-21.711c-1.552-10.518-3.063-20.475-27.135-19.753     c-43.887,1.272-44.495,8.585-45.336,18.706c-0.474,5.705-1.065,12.806-8.949,20.075c-18.525,17.08-37.096,6.985-45.027,2.672     c-1.199-0.653-2.261-1.231-2.873-1.458c0.158,1.922,3.324,8.265,6.493,13.528c0.295,0.488,0.137,1.123-0.352,1.417     c-0.489,0.296-1.124,0.135-1.417-0.352c-3.736-6.202-7.884-14.028-6.431-16.082c0.186-0.263,0.732-0.851,1.833-0.624     c0.817,0.167,1.978,0.799,3.736,1.754c7.542,4.101,25.199,13.707,42.639-2.376c7.293-6.723,7.822-13.1,8.29-18.726     c1.024-12.31,3.727-19.336,47.335-20.601c25.956-0.75,27.626,10.568,29.24,21.517c1.726,11.701,3.358,22.749,35.328,19.954     c16.804-1.471,23.818-6.527,26.813-8.686c1.33-0.958,2.131-1.535,3.038-1.128c0.871,0.392,1.039,1.42,1.168,2.723     c0.659,6.637-2.852,22.707-3.002,23.388C355.267,116.6,354.839,116.928,354.365,116.928z"/>
			<path style="fill:none;" d="M294.937,115.25c-0.035,0-0.072-0.002-0.108-0.005c-0.567-0.06-0.98-0.567-0.921-1.135     c0.901-8.674-0.419-14.052-3.919-15.984c-7.306-4.029-22.076,7.456-22.224,7.572c-0.295,0.228-0.688,0.283-1.03,0.143     c-0.344-0.14-0.586-0.456-0.634-0.825c-2.589-20.315-12.473-31.814-15.438-34.858c-13.05,19.798-7.464,37.423-7.406,37.602     c0.147,0.445-0.024,0.933-0.417,1.189c-0.391,0.255-0.906,0.217-1.256-0.097c-7.542-6.799-14.084-9.425-19.455-7.8     c-7.878,2.382-10.751,13.308-10.779,13.419c-0.141,0.553-0.714,0.883-1.255,0.746c-0.553-0.14-0.888-0.702-0.748-1.255     c0.126-0.495,3.18-12.157,12.174-14.885c5.496-1.665,11.88,0.408,19.014,6.163c-1.143-6.277-2.087-21.024,9.11-37.27     c0.166-0.242,0.429-0.402,0.721-0.439c0.288-0.031,0.585,0.051,0.807,0.245c0.55,0.479,13.206,11.73,16.735,35.239     c4.098-2.935,15.97-10.612,23.076-6.7c4.297,2.37,5.972,8.428,4.979,18.007C295.909,114.854,295.46,115.25,294.937,115.25z"/>
			<path style="fill:none;" d="M285.792,83.499c-0.552,0-1.009-0.436-1.031-0.992c-0.237-5.958-1.945-10.226-5.076-12.687     c-4.151-3.263-9.519-2.228-9.572-2.217c-0.561,0.117-1.104-0.247-1.218-0.806c-0.114-0.558,0.244-1.103,0.802-1.218     c0.258-0.052,6.325-1.247,11.244,2.6c3.642,2.85,5.621,7.643,5.883,14.246c0.023,0.57-0.421,1.051-0.991,1.073     C285.82,83.499,285.806,83.499,285.792,83.499z"/>
			<path style="fill:none;" d="M261.737,102.492c-0.571,0-1.033-0.462-1.033-1.033c0-13.744-9.26-20.054-9.354-20.117     c-0.475-0.316-0.604-0.957-0.289-1.433c0.316-0.474,0.954-0.605,1.433-0.289c0.42,0.278,10.276,6.997,10.276,21.838     C262.77,102.03,262.308,102.492,261.737,102.492z"/>
		</g>
		<g>
			<path style="fill:none;" d="M125.022,113.559c0,0-34.504,32.706-60.229,1.132c0,0-4.918-35.513,17.706-12.834     c0,0-8.732-16.178,10.564-31.675c0,0,23.274,9.26,13.06,31.939C106.123,102.121,122.634,84.167,125.022,113.559z"/>
			<path style="fill:none;" d="M69.836,113.926c-0.138,0-0.278-0.027-0.413-0.087c-0.523-0.228-0.762-0.837-0.533-1.36     c0.156-0.359,3.916-8.793,10.298-9.251c2.638-0.196,5.234,0.995,7.805,3.526c-2.096-7.032-3.52-17.903,4.943-23.632     c0.207-0.139,0.462-0.196,0.707-0.169c0.187,0.023,4.618,0.626,7.788,5.293c3.181,4.683,3.915,11.583,2.195,20.551     c2.888-3.213,7.439-7.27,11.323-6.275c2.991,0.763,4.806,4.115,5.548,10.247c0.068,0.567-0.336,1.081-0.902,1.15     c-0.565,0.065-1.081-0.335-1.15-0.902c-0.609-5.043-1.994-7.98-4.007-8.493c-3.862-0.984-9.937,6.142-11.957,8.969     c-0.289,0.406-0.827,0.549-1.277,0.336c-0.451-0.211-0.688-0.713-0.563-1.194c2.671-10.326,2.365-18.341-0.886-23.179     c-2.17-3.227-5.001-4.147-6.005-4.381c-10.866,7.881-1.483,27.164-1.386,27.359c0.245,0.494,0.06,1.094-0.423,1.362     c-0.481,0.264-1.09,0.111-1.38-0.358c-3.506-5.642-6.932-8.368-10.226-8.149c-5.151,0.37-8.521,7.942-8.554,8.018     C70.614,113.695,70.234,113.926,69.836,113.926z"/>
		</g>
		<g>
			<path style="fill:none;" d="M444.816,113.559c0,0-34.504,32.706-60.229,1.132c0,0-4.918-35.513,17.706-12.834     c0,0-8.732-16.178,10.564-31.675c0,0,23.274,9.26,13.06,31.939C425.917,102.121,442.428,84.167,444.816,113.559z"/>
			<path style="fill:none;" d="M410.235,113.926c-0.346,0-0.684-0.175-0.879-0.488c-3.505-5.641-6.944-8.38-10.222-8.149     c-5.137,0.365-8.524,7.942-8.557,8.019c-0.23,0.523-0.836,0.762-1.361,0.531c-0.523-0.228-0.761-0.836-0.532-1.359     c0.156-0.359,3.916-8.793,10.297-9.251c2.635-0.196,5.235,0.995,7.805,3.526c-2.096-7.032-3.52-17.903,4.943-23.632     c0.208-0.139,0.459-0.196,0.707-0.169c0.187,0.023,4.618,0.626,7.788,5.293c3.181,4.683,3.915,11.583,2.196,20.551     c2.887-3.213,7.437-7.27,11.322-6.275c2.991,0.763,4.806,4.115,5.547,10.247c0.068,0.567-0.336,1.081-0.902,1.15     c-0.566,0.065-1.081-0.335-1.15-0.902c-0.609-5.043-1.994-7.98-4.007-8.493c-3.858-0.984-9.937,6.142-11.957,8.969     c-0.289,0.406-0.825,0.549-1.277,0.336c-0.451-0.211-0.688-0.713-0.563-1.195c2.671-10.325,2.366-18.339-0.886-23.177     c-2.169-3.228-5-4.148-6.004-4.382c-10.866,7.881-1.483,27.164-1.386,27.359c0.245,0.494,0.06,1.094-0.423,1.362     C410.578,113.884,410.406,113.926,410.235,113.926z"/>
		</g>
		<path style="fill:none;" d="M162.851,195.219c-0.356,0-0.702-0.184-0.894-0.513l-33.598-57.751    c-0.286-0.493-0.12-1.126,0.373-1.412c0.492-0.287,1.126-0.121,1.412,0.373l33.598,57.751c0.287,0.493,0.12,1.126-0.373,1.412    C163.206,195.174,163.028,195.219,162.851,195.219z"/>
		<path style="fill:none;" d="M346.427,195.219c-0.177,0-0.355-0.045-0.519-0.14c-0.493-0.286-0.66-0.919-0.373-1.412    l33.598-57.751c0.288-0.494,0.92-0.659,1.412-0.373c0.493,0.286,0.66,0.919,0.373,1.412l-33.598,57.751    C347.13,195.035,346.784,195.219,346.427,195.219z"/>
		<g>
			<circle style="fill:#DEBC23;" cx="253.887" cy="289.843" r="134.844"/>
			<circle style="fill:#403955;" cx="253.887" cy="289.843" r="103.848"/>
			<circle style="fill:#DEBC23;" cx="253.887" cy="287.252" r="49.334"/>
			<path style="fill:#261D2A;" d="M253.887,322.16c-19.248,0-34.908-15.659-34.908-34.907s15.66-34.908,34.908-34.908     s34.907,15.66,34.907,34.908S273.136,322.16,253.887,322.16z M253.887,254.411c-18.109,0-32.842,14.733-32.842,32.842     c0,18.108,14.733,32.841,32.842,32.841c18.108,0,32.841-14.733,32.841-32.841C286.728,269.143,271.996,254.411,253.887,254.411z"/>
			<g>
				<path style="fill:#FCFDFF;" d="M251.643,287.945c22.751-3.728,10.948-20.072,3.444-28.17c-3.392-0.125-6.862,0.365-10.251,1.585      c-14.196,5.111-21.56,20.763-16.449,34.958c2.053,5.702,5.823,10.276,10.499,13.408      C234.791,301.007,234.251,290.795,251.643,287.945z"/>
				<path style="fill:#261D2A;" d="M280.766,277.458c-3.938-10.941-14.004-18.287-25.641-18.716      c-3.657-0.142-7.231,0.418-10.639,1.645c-7.125,2.565-12.825,7.752-16.049,14.605c-3.224,6.852-3.587,14.55-1.021,21.676      c2.054,5.706,5.822,10.518,10.895,13.916c4.74,3.174,10.289,4.81,15.861,4.81c3.217,0,6.442-0.546,9.524-1.655      C278.405,308.443,286.063,292.168,280.766,277.458z M229.359,295.968c-2.378-6.606-2.042-13.743,0.947-20.096      c2.989-6.354,8.273-11.163,14.88-13.541c2.848-1.025,5.827-1.543,8.869-1.543c0.047,0,0.269,0.009,0.578,0.022      c4.339,4.741,10.92,13.225,8.865,19.216c-1.189,3.466-5.235,5.788-12.022,6.899c-7.555,1.239-12.5,3.983-14.698,8.156      c-1.65,3.134-1.71,7-0.239,11.503c-0.008-0.001-0.014,0.001-0.023,0C233.286,303.699,230.842,300.084,229.359,295.968z"/>
				<circle style="fill:#FCFDFF;" cx="253.292" cy="299.778" r="5.62"/>
				<circle style="fill:#261D2A;" cx="248.471" cy="273.357" r="5.62"/>
			</g>
			<g>
				<path style="fill:#DEBC23;" d="M253.89,188.448c0,0-35.458,44.214-2.351,46.378C293.393,237.562,253.89,188.448,253.89,188.448z      "/>
				<path style="fill:#261D2A;" d="M252.907,230.965c-0.068,0-0.135-0.002-0.202-0.005c-0.01-0.001-0.021-0.002-0.031-0.002      c-0.109-0.009-10.897-1.036-10.748-12.591c0.052-4.046,0.605-5.71,1.972-5.934c0.423-0.062,1.434-0.232,2.998,2.531      c0.032-3.777,0.529-8.025,2.464-9.252c0.612-0.386,1.632-0.677,3.009,0.131c2.437,1.434,3.782,3.994,4.522,6.481      c0.512-1.509,1.232-2.729,2.24-3.056c0.635-0.207,1.619-0.186,2.699,1.09c2.707,3.198,2.923,7.73,0.593,12.433      C260.124,227.429,255.988,230.965,252.907,230.965z M252.829,228.896c2.01,0.05,5.635-2.772,7.742-7.023      c1.144-2.31,2.624-6.704-0.32-10.182c-0.345-0.407-0.53-0.453-0.532-0.453c-0.704,0.311-1.652,4.047-1.94,7.832      c-0.043,0.561-0.517,0.978-1.086,0.953c-0.561-0.03-0.995-0.503-0.977-1.064c0.002-0.086,0.219-8.621-4.395-11.335      c-0.583-0.343-0.787-0.209-0.855-0.167c-1.428,0.905-1.771,7.44-1.269,12.974c0.046,0.52-0.3,0.993-0.809,1.103      c-0.503,0.11-1.022-0.174-1.194-0.667c-0.917-2.608-2.134-5.156-2.869-6.083c-0.137,0.503-0.307,1.537-0.333,3.609      C243.87,227.883,252.274,228.844,252.829,228.896z"/>
			</g>
			<g>
				<path style="fill:#DEBC23;" d="M254.292,387.918c0,0,35.458-44.214,2.351-46.378      C214.788,338.804,254.292,387.918,254.292,387.918z"/>
				<path style="fill:#261D2A;" d="M257.504,371.039c-0.482,0-1.048-0.138-1.692-0.517c-2.436-1.434-3.781-3.994-4.521-6.48      c-0.512,1.508-1.232,2.728-2.24,3.055c-0.64,0.205-1.621,0.185-2.699-1.09c-2.706-3.197-2.924-7.728-0.595-12.429      c2.349-4.742,6.658-8.328,9.718-8.173c0.011,0.001,0.022,0.002,0.032,0.002c0.109,0.009,10.897,1.036,10.748,12.591      c-0.052,4.046-0.605,5.71-1.972,5.934c-0.413,0.072-1.432,0.238-2.998-2.53c-0.033,3.777-0.53,8.024-2.465,9.251      C258.496,370.86,258.054,371.039,257.504,371.039z M251.432,356.341c0.019,0,0.037,0.001,0.056,0.002      c0.561,0.03,0.995,0.503,0.977,1.064c-0.002,0.086-0.219,8.62,4.394,11.334c0.584,0.346,0.789,0.21,0.855,0.167      c1.43-0.905,1.771-7.439,1.27-12.973c-0.046-0.52,0.301-0.993,0.809-1.103c0.503-0.112,1.022,0.174,1.194,0.667      c0.917,2.608,2.134,5.156,2.868,6.083c0.138-0.503,0.308-1.537,0.334-3.61c0.122-9.488-8.278-10.45-8.837-10.504      c-1.978-0.042-5.635,2.772-7.744,7.027c-1.143,2.309-2.621,6.701,0.322,10.177c0.345,0.409,0.53,0.454,0.532,0.455      c0.704-0.312,1.652-4.047,1.94-7.832C250.444,356.754,250.895,356.341,251.432,356.341z"/>
			</g>
			<g>
				<path style="fill:#DEBC23;" d="M354.94,287.982c0,0-44.214-35.458-46.378-2.351C305.826,327.486,354.94,287.982,354.94,287.982z      "/>
				<path style="fill:#261D2A;" d="M326.863,298.118c-1.975,0-4.1-0.532-6.262-1.602c-4.741-2.349-8.332-6.617-8.173-9.718      c0.001-0.011,0.002-0.022,0.002-0.032c0.009-0.11,1.003-10.935,12.592-10.748c4.045,0.052,5.71,0.605,5.934,1.972      c0.068,0.417,0.234,1.433-2.531,2.999c3.777,0.032,8.024,0.529,9.251,2.464c0.387,0.612,0.68,1.631-0.131,3.009      c-1.434,2.436-3.994,3.781-6.48,4.521c1.508,0.512,2.728,1.232,3.055,2.24c0.206,0.637,0.185,1.62-1.09,2.699      C331.303,297.382,329.186,298.118,326.863,298.118z M314.491,286.919c-0.085,1.978,2.772,5.638,7.027,7.746      c2.308,1.143,6.702,2.619,10.177-0.322c0.409-0.345,0.454-0.53,0.455-0.532c-0.312-0.704-4.047-1.652-7.832-1.94      c-0.56-0.042-0.984-0.525-0.953-1.085c0.029-0.561,0.52-1.023,1.064-0.977c0.083-0.001,8.62,0.219,11.334-4.394      c0.342-0.58,0.211-0.788,0.167-0.855c-0.904-1.428-7.438-1.769-12.973-1.269c-0.541,0.045-0.993-0.3-1.103-0.809      c-0.111-0.509,0.175-1.022,0.666-1.194c2.609-0.917,5.158-2.135,6.085-2.869c-0.503-0.138-1.537-0.308-3.61-0.334      C315.444,278.026,314.542,286.367,314.491,286.919z"/>
			</g>
			<g>
				<path style="fill:#DEBC23;" d="M155.47,288.384c0,0,44.214,35.458,46.378,2.351C204.584,248.881,155.47,288.384,155.47,288.384z      "/>
				<path style="fill:#261D2A;" d="M185.624,300.349c-0.079,0-0.156,0-0.236-0.001c-4.046-0.052-5.71-0.605-5.934-1.972      c-0.068-0.416-0.234-1.433,2.531-2.998c-3.777-0.032-8.024-0.529-9.251-2.464c-0.388-0.612-0.68-1.631,0.13-3.009      c1.434-2.437,3.994-3.782,6.481-4.522c-1.509-0.512-2.729-1.232-3.056-2.24c-0.206-0.637-0.185-1.62,1.09-2.699      c3.198-2.707,7.731-2.923,12.433-0.593c4.74,2.349,8.329,6.617,8.169,9.717c-0.001,0.01-0.002,0.021-0.002,0.031      C197.97,289.709,196.957,300.349,185.624,300.349z M181.806,297.949c0.503,0.137,1.537,0.307,3.609,0.333      c9.491,0.089,10.452-8.284,10.504-8.838c0.084-1.977-2.771-5.633-7.023-7.741c-2.31-1.145-6.703-2.626-10.182,0.32      c-0.407,0.345-0.453,0.53-0.453,0.532c0.311,0.704,4.047,1.652,7.832,1.94c0.56,0.042,0.984,0.525,0.953,1.086      c-0.03,0.56-0.5,1.039-1.064,0.977c-0.089,0.003-8.621-0.219-11.335,4.395c-0.342,0.58-0.21,0.788-0.167,0.855      c0.908,1.43,7.442,1.775,12.974,1.269c0.528-0.053,0.992,0.3,1.104,0.809c0.11,0.509-0.176,1.022-0.668,1.194      C185.281,295.997,182.733,297.214,181.806,297.949z M196.949,289.519h0.02H196.949z"/>
			</g>
			<g>
				<path style="fill:#DEBC23;" d="M323.358,216.404c0,0-56.336,6.192-34.456,31.132      C316.562,279.066,323.358,216.404,323.358,216.404z"/>
				<path style="fill:#261D2A;" d="M299.055,247.729c-2.868,0-5.353-0.726-6.595-2.103c-0.007-0.008-0.014-0.016-0.021-0.024      c-0.071-0.084-6.974-8.437,1.302-16.502c2.9-2.827,4.465-3.613,5.591-2.801c0.343,0.246,1.178,0.847,0.331,3.909      c2.693-2.648,6.05-5.298,8.283-4.799c0.707,0.158,1.634,0.673,2.035,2.22c0.71,2.737-0.149,5.498-1.384,7.779      c1.427-0.704,2.801-1.06,3.743-0.576c0.596,0.304,1.277,1.015,1.138,2.677c-0.347,4.176-3.398,7.532-8.369,9.211      C303.091,247.399,300.986,247.729,299.055,247.729z M294.006,244.255c1.341,1.459,5.946,2.023,10.442,0.506      c2.441-0.824,6.594-2.884,6.972-7.424c0.043-0.532-0.054-0.695-0.055-0.697c-0.717-0.272-4.03,1.693-6.91,4.167      c-0.428,0.363-1.065,0.324-1.442-0.094c-0.375-0.418-0.347-1.059,0.063-1.444c0.063-0.06,6.251-5.941,4.907-11.123      c-0.169-0.652-0.409-0.705-0.487-0.722c-1.634-0.366-6.512,4.007-10.071,8.276c-0.333,0.4-0.911,0.492-1.353,0.207      c-0.438-0.281-0.598-0.845-0.372-1.316c1.195-2.493,2.138-5.155,2.274-6.33c-0.454,0.258-1.304,0.871-2.788,2.316      C288.388,237.202,293.65,243.824,294.006,244.255z"/>
			</g>
			<g>
				<path style="fill:#DEBC23;" d="M182.595,357.734c0,0,56.336-6.192,34.456-31.132      C189.391,295.072,182.595,357.734,182.595,357.734z"/>
				<path style="fill:#261D2A;" d="M198.584,348.791c-0.2,0-0.392-0.019-0.578-0.062c-0.706-0.158-1.633-0.672-2.035-2.22      c-0.709-2.737,0.15-5.498,1.385-7.779c-1.428,0.705-2.8,1.058-3.744,0.576c-0.596-0.304-1.277-1.015-1.138-2.677      c0.347-4.176,3.398-7.532,8.369-9.21c5.014-1.69,10.569-1.211,12.65,1.093c0.007,0.008,0.014,0.016,0.021,0.024      c0.071,0.084,6.973,8.437-1.303,16.503c-2.896,2.824-4.467,3.615-5.59,2.801c-0.343-0.246-1.179-0.846-0.332-3.91      C203.819,346.359,200.794,348.791,198.584,348.791z M202.171,333.081c0.283,0,0.565,0.116,0.77,0.343      c0.375,0.418,0.347,1.059-0.063,1.444c-0.063,0.06-6.251,5.94-4.908,11.122c0.169,0.652,0.409,0.705,0.487,0.723      c1.647,0.364,6.515-4.007,10.071-8.277c0.333-0.399,0.915-0.489,1.352-0.207c0.439,0.281,0.599,0.845,0.373,1.316      c-1.195,2.493-2.138,5.156-2.273,6.331c0.453-0.258,1.303-0.871,2.787-2.316c6.797-6.626,1.534-13.249,1.179-13.678      c-1.341-1.459-5.946-2.023-10.443-0.506c-2.441,0.824-6.594,2.884-6.972,7.424c-0.043,0.532,0.054,0.695,0.055,0.697      c0.719,0.266,4.033-1.693,6.911-4.166C201.694,333.164,201.933,333.081,202.171,333.081z"/>
			</g>
			<g>
				<path style="fill:#DEBC23;" d="M182.311,216.688c0,0,6.192,56.336,31.132,34.456      C244.973,223.483,182.311,216.688,182.311,216.688z"/>
				<path style="fill:#261D2A;" d="M203.732,250.371c-2.65,0-5.708-0.971-8.725-4.068c-2.825-2.898-3.61-4.466-2.801-5.591      c0.246-0.343,0.844-1.179,3.91-0.331c-2.648-2.694-5.3-6.048-4.799-8.283c0.158-0.707,0.672-1.634,2.22-2.035      c2.739-0.711,5.498,0.149,7.779,1.384c-0.705-1.428-1.058-2.798-0.576-3.743c0.303-0.596,1.025-1.289,2.677-1.138      c4.176,0.347,7.532,3.398,9.211,8.369c1.692,5.014,1.212,10.569-1.094,12.649c-0.008,0.007-0.016,0.014-0.024,0.021      C211.457,247.65,208.164,250.371,203.732,250.371z M194.169,242.073c0.258,0.453,0.871,1.304,2.316,2.788      c6.625,6.798,13.246,1.534,13.678,1.178c1.458-1.34,2.025-5.945,0.506-10.442c-0.824-2.441-2.884-6.594-7.424-6.972      c-0.528-0.043-0.695,0.054-0.697,0.055c-0.277,0.718,1.693,4.03,4.166,6.91c0.365,0.426,0.324,1.066-0.094,1.442      c-0.418,0.375-1.06,0.347-1.444-0.063c-0.06-0.064-5.937-6.255-11.122-4.907c-0.652,0.169-0.705,0.409-0.723,0.487      c-0.37,1.649,4.008,6.513,8.277,10.071c0.399,0.334,0.489,0.914,0.207,1.353c-0.281,0.438-0.846,0.599-1.316,0.372      C198.008,243.15,195.344,242.209,194.169,242.073z M210.84,246.82h0.02H210.84z"/>
			</g>
			<g>
				<path style="fill:#DEBC23;" d="M323.642,357.45c0,0-6.192-56.336-31.132-34.456C260.98,350.654,323.642,357.45,323.642,357.45z"/>
				<path style="fill:#261D2A;" d="M302.957,347.589c-0.133,0-0.273-0.005-0.421-0.018c-4.176-0.347-7.532-3.398-9.21-8.369      c-1.693-5.014-1.213-10.569,1.093-12.65c0.008-0.007,0.016-0.014,0.024-0.021c0.085-0.071,8.438-6.973,16.502,1.303      c2.825,2.897,3.61,4.465,2.801,5.59c-0.248,0.343-0.846,1.176-3.909,0.332c2.647,2.694,5.3,6.047,4.799,8.283      c-0.158,0.707-0.672,1.633-2.22,2.035c-2.736,0.713-5.499-0.15-7.779-1.385c0.705,1.428,1.058,2.799,0.576,3.744      C304.938,346.976,304.322,347.589,302.957,347.589z M295.792,328.097c-1.459,1.339-2.026,5.946-0.507,10.444      c0.824,2.441,2.884,6.594,7.424,6.972c0.528,0.044,0.696-0.054,0.697-0.055c0.277-0.718-1.693-4.031-4.167-6.911      c-0.365-0.426-0.324-1.066,0.094-1.442c0.418-0.374,1.06-0.35,1.444,0.063c0.059,0.063,5.939,6.242,11.123,4.908      c0.652-0.169,0.705-0.409,0.722-0.487c0.37-1.65-4.007-6.513-8.276-10.071c-0.4-0.334-0.489-0.914-0.207-1.353      c0.281-0.437,0.847-0.594,1.315-0.372c2.493,1.195,5.155,2.137,6.33,2.273c-0.258-0.453-0.871-1.304-2.316-2.787      C302.805,322.443,296.214,327.746,295.792,328.097z"/>
			</g>
			<path style="fill:#261D2A;" d="M385.029,279.764c-6.425-1.642-7.307-3.955-10.002-13.488     c-2.137-7.559-10.44-10.405-14.516-11.362c2.978-2.662,8.243-8.747,5.003-16.39c-1.076-2.536-1.193-4.868-0.349-6.93     c1.495-3.652,5.54-5.362,5.582-5.379c0.006-0.003,0.01-0.004,0.012-0.005c0.522-0.223,0.767-0.825,0.548-1.349     c-0.219-0.524-0.823-0.771-1.345-0.558c-0.006,0.003-0.015,0.007-0.029,0.012c-0.47,0.194-11.11,4.426-16.651-3.866     c-2.907-4.352-6.297-6.731-10.074-7.071c-2.037-0.185-3.905,0.254-5.488,0.91c1.572-3.021,2.689-7.261,0.887-12.151     c-5.564-10.873-2.677-15.521-2.656-15.554c0.239-0.344,0.246-0.797,0.02-1.148c-0.227-0.351-0.643-0.535-1.053-0.457     c-1.661,0.302-2.924,0.814-4.038,1.266c-3.302,1.344-4.959,2.012-12.886-6.92c-2.953-3.327-6.087-4.747-9.329-4.246     c-3.434,0.543-6.352,3.218-8.523,5.999c-0.017-0.157-0.038-0.316-0.064-0.475c-0.537-3.41-2.867-6.426-6.925-8.966     c-10.973-6.87-12.248-14.217-12.259-14.286c-0.076-0.512-0.569-0.871-1.037-0.882c-0.518,0.008-0.95,0.397-1.011,0.912     c-0.008,0.073-0.987,7.276-11.924,7.276c-0.068,0-0.137,0-0.206-0.001c-4.531,0.047-8.163,1.326-10.723,4.05     c-1.832,1.952-2.84,4.305-3.399,6.442c-0.664-1.496-1.633-3.019-3.068-4.233c-2.35-1.987-5.428-2.734-9.147-2.215     c-7.509,1.038-13.21,0.178-16.494-2.493c-1.43-1.163-2.144-2.445-2.497-3.39c-0.099-1.073-0.413-1.723-0.455-1.807     c-0.222-0.434-0.71-0.658-1.189-0.529c-0.471,0.127-0.79,0.566-0.763,1.054c0.003,0.062,0.047,0.743,0.376,1.719     c0.086,1.966-0.907,5.931-8.411,10.629c-3.891,2.435-5.997,5.282-6.262,8.462c-0.087,1.052,0.037,2.05,0.286,2.969     c-4.351-3.193-10.653-6.585-15.247-3.887c-10.924,6.407-11.87,6.369-15.204,2.101c-0.477-0.965-1.071-1.805-1.675-1.888     c-0.411-0.054-0.836,0.146-1.047,0.51c-0.388,0.67,0.038,1.283,0.767,2.227c0.069,0.089,0.136,0.176,0.203,0.26     c0.549,1.155,1.16,3.053,0.97,5.354c-0.326,3.957-2.816,7.694-7.4,11.11c-3.038,2.263-4.505,4.826-4.364,7.618     c0.089,1.759,0.82,3.395,1.808,4.827c-0.965-0.191-1.995-0.267-3.068-0.17c-3.777,0.34-7.167,2.719-10.074,7.071     c-5.532,8.279-15.887,4.184-16.637,3.871c-0.02-0.008-0.034-0.014-0.041-0.017c-0.522-0.213-1.126,0.034-1.345,0.558     c-0.219,0.524,0.026,1.126,0.548,1.349c0.002,0.001,0.006,0.002,0.012,0.005c0.041,0.017,4.086,1.727,5.581,5.379     c0.844,2.062,0.727,4.394-0.348,6.931c-3.24,7.642,2.025,13.727,5.003,16.389c-4.076,0.956-12.379,3.802-14.516,11.362     c-2.696,9.533-3.576,11.846-10.003,13.488c-0.495,0.126-0.823,0.597-0.772,1.106c0.052,0.509,0.469,0.903,0.981,0.927     c0.085,0.004,8.522,0.519,10.388,11.252c0.602,3.463,2.187,6.068,4.712,7.745c1.828,1.213,3.897,1.767,5.788,1.982     c-3.343,2.172-7.025,6.307-7.54,14.067l-0.07,1.061c-0.63,9.527-0.63,9.527-3.29,11.978c-0.821,0.756-1.843,1.697-3.171,3.107     c-0.312,0.331-0.371,0.826-0.145,1.221c0.226,0.395,0.686,0.603,1.126,0.494c0.097-0.021,9.565-2.073,13.239,6.202     c1.25,2.817,3.151,4.727,5.649,5.678c1.554,0.591,3.143,0.731,4.576,0.661c-0.664,0.766-1.277,1.696-1.731,2.814     c-1.394,3.43-0.89,7.578,1.5,12.33c2.268,4.509,4.189,7.513,5.592,9.707c2.716,4.246,3.361,5.255,1.775,8.924     c-0.172,0.396-0.078,0.857,0.235,1.156c0.313,0.299,0.778,0.371,1.166,0.182c0.512-0.25,12.659-5.995,21.349,3.541     c2.715,2.979,5.666,4.337,8.772,4.048c2.806-0.265,5.243-1.85,7.09-3.539c-1.54,5.406-2.81,13.579,1.57,18.29     c2.853,3.07,7.176,2.535,10.991,2.062c3.146-0.389,6.115-0.759,7.798,0.82c1.44,1.35,2.015,4.1,1.758,8.406     c-0.033,0.551,0.372,1.028,0.921,1.087c0.037,0.004,0.075,0.006,0.111,0.006c0.503,0,0.941-0.367,1.02-0.876     c0.006-0.036,0.616-3.74,3.768-5.468c2.719-1.491,6.554-1.172,11.396,0.947c5.496,2.406,9.845,2.482,12.924,0.229     c1.77-1.296,2.89-3.208,3.593-5.242c0.703,2.035,1.822,3.946,3.593,5.242c3.082,2.254,7.43,2.179,12.925-0.229     c4.841-2.12,8.678-2.438,11.395-0.947c3.152,1.728,3.762,5.432,3.768,5.468c0.079,0.508,0.517,0.876,1.02,0.876     c0.036,0,0.074-0.002,0.111-0.006c0.549-0.059,0.954-0.536,0.921-1.087c-0.256-4.307,0.319-7.057,1.758-8.406     c1.683-1.581,4.653-1.213,7.798-0.82c3.814,0.474,8.135,1.01,10.991-2.062c4.379-4.71,3.11-12.884,1.571-18.289     c1.847,1.688,4.284,3.273,7.089,3.538c3.103,0.286,6.057-1.07,8.772-4.048c8.69-9.536,20.837-3.79,21.35-3.542     c0.388,0.191,0.855,0.117,1.166-0.182c0.313-0.299,0.407-0.761,0.235-1.157c-1.587-3.668-0.942-4.677,1.773-8.923     c1.403-2.193,3.324-5.197,5.592-9.706c2.39-4.752,2.895-8.9,1.501-12.33c-0.454-1.118-1.067-2.048-1.731-2.814     c1.434,0.07,3.023-0.07,4.575-0.66c2.499-0.951,4.4-2.862,5.65-5.679c3.657-8.243,12.848-6.29,13.239-6.201     c0.442,0.102,0.9-0.101,1.125-0.496c0.225-0.394,0.166-0.889-0.145-1.22c-1.328-1.41-2.35-2.352-3.171-3.107     c-2.659-2.449-2.659-2.449-3.289-11.978l-0.07-1.061c-0.516-7.76-4.198-11.895-7.541-14.067c1.891-0.215,3.96-0.77,5.788-1.982     c2.525-1.677,4.11-4.281,4.712-7.745c1.855-10.672,10.045-11.234,10.393-11.252c0.509-0.027,0.925-0.423,0.975-0.93     C385.85,280.358,385.523,279.89,385.029,279.764z M372.397,292.696c-0.5,2.877-1.783,5.02-3.81,6.371     c-3.576,2.378-8.529,1.722-9.863,1.488c-0.268-0.059-0.423-0.082-0.436-0.084c-0.549-0.07-1.055,0.295-1.155,0.838     c-0.1,0.543,0.246,1.068,0.784,1.192c0.043,0.01,0.238,0.053,0.554,0.108c2.041,0.47,10.19,3.052,10.942,14.371l0.071,1.06     c0.658,9.963,0.683,10.352,3.951,13.361c0.326,0.301,0.685,0.632,1.083,1.011c-3.654-0.032-9.675,1.021-12.62,7.657     c-1.017,2.29-2.525,3.831-4.485,4.58c-3.178,1.216-6.74,0.073-7.846-0.345c-0.245-0.107-0.401-0.162-0.433-0.174     c-0.517-0.181-1.093,0.082-1.296,0.594c-0.205,0.512,0.03,1.096,0.533,1.324c0.032,0.014,0.174,0.078,0.41,0.168     c0.902,0.407,3.453,1.775,4.608,4.644c1.147,2.849,0.661,6.415-1.444,10.6c-2.219,4.414-4.107,7.365-5.486,9.521     c-2.319,3.626-3.511,5.489-2.695,8.688c-4.309-1.401-14.174-3.33-21.617,4.836c-2.253,2.472-4.636,3.605-7.045,3.384     c-5.184-0.484-9.208-6.916-9.248-6.982c-0.285-0.461-0.878-0.622-1.361-0.372c-0.48,0.253-0.683,0.835-0.463,1.333     c0.067,0.15,6.58,15.097,0.699,21.423c-2.136,2.299-5.578,1.869-9.224,1.418c-3.477-0.434-7.076-0.879-9.466,1.363     c-1.249,1.172-2.012,2.91-2.316,5.34c-0.688-0.913-1.607-1.799-2.83-2.475c-3.313-1.831-7.767-1.545-13.243,0.852     c-4.772,2.09-8.431,2.243-10.872,0.456c-2.642-1.932-3.519-5.799-3.777-8.879c0.199-2.533,0.008-4.51-0.012-4.699     c-0.004-0.035-0.023-0.062-0.03-0.096c-0.014-0.066-0.033-0.127-0.058-0.188c-0.028-0.067-0.059-0.128-0.099-0.186     c-0.032-0.047-0.067-0.088-0.107-0.129c-0.053-0.055-0.109-0.103-0.173-0.145c-0.047-0.031-0.095-0.055-0.147-0.078     c-0.069-0.031-0.138-0.052-0.214-0.067c-0.032-0.006-0.058-0.025-0.091-0.029c-0.04-0.005-0.077,0.01-0.117,0.009     c-0.034,0-0.064-0.013-0.099-0.009c-0.026,0.003-0.047,0.018-0.073,0.023c-0.086,0.015-0.165,0.04-0.244,0.076     c-0.045,0.021-0.087,0.041-0.128,0.068c-0.066,0.043-0.123,0.092-0.178,0.15c-0.041,0.042-0.077,0.084-0.11,0.132     c-0.039,0.057-0.069,0.117-0.097,0.181c-0.027,0.063-0.047,0.126-0.061,0.194c-0.007,0.033-0.026,0.06-0.03,0.094     c-0.02,0.188-0.21,2.166-0.012,4.699c-0.258,3.08-1.135,6.947-3.777,8.878c-2.443,1.787-6.101,1.634-10.872-0.456     c-5.476-2.399-9.932-2.684-13.244-0.852c-1.223,0.676-2.142,1.563-2.83,2.475c-0.305-2.429-1.067-4.167-2.316-5.34     c-2.389-2.243-5.987-1.797-9.466-1.363c-3.648,0.451-7.089,0.878-9.224-1.418c-5.879-6.325,0.634-21.273,0.7-21.423     c0.22-0.497,0.017-1.079-0.463-1.333c-0.48-0.25-1.076-0.089-1.361,0.372c-0.04,0.066-4.064,6.498-9.249,6.982     c-2.41,0.23-4.792-0.911-7.045-3.384c-7.443-8.167-17.306-6.233-21.616-4.836c0.815-3.199-0.376-5.062-2.696-8.688     c-1.378-2.156-3.267-5.108-5.486-9.521c-2.104-4.184-2.59-7.75-1.443-10.6c1.155-2.87,3.707-4.237,4.609-4.644     c0.234-0.091,0.376-0.154,0.409-0.168c0.502-0.228,0.737-0.811,0.533-1.324c-0.203-0.512-0.776-0.775-1.296-0.594     c-0.031,0.011-0.188,0.067-0.434,0.174c-1.105,0.418-4.665,1.563-7.846,0.345c-1.959-0.75-3.468-2.291-4.484-4.58     c-2.946-6.637-8.95-7.747-12.621-7.657c0.398-0.379,0.758-0.71,1.084-1.011c3.268-3.009,3.293-3.398,3.951-13.362l0.071-1.059     c0.747-11.264,8.644-13.85,10.849-14.355c0.37-0.063,0.598-0.113,0.646-0.124c0.538-0.124,0.884-0.65,0.784-1.192     c-0.099-0.544-0.6-0.906-1.155-0.838c-0.013,0.002-0.168,0.025-0.436,0.084c-1.34,0.234-6.288,0.89-9.863-1.488     c-2.028-1.351-3.31-3.494-3.81-6.371c-1.323-7.607-5.654-10.759-8.811-12.059c4.901-2.24,6.003-6.138,8.169-13.799     c2.429-8.592,14.927-10.289,15.052-10.305c0.428-0.056,0.777-0.37,0.875-0.79c0.099-0.421-0.075-0.857-0.435-1.097     c-0.399-0.265-9.756-6.606-6.063-15.315c1.301-3.07,1.419-5.943,0.35-8.539c-0.539-1.31-1.324-2.404-2.168-3.298     c4.232,0.471,10.044-0.179,13.863-5.898c2.54-3.801,5.409-5.874,8.528-6.16c2.29-0.207,4.372,0.575,5.95,1.466     c1.597,1.401,3.001,2.254,3.134,2.333c0.445,0.265,1.018,0.158,1.34-0.244c0.322-0.407,0.294-0.988-0.067-1.361     c-0.096-0.099-1.302-1.33-3.233-2.447c-1.832-1.637-3.842-4-3.972-6.566c-0.104-2.061,1.085-4.031,3.536-5.857     c7.631-5.686,8.607-11.444,8.175-15.125c3.318,2.246,6.718,0.445,15.02-4.426c4.936-2.896,13.794,4.008,17.326,7.395     c0.259,0.268,0.435,0.426,0.468,0.455c0.419,0.372,1.054,0.344,1.437-0.065c0.383-0.407,0.374-1.043-0.02-1.439     c-0.041-0.041-0.157-0.156-0.341-0.332c-0.839-0.866-3.162-3.564-2.893-6.719c0.212-2.491,1.994-4.802,5.297-6.87     c5.668-3.548,8.024-6.884,8.906-9.472c0.427,0.537,0.944,1.078,1.574,1.597c3.788,3.124,9.898,4.127,18.14,2.985     c3.114-0.429,5.641,0.155,7.522,1.739c3.295,2.778,3.713,7.828,3.755,8.549c0.001,0.018,0.001,0.02,0.002,0.035     c0.001,0.027,0.003,0.054,0.003,0.056c0,0.001,0.001,0.002,0.001,0.003c0.001,0.009,0.002,0.033,0.002,0.038     c0.005,0.073,0.036,0.135,0.054,0.203c0.015,0.053,0.019,0.111,0.042,0.159c0.156,0.348,0.491,0.576,0.899,0.582     c0.023,0.002,0.043,0.013,0.066,0.014c0.007,0,0.012-0.004,0.019-0.004c0.008-0.001,0.014,0.003,0.021,0.002     c0.064-0.005,0.118-0.034,0.178-0.049c0.067-0.017,0.137-0.025,0.198-0.055c0.058-0.028,0.103-0.073,0.154-0.111     c0.056-0.041,0.115-0.075,0.162-0.126c0.04-0.044,0.063-0.1,0.095-0.15c0.039-0.062,0.083-0.119,0.109-0.188     c0.02-0.055,0.02-0.117,0.03-0.176c0.012-0.069,0.037-0.133,0.035-0.205c-0.001-0.021-0.004-0.089-0.009-0.178     c-0.036-0.936-0.114-6.925,3.508-10.774c2.117-2.251,5.153-3.391,9.025-3.391c0.128,0.001,0.259,0.003,0.389,0.002     c7.933,0,11.401-3.488,12.891-6.145c1.373,3.055,4.636,8.046,12.244,12.81c3.519,2.203,5.529,4.731,5.976,7.516     c0.221,1.379,0.027,2.665-0.311,3.744c-1.08,1.826-1.703,3.224-1.773,3.387c-0.206,0.471-0.035,1.021,0.401,1.292     c0.438,0.271,1.005,0.182,1.336-0.213c0.078-0.093,1.217-1.472,1.933-3.596c1.944-3.242,5.329-7.762,9.369-8.397     c2.493-0.39,5.002,0.809,7.458,3.577c8.499,9.575,11.056,9.143,15.208,7.462c0.567-0.23,1.144-0.464,1.777-0.673     c-0.616,2.565-0.764,7.576,3.285,15.477c2.666,7.252-2.155,12.802-3.596,14.249c-0.258,0.233-0.41,0.387-0.441,0.42     c-0.385,0.398-0.387,1.03-0.006,1.43c0.382,0.403,1.013,0.431,1.43,0.065c0.009-0.007,0.115-0.103,0.293-0.278     c0.92-0.844,4.45-3.786,8.642-3.411c3.118,0.286,5.987,2.359,8.528,6.16c3.821,5.719,9.637,6.369,13.864,5.898     c-0.844,0.894-1.629,1.988-2.169,3.298c-1.068,2.596-0.95,5.468,0.351,8.538c3.693,8.71-5.664,15.051-6.063,15.316     c-0.36,0.239-0.534,0.677-0.436,1.097c0.099,0.421,0.448,0.735,0.876,0.79c0.126,0.016,12.616,1.694,15.052,10.306     c2.166,7.66,3.268,11.559,8.169,13.798C378.052,281.937,373.719,285.09,372.397,292.696z"/>
		</g>
		<g>
			<path style="fill:#D37E3A;" d="M441.027,143.904l-3.105,267.448c0,0,27.709-0.015,32.673,23.342c0,0,17.079-9.006,21.722,22.72     H349.644c0,0-0.513-22.72,25.167-22.72c0,0-1.576-20.93,26.317-23.372V146.266L441.027,143.904z"/>
			<path style="fill:#261D2A;" d="M408.6,405.652c-4.258,0-7.38-0.64-7.687-0.705c-0.558-0.119-0.914-0.668-0.795-1.226     c0.118-0.559,0.668-0.91,1.225-0.796c0.176,0.039,17.597,3.584,26.563-6.715c7.517-8.632,7.235-24.336-0.835-46.674     c-14.012-38.78-9.924-65.286-4.027-80.692c6.425-16.789,16.085-24.246,16.493-24.555c0.451-0.343,1.102-0.255,1.446,0.199     c0.345,0.454,0.256,1.102-0.198,1.447c-0.383,0.293-38.086,30.063-11.771,102.899c8.347,23.104,8.496,39.503,0.444,48.741     C423.632,404.259,414.881,405.652,408.6,405.652z"/>
			<path style="fill:#261D2A;" d="M401.129,275.724c-0.372,0-0.731-0.202-0.916-0.554c-0.265-0.505-0.07-1.13,0.436-1.394     c34.018-17.82,27.192-123.404,27.118-124.468c-0.038-0.569,0.391-1.062,0.96-1.102c0.6-0.008,1.062,0.392,1.102,0.96     c0.018,0.268,1.812,27.192-0.706,56.01c-3.405,38.954-12.663,62.65-27.516,70.43C401.454,275.687,401.29,275.724,401.129,275.724     z"/>
			<path style="fill:#261D2A;" d="M401.129,245.519c-0.376,0-0.738-0.206-0.921-0.564c-0.259-0.508-0.058-1.131,0.451-1.389     c26.117-13.31,12.894-96.297,12.757-97.133c-0.092-0.563,0.291-1.094,0.853-1.186c0.563-0.084,1.095,0.292,1.186,0.853     c0.568,3.477,13.594,85.316-13.858,99.306C401.447,245.482,401.286,245.519,401.129,245.519z"/>
			<path style="fill:#261D2A;" d="M408.419,391.184c-4.017,0-7.311-0.919-7.576-0.996c-0.549-0.157-0.866-0.728-0.708-1.277     c0.156-0.547,0.732-0.866,1.277-0.708c0.117,0.032,11.782,3.274,17.271-2.789c4.45-4.916,3.878-14.546-1.701-28.623     c-16.695-42.127-16.888-65.507-16.888-65.738c0-0.57,0.462-1.032,1.032-1.033c0.001,0,0.001,0,0.001,0     c0.57,0,1.032,0.462,1.033,1.032c0,0.228,0.214,23.269,16.742,64.978c5.895,14.875,6.334,25.23,1.306,30.776     C417.052,390.289,412.384,391.184,408.419,391.184z"/>
			<path style="fill:#261D2A;" d="M438.684,346.779c-0.424,0-0.821-0.262-0.973-0.685c-17.333-48.375,0.239-69.423,0.996-70.296     c0.375-0.431,1.025-0.477,1.456-0.104c0.431,0.372,0.478,1.024,0.107,1.456c-0.177,0.206-17.5,21.119-0.613,68.248     c0.193,0.537-0.087,1.128-0.624,1.321C438.917,346.76,438.8,346.779,438.684,346.779z"/>
			<path style="fill:#261D2A;" d="M401.13,380.687c-0.341,0-0.675-0.169-0.872-0.478c-0.307-0.48-0.165-1.118,0.314-1.425     c0.642-0.412,15.524-10.383-0.324-36.087c-0.299-0.485-0.148-1.122,0.338-1.421c0.484-0.301,1.122-0.148,1.421,0.338     c8.799,14.271,8.299,24.049,6.33,29.739c-2.171,6.274-6.475,9.058-6.657,9.174C401.509,380.635,401.318,380.687,401.13,380.687z"/>
			<path style="fill:#261D2A;" d="M470.595,435.727h-95.784c-0.571,0-1.033-0.462-1.033-1.033c0-0.571,0.462-1.033,1.033-1.033     h95.784c0.571,0,1.033,0.462,1.033,1.033C471.628,435.265,471.166,435.727,470.595,435.727z"/>
			<path style="fill:#261D2A;" d="M437.922,412.385h-0.001l-36.795-0.029c-0.57,0-1.032-0.463-1.032-1.034     c0-0.57,0.463-1.032,1.033-1.032c0,0,0,0,0.001,0l36.795,0.029c0.57,0,1.032,0.463,1.032,1.034     C438.956,411.923,438.492,412.385,437.922,412.385z"/>
		</g>
		<g>
			<path style="fill:#D37E3A;" d="M72.123,143.904l3.105,267.448c0,0-27.709-0.015-32.673,23.342c0,0-17.079-9.006-21.722,22.72     h142.673c0,0,0.513-22.72-25.167-22.72c0,0,1.576-20.93-26.317-23.372V146.266L72.123,143.904z"/>
			<path style="fill:#261D2A;" d="M104.549,405.652c-6.281,0-15.03-1.392-20.856-8.076c-8.052-9.239-7.903-25.638,0.444-48.742     c13.764-38.099,9.823-64.053,4.092-79.116c-6.198-16.292-15.767-23.709-15.863-23.783c-0.454-0.345-0.543-0.993-0.198-1.447     c0.344-0.454,0.995-0.542,1.446-0.199c0.396,0.301,39.327,30.897,12.466,105.246c-8.074,22.345-8.352,38.052-0.829,46.682     c8.984,10.308,26.382,6.746,26.556,6.707c0.557-0.116,1.106,0.236,1.226,0.796c0.118,0.558-0.238,1.107-0.796,1.226     C111.929,405.011,108.807,405.652,104.549,405.652z"/>
			<path style="fill:#261D2A;" d="M112.021,275.724c-0.161,0-0.325-0.037-0.478-0.118c-14.853-7.78-24.11-31.476-27.515-70.43     c-2.519-28.818-0.725-55.741-0.707-56.01c0.038-0.568,0.523-0.975,1.102-0.96c0.569,0.039,0.999,0.533,0.96,1.102     c-0.074,1.064-6.899,106.649,27.118,124.468c0.505,0.264,0.701,0.889,0.436,1.394     C112.752,275.522,112.393,275.724,112.021,275.724z"/>
			<path style="fill:#261D2A;" d="M112.021,245.519c-0.157,0-0.318-0.036-0.468-0.113c-11.613-5.918-17.459-24.493-17.378-55.211     c0.061-22.649,3.486-43.884,3.521-44.096c0.091-0.564,0.615-0.945,1.186-0.853c0.563,0.093,0.945,0.623,0.853,1.186     c-0.137,0.836-13.361,83.823,12.756,97.133c0.508,0.258,0.71,0.881,0.451,1.389C112.759,245.313,112.397,245.519,112.021,245.519     z"/>
			<path style="fill:#261D2A;" d="M104.73,391.184c-3.965,0-8.632-0.895-11.79-4.378c-5.028-5.547-4.588-15.901,1.306-30.776     c16.529-41.709,16.742-64.75,16.742-64.978c0.001-0.57,0.463-1.032,1.033-1.032c0,0,0,0,0.001,0     c0.57,0.001,1.032,0.463,1.032,1.033c0,0.231-0.193,23.61-16.888,65.738c-5.579,14.077-6.151,23.707-1.701,28.623     c5.49,6.063,17.155,2.824,17.271,2.789c0.549-0.156,1.122,0.16,1.277,0.708c0.157,0.549-0.159,1.12-0.708,1.277     C112.041,390.265,108.746,391.184,104.73,391.184z"/>
			<path style="fill:#261D2A;" d="M74.466,346.779c-0.116,0-0.233-0.019-0.348-0.061c-0.538-0.193-0.817-0.784-0.624-1.321     c8.834-24.656,8.19-41.909,6.093-52.042c-2.265-10.945-6.662-16.154-6.707-16.206c-0.371-0.432-0.324-1.083,0.107-1.456     c0.432-0.372,1.08-0.325,1.456,0.104c0.757,0.873,18.328,21.921,0.996,70.296C75.288,346.517,74.89,346.779,74.466,346.779z"/>
			<path style="fill:#261D2A;" d="M112.02,380.687c-0.189,0-0.379-0.051-0.551-0.16c-0.176-0.111-17.288-11.404-0.327-38.913     c0.3-0.486,0.935-0.639,1.421-0.338c0.486,0.3,0.637,0.936,0.338,1.421c-15.848,25.704-0.965,35.675-0.324,36.087     c0.479,0.308,0.62,0.945,0.314,1.425C112.695,380.517,112.361,380.687,112.02,380.687z"/>
			<path style="fill:#261D2A;" d="M138.339,435.727H42.555c-0.571,0-1.033-0.462-1.033-1.033c0-0.571,0.462-1.033,1.033-1.033     h95.784c0.571,0,1.033,0.462,1.033,1.033C139.372,435.265,138.91,435.727,138.339,435.727z"/>
			<path style="fill:#261D2A;" d="M75.228,412.385c-0.57,0-1.033-0.462-1.033-1.032c0-0.571,0.462-1.034,1.032-1.034l36.794-0.029     h0.001c0.57,0,1.033,0.462,1.033,1.032c0,0.571-0.462,1.034-1.032,1.034l-36.794,0.029H75.228z"/>
		</g>
		<path style="fill:#403955;" d="M73.722,146.266h367.305l24.604-31.772c-6.595-0.746-415.482,0.251-415.482,0.251    C45.445,118.181,73.722,146.266,73.722,146.266z"/>
		<g>
			<path style="fill:#FCFDFF;" d="M422.8,123.222c-0.271,0-0.542-0.106-0.745-0.317c-0.127-0.131-2.867-2.842-7.07-0.454     c-0.499,0.281-1.127,0.107-1.409-0.389c-0.281-0.495-0.107-1.126,0.389-1.408c4.515-2.562,8.244-0.584,9.583,0.823     c0.393,0.414,0.377,1.067-0.036,1.461C423.313,123.128,423.056,123.222,422.8,123.222z"/>
			<path style="fill:#FCFDFF;" d="M416.125,130.478c-0.271,0-0.542-0.106-0.745-0.317c-0.126-0.129-2.861-2.841-7.071-0.454     c-0.495,0.28-1.126,0.107-1.408-0.389c-0.281-0.496-0.107-1.127,0.389-1.408c4.52-2.563,8.245-0.582,9.583,0.823     c0.393,0.414,0.377,1.067-0.036,1.461C416.637,130.383,416.381,130.478,416.125,130.478z"/>
			<path style="fill:#FCFDFF;" d="M407.723,122.188c-0.271,0-0.543-0.107-0.746-0.318c-0.138-0.141-2.874-2.833-7.069-0.453     c-0.499,0.281-1.128,0.107-1.409-0.389c-0.281-0.495-0.107-1.126,0.389-1.408c4.517-2.563,8.243-0.585,9.583,0.823     c0.393,0.414,0.377,1.067-0.036,1.461C408.236,122.094,407.98,122.188,407.723,122.188z"/>
			<path style="fill:#FCFDFF;" d="M399.481,128.931c-0.271,0-0.543-0.107-0.746-0.318c-0.138-0.141-2.874-2.834-7.069-0.453     c-0.499,0.278-1.128,0.107-1.409-0.389c-0.281-0.495-0.107-1.126,0.389-1.408c4.513-2.561,8.244-0.584,9.583,0.823     c0.393,0.414,0.377,1.067-0.036,1.461C399.994,128.837,399.738,128.931,399.481,128.931z"/>
			<path style="fill:#FCFDFF;" d="M407.889,136.947c-0.271,0-0.542-0.106-0.745-0.317c-0.126-0.129-2.862-2.844-7.071-0.454     c-0.495,0.28-1.127,0.107-1.408-0.389c-0.281-0.496-0.107-1.127,0.389-1.408c4.516-2.565,8.244-0.582,9.583,0.823     c0.393,0.414,0.377,1.067-0.036,1.461C408.401,136.853,408.145,136.947,407.889,136.947z"/>
			<path style="fill:#FCFDFF;" d="M390.607,121.746c-0.271,0-0.542-0.106-0.745-0.317c-0.128-0.131-2.867-2.842-7.07-0.454     c-0.499,0.281-1.128,0.107-1.409-0.389c-0.281-0.495-0.107-1.126,0.389-1.408c4.516-2.562,8.243-0.584,9.583,0.823     c0.393,0.414,0.377,1.067-0.036,1.461C391.119,121.651,390.863,121.746,390.607,121.746z"/>
			<path style="fill:#FCFDFF;" d="M376.857,129.856c-0.268,0-0.537-0.104-0.738-0.311c-0.399-0.409-0.391-1.062,0.016-1.461     c3.873-3.787,7.928-2.988,9.53-2.038c0.491,0.291,0.653,0.925,0.362,1.415c-0.291,0.488-0.919,0.65-1.41,0.365     c-0.157-0.089-3.381-1.84-7.038,1.734C377.378,129.759,377.117,129.856,376.857,129.856z"/>
		</g>
		<g>
			<path style="fill:#FCFDFF;" d="M134.994,123.222c-0.271,0-0.542-0.106-0.745-0.317c-0.127-0.13-2.867-2.841-7.071-0.454     c-0.495,0.281-1.127,0.107-1.408-0.389c-0.281-0.495-0.107-1.126,0.389-1.408c4.519-2.567,8.244-0.584,9.583,0.823     c0.393,0.414,0.377,1.067-0.036,1.461C135.506,123.128,135.25,123.222,134.994,123.222z"/>
			<path style="fill:#FCFDFF;" d="M128.319,130.478c-0.271,0-0.542-0.106-0.745-0.317c-0.126-0.129-2.864-2.841-7.071-0.454     c-0.496,0.28-1.128,0.107-1.408-0.389c-0.281-0.496-0.107-1.127,0.389-1.408c4.518-2.567,8.245-0.583,9.583,0.823     c0.393,0.414,0.377,1.067-0.036,1.461C128.832,130.383,128.575,130.478,128.319,130.478z"/>
			<path style="fill:#FCFDFF;" d="M119.917,122.188c-0.271,0-0.542-0.106-0.745-0.317c-0.128-0.131-2.869-2.84-7.071-0.454     c-0.495,0.281-1.127,0.107-1.408-0.389c-0.281-0.495-0.107-1.126,0.389-1.408c4.52-2.566,8.244-0.585,9.583,0.823     c0.393,0.414,0.377,1.067-0.036,1.461C120.429,122.094,120.173,122.188,119.917,122.188z"/>
			<path style="fill:#FCFDFF;" d="M111.675,128.931c-0.271,0-0.542-0.106-0.745-0.317c-0.127-0.131-2.869-2.839-7.071-0.454     c-0.495,0.278-1.127,0.107-1.408-0.389c-0.281-0.495-0.107-1.126,0.389-1.408c4.52-2.567,8.244-0.584,9.583,0.823     c0.393,0.414,0.377,1.067-0.036,1.461C112.187,128.837,111.931,128.931,111.675,128.931z"/>
			<path style="fill:#FCFDFF;" d="M120.082,136.947c-0.271,0-0.542-0.106-0.745-0.317c-0.126-0.129-2.863-2.844-7.071-0.454     c-0.495,0.28-1.127,0.107-1.408-0.389c-0.281-0.496-0.107-1.127,0.389-1.408c4.521-2.565,8.244-0.581,9.583,0.823     c0.393,0.414,0.377,1.067-0.036,1.461C120.595,136.853,120.338,136.947,120.082,136.947z"/>
			<path style="fill:#FCFDFF;" d="M102.801,121.746c-0.271,0-0.542-0.106-0.745-0.317c-0.127-0.131-2.866-2.842-7.07-0.454     c-0.497,0.281-1.127,0.107-1.409-0.389c-0.281-0.495-0.107-1.126,0.389-1.408c4.515-2.562,8.245-0.584,9.583,0.823     c0.393,0.414,0.377,1.067-0.036,1.461C103.314,121.651,103.057,121.746,102.801,121.746z"/>
			<path style="fill:#FCFDFF;" d="M89.05,129.856c-0.268,0-0.537-0.104-0.738-0.311c-0.399-0.409-0.391-1.062,0.016-1.461     c3.872-3.786,7.928-2.989,9.531-2.038c0.491,0.291,0.653,0.925,0.362,1.415c-0.291,0.488-0.919,0.65-1.41,0.365     c-0.157-0.089-3.382-1.84-7.039,1.734C89.571,129.759,89.31,129.856,89.05,129.856z"/>
		</g>
		<path style="fill:none;" d="M105.721,92.419c-0.553,0-1.011-0.438-1.031-0.995c-0.37-9.901-9.466-13.514-9.852-13.663    c-0.532-0.205-0.798-0.802-0.594-1.334c0.203-0.534,0.796-0.802,1.332-0.596c0.107,0.041,10.757,4.229,11.179,15.517    c0.021,0.57-0.424,1.049-0.994,1.07C105.747,92.419,105.734,92.419,105.721,92.419z"/>
		<path style="fill:none;" d="M424.641,93.704c-0.024,0-0.049-0.001-0.075-0.003c-0.569-0.04-0.998-0.535-0.956-1.104    c0.781-10.94-9.046-14.397-9.465-14.539c-0.54-0.183-0.83-0.768-0.649-1.307c0.181-0.542,0.767-0.835,1.306-0.651    c0.118,0.039,11.765,4.085,10.867,16.645C425.632,93.289,425.178,93.704,424.641,93.704z"/>
		<path style="fill:#FCFDFF;" d="M287.76,266.346c-0.511,0-0.955-0.379-1.023-0.9c-2.368-18.196-25.78-19.914-26.017-19.929    c-0.569-0.036-1.002-0.528-0.965-1.097s0.517-0.984,1.097-0.965c0.253,0.016,25.346,1.834,27.933,21.725    c0.074,0.566-0.325,1.083-0.891,1.157C287.849,266.343,287.805,266.346,287.76,266.346z"/>
		<path style="fill:#FCFDFF;" d="M293.355,284.772c-0.025,0-0.051-0.001-0.077-0.003c-0.569-0.041-0.997-0.537-0.954-1.106    c0.193-2.623-1.818-9.435-2.61-11.837c-0.178-0.542,0.117-1.126,0.659-1.304c0.541-0.178,1.127,0.116,1.304,0.659    c0.121,0.368,2.969,9.069,2.707,12.634C294.345,284.358,293.891,284.772,293.355,284.772z"/>
		<path style="fill:#FCFDFF;" d="M303.221,210.783c-0.438,0-0.844-0.28-0.985-0.72c-5.429-17.094-31.975-13.703-32.239-13.663    c-0.569,0.066-1.087-0.319-1.162-0.885c-0.078-0.565,0.318-1.085,0.884-1.163c0.288-0.037,7.15-0.948,14.837,0.392    c10.376,1.806,17.17,6.886,19.65,14.693c0.172,0.544-0.128,1.125-0.672,1.297C303.429,210.768,303.324,210.783,303.221,210.783z"/>
		<path style="fill:#FCFDFF;" d="M342.996,272.536c-0.545,0-1-0.426-1.03-0.976c-0.825-14.897-13.868-34.383-14-34.577    c-0.319-0.473-0.195-1.115,0.278-1.435c0.475-0.319,1.116-0.195,1.435,0.278c0.551,0.816,13.494,20.158,14.349,35.618    c0.032,0.57-0.405,1.057-0.974,1.089C343.035,272.536,343.016,272.536,342.996,272.536z"/>
		<path style="fill:#FCFDFF;" d="M331.697,341.628c-0.32,0-0.636-0.148-0.837-0.427c-0.335-0.462-0.232-1.108,0.23-1.443    c12.453-9.027,10.895-31.617,10.878-31.844c-0.043-0.569,0.383-1.065,0.951-1.109c0.589-0.049,1.065,0.383,1.109,0.951    c0.075,0.975,1.667,23.968-11.726,33.674C332.118,341.565,331.906,341.628,331.697,341.628z"/>
		<path style="fill:#FCFDFF;" d="M270.77,380.687c-0.531,0-0.983-0.407-1.028-0.945c-0.049-0.568,0.372-1.068,0.941-1.117    c20.569-1.762,36.07-16.391,36.225-16.539c0.41-0.394,1.064-0.381,1.46,0.031c0.394,0.412,0.381,1.065-0.03,1.46    c-0.651,0.623-16.163,15.28-37.479,17.106C270.829,380.686,270.799,380.687,270.77,380.687z"/>
		<path style="fill:#FCFDFF;" d="M239.527,383.708c-0.018,0-0.035,0-0.052-0.001c-22.621-1.138-44.751-19.308-45.682-20.081    c-0.439-0.364-0.499-1.016-0.135-1.455c0.365-0.438,1.016-0.5,1.455-0.135c0.223,0.185,22.541,18.504,44.466,19.606    c0.57,0.029,1.009,0.514,0.981,1.083C240.529,383.279,240.073,383.708,239.527,383.708z"/>
		<path style="fill:#FCFDFF;" d="M176.592,341.628c-0.243,0-0.487-0.085-0.683-0.258c-13.522-11.922-13.446-39.55-13.435-40.72    c0.005-0.567,0.466-1.024,1.033-1.024c0.003,0,0.006,0,0.008,0c0.571,0.005,1.03,0.471,1.025,1.041    c-0.002,0.277-0.077,27.857,12.735,39.153c0.428,0.377,0.469,1.03,0.092,1.458C177.163,341.51,176.878,341.628,176.592,341.628z"/>
		<path style="fill:#FCFDFF;" d="M164.97,274.389c-0.571,0-1.033-0.462-1.033-1.033c0-17.29,13.362-36.601,13.931-37.415    c0.327-0.468,0.968-0.582,1.439-0.254c0.467,0.327,0.581,0.97,0.254,1.439c-0.135,0.194-13.558,19.597-13.558,36.231    C166.003,273.927,165.541,274.389,164.97,274.389z"/>
		<path style="fill:#FCFDFF;" d="M198.987,214.752c-0.244,0-0.489-0.086-0.686-0.261c-0.427-0.378-0.465-1.031-0.086-1.458    c20.495-23.063,41.434-16.235,41.645-16.166c0.539,0.185,0.826,0.771,0.643,1.31c-0.184,0.54-0.768,0.828-1.31,0.645    c-0.049-0.015-5.005-1.65-12.303-0.556c-6.735,1.014-16.909,4.637-27.131,16.139C199.555,214.635,199.272,214.752,198.987,214.752    z"/>
		<path style="fill:#FCFDFF;" d="M132.463,429.522c-0.415,0-0.805-0.251-0.963-0.661c-4.239-10.966-30.007-11.774-30.267-11.78    c-0.57-0.015-1.021-0.49-1.006-1.06c0.015-0.571,0.573-0.979,1.06-1.006c1.117,0.03,27.41,0.866,32.139,13.102    c0.206,0.532-0.059,1.13-0.591,1.336C132.714,429.5,132.588,429.522,132.463,429.522z"/>
		<path style="fill:#FCFDFF;" d="M463.951,429.538c-0.32,0-0.636-0.148-0.837-0.427c-7.56-10.439-27.65-12.018-27.852-12.033    c-0.569-0.041-0.997-0.536-0.955-1.105c0.041-0.569,0.551-0.99,1.105-0.955c0.864,0.063,21.249,1.659,29.375,12.881    c0.335,0.462,0.232,1.109-0.23,1.443C464.373,429.474,464.161,429.538,463.951,429.538z"/>
	</g>
	<path style="fill:none;" d="M256.552,507.131c-0.692,0-1.335-0.02-2.02-0.064c-0.569-0.036-1.002-0.528-0.965-1.097   s0.54-1.007,1.097-0.965c0.641,0.041,1.249,0.03,1.887,0.06c0.714,0,1.411-0.028,2.093-0.082c0.56-0.033,1.066,0.38,1.111,0.949   c0.044,0.569-0.38,1.066-0.949,1.111C258.071,507.101,257.319,507.131,256.552,507.131z M250.501,506.555   c-0.063,0-0.126-0.006-0.19-0.017l-0.591-0.116c-1.205-0.243-2.392-0.538-3.527-0.873c-0.548-0.161-0.86-0.736-0.698-1.283   c0.162-0.548,0.736-0.864,1.283-0.698c1.077,0.318,2.206,0.597,3.354,0.829l0.556,0.109c0.561,0.105,0.931,0.644,0.827,1.205   C251.423,506.208,250.989,506.555,250.501,506.555z M262.796,506.403c-0.465,0-0.888-0.317-1.003-0.789   c-0.135-0.555,0.205-1.113,0.76-1.248c1.29-0.314,2.55-0.735,3.743-1.253c0.526-0.229,1.133,0.012,1.359,0.536   c0.227,0.524-0.013,1.132-0.536,1.359c-1.301,0.565-2.672,1.024-4.078,1.366C262.96,506.394,262.877,506.403,262.796,506.403z    M299.816,506.123c-0.927,0-1.869-0.032-2.827-0.097c-0.315-0.022-0.626-0.047-0.935-0.076c-0.568-0.053-0.985-0.558-0.932-1.126   c0.053-0.567,0.54-0.987,1.126-0.932c0.293,0.028,0.586,0.051,0.884,0.072c0.908,0.063,1.804,0.093,2.684,0.093l0.448-0.003   c0.493-0.045,1.039,0.45,1.046,1.02s-0.449,1.038-1.02,1.046L299.816,506.123z M304.395,505.849c-0.516,0-0.961-0.385-1.025-0.91   c-0.068-0.566,0.336-1.08,0.903-1.149c1.333-0.16,2.66-0.396,3.948-0.703c0.55-0.131,1.113,0.211,1.244,0.766   c0.132,0.555-0.211,1.112-0.766,1.244c-1.363,0.325-2.768,0.575-4.18,0.746C304.478,505.847,304.436,505.849,304.395,505.849z    M292.071,505.334c-0.072,0-0.143-0.007-0.216-0.022c-1.392-0.298-2.772-0.682-4.1-1.145c-0.539-0.188-0.823-0.777-0.636-1.315   c0.188-0.539,0.776-0.824,1.316-0.636c1.247,0.435,2.542,0.796,3.85,1.074c0.559,0.119,0.914,0.668,0.796,1.226   C292.977,505.002,292.548,505.334,292.071,505.334z M242.603,504.19c-0.136,0-0.275-0.027-0.409-0.085   c-1.336-0.577-2.612-1.237-3.795-1.959c-0.487-0.298-0.641-0.934-0.343-1.42c0.298-0.487,0.932-0.642,1.42-0.343   c1.101,0.673,2.291,1.287,3.537,1.826c0.524,0.226,0.765,0.834,0.539,1.358C243.383,503.957,243.003,504.19,242.603,504.19z    M312.413,503.938c-0.422,0-0.817-0.259-0.97-0.678c-0.196-0.536,0.08-1.129,0.615-1.326c1.254-0.458,2.491-0.995,3.677-1.594   c0.509-0.26,1.131-0.052,1.388,0.456c0.257,0.509,0.052,1.131-0.456,1.388c-1.258,0.636-2.57,1.205-3.899,1.691   C312.651,503.917,312.531,503.938,312.413,503.938z M270.333,503.126c-0.335,0-0.663-0.162-0.862-0.462   c-0.316-0.475-0.186-1.117,0.29-1.432c1.087-0.721,2.129-1.548,3.095-2.455c0.415-0.389,1.07-0.371,1.46,0.045   c0.39,0.416,0.37,1.069-0.045,1.46c-1.05,0.988-2.183,1.887-3.367,2.671C270.727,503.071,270.529,503.126,270.333,503.126z    M284.292,502.619c-0.155,0-0.314-0.035-0.462-0.11c-1.269-0.636-2.507-1.361-3.678-2.154c-0.472-0.32-0.596-0.962-0.276-1.435   c0.321-0.473,0.965-0.593,1.435-0.276c1.098,0.743,2.257,1.422,3.446,2.019c0.509,0.255,0.716,0.876,0.46,1.386   C285.036,502.41,284.67,502.619,284.292,502.619z M350.788,501.636c-1.239,0-2.539-0.083-3.864-0.245   c-0.566-0.069-0.968-0.584-0.899-1.151c0.069-0.566,0.565-0.985,1.151-0.899c1.241,0.151,2.456,0.229,3.612,0.229l0.369-0.003   c0.482,0.014,1.04,0.446,1.049,1.017c0.009,0.57-0.446,1.04-1.017,1.049L350.788,501.636z M355.269,501.227   c-0.485,0-0.918-0.344-1.014-0.838c-0.107-0.56,0.259-1.102,0.82-1.21c1.312-0.252,2.563-0.634,3.72-1.135   c0.525-0.228,1.132,0.015,1.359,0.538c0.226,0.524-0.014,1.132-0.538,1.359c-1.293,0.56-2.691,0.987-4.151,1.268   C355.399,501.221,355.333,501.227,355.269,501.227z M342.983,500.678c-0.078,0-0.155-0.008-0.234-0.026l-0.754-0.181   c-1.153-0.284-2.256-0.593-3.308-0.924c-0.545-0.172-0.846-0.752-0.676-1.295c0.172-0.544,0.757-0.846,1.295-0.676   c1.014,0.319,2.074,0.615,3.184,0.89l0.724,0.173c0.556,0.129,0.902,0.684,0.774,1.24   C343.878,500.355,343.453,500.678,342.983,500.678z M319.772,500.22c-0.335,0-0.663-0.162-0.862-0.461   c-0.316-0.475-0.187-1.117,0.289-1.433c1.117-0.741,2.195-1.552,3.206-2.409c0.436-0.37,1.087-0.314,1.456,0.12   c0.369,0.435,0.316,1.087-0.12,1.456c-1.071,0.909-2.215,1.768-3.398,2.554C320.167,500.165,319.969,500.22,319.772,500.22z    M235.594,499.883c-0.237,0-0.475-0.081-0.67-0.246c-1.095-0.932-2.113-1.958-3.029-3.048c-0.367-0.437-0.311-1.089,0.126-1.456   c0.44-0.366,1.092-0.309,1.456,0.126c0.842,1.003,1.78,1.946,2.787,2.804c0.434,0.37,0.486,1.022,0.117,1.457   C236.176,499.76,235.886,499.883,235.594,499.883z M335.113,498.193c-0.132,0-0.266-0.025-0.395-0.079   c-1.346-0.557-2.634-1.17-3.827-1.824c-0.5-0.273-0.685-0.901-0.411-1.401c0.273-0.5,0.902-0.687,1.401-0.411   c1.129,0.616,2.35,1.198,3.628,1.727c0.527,0.218,0.777,0.822,0.559,1.35C335.903,497.953,335.518,498.193,335.113,498.193z    M277.469,498.004c-0.244,0-0.488-0.086-0.685-0.259c-0.095-0.085-0.19-0.169-0.284-0.255c-0.276,0.041-0.561-0.019-0.796-0.202   c-0.297-0.229-0.435-0.586-0.396-0.933c-0.527-0.527-1.037-1.072-1.527-1.632c-0.375-0.429-0.332-1.081,0.098-1.458   c0.428-0.377,1.079-0.334,1.458,0.098c0.357,0.409,0.726,0.809,1.106,1.199c0.448-0.66,0.87-1.343,1.261-2.044   c0.277-0.499,0.907-0.678,1.405-0.398c0.498,0.277,0.677,0.907,0.398,1.405c-0.478,0.858-1,1.691-1.557,2.49   c0.068,0.062,0.136,0.122,0.205,0.183c0.427,0.378,0.467,1.031,0.089,1.459C278.039,497.886,277.755,498.004,277.469,498.004z    M362.758,497.949c-0.312,0-0.619-0.14-0.822-0.407c-0.346-0.454-0.259-1.102,0.195-1.448c1.011-0.771,1.947-1.68,2.783-2.702   c0.36-0.441,1.011-0.506,1.454-0.144c0.441,0.361,0.506,1.012,0.144,1.454c-0.937,1.146-1.99,2.167-3.128,3.035   C363.197,497.881,362.976,497.949,362.758,497.949z M326.058,494.884c-0.252,0-0.504-0.091-0.703-0.276   c-0.418-0.387-0.442-1.041-0.053-1.46c0.127-0.137,0.254-0.276,0.379-0.417c-0.582-0.499-1.13-1.015-1.639-1.541   c-0.396-0.411-0.385-1.064,0.024-1.461c0.412-0.395,1.065-0.385,1.461,0.024c0.46,0.476,0.956,0.942,1.484,1.396   c0.284-0.362,0.559-0.727,0.824-1.097c0.331-0.465,0.977-0.573,1.442-0.238c0.463,0.332,0.57,0.978,0.237,1.442   c-0.285,0.397-0.582,0.793-0.889,1.182c0.361,0.354,0.417,0.929,0.108,1.349c-0.335,0.454-0.973,0.558-1.43,0.23   c-0.161,0.181-0.324,0.359-0.488,0.537C326.612,494.773,326.336,494.884,326.058,494.884z M230.313,493.583   c-0.355,0-0.701-0.184-0.893-0.512c-0.714-1.222-1.338-2.525-1.853-3.874c-0.204-0.533,0.063-1.13,0.595-1.334   c0.528-0.204,1.13,0.062,1.334,0.595c0.476,1.244,1.051,2.445,1.708,3.571c0.288,0.492,0.122,1.125-0.371,1.412   C230.669,493.538,230.49,493.583,230.313,493.583z M272.042,491.799c-0.332,0-0.659-0.159-0.859-0.456   c-0.799-1.187-1.521-2.427-2.148-3.683c-0.255-0.51-0.047-1.131,0.463-1.385c0.514-0.257,1.131-0.046,1.385,0.463   c0.587,1.176,1.265,2.337,2.015,3.451c0.318,0.473,0.193,1.116-0.28,1.435C272.44,491.743,272.241,491.799,272.042,491.799z    M367.984,491.637c-0.163,0-0.329-0.038-0.483-0.12c-0.504-0.267-0.696-0.893-0.429-1.397c0.595-1.12,1.119-2.348,1.559-3.647   c0.183-0.541,0.772-0.828,1.309-0.648c0.541,0.183,0.83,0.769,0.648,1.309c-0.475,1.405-1.044,2.735-1.69,3.954   C368.712,491.438,368.354,491.637,367.984,491.637z M280.355,490.315c-0.124,0-0.249-0.022-0.371-0.069   c-0.533-0.206-0.798-0.804-0.592-1.336c0.48-1.246,0.872-2.528,1.165-3.809c0.126-0.558,0.682-0.907,1.237-0.777   c0.557,0.127,0.904,0.681,0.777,1.237c-0.315,1.378-0.735,2.754-1.252,4.092C281.161,490.064,280.769,490.315,280.355,490.315z    M322.237,488.263c-0.346,0-0.684-0.173-0.879-0.489c-0.811-1.308-1.417-2.661-1.801-4.02c-0.154-0.549,0.165-1.12,0.714-1.275   c0.549-0.148,1.12,0.166,1.275,0.714c0.331,1.173,0.857,2.349,1.567,3.494c0.301,0.484,0.151,1.122-0.334,1.421   C322.61,488.214,322.423,488.263,322.237,488.263z M330.842,488.172c-0.16,0-0.324-0.037-0.476-0.117   c-0.505-0.263-0.702-0.887-0.439-1.393c0.639-1.229,1.149-2.452,1.515-3.639c0.167-0.546,0.741-0.851,1.291-0.682   c0.545,0.167,0.85,0.747,0.682,1.291c-0.403,1.304-0.959,2.645-1.656,3.984C331.576,487.969,331.215,488.172,330.842,488.172z    M227.355,485.904c-0.476,0-0.904-0.33-1.009-0.814c-0.298-1.374-0.501-2.798-0.604-4.232c-0.041-0.569,0.386-1.064,0.955-1.105   c0.568-0.035,1.063,0.386,1.105,0.955c0.097,1.338,0.286,2.664,0.564,3.943c0.121,0.558-0.233,1.108-0.791,1.229   C227.502,485.897,227.428,485.904,227.355,485.904z M268.372,484.42c-0.432,0-0.834-0.272-0.98-0.704   c-0.472-1.408-0.82-2.813-1.036-4.174c-0.09-0.563,0.295-1.093,0.858-1.181c0.564-0.095,1.093,0.295,1.181,0.859   c0.199,1.249,0.52,2.54,0.955,3.84c0.182,0.542-0.11,1.127-0.651,1.308C268.592,484.403,268.481,484.42,268.372,484.42z    M370.659,483.835c-0.065,0-0.13-0.006-0.196-0.018c-0.561-0.108-0.927-0.65-0.82-1.21c0.444-2.306,0.479-3.928,0.479-3.945   c0.011-0.563,0.471-1.014,1.033-1.014c0.006,0,0.012,0,0.019,0.001c0.57,0.01,1.024,0.48,1.014,1.05   c-0.001,0.073-0.036,1.803-0.516,4.297C371.577,483.491,371.145,483.835,370.659,483.835z M282.178,482.28   c-0.024,0-0.048-0.001-0.073-0.002c-0.569-0.04-0.999-0.534-0.959-1.103c0.037-0.528,0.056-1.048,0.056-1.561   c0-0.811-0.047-1.608-0.139-2.368c-0.07-0.566,0.334-1.081,0.9-1.15c0.565-0.082,1.081,0.334,1.15,0.9   c0.103,0.842,0.155,1.723,0.155,2.618c0,0.559-0.02,1.128-0.06,1.704C283.169,481.863,282.715,482.28,282.178,482.28z    M320.155,480.419c-0.034,0-0.07-0.002-0.105-0.005c-0.568-0.057-0.982-0.564-0.924-1.132c0.164-1.628,0.712-3.129,1.583-4.339   c0.334-0.463,0.979-0.569,1.442-0.235c0.463,0.333,0.568,0.979,0.235,1.442c-0.66,0.916-1.075,2.071-1.204,3.34   C321.128,480.022,320.678,480.419,320.155,480.419z M333.139,480.303c-0.004,0-0.009,0-0.014,0   c-0.57-0.008-1.027-0.476-1.019-1.047l0.002-0.209c0.001-1.297-0.256-2.378-0.765-3.213c-0.297-0.487-0.142-1.123,0.346-1.419   c0.487-0.296,1.123-0.141,1.419,0.346c0.708,1.163,1.066,2.606,1.065,4.287l-0.002,0.236   C334.164,479.85,333.703,480.303,333.139,480.303z M226.757,477.686c-0.022,0-0.044-0.001-0.067-0.002   c-0.569-0.036-1.002-0.527-0.965-1.097c0.091-1.431,0.28-2.856,0.563-4.235c0.114-0.558,0.654-0.913,1.22-0.804   c0.559,0.114,0.919,0.661,0.804,1.22c-0.263,1.285-0.44,2.615-0.525,3.951C227.753,477.265,227.298,477.686,226.757,477.686z    M267.168,476.294c-0.025,0-0.049-0.001-0.075-0.003c-0.569-0.04-0.998-0.535-0.956-1.104c0.119-1.668,0.492-3.137,1.109-4.37   c0.255-0.51,0.876-0.715,1.386-0.462c0.51,0.255,0.717,0.877,0.462,1.386c-0.495,0.989-0.797,2.198-0.897,3.593   C268.159,475.878,267.705,476.294,267.168,476.294z M324.832,474.197c-0.439,0-0.845-0.281-0.985-0.721   c-0.173-0.545,0.129-1.125,0.673-1.296c1.368-0.434,2.899-0.494,4.501-0.18l-0.106,1.033l-0.235,1.006   c-1.396-0.277-2.503-0.218-3.537,0.11C325.039,474.182,324.934,474.197,324.832,474.197z M281.074,474.163   c-0.404,0-0.788-0.239-0.953-0.636c-0.519-1.243-1.208-2.256-2.049-3.01c-0.425-0.381-0.46-1.034-0.079-1.459   c0.382-0.423,1.035-0.458,1.459-0.079c1.071,0.961,1.938,2.224,2.576,3.753c0.22,0.527-0.029,1.131-0.556,1.351   C281.341,474.138,281.207,474.163,281.074,474.163z M228.439,469.623c-0.122,0-0.245-0.021-0.366-0.067   c-0.534-0.203-0.802-0.799-0.6-1.333c0.555-1.463,1.214-2.772,1.959-3.891c0.315-0.476,0.955-0.606,1.432-0.288   c0.475,0.316,0.604,0.957,0.288,1.432c-0.659,0.991-1.247,2.162-1.745,3.479C229.248,469.369,228.855,469.623,228.439,469.623z    M271.036,469.457c-0.395,0-0.772-0.227-0.944-0.61c-0.233-0.522,0-1.132,0.521-1.366c1.228-0.549,2.644-0.747,4.235-0.557   l0.404,0.056c0.563,0.092,0.945,0.622,0.854,1.185c-0.092,0.562-0.627,0.946-1.185,0.854l-0.313-0.043   c-1.208-0.142-2.266-0.006-3.15,0.391C271.321,469.428,271.176,469.457,271.036,469.457z M233.169,463.021   c-0.353,0-0.697-0.181-0.89-0.506c-0.291-0.49-0.129-1.125,0.362-1.415c0.844-0.5,1.717-0.777,2.594-0.821   c0.568-0.042,1.053,0.41,1.083,0.981c0.028,0.569-0.411,1.054-0.981,1.083c-0.537,0.027-1.091,0.207-1.643,0.535   C233.529,462.974,233.348,463.021,233.169,463.021z"/>
	<path style="fill:none;" d="M177.912,43.063c-0.096,0-0.195-0.013-0.293-0.042c-0.471-0.138-0.97-0.339-1.487-0.595   c-0.961-0.479-1.788-1.119-2.453-1.901c-0.37-0.434-0.319-1.085,0.116-1.456c0.432-0.371,1.087-0.319,1.456,0.116   c0.485,0.568,1.092,1.036,1.803,1.39c0.409,0.204,0.792,0.358,1.151,0.464c0.547,0.161,0.86,0.735,0.698,1.283   C178.77,42.772,178.359,43.063,177.912,43.063z M181.565,41.995c-0.188,0-0.377-0.05-0.548-0.157   c-0.483-0.304-0.63-0.941-0.327-1.424c0.368-0.587,0.563-1.477,0.563-2.574c0-0.259-0.011-0.528-0.033-0.804   c-0.045-0.569,0.379-1.066,0.948-1.112c0.566-0.035,1.066,0.38,1.112,0.948c0.026,0.333,0.039,0.656,0.039,0.967   c0,1.507-0.296,2.742-0.878,3.671C182.245,41.824,181.909,41.995,181.565,41.995z M172.839,37.15c-0.501,0-0.941-0.364-1.02-0.875   c-0.089-0.575-0.134-1.184-0.134-1.811c0-0.84,0.081-1.728,0.24-2.639c0.098-0.562,0.628-0.938,1.196-0.839   c0.562,0.099,0.937,0.635,0.839,1.196c-0.139,0.793-0.21,1.561-0.21,2.282c0,0.519,0.036,1.017,0.11,1.494   c0.087,0.564-0.299,1.092-0.863,1.179C172.944,37.146,172.891,37.15,172.839,37.15z M239.261,36.561   c-0.169,0-0.341-0.041-0.499-0.129c-0.395-0.22-0.817-0.497-1.262-0.84c-0.807-0.621-1.526-1.351-2.135-2.168   c-0.341-0.458-0.246-1.105,0.211-1.446c0.459-0.343,1.105-0.246,1.446,0.211c0.496,0.666,1.08,1.26,1.738,1.765   c0.355,0.273,0.688,0.496,1.003,0.67c0.499,0.276,0.68,0.906,0.404,1.404C239.978,36.369,239.625,36.561,239.261,36.561z    M242.845,36.016c-0.163,0-0.33-0.038-0.484-0.121c-0.503-0.268-0.695-0.894-0.427-1.397c0.18-0.338,0.394-0.983,0.394-2.133   c0.001-0.413-0.027-0.85-0.083-1.314c-0.068-0.566,0.337-1.08,0.904-1.148c0.571-0.074,1.08,0.337,1.148,0.904   c0.066,0.551,0.098,1.073,0.097,1.561c0,1.263-0.214,2.307-0.637,3.101C243.572,35.817,243.214,36.016,242.845,36.016z    M181.396,33.951c-0.435,0-0.839-0.276-0.982-0.711c-0.393-1.202-0.915-2.428-1.549-3.646c-0.263-0.506-0.068-1.13,0.439-1.393   c0.506-0.266,1.131-0.066,1.393,0.439c0.686,1.318,1.251,2.649,1.68,3.957c0.178,0.543-0.118,1.126-0.66,1.303   C181.611,33.935,181.502,33.951,181.396,33.951z M128.32,32.682c-0.024,0-0.047-0.001-0.072-0.003   c-0.568-0.038-0.998-0.53-0.96-1.098c0.005-0.075,0.132-1.862,1.039-4.311c0.199-0.536,0.794-0.812,1.327-0.61   c0.536,0.198,0.809,0.792,0.61,1.327c-0.794,2.148-0.913,3.719-0.914,3.734C129.311,32.265,128.858,32.682,128.32,32.682z    M234.407,30.139c-0.452,0-0.867-0.299-0.994-0.756c-0.359-1.287-0.541-2.671-0.541-4.115l0.002-0.256   c0.007-0.572,0.448-1.092,1.045-1.024c0.571,0.007,1.028,0.472,1.021,1.042l-0.002,0.238c0,1.256,0.156,2.453,0.464,3.56   c0.153,0.55-0.167,1.12-0.717,1.272C234.593,30.127,234.499,30.139,234.407,30.139z M174.087,29.074   c-0.126,0-0.254-0.023-0.379-0.072c-0.531-0.21-0.791-0.81-0.582-1.341c0.488-1.237,1.101-2.5,1.82-3.755   c-0.233-0.264-0.471-0.523-0.712-0.777c-0.394-0.413-0.378-1.066,0.035-1.46c0.412-0.393,1.066-0.38,1.46,0.035   c0.982,1.03,1.899,2.138,2.726,3.293c0.333,0.463,0.226,1.109-0.238,1.441c-0.463,0.334-1.109,0.224-1.441-0.238   c-0.138-0.193-0.279-0.384-0.423-0.574c-0.504,0.938-0.942,1.874-1.304,2.793C174.888,28.827,174.499,29.074,174.087,29.074z    M242.319,27.944c-0.431,0-0.832-0.27-0.978-0.7c-0.412-1.209-0.937-2.44-1.562-3.662c-0.26-0.508-0.06-1.131,0.448-1.39   c0.509-0.262,1.13-0.061,1.39,0.448c0.672,1.31,1.236,2.636,1.68,3.938c0.184,0.541-0.106,1.127-0.646,1.31   C242.541,27.927,242.429,27.944,242.319,27.944z M287.636,25.641c-0.489,0-0.923-0.348-1.015-0.846   c-0.235-1.279-0.608-2.54-1.107-3.749c-0.218-0.528,0.032-1.131,0.56-1.349c0.526-0.217,1.131,0.032,1.349,0.56   c0.555,1.342,0.968,2.743,1.23,4.164c0.103,0.561-0.268,1.1-0.829,1.203C287.761,25.636,287.698,25.641,287.636,25.641z    M131.129,24.963c-0.19,0-0.382-0.052-0.554-0.161c-0.481-0.307-0.622-0.945-0.317-1.426c0.78-1.224,1.693-2.365,2.714-3.394   c0.405-0.403,1.057-0.407,1.462-0.004c0.405,0.402,0.407,1.055,0.004,1.461c-0.917,0.923-1.737,1.948-2.436,3.047   C131.804,24.795,131.47,24.963,131.129,24.963z M234.454,21.965c-0.083,0-0.165-0.01-0.249-0.03   c-0.554-0.137-0.892-0.697-0.755-1.251c0.342-1.381,0.831-2.753,1.454-4.079c0.032-0.068,0.071-0.131,0.115-0.189   c-0.035-0.324,0.082-0.659,0.344-0.89c0.427-0.375,1.081-0.337,1.458,0.092c0.938,1.063,1.818,2.194,2.615,3.36   c0.323,0.471,0.202,1.114-0.269,1.436c-0.471,0.323-1.113,0.202-1.436-0.269c-0.422-0.616-0.867-1.222-1.333-1.811   c-0.389,0.934-0.705,1.889-0.942,2.846C235.339,21.65,234.917,21.965,234.454,21.965z M178.182,21.921   c-0.217,0-0.435-0.068-0.621-0.209c-0.455-0.343-0.546-0.991-0.202-1.447c0.84-1.114,1.761-2.205,2.738-3.242   c0.392-0.416,1.045-0.434,1.461-0.044c0.416,0.391,0.435,1.045,0.044,1.461c-0.926,0.983-1.799,2.017-2.595,3.071   C178.805,21.779,178.495,21.921,178.182,21.921z M171.928,20.671c-0.223,0-0.448-0.072-0.638-0.221   c-1.046-0.822-2.156-1.57-3.297-2.219c-0.495-0.282-0.669-0.914-0.386-1.409c0.282-0.496,0.913-0.669,1.409-0.386   c1.23,0.701,2.424,1.505,3.551,2.391c0.448,0.352,0.527,1.002,0.174,1.451C172.537,20.536,172.234,20.671,171.928,20.671z    M136.897,19.136c-0.336,0-0.665-0.163-0.863-0.464c-0.315-0.476-0.184-1.117,0.293-1.431c1.165-0.77,2.443-1.453,3.799-2.03   c0.525-0.224,1.132,0.02,1.355,0.546c0.224,0.525-0.021,1.132-0.546,1.355c-1.241,0.529-2.408,1.152-3.47,1.852   C137.291,19.081,137.093,19.136,136.897,19.136z M284.514,18.054c-0.332,0-0.658-0.159-0.856-0.455   c-0.716-1.059-1.558-2.079-2.502-3.032c-0.402-0.406-0.397-1.06,0.007-1.462c0.407-0.401,1.059-0.397,1.462,0.007   c1.033,1.044,1.957,2.164,2.744,3.33c0.32,0.472,0.196,1.115-0.277,1.434C284.915,17.996,284.713,18.054,284.514,18.054z    M164.774,16.605c-0.122,0-0.247-0.021-0.368-0.068c-1.23-0.469-2.51-0.848-3.805-1.129c-0.558-0.121-0.912-0.671-0.792-1.229   c0.121-0.557,0.68-0.909,1.228-0.791c1.397,0.303,2.778,0.712,4.106,1.218c0.533,0.204,0.8,0.8,0.597,1.334   C165.582,16.352,165.19,16.605,164.774,16.605z M183.835,15.909c-0.29,0-0.578-0.121-0.782-0.358   c-0.373-0.432-0.325-1.084,0.107-1.457c1.065-0.919,2.19-1.795,3.343-2.602c0.468-0.326,1.112-0.214,1.439,0.254   c0.327,0.467,0.213,1.112-0.254,1.439c-1.096,0.767-2.165,1.599-3.178,2.473C184.315,15.826,184.074,15.909,183.835,15.909z    M144.439,15.887c-0.46,0-0.881-0.311-1-0.777c-0.141-0.553,0.192-1.116,0.745-1.257c1.326-0.339,2.731-0.605,4.177-0.791   c0.574-0.065,1.083,0.329,1.156,0.894c0.073,0.565-0.328,1.083-0.894,1.156c-1.362,0.175-2.682,0.425-3.926,0.742   C144.611,15.877,144.524,15.887,144.439,15.887z M156.734,14.857c-0.024,0-0.048-0.001-0.074-0.003   c-0.4-0.027-0.806-0.047-1.217-0.058c-0.966-0.026-1.904-0.024-2.809,0.004c-0.511,0.013-1.045-0.431-1.063-1.003   c-0.016-0.57,0.433-1.046,1.003-1.063c0.939-0.028,1.917-0.03,2.923-0.004c0.442,0.012,0.878,0.032,1.308,0.064   c0.569,0.039,0.998,0.534,0.957,1.103C157.724,14.441,157.271,14.857,156.734,14.857z M237.926,14.519   c-0.208,0-0.419-0.063-0.601-0.194c-0.463-0.332-0.57-0.978-0.237-1.442c0.839-1.17,1.788-2.27,2.819-3.266   c0.41-0.393,1.065-0.383,1.461,0.026c0.395,0.41,0.384,1.064-0.026,1.461c-0.941,0.909-1.807,1.913-2.575,2.983   C238.564,14.37,238.247,14.519,237.926,14.519z M233.13,14.411c-0.244,0-0.488-0.086-0.685-0.26   c-0.998-0.884-2.059-1.711-3.155-2.457c-0.471-0.322-0.593-0.964-0.271-1.436c0.321-0.473,0.963-0.59,1.436-0.271   c1.167,0.796,2.297,1.677,3.36,2.619c0.427,0.378,0.467,1.031,0.088,1.458C233.699,14.293,233.415,14.411,233.13,14.411z    M278.758,12.191c-0.211,0-0.425-0.065-0.608-0.199c-1.037-0.758-2.172-1.474-3.374-2.131c-0.5-0.274-0.685-0.902-0.412-1.402   c0.274-0.502,0.902-0.685,1.402-0.412c1.28,0.7,2.492,1.466,3.602,2.276c0.461,0.336,0.561,0.983,0.225,1.444   C279.391,12.043,279.076,12.191,278.758,12.191z M190.595,11.177c-0.362,0-0.713-0.191-0.903-0.529   c-0.278-0.498-0.1-1.128,0.397-1.406c1.232-0.688,2.51-1.319,3.799-1.873c0.522-0.23,1.132,0.014,1.357,0.54   c0.226,0.524-0.015,1.132-0.54,1.357c-1.225,0.528-2.438,1.127-3.609,1.781C190.938,11.134,190.765,11.177,190.595,11.177z    M226.321,9.769c-0.157,0-0.318-0.036-0.468-0.113c-1.175-0.599-2.41-1.132-3.669-1.583c-0.537-0.193-0.816-0.784-0.623-1.322   c0.194-0.538,0.781-0.817,1.322-0.623c1.341,0.481,2.656,1.049,3.909,1.688c0.508,0.258,0.71,0.881,0.451,1.389   C227.06,9.564,226.697,9.769,226.321,9.769z M243.838,8.811c-0.335,0-0.663-0.162-0.862-0.462c-0.316-0.475-0.186-1.117,0.29-1.432   c1.198-0.795,2.476-1.483,3.798-2.045c0.525-0.226,1.133,0.021,1.355,0.546c0.224,0.526-0.021,1.132-0.546,1.355   c-1.207,0.513-2.373,1.141-3.465,1.865C244.233,8.755,244.034,8.811,243.838,8.811z M271.546,8.211   c-0.132,0-0.267-0.025-0.396-0.079c-1.192-0.496-2.47-0.96-3.794-1.381c-0.545-0.173-0.845-0.753-0.673-1.296   c0.173-0.545,0.754-0.848,1.296-0.673c1.382,0.438,2.716,0.923,3.964,1.442c0.527,0.22,0.777,0.824,0.558,1.351   C272.335,7.972,271.95,8.211,271.546,8.211z M198.169,7.912c-0.44,0-0.847-0.282-0.986-0.724c-0.17-0.544,0.132-1.124,0.677-1.294   c1.341-0.421,2.722-0.776,4.103-1.055c0.57-0.108,1.105,0.249,1.218,0.808c0.113,0.559-0.249,1.105-0.808,1.218   c-1.311,0.265-2.622,0.601-3.895,1.001C198.375,7.897,198.271,7.912,198.169,7.912z M218.57,6.983   c-0.076,0-0.151-0.008-0.228-0.025c-1.284-0.29-2.614-0.508-3.955-0.653c-0.567-0.061-0.978-0.57-0.917-1.137   c0.061-0.566,0.551-0.984,1.137-0.917c1.419,0.152,2.829,0.384,4.189,0.691c0.557,0.125,0.906,0.678,0.781,1.235   C219.469,6.657,219.043,6.983,218.57,6.983z M206.251,6.276c-0.526,0-0.976-0.399-1.027-0.934   c-0.055-0.568,0.361-1.072,0.929-1.127c1.327-0.128,2.686-0.194,4.041-0.195l0.181,1.033v1.033   c-1.469,0.001-2.762,0.064-4.024,0.185C206.317,6.274,206.284,6.276,206.251,6.276z M263.686,5.711   c-0.074,0-0.148-0.008-0.224-0.024c-1.33-0.294-2.658-0.5-3.949-0.615c-0.568-0.05-0.988-0.552-0.937-1.121   c0.05-0.567,0.548-0.979,1.121-0.937c1.378,0.123,2.794,0.343,4.211,0.656c0.557,0.123,0.909,0.674,0.786,1.232   C264.587,5.383,264.16,5.711,263.686,5.711z M251.392,5.584c-0.471,0-0.897-0.324-1.006-0.803c-0.127-0.556,0.22-1.11,0.777-1.237   c1.375-0.315,2.806-0.518,4.253-0.602c0.554-0.025,1.058,0.402,1.092,0.97c0.033,0.57-0.401,1.058-0.97,1.092   c-1.333,0.079-2.65,0.265-3.914,0.554C251.547,5.576,251.469,5.584,251.392,5.584z"/>
</g>
<g>
</g>
<g>
</g>
<g>
</g>
<g>
</g>
<g>
</g>
<g>
</g>
<g>
</g>
<g>
</g>
<g>
</g>
<g>
</g>
<g>
</g>
<g>
</g>
<g>
</g>
<g>
</g>
<g>
</g>
</svg>
