<svg id="Layer_1" enable-background="new 0 0 66 66" viewBox="0 0 66 66" xmlns="http://www.w3.org/2000/svg">
    <g>
        <g>
            <path d="m32.91 13.99-4.5.62-.17-1.25-.44-3.25 4.5-.61.16 1.19z" fill="#509dff"/>
        </g>
        <g>
            <path d="m32.91 13.99-4.5.61-.17-1.24c.13.04.27.07.41.08.37.01.78-.21.83-.58.02-.14-.01-.29.05-.42.11-.21.41-.21.65-.19.24.03.53.03.66-.18.14-.23-.07-.57.07-.81.14-.23.49-.18.77-.19.3-.01.57-.16.77-.38z"
                  fill="#308cef"/>
        </g>
        <g>
            <path d="m10.09 28.79-1.71 4.19-3.88-1.58-.32-.14 1.72-4.19 3.01 1.23z" fill="#509dff"/>
        </g>
        <g>
            <path d="m10.09 28.79-1.72 4.2-3.87-1.59c.05 0 .09 0 .14-.01.29-.03.57-.2.74-.43.13-.18.21-.42.41-.51.22-.11.48-.01.71.09.22.09.51.16.7.01.31-.25.07-.87.4-1.09.2-.14.48-.04.73-.08.34-.06.57-.41.61-.75.01-.1.01-.21-.01-.31z"
                  fill="#308cef"/>
        </g>
        <g>
            <g>
                <path d="m14.4 15.92c-2.75 2.13-6.72 1.62-8.84-1.13s-1.62-6.71 1.13-8.84 6.72-1.62 8.84 1.13 1.62 6.71-1.13 8.84zm-6.74-8.71c-2.05 1.59-2.43 4.55-.84 6.6s4.55 2.43 6.6.84 2.43-4.55.84-6.6-4.54-2.43-6.6-.84z"
                      fill="#509dff"/>
            </g>
        </g>
        <g>
            <g>
                <path d="m10.55 17.49c-1.46 0-2.92-.49-4.12-1.47-.1-.08-.12-.24-.04-.34.09-.1.24-.12.34-.04 2.2 1.78 5.29 1.82 7.53.08 2.64-2.05 3.13-5.86 1.08-8.5-.99-1.28-2.42-2.09-4.03-2.3-1.61-.2-3.2.23-4.47 1.22-.52.4-.97.88-1.34 1.43-.07.11-.22.14-.33.07-.12-.08-.15-.23-.07-.34.39-.59.88-1.11 1.44-1.54 1.38-1.07 3.1-1.54 4.83-1.31 1.74.22 3.28 1.1 4.35 2.48 2.21 2.85 1.68 6.98-1.17 9.19-1.18.91-2.59 1.37-4 1.37zm-1.87-1.99c-.03 0-.06-.01-.1-.02-.77-.33-1.45-.85-1.96-1.52-.81-1.04-1.16-2.34-.99-3.66s.83-2.48 1.88-3.29c1.04-.81 2.34-1.16 3.66-.99 1.31.17 2.48.83 3.29 1.88.27.35.5.74.66 1.15.05.12-.01.27-.13.32s-.27-.01-.32-.13c-.15-.37-.35-.72-.6-1.03-.73-.94-1.78-1.54-2.97-1.69-1.18-.15-2.35.17-3.3.9-.94.73-1.54 1.78-1.69 2.97s.17 2.35.9 3.3c.46.6 1.07 1.07 1.76 1.37.12.05.18.2.13.32-.03.06-.12.12-.22.12z"/>
            </g>
        </g>
        <g>
            <path d="m18.12 16.02-4.51 3.49-3.59-4.65c-.25-.33-.26-.76-.04-1.09.05-.09.12-.17.21-.23l3.01-2.33c.42-.32 1.01-.25 1.33.17l1.98 2.56z"
                  fill="#ffcd3b"/>
        </g>
        <g>
            <path d="m18.12 16.02-4.51 3.49-3.59-4.65c-.25-.33-.26-.76-.04-1.09.11.38.25.75.51 1.05.29.34.77.56 1.19.41.25-.08.46-.29.71-.3.31-.01.55.26.77.49.21.23.51.46.81.35.38-.14.41-.74.78-.91.26-.12.57.03.85.01.35-.02.64-.29.8-.6.05-.11.09-.22.11-.34z"
                  fill="#fcb910"/>
        </g>
        <g>
            <path d="m13.61 19.75c-.01 0-.02 0-.03 0-.06-.01-.12-.04-.16-.09l-3.59-4.65c-.31-.4-.33-.95-.05-1.38.04-.09.13-.19.26-.29l2.24-1.74c.11-.08.26-.06.34.04.08.11.06.26-.04.34l-2.24 1.74c-.09.07-.12.12-.14.15-.18.28-.17.6.01.83l3.44 4.45 4.32-3.34c.11-.08.26-.06.34.04.08.11.06.26-.04.34l-4.51 3.49c-.04.05-.09.07-.15.07z"/>
        </g>
        <g>
            <path d="m21.69 17.47-7.48 5.8-2.74-3.55c-.16-.2-.2-.44-.12-.66.04-.14.12-.27.25-.37l6.33-4.89c.32-.25.78-.19 1.03.13l1.24 1.59z"
                  fill="#509dff"/>
        </g>
        <g>
            <path d="m21.69 17.47-7.48 5.8-2.74-3.55c-.16-.2-.2-.44-.12-.66l.01.03c.26.42.72.7 1.2.74.49.04.99-.16 1.31-.51.29-.33.46-.77.82-1.01.66-.45 1.72-.03 2.28-.61.31-.33.34-.91.74-1.15.38-.23.87-.03 1.31-.04.38-.01.75-.22.98-.53.1-.14.16-.3.2-.46z"
                  fill="#308cef"/>
        </g>
        <g>
            <path d="m14.21 23.51c-.01 0-.02 0-.03 0-.06-.01-.12-.04-.16-.09l-1.62-2.1c-.08-.11-.06-.26.04-.34.11-.08.26-.06.34.04l1.47 1.91 7.1-5.5-2.59-3.35c-.08-.1-.2-.17-.33-.18-.13-.02-.26.02-.36.1l-4.17 3.23c-.11.08-.26.06-.34-.04-.08-.11-.06-.26.04-.34l4.17-3.23c.21-.16.47-.23.72-.2.26.03.49.16.65.37l2.74 3.54c.08.11.06.26-.04.34l-7.48 5.8c-.05.02-.1.04-.15.04z"/>
        </g>
        <g>
            <path d="m45.98 56.4c-10.35 8.02-25.26 6.12-33.27-4.24-.34-.45-.67-.9-.97-1.36-1.74-2.6-2.9-5.42-3.49-8.33-1.07-5.13-.39-10.51 1.9-15.22 1.54-3.18 3.82-6.05 6.8-8.36 10.36-8.01 25.26-6.12 33.27 4.24.05.07.1.14.16.21 7.83 10.35 5.88 25.1-4.4 33.06z"
                  fill="#ffcd3b"/>
        </g>
        <g>
            <path d="m9.87 31.96c-.25.59.06 1.24.34 1.8.29.57.57 1.24.28 1.8-.25.48-.83.7-1.1 1.16-.39.66-.02 1.5.41 2.13.44.62.96 1.29.89 2.04-.07.71-.69 1.28-1.37 1.48-.35.1-.72.13-1.08.11-1.07-5.13-.39-10.51 1.9-15.22.42.14.81.35 1.12.66.69.67.91 1.87.28 2.59-.49.57-1.38.76-1.67 1.45z"
                  fill="#fcb910"/>
        </g>
        <g>
            <path d="m11.84 45.02c-.34 0-.68-.05-1.03-.1l-.19-.03c-.65-.11-1.3-.21-1.95-.31-.13 0-.23-.11-.23-.24 0-.14.12-.24.26-.24h.01c.69.1 1.34.21 1.99.32l.19.03c.74.12 1.49.19 1.99-.21.53-.43.54-1.25.33-1.87-.16-.47-.43-.89-.72-1.34-.13-.21-.27-.41-.39-.63-.53-.9-.68-1.71-.46-2.4.14-.43.41-.78.67-1.12.17-.21.32-.41.44-.63.41-.72.43-1.65.04-2.38-.1-.18-.21-.35-.33-.52-.15-.21-.3-.44-.41-.69-.21-.45-.29-1.14.16-1.59.3-.29.7-.35 1.06-.4.19-.03.37-.05.53-.11.54-.2.92-.86.87-1.54-.04-.59-.34-1.2-.9-1.81-.68-.76-1.59-1.33-2.62-1.66-.13-.04-.2-.18-.16-.31s.18-.2.31-.16c1.11.36 2.09.98 2.83 1.8.63.7.98 1.41 1.03 2.11.05.78-.34 1.72-1.2 2.04-.21.07-.42.1-.62.13-.32.05-.6.09-.78.27-.25.25-.21.7-.06 1.04.1.21.23.41.37.62.12.18.25.37.36.57.46.87.45 1.99-.05 2.85-.14.25-.31.47-.48.69-.25.32-.48.62-.59.97-.18.55-.03 1.22.42 2 .12.21.25.41.38.6.29.45.59.92.77 1.44.27.78.23 1.82-.48 2.4-.4.31-.87.41-1.36.41z"
                  fill="#fcb910"/>
        </g>
        <g>
            <g>
                <path d="m36.04 11.87c-.31-.07-.5-.37-.43-.67l1.24-5.45c.07-.3.37-.49.67-.42s.49.37.42.67l-1.12 4.9 1.9.43c.3.07.49.37.42.68-.07.3-.38.48-.67.42z"
                      fill="none"/>
            </g>
            <g>
                <path d="m44.89 14.16c0 .07-.02.15-.05.21-.12.26-.43.42-.73.28-.2-.09-.34-.3-.33-.53l.04-1.12-2.37-1.05-.81.78c-.17.17-.42.2-.62.11-.3-.13-.39-.48-.28-.73.03-.07.07-.13.12-.18l4.3-4.19c.16-.16.41-.2.62-.11.2.09.34.31.33.53zm-1.04-2.36.1-2.29-1.64 1.6z"
                      fill="none"/>
            </g>
            <g>
                <path d="m49.46 15.63-.06.07c-.32.45-.8.76-1.34.85-.59.1-1.19-.04-1.7-.4l-.06-.05c-.65-.49-.96-1.27-.82-2.05.01-.08.06-.16.1-.22.12-.17.33-.27.56-.23.08.01.15.05.21.09.17.12.28.34.24.56-.07.36.08.72.39.95l.04.03c.27.19.56.27.84.22.27-.05.49-.18.64-.39l.02-.03c.23-.38-.22-1.18-.46-1.47l-.02-.04c-.6-.86-.65-1.65-.15-2.35l.04-.06c.3-.39.73-.62 1.24-.63.43-.02.91.12 1.32.4l.07.05c.32.24.57.61.7 1 .05.18.02.35-.07.49-.07.09-.17.17-.29.21-.18.05-.35.02-.49-.08-.09-.07-.17-.16-.21-.28-.05-.18-.17-.34-.3-.45l-.05-.03c-.38-.27-.82-.28-1.02-.01l-.02.03c-.27.38-.07.73.14 1.07.17.24 1.22 1.63.51 2.75z"
                      fill="none"/>
            </g>
            <g>
                <path d="m55.68 15.44c.22.22.23.57.01.79s-.58.22-.8 0l-.79-.78-3.53 3.57c-.21.22-.57.21-.79 0-.22-.22-.22-.57 0-.78l3.53-3.57-.8-.79c-.22-.22-.22-.57 0-.79s.57-.22.78 0z"
                      fill="none"/>
            </g>
            <g>
                <path d="m56.64 26.86c-.17.25-.51.32-.77.16-.46-.3-.85-.72-1.11-1.21-.88-1.62-.28-3.66 1.34-4.54s3.66-.28 4.54 1.34c.27.5.4 1.04.41 1.59-.01.31-.25.56-.55.56-.32 0-.56-.25-.57-.56.01-.36-.09-.73-.27-1.06-.58-1.08-1.94-1.48-3.02-.89s-1.48 1.95-.89 3.02c.18.33.43.61.74.81.25.17.33.51.15.78z"
                      fill="none"/>/>
            </g>
            <g>
                <path d="m63.04 30.7-5.35 1.59c-.29.09-.6-.08-.69-.38-.09-.29.08-.6.37-.69l2.15-.64-.71-2.4-2.14.64c-.29.09-.61-.09-.69-.38-.09-.29.08-.6.37-.69l5.35-1.59c.29-.09.6.08.69.37s-.08.61-.37.7l-2.14.64.71 2.4 2.15-.64c.29-.09.6.08.69.37.07.31-.09.62-.39.7z"
                      fill="none"/>/>
            </g>
            <g>
                <path d="m58.46 38.34c-.07.03-.14.05-.21.05-.29.02-.57-.18-.59-.51-.02-.22.1-.44.31-.54l1.01-.5-.2-2.58-1.07-.34c-.23-.07-.37-.27-.39-.49-.02-.32.23-.57.51-.6.08-.01.14 0 .21.02l5.73 1.8c.22.07.38.27.39.5.02.22-.11.44-.31.54zm1.59-2.03 2.06-1-2.19-.69z"
                      fill="none"/>/>
            </g>
            <g>
                <path d="m57.33 42.86 4.5-2.27-3.78-.54c-.3-.04-.51-.33-.47-.64.04-.3.32-.51.63-.47l5.53.79c.28.04.52.31.47.64-.03.17-.13.33-.3.41l-4.5 2.27 3.78.54c.3.04.51.32.47.64-.04.3-.33.51-.63.47l-5.53-.79c-.29-.04-.51-.32-.47-.63.02-.18.13-.33.3-.42z"
                      fill="none"/>/>
            </g>
            <g>
                <path d="m56.14 49.51c-.3.04-.58-.17-.63-.48-.07-.55-.02-1.11.18-1.64.64-1.73 2.57-2.62 4.3-1.98s2.62 2.57 1.98 4.3c-.2.53-.52.99-.93 1.36-.24.2-.59.18-.79-.05-.21-.24-.18-.59.05-.8.28-.23.49-.55.62-.9.42-1.15-.16-2.43-1.32-2.86s-2.44.17-2.86 1.32c-.13.35-.18.73-.12 1.09.04.31-.17.6-.48.64z"
                      fill="none"/>/>
            </g>
            <g>
                <path d="m53.05 53.42c-.26-.16-.34-.5-.17-.77l1.61-2.6c.17-.27.51-.35.77-.19l4.74 2.93c.26.16.34.5.18.77l-1.61 2.6c-.17.27-.51.35-.77.19-.27-.17-.35-.51-.18-.78l1.32-2.13-1.42-.88-1.02 1.66c-.16.26-.5.34-.76.18s-.34-.5-.18-.76l1.03-1.66-1.42-.88-1.32 2.13c-.19.28-.54.36-.8.19z"
                      fill="none"/>/>
            </g>
            <g>
                <path d="m51.9 54.76c-.24-.19-.27-.55-.08-.79s.54-.28.78-.08c.25.2.28.55.09.79-.19.23-.54.27-.79.08zm4.35 3.5-3.05-2.45c-.24-.19-.27-.55-.08-.79s.54-.28.78-.08l3.05 2.45c.24.19.28.54.08.78-.19.23-.54.28-.78.09z"
                      fill="none"/>
            </g>
        </g>
        <g>
            <path d="m45.98 56.4c-10.36 8.02-25.26 6.12-33.27-4.23-.35-.45-.67-.9-.97-1.36.75.39 1.57.62 2.42.68 1.44.1 2.94-.28 4.32.16 2.53.81 3.73 4.09 6.33 4.65 1.95.42 3.83-.9 5.27-2.28s2.88-2.98 4.83-3.37c3.14-.63 6.59 2.1 9.38.53 1.96-1.1 2.38-3.71 2.36-5.96-.03-2.25-.21-4.72 1.17-6.49 1.12-1.45 3.17-2.22 3.68-3.99.73-2.5-2.18-4.66-2.36-7.26-.1-1.44.66-2.77 1.2-4.1 0-.02.01-.03.02-.05 7.85 10.36 5.9 25.11-4.38 33.07z"
                  fill="#fcb910"/>
        </g>
        <g>
            <path d="m31.51 61.61c-1.02 0-2.05-.06-3.07-.2-6.35-.81-12-4.04-15.92-9.1-.35-.45-.68-.91-.98-1.38-6.96-10.4-4.65-24.56 5.26-32.24 9.21-7.13 22.15-6.63 30.75 1.18.1.09.11.24.02.34s-.25.11-.34.02c-8.43-7.66-21.1-8.14-30.13-1.16-9.71 7.52-11.97 21.39-5.15 31.58.3.46.62.91.96 1.35 3.84 4.96 9.37 8.13 15.6 8.92 6.22.79 12.38-.89 17.33-4.73.81-.63 1.59-1.32 2.32-2.05.09-.1.25-.1.35 0s.1.25 0 .35c-.74.74-1.53 1.45-2.36 2.09-4.26 3.3-9.37 5.03-14.64 5.03z"/>
        </g>
        <g>
            <path d="m48.53 39.02c-.04.53-.11 1.05-.21 1.58-.66 3.81-2.61 7.41-5.77 10.09-.2.17-.4.34-.62.5-.21.17-.42.32-.64.47-3.38 2.39-7.34 3.37-11.2 3.06h-.01c-.53-.05-1.05-.11-1.58-.2-3.81-.67-7.41-2.61-10.09-5.77-.17-.2-.34-.4-.5-.62-.17-.21-.33-.43-.47-.65-2.38-3.38-3.36-7.35-3.06-11.2v-.01c.05-.53.12-1.05.21-1.58.66-3.81 2.61-7.41 5.76-10.08.2-.18.41-.35.62-.51.21-.17.42-.32.64-.47 3.38-2.38 7.35-3.37 11.21-3.06.53.04 1.05.11 1.58.2 3.81.66 7.41 2.61 10.09 5.77.17.2.34.4.5.61.17.21.32.42.47.64 2.39 3.4 3.38 7.37 3.07 11.23z"
                  fill="#fff"/>
        </g>
        <g>
            <g>
                <g>
                    <path d="m23.49 27.35c-.09.07-.19.12-.3.15-.29.07-.61-.03-.82-.28l-2.01-2.59c.2-.18.41-.35.62-.51.21-.17.42-.32.64-.47l2.01 2.59c.27.34.2.84-.14 1.11z"
                          fill="gold"/>
                </g>
            </g>
            <g>
                <g>
                    <path d="m42.55 50.69c-.2.17-.4.34-.62.5-.21.17-.42.32-.64.47l-2-2.59c-.27-.34-.21-.84.14-1.12.35-.27.85-.21 1.12.14z"
                          fill="#ffcd3b"/>
                </g>
            </g>
            <g>
                <g>
                    <path d="m18.54 36.01c-.05.34-.3.6-.61.67-.09.02-.19.03-.29.01l-3.26-.41v-.01c.05-.53.12-1.05.21-1.58l3.25.42c.45.06.75.46.7.9z"
                          fill="#ffcd3b"/>
                </g>
            </g>
            <g>
                <g>
                    <path d="m48.53 39.02c-.04.53-.11 1.05-.21 1.58l-3.25-.41c-.43-.06-.74-.46-.69-.89.05-.44.45-.75.89-.69z"
                          fill="#ffcd3b"/>
                </g>
            </g>
            <g>
                <g>
                    <path d="m21.01 46.74-2.59 2.01c-.17-.2-.34-.4-.5-.62-.17-.21-.33-.43-.47-.65l2.59-2c.35-.27.85-.21 1.12.14s.21.85-.15 1.12z"
                          fill="#ffcd3b"/>
                </g>
            </g>
            <g>
                <g>
                    <path d="m45.47 27.81-2.59 2.01c-.09.07-.19.12-.29.15-.3.07-.62-.04-.83-.29-.26-.35-.21-.84.14-1.12l2.59-2c.17.2.34.4.5.61.18.21.33.42.48.64z"
                          fill="#ffcd3b"/>
                </g>
            </g>
            <g>
                <g>
                    <path d="m30.5 51.46-.41 3.26h-.01c-.53-.05-1.05-.11-1.58-.2l.41-3.26c.06-.43.46-.74.9-.69.44.06.75.45.69.89z"
                          fill="#ffcd3b"/>
                </g>
            </g>
            <g>
                <g>
                    <path d="m34.41 20.79-.41 3.25c-.04.34-.29.6-.6.67-.09.02-.19.03-.29.02-.44-.06-.75-.46-.69-.89l.42-3.26c.52.05 1.04.12 1.57.21z"
                          fill="#ffcd3b"/>
                </g>
            </g>
        </g>
        <g>
            <path d="m31.46 55.02c-.45 0-.91-.02-1.36-.05-.01 0-.02 0-.03 0-.44-.04-1.02-.1-1.6-.21-1.67-.29-3.28-.82-4.78-1.57-.12-.06-.17-.21-.11-.33s.21-.17.33-.11c1.47.73 3.03 1.25 4.65 1.53.55.1 1.11.16 1.53.2h.03c3.91.32 7.84-.76 11.04-3.02.22-.14.42-.3.63-.46s.41-.33.61-.5c3-2.54 5.02-6.07 5.69-9.95.1-.5.17-1.01.21-1.56.32-3.92-.76-7.84-3.02-11.05-.14-.22-.3-.42-.46-.63s-.33-.41-.49-.6c-2.55-3-6.08-5.02-9.95-5.69-.51-.09-1.04-.16-1.55-.2-3.92-.32-7.84.75-11.05 3.01-.21.15-.42.3-.63.46s-.41.33-.61.5c-3 2.54-5.01 6.07-5.68 9.94-.02.13-.15.22-.28.2s-.22-.15-.2-.28c.69-3.98 2.76-7.61 5.84-10.22.2-.18.41-.35.63-.52s.43-.32.65-.48c3.3-2.32 7.34-3.43 11.37-3.1.53.04 1.07.11 1.6.21 3.98.69 7.62 2.76 10.23 5.85.17.2.34.41.51.62.17.22.33.43.48.66 2.31 3.3 3.41 7.33 3.08 11.37-.05.56-.12 1.09-.22 1.6-.69 3.98-2.77 7.62-5.85 10.23-.2.17-.41.34-.62.51-.22.17-.43.33-.66.48-2.9 2.06-6.4 3.16-9.96 3.16z"/>
        </g>
        <g>
            <path d="m33.87 8.46c0 .66-.49 1.23-1.16 1.32l-5.23.72c-.31.04-.6-.03-.85-.16-.35-.2-.61-.55-.67-.99-.01-.07-.01-.12-.01-.19 0-.66.49-1.24 1.16-1.33l5.23-.71c.16-.03.33-.01.48.02.53.12.96.56 1.03 1.13.02.06.02.12.02.19z"
                  fill="#ffcd3b"/>
        </g>
        <g>
            <path d="m33.87 8.46c0 .66-.49 1.23-1.16 1.32l-5.23.72c-.31.04-.6-.03-.85-.16.64.13 1.33-.07 1.8-.53.15-.15.29-.34.49-.41.25-.08.51.02.76.1s.54.14.74-.03c.24-.19.23-.58.47-.77.16-.13.37-.14.57-.1.2.03.39.08.59.07.48-.05.83-.54.84-1.02.01-.17-.03-.34-.08-.5.53.12.96.56 1.03 1.13.03.05.03.11.03.18z"
                  fill="#fcb910"/>
        </g>
        <g>
            <path d="m6.34 26.87-1.98 4.84c-.21.51-.72.83-1.24.83-.17 0-.34-.03-.5-.1-.53-.22-.85-.75-.82-1.31 0-.15.03-.29.09-.44l1.98-4.84c.21-.51.71-.83 1.24-.83.17 0 .34.03.5.1.35.15.61.43.74.76.12.32.13.67-.01.99z"
                  fill="#ffcd3b"/>
        </g>
        <g>
            <path d="m6.34 26.87-1.98 4.84c-.21.51-.72.83-1.24.83-.17 0-.34-.03-.5-.1-.53-.22-.85-.75-.82-1.31.17.12.35.21.55.25.31.06.68-.07.8-.36s-.03-.7.21-.91c.27-.23.7.02 1.02-.14.29-.14.32-.53.29-.84s-.05-.68.19-.89c.12-.11.3-.14.46-.21.38-.16.64-.51.79-.89.14-.38.21-.85.25-1.26.11.32.12.67-.02.99z"
                  fill="#fcb910"/>
        </g>
        <g>
            <path d="m29.99 36-.43 2.97-9.56-2.72c-.18-.05-.14-.32.05-.32z" fill="#fe515e"/>
        </g>
        <g>
            <path d="m34.15 41.12c-1.91 1.48-4.67 1.13-6.16-.79-.02-.03-.04-.05-.05-.08-1.43-1.91-1.05-4.61.83-6.08 1.68-1.31 4.01-1.2 5.56.14.21.19.42.4.61.64 1.48 1.93 1.12 4.69-.79 6.17z"
                  fill="#509dff"/>
        </g>
        <g>
            <path d="m34.15 41.12c-1.91 1.48-4.67 1.13-6.16-.79-.02-.03-.04-.05-.05-.08.25.19.52.34.82.44.62.21 1.39.12 1.79-.39.23-.29.34-.71.68-.89.33-.18.72-.05 1.08.05.35.1.79.16 1.05-.1.25-.25.21-.66.16-1.02-.05-.35-.05-.78.23-.99.3-.21.73-.07 1.05-.24.23-.13.35-.42.35-.68 0-.27-.1-.53-.2-.78-.19-.46-.39-.9-.62-1.34.21.19.42.4.61.64 1.48 1.93 1.12 4.69-.79 6.17z"
                  fill="#308cef"/>
        </g>
        <g>
            <path d="m31.47 42.29c-.2 0-.4-.01-.59-.04-1.23-.16-2.32-.78-3.08-1.76-.03-.05-.06-.08-.08-.12-1.47-1.97-1.08-4.85.9-6.38.98-.76 2.19-1.09 3.42-.94.13.02.23.14.21.27s-.14.23-.27.21c-1.1-.14-2.18.16-3.06.84-1.77 1.37-2.13 3.95-.79 5.74l.05.07c.68.88 1.66 1.44 2.76 1.58s2.18-.16 3.06-.83c.11-.08.26-.06.34.04.08.11.06.26-.04.34-.82.64-1.81.98-2.83.98z"/>
        </g>
        <g>
            <g>
                <path d="m29.54 39.54c-.58-.24-.85-.9-.62-1.47.24-.58.9-.85 1.48-.62.58.24.85.9.62 1.48-.24.57-.9.85-1.48.61zm3.44.43c-.1.06-.22.07-.33.03-.07-.03-.13-.08-.18-.16l-2.42-4.05c-.06-.1-.07-.23-.03-.33.03-.07.09-.14.16-.18.1-.06.22-.07.33-.03.07.03.14.08.18.15l2.42 4.05c.06.11.07.23.02.34-.02.07-.08.13-.15.18zm-3.15-1.13c.19.08.41-.01.49-.21.08-.19-.01-.41-.21-.49-.19-.08-.41.01-.49.21s.02.41.21.49zm2.88-1.06c-.58-.24-.86-.91-.62-1.48.24-.58.9-.85 1.48-.62.58.24.85.9.62 1.47-.24.59-.9.87-1.48.63zm.29-.7c.19.08.41-.01.49-.21s-.01-.41-.21-.49c-.19-.08-.41.01-.49.21-.07.19.02.41.21.49z"
                      fill="#fff"/>
            </g>
        </g>
        <g>
            <path d="m51.75 28.97c-.44 0-.85.21-1.14.56s-.47.82-.47 1.35c0-1.05-.72-1.91-1.61-1.91.44 0 .84-.21 1.14-.55.29-.35.47-.82.47-1.35 0 .53.18 1 .47 1.35.29.34.69.55 1.14.55z"
                  fill="#fff"/>
        </g>
        <g>
            <path d="m16.21 16.05c-.44 0-.85.21-1.14.56s-.47.82-.47 1.35c0-1.05-.72-1.91-1.61-1.91.44 0 .84-.21 1.14-.55.29-.35.47-.82.47-1.35 0 .53.18 1 .47 1.35.29.34.69.55 1.14.55z"
                  fill="#fff"/>
        </g>
        <g>
            <path d="m11.44 36.7c-.44 0-.85.21-1.14.56s-.47.82-.47 1.35c0-1.05-.72-1.91-1.61-1.91.44 0 .84-.21 1.14-.55.29-.35.47-.82.47-1.35 0 .53.18 1 .47 1.35.29.34.69.55 1.14.55z"
                  fill="#fff"/>
        </g>
        <g>
            <path d="m52 31.44c-.26 0-.49.12-.66.32s-.27.48-.27.78c0-.61-.42-1.11-.93-1.11.26 0 .49-.12.66-.32s.27-.48.27-.78c0 .3.1.58.27.78s.41.33.66.33z"
                  fill="#fff"/>
        </g>
        <g>
            <g>
                <path d="m33.33 16.33c-.05.48-2.21.64-4.81 1.05-2.61.38-4.78.76-4.93.3-.15-.42 1.88-1.57 4.69-1.98 2.81-.43 5.11.17 5.05.63z"
                      fill="#fff"/>
            </g>
            <g>
                <path d="m37.63 17.15c-.07.2-.75.14-1.56-.04s-1.45-.44-1.43-.64c.03-.21.74-.28 1.59-.08.85.18 1.47.58 1.4.76z"
                      fill="#fff"/>
            </g>
        </g>
    </g>
</svg>