<svg id="Layer_1" enable-background="new 0 0 68 68" height="512" viewBox="0 0 68 68" width="512" xmlns="http://www.w3.org/2000/svg"><g id="_x36_"><g><g><g><path d="m63.5 12.2c-.1 2.9-1.3 5.6-2.4 8.2-1.5 3.4-2.9 5.2-17.3 25.1-.5.7-.6.9-1.5.4-1.5-.8-2.9-1.8-4.2-2.9 3.1-2.6 6.6-5.7 8.8-9 2.8-4.1 8.3-13.4 9.4-18.3 1-4.3-.2-5.4.3-6.7.7-1.8 3.3-1.2 4.7-.8.9.2 1.6.7 1.9 1.7.4 1 .4 2.2.3 2.3z" fill="#ef3a3e"/></g></g><g><g><path d="m45.7 42.8c-.6.9-1.3 1.8-1.9 2.7-.5.7-.6.9-1.5.4-1.5-.8-2.9-1.8-4.2-2.9.8-.7 1.7-1.5 2.6-2.2 1.8.2 3.4.8 5 2z" fill="#e2202a"/></g></g><g><g><path d="m56.7 9c3.2 1.1 5.4 1.5 6.9 3.2-.1 2.9-1.3 5.6-2.4 8.2-.4.8-.8 1.6-1.2 2.4 0-.4 0-.9.1-1.3.5-4.3-1.2-8.4-3.3-10.2v-2.3z"/></g></g><g><g><path d="m35.8 45.1c0 1.4-1.5 2.8-2.8 2.4-.6-.2-1.2-.7-1.7-1.1-15.6-13.2-19.1-15.3-22.6-19.8-1.4-1.8-2.5-3.8-3.2-5.9-.2-.8-.2-1.7 0-2.5.7-2.6 4.9-3.9 6.7-2.4.9.7.1 1.6-.1 2.5-.3 1.2-.2 3 .5 4.7 1.5 4.1 4.1 5.5 21.6 19.8.8.6 1.6 1.3 1.6 2.3z" fill="#ef3a3e"/></g></g><g><g><path d="m35.8 45.1c0 1.4-1.5 2.8-2.8 2.4-.8-.3-1.2-.7-4.7-3.6 1.2-1.2 2.7-2 4.2-2.5 1.9 1.6 3.2 2.5 3.3 3.7z" fill="#e2202a"/></g></g><g><g><path d="m12.1 18.5c-.2.2-.3.5-.5.8-.7 1.4-2.9 5.3-2.9 7.3-1.3-1.6-2.3-3.4-2.9-5.2 1.9-2.1 4.1-4 6.5-5.6.9.6-.1 1.6-.2 2.7z"/></g></g><g><g><g><circle cx="37.4" cy="53.3" fill="#fce67a" r="12"/></g></g><g><g><circle cx="37.4" cy="53.3" fill="#ffdc00" r="8.4"/></g></g><g><g><path d="m37.7 48.7c1.4 2.8 1.3 2.7 1.5 2.8l2.9.4c.2 0 .3.3.1.4-2.2 2.2-2.2 2.1-2.2 2.3l.5 2.9c0 .2-.2.4-.4.3-2.8-1.5-2.7-1.4-2.8-1.4l-2.6 1.4c-.2.1-.4-.1-.4-.3.5-3.1.6-3 .4-3.1l-2.1-2c-.2-.2-.1-.4.1-.4 3.1-.4 3-.4 3.1-.6l1.3-2.6c.2-.3.5-.3.6-.1z" fill="#fff"/></g></g></g><g><g><path d="m63.5 13c-.7-.3-1.4-.6-2.1-.9-1.1-.4-2.1-.9-3.2-1.2-13.7-3.9-31.1-2.2-49.6 9.5-.9.6-1.8 1.3-2.3 2.2-1.4-2-2-4.5-1.4-6.9.5-2.2 1.8-3.1 3.6-4.2 15.7-8.9 34.5-12 51.5-6.2 1.5.5 2.4 1.9 2.9 3.3.8 2 .9 2.5.6 4.4z" fill="#fc5b63"/></g></g></g><g><g><path d="m28.9 62.4c-5.7-5.4-5-14.7 1.6-19.1.2-.2.5-.1.7.1s.1.5-.1.7c-2.8 1.9-4.7 5.1-4.9 8.4-.3 3.3 1.1 6.8 3.5 9.1 5.6 5.3 14.9 3.4 17.6-3 .1-.3.4-.4.7-.3s.4.4.3.7c-3.2 7.3-13.4 9.2-19.4 3.4z"/></g></g><g><g><path d="m29.6 56.2c-1.1-2.2-1.1-4.9 0-7.1.3-.6 1.2-.2.9.4-.9 2-.9 4.3 0 6.3.1.3 0 .5-.2.7-.3.1-.6 0-.7-.3z"/></g></g><g><g><path d="m40.1 40.9c-.2-.2-.2-.5 0-.7 8.2-7.3 13.2-15.8 16-26.8.1-.3.3-.4.6-.4.3.1.4.3.4.6-2.8 11.2-8 19.9-16.3 27.3-.2.2-.5.2-.7 0z"/></g></g><g><g><path d="m4.5 14.8c-.2-.2-.1-.5.1-.7 12-8.7 27.4-12.9 42.2-11.7.3 0 .5.3.5.5 0 .3-.3.5-.5.5-14.6-1.2-29.8 3-41.6 11.5-.3.2-.6.1-.7-.1z"/></g></g></g></svg>