<svg id="Trophy" height="512" viewBox="0 0 1200 1200" width="512" xmlns="http://www.w3.org/2000/svg"><g><path d="m216.352 574.433c9.321 5.955 15.062 15.961 21.841 23.847-1.716 5.932-2.806 12.113-3.25 18.438-125.07 71.689-148.259 242.386-93.243 369.888 56.851 132.521 187.224 176.046 320.428 149.068 319.437-25.938 285.878-553.707-26.878-561.226-15.315.205-30.764.899-46.042 2.008-3.793-7.547-13.982-11.668-11.518-20.742.281-5.666.787-10.861.256-18.032 36.098-41.495 79.967-77.941 130.769-108.64 176.806 95.861 437.692 174.687 566.765 15.925 34.719-47.188 43.404-106.524 24.944-169.521-53.406-155.025-223.497-210.261-364.87-210.261-67.896 0-134.956 12.149-191.232 34.434-38.735-28.45-82.793-42.853-131.25-42.853-104.365-2.649-242.626 85.944-294.058 176.479-70.713 111.784-1.396 260.936 97.338 341.188z" fill="#fff"/><g><path d="m1069.57 286.078c-68.18-197.903-362.896-225.427-530.413-148.799-86.963-75.906-197.896-52.603-286.356 7.727-41.69 26.988-80.648 61.544-105.73 104.916-63.189 103.371 6.896 230.185 90.063 299.349 4.713 3.893 9.568 7.612 14.506 11.216 1.241 4.351 4.63 8.176 7.455 11.772 5.399 6.869 11.43 13.71 18.282 19.338-9.591 12.539-11.781 29.165-8.752 44.305-36.736 17.152-68.083 44.344-88.737 79.542-75.607 135.219-21.812 350.036 141.468 387.71 44.444 11.441 91.025 7.529 135.792.27 42.169-6.186 85.006-17.53 118.043-45.827 156.19-131.808 70.417-461.518-150.968-450.226-17.999.459-36.006 1.642-53.914 3.573-5.12-14.679-14.715-27.17-27.884-34.103 1.28-7.497 2.249-15.075 2.667-22.665.355-7.528 1.664-18.099-2.937-24.636 45.803-56.318 103.142-102.432 166.25-138.118 113.958 65.321 244.079 115.015 377.218 109.681 121.527-3.72 220.2-86.28 183.947-215.025zm-709.271-26.721c-.668.701-1.293 1.443-1.957 2.151 2.784-21.931 5.725-43.819 11.904-65.107 19.68-3.202 40.08-2.584 59.284 2.867-24.818 17.92-48.137 37.883-69.231 60.089zm298.289 69.56c98.434-25.945 207.172-36.916 304.782-2.581-88.091 69.142-209.515 41.391-304.782 2.581z" fill="#68182b"/><path d="m570.551 786.03c-14.891-55.257-45.526-112.89-98.359-139.854-103.702-50.285-252.689-11.621-295.42 101.79-56.176 139.484 12.817 336.582 178.432 349.705 178.974 16.59 258.55-157.504 215.347-311.641zm-40.816 187.363c-51.526 117.443-215.244 128.986-292.486 31.428-103.544-137.771-50.386-368.652 150.667-352.015 148.545 8.391 193.156 204.606 141.819 320.587z" fill="#fac135"/><path d="m528.737 797.058c12.748 46.68 13.614 97.133.636 143.862-6.591 23.73-17.922 45.994-33.635 64.625-8.266 3.719-20.034 8.443-28.146 2.408-5.264-9.28 7.182-19.02 11.418-26.606 14.39-21.315 25.111-45.176 31.324-70.138 13.773-55.008 4.763-115.144-26.343-162.772-6.091-10.852-21.144-21.718-15.536-35.445 2.422-4.43 7.385-6.49 12.197-7.191 23.876 24.979 39.142 58.51 48.085 91.257z" fill="#fbf199"/><path d="m275.829 688.188c2.094-1.26 4.272-2.406 6.434-3.575-14.034 11.749-26.235 25.632-35.788 41.51-52.985 93.754-31.328 231.151 57.049 296.113 28.899 19.395 63.111 31.846 97.999 35.39-14.311 2.149-28.938 2.424-43.451.76-168.773-14.798-219.413-282.583-82.243-370.198z" fill="#db9f6e"/><path d="m262.749 557.746c-.191-.218-.164-.434-.072-.659.002-.005.004-.009.007-.014.155-.364.519-.758.758-1.262 12.826-13.645 49.216-26.246 67.487-21.108.724.42 1.453.695 1.839 1.349 1.41 5.039 1.028 10.553.924 15.734-.263 6.975-1.086 13.926-2.206 20.818-2.84-.722-5.799-1.216-8.878-1.448-40.3-2.441-28.427 31.941-59.859-13.41z" fill="#ffe10e"/><path d="m445.774 618.885c191.614 12.356 258.424 290.096 135.291 417.817-26.33 27.161-61.672 43.698-98.651 50.312-3.422.717-6.863 1.383-10.299 2.053 40.247-19.586 73.302-52.104 93.446-92.26 52.604-111.498 31.108-270.436-68.602-349.069-20.524-14.787-44.798-23.856-69.695-28.977 6.176-.117 12.354-.133 18.51.124z" fill="#ffe10e"/><path d="m358.567 612.323c-26.854 3.658-53.875 8.682-79.045 18.922-8.554-51.84 62.342-68.011 79.045-18.922z" fill="#fbf199"/><path d="m917.886 486.157c-125.17 17.335-251.221-26.094-361.873-81.532-12.114-6.276-24.034-12.909-35.848-19.729 4.49-2.422 9.015-4.776 13.557-7.092 43.044 23.948 88.858 43.06 135.817 57.84 93.934 28.014 199.183 47.456 294.204 14.268 26.433-10.083 57.898-28.545 63.271-59.065 5.087-28.902-16.663-52.108-39.878-65.601-118.151-57.577-285.036-29.714-403.303 17.128-96.31 38.956-185.74 99.355-251.196 180.694-3.987-1.138-8.403-1.342-12.572-1.138 47.939-89.566 131.747-154.42 221.478-198.876 118.127-56.581 253.02-89.175 384.027-70.835 60.826 8.604 137.216 41.933 137.248 113.222-10.736 69.901-79.368 111.757-144.932 120.716z" fill="#ffa0b9"/><path d="m917.736 360.426c19.188-7.563 36.926-18.048 52.936-30.958 19.984 9.112 39.152 22.877 44.504 43.746 10.508 67.678-114.352 84.604-162.284 82.202-106.895-1.878-212.458-34.105-306.581-83.851 32.63-15.943 66.707-29.116 101.62-39.581 83.971 34.385 181.333 62.057 269.805 28.442z" fill="#ff5671"/><path d="m864.593 240.086c-139.287-.722-278.974 41.378-395.979 116.663-64.069 42.153-121.486 97.335-156.828 166.077-1.898.276-3.792.598-5.676.969 9.703-27.362 22.817-53.41 38.787-77.66 17.299-26.267 37.813-50.318 60.46-72.117 116.276-108.992 277.164-167.098 435.515-170.461 71.486.216 150.817 11.138 204.41 62.722 18.124 17.616 18.349 46.887 19.997 70.696-27.283-80.067-126.932-94.462-200.686-96.889z" fill="#ff7cc4"/><path d="m1038.72 244.842c2.456 3.946 4.702 8.046 6.846 12.213-10.426-9.634-22.149-17.873-34.568-24.729-21.055-11.624-44.039-19.618-67.406-25.104-177.845-36.979-389.354 29.058-525.954 146.161-44.895 39.269-83.07 87.014-107.466 141.654 12.932-44.063 33.145-85.755 59.776-123.359 98.633-137.254 267.857-213.839 434.409-221.156 53.837-1.925 108.524 3.576 159.765 20.769 29.674 19.183 55.838 43.378 74.598 73.551z" fill="#ff5671"/><path d="m659.69 167.252c-164.398 46.538-317.417 168.409-359.91 339.228-3.152 9.654-1.098 21.922-13.724 23.016 3.144-53.53 19.993-105.373 47.042-151.628 91.806-152.063 270.292-242.462 445.557-247.701 52.564-1.008 105.627 6.64 154.881 25.295-90.155-21.05-185.373-13.654-273.846 11.79z" fill="#ff7cc4"/><path d="m882.497 132.535c-178.115-40.678-432.61 49.493-544.971 225.062-31.128 47.622-51.85 101.93-57.411 158.706-.814 18.588.394 14.812-15.975 23.591-4.32-37.454-.025-75.753 10.254-111.914 74.116-241.909 372.849-376.854 608.103-295.445z" fill="#ffa0b9"/><path d="m372.466 189.073c9.089-27.333 26.339-55.792 58.558-55.686 23.258.079 45.486 11.873 64.818 24.632-20.425 10.85-40.224 22.935-59.203 36.175-20.581-6.893-42.737-8.116-64.173-5.121z" fill="#ff5671"/><path d="m377.685 103.421c52.743-9.28 108.037 5.12 150.2 38.798-6.874 3.072-13.638 6.375-20.317 9.856-121.315-82.128-153.759 17.967-162.67 124.432-11.145 12.999-21.504 26.648-31.018 40.862-1.346-66.42 5.765-171.765 63.805-213.948z" fill="#ffa0b9"/><path d="m361.879 106.94c-37.818 39.905-47.966 97.614-53.48 150.346-2.033 23.256-2.235 46.64-.902 69.94-7.117 11.313-13.672 22.965-19.626 34.938-11.758-72.022-8.055-148.5 19.013-216.803 3.265-7.866 7.031-16.148 12.165-23.159 13.977-5.995 28.189-11.414 42.83-15.262z" fill="#ff7cc4"/><path d="m188.622 213.039c16.769-18.32 35.994-34.523 56.055-48.677 19.809-13.978 40.995-26.562 63.118-37.047-8.461 15.997-14.322 33.182-19.071 50.595-16.908 63.253-18.302 130.459-5.918 194.653-11.473 24.675-20.096 50.62-25.529 77.359-39.338-53.01-63.504-117.697-69.917-183.293-1.5-17.834-1.34-35.868 1.262-53.59z" fill="#ff5671"/><path d="m160.019 250.729c47.726-72.679-16.48 15.734 68.267 167.348 7.992 14.256 17.029 27.935 27.265 40.683-1.967 11.248-3.31 22.59-4.012 33.971-57.361-61.385-101.095-156.956-91.52-242.002z" fill="#ff7cc4"/><path d="m149.713 269.534c.65-1.355 1.358-2.68 2.038-4.021-1.954 30.901 4.333 62.288 13.688 91.555 11.774 36.837 29.066 72.306 51.184 104.046 10.189 14.62 21.574 28.515 34.515 40.799-.578 15.293.243 30.613 2.46 45.756-79.385-62.409-152.35-177.037-103.885-278.135z" fill="#ffa0b9"/><path d="m269.607 778.803c5.282-18.311 15.862-43.147 38.479-42.084 18.039 2.683 11.632 23.8 8.549 35.894-3.789 19.821-4.502 40.229-2.021 60.257 8.057 70.282 54.013 131.516 114.412 166.46 3.475 2.316 10.034 7.081 8.298 12.146-6.953 10.773-24.632 8.381-35.599 6.508-47.112-10.648-87.569-39.413-112.489-80.871-28.1-46.862-36.1-106.033-19.629-158.31z" fill="#fbf199"/><path d="m464.425 1014.276c-10.703-7.7-2.345-21.189 3.394-28.997 50.707-67.271 57.051-165.301 8.74-235.581-12.493-15.267-28.783-39.313-1.612-49.54-3.24-3.031-6.593-5.941-10.128-8.645-36.968-26.88-86.088-33.496-131.459-24.931-79.956 32.356-112.318 118.595-102.269 199.996 11.79 111.612 96.299 189.776 210.257 179.597 16.202-7.019 31.445-17.198 44.033-29.527-7.343 1.77-15.058 1.873-20.956-2.372zm-110.662-192.013c5.577-1.181 11.214-2.026 16.818-3.058 7.234-.894 11.239-1.543 11.871-9.803 3.74-11.882 6.159-51.346 23.647-48.319 8.704 2.415 14.677 14.05 19.075 21.048 5.604 7.749 9.21 18 16.777 24 9.015-.677 18.221-4.967 27.276-6.787 7.349-1.727 22.086-5.055 24.969 5.206 2.395 17.09-19.705 28.94-18.065 45.839 6.182 13.822 18.729 26.822 19.604 42.801.958 10.307-7.72 15.073-16.858 12.289-17.306-3.139-32.83-15.405-50.738-15.145-15.158 5.984-23.553 22.676-36.111 32.6-5.681 5.079-15.448 12.866-22.327 5.148-9.772-14.332.137-34.606 2.393-50.003.038-.36.198-1.008.095-1.341-9.688-8.005-21.198-13.455-31.272-20.957-25.313-16.078-9.647-30.145 12.846-33.518zm86.302 196.975c-16.867 13.625-41.569 5.541-60.026-.161-94.098-30.596-144.852-140.591-119.46-233.956 5.46-20.653 14.043-46.707 36.552-53.94 24.627-7.369 35.167 13.815 27.958 34.908-21.792 89.546 28.911 183.497 107.423 227.276 8.576 5.715 17.353 16.852 7.553 25.873z" fill="#ffe10e"/><path d="m334.835 838.674c1.191-3.578 6.163-5.484 9.329-6.646 12.892-5.315 27.958-3.815 40.451-9.887 5.273-5.501 4.61-14.727 6.798-21.776 10.569-57.206 18.923-25.828 39.39 3.549 2.021 2.854 4.266 6.147 7.333 7.986 13.555 3.686 27.229-7.125 41.041-7.364 13.885-2.327 7.621 8.698 3.006 15.19-17.901 25.616-16.415 29.151-.407 54.689 2.789 6.049 10.928 18.959 5.125 24.523-20.47.927-39.001-18.076-60.147-15.338-19.644 5.712-28.306 29.154-45.556 39.068-18.135 10.418-1.932-39.486-1.823-46.06-.018-6.271-10.724-11.077-15.093-13.829-8.72-5.491-18.198-10.62-25.725-17.746-1.802-1.705-4.469-4.118-3.722-6.359z" fill="#ff801d"/><path d="m322.228 541.908c.047 10.996-8.824 16.537-17.359 21.081-8.253 4.395-13.994 9.789-16.771 18.012 6.318-1.92 12.943-11.151 34.51-9.845 3.079.232 6.038.726 8.878 1.448 1.12-6.892 1.943-13.843 2.206-20.818.104-5.182.485-10.695-.924-15.734-.387-.654-1.115-.929-1.839-1.349-2.854-.803-6.186-1.129-9.766-1.129.647 2.638 1.054 5.375 1.065 8.334z" fill="#f7b001"/><path d="m472.115 1089.066c3.437-.67 6.877-1.336 10.299-2.053 36.979-6.613 72.321-23.15 98.651-50.312 89.153-92.477 78.708-263.57-6.563-355.662 15.785 26.246 27.011 55.002 34.569 85.382 11.616 46.671 17.173 99.741 5.141 146.822-9.528 37.28-29.685 69.297-55.779 96.498-20.394 34.195-50.494 61.892-86.318 79.325z" fill="#f7b001"/><path d="m441.347 1046.176c14.412-6.242 28.054-14.999 39.756-25.533-10.27 6.062-21.239 10.978-33.395 14.067-29.972 7.616-62.041 2.676-90.677-7.706-43.712-15.849-77.098-49.068-97.842-90.111-18.023-35.664-26.118-76.221-27.373-115.945-.164-5.244-.209-10.609-.132-16.015-2.955 20.229-3.132 41.089-.594 61.646 11.79 111.612 96.299 189.776 210.257 179.597z" fill="#f7b001"/><path d="m427.263 618.761c24.897 5.12 49.171 14.189 69.695 28.977 73.059 57.615 104.073 158.333 94.768 251.925 5.968-25.174 6.501-51.763 4.976-77.453-2.687-45.272-16.271-89.82-41.944-127.385-21.556-31.54-51.643-55.854-85.465-72.96-7.621-1.431-15.451-2.46-23.519-2.979-6.156-.258-12.334-.242-18.511-.125z" fill="#f8f383"/><path d="m351.076 679.021c18.513-1.484 36.986 3.164 54.481 8.698 19.136 6.053 37.993 14.485 55.225 25.342 1.457-5.188 5.698-9.716 14.164-12.902-3.24-3.031-6.593-5.941-10.128-8.645-36.968-26.88-86.088-33.496-131.459-24.931-42.041 17.014-70.905 48.931-87.383 87.201 25.956-36.842 59.322-71.094 105.1-74.763z" fill="#f8f383"/><path d="m479.01 981.347c-4.236 7.587-16.683 17.326-11.418 26.606 1.057.787 2.181 1.373 3.346 1.818 6.608-22.059 26.646-39.902 36.041-60.906 11.597-25.935 17.785-54.704 18.062-83.051.276-28.492-6.175-57.296-17.501-83.355-6.548-15.066-15.441-29.019-24.749-42.5-4.958-7.178-13.04-17.325-14.248-27.08-.025.042-.065.069-.088.112-5.608 13.728 9.445 24.594 15.536 35.445 31.106 47.629 40.116 107.765 26.343 162.772-6.214 24.963-16.935 48.823-31.324 70.139z" fill="#f3af79"/><path d="m358.567 612.323c-2.545-7.481-6.359-13.427-10.951-17.98-7.09 7.812-16.083 13.582-27.063 17.274-11.448 3.847-28.079 6.707-40.896 2.64-1.017 5.125-1.156 10.794-.135 16.988 25.169-10.24 52.191-15.264 79.045-18.922z" fill="#f3af79"/><path d="m327.526 912.816c11.857 25.106 28.828 46.633 50.836 63.572 10.026 7.717 21.324 14.261 33.01 19.106 5.971 2.476 14.605 6.606 22.669 7.771-1.673-1.619-3.593-2.991-5.015-3.938-60.399-34.944-106.354-96.178-114.412-166.46-2.48-20.028-1.768-40.436 2.021-60.257 3.083-12.094 9.489-33.211-8.549-35.894-.578-.026-1.113.034-1.673.039 1.877 2.455 3.085 5.668 3.249 9.806.362 9.146-2.152 18.814-3.575 27.846-2.643 16.757-3.29 33.239-2.078 50.165 2.193 30.62 10.428 60.53 23.517 88.244z" fill="#f3af79"/><path d="m553.856 852.766c-1.794-51.104-19.583-102.809-49.07-144.515-14.124-19.978-32.122-37.105-53.435-49.188-21.594-12.239-46.653-16.541-71.17-17.601-50.509-2.186-102.373 14.864-139.269 49.845-33.229 31.501-50.069 78.453-53.048 123.82 12.752-93.999 80.05-172.253 200.052-162.322 133.355 7.533 182.926 166.431 154.533 282.765 9.22-26.306 12.381-55.074 11.407-82.804z" fill="#ee9e2b"/><path d="m355.203 1097.672c178.976 16.589 258.551-157.505 215.348-311.642-7.832-29.062-20.071-58.737-37.553-84.305 12.917 24.575 22.167 51.028 28.77 77.947 13.818 56.325 15.678 116.805-1.882 172.457-17.409 55.169-54.874 101.808-109.759 122.469-56.286 21.189-124.607 17.317-176.738-13.137-58.841-34.375-90.652-102.688-104.36-166.819-8.032-37.584-9.04-75.384-3.359-112.129-33.377 135.37 37.199 303.089 189.533 315.159z" fill="#ee9e2b"/><path d="m226.444 775.241c4.709-17.2 11.347-33.753 20.031-49.118 9.553-15.878 21.754-29.761 35.788-41.51-2.161 1.169-4.34 2.315-6.434 3.575-61.036 38.985-84.858 113.639-77.662 185.807 1.652-17.867 4.765-35.459 9.516-52.4 4.55-16.222 10.976-31.634 18.761-46.354z" fill="#c98450"/><path d="m358.072 1058.386c14.513 1.664 29.141 1.39 43.451-.76-25.581-2.6-50.777-10.027-73.804-21.428-10.989-1.644-21.773-4.131-32.217-7.575-12.866-4.246-24.78-9.955-35.818-16.843 25.693 25.732 58.789 43.134 98.388 46.606z" fill="#f9c6a0"/><path d="m379.374 876.61c-.108 6.573-16.312 56.478 1.823 46.06 17.25-9.914 25.912-33.356 45.556-39.068 21.146-2.738 39.678 16.265 60.147 15.338 5.804-5.564-2.336-18.475-5.125-24.523-15.547-24.803-17.342-28.911-1.037-52.59-10.796 7.556-21.347 15.446-31.423 24.021-9.168 7.803-17.684 16.348-26.779 24.243-7.445 6.463-15.894 15.354-25.125 19.205-3.825 1.597-3.002-22.424-2.988-23.99.036-4.019-1.871-9.021-5.323-11.305-5.237-3.465-10.858-3.953-17.027-3.852-12.273.205-23.442-1.894-34.492-6.047.335.326.668.644.974.934 7.526 7.126 17.004 12.255 25.725 17.746 4.37 2.751 15.076 7.557 15.094 13.828z" fill="#ef6200"/><path d="m391.413 800.365c-1.725 5.557-1.72 12.439-4.205 17.81 2.436-1.275 4.655-2.888 6.523-4.909 4.41-4.773 5.397-12.669 6.611-18.707.762-3.793 1.628-7.49 2.835-11.166 1.639-4.992 4.646-7.731 8.287-9.463-8.012-10.358-13.624-8.352-20.051 26.435z" fill="#facb1a"/><path d="m262.909 426.608c-7.561-9.256-14.509-19.107-20.675-29.867-14.654-25.574-23.694-54.063-28.518-83.047-4.331-26.008-4.29-52.396-2.759-78.643.972-16.667 2.971-33.806 7.252-50.199-10.409 8.786-20.391 18.138-29.588 28.187-2.602 17.722-2.762 35.756-1.264 53.59 6.413 65.596 30.58 130.283 69.917 183.293 1.596-7.848 3.498-15.616 5.635-23.314z" fill="#df3f58"/><path d="m970.671 329.468c-8.578 6.917-17.665 13.112-27.193 18.56 3.486 14.695-2.063 30.373-9.612 42.894-12.388 20.542-34.138 32.396-56.622 38.63-44.049 12.212-92.916 5.106-136.992-3.292-33.988-6.477-68.033-16.921-99.473-31.349-19.201-8.811-43.447-22.952-52.457-41.913-14.214 5.736-28.266 11.851-42.012 18.567 94.123 49.745 199.687 81.973 306.581 83.851 47.933 2.401 172.792-14.524 162.284-82.202-5.352-20.868-24.519-34.634-44.504-43.746z" fill="#df3f58"/><path d="m857.876 187.396c-131.518-6.879-268.042 30.121-374.94 107.94-22.644 16.484-42.988 35.644-62.457 55.684 136.678-115.61 346.481-180.525 523.112-143.798 23.367 5.487 46.352 13.481 67.406 25.104 12.419 6.856 24.143 15.095 34.568 24.729-2.144-4.167-4.39-8.267-6.846-12.213-4.43-7.124-9.303-13.888-14.506-20.359-1.32-.625-2.621-1.281-3.951-1.891-51.012-23.409-106.716-32.284-162.386-35.196z" fill="#df3f58"/><path d="m380.981 168.716c-3.427 6.543-6.23 13.485-8.516 20.357 21.437-2.995 43.593-1.772 64.173 5.121 7.623-5.318 15.41-10.396 23.287-15.336-4.943-3.526-10.735-6.094-16.089-7.882-18.927-6.324-42.396-8.031-62.855-2.26z" fill="#df3f58"/><path d="m307.794 127.315c-8.073 3.827-15.968 8.017-23.771 12.368-2.134 5.072-4.124 10.193-6.033 15.293-10.274 27.46-18.902 55.69-22.541 84.867-3.906 31.337-3.308 62.866 3.512 93.76 3.081 13.96 7.927 27.44 13.892 40.408 1.226 2.663 3.041 6.002 5.307 9.013 1.496-3.51 3.034-7 4.644-10.461-12.383-64.194-10.989-131.4 5.918-194.653 4.75-17.413 10.611-34.597 19.072-50.595z" fill="#ff9780"/><path d="m885.622 369.933c-79.475 17.364-163.77-7.679-237.692-37.948-9.89 2.964-19.688 6.204-29.429 9.604 30.103 22.604 73.021 30.692 108.346 35.983 43.486 6.515 89.939 8.809 133.188-.535 8.207-1.775 16.904-4.134 25.587-7.104z" fill="#ff9780"/><path d="m804.356 150.521c-147.074 6.461-296.194 66.97-396.989 175.538 31.848-31.787 67.474-59.565 106.52-82.141 113.722-65.749 251.716-84.354 380.769-67.86 34.779 4.445 70.398 11.707 104.821 22.341-10.982-9.96-22.829-19.011-35.356-27.108-51.241-17.194-105.928-22.694-159.765-20.77z" fill="#ff9780"/><path d="m388.746 156.292c29.352-10.895 63.032-13.863 93.448-6.706-15.871-9.083-33.211-16.139-51.171-16.2-18.7-.06-32.331 9.526-42.277 22.906z" fill="#ff9780"/><g fill="#ed7490"><path d="m791.716 122.915c-9.021-.965-18.008-1.675-26.896-2.069-118.644-5.24-236.438 44.888-328.737 116.769-57.575 44.838-107.405 98.038-137.634 165.173-18.255 40.539-29.48 87.396-25.077 132.358 6.658-3.532 6.132-4.866 6.744-18.844 5.561-56.776 26.282-111.084 57.411-158.706 94.326-147.388 288.806-234.551 454.189-234.681z"/><path d="m137.282 371.41c12.754 69.019 63.059 134.392 116.314 176.259-.699-4.783-1.209-9.586-1.632-14.396-34.121-24.755-62.628-57.536-84.729-93.183-13.281-21.413-23.838-44.273-29.953-68.68z"/><path d="m991.281 458.692c-50.328 22.875-106.991 27.681-161.539 23.61-51.677-3.854-103.041-16.527-151.864-33.599-33.23-11.621-66.142-26.532-95.521-46.383-16.532-7.535-32.774-15.693-48.634-24.517-4.542 2.316-9.067 4.67-13.557 7.092 11.814 6.82 23.734 13.454 35.848 19.729 110.652 55.438 236.703 98.867 361.873 81.532 31.953-4.367 64.618-16.568 90.973-36.001-5.894 3.062-11.8 5.91-17.579 8.537z"/><path d="m583.833 342.373c118.267-46.842 285.151-74.705 403.303-17.128 23.215 13.492 44.965 36.698 39.878 65.601-.394 2.235-.965 4.385-1.626 6.492 5.961-5.869 10.391-13.085 11.635-21.668 1.859-12.84-5.055-25.151-12.766-34.793-28.783-35.995-81.442-52.298-124.818-60.013-63.455-11.286-130.195-5.313-192.587 9.222-85.311 19.872-167.288 58.297-241.478 104.39-52.522 32.628-105.393 73.911-138.032 127.632 1.806.187 3.594.475 5.296.96 65.456-81.339 154.885-141.739 251.195-180.695z"/><path d="m377.375 137.68c-17.272 20.813-24.778 50.107-30.922 75.769-3.703 15.478-6.626 31.158-9.921 46.728-2.091 9.88-3.813 20.168-3.038 30.28 3.715-4.718 7.493-9.386 11.403-13.948 8.714-104.096 39.939-202.069 154.713-129.619-4.594-3.94-10.45-6.838-15.37-9.568-12.232-6.782-24.688-12.179-37.777-17.05-26.985-10.038-50.526-4.959-69.088 17.408z"/></g><path d="m345.426 158.444c13.787-22.39 31.544-40.998 56.118-51.184 6.417-2.66 13.049-4.632 19.806-6.157-14.533-.929-29.192-.227-43.665 2.318-29.741 21.616-46.088 59.823-54.8 100.875 6.127-15.916 13.533-31.225 22.541-45.852z" fill="#ffe1dc"/><path d="m312.314 349.85c18.954-25.877 38.747-50.62 61.366-73.415 43.381-43.721 94.343-80.464 148.983-108.759 55.697-28.841 115.782-46.745 177.495-57.04 1.526-.254 3.054-.472 4.582-.717-168.841 11.419-334.817 110.05-408.258 261.882 5.171-7.377 10.496-14.665 15.832-21.951z" fill="#ffe1dc"/><path d="m541.543 323.053c-40.643 20.137-80.027 44.506-115.458 73.412 17.256-12.215 35.243-23.449 53.655-33.797 56.922-31.994 118.732-56.583 181.447-74.539 71.656-20.515 147.56-31.4 222.085-26.698 36.99 2.334 75.066 7.09 111.053 16.147 7.357 1.851 14.501 4.236 21.497 6.976-26.534-17.834-60.275-28.098-90.253-32.336-131.006-18.341-265.899 14.254-384.026 70.835z" fill="#ffe1dc"/><path d="m216.622 461.114c-22.117-31.74-39.41-67.208-51.184-104.046-9.354-29.267-15.642-60.653-13.688-91.555-.68 1.341-1.388 2.665-2.038 4.021-5.042 10.515-8.698 21.183-11.241 31.918 4.002 31.573 14.081 62.767 26.909 90.646 8.88 19.296 20.18 36.845 33.42 53.408 8.253 10.324 17.794 21.306 28.661 30.141-3.74-4.753-7.387-9.58-10.839-14.533z" fill="#ffe1dc"/><path d="m659.69 167.252c54.511-15.676 111.579-24.466 168.448-24.009-58.814-5.035-119.589 2.745-176.374 17.29-53.164 13.615-104.062 34.537-149.818 65.018-46.491 30.971-87.504 71.199-123.449 113.751-44.29 52.432-81.451 118.604-86.556 188.343 6.119-3.982 5.307-13.411 7.839-21.165 42.493-170.819 195.512-292.69 359.91-339.228z" fill="#f55091"/><path d="m1023.398 280.926c-51.953-51.085-143.932-54.638-210.904-50.507-111.882 6.899-228.292 39.842-324.055 98.676-44.688 27.456-84.073 63.464-118.857 102.523-16.341 18.352-31.573 37.841-44.539 58.733-6.38 10.281-12.323 21.362-16.301 32.995 1.014-.176 2.026-.371 3.045-.52 35.342-68.742 92.759-123.924 156.828-166.077 117.005-75.285 256.692-117.385 395.979-116.663 51.464 1.693 115.509 9.247 158.804 40.84z" fill="#f55091"/><path d="m252.59 481.055c-9.51-10.739-18.821-21.609-27.24-33.458-13.515-19.015-24.441-39.687-34.641-60.62-12.707-26.08-22.799-52.538-29.786-79.816 9.164 68.508 45.711 137.513 90.617 185.569.24-3.899.658-7.787 1.05-11.675z" fill="#f55091"/><path d="m308.399 257.286c2.593-24.789 6.253-50.662 13.287-75.288-9.401 22.761-15.819 46.887-19.547 71.091-3.976 25.819-4.92 52.145-3.274 78.204.193 3.063.414 6.184.661 9.325 2.595-4.502 5.203-8.995 7.971-13.393-1.333-23.299-1.131-46.683.902-69.939z" fill="#f55091"/><path d="m840.872 203.557c-131.086 2.784-263.886 43.123-371.701 118.747 78.623-47.004 163.386-83.115 253.978-100.758 101.262-19.721 220.002-15.657 312.449 36.116-53.185-44.182-127.421-53.903-194.726-54.105z" fill="#ffbcdf"/><path d="m294.999 215.951c5.943-35.949 16.424-69.148 35.544-98.491-3.85 1.529-7.684 3.107-11.495 4.742-5.134 7.011-8.9 15.293-12.165 23.159-22.48 56.727-28.806 119.087-23.58 179.857.306-12.772.679-25.541 1.837-38.272 2.151-23.672 5.983-47.552 9.859-70.995z" fill="#ffbcdf"/><path d="m226.246 414.268c-73.104-133.809-30.395-216.972-54.84-180.84-4.931 36.184 4.796 74.968 16.876 108.222 9.328 25.677 21.493 50.898 37.964 72.618z" fill="#ffbcdf"/></g></g></svg>