<svg id="Layer_1" enable-background="new 0 0 40 40" height="512" viewBox="0 0 40 40" width="512"
     xmlns="http://www.w3.org/2000/svg">
    <g id="_x31_06">
        <g>
            <g>
                <g>
                    <g>
                        <g>
                            <g>
                                <g>
                                    <g>
                                        <g>
                                            <g>
                                                <g>
                                                    <g>
                                                        <g>
                                                            <path d="m32.8469162 16.5421047c-1.4172192.5989208-3.4372406 2.6641922-3.7499981 2.9499512-.1000004-.0725441-11.575882-6.6252518-9.2299805-8.4000235 2.3566074-1.806654 3.4957943-5.5885758 3.9700317-6.1600347.4599609-.5499268 4.4199829-2.6499021 8.7999859 1.8601074 3.3165055 3.4368559 4.589695 7.9449631.209961 9.7499996z"
                                                                  fill="#c9cee2"/>
                                                        </g>
                                                        <g>
                                                            <path d="m30.5569401 6.5320954s1.3905315 1.830399-.5417404 3.7522693-3.7393055 4.3609095-3.7393055 4.3609095l-2.0844574-1.3655558 3.7662506-5.95784z"
                                                                  fill="#b0b8cf"/>
                                                        </g>
                                                        <g>
                                                            <path d="m32.8469162 16.5421047c-1.4699688.619873-3.7499981 2.9499512-3.7499981 2.9499512s-2.9199829-1.6799316-5.5299683-3.5600576c-.0200195-.0100098-.039978-.0300293-.0599976-.0400391.0299683-1.0098877.210022-2.0198975.3900146-3.0098877 2.3930035.6318998 3.1917343.3810549 3.9716415 1.5604944.4100342.6199951.7583389.8095007 1.338356 1.2694616 1.0999756.8400869 2.6592484.4206934 3.8200054-.3399658 1.7514267-1.1477318 1.946064-2.1429749 1.986042-3.5329895.039978-1.0899658-.4170914-2.3722248-.9960518-3.407074 2.1993678 3.0676671 2.5056155 6.5952435-1.1700437 8.1101065z"
                                                                  fill="#b0b8cf"/>
                                                        </g>
                                                        <g>
                                                            <path d="m30.6769352 8.0421057c-.1847.2199202-.572979.6876822-.8747444 1.0489178-.0715637.0856686-.1873093.1132479-.2902966.0701866-.4456406-.1863279-1.3135548-.5452051-2.0252476-.5452051 0 0 .8967724.4822502 1.2398529 1.2058878.1010914.2132244.067524.4629879-.0844193.6435356-1.4599648 1.7348118-3.2979736 3.923975-4.8351402 5.7666178-2.5899658-1.8800039-4.9400024-4.0700674-3.7799683-4.9499502 2.3763695-1.8334599 3.4854679-5.5762062 3.9699707-6.1600347 3.3400269-1.4400632 5.5800171.3099365 6.5599976 1.4100342.3400269.369873.4500123 1.1298827.1199952 1.5100102z"
                                                                  fill="#f1f6fa"/>
                                                        </g>
                                                        <g>
                                                            <path d="m30.436945 7.7520661c-.8940125 1.0431647-.8710575 1.0934653-.9817009 1.0542769-.4703407-.1665878-1.1585045-.3743448-1.7382698-.3743448 0 0 .6799927.6500244 1 1.3701172-1.5100098 1.7799072-3.5100098 4.1499023-5.1500244 6.1298828-2.5900269-1.8798828-4.8599854-3.9599609-3.7000122-4.8399658 2.376524-1.8332596 3.4855289-5.5762062 3.9700317-6.1600347 3.3399658-1.4499509 5.5999756.3900146 6.5799561 1.4799805.3400268.380127.3500366.9500733.0200195 1.3400879z"
                                                                  fill="#e3e7f0"/>
                                                        </g>
                                                        <g opacity=".5">
                                                            <path d="m29.7569523 18.8420315c-.4000244.3900146-.6600342.6500244-.6600342.6500244-.1000004-.0725441-11.575882-6.6252518-9.2299805-8.4000235.2999878-.2299805.5900269-.5.8500366-.7999268 1.3299561-.0700684 3.0099487.3199463 4.8699951 1.8099365 2.0950776 1.6823913 4.048401 4.06767 4.169983 6.7399894z"
                                                                  fill="#9ea9c9"/>
                                                        </g>
                                                        <g>
                                                            <path d="m29.3669376 19.9219875c-.1153851 2.5363674-3.8757 4.4170475-6.289978 8.9200439l-3.2000122-4.5-9.4099741-5.2700195c.3306217-1.4385452 4.1925497-4.5823021 6.8999643-7.2399893.6799927-.6800537 3.8500366-2.4899902 7.8200073.6900635 2.313572 1.8578473 4.3274174 4.4500571 4.1799927 7.3999014z"
                                                                  fill="#ffd475"/>
                                                        </g>
                                                        <g>
                                                            <g>
                                                                <path d="m22.4829617 20.1225071c-1.7597313-1.3090553-1.7596035-1.2290592-1.8793716-1.4446945-.1722584-.2607155-.083231-.414484-.1975784-2.4338341-.0243568-.5594234.4531326-.644124 1.8237686-1.936698.4379292-.3771143.8230476-.0453444 2.6552849.2151442.567503.1125107.5260582.5785427 1.4852905 2.209837.104866.188797.1145954.4122658.026535.6094627-.8147583 1.7146339-.734499 2.1836357-1.2876091 2.3306065l-2.02635.5563564c-.2058812.0611019-.4231568.0172005-.5999699-.1061802z"
                                                                      fill="#f3a250"/>
                                                            </g>
                                                        </g>
                                                        <g>
                                                            <path d="m23.0769596 28.8420315-3.2000122-4.5-9.4099741-5.2700195c.1299438-.5599365.7799683-1.3599854 1.6799927-2.289917.8699951-.8901358 2.1999512-1.1900625 3.3499756-.7199707 2.1060476.8503304 2.057126.117012 3.6300058.2598877 1.3082924.1164036 2.6641922.8674564 3.4500122 2.0999756.3299561.5300293.5700073 1.1500244.8699951 1.710083.2799683.5499268.6199951 1.0499268 1.1400146 1.3699951 1.8233433 1.1064358 4.6796684-.5716953 4.2599487-4.4300537 2.1589528 5.2498874-2.5419234 5.7492408-5.7699584 11.7700195z"
                                                                  fill="#ffb961"/>
                                                        </g>
                                                        <g>
                                                            <path d="m22.8769474 26.6619778c-.0725956 1.1603413-.7661076 1.0629025-1.4199829 2.710083-.8099976 2.039917-2.5777721 3.8101673-2.5777721 3.8101673l-8.1122313-5.7202015s-6.0499873-3.4099121-5.8500361-4.5c-.0100098-.0100098 0-.0200195 0-.0300293.3200073-1.0499268 2.2300415-2.0599365 4.3600459-2.5899658 1.5299683-.3900146 2.5099487-1.1900635 2.9199829-1.5999756.1599731-.1600342.2399902-.2600098.2399902-.2600098 2.5619192-2.722085 10.7135897 3.7569027 10.4400034 8.1799317z"
                                                                  fill="#c9cee2"/>
                                                        </g>
                                                        <g>
                                                            <g>
                                                                <path d="m12.0293579 35.4624176c-4.510016-1.8913689-7.498044-5.4813938-7.5866761-10.3412991-.0260959-1.4729023.4258876-2.5025158 1.34372-3.0611725 1.8982339-1.1536674 5.3713751-.0094986 7.3339682 1.0284634l.4316597 2.5669289c.1721144.0985165.3439951.2039833.5166063.3166866 2.5810661 1.6842079 3.4171066 4.636591 3.1851883 6.1944981-.4803067 3.2422027-2.2037612 4.5680847-5.2244664 3.2958946z"
                                                                      fill="#9ea9c9"/>
                                                            </g>
                                                        </g>
                                                        <g>
                                                            <path d="m8.7050724 24.8733311 3.2637262-2.1218357c4.2795935 1.9401016 6.4907446 5.8227139 6.9103918 10.430748-.6215916.7361603-2.1129608 1.7110596-3.0464792 2.2781982.8126993-1.1306152 1.2109308-2.4714661 1.2653589-3.8205738-.4225521-4.888258-3.5926008-6.7835121-8.3929977-6.7665367z"
                                                                  fill="#c9cee2"/>
                                                        </g>
                                                        <g>
                                                            <path d="m19.7370548 19.6756496c-.783287.0815334-1.2139111.3882542-2.0925903.9128418-3.0532484 1.8222752-4.4058275 1.3863106-5.9768686 1.6854248-.6963501.1325684.7330933-.0845947.3012085.4775391l-.9347534.6077881c1.494873.2354736 2.8858528 1.8598232 4.3941536 1.9833584.6094961.0499268 1.2825079-.356535 1.8625669-.6780319 1.0613117-.5882282 3.1815777-1.933424 3.8690128-2.8552532-.3098145-.2977295-.5646362-.6397705-.767334-1.0115967-.2775879-.3363038-.4899292-.7180176-.6553955-1.1220704z"
                                                                  fill="#b0b8cf"/>
                                                        </g>
                                                        <g>
                                                            <g>
                                                                <path d="m15.6855402 32.6126289c-.2509775.9416466-.7948303 1.5231209-1.5734873 1.6795044-2.2091913.4445877-4.995388-2.1087875-5.5795631-3.305151-.6887941-1.4113369-1.2622256-4.0291214-.3806744-5.4305744.8911734-1.4147911 3.3789053-1.240427 5.9168205.415617 1.1330023.7396584 1.9289255 1.7216663 2.44664 2.724802l-.0452785.2480888c.7354298.9700318-.4145336 2.2770024-.7844572 3.6677132z"
                                                                      fill="#c9cee2"/>
                                                            </g>
                                                        </g>
                                                        <g>
                                                            <path d="m12.8012018 30.4510403 1.7486525-2.1955357s-2.1759329-1.7480316-3.4647398-.6930466 1.7160873 2.8885823 1.7160873 2.8885823z"
                                                                  fill="#e3e7f0"/>
                                                        </g>
                                                        <g>
                                                            <path d="m17.0950584 32.028614-2.0051832 1.864109c.9029083-1.7103043.5333824-3.9973774-.0987053-5.0541687-.6647959-1.1114769-2.0517216-1.9256382-3.9551888-1.5714836l2.2531004-1.7042236c2.3559428 1.3581353 3.9007588 3.412798 3.8059769 6.4657669z"
                                                                  fill="#b0b8cf"/>
                                                        </g>
                                                        <g>
                                                            <path d="m19.5669498 20.612051c-2.0300293 1.8399658-5.0200205 3.6500244-5.0200205 3.6500244s-.0999756-.0800781-.289978-.2099609c-2.703146-1.8758373-7.0602207-3.4155331-9.3400269-1.0900879-.0100098-.0100098 0-.0200195 0-.0300293.3200073-1.0499268 2.2300415-2.0599365 4.3600459-2.5899658 1.5299683-.3900146 2.5099487-1.1900635 2.9199829-1.5999756.1599731-.1600342.2399902-.2600098.2399902-.2600098 1.3800049-1.4699707 4.3900156-.2600098 6.830018 1.8599854.0999762.0899658.2000129.1800537.2999884.2700195z"
                                                                  fill="#e3e7f0"/>
                                                        </g>
                                                        <g>
                                                            <path d="m19.5669498 20.612051c-2.0300293 1.8399658-5.0200205 3.6500244-5.0200205 3.6500244s-.0999756-.0800781-.289978-.2099609l.1599731-.3100586c-.0558472-.0064697 3.1133127-1.7723389 4.8500376-3.4000244.0999756.0899658.2000123.1800537.2999878.2700195z"
                                                                  fill="#f1f6fa"/>
                                                        </g>
                                                        <g>
                                                            <g>
                                                                <path d="m14.3169489 24.2420559c-.4000244-.2600098-.7800293-.4899902-1.1500244-.6999512-1.8914404-1.005064-5.3365188-2.2415352-7.1599727-1.1401367-.7999878.4899902-1.1900024 1.4101563-1.1699829 2.7399902.1099854 6.0400391 4.6399531 8.83008 7.3199458 9.9600849 2.8126917 1.1649017 4.2738581-.054493 4.7000132-3.0200195.2200317-1.4499531-.5700073-4.1999531-2.9899912-5.7799091-1.289978-.8400879-2.5800171-1.3100586-3.6400146-1.3100586-.8099976 0-1.4099731.2800293-1.7299805.7900391-.7999873 1.2700195-.2399902 3.7600098.3900146 5.0499268.6151104 1.2712688 3.3032761 3.433588 5.1199951 3.0699482 1.8745041-.3747025 1.7443008-4.0212936.5100098-5.3999043-.8573322-.9728508-3.1330681-1.5388508-3.3500366-.4899902-.1999512 1.0999756 1.5 2.0899658 1.5200195 2.0999756.229125.1335602.1472855.4699707-.0999756.4699707h-.0200195l-.0999756-.039917c-.0900269-.0400391-2.0600586-1.1700439-1.7900391-2.6401367.2932806-1.596241 3.1132813-.958149 4.210022.2800293 1.568881 1.7828102 1.5854387 6.2600117-1.3099976 6.2600117-2.1199951 0-4.5599976-2.2399902-5.1300049-3.409914-.7000117-1.4300537-1.2800288-4.0900879-.3800049-5.5300293.4099731-.6500244 1.1500244-1 2.1300049-1 1.1599731 0 2.5599976.4899902 3.9299927 1.3898926 2.6199961 1.7000732 3.4600229 4.7000732 3.2299814 6.290041-.50704 3.3143768-2.2454491 4.6614914-5.3699961 3.3701172-4.4782324-1.8783073-7.5608516-5.4872169-7.6400142-10.4300556-.0299683-1.5100098.4400024-2.5699463 1.3900146-3.1500244 2.2015419-1.3456078 6.4260201.2638264 8.7300415 1.8000488.2952802.2327116.1432635.6507585-.1500247.4699705z"
                                                                      fill="#f1f6fa"/>
                                                            </g>
                                                        </g>
                                                        <g>
                                                            <path d="m23.5747166 27.7612743c-.2627869 1.4398937-1.6368713 1.9536095-2.3293743 2.1221504.0682049-.1653957.1386127-.3372269.2092571-.515995.6558571-1.6510754 1.3414974-1.5035515 1.4191189-2.7029247.287159-4.4223633-7.8802691-10.9002914-10.4341574-8.1841698 0 0-.717658.9088249-2.1773891 1.5258751.0445976-.4639549.1819525-1.1546383.5906315-1.6316452.6665421-.7807388 4.1055107-2.6543274 8.3438444.7424469 4.2391338 3.3979893 4.7326278 6.7015152 4.3780689 8.6442623z"
                                                                  fill="#f3a250"/>
                                                        </g>
                                                    </g>
                                                </g>
                                            </g>
                                        </g>
                                    </g>
                                </g>
                            </g>
                        </g>
                    </g>
                </g>
            </g>
            <g>
                <g>
                    <g>
                        <g>
                            <g>
                                <g>
                                    <g>
                                        <path d="m23.4469547 20.1320705c-.9475765.2161198-.4570675.311842-2.6600342-1.25-.1399364-.0875931-.269352-.292778-.289978-.5400391l-.0700073-1.6900635c2.0282841.7928735 2.486372 2.4838182 3.0200195 3.4801026z"
                                              fill="#dd8536"/>
                                    </g>
                                </g>
                                <g>
                                    <g>
                                        <path d="m22.6360798 19.8643608c-1.6829662-1.2519493-1.7179127-1.1984749-1.8362617-1.4115562-.1651974-.2500286-.07691-.3270626-.1930466-2.3780041-.0238037-.5467119.4451103-.631587 1.7819328-1.8922729.428442-.3689442.8229618-.0416327 2.5943775.2102089.5546112.1099548.5160828.5688295 1.4512196 2.1591473.1024609.1844654.1119671.4028072.0259266.5954819-.7667713 1.6136475-.7159328 2.133091-1.2580738 2.2771454l-1.9798679.5435944c-.2011586.0596998-.4134503.0168055-.5862065-.1037447z"
                                              fill="#cc104a"/>
                                    </g>
                                </g>
                                <g>
                                    <path d="m22.9296932 19.9858227c-.3087749-.0594559-.292038-.1529217-1.9521065-1.331955-.0768204-.0513363-.1346378-.1234074-.1777687-.2010632l.4564686-.3629246 1.9812603 1.3157558z"
                                          fill="#df3260"/>
                                </g>
                                <g>
                                    <path d="m21.2334881 18.3335457c-.4327793-.315382-.2124214-.7218056-.3583317-2.4971704-.0234299-.5381441.4431076-.6268559 1.7285576-1.8372736.1525536-.1324072.356945-.1885481.5551338-.1524925 1.7406616.3878441 2.1722336.2249594 2.4249229.6968937.7799358 1.5999298 1.178133 1.8366337.9664879 2.330883l-.7853031 1.8306713c-.2107811.4922771-.656826.3681602-2.3551502.9056664-.5160885.1428851-.6974583-.2841054-2.1763172-1.2771779z"
                                          fill="#fa5f7f"/>
                                </g>
                                <g>
                                    <path d="m25.3307343 19.0833893c.4826336-.1332474.4771347-.6041927.8073387-1.2481289-2.3827057 1.177412-4.6337318-.8192444-4.539957-2.9601698l-.4963722.432394c-.4037399.3517942-.1488914.7375383-.1399536 2.5188684.0232925.5349979.4752502.5702648 1.881731 1.680706.1635036.1192895.7422141-.015932 2.4872131-.4236697z"
                                          fill="#f45170"/>
                                </g>
                                <g>
                                    <path d="m23.707756 18.7813187c-1.1415501.0497055-2.1078396-.8347797-2.1575413-1.9763718-.049757-1.1428537.8360023-2.1079712 1.9775524-2.1576767s2.1065845.8348255 2.1563416 1.9776802c.0497017 1.141592-.8348045 2.1066628-1.9763527 2.1563683z"
                                          fill="#df3260"/>
                                </g>
                                <g>
                                    <path d="m21.5607624 16.9313469c-.1615887-1.0393248.6913128-2.2276182 1.968792-2.2832422 1.2689571-.055253 2.2263813 1.0396919 2.1547546 2.1036959-.1115494-1.0789871-1.0421467-1.8986053-2.1437378-1.8506403s-1.9623985.9455852-1.9798088 2.0301866z"
                                          fill="#cc104a"/>
                                </g>
                                <g opacity=".6">
                                    <path d="m33.9704819 12.7946491c-.0322266 1.1460867-.2855377 2.0840082.2673111 2.1005936.5447083.0163422 1.0099449-.9012413 1.0421677-2.047328.0322266-1.1460867-.380661-2.0900135-.9253731-2.1063557-.552845-.0165853-.351883.9070025-.3841057 2.0530901z"
                                          fill="#fff"/>
                                </g>
                                <g opacity=".6">
                                    <path d="m34.2129021 10.341464c.4167404-.3433084-.3406372-1.2664461-.7572784-.9232178-.1769448.1457663.3369979 1.2694455.7572784.9232178z"
                                          fill="#fff"/>
                                </g>
                            </g>
                        </g>
                    </g>
                    <g>
                        <g>
                            <path d="m24.1942406 18.3337421c.0406246-.3903637.0577812-.7394238.0583515-1.0675182.3156052-.1274891.6175137-.2621918.9079914-.4030781.0862274-.0429058.0825672-.1677475-.0088673-.2036915-.3016243-.1151123-.6140976-.2230549-.9395885-.3226318-.0310421-.3543844-.0821247-.7078972-.1509094-1.0584068-.0157204-.0875731-.1313152-.1230822-.1928883-.0507078-.2378273.2746553-.4598789.5530748-.6640339.8329477-.2400627-.0586872-.4844017-.11273-.7330017-.1621218-.1953659-.0418711-.2995052-.0876513-.3603725-.0043802-.0245609.0346107-.0276737.0814648-.0058937.1206951.1664371.2882671.3539333.573391.5591297.8555126-.1668949.275671-.3407879.5962524-.4827099.899765-.0405464.088047.0418396.1802998.1316357.1548519.3282833-.0923557.648489-.1910458.9594936-.296032.227705.2610703.473114.5191345.7339115.7720718.0676308.066765.1797009.0213434.1877518-.0672759zm.5916938-1.5724907c.0045528.0020275.0090446.0029488.0135975.004982.0091076.0040627.0096397.016304.0009212.0211487-.1738148.0800495-.352232.1569653-.5351391.2329521-.006588.002512-.0146294-.0027122-.0149689-.0105038-.0016727-.1001472-.0225296-.5174599-.0181732-.4173946-.0002422-.0055637.0040207-.0102081.0084782-.0104027.0021305-.0023251.0032444-.0023727.0055218-.0013561.1842671.0577736.3642006.1179638.5397625.1805744zm-.9213485-1.1843347c.0041523-.0068712.0130501-.0072584.018816-.0030451.0034389.0020761.0058117.0053215.0071201.0097227.0414562.2425861.0823727.5689116.0901508.6618299.0004845.0111275-.009203.0193558-.0193615.016449-.1648827-.0474625-.3319321-.0937138-.5022278-.137598-.0101585-.0028992-.0151329-.0149479-.0088024-.0230312.131712-.1763583.2690773-.350729.4143048-.5243273zm-1.0899697 1.0644865c-.1151791-.1611423-.2225723-.3226242-.3244457-.4854641-.0334854-.053133.1003628-.0139656.1616726-.000349.1429043.0294647.2847939.0612049.4245014.0941505.0135002.0027599.0186844.0192585.0113697.0307312-.0743732.1058121-.1705685.2514-.2407665.3606396-.0073013.0114727-.0240612.0110874-.0323315.0002918zm.1719113.2345085c-.0082836-.0107937-.008913-.0252647-.0016003-.0367317.1057491-.1660938.1982117-.3092709.3391476-.5087833.007349-.0103588.0205097-.0153904.0340595-.0115223.3987885.1009655.777216.2173824.6761417.1880169.0058136.0053215.0094814.01297.0098209.0207615.0145626.1988258.0290451.6671448.0246658.5665455.0005322.0122433-.0078335.0248718-.0198822.0298538-.209425.0816078-.4256439.1612778-.64534.237751-.0120468.0049896-.0267105.0011635-.0349312-.0085125-.0634995-.0752964-.125885-.1506424-.1860409-.2260857-.0672148-.084053-.1321676-.1670952-.1960409-.2512932zm-.4335041.7236595c.110054-.215559.1764889-.3297672.2810249-.5118332.0073013-.011467.0239639-.0133095.0322342-.0025196.0827026.1068058.167696.2146206.2559204.3200626.004734.006485.0105324.0118065.0152798.0182896.0082836.0107956.0045547.0276814-.0086555.0316048-.1813717.0603065-.3651047.1173744-.5522881.1723595-.0165043.0051841-.0317364-.0119992-.0235157-.0279637zm1.4547348.4496289c-.1124668-.1129646-.2466698-.2523079-.4501801-.4788723-.0082226-.0096817-.0043964-.0243454.0077-.0282135.0127945-.0045071-.0930042.0343857.4952335-.1765728.0057163.0030937.0093002.0085106.0084763.0152454-.0049686.3828526-.0276241.5540352-.0304985.6570358-.0015488.0156822-.0202332.02207-.0307312.0113774z"
                                  fill="none"/>
                        </g>
                    </g>

                </g>
            </g>
        </g>
        <g>
            <path d="m19.6081028 13.5009766c-.0763874-.0373926-.0609741-.1402063.0250034-.1694098 1.0567646-.3589449 1.1007309-.4221535-.036499-.1256189-.0876713.0228605-.1582222-.0535316-.1162224-.1260757 1.0979443-1.8964386.9976273-1.9151068-.2323933-.1009951-.0474415.0699692-.1615257.0642738-.1878433-.0089359-.3246403-.9030886-.3775711-.8951044-.1422539.0442762.0188484.0752411-.072031.1431055-.1498203.1116142-1.9987392-.8091259-2.003891-.7132902-.1315155.2125702.0745449.0368605.0589676.1386566-.0253582.16745-1.0882664.3715878-.9846401.3907776.0362453.1222963.08634-.022706.1559887.0538597.1141701.1262045-1.0783138 1.8654137-1.0043545 1.9235363.2303219.1035862.0474396-.0699272.1617565-.0632973.1884422.0107965.3466167.9624081.3857174.8940678.1423931-.0403442-.0199203-.076498.0722122-.1451044.1518097-.1125755 2.0406705.8339509 2.2314893.8121442.1335202-.214839z"
                  fill="#fff"/>
        </g>
    </g>
</svg>