<svg id="Layer_1" enable-background="new 0 0 38 38" height="512" viewBox="0 0 38 38" width="512" xmlns="http://www.w3.org/2000/svg"><g id="_x35_6"><g><path d="m34.9895401 18.9938393c0 1.4112549-.1958084 2.7774162-.5621643 4.0722771-.5053101 1.790247-1.3363724 3.4442501-2.4245987 4.89431-2.7476311 3.6599007-7.1357269 6.0186272-12.0706444 5.9798203-.0640697-.0008888-1.6539974-.0153313-1.6539974-.0153313l.4141769-.0586548c-7.6518764-.6984138-13.6560688-7.2259636-13.5703449-15.0411587.0288754-2.5825062.7128477-5.0071144 1.8922114-7.1149769h.0009036c.9492669-.5928459 2.9614916-1.4834585 3.6535883-2.8117056.4936113-.947998 1.4948578-2.2168756 2.1899891-2.9930778 4.166151-2.2953496 9.1945896-2.448427 13.46838-.469214.103735.0495005.1516476.1750231.1001606.282434l-.602766 1.2497435c-.0536556.098361.0558968.2176805.1651306.1651359l1.7442265-.8373775c.0649719-.0315905.1425724-.0279779.2039299.0108171 2.1773567 1.356225 3.9811401 3.2565656 5.2182541 5.5124249.8202286 1.4942856 1.3923149 3.1437616 1.6603165 4.89431.1145934.7435302.1732482 1.5051021.1732482 2.2802238z" fill="#bf7d5a"/></g><g><path d="m34.8162918 16.7136154h-4.9809399v-4.89431h3.3206234c.8202286 1.4942856 1.392315 3.1437617 1.6603165 4.89431z" fill="#aa6256"/></g><g><path d="m34.4273758 23.0661163c-.5053101 1.790247-1.3363724 3.4442501-2.4245987 4.89431h-5.0386829v-4.89431z" fill="#aa6256"/></g><g><path d="m26.4272003 5.7185616-.602766 1.2497435c-.0054131.0099244-.0081234.0198488-.0099239.0306768l-2.4047489.6126947.6379585-2.0582398 2.3704586-.0333972c.0351867.0577511.0405998.1326418.0090217.198522z" fill="#aa6256"/></g><g><path d="m32.8789558 18.9938393c0 8.2889271-6.7504311 15.0005569-15.0547028 14.9346886-8.2338848-.0649643-14.904007-6.8695412-14.8128691-15.1025333.0288756-2.5824966.7128537-5.0071039 1.8922174-7.1158695h.0008974c.9492674-.5928459 2.9614925-1.4834585 3.653594-2.8117056.4936123-.947998 1.494854-2.2168741 2.1899843-2.9930778 4.1700964-2.2975233 9.1961021-2.4468226 13.46838-.4683108.1064758.0487299.1506901.1768556.1001587.282423l-.6027641 1.2488513c-.0514336.105567.059557.2165647.1651306.166028l1.7442303-.8382697c.0625076-.0322685.1437473-.0256095.2039261.0108171.2842407.1768665.5621643.3627439.8328667.5585561 3.7663806 2.7106436 6.2189505 7.1321267 6.2189505 12.1284026z" fill="#ffde9b"/></g><g><path d="m27.8204174 6.2753115-1.1604118.5901251c-.2707024-.1958122-.5486259-.3816895-.8328667-.5585561-.0342846-.0207524-.0730896-.031569-.1118908-.031569z" fill="#bf7d5a"/></g><g><path d="m30.6230965 18.9938393c0 6.4845619-4.9811115 12.1621304-11.7809963 12.6472397-.3029423.021059-.6145496.0315914-.8969307.0315914-7.0115004 0-12.6788292-5.7139072-12.6788292-12.6788311 0-5.0379076 2.9744697-9.4528627 7.2846236-11.4714937l.0008974-.0009031c1.8934679-.8986483 4.0421734-1.3256001 6.2902393-1.1730471v.0009036c1.1681213.0800214 2.1430969.2941923 3.2033195.6478872h.0009022c4.9568096 1.6489081 8.5767742 6.4580359 8.5767742 11.9966531z" fill="#8a4852"/></g><g><g><path d="m18.8421001 6.3483953v25.2926826c-.2959709.020752-.5955448.0315914-.8969307.0315914-2.2621756 0-4.3880968-.5955563-6.2288742-1.6386604v-22.0794486c.2725039-.1542969.5504274-.2986698.8346682-.4322147l.0008974-.0009031h.0018063c1.9149999-.9083749 4.0613231-1.3241778 6.288433-1.1730472z" fill="#bf7d5a"/></g><g><path d="m18.8421001 28.2184963v3.4225826c-.2959709.020752-.5955448.0315914-.8969307.0315914-2.2621756 0-4.3880968-.5955563-6.2288742-1.6386604v-4.5207386c.7182617 1.2677975 1.8317566 2.994873 2.6592035 3.1852779 1.3237371.303175 1.4536743 2.1078625 2.3957205 2.1078625.4953862 0 1.3607369-1.3273449 2.0708809-2.5879154z" fill="#dba660"/></g><g><path d="m18.8421001 6.5505195v16.8025455c-1.3517094 3.5534191-3.5272636 4.2599621-5.0982418 2.8297386-1.2551575-1.1423588-1.7956657-4.0145264-2.0275631-6.1485596v-11.7927336c.1010256-.0870609.9365902-.8071289.8355656-.720068 2.4484921-.3779344 6.5470448-1.0105619 6.2902393-.9709229z" fill="#dba660"/></g><g><path d="m18.6814804 6.3384709c-.0038376.277904-.1730556 7.8435988-.3961258 7.7384992-.0803089 3.7041254-2.1981125 10.0981188-4.3222275 8.5289526-2.2838306-1.6882915-1.4599905-7.0193338-1.2795219-9.6586885s-.3158207-3.8800774-.3158207-3.8800774.3257446-.7724113.8301573-1.8281484c1.5928221-.6635408 3.5463953-1.0153575 5.4835386-.9005375z" fill="#bf7d5a"/></g><g><path d="m17.3460121 13.5563164c-.1010609 1.8416748-1.7974663 5.6170883-3.0156298 4.287035-1.2181644-1.3309574-.9925785-5.1217031-.7218752-6.4075422s0-3.0905266 0-3.0905266l-.2806273-1.1586175c1.2398186-.4872565 2.5743828-.7832279 3.9676008-.8545165.0550423.4114738.0613594.8274531-.0550404 1.1107903-.3158205.7669915.2057363 4.2716912.1055719 6.1133775z" fill="#dba660"/></g><g><path d="m14.4206161 7.6234074s.3158207 1.0242262.2030277 2.1814489-.8572264 2.3979445-.2030277 3.2326126c.6541996.8346672 1.6016598 1.2849808 1.6467781-.6546288.0451164-1.9396095-.1353521-4.6917567.1804676-5.1203699.3158208-.4286131-1.8272457.3609372-1.8272457.3609372z" fill="#bf7d5a"/></g></g><g><g><path d="m11.3165522 8.1909847v21.6066132c-3.6789794-2.2578106-6.0502124-6.3038883-6.0502124-10.8037586 0-4.5518084 2.4185552-8.5711928 6.0502124-10.8028546z" fill="#bf7d5a"/></g><g><path d="m11.3165522 27.842226v1.9553719c-.289649-.1777592-.5720825-.36726-.8454952-.5684814.2842407-.4213887.5756959-.9095593.8454952-1.3868905z" fill="#dba660"/></g><g><path d="m11.3165522 8.1909847v14.7857895c-.9537725 2.5067139-2.3163137 3.5967503-3.5877132 3.5182476-4.3622619-5.924633-2.7817245-14.3900032 3.5877132-18.3040371z" fill="#dba660"/></g><g><path d="m11.0945797 8.330842c-.1299381 4.3068943-.2517576 5.4095554-.3347721 5.3698473-.0803099 3.704113-2.1981077 10.0981293-4.3222218 8.5289536-.4683166-.3455944-.8057981-.844593-1.0449157-1.4419441-.7102208-5.0103245 1.6021939-9.8171435 5.7019096-12.4568568z" fill="#bf7d5a"/></g><g><path d="m9.8204708 13.1800346c-.1010618 1.8416862-1.797472 5.6170883-3.0156364 4.287035-.5007992-.547718-.7579651-1.5105219-.8671508-2.5455074.7382894-2.1716948 2.0465498-4.0693779 3.7284846-5.5214453.0785036 1.2786246.2084408 2.7765122.1543026 3.7799177z" fill="#dba660"/></g><g><path d="m8.5418463 12.0069885c-.0442142 1.8994379-.9537725 1.5060167-1.6061707.7047358.4556823-.7967653.9961905-1.5394039 1.6097832-2.2161617.005414.5215578.0072145 1.0404052-.0036125 1.5114259z" fill="#bf7d5a"/></g></g><g><g><path d="m26.3811798 9.5381775v18.9122276c-2.0841331 1.8615227-4.6835842 2.9289207-7.1258049 3.1545887v-24.6276674c.2616768-.173254.5287724-.3347659.801281-.4854612.1004429.0221477.839407.1218905 1.9887638.505321h.0009022c1.4330845.4767227 3.0477714 1.3803744 4.3348579 2.5409913z" fill="#bf7d5a"/></g><g><path d="m21.7440338 31.090662c-.8765125.2765541-1.7917557.4499359-2.4886589.5143318v-4.1589088c.6704407 1.3787822 1.6846733 3.2240715 2.4886589 3.644577z" fill="#dba660"/></g><g><path d="m26.3811798 9.5381775v15.3894749c-1.3517094 4.1426506-3.5272579 4.9655991-5.0982418 3.2989616-1.2551575-1.3318501-1.79566-4.6804562-2.0275631-7.1682129v-13.747201l.8139095-.8175287c.8321934.1425576 1.38554.3064899 1.9761353.5035148l.0009022.0009031c.1439934.0358887.8113384.3048763.9862614.3843884 1.1419029.4986559 2.3387565 1.2450858 3.3485965 2.1556998z" fill="#dba660"/></g><g><path d="m26.1185989 9.3098822c-.1145992 3.8196278-.2192688 4.8446884-.2941647 4.8040762-.0803089 4.3177223-2.1981068 11.7719822-4.3222275 9.9429302-2.2838306-1.9680061-1.4599915-8.1833601-1.2795219-11.2594461.1804676-3.0769892-.3158207-4.5234489-.3158207-4.5234489s.2499504-.6902838.6496887-1.6873779c.705759.148108 1.1079712.2835026 1.4888668.4105706h.0009022c1.2997571.4323705 2.7906476 1.228577 4.0722771 2.3126959z" fill="#bf7d5a"/></g><g><path d="m24.8850918 13.5075865c-.1010628 2.1466789-1.7974663 6.54741-3.0156307 4.9971781-1.2181644-1.5520267-.9925785-5.9708109-.7218742-7.4695911.2707024-1.4988022 0-3.6030622 0-3.6030622l-.155201-.745337c.3573246.0875249.7083378.1912966 1.0530338.3104119h.0009022c.9329357.3182802 1.8292866.7522511 2.6465759 1.2677865.0595531 1.6251211.2571659 3.8448839.192194 5.2426138z" fill="#dba660"/></g><g><path d="m23.606472 12.1387377c-.0451164 2.2612677-.9925766 1.7370119-1.6467762.7633791-.6541996-.9727287.0902348-2.4191875.2030277-3.7681875.0730896-.8698597-.0324841-1.6747546-.1164017-2.1367431.5368958.1831675 1.0566406.402442 1.5583496.6541991-.0306815 1.2623777.030676 3.0634518.0018006 4.4873524z" fill="#bf7d5a"/></g></g><g><g><path d="m26.8377647 28.0217915v-18.0550003c5.1834298 5.093975 4.9015522 13.3080673 0 18.0550003z" fill="#bf7d5a"/></g><g><path d="m27.0895214 27.7664204c-.0821152.0866222-.1660328.1723518-.2517567.2553711v-.7624875c.0794068.1633187.1633244.3338738.2517567.5071164z" fill="#dba660"/></g><g><path d="m28.0333691 26.6637592c-.6803646-1.6179066-1.0232544-3.9423332-1.1956043-5.7912445v-10.9057235c4.54883 4.4703264 5.0602874 11.6319065 1.1956043 16.696968z" fill="#dba660"/></g><g><path d="m29.5384789 24.123661c-.1506901-.0397091-.3022842-.1227188-.4538765-.2535534-2.5596294-2.2056751-1.2083759-9.5265741-1.2407227-12.7880211 3.0251408 3.7762509 3.5677319 8.8276482 1.6945992 13.0415745z" fill="#bf7d5a"/></g><g><path d="m30.6059513 18.3414459v.0009041c-.3907146.3717537-.7931576.4349251-1.1540947-.0243645-.9664116-1.2307987-1.0241623-4.2680902-.871666-6.218956 1.1802655 1.8146115 1.9093609 3.9486561 2.0257607 6.2424164z" fill="#dba660"/></g></g><g><g><path d="m17.9451694 6.3159127c-6.9451828 0-12.6788292 5.6419005-12.6788292 12.677927 0 6.9564018 5.6551423 12.6788311 12.6788292 12.6788311 7.0086422 0 12.677927-5.7052193 12.677927-12.6788311.0000001-6.9799418-5.6763973-12.677927-12.677927-12.677927zm.323042 25.1158271c-6.5531635 0-11.8089705-5.3394985-11.8089705-11.8089695 0-6.5427599 5.329752-11.8080664 11.8089705-11.8080664 6.6039524 0 11.8080654 5.39013 11.8080654 11.8080664 0 6.5928726-5.3785191 11.8089695-11.8080654 11.8089695z" fill="#aa6256"/></g></g><g><g><path d="m17.7017384 25.1877995c-1.4255428 0-2.7602787-.5646687-3.7583466-1.5899029-.9974098-1.024622-1.5467176-2.396225-1.5467176-3.8621864 0-3.1319847 2.5258398-5.7656307 5.6150484-5.7656307 1.4256287 0 2.7605419.5644941 3.7587852 1.5895529.9976292 1.0244455 1.5470257 2.3958731 1.5470257 3.8614836 0 3.1388243-2.5325852 5.7666835-5.6157951 5.7666835z" fill="#f1f6fa"/></g><g><path d="m17.856638 24.8258514c-2.8123779.0867252-5.1004248-2.1967201-5.1004248-5.0901127 0-2.892952 2.2880468-5.3170729 5.1004248-5.4037981 2.812891-.0867414 5.1013641 2.1962519 5.1013641 5.0892057 0 2.8933927-2.2884731 5.3179646-5.1013641 5.4047051z" fill="#9ea9c9"/></g><g><path d="m17.7105637 23.2304039c-2.0999317 0-3.8083344-1.7088432-3.8083344-3.8092575 0-2.0999756 1.7084026-3.8083792 3.8083344-3.8083792 2.1004601 0 3.8093014 1.7084036 3.8093014 3.8083792-.0000001 2.1004143-1.7088414 3.8092575-3.8093014 3.8092575z" fill="#4c5c75"/></g><g><path d="m21.1601715 19.4207115c0 1.9064274-1.5442047 3.4497318-3.4497318 3.4497318-1.9014387 0-3.4488344-1.5385132-3.4488344-3.4497318 0-1.9046402 1.5441999-3.4488344 3.4488344-3.4488344 1.9048996 0 3.4497318 1.5442057 3.4497318 3.4488344z" fill="#e3e7f0"/></g><g><path d="m16.6057663 21.4637642c-.7756968 0-1.4929657-.2561665-2.0691175-.6885128-.1770735-.4161606-.2750435-.8736649-.2750435-1.3545399 0-2.8575706 3.2701902-4.4474421 5.5197496-2.7585335.9611988 2.2657147-.6953831 4.8015862-3.1755886 4.8015862z" fill="#f1f6fa"/></g><g><path d="m15.5742617 18.3834152c-.2994032-.3613758.0937185-.9881706.5023088-1.3266907.5243034-.4343891 1.1496716-.5448284 1.3967075-.2466583.1007271.1215763.1229935.2924938.0785789.481638-.2060241.8745956-1.5538959 1.6031132-1.9775952 1.091711z" fill="#fff"/></g></g><g><g><path d="m26.3735752 21.0751419c-.8249722 0-1.4961586-.6712303-1.4961586-1.4962463s.6711864-1.4961586 1.4961586-1.4961586 1.4961586.6711426 1.4961586 1.4961586-.6711864 1.4962463-1.4961586 1.4962463z" fill="#f1f6fa"/></g><g><path d="m26.3735542 20.8953819c-.725872 0-1.3163929-.5905628-1.3163929-1.3164787 0-.7258282.5905209-1.316391 1.3163929-1.316391.7258701 0 1.3164349.5905628 1.3164349 1.316391 0 .7259159-.5905647 1.3164787-1.3164349 1.3164787z" fill="#4c5c75"/></g><g><path d="m26.3735752 20.7156181c-.4853745 0-.9006348-.3047066-1.063324-.7334538-.4012432-1.0523891.8111019-1.9635181 1.7104874-1.3374672.9124928.6323777.465107 2.070921-.6471634 2.070921z" fill="#e3e7f0"/></g><g><path d="m25.9574146 20.1844025c-.2408886 0-.4637985-.0745983-.6471634-.2022381-.4012432-1.0523891.8111019-1.9635181 1.7104874-1.3374672.2804337.7355289-.2629433 1.5397053-1.063324 1.5397053z" fill="#f1f6fa"/></g><g opacity=".76"><path d="m26.2508984 19.3597298c-.1673298.1268177-.4450245.2085819-.5613518.0550938-.1424332-.1879292.1183128-.5648289.454668-.6487789.4078121-.1024781.4803524.31048.1066838.5936851z" fill="#fff"/></g></g><g><g><path d="m17.7110462 11.8194523c-.8249702 0-1.4961567-.6712303-1.4961567-1.4962463 0-.8250151.6711864-1.4961576 1.4961567-1.4961576.8249722 0 1.4961586.6711426 1.4961586 1.4961576 0 .825016-.6711864 1.4962463-1.4961586 1.4962463z" fill="#f1f6fa"/></g><g><path d="m17.7110252 11.6396923c-.725872 0-1.316391-.5905628-1.316391-1.3164787 0-.7258272.590519-1.316391 1.316391-1.316391s1.3164349.5905638 1.3164349 1.316391c0 .7259159-.5905628 1.3164787-1.3164349 1.3164787z" fill="#4c5c75"/></g><g><path d="m17.7110462 11.4599285c-.6265717 0-1.1370296-.5078259-1.1370296-1.1370296 0-.9260464 1.045002-1.4484329 1.784193-.9338923.9124928.6323786.4651089 2.0709219-.6471634 2.0709219z" fill="#e3e7f0"/></g><g><path d="m17.2948856 10.9287138c-.2408867 0-.4637966-.0745993-.6471634-.2022381-.4012432-1.0523891.8111019-1.9635191 1.7104874-1.3374691.2804337.7355299-.2629433 1.5397072-1.063324 1.5397072z" fill="#f1f6fa"/></g><g opacity=".76"><path d="m17.5883694 10.1040392c-.1673279.1268187-.4450226.2085819-.5613518.0550947-.1424313-.1879301.1183128-.5648289.454668-.6487799.4078141-.1024761.4803543.3104811.1066838.5936852z" fill="#fff"/></g></g><g><g><path d="m17.8571072 30.3308315c-.8249702 0-1.4961567-.6712303-1.4961567-1.4962463s.6711864-1.4961586 1.4961567-1.4961586c.8249722 0 1.4961586.6711426 1.4961586 1.4961586s-.6711865 1.4962463-1.4961586 1.4962463z" fill="#f1f6fa"/></g><g><path d="m17.8570862 30.1510715c-.725872 0-1.316391-.5905628-1.316391-1.3164787 0-.7258282.590519-1.316391 1.316391-1.316391s1.3164349.5905628 1.3164349 1.316391c-.0000001.7259159-.5905629 1.3164787-1.3164349 1.3164787z" fill="#4c5c75"/></g><g><path d="m17.8571072 29.9713078c-.6265736 0-1.1370296-.5078259-1.1370296-1.1370296 0-.9260464 1.045002-1.4484329 1.784193-.9338913.9124927.6323775.4651088 2.0709209-.6471634 2.0709209z" fill="#e3e7f0"/></g><g><path d="m17.4409466 29.4400921c-.2408886 0-.4637966-.0745983-.6471634-.2022381-.4012432-1.0523891.8111019-1.9635181 1.7104874-1.3374672.2804336.735529-.2629433 1.5397053-1.063324 1.5397053z" fill="#f1f6fa"/></g><g opacity=".76"><path d="m17.7344303 28.6154194c-.1673279.1268177-.4450226.2085819-.5613518.0550938-.1424313-.1879292.1183128-.5648289.454668-.6487789.4078141-.1024781.4803525.3104801.1066838.5936851z" fill="#fff"/></g></g><g><g><path d="m9.3406315 21.0751419c-.8249722 0-1.4961586-.6712303-1.4961586-1.4962463s.6711864-1.4961586 1.4961586-1.4961586c.8249712 0 1.4961576.6711426 1.4961576 1.4961586s-.6711864 1.4962463-1.4961576 1.4962463z" fill="#f1f6fa"/></g><g><path d="m9.3406096 20.8953819c-.725872 0-1.3163919-.5905628-1.3163919-1.3164787 0-.7258282.5905199-1.316391 1.3163919-1.316391.7258711 0 1.3164349.5905628 1.3164349 1.316391-.0000001.7259159-.5905639 1.3164787-1.3164349 1.3164787z" fill="#4c5c75"/></g><g><path d="m9.3406315 20.7156181c-.6265736 0-1.1370306-.5078259-1.1370306-1.1370296 0-.9260464 1.045002-1.4484329 1.784193-.9338913.9124937.6323776.4651079 2.0709209-.6471624 2.0709209z" fill="#e3e7f0"/></g><g><path d="m8.9244699 20.1844025c-.2408876 0-.4637976-.0745983-.6471634-.2022381-.4012427-1.0523891.8111019-1.9635181 1.7104874-1.3374672.0476361.124939-.2629432 1.5397053-1.063324 1.5397053z" fill="#f1f6fa"/></g><g opacity=".76"><path d="m9.2179537 19.3597298c-.1635237.1239338-.3512039.1669273-.4732409.1197681-.2950859-.1133099-.0410042-.6117306.3665572-.7134533.407813-.102478.4803533.3104801.1066837.5936852z" fill="#fff"/></g></g></g></svg>