<svg id="Wizard" height="512" viewBox="0 0 1200 1200" width="512" xmlns="http://www.w3.org/2000/svg"><g><path d="m966.592 73.095c-68.709-17.291-146.086 9.928-190.947 63.631-85.182 23.832-157.396 115.215-146.887 204.91-71.971 29.24-133.353 101.875-124.021 180.344-62.468 18.77-96.612 59.871-101.442 115.467-1.097 7.775-2.136 15.145-4.121 21.205-10.729 11.525-22.771 22.348-33.707 34.344-78.306 81.701-148.096 166.922-222.896 250.646-12.439 13.82-21.691 23.914-32.086 34.713-7.906 8.139-17.75 18.268-22.546 33.84-7.903 25.66.238 54.873 22.233 80.027 23.84 29.521 78.959 54.709 119.322 29.555 16.93-10.295 25.234-23.408 35.778-36.158 78.401-93.539 177.028-198.795 259.101-276.68 90.457 17.752 195.025-44.133 211.07-135.932 58.717-25.354 100.15-68.402 117.326-121.52 2.042.068 4.086.105 6.123.102 91.693 1.717 183.041-77.508 197.219-166.15 113.016-99.982 52.588-278.678-89.519-312.344z" fill="#fff"/><g><path d="m960.33 98.443c-62.055-15.332-131.241 10.418-169.619 61.256-85.049 20.664-154.934 110.707-132.451 199.367-75.519 21.004-149.609 99.768-122.652 182.287-43.594 7.971-91.217 30.523-102.287 77.299-4.565 16.295-4.264 34.143-9.998 50.059-.193.461-1.006 2.156-1.527 3.082-.389.686-2.01 3.072-1.672 2.648-11.37 12.506-24.162 23.873-35.598 36.4-77.311 80.584-148.152 167.02-222.536 250.25-9.743 10.844-19.577 21.605-29.614 32.174-7.736 8.148-16.076 15.545-19.485 26.613-6.101 19.809 4.212 40.605 17.042 55.279 20.214 23.406 56.977 41.006 86.264 24.152 12.1-7.162 20.213-19.893 29.064-30.457 23.865-28.486 48.295-56.5 73.115-84.156 62.74-69.832 127.717-137.756 195.971-202.232.725-.68 1.464-1.344 2.192-2.021 46.648 12.656 98.626 1.529 137.366-26.988 31.987-22.922 55.041-59.459 57.62-99.033 59.749-21.707 109.856-66.576 121.448-131.152 46.979 8.121 95.154-6.539 131.81-36.746 35.923-28.188 61.843-68.979 66.878-114.488 106.611-86.862 55.109-241.234-71.331-273.593zm-45.238 325.852c-19.824 4.387-42.154-4.625-59.896-12.613-15.102-6.801-29.511-14.9-43.848-23.145-3.32-1.908-15.213-12.988-17.787-16.719-5.539-8.021-11.03-16.074-16.086-24.391-9.554-15.711-22.317-38.295-13.541-55.824 11.043 33.105 34.471 60.352 61.535 81.736 27.278 21.553 59.285 37.621 94.438 39.875 4.369.279 8.735.293 13.098.121-4.543 5.735-10.785 9.38-17.913 10.96z" fill="#68182b"/><path d="m899.113 107.556c12.026-1.959 17.249 2.6 20.099 9.855 4.025 10.252 4.533 21.65 1.416 32.336-10.139-2.047-20.557-2.373-30.793-.963 1.502-12.711-1.295-26.719-8.816-37.137 5.937-1.735 11.981-3.096 18.094-4.091z" fill="#ceffff"/><path d="m848.563 375.959c-7.924-5.137-15.624-10.82-22.928-17.014-9.799-8.303-12.115-12.898-10.637-26.896.554-5.221 1.525-10.395 2.918-15.455 2.196-7.988 5.466-15.873 10.327-22.588 4.797-6.617 7.96-6.17 12.103-1.939 4.479 4.572 9.557 8.584 15.162 11.943-10.477 21.814-15.763 48.755-6.945 71.949z" fill="#fbf199"/><path d="m722.994 503.734c12.686 2.26 25.51 2.795 38.258 1.672 12.897-1.145 12.988.184 2.131 10.914-20.152 19.916-42.979 37.578-67.393 51.5-3.893-11.275-7.679-22.58-10.482-34.156 14.051-7.701 26.286-18.604 37.486-29.93z" fill="#fbf199"/><path d="m683.924 526.65c-2.833-11.131-2.041-22.574 1.777-33.246 1.27-3.551 3.325-2.363 5.209-1.248 7.467 4.439 15.631 7.605 24.079 9.791-9.437 9.299-19.583 18.07-31.065 24.703z" fill="#ff8e5b"/><path d="m720.139 496.058c-8.693-1.965-17.119-4.928-24.848-9.346-2.957-1.699-5.602-3.662-4.449-9.275 2.008-9.797 2.014-19.938 1.027-30.043 18.92 8.992 40.84 10.824 61.519 8.695 18.239-1.877 36.365-6.582 53.201-14.041 8.657-3.838 12.104-3.967 14.13 4.342 1.341 5.523 2.34 11.154 3.05 16.803 1.073 8.514-.233 11.518-9.815 17.965-8.602 5.783-18.315 9.938-28.336 12.789-21.084 5.934-44.034 6.957-65.479 2.111z" fill="#fbf199"/><path d="m807.178 434.189c-8.432 3.98-17.244 7.24-26.26 9.738-11.982 3.324-13.366 4.09-7.908-5.506 6.728-11.834 12.61-24.52 16.482-37.424 3.775-12.582 3.447-9.645 9.094-1.158 4.895 7.365 9.627 14.863 13.546 22.764 4.005 8.061 3.582 7.551-4.954 11.586z" fill="#fbf199"/><path d="m861.401 118.642c11.074-4.766 14.092-3.789 17.197 2.467 4.385 8.83 5.638 19.484 4.034 28.979-26.263 5.578-50.835 23.184-61.092 48.529-10.558 26.508-5.667 58.352 9.591 82.037-10.022 8.398-16.061 20.76-19.604 33.137-2.564 8.943-3.958 18.35-4.057 27.723-9.988-10.896-18.658-22.906-25.291-35.914-37.151-71.692 9.744-157.09 79.222-186.958z" fill="#00ebed"/><path d="m774.813 176.672c1.795-.684 3.625-1.246 5.438-1.863-11.189 18.221-18.776 38.436-21.556 59.34-15.545-7.969-32.876-12.098-50.37-12.066 18.493-20.009 41.531-35.909 66.488-45.411z" fill="#ff8e5b"/><path d="m695.346 237.844c5.617-7.68 9.057-9.387 16.826-8.855 15.93 1.086 31.646 4.531 45.725 12.605-.742 9.664-.428 19.422 1.059 29.168.855 5.6.604 6.596-5.006 4.58-3.393-1.219-7.006-1.945-10.638-2.646-21.856-4.229-44.967-8.064-66.759-1.861 4.902-11.654 11.275-22.712 18.793-32.991z" fill="#fbf199"/><path d="m667.478 300.896c.609-3.277 1.341-6.523 2.184-9.738 3.168-12.059 4.882-13.336 16.077-15.322 9.52-1.688 19.297-1.66 29.058-.703 13.449 2.115 27.888 2.691 40.431 8.291-15.72 29.42 5.809 61.113 23.58 87.211 7.061 10.371 8.348 12.299 5.322 24.195-3.843 15.115-10.896 29.645-18.828 43.127-4.416 7.508-4.965 10.512-11.913 11.225-15.519 1.6-31.668.969-46.622-3.537-14.164-4.271-16.091-9.881-19.445-23.813-2.061-8.568-4.494-16.959-6.828-24.998-9.113-31.385-19.132-62.981-13.016-95.938z" fill="#ff8e5b"/><path d="m680.209 449.9c-11.926-2.061-27.011-6.162-40.172-6.34 7.658-8.104 15.687-15.854 24.081-23.191 7.413-6.48 9.215-6.723 10.921.252 2.356 9.627 4.246 19.348 5.17 29.279z" fill="#fbf199"/><path d="m620.995 387.492c12.525-7.508 25.954-13.152 39.975-17.213 2.244 8.635 4.794 17.203 7.304 25.777 2.881 9.826 2.498 9.826-6.535 17.127-11.104 8.979-21.031 19.824-30.889 30.033-27.203-.008-54.371 5.84-79.527 17.826 13.984-30.947 41.117-56.431 69.672-73.55z" fill="#ff8e5b"/><path d="m541.609 499.873c.272-5.42 1.001-10.725 2.116-15.916 3.056-14.229 4.455-14.359 18.594-20.242 37.596-15.65 78.951-17.764 118.401-5.965.488 10.314-1.104 20.66-5.077 30.242-19.67-6.809-41.953-6.936-62.291-4.457-25.438 3.104-49.197 12.629-71.768 24.42-.092-2.664-.115-5.352.025-8.082z" fill="#fbf199"/><path d="m569.724 554.494c5.662-14.451 12.286-28.496 19.829-42.068 10.035-18.059 14.221-21.354 30.013-22.896 11.313-1.105 23.253-.6 34.44.363-18.027 20.938-32.621 44.553-45.307 69.053-10.48 20.244-19.561 41.152-29.477 61.664-2.195-7.43-4.725-14.752-7.438-21.904-1.052-2.777-2.158-5.537-3.299-8.281-6.469-15.581-6.139-17.119 1.239-35.931z" fill="#fbf199"/><path d="m557.981 566.427c-4.73-10.756-9.174-21.553-12.246-32.725-4.454-16.186-1.697-19.639 11.064-25.652 11.361-5.365 23.084-9.99 35.173-13.291-13.96 22.555-25.396 46.588-33.991 71.668z" fill="#ff8e5b"/><path d="m498.363 564.365c13.19-5.568 27.132-9.229 41.153-12.08 2.785 7.041 5.938 13.965 9.143 20.955 5.502 12.008 10.639 24.221 15.001 36.699-20.364-6.609-42.392-6.361-63.427-2.777-19.635 3.346-39.209 9.674-56.902 19.096 5.28-29.274 28.038-51.258 55.032-61.893z" fill="#fbf199"/><path d="m383.678 728.486c.516 12.646 2.371 25.455 5.57 37.951-10.195-3.18-19.961-7.277-29.188-12.674 7.815-8.482 15.692-16.902 23.618-25.277z" fill="#ff8e5b"/><path d="m339.006 776.886c5.393-5.994 10.799-11.973 16.25-17.912 11.314 6.82 23.512 11.773 36.214 15.41 4.757 15.506 11.702 30.289 20.892 43.4-24.32-.338-46.762-8.83-68.313-19.42-14.248-6.997-15.589-9.741-5.043-21.478z" fill="#fbf199"/><path d="m196.59 939.392c12.266-13.977 24.451-28.021 36.633-42.076 4.007 9.137 9.125 17.686 15.271 25.445-.79 14.551.63 29.174 3.665 43.348-17.318.367-34.758-2.035-51.361-7.084-15.283-4.644-13.438-9.115-4.208-19.633z" fill="#fbf199"/><path d="m220.94 1080.201c-29.309 34.365-83.276.197-95.561-33.957-2.314-6.436-3.404-13.375-2.17-20.057 11.488 17.449 27.697 31.795 46.174 41.475 15.869 8.309 34.609 13.955 52.641 11.26-.362.425-.721.855-1.084 1.279z" fill="#ff8e5b"/><path d="m233.891 1064.931c-4.727 5.574-15.246 8.01-25.008 7.506-27.629-1.422-53.842-18.219-71.908-39.631-7.506-8.893-10.242-18.098-.334-27.932 3.129-3.109 6.352-6.076 9.141-9.049 2.984-3.188 5.925-6.414 8.882-9.623 17.622 33.813 47.177 60.523 82.415 74.965-1.061 1.255-2.126 2.509-3.188 3.764z" fill="#fbf199"/><path d="m253.149 1042.314c-8.664 9.932-14.041 13.016-26.816 6.316-22.201-11.645-41.359-28.668-55.643-49.248-9.047-13.033-9.602-20.107-1.797-28.768 3.625-4.021 7.234-8.057 10.832-12.104 23.195 10.201 48.74 15.271 74.072 14.477 15.447 56.003 30.693 33.427-.648 69.327z" fill="#ff8e5b"/><path d="m292.151 996.855c-6.938 7.844-14.309 17.195-20.754 3.791-10.488-21.801-16.014-45.725-16.086-70.025 3.942 4.131 8.176 8.002 12.752 11.508 15.265 10.883 32.768 21.295 51.43 24.258-9.151 10.123-18.295 20.255-27.342 30.468z" fill="#fbf199"/><path d="m353.576 929.719c-3.561 3.826-8.426 8.859-14.746 15.572-10.67 11.346-15.245 17.461-32.168 10.68-3.012-1.205-5.953-2.592-8.805-4.021-20.041-9.096-37.943-23.258-49.998-41.555-9.62-14.592-8.865-19.926 3.018-33.609 7.812-8.99 16.082-17.955 23.598-26.949 31.395 47.795 59.193 59.34 74.439 63.881 13.533 4.034 17.173 2.551 4.662 16.001z" fill="#fbf199"/><path d="m384.03 896.65c-12.296 12.959-20.207 15.779-34.328 10.762-23.742-8.441-43.26-26.004-58.78-46.158-12.147-15.781-10.468-18.402.63-31.266 10.059-11.664 21.357-23.33 31.107-34.896 29.431 15.711 60.115 30.596 94.305 29.602 6 5.514 11.752 13.283 18.854 18.445-17.454 17.654-34.71 35.503-51.788 53.511z" fill="#ff8e5b"/><path d="m455.285 823.631c-11.916 11.748-15.877 15.736-28.809 1.125-18.839-21.279-29.954-49.455-34.123-77.875-2.793-19.029.236-27.91 10.549-38.518 3.789-3.896 7.6-7.775 11.42-11.645 2.725-2.752 5.607-5.426 8.387-8.184-1.264 44.645 15.643 89.094 46.209 121.717-4.549 4.458-9.099 8.915-13.633 13.38z" fill="#fbf199"/><path d="m487.292 792.435c-9.833 9.385-16.413 10.039-21.587 3.566-3.18-3.977-6.166-8.098-8.952-12.342 14.646.016 29.308-1.158 43.724-3.736-4.402 4.163-8.8 8.331-13.185 12.512z" fill="#fbf199"/><path d="m490.746 774.467c-12.674 1.768-25.493 2.463-38.304 2.244-16.991-28.963-25.058-62.941-22.35-96.686 5.249-7.85 7.257-16.988 8.655-26.279 2.039-13.551 5.037-20.869 21.102-27.68 12.714-5.391 26.107-9.275 39.604-11.775 12.873-3.053 66.585-6.709 68.717 9.594 7.29 24.9 10.607 51.471 1.414 76.332-7.76 20.895-22.891 36.5-38.825 51.342-19.286 17.96-20.423 20.169-40.013 22.908z" fill="#ff8e5b"/><path d="m534.712 772.666c-2.696-.42-5.368-.953-8.025-1.539 7.747-7.025 15.513-14.039 22.866-21.445 7.945-7.998 15.082-16.793 20.989-26.279 11.486 9.662 24.468 17.564 38.882 22.021 10.033 3.1 20.406 4.215 30.712 3.58-30.845 20.068-69.207 29.322-105.424 23.662z" fill="#ff8e5b"/><path d="m667.21 726.478c-10.659 11.34-20.643 16.77-36.907 15.705-20.679-1.352-40.696-10.969-56.215-24.834 5.152-9.467 8.934-19.623 10.889-30.445 30.892 25.027 79.389 19.154 109.248-4.779-5.738 16.455-14.996 31.564-27.015 44.353z" fill="#fbf199"/><path d="m682.177 681.97c-28.821 18.121-69.692 21.283-95.284-2.424-.52-15.389-.225-32.963-4.925-48.779 20.384-42.148 38.447-86.396 66.949-123.787 9.106-11.951 14.583-15.686 20.82-13.756 1.219.377 2.429.779 3.63 1.203-.443 1.365-.863 2.738-1.201 4.137-5.752 23.945 5.282 49.908 12.904 72.125 8.109 23.619 15.627 47.896 15.699 72.805.052 18.635.212 26.654-18.592 38.476z" fill="#ff8e5b"/><path d="m824.998 498.269c-3.973 68.217-48.096 119.131-112.973 143.59.254-23.1-6.125-45.756-13.76-67.373 29.314-16.516 56.545-38.42 79.628-63.117 14.756-15.783 7.212-8.936 22.792-15.367 5.265-2.172 10.354-4.75 15.154-7.789 12.452-7.899 9.812-1.143 9.159 10.056z" fill="#ff8e5b"/><path d="m958.295 468.195c-1.727 9.822-2.505 11.346-13.411 18.666-21.017 14.111-44.966 24.045-70.185 26.783-12.646.717-28.719 1.326-39.672-2.285 4.363-32.213 1.172-67.766-14.191-96.857-1.897-3.594-3.928-7.107-6.015-10.588 31.606 17.416 81.724 46.314 116.521 25.766 6.367-3.756 6.881-5.021 11.372-.369 10.092 10.456 18.093 24.546 15.581 38.884z" fill="#ff8e5b"/><path d="m997.338 434.187c-6.84 10.467-14.76 20.129-23.239 28.643-3.11 3.117-6.368 6.102-9.694 9.02 4.617-19.654-6.852-39.24-21.818-52.15 4.545-6.598 7.725-14.102 11.084-21.506 3.966-8.742 5.954-11.365 12.405-8.918 13.604 5.168 25.264 14.605 33.332 26.66 4.667 6.98 2.95 10.564-2.07 18.251z" fill="#fbf199"/><path d="m1013.754 401.582c-5.406 15.045-7.279 11.602-12.494 5.105-7.29-9.078-16.643-16.473-27.168-21.467-11.106-5.264-10.513-6.352-4.061-17.037 8.859-14.662 19.293-29.73 34.926-36.09 10.517-4.369 14.157 7.457 15.111 15.418 2.63 18.338-.072 36.723-6.314 54.071z" fill="#ff8e5b"/><path d="m1057.436 326.588c-5.019 8.197-10.905 15.834-17.617 22.676-2.408 2.455-4.923 4.809-7.486 7.109-.047-11.844-2.035-24.783-10.753-32.215-27.991-19.254-59.747 33.268-70.723 53.951-4.065 7.604-7.823 15.371-11.251 23.287-22.016 1.834-43.459-2.207-63.475-10.623-7.598-3.195-18.988-12.498-21.619-18.914-6.855-16.689-3.346-37.67 3.047-54.924 3.153-8.518 4.688-8.76 14.303-5.414 43.039 14.971 95.743 1.395 113.164-44.287 8.794 14.047 27.898 14.08 42.48 17.855 9.872 2.561 19.809 6.951 27.283 13.799 2.494 2.282 9.094 17.163 2.647 27.7z" fill="#00ebed"/><path d="m1073.477 288.441c-1.42 5.557-3.169 11.029-5.256 16.369-11.307-19.854-35.129-26.592-56.381-29.9-6.646-1.354-13.472-3.465-18.241-8.098-4.193-4.068-5.259-9.502-4.351-15.299.965-6.215 1.236-12.527.904-18.811 15.839 6.941 33.255 1.576 49.934 4.277 15.488 2.508 23.561 15.146 30.179 28.279 4.276 8.48 5.266 15.128 3.212 23.183z" fill="#ceffff"/><path d="m1077.517 264.465c-23.323-49.725-44.011-28.912-76.839-36.049-11.307-2.465-11.041-5.721-13.533-15.096-7.736-29.164-30.086-54.277-59.801-61.941 4.478-15.303 2.107-32.352-6.486-45.811 5.183-.1 10.381.006 15.585.465 76.483 7.74 148.564 78.855 141.074 158.432z" fill="#00ebed"/><path d="m929.602 164.109c-25.686-9.262-55.035-4.73-76.73 12.021-28.597 22.08-31.994 62.436-15.325 93.123 16.078 29.602 49.435 38.152 80.952 36.063 76.769-8.496 78.878-116.662 11.103-141.207zm-21.32 111.61c-23.769 1.541-48.861-7.197-57.577-31.229-16.213-42.414 33.787-77.207 71.199-58.229 40.081 20.172 33.942 85.036-13.622 89.458z" fill="#efefea"/><path d="m908.282 268.81c-17.526 1.137-37.46-3.039-47.403-18.992-10.518-16.879-7.707-38.846 8.025-51.25 28.915-23.441 72.658-6.201 72.719 32.445.304 18.954-14.074 36.19-33.341 37.797z" fill="#ff1250"/><path d="m933.695 205.582c6.155 22.195-.81 47.342-28.188 50.189-18.35 1.912-37.137-8.357-43.978-25.535-2.512-6.305-3.065-13.635-2.001-20.787-6.926 12.201-6.533 27.715 1.352 40.369 9.943 15.953 29.877 20.129 47.403 18.992 19.267-1.607 33.645-18.844 33.341-37.797-.016-10.052-3.032-18.615-7.929-25.431z" fill="#ce064e"/><path d="m891.092 197.51c-27.839 6.434-27.285 33.459-5.016 42.811 11.986 5.029 31.478 3.65 36.22-11.191 6.964-21.794-12.354-35.96-31.204-31.62z" fill="#ff5c8e"/><path d="m944.686 171.699c10.423 11.158 18.203 24.238 22.028 40.508 6.802 28.938-6.413 61.285-31.591 77.193-24.277 15.342-60.506 8.922-82.055-7.932-12.619-9.873-20.051-23.211-24.353-37.771 1.524 8.846 4.472 17.533 8.83 25.557 16.078 29.602 49.435 38.152 80.952 36.063 70.533-7.807 77.993-99.696 26.189-133.618z" fill="#d3d3c9"/><path d="m916.486 178.582c-23.586-9.658-58.386 6.406-67.201 29.939-4.83 12.898-3.979 24.672.891 34.391-14.39-41.689 34.784-75.393 71.729-56.65 15.854 7.979 24.445 22.949 26.135 38.404.22-19.453-13.643-38.75-31.554-46.084z" fill="#d3d3c9"/><path d="m820.637 527.031c-7.52 20.645-20.313 38.986-35.883 54.35-13.93 13.746-31.475 26.568-50.887 30.748-19.584 4.219-23.705-9.676-30.379-21.828 5.095 16.758 8.73 34.029 8.537 51.559 55.383-20.88 95.542-61.089 108.612-114.829z" fill="#ff564d"/><path d="m530.759 751.558c15.935-14.842 31.065-30.447 38.825-51.342 8.574-23.189 6.263-47.865-.004-71.285-.439 20.584-1.066 40.545-8.348 60.67-9.406 26.006-27.993 46.201-52.459 58.713-11.556 5.91-24.578 10.367-37.631 8.045-12.479-2.221-21.58-12.617-27.939-22.771-6.497-10.373-10.752-21.85-13.355-33.754 1.16 27.047 8.932 53.588 22.595 76.877 12.811.219 25.63-.477 38.304-2.244 19.589-2.739 20.726-4.948 40.012-22.909z" fill="#ff564d"/><path d="m613.405 762.894c-10.34 1.998-20.635 3.029-30.027 3.059-6.439.023-13.305-.436-19.275-2.965-7.434-3.152-5.764-11.912-4.287-17.982.905-3.736 2.262-7.377 3.363-11.037-4.185 5.514-8.727 10.781-13.625 15.713-7.354 7.406-15.119 14.42-22.866 21.445 2.657.586 5.329 1.119 8.025 1.539 26.338 4.117 53.801.312 78.692-9.772z" fill="#ff564d"/><path d="m700.77 643.494c-.072-24.908-7.59-49.186-15.699-72.805-7.328-21.359-17.766-46.178-13.453-69.338-6.251 9.352-6.339 23.604-6.141 33.926.467 24.533 13.389 48.385 18.614 72.15 3.314 15.084 5.768 30.137 1.626 45.299-3.934 14.402-18.637 21.828-31.695 25.971-25.545 8.1-49.783 4.424-67.559-13.861.176 5.029.27 9.979.43 14.711 25.592 23.707 66.463 20.545 95.284 2.424 18.804-11.823 18.644-19.842 18.593-38.477z" fill="#ff564d"/><path d="m253.149 1042.314c22.868-26.193 20.926-21.285 12.209-38.453-8.313 19.154-23.595 34.74-46.459 29.051-24.773-6.162-46.234-37.375-48.227-64.285-.594.662-1.184 1.328-1.779 1.988-7.805 8.66-7.25 15.734 1.797 28.768 14.283 20.58 33.441 37.604 55.643 49.248 12.775 6.699 18.152 3.615 26.816-6.317z" fill="#ff564d"/><path d="m642.039 417.261c-12.762 8.998-28.473 13.41-42.9 18.945-11.975 4.596-24.521 10.828-34.756 19.301 21.385-8.211 43.905-12.295 66.467-12.291 9.857-10.209 19.785-21.055 30.889-30.033 9.033-7.301 9.416-7.301 6.535-17.127-1.639-5.604-3.266-11.211-4.842-16.83-2.424 15.164-7.47 28.223-21.393 38.035z" fill="#ff564d"/><path d="m140.082 1069.402c21.581 23.25 58.43 37.098 80.857 10.799.363-.424.723-.854 1.084-1.279-6.693 1.002-13.484.842-20.192-.166-8.251 2.732-16.941 4.242-26.239 3.977-13.789-.389-25.269-5.759-35.51-13.331z" fill="#ff564d"/><path d="m990.179 375.385c-8.657-13.455-4.994-25.803 3.061-36.25-9.483 7.584-16.775 18.402-23.208 29.049-6.452 10.686-7.046 11.773 4.061 17.037 10.525 4.994 19.878 12.389 27.168 21.467 1.725 2.148 3.083 3.943 4.326 4.865.164-3.24-.061-6.402-.353-8.768-1.28-10.373-9.638-18.981-15.055-27.4z" fill="#ff564d"/><path d="m424.276 832.222c-10.575 32.699-50.137 60.521-82.424 53.266-25.916-5.826-45.764-35.461-44.383-62.193-1.996 2.23-3.994 4.461-5.918 6.693-11.098 12.863-12.777 15.484-.63 31.266 15.521 20.154 35.038 37.717 58.78 46.158 14.121 5.018 22.032 2.197 34.328-10.762 17.078-18.008 34.334-35.857 51.787-53.512-4.216-3.064-7.941-7.031-11.54-10.916z" fill="#ff564d"/><path d="m939.548 473.418c-18.932 18.068-57.95 32.793-83.025 21.57-2.042-.914-3.827-2.141-5.399-3.615-.018-.018-.035-.033-.051-.049-.771-.711-1.446-1.547-2.144-2.357-8.961-11.172-9.649-31.635-13.316-43.787-2.503-8.295-6.022-17.508-11.745-24.479 12.728 27.854 15.217 60.697 11.16 90.658 10.953 3.611 27.025 3.002 39.672 2.285 25.219-2.738 49.168-12.672 70.185-26.783 10.906-7.32 11.685-8.844 13.411-18.666 1.307-7.459-.27-14.838-3.467-21.688-2.331 9.868-6.983 18.991-15.281 26.911z" fill="#ff564d"/><path d="m590.615 497.019c-7.53 5.646-12.307 15.23-16.806 23.098-5.448 9.521-9.123 19.105-17.024 27.072-.808.814-2.739 2.424-5.123 4.094 1.975 5.076 4.108 10.119 6.318 15.145 8.31-24.249 19.301-47.506 32.635-69.409z" fill="#ff564d"/><path d="m758.695 234.148c1.45-10.914 4.241-21.631 8.143-31.984-2.408 3.094-4.878 6.146-7.597 8.947-10.318 10.635-25.51 9.033-38.649 11.652 13.262 1.457 26.205 5.288 38.103 11.385z" fill="#ff564d"/><path d="m683.924 526.65c8.883-5.131 16.951-11.553 24.524-18.496-1.642.494-3.347.916-5.108 1.275-4.819.984-14.904 1.625-20.839-1.508-.571 6.215-.157 12.518 1.423 18.729z" fill="#ff564d"/><path d="m753.388 449.181c6.948-.713 7.497-3.717 11.913-11.225 7.932-13.482 14.985-28.012 18.828-43.127 3.025-11.896 1.738-13.824-5.322-24.195-16.564-24.324-36.356-53.506-26.251-81.178-4.938 6.35-6.748 15.34-7.414 23.338-1.801 21.627 14.65 40.371 20.105 60.256 7.005 25.531-2.384 55.826-28.985 64.441-10.668 3.453-22.664 2.512-33.156-.965-5.939-1.969-10.658-5.41-14.524-9.689 2.8 10.352 5.855 15.088 18.185 18.807 14.953 4.506 31.102 5.137 46.621 3.537z" fill="#ff564d"/><path d="m384.059 734.154c-1.043 2.639-1.701 5.506-2.299 8.238-1.045 4.771-2.388 12.707-5.131 19.471 4.131 1.691 8.326 3.236 12.619 4.574-2.722-10.635-4.412-21.488-5.189-32.283z" fill="#ff564d"/><path d="m733.633 413.529c7.342-11.553 2.301-22.527-4.994-32.676-12.318-17.137-20.021-32.438-19.208-54.176.564-14.98 1.489-35.857-12.013-40.58-8.471-2.957-12.612-.219-14.504 8.525-9.849 45.646-.641 51.359 10.095 106.084 1.837 9.361 3.036 22.299 15.153 23.609 9.075.984 20.327-2.686 25.471-10.786z" fill="#fbc471"/><path d="m594.86 426.855c10.807-3.207 21.526-7.119 31.725-11.543 6.678-2.898 25.856-15.809 20.746-25.74-7.631-14.822-39.384 13.064-56.042 29.926-8.883 8.992-6.459 10.334 3.571 7.357z" fill="#fbc471"/><path d="m918.84 450.834c-3.816-.129-7.846 1.143-11.5 2.018-11.227 2.688-22.108.951-32.5-3.691-4.07-1.818-8.162-4.555-12.336-7.045-9.367-5.588-10.898-1.604-8.552 7.092 2.265 8.383 3.11 16.893 5.919 25.635 2.015 6.281 7.725 9.691 13.71 11.234 14.88 3.836 36.19-2.926 47.536-12.354 9.173-7.62 13.934-22.331-2.277-22.889z" fill="#fbc471"/><path d="m1012.962 355.256c-.845-4.635-2.522-11.854-8.495-11.766-5.984.09-7.969 9.988-7.929 14.283.038 3.945 2.066 7.793 4.022 11.072.828 1.393 1.954 2.625 3.107 3.842 4.502 4.762 6.656 7.137 8.77-1.109 1.371-5.344 1.464-11.184.525-16.322z" fill="#fbc471"/><path d="m793.596 513.006c-45.643 48.188-60.478 54.244-71.293 65.881-4.213 4.531-3.771 13.396 1.875 16.729 7.969 4.701 17.328.863 25.029-2.66 48.286-22.1 59.961-61.373 59.295-74.939-.575-11.711-6.59-13.791-14.906-5.011z" fill="#fbc471"/><path d="m633.012 553.078c-22.859 36.361-56.41 100.006-10.508 114.598 19.527 6.209 35.977-6.254 36.357-25.996.303-15.693-6.529-32.059-9.677-47.279-2.55-12.324-4.499-26.502-3.699-39.924.923-15.464.285-21.694-12.473-1.399z" fill="#fbc471"/><path d="m530.873 625.549c-12.393 1.031-24.672 3.545-36.734 6.443-10.996 2.645-24.617 7.313-31.078 17.402-14.59 22.785 5.494 55.283 22.271 71.635 24.045 23.436 45.688-12.561 55.297-31.986 5.557-11.229 14.765-31.604 13.095-47.26-1.475-13.813-8.792-17.395-22.851-16.234z" fill="#fbc471"/><path d="m580.139 743.705c-3.871-2.602-8.785-8.324-10.314 1.85-.991 6.596.043 12.311 7.846 14.766 5.451 1.717 19.906 2.105 27.783-1.174 6.356-2.645 5.909-6.195-.578-6.91-12.544-1.38-20.284-5.544-24.737-8.532z" fill="#fbc471"/><path d="m564.174 512.836c-4.725-.336-10.094 1.125-12.584 5.178-1.564 2.547-1.725 5.08-.914 7.932.484 1.713 1.057 3.688 1.834 5.547 1.671 3.988 3.796 3.117 6.266-.184 3.08-4.123 6.593-8.359 8.344-12.98 1.331-3.521 1.059-5.214-2.946-5.493z" fill="#fbc471"/><path d="m397.18 837.976c-36.042-2.838-49.814-17.371-60.326-18.314-14.4-1.289-27.937 13.42-20.928 27.559 7.965 16.068 23.159 31.971 42.914 27.387 15.138-3.516 33.529-13.268 42.354-27.402 3.494-5.603 1.778-8.775-4.014-9.23z" fill="#fbc471"/><path d="m230.733 981.041c-10.406-1.336-21.137-1.84-30.871-5.732-3.947-1.578-10.783-2.287-12.111 3.416-3.582 15.4 13.625 32.6 24.803 40.18 8.693 5.893 28.959 8.301 33.896-4.34 2.617-6.701-.33-12.555-2.867-18.883-3.473-8.68-5.235-13.659-12.85-14.641z" fill="#fbc471"/><path d="m922.607 137.564c-2.009 1.193-4.124 2.258-6.463 3.059-11.266 3.854-19.267-4.941-24.798-13.141-1.711-2.537-3.499-5.123-5.537-7.342 3.863 8.91 5.15 19.141 4.025 28.645 10.236-1.41 20.654-1.084 30.793.963 1.166-3.994 1.822-8.088 1.98-12.184z" fill="#a9cddd"/><path d="m1066.015 301.33c-.434-5.367-2.422-10.955-6.525-16.602-9.425-12.969-26.415-13.994-40.829-16.553-13.551-2.406-23.026-8.818-26.674-22.396-.66-2.465-1.133-4.924-1.813-7.277-.033 4.354-.258 8.707-.926 13.012-.908 5.797.157 11.23 4.351 15.299 4.77 4.633 11.595 6.744 18.241 8.098 19.957 3.104 42.178 9.241 54.175 26.419z" fill="#a9cddd"/><path d="m1054.789 298.888c-2.443-2.24-5.215-4.127-8.095-5.863 5.277 10.65 6.33 22.236.364 34.043-3.434 6.799-9.354 11.951-15.797 16.238.765 4.287 1.053 8.748 1.07 13.066 2.563-2.301 5.078-4.654 7.486-7.109 6.712-6.842 12.599-14.479 17.617-22.676 6.449-10.536-.151-25.417-2.645-27.699z" fill="#00afb3"/><path d="m985.196 328.787c-11.497 6.309-20.789 17.174-29.239 26.934-10.485 12.109-19.343 28.373-35.133 34.09-13.553 4.906-30.651-1.221-42.007-8.691-12.793-8.416-19.971-22.924-23.488-37.363-1.061-4.359-1.625-8.83-1.9-13.332-3.367 13.971-4.061 28.91 1.084 41.436 2.631 6.416 14.021 15.719 21.619 18.914 20.016 8.416 41.459 12.457 63.475 10.623 3.428-7.916 7.186-15.684 11.251-23.287 7.161-13.498 23.17-40.535 41.206-52.355-2.355.808-4.675 1.828-6.868 3.031z" fill="#00afb3"/><path d="m811.528 313.791c2.959-10.338 7.697-20.633 15.005-28.646-5.911 1.947-11.464 5.439-16.539 10.68-4.808 4.963-10.209 17.969-20.627 8.287-5.702-5.297-9.058-14.137-11.366-21.283-2.924-9.043-3.844-18.783-4.134-28.23-.897-29.08 7.835-58.008 22.612-83.213-27.787 38.697-37.648 89.16-14.299 134.215 6.633 13.008 15.303 25.018 25.291 35.914.099-9.375 1.492-18.781 4.057-27.724z" fill="#00afb3"/><path d="m1066.035 235.625c-11.124-13.801-25.186-16.432-42.023-17.318-16.375-.861-24.782-7.066-32.731-21.305-4.886-8.754-10.618-15.967-18.126-22.611-8.725-7.725-20.836-16.369-33.184-18.48 23.341 10.674 40.579 32.551 47.174 57.41 2.492 9.375 2.227 12.631 13.533 15.096 31.225 6.787 51.467-11.662 73.439 29.305-.405-7.798-2.623-15.322-8.082-22.097z" fill="#00afb3"/><path d="m882.632 150.088c1.604-9.494.351-20.148-4.034-28.979-.276-.557-.555-1.018-.834-1.488 1.963 10.561-2.301 20.76-12.051 27.926-7.72 5.674-16.278 10.123-23.84 16.068-15.19 11.938-25.393 26.289-29.406 45.348-3.377 16.025-.762 33.564 5.044 48.703 2.685 7 6.591 15.299 12.396 20.961-14.265-23.455-18.63-54.242-8.367-80.01 10.257-25.346 34.829-42.951 61.092-48.529z" fill="#88f9f9"/><path d="m1028.856 285.506c-.451-.125-.896-.299-1.35-.416-14.582-3.775-33.687-3.809-42.48-17.855-17.421 45.682-70.125 59.258-113.164 44.287-9.615-3.346-11.149-3.104-14.303 5.414-.393 1.061-.734 2.17-1.104 3.256 8.395-3.795 16.729-.412 26.476 3.531 8.417 3.406 17.452 4.742 26.446 5.322 17.023 1.098 32.805-3.555 47.252-12.355 6.258-3.814 11.723-8.816 16.658-14.184 9.512-10.346 18.902-15.172 33.168-16.691 7.465-.798 14.955-.835 22.401-.309z" fill="#88f9f9"/><path d="m936.443 106.033c-5.204-.459-10.402-.564-15.585-.465 6.621 10.371 9.507 22.871 8.449 35.066 1.322-2.984 2.501-6.033 3.766-8.869 5.85-13.121 15.832-15.6 29.007-12.881 18.073 3.73 35.786 14.902 50.548 25.543 18.4 13.26 33.229 30.781 45.524 49.693 6.786 10.436 12.21 21.68 16.812 33.225.313.781.562 1.578.826 2.369-12.354-64.568-74.237-117.091-139.347-123.681z" fill="#88f9f9"/><g fill="#f3af79"><path d="m684.276 269.076c19.478-3.516 39.742-.113 59.036 3.619 3.632.701 7.245 1.428 10.638 2.646 5.609 2.016 5.861 1.02 5.006-4.58-.886-5.807-1.307-11.613-1.385-17.406-3.326 4.418-7.879 7.846-14.027 9.986-9.719 3.385-21.14.326-31.102-.082-9.476-.384-19.756 1.172-28.166 5.817z"/><path d="m613.352 483.535c20.338-2.479 42.621-2.352 62.291 4.457 2.388-5.76 3.816-11.807 4.549-17.945-7.715 3.607-17.587 4.557-24.822 4.572-16.197.033-31.354-3.123-47.573-.471-21.79 3.563-43.56 13.715-58.735 30.027 20.329-10.011 41.641-17.878 64.29-20.64z"/><path d="m460.301 788.802c1.741 2.441 3.529 4.852 5.404 7.199 5.174 6.473 11.754 5.818 21.587-3.566 3.328-3.172 6.665-6.334 10.005-9.494-11.898 6.807-25.199 11.791-36.996 5.861z"/><path d="m548.658 573.24c-2.209-4.816-4.342-9.613-6.397-14.426.673 3.498 1.212 7.025 1.576 10.621.326 3.215.38 6.436.364 9.664-.047 10.047-7.558 12.213-15.393 14.166-15.495 3.861-30.662 5.316-45.711 11.242-9.965 3.924-23.111 10.17-33.377 18.527 15.962-7.656 33.211-12.926 50.512-15.873 21.035-3.584 43.063-3.832 63.427 2.777-4.362-12.477-9.499-24.69-15.001-36.698z"/><path d="m852.16 311.644c-6.047 9.41-7.461 20.777-9.593 32.049-1.36 7.201-3.765 17.564-16.255 11.861-5.197-2.375-7.707-8.041-9.326-13.102-1.059-3.314-1.561-6.768-2.001-10.232-1.439 13.854.893 18.459 10.649 26.725 7.304 6.193 15.004 11.877 22.928 17.014-7.814-20.555-4.539-44.049 3.598-64.315z"/><path d="m779.567 444.302c.468-.131.846-.236 1.352-.375 9.016-2.498 17.828-5.758 26.26-9.738 8.536-4.035 8.959-3.525 4.954-11.586-3.416-6.887-7.461-13.459-11.683-19.914 1.688 8.709 1.354 17.635-3.06 25.699-3.823 6.981-10.594 11.971-17.823 15.914z"/><path d="m763.781 515.922c-8.514 7.08-17.59 13.477-27.187 19.637-10.729 6.883-21.799 13.738-34.778 14.986-7 .676-10.557-3.809-14.083-8.428 2.442 8.652 5.318 17.186 8.257 25.703 24.414-13.922 47.24-31.584 67.393-51.5.142-.139.262-.26.398-.398z"/><path d="m680.209 449.9c-.71-7.637-2.001-15.15-3.627-22.592-2.145 4.723-5.271 8.936-9.685 11.99-5.397 3.738-11.69 4.365-18.005 4.902 10.754 1.257 21.997 4.089 31.317 5.7z"/><path d="m579.223 620.609c9.916-20.512 18.996-41.42 29.477-61.664 11.552-22.314 24.721-43.869 40.592-63.359-14.391 8.631-24.232 23.762-33.105 37.709-7.611 11.973-13.33 24.938-19.672 37.594-3.643 7.27-7.396 14.092-14.112 19-4.181 3.053-8.632 2.664-13.114 2.547.85 2.084 1.703 4.166 2.498 6.27 2.711 7.151 5.241 14.473 7.436 21.903z"/><path d="m679.287 711.496c-16.895 15.789-39.135 25.764-61.955 21-11.808-2.467-28.904-7.066-33.613-19.506-1.738-4.594.021-11.209-.156-16.059-.029-.781-.207-1.525-.331-2.283-2.132 7.953-5.239 15.527-9.144 22.701 15.519 13.865 35.536 23.482 56.215 24.834 16.265 1.064 26.248-4.365 36.907-15.705 4.414-4.695 8.446-9.709 12.077-14.982z"/><path d="m799.317 481.494c-15.857 8.031-33.536 11.029-51.168 11.23-15.379.178-35.238-3.289-47.424-13.51-6.018-5.047-5.184-14.541-6.701-21.641-.373-1.742-.988-3.344-1.775-4.844.5 8.326.248 16.633-1.406 24.707-1.152 5.613 1.492 7.576 4.449 9.275 7.729 4.418 16.154 7.381 24.848 9.346 21.445 4.846 44.396 3.822 65.479-2.111 10.021-2.852 19.734-7.006 28.336-12.789 9.582-6.447 10.889-9.451 9.815-17.965-.119-.953-.299-1.902-.437-2.855-5.39 9.098-12.712 15.43-24.016 21.157z"/><path d="m1000.217 429.455c-2.199 2.828-4.628 5.551-7.25 8.275-3.244 3.367-6.598 6.182-10.485 8.852-9.325 6.414-14.511-1.541-18.486-8.963-5.747-10.723-14.603-18.189-11.605-31.686.917-4.131 2.472-7.785 3.146-11.594-.588 1.133-1.195 2.375-1.865 3.854-3.359 7.404-6.539 14.908-11.084 21.506 14.967 12.91 26.436 32.496 21.818 52.15 3.326-2.918 6.584-5.902 9.694-9.02 8.479-8.514 16.399-18.176 23.239-28.643 1.155-1.768 2.11-3.303 2.878-4.731z"/><path d="m398.877 793.799c-1.557 5.363-4.234 9.885-10.979 12.355-6.527 2.391-14.568.264-21.027-1.256-12.063-2.838-23.643-6.688-33.766-13.756 1.629 2.295 5.23 4.416 10.942 7.223 21.552 10.59 43.993 19.082 68.313 19.42-5.25-7.494-9.685-15.576-13.483-23.986z"/><path d="m455.285 823.631c2.318-2.283 4.647-4.563 6.973-6.842-4.988.951-10.033 1.621-15.136 1.932-19.224 1.17-29.991-15.107-38.052-29.971-9.816-18.102-17.59-39.975-17.002-61.182-.965 5.266-.879 11.381.285 19.313 4.169 28.42 15.284 56.596 34.123 77.875 12.932 14.611 16.893 10.623 28.809-1.125z"/><path d="m274.281 980.615c-8.717-7.418-14.609-21.012-18.043-33.492 1.953 18.57 7.055 36.684 15.158 53.523 6.445 13.404 13.816 4.053 20.754-3.791 3.865-4.365 7.789-8.68 11.685-13.02-9.981 3.827-20.229 4.714-29.554-3.22z"/><path d="m291.74 939.851c-26.062-11.598-44.601-36.395-40.356-63.641-.166.189-.34.381-.506.574-11.883 13.684-12.638 19.018-3.018 33.609 12.055 18.297 29.957 32.459 49.998 41.555 2.852 1.43 5.793 2.816 8.805 4.021 16.923 6.781 21.498.666 32.168-10.68 2.722-2.891 5.123-5.414 7.318-7.721-18.133 6.83-37.18 9.953-54.409 2.283z"/><path d="m200.797 959.025c16.604 5.049 34.043 7.451 51.361 7.084-2.301-10.742-3.66-21.742-3.848-32.773-5.043 9.68-10.863 17.467-22.988 21.066-10.865 3.227-21.936 1.971-32.972 1.041 1.834 1.248 4.593 2.412 8.447 3.582z"/><path d="m185.225 1060.472c-11.506-4.859-22.287-12.484-31.4-20.92-12.043-11.145-16.129-24.191-13.523-38.242-1.217 1.176-2.441 2.354-3.66 3.564-9.908 9.834-7.172 19.039.334 27.932 18.066 21.412 44.279 38.209 71.908 39.631 7.123.369 14.627-.85 20.012-3.689-14.646.455-29.32-2.215-43.671-8.276z"/></g><path d="m993.291 419.551c-1.867-6.637-8.885-13.023-15.916-17.768-9.146-6.174-9.123 2.859-7.637 7.705 1.39 4.535 1.552 9.479 2.51 14.125 1.203 5.844 4.15 14.373 11.605 12.16 5.729-1.699 11.057-10.461 9.438-16.222z" fill="#fff7cf"/><path d="m556.875 484.849c38.488-22.473 75.66-20.352 92.734-20.338 14.549.008 10.609-4.352.668-5.611-11.533-1.461-22.781-1.93-34.393-.979-19.256 1.578-38.322 7.32-55.938 15.346-4.808 2.193-7.477 2.947-7.929 8.963-.236 3.229 1.361 4.66 4.858 2.619z" fill="#fff7cf"/><path d="m827.836 343.439c8.935-1.422 8.469-18.902 11.106-25.105 1.495-3.514 5.653-8.826 4.284-13.012-.688-2.102-1.907-3.309-3.371-4.271-5.039-3.314-8.811 1.232-10.414 4.568-3.641 7.578-5.785 16.506-6.244 24.229-.146 2.447-.215 14.365 4.639 13.591z" fill="#fff7cf"/><path d="m336.812 918.246c-20.651-8.014-44.378-13.463-59.099-44.02-2.967-6.158-4.992-7.342-9.342-.238-2.496 4.074-4.481 8.309-4.547 13.4-.112 8.625 7.074 17.029 12.76 22.729 12.576 12.609 32.533 21.842 50.453 19.996 5.167-.533 20.635-7.652 9.775-11.867z" fill="#fff7cf"/><path d="m722.088 535.758c7.377-3.201 24.461-10.6 26.225-19.74.756-3.916-4.574-4.762-7.15-5.039-8.301-.893-16 3.182-23.162 9.406-1.367 1.184-2.721 2.381-4.061 3.592-3.463 3.131-8.604 7.146-9.9 11.895-2.054 7.513 16.641.497 18.048-.114z" fill="#fff7cf"/><path d="m696.004 242.877c9.227-4.92 20.045-4.916 30.225-5.316 8.605-.338 17.193.006 25.709.953-12.494-5.885-26.047-8.59-39.766-9.525-7.77-.531-11.209 1.176-16.826 8.855-2.204 3.012-4.275 6.109-6.271 9.252 2.251-1.479 4.519-2.936 6.929-4.219z" fill="#fff7cf"/><path d="m592.912 553.16c1.736-3.014 21.105-35.611 31.814-49.727.986-1.303 6.386-8.479-2.353-6.371-11.032 2.666-18.466 11.57-25.136 21.818-5.977 9.188-10.688 19.072-14.347 29.379-1.605 4.525-4.906 13.398-3.394 18.537 2.541 8.606 12.748-12.478 13.416-13.636z" fill="#fff7cf"/><path d="m354.684 793.476c7.031 4.088 17.73 6.713 25.816 5.34 8.729-1.48 8.371-8.365 4.576-14.994-2.758-4.818-9.758-6.725-14.613-8.283-2.139-.686-4.869-2.35-7.604-3.596-4.773-2.174-6.555-2.441-10.689 2.779-5.113 6.444-6.912 13.272 2.514 18.754z" fill="#fff7cf"/><path d="m206.459 940.345c-2.469 6.826 9.66 4.561 12.496 3.938 8.234-1.809 15.627-4.832 16.23-14.168.086-1.33-.158-6.125-1.012-10.139-1.695-7.984-4.871-4.582-9.539-.674-7.251 6.083-15.11 12.579-18.175 21.043z" fill="#fff7cf"/><path d="m417.34 715.677c-.561-4.469-2.115-8.668-6.104-2.406-3.652 5.73-6 9.844-5.764 18.705.766 28.568 11.938 66.889 33.635 75.627 4.588 1.848 7.738-.203 9.553-4.291 1.996-4.502-4.471-12.199-6.6-15.352-18.782-27.822-20.602-39.486-24.72-72.283z" fill="#fff7cf"/><path d="m801.21 452.976c-11.54 5.191-24.159 9.379-36.608 10.158-12.574.785-25.299-.68-37.809 1.023-14.23 1.934-10.609 12.109.09 15.855 15.289 5.354 85.458 4.205 84.055-23.119-.202-3.973-5.062-6.01-9.728-3.917z" fill="#fff7cf"/><path d="m663.963 706.564c-19.514 5.525-37.006 2.27-57.506.393-6.631-.607-10.047 1.773-5.105 7.25 17.334 19.227 54.783 10.352 65.917-4.695 2.005-2.717 1.643-4.348-3.306-2.948z" fill="#fff7cf"/><path d="m296.869 966.818c-5.71-2.502-11.529-4.768-17.096-7.578-2.84-1.436-5.352-3.242-7.758-5.191-4.191-3.396-8.007-6.377-4.553 2.756 4.459 11.82 13.975 25.387 26.719 19.906 5.523-2.371 9.761-6.793 2.688-9.893z" fill="#fff7cf"/><path d="m166.973 1016.457c-.75-.982-3.359-4.98-6.16-7.998-3.107-3.354-7.361-5.678-10.406 1.93-6.619 16.49 33.964 44.408 53.149 47.125 13.142 1.861 2.577-2.816.63-3.98-15.502-9.273-26.317-22.78-37.213-37.077z" fill="#fff7cf"/><path d="m529.135 567.996c-6.977-8.637-22.088-.973-29.39 2.789-12.345 6.363-23.462 14.25-32.151 24.83-5.403 6.574-2.26 5.635 3.131 3.043 16.9-8.115 36.127-12.758 54.388-15.848 9.342-1.582 9.446-8.101 4.022-14.814z" fill="#fff7cf"/></g></g></svg>