<?xml version="1.0" encoding="iso-8859-1"?>
<!-- Generator: Adobe Illustrator 27.7.0, SVG Export Plug-In . SVG Version: 6.00 Build 0)  -->
<svg xmlns="http://www.w3.org/2000/svg" xmlns:xlink="http://www.w3.org/1999/xlink" version="1.1" id="Layer_1" x="0px" y="0px" viewBox="0 0 512 512" style="enable-background:new 0 0 512 512;" xml:space="preserve">
<g>
	<g>
		<path style="fill:#FDFDFF;" d="M359.004,21.024c0,0-1.92-14.575,12.109-9.859c14.029,4.716,9.458,18.06,4.109,13.494    c-5.348-4.566,4.687-20.054,15.422-13.158s8.334,20.278,0.719,21.266c-7.615,0.988,4.61-15.581,14.202-5.349    c9.593,10.233-11.351,28.888-19.917,22.029c-8.565-6.859-1.862-17.93,0.192-11.183c2.055,6.747-3.486,13.363-18.677,13.102    c-15.191-0.262-8.276-23.633-2.967-16.83c5.31,6.803-3.505,14.482-14.222,6.467C339.261,32.989,351.486,16.42,359.004,21.024z"/>
		<path style="fill:#261D2A;" d="M368.005,52.453c-0.284,0-0.57-0.002-0.859-0.007c-5.014-0.087-8.545-2.644-9.805-7.055    c-2.428-0.316-5.166-1.395-8.01-3.523c-6.231-4.66-5.501-11.937-2.013-17.082c2.512-3.706,6.703-6.44,10.516-5.432    c-0.003-2.311,0.437-6.274,3.195-8.544c2.39-1.968,5.9-2.192,10.429-0.671c2.081,0.7,3.733,1.56,5.041,2.488    c3.59-3.723,9.173-5.607,14.73-2.037c5.424,3.485,7.495,8.316,7.723,12.415c2.663,0.117,5.232,1.357,7.403,3.674    c4.392,4.684,3.435,11.814-2.437,18.163c-5.311,5.741-13.754,9.602-18.942,5.448c-0.663-0.531-1.247-1.092-1.757-1.674    C379.849,51.115,374.598,52.453,368.005,52.453z M359.635,45.466c0.883,2.387,2.927,4.741,7.549,4.82    c6.521,0.111,11.661-1.083,14.76-3.405c-1.842-3.042-1.987-6.368-1.082-8.834c0.685-1.866,1.932-2.985,3.233-2.963    c0.718,0.02,2.036,0.42,2.781,2.866c0.923,3.033,0.43,6.032-1.389,8.443c-0.205,0.271-0.424,0.534-0.659,0.789    c0.425,0.485,0.922,0.962,1.497,1.423c3.964,3.172,11.394-0.244,16.006-5.229c4.013-4.339,6.764-10.614,2.448-15.219    c-2.022-2.156-4.058-2.933-5.875-3.012c-0.051,0.496-0.129,0.971-0.23,1.423c-0.906,4.029-3.654,6.814-7.171,7.27    c-2.524,0.317-3.253-0.996-3.457-1.579c-0.739-2.113,1.44-5.518,4.86-7.592c1.277-0.775,2.587-1.277,3.893-1.513    c-0.188-3.511-1.988-7.693-6.737-10.743c-4.706-3.025-9.092-1.239-11.895,1.601c2.758,2.683,3.246,5.548,3.328,6.668    c0.184,2.548-0.809,4.757-2.529,5.626c-1.388,0.701-3.01,0.4-4.444-0.824c-3.046-2.601-2.018-7.549,0.59-11.186    c-1.124-0.775-2.545-1.503-4.341-2.106c-3.774-1.268-6.587-1.173-8.364,0.286c-3.053,2.507-2.338,8.351-2.331,8.41    c0.054,0.411-0.134,0.818-0.483,1.045c-0.35,0.227-0.797,0.233-1.152,0.015c-3.054-1.872-7.008,0.622-9.335,4.055    c-2.912,4.295-3.571,10.333,1.519,14.139c2.253,1.684,4.393,2.625,6.293,3.007c-0.447-4.498,1.276-9.398,3.921-10.631    c0.695-0.324,2.495-0.842,4.211,1.357c2.447,3.135,2.442,6.778-0.013,9.284C363.791,44.429,361.916,45.305,359.635,45.466z     M384.033,37.245c-0.15,0-0.712,0.374-1.141,1.546c-0.521,1.421-0.733,3.98,0.662,6.569c0.073-0.089,0.142-0.177,0.21-0.267    c1.412-1.872,1.774-4.125,1.046-6.514C384.471,37.466,384.136,37.236,384.033,37.245z M362.134,34.376    c-0.175,0-0.304,0.06-0.383,0.096c-1.536,0.716-3.191,4.843-2.636,8.873c1.883-0.049,3.4-0.701,4.379-1.7    c1.676-1.712,1.62-4.181-0.147-6.444C362.827,34.533,362.419,34.376,362.134,34.376z M396.701,25.377    c-1.06,0.265-1.974,0.712-2.674,1.136c-2.873,1.741-4.203,4.283-3.941,5.031c0.051,0.141,0.458,0.245,1.14,0.151    c2.594-0.335,4.641-2.482,5.341-5.601C396.619,25.862,396.664,25.623,396.701,25.377z M376.778,15.676    c-2.24,3.189-2.619,6.655-0.854,8.161c0.531,0.455,1.32,0.922,2.067,0.539c0.746-0.377,1.486-1.646,1.349-3.543    C379.278,19.968,378.898,17.8,376.778,15.676z"/>
	</g>
	<g>
		<path style="fill:#FDFDFF;" d="M18.186,301.511c0,0-1.92-14.575,12.109-9.859c14.029,4.716,9.458,18.061,4.109,13.494    c-5.348-4.566,4.687-20.054,15.422-13.158c10.736,6.896,8.334,20.278,0.72,21.266c-7.615,0.988,4.61-15.581,14.202-5.349    c9.593,10.232-11.351,28.888-19.916,22.029c-8.565-6.859-1.862-17.93,0.193-11.183c2.055,6.747-3.486,13.363-18.677,13.102    c-15.191-0.261-8.277-23.633-2.967-16.83s-3.505,14.482-14.222,6.467C-1.558,313.476,10.667,296.907,18.186,301.511z"/>
		<path style="fill:#261D2A;" d="M27.186,332.941c-0.284,0-0.57-0.002-0.859-0.007c-5.014-0.087-8.544-2.644-9.804-7.056    c-2.428-0.316-5.166-1.395-8.01-3.523c-6.231-4.66-5.501-11.936-2.013-17.081c2.511-3.706,6.706-6.437,10.516-5.432    c-0.003-2.311,0.437-6.274,3.195-8.544c2.391-1.967,5.9-2.192,10.429-0.671c2.081,0.699,3.731,1.56,5.041,2.488    c3.588-3.724,9.168-5.609,14.73-2.037c5.424,3.485,7.494,8.315,7.722,12.414c2.664,0.117,5.232,1.357,7.404,3.673    c4.392,4.685,3.435,11.815-2.438,18.164c-5.31,5.742-13.752,9.605-18.941,5.447c-0.663-0.531-1.247-1.092-1.756-1.674    C39.03,331.603,33.779,332.941,27.186,332.941z M18.817,325.953c0.882,2.388,2.927,4.742,7.548,4.821    c6.551,0.114,11.662-1.083,14.761-3.406c-1.843-3.041-1.987-6.368-1.082-8.835c0.683-1.861,1.934-3.042,3.232-2.96    c0.719,0.02,2.035,0.419,2.781,2.866c0.924,3.032,0.431,6.031-1.388,8.443c-0.204,0.271-0.424,0.534-0.659,0.788    c0.426,0.485,0.922,0.962,1.497,1.423c3.962,3.173,11.394-0.243,16.006-5.228c4.013-4.339,6.764-10.616,2.448-15.22    c-2.022-2.156-4.059-2.933-5.875-3.011c-0.052,0.495-0.129,0.97-0.231,1.422c-0.905,4.029-3.652,6.815-7.17,7.271    c-2.523,0.324-3.253-0.996-3.457-1.579c-0.74-2.113,1.44-5.519,4.86-7.593c1.277-0.774,2.586-1.277,3.892-1.512    c-0.188-3.512-1.988-7.693-6.736-10.743c-4.706-3.026-9.092-1.24-11.896,1.601c2.759,2.682,3.247,5.548,3.328,6.668    c0.183,2.548-0.809,4.756-2.529,5.626c-1.388,0.699-3.008,0.401-4.443-0.825c-3.046-2.601-2.018-7.549,0.59-11.185    c-1.124-0.776-2.545-1.503-4.341-2.106c-3.775-1.269-6.588-1.174-8.364,0.286c-3.053,2.507-2.338,8.351-2.331,8.41    c0.054,0.411-0.134,0.818-0.483,1.045c-0.35,0.227-0.797,0.233-1.152,0.015c-3.057-1.871-7.011,0.622-9.335,4.055    c-2.912,4.294-3.571,10.332,1.519,14.138c2.253,1.684,4.393,2.625,6.293,3.007c-0.447-4.498,1.276-9.397,3.921-10.63    c0.694-0.323,2.495-0.842,4.211,1.357c2.447,3.135,2.441,6.779-0.014,9.285C22.971,324.916,21.096,325.792,18.817,325.953z     M43.214,317.732c-0.151,0-0.712,0.374-1.141,1.545c-0.521,1.422-0.733,3.981,0.662,6.57c0.073-0.088,0.142-0.176,0.21-0.266    c1.412-1.872,1.774-4.125,1.045-6.514C43.652,317.953,43.213,317.697,43.214,317.732z M21.315,314.864    c-0.176,0-0.304,0.059-0.383,0.096c-1.536,0.716-3.191,4.842-2.637,8.873c1.883-0.05,3.401-0.702,4.379-1.701    c1.677-1.711,1.621-4.18-0.146-6.443C22.007,315.021,21.599,314.864,21.315,314.864z M55.881,305.864    c-1.059,0.265-1.973,0.712-2.673,1.136c-2.873,1.742-4.203,4.284-3.941,5.032c0.051,0.14,0.458,0.243,1.14,0.151    c2.594-0.336,4.641-2.483,5.341-5.603C55.801,306.349,55.845,306.11,55.881,305.864z M35.96,296.164    c-2.24,3.188-2.619,6.654-0.854,8.16c0.532,0.456,1.325,0.917,2.066,0.54c0.746-0.376,1.486-1.646,1.35-3.543    C38.459,300.456,38.08,298.289,35.96,296.164z"/>
	</g>
	<path style="fill:#E8C01B;" d="M448.043,83.305c0,0-6.257-16.76-3.129-15.42c3.129,1.341,13.242,6.448,13.242,6.448   s10.893-7.541,11.563-6.524c0.671,1.017-0.894,14.826-0.894,14.826s13.408,7.151,10.95,8.715   c-2.458,1.564-14.749,2.905-14.749,2.905s-4.664,17.207-6.87,15.475c-3.364-2.643-6.315-13.24-6.315-13.24   s-14.098-0.224-13.651-2.458C438.637,91.797,448.043,83.305,448.043,83.305z"/>
	<path style="fill:#E8C01B;" d="M116.106,451.34c0,0-6.257-16.76-3.129-15.419c3.129,1.341,13.242,6.448,13.242,6.448   s10.892-7.541,11.563-6.524c0.67,1.017-0.894,14.825-0.894,14.825s13.408,7.151,10.95,8.715   c-2.458,1.564-14.749,2.905-14.749,2.905s-4.664,17.207-6.87,15.475c-3.364-2.642-6.315-13.24-6.315-13.24   s-14.098-0.223-13.651-2.458C106.701,459.832,116.106,451.34,116.106,451.34z"/>
	<path style="fill:#261D2A;" d="M20.811,132.329h-0.006l-4.178-0.015l4.427-3.001c0.494-0.335,0.623-1.007,0.287-1.5   c-0.337-0.496-1.013-0.619-1.5-0.287l-5.971,4.048l0.132-6.977c0.012-0.597-0.463-1.088-1.059-1.1l-0.006,0   c-0.593-0.008-1.082,0.465-1.094,1.06l-0.117,6.157l-3.652-3.961c-0.406-0.436-1.087-0.468-1.527-0.062   c-0.438,0.404-0.466,1.089-0.062,1.527l3.757,4.076l-6.92-0.024c-0.597-0.002-1.082,0.479-1.084,1.076   c-0.001,0.593,0.473,1.076,1.066,1.083l0.011,0l6.312,0.022l-4.932,3.344c-0.494,0.335-0.623,1.007-0.287,1.501   c0.207,0.304,0.54,0.469,0.88,0.473c0.215,0.003,0.431-0.058,0.621-0.186l5.723-3.88l-0.133,7.028   c-0.012,0.597,0.462,1.088,1.059,1.1l0.006,0c0.593,0.008,1.082-0.465,1.094-1.06l0.126-6.638l3.893,4.222   c0.21,0.226,0.493,0.344,0.78,0.348c0.266,0.003,0.535-0.09,0.746-0.286c0.438-0.404,0.466-1.089,0.062-1.526l-4.076-4.421   l5.61,0.02c0.597,0.001,1.082-0.48,1.084-1.077C21.883,132.819,21.408,132.336,20.811,132.329z"/>
	<path style="fill:#261D2A;" d="M358.51,364.952h-0.006l-4.178-0.015l4.427-3.001c0.494-0.335,0.623-1.007,0.287-1.5   c-0.337-0.496-1.013-0.619-1.5-0.288l-5.971,4.048l0.132-6.977c0.012-0.597-0.463-1.088-1.059-1.1l-0.006,0   c-0.593-0.008-1.082,0.465-1.094,1.06l-0.117,6.157l-3.652-3.961c-0.406-0.436-1.087-0.468-1.527-0.062   c-0.438,0.404-0.466,1.089-0.062,1.527l3.758,4.076l-6.92-0.024c-0.597-0.001-1.082,0.479-1.084,1.076   c-0.001,0.593,0.473,1.076,1.066,1.083l0.01,0l6.312,0.022l-4.932,3.344c-0.494,0.335-0.623,1.007-0.288,1.5   c0.207,0.304,0.54,0.469,0.88,0.473c0.215,0.003,0.431-0.058,0.62-0.186l5.723-3.88l-0.133,7.028   c-0.012,0.597,0.462,1.088,1.06,1.1l0.006,0c0.593,0.008,1.082-0.465,1.094-1.06l0.126-6.638l3.893,4.222   c0.21,0.226,0.493,0.344,0.78,0.348c0.266,0.003,0.535-0.09,0.746-0.286c0.438-0.404,0.466-1.089,0.062-1.526l-4.076-4.421   l5.61,0.02c0.597,0.001,1.082-0.48,1.084-1.077C359.582,365.442,359.107,364.959,358.51,364.952z"/>
	<path style="fill:#261D2A;" d="M445.295,34.459c-0.797,0-1.555,0-3.66-8.381c-7.1-1.368-7.723-2.202-7.931-2.483   c-0.202-0.269-0.289-0.764-0.196-1.086c0.129-0.455,0.426-1.509,8.541-4.781c2.915-7.598,3.902-7.598,4.561-7.598   c0.34,0,0.81,0.245,1.015,0.518c0.521,0.701,0.994,2.52,1.709,5.431c0.226,0.912,0.496,2.012,0.652,2.497   c0.426,0.19,1.367,0.526,2.147,0.807c4.172,1.496,5.248,2.005,5.442,3.001c0.074,0.373-0.116,0.918-0.399,1.172   c-0.848,0.761-4.881,2.258-6.997,3.011c-3.436,7.818-4.17,7.856-4.82,7.891C445.339,34.459,445.314,34.459,445.295,34.459z    M436.45,22.666c1.42,0.409,4.008,0.997,6.265,1.417c0.416,0.078,0.749,0.392,0.85,0.804c0.578,2.339,1.333,5.005,1.875,6.524   c0.787-1.415,1.979-3.922,2.947-6.138c0.12-0.275,0.348-0.488,0.631-0.587c1.93-0.678,4.107-1.512,5.465-2.106   c-0.951-0.4-2.244-0.864-3.082-1.164c-2.384-0.854-2.833-1.039-3.139-1.451c-0.268-0.359-0.434-0.959-1.027-3.37   c-0.224-0.906-0.565-2.295-0.869-3.335c-0.707,1.35-1.696,3.646-2.466,5.679c-0.108,0.283-0.329,0.508-0.61,0.62   C440.785,20.558,437.942,21.833,436.45,22.666z"/>
	<path style="fill:#261D2A;" d="M11.825,256.732c-0.797,0-1.555,0-3.66-8.381c-7.1-1.368-7.722-2.202-7.931-2.483   c-0.203-0.269-0.289-0.764-0.196-1.086c0.129-0.455,0.426-1.509,8.541-4.781c2.915-7.598,3.902-7.598,4.56-7.598   c0.34,0,0.81,0.245,1.015,0.518c0.521,0.701,0.994,2.52,1.709,5.431c0.226,0.912,0.496,2.012,0.652,2.497   c0.426,0.19,1.367,0.526,2.147,0.807c4.172,1.495,5.248,2.005,5.442,3.001c0.074,0.373-0.116,0.917-0.399,1.172   c-0.848,0.762-4.881,2.258-6.997,3.011c-3.436,7.818-4.17,7.856-4.82,7.891C11.869,256.732,11.843,256.732,11.825,256.732z    M2.98,244.939c1.42,0.409,4.008,0.997,6.265,1.417c0.416,0.078,0.749,0.392,0.85,0.804c0.578,2.339,1.333,5.005,1.875,6.524   c0.787-1.415,1.979-3.922,2.947-6.138c0.12-0.275,0.348-0.488,0.631-0.587c1.93-0.678,4.107-1.513,5.465-2.106   c-0.951-0.4-2.244-0.864-3.082-1.164c-2.384-0.854-2.833-1.039-3.139-1.451c-0.268-0.359-0.435-0.959-1.027-3.37   c-0.224-0.906-0.565-2.295-0.869-3.335c-0.707,1.35-1.696,3.646-2.466,5.678c-0.108,0.283-0.329,0.508-0.61,0.62   C7.315,242.831,4.471,244.106,2.98,244.939z"/>
	<g>
		<path style="fill:#261D2A;" d="M462.781,322.268c-0.244,0-0.487-0.047-0.721-0.141c-3.64-1.462-2.354-13.726-1.633-18.931    c0.081-0.591,0.621-1.011,1.218-0.921c0.591,0.081,1.003,0.626,0.921,1.218c-1.133,8.184-0.99,16.111,0.3,16.629    c1.153-0.545,3.361-8.325,4.673-16.99c0.089-0.589,0.634-0.997,1.229-0.906c0.59,0.089,0.996,0.639,0.906,1.229    c-0.589,3.896-2.754,16.749-5.875,18.532C463.473,322.174,463.126,322.268,462.781,322.268z"/>
		<path style="fill:#261D2A;" d="M504.135,310.377c-0.033,0-0.065-0.001-0.098-0.002c-3.592-0.154-11.41-10.582-13.72-13.774    c-0.349-0.483-0.242-1.158,0.243-1.507c0.482-0.352,1.158-0.243,1.507,0.241c5.137,7.095,10.619,13.036,12.077,12.882    c0.776-0.981-2.732-8.088-7.494-14.842c-0.344-0.487-0.227-1.161,0.26-1.505c0.486-0.343,1.16-0.227,1.505,0.26    c3.028,4.294,9.794,14.602,7.23,17.57C505.266,310.14,504.734,310.377,504.135,310.377z"/>
		<path style="fill:#261D2A;" d="M457.287,300.894c-0.203,0-0.404-0.057-0.579-0.168c-0.258-0.164-0.435-0.43-0.486-0.731    c-0.195-1.155-4.707-28.376,3.43-38.422c1.917-2.367,4.39-3.628,7.348-3.748c17.268-0.798,26.267,30.534,26.642,31.864    c0.078,0.276,0.043,0.572-0.097,0.823c-0.141,0.25-0.375,0.434-0.652,0.51l-35.316,9.832    C457.481,300.881,457.384,300.894,457.287,300.894z M467.564,259.973c-0.158,0-0.315,0.003-0.476,0.009    c-2.344,0.096-4.226,1.061-5.758,2.95c-6.621,8.172-3.934,30.159-3.16,35.515l33.076-9.209    C489.558,283.917,481.192,259.973,467.564,259.973z"/>
		<path style="fill:#BE607A;" d="M454.502,288.341l17.633-7.699l17.779-1.738L512,283.596c0,0-31.384,41.553-73.678,17.471    L454.502,288.341z"/>
		<path style="fill:#261D2A;" d="M476.874,271.142c-0.486,0-0.928-0.331-1.048-0.825c-1.422-5.848-8.083-5.071-8.365-5.029    c-0.598,0.073-1.133-0.344-1.209-0.934c-0.075-0.592,0.343-1.133,0.934-1.209c3.061-0.397,9.241,0.499,10.738,6.661    c0.141,0.58-0.215,1.164-0.794,1.305C477.044,271.132,476.958,271.142,476.874,271.142z"/>
		<polygon style="fill:#E8C01B;" points="454.356,280.836 487.49,272.371 489.914,278.905 454.502,288.341   "/>
		<path style="fill:#261D2A;" d="M457.825,302.483c-0.952,0-1.89-0.26-2.724-0.769c-1.199-0.731-2.042-1.885-2.373-3.25    c-0.331-1.365-0.112-2.777,0.619-3.976c0.73-1.199,1.884-2.042,3.248-2.373c2.818-0.689,5.666,1.052,6.349,3.868l0,0    c0.683,2.818-1.052,5.666-3.868,6.349C458.662,302.434,458.242,302.483,457.825,302.483z M457.836,294.127    c-0.24,0-0.486,0.029-0.73,0.087c-0.805,0.195-1.484,0.692-1.914,1.399c-0.43,0.707-0.56,1.538-0.365,2.341    c0.195,0.805,0.692,1.485,1.398,1.915c0.704,0.43,1.538,0.557,2.341,0.364c1.66-0.403,2.682-2.081,2.279-3.74    C460.502,295.078,459.232,294.127,457.836,294.127z"/>
		<path style="fill:#261D2A;" d="M476.298,301.377c-2.369,0-4.526-1.616-5.109-4.017c-0.331-1.365-0.112-2.777,0.619-3.976    c0.73-1.199,1.884-2.042,3.248-2.373c2.822-0.687,5.665,1.052,6.349,3.867l0,0c0.331,1.365,0.112,2.777-0.619,3.976    c-0.73,1.2-1.884,2.043-3.249,2.374C477.123,301.329,476.707,301.377,476.298,301.377z M476.297,293.021    c-0.241,0-0.486,0.029-0.73,0.087c-0.805,0.195-1.484,0.692-1.914,1.399c-0.43,0.707-0.56,1.538-0.365,2.341    c0.195,0.805,0.692,1.485,1.399,1.915c0.706,0.43,1.54,0.558,2.341,0.365c0.805-0.195,1.484-0.692,1.914-1.398    c0.43-0.707,0.56-1.539,0.365-2.342C478.963,293.973,477.693,293.021,476.297,293.021z"/>
		<path style="fill:#261D2A;" d="M492.865,295c-2.369,0-4.526-1.615-5.109-4.016c-0.685-2.818,1.052-5.667,3.868-6.35    c2.823-0.689,5.666,1.051,6.349,3.868l0,0c0.331,1.365,0.112,2.777-0.619,3.976c-0.73,1.2-1.884,2.043-3.248,2.374    C493.69,294.953,493.275,295,492.865,295z M492.864,286.645c-0.241,0-0.486,0.028-0.73,0.088    c-0.805,0.195-1.484,0.692-1.914,1.398c-0.43,0.707-0.56,1.539-0.365,2.342c0.403,1.66,2.081,2.681,3.74,2.279    c0.805-0.195,1.484-0.692,1.914-1.398c0.43-0.707,0.56-1.539,0.365-2.342C495.53,287.596,494.261,286.645,492.864,286.645z"/>
	</g>
	<g>
		<path style="fill:#261D2A;" d="M64.415,103.059c-3.867,0-8.111-11.295-9.772-16.204c-0.191-0.564,0.112-1.178,0.677-1.369    c0.566-0.191,1.177,0.113,1.369,0.677c2.651,7.828,6.414,14.823,7.71,14.736c0.787-1.003-0.719-8.948-3.425-17.284    c-0.185-0.567,0.127-1.176,0.694-1.361c0.566-0.184,1.176,0.126,1.361,0.694c1.217,3.747,5.032,16.21,3.04,19.202    c-0.354,0.532-0.884,0.852-1.492,0.903C64.523,103.057,64.469,103.059,64.415,103.059z"/>
		<path style="fill:#261D2A;" d="M95.488,73.99c-4.382,0.001-13.957-4.792-17.067-6.411c-0.529-0.275-0.734-0.927-0.459-1.457    c0.274-0.528,0.926-0.737,1.457-0.459c7.77,4.047,15.36,6.844,16.565,6.115c0.255-1.225-6.064-6.011-13.343-9.919    c-0.526-0.282-0.724-0.937-0.441-1.462c0.282-0.524,0.936-0.723,1.462-0.441c4.63,2.485,15.294,8.674,14.33,12.477    c-0.151,0.592-0.554,1.061-1.138,1.322C96.493,73.917,96.03,73.99,95.488,73.99z"/>
		<path style="fill:#261D2A;" d="M50.323,86.314c-0.036,0-0.073-0.002-0.11-0.005c-0.304-0.032-0.581-0.19-0.762-0.437    C48.76,84.928,32.54,62.605,35.321,49.98c0.656-2.974,2.302-5.209,4.894-6.64c15.107-8.346,37.156,15.548,38.087,16.568    c0.193,0.212,0.294,0.493,0.281,0.779c-0.014,0.287-0.141,0.557-0.354,0.749l-27.18,24.599    C50.848,86.215,50.589,86.314,50.323,86.314z M47.294,43.74c-2.114,0-4.15,0.449-6.035,1.49c-2.052,1.135-3.304,2.84-3.827,5.214    c-2.263,10.271,9.981,28.73,13.07,33.172l25.456-23.039C72.628,57.155,58.839,43.74,47.294,43.74z"/>
		<path style="fill:#BE607A;" d="M42.697,76.222l11.57-15.01l15.873-9.278l21.85-5.69c0,0-9.466,51.206-58.066,48.601L42.697,76.222    z"/>
		<path style="fill:#261D2A;" d="M54.523,50.943c-0.307,0-0.612-0.13-0.826-0.383c-3.865-4.57-9.497-0.909-9.734-0.751    c-0.499,0.327-1.167,0.194-1.498-0.3c-0.33-0.495-0.199-1.164,0.295-1.495c2.562-1.72,8.486-3.693,12.586,1.152    c0.385,0.455,0.328,1.136-0.128,1.522C55.017,50.859,54.769,50.943,54.523,50.943z"/>
		<polygon style="fill:#E8C01B;" points="39.206,69.576 65.048,47.177 70.14,51.934 42.697,76.222   "/>
		<path style="fill:#261D2A;" d="M49.658,87.928c-1.495,0-2.979-0.632-4.017-1.859c-0.907-1.071-1.343-2.432-1.226-3.831    c0.116-1.4,0.771-2.671,1.844-3.577c1.073-0.907,2.437-1.344,3.832-1.226c1.4,0.116,2.669,0.771,3.577,1.843l0,0    c0.907,1.072,1.342,2.433,1.226,3.833c-0.117,1.4-0.772,2.67-1.844,3.576C52.065,87.52,50.858,87.928,49.658,87.928z     M49.652,79.578c-0.707,0-1.417,0.24-1.999,0.732c-0.631,0.534-1.017,1.283-1.085,2.106c-0.069,0.825,0.188,1.626,0.722,2.257    c1.103,1.305,3.061,1.468,4.365,0.364c0.631-0.534,1.017-1.282,1.085-2.106c0.069-0.825-0.188-1.626-0.722-2.257c0,0,0,0,0-0.001    C51.407,79.95,50.532,79.578,49.652,79.578z"/>
		<path style="fill:#261D2A;" d="M65.677,78.68c-0.148,0-0.295-0.006-0.444-0.019c-1.4-0.116-2.67-0.771-3.578-1.844    c-1.872-2.213-1.596-5.536,0.618-7.409c1.07-0.906,2.433-1.35,3.832-1.226c1.4,0.116,2.669,0.771,3.576,1.844l0,0l0,0    c0.907,1.071,1.343,2.433,1.226,3.832c-0.116,1.4-0.771,2.671-1.844,3.577C68.107,78.246,66.918,78.68,65.677,78.68z     M65.664,70.324c-0.731,0-1.431,0.256-1.996,0.734c-1.304,1.103-1.466,3.061-0.363,4.365c0.534,0.631,1.283,1.017,2.106,1.085    c0.842,0.07,1.627-0.188,2.257-0.722c1.305-1.103,1.467-3.061,0.364-4.365l0,0c-0.534-0.632-1.282-1.017-2.106-1.085    C65.838,70.328,65.751,70.324,65.664,70.324z"/>
		<path style="fill:#261D2A;" d="M77.634,65.56c-1.494,0-2.979-0.632-4.018-1.858c-1.872-2.213-1.595-5.537,0.617-7.41    c1.074-0.908,2.442-1.347,3.833-1.225c1.4,0.116,2.671,0.771,3.577,1.844c0.907,1.072,1.343,2.433,1.226,3.832    c-0.116,1.4-0.771,2.67-1.844,3.578C80.04,65.152,78.833,65.56,77.634,65.56z M77.626,57.209c-0.707,0-1.418,0.241-1.999,0.732    c-1.303,1.103-1.466,3.062-0.363,4.365c1.102,1.301,3.061,1.468,4.365,0.363c1.304-1.103,1.466-3.061,0.363-4.365    C79.381,57.581,78.507,57.209,77.626,57.209z"/>
	</g>
	<path style="fill:#E8C01B;" d="M403.495,322.061c0,0,6.598-21.033,8.398-18.464c1.8,2.568,7.198,16.665,7.198,16.665   s18.988,5.999,18.492,7.198c-0.496,1.2-17.039,7.498-17.039,7.498s-5.352,18.295-8.351,16.496   c-2.999-1.799-8.196-16.395-8.196-16.395s-16.998-1.538-14.898-5.168C391.198,326.26,403.495,322.061,403.495,322.061z"/>
	<path style="fill:#E8C01B;" d="M28.228,175.12c0,0,3.862-12.31,4.915-10.807c1.053,1.503,4.213,9.753,4.213,9.753   s11.113,3.511,10.823,4.213c-0.291,0.702-9.972,4.388-9.972,4.388s-3.132,10.708-4.888,9.654c-1.755-1.053-4.797-9.595-4.797-9.595   s-9.948-0.9-8.72-3.025C21.031,177.577,28.228,175.12,28.228,175.12z"/>
	<g>
		<path style="fill:#A17296;" d="M50.398,367.267c0,0-0.131-15.687,1.346-15.452s16.068,5.171,16.068,5.171    s1.55-14.215,2.951-13.946c1.401,0.27,12.833,8.065,12.833,8.065s3.006-12.335,4.554-11.449c1.548,0.886,7.884,5.736,7.884,5.736    s4.331-15.91,6.617-14.907c2.287,1.004,8.922,10.279,8.922,10.279s7.221-12.895,8.564-11.461c1.343,1.434,5.641,7.675,5.641,7.675    s10.469-9.601,10.733-7.668c0.264,1.933,2.289,11.31,2.289,11.31s10.916-5.052,12.159-3.34c1.243,1.711-2.081,14.35-2.081,14.35    s14.919-1.305,15.219,0.839c0.3,2.144-6.936,10.945-6.936,10.945s9.573,4.731,9.741,8.078s-12.347,11.377-12.347,11.377    s4.211,10.161,1.282,11.735c-2.929,1.573-16.033-0.623-16.033-0.623s-3.45,17.332-6.521,17.601    c-3.071,0.27-16.847-6.867-16.847-6.867s-2.714,16.994-5.807,18.186c-3.093,1.192-21.021-3.124-21.021-3.124    s-4.771,14.52-6.483,15.76c-1.712,1.241-14.218-4.943-14.218-4.943s-7.348,11.652-9.044,12.431    c-1.696,0.779-10.017-11.374-10.017-11.374s-16.162,14.498-17.022,9.645c-0.86-4.854,1.983-15.06,1.983-15.06    s-18.287,2.432-16.993-0.216c1.294-2.648,4.66-13.717,4.66-13.717s-17.103-10.394-12.775-12.61    c4.327-2.216,13.203-5.835,13.203-5.835s-7.103-12.978-5.045-13.467s14.792-1.031,14.792-1.031s-3.061-14.171,1.212-14.308    C38.134,364.913,50.398,367.267,50.398,367.267z"/>
		<path style="fill:#FDFDFF;" d="M89.777,380.321c-9.615-10.838-18.388-5.415-18.388-5.415c-14.262,5.871-6.482,32.083,7.903,30.568    S96.709,388.135,89.777,380.321z M78.325,394.975c-4.896,0.516-7.544-8.406-2.69-10.404c0,0,2.986-1.846,6.259,1.843    C84.253,389.074,83.222,394.459,78.325,394.975z"/>
		<path style="fill:#FDFDFF;" d="M117.316,367.671c-9.614-10.838-18.388-5.415-18.388-5.415    c-14.262,5.871-6.482,32.083,7.903,30.568C121.217,391.307,124.249,375.485,117.316,367.671z M105.865,382.325    c-4.896,0.516-7.544-8.406-2.69-10.404c0,0,2.986-1.846,6.259,1.843C111.793,376.424,110.761,381.809,105.865,382.325z"/>
		<path style="fill:#FDFDFF;" d="M115.722,353.747c0,0,8.735-5.275,9.658-4.496c0.923,0.779,7.842,19.073,9.752,18.157    c2.861-1.372,8.204-4.048,8.204-4.048c1.6,2.936,3.25,6.096,4.196,8.771c0,0-15.554,8.166-18.135,7.898    C127.273,379.809,115.722,353.747,115.722,353.747z"/>
		<path style="fill:#FDFDFF;" d="M54.148,383.246c0,0-21.572,5.952-16.329,22.393c4.719,14.797,20.381,11.552,30.253,3.32    c0,0-2.88-7.467-4.101-7.768c-1.221-0.301-11.713,9.114-15.661,3.391c-2.908-4.216-2.63-6.79,9.873-12.962    C58.183,391.62,56.093,384.219,54.148,383.246z"/>
	</g>
	<path style="fill:#261D2A;" d="M177.863,59.406c-0.191,0-0.386-0.017-0.582-0.051c-0.588-0.102-0.982-0.661-0.88-1.249   c0.102-0.586,0.664-0.979,1.249-0.88c1.124,0.051,1.793-1.087,2.127-1.749c0.27-0.533,0.918-0.743,1.452-0.474   c0.532,0.27,0.744,0.921,0.474,1.452C180.737,58.359,179.374,59.406,177.863,59.406z M246.256,58.806   c-1.15,0-2.279-0.388-3.358-1.153c-0.487-0.345-0.601-1.019-0.256-1.505c0.344-0.487,1.018-0.603,1.505-0.256   c1.042,0.736,2.08,0.939,3.102,0.581c0.559-0.199,1.179,0.1,1.375,0.665c0.196,0.563-0.101,1.179-0.664,1.375   C247.401,58.707,246.828,58.806,246.256,58.806z M174.178,56.579c-0.318,0-0.618-0.147-0.812-0.446   c-0.004-0.008-0.1-0.159-0.105-0.168c-0.734-1.17-1.439-2.412-2.085-3.68c-0.271-0.532-0.06-1.181,0.471-1.452   c0.533-0.272,1.181-0.06,1.452,0.471c0.618,1.211,1.29,2.397,1.999,3.525c0.316,0.503,0.212,1.239-0.289,1.558   C174.609,56.515,174.389,56.579,174.178,56.579z M250.848,55.833c-0.212,0-0.426-0.062-0.613-0.192   c-0.492-0.339-0.614-1.012-0.274-1.502c0.683-0.989,1.267-2.202,1.733-3.605c0.188-0.565,0.798-0.871,1.366-0.685   c0.566,0.189,0.872,0.799,0.684,1.366c-0.532,1.597-1.207,2.994-2.007,4.151C251.527,55.67,251.191,55.833,250.848,55.833z    M240.945,54.459c-0.423,0-0.825-0.25-0.998-0.666c-0.539-1.298-0.893-2.814-1.053-4.506c-0.055-0.594,0.381-1.121,0.975-1.177   c0.602-0.06,1.121,0.381,1.177,0.975c0.138,1.477,0.44,2.781,0.896,3.879c0.229,0.551-0.033,1.182-0.583,1.412   C241.224,54.433,241.083,54.459,240.945,54.459z M181.969,52.923c-0.055,0-0.112-0.004-0.168-0.013   c-0.59-0.093-0.993-0.646-0.901-1.234c0.176-1.126,0.266-2.341,0.266-3.613l-0.004-0.508c-0.01-0.596,0.464-1.088,1.061-1.099   c0.632-0.041,1.088,0.464,1.099,1.061l0.004,0.553c0,1.376-0.098,2.704-0.291,3.94C182.952,52.542,182.492,52.923,181.969,52.923z    M105.967,52.728c-0.513,0-0.967-0.366-1.062-0.888c-0.013-0.071-0.314-1.768-0.428-4.446c-0.025-0.596,0.438-1.099,1.034-1.124   c0.578-0.021,1.099,0.437,1.124,1.034c0.106,2.516,0.393,4.136,0.397,4.153c0.105,0.586-0.285,1.147-0.872,1.254   C106.095,52.722,106.03,52.728,105.967,52.728z M323.525,51.781c-0.518,0-0.974-0.373-1.064-0.901   c-0.23-1.364-0.532-2.754-0.896-4.13c-0.153-0.576,0.191-1.167,0.768-1.32c0.577-0.152,1.167,0.191,1.32,0.768   c0.382,1.44,0.697,2.895,0.939,4.324c0.099,0.587-0.297,1.145-0.886,1.244C323.645,51.775,323.584,51.781,323.525,51.781z    M170.351,48.942c-0.429,0-0.834-0.257-1.003-0.68c-0.555-1.39-1.038-2.799-1.436-4.188c-0.164-0.573,0.167-1.171,0.74-1.335   c0.566-0.161,1.171,0.166,1.335,0.74c0.379,1.319,0.838,2.66,1.366,3.984c0.221,0.554-0.05,1.182-0.603,1.403   C170.62,48.918,170.484,48.942,170.351,48.942z M253.674,47.747c-0.047,0-0.095-0.003-0.143-0.01   c-0.592-0.079-1.007-0.622-0.928-1.213c0.152-1.14,0.229-2.318,0.229-3.502l-0.007-0.641c-0.014-0.596,0.458-1.09,1.055-1.105   c0.554-0.008,1.092,0.459,1.105,1.055l0.007,0.692c0,1.278-0.083,2.552-0.248,3.786C254.67,47.353,254.207,47.747,253.674,47.747z    M239.977,45.952c-0.031,0-0.061-0.001-0.092-0.004c-0.594-0.049-1.036-0.572-0.985-1.166c0.118-1.409,0.342-2.891,0.663-4.405   c0.125-0.584,0.7-0.951,1.281-0.832c0.583,0.124,0.956,0.698,0.832,1.281c-0.304,1.427-0.515,2.818-0.625,4.138   C241.006,45.526,240.533,45.952,239.977,45.952z M181.86,44.314c-0.522,0-0.982-0.38-1.065-0.911   c-0.216-1.367-0.523-2.741-0.912-4.083c-0.167-0.574,0.162-1.173,0.735-1.338c0.576-0.172,1.173,0.163,1.338,0.735   c0.415,1.43,0.743,2.893,0.971,4.349c0.094,0.59-0.309,1.142-0.897,1.236C181.972,44.31,181.915,44.314,181.86,44.314z    M105.578,44.106c-0.019,0-0.038,0-0.058-0.001c-0.595-0.032-1.053-0.54-1.022-1.136c0.079-1.501,0.231-2.985,0.451-4.41   c0.091-0.587,0.644-0.995,1.233-0.902c0.59,0.092,0.993,0.643,0.902,1.233c-0.21,1.353-0.353,2.763-0.428,4.192   C106.625,43.658,106.149,44.106,105.578,44.106z M321.319,43.428c-0.442,0-0.857-0.273-1.016-0.713   c-0.48-1.328-1.019-2.645-1.603-3.914c-0.25-0.541-0.013-1.183,0.529-1.432c0.541-0.251,1.182-0.013,1.432,0.529   c0.61,1.324,1.173,2.698,1.673,4.083c0.202,0.561-0.088,1.18-0.649,1.383C321.565,43.408,321.441,43.428,321.319,43.428z    M168,40.645c-0.52,0-0.979-0.377-1.065-0.906c-0.247-1.513-0.387-3.011-0.417-4.451c-0.012-0.596,0.461-1.09,1.058-1.102   c0.577,0.042,1.09,0.462,1.102,1.058c0.027,1.338,0.158,2.734,0.389,4.147c0.096,0.589-0.304,1.144-0.892,1.24   C168.116,40.641,168.058,40.645,168,40.645z M253.485,39.139c-0.517,0-0.974-0.371-1.063-0.899   c-0.233-1.363-0.568-2.722-0.996-4.038c-0.185-0.567,0.126-1.176,0.694-1.361c0.566-0.186,1.176,0.127,1.361,0.694   c0.46,1.414,0.82,2.876,1.07,4.342c0.101,0.587-0.294,1.145-0.883,1.246C253.606,39.134,253.545,39.139,253.485,39.139z    M241.742,37.507c-0.11,0-0.221-0.017-0.331-0.052c-0.568-0.184-0.88-0.792-0.697-1.36c0.447-1.384,0.968-2.777,1.549-4.14   c0.235-0.551,0.872-0.802,1.418-0.57c0.548,0.234,0.804,0.869,0.569,1.418c-0.556,1.303-1.054,2.634-1.48,3.954   C242.622,37.216,242.199,37.507,241.742,37.507z M179.458,36.036c-0.418,0-0.815-0.244-0.993-0.651   c-0.555-1.282-1.194-2.534-1.901-3.723c-0.305-0.513-0.136-1.175,0.377-1.48c0.512-0.305,1.176-0.136,1.48,0.377   c0.753,1.267,1.435,2.602,2.027,3.968c0.236,0.547-0.015,1.183-0.562,1.421C179.746,36.008,179.6,36.036,179.458,36.036z    M317.708,35.587c-0.375,0-0.74-0.196-0.94-0.545c-0.693-1.216-1.449-2.419-2.249-3.576c-0.339-0.491-0.215-1.163,0.275-1.503   c0.49-0.337,1.163-0.217,1.503,0.275c0.833,1.208,1.623,2.465,2.348,3.735c0.295,0.518,0.114,1.178-0.404,1.473   C318.073,35.541,317.89,35.587,317.708,35.587z M106.918,35.577c-0.095,0-0.192-0.013-0.288-0.039   c-0.575-0.158-0.912-0.753-0.754-1.328c0.403-1.463,0.894-2.881,1.462-4.215c0.233-0.551,0.872-0.807,1.415-0.572   c0.549,0.233,0.806,0.867,0.572,1.415c-0.529,1.247-0.989,2.573-1.367,3.945C107.826,35.263,107.392,35.577,106.918,35.577z    M167.87,32.042c-0.054,0-0.109-0.004-0.165-0.013c-0.59-0.09-0.995-0.641-0.904-1.231c0.232-1.521,0.611-2.996,1.125-4.384   c0.207-0.559,0.828-0.846,1.388-0.637c0.559,0.207,0.845,0.828,0.637,1.388c-0.463,1.251-0.805,2.583-1.016,3.96   C168.855,31.659,168.394,32.042,167.87,32.042z M250.825,30.953c-0.398,0-0.78-0.22-0.969-0.6   c-0.612-1.235-1.323-2.438-2.114-3.578c-0.084-0.121-0.141-0.255-0.17-0.392c-0.524,0.852-1.026,1.725-1.497,2.607   c-0.281,0.526-0.933,0.726-1.461,0.444c-0.526-0.281-0.726-0.934-0.444-1.461c0.691-1.296,1.446-2.575,2.244-3.8   c0.325-0.5,0.993-0.64,1.495-0.315c0.425,0.276,0.591,0.802,0.43,1.26c0.431-0.121,0.907,0.037,1.176,0.425   c0.851,1.224,1.617,2.521,2.276,3.85c0.265,0.535,0.045,1.183-0.488,1.448C251.149,30.918,250.985,30.953,250.825,30.953z    M175.055,28.631c-0.32,0-0.637-0.141-0.85-0.412c-0.86-1.092-1.798-2.137-2.79-3.106c-0.309-0.302-0.398-0.745-0.265-1.127   c-0.289,0.076-0.599,0.032-0.865-0.139c-0.5-0.326-0.641-0.995-0.315-1.494c0.814-1.25,1.78-2.431,2.873-3.51   c0.425-0.421,1.108-0.415,1.527,0.008c0.42,0.425,0.416,1.108-0.008,1.527c-0.911,0.901-1.723,1.877-2.418,2.908   c0.344-0.076,0.712,0.02,0.982,0.284c1.058,1.034,2.06,2.148,2.977,3.315c0.368,0.468,0.288,1.148-0.181,1.517   C175.524,28.555,175.288,28.631,175.055,28.631z M312.806,28.486c-0.311,0-0.62-0.134-0.834-0.392   c-0.89-1.078-1.84-2.136-2.823-3.142c-0.418-0.427-0.409-1.111,0.017-1.527c0.429-0.417,1.113-0.408,1.527,0.017   c1.026,1.05,2.017,2.153,2.946,3.277c0.38,0.46,0.314,1.141-0.146,1.521C313.291,28.404,313.047,28.486,312.806,28.486z    M110.31,27.664c-0.194,0-0.39-0.052-0.567-0.161c-0.507-0.314-0.663-0.98-0.35-1.487c0.796-1.285,1.694-2.5,2.668-3.611   c0.394-0.448,1.077-0.491,1.524-0.1c0.448,0.393,0.494,1.076,0.1,1.524c-0.896,1.022-1.723,2.141-2.455,3.324   C111.025,27.482,110.672,27.664,110.31,27.664z M245.919,23.884c-0.289,0-0.577-0.115-0.789-0.343   c-0.936-1.003-1.962-1.96-3.046-2.846c-0.463-0.377-0.532-1.057-0.154-1.519c0.376-0.462,1.055-0.534,1.519-0.154   c1.16,0.946,2.257,1.97,3.259,3.044c0.407,0.436,0.384,1.119-0.052,1.526C246.448,23.788,246.183,23.884,245.919,23.884z    M168.895,22.609c-0.226,0-0.455-0.071-0.649-0.217c-1.099-0.828-2.273-1.604-3.489-2.307c-0.517-0.298-0.694-0.96-0.396-1.475   c0.299-0.519,0.96-0.694,1.476-0.396c1.293,0.748,2.541,1.573,3.708,2.452c0.477,0.359,0.572,1.036,0.213,1.512   C169.547,22.46,169.223,22.609,168.895,22.609z M249.841,22.336c-0.234,0-0.471-0.076-0.67-0.233   c-0.467-0.371-0.546-1.05-0.176-1.518c0.925-1.167,1.906-2.288,2.915-3.33c0.417-0.431,1.101-0.438,1.527-0.025   c0.429,0.416,0.44,1.099,0.025,1.527c-0.961,0.991-1.893,2.058-2.774,3.169C250.475,22.195,250.159,22.336,249.841,22.336z    M306.78,22.317c-0.251,0-0.503-0.086-0.708-0.264c-1.058-0.918-2.169-1.808-3.302-2.646c-0.48-0.354-0.581-1.03-0.226-1.51   c0.352-0.478,1.029-0.582,1.51-0.226c1.178,0.87,2.333,1.796,3.433,2.75c0.45,0.391,0.499,1.074,0.109,1.524   C307.382,22.19,307.081,22.317,306.78,22.317z M115.986,21.212c-0.315,0-0.628-0.137-0.841-0.401   c-0.376-0.464-0.303-1.144,0.16-1.519c1.147-0.927,2.394-1.776,3.708-2.523c0.514-0.295,1.176-0.115,1.472,0.405   c0.295,0.518,0.114,1.177-0.405,1.472c-1.212,0.69-2.361,1.472-3.417,2.325C116.463,21.134,116.224,21.212,115.986,21.212z    M239.255,18.431c-0.195,0-0.393-0.053-0.572-0.164c-1.16-0.725-2.396-1.403-3.676-2.014c-0.538-0.257-0.766-0.903-0.508-1.441   c0.258-0.539,0.9-0.767,1.441-0.508c1.352,0.648,2.66,1.365,3.889,2.133c0.505,0.315,0.659,0.982,0.343,1.488   C239.967,18.252,239.615,18.431,239.255,18.431z M161.445,18.289c-0.144,0-0.29-0.028-0.43-0.09   c-1.251-0.546-2.576-1.043-3.936-1.479c-0.567-0.181-0.882-0.789-0.699-1.357c0.181-0.567,0.785-0.886,1.357-0.699   c1.43,0.457,2.823,0.98,4.141,1.555c0.547,0.239,0.797,0.875,0.559,1.422C162.259,18.047,161.862,18.289,161.445,18.289z    M176.943,17.967c-0.347,0-0.688-0.167-0.895-0.476c-0.334-0.494-0.205-1.165,0.29-1.499c1.184-0.802,2.492-1.544,3.888-2.21   c0.54-0.259,1.184-0.027,1.44,0.509c0.257,0.539,0.029,1.183-0.509,1.44c-1.298,0.619-2.512,1.309-3.609,2.049   C177.361,17.907,177.15,17.967,176.943,17.967z M299.848,17.183c-0.197,0-0.397-0.054-0.575-0.167   c-1.178-0.744-2.41-1.462-3.663-2.135c-0.525-0.283-0.723-0.938-0.44-1.463c0.283-0.525,0.939-0.721,1.463-0.44   c1.296,0.697,2.572,1.441,3.792,2.211c0.505,0.319,0.656,0.985,0.337,1.489C300.557,17.005,300.207,17.183,299.848,17.183z    M123.441,16.941c-0.431,0-0.84-0.26-1.006-0.688c-0.217-0.556,0.058-1.181,0.614-1.398c1.335-0.521,2.759-0.976,4.233-1.35   c0.572-0.144,1.166,0.203,1.313,0.782c0.147,0.578-0.204,1.165-0.782,1.313c-1.388,0.352-2.728,0.778-3.98,1.268   C123.705,16.918,123.572,16.941,123.441,16.941z M255.857,16.152c-0.311,0-0.62-0.134-0.833-0.391   c-0.381-0.46-0.315-1.141,0.144-1.521c1.159-0.959,2.367-1.842,3.59-2.624c0.503-0.321,1.17-0.172,1.492,0.328   c0.321,0.503,0.174,1.171-0.328,1.492c-1.15,0.735-2.287,1.565-3.377,2.468C256.343,16.071,256.098,16.152,255.857,16.152z    M153.242,15.651c-0.078,0-0.156-0.008-0.235-0.025c-1.34-0.298-2.74-0.55-4.162-0.747c-0.591-0.081-1.003-0.628-0.921-1.218   c0.081-0.591,0.621-1.011,1.218-0.921c1.479,0.205,2.936,0.466,4.333,0.776c0.582,0.13,0.949,0.707,0.82,1.289   C154.183,15.308,153.736,15.651,153.242,15.651z M131.777,14.796c-0.527,0-0.989-0.387-1.067-0.924   c-0.087-0.591,0.323-1.139,0.912-1.224c1.409-0.206,2.884-0.354,4.383-0.443c0.577-0.026,1.106,0.42,1.141,1.015   c0.036,0.595-0.419,1.106-1.015,1.141c-1.438,0.085-2.851,0.228-4.198,0.424C131.881,14.792,131.828,14.796,131.777,14.796z    M231.492,14.693c-0.122,0-0.247-0.021-0.368-0.064c-1.285-0.466-2.64-0.891-4.029-1.264c-0.576-0.154-0.918-0.747-0.764-1.323   c0.154-0.575,0.747-0.916,1.322-0.764c1.448,0.388,2.863,0.831,4.206,1.318c0.561,0.204,0.85,0.824,0.647,1.384   C232.348,14.421,231.934,14.693,231.492,14.693z M144.701,14.445c-0.026,0-0.052-0.001-0.079-0.003   c-1.471-0.106-2.888-0.165-4.25-0.18c-0.596-0.007-1.074-0.496-1.067-1.093c0.006-0.597,0.473-1.139,1.093-1.067   c1.405,0.016,2.864,0.077,4.381,0.187c0.595,0.042,1.042,0.559,0.999,1.155C145.736,14.012,145.262,14.445,144.701,14.445z    M184.689,14.221c-0.45,0-0.87-0.283-1.023-0.733c-0.192-0.564,0.111-1.178,0.675-1.37c1.335-0.453,2.763-0.863,4.245-1.217   c0.58-0.136,1.163,0.22,1.301,0.799c0.138,0.58-0.219,1.162-0.799,1.302c-1.417,0.339-2.78,0.73-4.051,1.162   C184.921,14.203,184.804,14.221,184.689,14.221z M292.256,13.09c-0.15,0-0.303-0.032-0.448-0.098   c-1.254-0.574-2.56-1.125-3.917-1.652c-0.556-0.216-0.831-0.842-0.616-1.399c0.217-0.556,0.84-0.831,1.398-0.616   c1.398,0.543,2.741,1.112,4.033,1.702c0.542,0.248,0.78,0.889,0.533,1.431C293.058,12.856,292.667,13.09,292.256,13.09z    M223.167,12.447c-0.066,0-0.134-0.006-0.201-0.019c-1.345-0.254-2.742-0.47-4.196-0.649c-0.592-0.072-1.013-0.611-0.941-1.202   c0.072-0.592,0.6-1.034,1.202-0.941c1.502,0.182,2.946,0.407,4.335,0.67c0.586,0.111,0.971,0.676,0.861,1.261   C224.128,12.086,223.676,12.447,223.167,12.447z M193.069,12.187c-0.52,0-0.979-0.377-1.065-0.906   c-0.096-0.59,0.304-1.144,0.892-1.24c1.382-0.225,2.83-0.415,4.344-0.568c0.601-0.044,1.123,0.373,1.183,0.966   c0.06,0.594-0.372,1.123-0.966,1.183c-1.47,0.149-2.874,0.333-4.214,0.552C193.185,12.183,193.126,12.187,193.069,12.187z    M263.123,11.528c-0.408,0-0.798-0.232-0.981-0.625c-0.251-0.541-0.016-1.183,0.525-1.434c1.356-0.629,2.761-1.162,4.177-1.585   c0.565-0.171,1.173,0.154,1.344,0.726c0.171,0.572-0.154,1.173-0.726,1.344c-1.315,0.393-2.623,0.89-3.885,1.476   C263.428,11.497,263.275,11.528,263.123,11.528z M214.605,11.391c-0.023,0-0.046-0.001-0.071-0.002   c-0.517-0.034-1.04-0.062-1.568-0.086c-0.92-0.041-1.821-0.074-2.706-0.096c-0.596-0.016-1.066-0.512-1.051-1.108   c0.017-0.597,0.495-1.035,1.109-1.052c0.897,0.024,1.812,0.057,2.745,0.098c0.544,0.024,1.08,0.055,1.612,0.089   c0.595,0.038,1.046,0.552,1.008,1.148C215.645,10.952,215.169,11.391,214.605,11.391z M201.653,11.301   c-0.571,0-1.047-0.447-1.078-1.024c-0.031-0.596,0.427-1.103,1.023-1.135c1.402-0.072,2.854-0.117,4.36-0.132   c0.003,0,0.007,0,0.01,0c0.592,0,1.074,0.477,1.08,1.069c0.006,0.596-0.473,1.084-1.069,1.09c-1.475,0.015-2.897,0.058-4.269,0.13   C201.691,11.301,201.672,11.301,201.653,11.301z M284.194,10.033c-0.096,0-0.193-0.013-0.29-0.039   c-1.368-0.38-2.744-0.673-4.092-0.872c-0.59-0.088-0.998-0.636-0.91-1.227c0.086-0.589,0.632-1.006,1.227-0.91   c1.435,0.212,2.9,0.524,4.354,0.927c0.575,0.16,0.911,0.755,0.752,1.33C285.101,9.719,284.667,10.033,284.194,10.033z    M271.365,9.078c-0.53,0-0.992-0.39-1.068-0.929c-0.083-0.591,0.328-1.137,0.919-1.22c1.385-0.194,2.803-0.293,4.219-0.293   l0.247,0.001c0.597,0.008,1.074,0.499,1.065,1.095c-0.008,0.597-0.57,1.06-1.095,1.065l-0.217-0.001   c-1.315,0-2.633,0.092-3.917,0.272C271.465,9.075,271.415,9.078,271.365,9.078z"/>
	<path style="fill:#261D2A;" d="M438.585,461.217c-0.005,0-0.012,0-0.017,0c-1.528-0.023-3.049-0.226-4.519-0.599   c-0.578-0.146-0.928-0.734-0.781-1.312c0.147-0.58,0.733-0.936,1.313-0.78c1.308,0.331,2.661,0.51,4.022,0.531   c0.596,0.008,1.073,0.5,1.063,1.097C439.656,460.745,439.174,461.217,438.585,461.217z M442.876,460.812   c-0.503,0-0.954-0.352-1.058-0.865c-0.118-0.584,0.26-1.156,0.844-1.274c1.298-0.264,2.623-0.667,3.937-1.198   c0.555-0.219,1.182,0.044,1.406,0.597c0.224,0.553-0.043,1.183-0.596,1.407c-1.436,0.58-2.89,1.021-4.317,1.312   C443.019,460.806,442.947,460.812,442.876,460.812z M430.291,459.108c-0.169,0-0.341-0.04-0.501-0.124   c-1.342-0.702-2.609-1.563-3.766-2.559c-0.452-0.388-0.504-1.069-0.116-1.523c0.39-0.449,1.073-0.5,1.523-0.114   c1.034,0.886,2.165,1.656,3.363,2.285c0.527,0.276,0.732,0.928,0.454,1.458C431.056,458.897,430.681,459.108,430.291,459.108z    M450.864,457.629c-0.368,0-0.726-0.188-0.928-0.527c-0.306-0.51-0.139-1.175,0.373-1.481c1.156-0.69,2.318-1.485,3.454-2.367   c0.47-0.363,1.151-0.278,1.515,0.192c0.366,0.473,0.279,1.15-0.192,1.517c-1.204,0.932-2.438,1.778-3.669,2.514   C451.243,457.581,451.053,457.629,450.864,457.629z M423.783,453.535c-0.329,0-0.654-0.15-0.866-0.435   c-0.926-1.238-1.698-2.565-2.295-3.944c-0.236-0.546,0.015-1.182,0.562-1.42c0.553-0.237,1.183,0.016,1.421,0.562   c0.529,1.225,1.217,2.406,2.042,3.511c0.357,0.477,0.259,1.154-0.218,1.51C424.234,453.465,424.008,453.535,423.783,453.535z    M457.691,452.364c-0.282,0-0.562-0.11-0.774-0.327c-0.416-0.426-0.407-1.112,0.021-1.527c1.015-0.989,1.941-2.033,2.751-3.107   c0.359-0.477,1.035-0.572,1.513-0.211c0.476,0.359,0.57,1.036,0.211,1.512c-0.875,1.16-1.874,2.289-2.968,3.354   C458.234,452.263,457.963,452.364,457.691,452.364z M462.841,445.48c-0.164,0-0.331-0.038-0.488-0.117   c-0.532-0.27-0.744-0.921-0.474-1.452c0.625-1.23,1.132-2.516,1.506-3.82c0.162-0.574,0.757-0.908,1.335-0.74   c0.574,0.164,0.905,0.762,0.74,1.335c-0.411,1.436-0.968,2.851-1.656,4.204C463.614,445.264,463.235,445.48,462.841,445.48z    M465.208,437.226c-0.031,0-0.062-0.001-0.094-0.004c-0.594-0.051-1.035-0.574-0.983-1.169c0.055-0.644,0.082-1.288,0.082-1.926   c0-0.738-0.036-1.47-0.104-2.193c-0.057-0.594,0.379-1.121,0.972-1.177c0.611-0.074,1.121,0.38,1.177,0.972   c0.075,0.79,0.115,1.589,0.115,2.397c0,0.699-0.03,1.404-0.091,2.111C466.234,436.801,465.763,437.226,465.208,437.226z    M466.68,429.355c-0.983,0-1.963-0.076-2.912-0.225c-0.59-0.093-0.991-0.645-0.9-1.235c0.04-0.25,0.162-0.466,0.334-0.626   c-0.328-1.123-0.735-2.237-1.213-3.319c-0.241-0.545,0.006-1.183,0.553-1.424c0.544-0.237,1.184,0.008,1.424,0.553   c0.584,1.323,1.07,2.691,1.447,4.068c0.894,0.07,1.795,0.062,2.737-0.015c0.612-0.064,1.117,0.392,1.165,0.986   c0.051,0.594-0.391,1.116-0.986,1.165C467.77,429.332,467.219,429.354,466.68,429.355z M472.473,428.469   c-0.465,0-0.894-0.302-1.035-0.77c-0.171-0.571,0.153-1.173,0.725-1.345c1.263-0.379,2.554-0.894,3.837-1.529   c0.533-0.267,1.182-0.047,1.447,0.487c0.266,0.535,0.047,1.182-0.487,1.447c-1.391,0.69-2.796,1.25-4.177,1.664   C472.68,428.454,472.575,428.469,472.473,428.469z M459.796,427.947c-0.142,0-0.287-0.029-0.426-0.089   c-1.4-0.602-2.726-1.381-3.945-2.314c-0.474-0.363-0.564-1.04-0.201-1.513c0.362-0.474,1.043-0.562,1.513-0.202   c1.078,0.825,2.252,1.514,3.487,2.046c0.548,0.235,0.801,0.871,0.564,1.419C460.613,427.703,460.215,427.947,459.796,427.947z    M480.208,424.694c-0.348,0-0.689-0.168-0.898-0.478c-0.332-0.496-0.2-1.167,0.294-1.499c1.109-0.746,2.239-1.597,3.356-2.531   c0.46-0.382,1.14-0.319,1.522,0.136c0.382,0.458,0.322,1.139-0.136,1.522c-1.176,0.982-2.366,1.88-3.538,2.666   C480.624,424.635,480.415,424.694,480.208,424.694z M453.004,422.749c-0.32,0-0.635-0.14-0.848-0.41   c-1.033-1.305-1.831-2.703-2.309-4.043c-0.199-0.562,0.094-1.18,0.655-1.381c0.561-0.198,1.179,0.092,1.38,0.655   c0.399,1.12,1.079,2.306,1.967,3.429c0.37,0.467,0.291,1.146-0.177,1.517C453.475,422.673,453.238,422.749,453.004,422.749z    M460.939,420.791c-0.355,0-0.703-0.175-0.909-0.496c-0.783-1.217-1.629-2.313-2.52-3.258c-0.409-0.434-0.389-1.117,0.045-1.526   c0.434-0.411,1.118-0.389,1.526,0.045c0.981,1.041,1.911,2.242,2.764,3.57c0.323,0.502,0.177,1.171-0.324,1.492   C461.34,420.736,461.138,420.791,460.939,420.791z M486.845,419.185c-0.277,0-0.555-0.107-0.766-0.319   c-0.421-0.423-0.419-1.108,0.004-1.527c1.019-1.014,1.967-2.061,2.816-3.113c0.373-0.465,1.055-0.539,1.519-0.162   c0.464,0.374,0.537,1.055,0.162,1.519c-0.899,1.114-1.899,2.22-2.974,3.289C487.396,419.08,487.12,419.185,486.845,419.185z    M450.969,414.867c-0.236,0-0.474-0.077-0.673-0.236c-0.466-0.371-0.542-1.052-0.17-1.518c0.251-0.314,0.558-0.576,0.911-0.776   c1.173-0.665,2.714-0.56,4.396,0.321c0.528,0.276,0.733,0.929,0.456,1.458c-0.277,0.528-0.927,0.734-1.458,0.456   c-0.977-0.51-1.813-0.646-2.328-0.355c-0.116,0.065-0.21,0.146-0.29,0.246C451.6,414.728,451.286,414.867,450.969,414.867z    M492.229,412.459c-0.192,0-0.386-0.051-0.561-0.158c-0.509-0.31-0.671-0.975-0.36-1.484c0.735-1.207,1.371-2.45,1.888-3.695   c0.23-0.55,0.865-0.81,1.412-0.583c0.551,0.23,0.812,0.862,0.583,1.412c-0.56,1.347-1.247,2.688-2.04,3.99   C492.949,412.274,492.593,412.459,492.229,412.459z M495.506,404.507c-0.078,0-0.158-0.008-0.238-0.026   c-0.581-0.131-0.947-0.709-0.816-1.291c0.302-1.342,0.481-2.715,0.534-4.081c0.023-0.597,0.578-1.059,1.12-1.038   c0.596,0.022,1.061,0.524,1.038,1.12c-0.057,1.498-0.254,3.003-0.584,4.473C496.446,404.166,496,404.507,495.506,404.507z    M495.833,395.923c-0.528,0-0.99-0.388-1.068-0.926c-0.193-1.342-0.509-2.694-0.94-4.021c-0.185-0.567,0.127-1.176,0.694-1.36   c0.568-0.186,1.177,0.126,1.36,0.694c0.468,1.443,0.813,2.916,1.024,4.379c0.084,0.591-0.325,1.138-0.915,1.223   C495.936,395.92,495.884,395.923,495.833,395.923z M493.198,387.737c-0.393,0-0.773-0.216-0.964-0.591   c-0.62-1.22-1.344-2.418-2.151-3.561c-0.345-0.486-0.229-1.16,0.258-1.505c0.486-0.344,1.16-0.228,1.505,0.258   c0.868,1.227,1.646,2.515,2.314,3.828c0.27,0.532,0.058,1.182-0.474,1.452C493.53,387.699,493.363,387.737,493.198,387.737z    M478.728,384.363c-0.482,0-0.947-0.019-1.397-0.055c-0.594-0.047-1.038-0.568-0.99-1.163c0.047-0.595,0.563-1.035,1.163-0.99   c1.241,0.099,2.636,0.04,4.056-0.177c0.587-0.087,1.14,0.313,1.231,0.904c0.091,0.59-0.314,1.14-0.904,1.231   C480.809,384.278,479.747,384.362,478.728,384.363z M473.241,383.299c-0.148,0-0.299-0.031-0.442-0.095   c-1.663-0.748-2.967-1.823-3.769-3.109c-0.315-0.506-0.161-1.173,0.345-1.488c0.507-0.314,1.173-0.161,1.488,0.345   c0.575,0.922,1.549,1.711,2.821,2.282c0.544,0.245,0.787,0.884,0.542,1.428C474.046,383.061,473.653,383.299,473.241,383.299z    M485.914,383.096c-0.452,0-0.874-0.287-1.025-0.74c-0.188-0.565,0.119-1.177,0.686-1.365c0.6-0.199,1.211-0.424,1.828-0.673   c-0.956-1.01-1.973-1.94-3.024-2.765c-0.468-0.368-0.55-1.047-0.181-1.517c0.368-0.468,1.046-0.553,1.517-0.181   c1.15,0.903,2.26,1.921,3.302,3.025c0.162,0.173,0.257,0.385,0.286,0.604c0.047-0.023,0.096-0.045,0.143-0.069   c0.54-0.264,1.182-0.032,1.441,0.506c0.258,0.538,0.032,1.183-0.506,1.441c-1.393,0.669-2.781,1.233-4.126,1.679   C486.141,383.078,486.027,383.096,485.914,383.096z M493.704,379.402c-0.365,0-0.72-0.185-0.924-0.519   c-0.31-0.509-0.149-1.174,0.362-1.484c0.659-0.402,1.33-0.832,2.012-1.292c0.523-0.354,1.018-0.707,1.484-1.057   c0.477-0.354,1.153-0.26,1.512,0.215c0.357,0.477,0.262,1.154-0.215,1.512c-0.494,0.371-1.018,0.745-1.573,1.119   c-0.71,0.48-1.41,0.929-2.099,1.348C494.089,379.351,493.895,379.402,493.704,379.402z M469.745,376.504   c-0.18,0-0.364-0.045-0.531-0.14c-0.519-0.295-0.701-0.954-0.407-1.472c0.753-1.327,2.133-2.363,3.991-2.997   c0.563-0.192,1.179,0.108,1.371,0.673c0.193,0.564-0.109,1.178-0.673,1.371c-1.35,0.461-2.322,1.159-2.81,2.019   C470.487,376.307,470.122,376.504,469.745,376.504z M481.435,375.416c-0.17,0-0.343-0.04-0.504-0.126   c-1.303-0.689-2.564-1.17-3.752-1.427c-0.582-0.128-0.952-0.702-0.826-1.286c0.128-0.583,0.694-0.951,1.286-0.826   c1.379,0.301,2.826,0.848,4.302,1.629c0.527,0.278,0.729,0.932,0.449,1.46C482.197,375.207,481.823,375.416,481.435,375.416z    M500.534,374.153c-0.269,0-0.538-0.099-0.747-0.301c-0.431-0.412-0.446-1.096-0.033-1.526c1.021-1.066,1.821-2.147,2.378-3.215   c0.277-0.529,0.931-0.734,1.458-0.458c0.528,0.276,0.733,0.929,0.458,1.458c-0.653,1.248-1.573,2.495-2.735,3.708   C501.101,374.041,500.818,374.153,500.534,374.153z M504.212,365.481l-1.08-0.018c0.002-1.333-0.28-2.516-0.834-3.691   c-0.254-0.539-0.024-1.182,0.516-1.438c0.539-0.257,1.183-0.023,1.438,0.516c0.692,1.465,1.043,2.958,1.043,4.439L504.212,365.481z    M500.835,358.842c-0.294,0-0.587-0.119-0.8-0.355c-0.849-0.938-1.875-1.875-3.05-2.788c-0.471-0.366-0.557-1.045-0.191-1.516   c0.366-0.47,1.044-0.557,1.516-0.191c1.274,0.989,2.393,2.013,3.326,3.045c0.401,0.442,0.367,1.124-0.076,1.525   C501.353,358.75,501.094,358.842,500.835,358.842z M494.07,353.492c-0.189,0-0.38-0.05-0.554-0.154   c-2.082-1.247-3.694-1.95-3.709-1.956c-0.547-0.238-0.798-0.873-0.561-1.421c0.236-0.545,0.87-0.797,1.42-0.562   c0.071,0.031,1.75,0.762,3.96,2.087c0.512,0.306,0.678,0.969,0.371,1.481C494.794,353.306,494.437,353.492,494.07,353.492z"/>
	<path style="fill:#261D2A;" d="M406.99,88.734l-0.024-0.019c-3.141-2.435-3.714-6.973-1.278-10.116   c2.426-3.129,6.951-3.71,10.09-1.298c1.547,1.199,2.518,2.902,2.76,4.813c0.241,1.909-0.276,3.8-1.455,5.321   C414.655,90.563,410.127,91.145,406.99,88.734z M414.524,78.969c-2.249-1.729-5.465-1.314-7.188,0.908   c-1.732,2.233-1.325,5.459,0.907,7.19l0.018,0.014c2.23,1.714,5.447,1.3,7.174-0.922c0.839-1.081,1.206-2.424,1.033-3.783   C416.297,81.017,415.606,79.807,414.524,78.969z"/>
	<path style="fill:#261D2A;" d="M401.65,483.604l-0.024-0.019c-3.142-2.435-3.715-6.973-1.278-10.116   c2.426-3.129,6.951-3.71,10.09-1.298c1.546,1.199,2.518,2.902,2.76,4.813c0.241,1.909-0.276,3.8-1.455,5.321   C409.316,485.433,404.787,486.016,401.65,483.604z M409.185,473.839c-2.249-1.729-5.465-1.314-7.189,0.908   c-1.732,2.233-1.325,5.459,0.907,7.19l0.018,0.014c2.23,1.714,5.447,1.3,7.174-0.922c0.839-1.081,1.206-2.425,1.033-3.783   C410.957,475.887,410.266,474.678,409.185,473.839z"/>
	<path style="fill:#261D2A;" d="M59.432,466.495l-0.024-0.019c-3.141-2.435-3.715-6.973-1.278-10.116   c2.426-3.129,6.951-3.71,10.09-1.298c1.547,1.199,2.519,2.902,2.76,4.813c0.241,1.909-0.276,3.8-1.455,5.321   C67.098,468.324,62.569,468.906,59.432,466.495z M66.967,456.729c-2.249-1.729-5.465-1.314-7.189,0.908   c-1.732,2.233-1.325,5.459,0.907,7.19l0.018,0.014c2.23,1.714,5.447,1.3,7.174-0.922c0.839-1.081,1.206-2.425,1.033-3.783   C68.739,458.777,68.048,457.568,66.967,456.729z"/>
	<g>
		<path style="fill:#BE607A;" d="M419.689,402.009c-2.694-0.799-6.955,3.866-13.168,0.455c-2.197-8.558-9.899-22.513-26.626-17.163    c0,0-5.887,18.396-1.79,18.14c2.364-0.148,9.063-3.654,15.415-4.02c-0.923,9.127,4.178,24.625,24.778,18.054    C418.297,417.476,423.354,403.097,419.689,402.009z"/>
		<path style="fill:#261D2A;" d="M407.695,404.671c-0.341,0-0.677-0.161-0.887-0.462c-4.924-7.057-20.957-2.889-21.118-2.842    c-0.583,0.151-1.168-0.19-1.321-0.767c-0.154-0.576,0.189-1.168,0.765-1.32c0.718-0.191,17.663-4.596,23.447,3.694    c0.341,0.489,0.221,1.162-0.268,1.504C408.124,404.608,407.908,404.671,407.695,404.671z"/>
	</g>
	<g>
		<path style="fill:#76ADA2;" d="M78.716,255.655c-2.81,0.049-5.468,5.78-12.42,4.399c-4.671-7.499-16.218-18.488-30.558-8.35    c0,0-0.076,19.315,3.755,17.837c2.21-0.853,7.543-6.213,13.489-8.474c1.867,8.981,11.398,22.225,29.064,9.756    C82.046,270.823,82.539,255.589,78.716,255.655z"/>
		<path style="fill:#261D2A;" d="M45.522,265.446c-0.357,0-0.707-0.177-0.912-0.5c-0.321-0.504-0.172-1.172,0.331-1.491    c0.629-0.399,15.457-9.698,23.471-3.537c0.473,0.364,0.561,1.042,0.198,1.514c-0.365,0.473-1.043,0.561-1.515,0.198    c-6.829-5.255-20.856,3.558-20.995,3.647C45.92,265.392,45.72,265.446,45.522,265.446z"/>
	</g>
	<g>
		<path style="fill:#E8C01B;" d="M471.472,125.894c-1.275-5.541-6.249-9.429-11.981-9.209l-79.444,2.701    c-1.013-18.152-2.332-31.761-2.292-37.561l-256.921,9.279c0,0-0.24,18.099,1.979,44.704l-62.47,2.122    c-5.683,0.194-10.433,4.388-11.328,10.004c-0.589,3.696-13.797,90.648,41.395,101.848c14.127,2.867,14.948,7.332,16.933,18.12    c2.352,12.781,5.906,32.096,37.889,38.398c6.3,1.241,12.199,1.862,17.688,1.862c4.239,0,8.213-0.396,11.956-1.135    c17.018,22.431,39.395,38.516,68.805,42.37c1.081,25.12,2.962,51.422,2.962,51.422s-38.097,0.656-42.174,1.535    c-4.65,1.002-0.008,36.597,0.943,41.952c0.95,5.355,134.527-4.344,134.527-4.344s0.633-30.408,1.181-38.304    c0.549-7.896-47.892-3.032-47.892-3.032l-0.885-53.338c29.045-8.729,48.869-28.011,62.274-52.431    c3.006,0.508,6.145,0.791,9.448,0.79c6.781,0,14.182-1.073,22.17-3.219c31.48-8.46,33.715-27.97,35.194-40.882    c1.248-10.897,1.764-15.408,15.663-19.228C491.392,215.395,472.311,129.542,471.472,125.894z M149.824,282.988    c-16.133-3.18-17.067-8.259-19.115-19.387c-2.275-12.362-5.713-31.044-35.575-37.105c-24.934-5.06-24.991-46.113-23.63-65.172    l53.755-1.827c4.775,38.602,14.669,86.599,35.142,124.806C157.14,284.151,153.63,283.738,149.824,282.988z M430.792,207.408    c-29.381,8.075-31.543,26.946-32.973,39.435c-1.288,11.241-1.875,16.372-17.754,20.639c-5.615,1.508-10.656,2.26-15.11,2.344    c14.733-40.449,16.943-88.762,16.049-126.701l68.938-2.343C452.596,159.711,455.323,200.666,430.792,207.408z"/>
		<path style="fill:#D37E3A;" d="M217.588,205.023c0,0,24.899-30.957,31.207-30.647c6.308,0.31,24.317-2.273,25.455,0.318    s3.702,92.317,5.834,93.294c2.132,0.977,15.657-0.694,15.693,0.354c0.036,1.048,2.214,21.604,2.214,21.604l-62.304,4.287    c-0.667-4.176-0.736-22.343-0.736-22.343l16.267-0.588c0,0-3.805-60.961-4.8-59.353c-0.995,1.608-8.939,8.826-8.939,8.826    C231.677,219.921,217.588,205.023,217.588,205.023z"/>
		<g>
			<path style="fill:#FDFDFF;" d="M134.821,171.364c-0.275,0-0.551-0.105-0.761-0.314c-3.664-3.645-2.758-7.747-1.767-9.407     c0.306-0.512,0.97-0.68,1.481-0.373c0.51,0.305,0.678,0.964,0.377,1.476c-0.087,0.151-1.919,3.439,1.432,6.773     c0.423,0.421,0.425,1.104,0.004,1.527C135.376,171.257,135.099,171.364,134.821,171.364z"/>
			<path style="fill:#FDFDFF;" d="M143.493,175.789c-0.275,0-0.55-0.104-0.761-0.314c-3.664-3.645-2.758-7.747-1.767-9.407     c0.306-0.513,0.969-0.678,1.481-0.373c0.51,0.305,0.678,0.964,0.377,1.475c-0.087,0.151-1.919,3.439,1.432,6.773     c0.423,0.421,0.425,1.104,0.004,1.527C144.048,175.683,143.77,175.789,143.493,175.789z"/>
			<path style="fill:#FDFDFF;" d="M137.836,185.98c-0.275,0-0.551-0.104-0.761-0.314c-3.665-3.645-2.759-7.747-1.768-9.407     c0.306-0.512,0.969-0.68,1.481-0.373c0.511,0.305,0.678,0.964,0.377,1.475c-0.087,0.15-1.919,3.439,1.433,6.773     c0.423,0.421,0.425,1.104,0.004,1.527C138.39,185.873,138.113,185.98,137.836,185.98z"/>
			<path style="fill:#FDFDFF;" d="M146.436,192.033c-0.275,0-0.55-0.105-0.761-0.314c-3.665-3.646-2.759-7.748-1.768-9.408     c0.306-0.513,0.97-0.681,1.481-0.373c0.51,0.305,0.678,0.965,0.376,1.477c-0.093,0.161-1.912,3.445,1.433,6.773     c0.423,0.421,0.425,1.104,0.004,1.527C146.99,191.926,146.713,192.033,146.436,192.033z"/>
			<path style="fill:#FDFDFF;" d="M151.831,181.909c-0.275,0-0.551-0.104-0.761-0.314c-3.664-3.645-2.759-7.747-1.768-9.407     c0.304-0.513,0.966-0.678,1.481-0.373c0.51,0.305,0.678,0.964,0.377,1.476c-0.085,0.149-1.919,3.438,1.433,6.773     c0.423,0.421,0.425,1.104,0.004,1.527C152.386,181.802,152.109,181.909,151.831,181.909z"/>
			<path style="fill:#FDFDFF;" d="M141.953,202.379c-0.275,0-0.551-0.104-0.762-0.314c-3.665-3.646-2.759-7.748-1.768-9.407     c0.306-0.513,0.969-0.678,1.481-0.373c0.51,0.305,0.678,0.964,0.377,1.475c-0.088,0.152-1.919,3.439,1.433,6.773     c0.423,0.421,0.425,1.104,0.004,1.527C142.508,202.273,142.231,202.379,141.953,202.379z"/>
			<path style="fill:#FDFDFF;" d="M151.711,205.22c-0.184,0-0.37-0.046-0.54-0.146c-4.659-2.698-4.976-6.801-4.493-8.594     c0.155-0.576,0.748-0.917,1.325-0.762c0.573,0.155,0.913,0.743,0.764,1.317c-0.043,0.17-0.845,3.661,3.487,6.169     c0.517,0.298,0.693,0.96,0.393,1.475C152.446,205.027,152.083,205.22,151.711,205.22z"/>
		</g>
		<g>
			<path style="fill:#FDFDFF;" d="M286.943,340.85c-0.464,0-0.879-0.048-1.218-0.122c-0.582-0.128-0.951-0.704-0.823-1.287     c0.128-0.58,0.693-0.955,1.281-0.824c0.174,0.038,3.873,0.725,5.973-3.502c0.266-0.535,0.911-0.751,1.448-0.486     c0.534,0.266,0.752,0.913,0.486,1.448C292.205,339.872,289.056,340.85,286.943,340.85z"/>
			<path style="fill:#FDFDFF;" d="M288.401,331.223c-0.465,0-0.88-0.047-1.219-0.122c-0.583-0.129-0.951-0.705-0.823-1.287     c0.128-0.58,0.698-0.949,1.28-0.824l0,0c0.156,0.029,3.866,0.738,5.974-3.502c0.266-0.534,0.912-0.752,1.448-0.486     c0.534,0.266,0.752,0.913,0.486,1.448C293.662,330.246,290.515,331.223,288.401,331.223z"/>
			<path style="fill:#FDFDFF;" d="M299.857,333.37c-0.464,0-0.88-0.047-1.219-0.122c-0.583-0.129-0.951-0.705-0.823-1.287     c0.126-0.58,0.702-0.949,1.281-0.824c0.176,0.033,3.87,0.728,5.973-3.5c0.266-0.535,0.911-0.751,1.448-0.486     c0.534,0.266,0.752,0.913,0.486,1.448C305.118,332.392,301.971,333.37,299.857,333.37z"/>
			<path style="fill:#FDFDFF;" d="M302.88,323.298c-0.464,0-0.879-0.047-1.218-0.122c-0.582-0.128-0.951-0.704-0.823-1.287     c0.128-0.58,0.692-0.957,1.281-0.824c0.174,0.035,3.873,0.726,5.973-3.502c0.266-0.533,0.911-0.752,1.448-0.486     c0.534,0.266,0.752,0.913,0.486,1.448C308.142,322.321,304.994,323.298,302.88,323.298z"/>
			<path style="fill:#FDFDFF;" d="M291.572,321.378c-0.464,0-0.88-0.047-1.219-0.122c-0.583-0.129-0.951-0.704-0.823-1.287     c0.127-0.58,0.702-0.957,1.281-0.824c0.176,0.036,3.87,0.728,5.973-3.501c0.265-0.535,0.911-0.754,1.448-0.486     c0.534,0.266,0.752,0.913,0.486,1.448C296.833,320.4,293.685,321.378,291.572,321.378z"/>
			<path style="fill:#FDFDFF;" d="M314.115,324.28c-0.464,0-0.88-0.047-1.219-0.122c-0.583-0.129-0.951-0.704-0.823-1.287     c0.128-0.58,0.701-0.949,1.281-0.824c0.176,0.034,3.87,0.729,5.973-3.501c0.266-0.534,0.912-0.752,1.448-0.486     c0.534,0.266,0.752,0.913,0.486,1.448C319.376,323.303,316.228,324.28,314.115,324.28z"/>
			<path style="fill:#FDFDFF;" d="M314.167,316.069c-0.568,0-1.043-0.443-1.077-1.017c-0.035-0.593,0.416-1.102,1.006-1.141     c0.162-0.013,3.739-0.347,4.751-5.26c0.12-0.583,0.686-0.957,1.276-0.84c0.584,0.12,0.96,0.692,0.84,1.276     c-1.086,5.272-4.879,6.871-6.732,6.979C314.209,316.068,314.188,316.069,314.167,316.069z"/>
		</g>
		<path style="fill:#D37E3A;" d="M150.26,105.002c0,0,207.134-10.198,204.803-6.962c-2.331,3.236-43.7,36.892-103.497,37.388    S135.608,105.71,150.26,105.002z"/>
		<path style="fill:#261D2A;" d="M251.684,159.079c-1.523,0-3.05-0.02-4.602-0.06c-81.419-2.136-116.964-47.495-117.313-47.953    c-0.362-0.474-0.271-1.151,0.202-1.512c0.476-0.363,1.152-0.271,1.515,0.201c0.344,0.45,35.327,44.997,115.653,47.104    c80.391,2.1,121.525-52.134,121.931-52.682c0.355-0.479,1.035-0.577,1.511-0.225c0.479,0.355,0.579,1.033,0.225,1.511    C370.401,106.01,330.117,159.079,251.684,159.079z"/>
		<path style="fill:#FDFDFF;" d="M363.905,215.616c-0.075,0-0.151-0.007-0.228-0.024c-0.583-0.125-0.954-0.699-0.829-1.283    c9.548-44.566,4.063-77.583,4.007-77.911c-0.101-0.587,0.293-1.146,0.881-1.248c0.595-0.101,1.147,0.295,1.248,0.881    c0.057,0.332,5.618,33.731-4.024,78.732C364.851,215.269,364.403,215.616,363.905,215.616z"/>
		<path style="fill:#261D2A;" d="M263.345,351.401c-18.628,0-33.354-4.522-33.589-4.596c-0.57-0.179-0.885-0.785-0.707-1.354    c0.179-0.568,0.785-0.883,1.354-0.707c0.371,0.117,37.351,11.459,67.852-2.287c0.547-0.245,1.183-0.002,1.429,0.541    c0.245,0.544,0.002,1.183-0.541,1.429C287.348,349.741,274.631,351.401,263.345,351.401z"/>
		<path style="fill:#261D2A;" d="M176.368,311.683c-0.332,0-0.659-0.152-0.871-0.44c-15.239-20.731-29.25-54.842-29.39-55.185    c-0.226-0.552,0.039-1.182,0.592-1.408c0.552-0.229,1.182,0.039,1.408,0.592c0.139,0.34,14.052,34.208,29.131,54.721    c0.353,0.481,0.25,1.157-0.231,1.51C176.814,311.615,176.589,311.683,176.368,311.683z"/>
		<path style="fill:#261D2A;" d="M349.954,303.107c-0.219,0-0.441-0.066-0.632-0.205c-0.483-0.35-0.592-1.025-0.243-1.508    c7.269-10.054,22.698-57.523,22.853-58.002c0.184-0.566,0.792-0.875,1.361-0.694c0.567,0.184,0.878,0.793,0.694,1.361    c-0.637,1.966-15.69,48.272-23.157,58.601C350.62,302.952,350.29,303.107,349.954,303.107z"/>
		<path style="fill:#D37E3A;" d="M168.139,426.674c0,0,204.373-8.755,208.604-7.091c4.232,1.664,2.672,78.607,2.672,78.607    l-211.088,7.175L168.139,426.674z"/>
		<g>
			<path style="fill:#D37E3A;" d="M215.143,258.042c0,0-10.599,9.895-11.035,21.444c-2.592-3.638-4.797-7.571-6.688-11.628     c4.949-3.233,16.382-13.058,10.15-32.056c0,0-12.668,8.032-14.935,19.619c-1.239-3.951-2.239-7.861-3.038-11.587     c5.076-2.117,18.868-9.82,15.711-30.192c0,0-13.84,5.895-17.932,16.997c-0.369-2.968-0.608-5.559-0.761-7.646     c3.186-6.174,6.553-18.151-5.115-31.045c0,0-13.242,19.858-1.025,32.563c0.19,2.478,0.491,5.521,0.951,8.937     c-4.316-4.963-11.682-9.328-24.111-7.761c0,0,7.554,23.933,26.302,20.2c0.827,3.765,1.852,7.705,3.12,11.695     c-5.31-3.726-13.337-6.127-24.815-1.976c0,0,12.345,21.206,29.507,14.187c2.106,4.589,4.608,9.06,7.572,13.218     c-5.588-2.913-13.524-4.176-24.032,0.728c0,0,16.294,23.01,34.218,9.229c0.023,0.026,0.041,0.052,0.065,0.078     C209.252,293.045,227.279,280.061,215.143,258.042z"/>
			<path style="fill:#261D2A;" d="M179.672,240.361c-0.075,0-0.151-0.007-0.228-0.024c-8.497-1.82-13.201-7.284-13.397-7.515     c-0.385-0.456-0.328-1.135,0.127-1.521c0.454-0.383,1.135-0.33,1.522,0.123c0.043,0.052,4.453,5.141,12.202,6.801     c0.583,0.124,0.954,0.699,0.829,1.282C180.618,240.014,180.171,240.361,179.672,240.361z"/>
			<path style="fill:#261D2A;" d="M183.041,219.788c-0.432,0-0.832-0.256-0.992-0.686c-0.675-1.816,0.24-13.572,0.538-17.131     c0.048-0.595,0.565-1.057,1.165-0.986c0.595,0.05,1.036,0.571,0.986,1.165c-0.593,7.123-1.003,15.134-0.662,16.206     c0.178,0.558-0.116,1.178-0.67,1.369C183.285,219.768,183.161,219.788,183.041,219.788z"/>
			<path style="fill:#261D2A;" d="M190.464,239.994c-0.383,0-0.754-0.205-0.95-0.564c-0.285-0.524-0.091-1.18,0.434-1.465     c0.95-0.675,4.353-7.369,6.948-13.175c0.243-0.543,0.879-0.789,1.427-0.545c0.544,0.244,0.789,0.883,0.545,1.427     c-1.758,3.934-6.047,13.191-7.889,14.192C190.815,239.951,190.638,239.994,190.464,239.994z"/>
			<path style="fill:#261D2A;" d="M195.254,261.141c-0.383,0-0.754-0.205-0.95-0.564c-0.285-0.524-0.091-1.18,0.434-1.465     c0.95-0.675,4.353-7.369,6.948-13.175c0.243-0.543,0.879-0.789,1.427-0.545c0.544,0.244,0.789,0.883,0.545,1.427     c-1.758,3.934-6.047,13.191-7.889,14.192C195.605,261.099,195.428,261.141,195.254,261.141z"/>
			<path style="fill:#261D2A;" d="M186.213,268.694c-7.557,0-11.344-7.094-11.385-7.175c-0.275-0.527-0.07-1.178,0.458-1.453     c0.527-0.28,1.18-0.072,1.456,0.456c0.163,0.31,4.077,7.542,11.961,5.716c0.582-0.139,1.162,0.225,1.296,0.807     c0.135,0.581-0.226,1.161-0.807,1.296C188.142,268.585,187.149,268.694,186.213,268.694z"/>
			<path style="fill:#261D2A;" d="M194.851,289.784c-6.127,0-9.057-3.463-9.186-3.621c-0.38-0.46-0.314-1.14,0.147-1.52     c0.459-0.378,1.138-0.314,1.516,0.141c0.119,0.139,2.822,3.249,8.684,2.793c0.587-0.032,1.115,0.398,1.161,0.992     c0.046,0.595-0.398,1.115-0.993,1.161C195.723,289.767,195.278,289.784,194.851,289.784z"/>
			<path style="fill:#261D2A;" d="M210.626,283.401c-0.265,0-0.529-0.096-0.737-0.291c-0.436-0.407-0.459-1.091-0.052-1.526     c0.75-0.832,2.48-7.422,3.65-13.049c0.122-0.584,0.687-0.956,1.278-0.837c0.583,0.122,0.959,0.694,0.837,1.278     c-0.604,2.897-2.688,12.478-4.188,14.082C211.203,283.285,210.915,283.401,210.626,283.401z"/>
		</g>
		<g>
			<path style="fill:#D37E3A;" d="M304.255,255.013c0,0,11.246,9.153,12.466,20.645c2.339-3.805,4.272-7.879,5.883-12.055     c-5.158-2.889-17.231-11.916-12.303-31.293c0,0,13.184,7.153,16.232,18.559c0.968-4.027,1.7-7.995,2.245-11.766     c-5.208-1.768-19.491-8.516-17.724-29.055c0,0,14.208,4.941,19.044,15.74c0.167-2.986,0.229-5.587,0.24-7.68     c-3.598-5.944-7.77-17.664,2.995-31.321c0,0,14.56,18.913,3.233,32.418c-0.021,2.486-0.115,5.541-0.342,8.981     c3.97-5.244,11.022-10.1,23.529-9.38c0,0-5.911,24.39-24.87,21.939c-0.57,3.812-1.325,7.813-2.319,11.88     c5.044-4.078,12.89-7.019,24.624-3.656c0,0-10.876,21.996-28.475,16.158c-1.789,4.721-3.982,9.352-6.657,13.701     c5.377-3.285,13.209-5.085,24.026-0.905c0,0-14.693,24.064-33.512,11.532c-0.021,0.027-0.038,0.055-0.059,0.082     C312.509,289.535,293.642,277.806,304.255,255.013z"/>
			<path style="fill:#261D2A;" d="M338.37,234.966c-0.469,0-0.902-0.309-1.037-0.783c-0.165-0.574,0.167-1.172,0.74-1.335     c7.618-2.182,11.671-7.559,11.711-7.613c0.354-0.478,1.03-0.58,1.51-0.227c0.479,0.353,0.582,1.028,0.229,1.508     c-0.18,0.245-4.5,6.014-12.856,8.407C338.569,234.952,338.469,234.966,338.37,234.966z"/>
			<path style="fill:#261D2A;" d="M333.593,214.688c-0.101,0-0.205-0.014-0.307-0.044c-0.572-0.17-0.898-0.771-0.729-1.343     c0.266-1.086-0.688-9.049-1.763-16.116c-0.09-0.59,0.315-1.14,0.905-1.23c0.584-0.087,1.14,0.314,1.23,0.905     c0.538,3.531,2.25,15.198,1.7,17.054C334.489,214.385,334.059,214.688,333.593,214.688z"/>
			<path style="fill:#261D2A;" d="M327.585,235.334c-0.153,0-0.309-0.032-0.456-0.099c-1.907-0.873-6.814-9.819-8.835-13.624     c-0.28-0.526-0.08-1.18,0.447-1.46c0.525-0.286,1.18-0.081,1.46,0.447c2.984,5.616,6.833,12.063,7.851,12.685     c0.542,0.249,0.769,0.884,0.52,1.426C328.392,235.104,327.997,235.334,327.585,235.334z"/>
			<path style="fill:#261D2A;" d="M323.169,255.24c-0.153,0-0.309-0.032-0.456-0.099c-1.907-0.873-6.814-9.819-8.835-13.624     c-0.281-0.526-0.08-1.18,0.447-1.46c0.525-0.286,1.18-0.081,1.46,0.447c2.984,5.616,6.833,12.064,7.851,12.685     c0.542,0.249,0.769,0.884,0.52,1.426C323.976,255.01,323.58,255.24,323.169,255.24z"/>
			<path style="fill:#261D2A;" d="M333.004,263.704c-0.687,0-1.406-0.057-2.159-0.178c-0.59-0.095-0.989-0.65-0.894-1.239     c0.095-0.587,0.648-0.998,1.238-0.893c8.011,1.301,11.403-6.195,11.545-6.516c0.241-0.544,0.878-0.792,1.423-0.554     c0.545,0.24,0.794,0.874,0.556,1.421C344.676,255.831,341.135,263.704,333.004,263.704z"/>
			<path style="fill:#261D2A;" d="M325.51,285.342c-0.061,0-0.122,0-0.185-0.001c-0.596-0.006-1.075-0.495-1.068-1.092     c0.006-0.593,0.488-1.068,1.08-1.068c0.046,0.007,0.115,0.001,0.173,0.001c5.762,0,8.211-3.239,8.313-3.378     c0.353-0.478,1.026-0.584,1.507-0.236c0.48,0.349,0.591,1.018,0.245,1.501C335.449,281.244,332.431,285.342,325.51,285.342z"/>
			<path style="fill:#261D2A;" d="M310.4,280.005c-0.261,0-0.521-0.095-0.728-0.288c-1.604-1.499-4.336-10.915-5.134-13.766     c-0.161-0.574,0.174-1.17,0.749-1.331c0.573-0.16,1.17,0.175,1.331,0.749c1.551,5.534,3.724,11.991,4.53,12.77     c0.425,0.412,0.446,1.097,0.038,1.527C310.972,279.892,310.686,280.005,310.4,280.005z"/>
		</g>
		<path style="fill:#EEEBD5;" d="M215.258,437.378l118.296-5.414c0,0,14.87,14.449,15.8,18.228c0.93,3.78,1.258,20.964,1.258,20.964    l-16.259,16.077l-119.346,2.984l-17.753-14.871l-1.162-19.364L215.258,437.378z"/>
		<path style="fill:#261D2A;" d="M282.081,475.12c-0.961,0-1.74-0.257-2.357-0.772c-1.847-1.544-1.464-4.82-1.059-8.288    c0.542-4.651,0.738-8.005-1.7-8.836c-3.362-1.156-8.73,1.979-14.414,5.286c-5.725,3.331-11.645,6.775-17.102,6.963    c-2.437,0.072-4.055-0.411-4.97-1.506c-1.274-1.525-0.815-3.647-0.372-5.698c0.344-1.59,0.699-3.236,0.086-4.096    c-0.361-0.504-1.125-0.831-2.275-0.968c-8.334-0.932-18.609,12.616-18.712,12.753c-0.357,0.479-1.034,0.58-1.511,0.219    c-0.479-0.357-0.577-1.031-0.22-1.51c0.45-0.603,11.139-14.732,20.699-13.606c1.804,0.215,3.04,0.823,3.778,1.856    c1.167,1.639,0.689,3.854,0.267,5.807c-0.334,1.544-0.679,3.141-0.082,3.856c0.449,0.538,1.577,0.808,3.239,0.732    c4.914-0.167,10.596-3.472,16.089-6.67c6.124-3.563,11.912-6.925,16.197-5.465c4.278,1.46,3.652,6.822,3.149,11.131    c-0.306,2.618-0.652,5.586,0.299,6.381c0.569,0.477,1.804,0.238,2.738-0.046c4.108-1.247,7.822-4.47,11.412-7.585    c5.127-4.451,9.97-8.651,14.791-5.288c2.947,2.059,3.286,4.657,3.512,6.379c0.097,0.742,0.189,1.447,0.437,1.588    c1.347,0.77,8.725-2.379,11.152-3.411c0.548-0.234,1.182,0.023,1.416,0.572c0.234,0.548-0.022,1.181-0.571,1.415    c-9.126,3.885-11.56,4.164-13.07,3.299c-1.179-0.673-1.346-1.949-1.507-3.185c-0.207-1.58-0.441-3.373-2.606-4.885    c-3.275-2.284-6.747,0.464-12.138,5.147c-3.587,3.113-7.652,6.642-12.202,8.022C283.576,474.983,282.78,475.12,282.081,475.12z"/>
		<path style="fill:#FDFDFF;" d="M359.186,459.821c-0.238,0-0.48-0.078-0.68-0.243c-0.463-0.375-0.533-1.055-0.157-1.519    l14.629-18.013c0.374-0.461,1.056-0.535,1.52-0.157c0.463,0.377,0.533,1.057,0.157,1.52l-14.629,18.013    C359.813,459.684,359.5,459.821,359.186,459.821z"/>
		<path style="fill:#FDFDFF;" d="M354.955,451.206c-0.217,0-0.437-0.065-0.628-0.202c-0.485-0.346-0.597-1.021-0.25-1.506    l13.858-19.361c0.347-0.485,1.02-0.596,1.507-0.25c0.485,0.347,0.597,1.022,0.25,1.507l-13.858,19.361    C355.623,451.05,355.291,451.206,354.955,451.206z"/>
		<path style="fill:#FDFDFF;" d="M174.7,466.092c-0.235,0-0.471-0.076-0.67-0.234c-0.468-0.371-0.546-1.051-0.175-1.517    l20.106-25.34c0.37-0.468,1.049-0.547,1.517-0.175c0.468,0.37,0.546,1.049,0.175,1.517l-20.106,25.34    C175.334,465.953,175.019,466.092,174.7,466.092z"/>
		<path style="fill:#FDFDFF;" d="M172.085,453.854c-0.269,0-0.539-0.099-0.749-0.302c-0.429-0.413-0.443-1.097-0.03-1.527    l12.251-12.746c0.413-0.429,1.096-0.443,1.527-0.03c0.429,0.413,0.443,1.097,0.03,1.527l-12.251,12.746    C172.651,453.742,172.368,453.854,172.085,453.854z"/>
		<path style="fill:#261D2A;" d="M177.173,112.453c-0.576,0-1.054-0.454-1.078-1.035c-0.025-0.596,0.438-1.099,1.034-1.124    c1.029-0.043,103.377-4.319,140.376-4.771c0.005,0,0.009,0,0.014,0c0.591,0,1.073,0.475,1.08,1.066    c0.007,0.597-0.47,1.086-1.066,1.094c-36.969,0.452-139.284,4.726-140.313,4.769C177.203,112.453,177.188,112.453,177.173,112.453    z"/>
		<path style="fill:#FDFDFF;" d="M55.452,151.063c-0.494,0-0.939-0.34-1.053-0.841c-0.132-0.582,0.233-1.16,0.814-1.293    c1.346-0.305,33.027-7.441,40.673-4.46c0.556,0.217,0.831,0.843,0.614,1.399c-0.217,0.556-0.847,0.831-1.399,0.614    c-5.839-2.278-30.427,2.515-39.41,4.555C55.611,151.055,55.531,151.063,55.452,151.063z"/>
		<path style="fill:#FDFDFF;" d="M414.661,131.017c-0.559,0-1.033-0.43-1.076-0.998c-0.045-0.594,0.4-1.114,0.995-1.159    c5.997-0.461,36.08-2.68,39.365-1.054c0.534,0.265,0.753,0.913,0.488,1.448c-0.265,0.534-0.909,0.754-1.448,0.488    c-1.927-0.932-21.141-0.043-38.241,1.271C414.717,131.016,414.688,131.017,414.661,131.017z"/>
		<path style="fill:#261D2A;" d="M381.062,146.757c-0.59,0-1.072-0.474-1.08-1.065c-0.097-7.107-0.948-29.963-0.957-30.193    c-0.022-0.596,0.443-1.097,1.039-1.119c0.578-0.03,1.098,0.443,1.119,1.039c0.008,0.23,0.862,23.111,0.959,30.243    c0.008,0.597-0.469,1.086-1.065,1.095C381.072,146.757,381.067,146.757,381.062,146.757z"/>
		<path style="fill:#261D2A;" d="M126.256,168.233c-0.531,0-0.993-0.391-1.068-0.931c-0.305-2.191-3.908-37.752-4.061-39.265    c-0.06-0.593,0.372-1.123,0.966-1.183c0.613-0.039,1.123,0.372,1.183,0.966c0.037,0.37,3.751,37.034,4.05,39.185    c0.082,0.591-0.33,1.137-0.921,1.218C126.355,168.23,126.306,168.233,126.256,168.233z"/>
		<path style="fill:#261D2A;" d="M224.462,484.819c-0.219,0-0.434-0.068-0.616-0.192l-18.436-12.8    c-0.281-0.196-0.451-0.51-0.463-0.852l-0.469-13.8c-0.013-0.369,0.165-0.719,0.469-0.928l20.072-13.715    c0.165-0.113,0.357-0.178,0.557-0.188c46.413-2.277,102.124-4.7,103.936-3.282c1.921,1.492,8.903,9.982,9.693,10.943    c0.15,0.184,0.236,0.411,0.244,0.65l0.647,19.033c0.01,0.295-0.101,0.582-0.31,0.793l-10.323,10.471    c-0.194,0.198-0.456,0.312-0.732,0.323l-104.23,3.544C224.486,484.819,224.474,484.819,224.462,484.819z M207.087,470.362    l17.697,12.287l103.441-3.518l9.696-9.834l-0.619-18.202c-2.203-2.677-7.398-8.867-8.986-10.221    c-4.255-0.826-63.171,1.695-102.33,3.614l-19.329,13.209L207.087,470.362z"/>
		<path style="fill:#261D2A;" d="M241.742,290.863c-0.268,0-0.527-0.099-0.727-0.281c-0.213-0.194-0.341-0.466-0.352-0.755    c-0.606-14.794-0.199-14.964,0.612-15.305c0.308-0.128,0.681-0.095,0.981,0.065c1.183,0.268,8.685,0.167,15.788-0.087    c-2.563-27.518-6.598-67.359-8.225-75.289c-1.045,1.263-2.732,3.583-4.059,5.408c-5.246,7.215-6.387,8.575-7.754,7.887    c-1.251-0.625-8.901-7.439-11.214-9.512c-0.429-0.385-0.481-1.038-0.118-1.485c4.32-5.324,18.732-22.695,22.794-22.695    c0.797,0,2.136-0.03,3.756-0.064c13.863-0.302,16.448-0.014,17.271,0.794c0.208,0.202,0.384,0.602,0.384,0.892    c0.053,5.108,4.005,83.437,5.258,90.913c0.818-0.017,2.725-0.217,4.183-0.37c6.323-0.664,9.635-0.912,9.866,1.196    c0.204,1.861,1.828,14.778,1.828,14.778c0.037,0.297-0.051,0.597-0.242,0.827c-0.192,0.23-0.47,0.37-0.77,0.386l-49.197,2.694    C241.781,290.862,241.762,290.863,241.742,290.863z M242.585,276.765c-0.091,2.024,0.01,7.055,0.193,11.88l46.945-2.57    c-0.378-3.013-1.385-11.057-1.646-13.3c-1.192-0.312-5.273,0.115-7.535,0.353c-3.772,0.395-5.054,0.49-5.761,0.12    c-0.791-0.418-1.313-0.694-3.776-46.61c-1.101-20.522-2.102-41.6-2.266-45.555c-2.281-0.459-11.415-0.26-15.47-0.173    c-1.641,0.035-2.995,0.064-3.803,0.064c-2.071,0.071-12.09,10.853-20.466,21.097c3.509,3.129,8.102,7.134,9.587,8.24    c1.078-0.985,3.659-4.535,5.424-6.963c3.516-4.835,4.936-6.695,5.896-7.051c0.317-0.118,0.72-0.073,1.005,0.106    c0.597,0.376,2.18,1.371,9.388,79.032c0.027,0.295-0.069,0.59-0.264,0.812c-0.195,0.223-0.475,0.355-0.77,0.367    C248.889,277.016,244.509,276.961,242.585,276.765z M242.479,274.749c0.017,0.016,0.035,0.033,0.051,0.051    C242.513,274.78,242.496,274.764,242.479,274.749z M242.197,274.575 M268.717,180.439c0,0.006,0,0.012,0,0.018    C268.717,180.45,268.717,180.443,268.717,180.439z"/>
	</g>
</g>
<g>
</g>
<g>
</g>
<g>
</g>
<g>
</g>
<g>
</g>
<g>
</g>
<g>
</g>
<g>
</g>
<g>
</g>
<g>
</g>
<g>
</g>
<g>
</g>
<g>
</g>
<g>
</g>
<g>
</g>
</svg>
