<svg id="Layer_1" enable-background="new 0 0 180 180" viewBox="0 0 180 180" xmlns="http://www.w3.org/2000/svg"><g id="_x35_2"><g><path d="m134.9577484 49.2739983c-23.0278244 34.3263206-14.7827682 48.5197258-13.1652527 66.4378815 1.2041473 13.3386688-1.6057587 26.9966278-7.9102936 38.8025513-1.4596405 2.7462006-4.8627167 3.8045654-7.6637115 2.4542389l-43.8936272-21.1849213c-.967041-.4653168-1.6330452-1.2773285-1.9432144-2.2079468l-.0091324-.009079-6.9704285-10.0815887 11.0029793.7207947c13.3538818-25.6510391 4.2223053-46.6607361 9.9356995-69.9778442 1.7516556-7.1711197 5.0636292-14.1415443 10.2731552-19.2963867 1.4322357-1.432354 3.5033112-2.0254059 5.4830551-1.5600967l27.4711838 6.5142479c-.1184998-1.77911-.1550293-3.2297821 0-3.2753868.4013824-.136879 10.3188171-1.9706688 10.3188171-1.9706688l6.8974762 10.1910172.0274048.0273438.2552643.3832283c.7116547 1.1951939.7573242 2.7461583-.109375 4.0326154z" fill="#0c8c42"/></g><g><path d="m63.5165482 82.3931961c-.0072098.029892-.0144157.059845-.0216255.0897369-.722332 2.621254-3.5743256 3.9895554-6.1596642 3.1175919-10.8262978-3.6688156-16.4910431-1.6282806-22.2915077-3.5359802-3.2978992-1.094017-5.8883877-3.7335434-6.0201092-7.1996994-8.0545311-.4667206-13.8177137-7.2392426-13.5851059-10.4375381.0978193-1.2489586.9413166-2.3470383 1.9748516-3.0511932 1.0335331-.7041588 2.5303001-1.0183105 3.731245-1.3656578-3.9387264-2.7943535-5.7690477-3.9787827-7.1326265-5.4826202-4.5027542-5.0029144-.6810474-10.5802574 4.0107164-10.0538826-1.8144913-1.9051895-3.2068701-3.7880936-3.6379347-6.417717-.8915005-5.4918976 4.0519228-9.3969975 9.6737547-5.9884033.0517464.0346642.1027718.0595551.1546364.0942116 2.137991 1.3499565 3.7482281 3.3801231 5.4791222 5.2241135 3.4524441 3.6888428 7.5685673 6.802948 12.2046833 8.8077087 4.3318481 1.8745766 9.1075134 2.7733421 13.0961418 5.3123398 4.8157692 3.0454865 8.0184708 8.3354225 9.2732315 13.9141579 1.2602234 5.5766981.7289353 11.4440839-.7498092 16.9728315z" fill="#ebf2ff"/></g><g><path d="m63.5165482 82.3931961c-.0072098.029892-.0144157.059845-.0216255.0897369-.722332 2.621254-3.5743256 3.9895554-6.1596642 3.1175919-10.8262978-3.6688156-16.4910431-1.6282806-22.2915077-3.5359802-3.2978992-1.094017-5.8883877-3.7335434-6.0201092-7.1996994-8.0545311-.4667206-13.8177137-7.2392426-13.5851059-10.4375381.0978193-1.2489586.9413166-2.3470383 1.9748516-3.0511932 1.0335331-.7041588 2.5303001-1.0183105 3.731245-1.3656578-3.9387264-2.7943535-5.7690477-3.9787827-7.1326265-5.4826202-4.5027542-5.0029144-.6810474-10.5802574 4.0107164-10.0538826-1.8144913-1.9051895-3.2068701-3.7880936-3.6379347-6.417717-.8915005-5.4918976 4.0519228-9.3969975 9.6737547-5.9884033-2.4253483.6478806-4.5506172 2.4031143-5.5639248 4.7074432-1.2922688 2.9241829-.6945648 6.5846786 1.4532242 8.9594231-2.0385876.4876747-3.6917839 2.2804642-4.0122538 4.3495293-.3301802 2.0698395.4108038 4.2137794 1.6773767 5.8827782 1.2668114 1.6689835 3.0148468 2.9156647 4.8682384 3.9090996-1.9032364.8968887-3.7700062 2.797245-3.6634254 4.8860703.0854187 1.7900009 1.5258884 3.2096481 3.0092602 4.2153015 3.0278416 2.0451813 6.6451416 3.2192535 10.2970047 3.3158417-1.0077991 1.3466721-1.0024471 2.7723007-.1921539 4.2460709 2.9300766 5.3669739 16.8263855 7.7241364 21.6990242-.6329193 1.9337845-3.3016434 2.0918579-7.2614746 2.2310944-10.9852676.0863571-2.2931595.6751671-4.6489677.5886002-6.9077187-.0647659-1.6647873.1872482-3.2786255.8502998-4.7714424 3.5399017 3.114769 5.922245 7.5401802 6.9654503 12.1783218 1.2602234 5.576698.7289353 11.4440838-.7498092 16.9728314z" fill="#dbe6fa"/></g><g><path d="m32.1709862 59.1981277c-2.6790714-.6380844-5.2630558-1.673912-7.6410637-3.0630302-.8838634-.5163116-1.7644615-1.1055107-2.3263988-1.9610939s-.7347355-2.0396919-.1715374-2.8944473c.7480583-1.1353149 2.4046917-1.2302971 3.7068043-.8390884-.9944019.4064865-1.997858.9266968-2.246088 1.9718971-.1682053.7082443.1416893 1.461792.628212 2.0032692.8336981.927864 2.0147475 1.3502388 8.0500716 4.7824935z" fill="#cbdbf4"/></g><g><path d="m56.5264893 77.9617844c-5.205307.4191818-9.7513466-3.1590195-10.1120033-4.9632797-.1279335-.640007.0912552-1.5825958.7132492-1.7803497-1.2312431-.1788788-2.4752388-.4798965-3.5139732-1.1647263-1.0387344-.6848221-1.8482323-1.8127213-1.8840485-3.0563812-.03582-1.2436523.5265846-2.5817413 1.7618179-2.7306061-1.6889076-1.0649757-4.4014816-2.1126633-4.7892838-4.5266304-.1804657-1.1233559.4183121-2.5845528 1.5103836-2.9037323-1.6410408-.9014511-2.9613037-2.373703-3.6793213-4.10289-1.2725449-3.0646324 1.3380318-4.4144058 3.6054993-2.8399162-.9175339-.0100365-1.9858398 1.4842415-1.2501907 3.1508942.7191658 1.6293144 3.4057045 3.7852898 5.0487328 4.7757874-.7191734.0503845-1.46521.1315765-2.0193138.5927925-.8824158.7344894-.8027611 2.1906967-.1408348 3.1287727.8843117 1.2532349 2.4014168 1.8130531 6.1486855 3.6662064-2.3660583-.4599609-4.5637131 2.9124146-1.6370506 4.6488495.7304001.4333649 1.2935638.5607529 4.673275 1.5456238-.4672203-.1361542-.8402939.5972977-.911705.9234085-.5714264 2.6095123 3.3791008 3.8794632 5.6883545 5.1640701.1557081.0866163.6266935.4850767.7877272.4721068z" fill="#cbdbf4"/></g><g><path d="m43.5895653 79.4335098c-1.4469566-.5477448-4.0902176-1.7637405-5.0787506-2.9504242-1.3529701-1.624176-.5311661-3.4806595.7993164-3.5824509-.3831406.4663162-.3446312 1.1161652-.1165886 1.6749496.4761047 1.1666413 2.653183 2.9716493 4.3960228 4.8579255z" fill="#cbdbf4"/></g><g><path d="m167.8913422 66.999939c-.3114929 1.5571823-1.3041992 2.9196548-2.5109711 3.9610062-1.521759 1.3238373-3.0242157 2.0233994-7.7370453 4.5838776 1.1483307.4866104 2.5886841.9829636 3.5326691 1.810173.9342499.8272095 1.6351776 2.0145721 1.5864716 3.2602539-.0584564 1.1776199-.7493896 2.228714-1.5085297 3.124054-3.2311554 3.7760925-8.2821045 5.9074402-13.2453766 5.5862656-.5547943 3.4257507-3.4452209 5.7322693-6.8514862 6.4135361-6.036438 1.2073059-11.3494263-1.5476532-22.5593796.7980423-2.6666031.5546875-5.3332138-1.1484451-5.7321472-3.844223 0-.0389633-.0097427-.0681305-.0097427-.0973587-.7883606-5.6640778-.6130142-11.5520935 1.3234406-16.93396 1.0608978-2.9683075 2.6863327-5.7614365 4.7981415-8.0874405 9.1548767-10.1376114 18.3824463-3.3883362 32.933548-15.5325851 1.7031403-1.430603 3.3285675-2.9975319 5.2555237-4.087532 6.1089478-3.6192436 11.573822.7554436 9.8488464 6.6179352-.7396545 2.5498238-2.3551025 4.2626381-4.3892212 5.9268646 3.3598632.0412633 5.9358214 3.1490743 5.2652587 6.5010908z" fill="#ebf2ff"/></g><g><path d="m167.8913422 66.999939c-.3114929 1.5571823-1.3041992 2.9196548-2.5109711 3.9610062-1.521759 1.3238373-3.0242157 2.0233994-7.7370453 4.5838776 1.1483307.4866104 2.5886841.9829636 3.5326691 1.810173.9342499.8272095 1.6351776 2.0145721 1.5864716 3.2602539-.0584564 1.1776199-.7493896 2.228714-1.5085297 3.124054-3.2311554 3.7760925-8.2821045 5.9074402-13.2453766 5.5862656-.5547943 3.4257507-3.4452209 5.7322693-6.8514862 6.4135361-6.036438 1.2073059-11.3494263-1.5476532-22.5593796.7980423-2.6666031.5546875-5.3332138-1.1484451-5.7321472-3.844223 0-.0389633-.0097427-.0681305-.0097427-.0973587-.7883606-5.6640778-.6130142-11.5520935 1.3234406-16.93396 1.0608978-2.9683075 2.6863327-5.7614365 4.7981415-8.0874405-.846817 4.5838165-.603508 9.3331299-.0292282 13.9753952.8753738 7.2561722 3.0842896 10.6735992 11.5130081 11.9316711 2.987854.4476395 6.1313324.5741653 8.9245758-.5644836 2.8027496-1.138649 5.1386261-3.8247452 5.0509491-6.8416977 2.141037.4768677 4.4671631.8077316 6.6276703.3989944 2.1605225-.3989944 4.2433319-1.5474396 5.4208984-3.4062653 1.1873016-1.8491364 1.2844696-5.4013443-.0681915-7.1337051 1.4500885-1.3916931 2.9683533-2.948822 4.2918091-4.467041 1.3236694-1.5084763 2.4038086-3.3478699 2.5401917-5.3526993.1458893-2.0048218-.8175812-4.1751404-2.6471252-5.0120964 2.4330597-1.8685608 3.3088531-5.362442 2.3161469-8.2626114-.856308-2.5011787-3.172699-4.4087105-5.7516327-4.8855782 6.1089478-3.6192436 11.573822.7554436 9.8488464 6.6179352-.7396545 2.5498238-2.3551025 4.2626381-4.3892212 5.9268646 3.3598631.0412635 5.9358213 3.1490745 5.2652586 6.501091z" fill="#dbe6fa"/></g><g><path d="m146.7912292 73.3917236c2.7368011-.3073654 5.4276123-1.0210876 7.9569702-2.1105423.9401245-.4049301 1.8858795-.8826065 2.5477448-1.6634598.6618652-.7808456.9774475-1.9351349.5224457-2.852066-.6043701-1.2179031-2.2371368-1.5137482-3.577179-1.2838821.937561.5244598 1.8702698 1.1629028 1.9894714 2.230545.08078.7234497-.3184967 1.4336853-.8672943 1.9119415-.9403991.8195344-2.1640624 1.0950623-8.5721588 3.7674637z" fill="#cbdbf4"/></g><g><path d="m120.3322601 89.0374603c5.2822723 1.0836029 10.3910828-2.0125504 10.9874115-3.8164215.2115173-.6398773.1053009-1.6334763-.5073395-1.914299 1.2843781-.0286484 2.5971832-.1808624 3.747818-.752243 1.15065-.571373 2.1220093-1.6256561 2.3149719-2.8957825s-.215332-2.712204-1.4626312-3.0199661c1.8647766-.879303 4.776535-1.6122818 5.4772797-4.0376358.3260956-1.1286621-.1040039-2.7014771-1.1831665-3.1658096 1.7951508-.7177277 3.3332672-2.0607605 4.2864227-3.7427979 1.68927-2.9810753-.8167267-4.6924515-3.3384857-3.3636322.9416504.1049919 1.8488159 1.7706985.8854523 3.3864365-.9417877 1.5795288-3.966095 3.4516678-5.7744904 4.2603989.7307587.1419983 1.4851685.3189468 1.9951324.8612595.8121033.8636475.5475159 2.3461151-.248764 3.2243881-1.0637817 1.1733398-2.6890106 1.5564957-6.7624207 2.984993 2.511322-.1761551 4.300827 3.5629807 1.0937347 4.9702988-.8030243.3523865-1.396225.4121933-4.9838409.9969711.4959641-.0808411.7861786.7177429.8183975 1.0609436.2576523 2.7446671-4.001091 3.5720062-6.4788208 4.5779953-.1704711.0692137-.703247.4184188-.866661.3849028z" fill="#cbdbf4"/></g><g><path d="m132.9953461 92.0874023c1.5028534-.3676071 4.2744293-1.2529526 5.4000092-2.3105392 1.5405273-1.4474869.9507294-3.3901749-.3574829-3.6530914.3235474.5094681.2062531 1.1498032-.088089 1.6766891-.2943268.5268936-.7647247.928894-1.2251892 1.319046-1.1052857.9365082-2.6239625 2.0313874-3.7292481 2.9678955z" fill="#cbdbf4"/></g><g><path d="m127.6801453 38.5057411c-3.9026184 5.8198891-7.5521851 11.6981049-10.3454361 18.1894531-2.8806839 6.6665802-4.8953171 13.7710609-5.430397 20.9923286-.1266403 1.6252518-.1753464 3.2602539-.1363831 4.8953171.175354 7.5132141 2.073082 14.8804855 2.744545 22.3645325 1.2067795 13.333107-1.605957 26.9970703-7.9123917 38.8022156-1.4598236 2.7444763-4.8561096 3.8052521-7.6591034 2.4525299l-43.8922386-21.1869888c-2.0630989-.9926987-2.7930145-3.5814362-1.5277824-5.4889679 5.0509453-7.5716019 8.5156593-16.1943665 10.1018906-25.1479263 0-.0194778.0097427-.0487061.0097427-.0681305 1.4793091-8.3891373 1.313942-16.9631882 1.2944565-25.469162-.0194855-8.5156631.1069183-17.1188774 2.1312943-25.3814926 1.7518387-7.1726151 5.0704269-14.1408901 10.2772369-19.2989349 1.430603-1.430603 3.5034485-2.0243111 5.4791107-1.5571251l42.5782928 10.1020088c2.5791778.6130752 3.7664718 3.6008606 2.2871628 5.8003425z" fill="#20b267"/></g><g><path d="m106.6000824 143.749588c-1.4598236 2.7444763-4.8561096 3.8052521-7.6591034 2.4525299l-43.8922386-21.1869888c-2.0630989-.9926987-2.7930145-3.5814362-1.5277824-5.4889679 5.0509453-7.5716019 8.5156593-16.1943665 10.1018906-25.1479263.6618423 3.6398315 1.8687439 7.1920395 3.5618973 10.5010071-1.138588 3.707962-2.5399704 7.3283615-4.2625847 10.8221817 1.7287025-1.1968689 5.0501595.1017227 5.664196 4.0096588.2140808 1.3625259.0776978 2.7542191-.0584488 4.1264343l23.7756577 10.8124924c-.2917786-1.6934509.2433014-3.9707489 1.4987946-5.1580963 2.7507172-2.560112 7.2386398-1.4746704 8.5059128 2.0535278 3.3867874-9.2942734 7.4547729-19.2113724 6.919693-29.0797577-.2143173-3.9318466-1.0511551-7.7760086-1.8979721-11.6299744v-.0097427c.7398987-2.8515244 1.5085373-5.6738815 2.5207214-8.4280396.5840302-1.5960922 1.2652359-3.1824493 2.0535965-4.7104034-.1266403 1.6252518-.1753464 3.2602539-.1363831 4.8953171.175354 7.5132141 2.073082 14.8804855 2.744545 22.3645325 1.2067793 13.3331069-1.6059572 26.9970702-7.9123918 38.8022155z" fill="#129b50"/></g><g><path d="m109.2279663 102.465683c.53508 9.8683853-3.5329056 19.7854843-6.919693 29.0797577-1.2647705-3.5212402-5.7506104-4.6179047-8.5059128-2.0535278-1.2554932 1.1873474-1.7905731 3.4646454-1.4987946 5.1580963l-23.7756577-10.8124924c.1361465-1.3722153.2725296-2.7639084.0584488-4.1264343-.6003189-3.8206253-3.8942337-5.2350998-5.664196-4.0096588 5.6405754-11.4402542 7.9143562-24.3634033 8.5448875-37.1574631.6883621-14.1494293-2.531456-31.8269958 8.5546265-44.7777863 1.342926 2.0145683 3.8246765 3.3770981 6.1797943 2.8028717 2.3553467-.5742226 4.2335892-2.7152557 4.496376-5.1191368l19.4059219 5.0607491c-2.4224396 2.1958351-.7859192 8.016098 5.7518692 7.9706573-8.0585098 10.7735367-11.9219208 24.7002869-10.1118698 38.0333862.3796844 2.7931366.9829559 5.5473022 1.5862274 8.311264v.0097427c.8468172 3.8539659 1.683655 7.6981279 1.8979723 11.6299745z" fill="#3be094"/></g><g><path d="m102.3082733 131.5454407c-1.2647705-3.5212402-5.7506104-4.6179047-8.5059128-2.0535278-1.2554932 1.1873474-1.7905731 3.4646454-1.4987946 5.1580963l-23.7756577-10.8124924c.1361465-1.3722153.2725296-2.7639084.0584488-4.1264343-.6003189-3.8206253-3.8942337-5.2350998-5.664196-4.0096588 1.7226143-3.4938202 3.1239967-7.1142197 4.2625847-10.8221817 2.5784683 5.0240631 6.7492065 10.4534302 11.9024353 12.8756561.243309 2.1313553 2.0535965 3.795578 4.2530823 3.795578 1.7810669 0 3.3088455-1.0997391 3.9513245-2.6471863 3.844162-.6325531 7.5034714-2.7639084 10.2382736-5.6154251 5.8539047-6.1341629 7.8013306-14.8038483 9.8001328-22.4521561.846817 3.8539658 1.6836548 7.6981277 1.8979721 11.6299744.53508 9.8683853-3.5329056 19.7854843-6.919693 29.0797577z" fill="#2dc97d"/></g><g><path d="m77.7926331 89.2712097c3.3961029 3.6531677 11.8158188 7.379631 16.8537216 7.1046753 3.0607681-.1670456 6.2065506-1.7380066 7.4921951-4.5206985 2.7519836-5.956459-2.9441681-18.4003296-15.8005676-20.0521317-7.7937546-1.0013504-12.1805038 3.2325058-11.6337357 8.6583099.3424454 3.3982773.6319351 6.16745 3.0883866 8.809845z" fill="#20b267"/></g><g><path d="m87.6028442 117.2877731c0 2.3948364-1.9504089 4.2627029-4.2625809 4.2627029-2.3368073 0-4.2723236-1.8908386-4.2723236-4.2627029 0-2.3551712 1.9172134-4.2627029 4.2723236-4.2627029s4.2625809 1.9075317 4.2625809 4.2627029z" fill="#20b267"/></g><g><path d="m97.6125488 53.2327652c-.6424789 1.5474434-2.1702576 2.6471863-3.9513245 2.6471863-2.3368073 0-4.2723236-1.8908386-4.2723236-4.2627029 0-2.3551712 1.9172134-4.2626991 4.2723236-4.2626991 2.9987717-.0000001 5.0791474 3.0018424 3.9513245 5.8782157z" fill="#20b267"/></g><g><g><path d="m92.4174118 79.3065262c1.7519073.2802963 3.4453964 1.8733215 3.6686325 4.5153885.5400848.1207886 1.0738983.2460327 1.6091003.365654.1687088.041481.2228699.0972214.1801834.3319244-.2244034 1.2585144-.3335266 2.0374603-.5957718 2.8617249-.125824.3764648-.2822037.5088806-.7695465.416008-.4024734-.0749588-.7938614-.1532288-1.1901016-.2326508-.797821 1.430809-1.0903473 1.8841934-2.3353882 2.9433746-.2832947.2388458-.4335327.1889572-.7041321.0246506-.5901108-.3510361-1.3937836-1.0621643-1.6654587-1.3682709-.1081848-.1101761-.1489334-.3816147.143898-.6896744.3300781-.3270569.3576584-.408371.5581512-.6418228l.0013809-.0056229c1.9228058-2.5513687 1.3155975-5.8445969-.5677795-3.9747467-1.22966 1.2017822-2.0069275 3.0061722-3.3739624 3.9524307-1.3931122.9983521-3.3530502.7523346-4.5540161-.5383453-.798645-.843544-1.2497177-2.0570221-1.3500366-3.3401108-.5628586-.1323853-1.1319809-.2603073-1.7010651-.3882599-.2008591-.0493851-.2030106-.1115265-.1781158-.3194199.2165298-1.2224274.355011-2.1020889.5943375-2.8141327.1325378-.3912888.2715836-.4918289.7412033-.4050522.6215515.1119385 1.075943.1993866 1.1977158.2225571.3458939-.7984772.8411102-1.5631943 1.4458084-2.185318.1827621-.1923141.3100967-.3675919.5563126-.2167587.1002731.0767517.9658585.4053802 1.9765472 1.5226212.0718384.0835648.1837997.1710358.1995621.2947311.0116577.0987701-.0430679.1751785-.1046753.2379379-.3959961.416626-.6942902.8983154-.9068909 1.4129868-.1885757.4330215-.3218765.8916321-.3880539 1.3487473-.2516403 1.4011078.6530609 1.8392792 1.56147.9351883.6100159-.6230316.9837418-1.4959183 1.5039291-2.2129822 1.0078355-1.385643 2.7654039-2.3356094 4.4467622-2.0527572z" fill="#3be094"/></g></g><g><path d="m87.2915878 118.9032898c-.6424789 1.5474472-2.1702576 2.6471863-3.9513245 2.6471863-2.1994858 0-4.0097733-1.6642227-4.2530823-3.795578 2.6129838 1.2338485 5.347252 1.6130981 8.2044068 1.1483917z" fill="#129b50"/></g><g opacity=".4"><g><path d="m74.6829376 50.231987c-.7540283 2.5078354-1.1486053 5.1426315-1.1856155 7.7605858-.0166473 1.1773262 1.0467987 2.3038902 2.25 2.25 1.2332993-.0552406 2.2321625-.9884033 2.25-2.25.0331039-2.3417587.3098145-4.1860886 1.0248642-6.5643044.3388519-1.126976-.4057388-2.5022507-1.5714874-2.7677689-1.2123795-.276142-2.4049149.3646699-2.7677613 1.5714875z" fill="#fff"/></g></g><g opacity=".4"><g><path d="m73.0671387 64.0919189c.0908051 1.716011.0595016 1.8028107.2638931 2.1918488.4292984 1.3196945 2.4130859 1.9499512 3.6472092.7241058.8033447-1.0397949.6812134-1.1712494.5888977-2.9159546.0468292-1.2413063-1.1110535-2.2929649-2.25-2.25-1.6588669.2229043-2.2468491 1.2359353-2.25 2.25z" fill="#fff"/></g></g><g opacity=".8"><g><path d="m21.5638256 40.2868118c1.6476002 2.0241737 3.6142292 3.7614975 5.7713757 5.226944.9130116.6202507 2.5020084.2837982 3.0784264-.8071899.6429844-1.2169762.2334938-2.3714447-.8071899-3.0784264-1.8709164-1.2709999-3.5333252-2.8926353-4.86063-4.5233116-.6467514-.7945709-2.3180504-.9411201-3.181982 0-.9655058 1.0517731-.7874109 2.3892517-.0000002 3.1819839z" fill="#fff"/></g></g><g opacity=".8"><g><path d="m32.2226372 48.4095802c1.3383827.855072 1.6335869 1.1279106 2.22612 1.1547852 1.3610344.3048019 2.9238625-1.114254 2.4686966-2.8079567-.455658-1.0797424-.3756142-.9240303-2.4235802-2.2324486-1.5663719-.9972305-3.8599949.4766998-3.3052464 2.5409508.1907902.4521026.3424721.9355354 1.03401 1.3446693z" fill="#fff"/></g></g><g opacity=".8"><g><path d="m124.6239471 70.3254318c1.4379196-1.7142029 3.3476944-2.5777893 5.4521942-3.33255.7366943-.2641983 1.3102417-1.0337753 1.0476685-1.8451767-.234787-.7254944-1.0544128-1.3312569-1.8451843-1.0476532-2.4882126.8923645-5.0387192 2.0329819-6.776001 4.1040649-.5036469.6004105-.632576 1.5406189 0 2.121315.5556793.5101013 1.5828323.6419525 2.1213226 0z" fill="#fff"/></g></g><g opacity=".8"><g><path d="m134.0263519 65.5288773c1.6201172-.537384 1.5569153-.4899902 1.7723694-.6871719.5058441-.3276291.7714081-1.0225372.3863373-1.935009-.7168121-1.2116013-1.958847-.6014824-2.9562225-.2706566-.3412018.0811195-.7306366.3818588-.8964386.6893387-.6703034 1.0528487.3327789 2.5693053 1.6939544 2.2034988z" fill="#fff"/></g></g></g></svg>