<svg id="Trophy" height="512" viewBox="0 0 1200 1200" width="512" xmlns="http://www.w3.org/2000/svg">
    <g>
        <path d="m1026.846 371.381c-5.436-46.125-15.902-89.083-31.176-127.884-37.532-88.905-87.021-147.555-175.924-149.851-44.555 3.08-98.429 3.948-114.615 49.355-2.495 7.338-3.451 14.814-2.94 22.161-11.219 8.1-19.64 18.713-23.981 30.871-3.794 10.618-4.341 21.752-1.817 32.638-3.53 4.418-6.566 9.3-9.03 14.556-28.527-15.563-62.864-23.978-101.408-23.978-21.693 0-43.84 2.691-65.918 8.007-1.495-4.171-3.28-8.243-5.348-12.174 9.154-23.492-2.943-50.876-22.183-65.465 1.372-11.034-1.019-19.95-2.876-24.861-28.338-68.324-155.014-47.789-200.428 2.431-53.289 48.578-92.879 157.817-99.56 233.054-17.333 23.237-22.444 56.72-14.782 96.998 15.695 83.471 85.386 149.26 191.246 180.559 21.428 7.003 49.842 14.967 80.094 14.951 9.859 10.067 22.506 15.374 34.111 18.41-.452 12.258-5.433 22.909-7.884 35.193-24.858 5.858-54.528 15.874-71.563 41.842-42.518 20.208-64.658 48.413-62.828 80.354-.49 31.913-3.686 63.965-3.238 96.649-45.004 64.192-20.1 152.003 133.661 182.383 115.384 18.722 330.005 28.953 380.777-93.185 10.767-29.593 6.269-62.194-11.83-89.564.951-26.595-2.739-51.499-4.581-77.262-1.41-13.121.286-24.88-2.83-39.507-8.113-35.243-41.859-54.436-61.927-62.733-19.543-27.971-52.97-36.981-80.388-41.846-3.199-11.266-6.553-23.33-7.173-32.619 4.891-1.309 10.825-3.323 16.829-6.701 18.604-2.025 35.633.52 54.436.635 125.475 1.416 322.337-84.153 316.713-231.402-.862-26.963-8.287-48.118-21.639-62.015z"
              fill="none"/>/>
        <g>
            <path d="m999.227 390.536c-1.067-.722-2.213-1.35-3.375-1.963-4.276-45.327-13.862-90.729-30.55-133.121-18.414-46.781-47.142-93.639-93.11-117.511-33.195-17.236-71.933-12.332-107.328-4.547-26.926 2.404-41.025 29.174-19.891 48.672-29.922 5.15-50.572 29.539-27.809 55.794-23.785 8.806-33.217 43.705-14.371 62.929 45.506 39.224 50.883 96.017 40.474 151.963-16.8 31.124-34.056 62.773-64.634 82.646-8.564 7.573-7.646 2.039-13.906-3.796 23.682-17.54 40.889-41.311 50.4-69.522 9.638-28.589 11.217-59.661 5.797-89.263-18.189-108.563-122.698-137.43-218.015-112.636-10.924 3.124-21.571 7.266-31.646 12.487 5.121-19.981-1.396-42.329-16.125-56.864 24.967-20.874-2.125-46.365-25.246-51.865 26.156-26.943-1.756-47.254-29.604-49.41-17.898-1.849-36.502.652-53.6 6.02-21.074 1.954-40.041 15.916-54.873 30.171-30.014 28.846-49.576 67.659-63.928 106.237-13.836 37.191-24.061 77.12-26.605 116.886-1.635 1.448-3.18 2.995-4.527 4.68-15.58 19.48-14.221 49.569-9.824 72.688 15.581 82.854 93.041 133.099 168.865 155.424 28.664 9.388 57.543 16.21 87.598 12.412 6.02 20.218 28.991 21.768 46.747 24.183 1.778 13.442 4.345 28.432 1.578 41.128-3.391 15.556-9.019 30.762-10.499 46.718-.078.837-.059 1.635-.074 2.447-27.139 5.949-65.043 11.311-76.904 40.008-21.616 8.889-55.848 27.722-53.557 54.107-.422 34.19-4.041 68.354-3.15 102.553.055 2.089.127 4.211.215 6.346-10.455 11.355-18.566 24.929-20.302 40.514-2.194 63.869 76.378 88.672 127.405 98.53 85.002 16.977 307.4 25.122 343.713-72.349 8.853-24.324 1.823-49.356-14.502-68.517 2.75-28.05-1.885-57.204-3.799-84.892-1.407-11.781.151-23.537-2.241-35.198-6.28-23.081-31.759-35.415-52.396-43.028-13.562-29.584-52.634-34.279-81.31-38.839-1.302-.181-2.465.04-3.465.513-.73-8.229-3.609-16.706-5.494-24.466-6.6-21.398-10.386-43.134-5.823-65.434 5.733-.715 11.452-1.581 17.097-2.772 7.494-1.583 14.92-3.587 20.303-9.13 11.268.625 22.55-1.017 33.676-1.146 77.979 9.552 169.283-19.109 234.992-60.69 44.697-30.061 81.734-79.306 80.264-135.186-.462-14.396-3.604-35.085-16.641-43.911zm-553.922 147.73c-40.678-22.129-59.951-58.504-77.932-98.988 10.107-2.163 20.613-2.753 30.629-5.098 6.178 32.607 22.341 63.207 48.232 84.561 15.52 9.943 4.075 6.672-.929 19.525z"
                  fill="#68182b"/>
            <path d="m862.039 145.728c85.285 44.344 110.542 150.27 121.826 238.388-16.281-3.592-31.533-5.154-47.895-6.187-3.027-31.813-10.221-63.481-20.328-93.686-13.501-40.351-33.101-80.307-63.316-110.842-14.472-14.625-31.789-27.242-51.037-34.815 20.917-2.394 42.196-1.664 60.75 7.142z"
                  fill="#db9f6e"/>
            <path d="m751.018 151.166c28.359-18.693 64.373 4.27 86.188 23.698 54.939 52.017 78.301 129.698 87.225 203.003-28.564-3.432-39.098 12.911-57.664 30.667-2.787-66.309-22.59-133.555-63.822-186.261-11.492-14.747-24.613-27.58-39.891-38.522-.783-1.839-2.384-3.389-4.549-3.8-8.243-6.829-17.845-19.674-7.487-28.785z"
                  fill="#fbf199"/>
            <path d="m755.484 191.664c67.888 51.962 98.075 140.146 100.05 223.292.027 1.374.449 2.492 1.113 3.357-6.582 6.087-13.285 12.044-20.137 17.83-6.398 5.401-13.164 12.428-20.886 15.889-.688.309-1.364.515-2.037.702 4.288-46.224-2.19-92.654-22.474-134.678-13.48-27.847-32.328-52.789-53.688-75.063-30.677-27.246-20.704-45.056 18.059-51.329z"
                  fill="#fac135"/>
            <path d="m729.73 312.668c-7.931-12.234-24.238-19.545-25.547-35.236-.958-13.389 7.71-28.164 21.56-29.928 33.33 33.672 59.83 73.97 71.146 120.367 3.436 7.283 13.384 95.021.598 80.4-10.609-7.069-21.359-15.479-34.926-11.274-2.098.652-4.019 1.604-5.865 2.674 3.666-29.104 4.176-59.129-5.223-87.106-4.878-14.516-12.285-27.877-21.743-39.897z"
                  fill="#fbf199"/>
            <path d="m728.875 501.1c13.018-14.612 21.373-57.195 45.079-53.26 13.995 3.571 24.396 20.575 40.444 16.438-23.044 47.506-77.581 70.253-127.148 78.901 15.963-11.729 30.119-25.842 41.625-42.079z"
                  fill="#fbf199"/>
            <path d="m669.924 512.694c-5.07 4.711-10.547 8.878-16.273 12.734-8.419-2.539-17.314-3.423-26.015-4.497-7.589-.868-15.21-1.482-22.835-2.004 10.896-19.431 17.063-41.112 21.789-62.746 23.928 4.198 48.32 9.21 69.922 20.781-6.678 13.241-15.467 25.397-26.588 35.732z"
                  fill="#00ebed"/>
            <path d="m483.175 351.22c-6.17 32.304-5.365 65.786 1.968 97.816-21.68 3.846-43.68 9.634-62.654 21.207-15.971-30.665-20.33-67.35-11.84-101.012 21.383-18.552 48.979-28.053 76.196-34.279-1.415 5.45-2.645 10.898-3.67 16.268z"
                  fill="#ceffff"/>
            <path d="m494.36 333.406c8.615-1.659 17.302-2.945 26-3.888 34.764-3.762 70.969-2.969 105.543 4.191.906 6.645 1.527 13.33 1.94 20 1.95 31.503-.357 63.655-6.636 94.756-6.832-.982-13.68-1.861-20.537-2.545-35.837-3.564-72.799-3.67-108.586 1.958-8.792-37.633-8.469-77.346 2.276-114.472z"
                  fill="#00ebed"/>
            <path d="m486.8 455.778c17.675 75.15 51.998 57.328-18.062 64.771-17.891-11.155-32.5-26.35-42.875-44.294 18.478-11.213 39.811-16.771 60.937-20.477z"
                  fill="#00ebed"/>
            <path d="m493.807 454.626c11.093-1.668 22.271-2.792 33.458-3.436 30.706-1.761 61.981-.682 92.584 3.874-1.221 5.512-2.532 10.994-4.007 16.42-4.405 16.211-10.02 32.514-18.806 46.932-25.524-1.362-51.056-1.718-76.605-1.219-11.837-19.391-20.8-40.551-26.624-62.571z"
                  fill="#ceffff"/>
            <path d="m699.483 470.68c-22.154-11.673-46.982-17.031-71.48-21.203 1.773-9.134 3.229-18.335 4.369-27.563 3.486-28.207 4.734-57.921.889-86.585 27.201 6.56 55.012 16.408 75.6 36.075 6.842 32.929 4.188 68.634-9.378 99.276z"
                  fill="#ceffff"/>
            <path d="m616.384 270.501c16.472 4.291 32.989 10.637 46.593 21.098 21.635 16.729 35.805 42.025 42.992 68.085-21.385-16.611-47.611-25.759-73.797-31.594-1.404-8.453-3.252-16.8-5.681-24.96-3.558-11.966-8.624-24.102-16.316-34.124 2.078.475 4.153.96 6.209 1.495z"
                  fill="#00ebed"/>
            <path d="m535.61 265.219c21.007-2.655 42.521-2.057 63.284 1.534 15.823 15.754 22.036 38.423 25.923 59.823-7.93-1.511-15.914-2.717-23.91-3.651-34.18-3.996-69.873-3.49-104.136 2.871 7.464-23.012 19.077-45.908 38.839-60.577z"
                  fill="#ceffff"/>
            <path d="m522.583 267.27c-16.503 15.988-26.976 37.735-33.624 60.089-26.492 5.811-52.979 14.439-75.139 30.485 14.101-49.493 59.369-82.319 108.763-90.574z"
                  fill="#00ebed"/>
            <path d="m458.01 240.487c7.842 19.384 3.466 40.928-15.297 51.472-20.857 18.183-34.266 42.718-41.749 69.153-5.669 20.024-7.146 41.389-4.632 62.27-9.332.936-18.688 2.492-27.971 4.034-.504-47.094 5.107-97.961 38.627-133.802 5.003-5.707 9.602-10.787 11.959-18.174 4.418-14.587.893-31.938-9.558-43.103 12.046-1.576 24.274-4.093 34.877-9.449 6.706 3.697 10.771 10.796 13.744 17.599z"
                  fill="#db9f6e"/>
            <path d="m356.889 427.562c-14.793-10.73-27.283.953-38.732 10.225.918-73.428 26.195-146.804 74.379-202.715 16.881 4.911 21.365 30.67 11.937 44.026-39.272 39.046-48.536 95.116-47.584 148.464z"
                  fill="#fbf199"/>
            <path d="m330.682 442.111c20.73-20.537 31.095 9.769 37.555 25.994 13.494 31.077 36.384 58.124 64.946 76.302-41.798-3.58-84.433-27.396-107.337-62.233-6.107-9.29-10.554-19.427-13.288-30.142 6.888-.879 12.743-5.495 18.124-9.921z"
                  fill="#fbf199"/>
            <path d="m306.554 439.718c-2.64-1.224-4.987-3.42-7.155-5.415-9.725-8.983-19.006-18.443-27.951-28.202 3.297-81.856 33.074-167.404 93.093-224.84.366-.333.733-.675 1.1-1.01 12.073 2.233 33.522 7.272 31.478 23.436-3.83 18.025-20.816 29.779-30.004 45.165-24.381 34.429-42.006 73.688-51.609 114.765-5.836 24.935-8.691 50.507-8.952 76.101z"
                  fill="#fac135"/>
            <path d="m448.932 187.416c19.798 23.002-31.291 32.779-46.402 34.112 10.207-14.326 7.549-35.686-8.701-43.657 7.754-1.125 15.41-2.741 22.566-5.403 11.732 2.38 23.851 6.361 32.537 14.948z"
                  fill="#db9f6e"/>
            <path d="m391.686 125.481c12.058.477 32.945 2.491 36.91 15.983-2.076 24.421-32.984 23.773-51.409 26.764 10.927-12.172 9.776-33.802-4.673-41.587 6.344-.858 12.736-1.313 19.172-1.16z"
                  fill="#db9f6e"/>
            <path d="m232.766 277.893c12.139-37.314 28.824-74.826 54.231-105.111 18.383-20.371 44.573-47.263 74.586-39.237 25.315 11.062 3.733 33.225-9.788 43.895-8.07 7.825-15.431 16.329-22.271 25.245-40.945 54.915-64.269 122.898-69.078 191.114-12.107-13.73-25.754-35.16-47.104-27.11 2.723-30.15 10.106-60.154 19.424-88.796z"
                  fill="#fbf199"/>
            <path d="m440.086 607.86c-24.531 2.885-48.596-2.101-72.104-9.405-69.68-20.051-142.529-59.668-165.598-133.139-6.854-21.605-10.884-49.241-1.828-70.828 3.951-9.422 13.373-19.775 24.742-17.715 11.18 2.028 19.354 16.51 26.205 24.413 8.82 10.171 18.012 20.016 27.558 29.508 7.278 7.235 15.772 17.905 26.233 20.752 10.697 47.351 54.828 81.328 99.641 94.519 59.938 13.328 22.805-7.987 35.151 61.895z"
                  fill="#fac135"/>
            <path d="m781.604 950.55c9.096 14.376 12.087 31.306 6.346 48.231-32.773 102.917-365.609 92.292-429.895 22.928-20.359-17.067-26.201-47.651-8.776-68.895 1.647 13.037 8.681 24.497 18.491 33.035 75.482 68.087 300.54 68.263 382.549 10.782 15.992-11.373 27.476-26.511 31.285-46.081z"
                  fill="#db9f6e"/>
            <path d="m726.166 802.614c.719-5.849 1.375-11.991 1.307-18.059 15.394 6.071 33.355 15.403 38.887 31.302 14.608 78.649-223.224 71.584-273.007 65.406-41.554-5.439-88.278-9.577-121.646-37.361-25.775-23.512 8.477-49.014 31-57.341.791 11.252.724 23.195 5.475 33.532 39.27 55.313 227.205 47.406 284.656 20.688 16.287-6.75 33.265-18.767 33.328-38.167z"
                  fill="#fac135"/>
            <path d="m714.958 799.973c-.612 5.747-1.048 10.472-3.679 14.193-36.494 46.567-260.453 49.354-293.66-.841-7.221-26.397 2.318-8.396 17.264-4.799 22.473 8.968 47.166 12.197 71.09 14.535 65.384 4.516 136.246 7.758 198.023-17.107 3.411-.544 11.002-9.301 10.962-5.981z"
                  fill="#db9f6e"/>
            <path d="m640.278 743.621c21.34 3.944 68.563 8.644 74.199 33.649-4.219 20.732-32.504 25.05-50.094 29.165-56.004 11.162-201.146 16.356-245.155-20.285-20.126-23.434 48.751-39.46 63.86-41.333 17.532 44.746 142.783 46.354 157.19-1.196z"
                  fill="#ff801d"/>
            <path d="m629.478 735.468c.259 43.124-136.165 41.577-136.898-1.163.468-15.642 6.829-31.285 10.163-46.55 3.146-14.04.932-28.929-.924-43.156 38.563 3.485 77.475 3.495 116.033.05-1.551 11.913-2.952 23.986-1.145 35.916 2.922 18.524 9.807 36.378 12.771 54.903z"
                  fill="#fac135"/>
            <path d="m644.384 629.321c-55.13 8.873-112.44 8.802-167.606.221-12.41-2.082-20.557-4.039-23.646-17.899-5.577-22.795-7.104-50.229 4.461-71.445 6.148-10.104 18.655-9.278 29.201-10.052 25.525-1.191 169.091-7.573 174.976 15.783-28.857 12.667-45.55 57.924-19.051 80.564 1.803 1.61 6.324 2.264 1.665 2.828z"
                  fill="#fbf199"/>
            <path d="m674.1 619.999c-10.087-.221-23.322 2.228-29.385-8.203-13.316-24.3 8.365-52.575 31.13-59.966 48.276-6.379 100.709-23.973 131.851-63.666 6.553-8.352 11.773-17.535 15.68-27.362 6.553-3.656 12.467-9.167 18.03-13.798 12.44-10.354 24.463-21.214 36.017-32.551 13.846-15.313 29.966-34.808 51.87-20.054 17.499 12.552 17.468 44.663 13.64 63.761-26.689 112.149-166.566 155.702-268.833 161.839z"
                  fill="#fac135"/>
            <path d="m997.582 476.583c-37.2 96.556-152.154 130.958-245.728 143.875 13.204-3.387 26.253-7.344 39.077-11.63 61.58-20.211 124.398-55.457 152.738-116.531 13.938-30.703 22.441-75.38-2.891-102.541 15.543 1.239 31.439 2.671 46.283 7.708 4.613 1.595 6.76 2.921 9.398 6.958 12.681 21.697 8.547 49.315 1.123 72.161z"
                  fill="#db9f6e"/>
            <path d="m768.807 850.194c-15.135 18.176-38.468 26.262-60.721 31.877-84.832 19.979-279.531 27.827-346.461-31.875-1.281 31.835-5.246 64.606-1.533 96.366.783 16.865 11.997 29.815 25.401 38.889 71.116 45.547 177.694 46.013 259.206 35.388 53.54-8.728 130.732-26.557 128.162-94.636.95-25.405-2.259-50.682-4.054-76.009zm-182.555 156.417c-50.051 2.93-175.281-.737-204.418-45.167-11.735-19.876-15.744-53.158 5.049-68.465 11.516-7.351 24.516-.646 36.322 2.265 25.579 6.724 51.854 11.063 78.119 13.991 30.047 3.353 60.504 4.848 90.69 2.645 8.426-.616 16.451-.792 23.741 4.155 31.087 24.96 12.597 91.075-29.503 90.576z"
                  fill="#ff801d"/>
            <path d="m623.123 961.895c-5.087 29.347-22.943 40.774-51.867 38.585-56.845-.088-119.621-2.18-170.773-29.249-25.146-12.453-33.74-84.395 7.162-73.302 60.613 17.526 124.818 24.623 187.799 20.594 23.97-3.936 32.099 24.654 27.679 43.372z"
                  fill="#ceffff"/>
            <g fill="#f3af79">
                <path d="m806.821 464.706c-12.021-1.619-21.2-13.888-32.866-16.865-23.706-3.936-32.062 38.647-45.079 53.26-8.506 12.003-18.475 22.828-29.536 32.405 18.421-8.797 32.614-27.394 43.356-43.757 9.769-14.882 20.252-28.583 40.006-24.634 8.7 1.738 16.873 2.677 24.119-.409z"/>
                <path d="m762.561 436.998c.056-.019.109-.027.166-.043 2.615-14.264 4.63-28.768 5.239-43.161.78-18.423-4.456-36.079-11.207-53.015-6.013-15.081-14.319-28.024-24.427-40.628-6.362-7.932-12.512-15.811-17.49-24.693-3.746-6.688-4.063-13.757-2.73-20.712-5.525 5.93-8.512 14.556-7.929 22.687 1.309 15.691 17.616 23.002 25.547 35.236 9.458 12.02 16.865 25.381 21.743 39.896 9.398 27.978 8.889 58.002 5.223 87.106 1.846-1.07 3.767-2.021 5.865-2.673z"/>
                <path d="m400.469 239.614c1.738 5.298 2.303 10.873 1.191 17.153-1.758 9.939-9.721 19.478-15.311 27.663-9.865 14.44-19.43 28.524-25.936 44.85-6.623 16.615-10.486 34.24-13.351 51.843-2.224 13.654-4.587 28.297-4.825 42.374 4.641-.647 9.504.333 14.65 4.065-.952-53.348 8.313-109.418 47.583-148.464 7.722-10.934 6.101-30.17-4.001-39.484z"/>
                <path  d="m917.088 377.459c-7.555-6.506-17.061-4.828-26.79-2.066-17.095 4.848-19.134-12.253-20.667-24.564-1.595-12.804-5.086-25.194-9.157-37.422-9.907-29.755-25.149-57.301-42.072-83.581-10.886-16.905-24.58-31.513-39.61-44.791-8.166-7.212-24.607-16.566-31.76-27.929-2.49 8.149 4.906 17.402 11.473 22.845 2.165.411 3.766 1.961 4.549 3.8 15.277 10.942 28.398 23.775 39.891 38.522 41.232 52.706 61.035 119.952 63.822 186.261 16.873-16.137 27.155-31.054 50.321-31.075z"/>
                <path d="m654.967 549.746c-16.729 2.179-30.065 21.328-35.06 35.528-3.402 9.674-2.869 20.455-7.362 29.744-4.104 8.489-14.299 9.044-22.422 9.56-10.414.661-20.815 1.398-31.246 1.745-24.374.805-51.115-1.098-74.83-6.803-16.926-4.07-27.465-13.105-34.166-25.444.747 6.028 1.873 11.941 3.25 17.567 3.09 13.86 11.236 15.817 23.646 17.899 55.166 8.581 112.477 8.652 167.606-.221 4.659-.564.138-1.219-1.666-2.828-24.322-20.782-12.217-60.553 12.25-76.747z"/>
                <path d="m368.237 468.105c-6.46-16.226-16.824-46.531-37.555-25.994-3.217 2.645-6.609 5.343-10.285 7.285.658-.009 1.326-.035 2.016-.076 2.893-.166 5.762-1.295 8.483-2.19 11.288-3.715 17.925 1.393 24.159 10.25 10.916 15.504 14.785 34.663 26.105 50.158 10.713 14.664 25.098 25.802 41.827 32.662 2.467 1.01 5.23 1.99 8.05 2.724-27.541-18.152-49.652-44.541-62.8-74.819z"/>
                <path  d="m351.795 177.439c11.765-9.285 29.621-27.27 17.382-39.071-4.536 15.854-23.483 33.931-33.429 43.318-28.76 27.146-48.531 58.998-63.971 95.28-13.242 31.113-22.256 65.938-24.971 101.104 4.914 5.12 9.377 10.896 13.639 15.728 4.81-68.216 28.133-136.199 69.078-191.114 6.842-8.916 14.202-17.42 22.272-25.245z" />
            </g>
            <path d="m809.933 472.5c-12.462 13.375-27.724 24.649-42.549 34.368-21.581 14.148-45.347 24.057-70.507 28.657-3.145 2.631-6.321 5.226-9.627 7.654 46.614-8.134 97.604-28.747 122.683-70.679z"
                  fill="#fff7cf"/>
            <path d="m725.742 247.504c-1.863.236-3.624.727-5.291 1.401 10.376 8.362 18.273 20.026 25.775 30.829 10.836 15.608 21.238 31.095 29.648 48.193 12.723 25.864 22.01 55.371 27.164 84.943-1.444-20.104-4.525-41.553-6.15-45-11.315-46.396-37.815-86.694-71.146-120.366z"
                  fill="#fff7cf"/>
            <path d="m374.691 258.089c-36.559 52.272-55.737 115.957-56.534 179.697 2.654-2.149 5.368-4.421 8.15-6.519-1.99-34.054 4.719-66.79 14.775-99.398 5.912-19.179 13.068-38.173 22.902-55.701 3.405-6.067 7.167-12.016 10.707-18.079z"
                  fill="#fff7cf"/>
            <path d="m286.997 172.782c-25.407 30.285-42.093 67.797-54.231 105.111-9.318 28.642-16.701 58.646-19.424 88.795 2.829-1.067 5.514-1.585 8.089-1.704 2.747-28.409 9.267-56.599 17.546-83.644 14.773-48.256 38.383-91.327 69.464-130.054-7.947 6.832-15.161 14.534-21.444 21.496z"
                  fill="#fff7cf"/>
            <path d="m837.205 174.864c-19.44-17.313-50.144-37.351-76.669-28.297 57.604 7.375 100.68 60.41 124.644 110.311 13.227 27.541 23.66 56.504 32.133 85.836 1.55 5.363 3.043 10.805 4.46 16.282-10.533-67.526-34.324-136.562-84.568-184.132z"
                  fill="#fff7cf"/>
            <path d="m317.588 450.712c-1.617.636-3.289 1.097-5.03 1.319 2.734 10.715 7.181 20.852 13.288 30.142 10.613 16.141 25.49 29.875 42.528 40.367-2.425-2.386-4.808-4.798-7.146-7.204-17.144-17.654-37.669-39.889-43.64-64.624z"
                  fill="#fff7cf"/>
            <path d="m599.143 543.217c-18.245-1.311-36.65-1.433-54.844-1.526-15.789-.084-32.006-2.608-47.703-.131-12.442 1.966-23.409 6.755-28.149 19.141-4.253 11.108-.792 24.088 7.368 32.291 18.534 18.624 55.148 15.489 78.545 12.121 12.295-1.771 25.936-3.962 33.961-14.459 6.941-9.084 10.782-21.605 17.33-31.373 3.699-5.52 10.29-14.856-6.508-16.064z"
                  fill="#fff7cf"/>
            <path d="m942.932 458.16c3.828-19.098 3.859-51.209-13.64-63.761-2.149-1.448-4.228-2.479-6.267-3.302 3.938 7.212 6.738 15.068 7.926 24.133 2.773 21.158-3.49 43.451-11.953 62.657-16.634 37.737-52.574 66.72-87.579 86.679-33.62 19.17-71.245 30.753-108.941 38.713-18.592 3.927-38.888 6.784-57.289.585-13.917-4.689-18.81-14.335-19.988-25.489-5.298 10.394-6.573 22.312-.485 33.42 6.063 10.431 19.298 7.982 29.385 8.203 102.266-6.136 242.143-49.689 268.831-161.838z"
                  fill="#ee9e2b"/>
            <path d="m367.983 598.456c23.508 7.304 47.572 12.29 72.104 9.405-1.869-10.574-2.592-19.029-2.703-25.865-2.305.98-4.627 1.937-7.054 2.726-17.954 5.847-38.313 4.39-56.632 1.269-36.609-6.236-71.293-24.445-99.381-48.378-28.354-24.157-50.027-58.611-59.499-94.593-4.032-15.313-4.642-30.802-2.12-46.34.926-5.719 2.441-13.124 5.309-19.546-8.012 2.194-14.383 10.043-17.449 17.355-9.056 21.587-5.025 49.223 1.828 70.828 23.067 73.471 95.917 113.088 165.597 133.139z"
                  fill="#ee9e2b"/>
            <path d="m726.166 802.614c-.063 19.399-17.041 31.417-33.328 38.167-57.451 26.719-245.387 34.625-284.656-20.688-.729-1.586-1.313-3.221-1.834-4.873.227 16.03 18.539 27.726 35.91 34.603 32.807 12.988 68.061 16.494 102.998 16.876 29.236.321 58.713-.946 87.682-5.046 25.658-3.629 54.254-8.145 77.04-21.268 13.02-7.502 26.943-24.925 16.399-39.583-.072.605-.137 1.217-.211 1.812z"
                  fill="#ee9e2b"/>
            <path d="m285.709 367.252c3.035-29.162 11.497-57.819 22.551-84.885 10.621-26.003 24.617-51.263 43.049-72.562 8.446-9.755 18.923-19.395 30.924-25.096-5.65-2.253-11.844-3.579-16.593-4.459-.366.335-.733.677-1.1 1.01-60.019 57.436-89.796 142.983-93.093 224.84 5.066 5.526 10.279 10.924 15.582 16.229-1.141-6.389-1.619-12.937-2.059-17.641-1.161-12.445-.554-25.029.739-37.436z"
                  fill="#ee9e2b"/>
            <path d="m856.647 418.313c-.664-.865-1.086-1.983-1.113-3.357-1.975-83.146-32.162-171.33-100.05-223.292-4.204.682-8.005 1.522-11.518 2.474 12.427 9.48 23.067 21.972 32.662 33.534 14.839 17.882 28.311 37.268 39.542 57.622 12.424 22.514 20.918 47.67 26.501 72.699 5.159 23.125 7.335 49.189.369 72.366 4.568-3.98 9.159-7.933 13.607-12.046z"
                  fill="#ee9e2b"/>
            <path d="m629.478 735.468c-2.964-18.524-9.849-36.379-12.771-54.903-1.808-11.93-.406-24.003 1.145-35.916-30.31 2.707-60.835 3.247-91.241 1.678 9.734 3.663 20.413 5.574 29.726 7.043 28.054 4.423 44.658 26.799 43.725 55.02-.765 23.152-23.397 40.354-42.376 49.3-7.027 3.314-14.466 5.685-22.015 7.014 40.194 7.307 93.969-2.144 93.807-29.236z"
                  fill="#ee9e2b"/>
            <path d="m576.985 691.463c-6.363-12.792-23.799-20.757-39.871-22.749-8.711-1.08-15.844 6.296-17.639 15.614-1.927 10.007-6.377 19.415-8.891 29.826-1.912 7.911-1.914 16.119 4.174 22.096 12.001 11.783 36.799 2.339 47.438-6.38 10.431-8.549 21.798-24.321 14.789-38.407z"
                  fill="#fbe134"/>
            <path d="m298.344 469.702c7.598 12.966 14.172 26.159 23.094 38.331 15.12 20.622 34.908 37.964 59.158 46.619 12.239 4.367 24.553 5.179 37.42 5.19 8.059.004 14.832 1.214 20.872 3.469 2.878-14.836 5.636-8.542-33.952-17.346-44.813-13.19-88.943-47.168-99.641-94.519-10.461-2.847-18.955-13.517-26.233-20.752-9.546-9.492-18.737-19.337-27.558-29.508-2.313-2.669-4.785-6.089-7.465-9.525 7.105 15.807 13.406 31.808 26.295 44.72 10.574 10.589 20.352 20.256 28.01 33.321z"
                  fill="#fbe134"/>
            <path d="m795.172 310.314c-9.26-20.784-22.795-37.892-37.543-54.983-11.313-13.11-32.303-35.393-29.772-54.402-13.38 9.132-11.473 23.377 9.568 42.065 21.36 22.273 40.208 47.216 53.688 75.063 14.363 29.759 21.774 61.73 23.371 94.271 3.229-34.736-5.846-71.787-19.312-102.014z"
                  fill="#fbe134"/>
            <path d="m721.237 866.528c-4.865 1.122-9.691 2.146-14.409 3.081-44.789 8.891-91.104 10.42-136.638 9.346-38.188-.9-76.747-3.789-114.324-10.868-14.693-2.769-29.154-6.879-43.186-12.028-10.828-3.976-21.699-9.08-30.15-17.09-14.414-13.667-2.59-30.339 10.268-39.644 3.227-2.334 6.717-4.322 10.321-6.094-.133-2.238-.257-4.469-.411-6.67-22.523 8.327-56.775 33.829-31 57.341 33.367 27.784 80.092 31.922 121.646 37.361 34.511 4.285 159.38 8.982 227.883-14.735z"
                  fill="#fbe134"/>
            <path d="m397.117 203.687c.555-4.383-.658-7.926-2.902-10.838-3.179 7.51-8.661 14.742-12.823 21.155-8.304 12.795-16.798 25.461-24.999 38.321-14.976 23.48-28.119 47.577-36.914 74.064-8.387 25.264-12.469 52.25-10.919 78.734 1.471-13.957 3.743-27.829 6.944-41.508 9.604-41.076 27.229-80.336 51.609-114.765 9.188-15.384 26.174-27.138 30.004-45.163z"
                  fill="#fbe134"/>
            <path d="m780.107 530.771c20.893-10.285 40.067-25.471 51.744-45.846 5.277-9.211 8.876-19.422 12.894-29.215 3.313-8.068 7.195-15.16 11.816-21.85-4.994 4.447-10.016 8.866-15.155 13.143-5.563 4.631-11.478 10.142-18.03 13.798-3.906 9.827-9.127 19.011-15.68 27.362-31.142 39.693-83.574 57.287-131.851 63.666-6.348 2.063-12.581 5.786-18.024 10.558 2.338-.58 4.682-1.084 6.973-1.507 13.42-2.482 27.099-3.363 40.539-5.977 25.589-4.973 51.345-12.599 74.774-24.132z"
                  fill="#fbe134"/>
            <path d="m703.996 805.954c-61.777 24.865-132.64 21.623-198.023 17.107-23.924-2.338-48.617-5.567-71.09-14.535-.219-.054-.423-.135-.641-.193 12.676 7.349 28.219 11.481 40.521 14.473 27.069 6.579 54.638 10.104 82.454 10.951 27.805.845 55.735-.785 83.314-4.327 18.712-2.403 38.819-5.266 56.24-12.921 5.918-2.599 12.105-6.377 17.498-11.054.262-1.723.479-3.521.688-5.482.041-3.32-7.55 5.437-10.961 5.981z"
                  fill="#c98450"/>
            <path d="m948.496 364.961c-7.824-14.554-9.854-32.902-13.85-48.775-7.102-28.208-16.998-55.644-31.039-81.159-13.773-25.03-32.461-48.668-53.898-67.543-8.9-7.837-24.377-21.599-38.523-24.425 15.3 7.627 29.201 18.277 41.141 30.343 30.216 30.535 49.815 70.491 63.316 110.842 10.107 30.204 17.301 61.872 20.328 93.686 8.893.563 17.465 1.318 26.046 2.434-5.296-3.797-9.859-8.591-13.521-15.403z"
                  fill="#c98450"/>
            <path d="m427.215 147.625c-12.941 6.52-29.156 9.53-43.293 6.706-.977 5.093-3.223 9.984-6.735 13.896 16.698-2.709 43.579-2.497 50.028-20.602z"
                  fill="#c98450"/>
            <path d="m950.688 404.695c12.359 26.771 4.594 62.021-7.018 87.602-28.34 61.074-91.158 96.319-152.738 116.531-12.824 4.286-25.873 8.243-39.077 11.63 38.735-5.347 81.122-14.396 120.155-29.993 36.668-22.95 68.053-54.926 83.072-96.083 9.305-25.494 13.588-65.941-4.394-89.687z"
                  fill="#c98450"/>
            <path d="m788.151 964.62c-1.568-4.878-3.723-9.606-6.547-14.07-3.809 19.57-15.293 34.708-31.285 46.082-82.009 57.48-307.066 57.305-382.549-10.782-4.877-4.243-9.064-9.213-12.246-14.738 12.241 35.356 61.908 56.023 94.879 65.022 32.23 8.797 65.792 11.219 99.047 12.098 33.121.877 66.352-.123 99.166-4.913 28.174-4.108 57.014-11.274 82.866-23.356 22.315-10.428 46.788-29.087 55.821-52.866.312-.823.57-1.65.848-2.477z"
                  fill="#c98450"/>
            <path d="m368.362 427.416c3.563-.591 7.146-1.162 10.725-1.725-7.494-35.304-.084-75.251 15.654-106.188 11.195-22.008 40.433-46.721 24.026-70.354 2.552 8.545 2.731 17.865.181 26.291-2.357 7.387-6.956 12.467-11.959 18.174-33.52 35.841-39.131 86.708-38.627 133.802z"
                  fill="#c98450"/>
            <path d="m452.337 192.687c-9.399 12.838-28.634 18.578-45.45 20.233-1.006 3.024-2.455 5.938-4.357 8.607 13.898-1.225 58.193-9.605 49.807-28.84z"
                  fill="#c98450"/>
            <path d="m425.043 135.364c-7.52-8.036-23.425-9.489-33.357-9.883-6.436-.153-12.828.302-19.172 1.16 3.195 1.723 5.703 4.146 7.611 6.971 5.361-1.288 10.859-2.275 16.748-2.491 9.596-.351 19.26.98 28.17 4.243z"
                  fill="#f9c6a0"/>
            <path d="m442.031 181.931c-7.666-4.936-16.76-7.663-25.637-9.464-7.156 2.662-14.813 4.278-22.566 5.403 2.193 1.074 4.115 2.41 5.816 3.922 13.241-3.683 29.208-4.203 42.387.139z"
                  fill="#f9c6a0"/>
            <path d="m442.713 291.958c18.763-10.544 23.139-32.088 15.297-51.472-2.973-6.803-7.038-13.901-13.743-17.599-2.534 1.282-5.167 2.391-7.864 3.371 6.432 6.233 11.658 12.336 14.352 21.92 4.416 15.705-2.971 26.244-11.736 38.115-7.879 10.672-19.094 25.475-23.844 40.19 7.171-12.888 16.225-24.662 27.538-34.525z"
                  fill="#f9c6a0"/>
            <path d="m416.104 807.299c.39 1.709.859 3.629 1.516 6.026 27.095 40.957 181.168 46.633 256.801 22.041-35.534 6.468-71.324 11.108-107.918 10.965-48.86-.191-110.478-6.489-150.399-39.032z"
                  fill="#f9c6a0"/>
            <path d="m735.255 1048.05c-11.567 4.086-23.401 7.438-35.312 10.245-47.734 11.243-98.174 13.146-147.023 11.492-49.068-1.661-99.43-8.687-144.576-28.853-17.764-7.933-35.176-18.419-47.867-33.384-11.268-13.282-12.852-28.281-7.918-42.578-1.587-3.861-2.742-7.915-3.28-12.158-17.425 21.243-11.583 51.827 8.776 68.895 51.171 55.214 272.5 73.207 377.2 26.341z"
                  fill="#f9c6a0"/>
            <path d="m862.039 145.728c-8.695-4.126-18.003-6.429-27.578-7.518 14.873 7.677 29.907 15.021 42.818 26.066 21.408 18.312 38.923 41.982 53.92 65.63 16.186 25.522 29.262 52.87 39.326 81.343.511 1.446.961 2.91 1.459 4.358-15.878-68.935-46.081-136.673-109.945-169.879z"
                  fill="#f9c6a0"/>
            <path d="m970.342 523.065c11.221-13.634 20.516-29.028 27.24-46.482 7.424-22.846 11.558-50.464-1.121-72.161-2.639-4.037-4.785-5.363-9.398-6.958-9.119-3.094-18.633-4.823-28.219-5.985 14.229 10.222 25.027 22.987 29.65 41.011 4.907 19.129.918 39.721-4.884 58.155-3.521 11.184-8.061 21.957-13.268 32.42z"
                  fill="#f9c6a0"/>
            <path d="m425.623 763.936c-9.273 6.222-13.684 13.73-6.396 22.215 44.009 36.642 189.151 31.447 245.155 20.285 17.59-4.115 45.875-8.433 50.094-29.165-.998-4.435-3.354-8.201-6.593-11.467.837 2.48 1.174 5.149.659 8.147-1.244 7.216-9.25 11.918-15.008 15.124-11.826 6.58-25.861 9.432-39.062 11.711-31.175 5.379-63.304 6.544-94.878 6.504-31.025-.041-62.547-2.411-92.829-9.373-11.573-2.662-23.071-6.386-33.206-12.678-5.424-3.368-10.965-8.92-9.815-16.397.248-1.601.959-3.267 1.879-4.906z"
                  fill="#ef6200"/>
            <path d="m644.699 1020.839c48.775-7.949 117.15-23.472 126.996-77.638-6.628 15.075-16.738 28.551-31.211 39.16-17.342 12.712-38.641 17.823-59.148 22.903-27.955 6.923-56.504 11.304-85.197 13.61-48.387 3.893-96.592.262-143.545-12.012-32.449-8.484-73.896-23.993-91.793-54.616 2.729 14.113 12.84 25.181 24.692 33.204 71.117 45.548 177.695 46.014 259.206 35.389z"
                  fill="#ef6200"/>
            <path d="m565.451 786.332c18.482-.105 36.439-3.582 53.309-11.148 19.753-8.86 37.1-19.784 56.703-24.823-12.973-3.306-26.314-5.1-35.186-6.739-13.386 44.182-122.41 45.899-151.865 10.031 12.541 26.306 50.231 32.832 77.039 32.679z"
                  fill="#facb1a"/>
            <path d="m772.862 926.203c.949-25.405-2.26-50.683-4.055-76.009-15.135 18.176-38.468 26.262-60.721 31.877-77.131 18.165-245.057 26.287-325.221-17.259 5.378 3.38 11.225 6.187 17.201 8.851 19.826 8.84 39.536 15.903 60.845 20.378 39.208 8.229 79.497 9.403 119.406 8.021 46.538-1.609 92.762-7.382 138.825-13.883 9.361-1.322 18.904-2.523 28.309-.953 12.35 2.063 17.713 12.752 21.135 23.595 2.852 9.035 3.785 18.01 3.891 26.991.388-3.703.537-7.561.385-11.609z"
                  fill="#facb1a"/>
            <path d="m496.771 325.796c34.263-6.361 69.956-6.867 104.136-2.871 7.996.935 15.98 2.141 23.91 3.651-1.981-10.913-4.59-22.147-8.748-32.635.299 6.683-1.481 12.822-8.32 16.883-11.152 6.625-28.928 2.463-41.057 1.945-16.076-.688-31.531 1.916-47.497-1.721-9.525-2.17-10.371-9.586-8.503-17.073-5.848 10.01-10.375 20.889-13.921 31.821z"
                  fill="#a9cddd"/>
            <path d="m616.46 981.386c-44.364 12.129-92.128 10.73-137.402 3.274-24.085-3.965-59.729-8.883-74.815-29.807-11.596-16.08-11.164-43.698 3.135-56.983-40.586-10.692-31.984 60.935-6.895 73.36 51.152 27.069 113.929 29.161 170.773 29.249 21.313 1.613 36.592-4.198 45.204-19.093z"
                  fill="#a9cddd"/>
            <path d="m662.425 354.671c4.448-3.112 10.503-3.948 16.796-3.461-14.545-7.18-30.332-12.113-45.961-15.882 3.846 28.664 2.598 58.378-.889 86.585-1.14 9.229-2.596 18.43-4.369 27.563 21.602 3.679 43.456 8.293 63.51 17.333-3.523-4.887-8.797-9.62-11.072-11.315-9.527-7.092-22.789-11.808-29.775-21.646-6.555-9.229-1.673-27.389-.908-37.858 1.016-13.959-.196-32.313 12.668-41.319z"
                  fill="#a9cddd"/>
            <path d="m560.61 504.545c-15.074.555-29.41-3.193-42.112-11.284-8.367-5.329-14.212-13.539-19.624-21.98 5.518 16.035 12.738 31.468 21.558 45.917 25.55-.499 51.081-.144 76.605 1.219 6.941-11.392 11.886-23.961 15.837-36.729-14.089 13.262-30.222 22.045-52.264 22.857z"
                  fill="#a9cddd"/>
            <path d="m466.499 367.968c1.483 14.128 2.968 28.373 3.991 42.542 1.388 19.199-9.163 33.629-20.988 47.373 11.609-3.958 23.664-6.724 35.641-8.847-7.333-32.03-8.138-65.513-1.968-97.816 1.025-5.37 2.255-10.818 3.67-16.268-11.255 2.575-22.55 5.769-33.467 9.87 10.273 2.094 12.204 14.41 13.121 23.146z"
                  fill="#a9cddd"/>
            <path d="m579.787 931.114c-18.928.54-37.818.738-56.771-.856-23.325-1.961-46.747-5.572-69.88-9.137-8.842-1.362-24.316-3.498-28.729 7.191-5.768 13.976 5.035 24.526 16.414 30.884 14.479 8.086 31.971 10.638 48.18 12.676 22.927 2.882 46.176 4.692 69.27 5.354 11.942.34 39.23 3.071 46.255-10.321 3.827-7.299 3.938-15.842 1.331-23.48-4.056-11.905-14.626-12.639-26.07-12.311z"
                  fill="#e9fffb"/>
            <path d="m456.803 381.482c-1.645-12.869-10.492-20.152-22.001-13.923-5.343 2.892-10.19 6.395-13.396 11.931-6.746 11.659-3.877 29.672-3.387 42.365.219 5.657-.541 20.33 5.996 23.424 8.274 3.918 17.432-3.791 23.5-8.783 15.062-12.388 11.485-37.762 9.288-55.014z"
                  fill="#e9fffb"/>
            <path d="m580.763 272.443c-7.542-.925-15.147-1.248-22.8-1.316-7.629-.069-17.27.725-23.089 6.362-12.439 12.046-8.421 20.829 7.978 23.32 12.501 1.898 25.064 3.074 37.715 3.083 5.222.005 16.202.634 20.084-4.437 2.111-2.762 2.381-8.392 1.152-13.613-2.647-11.255-4.48-11.362-21.04-13.399z"
                  fill="#e9fffb"/>
            <path d="m582.368 460.456c-7.88-.589-42.253-.459-51.24 1.153-13.853 2.482-17.634 11.32-4.16 18.655 15.675 8.535 41.524 13.734 58.081 5.127 14.678-7.632 18.137-23.387-2.681-24.935z"
                  fill="#e9fffb"/>
            <path d="m682.565 373.715c-8.645 4.39-10.719 14.05-12.566 24.016-2.793 15.048.967 49.098 20.34 46.75 10.877-1.317 11.232-26.482 11.814-35.315.139-2.106.84-10.171.611-17.78-.49-16.211-12.237-21.716-20.199-17.671z"
                  fill="#e9fffb"/>
            <path d="m677.195 333.368c-6.681-4.842-13.81-8.875-20.813-13.218-9.651-5.985-15.028-14.969-21.004-24.268-5.52-8.588-12.668-17.195-21.842-21.877 5.793 8.949 9.963 19.058 12.956 29.125 2.429 8.16 4.276 16.507 5.681 24.96 22.668 5.05 45.355 12.608 64.918 25.317-5.451-7.697-12.194-14.456-19.896-20.039z"
                  fill="#00afb3"/>
            <path d="m510.258 281.799c-8.98 5.324-17.44 11.67-25.45 18.799-10.837 9.64-20.175 20.753-32.325 28.854-7.611 5.077-20.399 9.933-30.805 8.417-3.174 6.323-5.859 12.961-7.857 19.975 22.16-16.046 48.646-24.675 75.139-30.485 4.806-16.165 11.655-31.978 21.298-45.56z"
                  fill="#00afb3"/>
            <path d="m468.932 459.473c6.879 5.091 11.348 12.923 15.557 21.114 8.183 15.921.83 28.277-9.265 39.313 61.353-5.734 28.677 8.59 11.576-64.123-5.964 1.047-11.94 2.267-17.868 3.696z"
                  fill="#00afb3"/>
            <path d="m653.651 525.428c4.506-3.036 8.793-6.353 12.912-9.885-10.627 1.286-21.272.396-30.656-4.788-19.396-10.712-8.254-37.631 5.588-51.789-4.969-.989-9.945-1.915-14.904-2.785-4.727 21.634-10.893 43.315-21.789 62.746 7.625.521 15.246 1.136 22.835 2.004 8.699 1.074 17.595 1.958 26.014 4.497z"
                  fill="#00afb3"/>
            <path d="m600.67 445.92c6.857.684 13.705 1.563 20.537 2.545 2.992-14.827 5.055-29.898 6.211-45.018-3.542 5.433-7.611 10.55-12.664 15.129-18.234 16.522-44.219 18.309-67.445 16.631-24.361-1.759-48.393-8.752-56.162-34.333-2.696-8.877-3.859-18.659-4.121-28.594-2.473 25.217-.723 50.852 5.059 75.598 35.786-5.628 72.748-5.522 108.585-1.958z"
                  fill="#00afb3"/>
            <path d="m590.313 338.857c-12.446-1.149-25.133-.126-37.688-.722-12.748-.605-26.17-2.024-38.14 3.359-11.647 5.237-12.345 20.915-12.111 31.807.304 14.059 5.636 27.295 17.345 35.379 21.807 15.055 64.131 14.533 81.074-7.39 9.459-12.237 9.904-28.911 10.324-43.638.309-10.608-3.255-17.169-20.804-18.795z"
                  fill="#88f9f9"/>
            <path d="m696.512 476.962c-14.082-7.544-29.357-12.279-44.91-15.839 11.876 8.338 27.65 12.928 28.258 30.206.178 5.077-1.051 9.815-3.055 14.333 7.916-8.679 14.482-18.339 19.707-28.7z"
                  fill="#88f9f9"/>
            <path d="m473.144 286.885c14.319-7.261 28.479-11.157 43.128-12.855 2.006-2.343 4.094-4.612 6.312-6.76-25.633 4.284-50.109 15.235-69.74 31.648 6.747-4.614 13.682-8.675 20.3-12.033z"
                  fill="#88f9f9"/>
            <path d="m662.977 291.599c-8.752-6.73-18.717-11.74-29.092-15.613 17.322 11.143 32.908 26.825 45.545 41.583 10.332 12.073 18.72 25.475 25.752 39.588-7.393-25.158-21.274-49.372-42.205-65.558z"
                  fill="#88f9f9"/>
            <path d="m453.842 509.629c-1.309-1.925-2.578-3.884-3.76-5.914-5.064-8.685-9.564-20.373-5.299-30.177 1.643-3.776 4.628-6.834 8.055-9.479-9.391 3.133-18.49 7.047-26.975 12.194 7.32 12.657 16.782 23.91 27.979 33.376z"
                  fill="none"/>
        </g>
    </g>
</svg>