<svg id="Travel" height="512" viewBox="-70.866 -70.866 850.394 850.394" width="512" xmlns="http://www.w3.org/2000/svg"><g><path d="m51.524 541.99c9.465 5.473 19.168 10.461 29.063 14.949-9.535 27.039-6.004 49.82 10.609 67.938 19.199 21.184 49.254 24.012 74.605 11.027 4.266 7.309 8.805 14.477 13.625 21.461 42.734 73.539 149.476 72.961 169.789-19.859 7.086-37.574-10.645-67.586-12.004-101.316 23.633-18.266 46.941-36.055 70.711-54.469 16.461 17.758 32.664 36.32 48.398 55.465 27.816 35.41 62.383 86.578 107.859 91.664 48.953 8.926 102.684-34.617 98.676-85.277-.965-17.48-5.789-33.684-10.629-48.289 12.355-9.277 23.055-18.715 32.797-28.922 7.586-7.824 19.043-19.648 23.926-36.793 10.344-38.035-15.172-77.461-43.539-103.023-16.723-13.793-39.172-26.27-64.109-30.867 27.375-43.309 46.477-95.461 41.441-144.652-15.055-144.064-172.363-143.318-266.617-61.982-20.078-53.496-77.395-100.637-136.129-88.52-35.238 13.387-43.723 34.473-62.945 61.055-18.145-3.324-36.031-7.121-53.855-7.496-44.887-1.473-80.84 39.777-82.93 80.914-3.27 57.566 48.238 88.461 79.016 106.922 31.746 19.262 62.66 40.742 89.926 60.965-2.176 3.551-39.906 65.121-39.906 65.121-2.566 4.172-4.59 7.285-6.051 9.309-10.441.223-20.883-1.152-32.723-2.617-19.145-2.242-40.203-5.59-59.75-1.801-89.344 19.249-98.789 127.531-19.254 169.093z" fill="#fff"/><g><path d="m70.68 508.861c17.938 10.367 37.305 19.008 57.133 25.336-.18 2.566-.332 6.961.691 12.309-1.234 2.012-2.578 3.941-3.75 5.992-7.59 13.27-17.859 32.879-5.348 46.523 11.621 12.684 28.57 4.301 40.125-3.836 4.363-3.063 8.602-6.301 12.813-9.578 3.395.488 7.602-.34 10.488-.699 7.668 17.801 17.121 34.801 28.109 50.75 9.832 14.281 21.059 27.543 37.824 33.816 18.516 6.93 40.398 1.023 52.082-14.855 5.266-7.168 9.102-15.875 10.84-24.602 2.09-10.473.168-21.047-1.719-31.43-3.895-21.484-10.844-42.543-11.887-64.242-.711-14.813 3.621-19.059 15.723-28.426 32.605-25.215 65.469-50.164 97.875-75.668 25.98 26.406 50.68 54.016 74.203 82.637 13.309 16.195 25.578 33.414 39.359 49.188 11.676 13.363 27.063 26.078 45.07 29.004 26.109 4.238 55.852-17.719 54.328-45.41-.996-18.148-8.41-36.805-13.949-53.973-1.258-3.91-2.668-7.766-3.992-11.656 17.844-11.113 35.113-24 49.715-39.141 5.926-6.145 13.328-13.391 15.734-21.832 1.996-7.004.758-14.695-1.793-21.379-6.148-16.125-17.16-31.016-30.105-42.313-7.242-6.32-16.332-11.246-25.043-15.273-7.883-3.645-16.188-6.801-24.969-7.121-9.57-.355-16.629 3.898-23.223 10.457-4.734 4.707-9.078 9.836-13.152 15.168-6.512-12.434-13.207-24.773-20.148-36.988 27.883-31.477 51.086-66.66 63.809-107.137 5.996-19.09 9.156-39.645 7.145-59.637-1.738-17.344-6.234-39.156-18.469-52.328-12.07-12.996-24.699-22.477-41.996-27.047-18.953-5.012-38.793-4.766-57.879-.656-38.672 8.336-73.082 31.801-102.375 57.508-9.973 8.746-19.441 18.078-28.543 27.754-10.605-4.621-21.297-9.086-32.055-13.441 4.309-4.293 8.402-8.797 12.141-13.637 4.672-6.039 7.527-12.211 6.953-20.039-.637-8.676-4.27-16.883-8.59-24.328-4.824-8.336-10.77-17.184-17.586-23.996-11.844-11.836-27.738-21.055-43.683-26.012-7.008-2.176-14.957-3.324-22.133-1.285-7.813 2.219-13.582 8.617-18.809 14.477-14.117 15.824-25.488 34.234-34.922 53.266-20.75-4.977-41.699-9.086-62.887-11.945-12.75-1.715-25.301-1.184-35.512 7.359-11.156 9.34-19.008 21.836-19.852 36.676-2.273 40.031 45.121 61.785 73.074 79.629 37.344 23.836 73.656 49.215 108.313 76.828-11.535 18.566-22.895 37.25-34.313 55.863-7.875 12.848-15.762 25.688-23.629 38.527-9.98 16.27-17.238 26.105-31.477 27.234-19.297 1.516-38.879-2.133-58.043-4.18-11.227-1.195-23.281-2.695-34.48-.582-8.82 1.676-17.395 6.066-24.516 11.43-15.676 11.82-22.301 31.727-15.926 50.691 5.456 16.25 18.776 27.903 33.206 36.25z" fill="#68182b"/><path d="m163.024 566.342c-4.348 3.527-9.254 7.578-14.434 11.113-16.18 11.039-20.41 13.637-9.164-7.91 4.918-9.426 10.652-18.41 16.742-27.121 13.344-19.063 28.133-37.922 45.305-53.707 8.016-7.363 13.734-10.93 18.848-12.797 10.383-3.77 14.91-.32 13.004 9.66-1.047 5.488-4.203 10.703-10.203 19.383-2.742 3.988-5.773 7.742-8.898 11.426-8.055 9.484-16.73 18.457-25.668 27.113-8.208 7.934-16.657 15.652-25.532 22.84z" fill="#00ebed"/><path d="m290.359 628.541c-2.039 7.16-6.097 16.355-13.105 19.914-16.777 8.523-33.355-3.535-43.203-16.594-11.84-15.691-22.246-33.227-30.277-51.328 13.566-3.969 26.547-10.105 37.504-18.523 8.449-6.492 16.867-13.02 25.289-19.543 8.695-6.746 10.16-5.164 11.457 4.875 2.145 16.578 6.68 32.953 10.113 49.293 2.164 10.293 5.179 21.531 2.222 31.906z" fill="#e5e5e5"/><path d="m582.203 358.119c4.332-4.332 5.551-4.582 11.082-3.742 10.719 1.641 23.609 9.465 31.184 15.141 10.277 7.703 18.262 19.234 24.016 30.539 3.512 6.906 4.477 12.262 1.297 16.492-.961 1.277-2.016 2.492-3.063 3.711-15.223-26.578-40.078-45.973-67.66-58.902.984-1.036 2.089-2.176 3.144-3.239z" fill="#00ebed"/><path d="m580.957 376.271c18.813 9.836 35.766 23.25 48.234 40.289 8.66 11.832 8.613 13.719-3.008 23.5-8.445 7.113-17.434 13.594-26.723 19.551-2.52-6.762-5.051-13.52-7.758-20.207-8.215-20.27-17.313-40.133-27-59.695 6.083-8.84 10.376-6.516 16.255-3.438z" fill="#ff2e60"/><path d="m596.941 518.768c2.906 9.961 10.008 27.23 5.336 35.617-5.234 9.398-15.301 17.359-26.566 16.246-16.156-1.586-29.473-15.801-39.078-27.676-11.738-14.516-23.031-29.375-34.871-43.805-19.801-24.141-40.434-47.555-61.961-70.148-9.895-10.398-9.762-13.277 1.648-22.473 4.938-3.977 9.855-7.969 14.738-11.996 16.941-13.98 33.895-28.668 50.031-44.273 10.797-10.441 13.625-10.461 20.602 2.402 31.52 58.199 51.852 103.516 70.121 166.106z" fill="#e5e5e5"/><path d="m520.113 92.791c8.801.309 18.102 1.629 26.039 4.781 20.137 8.023 29.164 24.203 33.633 38.988 1.398 4.645 2.43 9.367 3.137 14.133 1.359 9.145.27 9.582-8.813 6.234-26.395-9.707-48.773-28.758-59.371-54.801-3.25-7.964-3.187-9.632 5.375-9.335z" fill="#00ebed"/><path d="m271.539 60.197c9.531 3.512 18.945 9.594 25.628 15.594 9.605 8.621 18.926 20.543 23.004 32.938 3.055 9.238.113 9.902-4.059 14.855-15.195-26.547-40.007-45.93-67.546-58.859 8.59-9.18 11.946-8.59 22.973-4.528z" fill="#00ebed"/><path d="m232.442 85.256c6.914-10.313 10.641-9.555 19.172-5.008 20.75 11.074 39.148 26.539 51.605 46.461 3.469 5.559 3.051 7.398-1.445 11.391-27.625-10.551-55.707-19.969-84.222-27.715 4.515-8.629 9.468-17.047 14.89-25.129z" fill="#ff2e60"/><path d="m258.711 266.1c-21.84-16.855-44.219-32.98-67.152-48.332-15.363-10.289-30.926-20.277-46.609-30.066-14.344-8.953-30.309-17.602-39.789-32.184-7.176-11.047-6.598-21.48-.484-30.695 6.516-9.852 16.617-12.391 29.383-10.473 21.723 3.27 43.305 7.789 64.66 13.129.117.039.25.055.375.094 11.121 2.785 22.203 5.719 33.164 8.969 31.594 9.344 62.496 20.785 92.898 33.438 17.688 7.363 14.699 7.199 5.035 19.41-2.746 3.469-5.438 6.98-8.047 10.547-13.633 18.637-26.57 37.742-39.125 57.113-10.617 16.393-11.508 18.917-24.309 9.05z" fill="#e5e5e5"/><path d="m56.653 453.389c1.043-7.375 5.148-12.027 11.313-16.023 15.418-10 33.461-6.527 50.828-4.469 13.223 1.57 26.395 3.27 39.551 3.535 14.168.281 11.754 3.164 5.477 12.898-11.344 17.574-22.668 35.496-29.648 54.891-1.066 2.957-2.012 5.973-2.836 9.016-14.02-4.691-27.598-10.637-40.695-17.488-5.754-3.004-11.438-6.168-16.855-9.746-.211-.141-.977-.688-1.469-1.031-.488-.414-1.52-1.25-1.484-1.219-.813-.738-1.637-1.449-2.434-2.195-2.945-2.762-5.727-5.676-7.855-9.117-3.624-5.834-4.85-12.255-3.893-19.052z" fill="#e5e5e5"/><path d="m413 171.182c9.82-.918 19.918-1.469 29.563.813 7.184 1.691 15.012 4.996 20.652 10.129 2.648 2.406 4.504 4.25 2.387 7.371-2.992 4.488-5.301 3.047-11.648-.199-11.391-5.809-23.652-9.742-36.313-11.496-1.906-.266-4.34-.301-6.516-.848-8.114-2.028-1.778-5.423 1.875-5.77z" fill="#ffc522"/><path d="m576.066 171.025c-33.652-10.414-62.703-34.695-74.598-68.031-2.961-8.293-4.215-9.34-14.773-6.656-10.277 2.613-20.277 6.492-29.695 11.117-64.496 31.656-109.352 89.945-147.473 147.613-31.054 46.973-59.859 95.445-89.3 143.438-15.105 24.629-30.215 49.254-45.324 73.887-7.289 11.887-14.414 23.66-19.445 36.18 6.426-8.129 13.012-16.125 20.07-23.707 7.793-8.371 16.277-17.172 26.41-22.707 7.723-4.219 15.734-8.688 24.594-9.738 8.691-1.02 19.32 1.961 24.238 9.77 7.184 11.418 2.152 28.227-2.156 39.863-5.148 12.918-14.555 23.82-23.699 34.109-6.836 7.695-14.086 15.023-21.5 22.184 1.652-.594 3.32-1.148 4.949-1.801 10.68-4.285 19.504-10.613 28.547-17.605 11.426-8.84 22.855-17.68 34.285-26.52 22.855-17.672 45.714-35.352 68.566-53.023 21.254-16.434 110.625-86.965 130.633-104.535 49.152-43.16 98.809-98.535 111.566-164.738.539-2.805.973-5.625 1.309-8.461.878-7.365-.493-8.564-7.204-10.639zm-114.969 34.266c-7.281-.254-13.426-5.336-19.934-8.07-7.375-3.102-15.191-5.293-23.078-6.641-6.773-1.156-13.109-1.25-18.668-5.836-5.172-4.262-7.652-12.223-3.941-18.25 3.223-5.238 9.605-7.09 15.348-7.766 16.59-1.625 33.379-1.586 48.621 6.035 9.109 4.551 24.539 14.738 19.113 26.941-3.222 7.251-8.836 13.884-17.461 13.587zm60.305 79.418c-7.965 2.348-15.598-2.465-19.09-9.559-1.605-3.25-2.184-6.641-3.074-10.121-1.008-3.93-2.242-7.809-3.684-11.602-2.828-7.445-6.68-14.535-11.172-21.102-4.07-5.953-7.047-12.551-3.477-19.676 2.906-5.789 10.5-12.004 17.277-11.457 5.07.402 9.578 3.773 13.098 7.227 5.082 4.988 9.453 11.012 12.492 17.453 6.129 13.008 7.277 27.332 7.43 41.527-.066 6.775-2.523 15.165-9.8 17.31z" fill="#e5e5e5"/><path d="m494.109 216.045c3.797-3.02 4.66-1.926 7.602.563 4.863 4.125 9.148 10.988 11.609 16.691 4.605 10.691 5.105 22.633 5.227 34.102-.074 6.797-3.25 7.16-5.551.426-.336-1-.594-2.078-.844-3.203-2.75-12.168-7.621-24-14.188-34.605-1.496-2.418-3.242-4.668-4.766-7.059-.703-1.109-1.5-2.395-1.289-3.824.177-1.212 1.142-2.247 2.2-3.091z" fill="#ffc522"/><path d="m179.496 546.33c-13.512 13.379-27.414 26.121-41.938 38.23 2.605-1.391 6.285-3.871 11.031-7.105 5.18-3.535 10.086-7.586 14.434-11.113 8.875-7.188 17.324-14.906 25.531-22.84 8.938-8.656 17.613-17.629 25.668-27.113 3.125-3.684 6.156-7.438 8.898-11.426 6-8.68 9.156-13.895 10.203-19.383 1.051-5.5.082-8.941-2.68-10.359-3.475 26.218-35.108 55.242-51.147 71.109z" fill="#19bfbb"/><path d="m581.074 359.279c-.684.707-1.383 1.41-2.016 2.078 24.785 11.621 47.309 28.516 62.684 51.105-2.191-4.488-4.238-8.074-4.898-9.145-11.965-19.522-33.661-36.444-55.77-44.038z" fill="#19bfbb"/><path d="m516.629 106.084c11.191 23.98 32.469 41.645 57.48 50.844 9.082 3.348 10.172 2.91 8.813-6.234-.707-4.766-1.738-9.488-3.137-14.133-.227-.73-.508-1.473-.754-2.207.527 17.422-18.902 11.047-27.527 6.352-14.766-8.048-25.364-21.067-34.875-34.622z" fill="#19bfbb"/><path d="m251.856 66.389c26.211 12.91 49.675 31.719 64.257 57.195 1.102-1.305 2.102-2.316 2.945-3.262-4.285-7.484-9.875-14.32-13.961-19.141-12.425-14.667-32.706-33.179-53.241-34.792z" fill="#19bfbb"/><path d="m562.383 117.088c-6.328-6.621-14.824-12.379-23.863-15.559-7.586-2.672-10.855.094-6.465 7.223 4.633 7.527 10.566 14.563 17.426 19.563 4.129 3.008 13.691 8.203 18.707 5.266 6.374-3.735-3.204-13.774-5.805-16.493z" fill="#6cfffb"/><path d="m201.664 494.01c-7.508 7.164-29.68 31.832-44.043 53.031-9.059 13.359-6.625 14.98 5.391 4.098 17.316-15.699 34.086-33.141 44.875-53.598 5.816-11.027 3.23-12.535-6.223-3.531z" fill="#6cfffb"/><path d="m631.976 381.936c9.594 11.199 13.844 22.512 17.207 35.34.191-.246.406-.477.598-.727 3.18-4.23 2.215-9.586-1.297-16.492-5.754-11.305-13.738-22.836-24.016-30.539-6.418-4.813-16.656-11.129-26.156-13.957 12.992 6.375 24.024 15.109 33.664 26.375z" fill="#6cfffb"/><path d="m255.707 58.744c27.578 5.949 48.996 23.227 63.273 46.863-4.516-11.254-13.02-21.926-21.813-29.816-6.684-6-16.097-12.082-25.628-15.594-7.449-2.742-11.41-3.812-15.832-1.453z" fill="#6cfffb"/><path d="m298.051 136.721c-6.023-4.598-12.753-8.414-17.824-11.398-18.668-10.992-45.168-18.23-48.027-39.68-5.328 7.969-10.203 16.246-14.648 24.742 27.237 7.402 54.065 16.355 80.499 26.336z" fill="#ea0f4d"/><path d="m569.336 389.455c7.922 16.43 15.504 33.02 22.367 49.949 2.707 6.688 5.238 13.445 7.758 20.207 9.289-5.957 18.277-12.438 26.723-19.551 2.27-1.91 3.969-3.465 5.379-4.902-4.055 1.422-8.285 2.496-12.82 2.918-16.254 1.52-23.211-14.977-30.449-25.602-5.658-8.304-11.595-16.355-18.958-23.019z" fill="#ea0f4d"/><path d="m278.375 103.232c8.121 5.555 14.812 11.594 21.085 17.961-12.266-17.266-29.07-30.922-47.847-40.945-7.102-3.785-10.891-4.84-15.941.816 15.274 5.485 28.953 12.758 42.703 22.168z" fill="#f69"/><path d="m633.355 422.771c-1.023-1.766-2.352-3.738-4.164-6.211-12.469-17.039-29.422-30.453-48.234-40.289-5.121-2.68-9.035-4.777-13.988.563 25.339 10.934 48.3 25.402 66.386 45.937z" fill="#f69"/><path d="m417.64 177.799c12.66 1.754 24.922 5.688 36.313 11.496 6.348 3.246 8.656 4.688 11.648.199.059-.094.047-.156.105-.246-16.309-8.406-35.504-11.363-54.289-12.25 2.102.481 4.403.547 6.223.801z" fill="#ffa222"/><path d="m497.965 230.018c6.566 10.605 11.438 22.438 14.188 34.605.25 1.125.508 2.203.844 3.203-.477-18.102-11.125-39.914-18.609-51.98-.098.074-.176.121-.277.199-1.059.844-2.023 1.879-2.199 3.09-.211 1.43.586 2.715 1.289 3.824 1.521 2.391 3.268 4.641 4.764 7.059z" fill="#ffa222"/><g fill="#c6c6c6"><path d="m294.035 481.783c-17.765 9.254-28.929 1.785-39.933-9.664 1.223 9.973-2.313 21.355-5.488 29.934-5.148 12.918-14.555 23.82-23.699 34.109-6.836 7.695-14.086 15.023-21.5 22.184 1.652-.594 3.32-1.148 4.949-1.801 10.68-4.285 19.504-10.613 28.547-17.605 11.426-8.84 22.855-17.68 34.285-26.52 22.855-17.672 45.714-35.352 68.566-53.023 21.254-16.434 110.625-86.965 130.633-104.535 43.32-38.035 86.996-85.578 105.492-141.645-9.563 20.496-22.094 39.633-35.527 57.734-29.254 39.422-66.137 72.855-103.398 104.496-37.734 32.043-77.344 61.898-117.863 90.309-8.154 5.715-16.224 11.41-25.064 16.027z"/><path d="m105.16 155.518c9.48 14.582 25.445 23.23 39.789 32.184 15.684 9.789 31.246 19.777 46.609 30.066 22.934 15.352 45.313 31.477 67.152 48.332 12.801 9.867 13.691 7.344 24.309-9.051 10.417-16.078 21.207-31.898 32.335-47.496-12.434 6.402-25.137 12.004-39.273 15.098-28.941 6.34-54.266-5.75-79.078-19.129-21.199-11.43-41.824-23.859-61.617-37.586-15.969-11.078-28.906-23.527-32.539-39.945-4.288 8.409-4.054 17.726 2.313 27.527z"/><path d="m234.051 631.861c9.848 13.059 26.426 25.117 43.203 16.594.535-.27 1.023-.633 1.527-.969-5.68.133-11.508-.902-17.57-3.645-15.801-7.141-19.211-30.773-19.77-45.734-.805-21.379 15.754-35.703 22.617-53.703-7.59 5.879-15.168 11.758-22.781 17.605-10.957 8.418-23.938 14.555-37.504 18.523 8.032 18.103 18.438 35.638 30.278 51.329z"/><path d="m513.609 479.475c-14.949-21.066-31.094-44.52-32.234-71.184-.809-19.012 10.145-35.973 19.188-52.82-14.449 13.629-29.371 26.684-44.375 39.063-4.883 4.027-9.801 8.02-14.738 11.996-11.41 9.195-11.543 12.074-1.648 22.473 21.527 22.594 42.16 46.008 61.961 70.148 11.84 14.43 23.133 29.289 34.871 43.805 9.605 11.875 22.922 26.09 39.078 27.676 10.961 1.082 20.742-6.438 26.09-15.496-40.826 2.128-65.783-44.087-88.193-75.661z"/><path d="m56.66 461.248c.488 3.91 1.691 7.668 3.883 11.191 2.129 3.441 4.91 6.355 7.855 9.117.797.746 1.621 1.457 2.434 2.195-.035-.031.996.805 1.484 1.219.492.344 1.258.891 1.469 1.031 5.418 3.578 11.102 6.742 16.855 9.746 13.098 6.852 26.676 12.797 40.695 17.488.824-3.043 1.77-6.059 2.836-9.016 6.855-19.043 17.898-36.664 29.035-53.93-12.773 9.355-23.723 21.227-36.801 30.563-25.295 18.06-55.112 3.904-69.745-19.604z"/></g><path d="m297.051 172.264c-27.246-9.531-54.82-18.242-82.437-26.59-20.43-6.176-42.051-14.25-63.574-17.461-20.645-3.086-28.699-1.016-7.93 13.77 9.297 6.617 24.047 10.086 32.566 13.488 22.859 9.125 45.988 17.18 69.805 23.445 16.52 4.348 33.73 2.637 50.64.57 10.414-1.273 11.875-3.394.93-7.222z" fill="#f4f4f4"/><path d="m577.679 488.385c-5.211-15.535-11.719-30.676-18.414-45.621-6.699-14.93-13.91-33.789-23.543-49.617-9.449-15.547-18.047-22.938-18.402-1.094-.488 31.676 14.422 59.34 29.301 87.914 1.055 2.031 30.91 56.105 36.648 41.914 4.121-10.192-2.34-23.805-5.59-33.496z" fill="#f4f4f4"/><path d="m419.203 215.029c-3.738-3.973-39.691-10.656-61.035 18.109-21.461 28.938-57.809 78.621-100.921 150.648-18.457 30.836-16.582 50.547 19.75 16.137 43.972-41.648 119.714-125.805 134.804-144.609 9.445-11.769 19.714-27.195 7.402-40.285z" fill="#f4f4f4"/><path d="m265.856 578.193c-6.176 8.234-10.598 18.41-11 28.086-.469 11.16 7.105 24.82 18.25 27.418 15.609 3.637 8.625-34.285 3.996-53.516-3.235-13.452-4.238-11.343-11.246-1.988z" fill="#f4f4f4"/><path d="m128.723 443.818c-22.613-3.742-65.578-8.84-56.922 15.539 3.742 10.531 20.531 11.285 29.18 10.934 9.711-.402 20.352-7.625 29.328-14.93 8.703-7.066 11.847-9.328-1.586-11.543z" fill="#f4f4f4"/></g></g></svg>