<svg id="Travel" height="512" viewBox="-70.866 -70.866 850.394 850.394" width="512" xmlns="http://www.w3.org/2000/svg"><g><path d="m740.953 213.551c-4.898-23.449-16.836-45.816-33.625-61.863-16.355-15.629-37.473-24.305-64.285-26.359-.512-7.207-1.145-14.797-1.996-22.461-13.063-91.72-109.801-91.63-171.098-98.888-21.75-36.305-67.973-51.207-108.465-48.703-24.734.242-48.859-.719-74.652 3.656-30.91 5.191-55.273 25.09-68.715 47.496-74.676 6.348-151.195 22.134-153.746 111.962-.297 5.074-.813 9.938-1.086 15.121-51.629 3.398-85.453 40.59-95.762 88.09-33.262 29.64-22.894 79.398-23.629 117.026-2.066 41.442 17.254 83.926 75.441 82.2 14.66-.508 25.543.355 41.668-2.492.297 8.949.625 17.844.992 26.676 1.246 30.086 2.891 62.367 6.41 94.574 2.766 25.266 6.559 59.871 28.766 90.273 7.328 10.027 15.238 17.309 23.043 22.582.746 8.262 1.926 16.453 3.527 24.512 8.391 67.656 77.137 96.879 137.402 61.73 11.25-7.949 19.773-18.965 26.055-33.703 9.445-21.109 1.121-27.707 28.406-24.461 30.906.633 65.078.695 95.113-.234 6.359 31.473 26.535 64.469 62.395 70.211 57.652 13.816 99.984-20.875 107.625-66.207 2.387-10.172 4.074-20.586 5.051-31.16 8.113-5.07 16.262-12.188 23.992-22.523 30.43-41.238 29.934-104.863 33.891-159.879 1.047-19.855 1.891-40.109 2.535-60.883 9.727 1.992 17.258 2.172 23.945 2.492 59.211 5.117 93.746-18.297 93.965-72.04-.375-37.922 9.906-89.089-17.016-120.933-1.901-2.09-3.952-4.027-6.147-5.812z" fill="#fff"/><g><path d="m718.797 245.117c-3.461-3.805-8.371-5.82-13.637-7 .32-21.219-9.09-44.258-24.266-58.762-19.34-18.477-48.691-17.238-73.98-15-.32-7.078-.664-14.156-1.078-21.23-.707-12.031-1.496-24.078-2.824-36.055-5.2-47.07-52.477-56.14-114.313-62.886-14.617-1.594-29.273-2.715-43.949-3.629-5.254-21.328-24.621-38.441-45.793-43.699-16.039-3.984-34.191-3.25-50.57-3.273-18.313-.023-37.113.051-55.215 3.09-31.02 5.211-47.09 32.641-48.246 45.773-31.031 2.496-62.398 5.918-92.613 13.438-18.531 4.605-33.703 15.008-42.688 32.223-6.008 11.5-6.375 23.922-7.352 36.602-1.211 15.805-2.051 31.633-2.684 47.477-24.824-2.113-53.156-2.824-71.988 15.172-15.218 14.544-24.644 37.662-24.257 58.931-1.781.43-3.578.816-5.246 1.426-15.578 5.719-15.59 23.812-16.242 37.816-.793 17.082-.523 34.238.262 51.316.668 14.305-1.125 34.415 14.055 41.622.508.238 1.027.422 1.551.594.32.156.633.336.969.473 9.559 3.922 22.484 2.992 32.594 2.758 10.641-.246 23.883.125 33.395-5.395 12.527-7.262 10.813-25.329 11.207-37.856.488-15.27.488-30.578-.184-45.844-.586-13.313.559-32.437-10.355-41.96-2.355-2.059-5.102-3.527-8.051-4.609v-.109c.344-5.766 6.746-16.309 15.082-19.641 9.633-3.852 19.328.176 25.73.27-1.414 72.074-.863 144.258 2.121 216.281 1.273 30.691 2.875 61.441 6.215 91.988 2.781 25.398 6.07 50.574 21.629 71.863 5.754 7.879 15.102 17.496 29.477 19.922-.262 14.184.957 28.379 3.727 42.301 2.539 12.785 6.25 27.117 16.59 35.945 11.484 9.801 26.703 10.32 41.004 8.508 7.09-.902 14.23-2.313 20.188-6.523 6.203-4.387 10-10.57 12.93-17.43 6.668-15.688 9.695-32.742 8.621-49.773 18.555 1.066 37.145 1.68 55.707 2.027 42.734.797 86.102.793 129.172-1.859-.895 14.477 1.016 29.34 5.941 42.98 2.551 7.066 5.516 14.246 10.652 19.855 4.785 5.23 11.625 8.355 18.488 9.727 13.637 2.711 30.059 3.688 42.445-3.703 12.063-7.199 17.41-20.641 20.465-33.699 3.695-15.754 5.316-32.008 5.02-48.195 10.297-2.594 20.52-6.152 30.637-19.68 11.477-15.344 16.566-36.695 19.098-54.684 3.922-27.93 5.746-56.137 7.223-84.285 3.965-75.297 4.703-150.825 3.625-226.207-.109-7.84-.25-15.676-.406-23.52 27.461-5.961 39.695 5.43 42.516 19.531v.152c-15.523 5.496-16.754 21.691-17.797 35.972-1.109 15.27-1.258 30.625-1.027 45.93.098 6.617.281 13.234.625 19.848.324 6.285.203 13.293 2.695 19.137 5.902 13.832 23.449 13.957 36.23 14.551 7.145.332 14.324.379 21.461-.043 5.359-.316 11.391-.469 16.422-2.531.309-.125.586-.293.883-.438.555-.176 1.102-.371 1.633-.625 13.852-6.57 13.02-22.762 13.766-35.926.855-15.137 1.18-30.328.914-45.492-.129-7.105-.379-14.215-.98-21.3-.689-8.017-1.568-16.423-7.224-22.638z" fill="#68182b"/><path d="m238.742 519.613c-5.293 1.164-10.789 1.43-16.207 1.66-14.867.641-30.117.258-44.805-2.254-6.5-1.102-12.406-1.637-13.527-10.586-1.141-9.012.965-18.59 7.418-25.215 4.363-3.766 13.492-.871 18.328.48 6.68 1.867 13.277 4.063 19.758 6.527 6.855 2.609 13.613 5.574 19.984 9.227 4.254 2.441 9.977 5.715 12.148 9.961 2.376 4.603 1.922 9.099-3.097 10.2z" fill="#ffc522"/><path d="m531.168 518.668c-13.473 2.598-27.508 3.027-41.172 2.777-6.078-.105-12.313-.316-18.293-1.195-4.91-.719-8.469-1.18-7.785-7.172.582-5.023 4.676-8.121 8.73-10.828 5.891-3.938 12.371-7.066 18.902-9.797 7.371-3.07 14.945-5.695 22.598-7.957 3.23-.949 6.551-2.043 9.895-2.504 3.098-.434 8.617-1.016 11.211 1.227 5.566 5.707 7.813 13.445 7.668 21.305-.184 10.031-4.094 12.687-11.754 14.144z" fill="#ffc522"/><path d="m396.183 521.305c-10.586 1.484-21.332 2.078-32.004 2.426-21.543.719-44.266 1.094-65.477-3.313-8.051-1.688-12.176-2.5-14.125-9.602-3.102-11.25 9.254-13.367 17.25-14.383 22.723-2.867 46.09-2.762 68.941-2.129 10.918.297 22.102.523 32.887 2.395 6.324 1.094 13.68 4.516 13.91 10.996.368 10.11-13.975 12.571-21.382 13.61z" fill="#ff7a0d"/><path d="m586.851 191.566c-.844-26.863-1.906-53.785-4.531-80.539-.508-5.227-.723-7.531-4.027-13.266-4.363-7.582-10.711-14.059-18.563-18.02-10.766-5.434-24.156-7.363-35.906-9.492-32.383-5.871-65.453-8.176-98.297-9.68-39.285-1.801-78.664-1.934-117.973-.609-35.973 1.219-72.086 3.406-107.75 8.445-16.754 2.371-37.664 3.934-53.426 12.18-22.188 11.598-21.863 25.879-23.742 54.465-.922 14.074-1.59 28.164-2.117 42.258-1.305 34.383-1.84 68.797-1.977 103.203-.285 70.602.703 141.375 5.359 211.852.895 13.602 1.805 27.184 3.234 40.473 1.293 12.063 2.816 13.281 13.785 16.148 26.668 6.953 53.781 12.137 81.125 15.59 111.973 14.141 225.223 3.684 336.84-9.563 13.094-1.551 18.781-3.582 20.031-13.805 1.418-11.637 2.203-23.414 3.133-35.746 2.461-32.527 3.805-65.141 4.754-97.746 2.095-72.007 2.314-144.148.048-216.148zm-345.398 340.387c-7.66 1.563-15.621 1.949-23.422 2.129-9.75.215-19.531-.086-29.238-.988-8.117-.766-18.012-1.082-25.5-4.629-9.762-4.621-12.113-15.348-11.996-25.246.125-10.746 3.816-21.191 11.371-28.953 8.504-7.324 20.66-5.555 30.645-2.766 9.539 2.66 18.895 5.984 28.004 9.852 14.281 6.074 35.133 15.355 34.32 33.922-.379 8.769-5.661 14.937-14.184 16.679zm180.469-5.644c-7.527 6.164-19.16 6.883-28.395 7.988-14.828 1.789-29.828 2.34-44.754 2.348-13.527.008-27.125-.43-40.57-2.043-8.48-1.016-18.637-1.852-26.031-6.613-12.32-7.914-14.457-27.195-3.105-36.762 7.91-6.656 19.223-7.211 29.051-8.102 27.254-2.477 55.191-2.57 82.48-.512 8.313.625 18.004.797 25.617 4.633 8.246 4.152 14.457 11.445 14.16 21.035-.211 6.867-3.344 13.434-8.453 18.028zm116.82 3.671c-18.273 4.25-37.891 4.852-56.563 3.852-6.492-.352-13.48-.633-19.719-2.605-9.762-3.086-12.859-13.91-10.426-23.086 2.074-7.836 8.547-13.164 15.086-17.387 7.609-4.91 16.031-8.559 24.438-11.859 8.016-3.156 16.234-5.938 24.582-8.094 9.254-2.402 20.367-3.164 28.066 3.465 13.595 13.957 19.184 49.988-5.464 55.714zm22.281-177.301c-2.023 18.329-4.086 34.602-12.992 47.989-10.258 15.434-20.684 18.922-39.156 23.852-41.699 11.141-88.66 11.707-130.512 12.867-56.094 1.555-115.117 2.367-170.227-10.008-67.945-15.266-64.973-74.77-65.891-135.754-.684-45.574.707-91.539 4.82-136.949 1.832-20.156 9.582-38.789 24.348-52.723 15.945-15.055 46.719-16.613 67.223-19.145 30.516-3.766 61.254-5.617 91.996-5.945 56.195-.598 115-.34 170.273 11.277 60.359 12.691 59.84 68.027 62.246 119.566 2.247 48.259 3.193 96.872-2.128 144.973z" fill="#ff2e60"/><path d="m166.57 164.656c.871-5.941 1.852-11.805 2.984-17.559 9.891-50.352 86.242-45.941 126.098-48.059 50.723-2.695 101.855-1.281 152.434 3.117 17.441 1.516 34.832 3.727 51.969 7.328 29.797 6.262 37.266 30.547 39.531 56.766.707 8.125-.848 10.027-10.691 8.242-54.719-9.895-113.094-8.379-167.859-8.746-61.078-.41-123.188-.016-184.063 7.18-9.954 1.173-11.45-1.167-10.403-8.269z" fill="#dda96b"/><path d="m534.14 381.309c-7.051 15.477-16.09 18.965-31.184 22.73-27.352 6.82-56.559 8.352-84.199 10.297-46.18 3.242-92.672 3.398-138.887.75-20.199-1.152-40.328-3.297-60.238-6.867-33.207-5.953-48.316-16.746-52.609-55.54-4.969-44.98-7.883-95.359-5.016-143.472.672-11.188.984-13.551 12.145-14.969 61.672-7.844 124.934-7.594 186.883-7.398 54.262.168 112.668-1.438 166.773 8.902 13.254 2.531 13.887 5.008 14.344 14.781 1.066 23.012 1.691 46.043 1.648 69.101-.046 24.602 3.348 73.114-9.66 101.685z" fill="#e5e5e5"/><path d="m55.035 328.57c-.063 4.598-.609 16.953-1.152 25.148-.422 6.356-5.957 6.555-12.227 6.997-3.008.219-21.113.602-27.133.219-7.594-.484-9.797-1.25-10.547-10.934-.324-4.379-.559-8.766-.766-13.152-.586-12.723-.828-25.469-.645-38.199.094-6.055.277-12.113.66-18.152.164-2.637.297-5.305.645-7.922.563-4.281 1.91-5.347 6.566-6.171 9.215-1.539 25.234-2.086 34.41-.883 6.281.816 7.512 2.605 8.141 6.375.988 5.965 1.164 12.176 1.469 18.203.661 12.811.77 25.651.579 38.471z" fill="#00ebed"/><path d="m98.531 206.141c-20.594-2.93-36.949-.855-48.551 10.82-6.941 6.996-12.457 16.805-13.441 26.871-1.941-.008-3.863.004-5.676.023-2.094.023-4.289.059-6.484.105.547-15.238 7.133-31.188 18.141-41.688 11.266-10.762 28.094-12.555 56.34-10.234-.126 4.302-.224 9.802-.329 14.103z" fill="#00ff9d"/><path d="m348.386 14.676c25.035.035 61.742-2.164 73.648 24.668-16.434-.699-32.875-1.137-49.305-1.277-35.156-.309-70.352.574-105.438 2.824 11.939-30.254 53.896-26.25 81.095-26.215z" fill="#00ff9d"/><path d="m239.672 650.293c-.309 7.887-1.594 15.648-3.973 23.309-1.516 4.859-3.25 10.25-6.348 14.379-2.184 2.895-5.684 3.922-10.102 4.766-7.949 1.516-20.684 2.484-27.059-2.676-2.445-1.98-4.941-6.191-6.102-9.25-1.992-5.199-3.219-10.719-4.32-16.164-1.43-7.051-2.344-14.176-2.828-21.336-.742-11.363 1.688-11.266 12.211-9.75 5.734.832 11.48 1.555 17.223 2.23 7.066.82 14.145 1.527 21.238 2.148 9.001.797 10.458 2.379 10.06 12.344z" fill="#dda96b"/><path d="m527.176 643.32c-.359 5.367-.965 10.711-1.879 16.004-1.012 5.859-2.223 11.734-3.949 17.43-2.676 8.805-5.129 14.871-16.051 16.676-4.254.707-10.563.258-15.551-.27-9.734-1.027-13.699-3.816-17.719-14.699-3.395-9.176-5.234-18.574-5.621-28.172-.371-9.281 2.41-11.609 10.887-12.414 13.277-1.254 26.5-2.793 39.645-4.707 9.062-1.332 10.808 1.391 10.238 10.152z" fill="#dda96b"/><path d="m572.156 574.816c-1.227 3.48-2.715 6.863-4.441 10.172-1.398 2.684-3.086 5.953-5.09 9.078-6.359 9.953-12.992 11.609-25.668 14.516-17.535 4.016-35.82 5.656-53.52 7.305-34.66 3.227-69.492 4.711-104.289 5.313-37.125.637-74.289.211-111.375-1.715-30.125-1.563-60.527-3.699-90.188-9.445-12.176-2.359-24.152-3.758-31.953-14.324-5.488-7.43-9.332-15.688-11.938-24.383-3.301-11.047.715-10.891 10.457-8.477 109.258 27.09 224.168 23.934 335.5 13.398 27.379-2.598 54.707-5.68 82.016-8.93 9.915-1.179 13.098.051 10.489 7.492z" fill="#00ff9d"/><path d="m608.156 198.395c-.129-4.332-.273-8.664-.418-12.992 22.57-1.918 43.797-3.172 58.238 8.871 11.867 9.895 17.41 22.973 18.137 41.758-3.945-.227-8.043-.395-12.172-.359-1.02-10.012-6.523-19.75-13.434-26.707-5.339-5.384-12.976-11.97-50.351-10.571z" fill="#00ff9d"/><path d="m705.469 324.355c-.25 6.395-.578 12.789-1.074 19.168-.711 9.074-5.109 9.098-11.102 9.457-4.469.266-8.945.316-13.406.266-4.535-.055-9.063-.223-13.578-.563-6.699-.527-11.563-1.441-12.098-9.941-.262-4.375-.43-8.754-.555-13.141-.375-12.676-.395-25.375-.004-38.059.191-6.113.473-12.23.949-18.332 1.047-13.742 1.773-15.402 12.523-16.011 2.98-.164 6.547-.27 9.176-.262 6.863.023 12.992.336 18.859 1.117 9.559 1.273 9.406 3.043 10.031 11.136.313 4.027.355 8.113.5 12.082.517 14.349.341 28.735-.221 43.083z" fill="#00ebed"/><path d="m52.988 271.894c-.629-3.77-1.859-5.558-8.141-6.375-1.945-.254-4.242-.414-6.664-.52 11.813 12.187 9.246 39.312 9.906 54.285.531 12.211 3.254 28.223-12.203 33.32-12.859 4.25-25.234.094-32.352-10.199.137 2.531.258 5.066.441 7.594.75 9.684 2.953 10.45 10.547 10.934 6.02.383 24.125 0 27.133-.219 6.27-.441 11.805-.641 12.227-6.997.543-8.195 1.09-20.551 1.152-25.148.191-12.82.082-25.66-.578-38.473-.304-6.026-.48-12.237-1.468-18.202z" fill="#19bfbb"/><path d="m693.293 352.98c5.992-.359 10.391-.383 11.102-9.457.141-1.816.191-3.648.309-5.469-5.008 5.813-11.594 8.934-21.422 9.137-24.164.496-22.926-23.582-22.348-39.656.438-12.227-1.727-36.879 5.652-50.289-10.18.637-10.957 2.484-11.984 15.964-.477 6.102-.758 12.219-.949 18.332-.391 12.684-.371 25.383.004 38.059.125 4.387.293 8.766.555 13.141.535 8.5 5.398 9.414 12.098 9.941 4.516.34 9.043.508 13.578.563 4.459.05 8.936 0 13.405-.266z" fill="#19bfbb"/><path d="m687.363 266.492c-4.199-.363-8.543.137-11.262 2.687-7.586 7.133-5.57 50.055-3.176 59.035 1.043 3.898 6.738 4.445 12.348 4.434 5.105-.008 10.137-.199 11.449-4.199 2.641-8.043 3.695-43.145 2.695-51.32-1.034-8.411-3.519-9.902-12.054-10.637z" fill="#6cfffb"/><path d="m25.058 274.613c-6.902-.324-10.316 1.707-11.391 6.594-3.184 14.453-2.195 47.066-.754 54.242.805 4.008 8.043 4.879 13.277 4.414 5.242-.469 8.469-1.148 9.102-4.648 1.148-6.27 2.781-39.867.727-54.465-.918-6.497-3.488-5.786-10.961-6.137z" fill="#6cfffb"/><path d="m142.246 291.625c-.684-45.574.707-91.539 4.82-136.949 1.832-20.156 9.582-38.789 24.348-52.723 15.945-15.055 46.719-16.613 67.223-19.145 30.516-3.766 61.254-5.617 91.996-5.945 56.195-.598 115-.34 170.273 11.277 60.359 12.691 59.84 68.027 62.246 119.566 2.203 47.203 3.109 94.75-1.832 141.828 9.379-39.277 9.559-79.945 8.621-120.507-.871-37.395 2.273-80.77-16.695-114.559-12.809-22.824-37.957-30.941-62.016-35.234-29.059-5.184-58.82-6.785-88.258-7.945-64.016-2.52-130.742-2.664-193.91 9.363-24.785 4.719-47.852 14.328-59.34 38.086-15.176 31.398-10.332 74.605-11.57 108.156-1.148 31.305-.473 62.296 1.637 93.542 1.18 17.469 3.043 35.36 8.977 51.86-6.512-23.589-6.09-51.964-6.52-80.671z" fill="#ea0f4d"/><path d="m279.066 491.227c7.91-6.656 19.223-7.211 29.051-8.102 27.254-2.477 55.191-2.57 82.48-.512 8.313.625 18.004.797 25.617 4.633 8.246 4.152 14.457 11.445 14.16 21.035-.188 6.102-2.781 11.891-6.922 16.348 12.793-8.598 15.121-30.059-.621-38.469-16.414-8.781-36.082-8.352-54.203-8.07-25.523.402-51.258-.52-76.52 3.969-19.094 3.395-25.527 20.344-19.34 33.289-2.608-8.41-.784-18.157 6.298-24.121z" fill="#ea0f4d"/><path d="m549.5 474.984c-9.438-11.371-20.414-10.973-33.902-7.387-17.738 4.703-36.707 12.785-51.539 23.609-2.598 1.898-4.668 4.313-6.223 6.969 2.707-2.875 5.992-5.293 9.285-7.422 7.609-4.91 16.031-8.559 24.438-11.859 8.016-3.156 16.234-5.938 24.582-8.094 9.254-2.402 20.367-3.164 28.066 3.465 9.656 9.914 15.215 30.938 8.809 44.355 9.589-11.737 7.027-30.94-3.516-43.636z" fill="#ea0f4d"/><path d="m158.496 525.082c-5.711-5.418-7.293-13.883-7.199-21.863.125-10.746 3.816-21.191 11.371-28.953 8.504-7.324 20.66-5.555 30.645-2.766 9.539 2.66 18.895 5.984 28.004 9.852 13.828 5.883 33.754 14.793 34.277 32.207 2.332-14.406-13.883-26.906-27.418-33.715-15.668-7.891-56.285-27.969-69.879-7.316-8.168 12.398-17.411 43.089.199 52.554z" fill="#ea0f4d"/><g fill="#f69"><path d="m548.031 400.668c-10.258 15.434-20.684 18.922-39.156 23.852-41.699 11.141-88.66 11.707-130.512 12.867-56.094 1.555-115.117 2.367-170.227-10.008-29.398-6.605-45.508-21.5-54.414-41.211 4.02 17.078 12.914 32.332 30.469 39.684 36.766 15.371 80.051 17.211 119.309 18.977 47.984 2.16 96.281.348 144.02-4.832 19.332-2.098 38.594-5.117 57.645-9.012 10.586-2.16 22.453-4.883 31.102-11.813 11.555-9.254 17.508-23.082 20.109-37.93-1.845 6.981-4.404 13.5-8.345 19.426z"/><path d="m335.195 539.359c15.113.145 30.223-.25 45.324-.691 8.609-.258 19.441-.059 27.422-3.777 3.02-1.402 5.602-3.105 7.82-4.961-6.918 2.91-15.254 3.531-22.234 4.367-14.828 1.789-29.828 2.34-44.754 2.348-13.527.008-27.125-.43-40.57-2.043-8.48-1.016-18.637-1.852-26.031-6.613-1.359-.867-2.539-1.93-3.648-3.051 11.3 16.308 36.765 14.238 56.671 14.421z"/><path d="m470.117 535.32c15.227 2.723 32.738 1.043 48.086-.039 9.531-.68 18.887-2.656 27.098-7.668 1.668-1.016 3.02-2.273 4.188-3.637-2.637 2.82-6.164 4.941-10.746 6.004-18.273 4.25-37.891 4.852-56.563 3.852-6.492-.352-13.48-.633-19.719-2.605-8.461-2.676-11.902-11.172-11.086-19.367-3.871 11.089 4.898 20.98 18.742 23.46z"/><path d="m222.047 564.574c111.973 14.141 225.223 3.684 336.84-9.563 13.094-1.551 18.781-3.582 20.031-13.805 1.418-11.637 2.203-23.414 3.133-35.746 2.461-32.527 3.805-65.141 4.754-97.746.66-22.742 1.059-45.5 1.332-68.262-1.301 14.383-2.656 28.762-3.66 43.176-2.285 32.813-4.418 65.648-7.922 98.367-1.535 14.313-3.133 28.84-6.598 42.836-4.512 18.184-23.938 20.625-39.645 23.492-44.93 8.191-91.48 9.484-137.004 11.707-79.262 3.863-158.375 1.773-236.008-15.273-15.391-3.383-20.605-11.859-23.414-27.586-1.977-11.121-3.941-22.242-5.844-33.375-2.441-14.246-4.707-28.516-6.949-42.789.738 17.465 1.652 34.918 2.809 52.355.895 13.602 1.805 27.184 3.234 40.473 1.293 12.063 2.816 13.281 13.785 16.148 26.669 6.955 53.782 12.138 81.126 15.591z"/><path d="m241.453 531.953c-7.66 1.563-15.621 1.949-23.422 2.129-9.75.215-19.531-.086-29.238-.988-6.879-.648-14.945-1.098-21.828-3.336 13.891 8.535 37.977 6.617 51.82 6.781 9.684.113 37.633.402 36.344-16.473-.02-.238-.109-.414-.137-.645-1.648 6.532-6.445 11.079-13.539 12.532z"/></g><path d="m298.703 520.418c21.211 4.406 43.934 4.031 65.477 3.313 10.672-.348 21.418-.941 32.004-2.426 7.406-1.039 21.75-3.5 21.383-13.609 0-.055-.027-.102-.027-.16-16.359 10.969-45.422 9.023-62.727 9.512-17.691.508-56.121 4.609-70.48-11-.238 1.391-.262 2.918.246 4.77 1.948 7.1 6.073 7.912 14.124 9.6z" fill="#ef6200"/><path d="m286.582 501.578c25.477-6.594 54.031-4.727 79.707-4.746 15.082-.008 30.488.633 45.602 2.762-2.492-1.445-5.445-2.414-8.234-2.895-10.785-1.871-21.969-2.098-32.887-2.395-22.852-.633-46.219-.738-68.941 2.129-4.993.633-11.685 1.704-15.247 5.145z" fill="#ffb85a"/><path d="m268.586 38.25c-.438.879-.918 1.695-1.293 2.641 35.086-2.25 70.281-3.133 105.438-2.824 13.492.113 27 .477 40.492.973-1.043-.207-2.063-.465-3.113-.664-46.235-8.798-94.802-7.067-141.524-.126z" fill="#00d35f"/><path d="m145.633 595.715c7.801 10.566 19.777 11.965 31.953 14.324 29.66 5.746 60.063 7.883 90.188 9.445 37.086 1.926 74.25 2.352 111.375 1.715 34.797-.602 69.629-2.086 104.289-5.313 17.699-1.648 35.984-3.289 53.52-7.305 12.676-2.906 19.309-4.563 25.668-14.516.414-.645.758-1.293 1.148-1.945-1.855.535-3.66 1.148-5.551 1.621-23.137 5.848-47.055 9.809-70.664 13.18-50.422 7.203-101.668 8.582-152.523 7.578-38.875-.766-77.734-3.367-116.418-7.348-24.617-2.531-57.98-3.727-78.348-20.027 1.601 2.954 3.335 5.841 5.363 8.591z" fill="#00d35f"/><path d="m668.082 208.898c-11.16-19.844-38.762-17.418-60.078-15.223.051 1.574.105 3.145.152 4.719 37.375-1.398 45.012 5.188 50.352 10.57 6.91 6.957 12.414 16.695 13.434 26.707 1.914-.02 3.754.105 5.637.164-1.759-9.796-5.15-19.21-9.497-26.937z" fill="#00d35f"/><path d="m98.531 206.141c.059-2.281.109-4.902.164-7.508-7.094-.332-14.715.297-22.254 1.148-26.512 2.984-39.387 20.051-43.449 44.063 1.176-.008 2.336-.016 3.547-.012.984-10.066 6.5-19.875 13.441-26.871 11.602-11.676 27.957-13.75 48.551-10.82z" fill="#00d35f"/><path d="m181.078 574.098c51.938 14.254 107.387 16.535 160.906 17.41 76.266 1.262 154.418-.211 229.559-15.141.199-.516.43-1.027.613-1.551 2.609-7.441-.574-8.672-10.488-7.492-27.309 3.25-54.637 6.332-82.016 8.93-108.23 10.238-219.82 13.422-326.332-11.289 9.137 3.82 18.742 6.656 27.758 9.133z" fill="#bdffa5"/><path d="m464.652 510.668c-.305.77-.629 1.527-.734 2.41-.684 5.992 2.875 6.453 7.785 7.172 5.98.879 12.215 1.09 18.293 1.195 13.664.25 27.699-.18 41.172-2.777 7.66-1.457 11.57-4.113 11.754-14.145.039-2.012-.094-4.008-.387-5.973-6.105 7.297-13.965 12.176-24.621 15.332-11.895 3.52-40.328 6.223-53.262-3.214z" fill="#ffa222"/><path d="m164.203 508.434c1.121 8.949 7.027 9.484 13.527 10.586 14.688 2.512 29.938 2.895 44.805 2.254 5.418-.23 10.914-.496 16.207-1.66 4.773-1.051 5.387-5.176 3.391-9.539-11.59 6.84-23.625 6.355-37.824 5.992-9.156-.23-18.023-1.371-26.402-5.273-10.82-5.043-11.008-15.227-8.605-24.801-4.623 6.374-6.087 14.616-5.099 22.441z" fill="#ffa222"/><path d="m485.242 507.91c11.84.164 23.941-1.316 35.328-3.895 3.57-.805 13.816-3.031 13.816-8.359 0-17.422-33.461-2.656-50.145 6.211-10.23 5.43-4.589 5.965 1.001 6.043z" fill="#fbe134"/><path d="m225.136 503c-14.172-7.836-44.891-23.262-48.414-10.449-1.793 6.508 2.742 10.16 8.324 11.926 11.363 3.598 26.242 3.785 38.887 2.887 3.637-.251 8.078-.559 1.203-4.364z" fill="#fbe134"/><path d="m160.953 254.992c13.711-24.773 38.543-41.027 71.766-46.734 44.434-7.629 91.289-6.586 136.199-6.75 23.598-.09 47.199.273 70.781 1.113 22.25.797 45.141 1.059 66.387 8.352 18.34 6.293 29.781 17.691 37.227 31.785-.285-10.754-.66-21.496-1.16-32.234-.457-9.773-1.09-12.25-14.344-14.781-54.105-10.34-112.512-8.734-166.773-8.902-61.949-.195-125.211-.445-186.883 7.398-11.16 1.418-11.473 3.781-12.145 14.969-.903 15.116-1.18 30.456-1.055 45.784z" fill="#c6c6c6"/><path d="m499.937 290.203c-7.715-21.656-29.863-25.003-49.645-26.042-31.145-1.629-161.762-1.629-192.906 0-19.785 1.039-41.934 4.386-49.645 26.042-4.23 11.871-5.973 26.523-5.102 40.188 2.043 32.211 30.473 43.391 50.664 44.532 60.27 3.348 138.41 3.473 201.07 0 20.191-1.141 48.621-12.32 50.664-44.532.873-13.665-.869-28.317-5.1-40.188z" fill="#f4f4f4"/><path d="m176.972 172.926c60.875-7.195 122.984-7.59 184.063-7.18 54.766.367 113.141-1.148 167.859 8.746 9.844 1.785 11.398-.117 10.691-8.242-1.18-13.672-3.816-26.789-10.258-37.129 5.262 15.609 6.238 31.402-12.57 33.777-10.125 1.281-21.469-1.203-31.605-1.902-13.883-.969-27.793-1.641-41.699-2.227-49.629-2.094-99.352-1.941-148.996-.605-30.129.809-60.289 2.066-90.352 4.238-13.727.996-27.66-.262-28.984-17.359-.379-4.844.383-10.086 1.738-15.305-3.445 4.914-5.984 10.633-7.305 17.359-1.133 5.754-2.113 11.617-2.984 17.559-1.047 7.102.449 9.442 10.402 8.27z" fill="#c48d51"/><path d="m229.613 637.949c-7.094-.621-14.172-1.328-21.238-2.148-5.742-.676-11.488-1.398-17.223-2.23-.582-.086-1.051-.137-1.582-.211 6.273 4.477 13.406 7.582 21.184 10.184 16.355 5.492 22.434 15.715 17.844 32.207-1.766 6.355-5.438 12.406-10.289 17.152.305-.051.648-.098.941-.156 4.418-.844 7.918-1.871 10.102-4.766 3.098-4.129 4.832-9.52 6.348-14.379 2.379-7.66 3.664-15.422 3.973-23.309.397-9.965-1.06-11.547-10.06-12.344z" fill="#c48d51"/><path d="m477.293 637.875c-8.477.805-11.258 3.133-10.887 12.414.387 9.598 2.227 18.996 5.621 28.172 4.02 10.883 7.984 13.672 17.719 14.699 3.27.344 7.074.625 10.527.602-2.664-.879-5.313-1.906-7.93-3.305-12.043-6.426-17.902-21.563-14.379-34.363 4.465-16.188 26.25-14.434 39.297-22.957-.121.02-.207.012-.324.031-13.144 1.914-26.367 3.453-39.644 4.707z" fill="#c48d51"/><path d="m466.445 113.934c-147.801-15.387-213.527-1.586-227.906.211-41.211 5.156-61.238 27.227-22.055 24.367 101.566-7.387 161.199-6.953 269.387-.742 36.387 2.105 42.695-17.372-19.426-23.836z" fill="#f4c38e"/><path d="m219.851 660.004c-2.184-3.664-5.379-4.672-9.453-5.426-5.102-.941-10.535-1.449-15.398-3.34-3.738-1.445-7.621-4.746-6.676 2.926 1.145 9.5 2.723 21.672 9.082 28.219 4.352 4.477 15.656 5.801 19.875-.441 3.52-5.219 6.023-16.126 2.57-21.938z" fill="#f4c38e"/><path d="m514.207 645.738c-4.711 3.297-9.551 5.203-15.938 6.078-3.113.43-7.625 1.035-9.504 4.152-4.141 6.871-1.906 21.602 4.91 26.262 18.469 12.625 25.449-16.898 26.348-33.945.367-7.055-2.578-4.808-5.816-2.547z" fill="#f4c38e"/></g></g></svg>