<svg id="Travel" height="512" viewBox="-70.866 -70.866 850.394 850.394" width="512" xmlns="http://www.w3.org/2000/svg"><g><path d="m98.706 426.159c-6.633 4.797-14.227 10.664-20.93 18.391-23.254 24.133-31.938 59.18-20.355 84.375 23.363 65.602 63.082 134.25 124.273 174.609 48.543 27.563 112.82 46.09 173.868 47.391 48.613 0 95.246-15.836 134.425-31.32 30.793-10.461 63.059-29.746 82.141-53.645 39.988-46.898 79.023-103.91 84.219-166.77-4.379-36.895-23.844-53.797-46.828-73.383-2.031-32.027-3.086-63.254-7.418-95.996-4.078-28.48-9.098-56.996-18.363-83.898 30.078-45.027 11.316-103.953-45.367-122.316-21.555-7.824-45.16-13.613-71.48-17.504.258-18.641-.051-37.719-1.457-56.742-.809-12.926-1.93-30.617-12.503-47.566-9.867-15.801-25.668-28.066-45.695-35.469-43.289-15.941-111.637-10.52-143.602 23.504-29.715 36.691-19.879 77.266-22.273 118.398-26.445 3.461-55.316 8.027-81.941 19.301-48.887 19.43-62.629 75.477-34.676 117.965-18.605 53.445-21.395 105.297-24.742 158.961-.421 7.238-.827 14.468-1.296 21.714z" fill="#fff"/><g><path d="m106.687 469.624c-5.992 6.91-11.66 14.992-14.891 23.602-3.281 8.738-.063 17.289 2.637 25.805 6.77 21.285 16.684 41.668 27.938 60.914 11.34 19.402 24.336 37.949 38.93 55.043 11.32 13.254 24.09 26.59 39.359 35.313 41.313 23.57 91.695 37.375 138.84 41.66 2.656.242 5.316.402 7.98.52.5.066.996.105 1.516.059 43.461 1.563 87.028-12.754 126.945-28.527 10.488-4.141 20.863-8.578 31.074-13.375 14.246-6.988 26.293-18.918 36.883-30.5 14.789-16.172 27.895-34.055 39.363-52.707 11.504-18.73 21.551-38.637 28.531-59.508 2.793-8.344 6.609-18.52 6.301-27.422-.289-8.461-6.27-17.109-11.02-23.742-8.934-12.457-22.086-21.938-35.188-30.699.336-1.125.512-2.363.406-3.789-2.703-35.805-3.387-71.766-8.125-107.398-2.684-20.141-6.488-40.074-11.477-59.77-3.766-14.836-8.879-27.785-16.281-40.215 5.887-2.105 12.352-6.031 15.969-10.926 6.422-8.668 8.695-23.387 6.289-33.723-3.809-16.367-18.813-25.035-33.355-30.672-30.816-11.184-64.059-16.723-97.456-19.34.766-28.293 1.602-56.637-.375-84.895-.777-11.113-.91-23.508-7.008-33.277-6.02-9.637-16.066-15.984-26.527-19.852-21.328-7.898-47.137-7.531-69.063-2.625-11.793 2.629-24.684 7.016-33.063 16.129-7.133 7.766-9.004 17.371-10.031 27.496-3.336 32.867-2.238 65.957-1.352 98.93-6.383.645-12.77 1.313-19.133 2.121-28.586 3.645-60.215 7.18-86.977 18.504-11.715 4.957-21.984 13.68-24.82 26.586-2.141 9.734.105 19.82 3.668 28.938 2.906 7.453 10.281 13.625 18.375 16.379-16.645 30.066-22.68 64.66-27.281 98.805-4.871 36.105-5.582 72.523-8.32 108.805-.105 1.426.082 2.664.41 3.789-1.715 1.293-3.473 2.531-5.18 3.832-8.144 6.193-17.761 11.974-24.491 19.732z" fill="#68182b"/><path d="m352.82 515.597c-.488 41.938-2.379 83.859-5.082 125.707-.793 12.238-1.695 24.48-2.684 36.707-1.047 13.047-3.461 13.805-16.887 12.09-28.938-3.691-57.797-12.762-83.941-22.859-15.871-6.133-32.477-12.953-45.516-24.16-13.852-11.902-25.84-26.145-36.586-40.863-12.34-16.914-23.375-34.836-32.754-53.563-4.805-9.605-4.363-11.492 4.246-17.582 52.438-37.066 105.012-76.148 165.527-98.797 11.605-4.34 23.629-8.148 35.879-10.434 12.352-2.316 14.305.297 15.57 10.875 3.263 27.347 2.552 55.535 2.228 82.879z" fill="#e5e5e5"/><path d="m579.124 551.546c-16.711 33.375-39.156 66.711-67.883 90.969-4.57 3.863-9.5 7.266-14.879 9.906-37.613 17.688-79.655 33.27-121.194 38.246-9.73 1.129-18.551 1.668-17.148-15.109 5.844-69.754 9.316-140.191 7.09-210.031-.352-11.023-.871-22.082-2.027-33.074-1.391-13.293-.613-13.293 10.766-11.91 8.281.988 16.473 2.715 24.547 4.984 36.594 10.289 70.171 30.012 101.573 50.98 26.145 17.461 50.672 37.086 76.109 55.484 7.202 5.211 6.913 11.824 3.046 19.555z" fill="#e5e5e5"/><path d="m301.234 66.175c.453-9.875.223-20.93 2.832-30.027 2.453-8.57 10.949-11.824 18.84-14.238 18.426-5.648 39.512-6.313 58.227-1.574 7.367 1.867 15.352 4.852 20.27 11.086 5.293 6.711 4.527 17.113 5.063 25.117.262 3.902.348 7.805.512 11.711-17.52-4.152-36.148-4.711-53.934-4.113-17.223.582-35.18 2.211-51.949 6.98.057-1.645.057-3.294.139-4.942z" fill="#e5e5e5"/><path d="m315.398 80.722c12.398-2.484 25.16-3.508 37.645-3.93 13.543-.461 27.489-.262 41.036 1.859 13.988 2.184 13.574 6.934 13.48 21.707-.078 12.859-.414 25.723-.766 38.574-16.848-.762-33.625-.934-50.02-.828-18.442.113-36.887.883-55.29 2.223-.363-13.5-.738-27-.82-40.508-.062-12.875 1.129-16.367 14.735-19.097z" fill="#ff7a0d"/><path d="m170.37 202.796c-.637-3.02-1.02-6.223-.195-9.254 2.727-10.113 15.859-12.949 24.539-15.309 51.68-14.051 106.129-18.543 159.523-19.016 54.77-.496 113.445 1.805 165.464 20.691 8.523 3.301 18.855 8.504 18.797 18.898-.016 3.375-1.031 6.656-2.09 9.848-2.883 8.707-10.418 5.813-18.176 4.246-5.715-1.152-11.449-2.184-17.203-3.113-13.012-2.109-26.105-3.762-39.223-5.086-65.038-6.547-130.98-5.445-196.046.191-18.082 1.559-36.121 3.523-54.117 5.898-8.688 1.145-17.371 2.352-26.039 3.672-9.073 1.385-13.058-1.408-15.234-11.666z" fill="#00ebed"/><path d="m149.363 462.394c19.078-14.355 38.512-28.285 58.68-41.074 39.223-24.875 83.406-47.934 130.48-51.824 39.129-3.234 76.368 11.438 111.032 28.16 40.769 19.672 79.542 43.762 116.175 70.297 7.02 5.082 15.285 9.918 20.914 16.582 3.469 4.109 9.801 12.211 10.402 16.77.738 5.645-4.172 16.961-6.301 23.094-.238.684-.547 1.344-.793 2.023-56.742-40.048-109.992-86.782-176.835-109.556-16.977-5.781-34.852-9.746-52.84-9.977-16.747-.211-33.489 3.145-49.434 8.043-36.961 11.344-71.449 30.449-104.098 50.844-30.031 18.758-58.535 39.648-87.488 59.977-.637-1.652-1.367-3.273-1.969-4.941-4.191-11.688-6.883-23.383 1.508-33.574 8.328-10.098 21.188-17.786 30.567-24.844z" fill="#00ebed"/><path d="m214.656 298.237c2.375-8.734 5.305-19.063 11.508-25.949 4.379-4.867 10.883-6.355 16.961-7.992 23.105-6.223 46.91-10.637 70.91-11.039 10.887.691 12.848 14.988 12.684 23.039-.199 9.555-2.039 23.848-10.641 29.805-4.984 3.457-11.82 5.195-17.547 7.004-6.816 2.148-13.75 3.914-20.719 5.508-13.301 3.055-26.758 5.465-40.02 8.703-12.742 3.109-27.641 4.125-26.59-10.105.461-6.423 1.766-12.771 3.454-18.974z" fill="#ffc522"/><path d="m543.745 340.085c-2.367-18.965-6.039-37.785-10.629-56.328-2.246-9.07-4.109-18.59-8.258-27.016-1.102-2.234-2.281-4.422-3.52-6.57-6.953-12.078-17.035-18.91-38.234-21.852-4.289-.602-8.594-1.141-12.906-1.629-74.183-8.371-149.816-6.484-223.976 1.141-36.113 3.723-52.164 6-62.594 28.027-3.941 8.313-5.895 17.488-8.121 26.375-4.668 18.629-8.406 37.527-10.855 56.586-3.898 30.32-4.871 60.887-6.832 91.375 1.836-1.328 3.613-2.723 5.461-4.035 21.605-15.406 43.879-29.98 67.293-42.52 42.434-22.707 91.945-41.137 140.829-34.473 43.328 5.906 84.895 26.867 122.647 47.922 19.305 10.758 38.105 22.418 56.473 34.707-2.009-30.593-2.97-61.273-6.778-91.71zm-214.992-28.645c-4.82 5.789-11.527 8.367-18.391 10.957-7.719 2.898-15.664 5.156-23.664 7.117-16.91 4.148-34.043 7.551-51.023 11.391-9.371 2.125-23.004 3.691-31.578-1.777-9.996-6.383-5.527-26.145-3.688-35.543 2.402-12.234 6.328-25.98 13.641-36.273 5.465-7.707 13.02-11.59 21.91-14.176 25.215-7.309 51.777-12.094 78.074-12.535 14.766.934 23.301 14.242 24.891 27.613 1.672 14.078-.84 32.015-10.172 43.226zm179.347 22.129c-2.109 3.949-6.715 5.789-10.867 6.613-12.684 2.512-24.496-.91-36.777-3.684-16.608-3.746-33.444-6.594-49.812-11.359-14.004-4.082-29.168-8.426-35.934-22.539-5.934-12.391-7.305-28.547-4.43-41.875 2.367-11.004 12.359-20.863 23.93-21.598 15.762.266 31.582 2.387 47.086 5.164 12.344 2.215 25.315 4.824 37.042 9.387 22.098 8.582 28.867 37.98 31.094 59.094.641 6.051 1.676 15.176-1.332 20.797z" fill="#ff7a0d"/><path d="m383.801 259.718c1.754-3.324 6.387-7.676 10.41-7.934 21.582.363 43.605 3.691 64.44 9.309 6.672 1.793 14.566 2.926 20.348 6.98 6.586 4.613 9.633 13.496 12.137 20.738 3.02 8.746 5.465 18.156 6.023 27.539.652 10.969-7.309 13.441-18.918 11.391-12.645-2.227-25.237-5.746-37.815-8.41-13.238-2.801-26.488-5.848-39.176-10.613-6.445-2.418-11.648-4.805-14.938-11.16-2.563-4.957-3.586-11.211-4.324-16.676-.871-6.434-1.297-15.274 1.813-21.164z" fill="#ffc522"/><path d="m507.389 205.464c-18.613-4.285-37.508-7.164-56.456-9.43-41.094-4.926-82.703-5.289-124-3.488-29.98 1.305-59.887 4.172-89.613 8.199-18.309 2.484-49.063 12.617-66.797 2.652 2.211 9.727 6.195 12.418 15.082 11.066 8.668-1.32 17.352-2.527 26.039-3.672 17.996-2.375 36.035-4.34 54.117-5.898 65.066-5.637 131.008-6.738 196.046-.191 13.117 1.324 26.211 2.977 39.223 5.086 5.754.93 11.488 1.961 17.203 3.113 7.758 1.566 15.293 4.461 18.176-4.246.355-1.063.652-2.156.953-3.234-8.254 3.629-17.996 2.801-29.973.043z" fill="#19bfbb"/><path d="m590.745 524.397c.633-1.828 1.516-4.133 2.426-6.602-.027-.012-.039-.031-.063-.051-19.973-18.09-45.824-31.672-68.301-46.328-53.184-34.672-109.253-78.566-176.199-73.492-41.793 3.164-81.418 25.109-116.492 46.363-39.43 23.895-78.66 48.406-114.418 77.551.512 1.313 1.055 2.605 1.559 3.914 28.953-20.328 57.457-41.219 87.488-59.977 32.648-20.395 67.137-39.5 104.098-50.844 15.945-4.898 32.688-8.254 49.434-8.043 17.988.23 35.863 4.195 52.84 9.977 66.843 22.773 120.093 69.508 176.835 109.555.246-.679.555-1.339.793-2.023z" fill="#19bfbb"/><path d="m354.238 159.218c-53.395.473-107.844 4.965-159.523 19.016-8.668 2.355-21.758 5.188-24.52 15.254 97.992-25.488 198.333-35.141 298.207-26.992-37.641-6.638-76.808-7.614-114.164-7.278z" fill="#6cfffb"/><path d="m338.523 369.495c-47.074 3.891-91.258 26.949-130.48 51.824-20.168 12.789-39.602 26.719-58.68 41.074-9.379 7.059-22.238 14.746-30.566 24.844-3.586 4.359-5.066 9.004-5.359 13.793 26.777-29.32 65.539-49.828 98.484-69.309 41.844-24.73 88.961-50.082 138.57-52.363 43.059-1.98 84.758 17.934 122.535 36.055 23.191 11.121 45.848 23.18 68.344 35.523-29.348-19.82-59.965-37.914-91.815-53.281-34.666-16.722-71.904-31.394-111.033-28.16z" fill="#6cfffb"/><g fill="#ef6200"><path d="m493.983 258.952c-7.008-10.344-24.422-12.48-35.473-14.957-18.335-4.113-38.335-8.168-57.163-7.555-8.039.262-14.066 2.695-18.27 6.434 3.367-2.098 7.145-3.492 11.133-3.746 15.762.266 31.582 2.387 47.086 5.164 12.344 2.215 25.315 4.824 37.042 9.387 22.098 8.582 28.867 37.98 31.094 59.094.555 5.223 1.242 12.598-.465 18.176 14.547-15.395-6.64-59.665-14.984-71.997z"/><path d="m341.331 275.511c.223-13.012-5.176-34.613-20.008-38.637-14.027-3.797-30.195.945-44.172 3.352-16.414 2.828-33.723 5.105-49.207 11.5-18.055 7.457-23.953 22.355-28.918 40.055-3.297 11.758-6.012 26.609-.527 37.875-1.715-8.516.66-19.664 1.91-26.07 2.402-12.234 6.328-25.98 13.641-36.273 5.465-7.707 13.02-11.59 21.91-14.176 25.215-7.309 51.777-12.094 78.074-12.535 14.766.934 23.301 14.242 24.891 27.613 1.305 10.988.004 24.289-5.035 34.949 5.238-7.696 7.254-16.657 7.441-27.653z"/><path d="m490.53 386.858c-33.937-22.938-73.222-41.574-114.202-46.934-70.711-9.234-133.774 23.387-186.028 67.824 13.102-8.563 26.473-16.719 40.273-24.109 42.434-22.707 91.945-41.137 140.829-34.473 43.328 5.906 84.895 26.867 122.647 47.922 16.754 9.332 33.063 19.453 49.109 29.973-15.105-16.328-36.327-29.179-52.628-40.203z"/><path d="m300.902 115.495c.16 8.277.355 16.559.582 24.832 18.402-1.34 36.848-2.109 55.29-2.223 16.395-.105 33.172.066 50.02.828.285-10.441.523-20.887.66-31.336-17.277 12.523-41.422 17.883-61.055 19.367-18.88 1.423-33.954-1.429-45.497-11.468z"/></g><path d="m367.664 87.366c-4.352-.113-8.707-.125-13.043-.07-8.313.09-22.922-.66-30.449 2.258-9.711 3.758-14.18 12.156-2.352 16 12.535 4.059 31.797-.113 44.489-1.891 34.152-4.762 29.109-15.605 1.355-16.297z" fill="#ffb85a"/><path d="m250.159 340.8c15.996-3.195 31.816-7.5 47.422-12.234 10.145-3.078 19.992-5.887 27.191-13.309-4.234 3.27-9.281 5.203-14.41 7.141-7.719 2.898-15.664 5.156-23.664 7.117-16.91 4.148-34.043 7.551-51.023 11.391-8.965 2.031-21.777 3.48-30.387-1.18 10.231 9.816 31.008 3.843 44.871 1.074z" fill="#ffb85a"/><path d="m536.257 300.222c1.113 4.332 2.18 8.695 3.27 13.047-1.852-9.902-3.996-19.75-6.41-29.512-2.246-9.07-4.109-18.59-8.258-27.016-1.102-2.234-2.281-4.422-3.52-6.57-6.953-12.078-17.035-18.91-38.234-21.852-4.289-.602-8.594-1.141-12.906-1.629-74.183-8.371-149.816-6.484-223.976 1.141-36.113 3.723-52.164 6-62.594 28.027-3.941 8.313-5.895 17.488-8.121 26.375-.602 2.398-1.141 4.82-1.715 7.23 4.879-12.281 11.195-23.941 19.379-34.355 10.641-13.52 26.621-18.023 42.809-20.711 43.25-7.188 88.402-7.125 132.114-6.797 40.867.309 85.574-.449 125.132 11.227 26.518 7.824 36.834 37.262 43.03 61.395z" fill="#ffb85a"/><path d="m505.253 337.472c.188-.316.219-.66.371-.98-2.348 1.977-5.465 3.109-8.391 3.691-12.684 2.512-24.496-.91-36.777-3.684-16.608-3.746-33.444-6.594-49.812-11.359-14.004-4.082-29.168-8.426-35.934-22.539-5.934-12.391-7.305-28.547-4.43-41.875.047-.211.141-.41.184-.613-9.352 17.402-3.301 43.234 10.844 56.094 10.352 9.414 27.777 11.77 40.754 14.938 18.117 4.445 37.358 9.758 55.901 11.918 7.528.87 22.505 2.584 27.29-5.591z" fill="#ffb85a"/><path d="m491.135 288.812c-2.504-7.242-5.551-16.125-12.137-20.738-5.781-4.055-13.676-5.188-20.348-6.98-20.835-5.617-42.858-8.945-64.44-9.309-4.023.258-8.656 4.609-10.41 7.934-1.602 3.031-2.246 6.848-2.391 10.711 20.973-8.473 44.066-1.809 66.344 3.723 16.573 4.113 31.089 10.652 44.839 19.207-.476-1.521-.945-3.056-1.457-4.548z" fill="#ffa222"/><path d="m262.347 271.632c21.41-5.602 43.34-11.43 63.566-4.547-1.32-6.734-4.551-13.359-11.879-13.828-24 .402-47.805 4.816-70.91 11.039-6.078 1.637-12.582 3.125-16.961 7.992-5.926 6.578-8.844 16.266-11.164 24.738 11.817-13.132 27.407-20.172 47.348-25.394z" fill="#ffa222"/><path d="m382.726 285.675c.719 4.113 1.746 8.332 3.586 11.883 3.289 6.355 8.492 8.742 14.938 11.16 12.688 4.766 25.938 7.813 39.176 10.613 12.578 2.664 25.171 6.184 37.815 8.41 9.289 1.645 16.156.297 18.227-5.883-20.242-1.148-40.257-5.867-60.077-11.793-18.399-5.5-39.563-10.976-53.665-24.39z" fill="#fbe134"/><path d="m237.792 327.315c13.262-3.238 26.719-5.648 40.02-8.703 6.969-1.594 13.902-3.359 20.719-5.508 5.727-1.809 12.563-3.547 17.547-7.004 4.621-3.203 7.25-8.816 8.766-14.805-12.695 6.852-26.57 11.684-40.883 15.492-21.5 5.727-49.719 14.227-72.477 8.277-.07.719-.23 1.426-.281 2.145-1.051 14.231 13.847 13.216 26.589 10.106z" fill="#fbe134"/><path d="m375.168 690.667c41.539-4.977 83.581-20.559 121.194-38.246 5.379-2.641 10.309-6.043 14.879-9.906 21.793-18.406 39.953-42.035 54.758-66.941-40.199 46.113-102.344 81.688-160.694 73.617-27.48-3.797-26.531-30.906-26.547-52.344-.012-20.309-.32-40.586-1.844-60.844-2.078-27.633-7.469-54.434-12.273-81.441.164 3.66.348 7.313.469 10.965 2.227 69.84-1.246 140.277-7.09 210.031-1.403 16.777 7.417 16.238 17.148 15.109z" fill="#c6c6c6"/><path d="m307.605 637.124c-26.273 26.457-78.949 10.855-106.383-5.414-23.336-13.836-41.082-34.805-57.145-56.551 5.641 9.27 11.66 18.305 18.047 27.059 10.746 14.719 22.734 28.961 36.586 40.863 13.039 11.207 29.645 18.027 45.516 24.16 26.145 10.098 55.004 19.168 83.941 22.859 13.426 1.715 15.84.957 16.887-12.09.988-12.227 1.891-24.469 2.684-36.707 2.703-41.848 4.594-83.77 5.082-125.707.086-7.297.184-14.652.242-22.035-2.109 16.18-4.91 32.336-8.66 48.664-7.211 31.419-13.157 71.102-36.797 94.899z" fill="#c6c6c6"/><path d="m290.198 461.558c-32.566 14.832-65.785 29.895-95.254 49.387-26.418 17.484-29.977 42.027-7.77 65.48 24.223 25.59 61.223 6.93 81.66-12.984 22.582-22.012 36.238-53.625 44.02-85.09 7.317-29.614.446-27.321-22.656-16.793z" fill="#f4f4f4"/><path d="m521.042 521.733c-21.516-19.145-58.566-42.285-95.034-59.18-33.281-15.434-33.121-8.953-26.234 14.23 8.367 28.168 18.109 56.531 36.73 79.023 20 24.156 58.812 44.059 86.808 20.52 20.312-17.077 16.32-38.054-2.27-54.593z" fill="#f4f4f4"/></g></g></svg>