<?xml version="1.0" encoding="UTF-8"?>
<!-- Generator: Adobe Illustrator 16.0.0, SVG Export Plug-In . SVG Version: 6.00 Build 0)  -->
<svg xmlns="http://www.w3.org/2000/svg" xmlns:xlink="http://www.w3.org/1999/xlink" version="1.1" id="construction_equipment" x="0px" y="0px" width="512" height="512" viewBox="0 0 1200 1200" xml:space="preserve">
<g>
	<path fill="#FFFFFF" d="M911.995,158.983c-43.122,16.247-77.356,58.752-109.859,90.199   c-59.783,57.838-122.1,114.785-192.896,158.993c-30.911,19.302-64.093,33.753-96.009,51.179   c-16.221,8.857-32.07,18.438-47.114,29.188c-7.683,5.489-15.148,11.281-22.331,17.412c-13.409,11.449-13.909,11.219-30.912,11.219   c-16.494,0-31.703,5.644-45.354,14.615c-10.714,7.04-21.3,18.315-34.449,20.412c-27.646-9.063-50.195-39.519-68.33-60.677   c-16.33-19.056-33.393-48.624-55.103-61.881c-30.486-18.614-54.448,12.66-56.294,41.185   c-4.219,65.151,22.121,131.795,55.301,186.391c-59.813,46.418-9.745,146.285,43.119,176.66c15.473,9.01,33.489,9.905,50.506,5.063   c4.907,17.227,8.976,34.688,12.328,52.282c6.767,35.55,10.512,71.562,12.617,107.666c0.894,15.353,4.027,34.313,18.063,43.349   c19.904,12.813,57.162-0.079,77.704-5.932c58.748-16.735,113.44-48.007,161.748-84.954c32.58-24.918,96.125-69.707,96.755-116.438   c0.406-30.345-37.967-48.142-56.002-68.12c-22.113-24.306-39.192-52.701-53.908-81.949c68.902-27.775,133.683-61.6,186.854-114.352   c49.864-49.471,88.549-108.562,126.827-167.062c11.392-17.408,22.781-34.821,34.513-52.004   c10.053-14.73,19.977-14.324,37.215-13.969c29.441,0.585,56.521-4.425,74.666-30.104c26.053-36.873,18.145-88.48-11.189-120.656   C1000.223,164.5,961.794,140.221,911.995,158.983z"/>
	<g>
		<path fill="#68182B" d="M964.884,176.588c-57.41-12.698-97.158,39.571-133.318,75.192    c-53.324,52.082-108.163,103.05-168.467,147.013c-26.961,19.595-55.132,37.405-84.681,52.833    c-51.061,24.548-102.78,49.949-141.856,92.191c-55.371-18.517-65.6,29.152-105.38,31.038    c-39.236-8.563-87.47-75.142-114.523-105.399c-8.063-7.537-13.188-21.213-24.93-22.982c-24.264,2.064-14.346,51.986-13.513,68.584    c5.795,43.056,22.784,83.583,43.974,121.214c28.255,47.914,16.445,16.711-10.431,49.104    c-23.923,39.758,15.153,108.412,51.268,129.163c17.778,10.354,36.498,2.894,53.476-5.366    c19.159,57.503,28.518,117.852,32.423,178.214c1.328,11.618-0.973,40.277,16.276,36.856    c96.26-6.677,211.958-82.957,275.015-154.069c10.817-13.095,30.985-38.751,9.178-50.975    c-14.604-11.163-28.146-23.703-40.459-37.345c-29.021-31.9-49.824-70.117-67.979-108.939c44.29-17.35,88.704-35.641,129.244-60.76    c108.183-66.242,167.867-182.539,238.082-283.497c25.828-28.075,70.047,0.366,97.666-25.611    C1046.369,264.454,1016.201,188.507,964.884,176.588z"/>
		<path fill="#FAC135" d="M824.822,272.139c28.929-25.733,52.306-58.459,86.291-77.85c22.729-12.476,52.884-14.263,73.701,2.83    c-29.483,0.503-54.026,20.332-74.031,40.233c-34.294,34.102-64.418,72.217-99.918,105.162    C771.535,299.81,750.66,347.23,824.822,272.139z"/>
		<path fill="#FF801D" d="M763.951,328.908c16.218,1.024,29.871,8.079,39.781,20.366c-15.27,14.203-31.074,27.876-47.41,40.884    C725.882,342.988,707.636,382.007,763.951,328.908z"/>
		<path fill="#FAC135" d="M718.767,367.887c10.896,8.481,24.172,14.827,29.637,28.479c-19.051,14.746-38.838,28.519-59.385,41.071    c-14.484-6.71-30.129-11.006-46.516-12.323C668.957,407.487,694.256,388.151,718.767,367.887z"/>
		<path fill="#FF801D" d="M628.485,434.11c17.427,0.838,34.655,2.891,50.155,9.584c-0.48,0.276-0.947,0.577-1.428,0.856    c-21.519,12.469-43.953,23.199-66.339,34.033C574.949,447.942,577.148,469.179,628.485,434.11z"/>
		<path fill="#FF801D" d="M565.041,469.442c3.169-1.564,6.291-3.212,9.438-4.816c9.219,5.111,18.57,11.289,27.138,18.445    c-22.567,11.123-45.464,22.299-66.202,36.579c-8.166-7.879-17.561-14.648-28.421-19.977    C525.655,488.314,545.48,479.104,565.041,469.442z"/>
		<path fill="#FF5671" d="M630.339,518.635c12.711,28.833,17.504,60.895,23.688,91.584c-20.569,11.919-42.016,22.329-63.821,31.858    c-8.99-41.447-21.46-87.187-50.659-118.25c21.14-14.149,44.042-25.426,66.854-36.594    C616.359,496.337,624.894,506.849,630.339,518.635z"/>
		<path fill="#FAC135" d="M497.623,505.614c10.6,5.953,21.329,11.705,29.532,19.898c-17.343,12.775-33.357,27.733-47.891,43.999    c-9.4-9.112-20.512-16.47-32.624-21.819C462.526,532.082,479.196,517.861,497.623,505.614z"/>
		<path fill="#FAC135" d="M318.352,797.118c11.589-29.44-2.427-66.287-19.781-92.658c-10.915-16.146-25.865-31.602-45.076-35.257    c40.297-22.6,60.095-11.119,82.06,26.618c9.471,17.459,27.1,63.05,13.895,80.102C341.372,785.751,329.409,791.351,318.352,797.118    z"/>
		<path fill="#FF801D" d="M268.008,806.019c-24.55-14.322-39.884-40.975-49.115-67.133c-6.306-19.266-9.498-50.354,14.701-58.867    c45.327-13.68,81.345,61.357,79.117,98.396C311.859,801.714,289.506,817.884,268.008,806.019z"/>
		<path fill="#808080" d="M325.509,804.976c21.45-9.802,43.51-26.896,38.106-52.887c-2.718-19.874-7.976-39.642-17.42-57.409    c-23.798-44.011-51.381-60.579-97.781-33.965c-37.05-58.594-70.267-127.816-60.984-198.782c1.376-4.44,3.456-7.486,7.073-3.477    c4.831,5.356,5.388,13.338,7.411,19.955c2.211,7.229,5.157,14.24,8.417,21.051c22.806,45.422,56.466,84.524,90.751,121.658    c67.569,69.794,106.795,166.801,97.185,264.429c-14.913,6.646-33.644,13.942-50.217,9.753    C342.728,864.706,335.522,834.396,325.509,804.976z"/>
		<path fill="#D5D5D5" d="M353.969,935.408c-7.722-57.354-10.047-17.647,43.71-43.204c-2.236,21.896-6.567,43.521-12.44,64.726    c-5.665,19.318-10.366,40.952-22.719,57.266C355.887,988.693,358.028,961.479,353.969,935.408z"/>
		<path fill="#D5D5D5" d="M616.291,803.678c9.763,9.997,23.109,19.62,32.702,27.952c1.459,5.424-2.441,12.549-6.562,19.103    c-50.253,69.911-169.424,145.408-254.198,161.036c-18.944,3.949-10.554,0.267-6.786-11.919    c14.299-35.652,22.934-73.794,26.45-111.99c48.029-21.481,94.656-47.369,133.625-83.093    C598.839,754.517,561.75,749.077,616.291,803.678z"/>
		<path fill="#808080" d="M577.439,757.835c-43.97,55.762-104.567,94.878-169.022,123.119c7.529-92.762-27.206-185.902-89.147-254.7    c-34.626-38.56-70.845-76.591-95.712-122.544c-4.113-7.637-7.878-15.492-10.736-23.691c17.738,21.028,35.32,42.181,54.691,61.774    c38.874,37.793,63.198,61.888,111.626,20.608c41.517-32.939,94.271,5.219,116.37,43.188    C525.512,654.802,543.053,711.141,577.439,757.835z"/>
		<path fill="#FBF199" d="M536.727,664.03c-15.191-31.349-29.115-64.621-53.278-90.32c14.808-16.186,30.417-31.167,47.897-44.08    c29.208,30.161,40.88,75.676,49.635,116.414C566.35,652.331,551.552,658.217,536.727,664.03z"/>
		<path fill="#FBF199" d="M663.059,604.898c-5.604-29.416-11.485-59.098-22.427-87.051c28.809,9.379,55.744,25.324,77.657,46.186    C701.263,579.341,682.654,593.037,663.059,604.898z"/>
		<path fill="#FF5671" d="M725.596,557.351c-25.169-24.076-56.694-42.105-90.231-51.501c-5.801-6.044-10.614-14.654-17.297-20.511    c-0.846-0.855-1.766-1.635-2.63-2.471c16.038-7.733,32.1-15.426,47.802-23.777c7.474-3.975,14.816-8.188,22.102-12.501    c32.349,15.147,58.278,43.271,73.073,76.821C747.99,535.226,737.091,546.606,725.596,557.351z"/>
		<path fill="#FBF199" d="M765.496,515.274c-14.866-31.905-39.655-58.716-70.153-74.702c19.158-11.87,37.635-24.854,55.487-38.637    c2.031,5.115,3.677,10.406,5.267,15.447c7.104,22.514,12.092,46.032,14.539,69.521    C771.345,496.938,774.416,508.29,765.496,515.274z"/>
		<path fill="#FF5671" d="M781.314,495.962c-2.955-34.277-9.938-68.16-22.363-100.349c11.056-8.782,21.886-17.841,32.449-27.16    c5.336-4.704,10.599-9.492,15.813-14.33c0.271,0.407,0.575,0.763,0.84,1.179c13.604,21.584,18.514,48.211,22.294,73.063    C814.693,451.386,798.669,474.192,781.314,495.962z"/>
		<path fill="#FBF199" d="M1011.875,275.972c-19.278,57.02-84.938,5.183-115.082,51.044c-20.901,28.737-37.965,60.286-58.404,89.437    c-4.03-24.043-9.905-49.197-23.893-69.211c30.41-28.306,57.234-60.052,85.521-90.396c22.442-23.784,49.551-52.903,84.707-53.883    c3.966-0.161,7.828-0.451,10.112,3.373C1011.281,224.667,1019.511,252.033,1011.875,275.972z"/>
		<path fill="#EE9E2B" d="M335.554,695.821c-3.597-6.181-7.14-11.58-10.72-16.318c8.799,16.979,14.726,34.205,12.96,54.674    c-1.256,14.549-6.865,26.562-15.309,36.521c0.322,9.127-0.848,18.073-4.134,26.42c11.058-5.769,23.021-11.367,31.097-21.195    C362.654,758.871,345.026,713.28,335.554,695.821z"/>
		<path fill="#EE9E2B" d="M479.265,569.513c14.533-16.266,30.548-31.224,47.891-43.999c-2.853-2.849-6.022-5.389-9.373-7.761    c-5.278,5.328-10.659,10.556-16.304,15.53c-6.761,5.959-13.73,11.716-21.236,16.716c-6.289,4.189-12.135,6.055-18.367,5.924    C468.114,559.892,473.982,564.39,479.265,569.513z"/>
		<path fill="#EE9E2B" d="M910.781,237.353c18.15-18.059,40.055-36.004,65.98-39.561c-19.898-1.13-40.123,9.334-56.228,19.805    c-22.928,14.904-42.25,36.748-61.202,56.209c-8.529,8.762-17.058,17.709-24.517,27.416c-7.708,10.029-15.773,21.764-28.523,25.513    c-6.963,2.047-13.856-1.079-20.854-2.91c6.376,2.669,15.277,7.669,25.426,18.69C846.365,309.569,876.489,271.454,910.781,237.353z    "/>
		<path fill="#EE9E2B" d="M689.019,437.438c20.547-12.554,40.334-26.325,59.385-41.071c-2.358-5.894-6.213-10.389-10.664-14.318    c-9.133,9.116-18.686,17.699-29.231,25.39c-7.113,5.188-14.66,9.758-22.363,14.008c-4.949,2.729-9.951,5.102-15.275,7.039    c-1.214,0.44-2.4,0.767-3.574,1.01C674.772,431.544,682.033,434.202,689.019,437.438z"/>
		<path fill="#FBE134" d="M723.119,371.109c-1.476-1.052-2.936-2.118-4.354-3.223c-24.511,20.265-49.81,39.601-76.264,57.228    c1.858,0.149,3.708,0.35,5.549,0.574c14.724-11.439,29.461-22.849,44.408-34.015C702.32,384.311,712.771,377.769,723.119,371.109z    "/>
		<path fill="#FBE134" d="M313.015,666.842c-15.259-12.542-32.912-12.561-59.521,2.361c3.637,0.691,7.119,1.81,10.454,3.271    c9.104-4.782,17.986-9.409,29.321-9.385C300.007,663.106,306.552,664.711,313.015,666.842z"/>
		<path fill="#FBE134" d="M497.623,505.614c-18.428,12.247-35.098,26.468-50.981,42.078c1.804,0.796,3.535,1.727,5.292,2.61    c16.512-14.827,33.027-28.953,50.624-41.92C500.916,507.461,499.27,506.54,497.623,505.614z"/>
		<path fill="#FBE134" d="M949.203,184.641c-13.149-0.233-26.573,3.327-38.092,9.648c-33.986,19.391-57.363,52.116-86.291,77.85    c-47.438,48.036-55.957,45.949-45.664,49.38c3.498-5.146,10.584-10.877,12.959-13.198c6.24-6.095,12.785-11.862,19.152-17.817    c16.377-15.317,31.754-31.75,47.861-47.359c16.327-15.824,33.227-31.708,52.096-44.49    C923.25,190.509,935.906,186.618,949.203,184.641z"/>
		<path fill="#EF6200" d="M535.416,519.65c20.737-14.28,43.634-25.456,66.202-36.579c-3.601-3.009-7.358-5.802-11.169-8.457    c-10.597,9.594-21.79,16.914-35.214,23.035c-8.577,3.907-20.412,10.023-31.566,12.172    C527.83,512.87,531.766,516.129,535.416,519.65z"/>
		<path fill="#EF6200" d="M756.323,390.158c16.336-13.008,32.142-26.681,47.41-40.884c-2.982-3.695-6.34-6.857-9.965-9.584    c-6.629,8.818-14.926,16.486-23.869,22.602c-7.973,5.452-17.166,9.134-26.838,9.758c-0.555,0.037-1.104-0.025-1.656-0.034    C745.74,375.962,750.824,381.642,756.323,390.158z"/>
		<path fill="#EF6200" d="M678.64,443.694c-4.834-2.088-9.854-3.683-14.978-4.972c-19.428,17.295-44.789,31.305-68.738,27.501    c3.966,2.803,9.302,6.689,15.949,12.36c22.386-10.834,44.82-21.564,66.339-34.033C677.693,444.272,678.158,443.972,678.64,443.694    z"/>
		<path fill="#EF6200" d="M298.251,790.958c-21.414,27.578-50.046-5.725-61.493-24.402c-6.526-10.646-11.958-22.141-16.094-33.913    c-3.573-10.169-4.727-20.64-5.165-31.2c-2.687,12.164-0.138,26.655,3.394,37.443c9.231,26.158,24.565,52.811,49.115,67.133    c21.498,11.865,43.851-4.305,44.703-27.604c0.789-13.098-3.224-30.939-10.72-47.937    C307.274,750.14,310.952,774.601,298.251,790.958z"/>
		<path fill="#FACB1A" d="M284.904,736.884c-3.764-10.713-9.77-21.049-17.761-29.148c-19.779-20.058-35.447-15.552-30.35,15.021    c2.808,16.826,11.017,32.763,21.179,46.547c8.28,11.229,28.315,23.642,32.799,2.27    C293.031,760.799,288.385,746.794,284.904,736.884z"/>
		<path fill="#F3AF79" d="M770.636,486.903c-0.427-4.086-0.955-8.168-1.531-12.25c-0.307,3.151-0.92,6.193-2.088,8.95    c-5.025,11.846-28.596-19.116-32.111-22.252c-8.094-7.215-22.895-18.354-35.354-18.452c28.563,16.19,51.77,41.954,65.944,72.375    C774.416,508.29,771.345,496.938,770.636,486.903z"/>
		<path fill="#F3AF79" d="M1014.246,249.001c-0.032,12.219-4.127,24-12.627,33.494c-19.006,21.223-51.171,13.535-76.223,16.904    c-30.52,4.104-46.246,39.396-59.951,62.855c-3.951,6.764-7.92,13.514-12.127,20.123c-1.576,2.475-7.525,13.313-12.693,8.6    c-3.688-3.365-5-9.986-6.528-14.523c-3.433-10.175-7.56-18.65-16.187-23.798c11.513,19.039,16.802,41.858,20.479,63.796    c20.439-29.15,37.503-60.699,58.405-89.437c30.143-45.861,95.803,5.976,115.082-51.044    C1014.662,267.235,1015.316,258.045,1014.246,249.001z"/>
		<path fill="#F3AF79" d="M580.981,646.044c-1.426-6.635-2.943-13.397-4.587-20.198c-0.945,2.999-2.097,5.938-3.616,8.768    c-4.094,7.625-11.865,11.059-19.895,12.803c-12.225,2.656-19.03-4.676-24.417-14.336c-9.181-16.464-19.536-38.748-36.575-49.588    c19.148,24.053,31.505,53.034,44.835,80.539C551.552,658.217,566.35,652.331,580.981,646.044z"/>
		<path fill="#F3AF79" d="M718.289,564.033c-3.446-3.282-7.061-6.397-10.745-9.432c0.643,5.196,0.108,10.367-3.355,14.218    c-4.094,4.545-9.852,8.43-14.789,11.896c-6.307,4.43-15.586,8.968-22.162,2.844c-4.248-3.96-5.943-10.729-7.522-16.085    c-2.592-8.807-4.472-17.479-7.726-26.103c-1.985-5.266-4.371-9.234-7.396-12.688c8.478,24.726,13.581,50.572,18.465,76.217    C682.654,593.037,701.263,579.341,718.289,564.033z"/>
		<path fill="#FFF7CF" d="M996.486,232.82c-19.396-41.044-76.981,17.835-104.291,51.434c-9.225,11.351-4.589,12.012,5.388,7.413    c9.512-4.381,19.491-7.66,29.854-10.03c15.953-3.65,32.231-3.844,48.338-6.207C997.734,272.21,1005.623,252.155,996.486,232.82z"/>
		<path fill="#FFF7CF" d="M560.61,599.452c-3.645-14.595-11.289-28.705-20.222-41.294c-6.164-8.688-12.831-10.417-21.351-4.233    c-4.713,3.418-9.156,7.213-11.436,11.878c-2.722,5.569,4.208,12.602,7.186,16.395c4.909,6.25,10.535,11.791,15.03,18.387    c3.953,5.804,6.477,12.683,9.523,18.979c3.055,6.313,6.836,11.995,14.334,12.099C568.054,631.86,562.49,606.984,560.61,599.452z"/>
		<path fill="#FFF7CF" d="M662.371,547.278c0.966,2.663,1.976,5.312,2.992,7.946c1.775,4.593,3.539,10.062,6.603,13.952    c5.18,6.588,12.613,3.503,18.108-1.512c12.357-11.271-3.286-21.089-17.147-27.032    C661.897,535.908,658.822,537.464,662.371,547.278z"/>
		<path fill="#FFF7CF" d="M757.494,448.132c-1.207-5.813-2.291-12.91-4.217-19.44c-3.52-11.935-8.799-10.363-17.957-4.359    c-6.505,4.268-12.438,9.691-10.229,14.965c3.207,7.654,11.916,11.73,17.746,17.059c2.877,2.63,4.797,6.019,6.926,9.189    c5.844,8.72,11.988,6.084,10.504-4.439C759.584,456.24,758.15,451.296,757.494,448.132z"/>
		<path fill="#BEBEBE" d="M368.188,1005.313c8.263-14.838,12.36-32.384,17.052-48.383c5.873-21.204,10.204-42.828,12.44-64.726    c-21.655,10.295-34.199,10-40.965,9.725c8.854,4.217,22.63,0.208,26.328,9.999c3.555,9.407,1.414,21.928,0.286,31.579    C380.806,965.098,374.963,985.243,368.188,1005.313z"/>
		<path fill="#BEBEBE" d="M642.433,850.731c4.119-6.554,8.021-13.679,6.562-19.103c-9.104-7.909-21.558-16.984-31.152-26.438    c9.004,11.813,19.722,24.649,16.436,38.494c-2.457,10.354-11.637,19.747-18.508,27.325c-26.55,29.281-59.757,53.067-93.119,73.897    c-19.674,12.286-40.179,23.226-61.271,32.864c-12.37,5.651-25.031,10.627-37.87,15.104c-3.339,1.164-32.339,13.049-32.901,4.834    c-0.602-8.799,5.364-19.633,7.728-27.869c2.916-10.167,4.82-20.602,5.938-31.109c0.84-7.888,0.89-15.905,0.247-23.862    c-4.557,29.055-12.148,57.743-23.071,84.978c-3.768,12.186-12.158,15.868,6.786,11.919    C473.009,996.141,592.179,920.644,642.433,850.731z"/>
		<path fill="#EFEFEF" d="M605.041,821.47c-5.145-7.629-11.029-14.868-19.686-18.481c-7.074-2.954-14.327,2.942-19.136,7.322    c-19.162,17.444-37.619,34.125-59.484,48.344c-19.196,12.483-39.603,23.039-60.797,31.674    c-11.393,4.641-13.877,8.475-15.688,21.805c-1.169,8.57-3.137,17.004-5.222,25.517c-6.428,26.219-2.411,35.633,25.201,25.602    c26.357-9.573,64.293-31.002,87.237-46.279c21.943-14.612,44.227-30.347,63.305-48.623c5.387-5.159,13.568-12.547,14.355-20.573    C616.111,837.761,610.416,829.444,605.041,821.47z"/>
		<path fill="#515151" d="M383.893,891.402c-2.646,0.091-5.291,0.151-7.941,0.085c-14.163-0.361-21.171-7.085-24.829-20.371    c-3.352-12.166-6.596-24.325-7.822-36.926c-1.54-15.81,4.493-25.873,14.614-37.314c20.336-22.99,12.842-55.744-3.209-82.641    c4.317,12.236,7.155,25.019,8.911,37.854c5.403,25.989-16.657,43.085-38.106,52.887c10.013,29.421,17.219,59.73,22.541,90.326    C359.623,898.229,372.248,895.547,383.893,891.402z"/>
		<path fill="#515151" d="M577.439,757.835c-8.413-11.423-15.809-23.432-22.634-35.766c1.669,8.311,2.533,16.738,2.063,25.244    c-1.456,26.467-31.706,46.578-51.066,60.608c-18.455,13.374-38.515,29.896-59.999,38.002c-15.021,5.666-20.7-4.896-23.179-17.796    c-2.288-11.896-3.94-23.896-6.376-35.788c-5.732-27.983-13.033-56.168-25.959-81.768c-11.718-23.206-28.416-43.513-45.182-63.197    c-20.19-23.71-42.17-45.696-63.682-68.188c-8.529-8.916-17.378-17.756-25.93-26.865c19.762,25.819,42.077,49.771,63.771,73.931    c61.941,68.798,96.678,161.938,89.147,254.7C472.871,852.713,533.469,813.597,577.439,757.835z"/>
		<path fill="#A0A0A0" d="M508.641,688.553c-4.583-12.714-10.331-25.063-16.701-37.111c-11.472-21.701-25.866-42.556-44.527-59.742    c-16.61-15.306-36.869-16.094-57.389-6.957c-9.036,4.022-17.611,10.915-26.938,15.505c-11.21,5.512-10.465,7.946-1.999,15.616    c32.617,29.557,53.618,69.944,62.033,110.815c3.251,15.792,5.556,34.542,19.143,46.148c13.63,11.646,33.728,3.424,46.021-5.521    c16.167-11.768,29.304-26.482,28.938-46.139C517.014,710.115,512.379,698.921,508.641,688.553z"/>
		<path fill="#DF3F58" d="M741.679,494.143c5.377,15.016,7.266,33.174-10.338,40.014c-14.795,5.748-29.881-8.199-40.48-16.374    c-15.854-12.229-40.483-23.924-61.266-18.895c1.885,2.479,3.768,4.877,5.77,6.962c33.537,9.396,65.063,27.425,90.231,51.501    c11.495-10.743,22.394-22.125,32.818-33.938C753.853,513.063,748.222,503.236,741.679,494.143z"/>
		<path fill="#DF3F58" d="M654.027,610.219c-1.661-8.252-3.231-16.6-4.874-24.958c-1.146,3.195-2.519,6.32-4.183,9.336    c-4.955,8.979-13.367,15.832-22.949,19.272c-12.998,4.664-22.397-3.792-27.962-14.768c-4.585-9.041-6.936-19.17-11.11-28.43    c-3.59-7.97-8.205-15.51-13.594-22.387c-6.628-8.459-15.082-17.799-25.818-19.933c26.345,30.877,38.102,74.232,46.669,113.724    C612.011,632.548,633.456,622.138,654.027,610.219z"/>
		<path fill="#DF3F58" d="M830.346,428.364c-0.977-6.419-2.038-12.953-3.294-19.49c-0.322,4.686-0.984,9.363-2.272,14.057    c-4.05,14.754-20.366,36.103-35.572,20.969c-11.773-11.721-12.517-34.425-28.01-42.094c10.989,30.336,17.352,62.064,20.116,94.156    C798.669,474.192,814.693,451.386,830.346,428.364z"/>
	</g>
</g>
</svg>
