<?xml version="1.0" encoding="UTF-8"?>
<!-- Generator: Adobe Illustrator 26.5.0, SVG Export Plug-In . SVG Version: 6.00 Build 0)  -->
<svg xmlns="http://www.w3.org/2000/svg" xmlns:xlink="http://www.w3.org/1999/xlink" version="1.1" id="Capa_1" x="0px" y="0px" viewBox="0 0 512 512" style="enable-background:new 0 0 512 512;" xml:space="preserve" width="512" height="512">
<g>
	<path style="fill:#FFFFFF;" d="M441.581,7.131c-25.978-12.628-52.416-7.568-63.889,20.127   c-53.47,4.968-124.906,1.773-161.916-13.326c-9.201-8.856-21.765-14.013-34.574-13.931C130.666,1,116.139,57.906,137.382,96.904   c17.597,34.168,46.815,37.039,46.414,77.954c-4.138-1.981-8.914-2.843-14.006-3.494c-0.927-9.88-4.624-21.799-14.441-21.612   c-9.818-0.186-13.515,11.737-14.441,21.612c-9.88,0.927-21.799,4.623-21.613,14.441c-0.186,9.819,11.738,13.515,21.612,14.441   c0.655,5.142,1.545,10.05,3.591,14.198c-0.87,1.673-1.373,3.596-1.188,5.515c-23.649-11.621-48.49-22.9-69.492-36.423   c-4.821-3.125-10.403-4.809-16.013-4.804c-18.228-0.349-33.703,18.105-29.702,36.14c0.074,0.442,12.725,66.523,12.775,66.932   c0,0.001,0.901,4.701,0.901,4.701c-17.218,12.739-22.967,40.407-11.992,57.988c0.782,3.442,13.101,57.645,14.26,62.742   c1.333,5.865,4.372,11.074,8.724,15.068l5.125,49.536c0.983,9.506,8.932,16.675,18.489,16.675c9.196,0,16.916-6.592,18.358-15.674   l6.224-39.214l152.323,18.059l4.515,43.641c0.983,9.506,8.932,16.675,18.489,16.675c9.196,0,16.916-6.592,18.358-15.674   l7.677-48.364c-0.451-0.325,40.122-15.426,41.335-15.923l2.09,20.197c0.983,9.506,8.931,16.675,18.489,16.675   c9.196,0,16.916-6.592,18.358-15.674l4.055-25.543c3.7,1.29,7.161,1.9,11.516,2.457c0.928,9.879,4.624,21.799,14.441,21.612   c9.819,0.186,13.515-11.738,14.44-21.612c5.363-0.676,10.83-1.69,15.011-4.005c5.957-3.358,6.601-8.417,6.601-10.436   c0.184-8.036-8.342-12.613-17.533-13.842c1.344-2.006,2.142-4.814,2.651-7.483c17.124-2.281,17.109-21.636,0-23.911   c-0.85-5.251-3.413-10.584-8.481-12.263c27.865-66.034,51.966-132.472,59.949-196.947   C489.976,107.271,493.919,31.678,441.581,7.131z"/>
	<g>
		<g>
			<g>
				<path style="fill:#9BAEAF;" d="M181.544,185.815c0,2.612-8.977,4.79-20.912,5.296c-0.505,11.936-2.684,20.912-5.296,20.912      s-4.791-8.977-5.296-20.913c-11.935-0.506-20.911-2.685-20.911-5.296s8.976-4.79,20.911-5.295      c0.505-11.935,2.684-20.911,5.296-20.911c2.612,0,4.791,8.976,5.296,20.911C172.567,181.024,181.544,183.203,181.544,185.815z"/>
			</g>
			<g>
				<path style="fill:#FC7E21;" d="M183.085,219.329c0,1.494-5.135,2.74-11.963,3.029c-0.289,6.828-1.536,11.964-3.03,11.964      s-2.741-5.135-3.03-11.964c-6.828-0.289-11.963-1.536-11.963-3.03c0-1.494,5.135-2.74,11.963-3.029      c0.289-6.828,1.536-11.963,3.03-11.963c1.494,0,2.741,5.135,3.03,11.963C177.949,216.588,183.085,217.835,183.085,219.329z"/>
			</g>
		</g>
		<g>
			<g>
				<path style="fill:#9BAEAF;" d="M412.597,389.511c-2.612,0-4.79,8.977-5.295,20.912c-11.936,0.505-20.913,2.684-20.913,5.296      c0,2.612,8.977,4.791,20.913,5.296c0.505,11.935,2.685,20.911,5.296,20.911c2.612,0,4.79-8.977,5.296-20.911      c11.935-0.505,20.911-2.685,20.911-5.296c0-2.612-8.976-4.791-20.911-5.296C417.388,398.488,415.208,389.511,412.597,389.511z"/>
			</g>
			<g>
				<path style="fill:#9B3333;" d="M421.812,367.445c-1.494,0-2.74,5.135-3.029,11.963c-6.828,0.289-11.964,1.536-11.964,3.03      c0,1.494,5.136,2.741,11.964,3.03c0.289,6.828,1.536,11.963,3.03,11.963c1.494,0,2.74-5.135,3.029-11.963      c6.828-0.289,11.963-1.536,11.963-3.03c0-1.494-5.135-2.741-11.963-3.03C424.553,372.58,423.306,367.445,421.812,367.445z"/>
			</g>
		</g>
		<g>
			<g>
				<path style="fill:#9B3333;" d="M61.405,410.206l6.272,60.628c0.461,4.456,4.215,7.842,8.695,7.842l0,0      c4.299,0,7.959-3.125,8.633-7.371l10.635-67.001L61.405,410.206z"/>
				<path style="fill:#9B3333;" d="M261.314,433.693l6.272,60.628c0.461,4.456,4.215,7.842,8.695,7.842l0,0      c4.299,0,7.959-3.125,8.633-7.371l10.635-67.001L261.314,433.693z"/>
				<path style="fill:#9B3333;" d="M349.262,390.605l6.272,60.628c0.461,4.456,4.215,7.842,8.695,7.842l0,0      c4.299,0,7.959-3.125,8.633-7.371l10.635-67.001L349.262,390.605z"/>
			</g>
			<g>
				<g>
					<path style="fill:#FFBC49;" d="M462.782,167.031l-30.98,71.247l-18.412,42.321l-23.509,54.063L173.55,301.6       c10.807-16.838,20.307-34.53,28.099-53.395c9.233-22.228,16.037-46.057,19.773-71.995       c6.458-44.403,3.843-94.916-11.261-153.969c0,0,62.548,30.26,211.287,10.193L462.782,167.031z"/>
				</g>
				<g style="opacity:0.15;">
					<path style="fill:#FFFFFF;" d="M462.782,167.031l-30.98,71.247l-18.412,42.321l-23.509,54.063L173.55,301.6       c10.807-16.838,20.307-34.53,28.099-53.395c9.233-22.228,16.037-46.057,19.773-71.995       c6.458-44.403,3.843-94.916-11.261-153.969c0,0,62.548,30.26,211.287,10.193L462.782,167.031z"/>
				</g>
				<g style="opacity:0.2;">
					<path style="fill:#FFFFFF;" d="M365.677,56.063c-1.771-2.714-5.286-3.686-8.457-4.343c-18.115-3.829-54.669-5.389-73.184-5.474       l0.301,0.025c-8.637-0.376-17.28-0.634-25.923-0.751c-3.171-0.029-6.457-0.029-9.4,1.2c-2.943,1.229-5.458,4.029-5.372,7.201       c0.143,4.486,4.914,7.172,9.087,8.8c31.488,12.344,66.575,15.344,99.691,8.515c3.914-0.8,7.943-1.829,10.944-4.457       C366.334,64.15,367.848,59.406,365.677,56.063z"/>
				</g>
				<g>
					<g>
						<g>
							<path style="fill:#333B36;" d="M306.183,184.343c13.66,3.439,23.568,2.983,33.353-8.149c0.591-0.677,1.745,0.071,1.375,0.883         c-3.974,10.325-15.447,15.818-26.052,12.826c-3.364-0.829-6.503-2.22-9.32-4.058         C304.77,185.37,305.314,184.109,306.183,184.343L306.183,184.343z"/>
						</g>
						<g>
							<g>
								<g>
									<path style="fill:#FFFFFF;" d="M399.814,190.465c-7.331,14.141-24.776,19.644-38.918,12.312           c-7.956-4.128-13.192-11.494-14.907-19.651c-1.37-6.321-0.6-13.11,2.595-19.267c0.32-0.598,0.64-1.195,1.044-1.769           c7.628-12.559,23.646-17.361,37.007-10.97c0.324,0.122,0.585,0.257,0.874,0.399c6.837,3.54,11.645,9.465,13.945,16.201           C403.976,174.94,403.614,183.133,399.814,190.465z"/>
								</g>
							</g>
							<path style="fill:#9BAEAF;" d="M399.819,179.425c-4.901,12.57-19.026,19.597-32.008,15.921         c-10.078-2.854-17.136-11.134-18.913-20.77c-1.534-8.322,2.241-16.894,9.258-21.624c8.215-5.537,19.058-6.652,28.558-2.108         c0.324,0.122,0.585,0.257,0.874,0.399c2.996,1.551,5.602,3.56,7.778,5.894c5.493,5.892,7.401,14.473,4.559,22.01         C399.89,179.24,399.855,179.332,399.819,179.425z"/>
						</g>
						<g>
							<g>
								<g>
									<path style="fill:#FFFFFF;" d="M289.439,182.107c-12.444,9.551-30.249,7.216-39.778-5.209           c-5.398-7.022-6.984-15.744-5.122-23.709c1.405-6.194,4.929-11.938,10.31-16.087c2.778-2.132,5.806-3.671,8.98-4.629           c10.717-3.291,22.777,0.035,30.251,9.103c0.203,0.25,0.406,0.5,0.609,0.75c6.082,7.95,7.324,18.047,4.174,26.805           C297.121,174.125,293.955,178.656,289.439,182.107z"/>
								</g>
							</g>
							<path style="fill:#9BAEAF;" d="M295.925,173.441c-9.564,11.148-26.359,12.412-37.507,2.848         c-11.126-9.545-12.431-26.337-2.868-37.485c1.012-1.179,2.103-2.25,3.262-3.209c3.117-2.578,7.013-4.127,11.042-4.477         c9.041-0.784,18.273,2.79,24.412,10.239c0.203,0.251,0.406,0.5,0.609,0.75c5.076,6.635,6.781,14.765,5.375,22.364         c-0.608,3.288-2.118,6.385-4.289,8.927C295.949,173.412,295.937,173.426,295.925,173.441z"/>
						</g>
						<g>
							<path style="fill:#333B36;" d="M284.306,123.72c-8.615-7.611-22.451-5.621-31.01,1.062c-2.888,2.186-5.406,4.798-7.24,7.934         c-0.221,0.379-0.094,0.866,0.285,1.087c0.217,0.127,0.48,0.136,0.698,0.051c6.223-2.496,11.813-5.393,18.037-7.213         c6.186-1.866,11.992-2.168,18.62-1.547C284.435,125.199,284.875,124.191,284.306,123.72L284.306,123.72z"/>
						</g>
						<g>
							<path style="fill:#333B36;" d="M375.007,136.722c7.045,2.14,13.066,4.941,18.686,9.416c5.834,4.36,10.03,9.876,15.389,15.079         c0.311,0.335,0.854,0.353,1.161,0.002c-1.53-15.805-19.104-30.476-35.238-26.001         C374.269,135.413,374.274,136.537,375.007,136.722L375.007,136.722z"/>
						</g>
					</g>
					<g>
						<path style="fill:#FC7E21;" d="M266.305,216.183c0,22.228-18.012,40.267-40.24,40.267c-9.179,0-17.638-3.069-24.416-8.245        c9.233-22.228,16.037-46.057,19.773-71.995c1.521-0.187,3.069-0.267,4.643-0.267        C248.293,175.943,266.305,193.955,266.305,216.183z"/>
						<path style="fill:#FC7E21;" d="M431.802,238.278l-18.412,42.321c-6.111,3.789-13.316,5.951-21.028,5.951        c-22.255,0-40.267-18.039-40.267-40.267s18.012-40.267,40.267-40.267C411.842,206.016,428.092,219.892,431.802,238.278z"/>
						<g style="opacity:0.18;">
							<path style="fill:#9B3333;" d="M421.448,32.435c-17.492,2.36-33.748,4.002-48.894,5.101c-0.045,1.435-0.081,2.871-0.15,4.305         c-0.877,18.3-2.863,36.905,4.382,54.276c6.554,15.714,17.544,29.102,27.087,43.036c9.201,13.435,18.778,27.933,20.254,44.593         c0.754,8.514-1.022,16.9-4.629,24.612c-2.598,5.557-6.634,10.544-12.371,13.02c-11.002,4.747-23.953,0.12-34.701-3.152         c-12.279-3.738-27.678-7.134-38.991,1.081c-5.908,4.29-8.735,11.427-10.17,18.355c-1.471,7.102-1.538,14.472-1.008,21.682         c1.069,14.556,4.853,28.471,12.088,41.194c6.125,10.772,13.966,20.223,22.524,29.079l33.012,5.045l23.509-54.063         l18.412-42.321l30.98-71.247L421.448,32.435z"/>
						</g>
					</g>
				</g>
				<path style="fill:#FFBC49;" d="M317.798,365.662L38.975,340.556l14.66,64.504c1.827,8.039,8.516,14.058,16.703,15.028      l197.47,23.411c11.661,1.382,23.468-0.757,33.902-6.142l0,0L317.798,365.662z"/>
				<path style="opacity:0.18;fill:#9B3333;" d="M317.798,365.662L38.975,340.556l14.66,64.504      c1.827,8.039,8.516,14.058,16.703,15.028l197.47,23.411c11.661,1.382,23.468-0.757,33.902-6.142l0,0L317.798,365.662z"/>
				<polygon style="opacity:0.18;fill:#9B3333;" points="317.808,365.659 315.727,374.945 41.17,350.235 38.982,340.549     "/>
				<path style="fill:#FFBC49;" d="M205.427,263.824L65.794,286.246c-20.625,3.312-35.194,22.874-31.199,43.378      c1.405,7.212,4.381,10.932,4.381,10.932l278.823,25.106l72.091-31.008l6.779-48.401L205.427,263.824z"/>
				<path style="opacity:0.13;fill:#FFFFFF;" d="M205.427,263.824L65.794,286.246c-20.625,3.312-35.194,22.874-31.199,43.378      c1.405,7.212,4.381,10.932,4.381,10.932l278.823,25.106l72.091-31.008l6.779-48.401L205.427,263.824z"/>
				<path style="opacity:0.13;fill:#FFFFFF;" d="M117.481,298.931c10.434,0.941,20.893,1.566,31.335,2.423      c11.661,0.957,23.277,2.408,34.913,3.616c25.865,2.685,51.766,5.001,77.674,7.222c12.975,1.112,25.95,2.172,38.936,3.145      c12.784,0.958,25.58,1.937,38.406,2.037c18.248,0.143,36.244-2.579,54.27-5.039l3.653-26.083l-191.242-22.43L65.794,286.246      c-1.311,0.21-2.596,0.49-3.855,0.827C79.336,294.685,98.74,297.241,117.481,298.931z"/>
				<path style="fill:#FFBC49;" d="M210.149,22.237c0,0,69.65,104.648-4.722,241.587L75.694,284.657l-23.049,6.298l-14.884-77.922      c-3.289-17.219,15.475-30.691,30.361-21.433c0.121,0.075,0.242,0.151,0.362,0.229c28.904,18.565,61.986,31.735,95.459,49.737      c7.849,4.221,17.559,0.09,20.159-8.435c4.983-16.338,11.132-42.284,9.18-66.156c-1.449-17.715-10.229-34.064-23.732-45.621      c-13.934-11.926-38.58-39.266-29.931-78.153c6.898-31.012,44.929-44.268,68.476-22.941      C208.797,20.898,209.482,21.557,210.149,22.237z"/>
				<path style="opacity:0.2;fill:#FFFFFF;" d="M52.391,197.575c-1.426,0.825-2.709,1.887-3.713,3.105      c-8.145,9.889-5.71,51.474,9.778,70.055c5.25,6.299,16.408,2.167,16.338-5.986c-0.169-19.638-2.377-42.777-6.566-59.112      c-0.823-3.21-1.891-6.64-4.725-8.553C60.336,194.947,55.927,195.53,52.391,197.575z"/>
				<path style="opacity:0.18;fill:#9B3333;" d="M205.438,263.815L75.699,284.655l-23.056,6.297l-2.108-10.994l5.303-1.442      c3.792-1.031,7.635-1.859,11.515-2.481l119.094-19.106c3.074-0.493,5.728-2.421,7.172-5.18      c70.53-134.777,2.374-237.194,2.374-237.194c-0.667-0.667-1.361-1.334-2.054-1.975c-0.4-0.347-0.801-0.72-1.201-1.067      c5.444,1.654,10.7,4.536,15.37,8.752c0.694,0.64,1.388,1.281,2.055,1.975C210.161,22.241,279.808,126.897,205.438,263.815z"/>
				<path style="fill:#FFBC49;" d="M475.439,160.262c0,0.01,0,0.01,0,0.02c-1.654,13.391-4.047,26.96-7.07,40.696      c-13.293,60.349-38.766,123.731-67.035,187.802c-3.712,8.389-10.614,14.967-19.191,18.206l-80.436,30.376l22.775-101.508      c0.404-1.782,0.591-3.574,0.591-5.347c0-8.133-4.076-15.882-11.097-20.441c-6.115-3.978-10.161-10.496-10.959-17.753      c-3.259-29.51,0.059-50.887,4.707-65.479c4.677-14.681,21.426-21.672,35.29-14.937l48.524,23.592      c11.008,5.347,24.419,2.924,32.385-6.351c9.521-11.107,12.505-24.813,12.416-37.83c-0.148-21.17-8.803-41.464-23.464-56.735      c-48.169-50.197-28.013-98.583-28.013-98.583c10.674-31.351,34.167-28.407,52.58-19.91      c16.532,7.631,28.417,22.539,32.976,40.174C478.954,89.22,479.909,124.067,475.439,160.262z"/>
				<path style="opacity:0.13;fill:#9B3333;" d="M413.867,341.581c-15.951,20.67-34.92,39.117-56.341,54.073      c-16.054,11.208-33.686,20.461-52.38,26.4l-3.434,15.303l80.43-30.375c8.583-3.241,15.484-9.811,19.188-18.204      c11.36-25.741,22.266-51.37,32.114-76.736C427.653,322.321,421.115,332.188,413.867,341.581z"/>
				<path style="opacity:0.2;fill:#FFFFFF;" d="M325.6,215.78c-1.603,0.411-3.138,1.114-4.45,2.066      c-10.65,7.732-20.303,51.723-10.828,75.886c3.212,8.191,15.087,7.387,17.37-1.111c5.498-20.467,10.053-45.213,10.749-63.505      c0.137-3.595,0.103-7.495-2.059-10.37C333.966,215.533,329.576,214.76,325.6,215.78z"/>
				<path style="opacity:0.2;fill:#FFFFFF;" d="M404.664,18.537c-1.603,0.411-3.138,1.114-4.45,2.066      c-10.65,7.732-25.013,48.993,1.65,79.303c5.811,6.606,19.537,7.417,17.37-1.111c-8.685-34.173-2.425-48.63-1.729-66.922      c0.137-3.595,0.103-7.495-2.059-10.37C413.03,18.29,408.64,17.517,404.664,18.537z"/>
				<path style="opacity:0.2;fill:#FFFFFF;" d="M163.148,22.658c-1.603,0.411-3.138,1.114-4.45,2.066      c-10.65,7.732-25.013,48.993,1.65,79.303c5.811,6.606,19.537,7.417,17.37-1.111c-8.685-34.173-2.425-48.63-1.729-66.922      c0.137-3.595,0.103-7.495-2.059-10.37C171.514,22.412,167.123,21.638,163.148,22.658z"/>
			</g>
		</g>
	</g>
</g>















</svg>
