<?xml version="1.0" encoding="UTF-8"?>
<!-- Generator: Adobe Illustrator 26.5.0, SVG Export Plug-In . SVG Version: 6.00 Build 0)  -->
<svg xmlns="http://www.w3.org/2000/svg" xmlns:xlink="http://www.w3.org/1999/xlink" version="1.1" id="Capa_1" x="0px" y="0px" viewBox="0 0 512 512" style="enable-background:new 0 0 512 512;" xml:space="preserve" width="512" height="512">
<g>
	<path style="fill:#FFFFFF;" d="M511.98,338.741c-0.188-15.081-0.992-30.852-8.482-44.28c-2.864-5.451-6.532-10.527-10.88-15.046   l-51.441-53.592c-0.783-7.18-3.581-14.012-8.054-19.723c3.648-2.88,5.959-11.031,6.538-16.956   c11.239-1.083,20.177-5.912,19.821-13.952c0.356-8.041-8.593-12.872-19.821-13.951c-1.082-11.24-5.912-20.177-13.951-19.821   c-4.6-0.386-11.122,3.79-12.999,14.252c-1.57-1.001-4.134-1.934-6.418-2.363c-1.179-8.884-9.838-15.712-18.182-9.613v-40.733   c0-14.08-11.455-25.535-25.535-25.535H149.44c-14.08,0-25.535,11.455-25.535,25.535v12.889c-6.3-3.853-14.922-2.094-17.479,10.083   c-6.18,0.934-12.099,5.345-11.886,11.777c-2.323,3.623-3.488,9.073-4.108,13.978c-11.239,1.082-20.177,5.912-19.821,13.951   c-0.356,8.04,8.593,12.872,19.821,13.951c0.559,4.127,1.237,7.8,2.716,11.271c-4.383,2.971-9.676,9.908-13.206,13.913   c-5.37,6.272-8.587,14.087-9.217,22.272c-8.318,9.67-56.699,56.609-61.428,67.191c-3.893,6.844-6.528,14.314-7.818,22.177   c-2.392,16.618-1.74,32.072,0.922,49.12c2.025,13.881,14.435,25.12,28.405,25.946c8.866,0.648,18.076,1.274,27.487,1.87v17.299   c1.016,31.898,47.261,31.887,48.27-0.001c0,0.001,0-14.633,0-14.633c8.056,0.379,16.122,0.727,24.135,1.039v6.239   c0.843,26.477,39.228,26.466,40.066,0c0,0,0-4.944,0-4.944c56.726,1.459,113.35,1.36,170.487-0.194v5.139   c0.844,26.478,39.228,26.466,40.066,0c0,0,0-6.469,0-6.469c8-0.313,16.067-0.656,24.135-1.027v14.853   c1.016,31.898,47.261,31.887,48.27-0.001c0,0.001,0-17.404,0-17.404c9.61-0.572,19.05-1.171,28.166-1.786   c4.216-0.296,8.274-1.41,12.049-3.34c10.308-5.198,16.671-15.977,17.104-27.421C511.73,353.401,512.092,346.025,511.98,338.741z"/>
	<g>
		<g>
			<path style="fill:#6D5137;" d="M362.568,205.208H149.432c-8.665,0-15.688-7.024-15.688-15.688v-86.664     c0-8.665,7.024-15.688,15.688-15.688h213.136c8.664,0,15.688,7.024,15.688,15.688v86.664     C378.256,198.184,371.232,205.208,362.568,205.208z"/>
			<path style="opacity:0.38;fill:#333B36;" d="M357.265,205.208H154.735c-7.842,0-14.199-6.357-14.199-14.199v-73.979     c0-7.842,6.357-14.199,14.199-14.199h202.529c7.842,0,14.199,6.357,14.199,14.199v73.979     C371.463,198.851,365.106,205.208,357.265,205.208z"/>
			<g>
				<g>
					<g>
						<path style="fill:#6D5137;" d="M82.421,424.833L82.421,424.833c-7.892,0-14.289-6.397-14.289-14.289v-35.482H96.71v35.482        C96.71,418.435,90.312,424.833,82.421,424.833z"/>
						<rect x="68.132" y="375.061" style="fill:#333B36;" width="28.578" height="21.653"/>
					</g>
					<g>
						<path style="fill:#6D5137;" d="M150.723,413.375L150.723,413.375c-5.626,0-10.187-4.561-10.187-10.187v-25.296h20.374v25.296        C160.91,408.814,156.349,413.375,150.723,413.375z"/>
						<rect x="140.537" y="377.892" style="fill:#333B36;" width="20.373" height="15.437"/>
					</g>
					<g>
						<path style="fill:#6D5137;" d="M429.579,424.833L429.579,424.833c7.892,0,14.289-6.397,14.289-14.289v-35.482H415.29v35.482        C415.29,418.435,421.688,424.833,429.579,424.833z"/>
						<rect x="415.29" y="375.061" style="fill:#333B36;" width="28.578" height="21.653"/>
					</g>
					<g>
						<path style="fill:#6D5137;" d="M361.277,413.375L361.277,413.375c5.626,0,10.187-4.561,10.187-10.187v-25.296H351.09v25.296        C351.09,408.814,355.651,413.375,361.277,413.375z"/>
						<rect x="351.09" y="377.892" style="fill:#333B36;" width="20.373" height="15.437"/>
					</g>
				</g>
				<g>
					<g>
						<path style="fill:#9BAEAF;" d="M502.153,341.346c-0.026,6.051-0.33,12.168-0.923,18.338c-0.079,0.87-0.171,1.74-0.264,2.624        c0,0.053-0.013,0.105-0.013,0.158c-0.013,0.079-0.013,0.158-0.026,0.237c-0.04,0.237-0.066,0.474-0.105,0.712        c-1.068,6.934-5.405,12.762-11.377,15.833c-1.674,0.857-3.48,1.503-5.379,1.885c-0.923,0.198-1.872,0.33-2.848,0.395        c-151.898,10.257-301.912,10.824-449.697,0.026c-5.194-0.382-9.901-2.623-13.407-6.077c-1.239-1.226-2.333-2.61-3.243-4.113        c-1.358-2.241-2.32-4.785-2.755-7.501c-1.437-8.925-2.228-17.705-2.254-26.288c-0.013-0.198-0.013-0.409-0.013-0.606        c0-0.817,0.013-1.622,0.026-2.426c0-0.659,0.026-1.318,0.04-1.978c0.013-0.514,0.039-1.042,0.066-1.556        c0.026-0.883,0.079-1.767,0.132-2.65c0.04-0.62,0.079-1.239,0.119-1.846c0.106-1.371,0.237-2.742,0.382-4.1        c0.079-0.791,0.171-1.595,0.277-2.386c0.026-0.237,0.066-0.488,0.092-0.725c0.053-0.448,0.118-0.896,0.198-1.345        c1.094-6.71,3.362-13.144,6.684-18.984c2.294-4.061,5.102-7.857,8.371-11.259l106.493-111.387        c4.169-4.361,9.941-6.828,15.974-6.828h215.441c6.018,0,11.776,2.454,15.944,6.796l105.43,109.837        c3.705,3.849,6.829,8.174,9.281,12.841c3.322,6.249,5.458,13.104,6.223,20.223c0.013,0.079,0.013,0.158,0.026,0.25        c0.277,2.558,0.488,5.142,0.672,7.739c0.013,0.303,0.026,0.593,0.053,0.896c0.079,1.292,0.145,2.597,0.198,3.902        c0.092,2.228,0.158,4.469,0.158,6.724C502.14,339.579,502.153,340.463,502.153,341.346z"/>
						<path style="opacity:0.55;fill:#FFFFFF;" d="M404.833,202.08l-24.748-25.782c-4.168-4.342-9.926-6.796-15.944-6.796H148.701        c-6.034,0-11.805,2.467-15.974,6.828l-24.619,25.75H404.833z"/>
					</g>
					<path style="opacity:0.43;fill:#4A7A67;" d="M502.153,341.346c-0.026,6.051-0.33,12.168-0.923,18.338       c-0.079,0.87-0.171,1.74-0.264,2.624c0,0.053-0.013,0.105-0.013,0.158c-0.013,0.079-0.013,0.158-0.026,0.237       c-0.04,0.237-0.066,0.474-0.105,0.712c-1.068,6.934-5.405,12.762-11.377,15.833c-1.674,0.857-3.48,1.503-5.379,1.885       c-0.923,0.198-1.872,0.33-2.848,0.395c-151.898,10.257-301.912,10.824-449.697,0.026c-5.194-0.382-9.901-2.623-13.407-6.077       c-1.239-1.226-2.333-2.61-3.243-4.113c-1.358-2.241-2.32-4.785-2.755-7.501c-1.437-8.925-2.228-17.705-2.254-26.288       c0-1.819,0.04-3.652,0.119-5.484c0.145-3.797,0.448-7.58,0.91-11.351c0.87-12.234,10.929-21.832,22.847-21.766h444.542       c11.601,0,21.568,8.965,22.741,20.909c0.013,0.079,0.013,0.158,0.026,0.264c0.277,2.637,0.488,5.313,0.672,7.989       c0.013,0.316,0.026,0.62,0.053,0.936c0.185,3.217,0.303,6.42,0.356,9.637C502.14,339.579,502.153,340.463,502.153,341.346z"/>
				</g>
			</g>
			<path style="fill:#4A7A67;" d="M431.551,229.914L431.551,229.914c0-6.91-2.47-13.593-6.964-18.842l-6.834-7.982     c-5.504-6.428-13.544-10.129-22.007-10.129H116.254c-8.463,0-16.503,3.701-22.007,10.129l-6.834,7.982     c-4.494,5.249-6.964,11.932-6.964,18.842v1.096l11.192-11.803h329.687L431.551,229.914z"/>
			<g>
				<g>
					<path style="fill:#9BAEAF;" d="M357.355,111.689c-1.529,0.114-3.06,0.61-4.527,1.027c-0.916,0.26-1.825,0.542-2.729,0.839       c-17.156-3.21-62.908-2.77-79.943,0.98c-2.503-0.241-4.52-2.172-7.096-2.166c-2.067,0.005-3.677,1.423-4.28,3.351       c-0.711,2.273-0.014,4.529,1.008,6.59c0.503,1.016,1.092,2.038,1.585,3.089c-1.63,14.189-1.294,30.289,1.19,48.475       c-0.233,0.747-0.65,1.456-1.037,2.127c-0.69,1.195-1.488,2.478-1.547,3.898c-0.075,1.798,1.048,3.275,2.622,4.044       c1.869,0.913,4.191,0.74,6.193,0.485c1.011-0.129,2.008-0.348,2.991-0.615c16.238,2.621,61.082,2.23,77.222-0.778       c0.972,0.453,1.945,0.906,2.918,1.358c1.129,0.526,2.258,1.077,3.493,1.305c1.987,0.368,4.284-0.395,4.946-2.47       c0.674-2.116-0.384-4.554-0.831-6.613c-0.049-0.225-0.078-0.454-0.125-0.68c0.01-0.048,0.028-0.092,0.037-0.14       c3.511-19.247,2.874-37.422-0.817-54.809c1.208-1.592,2.681-3.026,2.99-5.077C362.034,113.147,359.959,111.496,357.355,111.689       z"/>
					<path style="opacity:0.22;fill:#4A7A67;" d="M359.188,123.784c-1.914,4.507-3.77,61.918-96.626,50.079       c0,0.004,0.001,0.008,0.001,0.012c-0.233,0.747-0.65,1.456-1.037,2.127c-0.69,1.195-1.488,2.478-1.547,3.898       c-0.075,1.798,1.048,3.275,2.622,4.044c1.869,0.913,4.191,0.74,6.193,0.485c1.011-0.129,2.008-0.348,2.991-0.615       c16.238,2.621,61.082,2.23,77.222-0.778c0.972,0.453,1.945,0.906,2.918,1.358c1.129,0.526,2.258,1.077,3.493,1.305       c1.987,0.368,4.284-0.395,4.946-2.47c0.674-2.116-0.384-4.554-0.831-6.613c-0.049-0.225-0.078-0.454-0.125-0.68       c0.01-0.048,0.028-0.092,0.037-0.14C362.767,157.58,362.369,140.323,359.188,123.784z"/>
					<path style="opacity:0.11;fill:#FFFFFF;" d="M345.558,129.123c-0.97,0.108-1.956,0.141-2.929,0.172       c-8.054,0.253-68.602,3.518-72.562-1.908c-1.713-2.347-1.53-6.091,0.817-7.805c1.442-1.053,3.334-1.196,5.117-1.301       c12.801-0.756,54.292-1.683,67.094-0.939c2.092,0.122,4.242,0.299,6.121,1.228c1.878,0.929,3.444,2.788,3.411,4.884       c-0.034,2.143-1.727,3.976-3.69,4.835C347.865,128.757,346.723,128.994,345.558,129.123z"/>
				</g>
				<g>
					<path style="fill:#9BAEAF;" d="M249.101,111.689c-1.529,0.114-3.06,0.61-4.527,1.027c-0.916,0.26-1.825,0.542-2.729,0.839       c-17.156-3.21-62.907-2.77-79.943,0.98c-2.503-0.241-4.52-2.172-7.096-2.166c-2.067,0.005-3.677,1.423-4.28,3.351       c-0.711,2.273-0.014,4.529,1.008,6.59c0.503,1.016,1.092,2.038,1.585,3.089c-1.63,14.189-1.294,30.289,1.191,48.475       c-0.233,0.747-0.65,1.456-1.037,2.127c-0.69,1.195-1.488,2.478-1.547,3.898c-0.075,1.798,1.048,3.275,2.622,4.044       c1.869,0.913,4.191,0.74,6.193,0.485c1.011-0.129,2.008-0.348,2.991-0.615c16.238,2.621,61.082,2.23,77.222-0.778       c0.972,0.453,1.945,0.906,2.918,1.358c1.129,0.526,2.258,1.077,3.492,1.305c1.987,0.368,4.284-0.395,4.946-2.47       c0.674-2.116-0.384-4.554-0.832-6.613c-0.049-0.225-0.078-0.454-0.125-0.68c0.01-0.048,0.028-0.092,0.037-0.14       c3.511-19.247,2.874-37.422-0.817-54.809c1.208-1.592,2.68-3.026,2.99-5.077C253.781,113.147,251.705,111.496,249.101,111.689z       "/>
					<path style="opacity:0.22;fill:#4A7A67;" d="M250.934,123.784c-1.914,4.507-3.77,61.918-96.626,50.079       c0,0.004,0.001,0.008,0.001,0.012c-0.233,0.747-0.65,1.456-1.037,2.127c-0.69,1.195-1.488,2.478-1.547,3.898       c-0.075,1.798,1.048,3.275,2.622,4.044c1.869,0.913,4.191,0.74,6.193,0.485c1.011-0.129,2.008-0.348,2.991-0.615       c16.238,2.621,61.082,2.23,77.222-0.778c0.972,0.453,1.945,0.906,2.918,1.358c1.129,0.526,2.258,1.077,3.492,1.305       c1.987,0.368,4.284-0.395,4.946-2.47c0.674-2.116-0.384-4.554-0.832-6.613c-0.049-0.225-0.078-0.454-0.125-0.68       c0.01-0.048,0.028-0.092,0.037-0.14C254.514,157.58,254.116,140.323,250.934,123.784z"/>
					<path style="opacity:0.11;fill:#FFFFFF;" d="M237.305,129.123c-0.97,0.108-1.956,0.141-2.929,0.172       c-8.054,0.253-68.602,3.518-72.562-1.908c-1.713-2.347-1.53-6.091,0.817-7.805c1.442-1.053,3.334-1.196,5.117-1.301       c12.801-0.756,54.292-1.683,67.095-0.939c2.092,0.122,4.242,0.299,6.12,1.228c1.878,0.929,3.444,2.788,3.411,4.884       c-0.034,2.143-1.727,3.976-3.69,4.835C239.612,128.757,238.47,128.994,237.305,129.123z"/>
				</g>
			</g>
		</g>
		<g>
			<g>
				<g>
					<g>
						<path style="fill:#333B36;" d="M241.448,226.282c-8.849-5.067-20.583,1.562-23.911,10.507        c-0.186,0.459,0.372,0.892,0.773,0.62c7.193-4.849,13.949-9.743,22.906-10.165        C241.709,227.221,241.874,226.517,241.448,226.282L241.448,226.282z"/>
					</g>
					<g>
						<path style="fill:#333B36;" d="M270.671,227.298c4.85,0.523,9.125,1.599,13.366,3.808c4.372,2.113,7.845,5.182,12.04,7.913        c0.249,0.18,0.604,0.125,0.756-0.142c-3.146-10.074-16.486-17.392-26.358-12.55        C270.022,226.543,270.17,227.268,270.671,227.298z"/>
					</g>
					<g>
						<g>
							<path style="fill:#333B36;" d="M272.366,252.354c0.238,16.379,12.02,16.661,12.158,0.096         C284.211,236.239,272.581,235.959,272.366,252.354z"/>
							<path style="fill:#333B36;" d="M225.708,251.293c-0.044,16.512,11.731,16.499,12.15,0.096         C237.824,235.045,226.201,235.059,225.708,251.293z"/>
							<path style="fill:#333B36;" d="M292.508,264.952c-13.614,33.913-61.832,33.452-73.311-1.575         C223.595,304.597,285.485,305.796,292.508,264.952L292.508,264.952z"/>
						</g>
					</g>
				</g>
			</g>
			<g>
				<g>
					<path style="fill:#9B3333;" d="M370.603,259.922c10.128,13.035,3.233,27.736-16.851,30.968       c-20.084,3.232-41.368-6.933-46.767-20.73c-4.7-12.011,4.57-22.7,20.182-25.212       C342.778,242.435,361.786,248.574,370.603,259.922z"/>
				</g>
				<g>
					<path style="fill:#9B3333;" d="M141.397,260.147c-10.128,13.035-3.233,27.736,16.851,30.968       c20.084,3.232,41.368-6.933,46.767-20.73c4.7-12.01-4.57-22.7-20.182-25.212S150.214,248.799,141.397,260.147z"/>
				</g>
			</g>
		</g>
		<g>
			<g>
				<g>
					<path style="fill:#4A7A67;" d="M80.449,165.533c0-2.384,8.195-4.373,19.091-4.835c0.461-10.896,2.451-19.092,4.835-19.092       s4.373,8.195,4.835,19.092c10.896,0.462,19.091,2.451,19.091,4.835s-8.195,4.373-19.091,4.834       c-0.461,10.896-2.451,19.09-4.835,19.09c-2.384,0-4.374-8.195-4.835-19.091C88.645,169.906,80.449,167.917,80.449,165.533z"/>
				</g>
				<g>
					<path style="fill:#FFBC49;" d="M104.375,137.471c0-1.364,4.688-2.502,10.922-2.766c0.264-6.233,1.402-10.922,2.766-10.922       c1.364,0,2.502,4.689,2.766,10.922c6.233,0.264,10.922,1.402,10.922,2.766c0,1.364-4.688,2.502-10.922,2.766       c-0.264,6.233-1.402,10.921-2.766,10.921s-2.502-4.688-2.766-10.921C109.064,139.974,104.375,138.835,104.375,137.471z"/>
				</g>
			</g>
			<g>
				<g>
					<path style="fill:#FC7E21;" d="M449.628,175.085c0-2.384-8.195-4.373-19.091-4.835c-0.461-10.896-2.451-19.092-4.835-19.092       c-2.384,0-4.374,8.195-4.835,19.092c-10.896,0.462-19.091,2.451-19.091,4.835s8.195,4.373,19.091,4.835       c0.462,10.896,2.451,19.09,4.835,19.09c2.384,0,4.374-8.195,4.835-19.091C441.433,179.459,449.628,177.47,449.628,175.085z"/>
				</g>
				<g>
					<path style="fill:#9B3333;" d="M408.328,164.847c0-1.364-4.688-2.502-10.922-2.766c-0.264-6.234-1.402-10.922-2.766-10.922       c-1.364,0-2.502,4.689-2.766,10.922c-6.233,0.264-10.921,1.402-10.921,2.766c0,1.364,4.688,2.502,10.921,2.766       c0.264,6.233,1.402,10.921,2.766,10.921c1.364,0,2.502-4.688,2.766-10.921C403.639,167.349,408.328,166.211,408.328,164.847z"/>
				</g>
			</g>
		</g>
	</g>
</g>















</svg>
