<svg id="svg8" height="512" viewBox="0 0 135.46666 135.46666" width="512" xmlns="http://www.w3.org/2000/svg" xmlns:svg="http://www.w3.org/2000/svg"><clipPath id="clipPath5136"><rect id="rect5138" height="89.013" rx="7.858" width="87.501" x="-68.036" y="22.301"/></clipPath><clipPath id="clipPath3786"><path id="rect3788" d="m84.667 15.119h79.375v72.571h-79.375z" paint-order="fill markers stroke"/></clipPath><g id="layer1"><g id="g4582" transform="matrix(1.02 0 0 1.02 -11.216 .017)"><g id="g12076" stroke-linecap="round" stroke-linejoin="round"><path id="path11762" d="m61.979715 6.4978279c-1.719079-.0302865-3.676722.1355373-6.033736.5691153-12.570747 2.3124146-10.848661 14.6905668-10.848661 14.6905668s9.096549.184284 16.461767 3.598146c.819033 6.220436-.06928 13.605011-6.474127 19.118313-13.431756 11.562077-10.676304 41.732252-14.809154 46.493101-4.132848 4.760845-6.88809 3.563616-.861021 5.603986 6.027072 2.040372 15.670414 2.17646 34.612636 16.595054 18.94222 14.41859 44.255971 7.88949 44.772581 6.93732s-.51663-3.12877-1.72204-5.84926c-1.20542-2.72049-5.33844-12.78602-6.19945-23.2871-.86101-10.501086 6.68629-21.709531 9.97395-29.21187 3.28766-7.502335 1.04701-22.178256 1.04701-22.178256 0-1.029764-.0815-1.997379-.23463-2.90943-.36058-4.782383-.60945-7.823116-3.4674-13.209247-3.52296-6.639411-19.889616-9.318114-34.182383-11.358482-11.612871-1.657798-14.586008-5.4707146-22.035342-5.6019571z" fill="#7738c7" stroke-width=".81"/><path id="path12006" d="m48.316522 12.630007s-1.113951 4.193699-1.31053 5.242124c-.196581 1.048424 2.850402 1.998559 4.259223 2.260665s3.603961.360396 5.602519 1.146715c1.998562.786318 3.538434 1.245004 3.538434 1.245004s-.360396-2.424482-.786317-2.784878c-.425923-.360396-4.324752-.786318-6.716471-1.670927-2.391718-.884608-3.440143-1.179477-3.440143-1.179477l1.277767-3.89883z" fill="#ff4b3d" stroke-width=".981"/><path id="path11961" d="m61.559085 25.355656s-.421351-12.876944-5.749793-15.147322c-5.328439-2.2703791-7.737819 2.363047-7.83049 2.965392-.09267.602346 1.668033 3.660407 5.282108 2.82639 3.614072-.834016 2.872722 1.158357 4.679759 2.224045 1.807035 1.065688 1.676721 6.154496 3.618416 7.131495z" fill="#171d8f" stroke-width=".981"/><path id="path11963" d="m45.284412 20.104618s-2.397858-.09484-2.440657 2.259229c-.01181.648794.237632 1.104763.618778 1.397702-1.271604 1.465094-3.043014 3.28594-4.472343 3.86826-2.50205 1.019354-3.289732 1.853441-2.270378 3.011799 1.019355 1.158355 2.177492.926613 2.965176 1.528959.787682.602346 1.343475-.370383 1.992155-1.250735.64868-.880349-.694868 1.158137-.463196 1.667815.231672.509675 1.436434.787611 3.011799.880279 1.575365.09267 2.548239.0931 2.733575-1.065254.185338-1.158357.324415-2.502269.417083-1.575583.09267.926688.04655 1.71437.602561 1.297359.556012-.417005.880422-1.390242.74142-2.5486-.119212-.993422-1.628108-4.79739-2.057529-6.070223.09946-.100138.18401-.209243.247308-.328394.727621-1.36964.900059-2.50674-1.625752-3.072613z" fill="#ffc517" stroke-width=".641"/><g stroke-width=".981"><path id="path11967" d="m24.708089 91.167477c-.210066.0259-.32224.209734-.452556.542761-.417008 1.065687-1.204328 1.760849-1.157994 2.780202.04633 1.019351-.000441 1.250735.740914 1.250735.741348 0 3.011872-.370313 3.75322-.184975.741349.185336-4.031153.463414-4.309159.74142-.278005.278006-.27786.972734-.138858 2.223755.139003 1.25103 1.112238 1.529175 2.548601 1.158503 1.436362-.370682 2.548312-1.019494 2.177638-.509824-.370674.509681-2.362974 1.065686-2.501977 1.297356s.555721.83431 1.899415 1.34399c1.343693.50967 2.50205-.37075 3.892078-1.3901 1.390028-1.019366 2.270378-.602423 3.567738-1.714442.318709-.27318.575364-.582901.777909-.896496 1.351324.168345 2.342846-1.062864 2.318017-1.956683-.03276-1.179478.196643-3.079656-2.981393-2.22781-.586345.335054-1.105138.678919-1.43267 1.060187-1.330971.248224-1.573602.51391-4.658838-1.307494-2.643949-1.560887-3.579942-2.268078-4.042085-2.211085z" fill="#ffc517"/><path id="path11971" d="m128.64786 112.2151c-.60275-.0747-1.31155 2.54057-2.78122 4.05223-1.24455 1.28013-3.29569 1.60312-4.18803 1.68504-.28595-.62966-.90573-.96279-1.97442-.61928-2.64106 2.36304-2.82639 3.05798-1.94604 4.12367.51819.62729 1.2452 1.07371 1.9729.98873 1.15741 1.31121 3.26504 3.13083 5.41749 3.62146 3.15073.71818 5.16633-.20843 5.44434-1.20462.278-.99619-1.94589-1.13512-3.22008-1.20462s-4.33263-1.5986-2.24758-.90359c2.08504.69501 4.58731.27823 5.14332.27823s1.20485-.3709 1.48284-1.57559c.27801-1.20469-.834-4.03093-.97302-4.35527-.139-.32434-1.76092.18548-2.5486.50982s-.37067-.23188.64868-.60256c1.01936-.37067 1.20455-.41694 1.43622-.88028.23168-.46334-.83366-3.05799-1.48234-3.79934-.0608-.0695-.12211-.1063-.18446-.11403z" fill="#ffc517"/><path id="path12000" d="m57.241402 6.851281c-.419602.063482-.848068.1336135-1.295333.2158886-1.400792.2576787-2.623395.6408514-3.691392 1.1174522 2.655166-.1770275 6.539906.547912 8.872215 5.4940132 3.800539 8.059765 4.25948 21.16492.983155 26.538092-3.276328 5.373177-6.880276 7.142597-10.287655 14.350518s-4.062919 23.785638-4.914763 29.748551c-.851846 5.962917-3.407133 7.929201-2.293184 8.977625 1.113954 1.048425 16.51273 4.717899 25.358816 10.942919 8.846082 6.22502 14.939947 11.92558 26.734724 13.23611 11.794775 1.31053 16.643605-.0001 16.905705-1.04853.26211-1.04842-7.20814-14.34996-6.02867-28.37264 1.17949-14.02268 10.28013-28.243492 11.72945-35.843099 1.1626-6.096157-.52354-25.740515-6.70623-33.434877-1.11722-.551925-2.35647-1.061151-3.68987-1.534533 1.32212 1.362887 2.15801 3.0355 3.0721 5.305997 2.03132 5.045542 5.81673 22.258755 4.7683 28.418251-1.04843 6.159494-7.66655 19.133599-10.74629 27.193361-3.07974 8.059767-1.11369 20.837591.98316 28.37315 2.09685 7.53555 4.58695 8.71486-3.53835 7.73196-8.125287-.9829-15.464205.72121-26.931352-9.36988-11.467144-10.091083-23.786432-12.253866-25.6867-13.171237-1.900271-.917371.327938-6.225062.524517-11.794821.196581-5.569755 1.375966-16.8403 2.883077-21.885842 1.507112-5.045545 9.239288-12.515338 11.794821-19.133518 2.555536-6.61818.523858-18.675249-.721148-22.672368-1.245003-3.997119-4.06246-6.7493112-4.455619-7.4045768-.159757-.2662632-1.700385-1.0922546-3.623484-1.9779662z" fill="#ff4b3d"/><path id="path12027" d="m43.462534 23.761549s.920559.246054 1.638741.130218 1.065687-.532844.949854-.208504c-.115836.32434-.949854 1.065688-1.691202 1.088855-.741347.02317-1.019353.09267-1.088855 1.019354-.0695.926684-.602346 3.150729-1.112021 3.868911-.509678.718182.04633-2.826391.254837-3.590907.208504-.764514 1.048646-2.307927 1.048646-2.307927z" fill="#ffac17"/><path id="path12029" d="m33.409012 94.686057s-.192475.676309-.05347 1.07015c.139002.393842-3.567739.254838-4.239586.115837-.671846-.139002-.393841.324339.208505.440175.602345.115836 2.641053.347506 2.919058.393842.278006.04633-3.845744 1.830203-3.614072 2.085041.231671.254838 4.193251-1.552197 4.471256-1.621699.278006-.0695 2.404357.64096 2.404357.64096s-1.292335-.525124-1.361836-1.220138c-.0695-.695013-.73421-1.904168-.73421-1.904168z" fill="#ffac17"/><path id="path12031" d="m119.73105 122.44549s.75607-.92743 1.17308-1.20544c.41701-.278 1.66803.74135 2.13137.83402.46335.0927-1.39002-1.39003-1.39002-1.39003s0-.88035 1.7607-1.4827c1.7607-.60234 4.21642-1.71436 2.64105-1.48269-1.57536.23167-4.58709 1.66803-4.58709 1.66803l.21847-1.43431s-2.05495 3.33551-1.94756 4.49312z" fill="#ffac17"/><path id="path12033" d="m69.055775 13.481755c.06553 6.093969.06553 7.076867 1.31053 7.928712 1.245003.851845.982898-3.472907 1.245003-5.897389.262108-2.424482-1.965795-4.259225-2.555533-2.031323z" fill="#fff"/><path id="path12035" d="m70.693938 25.014427c.327632 2.293428.131054 4.914491 1.113951 2.424482.982898-2.490009-1.113951-4.586858-1.113951-2.424482z" fill="#fff"/></g><path id="path12037" d="m57.090246 72.5622s0 6.824934-1.137489 9.537408c-1.137489 2.712472 1.399986 6.649936 3.412468 7.612427 2.012479.962489 5.774943 1.487484 6.999932-2.18748s-.874991-7.17493-2.887473-7.087432c-2.01248.0875-3.762463.962491-4.024961 2.274978-.262496 1.312488.699993 3.674965 1.487486 3.674965s2.537475-1.487486 2.187479-2.449977c-.349997-.96249 2.187478 2.449977.349996 3.499966-1.837482 1.049991-5.424948-.349995-5.337448-2.97497s1.312487-6.212441.612493-8.137421c-.699993-1.924982-1.487484-6.124941-1.662483-3.762464z" fill="#ffc517" stroke-width=".655"/><path id="path12039" d="m54.72777 85.730823c.656243 1.793732 1.443734 3.368717 2.274977 3.893712.831241.524995-2.931222 1.137489-3.499966-.174998-.568745-1.312488.393746-4.287459.524995-4.812454.131249-.524996.699994 1.09374.699994 1.09374z" fill="#ffc517" stroke-width=".655"/><path id="path12041" d="m101.90708 91.817796s.27801 8.803514 1.11202 11.861574c.83402 3.05806-2.03871 7.0428-7.228143 5.18944-5.189437-1.85338-5.096767-5.65279-3.70674-8.2475 1.390028-2.594724 4.077414-1.019358 5.189438.92668 1.112021 1.94604-1.946039 2.87273-1.946039 2.87273s.370673 2.59471 2.780054 2.40938c2.40938-.18534 2.31672-4.63343 2.22404-6.76481-.0927-2.131371-.83401-4.262749-.18533-5.652776s1.94604-6.116123 1.7607-2.594718z" fill="#ffc517" stroke-width=".981"/><path id="path12043" d="m104.7798 107.75678c-.64867 1.7607-.92668 2.13138-2.13137 2.59472s3.2434 1.4827 3.98475 1.29736c.74134-.18534-1.11203-5.0041-1.85338-3.89208z" fill="#ffc517" stroke-width=".981"/><path id="path12045" d="m318.21094 52.382812c-13.70394 20.901836-32.58024 57.580398-48.21094 80.425778-26.42857 38.62725-49.28487 35.80018-36.42773 69.7168 12.85715 33.91661 33.57143 115.88316 35 146.03125 1.42857 30.14811 10.7126 14.13019 52.85546-46.16602 42.14284-60.29619 53.57313-75.36909 47.14454-93.26953-5.58393-15.54854-22.45783-111.274246-29.61133-152.869137-6.76297-1.395412-13.72596-2.666143-20.75-3.869141z" fill="#ffc517" stroke-width="4.341" transform="matrix(.259 0 0 .259 10.999 -.017)"/><path id="path12050" d="m93.06449 24.348161c-2.583301 3.940161-6.141633 10.85436-9.088143 15.160894-4.981994 7.281542-9.290588 6.748617-6.866915 13.142168 2.423674 6.393549 6.32848 21.844891 6.597776 27.528044.269297 5.683157 2.01941 2.663652 9.963672-8.70266 7.94426-11.366308 10.09896-14.207668 8.88712-17.582043-1.05262-2.931022-4.23348-20.976074-5.581971-28.817039-.993076-3.996867-2.377237-3.287937-3.911539-.729364z" fill="#7738c7" stroke-width=".818"/><path id="path12052" d="m90.931617 41.970986c-.972749 1.483678-2.312649 4.087239-3.422165 5.708876-1.875983 2.741884-3.498396 2.541209-2.585755 4.948719.912641 2.407508 2.383006 8.225752 2.48441 10.365759.101404 2.140008.760415 1.003006 3.751848-3.27701 2.991432-4.280014 3.80279-5.349936 3.346469-6.620566-.396367-1.103685-1.594129-7.898597-2.101907-10.851134-.373945-1.505031-.895155-1.238082-1.4729-.274644z" fill="#fff" stroke-width=".308"/><path id="path12054" d="m66.827872 53.059787s3.538433 19.264803 6.683707 26.603775c3.145274 7.338973 5.504229 14.808999 7.732132 17.299008s-6.290548-6.945813-8.780557-11.270565c-2.490008-4.324753-9.697927-15.857424-11.270565-19.264803-1.572636-3.40738 2.490009-11.00846 3.014222-13.236361.524211-2.227903 2.09685-3.931593 2.621061-.131054z" fill="#5230ab" stroke-width=".981"/></g></g></g></svg>