<?xml version="1.0" encoding="iso-8859-1"?>
<!-- Generator: Adobe Illustrator 26.5.3, SVG Export Plug-In . SVG Version: 6.00 Build 0)  -->
<svg xmlns="http://www.w3.org/2000/svg" xmlns:xlink="http://www.w3.org/1999/xlink" version="1.1" id="Capa_1" x="0px" y="0px" viewBox="0 0 512 512" style="enable-background:new 0 0 512 512;" xml:space="preserve">
<g>
	<g>
		<g>
			<path style="fill:#F891AB;" d="M427.364,0L100.4,7.185L95.01,51.5l15.57-2.997l26.349,335.947l8.577-0.138     c2.103,4.116,5.055,8.586,7.952,8.47c3.237-0.13,6.935-4.957,9.354-8.748l210.213-3.375c2.108,4.181,5.12,8.823,8.072,8.706     c3.305-0.133,7.093-5.162,9.509-8.985l7.418-0.12l20.355-337.742h17.368L427.364,0z"/>
			
				<rect x="103.74" y="10.782" transform="matrix(0.9997 -0.0234 0.0234 0.9997 -0.2396 6.21)" style="fill:#00383D;" width="323.125" height="5.129"/>
			
				<rect x="102.064" y="28.902" transform="matrix(0.9993 -0.038 0.038 0.9993 -1.0038 10.1314)" style="fill:#00383D;" width="327.759" height="5.126"/>
		</g>
		<g>
			<polygon style="fill:#FD577D;" points="132.738,47.309 262.982,37.725 262.982,261.07 151.901,264.683    "/>
			<path style="fill:#FFD585;" d="M259.241,255.409h-104.09L138.947,54.375l118.103-9.842L259.241,255.409z M159.883,250.282h94.175     l-2.08-200.181l-107.508,8.96L159.883,250.282z"/>
			<path style="fill:#FFD585;" d="M224.387,163.97c-0.133-2.471,0.651-4.712,2.396-6.106c3.412-2.722,9.161-1.192,12.841,3.423     c3.681,4.609,3.896,10.555,0.486,13.277c-3.412,2.724-9.163,1.194-12.844-3.417c-0.923-1.157-1.627-2.399-2.11-3.653     l-8.079,2.767c0,0,8.578,4.839,6.898,8.64c-1.682,3.803-10.861-0.763-11.547-11.9L224.387,163.97z"/>
			<path style="fill:#FFD585;" d="M163.495,242.841l-0.097-1.214L148.872,64.414l97.495-8.235l3.578,184.02L163.495,242.841z      M151.636,66.753l14.219,173.449l81.477-2.486l-3.472-178.752L151.636,66.753z"/>
		</g>
		<g>
			<polygon style="fill:#FD577D;" points="283.639,256.896 279.453,37.725 400.415,33.537 383.651,256.896    "/>
			<path style="fill:#FFD585;" d="M289.615,248.261l-4.824-201.756l107.467-1.798l-11.57,199.487L289.615,248.261z M290.038,51.548     l4.579,191.355l81.219-3.625L386.82,49.926L290.038,51.548z"/>
			<path style="fill:#FFD585;" d="M320.841,160.49c-0.466-2.429-1.765-4.417-3.795-5.348c-3.966-1.82-9.178,1.049-11.639,6.412     c-2.461,5.36-1.239,11.182,2.726,13.004c3.969,1.82,9.181-1.047,11.642-6.407c0.618-1.347,1.001-2.724,1.17-4.056l8.507,0.738     c0,0-7.16,6.765-4.614,10.05c2.549,3.285,10.358-3.355,8.342-14.331L320.841,160.49z"/>
			<path style="fill:#FFD585;" d="M299.292,235.185l-2.709-176.942l84.804-1.985l-9.754,174.944L299.292,235.185z M299.187,60.746     l2.629,171.729l67.384-3.708l9.474-169.882L299.187,60.746z"/>
		</g>
		<g>
			<polygon style="fill:#FFD585;" points="145.314,279.657 390.926,270.073 389.539,319.716 148.907,328.161    "/>
			<path style="fill:#FFA133;" d="M155.354,324.936l-4.762-40.675l233.725-9.847l-1.83,41.359L155.354,324.936z M156.325,289.154     l3.57,30.469l217.679-8.783l1.375-31.068L156.325,289.154z"/>
			<path style="fill:#FFA133;" d="M276.519,294.461c0,2.571-3.683,4.654-8.227,4.654c-4.541,0-8.225-2.083-8.225-4.654     c0-2.571,3.683-4.657,8.225-4.657C272.836,289.804,276.519,291.89,276.519,294.461z"/>
		</g>
		<g>
			<polygon style="fill:#FFD585;" points="151.901,337.141 384.517,328.161 381.633,370.67 151.901,374.196    "/>
			<path style="fill:#FFA133;" d="M158.425,370.062l-1.925-30.419l219.364-4.599v32.067L158.425,370.062z M161.953,344.655     l1.279,20.215l207.504-2.817v-21.772L161.953,344.655z"/>
			<path style="fill:#FFA133;" d="M275.773,350.01c0,2.571-3.683,4.654-8.227,4.654c-4.541,0-8.225-2.083-8.225-4.654     s3.683-4.657,8.225-4.657C272.09,345.353,275.773,347.439,275.773,350.01z"/>
		</g>
	</g>
</g>
<g>
</g>
<g>
</g>
<g>
</g>
<g>
</g>
<g>
</g>
<g>
</g>
<g>
</g>
<g>
</g>
<g>
</g>
<g>
</g>
<g>
</g>
<g>
</g>
<g>
</g>
<g>
</g>
<g>
</g>
</svg>
