<?xml version="1.0" encoding="UTF-8"?>
<!-- Generator: Adobe Illustrator 25.2.1, SVG Export Plug-In . SVG Version: 6.00 Build 0)  -->
<svg xmlns="http://www.w3.org/2000/svg" xmlns:xlink="http://www.w3.org/1999/xlink" version="1.1" id="Capa_1" x="0px" y="0px" viewBox="0 0 512 512" style="enable-background:new 0 0 512 512;" xml:space="preserve" width="512" height="512">
<g>
	<g>
		<g>
			<path style="fill:#007AF4;" d="M456.742,117.747l-26.869,256.964c-0.67,6.409-6.433,11.081-12.879,10.407l-347.09-36.292     c-3.809-0.398-6.994-2.575-8.828-5.632c-1.261-2.085-1.874-4.595-1.6-7.213L86.345,79.018     c0.672-6.427,6.435-11.099,12.862-10.427l347.091,36.292C452.743,105.557,457.414,111.321,456.742,117.747z"/>
			<g>
				<path style="fill:#00D5FE;" d="M243.843,211.447l-144.511-15.11c-3.031-0.317-5.23-3.03-4.913-6.061l8.536-81.635      c0.317-3.031,3.03-5.23,6.061-4.914l144.511,15.11c3.031,0.317,5.23,3.03,4.913,6.061l-8.536,81.635      C249.587,209.564,246.873,211.764,243.843,211.447z"/>
				<path style="fill:#00D5FE;" d="M231.28,331.59L86.77,316.479c-3.031-0.317-5.23-3.03-4.913-6.061l8.536-81.635      c0.317-3.031,3.03-5.23,6.061-4.913l144.511,15.11c3.031,0.317,5.23,3.03,4.914,6.061l-8.536,81.635      C237.025,329.707,234.311,331.907,231.28,331.59z"/>
				<path style="fill:#00D5FE;" d="M419.78,229.843l-144.511-15.11c-3.031-0.317-5.23-3.03-4.913-6.061l8.536-81.635      c0.317-3.031,3.03-5.23,6.061-4.913l144.511,15.11c3.031,0.317,5.23,3.03,4.913,6.061l-8.536,81.635      C425.524,227.96,422.811,230.16,419.78,229.843z"/>
				<path style="fill:#00D5FE;" d="M407.218,349.986l-144.511-15.11c-3.031-0.317-5.23-3.031-4.914-6.061l8.536-81.635      c0.317-3.031,3.031-5.23,6.061-4.914l144.511,15.11c3.031,0.317,5.23,3.03,4.913,6.061l-8.536,81.635      C412.962,348.103,410.248,350.303,407.218,349.986z"/>
			</g>
			<g style="opacity:0.5;">
				<path style="fill:#007AF4;" d="M234.444,199.901l-123.528-12.916c-2.591-0.271-4.471-2.59-4.2-5.181l6.517-62.33      c0.271-2.591,2.59-4.471,5.181-4.2l123.528,12.916c2.591,0.271,4.471,2.59,4.2,5.181l-6.517,62.33      C239.354,198.291,237.035,200.171,234.444,199.901z"/>
				<path style="fill:#007AF4;" d="M397.819,338.44l-123.528-12.916c-2.59-0.271-4.471-2.59-4.2-5.181l6.517-62.33      c0.271-2.59,2.59-4.471,5.181-4.2l123.528,12.916c2.591,0.271,4.471,2.59,4.2,5.181L403,334.24      C402.729,336.83,400.41,338.71,397.819,338.44z"/>
				<path style="fill:#007AF4;" d="M410.381,218.297l-123.528-12.916c-2.591-0.271-4.471-2.59-4.2-5.181l6.517-62.33      c0.271-2.591,2.59-4.471,5.181-4.2l123.528,12.916c2.591,0.271,4.471,2.59,4.2,5.181l-6.517,62.33      C415.291,216.687,412.972,218.568,410.381,218.297z"/>
				<path style="fill:#007AF4;" d="M221.882,320.043L98.354,307.127c-2.591-0.271-4.471-2.59-4.2-5.181l6.517-62.33      c0.271-2.591,2.59-4.471,5.181-4.2l123.528,12.916c2.591,0.271,4.471,2.59,4.2,5.181l-6.517,62.33      C226.792,318.434,224.472,320.314,221.882,320.043z"/>
			</g>
			<g>
				<path style="fill:#FC09B2;" d="M376.247,308.692l9.897,11.192c1.636,1.85,4.462,2.024,6.312,0.388l11.627-10.282      c1.85-1.636,2.024-4.462,0.387-6.312l-9.897-11.192c-4.475-5.061-12.206-5.536-17.267-1.06l0,0      C372.247,295.9,371.772,303.631,376.247,308.692z"/>
			</g>
			<g>
				<path style="fill:#FF8EDE;" d="M135.152,169.418c4.981-4.494,14.347-3.745,19.541,0.026c5.143,3.733,4.076,10.727-4.519,12.276      C138.401,183.841,128.692,175.247,135.152,169.418z"/>
				<path style="fill:#FF8EDE;" d="M214.366,177.701c-3.943-5.427-13.261-6.632-19.124-4.017c-5.804,2.589-6.207,9.652,1.882,12.945      C208.204,191.14,219.481,184.741,214.366,177.701z"/>
				<path style="fill:#FF8EDE;" d="M404.077,309.993l-11.625,10.279c-1.846,1.632-4.671,1.472-6.314-0.387l-5.105-5.773      l18.327-16.206l5.105,5.773C406.109,305.538,405.936,308.35,404.077,309.993z"/>
				<path style="fill:#FF8EDE;" d="M135.658,355.702c-0.053,0.159-0.089,0.32-0.14,0.46c-0.112,0.372-0.241,0.742-0.406,1.089      c-0.167,0.384-0.354,0.766-0.556,1.128l-7.397,13.317l-23.439,42.284c-1.167,2.087-2.91,3.748-4.958,4.829      c-2.046,1.064-4.415,1.546-6.797,1.297c-6.59-0.689-11.374-6.61-10.685-13.2l5.884-56.275L135.658,355.702z"/>
				<path style="fill:#FF8EDE;" d="M399.771,383.318l-5.884,56.275c-0.689,6.59-6.594,11.393-13.183,10.704      c-2.4-0.251-4.619-1.213-6.4-2.677c-1.78-1.482-3.124-3.465-3.834-5.749l-14.204-46.22l-4.464-14.557      c-0.124-0.396-0.226-0.808-0.311-1.219c-0.088-0.374-0.138-0.763-0.171-1.15c-0.019-0.166-0.023-0.313-0.042-0.479      L399.771,383.318z"/>
			</g>
			<g style="opacity:0.5;">
				<g>
					<path style="fill:#FC09B2;" d="M135.658,355.702c-0.053,0.159-0.089,0.32-0.14,0.46c-0.112,0.372-0.241,0.742-0.406,1.089       c-0.167,0.384-0.354,0.766-0.556,1.128l-7.397,13.317c-8.586,4.614-22.391,9.924-43.569,13.112l3.573-34.177L135.658,355.702z"/>
				</g>
				<g>
					<path style="fill:#FC09B2;" d="M399.771,383.318l-3.574,34.177c-20.076-7.502-32.467-15.551-39.931-21.843l-4.464-14.557       c-0.124-0.396-0.226-0.808-0.311-1.219c-0.088-0.374-0.138-0.763-0.171-1.15c-0.019-0.166-0.023-0.313-0.042-0.479       L399.771,383.318z"/>
				</g>
			</g>
			<path style="fill:#FFFFFF;" d="M186.042,162.326c2.569,0.903,3.606,2.793,3.429,5.031c-0.946,12.007-19.201,14.179-25.533,5.262     c-2.266-3.191-4.287-10.518,0.933-12.137C167.625,159.628,177.67,159.384,186.042,162.326z"/>
			<path style="opacity:0.25;fill:#00328D;" d="M456.749,117.748l-26.868,256.964c-0.67,6.409-6.434,11.081-12.879,10.407     l-347.09-36.292c-3.81-0.398-6.995-2.575-8.829-5.632c30.196-37.781,231.2,28.902,290.024-8.623     c61.6-39.279,63.769-108.207,73.262-182.758c1.541-12.122,3.505-34.22,17.133-47.433l4.803,0.502     C452.749,105.558,457.421,111.321,456.749,117.748z"/>
			<g>
				<path style="fill:#00328D;" d="M364.692,282.235l-46.363-4.848c-3.483-0.364-6.011-3.483-5.647-6.966l0,0      c0.364-3.483,3.483-6.011,6.966-5.647l46.363,4.848c3.483,0.364,6.012,3.483,5.647,6.966l0,0      C371.294,280.07,368.175,282.599,364.692,282.235z"/>
				<path style="fill:#00328D;" d="M201.317,143.695l-46.363-4.848c-3.483-0.364-6.011-3.483-5.647-6.966l0,0      c0.364-3.483,3.483-6.011,6.966-5.647l46.363,4.848c3.483,0.364,6.011,3.483,5.647,6.966l0,0      C207.919,141.531,204.8,144.06,201.317,143.695z"/>
				<path style="fill:#00328D;" d="M377.254,162.092l-46.364-4.848c-3.483-0.364-6.011-3.483-5.647-6.966l0,0      c0.364-3.483,3.483-6.011,6.966-5.647l46.364,4.848c3.483,0.364,6.011,3.483,5.647,6.966v0      C383.856,159.928,380.737,162.456,377.254,162.092z"/>
				<path style="fill:#00328D;" d="M188.755,263.838l-46.363-4.848c-3.483-0.364-6.011-3.483-5.647-6.966l0,0      c0.364-3.483,3.483-6.011,6.966-5.647l46.363,4.848c3.483,0.364,6.011,3.483,5.647,6.966v0      C195.356,261.674,192.238,264.202,188.755,263.838z"/>
			</g>
		</g>
		<g>
			<path style="fill:#000E3F;" d="M148.586,151.134c-5.557,0.683-7.387,7.857-3.424,11.467c4.926,4.487,13.116,0.403,11.269-6.168     C155.382,152.699,151.835,150.736,148.586,151.134z"/>
			<path style="fill:#000E3F;" d="M204.984,157.032c-3.096-1.062-6.972,0.125-8.771,3.561c-3.166,6.048,4.002,11.737,9.75,8.366     C210.586,166.246,210.279,158.848,204.984,157.032z"/>
			<path style="fill:#000E3F;" d="M258.295,119.982c-2.451-3.031-5.936-4.919-9.821-5.318l-133.657-13.977     c-0.508-0.055-1.017-0.091-1.525-0.091c-7.498,0-13.742,5.628-14.522,13.088l-7.389,70.795     c-0.853,8.005,4.992,15.194,12.998,16.029l133.657,13.977c0.509,0.055,1.016,0.091,1.525,0.091     c7.497,0,13.741-5.627,14.522-13.088l7.406-70.777C261.889,126.825,260.764,123.014,258.295,119.982z M257.878,130.329     l-7.406,70.776c-0.58,5.645-5.355,9.839-10.909,9.839c-0.381,0-0.762-0.018-1.144-0.073l-133.657-13.959     c-6.026-0.636-10.401-6.045-9.766-12.072l7.388-70.777c0.599-5.627,5.355-9.838,10.91-9.838c0.381,0,0.762,0.036,1.143,0.073     l133.657,13.977C254.12,118.893,258.495,124.302,257.878,130.329z"/>
			<path style="fill:#000E3F;" d="M235.913,234.797l-133.657-13.977c-0.508-0.055-1.017-0.073-1.525-0.073     c-7.497,0-13.741,5.627-14.522,13.088l-7.388,70.776c-0.853,8.006,4.992,15.212,12.998,16.047l133.657,13.977     c0.508,0.055,1.017,0.073,1.525,0.073c7.497,0,13.741-5.627,14.522-13.088l7.406-70.777c0.4-3.885-0.726-7.678-3.195-10.71     C243.283,237.102,239.798,235.214,235.913,234.797z M245.316,250.463l-7.407,70.777c-0.599,5.645-5.355,9.839-10.909,9.839     c-0.382,0-0.763-0.018-1.144-0.055L92.199,317.046c-6.026-0.636-10.401-6.027-9.784-12.053l7.406-70.777     c0.599-5.646,5.355-9.839,10.909-9.839c0.382,0,0.763,0.018,1.144,0.055l133.657,13.977     C241.558,239.044,245.933,244.436,245.316,250.463z"/>
			<path style="fill:#000E3F;" d="M424.41,133.052l-133.658-13.978c-0.508-0.054-1.017-0.073-1.525-0.073     c-7.497,0-13.741,5.628-14.522,13.088l-7.388,70.777c-0.835,8.005,4.992,15.212,12.997,16.047l133.658,13.978     c0.508,0.054,1.034,0.072,1.542,0.072c7.479,0,13.724-5.627,14.504-13.088l7.406-70.777     C438.26,141.093,432.414,133.887,424.41,133.052z M433.812,148.717l-7.407,70.777c-0.58,5.645-5.354,9.838-10.892,9.838     c-0.381,0-0.78-0.018-1.161-0.055l-133.658-13.977c-6.026-0.635-10.401-6.027-9.766-12.053l7.388-70.777     c0.599-5.646,5.355-9.839,10.91-9.839c0.381,0,0.762,0.019,1.162,0.055l133.638,13.977     C430.073,137.299,434.448,142.691,433.812,148.717z"/>
			<path style="fill:#000E3F;" d="M411.847,253.204l-24.415-2.56c0.471-4.883-0.654-9.058-5.028-11.654     c-2.796-1.652-5.918-2.069-8.986-1.216c-5.264,1.452-9.421,6.208-11.581,10.201l-83.647-8.75c-0.508-0.054-1.016-0.09-1.524-0.09     c-7.498,0-13.742,5.627-14.522,13.088L254.755,323c-0.835,8.023,4.992,15.212,12.997,16.047l133.657,13.977     c0.509,0.055,1.035,0.091,1.543,0.091c7.479,0,13.723-5.628,14.504-13.088l7.407-70.777     C425.698,261.227,419.853,254.038,411.847,253.204z M374.38,241.259c2.142-0.581,4.212-0.29,6.173,0.853     c2.813,1.67,3.685,4.393,3.322,8.169l-18.062-1.888C368.064,244.853,371.314,242.112,374.38,241.259z M421.251,268.869     l-7.406,70.777c-0.581,5.646-5.355,9.839-10.892,9.839c-0.381,0-0.78-0.018-1.162-0.073l-133.657-13.978     c-6.026-0.617-10.402-6.026-9.766-12.053l7.388-70.777c0.599-5.645,5.355-9.839,10.91-9.839c0.381,0,0.762,0.036,1.162,0.073     l105.429,11.018c-0.744,3.177-2.015,6.916-3.558,11.219c-2.832,7.896-5.881,16.446-4.992,23.834     c-3.068,2.777-4.865,6.571-5.137,10.71c-0.253,4.23,1.144,8.296,3.958,11.473l9.893,11.2c1.542,1.743,3.757,2.741,6.08,2.741     c1.979,0,3.885-0.726,5.355-2.033l1.452-1.289l0.006-0.005l7.374,8.339c0.358,0.405,0.858,0.612,1.36,0.612     c0.427,0,0.856-0.15,1.202-0.456c0.752-0.664,0.823-1.811,0.158-2.562l-7.367-8.333l3.272-2.911l7.376,8.342     c0.358,0.405,0.858,0.612,1.36,0.612c0.427,0,0.856-0.15,1.202-0.456c0.752-0.664,0.823-1.811,0.158-2.563l-7.37-8.335     l0.002-0.001l1.453-1.289c1.615-1.434,2.577-3.413,2.723-5.573c0.127-2.16-0.599-4.248-2.033-5.863l-9.894-11.182     c-2.995-3.413-7.334-5.355-11.889-5.355c-2.523,0-4.992,0.599-7.207,1.743c-0.109-6.099,2.433-13.216,4.938-20.186     c1.452-4.084,2.922-8.205,3.757-12.053l24.579,2.578C417.493,257.433,421.886,262.843,421.251,268.869z M392.461,320.277     c-0.854,0.744-1.906,1.125-2.96,1.125c-1.234,0-2.468-0.526-3.357-1.525l-9.893-11.182c-3.958-4.465-4.048-11.018-0.527-15.556     c0.454-0.599,0.98-1.18,1.579-1.706c0.454-0.4,0.908-0.763,1.398-1.053c2.032-1.361,4.374-2.015,6.698-2.015     c3.395,0,6.752,1.38,9.167,4.121l9.911,11.2c1.634,1.833,1.453,4.665-0.399,6.299L392.461,320.277z"/>
			<path style="fill:#000E3F;" d="M446.682,101.266L99.587,64.98c-0.544-0.055-1.071-0.091-1.615-0.091     c-7.86,0-14.414,5.918-15.23,13.759L55.858,335.598c-0.345,3.34,0.381,6.626,2.106,9.476c2.505,4.175,6.716,6.862,11.563,7.37     l15.465,1.616l-5.519,52.66c-0.381,3.667,0.69,7.261,3.014,10.129c2.324,2.886,5.627,4.683,9.294,5.065     c0.471,0.036,0.962,0.073,1.434,0.073c2.233,0,4.411-0.545,6.39-1.579c2.396-1.252,4.374-3.177,5.7-5.555l30.768-55.456     l214.018,22.382l18.643,60.629c0.798,2.596,2.324,4.883,4.411,6.607c2.106,1.743,4.647,2.796,7.37,3.086     c0.471,0.055,0.962,0.073,1.434,0.073c6.989,0,12.997-5.301,13.741-12.398l5.501-52.661l15.43,1.615     c0.527,0.055,1.071,0.091,1.615,0.091c7.878,0,14.432-5.9,15.249-13.723l26.865-256.968     C461.24,109.708,455.105,102.156,446.682,101.266z M102.147,413.091c-0.98,1.76-2.451,3.177-4.211,4.102     c-1.798,0.926-3.776,1.307-5.773,1.107c-2.705-0.29-5.137-1.615-6.862-3.721c-1.705-2.124-2.505-4.774-2.214-7.497l5.501-52.642     l43.566,4.556L102.147,413.091z M392.079,439.394c-0.581,5.591-5.609,9.675-11.2,9.095c-1.996-0.218-3.866-0.998-5.409-2.269     c-1.543-1.271-2.687-2.977-3.267-4.883l-18.171-59.159l43.548,4.557L392.079,439.394z M456.739,117.749l-26.866,256.968     c-0.617,5.99-5.718,10.474-11.636,10.474c-0.417,0-0.835-0.036-1.234-0.073l-15.63-1.634l-51.535-5.392l-212.766-22.237     l-51.518-5.391l-15.647-1.634c-3.812-0.399-6.989-2.577-8.841-5.627c-1.252-2.088-1.87-4.611-1.597-7.225L86.336,79.012     c0.636-6.009,5.718-10.492,11.636-10.492c0.418,0,0.816,0.036,1.234,0.072l347.095,36.287     C452.746,105.551,457.41,111.323,456.739,117.749z"/>
		</g>
	</g>
	<g>
		<g>
			<path style="fill:#FD8A02;" d="M479.013,358.899c-2.15,2.211-6.461,4.842-10.685,14.209c-0.378,0.838-0.773,1.684-1.276,2.448     c-0.701,1.064-2.049,1.049-2.726-0.061c-1.532-2.51-1.383-6.33-6.574-13.284c-3.047-4.081-6.176-5.503-3.271-7.67     c7.242-5.4,10.161-14.003,11.559-16.239c0.604-0.965,1.891-0.962,2.537-0.037c0.692,0.992,1.008,2.161,1.39,3.295     c2.831,8.413,7.223,12.454,8.97,14.369C479.38,356.417,479.754,358.137,479.013,358.899z"/>
			<path style="fill:#FD8A02;" d="M489.895,279.531c-0.448,0.461-0.903,0.922-1.396,1.333c-6.956,5.789-8.957,12.882-10.565,15.324     c-0.701,1.064-2.049,1.049-2.726-0.06c-0.472-0.773-0.81-1.654-1.069-2.53c-4.029-13.649-13.122-15.184-8.776-18.424     c7.242-5.4,10.161-14.003,11.559-16.239c0.604-0.965,1.891-0.962,2.537-0.037c0.692,0.992,1.008,2.161,1.39,3.295     c2.831,8.412,7.223,12.453,8.97,14.369C490.262,277.049,490.637,278.767,489.895,279.531z"/>
			<path style="fill:#FD8A02;" d="M511.634,325.207c-1.866,1.921-5.615,4.214-9.277,12.337c-0.328,0.728-0.671,1.462-1.108,2.125     c-0.609,0.924-1.779,0.911-2.366-0.052c-1.329-2.177-1.201-5.496-5.708-11.534c-2.646-3.542-5.362-4.778-2.84-6.659     c6.288-4.689,8.822-12.158,10.036-14.099c0.524-0.838,1.642-0.835,2.202-0.032c0.601,0.861,0.875,1.876,1.207,2.861     c2.453,7.29,6.253,10.793,7.788,12.476C511.953,323.052,512.277,324.546,511.634,325.207z"/>
		</g>
		<g>
			<path style="fill:#FD8A02;" d="M24.181,159.424c1.819,2.491,5.72,5.699,8.59,15.565c0.257,0.883,0.529,1.775,0.92,2.603     c0.545,1.152,1.882,1.326,2.708,0.322c1.868-2.271,2.255-6.074,8.37-12.232c3.588-3.614,6.886-4.584,4.313-7.136     c-6.415-6.362-8.099-15.288-9.171-17.698c-0.463-1.04-1.738-1.217-2.507-0.392c-0.825,0.885-1.301,1.998-1.838,3.068     c-3.981,7.933-8.896,11.319-10.894,12.971C24.165,156.915,23.554,158.566,24.181,159.424z"/>
			<path style="fill:#FD8A02;" d="M33.6,79.314c0.379,0.519,0.765,1.04,1.195,1.515c6.077,6.707,7.065,14.009,8.315,16.653     c0.545,1.152,1.881,1.326,2.707,0.322c0.575-0.699,1.034-1.524,1.413-2.355c5.901-12.95,15.119-13.196,11.27-17.013     c-6.415-6.361-8.099-15.288-9.171-17.698c-0.463-1.04-1.737-1.217-2.507-0.392c-0.824,0.885-1.301,1.998-1.838,3.068     c-3.981,7.933-8.896,11.319-10.894,12.971C33.584,76.805,32.972,78.454,33.6,79.314z"/>
			<path style="fill:#FD8A02;" d="M0.231,115.382c1.579,2.164,4.969,4.959,7.458,13.515c0.223,0.767,0.459,1.541,0.799,2.259     c0.473,1.001,1.634,1.151,2.35,0.28c1.62-1.97,1.959-5.274,7.268-10.621c3.116-3.137,5.979-3.98,3.745-6.195     c-5.569-5.523-7.032-13.273-7.963-15.366c-0.401-0.903-1.508-1.057-2.176-0.34c-0.716,0.768-1.129,1.735-1.596,2.663     c-3.45,6.875-7.703,9.81-9.458,11.262C0.217,113.203-0.313,114.637,0.231,115.382z"/>
		</g>
	</g>
</g>















</svg>
