<svg id="Layer_1" enable-background="new 0 0 66 66" viewBox="0 0 66 66" xmlns="http://www.w3.org/2000/svg"><g><g><g><path d="m40.05 59.74c0 2.18-7.57 3.95-16.91 3.95-2.92 0-5.67-.17-8.06-.48-4.92-.62-8.37-1.8-8.81-3.18-.06-.2 0-.42.13-.58l.85-1.07 1.62-2.05h5.75c2.5-.34 5.41-.54 8.51-.54 3.11 0 6.01.2 8.51.54h5.76l1.63 2.06 1 1.26c0 .01.01.01 0 .01.02.03.02.05.02.08z" fill="#f26735"/></g></g><g><g><path d="m40.61 59.47c0 2.18-7.57 3.95-16.91 3.95-2.92 0-5.67-.17-8.06-.48.49-.42.96-.84 1.57-.96 1.3-.24 2.55 1.05 3.83.73 1.1-.27 1.65-1.6 2.72-1.98 1.66-.57 3.43 1.45 5.07.83 1.16-.44 1.64-2.02 2.85-2.31 1.01-.25 1.95.54 2.96.75 1.32.29 2.79-.56 3.21-1.85.23-.68.13-1.44-.2-2.09h.33l1.63 2.06 1 1.26c0 .01.01.01 0 .01z" fill="#eb562c"/></g></g><g><g><path d="m22.85 63.92c-9.05-.03-16.12-1.64-16.81-3.82-.08-.27-.02-.57.17-.81l2.47-3.12c.05-.06.11-.09.19-.09h5.75c5.14-.71 11.88-.71 17.06 0h5.73c.07 0 .14.03.19.09l1.63 2.06c.08.1.06.25-.04.34-.1.08-.26.06-.34-.04l-1.56-1.97h-5.65c-5.2-.71-11.83-.71-16.99 0h-5.67l-2.4 3.03c-.09.11-.12.25-.09.36.54 1.68 6.8 3.45 16.36 3.48.13 0 .24.11.24.24 0 .15-.11.25-.24.25z" fill="#010101"/></g></g><g><g><path d="m37.4 56.33c0 1.84-6.39 3.33-14.27 3.33-2.56 0-4.96-.16-7.03-.44-.67-.09-1.3-.18-1.9-.29-3.26-.61-5.34-1.55-5.34-2.6 0-.6.68-1.16 1.88-1.65 2.47-1.01 7.09-1.68 12.4-1.68 4.4 0 8.33.47 10.95 1.2 2.07.58 3.31 1.32 3.31 2.13z" fill="#f47948"/></g></g><g><g><path d="m14.64 58.09c.02.33-.18.62-.43.83-3.26-.61-5.34-1.55-5.34-2.6 0-.6.68-1.16 1.88-1.65.23.16.39.39.42.66.05.34-.12.69-.05 1.03.09.47.61.74 1.08.8.48.05.96-.03 1.44.04.48.09.97.42 1 .89z" fill="#f26735"/></g></g><g><g><path d="m15.02 59.31c-.09 0-.17-.05-.21-.13-.06-.12-.02-.26.1-.32.28-.15.55-.34.78-.56.29-.27.47-.54.54-.81.07-.3-.01-.62-.2-.79-.26-.23-.69-.17-.92-.11-.15.03-.3.08-.44.13-.23.08-.47.16-.73.19-.43.06-1-.04-1.29-.49-.13-.22-.16-.47-.19-.68-.02-.15-.04-.29-.08-.41-.14-.35-.55-.53-.9-.56-.09-.01-.18-.01-.3.01-.14.01-.25-.08-.27-.21s.08-.25.21-.27c.16-.02.28-.02.41-.01.59.04 1.11.38 1.3.86.07.18.09.35.11.52.02.18.05.36.12.49.16.26.55.31.82.27.21-.03.42-.09.64-.17.16-.05.32-.11.48-.14.55-.13 1.03-.06 1.35.22.33.29.47.79.35 1.26-.09.36-.31.71-.67 1.04-.25.25-.56.47-.89.64-.04.02-.08.03-.12.03z" fill="#f26735"/></g></g><g><g><path d="m37.4 56.33c0 1.84-6.39 3.33-14.27 3.33-2.56 0-4.96-.16-7.03-.44.06-.02.12-.05.17-.08.96-.47 1.85-1.18 2.92-1.28 1.68-.16 3.28 1.2 4.93.86 1.27-.27 2.26-1.51 3.56-1.48.57.01 1.11.29 1.65.49s1.16.33 1.68.07c.83-.42 1.12-1.7 2.04-1.81.31-.03.61.08.92.14.3.05.66.03.86-.2.3-.35.05-.89-.25-1.24-.15-.18-.31-.35-.49-.51 2.07.6 3.31 1.34 3.31 2.15z" fill="#f26735"/></g></g><g><g><path d="m23.13 59.9c-7.03 0-14.51-1.25-14.51-3.57 0-.83.97-1.57 2.88-2.18.12-.04.26.03.3.15.04.13-.03.26-.15.3-1.62.52-2.55 1.15-2.55 1.73 0 1.46 5.76 3.09 14.03 3.09s14.03-1.63 14.03-3.09c0-1.24-4.22-2.71-11.28-3.03-.13-.01-.23-.12-.23-.25.01-.13.12-.23.25-.23 5.84.27 11.74 1.46 11.74 3.51 0 2.32-7.47 3.57-14.51 3.57z" fill="#010101"/></g></g><g><g><path d="m30.56 55.1v2.04c0 .32-.91.59-2.06.59-1.13 0-2.05-.27-2.05-.59v-2.04z" fill="#eea820"/></g></g><g><g><ellipse cx="28.51" cy="55.1" fill="#ffce3b" rx="2.05" ry=".58"/></g></g><g><g><path d="m19.88 55.03c0 .32-.71.6-1.72.7-.31.03-.65.05-1 .05-.36 0-.7-.02-1.01-.05-1.01-.11-1.71-.39-1.71-.7 0-.29.62-.55 1.52-.68.36-.05.77-.08 1.2-.08.42 0 .83.03 1.19.08.91.12 1.53.38 1.53.68z" fill="#eb562c"/></g></g><g><g><g><path d="m26.82 14.16c-3.49 2.53-6.25 6.45-7.58 10.76-.87 2.8-.91 5.71-.96 8.78-.01.53-.01 1.06-.03 1.59-.1 4-.03 7.88.03 11.98.03 1.81.06 3.68.07 5.56.01.51.01 1.02.01 1.53v.73c0 .24-.07.47-.19.65-.31.03-.65.05-1 .05-.36 0-.7-.02-1.01-.05-.12-.18-.19-.41-.19-.65v-.73c0-2.39-.03-4.75-.08-7.05-.06-3.95-.12-8.03-.03-12.07.01-.53.02-1.05.03-1.58.05-3.11.1-6.32 1.07-9.44 1.48-4.78 4.56-9.16 8.46-11.99.53-.39 1.29-.27 1.67.26.38.52.26 1.28-.27 1.67z" fill="#f3eded"/></g></g></g><g><g><path d="m18.35 54.35v.73c0 .24-.07.47-.19.65-.31.03-.65.05-1 .05-.36 0-.7-.02-1.01-.05-.12-.18-.19-.41-.19-.65v-.15c.07.08.14.13.23.17.2.1.47.08.6-.1.1-.14.09-.34.1-.51s.09-.38.27-.41c.12-.02.26.06.38.01.11-.05.14-.19.12-.31-.03-.12-.1-.23-.13-.34-.04-.12-.04-.26.05-.34.11-.1.27-.05.41-.06.15-.02.28-.11.37-.23-.01.52-.01 1.03-.01 1.54z" fill="#d8d6d6"/></g></g><g><g><g><path d="m15.96 55.32c-.13 0-.24-.11-.24-.24-.06-8.8-.06-17.85-.06-26.59 0-5.68 2.95-11.34 8.3-15.92.74-.74 2.19-.74 2.89-.74.09 0 .17.05.21.13l.68 1.37c.04.08.03.18-.02.25-.92 1.23-1.97 2.18-2.98 3.09-1.25 1.13-2.42 2.19-3.18 3.64-.06.12-.21.16-.32.1-.12-.06-.16-.21-.1-.32.79-1.52 2-2.61 3.28-3.77.96-.87 1.96-1.77 2.83-2.91l-.55-1.1c-.67 0-1.85.04-2.42.61-5.25 4.51-8.14 10.03-8.14 15.57 0 8.75 0 17.79.06 26.59 0 .13-.11.24-.24.24z" fill="#010101"/></g></g><g><g><path d="m18.35 55.32c-.13 0-.24-.11-.24-.24 0-2.43-.03-4.89-.07-7.28l-.02-1.67c0-.13.1-.24.24-.24.12-.02.24.1.24.24l.02 1.67c.03 2.39.07 4.86.07 7.29 0 .13-.1.23-.24.23z" fill="#010101"/></g></g></g><g><g><path d="m39.25 6.18-8.57 13.07-5.92-6.74c-.28-.33-.43-.75-.41-1.16 0-.13.02-.26.05-.38 1.23-4.05 3.63-6.88 7.19-8.51.48-.22 1.04-.17 1.5.1l4.98 2.94z" fill="#4d86c5"/></g></g><g><g><path d="m39.25 6.18-8.57 13.07-5.92-6.74c-.28-.33-.43-.75-.41-1.16.2.55.67.99 1.24 1.15.67.18 1.43-.05 1.88-.58.4-.47.6-1.15 1.16-1.4.86-.38 2.03.53 2.74-.09.54-.47.34-1.51.95-1.87.38-.23.9-.07 1.28-.28.43-.24.52-.82.82-1.21.35-.47.96-.64 1.55-.73.58-.09 1.19-.13 1.69-.44.16-.1.31-.25.42-.41z" fill="#257dc1"/></g></g><g><g><path d="m30.68 19.49c-.07 0-.13-.03-.18-.08l-3.58-4.07c-.09-.1-.08-.25.02-.34s.25-.08.34.02l3.37 3.84 8.26-12.6-5.94-3.51c-.4-.23-.88-.27-1.28-.08-2.07.95-3.75 2.32-5.01 4.1-.08.11-.23.13-.33.06-.11-.08-.13-.23-.06-.33 1.31-1.84 3.06-3.27 5.2-4.25.54-.25 1.18-.21 1.72.11l6.16 3.63c.06.03.1.09.11.15s0 .13-.03.19l-8.57 13.07c-.04.06-.11.1-.18.11 0-.02-.01-.02-.02-.02z" fill="#010101"/></g></g><g><g><path d="m58.97 11.25-20.25 23.5c-2.76-2.59-5-5.8-6.46-9-.81-1.79-1.36-3.54-1.62-5.44-.07-.45-.12-.92-.15-1.4-.15-2.24.09-3.85.91-5.89.66-1.65 1.76-3.17 3.12-4.41 1.72-1.6 3.87-2.77 6.09-3.24 1.92-.41 3.91-.35 5.85-.05.56.09 1.13.21 1.7.34 3.24.79 6.56 2.4 9.27 4.38.54.39 1.06.79 1.54 1.21z" fill="#6695ce"/></g></g><g><g><path d="m47.37 7.33c-.6.22-1.24-.08-1.82-.32-.59-.25-1.33-.41-1.8.01-.27.25-.38.63-.42.99-.05.36-.08.74-.23 1.07-.16.33-.51.6-.87.54-.42-.08-.66-.57-1.07-.7-.51-.16-.99.29-1.29.74-.31.47-.55.99-.9 1.44-.34.45-.82.84-1.39.91-.62.07-1.22-.26-1.68-.68-.78-.7-1.26-1.7-1.38-2.73 1.72-1.6 3.87-2.77 6.09-3.24 1.92-.41 3.91-.35 5.85-.05.56.09 1.13.21 1.7.34.01.03.01.05.01.08.11.64-.19 1.38-.8 1.6z" fill="#4d86c5"/></g></g><g><g><path d="m37.1 14.16c-.25 0-.5-.03-.75-.11-.86-.24-1.65-.88-2.23-1.81-.45-.71-.73-1.5-1-2.32-.04-.13.03-.26.15-.3.13-.04.26.03.3.15.26.79.53 1.56.95 2.22.51.83 1.21 1.39 1.96 1.6.83.24 1.77-.04 2.22-.66.12-.17.22-.38.32-.6.21-.45.43-.93.93-1.16.65-.3 1.36.02 1.97.37.52.31 1.07.59 1.53.4.43-.17.62-.67.69-.96.05-.18.09-.37.12-.56.05-.29.11-.59.22-.88.2-.49.63-1.01 1.26-1.04.56-.02.97.34 1.34.66l.06.05c.3.26.55.36.74.3s.46-.34.69-1.29c.19-.8.13-1.64-.19-2.37-.05-.12 0-.26.13-.31.12-.05.26 0 .31.13.35.82.43 1.77.21 2.67-.23.97-.55 1.49-1.01 1.64-.36.12-.76-.02-1.2-.39l-.06-.05c-.32-.27-.65-.57-1.02-.55-.4.02-.7.41-.83.74-.1.24-.15.51-.2.79-.04.2-.07.4-.13.6-.1.37-.36 1.04-.98 1.28-.72.29-1.49-.16-1.95-.43-.53-.3-1.08-.56-1.52-.35-.33.16-.51.53-.7.92-.11.23-.22.46-.37.67-.41.6-1.17.95-1.96.95z" fill="#4d86c5"/></g></g><g><g><path d="m58.97 11.25-20.25 23.5c-2.76-2.59-5-5.8-6.46-9-.81-1.79-1.36-3.54-1.62-5.44.36 1.2.81 2.39 1.65 3.31 1.06 1.15 2.94 1.72 4.22.83 1.07-.75 1.42-2.23 2.45-3.05 1.14-.9 2.89-.77 3.94-1.77 1.22-1.17 1.03-3.41 2.43-4.37 1.01-.69 2.45-.4 3.46-1.09.99-.68 1.24-2.07 2.16-2.85.99-.84 2.45-.73 3.76-.69.94.03 1.98-.09 2.73-.59.53.39 1.05.79 1.53 1.21z" fill="#4d86c5"/></g></g><g><g><path d="m38.72 34.99c-.06 0-.12-.02-.16-.06-1.99-1.86-3.78-4.13-5.2-6.55-.07-.11-.03-.26.09-.33.11-.07.26-.03.33.09 1.35 2.31 3.05 4.47 4.93 6.27l19.93-23.13c-.43-.36-.88-.71-1.34-1.04-3.32-2.42-7.28-4.12-10.87-4.68-2.17-.33-4.06-.31-5.76.05-3.93.83-7.56 3.85-9.04 7.51-.05.12-.1.24-.14.36-.05.12-.18.19-.31.14-.12-.05-.19-.19-.14-.31s.09-.25.14-.37c1.54-3.8 5.31-6.94 9.38-7.8 1.76-.38 3.7-.4 5.94-.06 3.66.57 7.7 2.3 11.07 4.77.54.39 1.07.8 1.55 1.22.05.04.08.1.08.16s-.02.13-.06.17l-20.23 23.5c-.04.05-.1.08-.17.08-.01.01-.01.01-.02.01z" fill="#010101"/></g></g><g><g><path d="m52.92 26.5c-5.59 6.49-11.95 10.18-14.19 8.25-1.27-1.09-.96-3.72.55-6.97.1-.21.2-.43.31-.65.32-.64.68-1.3 1.09-1.98 1.09-1.82 2.48-3.75 4.11-5.65 1.64-1.9 3.34-3.56 4.98-4.91.6-.5 1.2-.95 1.79-1.36.32-.23.64-.44.95-.64 2.85-1.79 5.26-2.39 6.47-1.34 2.24 1.93-.47 8.76-6.06 15.25z" fill="#257dc1"/></g></g><g><g><g><g><path d="m48.3 22.21c-2.9 3.37-6.18 5.6-8.23 5.6h-.14l-.65-.03c.1-.21.2-.43.31-.65.32-.64.68-1.3 1.09-1.98 1.09-1.82 2.48-3.75 4.11-5.65 1.64-1.9 3.34-3.56 4.98-4.91.6-.5 1.2-.95 1.79-1.36.32-.23.64-.44.95-.64l.1.51c.39 2-1.34 5.67-4.31 9.11z" fill="#ffce3b"/></g></g></g></g><g><g><path d="m40.32 35.51c-.71 0-1.3-.19-1.75-.58-1.4-1.2-1.11-4.09.8-7.91.32-.64.68-1.29 1.1-1.99 1.14-1.9 2.53-3.82 4.14-5.69 1.59-1.84 3.32-3.55 5.01-4.94.55-.46 1.14-.91 1.8-1.37 3.5-2.46 6.31-3.17 7.71-1.96 1.11.96 1.16 3.01.13 5.78-.05.12-.18.19-.31.14-.12-.05-.19-.18-.14-.31.95-2.57.95-4.44.01-5.25-1.2-1.04-3.87-.29-7.12 1.99-.65.46-1.23.9-1.77 1.35-1.67 1.37-3.38 3.06-4.95 4.88-1.59 1.85-2.96 3.74-4.09 5.62-.41.69-.76 1.33-1.08 1.96-1.78 3.56-2.12 6.3-.92 7.33 1.25 1.08 4.16.19 7.58-2.32.11-.08.26-.05.34.05.08.11.05.26-.05.34-2.6 1.89-4.83 2.88-6.44 2.88z" fill="#010101"/></g></g><g><g><path d="m38.25 23.59c-.47 0-.89.22-1.2.59-.31.36-.5.86-.5 1.42 0-1.11-.75-2.01-1.69-2.01.47 0 .89-.22 1.2-.58.3-.36.49-.86.49-1.42 0 .55.19 1.05.5 1.42.31.36.73.58 1.2.58z" fill="#fff"/></g></g><g><g><path d="m53.94 15.76c-.47 0-.89.22-1.2.59-.31.36-.5.86-.5 1.42 0-1.11-.75-2.01-1.69-2.01.47 0 .89-.22 1.2-.58.3-.36.49-.86.49-1.42 0 .55.19 1.05.5 1.42.3.36.73.58 1.2.58z" fill="#fff"/></g></g><g><g><path d="m20.05 59.66c-.47 0-.89.22-1.2.59-.31.36-.5.86-.5 1.42 0-1.11-.75-2.01-1.69-2.01.47 0 .89-.22 1.2-.58.3-.36.49-.86.49-1.42 0 .55.19 1.05.5 1.42.3.35.73.58 1.2.58z" fill="#fff"/></g></g><g><g><path d="m39.4 21.25c-.25 0-.47.12-.63.31s-.26.46-.26.75c0-.58-.4-1.06-.89-1.06.25 0 .47-.12.63-.31s.26-.46.26-.75c0 .29.1.56.26.75.16.2.38.31.63.31z" fill="#fff"/></g></g><g><g><g><path d="m31.17 4.69c.3.36-.21 1.27-1.01 2.16s-1.65 1.5-2.04 1.24c-.38-.25-.09-1.36.8-2.35.89-1 1.96-1.41 2.25-1.05z" fill="#fff"/></g></g><g><g><path d="m32.78 3.45c.11.17-.05.47-.36.7s-.65.3-.78.14.02-.49.34-.73c.32-.23.69-.28.8-.11z" fill="#fff"/></g></g></g><g><g><g><path d="m43.68 31.11c-.1-.21.19-.57.68-1.04.5-.47 1.19-1.07 1.99-1.72 1.6-1.31 3.13-2.21 3.44-1.86.29.34-.71 1.77-2.39 3.15-.85.69-1.73 1.19-2.43 1.43s-1.19.24-1.29.04z" fill="#fff"/></g></g><g><g><path d="m40.44 32.08c-.01-.2.48-.4 1.09-.56.61-.15 1.15-.19 1.22-.01.08.19-.38.54-1.05.71-.67.18-1.25.06-1.26-.14z" fill="#fff"/></g></g></g><g><g><g><path d="m24.57 54.49c0 .46-.84.84-1.92.99-1.07.12-2.04-.12-2.09-.58-.05-.45.77-.95 1.91-1.08 1.13-.15 2.1.21 2.1.67z" fill="#fff"/></g></g><g><g><path d="m26.36 54.52c-.01.2-.3.34-.64.33s-.61-.17-.61-.37.28-.36.64-.35c.35.01.62.19.61.39z" fill="#fff"/></g></g></g></g></svg>