<svg id="svg8" height="512" viewBox="0 0 135.46666 135.46666" width="512" xmlns="http://www.w3.org/2000/svg" xmlns:svg="http://www.w3.org/2000/svg"><clipPath id="clipPath5136"><rect id="rect5138" height="89.013" rx="7.858" width="87.501" x="-68.036" y="22.301"/></clipPath><clipPath id="clipPath3786"><path id="rect3788" d="m84.667 15.119h79.375v72.571h-79.375z" paint-order="fill markers stroke"/></clipPath><g id="layer1"><g id="g4582" transform="matrix(1.02 0 0 1.02 -11.216 .017)"><g id="g4623"><g id="g10429"><g id="g10404" transform="matrix(1 0 0 .911 0 11.26)"><path id="path10231" d="m41.165712 71.338052s-4.49443 55.008048-3.75308 55.008048h2.96539s.88035-.47262 1.15836-2.46499 11.77295-53.391261 11.77295-53.391261z" fill="#7738c7" opacity=".997" paint-order="markers stroke fill"/><path id="path10233" d="m53.309422 70.489701-12.14348.848351s-.34094 4.189887-.80781 10.084942c3.67514-.125997 7.19631-.0079 10.36113.675538 1.45258-6.515222 2.59016-11.608831 2.59016-11.608831z" fill="#171d8f" opacity=".997" paint-order="markers stroke fill"/><path id="path10227" d="m113.95189 71.338052s4.49443 55.008048 3.75308 55.008048-2.96539 0-2.96539 0-.88035-.47262-1.15836-2.46499-11.77295-53.391261-11.77295-53.391261z" fill="#7738c7" opacity=".997" paint-order="markers stroke fill"/><path id="path10229" d="m101.80818 70.489701 12.14348.848351s.34094 4.189887.80781 10.084942c-3.67514-.125997-7.19631-.0079-10.36113.675538-1.45258-6.515222-2.59016-11.608831-2.59016-11.608831z" fill="#171d8f" opacity=".997" paint-order="markers stroke fill"/><path id="path10235" d="m22.269823 110.15279s82.278357-1.88003 106.926087-.61371c4.6636.2396 1.19865.84456 1.32376 1.32117.78632 2.99556 1.04843 3.3825-19.65796 4.3981-20.706388 1.0156-82.497585.51615-87.936621.12102-5.439036-.39515-.655266-5.22658-.655266-5.22658z" fill="#171d8f" opacity=".997" paint-order="markers stroke fill"/><path id="path10223" d="m130.46458 71.338052s4.49443 55.008048 3.75308 55.008048-2.96539 0-2.96539 0-.88035-.47262-1.15836-2.46499-11.77295-53.391261-11.77295-53.391261z" fill="#7738c7" opacity=".997" paint-order="markers stroke fill"/><path id="path10225" d="m118.32087 70.489701 12.14348.848351s.34094 4.189887.80781 10.084942c-3.67514-.125997-7.19631-.0079-10.36113.675538-1.45258-6.515222-2.59016-11.608831-2.59016-11.608831z" fill="#171d8f" opacity=".997" paint-order="markers stroke fill"/><path id="path10216" d="m22.445185 71.338052s-4.494424 55.008048-3.753076 55.008048h2.965393s.880351-.47262 1.158357-2.46499c.278005-1.99237 11.772954-53.391261 11.772954-53.391261z" fill="#7738c7" opacity=".997" paint-order="markers stroke fill"/><path id="path10218" d="m90.914062 271.73047-46.800781 3.26953s-1.313946 16.14775-3.113281 38.86719c14.163939-.48559 27.73445-.0306 39.931641 2.60351 5.598187-25.10955 9.982421-44.74023 9.982421-44.74023z" fill="#171d8f" opacity=".997" transform="matrix(.259 0 0 .259 10.999 -.017)" paint-order="markers stroke fill"/><path id="path10214" d="m22.304818 50.024293c-.741348 2.594719-2.038707 23.16713 0 25.391175 2.038708 2.224045 107.124822 2.224045 108.422172.741348 1.29736-1.482695 1.85338-19.460391.37068-26.873873s-108.792852.74135-108.792852.74135z" fill="#ff4b3d" opacity=".997" paint-order="markers stroke fill"/><path id="path10237" d="m363.07812 178.00195c-124.03007.00001-319.505854 14.85547-319.505854 14.85547-.782001 2.737-1.720125 10.74698-2.515625 20.99414 29.285843.30464 87.965679 2.7183 109.457029 2.32032 27.27412-.50508 89.90237-2.52498 94.95313 4.04101 3.7887 4.92532-2.93795 53.04815-4.4043 77.2168 7.9879.0391 15.8892.0684 23.875.0859-.51603-22.98-4.38471-74.80505 4.77344-77.30273 11.11168-3.03046 72.73013-5.0496 91.41797-3.0293 12.58264 1.36029 68.82691.43606 104.58398-.3164-.5298-10.37575-1.45298-19.85475-2.85547-26.86719-1.78572-8.92857-43.40199-11.99805-99.7793-11.99805z" fill="#cf1531" opacity=".997" transform="matrix(.259 0 0 .259 10.999 -.017)" paint-order="markers stroke fill"/><path id="path10209" d="m25.47892 41.300862c-1.88308.0032-3.243815.01997-3.895142.05417-5.210615.273598-5.105519 9.959132-1.684409 11.436561 3.421111 1.47743 57.52469-.03682 57.52469-.03682s54.103571 1.514247 57.524681.03682c3.42111-1.477429 3.5262-11.162963-1.6844-11.436561-5.21062-.273599-55.840281.565819-55.840281.565819s-38.763579-.642588-51.945139-.619989z" fill="#ffc517" opacity=".997" paint-order="markers stroke fill"/><path id="path10242" d="m46.861978 60.310497c-3.058063 0-6.262107 5.574447.09267 7.876827 6.354778 2.302377 8.618174-7.876827-.09267-7.876827z" fill="#fff" opacity=".997" paint-order="markers stroke fill"/><path id="path10244" d="m105.42849 60.310497c-3.05807 0-6.262111 5.574447.0927 7.876827 6.35477 2.302377 8.61817-7.876827-.0927-7.876827z" fill="#fff" opacity=".997" paint-order="markers stroke fill"/><path id="path10246" d="m25.47892 75.161025c-1.88308.000916-2.502467.0057-3.153794.01543-3.574654.157743-3.164804 2.931692-1.684409 3.257893 3.366152.741722 56.783342-.01049 56.783342-.01049s52.022631.731382 55.393301.01049c1.85522-.396779 2.25926-3.160463-1.6844-3.257893-5.20961-.128707-53.708901.161183-53.708901.161183s-38.763579-.183052-51.945139-.176614z" fill="#ffc517" opacity=".997" paint-order="markers stroke fill"/><path id="path10248" d="m17.602614 45.820294c-.463575 2.850857.411341 6.157113 2.296732 6.971332 3.421111 1.477429 57.524711-.03696 57.524711-.03696s54.103603 1.514388 57.524713.03696c1.07876-.465871 1.82657-1.748418 2.18321-3.294117-11.46191 2.504217-23.65888-1.135698-31.92416-1.758927-13.101599-.9879-23.966037 2.005321-57.512044 2.005321-14.050252 0-23.644039-1.631912-30.093162-3.923609z" fill="#ffaf17" opacity=".997" paint-order="markers stroke fill"/><g id="g10380"><path id="path10360" d="m77.292946-5.258855c-1.245005-.065526-4.455622 4.84909332-5.110887 7.6012082-.655265 2.7521149-.589891 4.7176244-.589891 4.7176244s-.720904-3.4729282-2.359067-5.8974106c-1.638165-2.4244821-3.07956.3278993-3.800352 3.6042265s.851901 9.5011295.851901 9.5011295-1.310696-1.703548-3.210964-2.686445c-1.900271-.982899-1.048326 2.948713-.262007 5.242142s4.65225 5.635405 4.65225 5.635405l9.960274-.851899 9.959765.851899s3.866437-3.341976 4.652756-5.635405c.78632-2.293429 1.637761-6.225041-.26251-5.242142-1.900271.982897-3.210458 2.686445-3.210458 2.686445s1.57269-6.2248023.851898-9.5011295-2.162693-6.0287086-3.800858-3.6042265c-1.638163 2.4244824-2.359064 5.8974106-2.359064 5.8974106s.06588-1.9655095-.589388-4.7176244c-.655265-2.75211488-3.866388-7.6667342-5.111393-7.6012082-.04727.00249-.09027.046481-.130748.1206139-.04048-.074133-.08399-.1181261-.131257-.1206139z" fill="#7738c7" opacity=".997" paint-order="markers stroke fill"/><path id="path10353" d="m77.423804 23.703679-15.398542.327887s1.769033 17.888915 4.45562 18.085493c2.68659.196578 10.942922.262007 10.942922.262007s8.25633-.06543 10.94292-.262007c2.686588-.196578 4.456126-18.085493 4.456126-18.085493z" fill="#ff4b3d" opacity=".997" paint-order="markers stroke fill"/><path id="path10365" d="m236.13867 38.513672c-1.59341.365985 3.15678 31.329851-2.91992 32.324219-6.9448 1.136423-14.6465-7.19767-17.17187-11.238282-2.52538-4.040611 1.38818 8.207141-.50586 11.111329-1.57344 2.412605-4.20822 3.422686-11.2754 1.960937 5.4648 7.122925 13.34766 13.949219 13.34766 13.949219l38.38672-3.283203 38.38477 3.283203s7.02937-6.076661 12.41406-12.746094c-.24219.04072-.4703.07182-.72266.119141-18.18275 3.409263-12.3746-7.829513-10.85937-13.132813 1.51522-5.303303-12.50002 12.24804-17.55078 9.722656-5.05077-2.525379-2.14648-13.257283.3789-28.662109 2.52538-15.404827-14.64691 26.894335-23.73828 26.136719-9.09138-.757616-12.75372-16.666933-17.04687-27.652344-.53665-1.373176-.89347-1.944862-1.1211-1.892578z" fill="#171d8f" opacity=".997" transform="matrix(.259 0 0 .259 10.999 -.017)" paint-order="markers stroke fill"/><path id="path10370" d="m256 91.417969-59.34766 1.263672s1.74719 17.608709 4.80664 35.126949c16.3063-10.20499 42.65677-23.88086 55.6836-23.88086 12.5133 0 39.39891-.30524 57.07422-1.29687.72024-5.904237 1.13086-9.949219 1.13086-9.949219z" fill="#cf1531" opacity=".997" transform="matrix(.259 0 0 .259 10.999 -.017)" paint-order="markers stroke fill"/><path id="path10358" d="m60.666959 25.930475c.926685 0 32.758323.324339 33.916681-.834017 1.158355-1.158356 3.892078-5.143103-2.455717-5.143103s-30.302609-.64868-32.38765.787682c-2.085043 1.436363-.741348 5.235772.926686 5.189438z" fill="#ffc517" opacity=".997" paint-order="markers stroke fill"/></g></g></g></g></g></g></svg>