<svg height="512" viewBox="0 0 74 74" width="512" xmlns="http://www.w3.org/2000/svg"><g id="line_color" data-name="line color"><path d="m6.684 7.592h60.632v60.632h-60.632z" fill="#e7aa6c"/><path d="m67.316 68.724h-60.632a.5.5 0 0 1 -.5-.5v-60.632a.5.5 0 0 1 .5-.5h60.632a.5.5 0 0 1 .5.5v60.632a.5.5 0 0 1 -.5.5zm-60.133-1h59.633v-59.632h-59.632z" fill="#323c6b"/><path d="m11.625 12.24h50.75v51.337h-50.75z" fill="#89c5cd"/><path d="m62.375 12.24v51.336h-3.28v-48.335h-47.47v-3.001z" fill="#6eaaad"/><path d="m3 68.224h68v4.184h-68z" fill="#e7aa6c"/><g fill="#323c6b"><path d="m71 72.908h-68a.5.5 0 0 1 -.5-.5v-4.184a.5.5 0 0 1 .5-.5h68a.5.5 0 0 1 .5.5v4.184a.5.5 0 0 1 -.5.5zm-67.5-1h67v-3.184h-67z"/><path d="m30.453 22.892a.5.5 0 0 1 -.5-.5v-.953a.5.5 0 1 1 1 0v.953a.5.5 0 0 1 -.5.5z"/><path d="m26.141 23.808a.5.5 0 0 1 -.457-.3l-.388-.87a.5.5 0 0 1 .914-.407l.388.87a.5.5 0 0 1 -.254.66.489.489 0 0 1 -.203.047z"/><path d="m22.573 26.4a.5.5 0 0 1 -.335-.128l-.708-.638a.5.5 0 0 1 .67-.743l.708.638a.5.5 0 0 1 -.335.872z"/><path d="m20.369 30.218a.5.5 0 0 1 -.154-.024l-.906-.294a.5.5 0 1 1 .309-.951l.906.294a.5.5 0 0 1 -.154.976z"/><path d="m18.96 34.7a.5.5 0 0 1 -.052-1l.947-.1a.493.493 0 0 1 .55.445.5.5 0 0 1 -.444.549l-.947.1z"/><path d="m20.445 39.273a.5.5 0 0 1 -.25-.933l.825-.477a.5.5 0 0 1 .5.866l-.825.477a.5.5 0 0 1 -.25.067z"/><path d="m38.334 26.4a.5.5 0 0 1 -.334-.872l.708-.638a.5.5 0 0 1 .67.743l-.708.638a.5.5 0 0 1 -.336.129z"/><path d="m34.767 23.808a.489.489 0 0 1 -.2-.043.5.5 0 0 1 -.254-.66l.388-.87a.5.5 0 0 1 .914.407l-.388.87a.5.5 0 0 1 -.46.296z"/></g><path d="m35.958 27.318a7.9 7.9 0 0 0 -12.28 9.748h12.28z" fill="#fcd462"/><path d="m35.961 27.322v9.744h-.846v-7.82a7.9 7.9 0 0 0 -12.255 1.539 7.9 7.9 0 0 1 13.1-3.463z" fill="#f7be56"/><path d="m62.375 19.069v11.524h-5.425a3.485 3.485 0 0 1 -3.53-3.386 2.7 2.7 0 0 1 .01-.279 3.5 3.5 0 0 1 4.733-3.011 1.851 1.851 0 0 1 -.01-.231 4.635 4.635 0 0 1 4.222-4.617z" fill="#e0e0e0"/><path d="m62.375 31.093h-5.425a3.978 3.978 0 0 1 -4.03-3.883 3.11 3.11 0 0 1 .013-.332 4 4 0 0 1 4.736-3.617 5.106 5.106 0 0 1 4.662-4.69.5.5 0 0 1 .544.5v11.522a.5.5 0 0 1 -.5.5zm-5.454-6.9a3.085 3.085 0 0 0 -.529.046 3 3 0 0 0 -2.463 2.724 2.2 2.2 0 0 0 -.009.246 2.975 2.975 0 0 0 3.03 2.886h4.925v-10.444a4.111 4.111 0 0 0 -3.223 4.035 1.376 1.376 0 0 0 .006.168.5.5 0 0 1 -.671.532 3.03 3.03 0 0 0 -1.066-.196z" fill="#323c6b"/><path d="m25.217 60.008a4.167 4.167 0 0 1 -1.808.394h-11.784v-12.139a5.7 5.7 0 0 1 9.936 2.443 5.326 5.326 0 0 1 1.847-.212 5.014 5.014 0 0 1 1.808 9.513z" fill="#eeefee"/><path d="m25.957 59.565a4.959 4.959 0 0 0 .462-2.616 5.028 5.028 0 0 0 -4.619-4.531 5.326 5.326 0 0 0 -1.847.212 5.705 5.705 0 0 0 -5.569-4.482 5.6 5.6 0 0 0 -2.761.721v-.606a5.7 5.7 0 0 1 9.936 2.443 5.326 5.326 0 0 1 1.847-.212 5.012 5.012 0 0 1 2.549 9.071z" fill="#e1e6e9"/><path d="m62.375 64.076h-50.75a.5.5 0 0 1 -.5-.5v-51.336a.5.5 0 0 1 .5-.5h50.75a.5.5 0 0 1 .5.5v51.336a.5.5 0 0 1 -.5.5zm-50.25-1h49.75v-50.336h-49.75z" fill="#323c6b"/><path d="m35.958 37.566h-12.28a.5.5 0 0 1 -.429-.242 8.405 8.405 0 0 1 13.057-10.365.5.5 0 0 1 .152.359v9.749a.5.5 0 0 1 -.5.499zm-11.991-1h11.491v-9.032a7.4 7.4 0 0 0 -11.491 9.033z" fill="#323c6b"/><path d="m34.879 7.592h4.241v60.632h-4.241z" fill="#e7aa6c"/><path d="m39.12 68.724h-4.24a.5.5 0 0 1 -.5-.5v-60.632a.5.5 0 0 1 .5-.5h4.24a.5.5 0 0 1 .5.5v60.632a.5.5 0 0 1 -.5.5zm-3.74-1h3.24v-59.632h-3.24z" fill="#323c6b"/><path d="m6.684 35.787h60.632v4.241h-60.632z" fill="#e7aa6c"/><path d="m67.316 40.528h-60.632a.5.5 0 0 1 -.5-.5v-4.24a.5.5 0 0 1 .5-.5h60.632a.5.5 0 0 1 .5.5v4.241a.5.5 0 0 1 -.5.499zm-60.133-1h59.633v-3.24h-59.632z" fill="#323c6b"/><path d="m23.408 60.9h-11.783a.5.5 0 0 1 -.5-.5v-12.137a.5.5 0 0 1 .116-.321 6.2 6.2 0 0 1 10.678 2.158 5.888 5.888 0 0 1 1.519-.1 5.531 5.531 0 0 1 5.085 4.985 5.476 5.476 0 0 1 -3.089 5.477 4.68 4.68 0 0 1 -2.026.438zm-11.283-1h11.283a3.681 3.681 0 0 0 1.592-.342 4.514 4.514 0 0 0 -1.627-8.564 4.78 4.78 0 0 0 -1.667.192.506.506 0 0 1 -.4-.048.5.5 0 0 1 -.234-.324 5.2 5.2 0 0 0 -8.948-2.363z" fill="#323c6b"/><path d="m3.684 13.908a.5.5 0 0 1 -.5-.5v-8.816a.5.5 0 0 1 .5-.5h4.066a.5.5 0 0 1 0 1h-3.566v8.316a.5.5 0 0 1 -.5.5z" fill="#323c6b"/><path d="m11.625 5.092h-1.042a.5.5 0 0 1 0-1h1.042a.5.5 0 0 1 0 1z" fill="#323c6b"/><path d="m70.316 34.45a.5.5 0 0 1 -.5-.5v-1.167a.5.5 0 0 1 1 0v1.167a.5.5 0 0 1 -.5.5z" fill="#323c6b"/><path d="m70.316 48.241a.5.5 0 0 1 -.5-.5v-9.875a.5.5 0 0 1 1 0v9.875a.5.5 0 0 1 -.5.5z" fill="#323c6b"/><path d="m42.489 48.693a.625.625 0 0 1 -.625-.625v-.641a.625.625 0 0 1 1.25 0v.641a.625.625 0 0 1 -.625.625z" fill="#fff"/><path d="m42.489 59a.625.625 0 0 1 -.625-.625v-7.837a.625.625 0 1 1 1.25 0v7.834a.625.625 0 0 1 -.625.628z" fill="#fff"/></g></svg>