<svg id="Halloween" height="512" viewBox="0 0 1000 1000" width="512" xmlns="http://www.w3.org/2000/svg">
    <g>
        <path d="m886.428 526.468c-6.979-1.104-14.227-1.664-21.537-1.664-15.588 0-31.836 2.499-48.568 7.457 9.93-5.207 17.688-12.55 24.51-19.008 14.518-13.739 29.166-29.071 34.844-51.982.883-3.564 3.752-7.985 6.791-12.665 3.195-4.922 6.814-10.499 9.535-17.078 7.488-18.093 12.775-37.454 16.162-59.189 3.611-23.19 4.273-48.344-15.207-75.15-11.697-16.094-26.617-29.386-41.045-42.241-6.818-6.071-13.256-11.808-19.154-17.652l-11.816-11.742c-20.389-20.294-41.473-41.281-64.105-60.979-20.166-17.555-43.025-37.451-72.504-45.974-8.525-2.462-17.803-3.661-28.365-3.661-17.641 0-35.705 3.423-51.645 6.442-4.979.942-9.811 1.86-14.406 2.625l-2.672.44c-25.725 4.25-57.738 9.541-80.199 29.921-4.277 3.883-11.401 5.626-19.649 7.646-7.846 1.92-16.741 4.099-25.426 8.702-18.398 9.748-31.625 19.703-42.884 32.271-16.791 18.745-15.99 36.424-11.352 50.9-1.093.646-2.196 1.296-3.31 1.95-23.244 13.681-47.278 27.824-64.586 52.29-12.838 18.146-11.986 37.836-11.303 53.657.783 18.136.115 23.311-6.381 27.875-2.879 2.023-5.89 4.063-8.952 6.139-10.789 7.313-23.02 15.602-32.778 25.362-4.61 4.607-6.852 8.824-8.123 11.509-.604.304-1.477.713-2.7 1.222l-1.714.692c-4.803 1.927-11.383 4.564-16.957 9.945-23.527 22.729-32.599 54.218-25.675 87.75-2.218 2.639-4.259 5.365-6.119 8.176-1.956-.379-3.899-.787-5.826-1.234-.659-.146-1.355-.263-2.056-.344-.986-.16-2.239-.29-3.71-.29-.007 0-.011 0-.018 0-7.414.106-13.427 1.882-18.257 3.31-2.512.742-5.111 1.512-6.43 1.512-.197 0-.499 0-1.2-.316-1.089-.59-3.596-3.911-5.255-6.11-4.473-5.921-10.598-14.029-21.072-18.675-3.354-1.498-6.735-3.105-10.146-4.727-15.994-7.596-34.125-16.209-54.689-16.69l-1.053-.011c-31.641 0-41.993 30.299-46.968 44.858-13.719 40.139-10.879 87.179 7.992 132.45 35.96 86.258 122.932 148.812 258.504 185.925 60.479 16.557 123.049 24.951 185.972 24.953h.009c65.773 0 130.07-9.178 191.098-27.277 3.525-1.047 7.439-2.109 11.576-3.236 20.906-5.693 46.928-12.777 63.434-27.025 5.906-5.098 10.982-10.512 15.889-15.747 1.486-1.586 2.971-3.168 4.467-4.729 5.5-5.73 9.779-7.281 21.633-9.637 26.535-5.264 43.434-19.047 61.322-33.639l.941-.771c27.197-22.18 51.148-47.582 71.189-75.508 19.184-26.73 39.051-67.119 24.746-107.719-9.832-27.915-37.097-47.345-74.802-53.309zm-201.112-195.289c.215-5.123.422-10.176.816-15.06 1.385-17.185 6.637-25.873 20.064-33.199 2.693-1.469 4.494-1.64 5.613-1.64 6.994 0 16.99 7.989 25.813 15.039l2.986 2.379c29.605 23.461 61.859 51.418 69.836 86.374 3.125 13.679-1.02 25.576-8.977 39.857 5.199-21.052 5.895-47.306-5.439-66.355-8.816-14.816-23.664-23.152-41.811-23.47l-1.955-.016c-20.895 0-46.787 6.071-68.418 18.889.844-7.818 1.168-15.52 1.472-22.798zm54.827 97.348c1.875-1.32 3.143-1.671 3.6-1.671.131 0 .49.223.898.637 1.357 1.372 2.926 4.504 2.879 8.826-.055 5.381 1.65 10.397 4.641 14.452-6.359-.063-16.797-.293-20.701-2.028-.259-5.139.548-14.49 8.683-20.216zm-66.135 98.256c.365-3.034.455-6.036.32-8.99 12.357 6.313 25.756 8.983 35.064 10.839 7.102 1.414 13.473 1.531 20.471 1.531h1.348c6.9 0 11.744.115 16.01 1.668 10.949 3.984 21.834 5.484 32.953 6.789 2.777.326 5.533.49 8.188.49 3.758 0 7.293-.319 10.625-.902-4.584 1.783-9.197 3.744-13.84 5.881-37.572 17.299-69.061 28.373-107.35 29.51-2.77-7.355-6.467-14.303-11.02-20.707 3.678-7.93 6.1-16.663 7.231-26.109z"
              fill="none"/>
        <g>
            <g>
                <path d="m425.485 690.583c-.4-.006-.777-.191-1.023-.51-.244-.316-.332-.729-.233-1.117.834-3.297 1.484-6.678 1.959-9.256 1.385-7.766 9.188-14.135 16.071-19.752 3.267-2.666 6.352-5.186 8.599-7.672 6.137-6.789 10.946-15.461 14.846-23.051 4.369-8.512 6.878-18.604 7.456-29.996.036-.68.587-1.221 1.269-1.238 38.861-1.104 89.498-4.623 136.512-22.215 10.008-3.744 18.383-8.778 24.893-14.969.252-.238.576-.359.9-.359.338 0 .678.133.932.391 15.621 15.896 22.027 39.17 16.723 60.74-9.834 39.977-62.293 50.275-97.006 57.092l-1.049.207c-.041.02-.525.248-.564.266-.154.059-.314.09-.477.09-.188 0-.373-.041-.545-.121-10.637-4.887-19.83-8.143-30.143-8.143-1.514 0-3.047.072-4.607.227-10.467 1.037-19.616 6.93-27.945 13.146-1.561 1.164-3.09 2.369-4.608 3.588-.23.188-.521.289-.815.289-.083 0-.167-.01-.25-.025-.468-.1-.644-.135-.812-.135-19.971 1.705-38.43 2.531-56.527 2.531z"
                      fill="#fcc335"/>
                <path d="m376.211 687.339c-6.681-.799-12.222-1.631-17.438-2.617-.695-.129-1.16-.793-1.046-1.492.003-.012.083-.52.085-.531 1.531-8.135 5.449-9.842 8.467-9.842.508 0 1.043.047 1.609.152 5.087.947 8.539 5.406 9.722 12.557.067.406-.038.951-.324 1.248-.261.273-.609.533-.979.533-.034 0-.065-.002-.096-.008z"
                      fill="#ffa2bb"/>
                <path d="m474.516 591.386c-.702 0-1.28-.557-1.305-1.26-.216-6.1-.856-12.318-1.904-18.486-5.534-32.565-31.956-57.943-67.31-64.656-5.1-.967-10.512-1.459-16.087-1.459-29.248 0-57.527 12.777-72.045 32.551-5.68 7.736-9.847 15.978-12.733 25.189-.11.352-.365.639-.697.795-.176.08-.362.121-.549.121-.174 0-.347-.036-.511-.105-17.763-7.529-32.788-16.123-45.931-26.28-.207-.159-.36-.378-.443-.626-6.939-21.162-5.815-39.623 3.539-58.101 5.01-9.9 12.885-13.883 20.499-17.732 5.628-2.848 10.944-5.534 15.186-10.473 1.349-1.574 2.294-3.827 3.204-6.006.338-.808.668-1.599 1.012-2.337 1.59-3.418 7.214-7.121 12.174-10.391 1.979-1.305 3.794-2.496 5.04-3.485 4.024-3.193 8.356-6.218 12.543-9.141 6.341-4.428 12.898-9.004 18.536-14.272 4.434-2.557 8.14-4.547 11.58-6.271 20.769-10.4 45.178-16.323 74.505-18.07-6.434-1.322-12.959-1.99-19.448-1.99-18.096 0-36.41 5.008-55.996 15.309-.191.102-.4.151-.607.151-.302 0-.603-.106-.844-.309-.404-.344-.562-.899-.397-1.403 2.819-8.623 1.7-19.199.616-29.426-.887-8.338-1.721-16.215-.54-23.037 5.053-29.206 37.137-47.002 62.915-61.304 14.607-8.057 29.71-16.386 46.174-21.306 12.555-3.755 26.321-4.83 38.468-5.781 8.807-.688 16.662-1.023 24.01-1.023 34.344 0 60.133 7.737 78.664 23.634-10.129-19.071-37.047-28.733-80.113-28.733-5.43 0-11.055.142-17.709.447-23.726 1.088-46.685 6.024-66.393 14.276-.164.07-.335.104-.503.104-.475 0-.932-.261-1.16-.708-.576-1.115-1.184-2.242-1.8-3.384-3.525-6.537-7.521-13.946-6.44-21.731 1.939-13.931 19.622-25.345 30.189-32.163 9.264-5.981 20.042-12.226 32.153-14.767 1.623-.342 3.199-.647 4.737-.949 7.708-1.502 14.366-2.802 21.312-7.236 20.346-12.999 36.424-21.385 58.379-25.792l6.33-1.279c21.576-4.376 46.031-9.334 69.086-9.334 8.129 0 15.789.623 22.773 1.853 19.557 3.445 36.402 18.095 51.266 31.021 3.617 3.144 7.156 6.22 10.635 9.06 18.51 15.104 35.707 32.441 52.338 49.208 3.398 3.425 6.789 6.843 10.186 10.238 15.916 15.909 31.547 31.406 47.799 46.143 22.559 20.456 35.207 38.344 33.104 69.247-2.021 29.771-11.43 57.984-25.807 77.406-4.199 5.673-5.605 10.658-7.135 17.083-2.6 10.935-7.461 17.912-15.52 26.964l-1.119 1.259c-11.791 13.27-25.156 28.309-43.914 28.956l-1.281.023c-8.434 0-16.531-2.832-24.359-5.57-7.658-2.676-14.889-5.206-22.242-5.206-1.898 0-3.756.175-5.525.524-3.498.684-6.975 1.016-10.627 1.018-10.377 0-20.391-2.831-29.762-5.729-20.688-6.404-25.383-23.028-27.375-40.039-3.465-29.61 1.627-52.255 15.137-67.303 12.014-13.38 34.055-22.237 65.512-26.327 1.648-.214 3.258-.322 4.781-.322 7.721 0 13.799 2.729 18.07 8.113 10.877 13.713 6.104 38.808 4.381 46.172-.135.576-.639.989-1.229 1.008-.016 0-.029.002-.043.002-.572 0-1.082-.375-1.25-.929-2.428-8.012-6.768-13.17-12.898-15.336-4.092-1.443-8.367-2.174-12.705-2.174-12.771 0-25.445 6.391-33.902 17.099-.26.323-.652.506-1.051.506-.182 0-.367-.038-.537-.119-.547-.257-.859-.832-.74-1.424 1.287-6.296 2.969-12.61 4.596-18.718l.355-1.34c-6.42 9.136-8.678 21.083-10.277 31.791-1.74 11.638-3.061 25.189.35 37.47 0 0 .418 1.602.533 1.977.16.128.287.293.375.481 3.662 8.06 12.682 9.17 21.881 9.17 1.391 0 2.783-.024 4.156-.057l1.842-.022c6.643 0 13.514.797 20.152 1.567 6.635.77 13.49 1.563 20.109 1.563 6.199 0 11.576-.702 16.432-2.146 14.441-4.29 25.842-24.369 33.387-37.654l2.008-3.519c19.461-33.771 14.123-75.326-13.594-105.869-17.422-19.199-35.83-36.838-54.711-52.426l-1.238-1.023c-10.043-8.304-22.545-18.641-35.527-22.687-.555-.173-.928-.69-.916-1.271s.404-1.084.965-1.236c10.701-2.886 21.52-3.782 31.98-4.652 3.115-.259 6.238-.518 9.375-.828-4.199-1.326-9.162-1.997-14.811-1.997-9.871 0-20.338 1.99-29.373 3.857-9.285 1.915-17.514 5.036-24.459 9.275-7.363 3.841-14.061 9.204-18.467 12.905-14.686 12.347-16.561 35.582-17.801 50.957-.283 3.492-.521 6.973-.76 10.44-.83 12.044-1.684 24.497-4.385 36.763-1.652 7.511-6.082 10.561-10.365 13.508-2.844 1.957-5.529 3.805-7.365 6.939-3.543 6.049-5.295 13.69-6.988 21.079-.973 4.243-1.891 8.25-3.129 12.02-4.205 12.792-5.189 24.142-3.006 34.694 2.105 10.187 6.92 19.604 11.576 28.711 7.697 15.053 15.654 30.621 11.129 49.619-6.85 28.733-40.391 37.26-64.883 43.486l-2.033.52c-15.197 3.877-31.451 6.777-49.697 8.869-.051.004-.1.01-.148.01-.541 0-1.031-.336-1.225-.848-.209-.563-.01-1.195.484-1.535 2.803-1.926 5.068-4.209 6.689-6.691-2.725 2.689-5.604 4.814-8.699 6.434-3.475 1.818-7.223 2.672-10.848 3.496-1.135.258-2.268.516-3.391.803-11.274.92-23.169 1.537-36.585 1.918-.016-.003-.03.001-.04.001z"
                      fill="#7761d5"/>
                <path d="m317.224 672.946c-.152 0-.309-.029-.457-.084-21.445-7.998-48.339-19.666-66.099-39.041-1.86-2.908-4.017-5.602-6.546-8.191l.547-1.438-1.08.736c-17.497-25.678-14.225-58.783 7.956-80.508.252-.246.582-.373.913-.373.273 0 .546.086.78.262 13.613 10.146 28.929 18.754 46.819 26.316.571.242.895.854.771 1.461-1.586 7.813-2.235 16.152-1.932 24.793.492 13.939 5.39 27.447 9.602 37.658 1.178 2.859 2.613 5.617 4 8.287 3.526 6.781 7.174 13.793 6.539 22.525l-.513 6.391c-.031.408-.254.777-.601.998-.209.138-.454.208-.699.208z"
                      fill="#fcc335"/>
                <path d="m498.938 857.506c-34.994 0-71.366-2.771-108.103-8.232-106.319-15.809-246.028-58.245-307.842-170.632-15.885-28.881-23.2-61.582-21.158-94.566.825-13.328 4.198-27.635 10.313-43.734 3.92-10.324 11.25-15.557 21.788-15.557 12.848 0 27.945 7.587 40.077 13.686 3.396 1.707 6.51 3.273 9.204 4.475 6.472 2.871 10.782 8.146 14.953 13.249 4.075 4.985 8.289 10.142 14.516 12.956 2.975 1.348 5.928 2 9.025 2 4.179 0 8.107-1.162 12.265-2.395 4.224-1.25 8.59-2.543 13.485-2.668 6.303 1.381 12.327 2.404 19.532 3.526.362.059.686.263.888.569.203.306.268.684.178 1.039-3.252 12.998-2.363 27.02 2.643 41.672.171.502.024 1.055-.373 1.402-.243.215-.552.326-.861.326-.196 0-.395-.045-.576-.135-5.156-2.539-10.263-3.881-14.767-3.881-1.669 0-3.268.18-4.788.539 10.742 2.15 19.141 7.656 26.037 12.9.146.111.268.252.355.412 4.695 8.578 11.536 16.596 20.33 23.824.378.311.551.809.445 1.289-.105.479-.47.859-.944.982-3.187.832-5.88 2.355-7.825 4.389 3.373-1.193 6.891-2.244 10.924-2.678.272-.029.549-.039.828-.039l1.158.021c.276 0 .643.086.867.25 17.432 12.68 38.925 21.377 55.702 27.537.517.188.858.684.854 1.234-.088 14.096 3.56 22.264 11.826 26.48 2.932 1.498 6.79 2.391 10.316 2.391 2.833 0 6.779-.557 9.5-3.203 4.167-4.053 5.662-9.664 6.576-14.621.116-.629.665-1.07 1.281-1.07.078 0 .157.01.238.023 7.211 1.324 14.533 2.238 20.746 2.959.526.063.965.436 1.106.947 3.407 12.215 9.224 17.902 18.309 17.902 1.624 0 3.378-.186 5.215-.553 8.558-1.713 14.281-6.346 18.009-14.58.212-.465.678-.768 1.189-.768.005 0 4.289.039 6.423.039 14.25 0 28.891-.545 44.757-1.664.032-.002.063-.004.093-.004.556 0 1.055.352 1.234.883.193.563-.019 1.182-.511 1.51-3.665 2.441-7.654 4.457-11.511 6.404-1.34.676-2.681 1.354-4.007 2.049 10.311-2.352 19.066-5.994 27.231-11.32 1.618-1.057 3.227-2.137 4.832-3.213 8.288-5.563 16.861-11.313 27.008-13.865 2.381-.6 4.883-.902 7.438-.902 8.699 0 16.996 3.4 25.02 6.689 1.783.732 3.551 1.457 5.297 2.135 8.01 3.096 17.607 6.264 28.068 6.264.982 0 1.971-.029 2.953-.086-6.762-1.57-12.949-4.146-18.248-6.549-.516-.234-.82-.771-.758-1.334.063-.561.477-1.02 1.029-1.133 19.842-4.145 45.059-10.508 64.107-23.035 4.301-2.049 8.086-4.637 12.092-7.377 1.258-.861 2.531-1.729 3.83-2.592 10.15-6.727 18.555-9.469 29.006-9.469.414 0 .832.004 1.256.014-2.697-1.383-5.707-2.084-8.984-2.084-4.545 0-9.727 1.334-15.408 3.967-.174.082-.361.123-.549.123-.371 0-.734-.16-.988-.455-.381-.441-.424-1.082-.102-1.57 2.721-4.135 4.863-8.533 6.369-13.068 2.662-8.025 3.791-16.469 3.354-25.094-.018-.363.117-.719.371-.977.248-.252.582-.395.934-.395.014 0 .027.002.039.002 2.619.08 5.219.117 7.793.117 40.314 0 77.865-9.473 121.754-30.721 24.535-11.877 50.467-18.419 73.02-18.419 21.484 0 39.715 5.749 54.182 17.09 11.432 8.958 17.746 20.399 18.77 34.007 2.781 36.975-34.385 82.361-56.789 106.123l-4.223 4.5c-19.236 20.539-45.588 48.672-71.439 54.801-2.789.662-5.441 1.246-7.988 1.807-14.914 3.287-25.689 5.662-37.451 17.521-1.975 1.992-3.898 4.16-5.84 6.348-4.354 4.904-8.855 9.975-14.287 13.498-10.682 6.928-24.295 11.224-37.461 15.38-3.838 1.213-7.596 2.4-11.156 3.615-28.643 9.803-60.295 17.408-96.768 23.252-31.12 4.992-63.833 7.521-97.233 7.521z"
                      fill="#7761d5"/>
                <path d="m413.693 642.79.14-1.299-.457 1.264c-3.822-.41-7.777-.836-11.609-3.242-5.163-3.24-7.67-8.482-9.303-13.969.891 5.174 3.321 10.115 7.018 13.936.437.428.693 1.244.374 1.762-.259.424-.614.752-1.048.752-.1 0-.2-.016-.309-.051-5.723-1.943-10.562-5.615-14.385-10.914-7.699-10.676-7.53-26.637.516-48.795 5.385-13.078 15.916-26.998 29.388-26.998 2.813 0 5.671.616 8.493 1.832 1.189.514 2.303 1.139 3.393 1.793.484.29.725.857.601 1.408-.123.549-.585.955-1.146 1.012-6.002.584-11.835 3.318-14.951 5.768-9.415 7.4-18.019 22.031-18.246 34.432 3.144-10.092 6.425-19.622 13.684-28.055 3.568-4.148 8.464-7.148 14.962-9.163 1.595-.497 3.187-.737 4.867-.737 2.324 0 4.47.459 6.833 1.012.266.061.504.205.684.406 13.022 14.776 14.252 41.203 7.229 56.617-4.9 10.756-14.985 18.883-26.322 21.211-.088.02-.176.027-.264.027-.049-.001-.097-.005-.142-.009z"
                      fill="#ffa2bb"/>
                <path d="m398.04 706.618c-3.975 0-7.054-1.586-9.151-4.707-2.935-4.369-3.782-10.248-4.533-15.434-.144-1.008-.288-1.994-.44-2.939-1.291-7.807-6.765-16.143-16.078-17.16-.559-.061-1.102-.09-1.635-.09-8.279 0-13.354 7.256-14.707 14.447-.242 1.412-.449 2.877-.658 4.346-.668 4.703-1.358 9.564-3.344 13.957-1.315 2.908-3.989 4.512-7.531 4.512-3.812 0-8.333-1.879-11-4.574-6.344-6.408-4.891-19.338-3.83-28.777.209-1.848.4-3.557.514-5.041.602-8.344-1.926-15.086-6.197-23.264-13.727-26.254-17.223-52.109-10.395-76.843 9.98-36.146 48.567-52.607 80.194-52.607 4.3 0 8.579.286 12.719.848 36.559 4.96 62.597 35.772 64.795 76.665 1.156 21.553-7.249 42.924-24.313 61.799-2.961 3.275-6.213 5.75-9.354 8.141-6.235 4.742-11.619 8.838-13.22 17.82-.19 1.037-.371 2.111-.556 3.215-1.468 8.799-3.294 19.75-12.637 23.68-3.164 1.328-6.073 2.006-8.643 2.006zm15.775-158.281c-15.401 0-28.994 16.267-35.633 32.387-4.754 13.094-13.625 45.369 7.045 61.104 7.191 5.475 14.951 8.25 23.066 8.25 16 0 31.412-11.141 39.265-28.381 5.638-12.381 5.54-29.402-.254-44.426-4.963-12.863-13.342-22.381-23.593-26.8-3.285-1.417-6.615-2.134-9.896-2.134zm-72.589 1.11c-7.589 0-15.502 6.962-19.691 17.326-7.404 18.323-7.268 47.339 7.574 65.011 5.5 6.553 11.193 10.016 16.46 10.016 7.895 0 14.249-7.727 16.999-20.672 2.969-20.57 5.316-49.803-8.684-65.133-3.969-4.344-8.229-6.548-12.658-6.548z"
                      fill="#ffa2bb"/>
                <path d="m344.23 634.825c-2.348-.268-4.873-1.676-7.504-4.188-6.675-6.371-9.827-15.828-11.831-23.359-2.536-9.527-1.915-20.809 1.952-35.506.706-2.684 4.678-16.072 13.402-16.072 1.484 0 3.013.408 4.544 1.211.395.207.657.602.693 1.045.038.445-.155.879-.511 1.149-3.908 2.973-6.892 7.591-9.125 14.119-1.788 5.235-3.357 14.405-1.516 20.708-.024-.367-.054-.732-.083-1.107-.117-1.475-.229-2.951-.2-4.416.104-5.385 1.545-10.386 3.087-14.984 1.512-4.523 4.096-8.66 7.471-11.959.822-.807 1.761-1.344 2.574-1.787.195-.107.41-.16.623-.16.357 0 .711.148.965.428 3.271 3.594 4.853 8.955 6.123 13.263l.24.819c4.557 15.332 2.991 32.162 1.12 45.107-1.001 4.721-2.919 10.877-6.465 13.881-.24.205-.54.311-.843.311-.193 0-.39-.045-.571-.133-5.427-2.643-7.43-9.742-9.197-16.006-.276-.984-.549-1.951-.827-2.877.377 6.191 2.631 14.207 6.921 18.266.407.387.524.99.286 1.5-.217.465-.68.756-1.184.756-.047-.001-.095-.005-.144-.009z"
                      fill="#ffa2bb"/>
                <path d="m653.063 625.647c-13.504 8.877-28.129 15.969-43.559 20.799-16.951 5.305-34.34 8.813-52.154 8.809-9.078 0-18.191-.744-27.164-2.111-10.332-1.574-19.596-2.549-29.569 1.361-10.542 4.131-19.17 11.789-29.694 15.824-6.024 2.309-12.307 3.916-18.398.941-1.163-.566-2.229-1.256-3.225-2.02.425-.449.832-.891 1.222-1.32 7.886-8.684 15.916-16.637 21.805-26.947 6.002-10.508 10.033-22.072 11.36-34.111.335-3.029.501-6.121.54-9.215-3.33.127-6.616.244-9.798.334-.682.018-1.232.559-1.269 1.238-.578 11.393-3.087 21.484-7.456 29.996-3.899 7.59-8.709 16.262-14.846 23.051-2.247 2.486-5.332 5.006-8.599 7.672-6.884 5.617-14.687 11.986-16.071 19.752-.475 2.578-1.125 5.959-1.959 9.256-.099.389-.011.801.233 1.117.246.318.623.504 1.023.51l3.553.008c18.098 0 36.557-.826 56.527-2.531.168 0 .344.035.812.135.083.016.167.025.25.025.294 0 .585-.102.815-.289 1.519-1.219 3.048-2.424 4.608-3.588 8.329-6.217 17.479-12.109 27.945-13.146 1.561-.154 3.094-.227 4.607-.227 10.313 0 19.506 3.256 30.143 8.143.172.08.357.121.545.121.162 0 .322-.031.477-.09.039-.018.523-.246.564-.266l1.049-.207c33.479-6.572 83.35-16.469 95.683-53.024z"
                      fill="#f0a02b"/>
                <path d="m774.338 410.695c.49 1.795.818 3.644 1.043 5.51-.057.245-.117.523-.166.739-.135.576-.639.989-1.229 1.008-.016 0-.029.002-.043.002-.572 0-1.082-.375-1.25-.929-2.428-8.012-6.768-13.17-12.898-15.336-4.092-1.443-8.367-2.174-12.705-2.174-12.771 0-25.445 6.391-33.902 17.099-.26.323-.652.506-1.051.506-.182 0-.367-.038-.537-.119-.275-.128-.488-.335-.619-.587 1.568-7.452 3.43-14.866 6.641-21.801 5.6-12.089 18.666-22.768 32.707-18.065 7.139 2.39 11.311 8.67 15.219 14.703 3.85 5.943 6.921 12.598 8.79 19.444zm72.699-33.846c2.09-16.822-3.656-32.97-13.078-46.74-9.873-14.43-22.414-26.815-31.207-42.01-7.682-13.271-14.512-29.103-29.217-36.011-6.488-3.047-13.711-4.463-20.953-5.012-10.109.843-20.529 1.771-30.846 4.554-.561.152-.953.656-.965 1.236s.361 1.098.916 1.271c12.982 4.046 25.484 14.383 35.527 22.687l1.238 1.023c18.881 15.588 37.289 33.227 54.711 52.426 18.975 20.908 27.447 46.977 24.67 72.175 4.806-7.716 8.052-16.35 9.204-25.599zm-584.163 142.963c-4.859-9.478-7.479-19.716-8.664-30.235-5.064 15.056-4.835 30.435.791 47.593.083.248.236.467.443.626 13.143 10.157 28.168 18.751 45.931 26.28.164.069.337.105.511.105.187 0 .373-.041.549-.121.332-.156.587-.443.697-.795.218-.696.494-1.351.729-2.034-6.794-5.833-15.227-9.878-21.79-16.147-7.774-7.429-14.284-15.688-19.197-25.272zm150.496-140.913c3.368 0 6.746.198 10.116.556.155-.146.315-.272.459-.461 1.484-1.909 1.725-4.997-.812-6.308-4.203-2.175-9.674-1.136-14.283-.904-4.835.241-9.629.688-14.479.558-7.131-.193-13.394-1.723-15.655-9.058-1.348-4.36-2.734-8.646-4.943-12.666-2.309-4.203-5.234-8.032-7.726-12.125-2.422-3.972-4.196-8.201-5.469-12.572-2.351 4.443-4.095 9.17-4.977 14.266-1.181 6.822-.347 14.699.54 23.037 1.084 10.227 2.203 20.803-.616 29.426-.164.504-.007 1.06.397 1.403.143.119.324.131.492.18.664-.168 1.322-.346 1.979-.53 19.201-9.937 37.199-14.802 54.977-14.802zm211.413 86.646c5.498 18.039 13.709 37.019 9.826 56.215-3.57 17.646-14.904 31.614-29.996 40.997-8.549 5.314-17.797 8.795-27.205 12.254-4.662 1.713-9.281 3.339-13.65 5.733-1.184.647-2.346 1.364-3.502 2.108 6.066-1.188 12-2.469 17.717-3.926l2.033-.52c24.492-6.227 58.033-14.753 64.883-43.486 4.525-18.998-3.432-34.566-11.129-49.619-3.26-6.374-6.547-12.92-8.977-19.756zm-184.829-205.755c.229.447.686.708 1.16.708.168 0 .339-.033.503-.104 5.393-2.257 11.046-4.243 16.872-5.992 1.055-.349 2.104-.704 3.171-1.012.09.011.18.018.268.031 9.885-2.764 20.269-4.797 30.941-6.04.085-.083.187-.146.27-.231 1.444-1.45.58-3.477-1.1-4.165-6.565-2.693-14.144-2.106-21.114-2.5-6.787-.385-13.675-1.502-19.953-4.232-5.938-2.583-10.872-6.536-15.648-10.796-1.846 2.924-3.161 6-3.609 9.218-1.081 7.785 2.915 15.194 6.44 21.731.616 1.142 1.223 2.269 1.799 3.384zm181.251 177.008c-.713 4.792-.521 9.641.182 14.43-.773-7.47-.053-15.369 2.209-23.912-1.225 3.165-1.957 6.58-2.391 9.482z"
                      fill="#584abb"/>
                <path d="m300.446 830.006c-9.346-3.834-18.614-7.855-27.744-12.182-22.682-10.749-44.634-22.948-65.951-36.188-20.395-12.672-40.395-26.475-57.862-43.023-17.479-16.564-32.333-35.764-41.694-58.08-8.309-19.809-13.152-46.436-4.286-66.951 3.903-9.033 11.52-17.941 22.103-17.889 11.551.059 22.151 8.75 33.043 11.879 5.508 1.582 11.251 1.963 16.908 1.061 6.629-1.053 13.009-4.473 19.779-4.529 6.244-.051 11.549 2.803 16.125 6.777 1.057-.16 2.137-.273 3.259-.273 4.504 0 9.61 1.342 14.767 3.881.182.09.38.135.576.135.31 0 .618-.111.861-.326.397-.348.544-.9.373-1.402-5.006-14.652-5.895-28.674-2.643-41.672.09-.355.025-.733-.178-1.039-.202-.307-.525-.511-.888-.569-7.205-1.122-13.229-2.146-19.532-3.526-4.896.125-9.262 1.418-13.485 2.668-4.157 1.232-8.086 2.395-12.265 2.395-3.098 0-6.051-.652-9.025-2-6.227-2.814-10.44-7.971-14.516-12.956-4.171-5.103-8.481-10.378-14.953-13.249-2.694-1.201-5.809-2.768-9.204-4.475-12.132-6.099-27.229-13.686-40.077-13.686-10.538 0-17.868 5.232-21.788 15.557-6.114 16.1-9.487 30.406-10.313 43.734-2.042 32.984 5.273 65.686 21.158 94.566 45.275 82.312 132.331 127.074 217.452 151.362z"
                      fill="#584abb"/>
                <path d="m235.729 624.458c-.088-.16-.209-.301-.355-.412-6.343-4.822-13.984-9.834-23.525-12.285 2.613 2.414 4.988 5.16 7.14 7.928 14.284 31.758 37.466 62.797 70.509 76.043 9.852 3.949 21.695 6.07 31.947 3.574-2.316-4.48-3.422-10.352-3.375-18.037.004-.551-.338-1.047-.854-1.234-16.777-6.16-38.271-14.857-55.702-27.537-.225-.164-.591-.25-.867-.25l-1.158-.021c-.279 0-.556.01-.828.039-4.033.434-7.551 1.484-10.924 2.678 1.945-2.033 4.639-3.557 7.825-4.389.475-.123.839-.504.944-.982.105-.48-.067-.979-.445-1.289-8.795-7.23-15.636-15.248-20.332-23.826z"
                      fill="#584abb"/>
                <path d="m243.589 624.929 1.08-.736-.547 1.438c2.529 2.59 4.686 5.283 6.546 8.191 17.76 19.375 44.653 31.043 66.099 39.041.148.055.305.084.457.084.245 0 .49-.07.701-.207.347-.221.569-.59.601-.998l.513-6.391c.635-8.732-3.013-15.744-6.539-22.525-1.387-2.67-2.822-5.428-4-8.287-4.212-10.211-9.109-23.719-9.602-37.658-.068-1.947-.072-3.873-.045-5.789-.668 1.295-1.239 2.67-1.658 4.391-.746 3.07-.872 6.572-.926 9.713-.129 7.313 1.277 14.191 3.634 21.104 2.296 6.729 5.667 13.047 7.591 19.918.828 2.953 1.404 5.908 1.484 8.979.016.592-.026 1.174-.056 1.76-17.535-8.055-33.292-21.275-43.705-36.928-7.821-11.756-12.862-25.275-14.16-39.381-.647-7.065-.526-14.524.604-21.535.727-4.514 2.584-8.783 4.051-13.081-.811-.585-1.676-1.124-2.474-1.72-.234-.176-.507-.262-.78-.262-.331 0-.661.127-.913.373-22.181 21.723-25.453 54.828-7.956 80.506z"
                      fill="#f0a02b"/>
                <path d="m309.054 565.051c-6.828 24.733-3.332 50.589 10.395 76.843 4.271 8.178 6.799 14.92 6.197 23.264-.113 1.484-.305 3.193-.514 5.041-1.061 9.439-2.514 22.369 3.83 28.777.989 1 2.275 1.832 3.645 2.553 10.359-26.682 1.419-47.352-8.428-62.754-11.342-17.74-10.76-27.92-11.925-59.914-.69-18.971 13.427-38.498 25.05-51.299-13.118 8.603-23.688 20.968-28.25 37.489z"
                      fill="#f75093"/>
                <path d="m403.577 705.638c-8.788-5.043-14.778-16.434-16.863-23.523-2.907-9.891-9.017-11.635-9.017-11.635l-.059.684c3.396 3.342 5.538 7.922 6.276 12.375.152.945.297 1.932.44 2.939.751 5.186 1.599 11.064 4.533 15.434 2.098 3.121 5.177 4.707 9.151 4.707 1.695-.001 3.578-.401 5.539-.981z"
                      fill="#f75093"/>
                <path d="m344.224 631.401c-3.205-3.824-5.075-9.889-5.688-15.176-1.675-6.244-3.061-13.715-4.283-23.4.029.375.059.74.083 1.107-1.842-6.303-.272-15.473 1.516-20.708 2.233-6.528 5.217-11.146 9.125-14.119.355-.271.549-.704.511-1.149-.036-.443-.299-.838-.693-1.045-1.531-.803-3.06-1.211-4.544-1.211-8.725 0-12.696 13.389-13.402 16.072-3.867 14.697-4.488 25.979-1.952 35.506 2.004 7.531 5.156 16.988 11.831 23.359 2.631 2.512 5.156 3.92 7.504 4.188.049.004.097.008.146.008.504 0 .967-.291 1.184-.756.018-.037 0-.078.013-.115-.466-.844-.916-1.699-1.351-2.561z"
                      fill="#f75093"/>
                <path d="m398.499 641.942c.108.035.209.051.309.051.434 0 .789-.328 1.048-.752.319-.518.063-1.334-.374-1.762-3.01-3.113-5.129-6.98-6.312-11.1-.895-2.197-1.554-4.537-1.801-7.057-1.003-10.184 1.097-20.701 4.14-29.727-1.221 3.219-2.301 6.516-3.349 9.883.173-9.498 5.278-20.281 11.882-28.146.383-.481.814-.947 1.273-1.406 1.644-1.814 3.342-3.503 5.091-4.879 3.099-2.436 8.882-5.143 14.846-5.748.09-.031.171-.059.261-.088.48-.114.881-.451.991-.943.124-.551-.116-1.118-.601-1.408-1.09-.654-2.203-1.279-3.393-1.793-2.822-1.216-5.68-1.832-8.493-1.832-13.472 0-24.003 13.92-29.388 26.998-8.046 22.158-8.215 38.119-.516 48.795 3.825 5.299 8.663 8.971 14.386 10.914z"
                      fill="#f75093"/>
                <g fill="#9588f3">
                    <path d="m848.896 290.676c-16.252-14.736-31.883-30.233-47.799-46.143-3.396-3.396-6.787-6.813-10.186-10.238-16.631-16.767-33.828-34.104-52.338-49.208-3.479-2.84-7.018-5.916-10.635-9.06-14.863-12.926-31.709-27.575-51.266-31.021-6.984-1.229-14.645-1.853-22.773-1.853-23.055 0-47.51 4.958-69.086 9.334l-6.33 1.279c-21.955 4.407-38.033 12.793-58.379 25.792-6.945 4.435-13.604 5.734-21.312 7.236-1.538.302-3.114.607-4.737.949-6.604 1.385-12.798 3.888-18.579 6.834 1.422.47 2.986.708 5.107.724 5.001.041 10.02-.418 14.971-1.106 9.544-1.326 18.429-4.499 27.489-7.634 18.588-6.434 35.291-17.124 53.502-24.44 34.969-14.046 76.695-19.901 111.623-2.494 17.359 8.652 31.811 21.637 45.652 35.007 15.992 15.448 31.777 31.117 47.664 46.674 16.004 15.671 32.088 31.259 48.064 46.959 13.453 13.222 26.867 26.854 36.307 43.334 8.74 15.257 12.557 32.18 13.406 49.459 1.313-6.89 2.25-13.964 2.736-21.138 2.107-30.902-10.542-48.79-33.101-69.246z"/>
                    <path d="m751.311 370.144c6.793-.104 13.57.135 20.219 1.635-.238-.331-.441-.687-.695-1.006-4.271-5.385-10.35-8.113-18.07-8.113-1.523 0-3.133.108-4.781.322-31.457 4.09-53.498 12.947-65.512 26.327-13.51 15.048-18.602 37.692-15.137 67.303.904 7.713 2.381 15.338 5.639 21.976 1.809-16.771 1.814-33.698 6.182-50.145 4.299-16.195 11.945-32.705 24.461-44.198 12.817-11.774 31.024-13.848 47.694-14.101z"/>
                    <path d="m591.719 263.436c-12.238-6.834-39.988-11.743-46.82-12.665-5.166-.697-14.93.173-20.166.027-6.652.065-13.723.382-21.574.996-4.813.378-9.907.823-15.052 1.398-7.187 1.021-14.293 2.298-21.309 3.865-.697.191-1.419.311-2.107.518-16.464 4.92-31.566 13.249-46.174 21.306-18.441 10.231-40.06 22.277-52.749 38.983 3.418-1.172 6.91-3.463 9.924-5.068 6.946-3.699 13.489-8.251 20.346-12.139 14.012-7.949 28.552-19.852 43.707-25.324 30.197-10.908 58.392-16.793 90.57-16.886 8.645-.022 19.77.509 28.4.383 5.06-.074 35.754 6.144 33.004 4.606z"/>
                    <path d="m411.429 397.6c24.811-3.081 50.726-2.809 75.438 1 13.879 2.139 27.83 4.612 41.521 7.72 7.174 1.628 14.125 4.027 20.994 6.627 6.197 2.348 12.463 5.31 19.064 6.061.553.063.77-.695.432-1.044-8.475-8.765-22.697-12.635-33.781-17.116-12.844-5.192-25.527-9.85-39.166-12.579-26.147-5.232-52.979-6.551-79.515-4.2-8.695.771-17.639 1.799-26.537 3.282-11.385 2.933-21.891 6.765-31.566 11.61-3.44 1.725-7.146 3.715-11.58 6.271-5.638 5.269-12.195 9.845-18.536 14.272-4.187 2.923-8.519 5.947-12.543 9.141-1.246.989-3.061 2.181-5.04 3.485-4.96 3.27-10.584 6.973-12.174 10.391-.344.738-.674 1.529-1.012 2.337-.91 2.179-1.855 4.432-3.204 6.006-4.241 4.938-9.558 7.625-15.186 10.473-7.614 3.85-15.489 7.832-20.499 17.732-.717 1.417-1.295 2.838-1.916 4.257 1.892-.853 3.803-1.693 5.678-2.602 9.164-4.437 18.484-8.7 26.82-14.607 18.673-13.229 32.545-31.886 51.052-45.219 20.373-14.679 46.734-20.253 71.256-23.298z"/>
                    <path d="m939.574 603.144c-1.023-13.607-7.338-25.049-18.77-34.007-14.467-11.341-32.697-17.09-54.182-17.09-2.578 0-5.211.108-7.869.276-4.891.607-9.719 1.471-14.418 2.525-14.359 3.221-28.238 8.271-42.152 12.995-3.51 1.192-7.025 2.358-10.539 3.544-43.043 20.582-80.086 29.799-119.795 29.799-2.574 0-5.174-.037-7.793-.117-.012 0-.025-.002-.039-.002-.352 0-.686.143-.934.395-.254.258-.389.613-.371.977.438 8.625-.691 17.068-3.354 25.094-1.506 4.535-3.648 8.934-6.369 13.068-.098.146-.098.318-.129.484.111.24.207.488.346.715-.07.045-.141.094-.211.137.043.076.037.166.096.234.254.295.617.455.988.455.188 0 .375-.041.549-.123 5.682-2.633 10.863-3.967 15.408-3.967 3.277 0 6.287.701 8.984 2.084-.424-.01-.842-.014-1.256-.014-10.451 0-18.855 2.742-29.006 9.469-1.299.863-2.572 1.73-3.83 2.592-4.006 2.74-7.791 5.328-12.092 7.377-19.049 12.527-44.266 18.891-64.107 23.035-.553.113-.967.572-1.029 1.133-.063.563.242 1.1.758 1.334 5.299 2.402 11.486 4.979 18.248 6.549-.982.057-1.971.086-2.953.086-5.023 0-9.838-.742-14.383-1.844 1.879 1.992 4.215 3.643 6.424 4.83 4.699 2.525 10.004 4.361 15.256 5.289 2.867.506 5.809.941 8.719 1.074 3.031.135 5.975-.496 8.959-.883 1.586-.205 2.99-.785 4.563-1.07 1.383-.252 2.672-.559 3.977-1.084.559-.225 1.631-.91 1.895-1.016.168-.068 1.115-.217 1.49-.34 1.561-.518 2.762-1.23 4.408-1.559 2.119-.42 1.486-3.492-.488-3.605-2.85-.158-5.533-1.359-8.268-2.059-1.07-.275-2.252-.402-3.352-.498-29.176-2.592 22.24-17.02 33.314-24.268 11.016-7.209 20.666-15.613 34.449-16.324 6.768-.348 13.547.17 20.299.141 11.051-.043 20.283-3.955 3.248-11.996-27.686-13.064-23.066-21.604-9.352-22.348 16.096-.867 32.547-5.268 46.758-9.383 26.531-7.682 52.65-16.859 78.982-25.191 23.814-7.541 49.539-15.209 74.361-7.776 21.313 6.382 33.947 24.339 36.889 45.917 1.002 7.373.789 14.752-.166 22.055 5.501-12.572 8.73-25.265 7.839-37.099z"/>
                </g>
                <path d="m636.732 560.448c-.324 0-.648.121-.9.359-6.51 6.19-14.885 11.225-24.893 14.969-37.336 13.969-76.934 19.053-111.126 21.113.058.152.096.314.215.453 11.403 13.395 32.571 9.719 47.751 7.217 16.541-2.725 33.041-6.396 49.137-11.086 37.688-10.982 35.83-16.189 46.602-5.041 1.662 1.725 3.295 3.482 4.951 5.205 1.496 1.559 2.432 3.545 3.484 5.428 1.379 2.475 2.406 4.855 2.959 7.646.383 1.928.529 3.934.988 5.84 1.818-18.844-4.777-38.016-18.236-51.713-.254-.257-.594-.39-.932-.39z"
                      fill="#fde334"/>
                <path d="m401.967 513.291c-4.14-.562-8.419-.848-12.719-.848-13.006 0-27.166 2.833-40.053 8.626 3.177.447 6.56.271 9.703.346 4.839.115 9.712.088 14.542.4 9.565.623 19.412 3.039 28.58 5.793 15.536 4.666 30.004 13.242 40.818 25.405 11.354 12.772 16.444 28.853 19.313 45.396.832 4.799 1.446 9.676 2.163 14.52 1.997-7.564 2.86-15.254 2.446-22.973-2.197-40.893-28.235-71.705-64.793-76.665z"
                      fill="#ffbee1"/>
                <g>
                    <path d="m394.701 437.745c23.319-.223 46.08-2.888 69.468-1.23 26.748 1.896 52.544 12.192 78.03 19.739 1.32.389 2.725-1.219 1.867-2.434-28.221-39.983-112.13-47.658-150.179-18.041-.825.641-.105 1.975.814 1.966z"
                          fill="#9588f3"/>
                </g>
                <g>
                    <path d="m553.592 465.961c1.277 7.11 13.238 15.514 18.264 6.935 5.162-8.813-9.363-16.705-16.248-11.884-1.745 1.22-2.391 2.86-2.016 4.949z"
                          fill="#9588f3"/>
                </g>
                <g>
                    <path d="m896.295 624.235c-39.85 51.264-96.506 80.719-143.678 123.428-1.475 1.334-.342 4.012 1.629 3.93 38.385-1.578 64.99-19.527 94.068-43.529 23.977-19.795 53.248-49.465 49.701-83.115-.077-.751-1.113-1.493-1.72-.714z"
                          fill="#9588f3"/>
                </g>
                <g>
                    <path d="m721.732 763.901c2.264 4.434 9.221 3.875 12.711 1.418 2.188-1.543 3.459-3.947 2.713-6.666-.658-2.387-3.102-4.529-5.691-4.332-4.244.319-12.654 3.856-9.733 9.58z"
                          fill="#9588f3"/>
                </g>
                <g>
                    <path d="m176.046 720.745c30.109 34.953 69.041 59.957 113.109 73.291 44.616 13.502 99.792 27.622 145.579 13.682 1.653-.504 2.154-2.939.497-3.814-18.419-9.717-38.787-11.961-59.167-14.893-24.569-3.535-48.913-8.361-72.978-14.432-22.41-5.656-44.796-12.604-65.932-21.996-20.893-9.289-39.524-23.016-59.715-33.645-1.186-.625-2.243.823-1.393 1.807z"
                          fill="#9588f3"/>
                </g>
                <g>
                    <path d="m445.834 807.544c-.259 7.396 10.22 7.828 14.863 5.447 1.945-1 3.124-3.32 3.124-5.447 0-3.037-1.979-5.029-4.631-6.08-4.64-1.84-13.147.072-13.356 6.08z"
                          fill="#9588f3"/>
                </g>
                <g>
                    <path d="m407.123 319.634c15.911-.604 31.442-8.079 47.035-11.309 17.585-3.641 35.849-3.528 53.609-6.314 1.529-.238 1.756-2.633.43-3.287-27.602-13.582-83.229-7.671-101.882 19.502-.4.583.129 1.435.808 1.408z"
                          fill="#584abb"/>
                </g>
                <g>
                    <path d="m332.288 477.364c9.179-.261 18.059-3.205 27.008-5.049 11.633-2.396 22.986-3.634 34.432-7.024 1.488-.44 1.536-2.636 0-3.054-18.871-5.143-48.92-2.984-62.102 13.53-.475.594-.231 1.622.662 1.597z"
                          fill="#584abb"/>
                </g>
                <g>
                    <path d="m402.174 458.104c2.726.881 5.042 3.051 7.816 4.027 3.641 1.279 6.674 2.291 10.546 1.639 2.361-.397 2.46-3.308 1.269-4.801-2.505-3.132-5.826-4.012-9.606-4.848-3.771-.835-6.532.553-10.024 1.486-1.283.343-1.191 2.115-.001 2.497z"
                          fill="#584abb"/>
                </g>
                <g>
                    <path d="m559.098 202.631c17.086-.144 34.063-3.946 51.166-4.765 19.354-.929 37.961 5.21 57.057 4.189 1.693-.09 2.57-2.046 1.375-3.316-23.393-24.819-84.455-15.617-110.289 1.345-1.104.724-.723 2.559.691 2.547z"
                          fill="#584abb"/>
                </g>
                <g>
                    <path d="m668.709 190.666c3.154 3.15 5.721 9.213 11.281 7.725.775-.209 1.553-.897 1.713-1.714.684-3.503-1.455-5.588-4.281-7.261-2.521-1.493-5.055-1.239-7.799-.96-1.074.107-1.777 1.352-.914 2.21z"
                          fill="#584abb"/>
                </g>
                <g>
                    <path d="m461.768 783.735c21.117 10.564 45.918 10.17 69.055 9.908 26.439-.299 53.158-3.018 78.375-11.115 1.928-.621 2.322-3.916 0-4.305-23.463-3.922-46.291-1.684-69.891-.363-25.461 1.426-52.156-.75-77.247 3.637-1.035.184-1.199 1.783-.292 2.238z"
                          fill="#584abb"/>
                </g>
                <g>
                    <path d="m614.072 791.778c4.814 1.598 14.377 2.98 16.572-2.979.16-.432-.018-1.027-.35-1.332-2.063-1.877-4.074-1.775-6.729-1.031-3.299.928-6.289 2.084-9.494 3.26-.999.369-1.048 1.735.001 2.082z"
                          fill="#584abb"/>
                </g>
                <g>
                    <path d="m707.35 688.091c26.539 7.465 66.158-9 84.484-28.432 1.326-1.408-.002-3.506-1.818-3.127-15.416 3.209-28.941 10.436-43.563 16.055-12.979 4.986-26.971 7.227-39.344 13.662-.793.412-.566 1.615.241 1.842z"
                          fill="#584abb"/>
                </g>
                <g>
                    <path d="m783.73 650.851c2.873.617 5.209.826 8.088-.006 3.227-.932 6.48-1.924 7.434-5.506.453-1.697-.27-3.58-1.814-4.459-2.912-1.654-5.332-.494-8.232.484-2.789.939-4.691 2.186-6.902 4.074-1.824 1.551-.861 4.92 1.426 5.413z"
                          fill="#584abb"/>
                </g>
                <g>
                    <path d="m491.202 504.715c7.262 14.612 26.292 16.106 40.696 16.354 13.191.227 37.436-1.053 44.094-14.73.654-1.348.096-2.787-1.334-3.279-11.699-4.014-26.648 2.662-38.477 3.785-14.887 1.41-29.123-.143-43.518-4.032-1.152-.314-1.955.908-1.461 1.902z"
                          fill="#584abb"/>
                </g>
                <g>
                    <path d="m564.51 524.881c.123.048 1.215 1.241 1.756 1.567 1.367.822 2.861 1.169 4.443 1.183 3.152.026 6.488-1.269 7.846-4.282.752-1.67.334-4.451-1.936-4.76-2.496-.34-4.631.029-7.037.717-1.205.345-2.238.813-3.316 1.453-.555.328-1.609 1.572-1.756 1.626-1.231.45-1.233 2.048 0 2.496z"
                          fill="#584abb"/>
                </g>
                <g>
                    <path d="m533.26 320.72c11.324 5.806 24.086 8.165 35.547 13.813 3.295 1.621 17.795 15.509 21.254 7.354 4.23-9.976-12.539-17.205-19.266-19.907-11.475-4.612-25.311-7.151-37.295-3.102-.773.261-1.064 1.419-.24 1.842z"
                          fill="#584abb"/>
                </g>
                <g>
                    <path d="m595.508 327.909c-.432 4.173 2.41 6.865 5.631 8.974 1.652 1.084 4.01.661 5.361-.69 1.805-1.808 1.561-4.42 0-6.255-2.553-3.002-5.947-4.3-9.83-3.556-.734.141-1.092.861-1.162 1.527z"
                          fill="#584abb"/>
                </g>
                <g>
                    <path d="m488.907 523.938c.173.295.346.592.517.887 0-.443 0-.887 0-1.332-1.133 1.502.151 3.848.999 5.163 1.625 2.519 4.338 3.712 7.078 4.565 1.507.467 3.573.006 4.621-1.225.216-.275.468-.52.757-.726.734-.649 1.057-1.913.748-2.841-.154-.336-.25-.688-.283-1.052-.238-1.616-1.871-2.869-3.317-3.319-1.509-.467-2.885-.898-4.441-1.174-1.889-.334-3.694-.211-5.567-.404-.809-.083-1.229.794-1.112 1.458z"
                          fill="#584abb"/>
                </g>
                <g>
                    <path d="m168.634 658.7c4.642 12.24 14.547 21.979 24.871 29.686 10.354 7.729 23.367 17.203 36.756 12.994 1.258-.395 1.529-1.807.729-2.766-7.335-8.793-19.062-12.156-28.618-18.201-11.093-7.016-20.047-17.168-31.729-23.258-.968-.504-2.465.34-2.009 1.545z"
                          fill="#584abb"/>
                </g>
                <g>
                    <path d="m222.44 712.104c.677.518.891 1.084 1.461 1.656.846.846 2.026 1.332 3.138 1.686 2.134.678 5.275.484 6.305-1.781 1.01-2.225-.775-4.135-2.943-4.424-1.394-.184-2.729-.057-4.115.162-1.102.174-2.051 1.186-3.123.992-1.087-.195-1.563 1.067-.723 1.709z"
                          fill="#584abb"/>
                </g>
                <g>
                    <path d="m609.412 246.262c4.59 1.548 9.367 2.363 13.965 3.979 5.381 1.894 10.014 4.447 14.988 7.182 7.385 4.063 12.713-6.116 6.404-10.955-8.795-6.744-27.508-12.536-35.93-2.368-.634.763-.403 1.834.573 2.162z"
                          fill="#584abb"/>
                </g>
                <g>
                    <path d="m648.455 239.698c.359 1.666 1.945 3.8 3.143 4.925 4.063 3.8 10.178-2.294 6.107-6.105-1.883-1.765-3.836-2.401-6.369-2.001-1.514.238-3.26 1.419-2.881 3.181z"
                          fill="#584abb"/>
                </g>
                <g>
                    <path d="m486.276 333.556c12.395 4.944 26.239 11.989 39.892 8.684 1.113-.27 1.555-1.587 1.031-2.538-3.986-7.288-9.703-9.915-17.59-11.788-9.112-2.161-15.627-.739-23.59 3.67-.895.491-.555 1.647.257 1.972z"
                          fill="#9588f3"/>
                </g>
                <g>
                    <path d="m658.082 229.586c2.604 3.938 8.182 6.37 12.381 8.16 2.996 1.279 6.379.927 8.178-2.143 1.543-2.633.797-6.777-2.145-8.181-5.236-2.498-14.242-4.783-18.414.782-.273.365-.244 1.016 0 1.382z"
                          fill="#9588f3"/>
                </g>
                <g>
                    <path d="m442.526 496.001c.359 7.016 9.086 10.461 14.803 12.094 5.83 1.662 15.804 3.408 19.522-2.982 4.975-8.545-28.778-12.741-33.612-10.354-.427.21-.738.769-.713 1.242z"
                          fill="#9588f3"/>
                </g>
                <g>
                    <path d="m434.938 756.015c12.829 10.58 34.5 13.205 49.188 5.379 1.664-.889 1.046-3.117-.48-3.684-14.383-5.348-32.539-5.34-47.74-4.029-1.057.09-1.979 1.498-.968 2.334z"
                          fill="#9588f3"/>
                </g>
                <g>
                    <path d="m671.061 743.249c3.666 3.896 9.691 3.957 14.682 3.377 6.789-.791 11.271-2.27 15.184-8.051.588-.869-.02-2.047-.947-2.324-5.791-1.736-9.775-1.092-15.633.063-4.666.92-9.932 1.512-13.285 5.203-.46.505-.474 1.228-.001 1.732z"
                          fill="#9588f3"/>
                </g>
                <g>
                    <path d="m591.334 488.229c.414-.081.826-.072 1.236.024-.48-.2-.959-.397-1.441-.598 3.057 3.087 8.443.556 10.461-2.397 1.541-2.253-.588-4.603-2.795-4.873-1.887-.229-3.834.212-5.355 1.386-.912.699-1.605 1.295-2.23 2.273-.254.357-.451.742-.588 1.16.119.711.016.901-.305.566-.801.84-.296 2.579 1.017 2.459z"
                          fill="#9588f3"/>
                </g>
                <g>
                    <path d="m586.813 375.029c1.953 2.121 3.141 3.976 5.924 5.194 3.719 1.624 7.875 2.449 11.596.511 3.586-1.871 3.152-6.993 0-8.97-2.873-1.802-6.604-1.604-9.889-1.395-2.689.173-4.617 1.315-6.965 2.134-1.088.382-1.469 1.656-.666 2.526z"
                          fill="#9588f3"/>
                </g>
                <g>
                    <path d="m613.445 364.515c-.172-.4-.113-.263.17.409.277.473.832 1.003 1.303 1.271.914.521 1.768.982 2.754 1.372 3.697 1.462 5.314-3.984 2.523-5.986-1.236-.886-2.598-1.036-4.064-.762-1.449.271-1.707 1.021-2.686 1.866-.509.438-.504 1.389 0 1.83z"
                          fill="#9588f3"/>
                </g>
                <g>
                    <path d="m598.764 226.071c1.566 1.934 3.123 2.604 5.664 2.917 2.33.287 4.705.625 6.701-.909 2.789-2.141 2.789-5.437 0-7.578-1.996-1.533-4.371-1.196-6.701-.908-2.541.313-4.098.982-5.664 2.917-.936 1.155-.936 2.405 0 3.561z"
                          fill="#9588f3"/>
                </g>
                <g>
                    <path d="m642.352 173.017c.832 2.928 3.586 3.534 6.238 3.917 5.152.744 7.1-5.914 2.156-7.823-1.814-.699-4.363-1.104-6.131.024-1.242.792-2.738 2.211-2.263 3.882z"
                          fill="#9588f3"/>
                </g>
                <g>
                    <path d="m699.406 214.311c1.883 2.876 3.918 4.937 6.834 6.839 3.271 2.131 6.014 4.394 10.158 3.505 1.955-.42 3.033-2.313 3.164-4.157.328-4.628-3.801-7.488-7.402-9.472-3.912-2.149-7.912-2.287-11.813-.297-1.226.627-1.689 2.437-.941 3.582z"
                          fill="#9588f3"/>
                </g>
            </g>
            <g fill="#68182b">
                <path d="m448.745 622.239c10.783-23.674.637-62.125-24.517-72.967-22.065-9.51-39.954 13.23-47.253 30.955-7.048 19.41-11.592 48.135 7.461 62.639 24.272 18.477 52.754 4.746 64.309-20.627zm-63.571 8.026c-9.655-13.389-4.405-33.572.684-47.586 5.687-13.813 18.942-31.824 36.136-24.412 1.136.49 2.197 1.088 3.238 1.713-5.873.574-12.044 3.223-15.633 6.043-10.901 8.569-21.169 26.781-18.262 40.957.053.256.416.223.486 0 3.684-11.801 6.719-23.068 15.01-32.703 3.796-4.414 8.896-7.074 14.359-8.77 4.06-1.259 7.488-.525 11.017.299 12.462 14.141 13.901 40.111 7.022 55.213-4.884 10.721-14.82 18.301-25.398 20.473-3.852-.416-7.695-.775-11.371-3.084-7.464-4.682-9.061-14.064-10.882-21.951-.042-.186-.347-.197-.382 0-1.557 8.516 1.34 17.723 7.346 23.932.113.115.262.205.376.316-5.13-1.741-9.901-5.108-13.746-10.44z"/>
                <path d="m320.325 566.283c-8.227 20.354-6.621 49.188 7.782 66.339 15.671 18.664 31.045 10.859 35.737-11.223 2.769-19.162 5.719-50.172-8.996-66.283-13.37-14.64-28.408-3.965-34.523 11.167zm34.638 52.665c-1.07 5.043-2.959 10.484-6.015 13.072-7.354-3.58-7.93-16.879-11.324-23.281-.07-.133-.3-.111-.328.043-1.208 6.346 1.074 19.063 7.08 24.744-1.94-.221-4.176-1.377-6.748-3.834-6.213-5.93-9.334-14.717-11.471-22.75-2.979-11.191-.939-23.848 1.952-34.838 1.601-6.073 6.905-18.848 16.078-14.038-4.697 3.573-7.583 8.921-9.57 14.735-2.308 6.758-4.167 19.5.461 25.639.195.26.573.172.603-.164.293-3.229-.389-6.568-.324-9.84.1-5.07 1.424-9.833 3.021-14.598 1.443-4.315 3.903-8.269 7.146-11.439.677-.663 1.478-1.135 2.284-1.574 3.271 3.596 4.795 9.254 6.078 13.573 4.23 14.242 3.166 30.105 1.077 44.55z"/>
                <path d="m942.76 586.28c-8.756-24.861-35.252-36.652-59.393-40.471-30.729-4.862-62.248 3.277-90.031 16.066-43.492 20.023-81.66 32.9-130.373 31.26-2.6-14.283-9.521-27.738-20.078-38.254 6.248-8.268 10.23-18.328 11.682-30.428 1.852-15.439-7.438-31.561-14.594-44.457-7.035-12.685-10.799-23.869-10.912-38.787-.098-12.862 7.863-23.299 10.848-35.317 3.285-13.229 1.768-12.629 11.732-17.566 4.365-2.163 5.457-7.228 7.059-11.269 7.625-19.241 6.281-42.271 7.916-62.513 1.828-22.673 10.23-37.917 30.205-48.816 21.383-11.664 39.27 4.403 55.951 17.623 31.926 25.3 67.42 56.421 76.766 97.362 4.834 21.185-2.17 38.533-12.582 56.604-5.539 9.617-12.211 18.529-19.885 26.534-8.756 9.132-20.621 7.635-32.031 6.82-18.916-1.347-51.813 3.82-53.127-20.777-.791-14.776 4.771-28.801 16.959-37.38 20.205-14.221 38.457 2.755 38.23 24.002-.025 2.449 1.535 3.83 3.369 4.26 1.854.681 4.004.332 5.211-1.935.047-.09.094-.19.143-.283.031-.061.063-.114.09-.178 12.648-24.304 19.037-82.979-22.037-83.697-37.078-.647-88.438 21.176-93.617 62.367-2.629 20.91-2.734 43.367 4.348 63.426 7.045 19.962 30.277 25.298 48.613 28.952 13.641 2.718 27.053-.965 40.695 4.002 9.193 3.346 18.85 4.605 28.537 5.74 20.051 2.348 31.209-7.162 44.918-20.139 13.076-12.377 24.898-24.72 29.299-42.473 2.934-11.842 12.506-21.077 17.24-32.519 7.277-17.586 11.98-35.949 14.906-54.719 3.641-23.359 2.229-41.456-11.699-60.621-15.662-21.547-39.277-38.811-58.139-57.494-24.531-24.297-48.656-48.936-74.717-71.62-19.643-17.097-39.924-34.82-65.367-42.176-26.1-7.544-59.605 1.563-85.773 5.909-24.361 4.046-54.041 8.419-72.916 25.547-13.582 12.325-33.286 10.785-49.067 19.147-14.24 7.547-26.728 16.047-37.467 28.037-14.725 16.435-9.328 29.167-1.379 45.843-27.105 17.153-57.471 30.688-76.468 57.539-19.772 27.948 7.112 65.494-22.408 86.243-12.806 9.001-28.157 18.338-39.146 29.327-7.583 7.582-1.853 10.611-17.159 16.968-4.149 1.723-9.263 3.44-12.575 6.639-22.113 21.362-26.406 51.076-17.62 79.285-7.889 7.305-13.6 15.453-17.225 24.198-6.92-1.073-13.832-2.186-20.659-3.767-.15-.033-.27.01-.416-.012-.276-.042-.499-.156-.808-.152-12.554.18-21.303 8.615-34.26 2.755-11.143-5.04-14.601-19.581-26.213-24.733-18.124-8.086-37.011-19.246-57.314-19.721-17.843-.416-24.346 17.881-29.034 31.604-13.261 38.801-7.972 81.379 7.537 118.582 41.324 99.125 148.484 147.986 245.6 174.573 118.884 32.545 248.068 32.867 366.342-2.213 19.873-5.893 51.678-12.41 67.781-26.31 6.822-5.889 12.793-12.719 19.023-19.213 9.615-10.018 18.596-12.631 31.949-15.281 22.152-4.396 36.275-16.17 53.699-30.379 25.521-20.813 48.465-45.008 67.654-71.752 18.073-25.178 33.109-58.788 22.187-89.792zm-386.68 91.317c-.32.063-.52.225-.789.33-11.105-5.104-22.426-9.316-35.424-8.029-10.785 1.068-20.133 7.082-28.597 13.398-1.574 1.174-3.115 2.389-4.644 3.617-.405-.08-.782-.191-1.264-.15-19.933 1.705-39.874 2.637-59.868 2.514.766-3.029 1.394-6.168 1.977-9.34 1.92-10.768 17.18-18.846 24.354-26.785 6.105-6.756 10.904-15.281 15.037-23.33 4.878-9.498 7.063-19.934 7.601-30.525 46.06-1.307 93.534-6.059 136.933-22.295 10.117-3.785 18.592-8.836 25.336-15.246 15.363 15.633 21.639 38.154 16.387 59.512-9.734 39.579-63.492 49.737-97.039 56.329zm-196.986 5.343c.853-4.521 3.031-9.676 8.556-8.648 5.534 1.031 7.855 6.547 8.672 11.486.013.088.031.176.045.266-5.811-.697-11.595-1.518-17.352-2.604.027-.164.049-.336.079-.5zm8.885-17.859c-9.681-1.061-16.105 6.588-17.767 15.414-1.023 5.959-1.391 12.432-3.908 18.004-2.903 6.426-12.577 3.434-16.413-.439-7.108-7.18-3.611-23.947-2.944-32.805.652-9.014-2.241-16.119-6.343-23.965-12.541-23.992-17.585-49.473-10.29-75.893 10.647-38.563 54.896-55.781 91.479-50.813 38.901 5.28 61.66 38.117 63.666 75.442 1.246 23.201-8.748 44.004-23.978 60.854-8.696 9.619-20.362 12.428-22.892 26.605-1.671 9.111-2.619 21.801-12.412 25.922-5.588 2.352-12.408 3.426-16.204-2.225-3.321-4.945-3.839-12.129-4.77-17.855-1.484-8.969-7.692-17.205-17.224-18.246zm-108.274-185.424c8.396-16.59 25.165-15.897 35.509-27.943 2.01-2.341 3.123-5.874 4.41-8.642 2.053-4.412 12.625-10.059 16.842-13.404 10.078-7.999 21.709-14.652 31.157-23.483 3.713-2.104 7.462-4.146 11.275-6.058 24.233-12.134 51.303-16.933 78.159-18.153.791-.036 1.005-1.21.19-1.415-28.991-7.258-55.841-.468-80.481 12.494 5.186-15.854-2.494-37.525.121-52.646 4.925-28.464 35.771-45.688 62.264-60.384 14.839-8.186 29.736-16.363 45.913-21.198 12.257-3.665 25.511-4.737 38.193-5.729 36.105-2.824 76.85-1.331 104.605 24.895.336.319 1.039.007.842-.487-13.752-34.382-70.518-34.074-100.756-32.689-22.563 1.035-45.712 5.532-66.835 14.378-3.882-7.528-9.311-15.687-8.107-24.337 1.876-13.477 19.584-24.778 29.924-31.452 9.719-6.273 20.033-11.996 31.394-14.38 9.855-2.069 17.922-2.896 26.482-8.363 19.143-12.228 35.482-21.105 57.936-25.612 30.738-6.17 66.402-14.268 97.703-8.754 23.832 4.196 43.344 25.149 61.305 39.806 22.182 18.104 42.201 39.146 62.426 59.358 15.689 15.683 31.408 31.283 47.844 46.186 22.008 19.957 34.775 37.382 32.68 68.192-1.783 26.251-9.852 55.507-25.557 76.718-4.209 5.688-5.689 10.558-7.355 17.558-2.643 11.11-7.742 17.994-15.223 26.397-11.836 13.296-25.314 29.13-44.104 29.778-18.709.646-35.83-13.691-53.615-10.206-13.992 2.741-26.691-.637-39.75-4.678-19.15-5.927-24.367-21.047-26.463-38.944-2.682-22.896-1.129-48.523 14.809-66.277 15.059-16.772 43.361-23.13 64.711-25.904 29.471-3.832 31.393 28.414 25.791 52.371-2.191-7.229-6.268-13.56-13.715-16.188-17.688-6.242-36.752 1.021-48.066 15.345-.01.011-.014.022-.023.033 1.678-8.216 3.979-16.246 6.135-24.525.074-.288-.297-.529-.51-.297-8.883 9.629-11.646 23.557-13.521 36.102-1.867 12.48-3.027 25.731.385 38.012.004.012.006.022.008.034.207.744.371 1.497.615 2.232.063.191.199.306.352.383 4.553 10.018 16.443 10.125 27.256 9.878 19.33-.443 39.973 6.528 58.877.911 16.293-4.842 28.441-28.386 36.154-41.773 20.293-35.217 13.408-77.462-13.758-107.398-17.02-18.757-35.314-36.431-54.846-52.556-10.25-8.462-23.434-19.656-37.209-23.948 15.088-4.068 30.037-4.113 45.41-5.898.219-.025.377-.349.125-.471-13.928-6.669-34.393-2.802-48.967.207-9.031 1.864-17.455 4.911-24.875 9.44-6.902 3.598-13.32 8.561-18.627 13.021-14.643 12.31-16.836 34.176-18.262 51.85-1.279 15.847-1.68 31.41-5.119 47.029-2.619 11.897-12.758 11.832-17.582 20.069-5.648 9.642-6.793 22.887-10.23 33.35-3.773 11.479-5.537 23.314-3.045 35.367 5.648 27.334 29.824 47.924 22.713 77.762-6.854 28.753-41.455 36.789-65.969 43.043-16.242 4.145-32.824 6.924-49.521 8.838 4.818-3.314 8.551-7.999 9.723-13.293.049-.223-.254-.461-.42-.244-3.475 4.481-7.617 8.41-12.658 11.047-4.381 2.291-9.242 2.986-13.957 4.189-12.104.969-24.226 1.535-36.299 1.881-.223-6.299-.889-12.572-1.923-18.658-5.934-34.922-34.674-59.326-68.353-65.719-30.715-5.834-70.426 5.719-89.427 31.6-5.945 8.098-10.126 16.634-12.928 25.572-16.209-6.869-31.69-15.332-45.644-26.111-6.486-19.781-6.144-38.132 3.462-57.109zm-7.247 65.697c14.566 10.857 30.33 19.389 47.092 26.475-1.633 8.043-2.263 16.398-1.957 25.096.463 13.15 4.736 26.08 9.698 38.111 4.222 10.229 11.293 18.529 10.445 30.219-.153 2.018-.339 4.17-.513 6.385-22.957-8.563-48.695-20.266-65.594-38.699-1.768-2.801-4-5.588-6.574-8.225-.124-.176-.266-.344-.387-.523-17.46-25.624-13.6-57.889 7.79-78.839zm629.378 163.018c-19.021 20.172-47.58 52.42-75.016 58.926-19.15 4.539-31.988 5.484-46.063 19.678-6.387 6.439-12.23 14.691-19.912 19.672-13.689 8.875-32.852 13.56-48.328 18.854-31.367 10.734-63.857 17.959-96.553 23.197-67.654 10.844-137.313 9.338-204.938-.717-115.173-17.125-247.43-61.864-306.889-169.97-15.771-28.674-23.018-61.27-21.001-93.857.925-14.92 4.952-29.448 10.232-43.352 11.692-30.795 50.637-5.002 69.314 3.332 12.462 5.529 16.535 20.357 29.465 26.204 13.258 5.997 22.609-2.626 35.346-2.948 6.383 1.439 12.834 2.506 19.299 3.513-3.342 13.356-2.328 27.772 2.674 42.411-8.239-4.057-17.061-5.551-24.365-2.061-.305.143-.111.537.156.568 11.722 1.352 20.771 6.758 29.326 13.262 5.101 9.318 12.256 17.309 20.646 24.205-4.331 1.131-8.179 3.551-10.385 7.322-.157.271.106.67.428.555 4.583-1.637 8.619-3.076 13.525-3.604.641-.07 1.298-.006 1.945-.012 17.018 12.381 37.743 20.998 56.021 27.707-.069 11.152 2.049 22.303 12.537 27.652 5.983 3.053 16.091 4.047 21.321-1.039 4.224-4.105 5.9-9.631 6.948-15.32 6.906 1.27 13.852 2.164 20.832 2.973 3.31 11.873 9.768 21.336 25.036 18.279 10.052-2.012 15.543-7.814 18.942-15.32 17.127.205 34.205-.424 51.272-1.629-6.013 4.006-12.835 6.801-19.096 10.398-.706.404-.209 1.389.526 1.248 11.63-2.201 21.785-5.852 31.72-12.336 10.058-6.563 19.605-13.926 31.445-16.904 12.898-3.246 25.354 3.381 36.967 7.871 11.625 4.498 23.014 7.568 35.541 5.889.725-.098 1.07-1.271.191-1.416-7.713-1.252-14.906-4.053-21.951-7.248 21.1-4.408 45.682-10.811 64.557-23.223 5.561-2.631 10.488-6.365 15.928-9.971 10.867-7.199 19.801-9.984 32.805-9.09.475.033.527-.572.219-.805-8.195-6.156-18.463-4.566-28.426.051 2.68-4.07 4.9-8.5 6.518-13.375 2.768-8.348 3.852-17.02 3.42-25.57 47.553 1.428 87.633-10.148 130.154-30.732 37.221-18.019 90.217-29.388 125.828-1.477 48.349 37.891-10.649 109.027-38.161 138.209z"/>
                <path d="m518.178 391.02c22.396 6.064 44.893 17.117 62.682 32.179.576.485 1.57-.146 1.102-.85-13.436-20.324-36.275-30.014-58.893-36.847-22.01-6.652-50.774-12.197-73.043-3.776-.326.124-.271.571.081.601 23.122 1.911 45.454 2.569 68.071 8.693z"/>
                <path d="m590.025 432.933c.918.96 1.83 1.916 2.77 2.854 1.064 1.063 2.232 1.466 3.594 2.042.512.216 1.041-.131.924-.711-.574-2.852-1.891-4.376-4.066-6.28-2.166-1.896-4.518-3.366-6.994-4.794-.496-.288-1.084.285-.787.787 1.304 2.202 2.778 4.237 4.559 6.102z"/>
                <path d="m268.738 527.856c.389-5.805-.816-11.189-1.561-16.929-.915-7.079-.142-13.658 1.454-20.564.095-.409-.44-.798-.75-.437-8.442 9.775-6.499 27.857-.148 38.201.292.476.969.255 1.005-.271z"/>
                <path d="m269.734 538.372c.373-.004.582-.339.52-.684-.414-2.252-2.087-3.648-3.475-5.362-1.673-2.069-3.434-4.146-4.992-6.296-.392-.543-1.157-.209-1.052.442.454 2.786 1.357 4.954 2.864 7.364 1.352 2.169 3.408 4.561 6.135 4.536z"/>
                <path d="m522.961 237.497c-.242.099-.211.438.063.458 6.354.495 12.73.433 19.092.902 6.309.468 12.16 1.904 18.518 1.706.52-.016.758-.737.271-1.005-10.85-5.976-26.487-6.734-37.944-2.061z"/>
                <path d="m550.486 233.361c2.656.637 5.086 1.457 7.844 1.136.488-.057.863-.644.432-1.043-1.922-1.786-4.027-2.344-6.539-2.901-2.107-.468-5.223-1.338-7.088.012-.119.087-.197.256-.102.396 1.143 1.644 3.606 1.958 5.453 2.4z"/>
                <path d="m858.811 366.584c.545.863 1.789.879 2.33 0 2.252-3.668.777-9.242.031-13.27-.803-4.313-2.791-8.821-6.461-11.392-.162-.113-.359.071-.316.242 1.137 4.403 2.287 8.648 2.826 13.185.433 3.634-.412 8.059 1.59 11.235z"/>
                <path d="m866.895 352.759c.117-2.408-.094-4.77-1.705-6.654-.551-.647-1.385-.047-1.473.61-.266 1.982-.064 4.054.082 6.044.142 1.983 2.998 2.008 3.096 0z"/>
                <path d="m596.525 547.919c-5.752 1.674-10.605 5.039-16.121 7.323-5.688 2.358-11.629 3.722-17.531 5.392-.215.062-.232.398 0 .451 11.34 2.554 27.693-2.354 34.424-12.164.348-.504-.219-1.162-.772-1.002z"/>
                <path d="m609.727 545.508c.008-.526-.648-.965-1.111-.636-3.896 2.752-7.238 6.234-10.742 9.478-.33.306-.08.908.369.89 5.394-.216 11.38-3.861 11.484-9.732z"/>
                <path d="m712.453 804.382c-61.703 17.835-124.25 29.601-188.471 32.562-24.923 1.15-49.86.836-74.782-.076-16.045-.586-32.205-2.928-48.219-3.049-.348-.002-.361.449-.076.564 13.854 5.602 31.07 6.32 45.801 7.646 25.664 2.314 51.542 2.391 77.276 1.52 63.859-2.166 130.578-10.928 188.914-38.114.602-.28.174-1.231-.443-1.053z"/>
                <path d="m723.285 799.647c-1.857.588-4.229 1.301-5.43 2.916-.047.063-.012.16.051.195 1.807 1.039 4.316.398 6.203-.131 2.385-.664 5-1.381 6.633-3.348.404-.488.121-1.09-.482-1.166-2.459-.305-4.678.8-6.975 1.534z"/>
                <path d="m93.176 661.749c-6.548-13.797-10.625-28.568-13.097-43.598-2.615-15.912-.971-30.648-.301-46.548.021-.472-.63-.501-.778-.106-20.476 55.363 16.263 127.594 60.7 160.301.495.365 1.242-.367.861-.861-17.217-22.325-35.205-43.528-47.385-69.188z"/>
                <path d="m155.392 744.167c-1.162-1.221-2.757-2.244-4.054-3.336-1.811-1.525-4.259-3.85-6.715-4.014-.38-.025-.647.387-.556.729.727 2.697 3.823 5.395 5.842 7.174 2.665 2.35 4.997 3.439 8.529 3.887.41.053.612-.543.331-.799-1.246-1.125-2.226-2.43-3.377-3.641z"/>
            </g>
        </g>
    </g>
</svg>