<?xml version="1.0" encoding="UTF-8"?>
<!-- Generator: Adobe Illustrator 27.0.0, SVG Export Plug-In . SVG Version: 6.00 Build 0)  -->
<svg xmlns="http://www.w3.org/2000/svg" xmlns:xlink="http://www.w3.org/1999/xlink" version="1.1" id="Capa_1" x="0px" y="0px" viewBox="0 0 512 512" style="enable-background:new 0 0 512 512;" xml:space="preserve" width="512" height="512">
<g>
	<g>
		<path style="fill:#FFFFFF;" d="M40.586,465.096c-4.784,0-9.295-2.357-12.022-6.345c-2.939-4.298-3.36-9.839-1.104-14.532    l6.881-14.313l-19.367-2.766c-6.987-0.999-12.253-6.862-12.498-13.917c-0.244-7.053,4.604-13.268,11.506-14.747    c11.497-2.499,30.64-9.748,35.15-17.357c0.816-1.378,3.216-5.429,0.677-8.601l-1.118-0.754    c-18.409-12.37-61.524-41.339-44.985-96.302c8.487-28.209,23.636-40.563,36.777-45.842l-23.723-39.113    c-1.382-2.278-2.112-4.891-2.112-7.555v-59.503c0-6.797,4.701-12.691,11.329-14.202l271.904-61.98    c1.078-0.245,2.162-0.364,3.239-0.364c4.503,0,8.829,2.092,11.619,5.783l41.457,54.848c6.235-12.852,17.359-26.578,37.033-37.353    c12.98-7.098,26.322-10.695,39.665-10.695c37.791,0,65.003,27.712,75.207,55.176c0.928,2.485,1.74,5.242,2.475,8.405    c8.976,38.482-2.473,115.806-2.964,119.079c-0.94,6.255-5.81,11.189-12.053,12.211c-0.788,0.129-1.576,0.192-2.356,0.192    c-5.397,0-10.439-3.006-12.959-7.926l-11.208-21.876l-5.33,12.94c-1,2.429-2.605,4.475-4.591,6.002l16.8,22.224    c2.717,3.595,3.618,8.246,2.438,12.596l-10.755,39.668c-1.264,4.66-4.755,8.39-9.32,9.962l-283.461,97.522    c-1.56,0.536-3.159,0.793-4.737,0.793c-4.981,0.001-9.757-2.563-12.456-7.013L79.036,293.177    c-4.276,3.025-9.448,7.74-15.199,15.088c-11.502,14.698-0.722,32.996,4.624,40.389c18.457,5.57,44.659,23.342,39.884,60.941    c-5.107,40.205-45.823,53.857-66.64,55.458C41.331,465.082,40.957,465.096,40.586,465.096z"/>
	</g>
	<g>
		<g>
			<g>
				<path style="fill:#FF4B4B;" d="M492.14,126.053c-31.487-35.639-66.811-7.453-66.811-7.453s-19.009,9.929-24.374,36.367      c-5.389,26.438-4.564,40.082-4.564,40.082l-37.168-48.336c0,0-7.04-40.081,36.756-64.067c43.82-23.961,82.251,4.564,94.22,36.78      C490.951,121.44,491.582,123.649,492.14,126.053z"/>
			</g>
			<g>
				<path style="fill:#DC3B3F;" d="M488.96,239.67l-25.612-49.987l-21.696,41.732c0,0-0.202-19.008,2.687-46.684      c2.889-27.7,8.667-66.956-19.009-66.131c0,0,35.323-28.186,66.811,7.453C500.589,162.274,488.96,239.67,488.96,239.67z"/>
			</g>
		</g>
		<g>
			<path style="fill:#DC3B3F;" d="M63.755,240.712c0,0-34.167-8.494-48.348,38.637c-14.05,46.695,24.174,69.836,41.529,81.613     c0,0,12.397,10.537,2.479,27.273c-9.917,16.736-44.629,24.174-44.629,24.174l39.05,5.579l-15.496,32.232     c0,0,48.348-3.719,53.306-42.769c4.959-39.05-33.781-46.178-33.781-46.178s-30.062-33.781-7.748-62.294     c22.314-28.513,40.29-26.033,40.29-26.033L63.755,240.712z"/>
		</g>
		<g>
			<g>
				<polygon style="fill:#DC3B3F;" points="460.046,274.386 436.28,305.176 173.467,389.474 41.234,180.381 26.966,123.14       298.87,61.16     "/>
			</g>
			<g>
				<polygon style="fill:#4A1633;" points="460.046,274.386 449.291,314.055 165.831,411.576 26.966,182.643 26.966,123.14       176.562,368.412     "/>
			</g>
			<g>
				<g>
					<polygon style="fill:#4A1633;" points="59.622,133.893 184.004,342.986 422.023,261.167 292.27,80.173      "/>
				</g>
				<g>
					<g>
						
							<rect x="209.017" y="86.152" transform="matrix(0.8387 -0.5445 0.5445 0.8387 -85.0096 149.3385)" style="fill:#DC3B3F;" width="1.214" height="264.078"/>
					</g>
					<g>
						
							<rect x="286.498" y="69.676" transform="matrix(0.8217 -0.5699 0.5699 0.8217 -57.7353 197.7028)" style="fill:#DC3B3F;" width="1.213" height="242.898"/>
					</g>
					<g>
						
							<rect x="77.648" y="159.113" transform="matrix(0.9673 -0.2535 0.2535 0.9673 -33.6689 58.1481)" style="fill:#DC3B3F;" width="262.299" height="1.213"/>
					</g>
					<g>
						
							<rect x="127.893" y="231.428" transform="matrix(0.9531 -0.3027 0.3027 0.9531 -58.1108 89.0895)" style="fill:#DC3B3F;" width="260.984" height="1.214"/>
					</g>
				</g>
				<g>
					<g>
						<path style="fill:#4A1633;" d="M141.061,150.793c0.174-2.233,0.242-4.476,0.313-6.715c0.002-0.066-0.001-0.132,0-0.198        c0.001-0.031,0-0.061,0.001-0.092c0.532-7.889-3.123-16.7-16.085-19.812c-14.11-3.328-15.068,8.628-15.054,11.237        c-3.486-1.566-18.34-7.253-24.298-0.328c-2.117,2.461-2.922,4.973-2.75,7.428c0.003,0.06-0.003,0.12,0.001,0.179        c0.003,0.066-0.005,0.132,0,0.198c0.003,0.066-0.005,0.132,0,0.198c0.003,0.066-0.005,0.132,0,0.198        c0.003,0.066-0.005,0.132,0,0.198c0.003,0.066-0.005,0.132,0,0.198c0.003,0.066-0.005,0.132,0,0.198        c0.003,0.066-0.005,0.132,0,0.198c0.003,0.066-0.005,0.132,0,0.198c0.003,0.066-0.005,0.132,0,0.198        c0.003,0.066-0.005,0.132,0,0.198c0.003,0.066-0.005,0.132,0,0.198c0.003,0.066-0.005,0.132,0,0.198        c0.003,0.066-0.005,0.132,0,0.198c0.003,0.066-0.005,0.132,0,0.198c0.003,0.066-0.005,0.132,0,0.198        c0.003,0.066-0.005,0.132,0,0.198c0.003,0.066-0.005,0.132,0,0.198c0.003,0.066-0.005,0.132,0,0.198        c0.003,0.066-0.005,0.132,0,0.198c0.003,0.066-0.005,0.132,0,0.198c0.003,0.066-0.005,0.132,0,0.198        c0.003,0.066-0.005,0.132,0,0.198c0.003,0.066-0.005,0.132,0,0.198c0.003,0.066-0.005,0.132,0,0.198        c0.003,0.066-0.005,0.132,0,0.198c0.003,0.066-0.005,0.132,0,0.198c0.003,0.066-0.005,0.132,0,0.198        c0.003,0.066-0.005,0.132,0,0.198c0.003,0.066-0.005,0.132,0,0.198c0.003,0.066-0.005,0.132,0,0.198        c0.003,0.066-0.005,0.132,0,0.198c0.003,0.066-0.005,0.132,0,0.198c0.003,0.066-0.005,0.132,0,0.198        c0.003,0.066-0.005,0.132,0,0.198c0.003,0.066-0.005,0.132,0,0.198c0.003,0.066-0.005,0.132,0,0.198        c0.003,0.066-0.005,0.132,0,0.198c0.003,0.066-0.005,0.132,0,0.198c0.003,0.066-0.005,0.132,0,0.198        c0.003,0.066-0.005,0.132,0,0.198c0.003,0.066-0.005,0.132,0,0.198c0.003,0.066-0.005,0.132,0,0.198        c0.003,0.066-0.005,0.132,0,0.198c0.003,0.066-0.005,0.132,0,0.198c0.003,0.066-0.005,0.132,0,0.198        c0.003,0.066-0.005,0.132,0,0.198c0.003,0.066-0.005,0.132,0,0.198c0.003,0.066-0.005,0.132,0,0.198        c0.003,0.062-0.006,0.125-0.002,0.187c0.335,7.387,9.617,14.286,19.081,17.742c11.145,4.168,30.4,5.605,32.748,6.107        c-0.119-0.153,0.752-2.115,0.823-2.333c0.635-1.961,1.229-3.934,1.799-5.912c1.134-3.932,2.077-7.917,2.797-11.938        C140.737,154.179,140.929,152.489,141.061,150.793z"/>
					</g>
					<g style="opacity:0.49;">
						<path style="fill:#DC3B3F;" d="M141.061,150.793c0.174-2.233,0.242-4.476,0.313-6.715c0.002-0.066-0.001-0.132,0-0.198        c0.001-0.031,0-0.061,0.001-0.092c0.532-7.889-3.123-16.7-16.085-19.812c-14.11-3.328-15.068,8.628-15.054,11.237        c-3.486-1.566-18.34-7.253-24.298-0.328c-2.117,2.461-2.922,4.973-2.75,7.428c0.003,0.06-0.003,0.12,0.001,0.179        c0.003,0.066-0.005,0.132,0,0.198c0.003,0.066-0.005,0.132,0,0.198c0.003,0.066-0.005,0.132,0,0.198        c0.003,0.066-0.005,0.132,0,0.198c0.003,0.066-0.005,0.132,0,0.198c0.003,0.066-0.005,0.132,0,0.198        c0.003,0.066-0.005,0.132,0,0.198c0.003,0.066-0.005,0.132,0,0.198c0.003,0.066-0.005,0.132,0,0.198        c0.003,0.066-0.005,0.132,0,0.198c0.003,0.066-0.005,0.132,0,0.198c0.003,0.066-0.005,0.132,0,0.198        c0.003,0.066-0.005,0.132,0,0.198c0.003,0.066-0.005,0.132,0,0.198c0.003,0.066-0.005,0.132,0,0.198        c0.003,0.066-0.005,0.132,0,0.198c0.003,0.066-0.005,0.132,0,0.198c0.003,0.066-0.005,0.132,0,0.198        c0.003,0.066-0.005,0.132,0,0.198c0.003,0.066-0.005,0.132,0,0.198c0.003,0.066-0.005,0.132,0,0.198        c0.003,0.066-0.005,0.132,0,0.198c0.003,0.066-0.005,0.132,0,0.198c0.003,0.066-0.005,0.132,0,0.198        c0.003,0.066-0.005,0.132,0,0.198c0.003,0.066-0.005,0.132,0,0.198c0.003,0.066-0.005,0.132,0,0.198        c0.003,0.066-0.005,0.132,0,0.198c0.003,0.066-0.005,0.132,0,0.198c0.003,0.066-0.005,0.132,0,0.198        c0.003,0.066-0.005,0.132,0,0.198c0.003,0.066-0.005,0.132,0,0.198c0.003,0.066-0.005,0.132,0,0.198        c0.003,0.066-0.005,0.132,0,0.198c0.003,0.066-0.005,0.132,0,0.198c0.003,0.066-0.005,0.132,0,0.198        c0.003,0.066-0.005,0.132,0,0.198c0.003,0.066-0.005,0.132,0,0.198c0.003,0.066-0.005,0.132,0,0.198        c0.003,0.066-0.005,0.132,0,0.198c0.003,0.066-0.005,0.132,0,0.198c0.003,0.066-0.005,0.132,0,0.198        c0.003,0.066-0.005,0.132,0,0.198c0.003,0.066-0.005,0.132,0,0.198c0.003,0.066-0.005,0.132,0,0.198        c0.003,0.066-0.005,0.132,0,0.198c0.003,0.066-0.005,0.132,0,0.198c0.003,0.066-0.005,0.132,0,0.198        c0.003,0.062-0.006,0.125-0.002,0.187c0.335,7.387,9.617,14.286,19.081,17.742c11.145,4.168,30.4,5.605,32.748,6.107        c-0.119-0.153,0.752-2.115,0.823-2.333c0.635-1.961,1.229-3.934,1.799-5.912c1.134-3.932,2.077-7.917,2.797-11.938        C140.737,154.179,140.929,152.489,141.061,150.793z"/>
					</g>
					<g>
						<g>
							<path style="fill:#FF4B4B;" d="M85.938,134.511c5.958-6.926,20.812-1.238,24.298,0.327         c-0.014-2.609,0.944-14.565,15.054-11.237c15.472,3.715,17.707,15.554,15.358,24.245c-1.873,7.957-5.547,17.823-5.632,17.713         c-2.348-0.502-21.603-1.939-32.748-6.107C89.752,154.882,77.526,144.29,85.938,134.511z"/>
						</g>
					</g>
				</g>
				<g>
					<g>
						<path style="fill:#4A1633;" d="M225.36,128.066c0.174-2.233,0.242-4.476,0.313-6.715c0.002-0.066-0.001-0.132,0-0.198        c0.001-0.031,0.001-0.061,0.001-0.092c0.532-7.889-3.123-16.7-16.085-19.812c-14.11-3.328-15.068,8.628-15.054,11.237        c-3.485-1.566-18.34-7.253-24.298-0.327c-2.117,2.461-2.923,4.973-2.75,7.428c0.003,0.06-0.004,0.12,0.001,0.179        c0.003,0.066-0.005,0.132,0,0.198c0.003,0.066-0.005,0.132,0,0.198c0.003,0.066-0.005,0.132,0,0.198        c0.003,0.066-0.005,0.132,0,0.198c0.003,0.066-0.005,0.132,0,0.198c0.003,0.066-0.005,0.132,0,0.198        c0.003,0.066-0.005,0.132,0,0.198c0.003,0.066-0.005,0.132,0,0.198c0.003,0.066-0.005,0.132,0,0.198        c0.003,0.066-0.005,0.132,0,0.198c0.003,0.066-0.005,0.132,0,0.198c0.003,0.066-0.005,0.132,0,0.198        c0.003,0.066-0.005,0.132,0,0.198c0.003,0.066-0.005,0.132,0,0.198c0.003,0.066-0.005,0.132,0,0.198        c0.003,0.066-0.005,0.132,0,0.198c0.003,0.066-0.005,0.132,0,0.198c0.003,0.066-0.005,0.132,0,0.198        c0.003,0.066-0.005,0.132,0,0.198c0.003,0.066-0.005,0.132,0,0.198c0.003,0.066-0.005,0.132,0,0.198        c0.003,0.066-0.005,0.132,0,0.198c0.003,0.066-0.005,0.132,0,0.198c0.003,0.066-0.005,0.132,0,0.198        c0.003,0.066-0.005,0.132,0,0.198c0.003,0.066-0.005,0.132,0,0.198c0.003,0.066-0.005,0.132,0,0.198        c0.003,0.066-0.005,0.132,0,0.198c0.003,0.066-0.005,0.132,0,0.198c0.003,0.066-0.005,0.132,0,0.198        c0.003,0.066-0.005,0.132,0,0.198c0.003,0.066-0.005,0.132,0,0.198c0.003,0.066-0.005,0.132,0,0.198        c0.003,0.066-0.005,0.132,0,0.198c0.003,0.066-0.005,0.132,0,0.198c0.003,0.066-0.005,0.132,0,0.198        c0.003,0.066-0.005,0.132,0,0.198c0.003,0.066-0.005,0.132,0,0.198c0.003,0.066-0.005,0.132,0,0.198        c0.003,0.066-0.005,0.132,0,0.198c0.003,0.066-0.005,0.132,0,0.198c0.003,0.066-0.005,0.132,0,0.198        c0.003,0.066-0.005,0.132,0,0.198c0.003,0.066-0.005,0.132,0,0.198c0.003,0.066-0.005,0.132,0,0.198        c0.003,0.066-0.005,0.132,0,0.198c0.003,0.066-0.005,0.132,0,0.198c0.003,0.066-0.005,0.132,0,0.198        c0.003,0.062-0.006,0.124-0.002,0.187c0.335,7.387,9.617,14.286,19.081,17.742c11.145,4.168,30.4,5.605,32.748,6.107        c-0.119-0.153,0.753-2.115,0.823-2.333c0.635-1.961,1.229-3.934,1.799-5.912c1.134-3.932,2.077-7.916,2.797-11.938        C225.035,131.451,225.228,129.761,225.36,128.066z"/>
					</g>
					<g style="opacity:0.49;">
						<path style="fill:#DC3B3F;" d="M225.36,128.066c0.174-2.233,0.242-4.476,0.313-6.715c0.002-0.066-0.001-0.132,0-0.198        c0.001-0.031,0.001-0.061,0.001-0.092c0.532-7.889-3.123-16.7-16.085-19.812c-14.11-3.328-15.068,8.628-15.054,11.237        c-3.485-1.566-18.34-7.253-24.298-0.327c-2.117,2.461-2.923,4.973-2.75,7.428c0.003,0.06-0.004,0.12,0.001,0.179        c0.003,0.066-0.005,0.132,0,0.198c0.003,0.066-0.005,0.132,0,0.198c0.003,0.066-0.005,0.132,0,0.198        c0.003,0.066-0.005,0.132,0,0.198c0.003,0.066-0.005,0.132,0,0.198c0.003,0.066-0.005,0.132,0,0.198        c0.003,0.066-0.005,0.132,0,0.198c0.003,0.066-0.005,0.132,0,0.198c0.003,0.066-0.005,0.132,0,0.198        c0.003,0.066-0.005,0.132,0,0.198c0.003,0.066-0.005,0.132,0,0.198c0.003,0.066-0.005,0.132,0,0.198        c0.003,0.066-0.005,0.132,0,0.198c0.003,0.066-0.005,0.132,0,0.198c0.003,0.066-0.005,0.132,0,0.198        c0.003,0.066-0.005,0.132,0,0.198c0.003,0.066-0.005,0.132,0,0.198c0.003,0.066-0.005,0.132,0,0.198        c0.003,0.066-0.005,0.132,0,0.198c0.003,0.066-0.005,0.132,0,0.198c0.003,0.066-0.005,0.132,0,0.198        c0.003,0.066-0.005,0.132,0,0.198c0.003,0.066-0.005,0.132,0,0.198c0.003,0.066-0.005,0.132,0,0.198        c0.003,0.066-0.005,0.132,0,0.198c0.003,0.066-0.005,0.132,0,0.198c0.003,0.066-0.005,0.132,0,0.198        c0.003,0.066-0.005,0.132,0,0.198c0.003,0.066-0.005,0.132,0,0.198c0.003,0.066-0.005,0.132,0,0.198        c0.003,0.066-0.005,0.132,0,0.198c0.003,0.066-0.005,0.132,0,0.198c0.003,0.066-0.005,0.132,0,0.198        c0.003,0.066-0.005,0.132,0,0.198c0.003,0.066-0.005,0.132,0,0.198c0.003,0.066-0.005,0.132,0,0.198        c0.003,0.066-0.005,0.132,0,0.198c0.003,0.066-0.005,0.132,0,0.198c0.003,0.066-0.005,0.132,0,0.198        c0.003,0.066-0.005,0.132,0,0.198c0.003,0.066-0.005,0.132,0,0.198c0.003,0.066-0.005,0.132,0,0.198        c0.003,0.066-0.005,0.132,0,0.198c0.003,0.066-0.005,0.132,0,0.198c0.003,0.066-0.005,0.132,0,0.198        c0.003,0.066-0.005,0.132,0,0.198c0.003,0.066-0.005,0.132,0,0.198c0.003,0.066-0.005,0.132,0,0.198        c0.003,0.062-0.006,0.124-0.002,0.187c0.335,7.387,9.617,14.286,19.081,17.742c11.145,4.168,30.4,5.605,32.748,6.107        c-0.119-0.153,0.753-2.115,0.823-2.333c0.635-1.961,1.229-3.934,1.799-5.912c1.134-3.932,2.077-7.916,2.797-11.938        C225.035,131.451,225.228,129.761,225.36,128.066z"/>
					</g>
					<g>
						<g>
							<path style="fill:#FF4B4B;" d="M170.237,111.784c5.958-6.926,20.812-1.238,24.298,0.328         c-0.014-2.609,0.944-14.565,15.054-11.237c15.472,3.715,17.707,15.553,15.358,24.245c-1.873,7.957-5.547,17.823-5.632,17.713         c-2.348-0.502-21.603-1.939-32.748-6.107C174.051,132.154,161.824,121.562,170.237,111.784z"/>
						</g>
					</g>
				</g>
				<g>
					<g>
						<path style="fill:#4A1633;" d="M298.924,107.618c0.169-2.178,0.236-4.365,0.305-6.549c0.002-0.064-0.001-0.129,0-0.193        c0.001-0.03,0-0.06,0.001-0.09c0.519-7.693-3.045-16.285-15.686-19.321c-13.76-3.245-14.694,8.414-14.681,10.958        c-3.399-1.527-17.885-7.073-23.695-0.319c-2.065,2.4-2.85,4.849-2.682,7.244c0.003,0.058-0.003,0.117,0.001,0.175        c0.003,0.064-0.005,0.129,0,0.193c0.003,0.064-0.005,0.129,0,0.193c0.003,0.064-0.005,0.129,0,0.193        c0.003,0.064-0.005,0.129,0,0.193c0.003,0.064-0.005,0.129,0,0.193c0.003,0.064-0.005,0.129,0,0.193        c0.003,0.064-0.005,0.129,0,0.193c0.003,0.064-0.005,0.129,0,0.193c0.003,0.064-0.005,0.129,0,0.193        c0.003,0.064-0.005,0.129,0,0.193c0.003,0.064-0.005,0.129,0,0.193c0.003,0.064-0.005,0.129,0,0.193        c0.003,0.064-0.005,0.129,0,0.193c0.003,0.064-0.005,0.129,0,0.193c0.003,0.064-0.005,0.129,0,0.193        c0.003,0.064-0.005,0.129,0,0.193c0.003,0.064-0.005,0.129,0,0.193c0.003,0.064-0.005,0.129,0,0.193        c0.003,0.064-0.005,0.129,0,0.193c0.003,0.064-0.005,0.129,0,0.193c0.003,0.064-0.005,0.129,0,0.193        c0.003,0.064-0.005,0.129,0,0.193c0.003,0.064-0.005,0.129,0,0.193c0.003,0.064-0.005,0.129,0,0.193        c0.003,0.064-0.005,0.129,0,0.193c0.003,0.064-0.005,0.129,0,0.193c0.003,0.064-0.005,0.129,0,0.193        c0.003,0.064-0.005,0.129,0,0.193c0.003,0.064-0.005,0.129,0,0.193c0.003,0.064-0.005,0.129,0,0.193        c0.003,0.064-0.005,0.129,0,0.193c0.003,0.064-0.005,0.129,0,0.193c0.003,0.064-0.005,0.129,0,0.193        c0.003,0.064-0.005,0.129,0,0.193c0.003,0.064-0.005,0.129,0,0.193c0.003,0.064-0.005,0.129,0,0.193        c0.003,0.064-0.005,0.129,0,0.193c0.003,0.064-0.005,0.129,0,0.193c0.003,0.064-0.005,0.129,0,0.193        c0.003,0.064-0.005,0.129,0,0.193c0.003,0.064-0.005,0.129,0,0.193c0.003,0.064-0.005,0.129,0,0.193        c0.003,0.064-0.005,0.129,0,0.193c0.003,0.064-0.005,0.129,0,0.193c0.003,0.064-0.005,0.129,0,0.193        c0.003,0.064-0.005,0.129,0,0.193c0.003,0.064-0.005,0.129,0,0.193c0.003,0.064-0.005,0.129,0,0.193        c0.003,0.061-0.006,0.121-0.002,0.182c0.327,7.203,9.378,13.931,18.607,17.302c10.869,4.064,29.646,5.466,31.936,5.955        c-0.116-0.149,0.734-2.062,0.803-2.275c0.619-1.912,1.198-3.836,1.755-5.766c1.106-3.835,2.026-7.72,2.728-11.642        C298.607,110.919,298.795,109.271,298.924,107.618z"/>
					</g>
					<g style="opacity:0.49;">
						<path style="fill:#DC3B3F;" d="M298.924,107.618c0.169-2.178,0.236-4.365,0.305-6.549c0.002-0.064-0.001-0.129,0-0.193        c0.001-0.03,0-0.06,0.001-0.09c0.519-7.693-3.045-16.285-15.686-19.321c-13.76-3.245-14.694,8.414-14.681,10.958        c-3.399-1.527-17.885-7.073-23.695-0.319c-2.065,2.4-2.85,4.849-2.682,7.244c0.003,0.058-0.003,0.117,0.001,0.175        c0.003,0.064-0.005,0.129,0,0.193c0.003,0.064-0.005,0.129,0,0.193c0.003,0.064-0.005,0.129,0,0.193        c0.003,0.064-0.005,0.129,0,0.193c0.003,0.064-0.005,0.129,0,0.193c0.003,0.064-0.005,0.129,0,0.193        c0.003,0.064-0.005,0.129,0,0.193c0.003,0.064-0.005,0.129,0,0.193c0.003,0.064-0.005,0.129,0,0.193        c0.003,0.064-0.005,0.129,0,0.193c0.003,0.064-0.005,0.129,0,0.193c0.003,0.064-0.005,0.129,0,0.193        c0.003,0.064-0.005,0.129,0,0.193c0.003,0.064-0.005,0.129,0,0.193c0.003,0.064-0.005,0.129,0,0.193        c0.003,0.064-0.005,0.129,0,0.193c0.003,0.064-0.005,0.129,0,0.193c0.003,0.064-0.005,0.129,0,0.193        c0.003,0.064-0.005,0.129,0,0.193c0.003,0.064-0.005,0.129,0,0.193c0.003,0.064-0.005,0.129,0,0.193        c0.003,0.064-0.005,0.129,0,0.193c0.003,0.064-0.005,0.129,0,0.193c0.003,0.064-0.005,0.129,0,0.193        c0.003,0.064-0.005,0.129,0,0.193c0.003,0.064-0.005,0.129,0,0.193c0.003,0.064-0.005,0.129,0,0.193        c0.003,0.064-0.005,0.129,0,0.193c0.003,0.064-0.005,0.129,0,0.193c0.003,0.064-0.005,0.129,0,0.193        c0.003,0.064-0.005,0.129,0,0.193c0.003,0.064-0.005,0.129,0,0.193c0.003,0.064-0.005,0.129,0,0.193        c0.003,0.064-0.005,0.129,0,0.193c0.003,0.064-0.005,0.129,0,0.193c0.003,0.064-0.005,0.129,0,0.193        c0.003,0.064-0.005,0.129,0,0.193c0.003,0.064-0.005,0.129,0,0.193c0.003,0.064-0.005,0.129,0,0.193        c0.003,0.064-0.005,0.129,0,0.193c0.003,0.064-0.005,0.129,0,0.193c0.003,0.064-0.005,0.129,0,0.193        c0.003,0.064-0.005,0.129,0,0.193c0.003,0.064-0.005,0.129,0,0.193c0.003,0.064-0.005,0.129,0,0.193        c0.003,0.064-0.005,0.129,0,0.193c0.003,0.064-0.005,0.129,0,0.193c0.003,0.064-0.005,0.129,0,0.193        c0.003,0.061-0.006,0.121-0.002,0.182c0.327,7.203,9.378,13.931,18.607,17.302c10.869,4.064,29.646,5.466,31.936,5.955        c-0.116-0.149,0.734-2.062,0.803-2.275c0.619-1.912,1.198-3.836,1.755-5.766c1.106-3.835,2.026-7.72,2.728-11.642        C298.607,110.919,298.795,109.271,298.924,107.618z"/>
					</g>
					<g>
						<g>
							<path style="fill:#FF4B4B;" d="M245.169,91.74c5.81-6.754,20.296-1.207,23.695,0.32c-0.014-2.544,0.921-14.203,14.681-10.958         c15.088,3.623,17.268,15.168,14.977,23.643c-1.826,7.76-5.409,17.381-5.492,17.273c-2.29-0.49-21.067-1.891-31.936-5.955         C248.888,111.605,236.965,101.276,245.169,91.74z"/>
						</g>
					</g>
				</g>
				<g>
					<g>
						<path style="fill:#4A1633;" d="M183.83,214.637c0.174-2.233,0.242-4.476,0.313-6.715c0.002-0.066-0.001-0.132,0-0.198        c0.001-0.031,0-0.061,0.001-0.092c0.532-7.889-3.123-16.7-16.085-19.812c-14.11-3.328-15.068,8.628-15.054,11.237        c-3.486-1.566-18.34-7.253-24.298-0.327c-2.117,2.461-2.922,4.973-2.75,7.428c0.003,0.06-0.003,0.12,0.001,0.179        c0.003,0.066-0.005,0.132,0,0.198c0.003,0.066-0.005,0.132,0,0.198c0.003,0.066-0.005,0.132,0,0.198        c0.003,0.066-0.005,0.132,0,0.198c0.003,0.066-0.005,0.132,0,0.198c0.003,0.066-0.005,0.132,0,0.198        c0.003,0.066-0.005,0.132,0,0.198c0.003,0.066-0.005,0.132,0,0.198c0.003,0.066-0.005,0.132,0,0.198        c0.003,0.066-0.005,0.132,0,0.198c0.003,0.066-0.005,0.132,0,0.198c0.003,0.066-0.005,0.132,0,0.198        c0.003,0.066-0.005,0.132,0,0.198c0.003,0.066-0.005,0.132,0,0.198c0.003,0.066-0.005,0.132,0,0.198        c0.003,0.066-0.005,0.132,0,0.198c0.003,0.066-0.005,0.132,0,0.198c0.003,0.066-0.005,0.132,0,0.198        c0.003,0.066-0.005,0.132,0,0.198c0.003,0.066-0.005,0.132,0,0.198c0.003,0.066-0.005,0.132,0,0.198        c0.003,0.066-0.005,0.132,0,0.198c0.003,0.066-0.005,0.132,0,0.198c0.003,0.066-0.005,0.132,0,0.198        c0.003,0.066-0.005,0.132,0,0.198c0.003,0.066-0.005,0.132,0,0.198c0.003,0.066-0.005,0.132,0,0.198        c0.003,0.066-0.005,0.132,0,0.198c0.003,0.066-0.005,0.132,0,0.198c0.003,0.066-0.005,0.132,0,0.198        c0.003,0.066-0.005,0.132,0,0.198c0.003,0.066-0.005,0.132,0,0.198c0.003,0.066-0.005,0.132,0,0.198        c0.003,0.066-0.005,0.132,0,0.198c0.003,0.066-0.005,0.132,0,0.198c0.003,0.066-0.005,0.132,0,0.198        c0.003,0.066-0.005,0.132,0,0.198c0.003,0.066-0.005,0.132,0,0.198c0.003,0.066-0.005,0.132,0,0.198        c0.003,0.066-0.005,0.132,0,0.198c0.003,0.066-0.005,0.132,0,0.198c0.003,0.066-0.005,0.132,0,0.198        c0.003,0.066-0.005,0.132,0,0.198c0.003,0.066-0.005,0.132,0,0.198c0.003,0.066-0.005,0.132,0,0.198        c0.003,0.066-0.005,0.132,0,0.198c0.003,0.066-0.005,0.132,0,0.198c0.003,0.066-0.005,0.132,0,0.198        c0.003,0.062-0.006,0.125-0.002,0.187c0.335,7.387,9.617,14.286,19.081,17.742c11.146,4.168,30.4,5.605,32.748,6.107        c-0.119-0.153,0.753-2.115,0.823-2.333c0.635-1.961,1.229-3.934,1.799-5.912c1.134-3.932,2.077-7.916,2.797-11.938        C183.506,218.022,183.698,216.332,183.83,214.637z"/>
					</g>
					<g style="opacity:0.49;">
						<path style="fill:#DC3B3F;" d="M183.83,214.637c0.174-2.233,0.242-4.476,0.313-6.715c0.002-0.066-0.001-0.132,0-0.198        c0.001-0.031,0-0.061,0.001-0.092c0.532-7.889-3.123-16.7-16.085-19.812c-14.11-3.328-15.068,8.628-15.054,11.237        c-3.486-1.566-18.34-7.253-24.298-0.327c-2.117,2.461-2.922,4.973-2.75,7.428c0.003,0.06-0.003,0.12,0.001,0.179        c0.003,0.066-0.005,0.132,0,0.198c0.003,0.066-0.005,0.132,0,0.198c0.003,0.066-0.005,0.132,0,0.198        c0.003,0.066-0.005,0.132,0,0.198c0.003,0.066-0.005,0.132,0,0.198c0.003,0.066-0.005,0.132,0,0.198        c0.003,0.066-0.005,0.132,0,0.198c0.003,0.066-0.005,0.132,0,0.198c0.003,0.066-0.005,0.132,0,0.198        c0.003,0.066-0.005,0.132,0,0.198c0.003,0.066-0.005,0.132,0,0.198c0.003,0.066-0.005,0.132,0,0.198        c0.003,0.066-0.005,0.132,0,0.198c0.003,0.066-0.005,0.132,0,0.198c0.003,0.066-0.005,0.132,0,0.198        c0.003,0.066-0.005,0.132,0,0.198c0.003,0.066-0.005,0.132,0,0.198c0.003,0.066-0.005,0.132,0,0.198        c0.003,0.066-0.005,0.132,0,0.198c0.003,0.066-0.005,0.132,0,0.198c0.003,0.066-0.005,0.132,0,0.198        c0.003,0.066-0.005,0.132,0,0.198c0.003,0.066-0.005,0.132,0,0.198c0.003,0.066-0.005,0.132,0,0.198        c0.003,0.066-0.005,0.132,0,0.198c0.003,0.066-0.005,0.132,0,0.198c0.003,0.066-0.005,0.132,0,0.198        c0.003,0.066-0.005,0.132,0,0.198c0.003,0.066-0.005,0.132,0,0.198c0.003,0.066-0.005,0.132,0,0.198        c0.003,0.066-0.005,0.132,0,0.198c0.003,0.066-0.005,0.132,0,0.198c0.003,0.066-0.005,0.132,0,0.198        c0.003,0.066-0.005,0.132,0,0.198c0.003,0.066-0.005,0.132,0,0.198c0.003,0.066-0.005,0.132,0,0.198        c0.003,0.066-0.005,0.132,0,0.198c0.003,0.066-0.005,0.132,0,0.198c0.003,0.066-0.005,0.132,0,0.198        c0.003,0.066-0.005,0.132,0,0.198c0.003,0.066-0.005,0.132,0,0.198c0.003,0.066-0.005,0.132,0,0.198        c0.003,0.066-0.005,0.132,0,0.198c0.003,0.066-0.005,0.132,0,0.198c0.003,0.066-0.005,0.132,0,0.198        c0.003,0.066-0.005,0.132,0,0.198c0.003,0.066-0.005,0.132,0,0.198c0.003,0.066-0.005,0.132,0,0.198        c0.003,0.062-0.006,0.125-0.002,0.187c0.335,7.387,9.617,14.286,19.081,17.742c11.146,4.168,30.4,5.605,32.748,6.107        c-0.119-0.153,0.753-2.115,0.823-2.333c0.635-1.961,1.229-3.934,1.799-5.912c1.134-3.932,2.077-7.916,2.797-11.938        C183.506,218.022,183.698,216.332,183.83,214.637z"/>
					</g>
					<g>
						<g>
							<path style="fill:#FF4B4B;" d="M128.707,198.355c5.958-6.926,20.812-1.238,24.298,0.328         c-0.014-2.609,0.944-14.565,15.054-11.237c15.472,3.715,17.707,15.554,15.358,24.245c-1.873,7.957-5.547,17.823-5.632,17.713         c-2.348-0.502-21.603-1.939-32.748-6.107C132.521,218.725,120.295,208.133,128.707,198.355z"/>
						</g>
					</g>
				</g>
				<g>
					<g>
						<path style="fill:#4A1633;" d="M268.129,191.91c0.174-2.233,0.242-4.476,0.313-6.715c0.002-0.066-0.001-0.132,0-0.198        c0.001-0.031,0-0.061,0.001-0.092c0.532-7.889-3.123-16.7-16.085-19.812c-14.11-3.328-15.068,8.628-15.054,11.237        c-3.486-1.566-18.34-7.253-24.298-0.328c-2.117,2.461-2.923,4.973-2.75,7.428c0.003,0.06-0.003,0.12,0.001,0.179        c0.003,0.066-0.005,0.132,0,0.198c0.003,0.066-0.005,0.132,0,0.198c0.003,0.066-0.005,0.132,0,0.198        c0.003,0.066-0.005,0.132,0,0.198c0.003,0.066-0.005,0.132,0,0.198c0.003,0.066-0.005,0.132,0,0.198        c0.003,0.066-0.005,0.132,0,0.198c0.003,0.066-0.005,0.132,0,0.198c0.003,0.066-0.005,0.132,0,0.198        c0.003,0.066-0.005,0.132,0,0.198c0.003,0.066-0.005,0.132,0,0.198c0.003,0.066-0.005,0.132,0,0.198        c0.003,0.066-0.005,0.132,0,0.198c0.003,0.066-0.005,0.132,0,0.198c0.003,0.066-0.005,0.132,0,0.198        c0.003,0.066-0.005,0.132,0,0.198c0.003,0.066-0.005,0.132,0,0.198c0.003,0.066-0.005,0.132,0,0.198        c0.003,0.066-0.005,0.132,0,0.198c0.003,0.066-0.005,0.132,0,0.198c0.003,0.066-0.005,0.132,0,0.198        c0.003,0.066-0.005,0.132,0,0.198c0.003,0.066-0.005,0.132,0,0.198c0.003,0.066-0.005,0.132,0,0.198        c0.003,0.066-0.005,0.132,0,0.198c0.003,0.066-0.005,0.132,0,0.198c0.003,0.066-0.005,0.132,0,0.198        c0.003,0.066-0.005,0.132,0,0.198c0.003,0.066-0.005,0.132,0,0.198c0.003,0.066-0.005,0.132,0,0.198        c0.003,0.066-0.005,0.132,0,0.198c0.003,0.066-0.005,0.132,0,0.198c0.003,0.066-0.005,0.132,0,0.198        c0.003,0.066-0.005,0.132,0,0.198c0.003,0.066-0.005,0.132,0,0.198c0.003,0.066-0.005,0.132,0,0.198        c0.003,0.066-0.005,0.132,0,0.198c0.003,0.066-0.005,0.132,0,0.198c0.003,0.066-0.005,0.132,0,0.198        c0.003,0.066-0.005,0.132,0,0.198c0.003,0.066-0.005,0.132,0,0.198c0.003,0.066-0.005,0.132,0,0.198        c0.003,0.066-0.005,0.132,0,0.198c0.003,0.066-0.005,0.132,0,0.198c0.003,0.066-0.005,0.132,0,0.198        c0.003,0.066-0.005,0.132,0,0.198c0.003,0.066-0.005,0.132,0,0.198c0.003,0.066-0.005,0.132,0,0.198        c0.003,0.062-0.006,0.125-0.002,0.187c0.335,7.387,9.617,14.286,19.081,17.742c11.145,4.168,30.4,5.605,32.748,6.107        c-0.119-0.153,0.752-2.115,0.823-2.333c0.635-1.961,1.229-3.934,1.799-5.912c1.134-3.932,2.077-7.917,2.797-11.938        C267.805,195.295,267.997,193.605,268.129,191.91z"/>
					</g>
					<g style="opacity:0.49;">
						<path style="fill:#DC3B3F;" d="M268.129,191.91c0.174-2.233,0.242-4.476,0.313-6.715c0.002-0.066-0.001-0.132,0-0.198        c0.001-0.031,0-0.061,0.001-0.092c0.532-7.889-3.123-16.7-16.085-19.812c-14.11-3.328-15.068,8.628-15.054,11.237        c-3.486-1.566-18.34-7.253-24.298-0.328c-2.117,2.461-2.923,4.973-2.75,7.428c0.003,0.06-0.003,0.12,0.001,0.179        c0.003,0.066-0.005,0.132,0,0.198c0.003,0.066-0.005,0.132,0,0.198c0.003,0.066-0.005,0.132,0,0.198        c0.003,0.066-0.005,0.132,0,0.198c0.003,0.066-0.005,0.132,0,0.198c0.003,0.066-0.005,0.132,0,0.198        c0.003,0.066-0.005,0.132,0,0.198c0.003,0.066-0.005,0.132,0,0.198c0.003,0.066-0.005,0.132,0,0.198        c0.003,0.066-0.005,0.132,0,0.198c0.003,0.066-0.005,0.132,0,0.198c0.003,0.066-0.005,0.132,0,0.198        c0.003,0.066-0.005,0.132,0,0.198c0.003,0.066-0.005,0.132,0,0.198c0.003,0.066-0.005,0.132,0,0.198        c0.003,0.066-0.005,0.132,0,0.198c0.003,0.066-0.005,0.132,0,0.198c0.003,0.066-0.005,0.132,0,0.198        c0.003,0.066-0.005,0.132,0,0.198c0.003,0.066-0.005,0.132,0,0.198c0.003,0.066-0.005,0.132,0,0.198        c0.003,0.066-0.005,0.132,0,0.198c0.003,0.066-0.005,0.132,0,0.198c0.003,0.066-0.005,0.132,0,0.198        c0.003,0.066-0.005,0.132,0,0.198c0.003,0.066-0.005,0.132,0,0.198c0.003,0.066-0.005,0.132,0,0.198        c0.003,0.066-0.005,0.132,0,0.198c0.003,0.066-0.005,0.132,0,0.198c0.003,0.066-0.005,0.132,0,0.198        c0.003,0.066-0.005,0.132,0,0.198c0.003,0.066-0.005,0.132,0,0.198c0.003,0.066-0.005,0.132,0,0.198        c0.003,0.066-0.005,0.132,0,0.198c0.003,0.066-0.005,0.132,0,0.198c0.003,0.066-0.005,0.132,0,0.198        c0.003,0.066-0.005,0.132,0,0.198c0.003,0.066-0.005,0.132,0,0.198c0.003,0.066-0.005,0.132,0,0.198        c0.003,0.066-0.005,0.132,0,0.198c0.003,0.066-0.005,0.132,0,0.198c0.003,0.066-0.005,0.132,0,0.198        c0.003,0.066-0.005,0.132,0,0.198c0.003,0.066-0.005,0.132,0,0.198c0.003,0.066-0.005,0.132,0,0.198        c0.003,0.066-0.005,0.132,0,0.198c0.003,0.066-0.005,0.132,0,0.198c0.003,0.066-0.005,0.132,0,0.198        c0.003,0.062-0.006,0.125-0.002,0.187c0.335,7.387,9.617,14.286,19.081,17.742c11.145,4.168,30.4,5.605,32.748,6.107        c-0.119-0.153,0.752-2.115,0.823-2.333c0.635-1.961,1.229-3.934,1.799-5.912c1.134-3.932,2.077-7.917,2.797-11.938        C267.805,195.295,267.997,193.605,268.129,191.91z"/>
					</g>
					<g>
						<g>
							<path style="fill:#FF4B4B;" d="M213.006,175.627c5.958-6.926,20.812-1.238,24.298,0.327         c-0.014-2.609,0.944-14.565,15.054-11.237c15.472,3.715,17.707,15.553,15.358,24.245c-1.873,7.957-5.547,17.823-5.632,17.713         c-2.348-0.502-21.603-1.939-32.748-6.107C216.82,195.998,204.593,185.406,213.006,175.627z"/>
						</g>
					</g>
				</g>
				<g>
					<g>
						<path style="fill:#4A1633;" d="M339.213,171.462c0.169-2.178,0.236-4.365,0.305-6.548c0.002-0.064-0.001-0.129,0-0.193        c0.001-0.03,0-0.06,0.001-0.09c0.519-7.693-3.045-16.285-15.686-19.32c-13.76-3.245-14.694,8.414-14.68,10.958        c-3.399-1.527-17.885-7.073-23.695-0.32c-2.065,2.4-2.85,4.85-2.681,7.244c0.003,0.058-0.003,0.117,0.001,0.175        c0.003,0.064-0.004,0.129,0,0.193c0.003,0.064-0.004,0.129,0,0.193c0.003,0.064-0.004,0.129,0,0.193        c0.003,0.064-0.004,0.129,0,0.193c0.003,0.064-0.004,0.129,0,0.193c0.003,0.064-0.004,0.129,0,0.193        c0.003,0.064-0.004,0.129,0,0.193c0.003,0.064-0.004,0.129,0,0.193c0.003,0.064-0.004,0.129,0,0.193        c0.003,0.064-0.004,0.129,0,0.193c0.003,0.064-0.004,0.129,0,0.193c0.003,0.064-0.004,0.129,0,0.193        c0.003,0.064-0.004,0.129,0,0.193c0.003,0.064-0.004,0.129,0,0.193c0.003,0.064-0.004,0.129,0,0.193        c0.003,0.064-0.004,0.129,0,0.193c0.003,0.064-0.004,0.129,0,0.193c0.003,0.064-0.004,0.129,0,0.193        c0.003,0.064-0.004,0.129,0,0.193c0.003,0.064-0.004,0.129,0,0.193c0.003,0.064-0.004,0.129,0,0.193        c0.003,0.064-0.004,0.129,0,0.193c0.003,0.064-0.004,0.129,0,0.193c0.003,0.064-0.004,0.129,0,0.193        c0.003,0.064-0.004,0.129,0,0.193c0.003,0.064-0.004,0.129,0,0.193c0.003,0.064-0.004,0.129,0,0.193        c0.003,0.064-0.004,0.129,0,0.193c0.003,0.064-0.004,0.129,0,0.193c0.003,0.064-0.004,0.129,0,0.193        c0.003,0.064-0.004,0.129,0,0.193c0.003,0.064-0.004,0.129,0,0.193c0.003,0.064-0.004,0.129,0,0.193        c0.003,0.064-0.004,0.129,0,0.193c0.003,0.064-0.004,0.129,0,0.193c0.003,0.064-0.004,0.129,0,0.193        c0.003,0.064-0.004,0.129,0,0.193c0.003,0.064-0.004,0.129,0,0.193c0.003,0.064-0.004,0.129,0,0.193        c0.003,0.064-0.004,0.129,0,0.193c0.003,0.064-0.004,0.129,0,0.193c0.003,0.064-0.004,0.129,0,0.193        c0.003,0.064-0.004,0.129,0,0.193c0.003,0.064-0.004,0.129,0,0.193c0.003,0.064-0.004,0.129,0,0.193        c0.003,0.064-0.004,0.129,0,0.193c0.003,0.064-0.004,0.129,0,0.193c0.003,0.064-0.004,0.129,0,0.193        c0.003,0.061-0.006,0.122-0.002,0.182c0.327,7.203,9.378,13.931,18.607,17.302c10.869,4.064,29.646,5.466,31.935,5.955        c-0.116-0.149,0.734-2.062,0.803-2.275c0.619-1.912,1.198-3.836,1.755-5.766c1.106-3.835,2.026-7.72,2.728-11.642        C338.897,174.763,339.085,173.115,339.213,171.462z"/>
					</g>
					<g style="opacity:0.49;">
						<path style="fill:#DC3B3F;" d="M339.213,171.462c0.169-2.178,0.236-4.365,0.305-6.548c0.002-0.064-0.001-0.129,0-0.193        c0.001-0.03,0-0.06,0.001-0.09c0.519-7.693-3.045-16.285-15.686-19.32c-13.76-3.245-14.694,8.414-14.68,10.958        c-3.399-1.527-17.885-7.073-23.695-0.32c-2.065,2.4-2.85,4.85-2.681,7.244c0.003,0.058-0.003,0.117,0.001,0.175        c0.003,0.064-0.004,0.129,0,0.193c0.003,0.064-0.004,0.129,0,0.193c0.003,0.064-0.004,0.129,0,0.193        c0.003,0.064-0.004,0.129,0,0.193c0.003,0.064-0.004,0.129,0,0.193c0.003,0.064-0.004,0.129,0,0.193        c0.003,0.064-0.004,0.129,0,0.193c0.003,0.064-0.004,0.129,0,0.193c0.003,0.064-0.004,0.129,0,0.193        c0.003,0.064-0.004,0.129,0,0.193c0.003,0.064-0.004,0.129,0,0.193c0.003,0.064-0.004,0.129,0,0.193        c0.003,0.064-0.004,0.129,0,0.193c0.003,0.064-0.004,0.129,0,0.193c0.003,0.064-0.004,0.129,0,0.193        c0.003,0.064-0.004,0.129,0,0.193c0.003,0.064-0.004,0.129,0,0.193c0.003,0.064-0.004,0.129,0,0.193        c0.003,0.064-0.004,0.129,0,0.193c0.003,0.064-0.004,0.129,0,0.193c0.003,0.064-0.004,0.129,0,0.193        c0.003,0.064-0.004,0.129,0,0.193c0.003,0.064-0.004,0.129,0,0.193c0.003,0.064-0.004,0.129,0,0.193        c0.003,0.064-0.004,0.129,0,0.193c0.003,0.064-0.004,0.129,0,0.193c0.003,0.064-0.004,0.129,0,0.193        c0.003,0.064-0.004,0.129,0,0.193c0.003,0.064-0.004,0.129,0,0.193c0.003,0.064-0.004,0.129,0,0.193        c0.003,0.064-0.004,0.129,0,0.193c0.003,0.064-0.004,0.129,0,0.193c0.003,0.064-0.004,0.129,0,0.193        c0.003,0.064-0.004,0.129,0,0.193c0.003,0.064-0.004,0.129,0,0.193c0.003,0.064-0.004,0.129,0,0.193        c0.003,0.064-0.004,0.129,0,0.193c0.003,0.064-0.004,0.129,0,0.193c0.003,0.064-0.004,0.129,0,0.193        c0.003,0.064-0.004,0.129,0,0.193c0.003,0.064-0.004,0.129,0,0.193c0.003,0.064-0.004,0.129,0,0.193        c0.003,0.064-0.004,0.129,0,0.193c0.003,0.064-0.004,0.129,0,0.193c0.003,0.064-0.004,0.129,0,0.193        c0.003,0.064-0.004,0.129,0,0.193c0.003,0.064-0.004,0.129,0,0.193c0.003,0.064-0.004,0.129,0,0.193        c0.003,0.061-0.006,0.122-0.002,0.182c0.327,7.203,9.378,13.931,18.607,17.302c10.869,4.064,29.646,5.466,31.935,5.955        c-0.116-0.149,0.734-2.062,0.803-2.275c0.619-1.912,1.198-3.836,1.755-5.766c1.106-3.835,2.026-7.72,2.728-11.642        C338.897,174.763,339.085,173.115,339.213,171.462z"/>
					</g>
					<g>
						<g>
							<path style="fill:#FF4B4B;" d="M285.458,155.583c5.81-6.754,20.296-1.207,23.695,0.319         c-0.014-2.544,0.921-14.203,14.681-10.958c15.088,3.623,17.268,15.168,14.976,23.643c-1.826,7.76-5.409,17.381-5.492,17.273         c-2.29-0.49-21.067-1.891-31.935-5.955C289.178,175.448,277.255,165.119,285.458,155.583z"/>
						</g>
					</g>
				</g>
				<g>
					<g>
						<path style="fill:#4A1633;" d="M237.073,285.822c0.134-2.797,0.137-5.6,0.143-8.401c0-0.082-0.007-0.165-0.007-0.248        c0-0.038-0.002-0.077-0.002-0.115c0.373-9.875-4.519-20.748-20.828-24.157c-17.751-3.635-18.505,11.337-18.392,14.595        c-4.412-1.827-23.181-8.383-30.368,0.489c-2.554,3.153-3.467,6.321-3.16,9.382c0.006,0.074,0,0.15,0.007,0.224        c0.006,0.082-0.001,0.165,0.007,0.248c0.007,0.082-0.001,0.165,0.007,0.247c0.007,0.082-0.001,0.166,0.007,0.248        c0.006,0.082-0.001,0.165,0.007,0.247c0.006,0.082-0.001,0.165,0.007,0.248c0.007,0.082-0.001,0.165,0.007,0.248        c0.006,0.082-0.001,0.165,0.007,0.247c0.006,0.082-0.001,0.166,0.007,0.248c0.007,0.082-0.001,0.165,0.007,0.248        c0.006,0.082-0.001,0.165,0.007,0.248c0.006,0.082-0.001,0.165,0.007,0.248c0.006,0.082-0.001,0.165,0.007,0.247        c0.007,0.082-0.001,0.166,0.007,0.248c0.006,0.082-0.001,0.165,0.007,0.248c0.007,0.082-0.001,0.165,0.007,0.248        c0.007,0.082-0.001,0.165,0.007,0.248c0.006,0.082-0.001,0.165,0.007,0.248c0.007,0.082-0.001,0.166,0.007,0.248        c0.006,0.082-0.001,0.165,0.007,0.248c0.006,0.082-0.001,0.165,0.007,0.247c0.006,0.082-0.001,0.166,0.007,0.248        c0.007,0.082-0.001,0.165,0.007,0.247c0.007,0.082-0.001,0.166,0.007,0.248c0.006,0.082-0.001,0.165,0.007,0.248        c0.007,0.082-0.001,0.165,0.007,0.247c0.007,0.082-0.001,0.166,0.007,0.248c0.006,0.082-0.001,0.165,0.007,0.247        c0.007,0.082-0.001,0.166,0.007,0.248c0.007,0.082-0.001,0.165,0.007,0.248c0.006,0.082-0.001,0.165,0.007,0.247        c0.007,0.082-0.001,0.166,0.007,0.248c0.007,0.082-0.001,0.165,0.007,0.247c0.006,0.082-0.001,0.166,0.007,0.248        c0.006,0.082-0.001,0.165,0.007,0.248c0.007,0.082-0.001,0.165,0.007,0.248c0.006,0.082-0.001,0.165,0.007,0.248        c0.006,0.082-0.001,0.165,0.007,0.247c0.007,0.082-0.001,0.166,0.007,0.248c0.006,0.082-0.001,0.165,0.007,0.248        c0.006,0.082-0.001,0.165,0.007,0.248c0.007,0.082-0.001,0.165,0.007,0.248c0.006,0.082-0.001,0.165,0.007,0.247        c0.006,0.082-0.001,0.166,0.007,0.248c0.007,0.082-0.001,0.165,0.007,0.248c0.006,0.082-0.001,0.165,0.007,0.248        c0.006,0.082-0.001,0.165,0.007,0.248c0.006,0.082-0.001,0.165,0.007,0.247c0.006,0.082-0.001,0.166,0.007,0.248        c0.006,0.078-0.003,0.156,0.005,0.233c0.692,9.216,12.543,17.492,24.494,21.46c14.078,4.794,38.186,5.878,41.139,6.418        c-0.154-0.186,0.862-2.67,0.942-2.945c0.72-2.473,1.39-4.96,2.029-7.453c1.271-4.955,2.303-9.967,3.053-15.018        C236.793,290.063,236.971,287.945,237.073,285.822z"/>
					</g>
					<g style="opacity:0.49;">
						<path style="fill:#DC3B3F;" d="M237.073,285.822c0.134-2.797,0.137-5.6,0.143-8.401c0-0.082-0.007-0.165-0.007-0.248        c0-0.038-0.002-0.077-0.002-0.115c0.373-9.875-4.519-20.748-20.828-24.157c-17.751-3.635-18.505,11.337-18.392,14.595        c-4.412-1.827-23.181-8.383-30.368,0.489c-2.554,3.153-3.467,6.321-3.16,9.382c0.006,0.074,0,0.15,0.007,0.224        c0.006,0.082-0.001,0.165,0.007,0.248c0.007,0.082-0.001,0.165,0.007,0.247c0.007,0.082-0.001,0.166,0.007,0.248        c0.006,0.082-0.001,0.165,0.007,0.247c0.006,0.082-0.001,0.165,0.007,0.248c0.007,0.082-0.001,0.165,0.007,0.248        c0.006,0.082-0.001,0.165,0.007,0.247c0.006,0.082-0.001,0.166,0.007,0.248c0.007,0.082-0.001,0.165,0.007,0.248        c0.006,0.082-0.001,0.165,0.007,0.248c0.006,0.082-0.001,0.165,0.007,0.248c0.006,0.082-0.001,0.165,0.007,0.247        c0.007,0.082-0.001,0.166,0.007,0.248c0.006,0.082-0.001,0.165,0.007,0.248c0.007,0.082-0.001,0.165,0.007,0.248        c0.007,0.082-0.001,0.165,0.007,0.248c0.006,0.082-0.001,0.165,0.007,0.248c0.007,0.082-0.001,0.166,0.007,0.248        c0.006,0.082-0.001,0.165,0.007,0.248c0.006,0.082-0.001,0.165,0.007,0.247c0.006,0.082-0.001,0.166,0.007,0.248        c0.007,0.082-0.001,0.165,0.007,0.247c0.007,0.082-0.001,0.166,0.007,0.248c0.006,0.082-0.001,0.165,0.007,0.248        c0.007,0.082-0.001,0.165,0.007,0.247c0.007,0.082-0.001,0.166,0.007,0.248c0.006,0.082-0.001,0.165,0.007,0.247        c0.007,0.082-0.001,0.166,0.007,0.248c0.007,0.082-0.001,0.165,0.007,0.248c0.006,0.082-0.001,0.165,0.007,0.247        c0.007,0.082-0.001,0.166,0.007,0.248c0.007,0.082-0.001,0.165,0.007,0.247c0.006,0.082-0.001,0.166,0.007,0.248        c0.006,0.082-0.001,0.165,0.007,0.248c0.007,0.082-0.001,0.165,0.007,0.248c0.006,0.082-0.001,0.165,0.007,0.248        c0.006,0.082-0.001,0.165,0.007,0.247c0.007,0.082-0.001,0.166,0.007,0.248c0.006,0.082-0.001,0.165,0.007,0.248        c0.006,0.082-0.001,0.165,0.007,0.248c0.007,0.082-0.001,0.165,0.007,0.248c0.006,0.082-0.001,0.165,0.007,0.247        c0.006,0.082-0.001,0.166,0.007,0.248c0.007,0.082-0.001,0.165,0.007,0.248c0.006,0.082-0.001,0.165,0.007,0.248        c0.006,0.082-0.001,0.165,0.007,0.248c0.006,0.082-0.001,0.165,0.007,0.247c0.006,0.082-0.001,0.166,0.007,0.248        c0.006,0.078-0.003,0.156,0.005,0.233c0.692,9.216,12.543,17.492,24.494,21.46c14.078,4.794,38.186,5.878,41.139,6.418        c-0.154-0.186,0.862-2.67,0.942-2.945c0.72-2.473,1.39-4.96,2.029-7.453c1.271-4.955,2.303-9.967,3.053-15.018        C236.793,290.063,236.971,287.945,237.073,285.822z"/>
					</g>
					<g>
						<g>
							<path style="fill:#FF4B4B;" d="M167.605,267.519c7.188-8.873,25.956-2.317,30.368-0.489         c-0.114-3.258,0.641-18.231,18.392-14.595c19.466,4.069,22.697,18.776,20.083,29.721c-2.046,10.011-6.27,22.472-6.381,22.337         c-2.952-0.54-27.06-1.624-41.139-6.418C173.123,292.827,157.456,280.047,167.605,267.519z"/>
						</g>
					</g>
				</g>
				<g>
					<g>
						<path style="fill:#4A1633;" d="M317.744,257.812c0.122-2.548,0.124-5.102,0.13-7.653c0-0.075-0.006-0.15-0.007-0.226        c0-0.035-0.001-0.07-0.002-0.104c0.34-8.996-4.117-18.901-18.975-22.007c-16.171-3.312-16.859,10.328-16.755,13.296        c-4.02-1.665-21.118-7.637-27.665,0.446c-2.327,2.872-3.159,5.758-2.879,8.547c0.005,0.068,0,0.136,0.007,0.204        c0.006,0.075-0.001,0.151,0.007,0.226c0.006,0.075-0.001,0.151,0.007,0.226c0.006,0.075-0.001,0.151,0.007,0.226        c0.006,0.075-0.001,0.151,0.007,0.226c0.006,0.075-0.001,0.151,0.007,0.225c0.006,0.075-0.001,0.151,0.007,0.226        c0.006,0.075-0.001,0.151,0.007,0.226c0.006,0.075-0.001,0.151,0.007,0.226c0.006,0.075-0.001,0.151,0.007,0.226        c0.006,0.075-0.001,0.151,0.007,0.225c0.006,0.075-0.001,0.151,0.007,0.226c0.006,0.075-0.001,0.151,0.007,0.226        c0.006,0.075-0.001,0.151,0.007,0.226c0.006,0.075-0.001,0.151,0.007,0.226c0.006,0.075-0.001,0.151,0.007,0.225        c0.006,0.075-0.001,0.151,0.007,0.226c0.006,0.075-0.001,0.151,0.007,0.225c0.006,0.075-0.001,0.151,0.007,0.226        c0.006,0.075-0.001,0.151,0.007,0.226c0.006,0.075-0.001,0.151,0.007,0.225c0.006,0.075-0.001,0.151,0.007,0.226        c0.006,0.075-0.001,0.151,0.007,0.225c0.006,0.075-0.001,0.151,0.007,0.226c0.006,0.075-0.001,0.151,0.007,0.226        c0.006,0.075-0.001,0.151,0.007,0.226c0.006,0.075-0.001,0.151,0.007,0.226c0.006,0.075-0.001,0.151,0.007,0.225        c0.006,0.075-0.001,0.151,0.007,0.226c0.006,0.075-0.001,0.151,0.007,0.225c0.006,0.075-0.001,0.151,0.007,0.226        c0.006,0.075-0.001,0.151,0.007,0.226c0.006,0.075-0.001,0.151,0.007,0.226c0.006,0.075-0.001,0.151,0.007,0.226        c0.006,0.075-0.001,0.151,0.007,0.226c0.006,0.075-0.001,0.151,0.007,0.226c0.006,0.075-0.001,0.151,0.007,0.225        c0.006,0.075-0.001,0.151,0.007,0.226c0.006,0.075-0.001,0.151,0.007,0.226c0.006,0.075-0.001,0.151,0.007,0.226        c0.006,0.075-0.001,0.151,0.007,0.226c0.006,0.075-0.001,0.151,0.007,0.226c0.006,0.075-0.001,0.151,0.007,0.225        c0.006,0.075-0.001,0.151,0.007,0.226c0.006,0.075-0.001,0.151,0.007,0.225c0.006,0.075-0.001,0.151,0.007,0.226        c0.006,0.075-0.001,0.151,0.007,0.225c0.006,0.075-0.001,0.151,0.007,0.225c0.006,0.075-0.001,0.151,0.007,0.226        c0.006,0.071-0.003,0.142,0.004,0.212c0.631,8.396,11.427,15.935,22.314,19.55c12.826,4.368,34.788,5.355,37.478,5.847        c-0.14-0.17,0.785-2.432,0.858-2.683c0.656-2.253,1.266-4.519,1.849-6.79c1.158-4.514,2.098-9.08,2.781-13.682        C317.489,261.676,317.651,259.746,317.744,257.812z"/>
					</g>
					<g style="opacity:0.49;">
						<path style="fill:#DC3B3F;" d="M317.744,257.812c0.122-2.548,0.124-5.102,0.13-7.653c0-0.075-0.006-0.15-0.007-0.226        c0-0.035-0.001-0.07-0.002-0.104c0.34-8.996-4.117-18.901-18.975-22.007c-16.171-3.312-16.859,10.328-16.755,13.296        c-4.02-1.665-21.118-7.637-27.665,0.446c-2.327,2.872-3.159,5.758-2.879,8.547c0.005,0.068,0,0.136,0.007,0.204        c0.006,0.075-0.001,0.151,0.007,0.226c0.006,0.075-0.001,0.151,0.007,0.226c0.006,0.075-0.001,0.151,0.007,0.226        c0.006,0.075-0.001,0.151,0.007,0.226c0.006,0.075-0.001,0.151,0.007,0.225c0.006,0.075-0.001,0.151,0.007,0.226        c0.006,0.075-0.001,0.151,0.007,0.226c0.006,0.075-0.001,0.151,0.007,0.226c0.006,0.075-0.001,0.151,0.007,0.226        c0.006,0.075-0.001,0.151,0.007,0.225c0.006,0.075-0.001,0.151,0.007,0.226c0.006,0.075-0.001,0.151,0.007,0.226        c0.006,0.075-0.001,0.151,0.007,0.226c0.006,0.075-0.001,0.151,0.007,0.226c0.006,0.075-0.001,0.151,0.007,0.225        c0.006,0.075-0.001,0.151,0.007,0.226c0.006,0.075-0.001,0.151,0.007,0.225c0.006,0.075-0.001,0.151,0.007,0.226        c0.006,0.075-0.001,0.151,0.007,0.226c0.006,0.075-0.001,0.151,0.007,0.225c0.006,0.075-0.001,0.151,0.007,0.226        c0.006,0.075-0.001,0.151,0.007,0.225c0.006,0.075-0.001,0.151,0.007,0.226c0.006,0.075-0.001,0.151,0.007,0.226        c0.006,0.075-0.001,0.151,0.007,0.226c0.006,0.075-0.001,0.151,0.007,0.226c0.006,0.075-0.001,0.151,0.007,0.225        c0.006,0.075-0.001,0.151,0.007,0.226c0.006,0.075-0.001,0.151,0.007,0.225c0.006,0.075-0.001,0.151,0.007,0.226        c0.006,0.075-0.001,0.151,0.007,0.226c0.006,0.075-0.001,0.151,0.007,0.226c0.006,0.075-0.001,0.151,0.007,0.226        c0.006,0.075-0.001,0.151,0.007,0.226c0.006,0.075-0.001,0.151,0.007,0.226c0.006,0.075-0.001,0.151,0.007,0.225        c0.006,0.075-0.001,0.151,0.007,0.226c0.006,0.075-0.001,0.151,0.007,0.226c0.006,0.075-0.001,0.151,0.007,0.226        c0.006,0.075-0.001,0.151,0.007,0.226c0.006,0.075-0.001,0.151,0.007,0.226c0.006,0.075-0.001,0.151,0.007,0.225        c0.006,0.075-0.001,0.151,0.007,0.226c0.006,0.075-0.001,0.151,0.007,0.225c0.006,0.075-0.001,0.151,0.007,0.226        c0.006,0.075-0.001,0.151,0.007,0.225c0.006,0.075-0.001,0.151,0.007,0.225c0.006,0.075-0.001,0.151,0.007,0.226        c0.006,0.071-0.003,0.142,0.004,0.212c0.631,8.396,11.427,15.935,22.314,19.55c12.826,4.368,34.788,5.355,37.478,5.847        c-0.14-0.17,0.785-2.432,0.858-2.683c0.656-2.253,1.266-4.519,1.849-6.79c1.158-4.514,2.098-9.08,2.781-13.682        C317.489,261.676,317.651,259.746,317.744,257.812z"/>
					</g>
					<g>
						<g>
							<path style="fill:#FF4B4B;" d="M254.458,241.138c6.548-8.083,23.645-2.11,27.665-0.446         c-0.104-2.968,0.584-16.608,16.755-13.296c17.734,3.707,20.677,17.105,18.296,27.076c-1.863,9.12-5.712,20.472-5.813,20.349         c-2.689-0.492-24.652-1.479-37.477-5.847C259.485,264.194,245.213,252.551,254.458,241.138z"/>
						</g>
					</g>
				</g>
				<g>
					<g>
						<path style="fill:#4A1633;" d="M389.968,236.285c0.108-2.255,0.11-4.515,0.115-6.773c0-0.066-0.005-0.133-0.006-0.2        c0-0.031-0.001-0.062-0.001-0.092c0.301-7.962-3.643-16.728-16.793-19.477c-14.312-2.931-14.92,9.141-14.828,11.768        c-3.558-1.473-18.69-6.759-24.485,0.395c-2.059,2.542-2.796,5.096-2.548,7.564c0.005,0.06,0,0.121,0.006,0.181        c0.005,0.066-0.001,0.133,0.006,0.2c0.005,0.066-0.001,0.133,0.006,0.2c0.005,0.066-0.001,0.133,0.006,0.2        c0.005,0.066-0.001,0.133,0.006,0.2c0.005,0.066-0.001,0.133,0.006,0.2c0.005,0.066-0.001,0.133,0.006,0.2        c0.005,0.066-0.001,0.133,0.006,0.2c0.005,0.066-0.001,0.133,0.006,0.2c0.005,0.066-0.001,0.133,0.006,0.2        c0.005,0.067-0.001,0.133,0.006,0.2c0.005,0.067-0.001,0.133,0.006,0.2c0.005,0.066-0.001,0.133,0.006,0.2        c0.005,0.066-0.001,0.133,0.006,0.2c0.005,0.066-0.001,0.133,0.006,0.2c0.005,0.066-0.001,0.133,0.006,0.199        c0.005,0.067-0.001,0.134,0.006,0.2c0.005,0.066-0.001,0.133,0.006,0.2c0.005,0.066-0.001,0.133,0.006,0.2        c0.005,0.066-0.001,0.133,0.006,0.2c0.005,0.066-0.001,0.133,0.006,0.2c0.005,0.066-0.001,0.133,0.006,0.2        c0.005,0.066-0.001,0.133,0.006,0.2c0.005,0.066-0.001,0.133,0.006,0.2c0.005,0.066-0.001,0.133,0.006,0.2        c0.005,0.066-0.001,0.133,0.006,0.2c0.005,0.066-0.001,0.133,0.006,0.2c0.005,0.066-0.001,0.133,0.006,0.2        c0.005,0.066-0.001,0.133,0.006,0.2c0.005,0.066-0.001,0.133,0.006,0.2c0.005,0.066-0.001,0.133,0.006,0.199        c0.005,0.066-0.001,0.133,0.006,0.2c0.005,0.066-0.001,0.133,0.006,0.2c0.005,0.066-0.001,0.133,0.006,0.2        c0.005,0.066-0.001,0.133,0.006,0.2c0.005,0.066-0.001,0.133,0.006,0.2c0.005,0.066-0.001,0.133,0.006,0.2        c0.005,0.066-0.001,0.133,0.006,0.2c0.005,0.066-0.001,0.133,0.006,0.2c0.005,0.066-0.001,0.133,0.006,0.2        c0.005,0.066-0.001,0.133,0.006,0.2c0.005,0.066-0.001,0.133,0.006,0.2c0.005,0.066-0.001,0.133,0.006,0.2        c0.005,0.066-0.001,0.133,0.006,0.2c0.005,0.066-0.001,0.133,0.006,0.2c0.005,0.066-0.001,0.133,0.006,0.2        c0.005,0.066-0.001,0.133,0.006,0.2c0.005,0.066-0.001,0.133,0.006,0.2c0.005,0.066-0.001,0.133,0.006,0.2        c0.005,0.062-0.002,0.126,0.004,0.188c0.558,7.43,10.113,14.103,19.749,17.302c11.351,3.866,30.788,4.739,33.169,5.175        c-0.124-0.15,0.695-2.152,0.76-2.375c0.581-1.994,1.12-3.999,1.636-6.009c1.025-3.995,1.856-8.036,2.462-12.109        C389.742,239.704,389.886,237.996,389.968,236.285z"/>
					</g>
					<g style="opacity:0.49;">
						<path style="fill:#DC3B3F;" d="M389.968,236.285c0.108-2.255,0.11-4.515,0.115-6.773c0-0.066-0.005-0.133-0.006-0.2        c0-0.031-0.001-0.062-0.001-0.092c0.301-7.962-3.643-16.728-16.793-19.477c-14.312-2.931-14.92,9.141-14.828,11.768        c-3.558-1.473-18.69-6.759-24.485,0.395c-2.059,2.542-2.796,5.096-2.548,7.564c0.005,0.06,0,0.121,0.006,0.181        c0.005,0.066-0.001,0.133,0.006,0.2c0.005,0.066-0.001,0.133,0.006,0.2c0.005,0.066-0.001,0.133,0.006,0.2        c0.005,0.066-0.001,0.133,0.006,0.2c0.005,0.066-0.001,0.133,0.006,0.2c0.005,0.066-0.001,0.133,0.006,0.2        c0.005,0.066-0.001,0.133,0.006,0.2c0.005,0.066-0.001,0.133,0.006,0.2c0.005,0.066-0.001,0.133,0.006,0.2        c0.005,0.067-0.001,0.133,0.006,0.2c0.005,0.067-0.001,0.133,0.006,0.2c0.005,0.066-0.001,0.133,0.006,0.2        c0.005,0.066-0.001,0.133,0.006,0.2c0.005,0.066-0.001,0.133,0.006,0.2c0.005,0.066-0.001,0.133,0.006,0.199        c0.005,0.067-0.001,0.134,0.006,0.2c0.005,0.066-0.001,0.133,0.006,0.2c0.005,0.066-0.001,0.133,0.006,0.2        c0.005,0.066-0.001,0.133,0.006,0.2c0.005,0.066-0.001,0.133,0.006,0.2c0.005,0.066-0.001,0.133,0.006,0.2        c0.005,0.066-0.001,0.133,0.006,0.2c0.005,0.066-0.001,0.133,0.006,0.2c0.005,0.066-0.001,0.133,0.006,0.2        c0.005,0.066-0.001,0.133,0.006,0.2c0.005,0.066-0.001,0.133,0.006,0.2c0.005,0.066-0.001,0.133,0.006,0.2        c0.005,0.066-0.001,0.133,0.006,0.2c0.005,0.066-0.001,0.133,0.006,0.2c0.005,0.066-0.001,0.133,0.006,0.199        c0.005,0.066-0.001,0.133,0.006,0.2c0.005,0.066-0.001,0.133,0.006,0.2c0.005,0.066-0.001,0.133,0.006,0.2        c0.005,0.066-0.001,0.133,0.006,0.2c0.005,0.066-0.001,0.133,0.006,0.2c0.005,0.066-0.001,0.133,0.006,0.2        c0.005,0.066-0.001,0.133,0.006,0.2c0.005,0.066-0.001,0.133,0.006,0.2c0.005,0.066-0.001,0.133,0.006,0.2        c0.005,0.066-0.001,0.133,0.006,0.2c0.005,0.066-0.001,0.133,0.006,0.2c0.005,0.066-0.001,0.133,0.006,0.2        c0.005,0.066-0.001,0.133,0.006,0.2c0.005,0.066-0.001,0.133,0.006,0.2c0.005,0.066-0.001,0.133,0.006,0.2        c0.005,0.066-0.001,0.133,0.006,0.2c0.005,0.066-0.001,0.133,0.006,0.2c0.005,0.066-0.001,0.133,0.006,0.2        c0.005,0.062-0.002,0.126,0.004,0.188c0.558,7.43,10.113,14.103,19.749,17.302c11.351,3.866,30.788,4.739,33.169,5.175        c-0.124-0.15,0.695-2.152,0.76-2.375c0.581-1.994,1.12-3.999,1.636-6.009c1.025-3.995,1.856-8.036,2.462-12.109        C389.742,239.704,389.886,237.996,389.968,236.285z"/>
					</g>
					<g>
						<g>
							<path style="fill:#FF4B4B;" d="M333.958,221.528c5.795-7.154,20.927-1.868,24.485-0.395         c-0.092-2.627,0.517-14.699,14.828-11.768c15.695,3.281,18.3,15.139,16.192,23.963c-1.649,8.071-5.056,18.118-5.144,18.01         c-2.38-0.436-21.818-1.309-33.169-5.175C338.407,241.933,325.776,231.628,333.958,221.528z"/>
						</g>
					</g>
				</g>
			</g>
		</g>
	</g>
</g>















</svg>
