<svg height="512" viewBox="0 0 512 512" width="512" xmlns="http://www.w3.org/2000/svg" xmlns:xlink="http://www.w3.org/1999/xlink"><clipPath id="clip-path"><path d="m367.63 204.33q-42.31 47.55-84.63 95.11l-114.49-63.24 25.55 221.8a18.47 18.47 0 0 0 21.53 16.08l163.79-28.69a15.94 15.94 0 0 0 13.09-17.46z"/></clipPath><g id="Chocolate"><path d="m384.47 438.08-204.32 39.78c-5.73 1.11-10.87-2.3-11.46-7.63l-46.87-424.23c-.59-5.33 3.69-9.78 9.52-9.94l208.08-5.78a9.85 9.85 0 0 1 9.93 8.59l42.93 388.68a9.84 9.84 0 0 1 -7.81 10.53z" fill="#6e3d1e"/><path d="m191.74 447-42.34-383.35c-.9-8.13 4.55-14.95 12.14-15.23l174.82-6.31c6.64-.24 12.66 5.69 13.5 13.24l39.32 356c.83 7.55-3.75 14.65-10.28 15.87l-172 32c-7.45 1.35-14.26-4.12-15.16-12.22z" fill="#834a27"/><path d="m252.3 146.64-63.78 3.9c-5.79.36-11-3.68-11.58-9l-6.94-62.54c-.59-5.33 3.67-9.76 9.49-9.9l64-1.49c5.45-.12 10.31 3.93 10.87 9.05l6.65 60.12c.64 5.11-3.28 9.53-8.71 9.86z" fill="#6e3d1e"/><path d="m248 140c-.48.06 2.57-.12-45.38 2.49a12 12 0 0 1 -12.55-10.49l-5-45.67a10.7 10.7 0 0 1 10.59-11.91l44.92-1.14a12 12 0 0 1 12 10.47l4.9 44.36a10.61 10.61 0 0 1 -9.48 11.89z" fill="#834a27"/><path d="m346 140.91-58.12 3.56a10 10 0 0 1 -10.58-8.62l-6.62-59.65a8.52 8.52 0 0 1 8.59-9.43l58.36-1.35a9.93 9.93 0 0 1 10 8.65l6.34 57.43a8.42 8.42 0 0 1 -7.97 9.41z" fill="#6e3d1e"/><path d="m338.69 135.05-40.79 2.22a11.34 11.34 0 0 1 -11.81-10.15l-4.81-43.56a10.24 10.24 0 0 1 9-11.51c.67-.07-2.16 0 41.83-1.09a11.48 11.48 0 0 1 11.37 10.17l4.68 42.37a10.17 10.17 0 0 1 -9.47 11.55z" fill="#834a27"/><path d="m262.72 240.88-63.47 6.78c-5.77.62-10.94-3.2-11.53-8.53l-6.91-62.55c-.59-5.33 3.65-10 9.44-10.37l63.75-4.36a10.08 10.08 0 0 1 10.83 8.6l6.64 60.12a9.53 9.53 0 0 1 -8.75 10.31z" fill="#6e3d1e"/><path d="m213.46 239.15a11.54 11.54 0 0 1 -12.67-10.08l-5-45.67a11 11 0 0 1 10.17-12.24l44.88-3.25a11.54 11.54 0 0 1 12.16 10.09l4.9 44.36a11.08 11.08 0 0 1 -9.79 12.22z" fill="#834a27"/><path d="m355.92 230.93-57.84 6.18a9.47 9.47 0 0 1 -10.53-8.19l-6.55-59.65a9 9 0 0 1 8.54-9.85l58.08-4a9.4 9.4 0 0 1 9.92 8.25l6.34 57.43a8.88 8.88 0 0 1 -7.96 9.83z" fill="#6e3d1e"/><path d="m308.27 229.53a11 11 0 0 1 -11.95-9.81l-4.81-43.57a10.65 10.65 0 0 1 9.56-11.86l40.93-2.95a11 11 0 0 1 11.51 9.85l4.68 42.38a10.61 10.61 0 0 1 -9.2 11.83z" fill="#834a27"/><path d="m273.13 335.13-63.13 9.65c-5.73.88-10.88-2.73-11.47-8.06l-6.91-62.55c-.59-5.33 3.63-10.18 9.39-10.84l63.42-7.24a9.54 9.54 0 0 1 10.77 8.16l6.64 60.12a10.08 10.08 0 0 1 -8.71 10.76z" fill="#6e3d1e"/><path d="m223.88 335.9a11 11 0 0 1 -12.37-9.76l-5-45.67a11.54 11.54 0 0 1 10.17-12.6l44.44-5.31a11.13 11.13 0 0 1 12.33 9.77l4.9 44.36a11.54 11.54 0 0 1 -9.69 12.55c-57.38 8.54-42.12 6.36-44.78 6.66z" fill="#834a27"/><path d="m365.86 321-57.54 8.79a9 9 0 0 1 -10.49-7.79l-6.59-59.66a9.47 9.47 0 0 1 8.5-10.28l57.78-6.6a8.89 8.89 0 0 1 9.87 7.84l6.35 57.44a9.4 9.4 0 0 1 -7.88 10.26z" fill="#6e3d1e"/><path d="m318.23 321.83a10.67 10.67 0 0 1 -11.68-9.52l-4.81-43.56a11 11 0 0 1 9.52-12.18l40.49-4.84a10.64 10.64 0 0 1 11.66 9.53l4.68 42.37a11 11 0 0 1 -9.09 12.13c-53.2 7.93-38 5.76-40.77 6.07z" fill="#834a27"/><path d="m283.54 429.37-62.84 12.53c-5.7 1.14-10.83-2.26-11.42-7.59l-6.91-62.54c-.59-5.33 3.6-10.4 9.34-11.32l63.1-10.11c5.36-.86 10.15 2.59 10.72 7.71l6.64 60.12c.57 5.13-3.29 10.14-8.63 11.2z" fill="#6e3d1e"/><path d="m234.19 432.68a10.67 10.67 0 0 1 -11.95-9.47l-5.05-45.67a12 12 0 0 1 10-12.93l44.21-7.4a10.63 10.63 0 0 1 12.46 9.41l4.9 44.36a12 12 0 0 1 -9.47 12.86c-47.29 9.31-44.36 8.75-45.1 8.84z" fill="#834a27"/><path d="m375.8 411-57.25 11.41a8.51 8.51 0 0 1 -10.44-7.32l-6.58-59.65a10 10 0 0 1 8.47-10.74l57.49-9.22a8.42 8.42 0 0 1 9.83 7.44l6.35 57.44a9.94 9.94 0 0 1 -7.87 10.64z" fill="#6e3d1e"/><path d="m328.1 414.16a10.22 10.22 0 0 1 -11.32-9.25l-4.78-43.56a11.35 11.35 0 0 1 9.32-12.49l40.45-6.76a10.18 10.18 0 0 1 11.63 9.22l4.6 42.37a11.5 11.5 0 0 1 -8.88 12.42c-42.8 8.44-40.33 7.98-41.02 8.05z" fill="#834a27"/><path d="m283 299.44-114.4-63.19-25.3 4.05 25.36 229.63a11.6 11.6 0 0 0 13.72 10.07l200.71-38.8a11.57 11.57 0 0 0 9.31-12.63l-24.77-224.24q-42.33 47.55-84.63 95.11z" fill="#6d5fde"/><path d="m367.63 204.33q-42.31 47.55-84.63 95.11l-114.49-63.24 25.55 221.8a18.47 18.47 0 0 0 21.53 16.08l163.79-28.69a15.94 15.94 0 0 0 13.09-17.46z" fill="#917eec"/><g clip-path="url(#clip-path)" fill="#fff"><path d="m349.22 141.35c-6.81.76-4.63 11.19 2.14 10.44s4.64-11.18-2.14-10.44z"/><path d="m398.1 182.62c-14.5 1.6-9.87 23.82 4.57 22.22s9.87-23.84-4.57-22.22z"/><path d="m358.19 222.53c-6.81.76-4.64 11.19 2.14 10.44s4.67-11.18-2.14-10.44z"/><path d="m407.07 263.8c-14.5 1.6-9.87 23.82 4.57 22.22s9.86-23.82-4.57-22.22z"/><path d="m367.15 303.71c-6.8.76-4.63 11.19 2.15 10.44s4.63-11.15-2.15-10.44z"/><path d="m416 345c-14.5 1.6-9.87 23.82 4.56 22.22s9.91-23.84-4.56-22.22z"/><path d="m376.12 384.89c-6.81.76-4.63 11.19 2.14 10.44s4.64-11.19-2.14-10.44z"/><path d="m425 426.16c-14.5 1.6-9.87 23.82 4.57 22.22s9.87-23.82-4.57-22.22z"/><path d="m385.09 466.07c-6.81.76-4.64 11.19 2.14 10.44s4.64-11.19-2.14-10.44z"/><path d="m434 507.34c-14.5 1.6-9.87 23.82 4.57 22.22s9.84-23.82-4.57-22.22z"/><path d="m256.06 151.65c-6.81.75-4.63 11.18 2.15 10.43s4.63-11.18-2.15-10.43z"/><path d="m304.94 192.91c-14.49 1.6-9.86 23.82 4.57 22.22s9.87-23.82-4.57-22.22z"/><path d="m265 232.82c-6.81.76-4.63 11.19 2.14 10.44s4.67-11.18-2.14-10.44z"/><path d="m313.91 274.09c-14.5 1.6-9.87 23.82 4.57 22.22s9.87-23.82-4.57-22.22z"/><path d="m274 314c-6.81.76-4.64 11.19 2.14 10.44s4.63-11.18-2.14-10.44z"/><path d="m322.88 355.27c-14.5 1.6-9.87 23.82 4.57 22.22s9.87-23.82-4.57-22.22z"/><path d="m283 395.18c-6.8.76-4.63 11.19 2.15 10.44s4.59-11.18-2.15-10.44z"/><path d="m331.85 436.45c-14.5 1.6-9.87 23.82 4.56 22.22s9.87-23.82-4.56-22.22z"/><path d="m291.93 476.36c-6.81.76-4.63 11.19 2.15 10.44s4.63-11.19-2.15-10.44z"/><path d="m162.91 161.94c-6.81.75-4.64 11.18 2.14 10.43s4.63-11.18-2.14-10.43z"/><path d="m211.79 203.2c-14.5 1.6-9.87 23.82 4.56 22.22s9.87-23.82-4.56-22.22z"/><path d="m171.87 243.11c-6.8.76-4.63 11.19 2.15 10.44s4.63-11.18-2.15-10.44z"/><path d="m220.76 284.38c-14.5 1.6-9.87 23.82 4.56 22.22s9.87-23.82-4.56-22.22z"/><path d="m180.84 324.29c-6.81.76-4.63 11.19 2.14 10.44s4.64-11.18-2.14-10.44z"/><path d="m229.72 365.56c-14.5 1.6-9.87 23.82 4.57 22.22s9.87-23.78-4.57-22.22z"/><path d="m189.81 405.47c-6.81.76-4.64 11.19 2.14 10.44s4.64-11.18-2.14-10.44z"/><path d="m238.69 446.74c-14.5 1.6-9.87 23.82 4.57 22.22s9.87-23.82-4.57-22.22z"/><path d="m198.77 486.65c-6.8.76-4.63 11.19 2.15 10.44s4.63-11.18-2.15-10.44z"/><path d="m96.65 415.76c-6.81.76-4.63 11.19 2.14 10.44s4.64-11.2-2.14-10.44z"/><path d="m145.53 457c-14.5 1.6-9.87 23.82 4.57 22.22s9.9-23.79-4.57-22.22z"/></g><path d="m163.51 249s8.08-4.79 12.28 8.89 79.94 76.89 86.54 78.93 19.54-8.82 26.67-4.93 11.62 1.41 12 12.47-.87 28.05 5.78 51.56 6.74 61 6.74 61l8.74-1.53s-6.58-15.64-7-29.52-7-43.69-7-43.69-2.16-28.69-3-39.83-9.9-25.63-19-34.4 8.59-.86 20.15 4.38 26.76 18.45 32.79 12.67 14.57-33 14.79-51.51 18.89-32 14.33-51.08l-34.9 50.2-23.55 25.29-19.25-.57-17 7.6-53.59-30.81-39-31s-14.36-3.41-17.52 5.88z" fill="#6d5fde"/><path d="m367.63 204.33s-87.84 92.54-89.11 99.42 16.54-.71 32.61 2.46 21.13 16.52 30.4 2.93-.09-32.79 14.31-57 22.22-48.52 11.79-47.81z" fill="#d7981a"/><path d="m143.29 240.3a18.48 18.48 0 0 0 13.83 9.06c10 1.36 16.39-8.1 22.77 2.87s51.51 49.31 64.89 68 22.28 21.93 32.16 9.77 21.44 7 21.87.77 2.53-14.9-22.6-37.54-97.81-58.61-107.94-58.84-27.84 2.2-24.98 5.91z" fill="#efbd42"/><path d="m275.12 349.22a26.79 26.79 0 0 0 -18.36 4.46s-10.53 7.5-11.59 23.12c-1.3 19.28 23.62 41.57 61.62 54.83 7.94-3.79 22.08-12.1 31.55-28.41 2.76-4.74 18-30.94 5.69-49.12-.4-.59-10.24-14.66-25.31-12.7-10.81 1.41-20.06 10.43-22.75 22.72-.64-1.21-7.17-13.12-20.85-14.9z" fill="#6d5fde"/><path d="m279.88 351.32a24.83 24.83 0 0 0 -17.19 4.18s-9.87 7-10.86 21.66c-1.22 18 22.13 38.93 57.72 51.34a73.19 73.19 0 0 0 28.56-27.44c3.69-6.43 16.72-29.11 6.32-45.17-4.17-6.44-13.17-13.46-23.71-11.89-10 1.48-18.42 10.24-20.46 21.91-.81-1.15-9.58-13.27-20.38-14.59z" fill="#e73f46"/><path d="m317.65 351.06c11.62-4.51 24.09 1.79 23.61 14.91-3.75-9.97-13.16-15.43-23.61-14.91z" fill="#eaeaea"/><ellipse cx="342.04" cy="372.95" fill="#eaeaea" rx="1.42" ry="2.73" transform="matrix(.994 -.11 .11 .994 -38.88 39.81)"/><g fill="#955d43"><path d="m336.33 79.14s-11.09 41.86-42.12 49.55c0 0 39.11.4 43.7-4.82s-1.58-44.73-1.58-44.73z"/><path d="m346.27 169.07s-11.09 41.86-42.13 49.55c0 0 39.11.4 43.7-4.82s-1.57-44.73-1.57-44.73z"/><path d="m252.62 177.16s-11.09 41.84-42.12 49.55c0 0 39.11.4 43.69-4.82s-1.57-44.73-1.57-44.73z"/><path d="m244.05 81.25s-11.05 41.86-42.12 49.55c0 0 39.1.39 43.69-4.83s-1.57-44.72-1.57-44.72z"/></g></g></svg>