<svg height="512" viewBox="0 0 500 500" width="512" xmlns="http://www.w3.org/2000/svg"><g id="圖層_5" data-name="圖層 5"><path d="m182.5 285.74s-43.36-114-114.17-103.16a32.44 32.44 0 0 0 -9.95 3.28c-9.43 4.85-26.83 17-15.09 36.59 0 0 8.69 11 20.12 10.56 0 0-5.72 7.36-1.18 18 0 0 4.6 8.5 17.1 6.89 0 0-2.75 16.05 12.23 16.87 0 0 5.49 15.47 18.25 14.6 2.22-.15 4.43-.35 6.65-.38 10.86-.12 37.94.28 46.21 6.94z" fill="#bde3f7"/><path d="m79 216.3s-3.55 18.12 11.61 19.7c0 0-1.66 18.16 12.36 17.68 0 0 0 14.54 11.55 15.7 0 0-16.34 2.7-13.82-13.29 0 0-16.31-1.17-13-18-.05.06-13.08-1.89-8.7-21.79z" fill="#8fd3f5"/><path d="m222.24 295.56s-33.6-50.21-37.77-105.15c-2.56-33.76-11.4-66.4-45.57-75.17a41.93 41.93 0 0 0 -13.49-1.14c-13.65 1-40.45 6.59-36.43 35.81 0 0 4.76 17.4 18.53 22.73 0 0-10.51 5.84-10.51 20.77 0 0 1.16 12.43 16.81 16.85 0 0-11.39 17.67 6 26.23 0 0-1.32 21.14 14.28 26.57 2.7.95 5.43 1.83 8.08 2.92 13 5.36 44.92 19.55 51.36 31.65z" fill="#dff2fc"/><path d="m134.54 160.71s-13.43 19.7 3.74 29.3c0 0-11.17 20.72 5.72 27.25 0 0-7.41 17.25 5.77 24.49 0 0-20.77-5.05-9.69-22.77 0 0-18.77-9.66-6.38-28 0 .02-14.49-8.88.84-30.27z" fill="#8fd3f5"/><path d="m224.27 278.38s79.66 52.15 96.25 77.23c0 0 2 5 1.4 13.24a4.83 4.83 0 0 0 2 4.36c1.6 1.1 3.89 1.24 6.17-3.55l2.72-7.36s7.35 3.08 6.84 11.1a4.09 4.09 0 0 0 3.94 4.48c1.53 0 3-.89 3.48-3.81a22.82 22.82 0 0 0 -7.69-16.79 55.12 55.12 0 0 1 8.59 11.45 2.67 2.67 0 0 0 3.68 1.12c.83-.51 1.46-1.57 1.23-3.68 0 0-4.2-11.09-8.52-14.37a98.07 98.07 0 0 1 8.24 8.76c1.81 2.34 5.66.38 4.71-2.43-.06-.2-.14-.4-.22-.6 0 0-5.05-7.8-12.5-10.09 0 0 5.35 2 9.07 3.79a2.27 2.27 0 0 0 3.06-3 11 11 0 0 0 -2.72-3.23s-11.23-7.41-20-7.64c0 0-43.23-66.47-83.5-78.59 0-.04-25.09-5.02-26.23 19.61z" fill="#f5c898"/><path d="m153.72 353.27a27.54 27.54 0 0 1 1.18-14.93c6.61-17.8 28.63-24 44.22-13.16 7.77 5.39 16.08 14.73 23.21 30.71 0 0 12.33 25.22 14.41 76.62 0 0 11.43-3.84 20.75-2.62a10.63 10.63 0 0 1 9.26 12.3 5.42 5.42 0 0 1 -3 4.36s-16.6 11.46-31.56 21.17a14.91 14.91 0 0 1 -18.32-1.4c-4.67-4.41-4-10-12.11-26.6l-11.07-27.45a128.18 128.18 0 0 0 -24.22-38.52l-6.14-6.75a31 31 0 0 1 -6.61-13.73z" fill="#f5c898"/><path d="m249.45 377.62c-35.07 31.27-96.2 31.85-117.81 16-46.79-34.3-36.81-97.62 8.17-111.2 72.76-22 100.28-60.86 127.58-31.12 23.4 25.5 32.48 81.35-17.94 126.32z" fill="#fcdcb7"/><circle cx="253.36" cy="150.35" fill="#ffb700" r="100.11"/><path d="m168.71 207.75a23.62 23.62 0 0 0 12.37 31c12 5.15 33.6 3.08 38.75-8.9s-8.11-29.35-20.1-34.5a23.61 23.61 0 0 0 -31.02 12.4z" fill="#fcedd0"/><path d="m395.21 150.44c1.28 10.82 22.65 104.94-72.13 123-32.36 6.16-62.85 4.27-88.61-9.19-34-17.78-33.32-36.53-38.18-59.13-11.21-52.12 14-97.52 69.79-114.9s122.37 2.94 129.13 60.22z" fill="#fcedd0"/><g fill="#ffb700"><ellipse cx="204.96" cy="162.35" rx="35.59" ry="42" transform="matrix(.981 -.195 .195 .981 -27.66 42.96)"/><ellipse cx="269.72" cy="120.35" rx="48.75" ry="42"/><ellipse cx="283.77" cy="74.09" rx="59.5" ry="42"/><ellipse cx="348.79" cy="94.24" rx="48.75" ry="42"/><ellipse cx="219.5" cy="119.48" rx="33.86" ry="25.25"/><ellipse cx="231.14" cy="44.95" rx="16.71" ry="10.92" transform="matrix(.555 -.832 .832 .555 65.47 212.28)"/><ellipse cx="210.06" cy="57.25" rx="10.92" ry="16.71" transform="matrix(.35 -.94 .94 .35 83.58 234.47)"/></g><path d="m153.94 277.76q-6.78 2.42-14.13 4.66c-45 13.59-55 76.9-8.17 111.21 18.37 13.47 65.3 15.05 100.5-4-35.14-31.84-62.98-81.13-78.2-111.87z" fill="#fff"/><path d="m166.17 333.77c18.76 8.74 21.38 58 9 73.06-6.19 7.48-25 35.12-84.4 33.13 0 0 2.94 12 .9 21.45a10.93 10.93 0 0 1 -13.4 8.43c-1.92-.53-3.57-1.56-4.19-3.44 0 0-10.31-18-19-34.12a15.35 15.35 0 0 1 3-18.64c4.91-4.39 10.58-3.27 28.26-10.1l29.05-9c21.06-5.12-5.23-31.26 7.4-50.22 0 .04 18.09-22.32 43.38-10.55z" fill="#fcedd0"/><path d="m140.74 282.13-.93.29c-43.1 13-54.06 71.7-13.72 106.77-33.38-36.46-23.63-89.72 14.65-107.06z" fill="#efefef"/><path d="m300.19 412.92c-8.46-8.66-16.11-22.17-22.72-40.14a219.54 219.54 0 0 1 -7.41-24.41l-.25-1.15 55.26-40.31 2.12 2.9-53.35 38.91c1.69 6.94 11.32 43.68 28.92 61.69z" fill="#898989"/><path d="m312.3 296.91h3.59v123.07h-3.59z" fill="#ff578b" transform="matrix(.206 -.979 .979 .206 -101.41 591.88)"/><path d="m272.6 349.56-19.45-4.1-10.67-13.95 23.9 5.04z" fill="#ff578b"/><path d="m272.57 349.69-19.45-4.1-15.39 8.47 23.9 5.03z" fill="#ff578b"/><path d="m395.6 376.32s-6.83 7.07-15.63 10.46c-10.5 4-23.23 3.92-22.44-4.61 0 0 0-11.47 17-9.91 0 0-16.41-9.26-9.35-18.61a7 7 0 0 1 4.76-2.73c5.35-.58 12.06 2.26 25.66 25.4z" fill="#ff578b"/><path d="m240.31 284c-1.31 6.55-3.75 12.77-4.57 18.14-3.24 21.16 17.26 33.49 22.93 35.86 4.59 1.91 9.39.39 14.31-.3a14.59 14.59 0 0 1 6.8.9c2.13.75 6.7.33 9 2.31 0 0 4.63 7.84-8.69 6.63 0 0 6.81 4.88 9.08 3.54 0 0-1.63-2.74.74-3.23 0 0 3.72-.66 4.23 4 0 0-.46 8-7.89 8.07 0 0 .1 3.1-1.59 4.6 0 0-1.54 3.3-3 4.17 0 0-3.06 4.9-6.68 4.51a32.08 32.08 0 0 1 -11.78-6.2c-4.27-3.62-41.63-5.39-58.93-31.31-8.68-13-15.07-34-6-59a22.75 22.75 0 0 1 22.73-13.63c16.31.83 20.16 16.64 19.31 20.94z" fill="#fcedd0"/><path d="m339.6 211.7a2.56 2.56 0 0 1 3.42 3.05 14 14 0 0 1 -7.15 8.78c-7.13 3.38-13.39.75-16.91-4.07a2.56 2.56 0 0 1 2.09-4.05 48 48 0 0 0 17.65-3.36z" fill="#9d1f49"/><path d="m367 145c0 1.84-4.62 1.41-10.32 1.41s-10.32.42-10.32-1.43 4.62-5.25 10.32-5.25 10.32 3.45 10.32 5.27z" fill="#f1991b"/><path d="m277.22 162.2c.61 1.74 4.83-.18 10.21-2.07s9.88-3 9.27-4.75-6.09-3.44-11.47-1.55-8.62 6.63-8.01 8.37z" fill="#f1991b"/><ellipse cx="283.18" cy="219.82" fill="#ffbeb9" rx="13.42" ry="9.05" transform="matrix(.993 -.119 .119 .993 -24.21 35.36)"/><ellipse cx="374.02" cy="201.78" fill="#ffbeb9" rx="13.42" ry="9.05" transform="matrix(.993 -.119 .119 .993 -21.4 46.07)"/><circle cx="357.42" cy="186.58" fill="#00a29a" r="6.07"/><circle cx="295.91" cy="197.27" fill="#00a29a" r="6.07"/><path d="m405.44 281.23s-12.05-36.05 1.61-34c0 0 10 .76 8.24 12.71 0 0 9.51-12.35 17.87-4.28 0 0 12.32 7.45-27.72 25.57z" fill="#ff578b"/><path d="m444 228.12s-14.46-20.8-4.73-21.74c0 0 7-1.13 7.74 6.33 0 0 4.53-8.91 11.6-5.4.02 0 10.01 3.61-14.61 20.81z" fill="#ff578b"/><path d="m429.24 318.1s-8.69-31.66 3.61-28.6c0 0 9.06 1.65 6.72 11.06 0 0 9.38-8.92 16.5-1.58 0 .02 10.64 8.71-26.83 19.12z" fill="#ff578b"/><path d="m353.11 307.05a18.56 18.56 0 0 0 -9.93-9.89c-14.17-5.73-23.8 4.78-26.89 11.11a10.82 10.82 0 0 0 -.75 7.74 8.11 8.11 0 0 0 4.36 4.71 11.78 11.78 0 0 0 10.73-.55c4.72-2.61 6.6-6.6 5.32-11a5.49 5.49 0 0 1 3.29.13c1.53.43 3.26.93 4.4 4.93.22 2.4 1.81 23.49-9.3 31.7a28.48 28.48 0 0 0 -6.68 6.66c-5.28 7.65-6 13.43-3.16 25.74v.12c0 .16 4.25 15.76-.6 27.22a13.33 13.33 0 0 1 -16.32 7.55 9.81 9.81 0 0 1 -.92-.35 8.75 8.75 0 0 0 3.61-3.6 7.55 7.55 0 0 0 -.31-7.06 3.47 3.47 0 0 0 -.37-.57c-2.34-2.8-8.52-6.9-15.13-2.38a1.81 1.81 0 0 0 -.23.18c-2.42 2-5.55 8-.06 16 5.21 7.6 11.87 9.26 16.54 9.32h.29c7.72 0 15.92-4.46 20.93-11.42 8.69-12 6.51-29.62 4.14-37.24-2.78-8.95 0-13.17 3.13-18.07.26-.41.53-.82.79-1.24a35.35 35.35 0 0 1 5.61-6.6c16.69-15.86 10.81-35.45 7.51-43.14z" fill="#63c4bf"/></g></svg>