<svg enable-background="new 0 0 512 512" height="512" viewBox="0 0 512 512" width="512" xmlns="http://www.w3.org/2000/svg"><g id="Layer_31" display="none"><g display="inline"><g fill="none" stroke-miterlimit="10"><g stroke="#b3b3b3"><ellipse cx="256" cy="256" rx="248.1" ry="248.3"/><path d="m398.8 504.5h-285.6c-18.8 0-34.1-15.3-34.1-34.1v-428.8c0-18.8 15.3-34.1 34.1-34.1h285.5c18.8 0 34.1 15.3 34.1 34.1v428.9c.1 18.8-15.2 34-34 34z"/><path d="m7.9 399.8v-287.6c0-16.4 13.3-29.8 29.8-29.8h436.7c16.4 0 29.8 13.3 29.8 29.8v287.6c0 16.4-13.3 29.8-29.8 29.8h-436.8c-16.4 0-29.7-13.4-29.7-29.8z"/><path d="m440.4 469.9h-368.8c-16.4 0-29.8-13.3-29.8-29.8v-368.2c0-16.4 13.3-29.8 29.8-29.8h368.8c16.4 0 29.8 13.3 29.8 29.8v368.2c0 16.4-13.4 29.8-29.8 29.8z"/></g><path d="m7.5 7.5h497v497h-497z" stroke="#ed1c24" transform="matrix(0 1 -1 0 512 0)"/></g></g></g><g id="Layer_32"><g><g><path d="m45.3 440.7c-25 0-45.3-20.2-45.3-45.2v-279c0-25 20.4-45.3 45.3-45.3h421.5c24.9 0 45.3 20.3 45.3 45.3v278.9c0 25-20.3 45.3-45.3 45.3z" fill="#fff"/><g><g><g><g><g><g><g><path d="m30.8 98.4c-5.6 4.8-9.1 11.9-9.1 19.9v275.4c0 7.9 3.5 15.1 9.1 19.9l225.2-157.6z" fill="#e1effb"/><path d="m30.8 413.6c4.6 4 10.6 6.4 17.1 6.4 430.3-2.4 419.2 5.8 433.3-6.4l-225.2-157.6z" fill="#c3d6e2"/><path d="m481.2 98.4-225.2 157.6 225.2 157.6c5.6-4.8 9.1-11.9 9.1-19.9v-275.4c0-7.9-3.5-15.1-9.1-19.9z" fill="#e1effb"/></g><path d="m490.3 393.7v-275.4c0-14.5-11.8-26.2-26.2-26.2h-13.9c.1 49.5-1.3 127.1-10.8 164-14.5 56.6 14.9 103.8-41.2 121.2s-174.9 10.7-225.7 16.5c-37 4.2-112.5-9.3-150.8-16.9v16.8c0 14.5 11.8 26.2 26.2 26.2h416.1c14.5.1 26.3-11.7 26.3-26.2z" fill="#baced8"/></g><path d="m481.2 98.4c-4.6-4-10.6-6.4-17.1-6.4-430.3 2.5-419.2-5.7-433.3 6.4l212.3 222.7c7 7.3 18.7 7.3 25.7 0z" fill="#ccdeea"/></g><path d="m262.8 376.7s-87.2-54.4-77.3-102.6c7.1-34.8 38.1-45.3 57.3-41.4 21.4 4.4 25.5 18.5 25.5 18.5s17.4-23.9 52.8-18.9 49 53.4 18.4 86.8-76.7 57.6-76.7 57.6z" fill="#baced8"/><g><path d="m249.7 361.9s-87.2-54.4-77.3-102.6c7.1-34.8 38.1-45.3 57.3-41.4 21.4 4.4 25.5 18.5 25.5 18.5s17.4-23.9 52.8-18.9 49 53.4 18.4 86.8-76.7 57.6-76.7 57.6z" fill="#ed1b25"/><g><path d="m308 217.4c-13.7-1.9-24.7.5-33.1 4.1.6.1 1.2.1 1.8.2 35.4 5 46.7 51.4 18.4 86.8-13.1 16.4-29.9 36.3-43.7 52.3 8.6-4.7 47.8-27 74.9-56.7 30.7-33.3 17-81.7-18.3-86.7z" fill="#e0192d"/></g><path d="m253.2 246.1s-21.6-20.9-44.2-15.4-31 36.8-21.9 53.2 60.3 67.4 60.3 67.4-20.6-48.1-11-62.4c3.6-5.3 9-10.3 14.3-14.3 8.9-6.8 10.2-19.8 2.7-28.2z" fill="#f4344f"/><g fill="#fff"><path d="m197.1 245.7c-1.9.4-3.2-1.9-1.8-3.3 4.3-4.5 12.1-11.4 19.7-12.6 11.4-1.9 9.7-1.3 10.8 1.3.9 2.2-16.8 11.9-28.7 14.6z"/><path d="m189.1 249.2s-6.3 6.5-7.8 15.3c-1.6 8.8 8.9-3.3 11.1-9.1 2.1-5.9-.5-7.5-3.3-6.2z"/></g></g></g><path d="m63.5 104.4h375.3s-160.6 41.3-199.3 40-63-11.6-67.9 21.3-32.8 24.5-32.8 24.5-74.7-76.1-75.3-85.8z" fill="#ccdeea"/><path d="m35.1 259.8s-5-133.2 2.3-129.8 53.2 50.4 53.2 61.1-32.9-26.8-37.4 0-18.1 68.7-18.1 68.7z" fill="#fff"/></g></g><path d="m484.7 96.8c-.5-.4-5.4-6.9-15.4-8.8-2.4-.5-5-.5-5.2-.5-.1 0-2.8 0-2.7 0-352.2.8-413.8 1-413.6 1-7.3.4-14.1 2.2-19.6 7-6.2 5.3-10.3 13.2-10.4 22.8 0 .1 0 8 0 7.5 0 5.3.1 268 .1 267.9.1 7.7 2.7 14.2 7.2 19.5l-.1.1c2.2 2.1 2.8 2.7 3.3 3.2l.2-.2c8.1 7 15 6.5 20.3 7.2 222.5-.3 415.6-.6 415.4-.6 5.9-.3 10.8-1.2 16.9-5.2l.4.3c.1-.1 5.6-4.9 5.3-4.6l-.2-.2c10.9-12.5 6.2-25.8 7.4-37.1v-40.1-80.1c0-9.8 0-145.1 0-137.7-.1-.8-3.8-16.2-9.3-21.4zm-436-1.2c.3 0 9.4 0 8.9 0 441.9 1.9 407.7-1.3 417.7 3.6l-134.3 142.1c-.2-.4-.4-.9-.6-1.3-2.5-5.1-5.8-9.9-10-13.9-2.1-2-4.4-3.7-6.9-5.2-1.3-.7-2.5-1.5-3.8-2-.7-.3-1.3-.6-2-.9l-2-.7c-.7-.3-1.4-.4-2.1-.6s-1.4-.4-2.1-.6l-2.1-.4-1.1-.2-1.1-.1c-2.8-.3-5.6-.7-8.5-.7-5.7-.2-11.4.4-17 1.7s-11 3.5-16 6.4c-1.2.8-2.5 1.5-3.7 2.4l-1.8 1.3-1.7 1.4c-.6.4-1.1.9-1.7 1.4-.5.5-1.1 1-1.6 1.5-.7-.9-1.3-1.8-2.1-2.7-1.9-2.1-3.9-4-6.2-5.5-4.5-3.1-9.7-5.1-14.8-6.3-5.2-1.4-10.7-1.6-16-.9-5.3.6-10.5 2-15.4 4.2-4.9 2.1-9.4 5-13.5 8.6-2 1.8-3.9 3.7-5.6 5.8s-3.3 4.2-4.6 6.6c-1 1.7-1.9 3.5-2.7 5.3l-138.2-147c6.4-3.9 12.7-3.3 12.6-3.3zm273.4 210.2c-5.9 6.3-12.4 12.2-19 17.9-27 22.7-53.5 37.1-53.3 37.1-.1-.1-1.2-.8-1.1-.7-.4-.3-24.7-16.2-45.6-37.8-7-7.3-13.6-15.2-18.9-23.7-2.7-4.3-5-8.7-6.8-13.4-1.8-4.6-3.1-9.5-3.5-14.3-.2-2.4-.2-4.9.1-7.3.1-.6.1-1.2.2-1.8l.3-1.8c.3-1.2.5-2.4.8-3.6 1.3-4.8 3.1-9.4 5.6-13.6 1.2-2.1 2.7-4.1 4.2-6.1 1.5-1.9 3.3-3.7 5.1-5.3 3.7-3.3 7.8-6 12.3-8s9.3-3.3 14.2-3.9c4.9-.5 9.8-.4 14.5 1l1.8.5 1.7.6c.6.2 1.2.4 1.7.6l1.7.7c1.1.4 2.2 1.1 3.2 1.6.5.3 1 .7 1.5 1s1 .7 1.5 1c1.9 1.4 3.6 3.1 5 4.9.7.9 1.3 1.9 1.9 2.9.2.5.5 1 .7 1.5.1.3.2.5.3.8 0 .1.1.3.1.4s.1.3.1.3l5.2.9c.5.1.8-.1 1-.2.2-.2.4-.5.6-.7.4-.5.8-.9 1.3-1.4.4-.5.9-.9 1.3-1.4.5-.4.9-.9 1.4-1.3l1.4-1.3 1.5-1.2c1-.8 2.1-1.5 3.1-2.3 4.3-2.9 9-5.2 14-6.8l1.9-.6c.6-.2 1.3-.3 1.9-.4 1.3-.3 2.6-.6 3.9-.8l3.9-.5c.7-.1 1.3-.1 2-.1h2c2.7-.2 5.3.2 8 .4.3 0 .7 0 1 .1l1 .2 1.9.3c.6.1 1.3.3 1.9.5s1.3.3 1.9.6c10 3.2 18.2 11 22.5 20.6 2.2 4.8 3.6 10 4.1 15.2.5 5.3.3 10.6-.7 15.8-2 10.4-6.9 20.2-13.8 28.3-.6.6-1.1 1.3-1.7 1.9zm-296.6 30.3c.1-233.3-2.9-222.7 5.5-232.4l141.6 146.9c-.5 1.5-1 3.1-1.4 4.6-.3 1.3-.6 2.6-.9 3.9l-.3 2c-.1.7-.1 1.3-.2 2-.2 2.7-.2 5.4.1 8.1.5 5.3 2 10.5 4 15.4s4.5 9.5 7.3 13.9c.8 1.3 1.7 2.5 2.6 3.8l-152.4 104.6c-7.3-8-5.9-9-5.9-72.8zm400.6 80.9c-407.9-.6-380.2 1.5-389.1-3.4l149-106.2c4.5 6 9.5 11.6 14.8 16.9 21.2 21.3 47.9 38.4 48.9 38.5 1.8-.4 30.9-16 55.7-36.4 7-5.7 13.7-11.8 20-18.3l150.1 105.7c-9.3 5.7-16 1.9-49.4 3.2zm54.7-7.9-151.4-105.3c.1-.1.1-.1.2-.2 3.7-4.3 6.8-9 9.4-14.1 2.5-5.1 4.4-10.5 5.4-16.1s1.2-11.3.6-17c-.4-3-1-6-1.8-9l138.2-143.8c3.7 4.4 5.3 9.3 5.4 14.7 0 .2 0 7.6 0 7.5v130.2c0 155.5 1.4 145-6 153.1z" fill="#2a3951"/></g></g><path d="m97.8 110.1s71.5-.9 94.7 0-22 10.3-44 9.9-50.5-6.6-50.7-9.9z" fill="#fff"/></g></g></svg>