<svg id="Layer_1" enable-background="new 0 0 1417.3 1417.3" height="512" viewBox="0 0 1417.3 1417.3" width="512"
     xmlns="http://www.w3.org/2000/svg" xmlns:xlink="http://www.w3.org/1999/xlink">
    <linearGradient id="SVGID_1_" gradientUnits="userSpaceOnUse" x1="71.422" x2="1345.901" y1="708.661" y2="708.661">
        <stop offset="0" stop-color="#ebebec"/>
        <stop offset="1" stop-color="#fbfbfb"/>
    </linearGradient>
    <g>
        <g>
            <path d="m124.2 1178.8c26.6 98.3 64.7 228.6 165.5 237.4 191.2 16.8 682.4-157.8 901.3-437.9 130.8-167.5 101.4-303.8 104.7-333.7 35 2.4 60.2-33.1 46.3-65.3-19-44.3-38-86.8-74.2-151-15.2-26.9-38.7-48.6-64.8-65.9.3-.5 10.9-15.3 10.2-14.4 17.3-69.6-53-98.7-54-99.6-25.4-2.5-61.8-19.6-79.7-27.3 18.6-21.1 33.2-38.8 33.4-70.4.2-25.9-10.6-49.4-34.5-68.5l-68-21.4c-58.5 6-57 48.3-98 77-12-14.5-26.9-28.3-45.2-40.7-52.2-35.2-105.2-86.6-105.2-86.6-28-20-67.3-10.4-83 20.3-2.6 5.1-2.2 4.4-8.3 17.2-47.2-24.6-87-35-277-15-25.8 2.7-39.7 31.7-25.6 53.5l14.8 23-42.5 23.5c-308 172-306.6 701.5-216.2 1045.8z"
                  fill="none"/>
            <g>
                <g>
                    <path d="m393.1 120.5c-.8 0-1.6-.4-2-1.2-.6-1.1-.2-2.5.9-3.1l5.8-3.2-3.6-5.5c-.7-1-.4-2.4.7-3.1 1-.7 2.4-.4 3.1.7l6.2 9.6-10 5.5c-.4.2-.8.3-1.1.3z"
                          fill="#cecece"/>
                </g>
                <g>
                    <path d="m385.9 92.9c-.7 0-1.5-.4-1.9-1l-7.2-11.1c-1.1-1.7-2-3.5-2.6-5.4-.4-1.2.2-2.5 1.4-2.9s2.5.2 2.9 1.4c.5 1.5 1.3 3 2.2 4.4l7.2 11.1c.7 1 .4 2.4-.7 3.1-.4.3-.8.4-1.3.4zm-7.7-34.1c-.4 0-.8-.1-1.1-.3-1.1-.6-1.5-2-.8-3.1 3.5-6.2 9.2-10.3 16.2-11.7 1.2-.2 2.4.5 2.6 1.8.2 1.2-.5 2.4-1.8 2.6-5.6 1.1-10.3 4.5-13.2 9.5-.4.8-1.1 1.2-1.9 1.2zm273.5-3.8c-.3 0-.6-.1-.9-.2-5.9-2.7-11.5-4.9-17.1-6.8-1.2-.4-1.8-1.7-1.4-2.8.4-1.2 1.7-1.8 2.8-1.4 5.8 1.9 11.5 4.2 17.6 7 1.1.5 1.6 1.9 1.1 3-.5.7-1.3 1.2-2.1 1.2zm-240.3-8.8c-1.1 0-2.1-.9-2.2-2-.1-1.2.8-2.3 2-2.5 6.4-.6 12.6-1.2 18.6-1.8 1.2-.1 2.3.8 2.4 2s-.8 2.3-2 2.4c-6 .6-12.2 1.2-18.6 1.8 0 .1-.1.1-.2.1zm204.9-3c-.2 0-.3 0-.5-.1-5.7-1.2-11.8-2.3-18.2-3.1-1.2-.2-2.1-1.3-1.9-2.5s1.3-2.1 2.5-1.9c6.5.8 12.8 1.9 18.6 3.1 1.2.3 2 1.5 1.7 2.7-.2 1.1-1.1 1.8-2.2 1.8zm-167.6-.5c-1.2 0-2.1-.9-2.2-2.1s.8-2.3 2-2.4c6.4-.6 12.6-1.1 18.6-1.5 1.2-.1 2.3.8 2.4 2.1.1 1.2-.8 2.3-2.1 2.4-6 .5-12.2 1-18.6 1.5zm37.2-2.9c-1.2 0-2.2-.9-2.2-2.1-.1-1.2.9-2.3 2.1-2.4 6.5-.4 12.7-.8 18.7-1.1 1.2-.1 2.3.9 2.4 2.1s-.9 2.3-2.1 2.4c-6 .3-12.2.7-18.6 1.1-.2 0-.2 0-.3 0zm93.4-1.5h-.1c-5.9-.4-12.1-.6-18.6-.8-1.2 0-2.2-1.1-2.2-2.3s1-2.1 2.3-2.2c6.5.1 12.9.4 18.8.8 1.2.1 2.2 1.2 2.1 2.4s-1.1 2.1-2.3 2.1zm-56-.4c-1.2 0-2.2-1-2.2-2.2s.9-2.3 2.2-2.3c6.5-.2 12.8-.4 18.7-.4 1.2 0 2.2 1 2.2 2.2s-1 2.3-2.2 2.3c-5.9 0-12.1.2-18.7.4z"
                          fill="#cecece"/>
                </g>
                <g>
                    <path d="m677.5 68.5-10-5.2c-1.1-.6-1.5-1.9-1-3 .6-1.1 1.9-1.5 3-1l5.9 3.1 2.9-6c.5-1.1 1.9-1.6 3-1.1s1.6 1.9 1.1 3z"
                          fill="#cecece"/>
                </g>
                <g>
                    <path d="m893 137.3c-.6 0-1.2-.2-1.6-.7-3.9-4.1-8.1-8-12.5-11.8-.9-.8-1-2.2-.2-3.2.8-.9 2.2-1 3.2-.2 4.4 3.8 8.7 7.9 12.7 12.1.9.9.8 2.3-.1 3.2-.3.4-.9.6-1.5.6zm-26.1-22.7c-.5 0-.9-.1-1.3-.4-2.2-1.6-4.3-3.1-6.6-4.6-2.5-1.7-5.1-3.5-7.6-5.3-1-.7-1.3-2.1-.5-3.1.7-1 2.1-1.3 3.1-.5 2.5 1.8 5 3.5 7.6 5.2 2.3 1.5 4.5 3.1 6.7 4.7 1 .7 1.2 2.1.5 3.1-.6.6-1.2.9-1.9.9zm-28.4-20.1c-.5 0-.9-.1-1.3-.4-4.7-3.5-9.3-7-13.8-10.6-1-.8-1.1-2.2-.4-3.2.8-1 2.2-1.1 3.2-.4 4.5 3.5 9.1 7 13.7 10.5 1 .7 1.2 2.2.5 3.1-.5.7-1.2 1-1.9 1zm-27.3-21.4c-.5 0-1-.2-1.4-.5-4.6-3.8-9.1-7.5-13.4-11.1-.9-.8-1.1-2.2-.3-3.2.8-.9 2.2-1.1 3.2-.3 4.3 3.6 8.7 7.3 13.3 11.1 1 .8 1.1 2.2.3 3.2-.4.5-1 .8-1.7.8zm-26.5-22.4c-.5 0-1.1-.2-1.5-.6-4.8-4.2-9.1-8.1-13-11.6-.9-.8-1-2.3-.2-3.2s2.3-1 3.2-.2c3.8 3.5 8.2 7.4 12.9 11.5.9.8 1 2.2.2 3.2-.3.6-1 .9-1.6.9zm-96.8-6.8c-.3 0-.7-.1-1-.2-1.1-.5-1.6-1.9-1.1-3 .8-1.7 1.4-2.8 2.5-5.1 1.9-3.7 4.3-7.1 7-10.1.8-.9 2.3-1 3.2-.1.9.8 1 2.3.1 3.2-2.5 2.7-4.6 5.8-6.3 9.1-1.1 2.2-1.7 3.3-2.5 4.9-.3.8-1.1 1.3-1.9 1.3zm71.1-16.6c-.6 0-1.1-.2-1.5-.6-2.4-2.2-4-3.8-5-4.7-2.5-1.7-5.4-3.2-8.5-4.4-1.2-.4-1.8-1.7-1.3-2.9.4-1.2 1.7-1.7 2.9-1.3 3.4 1.3 6.7 3 9.8 5.1 1.2 1.1 2.9 2.7 5.2 4.9.9.9.9 2.3.1 3.2-.5.5-1.1.7-1.7.7zm-48.1-8.2c-.9 0-1.7-.5-2-1.3-.5-1.1 0-2.5 1.1-3 5.5-2.6 11.5-4 17.6-4.2 1.1 0 2.3.9 2.3 2.2 0 1.2-.9 2.3-2.2 2.3-5.6.2-10.9 1.5-15.9 3.8-.2.1-.5.2-.9.2z"
                          fill="#cecece"/>
                </g>
                <g>
                    <path d="m909.9 158-7.1-8.5c-.8-1-.7-2.4.3-3.2s2.4-.7 3.2.3l4.4 5.3 5.7-4c1-.7 2.4-.5 3.1.6.7 1 .5 2.4-.6 3.1z"
                          fill="#cecece"/>
                </g>
                <g>
                    <path d="m1076.1 208c-.5 0-1-.2-1.5-.5-.9-.8-1.1-2.2-.2-3.2 4.6-5.4 8-9.6 10.7-13.6.7-1 2.1-1.3 3.1-.6s1.3 2.1.6 3.1c-2.9 4.1-6.3 8.4-11 13.9-.5.6-1.1.9-1.7.9zm19.3-29.1c-.3 0-.6-.1-.8-.2-1.2-.5-1.7-1.8-1.2-2.9 2.1-5.2 3.5-10.5 4.1-16.4.1-1.2 1.3-2.1 2.5-2s2.1 1.3 2 2.5c-.7 6.2-2.2 12-4.4 17.5-.4 1-1.3 1.5-2.2 1.5zm4.4-34.5c-1.1 0-2.1-.9-2.2-2-.6-5.7-1.9-11.2-3.9-16.5-.4-1.2.1-2.5 1.3-2.9s2.5.1 2.9 1.3c2.1 5.6 3.6 11.5 4.2 17.6.1 1.2-.8 2.3-2 2.5-.1 0-.2 0-.3 0zm-168.3-3.2c-.6 0-1.2-.3-1.7-.7-.8-.9-.8-2.3.2-3.2 4.1-3.7 8-7.8 12-12.4.8-.9 2.2-1.1 3.2-.2.9.8 1.1 2.2.2 3.2-4.1 4.8-8.2 9-12.4 12.8-.4.3-1 .5-1.5.5zm23-26.4c-.5 0-.9-.1-1.3-.4-1-.7-1.2-2.1-.5-3.1l2-2.7c3-4 5.8-7.8 8.6-11.3.8-1 2.2-1.1 3.2-.3s1.1 2.2.3 3.2c-2.8 3.4-5.5 7.2-8.5 11.1l-2.1 2.8c-.3.4-1 .7-1.7.7zm133-2.8c-.7 0-1.4-.3-1.8-.9-3.2-4.4-7-8.7-11.3-12.7-.9-.8-1-2.3-.1-3.2.8-.9 2.3-1 3.2-.1 4.6 4.2 8.6 8.8 12 13.5.7 1 .5 2.4-.5 3.1-.6.1-1.1.3-1.5.3zm-27.5-20c-.2 0-.5 0-.7-.1l-16.8-5.3c-1.2-.4-1.8-1.6-1.5-2.8.4-1.2 1.6-1.8 2.8-1.5l16.8 5.3c1.2.4 1.8 1.6 1.5 2.8-.3.9-1.1 1.6-2.1 1.6zm-82.6-3.7c-.7 0-1.3-.3-1.8-.9-.8-1-.6-2.4.4-3.2 4.8-3.8 10-6.7 15.9-8.8 1.2-.4 2.5.2 2.9 1.4s-.2 2.5-1.4 2.9c-5.4 2-10.2 4.6-14.7 8.1-.3.4-.8.5-1.3.5zm49.1-6.9c-.2 0-.5 0-.7-.1l-16.8-5.3c-1.2-.4-1.8-1.6-1.5-2.8.4-1.2 1.6-1.8 2.8-1.5l16.8 5.3c1.2.4 1.8 1.6 1.5 2.8-.3 1-1.2 1.6-2.1 1.6z"
                          fill="#cecece"/>
                </g>
                <g>
                    <path d="m1066.7 231.6c-.3 0-.6-.1-.9-.2l-11.1-4.8 8-9.1c.8-.9 2.2-1 3.2-.2.9.8 1 2.2.2 3.2l-3.9 4.4 5.4 2.3c1.1.5 1.7 1.8 1.2 3-.4.9-1.3 1.4-2.1 1.4z"
                          fill="#cecece"/>
                </g>
                <g>
                    <path d="m1199.9 347.1c-.5 0-.9-.1-1.3-.4-1-.7-1.2-2.1-.5-3.1l1.3-1.8c.9-4.4 1.5-8.7 1.6-12.9 0-1.2 1.2-2.3 2.3-2.2 1.2 0 2.2 1.1 2.2 2.3-.1 4.6-.8 9.4-1.8 14.2l-.4.8-1.5 2.2c-.5.5-1.2.9-1.9.9zm1.7-32.5c-1 0-1.9-.7-2.2-1.7-1.2-5.1-3.1-10.1-5.7-14.9-.6-1.1-.2-2.5.9-3.1s2.5-.2 3.1.9c2.8 5.1 4.8 10.5 6.1 16 .3 1.2-.5 2.4-1.7 2.7-.1.1-.3.1-.5.1zm-15.5-28.9c-.6 0-1.2-.3-1.7-.7-3.4-3.8-7.5-7.5-11.9-10.9-1-.8-1.2-2.2-.4-3.2s2.2-1.2 3.2-.4c4.7 3.6 8.9 7.5 12.5 11.5.8.9.8 2.3-.2 3.2-.4.3-1 .5-1.5.5zm-26.1-20.3c-.4 0-.7-.1-1.1-.3-1.4-.8-2.7-1.5-4-2.2-3.5-.5-7.2-1.1-11.2-2-1.2-.3-2-1.5-1.7-2.7s1.5-2 2.7-1.7c4 .9 7.7 1.6 11.1 2l.7.2c1.5.7 3 1.6 4.5 2.4 1.1.6 1.5 2 .9 3.1-.3.8-1.1 1.2-1.9 1.2zm-31.8-8.9c-.2 0-.5 0-.7-.1-4.9-1.6-10.2-3.5-15.8-5.6-1.2-.4-1.7-1.7-1.3-2.9s1.8-1.7 2.9-1.3c5.5 2.1 10.7 3.9 15.5 5.5 1.2.4 1.8 1.6 1.5 2.8-.3 1-1.2 1.6-2.1 1.6zm-31.1-11.7c-.3 0-.6-.1-.9-.2-5.5-2.3-10.6-4.6-15.3-6.6-1.1-.5-1.7-1.8-1.2-3 .5-1.1 1.8-1.7 3-1.2 4.6 2 9.7 4.3 15.2 6.6 1.1.5 1.7 1.8 1.2 2.9-.3.9-1.1 1.5-2 1.5z"
                          fill="#cecece"/>
                </g>
                <g>
                    <path d="m1192.5 372.9c-.4 0-.9-.1-1.2-.4l-9.4-6.3 6.6-9.2c.7-1 2.1-1.2 3.1-.5s1.2 2.1.5 3.1l-3.9 5.4 5.6 3.7c1 .7 1.3 2.1.6 3.1-.4.8-1.2 1.1-1.9 1.1z"
                          fill="#cecece"/>
                </g>
                <g>
                    <path d="m1310.7 632.2c-.9 0-1.8-.6-2.1-1.5-.4-1.2.2-2.5 1.3-2.9 5.1-1.9 9.7-5.1 13.2-9.2.8-.9 2.2-1 3.2-.2.9.8 1.1 2.2.2 3.2-4.1 4.7-9.3 8.4-15.1 10.5-.2 0-.5.1-.7.1zm21.8-25.4c-.1 0-.3 0-.5 0-1.2-.3-2-1.4-1.8-2.7.4-2 .6-4.1.6-6.2 0-3.3-.5-6.6-1.6-9.8-.4-1.2.3-2.5 1.4-2.8 1.2-.4 2.4.3 2.8 1.4 1.2 3.7 1.8 7.5 1.8 11.2 0 2.4-.2 4.8-.7 7.1 0 1.1-1 1.8-2 1.8zm-7.8-33.3c-.9 0-1.7-.5-2.1-1.4-2.3-5.3-4.6-10.6-7-16-.5-1.1 0-2.5 1.1-3s2.5 0 3 1.1c2.4 5.4 4.7 10.7 7 16 .5 1.1 0 2.5-1.2 3-.2.2-.5.3-.8.3zm-14.1-31.9c-.9 0-1.7-.5-2-1.3-2.4-5.2-4.8-10.4-7.3-15.8-.5-1.1-.1-2.5 1.1-3 1.1-.5 2.5-.1 3 1.1 2.6 5.4 5 10.6 7.4 15.8.5 1.1 0 2.5-1.1 3-.5.2-.8.2-1.1.2zm-15-31.5c-.8 0-1.6-.5-2-1.3-2.5-5.1-5.1-10.2-7.8-15.6-.6-1.1-.1-2.5 1-3 1.1-.6 2.5-.1 3 1 2.7 5.3 5.3 10.6 7.8 15.6.5 1.1.1 2.5-1 3-.3.2-.6.3-1 .3zm-15.8-31.1c-.8 0-1.6-.4-2-1.2-2.6-5-5.3-10.1-8.2-15.4-.6-1.1-.2-2.5.9-3 1.1-.6 2.5-.2 3 .9 2.9 5.3 5.6 10.4 8.2 15.4.6 1.1.2 2.5-.9 3-.3.2-.6.3-1 .3zm-16.6-30.7c-.8 0-1.6-.4-2-1.2-2.1-3.8-4.2-7.6-6.4-11.5-.7-1.2-1.4-2.4-2.1-3.6-.6-1.1-.3-2.4.8-3.1 1.1-.6 2.4-.3 3.1.8.7 1.2 1.5 2.5 2.2 3.7 2.2 3.9 4.4 7.8 6.5 11.5.6 1.1.2 2.5-.9 3.1-.4.2-.8.3-1.2.3zm-18.5-29.5c-.7 0-1.3-.3-1.8-.9-3.4-4.4-7.3-8.7-11.3-13-.9-.9-.8-2.3.1-3.2s2.3-.8 3.2.1c4.2 4.3 8.1 8.8 11.6 13.3.8 1 .6 2.4-.4 3.2-.4.4-.9.5-1.4.5zm-24.2-25.1c-.5 0-1-.2-1.5-.5-4.2-3.6-8.8-7.3-13.5-10.8-1-.7-1.2-2.1-.5-3.1s2.1-1.2 3.1-.5c4.8 3.6 9.5 7.3 13.8 11 .9.8 1 2.2.2 3.2-.3.5-1 .7-1.6.7z"
                          fill="#cecece"/>
                </g>
                <g>
                    <path d="m1283.4 642.2c-.1 0-.2 0-.2 0-1.2-.1-2.1-1.2-2-2.5l1.2-11.1 11.1.8c1.2.1 2.2 1.2 2.1 2.4s-1.1 2.1-2.4 2.1l-6.8-.5-.7 6.8c-.2 1.2-1.2 2-2.3 2z"
                          fill="#cecece"/>
                </g>
                <g>
                    <path d="m324.4 1406.7c-1.2 0-2.2-1-2.2-2.2s1-2.3 2.2-2.3c5.8-.1 11.8-.4 18-.7 1.3-.1 2.3.9 2.4 2.1s-.9 2.3-2.1 2.4c-6.2.4-12.4.6-18.3.7.1 0 .1 0 0 0zm-18 0c-.1 0-.1 0 0 0-5.5-.2-10.8-.5-15.7-.9-.9-.1-1.7-.2-2.6-.3-1.2-.1-2.1-1.2-2-2.5.1-1.2 1.2-2.1 2.5-2 .8.1 1.6.2 2.5.2 4.9.4 10 .7 15.4.9 1.2 0 2.2 1.1 2.2 2.3-.1 1.3-1.1 2.3-2.3 2.3zm54.1-2.1c-1.1 0-2.1-.9-2.2-2-.1-1.2.8-2.3 2-2.4 5.9-.5 11.8-1.2 17.9-1.9 1.3-.2 2.4.7 2.5 2 .2 1.2-.7 2.4-2 2.5-6.1.8-12.2 1.4-18 1.9 0-.1-.1-.1-.2-.1zm-89.8-2.6c-.2 0-.4 0-.6-.1-5.9-1.7-11.6-4-17.1-6.7-1.1-.6-1.6-1.9-1-3s1.9-1.6 3-1c5.3 2.6 10.8 4.8 16.4 6.4 1.2.3 1.9 1.6 1.5 2.8-.4.9-1.3 1.6-2.2 1.6zm125.7-1.7c-1.1 0-2.1-.8-2.2-1.9-.2-1.2.7-2.4 1.9-2.6 5.8-.9 11.8-1.8 17.8-2.8 1.2-.2 2.4.6 2.6 1.8s-.6 2.4-1.8 2.6c-6.1 1-12 2-17.9 2.9-.1 0-.2 0-.4 0zm35.7-6.1c-1.1 0-2-.7-2.2-1.8-.2-1.2.6-2.4 1.8-2.6 5.8-1.1 11.7-2.3 17.7-3.6 1.2-.2 2.4.5 2.7 1.7s-.5 2.4-1.7 2.7c-6 1.3-11.9 2.5-17.8 3.6-.2 0-.4 0-.5 0zm35.4-7.5c-1 0-2-.7-2.2-1.7-.3-1.2.5-2.4 1.7-2.7 5.8-1.3 11.6-2.7 17.6-4.2 1.2-.3 2.4.4 2.7 1.6s-.4 2.4-1.6 2.7c-5.9 1.5-11.8 2.9-17.6 4.2-.3.1-.5.1-.6.1zm-229-.7c-.5 0-.9-.1-1.3-.4-4.8-3.5-9.5-7.5-14-11.9-.9-.9-.9-2.3 0-3.2s2.3-.9 3.2 0c4.4 4.2 8.9 8.1 13.5 11.5 1 .7 1.2 2.1.5 3.1-.5.6-1.2.9-1.9.9zm264.1-8c-1 0-1.9-.7-2.2-1.7-.3-1.2.4-2.4 1.6-2.7 5.8-1.5 11.6-3.1 17.4-4.7 1.2-.3 2.4.4 2.8 1.6.3 1.2-.4 2.4-1.6 2.8-5.9 1.6-11.7 3.2-17.5 4.7-.1 0-.3 0-.5 0zm34.8-9.7c-1 0-1.9-.6-2.2-1.6-.4-1.2.3-2.4 1.5-2.8 5.7-1.7 11.5-3.4 17.3-5.2 1.2-.4 2.4.3 2.8 1.5s-.3 2.4-1.5 2.8c-5.8 1.8-11.6 3.5-17.3 5.2-.1.1-.4.1-.6.1zm-324.8-7.3c-.7 0-1.3-.3-1.7-.8-3.7-4.5-7.3-9.5-10.8-14.7-.7-1-.4-2.4.6-3.1s2.4-.4 3.1.6c3.4 5.1 7 10 10.6 14.4.8 1 .6 2.4-.3 3.2-.5.2-1 .4-1.5.4zm359.4-3.3c-1 0-1.8-.6-2.1-1.6-.4-1.2.3-2.4 1.5-2.8 5.7-1.8 11.4-3.7 17.2-5.6 1.2-.4 2.5.2 2.8 1.4.4 1.2-.2 2.5-1.4 2.8-5.8 1.9-11.5 3.8-17.2 5.7-.3 0-.6.1-.8.1zm34.3-11.5c-.9 0-1.8-.6-2.1-1.5-.4-1.2.2-2.5 1.4-2.9 5.7-2 11.3-4 17-6.1 1.2-.4 2.5.2 2.9 1.3.4 1.2-.2 2.5-1.3 2.9-5.7 2.1-11.4 4.1-17.1 6.1-.3.1-.6.2-.8.2zm34-12.4c-.9 0-1.8-.6-2.1-1.5-.4-1.2.2-2.5 1.3-2.9 5.6-2.1 11.2-4.3 16.9-6.4 1.2-.5 2.5.1 2.9 1.3s-.1 2.5-1.3 2.9c-5.7 2.2-11.3 4.3-16.9 6.5-.3.1-.5.1-.8.1zm-447.9-2.7c-.8 0-1.5-.4-2-1.1-2.9-5-5.7-10.5-8.5-16.1-.6-1.1-.1-2.5 1-3s2.5-.1 3 1c2.7 5.6 5.6 10.9 8.4 15.9.6 1.1.2 2.5-.8 3.1-.3.1-.7.2-1.1.2zm481.6-10.3c-.9 0-1.7-.5-2.1-1.4-.5-1.2.1-2.5 1.3-2.9 5.6-2.2 11.1-4.5 16.7-6.8 1.1-.5 2.5.1 2.9 1.2.5 1.1-.1 2.5-1.2 2.9-5.6 2.3-11.2 4.6-16.8 6.8-.2.1-.5.2-.8.2zm33.4-13.9c-.9 0-1.7-.5-2.1-1.4-.5-1.1 0-2.5 1.2-3 5.5-2.4 11-4.8 16.6-7.2 1.2-.5 2.5 0 3 1.2.5 1.1 0 2.5-1.2 3-5.5 2.4-11.1 4.8-16.6 7.2-.3.2-.6.2-.9.2zm-531.1-8.2c-.9 0-1.7-.5-2.1-1.3-2.3-5.3-4.7-11-6.9-16.8-.5-1.2.1-2.5 1.3-2.9 1.2-.5 2.5.1 2.9 1.3 2.3 5.8 4.6 11.4 6.9 16.6.5 1.1 0 2.5-1.2 3-.3 0-.6.1-.9.1zm564.2-6.4c-.9 0-1.7-.5-2-1.3-.5-1.1 0-2.5 1.1-3 5.5-2.5 10.9-5 16.4-7.5 1.1-.5 2.5 0 3 1.1s0 2.5-1.1 3c-5.5 2.6-11 5.1-16.4 7.6-.4.1-.7.1-1 .1zm32.8-15.2c-.8 0-1.6-.5-2-1.3-.5-1.1-.1-2.5 1.1-3 5.4-2.6 10.8-5.2 16.2-7.9 1.1-.6 2.5-.1 3 1 .6 1.1.1 2.5-1 3-5.4 2.7-10.8 5.3-16.3 7.9-.4.2-.7.3-1 .3zm-610.2-12c-.9 0-1.8-.6-2.1-1.5-2-5.6-4-11.4-5.9-17.2-.4-1.2.3-2.5 1.4-2.8 1.2-.4 2.4.3 2.8 1.4 1.9 5.8 3.8 11.4 5.8 17 .4 1.2-.2 2.5-1.4 2.9-.1.1-.4.2-.6.2zm642.6-4.1c-.8 0-1.6-.5-2-1.2-.6-1.1-.1-2.5 1-3 5.4-2.7 10.7-5.5 16.1-8.3 1.1-.6 2.5-.1 3 1 .6 1.1.1 2.5-1 3-5.4 2.8-10.7 5.6-16.1 8.3-.3.2-.7.2-1 .2zm32.1-16.7c-.8 0-1.6-.4-2-1.2-.6-1.1-.2-2.5.9-3 5.3-2.9 10.6-5.7 15.9-8.7 1.1-.6 2.5-.2 3.1.9s.2 2.5-.9 3.1c-5.3 2.9-10.6 5.8-16 8.7-.3.1-.7.2-1 .2zm-686.1-13.6c-1 0-1.9-.6-2.2-1.6-1.8-5.7-3.5-11.5-5.2-17.4-.3-1.2.3-2.4 1.5-2.8 1.2-.3 2.4.3 2.8 1.5 1.7 5.8 3.4 11.6 5.2 17.3.4 1.2-.3 2.4-1.5 2.8-.1.2-.3.2-.6.2zm717.8-3.9c-.8 0-1.5-.4-2-1.1-.6-1.1-.2-2.5.8-3.1 5.2-3 10.5-6 15.7-9 1.1-.6 2.5-.3 3.1.8s.3 2.4-.8 3.1c-5.2 3-10.5 6.1-15.7 9-.3.2-.7.3-1.1.3zm31.3-18.3c-.8 0-1.5-.4-1.9-1.1-.6-1.1-.3-2.4.8-3.1 5.2-3.1 10.3-6.2 15.4-9.4 1.1-.7 2.4-.3 3.1.7.7 1.1.3 2.4-.7 3.1-5.1 3.2-10.3 6.3-15.5 9.4-.4.3-.8.4-1.2.4zm-759.2-12.5c-1 0-1.9-.7-2.2-1.6-1.6-5.8-3.2-11.6-4.8-17.5-.3-1.2.4-2.4 1.6-2.8 1.2-.3 2.4.4 2.8 1.6 1.6 5.8 3.2 11.6 4.8 17.4.3 1.2-.4 2.4-1.6 2.8-.2.1-.4.1-.6.1zm789.9-6.5c-.7 0-1.5-.4-1.9-1-.7-1.1-.4-2.4.7-3.1 5.1-3.2 10.1-6.5 15.1-9.8 1-.7 2.4-.4 3.1.7.7 1 .4 2.4-.7 3.1-5 3.3-10.1 6.6-15.2 9.8-.3.2-.7.3-1.1.3zm30.2-19.7c-.7 0-1.4-.3-1.9-1-.7-1-.4-2.4.6-3.1 5-3.4 9.9-6.7 14.9-10.2 1-.7 2.4-.5 3.1.6.7 1 .5 2.4-.6 3.1-4.9 3.4-9.9 6.8-14.9 10.2-.3.2-.8.4-1.2.4zm-829.4-8.7c-1 0-1.9-.7-2.2-1.7-1.5-5.8-2.9-11.7-4.3-17.6-.3-1.2.5-2.4 1.7-2.7s2.4.5 2.7 1.7c1.4 5.9 2.8 11.7 4.3 17.5.3 1.2-.4 2.4-1.6 2.7-.3.1-.4.1-.6.1zm859.1-11.9c-.7 0-1.4-.3-1.8-.9-.7-1-.5-2.4.5-3.1 4.9-3.5 9.8-7.1 14.6-10.6 1-.7 2.4-.5 3.1.5s.5 2.4-.5 3.1c-4.8 3.6-9.7 7.1-14.6 10.7-.4.1-.9.3-1.3.3zm29-21.5c-.7 0-1.3-.3-1.8-.9-.8-1-.6-2.4.4-3.2 4.8-3.7 9.5-7.3 14.3-11.1 1-.8 2.4-.6 3.2.4s.6 2.4-.4 3.2c-4.7 3.7-9.5 7.4-14.3 11.1-.4.3-.9.5-1.4.5zm-896.5-1.7c-1 0-2-.7-2.2-1.8-1.3-5.9-2.6-11.8-3.9-17.7-.3-1.2.5-2.4 1.7-2.7s2.4.5 2.7 1.7c1.3 5.9 2.6 11.8 3.9 17.6.3 1.2-.5 2.4-1.7 2.7-.2.1-.3.2-.5.2zm924.9-20.7c-.7 0-1.3-.3-1.7-.8-.8-1-.6-2.4.3-3.2 4.7-3.8 9.3-7.7 13.9-11.5.9-.8 2.4-.7 3.2.3.8.9.7 2.4-.3 3.2-4.6 3.9-9.2 7.7-13.9 11.6-.5.2-1 .4-1.5.4zm-932.4-14.7c-1.1 0-2-.7-2.2-1.8-1.2-5.9-2.4-11.8-3.5-17.8-.2-1.2.6-2.4 1.8-2.6s2.4.6 2.6 1.8c1.1 5.9 2.3 11.8 3.5 17.7.2 1.2-.5 2.4-1.8 2.7-.1 0-.3 0-.4 0zm960-8.6c-.6 0-1.2-.3-1.7-.8-.8-.9-.7-2.4.2-3.2l13.5-12c.9-.8 2.3-.8 3.2.1.8.9.8 2.3-.1 3.2-4.4 4.1-9 8.1-13.5 12.1-.5.4-1 .6-1.6.6zm26.8-24.4c-.6 0-1.2-.2-1.6-.7-.9-.9-.8-2.3.1-3.2 4.4-4.2 8.7-8.3 13-12.5.9-.9 2.3-.9 3.2 0s.9 2.3 0 3.2c-4.3 4.2-8.6 8.4-13 12.6-.6.4-1.2.6-1.7.6zm-993.6-2.5c-1.1 0-2-.8-2.2-1.9-1.1-5.9-2.1-11.9-3.1-17.8-.2-1.2.6-2.4 1.8-2.6s2.4.6 2.6 1.8c1 5.9 2 11.9 3.1 17.8.2 1.2-.6 2.4-1.8 2.6-.1.1-.3.1-.4.1zm1019.3-22.9c-.6 0-1.1-.2-1.6-.6-.9-.9-.9-2.3 0-3.2 4.2-4.3 8.3-8.7 12.4-13.1.8-.9 2.3-1 3.2-.1.9.8 1 2.3.1 3.2-4.1 4.4-8.3 8.8-12.5 13.1-.4.5-1 .7-1.6.7zm-1025.3-12.7c-1.1 0-2-.8-2.2-1.9-.9-6-1.8-11.9-2.7-17.9-.2-1.2.7-2.4 1.9-2.5 1.2-.2 2.4.7 2.5 1.9.9 6 1.8 11.9 2.7 17.8.2 1.2-.6 2.4-1.9 2.6 0 0-.2 0-.3 0zm1049.9-13.8c-.5 0-1.1-.2-1.5-.6-.9-.8-1-2.2-.2-3.2 4-4.5 7.9-9.1 11.8-13.6.8-.9 2.2-1.1 3.2-.3s1.1 2.2.3 3.2c-3.9 4.6-7.8 9.2-11.8 13.7-.6.5-1.2.8-1.8.8zm-1055-22c-1.1 0-2.1-.8-2.2-2-.8-6-1.6-12-2.3-18-.2-1.2.7-2.4 2-2.5 1.2-.2 2.4.7 2.5 2 .7 6 1.5 11.9 2.3 17.9.2 1.2-.7 2.4-1.9 2.5-.2.1-.3.1-.4.1zm1078.2-5.7c-.5 0-1-.2-1.4-.5-1-.8-1.1-2.2-.4-3.2 1.4-1.8 2.8-3.5 4.2-5.3 2.3-3 4.6-6 6.8-8.9.7-1 2.2-1.2 3.1-.4 1 .7 1.2 2.2.4 3.1-2.2 3-4.5 6-6.9 9-1.4 1.8-2.8 3.6-4.2 5.3-.2.6-.9.9-1.6.9zm21.7-28.9c-.4 0-.9-.1-1.3-.4-1-.7-1.3-2.1-.5-3.1 3.5-5 6.9-10 10.1-14.9.7-1 2.1-1.3 3.1-.6s1.3 2.1.6 3.1c-3.3 5-6.7 10-10.2 15-.4.6-1.1.9-1.8.9zm-1104.3-1.3c-1.1 0-2.1-.9-2.2-2-.7-6-1.3-12-1.9-18-.1-1.2.8-2.3 2-2.5 1.3-.1 2.3.8 2.5 2 .6 6 1.2 12 1.9 18 .1 1.2-.8 2.3-2 2.5-.2 0-.3 0-.3 0zm1124.2-28.8c-.4 0-.8-.1-1.2-.3-1.1-.6-1.4-2-.7-3.1 3.1-5.1 6.2-10.3 9.1-15.5.6-1.1 2-1.5 3.1-.9s1.5 2 .9 3.1c-2.9 5.2-6 10.5-9.2 15.7-.5.6-1.3 1-2 1zm-1127.9-7.2c-1.2 0-2.1-.9-2.2-2-.5-6-1-12-1.5-18-.1-1.2.8-2.3 2.1-2.4 1.2-.1 2.3.8 2.4 2.1l1.5 18c.1 1.2-.8 2.3-2 2.4-.1-.1-.2-.1-.3-.1zm1145.6-24.3c-.3 0-.7-.1-1-.3-1.1-.6-1.5-1.9-1-3 2.7-5.3 5.4-10.8 7.9-16.1.5-1.1 1.9-1.6 3-1.1s1.6 1.9 1.1 3c-2.5 5.4-5.2 10.9-8 16.3-.4.7-1.2 1.2-2 1.2zm-1148.4-11.7c-1.2 0-2.2-.9-2.2-2.1-.4-6-.8-12.1-1.1-18.1-.1-1.2.9-2.3 2.1-2.4 1.3-.1 2.3.9 2.4 2.1.3 6 .7 12 1.1 18 .1 1.2-.9 2.3-2.1 2.4-.1.1-.1.1-.2.1zm1163.7-21.1c-.3 0-.6-.1-.9-.2-1.1-.5-1.7-1.8-1.2-2.9 2.3-5.6 4.6-11.2 6.6-16.7.4-1.2 1.7-1.8 2.9-1.3 1.2.4 1.8 1.7 1.3 2.9-2.1 5.6-4.3 11.3-6.7 16.9-.3.8-1.2 1.3-2 1.3zm-1165.7-15c-1.2 0-2.2-.9-2.2-2.2-.3-6-.5-12.1-.7-18.1 0-1.2.9-2.3 2.2-2.3 1.2-.1 2.3.9 2.3 2.2.2 6 .4 12 .7 18.1.1 1.2-.9 2.3-2.1 2.3-.1 0-.1 0-.2 0zm1178.2-18.9c-.2 0-.5 0-.7-.1-1.2-.4-1.8-1.7-1.4-2.8 1.8-5.7 3.6-11.5 5.2-17.2.3-1.2 1.6-1.9 2.8-1.6s1.9 1.6 1.6 2.8c-1.6 5.8-3.4 11.7-5.2 17.4-.4.9-1.3 1.5-2.3 1.5zm-1179.4-17.3c-1.2 0-2.2-1-2.2-2.2-.1-6.1-.2-12.1-.3-18.1 0-1.2 1-2.3 2.2-2.3 1.2 0 2.2 1 2.2 2.2.1 6 .1 12 .3 18.1.1 1.2-.9 2.3-2.2 2.3.1 0 .1 0 0 0zm1189.1-17.5c-.2 0-.3 0-.5-.1-1.2-.3-2-1.5-1.7-2.7 1.3-5.8 2.6-11.7 3.6-17.6.2-1.2 1.4-2 2.6-1.8s2 1.4 1.8 2.6c-1.1 5.9-2.3 11.9-3.7 17.8-.2 1.1-1.1 1.8-2.1 1.8zm-1189.4-18.7c-1.3 0-2.3-1-2.2-2.3 0-6.1.1-12.1.2-18.1 0-1.2.8-2.3 2.3-2.2 1.2 0 2.2 1 2.2 2.3-.1 6-.1 12-.2 18 0 1.3-1 2.3-2.3 2.3zm1195.8-16.8c-.1 0-.2 0-.3 0-1.2-.2-2.1-1.3-1.9-2.5.8-5.9 1.5-11.9 2-17.9.1-1.2 1.2-2.2 2.4-2 1.2.1 2.2 1.2 2 2.4-.5 6-1.2 12.1-2 18.1-.1 1.1-1 1.9-2.2 1.9zm-1195.2-19.3c-1.3 0-2.3-1.1-2.3-2.3.2-6.1.4-12.1.6-18.1 0-1.2 1.1-2.2 2.3-2.2 1.2.1 2.2 1.1 2.2 2.3-.2 6-.5 12-.6 18 0 1.3-1 2.3-2.2 2.3zm1198.5-16.7h-.1c-1.2-.1-2.2-1.1-2.1-2.3.3-5.9.4-11.8.4-18 0-1.2 1-2.2 2.2-2.2 1.2 0 2.2 1 2.2 2.3 0 6.2-.2 12.2-.4 18.2 0 1-1 2-2.2 2zm-1197-19.4h-.1c-1.2-.1-2.2-1.1-2.1-2.4.3-6.1.7-12.1 1.1-18.1.1-1.2 1.2-2.1 2.4-2.1 1.2.1 2.2 1.2 2.1 2.4-.4 6-.8 12-1.1 18-.2 1.2-1.2 2.2-2.3 2.2zm1197.2-16.8c-1.2 0-2.2-1-2.2-2.2-.1-3.6-.2-6.9-.3-10v-.9c-.1-2.6-.2-5-.2-7.2 0-1.2.9-2.3 2.2-2.3 1.3-.1 2.3.9 2.3 2.2.1 2.2.1 4.6.2 7.2v.5c.1 3.4.2 6.8.3 10.3 0 1.4-1 2.4-2.3 2.4zm-1194.8-19.3c-.1 0-.1 0-.2 0-1.2-.1-2.2-1.2-2.1-2.4.5-6 1-12.1 1.6-18 .1-1.2 1.2-2.1 2.5-2 1.2.1 2.1 1.2 2 2.5-.6 6-1.1 12-1.6 18 0 1-1 1.9-2.2 1.9zm3.5-36c-.1 0-.2 0-.3 0-1.2-.1-2.1-1.3-2-2.5.7-6 1.4-12 2.2-18 .2-1.2 1.3-2.1 2.5-1.9s2.1 1.3 1.9 2.5c-.7 5.9-1.4 11.9-2.1 17.9-.1 1.1-1.1 2-2.2 2zm4.6-35.9c-.1 0-.2 0-.3 0-1.2-.2-2.1-1.3-1.9-2.5.9-6 1.8-12 2.7-17.9.2-1.2 1.3-2.1 2.6-1.9 1.2.2 2.1 1.4 1.9 2.6-.9 5.9-1.8 11.8-2.7 17.8-.3 1.1-1.2 1.9-2.3 1.9zm5.7-35.6c-.1 0-.3 0-.4 0-1.2-.2-2-1.4-1.8-2.6 1.1-6 2.2-11.9 3.3-17.8.2-1.2 1.4-2 2.6-1.8s2 1.4 1.8 2.6c-1.1 5.8-2.3 11.7-3.3 17.7-.2 1.1-1.1 1.9-2.2 1.9zm7-35.5c-.2 0-.3 0-.5-.1-1.2-.3-2-1.5-1.7-2.7 1.3-6 2.6-11.9 4-17.7.3-1.2 1.5-2 2.7-1.7s2 1.5 1.7 2.7c-1.4 5.8-2.7 11.6-4 17.6-.2 1.2-1.2 1.9-2.2 1.9zm8.3-35.2c-.2 0-.4 0-.6-.1-1.2-.3-1.9-1.5-1.6-2.7 1.5-5.9 3.1-11.8 4.7-17.5.3-1.2 1.6-1.9 2.8-1.6s1.9 1.6 1.6 2.8c-1.6 5.7-3.2 11.5-4.7 17.4-.2 1.1-1.2 1.7-2.2 1.7zm9.9-34.7c-.2 0-.4 0-.7-.1-1.2-.4-1.9-1.6-1.5-2.8 1.8-5.9 3.6-11.6 5.5-17.3.4-1.2 1.7-1.8 2.8-1.4 1.2.4 1.8 1.7 1.4 2.8-1.9 5.6-3.7 11.3-5.5 17.2-.2.9-1.1 1.6-2 1.6zm11.4-34.3c-.3 0-.5 0-.8-.1-1.2-.4-1.8-1.7-1.4-2.9 2.1-5.8 4.2-11.4 6.4-17 .5-1.2 1.8-1.7 2.9-1.3 1.2.5 1.7 1.8 1.3 2.9-2.1 5.5-4.3 11.1-6.3 16.9-.4.9-1.2 1.5-2.1 1.5zm13.1-33.7c-.3 0-.6-.1-.9-.2-1.1-.5-1.7-1.8-1.2-2.9 2.4-5.7 4.8-11.2 7.3-16.6.5-1.1 1.8-1.6 3-1.1 1.1.5 1.6 1.8 1.1 3-2.4 5.4-4.9 10.9-7.2 16.5-.4.8-1.2 1.3-2.1 1.3zm14.9-32.9c-.3 0-.7-.1-1-.2-1.1-.5-1.6-1.9-1-3 2.7-5.5 5.4-10.9 8.2-16.2.6-1.1 1.9-1.5 3-.9s1.5 1.9.9 3c-2.8 5.2-5.5 10.6-8.2 16-.2.9-1 1.3-1.9 1.3zm16.9-31.9c-.4 0-.8-.1-1.1-.3-1.1-.6-1.5-2-.8-3.1 3-5.3 6.1-10.5 9.3-15.6.7-1.1 2-1.4 3.1-.7s1.4 2 .7 3.1c-3.1 5-6.2 10.2-9.2 15.5-.4.7-1.2 1.1-2 1.1zm19-30.7c-.4 0-.9-.1-1.2-.4-1-.7-1.3-2.1-.6-3.1 3.4-5.1 6.8-10.1 10.3-14.9.7-1 2.1-1.2 3.1-.5s1.2 2.1.5 3.1c-3.5 4.8-6.9 9.8-10.2 14.8-.5.6-1.2 1-1.9 1zm21.1-29.3c-.5 0-1-.2-1.4-.5-1-.8-1.2-2.2-.4-3.2 3.7-4.8 7.6-9.5 11.4-14.1.8-1 2.2-1.1 3.2-.3s1.1 2.2.3 3.2c-3.8 4.5-7.6 9.2-11.3 14-.5.6-1.1.9-1.8.9zm23.3-27.6c-.5 0-1.1-.2-1.5-.6-.9-.8-1-2.3-.1-3.2 4.1-4.5 8.3-8.9 12.5-13.1.9-.9 2.3-.9 3.2 0s.9 2.3 0 3.2c-4.2 4.2-8.4 8.6-12.4 13-.5.4-1.1.7-1.7.7zm25.5-25.6c-.6 0-1.2-.2-1.7-.7-.8-.9-.8-2.3.1-3.2 4.4-4.1 9-8.1 13.6-12 1-.8 2.4-.7 3.2.3s.7 2.4-.3 3.2c-4.6 3.8-9.1 7.8-13.5 11.9-.3.3-.8.5-1.4.5zm27.7-23.3c-.7 0-1.3-.3-1.8-.9-.8-1-.6-2.4.4-3.2 4.8-3.7 9.7-7.3 14.7-10.7 1-.7 2.4-.5 3.1.6.7 1 .5 2.4-.6 3.1-4.9 3.4-9.7 7-14.5 10.6-.4.3-.9.5-1.3.5zm29.6-20.6c-.7 0-1.5-.4-1.9-1.1-.7-1.1-.3-2.4.7-3.1 5.1-3.2 10.4-6.4 15.6-9.3 1.1-.6 2.5-.2 3.1.9s.2 2.5-.9 3.1c-5.2 2.9-10.4 6-15.4 9.2-.4.2-.8.3-1.2.3zm31.3-18.1c-.8 0-1.6-.4-2-1.2-.6-1.1-.2-2.5.9-3.1l15.8-8.8c1.1-.6 2.5-.2 3.1.9s.2 2.5-.9 3.1l-15.8 8.8c-.3.2-.7.3-1.1.3z"
                          fill="#cecece"/>
                </g>
            </g>
        </g>
        <g>
            <path d="m1054.4 345.3-144.5-85.4-144.5-85.4s-403.4-159.3-561.6 211.1-5 919.1 64.8 960.3 624.3-89.5 872.2-407-86.4-593.6-86.4-593.6z"
                  fill="#e23344"/>
            <path d="m1054.4 345.3-144.5-85.4-37.2-22s334.2 276.4 86.3 593.8-620.7 555.5-690.5 514.3c69.8 41.2 624.3-89.5 872.2-407s-86.3-593.7-86.3-593.7z"
                  fill="#c32641"/>
            <g>
                <path d="m285.2 1317.7c-.5-.3-.8-.4-.8-.4 16.6 5.7 100.2-17.9 252.5-127.2 145.2-104.1 289.6-242.1 396.2-378.6 42.1-53.9 68.5-109.3 79.2-165.8-22.7-18.7-39.5-29-55.9-39.1-16.8-10.3-32.8-20.1-52.3-36.9-72.2 40-147.3 57.7-150.8 58.5l-81.1 18.8-22.7-80.1c-2.4-8.5-21.6-78.8-21.5-159.1-23.7-9.2-39.7-18.5-55.2-27.5-23.9-13.8-48.6-28.2-109.1-46l-46.2-11.9c-44.1-11.4-75.2-51-75.7-96.5-45.1 34.7-100.6 128-117.9 168.5-89.1 208.6-70.6 460.4-51.6 591.9 28.8 199.3 85.2 327.9 107.4 341z"
                      fill="#ee4864"/>
            </g>
            <g>
                <path d="m191.7 997.6c-19-131.5-37.6-383.2 51.6-591.9 17.3-40.5 53.4-145.2 98.5-179.9-45.1 34.7-100.6 128-117.9 168.5-89.1 208.6-70.6 460.4-51.6 591.9 28.8 199.3 85.2 327.9 107.4 341l4.2-7.1c-26.7-44-68.7-159.6-92.2-322.5z"
                      fill="#ed556e"/>
            </g>
            <ellipse cx="399" cy="627" fill="#f06e90" rx="235.6" ry="202.6"
                     transform="matrix(.378 -.926 .926 .378 -332.335 759.232)"/>
            <ellipse cx="378.5" cy="491.2" fill="#f394b6" rx="71.8" ry="61.7"
                     transform="matrix(.683 -.731 .731 .683 -238.844 432.323)"/>
            <path d="m1222.4 611.5c-37.4-158.4-167.9-266.2-167.9-266.2l-144.5-85.4-144.5-85.4s-159.5-62.9-317.2-17.6l2.3 2.6c5 5.4 9.8 10.5 14.7 15.4l1.9 1.8c4.4 4.3 8.6 8.4 12.9 12.4-20.8 14.3-18.6 13.1-109.3 83.3l102.4 30.3c115 34 111 57.5 188.5 81.9-4.7 86 18.4 169 19.6 173.2l14.2 50.1 50.7-11.7c4.1-.9 89.2-21 162.6-67.2 57.2 56.7 78.7 43.5 166.9 129.6l76 75c16.4-105.3 17.5-109.5 20.1-136 15.9 5.4 33.3 10.2 50.6 13.9z"
                  fill="#c32641"/>
            <path d="m208.9 405.9c158.3-370.4 561.7-211.2 561.7-211.2l144.5 85.4 144.5 85.4s122.9 101.7 164.4 252.5c-38.1-157.2-167.3-264-167.3-264l-144.5-85.4-144.5-85.4s-403.4-159.3-561.6 211.1c-104.3 244.1-73.3 565.6-20 768.3-51.6-203.2-79.5-517.2 22.8-756.7z"
                  fill="#ed556e"/>
            <g>
                <g>
                    <g>
                        <g fill="#e95475">
                            <path d="m393.1 415.6c-12-7.1-13.3-26.6-2.8-44.4 6.6-11.2 27.6-27.9 39.6-36.9l20.1-15.2-3.5 25c-2.1 14.8-6.6 41.3-13.2 52.5-10.5 17.8-28.2 26.1-40.2 19z"/>
                            <path d="m476.3 274.6c-12-7.1-13.3-26.6-2.8-44.4 6.6-11.2 27.6-27.9 39.6-36.9l20.1-15.2-3.5 25c-2.1 14.8-6.6 41.3-13.2 52.5-10.5 17.8-28.1 26.2-40.2 19z"/>
                            <path d="m313.5 550.3c-12-7.1-13.3-26.6-2.8-44.4 6.6-11.2 27.6-27.9 39.6-36.9l20.1-15.1-3.5 24.9c-2.1 14.8-6.6 41.3-13.2 52.5-10.5 17.8-28.1 26.1-40.2 19z"/>
                            <path d="m234 685c-12-7.1-13.3-26.6-2.8-44.4 6.6-11.2 27.6-27.9 39.6-36.9l20.1-15.2-3.5 25c-2.1 14.8-6.6 41.3-13.2 52.5-10.5 17.8-28.2 26.1-40.2 19z"/>
                            <path d="m154.5 819.7c-12-7.1-13.3-26.6-2.8-44.4 6.6-11.2 27.6-27.9 39.6-36.9l20.1-15.1-3.5 24.9c-2.1 14.8-6.6 41.3-13.2 52.5-10.6 17.8-28.2 26.1-40.2 19z"/>
                            <path d="m516.2 397.5c-12-7.1-13.3-26.6-2.8-44.4 6.6-11.2 27.6-27.9 39.6-36.9l20.1-15.2-3.5 25c-2.1 14.8-6.6 41.3-13.2 52.5-10.5 17.8-28.2 26.1-40.2 19z"/>
                            <path d="m436.6 532.2c-12-7.1-13.3-26.6-2.8-44.4 6.6-11.2 27.6-27.9 39.6-36.9l20.1-15.2-3.5 25c-2.1 14.8-6.6 41.3-13.2 52.5-10.5 17.7-28.1 26.1-40.2 19z"/>
                            <path d="m357.1 666.9c-12-7.1-13.3-26.6-2.8-44.4 6.6-11.2 27.6-27.9 39.6-36.9l20.1-15.2-3.5 25c-2.1 14.8-6.6 41.3-13.2 52.5-10.5 17.7-28.2 26.1-40.2 19z"/>
                            <path d="m277.6 801.6c-12-7.1-13.3-26.6-2.8-44.4 6.6-11.2 27.6-27.9 39.6-36.9l20.1-15.1-3.5 24.9c-2.1 14.8-6.6 41.3-13.2 52.5-10.6 17.7-28.2 26.1-40.2 19z"/>
                            <path d="m198 936.3c-12-7.1-13.3-26.6-2.8-44.4 6.6-11.2 27.6-27.9 39.6-36.9l20.1-15.2-3.5 25c-2.1 14.8-6.6 41.3-13.2 52.5-10.5 17.7-28.1 26.1-40.2 19z"/>
                            <path d="m545.5 505.6c-12-7.1-13.3-26.6-2.8-44.4 6.6-11.2 27.6-27.9 39.6-36.9l20.1-15.2-3.5 25c-2.1 14.8-6.6 41.3-13.2 52.5-10.5 17.8-28.2 26.1-40.2 19z"/>
                            <path d="m466 640.3c-12-7.1-13.3-26.6-2.8-44.4 6.6-11.2 27.6-27.9 39.6-36.9l20.1-15.1-3.5 24.9c-2.1 14.8-6.6 41.3-13.2 52.5-10.6 17.8-28.2 26.1-40.2 19z"/>
                            <path d="m386.4 775c-12-7.1-13.3-26.6-2.8-44.4 6.6-11.2 27.6-27.9 39.6-36.9l20.1-15.2-3.5 25c-2.1 14.8-6.6 41.3-13.2 52.5-10.5 17.8-28.1 26.1-40.2 19z"/>
                            <path d="m306.9 909.7c-12-7.1-13.3-26.6-2.8-44.4 6.6-11.2 27.6-27.9 39.6-36.9l20.1-15.1-3.5 24.9c-2.1 14.8-6.6 41.3-13.2 52.5-10.5 17.8-28.2 26.1-40.2 19z"/>
                            <path d="m227.3 1044.4c-12-7.1-13.3-26.6-2.8-44.4 6.6-11.2 27.6-27.9 39.6-36.9l20.1-15.2-3.5 25c-2.1 14.8-6.6 41.3-13.2 52.5-10.5 17.8-28.1 26.1-40.2 19z"/>
                            <path d="m668.6 487.5c-12-7.1-13.3-26.6-2.8-44.4 6.6-11.2 27.6-27.9 39.6-36.9l20.1-15.2-3.5 25c-2.1 14.8-6.6 41.3-13.2 52.5-10.5 17.8-28.1 26.1-40.2 19z"/>
                            <path d="m589.1 622.2c-12-7.1-13.3-26.6-2.8-44.4 6.6-11.2 27.6-27.9 39.6-36.9l20.1-15.1-3.5 24.9c-2.1 14.8-6.6 41.3-13.2 52.5-10.5 17.8-28.2 26.1-40.2 19z"/>
                            <path d="m509.5 756.9c-12-7.1-13.3-26.6-2.8-44.4 6.6-11.2 27.6-27.9 39.6-36.9l20.1-15.1-3.5 24.9c-2.1 14.8-6.6 41.3-13.2 52.5-10.5 17.8-28.1 26.1-40.2 19z"/>
                            <path d="m430 891.6c-12-7.1-13.3-26.6-2.8-44.4 6.6-11.2 27.6-27.9 39.6-36.9l20.1-15.1-3.5 24.9c-2.1 14.8-6.6 41.3-13.2 52.5-10.5 17.7-28.2 26.1-40.2 19z"/>
                            <path d="m350.4 1026.3c-12-7.1-13.3-26.6-2.8-44.4 6.6-11.2 27.6-27.9 39.6-36.9l20.1-15.1-3.5 24.9c-2.1 14.8-6.6 41.3-13.2 52.5-10.5 17.7-28.1 26.1-40.2 19z"/>
                            <path d="m270.9 1161c-12-7.1-13.3-26.6-2.8-44.4 6.6-11.2 27.6-27.9 39.6-36.9l20.1-15.1-3.5 24.9c-2.1 14.8-6.6 41.3-13.2 52.5-10.5 17.7-28.2 26.1-40.2 19z"/>
                            <path d="m697.9 595.6c-12-7.1-13.3-26.6-2.8-44.4 6.6-11.2 27.6-27.9 39.6-36.9l20.1-15.2-3.5 25c-2.1 14.8-6.6 41.3-13.2 52.5-10.5 17.8-28.1 26.2-40.2 19z"/>
                            <path d="m618.4 730.3c-12-7.1-13.3-26.6-2.8-44.4 6.6-11.2 27.6-27.9 39.6-36.9l20.1-15.2-3.5 25c-2.1 14.8-6.6 41.3-13.2 52.5-10.5 17.8-28.2 26.1-40.2 19z"/>
                            <path d="m538.8 865c-12-7.1-13.3-26.6-2.8-44.4 6.6-11.2 27.6-27.9 39.6-36.9l20.1-15.2-3.5 25c-2.1 14.8-6.6 41.3-13.2 52.5-10.5 17.8-28.1 26.1-40.2 19z"/>
                            <path d="m459.3 999.7c-12-7.1-13.3-26.6-2.8-44.4 6.6-11.2 27.6-27.9 39.6-36.9l20.1-15.2-3.5 25c-2.1 14.8-6.6 41.3-13.2 52.5-10.5 17.8-28.2 26.1-40.2 19z"/>
                            <path d="m379.7 1134.4c-12-7.1-13.3-26.6-2.8-44.4 6.6-11.2 27.6-27.9 39.6-36.9l20.1-15.2-3.5 25c-2.1 14.8-6.6 41.3-13.2 52.5-10.5 17.8-28.1 26.1-40.2 19z"/>
                            <path d="m300.2 1269.1c-12-7.1-13.3-26.6-2.8-44.4 6.6-11.2 27.6-27.9 39.6-36.9l20.1-15.1-3.5 24.9c-2.1 14.8-6.6 41.3-13.2 52.5-10.5 17.8-28.2 26.1-40.2 19z"/>
                            <path d="m821 577.5c-12-7.1-13.3-26.6-2.8-44.4 6.6-11.2 27.6-27.9 39.6-36.9l20.1-15.2-3.5 25c-2.1 14.8-6.6 41.3-13.2 52.5-10.5 17.8-28.1 26.1-40.2 19z"/>
                            <path d="m741.5 712.2c-12-7.1-13.3-26.6-2.8-44.4 6.6-11.2 27.6-27.9 39.6-36.9l20.1-15.2-3.5 25c-2.1 14.8-6.6 41.3-13.2 52.5-10.5 17.8-28.2 26.1-40.2 19z"/>
                            <path d="m661.9 846.9c-12-7.1-13.3-26.6-2.8-44.4 6.6-11.2 27.6-27.9 39.6-36.9l20.1-15.2-3.5 25c-2.1 14.8-6.6 41.3-13.2 52.5-10.5 17.8-28.1 26.1-40.2 19z"/>
                            <path d="m582.4 981.6c-12-7.1-13.3-26.6-2.8-44.4 6.6-11.2 27.6-27.9 39.6-36.9l20.1-15.1-3.5 24.9c-2.1 14.8-6.6 41.3-13.2 52.5-10.5 17.8-28.2 26.1-40.2 19z"/>
                            <path d="m502.9 1116.3c-12-7.1-13.3-26.6-2.8-44.4 6.6-11.2 27.6-27.9 39.6-36.9l20.1-15.1-3.5 24.9c-2.1 14.8-6.6 41.3-13.2 52.5-10.6 17.8-28.2 26.1-40.2 19z"/>
                            <path d="m423.3 1251c-12-7.1-13.3-26.6-2.8-44.4 6.6-11.2 27.6-27.9 39.6-36.9l20.1-15.2-3.5 24.9c-2.1 14.8-6.6 41.3-13.2 52.5-10.5 17.8-28.1 26.2-40.2 19.1z"/>
                            <path d="m850.3 685.7c-12-7.1-13.3-26.6-2.8-44.4 6.3-10.6 25-25.9 39.6-36.9l20.1-15.2-3.5 25c-2.1 14.8-6.6 41.3-13.2 52.5-10.5 17.7-28.1 26.1-40.2 19z"/>
                            <path d="m770.8 820.3c-12-7.1-13.3-26.6-2.8-44.4 6.6-11.2 27.6-27.9 39.6-36.9l20.1-15.2-3.5 25c-2.1 14.8-6.6 41.3-13.2 52.5-10.5 17.8-28.2 26.2-40.2 19z"/>
                            <path d="m691.3 955c-12-7.1-13.3-26.6-2.8-44.4 6.3-10.6 25-25.9 39.6-36.9l20.1-15.2-3.5 25c-2.1 14.8-6.6 41.3-13.2 52.5-10.6 17.8-28.2 26.2-40.2 19z"/>
                            <path d="m611.7 1089.7c-12-7.1-13.3-26.6-2.8-44.4 6.6-11.2 27.6-27.9 39.6-36.9l20.1-15.2-3.5 25c-2.1 14.8-6.6 41.3-13.2 52.5-10.5 17.8-28.1 26.1-40.2 19z"/>
                            <path d="m532.2 1224.4c-12-7.1-13.3-26.6-2.8-44.4 6.3-10.6 25-25.9 39.6-36.9l20.1-15.2-3.5 25c-2.1 14.8-6.6 41.3-13.2 52.5-10.5 17.8-28.2 26.1-40.2 19z"/>
                            <path d="m973.5 667.5c-12-7.1-13.3-26.6-2.8-44.4 6.6-11.2 27.6-27.9 39.6-36.9l20.1-15.2-3.5 25c-2.1 14.8-6.6 41.3-13.2 52.5-10.6 17.8-28.2 26.1-40.2 19z"/>
                            <path d="m893.9 802.2c-12-7.1-13.3-26.6-2.8-44.4 6.6-11.2 27.6-27.9 39.6-36.9l20.1-15.2-3.5 25c-2.1 14.8-6.6 41.3-13.2 52.5-10.5 17.8-28.1 26.1-40.2 19z"/>
                            <path d="m814.4 936.9c-12-7.1-13.3-26.6-2.8-44.4 6.6-11.2 27.6-27.9 39.6-36.9l20.1-15.2-3.5 25c-2.1 14.8-6.6 41.3-13.2 52.5-10.5 17.8-28.2 26.1-40.2 19z"/>
                            <path d="m734.8 1071.6c-12-7.1-13.3-26.6-2.8-44.4 6.6-11.2 27.6-27.9 39.6-36.9l20.1-15.2-3.5 25c-2.1 14.8-6.6 41.3-13.2 52.5-10.5 17.8-28.1 26.1-40.2 19z"/>
                            <path d="m655.3 1206.3c-12-7.1-13.3-26.6-2.8-44.4 6.6-11.2 27.6-27.9 39.6-36.9l20.1-15.2-3.5 25c-2.1 14.8-6.6 41.3-13.2 52.5-10.5 17.8-28.2 26.1-40.2 19z"/>
                            <path d="m1002.8 775.7c-12-7.1-13.3-26.6-2.8-44.4 6.6-11.2 27.6-27.9 39.6-36.9l20.1-15.2-3.5 25c-2.1 14.8-6.6 41.3-13.2 52.5-10.5 17.7-28.2 26.1-40.2 19z"/>
                            <path d="m1086 634.7c-12-7.1-13.3-26.6-2.8-44.4 6.6-11.2 27.6-27.9 39.6-36.9l20.1-15.2-3.5 25c-2.1 14.8-6.6 41.3-13.2 52.5-10.5 17.8-28.1 26.1-40.2 19z"/>
                            <path d="m923.2 910.4c-12-7.1-13.3-26.6-2.8-44.4 6.6-11.2 27.6-27.9 39.6-36.9l20.1-15.1-3.5 24.9c-2.1 14.8-6.6 41.3-13.2 52.5-10.5 17.7-28.1 26.1-40.2 19z"/>
                            <path d="m843.7 1045.1c-12-7.1-13.3-26.6-2.8-44.4 6.6-11.2 27.6-27.9 39.6-36.9l20.1-15.2-3.5 25c-2.1 14.8-6.6 41.3-13.2 52.5-10.5 17.7-28.2 26.1-40.2 19z"/>
                            <path d="m764.1 1179.8c-12-7.1-13.3-26.6-2.8-44.4 6.6-11.2 27.6-27.9 39.6-36.9l20.1-15.1-3.5 24.9c-2.1 14.8-6.6 41.3-13.2 52.5-10.5 17.7-28.1 26.1-40.2 19z"/>
                            <path d="m1125.9 757.5c-12-7.1-13.3-26.6-2.8-44.4 6.6-11.2 27.6-27.9 39.6-36.9l20.1-15.2-3.5 25c-2.1 14.8-6.6 41.3-13.2 52.5-10.5 17.8-28.2 26.2-40.2 19z"/>
                            <path d="m1046.3 892.2c-12-7.1-13.3-26.6-2.8-44.4 6.6-11.2 27.6-27.9 39.6-36.9l20.1-15.2-3.5 25c-2.1 14.8-6.6 41.3-13.2 52.5-10.5 17.8-28.1 26.1-40.2 19z"/>
                            <path d="m966.8 1026.9c-12-7.1-13.3-26.6-2.8-44.4 6.6-11.2 27.6-27.9 39.6-36.9l20.1-15.2-3.5 24.9c-2.1 14.8-6.6 41.3-13.2 52.5-10.5 17.9-28.2 26.2-40.2 19.1z"/>
                            <path d="m363.8 307.5c-12-7.1-13.3-26.6-2.8-44.4 6.6-11.2 27.6-27.9 39.6-36.9l20.1-15.2-3.5 25c-2.6 18.1-7 41.9-13.2 52.5-10.5 17.7-28.2 26.1-40.2 19z"/>
                            <path d="m284.2 442.2c-12-7.1-13.3-26.6-2.8-44.4 6.6-11.2 27.6-27.9 39.6-36.9l20.1-15.1-3.5 24.9c-2.1 14.8-6.6 41.3-13.2 52.5-10.5 17.7-28.1 26.1-40.2 19z"/>
                            <path d="m204.7 576.9c-12-7.1-13.3-26.6-2.8-44.4 6.6-11.2 27.6-27.9 39.6-36.9l20.1-15.1-3.5 24.9c-2.1 14.8-6.6 41.3-13.2 52.5-10.5 17.7-28.2 26.1-40.2 19z"/>
                        </g>
                        <g fill="#d12d42">
                            <path d="m399.2 419.2c-12-7.1-13.3-26.6-2.8-44.4 6.6-11.2 27.6-27.9 39.6-36.9l20.1-15.2-3.5 25c-2.1 14.8-6.6 41.3-13.2 52.5-10.5 17.8-28.2 26.1-40.2 19z"/>
                            <path d="m482.4 278.2c-12-7.1-13.3-26.6-2.8-44.4 6.6-11.2 27.6-27.9 39.6-36.9l20.1-15.2-3.5 25c-2.1 14.8-6.6 41.3-13.2 52.5-10.5 17.8-28.1 26.2-40.2 19z"/>
                            <path d="m319.6 553.9c-12-7.1-13.3-26.6-2.8-44.4 6.6-11.2 27.6-27.9 39.6-36.9l20.1-15.1-3.5 24.9c-2.1 14.8-6.6 41.3-13.2 52.5-10.5 17.8-28.1 26.1-40.2 19z"/>
                            <path d="m240.1 688.6c-12-7.1-13.3-26.6-2.8-44.4 6.6-11.2 27.6-27.9 39.6-36.9l20.1-15.2-3.5 25c-2.1 14.8-6.6 41.3-13.2 52.5-10.5 17.8-28.2 26.1-40.2 19z"/>
                            <path d="m160.5 823.3c-12-7.1-13.3-26.6-2.8-44.4 6.6-11.2 27.6-27.9 39.6-36.9l20.1-15.1-3.5 24.9c-2.1 14.8-6.6 41.3-13.2 52.5-10.5 17.8-28.1 26.1-40.2 19z"/>
                            <path d="m522.3 401.1c-12-7.1-13.3-26.6-2.8-44.4 6.6-11.2 27.6-27.9 39.6-36.9l20.1-15.2-3.5 25c-2.1 14.8-6.6 41.3-13.2 52.5-10.5 17.8-28.2 26.1-40.2 19z"/>
                            <path d="m442.7 535.8c-12-7.1-13.3-26.6-2.8-44.4 6.6-11.2 27.6-27.9 39.6-36.9l20.1-15.2-3.5 25c-2.1 14.8-6.6 41.3-13.2 52.5-10.5 17.7-28.1 26.1-40.2 19z"/>
                            <path d="m363.2 670.5c-12-7.1-13.3-26.6-2.8-44.4 6.6-11.2 27.6-27.9 39.6-36.9l20.1-15.2-3.5 25c-2.1 14.8-6.6 41.3-13.2 52.5-10.5 17.7-28.2 26.1-40.2 19z"/>
                            <path d="m283.7 805.2c-12-7.1-13.3-26.6-2.8-44.4 6.6-11.2 27.6-27.9 39.6-36.9l20.1-15.1-3.5 24.9c-2.1 14.8-6.6 41.3-13.2 52.5-10.6 17.7-28.2 26.1-40.2 19z"/>
                            <path d="m204.1 939.9c-12-7.1-13.3-26.6-2.8-44.4 6.6-11.2 27.6-27.9 39.6-36.9l20.1-15.2-3.5 25c-2.1 14.8-6.6 41.3-13.2 52.5-10.5 17.7-28.2 26.1-40.2 19z"/>
                            <path d="m551.6 509.2c-12-7.1-13.3-26.6-2.8-44.4 6.6-11.2 27.6-27.9 39.6-36.9l20.1-15.2-3.5 25c-2.1 14.8-6.6 41.3-13.2 52.5-10.5 17.8-28.2 26.1-40.2 19z"/>
                            <path d="m472.1 643.9c-12-7.1-13.3-26.6-2.8-44.4 6.6-11.2 27.6-27.9 39.6-36.9l20.1-15.1-3.5 24.9c-2.1 14.8-6.6 41.3-13.2 52.5-10.6 17.8-28.2 26.1-40.2 19z"/>
                            <path d="m392.5 778.6c-12-7.1-13.3-26.6-2.8-44.4 6.6-11.2 27.6-27.9 39.6-36.9l20.1-15.2-3.5 25c-2.1 14.8-6.6 41.3-13.2 52.5-10.5 17.8-28.1 26.1-40.2 19z"/>
                            <path d="m313 913.3c-12-7.1-13.3-26.6-2.8-44.4 6.6-11.2 27.6-27.9 39.6-36.9l20.1-15.1-3.5 24.9c-2.1 14.8-6.6 41.3-13.2 52.5-10.5 17.8-28.2 26.1-40.2 19z"/>
                            <path d="m233.4 1048c-12-7.1-13.3-26.6-2.8-44.4 6.6-11.2 27.6-27.9 39.6-36.9l20.1-15.2-3.5 25c-2.1 14.8-6.6 41.3-13.2 52.5-10.5 17.8-28.1 26.1-40.2 19z"/>
                            <path d="m674.7 491.1c-12-7.1-13.3-26.6-2.8-44.4 6.6-11.2 27.6-27.9 39.6-36.9l20.1-15.2-3.5 25c-2.1 14.8-6.6 41.3-13.2 52.5-10.5 17.8-28.2 26.1-40.2 19z"/>
                            <path d="m595.2 625.8c-12-7.1-13.3-26.6-2.8-44.4 6.6-11.2 27.6-27.9 39.6-36.9l20.1-15.1-3.5 24.9c-2.1 14.8-6.6 41.3-13.2 52.5-10.5 17.8-28.2 26.1-40.2 19z"/>
                            <path d="m515.6 760.5c-12-7.1-13.3-26.6-2.8-44.4 6.6-11.2 27.6-27.9 39.6-36.9l20.1-15.1-3.5 24.9c-2.1 14.8-6.6 41.3-13.2 52.5-10.5 17.8-28.1 26.1-40.2 19z"/>
                            <path d="m436.1 895.2c-12-7.1-13.3-26.6-2.8-44.4 6.6-11.2 27.6-27.9 39.6-36.9l20.1-15.1-3.5 24.9c-2.1 14.8-6.6 41.3-13.2 52.5-10.5 17.7-28.2 26.1-40.2 19z"/>
                            <path d="m356.5 1029.9c-12-7.1-13.3-26.6-2.8-44.4 6.6-11.2 27.6-27.9 39.6-36.9l20.1-15.1-3.5 24.9c-2.1 14.8-6.6 41.3-13.2 52.5-10.5 17.7-28.1 26.1-40.2 19z"/>
                            <path d="m277 1164.6c-12-7.1-13.3-26.6-2.8-44.4 6.6-11.2 27.6-27.9 39.6-36.9l20.1-15.1-3.5 24.9c-2.1 14.8-6.6 41.3-13.2 52.5-10.5 17.7-28.2 26.1-40.2 19z"/>
                            <path d="m704 599.2c-12-7.1-13.3-26.6-2.8-44.4 6.6-11.2 27.6-27.9 39.6-36.9l20.1-15.2-3.5 25c-2.1 14.8-6.6 41.3-13.2 52.5-10.5 17.8-28.1 26.2-40.2 19z"/>
                            <path d="m624.5 733.9c-12-7.1-13.3-26.6-2.8-44.4 6.6-11.2 27.6-27.9 39.6-36.9l20.1-15.2-3.5 25c-2.1 14.8-6.6 41.3-13.2 52.5-10.5 17.8-28.2 26.1-40.2 19z"/>
                            <path d="m544.9 868.6c-12-7.1-13.3-26.6-2.8-44.4 6.6-11.2 27.6-27.9 39.6-36.9l20.1-15.2-3.5 25c-2.1 14.8-6.6 41.3-13.2 52.5-10.5 17.8-28.1 26.1-40.2 19z"/>
                            <path d="m465.4 1003.3c-12-7.1-13.3-26.6-2.8-44.4 6.6-11.2 27.6-27.9 39.6-36.9l20.1-15.2-3.5 25c-2.1 14.8-6.6 41.3-13.2 52.5-10.5 17.8-28.2 26.1-40.2 19z"/>
                            <path d="m385.8 1138c-12-7.1-13.3-26.6-2.8-44.4 6.6-11.2 27.6-27.9 39.6-36.9l20.1-15.2-3.5 24.9c-2.1 14.8-6.6 41.3-13.2 52.5-10.5 17.9-28.1 26.2-40.2 19.1z"/>
                            <path d="m306.3 1272.7c-12-7.1-13.3-26.6-2.8-44.4 6.6-11.2 27.6-27.9 39.6-36.9l20.1-15.1-3.5 24.9c-2.1 14.8-6.6 41.3-13.2 52.5-10.5 17.8-28.2 26.1-40.2 19z"/>
                            <path d="m827.1 581.1c-12-7.1-13.3-26.6-2.8-44.4 6.6-11.2 27.6-27.9 39.6-36.9l20.1-15.2-3.5 25c-2.1 14.8-6.6 41.3-13.2 52.5-10.5 17.8-28.1 26.1-40.2 19z"/>
                            <path d="m747.6 715.8c-12-7.1-13.3-26.6-2.8-44.4 6.6-11.2 27.6-27.9 39.6-36.9l20.1-15.2-3.5 25c-2.1 14.8-6.6 41.3-13.2 52.5-10.5 17.8-28.2 26.1-40.2 19z"/>
                            <path d="m668 850.5c-12-7.1-13.3-26.6-2.8-44.4 6.6-11.2 27.6-27.9 39.6-36.9l20.1-15.2-3.5 25c-2.1 14.8-6.6 41.3-13.2 52.5-10.5 17.8-28.1 26.1-40.2 19z"/>
                            <path d="m588.5 985.2c-12-7.1-13.3-26.6-2.8-44.4 6.6-11.2 27.6-27.9 39.6-36.9l20.1-15.1-3.5 24.9c-2.1 14.8-6.6 41.3-13.2 52.5-10.5 17.8-28.2 26.1-40.2 19z"/>
                            <path d="m509 1119.9c-12-7.1-13.3-26.6-2.8-44.4 6.6-11.2 27.6-27.9 39.6-36.9l20.1-15.1-3.5 24.9c-2.1 14.8-6.6 41.3-13.2 52.5-10.6 17.8-28.2 26.1-40.2 19z"/>
                            <path d="m429.4 1254.6c-12-7.1-13.3-26.6-2.8-44.4 6.6-11.2 27.6-27.9 39.6-36.9l20.1-15.2-3.5 25c-2.1 14.8-6.6 41.3-13.2 52.5-10.5 17.7-28.2 26.1-40.2 19z"/>
                            <path d="m856.4 689.3c-12-7.1-13.3-26.6-2.8-44.4 6.3-10.6 25-25.9 39.6-36.9l20.1-15.2-3.5 25c-2.1 14.8-6.6 41.3-13.2 52.5-10.5 17.7-28.1 26.1-40.2 19z"/>
                            <path d="m776.9 823.9c-12-7.1-13.3-26.6-2.8-44.4 6.6-11.2 27.6-27.9 39.6-36.9l20.1-15.2-3.5 25c-2.1 14.8-6.6 41.3-13.2 52.5-10.5 17.8-28.2 26.2-40.2 19z"/>
                            <path d="m697.4 958.6c-12-7.1-13.3-26.6-2.8-44.4 6.3-10.6 25-25.9 39.6-36.9l20.1-15.2-3.5 25c-2.1 14.8-6.6 41.3-13.2 52.5-10.6 17.8-28.2 26.2-40.2 19z"/>
                            <path d="m617.8 1093.3c-12-7.1-13.3-26.6-2.8-44.4 6.6-11.2 27.6-27.9 39.6-36.9l20.1-15.2-3.5 25c-2.1 14.8-6.6 41.3-13.2 52.5-10.5 17.8-28.1 26.1-40.2 19z"/>
                            <path d="m538.3 1228c-12-7.1-13.3-26.6-2.8-44.4 6.3-10.6 25-25.9 39.6-36.9l20.1-15.2-3.5 25c-2.1 14.8-6.6 41.3-13.2 52.5-10.5 17.8-28.2 26.1-40.2 19z"/>
                            <path d="m979.6 671.1c-12-7.1-13.3-26.6-2.8-44.4 6.6-11.2 27.6-27.9 39.6-36.9l20.1-15.2-3.5 25c-2.1 14.8-6.6 41.3-13.2 52.5-10.6 17.8-28.2 26.1-40.2 19z"/>
                            <path d="m900 805.8c-12-7.1-13.3-26.6-2.8-44.4 6.6-11.2 27.6-27.9 39.6-36.9l20.1-15.2-3.5 25c-2.1 14.8-6.6 41.3-13.2 52.5-10.5 17.8-28.2 26.1-40.2 19z"/>
                            <path d="m820.5 940.5c-12-7.1-13.3-26.6-2.8-44.4 6.6-11.2 27.6-27.9 39.6-36.9l20.1-15.2-3.5 25c-2.1 14.8-6.6 41.3-13.2 52.5-10.6 17.8-28.2 26.1-40.2 19z"/>
                            <path d="m740.9 1075.2c-12-7.1-13.3-26.6-2.8-44.4 6.6-11.2 27.6-27.9 39.6-36.9l20.1-15.2-3.5 25c-2.1 14.8-6.6 41.3-13.2 52.5-10.5 17.8-28.1 26.1-40.2 19z"/>
                            <path d="m661.4 1209.9c-12-7.1-13.3-26.6-2.8-44.4 6.6-11.2 27.6-27.9 39.6-36.9l20.1-15.2-3.5 25c-2.1 14.8-6.6 41.3-13.2 52.5-10.5 17.8-28.2 26.1-40.2 19z"/>
                            <path d="m1008.9 779.3c-12-7.1-13.3-26.6-2.8-44.4 6.6-11.2 27.6-27.9 39.6-36.9l20.1-15.2-3.5 25c-2.1 14.8-6.6 41.3-13.2 52.5-10.5 17.7-28.2 26.1-40.2 19z"/>
                            <path d="m1092.1 638.3c-12-7.1-13.3-26.6-2.8-44.4 6.6-11.2 27.6-27.9 39.6-36.9l20.1-15.2-3.5 25c-2.1 14.8-6.6 41.3-13.2 52.5-10.5 17.8-28.1 26.1-40.2 19z"/>
                            <path d="m929.3 914c-12-7.1-13.3-26.6-2.8-44.4 6.6-11.2 27.6-27.9 39.6-36.9l20.1-15.1-3.5 24.9c-2.1 14.8-6.6 41.3-13.2 52.5-10.5 17.7-28.1 26.1-40.2 19z"/>
                            <path d="m849.8 1048.7c-12-7.1-13.3-26.6-2.8-44.4 6.6-11.2 27.6-27.9 39.6-36.9l20.1-15.2-3.5 25c-2.1 14.8-6.6 41.3-13.2 52.5-10.5 17.7-28.2 26.1-40.2 19z"/>
                            <path d="m770.2 1183.4c-12-7.1-13.3-26.6-2.8-44.4 6.6-11.2 27.6-27.9 39.6-36.9l20.1-15.1-3.5 24.9c-2.1 14.8-6.6 41.3-13.2 52.5-10.5 17.7-28.1 26.1-40.2 19z"/>
                            <path d="m1132 761.1c-12-7.1-13.3-26.6-2.8-44.4 6.6-11.2 27.6-27.9 39.6-36.9l20.1-15.2-3.5 25c-2.1 14.8-6.6 41.3-13.2 52.5-10.5 17.8-28.2 26.1-40.2 19z"/>
                            <path d="m1052.4 895.8c-12-7.1-13.3-26.6-2.8-44.4 6.6-11.2 27.6-27.9 39.6-36.9l20.1-15.2-3.5 25c-2.1 14.8-6.6 41.3-13.2 52.5-10.5 17.8-28.1 26.1-40.2 19z"/>
                            <path d="m972.9 1030.5c-12-7.1-13.3-26.6-2.8-44.4 6.6-11.2 27.6-27.9 39.6-36.9l20.1-15.2-3.5 24.9c-2.1 14.8-6.6 41.3-13.2 52.5-10.5 17.9-28.2 26.2-40.2 19.1z"/>
                            <path d="m369.9 311.1c-12-7.1-13.3-26.6-2.8-44.4 6.6-11.2 27.6-27.9 39.6-36.9l20.1-15.2-3.5 25c-2.6 18.1-7 41.9-13.2 52.5-10.5 17.7-28.2 26.1-40.2 19z"/>
                            <path d="m290.3 445.8c-12-7.1-13.3-26.6-2.8-44.4 6.6-11.2 27.6-27.9 39.6-36.9l20.1-15.1-3.5 24.9c-2.1 14.8-6.6 41.3-13.2 52.5-10.5 17.7-28.1 26.1-40.2 19z"/>
                            <path d="m210.8 580.5c-12-7.1-13.3-26.6-2.8-44.4 6.6-11.2 27.6-27.9 39.6-36.9l20.1-15.1-3.5 24.9c-2.1 14.8-6.6 41.3-13.2 52.5-10.5 17.7-28.2 26.1-40.2 19z"/>
                        </g>
                    </g>
                </g>
                <g fill="#faae5c">
                    <g>
                        <path d="m404.1 409.6c-6.8-4-6.4-17.6.8-29.8 4.1-6.9 17.7-19.4 36.7-33.7-3.3 23.5-7.7 41.5-11.8 48.4-7.2 12.2-18.9 19.1-25.7 15.1z"/>
                        <path d="m487.4 268.7c-6.8-4-6.4-17.6.8-29.8 4.1-6.9 17.7-19.4 36.7-33.7-3.3 23.5-7.7 41.5-11.8 48.4-7.2 12.2-19 19.1-25.7 15.1z"/>
                        <path d="m324.6 544.3c-6.8-4-6.4-17.6.8-29.8 4.1-6.9 17.7-19.4 36.7-33.7-3.3 23.5-7.7 41.5-11.8 48.4-7.2 12.2-19 19.1-25.7 15.1z"/>
                        <path d="m245 679c-6.8-4-6.4-17.6.8-29.8 4.1-6.9 17.7-19.4 36.7-33.7-3.3 23.5-7.7 41.5-11.8 48.4-7.2 12.2-18.9 19.1-25.7 15.1z"/>
                        <path d="m165.5 813.7c-6.8-4-6.4-17.6.8-29.8 4.1-6.9 17.7-19.4 36.7-33.7-3.3 23.5-7.7 41.5-11.8 48.4-7.2 12.2-19 19.1-25.7 15.1z"/>
                        <path d="m527.2 391.5c-6.8-4-6.4-17.6.8-29.8 4.1-6.9 17.7-19.4 36.7-33.7-3.3 23.5-7.7 41.5-11.8 48.4-7.2 12.2-18.9 19.1-25.7 15.1z"/>
                        <path d="m447.7 526.2c-6.8-4-6.4-17.6.8-29.8 4.1-6.9 17.7-19.4 36.7-33.7-3.3 23.5-7.7 41.5-11.8 48.4-7.2 12.2-19 19.1-25.7 15.1z"/>
                        <path d="m368.1 660.9c-6.8-4-6.4-17.6.8-29.8 4.1-6.9 17.7-19.4 36.7-33.7-3.3 23.5-7.7 41.5-11.8 48.4-7.1 12.2-18.9 19.1-25.7 15.1z"/>
                        <path d="m288.6 795.6c-6.8-4-6.4-17.6.8-29.8 4.1-6.9 17.7-19.4 36.7-33.7-3.3 23.5-7.7 41.5-11.8 48.4-7.2 12.2-19 19.1-25.7 15.1z"/>
                        <path d="m209 930.3c-6.8-4-6.4-17.6.8-29.8 4.1-6.9 17.7-19.4 36.7-33.7-3.3 23.5-7.7 41.5-11.8 48.4-7.1 12.2-18.9 19.1-25.7 15.1z"/>
                        <path d="m556.5 499.7c-6.8-4-6.4-17.6.8-29.8 4.1-6.9 17.7-19.4 36.7-33.7-3.3 23.5-7.7 41.5-11.8 48.4-7.1 12.1-18.9 19-25.7 15.1z"/>
                        <path d="m477 634.3c-6.8-4-6.4-17.6.8-29.8 4.1-6.9 17.7-19.4 36.7-33.7-3.3 23.5-7.7 41.5-11.8 48.4-7.2 12.2-19 19.1-25.7 15.1z"/>
                        <path d="m397.5 769c-6.8-4-6.4-17.6.8-29.8 4.1-6.9 17.7-19.4 36.7-33.7-3.3 23.5-7.7 41.5-11.8 48.4-7.2 12.2-19 19.1-25.7 15.1z"/>
                        <path d="m317.9 903.7c-6.8-4-6.4-17.6.8-29.8 4.1-6.9 17.7-19.4 36.7-33.7-3.3 23.5-7.7 41.5-11.8 48.4-7.2 12.2-18.9 19.1-25.7 15.1z"/>
                        <path d="m238.4 1038.4c-6.8-4-6.4-17.6.8-29.8 4.1-6.9 17.7-19.4 36.7-33.7-3.3 23.5-7.7 41.5-11.8 48.4-7.2 12.2-19 19.1-25.7 15.1z"/>
                        <path d="m679.6 481.5c-6.8-4-6.4-17.6.8-29.8 4.1-6.9 17.7-19.4 36.7-33.7-3.3 23.5-7.7 41.5-11.8 48.4-7.1 12.2-18.9 19.1-25.7 15.1z"/>
                        <path d="m600.1 616.2c-6.8-4-6.4-17.6.8-29.8 4.1-6.9 17.7-19.4 36.7-33.7-3.3 23.5-7.7 41.5-11.8 48.4-7.2 12.2-18.9 19.1-25.7 15.1z"/>
                        <path d="m520.6 750.9c-6.8-4-6.4-17.6.8-29.8 4.1-6.9 17.7-19.4 36.7-33.7-3.3 23.5-7.7 41.5-11.8 48.4-7.2 12.2-19 19.1-25.7 15.1z"/>
                        <path d="m441 885.6c-6.8-4-6.4-17.6.8-29.8 4.1-6.9 17.7-19.4 36.7-33.7-3.3 23.5-7.7 41.5-11.8 48.4-7.2 12.2-18.9 19.1-25.7 15.1z"/>
                        <path d="m361.5 1020.3c-6.8-4-6.4-17.6.8-29.8 4.1-6.9 17.7-19.4 36.7-33.7-3.3 23.5-7.7 41.5-11.8 48.4-7.2 12.2-19 19.1-25.7 15.1z"/>
                        <path d="m281.9 1155c-6.8-4-6.4-17.6.8-29.8 4.1-6.9 17.7-19.4 36.7-33.7-3.3 23.5-7.7 41.5-11.8 48.4-7.2 12.2-18.9 19.1-25.7 15.1z"/>
                        <path d="m709 589.7c-6.8-4-6.4-17.6.8-29.8 4.1-6.9 17.7-19.4 36.7-33.7-3.3 23.5-7.7 41.5-11.8 48.4-7.2 12.2-19 19.1-25.7 15.1z"/>
                        <path d="m629.4 724.4c-6.8-4-6.4-17.6.8-29.8 4.1-6.9 17.7-19.4 36.7-33.7-3.3 23.5-7.7 41.5-11.8 48.4-7.2 12.2-18.9 19-25.7 15.1z"/>
                        <path d="m549.9 859.1c-6.8-4-6.4-17.6.8-29.8 4.1-6.9 17.7-19.4 36.7-33.7-3.3 23.5-7.7 41.5-11.8 48.4-7.2 12.1-19 19-25.7 15.1z"/>
                        <path d="m470.3 993.7c-6.8-4-6.4-17.6.8-29.8 4.1-6.9 17.7-19.4 36.7-33.7-3.3 23.5-7.7 41.5-11.8 48.4-7.2 12.2-18.9 19.1-25.7 15.1z"/>
                        <path d="m390.8 1128.4c-6.8-4-6.4-17.6.8-29.8 4.1-6.9 17.7-19.4 36.7-33.7-3.3 23.5-7.7 41.5-11.8 48.4-7.2 12.2-19 19.1-25.7 15.1z"/>
                        <path d="m311.2 1263.1c-6.8-4-6.4-17.6.8-29.8 4.1-6.9 17.7-19.4 36.7-33.7-3.3 23.5-7.7 41.5-11.8 48.4-7.1 12.2-18.9 19.1-25.7 15.1z"/>
                        <path d="m832.1 571.5c-6.8-4-6.4-17.6.8-29.8 4.1-6.9 17.7-19.4 36.7-33.7-3.3 23.5-7.7 41.5-11.8 48.4-7.2 12.2-19 19.1-25.7 15.1z"/>
                        <path d="m752.5 706.2c-6.8-4-6.4-17.6.8-29.8 4.1-6.9 17.7-19.4 36.7-33.7-3.3 23.5-7.7 41.5-11.8 48.4-7.2 12.2-18.9 19.1-25.7 15.1z"/>
                        <path d="m673 840.9c-6.8-4-6.4-17.6.8-29.8 4.1-6.9 17.7-19.4 36.7-33.7-3.3 23.5-7.7 41.5-11.8 48.4-7.2 12.2-19 19.1-25.7 15.1z"/>
                        <path d="m593.4 975.6c-6.8-4-6.4-17.6.8-29.8 4.1-6.9 17.7-19.4 36.7-33.7-3.3 23.5-7.7 41.5-11.8 48.4-7.1 12.2-18.9 19.1-25.7 15.1z"/>
                        <path d="m513.9 1110.3c-6.8-4-6.4-17.6.8-29.8 4.1-6.9 17.7-19.4 36.7-33.7-3.3 23.5-7.7 41.5-11.8 48.4-7.2 12.2-19 19.1-25.7 15.1z"/>
                        <path d="m434.3 1245c-6.8-4-6.4-17.6.8-29.8 4.1-6.9 17.7-19.4 36.7-33.7-3.3 23.5-7.7 41.5-11.8 48.4-7.1 12.2-18.9 19.1-25.7 15.1z"/>
                        <path d="m861.4 679.7c-6.8-4-6.4-17.6.8-29.8 4.1-6.9 17.7-19.4 36.7-33.7-3.3 23.6-7.7 41.5-11.8 48.4-7.2 12.2-19 19.1-25.7 15.1z"/>
                        <path d="m781.8 814.4c-6.8-4-6.4-17.6.8-29.8 4.1-6.9 17.7-19.4 36.7-33.7-3.3 23.5-7.7 41.5-11.8 48.4-7.1 12.2-18.9 19.1-25.7 15.1z"/>
                        <path d="m702.3 949.1c-6.8-4-6.4-17.6.8-29.8 4.1-6.9 17.7-19.4 36.7-33.7-3.3 23.6-7.7 41.5-11.8 48.4-7.2 12.2-19 19.1-25.7 15.1z"/>
                        <path d="m622.7 1083.8c-6.8-4-6.4-17.6.8-29.8 4.1-6.9 17.7-19.4 36.7-33.7-3.3 23.5-7.7 41.5-11.8 48.4-7.1 12.2-18.9 19-25.7 15.1z"/>
                        <path d="m543.2 1218.5c-6.8-4-6.4-17.6.8-29.8 4.1-6.9 17.7-19.4 36.7-33.7-3.3 23.6-7.7 41.5-11.8 48.4-7.2 12.1-18.9 19-25.7 15.1z"/>
                        <path d="m984.5 661.6c-6.8-4-6.4-17.6.8-29.8 4.1-6.9 17.7-19.4 36.7-33.7-3.3 23.5-7.7 41.5-11.8 48.4-7.2 12.1-19 19-25.7 15.1z"/>
                        <path d="m904.9 796.2c-6.8-4-6.4-17.6.8-29.8 4.1-6.9 17.7-19.4 36.7-33.7-3.3 23.5-7.7 41.5-11.8 48.4-7.1 12.2-18.9 19.1-25.7 15.1z"/>
                        <path d="m825.4 930.9c-6.8-4-6.4-17.6.8-29.8 4.1-6.9 17.7-19.4 36.7-33.7-3.3 23.5-7.7 41.5-11.8 48.4-7.2 12.2-18.9 19.1-25.7 15.1z"/>
                        <path d="m745.9 1065.6c-6.8-4-6.4-17.6.8-29.8 4.1-6.9 17.7-19.4 36.7-33.7-3.3 23.5-7.7 41.5-11.8 48.4-7.2 12.2-19 19.1-25.7 15.1z"/>
                        <path d="m666.3 1200.3c-6.8-4-6.4-17.6.8-29.8 4.1-6.9 17.7-19.4 36.7-33.7-3.3 23.5-7.7 41.5-11.8 48.4-7.2 12.2-18.9 19.1-25.7 15.1z"/>
                        <path d="m1013.8 769.7c-6.8-4-6.4-17.6.8-29.8 4.1-6.9 17.7-19.4 36.7-33.7-3.3 23.5-7.7 41.5-11.8 48.4-7.2 12.2-18.9 19.1-25.7 15.1z"/>
                        <path d="m1097.1 628.7c-6.8-4-6.4-17.6.8-29.8 4.1-6.9 17.7-19.4 36.7-33.7-3.3 23.5-7.7 41.5-11.8 48.4-7.2 12.2-19 19.1-25.7 15.1z"/>
                        <path d="m934.3 904.4c-6.8-4-6.4-17.6.8-29.8 4.1-6.9 17.7-19.4 36.7-33.7-3.3 23.5-7.7 41.5-11.8 48.4-7.2 12.2-19 19.1-25.7 15.1z"/>
                        <path d="m854.7 1039.1c-6.8-4-6.4-17.6.8-29.8 4.1-6.9 17.7-19.4 36.7-33.7-3.3 23.5-7.7 41.5-11.8 48.4-7.2 12.2-18.9 19.1-25.7 15.1z"/>
                        <path d="m775.2 1173.8c-6.8-4-6.4-17.6.8-29.8 4.1-6.9 17.7-19.4 36.7-33.7-3.3 23.5-7.7 41.5-11.8 48.4-7.2 12.2-19 19.1-25.7 15.1z"/>
                        <path d="m1136.9 751.6c-6.8-4-6.4-17.6.8-29.8 4.1-6.9 17.7-19.4 36.7-33.7-3.3 23.5-7.7 41.5-11.8 48.4-7.2 12.2-18.9 19.1-25.7 15.1z"/>
                        <path d="m1057.4 886.3c-6.8-4-6.4-17.6.8-29.8 4.1-6.9 17.7-19.4 36.7-33.7-3.3 23.5-7.7 41.5-11.8 48.4-7.2 12.2-19 19-25.7 15.1z"/>
                        <path d="m977.8 1021c-6.8-4-6.4-17.6.8-29.8 4.1-6.9 17.7-19.4 36.7-33.7-3.3 23.5-7.7 41.5-11.8 48.4-7.2 12.1-18.9 19-25.7 15.1z"/>
                    </g>
                    <g>
                        <path d="m369.2 298.2c-6.8-4-6.4-17.6.8-29.8 4.1-6.9 17.7-19.4 36.7-33.7-3.3 23.5-7.7 41.5-11.8 48.4-7.1 12.2-18.9 19.1-25.7 15.1z"/>
                        <path d="m289.7 432.9c-6.8-4-6.4-17.6.8-29.8 4.1-6.9 17.7-19.4 36.7-33.7-3.3 23.5-7.7 41.5-11.8 48.4-7.2 12.2-19 19.1-25.7 15.1z"/>
                        <path d="m210.2 567.6c-6.8-4-6.4-17.6.8-29.8 4.1-6.9 17.7-19.4 36.7-33.7-3.3 23.5-7.7 41.5-11.8 48.4-7.2 12.2-19 19.1-25.7 15.1z"/>
                    </g>
                </g>
            </g>
            <path d="m772.1 450.5s22.9 14.5 23 43.6" fill="none" stroke="#e95475" stroke-miterlimit="10"/>
            <path d="m794.4 406.8s-29.6-12.7-53.4-.7" fill="none" stroke="#e95475" stroke-miterlimit="10"/>
            <g>
                <g>
                    <g>
                        <g>
                            <path d="m886.7 283.8s64.5-56.6 149.3-13.2 124.5 41.6 124.5 41.6-52 77.2-115 93c-62.9 15.7-158.8-121.4-158.8-121.4z"
                                  fill="#bbd531"/>
                        </g>
                        <path d="m1039.5 284.3c84.8 43.5 121 28 121 28s-39.7 1.9-124.5-41.6-149.3 13.2-149.3 13.2 2.8 3.9 7.6 10.4c15.5-11.5 73-47.1 145.2-10z"
                              fill="#d1dd40"/>
                        <path d="m1045.6 405.2c62.9-15.7 114.9-93 115-93 0 0-111.1 93.6-245.1-9.6-10.9-8.4-20.4-14.6-28.5-19-.1.1-.2.2-.2.2s95.8 137.1 158.8 121.4z"
                              fill="#b0c536"/>
                        <path d="m1154.8 312c-16.8 5.4-34.4 8.9-52 11-14.5 1.8-29 2.7-43.6 2.6 1.7-1.9 3.3-3.9 4.8-5.9 3.3-4.4 6.1-9.2 8.2-14.1-3.2 4.4-6.8 8.3-10.9 11.7-2 1.7-4.1 3.4-6.2 4.9-1.6 1.2-3.4 2.3-5.1 3.3-1.9-.1-3.9 0-5.8-.1-4.9-.1-9.7-.7-14.6-1l-7.3-.5c-2.4-.2-4.8-.6-7.3-.9l-14.5-1.8-10.1-1.9c.9-.9 1.8-1.8 2.7-2.7 2.7-2.9 5.3-5.9 7.7-9.1 4.8-6.3 8.9-13.1 12.1-20.1-4.2 6.5-9.2 12.5-14.7 17.8-2.7 2.7-5.6 5.2-8.6 7.5-2.3 1.8-4.8 3.5-7.2 5.1-8.3-1.6-16.5-3.9-24.7-5.8-4.8-1-9.3-2.8-14-4.2-4.7-1.5-9.2-3.1-14.7-2.2l-1.3 3.7c3.9 3.8 8.8 5.1 13.5 6.5 4.8 1.4 9.5 3.1 14.3 4.1 9.7 2.2 19.3 5 29.2 6.4l14.7 2.6 14.8 1.8c1.5.2 3.1.3 4.6.5.4.3.9.6 1.3.9l3.1 2.2c2.1 1.5 4.2 3 6.4 4.4 4.3 2.8 8.7 5.5 13.2 8s9 4.8 13.6 7 9.3 4.2 13.9 6.2c-4.4-2.5-8.8-5.1-13.1-7.8s-8.5-5.5-12.6-8.4-8.1-6-11.9-9.2c-1-.8-1.9-1.7-2.8-2.5 4.7.3 9.4.6 14.1.7 16.2.4 32.4-.5 48.4-2.3 4.2 2.4 8.3 4.4 12.7 6.2 4.8 1.9 9.7 3.4 14.7 4-4.8-1.6-9.2-4-13.3-6.8-2.1-1.4-4.2-2.9-6.2-4.5 1.1-.1 2.1-.2 3.2-.4 18.7-3 37.2-7 55-14 1.3-1.8 2-2.8 2-2.8s-1.9.2-5.7-.1z"
                              fill="#919336"/>
                        <path d="m1040.7 365.3s133.9 27.5 171.6 94.4 60.3 119.5 60.3 119.5-102.1-7-180.9-64-51-149.9-51-149.9z"
                              fill="#c7d72d"/>
                        <path d="m1109.1 418.8c2.9 3.1 5.8 6.1 8.7 9.2 3.2-.4 6.2-.5 9-.5 5.2 0 10.4.5 16 1.5 5.1 1 10.1 2.2 15 3.9 4.1 1.4 8.4 3.1 13.8 5.5l-7.6 20.5c-4.9-1.4-8.6-2.3-12.1-2.9-2.5-.4-5-.8-7.5-1 5 4.9 10 9.8 14.9 14.5 2.9 2.8 5.9 5.6 8.8 8.4 3.9.6 7.5 1.4 10.7 2.2 4.3 1.1 8.7 2.6 13.2 4.2 3.8 1.5 8.2 3.3 12.6 5.6 2.7 1.3 5.8 3 9.4 5.1l2.2 1.3-8.8 16.9c3.4 2.9 6.8 5.8 10.1 8.7 8.8 7.5 17.7 14.8 26.6 21.8-10.2-20.9-24.2-48.4-41.3-78.7-9.2-16.4-26.1-31.9-50.1-46.1-19.5-11.5-41-20.5-60-27.3 6.9 8.9 12.4 18 16.4 27.2z"
                              fill="#d8e039"/>
                        <g>
                            <ellipse cx="1190.7" cy="461.3" fill="#f8f299" rx="8.5" ry="14.4"
                                     transform="matrix(.508 -.861 .861 .508 187.964 1251.987)"/>
                        </g>
                        <path d="m1058.3 379c-.6-3.6-1.2-6.9-1.9-10-9.7-2.5-15.7-3.8-15.7-3.8s-28 92.7 50.9 149.8 180.9 64 180.9 64c.1.1-195.5-80.3-214.2-200z"
                              fill="#c3cd2f"/>
                        <path d="m1214.8 540.4c.1-1 .3-2 .6-2.9 0-.1.1-.2.1-.3 18.5 14.7 37.8 28.5 57.2 42-21.2-15.7-42.2-31.6-62.1-48.8-13.7-11.6-27.2-23.5-40.3-35.7 1.8.1 3.5.3 5.3.6 4 .6 8 1.3 12 2.3 3.9 1 7.9 2.2 11.8 3.6s7.7 3 11.5 4.7c-3.5-2.1-7.1-4.2-10.9-6-3.7-1.9-7.6-3.5-11.4-5.1-3.9-1.5-7.9-2.8-12-3.9s-8.2-2-12.7-2.4v.1c-3.9-3.7-7.8-7.4-11.7-11.1-10.8-10.3-21.4-20.8-31.8-31.4 2.3-.6 4.8-1.2 7.2-1.5 4.3-.6 8.7-.8 13.2-.7 4.4.2 8.9.6 13.4 1.4s8.8 1.9 13.2 3.2c-4.1-1.9-8.4-3.7-12.7-5.1-4.4-1.5-8.8-2.6-13.4-3.5-4.6-.8-9.3-1.3-14-1.3-4.3 0-8.3.3-12.9 1.3-5.9-6.1-11.8-12.2-17.6-18.4-17.9-19.2-35.5-38.9-52.1-59l-7.1 5.9c17.5 20 35.6 39.2 54.2 57.9 14.1 14.2 28.5 28.1 43.1 41.7-.5 4.7-.6 9.2-.6 13.8.1 4.7.3 9.4.8 14.1 1.1 9.3 3.3 18.7 8.3 26.5-3.8-8.5-4.5-17.7-4.3-26.7.1-4.5.6-9 1.2-13.5.4-2.6.8-5.3 1.4-7.9 2.4 2.2 4.9 4.5 7.3 6.7 4.9 4.5 9.9 8.9 14.8 13.3v.3h.4c14.7 12.9 29.8 25.5 45.1 37.7.2.2.5.4.7.6-.4 1.8-.4 2.8-.4 4.1 0 1.2.1 2.4.3 3.6.3 2.4.9 4.6 1.5 6.8 1.4 4.3 3.2 8.4 5.4 12.2-1.1-4.2-1.8-8.6-2-12.8-.4-2.3-.3-4.4 0-6.4z"
                              fill="#919336"/>
                        <path d="m938.7 310.2s148.2 45 166 130.5 1.1 192.7 1.1 192.7-58-57.2-99.5-80.1c-41.5-22.8-186.5-114.7-67.6-243.1z"
                              fill="#b5c534"/>
                        <path d="m1019.8 549.8c-40.9-22.5-181.9-111.8-73.1-237-5.1-1.8-8-2.7-8-2.7-118.9 128.4 26.1 220.3 67.6 243.1s99.5 80.1 99.5 80.1-44.5-60.6-86-83.5z"
                              fill="#c2cd3d"/>
                        <path d="m938.7 310.2c-8.5 9.2-15.6 18.2-21.6 27 42.4 16.9 88.6 38.6 111.2 59.9 47.9 45.1 77.5 236.3 77.5 236.3s16.7-107.3-1.1-192.7-166-130.5-166-130.5z"
                              fill="#abb737"/>
                        <g fill="#cbd53c">
                            <path d="m1047.3 460.5c1.8.7 3.5 1.5 5.2 2.3-7.8-21-16.4-39-25.6-50.8-4.3-1.8-8.3-3.4-12.4-4.7-1.9-.6-3.7-1.2-5.6-1.8 8.8 16.7 17.5 33.7 26.2 50.8 4.8 1.3 8.8 2.8 12.2 4.2z"/>
                            <path d="m1064.1 497.6c-3.4-1.9-6.9-3.6-10.9-5.2 7.3 14.8 14.6 30.1 21.9 45.6-3.4-13.5-7.1-27.2-11-40.4z"/>
                        </g>
                        <path d="m1032.4 475.2c2.9.5 5.9 1.1 8.8 1.8 4.9 1.2 9.8 2.7 14.5 4.6 4.8 1.9 9.4 4 13.9 6.5 4.6 2.4 8.8 5.3 13.1 8.4-3.7-3.6-7.6-7.1-11.9-10.2-4.2-3.2-8.6-6-13.2-8.7-4.6-2.6-9.4-4.9-14.4-6.9s-9.9-3.7-15.5-5c-12.9-25.5-26.1-50.9-39.5-76.2 3.7.6 7.4 1.3 11 2.1 6.3 1.4 12.6 3.2 18.8 5.3 6.2 2 12.3 4.5 18.2 7.3 6 2.7 11.7 6.1 17.2 9.6-5.1-4.1-10.5-8.1-16.2-11.6s-11.6-6.7-17.7-9.4c-6.1-2.8-12.3-5.3-18.6-7.5-5.9-2-11.8-3.8-18-5.3-12.2-22.6-24.5-45.1-37.2-67.5-4.5-1.6-7.1-2.3-7.1-2.3-1.2 1.3-2.4 2.6-3.5 3.9 15.4 25.4 30.5 51.1 45.3 77 5.8 10.1 11.5 20.3 17.1 30.5-2.9 5.6-5.2 11-7.3 16.7-2.2 6.1-4.1 12.3-5.6 18.6s-2.7 12.6-3.3 19c-.8 6.4-1 12.8-1 19.2.7-6.3 1.6-12.6 3.1-18.8 1.4-6.2 3.2-12.3 5.3-18.2s4.6-11.7 7.4-17.3c1.9-3.7 3.9-7.4 6.1-10.9 7.5 13.6 15 27.1 22.3 40.8 10.4 19.2 20.5 38.7 30.5 58.1 0 0-.1.1-.1.1-.3.3-.4.5-.6.8-.3.5-.5 1-.7 1.4-.4.9-.6 1.8-.8 2.6-.4 1.7-.6 3.3-.8 4.9-.3 3.2-.4 6.3-.3 9.3.1 6.1.7 12.2 1.3 18.2.5-6 1.2-12 2.3-17.9.5-2.9 1.2-5.8 2-8.5.4-1.3.9-2.5 1.4-3.6 2.6 5.1 5.2 10.1 7.8 15.2 13.6 27.1 26.6 54.5 39.2 82.1-11.8-27.9-24.1-55.7-37-83.2-11.7-25.2-23.8-50.2-36.3-75z"
                              fill="#919336"/>
                    </g>
                </g>
                <g>
                    <g>
                        <g>
                            <path d="m892.3 287.1s18.4-83.9-60.6-137.1-96.5-89-96.5-89-42.5 82.9-25.9 145.6 183 80.5 183 80.5z"
                                  fill="#bbd531"/>
                        </g>
                        <path d="m889.6 286.8c.2-4.6 0-9.7-.9-15.5-4.3-27.6-70.2-53.2-120.1-91.9-50-38.7-33.4-118.4-33.4-118.4s-42.5 82.9-25.9 145.6c15.3 58 159.2 77.6 180.3 80.2z"
                              fill="#b0c536"/>
                        <path d="m833.3 238.6c-5.1-5.6-10.5-11-15.5-16.8.2-1 .5-2.1.8-3.6 1.6-7.5 2.9-50.4 2.9-50.4l-10.5 45.8-6.7-8.1-8.7-11.8c-1.4-2-2.9-3.9-4.3-5.9l-4-6.1c-2.6-4.1-5.5-8.1-7.9-12.3-10.2-16.7-18.9-34.3-26.2-52.4-6.6-16.6-12.1-33.9-15.2-51.4-1.9-3-2.7-4.6-2.7-4.6s-.5 1.1-1.5 3c2.7 18.9 8.1 37.1 14.7 54.9.5 1.3 1 2.5 1.5 3.7-2.6-1.1-5.3-2.4-7.8-3.7-4.4-2.4-8.6-5.1-12.2-8.5 3 4.1 6.8 7.6 10.7 10.8 3.8 3 7.8 5.7 12 8.2 6.1 14.9 13.2 29.3 21.3 43.3 2.4 4.3 5.2 8.5 7.8 12.7l.5.8c-1.7-.6-3.5-1.3-5.2-1.9-4.7-1.9-9.2-3.9-13.8-6.2-4.5-2.2-9-4.6-13.4-7.1s-8.7-5.2-13-7.9c4 3.1 8.1 6.1 12.3 9s8.4 5.7 12.8 8.4 8.8 5.2 13.4 7.5c2.3 1.2 4.6 2.3 6.9 3.3l3.5 1.6 1.2.6c1 1.5 2 2.9 3.1 4.4l8.6 12.2 9.3 11.7c6 8 13 15 19.6 22.5 6.8 7.3 14.1 14.1 21.1 21.1l5.8-6.4c-7.1-6.9-14.4-13.4-21.2-20.4z"
                              fill="#919336"/>
                        <path d="m746.5 191.5s-88.7-104-165.5-104.7c-76.8-.8-133.7 4.9-133.7 4.9s55.4 86 143.4 127.5 155.8-27.7 155.8-27.7z"
                              fill="#c7d72d"/>
                        <path d="m535 104.7c3.2 3.1 5.9 5.9 8.4 8.8 1.8 2.1 3.7 4.4 5.6 7.2 9.3 3.3 34.8 12.4 49 16.8 6.4 2 12.9 3.9 19.4 5.9-1.3-1.8-2.6-3.7-4-5.4-2.2-2.8-4.8-5.6-8.4-9.2l14.3-16.5c4.8 3.5 8.3 6.5 11.6 9.5 3.7 3.5 7.3 7.2 10.5 11.1 3.7 4.5 6.6 8.8 9 13.2 1.3 2.4 2.5 4.8 3.7 7.6 6.4 1.7 12.8 3.4 19.3 5 11.7 2.9 22.9 5.6 33.6 8-16.5-15.4-38.2-33.5-61.5-47.3-24-14.2-45.7-21.5-64.5-21.7-19.2-.2-37.2 0-53.4.5 2.5 2.1 5 4.2 7.4 6.5z"
                              fill="#e2e23b"/>
                        <ellipse cx="585.2" cy="110.8" fill="#f8f299" rx="6.7" ry="14.9"
                                 transform="matrix(.068 -.998 .998 .068 435.027 687.155)"/>
                        <path d="m743.5 194.4c2-1.8 3-2.9 3-2.9s-88.7-104-165.5-104.7c-76.8-.8-133.7 4.9-133.7 4.9s59.2 3.1 136 3.9c65.7.7 140 76.8 160.2 98.8z"
                              fill="#e3e552"/>
                        <path d="m596.6 174.7c-88.1-39.3-149.3-82.9-149.3-82.9s55.4 86 143.4 127.5c88.1 41.5 155.8-27.7 155.8-27.7s-61.8 22.4-149.9-16.9z"
                              fill="#c3cd2f"/>
                        <g>
                            <path d="m492.3 99.6c4.2 1.8 8.5 3.5 12.8 5.2l4.7-6c-6.3.2-12.1.5-17.5.8z" fill="#e2e23b"/>
                        </g>
                        <path d="m745.5 196.9 2-10.7c-25.6-4.7-51.4-10.5-76.8-16.9-8.3-2.1-16.7-4.3-25-6.5-1.2-4.2-3-7.7-4.9-11.3-2.3-4.1-5-8-8-11.6s-6.2-7-9.5-10.1c-3.4-3.1-7-6-10.6-8.7 3.2 3.2 6.3 6.5 9.2 10.1 2.8 3.5 5.4 7.2 7.7 11 2.2 3.8 4.2 7.8 5.8 11.9.8 2.1 1.5 4.3 2 6.5-14.3-4-28.5-8.1-42.6-12.5-18-5.5-53.1-18.2-53.1-18.2-2.1-3.5-4.3-6.3-6.7-9.2-2.4-2.8-4.9-5.4-7.6-8-5.3-5-11-9.5-17-13.4 5.3 4.8 10.2 10.1 14.6 15.6 2.2 2.8 4.2 5.7 6 8.7.7 1.2 1.5 2.5 2.2 3.7-4.4-1.6-8.8-3.2-13.1-4.9-24.7-9.1-48.8-19.7-72.8-30.6 23.6 11.7 47.4 23.2 71.8 33.2 5.4 2.3 10.8 4.5 16.3 6.7l1.3.6c18.6 7.5 37.4 14.5 56.4 21 2.8 1 5.6 1.9 8.4 2.9-1.8 1.5-3.6 3-5.5 4.5-3.6 2.7-7.2 5.4-11.1 7.7-7.7 4.6-16.1 8.6-25.3 9.5 9.3.7 18.7-1.8 27.4-5.2 4.4-1.7 8.7-3.7 12.9-5.9 4.1-2.2 8-4.4 12-7 18.8 6.3 37.7 12.2 56.7 17.6 25.4 7.1 50.9 13.8 76.9 19.5z"
                              fill="#919336"/>
                        <path d="m844 254.3s-111-108.1-194.4-82.4-169.3 92.1-169.3 92.1 78.1 23.1 118.2 48.5c40.1 25.3 190.5 107.9 245.5-58.2z"
                              fill="#b5c534"/>
                        <path d="m841.2 262.3c1-2.6 1.9-5.3 2.8-8 0 0-111-108.1-194.4-82.4s-169.3 92.1-169.3 92.1 89.4-52.5 172.9-78.2c71.6-22 163.3 54.3 188 76.5z"
                              fill="#c7d23d"/>
                        <path d="m598.5 312.5c40.1 25.3 190.5 107.9 245.5-58.2 0 0-89.1-35.9-133.6 27.4s-86.6-8.3-128.8-11-101.3-6.7-101.3-6.7 78.2 23.2 118.2 48.5z"
                              fill="#abb737"/>
                        <g>
                            <g fill="#cfd242">
                                <path d="m680.6 275.4c2.2-4 4.1-8 5.5-11.9.2-.5.4-1 .5-1.5-8.2 0-16.3 0-24.5.1-18 .1-37 .5-61.3 1.2-.3.4-.5.7-.8 1-.8 1-1.7 1.8-2.5 2.6-.5.5-1 .8-1.5 1.2 7.7 2.6 15.1 6.7 22.2 10.9 2.9 1.7 5.8 3.5 8.7 5.3s5.7 3.5 8.6 5.2c11.7 6.9 23 12.6 34.1 12.7l-4.4-3.8c2.5-3.3 5.4-7.3 8.1-11.4 2.9-4.1 5.3-7.9 7.3-11.6z"/>
                                <path d="m683.8 295.2c-2 2.1-3.9 4.2-5.9 6.1 9.2-2.3 18.4-9.1 28-22.7 4.5-6.4 9.5-11.8 14.7-16.4-4.7 0-9.4 0-14.3-.1-.2.5-.4 1-.6 1.5-1.1 2.6-2.3 5-3.7 7.5-2.4 4.3-5.3 8.5-8.6 12.8-2.8 3.6-5.9 7.3-9.6 11.3z"/>
                                <path d="m570.7 250.8c25-1.6 49.3-3 72.7-4-3-3-6-5.8-9.1-8.2-4.2-3.4-8.1-6.2-12-8.5-.7-.5-1.4-.9-2-1.2-3.8-2.2-7.8-4.1-11.2-5.7l4-10.2c4.6 1.5 10.1 3.4 15.3 5.9 3.5 1.6 7 3.4 10.8 5.7 1.2.7 2.4 1.4 3.6 2.2 4.5 2.8 9 6.1 13.4 9.7 4 3.3 7.2 6.3 10.1 9.4 24.4-.9 48.9-1.5 72.9-2-4.1-4.5-8.5-9-13-13.2-4.4-4.1-9.2-8-14.7-12.1-2.9-2.2-6.2-4.3-10-6.5-2-1.2-4.1-2.4-6.2-3.5l4.7-9.9c7.7 3.1 13.4 5.9 18.6 9l2 1.1c5.6 3.3 10.6 6.6 15.3 10.1 5.5 4.1 10.9 8.5 16 13 3.6 3.3 6.9 6.5 10 9.7 10-2.2 20.1-3 29.6-2.8-9.4-6.9-20.1-14.2-31.7-21.1-28.9-17.1-70.3-35.3-103.6-25-44.6 13.7-90.7 40.2-122.3 60.7 12.6-.9 24.9-1.9 36.8-2.6z"/>
                            </g>
                            <path d="m569.5 264.3c1.1.1 2.3.1 3.4.2.1-.1.3-.2.5-.4-.7 0-1.3 0-2 .1-.6.1-1.3.1-1.9.1z"
                                  fill="#c1cd37"/>
                        </g>
                        <path d="m587.1 258.3c-.6.8-1.1 1.5-1.8 2.3-1.9 2.1-4 4.1-6.3 6.1-4.5 3.9-9.3 7.5-14.3 11l.1.2c5.7-2.2 11.3-4.5 16.8-7.2 2.8-1.4 5.5-2.9 8.2-4.6 1.4-.9 2.7-1.9 4-3 .7-.6 1.3-1.3 2-2.1.3-.4.7-.9 1-1.4.2-.3.3-.5.5-1 .1-.2.1-.3.2-.5 21.5-.6 43-1.2 64.6-1.3 10.5-.1 21-.1 31.6-.1-.1.8-.3 1.7-.5 2.5-.5 2.1-1.2 4.3-2 6.4-1.6 4.2-3.6 8.5-5.9 12.5-2.2 4.1-4.7 8.1-7.3 12.1-2.6 3.9-5.4 7.8-8.2 11.6 3.4-3.3 6.8-6.7 10-10.2s6.4-7.2 9.3-11c3-3.8 5.7-7.8 8.2-12.2 1.2-2.2 2.4-4.4 3.3-6.8.5-1.2.9-2.4 1.3-3.8.1-.4.2-.8.3-1.2 16.9 0 33.8.1 50.7.4 29.8.5 59.5 1.2 89.2 2.5.6-1.7 1.2-3.4 1.8-5.1 0 0-2-1.9-5.6-5.2-25.8-.3-51.5-.3-77.2 0-4.2-4.7-8.5-8.9-13.1-13-5-4.5-10.2-8.7-15.6-12.7s-11-7.6-16.7-10.9c-5.7-3.4-11.8-6.1-17.9-8.6 5.8 3.2 11.5 6.5 16.8 10.4s10.4 8 15.2 12.4 9.4 9.1 13.7 13.9c2.5 2.8 4.9 5.7 7.2 8.6-29 .4-57.9 1.2-86.9 2.2-3.6-4.1-7.3-7.5-11.2-10.8-4.1-3.4-8.4-6.5-12.8-9.3-4.5-2.8-9.1-5.4-13.8-7.5-4.7-2.3-9.7-4-14.6-5.6 4.7 2.2 9.4 4.5 13.7 7.2 4.4 2.7 8.6 5.7 12.6 8.9s7.7 6.7 11.2 10.4c2.2 2.3 4.3 4.7 6.2 7.1-28 1.1-56.1 2.6-84.1 4.4-30.3 2-60.5 4.7-90.7 7.8 30.3-2.3 60.5-4.1 90.8-5.2 5.4-.3 10.7-.4 16-.6z"
                              fill="#919336"/>
                    </g>
                </g>
                <path d="m849.2 318.4c3.1-3.7 41.8-92.8 90.9-122.4 30.5-18.4 50.6-44.7 61.5-61.9 6-9.6 18.3-12.8 27.8-7.2l10 5.9c10.7 6.3 13.1 20.9 5.1 30.9-16 20-43.2 50.2-71.1 64.2-43.7 21.9-104.3 102.4-104.3 102.4z"
                      fill="#b5c534"/>
                <path d="m945.9 199.4c30.5-18.4 50.6-44.7 61.5-62 6-9.6 18.3-12.8 27.8-7.2l-5.8-3.4c-9.5-5.6-21.8-2.4-27.8 7.2-10.9 17.3-31 43.5-61.5 61.9-49.2 29.7-87.8 118.7-90.9 122.4l5.8 3.4c3.1-3.6 41.7-92.7 90.9-122.3z"
                      fill="#c3cd41"/>
                <path d="m853.3 320.8 15.9 9.4s60.6-80.5 104.3-102.4c27.9-14 55.1-44.2 71.1-64.2 7.5-9.3 5.9-22.7-3.2-29.6l-1.9-1.3s-42.5 64.7-75.5 77.7c-22.4 8.8-77.3 70.9-110.7 110.4z"
                      fill="#abb737"/>
                <path d="m902.8 279.2-10.3-5.3-9.4-6.3c-48-32.2-114.3-18.4-146.3 31.6-1 1.5-2 3.1-2.9 4.7-54.6 89.8-8.3 252.7-8.3 252.7s165-38.1 217.3-129.3c.9-1.6 1.8-3.2 2.7-4.8 28.2-52.1 8.5-116.7-42.8-143.3z"
                      fill="#c7d72d"/>
                <g fill="#dbe13d">
                    <path d="m862.7 321.9c-7.9 9.9-23.5 30.2-39.7 55 14.7 14.7 24.5 33.6 28.8 55 .6-.3 1.2-.6 1.9-.8 17.8-7.2 29.2-19.3 36-33.7-2.2-32.5-10.7-56.3-27-75.5z"/>
                    <path d="m812.4 393.3c-18.1 29.1-31.1 54.1-38 68.1 4 4 7.3 8.6 10 13.4 16.2-14 34.7-27.2 55-37.4-5.9-21-16.8-35.1-27-44.1z"/>
                    <path d="m886.2 295.3c-3.6 3.7-7.2 7.4-10.4 10.9 11.5 15 19 32 22.8 51.7 1-21.3-2.5-42.9-6.5-59.6z"/>
                    <path d="m755.8 502.3c5.2-5.5 10.7-11.1 16.7-16.8-1.8-2.5-3.9-4.8-6.2-6.9-2.4 5.1-6 13.2-10.5 23.7z"/>
                    <path d="m773.5 426.5c-10.8-3.8-26.8-11.3-40.9-6.1 0 0 30.4-14.8 49.8-10.3 12.8-23.3 25.1-43.4 39.2-64-20-10.5-43-17.9-65.5-11.6 0 0 30.9-26.8 78.6-7.1 9.2-12.7 21.3-28.3 34.3-42.9-.6-.4-1.2-.8-1.8-1.1-38.3-22.6-87.4-10.4-111.8 27.7-.9 1.4-1.8 2.8-2.7 4.3-19.8 32.5-27.3 83-21.6 145.9 1.5 16.4 3.7 31.7 6 44.8 10.1-25.8 21.5-51.5 36.4-79.6z"/>
                </g>
                <ellipse cx="818.4" cy="298.5" fill="#f8f299" rx="21.9" ry="16"
                         transform="matrix(.747 -.665 .665 .747 8.698 619.855)"/>
                <g fill="#d9e03d">
                    <path d="m751.4 307.9c29.5-46 87.8-61.3 134.3-38.5l-2.7-1.8c-48-32.2-114.3-18.4-146.3 31.6-1 1.5-2 3.1-2.9 4.7-54.6 89.8-8.3 252.7-8.3 252.7s-31.7-154.3 23-244.1c1-1.5 2-3.1 2.9-4.6z"/>
                    <path d="m907.2 282.5 7.3 3.8c-3.7-2.6-7.5-4.9-11.6-7.1l-2.6-1.4z"/>
                </g>
                <path d="m725.5 556.6s165-38.1 217.3-129.3c.9-1.6 1.8-3.2 2.7-4.8 28.3-52.1 8.5-116.7-42.7-143.3l-10.3-5.3s50.3 130.3-29.6 162.6-137.4 120.1-137.4 120.1z"
                      fill="#c3cd2f"/>
                <path d="m1040.7 548.2c-.1-2.8-.1-6.6.4-10.7.2-1.9.5-4 1-6.1l.1-.5c.2-.6.3-1.2.6-2-10.8-20.9-19.4-37.5-27.9-53.1-4-7.5-8.2-15.1-12.4-22.8-1.3 2.9-2.4 5.9-3.4 8.7-2.2 6.1-3.8 11.6-5 16.9-1.5 6.1-2.3 12.4-3 17.7l-21.8-1.3c0-6.1.2-13.3 1.1-20.5.7-6.2 1.8-12.8 3.5-20.2 1.5-6.4 3.5-13.1 6-19.9 1.7-4.7 3.4-8.8 5.2-12.6-4.7-8.5-9.5-16.9-14.3-25.3-2.3-3.9-4.4-7.8-6.7-11.6-1.3 14-5.3 28-12.5 41.2-.9 1.6-1.8 3.2-2.7 4.8-5.4 9.4-12 18.2-19.5 26.5 21.3 34.9 60 60.7 79.1 72 3 1.8 5.8 3.3 8.2 4.7 1.6.9 3.3 1.9 5 2.9 6.2 3.6 12.5 7.9 19 12.4.1-.4 0-.8 0-1.2z"
                      fill="#cbd53c"/>
                <path d="m786.7 508.3c.9-19.7-7-35.3-18.9-45.7.6-1.2 16.8-35.5 43.4-77.5 19.5 15 34.5 39.1 37.6 73.1.3-35.1-13.1-62.4-32.9-80.5 23.4-36.2 46.3-63.9 46.6-64.2 24.7 25.9 32.3 57.9 33.2 94 2.6-37.4-2.7-72.2-26.9-101.4 8-9.4 19.8-20.8 29-29.5l-5.1-2.7-3.8-2.6c-18.4 18.1-37.2 41.9-52.2 62.8-25.9-11.3-53.4-11.9-80.5.4 26.9-7.5 51.7-3.4 73.4 9.8-17.5 25.3-31 47.8-44.3 72.2-17.3-4.9-36.8-4.9-52.6 3.9 15.9-5.9 33-3.5 48.6 3.3-24.6 45.6-40.1 85.3-56.5 129.8.5 2 .9 3.2.9 3.2s.8-.2 2.3-.6c20.7-53.2 36.5-86.3 36.3-85.9 12.6 8.5 20.3 21.1 22.4 38.1z"
                      fill="#919336"/>
            </g>
        </g>
    </g>
</svg>