<svg enable-background="new 0 0 512 512" height="512" viewBox="0 0 512 512" width="512" xmlns="http://www.w3.org/2000/svg"><g id="Layer_31" display="none"><g display="inline"><g><g fill="none" stroke-miterlimit="10"><g stroke="#b3b3b3"><ellipse cx="256" cy="256" rx="248.1" ry="248.3"/><path d="m398.8 504.5h-285.6c-18.8 0-34.1-15.3-34.1-34.1v-428.8c0-18.8 15.3-34.1 34.1-34.1h285.5c18.8 0 34.1 15.3 34.1 34.1v428.9c.1 18.8-15.2 34-34 34z"/><path d="m7.9 399.8v-287.6c0-16.4 13.3-29.8 29.8-29.8h436.7c16.4 0 29.8 13.3 29.8 29.8v287.6c0 16.4-13.3 29.8-29.8 29.8h-436.8c-16.4 0-29.7-13.4-29.7-29.8z"/><path d="m440.4 469.9h-368.8c-16.4 0-29.8-13.3-29.8-29.8v-368.2c0-16.4 13.3-29.8 29.8-29.8h368.8c16.4 0 29.8 13.3 29.8 29.8v368.2c0 16.4-13.4 29.8-29.8 29.8z"/></g><path d="m7.5 7.5h497v497h-497z" stroke="#ed1c24" transform="matrix(0 1 -1 0 512 0)"/></g></g></g></g><g id="Layer_32"><g><path d="m264.4 470.5c-1.8 0-15.5 0-16.7 0-15.2 26.2-43.4 41.1-72.9 41.1-9.8 0-19.5-1.6-29-4.8-58.2-19.8-73.5-91-66.4-129.9-19.6-8.2-25.5-20.2-26.2-21-4.5-8.2-6.6-15.7-4.1-28.2 7.5-37.9 65.2-111.6 94.3-128.3-13.2-26.4-14.1-61.6-6.8-85.1-22.6-12.6-25.8-28.6-25.8-28.5-8-42.1 24.1-85.8 72.4-85.8 21.7 0 37.8 14 47.8 33.3 16.1-3.2 33-3.3 50.4.2 12.8-23.8 30.4-32.8 47.7-32.8 15 0 29.9 4.2 42.2 12.5 17.3 11.6 29.4 32.2 31.2 56.3 0 .1.2 6.1.2 5.7v2c0 .1-.2 1.9-.1 1.8-.1.8-.2 2.1-.5 3.6-2.7 14.3-14.2 24.9-27.1 32 2.9 9.4 4.5 19.1 4.5 28.6 0 38-9.1 50-11.1 55.8 17.9 10.1 36.4 32 50.5 49.7 38.6 48.7 71.6 103.8 14.2 128 6.5 35.2-5.7 84.5-35.2 111.4-41.5 37.9-106.2 29.7-133.5-17.6z" fill="#fff"/><g><path d="m301.3 43.1s12.2-19.5 23.7-20.8c11.6-1.3 25.8 2.6 31.3 7.7s8.5 10.3 2.1 10.4c-6.4.2-25.5-8.7-33.5-2.9s-27.2 14.8-23.6 5.6z" fill="#ffb666"/><g><path d="m225.7 63.3s-9.8-48.2-43.3-47.4c-34 .7-57.3 27.1-57.2 60.1 0 22.8 40.6 35.6 50.2 34.7s50.3-47.4 50.3-47.4z" fill="#f7a94b"/><path d="m225.7 63.3s-9.8-48.2-43.3-47.4c-14.3.3-26.6 5.2-36.2 13.1 12.6.3 29 2 38.1 7.8 12.9 8.2 15.6 41 16.2 53.7 12.8-13 25.2-27.2 25.2-27.2z" fill="#ea973d"/><path d="m286.4 63.3s9.8-48.2 43.3-47.4c34 .7 57.3 27.1 57.2 60.1 0 22.8-40.6 35.6-50.2 34.7s-50.3-47.4-50.3-47.4z" fill="#f7a94b"/><path d="m366.1 29.3c.2.6 4.3 13.1 2 25.1-8.3 42.4-40.9 27.1-54.4 38.2 9.6 9.5 18.9 17.7 22.9 18.1 9.6.9 50.2-12 50.2-34.7.1-19-7.6-35.8-20.7-46.7z" fill="#ea973d"/><g><path d="m313.1 169.6-57.1 1.3-57.1-1.3s-116.2 193.7-63.4 246.5c18.8 18.8 68.7 41.2 120.5 39.1 51.8 2.1 101.7-20.2 120.5-39.1 52.8-52.8-63.4-246.5-63.4-246.5z" fill="#ea973d"/><path d="m298.1 207.2-42 1-42.1-1s-85.6 142.7-46.7 181.6c13.9 13.9 50.6 30.3 88.8 28.8 38.2 1.6 74.9-14.9 88.8-28.8 38.8-38.9-46.8-181.6-46.8-181.6z" fill="#febf65"/><path d="m343.8 226.8c-16.3-33.3-30.7-57.3-30.7-57.3l-57.1 1.3-57.1-1.3s-14.4 23.9-30.7 57.3c53 24.5 122 24.7 175.6 0z" fill="#ea973d"/><g><g><path d="m321.5 202.4s29.5-2.4 53.9 21.3c29.1 28.3 79.9 95.2 71.6 119.8-8.2 23.9-65.1 36.9-80.4 8.9-10.2-18.6-11.2-86.2-45.1-150z" fill="#f7a94b"/></g><g><path d="m190.6 202.4s-29.5-2.4-53.9 21.3c-29.1 28.3-79.9 95.2-71.6 119.8 8.2 23.9 65.1 36.9 80.4 8.9 10.1-18.6 11.1-86.2 45.1-150z" fill="#f7a94b"/></g></g><g><g><g><path d="m172 91.1c-6.8-1.8-17.9-6.5-21.8-11.5.8-35.4 34.3-35.4 34.4-35.4 6.8 0 12.6 9.6 16.1 18.1-11.2 12.3-22.4 23.6-28.7 28.8z" fill="#9b500d"/></g><path d="m184.4 44.2c-11.8.3-21.5 5.5-27.5 14 9.2-6.5 19.7-6.2 19.9-6.2 6.8 0 12.6 9.6 16.1 18.1 0 0 .5.2 7.8-7.8-8.1-19.8-16.2-18-16.3-18.1z" fill="#8e4509"/><g><path d="m341.5 93.8c-6.5-5.5-18-17.2-28.7-28.8 8.1-19.8 16.2-18 16.3-18.1 19.8.4 33.7 14.9 34.2 35.4-3.8 5-14.7 9.7-21.8 11.5z" fill="#9b500d"/></g><path d="m333 47.2c11 5.7 18 17.1 18.3 31.5-3 3.9-10.9 7.7-15.9 9.6 2.3 2.2 4.4 4.1 6.1 5.5 6.8-1.8 17.9-6.5 21.8-11.5-.4-19.1-12.6-33-30.3-35.1z" fill="#8e4509"/></g><g><path d="m256 46.9c-59.4 0-107.6 46.8-107.6 96.5 0 57.3 21.3 83.6 107.6 83.6s107.6-26.3 107.6-83.6c0-49.7-48.1-96.5-107.6-96.5z" fill="#f7a94b"/></g></g></g><path d="m375.4 223.7c-10.5-10.2-22-15.6-31.6-18.4-2.3 2.1-4.9 4.1-7.7 5.9 83.6 55.8 81.5 130.7 36.6 113.2-5.6-2.2-10.4-2.4-14.1-1.8 2.6 13.5 4.9 24 8 29.7 15.3 28 72.2 15.1 80.4-8.9 8.3-24.4-42.5-91.3-71.6-119.7z" fill="#ea973d"/><path d="m150.4 337.6c6.1-26 11.5-74 33.6-121.9-6.2-2.9-11.4-6.3-15.7-10.3-2.1.6-4.3 1.3-6.5 2.2 3.4 3.4 5.7 7 4.8 10.5-2.8 10.6-35.6 84.3-39.2 98.2-3.6 14-21.8 27-33.4 27.4-8.4.4-20.7-9.7-27.6-18.8-2.3 7.4-2.9 13.8-1.3 18.6 3.8 11.1 18.1 19.9 33.9 23.3 8.8-22.3 27.8-31.3 51.4-29.2z" fill="#ea973d"/><path d="m264.1 398.4c-6.8 4.5-15.6 4.4-22.3-.1-26.8-17.8-91.8-66.1-82.8-109.9 8.1-39.7 43.5-51.7 65.3-47.2 24.4 5 29 21.1 29 21.1s19.9-27.2 60.2-21.5 55.9 60.9 21 99c-24.4 26.6-54.4 48.1-70.4 58.6z" fill="#fc397e"/><g><path d="m285.7 242.1c34.9 9.9 42.5 57.5 14.6 97.7-14.7 21.2-29.7 45-42.8 61.4 13.6-3.1 60.2-43 77.1-61.4 40.5-44.3 14.2-113.9-48.9-97.7z" fill="#e22371"/></g><g><path d="m228.4 381.1c24.5 32.6 19.5 78.5-11.9 101.5-31.7 23.1-77.6 15.2-100.8-16.7-24-33-32.8-96.2-1.7-119.6 31.2-23.4 89.9 2.2 114.4 34.8z" fill="#f7a94b"/></g><path d="m283.4 381.1c-24.5 32.6-19.2 78.1 11.9 101.5s76.3 15.9 100.8-16.7 32.8-96.2 1.7-119.6-89.8 2.2-114.4 34.8z" fill="#f7a94b"/><path d="m388.3 341c5.2 13.1 11.2 36.9 3.7 66.8-11.6 46.2-73.9 63.1-104.1 49.6-6-2.7-10.6-3.1-14-2 21.3 49.1 88.4 55.6 122.3 10.6 26.8-35.8 34.1-108-7.9-125z" fill="#e08c38"/><path d="m307.3 466.8c-21.8-16.4-26.4-49.2-8-73.7 19.8-26.4 67-45.6 86.6-30.9 21.5 16.2 12.1 68.3-5.6 91.8-10.6 14-27 22.4-43.8 22.4-1-.1-15.3.9-29.2-9.6z" fill="#ffca8a"/><path d="m380.3 454c19.6-26.1 28.5-85.9-1.5-95.3-.3 8.7-2.9 22.7-12.9 43.1-18.8 38.3-50.6 45-59.7 27.2-4.5-8.8-9.6-17.5-14.1-23.4-9 21.6-3.7 47 15.2 61.2 14.1 10.6 29.3 9.7 29.2 9.7 16.9-.1 33.3-8.5 43.8-22.5z" fill="#f4b876"/><path d="m133.1 338.2c21.9 10.6 76 40.7 78.7 79.3 3.4 48.5-32.9 63.4-53.7 67.2-5.4 1-9.3 2.9-12.2 5.1 22.7 9.7 49.7 7.9 70.5-7.3 31.5-23 36.5-68.9 11.9-101.5-20-26.6-63.1-48.6-95.2-42.8z" fill="#e08c38"/><path d="m202.3 466.8c21.8-16.4 26.4-49.2 8-73.7-22.9-30.5-102.9-67-98.8 8.5 2 37.6 23.3 74.8 61.6 74.8 1-.1 15.2.9 29.2-9.6z" fill="#ffca8a"/><path d="m166.5 458.3c-10.7 4.3-19.4 6.3-25.5 7.3 32.5 24 75.8 5.9 80.4-32.6 6.7-57.3-78.8-91.1-100.4-68.4 6.8 2.2 16.5 6 26.9 12.3 19.4 11.8 49.1 27.9 39.5 48.1-9.7 20.3 2.1 24.2-20.9 33.3z" fill="#f4b876"/><path d="m247.8 268.8s-25.4-22.3-48-15.6-28.1 23.3-28.5 41.4 6.3 30.3 19.2 42.7c13 12.4 26.1 25.6 44.4 34.5s21.2-16.8 7.4-30.8c-13.8-14.1-14.1-28.2-4.2-33.7s6.1-2.6 19.3-11.2c13.2-8.7-1.2-26.4-9.6-27.3z" fill="#ff5097"/><path d="m257.2 46.9c15.7 12.9 53.7 36 64.3 63.8 14.3 37.7 6.1 67.2-8.7 81.8-14.7 14.6-49.2 30.8-88.8 30.8-4.8 0-9.1.1-12.9.4 12.5 2.2 27.4 3.3 44.9 3.3 86.3 0 107.6-26.3 107.6-83.6 0-49.4-47.5-95.9-106.4-96.5z" fill="#ea973d"/><ellipse cx="256" cy="182.3" fill="#ffca8a" rx="48.5" ry="38.7"/><path d="m247.6 144.2c22.8 3.2 40.1 19 40.1 38.1s-17.3 35-40.1 38.1c30.6 4.3 57-14.7 57-38.1 0-23.2-26.2-42.4-57-38.1z" fill="#f4b876"/><path d="m283.3 191.9c-6.9 5.4-15.7 8.6-24.9 9.1-.8-18.1 1.8-24.6-2.4-24.6-4.4 0-1.6 6.2-2.4 24.6-21.1-1.1-24.8-13-28.3-8.6-4.8 6.2 33.3 24.9 60.9 3.4 2.6-2-.4-5.8-2.9-3.9z" fill="#2a3951"/><ellipse cx="256" cy="170.8" fill="#9b500d" rx="22.5" ry="13.9"/><path d="m260.5 157.2c15.9 9.4 2.5 26.5-20.1 23.6 14.3 8.5 38 2.1 38-10 .1-6.7-7.6-12.3-17.9-13.6z" fill="#8e4509"/><path d="m228.9 57.2s-45.9 16.2-58.1 41.2c-22.2 45.6-9.6 88.9-2.6 88.9 4.8 0 8.7-16.4 15.7-37.2s13-22 27.1-34.5 31.3 25.8 60.5 5.9c29.1-19.9 26.4-18.9 18.6-34-11.9-23.1-47.9-35.9-61.2-30.3z" fill="#ffba76"/><g><g><path d="m217.6 147.5c-15.4 0-15.4-23.3 0-23.3 6.4 0 11.6 5.2 11.6 11.6s-5.2 11.7-11.6 11.7z" fill="#9b500d"/><path d="m224.5 135.8c0 9.1-13.7 9.1-13.7 0 0-3.8 3.1-6.9 6.9-6.9 3.7 0 6.8 3.1 6.8 6.9z" fill="#730"/><path d="m221.9 135.8c0 5.7-8.5 5.7-8.5 0-.1-5.6 8.5-5.6 8.5 0z" fill="#42210b"/><path d="m214.3 133.2c-3.2 0-3.2-4.9 0-4.9 1.3.1 3.2 4.9 0 4.9z" fill="#fff"/></g><g><path d="m294.5 147.5c-15.4 0-15.4-23.3 0-23.3s15.3 23.3 0 23.3z" fill="#9b500d"/><path d="m294.5 142.7c-9.1 0-9.1-13.7 0-13.7 9-.1 9 13.7 0 13.7z" fill="#730"/><path d="m294.5 140.1c-5.7 0-5.7-8.5 0-8.5 5.6-.1 5.6 8.5 0 8.5z" fill="#42210b"/><path d="m290.5 134.9c-3.2 0-3.2-4.8 0-4.8 1.4-.1 3.2 4.8 0 4.8z" fill="#fff"/></g></g><path d="m242.4 147s-21.2 7.3-25.7 20.5-4 20.8-2.8 23.6 8.1-4.6 9.6-5.2c1.6-.6 13.2 4.5 14.9 3 1.7-1.4-6.7-2.4-8.5-12.5s.1-14.7 7.2-19.5c7.2-4.8 10-9.4 5.3-9.9z" fill="#ffd8ae"/><path d="m146.9 215.4c-18.5 12.6-60.8 63.9-76.3 98.6 1.4 4.9 4.6 8 15.2 6.7 17-2.1 28.2-19.7 28.2-19.7s23.1-39.2 27-51.7 4.8-26.6 4.8-26.6.9-3.5 1.1-7.3z" fill="#ffb666"/><path d="m343 236.4s3 18.3 7.2 21.2c19.9 13.8.3 45 9.3 50.4 6.4 3.9 26 9 27.6 1.9s-6.4-39.5-11.2-47.5c-4.8-8.1-23.1-26.4-32.9-26z" fill="#ffb666"/><path d="m143.9 39.6s-12.8 20.9-12.7 30.5c.4 23 6.6 19.7 22.6 29 1.9 1.1 2.2-4.5-1.4-8.7s-12-12.2-11.7-20.3c.3-8 6.2-27.3 3.2-30.5z" fill="#ffb666"/><path d="m237.3 171s.7-7.7 6-9.8 13-2.6 14.6-1.9 3.6 7.2-2.9 11.2c-6.4 3.8-15.6 3.5-17.7.5z" fill="#b26628"/><g fill="#fff"><g><path d="m167.1 113.1s5.3-15.7 13.4-24.2 10.9-11.3 16.5-11.5 1.7 6.6-3.1 10c-4.7 3.4-20.8 25.4-23.1 26.6-2.1 1.2-3.9 1.8-3.7-.9z"/><path d="m203.8 71s3.1-4.9 7.6-4 3.2 7.9 0 9.3c-3.2 1.3-9.7-1.5-7.6-5.3z"/></g><g><path d="m174.5 295.4s-1.5-13 3-19.9 6.1-10 9.9-9.9 3.3 3.5-.5 8.1-8 15-7.3 18.7-4.5 6.7-5.1 3z"/><path d="m192 259.2c.8-1.4 4.9-3.4 9.9-3.5 6.1-.1 5.7 3.7 3.8 4.7s-4.4 2.3-6.1 2.9c-3.2 1.4-8.6-2.4-7.6-4.1z"/></g><path d="m308.3 392c-.9-.4-1.2-6.4 13.1-13.8s16.9-11.1 24.5-12.5 9.7-5.5 8.8-1.4c-1 4-18 9.4-18 9.4s-17.3 10.5-19.6 14.2-4.4 6.1-8.8 4.1z"/><path d="m115.3 403.4s-3-22.1 5-29.8c8-7.6 10.6-6.3 8.2 0s-10.9 4.2-9.5 16.8.2 16.9-3.7 13z"/></g></g><g fill="#2a3951"><path d="m272.5 456.8c-8.4.5-26.9.3-32.9 0-10.7 24.5-33.6 39-58.5 41.1-68.5 5.9-103.5-78.8-85.4-129.9-23.8-4.8-31.4-19.9-31.2-19.7-14.4-26.3 37.7-90.4 57.6-112.5 13.1-14.5 23.3-24.7 41.8-31-20.8-21.8-23.6-68.2-10.2-97.3-14.9-5.8-29.6-15.4-30.8-31.4.1-1-.6-13.6 5.4-27.2 10.2-23.2 32.7-36.2 56.4-35.3 19.2 1 31.4 17.1 38.2 35l.2.6c21.2-6.2 43.8-6.3 65.6.2 7.4-18.5 20.2-35.1 40.2-35.1 12.1 0 24.4 3.3 34.6 10.2 13.8 9.3 23.8 26 25.3 46.1 0 .1.2 5.2.2 4.9.3 15.9-16.5 26.7-31.4 32.3 13.6 29.5 10.3 75.5-10 97 14.1 4.6 23.4 11.6 32.7 20.9 12.9 12.9 31 34.4 44.4 54.1 10.1 14.9 28.5 44.3 25.4 62-.5 2.5-1.4 4.5-2.6 6.7-.1.1-.7 1.1-.6 1-6.7 10.1-18.8 15.9-30.4 18.4 16.8 46.9-11.5 130.7-79.8 130.7.1-.1-44.8 2-64.2-41.8zm88.8-116.3c-9.2.8-18.8 3.2-28.6 7.2-112.2 45.6-55.8 172.5 27.4 142 9.1-3.3 17.6-8.6 24.8-15.3 38.3-35.8 49.3-140.1-23.6-133.9zm-261.5 82.1c26.5 116.1 163 74.7 139.9-13.8-5.2-19.9-17.7-34.7-34.4-46.9-61.7-44.7-124-21.2-105.5 60.7zm171.2 30.6c-7.1-18.6-6.4-40 2.2-58.8-2.8 1-15.9 16.1-32.2 5.6 6.7 18.2 6.2 37.1.1 53.2 3.9.2 23.9.3 29.9 0zm-8-56.2c18.9-13 12.4-8.5 13.8-9.5 11.1-19.2 31.4-34.5 51.1-43.4 11.3-12.7 18.7-22.5 22-40.3 4.8-25.4-6.9-57-40.7-60.5-23-2.4-43.7 7.5-54.1 20.3-.8 1.1-2.2 1.1-3.2.4-.7-.5-.6-.9-1.2-2.2-.8-1.8-1.4-2.7-2-3.5-2-2.8-3.6-4.3-3.5-4.2-21.8-22.2-75.7-14.2-84.9 37.8-2.2 18.4 8.2 36.3 19.9 50.8.5.2 13.6 5.2 27.6 15.6 16 11.9 25 23.8 30.5 35.6.2 0 12 11.3 24.7 3.1zm-96.1-189.3c-18.6 6.2-28.5 16.4-41.5 31.1-17.3 19.5-68.9 83.8-56.6 106.8 5 9.3 18 15.7 28.2 18.7 9.2-21.9 28.5-31 52-29.4 1.2-5.5 2.5-12 3.8-18.9 4.9-25.4 3-30.6 9.6-44.4 4.6-20.2 10.3-38.3 17.3-55.1-4.7-2.4-9-5.3-12.8-8.8zm248.3 156.5c8.7-2.6 20.4-8.2 25.6-15.4.6-.7 1.1-1.5 1.8-2.6.4-.8 1-1.7 1.3-2.7.8-1.8 1.1-3.8 1.1-5.8.1-6.2-2.2-13.4-4.6-19.1-4.9-12-12.8-25.2-20.1-35.9-17.2-25.5-41.6-54.2-53.3-63.1-6.6-5.2-14.2-9.2-22.5-11.9-4.1 3.6-8.5 6.5-13.1 8.9 5.2 12.3 9.8 25.6 13.6 39.6 10 13 13.1 29.3 10.9 45 2.4 11.7 4.7 24.8 6.7 33.5 24-1.8 43.2 7.5 52.6 29.5zm-60.9-54.1c-3.3 11.7-9.3 21.3-17.4 30.3 7.6-2.7 15.1-4.6 22.3-5.4-1.6-7.2-3.1-15.6-4.9-24.9zm-201.5 25.2c6.8.8 13.8 2.4 20.9 4.9-7-9.3-12.9-19.5-15.8-30.7-2 10.2-3.5 18.6-5.1 25.8zm33-115.1c-5.8 12.1-11.1 25.4-15.7 39.6 23.6-29.3 68.7-27.2 83.9-1.6 20.4-22.8 61.8-29.4 84.9-9-3.7-10.4-7.8-20.3-12.3-29.6-31.9 12.7-94.9 12.4-126 5.1-5.1-1.2-10.1-2.7-14.8-4.5zm88.5 3.9c70.1-3.7 87.2-29.5 87.2-80.8-.3-76.9-106.9-127.3-176.8-67.2-19.7 17-33.2 41.2-33.3 67.2-.1 30.2 5.3 55.4 31.9 69 1.7-.5 25.4 15.2 91 11.8zm75.3-130.9c4 5.8 6.5 11 6.6 11.1 13-5.4 27.3-14.2 28.3-28.2 1.3-30.1-23.7-58.5-55.6-58.5-18.5 0-30 15.6-36.6 32.8 7 2.3 14 5.4 21 9.5 3-5.4 7.2-11.9 12.9-13.9 2.9-.7 6.7-.2 6.6-.2.1 0 4 .6 3.8.6 8.2 2 15.5 5.4 21.3 13 4.5 5.9 5.4 10 6 11.5.2.7 1.2 3.9 1.8 7.6 0 .1.5 4.1.5 3.8.4 3.9-12.6 9.5-16.6 10.9zm-203-61.3c-20.6 18.1-18.9 43.1-19.1 44.1.2.5-1.6 15.9 27.8 28.1.1-.1 3.1-6.5 8.5-13.8-3.5-1.4-15.5-7.3-15.5-10.7.8-37.1 36.1-37.2 36.2-37.2 7.3 0 12.9 8.6 16.3 15.9 6.3-3.4 12.5-6 18.7-8.1-7-16.1-17.5-31-35-31.8-1.8-.1-27.2 4.1-37.9 13.5zm169.6 29.7c12.6 7.8 23 17.4 31 28.3.1-.1 9-3.9 13.2-8.6 0-.1 0-2.6 0-2.4-.2-5-2.2-11.2-3.9-14.2-3.4-7.1-10.4-13.1-20.5-15.6-5.9-.8-12.7-4.2-19.8 12.5zm-164.1 17.3c3.3 3.5 9.6 6.6 14.1 8.3 8.3-10.5 18.8-19.8 31.5-27.2-6.7-14.6-13.2-14-13.3-14-18.3.4-31.6 13.9-32.3 32.9z"/><path d="m358.2 356c54.8-9.8 47.9 61.9 27.5 94.8-2.3 3.6-3.8 5.7-6.4 8.6-5.9 6.6-12.7 11.4-19.7 14.6-69.8 31.1-123-86.1-1.4-118zm.6 3.8c-115.5 29.5-65.2 138.6-1.5 109.4 6.4-2.9 12.4-7.3 17.4-12.6 24.1-25.9 38.3-105.9-15.9-96.8z"/><path d="m131.6 459.7c-31-33.3-40.6-136.3 44.5-95.8 76.4 36.4 50.4 114.5-2.8 114.5-.1 0-23.2 1.3-41.7-18.7zm41.5 14.8c44-.1 68.4-58.1 20.1-95.3-14.3-11-32.8-19.3-50.7-20-48.6-1.4-34.4 115.2 30.6 115.3z"/><path d="m222.6 212.7c-34.3-24.4-13.7-71.1 33.5-71.4 30.5 0 50.9 20.1 50.9 41-.3 35.4-52.4 53.2-84.4 30.4zm33.3-66.9c-42.6 0-62.4 41.4-31.1 63.8 30.2 21.7 77.7 4.2 77.4-27.3 0-18.5-18.7-36.3-46.2-36.5z"/><path d="m241.2 183.4c-17.6-8.9-9.5-28 14.9-28.3 24.1.2 33 19.5 14.9 28.4-6.9 3.4-14 3.1-14.9 3.2-2.2-.2-8 .2-14.9-3.3zm1.6-3.4c20.4 10 46.9-8 26.4-18.3-7.6-3.8-47.2 8-26.4 18.3z"/><path d="m217.5 148.8c-7.1 0-13-5.9-13.1-13-.2-11.9 14.3-18 22.7-9.5 8.1 8.3 2.2 22.5-9.3 22.5zm-6.9-20c-9.7 9.3 4.7 23.9 14.2 14.2 6.3-6.5 1.4-17.1-7.1-17.1-.1.1-4-.2-7.1 2.9z"/><path d="m285.3 145c-5.2-5.2-5.1-13.4-.2-18.6 8.3-8.9 23.5-2.7 23.2 9.4-.2 11.8-14.7 17.8-23 9.2zm-.2-13c-2.9 6.5 1.6 13.9 9 13.9 12.8 0 13.1-19.3.3-19.7-2.4-.2-7.6 2-9.3 5.8z"/></g></g></g></g></svg>