<svg id="Layer_1" enable-background="new 0 0 68 68" height="512" viewBox="0 0 68 68" width="512" xmlns="http://www.w3.org/2000/svg"><g><g><g><g><g><path d="m56.9 31.3c.8 2.7-.1 4.8-2.3 6.2-1.1.7-2.3 1.1-3.5 1.4-3.5.9-7.3 1.1-10.3.7 0-.1-4.1-9.5-3.9-8.9-.3-3 .3-6 1.6-8.9.6-1.3 1.5-2.5 2.7-3.1 2.8-1.4 7.8.5 8.7 3.9.4 1.6-.1 3.3-.6 4.8 1.4-.8 3.2-.8 4.6 0 1.5 1 2.5 2.4 3 3.9z" fill="#fd625d"/></g><g><path d="m56.9 31.3c.8 2.7-.1 4.8-2.3 6.2-1.1.7-2.3 1.1-3.5 1.4-2.9.8-6 1-9.1.8-.7-.5-1.3-1.1-2-1.8l-3-7.1c-.2-2.3.1-4.7.8-6.9.5.2 1.4.7 3.2 1.3 2.8.9 5.8 1.3 8.8 1-.1.4-.2.9-.4 1.3 1.4-.8 3.2-.8 4.6 0 1.4.9 2.4 2.3 2.9 3.8z" fill="#fc4949"/></g></g><g><path d="m43.8 48.7-24.4 10.8c-1.1.5-2.4-.1-2.8-1.3-1.4-3.7 4.6 13.3-12.6-35.8-.5-1.3.1-2.8 1.3-3.3 2.6-1.1-9.3 4 25.2-10.8 1.2-.5 2.5.1 2.9 1.4 2.8 8.6 3.1 9.5 11.7 35.8.4 1.3-.2 2.7-1.3 3.2z" fill="#fc95ce"/></g><g><path d="m36.9 20.6c-3.4 2.9-7.3 5.3-11.6 6.9-6 2.3-12.6 3.1-18.9 2.1l-2.4-7.2c-.5-1.3.1-2.8 1.3-3.3l17.3-7.4c3.7-.7 7.5-.9 11.4 0z" fill="#f980c8"/></g><g><path d="m46.3 53.6-27.7 6.2c-1.3.3-2.6-.5-3-1.7l-1.8-5.4-9.9-30.5c-.4-1.3.3-2.6 1.6-2.9l28.5-6.6c1.4-.3 2.8.6 3.1 1.8l10.9 36.3c.3 1.3-.4 2.5-1.7 2.8z" fill="#feadd6"/></g><g><path d="m62.7 20c-1.5 1-3.2 1-8.4 1.7-.6.1-1.1-.3-1.1-.9 0-.5-.1-1-.1-1.6-.1-1.7-.2-3.7.3-5.4.4-1.7 2.1-2.5 3.8-2 1.2.4 2.1 1.3 2.2 2.5 0 .3-.4 1.3 0 1.5.3.1.7-.4 1-.6.3-.1.8-.3 1.3-.3 3.1-.1 3.3 3.6 1 5.1z" fill="#fd625d"/></g><g><path d="m62.7 20c-1.5 1-3.2 1-8.4 1.7-.6.1-1.1-.3-1.1-.9 0-.5-.1-1-.1-1.6.4.2.7.4.9.4 1 .3 2.1.3 3.1-.2.8-.4 1.4-1.2 2-2s1.1-1.6 1.6-2.4c.3-.1.6-.2.9-.2 3.2 0 3.4 3.7 1.1 5.2z" fill="#fc4949"/></g></g><g opacity=".88"><path d="m33.1 14.9c-.5.4-.5 1.3.1 1.6s1.4-.2 1.4-.8-.7-1.2-1.3-.9z" fill="#fff"/></g><g opacity=".88"><path d="m5.9 21.3c-.5.4-.5 1.3.1 1.6s1.4-.2 1.4-.8-.7-1.2-1.3-.9z" fill="#fff"/></g><g opacity=".88"><path d="m17 57.2c-.5.4-.5 1.3.1 1.6s1.4-.2 1.4-.8-.7-1.2-1.3-.9z" fill="#fff"/></g><g opacity=".88"><path d="m44 50.4c-.5.4-.5 1.3.1 1.6s1.4-.2 1.4-.8-.7-1.2-1.3-.9z" fill="#fff"/></g><g><g><path d="m29.1 40.9c2.8-4 4.3-8.8 5.3-13.6.3-1.5.6-3 .8-4.4-.4-1.2-.8-2.5-1.2-3.7-.3-.8-1-1.3-1.9-1.2-7.7.8-15.3 2.5-22.6 5-.9.3-1.4 1.2-1.1 2.1 1.4 5.3 3 10.4 4.7 15.6l2.7 7.8c.3.9.7 1.8 1 2.8 4.7-2.8 9.2-5.9 12.3-10.4zm-11.6-5.8c-.6-1.6-.3-3.5.9-4.7.9-.8 2.1-1.2 3.3-1 .4.1.7.2 1 .4.7.4 1.6 0 1.9-.7s.7-1.3 1.3-1.8c1.2-1 3.1-1.2 4.5-.4 1.3.8 2 2.4 2 3.9s-.5 3-1.3 4.4c-.9 1.8-2.1 3.4-3 5.2-.3.6-1 .8-1.6.6-2-.6-4.1-1-5.8-2.1-1.4-.9-2.6-2.2-3.2-3.8z" fill="#fc95ce"/></g><g><path d="m28.2 40.4c.9-1.8 2.1-3.4 3-5.2.7-1.4 1.3-2.8 1.3-4.4 0-1.5-.7-3.1-2-3.9-1.4-.8-3.2-.6-4.5.4-.6.5-1 1.1-1.3 1.8-.3.8-1.2 1.1-1.9.7-.3-.2-.7-.3-1-.4-1.2-.2-2.4.1-3.3 1-1.2 1.2-1.5 3.1-.9 4.7s1.8 2.9 3.2 3.7c1.8 1.1 3.8 1.6 5.8 2.1.6.3 1.3 0 1.6-.5z" fill="#fc95ce"/></g><g opacity=".88"><path d="m28.2 40.4c.9-1.8 2.1-3.4 3-5.2.7-1.4 1.3-2.8 1.3-4.4 0-1.5-.7-3.1-2-3.9-1.4-.8-3.2-.6-4.5.4-.6.5-1 1.1-1.3 1.8-.3.8-1.2 1.1-1.9.7-.3-.2-.7-.3-1-.4-1.2-.2-2.4.1-3.3 1-1.2 1.2-1.5 3.1-.9 4.7s1.8 2.9 3.2 3.7c1.8 1.1 3.8 1.6 5.8 2.1.6.3 1.3 0 1.6-.5z" fill="#fff"/></g><g><path d="m48 50.8-10.9-36.3c-.1-.2-.2-.5-.3-.7-.6 3-1.1 6-1.6 9 2.6 8.1 5.3 16.1 7.9 24.2.3 1-.3 2-1.2 2.2-7.2 1.9-14.2 4.7-21.5 5.8-.5.1-1.1.2-1.6 0-1-.3-1.2-1.9-1.5-2.7-.1-.4-.3-.8-.4-1.2-1 .5-1.9 1-2.9 1.5l1.8 5.4c.4 1.2 1.8 2 3 1.7l27.7-6.2c1.1-.2 1.8-1.4 1.5-2.7z" fill="#fc95ce"/></g><g><path d="m18.6 55.1c.5.2 1.1.1 1.6 0 7.4-1.1 14.3-3.9 21.5-5.8 1-.3 1.5-1.3 1.2-2.2-2.6-8-5.3-16.1-7.9-24.2-.2 1.5-.5 3-.8 4.4-1 4.8-2.5 9.6-5.3 13.6-3.1 4.5-7.6 7.6-12.4 10.2.1.4.3.8.4 1.2.6.9.7 2.4 1.7 2.8z" fill="#f980c8"/></g></g></g><g><path d="m13.8 38.2c-2.4-2.9-3.7-6.6-3.8-10.4 0-.1.1-.3.2-.3.1 0 .2.1.3.2.1 3.7 1.4 7.3 3.7 10.1.1.1.1.3 0 .4s-.3.1-.4 0z" fill="#f970c1"/></g><g><path d="m13.4 34.5c-.8-1.5-1.4-3-1.9-4.7 0-.1 0-.3.2-.3.1 0 .3 0 .3.2.4 1.6 1 3.1 1.8 4.6.1.1 0 .3-.1.3s-.2 0-.3-.1z" fill="#f970c1"/></g><g><path d="m38.1 45.8c-.1 0-.2-.1-.2-.3.5-4.1-.1-8.3-1.7-12-.1-.1 0-.3.1-.3.1-.1.3 0 .3.1 1.7 3.9 2.3 8.1 1.8 12.3-.1.2-.2.3-.3.2z" fill="#f970c1"/></g><g><path d="m36.6 40.8c-.1 0-.2-.1-.3-.2 0-1.1-.3-2.1-.6-3.1-.1-.1 0-.3.1-.3s.3 0 .3.1c.4 1 .6 2.1.7 3.2.1.1 0 .3-.2.3z" fill="#f970c1"/></g><g><path d="m33 22.1c-.1 0-.2-.1-.2-.2-.3-1-.8-1.9-1.5-2.7-.1-.1-.1-.3 0-.4s.3-.1.4 0c.8.8 1.3 1.8 1.6 2.9 0 .2-.1.4-.3.4z" fill="#f970c1"/></g><g><path d="m11.6 24c-.1-.1 0-.3.1-.3l4.5-1.8c.1-.1.3 0 .3.1.1.1 0 .3-.1.3l-4.4 1.9c-.2 0-.3-.1-.4-.2z" fill="#f970c1"/></g><g><path d="m16.1 18.2c-.1 0-.2-.1-.2-.2s.1-.3.2-.3c1.8-.1 3.5-.5 5.2-1 .1 0 .3 0 .3.2 0 .1 0 .3-.2.3-1.7.5-3.5.9-5.3 1z" fill="#fc95ce"/></g><g><path d="m17.8 18.7c0-.1.1-.3.2-.3l3.4-.5c.1 0 .3.1.3.2s-.1.3-.2.3l-3.4.5c-.2 0-.3-.1-.3-.2z" fill="#fc95ce"/></g><g><path d="m13.2 49-3.8-13c0-.1 0-.3.2-.3.1 0 .3 0 .3.2l3.9 13c0 .1 0 .3-.2.3s-.3 0-.4-.2z" fill="#fc95ce"/></g><g><path d="m12.3 43.9-.8-4c0-.1.1-.3.2-.3s.3.1.3.2l.8 4c0 .1-.1.3-.2.3s-.3-.1-.3-.2z" fill="#fc95ce"/></g><g><path d="m42 40.1c-.9-4.3-2.5-8.5-4.5-12.3-.1-.1 0-.3.1-.3.1-.1.3 0 .3.1 2.1 3.9 3.6 8.1 4.5 12.5 0 .1-.1.3-.2.3s-.2-.1-.2-.3z" fill="#f970c1"/></g><g><path d="m41.4 34.7-1.5-3.5c-.1-.1 0-.3.1-.3.1-.1.3 0 .3.1l1.5 3.5c.1.1 0 .3-.1.3-.1.1-.3 0-.3-.1z" fill="#f970c1"/></g><g><path d="m41.7 33.6-.5-1.3c-.1-.1 0-.3.1-.3s.3 0 .3.1l.5 1.3c.1.1 0 .3-.1.3-.1.1-.2 0-.3-.1z" fill="#f970c1"/></g><g><path d="m21.3 56.2c-.1 0-.2-.1-.2-.2s.1-.3.2-.3c3.6-.4 7.1-1 10.6-1.8.1 0 .3.1.3.2s-.1.3-.2.3c-5.5 1.2-9.1 1.6-10.7 1.8z" fill="#f970c1"/></g><g><path d="m25.7 57.2c0-.1 0-.3.2-.3l4.5-1.2c.1 0 .3 0 .3.2s0 .3-.2.3l-4.5 1.1c-.1.1-.3 0-.3-.1z" fill="#f970c1"/></g><g><path d="m37.3 52.7c0-.1.1-.3.2-.3 1.3-.3 2.6-.6 3.9-1.2.1 0 .3 0 .3.1.1.1 0 .3-.1.3-1.3.5-2.6.9-4 1.2-.2.2-.3.1-.3-.1z" fill="#f970c1"/></g><g><path d="m40.2 53.1c0-.1.1-.3.2-.3l.9-.2c.1 0 .3.1.3.2s-.1.3-.2.3l-.9.2c-.1.1-.3 0-.3-.2z" fill="#f970c1"/></g><g><path d="m46.5 38.3c-.1 0-.2-.1-.2-.3 0-.1.1-.3.3-.2 4 .4 7.1-3.6 5.8-7.4 0-.1 0-.3.2-.3.1 0 .3 0 .3.2 1.3 4-2 8.4-6.4 8z" fill="#ed2f2f"/></g><g><path d="m48.8 35.2c0-.1 0-.3.2-.3.8-.2 1.3-1.2.9-2-.1-.1 0-.3.1-.3s.3 0 .3.1c.5 1.1-.1 2.3-1.3 2.7-.1 0-.2-.1-.2-.2z" fill="#ed2f2f"/></g><g><path d="m54.7 36.3c-.2 0-.3-.3-.2-.4 1.2-1.4 1.4-3.4.3-4.9-.1-.1-.1-.3.1-.3.1-.1.3-.1.3.1 1.2 1.7 1.1 4-.3 5.5 0 0-.1 0-.2 0z" fill="#ed2f2f"/></g><g><path d="m53.8 34c-.1 0-.2-.2-.2-.3.1-.4.1-.9 0-1.3 0-.1.1-.3.2-.3s.3.1.3.2c.1.5.1 1 0 1.5 0 .1-.1.2-.3.2z" fill="#ed2f2f"/></g><g><path d="m46.5 20.8c-1.6-1.1-3.7-1.3-5.4-.5-.1.1-.3 0-.3-.1-.1-.1 0-.3.1-.3 1.9-.9 4.2-.7 5.9.5.1.1.1.2.1.3-.1.1-.3.2-.4.1z" fill="#ed2f2f"/></g><g><path d="m61.3 19c0-.1 0-.3.2-.3 1-.3 1.6-1.3 1.3-2.2 0-.1 0-.3.2-.3.1 0 .3 0 .3.2.3 1.2-.4 2.5-1.7 2.8-.2 0-.3-.1-.3-.2z" fill="#ed2f2f"/></g><g><path d="m60.9 18.5c-.1-.1-.1-.3 0-.4.3-.2.5-.6.6-.9 0-.1.2-.2.3-.2s.2.2.2.3c-.1.5-.4.9-.8 1.2-.1.2-.2.2-.3 0z" fill="#ed2f2f"/></g><g><path d="m54.7 14c-.2 0-.3-.2-.2-.3.1-.6.7-1.1 1.3-1.1.1 0 .3.1.3.2s-.1.3-.2.3c-.4 0-.8.3-.9.7-.1.1-.2.2-.3.2z" fill="#ed2f2f"/></g><g opacity=".56"><g fill="#fff"><path d="m46 22.6v.2c0 .3-.3.4-.5.3-.1.1-.3 0-.4-.1-.3-.1-.3-.5.1-.7.2-.1.3-.1.5-.2.1 0 .4.3.3.5z"/><path d="m41.7 20.3c.2-.3.8-.1.7.3v.1c0 .1-.1.2-.3.3 0 0 0 0-.1 0-.4.1-.6-.5-.3-.7z"/><path d="m43.5 23c-.6.1-.8-.3-.8-.7-.1-.6.6-1 .9-.8.5.3.6 1.4-.1 1.5z"/><path d="m42.7 23.5c.3.3-.2.9-.5.5l-.1-.1c-.3-.3.2-.8.6-.4z"/><path d="m45 24.3c0 .3-.1.4-.3.5-.4.2-.7-.3-.5-.6.1-.4.8-.4.8.1z"/><path d="m41.9 22.5c0 .1 0 .1-.1.2-.2.4-.9.1-.6-.4 0-.1.1-.1.1-.2.2-.5.9-.1.6.4z"/></g></g><g opacity=".56"><g fill="#fff"><path d="m57.5 16.2c-.1.3-.5.3-.6.1 0 0 0 0-.1 0-.2-.2-.1-.5.1-.6.3-.2.8.1.6.5z"/><path d="m56 16.7c0 .2-.3.3-.5.2-.1-.1-.2-.1-.3-.2-.3-.1-.2-.5 0-.6 0-.3.4-.4.6-.2h.1c.3.3.3.7.1.8z"/><path d="m54.7 15.1c-.2.3-.8.1-.7-.3 0 0 0 0 0-.1 0-.2.2-.3.3-.3.5-.1.7.5.4.7z"/><path d="m55.1 12.4v-.2c0-.5.8-.5.8 0v.2c-.1.5-.8.5-.8 0z"/><path d="m56.8 14.5c0 .3-.3.5-.6.3-.1 0-.3 0-.4-.2-.2-.3-.3-.7-.1-1 .1-.3.4-.4.6-.2.4.3.6.6.5 1.1z"/></g></g><g opacity=".56"><g fill="#fff"><path d="m16.6 23.8c-.2-.1-.3-.3-.3-.5 0-.5.7-.5.7-.1.3.3 0 .8-.4.6z"/><path d="m18.8 27.1c-.3.2-.5-.1-.6-.3 0-.1 0-.2 0-.3-.3-.4.4-.8.6-.4.3.4.4.8 0 1z"/><path d="m17.7 27.9c.1.2 0 .3-.2.4s-.3.1-.5.1c-.4 0-.5-.5-.2-.7 0 0 0-.1-.1-.1-.1-.3.4-.6.6-.4.3.3.3.5.4.7z"/><path d="m17.4 25c.3.3.5.9.3 1.3-.3.5-.9.1-1.1-.3-.1-.1-.1-.2 0-.3 0-.3.1-.6.4-.8.1-.1.3 0 .4.1z"/><path d="m18.1 23.4s.1 0 0 0c.4-.4 1 .1.6.4 0 0-.1.1-.1.1-.3.4-.8-.1-.5-.5z"/><path d="m15.2 26.8c-.5 0-.5-.8 0-.8.5.1.5.8 0 .8z"/></g></g><g opacity=".56"><g fill="#fff"><path d="m43.1 51.1c-.1.3-.6.4-.7 0 0-.1 0-.3 0-.4 0-.2.3-.3.5-.3h.1c.3.2.3.5.1.7z"/><path d="m43.2 47.8c-.5 0-.5-.8 0-.8.5.1.5.8 0 .8z"/><path d="m39.5 47.3c0 .2-.1.2-.2.3-.2.2-.4.3-.6.1-.2-.1-.2-.3-.2-.4 0-.2.2-.3.3-.4s.1 0 .2-.1c.3 0 .5.2.5.5z"/><path d="m41.6 48.2c-.1.3-.4.4-.6.3-.4-.3-.6-.8-.6-1.1.1-.4.5-.7.9-.5.5.3.6 1 .3 1.3z"/><path d="m40.6 50.2c.1.3-.1.5-.4.5s-.5-.1-.7-.2c-.4-.3 0-.9.3-.7.2-.2.5-.1.6.2.2.1.2.2.2.2z"/><path d="m40 44.9c.5 0 .5.8 0 .8-.5-.1-.5-.8 0-.8z"/><path d="m42 45.4v.2c0 .5-.8.5-.8 0v-.2c0-.5.8-.5.8 0z"/></g></g><g opacity=".56"><g fill="#fff"><path d="m15.4 51.2c0 .2-.2.3-.3.3 0 0 0 0-.1 0-.4.1-.6-.5-.3-.7.2-.2.8 0 .7.4z"/><path d="m16 49.8c-.1.1-.3.2-.5 0-.4-.3-.9-1.1-.4-1.4 0-.1.1-.1.2-.2.2-.1.4-.1.5 0 .2.2.4.4.4.7.1.4 0 .7-.2.9z"/><path d="m16.8 51.7c.2.3.3.5.3.9 0 .3-.4.5-.6.3-.4-.4-.3-.5-.3-.9 0-.3.4-.6.6-.3z"/><path d="m17.7 50.5c0 .1 0 .1 0 0-.1.2-.2.3-.3.3-.4.1-.6-.5-.3-.7.2-.2.7 0 .6.4z"/></g></g><g opacity=".56"><g><path d="m32.4 21.2c.5 0 .5-.8 0-.8-.4.1-.4.8 0 .8z" fill="#fff"/></g></g><g opacity=".56"><g><path d="m33.4 21.8c.5 0 .5-.8 0-.8-.5.1-.5.8 0 .8z" fill="#fff"/></g></g></g></svg>