<?xml version="1.0" encoding="UTF-8"?>
<svg xmlns="http://www.w3.org/2000/svg" xmlns:xlink="http://www.w3.org/1999/xlink" version="1.1" x="0px" y="0px" viewBox="0 0 512 512" style="enable-background:new 0 0 512 512;" xml:space="preserve" width="512" height="512">
<style type="text/css">
	.st0{fill:#none;}
	.st1{fill:#F7ADAD;}
	.st2{fill:#DD8A8A;}
	.st3{fill:#FBB03B;}
	.st4{fill:#F7931E;}
	.st5{fill:#F4D134;}
	.st6{fill:#FCEE7F;}
	.st7{fill:#F288BB;}
	.st8{fill:#D375A6;}
	.st9{fill:#F7D5E7;}
	.st10{fill:#E77268;}
	.st11{fill:#D35A54;}
	.st12{fill:#95C6A4;}
	.st13{fill:#A67C52;}
	.st14{fill:#77AD86;}
</style>
<g id="white_border_00000152248700877809969460000017433746915686901951_">
	<g>
		<path class="st0" d="M479.28,125.42c-4.31-1.37-8.17-4.06-12.25-6.92c-1.57-1.1-3.2-2.24-4.88-3.32    c-6.16-3.96-12.39-6.99-18.52-9.03c-12.43-4.14-24.99-3.85-36.39,0.81c-1.21-0.73-2.44-1.45-3.68-2.15    c1.64-0.71,6.34-2.99,7.13-3.36c5.41-2.55,11.12-3.83,16.91-3.71c7.85,0.16,17.83,4.91,17.83,4.91    c5.34,2.77,10.87,5.64,17.94,5.93c0.13,0,0.27,0.01,0.4,0.01c4.83,0,8.56-3.6,8.76-8.53c0.22-5.3-3.69-9.62-8.89-9.83    c-3.21-0.13-6.54-1.93-10.05-3.84c-2.22-1.2-4.51-2.45-6.98-3.39c-6.05-2.3-12.43-3.52-18.98-3.62c-3.96-0.08-7.91,0.3-11.74,1.07    c0-0.02-0.01-0.04-0.01-0.07c-0.66-3.15-2.94-6.05-6.15-7.18c0.35-0.46,1.15-2.01,1.15-2.01c1.17-2.47,1.67-6.43-0.81-9.46    c-4.48-5.49-12.83-5.55-18.92-5.59c-0.81,0-16.29,0.34-23.58,1.66c-15.44,2.8-27.68,11.58-39.54,20.08    c-0.96,0.69-1.79,1.48-2.45,2.33c-1.53-0.24-3.03-0.47-4.5-0.68c2.82-3.69,6.18-7.15,9.67-10.73c1.95-2.01,3.96-4.07,5.89-6.21    c2.33-0.13,4.62-0.17,6.85-0.11c5.07,0.18,8.99-3.64,9.12-8.77c0.05-1.8-0.39-3.47-1.18-4.91c1.32-0.91,2.7-1.77,4.11-2.58    c0.29-0.17,3.23-2.05,4.04-2.47h0.01c2.71,0,5.1-1.17,6.68-3.29c1.91-2.57,2.25-6.27,0.88-9.42c-1.37-3.15-4.22-5.27-7.63-5.65    c-5.33-0.6-10.96,3.01-16.73,7.1c-0.48,0.34-10.74,8.14-14.94,12.49c-21.15,2.8-41.28,12.38-56.85,27.12    c-0.59,0.55-1.07,1.1-1.47,1.64c-0.75-0.08-11.12-1.17-15.44-1.68c-0.53-1.11-1.28-2.12-2.2-2.97c1.03-0.84,5.67-4.67,6.99-5.73    c10.07-8.07,22.32-12.1,35.35-11.69c3.16,0.11,5.95-1.31,7.55-3.88c1.7-2.74,1.75-6.46,0.14-9.48c-1.61-3.01-4.6-4.87-8.01-4.98    c-13.08-0.42-25.95,2.79-37.25,9.28c-5.07,2.91-9.38,7.06-13.55,11.07c-3.11,2.99-6.12,5.89-9.34,8.21    c-0.83-2.43-2.68-4.57-5.62-5.63c-6.89-2.48-13.88-4.16-21.07-5.03c0.29-0.52,0.53-1.08,0.72-1.68c1.63-5.01-0.95-10.2-5.87-11.79    c-5.88-1.91-11.86-3.42-17.91-4.52c0.32-1.06,0.46-2.17,0.38-3.28c-0.23-3.07-2.04-5.63-4.96-7.03    c-24.55-11.79-55.62-12.14-87.55-0.99c-6.17-3.79-12.11-7.77-17.71-11.87c-1.41-1.03-3.07-1.57-4.81-1.57    c-3.55,0-6.67,2.27-7.77,5.64c-1.1,3.38,0.09,7.06,2.96,9.15c8.65,6.31,17.98,12.3,27.74,17.82c1.57,20.22,8.92,39.16,21.38,55.05    c-0.04,6.04,0.5,12.01,1.63,17.79c0.09,0.47,1.91,9.89,3.42,13.17c-10.63,1.6-19.18,7.11-23.61,15.48    c-3.68,6.95-4.25,15.44-1.53,22.73c2.33,6.25,6.83,10.93,12.66,13.18c4.3,1.66,9.24,2.16,14.74,1.5l-1.58,10.74l-17.91,12.46    l18.18,12.65l2.49,11.01c-6.81,3.76-14.47,8.53-19.92,16.06c-7.32,10.09-8.44,23.4-3.01,35.59c5.23,11.75,15.12,19.64,22.1,24.55    c0.93,0.65,1.88,1.31,2.84,1.96c2.28,1.56,4.62,3.16,6.75,4.88c0.15,0.76,0.31,1.51,0.49,2.26l0.1,0.43    c1.47,5.96,3.88,11.58,7.17,16.75c-0.83,3.02-2.32,6.32-4.44,9.84c-2.63,4.37-16.26,21.56-19.32,26.79    c-6.36,10.87-8.74,22.71-6.87,34.24c2.09,12.87,9.27,24.61,20.46,26.57c7.88,1.38,12.9-1.13,12.9-1.13l-7.26-13.79l9.79-7.76    l-8.12-3.16c-0.35-0.14-1.27-0.5-2.24-2.92c-0.77-1.94-1.19-5.35-0.94-7.78c0.78-7.52,6.29-14.46,11.16-20.58    c0,0,11.11-14.32,14.77-21.45c2.78,1.58,5.69,2.91,8.7,3.98l-4.03,27.27l-14.51,10.1l14.78,10.29l15.19,67.17l7.66-67.45    l14.39-10.01l-14.64-10.18l-4.43-24.07c1.54,0.13,3.08,0.19,4.61,0.19c12.69,0,24.88-4.35,34.67-11.96    c-0.23,0.46-1.06,3.32-1.09,4.27c-0.1,2.84,0.99,5.63,3.1,7.69l2.57,2.5v54.74c-0.37,0.48-11.12,22.13-11.12,22.13l-22.72,3.3    c-3.47,0.5-6.3,2.89-7.39,6.23s-0.2,6.93,2.32,9.38l16.44,16.02l-3.88,22.62c-0.59,3.46,0.8,6.89,3.64,8.95    c2.84,2.06,6.53,2.33,9.64,0.7l20.32-10.68l20.32,10.68c1.35,0.71,2.81,1.06,4.27,1.06c1.89,0,3.77-0.59,5.37-1.76    c2.84-2.06,4.23-5.49,3.64-8.95l-3.88-22.62l16.44-16.02c2.51-2.45,3.4-6.04,2.32-9.38c-1.08-3.34-3.92-5.73-7.39-6.23l-22.71-3.3    c0,0-10.64-21.47-10.93-21.87c0,0,1.79,1.8,3.16,2.8c3.19,2.32,7.33,2.61,10.82,0.78l26.3-13.83c0.08-0.04,0.18-0.04,0.25,0    l26.3,13.83c3.49,1.83,7.63,1.53,10.82-0.78c3.19-2.31,4.75-6.17,4.09-10.05l-5.02-29.28c-0.02-0.09,0.01-0.18,0.08-0.24    l21.27-20.74c2.82-2.75,3.82-6.79,2.6-10.53s-4.4-6.42-8.29-6.99l-29.4-4.27c-0.09-0.01-0.17-0.07-0.21-0.15l-13.15-26.64    c-0.65-1.31-1.54-2.44-2.62-3.34v-1.71c4.25,3.19,15.52,11.57,17.52,13.64c3.77,3.9,6.74,6.98,10.55,6.98    c3.41,0,5.86-2.53,8.71-5.45c1.65-1.7,3.52-3.62,5.29-4.72c4.67-2.92,14.08-9.1,22.79-16.64c0.51-0.08,7.81-6.29,10.65-9.45    c2.8-3.11,5.66-6.4,7.43-10.23c2.35-5.11,2.48-10.68,1.49-16.11c-0.6-3.25-3.11-10.64-3.3-11.21l-0.04-0.12    c-5.19-15.32-16.61-27.45-31.27-33.61c1.18-2.29,1.83-4.86,1.83-7.5c0-9.07-7.38-16.45-16.45-16.45h-0.37v-35.74    c1.51,1.34,3.06,2.63,4.64,3.88c2.65,2.08,6.08,2.58,9.18,1.33c3.17-1.28,5.51-4.19,5.97-7.42c0.43-3.05-0.78-5.95-3.33-7.95    c-5.42-4.25-10.39-9.05-14.8-14.3c1.34-0.82,2.47-2.01,3.25-3.51c0.37,0.6,19.5,24.9,23.16,28.32c1.2,3.96,2.35,7.29,3.58,10.4    c1.25,3.14,3.97,5.31,7.29,5.8c3.38,0.5,6.87-0.83,8.89-3.39c1.74-2.2,2.23-4.98,1.39-7.73c5.69,8.12,12.59,14.23,20.63,18.25    c2.95,1.47,6.31,1.29,9-0.47c2.85-1.87,3.98-4.13,4.36-6.07c0.48-2.45-0.24-4.38-0.2-4.35c2.5,2.17,5.81,2.84,8.87,1.79    c1.19-0.41,2.28-1.06,3.21-1.88c6.78,8.58,14.61,15.75,23.33,21.25c2.74,1.73,5.87,1.89,8.59,0.46c2.89-1.52,4.84-4.71,4.97-8.12    c0.13-3.34-1.5-6.41-4.35-8.21c-15.31-9.66-27.4-23.96-35-41.13c1.13,0.94,2.24,1.9,3.32,2.87c2,1.79,4.61,2.5,7.17,1.95    c0.39-0.08,9.46,11.21,12.95,17.29c2.05,3.57,3.98,6.95,5.93,9.78c1.89,2.74,4.97,4.23,8.21,3.96c3.38-0.27,6.48-2.38,7.9-5.37    c1.35-2.84,1.06-6.02-0.8-8.72c-0.69-1.01-8.01-11.71-11.4-16.02c-5.43-6.9-11.8-13.48-20.04-18.43    c5.88,1.55,11.73,4.38,16.34,6.6c3.88,1.87,7.5,4.32,11.34,6.9c5.66,3.82,11.51,7.77,18.53,9.99c4.81,1.52,9.59-1,11.13-5.86    C486.84,132.15,484.22,126.98,479.28,125.42z M146.63,31.56c-9.19,0.84-18.28,2.6-27.17,5.26c-2.92-1.38-5.82-2.8-8.67-4.25    C122.86,29.98,134.99,29.65,146.63,31.56z M117.28,68.48c-3.63-6.16-6.73-12.36-8.66-18.76c1.82,0.9,3.63,1.76,5.42,2.6    c1.84,2.1,3.77,4.24,5.78,6.38C118.85,62.14,118.01,65.38,117.28,68.48z M118.43,162.98c-0.27,0.02-0.55,0.05-0.84,0.08    c-0.74,0.08-1.61,0.16-2.54,0.16c-1.82,0-3.87-0.34-5.6-1.8c-1.03-0.87-2.3-2.46-2.47-5.09c-0.31-4.65,3.31-8.36,6.5-10.12    c4.92-2.72,11.16-3.46,18.03-2.13l4.7,0.91l-0.25,1.68h0l-1.75,11.84l-2.54,1.11C127.32,161.52,122.86,162.65,118.43,162.98z     M133.42,279.27c-0.15-0.11-0.3-0.22-0.46-0.33c-8.3-5.97-12.69-12.13-12.06-16.91c0.24-1.81,1.85-3.84,4.78-6.05    c0.82-0.62,1.68-1.23,2.61-1.85l5.48,24.22C133.65,278.67,133.53,278.97,133.42,279.27z M132.72,206.68l-5-3.48l5-3.48l5,3.48    L132.72,206.68z M126.09,50.75l0.33,0.14c8.42,3.58,24.03,10.17,24.03,10.17l7.22,7.66c2.58,4.58,4.3,8.06,6.24,13.76    c0,0-2.4-0.74-5.53-2.92c-5.18-3.6-12.44-9.63-14.81-11.72C143.57,67.85,127.05,51.79,126.09,50.75z M145.52,82.59    c0.93,0.75,1.88,1.5,2.82,2.25c2.6,6.95,5,15.97,4.89,25.39c-1.59-2.87-2.74-5.31-3.39-7.19v0    C147.58,96.43,146.13,89.58,145.52,82.59z M149.88,167.91c4.06,6.47,5.95,14.4,5.22,22.42c-0.18,2.02-0.53,4.02-1.02,5.98    l-8.14-5.66l-3.33-18.07C145.14,171.17,147.57,169.61,149.88,167.91z M179.51,223.79h-1.92c-9.07,0-16.45,7.38-16.45,16.45    c0,2.64,0.63,5.19,1.79,7.47c-8.99,4.11-16.75,10.55-22.48,18.48l2.31-20.3c8.53-4.69,16.62-9.73,23-17.33    c7.17-8.54,11.84-19.21,13.75-30.41V223.79z M179.51,175.12c-0.71-4.08-1.8-8.08-3.3-11.95c-2.09-5.39-4.94-10.4-8.5-14.94    c2.52-4.19,4.61-8.63,6.26-13.29c1.99,2.56,3.66,5.2,4.74,8.12c0.22,0.59,0.49,1.14,0.8,1.67V175.12z M179.51,80.06    c-2.13-0.24-4.2-0.61-6.24-1.12c-0.75-2.19-1.48-4.1-2.24-5.88c2.8,0.77,5.63,1.52,8.47,2.25V80.06z M165.23,54.29    c-6.2-1.88-12.29-3.91-18.23-6.06c4.29-0.32,8.65-0.36,13.11-0.13c7.02,0.36,14.26,1.4,21.88,3.16    C176.58,51.88,171.06,52.88,165.23,54.29z M205.16,118.81c1.54,2.72,4.02,12.5,4.12,12.91c-1.16,1.07-2.27,2.17-3.34,3.32    c-0.15-0.66-2.52-13.92-3.36-17.36C203.45,118.06,204.3,118.44,205.16,118.81z M225.51,258.52c-4.73-4.59-10.24-8.31-16.3-11.01    c1.1-2.23,1.7-4.71,1.7-7.28c0-9.07-7.38-16.45-16.45-16.45h-0.23v-29.06c5.74,12.62,16.6,22.18,29.5,24.5l1.77,0.32V258.52z     M225.51,192.12c-4.2-1.62-7.7-6.27-9.35-11.7c3.46,0.92,7.03-0.34,9.35-2.72V192.12z M225.51,165.51    c-0.22-0.21-0.45-0.42-0.69-0.61c-1.93-1.54-3.76-3.22-5.46-5c0.93-1.56,1.99-3.05,3.18-4.46c0.46,0.47,2.44,2.32,2.98,2.8V165.51    z M240.2,400.35v-28.03l4.02,3.92c0.06,0.06,0.09,0.15,0.08,0.24L240.2,400.35z M272.51,230.44c-3.39,4-6.16,8.4-8.28,13.13    c-2.35,4.57-4.12,9.44-5.12,14.45c-1.03,5.16-1.19,10.64,0.57,15.66c1.58,4.52,4.39,8.45,7.77,11.8c1.58,1.57,3.3,3,5.06,4.37    v15.27c-0.43,0.55-14.27,28.43-14.27,28.43c-0.04,0.08-0.12,0.14-0.21,0.15l-17.84,2.59v-19.75c4.58-11,4.58-23.53,0-34.57v-44.32    l10.79,47.75l7.66-67.45l13.85-9.64V230.44z M272.51,207.58l-14.1-9.82l-4.77-25.92c1.42,0.6,2.69,1.32,3.73,2.25    c3.88,3.47,9.69,3.08,13.22-0.87c0.91-1.01,1.55-2.14,1.93-3.32V207.58z M272.51,107.39c-7.07,0.63-14.21,2.03-21.65,4.24    c-0.6-3.05-1.58-6.01-2.95-8.87c9.39-1.51,17.63-1,24.6,1.51V107.39z M311.07,67.29c-1.9,3.12-3.81,6.49-5.79,10.17    c-2.51-0.3-15.38-1.69-15.5-1.7C296.12,71.94,303.37,69.36,311.07,67.29z M300.08,127.04c0.74,1.39,1.5,2.76,2.28,4.1    c-4.24,0.17-8.77,0.31-13.06,0.09c0.08-2.24-2.11-6.77-2.11-6.77C291.17,125.04,295.39,125.89,300.08,127.04z M307.33,191.01    c0,0-4.51,0.17-5.78,0.48c-7.16,1.78-12.48,8.26-12.48,15.96c0,3.06,0.83,5.96,2.32,8.46c-1.43,0.67-2.83,1.41-4.2,2.21v-54.73    c1.13,0.39,2.25,0.86,3.33,1.43c2.96,1.55,6.38,1.42,9.14-0.34c2.87-1.82,4.63-5.13,4.49-8.43c-0.13-3.13-1.87-5.8-4.77-7.32    c-0.16-0.08,5.17,0.12,7.96,0.24V191.01z M307.33,103.41c-1.26-3.16-2.38-6.42-3.37-9.75c1.14,0.13,2.26,0.27,3.37,0.4V103.41z     M312.02,127.81c-1.41-2.3-2.75-4.71-4-7.19c0.99,0.25,4,1.03,4,1.03V127.81z M363.03,88.19c5.05-0.52,10.51-0.01,16.71,0.99    c1.14,0.18,9.88,1.67,13.21,2.03c-2.54,1.42-9.3,3.18-10.22,3.65C376.52,92.39,369.98,90.18,363.03,88.19z M382.44,112.49    c3.9,1.73,7.65,3.58,11.22,5.54c1.75,7.16,3.95,13.98,6.55,20.42C392.81,130.68,386.7,122.47,382.44,112.49z"/>
	</g>
</g>
<g id="Christmas_Decorations">
	<g>
		<g>
			<g>
				<g>
					<g>
						<g>
							<g>
								<path class="st1" d="M281.95,308.1V83.89c0-0.93-0.75-1.68-1.68-1.68h-1.32c-0.93,0-1.68,0.75-1.68,1.68V308.1          c0,0.93,0.75,1.68,1.68,1.68h1.32C281.19,309.78,281.95,309.03,281.95,308.1z"/>
								<path class="st2" d="M277.26,201.65v105.81c0,0.93,0.75,1.68,1.68,1.68h1.32c0.93,0,1.68-0.75,1.68-1.68v-98.02          C280.08,207.09,278.53,204.44,277.26,201.65z"/>
							</g>
							<path class="st2" d="M281.95,132.25v-49c0-0.93-0.75-1.68-1.68-1.68h-1.32c-0.93,0-1.68,0.75-1.68,1.68v57.53         C278.54,137.77,280.08,134.9,281.95,132.25z"/>
						</g>
						<g>
							<path class="st3" d="M285.08,309l13.15,26.64c0.77,1.56,2.25,2.63,3.97,2.88l29.4,4.27c4.32,0.63,6.05,5.94,2.92,8.99         l-21.27,20.74c-1.24,1.21-1.81,2.96-1.52,4.67l5.02,29.28c0.74,4.31-3.78,7.59-7.65,5.56l-26.3-13.82         c-1.54-0.81-3.37-0.81-4.91,0l-26.3,13.82c-3.87,2.03-8.39-1.25-7.65-5.56l5.02-29.28c0.29-1.71-0.27-3.46-1.52-4.67         l-21.27-20.74c-3.13-3.05-1.4-8.36,2.92-8.99l29.4-4.27c1.72-0.25,3.2-1.33,3.97-2.88L275.62,309         C277.56,305.08,283.14,305.08,285.08,309z"/>
							<path class="st4" d="M288.85,395.1c-2.12-1.65-4.47-2.7-7.21-2.33c-3.11,0.42-13.47,6.46-16.17,7.45         c-2.24,0.82-4.97,1.4-7.2,0.24c-2.5-1.3-3.41-4.47-2.97-7.09c0.52-3.1,8.2-12.94,7.48-15.96c-0.66-2.76-2.98-4.74-4.97-6.59         c-2.16-2.01-4.35-4.1-5.49-6.89c-1.34-3.26-0.99-7.3,0.35-10.51c1.39-3.31,12.98-9.89,15.51-11.72         c2.9-2.09,4.03-6.11,4.65-9.45c0.65-3.54,2.47-21.1,4.97-25.34c-0.89,0.49-1.66,1.24-2.18,2.28l-13.15,26.64         c-0.77,1.56-2.25,2.63-3.97,2.88l-29.4,4.27c-4.32,0.63-6.05,5.94-2.92,8.99l21.27,20.74c1.24,1.21,1.81,2.96,1.52,4.67         l-5.02,29.28c-0.74,4.31,3.78,7.59,7.65,5.56l26.3-13.82c1.54-0.81,3.37-0.81,4.91,0l26.3,13.82c3.81,2,8.25-1.16,7.67-5.37         c-2.14,1.48-4.91,1.51-7.62,0.95C306.87,407.35,291.65,397.28,288.85,395.1z"/>
							<g>
								<path class="st5" d="M334.52,351.79c3.13-3.05,1.4-8.36-2.92-8.99l-29.4-4.27c-1.72-0.25-3.2-1.33-3.97-2.88L285.08,309          c-0.71-1.43-1.9-2.33-3.22-2.72c-0.79,0.76,10.88,29.97,10.88,29.97c1.8,2.8,2.36,6.21,6.43,6.86l23.14,3          c6.63,0.96,8.23,3.46,3.43,8.14l-17.14,18.21c-1.91,1.86-0.88,6.59-0.43,9.21c0,0,4.67,22.18,5.36,22.93          c1.71,1.86,2.57,1.29,2.62-1.71l-4.41-25.71c-0.29-1.71,0.27-3.46,1.52-4.67L334.52,351.79z"/>
							</g>
							<g>
								<path class="st6" d="M307.62,340.02c0-0.59-0.43-1.09-1.02-1.18l-3.79-0.55c-2.1-0.31-3.92-1.63-4.87-3.54l-5.33-10.81          c-0.2-0.41-0.61-0.66-1.07-0.66h-2.03c-0.84,0-1.41,0.84-1.11,1.62c2.13,5.52,4.02,10.26,4.29,10.94          c0.02,0.06,0.05,0.11,0.09,0.17c1.76,2.78,2.34,6.14,6.38,6.78l7.12,0.92c0.71,0.09,1.34-0.46,1.34-1.18V340.02z"/>
								<path class="st6" d="M312,368.52l-3.41,3.62c-1.91,1.86-0.88,6.59-0.43,9.21c0,0,0.53,2.53,1.27,5.92          c0.12,0.55,0.6,0.94,1.16,0.94h1.67c0.74,0,1.3-0.66,1.17-1.39l-1.6-9.34c-0.36-2.1,0.34-4.24,1.86-5.72          c0.23-0.22,0.36-0.53,0.36-0.85v-1.58C314.05,368.26,312.73,367.74,312,368.52z"/>
								<path class="st6" d="M331.62,342.64l-15-2.18v4.75l5.68,0.74c6.63,0.96,8.23,3.46,3.43,8.14l-3.64,3.87v5.78l12.45-12.14          C337.66,348.56,335.94,343.26,331.62,342.64z"/>
							</g>
						</g>
					</g>
					<g>
						<g>
							<g>
								<rect x="230.26" y="120.5" class="st1" width="4.69" height="300.18"/>
							</g>
							<g>
								<path class="st2" d="M234.95,370.62V248.19c-1.71-3.27-3.28-6.62-4.69-10.03v137.52          C231.35,373.51,232.86,371.58,234.95,370.62z"/>
								<path class="st2" d="M230.38,396.48c-0.04-0.08-0.08-0.17-0.11-0.25v25.1h4.69v-18.33          C232.98,401.2,231.5,398.87,230.38,396.48z"/>
								<path class="st2" d="M234.95,169.07v-47.92h-4.69v53.71C231.55,172.71,233.1,170.72,234.95,169.07z"/>
							</g>
						</g>
						<g>
							<path class="st3" d="M236.23,416.37l10.36,20.98c0.6,1.23,1.77,2.08,3.13,2.27l23.16,3.36c3.41,0.49,4.77,4.68,2.3,7.08         l-16.76,16.33c-0.98,0.95-1.43,2.33-1.19,3.68l3.96,23.06c0.58,3.39-2.98,5.98-6.03,4.38l-20.71-10.89         c-1.21-0.64-2.66-0.64-3.87,0l-20.71,10.89c-3.05,1.6-6.61-0.99-6.03-4.38l3.96-23.06c0.23-1.35-0.22-2.72-1.19-3.68         l-16.76-16.33c-2.46-2.4-1.1-6.59,2.3-7.08l23.16-3.36c1.35-0.2,2.52-1.05,3.13-2.27l10.36-20.98         C230.31,413.28,234.71,413.28,236.23,416.37z"/>
							<path class="st4" d="M239.2,484.19c-1.67-1.3-3.52-2.13-5.68-1.83c-2.45,0.33-10.61,5.09-12.73,5.87         c-1.77,0.65-3.91,1.11-5.67,0.19c-1.97-1.02-2.68-3.52-2.34-5.58c0.41-2.44,6.46-10.2,5.89-12.57         c-0.52-2.18-2.34-3.73-3.91-5.19c-1.7-1.58-3.42-3.23-4.32-5.42c-1.06-2.57-0.78-5.75,0.28-8.28         c1.09-2.6,10.22-7.79,12.22-9.23c2.28-1.65,3.18-4.82,3.66-7.45c0.51-2.79,1.94-16.62,3.91-19.96         c-0.7,0.38-1.31,0.98-1.72,1.8l-10.36,20.98c-0.6,1.23-1.77,2.08-3.13,2.27l-23.16,3.36c-3.41,0.49-4.77,4.68-2.3,7.08         l16.76,16.33c0.98,0.95,1.43,2.33,1.19,3.68l-3.96,23.06c-0.58,3.39,2.98,5.98,6.03,4.38l20.71-10.89         c1.21-0.64,2.66-0.64,3.87,0l20.71,10.89c3,1.58,6.49-0.91,6.04-4.23c-1.69,1.17-3.87,1.19-6,0.75         C253.4,493.84,241.41,485.91,239.2,484.19z"/>
							<g>
								<path class="st5" d="M275.17,450.08c2.46-2.4,1.1-6.59-2.3-7.08l-23.16-3.37c-1.35-0.2-2.52-1.05-3.13-2.27l-10.36-20.98          c-0.56-1.13-1.5-1.84-2.54-2.14c-0.62,0.6,8.57,23.61,8.57,23.61c1.42,2.2,1.86,4.89,5.06,5.4l18.23,2.36          c5.23,0.76,6.48,2.73,2.7,6.41l-13.5,14.35c-1.5,1.46-0.69,5.19-0.34,7.26c0,0,3.68,17.47,4.22,18.06          c1.35,1.47,2.03,1.01,2.06-1.35l-3.47-20.25c-0.23-1.35,0.22-2.72,1.19-3.68L275.17,450.08z"/>
							</g>
							<g>
								<path class="st6" d="M253.99,440.81c0-0.47-0.34-0.86-0.8-0.93l-2.98-0.43c-1.66-0.24-3.09-1.28-3.83-2.78l-4.2-8.51          c-0.16-0.32-0.48-0.52-0.84-0.52h-1.6c-0.66,0-1.11,0.66-0.87,1.28c1.68,4.34,3.16,8.08,3.38,8.62          c0.02,0.05,0.04,0.09,0.07,0.13c1.39,2.19,1.85,4.84,5.02,5.34l5.61,0.73c0.56,0.07,1.06-0.36,1.06-0.93V440.81z"/>
								<path class="st6" d="M257.43,463.26l-2.68,2.85c-1.5,1.46-0.69,5.19-0.34,7.26c0,0,0.42,2,1,4.66          c0.09,0.43,0.48,0.74,0.92,0.74h1.32c0.58,0,1.02-0.52,0.92-1.1l-1.26-7.35c-0.28-1.65,0.26-3.34,1.46-4.51          c0.18-0.18,0.28-0.42,0.28-0.67v-1.24C259.05,463.05,258.02,462.64,257.43,463.26z"/>
								<path class="st6" d="M272.89,442.87l-11.82-1.72v3.74l4.47,0.58c5.23,0.76,6.48,2.73,2.7,6.41l-2.87,3.05v4.56l9.81-9.56          C277.65,447.54,276.29,443.36,272.89,442.87z"/>
							</g>
						</g>
					</g>
					<g>
						<g>
							<rect x="312.09" y="86.44" class="st1" width="4.69" height="110.2"/>
							<path class="st2" d="M316.8,146.22V86.36h-4.69v65.91C313.54,150.16,315.11,148.14,316.8,146.22z"/>
						</g>
						<g>
							<path class="st3" d="M322.14,218.77h-16.87c-6.32,0-11.45-5.13-11.45-11.45v0c0-6.32,5.13-11.45,11.45-11.45h16.87         c6.32,0,11.45,5.13,11.45,11.45v0C333.59,213.64,328.46,218.77,322.14,218.77z"/>
							<path class="st5" d="M321.98,195.87h-15.81c-0.1,0.11-0.2,1.79,0.66,1.83c4.47,0.22,9.01-0.45,13.46,0.38         c2.79,0.52,5.58,1.72,7.64,3.72c2.14,2.08,5.01,7.48,5.33,7.45c0.11-0.63,0.18-1.28,0.18-1.94         C333.43,201,328.3,195.87,321.98,195.87z"/>
							<path class="st4" d="M331.36,212.64c-2.44,0.23-4.9,0.27-7.34,0.43c-4.24,0.27-8.53,0.57-12.77,0.19         c-2.89-0.26-5.9-0.84-8.26-2.64c-2.58-1.96-3.81-5.16-3.7-8.35c0.07-2.03,0.7-3.91,1.79-5.5c-4.33,1.63-7.41,5.8-7.41,10.7         c0,6.32,5.13,11.45,11.45,11.45h16.87c4.5,0,8.38-2.6,10.25-6.38C331.94,212.58,331.65,212.61,331.36,212.64z"/>
							<path class="st6" d="M330.23,201.11h-11.57c-1.31,0-2.56,1.15-2.5,2.5c0.06,1.35,1.1,2.5,2.5,2.5h11.57         c1.31,0,2.56-1.15,2.5-2.5C332.67,202.25,331.63,201.11,330.23,201.11z"/>
							<path class="st6" d="M309.23,201.53c-3.22,0-3.22,5,0,5C312.45,206.53,312.45,201.53,309.23,201.53z"/>
						</g>
						<g>
							<g>
								<path class="st7" d="M327.14,216.89h-24.25c-22.29,5.44-38.84,25.53-38.84,49.5c0,11.99,20.95,28.56,37,39.14          c5.33,3.51,10.93,11.82,13.96,11.82c2.44,0,6.49-6.38,11.34-9.41c15.81-9.88,39.62-27.95,39.62-41.55          C365.98,242.43,349.43,222.33,327.14,216.89z"/>
								<path class="st8" d="M310.89,222.12c3.78-1.05,7.69-1.68,11.37-3.07c1.39-0.53,2.75-1.23,3.82-2.15h-23.3          c-22.29,5.44-38.84,25.53-38.84,49.5c0,11.99,20.95,28.56,37,39.14c5.33,3.51,10.93,11.82,13.96,11.82          c0.91,0,2.04-0.89,3.35-2.16c-1.69-9.2-6.71-17.48-13.17-24.34c-6.55-6.94-14.45-13.09-18.46-22          c-4.38-9.73-3.88-21.26,0.99-30.72C292.15,229.34,301.76,224.66,310.89,222.12z"/>
								<g>
									<path class="st9" d="M327.99,225.13c0.54,0.53,1.09,1.06,1.63,1.59c0.23,0.24,0.49,0.42,0.8,0.52           c0.3,0.16,0.62,0.23,0.96,0.22c0.34,0.01,0.67-0.06,0.96-0.22c0.31-0.1,0.58-0.27,0.8-0.52l0.39-0.51           c0.23-0.39,0.34-0.81,0.34-1.26c-0.03-0.22-0.06-0.44-0.09-0.66c-0.12-0.42-0.33-0.79-0.64-1.1           c-0.54-0.53-1.09-1.06-1.63-1.59c-0.23-0.24-0.49-0.42-0.8-0.52c-0.3-0.16-0.62-0.23-0.96-0.22           c-0.34-0.01-0.67,0.06-0.96,0.22c-0.31,0.1-0.58,0.27-0.8,0.52c-0.13,0.17-0.26,0.34-0.39,0.51           c-0.23,0.39-0.34,0.81-0.34,1.26c0.03,0.22,0.06,0.44,0.09,0.66C327.47,224.45,327.68,224.82,327.99,225.13z"/>
									<path class="st9" d="M337.29,239.39h5.27c-1.08-3.37-2.55-6.62-4.47-9.63c-0.73-1.14-2.22-1.6-3.42-0.9           c-1.13,0.66-1.63,2.28-0.9,3.42C335.2,234.52,336.37,236.91,337.29,239.39z"/>
									<path class="st9" d="M331.06,293.07c-0.16,0.18-0.32,0.37-0.48,0.55c-2.11,2.35-4.39,4.55-6.8,6.59           c-1,0.85-0.94,2.67,0,3.54c1.07,0.98,2.47,0.9,3.54,0c3.77-3.19,7.18-6.78,10.2-10.68H331.06z"/>
								</g>
							</g>
							<path class="st10" d="M270.65,241.32c-4.19,7.4-6.6,15.95-6.6,25.07c0,7.15,7.46,15.94,16.88,24.11h69.04         c8.96-8,16.01-16.71,16.01-24.11c0-9.12-2.41-17.67-6.6-25.07H270.65z"/>
							<path class="st11" d="M270.55,241.21c-4.19,7.4-6.6,15.95-6.6,25.07c0,7.15,7.46,15.94,16.88,24.11h23.9         c0,0-9.45-13.3-12.43-18.21c-5.11-8.42-6.71-17.47-6.95-22.26c-0.28-5.7,1.38-8.7,1.38-8.7H270.55z"/>
							<path class="st5" d="M363.07,261.27c-1.25-0.73-2.64-0.21-3.42,0.9c-0.95,1.35-2.04,2.85-3.52,3.66         c-1.23,0.67-2.22,0.49-3.21-0.3c-2.26-1.8-3.6-5.17-6-7.14c-3.24-2.66-7.55-3.27-11.57-2.33c-4.12,0.96-7.63,3.66-10.61,6.55         c-1.31,1.28-2.51,2.85-4.06,3.84c-1.55,0.98-2.94,0.63-4.44-0.29c-3.76-2.29-6.43-5.99-10.25-8.24         c-3.76-2.21-8.37-3.03-12.33-0.85c-3.44,1.89-5.14,5.49-8.13,7.85c-1.15,0.9-2.94,1.95-4.44,1.54         c-1.69-0.46-2.27-2.87-2.94-4.25c-2.01-4.13-5.65-7.36-10.32-7.81c-1.35-0.13-2.5,1.24-2.5,2.5c0,1.46,1.15,2.37,2.5,2.5         c3.64,0.35,5.42,4.17,6.78,7.03c0.92,1.93,2.21,3.64,4.22,4.5c1.89,0.81,4.04,0.73,5.96,0.04c4.05-1.47,6.2-4.78,9.07-7.72         c1.16-1.19,2.51-2.3,4.22-2.49c1.88-0.22,3.8,0.54,5.39,1.48c3.8,2.23,6.48,5.94,10.25,8.24c2.01,1.22,4.35,1.93,6.7,1.45         c2.09-0.43,3.85-1.78,5.36-3.24c2.87-2.79,5.6-6,9.48-7.39c3.17-1.13,6.79-0.96,9.19,1.61c2.62,2.81,4.15,6.69,8.08,7.98         c4.99,1.64,8.87-2.54,11.45-6.2C364.74,263.59,364.16,261.91,363.07,261.27z"/>
							<path class="st3" d="M287.96,262.56c-0.77,0.88-1.57,1.74-2.5,2.48c-1.15,0.9-2.94,1.95-4.44,1.54         c-1.69-0.46-2.27-2.87-2.94-4.25c-2.01-4.13-5.65-7.36-10.32-7.81c-1.35-0.13-2.5,1.24-2.5,2.5c0,1.46,1.15,2.37,2.5,2.5         c3.64,0.35,5.42,4.17,6.78,7.03c0.92,1.93,2.21,3.64,4.22,4.5c1.89,0.81,4.04,0.73,5.96,0.04c2.16-0.78,3.78-2.1,5.26-3.6         C289.12,265.93,288.5,264.26,287.96,262.56z"/>
						</g>
					</g>
					<g>
						<g>
							<g>
								<rect x="184.26" y="67.5" class="st1" width="4.73" height="164.82"/>
								<path class="st2" d="M188.99,171.72V67.5h-4.73v114.15C185.68,178.27,187.29,174.96,188.99,171.72z"/>
							</g>
							<g>
								<path class="st3" d="M194.21,251.55h-16.87c-6.32,0-11.45-5.13-11.45-11.45v0c0-6.32,5.13-11.45,11.45-11.45h16.87          c6.32,0,11.45,5.13,11.45,11.45v0C205.66,246.43,200.53,251.55,194.21,251.55z"/>
								<path class="st5" d="M194.05,228.66h-15.81c-0.1,0.11-0.2,1.79,0.66,1.83c4.47,0.22,9.01-0.45,13.46,0.38          c2.79,0.52,5.58,1.72,7.64,3.72c2.14,2.08,5.01,7.48,5.33,7.45c0.11-0.63,0.18-1.28,0.18-1.94          C205.5,233.78,200.37,228.66,194.05,228.66z"/>
								<path class="st4" d="M203.43,245.43c-2.44,0.23-4.9,0.27-7.34,0.43c-4.24,0.27-8.53,0.57-12.77,0.19          c-2.89-0.26-5.9-0.84-8.26-2.64c-2.58-1.96-3.81-5.16-3.7-8.35c0.07-2.03,0.7-3.91,1.79-5.5c-4.33,1.63-7.41,5.8-7.41,10.7          c0,6.32,5.13,11.45,11.45,11.45h16.87c4.5,0,8.38-2.6,10.25-6.38C204.01,245.37,203.72,245.4,203.43,245.43z"/>
								<path class="st6" d="M202.3,233.89h-11.57c-1.31,0-2.56,1.15-2.5,2.5c0.06,1.35,1.1,2.5,2.5,2.5h11.57          c1.31,0,2.56-1.15,2.5-2.5C204.74,235.04,203.7,233.89,202.3,233.89z"/>
								<path class="st6" d="M181.3,234.32c-3.22,0-3.22,5,0,5C184.52,239.32,184.52,234.32,181.3,234.32z"/>
							</g>
						</g>
						<g>
							<g>
								<g>
									<path class="st7" d="M200.44,249.57h-28.85c-21.38,6.24-37,25.97-37,49.36c0,28.4,23.02,51.43,51.43,51.43           c28.4,0,51.43-23.02,51.43-51.43C237.44,275.54,221.81,255.81,200.44,249.57z"/>
									<path class="st8" d="M157.93,313.68c-3.07-9.77-3.12-20.36-0.19-30.17c2.93-9.83,8.51-19.11,16.74-25.36           c3.9-2.96,8.3-5.07,13.07-6.15c2.62-0.59,5.61-1.07,7.99-2.42h-24.11c-21.38,6.24-37,25.97-37,49.36           c0,28.4,23.02,51.43,51.43,51.43c2.11,0,4.18-0.14,6.22-0.39c-6.37-2.19-12.23-5.92-17.25-10.46           C167.11,332.54,161.05,323.62,157.93,313.68z"/>
									<g>
										<path class="st9" d="M202.65,262.33c0.34,0.01,0.67-0.06,0.96-0.22c0.31-0.1,0.58-0.27,0.8-0.52            c0.44-0.48,0.76-1.1,0.73-1.77c-0.03-0.22-0.06-0.44-0.09-0.66c-0.12-0.42-0.33-0.79-0.64-1.1            c-0.86-0.85-1.72-1.71-2.58-2.56c-0.23-0.24-0.49-0.42-0.8-0.52c-0.3-0.16-0.62-0.23-0.96-0.22            c-0.34-0.01-0.67,0.06-0.96,0.22c-0.31,0.1-0.58,0.27-0.8,0.52c-0.44,0.48-0.76,1.1-0.73,1.77            c0.03,0.22,0.06,0.44,0.09,0.66c0.12,0.42,0.33,0.79,0.64,1.1l2.58,2.56c0.23,0.24,0.49,0.42,0.8,0.52            C201.98,262.27,202.3,262.35,202.65,262.33z"/>
										<path class="st9" d="M208.47,274.86h5.23c-0.89-2.79-1.94-5.53-3.14-8.21c-0.55-1.23-2.34-1.53-3.42-0.9            c-1.27,0.74-1.45,2.18-0.9,3.42C207.08,271.03,207.81,272.93,208.47,274.86z"/>
										<path class="st9" d="M206.67,326.28c-1.48,3.53-3.26,6.93-5.31,10.18c-1.72,2.73,2.61,5.24,4.32,2.52            c2.53-4.03,4.64-8.29,6.35-12.7H206.67z"/>
										<path class="st9" d="M200.33,341.5c-0.18-0.27-0.41-0.49-0.7-0.64c-0.2-0.08-0.4-0.17-0.6-0.25            c-0.44-0.12-0.89-0.12-1.33,0c-0.2,0.08-0.4,0.17-0.6,0.25c-0.33,0.19-0.58,0.45-0.79,0.76            c-0.04,0.05-0.09,0.09-0.13,0.13c-0.03,0.02-0.06,0.04-0.09,0.05c-0.04,0.01-0.08,0.03-0.13,0.04            c-0.33,0.08-0.61,0.23-0.85,0.45c-0.27,0.18-0.49,0.41-0.64,0.7c-0.18,0.29-0.28,0.6-0.3,0.93            c-0.07,0.33-0.06,0.66,0.04,1c0.08,0.2,0.17,0.4,0.25,0.6c0.22,0.38,0.52,0.67,0.9,0.9c0.2,0.08,0.4,0.17,0.6,0.25            c0.44,0.12,0.89,0.12,1.33,0c0.39-0.08,0.75-0.26,1.12-0.42c0.17-0.08,0.34-0.17,0.5-0.28c0.24-0.17,0.48-0.35,0.7-0.55            c0.07-0.06,0.14-0.13,0.2-0.19c0.21-0.22,0.38-0.47,0.56-0.71c0.06-0.08,0.11-0.16,0.16-0.24c0.18-0.29,0.28-0.6,0.3-0.93            c0.07-0.33,0.06-0.66-0.04-1C200.7,342.02,200.55,341.74,200.33,341.5z"/>
									</g>
								</g>
								<path class="st10" d="M231.81,322.32c3.59-7.02,5.63-14.96,5.63-23.39c0-7.47-1.61-14.56-4.47-20.97h-93.91          c-2.86,6.41-4.47,13.5-4.47,20.97c0,8.43,2.04,16.37,5.63,23.39H231.81z"/>
								<path class="st11" d="M157.99,310.56c-2.17-10.68-2.1-22.2,1.58-32.44H138.9c-2.86,6.41-4.47,13.5-4.47,20.97          c0,8.43,2.04,16.37,5.63,23.39h21.59C161.64,322.48,158.83,314.73,157.99,310.56z"/>
							</g>
							<path class="st5" d="M234.31,297.39c-1.25-0.73-2.64-0.21-3.42,0.9c-0.95,1.35-2.04,2.85-3.52,3.66         c-1.23,0.67-2.22,0.49-3.21-0.3c-2.26-1.8-3.6-5.17-6-7.14c-3.24-2.66-7.55-3.27-11.57-2.33c-4.12,0.96-7.63,3.66-10.61,6.55         c-1.31,1.28-2.51,2.85-4.06,3.84c-1.55,0.98-2.94,0.63-4.44-0.29c-3.76-2.29-6.43-5.99-10.25-8.24         c-3.76-2.21-8.37-3.03-12.33-0.85c-3.44,1.89-5.14,5.49-8.13,7.85c-1.15,0.9-2.94,1.95-4.44,1.54         c-1.69-0.46-2.27-2.87-2.94-4.25c-2.01-4.13-5.65-7.36-10.32-7.81c-1.35-0.13-2.5,1.24-2.5,2.5c0,1.46,1.15,2.37,2.5,2.5         c3.64,0.35,5.42,4.17,6.78,7.03c0.92,1.93,2.21,3.64,4.22,4.5c1.89,0.81,4.04,0.73,5.96,0.04c4.05-1.47,6.2-4.78,9.07-7.72         c1.16-1.19,2.51-2.3,4.22-2.49c1.88-0.22,3.8,0.54,5.39,1.48c3.8,2.23,6.48,5.94,10.25,8.24c2.01,1.22,4.35,1.93,6.7,1.45         c2.09-0.43,3.85-1.78,5.36-3.24c2.87-2.79,5.6-6,9.48-7.39c3.17-1.13,6.79-0.96,9.19,1.61c2.62,2.81,4.15,6.69,8.08,7.98         c4.99,1.64,8.87-2.54,11.45-6.2C235.99,299.71,235.4,298.03,234.31,297.39z"/>
							<path class="st3" d="M156.63,301.11c-1,0.62-3.24,1.79-4.37,1.48c-1.69-0.46-2.27-2.87-2.94-4.25         c-2.01-4.13-5.65-7.36-10.32-7.81c-1.35-0.13-2.5,1.24-2.5,2.5c0,1.46,1.15,2.37,2.5,2.5c3.64,0.35,5.42,4.17,6.78,7.03         c0.92,1.93,2.21,3.64,4.22,4.5c1.89,0.81,4.04,0.73,5.96,0.04c0.38-0.14,1.05-0.28,1.39-0.45         C157.36,306.65,156.81,301,156.63,301.11z"/>
						</g>
					</g>
					<g>
						<path class="st10" d="M122.43,251.86c4.47-3.36,9.35-5.98,14.19-8.6c8.96-4.84,18.17-9.84,25.06-18.06        c13.39-15.95,17.39-40.31,9.61-60.35c-2.38-6.14-5.83-11.65-10.02-16.35c13.06-19.27,14.97-43.91,7.49-66.67        c-3.17-9.65-5.73-13.43-10.62-22.07l-19.15-6.64c4.43,7.09,7.68,15.81,11.17,23.51c7.59,16.73,11.48,37.07,3.16,54.41        c-1.23,2.56-2.67,5.01-4.29,7.34c-7.08-4.24-15.03-6.7-23.1-6.87c-9.88-0.21-21.36,3.22-26.69,13.29        c-5.54,10.47-2.22,24.75,8.52,28.9c8.58,3.31,19.55,0.36,27.68-3.34c5.41-2.46,10.53-5.73,15.13-9.73        c6.73,7.84,10.3,18.63,9.27,30.02c-0.71,7.81-3.58,15.71-8.23,21.65c-5.73,7.33-13.86,11.54-21.58,15.7        c-8.53,4.6-17.93,9.32-24.02,17.71c-6.54,9.02-7.04,20.4-2.49,30.62c4.35,9.76,12.3,16.79,20.41,22.5        c6.07,4.27,13.14,8.44,17.39,15.09c5.74,8.98,1.91,19.44-3.06,27.7c-5.72,9.51-13.65,17.11-19.29,26.73        c-5.45,9.32-8.04,19.88-6.25,30.91c1.71,10.53,7.88,19.39,17.18,22.66c1.41,0.5,2.7,0.55,3.84,0.26l-6.21-11.8l6.21-4.93        c-2.29-0.89-3.91-2.81-5.07-5.73c-1.13-2.83-1.58-7.05-1.27-10.14c1-9.69,7.93-17.74,13.45-24.74        c7.23-9.16,14.47-18.73,17.44-30.73c2.86-11.59,0.56-23.09-6.2-32.35c-5.94-8.13-14.5-13.3-22.29-18.91        c-5.93-4.27-15.31-12.51-14.1-21.63C116.24,257.16,119.53,254.04,122.43,251.86z M117.82,157.86        c-2.39,0.18-5.89,0.97-6.09-1.99c-0.14-2.14,1.95-4.32,3.93-5.42c6.28-3.47,14.64-2.27,21.13,0.3        C131.07,154.77,124.58,157.36,117.82,157.86z"/>
						<g>
							<path class="st1" d="M129.79,282.87c-2.91-2.09,12.62,11.16,17.15,18.48c6.04,9.75,9.06,20.76,6.2,32.35         c-2.96,12-10.21,21.57-17.44,30.73c-5.52,7-12.45,15.05-13.45,24.74c-0.32,3.09,0.14,7.32,1.27,10.14         c1.16,2.92,2.78,4.83,5.07,5.73l-6.21,4.93l5.98,11.35c0.5,0.22,1.02,0.43,1.54,0.61c1.41,0.5,2.7,0.55,3.84,0.26l-6.21-11.8         l6.21-4.93c-2.29-0.89-3.91-2.81-5.07-5.73c-1.13-2.83-1.58-7.05-1.27-10.14c1-9.69,7.93-17.74,13.45-24.74         c7.23-9.16,14.47-18.73,17.44-30.73c2.86-11.59,0.56-23.09-6.2-32.35C146.14,293.65,137.58,288.48,129.79,282.87z"/>
						</g>
						<g>
							<g>
								<path class="st11" d="M134.67,152.02c-2.79,1.63-5.47,2.91-8.04,3.9C129.42,154.93,132.11,153.62,134.67,152.02z"/>
								<path class="st11" d="M148.82,138.38c-7.08-4.24-15.03-6.7-23.1-6.87c-9.88-0.21-21.36,3.22-26.69,13.29          c-4.59,8.68,7.84,18.76,27.6,11.12c-2.92,1.03-5.95,1.72-9.03,1.94c-2.39,0.18-5.89,0.97-6.09-1.99          c-0.14-2.14,1.95-4.32,3.93-5.42c6.28-3.47,14.64-2.27,21.13,0.3c-0.63,0.44-1.27,0.85-1.91,1.26          c1.65-0.97,3.34-2.05,5.06-3.27C148.28,142.71,148.95,138.19,148.82,138.38z"/>
							</g>
							<g>
								<path class="st11" d="M157.3,101.82h15.32c-0.55-6.7-1.93-13.43-4.08-19.99c-3.17-9.65-5.73-13.43-10.62-22.07l-19.15-6.64          c4.43,7.09,7.68,15.81,11.17,23.51C153.5,84.46,156.24,93.08,157.3,101.82z"/>
								<path class="st11" d="M173.39,200.74c2.71-11.8,2.09-24.53-2.31-35.89c-2.35-6.07-5.75-11.52-9.88-16.19          c-5.28,5.94-10.91,12.02-10.85,11.97c6.73,7.84,10.3,18.63,9.27,30.02c-0.71,7.81-3.58,15.71-8.23,21.65          c-5.73,7.33-13.86,11.54-21.58,15.7c10.81-3.48,19.09-7.4,25.37-11.15C168.37,208.97,172.78,201.79,173.39,200.74z"/>
							</g>
						</g>
						<path class="st10" d="M224.37,196.97c-9.71-3.02-15.65-15.72-14.28-26.53c0.91-7.15,4.36-13.77,8.83-18.9        c4.93-5.67,11.1-8.33,16.85-12.68c7.12-5.39,11.33-13.62,10.37-23.34c-0.94-9.53-5.97-17.31-12.61-23.15        c-7.97-7.01-17.84-11.81-25.93-18.82c-0.97-0.84-24.89-8.08-24.89-8.08c4.87,14.5,17.92,23.65,29.39,31.41        c6.09,4.12,14.14,8.37,17.57,15.72c1.15,2.46,1.99,5.71,0.93,8.41c-1.39,3.54-5.65,5.29-8.49,6.99        c-15.09,9.04-26.97,25.61-27.51,45.22c-0.53,19.55,12.51,37.87,29.76,40.98l-6-13.78L224.37,196.97z"/>
						<path class="st11" d="M212.11,96.87c6.09,4.12,14.14,8.37,17.57,15.72c1.15,2.46,1.99,5.71,0.93,8.41        c-1.39,3.54-5.65,5.29-8.49,6.99c-9.41,5.64-17.57,14.21-22.51,24.62c0.52-0.67,1.05-1.34,1.61-1.98        c3.63-4.16,7.83-7.39,12.55-10.21c4.79-2.86,9.75-5.41,14.52-8.3c7.98-4.83,18.02-11.92,16.28-22.61        c-0.06-0.34,0-0.64,0.11-0.91c-2.13-6.44-6.19-11.89-11.14-16.24c-7.97-7.01-17.84-11.81-25.93-18.82        c-0.97-0.84-24.89-8.08-24.89-8.08C187.59,79.96,200.65,89.11,212.11,96.87z"/>
					</g>
				</g>
				<path class="st12" d="M264,337.55"/>
				<path class="st13" d="M425.58,126.72C382.15,87.7,321.74,83.97,266.5,78.34c-58.88-6-118.31-18.23-170.19-47.91      c-8.76-5.01-17.24-10.5-25.36-16.46c-0.54-0.4-1.19-0.61-1.86-0.61h0c-3.08,0-4.35,3.94-1.87,5.75      c15.5,11.31,32.24,20.94,49.73,29.01c0.06,0.09,0.11,0.18,0.19,0.27c32.28,37.15,75.59,64.32,122.99,77.52      c13.4,3.73,27.08,6.26,40.9,7.74c4.08,0.43,4.05-5.95,0-6.38c-51.31-5.47-100.12-27.67-138.35-62.03      c-2.58-2.32-0.08-6.51,3.2-5.35c3.54,1.26,7.1,2.46,10.67,3.6c28.48,9.12,57.93,14.84,87.56,18.68      c30.97,4.01,62.31,5.33,93.01,11.31c30.4,5.91,60.61,16.79,83.96,37.76C424.12,133.97,428.65,129.47,425.58,126.72z"/>
				<g>
					<g>
						<path class="st12" d="M446.74,177.45c-22.73-14.33-37.68-37.38-43.54-63.55c-1.18-5.27-6.8-5.37-5.63-0.16        c6.37,28.41,20.72,55.61,45.3,71.11C447.42,187.73,451.27,180.3,446.74,177.45z"/>
						<path class="st12" d="M335.14,148.9c-10.73-8.41-19.29-18.38-25.77-29.51c-6.33-10.87-10.69-22.85-13.16-35.53        c-1.03-5.29-6.86-4.83-5.76,0.38c2.94,13.81,6.89,26.62,12.65,38.12c6.29,12.57,14.75,23.59,26.39,32.71        C333.71,158.37,339.39,152.23,335.14,148.9z"/>
						<path class="st12" d="M405.47,77.67c-10.42,2.17-20.86-1.99-31.23-2.66c-11.46-0.74-21.5,3.81-30.97,9.83        c-4.55,2.89-1.07,6.48,3.47,3.6c10.47-6.66,21.19-6.32,33.55-4.32c9.29,1.51,18.19,3.52,27.58,1.56        C413.16,84.58,410.7,76.58,405.47,77.67z"/>
						<path class="st12" d="M364.28,156.87c1.83-1.47,2.58-4.24,0.27-6.18c-1.1-0.92-2.18-1.85-3.25-2.78        c-6.33-20.26-10.59-40.1-27.82-55.5c-4.01-3.58-9.21-1.21-5.19,2.38c12.41,11.09,17.36,26.51,21.62,42.2        c-4.29-4.54-8.23-9.29-11.74-14.3c-7.21-10.27-12.68-21.63-15.96-34.56c-1.33-5.24-8.35-5.99-7.03-0.8        c3.52,13.87,9.23,27.01,16.83,38.93c6.2,9.72,13.66,18.62,22.22,26.48c1.14,3.85,2.38,7.64,3.83,11.29        c1.97,4.98,9.99,2.59,8.01-2.4C365.45,160.05,364.85,158.46,364.28,156.87z"/>
						<path class="st12" d="M308.46,81.53c-2.51,4.75,1.43,6.45,3.95,1.68c5.2-9.83,14.21-17.14,21.54-25.55        c0.02-0.02,0.04-0.04,0.06-0.06c3.1-0.24,6.22-0.34,9.35-0.26c5.39,0.14,5.29-8.22-0.09-8.36c-0.22-0.01-0.43,0-0.65,0        c0.72-0.62,1.44-1.24,2.18-1.83c2.52-2,5.2-3.8,7.99-5.41c1.07-0.61,4.86-3.29,5.99-3.17c5.34,0.61,5.2-7.76-0.09-8.36        c-4.41-0.5-11.24,4.83-14.65,7.18c-5.05,3.48-9.71,7.53-13.89,12.01c-0.05,0.06-0.1,0.12-0.15,0.17        c-20.82,2.36-40.43,11.45-55.82,26.01c-3.92,3.71,0.03,6.13,3.92,2.45c11.8-11.16,28.33-15.28,43.9-18.67        C316.89,66.36,312.5,73.88,308.46,81.53z"/>
						<path class="st12" d="M332.89,86.6c9.9-7.1,20.99-12.11,32.61-14.83c10.73-2.51,34.36-0.51,35.14-0.32        c0.19,0.05,0.38,0.09,0.57,0.14c1.75,0.42,3.86-0.49,4.64-2.14c0.08-0.18,0.17-0.35,0.25-0.53c0.58-1.22,0.76-3.03-0.16-4.16        c-3.49-4.28-12.32-3.64-17.46-3.79c-6.8-0.2-13.59,0.4-20.28,1.62c-14.34,2.6-25.68,10.74-37.51,19.22        C326.33,84.93,328.52,89.73,332.89,86.6z"/>
						<path class="st12" d="M294.12,46.52c5.38,0.17,4.67-8.16-0.65-8.34c-12.13-0.39-24.07,2.57-34.6,8.62        c-11.72,6.73-19.8,21.69-34.54,24.5c-5.25,1-9.38,4.72-4.01,5.2c14.8,1.31,24.46-8.62,35.17-17.2        C266.6,50.4,279.9,46.07,294.12,46.52z"/>
						<path class="st12" d="M397.73,166.92c-13.89-6.94-21.41-21-25.77-35.34c-4.35-14.31-8.25-25.86-18.43-37.52        c-3.54-4.05-7.1-1.03-3.59,2.98c11,12.59,11.08,31.28,17.33,46.22c5.44,13.01,13.73,24.65,26.59,31.07        C398.67,176.74,402.56,169.34,397.73,166.92z"/>
						<path class="st12" d="M386.53,98.75c-5.34,0.47-0.63,4.6,4.74,4.13c6.36-0.56,11.38-3.4,17.05-6.08        c6.02-2.84,12.45-4.29,19.12-4.19c6.67,0.1,13.03,1.84,18.94,4.89c5.55,2.87,10.57,5.69,16.95,5.95        c5.39,0.22,5.23-8.14-0.13-8.36c-6.74-0.27-12.47-5.21-18.61-7.55c-5.52-2.11-11.37-3.2-17.28-3.29        c-5.85-0.09-11.86,0.84-17.36,2.83C403.65,89.35,393.3,98.15,386.53,98.75z"/>
						<path class="st12" d="M477.52,130.05c-6.88-2.18-12.34-6.96-18.32-10.8c-5.44-3.49-11.25-6.45-17.4-8.5        c-11.21-3.73-23.04-3.63-33.91,1.11c-4.94,2.16-1.91,5.24,2.97,3.11c11.08-4.84,24.72,1.42,35.31,6.53        c10.14,4.89,18.38,13.21,29.2,16.63C480.52,139.76,482.65,131.67,477.52,130.05z"/>
						<path class="st12" d="M413.72,157.98c-18.92-16.46-34.13-31.19-40.33-56.25c-1.3-5.24-5.59-2.5-4.3,2.7        c6.56,26.48,18.97,42.31,38.99,59.72C412.13,167.68,417.79,161.52,413.72,157.98z"/>
						<path class="st12" d="M420.81,121.38c-4.86-2.34-7.18,3.06-2,4.49c13.57,3.74,21.7,24.55,29.09,35.27        c3.05,4.43,10.14-0.01,7.08-4.44C446.01,143.67,437.04,129.19,420.81,121.38z"/>
					</g>
					<g>
						<path class="st14" d="M402.99,113.9c-1.18-5.27-6.8-5.37-5.63-0.16c4.97,22.19,14.82,43.63,30.59,59.35        c0.5-3.07,1.14-6.11,1.86-9.13C416.38,150.37,407.26,132.97,402.99,113.9z"/>
						<path class="st14" d="M334.93,148.9c-10.73-8.41-19.29-18.38-25.77-29.51c-6.33-10.87-10.69-22.85-13.16-35.53        c-1.03-5.29-6.86-4.83-5.76,0.38c2.94,13.81,6.89,26.62,12.65,38.12c6.29,12.57,14.75,23.59,26.39,32.71        C333.49,158.37,339.17,152.23,334.93,148.9z"/>
						<path class="st14" d="M381.43,77.98c-0.63-0.75-1.22-1.53-1.8-2.33c-1.87-0.29-3.73-0.53-5.6-0.65        c-11.46-0.74-21.5,3.81-30.97,9.83c-4.55,2.89-1.07,6.48,3.47,3.6c10.47-6.66,21.19-6.32,33.55-4.32        c3.05,0.49,6.05,1.04,9.05,1.49C386.36,83.27,383.75,80.76,381.43,77.98z"/>
						<path class="st14" d="M364.07,156.87c1.83-1.47,2.58-4.24,0.27-6.18c-1.1-0.92-2.18-1.85-3.25-2.78        c-6.33-20.26-10.59-40.1-27.82-55.5c-4.01-3.58-9.21-1.21-5.19,2.38c12.41,11.09,17.36,26.51,21.62,42.2        c-4.29-4.54-8.23-9.29-11.74-14.3c-7.21-10.27-12.68-21.63-15.96-34.56c-1.33-5.24-8.35-5.99-7.03-0.8        c3.52,13.87,9.23,27.01,16.83,38.93c6.2,9.72,13.66,18.62,22.22,26.48c1.14,3.85,2.38,7.64,3.83,11.29        c1.97,4.98,9.99,2.59,8.01-2.4C365.23,160.05,364.64,158.46,364.07,156.87z"/>
						<path class="st14" d="M308.25,81.53c-2.51,4.75,1.43,6.45,3.95,1.68c5.2-9.83,14.21-17.14,21.54-25.55        c0.02-0.02,0.04-0.04,0.06-0.06c3.1-0.24,6.22-0.34,9.35-0.26c5.39,0.14,5.29-8.22-0.09-8.36c-0.22-0.01-0.43,0-0.65,0        c0.72-0.62,1.44-1.24,2.18-1.83c2.52-2,5.2-3.8,7.99-5.41c1.07-0.61,4.86-3.29,5.99-3.17c5.34,0.61,5.2-7.76-0.09-8.36        c-4.41-0.5-11.24,4.83-14.65,7.18c-5.05,3.48-9.71,7.53-13.89,12.01c-0.05,0.06-0.1,0.12-0.15,0.17        c-20.82,2.36-40.43,11.45-55.82,26.01c-3.92,3.71,0.03,6.13,3.92,2.45c11.8-11.16,28.33-15.28,43.9-18.67        C316.68,66.36,312.29,73.88,308.25,81.53z"/>
						<path class="st14" d="M374.39,64.32c-0.19-0.88-0.31-1.76-0.41-2.64c-2,0.25-4,0.55-5.99,0.91        c-14.34,2.6-25.68,10.74-37.51,19.22c-4.36,3.13-2.17,7.93,2.21,4.79c9.9-7.1,20.99-12.11,32.61-14.83        c3.01-0.7,7.04-1.05,11.29-1.19C375.61,68.59,374.85,66.51,374.39,64.32z"/>
						<path class="st14" d="M293.91,46.52c5.38,0.17,4.67-8.16-0.65-8.34c-12.13-0.39-24.07,2.57-34.6,8.62        c-11.72,6.73-19.8,21.69-34.54,24.5c-5.25,1-9.38,4.72-4.01,5.2c14.8,1.31,24.46-8.62,35.17-17.2        C266.38,50.4,279.69,46.07,293.91,46.52z"/>
						<path class="st14" d="M372.29,150.26c1.4-1.93,3.23-3.26,5.29-4.15c-2.41-4.62-4.31-9.55-5.83-14.53        c-4.35-14.31-8.25-25.86-18.43-37.52c-3.54-4.05-7.1-1.03-3.59,2.98c11,12.59,11.08,31.28,17.33,46.22        c1.24,2.97,2.64,5.86,4.2,8.65C371.56,151.34,371.9,150.78,372.29,150.26z"/>
						<path class="st14" d="M399.06,93.01c-4.49,2.76-9.13,5.42-12.75,5.74c-5.34,0.47-0.63,4.6,4.74,4.13        c5.6-0.49,10.16-2.76,15.04-5.12C403.77,96.18,401.4,94.61,399.06,93.01z"/>
						<path class="st14" d="M420.62,108.41c-4.4,0.49-8.74,1.63-12.94,3.46c-4.94,2.16-1.91,5.24,2.97,3.11        c4.93-2.15,10.38-2.1,15.83-0.94C424.67,112.04,422.7,110.17,420.62,108.41z"/>
						<path class="st14" d="M402.57,148.15c-13.74-12.98-24.44-26.4-29.4-46.42c-1.3-5.24-5.59-2.5-4.3,2.7        c4.14,16.72,10.62,29.19,19.87,40.5C393.41,145.45,398.02,146.88,402.57,148.15z"/>
						<path class="st14" d="M435.63,141.14c0.07-0.52,0.14-1.04,0.19-1.55c0.22-2.55,0.14-5.09-0.23-7.59        c-4.29-4.14-9.17-7.81-14.99-10.61c-4.86-2.34-7.18,3.06-2,4.49C425.46,127.76,430.94,134.03,435.63,141.14z"/>
					</g>
				</g>
				<g>
					<g>
						<path class="st12" d="M95.8,31.42c25.28-8.94,52.75-8.53,76.97,3.1c4.83,2.32,9.07-4.89,4.22-7.22        c-26.19-12.58-56.86-10.28-84.31-0.57C87.63,28.51,90.7,33.22,95.8,31.42z"/>
						<path class="st12" d="M126.9,91.39c0-0.03,0-0.05,0-0.08c0.65-11.14-0.67-22.67,2.5-33.32c1.54-5.17-2.46-6.72-3.99-1.56        c-2.47,8.29-4.6,16.74-5.85,25.3c-8.75-13.32-17.67-27.83-18.29-44.06c-0.2-5.36-4.72-6.39-4.52-1        c0.81,21.17,8.45,41.39,21.67,57.64c0,0.08-0.01,0.15-0.01,0.23c-0.15,6.13,0.34,12.28,1.52,18.3        c0.8,4.07,1.94,12.65,5.45,15.38c4.2,3.27,10.15-2.61,5.91-5.91c-0.9-0.7-1.73-5.27-2.06-6.45c-0.87-3.09-1.52-6.26-1.92-9.45        c-0.12-0.94-0.2-1.88-0.28-2.83c0.16,0.15,0.3,0.3,0.46,0.45c3.93,3.66,9.86-2.24,5.91-5.91        C131.1,95.99,128.94,93.73,126.9,91.39z"/>
						<path class="st12" d="M117.95,42.3c-5.1,1.65-0.73,7.19,4.41,5.53c12.69-4.09,25.23-5.5,37.76-4.86        c12.53,0.65,25.06,3.34,37.75,7.46c5.13,1.67,7.33-6.41,2.22-8.06c-13.07-4.24-26.63-6.41-40.21-6.51        C145.73,35.76,131.58,37.9,117.95,42.3z"/>
						<path class="st12" d="M163.28,134.47c-0.58-0.56-14.83-19.51-18.4-29.94c-3.87-11.29-5.52-23.35-4.77-35.5        c0.33-5.37-4.9-4.68-5.23,0.68c-0.9,14.53-1.76,28.46,3.66,41.99c2.53,6.31,5.63,12.38,9.41,18.03        c2.86,4.27,7.01,12.09,12.49,12.78c1.45,0.18,2.89-0.94,3.61-2.07c0.1-0.16,0.21-0.33,0.31-0.49        c0.98-1.54,0.63-3.81-0.65-5.07C163.55,134.75,163.42,134.61,163.28,134.47z"/>
						<path class="st12" d="M148.15,70.49c12.06-4.65,24.52-7.32,37.1-7.74c12.87-0.43,25.87,1.52,38.7,6.14        c5.07,1.83,7.26-6.25,2.22-8.06c-13.91-5.01-27.74-6.31-41.73-4.96c-12.81,1.23-25.76,4.69-39.02,9.55        C140.42,67.24,143.12,72.43,148.15,70.49z"/>
						<path class="st12" d="M175.22,116.44c-8.27-9.41-14.26-18.3-14.18-30.72c0.03-5.38-4.86-6.41-4.89-1.03        c-0.07,11.22,1.41,22.15,8.13,31.46c6.08,8.43,15.16,15.06,18.85,25.04c1.85,5,9.94,2.84,8.06-2.22        C187.87,129.98,181.44,123.51,175.22,116.44z"/>
						<path class="st12" d="M170.07,83.19c-5.18-1.5-4.42,4.17,0.74,5.66c27.2,7.86,49.72-4.33,75.96-9.19        c5.28-0.98,3.05-9.04-2.22-8.06C220.04,76.14,195.44,90.52,170.07,83.19z"/>
						<path class="st12" d="M221.44,168.67c-11.1-8.89-18.4-20.83-21.07-34.82c-2.57-13.48-3.45-27.31-15.56-35.93        c-4.39-3.13-3.66,2.39-0.33,6.56c9.38,11.72,5.8,28.34,10.34,41.07c4.08,11.45,11.23,21.44,20.7,29.03        C219.69,177.91,225.65,172.04,221.44,168.67z"/>
						<path class="st12" d="M196.44,99.47c-5.26-0.84-5.92,3.78-0.61,4.63c15.29,2.43,27.14-0.41,41.58-4.33        c14.47-3.93,30.37-5.03,43.63,3.05c4.61,2.81,8.81-4.42,4.22-7.22c-12.28-7.48-26.54-8.32-40.46-6.01        C228.82,92.23,212.95,102.09,196.44,99.47z"/>
						<path class="st12" d="M266.35,164.31c-4.77-4.26-10.33-5.72-16.31-7.52c-6.36-1.92-12.15-5.1-17.01-9.67        c-4.86-4.57-8.46-10.08-10.81-16.31c-2.21-5.86-3.83-11.4-8.01-16.23c-3.53-4.08-9.78-4.39-6.27-0.33        c4.45,5.14,5.75,18.67,8.68,24.66c2.57,5.26,6.24,10.11,10.5,14.12c4.31,4.05,9.27,7.33,14.7,9.66        c6.04,2.59,13.59,3.04,18.62,7.53C264.44,173.8,270.37,167.9,266.35,164.31z"/>
						<path class="st12" d="M296.82,153.03c-10.07-5.26-21.77-5.23-32.39-8.97c-11.09-3.9-25.15-9.17-29.53-20.43        c-1.93-4.96-6.25-4.94-4.3,0.09c4.3,11.05,12.57,19.5,23.13,24.82c5.79,2.91,11.98,4.95,18.29,6.34        c6.94,1.53,14.19,2.03,20.58,5.37C297.36,162.74,301.59,155.52,296.82,153.03z"/>
						<path class="st12" d="M319.88,118.65c-25.39-7.7-45.39-9.8-71.31-1.28c-5.09,1.67-5.13,6.77,0,5.08        c24.53-8.07,45.09-3.02,69.09,4.26C322.82,128.28,325.02,120.21,319.88,118.65z"/>
						<path class="st12" d="M314.61,135.77c-13.01-0.56-34.96,3.61-45.33-5.9c-3.96-3.63-7.3,1.2-2.74,4.08        c15.24,9.6,32.27,9.5,48.07,10.18C319.99,144.37,319.98,136.01,314.61,135.77z"/>
					</g>
					<g>
						<path class="st14" d="M117.39,20.09c-8.39,1.39-16.69,3.58-24.72,6.42C87.63,28.3,90.7,33,95.8,31.2        c7.91-2.8,16.04-4.68,24.22-5.59C119.04,23.82,118.16,21.98,117.39,20.09z"/>
						<path class="st14" d="M126.9,91.18c0-0.03,0-0.06,0-0.08c0.65-11.14-0.67-22.67,2.5-33.32c1.54-5.17-2.46-6.72-3.99-1.56        c-2.47,8.29-4.6,16.74-5.85,25.3c-8.75-13.32-17.67-27.83-18.29-44.06c-0.2-5.36-4.72-6.39-4.52-1        c0.81,21.17,8.45,41.39,21.67,57.64c0,0.08-0.01,0.15-0.01,0.23c-0.15,6.13,0.34,12.28,1.52,18.3        c0.8,4.07,1.94,12.65,5.45,15.38c4.2,3.27,10.15-2.61,5.91-5.91c-0.9-0.7-1.73-5.27-2.06-6.45c-0.87-3.09-1.52-6.26-1.92-9.45        c-0.12-0.94-0.2-1.88-0.28-2.83c0.16,0.15,0.3,0.3,0.46,0.45c3.93,3.66,9.86-2.24,5.91-5.91        C131.1,95.77,128.94,93.52,126.9,91.18z"/>
						<path class="st14" d="M129.44,38.96c-3.86,0.87-7.69,1.9-11.48,3.13c-5.1,1.65-0.73,7.19,4.41,5.53        c4.07-1.31,8.12-2.35,12.16-3.13C132.77,42.7,131.07,40.86,129.44,38.96z"/>
						<path class="st14" d="M142.19,105.46c0.6-1.03,1.34-1.94,2.17-2.75c-3.49-10.82-4.98-22.31-4.27-33.89        c0.33-5.37-4.9-4.68-5.23,0.68c-0.9,14.53-1.76,28.46,3.66,41.99c0.45,1.12,0.92,2.24,1.41,3.34        C139.87,111.53,140.57,108.25,142.19,105.46z"/>
						<path class="st14" d="M155.12,61.89c-3.22,1.01-6.45,2.11-9.7,3.3c-5,1.83-2.3,7.02,2.74,5.08c4.27-1.64,8.59-3.03,12.94-4.17        C159.08,64.73,157.08,63.33,155.12,61.89z"/>
						<path class="st14" d="M161.05,85.51c0.03-5.38-4.86-6.41-4.89-1.03c-0.03,5.03,0.25,9.99,1.18,14.78        c2.62,0.47,5.17,1.43,7.6,2.58C162.46,96.94,161.01,91.66,161.05,85.51z"/>
						<path class="st14" d="M170.07,82.98c-5.18-1.5-4.42,4.17,0.74,5.66c11.43,3.3,22.02,3.06,32.42,1.31        c-3.47-1.37-6.89-2.88-10.17-4.67c-0.39-0.21-0.78-0.43-1.17-0.64C184.68,85.4,177.41,85.1,170.07,82.98z"/>
						<path class="st14" d="M184.82,97.71c-4.39-3.13-3.66,2.39-0.33,6.56c3.3,4.12,4.99,8.85,6,13.81        c2.59,1.62,5.22,3.19,7.91,4.64C196.5,113.04,193.64,103.99,184.82,97.71z"/>
						<path class="st14" d="M196.44,99.25c-5.26-0.84-5.92,3.78-0.61,4.63c14.02,2.23,25.15,0.02,38.03-3.38        c-4.11-1.62-8.34-3.01-12.56-4.36C213.11,98.68,204.85,100.59,196.44,99.25z"/>
						<path class="st14" d="M222.22,130.59c-2.21-5.86-3.83-11.4-8.01-16.23c-3.53-4.08-9.78-4.39-6.27-0.33        c2.74,3.17,4.29,9.52,5.76,15.33c2.91,0.93,5.88,1.65,8.89,2.13C222.46,131.19,222.33,130.9,222.22,130.59z"/>
						<path class="st14" d="M234.89,123.41c-1.93-4.96-6.25-4.94-4.3,0.09c1.18,3.03,2.67,5.86,4.42,8.49        c1.73-0.16,3.45-0.45,5.13-0.87C237.88,128.91,236.05,126.38,234.89,123.41z"/>
						<path class="st14" d="M248.57,122.24c2.24-0.74,4.44-1.36,6.62-1.89c0.06-0.18,0.13-0.36,0.19-0.55        c0.47-1.66,0.32-3.2-0.22-4.61c-2.16,0.58-4.35,1.23-6.59,1.97C243.48,118.84,243.44,123.93,248.57,122.24z"/>
					</g>
				</g>
			</g>
			<path class="st5" d="M135.41,263.92l-11.58-51.2l-13.87-9.66l13.78-9.59l7.75-52.49l9.66,52.46l13.83,9.62l-13.74,9.56     L135.41,263.92z M118.71,203.06l9.57,6.66l5.49,24.29l2.75-24.2l9.7-6.75l-9.62-6.69l-4.57-24.83l-3.66,24.8L118.71,203.06z"/>
			<path class="st5" d="M249.11,255.37l-9.1-40.26l-10.48-7.29l10.39-7.23l6.09-41.29l7.6,41.26l10.43,7.26l-10.35,7.2     L249.11,255.37z M238.28,207.82l6.17,4.29l3.02,13.35l1.51-13.26l6.3-4.39l-6.22-4.33l-2.51-13.63l-2.01,13.6L238.28,207.82z"/>
			<path class="st5" d="M176.79,436.98l-9.1-40.26l-10.48-7.29l10.39-7.23l6.09-41.29l7.6,41.26l10.43,7.26l-10.34,7.2     L176.79,436.98z M165.96,389.42l6.17,4.29l3.02,13.35l1.51-13.26l6.3-4.39l-6.22-4.33l-2.51-13.63l-2.01,13.6L165.96,389.42z"/>
		</g>
	</g>
</g>
</svg>
