<svg id="Layer_1" enable-background="new 0 0 66 66" viewBox="0 0 66 66" xmlns="http://www.w3.org/2000/svg"><g><g><path d="m28.83 11.8c-.05.52-.57.93-1.07 1.08s-1.03.1-1.55.03c-.52-.08-1.04-.18-1.56-.12-1.02.11-1.94.9-2.2 1.91-.2.75-.04 1.55.16 2.3.11.43.25.84.4 1.26.29.88.66 1.74 1.08 2.56l-.72 2.25c-.34 2.49-2.42 4.65-4.89 5.1-2.48.45-5.46-.78-6.41-3.11-1.08-2.64-2.11-5.41-1.93-8.25.01-.12.03-.24.04-.36.25-2.53 1.53-4.95 3.48-6.59.08-.07.17-.14.26-.21 2.19-1.7 5.25-2.72 8-2.28.3.05.61.11.91.19 2.38.6 4.7 2.13 6 4.24z" fill="#fa778d"/></g><g><path d="m22.96 8.99c-.1.31-.39.59-.72.59-.41-.01-.78-.43-1.19-.31-.28.09-.41.43-.41.73 0 .31.09.61.06.91s-.24.62-.54.62c-.35-.01-.56-.41-.89-.54-.31-.11-.67.06-.86.33-.2.27-.27.6-.33.93s-.13.66-.32.94c-.35.52-1.08.67-1.68.48-.59-.19-1.07-.64-1.44-1.15-.56-.78-.9-1.71-1-2.66.08-.07.17-.14.26-.21 2.19-1.7 5.25-2.72 8-2.28.3.05.61.11.91.19.06.15.1.31.14.46.07.31.11.66.01.97z" fill="#ef6280"/></g><g><path d="m16.47 16.17c-.11 0-.22-.01-.33-.03-.57-.11-1.04-.43-1.38-.71-1.29-1.01-2.27-2.45-2.76-4.04-.04-.13.03-.27.16-.3.13-.04.26.03.3.16.46 1.5 1.38 2.85 2.59 3.8.3.24.71.52 1.17.61.43.08.86-.05 1.08-.33.13-.17.2-.4.28-.64.07-.24.15-.48.29-.7.41-.63 1.31-.85 1.96-.48.17.09.3.21.43.33.06.06.13.11.19.16.11.09.32.22.51.18.22-.05.36-.34.38-.6.01-.17-.01-.35-.03-.55-.02-.17-.04-.33-.04-.5-.01-.4.14-.91.58-1.13.29-.14.6-.1.87-.06.17.03.34.05.48.02.39-.07.64-.52.74-.91.22-.83.05-1.77-.46-2.51-.08-.11-.05-.26.07-.34.11-.08.26-.05.34.07.58.86.78 1.95.53 2.91-.18.7-.6 1.17-1.13 1.27-.22.04-.44.01-.64-.02-.23-.03-.42-.06-.58.01-.23.12-.31.44-.3.69 0 .15.02.3.04.45.02.21.05.42.03.64-.03.43-.28.94-.77 1.04-.29.06-.6-.04-.91-.28-.07-.06-.15-.12-.22-.18-.12-.1-.22-.2-.35-.27-.43-.24-1.04-.1-1.31.32-.11.16-.17.36-.23.58-.08.27-.17.56-.36.8-.27.34-.73.54-1.22.54z" fill="#ef6280"/></g><g><path d="m24.09 20.81-.72 2.25c-.35 2.49-2.42 4.65-4.9 5.1-2.47.45-5.46-.79-6.41-3.12-1.08-2.64-2.11-5.41-1.93-8.25.01-.12.02-.24.04-.36.09 1.04.36 2.09 1.04 2.88.8.91 2.32 1.28 3.26.5.53-.43.87-1.19 1.55-1.26.56-.07 1.05.38 1.47.75.43.38 1.03.73 1.53.47.72-.38.57-1.68 1.34-1.95.51-.17 1.01.28 1.53.46.36.13.76.11 1.11-.03.3.88.67 1.74 1.09 2.56z" fill="#ef6280"/></g><g><path d="m17.42 28.5c-2.4 0-4.77-1.37-5.59-3.36-1.13-2.77-2.13-5.5-1.95-8.36.01-.13.02-.26.04-.38.27-2.68 1.7-5.28 3.82-6.95 2.39-1.87 5.52-2.77 8.18-2.34 2.94.47 5.67 2.21 7.11 4.54.03.05.04.1.04.15-.07.64-.67 1.11-1.24 1.29-.55.17-1.12.12-1.66.03l-.19-.03c-.45-.07-.88-.13-1.3-.09-.36.04-.72.17-1.03.39-.11.08-.26.05-.34-.06s-.05-.26.06-.34c.38-.26.82-.42 1.26-.47.49-.05.96.02 1.43.09l.19.03c.48.08.99.13 1.44-.01.38-.12.8-.41.89-.8-1.38-2.18-3.95-3.8-6.72-4.24-2.53-.41-5.52.45-7.8 2.24-2.03 1.58-3.39 4.06-3.64 6.62-.02.12-.03.24-.04.35-.18 2.75.8 5.42 1.91 8.14.86 2.1 3.61 3.43 6.14 2.97 2.39-.43 4.36-2.49 4.7-4.9l.7-2.2c-.42-.82-.77-1.66-1.05-2.5-.04-.13.03-.27.15-.31.13-.04.27.03.31.15.28.85.64 1.7 1.07 2.53.03.06.04.12.02.19l-.72 2.25c-.35 2.56-2.49 4.8-5.08 5.27-.38.08-.74.11-1.11.11z"/></g><g><path d="m30.92 12.26c.1.34.13.69.1 1.02-.09 1.07-.83 2.03-1.92 2.36-1.44.43-2.95-.39-3.38-1.82-.12-.39-.14-.79-.08-1.17.15-1 .86-1.89 1.91-2.2 1.43-.44 2.94.38 3.37 1.81z" fill="#1b38ab"/></g><g><path d="m31.02 13.28c-.09 1.07-.83 2.03-1.92 2.36-1.44.43-2.95-.39-3.38-1.82-.12-.39-.14-.79-.08-1.17 0 .27.03.53.16.77.18.35.61.6.97.44.25-.11.43-.38.7-.38.43 0 .66.72 1.07.6.26-.09.31-.46.54-.61.28-.19.65.06.98.13.34.08.72-.06.96-.32z" fill="#142f84"/></g><g><path d="m26.15 14.91c-.07 0-.15-.03-.19-.1-.21-.28-.37-.59-.47-.93-.13-.43-.16-.86-.09-1.28.17-1.12.98-2.06 2.08-2.39 1.56-.47 3.21.42 3.68 1.98.11.37.15.74.11 1.11-.01.13-.13.24-.27.22-.13-.01-.23-.13-.22-.27.03-.31 0-.62-.09-.93-.39-1.3-1.77-2.04-3.07-1.65-.92.27-1.6 1.06-1.73 2-.06.35-.03.71.07 1.07.08.28.22.55.39.78.08.11.06.26-.05.34-.05.04-.1.05-.15.05z"/></g><g><path d="m37.76 26.13c-.15.47-.46.91-.91 1.1-.45.21-1.09.06-1.38-.33.11-.94-.39-1.9-1.19-2.41-.01-.01-.03-.02-.04-.03-.81-.5-1.89-.53-2.76-.13-.88.39-1.54 1.19-1.84 2.11-.31.92-.24 1.91.01 2.85.01.05.02.1.03.14.29.98.75 1.89 1.22 2.79-.18 1.36-1.53 2.59-2.83 3.01-1.31.41-2.77.17-3.98-.48-1.21-.64-2.2-1.65-2.99-2.77l-2.98-5.2c.07-.66.21-1.32.41-1.95.29-.91.75-1.76 1.33-2.55.82-1.14 1.88-2.11 3.02-2.83 2.18-1.38 4.96-2.36 7.56-2.25 2.39.1 4.8 1.19 6.13 3.17.01.02.03.03.03.05.82 1.24 1.18 2.75 1.28 4.24.03.49.03 1-.12 1.47z" fill="#509dff"/></g><g><path d="m37.76 26.13c-.15.47-.46.91-.91 1.1-.45.21-1.09.06-1.38-.33.11-.94-.39-1.9-1.19-2.41-.03-.19-.03-.38.01-.57.08-.41.38-.82.79-.88.22-.03.46.03.66-.06.28-.13.36-.49.33-.8-.04-.31-.15-.61-.12-.92.04-.38.31-.7.66-.85.82 1.24 1.18 2.75 1.28 4.24.02.5.02 1.01-.13 1.48z" fill="#308cef"/></g><g><path d="m33.28 24.36c-.06 0-.12-.02-.17-.07-.1-.1-.1-.25 0-.34.04-.04.07-.08.11-.12.31-.42.38-1.01.17-1.48-.03-.06-.06-.12-.08-.18-.13-.26-.29-.59-.14-.93.18-.43.64-.49 1.01-.55.07-.01.15-.02.22-.04.4-.08.78-.34.98-.7.1-.15.16-.33.19-.54 0-.13.11-.23.24-.23s.24.13.24.26c-.05.32-.14.55-.26.75-.27.48-.76.82-1.31.93-.08.01-.16.03-.24.04-.34.05-.57.09-.63.25-.05.13.02.29.13.53.03.07.06.13.09.2.28.63.19 1.41-.23 1.97-.05.06-.1.12-.15.17-.04.06-.1.08-.17.08z" fill="#308cef"/></g><g><path d="m30.91 32.22c-.18 1.36-1.53 2.59-2.83 3.01-1.31.41-2.77.16-3.98-.49-1.21-.64-2.19-1.65-2.99-2.77l-2.98-5.2c.07-.67.21-1.32.41-1.96.29-.9.75-1.76 1.33-2.55-.04.39.02.78.2 1.12.34.63 1.04 1.04 1.75 1.03.38-.01.77-.13 1.14-.02.53.15.81.72.91 1.26.09.54.07 1.1.25 1.62.18.51.66.99 1.2.9.41-.07.72-.44 1.14-.46.6-.05.98.61 1.23 1.15s.72 1.17 1.3 1.02c.3-.08.5-.33.66-.6.01.05.02.09.04.14.28.99.75 1.91 1.22 2.8z" fill="#308cef"/></g><g><path d="m26.72 35.68c-.91 0-1.87-.24-2.75-.72-1.12-.59-2.15-1.55-3.08-2.84l-2.99-5.22c-.03-.04-.04-.1-.03-.15.07-.69.22-1.36.42-2.01.04-.13.18-.2.31-.16s.2.18.16.31c-.19.59-.32 1.2-.4 1.83l2.94 5.13c.87 1.21 1.85 2.11 2.9 2.67 1.25.68 2.63.85 3.8.48 1.15-.37 2.45-1.48 2.65-2.73-.45-.87-.91-1.78-1.2-2.76-.02-.06-.03-.11-.04-.17-.29-1.09-.29-2.09 0-2.97.32-1 1.06-1.84 1.97-2.25.97-.44 2.12-.39 2.99.14.89.54 1.42 1.56 1.36 2.56.24.24.71.34 1.03.19.35-.16.63-.5.77-.96.13-.45.13-.95.1-1.38-.1-1.67-.53-3.07-1.26-4.17-1.21-1.79-3.48-2.96-5.94-3.06-1.03-.04-2.14.09-3.27.39-.13.04-.26-.04-.3-.17-.03-.13.04-.26.17-.3 1.19-.31 2.34-.45 3.42-.4 2.61.1 5.03 1.36 6.32 3.28.78 1.17 1.24 2.65 1.35 4.41.03.48.03 1.03-.12 1.55-.19.59-.56 1.04-1.04 1.26-.56.26-1.32.08-1.68-.4-.04-.05-.05-.11-.05-.17.09-.84-.37-1.74-1.12-2.2-.72-.44-1.71-.49-2.53-.11-.79.35-1.42 1.08-1.7 1.96-.26.79-.26 1.7.01 2.72.01.06.02.09.03.13.28.96.75 1.87 1.2 2.74.02.04.03.09.03.14-.2 1.53-1.7 2.79-3 3.21-.45.13-.93.2-1.43.2z"/></g><g><path d="m38.91 27.12c.06.19.09.38.1.57.1 1.24-.68 2.44-1.93 2.81-1.43.43-2.94-.39-3.37-1.83-.2-.66-.13-1.33.13-1.9.31-.69.91-1.24 1.69-1.47 1.44-.43 2.95.39 3.38 1.82z" fill="#1b38ab"/></g><g><path d="m39.01 27.69c.1 1.24-.68 2.44-1.93 2.81-1.43.43-2.94-.39-3.37-1.83-.2-.66-.13-1.33.13-1.9-.04.27-.05.54-.02.81.05.34.21.67.5.85s.71.15.93-.11c.09-.11.14-.26.26-.35.2-.15.51-.03.69.15s.29.42.49.59c.19.17.52.23.69.04.19-.23.04-.66.31-.81.22-.12.47.11.73.15.25.02.48-.17.59-.4z" fill="#142f84"/></g><g><path d="m26.44 35.44-13.27 3.05c-.1-1.14-.21-2.3-.56-3.4-.02-.06-.04-.14-.07-.2-.4-1.15-1.14-2.23-2.21-2.81-1.07-.57-2.52-.54-3.42.29-.75.69-1 1.88-.59 2.81.25.57-.71 1.31-1.34 1.28s-1.14-.5-1.53-.99c-1.17-1.45-1.75-3.36-1.59-5.21.1-1.12.46-2.2 1.01-3.18.58-1.01 1.38-1.92 2.32-2.63 1.12-.84 2.41-1.42 3.78-1.75.87-.22 1.77-.33 2.66-.34 2.3-.02 4.57.57 6.66 1.52 1.01.46 1.98 1 2.89 1.65 1.15.8 2.21 1.76 3.06 2.88 1.52 1.99 2.42 4.53 2.2 7.03z" fill="#ffcd3b"/></g><g><path d="m10.52 25.81c-.01.33-.06.68-.22.96-.17.29-.47.51-.8.53-.76.04-1.31-.96-2.06-.86-.38.04-.67.38-.83.73-.15.35-.2.74-.34 1.1-.12.37-.35.73-.72.86-.47.17-.98-.1-1.37-.42-.55-.45-1-1.01-1.31-1.64.58-1.01 1.38-1.92 2.32-2.63 1.12-.84 2.41-1.42 3.78-1.75.21.15.41.33.58.52.64.7.99 1.65.97 2.6z" fill="#fcb910"/></g><g><path d="m5.7 31.54c-.42 0-.9-.15-1.41-.44-.92-.54-1.72-1.23-2.37-2.06-.08-.11-.06-.26.04-.34.11-.08.26-.06.34.04.62.78 1.37 1.44 2.23 1.94.41.24 1.19.59 1.71.22.3-.21.42-.61.55-1.03.16-.5.32-1.01.79-1.31.51-.32 1.21-.25 1.97.19.11.07.22.13.33.2.4.25.78.49 1.2.53.54.05 1.12-.28 1.45-.82.29-.47.42-1.08.38-1.81-.07-1.65-.92-3.23-2.29-4.25-.11-.08-.13-.23-.05-.34s.23-.13.34-.05c1.48 1.1 2.41 2.83 2.48 4.62.04.82-.11 1.52-.46 2.08-.44.7-1.18 1.11-1.91 1.05-.54-.05-.99-.33-1.42-.6-.11-.07-.21-.13-.32-.19-.35-.2-1-.5-1.47-.2-.28.19-.41.6-.54 1.03-.15.48-.3.97-.73 1.28-.24.17-.52.26-.84.26z" fill="#fcb910"/></g><g><path d="m26.44 35.44-13.27 3.05c-.1-1.15-.21-2.3-.56-3.4.43.31 1 .44 1.53.35.7-.13 1.3-.65 1.54-1.31.21-.61.16-1.36.65-1.78.35-.29.85-.31 1.29-.24.45.07.89.22 1.34.19.45-.02.94-.27 1.05-.71.09-.37-.11-.74-.26-1.09-.14-.35-.23-.8.03-1.08.45-.48 1.31.07 1.87-.26.47-.27.45-.95.32-1.48-.18-.74-.45-1.47-.79-2.15 1.16.8 2.21 1.76 3.06 2.88 1.52 1.99 2.42 4.52 2.2 7.03z" fill="#fcb910"/></g><g><path d="m13.17 38.73c-.05 0-.1-.02-.14-.05-.06-.04-.09-.11-.1-.18-.11-1.27-.22-2.32-.55-3.35-.02-.07-.04-.13-.06-.19-.43-1.24-1.18-2.19-2.1-2.69-1.05-.56-2.37-.45-3.14.25-.68.62-.9 1.69-.53 2.53.11.26.07.56-.12.84-.31.46-.94.8-1.45.79-.6-.03-1.16-.38-1.71-1.08-1.21-1.51-1.8-3.47-1.64-5.39.2-2.27 1.47-4.5 3.42-5.98 1.78-1.35 4.12-2.11 6.58-2.14 1.66-.01 3.39.28 5.13.88.13.04.19.18.15.31s-.18.2-.31.15c-1.69-.58-3.35-.87-4.96-.86-2.37.03-4.6.75-6.29 2.04-1.84 1.39-3.05 3.5-3.23 5.63-.16 1.79.4 3.63 1.53 5.04.46.58.91.88 1.35.9.33.01.81-.26 1.02-.58.07-.1.14-.24.08-.37-.45-1.03-.18-2.33.65-3.09.93-.85 2.45-.99 3.7-.32 1.03.56 1.86 1.6 2.33 2.95.02.06.05.14.07.21.32 1 .44 2 .54 3.18l12.83-2.95c.09-1.37-.16-2.81-.72-4.18-.05-.12.01-.27.13-.32.13-.05.27.01.32.13.62 1.51.88 3.09.74 4.59-.01.11-.09.19-.19.22l-13.27 3.05c-.03.03-.05.03-.06.03z"/></g><g><path d="m9.62 36.76c.03 1.19-.73 2.31-1.94 2.67-1.42.43-2.94-.39-3.37-1.83-.13-.44-.15-.89-.07-1.31.01-.05.02-.09.04-.13.23-.89.9-1.65 1.85-1.93 1.42-.43 2.94.38 3.37 1.81.01.01.01.01.01.01.08.24.11.48.11.71z" fill="#1b38ab"/></g><g><path d="m9.62 36.76c.03 1.19-.73 2.31-1.94 2.67-1.42.43-2.94-.39-3.37-1.83-.13-.44-.15-.89-.07-1.31.01-.05.02-.09.04-.13-.01.14-.02.27-.01.4.03.23.11.47.28.64.18.16.44.24.66.15.12-.05.23-.15.36-.18.19-.04.38.07.5.22.12.14.2.33.32.47.12.15.29.28.48.26.2-.01.34-.18.47-.33.13-.14.3-.29.49-.28.21.02.37.23.59.27.16.03.34-.04.46-.16s.2-.27.26-.42c.16-.38.27-.77.34-1.17.01.01.01.01.01.01.1.25.13.49.13.72z" fill="#142f84"/></g><g><g><path d="m15.49 37.02 1.54 5.17-2.67.8c-.38.11-.77-.1-.89-.48l-1.26-4.22c-.05-.17-.02-.35.09-.49l.91-1.18c.14-.19.38-.26.6-.18z" fill="#fe515e"/></g><g><path d="m18.84 36.02 1.54 5.17-3.35 1-1.54-5.17 1.07-1.4c.14-.19.39-.26.61-.18z" fill="#f4eded"/></g><g><path d="m22.2 35.02 1.54 5.17-3.35 1-1.54-5.17 1.08-1.4c.14-.19.38-.26.6-.18z" fill="#fe515e"/></g><g><path d="m25.55 34.02 1.54 5.17-3.35 1-1.54-5.17 1.08-1.4c.14-.19.38-.26.6-.18z" fill="#f4eded"/></g><g><path d="m28.9 33.02 1.54 5.17-3.35 1-1.54-5.17 1.07-1.4c.14-.19.39-.26.61-.18z" fill="#fe515e"/></g><g><path d="m32.33 32.28 1.26 4.22c.11.37-.1.77-.47.88l-2.67.8-1.54-5.16 1.08-1.4c.14-.18.39-.26.6-.18l1.41.49c.15.05.28.19.33.35z" fill="#f4eded"/></g><g><path d="m23.39 39.01.35 1.18-3.35 1-.47-1.59c.13 0 .26-.03.39-.08.59-.25.86-1 1.48-1.17.5-.14 1.02.18 1.43.51.05.05.11.1.17.15z" fill="#f83b4d"/></g><g><path d="m16.22 39.45.82 2.74-2.67.8c-.38.11-.77-.1-.89-.48l-.98-3.28c.34.42.81.72 1.34.85.72.18 1.51.02 2.1-.42.1-.05.19-.13.28-.21z" fill="#f83b4d"/></g><g><path d="m19.91 39.61.47 1.59-3.35 1-.82-2.74c.28-.24.55-.5.91-.59.95-.26 1.88.77 2.79.74z" fill="#d8d6d6"/></g><g><path d="m29.07 38.6-1.97.59-.24-.79c.62-.11 1.3.05 1.93.16.09.02.18.03.28.04z" fill="#f83b4d"/></g><g><path d="m26.86 38.4.24.79-3.35 1-.35-1.18c.36.29.76.55 1.2.53.67-.03 1.12-.68 1.72-.97.16-.08.35-.14.54-.17z" fill="#d8d6d6"/></g><g><path d="m12.75 40.31c-.11 0-.2-.07-.23-.17l-.53-1.77c-.07-.25-.02-.51.13-.71l.91-1.18c.2-.27.56-.38.88-.26l1.5.52.97-1.26c.21-.27.56-.38.88-.26l1.5.52.97-1.26c.2-.27.56-.38.88-.26l1.5.52.97-1.26c.2-.27.56-.37.88-.26l1.5.52.97-1.26c.21-.27.56-.38.88-.26l1.5.52.97-1.26c.2-.27.56-.37.88-.26l1.4.49c.24.08.42.27.5.52l1.26 4.22c.07.24.05.5-.07.73s-.32.39-.57.46l-5.42 1.62c-.13.04-.26-.04-.3-.16-.04-.13.03-.27.16-.3l5.42-1.62c.12-.04.22-.12.28-.23s.07-.24.04-.36l-1.26-4.22c-.03-.09-.1-.17-.19-.2l-1.41-.49c-.12-.04-.25-.01-.33.1l-1.08 1.4c-.06.08-.17.12-.27.08l-1.66-.58c-.12-.04-.26 0-.33.1l-1.07 1.4c-.06.08-.17.12-.27.08l-1.67-.58c-.12-.04-.25-.01-.33.1l-1.08 1.4c-.06.08-.18.12-.27.08l-1.67-.58c-.12-.04-.25-.01-.33.1l-1.08 1.4c-.06.08-.17.12-.27.08l-1.66-.58c-.12-.04-.26 0-.33.1l-1.07 1.4c-.06.08-.17.12-.27.08l-1.67-.58c-.12-.04-.25-.01-.33.1l-.91 1.18c-.06.08-.08.17-.05.27l.48 1.77c.04.13-.03.27-.16.3-.02.01-.05.01-.07.01z"/></g></g><g><path d="m55.46 43.6c-.84 1.98-3.41 3.02-5.53 2.6-2.12-.41-3.87-2.28-4.14-4.42l-.59-1.94c.37-.7.69-1.43.96-2.18.13-.36.24-.71.34-1.08.18-.64.33-1.33.17-1.97-.21-.87-1-1.56-1.87-1.66-.45-.06-.9.03-1.34.08-.46.07-.91.11-1.34-.03s-.87-.49-.91-.94c1.28-2.01 3.66-3.38 6-3.73 1.08-.17 2.21-.06 3.29.24 1.3.35 2.53.99 3.53 1.8.69.55 1.28 1.21 1.75 1.95.77 1.17 1.26 2.52 1.38 3.91.01.1.02.2.03.31.13 2.44-.78 4.81-1.73 7.06z" fill="#fa778d"/></g><g><path d="m55.79 32.32c-.03.07-.07.14-.1.21-.44.88-1.21 1.58-2.12 1.95-.27.11-.56.19-.85.14-.29-.04-.57-.23-.66-.51-.12-.42.22-.82.56-1.11.34-.28.73-.6.73-1.04 0-.43-.39-.77-.79-.93-.4-.17-.85-.22-1.23-.41-.53-.29-.89-.87-.91-1.47-.01-.19.03-.38.08-.57 1.3.35 2.53.99 3.53 1.8.69.55 1.29 1.21 1.76 1.94z" fill="#ef6280"/></g><g><path d="m52.45 36.57c-.24 0-.49-.02-.73-.08-.49-.11-.89-.33-1.17-.62-.35-.37-.49-.88-.37-1.33.13-.44.46-.74.76-1l.17-.16c.13-.12.55-.56.4-.93-.1-.25-.39-.38-.7-.51-.09-.04-.19-.08-.28-.13-.8-.41-1.33-1.26-1.36-2.16-.01-.47.12-.94.38-1.37.07-.11.22-.15.34-.08.11.07.15.22.08.34-.21.34-.32.72-.31 1.1.02.72.46 1.42 1.09 1.74.08.04.16.08.25.12.37.16.79.35.95.78.18.45-.01.98-.52 1.47l-.18.17c-.27.24-.53.47-.61.77-.07.28.03.62.26.87.26.28.64.42.92.48 1.41.32 2.76-.53 3.44-1.06.44-.34.85-.73 1.23-1.1.1-.09.25-.09.34.01s.09.25-.01.34c-.39.38-.82.78-1.27 1.13-.62.47-1.79 1.21-3.1 1.21z" fill="#ef6280"/></g><g><path d="m45.19 39.84.59 1.94c.27 2.14 2.02 4.01 4.14 4.42s4.69-.62 5.53-2.61c.95-2.25 1.87-4.61 1.74-7.05-.01-.1-.01-.21-.03-.31-.09.89-.33 1.79-.92 2.45-.7.77-2 1.07-2.8.39-.45-.38-.73-1.03-1.31-1.1-.48-.07-.9.31-1.26.63-.37.32-.89.61-1.32.39-.61-.33-.48-1.45-1.13-1.68-.44-.15-.87.23-1.32.38-.31.11-.66.09-.96-.04-.26.76-.58 1.49-.95 2.19z" fill="#ef6280"/></g><g><path d="m50.89 46.54c-.34 0-.68-.03-1.01-.1-2.23-.43-4.06-2.38-4.34-4.63l-.59-1.9c-.02-.06-.01-.13.02-.19.37-.7.69-1.43.94-2.15.04-.13.18-.19.31-.15s.19.18.15.31c-.25.71-.56 1.43-.93 2.13l.56 1.84c.27 2.09 1.93 3.86 3.96 4.26 2.15.42 4.51-.69 5.26-2.46.98-2.32 1.84-4.59 1.72-6.94-.01-.09-.01-.19-.03-.29-.19-2.2-1.33-4.33-3.04-5.7-1.93-1.55-4.48-2.32-6.64-1.99-2.37.35-4.57 1.7-5.78 3.54.07.3.41.55.73.65.38.12.81.09 1.22.03l.17-.02c.4-.06.81-.12 1.23-.06.38.05.76.19 1.09.42.11.08.14.23.06.34s-.23.14-.34.06c-.26-.18-.56-.3-.87-.34-.36-.05-.72.01-1.11.06l-.17.02c-.46.07-.96.11-1.44-.05-.5-.16-1.02-.58-1.07-1.15 0-.05.01-.11.04-.15 1.27-1.99 3.63-3.46 6.17-3.84 2.29-.34 4.98.46 7.01 2.09 1.81 1.45 3.02 3.71 3.22 6.03.01.09.02.2.03.31.13 2.46-.76 4.79-1.76 7.16-.7 1.71-2.72 2.86-4.77 2.86z"/></g><g><path d="m39.42 32.44c-.09.29-.12.59-.1.87.07.92.69 1.75 1.63 2.04 1.23.38 2.53-.3 2.91-1.53.1-.33.13-.68.08-1-.12-.86-.72-1.63-1.61-1.9-1.22-.39-2.53.3-2.91 1.52z" fill="#1b38ab"/></g><g><path d="m39.33 33.31c.07.92.69 1.75 1.63 2.04 1.23.38 2.53-.3 2.91-1.53.1-.33.13-.68.08-1 0 .23-.04.46-.14.66-.16.3-.53.51-.83.37-.21-.09-.37-.33-.6-.33-.37 0-.58.61-.93.5-.23-.08-.26-.4-.46-.53-.24-.17-.56.04-.84.11-.3.06-.62-.07-.82-.29z" fill="#142f84"/></g><g><path d="m43.49 34.8c-.05 0-.1-.02-.15-.05-.11-.08-.13-.24-.04-.34.15-.2.27-.42.34-.65.09-.3.12-.6.07-.89-.11-.8-.67-1.47-1.44-1.71-.53-.17-1.09-.11-1.59.14-.49.26-.85.69-1.02 1.22-.08.26-.11.52-.09.78.01.13-.09.25-.22.26-.13.02-.25-.09-.26-.22-.03-.33.01-.65.11-.97.2-.65.65-1.19 1.26-1.51s1.3-.38 1.96-.18c.95.3 1.65 1.12 1.78 2.11.06.36.03.74-.09 1.11-.09.29-.23.56-.42.81-.06.05-.13.09-.2.09z"/></g><g><path d="m50.25 45.02-2.61 4.43c-.7.94-1.55 1.8-2.59 2.34-1.05.54-2.3.74-3.42.37s-2.26-1.44-2.4-2.6c.41-.77.82-1.54 1.07-2.37.01-.04.03-.08.03-.12.22-.8.29-1.66.04-2.45-.24-.78-.81-1.48-1.56-1.82-.74-.35-1.66-.34-2.36.08-.71.42-1.17 1.26-1.08 2.08-.26.33-.81.45-1.19.26-.38-.17-.64-.55-.77-.95-.11-.41-.11-.84-.08-1.26.1-1.29.43-2.6 1.17-3.66.12-.18.26-.35.41-.51 1.1-1.25 2.77-1.98 4.46-2.12l.42-.03c2.23-.07 4.61.8 6.46 2.01.97.63 1.86 1.47 2.55 2.45.49.68.87 1.42 1.12 2.2.16.54.27 1.1.33 1.67z" fill="#509dff"/></g><g><path d="m40.02 38.43c-.22.2-.57.12-.84-.01-.27-.14-.54-.33-.84-.28-.27.04-.47.27-.59.5-.12.24-.17.51-.27.77-.1.25-.25.5-.5.61-.3.14-.66.04-.95-.11-.47-.24-.87-.63-1.14-1.08 1.1-1.25 2.77-1.98 4.46-2.12.2.22.38.45.54.69.11.16.21.32.26.5.04.18.01.4-.13.53z" fill="#308cef"/></g><g><path d="m37.63 41.81c-.3 0-.6-.13-.82-.28-.11-.08-.22-.16-.33-.25-.19-.15-.37-.3-.57-.37-.17-.06-.36-.07-.57-.09l-.21-.02c-.42-.05-.85-.18-1.24-.39-.08-.04-.14-.12-.14-.22 0-.17.21-.3.36-.21.34.18.7.3 1.07.34l.19.01c.23.01.47.03.71.11.28.1.5.28.71.45.1.08.19.16.3.23.25.17.58.27.79.12.15-.12.19-.38.23-.63l.01-.07c.03-.19.11-.77.58-.97.27-.11.53-.05.77.01.09.02.18.05.27.05.42.05.88-.27 1.05-.73.15-.42.1-.95-.15-1.46-.1-.2-.23-.4-.39-.61-.08-.11-.06-.26.05-.34s.26-.06.34.05c.18.24.32.46.44.7.3.64.36 1.29.16 1.84-.25.67-.92 1.12-1.57 1.05-.11-.01-.22-.04-.33-.07-.18-.05-.34-.08-.46-.03-.14.06-.24.26-.29.6l-.01.07c-.05.31-.11.7-.42.94-.15.12-.34.17-.53.17z" fill="#308cef"/></g><g><path d="m39.23 49.56c.14 1.17 1.28 2.24 2.4 2.61s2.37.17 3.42-.38c1.04-.54 1.9-1.39 2.6-2.34l2.61-4.43c-.05-.57-.17-1.14-.33-1.68-.24-.78-.62-1.52-1.11-2.2.03.33-.03.67-.19.96-.3.54-.9.88-1.51.86-.33-.01-.66-.12-.98-.03-.45.12-.71.61-.8 1.07s-.07.94-.23 1.39c-.16.44-.58.84-1.04.76-.35-.06-.62-.38-.97-.41-.51-.05-.84.51-1.07.97-.22.46-.63.99-1.12.87-.26-.07-.42-.29-.56-.52-.01.04-.02.08-.03.12-.27.83-.69 1.61-1.09 2.38z" fill="#308cef"/></g><g><path d="m42.83 52.59c-.44 0-.88-.07-1.28-.2-1.13-.37-2.41-1.49-2.56-2.81-.01-.05 0-.1.03-.14.4-.74.81-1.51 1.06-2.33.01-.03.02-.06.03-.09.24-.88.25-1.66.04-2.33-.23-.74-.76-1.37-1.42-1.68-.69-.32-1.53-.3-2.14.07-.64.38-1.03 1.14-.97 1.84.01.06-.01.12-.05.17-.33.42-.99.57-1.49.34-.41-.19-.74-.59-.89-1.11-.13-.46-.12-.94-.09-1.35.11-1.52.52-2.79 1.21-3.79 1.13-1.64 3.23-2.7 5.48-2.76.93-.03 1.92.1 2.94.38.13.04.21.17.17.3s-.17.21-.3.17c-.97-.27-1.91-.39-2.79-.37-2.1.06-4.05 1.04-5.1 2.55-.64.93-1.02 2.12-1.12 3.55-.03.36-.04.79.07 1.17s.34.67.63.8c.26.12.64.06.84-.13-.04-.86.44-1.74 1.21-2.2.76-.45 1.75-.49 2.6-.09.78.36 1.41 1.1 1.68 1.97.24.76.23 1.63-.03 2.59-.01.03-.02.08-.03.13-.26.84-.68 1.64-1.05 2.35.17 1.06 1.25 2.01 2.22 2.33.99.32 2.17.19 3.23-.36.9-.47 1.75-1.23 2.51-2.27l2.53-4.33c-.06-.53-.16-1.05-.32-1.55-.04-.13.03-.27.16-.31s.27.03.31.16c.17.56.29 1.14.35 1.73 0 .05-.01.1-.03.15l-2.61 4.43c-.82 1.12-1.72 1.93-2.69 2.43-.76.39-1.57.59-2.34.59z"/></g><g><path d="m32.42 45.1c-.05.16-.08.32-.09.48-.1 1.07.56 2.1 1.62 2.43 1.22.38 2.53-.3 2.91-1.53.18-.56.13-1.14-.09-1.63-.26-.59-.77-1.07-1.43-1.28-1.24-.38-2.54.3-2.92 1.53z" fill="#1b38ab"/></g><g><path d="m32.32 45.58c-.1 1.07.56 2.1 1.62 2.43 1.22.38 2.53-.3 2.91-1.53.18-.56.13-1.14-.09-1.63.03.23.04.47 0 .69-.05.29-.19.57-.44.73-.25.15-.61.12-.79-.11-.08-.1-.12-.23-.22-.3-.17-.13-.44-.03-.59.12s-.25.36-.42.5-.45.19-.59.03c-.16-.2-.03-.57-.26-.7-.19-.11-.41.09-.63.12-.21.02-.41-.15-.5-.35z" fill="#142f84"/></g><g><path d="m62.74 52.62c-.34.41-.78.81-1.33.83-.54.01-1.35-.63-1.13-1.12.2-.44.22-.95.1-1.42-.1-.38-.29-.73-.58-1-.77-.72-2-.76-2.94-.28-.93.48-1.57 1.41-1.93 2.39-.02.05-.04.11-.06.17-.31.94-.41 1.93-.51 2.91l-11.35-2.75c-.16-2.15.63-4.32 1.96-6.01.74-.95 1.65-1.77 2.65-2.44.78-.54 1.62-1 2.49-1.37 1.8-.8 3.76-1.28 5.72-1.24 1.97.05 3.95.65 5.5 1.86.83.64 1.53 1.47 2.02 2.39.43.81.71 1.7.78 2.62.14 1.6-.38 3.22-1.39 4.46z" fill="#ffcd3b"/></g><g><path d="m62.74 52.62c-.34.41-.78.81-1.33.83-.54.01-1.35-.63-1.13-1.12.2-.44.22-.95.1-1.42.17-.11.32-.24.45-.39.36-.42.56-.98.52-1.54-.01-.19-.04-.39 0-.57.05-.19.21-.37.41-.34.19.02.3.2.46.29.34.2.79-.06.94-.42.16-.36.1-.77.04-1.15-.05-.39-.09-.8.09-1.15.02-.03.04-.07.06-.1.43.81.71 1.7.78 2.62.14 1.6-.38 3.22-1.39 4.46z" fill="#fcb910"/></g><g><path d="m59.72 50.1c-.07 0-.14-.03-.19-.09-.09-.1-.07-.26.03-.34.38-.32.58-.81.51-1.25-.02-.1-.05-.21-.08-.31-.05-.17-.1-.34-.11-.54-.03-.38.16-.82.57-.92.25-.07.49.03.68.11.12.05.22.09.32.1.25.02.46-.25.5-.5.06-.27 0-.57-.06-.88l-.03-.14c-.08-.36-.14-.83.06-1.25.04-.08.08-.16.15-.24.09-.1.24-.11.34-.02s.11.24.02.34c-.02.03-.05.07-.07.12-.13.29-.08.64-.02.95l.03.14c.07.35.14.7.06 1.07-.09.46-.48.92-1 .9-.18-.01-.34-.07-.49-.13-.14-.06-.27-.11-.37-.08-.15.04-.22.25-.21.43.01.14.05.28.09.43.03.12.07.24.09.36.1.62-.16 1.27-.68 1.71-.03.01-.08.03-.14.03z" fill="#fcb910"/></g><g><path d="m43.02 52.36 11.35 2.75c.1-.98.2-1.97.51-2.91-.38.26-.86.37-1.32.29-.6-.12-1.11-.57-1.31-1.14-.18-.52-.13-1.17-.54-1.54-.29-.26-.72-.28-1.11-.22-.38.06-.76.18-1.15.15-.39-.02-.81-.24-.89-.62-.08-.32.1-.63.23-.93s.21-.69-.01-.93c-.38-.41-1.13.04-1.6-.24-.4-.24-.37-.82-.26-1.27.16-.63.4-1.26.7-1.84-1 .68-1.91 1.49-2.66 2.44-1.3 1.69-2.1 3.86-1.94 6.01z" fill="#fcb910"/></g><g><path d="m54.37 55.35c-.02 0-.04 0-.06-.01l-11.35-2.75c-.1-.02-.18-.11-.19-.22-.1-1.29.14-2.65.69-3.94.05-.12.2-.18.32-.13s.18.2.13.32c-.49 1.16-.72 2.38-.66 3.54l10.9 2.64c.1-.99.22-1.84.5-2.68.02-.06.04-.13.07-.19.42-1.15 1.14-2.04 2.04-2.51 1.09-.56 2.41-.43 3.21.32.71.67.94 1.8.53 2.7-.04.09.01.21.06.28.17.26.56.49.83.49h.01c.37-.01.74-.26 1.14-.74.98-1.19 1.47-2.75 1.36-4.28-.14-1.82-1.14-3.63-2.7-4.84-1.43-1.12-3.34-1.76-5.36-1.8-1.38-.03-2.8.2-4.25.68-.13.04-.27-.03-.31-.15-.04-.13.03-.27.15-.31 1.5-.5 2.99-.74 4.42-.71 2.12.05 4.13.73 5.64 1.91 1.66 1.29 2.74 3.23 2.89 5.18.12 1.65-.41 3.34-1.47 4.63-.49.6-.98.9-1.5.92-.41.01-.99-.3-1.26-.71-.17-.25-.2-.52-.1-.75.32-.71.14-1.61-.42-2.14-.64-.6-1.76-.7-2.65-.24-.79.41-1.43 1.21-1.81 2.26-.02.06-.04.11-.06.16-.29.88-.4 1.78-.5 2.86-.01.07-.04.13-.1.17-.04.03-.09.04-.14.04z"/></g><g><path d="m57.53 53.06c-.06.2-.1.4-.1.61-.04 1.02.61 1.99 1.63 2.31 1.22.38 2.53-.3 2.91-1.53.12-.38.14-.76.07-1.13-.16-.81-.75-1.52-1.59-1.79-1.23-.38-2.54.3-2.92 1.53z" fill="#1b38ab"/></g><g><path d="m57.42 53.66c-.04 1.02.61 1.99 1.63 2.31 1.22.38 2.53-.3 2.91-1.53.12-.38.14-.76.07-1.13-.03.35-.18.69-.42.95-.1.1-.22.2-.36.24s-.31.02-.42-.08c-.15-.14-.16-.41-.34-.52-.16-.11-.38-.04-.53.08-.16.12-.27.28-.43.39s-.4.15-.54.01c-.15-.16-.1-.48-.31-.57-.11-.05-.24 0-.33.08-.1.07-.18.16-.3.19-.2.07-.43-.06-.55-.24-.03-.06-.06-.11-.08-.18z" fill="#142f84"/></g><g><g><path d="m52.39 53.83-1.38 4.42 2.28.71c.32.1.66-.08.76-.4l1.12-3.61c.04-.14.02-.3-.07-.42l-.77-1.02c-.12-.16-.33-.23-.52-.16z" fill="#fe515e"/></g><g><path d="m49.53 52.94-1.38 4.42 2.86.89 1.38-4.42-.91-1.21c-.12-.16-.33-.23-.52-.16z" fill="#f4eded"/></g><g><path d="m46.66 52.04-1.38 4.42 2.87.89 1.38-4.42-.91-1.21c-.12-.16-.33-.23-.52-.16z" fill="#fe515e"/></g><g><path d="m43.8 51.15-1.38 4.42 2.87.89 1.38-4.42-.91-1.21c-.12-.16-.33-.23-.52-.16z" fill="#f4eded"/></g><g><path d="m40.94 50.26-1.38 4.42 2.86.89 1.38-4.42-.91-1.21c-.12-.16-.33-.23-.52-.16z" fill="#fe515e"/></g><g><path d="m38.01 49.59-1.13 3.61c-.1.32.08.66.4.76l2.28.71 1.38-4.41-.91-1.21c-.12-.16-.33-.22-.52-.16l-1.21.4c-.14.05-.25.16-.29.3z" fill="#f4eded"/></g><g><path d="m45.6 55.45-.31 1.01 2.87.89.42-1.35c-.11 0-.22-.02-.33-.07-.5-.22-.73-.87-1.25-1.02-.43-.12-.88.15-1.23.42-.06.04-.12.08-.17.12z" fill="#f83b4d"/></g><g><path d="m51.74 55.9-.73 2.34 2.28.71c.32.1.66-.08.76-.4l.87-2.8c-.3.35-.71.61-1.16.72-.62.15-1.3 0-1.8-.38-.06-.05-.14-.12-.22-.19z" fill="#f83b4d"/></g><g><path d="m48.58 56-.42 1.36 2.86.89.73-2.34c-.23-.21-.47-.43-.77-.52-.81-.23-1.62.64-2.4.61z" fill="#d8d6d6"/></g><g><path d="m40.74 55.04 1.69.53.21-.68c-.53-.1-1.11.03-1.66.12-.08.01-.16.02-.24.03z" fill="#f83b4d"/></g><g><path d="m42.63 54.89-.21.68 2.87.89.31-1.01c-.31.24-.65.46-1.04.44-.57-.03-.95-.59-1.46-.85-.15-.07-.31-.12-.47-.15z" fill="#d8d6d6"/></g><g><path d="m54.71 56.71c-.02 0-.05 0-.07-.01-.13-.04-.2-.18-.16-.31l.47-1.52c.02-.07.01-.14-.03-.2l-.77-1.02c-.06-.08-.15-.11-.24-.08l-1.44.48c-.1.03-.21 0-.27-.09l-.91-1.21c-.06-.08-.16-.11-.25-.08l-1.43.48c-.1.03-.21 0-.27-.08l-.91-1.21c-.06-.08-.15-.11-.24-.08l-1.44.48c-.1.03-.21 0-.27-.08l-.91-1.21c-.06-.08-.15-.11-.24-.08l-1.44.48c-.1.03-.21 0-.27-.09l-.91-1.21c-.06-.08-.16-.11-.25-.08l-1.43.48c-.1.03-.21 0-.27-.08l-.91-1.21c-.06-.08-.15-.11-.24-.08l-1.21.4c-.07.02-.12.07-.14.14l-1.12 3.61c-.03.09-.02.19.02.28.05.09.12.15.22.18l4.63 1.44c.13.04.2.18.16.31s-.18.2-.31.16l-4.63-1.44c-.22-.07-.4-.22-.5-.42s-.13-.43-.06-.65l1.12-3.61c.07-.22.24-.39.46-.46l1.21-.4c.29-.1.61 0 .79.25l.8 1.07 1.27-.42c.29-.1.61 0 .79.25l.8 1.07 1.27-.42c.29-.1.61 0 .79.25l.8 1.07 1.27-.42c.29-.1.61 0 .79.25l.8 1.07 1.27-.42c.29-.1.61 0 .79.25l.8 1.07 1.27-.42c.29-.1.61 0 .79.25l.77 1.02c.14.18.18.42.11.64l-.47 1.51c-.05.08-.14.15-.25.15z"/></g></g><g><path d="m20.93 31.41c-.44 0-.85.21-1.14.56s-.47.82-.47 1.35c0-1.05-.72-1.91-1.61-1.91.44 0 .84-.21 1.14-.55.29-.35.47-.82.47-1.35 0 .53.18 1 .47 1.35.29.33.7.55 1.14.55z" fill="#fff"/></g><g><path d="m17.1 15.28c-.44 0-.85.21-1.14.56s-.47.82-.47 1.35c0-1.05-.72-1.91-1.61-1.91.44 0 .84-.21 1.14-.55.29-.35.47-.82.47-1.35 0 .53.18 1 .47 1.35.29.34.7.55 1.14.55z" fill="#fff"/></g><g><path d="m48.27 45.02c-.44 0-.85.21-1.14.56s-.47.82-.47 1.35c0-1.05-.72-1.91-1.61-1.91.44 0 .84-.21 1.14-.55.29-.35.47-.82.47-1.35 0 .53.18 1 .47 1.35.29.33.7.55 1.14.55z" fill="#fff"/></g><g><path d="m50.63 30.61c-.34 0-.64.16-.86.42s-.36.62-.36 1.02c0-.79-.54-1.44-1.21-1.44.34 0 .64-.16.86-.42s.35-.62.35-1.02c0 .4.14.76.36 1.02s.53.42.86.42z" fill="#fff"/></g><g><path d="m22.31 28.69c-.28 0-.54.14-.72.36-.19.22-.3.52-.3.86 0-.67-.46-1.21-1.02-1.21.28 0 .54-.14.72-.35.18-.22.3-.52.3-.86 0 .33.11.64.3.86.18.2.44.34.72.34z" fill="#fff"/></g><g><g><path d="m28.06 19.38c0 .48-1.05.85-2.1 1.49-.53.3-1.02.64-1.36.84-.33.19-.55.37-.79.36-.11-.01-.22-.1-.27-.3-.05-.19-.03-.47.09-.76.23-.58.73-1.17 1.48-1.61.74-.44 1.52-.57 2.07-.51.55.05.87.26.88.49z" fill="#fff"/></g><g><path d="m30.37 19.76c-.09.19-.46.21-.87.11-.41-.09-.74-.28-.73-.48s.42-.34.9-.24c.48.11.79.43.7.61z" fill="#fff"/></g></g><g><g><path d="m52.91 43.76c-.09-.21.15-.55.67-.87.52-.31 1.38-.59 2.35-.53s1.83.46 2.3.92c.48.46.57.9.41 1.05-.17.17-.53.08-1.01-.02-.48-.11-1.09-.22-1.81-.27-1.39-.08-2.72.17-2.91-.28z" fill="#fff"/></g><g><path d="m50.52 45.03c-.11-.17.16-.54.63-.81.46-.27.93-.31 1.02-.13s-.21.51-.65.77-.89.35-1 .17z" fill="#fff"/></g></g></g></svg>