<svg id="Layer_1" height="512" viewBox="0 0 400 400" width="512" xmlns="http://www.w3.org/2000/svg" xmlns:xlink="http://www.w3.org/1999/xlink"><linearGradient id="lg1"><stop offset="0" stop-color="#d1bdd3"/><stop offset="1" stop-color="#d4f1e3"/></linearGradient><linearGradient id="SVGID_1_" gradientTransform="matrix(.784 .621 -.621 .784 658.641 -23.736)" gradientUnits="userSpaceOnUse" x1="-232.434" x2="-108.41" xlink:href="#lg1" y1="352.831" y2="421.161"/><linearGradient id="lg2"><stop offset="0" stop-color="#1c1c1c"/><stop offset=".5767"/></linearGradient><linearGradient id="SVGID_2_" gradientTransform="matrix(.84 .542 -.542 .84 569.134 28.026)" gradientUnits="userSpaceOnUse" x1="-197.726" x2="-164.996" xlink:href="#lg2" y1="235.969" y2="235.969"/><linearGradient id="SVGID_3_" gradientTransform="matrix(.84 .542 -.542 .84 569.134 28.026)" gradientUnits="userSpaceOnUse" x1="-158.464" x2="-125.736" xlink:href="#lg2" y1="235.97" y2="235.97"/><linearGradient id="SVGID_4_" gradientTransform="matrix(.832 .556 -.556 .832 624.022 -13.72)" gradientUnits="userSpaceOnUse" x1="-227.916" x2="-144.907" xlink:href="#lg2" y1="243.039" y2="288.772"/><linearGradient id="SVGID_5_" gradientTransform="matrix(.832 .556 -.556 .832 624.022 -13.72)" gradientUnits="userSpaceOnUse" x1="-198.563" x2="-152.343" xlink:href="#lg2" y1="221.403" y2="246.868"/><linearGradient id="lg3"><stop offset="0" stop-color="#d14dd3"/><stop offset="1" stop-color="#700e84"/></linearGradient><linearGradient id="SVGID_6_" gradientTransform="matrix(.832 .556 -.556 .832 624.022 -13.72)" gradientUnits="userSpaceOnUse" x1="-208.295" x2="-164.304" xlink:href="#lg3" y1="244.96" y2="269.196"/><linearGradient id="SVGID_7_" gradientTransform="matrix(.927 -.376 .376 .927 -241.527 200.923)" gradientUnits="userSpaceOnUse" x1="329.849" x2="381.535" xlink:href="#lg3" y1="-22.881" y2="5.595"/><linearGradient id="SVGID_8_" gradientTransform="matrix(.927 -.376 .376 .927 -241.527 200.923)" gradientUnits="userSpaceOnUse" x1="301.269" x2="394.233" xlink:href="#lg2" y1="3.159" y2="54.377"/><linearGradient id="SVGID_9_" gradientTransform="matrix(.954 -.3 .3 .954 -230.368 166.657)" gradientUnits="userSpaceOnUse" x1="264.674" x2="403.366" xlink:href="#lg1" y1="80.694" y2="157.105"/><linearGradient id="SVGID_10_" gradientTransform="matrix(.954 -.3 .3 .954 -230.368 166.657)" gradientUnits="userSpaceOnUse" x1="311.365" x2="346.874" xlink:href="#lg2" y1="-35.483" y2="-15.92"/><linearGradient id="SVGID_11_" gradientTransform="matrix(.989 -.151 .151 .989 -209.393 36.18)" gradientUnits="userSpaceOnUse" x1="259.817" x2="280.53" xlink:href="#lg2" y1="132.59" y2="132.59"/><linearGradient id="SVGID_12_" gradientTransform="matrix(.989 -.151 .151 .989 -209.393 36.18)" gradientUnits="userSpaceOnUse" x1="301.492" x2="322.206" xlink:href="#lg2" y1="121.676" y2="121.676"/><linearGradient id="SVGID_13_" gradientTransform="matrix(.954 -.3 .3 .954 -230.368 166.657)" gradientUnits="userSpaceOnUse" x1="323.887" x2="338.052" xlink:href="#lg2" y1="70.398" y2="70.398"/><linearGradient id="lg4"><stop offset="0" stop-color="#6aab61"/><stop offset="1" stop-color="#2c5018"/></linearGradient><linearGradient id="SVGID_14_" gradientUnits="userSpaceOnUse" x1="168.307" x2="232.86" xlink:href="#lg4" y1="127.134" y2="162.7"/><linearGradient id="lg5"><stop offset="0" stop-color="#ffe33c"/><stop offset=".4603" stop-color="#ffaf00"/><stop offset="1" stop-color="#ff7900"/></linearGradient><linearGradient id="SVGID_15_" gradientUnits="userSpaceOnUse" x1="66.045" x2="176.917" xlink:href="#lg5" y1="238.446" y2="299.53"/><linearGradient id="SVGID_16_" gradientTransform="matrix(-1 0 0 1 214.343 0)" gradientUnits="userSpaceOnUse" x1="-105.639" x2="5.233" xlink:href="#lg5" y1="238.446" y2="299.53"/><linearGradient id="SVGID_17_" gradientUnits="userSpaceOnUse" x1="131.49" x2="269.505" y1="252.921" y2="328.959"><stop offset="0" stop-color="#ffe33c"/><stop offset=".3545" stop-color="#fc0"/><stop offset=".619" stop-color="#ffaf00"/><stop offset="1" stop-color="#ff7900"/></linearGradient><linearGradient id="SVGID_18_" gradientUnits="userSpaceOnUse" x1="138.871" x2="222.592" xlink:href="#lg2" y1="290.482" y2="336.608"/><linearGradient id="SVGID_19_" gradientTransform="matrix(.736 -.677 .677 .736 431.085 -215.159)" gradientUnits="userSpaceOnUse" x1="-451.941" x2="-390.038" xlink:href="#lg4" y1="147.947" y2="182.052"/><linearGradient id="SVGID_20_" gradientTransform="matrix(.736 -.677 .677 .736 431.085 -215.159)" gradientUnits="userSpaceOnUse" x1="-440.616" x2="-375.949" y1="173.451" y2="160.118"><stop offset="0" stop-color="#2c5018"/><stop offset="1" stop-color="#6aab61"/></linearGradient><linearGradient id="SVGID_21_" gradientTransform="matrix(.956 .293 -.293 .956 258.785 12.781)" gradientUnits="userSpaceOnUse" x1="-53.472" x2="-9.682" xlink:href="#lg2" y1="272.169" y2="272.169"/><linearGradient id="SVGID_22_" gradientTransform="matrix(.956 .293 -.293 .956 258.785 12.781)" gradientUnits="userSpaceOnUse" x1="35.73" x2="79.521" xlink:href="#lg2" y1="249.096" y2="249.096"/><g><g><g><g><path d="m234.239 131.227s-12.109-22.061 3.317-32.414c17.003-11.41 17.305 11.06 26.217 7.964 8.511-2.957 29.559-37.72 66.072-16.163 48.304 28.518 16.423 72.589 14.411 80.689-2.013 8.101 6.604 2.118 12.462 2.65 7.663.695 19.286 10.148 8.669 19.367-10.617 9.218-24.425 8.63-31.617 16.71s1.988 36.553-10.743 42.617-24.385-15.988-42.798-18.867c-18.415-2.879-38.953-8.861-48.077-23.869-9.124-15.006-18.625-28.209-29.849-30.73-11.223-2.521-19.841-11.67-.611-22.602 19.229-10.929 27.348-14.162 32.547-25.352z" fill="url(#SVGID_1_)"/><g><g><circle cx="288.79" cy="127.928" fill="url(#SVGID_2_)" r="16.365"/><g fill="#fff"><circle cx="288.244" cy="132.186" r="7.542"/><circle cx="282.936" cy="121.866" r="2.512"/><circle cx="296.855" cy="122.754" r="3.363"/></g></g><g><circle cx="321.775" cy="149.221" fill="url(#SVGID_3_)" r="16.364"/><g fill="#fff"><circle cx="318.122" cy="151.471" r="7.543"/><circle cx="329.711" cy="152.058" r="2.512"/><circle cx="323.17" cy="139.74" r="3.363"/></g></g></g></g><g><path d="m376.251 140.428c-5.895 8.822-35.311-.483-65.702-20.787-30.393-20.303-50.252-43.915-44.358-52.738 5.894-8.822 35.311.482 65.703 20.785 30.391 20.305 50.251 43.918 44.357 52.74z" fill="url(#SVGID_4_)"/><path d="m295.875 79.75s9.18 22.84 54.665 39.177c0 0 8.424-22.178 19.646-60.928 0 0 3.807 10.063 11.78 13.886 0 0 .282-24.626-5.781-30.182-6.064-5.555-58.414 15.4-80.31 38.047z" fill="url(#SVGID_5_)"/><path d="m302.288 73.848c-2.336 1.943-4.493 3.916-6.413 5.901 0 0 9.18 22.84 54.665 39.177 0 0 1.364-3.592 3.724-10.404-25.398-8.906-45.391-27.889-51.976-34.674z" fill="url(#SVGID_6_)"/></g><path d="m294.094 160.924c-1.453 0-2.729-.358-3.821-1.075-4.087-2.686-3.581-9.036-3.509-9.751.098-.982.972-1.696 1.957-1.603.98.098 1.697.972 1.603 1.953-.128 1.351-.034 5.138 1.919 6.414 1.557 1.018 4.359.455 8.104-1.628.861-.481 1.952-.17 2.433.694.479.863.169 1.952-.694 2.432-3.072 1.708-5.744 2.564-7.992 2.564z"/></g><g><path d="m48.568 105.144s26.898 5.855 70.585-25.964c0 0-15.227-21.727-44.026-56.451 0 0 11.701 2.801 20.247-2.175 0 0-22.606-15.731-31.555-13.611-8.949 2.121-22.447 63.718-15.251 98.201z" fill="url(#SVGID_7_)"/><path d="m159.865 70.153c4.46 10.996-22.627 32.364-60.504 47.729-37.876 15.362-72.195 18.903-76.655 7.909-4.46-10.996 17.636-40.602 55.511-55.965 37.876-15.363 77.19-10.668 81.648.327z" fill="url(#SVGID_8_)"/><path d="m53.047 198.192s-28.017-2.655-27.904-23.431c.125-22.899 21.103-9.063 23.837-19.254 2.61-9.73-11.752-45.83 31.128-66.069 56.728-26.774 72.897 25.193 79.128 32.144 6.23 6.952 6.109-4.779 10.279-9.863 5.458-6.652 21.506-11.469 23.365 4.145s-7.359 28.02-4.401 39.749c2.957 11.729 35.067 21.124 32.679 36.711s-30.11 12.515-44.341 27.744c-14.231 15.227-32.668 30.471-52.283 29.484-19.616-.986-37.799-.488-47.181 8.311-9.383 8.799-23.26 11.025-21.295-13.631 1.966-24.658 4.075-34.201-3.011-46.04z" fill="url(#SVGID_9_)"/><path d="m99.498 52.998c-6.551-8.402-14.69-18.598-24.37-30.269 0 0 11.701 2.801 20.247-2.175 0 0-22.606-15.731-31.555-13.611-6.495 1.539-15.384 34.409-17.02 65.505 7.816-6.822 23.774-16.624 52.698-19.45z" fill="url(#SVGID_10_)"/><path d="m72.466 135.614c-.182.027-.367.043-.556.043-2.057.007-3.732-1.65-3.743-3.707-.01-1.812.238-10.974 6.067-13.351 5.591-2.274 11.104 3.428 12.916 5.301 1.434 1.481 1.395 3.844-.086 5.276-1.482 1.434-3.845 1.395-5.276-.089-2.875-2.971-4.371-3.453-4.758-3.531-.71.746-1.402 3.841-1.4 6.361.001 1.87-1.372 3.422-3.164 3.697z" fill="url(#SVGID_11_)"/><path d="m112.008 118.516c-.182.027-.365.043-.556.043-2.057.007-3.731-1.649-3.742-3.707-.01-1.813.238-10.974 6.067-13.351 5.587-2.275 11.104 3.427 12.917 5.301 1.433 1.481 1.392 3.843-.088 5.276-1.482 1.434-3.843 1.394-5.276-.089-2.875-2.972-4.37-3.453-4.758-3.53-.71.745-1.403 3.839-1.399 6.36.001 1.87-1.372 3.422-3.165 3.697z" fill="url(#SVGID_12_)"/><path d="m108.492 142.414c-.601 0-1.204-.094-1.791-.288-.908-.3-1.401-1.279-1.101-2.187s1.279-1.4 2.187-1.101c1.072.354 2.019-.143 2.545-.727.206-.229.846-1.047.425-1.984-.434-.967-.967-1.054-1.142-1.082-.768-.123-1.84.4-2.673 1.304-.574.621-1.513.739-2.22.276-.708-.463-.979-1.369-.639-2.144.474-1.082.403-3.874-.109-4.33-.14-.008-.42.294-.536.425-.877 1-1.165 2.724-1.015 3.146.374.88-.037 1.894-.917 2.268s-1.897-.039-2.271-.919c-.813-1.912.109-4.976 1.481-6.638 1.114-1.351 2.594-1.946 4.066-1.63.713.153 1.703.61 2.376 1.924.441.862.652 1.956.701 3.053.774-.22 1.559-.276 2.313-.154 1.643.267 2.973 1.362 3.745 3.082.85 1.894.462 4.086-1.013 5.722-1.157 1.283-2.772 1.984-4.412 1.984z" fill="url(#SVGID_13_)"/></g><g><g><path d="m165.132 167.223s7.856-36.491 0-47.785c-7.855-11.294 46.002-31.622 51.827-15.812 5.824 15.812-.953 58.579 14.858 71.454 15.812 12.875-70.157 24.118-66.685-7.857z" fill="url(#SVGID_14_)"/><path d="m176.918 175.817s-10.704-23.839-54.299-15.945c-48.272 8.741-95.216 99.042-83.168 162.291 12.048 63.246 88.931 73.912 116.79 43.795 27.856-30.118 24.061-172.834 20.677-190.141z" fill="url(#SVGID_15_)"/><path d="m209.109 175.817s10.703-23.839 54.301-15.945c48.271 8.741 95.214 99.042 83.166 162.291-12.047 63.246-88.93 73.912-116.788 43.795s-24.063-172.834-20.679-190.141z" fill="url(#SVGID_16_)"/><path d="m282.892 316.354c0 63.363-40.252 78.309-89.905 78.309s-89.905-14.945-89.905-78.309 40.251-151.154 89.904-151.154 89.906 87.79 89.906 151.154z" fill="url(#SVGID_17_)"/></g><path d="m224.976 305.035c.618 2.381 1.134 5.049 1.134 7.359 0 5.803-9.716 7.961-16.732 7.42-4.393-.338-5.507-6.072-5.725-10.311-46.109 5.82-80.715-14.17-80.715-14.17s4.791 31.59 24.991 52.834c1.565-3.422 4.371-6.645 9.094-4.875 8.636 3.238 13.762 5.127 13.762 9.715 0 2.381-1.741 6.053-3.42 9.039 5.538 2.449 11.715 4.145 18.646 4.75 52.938 4.643 63.072-71.463 63.072-71.463-8.181 4.204-16.246 7.37-24.107 9.702z" fill="url(#SVGID_18_)"/></g><g><path d="m196.068 165.602s-15.572 27.385.602 50.876l4.344-8.078s9.906 18.645 32.166 22.658l.426-6.924s16.688 13.221 41.687.021c0 0 9.497-12.326-5.841-43.769l5.872.476s-6.757-30.924-36.634-23.033l6.283-7.008c0 .001-27.135-11.775-48.905 14.781z" fill="url(#SVGID_19_)"/><path d="m238.689 157.83 6.283-7.008s-27.135-11.775-48.904 14.78c0 0-.576 1.016-1.389 2.812 21.894 12.104 57.951 33.7 80.383 55.858.077-.039.152-.074.229-.115 0 0 9.497-12.326-5.841-43.769l5.872.476c.001-.001-6.756-30.925-36.633-23.034z" fill="url(#SVGID_20_)"/></g></g><path d="m130.194 276.537c-.371-.113-.737-.256-1.099-.43-3.923-1.877-5.59-6.57-3.719-10.498 1.647-3.459 10.539-20.674 23.821-19.842 12.733.809 17.993 16.729 19.722 21.963 1.367 4.137-.879 8.598-5.016 9.965-4.138 1.365-8.6-.879-9.965-5.018-2.742-8.299-5.146-10.592-5.813-11.096-2.039.768-6.201 6.021-8.513 10.824-1.712 3.562-5.752 5.257-9.418 4.132z" fill="url(#SVGID_21_)"/><path d="m222.24 280.643c-.371-.113-.738-.256-1.1-.43-3.923-1.877-5.59-6.57-3.719-10.498 1.648-3.459 10.539-20.674 23.821-19.842 12.729.801 17.993 16.729 19.722 21.965 1.367 4.135-.879 8.596-5.016 9.963-4.139 1.365-8.598-.881-9.965-5.018-2.741-8.299-5.146-10.59-5.813-11.094-2.039.766-6.201 6.018-8.513 10.822-1.712 3.561-5.751 5.257-9.417 4.132z" fill="url(#SVGID_22_)"/></g></svg>