<svg id="Capa_2" enable-background="new 0 0 453.543 453.543" viewBox="0 0 453.543 453.543" xmlns="http://www.w3.org/2000/svg"><g><path d="m438.345 159.868c-41.83-69.558-132.286 29.103-132.286 29.103l-.081 10.519c6.022 82.686 26.47-.573 26.47-.573 12.026 92.741 27.415 4.033 27.415 4.033 48.181 100.54 31.935-9.266 31.935-9.266 82.014 95.669 30.595-13.242 30.595-13.242s57.782 48.983 15.952-20.574z" fill="#b2e2eb"/><path d="m1.528 255.967c8.776-80.691 132.286-29.103 132.286-29.103l4.489 9.514c29.236 77.579-24.267 10.589-24.267 10.589 28.007 89.226-23.191 15.166-23.191 15.166-1.537 111.478-32.876 4.993-32.876 4.993-34.291 121.256-33.328.821-33.328.821s-31.889 68.711-23.113-11.98z" fill="#b2e2eb"/><path d="m289.841 117.203c-16.04-9.34-36.915-.955-50.757 11.41-9.51 8.495-17.245 18.88-22.879 30.311-4.687-5.324-9.869-10.164-15.692-14.296-18.43-13.079-44.663-17.434-63.621-5.134-16.04 10.406-23.715 30.704-22.853 49.804.862 19.101 9.088 37.147 19.188 53.382 28.307 45.507 72.853 80.676 123.687 97.65l12.55-21.361c25.797-51.519 48.737-108.289 40.017-165.242-2.167-14.14-7.276-29.325-19.64-36.524z" fill="#ff237d"/><path d="m1.528 255.967c8.776-80.691 132.286-29.103 132.286-29.103l4.489 9.514c29.236 77.579-24.267 10.589-24.267 10.589 28.007 89.226-23.191 15.166-23.191 15.166-1.537 111.478-32.876 4.993-32.876 4.993-34.291 121.256-33.328.821-33.328.821s-31.889 68.711-23.113-11.98z" fill="#7ddbe2"/><path d="m188.869 257.455c-29.315-29.523-55.229-68.816-60.777-110.379-10.012 11.126-14.739 27.043-14.054 42.223.862 19.1 9.088 37.147 19.187 53.382 28.307 45.507 72.854 80.676 123.687 97.65l12.549-21.361c2.727-5.446 5.418-10.954 8.047-16.511-33.076-6.066-64.255-20.447-88.639-45.004z" fill="#e20369"/><path d="m216.237 160.36c6.308 4.702 9.943 13.498 9.933 21.641 0 .954-.05 1.899-.149 2.827-.115 1.08-.354 2.202-.775 3.125-.424.929-1 1.634-1.803 2.037-.463.233-.984.343-1.533.344-.794.002-1.642-.24-2.364-.649-1.245-.7-2.262-1.877-3.154-3.181-1.805-2.623-2.557-6.128-2.555-9.916-.004-5.68 1.689-11.946 3.701-16.572.189-.435-.011-.94-.445-1.129-.435-.189-.94.011-1.129.445-2.089 4.819-3.839 11.241-3.843 17.256.002 4.005.779 7.852 2.856 10.887.96 1.395 2.12 2.794 3.725 3.704.964.544 2.076.87 3.208.871.78 0 1.572-.159 2.303-.526 1.246-.625 2.07-1.698 2.596-2.862.529-1.169.788-2.452.918-3.651.106-.991.159-1.997.159-3.01-.01-8.63-3.766-17.866-10.621-23.015-.38-.284-.917-.207-1.201.173-.284.379-.206.917.173 1.201z" fill="#510013"/><g fill="#fff"><path d="m277.942 122.103-2.845 3.335-4.539-.104 2.833 1.385-3.735 2.945 3.956-.452.437 4.264 2.166-4.432 2.614 1.188-1.507-2.717 2.841-1.852-3.291.102z"/><path d="m275.72 149.464 8.915-2.868 8.135 5.284-3.596-5.698 10.094-1.161-7.697-3.62 3.992-8.239-8.912 5.624-3.419-5.095-.31 6.631-7.241.178 6.095 3.508z"/></g></g></svg>