<svg id="Layer_1" enable-background="new 0 0 1417.3 1417.3" height="512" viewBox="0 0 1417.3 1417.3" width="512"
     xmlns="http://www.w3.org/2000/svg" xmlns:xlink="http://www.w3.org/1999/xlink">
    <linearGradient id="SVGID_1_" gradientUnits="userSpaceOnUse" x1="0" x2="1417.323" y1="708.661" y2="708.661">
        <stop offset="0" stop-color="#ebebec"/>
        <stop offset="1" stop-color="#fbfbfb"/>
    </linearGradient>
    <g>
        <g>
            <path d="m106.5 755.4h280.5c8.3 7 16.8 13.8 25.2 20.4l22.1 48.8 29.8 65.8c-10.5 1.4-20.6 5-30.1 11.7-41.1 4.9-67.6 44.9-56.8 85-17.4-7.1-36.9-6.7-53.9.6-64.4-9.4-107.2 66.6-60.8 121.2l-8.2 49.3c-18.5 24.5-28.1 54.2-27.3 85.4 1.9 73 63.7 132.5 137.8 132.5h246.3c30.1 0 57-15.1 73.3-38h55.4 70c43.4 0 81.8-28.5 94.9-69.6l21.1 5.5c10.1 6.3 21.8 9.7 33.9 9.7 1.7 0 3.5-.1 5.2-.2 158.3-12.7 137.7-189.1 29.4-181.4-5.6-4.2-11.8-7.6-18.3-10.3 15-14.2 24.1-34.1 24-56 105.9.4 119.8-129.2 35.8-147.9-7-6.8-15.5-12.2-25.1-15.7h306.5c100.5 0 138.7-132.1 51.8-183.6-12-28.1-33.4-51.2-60.4-65.3-13.3-39.9-39.2-73.4-72.8-96.2 13.9-39 23.1-80.1 27.4-123.2 8.8-87.9-18.8-176.5-75.6-243.2-54.8-64.1-130.6-102.2-213.7-107.3-6.4-.4-12.8-.6-19.2-.6-88.5 0-171.6 37.5-230 102.1-58.4-71.1-146.8-113.7-240.1-113.7-1.2 0-2.4 0-3.6 0-83.2.9-160.9 35.3-218.7 96.8-60 63.8-91.9 151-87.5 239.2.3 5.9.8 11.8 1.3 17.7-23.1 23.3-40.8 52.2-51.1 84.7-32 15.8-57.2 42.9-70.5 76-96 54.1-56.7 199.8 52 199.8z"
                  fill="none"/>
            <g>
                <g>
                    <path d="m271.6 1114.7c-.1 0-.2 0-.3 0-.9-.2-1.6-1-1.4-2l1-6-2.4-2.9c-.5-.6-1-1.2-1.5-1.9-.6-.7-.5-1.8.3-2.4s1.8-.5 2.4.3c.5.6 1 1.2 1.5 1.8l3.5 4.1-1.3 7.6c-.2.8-.9 1.4-1.8 1.4z"
                          fill="#cecece"/>
                </g>
                <g>
                    <path d="m260.4 1090.5c-.6 0-1.2-.3-1.5-.9-2.3-4.4-4.2-9-5.5-13.7-.3-.9.3-1.9 1.2-2.1s1.9.3 2.1 1.2c1.3 4.4 3 8.8 5.2 13.1.4.8.1 1.9-.7 2.3-.2 0-.5.1-.8.1zm-7.7-27.6c-.9 0-1.7-.7-1.7-1.6-.1-1-.1-2.1-.1-3.1 0-3.9.4-7.9 1.1-11.7.2-.9 1.1-1.5 2-1.4.9.2 1.6 1.1 1.4 2-.7 3.6-1 7.4-1 11.1 0 1 0 1.9.1 2.9 0 .9-.7 1.7-1.8 1.8zm5.3-28.2c-.2 0-.5 0-.7-.1-.9-.4-1.3-1.4-.9-2.3l.6-1.3c1.9-4.1 4.2-8 6.9-11.6.6-.8 1.7-.9 2.4-.3.8.6.9 1.7.3 2.4-2.5 3.4-4.7 7-6.5 10.9l-.5 1.2c-.3.7-1 1.1-1.6 1.1zm17.2-22.9c-.5 0-1-.2-1.3-.6-.6-.7-.5-1.8.2-2.4 3.8-3.2 8.1-5.8 12.5-7.9.9-.4 1.9 0 2.3.8.4.9 0 1.9-.8 2.3-4.2 2-8.2 4.5-11.8 7.5-.4.2-.8.3-1.1.3zm25.8-12.2c-.8 0-1.5-.6-1.7-1.4-.2-.9.4-1.8 1.4-2 4.8-.9 9.8-1.3 14.8-1.1 1 0 1.7.9 1.6 1.8 0 1-.8 1.7-1.8 1.6-4.7-.2-9.4.1-14 1-.1.1-.2.1-.3.1zm28.4-2c-.7 0-1.3-.4-1.6-1.1-.3-.9.1-1.9 1-2.2 4.6-1.8 9.5-3 14.4-3.6 1-.1 1.8.5 1.9 1.5.1.9-.5 1.8-1.5 1.9-4.6.6-9.2 1.7-13.6 3.4-.2 0-.4.1-.6.1zm42.4-.3c-.2 0-.4 0-.6-.1-4.4-1.6-9-2.7-13.6-3.3-.9-.1-1.6-1-1.5-1.9s.9-1.7 1.9-1.5c4.9.6 9.8 1.7 14.4 3.5.9.3 1.4 1.3 1 2.2-.3.6-.9 1.1-1.6 1.1z"
                          fill="#cecece"/>
                </g>
                <g>
                    <path d="m394.3 1006.5-9.6-3.9c-.9-.4-1.3-1.4-1-2.3.4-.9 1.4-1.3 2.3-1l3.2 1.3-.9-3.3c-.2-.9.3-1.9 1.2-2.1s1.9.3 2.1 1.2z"
                          fill="#cecece"/>
                </g>
                <g>
                    <path d="m386.4 985.4c-.8 0-1.5-.5-1.7-1.3-1.2-4.6-1.8-9.3-1.8-14 0-1 .7-1.7 1.7-1.8.9-.2 1.7.7 1.8 1.7.1 4.4.7 8.9 1.7 13.2.2.9-.3 1.9-1.3 2.1-.1.1-.3.1-.4.1zm-.4-27.2c-.1 0-.3 0-.4 0-.9-.2-1.5-1.1-1.3-2.1 1-4.6 2.6-9.1 4.7-13.3.4-.9 1.5-1.2 2.3-.8.9.4 1.2 1.5.8 2.3-2 4-3.4 8.2-4.4 12.6-.2.7-.9 1.3-1.7 1.3zm11.9-24.5c-.4 0-.8-.1-1.1-.4-.7-.6-.8-1.7-.2-2.4 3-3.7 6.5-6.9 10.3-9.7.8-.6 1.9-.4 2.4.4.6.8.4 1.9-.4 2.4-3.5 2.6-6.8 5.7-9.6 9.1-.4.4-.9.6-1.4.6zm21.9-16.2c-.7 0-1.3-.4-1.6-1.1-.4-.9.1-1.9.9-2.3 4.3-1.8 8.9-3 13.6-3.8.9-.1 1.8.5 2 1.4.1.9-.5 1.8-1.4 2-4.4.7-8.8 1.9-12.8 3.5-.2.3-.5.3-.7.3zm25.5-9.2c-.6 0-1.2-.3-1.5-.9-.5-.8-.2-1.9.7-2.4 4.1-2.3 8.6-4 13.1-5.2.9-.2 1.9.3 2.1 1.2s-.3 1.9-1.2 2.1c-4.4 1.1-8.4 2.7-12.3 4.9-.4.3-.6.3-.9.3z"
                          fill="#cecece"/>
                </g>
                <g>
                    <path d="m471.6 901c-.9 0-1.6-.6-1.7-1.5s.5-1.8 1.5-1.9l4.5-.6-1.9-4.2c-.4-.9 0-1.9.9-2.3s1.9 0 2.3.9l3.8 8.4-9.2 1.2s-.1 0-.2 0z"
                          fill="#cecece"/>
                </g>
                <g>
                    <path d="m469.9 881.3c-.7 0-1.3-.4-1.6-1l-5.7-12.6c-.4-.9 0-1.9.9-2.3s1.9 0 2.3.9l5.7 12.6c.4.9 0 1.9-.9 2.3-.2 0-.4.1-.7.1zm-11.3-25.2c-.7 0-1.3-.4-1.6-1l-5.7-12.6c-.4-.9 0-1.9.9-2.3s1.9 0 2.3.9l5.7 12.6c.4.9 0 1.9-.9 2.3-.3 0-.5.1-.7.1zm-11.4-25.2c-.7 0-1.3-.4-1.6-1l-5.7-12.6c-.4-.9 0-1.9.9-2.3s1.9 0 2.3.9l5.7 12.6c.4.9 0 1.9-.9 2.3-.2.1-.5.1-.7.1zm-11.4-25.1c-.7 0-1.3-.4-1.6-1l-5.7-12.6c-.4-.9 0-1.9.9-2.3s1.9 0 2.3.9l5.7 12.6c.4.9 0 1.9-.9 2.3-.2 0-.5.1-.7.1zm-11.4-25.2c-.7 0-1.3-.4-1.6-1l-4.1-9-2.4-1.9c-.8-.6-.9-1.7-.3-2.4.6-.8 1.7-.9 2.4-.3l3.1 2.4 4.4 9.8c.4.9 0 1.9-.9 2.3-.1 0-.4.1-.6.1zm-17.8-20.1c-.4 0-.8-.1-1.1-.4-3.6-2.9-7.2-5.8-10.7-8.8-.7-.6-.8-1.7-.2-2.4s1.7-.8 2.4-.2c3.5 2.9 7.1 5.8 10.7 8.7.7.6.9 1.7.3 2.4-.4.4-.9.7-1.4.7zm-22.9-13.2h-13.8c-1 0-1.7-.8-1.7-1.7s.8-1.7 1.7-1.7h13.8c1 0 1.7.8 1.7 1.7s-.8 1.7-1.7 1.7zm-27.6 0h-13.8c-1 0-1.7-.8-1.7-1.7s.8-1.7 1.7-1.7h13.8c1 0 1.7.8 1.7 1.7s-.8 1.7-1.7 1.7zm-27.7 0h-13.8c-1 0-1.7-.8-1.7-1.7s.8-1.7 1.7-1.7h13.8c1 0 1.7.8 1.7 1.7s-.7 1.7-1.7 1.7zm-27.6 0h-13.8c-1 0-1.7-.8-1.7-1.7s.8-1.7 1.7-1.7h13.8c1 0 1.7.8 1.7 1.7s-.7 1.7-1.7 1.7zm-27.6 0h-13.8c-1 0-1.7-.8-1.7-1.7s.8-1.7 1.7-1.7h13.8c1 0 1.7.8 1.7 1.7s-.7 1.7-1.7 1.7zm-27.6 0h-13.8c-1 0-1.7-.8-1.7-1.7s.8-1.7 1.7-1.7h13.8c1 0 1.7.8 1.7 1.7s-.8 1.7-1.7 1.7zm-27.6 0h-13.8c-1 0-1.7-.8-1.7-1.7s.8-1.7 1.7-1.7h13.8c1 0 1.7.8 1.7 1.7s-.8 1.7-1.7 1.7zm-27.7 0h-13.8c-1 0-1.7-.8-1.7-1.7s.8-1.7 1.7-1.7h13.8c1 0 1.7.8 1.7 1.7s-.7 1.7-1.7 1.7zm-27.6 0h-13.8c-1 0-1.7-.8-1.7-1.7s.8-1.7 1.7-1.7h13.8c1 0 1.7.8 1.7 1.7s-.7 1.7-1.7 1.7zm-27.6 0h-13.8c-1 0-1.7-.8-1.7-1.7s.8-1.7 1.7-1.7h13.8c1 0 1.7.8 1.7 1.7s-.7 1.7-1.7 1.7zm-27.6 0h-1c-4.4 0-8.8-.3-13-.8-.9-.1-1.6-1-1.5-1.9s1-1.6 1.9-1.5c4.1.5 8.3.7 12.6.7h1c1 0 1.7.8 1.7 1.7s-.8 1.8-1.7 1.8zm-27.3-3.3c-.1 0-.3 0-.4-.1-4.6-1.2-9-2.8-13.3-4.6-.9-.4-1.3-1.4-.9-2.3s1.4-1.3 2.3-.9c4.1 1.8 8.4 3.3 12.8 4.4.9.2 1.5 1.2 1.2 2.1s-1 1.4-1.7 1.4zm-25.3-11c-.3 0-.6-.1-.9-.3-3.9-2.5-7.7-5.3-11.3-8.4-.7-.6-.8-1.7-.2-2.4s1.7-.8 2.4-.2c3.4 3 7.1 5.7 10.8 8.1.8.5 1 1.6.5 2.4-.1.5-.7.8-1.3.8zm-20.7-18c-.5 0-1-.2-1.3-.6-3-3.5-5.8-7.3-8.4-11.3-.5-.8-.3-1.9.5-2.4s1.9-.3 2.4.5c2.4 3.8 5.2 7.5 8.1 10.9.6.7.5 1.8-.2 2.4-.3.3-.7.5-1.1.5zm-14.9-23.2c-.7 0-1.3-.4-1.6-1-2-4.3-3.7-8.7-5.1-13.1-.3-.9.2-1.9 1.1-2.2s1.9.2 2.2 1.1c1.3 4.3 3 8.5 4.9 12.7.4.9 0 1.9-.8 2.3-.2.1-.4.2-.7.2zm-8.1-26.3c-.8 0-1.6-.6-1.7-1.5-.7-4.6-1.2-9.3-1.3-14 0-1 .7-1.7 1.7-1.8 1.1-.1 1.7.7 1.8 1.7.1 4.5.5 9.1 1.2 13.5.2.9-.5 1.8-1.4 2-.1.1-.2.1-.3.1zm-.7-27.6c-.1 0-.1 0-.2 0-.9-.1-1.6-1-1.5-1.9.5-4.7 1.4-9.3 2.5-13.8.2-.9 1.2-1.5 2.1-1.2.9.2 1.5 1.2 1.2 2.1-1.1 4.3-1.9 8.8-2.5 13.3.1.9-.7 1.5-1.6 1.5zm7-26.6c-.2 0-.5 0-.7-.1-.9-.4-1.3-1.4-.9-2.3 1.8-4.3 4-8.5 6.5-12.5.5-.8 1.6-1.1 2.4-.6s1.1 1.6.6 2.4c-2.4 3.8-4.5 7.9-6.2 12-.4.7-1 1.1-1.7 1.1zm14.5-23.4c-.4 0-.8-.1-1.1-.4-.7-.6-.8-1.7-.2-2.4 3-3.5 6.3-6.9 9.9-10 .7-.6 1.8-.6 2.4.2.6.7.5 1.8-.2 2.4-3.4 3-6.7 6.2-9.6 9.6-.2.4-.7.6-1.2.6zm20.8-18c-.6 0-1.1-.3-1.4-.8-.5-.8-.3-1.9.5-2.4 2.1-1.4 4.4-2.8 6.6-4l2.5-1.4.8-2c.4-.9 1.4-1.3 2.3-1 .9.4 1.3 1.4 1 2.3l-1.3 3.1-3.5 2c-2.2 1.2-4.4 2.6-6.4 3.9-.5.2-.8.3-1.1.3zm16.2-20.8c-.3 0-.5-.1-.8-.2-.8-.4-1.2-1.5-.7-2.3 2.1-4.1 4.5-8.2 7.1-12.1.5-.8 1.6-1 2.4-.5s1 1.6.5 2.4c-2.5 3.8-4.8 7.7-6.9 11.8-.3.6-.9.9-1.6.9zm15.2-23c-.4 0-.8-.1-1.1-.4-.7-.6-.9-1.7-.2-2.4 2.9-3.6 6.1-7.1 9.4-10.4.7-.7 1.8-.7 2.4 0 .7.7.7 1.8 0 2.4-3.2 3.2-6.3 6.6-9.1 10.1-.4.5-.9.7-1.4.7zm19.5-19.5c-.5 0-1-.2-1.3-.6-.6-.7-.5-1.8.3-2.4 3.6-2.9 7.4-5.7 11.3-8.3.8-.5 1.9-.3 2.4.5s.3 1.9-.5 2.4c-3.8 2.5-7.5 5.2-11 8-.4.3-.8.4-1.2.4z"
                          fill="#cecece"/>
                </g>
                <g>
                    <path d="m126.9 491.4c-.6 0-1.2-.3-1.5-.9-.4-.8-.1-1.9.7-2.3s1.6-.8 2.5-1.2l3.1-1.5 1.9-5.9c.3-.9 1.3-1.4 2.2-1.1s1.4 1.3 1.1 2.2l-2.3 7.3-4.4 2.2c-.8.4-1.6.8-2.4 1.2-.4-.1-.6 0-.9 0z"
                          fill="#cecece"/>
                </g>
                <g>
                    <path d="m139.6 469.6c-.2 0-.4 0-.6-.1-.9-.4-1.3-1.4-1-2.3 1.6-4 3.4-8 5.3-11.9.4-.9 1.4-1.2 2.3-.8s1.2 1.4.8 2.3c-1.8 3.8-3.6 7.8-5.2 11.7-.2.7-.9 1.1-1.6 1.1zm11.2-23.2c-.3 0-.6-.1-.8-.2-.8-.5-1.1-1.5-.7-2.4 2.1-3.8 4.4-7.5 6.7-11.1.5-.8 1.6-1 2.4-.5s1 1.6.5 2.4c-2.3 3.6-4.5 7.2-6.6 10.9-.3.6-.9.9-1.5.9zm14-21.6c-.4 0-.7-.1-1-.3-.8-.6-.9-1.7-.4-2.4 2.6-3.5 5.3-6.9 8.1-10.2.6-.7 1.7-.8 2.4-.2s.8 1.7.2 2.4c-2.7 3.2-5.4 6.6-7.9 10-.3.5-.9.7-1.4.7z"
                          fill="#cecece"/>
                </g>
                <g>
                    <path d="m181.5 405.2c-.4 0-.9-.2-1.2-.5-.7-.7-.7-1.8 0-2.4l4.3-4.4-.5-6.1c-.1-1 .6-1.8 1.6-1.9s1.8.6 1.9 1.6l.7 7.7-5.4 5.5c-.5.3-1 .5-1.4.5z"
                          fill="#cecece"/>
                </g>
                <g>
                    <path d="m184.7 379.7c-.9 0-1.7-.7-1.7-1.6l-.1-1.3c-.2-4.2-.3-8.4-.4-12.5 0-1 .8-1.7 1.7-1.7.9 0 1.7.8 1.7 1.7 0 4.1.2 8.2.4 12.3l.1 1.3c.1 1-.6 1.8-1.7 1.8zm-.3-27.3c-1 0-1.8-.8-1.7-1.8.1-4.5.4-9.2.8-13.7.1-1 .9-1.7 1.9-1.6s1.7.9 1.6 1.9c-.3 4.5-.6 9.1-.7 13.6-.2.8-.9 1.6-1.9 1.6zm2.1-27.3c-.1 0-.1 0-.2 0-.9-.1-1.6-1-1.5-1.9.5-4.5 1.2-9.1 1.9-13.6.2-.9 1-1.6 2-1.4.9.2 1.6 1 1.4 2-.7 4.5-1.4 9-1.9 13.5-.1.7-.8 1.4-1.7 1.4zm4.4-27c-.1 0-.2 0-.4 0-.9-.2-1.5-1.1-1.3-2 .9-4.5 2-9 3.1-13.4.2-.9 1.2-1.5 2.1-1.3s1.5 1.2 1.3 2.1c-1.1 4.4-2.1 8.9-3.1 13.3-.1.7-.9 1.3-1.7 1.3zm6.8-26.6c-.2 0-.3 0-.5-.1-.9-.3-1.4-1.2-1.2-2.2 1.3-4.4 2.7-8.8 4.2-13.1.3-.9 1.3-1.4 2.2-1.1s1.4 1.3 1.1 2.2c-1.5 4.3-2.9 8.6-4.2 13-.2.8-.9 1.3-1.6 1.3zm8.9-25.8c-.2 0-.4 0-.6-.1-.9-.4-1.3-1.4-1-2.2 1.7-4.3 3.5-8.5 5.3-12.7.4-.9 1.4-1.3 2.3-.9s1.3 1.4.9 2.3c-1.8 4.1-3.6 8.3-5.3 12.5-.2.7-.9 1.1-1.6 1.1zm11.2-25c-.3 0-.5-.1-.8-.2-.9-.4-1.2-1.5-.8-2.3 2-4.1 4.2-8.2 6.4-12.2.5-.8 1.5-1.1 2.4-.7.8.5 1.1 1.5.7 2.4-2.2 3.9-4.3 8-6.3 12-.3.6-1 1-1.6 1zm13.3-23.9c-.3 0-.6-.1-.9-.3-.8-.5-1.1-1.6-.6-2.4 2.4-3.9 4.9-7.8 7.4-11.6.5-.8 1.6-1 2.4-.5s1 1.6.5 2.4c-2.5 3.7-5 7.6-7.4 11.4-.3.7-.8 1-1.4 1zm15.3-22.7c-.4 0-.7-.1-1-.3-.8-.6-.9-1.7-.4-2.4 2.7-3.7 5.6-7.3 8.4-10.9.6-.7 1.7-.9 2.4-.3s.9 1.7.3 2.4c-2.9 3.5-5.7 7.1-8.3 10.8-.3.4-.9.7-1.4.7zm464.8-18.3c-.5 0-1-.2-1.3-.6-3-3.4-6.1-6.8-9.2-10-.7-.7-.6-1.8 0-2.4.7-.7 1.8-.6 2.4 0 3.2 3.3 6.3 6.7 9.3 10.1.6.7.6 1.8-.2 2.4-.2.4-.6.5-1 .5zm-447.5-3c-.4 0-.8-.1-1.1-.4-.7-.6-.8-1.7-.1-2.4 1.9-2.2 3.9-4.3 5.8-6.4 1.2-1.2 2.3-2.5 3.5-3.7.7-.7 1.8-.7 2.4 0 .7.7.7 1.8 0 2.4-1.2 1.2-2.3 2.4-3.5 3.7-2 2.1-3.9 4.2-5.8 6.3-.3.3-.8.5-1.2.5zm428.5-16.7c-.4 0-.9-.2-1.2-.5-3.3-3.1-6.7-6.2-10.1-9.1-.7-.6-.8-1.7-.2-2.4s1.7-.8 2.4-.2c3.5 3 6.9 6.1 10.2 9.2.7.7.7 1.8.1 2.4-.3.4-.8.6-1.2.6zm-409.5-2.9c-.5 0-.9-.2-1.3-.5-.7-.7-.6-1.8.1-2.4 3.3-3.2 6.8-6.3 10.2-9.2.7-.6 1.8-.5 2.4.2s.5 1.8-.2 2.4c-3.4 2.9-6.8 6-10.1 9.1-.2.2-.6.4-1.1.4zm388.8-15c-.4 0-.8-.1-1.1-.4-3.5-2.8-7.2-5.5-10.9-8.2-.8-.6-1-1.6-.4-2.4s1.6-1 2.4-.4c3.7 2.7 7.4 5.5 11 8.3.8.6.9 1.7.3 2.4-.3.5-.8.7-1.3.7zm-368-2.9c-.5 0-1-.2-1.4-.7-.6-.8-.5-1.8.3-2.4 3.6-2.8 7.3-5.6 11-8.3.8-.6 1.9-.4 2.4.4.6.8.4 1.9-.4 2.4-3.7 2.6-7.3 5.4-10.9 8.2-.3.3-.6.4-1 .4zm345.7-13c-.3 0-.7-.1-.9-.3-3.8-2.5-7.7-4.9-11.6-7.2-.8-.5-1.1-1.5-.6-2.4.5-.8 1.6-1.1 2.4-.6 3.9 2.3 7.9 4.8 11.7 7.3.8.5 1 1.6.5 2.4-.3.5-.9.8-1.5.8zm-323.4-2.9c-.6 0-1.1-.3-1.5-.8-.5-.8-.3-1.9.5-2.4 3.8-2.5 7.8-4.9 11.7-7.2.8-.5 1.9-.2 2.4.6s.2 1.9-.6 2.4c-3.9 2.3-7.8 4.7-11.6 7.1-.3.2-.6.3-.9.3zm299.9-11.1c-.3 0-.6-.1-.8-.2-4-2.1-8.1-4.2-12.2-6.1-.9-.4-1.2-1.4-.8-2.3s1.4-1.2 2.3-.8c4.1 2 8.3 4 12.3 6.2.8.4 1.2 1.5.7 2.3-.3.6-.9.9-1.5.9zm-276.3-2.6c-.6 0-1.2-.3-1.5-.9-.4-.8-.1-1.9.7-2.3 4.1-2.1 8.2-4.2 12.4-6.1.9-.4 1.9 0 2.3.8.4.9 0 1.9-.8 2.3-4.1 1.9-8.2 3.9-12.2 6-.3.1-.6.2-.9.2zm251.6-9.1c-.2 0-.5 0-.7-.1-4.2-1.8-8.4-3.4-12.6-5-.9-.3-1.4-1.3-1-2.2.3-.9 1.3-1.4 2.2-1 4.3 1.6 8.6 3.3 12.8 5.1.9.4 1.3 1.4.9 2.3-.3.5-1 .9-1.6.9zm-226.7-2.4c-.7 0-1.3-.4-1.6-1.1-.4-.9.1-1.9.9-2.3 4.2-1.7 8.6-3.4 12.9-4.9.9-.3 1.9.2 2.2 1.1s-.2 1.9-1.1 2.2c-4.3 1.5-8.5 3.1-12.7 4.8-.2.1-.4.2-.6.2zm201-7.1c-.2 0-.4 0-.5-.1-4.3-1.4-8.7-2.7-13.1-3.9-.9-.3-1.5-1.2-1.2-2.1s1.2-1.5 2.1-1.2c4.4 1.2 8.9 2.5 13.2 3.9.9.3 1.4 1.3 1.1 2.2-.2.7-.9 1.2-1.6 1.2zm-175.2-2c-.7 0-1.4-.5-1.7-1.2-.3-.9.2-1.9 1.2-2.2 4.4-1.3 8.8-2.5 13.3-3.6.9-.2 1.9.3 2.1 1.3.2.9-.3 1.9-1.3 2.1-4.4 1.1-8.8 2.3-13.1 3.6-.2-.1-.4 0-.5 0zm148.8-5.2c-.1 0-.3 0-.4 0-4.4-1-8.9-1.9-13.3-2.7-.9-.2-1.6-1.1-1.4-2s1.1-1.6 2-1.4c4.5.8 9 1.7 13.5 2.7.9.2 1.5 1.1 1.3 2.1-.2.7-.9 1.3-1.7 1.3zm-122.3-1.5c-.8 0-1.5-.6-1.7-1.4-.2-.9.4-1.8 1.4-2 4.5-.9 9-1.7 13.6-2.4.9-.2 1.8.5 2 1.4.1.9-.5 1.8-1.4 2-4.5.7-9 1.5-13.4 2.4-.3 0-.4 0-.5 0zm95.3-3.3c-.1 0-.1 0-.2 0-4.5-.6-9-1.1-13.5-1.4-1-.1-1.7-.9-1.6-1.9s.9-1.6 1.9-1.6c4.5.4 9.2.9 13.7 1.4.9.1 1.6 1 1.5 1.9-.2 1-.9 1.6-1.8 1.6zm-68.2-.8c-.9 0-1.6-.7-1.7-1.6s.6-1.8 1.5-1.9c4.5-.5 9.1-.8 13.7-1.1 1 0 1.8.7 1.8 1.6.1 1-.7 1.8-1.6 1.8-4.5.3-9.1.6-13.6 1.1 0 .1-.1.1-.1.1zm41-1.4c-.1 0-.1 0 0 0-4.5-.2-9-.2-13.5-.2l-.2-1.7.1-1.7c4.7-.1 9.1 0 13.6.2 1 0 1.7.8 1.7 1.8 0 .9-.8 1.6-1.7 1.6zm-13.7-1.9v-1.7z"
                          fill="#cecece"/>
                </g>
                <g>
                    <path d="m724.4 172.6-5.7-6.9c-.6-.7-.5-1.8.2-2.4s1.8-.5 2.4.2l3.1 3.8 3.3-3.6c.6-.7 1.7-.8 2.4-.1.7.6.8 1.7.1 2.4z"
                          fill="#cecece"/>
                </g>
                <g>
                    <path d="m1230.8 513.3c-.2 0-.4 0-.5-.1-.9-.3-1.4-1.3-1.1-2.2 1.4-4.3 2.8-8.7 4.1-13 .3-.9 1.2-1.4 2.2-1.2.9.3 1.4 1.2 1.2 2.2-1.3 4.4-2.7 8.8-4.1 13.1-.4.7-1.1 1.2-1.8 1.2zm7.7-26.3c-.1 0-.3 0-.4-.1-.9-.2-1.5-1.2-1.2-2.1 1.2-4.4 2.3-8.8 3.3-13.2.2-.9 1.1-1.5 2.1-1.3.9.2 1.5 1.2 1.3 2.1-1.1 4.5-2.2 8.9-3.4 13.3-.2.8-.9 1.3-1.7 1.3zm6.4-26.6c-.1 0-.2 0-.4 0-.9-.2-1.5-1.1-1.3-2 .9-4.4 1.8-8.9 2.6-13.4.2-.9 1.1-1.6 2-1.4s1.6 1.1 1.4 2c-.8 4.5-1.7 9-2.6 13.5-.2.7-.9 1.3-1.7 1.3zm4.9-27c-.1 0-.2 0-.3 0-.9-.1-1.6-1-1.4-2 .7-4.5 1.3-9 1.9-13.5.1-.9 1-1.6 1.9-1.5s1.6 1 1.5 1.9c-.6 4.6-1.2 9.1-1.9 13.6-.2.9-.9 1.5-1.7 1.5zm3.4-27.1c-.1 0-.1 0-.2 0-.9-.1-1.6-.9-1.5-1.9l.1-1.4c.4-4 .7-8.1 1-12.2.1-1 .9-1.7 1.8-1.6 1 .1 1.7.9 1.6 1.8-.2 4.1-.6 8.3-1 12.4l-.1 1.4c0 .8-.8 1.5-1.7 1.5zm1.7-27.4c-1 0-1.7-.8-1.7-1.8 0-1.7 0-3.5 0-5.2 0-2.8 0-5.6-.1-8.4 0-1 .7-1.8 1.7-1.8s1.8.7 1.8 1.7c.1 2.8.1 5.7.1 8.5v5.3c-.1 1-.9 1.7-1.8 1.7zm-.7-27.4c-.9 0-1.7-.7-1.7-1.6-.3-4.5-.7-9.1-1.2-13.6-.1-.9.6-1.8 1.5-1.9 1-.1 1.8.6 1.9 1.5.5 4.5.9 9.2 1.3 13.7.1 1-.7 1.8-1.6 1.8-.2.1-.2.1-.2.1zm-3.1-27.2c-.8 0-1.6-.6-1.7-1.5-.7-4.5-1.5-9-2.4-13.4-.2-.9.4-1.9 1.4-2 .9-.2 1.8.4 2 1.4.9 4.5 1.7 9 2.4 13.6.1.9-.5 1.8-1.4 2-.2-.1-.2-.1-.3-.1zm-5.4-26.8c-.8 0-1.5-.5-1.7-1.3-1.1-4.4-2.3-8.8-3.5-13.2-.3-.9.3-1.9 1.2-2.1.9-.3 1.9.3 2.1 1.2 1.3 4.4 2.5 8.8 3.6 13.3.2.9-.3 1.9-1.3 2.1-.2 0-.3 0-.4 0zm-7.7-26.3c-.7 0-1.4-.5-1.6-1.2-1.4-4.3-3-8.6-4.7-12.8-.3-.9.1-1.9 1-2.2s1.9.1 2.2 1c1.7 4.3 3.2 8.6 4.7 12.9.3.9-.2 1.9-1.1 2.2-.2.1-.4.1-.5.1zm-10-25.5c-.7 0-1.3-.4-1.6-1-1.8-4.1-3.8-8.3-5.7-12.3-.4-.9-.1-1.9.8-2.3s1.9-.1 2.3.8c2 4.1 4 8.3 5.8 12.5.4.9 0 1.9-.9 2.3-.2-.1-.4 0-.7 0zm-12-24.6c-.6 0-1.2-.3-1.5-.9-2.2-4-4.5-7.9-6.8-11.8-.5-.8-.2-1.9.6-2.4s1.9-.2 2.4.6c2.4 3.9 4.7 7.9 6.9 11.9.5.8.2 1.9-.7 2.3-.4.2-.7.3-.9.3zm-14.2-23.4c-.6 0-1.1-.3-1.4-.8-2.5-3.7-5.1-7.5-7.8-11.2-.6-.8-.4-1.9.4-2.4.8-.6 1.9-.4 2.4.4 2.7 3.7 5.4 7.5 7.9 11.3.5.8.3 1.9-.5 2.4-.4.2-.7.3-1 .3zm-16.2-22.1c-.5 0-1-.2-1.3-.6-1.8-2.2-3.6-4.4-5.4-6.6-1.1-1.3-2.2-2.6-3.4-3.9-.6-.7-.6-1.8.2-2.4.7-.6 1.8-.6 2.4.2 1.1 1.3 2.3 2.6 3.4 3.9 1.9 2.2 3.7 4.4 5.5 6.6.6.7.5 1.8-.3 2.4-.4.3-.8.4-1.1.4zm-447.3-19.1c-.4 0-.9-.2-1.2-.5-.7-.7-.7-1.8 0-2.4 3.2-3.3 6.4-6.6 9.8-9.7.7-.7 1.8-.6 2.4.1.7.7.6 1.8-.1 2.4-3.3 3.1-6.5 6.4-9.7 9.6-.3.3-.7.5-1.2.5zm429.2-1.5c-.5 0-.9-.2-1.2-.5-3.1-3.3-6.4-6.5-9.7-9.6-.7-.7-.7-1.8-.1-2.4.7-.7 1.8-.7 2.4-.1 3.3 3.1 6.6 6.4 9.8 9.7.7.7.6 1.8 0 2.4-.4.4-.8.5-1.2.5zm-409.3-17.4c-.5 0-1-.2-1.3-.6-.6-.7-.5-1.8.2-2.4 3.5-3 7-6 10.6-8.8.8-.6 1.8-.5 2.4.3s.5 1.8-.3 2.4c-3.5 2.8-7.1 5.7-10.5 8.7-.3.3-.7.4-1.1.4zm389.4-1.4c-.4 0-.8-.1-1.1-.4-3.4-3-7-5.9-10.5-8.7-.8-.6-.9-1.7-.3-2.4s1.7-.9 2.4-.3c3.6 2.8 7.1 5.8 10.6 8.8.7.6.8 1.7.2 2.4-.3.4-.8.6-1.3.6zm-367.9-15.5c-.5 0-1.1-.3-1.4-.7-.6-.8-.4-1.9.4-2.4 3.7-2.7 7.5-5.3 11.4-7.8.8-.5 1.9-.3 2.4.5s.3 1.9-.5 2.4c-3.8 2.5-7.6 5-11.2 7.7-.4.2-.7.3-1.1.3zm346.5-1.5c-.3 0-.7-.1-1-.3-3.7-2.6-7.4-5.2-11.2-7.7-.8-.5-1-1.6-.5-2.4s1.6-1 2.4-.5c3.8 2.5 7.7 5.1 11.4 7.8.8.6 1 1.6.4 2.4-.5.5-1 .7-1.5.7zm-323.5-13.4c-.6 0-1.2-.3-1.5-.9-.5-.8-.2-1.9.6-2.4 3.9-2.3 8-4.6 12-6.7.8-.4 1.9-.1 2.3.7s.1 1.9-.7 2.3c-4 2.1-8 4.3-11.9 6.6-.2.3-.5.4-.8.4zm300.5-1.5c-.3 0-.6-.1-.9-.2-3.9-2.3-7.9-4.5-11.9-6.6-.8-.4-1.2-1.5-.7-2.3.4-.8 1.5-1.2 2.3-.7 4 2.1 8.1 4.4 12 6.7.8.5 1.1 1.5.6 2.4-.2.4-.8.7-1.4.7zm-276.3-11.3c-.7 0-1.3-.4-1.6-1-.4-.9 0-1.9.8-2.3 4.1-1.9 8.4-3.8 12.6-5.6.9-.4 1.9.1 2.3.9.4.9-.1 1.9-.9 2.3-4.2 1.7-8.4 3.6-12.4 5.5-.3.1-.6.2-.8.2zm252-1.4c-.2 0-.5-.1-.7-.2-4.1-1.9-8.3-3.7-12.5-5.4-.9-.4-1.3-1.4-.9-2.3s1.4-1.3 2.3-.9c4.2 1.7 8.5 3.6 12.6 5.5.9.4 1.2 1.4.8 2.3-.3.6-.9 1-1.6 1zm-226.7-9.1c-.7 0-1.4-.4-1.6-1.1-.3-.9.1-1.9 1-2.2 4.3-1.6 8.7-3 13-4.4.9-.3 1.9.2 2.2 1.1s-.2 1.9-1.1 2.2c-4.3 1.3-8.7 2.8-12.9 4.4-.2-.1-.4 0-.6 0zm201.4-1.3c-.2 0-.4 0-.6-.1-4.2-1.5-8.6-2.9-12.9-4.2-.9-.3-1.4-1.2-1.2-2.2.3-.9 1.2-1.4 2.2-1.2 4.4 1.3 8.8 2.8 13.1 4.3.9.3 1.4 1.3 1.1 2.2-.3.8-1 1.2-1.7 1.2zm-175.3-6.9c-.8 0-1.5-.5-1.7-1.3-.2-.9.3-1.9 1.2-2.1 4.4-1.2 8.9-2.3 13.4-3.2.9-.2 1.9.4 2.1 1.3s-.4 1.9-1.3 2.1c-4.4.9-8.9 2-13.2 3.2-.2 0-.3 0-.5 0zm149.1-1c-.1 0-.3 0-.4-.1-4.4-1.1-8.8-2.1-13.3-3-.9-.2-1.5-1.1-1.4-2 .2-.9 1.1-1.6 2-1.4 4.5.9 9 1.9 13.4 3 .9.2 1.5 1.2 1.3 2.1-.1.9-.8 1.4-1.6 1.4zm-122.3-4.8c-.8 0-1.6-.6-1.7-1.4-.2-.9.5-1.8 1.4-2 4.5-.8 9.1-1.4 13.6-2 1-.1 1.8.6 1.9 1.5s-.6 1.8-1.5 1.9c-4.5.5-9 1.2-13.5 2 0 0-.1 0-.2 0zm95.4-.7c-.1 0-.2 0-.3 0-4.5-.7-9-1.3-13.5-1.8-.9-.1-1.6-1-1.5-1.9s.9-1.7 1.9-1.5c4.5.5 9.1 1.1 13.7 1.8.9.1 1.6 1 1.4 2-.1.8-.8 1.4-1.7 1.4zm-68.2-2.6c-.9 0-1.7-.7-1.7-1.6-.1-1 .6-1.8 1.6-1.9 4.6-.3 9.2-.6 13.8-.7.8 0 1.8.7 1.8 1.7s-.7 1.8-1.7 1.8c-4.5.1-9.1.4-13.6.7-.2 0-.2 0-.2 0zm40.9-.3c-4.5-.3-9.1-.5-13.6-.5-1 0-1.7-.8-1.7-1.8s.7-1.7 1.8-1.7c4.6.1 9.2.3 13.8.5z"
                          fill="#cecece"/>
                </g>
                <g>
                    <path d="m1229.7 536.8c-.3 0-.7-.1-1-.3l-6.8-4.6 2.8-7.8c.3-.9 1.3-1.4 2.2-1 .9.3 1.4 1.3 1 2.2l-1.9 5.3 4.6 3.1c.8.5 1 1.6.5 2.4-.3.4-.9.7-1.4.7z"
                          fill="#cecece"/>
                </g>
                <g>
                    <path d="m1317 864.3h-13.6c-1 0-1.7-.8-1.7-1.7s.8-1.7 1.7-1.7h13.6c1 0 1.7.8 1.7 1.7s-.8 1.7-1.7 1.7zm-27.2 0h-13.6c-1 0-1.7-.8-1.7-1.7s.8-1.7 1.7-1.7h13.6c1 0 1.7.8 1.7 1.7s-.8 1.7-1.7 1.7zm-27.2 0h-13.6c-1 0-1.7-.8-1.7-1.7s.8-1.7 1.7-1.7h13.6c1 0 1.7.8 1.7 1.7s-.8 1.7-1.7 1.7zm-27.2 0h-13.6c-1 0-1.7-.8-1.7-1.7s.8-1.7 1.7-1.7h13.6c1 0 1.7.8 1.7 1.7s-.8 1.7-1.7 1.7zm-27.2 0h-13.6c-1 0-1.7-.8-1.7-1.7s.8-1.7 1.7-1.7h13.6c1 0 1.7.8 1.7 1.7s-.8 1.7-1.7 1.7zm-27.2 0h-13.6c-1 0-1.7-.8-1.7-1.7s.8-1.7 1.7-1.7h13.6c1 0 1.7.8 1.7 1.7s-.8 1.7-1.7 1.7zm-27.2 0h-13.6c-1 0-1.7-.8-1.7-1.7s.8-1.7 1.7-1.7h13.6c1 0 1.7.8 1.7 1.7s-.8 1.7-1.7 1.7zm-27.2 0h-13.6c-1 0-1.7-.8-1.7-1.7s.8-1.7 1.7-1.7h13.6c1 0 1.7.8 1.7 1.7s-.8 1.7-1.7 1.7zm-27.2 0h-13.6c-1 0-1.7-.8-1.7-1.7s.8-1.7 1.7-1.7h13.6c1 0 1.7.8 1.7 1.7s-.7 1.7-1.7 1.7zm-27.2 0h-13.6c-1 0-1.7-.8-1.7-1.7s.8-1.7 1.7-1.7h13.6c1 0 1.7.8 1.7 1.7s-.7 1.7-1.7 1.7zm-27.2 0h-13.6c-1 0-1.7-.8-1.7-1.7s.8-1.7 1.7-1.7h13.6c1 0 1.7.8 1.7 1.7s-.7 1.7-1.7 1.7zm285.5-.9c-.9 0-1.6-.6-1.7-1.5s.5-1.8 1.5-1.9c4.5-.6 8.8-1.5 13-2.7.9-.3 1.9.3 2.1 1.2.3.9-.3 1.9-1.2 2.1-4.4 1.3-8.9 2.2-13.5 2.8 0 0-.1 0-.2 0zm26-7.5c-.7 0-1.3-.4-1.6-1-.4-.9 0-1.9.8-2.3 4-1.9 7.9-4.1 11.5-6.6.8-.5 1.9-.3 2.4.4.5.8.3 1.9-.4 2.4-3.8 2.6-7.8 4.9-12 6.9-.2.1-.4.2-.7.2zm22.3-15.4c-.5 0-.9-.2-1.3-.5-.7-.7-.6-1.8.1-2.4 3.2-3 6.2-6.4 8.9-9.9.6-.8 1.7-.9 2.4-.3.8.6.9 1.7.3 2.4-2.8 3.7-6 7.1-9.3 10.3-.2.3-.6.4-1.1.4zm16.6-21.4c-.3 0-.6-.1-.8-.2-.8-.5-1.1-1.5-.7-2.4 2.2-3.9 4.1-7.9 5.7-12.1.3-.9 1.3-1.3 2.2-1s1.3 1.3 1 2.2c-1.7 4.3-3.7 8.5-5.9 12.5-.3.7-.9 1-1.5 1zm9.8-25.3c-.1 0-.3 0-.4 0-.9-.2-1.5-1.1-1.3-2.1 1-4.3 1.6-8.7 1.9-13.2.1-1 .9-1.6 1.8-1.6 1 .1 1.7.9 1.6 1.8-.3 4.6-1 9.2-2 13.7-.1.9-.8 1.4-1.6 1.4zm1.9-27c-.9 0-1.7-.7-1.7-1.6-.3-4.5-1-8.9-2-13.2-.2-.9.4-1.9 1.3-2.1s1.9.4 2.1 1.3c1 4.5 1.8 9.1 2.1 13.7.1 1-.6 1.8-1.6 1.9-.1 0-.2 0-.2 0zm-6.2-26.4c-.7 0-1.3-.4-1.6-1.1-1.7-4.1-3.7-8.1-6.1-11.8-.5-.8-.3-1.9.6-2.4.8-.5 1.9-.3 2.4.6 2.4 3.9 4.6 8.1 6.3 12.3.4.9-.1 1.9-.9 2.3-.3.1-.5.1-.7.1zm-14.3-22.9c-.5 0-1-.2-1.3-.6-2.9-3.3-6.1-6.4-9.5-9.3-.7-.6-.8-1.7-.2-2.4s1.7-.8 2.4-.2c3.6 3 6.9 6.2 9.9 9.7.6.7.6 1.8-.2 2.4-.3.2-.7.4-1.1.4zm-20.8-17.4c-.3 0-.6-.1-.9-.3-.6-.4-1.2-.7-1.8-1.1l-3.3-1.9-1.5-3.5c-.6-1.5-1.3-3-2-4.5-.4-.9 0-1.9.8-2.3.9-.4 1.9 0 2.3.8.7 1.5 1.4 3.1 2.1 4.6l1 2.4 2.3 1.3c.6.4 1.3.8 1.9 1.1.8.5 1.1 1.6.6 2.4-.3.7-.9 1-1.5 1zm-14.4-22.2c-.6 0-1.1-.3-1.5-.8-2.4-3.8-4.9-7.5-7.7-11-.6-.8-.5-1.8.3-2.4.7-.6 1.8-.5 2.4.3 2.8 3.6 5.5 7.4 7.9 11.3.5.8.3 1.9-.6 2.4-.2.1-.5.2-.8.2zm-16.8-21.3c-.4 0-.9-.2-1.2-.5-3.1-3.2-6.5-6.2-9.9-9-.7-.6-.9-1.7-.3-2.4s1.7-.9 2.4-.3c3.6 2.9 7 6 10.2 9.3.7.7.7 1.8 0 2.4-.3.3-.8.5-1.2.5zm-21.1-17.2c-.3 0-.6-.1-.9-.3-3-1.9-6.2-3.8-9.4-5.4l-2.3-1.2c-.8-.4-1.2-1.5-.7-2.3.4-.8 1.5-1.2 2.3-.7l2.3 1.2c3.3 1.7 6.5 3.6 9.6 5.6.8.5 1 1.6.5 2.4-.3.5-.8.7-1.4.7zm-17-18.9c-.7 0-1.3-.4-1.6-1.1-1.6-4.2-3.4-8.3-5.3-12.4-.4-.9 0-1.9.8-2.3.9-.4 1.9 0 2.3.8 2 4.1 3.8 8.3 5.4 12.6.3.9-.1 1.9-1 2.2-.2.2-.4.2-.6.2zm-11.8-24.5c-.6 0-1.2-.3-1.5-.9-2.2-3.9-4.6-7.7-7.1-11.4-.5-.8-.3-1.9.5-2.4s1.9-.3 2.4.5c2.6 3.8 5 7.7 7.3 11.6.5.8.2 1.9-.6 2.4-.4.1-.7.2-1 .2zm-15.2-22.4c-.5 0-1-.2-1.4-.7-2.8-3.5-5.8-6.9-8.8-10.2-.7-.7-.6-1.8.1-2.4.7-.7 1.8-.6 2.4.1 3.1 3.3 6.1 6.8 9 10.4.6.7.5 1.8-.3 2.4-.3.2-.7.4-1 .4zm-18.5-20c-.4 0-.8-.2-1.2-.5-3.3-3-6.7-6-10.2-8.8-.7-.6-.9-1.7-.3-2.4s1.7-.9 2.4-.3c3.6 2.8 7.1 5.8 10.4 8.9.7.6.7 1.7.1 2.4-.3.6-.8.7-1.2.7z"
                          fill="#cecece"/>
                </g>
                <g>
                    <path d="m1009.5 871.1c-.1 0-.2 0-.3 0-.9-.2-1.6-1.1-1.4-2l1.4-8.3h8.4c1 0 1.7.8 1.7 1.7s-.8 1.7-1.7 1.7h-5.5l-.9 5.4c-.1.9-.8 1.5-1.7 1.5z"
                          fill="#cecece"/>
                </g>
                <g>
                    <path d="m1013.8 886c-.3 0-.5-.1-.8-.2-2-1-4.1-1.9-6.2-2.6l-1.4-.5 1.4-8.3c.2-.9 1-1.6 2-1.4.9.2 1.6 1.1 1.4 2l-.9 5.4c1.8.7 3.5 1.4 5.2 2.3.9.4 1.2 1.5.8 2.3-.3.7-.9 1-1.5 1z"
                          fill="#cecece"/>
                </g>
                <g>
                    <path d="m1010.5 1027.4c-.9 0-1.6-.7-1.7-1.6-.1-1 .6-1.8 1.6-1.9 4.5-.4 8.8-1.1 13-2.1.9-.2 1.9.4 2.1 1.3s-.4 1.9-1.3 2.1c-4.3 1-8.8 1.7-13.5 2.1-.1.1-.1.1-.2.1zm26-6.2c-.7 0-1.3-.4-1.6-1.1-.4-.9.1-1.9.9-2.3 4.1-1.7 8-3.7 11.6-6 .8-.5 1.9-.3 2.4.5s.3 1.9-.5 2.4c-3.8 2.4-7.9 4.5-12.2 6.3-.1.2-.4.2-.6.2zm22.5-14.3c-.5 0-.9-.2-1.3-.5-.7-.7-.6-1.8.1-2.4 3.2-3 6.1-6.3 8.6-9.8.6-.8 1.6-1 2.4-.4s1 1.6.4 2.4c-2.7 3.7-5.7 7.2-9 10.3-.4.3-.8.4-1.2.4zm15.4-21.7c-.2 0-.5 0-.7-.2-.9-.4-1.3-1.4-.9-2.3 1.8-4 3.2-8.1 4.2-12.4.2-.9 1.2-1.5 2.1-1.3s1.5 1.1 1.3 2.1c-1 4.5-2.5 8.8-4.4 13-.3.7-.9 1.1-1.6 1.1zm6.1-25.9c-1 0-1.8-.8-1.7-1.8 0-.6 0-1.3 0-1.9 0-3.7-.3-7.5-1-11.1-.2-.9.5-1.8 1.4-2s1.8.5 2 1.4c.7 3.8 1 7.8 1 11.7v2c0 .9-.8 1.7-1.7 1.7zm-4.8-26.2c-.7 0-1.3-.4-1.6-1.1-1.7-4-3.8-7.8-6.4-11.3-.6-.8-.4-1.9.4-2.4.8-.6 1.9-.4 2.4.4 2.7 3.7 5 7.7 6.8 12 .4.9 0 1.9-.9 2.3-.2 0-.4.1-.7.1zm-15.7-21.4c-.4 0-.8-.1-1.1-.4-3.3-2.7-7-5.1-10.9-7-.9-.4-1.2-1.5-.8-2.3.4-.9 1.5-1.2 2.3-.8 4.2 2.1 8.1 4.6 11.6 7.4.7.6.8 1.7.2 2.4-.3.5-.8.7-1.3.7zm-23.8-11.8c-.1 0-.3 0-.4-.1-.8-.2-1.6-.4-2.5-.6l-3.2-.7-2.3-2.3c-1.2-1.2-2.5-2.3-3.8-3.4-.7-.6-.8-1.7-.2-2.4s1.7-.9 2.4-.2c1.4 1.1 2.7 2.3 4 3.6l1.6 1.6 2.2.5c.9.2 1.7.4 2.6.6s1.5 1.2 1.2 2.1c-.2.8-.9 1.3-1.6 1.3z"
                          fill="#cecece"/>
                </g>
                <g>
                    <path d="m990.1 1034.7c-1 0-1.7-.8-1.7-1.7v-8.7h8.7c1 0 1.7.8 1.7 1.7 0 1-.8 1.7-1.7 1.7h-5.2v5.2c0 1-.8 1.8-1.8 1.8z"
                          fill="#cecece"/>
                </g>
                <g>
                    <path d="m972.6 1083.1c-.4 0-.8-.2-1.2-.5-.7-.6-.8-1.7-.1-2.4 2.9-3.2 5.5-6.6 7.7-10.3.5-.8 1.6-1.1 2.4-.6s1.1 1.6.6 2.4c-2.3 3.8-5.1 7.5-8.1 10.8-.4.4-.8.6-1.3.6zm13.6-22.4c-.2 0-.4 0-.6-.1-.9-.3-1.4-1.3-1-2.2 1.4-4 2.5-8.2 3.1-12.4.1-.9 1-1.6 2-1.5.9.1 1.6 1 1.5 2-.7 4.5-1.8 8.9-3.3 13.1-.3.6-1 1.1-1.7 1.1z"
                          fill="#cecece"/>
                </g>
                <g>
                    <path d="m964.5 1099.6c-.2 0-.4 0-.6-.1l-8.9-3.6 7-6.6c.7-.7 1.8-.6 2.4.1.7.7.6 1.8-.1 2.4l-3.1 2.9 3.9 1.6c.9.4 1.3 1.4 1 2.3-.2.6-.9 1-1.6 1z"
                          fill="#cecece"/>
                </g>
                <g>
                    <path d="m956.8 1275.7c-.1 0-.1 0 0 0-4.8-.3-9.4-1.1-13.8-2.5-.9-.3-1.4-1.3-1.1-2.2s1.2-1.4 2.2-1.1c4.2 1.3 8.5 2.1 12.9 2.3 1 .1 1.7.9 1.6 1.8-.2.9-.9 1.7-1.8 1.7zm13.5-.7c-.9 0-1.6-.7-1.7-1.5-.1-.9.6-1.8 1.5-1.9 4.5-.5 9-1.2 13.3-2 .9-.2 1.8.4 2 1.4.2.9-.4 1.8-1.4 2-4.4.8-8.9 1.5-13.6 2 0 0 0 0-.1 0zm26.6-5.2c-.8 0-1.4-.5-1.7-1.3-.3-.9.3-1.9 1.2-2.1 4.4-1.2 8.7-2.7 12.7-4.3.9-.3 1.9.1 2.2 1s-.1 1.9-1 2.2c-4.2 1.6-8.5 3.1-13 4.4 0 .1-.2.1-.4.1zm-65.8-2.2c-.3 0-.6-.1-.8-.2 0 0-.1-.1-.1-.1l-1.1-.7-11.3-3c-.9-.2-1.5-1.2-1.2-2.1.2-.9 1.2-1.5 2.1-1.2l12 3.2 1.3.8c.8.5 1.1 1.6.6 2.4-.4.6-1 .9-1.5.9zm91-7.8c-.6 0-1.2-.3-1.5-.9-.4-.8-.1-1.9.7-2.3 4-2.1 7.8-4.5 11.4-7 .8-.6 1.9-.4 2.4.4.6.8.4 1.9-.4 2.4-3.7 2.6-7.6 5.1-11.7 7.3-.3.1-.6.1-.9.1zm22-15.8c-.5 0-.9-.2-1.2-.5-.7-.7-.6-1.8 0-2.4.9-.8 1.7-1.7 2.6-2.6 2.2-2.3 4.3-4.8 6.3-7.3.6-.8 1.7-.9 2.4-.3.8.6.9 1.7.3 2.4-2 2.6-4.2 5.2-6.5 7.6-.9.9-1.8 1.8-2.7 2.7-.3.3-.7.4-1.2.4zm16.3-21.5c-.3 0-.5-.1-.8-.2-.8-.4-1.2-1.5-.7-2.3 2.1-3.9 3.8-8 5.2-12.2.3-.9 1.3-1.4 2.2-1.1s1.4 1.3 1.1 2.2c-1.4 4.4-3.3 8.7-5.4 12.7-.3.5-.9.9-1.6.9zm8.5-25.7c-.1 0-.2 0-.3 0-.9-.1-1.6-1-1.5-2 .6-3.8.9-7.8.9-11.7v-1.6c0-1 .7-1.7 1.7-1.8 1 0 1.7.7 1.8 1.7v1.6c0 4.1-.3 8.2-.9 12.2-.1 1-.9 1.6-1.7 1.6zm-.5-27c-.8 0-1.5-.6-1.7-1.4-.8-4.4-2-8.7-3.5-12.8-.3-.9.1-1.9 1-2.2s1.9.1 2.2 1c1.6 4.2 2.9 8.7 3.7 13.4.2.9-.4 1.8-1.4 2-.1 0-.2 0-.3 0zm-9.7-25.2c-.6 0-1.1-.3-1.5-.8-2.4-3.7-5.1-7.2-8.2-10.3-.7-.7-.7-1.8 0-2.4.7-.7 1.8-.7 2.4 0 3.2 3.3 6.1 7 8.6 10.9.5.8.3 1.9-.5 2.4-.1.1-.5.2-.8.2zm-18.8-19.3c-.3 0-.7-.1-1-.3-3.6-2.4-7.6-4.5-11.6-6.2-.9-.4-1.3-1.4-.9-2.3s1.4-1.3 2.3-.9c4.3 1.8 8.4 4 12.2 6.6.8.5 1 1.6.5 2.4-.4.4-1 .7-1.5.7zm-24.9-10.4c-.1 0-.2 0-.3 0-4.3-.9-8.8-1.3-13.2-1.4-1 0-1.7-.8-1.7-1.7 0-1 .8-1.8 1.7-1.7 4.6 0 9.3.5 13.8 1.4.9.2 1.5 1.1 1.4 2-.2.9-.9 1.4-1.7 1.4zm-27.4-3.3c-3.6-2.7-7.3-5-11.3-6.9-.9-.4-1.2-1.5-.8-2.3.4-.9 1.4-1.2 2.3-.8 4.2 2 8.1 4.4 11.6 7.1l-.8 1.6z"
                          fill="#cecece"/>
                </g>
                <g>
                    <path d="m896 1265.1c-.2 0-.3 0-.5-.1-.9-.3-1.4-1.3-1.1-2.2l2.6-8.2 8.3 2.2c.9.2 1.5 1.2 1.2 2.1-.2.9-1.2 1.5-2.1 1.2l-5.1-1.3-1.6 5c-.2.8-.9 1.3-1.7 1.3z"
                          fill="#cecece"/>
                </g>
                <g>
                    <path d="m798.9 1330.1h-14.1c-1 0-1.7-.8-1.7-1.7s.8-1.7 1.7-1.7h14.1c1 0 1.7.8 1.7 1.7s-.8 1.7-1.7 1.7zm-28.2 0h-14.1c-1 0-1.7-.8-1.7-1.7s.8-1.7 1.7-1.7h14.1c1 0 1.7.8 1.7 1.7s-.7 1.7-1.7 1.7zm-28.1 0h-14.1c-1 0-1.7-.8-1.7-1.7s.8-1.7 1.7-1.7h14.1c1 0 1.7.8 1.7 1.7s-.8 1.7-1.7 1.7zm-28.2 0h-14.1c-1 0-1.7-.8-1.7-1.7s.8-1.7 1.7-1.7h14.1c1 0 1.7.8 1.7 1.7s-.7 1.7-1.7 1.7zm98.5-.1c-.9 0-1.7-.7-1.7-1.7s.7-1.8 1.7-1.8c4.6-.2 9.2-.7 13.7-1.6.9-.2 1.8.4 2 1.4.2.9-.4 1.8-1.4 2-4.6 1-9.4 1.6-14.3 1.7.1 0 .1 0 0 0zm27.5-5.4c-.7 0-1.4-.4-1.6-1.1-.3-.9.1-1.9 1-2.2 4.3-1.6 8.5-3.5 12.5-5.8.8-.5 1.9-.2 2.4.7.5.8.2 1.9-.7 2.4-4.2 2.3-8.5 4.4-13 6-.2-.1-.4 0-.6 0zm24.5-13.7c-.5 0-1-.2-1.4-.7-.6-.8-.5-1.8.3-2.4 3.6-2.8 7-6 10.2-9.3.7-.7 1.7-.7 2.4-.1.7.7.7 1.7.1 2.4-3.3 3.5-6.8 6.7-10.6 9.7-.3.3-.6.4-1 .4zm19.2-20.5c-.3 0-.7-.1-1-.3-.8-.5-1-1.6-.5-2.4 2.6-3.8 4.9-7.8 6.8-12 .4-.9 1.4-1.2 2.3-.8s1.2 1.4.8 2.3c-2 4.3-4.4 8.5-7.1 12.4-.2.6-.8.8-1.3.8z"
                          fill="#cecece"/>
                </g>
                <g>
                    <path d="m675.3 1335.7c-.4 0-.7-.1-1-.3-.8-.6-.9-1.7-.3-2.4.4-.5.7-1 1.1-1.5l3.5-4.9h7.8c1 0 1.7.8 1.7 1.7s-.8 1.7-1.7 1.7h-6l-2.4 3.4c-.4.5-.7 1-1.1 1.5-.6.6-1.1.8-1.6.8z"
                          fill="#cecece"/>
                </g>
                <g>
                    <path d="m611.1 1368.1h-9c-1 0-1.7-.8-1.7-1.7s.8-1.7 1.7-1.7h9c1.6 0 3.2-.1 4.8-.2.9 0 1.8.7 1.8 1.6.1 1-.7 1.8-1.6 1.8-1.7.1-3.3.2-5 .2zm-22.9 0h-13.9c-1 0-1.7-.8-1.7-1.7s.8-1.7 1.7-1.7h13.9c1 0 1.7.8 1.7 1.7s-.8 1.7-1.7 1.7zm-27.8 0h-13.9c-1 0-1.7-.8-1.7-1.7s.8-1.7 1.7-1.7h13.9c1 0 1.7.8 1.7 1.7s-.8 1.7-1.7 1.7zm-27.9 0h-13.9c-1 0-1.7-.8-1.7-1.7s.8-1.7 1.7-1.7h13.9c1 0 1.7.8 1.7 1.7s-.7 1.7-1.7 1.7zm-27.8 0h-13.9c-1 0-1.7-.8-1.7-1.7s.8-1.7 1.7-1.7h13.9c1 0 1.7.8 1.7 1.7s-.8 1.7-1.7 1.7zm-27.9 0h-13.9c-1 0-1.7-.8-1.7-1.7s.8-1.7 1.7-1.7h13.9c1 0 1.7.8 1.7 1.7s-.7 1.7-1.7 1.7zm-27.8 0h-13.9c-1 0-1.7-.8-1.7-1.7s.8-1.7 1.7-1.7h13.9c1 0 1.7.8 1.7 1.7s-.7 1.7-1.7 1.7zm-27.8 0h-13.9c-1 0-1.7-.8-1.7-1.7s.8-1.7 1.7-1.7h13.9c1 0 1.7.8 1.7 1.7s-.8 1.7-1.7 1.7zm-27.9 0h-13.9c-1 0-1.7-.8-1.7-1.7s.8-1.7 1.7-1.7h13.9c1 0 1.7.8 1.7 1.7s-.7 1.7-1.7 1.7zm-27.8 0h-.8c-4.4 0-8.9-.2-13.3-.7-.9-.1-1.6-.9-1.5-1.9.1-.9.9-1.6 1.9-1.5 4.3.4 8.6.7 12.9.7h.8c1 0 1.7.8 1.7 1.7s-.7 1.7-1.7 1.7zm264.3-2.3c-.8 0-1.5-.5-1.7-1.3-.2-.9.3-1.9 1.3-2.1 4.4-1.1 8.7-2.5 12.9-4.3.9-.4 1.9 0 2.3.9s0 1.9-.9 2.3c-4.3 1.9-8.9 3.4-13.5 4.5-.2 0-.3 0-.4 0zm-291.9-.6c-.1 0-.2 0-.4 0-4.6-1-9.1-2.2-13.6-3.7-.9-.3-1.4-1.3-1.1-2.2s1.3-1.4 2.2-1.1c4.3 1.4 8.8 2.7 13.2 3.6.9.2 1.5 1.1 1.3 2.1-.1.8-.8 1.3-1.6 1.3zm-26.4-8.7c-.2 0-.5-.1-.7-.2-4.3-1.9-8.5-4.1-12.5-6.5-.8-.5-1.1-1.5-.6-2.4.5-.8 1.5-1.1 2.4-.6 3.9 2.3 8 4.5 12.2 6.4.9.4 1.3 1.4.9 2.3-.4.6-1 1-1.7 1zm343.6-1.8c-.6 0-1.1-.3-1.4-.8-.5-.8-.3-1.9.5-2.4 3.8-2.5 7.4-5.3 10.7-8.5.7-.7 1.8-.6 2.4.1.7.7.6 1.8-.1 2.4-3.4 3.2-7.2 6.2-11.1 8.8-.3.4-.6.4-1 .4zm-367.5-12.4c-.4 0-.7-.1-1-.3-3.8-2.8-7.4-5.9-10.8-9-.7-.7-.7-1.7-.1-2.4.7-.7 1.7-.7 2.4-.1 3.3 3.1 6.9 6.1 10.5 8.8.8.6.9 1.7.3 2.4-.2.3-.7.6-1.3.6zm-20.3-19c-.5 0-1-.2-1.3-.6-3.1-3.5-6-7.3-8.6-11.1-.5-.8-.3-1.9.4-2.4.8-.5 1.9-.3 2.4.4 2.6 3.7 5.4 7.4 8.4 10.8.6.7.5 1.8-.2 2.4-.3.4-.7.5-1.1.5zm-15.8-22.8c-.6 0-1.2-.3-1.5-.9-2.2-4.1-4.3-8.4-6-12.8-.4-.9.1-1.9 1-2.3s1.9.1 2.3 1c1.7 4.2 3.7 8.4 5.8 12.4.5.8.1 1.9-.7 2.3-.3.2-.6.3-.9.3zm-10.4-25.8c-.8 0-1.5-.5-1.7-1.3-1.3-4.5-2.3-9.2-3-13.8-.2-.9.5-1.8 1.4-2s1.8.5 2 1.4c.7 4.5 1.7 9 2.9 13.4.3.9-.3 1.9-1.2 2.1-.1.2-.2.2-.4.2zm-4.3-27.4c-.9 0-1.7-.7-1.7-1.7 0-.7-.1-1.5-.1-2.2 0-1.2 0-2.3 0-3.5 0-2.8.1-5.6.3-8.4.1-1 .9-1.7 1.8-1.6 1 .1 1.7.9 1.6 1.8-.2 2.7-.3 5.5-.3 8.2v3.4c0 .7 0 1.4.1 2.1 0 1.1-.7 1.9-1.7 1.9zm1.8-27.7c-.1 0-.2 0-.3 0-.9-.2-1.6-1.1-1.4-2 .8-4.6 1.9-9.2 3.2-13.7.3-.9 1.2-1.4 2.1-1.2.9.3 1.4 1.2 1.2 2.1-1.3 4.4-2.3 8.9-3.1 13.4-.2.8-.9 1.4-1.7 1.4zm7.8-26.7c-.2 0-.5 0-.7-.1-.9-.4-1.3-1.4-.9-2.3 1.8-4.3 3.9-8.6 6.2-12.7.5-.8 1.5-1.1 2.4-.7.8.5 1.1 1.5.7 2.4-2.2 4-4.3 8.1-6 12.3-.4.7-1 1.1-1.7 1.1zm13.5-24.2c-.3 0-.7-.1-1-.3-.8-.6-1-1.6-.4-2.4.7-.9 1.4-1.9 2.1-2.8l1.2-1.6 1.3-7.5c.2-.9 1-1.6 2-1.4.9.2 1.6 1 1.4 2l-1.4 8.4-1.7 2.3c-.7.9-1.4 1.8-2 2.7-.4.3-.9.6-1.5.6zm7.1-26.4c-.1 0-.2 0-.3 0-.9-.2-1.6-1-1.4-2l2.3-13.7c.2-.9 1-1.6 2-1.4.9.2 1.6 1 1.4 2l-2.3 13.7c-.1.8-.8 1.4-1.7 1.4z"
                          fill="#cecece"/>
                </g>
            </g>
        </g>
        <g>
            <g>
                <g>
                    <path d="m94.6 592.3c6.9-37.3 35.3-67 71.8-75.8 13-76.6 79.6-135 159.8-135 55.1 0 103.8 27.6 133.1 69.7 4.6-.5 9.3-.8 14-.8 70.6 0 127.8 57.3 127.8 128s-57.2 128-127.8 128c-25.4 0-353.5 0-366.9 0-31.8 0-57.6-25.8-57.6-57.6.2-27.9 19.7-51 45.8-56.5z"
                          fill="#bae3e6"/>
                    <path d="m203.7 454.7c-13.3 18.3-22.7 39.9-26.7 63.6l-1.2 6.9-6.8 1.7c-32.6 7.9-57.7 34.3-63.8 67.4l-1.3 7-7 1.5c-21.5 4.5-37.2 23.9-37.2 45.9 0 25.9 21 47 46.9 47h253.9c-70-64.1-131.1-144.4-156.8-241z"
                          fill="#daeff3"/>
                    <ellipse cx="176.2" cy="599.6" fill="#fff" rx="25.1" ry="14.1"
                             transform="matrix(.499 -.867 .867 .499 -431.318 453.113)"/>
                    <g>
                        <path d="m466.6 473.3 3.6 5.2 6.3-.7c4.4-.5 8.7-.7 12.9-.7 28.2 0 54.1 10 74.4 26.8-21.5-26.1-54-42.8-90.4-42.8-4.2 0-8.5.2-12.9.7l-2.6.3c3.1 3.6 6 7.3 8.7 11.2z"
                              fill="#f6f7f7"/>
                        <path d="m202.4 467.4s-13.4 15.7-19 48.1l-3.1 20.4-10 2.1c-29.8 7.2-52.6 31.3-58.2 61.4l-1.2 6.4-6.4 1.3c-19.6 4.1-33.9 21.8-33.9 41.9 0 15.5 8.3 29.1 20.8 36.6-3.9-6.4-6.2-14-6.2-22 0-20.1 14.3-37.7 33.9-41.9l6.4-1.3 1.2-6.4c5.6-30.1 28.5-54.2 58.2-61.4l6.2-1.5 1.1-6.3c5.2-58.6 10.7-68.4 10.2-77.4z"
                              fill="#fff"/>
                    </g>
                    <g>
                        <path d="m454 427.7 3.4 4.9 5.9-.7c4.1-.5 8.2-.7 12.2-.7 26.8 0 51.4 9.6 70.5 25.5-20.3-24.5-51-40.2-85.2-40.2-3.9 0-8 .2-12.2.7l-2.5.3c2.8 3.3 5.5 6.7 7.9 10.2z"
                              fill="#f6f7f7"/>
                    </g>
                    <g>
                        <path d="m1034.2 640.9-6.4-4.1-188.2 418.5h-55.4l83.3-286.2-6.8-2.7-83.2 288.9h-54.7l.3-233.4h-7l.3 233.4h-54.7l-83.2-288.9-6.8 2.7 83.3 286.2h-55.4l-188.1-418.5-6.5 4.1 187.5 414.4h-27.9v22.3h310.6v-22.3h-28.5z"
                              fill="#c4b296"/>
                        <g fill="#af8a5d">
                            <path d="m948.6 812.8c3.6-2.1 7.1-4.2 10.6-6.4l74.9-165.6-6.4-4.1z"/>
                            <path d="m411.5 636.8-6.4 4.1 68.5 151.4c3.8 2.7 7.6 5.4 11.4 8z"/>
                            <path d="m838.7 868 28.8-98.9-6.7-2.6-30.3 105.1c2.7-1.2 5.4-2.4 8.2-3.6z"/>
                            <path d="m723.1 821.9h-7l.1 87.1c2.3-.1 4.5-.3 6.8-.6z"/>
                            <path d="m578.5 766.4-6.7 2.6 29.4 101c2.9 1.5 5.7 2.9 8.5 4.4z"/>
                        </g>
                        <g>
                            <g>
                                <g>
                                    <path d="m970.9 102.4c-97.4-5.9-184.7 41.9-234.3 117.2-6.3 9.6-20.9 9.3-26.8-.7-45.8-77.7-130.7-129.7-228.2-128.7-150.6 1.7-265.3 134-257.8 284.6 13.9 276.2 318.9 439.2 436.9 492.2 29.5 13.2 62.6 13.2 93 2.3 197.1-70.4 433.2-194.7 460.6-470 15-150.1-93.1-287.8-243.4-296.9z"
                                          fill="#e2549d"/>
                                    <path d="m904.6 360.6c-16.4-117.4-154-101.4-224.6-132.9-22.1-9.9-42.1-23.4-59.1-37.3-64.7-52.7-152.2-69.4-230.4-40.2-185.8 69.3-127.5 276.3-90.8 373.5 45.2 119.5 299 323.2 402.8 299.8 103.8-23.3 218.5-345.5 202.1-462.9z"
                                          fill="#e465a5"/>
                                    <g>
                                        <path d="m316.1 538.6c-36.8-97.2-95-304.1 90.7-373.5 57.6-21.5 120.1-18.1 174.9 6.2-60.9-37.2-135.6-46.4-203.4-21.1-185.7 69.3-127.5 276.2-90.7 373.5 33 87.2 177 219.2 292.8 275.1-109.8-62-234-180-264.3-260.2z"
                                              fill="#ec8bb9"/>
                                    </g>
                                    <path d="m947.2 394.6c-1.2 186-143.6 382.6-229.7 458.1 13.9-.1 27.8-2.6 41.2-7.4 185.3-66.2 407.4-183.1 433.2-442 14.1-141.1-87.6-270.6-228.9-279.2-91.6-5.6-173.7 39.4-220.3 110.2 0 0 205.6-5.1 204.5 160.3z"
                                          fill="#e23f96"/>
                                    <path d="m963 124.2c-7.1-.4-14.1-.5-21-.4 2.7.1 5.5.2 8.2.4 141.3 8.6 243 138.1 228.9 279.2-25.8 258.8-247.9 375.8-433.2 442-8.9 3.2-18.1 5.3-27.4 6.5-.3.3-.7.6-1 .9 13.9-.1 27.8-2.6 41.2-7.4 185.3-66.2 407.4-183.1 433.2-442 14.1-141.1-87.6-270.7-228.9-279.2z"
                                          fill="#d73390"/>
                                </g>
                                <ellipse cx="405.8" cy="301.3" fill="#e87db1" rx="106.3" ry="79.1"
                                         transform="matrix(.573 -.82 .82 .573 -73.568 461.536)"/>
                                <g fill="#fff">
                                    <ellipse cx="403.9" cy="248.4" rx="31.4" ry="25.3"
                                             transform="matrix(.705 -.71 .71 .705 -57.001 359.934)"/>
                                    <ellipse cx="364.3" cy="288.1" rx="13.1" ry="13.1"/>
                                </g>
                            </g>
                        </g>
                        <g>
                            <g>
                                <path d="m809.8 1289.1h-180.4c-22.7 0-42.6-15.1-48.7-37l-61.4-220.5h400.7l-61.4 220.5c-6.2 21.9-26.1 37-48.8 37z"
                                      fill="#fcb84c"/>
                                <path d="m658.2 1259.7c-.1 0-.1 0 0 0-4.2-22.1-20.9-39.6-42.5-44.8 0 0-.1 0-.1-.1-6.1-35.9-32.2-64.9-66.3-75.4l31.4 112.7c6.1 21.9 26 37 48.7 37h55.4c-1.6-14.6-12.5-26.4-26.6-29.4z"
                                      fill="#f3a634"/>
                                <ellipse cx="570" cy="1103.1" fill="#fdc87b" rx="18.6" ry="32.5"
                                         transform="matrix(.981 -.197 .197 .981 -205.666 133.526)"/>
                                <path d="m801.6 1071.3c28 4.9 43 35.9 29.5 61-29.8 55.1-98 133.9-244.7 132.8 9 14.7 25.1 24.1 43 24.1h180.4c22.7 0 42.6-15.1 48.7-37l61.4-220.5h-344.4z"
                                      fill="#f3a634"/>
                                <path d="m923.2 1064h-407.2c-15.3 0-27.7-12.4-27.7-27.7 0-15.3 12.4-27.7 27.7-27.7h407.2c15.3 0 27.7 12.4 27.7 27.7 0 15.3-12.4 27.7-27.7 27.7z"
                                      fill="#f3a634"/>
                                <path d="m925 1011.9c.5 1.9.8 3.9.8 6 0 13.9-12.1 25.1-27.1 25.1h-398c-2.2 0-4.4-.3-6.5-.8 2.9 11 13.5 19.1 26.2 19.1h398c14.9 0 27.1-11.3 27.1-25.1.1-11.7-8.7-21.6-20.5-24.3z"
                                      fill="#e89729"/>
                                <g>
                                    <path d="m921.1 1013.9h-404.6c-12.3 0-22.3 10-22.3 22.4 0 .7 0 1.5.1 2.2h400.2c14.5 0 26.3-11 26.6-24.6z"
                                          fill="#fcb84c"/>
                                </g>
                                <path d="m519.1 1016.5h401.8c.1-.9.2-1.7.2-2.6h-404.6c-12.3 0-22.3 10-22.3 22.4 0 .7 0 1.5.1 2.2h2.5c.2-12.2 10.2-22 22.3-22z"
                                      fill="#ffce8a"/>
                            </g>
                            <g>
                                <g>
                                    <path d="m644.3 1248.4c-3.5 0-6.7-2.5-7.4-6.1l-27.3-144.6c-.8-4.1 1.9-8 6-8.8s8 1.9 8.8 6l27.3 144.6c.8 4.1-1.9 8-6 8.8-.5.1-1 .1-1.4.1z"
                                          fill="#e89729"/>
                                </g>
                                <g>
                                    <path d="m694.5 1248.4c-3.9 0-7.3-3.1-7.5-7.1l-9.1-144.6c-.3-4.2 2.9-7.7 7-8 4.1-.2 7.7 2.9 8 7.1l9.1 144.6c.3 4.2-2.9 7.7-7 8-.2 0-.4 0-.5 0z"
                                          fill="#e89729"/>
                                </g>
                                <g>
                                    <path d="m744.7 1248.4c-.2 0-.3 0-.5 0-4.2-.3-7.3-3.8-7-8l9.1-144.6c.3-4.2 3.9-7.3 8-7.1 4.2.3 7.3 3.8 7 8l-9.1 144.6c-.2 4.1-3.5 7.1-7.5 7.1z"
                                          fill="#e89729"/>
                                </g>
                                <path d="m744.2 1248.4h.5c3.9 0 7.3-3.1 7.5-7.1l1.4-22.3c-5 3.4-10.2 6.7-15.7 9.9l-.7 11.5c-.3 4.2 2.9 7.8 7 8z"
                                      fill="#d38028"/>
                                <g>
                                    <path d="m794.9 1248.4c-.5 0-.9 0-1.4-.1-4.1-.8-6.8-4.7-6-8.8l27.3-144.6c.8-4.1 4.7-6.8 8.8-6s6.8 4.7 6 8.8l-27.3 144.6c-.6 3.6-3.8 6.1-7.4 6.1z"
                                          fill="#e89729"/>
                                </g>
                                <path d="m799 1178.6-11.5 60.9c-.8 4.1 1.9 8 6 8.8.5.1.9.1 1.4.1 3.5 0 6.7-2.5 7.4-6.1l17.1-90.6c-5.7 8.8-12.5 17.9-20.4 26.9z"
                                      fill="#d38028"/>
                            </g>
                        </g>
                    </g>
                    <path d="m1329 725.1c-6-32-30.3-57.5-61.7-65.1-.1 0-.1-.1-.1-.1-11.2-65.9-68.5-116-137.5-116-47.4 0-89.2 23.7-114.5 59.9 0 0-.1.1-.1.1-3.9-.4-7.9-.7-12-.7-61.7 0-111.5 50.9-109.9 113 1.6 60 52.3 107.1 112.3 107.1h311.5c27.1 0 50.4-21.1 51.1-48.3.6-24.4-16.4-44.9-39.2-49.8.2 0 .1 0 .1-.1z"
                          fill="#bae3e6"/>
                    <g>
                        <path d="m1282.7 775c.6-24.4-16.4-44.9-39.2-49.8-.1 0-.1-.1-.1-.1-6-32-30.3-57.5-61.7-65.1-.1 0-.1-.1-.1-.1-8.1-47.4-40-86.6-83-104.9-31 7.5-58.7 26.2-77.5 53.2l-3.4 4.6h-6.2l-.6-.1c-3.8-.4-7.5-.6-11.1-.6-27.7 0-53.6 10.9-72.9 30.8s-29.6 46.1-28.8 73.9c1.4 54.7 48.2 99.2 104.3 99.2h255.8c14.2-8.5 24.1-23.5 24.5-41z"
                              fill="#daeff3"/>
                    </g>
                    <ellipse cx="972.5" cy="689.4" fill="#fff" rx="25.1" ry="18.9"
                             transform="matrix(.498 -.867 .867 .498 -109.688 1189.348)"/>
                    <g>
                        <path d="m1021.4 613.3-3.1 4.2h-5.7l-.5-.1c-3.5-.4-6.9-.6-10.2-.6-25.5 0-49.4 10.1-67.2 28.4s-27.2 42.5-26.6 68.1c.7 27.3 13.7 51.8 33.6 68.6-13.1-15.6-21.2-35.3-21.7-56.6-.7-25.6 8.8-49.8 26.6-68.1s41.7-28.4 67.2-28.4c3.3 0 6.8.2 10.2.6l.5.1h5.7l3.1-4.2c32.5-51.6 64.7-64.8 64.7-64.8-28.6 6.9-59.3 27.9-76.6 52.8z"
                              fill="#fff"/>
                    </g>
                </g>
                <ellipse cx="665.2" cy="1024.7" fill="#ffd297" rx="139.3" ry="4.7"/>
                <g>
                    <path d="m620.4 1249.5c-4.7-25.3-24-45.5-48.8-51.5 0 0-.1 0-.1-.1-8.9-52.1-54.2-91.7-108.7-91.7-37.5 0-70.6 18.7-90.5 47.3 0 0-.1.1-.1 0-3.1-.3-6.3-.5-9.5-.5-48.8 0-88.2 40.2-86.9 89.4 1.2 47.5 41.4 84.7 88.8 84.7h246.3c21.4 0 39.9-16.7 40.4-38.2.7-19.3-12.8-35.5-30.9-39.4z"
                          fill="#bae3e6"/>
                    <g>
                        <path d="m583.8 1288.9c.5-19.3-13-35.5-31-39.4 0 0-.1 0-.1-.1-4.7-25.3-24-45.5-48.8-51.5 0 0-.1 0-.1-.1-6.4-37.5-31.7-68.5-65.6-83-24.5 6-46.4 20.7-61.3 42l-2.7 3.6h-4.9-.5c-3-.3-5.9-.5-8.8-.5-21.9 0-42.4 8.7-57.7 24.4s-23.4 36.5-22.8 58.4c1.1 43.3 38.1 78.4 82.4 78.4h202.3c11.5-6.5 19.3-18.4 19.6-32.2z"
                              fill="#daeff3"/>
                    </g>
                    <g fill="#fff">
                        <ellipse cx="347.9" cy="1211" rx="22.8" ry="12.8"
                                 transform="matrix(.336 -.942 .942 .336 -909.539 1131.455)"/>
                        <g>
                            <path d="m382.6 1160c2.8 0 5.8.2 8.8.5h.5 4.9l2.7-3.6c13.1-32 38.9-42 38.9-42-24.5 6-46.4 20.7-61.3 42l-2.6 3.5c2.6-.2 5.3-.4 8.1-.4z"/>
                            <path d="m302.1 1242.8c-.6-22 7.5-42.7 22.8-58.4 13.2-13.5 30.2-21.8 48.6-23.8h-4.1-.5c-3-.3-5.9-.5-8.8-.5-21.9 0-42.4 8.7-57.7 24.4s-23.4 36.5-22.8 58.4c1.1 43.3 38.1 78.4 82.4 78.4h22.4c-44.2 0-81.2-35.2-82.3-78.5z"/>
                        </g>
                    </g>
                </g>
            </g>
            <g>
                <g>
                    <path d="m466.9 939.8c-6.5 2.2-10.9 7.7-12.1 13.9-.2.8-1.1 1.2-1.8.7-5.1-3.8-12-4.9-18.3-2.2-9.7 4.2-13.7 15.9-9.1 25.4 8.3 17.6 32.5 20 41.6 20.2 2.3.1 4.4-.8 6.1-2.4 10.9-9.9 22.9-24.3 17.3-43-3-10-13.7-16.1-23.7-12.6z"
                          fill="#e2549d"/>
                    <path d="m469 958.8c-4.1-7-12.4-2.4-17.7-2.5-1.7 0-3.3-.4-4.7-.8-5.5-1.6-11.4-.4-15.6 3.5-9.9 9.2-.8 20.8 4 26 6 6.4 27.3 12.6 33.3 8.4s4.8-27.6.7-34.6z"
                          fill="#e465a5"/>
                    <path d="m473.2 959.4c4.9 12.1.9 28.7-2.6 36 .9-.4 1.7-.9 2.5-1.6 10.3-9.3 21.6-22.9 16.3-40.4-2.9-9.6-13-15.2-22.4-12-6.1 2.1-10.2 7.2-11.4 13.1 0 0 13.2-5.8 17.6 4.9z"
                          fill="#e23f96"/>
                </g>
                <ellipse cx="435.5" cy="968" fill="#e87db1" rx="7.5" ry="5.6"
                         transform="matrix(.217 -.976 .976 .217 -603.864 1183.23)"/>
                <g>
                    <ellipse cx="434.2" cy="966.1" fill="#fff9e6" rx="3.8" ry="2.8"
                             transform="matrix(.082 -.997 .997 .082 -564.042 1320.076)"/>
                </g>
            </g>
            <g>
                <g>
                    <path d="m1010 1152.7c-11.1-3.7-22.7-.9-30.8 6.3-1 .9-2.7.4-3.1-.9-2.9-10.4-11.1-19.1-22.4-22-17.5-4.5-34.9 7.2-38.7 24.9-7 32.4 23.2 60.8 35.3 70.6 3 2.4 6.8 3.5 10.7 3.2 25-2 56.2-9 67.9-40 6.4-17-1.8-36.3-18.9-42.1z"
                          fill="#e2549d"/>
                    <path d="m993.1 1180.6c1.7-13.7-14.3-16.1-21.2-21.8-2.2-1.8-4-3.9-5.5-6-5.7-7.9-15-12.4-24.7-11.5-23 2.2-22.7 27.2-21.5 39.3 1.5 14.8 23.9 45.4 36.2 45.9s35-32.1 36.7-45.9z"
                          fill="#e465a5"/>
                    <path d="m998.1 1185.8c-5.9 21.5-28.5 39.8-40.8 45.9 1.6.4 3.3.6 5 .4 23.5-1.9 52.9-8.5 63.9-37.6 6-15.9-1.7-34.1-17.8-39.5-10.4-3.5-21.3-.9-28.9 5.9-.1 0 23.9 5.8 18.6 24.9z"
                          fill="#e23f96"/>
                </g>
                <ellipse cx="938.4" cy="1158.1" fill="#e87db1" rx="12.7" ry="9.5"
                         transform="matrix(.766 -.643 .643 .766 -525 874.7)"/>
                <g>
                    <ellipse cx="938.6" cy="1154.3" fill="#fff9e6" rx="6.5" ry="4.7"
                             transform="matrix(.671 -.742 .742 .671 -547.106 1076.759)"/>
                </g>
            </g>
            <g>
                <g>
                    <path d="m1031.3 938.3c-6.8-4-14.9-3.8-21.3-.1-.8.5-1.9-.1-1.9-1-.5-7.3-4.7-14.2-11.8-17.8-11-5.4-24.2-.1-29.2 11.1-9.2 20.6 7 43.6 13.6 51.8 1.7 2 4.1 3.3 6.7 3.6 16.9 2.2 38.6 1.8 50.7-17.1 6.6-10.3 3.8-24.3-6.8-30.5z"
                          fill="#e2549d"/>
                    <path d="m1016.2 954.5c3-8.9-7.2-12.7-11.1-17.4-1.2-1.5-2.1-3.2-2.8-4.7-2.7-6-8.3-10.3-14.8-11.1-15.6-1.8-18.9 14.9-19.7 23.1-1.1 10 9.5 33.5 17.7 35.6 8.1 2 27.7-16.6 30.7-25.5z"
                          fill="#e465a5"/>
                    <path d="m1018.9 958.7c-6.9 13.5-24.5 22.5-33.5 24.8 1 .5 2.1.8 3.3 1 15.9 2 36.3 1.7 47.7-16.1 6.2-9.7 3.6-22.9-6.3-28.7-6.4-3.8-14.1-3.5-20-.1-.2-.1 14.9 7.1 8.8 19.1z"
                          fill="#e23f96"/>
                </g>
                <ellipse cx="983" cy="931.9" fill="#e87db1" rx="8.6" ry="6.4"
                         transform="matrix(.882 -.472 .472 .882 -323.46 574.249)"/>
                <g>
                    <ellipse cx="983.7" cy="929.4" fill="#fff9e6" rx="4.4" ry="3.2"
                             transform="matrix(.809 -.589 .589 .809 -358.578 756.886)"/>
                </g>
            </g>
            <g>
                <g>
                    <path d="m349 1031.1c-7.9.8-14.3 5.7-17.4 12.4-.4.9-1.6 1-2.2.3-4.7-5.7-12.1-8.8-20-7.4-12.1 2-19.6 14.1-17.1 26.1 4.6 22 31.2 31.3 41.3 34 2.5.7 5.2.3 7.5-1 15-8.2 32.4-21.1 31.1-43.6-.6-12.2-11-21.9-23.2-20.8z"
                          fill="#e2549d"/>
                    <path d="m346.2 1053.1c-2.7-9-13.3-6-19.2-7.6-1.8-.5-3.6-1.3-5.1-2.2-5.7-3.3-12.7-3.5-18.5-.3-13.7 7.7-6.6 23.2-2.5 30.3 5 8.8 27.3 21.6 35.2 18.5 7.8-3.1 12.8-29.7 10.1-38.7z"
                          fill="#e465a5"/>
                    <path d="m350.8 1054.9c2.3 15-6.7 32.6-12.7 39.7 1.1-.2 2.2-.6 3.2-1.1 14.1-7.7 30.4-19.9 29.2-41-.7-11.5-10.5-20.6-21.9-19.5-7.4.7-13.5 5.4-16.3 11.7 0-.1 16.5-3.1 18.5 10.2z"
                          fill="#e23f96"/>
                </g>
                <ellipse cx="306.1" cy="1054.3" fill="#e87db1" rx="8.7" ry="6.4"
                         transform="matrix(.438 -.899 .899 .438 -775.72 867.273)"/>
                <g>
                    <ellipse cx="305.2" cy="1051.9" fill="#fff9e6" rx="4.4" ry="3.2"
                             transform="matrix(.312 -.95 .95 .312 -789.416 1014.2)"/>
                </g>
            </g>
        </g>
    </g>
</svg>