<svg height="512" viewBox="0 0 512 512" width="512" xmlns="http://www.w3.org/2000/svg">
    <g id="Sale">
        <path d="m414.33 341.68a43.51 43.51 0 0 1 10.88 7.26 45.31 45.31 0 0 1 13.2 22.76 33.46 33.46 0 0 1 8.24-21.11 33.11 33.11 0 0 1 16.17-9.9 31.25 31.25 0 0 1 -14.82-6.26 32.25 32.25 0 0 1 -11.54-19.79 28.56 28.56 0 0 1 -4.95 15.5 29.09 29.09 0 0 1 -17.18 11.54z"
              fill="#ffb833"/>
        <path d="m18.93 195.17a43.51 43.51 0 0 1 10.88 7.26 45.39 45.39 0 0 1 13.19 22.76 32.64 32.64 0 0 1 24.4-31 31.16 31.16 0 0 1 -14.84-6.26 32.25 32.25 0 0 1 -11.56-19.8 28.56 28.56 0 0 1 -5 15.5 29.09 29.09 0 0 1 -17.07 11.54z"
              fill="#ffb833"/>
        <path d="m274.26 53.07a35.33 35.33 0 0 1 8.88 5.93 37.12 37.12 0 0 1 10.77 18.57 27.22 27.22 0 0 1 6.73-17.22 27 27 0 0 1 13.18-8.08 25.45 25.45 0 0 1 -12.11-5.11 26.34 26.34 0 0 1 -9.42-16.16 23.16 23.16 0 0 1 -4 12.65 23.73 23.73 0 0 1 -14.03 9.42z"
              fill="#ffb833"/>
        <rect fill="#ffb833" height="213.95" rx="8.5" transform="matrix(.975 -.222 .222 .975 -38.66 41.96)"
              width="129.55" x="102.51" y="85.97"/>
        <rect fill="#37ad36" height="213.95" rx="8.5" transform="matrix(.975 -.222 .222 .975 -36.29 48.75)"
              width="129.55" x="133.92" y="78.81"/>
        <path d="m185.98 79.91h5.89v125.95h-5.89z" fill="#383333"
              transform="matrix(.975 -.222 .222 .975 -27.01 45.51)"/>
        <path d="m90.49 135.38h161.76v5.89h-161.76z" fill="#383333"
              transform="matrix(.975 -.222 .222 .975 -26.43 41.49)"/>
        <path d="m92.82 130a2.51 2.51 0 0 1 -2.41-1.84 40 40 0 0 1 -1.24-10.72c.32-10.09 5.28-13.84 9.4-15.21a2.5 2.5 0 1 1 1.58 4.74c-9.38 3.13-5 19.7-4.92 19.87a2.5 2.5 0 0 1 -2.41 3.16z"
              fill="#fff"/>
        <path d="m162.83 93a2.5 2.5 0 0 1 -.54-4.94l32.38-7.2a2.5 2.5 0 0 1 1.08 4.89l-32.38 7.19a2.48 2.48 0 0 1 -.54.06z"
              fill="#fff"/>
        <path d="m244.41 127.22a2.51 2.51 0 0 1 -2.43-1.91l-6-24.75a2.5 2.5 0 0 1 4.86-1.18l6 24.74a2.5 2.5 0 0 1 -1.84 3 2.88 2.88 0 0 1 -.59.1z"
              fill="#fff"/>
        <path d="m161.11 161.67h245.7v319.33h-245.7z" fill="#00ccc1"/>
        <path d="m92.82 161.67h245.7v319.33h-245.7z" fill="#aaeeea"/>
        <circle cx="154.24" cy="194.88" fill="#383333" r="8.59"/>
        <circle cx="275.37" cy="194.88" fill="#383333" r="8.59"/>
        <path d="m214.66 274.07c-1.29 0-2.57-.05-3.86-.14-15.75-1.13-31.25-9.44-42.53-22.8a72.28 72.28 0 0 1 -16.67-54.13 3 3 0 1 1 6 .58 66.32 66.32 0 0 0 15.29 49.64c10.23 12.13 24.22 19.67 38.37 20.69 15.57 1.11 31.54-5.42 43.86-17.91a66.45 66.45 0 0 0 18.85-52.45 3 3 0 1 1 6-.51 72.48 72.48 0 0 1 -20.56 57.17c-12.6 12.79-28.7 19.86-44.75 19.86z"
              fill="#fff3e3"/>
        <path d="m171.62 363.29a30.76 30.76 0 0 1 -28.19-43 30.72 30.72 0 1 1 28.19 43zm0-46.75a16 16 0 1 0 14.86 10.13 16 16 0 0 0 -14.86-10.13z"
              fill="#ff1a26"/>
        <path d="m259.8 426.74a30.84 30.84 0 1 1 11.28-2.16 30.63 30.63 0 0 1 -11.28 2.16zm0-46.75a16 16 0 1 0 14.86 10.13 16 16 0 0 0 -14.85-10.12z"
              fill="#ff1a26"/>
        <path d="m198.76 447.52a7.61 7.61 0 0 1 -1.63-.18 7.39 7.39 0 0 1 -5.58-8.84l34.57-153.19a7.39 7.39 0 1 1 14.41 3.25l-34.53 153.2a7.38 7.38 0 0 1 -7.24 5.76z"
              fill="#ff1a26"/>
        <path d="m265.68 129.73c18.94-21.16 37.81-33 53.21-40 10.34-4.72 12-4 23.39-9.38a198.62 198.62 0 0 0 21.47-12.35c11.57-7.5 23.37-10.07 31.15-11.77 20.25-4.41 55.34-2.36 69.51 18.93 7.42 11.15 6.84 24.32 6.09 46.17-.52 14.92-2.84 18.64-3.85 32.52a153.39 153.39 0 0 0 5.13 51l-9.3 8.76a37.66 37.66 0 0 1 -9.29-7.19c-9.6-10.26-10.24-22.93-10.26-27.21a35.41 35.41 0 0 0 -7.69 8.75 35 35 0 0 0 -5.13 16 181.44 181.44 0 0 1 -67.65-6c-55.1-15.79-86.13-53.76-96.78-68.23z"
              fill="#ff1a26"/>
        <path d="m258.65 131.37s-16.71 23-13.92 31 39.67 9.2 52.55 20.14 30.27 36.78 45.59 47.26 48.31 12.97 62.13 11.23 22.48-5.16 26.65-7.3 5.57-34 2.79-42-37.24 5-60.91-9.7-34.8-34.92-70.64-50.66-37.89-9.67-44.24.03z"
              fill="#fff3e3"/>
        <circle cx="473.94" cy="210.05" fill="#fff3e3" r="19.14"/>
        <path d="m442.93 179.65h-.12a.5.5 0 0 1 -.37-.6c7-28.6 1-44.78.93-44.94a.5.5 0 0 1 .29-.64.5.5 0 0 1 .65.29 47.09 47.09 0 0 1 2.23 11.83c.61 7 .56 18.59-3.13 33.69a.5.5 0 0 1 -.48.37z"
              fill="#383333"/>
        <path d="m340.13 81.81a.48.48 0 0 1 -.45-.28.5.5 0 0 1 .23-.67 67.17 67.17 0 0 1 14.76-4.45 114.53 114.53 0 0 1 39.85-.49.51.51 0 0 1 .42.57.51.51 0 0 1 -.58.42 113.34 113.34 0 0 0 -39.45.47 66.49 66.49 0 0 0 -14.56 4.38.59.59 0 0 1 -.22.05z"
              fill="#383333"/>
        <g fill="#fff">
            <path d="m260.15 143.52a2.46 2.46 0 0 1 -.65-.08 2.51 2.51 0 0 1 -1.77-3.06c.1-.36 2.42-8.86 8.69-12.46a12.17 12.17 0 0 1 9.62-1.08 2.5 2.5 0 0 1 -1.33 4.82 7.2 7.2 0 0 0 -5.79.59c-4.46 2.54-6.34 9.35-6.36 9.42a2.49 2.49 0 0 1 -2.41 1.85z"/>
            <path d="m323.62 95.44a2.5 2.5 0 0 1 -1.24-4.68c.56-.32 14-7.83 29.12-8.34a2.5 2.5 0 0 1 .17 5c-13.95.46-26.69 7.62-26.82 7.69a2.52 2.52 0 0 1 -1.23.33z"/>
            <path d="m424.54 63.74a2.44 2.44 0 0 1 -1-.19c-8.34-3.43-20.85-1-21-1a2.5 2.5 0 0 1 -1-4.91c.58-.11 14.11-2.72 23.85 1.28a2.5 2.5 0 0 1 -.95 4.82z"/>
            <path d="m463.14 148a2.5 2.5 0 0 1 -2.5-2.46c-.12-8 2.66-19.18 2.77-19.66a2.5 2.5 0 0 1 4.86 1.21c0 .11-2.74 11.07-2.63 18.37a2.5 2.5 0 0 1 -2.46 2.54z"/>
            <path d="m439.09 169a2.5 2.5 0 0 1 -2.31-3.44c1.83-4.52 1.67-13.95 1.46-17.21a2.5 2.5 0 1 1 5-.33c0 .52.82 12.91-1.82 19.42a2.5 2.5 0 0 1 -2.33 1.56z"/>
            <path d="m485.06 204.87a2.51 2.51 0 0 1 -2.15-1.22c-4.37-7.33-13.84-3.55-14.23-3.39a2.5 2.5 0 0 1 -1.92-4.62c4.77-2 15.17-3.4 20.45 5.44a2.51 2.51 0 0 1 -2.15 3.79z"/>
            <path d="m426 226.78a2.5 2.5 0 0 1 -2.22-3.65c3.81-7.32 1.58-20.2 1.56-20.33a2.5 2.5 0 1 1 4.92-.87c.11.59 2.55 14.67-2 23.51a2.51 2.51 0 0 1 -2.26 1.34z"/>
            <path d="m98.7 197.38a2.5 2.5 0 0 1 -2.5-2.5v-26.21a2.5 2.5 0 0 1 2.5-2.5h14.73a2.5 2.5 0 1 1 0 5h-12.23v23.71a2.5 2.5 0 0 1 -2.5 2.5z"/>
            <path d="m112 475.25h-12.64a2.5 2.5 0 0 1 -2.5-2.5v-20.12a2.5 2.5 0 0 1 5 0v17.62h10.14a2.5 2.5 0 1 1 0 5z"/>
            <path d="m330.65 475.25h-16.65a2.5 2.5 0 0 1 0-5h14.19v-20.89a2.5 2.5 0 0 1 5 0v23.39a2.5 2.5 0 0 1 -2.54 2.5z"/>
            <path d="m330.32 335a2.5 2.5 0 0 1 -2.5-2.5v-34a2.5 2.5 0 0 1 5 0v34a2.5 2.5 0 0 1 -2.5 2.5z"/>
            <path d="m400 304.26a2.5 2.5 0 0 1 -2.5-2.5v-30.69a2.5 2.5 0 1 1 5 0v30.69a2.5 2.5 0 0 1 -2.5 2.5z"/>
            <path d="m399.67 476.23h-12.1a2.5 2.5 0 1 1 0-5h9.6v-21.87a2.5 2.5 0 0 1 5 0v24.37a2.49 2.49 0 0 1 -2.5 2.5z"/>
            <path d="m154.24 314.86a2.45 2.45 0 0 1 -1.76-.73 2.5 2.5 0 0 1 0-3.52c.4-.41 10-9.84 25.38-2.9a2.5 2.5 0 0 1 -2.06 4.56c-12.13-5.48-19.47 1.56-19.77 1.86a2.49 2.49 0 0 1 -1.79.73z"/>
            <path d="m223 333.11a2.46 2.46 0 0 1 -.53-.06 2.51 2.51 0 0 1 -1.92-3l6-27.78a2.5 2.5 0 0 1 4.89 1.06l-6 27.77a2.5 2.5 0 0 1 -2.44 2.01z"/>
            <path d="m202.4 423.81a2.61 2.61 0 0 1 -.48-.05 2.5 2.5 0 0 1 -2-2.93l5.33-27.48a2.5 2.5 0 0 1 4.91.95l-5.33 27.48a2.5 2.5 0 0 1 -2.43 2.03z"/>
            <path d="m240.71 384.55a2.46 2.46 0 0 1 -1.67-.65 2.5 2.5 0 0 1 -.18-3.53c.15-.17 15.43-16.74 33.84-6.91a2.5 2.5 0 0 1 -2.36 4.41c-15-8-27.64 5.71-27.77 5.85a2.48 2.48 0 0 1 -1.86.83z"/>
            <path d="m99 319.22a2.5 2.5 0 0 1 -2.5-2.5v-30.93a2.5 2.5 0 0 1 5 0v30.93a2.5 2.5 0 0 1 -2.5 2.5z"/>
            <path d="m99.37 334.73c-4.39 0-3.74 6.8.63 6.8s3.74-6.8-.63-6.8z"/>
            <path d="m99.37 261.45c-4.39 0-3.74 6.8.63 6.8s3.74-6.8-.63-6.8z"/>
            <path d="m130.77 164.29c-4.39 0-3.74 6.8.64 6.8s3.74-6.8-.64-6.8z"/>
            <path d="m98.71 208.12c-4.39 0-3.74 6.81.64 6.81s3.74-6.81-.64-6.81z"/>
            <path d="m368.61 79.56c-4.4 0-3.74 6.8.63 6.8s3.76-6.8-.63-6.8z"/>
            <path d="m441.56 62.87c-4.39 0-3.74 6.81.63 6.81s3.74-6.81-.63-6.81z"/>
            <path d="m382.35 62.22c-4.4 0-3.74 6.8.63 6.8s3.74-6.8-.63-6.8z"/>
            <path d="m436 132.55c-4.39 0-3.74 6.81.63 6.81s3.74-6.81-.63-6.81z"/>
            <path d="m462.82 108c-4.39 0-3.74 6.8.64 6.8s3.74-6.8-.64-6.8z"/>
            <path d="m255.42 150.87c-4.4 0-3.75 6.81.63 6.81s3.74-6.81-.63-6.81z"/>
            <path d="m415.39 229.06c-4.39 0-3.74 6.8.63 6.8s3.74-6.8-.63-6.8z"/>
            <path d="m482.78 213c-4.39 0-3.74 6.8.63 6.8s3.74-6.8-.63-6.8z"/>
            <path d="m229.9 79.56c-4.39 0-3.74 6.8.63 6.8s3.74-6.8-.63-6.8z"/>
            <path d="m140.26 93.62c-4.39 0-3.74 6.81.63 6.81s3.75-6.81-.63-6.81z"/>
            <path d="m96.1 137.46c-4.39 0-3.74 6.8.63 6.8s3.74-6.8-.63-6.8z"/>
            <path d="m147.79 323c-4.4 0-3.75 6.8.63 6.8s3.74-6.8-.63-6.8z"/>
            <path d="m190.31 316.41c-4.39 0-3.74 6.8.64 6.8s3.74-6.8-.64-6.8z"/>
            <path d="m217.79 344.87c-4.39 0-3.74 6.8.64 6.8s3.74-6.8-.64-6.8z"/>
            <path d="m232.52 287.62c-4.4 0-3.75 6.8.63 6.8s3.74-6.8-.63-6.8z"/>
            <path d="m199.8 433.52c-4.39 0-3.74 6.81.63 6.81s3.75-6.81-.63-6.81z"/>
            <path d="m236.44 392.3c-4.39 0-3.74 6.81.63 6.81s3.75-6.81-.63-6.81z"/>
            <path d="m280 381.51c-4.39 0-3.74 6.8.63 6.8s3.7-6.8-.63-6.8z"/>
            <path d="m329.35 349.12c-4.39 0-3.74 6.81.63 6.81s3.74-6.81-.63-6.81z"/>
            <path d="m329 427c-4.39 0-3.74 6.81.64 6.81s3.76-6.81-.64-6.81z"/>
            <path d="m398.7 426.33c-4.39 0-3.74 6.8.64 6.8s3.74-6.8-.64-6.8z"/>
            <path d="m367.3 469.51c-4.39 0-3.74 6.8.63 6.8s3.74-6.8-.63-6.8z"/>
            <path d="m290.42 469.51c-4.39 0-3.74 6.8.63 6.8s3.74-6.8-.63-6.8z"/>
            <path d="m129.79 469.18c-4.39 0-3.74 6.81.64 6.81s3.74-6.81-.64-6.81z"/>
            <path d="m101.33 429.27c-4.39 0-3.74 6.81.63 6.81s3.75-6.81-.63-6.81z"/>
            <path d="m397.4 249.67c-4.4 0-3.75 6.8.63 6.8s3.74-6.8-.63-6.8z"/>
            <path d="m397.4 318.7c-4.4 0-3.75 6.8.63 6.8s3.74-6.8-.63-6.8z"/>
        </g>
    </g>
</svg>