<svg height="512" viewBox="0 0 512 512" width="512" xmlns="http://www.w3.org/2000/svg" xmlns:xlink="http://www.w3.org/1999/xlink"><clipPath id="clip-path"><path d="m154.32 116 1.68 63.82a11.88 11.88 0 0 1 -11.91 12.18h-55.4a11.88 11.88 0 0 0 -11.87 12.43l12 259.29a11.88 11.88 0 0 0 11.87 11.34h246.46a11.87 11.87 0 0 0 8.3-3.38l70.95-69.17a11.88 11.88 0 0 0 3.58-8l12.87-278.32a11.88 11.88 0 0 0 -11.85-12.38h-264.8a11.89 11.89 0 0 0 -11.88 12.19z"/></clipPath><clipPath id="clip-path-2"><path d="m150.33 104-92.33 75.45a13.29 13.29 0 0 0 -4.88 10.29v71.42a13.31 13.31 0 0 0 13.3 13.3h303a13.28 13.28 0 0 0 9.6-4.1l71.4-74.49a13.29 13.29 0 0 0 3.7-9.21v-72.39a13.29 13.29 0 0 0 -13.26-13.27h-282.11a13.32 13.32 0 0 0 -8.42 3z"/></clipPath><g id="Present"><path d="m154.32 116 1.68 63.82a11.88 11.88 0 0 1 -11.91 12.18h-55.4a11.88 11.88 0 0 0 -11.87 12.43l12 259.29a11.88 11.88 0 0 0 11.87 11.34h246.46a11.87 11.87 0 0 0 8.3-3.38l70.95-69.17a11.88 11.88 0 0 0 3.58-8l12.87-278.32a11.88 11.88 0 0 0 -11.85-12.38h-264.8a11.89 11.89 0 0 0 -11.88 12.19z" fill="#ff535c"/><g clip-path="url(#clip-path)" fill="#fff3e3"><circle cx="462.19" cy="233.48" r="15.04"/><circle cx="394.86" cy="205.67" r="8.62"/><circle cx="260.66" cy="146.38" r="8.62"/><circle cx="282.76" cy="216.17" r="13.47"/><circle cx="462.19" cy="114.91" r="15.04"/><circle cx="327.98" cy="174.19" r="15.04"/><circle cx="394.86" cy="87.1" r="8.62"/><circle cx="416.96" cy="156.88" r="13.47"/><circle cx="260.66" cy="27.81" r="8.62"/><circle cx="282.76" cy="97.6" r="13.47"/><circle cx="327.98" cy="55.62" r="15.04"/><circle cx="416.96" cy="38.31" r="13.47"/><circle cx="462.19" cy="470.63" r="15.04"/><circle cx="394.86" cy="442.82" r="8.62"/><circle cx="260.66" cy="383.53" r="8.62"/><circle cx="282.76" cy="453.32" r="13.47"/><circle cx="462.19" cy="352.06" r="15.04"/><circle cx="327.98" cy="411.34" r="15.04"/><circle cx="394.86" cy="324.25" r="8.62"/><circle cx="416.96" cy="394.03" r="13.47"/><circle cx="260.66" cy="264.96" r="8.62"/><circle cx="282.76" cy="334.75" r="13.47"/><circle cx="327.98" cy="292.77" r="15.04"/><circle cx="416.96" cy="275.46" r="13.47"/><circle cx="193.78" cy="233.48" r="15.04"/><circle cx="126.45" cy="205.67" r="8.62"/><circle cx="-7.75" cy="146.38" r="8.62"/><circle cx="14.35" cy="216.17" r="13.47"/><circle cx="193.78" cy="114.91" r="15.04"/><circle cx="59.57" cy="174.19" r="15.04"/><circle cx="126.45" cy="87.1" r="8.62"/><circle cx="148.55" cy="156.88" r="13.47"/><circle cx="-7.75" cy="27.81" r="8.62"/><circle cx="14.35" cy="97.6" r="13.47"/><circle cx="59.57" cy="55.62" r="15.04"/><circle cx="148.55" cy="38.31" r="13.47"/><circle cx="193.78" cy="470.63" r="15.04"/><circle cx="126.45" cy="442.82" r="8.62"/><circle cx="-7.75" cy="383.53" r="8.62"/><circle cx="14.35" cy="453.32" r="13.47"/><circle cx="193.78" cy="352.06" r="15.04"/><circle cx="59.57" cy="411.34" r="15.04"/><circle cx="126.45" cy="324.25" r="8.62"/><circle cx="148.55" cy="394.03" r="13.47"/><circle cx="-7.75" cy="264.96" r="8.62"/><circle cx="14.35" cy="334.75" r="13.47"/><circle cx="59.57" cy="292.77" r="15.04"/><circle cx="148.55" cy="275.46" r="13.47"/></g><path d="m150.33 104-92.33 75.45a13.29 13.29 0 0 0 -4.88 10.29v71.42a13.31 13.31 0 0 0 13.3 13.3h303a13.28 13.28 0 0 0 9.6-4.1l71.4-74.49a13.29 13.29 0 0 0 3.7-9.21v-72.39a13.29 13.29 0 0 0 -13.26-13.27h-282.11a13.32 13.32 0 0 0 -8.42 3z" fill="#ff8d93"/><g clip-path="url(#clip-path-2)" fill="#fff3e3"><circle cx="450.61" cy="198.91" r="14.42"/><circle cx="386.1" cy="172.26" r="8.26"/><circle cx="257.49" cy="115.44" r="8.26"/><circle cx="278.67" cy="182.32" r="12.91"/><circle cx="450.61" cy="85.28" r="14.42"/><circle cx="322.01" cy="142.09" r="14.42"/><circle cx="386.1" cy="58.63" r="8.26"/><circle cx="407.27" cy="125.51" r="12.91"/><circle cx="257.49" cy="1.82" r="8.26"/><circle cx="278.67" cy="68.69" r="12.91"/><circle cx="322.01" cy="28.47" r="14.42"/><circle cx="407.27" cy="11.88" r="12.91"/><circle cx="450.61" cy="426.16" r="14.42"/><circle cx="386.1" cy="399.51" r="8.26"/><circle cx="257.49" cy="342.7" r="8.26"/><circle cx="278.67" cy="409.58" r="12.91"/><circle cx="450.61" cy="312.54" r="14.42"/><circle cx="322.01" cy="369.35" r="14.42"/><circle cx="386.1" cy="285.89" r="8.26"/><circle cx="407.27" cy="352.76" r="12.91"/><circle cx="257.49" cy="229.07" r="8.26"/><circle cx="278.67" cy="295.95" r="12.91"/><circle cx="322.01" cy="255.72" r="14.42"/><circle cx="407.27" cy="239.13" r="12.91"/><circle cx="193.4" cy="198.91" r="14.42"/><circle cx="128.89" cy="172.26" r="8.26"/><circle cx=".28" cy="115.44" r="8.26"/><circle cx="21.46" cy="182.32" r="12.91"/><circle cx="193.4" cy="85.28" r="14.42"/><circle cx="64.8" cy="142.09" r="14.42"/><circle cx="128.89" cy="58.63" r="8.26"/><circle cx="150.06" cy="125.51" r="12.91"/><circle cx=".28" cy="1.82" r="8.26"/><circle cx="21.46" cy="68.69" r="12.91"/><circle cx="64.8" cy="28.47" r="14.42"/><circle cx="150.06" cy="11.88" r="12.91"/><circle cx="193.4" cy="426.16" r="14.42"/><circle cx="128.89" cy="399.51" r="8.26"/><circle cx=".28" cy="342.7" r="8.26"/><circle cx="21.46" cy="409.58" r="12.91"/><circle cx="193.4" cy="312.54" r="14.42"/><circle cx="64.8" cy="369.35" r="14.42"/><circle cx="128.89" cy="285.89" r="8.26"/><circle cx="150.06" cy="352.76" r="12.91"/><circle cx=".28" cy="229.07" r="8.26"/><circle cx="21.46" cy="295.95" r="12.91"/><circle cx="64.8" cy="255.72" r="14.42"/><circle cx="150.06" cy="239.13" r="12.91"/></g><path d="m367.56 274.1a.5.5 0 0 1 -.5-.5v-89.18h-312.56a.5.5 0 0 1 -.5-.5.5.5 0 0 1 .5-.5h313.06a.51.51 0 0 1 .5.5v89.68a.51.51 0 0 1 -.5.5z" fill="#383333"/><path d="m367.56 184.42a.5.5 0 0 1 -.36-.14.51.51 0 0 1 0-.71l80.27-80.27a.5.5 0 1 1 .71.71l-80.27 80.27a.49.49 0 0 1 -.35.14z" fill="#383333"/><path d="m347.15 475.57a.5.5 0 0 1 -.49-.52l5.67-200.61a.49.49 0 0 1 .52-.48.5.5 0 0 1 .48.51l-5.67 200.61a.51.51 0 0 1 -.51.49z" fill="#383333"/><path d="m32.33 95.61a45.34 45.34 0 0 1 11.46 7.64 47.66 47.66 0 0 1 13.88 24 35.25 35.25 0 0 1 8.68-22.25 34.8 34.8 0 0 1 17-10.42 32.81 32.81 0 0 1 -15.61-6.58 33.89 33.89 0 0 1 -12.15-20.86 30 30 0 0 1 -5.21 16.32 30.61 30.61 0 0 1 -18.05 12.15z" fill="#ffb833"/><path d="m428.63 449.41a45.54 45.54 0 0 1 11.46 7.59 47.76 47.76 0 0 1 13.91 24 35.21 35.21 0 0 1 8.68-22.22 34.74 34.74 0 0 1 17-10.41 32.89 32.89 0 0 1 -15.62-6.6 33.91 33.91 0 0 1 -12.15-20.83 30 30 0 0 1 -5.21 16.32 30.67 30.67 0 0 1 -18.07 12.15z" fill="#ffb833"/><path d="m427 54.23a37.4 37.4 0 0 1 9.35 6.23 38.89 38.89 0 0 1 11.33 19.54 28.74 28.74 0 0 1 7.08-18.13 28.37 28.37 0 0 1 13.88-8.5 26.85 26.85 0 0 1 -12.74-5.37 27.71 27.71 0 0 1 -9.9-17 24.49 24.49 0 0 1 -4.25 13.31 25 25 0 0 1 -14.75 9.92z" fill="#ffb833"/><path d="m185.74 183.92 4.31 291.15h74.74l-15.81-291.15z" fill="#ffb833"/><path d="m392.77 158.71q-5.41 143.58-10.84 287.17l35.3-34.45-.07-277.11z" fill="#ffb833"/><path d="m185.74 183.92 84.08-82.94h53.36l-74.2 82.94z" fill="#ff832f"/><path d="m113.23 134.32h303.93l-24.39 24.39h-309.37z" fill="#ff832f"/><path d="m337.78 33.61c-59.29-3.91-80 61-80 61s-52.59-103.45-110.78-40.93 101.33 96.18 101.33 96.18c114.25-14.92 148.74-112.35 89.45-116.25zm-138.51 77.19c-32.34-17-42.05-32.61-27.49-39.07s10-18.33 23.44-15.9 44.47 49.31 44.47 49.31c17.52 30.19-8.09 22.64-40.42 5.66zm115.88-4.58c-15.47 11.54-37.86 19.06-42.31 13.34a5 5 0 0 1 -.81-3.64s20.12-55.33 50.66-58.57c9.37-1 15.43 1.23 18.36 5.4 6.6 9.41-9.86 31.51-25.9 43.47z" fill="#ffb833"/><path d="m271.2 126.59a3.66 3.66 0 0 1 -2.22-.53c-2-1.57-1.08-6.22 2.9-14.21 2.85-5.71 6.28-11.09 6.31-11.14a.49.49 0 0 1 .69-.15.5.5 0 0 1 .16.69c-5.18 8.11-12.33 21.8-9.45 24 .25.19 1.15.58 4.15.06 12.43-2.17 41.6-15.66 47.33-24.62a.5.5 0 0 1 .85.54c-6.22 9.71-36.77 23.11-48 25.06a15.74 15.74 0 0 1 -2.72.3z" fill="#383333"/><path d="m272 159.21h-61a.5.5 0 0 1 0-1h61a.5.5 0 0 1 0 1z" fill="#383333"/><path d="m275.87 140.23s47.46-28.39 87-1.34c21.9 15 44.12 33.07 72 28.25a50.4 50.4 0 0 0 16.57-6.08c.31 2.49 1.15 11.7-4.85 19.94-6.3 8.65-17.64 12.81-29.11 10.78a55.89 55.89 0 0 0 7.55 20.48 56.92 56.92 0 0 0 23.17 21c-18-1.49-44.22-6.59-66.46-25.21-15.49-13-18.25-23.42-32.17-35.69-13.38-11.8-36.75-25-79.63-25.55z" fill="#ffb833"/><path d="m239.47 140.23s-47.46-28.39-87-1.34c-21.9 15-44.12 33.07-72 28.25a50.4 50.4 0 0 1 -16.57-6.08c-.31 2.49-1.15 11.7 4.85 19.94 6.3 8.65 17.64 12.81 29.11 10.78a55.89 55.89 0 0 1 -7.55 20.48 56.92 56.92 0 0 1 -23.17 21c18-1.49 44.22-6.59 66.46-25.21 15.49-13 18.25-23.42 32.17-35.69 13.38-11.8 36.75-25 79.63-25.55z" fill="#ffb833"/><path d="m250.19 149.74c-.62 0-1.27 0-1.95 0-8.51-.3-14.75-2.47-19.76-4.22l-.32-.12c-8.63-3-18.25-6.19-29.42-9.72a.5.5 0 1 1 .3-1c11.18 3.54 20.81 6.73 29.44 9.74l.33.11c4.95 1.73 11.11 3.88 19.47 4.17a57.15 57.15 0 0 0 9.89-.53c15.68-2.08 37.11-10.94 45.59-14.65a.5.5 0 0 1 .4.92c-8.52 3.72-30.05 12.62-45.86 14.72a58.42 58.42 0 0 1 -8.11.58z" fill="#383333"/><path d="m417.16 167.76c-10.07-.65-24-8.29-24.6-8.61a.5.5 0 1 1 .48-.88c.14.08 14.34 7.85 24.18 8.49a.5.5 0 0 1 0 1z" fill="#383333"/><path d="m417.16 227.79h-.12a83.61 83.61 0 0 1 -26.69-12.67.5.5 0 0 1 .61-.8 82.12 82.12 0 0 0 26.32 12.5.5.5 0 0 1 .36.61.49.49 0 0 1 -.48.36z" fill="#383333"/><g fill="#fff"><path d="m171.5 51.19a2.5 2.5 0 0 1 -1.5-4.53c.21-.15 20.9-14.66 38.2.13a2.5 2.5 0 1 1 -3.25 3.8c-14.35-12.27-31.86 0-32 .13a2.46 2.46 0 0 1 -1.45.47z"/><path d="m347.15 87.35a2.51 2.51 0 0 1 -2.23-3.63c8.42-16.67 7.93-24.85 6.08-28.72a6.71 6.71 0 0 0 -4.29-3.8 2.52 2.52 0 0 1 -2-2.93 2.48 2.48 0 0 1 2.87-2 11.68 11.68 0 0 1 7.79 6.36c3.63 7.13 1.63 18.37-5.99 33.37a2.51 2.51 0 0 1 -2.23 1.35z"/><path d="m123.2 168.18a2.51 2.51 0 0 1 -.54-5c.15 0 10-2.41 20.58-15a2.5 2.5 0 1 1 3.83 3.22c-11.8 14-22.87 16.55-23.34 16.65a2.33 2.33 0 0 1 -.53.13z"/><path d="m112.36 145a2.5 2.5 0 0 1 -1.6-4.42l19.62-16.36a2.5 2.5 0 0 1 3.2 3.84l-19.58 16.31a2.5 2.5 0 0 1 -1.64.63z"/><path d="m423.68 119.19a2.49 2.49 0 0 1 -1.67-4.35l8-7.18h-19.12a2.5 2.5 0 0 1 0-5h25.58a2.5 2.5 0 0 1 1.68 4.36l-12.8 11.53a2.46 2.46 0 0 1 -1.67.64z"/><path d="m357.86 149a2.5 2.5 0 0 1 -1.95-.94c-10.09-12.58-27.33-11.62-27.5-11.61a2.5 2.5 0 0 1 -.32-5c.81 0 20-1.11 31.72 13.47a2.5 2.5 0 0 1 -1.95 4.07z"/><path d="m82.75 265.71h-14a9.57 9.57 0 0 1 -9.56-9.56v-22.87a2.5 2.5 0 1 1 5 0v22.87a4.57 4.57 0 0 0 4.56 4.56h14a2.5 2.5 0 0 1 0 5z"/><path d="m351.23 267.6h-21.17a2.5 2.5 0 0 1 0-5h21.17a4.22 4.22 0 0 0 4.22-4.22v-21.69a2.5 2.5 0 0 1 5 0v21.69a9.23 9.23 0 0 1 -9.22 9.22z"/><path d="m197.41 371.41a2.5 2.5 0 0 1 -2.5-2.5v-105.7a2.5 2.5 0 0 1 5 0v105.7a2.5 2.5 0 0 1 -2.5 2.5z"/><path d="m394.49 337.67a2.5 2.5 0 0 1 -2.5-2.5v-80.92a2.5 2.5 0 0 1 5 0v80.92a2.5 2.5 0 0 1 -2.5 2.5z"/><path d="m114.77 467.48h-12.23a8.53 8.53 0 0 1 -8.54-8.48v-21.57a2.5 2.5 0 0 1 5 0v21.57a3.53 3.53 0 0 0 3.52 3.53h12.23a2.5 2.5 0 0 1 0 5z"/><path d="m352.82 468.51a2.46 2.46 0 0 1 -1.05-.23 2.5 2.5 0 0 1 -1.45-2.27v-26.85a2.5 2.5 0 0 1 5 0v21.49l7-5.85a2.5 2.5 0 0 1 3.22 3.83l-11.07 9.3a2.53 2.53 0 0 1 -1.65.58z"/><path d="m372.34 444.1c-4.63 0-3.94 7.16.66 7.16s3.94-7.16-.66-7.16z"/><path d="m354 416c-4.62 0-3.94 7.16.67 7.16s3.93-7.16-.67-7.16z"/><path d="m395.58 348.29c-4.63 0-3.94 7.16.66 7.16s3.94-7.16-.66-7.16z"/><path d="m396.61 234.14c-4.62 0-3.94 7.17.67 7.17s3.93-7.17-.67-7.17z"/><path d="m357.87 216.58c-4.62 0-3.93 7.17.67 7.17s3.94-7.17-.67-7.17z"/><path d="m309.32 264.1c-4.62 0-3.93 7.16.67 7.16s3.94-7.16-.67-7.16z"/><path d="m370.79 154.61c-4.63 0-3.94 7.16.66 7.16s3.94-7.16-.66-7.16z"/><path d="m333.08 40.46c-4.62 0-3.94 7.16.67 7.16s3.94-7.16-.67-7.16z"/><path d="m218.94 56.47c-4.62 0-3.94 7.16.66 7.16s3.94-7.16-.66-7.16z"/><path d="m144.05 113.8c-4.63 0-3.94 7.16.66 7.16s3.94-7.16-.66-7.16z"/><path d="m106.86 168c-4.62 0-3.94 7.17.67 7.17s3.93-7.17-.67-7.17z"/><path d="m100.15 257.9c-4.63 0-3.94 7.16.66 7.16s3.94-7.16-.66-7.16z"/><path d="m63 214c-4.62 0-3.94 7.16.66 7.16s3.9-7.16-.66-7.16z"/><path d="m196.73 242.41c-4.62 0-3.94 7.16.66 7.16s3.94-7.16-.66-7.16z"/><path d="m197.76 396.32c-4.62 0-3.94 7.16.67 7.16s3.94-7.16-.67-7.16z"/><path d="m95 418c-4.62 0-3.94 7.17.67 7.17s3.91-7.17-.67-7.17z"/><path d="m134.23 462.43c-4.62 0-3.93 7.16.67 7.16s3.94-7.16-.67-7.16z"/><path d="m389.21 103.65c-4.63 0-3.94 7.16.66 7.16s3.94-7.16-.66-7.16z"/><path d="m413.65 121.89c-4.62 0-3.93 7.17.67 7.17s3.94-7.17-.67-7.17z"/></g></g></svg>