<svg enable-background="new 0 0 512 512" height="512" viewBox="0 0 512 512" width="512" xmlns="http://www.w3.org/2000/svg"><g id="Layer_31" display="none"><g display="inline"><g fill="none" stroke-miterlimit="10"><g stroke="#9e9e9e"><ellipse cx="256" cy="256" rx="248.1" ry="248.3"/><path d="m398.8 504.5h-285.6c-18.8 0-34.1-15.3-34.1-34.1v-428.8c0-18.8 15.3-34.1 34.1-34.1h285.5c18.8 0 34.1 15.3 34.1 34.1v428.9c.1 18.8-15.2 34-34 34z"/><path d="m7.9 399.8v-287.6c0-16.4 13.3-29.8 29.8-29.8h436.7c16.4 0 29.8 13.3 29.8 29.8v287.6c0 16.4-13.3 29.8-29.8 29.8h-436.8c-16.4 0-29.7-13.4-29.7-29.8z"/><path d="m440.4 469.9h-368.8c-16.4 0-29.8-13.3-29.8-29.8v-368.2c0-16.4 13.3-29.8 29.8-29.8h368.8c16.4 0 29.8 13.3 29.8 29.8v368.2c0 16.4-13.4 29.8-29.8 29.8z"/></g><path d="m7.5 7.5h497v497h-497z" stroke="#d81c24" transform="matrix(0 1 -1 0 512 0)"/></g></g></g><g id="Layer_55"><g><g><g><g><g><path d="m338.7 187.3c0-.3.2-4 .2-4s-2.7-1.2-8.5-.4 1.9 8.1 1.9 8.1z" fill="#c89eaa"/><path d="m157.8 201c-2.7 1.6-5.4-3.7-4.2-7.6 0 0 3.8-2.4 11.3-4 12.6-2.6-3.4 7.6-7.1 11.6z" fill="#c89eaa"/><g><path d="m422.8 250.1c5.6 8.5 13 15 18 24.1 5.4 9.9 8.4 20.5 12.8 30.8 8.7 20.6 12.1 42.9 10.5 65.3-2.7 36.8-12.8 79.8-39.8 106.8-13.7 13.7-31.1 25.8-50.4 29.4-9.1 1.7-16.6 1.9-25.1-2.1-2.4-1.1-3.5-3.3-5.9-3.1-3.2.2-9.6 5.8-13.4 6.9-7.3 2.2-15.9 2.3-23.3.3-3.6-1-6.7-3.1-10.2-4.3-6.3-2.2-2.3-2.8-8.9.9-7.9 4.3-17.7 7.9-26.8 6.6-4.5-.6-8.9-2.7-13-4.6-3.3-1.5-11.8-8.3-15-8.2-4.1.1-9.2 7.8-14.7 9-7.6 1.7-17.9 0-25-2.9-3.4-1.3-8.5-6.2-11.8-6.3-2.8 0-2.7 1.6-5.5 2.7-9.4 3.9-18.7 2.4-28.4-.3-35.4-9.7-66.7-42.6-80.8-75.9-15.8-37.3-7.9-75-.3-113.3 1.9-9.3 4.9-18.3 8.7-27.1 4.2-9.7 5-11.5 15.5-14.3 20.4-5.4 328.5-23.4 332.8-20.4z" fill="#e37e25"/><g fill="#f48734"><path d="m116.6 294.2s-17.1 26.7-10 71.1 37.4 101.4 37.4 101.4-30.9-25.6-44.2-75.2c-15.9-59.4 16.8-97.3 16.8-97.3z"/><path d="m178.4 286.4s-3.7 52.3 14.4 99 44.8 97.3 44.8 97.3-50.3-63.1-64.2-106.4 5-89.9 5-89.9z"/><path d="m288.9 306.1-5.4 180.4s10.1-44 12-92.5-6.6-87.9-6.6-87.9z"/><path d="m385.3 296.9s18 28.9 12.6 70.5-12.3 64.2-29.2 84.4c-17 20.2-22.4 25.5-22.4 25.5s57.9-78.7 39-180.4z"/><path d="m443.3 306.1s23.7 36.9 11 87.6c-12.7 50.8-41.9 80.5-41.9 80.5s48.8-115.8 30.9-168.1z"/></g><g><path d="m404.2 468.5s.8-1.6 2.3-3.7c1.5-2.2 3.5-5 6.1-7.6 5.2-5.2 9.7-9.6 11.2-8.6 1.5.9-.9 7.3-6.7 13.1-2.9 2.9-6.2 4.7-8.7 5.6-2.4 1-4.2 1.2-4.2 1.2z" fill="#f69148"/></g><g><path d="m292.1 385.2s-.7-1.9-1.4-4.8-1.5-6.9-1.7-11.3c-.3-8.8.1-16.1 1.9-16.3 1.7-.2 4.2 6.9 4.5 16.1.2 4.6-.7 8.7-1.5 11.7-.9 2.8-1.8 4.6-1.8 4.6z" fill="#f69148"/></g><g><path d="m417.3 289s-1.3-.7-2.9-1.8c-1.6-1.2-3.6-2.9-5.2-5.2-3.2-4.5-5.2-8.8-3.9-10s5.7 1.4 9.1 6.3c1.7 2.4 2.5 5.2 2.7 7.2.4 2.1.2 3.5.2 3.5z" fill="#f69148"/></g><g><path d="m440.7 302.3s-1.3-1-2.9-2.7-3.6-4.1-5.1-7c-3.1-5.9-4.9-11.1-3.5-12.1s5.9 2.9 9.2 9.1c1.6 3.1 2.2 6.4 2.4 8.8.1 2.4-.1 3.9-.1 3.9z" fill="#f69148"/></g><g><path d="m423 314.4s-4.4-2.6-6.2-7.1c-1.7-4.6-1.8-8.8-.2-9.4 1.7-.6 4.4 2.6 6.2 7.1 1.8 4.6.2 9.4.2 9.4z" fill="#f69148"/></g><g><path d="m110.6 400.2s-1.1-.7-2.4-2-2.8-3.2-3.6-5.6c-1.6-4.9-1.3-9.3.4-9.7 1.7-.5 4.2 3 5.7 7.7.8 2.4.7 4.7.5 6.6-.2 1.8-.6 3-.6 3z" fill="#f69148"/></g><g><path d="m90.8 394s-1-.9-2-2.5-2.1-3.9-2.4-6.6c-.5-5.4.9-9.7 2.7-9.7s3.3 4.1 3.7 9.2c.2 2.5-.3 4.9-.9 6.7-.4 1.8-1.1 2.9-1.1 2.9z" fill="#f69148"/></g><g><path d="m106.6 426.4s-1.4-.8-3.3-2.5c-1.9-1.6-4.1-4.1-5.8-7.3-3.3-6.4-4.2-12.4-2.5-13.1s5.1 4 8.3 10.2c1.6 3.1 2.4 6.2 2.8 8.6.5 2.4.5 4.1.5 4.1z" fill="#f69148"/></g><g fill="#da7127"><path d="m191.1 292.1s.5-1.4-4.4 6.6c-4.9 8.1-8.6 16.6-12.4 25.1-4.7 10.7-23.3 34.3.6 35.1 17.8 2.1 24.2 3.2 33.4 2.8 8.7-.4 18.9.3 19.6-10.3.7-10.2-33.8-62.3-36.8-59.3z"/><path d="m382.1 331.9c-3.4-8.8-22.7-49.3-34.7-45-3.6.8-10.1 18.7-11.1 21.4-2.3 6-21.3 43.8-7.3 42.9 12.5.8 26.1-2.5 38.7-3.2 12.4-.7 19.7-2.4 14.4-16.1z"/><path d="m412.4 376.3s-16.3 11.1-21.3 13.8c-6.2 3.4-12.8 5.9-18.9 9.3-5.7 3.2-14.8 6.9-19.6 11.3-4.3 4-6.2 11.3-9 16.5-7.6 14.3-14.3-4.3-24-7.4-4.7-1.5-14.5 1-19.6 1.5-7.6.8-14.9 1.9-22.6 2-9.3.2-18.7.5-28 .6-5.1 0-9.6-.2-15.8.9-1.6.3-3 1.2-3.8 2.6-2.5 4.1-8.2 13.1-12.8 15.7-5.3 2.9-12.8-11.1-16.8-17.3-.8-1.3-2.1-2.2-3.5-2.5-5.1-1.1-18.3-4-28.5-6.1-7.1-1.5-14-2-21.2-2-4.4 0-13.7-2.4-17.7-1.3-1 .3 15.9 9.2 17.6 10.1 7.5 4.1 32.4 35 70.8 48.7 15.3 5.4 19.5-7 25.7-18.8 1.2-2.2 4.2-2.6 5.9-.8v.1c3 3.2 7.1 11.2 9.6 16.5 1.5 3.1 4.7 4.9 8.1 4.7l23.3-1.6c3.3-.2 6.2-2.4 7.3-5.5 2-5.8 5.5-15.1 8.3-20.8.9-1.9 3.3-2.7 5.2-1.6 1.6.9 3.3 2.5 5.5 4.8 3.9 4 5.6 5.1 6.6 6.5 14.7 13 15.4 7.7 24.6.9 9.9-7.3 20.3-21.4 27.8-31 3.6-4.5 38.8-48 36.8-49.8z"/></g><path d="m365.8 491c-2.4-1.1-3.5-3.3-5.9-3.1-3.2.2-9.6 5.8-13.4 6.9-7.3 2.2-15.9 2.3-23.3.3-3.6-1-6.7-3.1-10.2-4.3-6.3-2.2-2.3-2.8-8.9.9-7.9 4.3-17.7 7.9-26.8 6.6-4.5-.6-8.9-2.7-13-4.6-3.3-1.5-11.8-8.3-15-8.2-4.1.1-9.2 7.8-14.7 9-7.6 1.7-17.9 0-25-2.9-3.4-1.3-8.5-6.2-11.8-6.3-2.8 0-2.7 1.6-5.5 2.7-9.4 3.9-18.7 2.4-28.4-.3-35.4-9.7-66.7-42.6-80.8-75.9-7.4-17.4-7.2-46-4.8-72.2 3.7-38.6 38.7-66.5 77.1-61.3 1.1.2 2.2.3 3.3.4 19.3 2.4 36.4 9.5 55 14.7 21 5.9 42.9 4.2 64.5 3.9 12.6-.2 25.1-2.2 37-6 32.3-10.4 65.9-20.4 98.4-32.1 3.6-2 7.6-3.7 11.8-5.4-.9-1.2-1.8-2.4-2.6-3.7-4.1-2.9-296.6 14.1-330.8 20.1-.4.1-.8.2-1.2.2h-.1c-.3.1-.6.1-.9.2-11 2.9-11.4 4.8-16.1 15.7-3.7 8.5-6.4 17.4-8.2 26.5-7.5 37.9-15.3 75.4.5 112.4 14.1 33.3 45.5 66.2 80.8 75.9 9.7 2.7 19 4.2 28.4.3 2.8-1.2 2.7-2.8 5.5-2.7 3.4 0 8.4 4.9 11.8 6.3 7.1 2.8 17.4 4.5 25 2.9 5.5-1.2 10.6-8.9 14.7-9 3.2-.1 11.7 6.7 15 8.2 4.1 1.8 8.5 4 13 4.6 9.1 1.2 18.9-2.3 26.8-6.6 6.7-3.7 2.6-3.1 8.9-.9 3.5 1.2 6.6 3.3 10.2 4.3 7.4 2 15.9 1.9 23.3-.3 3.8-1.1 10.2-6.7 13.4-6.9 2.4-.2 3.5 2 5.9 3.1 8.5 3.9 16 3.7 25.1 2.1 17.6-3.2 33.6-13.6 46.6-25.7-9.1 5.9-19 10.4-29.5 12.3-9.1 1.6-16.6 1.8-25.1-2.1z" fill="#dc6927"/><path d="m422.8 250.1c-33.2 12-67.8 22.2-100.7 32.9-13 4.2-27.5 5.1-41.1 5.4-19.5.4-39.1 1.3-58.1-4-18.6-5.2-35.7-12.2-55-14.7-17.1-2.2-33.6-2.4-50.7-1.8-16.4.6-30.6 4.1-45.8 10-5.1 2-17.5 10.2-22.8 8.3-7.8-2.8 1.9-13.1 4.4-16.8 8.5-12.2 15.5-24.2 27.8-33 16.1-11.6 36.4-18 54.7-25.1 15.9-6.1 22.5-7.4 30.2-23.5 8.2-17.1 6.8-37.3 16.7-53.9 3.8-6.3 12-10.1 15.2-16.2 3.7-7.1 2.6-18 6.1-26 7.6-17 18.4-34.1 32.6-46.4 5.3-4.6 13.7-6.8 18.4-11.5s5.6-13.2 10.5-18.5c13.9-15.1 32.3-15.7 51.4-15.2 8.6.2 16.9 1.1 23.6 6.9 7.3 6.3 6.3 16.1 9.1 24.8 2.7 8.2 5.8 15.4 7.4 23.7 1.5 7.8 6.9 14.8 10.3 22.9 4.3 10.2 9 20.1 14.4 29.9 6.3 11.3-3.6 7.3-11.3 3.9-9.8-4.3-19.9-9.2-28.6-15.5-6.6-4.8-12.8-14.8-19.9-18.2-2.8 7.4-6.8 9.6-5.1 17.6 1.6 7.7 4.3 14.9 4.3 22.9 0 8.5-3.3 14.3-5.9 22-1.4 4-2.4 1.8-1.1 5.4.3.9 5.6 5.1 6.3 6 9.9 11.9 9.6 28.8 14.5 42.6 2.8 8 .7 9.1 9.3 8 7.4-.9 13.5-2.3 21.1-1 14.5 2.5 26.5 8.5 41.7 8.7 15 .3 30.3-.6 45.2 1.9 9.3 1.6 20 8.6 11.2 16.8-10.4 9.7-27.9 13.9-40.3 20.7z" fill="#a46ca9"/><path d="m304.5 79.7s6 1.8 7.6 22.2c1.6 20.5 2.7 32.9-2.3 33.1-5 .3-30.3-5.9-30.3-5.9s35.8-24.4 25-49.4z" fill="#ae82b3"/><g><g><path d="m277.6 89.2s-.8-.9-1.5-2.1c-.8-1.3-1.6-2.9-1.8-4.8-.3-3.7.4-6.9 2.1-7.3s4 2.6 4.3 6.8c.2 2.1-.6 4-1.4 5.4-.8 1.3-1.7 2-1.7 2z" fill="#be84b9"/></g><g><path d="m287.6 111.6s-.8-1.3-1.7-3.2c-.9-2-1.9-4.7-2.2-7.7-.6-6-.1-11.2 1.6-11.5s4.1 4.5 4.8 10.9c.3 3.2-.3 6.1-1 8.2s-1.5 3.3-1.5 3.3z" fill="#be84b9"/></g><g><path d="m268.3 109.8s-.8-.7-1.6-1.8-1.7-2.6-1.8-4.4c-.2-3.4.8-6.4 2.6-6.6 1.8-.3 3.6 2.5 3.9 6.2.1 1.8-.6 3.5-1.4 4.7-.9 1.2-1.7 1.9-1.7 1.9z" fill="#be84b9"/></g></g><path d="m341 203.3c-5 .3-3.7-1.5-6.2-8.3-.9-2.4-1.6-4.9-2.2-7.5-2.1 1.8-4.4 3.5-4.4 3.5-1.2 1.2-12.3 7.4-15.8 8.6-11.3 3.8-23.2 7.2-35.1 8.7-1.5.2-3.1.4-4.6.5-1.1-4.3-3.5-7.9-8.1-9.7-8.3-3.2-21-1.6-29.7-.3-7.8 1.1-15.5 1.5-19 8.9-.6 1.2-1 2.6-1.4 3.9-11 0-22.1.4-33-1.3-3-.5-22.4-3-28.2-6.8-3.4 2.2-7.3 3.8-12.3 5.7-2 5.7-3.5 11.8-4.3 15.3-2.6 11 4.9 14.8 14.5 17.7 19.1 5.9 40.2 8.1 60.2 9.2.4 2.9 1.3 5.4 3 7.3 5.9 6.8 20 4.2 27.9 3.4 8.4-.8 22.9-.9 28.3-8.6 1.1-1.6 1.9-3.6 2.4-5.8 5-.8 10-1.6 15-2.5 13.9-2.4 51.1-5.9 53.9-22.3.8-5.4.4-12.8-.9-19.6z" fill="#965a9e"/><path d="m267.2 25.7c-1.6-2.4 7-9.6 14.5-16.6 7.5-7 46-8 46-8-3.5-.7-7.2-.9-11-1-19.1-.4-37.5.1-51.4 15.2-4.8 5.3-5.7 13.7-10.5 18.5-4.7 4.7-13.1 6.9-18.4 11.5-14.2 12.2-25 29.4-32.6 46.4-3.6 8-2.5 18.8-6.1 26-3.2 6.1-11.4 9.9-15.2 16.2-9.9 16.6-8.5 36.8-16.7 53.9-4.7 9.7-8.9 14.1-15.1 17.3 5.5 3.1 12.7 5.7 19 3.1 12.2-5.2 21.5-32.6 18.5-49s4.2-28.3 17.6-37.6 19.6-22.2 19.6-22.2-16 10.9-17.8 8.3 4.8-16.2 11.4-31.3 29.2-33.1 37-36.1 27.6-15.9 27.6-15.9-14.8 3.7-16.4 1.3z" fill="#965a9e"/></g><g><path d="m342.6 190c-.7-1.7-2-4.5-3.7-6.7-2.1 2.2-6.1 5-6.1 5-1.2 1.2-12.3 7.4-15.8 8.6-11.3 3.8-23.2 7.2-35.1 8.7-20.4 2.6-41.2 3.4-61.8 3.4-11.3 0-22.9.5-34.1-1.3-3.1-.5-24.1-3.3-28.9-7.3-3.4-2.5-3.6-7.1-3.6-7.1-6.5 4-10.7 21.4-12.4 28.6-2.6 11 4.9 14.8 14.5 17.7 21 6.5 44.5 8.5 66.4 9.5 23.9 1 47-2.3 70.4-6.4 13.9-2.4 51.1-5.9 53.9-22.3 1.6-8.7-.4-22.1-3.7-30.4z" fill="#d7b9c1"/></g><path d="m273.2 245.8c1-6.5.2-14.3.2-19.6.3-6.2.9-13.8-1.5-19.5-17.2 1.7-34.6 2.3-51.8 2.3-1.6 0-3.2 0-4.7 0-2.8 6.8-2.8 15.8-3.3 22.9-.3 4.3-1.4 10.8-1.2 16.6 3.7.2 7.5.4 11.1.6 1.3.1 2.5.1 3.8.1-.5-1.8-.2-4.3-.1-8 .2-6.8-2.8-22.5 2.9-26.9 2.8-2.1 16.8-1.7 21.4-2 7.2-.5 15.7-2.5 12.2 9.1-2.4 7.7-8.4-.5-12.4 6-4.9 8 9.8 3.8 11.5 5.5 1.6 1.6.9 10.6-.8 14.5 4.3-.4 8.5-.9 12.7-1.6z" fill="#c0a0a8"/><path d="m269.3 195.5c-8.3-3.2-21-1.6-29.7-.3-7.8 1.1-15.5 1.5-19 8.9-3.3 6.9-3.2 16.5-3.8 24-.5 7.4-3.4 20.8 2.1 27.1 5.9 6.8 20 4.2 27.9 3.4 8.4-.8 22.9-.9 28.3-8.6 4.7-6.7 3-19.8 3-27.6.6-9.8 1.6-22.9-8.8-26.9zm-2.3 22.1c-2.4 7.7-8.4-.5-12.4 6-4.9 8 9.8 3.8 11.5 5.5 2 2 .4 15.2-2.1 16.3-5.1 2.3-19.9 3.3-25.2 3.2-9.8 0-8.5-2.7-8.3-11.2.2-6.8-2.8-22.5 2.9-26.9 2.8-2.1 16.8-1.7 21.4-2 7.2-.4 15.8-2.4 12.2 9.1z" fill="#eacf19"/><g fill="#dbbd26"><path d="m269.8 245.5c2.6-1.2 4.1-14.4 2.1-16.3-.7-.7-3.9-.4-6.8-.4.4.1.8.2 1 .4 2 2 .4 15.2-2.1 16.3-4.1 1.9-14.5 2.9-21.2 3.1h1.8c5.3.2 20.2-.8 25.2-3.1z"/><path d="m263.3 221.2c-2.7.1-6.1-1.7-8.7 2.5-3.7 6 3.7 5.1 8.4 5-2.9-.3-4.7-1.4-2.5-5 .8-1.5 1.8-2.2 2.8-2.5z"/><path d="m263.9 208.3c3.3.6 5.2 2.8 3.2 9.3-.6 2-1.5 2.9-2.5 3.3 3.3-.3 6.7 2 8.3-3.3 3-9.9-2.8-9.8-9-9.3z"/><path d="m224.8 255.2c-5.5-6.3-2.6-19.7-2.1-27.1.5-7.5.5-17.1 3.8-24 3.6-7.4 11.3-7.8 19-8.9 4.1-.6 9-1.3 14-1.5-6.8-.3-14.2.6-19.9 1.5-7.8 1.1-15.5 1.5-19 8.9-3.3 6.9-3.2 16.5-3.8 24-.5 7.4-3.4 20.8 2.1 27.1 3.7 4.3 10.6 4.9 17.2 4.5-4.5-.3-8.7-1.5-11.3-4.5z"/></g><g><g fill="#522725"><path d="m198 292.1s.5-1.4-4.4 6.6c-4.9 8.1-8.6 16.6-12.4 25.1-4.7 10.7-23.3 34.3.6 35.1 17.8 2.1 24.2 3.2 33.4 2.8 8.7-.4 18.9.3 19.6-10.3.7-10.2-33.9-62.3-36.8-59.3z"/><path d="m389 331.9c-3.4-8.8-22.7-49.3-34.7-45-3.6.8-10.1 18.7-11.1 21.4-2.3 6-21.3 43.8-7.3 42.9 12.5.8 26.1-2.5 38.7-3.2 12.3-.7 19.6-2.4 14.4-16.1z"/><path d="m419.3 376.3s-16.3 11.1-21.3 13.8c-6.2 3.4-12.8 5.9-18.9 9.3-5.7 3.2-14.8 6.9-19.6 11.3-4.3 4-6.2 11.3-9 16.5-7.6 14.3-14.3-4.3-24-7.4-4.7-1.5-14.5 1-19.6 1.5-7.6.8-14.9 1.9-22.6 2-9.3.2-18.7.5-28 .6-5.1 0-9.6-.2-15.8.9-1.6.3-3 1.2-3.8 2.6-2.5 4.1-8.2 13.1-12.8 15.7-5.3 2.9-12.8-11.1-16.8-17.3-.8-1.3-2.1-2.2-3.5-2.5-5.1-1.1-18.3-4-28.5-6.1-7.1-1.5-14-2-21.2-2-4.4 0-13.7-2.4-17.7-1.3-1 .3 15.9 9.2 17.6 10.1 7.5 4.1 32.4 35 70.8 48.7 15.3 5.4 19.5-7 25.7-18.8 1.2-2.2 4.2-2.6 5.9-.8v.1c3 3.2 7.1 11.2 9.6 16.5 1.5 3.1 4.7 4.9 8.1 4.7l23.3-1.6c3.3-.2 6.2-2.4 7.3-5.5 2-5.8 5.5-15.1 8.3-20.8.9-1.9 3.3-2.7 5.2-1.6 1.6.9 3.3 2.5 5.5 4.8 3.9 4 5.6 5.1 6.6 6.5 14.7 13 15.4 7.7 24.6.9 9.9-7.3 20.3-21.4 27.8-31 3.6-4.5 38.8-48 36.8-49.8z"/></g><g><path d="m419.3 376.3s-6.5 4.4-12.6 8.4c-10.1 13.7-26.4 33.8-28.8 36.8-7.6 9.6-18 23.7-27.8 31-9.2 6.9-10 12.1-24.6-.9-1.1-1.3-2.7-2.4-6.6-6.5-2.2-2.3-4-3.9-5.5-4.8-1.9-1.1-4.2-.3-5.2 1.6-2.8 5.7-6.2 15-8.3 20.8-1.1 3.1-4 5.3-7.3 5.5l-23.3 1.6c-1.3.1-2.6-.1-3.7-.6.1.1.1.3.2.4 1.5 3.1 4.7 4.9 8.1 4.7l23.3-1.6c3.3-.2 6.2-2.4 7.3-5.5 2-5.8 5.5-15.1 8.3-20.8.9-1.9 3.3-2.7 5.2-1.6 1.6.9 3.3 2.5 5.5 4.8 3.9 4 5.6 5.1 6.6 6.5 14.7 13 15.4 7.7 24.6.9 9.9-7.3 20.3-21.4 27.8-31 3.6-4.4 38.8-47.9 36.8-49.7z" fill="#311414"/><g><path d="m251.7 448.8c-1.8-1.9-4.8-1.5-6 .8-6.2 11.9-10.1 23.1-25.7 18.8-8.2-2.2-15.5-5.2-22-8.5 7.9 5 16.8 9.5 26.5 13 15.3 5.4 19.5-7 25.7-18.8.8-1.5 2.5-2.2 4-1.9-.9-1.4-1.7-2.6-2.5-3.4z" fill="#311414"/></g></g></g></g><g><path d="m197.9 292c.1.1.1 0 0 0z" fill="#3f1818"/><path d="m198 292.1s23.5 51.6 17.7 59.2c-5.8 7.5-36.7 7.3-37.2 7.3 1 .1 2.1.2 3.3.3 17.8 2.1 24.2 3.2 33.4 2.8 8.7-.4 18.9.3 19.6-10.3.7-10.2-33.9-62.3-36.8-59.3z" fill="#311414"/></g><path d="m358.1 349.8c5.5-.7 11.1-1.5 16.4-1.8 12.4-.7 19.7-2.4 14.4-16-3.4-8.8-22.7-49.3-34.7-45 0 0 15.9 20.9 18.9 40 3 19-15 22.8-15 22.8z" fill="#311414"/></g><g fill="#965a9e"><path d="m303.4 142.5c2.3 1.9 10.8 4.3 10.8 4.3-.2-.2-.3-.4-.3-.5-.6-1.9-.7-2.2-.4-2.6s-2-1-4-1.4-11.3-4.1-11.3-4.1 3 2.4 5.2 4.3z"/><path d="m311.3 74.4c1.5.8 9.4 6.4 9.4 6.4.3-.7.7-1.5 1-2.3 0 0-7.7-7.2-9.8-8.1-1.9-.8-4.4-1.9-6.4-2.7-.7-.3-1.3.6-.7 1.1 2.4 2.1 5.6 5.1 6.5 5.6z"/><path d="m148.3 261.8c-22.6-2.8-34.7 3.4-39.7 3.4-5 .1 10.2-9.4 10.2-9.4s-7.3.1-18.7 5.6-25.3 7.9-32.8 5.7 16.4-32.7 16.4-32.8c-1 .7-2 1.3-3 2-12.3 8.9-19.4 20.9-27.8 33-2.6 3.7-12.3 14-4.4 16.8 5.3 1.9 17.7-6.2 22.8-8.3 15.2-6 29.4-9.4 45.8-10 17.1-.6 33.6-.3 50.7 1.8 19.3 2.4 36.4 9.5 55 14.7-32.1-17-51.9-19.7-74.5-22.5z"/></g></g><g><path d="m118.3 388.9s-.5-1.6-1.3-4.5c-.4-1.4-.9-3.2-1.4-5.3s-1.1-4.4-1.4-7.1c-.2-1.3-.4-2.7-.7-4.2-.2-1.5-.3-3-.5-4.5-.4-3.1-.5-6.5-.7-10.1-.1-7.1.2-15 1.4-23.2 1.3-8.2 3.2-15.8 5.5-22.6 1.2-3.4 2.3-6.6 3.6-9.5.6-1.5 1.2-2.9 1.8-4.2.7-1.3 1.3-2.6 1.9-3.8 1.2-2.4 2.4-4.5 3.5-6.4 1-1.9 2-3.4 2.9-4.7 1.7-2.5 2.6-3.9 2.6-3.9s-.7 1.5-2 4.2c-.7 1.3-1.4 3-2.2 4.9-.8 2-1.8 4.1-2.7 6.6-.5 1.2-1 2.5-1.5 3.9s-.9 2.8-1.4 4.3c-1 2.9-1.9 6.1-2.9 9.5-1.8 6.7-3.5 14.2-4.7 22.1s-1.8 15.6-2 22.5c0 3.5-.2 6.8 0 9.9.1 1.6 0 3.1.1 4.5s.2 2.8.3 4.1c.1 2.7.4 5 .6 7.1s.4 3.9.7 5.4c.2 3.4.5 5 .5 5z" fill="#d35027"/></g><g><path d="m173.4 482.8s-.8-.3-2.1-1.1-3.2-2-5.4-3.7-4.6-3.9-7.2-6.5c-2.5-2.6-5.3-5.4-8-8.6-5.5-6.3-9.6-12.9-12-17.9-1.2-2.5-2-4.6-2.5-6-.5-1.5-.7-2.3-.7-2.3s.5.7 1.3 2c.9 1.3 2.1 3.1 3.8 5.2 3.2 4.3 8 9.9 13.4 16.2 2.7 3.1 5.2 6.1 7.5 9 2.2 2.8 4.2 5.3 6 7.4 1.7 2.1 3.2 3.7 4.3 4.7 1 1 1.6 1.6 1.6 1.6z" fill="#d35027"/></g><g><path d="m218.9 420.1s-1.8-2.6-4.1-7c-2.4-4.4-5.2-10.8-7.4-18.2s-3.2-14.3-3.6-19.3-.3-8.1-.3-8.1 1 3 2.5 7.7c1.5 4.8 3.5 11.3 5.6 18.5s3.9 13.8 5.3 18.6c1.2 4.7 2 7.8 2 7.8z" fill="#d35027"/></g><g><g><g><path d="m232.2 489.4s1.6.4 2 1.6c.4 1.1-.5 2.5-.5 2.5s-1.6-.4-2-1.6c-.4-1.1.5-2.5.5-2.5z" fill="#e36b25"/></g></g></g><g><path d="m384.1 448s-.1.9-.5 2.4c-.4 1.6-1 3.8-2.1 6.5-2.2 5.4-6.5 12.3-12.4 18.7-5.9 6.5-11.7 11.6-15.7 15.5-2 2-3.7 3.6-4.8 4.7s-1.7 1.8-1.7 1.8.4-.8 1.2-2.2 2-3.4 3.6-5.7c3.3-4.7 8.4-10.7 14.2-17 5.7-6.3 10.7-12.1 13.7-16.8 1.5-2.3 2.7-4.3 3.4-5.7s1.1-2.2 1.1-2.2z" fill="#d35027"/></g><g><path d="m409.2 364s-.1-1.4-.2-3.8c0-1.2-.1-2.7-.2-4.5-.1-1.7-.2-3.7-.5-5.9-.2-2.2-.4-4.5-.8-7.1-.3-2.5-.8-5.2-1.2-8.1-1-5.6-2.3-11.8-3.9-18.2-1.7-6.4-3.6-12.4-5.4-17.8-1-2.7-1.9-5.3-2.9-7.6-.9-2.4-1.9-4.6-2.7-6.6s-1.7-3.8-2.4-5.4-1.4-2.9-1.9-4c-1.1-2.2-1.7-3.4-1.7-3.4s.8 1.1 2.3 3.1c.7 1 1.6 2.2 2.6 3.7s2.1 3.1 3.2 5 2.3 4 3.5 6.3 2.4 4.8 3.6 7.5c2.3 5.4 4.5 11.5 6.2 18 1.7 6.6 2.7 13 3.3 18.8.2 2.9.5 5.7.5 8.3.1 2.6.1 5 0 7.2 0 2.2-.2 4.2-.3 6-.1 1.7-.3 3.2-.4 4.5-.5 2.6-.7 4-.7 4z" fill="#d35027"/></g><g><path d="m347.4 411.3s-.2-2.9-.4-7.6-.4-11.1-.6-18.2c-.1-7.1-.1-13.5-.1-18.2s.1-7.7.1-7.7 1 2.8 2.1 7.4 2.1 11.1 2.3 18.4c.1 7.2-.7 13.8-1.6 18.4-1 4.7-1.8 7.5-1.8 7.5z" fill="#d35027"/></g><g><path d="m305 402.9s-.2-6-.3-15.7-.2-23-.8-37.6c-.3-7.3-.8-14.3-1.3-20.6-.3-3.1-.6-6.2-1-8.9-.3-2.8-.7-5.4-1.1-7.8-.3-2.4-.8-4.5-1.1-6.4s-.7-3.5-1-4.8c-.6-2.6-.9-4.1-.9-4.1s.5 1.4 1.5 3.9c.5 1.3 1.1 2.8 1.7 4.7.6 1.8 1.3 3.9 1.9 6.3.7 2.3 1.3 4.9 1.9 7.7.7 2.8 1.2 5.8 1.7 9 1 6.4 1.7 13.4 2 20.9.6 14.9-.5 28.3-1.4 37.9-.9 9.5-1.8 15.5-1.8 15.5z" fill="#d35027"/></g></g><g fill="#ae82b3"><path d="m276.3 139.9s20.5 4.6 29.9 15.4 12.4 20.5 10.2 24.8-18.7 20.7-27.2 16.4c-8.6-4.3-11.5-8.5-28.6-7.5s-29 0-29 0 57.6-22.4 44.7-49.1z"/><path d="m295.8 57.7s11.7-.2 23.6 9.9 17.4 19.6 26.3 24.8 22.8 12.2 22.8 12.2-16.6-10.8-30.1-39.3c-13.5-28.4-11.5-17.3-42.6-7.6z"/><path d="m363.3 209.2s17 5.9 40 7.1 41.4-.5 45 3.4c3.6 3.8-52.3 28.5-69.5 36.4s-93.3 20.8-93.3 20.8 44.6-21.4 69.5-33.8c24.8-12.5 19-24.7 8.3-33.9z"/></g></g></g></svg>