<svg id="Layer_1" height="512" viewBox="0 0 400 400" width="512" xmlns="http://www.w3.org/2000/svg" xmlns:xlink="http://www.w3.org/1999/xlink"><linearGradient id="lg1"><stop offset="0" stop-color="#d1bdd3"/><stop offset="1" stop-color="#d4f1e3"/></linearGradient><linearGradient id="SVGID_1_" gradientUnits="userSpaceOnUse" x1="264.447" x2="391.273" xlink:href="#lg1" y1="213.816" y2="213.816"/><linearGradient id="SVGID_2_" gradientTransform="matrix(.967 -.253 .253 .967 139.704 70.339)" gradientUnits="userSpaceOnUse" x1="16.309" x2="63.785" y1="35.62" y2="61.777"><stop offset="0" stop-color="#6aab61"/><stop offset="1" stop-color="#2c5018"/></linearGradient><linearGradient id="lg2"><stop offset="0" stop-color="#ffe33c"/><stop offset=".4603" stop-color="#ffaf00"/><stop offset="1" stop-color="#ff7900"/></linearGradient><linearGradient id="SVGID_3_" gradientTransform="matrix(.967 -.253 .253 .967 139.704 70.339)" gradientUnits="userSpaceOnUse" x1="-58.899" x2="22.642" xlink:href="#lg2" y1="117.485" y2="162.41"/><linearGradient id="SVGID_4_" gradientTransform="matrix(-.967 .253 .253 .967 347.055 16.041)" gradientUnits="userSpaceOnUse" x1="86.484" x2="168.025" xlink:href="#lg2" y1="117.485" y2="162.41"/><linearGradient id="SVGID_5_" gradientTransform="matrix(.967 -.253 .253 .967 139.704 70.339)" gradientUnits="userSpaceOnUse" x1="-10.77" x2="90.735" y1="128.13" y2="184.053"><stop offset="0" stop-color="#ffe33c"/><stop offset=".3545" stop-color="#fc0"/><stop offset=".619" stop-color="#ffaf00"/><stop offset="1" stop-color="#ff7900"/></linearGradient><linearGradient id="lg3"><stop offset="0" stop-color="#1c1c1c"/><stop offset=".5767"/></linearGradient><linearGradient id="SVGID_6_" gradientUnits="userSpaceOnUse" x1="161.087" x2="188.969" xlink:href="#lg3" y1="205.438" y2="205.438"/><linearGradient id="SVGID_7_" gradientUnits="userSpaceOnUse" x1="217.884" x2="245.766" xlink:href="#lg3" y1="190.746" y2="190.746"/><linearGradient id="SVGID_8_" gradientTransform="matrix(.967 -.253 .253 .967 139.704 70.339)" gradientUnits="userSpaceOnUse" x1="3.958" x2="51.5" xlink:href="#lg3" y1="185.565" y2="185.565"/><linearGradient id="SVGID_9_" gradientTransform="matrix(.967 -.253 .253 .967 139.704 70.339)" gradientUnits="userSpaceOnUse" x1="11.299" x2="21.556" xlink:href="#lg1" y1="177.795" y2="177.795"/><linearGradient id="SVGID_10_" gradientTransform="matrix(.967 -.253 .253 .967 139.704 70.339)" gradientUnits="userSpaceOnUse" x1="35.402" x2="46.035" xlink:href="#lg1" y1="173.429" y2="173.429"/><linearGradient id="SVGID_11_" gradientTransform="matrix(.967 -.253 .253 .967 139.704 70.339)" gradientUnits="userSpaceOnUse" x1="-158.691" x2="-43.094" xlink:href="#lg3" y1="96.341" y2="96.341"/><linearGradient id="SVGID_12_" gradientTransform="matrix(-.967 .253 .253 .967 929.811 -136.564)" gradientUnits="userSpaceOnUse" x1="593.276" x2="708.877" xlink:href="#lg3" y1="90.338" y2="90.338"/><linearGradient id="SVGID_13_" gradientUnits="userSpaceOnUse" x1="68.619" x2="195.445" xlink:href="#lg1" y1="303.938" y2="303.938"/><linearGradient id="SVGID_14_" gradientUnits="userSpaceOnUse" x1="80.558" x2="119.944" xlink:href="#lg2" y1="102.11" y2="102.11"/><linearGradient id="SVGID_15_" gradientUnits="userSpaceOnUse" x1="245.856" x2="276.228" xlink:href="#lg2" y1="301.609" y2="301.609"/><linearGradient id="SVGID_16_" gradientUnits="userSpaceOnUse" x1="312.675" x2="332.059" xlink:href="#lg2" y1="274.548" y2="274.548"/><linearGradient id="SVGID_17_" gradientUnits="userSpaceOnUse" x1="62.539" x2="79.632" xlink:href="#lg2" y1="273.62" y2="273.62"/><linearGradient id="SVGID_18_" gradientUnits="userSpaceOnUse" x1="245.856" x2="272.981" xlink:href="#lg2" y1="84.636" y2="84.636"/><g><path d="m293.034 247.694c7.805 3.883 15.358 8.034 24.347 6.777 5.772-.808 22.721-3.524 24.569-10.348 13.285 6.433 28.784 12.654 42.88 3.006 6.125-4.192 7.393-13.407 5.84-20.299-1.955-8.671-8.616-9.807-16.593-10.223 19.159-11.62-16.849-44.686-30.772-19.179-3.973-16.315-15.911-27.366-33.688-23.84-18.825 3.732-25.314 18.327-22.715 36.076-11.143-1.261-23.071 8.607-22.43 20.176.724 13.048 14.449 19.821 26.284 18.612z" fill="url(#SVGID_1_)"/><g><g><path d="m169.712 129.778s-1.208-27.425-8.901-33.997 26.837-31.07 33.927-20.905 10.236 41.855 23.885 48.069c13.647 6.214-45.424 30.229-48.911 6.833z" fill="url(#SVGID_2_)"/><path d="m179.7 133.696s-12.058-14.966-41.604-1.228c-32.715 15.212-49.29 88.206-28.936 130.96 20.354 42.753 77.041 36.019 91.252 9.4 14.209-26.616-15.08-127.449-20.712-139.132z" fill="url(#SVGID_3_)"/><path d="m202.603 127.699s3.174-18.955 35.663-21.461c35.971-2.774 86.194 52.727 89.406 99.97 3.212 47.242-49.501 69.156-74.931 52.918-25.433-16.237-49.322-118.483-50.138-131.427z" fill="url(#SVGID_4_)"/><path d="m281.279 213.94c11.806 45.081-14.049 63.213-49.375 72.465-35.327 9.25-66.749 6.117-78.555-38.963-11.805-45.082.478-115.041 35.804-124.292s80.322 45.709 92.126 90.79z" fill="url(#SVGID_5_)"/></g><path d="m166.115 216.709c-.247 0-.497-.018-.749-.057-2.739-.41-4.63-2.956-4.225-5.696.357-2.414 2.554-14.553 10.795-16.526 7.901-1.887 14.077 6.822 16.106 9.685 1.604 2.264 1.071 5.398-1.192 7.003-2.264 1.604-5.398 1.07-7.002-1.193-3.219-4.539-5.111-5.485-5.611-5.668-1.098.848-2.65 4.822-3.16 8.179-.378 2.486-2.52 4.273-4.962 4.273z" fill="url(#SVGID_6_)"/><path d="m222.912 202.019c-.247 0-.497-.019-.75-.057-2.738-.411-4.63-2.956-4.224-5.696.356-2.414 2.554-14.553 10.795-16.526 7.897-1.89 14.076 6.822 16.105 9.685 1.605 2.263 1.071 5.398-1.191 7.002-2.265 1.605-5.398 1.07-7.003-1.192-3.219-4.54-5.11-5.487-5.61-5.669-1.098.848-2.65 4.823-3.16 8.179-.379 2.486-2.52 4.274-4.962 4.274z" fill="url(#SVGID_7_)"/><path d="m185.439 229.371s22.818 8.415 44.545-15.555c0 0 17.01 44.165-5.366 50.801-22.377 6.639-39.179-35.246-39.179-35.246z" fill="url(#SVGID_8_)"/><path d="m193.388 230.747s9.862 17.506 10.319 15.862c.461-1.645.063-16.7.063-16.7s-7.894 1.052-10.382.838z" fill="url(#SVGID_9_)"/><path d="m216.745 224.794s9.49 12.362 10.042 11.076c.553-1.286-.853-17.957-.853-17.957s-6.834 5.589-9.189 6.881z" fill="url(#SVGID_10_)"/><path d="m126.054 188.645c1.762-1.79-39.802 7.611-57.626-44.501 0 0-60.182 9.587-51.511 83.741 0 0 31.49-27.951 41.068 1.784 0 0 19.381-24.827 35.049-2.952 0 0 12.618-31.624 32.406-22.178 0 0-5.045-10.146.614-15.894z" fill="url(#SVGID_11_)"/><path d="m270.729 144.553c-2.412-.696 38.425-12.873 28.423-67.034 0 0 57.156-21.141 85.942 47.746 0 0-41.148-8.929-34.924 21.684 0 0-29.061-12.141-31.999 14.608 0 0-26.496-21.382-39.114-3.45.001 0-.576-11.318-8.328-13.554z" fill="url(#SVGID_12_)"/></g><path d="m97.205 337.817c7.804 3.882 15.359 8.033 24.346 6.776 5.773-.806 22.723-3.522 24.571-10.347 13.285 6.433 28.784 12.653 42.878 3.005 6.126-4.193 7.394-13.405 5.84-20.3-1.954-8.669-8.615-9.807-16.592-10.221 19.159-11.62-16.85-44.687-30.773-19.181-3.972-16.313-15.911-27.365-33.688-23.84-18.825 3.734-25.314 18.328-22.715 36.076-11.142-1.26-23.072 8.608-22.429 20.177.724 13.048 14.449 19.82 26.285 18.613z" fill="url(#SVGID_13_)"/><path d="m100.251 83.381 6.085 12.331 13.608 1.977-9.846 9.598 2.325 13.553-12.172-6.399-12.171 6.399 2.324-13.553-9.846-9.598 13.608-1.977z" fill="url(#SVGID_14_)"/><path d="m261.041 287.166 4.693 9.509 10.494 1.524-7.593 7.401 1.792 10.452-9.386-4.936-9.385 4.936 1.792-10.452-7.593-7.401 10.494-1.524z" fill="url(#SVGID_15_)"/><path d="m322.367 265.331 2.994 6.068 6.698.974-4.847 4.723 1.143 6.669-5.988-3.148-5.99 3.148 1.144-6.669-4.846-4.723 6.696-.974z" fill="url(#SVGID_16_)"/><path d="m71.086 265.492 2.64 5.352 5.906.857-4.273 4.166 1.008 5.881-5.281-2.776-5.282 2.776 1.008-5.881-4.273-4.166 5.906-.857z" fill="url(#SVGID_17_)"/><path d="m259.419 71.737 4.191 8.492 9.371 1.362-6.781 6.61 1.601 9.334-8.382-4.407-8.384 4.407 1.602-9.334-6.782-6.61 9.373-1.362z" fill="url(#SVGID_18_)"/></g></svg>