<?xml version="1.0" encoding="UTF-8"?>
<svg xmlns="http://www.w3.org/2000/svg" xmlns:xlink="http://www.w3.org/1999/xlink" version="1.1" x="0px" y="0px"
     viewBox="0 0 512 512" style="enable-background:new 0 0 512 512;" xml:space="preserve" width="512" height="512">
<style type="text/css">
	.st0{fill:none;}
	.st1{fill:#E77268;}
	.st2{fill:#CC5A54;}
	.st3{fill:#7A3936;}
	.st4{fill:#542424;}
	.st5{fill:#E6E6E6;}
	.st6{fill:#CCCCCC;}
	.st7{fill:#B3B3B3;}
	.st8{fill:#EF8B86;}
	.st9{fill:#F4B0AE;}
	.st10{fill:#FFB473;}
	.st11{fill:#ED9D62;}
	.st12{fill:#9CC9AC;}
	.st13{fill:#79A588;}
	.st14{fill:#FCEE21;}
	.st15{fill:#F9D0B2;}
</style>
    <g id="white_border_00000152248700877809969460000017433746915686901951_">
	<path class="st0"
          d="M484.65,251.03l-20.42-80.27c-1.17-4.6-4.06-8.47-8.14-10.89c-4.08-2.42-8.86-3.12-13.45-1.95l-22.18,5.64   c-1.11-3.49-3.77-6.17-7.51-7.53c-5.43-1.98-12.76-0.98-18.24,2.49c-0.36,0.23-0.71,0.46-1.04,0.71c-1.58-0.67-3.36-0.8-5.12-0.27   c-3.74,1.13-6.76,5.3-5.27,11.09c0.22,0.84,0.48,1.77,0.77,2.77l-38.48,9.79c0.97-3.44,1.7-6.94,2.18-10.47   c3.1-22.66-3.89-45.42-19.7-64.26c-1.52-12.26-6.98-23.93-11.4-33.37c-1.41-3.02-2.75-5.88-3.81-8.44   c-1.43-3.44-2.08-6.28-2.7-9.02c-1.13-4.94-2.29-10.05-7.74-16.16c-29.65-33.26-68.45-36.15-86.7-32.61   c-29.15,5.65-54.57,19.94-66.34,37.31c-11.97,17.68-15.64,31.35-16.74,38.82c-2.34,2.36-4.39,4.85-6.12,7.44   c-1.36,2.03-3.91,6.96-4.01,7.17c-12.11-1.49-24.18,4.58-30.08,15.71c-3.75,7.07-4.52,15.17-2.17,22.82   c2.35,7.65,7.53,13.93,14.6,17.68c13.71,7.27,30.59,2.78,39-9.9c-0.49,4.09-0.65,8.29-0.48,12.51c-0.35,1.43-0.58,2.86-0.68,4.27   c-0.33,4.28,0.33,8.48,1.89,12.13c-3.53,5.33-6.24,10.06-8.44,14.71c-6.24,13.22-9.21,27.23-8.58,40.52   c0.13,2.76,0.44,5.56,0.93,8.37c-13.59,3.45-30.36,7.7-38.68,9.78c-0.19-1.22-0.39-2.33-0.6-3.34c-1.19-5.93-5.61-8.43-9.37-7.82   c-1.85,0.3-3.41,1.26-4.53,2.65c-0.28-0.04-0.57-0.08-0.86-0.11c-5.92-0.64-12.28,1.57-16.2,5.65c-2.96,3.08-4.27,6.94-3.69,10.88   c0.05,0.36,0.11,0.72,0.17,1.07l-25.09,6.38c-9.49,2.41-15.25,12.1-12.84,21.59l20.42,80.27c1.17,4.6,4.06,8.47,8.14,10.89   c4.08,2.42,8.86,3.11,13.45,1.95l112.82-28.7c6.2,14.04,14.5,27.84,24.73,41.12c-1.32,2.72-1.07,6.01,0.85,8.54   c6.05,8,12.77,15.8,19.96,23.18l3.69,3.75l2.81-3.03c0.85,1.44,1.72,2.97,2.59,4.52c-1.82,1.91-3.1,4.42-1.48,7.39   c0.73,1.34,1.47,2.72,2.21,4.1c7.12,13.29,13.27,24.77,21.74,21.12c7.83-3.37,15.77-7.39,23.66-11.97c3.13,3.09,6.1,6.02,8.68,8.56   c-0.22,0.57-0.37,1.18-0.44,1.8c-0.2,1.88,0.39,3.79,1.61,5.23c1.42,1.68,2.63,3.05,3.6,4.08c1.1,1.16,3.3,3.5,5.95,3.44   l16.93,19.39c0.29,0.62,3.31,8.06,4.22,9.13l0.07,0.09c1.84,2.15,4.38,3.49,6.98,3.69c0.38,0.03,0.77,0.03,1.15-0.01   c1.02-0.09,20.82-11.63,21.39-12.56c1.12-1.8,1.73-4.06,1.69-6.2c-0.05-2.21-1.35-4.34-3.31-5.44c-1.81-1.01-3.95-0.99-5.69,0.05   c-1.29,0.76-1.89,0.74-1.89,0.74c-1.77-0.23-6.56-2.33-6.7-2.39c-0.93-1.25-3.95-5.9-11.93-21.97c2.31-2.87,0.04-6.72-2.16-10.45   c-1.41-2.39-3.09-5.01-3.09-5.01c-0.18-0.25-4.53-3.34-4.53-3.34l-3.01-8.8c10.25-7.97,20.37-16.94,30.14-26.71   c12.49-12.49,25.13-27.26,37.59-43.92c9.28-1.44,19.19-2.99,26.65-4.17c0.33,0.52,0.73,1,1.18,1.42c1.39,1.28,3.28,1.94,5.17,1.82   c2.2-0.14,4.02-0.3,5.41-0.47c1.59-0.19,4.78-0.57,6.3-2.74l25.66-2.08c0.67,0.14,2.07,0.5,3.04,0.76c3.84,1,5.42,1.37,6.81,1.28   l0.12-0.01c2.82-0.21,5.42-1.45,7.12-3.41c0.93-1.07,1.5-2.39,1.66-3.81l2.05-18.52c0.13-1.15-0.01-2.24-0.42-3.27   c-0.78-1.97-2.23-3.8-3.98-5.04c-1.8-1.28-4.29-1.5-6.34-0.57c-1.89,0.86-3.14,2.58-3.35,4.61c-0.15,1.49-0.53,1.96-0.53,1.96   c-1.24,1.29-5.78,3.88-5.91,3.96c-1.56,0-7.08-0.33-24.76-3.47c-0.94-3.56-5.38-4.03-9.69-4.48c-2.76-0.29-5.83-0.5-5.83-0.5   c-0.44-0.01-5.43,0.61-5.43,0.61s4.56-7.71,4.72-7.95c3.14-4.97,8.96-14.18,3.62-22.87l68.92-17.53   C481.3,270.21,487.06,260.52,484.65,251.03z M170.9,94.88c-10.03,8.93-17.51,19.48-22.14,31.14c-0.63-6.93-3.67-13.55-8.81-18.59   c2.44-2.97,5.93-7.49,11.02-14.12c4.19-5.46,8.52-11.1,11.05-14.11c5.18-6.17,11.82-9.59,16.68-11.3   C175.3,76.55,172.68,85.59,170.9,94.88z"/>
</g>
    <g id="Santa_claus">
	<g>
		<g>
			<g>
				<g>
					<g>
						<g>
							<path class="st1"
                                  d="M348.68,314.93l27.08,6.04c0.18,0.04,0.35,0.09,0.52,0.14l25.86,8.2c3.19,1.01,5.45,4.5,5.54,8.53l0,0         c0.1,4.58-2.61,8.49-6.31,9.07c-11.78,1.86-36.48,5.72-49.95,7.78c-3.91,0.6-7.53-2.72-8.18-7.5l-3.02-22.02         C339.38,319.07,343.71,313.82,348.68,314.93z"/>
                            <path class="st2"
                                  d="M378.51,339.11l-1.55-17.69l-26.08-5.82c-4.97-1.11-9.3,4.13-8.46,10.25l3.02,22.02         c0.66,4.78,4.27,8.09,8.18,7.5c13.47-2.06,38.17-5.93,49.95-7.78c3.7-0.58,6.41-4.49,6.31-9.07         C409.88,337.78,378.51,339.11,378.51,339.11z"/>
                            <path class="st3"
                                  d="M400.09,325.17c0.08-0.01,0.16-0.02,0.24-0.02c0,0,10.81,0.75,10.79,1.52l-0.02,0.96         c-0.02,0.98,0.66,1.82,1.62,2c10.97,1.98,28.66,4.95,29.91,3.65c0.26-0.27,5.25-2.77,7.57-5.17c1.36-1.41,1.76-3.56,1.9-4.92         c0.08-0.76,1.3-0.84,1.82-0.47c1.01,0.72,1.81,1.77,2.23,2.81c0.11,0.27,0.13,0.58,0.1,0.87l-0.85,7.64         c-0.01,0.13-0.04,0.25-0.08,0.38l-1.99,6.33l1.31,0.1l-0.45,4.07c-0.04,0.4-0.21,0.78-0.47,1.09         c-0.81,0.93-2.13,1.59-3.7,1.7c-0.03,0-0.05,0-0.08,0.01c-1.36,0.09-8.38-2.13-9.44-2.07l-28.06,2.28         c-1.01,0.08-1.8,0.92-1.82,1.94l0,0c-0.01,0.51-4.69,0.9-7.9,1.11c-1.13,0.07-2.08-0.81-2.11-1.94L400.09,325.17z"/>
                            <path class="st4"
                                  d="M456.01,326.04c-0.28-1.2-0.83,0.44-2,2.64c-1.18,2.2-2.98,4.98-5.78,6.05         c-11.6,4.46-31.34,6.35-31.44,6.32c-0.75-0.25-4.09-11.39-4.14-11.4c-0.52-0.09-0.96-0.39-1.25-0.8         c-0.46,2.16-1.9,15.04-2.42,15.19c-0.98,0.28-7.52,0.61-8.54,0.71l0.1,4.29c0.03,1.13,0.98,2.01,2.11,1.94         c3.21-0.21,7.89-0.6,7.9-1.11c0.02-1.02,0.81-1.85,1.82-1.94l28.06-2.28c1.07-0.06,8.09,2.16,9.44,2.07         c0.03,0,0.05,0,0.08-0.01c1.57-0.11,2.89-0.77,3.7-1.7c0.26-0.31,0.43-0.69,0.47-1.09l0.45-4.07l-1.31-0.1l2.41-7.42         C455.68,333.36,456.57,328.44,456.01,326.04z"/>
						</g>
                        <g>
							<path class="st1"
                                  d="M283.32,394.96l11.24,25.37c0.07,0.16,0.14,0.33,0.2,0.51l8.79,25.67c1.08,3.16-0.37,7.06-3.56,9.53l0,0         c-3.62,2.8-8.38,2.94-11.04,0.32c-8.5-8.37-26.3-25.93-35.96-35.53c-2.8-2.79-2.29-7.67,1.16-11.04l15.91-15.53         C274.47,389.94,281.25,390.31,283.32,394.96z"/>
                            <path class="st2"
                                  d="M293.21,454.9c-1.95-3.21-3.6-6.67-4.62-10.29c-0.89-3.15-1.37-6.5-0.27-9.66         c1.26-3.59,3.84-6.61,5.98-9.7c0.6-0.86,1.27-1.82,1.87-2.84c-0.06-0.17-0.12-0.33-0.19-0.49l-11.24-25.37         c-2.06-4.66-8.85-5.02-13.27-0.71l-15.91,15.53c-3.45,3.37-3.97,8.25-1.16,11.04c9.66,9.6,27.46,27.16,35.96,35.53         c1.58,1.56,3.89,2.13,6.27,1.77C295.33,458.23,294.21,456.54,293.21,454.9z"/>
                            <path class="st3"
                                  d="M305.66,442.39c0.06,0.06,0.11,0.12,0.16,0.19c0,0,5.83,9.14,5.2,9.58l-0.79,0.56         c-0.8,0.56-1.07,1.62-0.64,2.49c4.93,10,13.07,25.98,14.85,26.22c0.37,0.05,5.35,2.58,8.66,3.01         c1.95,0.25,3.91-0.7,5.08-1.39c0.65-0.39,1.45,0.54,1.46,1.19c0.03,1.24-0.34,2.51-0.93,3.46c-0.16,0.25-0.39,0.45-0.64,0.6         l-6.64,3.86c-0.11,0.06-0.23,0.12-0.35,0.16l-6.27,2.17l0.7,1.12l-3.54,2.06c-0.35,0.2-0.75,0.3-1.16,0.27         c-1.23-0.1-2.54-0.77-3.57-1.96c-0.02-0.02-0.03-0.04-0.05-0.06c-0.88-1.04-3.27-8-3.95-8.83l-18.52-21.21         c-0.67-0.77-1.81-0.9-2.64-0.32l0,0c-0.41,0.29-3.51-3.24-5.59-5.69c-0.73-0.86-0.59-2.16,0.3-2.85L305.66,442.39z"/>
                            <path class="st4"
                                  d="M338.21,487.86c0.8-0.94-0.84-0.4-3.32-0.04s-5.77,0.56-8.3-1.05c-10.49-6.67-23.75-21.42-23.78-21.52         c-0.25-0.75,6.72-10.06,6.7-10.1c-0.23-0.48-0.25-1-0.1-1.48c-2.01,0.91-13.22,7.42-13.65,7.09         c-0.81-0.62-4.96-5.69-5.65-6.44l-3.39,2.63c-0.89,0.69-1.03,1.98-0.3,2.85c2.08,2.46,5.17,5.98,5.59,5.69         c0.83-0.59,1.97-0.45,2.64,0.32l18.52,21.21c0.68,0.82,3.07,7.79,3.95,8.83c0.02,0.02,0.03,0.04,0.05,0.06         c1.02,1.19,2.33,1.87,3.57,1.96c0.4,0.03,0.81-0.07,1.16-0.27l3.54-2.06l-0.7-1.12l7.39-2.48         C332.13,491.95,336.62,489.74,338.21,487.86z"/>
						</g>
                        <g>
							<g>
								<g>
									<path class="st1"
                                          d="M369.95,280.04c-25.69-9.06-52.18-41.35-85.97-56.78c-0.22-0.1-0.44-0.2-0.66-0.3           c-30.74-13.84-66.91-6.56-90.27,17.75l-5.17,5.38c-18.42,19.16-26.23,46.22-20.63,72.2c6.88,31.92,26.87,65.14,54.89,92.58           c7.75,7.59,19.08,37.58,25.82,34.85c30.98-12.57,57.17-32.93,77.87-53.58c35.2-35.13,60.15-79.22,62.27-82.67           C395.84,296.91,395.82,289.16,369.95,280.04z"/>
								</g>
                                <g>
									<path class="st2"
                                          d="M370.65,280.63c-25.69-9.06-52.18-41.35-85.97-56.78c-0.22-0.1-0.44-0.2-0.66-0.3           c-30.74-13.84-66.91-6.56-90.27,17.75l-5.17,5.38c-18.42,19.16-26.23,46.22-20.63,72.2c6.88,31.92,26.87,65.14,54.89,92.58           c1.84,1.8,3.87,4.86,6,8.44c3.99-6.5,10.82-11.39,16.83-15.78c4.6-3.37,9.17-6.72,14.08-9.63           c4.83-2.86,9.85-5.4,15.02-7.58c10.21-4.31,20.96-7.16,31.82-9.25c12.4-2.39,24.95-3.94,37.54-4.92           c0.25-0.02,0.51-0.04,0.76-0.06c25.27-29.96,42.18-59.8,43.91-62.61C396.53,297.49,396.52,289.75,370.65,280.63z"/>
								</g>
                                <g>
									<path class="st5"
                                          d="M377.69,280.34c-0.87-0.28-16.13,23.27-36.43,49.42c-17.88-10.38-34.55-23.37-46.86-40.05           c-4.03-5.46-7.56-11.27-10.51-17.38c-0.66-1.37-2.63-1.71-3.86-0.98c-1.4,0.83-1.64,2.48-0.98,3.86           c10.86,22.52,29.46,40.19,50.16,53.73c2.8,1.84,5.66,3.59,8.55,5.29c-1.86,2.35-3.74,4.71-5.66,7.06           c-16.97-11.89-33.22-24.97-45.18-42.03c-4.19-5.98-7.84-12.38-10.59-19.16c-0.57-1.41-1.9-2.38-3.47-1.94           c-1.34,0.38-2.51,2.06-1.94,3.47c10.64,26.25,31.94,45.59,54.49,61.77c1.04,0.74,2.08,1.47,3.13,2.21           c-5.92,7.1-12.06,14.08-18.26,20.53c-45.93,47.78-82.6,62.13-80.66,65.69c6.17,11.3,12.76,25.1,17.58,23.02           c32.26-13.89,59.82-35.68,81.73-57.6c37.28-37.28,64.27-83.51,66.56-87.12C403.82,296.95,404.04,288.97,377.69,280.34z"/>
								</g>
                                <g>
									<g>
										<path class="st6"
                                              d="M377.69,280.34c-0.87-0.28-16.13,23.27-36.43,49.42c-17.88-10.38-34.55-23.37-46.86-40.05            c-4.03-5.46-7.56-11.27-10.51-17.38c-0.66-1.37-2.63-1.71-3.86-0.98c-1.4,0.83-1.64,2.48-0.98,3.86            c10.86,22.52,29.46,40.19,50.16,53.73c2.8,1.84,5.66,3.59,8.55,5.29c-1.86,2.35-3.74,4.71-5.66,7.06            c-16.97-11.89-33.22-24.97-45.18-42.03c-4.19-5.98-7.84-12.38-10.59-19.16c-0.57-1.41-1.9-2.38-3.47-1.94            c-1.34,0.38-2.51,2.06-1.94,3.47c10.64,26.25,31.94,45.59,54.49,61.77c1.04,0.74,2.08,1.47,3.13,2.21            c-5.92,7.1-12.06,14.08-18.26,20.53c-4.22,4.39-8.36,8.5-12.41,12.35c3.08-0.71,6.16-1.37,9.24-2.01            c9.16-1.9,18.34-3.62,27.44-5.8c7.96-1.9,15.92-3.96,23.67-6.6c21.48-27.18,35.64-51.37,37.27-53.94            C403.82,296.95,404.04,288.97,377.69,280.34z"/>
									</g>
								</g>
							</g>
                            <g>
								<g>
									<path class="st4"
                                          d="M221.21,418.09c23.77-20.4,49.59-44.81,75.68-71.95c23.78-24.74,45.28-49.15,63.62-71.87           c1.17-1.45,0.88-3.59-0.65-4.66c-6.8-4.8-13.76-10.34-20.98-16.04c-1.4-1.11-3.43-0.87-4.54,0.53           c-17.46,22.06-38.2,45.84-61.29,69.86c-24.38,25.36-48.57,48.09-70.92,67.03c-0.08,0.07-0.16,0.14-0.23,0.22l0,0           c-1.1,1.15-1.22,2.93-0.26,4.19c5.94,7.85,12.48,15.45,19.55,22.71L221.21,418.09z"/>
								</g>
                                <g>
									<g>
										<g>
											<g>
												<path class="st7"
                                                      d="M316.11,283.98c-2.8-1.39-6.2-0.97-8.38,1.3l-22.48,23.39c-2.72,2.83-2.51,7.45,0.47,10.31              l14.23,13.68c2.98,2.87,7.6,2.89,10.33,0.06l22.48-23.39c2.18-2.27,2.47-5.68,0.97-8.43L316.11,283.98z M322.11,298.96              c2.98,2.87,3.19,7.48,0.47,10.31l-12.77,13.28c-2.72,2.83-7.34,2.8-10.33-0.06l-3.59-3.45              c-2.98-2.87-3.19-7.48-0.47-10.31l12.77-13.28c2.72-2.83,7.34-2.8,10.33,0.06L322.11,298.96z"/>
											</g>
										</g>
									</g>
								</g>
							</g>
						</g>
					</g>
                    <g>
						<g>
							<g>
								<g>
									<g>
										<path class="st1"
                                              d="M323.65,109.36c-1.6-15.64-10.43-30.58-14.99-41.57c-4.27-10.29-2.24-15.57-9.55-23.77            c-30.63-34.35-69.42-33.47-82.02-31.03c-26.97,5.22-51.94,18.65-63.15,35.2c-10.73,15.83-15.17,29.41-16.14,38.37            c-2.51,2.37-4.78,4.99-6.7,7.85c-1.26,1.89-2.38,3.88-3.37,5.93c-0.81,1.69-1.4,3.64-0.6,5.46            c0.98,2.25,3.63,3.05,5.8,2.12c1.96-0.84,19.14-24.34,25.69-32.14c11.37-13.54,29.43-16.05,28.34-13.71            c-5.77,12.5-10.34,27.21-12.38,44.17c-0.45,3.76,4.62,6.84,8.17,6.92l134.96,3.07            C321.22,116.3,324.03,113.08,323.65,109.36z"/>
                                        <path class="st2"
                                              d="M323.57,109.52c-0.21-2.02-0.54-4.03-0.96-6.02c-0.21-0.33-0.41-0.68-0.63-1            c-4.71-6.95-11.35-12.53-18.35-17.07c-6.95-4.52-14.49-8.28-22.28-11.11c-8.98-3.26-18.3-5.98-27.88-6.59            c-4.79-0.31-9.51,0.09-14.23,0.94c-4.81,0.87-9.68,1.38-14.55,1.74c-1.88,0.14-3.77,0.16-5.63,0.29            c0.19-0.51-0.55-9.33-0.17-10.86c0.39-1.61,1.08-3.12,1.94-4.53c1.86-2.04,3.99-3.84,6.38-5.32            c4.1-2.52,10.65-3.24,11.83-8.77c1.39-6.53-6.64-8.19-11.47-8.34c-11-0.33-19.93,6.64-29.35,11.19            c-2.43,1.17-4.95,2.2-7.57,2.87c-2.66,0.69-5.42,0.88-8.13,1.25c-5.56,0.75-10.69,2.49-15.43,5.53            c-10.34,6.63-16.73,17.32-22.44,27.92c-1.22,0.49-2.52,0.79-3.83,0.78c-0.93-0.01-1.65-0.11-2.31-0.57            c-0.37,1.75-0.64,3.38-0.8,4.88c-0.58,0.55-1.14,1.11-1.69,1.68c0.21,0.11,0.43,0.22,0.63,0.37            c0.83,0.6,1.49,1.56,1.76,2.55c0.54,1.98-0.02,4.21-1.78,5.4c-1.03,0.69-2.25,0.86-3.46,0.76            c-0.26-0.02-0.52-0.06-0.78-0.12c-0.25-0.06-0.55-0.12-0.78-0.23c-0.36-0.18-0.61-0.47-0.82-0.8            c-0.15-0.23-0.28-0.47-0.41-0.72c-1,1.58-1.92,3.21-2.73,4.9c-0.81,1.69-1.4,3.64-0.6,5.46c0.98,2.25,3.63,3.05,5.8,2.12            c1.96-0.84,19.14-24.34,25.69-32.14c11.37-13.54,29.43-16.05,28.34-13.71c-5.77,12.5-10.34,27.21-12.38,44.17            c-0.45,3.76,4.62,6.84,8.17,6.92l134.96,3.07C321.14,116.47,323.95,113.24,323.57,109.52z"/>
									</g>
                                    <g>
										<g>
											
												<ellipse
                                                        transform="matrix(0.8704 -0.4924 0.4924 0.8704 -47.8284 75.4215)"
                                                        class="st5" cx="119.32" cy="128.54" rx="24.96" ry="24.96"/>
                                            <path class="st6"
                                                  d="M115.65,140.11c-11.41-6.05-16.2-19.7-11.44-31.42c-2.79,2.12-5.18,4.86-6.93,8.17             c-6.46,12.18-1.82,27.28,10.35,33.74c12.18,6.46,27.28,1.82,33.74-10.35c0.4-0.76,0.77-1.54,1.08-2.32             C134.95,143.62,124.52,144.81,115.65,140.11z"/>
										</g>
									</g>
								</g>
                                <g>
									<path class="st8"
                                          d="M171.39,42.67c-0.87-1.41-2.5-1.56-3.87-0.91c-6.48,3.07-11.86,8.17-15.47,14.35           c-0.74,1.27-0.17,3.17,1.17,3.8c1.43,0.68,3.01,0.2,3.8-1.17c1.54-2.64,3.36-4.9,5.78-7.12c1.14-1.05,2.04-1.75,3.41-2.66           c1.36-0.91,2.79-1.71,4.27-2.41C171.85,45.89,172.12,43.86,171.39,42.67z"/>
                                    <path class="st8"
                                          d="M283.78,66.08c-9.69-4.14-20.09-6.48-30.58-6.87c0.94-0.5,1.88-0.98,2.81-1.51           c1.86-1.05,1.69-3.93-0.16-4.88l-4.94-2.54c-0.31-0.16-2.7-1.54-4.03-2.19c0.31-0.34,0.65-0.67,0.97-0.99           c1.11-1.12,1.97-2.39,2.53-3.86c2.45-6.4-0.78-12.98-6.15-16.68c-5.33-3.67-12.41-4.61-18.74-4.18           c-6.1,0.41-12.05,2.1-17.75,4.23c-7.2,2.69-14.19,5.96-21.23,9.04c-1.39,0.61-2.35,1.95-1.86,3.51           c0.41,1.32,2.11,2.48,3.51,1.86c6.16-2.69,12.28-5.49,18.52-7.99c5.42-2.17,11.07-4.14,16.89-4.84           c5.64-0.67,11.8-0.34,16.82,2.57c3.98,2.3,7.44,8.18,3.61,12.21c-1.08,1.14-2.27,2.2-2.88,3.69           c-0.73,1.78-0.43,3.82,1.01,5.17c1.39,1.3,3.47,2.04,5.14,2.9c0.39,0.2,0.78,0.4,1.17,0.6c-3.71,1.85-7.52,3.48-11.45,4.85           c-1.32,0.46-2.19,1.76-1.92,3.16c0.23,1.25,1.46,2.55,2.87,2.34c14.57-2.22,29.63-0.45,43.2,5.35           c1.4,0.6,3.05,0.26,3.8-1.17C285.61,68.62,285.19,66.68,283.78,66.08z"/>
                                    <path class="st9"
                                          d="M244.19,26.14c-5.33-3.67-12.41-4.61-18.74-4.18c-4.54,0.31-9.01,1.33-13.34,2.71           c-0.53,0.17-0.87,0.69-0.82,1.24l0.29,3.3c0.07,0.77,0.83,1.26,1.56,1.02c3.39-1.12,6.86-2.02,10.39-2.44           c5.64-0.67,11.8-0.34,16.82,2.57c2.22,1.28,4.27,3.68,4.99,6.24c0.16,0.55,0.67,0.92,1.24,0.87l3.23-0.28           c0.71-0.06,1.21-0.74,1.07-1.44C250.08,31.91,247.56,28.45,244.19,26.14z"/>
                                    <path class="st9"
                                          d="M250.87,49.86c-0.15-0.07-0.75-0.42-1.49-0.83c-0.21-0.12-0.44-0.17-0.68-0.15l-5.86,0.51           c-0.99,0.09-1.48,1.32-0.76,2.01c0.01,0.01,0.01,0.01,0.02,0.02c0.85,0.8,1.95,1.38,3.07,1.91           c0.19,0.09,0.4,0.13,0.62,0.11l6.13-0.54c0.44-2.26,0-0.02,0.45-2.28L250.87,49.86z"/>
                                    <path class="st9"
                                          d="M270.8,61.31c-3.57-0.89-7.19-1.55-10.84-1.98c-0.75-0.09-1.38,0.54-1.32,1.29l0.29,3.28           c0.05,0.56,0.48,1,1.04,1.07c3.55,0.44,7.07,1.12,10.54,2.03c0.8,0.21,1.57-0.42,1.49-1.24l-0.3-3.38           C271.66,61.86,271.3,61.44,270.8,61.31z"/>
								</g>
							</g>
                            <g>
								<path class="st5"
                                      d="M346.1,239.22c5.2-23.21-0.43-41.11-6.67-52.75c1.79-4.86,3.08-9.94,3.81-15.22          c6.26-45.72-32.01-88.72-85.48-96.04c-14.16-1.94-27.97-1.18-40.74,1.83c0.04-0.06,0.08-0.13,0.12-0.19          c-35.59,8.28-63.14,34.06-67.75,67.77c-1.36,9.91-0.61,19.69,1.91,29.01c-3.8,5.49-7.35,11.17-10.21,17.21          c-5.62,11.9-8.73,24.96-8.11,38.15c0.48,10.04,3.36,19.84,8.15,28.66c4.81,8.85,11.43,16.6,18.78,23.44          c15.35,14.29,34.25,24.17,52.21,34.78c15.37,9.08,21.99,22.57,23.73,33.73c0.42,2.69-1.48,21.87,2.71,19.51          c11.66-6.56,31.89-19.37,51.92-38.24C314.09,308.65,337.42,278,346.1,239.22z"/>
                                <g>
									<path class="st0"
                                          d="M257.43,75.24c-14.16-1.94-27.97-1.18-40.74,1.83c0.04-0.06,0.08-0.13,0.12-0.19           c-6.3,1.47-12.35,3.48-18.06,6c-1.44,0.64-2.3,2.14-2.17,3.71v0c0.22,2.47,2.74,4.02,5.06,3.14           c4.2-1.58,8.55-2.91,13.04-3.96c-0.04,0.06-0.08,0.13-0.12,0.19c12.77-3.01,26.57-3.77,40.74-1.83           c19.44,2.66,36.86,10.04,50.87,20.55c2.57,1.93,6.21-0.1,5.93-3.3l-0.1-1.19c-0.09-1.01-0.58-1.95-1.37-2.58           C296.25,86.14,277.97,78.05,257.43,75.24z"/>
								</g>
                                <path class="st6"
                                      d="M343.24,171.25c0.58-4.26,0.78-8.49,0.61-12.68c-1.88,1.98-4.36,3.32-7.19,3.4          c-3.52,0.1-6.64-1.88-9.04-4.3c-6.12-6.17-9.64-14.75-13.26-22.5c-1.41-3.03-2.76-6.21-4.67-8.97          c-2.85-4.1-6.2-7.85-9.85-11.25c-7.56-7.05-16.49-12.54-26.09-16.32c-19.13-7.53-41.5-8.11-60.25,0.89          c-4.18,2.01-8.16,4.41-11.66,7.46c-3.51,3.07-6.92,6.34-10.89,8.81c-3.57,2.21-8.13,3.96-12.23,2.1          c-2.71-1.22-4.31-3.86-4.87-6.69c-0.87-4.35-0.05-9.03,1.49-13.39c-13.93,12.15-23.41,28.28-25.95,46.82          c-1.36,9.91-0.61,19.69,1.91,29.01c-3.07,4.44-5.98,9.01-8.49,13.8c0.01,0.83,0.04,1.66,0.11,2.5          c0.5,6.07,2.56,12.07,6.28,16.93c3.57,4.66,8.58,7.71,14.27,8.82c0.16-0.86,0.43-1.7,0.77-2.54          c0.42-1.04,1.32-2.35,1.28-3.51c-0.03-1.1,1.07-2.02,2.14-1.49c5.67,2.85,8.1,9.73,9.44,15.51          c1.46,6.31,2.01,12.82,1.96,19.28c-0.02,2.9-0.14,5.8-0.6,8.66c-0.48,3.01-1.11,6.26-2.69,8.93          c-1.06,1.79-2.57,3.22-4.67,3.61c-1.95,0.36-3.96-0.26-5.74-1.03c-4.47-1.93-8.48-4.86-12.71-7.29          c-0.59,4.27-1.1,10.1-3.49,13.8c3.29,4.1,6.92,7.93,10.77,11.51c15.35,14.29,34.25,24.17,52.21,34.78          c15.37,9.08,21.99,22.57,23.73,33.73c0.32,2.03-0.68,13.38,0.59,17.88c2.17-6.42,4.1-12.93,6.7-19.19          c1.57-3.77,4.86-12.28,10.41-10.21c0.6,0.22,0.97,1.03,0.83,1.63c-0.31,1.41-0.45,2.85-0.57,4.28          c2.36-2.38,4.75-4.72,7.22-6.99c12.06-11.1,27.15-21.86,44.22-21.32c18.03-20.34,33.99-45.87,40.84-76.47          c5.2-23.21-0.43-41.11-6.67-52.75C341.22,181.62,342.51,176.54,343.24,171.25z"/>
							</g>
                            <g>
								<path class="st10"
                                      d="M249.36,106.1c-41.83-3.25-77.95,22.41-80.66,57.31c-2.71,34.9,33.51,30.57,75.34,33.82          s73.44,12.86,76.15-22.04C322.91,140.29,291.19,109.36,249.36,106.1z"/>
                                <g>
									<g>
										<g>
											<g>
												<g>
													<g>
														<path class="st11"
                                                              d="M249.36,106.1c-41.83-3.25-77.95,22.41-80.66,57.31c-2.43,31.32,26.48,31.04,62.68,33.01                c4.14,0.22,3.34,9.22,11.17,9.87c7.33,0.61,9.45-8.37,13.27-7.99c35.87,3.62,61.92,8.43,64.38-23.11                C322.91,140.29,291.19,109.36,249.36,106.1z M300.65,175.24l-111.72-8.68c-10.52,7.42-17.99,11.44-16.72-4.91                c2.53-32.59,36.87-56.51,76.7-53.41c39.83,3.1,70.06,32.03,67.53,64.62C315.11,189.93,311.02,184.9,300.65,175.24z"/>
													</g>
												</g>
                                                <g>
													<path class="st11"
                                                          d="M161.94,146.45c-6.92-0.54-13.12,6.55-13.84,15.82s4.31,17.23,11.23,17.77               c2.1,0.16,4.12-0.38,5.96-1.47l2.31-29.75C165.96,147.47,164.04,146.61,161.94,146.45z"/>
												</g>
                                                <g>
													<path class="st11"
                                                          d="M340.36,177.33c0.72-9.28-4.14-17.22-10.86-17.74c-2.04-0.16-4.01,0.39-5.79,1.48l-2.31,29.75               c1.59,1.35,3.45,2.2,5.49,2.36C333.61,193.7,339.64,186.6,340.36,177.33z"/>
												</g>
											</g>
										</g>
                                        <path class="st3"
                                              d="M234.36,192.75c1.89,2.66,2.91,7.84,8.78,8.32c4.63,0.38,7.19-3.06,9.4-5.55            c0.33-0.37-7.84-8.99-7.84-8.99S233.73,191.87,234.36,192.75z"/>
									</g>
								</g>
							</g>
						</g>
                        <g>
							<g>
								<g>
									<g>
										<path class="st12"
                                              d="M471.01,267.56L58.02,372.6c-6.83,1.74-13.78-2.39-15.51-9.22l-20.42-80.27            c-1.74-6.83,2.39-13.78,9.22-15.51L444.3,162.56c6.83-1.74,13.78,2.39,15.51,9.22l20.42,80.27            C481.97,258.88,477.84,265.83,471.01,267.56z"/>
                                        <path class="st13"
                                              d="M31.5,273.75c4.82,2,9.3,5.04,13.41,8.23c5.36,4.17,11.12,8.85,18.35,7.93            c9.41-1.2,16.91-8.08,23.21-14.58c6.67-6.89,13.24-13.29,21.68-18.02c8.87-4.96,18.45-8.38,27.97-11.85            c20.8-7.59,42.12-13.81,63.85-18.13c22.05-4.38,44.52-6.75,67.01-6.46c10.65,0.14,21.2,0.48,31.75-1.33            c9.93-1.7,20.64-5.01,28.61-11.39c6.33-5.06,10.95-11.81,16.74-17.41c1.45-1.4,2.99-2.69,4.61-3.86L31.32,267.6            c-2.91,0.74-5.32,2.43-7.01,4.65C26.71,272.04,29.39,272.87,31.5,273.75z"/>
                                        <path class="st13"
                                              d="M409.51,197.27c7.04,0.99,13.42-3.25,16.6-9.27c2.47-4.67,3.68-9.88,5.3-14.88            c0.9-2.77,1.92-5.64,3.44-8.16l-57.34,14.58c3.97,0.78,7.78,2.33,11.31,4.57C395.66,188.46,401.02,196.09,409.51,197.27z"/>
									</g>
                                    <g>
										<g>
											<path class="st3"
                                                  d="M81.58,254.81c1.78-0.44,4.5-1.14,4.48-1.26c-0.03-0.18-0.55-4.74-1.31-8.52             c-1.16-5.75-6.4-4.61-5.83,0.06c-1.47-0.74-3.01-1.19-4.57-1.35c-7.11-0.77-15.4,4.13-14.4,10.83             c0.76,5.12,2.29,9.01,4.21,11.79c5.75,8.35,14.96,6.72,17.12-1.72C81.93,262.12,82.1,258.9,81.58,254.81z"/>
                                            <path class="st4"
                                                  d="M86.2,253.68c-0.03-0.18-0.69-4.87-1.45-8.65c-1.16-5.75-6.4-4.61-5.83,0.06             c-1.47-0.74-3.01-1.19-4.57-1.35c-0.14-0.01-0.27-0.02-0.41-0.03c0.91,1.01,1.58,2.21,2.06,3.47             c1.68,4.46,1.43,9.7,0.5,14.29c-0.58,2.85-1.7,5.64-3.34,8.1c-0.49,0.74-1.04,1.46-1.63,2.15             c4.3,0.82,8.4-1.79,9.76-7.07c0.64-2.51,0.81-5.73,0.29-9.82C82.35,254.62,86.21,253.75,86.2,253.68z"/>
										</g>
									</g>
								</g>
                                <g>
									<g>
										<path class="st3"
                                              d="M395.78,175.4c-1.88,0.48-4.74,1.18-4.78,1.07c-0.05-0.17-1.53-4.29-2.45-7.86            c-1.39-5.44,4.06-6.97,5.54-2.73c1.07-1.33,2.34-2.45,3.73-3.33c6.39-4.05,16.35-3.84,18.3,2.32            c1.49,4.71,1.72,8.75,1.11,12.03c-1.83,9.84-11.24,12.85-16.94,6.71C398.61,181.78,397.05,179.12,395.78,175.4z"/>
                                        <path class="st4"
                                              d="M391,176.46c-0.05-0.17-1.53-4.29-2.45-7.86c-1.39-5.44,4.06-6.97,5.54-2.73            c1.07-1.33,2.34-2.45,3.73-3.33c0.12-0.08,0.25-0.15,0.37-0.22c-0.42,1.29-0.54,2.63-0.45,3.93            c0.34,4.59,2.84,8.93,5.7,12.38c1.78,2.15,4.04,3.98,6.66,5.29c0.79,0.39,1.62,0.74,2.47,1.05            c-3.71,2.75-8.72,2.49-12.28-1.35c-1.69-1.83-3.25-4.48-4.52-8.21C393.9,175.88,391.03,176.58,391,176.46z"/>
									</g>
								</g>
							</g>
                            <g>
								<path class="st14"
                                      d="M152.4,267.9c-6.42-5.31-11.19,1.39-14.32,8.92c-1.27,3.05-5.11,4.01-7.65,1.9          c-6.39-5.33-13.99-9.29-17.21-1.43c-2.08,5.07,0.99,11.7,2.72,16.41c2.55,6.91,5.22,13.77,7.83,20.65          c1.5,3.96,7.99,2.39,6.47-1.62c-3.15-8.29-6.66-16.54-9.35-24.99c-0.32-1-2.35-5.89-1.63-6.78          c1.56-1.92,4.64,1.19,5.58,1.95c2.35,1.89,4.56,3.92,6.69,6.04c1.21,1.2,2.96,1.67,4.61,1.26l2.27-0.57          c1.64-0.41,2.96-1.64,3.47-3.26c0.85-2.73,1.81-5.42,2.93-8.05c0.47-1.11,1.72-5.31,4-4.35c1.05,0.44,1.57,5.72,1.76,6.75          c1.61,8.72,2.4,17.65,3.53,26.44c0.55,4.26,7.01,2.59,6.47-1.62c-0.94-7.3-1.82-14.61-2.83-21.9          C157.04,278.69,156.62,271.39,152.4,267.9z"/>
                                <path class="st14"
                                      d="M182.77,288.28c4.16-7.66-6.63-13.97-13.07-10.85c-6.92,3.35-9.06,13.36-5.75,19.88          c3.35,6.59,12.26,9.17,18.41,4.89c3.49-2.43,0.25-8.27-3.28-5.81c-3.24,2.25-6.48,1.22-8.36-1.21          C175.39,295.21,180.74,292.02,182.77,288.28z M170.24,288.73c-0.23-0.34-0.49-0.6-0.77-0.82c0.29-1.04,0.73-2.05,1.39-2.91          c1.01-1.32,3.98-2.86,5.26-0.96C178.22,287.13,170.37,288.93,170.24,288.73z"/>
                                <path class="st14"
                                      d="M197.86,274.49c-1.81,2.08-3.26,4.33-4.35,6.7c-0.47-1.53-0.95-3.05-1.42-4.58          c-1.27-4.08-7.74-2.49-6.47,1.62c1.93,6.23,3.87,12.45,5.8,18.68c1.29,4.14,7.13,2.59,6.47-1.62          c-0.9-5.79,0.79-11.62,4.63-16.04C205.32,276.04,200.69,271.24,197.86,274.49z"/>
                                <path class="st14"
                                      d="M243.56,266.85c-0.81,1.58-1.58,3.18-2.35,4.78c-1.18,1.68-2.77,2.73-4.73,1          c-1.38-1.22-2.04-3.98-3.04-5.55c-2.3-3.6-8.13-0.35-5.81,3.28c2.59,4.05,4.27,9.37,9.52,9.94c-2,4.52-3.89,9.09-5.66,13.71          c-1.54,4.02,4.88,5.85,6.4,1.87c2.81-7.36,5.97-14.56,9.42-21.64c0.91-1.52,1.65-3.17,2.29-4.74          C251.04,266.01,245.27,263.49,243.56,266.85z"/>
                                <path class="st14"
                                      d="M219.74,269.43c-1.81,2.08-3.26,4.33-4.35,6.7c-0.47-1.53-0.95-3.05-1.42-4.58          c-1.27-4.08-7.74-2.49-6.47,1.62c1.93,6.23,3.87,12.45,5.8,18.68c1.29,4.14,7.13,2.59,6.47-1.62          c-0.9-5.79,0.79-11.62,4.63-16.04C227.2,270.98,222.57,266.18,219.74,269.43z"/>
                                <path class="st14"
                                      d="M314.15,250.61l-11.49,2.88c-4.16,1.04-2.55,7.51,1.62,6.47l11.49-2.88          C319.94,256.04,318.32,249.57,314.15,250.61z"/>
                                <path class="st14"
                                      d="M301.87,266.92c-5.07-3.04-10.07-6.18-15.02-9.41c2.9-5.45,5.71-10.94,8.41-16.5          c1.91-3.95-4.36-6.31-6.25-2.41c-2.48,5.13-5.08,10.18-7.75,15.2c-4.72-3.17-9.4-6.41-14-9.76          c-3.51-2.55-7.92,2.49-4.38,5.07c5,3.63,10.07,7.15,15.19,10.59c-2.85,5.18-5.77,10.31-8.82,15.38          c-2.24,3.74,3.2,7.71,5.45,3.95c3.09-5.15,6.06-10.37,8.96-15.64c5.03,3.28,10.11,6.49,15.27,9.57          C302.68,275.23,305.61,269.16,301.87,266.92z"/>
                                <path class="st14"
                                      d="M353.36,236.48c-0.61-2.15-2.9-3.08-4.88-2.09c-2.52,1.27-4.14,3.12-5.24,5.31          c-2.37-2.78-5.41-4.15-8.73-0.22c-1.75,2.07-2.95,4.81-3.82,7.79l-2.07-6.92c-1.23-4.1-7.7-2.5-6.47,1.62l6.31,21.06          c1.1,3.67,6.21,3.01,6.57-0.73c0.43-4.53,1.25-8.96,2.58-13.32c0.31-1.02,0.65-2.04,1.01-3.05c0.34-0.38,0.59-0.7,0.75-0.98          c0.87,1.5,1.68,3.99,2.04,4.81c1.49,3.38,5.82,1.27,6.24-1.56c0.21-1.43,0.45-2.87,0.92-4.17          c1.24,4.37,2.48,8.74,3.72,13.11c1.17,4.12,7.64,2.52,6.47-1.62C356.96,249.17,355.16,242.82,353.36,236.48z"/>
                                <path class="st14"
                                      d="M384.81,243.86c-0.2-0.48-0.46-0.85-0.76-1.13c-0.9-1.47-2.07-2.64-3.4-3.5          c-0.94-3.88-2.76-8.43-5.61-10.72c-3.35-2.7-8.12-2.39-11.68-0.22c-4.04,2.46-5.9,7.17-7.32,11.44          c-1.36,4.08,5.05,5.93,6.4,1.87c0.94-2.84,2.18-7.15,5.44-8.14c2.66-0.81,4.26,1.48,5.26,4.04          c-3.47,0.41-6.75,2.44-8.51,6.17c-1.66,3.55-1.68,8.59,1.64,11.18c3.39,2.65,8.25,1.76,11.27-1.07          c1.46-1.38,2.44-3.03,3.05-4.82c0.96,0.34,2.11,0.25,2.98-0.15c0.04-0.02,0.08-0.04,0.12-0.05c1.78-0.81,1.9-3,1.26-4.54          C384.91,244.1,384.86,243.98,384.81,243.86z M373.94,247.69c-1.18,1.77-3.88,3.37-3.63,0.16c0.24-3.08,2.32-4.07,4.43-3.69          C374.8,245.4,374.64,246.64,373.94,247.69z"/>
                                <path class="st14"
                                      d="M401.54,237.58c-0.88-2.28-2.59-4.13-4.84-5.1c-1.32-0.57-2.69-0.42-3.99-0.87          c-1.06,0.23-1.6-0.17-1.63-1.19c-0.18-1.1,0.16-1.97,1.02-2.6c3.84,1.86,7.3-3.85,3.43-5.72          c-6.66-3.23-12.01,3.22-10.99,9.79c0.48,3.13,2.48,5.28,5.54,6.03c1.56,0.39,4.08-0.03,5.01,1.57          c1.52,2.61-1.87,4.42-3.74,5.5c-3.71,2.14-0.45,7.96,3.28,5.81C399.51,247.99,403.87,243.63,401.54,237.58z"/>
							</g>
						</g>
					</g>
				</g>
                <g>
					<path class="st3"
                          d="M215.8,133.23c-5.42-0.42-10.43,4.68-12.45,12.01c-0.42,1.53,0.23,3.14,1.3,3.22l0,0       c0.73,0.06,1.41-0.65,1.7-1.69c1.48-5.34,5.12-9.05,9.07-8.74c3.95,0.31,6.98,4.54,7.61,10.04c0.12,1.07,0.68,1.87,1.42,1.93       l0,0c1.08,0.08,1.96-1.41,1.78-2.99C225.39,139.46,221.23,133.65,215.8,133.23z"/>
                    <path class="st3"
                          d="M287.48,151.47c-0.8-7.39-4.76-13.08-9.93-13.48c-5.17-0.4-9.96,4.6-11.89,11.78       c-0.4,1.5,0.21,3.07,1.24,3.15l0,0c0.7,0.05,1.34-0.64,1.62-1.66c1.42-5.22,4.9-8.86,8.67-8.57c3.77,0.29,6.65,4.43,7.24,9.81       c0.12,1.05,0.65,1.83,1.35,1.89C286.8,154.48,287.65,153.01,287.48,151.47z"/>
				</g>
                <g>
					<g>
						<path class="st5"
                              d="M331.74,197.36c-3.95,0.12-8.89-0.2-13.02-2.43c-18.59-10.06-22.63-44.24-71.79-36.42        c-0.39,0.06-0.8,0.03-1.17-0.09c-47.37-15.32-56.64,17.83-76.56,24.89c-4.43,1.57-9.36,1.12-13.24,0.39        c0.14,0.78,10.27,21.32,49.84,22.38c14.74,0.4,28.3-4.63,35.94-10.62c1.06-0.83,2.53-0.71,3.44,0.27        c6.62,7.11,19.45,12.94,33.87,16.05C318.85,220.36,331.89,197.42,331.74,197.36z"/>
                        <path class="st6"
                              d="M224.01,185.36c13.11,5.21,30.57,4.44,42.64-10.55c4.12-5.12,1.17-12.25-1.98-17.6        c-5.18-0.33-11.04-0.05-17.74,1.02c-0.39,0.06-0.8,0.03-1.17-0.09c-8.97-2.9-16.57-4.06-23.14-3.99        C197.88,158.41,208.76,179.3,224.01,185.36z"/>
                        <path class="st5"
                              d="M213.9,129.55c12.24,0.95,21.28,12.9,22.2,1.07c0.92-11.83-8.25-22.19-20.49-23.14        c-12.24-0.95-22.9,7.87-23.82,19.69S201.66,128.6,213.9,129.55z"/>
                        <path class="st5"
                              d="M281.55,135.4c12.24,0.95,21.28,12.9,22.2,1.07c0.92-11.83-8.25-22.19-20.49-23.14        c-12.24-0.95-22.9,7.87-23.82,19.69C258.52,144.86,269.31,134.45,281.55,135.4z"/>
                        <g>
							<path class="st0"
                                  d="M207.77,202.29c-25.21-0.68-38.45-9.25-44.79-15.59c1.95,0.24,4.34,0.23,7.28-0.25         c13.43-2.19,19.29-18.1,35.46-24.06c0.3-0.11,1.39-2.25,3.14-4.04c1.73-1.77,4.14-3.19,4.14-3.19         c-21.02,4.55-29.82,22.81-44.02,27.84c-4.43,1.57-9.36,1.12-13.24,0.39c0.01,0.03,0.16,0.25,0.47,0.55         c-0.1-0.02-0.21-0.03-0.31-0.05c0.14,0.78,10.35,19.57,49.84,22.38c11.71,0.84,20.72-1.71,26.99-4.58         c6.8-3.11,10.38-6.61,10.69-6.59l2.41-4.75c-0.08-0.1-0.17-0.2-0.25-0.3C238.44,196.74,223.8,202.72,207.77,202.29z"/>
                            <path class="st0"
                                  d="M331.74,197.36c-3.95,0.12-8.89-0.2-13.02-2.43c-15.46-8.36-20.86-33.41-50.52-37.11l-0.76,5.34         c14.44,2.61,23.38,10.08,30.36,18c7.86,8.93,13.21,18.42,21.09,22.13c0.17,0.08-11.36,6.32-23.34,6.87         c-19.17,0.87-35.99-5.58-38.91-6.17c6.36,3.31,14.12,6.01,22.41,7.79C318.85,220.36,331.89,197.42,331.74,197.36z"/>
						</g>
					</g>
                    <g>
						<path class="st0"
                              d="M214.76,118.39c9.92,0.77,17.82,7.72,19.97,16.63c0.72-0.77,1.19-2.15,1.36-4.39        c0.92-11.83-8.25-22.19-20.49-23.14c-12.23-0.95-22.9,7.87-23.82,19.69c-0.17,2.24,0.07,3.68,0.67,4.55        C195.96,123.27,204.85,117.62,214.76,118.39z"/>
                        <path class="st0"
                              d="M282.41,124.24c9.92,0.77,17.82,7.72,19.97,16.63c0.72-0.77,1.19-2.15,1.36-4.39        c0.92-11.83-8.25-22.19-20.49-23.14c-12.24-0.95-22.9,7.87-23.82,19.69c-0.17,2.24,0.07,3.68,0.67,4.55        C263.61,129.12,272.5,123.47,282.41,124.24z"/>
					</g>
				</g>
                <g>
					
						<ellipse transform="matrix(0.0775 -0.997 0.997 0.0775 66.2106 390.8412)" class="st10" cx="244.3"
                                 cy="159.64" rx="20.29" ry="26.41"/>
                    <path class="st11"
                          d="M243.59,176.71c-14.54-1.13-25.62-11.1-24.75-22.28c0.02-0.3,0.06-0.6,0.1-0.9       c-0.49,1.34-0.81,2.75-0.92,4.21c-0.87,11.17,10.21,21.15,24.75,22.28c14.15,1.1,26.35-6.58,27.8-17.29       C267.31,171.66,256.23,177.69,243.59,176.71z"/>
                    <g>
						<g>
							<g>
								<path class="st15"
                                      d="M245.93,139.37c-11.98-0.93-22.56,4.43-26.4,12.6c0.82,0.06,1.62-0.27,2.14-0.9          c4.93-6.03,13.99-9.68,24.05-8.9c10.06,0.78,18.45,5.8,22.39,12.51c0.41,0.71,1.15,1.16,1.97,1.22          C267.53,147.23,257.9,140.3,245.93,139.37z"/>
							</g>
                            <path class="st0"
                                  d="M255.01,141.88c0.05-0.63-0.34-1.23-0.95-1.41c-2.21-0.66-4.55-1.1-7-1.29c-2.76-0.21-5.45-0.09-8,0.33         c-0.61,0.1-1.07,0.62-1.12,1.24l0,0c-0.07,0.87,0.68,1.57,1.54,1.45c2.36-0.33,4.83-0.42,7.36-0.22         c2.25,0.17,4.41,0.57,6.46,1.14c0.82,0.23,1.64-0.36,1.71-1.21L255.01,141.88z"/>
                            <g>
								<path class="st15"
                                      d="M252,149.24c-2.42-0.19-4.52,1.54-4.7,3.85c-0.18,2.32,1.63,4.35,4.05,4.53          c2.42,0.19,4.52-1.54,4.7-3.85C256.24,151.46,254.42,149.43,252,149.24z"/>
							</g>
						</g>
					</g>
				</g>
			</g>
            <g>
				<polygon class="st0"
                         points="416.73,201.86 412.31,188.4 410.93,202.37 405.88,205.74 411.44,208.17 416.47,221.26       417.24,207.67 422.29,204.3     "/>
                <polygon class="st0"
                         points="99.47,259.64 98.09,273.62 93.04,276.99 98.6,279.42 103.64,292.51 104.41,278.92 109.46,275.55       103.9,273.11     "/>
                <polygon class="st0"
                         points="384.37,193.01 383.33,203.59 379.5,206.13 383.71,207.98 387.52,217.88 388.1,207.59       391.93,205.05 387.72,203.2     "/>
                <polygon class="st0"
                         points="133,318.16 131.96,328.74 128.13,331.28 132.34,333.13 136.15,343.03 136.73,332.74 140.55,330.2       136.35,328.35     "/>
                <polygon class="st0"
                         points="101.8,308.77 100.42,322.74 95.36,326.11 100.92,328.55 105.96,341.64 106.73,328.04       111.78,324.67 106.22,322.23     "/>
			</g>
		</g>
	</g>
</g>
</svg>
