<svg enable-background="new 0 0 512 512" height="512" viewBox="0 0 512 512" width="512" xmlns="http://www.w3.org/2000/svg"><g id="Layer_31" display="none"><g display="inline"><g><g fill="none" stroke-miterlimit="10"><g stroke="#9e9e9e"><ellipse cx="256" cy="256" rx="248.1" ry="248.3"/><path d="m398.8 504.5h-285.6c-18.8 0-34.1-15.3-34.1-34.1v-428.8c0-18.8 15.3-34.1 34.1-34.1h285.5c18.8 0 34.1 15.3 34.1 34.1v428.9c.1 18.8-15.2 34-34 34z"/><path d="m7.9 399.8v-287.6c0-16.4 13.3-29.8 29.8-29.8h436.7c16.4 0 29.8 13.3 29.8 29.8v287.6c0 16.4-13.3 29.8-29.8 29.8h-436.8c-16.4 0-29.7-13.4-29.7-29.8z"/><path d="m440.4 469.9h-368.8c-16.4 0-29.8-13.3-29.8-29.8v-368.2c0-16.4 13.3-29.8 29.8-29.8h368.8c16.4 0 29.8 13.3 29.8 29.8v368.2c0 16.4-13.4 29.8-29.8 29.8z"/></g><path d="m7.5 7.5h497v497h-497z" stroke="#d81c24" transform="matrix(0 1 -1 0 512 0)"/></g></g></g></g><g id="Layer_55"><g><path d="m391.2 469.5c-4.3 0-8.1-.9-11.1-1.5h-.2c-.7-.2-1.4-.3-2.1-.5-4.7-.9-9.5-1.8-14.4-2.7-29.1-5.2-54.9-8.2-78.8-9.4-4.3-.2-8.8-.3-13.3-.3-20.7 0-41.1 2.1-62.6 4.3-4.8.5-9.6 1-14.4 1.5-26.1 2.6-52.9 5-79.6 7.2-1.2.1-2.4.2-3.5.2-19.1 0-26.4-14.2-30.4-21.8-.7-1.3-1.3-2.7-1.9-3.8-.4-.8-.8-2.2-1.3-4.1-.5-1.8-2.2-3.1-4.1-3.1h-.3-.1c-10.4-.5-21-2.7-30.6-6.6-2.5-1-8.8-3.8-15.1-7.6-1.7-1-3.3-2-4.7-3-8.1-5.6-13.2-14.8-13.7-24.7v-.2-.2c.6-2.9 1.9-5.6 3.7-8 2.1-2.7 4.9-4.8 8.2-6.3-1.9-2.5-3.7-5.1-5.2-7.7-5.5-9.4-8.9-19.8-9.7-30.1-.2-2.2-.7-9 2.9-14.9l6.8-11.2c-12.1-17.2-17.4-36-15.2-54.9 1.3-11.6 5-21.5 8.6-31.2 1.7-4.7 3.3-9.1 4.6-13.5 3.5-12 3.8-26 3.8-39.3v-.4c-.1-1.8-.4-4.9.5-8.4.4-1.7.9-3.4 1.9-4.9 5.6-8.4 11.8-9.4 14.2-9.4.5 0 .9 0 1.2.1h.5c8 0 14.1 5 18.6 8.6l.3.2c.3.2.6.5.8.6 3.9 2.8 7.7 5.7 11.2 8.8-.1-1-.3-2-.4-3-2.3-19.1-4.4-36.7-6.2-53.7-.1-.9-.2-2-.4-3.1-1-6.8-2.3-16.2 2.8-25.4 7.5-13.6 21.2-15.2 26.3-15.8l1.2-.1c3-.4 6.2-.7 9.6-.9h.7c8.3-15.7 25.8-25.7 44.8-25.7 18.5 0 33.9 9 41.6 24.2l97.5-1.7c.6-1.2 1.2-2.2 1.8-3.2 2.2-3.2 4.8-6.2 7.7-8.7 7.7-6.7 17.9-10.7 29.5-11.7 1.4-.1 2.9-.2 4.3-.2 5.2 0 10.1.8 14.8 2.4l-.3-2 4 3.4c7.8 3.4 14.3 9.1 19 16.4l3 2.6c.5.1.9.2 1.3.3 1.4.4 2.7 1 4 1.7l.1.1.1.1c.5.4 11.8 9.2 15.1 12.2 2 1.8 3.8 3.4 5.7 4.9 14.5 12.1 23.3 25.7 26.7 41.6 1.1 5.1 1.5 10.1 1.8 14.9.4-.8.8-1.7 1.2-2.6l.7-1.5c2.5-5.3 5.3-11.2 9.2-16.7 2.5-3.5 5.2-5.9 8.1-7.1s5.7-1.8 8.4-1.8c5.7 0 9.1 2.7 9.8 3.3 2.9 2.1 5.2 5 6.9 8.7 6 13.1 7.2 29.8 3.5 46.6 9.8-5.6 16.5-7.9 22.5-7.9 2.1 0 4.8 0 7 1.3 11.1 6.3 11.7 14.3 11.8 15.3.8 9.5-6 19.4-11.5 27.4l-.2.3c-.3.5-.6.9-.8 1.2-4.2 6.5-8.7 12.6-13.6 18.1-8 9.2-16.9 17.1-26.4 23.5-6.5 4.4-13.3 8-20.1 10.7-1.5.6-2.9 1.1-4.2 1.5-.7 1.9-1.2 3.6-1.5 5.2 4.6-2.4 9.5-4.7 14.6-6.7.1 0 .5-.2.5-.2 2.8-1.3 7.5-3.5 13-3.5h.2c1.4 0 3.2 0 4.9.7 11.7 5 12.7 11 12.7 12.6.8 3.2.8 6.7-.2 10.4-.5 2.7-1.1 5.4-1.7 8-.7 3.2-1.4 6.3-1.9 9.3-1.5 8.9-1.8 16.4-.9 23.4.2 1.7.4 3.3.6 5 .9 7.3 1.9 14.8 1.6 23-.8 19-9.4 36.3-24.8 50.2-7.3 6.6-15.6 11.8-24.7 15.7-.3.1-.5.2-.8.3-.2 1.5-.5 3.3-.9 5.1-1.7 7.3-3.6 14.9-6 23.3l-.3 1.2c-1.8 6.4-4.7 17.2-16.7 22.7-3.6 1.8-7.5 2.6-11.6 2.6z" fill="#fff"/><g><g><g><g><g><g><g fill="#78ceb9"><path d="m82.7 417.1s-31.8 3.8-56.3-20c0 0 12.8-14.5 56.3 20z"/><path d="m60.4 387.3s1.7-15.6-12.6-30.8c-14.3-15.1-23.8-21.3-23.8-21.3s-2.2 33.6 36.4 52.1z"/></g></g></g><g><g fill="#78ceb9"><path d="m421.5 246.6s43.8-6.8 72.3-66.2c.1 0-39.5 8.2-72.3 66.2z"/><path d="m432.9 203.3s-8.9-16.5.1-39.8 16.8-34.4 16.8-34.4 17.7 36.3-16.9 74.2z"/></g></g><g><g><g><path d="m35.6 171.4s34.9 19.8 47.3 50.4 13.5 75.9 18 90.1 15.7 34.6 15.7 34.6-29.2-2-56.6-16.3-43.7-43.7-41.7-65.7 12.1-34.9 15-53.2c2.9-18.4 2.3-39.9 2.3-39.9z" fill="#a9d276"/><path d="m71 253.1c8.4 41.5 30.6 83.5 45.5 93.4 0 0-11.2-20.5-15.7-34.6-4.4-14.2-5.6-59.5-18-90.1s-47.3-50.4-47.3-50.4 27.1 40.2 35.5 81.7z" fill="#7dc142"/></g></g></g><g><g><g><g><g><g><g><path d="m364.3 83s12.3 10.7 23.2 19.6c10.9 9 16.2 26.6 16.2 31s7.5 81.6 10.9 126.6 1 115-3.1 138.9c-2.7 15.9-7.8 34.6-10.9 45.2-1.4 4.9-6.4 7.9-11.4 6.8-25-5.2-98.5-18.8-152.1-13-53.4 5.8-108.6 10.5-127.1 12.1-3.9.3-7.7-1.7-9.5-5.2l-11.2-21.6s17.5-94.1 18.9-182.6c1.5-88.5-10.2-153.1-10.2-153.1z" fill="#e5d7be"/><path d="m89.4 423.4s110.7-5.5 169.4-9.7c47.6-3.4 96.3 3.6 112.9 6.4 3.6.6 7-1.5 8.1-5 4.6-14.9 15.3-57.3 14.3-127.9-.5-39.1-3.1-97.7-8.3-136.4-6.3-47.3-21.6-67.7-21.6-67.7l-266.1 4.6s11.6 64.6 10.2 153.1c-1.5 88.5-18.9 182.6-18.9 182.6z" fill="#dcd2ba"/><path d="m272.4 84.7-170 9.6-3.2.4c2.9 18.9 10.2 74.8 9 146.2-1.1 65-10.8 132.9-15.9 164.5 22.8 0 73.4-.3 120.3-3.9 62.9-4.8 156.9 3.9 156.9 3.9s2.4-3.9 9.2-34.9 2.4-40.2 6-98.3c2.4-39-6.3-112.6-12.3-156.7-4.5-19.9-8.1-32.3-8.1-32.3z" fill="#cabd9d"/><path d="m403.8 133.6c0-4.4-5.3-22-16.2-31s-23.2-19.6-23.2-19.6 4.1 25.9 8.2 59.5l33.7 20.5c-1.5-16.1-2.5-27.8-2.5-29.4z" fill="#e24479"/><path d="m376.2 144.8c-1.3-10.7-2.6-20.6-3.8-29.4-4.5-19.9-8.1-32.3-8.1-32.3s4.1 25.9 8.2 59.5z" fill="#c62a6a"/><path d="m87.3 89 10.8-1.3 266.2-4.7s19.7 124.4 16.1 182.5.8 67.3-6 98.3-9.2 34.9-9.2 34.9-93.9-8.7-156.9-3.9c-51.9 4-108.3 4-126.6 3.9-3.2 0-5.5-2.9-5-6 4.4-25.1 20.6-124.5 12.5-186.1-6.6-49.8-10.6-87-12.4-104.7-.5-6.4 4.1-12.2 10.5-12.9z" fill="#f6f0e6"/><path d="m364.3 83-266.2 4.7-10.8 1.3c-6.4.7-11 6.5-10.4 12.9 1.2 12.2 3.5 33.7 7 62.2 13-2.6 85.8-16.5 144.9-14.8 65.1 1.9 115.5 11.9 116.4 65.7.9 47.8-33.3 162.1-159.8 181.3 7.7-.4 15.4-.9 23-1.5 62.9-4.8 156.9 3.9 156.9 3.9s2.4-3.9 9.2-34.9 2.4-40.2 6-98.3c3.5-58-16.2-182.5-16.2-182.5z" fill="#e5d7be"/><path d="m228.4 165.9c-40.4 0-82.4 4.7-111 8.6-5.5.8-9.3 5.8-8.6 11.2.7 5.8 1.5 11.8 2.3 18 6.5 49.1-1.3 118.8-7.6 161.4-.9 6.1 3.9 11.6 10.1 11.5 25.6-.3 60.3-1.2 93.1-3.8 13.2-1 28.6-1.5 45.8-1.5 32.8 0 66 1.8 88.2 3.3 4.9.3 9.4-3 10.5-7.8.5-2.4 1.1-5 1.7-7.8 3.5-16.2 3.6-25 3.8-42.5.1-12.6.3-28.3 1.7-52.4 1.4-22.8-1.1-57-4.4-89.3-.5-5.1-4.9-9-10-9h-115.6z" fill="#f8c6dc"/><path d="m236.8 242s-2.3-17.4 15.5-31.5c17.7-14.1 44.8-13.5 56.3-2.1 11.4 11.4 25.6 59.5-12 93.7-23.8 21.7-41.1 36.7-50.5 44.7-4.7 4-11.6 4.2-16.4.3-7.1-5.6-19.2-14.7-37.4-27.3-32.6-22.6-47.5-67.3-37.8-94.2s40.7-22.8 52.9-18.6c24.3 8.5 29.4 35 29.4 35z" fill="#ecb6d1"/><path d="m351.3 366.9c.5-2.4 1.1-5 1.7-7.8 3.5-16.2 3.6-25 3.8-42.5.1-12.6.3-28.3 1.7-52.4 1.4-22.8-1.1-57-4.4-89.3-.5-5.1-4.9-9-10-9h-26.8c17.2 9.7 27.5 25 27.9 49.1.7 37.8-19.9 115.9-90.9 156.4 32.2.1 64.6 1.8 86.4 3.3 5.1.4 9.5-2.9 10.6-7.8z" fill="#ecb6d1"/><path d="m372.6 142.6c-4.1-33.7-8.2-59.5-8.2-59.5l-266.3 4.6-10.8 1.3c-6.4.7-11 6.5-10.4 12.9 1.1 11.1 3.1 29.8 6.1 54.4 21-3.6 84.3-13.7 145.3-13.7z" fill="#ef5782"/><g fill="#e24479"><path d="m311.3 99.4c3.9 0 7.4 1.5 10.1 4-4-7.2-1.4-14.7 1.7-19.6l-14.5.2c-1.6 7.2-.9 13.8-.6 15.7 1.1-.2 2.2-.3 3.3-.3z"/><g><path d="m124.9 104.1c1.5-.5 3.2-.8 4.9-.8 3.3 0 6.4 1.1 8.9 2.9-3.4-4.2-4-13.6-1.6-19.2l-13.1.2c-.5 2.9-.7 6-.5 9.2.2 2.9.7 5.4 1.4 7.7z"/><path d="m172.1 86.4c0 .1.1.1.1.2l11.4-.2s0-.1 0-.2z"/></g><path d="m372.6 142.6c-4.1-33.7-8.2-59.5-8.2-59.5l-58.3 1c17.9 4 38.7 10.5 43.1 19.2 8.2 16.1-18.2 37.2-96.3 33.3s-157.7 13.9-171 10c.4 3.1.8 6.4 1.2 9.7 21-3.6 84.3-13.7 145.3-13.7z"/></g><circle cx="311.3" cy="114.2" fill="#c62a6a" r="14.8"/><circle cx="129.8" cy="118.2" fill="#c62a6a" r="14.8"/></g><g fill="#f1c566"><path d="m132.6 79.3c7.6-5.2 15.4-6.8 22.6-1 3.5 2.8 5.4 5.9 6.3 8.3l11.4-.2s1-13.4-11.9-20.6c-12.9-7.3-29.4-2.7-36 1.6-6.6 4.4-13.2 15.2-12.2 29.1 1.6 21.8 20.6 27.5 29.9 29 1.2-2.2 1.9-4.7 1.9-7.3 0-3.1-1-6.1-2.6-8.5-3.8-.3-10.8-1.5-14.5-6.1-5.2-6.5-2.5-19.1 5.1-24.3z"/><path d="m132.6 79.3c7.6-5.2 15.4-6.8 22.6-1 3.5 2.8 5.4 5.9 6.3 8.3l11.4-.2s1-13.4-11.9-20.6c-12.9-7.3-29.4-2.7-36 1.6-6.6 4.4-13.2 15.2-12.2 29.1 1.6 21.8 20.6 27.5 29.9 29 1.2-2.2 1.9-4.7 1.9-7.3 0-3.1-1-6.1-2.6-8.5-3.8-.3-10.8-1.5-14.5-6.1-5.2-6.5-2.5-19.1 5.1-24.3z"/><path d="m132.6 79.3c7.6-5.2 15.4-6.8 22.6-1 3.5 2.8 5.4 5.9 6.3 8.3l11.4-.2s1-13.4-11.9-20.6c-12.9-7.3-29.4-2.7-36 1.6-6.6 4.4-13.2 15.2-12.2 29.1 1.6 21.8 20.6 27.5 29.9 29 1.2-2.2 1.9-4.7 1.9-7.3 0-3.1-1-6.1-2.6-8.5-3.8-.3-10.8-1.5-14.5-6.1-5.2-6.5-2.5-19.1 5.1-24.3z"/></g><path d="m167.8 86.5c-.3-3.5-2-10.3-9.7-14.6-10.6-5.9-24.1-2.2-29.6 1.3-5.4 3.5-10.8 12.4-10 23.7 1.2 15.8 17.2 21.2 26 23.1.1-.6.1-1.2.1-1.8 0-3.1-1-6.1-2.6-8.5-3.8-.3-10.8-1.5-14.5-6.1-5.2-6.5-2.5-19.1 5.1-24.3s15.4-6.8 22.6-1c3.5 2.8 5.4 5.9 6.3 8.3z" fill="#e7b248"/><path d="m340.4 83.5 13.8-.2c-1.6-6.7-8.5-26.4-33.3-22-29.7 5.3-25.5 36-25 38.9 1.5 8.9 5.1 14.6 11.5 18.8 4.4 2.9 11.3 4.2 15.3 4.8 2.2-2.6 3.5-5.9 3.5-9.5 0-1.6-.3-3.1-.7-4.6-3.2 1.1-10.4 2.5-15.5-5.2-6.8-10.2.6-21.3 4.3-24.9s8.7-6.7 16.5-5.1c5.2 1.1 8.2 6 9.6 9z" fill="#f1c566"/><path d="m346.9 83.4c-1.5-5.9-7-20.8-25.4-17.3-22.7 4.3-19.5 29.3-19.2 31.6 1.1 7.2 3.9 11.9 8.8 15.3 2.3 1.6 9.5 2.6 14.9 3.2.1-.7.1-1.3.1-2 0-1.6-.3-3.1-.7-4.6-3.2 1.1-10.4 2.5-15.5-5.2-6.8-10.2.6-21.3 4.3-24.9s8.7-6.7 16.5-5.1c5.3 1.1 8.3 5.9 9.7 8.9z" fill="#e7b248"/></g><path d="m231 238.4s-2.3-17.4 15.5-31.5c17.7-14.1 44.8-13.5 56.3-2.1 11.4 11.4 25.6 59.5-12 93.7-23.8 21.7-41.1 36.7-50.5 44.7-4.7 4-11.6 4.2-16.4.3-7.1-5.6-19.2-14.7-37.4-27.3-32.6-22.6-47.5-67.3-37.8-94.2s40.7-22.8 52.9-18.6c24.3 8.5 29.4 35 29.4 35z" fill="#ef77ad"/></g><g fill="#e7609c"><g><path d="m246.4 207c-17.7 14.1-15.5 31.5-15.5 31.5s25.8-38.6 54-16.5c46.2 36.1-23.2 97.1-53.7 124.4 3.2.1 6.4-.9 9-3.1 9.4-8.1 26.7-23 50.5-44.7 37.6-34.2 23.5-82.2 12-93.7s-38.5-12.1-56.3 2.1z"/><path d=""/></g><path d="m201.6 203.5c-12.2-4.2-43.2-8.3-52.9 18.6-2.6 7.1-3.4 15.4-2.7 24.2 0-.1 7.2-35.9 42.4-31.8 34.9 4.1 42.6 23.9 42.6 23.9s-5.1-26.5-29.4-34.9z"/></g></g></g></g></g></g><g><g><g><path d="m456.3 307.7c1.1-15.7 5.8-33.4 5.8-33.4s-32.7 9.6-48.9 32.5c-9 12.7-16 30-21.6 44.6-2.4 23.9-5.9 41.6-8.9 53.2 8.3-.2 18.3-1.1 28.3-3.6 25.4-6.5 44.6-27.6 47.3-46.2 2.7-18.7-3.1-31.3-2-47.1z" fill="#a9d276"/><path d="m413.3 306.8c-9 12.7-16 30-21.6 44.6-1.1 11.1-2.5 20.9-3.9 29.3 10.6-12.5 21.4-28.8 29.2-45.6 15-32.7 45.2-60.7 45.2-60.7s-32.8 9.5-48.9 32.4z" fill="#7dc142"/></g></g></g></g></g><g fill="#994941"><path d="m495.7 179c-3.3-4.3-20.1 6.5-22.8 8.1-18.1 10.9-32.9 26.8-44.7 44.2 2.5-9 3.3-22.6 9.3-29.8 6.6-8 12.1-17 15.4-26.8 4.6-13.7 5.9-31.3-.2-44.7-1.6-3.6-3.7-3.7-5.9-.6-3.4 4.8-6 10.5-8.5 15.8-7.9 16.6-15.2 34.6-9.8 53.1.8 2.9 1.8 4.5 1.4 7.4-.6 4.7-2.3 9.5-3.5 14.1-2.9 11.4-5.8 22.9-9.9 33.9-2.6-33.6-5.8-67.1-8.8-100.6-.7-7.7-.5-16-2.2-23.6-3-13.6-10.9-24-21.4-32.8-5.6-4.7-11-10-16.9-14.3-1-.7-1.5-1.4-2.6-1.7-2.3-.7-5.6 1.1-7.8.1-2.1-1-3.5-6.9-5-9.3-6-9.6-16.2-14-27.3-13.1-7.4.6-14.8 3-20.5 7.9-1.9 1.6-3.5 3.5-4.9 5.6-1.6 2.4-2.3 6.7-4.1 8.7-1.9 2.2-5.8 1.4-9.2 1.4-7.4.1-14.8.3-22.1.4-19.9.3-39.9.7-59.8 1-7.1.1-14.2.2-21.2.4-1.6 0-4.5.7-6 .1-2.1-.8-1 .4-1.8-2.8-7.5-29.9-53-27.5-62.3-.1-1.5 4.4-.4 3.5-4.2 4.1-2.6.4-5.5 0-8.1.1-3.2.1-6.3.5-9.5.9-5.9.7-11.2 2-14.3 7.7s-1.2 13-.5 19.2c1.9 17.8 4 35.6 6.1 53.4 2.7 22 6.4 44 7.2 66.1-7.3-23.9-22.9-42.5-43.1-57-2.1-1.5-7.7-6.8-10.7-6.5-3.2.4-2.2 4.8-2.2 7 0 14.5-.3 29.9-4.4 43.9-4.2 14.2-11 27.2-12.7 42-3.6 31.1 20.3 59.8 47 72.5 4.2 2 8.5 3.7 12.9 5.3 1 .4 5.6 1.3 6.2 2.1.7 1-.8 6-1 7.5-1.2 8.8-2.5 17.5-3.9 26.2-.9 5.5-3.7 13.6-2.8 19.2 1.3 7.9 10.4 6.3 16.2 6.3-1 6.2-2 12.4-3.1 18.6-7-8.6-13.7-17.6-20.3-26.6-2.1-2.9-4-5.1-4.6-8.4-.6-3.1-.6-6.2-1.5-9.3-2.9-10.3-9.3-18.1-16.7-25.5-5.4-5.4-11.1-11.2-17.4-15.3-4.7-3.1-5.6.6-5.3 5.1.7 8.2 3.4 16.3 7.6 23.4 4.6 7.7 10.9 14.3 18.2 19.5 4.4 3.1 10 4.9 13.1 9.3 3.3 4.6 6.7 9.2 10.1 13.8-9.8-6.5-21.4-13.2-33.4-13.7-3.4-.2-9.8 0-12.2 3.1-4.9 6.1 18.3 17.2 23.2 19.2 9.1 3.6 19 5.6 28.9 5.5 4.2 0 4.4.1 7.3 3.6 1.6 2 3.7 3.8 5.1 5.9 2 3 3.5 6.7 5.1 9.9 4.4 8.4 7.7 14.1 18.5 13.2 26.5-2.2 52.9-4.6 79.4-7.2 31-3 61.5-7 92.7-5.5 27.1 1.3 54.1 4.9 80.8 9.6 4.9.9 9.8 1.8 14.7 2.7 5 1 10.4 3 15.3.7 5.7-2.6 6.8-8.3 8.4-13.8 2.1-7.5 4.1-15 5.8-22.6.8-3.6 1.1-7.9 2.4-11.3 1.5-3.7 0-1.2 2.5-2.9 1.6-1 4.3-1.5 6.1-2.2 7.4-3.1 14.3-7.5 20.3-12.9 11.5-10.3 18.9-23.5 19.6-39.1.4-8.6-1.1-17-2.1-25.4-1.1-9.4-.5-18.5 1-27.8 1-6 2.6-11.9 3.7-17.9.3-1.3 1.1-2.9-.1-4-2.1-2.1-7.7 1.2-9.6 1.9-13.1 5.1-25.7 12.4-35.7 22.4-.1-8.6-.4-17.2-.8-25.8-.4-7.2 1.6-13.5 4.7-20.1 1.3-2.8 1.1-2.2 3.8-3.3 2.4-.9 4.8-1.5 7.2-2.5 6.1-2.4 11.8-5.6 17.2-9.2 8.7-5.8 16.4-12.9 23.2-20.7 4.5-5.1 8.5-10.6 12.2-16.3 2-3.1 12.2-16.8 9.6-20.1zm-60.5-14.7c4-10.3 8.5-20.5 14.1-30 7.2 22.9-.6 46.9-15.7 64.7-3.8-11.2-2.6-23.8 1.6-34.7zm-408.7 175.6c13.9 10.8 30 24.9 31.5 43.6-16.5-8.8-29.7-24.4-31.5-43.6zm3.7 57.6c4.6-1.9 17.8-3.5 46 17.6-9.9-.3-29.4-2.8-46-17.6zm374.5-225.8c2.1 23.4 4.2 46.9 6.2 70.3.9 11.2 1.9 22.4 2.3 33.6.3 6.3.5 12.7.6 19 .1 4.1.6 6.6-1.8 9.9-1.8 2.4-3.4 5-5 7.5 2.6-50.1-2.5-100.2-6.9-150 4.7 2.9 4.1 4.1 4.6 9.7zm-8.2 115.4c-.6-44-2.3-88.2-7.7-131.9 4.2 2.6 6.3 2.8 6.7 7.9.7 7.9 1.3 15.9 2 23.8 1.3 16.6 2.5 33.2 3.7 49.9 1.2 16.2 2.2 32.4 2 48.6-.1 8.9-.4 17.8-.9 26.6-.2 4-.1 7.9-1.5 11.6-1.7 4.2-3.8 8.2-5.6 12.4 1.2-16.3 1.5-32.6 1.3-48.9zm-28.9-198.2c10.4 8.8 22.5 16.7 28.8 29.2 6.4 12.7 5.9 26.7 7.2 40.6-3.7-2.3-7.4-4.5-11.1-6.8-5.1-3.1-11.7-5.9-16.2-9.8-2.3-2.1-1.9-3.8-2.4-7.3-.8-6.6-1.7-13.2-2.6-19.8-.7-5.1-1.4-10.2-2.1-15.2-.2-1.6-.4-9.9-1.6-10.9zm-68.3-6.6c4.1-13.5 17.8-20.7 31.5-19.2 10.2 1.1 17.3 8.4 20.4 17.9-2.3 0-5.4.7-7.6.1-2.8-.7-2.9-2.4-5.1-4.6-6.4-6.5-16.7-5.7-23.6-.4-7.1 5.4-11.8 15.5-9.4 24.3 2.2 8.1 9.7 13.9 18.2 12.2.3 2 .3 6.6-1.6 7.9-1.7 1.2-4.7 0-7-.7-5-1.5-9.4-4.2-12.5-8.5-5.7-7.9-6-20-3.3-29zm37.1-1.1c-6.9.1-13.9.2-20.8.4 5.6-5.8 15.5-7.6 20.8-.4zm-25.4 20.5c4.6-.1 8.9 2.4 11.2 6.4-4.9.8-9-2.1-11.2-6.4zm6.4 23.5c-8.3 4.6-18.8-1.7-18.6-11.2 4.5 6.3 11.2 9.6 18.6 11.2zm-191.1-55.9c14.7-9.7 42.5-5.9 44.2 14.8-1.9 0-4.8.7-6.6.1-2.3-.8-4.9-5.8-7.3-7.7-7.8-6.2-17.7-4.8-25.4.9-13.6 10-10.9 30.2 5.7 33.9 2.7.6 3.1 0 4.6 2.5.9 1.6.9 4.1.7 6-.5 3.8-1.6 3.1-4.9 2.1-1.8-.5-3.6-1.1-5.3-1.9-6.1-2.7-11.2-7.1-14.1-13.1-5.7-11.7-3.1-30 8.4-37.6zm31.4 15c-9.1.2-18.2.3-27.4.5 6.8-9.7 20.7-10.3 27.4-.5zm-19.1 42.7c-8.8 8.8-24 0-21-11.9 5.4 6.3 13.1 10.1 21 11.9zm-59.3-25.3c-1.4-14.1 22.5-11.7 31.4-11.9-.4 4.5-.2 9.1 1 13.4.5 1.9 1.6 3.7 2 5.6.5 2.6-.2 3.6-.7 6.4-1.3 7.5 2.6 15.1 9.4 18.4 15.5 7.5 31.4-11.1 21.5-25.3-2.1-3-5.2-5.3-8.6-6.4-4.3-1.4-7.1.5-8-4.8-.4-2.6-.6-6.5 1.6-7.6 2.7-1.4 9.5-.2 12.5-.2 38.9-.7 77.7-1.4 116.6-2l35.7-.6c-.7 4.4-.8 9.1-.1 13.5.3 2 1.1 3.9 1.3 5.8.3 2.8-.7 5.3-.8 8.3-.1 9.7 8.5 17.7 18.1 17.1 22.5-1.3 20-36.4-2.6-34.2-.3-2.4.2-9.4 2.5-10.9.6-.4 2.2 0 2.9-.1 4.5-.5 9.3-.2 13.8-.2l17.7-.3c4.1-.1 9.7-1.2 13.7-.2 1.5.4 1.4-.4 2.2.6.8.9.7 4.5.9 5.7 2.4 16.2 4.6 32.3 6.6 48.5-27.7 0-55.4 0-83 0-34.8 0-69.7-.7-104.4 1.6-32.6 2.2-65.2 6.2-97.5 11.7-2-17.3-4-34.6-5.7-51.9zm1.4 120.9c5.6 13.8 8.8 27.9 8.2 42.8-.6 15.3-1.7 30.5-3.2 45.7-4.6-5.2-9.1-10.6-13-16.3-2.4-3.5-7.4-10.3-7.4-14.7.1-3.2 3.3-7.9 4.4-11 1.1-3.3 2-6.6 2.8-9.9 1.2-5.1 2-10.4 2.4-15.6.1-1.5.8-4.8-.1-6.3-2.3-3.9-4-.1-4.4 2.3-1.9 11.7-2.7 22.6-7.3 33.9-2.9-9.4-5.1-19.1-7.2-28.7-1.7-8.2-6.6-20.2-3.8-28.1 1.1-3 5.7-13.4 3.7-16.7-4-6.6-6.6 10.8-6.9 11.6-2.9-11.8-6.5-23.5-9.6-35.2 17.1 11.5 33.6 26.9 41.4 46.2zm-19.7 105.6c-20.6-10.7-38.2-32.4-40.4-56.1-1.2-12.9 3.5-25.6 8-37.5 5.8-15.2 8.4-30 9.1-46.2 5.4 20 9.9 39.9 14.3 60.1-3.6-3-7.1-6.4-10.2-9.9-1-1.1-2.8-4.1-4.7-3.8-6 1.1 3.8 9.8 4.8 10.8 3.1 3.1 6.7 5.6 9.8 8.7 3.6 3.6 4 10.6 5.4 15.6 2.4 8.6 5.1 17.5 9.9 25.1-10.7-3.3-20.1-8.8-29.3-15-1.9-1.2-6.5-3.2-5.4 1.3.4 1.7 3.9 3.4 5.1 4.2 9.3 6.4 19.6 11.6 30.5 14.6 5.9 1.6 10 9.5 14 14.1 1.5 1.7 2.6 2.7 3 4.8.3 1.7-.5 4.6-.7 6.3-.5 4-.9 8.1-1.4 12.1-7.5-2.7-14.8-5.6-21.8-9.2zm20.9 68.2c-5 0-1.2-12.1-.7-14.9 1.2-7.2 2.3-14.4 3.3-21.6 2.7-19 5-38.1 6.7-57.2 1.8-20.7 3-41.5 2.7-62.3-.3-23-3.8-45.6-6.6-68.4-.4-3.3-.8-6.7-1.2-10-.5-4.3-.7-3 2.4-4.2 3.3-1.3 7.9-1.3 11.4-1.8 9.4-1.5 18.7-2.8 28.1-4 25.1-3.2 50.3-5.5 75.5-6.5 21.1-.8 42.2-.5 63.3-.5h80 14.1c2.2 0 5.9-.7 8.1 0 .3.1 1.2-.2 1.5 0 1.6 1.2 1.4 11.5 1.7 13.8 1.3 11.3 2.4 22.6 3.4 33.9 1.9 22 3.6 44.2 2.9 66.3-.6 20.1-1.8 40.2-2 60.3-.2 22.7-3.6 44-9.3 65.9-.8 2.9-1.6 9.9-4.1 11-2.8 1.2-10.2-.8-13.3-1.1-37.8-2.8-75.7-4.7-113.6-3.9-23.4.5-46.8 2.8-70.2 3.7-21.9.9-43.9 1.4-65.8 1.5-6.2 0-12.3 0-18.3 0zm13.6 4.7c41.6-.1 83-2.6 124.6-4.7 36.6-1.8 73.3-.3 109.8 2 10.6.7 21.1 1.4 31.7 2.3 5.4.5 6.1-1.1 7.7-6.1 5.3-16.8 9.4-34.8 11-52.3 1.6-18 .8-36.2 1.4-54.3.8-22.5 1.9-44.6.6-67.1-1.4-24.7-3.9-49.3-6.9-73.8 1.9 1.1 3.9 2.2 5.7 3.5 3.2 2.3 2.9 3.5 3.4 7.8 1.2 10 2.1 20.1 2.9 30.1 1.7 21.7 2.8 43.4 3.6 65.1 1.5 42.9 1.5 85.9-5.9 128.3-1.3 7.4-2.8 14.8-4.6 22.2-.9 3.4-1.3 8.3-3.3 11.2-2.5 3.7-6.3 2.4-10.1 1.8-19.1-3-38.5-5-57.8-5.9-40.2-2-80.5 2.4-120.7 4.7-32.2 1.8-64.3 3.5-96.5 5.2 1.2-6.8 2.3-13.4 3.4-20zm1.9 32.7c-1.4-2.8-2.9-5.5-4.3-8.3 33.3-1.7 66.7-3.5 100-5.4 47.2-2.7 93.9-7.2 141.1-2.6 11 1.1 21.9 2.4 32.8 4.1 4.7.7 9.2 1.6 12.9-2.2 2-2.1 2.6-5 3.4-7.7.3-1 .7-4.4 1.3-4.9.9-.7 4.9-.2 6-.3-1.4 5.7-2.9 11.4-4.5 17.1-1.2 4.2-1.8 9.5-6.5 11.1-4 1.3-9.9-.9-13.9-1.6-16.7-3-33.5-5.3-50.3-6.9-23.9-2.3-47.9-3.4-71.9-2.6-25.3.8-50.5 3.8-75.7 5.6-23.5 1.5-47 2.7-70.4 4.6zm301 10c-2.5 8.7-13.8 4.2-19.8 3-8.2-1.6-16.5-3-24.8-4.4-21.2-3.4-42.6-6-64.1-7.2-48-2.7-96 5.4-143.7 9.6-9.8.9-19.6 1.7-29.4 2.6-4.1.3-9 1.6-12.4-1.4-2.1-1.9-3.3-5.2-4.6-7.7 21.7-1.6 43.4-2.8 65.1-4.4 26.4-1.9 52.7-5 79.1-5.8 41.6-1.3 83.7 2.4 124.6 10.2 7.5 1.4 15.6 2.9 19.6-5.6 2.6-5.5 3.7-12.4 5.2-18.3.3-1.2.6-2.4.9-3.5.9-3.6.2-4 3.4-5.1s7.3-1.1 10.6-1.8c-2.4 13.4-5.9 26.6-9.7 39.8zm57.7-89.5c-4.6 32.6-41.8 46.6-70.3 47.8.9-3.7 1-8.9 2.6-12.3 2.2-4.6 11.5-9 15.7-12.3 2.5-2 2.9-2.5 5.9-2.9 2.9-.4 5.9-.4 8.8-.8 5.5-.8 10.9-2.2 16.1-4 2.1-.7 5.9-1.5 7.6-3 2.4-2.2 1.5-4.7-1.9-4.3-2.8.3-6.3 2.6-9 3.5-6.1 2-12.3 3.3-18.7 3.9 5.4-5.4 9.3-12.4 12.9-19 1.8-3.3 3.4-8.4 6.3-10.6 3.1-2.4 7.6-3.7 10.9-5.9 1.3-.8 10.8-6.2 5.5-8.3-3-1.1-12 6.8-14.3 8 7-14.9 14.1-29.5 22-44-2 10.8-3.1 21.4-1.8 32.3 1.4 10.7 3.2 21.1 1.7 31.9zm1.2-75.8c-5.9 11-12.3 21.8-17.6 33.1-1.1-3.8-1.6-7.8-1.7-11.7 0-1.5.6-4.4-1-5.4-5.2-3.4-3.4 9.7-3.3 10.9.4 3.5 2.7 7.7 2.8 11s-2.8 7.9-4.3 11.1c-3.9 8.4-8 16.8-12.6 24.9-1.4-10 .4-18.9.8-28.7.1-2.9-1.9-5.5-4.3-2.1-.9 1.3-1 4.4-1.2 6-.7 4.6-.9 9.2-.9 13.8.1 6 3.1 14.4.2 19.5-5.2 9.1-16.2 15.7-24.6 21.5 2-11.6 1.8-24.6 6.1-35.5 4.6-11.8 9.6-23.6 16.4-34.3 10.5-16.6 27.4-27.3 45.2-34.1zm-30.9-35.6c24.4-40.6 51.9-54.4 63-58.6-21.8 41.6-51.2 54.8-63 58.6z"/><path d="m340.7 377.1c6.1.4 11.6-3.6 12.9-9.6.5-2.4 1.1-5 1.8-7.8 3.6-16.4 3.7-25.3 3.8-43 .1-12.6.3-28.2 1.7-52.3 1.2-19.7-.3-49.9-4.4-89.7-.7-6.3-6-11.1-12.3-11.1h-115.8c-40.7 0-83 4.7-111.3 8.7-6.7.9-11.4 7.1-10.6 13.8.7 5.8 1.5 11.8 2.3 18 2.8 21.4 5.6 70.7-7.6 160.8-.5 3.6.5 7.2 2.9 9.9s5.7 4.2 9.3 4.2h.1c24-.3 59.7-1.2 93.3-3.8 13.1-1 28.5-1.5 45.7-1.5 32.9 0 66.1 1.8 88.2 3.4zm-134.1-6.5c-33.5 2.6-69.1 3.5-93 3.7-2.3 0-4.4-.9-5.9-2.6s-2.2-4-1.8-6.2c12.6-86.1 11.1-135.6 7.6-162.1-.8-6.2-1.6-12.2-2.3-17.9-.5-4.2 2.4-8.1 6.6-8.6 28.2-3.9 70.3-8.6 110.6-8.6h115.8c4 0 7.3 3 7.7 6.9 4.1 39.6 5.6 69.5 4.4 88.9-1.5 24.2-1.6 39.9-1.7 52.6-.2 17.3-.2 26.1-3.7 42-.6 2.8-1.2 5.4-1.7 7.8-.9 3.7-4.2 6.3-8.1 6-22.2-1.5-55.5-3.4-88.4-3.4-17.4 0-32.9.5-46.1 1.5z"/><path d="m317.4 246.2c.5-19.2-6.2-36.1-13-43-6.1-6.1-16.1-9.4-27.5-9.2-11.8.2-23.1 4.2-31.9 11.1-9.4 7.5-13.5 15.9-15.2 22.4-4-8.8-12-20.9-27.4-26.2-6.9-2.4-18-4.3-28.6-2.5-13.4 2.3-22.8 10.1-27.3 22.5-5 13.8-3.9 32.1 3 50.3 7.3 19.1 19.9 35.7 35.6 46.6 18.3 12.7 30.4 21.8 37.2 27.2 2.8 2.2 6.1 3.3 9.4 3.3 3.5 0 7.1-1.2 9.9-3.7 10.2-8.7 27.2-23.6 50.6-44.8 20.2-18.2 24.8-39.4 25.2-54zm-78.7 95.3c-3.8 3.3-9.5 3.4-13.5.3-6.9-5.5-19.1-14.6-37.5-27.4-33-22.9-45.9-66.5-36.9-91.5 3.9-10.9 11.9-17.4 23.7-19.5 2.7-.5 5.4-.7 8.1-.7 7 0 13.6 1.4 18.2 2.9 22.7 7.8 27.8 32.8 27.9 33.2.2 1.2 1.4 2 2.6 1.9 1.2-.2 2.1-1.3 1.9-2.6-.1-.7-1.8-16.3 14.6-29.4 17.4-13.8 42.9-12.6 53.2-2.3 8 8 12 26.4 11.7 39.6-.3 13.7-4.7 33.5-23.6 50.7-23.3 21.3-40.3 36.1-50.4 44.8z"/></g></g></g></g></svg>