<svg id="Layer_1" height="512" viewBox="0 0 128 128" width="512" xmlns="http://www.w3.org/2000/svg" data-name="Layer 1"><path d="m63.181 55.848h-38.681a1.751 1.751 0 0 1 -1.682-1.265l-12-41.6a1.751 1.751 0 0 1 3.364-.97l11.634 40.335h37.365a1.75 1.75 0 0 1 0 3.5z" fill="#e8e8e8"/><path d="m115.5 117.25a1.746 1.746 0 0 1 -1.411-.714l-24.433-33.269-27.718-27.936a1.765 1.765 0 0 1 -.405-.642l-11.579-32.299-37.824-8.18a1.75 1.75 0 1 1 .74-3.42l38.774 8.384a1.753 1.753 0 0 1 1.277 1.12l11.779 32.848 27.532 27.752a1.575 1.575 0 0 1 .168.2l24.51 33.373a1.749 1.749 0 0 1 -1.409 2.786z" fill="#e8e8e8"/><circle cx="37.841" cy="76.127" fill="#67537e" r="4.03"/><circle cx="28.53" cy="110.167" fill="#67537e" r="4.03"/><circle cx="95.342" cy="44.068" fill="#67537e" r="4.03"/><circle cx="12.5" cy="12.5" fill="#7d6599" r="6"/><circle cx="51.273" cy="20.885" fill="#7d6599" r="6"/><circle cx="63.181" cy="54.098" fill="#7d6599" r="6"/><circle cx="90.99" cy="82.127" fill="#7d6599" r="6"/><circle cx="115.5" cy="115.5" fill="#7d6599" r="6"/><circle cx="24.5" cy="54.098" fill="#7d6599" r="6"/><g fill="#2d1d40"><path d="m37.841 70.347a5.78 5.78 0 1 0 5.779 5.779 5.785 5.785 0 0 0 -5.779-5.779zm0 8.059a2.28 2.28 0 1 1 2.279-2.28 2.282 2.282 0 0 1 -2.279 2.28z"/><path d="m28.53 104.387a5.78 5.78 0 1 0 5.78 5.78 5.786 5.786 0 0 0 -5.78-5.78zm0 8.059a2.28 2.28 0 1 1 2.28-2.279 2.282 2.282 0 0 1 -2.28 2.279z"/><path d="m95.343 49.848a5.78 5.78 0 1 0 -5.781-5.78 5.786 5.786 0 0 0 5.781 5.78zm0-8.059a2.28 2.28 0 1 1 -2.281 2.279 2.282 2.282 0 0 1 2.281-2.279z"/><path d="m115.5 107.75a7.706 7.706 0 0 0 -3.059.632l-15.582-21.208a7.737 7.737 0 0 0 -9.941-11.629l-17.188-17.322a7.735 7.735 0 0 0 -6.549-11.875 7.794 7.794 0 0 0 -.9.056l-6.821-19.004a7.739 7.739 0 0 0 2.607-10.242 1.749 1.749 0 1 0 -3.067 1.682 4.251 4.251 0 1 1 -4.433-2.148 1.75 1.75 0 1 0 -.574-3.452 7.711 7.711 0 0 0 -5.734 4.333l-24.015-5.188a7.747 7.747 0 1 0 -7.744 7.865c.137 0 .271-.014.407-.021l7.821 27.105a7.746 7.746 0 1 0 11.315 8.516h23.6a7.726 7.726 0 0 0 11.6 4.836l17.192 17.325a7.692 7.692 0 0 0 -1.2 4.115 1.75 1.75 0 0 0 3.5 0 4.244 4.244 0 1 1 2.76 3.982 1.75 1.75 0 0 0 -1.229 3.278 7.761 7.761 0 0 0 5.77-.137l15.584 21.211a7.742 7.742 0 1 0 5.875-2.71zm-107.25-95.25a4.25 4.25 0 1 1 4.25 4.25 4.255 4.255 0 0 1 -4.25-4.25zm8.022 6.764a7.792 7.792 0 0 0 3.228-3.464l24.029 5.2a7.709 7.709 0 0 0 8.637 7.583l6.826 19.009a7.759 7.759 0 0 0 -3.355 4.762h-23.593a7.758 7.758 0 0 0 -7.544-6c-.137 0-.271.014-.407.021zm8.228 39.084a4.25 4.25 0 1 1 4.25-4.25 4.255 4.255 0 0 1 -4.25 4.25zm34.431-4.248a4.25 4.25 0 1 1 4.25 4.25 4.255 4.255 0 0 1 -4.25-4.25zm56.569 65.65a4.25 4.25 0 1 1 4.25-4.25 4.255 4.255 0 0 1 -4.25 4.25z"/><path d="m67 101.387h-1.25v-1.25a1.75 1.75 0 0 0 -3.5 0v1.25h-1.25a1.75 1.75 0 0 0 0 3.5h1.25v1.25a1.75 1.75 0 0 0 3.5 0v-1.25h1.25a1.75 1.75 0 0 0 0-3.5z"/><path d="m92.343 17.25h1.25v1.25a1.75 1.75 0 0 0 3.5 0v-1.25h1.25a1.75 1.75 0 0 0 0-3.5h-1.25v-1.25a1.75 1.75 0 0 0 -3.5 0v1.25h-1.25a1.75 1.75 0 0 0 0 3.5z"/><path d="m108.47 75.165h1.25v1.25a1.75 1.75 0 0 0 3.5 0v-1.25h1.25a1.75 1.75 0 0 0 0-3.5h-1.25v-1.25a1.75 1.75 0 1 0 -3.5 0v1.25h-1.25a1.75 1.75 0 0 0 0 3.5z"/></g></svg>