<?xml version="1.0" encoding="UTF-8" standalone="no"?>
<!-- Created with Inkscape (http://www.inkscape.org/) -->

<svg
   version="1.1"
   id="svg2427"
   xml:space="preserve"
   width="682.66669"
   height="682.66669"
   viewBox="0 0 682.66669 682.66669"
   xmlns="http://www.w3.org/2000/svg"
   xmlns:svg="http://www.w3.org/2000/svg"><defs
     id="defs2431"><clipPath
       clipPathUnits="userSpaceOnUse"
       id="clipPath2441"><path
         d="M 0,512 H 512 V 0 H 0 Z"
         id="path2439" /></clipPath></defs><g
     id="g2433"
     transform="matrix(1.3333333,0,0,-1.3333333,0,682.66667)"><g
       id="g2435"><g
         id="g2437"
         clip-path="url(#clipPath2441)"><g
           id="g2443"
           transform="translate(134.6279,454.7021)"><path
             d="m 0,0 c -13.176,0 -20.862,7.466 -20.862,20.425 0,9.72 2.996,17.912 11.57,21.485 2.857,1.191 5.998,1.85 9.292,1.85 13.176,0 23.896,-10.543 23.896,-23.502 0,-3.07 -0.602,-6.004 -1.695,-8.694 C 18.68,2.896 10.055,0 0,0"
             style="fill:#fed402;fill-opacity:1;fill-rule:nonzero;stroke:none"
             id="path2445" /></g><g
           id="g2447"
           transform="translate(307.0425,470.5317)"><path
             d="m 0,0 c -12.691,0 -19.149,7.231 -19.149,19.915 0,8.512 0.542,14.474 7.437,18.451 3.379,1.95 7.297,3.066 11.471,3.066 12.691,0 23.015,-10.319 23.015,-23.002 0,-3.549 -0.808,-6.913 -2.251,-9.918 C 16.811,0.779 9.14,0 0,0"
             style="fill:#fed402;fill-opacity:1;fill-rule:nonzero;stroke:none"
             id="path2449" /></g><g
           id="g2451"
           transform="translate(374.3691,429.5249)"><path
             d="m 0,0 c 0,-1.668 -0.241,-3.281 -0.689,-4.805 -2.075,-7.05 -8.802,-7.76 -16.53,-7.76 -9.399,0 -12.661,3.175 -12.661,12.565 0,7.318 0.473,13.556 6.963,15.953 1.838,0.679 3.826,1.049 5.9,1.049 C -7.619,17.002 0,9.391 0,0"
             style="fill:#fed402;fill-opacity:1;fill-rule:nonzero;stroke:none"
             id="path2453" /></g><g
           id="g2455"
           transform="translate(213.7075,141.7788)"><path
             d="m 0,0 c 0,-1.898 -0.308,-3.726 -0.878,-5.438 -2.347,-7.051 -8.589,-9.724 -16.596,-9.724 -9.951,0 -16.723,5.166 -16.723,14.878 0,7.662 3.181,14.464 10.187,16.874 1.875,0.645 3.891,0.996 5.992,0.996 C -8.067,17.586 0,9.712 0,0"
             style="fill:#fed402;fill-opacity:1;fill-rule:nonzero;stroke:none"
             id="path2457" /></g><g
           id="g2459"
           transform="translate(67.5605,126.1699)"><path
             d="m 0,0 c 0,-3.002 -0.661,-5.854 -1.848,-8.424 -3.294,-7.13 -8.771,-7.98 -17.305,-7.98 -11.609,0 -19.152,5.52 -19.152,16.851 0,8.374 1.403,15.129 8.771,18.318 2.602,1.126 5.483,1.752 8.513,1.752 C -9.412,20.517 0,11.331 0,0"
             style="fill:#fed402;fill-opacity:1;fill-rule:nonzero;stroke:none"
             id="path2461" /></g><g
           id="g2463"
           transform="translate(47.54,343.0645)"><path
             d="m 0,0 c 0,-2.393 -0.44,-4.685 -1.247,-6.804 -2.831,-7.437 -9.007,-10.239 -17.612,-10.239 -11.057,0 -19.277,6.251 -19.277,17.043 0,8.365 3.482,15.503 11.053,18.29 2.197,0.808 4.577,1.25 7.063,1.25 C -8.963,19.54 0,10.792 0,0"
             style="fill:#fed402;fill-opacity:1;fill-rule:nonzero;stroke:none"
             id="path2465" /></g><g
           id="g2467"
           transform="translate(268.7627,343.0645)"><path
             d="m 0,0 c 0,-2.447 -0.46,-4.789 -1.302,-6.947 -2.87,-7.362 -10.586,-8.564 -19.135,-8.564 -11.058,0 -14.645,4.719 -14.645,15.511 0,7.661 -0.441,14.292 6.135,17.495 2.688,1.309 5.719,2.045 8.927,2.045 C -8.963,19.54 0,10.792 0,0"
             style="fill:#fed402;fill-opacity:1;fill-rule:nonzero;stroke:none"
             id="path2469" /></g><g
           id="g2471"
           transform="translate(165.1587,380.1904)"><path
             d="m 0,0 c 0,-3.651 -0.873,-7.103 -2.427,-10.168 -3.842,-7.58 -11.846,-10.81 -21.097,-10.81 -12.992,0 -19.784,11.32 -19.784,24 0,9.238 1.85,14.179 9.908,17.822 3.003,1.358 6.349,2.115 9.876,2.115 C -10.532,22.959 0,12.68 0,0"
             style="fill:#fed402;fill-opacity:1;fill-rule:nonzero;stroke:none"
             id="path2473" /></g><g
           id="g2475"
           transform="translate(412.4072,320.1816)"><path
             d="m 0,0 c 0,-3.508 -0.806,-6.832 -2.247,-9.805 -3.768,-7.776 -10.656,-10.568 -20.054,-10.568 -12.991,0 -22.298,8.986 -22.298,21.666 0,9.07 2.939,15.618 10.762,19.348 3.114,1.485 6.614,2.319 10.314,2.319 C -10.532,22.96 0,12.68 0,0"
             style="fill:#fed402;fill-opacity:1;fill-rule:nonzero;stroke:none"
             id="path2477" /></g><g
           id="g2479"
           transform="translate(136.8848,211.1274)"><path
             d="m 0,0 c -12.69,0 -18.949,7.259 -18.949,19.745 0,8.962 1.999,15.584 9.694,19.252 3.026,1.442 6.42,2.251 10.001,2.251 12.691,0 23.016,-10.158 23.016,-22.644 0,-3.477 -0.801,-6.774 -2.231,-9.721 C 17.827,1.249 9.156,0 0,0"
             style="fill:#fed402;fill-opacity:1;fill-rule:nonzero;stroke:none"
             id="path2481" /></g><g
           id="g2483"
           transform="translate(356.5747,144.3618)"><path
             d="m 0,0 c -12.691,0 -20.298,8.45 -20.298,20.936 0,8.858 1.755,15.968 9.305,19.688 3.093,1.522 6.581,2.38 10.269,2.38 12.691,0 23.016,-10.157 23.016,-22.643 0,-3.449 -0.788,-6.719 -2.196,-9.648 C 16.408,3.039 9.186,0 0,0"
             style="fill:#fed402;fill-opacity:1;fill-rule:nonzero;stroke:none"
             id="path2485" /></g><g
           id="g2487"
           transform="translate(465.4609,42.7051)"><path
             d="m 0,0 c 0,-1.386 -0.161,-2.733 -0.466,-4.026 -1.82,-7.726 -8.997,-10.53 -17.285,-10.53 -9.675,0 -15.05,6.163 -15.05,15.829 0,7.902 3.006,13.307 10.203,15.482 1.608,0.486 3.313,0.747 5.08,0.747 C -7.843,17.502 0,9.667 0,0"
             style="fill:#fed402;fill-opacity:1;fill-rule:nonzero;stroke:none"
             id="path2489" /></g><g
           id="g2491"
           transform="translate(147.6299,464.46)"><path
             d="m 0,0 c -13.18,0 -23.9,10.54 -23.9,23.5 0,3.07 0.6,6 1.7,8.69 C -30.82,28.64 -36.9,20.26 -36.9,10.5 -36.9,-2.46 -26.18,-13 -13,-13 -2.95,-13 5.68,-6.86 9.19,1.81 6.36,0.64 3.26,0 0,0"
             style="fill:#fac600;fill-opacity:1;fill-rule:nonzero;stroke:none"
             id="path2493" /></g><g
           id="g2495"
           transform="translate(319.7998,478.96)"><path
             d="m 0,0 c -12.69,0 -23.01,10.32 -23.01,23 0,2.96 0.56,5.8 1.59,8.4 -8.54,-3.36 -14.59,-11.68 -14.59,-21.4 0,-12.68 10.32,-23 23.01,-23 9.72,0 18.06,6.06 21.42,14.6 C 5.81,0.57 2.97,0 0,0"
             style="fill:#fac600;fill-opacity:1;fill-rule:nonzero;stroke:none"
             id="path2497" /></g><g
           id="g2499"
           transform="translate(373.9697,425.9102)"><path
             d="m 0,0 c -1.65,-7.66 -8.46,-13.39 -16.62,-13.39 -9.4,0 -17.02,7.61 -17.02,17.01 0,8.14 5.73,14.95 13.39,16.61 -0.26,-1.17 -0.39,-2.37 -0.39,-3.61 0,-9.4 7.62,-17.01 17.02,-17.01 1.24,0 2.45,0.13 3.62,0.39"
             style="fill:#fac600;fill-opacity:1;fill-rule:nonzero;stroke:none"
             id="path2501" /></g><g
           id="g2503"
           transform="translate(213.23,137.75)"><path
             d="m 0,0 c -1.86,-7.77 -9.01,-13.56 -17.54,-13.56 -9.95,0 -18.02,7.88 -18.02,17.59 0,8.18 5.73,15.05 13.48,17.02 -0.32,-1.29 -0.48,-2.64 -0.48,-4.02 0,-9.71 8.07,-17.59 18.02,-17.59 1.57,0 3.09,0.2 4.54,0.56"
             style="fill:#fac600;fill-opacity:1;fill-rule:nonzero;stroke:none"
             id="path2505" /></g><g
           id="g2507"
           transform="translate(66.5303,119.8198)"><path
             d="m 0,0 c -2.74,-8.23 -10.65,-14.17 -19.99,-14.17 -11.61,0 -21.02,9.19 -21.02,20.52 0,8.94 5.86,16.54 14.03,19.35 -0.67,-2 -1.03,-4.13 -1.03,-6.35 0,-11.33 9.41,-20.52 21.02,-20.52 2.45,0 4.8,0.41 6.99,1.17"
             style="fill:#fac600;fill-opacity:1;fill-rule:nonzero;stroke:none"
             id="path2509" /></g><g
           id="g2511"
           transform="translate(46.71,337.48)"><path
             d="m 0,0 c -2.46,-8.07 -10.12,-13.96 -19.19,-13.96 -11.06,0 -20.02,8.75 -20.02,19.54 0,8.69 5.8,16.05 13.83,18.59 -0.54,-1.77 -0.83,-3.65 -0.83,-5.59 0,-10.79 8.96,-19.54 20.02,-19.54 2.16,0 4.24,0.33 6.19,0.96"
             style="fill:#fac600;fill-opacity:1;fill-rule:nonzero;stroke:none"
             id="path2513" /></g><g
           id="g2515"
           transform="translate(267.9302,337.48)"><path
             d="m 0,0 c -2.46,-8.07 -10.12,-13.96 -19.19,-13.96 -11.05,0 -20.02,8.75 -20.02,19.54 0,8.69 5.8,16.04 13.83,18.58 -0.54,-1.77 -0.83,-3.64 -0.83,-5.58 0,-10.79 8.97,-19.54 20.02,-19.54 2.16,0 4.24,0.33 6.19,0.96"
             style="fill:#fac600;fill-opacity:1;fill-rule:nonzero;stroke:none"
             id="path2517" /></g><g
           id="g2519"
           transform="translate(163.6001,371.96)"><path
             d="m 0,0 c -3.39,-8.62 -11.95,-14.73 -21.97,-14.73 -12.99,0 -23.52,10.28 -23.52,22.96 0,9.58 6.01,17.79 14.56,21.23 -1.01,-2.55 -1.56,-5.33 -1.56,-8.23 0,-12.68 10.53,-22.96 23.52,-22.96 3.18,0 6.21,0.61 8.97,1.73"
             style="fill:#fac600;fill-opacity:1;fill-rule:nonzero;stroke:none"
             id="path2521" /></g><g
           id="g2523"
           transform="translate(410.8398,311.9399)"><path
             d="m 0,0 c -3.38,-8.61 -11.94,-14.72 -21.96,-14.72 -12.99,0 -23.52,10.28 -23.52,22.96 0,9.59 6.02,17.8 14.57,21.24 -1.02,-2.56 -1.57,-5.34 -1.57,-8.24 0,-12.68 10.53,-22.96 23.52,-22.96 3.17,0 6.2,0.61 8.96,1.72"
             style="fill:#fac600;fill-opacity:1;fill-rule:nonzero;stroke:none"
             id="path2525" /></g><g
           id="g2527"
           transform="translate(150.6299,220.0898)"><path
             d="m 0,0 c -12.69,0 -23.01,10.16 -23.01,22.64 0,2.83 0.53,5.54 1.5,8.04 C -30,27.35 -36.01,19.17 -36.01,9.64 -36.01,-2.84 -25.69,-13 -13,-13 -3.18,-13 5.22,-6.92 8.52,1.61 5.89,0.57 3.01,0 0,0"
             style="fill:#fac600;fill-opacity:1;fill-rule:nonzero;stroke:none"
             id="path2529" /></g><g
           id="g2531"
           transform="translate(368.8501,155.0801)"><path
             d="m 0,0 c -12.69,0 -23.02,10.16 -23.02,22.64 0,2.83 0.53,5.54 1.5,8.04 C -30.01,27.34 -36.02,19.17 -36.02,9.64 -36.02,-2.84 -25.69,-13 -13,-13 -3.18,-13 5.22,-6.92 8.52,1.61 5.89,0.57 3.01,0 0,0"
             style="fill:#fac600;fill-opacity:1;fill-rule:nonzero;stroke:none"
             id="path2533" /></g><g
           id="g2535"
           transform="translate(464.9902,38.6802)"><path
             d="m 0,0 c -1.82,-7.73 -8.76,-13.48 -17.05,-13.48 -9.67,0 -17.51,7.84 -17.51,17.51 0,8.27 5.75,15.21 13.47,17.03 -0.31,-1.29 -0.47,-2.64 -0.47,-4.03 0,-9.67 7.84,-17.51 17.51,-17.51 1.4,0 2.75,0.16 4.05,0.48"
             style="fill:#fac600;fill-opacity:1;fill-rule:nonzero;stroke:none"
             id="path2537" /></g><g
           id="g2539"
           transform="translate(447.2832,389.2422)"><path
             d="m 0,0 -8.8,17.584 c -0.096,0.194 -0.254,0.351 -0.447,0.448 l -17.598,8.791 c -0.738,0.368 -0.738,1.421 0,1.789 l 17.598,8.791 c 0.193,0.097 0.351,0.254 0.447,0.447 L 0,55.435 c 0.369,0.736 1.42,0.736 1.789,0 L 10.588,37.85 c 0.097,-0.193 0.254,-0.35 0.448,-0.447 l 17.597,-8.791 c 0.738,-0.368 0.738,-1.421 0,-1.789 L 11.036,18.032 C 10.842,17.935 10.685,17.778 10.588,17.584 L 1.789,0 C 1.42,-0.737 0.369,-0.737 0,0"
             style="fill:#62dbfb;fill-opacity:1;fill-rule:nonzero;stroke:none"
             id="path2541" /></g><g
           id="g2543"
           transform="translate(45.8794,202.2153)"><path
             d="m 0,0 -8.8,17.584 c -0.097,0.194 -0.254,0.351 -0.447,0.447 l -17.598,8.791 c -0.738,0.369 -0.738,1.421 0,1.79 l 17.598,8.791 c 0.193,0.097 0.35,0.253 0.447,0.447 L 0,55.435 c 0.369,0.736 1.42,0.736 1.789,0 L 10.588,37.85 c 0.097,-0.194 0.254,-0.35 0.448,-0.447 l 17.597,-8.791 c 0.738,-0.369 0.738,-1.421 0,-1.79 L 11.036,18.031 C 10.842,17.935 10.685,17.778 10.588,17.584 L 1.789,0 C 1.42,-0.737 0.369,-0.737 0,0"
             style="fill:#62dbfb;fill-opacity:1;fill-rule:nonzero;stroke:none"
             id="path2545" /></g><g
           id="g2547"
           transform="translate(504.5,7.46)"><path
             d="M 0,0 -41.88,25.7"
             style="fill:none;stroke:#000000;stroke-width:15;stroke-linecap:round;stroke-linejoin:round;stroke-miterlimit:10;stroke-dasharray:none;stroke-opacity:1"
             id="path2549" /></g><g
           id="g2551"
           transform="translate(437.04,56.3999)"><path
             d="M 0,0 -71.84,96.24"
             style="fill:none;stroke:#000000;stroke-width:15;stroke-linecap:round;stroke-linejoin:round;stroke-miterlimit:10;stroke-dasharray:none;stroke-opacity:1"
             id="path2553" /></g><g
           id="g2555"
           transform="translate(300.0806,335.1675)"><path
             d="M 0,0 -31.521,5.172"
             style="fill:none;stroke:#000000;stroke-width:15;stroke-linecap:round;stroke-linejoin:round;stroke-miterlimit:10;stroke-dasharray:none;stroke-opacity:1"
             id="path2557" /></g><g
           id="g2559"
           transform="translate(365.7598,324.3901)"><path
             d="M 0,0 -30.941,5.077"
             style="fill:none;stroke:#000000;stroke-width:15;stroke-linecap:round;stroke-linejoin:round;stroke-miterlimit:10;stroke-dasharray:none;stroke-opacity:1"
             id="path2561" /></g><g
           id="g2563"
           transform="translate(504.5,320.5098)"><path
             d="M 0,0 H -92.1"
             style="fill:none;stroke:#000000;stroke-width:15;stroke-linecap:round;stroke-linejoin:round;stroke-miterlimit:10;stroke-dasharray:none;stroke-opacity:1"
             id="path2565" /></g><g
           id="g2567"
           transform="translate(346.3501,442.4902)"><path
             d="M 0,0 -29.44,34.72"
             style="fill:none;stroke:#000000;stroke-width:15;stroke-linecap:round;stroke-linejoin:round;stroke-miterlimit:10;stroke-dasharray:none;stroke-opacity:1"
             id="path2569" /></g><g
           id="g2571"
           transform="translate(370.2446,230.144)"><path
             d="M 0,0 -10.735,-50.704"
             style="fill:none;stroke:#000000;stroke-width:15;stroke-linecap:round;stroke-linejoin:round;stroke-miterlimit:10;stroke-dasharray:none;stroke-opacity:1"
             id="path2573" /></g><g
           id="g2575"
           transform="translate(384.5298,297.6201)"><path
             d="M 0,0 -6.894,-32.563"
             style="fill:none;stroke:#000000;stroke-width:15;stroke-linecap:round;stroke-linejoin:round;stroke-miterlimit:10;stroke-dasharray:none;stroke-opacity:1"
             id="path2577" /></g><g
           id="g2579"
           transform="translate(351.8501,150.0898)"><path
             d="M 0,0 -44.55,-142.63"
             style="fill:none;stroke:#000000;stroke-width:15;stroke-linecap:round;stroke-linejoin:round;stroke-miterlimit:10;stroke-dasharray:none;stroke-opacity:1"
             id="path2581" /></g><g
           id="g2583"
           transform="translate(382.9502,342.4102)"><path
             d="M 0,0 -20.8,70.8"
             style="fill:none;stroke:#000000;stroke-width:15;stroke-linecap:round;stroke-linejoin:round;stroke-miterlimit:10;stroke-dasharray:none;stroke-opacity:1"
             id="path2585" /></g><g
           id="g2587"
           transform="translate(215.7822,76.5674)"><path
             d="M 0,0 -12.442,49.283"
             style="fill:none;stroke:#000000;stroke-width:15;stroke-linecap:round;stroke-linejoin:round;stroke-miterlimit:10;stroke-dasharray:none;stroke-opacity:1"
             id="path2589" /></g><g
           id="g2591"
           transform="translate(233.23,7.46)"><path
             d="M 0,0 -8.87,35.134"
             style="fill:none;stroke:#000000;stroke-width:15;stroke-linecap:round;stroke-linejoin:round;stroke-miterlimit:10;stroke-dasharray:none;stroke-opacity:1"
             id="path2593" /></g><g
           id="g2595"
           transform="translate(93.0898,7.46)"><path
             d="M 0,0 -38.81,99.63"
             style="fill:none;stroke:#000000;stroke-width:15;stroke-linecap:round;stroke-linejoin:round;stroke-miterlimit:10;stroke-dasharray:none;stroke-opacity:1"
             id="path2597" /></g><g
           id="g2599"
           transform="translate(188.5801,157.9399)"><path
             d="M 0,0 -42.03,59.4"
             style="fill:none;stroke:#000000;stroke-width:15;stroke-linecap:round;stroke-linejoin:round;stroke-miterlimit:10;stroke-dasharray:none;stroke-opacity:1"
             id="path2601" /></g><g
           id="g2603"
           transform="translate(79.2124,162.7964)"><path
             d="M 0,0 -18.812,-21.216"
             style="fill:none;stroke:#000000;stroke-width:15;stroke-linecap:round;stroke-linejoin:round;stroke-miterlimit:10;stroke-dasharray:none;stroke-opacity:1"
             id="path2605" /></g><g
           id="g2607"
           transform="translate(128.02,217.8398)"><path
             d="M 0,0 -24.906,-28.089"
             style="fill:none;stroke:#000000;stroke-width:15;stroke-linecap:round;stroke-linejoin:round;stroke-miterlimit:10;stroke-dasharray:none;stroke-opacity:1"
             id="path2609" /></g><g
           id="g2611"
           transform="translate(140.8398,403.1299)"><path
             d="M 0,0 -5.72,55.84"
             style="fill:none;stroke:#000000;stroke-width:15;stroke-linecap:round;stroke-linejoin:round;stroke-miterlimit:10;stroke-dasharray:none;stroke-opacity:1"
             id="path2613" /></g><g
           id="g2615"
           transform="translate(230.2002,350.4502)"><path
             d="M 0,0 -66.48,21.83"
             style="fill:none;stroke:#000000;stroke-width:15;stroke-linecap:round;stroke-linejoin:round;stroke-miterlimit:10;stroke-dasharray:none;stroke-opacity:1"
             id="path2617" /></g><g
           id="g2619"
           transform="translate(119.5,372.3999)"><path
             d="M 0,0 -72.58,-24.5"
             style="fill:none;stroke:#000000;stroke-width:15;stroke-linecap:round;stroke-linejoin:round;stroke-miterlimit:10;stroke-dasharray:none;stroke-opacity:1"
             id="path2621" /></g><g
           id="g2623"
           transform="translate(142.1401,350.3901)"><path
             d="M 0,0 -3.73,-105.53"
             style="fill:none;stroke:#000000;stroke-width:15;stroke-linecap:round;stroke-linejoin:round;stroke-miterlimit:10;stroke-dasharray:none;stroke-opacity:1"
             id="path2625" /></g><g
           id="g2627"
           transform="translate(151.0234,474.96)"><path
             d="m 0,0 c 0,-8.838 -7.34,-16.002 -16.396,-16.002 -9.055,0 -16.395,7.164 -16.395,16.002 0,8.837 7.34,16.002 16.395,16.002 C -7.34,16.002 0,8.837 0,0 Z"
             style="fill:none;stroke:#000000;stroke-width:15;stroke-linecap:round;stroke-linejoin:round;stroke-miterlimit:10;stroke-dasharray:none;stroke-opacity:1"
             id="path2629" /></g><g
           id="g2631"
           transform="translate(322.3169,488.9619)"><path
             d="m 0,0 c 0,-8.562 -6.947,-15.502 -15.516,-15.502 -8.569,0 -15.515,6.94 -15.515,15.502 0,8.562 6.946,15.502 15.515,15.502 C -6.947,15.502 0,8.562 0,0 Z"
             style="fill:none;stroke:#000000;stroke-width:15;stroke-linecap:round;stroke-linejoin:round;stroke-miterlimit:10;stroke-dasharray:none;stroke-opacity:1"
             id="path2633" /></g><g
           id="g2635"
           transform="translate(374.3691,429.5249)"><path
             d="m 0,0 c 0,-9.39 -7.619,-17.002 -17.017,-17.002 -9.399,0 -17.017,7.612 -17.017,17.002 0,9.391 7.618,17.002 17.017,17.002 C -7.619,17.002 0,9.391 0,0 Z"
             style="fill:none;stroke:#000000;stroke-width:15;stroke-linecap:round;stroke-linejoin:round;stroke-miterlimit:10;stroke-dasharray:none;stroke-opacity:1"
             id="path2637" /></g><g
           id="g2639"
           transform="translate(213.7075,141.7788)"><path
             d="m 0,0 c 0,-9.712 -8.067,-17.586 -18.018,-17.586 -9.951,0 -18.018,7.874 -18.018,17.586 0,9.712 8.067,17.586 18.018,17.586 C -8.067,17.586 0,9.712 0,0 Z"
             style="fill:none;stroke:#000000;stroke-width:15;stroke-linecap:round;stroke-linejoin:round;stroke-miterlimit:10;stroke-dasharray:none;stroke-opacity:1"
             id="path2641" /></g><g
           id="g2643"
           transform="translate(67.5605,126.1699)"><path
             d="m 0,0 c 0,-11.332 -9.412,-20.517 -21.021,-20.517 -11.61,0 -21.021,9.185 -21.021,20.517 0,11.331 9.411,20.517 21.021,20.517 C -9.412,20.517 0,11.331 0,0 Z"
             style="fill:none;stroke:#000000;stroke-width:15;stroke-linecap:round;stroke-linejoin:round;stroke-miterlimit:10;stroke-dasharray:none;stroke-opacity:1"
             id="path2645" /></g><g
           id="g2647"
           transform="translate(47.54,343.0645)"><path
             d="m 0,0 c 0,-10.792 -8.963,-19.54 -20.02,-19.54 -11.057,0 -20.02,8.748 -20.02,19.54 0,10.792 8.963,19.54 20.02,19.54 C -8.963,19.54 0,10.792 0,0 Z"
             style="fill:none;stroke:#000000;stroke-width:15;stroke-linecap:round;stroke-linejoin:round;stroke-miterlimit:10;stroke-dasharray:none;stroke-opacity:1"
             id="path2649" /></g><g
           id="g2651"
           transform="translate(268.7627,343.0645)"><path
             d="m 0,0 c 0,-10.792 -8.963,-19.54 -20.02,-19.54 -11.057,0 -20.02,8.748 -20.02,19.54 0,10.792 8.963,19.54 20.02,19.54 C -8.963,19.54 0,10.792 0,0 Z"
             style="fill:none;stroke:#000000;stroke-width:15;stroke-linecap:round;stroke-linejoin:round;stroke-miterlimit:10;stroke-dasharray:none;stroke-opacity:1"
             id="path2653" /></g><g
           id="g2655"
           transform="translate(165.1587,380.1904)"><path
             d="m 0,0 c 0,-12.68 -10.532,-22.959 -23.524,-22.959 -12.992,0 -23.523,10.279 -23.523,22.959 0,12.68 10.531,22.959 23.523,22.959 C -10.532,22.959 0,12.68 0,0 Z"
             style="fill:none;stroke:#000000;stroke-width:15;stroke-linecap:round;stroke-linejoin:round;stroke-miterlimit:10;stroke-dasharray:none;stroke-opacity:1"
             id="path2657" /></g><g
           id="g2659"
           transform="translate(412.4072,320.1816)"><path
             d="m 0,0 c 0,-12.68 -10.532,-22.959 -23.523,-22.959 -12.992,0 -23.524,10.279 -23.524,22.959 0,12.68 10.532,22.96 23.524,22.96 C -10.532,22.96 0,12.68 0,0 Z"
             style="fill:none;stroke:#000000;stroke-width:15;stroke-linecap:round;stroke-linejoin:round;stroke-miterlimit:10;stroke-dasharray:none;stroke-opacity:1"
             id="path2661" /></g><g
           id="g2663"
           transform="translate(153.1465,229.7319)"><path
             d="m 0,0 c 0,-8.363 -6.947,-15.144 -15.516,-15.144 -8.568,0 -15.515,6.781 -15.515,15.144 0,8.364 6.947,15.144 15.515,15.144 C -6.947,15.144 0,8.364 0,0 Z"
             style="fill:none;stroke:#000000;stroke-width:15;stroke-linecap:round;stroke-linejoin:round;stroke-miterlimit:10;stroke-dasharray:none;stroke-opacity:1"
             id="path2665" /></g><g
           id="g2667"
           transform="translate(371.3662,164.7227)"><path
             d="m 0,0 c 0,-8.363 -6.947,-15.144 -15.516,-15.144 -8.569,0 -15.515,6.781 -15.515,15.144 0,8.364 6.946,15.144 15.515,15.144 C -6.947,15.144 0,8.364 0,0 Z"
             style="fill:none;stroke:#000000;stroke-width:15;stroke-linecap:round;stroke-linejoin:round;stroke-miterlimit:10;stroke-dasharray:none;stroke-opacity:1"
             id="path2669" /></g><g
           id="g2671"
           transform="translate(465.4609,42.7051)"><path
             d="m 0,0 c 0,-9.667 -7.843,-17.502 -17.518,-17.502 -9.674,0 -17.518,7.835 -17.518,17.502 0,9.667 7.844,17.502 17.518,17.502 C -7.843,17.502 0,9.667 0,0 Z"
             style="fill:none;stroke:#000000;stroke-width:15;stroke-linecap:round;stroke-linejoin:round;stroke-miterlimit:10;stroke-dasharray:none;stroke-opacity:1"
             id="path2673" /></g><g
           id="g2675"
           transform="translate(141.5503,44.4209)"><path
             d="M 0,0 V 22.552"
             style="fill:none;stroke:#000000;stroke-width:15;stroke-linecap:round;stroke-linejoin:round;stroke-miterlimit:10;stroke-dasharray:none;stroke-opacity:1"
             id="path2677" /></g><g
           id="g2679"
           transform="translate(130.2729,55.6968)"><path
             d="M 0,0 H 22.555"
             style="fill:none;stroke:#000000;stroke-width:15;stroke-linecap:round;stroke-linejoin:round;stroke-miterlimit:10;stroke-dasharray:none;stroke-opacity:1"
             id="path2681" /></g><g
           id="g2683"
           transform="translate(262.6719,189.4419)"><path
             d="M 0,0 V 22.552"
             style="fill:none;stroke:#000000;stroke-width:15;stroke-linecap:round;stroke-linejoin:round;stroke-miterlimit:10;stroke-dasharray:none;stroke-opacity:1"
             id="path2685" /></g><g
           id="g2687"
           transform="translate(251.3945,200.7178)"><path
             d="M 0,0 H 22.555"
             style="fill:none;stroke:#000000;stroke-width:15;stroke-linecap:round;stroke-linejoin:round;stroke-miterlimit:10;stroke-dasharray:none;stroke-opacity:1"
             id="path2689" /></g><g
           id="g2691"
           transform="translate(465.3008,125.6108)"><path
             d="M 0,0 V 25.042"
             style="fill:none;stroke:#000000;stroke-width:15;stroke-linecap:round;stroke-linejoin:round;stroke-miterlimit:10;stroke-dasharray:none;stroke-opacity:1"
             id="path2693" /></g><g
           id="g2695"
           transform="translate(452.7783,138.1318)"><path
             d="M 0,0 H 25.045"
             style="fill:none;stroke:#000000;stroke-width:15;stroke-linecap:round;stroke-linejoin:round;stroke-miterlimit:10;stroke-dasharray:none;stroke-opacity:1"
             id="path2697" /></g><g
           id="g2699"
           transform="translate(60.4131,459.1782)"><path
             d="M 0,0 H -25.064"
             style="fill:none;stroke:#000000;stroke-width:15;stroke-linecap:round;stroke-linejoin:round;stroke-miterlimit:10;stroke-dasharray:none;stroke-opacity:1"
             id="path2701" /></g><g
           id="g2703"
           transform="translate(47.8809,446.6665)"><path
             d="M 0,0 V 25.023"
             style="fill:none;stroke:#000000;stroke-width:15;stroke-linecap:round;stroke-linejoin:round;stroke-miterlimit:10;stroke-dasharray:none;stroke-opacity:1"
             id="path2705" /></g><g
           id="g2707"
           transform="translate(448.1772,387.4551)"><path
             d="M 0,0 -9.843,19.669 -29.53,29.504 -9.843,39.339 0,59.009 9.843,39.339 29.53,29.504 9.843,19.669 Z"
             style="fill:none;stroke:#000000;stroke-width:15;stroke-linecap:round;stroke-linejoin:round;stroke-miterlimit:10;stroke-dasharray:none;stroke-opacity:1"
             id="path2709" /></g><g
           id="g2711"
           transform="translate(46.7734,200.4282)"><path
             d="M 0,0 -9.843,19.669 -29.53,29.504 -9.843,39.339 0,59.008 9.843,39.339 29.53,29.504 9.843,19.669 Z"
             style="fill:none;stroke:#000000;stroke-width:15;stroke-linecap:round;stroke-linejoin:round;stroke-miterlimit:10;stroke-dasharray:none;stroke-opacity:1"
             id="path2713" /></g></g></g></g></svg>
