<svg height="480pt" viewBox="0 0 480 480" width="480pt" xmlns="http://www.w3.org/2000/svg"><g fill="#2f3c4f"><path d="m24 448c-2.988281-.003906-5.726562-1.667969-7.097656-4.324219-1.375-2.652343-1.15625-5.851562.570312-8.292969l96-136c2.546875-3.609374 7.542969-4.46875 11.152344-1.917968 3.609375 2.546875 4.46875 7.542968 1.917969 11.152344l-96 136c-1.5 2.125-3.941407 3.386718-6.542969 3.382812zm0 0"/><path d="m40 464c-3.917969-.007812-7.25-2.851562-7.878906-6.71875s1.636718-7.617188 5.351562-8.867188l120-40c4.195313-1.394531 8.730469.875 10.128906 5.074219 1.394532 4.195313-.875 8.730469-5.074218 10.128907l-120 40c-.816406.261718-1.667969.390624-2.527344.382812zm0 0"/><path d="m344 456c-.554688 0-1.109375-.058594-1.65625-.167969l-152-32c-4.324219-.910156-7.09375-5.15625-6.183594-9.480469.910156-4.324218 5.15625-7.09375 9.480469-6.183593l152 32c4.015625.835937 6.75 4.574219 6.324219 8.65625-.421875 4.082031-3.863282 7.179687-7.964844 7.175781zm0 0"/><path d="m152 296c-4.417969.15625-8.125-3.300781-8.28125-7.71875-.152344-4.417969 3.304688-8.125 7.722656-8.28125l112-8c2.128906-.191406 4.242188.496094 5.859375 1.898438 1.613281 1.398437 2.589844 3.398437 2.699219 5.535156.15625 2.121094-.539062 4.21875-1.933594 5.828125-1.394531 1.605469-3.375 2.59375-5.5 2.738281l-112 8c-.191406 0-.390625 0-.566406 0zm0 0"/><path d="m360 344c-1.730469.003906-3.417969-.558594-4.800781-1.601562l-64-48c-3.535157-2.648438-4.25-7.664063-1.597657-11.199219 2.648438-3.535157 7.664063-4.25 11.199219-1.597657l64 48c2.753907 2.066407 3.878907 5.660157 2.789063 8.929688-1.089844 3.265625-4.144532 5.46875-7.589844 5.46875zm0 0"/><path d="m360 440c-.335938 0-.667969-.023438-1-.0625-4.382812-.550781-7.492188-4.546875-6.945312-8.929688l8-64c.640624-4.296874 4.59375-7.296874 8.90625-6.757812s7.402343 4.417969 6.96875 8.742188l-8 64c-.5 4-3.898438 7.003906-7.929688 7.007812zm0 0"/><path d="m280 264c-.441406.003906-.882812-.035156-1.320312-.113281-4.355469-.726563-7.296876-4.84375-6.574219-9.199219l16-96c.390625-2.890625 2.324219-5.335938 5.042969-6.386719s5.792968-.539062 8.027343 1.335938 3.269531 4.816406 2.703125 7.675781l-16 96c-.640625 3.855469-3.972656 6.683594-7.878906 6.6875zm0 0"/><path d="m312 136c-3.105469 0-5.933594-1.796875-7.25-4.609375s-.886719-6.132813 1.105469-8.519531l80-96c2.832031-3.398438 7.882812-3.855469 11.28125-1.023438 3.398437 2.832032 3.855469 7.882813 1.023437 11.28125l-80 96c-1.523437 1.824219-3.78125 2.875-6.160156 2.871094zm0 0"/><path d="m448 112c-3.441406-.003906-6.496094-2.207031-7.585938-5.472656l-24-72c-1.394531-4.195313.875-8.730469 5.074219-10.128906 4.195313-1.394532 8.730469.875 10.128907 5.074218l24 72c.8125 2.441406.398437 5.128906-1.109376 7.214844-1.511718 2.089844-3.933593 3.320312-6.507812 3.3125zm0 0"/></g><path d="m48 456c0 13.253906-10.746094 24-24 24s-24-10.746094-24-24 10.746094-24 24-24 24 10.746094 24 24zm0 0" fill="#fbb040"/><path d="m160 288c0 13.253906-10.746094 24-24 24s-24-10.746094-24-24 10.746094-24 24-24 24 10.746094 24 24zm0 0" fill="#fbb040"/><path d="m200 416c0 13.253906-10.746094 24-24 24s-24-10.746094-24-24 10.746094-24 24-24 24 10.746094 24 24zm0 0" fill="#fbb040"/><path d="m304 272c0 13.253906-10.746094 24-24 24s-24-10.746094-24-24 10.746094-24 24-24 24 10.746094 24 24zm0 0" fill="#fbb040"/><path d="m384 448c0 13.253906-10.746094 24-24 24s-24-10.746094-24-24 10.746094-24 24-24 24 10.746094 24 24zm0 0" fill="#fbb040"/><path d="m400 352c0 13.253906-10.746094 24-24 24s-24-10.746094-24-24 10.746094-24 24-24 24 10.746094 24 24zm0 0" fill="#fbb040"/><path d="m328 144c0 13.253906-10.746094 24-24 24s-24-10.746094-24-24 10.746094-24 24-24 24 10.746094 24 24zm0 0" fill="#fbb040"/><path d="m432 24c0 13.253906-10.746094 24-24 24s-24-10.746094-24-24 10.746094-24 24-24 24 10.746094 24 24zm0 0" fill="#fbb040"/><path d="m480 120c0 13.253906-10.746094 24-24 24s-24-10.746094-24-24 10.746094-24 24-24 24 10.746094 24 24zm0 0" fill="#fbb040"/><path d="m60.28125 48.96875-6.679688-6.695312c4.429688-9.144532 2.582032-20.089844-4.601562-27.273438s-18.128906-9.03125-27.273438-4.601562l-6.695312-6.695313c-3.128906-3.121094-8.195312-3.121094-11.320312.007813-3.121094 3.128906-3.117188 8.199218.007812 11.320312l6.695312 6.695312c-4.421874 9.140626-2.578124 20.078126 4.601563 27.261719 7.179687 7.179688 18.113281 9.03125 27.257813 4.613281l6.695312 6.695313c3.128906 3.121094 8.195312 3.121094 11.320312-.007813 3.121094-3.128906 3.117188-8.199218-.007812-11.320312zm0 0" fill="#2f3c4f"/><path d="m80 192c0 8.835938-7.164062 16-16 16s-16-7.164062-16-16 7.164062-16 16-16 16 7.164062 16 16zm0 0" fill="#2f3c4f"/><path d="m384 208c0-4.417969-3.582031-8-8-8s-8 3.582031-8 8c-4.417969 0-8 3.582031-8 8s3.582031 8 8 8c0 4.417969 3.582031 8 8 8s8-3.582031 8-8c4.417969 0 8-3.582031 8-8s-3.582031-8-8-8zm0 0" fill="#506f86"/><path d="m197.65625 82.34375c-3.125-3.121094-8.1875-3.121094-11.3125 0l-2.34375 2.34375-2.34375-2.34375c-3.140625-3.03125-8.128906-2.988281-11.214844.097656-3.085937 3.085938-3.128906 8.074219-.097656 11.214844l2.34375 2.34375-2.34375 2.34375c-2.078125 2.007812-2.914062 4.984375-2.179688 7.78125.730469 2.796875 2.914063 4.980469 5.710938 5.710938 2.796875.734374 5.773438-.101563 7.78125-2.179688l2.34375-2.34375 2.34375 2.34375c3.140625 3.03125 8.128906 2.988281 11.214844-.097656 3.085937-3.085938 3.128906-8.074219.097656-11.214844l-2.34375-2.34375 2.34375-2.34375c3.121094-3.125 3.121094-8.1875 0-11.3125zm0 0" fill="#506f86"/><path d="m480 288c-.019531-10.140625-6.429688-19.171875-16-22.527344v-9.472656c0-4.417969-3.582031-8-8-8s-8 3.582031-8 8v9.472656c-6.785156 2.40625-12.121094 7.742188-14.527344 14.527344h-9.472656c-4.417969 0-8 3.582031-8 8s3.582031 8 8 8h9.472656c2.40625 6.785156 7.742188 12.121094 14.527344 14.527344v9.472656c0 4.417969 3.582031 8 8 8s8-3.582031 8-8v-9.472656c9.570312-3.355469 15.980469-12.386719 16-22.527344zm0 0" fill="#2f3c4f"/></svg>