<svg id="flat" height="512" viewBox="0 0 960 960" width="512" xmlns="http://www.w3.org/2000/svg"><path d="m277.471 637.387c6.779-3.626 9.173-5.459 18.34-11.534 11.936-7.91 6.952-23.544-4.448-23.22-10.759.305-15.51 1.332-26.448 2.417-10.474-24.993-19.499-33.303-31.973-27.176-5.734 2.817-10.108 13.072-15.164 32.028-8.611.867-17.255 1.139-25.691 2.415-13.655 2.065-12.056 13.837-3.855 18.88l21.636 11.947c-.791 3.287-4.019 11.185-4.477 12.904-1.321 4.959-2.317 7.584-3.807 15.564-3.254 17.421 11.565 24.298 21.731 15.088 7.359-6.666 14.796-13.436 22.259-20.239 9.371 5.763 12.313 7.573 21.684 13.336 6.067 3.731 15.53 5.547 20.006-.013 4.233-5.257 3.654-13.504.392-20.394-2.008-4.243-5.067-8.268-10.185-22.004z" fill="#fecf87"/><path d="m825.943 558.573c6.779-3.626 9.173-5.459 18.34-11.534 11.936-7.91 6.952-23.544-4.448-23.22-10.759.305-15.51 1.332-26.448 2.417-10.474-24.993-19.499-33.303-31.973-27.176-5.734 2.817-10.108 13.072-15.164 32.028-8.611.867-17.255 1.139-25.691 2.415-13.655 2.065-12.056 13.837-3.855 18.88l21.636 11.947c-.791 3.287-4.019 11.185-4.477 12.904-1.321 4.959-2.317 7.584-3.807 15.564-3.254 17.421 11.565 24.298 21.731 15.088 7.359-6.666 14.796-13.436 22.259-20.239 9.371 5.763 12.313 7.573 21.684 13.336 6.067 3.731 15.53 5.547 20.006-.013 4.233-5.257 3.654-13.504.392-20.394-2.008-4.243-5.067-8.268-10.185-22.004z" fill="#fecf87"/><path d="m592.337 781.656c6.779-3.626 9.173-5.459 18.34-11.534 11.936-7.91 6.952-23.544-4.448-23.22-10.759.305-15.51 1.332-26.448 2.417-10.474-24.993-19.499-33.303-31.973-27.176-5.734 2.817-10.108 13.072-15.164 32.028-8.611.867-17.255 1.139-25.691 2.415-13.655 2.065-12.056 13.837-3.855 18.88l21.636 11.947c-.791 3.287-4.019 11.185-4.477 12.904-1.321 4.959-2.317 7.584-3.807 15.564-3.254 17.421 11.565 24.298 21.731 15.088 7.359-6.666 14.796-13.436 22.259-20.239 9.371 5.763 12.313 7.573 21.684 13.336 6.067 3.731 15.53 5.547 20.006-.013 4.233-5.257 3.654-13.504.392-20.394-2.008-4.243-5.067-8.268-10.185-22.004z" fill="#fecf87"/><path d="m240.771 253.883c8.668-1.943 11.888-3.218 23.945-7.095 15.7-5.048 14.57-23.135 1.648-26.025-12.197-2.728-17.837-2.981-30.459-4.928-4.626-29.625-12.402-41.049-28.197-38.054-7.26 1.377-15.122 11.071-26.243 29.851-9.94-1.519-19.746-3.682-29.607-4.715-15.96-1.673-17.533 11.334-9.749 19.04l20.927 18.881c-1.832 3.281-7.729 10.788-8.736 12.49-2.907 4.914-4.78 7.43-8.745 15.517-8.654 17.654 6.053 29.194 20.134 22.258 10.192-5.021 20.503-10.129 30.85-15.266 8.895 8.805 11.687 11.57 20.584 20.376 5.759 5.701 15.89 10.323 22.52 5.664 6.27-4.405 7.982-13.364 6.285-21.637-1.045-5.095-3.334-10.255-5.158-26.356z" fill="#fecf87"/><path d="m550.837 438.169c7.944-3.974 10.763-5.988 21.53-12.656 14.021-8.683 8.567-25.964-4.672-25.655-12.495.292-18.03 1.405-30.749 2.557-11.628-27.637-21.928-36.851-36.536-30.138-6.715 3.086-12.008 14.389-18.277 35.295-10.013.921-20.052 1.185-29.87 2.558-15.893 2.222-14.285 15.225-4.873 20.828l24.86 13.282c-.987 3.626-4.902 12.332-5.469 14.227-1.638 5.469-2.849 8.363-4.748 17.167-4.145 19.22 12.909 26.875 24.904 16.75 8.682-7.329 17.458-14.771 26.263-22.25 10.755 6.403 14.131 8.413 24.887 14.815 6.963 4.145 17.909 6.19 23.221.07 5.024-5.786 4.526-14.894.886-22.514-2.241-4.693-5.707-9.149-11.357-24.336z" fill="#fecf87"/><g fill="#a8b8c2"><path d="m225.699 470.093c-5.021 0-9.348-3.772-9.924-8.879l-4.696-41.6c-.62-5.488 3.327-10.439 8.814-11.059 5.492-.616 10.44 3.327 11.059 8.815l4.696 41.599c.62 5.488-3.327 10.439-8.814 11.059-.381.043-.76.064-1.135.064z"/><path d="m215.433 389.752c-5.134 0-9.502-3.931-9.951-9.141l-3.652-42.366c-.475-5.502 3.602-10.347 9.104-10.821 5.486-.479 10.347 3.602 10.821 9.104l3.652 42.364c.475 5.502-3.602 10.348-9.104 10.822-.292.025-.583.038-.871.038z"/><path d="m233.796 543.855c-4.935 0-9.229-3.652-9.899-8.677l-4.088-30.621c-.73-5.474 3.115-10.504 8.589-11.235 5.479-.733 10.505 3.115 11.235 8.589l4.088 30.619c.731 5.474-3.114 10.504-8.588 11.236-.449.06-.896.089-1.337.089z"/><path d="m334.83 589.538c-3.012 0-5.988-1.354-7.956-3.933-3.352-4.39-2.51-10.665 1.88-14.017l28.567-21.809c4.391-3.352 10.666-2.509 14.017 1.881 3.352 4.39 2.51 10.665-1.88 14.017l-28.567 21.809c-1.812 1.383-3.945 2.052-6.061 2.052z"/><path d="m399.965 545.132c-3.119 0-6.191-1.455-8.144-4.186-3.212-4.493-2.174-10.739 2.319-13.951l22.934-16.395c4.491-3.211 10.738-2.173 13.95 2.32s2.174 10.739-2.319 13.951l-22.934 16.395c-1.762 1.26-3.794 1.866-5.807 1.866z"/><path d="m532.288 631.541c-5.122 0-9.485-3.913-9.949-9.112l-3.061-34.318c-.491-5.501 3.57-10.358 9.071-10.849 5.508-.492 10.358 3.57 10.849 9.072l3.062 34.318c.491 5.501-3.57 10.358-9.071 10.849-.302.027-.603.04-.9.04z"/><path d="m524.701 561.456c-4.954 0-9.256-3.679-9.905-8.724l-4.604-35.763c-.705-5.478 3.163-10.49 8.641-11.195 5.478-.707 10.49 3.163 11.195 8.641l4.604 35.763c.705 5.478-3.163 10.49-8.641 11.195-.434.056-.864.083-1.29.083z"/><path d="m538.297 696.527c-4.89 0-9.165-3.59-9.885-8.571l-3.161-21.878c-.789-5.466 3.001-10.538 8.468-11.328 5.471-.788 10.537 3.002 11.327 8.467l3.161 21.878c.789 5.466-3.001 10.538-8.468 11.328-.484.07-.967.104-1.442.104z"/><path d="m634.047 723.871c-2.78 0-5.546-1.152-7.523-3.408-3.641-4.153-3.226-10.471.927-14.112l28.005-24.552c4.155-3.64 10.471-3.226 14.112.927s3.226 10.471-.927 14.112l-28.005 24.552c-1.898 1.664-4.249 2.48-6.589 2.48z"/><path d="m692.283 672.248c-2.62 0-5.237-1.023-7.2-3.059-3.833-3.976-3.718-10.306.258-14.14l24.173-23.304c3.977-3.833 10.308-3.716 14.14.259 3.833 3.976 3.717 10.307-.259 14.14l-24.171 23.303c-1.94 1.871-4.442 2.801-6.94 2.801z"/></g><path d="m749.318 293.487c5.537 15.553 14.101 34.525 30.163 38.344-17.556 10.869-24.581 29.226-28.722 49.455-2.783-23.812-15.605-36.267-28.722-46.055 12.385-8.529 24.285-27.159 27.281-41.744z" fill="#fecf87"/><path d="m136.124 728.347c5.537 15.553 14.101 34.525 30.163 38.344-17.556 10.869-24.581 29.226-28.722 49.455-2.783-23.812-15.605-36.267-28.722-46.055 12.385-8.529 24.285-27.159 27.281-41.744z" fill="#fecf87"/><path d="m470.797 124.935c5.537 15.553 14.101 34.525 30.163 38.344-17.556 10.869-24.581 29.226-28.722 49.455-2.783-23.812-15.605-36.267-28.722-46.055 12.385-8.529 24.285-27.159 27.281-41.744z" fill="#fecf87"/><path d="m270.263 808.704h-2.442c-5.522 0-10-4.477-10-10s4.478-10 10-10h2.442c5.522 0 10 4.477 10 10s-4.478 10-10 10z" fill="#f2ab5a"/><path d="m413.267 717.255c-4.171 0-8.062-2.629-9.472-6.799-.702-2.076-.815-3.706-.869-4.621-1.466-5.101 1.325-10.505 6.404-12.226 5.23-1.772 10.908 1.033 12.681 6.263.704 2.08.817 3.713.871 4.629 1.465 5.103-1.329 10.505-6.41 12.224-1.062.359-2.143.53-3.205.53z" fill="#f2ab5a"/><path d="m768.062 782.494c-5.522 0-10-4.477-10-10l-.007-.702c-.019-1.345-.042-3.018.305-5.905.657-5.484 5.635-9.4 11.119-8.738 5.483.657 9.396 5.635 8.738 11.119-.188 1.563-.178 2.233-.164 3.247.005.322.009.644.009.979 0 5.523-4.478 10-10 10z" fill="#f2ab5a"/><path d="m362.044 311.522h-2.769c-5.522 0-10-4.477-10-10s4.478-10 10-10h2.769c5.522 0 10 4.477 10 10s-4.478 10-10 10z" fill="#f2ab5a"/><path d="m665.635 188.894c-5.522 0-10-4.477-10-10v-2.19c0-5.523 4.478-10 10-10s10 4.477 10 10v2.19c0 5.523-4.478 10-10 10z" fill="#f2ab5a"/></svg>