<?xml version="1.0" encoding="UTF-8"?>
<svg xmlns="http://www.w3.org/2000/svg" viewBox="0 0 60 60" width="512" height="512"><g id="Icons_copy" data-name="Icons copy"><circle cx="18" cy="47" r="4" style="fill:#ffeb3a"/><path d="M16.5,43.3a4,4,0,0,1,0,7.406,4,4,0,1,0,0-7.406Z" style="fill:#fdd834"/><circle cx="42" cy="55" r="4" style="fill:#ffeb3a"/><path d="M40.5,51.3a4,4,0,0,1,0,7.406,4,4,0,1,0,0-7.406Z" style="fill:#fdd834"/><circle cx="33" cy="32" r="4" style="fill:#ffeb3a"/><path d="M31.5,28.3a4,4,0,0,1,0,7.406,4,4,0,1,0,0-7.406Z" style="fill:#fdd834"/><circle cx="30" cy="17" r="4" style="fill:#ffeb3a"/><path d="M28.5,13.3a4,4,0,0,1,0,7.406,4,4,0,1,0,0-7.406Z" style="fill:#fdd834"/><circle cx="13" cy="5" r="4" style="fill:#ffeb3a"/><path d="M11.5,1.3a4,4,0,0,1,0,7.406,4,4,0,1,0,0-7.406Z" style="fill:#fdd834"/><path d="M58,18a1,1,0,0,1-.707-.293l-4-4a1,1,0,0,1,1.414-1.414l4,4A1,1,0,0,1,58,18Z"/><path d="M54,18a1,1,0,0,1-.707-1.707l4-4a1,1,0,0,1,1.414,1.414l-4,4A1,1,0,0,1,54,18Z"/><path d="M22,36a1,1,0,0,1-.707-.293l-4-4a1,1,0,0,1,1.414-1.414l4,4A1,1,0,0,1,22,36Z"/><path d="M18,36a1,1,0,0,1-.707-1.707l4-4a1,1,0,0,1,1.414,1.414l-4,4A1,1,0,0,1,18,36Z"/><path d="M43,8a1,1,0,0,1-.707-.293l-4-4a1,1,0,0,1,1.414-1.414l4,4A1,1,0,0,1,43,8Z"/><path d="M39,8a1,1,0,0,1-.707-1.707l4-4a1,1,0,1,1,1.414,1.414l-4,4A1,1,0,0,1,39,8Z"/><path d="M8,30a1,1,0,0,1-.707-.293l-4-4a1,1,0,0,1,1.414-1.414l4,4A1,1,0,0,1,8,30Z"/><path d="M4,30a1,1,0,0,1-.707-1.707l4-4a1,1,0,0,1,1.414,1.414l-4,4A1,1,0,0,1,4,30Z"/><path d="M42,21a1,1,0,0,1-.707-.293l-3-3a1,1,0,0,1,1.414-1.414l3,3A1,1,0,0,1,42,21Z"/><path d="M39,21a1,1,0,0,1-.707-1.707l3-3a1,1,0,0,1,1.414,1.414l-3,3A1,1,0,0,1,39,21Z"/><path d="M53,32a1,1,0,0,1-.707-.293l-4-4a1,1,0,0,1,1.414-1.414l4,4A1,1,0,0,1,53,32Z"/><path d="M49,32a1,1,0,0,1-.707-1.707l4-4a1,1,0,0,1,1.414,1.414l-4,4A1,1,0,0,1,49,32Z"/><path d="M47,44a1,1,0,0,1-.707-.293l-3-3a1,1,0,0,1,1.414-1.414l3,3A1,1,0,0,1,47,44Z"/><path d="M44,44a1,1,0,0,1-.707-1.707l3-3a1,1,0,0,1,1.414,1.414l-3,3A1,1,0,0,1,44,44Z"/><path d="M17,20a1,1,0,0,1-.707-.293l-3-3a1,1,0,0,1,1.414-1.414l3,3A1,1,0,0,1,17,20Z"/><path d="M14,20a1,1,0,0,1-.707-1.707l3-3a1,1,0,0,1,1.414,1.414l-3,3A1,1,0,0,1,14,20Z"/><path d="M8,45a1,1,0,0,1-.707-.293l-3-3a1,1,0,0,1,1.414-1.414l3,3A1,1,0,0,1,8,45Z"/><path d="M5,45a1,1,0,0,1-.707-1.707l3-3a1,1,0,0,1,1.414,1.414l-3,3A1,1,0,0,1,5,45Z"/><path d="M37,55a5.085,5.085,0,1,0,4.155-4.915L35.709,36.191A4.991,4.991,0,0,0,33.023,27l-1.084-5.394a5,5,0,1,0-5.365-8.231c-.9-.63-2.531-1.8-4.032-2.868C19.869,8.6,18.415,7.562,17.58,6.992a5.051,5.051,0,1,0-1.149,1.627c1.058.739,3.168,2.245,4.949,3.517,2.1,1.5,3.31,2.363,4.043,2.866a4.986,4.986,0,0,0,4.554,7l1.084,5.394a4.989,4.989,0,0,0-2.228,7.361l-8.08,8.08a5.015,5.015,0,1,0,1.414,1.414l8.08-8.08a4.786,4.786,0,0,0,3.6.748l5.446,13.894A4.993,4.993,0,0,0,37,55ZM13,8a3,3,0,1,1,3-3A3,3,0,0,1,13,8Zm14,9a3,3,0,1,1,3,3A3,3,0,0,1,27,17ZM18,50a3,3,0,1,1,3-3A3,3,0,0,1,18,50ZM30,32a3,3,0,1,1,3,3A3,3,0,0,1,30,32ZM42,52a3,3,0,1,1-3,3A3,3,0,0,1,42,52Z"/></g></svg>
