<svg id="Astronaut" height="512" viewBox="0 0 512 512" width="512" xmlns="http://www.w3.org/2000/svg">
    <g>
        <path d="m394.063 390.601-306.257-13.506-12.23-161.855h297.287z" fill="none"/>
        <ellipse cx="200.128" cy="448.153" fill="none" rx="124.552" ry="23.926"/>
        <g>
            <path d="m100.054 193.381c-2.206 4.072-7.023 6.196-16.53 5.492-6.239-10.421-13.986-26.735-15.863-45.044 6.309-5.449 15.212-10.132 21.126-10.915 1.864 18.911 12.511 48.171 11.267 50.467z"
                  fill="#bac3eb"/>
            <path d="m110.874 154.905-1.594.321-11.883-98.632 7.637-3.349z" fill="#7581cf"/>
            <path d="m292.566 184.526c3.027 3.506 8.187 4.549 17.322 1.826 3.864-11.515 7.938-29.109 5.853-47.396-7.33-3.972-17.028-6.64-22.973-6.14 2.228 18.873-1.908 49.734-.202 51.71z"
                  fill="#bac3eb"/>
            <g>
                <path d="m302.864 125.308c-34.154-33.098-135.206-44.018-218.302 1.957-4.731 34.956 26.936 159.187 38.203 188.411 86.617 77.11 145.971 23.474 155.126 6.573 5.159-9.526 32.709-118.457 24.973-196.941z"
                      fill="#d5dffa"/>
                <path d="m277.89 166.856c.92-24.375-4.461-45.396-13.808-62.269-37.637-11.428-91.142-11.794-142.636 6.217-2.224 5.239-4.204 10.893-5.898 16.985-21.686 8.919-18.372 25.687-6.57 43.17-8.051 6.07-14.015 12.838-17.996 20.318 4.272 22.782 9.996 47.64 15.607 69.502 90.278 68.321 155.208 8.186 165.031-9.948 2.691-4.967 17.716-11.482 26.919-22.461 1.483-10.507 2.774-21.39 3.749-32.378-3.953-8.36-11.573-17.99-24.398-29.136z"
                      fill="#a0afe0"/>
            </g>
            <g>
                <path d="m293.849 186.785c-29.481-20.232-38.316-12.42-38.316-12.42s-12.776 33.053-7.463 54.05c11.147 12.909 20.279 23.975 27.882 33.293 25.899 22.68 46.603 29.014 55.006 28.06 14.29-1.621 21.769-5.399 25.384-13.066 3.934-1.975 6.777-3.775 8.808-7.38-.114-20.646-30.588-20.444-71.301-82.537z"
                      fill="#bfcef2"/>
                <path d="m310.267 209.398c-11.265 11.828-21.446 21.739-35.431 51.314 1.844 1.639 3.662 3.195 5.452 4.672 14.995-26.975 28.438-37.285 39.079-45.399-2.935-3.21-5.971-6.719-9.1-10.587z"
                      fill="#e38e32"/>
                <path d="m365.15 269.322c-.029-5.158-1.952-9.015-5.456-12.866.333 3.154.741 6.131 1.249 8.029.645 2.406 6.664 5.584-7.462 10.887-10.596 9.248-26.026 10.192-30.599 9.397-7.329-1.274-37.513-11.496-49.792-48.99 12.08-26.331 14.544-44.033 6.029-53.888-6.651-4.118-12.464-7.093-17.492-9.008-4.394-.019-6.094 1.482-6.094 1.482s-17.919 46.356-2.491 64.147c36.201 41.744 67.151 52.478 77.916 51.256 14.29-1.621 21.769-5.399 25.384-13.066 3.934-1.975 6.777-3.775 8.808-7.38z"
                      fill="#a3a7db"/>
                <path d="m337.455 237.54c-1.713-1.478-3.492-3.057-5.331-4.75-17.306 2.884-33.129 11.01-25.233 33.181 1.191-24.832 16.79-29.65 30.564-28.431z"
                      fill="#a3a7db"/>
                <path d="m326.453 205.141c-5.057 11.64-9.532 22.702-22.229 44.254 15.563 29.918 56.418 25.439 64.528 13.86-2.374-14.73-3.825-34.162-4.074-55.44-3.839-12.24-27.802-20.036-38.225-2.674z"
                      fill="#99d4eb"/>
                <path d="m364.717 210.359c-.014-.847-.029-1.691-.039-2.544-3.839-12.24-27.802-20.036-38.225-2.674-5.057 11.64-9.532 22.702-22.229 44.254.445.856.917 1.677 1.402 2.477 12.787-15.658 17.131-30.382 24.455-45.661 3.863.629 25.157 4.119 34.636 4.148z"
                      fill="#76b5de"/>
                <path d="m368.752 263.255c-.414-2.571-.799-5.294-1.156-8.137-13.21 9.201-44.821 10.331-58.437-14.301-1.498 2.671-3.131 5.515-4.935 8.578 15.563 29.918 56.418 25.439 64.528 13.86z"
                      fill="#e38e32"/>
                <path d="m309.159 240.817c-1.498 2.671-3.131 5.515-4.935 8.578.444.854.915 1.673 1.399 2.472 2.099-2.57 3.974-5.116 5.668-7.642-.746-1.083-1.467-2.205-2.132-3.408z"
                      fill="#cc701f"/>
                <path d="m375.118 192.747c-1.924-3.825-10.948-17.708-21.161-22.894-2.892-.51-9.405-.177-14.456.327-2.143 1.495-4.216 3.782-6.159 7.051 1.591 8.891 5.747 25.1 8.682 31.191 1.299.215 2.582.403 3.82.579.916 2.803 4.463 5.256 12.214 5.253 10.696-.002 13.637-7.956 17.06-21.507z"
                      fill="#99d4eb"/>
                <path d="m364.021 213.119c4.253-4.563 8.193-11.129 7.917-19.254-.09-2.658-.989-6.277-2.414-9.675-2.513-3.314-5.668-6.944-9.162-9.939-5.502-1.269-13.533-.907-16.006.415-1.997 1.068-9.817 20.104-11.298 31.533 4.087 1.525 8.678 2.218 12.786 2.803.916 2.803 4.463 5.256 12.214 5.253 2.335-.001 4.282-.402 5.963-1.136z"
                      fill="#76b5de"/>
                <path d="m365.15 130.71c-6.577 5.268-16.998 24.993-21.404 31.525-3.295 4.883 7.544 12.106 11.133 10.235 3.142-1.639 19.341-28.535 21.264-32.34 3.16-6.253-6.62-12.923-10.993-9.42z"
                      fill="#99d4eb"/>
                <path d="m365.15 130.71c-2.317 1.856-5.112 5.51-7.953 9.746 3.375 3.388 8.2 7.143 13.858 8.425 2.524-4.174 4.492-7.572 5.087-8.751 3.161-6.253-6.619-12.923-10.992-9.42z"
                      fill="#668ac4"/>
                <path d="m376.142 140.129c-8.092 8.657-15.763 21.878-18.321 24.072-3.919-2.551-4.416-6.739-9.687-9.09-1.745 2.927-3.263 5.457-4.388 7.124-3.295 4.883 7.544 12.106 11.133 10.235 3.142-1.639 19.338-28.53 21.263-32.339 0 0 0-.001 0-.002z"
                      fill="#76b5de"/>
                <path d="m359.347 189.582c3.395-1.016 9.932-8.907 12.539-12.281 4.284-5.544-6.694-18.009-10.195-13.634-3.502 4.374-6.854 10.15-11.412 15.236-3.932 4.387 5.19 11.839 9.068 10.679z"
                      fill="#99d4eb"/>
                <path d="m358.149 187.427c-.209-.078-.414-.16-.619-.243 1.914 1.289 4.011 2.006 5.419 1.585 2.795-.837 7.716-6.329 10.823-10.128 1.161-2.476 1.024-4.339.944-7.282-9.743 12.865-11.074 13.899-16.567 16.068z"
                      fill="#76b5de"/>
                <path d="m355.081 172.845c-1.474 2.042-3.047 4.101-4.802 6.058-3.932 4.387 5.19 11.839 9.068 10.679 1.966-.588 4.983-3.482 7.682-6.469-1.812-3.589-8.22-7.949-11.948-10.268z"
                      fill="#668ac4"/>
                <path d="m366.281 181.92c-3.028 3.305-4.828 4.202-8.132 5.507-4.336-1.615-7.81-4.305-7.87-8.524-3.932 4.387 5.19 11.839 9.068 10.679 1.963-.587 4.973-3.473 7.67-6.455-.2-.395-.435-.797-.736-1.207z"
                      fill="#536ab0"/>
                <path d="m365.716 198.686c2.882-.329 9.286-5.744 11.873-8.086 4.251-3.849-2.796-15.474-6.248-12.455s-6.986 7.189-11.391 10.629c-3.8 2.969 2.474 10.288 5.766 9.912z"
                      fill="#99d4eb"/>
                <path d="m365.466 183.827c-1.711 1.683-3.521 3.389-5.516 4.947-3.8 2.969 2.474 10.288 5.766 9.912 1.536-.175 4.071-1.797 6.496-3.627-.564-3.005-2.286-6.945-6.746-11.232z"
                      fill="#668ac4"/>
                <path d="m378.863 187.931c-8.019 7.331-9.387 7.957-13.802 8.847-3.26-1.927-5.672-4.595-5.111-8.003-.001.001-.002.001-.003.002-3.792 2.971 2.478 10.285 5.769 9.909 2.882-.329 9.286-5.744 11.873-8.086.756-.685 1.149-1.618 1.274-2.669z"
                      fill="#76b5de"/>
                <path d="m371.937 193.865c-2.623 1.924-4.184 2.371-6.876 2.913-3.26-1.927-5.672-4.595-5.111-8.003-.001.001-.002.002-.004.002-3.792 2.971 2.479 10.285 5.77 9.909 1.536-.175 4.07-1.797 6.496-3.626-.073-.384-.162-.782-.275-1.195z"
                      fill="#536ab0"/>
                <path d="m352.252 195.222c-.596-6.249-3.867-9.479-9.176-12.218 2.111-2.602 3.28-5.702 4.466-8.154 2.258 4.244 7.722 9.416 11.735 7.223 3.761-2.055 4.684-6.975 4.134-10.955-6.52-4.568-10.752-9.341-15.973-14.68-4.508-4.609-13.018.764-14.037 3.904-3.761 11.59-11.229 15.176-14.591 24.925 6.476 8.719 1.765 25.777 24.677 24.061 8.096-.607 9.432-7.114 8.765-14.106z"
                      fill="#99d4eb"/>
                <path d="m363.411 171.118c-3.708-2.598-6.672-5.267-9.503-8.065-2.573 2.766-6.417 7.664-6.674 12.45.103-.22.205-.442.307-.653 2.258 4.244 7.722 9.416 11.735 7.223 3.762-2.055 4.685-6.975 4.135-10.955z"
                      fill="#668ac4"/>
                <path d="m347.351 171.434c-1.836 3.587-3.837 8.091-6.097 12.29 11.248 6.619 10.456 18.535 4.791 25.152 5.814-1.688 6.796-7.478 6.207-13.654-.596-6.249-3.867-9.479-9.176-12.218 2.111-2.602 3.28-5.702 4.466-8.154 2.258 4.244 7.722 9.416 11.735 7.223 3.761-2.055 4.684-6.975 4.134-10.955-2.802 13.325-8.476 10.313-16.06.316z"
                      fill="#76b5de"/>
            </g>
            <path d="m134.512 124.638c-8.837 0-15.906 3.151-26.935 14.36-3.967 9.09-.386 21.43 6.61 31.961 5.325 4.525 11.91 8.546 14.287 6 1.34-1.435 3.81-38.203 6.038-52.321z"
                  fill="#99d4eb"/>
            <path d="m117.225 173.37c4.571 3.372 9.31 5.666 11.249 3.589 1.34-1.435 3.81-38.203 6.038-52.321-5.606 0-10.503 1.278-16.149 5.067-5.585 10.32-6.963 32.159-1.138 43.665z"
                  fill="#77a4cc"/>
            <path d="m284.447 140.801c-9.427-12.586-16.01-16.656-24.768-17.84.316 14.289-2.164 51.057-1.028 52.658 2.015 2.841 9.079-.261 14.962-4.031 8.344-9.498 13.546-21.247 10.834-30.787z"
                  fill="#99d4eb"/>
            <path d="m275.484 130.586c-5.273-4.822-10.075-6.851-15.805-7.625.316 14.289-2.164 51.057-1.028 52.658 1.636 2.307 6.6.695 11.559-2.01 7.366-10.23 9.112-31.68 5.274-43.023z"
                  fill="#77a4cc"/>
            <path d="m125.936 172.866s-11.446-2.841-28.229 28.731c-8.45 94.128-41.782 57.979-23.473 87.79 20.539 6.69 31.86 13.181 48.707 6.69 10.109-3.895 9.823-22.363 22.616-76.116 5.452-22.908-19.621-47.095-19.621-47.095z"
                  fill="#bfcef2"/>
            <path d="m125.936 172.866s-2.217-.547-6.127 1.525c-3.559 4.018-7.327 9.356-11.302 16.055-2.993 12.676 5.369 37.026 15.932 49.47-11.718 62.859-19.904 43.823-55.502 36.64-.533 2.27.868 5.618 5.298 12.831 20.539 6.69 31.86 13.181 48.707 6.69 10.109-3.895 9.823-22.363 22.616-76.116 5.451-22.908-19.622-47.095-19.622-47.095z"
                  fill="#a3a7db"/>
            <path d="m93.59 230.827c-1.098 5.318-2.3 9.927-3.563 13.932 12.656 4.331 24.726 10.664 38.085 19.101 3.849 2.431 7.413 1.545 8.054-.712.029-.139.059-.285.087-.425.132-1.163-.451-2.617-2.045-4.145-5.954-5.707-24.756-19.283-40.618-27.751z"
                  fill="#e38e32"/>
            <path d="m122.59 249.28c-.759 3.613-1.51 6.878-2.261 9.84 2.557 1.508 5.139 3.07 7.783 4.74 5.935 3.749 11.204-.386 6.096-5.282-2.282-2.187-6.452-5.53-11.618-9.298z"
                  fill="#cc701f"/>
            <g>
                <path d="m122.765 297.837s-41.548-18.485-57.216-10.915c2.113 14.964 3.274 31.689-.352 59.857 9.33 25.803-2.641 33.977 32.481 53.022 5.08 2.754 13.764-12.764 0-19.573 8.402.952 12.318-2.324 13.696-10.29.916-5.303-3.796-5.73-.052-22.279 9.506-27.992 11.443-49.822 11.443-49.822z"
                      fill="#99d4eb"/>
                <path d="m122.765 297.837s-10.109-4.496-22.234-8.146c-1.388 21.87.88 29.337 7.046 45.116-5.869 17.37-1.381 29.95-.569 39.95.126 1.547-12.236 7.276-13.82-2.175-1.822-10.871-3.609-26.419-17.957-26.507 14.612 2.817 12.147 29.841 18.221 35.034 8.832 3.521 3.284 10.607.528 12.235-24.503-10.323-21.295-25.558-26.369-38.58 4.837 19.767-1.153 28.108 30.067 45.037 5.08 2.754 13.764-12.764 0-19.573 8.402.952 12.318-2.324 13.696-10.29.916-5.303-3.796-5.73-.052-22.279 9.506-27.992 11.443-49.822 11.443-49.822z"
                      fill="#76b5de"/>
                <path d="m65.549 286.922c.47 3.33.893 6.748 1.226 10.359 21.234-.601 45.473 4.683 54.878 8.92.839-5.301 1.111-8.364 1.111-8.364s-41.547-18.485-57.215-10.915z"
                      fill="#e38e32"/>
                <path d="m100.137 300.199c9.249 1.742 17.051 3.989 21.517 6.001.839-5.301 1.111-8.363 1.111-8.363s-10.109-4.496-22.233-8.146c-.249 3.919-.383 7.386-.395 10.508z"
                      fill="#cc701f"/>
                <path d="m88.788 352.941c-1.951-3.343-7.306-8.098-13.556-6.866 11.883 1.408 14.876 11.355 15.58 22.27.175 2.724 2.711 3.038 2.282-.756-.625-5.531-2.355-11.306-4.306-14.648z"
                      fill="#76b5de"/>
                <path d="m97.678 380.228c.134.015.257.02.389.033-1.066-.585-2.252-1.226-3.499-1.942-6.954 3.169-8.158 9.303-9.076 14.032 3.262 2.322 7.26 4.779 12.186 7.45 5.08 2.754 13.764-12.764 0-19.573z"
                      fill="#668ac4"/>
                <path d="m97.678 380.228c.134.015.257.02.389.033-1.065-.585-2.252-1.226-3.499-1.942-.858.391-1.627.828-2.321 1.301.364.598.759 1.108 1.205 1.489 8.832 3.521 3.284 10.607.528 12.235-3.018-1.271-5.596-2.621-7.84-4.028-.258 1.045-.46 2.07-.647 3.035 3.262 2.322 7.26 4.779 12.186 7.45 5.079 2.754 13.763-12.764-.001-19.573z"
                      fill="#536ab0"/>
                <path d="m90.812 368.345c-.613 3.608 1.32 10.739 6.866 11.883 8.402.952 12.318-2.324 13.696-10.29.146-.846.148-1.568.065-2.251-9.214-1.011-16.99-1.099-20.627.658z"
                      fill="#668ac4"/>
                <g fill="#536ab0">
                    <path d="m107.008 374.757c.126 1.547-12.236 7.276-13.82-2.175-.256-1.53-.513-3.154-.803-4.813-.584.165-1.114.354-1.573.576-.613 3.608 1.32 10.739 6.866 11.883 8.402.952 12.318-2.324 13.696-10.29.146-.846.148-1.568.065-2.251-1.88-.206-3.701-.374-5.439-.495.417 2.685.816 5.198 1.008 7.565z"/>
                    <path d="m75.232 346.075c11.883 1.408 14.876 11.355 15.58 22.27.119 1.85 1.326 2.584 1.954 1.678-1.746-10.593-4.28-23.866-17.534-23.948z"/>
                </g>
            </g>
            <g>
                <path d="m113.434 334.456c-7.394 19.013-5.633 49.998 5.634 79.222 24.999 3.169 38.378 8.803 47.533-8.098 5.16-9.526 11.267-17.605 3.169-23.943 24.647-37.322-19.588-51.406-56.336-47.181z"
                      fill="#a4b5e0"/>
                <path d="m176.625 358.495c-6.481-10.545-18.469-17.937-30.742-22.883-10.167-2.055-21.632-2.4-32.449-1.156-.009.022-.016.045-.025.067 12.71 16.961 43.188 36.289 58.917 42.868 3.956-7.243 5.175-13.527 4.299-18.896z"
                      fill="#8792c7"/>
            </g>
            <g>
                <path d="m159.561 390.383c-15.756 6.162-36.266 5.105-43.66-1.232-2.175-2.769-2.729-5.105-1.056-6.338-2.289-1.408-4.841-9.243-1.056-11.531-3.697-2.289-2.464-7.662.088-11.443 22.145.088 37.95 8.186 47.456 16.461 2.112 5.633.341 10.562-1.772 14.083z"
                      fill="#cf6b29"/>
                <g fill="#e38e32">
                    <path d="m115.959 369.844c-3.267-2.022-2.915-7.034-.469-8.274 19.483.763 34.596 7.519 42.996 14.83-16.178.766-32.609-1.409-42.527-6.556z"/>
                    <path d="m116.799 381.993c-3.267-2.022-3.607-7.71-1.162-8.95 11.531 4.124 25.198 5.332 42.849 5.193 1.869-.015 2.043 3.873.371 6.25-9.155 3.08-32.141 2.653-42.058-2.493z"/>
                    <path d="m118.001 388.683c-1.901-1.644-1.968-3.537-.912-4.241 11.531 4.124 24.56 5.035 41.677 1.221.664.499.589 2.021-.28 3.195-13.713 6.631-30.568 4.971-40.485-.175z"/>
                </g>
            </g>
            <g>
                <path d="m112.495 404.64c-1.376 3.539-1.994 6.925 2.817 8.92 5.517 16.843-19.13 1.526-13.794 43.25 12.147 9.507 50.051 10.279 64.949-1.505 9.235-27.532-4.795-27.719-1.157-40.102 28.403-8.04-29.399-24.399-52.815-10.563z"
                      fill="#c9d5f2"/>
                <path d="m115.558 420.37c-2.434 4.82-12.055 3.865-14.32 18.702 5.512-21.604 51.734-18.135 62.546-7.413-2.103-7.549-25.572-17.155-48.226-11.289z"
                      fill="#9ca6cf"/>
                <path d="m141.367 422.362c-.586-4.225 0-9.389 3.052-14.553-3.325-5.105-17.133-3.844-17.253 0-.118 3.755-1.666 8.191-1.878 13.849-14.671 5.282-16.31 13.525-13.825 34.4 3.908 7.864 18.52 6.68 24.571 1.335-3.939-12.023-3.269-26.074 5.333-35.031z"
                      fill="#e38e32"/>
                <g>
                    <g>
                        <g>
                            <path d="m130.807 454.287c-.077 0-.156-.004-.234-.013l-17.076-1.878c-1.16-.127-1.997-1.171-1.869-2.331.129-1.16 1.184-1.996 2.331-1.869l17.076 1.878c1.16.127 1.997 1.171 1.869 2.331-.119 1.081-1.034 1.882-2.097 1.882z"
                                  fill="#f0ba3c"/>
                        </g>
                        <g>
                            <path d="m129.985 447.127c-.065 0-.129-.003-.195-.009l-16.666-1.526c-1.162-.107-2.017-1.135-1.911-2.296.107-1.162 1.142-2.015 2.296-1.911l16.666 1.526c1.162.107 2.017 1.135 1.911 2.296-.1 1.096-1.021 1.92-2.101 1.92z"
                                  fill="#f0ba3c"/>
                        </g>
                        <g>
                            <path d="m113.902 439.968c-1.146 0-2.088-.918-2.111-2.07-.024-1.167.902-2.132 2.069-2.155l16.374-.335h.044c1.146 0 2.088.918 2.111 2.07.024 1.167-.902 2.132-2.069 2.155l-16.374.335c-.014 0-.029 0-.044 0z"
                                  fill="#f0ba3c"/>
                        </g>
                        <g>
                            <path d="m131.452 432.985c-.046 0-.093-.001-.139-.005l-14.436-.939c-1.164-.076-2.046-1.081-1.971-2.245.076-1.164 1.077-2.046 2.246-1.971l14.436.939c1.164.076 2.046 1.081 1.971 2.245-.074 1.118-1.003 1.976-2.107 1.976z"
                                  fill="#f0ba3c"/>
                        </g>
                        <g>
                            <path d="m134.092 427.293c-.026 0-.051 0-.077-.001l-9.859-.352c-1.166-.042-2.078-1.021-2.035-2.187.041-1.166 1.042-2.085 2.186-2.036l9.859.352c1.166.042 2.078 1.021 2.035 2.187-.04 1.139-.978 2.037-2.109 2.037z"
                                  fill="#f0ba3c"/>
                        </g>
                        <g>
                            <path d="m129.512 414.5c-1.131 0-2.068-.896-2.109-2.035-.043-1.166.868-2.146 2.034-2.189l9.624-.352c1.135-.046 2.146.868 2.188 2.034.043 1.166-.868 2.146-2.034 2.189l-9.624.352c-.026 0-.053.001-.079.001z"
                                  fill="#f0ba3c"/>
                        </g>
                        <g>
                            <path d="m137.81 421.835c-.119 0-.239-.01-.36-.031l-9.585-1.643c-1.15-.197-1.922-1.289-1.725-2.439s1.287-1.924 2.439-1.725l9.585 1.643c1.15.197 1.922 1.289 1.725 2.439-.176 1.03-1.07 1.756-2.079 1.756z"
                                  fill="#f0ba3c"/>
                        </g>
                    </g>
                </g>
                <g fill="#cf6b29">
                    <path d="m101.518 456.81c12.147 9.507 50.051 10.279 64.949-1.505.679-2.025 1.219-3.886 1.663-5.631-24.933 8.254-51.849 7.221-67.209 1.022.123 1.892.316 3.92.597 6.114z"/>
                    <path d="m165.31 415.203c28.403-8.04-29.399-24.399-52.815-10.563-1.376 3.539-1.994 6.925 2.817 8.92 15.831-7.153 36.149-6.573 49.998 1.643z"/>
                </g>
            </g>
            <g>
                <path d="m277.865 332.695c-36.748-4.225-82.039 14.26-57.392 51.583-8.099 6.337-3.613 8.619 1.232 18.309 4.049 8.098 17.077-1.701 42.076-4.87 11.267-29.224 14.436-47.945 14.084-65.022z"
                      fill="#a4b5e0"/>
                <path d="m277.868 332.896c-16.709 7.288-34 10.005-54.273 11.908-9.309 7.524-13.344 18.301-7.21 32.088 20.36-4.979 52.015-21.163 61.494-40.217.016-1.27.013-2.53-.011-3.779z"
                      fill="#8792c7"/>
            </g>
            <g>
                <path d="m267.452 404.416c-.505-1.227-.539-2.661.025-4.382 4.811-1.995 4.489-6.69 1.849-7.949-12.676 4.516-37.499 6.013-49.382 4.428-10.591-1.412-7.681 8.964 0 8.186 3.639 12.383-4.225 10.739 0 33.45 10.461 5.458 16.602 2.79 24.648 5.081 25.351 7.218 52.097 5.653 61.088-1.384 7.113-31.928-11.091-47.357-38.228-37.43z"
                      fill="#c9d5f2"/>
                <path d="m267.452 404.416c-.384-.932-.492-1.985-.276-3.191-17.593 6.236-19.778 21.438-18.184 31.73 3.679-13.463 9.272-23.584 19.048-28.739-.197.07-.39.128-.588.2z"
                      fill="#9ca6cf"/>
                <path d="m267.452 404.416c-.505-1.227-.539-2.661.025-4.382 1.342-.557 2.272-1.326 2.876-2.17-12.302-.763-25.078-2.144-8.906 11.148 25.352-.277 37.255 10.228 30.325 33.714 3.903.595 10.31-1.607 14.46-3.625 5.488-30.057-12.433-44.323-38.78-34.685z"
                      fill="#e38e32"/>
                <g fill="#f0ba3c">
                    <path d="m307.187 430.754-10.506 1.881c-1.149.206-1.913 1.304-1.707 2.452.184 1.023 1.074 1.741 2.077 1.741.124 0 .249-.01.375-.034l9.4-1.683c.177-1.494.306-2.953.361-4.357z"/>
                    <path d="m296.509 424.585c-1.152 0-2.094.925-2.112 2.08-.017 1.167.914 2.127 2.08 2.145l10.735.163c.004-1.463-.059-2.872-.188-4.229l-10.483-.159c-.01 0-.021 0-.032 0z"/>
                    <path d="m305.449 417.076-9.709 1.196c-1.158.142-1.982 1.197-1.839 2.355.131 1.07 1.042 1.854 2.094 1.854.086 0 .173-.006.261-.016l10.279-1.266c-.28-1.448-.643-2.823-1.086-4.123z"/>
                    <path d="m301.589 409.839-9.327 2.595c-1.124.313-1.782 1.478-1.469 2.602.26.935 1.11 1.547 2.035 1.547.187 0 .378-.025.567-.078l10.57-2.941c-.69-1.35-1.486-2.59-2.376-3.725z"/>
                    <path d="m288.87 411.918c.305 0 .616-.067.91-.208l9.38-4.489c-1.193-1.083-2.503-2.02-3.924-2.806l-7.279 3.484c-1.052.504-1.497 1.766-.994 2.818.362.758 1.119 1.201 1.907 1.201z"/>
                    <path d="m282.072 408.723c.405.371.916.554 1.425.554.573 0 1.143-.232 1.56-.687l5.557-6.075c-1.54-.449-3.16-.771-4.87-.937l-3.806 4.16c-.787.861-.727 2.197.134 2.985z"/>
                    <path d="m283.922 401.456c-1.922-.071-3.942.042-6.038.322l-2.86 3.108c-.79.858-.735 2.195.124 2.985.405.373.918.558 1.429.558.571 0 1.139-.23 1.556-.682z"/>
                    <path d="m267.452 404.416c-.004-.009-.005-.02-.009-.029-.803.845-.771 2.18.073 2.985.409.39.934.584 1.458.584.557 0 1.114-.219 1.53-.655l4.533-4.753c.103-.108.191-.225.267-.347-2.519.495-5.138 1.222-7.852 2.215z"/>
                    <path d="m260.666 405.81c.199 0 .4-.028.6-.088l6.041-1.788c-.337-1.12-.323-2.395.17-3.9.563-.233 1.048-.506 1.475-.803-.282-.036-.575-.018-.866.067l-8.019 2.373c-1.119.331-1.758 1.506-1.426 2.625.272.919 1.113 1.514 2.025 1.514z"/>
                </g>
                <path d="m220.755 413.038c-.171 1.133-.443 2.211-.738 3.359 9.352.143 16.347 1.335 13.473 25.502.084.006.166.011.25.017 4.973-19.53 1.358-28.954-12.985-28.878z"
                      fill="#9ca6cf"/>
                <g fill="#cf6b29">
                    <path d="m305.68 441.846c.402-1.803.711-3.547.955-5.243-49.891 12.281-55.354-3.555-87.513-3.719.199 1.6.464 3.338.823 5.265 10.461 5.458 16.602 2.79 24.648 5.081 25.35 7.218 52.096 5.653 61.087-1.384z"/>
                    <path d="m269.326 392.085c-12.676 4.516-37.499 6.013-49.382 4.428-10.591-1.412-7.681 8.964 0 8.186 14.469-.198 32.559-.968 47.533-4.665 4.811-1.995 4.489-6.69 1.849-7.949z"/>
                </g>
            </g>
            <g>
                <path d="m283.52 183.696s-12.362-30.223-88.413-30.221c-75.101.002-88.192 34.421-88.192 34.421s-2.284 23.676 24.476 49.027c-4.732 34.956-29.224 68.308-17.957 97.532 86.617 77.11 156.332 16.197 165.487-.704 5.16-9.526 9.859-41.9-12.675-99.997 27.463-29.929 17.274-50.058 17.274-50.058z"
                      fill="#bfcef2"/>
                <path d="m156.977 228.121 4.225-8.685-36.406-4.629 2.165 10.183z" fill="#d9f7f1"/>
                <g fill="#e38e32">
                    <path d="m172.89 361.357c2.214 0 4.252-.243 6.041-.747.456-.129.856-.407 1.135-.791 5.76-7.918 11.237-26.334 10.043-42.279-.073-.978-.81-1.777-1.778-1.929-27.869-4.377-51.561 5.207-62.68 16.649-.691.71-.795 1.803-.252 2.631 10.388 15.831 32.837 26.466 47.491 26.466zm13.105-41.82c.589 13.774-3.942 29.809-8.916 37.183-11.1 2.462-35.44-6.412-47.167-22.722 10.586-9.889 31.447-17.842 56.083-14.461z"/>
                    <path d="m268.775 332.743c-12.567-9.096-24.304-12.885-46.518-15.016-.632-.063-1.243.161-1.688.602-.445.442-.672 1.058-.618 1.683 1.403 16.254-1.923 33.662-3.419 40.392-.242 1.094.411 2.188 1.49 2.492 1.515.427 3.22.633 5.073.633 13.659 0 35.249-11.212 46.208-27.916.619-.944.386-2.208-.528-2.87zm-47.667 26.471c1.567-7.562 4.082-22.471 3.235-37.03 18.785 1.987 29.466 5.374 40.271 12.794-11.08 15.393-32.127 25.666-43.506 24.236z"/>
                    <path d="m226.166 220.623c29.053-7.987 46.75-28.593 53.133-42.912-.9-.987-1.974-2.057-3.247-3.179-5.266 13.083-22.535 34.19-51.006 42.017-24.187 6.648-63.035 5.358-112.92-36.5-1.052 1.21-1.911 2.33-2.608 3.325 37.291 31.256 68.765 40.411 92.834 40.411 9 0 16.97-1.281 23.814-3.162z"/>
                    <path d="m206.681 372.362c5.934-13.283 9.566-38.552 6.699-55.392 0 0-5.614-3.396-14.537-1.524-1.975 24.521-8.898 42.698-18.232 55.177 9.164 1.81 17.881 2.275 26.07 1.739z"/>
                </g>
                <path d="m198.488 372.562c5.264-8.99 11.229-30.488 10.189-53.995 0 0-2.875-.623-4.488-.297.108 19.174-5.96 41.484-15.274 53.653 3.255.372 6.449.583 9.573.639z"
                      fill="#cf6b29"/>
                <path d="m234.416 310.383c19.991 3.125 36.298 8.337 47.619 13.369.592-3.298 1.001-7.241 1.118-11.831-13.031-5.361-29.574-9.946-46.998-12.669-31.121-4.866-77.521-6.142-125.446 13.967-.326 4.105-.253 8.149.345 12.125 46.915-20.899 92.835-19.733 123.362-14.961z"
                      fill="#e38e32"/>
            </g>
            <path d="m271.527 172.865c-2.578 19.047-67.481 79.659-154.097 2.549-3.995-72.288 31.431-106.89 84.501-105.033 80.511 2.817 72.22 83.095 69.596 102.484z"
                  fill="#3a317a"/>
            <path d="m271.47 148.547c-8.276-5.634-24.121-9.163-54.519 6.338-26.525 13.526-59.153 33.012-93.482 5.442 1.846-52.325 30.092-81.629 81.335-78.855 55.798 3.02 69.202 48.337 66.666 67.075z"
                  fill="#3f4b96"/>
            <path d="m201.931 70.38c-53.07-1.857-88.496 32.745-84.501 105.033 3.553 3.164 7.07 6.096 10.548 8.808-26.163-133.558 167.844-130.037 140.62-4.016 1.659-2.777 2.653-5.298 2.929-7.34 2.624-19.389 10.915-99.667-69.596-102.485z"
                  fill="#bfcef2"/>
            <g>
                <path d="m187.075 273.201c-1.108-6.211-.975-10.488-1.479-17.858-20.158-3.171-48.116.756-66.024 15.721-3.206 2.947-7.421 16.094-4.816 22.117 27.091-18.557 58.916-21.356 72.319-19.98z"
                      fill="#606bb3"/>
                <g fill="#4d4e96">
                    <path d="m172.076 273.276 2.091-18.925c-.937-.022-1.88-.033-2.832-.027l-2.125 19.233c.975-.107 1.933-.202 2.866-.281z"/>
                    <path d="m161.252 274.693c.942-.165 1.868-.316 2.785-.456l-1.883-19.424c-.931.092-1.864.199-2.798.318z"/>
                    <path d="m148.806 277.525c.963-.27 1.918-.524 2.868-.766l1.238-20.586c-.955.187-1.908.387-2.858.604z"/>
                    <path d="m138.352 280.958c.917-.347 1.832-.68 2.744-1l-1.621-20.068c-.92.337-1.835.684-2.74 1.053z"/>
                    <path d="m126.468 286.232c.98-.502 1.961-.988 2.944-1.456l1.731-21.269c-1 .51-1.986 1.042-2.955 1.598z"/>
                    <path d="m118.733 272.036.746 18.1c.914-.556 1.831-1.098 2.751-1.622l-.781-18.946c-.636.487-1.264.984-1.878 1.497-.273.251-.554.582-.838.971z"/>
                </g>
            </g>
            <g>
                <path d="m282.602 291.295c3.043-5.814-1.845-21.267-4.825-24.443-19.136-10.896-42.232-10.878-63.204-12.705-1.048 7.312-.535 12.006.879 17.739 16.605 3.643 34.429.97 67.15 19.409z"
                      fill="#606bb3"/>
                <g fill="#4d4e96">
                    <path d="m224.21 271.651 2.816-.101-.593-16.494c-.945-.069-1.887-.138-2.827-.206z"/>
                    <path d="m237.289 255.953c-.939-.091-1.879-.179-2.818-.262l-3.379 17.972 2.77.521z"/>
                    <path d="m244.319 256.748-.267 19.514c.695.143 1.398.295 2.111.456l.698.01.269-19.588c-.935-.14-1.873-.269-2.811-.392z"/>
                    <path d="m254.788 279.022c.917.284 1.848.583 2.796.903l.494-20.669c-.931-.228-1.865-.444-2.802-.646z"/>
                    <path d="m264.682 282.567c.887.361 1.787.738 2.7 1.132l2.48-20.673c-.897-.366-1.801-.714-2.711-1.045z"/>
                    <path d="m275.4 287.456c.963.485 1.94.99 2.931 1.514l-1.609-22.697c-.968-.527-1.944-1.031-2.931-1.506z"/>
                </g>
            </g>
            <g>
                <path d="m233.095 384.885c12.918 6.608 30.511 7.463 37.364 2.688 2.094-2.176 2.766-4.123 1.444-5.318 2.074-1.006 4.923-7.473 1.889-9.75 3.351-1.636 2.759-6.327.905-9.773-18.906-1.822-33.086 3.736-41.907 9.982-2.286 4.627-1.197 8.986.305 12.171z"
                      fill="#cf6b29"/>
                <g fill="#e38e32">
                    <path d="m273.184 371.49c1.752-1.247 1.122-4.311.037-6.838-15.021-1.065-36.5 4.918-38.808 10.498 15.941 2.866 28.268.151 38.771-3.66z"/>
                    <path d="m271.867 380.499c1.752-1.247 2.232-5.202.791-6.703-13.043 4.03-22.074 4.272-37.751 2.404-1.079.334-1.355 2.795-.731 3.83 17.095 3.603 30.023 4.595 37.691.469z"/>
                    <path d="m270.078 386.571c1.162-1.299 1.134-3.366.029-3.71-11.364 2.645-24.95.501-35.717-2.179-.56.895-.357 2.323.267 3.358 13.027 5.297 27.753 6.657 35.421 2.531z"/>
                </g>
            </g>
            <path d="m169.887 228.708-2.23 56.46h79.119l-6.117-55.873z" fill="#c0f2fc"/>
            <path d="m163.839 240.28-3.752 52.452 7.57-7.564 2.23-56.46z" fill="#8fb5c4"/>
            <path d="m240.659 229.295 6.117 55.873 3.742 9.383-5.868-54.576z" fill="#8fb5c4"/>
            <path d="m160.087 292.732 90.431 1.819-3.742-9.383h-79.119z" fill="#7da1b5"/>
            <path d="m178.359 234.459-1.547 15.14 38.379 1.233-.352-15.052z" fill="#3e4682"/>
            <g>
                <path d="m214.213 276.626-39.546-.137.721-12.62 39.152 1.136zm-38.469-1.15 37.48.13.271-9.613-37.148-1.078z"
                      fill="#80a1db"/>
            </g>
            <g fill="#e8e235">
                <path d="m175.867 264.391-.662 11.591 7.358.026-.354-11.433z"/>
                <path d="m191.778 264.853-2.202 11.155 8.23.055-.221-11.041z"/>
                <path d="m205.121 265.24.607 10.823 7.991.053.298-10.618z"/>
            </g>
            <path d="m182.209 264.575.354 11.433h7.013l2.202-11.155z" fill="#e38e32"/>
            <path d="m197.585 265.022.221 11.041h7.922l-.607-10.823z" fill="#e38e32"/>
            <circle cx="229.392" cy="242.91" fill="#88abe8" r="9.037"/>
            <circle cx="229.392" cy="242.91" fill="#576ca8" r="4.46"/>
            <circle cx="230.493" cy="272.044" fill="#6da3bf" r="6.516"/>
            <g>
                <path d="m282.681 334.456c-.092 0-.183-.003-.276-.009-8.062-.52-27.7-3.953-38.735-9.884-14.091-7.572-17.057-51.131-17.085-51.57-.15-2.329 1.616-4.338 3.945-4.488 2.3-.155 4.338 1.616 4.488 3.945.908 14.08 5.913 41.049 12.653 44.67 9.319 5.009 27.639 8.402 35.278 8.895 2.329.15 4.094 2.16 3.944 4.488-.145 2.235-2.003 3.953-4.212 3.953z"
                      fill="#528a28"/>
            </g>
            <g>
                <path d="m230.493 304.332c-1.732 0-3.355-1.073-3.976-2.796-.79-2.195.35-4.616 2.545-5.406l7.477-2.69c2.195-.79 4.616.349 5.406 2.545.79 2.195-.35 4.616-2.545 5.406l-7.477 2.69c-.472.17-.955.251-1.43.251z"
                      fill="#7ed43d"/>
            </g>
            <g>
                <path d="m237.399 323.442c-.746 0-1.492-.294-2.045-.879-1.07-1.129-1.022-2.912.106-3.982l8.191-7.765c1.129-1.07 2.913-1.022 3.983.107s1.022 2.912-.107 3.982l-8.191 7.765c-.545.516-1.242.772-1.937.772z"
                      fill="#7ed43d"/>
            </g>
            <ellipse cx="249.252" cy="136.721" fill="#c9edff" rx="13.457" ry="10.048"
                     transform="matrix(.643 -.766 .766 .643 -15.659 239.879)"/>
            <ellipse cx="243.874" cy="116.169" fill="#c9edff" rx="5.691" ry="4.232"
                     transform="matrix(.914 -.406 .406 .914 -26.16 108.991)"/>
            <path d="m442.319 39.922-239.143 29.895 13.897 188.457 229.731-40.472zm-218.708 211.737-13.055-177.038 224.654-28.084 4.213 167.103z"
                  fill="#f01ab6"/>
            <path d="m395.57 112.26-41.995 11.943-5.188-.359-44.785-3.096-70.186 17.308 15.733 19.143 8.485 31.467 19.078-6.847 26.597 2.435 13.762 17.235 24.864.462 8.072-17.45 30.05-11.592 3.937-22.061 32.646-14.084z"
                  fill="#1af0de"/>
            <g fill="#74b2bd">
                <path d="m263.422 115.417-33.53 3.967.115.609 33.347-4.013z"/>
                <path d="m263.584 116.747-33.53 3.968.115.608 33.347-4.013z"/>
                <path d="m263.756 118.154-33.53 3.968.115.608 33.347-4.013z"/>
            </g>
            <g fill="#f01ab6">
                <path d="m265.858 120.224-37.708 4.543.704.956 36.883-4.5 12.946 10.863z"/>
                <path d="m261.633 103.313-33.885 2.861 2.424 4.189 31.104-4.104z"/>
                <path d="m248.422 110.605-16.994 2.382 1.298 3.006 15.606-1.686z"/>
            </g>
            <g fill="#74b2bd">
                <path d="m384.517 101.765 33.5-4.21.035.618-33.333 4.122z"/>
                <path d="m384.679 103.096 33.501-4.211.035.618-33.334 4.123z"/>
                <path d="m384.851 104.502 33.5-4.21.035.618-33.334 4.122z"/>
            </g>
            <g fill="#f01ab6">
                <path d="m383.308 107.017 37.694-4.657-.453 1.097-36.883 4.5-9.954 13.657z"/>
                <path d="m383.344 89.586 33.578-5.37-1.346 4.649-31.178 3.495z"/>
                <path d="m397.92 93.488 17.068-1.773-.537 3.229-15.553 2.115z"/>
            </g>
            <g fill="#74b2bd">
                <path d="m362.597 107.414-33.53 3.967.115.609 33.347-4.014z"/>
                <path d="m362.759 108.744-33.53 3.968.115.608 33.347-4.013z"/>
                <path d="m362.931 110.151-33.53 3.968.115.608 33.347-4.013z"/>
            </g>
            <g fill="#f01ab6">
                <path d="m328.077 117.418 37.117-4.472-.703-.956-36.884 4.5-9.675 20.644z"/>
                <path d="m359.971 101.093-16.994 2.382 1.298 3.005 15.606-1.686z"/>
            </g>
            <g fill="#74b2bd">
                <path d="m267.726 194.895-33.53 3.968.115.609 33.347-4.014z"/>
                <path d="m267.888 196.226-33.53 3.968.115.608 33.347-4.013z"/>
                <path d="m268.06 197.633-33.53 3.967.115.609 33.347-4.014z"/>
            </g>
            <g fill="#f01ab6">
                <path d="m268.908 199.854-36.454 4.392.704.955 36.883-4.5 2.157-20.279z"/>
                <path d="m265.1 188.574-16.994 2.382 1.298 3.006 15.606-1.686z"/>
            </g>
            <g fill="#74b2bd">
                <path d="m389.392 168.399 33.5-4.21.035.618-33.334 4.122z"/>
                <path d="m389.554 169.73 33.5-4.21.035.618-33.334 4.122z"/>
                <path d="m389.726 171.137 33.5-4.211.035.618-33.334 4.123z"/>
            </g>
            <g fill="#f01ab6">
                <path d="m388.773 173.579 37.104-4.584-.453 1.097-36.884 4.5-14.355-17.712z"/>
                <path d="m390.42 161.633 17.068-1.774-.536 3.229-15.554 2.116z"/>
            </g>
            <g fill="#74b2bd">
                <path d="m357.011 201.447 33.501-4.21.034.618-33.333 4.122z"/>
                <path d="m357.174 202.778 33.5-4.211.035.619-33.334 4.122z"/>
                <path d="m357.345 204.184 33.5-4.21.035.618-33.333 4.122z"/>
            </g>
            <g fill="#f01ab6">
                <path d="m356.392 206.626 37.104-4.583-.453 1.097-36.883 4.5-14.355-17.712z"/>
                <path d="m358.04 194.68 17.068-1.773-.537 3.229-15.553 2.115z"/>
            </g>
            <g fill="#f01ab6">
                <path d="m230.659 224.907 3.479 14.243 60.12-5.973.753-19.059zm1.571 1.073 61.35-10.247.08 16.83-58.996 5.918z"/>
                <path d="m247.4 227.101 44.674-5.834.761-4.529-45.314 8.022z"/>
                <path d="m246.99 231.56 44.587-5.293.23-3.459-44.885 6.661z"/>
                <path d="m246.606 236.206 45.555-5.157.01-3.407-45.63 6.648z"/>
                <path d="m234.759 229.049 8.477-1.44-.442-2.319-8.951 1.401z"/>
                <path d="m235.368 233.029 6.589-.986.163-2.071-6.787.919z"/>
                <path d="m235.726 237.52 6.353-1.074-.199-1.636-6.598.682z"/>
            </g>
            <g fill="#1c6c91">
                <path d="m256.347 91.364 131.115-18.099.976-8.821-136.112 19.183z"/>
                <path d="m295.51 98.139 54.931-7.36.025-8.68-57.008 8.031z"/>
            </g>
        </g>
    </g>
</svg>