<svg id="Astronaut" height="512" viewBox="0 0 512 512" width="512" xmlns="http://www.w3.org/2000/svg">
    <g>
        <path d="m409.659 384.161-268.88-6.757-34.176-172.789 298.621-23.326z" fill="none"/>
        <ellipse cx="273.701" cy="454.599" fill="none" rx="132.669" ry="24.167"/>
        <g>
            <path d="m166.004 182.503c-2.35 4.338-7.481 6.6-17.607 5.849-6.646-11.1-14.897-28.477-16.897-47.98 6.721-5.804 16.203-10.792 22.503-11.626 1.985 20.145 13.326 51.312 12.001 53.757z"
                  fill="#bac3eb"/>
            <path d="m177.529 141.52-1.697.342-12.658-105.061 8.135-3.566z" fill="#7581cf"/>
            <path d="m371.063 173.072c3.224 3.734 8.72 4.845 18.451 1.945 4.116-12.265 8.455-31.006 6.234-50.485-7.807-4.231-18.138-7.073-24.47-6.54 2.373 20.102-2.032 52.975-.215 55.08z"
                  fill="#bac3eb"/>
            <path d="m382.03 109.994c-36.38-35.254-144.018-46.886-232.529 2.085-5.04 37.234 28.692 169.561 40.693 200.69 92.262 82.135 155.485 25.003 165.236 7.001 5.497-10.147 34.841-126.177 26.6-209.776z"
                  fill="#d5dffa"/>
            <path d="m355.43 154.25c.98-25.963-4.752-48.354-14.708-66.327-40.09-12.173-97.081-12.564-151.931 6.621-2.369 5.581-4.478 11.604-6.283 18.093-23.1 9.5-19.57 27.36-6.999 45.983-7.153 5.393-13.603 13.38-18.614 24.577 9.696 50.713 25.771 110.047 33.298 129.572 34.566 30.771 65.055 41.994 90.184 43.052 38.072-38.112 62.275-100.86 68.375-112.123 2.865-5.291 18.87-12.23 28.673-23.925 1.579-11.192 2.955-22.784 3.993-34.489-4.211-8.905-12.328-19.162-25.988-31.034z"
                  fill="#a0afe0"/>
            <g>
                <g>
                    <path d="m107.225 293.172c-10.81 27.154-26.127 25.202-11.612 65.207 1.053 2.902 11.211 6.739 15.002-5.889 1.474 5.544 11.444 2.482 12.666-4.137 1.009-5.464-3.204-8.421 2.528-18.629 5.107-3.667 11.9-9.738 12.107-19.176.443-20.172-7.886-37.253-30.691-17.376z"
                          fill="#99d4eb"/>
                    <path d="m108.324 339.066c-7.781-2.392-13.077 1.644-17.152 4.762.957 4.156 2.406 8.941 4.441 14.551 1.053 2.902 11.211 6.739 15.002-5.889.042.157.114.282.168.426.292-1.395.424-2.991.346-4.818-.075-1.802-1.467-5.039-2.805-9.032z"
                          fill="#668ac4"/>
                    <path d="m98.655 318.257c-6.487 2.016-7.428 23.403-4.663 33.544 1.279 1.992 5.595 5.975 10.898 8.671 2.248-1.118 4.385-3.518 5.725-7.982 1.474 5.544 11.444 2.482 12.666-4.137 1.009-5.464-3.204-8.421 2.528-18.629.651-.468 1.33-.976 2.019-1.523-6.418-9.279-20.686-12.365-29.173-9.944z"
                          fill="#668ac4"/>
                    <path d="m109.998 335.595c1.511-3.103 3.338-6.073 5.343-8.898l-.14-.105c-2.104 2.772-4.028 5.681-5.661 8.775-.397.782-.78 1.564-1.084 2.41-.305.852-.432 1.774-.401 2.676.073 1.814.597 3.5.962 5.184.36 1.674.757 3.399.731 5.019-.034 1.64-.59 3.231-1.503 4.597-1.745 2.59-4.438 4.455-7.229 6.017 1.204.064 2.495-.141 3.756-.742 1.715-1.281 3.284-2.772 4.472-4.636.063-.099.109-.209.168-.311.416-.837.793-1.791 1.126-2.859.153-.675.256-1.36.25-2.049-.026-1.863-.506-3.542-.927-5.242-.433-1.689-.999-3.342-1.121-5.009-.057-.832.028-1.662.28-2.456.257-.799.614-1.594.978-2.371z"
                          fill="#4c72ad"/>
                    <path d="m137.916 310.548c.089-4.073-.186-8.012-.859-11.554-11.091 7.463-18.655 1.666-31.604-1.702-10.595 22.941-23.578 23.225-9.841 61.087 1.053 2.902 11.211 6.739 15.002-5.889 1.474 5.544 11.444 2.482 12.666-4.137 1.009-5.464-3.204-8.421 2.528-18.629 5.108-3.667 11.901-9.738 12.108-19.176z"
                          fill="#76b5de"/>
                    <path d="m105.426 297.352c-10.589 22.881-23.538 23.198-9.813 61.027 1.053 2.902 11.211 6.739 15.002-5.889 1.474 5.544 11.444 2.482 12.666-4.137 1.009-5.464-3.204-8.421 2.528-18.629 1.549-1.112-1.161-25.655-20.383-32.372z"
                          fill="#668ac4"/>
                </g>
                <path d="m162.852 188.306c-20.637 79.437-43.958 35.732-31.018 70.678 20.069 11.253 18.82 36.552 37.768 33.268 11.371-1.971 14.905-21.324 39.428-74.828 10.452-22.801-10.722-53.275-10.722-53.275s-11.368-5.343-35.456 24.157z"
                      fill="#bfcef2"/>
                <path d="m145.105 231.345c12.766 7.329 31.129 21.207 43.596 32.923 1.026-2.417 2.125-5.03 3.296-7.814-6.918-8.552-25.518-26.986-39.277-38.272-2.625 5.729-5.191 9.978-7.615 13.163z"
                      fill="#e38e32"/>
                <path d="m209.03 217.424c10.452-22.801-10.722-53.275-10.722-53.275s-2.203-1.032-6.719.322c-4.552 3.459-9.597 8.254-15.141 14.427-5.758 12.621-2.076 39.798 6.376 54.991-26.846 67.128-14.194 29.689-54.478 14.079.45 2.381 1.566 5.827 3.488 11.016 20.069 11.253 18.82 36.552 37.768 33.268 11.371-1.971 14.905-21.324 39.428-74.828z"
                      fill="#a3a7db"/>
                <path d="m191.999 256.452c-2.745-3.392-7.325-8.336-12.711-13.772-1.497 3.692-2.847 6.974-4.079 9.888 4.856 3.932 9.48 7.926 13.494 11.698 1.026-2.418 2.124-5.03 3.296-7.814z"
                      fill="#cc701f"/>
                <path d="m124.54 249.012c-7.194 14.4-16.286 29.77-36.495 52.281-7.416 28.27-19.445 17.367-11.654 57.142 4.668 4.817 16.592 3.179 16.763-6.573-.251-2.357.073-5.631-.921-10.612.962-2.357 6.26-13.566 10.161-16.326-2.371 7.756-4.284 9.802-6.12 12.424-5.67 10.126 1.542 14.146 1.941 14.432 5.925 4.25 10.877 3.306 16.326-2.261 4.009-4.097.135-7.32 13.423-19.57 4.537-3.376 8.77-9.605 9.485-14.365 13.033-6.236 24.6-12.043 30.762-15.169 1.316-1.34 2.576-2.612 3.77-3.805-5.198-7.74-31.029-45.06-47.441-47.598z"
                      fill="#99d4eb"/>
                <path d="m97.271 306.742c6.988 6.147 7.064 13.42 4.27 20.79-1.474 4.198-2.773 6.303-4.004 8.049-.022.037-.043.074-.065.111-1.492 2.495.542 4.303 2.459.715 2.794-5.228 4.768-11.338 5.078-15.449.309-4.11-1.512-11.519-7.738-14.216z"
                      fill="#76b5de"/>
                <path d="m172.915 298.013c-.021-.032-30.063-46.169-48.375-49.001-1.601 3.205-3.297 6.458-5.188 9.826 20.738 13.445 40.391 35.23 43.997 43.347.088.199.178.373.268.55 5.745-2.889 9.284-4.714 9.297-4.721 0 0 0 0 .001-.001z"
                      fill="#e38e32"/>
                <path d="m76.391 358.435c4.668 4.817 16.592 3.179 16.763-6.573-.234-2.196.018-5.207-.749-9.635-7.106-3.017-12.728.131-17.077 2.594-.405.242-.718.605-.958 1.059.404 3.529 1.061 7.656 2.021 12.555z"
                      fill="#668ac4"/>
                <path d="m97.473 335.692c-.024.025-.047.056-.071.081-.381.536-.756 1.044-1.128 1.575-1.134 2.025-1.747 3.802-2.007 5.358-.186 1.263-.191 2.557.076 3.794.01.04.019.08.029.119.041.179.099.354.152.531.995 3.069 3.463 4.465 3.691 4.629 5.925 4.25 10.877 3.306 16.326-2.261.64-.654 1.078-1.286 1.418-1.935-7.469-6.456-14.234-11.233-18.486-11.891z"
                      fill="#668ac4"/>
                <path d="m127.964 329.949c4.537-3.376 8.77-9.605 9.485-14.365 19.338-9.252 35.466-17.57 35.466-17.57s-2.2-3.378-5.768-8.359c-12.707 14.436-20.896 18.815-33.614 24.417.178 7.5-8.393 16.561-15.866 24.954-4.033 4.529-1.59 9.553-9.867 12.081-1.581.483-15.129-1.016-10.805-10.262 4.973-10.636 12.806-25.352.276-34.103 11.112 11.304-8.147 26.973-5.96 35.199 3.192 15.209-9.383 16.113-12.784 15.875-10.139-23.834 3.205-33.872 6.794-48.144-7.212 18.04-15.819 13.594-8.93 48.763 4.668 4.817 16.592 3.179 16.763-6.573-.251-2.357.073-5.631-.921-10.612.962-2.357 6.26-13.566 10.161-16.326-2.371 7.756-4.284 9.802-6.12 12.424-5.67 10.126 1.542 14.146 1.941 14.432 5.925 4.25 10.877 3.306 16.326-2.261 4.009-4.097.135-7.32 13.423-19.57z"
                      fill="#76b5de"/>
                <path d="m76.391 358.435c4.668 4.817 16.592 3.179 16.763-6.573-.234-2.197.018-5.211-.75-9.642-.377-.156-.75-.301-1.119-.427.011.049.014.1.027.148 3.192 15.209-9.383 16.113-12.784 15.875-2.018-4.745-3.097-8.937-3.516-12.731-.259.226-.459.528-.633.863.404 3.515 1.059 7.619 2.012 12.487z"
                      fill="#536ab0"/>
                <path d="m97.271 306.742c6.988 6.147 7.064 13.421 4.27 20.79-1.474 4.198-2.773 6.302-4.004 8.049-.022.037-.043.074-.065.111-1.013 1.695-.398 3.068.7 2.652 4.872-10.346 10.674-23.518-.901-31.602z"
                      fill="#668ac4"/>
                <path d="m114.202 346.087c-.936 2.026-2.439 3.81-6.402 5.02-1.581.483-15.129-1.016-10.805-10.262.7-1.497 1.456-3.077 2.205-4.707-.612-.209-1.191-.363-1.727-.446-.024.024-.047.055-.071.08-.381.536-.756 1.045-1.128 1.575-1.134 2.026-1.747 3.804-2.008 5.36-.185 1.262-.191 2.556.076 3.793.01.04.019.08.029.119.041.179.099.354.152.531.995 3.069 3.463 4.465 3.691 4.629 5.925 4.25 10.877 3.306 16.326-2.261.64-.654 1.078-1.286 1.418-1.936-.589-.508-1.175-1.007-1.756-1.495z"
                      fill="#536ab0"/>
                <path d="m172.915 298.013c-.005-.008-2.204-3.384-5.769-8.359-2.461 2.795-4.753 5.214-6.94 7.337 1.458 2.051 2.533 3.82 3.143 5.194.088.199.178.373.268.55 5.745-2.889 9.285-4.714 9.297-4.721 0 0 0 0 .001-.001z"
                      fill="#cc701f"/>
            </g>
            <g>
                <path d="m202.708 109.28c-9.413 0-16.944 3.357-28.691 15.296-4.225 9.683-.411 22.827 7.041 34.044 5.672 4.82 12.686 9.103 15.218 6.391 1.427-1.528 4.059-40.693 6.432-55.731z"
                      fill="#99d4eb"/>
                <path d="m184.294 161.188c4.869 3.592 9.917 6.035 11.982 3.823 1.427-1.528 4.059-40.693 6.432-55.731-5.971 0-11.188 1.361-17.201 5.396-5.949 10.992-7.417 34.256-1.213 46.512z"
                      fill="#77a4cc"/>
            </g>
            <g>
                <path d="m362.414 126.497c-10.041-13.406-17.054-17.742-26.382-19.003.336 15.22-2.305 54.384-1.095 56.09 2.146 3.027 9.67-.278 15.937-4.294 8.888-10.117 14.429-22.632 11.54-32.793z"
                      fill="#99d4eb"/>
                <path d="m352.867 115.617c-5.617-5.136-10.732-7.298-16.835-8.123.336 15.22-2.305 54.384-1.095 56.09 1.742 2.458 7.031.741 12.313-2.141 7.846-10.897 9.705-33.745 5.617-45.826z"
                      fill="#77a4cc"/>
            </g>
            <g>
                <path d="m421.538 169.032c-13.412-2.303-13.733 2.392-48.764 11.137-27.581-26.264-38.194-19.543-38.194-19.543s-26.686 45.719-13.471 67.039c31.009 50.025 67.256 23.385 98.638 20.583 22.291-1.99 24.281-37.453 6.17-63.29 1.757-5.715-3.184-12.011-4.379-15.926z"
                      fill="#bfcef2"/>
                <path d="m341.744 202.634c1.465 17.881 6.957 42.495 10.34 52.764 2.774.942 5.562 1.578 8.358 1.96-4.181-21.293-4.477-38.14-3.269-52.721-5.745-1.089-10.572-2.681-15.429-2.003z"
                      fill="#e38e32"/>
                <path d="m421.538 169.032c-8.012-1.376-11.358-.252-20.218 2.738-17.78 11.612-36.692 25.794-40.791 35.679-3.833 9.242 1.058 21.196 4.044 27.075-.552-5.581-1.176-14.391 1.836-20.707 47.965-9.856 46.811-25.475 49.159-38.412.903-4.976 10.172-.22 7.486 12.079 18.388 28.322 7.654 60.014-4.102 56.213-26.271 5.065-43.423 9.648-48.34 9.128-12.666-1.341-18.203-7.71-21.71-29.207 16.363-29.555 11.56-45.084 4.272-56.889-2.034-1.762-3.979-3.361-5.844-4.816-8.95-3.684-12.75-1.287-12.75-1.287s-26.686 45.719-13.471 67.039c31.009 50.025 67.256 23.385 98.638 20.583 22.291-1.99 24.281-37.453 6.17-63.29 1.757-5.715-3.184-12.011-4.379-15.926z"
                      fill="#a3a7db"/>
                <path d="m358.878 248.469c-4.886-4.124-7.817-11.619-9.976-24.851 3.832-6.921 6.491-13.064 8.241-18.579.011-.133.019-.269.03-.401-5.745-1.09-10.572-2.682-15.429-2.004 1.465 17.881 6.957 42.495 10.34 52.764 2.776.942 5.565 1.579 8.362 1.961-.597-3.049-1.122-6.015-1.568-8.89z"
                      fill="#cc701f"/>
            </g>
            <g>
                <path d="m180.256 332.772c-7.876 20.252-6 53.256 6.001 84.385 26.628 3.375 40.88 9.376 50.631-8.626 5.496-10.147 12.002-18.752 3.375-25.503 26.254-39.755-20.864-54.757-60.007-50.256z"
                      fill="#a4b5e0"/>
                <path d="m247.565 358.38c-6.904-11.235-19.676-19.11-32.752-24.379-10.828-2.188-23.037-2.555-34.558-1.23-.009.024-.017.049-.026.072 13.538 18.066 46.002 38.654 62.756 45.661 4.214-7.712 5.513-14.406 4.58-20.124z"
                      fill="#8792c7"/>
            </g>
            <g>
                <path d="m229.389 392.345c-16.783 6.563-38.63 5.438-46.506-1.313-2.317-2.949-2.907-5.438-1.125-6.751-2.438-1.5-5.157-9.845-1.125-12.283-3.938-2.438-2.624-8.161.094-12.189 23.589.094 40.423 8.72 50.549 17.533 2.25 6.001.364 11.252-1.887 15.003z"
                      fill="#cf6b29"/>
                <g fill="#e38e32">
                    <path d="m182.946 370.467c-3.48-2.154-3.105-7.492-.5-8.814 20.753.813 36.85 8.009 45.798 15.797-17.232.816-34.734-1.501-45.298-6.983z"/>
                    <path d="m183.84 383.407c-3.48-2.154-3.842-8.212-1.238-9.534 12.283 4.392 26.84 5.679 45.642 5.532 1.99-.016 2.177 4.126.395 6.657-9.751 3.282-34.235 2.827-44.799-2.655z"/>
                    <path d="m185.121 390.533c-2.025-1.751-2.096-3.767-.971-4.517 12.283 4.392 26.161 5.364 44.393 1.301.708.531.628 2.153-.299 3.403-14.607 7.063-32.56 5.295-43.123-.187z"/>
                </g>
            </g>
            <g>
                <path d="m179.256 407.532c-1.466 3.769-2.125 7.376 3 9.501 5.876 17.94-20.377 1.625-14.693 46.068 12.939 10.126 53.313 10.949 69.182-1.603 9.837-29.327-5.107-29.526-1.232-42.715 30.254-8.563-31.315-25.989-56.257-11.251z"
                      fill="#c9d5f2"/>
                <path d="m182.519 424.286c-2.593 5.136-12.844 4.117-15.255 19.928 5.864-23.019 55.107-19.325 66.624-7.903-2.24-8.041-27.24-18.275-51.369-12.025z"
                      fill="#9ca6cf"/>
                <path d="m210.01 426.408c-.625-4.501 0-10.001 3.25-15.502-3.542-5.438-18.249-4.095-18.377 0-.125 4.001-1.774 8.725-2 14.752-15.627 5.626-17.373 14.407-14.726 36.642 4.162 8.376 19.726 7.115 26.172 1.422-4.195-12.807-3.481-27.773 5.681-37.314z"
                      fill="#e38e32"/>
                <g>
                    <g>
                        <path d="m198.762 460.413c-.082 0-.165-.004-.249-.013l-18.19-2c-1.236-.136-2.127-1.248-1.991-2.483.137-1.235 1.251-2.125 2.483-1.991l18.19 2c1.236.136 2.127 1.248 1.991 2.483-.127 1.151-1.102 2.004-2.234 2.004z"
                              fill="#f0ba3c"/>
                    </g>
                    <g>
                        <path d="m197.886 452.787c-.068 0-.138-.003-.208-.009l-17.752-1.625c-1.237-.113-2.149-1.209-2.035-2.446.113-1.238 1.195-2.149 2.446-2.036l17.752 1.625c1.237.113 2.149 1.209 2.035 2.446-.107 1.167-1.088 2.045-2.238 2.045z"
                              fill="#f0ba3c"/>
                    </g>
                    <g>
                        <path d="m180.755 445.161c-1.222 0-2.224-.977-2.249-2.205-.025-1.242.962-2.27 2.204-2.296l17.442-.356c1.242-.031 2.271.961 2.296 2.204.025 1.242-.962 2.27-2.204 2.296l-17.442.356c-.016.001-.031.001-.047.001z"
                              fill="#f0ba3c"/>
                    </g>
                    <g>
                        <path d="m199.448 437.722c-.049 0-.098-.001-.148-.005l-15.377-1c-1.24-.081-2.18-1.152-2.099-2.392.08-1.239 1.144-2.179 2.391-2.099l15.377 1c1.24.081 2.18 1.152 2.099 2.392-.076 1.191-1.066 2.104-2.243 2.104z"
                              fill="#f0ba3c"/>
                    </g>
                    <g>
                        <path d="m202.261 431.659c-.028 0-.055 0-.082-.001l-10.502-.375c-1.242-.044-2.213-1.087-2.168-2.329.044-1.243 1.073-2.218 2.329-2.169l10.502.375c1.242.044 2.213 1.087 2.168 2.329-.044 1.214-1.042 2.17-2.247 2.17z"
                              fill="#f0ba3c"/>
                    </g>
                    <g>
                        <path d="m197.382 418.032c-1.204 0-2.203-.954-2.247-2.168-.045-1.242.925-2.286 2.167-2.331l10.251-.375c1.248-.041 2.286.925 2.331 2.167s-.925 2.286-2.167 2.331l-10.251.375c-.028.001-.057.001-.084.001z"
                              fill="#f0ba3c"/>
                    </g>
                    <g>
                        <path d="m206.22 425.846c-.127 0-.255-.011-.383-.033l-10.209-1.75c-1.224-.21-2.047-1.373-1.837-2.598.21-1.226 1.375-2.047 2.598-1.838l10.209 1.75c1.224.21 2.047 1.373 1.837 2.598-.188 1.097-1.139 1.871-2.215 1.871z"
                              fill="#f0ba3c"/>
                    </g>
                </g>
                <g fill="#cf6b29">
                    <path d="m167.563 463.101c12.939 10.126 53.313 10.949 69.182-1.603.724-2.158 1.299-4.14 1.772-5.999-26.558 8.792-55.229 7.692-71.59 1.089.131 2.015.337 4.175.636 6.513z"/>
                    <path d="m179.256 407.532c-1.466 3.769-2.125 7.376 3 9.501 16.863-7.619 38.505-7.001 53.257 1.75 30.254-8.563-31.315-25.989-56.257-11.251z"/>
                </g>
            </g>
            <g>
                <path d="m355.403 330.896c-39.143-4.501-87.386 15.189-61.133 54.944-8.626 6.752-3.848 9.182 1.313 19.503 4.313 8.626 18.19-1.812 44.818-5.187 12.001-31.129 15.377-51.07 15.002-69.26z"
                      fill="#a4b5e0"/>
                <path d="m355.406 331.111c-17.798 7.763-36.217 10.657-57.812 12.684-9.915 8.014-14.212 19.494-7.678 34.179 21.685-5.303 55.403-22.541 65.501-42.836.018-1.354.014-2.696-.011-4.027z"
                      fill="#8792c7"/>
            </g>
            <g>
                <path d="m344.312 407.292c-.538-1.307-.574-2.835.027-4.668 5.125-2.125 4.782-7.126 1.969-8.467-13.502 4.811-39.942 6.404-52.6 4.717-11.281-1.504-8.181 9.548 0 8.72 3.875 13.189-4.501 11.439 0 35.629 11.143 5.813 17.684 2.972 26.254 5.412 27.003 7.688 55.493 6.021 65.069-1.474 7.576-34.009-11.814-50.444-40.719-39.869z"
                      fill="#c9d5f2"/>
                <path d="m344.312 407.292c-.409-.993-.526-2.114-.296-3.399-18.738 6.642-21.065 22.835-19.367 33.798 3.918-14.343 9.878-25.125 20.293-30.614-.211.075-.418.137-.63.215z"
                      fill="#9ca6cf"/>
                <path d="m344.312 407.292c-.538-1.307-.574-2.835.027-4.668 1.429-.592 2.419-1.411 3.063-2.309-13.104-.813-26.714-2.284-9.486 11.874 27.004-.297 39.683 10.893 32.301 35.91 4.158.634 10.983-1.711 15.403-3.861 5.845-32.017-13.245-47.213-41.308-36.946z"
                      fill="#e38e32"/>
                <g fill="#f0ba3c">
                    <path d="m386.636 435.347-11.19 2.004c-1.223.22-2.037 1.389-1.818 2.612.194 1.089 1.143 1.854 2.212 1.854.131 0 .265-.011.4-.035l10.011-1.793c.189-1.591.326-3.146.385-4.642z"/>
                    <path d="m373.012 430.991c-.019 1.242.973 2.265 2.216 2.284l11.435.174c.005-1.558-.063-3.059-.2-4.504l-11.167-.17c-1.23-.042-2.265.973-2.284 2.216z"/>
                    <path d="m384.785 420.776-10.342 1.274c-1.233.152-2.11 1.275-1.958 2.509.14 1.14 1.11 1.975 2.23 1.975.092 0 .185-.006.278-.017l10.948-1.349c-.298-1.543-.685-3.008-1.156-4.392z"/>
                    <path d="m380.675 413.069-9.937 2.764c-1.197.333-1.897 1.574-1.564 2.771.277.996 1.181 1.648 2.167 1.648.199 0 .403-.027.604-.083l11.259-3.132c-.735-1.438-1.582-2.759-2.529-3.968z"/>
                    <path d="m367.125 415.283c.326 0 .657-.071.97-.221l9.991-4.782c-1.271-1.153-2.666-2.152-4.179-2.989l-7.755 3.712c-1.121.536-1.595 1.88-1.058 3.001.386.807 1.192 1.279 2.031 1.279z"/>
                    <path d="m359.885 411.879c.432.395.976.59 1.518.59.61 0 1.218-.246 1.661-.732l5.918-6.471c-1.64-.478-3.366-.821-5.186-.998l-4.053 4.432c-.838.917-.775 2.34.142 3.179z"/>
                    <path d="m361.854 404.139c-2.048-.075-4.199.045-6.432.343l-3.045 3.309c-.842.915-.783 2.339.132 3.18.432.398.978.595 1.522.595.608 0 1.214-.244 1.657-.727z"/>
                    <path d="m344.312 407.292c-.004-.009-.006-.02-.01-.029-.854.899-.821 2.322.078 3.178.436.416.995.622 1.553.622.594 0 1.187-.234 1.629-.697l4.828-5.063c.11-.115.204-.24.285-.37-2.683.526-5.473 1.301-8.363 2.359z"/>
                    <path d="m337.083 408.777c.211 0 .426-.03.64-.093l6.41-1.897c-.357-1.192-.319-2.561.206-4.163.599-.248 1.116-.539 1.571-.855-.301-.038-.613-.019-.923.072l-8.541 2.528c-1.192.352-1.873 1.604-1.519 2.796.288.979 1.185 1.612 2.156 1.612z"/>
                </g>
                <path d="m294.571 416.475c-.182 1.207-.471 2.354-.786 3.578 9.961.152 17.411 1.423 14.35 27.164.089.007.177.012.266.018 5.298-20.803 1.448-30.84-13.83-30.76z"
                      fill="#9ca6cf"/>
                <g fill="#cf6b29">
                    <path d="m385.031 447.161c.428-1.92.758-3.776 1.017-5.583-53.141 13.081-58.961-3.787-93.216-3.962.212 1.703.494 3.555.876 5.607 11.143 5.813 17.684 2.972 26.254 5.412 27.003 7.688 55.493 6.021 65.069-1.474z"/>
                    <path d="m344.339 402.624c5.125-2.125 4.782-7.126 1.969-8.467-13.502 4.811-39.942 6.404-52.6 4.717-11.281-1.504-8.181 9.548 0 8.72 15.412-.211 34.681-1.031 50.631-4.969z"/>
                </g>
            </g>
            <g>
                <path d="m361.425 172.189s-13.168-32.193-94.175-32.191c-79.995.002-93.939 36.664-93.939 36.664s-2.432 25.219 26.072 52.222c-5.04 37.234-31.128 72.759-19.127 103.888 92.262 82.135 166.521 17.252 176.272-.75 5.496-10.147 10.501-44.631-13.503-106.513 29.253-31.879 18.4-53.32 18.4-53.32z"
                      fill="#bfcef2"/>
                <path d="m226.637 219.508 4.5-9.251-38.779-4.932 2.306 10.848z" fill="#d9f7f1"/>
                <g fill="#e38e32">
                    <path d="m243.588 361.426c2.358 0 4.528-.259 6.432-.796.487-.138.913-.434 1.21-.843 6.135-8.435 11.97-28.051 10.698-45.034-.078-1.042-.863-1.893-1.895-2.055-29.682-4.665-54.92 5.546-66.765 17.734-.734.756-.845 1.921-.267 2.803 11.065 16.863 34.977 28.191 50.587 28.191zm13.959-44.544c.626 14.67-4.199 31.751-9.497 39.606-11.817 2.621-37.752-6.83-50.243-24.203 11.277-10.533 33.489-19.005 59.74-15.403z"/>
                    <path d="m345.721 330.949c-13.385-9.689-25.889-13.725-49.55-15.995-.661-.064-1.324.171-1.798.641-.475.47-.715 1.127-.658 1.792 1.495 17.318-2.048 35.857-3.642 43.025-.258 1.165.438 2.33 1.587 2.654 1.613.455 3.43.674 5.403.674 14.549 0 37.546-11.943 49.22-29.734.66-1.005.412-2.352-.562-3.057zm-50.772 28.196c1.667-8.054 4.346-23.933 3.445-39.444 20.007 2.117 31.386 5.725 42.895 13.628-11.802 16.395-34.229 27.331-46.34 25.816z"/>
                    <path d="m300.334 211.519c30.945-8.507 49.795-30.452 56.595-45.705-.958-1.051-2.103-2.191-3.458-3.386-5.611 13.937-24.005 36.415-54.328 44.752-25.763 7.082-67.144 5.707-120.279-38.878-1.121 1.29-2.037 2.482-2.779 3.542 39.722 33.292 73.248 43.045 98.885 43.045 9.586-.001 18.074-1.364 25.364-3.37z"/>
                    <path d="m279.579 373.149c6.321-14.148 10.189-41.064 7.136-59.002 0 0-5.98-3.617-15.484-1.623-2.103 26.12-9.477 45.481-19.42 58.773 9.761 1.928 19.046 2.423 27.768 1.852z"/>
                </g>
                <path d="m270.853 373.362c5.608-9.575 11.961-32.475 10.853-57.515 0 0-3.063-.663-4.781-.316.115 20.424-6.348 44.188-16.269 57.15 3.467.397 6.869.621 10.197.681z"
                      fill="#cf6b29"/>
                <path d="m309.124 307.13c21.292 3.329 38.662 8.879 50.721 14.24.63-3.513 1.066-7.714 1.191-12.603-13.881-5.71-31.501-10.594-50.06-13.495-33.147-5.181-82.573-6.54-133.622 14.879-.347 4.373-.27 8.68.367 12.914 49.972-22.26 98.887-21.018 131.403-15.935z"
                      fill="#e38e32"/>
            </g>
            <path d="m348.652 160.65c-2.746 20.289-71.879 84.85-164.14 2.715-4.256-76.999 33.479-113.856 90.008-111.878 85.758 3 76.927 88.511 74.132 109.163z"
                  fill="#3a317a"/>
            <path d="m348.592 134.747c-8.816-6.001-25.693-9.761-58.072 6.751-28.253 14.408-63.008 35.164-99.575 5.797 1.966-55.735 32.053-86.949 86.636-83.994 59.434 3.217 73.712 51.488 71.011 71.446z"
                  fill="#3f4b96"/>
            <path d="m345.371 164.762c-9.513 4.972-29.365 1.093-35.933-18.165-19.485-10.469-23.982-16.379-12.995-29.989-2.664-8.741 2.397-16.352 9.065-15.438-1.99-7.065 3.576-13.022 8.692-12.392 21.455 38.908 33.872 56.025 31.171 75.984z"
                  fill="#2e2361"/>
            <path d="m322.289 84.59-40.864 47.428-4.08-1.592-.746-21.068-3.258-3.727-4.218-28.728 5.161 26.346 3.733 4.245 1.194 18.205 3.183 1.231z"
                  fill="#4f70bd"/>
            <path d="m322.289 84.59-39.632 49.096-72.802 49.095 67.181-49.654-.762-22.508-3.258-3.727-5.765-41.348 6.498 39.426 3.397 3.663.647 20.873 2.358 1.318z"
                  fill="#0d1c47"/>
            <path d="m295.706 140.057-40.863 47.428 14.443-19.388z" fill="#474699"/>
            <path d="m304.836 164.373-24.332 18.956 5.051-6.058z" fill="#474699"/>
            <path d="m229.95 126.177-14.772-27.078 5.161 5.964z" fill="#4d5cb5"/>
            <path d="m274.52 51.487c-56.529-1.978-94.264 34.879-90.008 111.878 3.785 3.37 7.532 6.493 11.236 9.382-27.868-142.263 178.782-138.512 149.784-4.279 1.768-2.958 2.826-5.642 3.12-7.818 2.795-20.652 11.626-106.163-74.132-109.163z"
                  fill="#bfcef2"/>
            <g>
                <path d="m258.696 267.525c-1.181-6.616-1.039-11.172-1.576-19.022-21.471-3.377-51.251.806-70.326 16.746-3.415 3.139-7.905 17.143-5.13 23.558 28.856-19.767 62.756-22.748 77.032-21.282z"
                      fill="#606bb3"/>
                <g fill="#4d4e96">
                    <path d="m239.66 267.904c1.038-.114 2.058-.215 3.052-.3l2.227-20.159c-.998-.023-2.002-.035-3.015-.028z"/>
                    <path d="m231.213 269.11c1.003-.176 1.99-.336 2.967-.485l-2.008-20.688c-.992.098-1.986.212-2.981.339z"/>
                    <path d="m217.945 272.127c1.025-.288 2.043-.558 3.055-.816l1.322-21.927c-1.017.199-2.032.412-3.044.643z"/>
                    <path d="m206.802 275.785c.977-.37 1.952-.724 2.925-1.066l-1.727-21.374c-.981.359-1.956.729-2.92 1.122z"/>
                    <path d="m194.136 281.406c1.044-.535 2.09-1.053 3.137-1.552l1.843-22.654c-1.066.543-2.116 1.111-3.149 1.703z"/>
                    <path d="m185.922 266.256.795 19.293c.974-.593 1.951-1.17 2.933-1.728l-.832-20.184c-.686.524-1.363 1.059-2.024 1.612-.285.262-.577.605-.872 1.007z"/>
                </g>
            </g>
            <g>
                <path d="m370.61 127.731c-11.058-3.951-28.866 18.524-28.866 29.727 6.05 12.088 6.702 27.165 15.626 52.271 35.078 7.742 59.349-28.693 55.436-43.233-13.061-11.689-26.076-19.986-42.196-38.765z"
                      fill="#99d4eb"/>
                <path d="m412.806 166.496c-2.893-2.589-5.784-5.012-8.707-7.419-.392 16.712-20.795 44.425-50.342 39.646 1.039 3.444 2.226 7.103 3.613 11.006 35.078 7.742 59.349-28.693 55.436-43.233z"
                      fill="#e38e32"/>
                <path d="m366.233 210.782c-7.713-17.679-14.813-36.349-22.67-52.382-.468-1.325-.979-2.533-1.515-3.655-.192.956-.304 1.869-.304 2.713 6.05 12.088 6.702 27.165 15.626 52.271 3.04.671 5.996 1.003 8.863 1.053z"
                      fill="#76b5de"/>
                <path d="m361.322 199.269c-2.446.052-4.97-.122-7.563-.538 1.038 3.442 2.224 7.098 3.61 10.998 3.043.672 6.003 1.004 8.872 1.054-1.66-3.808-3.301-7.65-4.919-11.514z"
                      fill="#cc701f"/>
            </g>
            <g>
                <path d="m360.449 286.798c3.241-6.192-1.966-22.652-5.14-26.035-20.383-11.607-44.984-11.588-67.323-13.534-1.115 7.788-.569 12.789.937 18.895 17.687 3.881 36.673 1.033 71.526 20.674z"
                      fill="#606bb3"/>
                <g fill="#4d4e96">
                    <path d="m298.254 265.877 2.999-.108-.631-17.572c-1.006-.074-2.01-.147-3.011-.219z"/>
                    <path d="m312.178 249.152c-1-.097-2-.19-3-.278l-3.598 19.136 2.948.554z"/>
                    <path d="m319.687 250.001-.289 20.786c.758.156 1.525.322 2.303.498l.691.01.29-20.875c-.996-.149-1.995-.288-2.995-.419z"/>
                    <path d="m330.849 273.733c.977.302 1.968.621 2.977.962l.524-22.019c-.991-.243-1.985-.473-2.983-.688z"/>
                    <path d="m341.357 277.499c.945.384 1.904.786 2.877 1.206l2.641-22.02c-.956-.39-1.919-.761-2.888-1.113z"/>
                    <path d="m352.804 282.723c1.026.517 2.067 1.055 3.123 1.614l-1.716-24.175c-1.031-.562-2.072-1.1-3.123-1.606z"/>
                </g>
            </g>
            <g>
                <path d="m307.715 386.488c13.76 7.038 32.499 7.949 39.799 2.863 2.23-2.318 2.946-4.392 1.538-5.665 2.209-1.071 5.244-7.96 2.012-10.385 3.569-1.743 2.938-6.74.964-10.41-20.138-1.94-35.242 3.979-44.638 10.633-2.435 4.929-1.274 9.571.325 12.964z"
                      fill="#cf6b29"/>
                <g fill="#e38e32">
                    <path d="m350.418 372.22c1.867-1.328 1.195-4.592.04-7.283-16-1.135-38.878 5.239-41.338 11.182 16.979 3.052 30.11.16 41.298-3.899z"/>
                    <path d="m349.015 381.816c1.867-1.328 2.378-5.541.842-7.14-13.893 4.293-23.512 4.551-40.212 2.561-1.15.356-1.444 2.977-.779 4.08 18.211 3.838 31.98 4.894 40.149.499z"/>
                    <path d="m347.109 388.284c1.238-1.383 1.208-3.585.031-3.952-12.105 2.817-26.576.534-38.045-2.321-.597.953-.38 2.474.285 3.577 13.875 5.642 29.561 7.091 37.729 2.696z"/>
                </g>
            </g>
            <path d="m240.389 220.133-2.376 60.14h84.276l-6.516-59.515z" fill="#c0f2fc"/>
            <path d="m233.946 232.459-3.996 55.87 8.063-8.056 2.376-60.14z" fill="#8fb5c4"/>
            <path d="m315.773 220.758 6.516 59.515 3.985 9.994-6.251-58.133z" fill="#8fb5c4"/>
            <path d="m229.95 288.329 96.324 1.938-3.985-9.994h-84.276z" fill="#7da1b5"/>
            <path d="m249.412 226.259-1.647 16.127 40.88 1.312-.375-16.033z" fill="#3e4682"/>
            <g>
                <path d="m287.603 271.174-42.122-.146.766-13.442 41.704 1.21zm-40.977-1.226 39.923.139.289-10.241-39.57-1.148z"
                      fill="#80a1db"/>
            </g>
            <g fill="#e8e235">
                <path d="m246.758 258.142-.705 12.346 7.837.027-.377-12.177z"/>
                <path d="m263.706 258.633-2.346 11.882 8.766.059-.235-11.761z"/>
                <path d="m277.919 259.046.646 11.528 8.511.056.318-11.309z"/>
            </g>
            <path d="m253.513 258.338.377 12.177h7.47l2.346-11.882z" fill="#e38e32"/>
            <path d="m269.891 258.813.235 11.761h8.439l-.646-11.528z" fill="#e38e32"/>
            <circle cx="303.771" cy="235.26" fill="#88abe8" r="9.626"/>
            <circle cx="303.771" cy="235.26" fill="#576ca8" r="4.751"/>
            <circle cx="304.944" cy="266.293" fill="#6da3bf" r="6.941"/>
            <g>
                <path d="m360.533 332.772c-.098 0-.195-.003-.294-.009-8.587-.554-29.504-4.211-41.26-10.528-15.01-8.067-18.168-54.463-18.199-54.931-.16-2.48 1.721-4.621 4.202-4.781 2.496-.153 4.621 1.722 4.781 4.202.967 14.997 6.298 43.723 13.477 47.582 9.927 5.335 29.442 8.95 37.578 9.474 2.48.16 4.362 2.301 4.202 4.781-.154 2.381-2.134 4.21-4.487 4.21z"
                      fill="#528a28"/>
            </g>
            <g>
                <path d="m304.944 300.685c-1.845 0-3.574-1.143-4.235-2.978-.841-2.339.373-4.917 2.712-5.758l7.965-2.866c2.333-.843 4.916.372 5.758 2.711.841 2.339-.373 4.917-2.712 5.758l-7.965 2.866c-.502.181-1.017.267-1.523.267z"
                      fill="#7ed43d"/>
            </g>
            <g>
                <path d="m312.299 321.041c-.795 0-1.588-.314-2.179-.936-1.14-1.203-1.089-3.102.114-4.242l8.726-8.271c1.203-1.14 3.101-1.089 4.242.113 1.14 1.203 1.089 3.102-.114 4.242l-8.726 8.271c-.581.55-1.323.823-2.063.823z"
                      fill="#7ed43d"/>
            </g>
            <ellipse cx="324.929" cy="122.151" fill="#c9edff" rx="14.334" ry="10.703"
                     transform="matrix(.643 -.766 .766 .643 22.561 292.66)"/>
            <ellipse cx="319.197" cy="100.262" fill="#c9edff" rx="6.062" ry="4.508"
                     transform="matrix(.914 -.406 .406 .914 -13.219 138.195)"/>
            <g>
                <path d="m342.287 93.387c-5.226-.368-10.339 2.586-11.823 7.09-4.815-4.124-7.62-6.544-11.314-9.577-9.047-8.062-15.9 8.984-8.448 13.328-3.983-1.282-7.85-.839-10.486 3.914-2.377 4.287-2.328 7.699 1.367 11.752-7.287-5.157-12.642 10.615-5.65 15.34 4.388 3.235 10.3 6.952 15.552 10.508 11.213 19.586 26.233 20.231 38.524 18.287 9.783-3.497 20.723-9.058 23.816-23.726 1.68-7.966 2.242-11.92-.982-18.37-7.071-14.145-27.059-11.427-30.556-28.546z"
                      fill="#99d4eb"/>
                <g fill="#668ac4">
                    <path d="m307.372 124.536c-1.71-1.788-4.161-3.766-6.425-5.378.199.243.41.488.636.736-7.287-5.157-12.642 10.615-5.65 15.34 1.134.836 2.372 1.705 3.672 2.594 2.307-4.714 5.551-12.153 7.767-13.292z"/>
                    <path d="m298.546 118.885c1.381 1.344 3.617 2.845 7.236 4.589 2.315-4.69 8.319-13.844 10.586-15.008-1.634-1.708-4.719-4.04-7.543-5.985.481.691 1.096 1.292 1.877 1.747-3.983-1.282-7.85-.839-10.486 3.914-2.377 4.287-2.328 7.699 1.367 11.752-1.065-.754-2.087-1.05-3.037-1.009z"/>
                    <path d="m316.779 109.188c2.091-3.414 6.568-9.226 9.615-12.196-2.609-2.231-4.727-4.025-7.244-6.092-9.047-8.062-15.9 8.984-8.448 13.328-.38-.122-.758-.223-1.135-.312 1.67 1.591 3.992 3.341 7.212 5.272z"/>
                    <path d="m345.881 101.263c-1.66-2.075-2.928-4.614-3.594-7.876-5.226-.368-10.339 2.586-11.823 7.09 1.375 1.309 5.126 4.774 9.782 8.064.448-3.206 2.946-5.851 5.635-7.278z"/>
                </g>
                <path d="m328.227 118.181c-5.727-6.968-14.359-13.38-20.298-17.523.468 1.473 1.364 2.749 2.773 3.57-.762-.245-1.52-.426-2.265-.527 5.876 4.165 12.81 8.69 19.79 14.48z"
                      fill="#76b5de"/>
                <path d="m316.779 109.188c.241-.394.524-.828.823-1.279-3.44-2.81-6.854-5.281-9.672-7.248.469 1.472 1.364 2.746 2.772 3.567-.38-.122-.758-.223-1.135-.312 1.669 1.591 3.992 3.341 7.212 5.272z"
                      fill="#536ab0"/>
                <path d="m315.814 108.851c.201-.164.39-.301.554-.385-1.634-1.708-4.719-4.04-7.543-5.985.481.691 1.096 1.292 1.877 1.747-.76-.245-1.517-.425-2.261-.526 2.314 1.642 4.789 3.34 7.373 5.149z"
                      fill="#536ab0"/>
                <path d="m298.113 118.928c5.715 4.022 12.362 8.409 19.053 13.96-4.863-5.917-11.816-11.427-17.44-15.493.467.814 1.076 1.642 1.857 2.499-1.229-.87-2.401-1.133-3.47-.966z"
                      fill="#76b5de"/>
                <path d="m306.317 122.435c-2.267-1.843-4.518-3.538-6.59-5.038.467.813 1.075 1.64 1.856 2.497-1.064-.753-2.085-1.05-3.035-1.009 1.38 1.344 3.615 2.845 7.234 4.589.16-.325.342-.675.535-1.039z"
                      fill="#536ab0"/>
                <path d="m298.114 118.928c2.707 1.908 5.624 3.899 8.658 6.055.206-.187.408-.349.6-.447-1.71-1.788-4.16-3.766-6.425-5.378.199.243.41.488.635.736-1.228-.87-2.399-1.133-3.468-.966z"
                      fill="#536ab0"/>
                <path d="m332.412 97.192c-.867.959-1.545 2.062-1.948 3.285-.592-.508-1.153-.988-1.69-1.448 4.865 4.81 9.839 8.164 18.028 14.957-5.443-6.622-12.233-11.454-14.39-16.794z"
                      fill="#76b5de"/>
                <path d="m332.428 97.174c-.875.963-1.559 2.072-1.965 3.303 1.375 1.309 5.126 4.774 9.782 8.064.06-.429.167-.845.296-1.253-3.559-3.554-6.753-6.733-8.113-10.114z"
                      fill="#536ab0"/>
                <path d="m312.744 143.951c-8.823-5.557-16.093-7.269-17.721-12.387-1.411-4.434.034-12.201 6.152-11.925-7.075-4.298-12.103 10.959-5.242 15.595 4.388 3.235 10.3 6.952 15.552 10.508 11.213 19.585 26.231 20.231 38.522 18.287h.001c-16.085.733-26.529-4.101-37.264-20.078z"
                      fill="#76b5de"/>
                <path d="m300.044 136.924c-2.522-1.54-4.31-3.125-5.021-5.36-1.411-4.434.034-12.201 6.152-11.925-7.075-4.298-12.103 10.959-5.242 15.595 1.134.836 2.372 1.705 3.671 2.594.145-.295.289-.591.44-.904z"
                      fill="#536ab0"/>
            </g>
        </g>
    </g>
</svg>