<?xml version="1.0" encoding="UTF-8"?>
<svg xmlns="http://www.w3.org/2000/svg" xmlns:xlink="http://www.w3.org/1999/xlink" version="1.1" id="character" x="0px" y="0px" viewBox="0 0 512 512" xml:space="preserve" width="512" height="512">
<g>
	<polygon fill="none" points="431.361,413.295 121.143,417.543 144.893,215.83 353.76,190.44  "/>
	<ellipse fill="none" cx="279.779" cy="476.208" rx="108.623" ry="24.629"/>
	<path fill="#333466" d="M132.481,191.217c0,0,37.888,26.78,131.759-6.978c61.34-22.059,89.519-45.678,89.519-52.683   C323.795,128.067,231.263,120.901,132.481,191.217z"/>
	<path fill="#6E82BA" d="M262.799,183.308c61.487-22.015,84.717-42.044,89.944-50.848c4.093-1.419,6.864-3.861,8.071,0.674   c-8.079,10.898-50.258,36.111-95.981,53.111c-54.458,20.248-105.442,22.107-137.457,8.548c-0.835-4.353,1.399-7.56,8.867-5.049   C156.712,196.625,190.974,209.024,262.799,183.308z"/>
	<g>
		<path fill="#C9D7DB" d="M203.813,143.881c-6.518,16.631,6.336,41.974-5.28,56.757c-11.615,14.783-17.423,6.072-13.991-2.376    c-9.767,5.808-15.575,25.871,17.687,30.094s32.511-44.662,30.26-55.173C225.988,142.825,203.813,143.881,203.813,143.881z"/>
		<path fill="#A5B6C9" d="M211.593,145.298c-3.478,0.084-6.356,0.235-8.391,0.369c-2.062,6.813-1.337,14.883-0.532,23.018    c3.075,5.663,7.778,11.324,14.298,15.849c0.25,5.176-0.967,9.916-3.133,14.073c-10.92-2.49-14.014,4.137-11.586,12.586    c-9.014,5.962-20.87,12.144-25.049,2.442c1.352,6.364,8.161,12.579,25.029,14.721c33.262,4.224,32.511-44.662,30.26-55.173    C228.505,154.578,218.639,147.78,211.593,145.298z"/>
	</g>
	<g>
		<path fill="#822C0F" d="M209.64,469.28c5.512,6.269,24.509,26.476,53.009,17.29c3.866-12.8-3.388-24.737-18.676-41.494    C235.795,436.112,212.414,463.524,209.64,469.28z"/>
		<path fill="#63200B" d="M217.806,470.009c8.53-15.676,26.07-9.944,39.887-7.697c-3.316-5.262-7.943-10.905-13.719-17.236    c-8.179-8.964-31.559,18.447-34.334,24.203c5.512,6.269,24.509,26.476,53.009,17.29    C237.686,488.424,227.21,477.998,217.806,470.009z"/>
	</g>
	<g>
		<path fill="#822C0F" d="M283.366,458.474c6.29,5.489,40.963,28.799,68.682,10.32c-1.554-9.89-11.879-18.908-24.332-26.951    C317.522,435.259,285.359,452.402,283.366,458.474z"/>
		<path fill="#63200B" d="M352.048,468.794c-14.255,4.554-34.341,5.93-45.735-4.752c13.562-11.113,20.341-15.425,38.681-8.301    c-4.44-4.906-10.54-9.546-17.278-13.898c-10.194-6.584-42.357,10.56-44.35,16.631    C289.656,463.963,324.329,487.272,352.048,468.794z"/>
	</g>
	<g>
		<path fill="#4DD198" d="M205.447,156.786c-5.28,6.909,1.155,18.677,11.351,21.548c9.068,2.553,9.526-11.186,3.668-16.954    C214.608,155.612,207.722,153.809,205.447,156.786z"/>
		<path fill="#35A69C" d="M206.501,159.546c2.319-1.395,7.817,1.165,10.793,6.305c1.353,2.337-3.198,0.867-4.589,4.162    c-0.621,1.473,1.808,5.257-0.606,3.722C206.358,170.083,203.755,161.198,206.501,159.546z"/>
	</g>
	<g>
		<path fill="#6857AB" d="M297.03,463.595c23.828-18.223,31.67-20.426,47.427-8.555c10.249-2.05,9.736-11.017,2.818-8.968    c-12.042-8.711-17.967-48.478-18.736-66.221c-0.769-17.743,5.765-23.508-5.893-36.575c-9.893-11.089-82.501-19.729-95.825-8.968    c-13.323,10.761-18.256,21.493-17.166,34.717c2.122,25.75-4.099,66.232-13.067,85.448c-13.579,1.025,3.859,13.804,16.289,14.742    c7.015,0.53,14.781-22.335,47.797-7.696C273.446,467.183,284.887,467.826,297.03,463.595z"/>
		<path fill="#4A458F" d="M284.427,457.269c-30.598-0.285-32.785-18.232-71.549,1.561c-17.613-3.267,3.524-27.479,2.413-107.418    c-0.026-1.889-0.268-3.137-0.685-3.836c-4.098,6.624-5.597,13.597-4.95,21.451c2.122,25.75-4.099,66.232-13.067,85.448    c-13.579,1.025,3.859,13.804,16.289,14.742c7.015,0.53,14.781-22.335,47.797-7.696c12.772,5.663,24.212,6.306,36.355,2.075    c23.828-18.223,31.67-20.426,47.427-8.555c10.249-2.05,9.736-11.017,2.818-8.968C308.256,431.543,301.789,457.431,284.427,457.269    z"/>
		<path fill="#4A458F" d="M237.327,429.877c9.897-21.209,10.045-81.722,7.704-110.142c38.588-16.078,47.201-9.266,59.425-3.874    c6.731,19.512,9.753,87.931,19.985,107.867C298.656,446.151,262.707,442.39,237.327,429.877z"/>
		<path fill="#46C2E3" d="M242.121,427.544c8.968-19.216,8.657-76.886,6.536-102.636c34.963-14.567,48.935-11.973,60.01-7.088    c6.098,17.679,7.18,83.783,16.451,101.846C301.756,439.982,265.116,438.882,242.121,427.544z"/>
		<path fill="#95EDEC" d="M257.619,421.467c6.053-12.97,5.843-51.896,4.411-69.277c23.599-9.832,33.03-8.082,40.505-4.785    c4.116,11.933,4.847,56.551,11.104,68.744C297.871,429.862,273.14,429.12,257.619,421.467z"/>
		<path fill="#4A458F" d="M245.244,379.117c3.556-11.438,8.38-33.299,5.962-42.406c-3.376-1.929-8.186-4.112-14.895-5.969    c-4.205,0.798-7.506,1.966-9.488,3.567c-13.323,10.761-18.256,21.493-17.166,34.717c0.214,2.602,0.34,5.361,0.389,8.227    c9.967,4.601,20.225,6.636,26.429,7.018C240.066,383.622,243.095,381.211,245.244,379.117z"/>
	</g>
	<path fill="#4DD198" d="M425.304,182.509c-1.468,7.366-2.99,14.696-6.218,25.451c-8.351-3.103-26.753-17.645-25.602-24.412   c4.829-4.785,10.427-17.611,14.294-21.201C416.256,160.416,426.646,175.775,425.304,182.509z"/>
	<path fill="#554594" d="M362.84,208.224c-4.454,8.265-8.261,10.942-14.646,13.631c-22.007-0.492-41.653,0.418-58.235,17.226   c-19.459,19.724,38.35,61.058,38.35,61.058c18.896-23.008,32.505-26.348,73.369-38.744c13.268-4.025,4.487-35.909-4.531-48.343   C386.283,198.073,370.134,194.689,362.84,208.224z"/>
	<path fill="#433380" d="M368.823,201.674c3.319,35.582,44.232,70.243-4.013,36.661c20.522,34.443-4.231,14.578-13.749,9.529   c4.108-6.344,6.351-16.643,4.393-30.076c-2.1,1.679-4.425,2.873-7.259,4.066c-2.413-0.054-4.795-0.089-7.15-0.09   c-19.242,9.812-46.561,21.847-55.036,28.202c1.538,21.022,42.301,50.172,42.301,50.172c18.896-23.008,32.505-26.348,73.369-38.744   c13.268-4.025,4.487-35.909-4.531-48.343C388.684,201.384,377.016,196.755,368.823,201.674z"/>
	<path fill="#554594" d="M384.497,179.942c-3.265-0.123-2.719,7.585-1.55,10.18c3.622,8.038,27.5,13.789,39.542,11.073   c4.247-0.958,6.646-5.175,3.937-6.814C421.294,191.275,394.321,180.312,384.497,179.942z"/>
	<path fill="#4DD198" d="M93.885,230.985c4.366,6.112,8.766,12.169,16.129,20.647c6.338-6.261,17.137-27.081,13.307-32.777   c-6.369-2.378-16.743-11.77-21.744-13.454C93.054,207.125,89.894,225.398,93.885,230.985z"/>
	<path fill="#554594" d="M240.522,226.935c-22.025-8.508-40.309-1.264-60.17,8.229c-6.925,0.172-11.496-0.703-18.954-6.407   c-12.212-9.341-25.543,0.381-29.291,18.501c-3.111,15.042,1.987,47.717,15.737,45.934c42.348-5.493,56.127-8.041,82.81,5.168   C230.653,298.359,266.368,236.919,240.522,226.935z"/>
	<path fill="#433380" d="M248.597,235.235c-10.338-2.311-40.19-2.055-61.764-3.092c-2.146,0.969-4.304,1.98-6.481,3.021   c-3.074,0.077-5.685-0.056-8.289-0.724c3.735,13.051,10.013,21.518,16.366,25.613c-6.602,8.514-21.004,36.797-16.451-3.037   c-30.181,50.443-7.128,2.03-18.725-31.772c-9.491-1.118-18.226,7.898-21.145,22.013c-3.111,15.042,1.987,47.717,15.737,45.934   c42.348-5.493,56.127-8.041,82.81,5.168C230.653,298.359,255.835,255.032,248.597,235.235z"/>
	<path fill="#554594" d="M130.032,211.874c2.926-1.454,5.596,5.798,5.597,8.644c0.001,8.817-19.403,23.873-31.498,26.346   c-4.266,0.872-8.185-1.986-6.39-4.594C101.143,237.328,121.227,216.248,130.032,211.874z"/>
	<g>
		<path fill="#3E2869" d="M152.324,231.259c-5.339-3.945-12.492-3.05-18.66-8.982c-2.58-1.231-26.218,13.977-28.642,23.029    c3.913,9.099,13.25,24.595,32.637,33.131C150.122,273.389,154.663,251.786,152.324,231.259z"/>
		<path fill="#261D54" d="M131.357,275.216c0.452,0.263,0.925,0.515,1.39,0.77l19.678-43.755c-0.033-0.324-0.064-0.649-0.1-0.972    c-0.301-0.222-0.609-0.425-0.921-0.618L131.357,275.216z"/>
		<path fill="#261D54" d="M131.153,275.103c0.332-10.959,9.415-28.95,19.907-44.665c-0.452-0.264-0.916-0.502-1.388-0.72    c-8.818,13.342-19.198,32.076-20.065,44.429C130.119,274.467,130.622,274.792,131.153,275.103z"/>
		<path fill="#261D54" d="M108.136,251.548c0.325,0.574,0.657,1.151,1.016,1.742c4.743-10.867,16.098-20.993,28.901-27.867    c-0.547-0.288-1.09-0.607-1.631-0.961C124.146,231.167,113.175,240.811,108.136,251.548z"/>
		<path fill="#261D54" d="M141.772,227.006l-30.198,29.974c0.303,0.431,0.618,0.863,0.94,1.298l30.948-30.717    C142.901,227.387,142.337,227.202,141.772,227.006z"/>
		<path fill="#261D54" d="M119.747,266.504c4.78-13.417,14.212-28.923,25.161-38.499c-1.153-0.351-2.327-0.709-3.506-1.131    c-10.484,9.698-19.268,24.177-24.113,37.141C118.073,264.851,118.886,265.683,119.747,266.504z"/>
		<path fill="#261D54" d="M148.418,229.182l-26.359,39.415c0.79,0.682,1.615,1.352,2.465,2.012l26.776-40.038    C150.381,230.012,149.414,229.57,148.418,229.182z"/>
		<path fill="#261D54" d="M152.324,231.259c-0.867-0.64-1.785-1.145-2.736-1.58c-0.232,14.113-3.187,38.461-12.242,43.773    c-11.284-5.246-17.588-8.181-27.434-23.615c-0.089-10.781,13.252-21.663,24.13-27.224c-0.126-0.115-0.254-0.215-0.379-0.336    c-2.58-1.231-26.218,13.977-28.642,23.029c3.913,9.099,13.25,24.595,32.637,33.131    C150.122,273.389,154.663,251.786,152.324,231.259z"/>
	</g>
	<g>
		<path fill="#3E2869" d="M371.932,203.741c3.475-5.656,10.443-7.502,13.944-15.311c1.932-2.107,29.544,3.152,35.179,10.639    c-0.224,9.902-3.085,27.766-17.87,42.936C389.738,241.987,377.443,223.652,371.932,203.741z"/>
		<path fill="#261D54" d="M407.823,236.66c-0.321,0.413-0.665,0.823-1.001,1.235l-34.62-33.214c-0.09-0.313-0.184-0.625-0.271-0.939    c0.196-0.319,0.406-0.622,0.623-0.918L407.823,236.66z"/>
		<path fill="#261D54" d="M407.97,236.479c-4.409-10.038-19.563-23.324-35.173-33.973c0.321-0.414,0.662-0.808,1.018-1.187    c13.17,9.073,29.805,22.562,35.231,33.695C408.691,235.502,408.345,235.992,407.97,236.479z"/>
		<path fill="#261D54" d="M420.501,206.022c-0.086,0.653-0.179,1.314-0.291,1.996c-8.465-8.303-22.784-13.445-37.228-15.029    c0.399-0.471,0.784-0.971,1.153-1.501C398.029,193.113,411.811,197.951,420.501,206.022z"/>
		<path fill="#261D54" d="M380.126,195.849l39.22,16.498c-0.12,0.513-0.25,1.032-0.386,1.555l-40.193-16.906    C379.222,196.624,379.675,196.242,380.126,195.849z"/>
		<path fill="#261D54" d="M415.33,224.237c-9.453-10.654-24.001-21.505-37.739-26.288c0.938-0.757,1.893-1.528,2.828-2.361    c13.351,5.07,26.915,15.211,36.258,25.422C416.264,222.078,415.821,223.153,415.33,224.237z"/>
		<path fill="#261D54" d="M374.778,200.353l39.192,26.69c-0.478,0.928-0.992,1.858-1.533,2.789l-39.812-27.112    C373.267,201.857,373.999,201.086,374.778,200.353z"/>
		<path fill="#261D54" d="M371.932,203.741c0.564-0.918,1.227-1.73,1.946-2.489c5.496,13.001,17.346,34.475,27.731,36.013    c8.502-9.087,13.249-14.167,16.605-32.165c-3.951-10.031-20.395-15.131-32.564-16.218c0.074-0.153,0.155-0.295,0.225-0.453    c1.932-2.107,29.544,3.152,35.179,10.639c-0.224,9.902-3.085,27.766-17.87,42.936    C389.738,241.987,377.443,223.652,371.932,203.741z"/>
	</g>
	<path fill="#2F2C42" d="M230.386,334.837c21.911,4.153,56.493,6.732,82.891,4.092c7.128-2.112,13.265-3.663,12.756,4.554   c-3.781,6.93-12.523,18.103-42.191,18.281c-37.354,0.224-58.739-10.425-72.994-21.116   C211.511,324.014,223.655,327.182,230.386,334.837z"/>
	<path fill="#6857AB" d="M326.034,338.533c0-20.987-7.609-58.066-3.253-81.176c4.356-23.109-121.961,8.316-121.961,8.316   c4.356,19.007,9.503,46.725,9.107,60.585c-0.396,13.859,21.779,23.363,58.091,29.017   C293.953,359.313,315.031,350.016,326.034,338.533z"/>
	<path fill="#4A458F" d="M315.545,250.028c-17.946-4.314-64.637,4.497-92.616,10.564c0.263,22.595-0.265,44.829,12.737,79.525   c0.411,3.406,1.742,6.405,3.784,9.03c8.109,2.396,17.7,4.436,28.568,6.128c20.316,3.163,37.65-1.857,49.497-9.7   C316.506,316.024,312.867,280.21,315.545,250.028z"/>
	<path fill="#46C2E3" d="M311.022,254.719c0.195-2.148-0.042-3.969-0.628-5.516c-19.361-1.897-57.058,4.943-82.778,10.385   c0.571,26.397,2.065,59.523,14.401,90.291c7.545,2.081,16.259,3.878,26.002,5.396c17.841,2.778,33.384-0.755,44.929-6.969   C312.515,320.389,308.321,284.473,311.022,254.719z"/>
	<path fill="#95EDEC" d="M310.642,258.875c0.338-4.805-1-7.972-3.489-9.905c-8.25-0.386-19.023,0.465-30.547,1.961   c-14.778,5.061-28.765,12.618-28.765,12.618c0.442,26.373,1.627,59.672,11.684,90.279c2.74,0.506,5.566,0.99,8.495,1.446   c17.403,2.71,32.614-0.589,44.066-6.52C311.697,321.799,308.633,287.41,310.642,258.875z"/>
	<path fill="#318CC4" d="M227.444,333.826c-0.439,2.895-1.885,6.064-3.673,9.298c6.54,3.356,15.24,6.234,25.771,8.651   c1.189-4.704,2.162-9.848,1.103-10.509C243.047,336.516,227.444,333.826,227.444,333.826z"/>
	<path fill="#4A458F" d="M177.896,255.847c-1.613,4.029,32.954,25.559,45.951,30.021c19.273-16.502,32.281-41.926,0.813-47.121   C201.876,234.985,177.896,255.847,177.896,255.847z"/>
	<path fill="#8C4712" d="M304.236,193.87c-15.575,9.183-68.57,15.443-79.13,10.691c-10.559-4.752-26.663-9.767-16.367,8.448   c-16.22,4.488-25.056,10.153-34.984,21.789c23.287,38.484,51.351,50.015,98.469,45.264c56.776-5.726,79.823-29.741,81.535-62.861   c-9.745-9.153-27.696-11.205-40.02-11.319C315.241,199.963,319.811,184.686,304.236,193.87z"/>
	<path fill="#70310D" d="M237.101,206.178c-5.441-0.08-9.712-0.59-11.994-1.617c-2.432-1.095-5.158-2.2-7.788-3.035   c-5.767,22.725-14.66,44.455-13.367,66.56c8.767,5.75,18.463,9.452,29.486,11.371C236.632,247.16,234.97,234.586,237.101,206.178z"/>
	<g>
		<path fill="#4DD198" d="M91.239,174.662c-8.028-0.566-12.47,6.376-8.958,13.107c3.65,2.156,6.986,7.144,5.489,7.205    c-5.473,0.221-10.031-0.465-13.798-1.555c-8.051-6.24-9.956-11.296-12.018-12.321c-5.642-2.804-12.424,3.272-10.081,5.62    c-2.359,2.054-4.206,6.207-3.121,7.435c1.143,1.294,2.355,2.766,4.216,4.819c-1.22,1.803-2.475,5.722-1.861,7.706    c3.638,3.576,10.264,10.337,14.184,15.633c5.996,3.053,17.754,10.331,26.487,8.53c5.591-1.153,10.528-6.93,7.609-12.621    c5.415-0.933,8.293-4.769,8.852-8.944c-1.548-2.376-1.336-10.814-3.998-14.189C99.92,189.611,90.35,185.404,91.239,174.662z"/>
		<path fill="#35A69C" d="M89.876,208.031c1.936,4.724,6.021,8.237,8.004,8.784c-1.121-0.877-9.664-7.397-9.272-19.01    C87.885,200.851,88.307,204.201,89.876,208.031z"/>
		<path fill="#35A69C" d="M80.674,214.257c3.905-1.918,8.235-2.111,9.608-1.676c-1.211-0.075-9.882-0.147-16.197,7.48    C75.346,217.71,77.508,215.811,80.674,214.257z"/>
		<path fill="#35A69C" d="M69.87,205.293c-2.032,6.484-3.167,12.07-3.051,13.92c1.729-7.757,4.867-17.136,7.968-22.865    C72.649,198.634,71.108,201.344,69.87,205.293z"/>
		<path fill="#35A69C" d="M86.906,229.462c-5.783-0.108-14.634-4.187-20.894-8.257c-3.728-5.069-7.751-8.949-12.869-14.818    c-1.068-2.313-0.727-4.883,0.976-7.054c1.423-0.052,4.692,0.42,11.874,9.555c-2.458-3.934-7.589-11.109-12.406-11.111    c-3.075-3.222-4.867-5.024-2.177-8.476c0.602-0.772,1.352-2.831,3.677-2.238c0.291,0.074,8.361,5.356,12.907,10.578    c-5.216-8.157-15.929-11.573-14.189-14.736c0.138-0.251,1.771-1.723,3.994-2.455c-4.238,0.574-7.704,4.487-5.929,6.266    c-2.359,2.054-4.206,6.207-3.121,7.435c1.143,1.294,2.355,2.766,4.216,4.819c-1.22,1.803-2.475,5.722-1.861,7.706    c3.638,3.576,10.264,10.337,14.184,15.633c5.996,3.053,17.754,10.331,26.487,8.53c5.591-1.153,10.528-6.93,7.609-12.621    C102.484,227.427,92.69,229.569,86.906,229.462z"/>
	</g>
	<g>
		<path fill="#4DD198" d="M452.772,136.157c-2.062,1.025-3.967,6.081-12.018,12.321c-3.767,1.09-8.326,1.777-13.798,1.555    c-1.497-0.061,1.839-5.049,5.489-7.205c3.512-6.731-0.931-13.672-8.958-13.107c0.889,10.742-8.681,14.949-13.002,20.426    c-2.662,3.374-2.45,11.812-3.998,14.189c0.559,4.175,3.437,8.011,8.852,8.944c-2.918,5.692,2.018,11.468,7.609,12.621    c8.733,1.801,20.49-5.477,26.487-8.53c3.92-5.296,10.332-12.305,13.97-15.882c0.615-1.984-2.313-5.853-3.534-7.656    C458.293,145.3,458.414,133.354,452.772,136.157z"/>
		<path fill="#35A69C" d="M424.848,163.091c-1.936,4.724-6.021,8.237-8.004,8.784c1.121-0.877,9.665-7.397,9.272-19.01    C426.839,155.911,426.417,159.261,424.848,163.091z"/>
		<path fill="#35A69C" d="M444.854,160.353c2.032,6.484,3.167,12.07,3.051,13.92c-1.729-7.757-4.867-17.136-7.968-22.865    C442.076,153.694,443.616,156.404,444.854,160.353z"/>
		<g>
			<path fill="#35A69C" d="M449.434,177.372c3.92-5.296,10.332-12.305,13.97-15.882c0.356-1.151-0.48-2.934-1.482-4.582     c0.442,1.505,0.335,3.073-0.341,4.538c-5.118,5.869-9.141,9.749-12.869,14.818c-6.259,4.07-15.111,8.149-20.894,8.257     c-5.783,0.108-15.578-2.034-12.48-11.24c-2.918,5.692,2.018,11.468,7.609,12.621C431.68,187.704,443.438,180.426,449.434,177.372     z"/>
			<path fill="#35A69C" d="M458.29,142.971c-0.045-0.264-0.092-0.525-0.14-0.78c-3.212,2.447-8.299,5.63-11.421,10.511     C450.213,148.701,455.754,144.673,458.29,142.971z"/>
			<path fill="#35A69C" d="M448.731,163.948c6.652-8.462,9.944-9.489,11.525-9.553c-0.139-0.201-0.272-0.392-0.385-0.56     c-0.048-0.259-0.094-0.522-0.139-0.787C455.351,154.216,450.951,160.395,448.731,163.948z"/>
		</g>
	</g>
	<g>
		<g>
			<defs>
				<path id="SVGID_1_" d="M452.077,134.191c-1.905,1.938-3.38,9.656-3.884,12.887c-0.828,5.309,11.155,9.624,11.891,5.391      s0.852-9.353,2.034-14.455C463.137,133.612,454.253,131.978,452.077,134.191z"/>
			</defs>
			<clipPath id="SVGID_2_">
				<use xlink:href="#SVGID_1_" overflow="visible"/>
			</clipPath>
			<path clip-path="url(#SVGID_2_)" fill="#4DD198" d="M450.489,134.384c-3.941,12.147-5.257,17.028-4.348,21.066     c1.192,5.295,7.647,4.413,11.525,3.081c5.488-5.587,12.906-20.01,7.937-21.354C471.419,126.663,453.695,128.523,450.489,134.384z     "/>
		</g>
		<g>
			<defs>
				<path id="SVGID_3_" d="M452.077,134.191c-1.905,1.938-3.38,9.656-3.884,12.887c-0.828,5.309,11.155,9.624,11.891,5.391      s0.852-9.353,2.034-14.455C463.137,133.612,454.253,131.978,452.077,134.191z"/>
			</defs>
			<clipPath id="SVGID_4_">
				<use xlink:href="#SVGID_3_" overflow="visible"/>
			</clipPath>
			<path clip-path="url(#SVGID_4_)" fill="#35A69C" d="M462.211,137.816c2.364-5.283-11.433-7.367-15.167-4.008     c-3.96,14.329,4.062,20.263,6.564,24.527c3.171-8.002,4.5-14.16,2.586-22.351C458.038,135.895,460.611,135.003,462.211,137.816z"/>
		</g>
	</g>
	<g>
		<path fill="#E0DEC7" d="M442.879,120.739c-27.445-19.307-42.54-10.804-49.707,9.894c-14.42,7.494-10.783,17.044-4.464,20.33    c9.367-0.816,9.626,2.22,1.068,9.446c0.397,7.977,11.092,14.079,20.323,15.334c2.956-8.089,7.49-11.847,10.101-1.493    c15.075,8.11,21.486,5.741,28.464-6.158C459.794,149.115,459.166,132.197,442.879,120.739z"/>
		<path fill="#B8AF9C" d="M450.197,165.336c0.286-0.537,0.561-1.073,0.827-1.607c0.096-0.192,0.193-0.384,0.286-0.575    c0.346-0.711,0.679-1.42,0.989-2.124c0.002-0.006,0.005-0.011,0.007-0.016c0.307-0.699,0.592-1.392,0.864-2.084    c0.065-0.166,0.128-0.331,0.191-0.497c0.22-0.576,0.428-1.15,0.623-1.721c0.045-0.132,0.092-0.263,0.136-0.395    c0.47-1.415,0.86-2.813,1.171-4.192c0.024-0.107,0.047-0.213,0.07-0.32c0.138-0.637,0.261-1.27,0.365-1.898    c0.008-0.051,0.018-0.102,0.027-0.153c0.226-1.405,0.363-2.789,0.412-4.15c0.002-0.049,0.003-0.098,0.005-0.147    c0.065-2.063-0.075-4.074-0.429-6.023c-0.002-0.01-0.004-0.02-0.005-0.03c-0.361-1.973-0.941-3.885-1.748-5.728l0,0    c5.74,13.579-8.874,53.78-31.638,39.117c-2.9-1.868-4.203-9.863-8.93-6.661c-3.646,2.47-1.44,9.335-12.966,0.845    c-11.108-8.182-5.36-7.637-3.37-11.459c1.063-2.042,1.337-5.612-5.072-6.145c-6.453-0.537-11.316-8.98,1.162-18.74    c-14.42,7.494-10.783,17.044-4.464,20.33c9.254-0.806,9.602,2.155,1.359,9.193c-0.03,0.026-0.059,0.052-0.089,0.078    c-0.07,0.06-0.13,0.115-0.201,0.175c0.397,7.977,11.092,14.079,20.323,15.334c2.956-8.089,7.49-11.847,10.101-1.493    c15.075,8.11,21.486,5.741,28.464-6.158c0.42-0.717,0.818-1.429,1.204-2.14C449.981,165.747,450.088,165.542,450.197,165.336z"/>
		<path fill="#B8AF9C" d="M434.124,137.414c6.316,4.543,8.762,12.301,1.955,21.762c0.375,3.298,0.606,5.667,2.788,8.709    c-2.9-1.792-4.103-4.951-4.525-8.545c8.494-9.094,2.001-18.192-1.325-20.201c-4.817-2.909-12.41-2.381-15.287,1.037    C420.119,136.189,427.808,132.871,434.124,137.414z"/>
		<path fill="#B8AF9C" d="M409.412,128.929c6.052,0.99,12.107,5.675,4.871,12.539c6.695-7.168-2.057-10.876-5.079-11.377    c-3.94-0.654-10.108,0.654-12.376,3.348C399.777,129.13,406.665,128.48,409.412,128.929z"/>
		<path fill="#E0DEC7" d="M389.278,165.225c-0.916-0.28-2.695-2.604-1.986-3.347c0.823-1.597,4.21-2.821,5.601-1.216    C394.559,162.586,391.55,165.919,389.278,165.225z"/>
		<path fill="#E0DEC7" d="M403.352,177.468c-0.916-0.28-2.042-1.154-1.333-1.897c0.823-1.597,3.141-5.481,4.532-3.876    C408.217,173.618,405.624,178.162,403.352,177.468z"/>
		<path fill="#E0DEC7" d="M391.385,169.251c-0.814-0.227-1.321-2.033-0.643-2.792c0.824-1.597,2.961-3.326,4.139-1.832    C396.292,166.417,393.405,169.813,391.385,169.251z"/>
		<path fill="#E0DEC7" d="M408.471,178.663c-0.832,0.149-2.073-1.259-1.791-2.237c0.049-1.796,1.224-4.282,2.934-3.447    C411.663,173.98,410.535,178.293,408.471,178.663z"/>
		<path fill="#E0DEC7" d="M395.029,173.437c-0.814-0.227-2.475-2.392-1.797-3.151c1.96-2.987,4.333-4.673,5.511-3.178    C400.153,168.897,397.049,173.999,395.029,173.437z"/>
		<path fill="#E0DEC7" d="M400.164,176.251c-0.845,0.023-3.069-1.559-2.644-2.484c0.995-3.431,2.768-5.74,4.333-4.657    C403.728,170.406,402.26,176.195,400.164,176.251z"/>
		
			<ellipse transform="matrix(0.4618 -0.887 0.887 0.4618 93.0833 434.7964)" fill="#73675C" cx="404.823" cy="140.696" rx="8.398" ry="7.723"/>
		<path fill="#73675C" d="M408.634,161.742c-1.32,3.522-5.229,2.876-5.46-1.57c-2.922,1.703-4.941-0.367-3.307-2.527    c1.066-1.41,5.058-3.036,7.268-2.758C408.828,157.388,409.093,160.518,408.634,161.742z"/>
		
			<ellipse transform="matrix(0.4618 -0.887 0.887 0.4618 92.5631 457.9818)" fill="#73675C" cx="423.668" cy="152.717" rx="10.358" ry="9.526"/>
	</g>
	<path fill="#4DD198" d="M450.041,150.858c-0.434,2.181,2.021,8.126,3.126,10.563c1.816,4.005,6.1,3.454,10.237,0.07   c1.059-2.692-3.294-8.501-4.775-12.523C457.351,145.497,450.537,148.366,450.041,150.858z"/>
	<path fill="#35A69C" d="M450.041,150.858c-0.434,2.181,2.021,8.126,3.126,10.563c0.848,1.871,2.239,2.737,3.898,2.795   c-3.979-0.219-7.057-11.977-5.22-13.999c1.596-1.419,3.687-1.675,5.382-1.444c3.199,7.427,8.63,11.046,2.269,15.029   c1.262-0.448,2.592-1.234,3.908-2.311c1.059-2.692-3.294-8.501-4.775-12.523C457.351,145.497,450.537,148.366,450.041,150.858z"/>
	<g>
		<path fill="#A15834" d="M242.954,336.791c-6.904-2.124-36.764-6.325-36.764-6.325s-7.923,6.368-7.494,37.767    c5.471,4.703,34.673,10.733,34.673,10.733s6.505-1.724,7.247-4.544c2.022-7.681,5.306-22.876,6.94-31.824    C247.988,340.231,244.328,338.044,242.954,336.791z"/>
		<path fill="#803320" d="M199.644,349.42c-0.057,0.428-0.112,0.865-0.164,1.312c7.887,7.28,27.406,6.073,37.577,4.486    c-1.687,7.248-3.126,14.684-4.016,18.885c-12.335-0.749-27.601-2.72-34.341-10.637c-0.022,1.525-0.027,3.103-0.004,4.767    c5.471,4.703,34.673,10.733,34.673,10.733s6.505-1.724,7.247-4.544c2.022-7.681,5.306-22.876,6.94-31.824    c0.432-2.367-3.227-4.554-4.602-5.808c-1.743,2.721-3.552,8.79-5.183,15.436C233.216,355.118,208.641,358.604,199.644,349.42z"/>
		<path opacity="0.5" fill="#3B1A15" d="M214.439,361.473c0,0,2.008-5.756,3.451-8.798    c-0.115-0.141-7.777-1.506-7.777-1.506s-0.361,2.645-1.17,8.743C209.336,360.11,214.439,361.473,214.439,361.473z"/>
		<path opacity="0.5" fill="#3B1A15" d="M243.185,337.958c-0.975,3.011-2.35,7.992-3.981,14.638    c-4.519,2.868-30.228,6.297-39.63-2.62c-0.022,0.173-0.044,0.344-0.065,0.519c8.034,7.269,29.103,5.628,39.29,4.038    c1.282-3.058,2.722-8.973,4.545-15.332c1.968,1.22,2.652,1.593,3.79,2.424C246.748,340.905,243.382,337.351,243.185,337.958z"/>
		<path fill="#9DC7C4" d="M213.895,360.81c0,0,2.008-5.756,3.451-8.798c-0.115-0.141-7.777-1.506-7.777-1.506    s-0.361,2.645-1.17,8.743C208.793,359.448,213.895,360.81,213.895,360.81z"/>
	</g>
	<g>
		<path fill="#DBE5E6" d="M350.957,272.231c-7.671-42.359-24.73-53.896-52.269-84.739c-13.055-14.621-25.079-54.249-25.079-54.249    s-22.64,4.151-67.279,17.951c8.704,9.835,16.98,28.378,14.741,44.613s-19.266,61.773-11.742,89.491    c4.639,17.091,18.611,38.146,53.193,55.041c16.403,8.014,34.054,24.169,19.271,32.998    C316.766,371.78,358.862,315.88,350.957,272.231z"/>
		<path fill="#CBC8DE" d="M300.866,333.013c-23.843-3.185-80.563-11.805-85.933-62.237c-6-56.358,21.19-67.473,1.342-109.974    c15.476-14.177,28.665-8.86,32.319-6.704c12.997,7.668,22.636,9.692,32.763,1.046c-4.696-11.847-7.748-21.902-7.748-21.902    s-22.64,4.151-67.279,17.951c8.704,9.835,16.98,28.378,14.741,44.613s-19.266,61.773-11.742,89.491    c4.639,17.091,18.611,38.146,53.193,55.041c16.403,8.014,34.054,24.169,19.271,32.998c26.729-1.19,57.617-34.123,67.165-69.069    C334.11,322.801,315.62,334.985,300.866,333.013z"/>
		<path fill="#CBC8DE" d="M268.177,203.289c0.068-0.618-0.687-0.768-1.428-0.462c-2.008,4.495-47.421,80.6-7.244,135.999    c0.989,0.508,1.992,1.013,3.017,1.513c0.002,0.001,0.003,0.002,0.005,0.002C222.244,282.159,263.133,214.165,268.177,203.289z"/>
		<path fill="#CBC8DE" d="M248.595,202.703c-3.88,2.569-36.891,35.131-40.838,73.525c0.15,1.601,0.358,3.164,0.624,4.688    c3.194-35.304,29.984-64.903,41.172-77.058C250.428,203.054,249.696,202.6,248.595,202.703z"/>
		<path fill="#CBC8DE" d="M215.862,166.372c0.186,0.412,0.372,0.824,0.551,1.242c10.831-2.829,21.117-3.247,27.764-3.684    c0.486-0.023,0.53-0.419,0.055-0.795C242.279,162.787,228.642,162.731,215.862,166.372z"/>
		<path fill="#CBC8DE" d="M247.258,176.54c-2.042,0.607-15.98,7.572-26.032,17.681c-0.051,0.529-0.082,1.061-0.155,1.586    c-0.016,0.117-0.04,0.25-0.058,0.37c9.287-9.161,20.025-15.068,26.552-18.902C247.97,177.031,247.864,176.665,247.258,176.54z"/>
		<path fill="#CBC8DE" d="M319.18,209.741c-20.862-13.706-43.039-19.375-46.231-19.583c-0.34,0.55-0.736,1.02-0.257,1.479    c10.675,3.383,30.439,8.126,48.865,20.743C320.779,211.507,319.986,210.627,319.18,209.741z"/>
		<path fill="#CBC8DE" d="M334.893,334.986c1.053-1.609,2.066-3.25,3.043-4.915c19.564-65.858-49.092-122.445-52.503-126.008    c-0.801-0.039-1.461,0.357-1.189,0.916C292.772,213.64,355.761,265.183,334.893,334.986z"/>
		<path fill="#AEB1BF" d="M302.897,192.139c-4.032,1.603-10.371,0.765-14.068,0.271c-6.547-0.875-29.104-3.432-34.186,2.077    c-3.693,4.004-22.339,12.709-22.286,0.592c-7.815,20.972,13.246,22.946,26.188,18.623c27.463,23.859,42.574-2.769,39.773-11.852    c4.551-0.579,8.118-3.584,8.295-5.672C305.075,194.522,304.512,193.907,302.897,192.139z"/>
		<path fill="#9895AB" d="M261.4,336.215c-15.252-6.652-44.285-27.146-49.237-52.168c-6.985-35.297,4.636-58.964,9.418-83.793    c3.082-16,0.168-28.766-11.005-47.989c-0.994-1.642-2.396-1.642-4.246-1.072c8.704,9.835,16.98,28.378,14.741,44.613    s-19.266,61.773-11.742,89.491c4.639,17.091,18.611,38.146,53.193,55.041c16.403,8.014,34.054,24.169,19.271,32.998    c20.511-0.913,43.47-20.518,57.357-45.38c-10.052,15.111-26.342,32.521-47.021,38.671    C292.129,354.584,278.733,343.775,261.4,336.215z"/>
	</g>
	<path fill="#4DD198" d="M220.619,142.986c1.386,13.265,7.889,23.825,13.758,32.14c5.578,3.412,13.037,6.332,17.293,13.529   c18.033,3.631,14.156,17.135,31.876-6.039c0.957-8.283,2.899-11.912,5.11-18.215c-0.853-4.983-3.318-10.001-5.737-12.872   c1.056-9.051-0.511-17.906-2.904-21.094C268.37,129.699,219.73,134.476,220.619,142.986z"/>
	<g>
		<path fill="#35A69C" d="M257.056,151.295c1.621,5.511-0.939,11.119-5.719,12.525c-4.78,1.406-9.969-1.921-11.59-7.432    s0.939-11.119,5.719-12.525C250.245,142.456,255.434,145.784,257.056,151.295z"/>
		<path fill="#F2F2F2" d="M256.541,152.248c1.371,4.661-0.794,9.404-4.837,10.593s-8.431-1.625-9.803-6.286    c-1.371-4.661,0.794-9.404,4.837-10.593C250.78,144.772,255.169,147.586,256.541,152.248z"/>
		<path fill="#B30F60" d="M255.781,151.671c1.382,2.692,0.61,5.846-1.725,7.045c-2.335,1.199-5.348-0.012-6.73-2.704    c-1.382-2.692-0.61-5.846,1.725-7.045C251.386,147.768,254.399,148.979,255.781,151.671z"/>
		<path fill="#5DE8C5" d="M257.538,154.401c-2.107,1.8-7.353,5.051-16.557,4.791c2.49,5.605,6.209,8.852,10.689,7.816    C256.963,165.784,258.303,158.561,257.538,154.401z"/>
	</g>
	<g>
		<path fill="#35A69C" d="M281.25,149.205c0.006,4.818-3.377,8.728-7.556,8.733s-7.571-3.897-7.576-8.715    c-0.006-4.818,3.377-8.728,7.556-8.733C277.852,140.484,281.244,144.387,281.25,149.205z"/>
		<path fill="#F2F2F2" d="M280.611,149.85c0.005,4.075-2.856,7.382-6.391,7.386s-6.403-3.296-6.408-7.371s2.856-7.382,6.391-7.386    C277.737,142.475,280.606,145.775,280.611,149.85z"/>
		<path fill="#B30F60" d="M280.201,149.515c0.478,2.493-0.888,4.849-3.05,5.264c-2.162,0.414-4.302-1.271-4.779-3.763    c-0.478-2.493,0.888-4.849,3.049-5.264C277.583,145.337,279.723,147.022,280.201,149.515z"/>
		<path fill="#5DE8C5" d="M280.997,151.446c-2.895,1.637-7.845,2.395-14.238,1.286c0,3.717,1.99,9.195,7.452,9.459    C278.762,162.411,280.997,158.693,280.997,151.446z"/>
	</g>
	<path fill="#6598D6" d="M257.618,208.881c4.755-4.691,35.628-14.931,38.353-11.661s0.283,16.839-10.569,20.344   C273.539,221.394,263.236,215.83,257.618,208.881z"/>
	<g>
		<path fill="#04070D" d="M295.382,194.48c-5.538,2.254-8.551,1.519-17.463,3.399c-7.953,1.678-11.995,4.478-22.477,5.922    c6.624,8.837,15.025,13.692,24.789,11.508C289.673,213.197,293.774,206.924,295.382,194.48z"/>
		<path fill="#F7F7D9" d="M260.393,203.195c0.488,1.134,2.074,3.533,7.453,6.134c4.084,1.975,19.692-1.539,22.123-5.177    c1.438-2.152,3.062-5.956,3.321-8.233C293.407,194.888,260.393,203.195,260.393,203.195z"/>
		<path fill="#D4D4B0" d="M260.393,203.195c0.264,0.613,1.573,3.288,6.056,5.432c7.193-2.576,11.471-6.194,13.194-8.364    c2.362,1.085,7.987,2.602,11.512,1.84c1.347-2.32,2.032-5.275,2.136-6.184C293.407,194.888,260.393,203.195,260.393,203.195z"/>
	</g>
	<g>
		<path fill="#BCCAD1" d="M303.955,177.273c1.8,10.089-5.665,6.273-11.669-0.503c-15.194-17.145-45.154-5.586-48.777,10.937    c-1.983,9.045-11.101,14.599-11.084,3.595c-12.377,26.584,24.894,29.823,47.16,8.016    C298.636,206.611,317.336,191.912,303.955,177.273z"/>
		<path fill="#ADB2C4" d="M249.08,177.992c11.277,26.068,49.539,12.685,33.331-8.01C270.888,165.694,256.864,170.05,249.08,177.992z    "/>
		<path fill="#ADB2C4" d="M307.643,183.039c-0.115-0.301-0.248-0.603-0.387-0.906c-2.79,11.355-19.809-1.151-24.704-9.966    c-1.22-1.313-0.657,1.689-1.482,1.168C293.168,191.107,305.781,191.476,307.643,183.039z"/>
		<path fill="#ADB2C4" d="M295.099,200.689c0.193-0.041,0.382-0.091,0.573-0.136c-7.629-4.194-12.494-13.152-16.95-21.177    c-1.22-1.313-0.657,1.689-1.482,1.168C279.557,185.914,286.323,196.355,295.099,200.689z"/>
		<path fill="#ADB2C4" d="M265.472,180.635c2.884,6.509,8.198,16.056,2.835,27.069c0.545-0.301,1.087-0.618,1.626-0.942    c5.156-8.299,4.539-15.494,1.787-24.529C271.114,180.547,266.027,181.438,265.472,180.635z"/>
		<g>
			<path fill="#ADB2C4" d="M260.983,181.901c0.156-0.849,0.224-0.968,0.244-0.973c-0.01-0.023-0.029-0.107-0.051-0.382     c-7.495-1.373-8.999,1.762-11.269,5.467c-7.165,11.694-16.766,21.57-19.858,13.333c-0.038,0.394-0.06,0.779-0.069,1.157     c3.273,9.993,15.844-0.815,22.567-11.321C255.406,184.71,256.694,182.599,260.983,181.901z"/>
			<path fill="#9FA6BD" d="M261.226,180.928C261.235,180.948,261.236,180.926,261.226,180.928L261.226,180.928z"/>
		</g>
	</g>
	<path fill="#41BFB4" d="M259.623,165.19c-3.894-1.584-17.489,10.513,1.518,20.832s27.378-4.105,24.551-11.064   s-13.528-26.128-21.515-25.739C256.189,149.609,259.029,163.738,259.623,165.19z"/>
	<path fill="#309991" d="M259.623,165.19c-3.894-1.584-17.489,10.513,1.518,20.832s27.378-4.105,24.551-11.064   c1.914,9.54-10.242,17.077-23.693,9.54c-4.967-2.784-6.855-4.704-7.854-6.88c-3.622-7.893,2.97-13.084,5.049-11.863   c1.372,0.806,1.732,1.445,2.425,3.127C261.729,167.326,260.679,165.862,259.623,165.19z"/>
	<path fill="#DBE5E6" d="M230.316,154.008c9.212-2.47,17.572-2.773,27.818-2.245c2.364-5.594,1.715-15.234-5.089-14.334   C245.705,138.4,233.059,147.195,230.316,154.008z"/>
	<path fill="#DBE5E6" d="M286.901,144.642c-4.091-0.035-12.627,1.21-20.014,3.862c-3.601-4.891-5.364-12.938,2.029-13.351   C276.939,134.705,280.848,137.961,286.901,144.642z"/>
	<path fill="#4D5399" d="M211.775,35.808c-20.789,1.584-35.044-8.712-31.876-19.799c3.408-11.927,37.512,0.124,44.335,14.926   c9.313,20.206,22.83,42.867,31.386,55.119c8.556,12.252-55.281,29.062-51.873,10.691C207.156,78.376,216.768,58.278,211.775,35.808   z"/>
	<path fill="#8C4712" d="M260.57,89.123c3.663,3.168-0.693,6.633-2.97,8.316c2.079,1.584,12.374,13.562,13.265,16.334   c3.861-0.693,6.534,0.792,2.376,7.029s-67.019,19.7-73.256,18.413s-11.384-9.899,1.287-8.613c2.772-6.93,3.267-18.71,4.653-20.987   c-3.465-0.495-11.186-6.633,1.881-12.176C220.873,91.895,256.907,85.956,260.57,89.123z"/>
	<polygon fill="#C1D1D6" points="235.513,130.188 242.101,129.797 239.715,89.547 239.715,89.547 239.715,89.547 239.467,85.368    232.879,85.759 209.389,94.372 211.855,135.968 215.149,135.773 212.77,95.643 233.191,91.023  "/>
	
		<rect x="222.403" y="108.902" transform="matrix(0.9889 -0.1484 0.1484 0.9889 -13.8578 35.3807)" fill="#C1D1D6" width="15.513" height="3.3"/>
	<path fill="#4D5399" d="M134.436,186.245c0,0,51.978-54.69,103.955-64.181s106.667,6.78,114.351,10.396   C319.835,128.067,247.709,120.635,134.436,186.245z"/>
	<path fill="#778CC9" d="M247.965,140.502c63.051-17.025,100.654-4.175,106.982-4.476s11.159-7.384-2.204-8.386   c-14.297-1.072-57.682-3.645-104.927,8.498c-56.271,14.463-107.233,41.503-118.2,50.109c-8.232,6.459-1.921,11.96,4.143,6.931   C143.559,185.049,174.312,160.389,247.965,140.502z"/>
</g>
</svg>
