<?xml version="1.0" encoding="UTF-8"?>
<svg xmlns="http://www.w3.org/2000/svg" xmlns:xlink="http://www.w3.org/1999/xlink" version="1.1" id="character" x="0px" y="0px" viewBox="0 0 512 512" xml:space="preserve" width="512" height="512">
<g>
	<g id="square_40_">
		<polygon fill="none" points="423.159,396.738 196.957,388.968 170.547,139.344 437.703,65.806   "/>
	</g>
	<g id="shadow_59_">
		<ellipse fill="none" cx="328.986" cy="474.15" rx="103.588" ry="25.483"/>
	</g>
	<g>
		<path fill="#066EBD" d="M115.218,325.934c15.571,77.217,132.344,57.415,133.718,122.83    c98.278-13.689,119.3-16.381,128.637-142.054c-10.473-9.098-81.76-28.322-123.881-50.355    C247.084,299.962,172.705,313.806,115.218,325.934z"/>
	</g>
	<g>
		<path fill="#824211" d="M290.993,424.043c-6.364-1.914-12.107-3.135-19.267,1.402c-4.698,16.768,5.265,21.225,5.508,44.227    c1.337,1.397,4.832,2.309,6.683,1.094c5.832-24.665,17.521-24.665,17.496-38.274C301.398,424.113,294.702,426.95,290.993,424.043z    "/>
	</g>
	<g>
		<path fill="#6B290D" d="M290.993,424.043c-6.364-1.914-12.107-3.135-19.267,1.402c-0.641,2.286-1.001,4.338-1.158,6.245    c8.881,2.299,23.095,4.272,30.749,2.826c0.06-0.643,0.098-1.311,0.097-2.023C301.398,424.113,294.702,426.95,290.993,424.043z"/>
	</g>
	<g>
		<path fill="#524769" d="M377.568,466.573c-1.472,3.226-4.004,5.423-4.648,8.572c10.992,5.184,27.462,3.929,33.187-0.445    c-2.126-3.26-4.313-6.541-5.832-9.882C396.808,457.19,380.327,460.527,377.568,466.573z"/>
	</g>
	<g>
		<path fill="#824211" d="M372.92,477.049c3.24-3.564,7.405-5.701,16.084-8.1c5.033,1.296,13.295,6.075,16.697,7.452    c-2.592,5.184-12.23,14.634-18.388,14.337C380.591,490.414,374.814,483.368,372.92,477.049z"/>
	</g>
	<g>
		<path fill="#CAD4B4" d="M371.924,433.712c7.16-4.536,21.177-7.422,27.541-5.508c3.71,2.907,8.662,7.69,9.575,16.019    c0.663,6.048-6.497,12.008-8.765,20.594c-8.262-0.324-9.87-1.666-23.865,2.06c0.644-3.149,0.49-6.732-2.542-10.808    C371.141,452.402,363.338,451.29,371.924,433.712z"/>
	</g>
	<g>
		<g>
			<path fill="#97A184" d="M405.626,434.659l-37.544,13.225c-0.075-0.618-0.097-1.295-0.056-2.041l36.406-12.825     C404.844,433.535,405.244,434.081,405.626,434.659z"/>
		</g>
		<g>
			<path fill="#97A184" d="M405.853,453.407c-9.068-0.605-25.358-1.662-36.753-2.398c-0.181-0.312-0.345-0.646-0.488-1.005     c21.007,1.355,32.016,2.079,37.793,2.468C406.225,452.781,406.041,453.092,405.853,453.407z"/>
		</g>
		<g>
			<path fill="#97A184" d="M376.619,462.465c7.171-1.353,17.259-3.208,26.791-4.948c-0.402,0.712-0.795,1.441-1.166,2.19     c-8.609,1.574-18.51,3.398-25.534,4.718C376.732,463.788,376.706,463.135,376.619,462.465z"/>
		</g>
	</g>
	<g>
		<path fill="#524769" d="M401.49,381.952c6.404,5.019,10.935,18.226-2.43,43.012c10.023,4.86-3.253,8.802-14.094,11.057    c-9.814,2.042-20.899,3.888-15.553-2.065c-8.505-1.215-14.58-13.608-18.954-30.133    C355.318,394.831,383.264,375.876,401.49,381.952z"/>
	</g>
	<g>
		<path fill="#453C5C" d="M350.458,403.822c4.86-8.991,32.806-27.946,51.031-21.871c3.931,3.081,7.157,9.249,5.969,19.286    c-18.86,6.957-37.572,12.627-52.944,15.252C353.021,412.687,351.674,408.414,350.458,403.822z"/>
	</g>
	<g>
		<path fill="#524769" d="M271.23,423.089c-15.641-23.418-12.373-36.992-6.47-42.592c17.572-7.765,47.179,8.473,52.865,16.967    c-2.798,16.863-7.679,29.773-16.032,31.784c5.883,5.424-5.326,4.629-15.289,3.521C275.298,431.545,261.709,428.871,271.23,423.089    z"/>
	</g>
	<g>
		<path fill="#453C5C" d="M264.759,380.497c17.572-7.765,47.179,8.473,52.865,16.967c-1.095,6.598-2.509,12.591-4.324,17.562    c-15.435,0.045-36.255-5.462-52.387-13.56C258.296,390.9,260.99,384.072,264.759,380.497z"/>
	</g>
	<g>
		<polygon fill="#5E1B0B" points="175.531,235.991 146.723,174.941 146.515,174.862 128.876,181.404 156.453,243.915   "/>
	</g>
	<g>
		<path fill="#401308" d="M170.011,224.294l-23.288-49.353l-0.208-0.079l-17.64,6.542l16.915,38.342    C151.084,218.535,159.823,226.901,170.011,224.294z"/>
	</g>
	<g>
		<path fill="#824211" d="M154.505,227.29c4.733-1.361,1.801-14.981-1.857-15.181c-8.405-0.458-11.183-1.247-14.875-0.173    c-5.724,1.665-2.533,14.986,3.633,16.236C147.573,229.423,149.771,228.651,154.505,227.29z"/>
	</g>
	<g>
		<path fill="#6B290D" d="M155.164,221.673c0.015,1.656-0.349,3.596-0.898,5.685c0.081-0.023,0.156-0.045,0.238-0.069    c4.733-1.361,1.801-14.981-1.857-15.181c-8.405-0.458-11.183-1.247-14.875-0.173c-2.167,0.63-3.055,2.933-2.988,5.618    c0.92-0.273,1.931-0.538,3.003-0.777c0.759,2.286,1.183,3.134,2.396,4.462C145.379,217.135,152.856,220.474,155.164,221.673z"/>
	</g>
	<g>
		<path fill="#824211" d="M144.842,212.257c4.733-1.361,1.801-14.981-1.857-15.181c-8.405-0.458-11.183-1.247-14.875-0.173    c-5.723,1.665-2.533,14.986,3.634,16.236C137.91,214.39,140.108,213.618,144.842,212.257z"/>
	</g>
	<g>
		<path fill="#6B290D" d="M145.578,211.902c0.3-0.292,0.581-0.608,0.853-0.934c2.276-3.738-0.318-13.722-3.447-13.892    c-8.405-0.458-11.183-1.247-14.875-0.173c-2.27,0.66-3.134,3.157-2.97,6.004c5.142-1.49,13.558-2.452,16.531-1.688    c-4.185,3.365-4.913,7.076-3.921,12.533c2.374-0.096,4.291-0.691,7.092-1.497C145.113,212.179,145.356,212.056,145.578,211.902z"/>
	</g>
	<g>
		<path fill="#824211" d="M134.943,199.565c4.733-1.361,1.801-14.981-1.857-15.181c-8.405-0.458-11.183-1.247-14.875-0.173    c-5.723,1.665-2.533,14.986,3.634,16.236C128.011,201.699,130.209,200.926,134.943,199.565z"/>
	</g>
	<g>
		<path fill="#6B290D" d="M133.086,184.384c-8.405-0.458-11.183-1.247-14.875-0.173c-5.24,1.524-3.007,12.81,2.139,15.668    c4.433-1.885,9.767-4.288,14.514-7.056c1.268,0.719,1.339,3.846,0.348,6.637C139.553,197.657,136.671,184.579,133.086,184.384z"/>
	</g>
	<g>
		<path fill="#F7B67C" d="M277.15,242.012c-4.99-9.676-31.799-22.99-41.82-22.222c-16.95,6.333-45.015,17.457-26.152,40.14    c22.073,7.314,20.943,24.761,65.704,24.932C299.74,301.549,325.651,249.583,277.15,242.012z"/>
	</g>
	<g>
		<path fill="#E88D51" d="M281.843,242.94c-1.482-0.356-3.041-0.67-4.693-0.928c-2.731-5.296-12-11.678-21.474-16.248    c-1.421-0.568-2.868-1.117-4.367-1.627c-0.725,15.649,5.348,41.892,10.208,54.164c-24.301,0.243-44.104-19.524-44.713-20.413    c14.184-9.511,22.669-20.348,26.624-36.901c-3.192-0.901-6.011-1.358-8.097-1.198c-5.725,2.139-12.715,4.825-18.74,8.318    c-4.784,9.431-8.933,18.95-11.358,26.056c0.975,1.835,2.273,3.754,3.946,5.767c22.073,7.314,20.943,24.761,65.704,24.932    c8.652,5.808,17.427,3.295,23.152-2.763C299.159,270.96,294.248,255.709,281.843,242.94z"/>
	</g>
	<g>
		<path fill="#824211" d="M231.251,212.331c-10.222-12.826-24.145-7.777-40.941-23.479c-9.806-1.269-20.799-2.516-34.119-18.784    c-5.277,4.813-5.569,6.878-5.004,14.334c1.492,3.161,3.499,7.416,5.967,12.646c0.472,4.718-9.064,2.067-13.477,4.89    c-3.426,2.192-6.609,11.727-3.122,16.89c14.475-5.85,15.721,9.618,34.165,3.266c3.538,4.797,3.472,24.037,22.566,30.758    C209.039,256.99,230.528,218.873,231.251,212.331z"/>
	</g>
	<g>
		<path fill="#6B290D" d="M231.251,212.331c-1.569-1.968-3.225-3.513-4.965-4.779c-4.338,16.09-12.765,32.241-27.587,39.279    c-8.979-1.89-15.093-9.189-23.282-23.52c2.925,6.218,4.111,23.291,21.87,29.542C209.039,256.99,230.528,218.873,231.251,212.331z"/>
	</g>
	<g>
		<path fill="#CAD4B4" d="M230.677,241.56c4.053-4.38,10.137-13.491,13.52-27.836c1.199-5.085-5.086-17.652-15.974-4.991    c-2.374,7.441-9.749,38.612-34.41,42.665C184.927,271.39,215.787,257.65,230.677,241.56z"/>
	</g>
	<g>
		<path fill="#ADAC87" d="M203.541,248.032c-2.903,1.591-6.126,2.774-9.728,3.366c-5.412,12.175,3.922,11.829,15.408,6.071    C205.441,255.683,202.78,252.937,203.541,248.032z"/>
	</g>
	<g>
		<g>
			<polygon fill="#B4C1D4" points="101.889,167.558 101.337,171.495 103.097,174.959 109.19,175.468 105.299,179.293      108.692,185.972 162.39,159.412 129.445,75.62 124.624,74.574 127.028,69.474 124.253,62.416 116.121,63.959 121.309,54.928      116.001,41.426 69.156,12.367 54.148,78.618 98.584,166.077    "/>
		</g>
		<g>
			<g>
				<polygon fill="#CCDBE8" points="58.255,77.968 71.067,19.46 111.935,43.437 118.314,60.141 121.309,54.928 116.001,41.426       69.156,12.367 54.148,78.618 98.584,166.077 101.889,167.558 101.337,171.495 103.097,174.959 109.19,175.468 105.299,179.293       108.692,185.972 116.048,182.333     "/>
			</g>
			<g>
				<polygon fill="#CCDBE8" points="129.445,75.62 124.624,74.574 127.028,69.474 124.253,62.416 119.526,63.313 157.209,161.975       157.209,161.975 162.39,159.412     "/>
			</g>
		</g>
		<g>
			<polygon fill="#919CB0" points="78.277,45.575 73.109,72.371 126.309,182.26 148.259,168.951 98.867,58.674    "/>
		</g>
		<g>
			<g>
				<defs>
					<path id="SVGID_1_" d="M109.056,203.148c5.04-2.231,57.304-25.326,67.415-30.327c10.111-5.001,2.203-25.981-4.228-22.8       c-12.634,6.249-69.311,36.736-72.772,38.87C96.009,191.025,104.016,205.378,109.056,203.148z"/>
				</defs>
				<clipPath id="SVGID_2_">
					<use xlink:href="#SVGID_1_" overflow="visible"/>
				</clipPath>
				<rect x="96.009" y="146.84" clip-path="url(#SVGID_2_)" fill="#7A7D8C" width="2.619" height="58.539"/>
				<rect x="98.629" y="146.84" clip-path="url(#SVGID_2_)" fill="#7A7D8C" width="11.81" height="58.539"/>
				<rect x="110.439" y="146.84" clip-path="url(#SVGID_2_)" fill="#797C8D" width="11.81" height="58.539"/>
				<rect x="122.25" y="146.84" clip-path="url(#SVGID_2_)" fill="#787B8D" width="11.81" height="58.539"/>
				<rect x="134.06" y="146.84" clip-path="url(#SVGID_2_)" fill="#777A8E" width="11.81" height="58.539"/>
				<rect x="145.871" y="146.84" clip-path="url(#SVGID_2_)" fill="#75788E" width="11.81" height="58.539"/>
				<rect x="157.681" y="146.84" clip-path="url(#SVGID_2_)" fill="#74778F" width="11.81" height="58.539"/>
				<rect x="169.492" y="146.84" clip-path="url(#SVGID_2_)" fill="#73768F" width="11.81" height="58.539"/>
				<rect x="181.302" y="146.84" clip-path="url(#SVGID_2_)" fill="#73768F" width="5.279" height="58.539"/>
			</g>
		</g>
	</g>
	<g>
		<path fill="#F7B67C" d="M410.751,260.505c-13.69-47.141-44.256-13.536-24.537,8.992c-0.042,8.379,8.052,35.018,12.922,43.989    c18.853,0.475,32.359-4.938,36.48-22.557C435.1,280.893,420.985,264.221,410.751,260.505z"/>
	</g>
	<g>
		<path fill="#E88D51" d="M435.616,290.929c-0.25-4.87-3.707-11.301-8.364-17.058c-7.491,5.32-10.404,13.123-17.293,18.524    c-0.959-0.491-7.012-8.594-7.934-9.278c8.723-6.228,13.878-13.377,16.375-18.08c-2.613-2.057-5.238-3.657-7.648-4.532    c-13.69-47.141-44.256-13.536-24.537,8.992c-0.042,8.379,8.052,35.018,12.922,43.989c5.134,0.129,9.867-0.183,14.126-1.054    c5.714-3.268,12.112-7.312,18.342-11.623C433.362,298.057,434.714,294.785,435.616,290.929z"/>
	</g>
	<g>
		<g>
			<path fill="#CAD4B4" d="M385.757,358.629c-0.143-6.371-0.238-12.809-0.631-19.982c-40.02,15.162-74.734,11.606-106.642-2.314     c-1.576,6.179-2.723,12.2-2.945,20.403c-5.543,4.344-14.955,15.844-19.772,21.244c15.565,16.196,49.352,33.286,75.223,38.965     c22.927-3.786,68.439-25.503,77.694-40.437C404.477,368.725,391.857,361.433,385.757,358.629z"/>
		</g>
		<g>
			<path fill="#6B5A4D" d="M331.928,416.782c-0.189-3.227-0.401-6.238-0.602-9.077c-0.994-14.104-1.712-24.293,2.282-36.231     l-2.766-0.926c-4.179,12.49-3.443,22.922-2.424,37.362c0.19,2.691,0.39,5.539,0.572,8.577c0.671,0.16,1.338,0.313,2,0.458     C331.298,416.894,331.611,416.839,331.928,416.782z"/>
		</g>
		<g>
			<g>
				<path fill="#6B5A4D" d="M335.746,403.901c-0.19,0-0.383-0.038-0.57-0.116l-11.747-5c-0.741-0.316-1.086-1.172-0.771-1.913      c0.315-0.74,1.166-1.087,1.913-0.771l11.747,5c0.741,0.315,1.086,1.172,0.771,1.913      C336.852,403.568,336.314,403.901,335.746,403.901z"/>
			</g>
		</g>
		<g>
			<g>
				<path fill="#6B5A4D" d="M324.377,405.486c-0.435,0-0.866-0.194-1.152-0.564c-0.494-0.635-0.379-1.552,0.257-2.045l10.084-7.828      c0.637-0.495,1.554-0.379,2.045,0.257c0.494,0.635,0.379,1.552-0.257,2.045l-10.084,7.828      C325.004,405.385,324.689,405.486,324.377,405.486z"/>
			</g>
		</g>
		<g>
			<path fill="#87B337" d="M394.07,355.95c-0.165-7.36-0.275-14.799-0.729-23.086c-46.235,17.517-86.341,13.408-123.205-2.673     c-1.821,7.138-3.146,14.095-3.402,23.572c-6.404,5.019-17.278,18.304-22.843,24.544c8.339,8.677,23.524,17.198,40.393,24.495     c8.97-17.934,13.344-30.084,19.419-34.064c5.56-0.918,48.607-6.731,54.677,2.036c8.58,12.393,17.118,24.106,22.387,36.51     c17.627-9.131,33.72-20.883,39.79-30.678C415.698,367.614,401.118,359.19,394.07,355.95z"/>
		</g>
		<g>
			<path fill="#578723" d="M270.111,361.716c-5.561,4.358-13.771,13.616-20.675,21.579c3.478,2.766,7.565,5.495,12.087,8.15     c4.293-8.469,10.553-17.64,18.437-24.459C273.776,355.546,270.436,349.659,270.111,361.716z"/>
		</g>
		<g>
			<path fill="#578723" d="M388.504,361.205c-0.325-12.057-3.665-6.17-9.849,5.27c9.534,8.247,16.693,19.932,20.87,29.656     c4.758-3.255,9.058-6.598,12.643-9.89C404.784,377.693,394.894,366.214,388.504,361.205z"/>
		</g>
		<g>
			<path fill="#6F9628" d="M383.436,405.875c-5.148-12.749-16.181-30.924-24.823-34.898c-0.205-9.12-0.342-18.335-0.883-28.549     c-0.08,0.012-0.159,0.024-0.239,0.036c-2.281,10.154-3.616,18.408-4.182,25.252c2.371,0.727,4.15,1.723,5.073,3.057     c8.58,12.393,17.118,24.106,22.387,36.51C381.662,406.82,382.551,406.351,383.436,405.875z"/>
		</g>
		<g>
			<path fill="#6F9628" d="M303.228,340.953c-0.138-0.029-0.276-0.059-0.414-0.088c-2.182,8.726-3.755,17.36-4.068,28.961     c-2.593,2.257-11.616,19.236-16.852,31.929c0.793,0.352,1.59,0.701,2.391,1.048c8.97-17.934,13.344-30.084,19.419-34.064     c0.603-0.1,1.648-0.257,3.039-0.447C306.077,361.282,304.814,352.499,303.228,340.953z"/>
		</g>
		<g>
			<path fill="#5C250B" d="M398.687,333.107c-46.235,17.517-96.729,14.613-133.593-1.468c-1.821,7.138-4.336,15.562-1.967,25.329     c26.257,20.852,81.97,37.62,137.111,2.165C402.347,349.146,401.118,341.126,398.687,333.107z"/>
		</g>
		<g>
			<path fill="#AAADBF" d="M364.331,353.009c-21.9,2.679-49.116,3.184-67.585-6.051c-2.795,10.935-1.882,22.432,0.486,32.198     c15.309,8.991,51.396,11.907,68.65-0.121C367.991,369.048,366.761,361.029,364.331,353.009z"/>
		</g>
		<g>
			<path fill="#5C250B" d="M350.226,350.591c-16.287,2.733-26.415,3.43-42.18-1.769c-2.795,10.935-3.721,18.592-1.352,28.358     c18.282,5.096,37.318,4.396,45.823-0.656C354.625,366.537,353.083,358.704,350.226,350.591z"/>
		</g>
		<g>
			<path fill="#BAC0CC" d="M360.292,362.693c-3.646,0.717-6.132,1.6-10.996,2.552c-2.795,0.547-2.68,5.699-0.121,6.136     c3.774,0.645,8.974,0.868,11.968,0.479C364.423,371.435,363.998,361.964,360.292,362.693z"/>
		</g>
		<g>
			<path fill="#87B337" d="M400.389,333.836c8.019-13.852-3.402-36.694-9.234-49.817c18.712-17.739-2.74-29.736-16.47-39.031     c-40.58-27.473-26.944-30.515-74.546-11.221c-16.832,6.822-50.171,0.923-34.7,45.23c-5.545,15.561-14.934,30.953-9.153,43.66     c10.348,22.749,46.214,37.99,75.535,37.99C355.921,360.648,391.737,348.78,400.389,333.836z"/>
		</g>
		<g>
			<path fill="#578723" d="M269.756,339.405c-4.556-18.536,6.903-37.939,17.004-55.386c-8.688-41.505,0.122-32.806-17.238-24.435     c0.526,5.543,2.04,12.118,4.774,19.947c-6.607,18.539-16.721,36.528-12.21,52.269     C264.305,334.49,266.886,337.031,269.756,339.405z"/>
		</g>
		<g>
			<path fill="#578723" d="M393.141,341.683c7.737-19.595,1.805-37.232-5.018-56.128c5.681-8.947,5.3-14.985,5.803-20.53     c-17.394-8.299-9.733-16.472-18.248,25.069c10.545,18.04,15.666,37.707,9.348,56.847     C388.039,345.291,390.777,343.531,393.141,341.683z"/>
		</g>
		<g>
			<path fill="#6F9628" d="M378.75,350.05c7.715-22.041-8.221-60.984-12.715-71.097c-10.19-18.341-52.309-32.155-72.349,1.722     c-8.861,21.747-21.376,44.741-16.692,63.995c15.612,10.022,36.498,15.978,54.827,15.978     C346.047,360.648,364.356,356.512,378.75,350.05z"/>
		</g>
		<g>
			<path fill="#CAD4B4" d="M372.982,352.438c0.007-0.01,0.014-0.02,0.021-0.03c12.773-18.96-4.677-61.689-9.289-72.066     c-4.68-19.224-42.699-19.729-67.887,1.616c-9.089,22.307-22.277,46.012-13.998,65.003c0.116,0.266,0.235,0.529,0.355,0.789     c14.868,8.151,33.272,12.899,49.636,12.899C344.206,360.648,359.685,357.514,372.982,352.438z"/>
		</g>
		<g>
			<path fill="#6B5A4D" d="M334.755,291.48c0,0-1.601-1.163-2.908-0.59c-8.536,21.045-15.967,45.415-9.048,69.303     c1.045,0.103,2.086,0.189,3.122,0.257C318.651,336.866,326.201,312.475,334.755,291.48z"/>
		</g>
		<g>
			<g>
				<path fill="#6B5A4D" d="M326.046,343.557c-0.352,0-0.704-0.126-0.983-0.382l-10.102-9.234c-0.594-0.543-0.636-1.466-0.093-2.059      c0.546-0.599,1.468-0.635,2.059-0.093l10.102,9.234c0.594,0.543,0.636,1.466,0.093,2.059      C326.834,343.397,326.44,343.557,326.046,343.557z"/>
			</g>
		</g>
		<g>
			<g>
				<path fill="#6B5A4D" d="M316.287,342.828c-0.474,0-0.938-0.23-1.218-0.656c-0.444-0.672-0.257-1.577,0.415-2.019l10.692-7.047      c0.671-0.444,1.576-0.26,2.019,0.415c0.444,0.672,0.257,1.577-0.415,2.02l-10.692,7.047      C316.841,342.75,316.562,342.828,316.287,342.828z"/>
			</g>
		</g>
		<g>
			<g>
				<path fill="#6B5A4D" d="M329.083,321.179c-0.263,0-0.529-0.071-0.769-0.22l-11.075-6.885c-0.684-0.425-0.893-1.325-0.468-2.009      c0.426-0.682,1.324-0.893,2.009-0.468l11.075,6.885c0.684,0.425,0.893,1.325,0.469,2.009      C330.046,320.934,329.57,321.179,329.083,321.179z"/>
			</g>
		</g>
		<g>
			<g>
				<path fill="#6B5A4D" d="M317.785,320.957c-0.551,0-1.078-0.313-1.325-0.846c-0.338-0.731-0.019-1.597,0.712-1.935l11.259-5.205      c0.731-0.338,1.597-0.019,1.935,0.712c0.338,0.731,0.019,1.597-0.712,1.935l-11.259,5.205      C318.197,320.914,317.989,320.957,317.785,320.957z"/>
			</g>
		</g>
	</g>
	<g>
		<g>
			<path fill="#E8DFC5" d="M428.925,276.506c-0.896-0.233-16.459,22.444-25.396,24.145c-21.425,4.078-29.065,6.44-42.505,16.95     c-13.441,10.51-14.027,41.385,2.262,53.68c16.288,12.294,48.543,1.45,69.517-20.056c1.14-1.169,16.115-24.439,25.048-35.507     C451.834,277.079,435.796,278.294,428.925,276.506z"/>
		</g>
		<g>
			<path fill="#D4C7B0" d="M428.925,276.506c-0.368-0.096-3.216,3.68-7.061,8.277c13.555,1.329,29.67,18.729,28.268,29.476     c-3.657,10.094-9.125,19.277-15.659,27.181c-1.172,1.417-15.488-27.577-37.428-39.514c-2.228,0.456-4.292,0.904-6.221,1.358     c16.651,13.651,26.609,28.197,33.603,48.593c-26.969,25.58-62.684,29.539-73.047-3.232c1.154,8.905,5.014,17.434,11.906,22.636     c16.288,12.294,48.543,1.45,69.517-20.056c1.14-1.169,16.115-24.439,25.048-35.507     C451.834,277.079,435.796,278.294,428.925,276.506z"/>
		</g>
		<g>
			<path fill="#C4B59F" d="M395.254,374.221c2.129-5.029,2.293-13.206,0.264-21.764c-1.952-8.229-8.659-27.692-29.652-38.459     c-0.587,0.411-1.184,0.843-1.788,1.287c20.981,10.303,27.633,29.548,29.547,37.621c2.137,9.012,1.742,17.753-0.888,21.981     C393.573,374.684,394.411,374.462,395.254,374.221z"/>
		</g>
		<g>
			<path fill="#C4B59F" d="M435.282,337.378c-0.639-8.378-4.184-28.444-22.918-42.345c-0.498,0.459-0.994,0.898-1.488,1.319     c18.384,13.441,21.847,33.025,22.468,41.174c0.392,5.15,0.016,10.088-0.954,14.109c0.136-0.138,0.277-0.271,0.413-0.41     c0.229-0.235,1.026-1.377,2.215-3.123C435.46,344.802,435.57,341.16,435.282,337.378z"/>
		</g>
		<g>
			<path fill="#C4B59F" d="M395.821,355.842l-1.56-1.16c-7.938,10.672-17.686,16.307-26.434,19.25     c0.903,0.403,1.837,0.755,2.799,1.059C379.098,371.762,388.257,366.011,395.821,355.842z"/>
		</g>
		<g>
			<path fill="#C4B59F" d="M419.285,287.805c-0.49,0.561-0.992,1.123-1.498,1.684c20.033,3.734,31.527,17.484,35.846,23.801     c0.987,1.443,1.88,2.909,2.684,4.372c0.446-0.576,0.88-1.127,1.303-1.654c-0.728-1.276-1.518-2.552-2.381-3.816     C450.853,305.781,439.316,291.965,419.285,287.805z"/>
		</g>
		<g>
			<path fill="#C4B59F" d="M410.094,331.053c-5.469-7.686-16.205-19.673-32.055-23.843c-2.492,1.025-4.849,2.199-7.23,3.597     c17.697,1.892,29.61,15.033,35.324,23.063c8.282,11.64,11.889,23.467,11.922,29.567c1.559-1.04,3.096-2.134,4.604-3.278     C421.564,351.879,416.83,340.521,410.094,331.053z"/>
		</g>
		<g>
			<path fill="#C4B59F" d="M381.203,325.967c-9.031,4.116-20.071,9.15-30.194,16.694c-0.009,1.93,0.105,3.872,0.347,5.799     c10.199-8.191,21.902-13.531,31.862-18.07L381.203,325.967z"/>
		</g>
		<g>
			<path fill="#403639" d="M386.392,274.021c-14.317-8.989-28.069,10.196-23.511,11.853c26.569,9.657,54.888,35.25,70.877,64.062     c3.589-2.102,5.359-5.087,5.435-6.671C434.694,325.517,405.085,285.758,386.392,274.021z"/>
		</g>
		<g>
			<path fill="#241D2E" d="M387.159,298.72c4.927-2.882,10.067-6.891,14.901-11.252c-5.532-5.731-10.947-10.484-15.667-13.447     c-5.23-3.284-10.38-2.801-14.595-0.793c-2.262,4.771-4.445,9.476-6.321,13.639C372.703,289.76,380.022,293.8,387.159,298.72z"/>
		</g>
	</g>
	<g>
		<path fill="#0BC2F0" d="M411.513,241.126c-10.473-9.098-83.733-31.38-82.415-17.154c-8.393-3.614-41.363-18.46-67.235-7.066    c-4.55,2.004-8.849,3.981-12.927,5.93c10.935,59.329,36.395,83.668,79.747,96.73C378.655,310.313,431.673,258.639,411.513,241.126    z"/>
	</g>
	<g>
		<path fill="#E85320" d="M403.524,248.926c2.271,0.985,4.16,1.329,7.15,1.233c0.766-1.27,1.476-2.489,2.13-3.649    c-1.794-0.56-8.049-2.828-10.18-4.808c4.313,2.141,7.869,2.74,11.205,2.958c1.482-2.725,7.169-10.475,8.003-12.299    c-23.037-6.191-16.173-36.566-44.528-49.205c-16.589-7.394-29.686-16.776-40.07-14.602c-8.83,1.848-15.958,12.553-30.882,19.776    c-14.924,7.223-32.486,41.12-52.94,38.801c3.401,14.676,9.502,28.082,17.688,40.133c2.124-0.522,4.848-1.864,9.863-5.677    c-1.271,4.235-4.305,8.501-6.709,10.116c10.506,14.151,23.942,26.308,39.226,36.32c0.338-3.578,1.454-6.608,3.342-9.464    c-1.088,4.999,0.818,12.109,1.158,12.318c3.699,2.271,7.496,4.421,11.376,6.448c12.782-4.668,23.959-10.588,33.678-17.117    c1.185-0.796,2.243-7.359,2.085-16.406c2.186,5.659,3.199,8.296,4.321,11.865c18.93-14.147,31.639-30.312,39.45-42.625    C406.583,252.477,404.779,250.815,403.524,248.926z"/>
	</g>
	<g>
		<path fill="#BA3918" d="M415.129,242.546c-16.7-6.475-22.591-18.826-28.305-30.832c-5.715-12.007-11.112-23.347-26.501-28.152    l-0.579,1.856c14.578,4.552,19.798,15.52,25.324,27.132c5.856,12.303,11.889,24.959,29.005,31.689    C414.351,243.761,414.71,243.189,415.129,242.546z"/>
	</g>
	<g>
		<path fill="#BA3918" d="M316.317,198.793l-0.28-1.924c-15.954,2.32-23.071,12.668-30.606,23.623    c-6.557,9.534-13.286,19.305-26.46,24.161c0.248,0.61,0.5,1.218,0.757,1.824c13.63-5.015,20.555-15.071,27.304-24.883    C294.321,210.998,301.204,200.99,316.317,198.793z"/>
	</g>
	<g>
		<path fill="#BA3918" d="M285.55,285.019c0.504,0.525,1.009,1.049,1.521,1.567c5.773-18.819,22.469-41.017,42.904-49.242    l-0.727-1.804C308.666,243.825,291.783,265.926,285.55,285.019z"/>
	</g>
	<g>
		<path fill="#BA3918" d="M388.254,279.133c-12.197-33.509-21.86-43.654-46.337-51.356l-0.583,1.855    c23.949,7.535,33.319,17.547,45.407,51.021C387.247,280.147,387.762,279.64,388.254,279.133z"/>
	</g>
	<g>
		<path fill="#BA3918" d="M340.288,236.514c6.677,18.354,10.268,48.355,6.655,73.149c0.713-0.364,1.408-0.737,2.109-1.108    c3.322-24.857-0.301-54.461-6.938-72.705L340.288,236.514z"/>
	</g>
	<g>
		<path fill="#BA3918" d="M338.172,238.393l-1.575-1.141c-13.54,18.689-20.789,49.242-18.72,73.455    c0.041,0.089,0.078,0.155,0.103,0.17c0.641,0.393,1.3,0.762,1.947,1.148C317.434,288.063,324.583,257.149,338.172,238.393z"/>
	</g>
	<g>
		<path fill="#BA3918" d="M380.279,227.485c-3.638-10.864-7.4-22.098-19.229-32.884l-3.275,3.592    c10.897,9.934,14.297,20.087,17.896,30.835c4.091,12.216,8.31,24.792,23.08,38.195c1.041-1.303,2.043-2.592,2.995-3.86    C388.105,250.829,384.131,238.988,380.279,227.485z"/>
	</g>
	<g>
		<path fill="#BA3918" d="M314.793,203.562c-11.758,10.863-15.445,22.122-19.011,33.01c-3.755,11.466-7.628,23.266-21.007,35.813    c0.979,1.301,1.983,2.585,3.01,3.851c14.508-13.426,18.626-25.968,22.616-38.152c3.528-10.772,6.86-20.947,17.691-30.953    L314.793,203.562z"/>
	</g>
	<g>
		<path fill="#BA3918" d="M335.259,238.463l-3.299-3.569c-17.63,16.289-28.834,40.887-32.703,62.731    c1.41,1.148,2.844,2.273,4.297,3.379C306.75,279.587,317.656,254.727,335.259,238.463z"/>
	</g>
	<g>
		<path fill="#BA3918" d="M346.105,231.418l-3.705,3.145c15.983,18.832,18.56,46.467,15.846,68.721    c1.629-1.01,3.235-2.032,4.789-3.076c0.153-0.103,0.305-0.307,0.451-0.596C365.47,277.048,362.045,250.198,346.105,231.418z"/>
	</g>
	<g>
		<path fill="#04070D" d="M331.801,214.543c-4.874-0.31-20.983,12.938-27.331,24.812c9.069,11.489,16.567,16.589,30.255,16.459    c18.814,8.804,29.964,3.25,35.533-13.617C362.093,229.899,347.967,215.571,331.801,214.543z"/>
	</g>
	<g>
		<path fill="#F7F7D9" d="M310.193,245.887c6.866,6.895,13.794,10.029,24.532,9.927c7.261,3.398,13.376,4.648,18.474,3.944    c-1.105-3.225-2.99-6.638-5.984-9.904c-8.36-3.636-15.353-4.894-30.263-6.698C314.925,243.932,312.617,244.864,310.193,245.887z"/>
	</g>
	<g>
		<defs>
			<path id="SVGID_3_" d="M304.47,239.355c7.921,18.148,30.009,18.616,32.943,20.01c18.097,8.598,30.512-1.016,32.505-14.723     c-1.51-2.275-0.755-4.489-2.638-0.417c-5.866,12.686-14.398,16.48-31.097,9.513c-4.944-2.063-16.658,1.626-29.371-13.142     C305.254,238.786,304.987,238.389,304.47,239.355z"/>
		</defs>
		<clipPath id="SVGID_4_">
			<use xlink:href="#SVGID_3_" overflow="visible"/>
		</clipPath>
		<g clip-path="url(#SVGID_4_)">
			<path fill="#F5AB6C" d="M286.081,243.667c25.523,18.69,42.381,23.095,50.334,23.688c11.512,0.858,32.235-7.616,50.539-16.009     c-3.709-5.586-6.422-23.222-17.048-20.306c-11.39,3.125-51.998,8.679-64.246,2.377     C301.978,231.522,291.464,233.597,286.081,243.667z"/>
		</g>
	</g>
	<g>
		<path fill="#F5AB6C" d="M304.813,185.491c-1.717,8.857-2.878,14.787-1.358,16.521c5.055,5.769,7.286,9.468,8.458,12.341    c6.047,14.822,35.145,5.266,56.965,1.563c0.541-6.723,5.643-13.964,8.68-17.312c1.803-1.989-0.017-8.697-1.171-13.062    C370.784,164.343,307.296,172.689,304.813,185.491z"/>
	</g>
	<g>
		<path fill="#E88D51" d="M376.803,187.125c-0.143-0.55-0.284-1.083-0.416-1.583c-5.603-21.2-69.092-12.854-71.574-0.051    c-0.724,3.732-1.345,6.937-1.712,9.535C319.6,187.289,337.956,178.79,376.803,187.125z"/>
	</g>
	<g>
		<path fill="#F27C21" d="M336.194,204.455c-7.281-4.802-56.746,10.727-59.435,11.106c-2.688,0.379-5.551-0.256-5.986-5.509    c-3.919,4.428-6.569,10.845,1.743,21.986c4.092,5.485,14.923,8.988,22.592,9.123c2.305,0.041,32.498-4.117,38.501-4.483    C346.627,235.885,358.735,219.319,336.194,204.455z"/>
	</g>
	<g>
		<path fill="#E3641B" d="M324.071,220.744c-6.615,7.818-14.054,16.597-30.974,20.303c0.687,0.059,1.364,0.103,2.012,0.114    c0.62,0.011,3.263-0.283,6.9-0.723c11.758-4.516,17.94-11.812,23.548-18.439c2.064-2.44,4.014-4.745,6.126-6.755l-1.339-1.408    C328.153,215.919,326.17,218.263,324.071,220.744z"/>
	</g>
	<g>
		<path fill="#E3641B" d="M324.177,237.684c5.909-7.514,8.126-15.094,10.164-22.08c0.894-3.068,1.74-5.966,2.853-8.661l-1.796-0.743    c-1.155,2.793-2.014,5.74-2.924,8.86c-2.118,7.262-4.432,15.186-11.118,22.967C322.323,237.908,323.267,237.793,324.177,237.684z"/>
	</g>
	<g>
		<path fill="#E3641B" d="M295.445,213.804c-10.739,3.676-20.882,7.15-23.794,4.282c-1.027-1.01-1.178-2.984-0.483-5.851    c-0.185-0.622-0.324-1.337-0.394-2.183l0,0c-0.553,0.625-1.079,1.291-1.554,2.002c-0.791,3.476-0.45,5.926,1.066,7.418    c1.146,1.128,2.84,1.605,4.991,1.605c4.924-0.001,12.235-2.503,20.796-5.434c16.876-5.779,37.878-12.969,45.939-1.424l1.594-1.113    C334.711,200.362,312.939,207.814,295.445,213.804z"/>
	</g>
	<g>
		<path fill="#E3641B" d="M274.064,233.724c1.953,1.817,4.635,3.356,7.599,4.556c7.088-1.459,14.702-5.518,22.201-9.523    c12.224-6.528,24.867-13.279,36.486-10.764l1.028-4.75c-13.373-2.891-27.412,4.611-39.803,11.227    C289.993,230.655,281.084,235.024,274.064,233.724z"/>
	</g>
	<g>
		<path fill="#F27C21" d="M402.223,231.244c-2.329,4.729-5.225,4.271-7.588,2.934s-43.678-36.447-51.239-32.1    c-5.339,3.07-13.505,29.207-8.63,34.487c5.452,2.539,31.26,13.91,33.42,14.716c7.186,2.683,18.547,3.389,24.363-0.216    C404.364,243.741,404.248,236.799,402.223,231.244z"/>
	</g>
	<g>
		<path fill="#E3641B" d="M338.819,220.931c-0.923-1.59-1.871-3.208-2.854-4.84c-0.263,0.836-0.515,1.682-0.749,2.532    c0.652,1.103,1.292,2.2,1.921,3.284c4.696,8.088,9.204,15.837,18.212,23.826c2.431,1.068,4.734,2.075,6.713,2.936    C349.499,239.282,344.283,230.34,338.819,220.931z"/>
	</g>
	<g>
		<path fill="#E3641B" d="M376.634,227.182c8.668,7.372,15.741,13.388,20.633,13.387c0.698,0,1.352-0.123,1.96-0.381    c1.957-0.834,3.172-2.988,3.709-6.512c-0.182-0.836-0.427-1.648-0.713-2.432v0c-0.376,0.763-0.767,1.377-1.167,1.888    c-0.402,2.922-1.266,4.702-2.591,5.267c-3.758,1.602-11.925-5.344-20.572-12.699c-11.512-9.79-25.323-21.529-37.053-20.801    c-0.407,0.63-0.815,1.335-1.221,2.11C350.807,205.233,364.948,217.244,376.634,227.182z"/>
	</g>
	<g>
		<path fill="#E3641B" d="M381.755,253.523c3.197-0.031,6.255-0.48,8.737-1.456c-7.008-1.363-13.699-8.69-22.211-18.686    c-8.362-9.82-17.756-20.821-29.684-24.267c-0.63,1.392-1.239,2.92-1.807,4.517c10.702,2.834,19.381,13.024,27.791,22.901    C370.094,243.006,375.693,249.57,381.755,253.523z"/>
	</g>
	<g>
		<path fill="#E05C58" d="M343.971,192.88c1.074-7.947-1.195-7.748-4.55-13.185c-8.877-14.387-16.657-9.06-19.176-4.916    c-8.822,14.515-7.098,16.73-6.852,20.941c-7.413-1.078-8.544,11.2-6.484,12.236c7.323,3.684,9.59,8.559,11.313,11.14    c3.526,5.283,17.754,0.862,19.824-1.687c2.005-2.47,1.213-4.504,14.954-14.566C355.166,201.255,349.992,185.242,343.971,192.88z"/>
	</g>
	<g>
		<path fill="#C9354A" d="M353,202.842c2.166-1.586-3.007-17.599-9.029-9.962c6.127-0.383,8.402,7.842,4.168,10.742    c-5.999,4.108-11.071,9.134-12.303,11.726c-2.128,4.476-12.161,4.575-15.364,1.456c-4.383-4.27-8.121-7.283-10.791-9.832    c-2.866-2.735-2.928-5.649,3.712-11.252l0,0c-7.413-1.078-8.544,11.2-6.484,12.236c7.323,3.684,9.59,8.559,11.313,11.14    c3.526,5.283,17.754,0.862,19.824-1.687C340.051,214.937,339.259,212.904,353,202.842z"/>
	</g>
	<g>
		<path fill="#403639" d="M344.963,170.29c-14.317-8.989-28.069,10.196-23.511,11.853c26.569,9.657,35.085,15.335,48.806,28.127    c2.588,0.499,4.899-7.228,4.975-8.813C373.528,199.037,363.656,182.027,344.963,170.29z"/>
	</g>
	<g>
		<path fill="#241D2E" d="M363.25,185.688c-4.703-5.126-10.782-10.687-18.286-15.398c-14.317-8.989-28.069,10.196-23.511,11.853    c8.057,2.928,14.447,5.491,19.833,7.997C347.988,188.273,355.807,187.243,363.25,185.688z"/>
	</g>
	<g>
		<g>
			<path fill="#F5E5D8" d="M369.737,154.099c-2.072,1.493-5.14-5.519-7.994-7.69c-3.552-3.633-9.838-8.276-7.218-9.485     c22.799-10.521,9.427-19.479,13.462-22.14c6.157-4.06,17.696,8.859,16.552,19.443     C383.687,142.112,377.611,148.424,369.737,154.099z"/>
		</g>
		<g>
			<path fill="#A9ADB9" d="M354.295,135.07c7.447-0.619,19.147,16.044,17.364,21.201c-1.783,5.157-5.042,5.342-16.186-3.135     C342.857,140.232,348.037,135.59,354.295,135.07z"/>
		</g>
	</g>
	<g>
		<g>
			<path fill="#F5E5D8" d="M292.53,129.885c4.126,1.332-5.284,12.283,16.948,15.909c2.555,0.417-1.765,5.938-3.964,9.93     c-1.946,2.561-2.917,9.359-5.065,8.565c-8.168-3.017-14.934-7.016-17.562-13.627C279.359,141.788,286.234,127.851,292.53,129.885     z"/>
		</g>
		<g>
			<path fill="#A9ADB9" d="M309.232,144.136c5.534-1.052,11.126,1.718,3.315,15.899c-7.6,10.002-10.461,10.623-13.239,6.593     C296.53,162.597,302.646,145.387,309.232,144.136z"/>
		</g>
	</g>
	<g>
		<path fill="#686B7D" d="M331.498,130.274c10.196-0.955,30.355,7.971,42.197,36.734c-37.158-5.605-63.034,4.114-72.567,5.716    C301.451,156.039,321.302,131.229,331.498,130.274z"/>
	</g>
	<g>
		<path fill="#9295A8" d="M330.207,128.451c6.439,0.134,14.732,3.636,17.465,4.862c-2.087,4.24-8.26,17.959-0.389,30.144    c-11.743-1.851-16.204,0.569-25.737,2.17c-1.288-16.023-3.199-22.476-6.463-24.835    C319.368,134.493,324.87,129.921,330.207,128.451z"/>
	</g>
	<g>
		<path fill="#B0AFBF" d="M330.207,128.451c6.439,0.134,14.732,3.636,17.465,4.862c-0.054,0.11-0.112,0.227-0.171,0.35    c-5.765-1.808-12.868-3.497-18.087-3.302c-6.059,3.05-9.634,7.641-12.061,10.228c2.584,5.865,4.838,13.243,4.748,24.943    c-0.183,0.032-0.368,0.064-0.554,0.095c-1.288-16.023-3.199-22.476-6.463-24.835C319.368,134.493,324.87,129.921,330.207,128.451z    "/>
	</g>
	<g>
		<path fill="#A9ADB9" d="M301.128,172.724c3.379-2.247,13.39-8.757,32.951-11.054c16.111-1.892,27.293-0.629,38.893,2.72    c4.921,1.421,8.149,19.301,5.484,18.979c-17.073-2.063-28.974-2.011-42.927,0.354c-17.973,3.045-25.373,6.202-34.905,7.803    C298.35,191.908,297.647,175.039,301.128,172.724z"/>
	</g>
	<g>
		<path fill="#B7BBC7" d="M318.926,187.151c-6.882,1.689-11.8,3.199-17.293,4.199l3.862-21.277    c2.959-1.612,7.153-3.544,12.782-5.221L318.926,187.151z"/>
	</g>
	<g>
		<path fill="#BEC8CF" d="M299.935,174.406c-0.002,0.001-0.004,0.003-0.007,0.004c0.326-0.78,0.724-1.369,1.2-1.685    c3.379-2.247,13.39-8.757,32.951-11.054c16.111-1.892,27.293-0.629,38.893,2.72c0.525,0.152,1.03,0.491,1.511,0.974    C350.434,160.801,324.906,159.651,299.935,174.406z"/>
	</g>
	<g>
		<path fill="#A9ADB9" d="M324.534,139.951c-0.057,1.712,2.22,3.177,5.088,3.273c2.867,0.096,5.238-1.214,5.295-2.926    s-2.22-3.178-5.088-3.273C326.962,136.929,324.591,138.239,324.534,139.951z"/>
	</g>
	<g>
		<path fill="#A9ADB9" d="M329.046,156.606c0.274,0.873,1.682,1.208,3.145,0.749c1.462-0.46,2.425-1.54,2.151-2.413    c-0.275-0.873-1.682-1.208-3.145-0.749C329.734,154.652,328.771,155.733,329.046,156.606z"/>
	</g>
	<g>
		<g>
			<path fill="#E8BE38" d="M156.261,259.743l-3.103-17.463c0,0-6.404-1.036-1.474-8.105c2.919-4.185,15.256-8.07,20.277-7.212     c6.936,1.185,3.29,6.687,3.29,6.687l9.271,12.245c0,0,3.315,8.274-9.505,15.706C165.828,266.93,158.559,264.306,156.261,259.743z     "/>
		</g>
		<g>
			<path fill="#D18B2A" d="M175.017,261.603c-5.369,3.113-10.082,3.511-13.532,2.394c-0.003-0.002-0.007-0.004-0.01-0.006     c33.764-9.074,13.033-23.169,5.955-27.026c-0.017,0.007-0.034,0.013-0.051,0.02c-3.729,1.543-7.378,3.265-10.771,5.283     c-1.059,0.624-2.107,1.303-3.093,2.027l-0.358-2.013c0,0-1.222-0.198-2.188-1.01c1.26-0.822,2.556-1.541,3.838-2.228     c3.753-1.937,7.614-3.476,11.517-4.827c0.734-0.252,1.474-0.473,2.211-0.715c3.236-3.813-0.751-5.544-2.707-6.13     c2.407-0.49,4.608-0.667,6.133-0.407c6.936,1.185,3.29,6.687,3.29,6.687l9.271,12.245     C184.522,245.896,187.837,254.171,175.017,261.603z"/>
		</g>
		<g>
			<path fill="#FAD55F" d="M164.211,260.182c2.228-1.404,3.364-3.604,2.538-4.915c-0.826-1.311-3.301-1.235-5.529,0.169     c-2.228,1.404-3.364,3.604-2.538,4.915C159.508,261.661,161.984,261.586,164.211,260.182z"/>
		</g>
	</g>
	<g>
		<path fill="#AB3316" d="M361.993,182.311c-2.045-3.475-4.378-5.423-8.93-7.259c-3.942-1.59-14.186-1.958-16.176-0.51    c-3.312,2.41,3.639,12.941,6.066,12.08C347.237,185.101,359.652,182.298,361.993,182.311z"/>
	</g>
	<g>
		<path fill="#AB3316" d="M301.221,193.961c-0.534-3.997,0.101-6.969,2.551-11.222c2.122-3.683,9.958-10.291,12.418-10.379    c4.093-0.146,5.118,12.431,2.676,13.25C314.556,187.056,303.055,192.507,301.221,193.961z"/>
	</g>
</g>
</svg>
