<?xml version="1.0" encoding="UTF-8"?>
<svg xmlns="http://www.w3.org/2000/svg" xmlns:xlink="http://www.w3.org/1999/xlink" version="1.1" id="character" x="0px" y="0px" viewBox="0 0 512 512" xml:space="preserve" width="512" height="512">
<g>
	<g id="square_32_">
		<polygon fill="none" points="362.469,306.045 397.139,96.401 134.438,95.11 165.545,340.459   "/>
	</g>
	<g id="shadow_51_">
		<ellipse fill="none" cx="260.606" cy="434.604" rx="144.431" ry="19.654"/>
	</g>
	<g>
		<polygon fill="#877960" points="375.852,432.02 357.202,428.494 353.295,411.512 376.316,397.474 389.479,401.709 391.97,413.505     386.183,424.908   "/>
	</g>
	<g>
		<path fill="#574639" d="M383.611,418.08c7.433-4.324,1.756-17.297-5.66-16.108c-6.556,1.051-10.899-5.242-10.899-5.242    l15.683,0.961l6.654,7.816l2.577,2.8l-1.441,4.524C390.525,412.831,383.931,421.911,383.611,418.08z"/>
	</g>
	<g>
		<path fill="#4A3A2D" d="M371.266,406.725c18.13-10.59,21.709-1.685,18.966,1.152C386.129,412.121,371.585,410.556,371.266,406.725    z"/>
	</g>
	<g>
		<path fill="#574639" d="M371.689,426.93c5.521-7.497-5.651-13.593-10.681-10.102c-2.935-4.829,9.47-10.169,9.47-10.169l7.79,15.14    C378.267,421.8,372.008,430.761,371.689,426.93z"/>
	</g>
	<g>
		<polygon fill="#574639" points="386.439,424.381 380.192,422.18 378.719,426.195 379.069,419.844 387.134,422.946   "/>
	</g>
	<g>
		<path fill="#E6E6B5" d="M379.251,445.57l14.894-8.041l-2.212-6.333c0,0-0.766-0.553-2.388,0.558    c-1.946,1.332-1.544,2.524-1.544,2.524l0.296,1.217l-1.903,1.151l-1.566-0.744c0,0-0.995-0.579-2.504,0.281    c-1.558,0.887-1.458,2.148-1.458,2.148l0.084,1.619l-1.443,0.872c0,0-3.087-0.681-3.917-4.809l2.242-1.749l0.808,0.838    c0,0,1.162,1.042,2.845-0.192c1.661-1.218,1.211-2.29,1.211-2.29l-0.557-1.341l2.439-1.208l1.208,0.992    c0,0,0.908,0.595,2.872-0.673c1.688-1.09,1.166-2.719,1.166-2.719l-2.304-4.155l6.683-10.476c0,0-0.277-25.208-21.995-28.612    c-13.789-2.161-29.019,10.825-32.843,27.043c-4.254,18.04,14.525,31.843,14.525,31.843l14.033-6.22    C370.996,441.966,376.095,445.145,379.251,445.57z M381.491,424.426l-2.04,2.801l0.274-5.834l6.405,2.266L381.491,424.426z     M377.951,401.972c4.024-2.087,9.067-0.346,11.264,3.89c2.197,4.236,0.716,9.361-3.308,11.448    c-4.024,2.087-9.067,0.346-11.264-3.89C372.446,409.185,373.927,404.059,377.951,401.972z M361.532,425.762    c-2.626-3.14-2.337-7.708,0.646-10.203c2.983-2.495,7.53-1.972,10.157,1.168c2.626,3.14,2.337,7.708-0.646,10.203    C368.706,429.425,364.158,428.902,361.532,425.762z"/>
	</g>
	<g>
		<g>
			<defs>
				<path id="SVGID_1_" d="M389.97,397.934c0,0-2.553-8.272-16.543-11.746c-5.332-1.324-10.983,0.263-16.005,3.676      C379.358,381.93,389.97,397.934,389.97,397.934z"/>
			</defs>
			<clipPath id="SVGID_2_">
				<use xlink:href="#SVGID_1_" overflow="visible"/>
			</clipPath>
			<polygon clip-path="url(#SVGID_2_)" fill="#49AD76" points="357.421,388.626 377.398,397.934 357.421,397.934    "/>
			<polygon clip-path="url(#SVGID_2_)" fill="#49AD76" points="357.421,388.429 377.822,397.934 377.398,397.934 357.421,388.626         "/>
			<polygon clip-path="url(#SVGID_2_)" fill="#49AC75" points="357.421,388.232 378.245,397.934 377.822,397.934 357.421,388.429         "/>
			<polygon clip-path="url(#SVGID_2_)" fill="#48AB75" points="357.421,388.035 378.668,397.934 378.245,397.934 357.421,388.232         "/>
			<polygon clip-path="url(#SVGID_2_)" fill="#48AA74" points="357.421,387.838 379.091,397.934 378.668,397.934 357.421,388.035         "/>
			<polygon clip-path="url(#SVGID_2_)" fill="#47A973" points="357.421,387.64 379.515,397.934 379.091,397.934 357.421,387.838         "/>
			<polygon clip-path="url(#SVGID_2_)" fill="#47A873" points="357.421,387.443 379.938,397.934 379.515,397.934 357.421,387.64         "/>
			<polygon clip-path="url(#SVGID_2_)" fill="#46A772" points="357.421,387.246 380.361,397.934 379.938,397.934 357.421,387.443         "/>
			<polygon clip-path="url(#SVGID_2_)" fill="#46A671" points="357.421,387.049 380.784,397.934 380.361,397.934 357.421,387.246         "/>
			<polygon clip-path="url(#SVGID_2_)" fill="#46A571" points="357.421,386.852 381.208,397.934 380.784,397.934 357.421,387.049         "/>
			<polygon clip-path="url(#SVGID_2_)" fill="#45A470" points="357.421,386.654 381.631,397.934 381.208,397.934 357.421,386.852         "/>
			<polygon clip-path="url(#SVGID_2_)" fill="#45A36F" points="357.421,386.457 382.054,397.934 381.631,397.934 357.421,386.654         "/>
			<polygon clip-path="url(#SVGID_2_)" fill="#44A26E" points="357.421,386.26 382.477,397.934 382.054,397.934 357.421,386.457         "/>
			<polygon clip-path="url(#SVGID_2_)" fill="#44A16E" points="357.421,386.063 382.901,397.934 382.477,397.934 357.421,386.26         "/>
			<polygon clip-path="url(#SVGID_2_)" fill="#43A06D" points="357.421,385.866 383.324,397.934 382.901,397.934 357.421,386.063         "/>
			<polygon clip-path="url(#SVGID_2_)" fill="#439F6C" points="357.421,385.668 383.747,397.934 383.324,397.934 357.421,385.866         "/>
			<polygon clip-path="url(#SVGID_2_)" fill="#439E6C" points="357.421,385.471 384.17,397.934 383.747,397.934 357.421,385.668         "/>
			<polygon clip-path="url(#SVGID_2_)" fill="#429D6B" points="357.421,385.274 384.594,397.934 384.17,397.934 357.421,385.471         "/>
			<polygon clip-path="url(#SVGID_2_)" fill="#429C6A" points="357.421,385.128 357.441,385.086 385.017,397.934 384.594,397.934      357.421,385.274    "/>
			<polygon clip-path="url(#SVGID_2_)" fill="#419B6A" points="357.441,385.086 357.516,384.924 385.44,397.934 385.017,397.934         "/>
			<polygon clip-path="url(#SVGID_2_)" fill="#419A69" points="357.516,384.924 357.591,384.762 385.863,397.934 385.44,397.934         "/>
			<polygon clip-path="url(#SVGID_2_)" fill="#419968" points="357.591,384.762 357.667,384.6 386.287,397.934 385.863,397.934         "/>
			<polygon clip-path="url(#SVGID_2_)" fill="#409868" points="357.667,384.6 357.742,384.438 386.71,397.934 386.287,397.934         "/>
			<polygon clip-path="url(#SVGID_2_)" fill="#409767" points="357.742,384.438 357.818,384.276 387.133,397.934 386.71,397.934         "/>
			<polygon clip-path="url(#SVGID_2_)" fill="#3F9666" points="357.818,384.276 357.893,384.114 387.556,397.934 387.133,397.934         "/>
			<polygon clip-path="url(#SVGID_2_)" fill="#3F9566" points="357.893,384.114 357.969,383.952 387.98,397.934 387.556,397.934         "/>
			<polygon clip-path="url(#SVGID_2_)" fill="#3E9465" points="357.969,383.952 358.044,383.79 388.403,397.934 387.98,397.934         "/>
			<polygon clip-path="url(#SVGID_2_)" fill="#3E9364" points="358.044,383.79 358.12,383.628 388.826,397.934 388.403,397.934         "/>
			<polygon clip-path="url(#SVGID_2_)" fill="#3E9263" points="358.12,383.628 358.195,383.466 389.249,397.934 388.826,397.934         "/>
			<polygon clip-path="url(#SVGID_2_)" fill="#3D9163" points="358.195,383.466 358.271,383.304 389.673,397.934 389.249,397.934         "/>
			<polygon clip-path="url(#SVGID_2_)" fill="#3D9062" points="358.271,383.304 358.346,383.142 389.97,397.876 389.97,397.934      389.673,397.934    "/>
			<polygon clip-path="url(#SVGID_2_)" fill="#3C8F61" points="358.346,383.142 358.422,382.98 389.97,397.678 389.97,397.876         "/>
			<polygon clip-path="url(#SVGID_2_)" fill="#3C8E61" points="358.422,382.98 358.497,382.818 389.97,397.481 389.97,397.678         "/>
			<polygon clip-path="url(#SVGID_2_)" fill="#3B8D60" points="358.497,382.818 358.573,382.656 389.97,397.284 389.97,397.481         "/>
			<polygon clip-path="url(#SVGID_2_)" fill="#3B8C5F" points="358.573,382.656 358.648,382.494 389.97,397.087 389.97,397.284         "/>
			<polygon clip-path="url(#SVGID_2_)" fill="#3B8B5F" points="358.648,382.494 358.724,382.332 389.97,396.89 389.97,397.087         "/>
			<polygon clip-path="url(#SVGID_2_)" fill="#3A8A5E" points="358.724,382.332 358.799,382.169 389.97,396.692 389.97,396.89         "/>
			<polygon clip-path="url(#SVGID_2_)" fill="#3A895D" points="358.799,382.169 358.875,382.007 389.97,396.495 389.97,396.692         "/>
			<polygon clip-path="url(#SVGID_2_)" fill="#39885D" points="358.875,382.007 358.911,381.93 359.132,381.93 389.97,396.298      389.97,396.495    "/>
			<polygon clip-path="url(#SVGID_2_)" fill="#39875C" points="359.555,381.93 389.97,396.101 389.97,396.298 359.132,381.93    "/>
			<polygon clip-path="url(#SVGID_2_)" fill="#38865B" points="359.978,381.93 389.97,395.904 389.97,396.101 359.555,381.93    "/>
			<polygon clip-path="url(#SVGID_2_)" fill="#38855B" points="360.401,381.93 389.97,395.706 389.97,395.904 359.978,381.93    "/>
			<polygon clip-path="url(#SVGID_2_)" fill="#38845A" points="360.824,381.93 389.97,395.509 389.97,395.706 360.401,381.93    "/>
			<polygon clip-path="url(#SVGID_2_)" fill="#378359" points="361.248,381.93 389.97,395.312 389.97,395.509 360.824,381.93    "/>
			<polygon clip-path="url(#SVGID_2_)" fill="#378259" points="361.671,381.93 389.97,395.115 389.97,395.312 361.248,381.93    "/>
			<polygon clip-path="url(#SVGID_2_)" fill="#368158" points="362.094,381.93 389.97,394.918 389.97,395.115 361.671,381.93    "/>
			<polygon clip-path="url(#SVGID_2_)" fill="#368057" points="362.518,381.93 389.97,394.72 389.97,394.918 362.094,381.93    "/>
			<polygon clip-path="url(#SVGID_2_)" fill="#357F56" points="362.941,381.93 389.97,394.523 389.97,394.72 362.518,381.93    "/>
			<polygon clip-path="url(#SVGID_2_)" fill="#357E56" points="363.364,381.93 389.97,394.326 389.97,394.523 362.941,381.93    "/>
			<polygon clip-path="url(#SVGID_2_)" fill="#357D55" points="363.787,381.93 389.97,394.129 389.97,394.326 363.364,381.93    "/>
			<polygon clip-path="url(#SVGID_2_)" fill="#347C54" points="364.211,381.93 389.97,393.932 389.97,394.129 363.787,381.93    "/>
			<polygon clip-path="url(#SVGID_2_)" fill="#347B54" points="364.634,381.93 389.97,393.734 389.97,393.932 364.211,381.93    "/>
			<polygon clip-path="url(#SVGID_2_)" fill="#337A53" points="365.057,381.93 389.97,393.537 389.97,393.734 364.634,381.93    "/>
			<polygon clip-path="url(#SVGID_2_)" fill="#337952" points="365.48,381.93 389.97,393.34 389.97,393.537 365.057,381.93    "/>
			<polygon clip-path="url(#SVGID_2_)" fill="#337852" points="365.904,381.93 389.97,393.143 389.97,393.34 365.48,381.93    "/>
			<polygon clip-path="url(#SVGID_2_)" fill="#327751" points="366.327,381.93 389.97,392.946 389.97,393.143 365.904,381.93    "/>
			<polygon clip-path="url(#SVGID_2_)" fill="#327650" points="366.75,381.93 389.97,392.748 389.97,392.946 366.327,381.93    "/>
			<polygon clip-path="url(#SVGID_2_)" fill="#317550" points="367.173,381.93 389.97,392.551 389.97,392.748 366.75,381.93    "/>
			<polygon clip-path="url(#SVGID_2_)" fill="#31744F" points="367.597,381.93 389.97,392.354 389.97,392.551 367.173,381.93    "/>
			<polygon clip-path="url(#SVGID_2_)" fill="#30734E" points="368.02,381.93 389.97,392.157 389.97,392.354 367.597,381.93    "/>
			<polygon clip-path="url(#SVGID_2_)" fill="#30724E" points="368.443,381.93 389.97,391.96 389.97,392.157 368.02,381.93    "/>
			<polygon clip-path="url(#SVGID_2_)" fill="#30714D" points="368.866,381.93 389.97,391.762 389.97,391.96 368.443,381.93    "/>
			<polygon clip-path="url(#SVGID_2_)" fill="#2F704C" points="369.29,381.93 389.97,391.565 389.97,391.762 368.866,381.93    "/>
			<polygon clip-path="url(#SVGID_2_)" fill="#2F6F4B" points="369.713,381.93 389.97,391.368 389.97,391.565 369.29,381.93    "/>
			<polygon clip-path="url(#SVGID_2_)" fill="#2E6E4B" points="370.136,381.93 389.97,391.171 389.97,391.368 369.713,381.93    "/>
			<polygon clip-path="url(#SVGID_2_)" fill="#2E6D4A" points="370.559,381.93 389.97,390.974 389.97,391.171 370.136,381.93    "/>
			<polygon clip-path="url(#SVGID_2_)" fill="#2D6C49" points="370.983,381.93 389.97,390.776 389.97,390.974 370.559,381.93    "/>
			<polygon clip-path="url(#SVGID_2_)" fill="#2D6B49" points="371.406,381.93 389.97,390.579 389.97,390.776 370.983,381.93    "/>
			<polygon clip-path="url(#SVGID_2_)" fill="#2D6A48" points="371.829,381.93 389.97,390.382 389.97,390.579 371.406,381.93    "/>
			<polygon clip-path="url(#SVGID_2_)" fill="#2C6947" points="372.252,381.93 389.97,390.185 389.97,390.382 371.829,381.93    "/>
			<polygon clip-path="url(#SVGID_2_)" fill="#2C6847" points="372.676,381.93 389.97,389.988 389.97,390.185 372.252,381.93    "/>
			<polygon clip-path="url(#SVGID_2_)" fill="#2B6746" points="373.099,381.93 389.97,389.79 389.97,389.988 372.676,381.93    "/>
			<polygon clip-path="url(#SVGID_2_)" fill="#2B6645" points="373.522,381.93 389.97,389.593 389.97,389.79 373.099,381.93    "/>
			<polygon clip-path="url(#SVGID_2_)" fill="#2A6545" points="373.945,381.93 389.97,389.396 389.97,389.593 373.522,381.93    "/>
			<polygon clip-path="url(#SVGID_2_)" fill="#2A6444" points="374.369,381.93 389.97,389.199 389.97,389.396 373.945,381.93    "/>
			<polygon clip-path="url(#SVGID_2_)" fill="#2A6343" points="374.792,381.93 389.97,389.002 389.97,389.199 374.369,381.93    "/>
			<polygon clip-path="url(#SVGID_2_)" fill="#296243" points="375.215,381.93 389.97,388.804 389.97,389.002 374.792,381.93    "/>
			<polygon clip-path="url(#SVGID_2_)" fill="#296142" points="375.638,381.93 389.97,388.607 389.97,388.804 375.215,381.93    "/>
			<polygon clip-path="url(#SVGID_2_)" fill="#286041" points="376.062,381.93 389.97,388.41 389.97,388.607 375.638,381.93    "/>
			<polygon clip-path="url(#SVGID_2_)" fill="#285F40" points="376.485,381.93 389.97,388.213 389.97,388.41 376.062,381.93    "/>
			<polygon clip-path="url(#SVGID_2_)" fill="#275E40" points="376.908,381.93 389.97,388.016 389.97,388.213 376.485,381.93    "/>
			<polygon clip-path="url(#SVGID_2_)" fill="#275D3F" points="377.331,381.93 389.97,387.818 389.97,388.016 376.908,381.93    "/>
			<polygon clip-path="url(#SVGID_2_)" fill="#275C3E" points="377.755,381.93 389.97,387.621 389.97,387.818 377.331,381.93    "/>
			<polygon clip-path="url(#SVGID_2_)" fill="#265B3E" points="378.178,381.93 389.97,387.424 389.97,387.621 377.755,381.93    "/>
			<polygon clip-path="url(#SVGID_2_)" fill="#265A3D" points="378.601,381.93 389.97,387.227 389.97,387.424 378.178,381.93    "/>
			<polygon clip-path="url(#SVGID_2_)" fill="#25593C" points="379.024,381.93 389.97,387.03 389.97,387.227 378.601,381.93    "/>
			<polygon clip-path="url(#SVGID_2_)" fill="#25583C" points="379.448,381.93 389.97,386.832 389.97,387.03 379.024,381.93    "/>
			<polygon clip-path="url(#SVGID_2_)" fill="#25573B" points="379.871,381.93 389.97,386.635 389.97,386.832 379.448,381.93    "/>
			<polygon clip-path="url(#SVGID_2_)" fill="#24553A" points="380.294,381.93 389.97,386.438 389.97,386.635 379.871,381.93    "/>
			<polygon clip-path="url(#SVGID_2_)" fill="#24543A" points="380.717,381.93 389.97,386.241 389.97,386.438 380.294,381.93    "/>
			<polygon clip-path="url(#SVGID_2_)" fill="#235339" points="381.141,381.93 389.97,386.044 389.97,386.241 380.717,381.93    "/>
			<polygon clip-path="url(#SVGID_2_)" fill="#235238" points="381.564,381.93 389.97,385.846 389.97,386.044 381.141,381.93    "/>
			<polygon clip-path="url(#SVGID_2_)" fill="#225138" points="381.987,381.93 389.97,385.649 389.97,385.846 381.564,381.93    "/>
			<polygon clip-path="url(#SVGID_2_)" fill="#225037" points="382.41,381.93 389.97,385.452 389.97,385.649 381.987,381.93    "/>
			<polygon clip-path="url(#SVGID_2_)" fill="#224F36" points="382.834,381.93 389.97,385.255 389.97,385.452 382.41,381.93    "/>
			<polygon clip-path="url(#SVGID_2_)" fill="#214E36" points="383.257,381.93 389.97,385.057 389.97,385.255 382.834,381.93    "/>
			<polygon clip-path="url(#SVGID_2_)" fill="#214D35" points="383.68,381.93 389.97,384.86 389.97,385.057 383.257,381.93    "/>
			<polygon clip-path="url(#SVGID_2_)" fill="#204C34" points="384.103,381.93 389.97,384.663 389.97,384.86 383.68,381.93    "/>
			<polygon clip-path="url(#SVGID_2_)" fill="#204B33" points="384.527,381.93 389.97,384.466 389.97,384.663 384.103,381.93    "/>
			<polygon clip-path="url(#SVGID_2_)" fill="#1F4A33" points="384.95,381.93 389.97,384.269 389.97,384.466 384.527,381.93    "/>
			<polygon clip-path="url(#SVGID_2_)" fill="#1F4932" points="385.373,381.93 389.97,384.072 389.97,384.269 384.95,381.93    "/>
			<polygon clip-path="url(#SVGID_2_)" fill="#1F4831" points="385.796,381.93 389.97,383.874 389.97,384.072 385.373,381.93    "/>
			<polygon clip-path="url(#SVGID_2_)" fill="#1E4731" points="386.22,381.93 389.97,383.677 389.97,383.874 385.796,381.93    "/>
			<polygon clip-path="url(#SVGID_2_)" fill="#1E4630" points="386.643,381.93 389.97,383.48 389.97,383.677 386.22,381.93    "/>
			<polygon clip-path="url(#SVGID_2_)" fill="#1D452F" points="387.066,381.93 389.97,383.283 389.97,383.48 386.643,381.93    "/>
			<polygon clip-path="url(#SVGID_2_)" fill="#1D442F" points="387.489,381.93 389.97,383.086 389.97,383.283 387.066,381.93    "/>
			<polygon clip-path="url(#SVGID_2_)" fill="#1C432E" points="387.913,381.93 389.97,382.888 389.97,383.086 387.489,381.93    "/>
			<polygon clip-path="url(#SVGID_2_)" fill="#1C422D" points="388.336,381.93 389.97,382.691 389.97,382.888 387.913,381.93    "/>
			<polygon clip-path="url(#SVGID_2_)" fill="#1C412D" points="388.759,381.93 389.97,382.494 389.97,382.691 388.336,381.93    "/>
			<polygon clip-path="url(#SVGID_2_)" fill="#1B402C" points="389.182,381.93 389.97,382.297 389.97,382.494 388.759,381.93    "/>
			<polygon clip-path="url(#SVGID_2_)" fill="#1B3F2B" points="389.606,381.93 389.97,382.099 389.97,382.297 389.182,381.93    "/>
			<polygon clip-path="url(#SVGID_2_)" fill="#1A3E2B" points="389.97,382.099 389.606,381.93 389.97,381.93    "/>
		</g>
	</g>
	<g>
		<path fill="#CCCC97" d="M379.251,445.57l14.894-8.041l-0.833-2.384c-0.001,0.001-12.124,10.923-17.205,7.926    c-5.081-2.997-6.421-8.207-6.421-8.207s-2.175,1.38-13.451,3.904c-21.367-16.315-13.477-39.307-0.628-50.308    c-7.648,4.851-13.965,13.357-16.241,23.01c-4.254,18.04,14.525,31.843,14.525,31.843l14.033-6.22    C370.996,441.966,376.095,445.145,379.251,445.57z"/>
	</g>
	<g>
		<path fill="#BDBD8C" d="M360.135,427.747c-2.607,3.408-2.664,5.187-2.664,5.187c1.731-3.391,4.457-4.242,4.249-5.248    c-10.564-8.067,1.977-18.596,6.124-16.681c-3.399-1.283-8.501-0.127-10.735,5.663    C354.717,422.869,358.658,425.403,360.135,427.747z"/>
	</g>
	<g>
		<path fill="#BDBD8C" d="M379.21,428.374l2.664-3.221l4.256-1.494h0l-4.639,0.767l-2.04,2.801l0.274-5.834    C379.725,421.394,377.309,426.555,379.21,428.374z"/>
	</g>
	<g>
		<path fill="#CCCC97" d="M391.657,400.795c-5.937-1.984-17.133-4.923-26.707-2.859c-4.547-3.472-8.473-5.981-11.838-7.726    c-3.901,3.002-7.336,6.965-9.899,11.507c8.484,4.116,14.539-0.093,24.844,5.132c1.985,1.006,3.836,1.775,5.574,2.362    c0.028-2.994,1.584-5.818,4.32-7.237c4.024-2.087,9.067-0.346,11.264,3.89c0.453,0.874,0.742,1.786,0.892,2.701    c1.273-0.752,2.314-1.625,3.151-2.493C392.888,404.445,392.369,402.645,391.657,400.795z"/>
	</g>
	<g>
		<path fill="#BDBD8C" d="M371.798,409.866c-1.549-11.642,7.852-16.078,16.862-8.23c-2.155-2.925-8.089-6.717-13.704-3.762    C370.377,400.284,370.128,406.638,371.798,409.866z"/>
	</g>
	<g>
		<g>
			<path fill="#5E1B0B" d="M124.284,236.306l16.792-8.822l-0.459-112.879c0,0-0.928-5.396-9.926-5.255     c-10.189,0.16-9.366,6.258-9.366,6.258L124.284,236.306z"/>
		</g>
		<g>
			<path fill="#401308" d="M121.399,118.622l2.885,117.684l16.792-8.822l-0.444-109.256     C135.593,119.04,129.208,119.392,121.399,118.622z"/>
		</g>
		<g>
			<path fill="#424459" d="M200.833,80.397c-27.581,38.92-40.72,40.303-59.757,41.577c-13.694,0.917-73.429,8.348-105.389-50.315     C3.681,143.655,8.185,194.632,48.417,246.959c44.166-56.447,89.951-57.872,104.638-56.892     c14.686,0.98,43.683,6.332,45.614,30.871C236.417,201.275,256.725,123.071,200.833,80.397z"/>
		</g>
		<g>
			<path fill="#31324D" d="M184.669,198.893c7.442,4.635,13.178,11.596,14,22.045c30.281-15.773,49.329-69.215,26.832-111.771     c-0.224,4.405,0.21,9.542,1.412,15.507c-18.802,10.724-4.976,34.417-35.073,38.53c-1.799,11.038,1.029,16.244,4.899,21.121     C190.797,188.709,187.033,193.831,184.669,198.893z"/>
		</g>
		<g>
			<path fill="#B2C2C7" d="M58.032,232.319c-29.97-40.496-34.746-83.948-13.385-146.77c-3.165-4.162-6.17-8.77-8.961-13.891     C3.681,143.655,8.185,194.632,48.417,246.959c3.62-4.627,7.252-8.878,10.876-12.795     C58.905,233.553,58.491,232.938,58.032,232.319z"/>
		</g>
		<g>
			<path fill="#B2C2C7" d="M200.833,80.397c-3.884,5.481-7.474,10.194-10.842,14.291c45.756,42.708,42.214,81.023,20.59,117.596     C240.001,184.244,250.482,118.305,200.833,80.397z"/>
		</g>
		<g>
			<path fill="#8EA0AB" d="M225.502,109.17c-0.224,4.405,0.209,9.54,1.411,15.504c-3.782,2.157-6.242,4.839-8.007,7.781     c13.016,28.052,6.727,54.365-8.329,79.834C233.447,190.495,244.866,145.802,225.502,109.17z"/>
		</g>
		<g>
			<path fill="#F5AB6C" d="M196.874,213.035c-12.427,2.616-20.1,17.241-20.1,17.241l-3.447,16.132c0,0-18.95,22.721,14.749,24.024     c33.699,1.303,82.146-52.982,82.146-52.982l-55.361-40.96C214.861,176.489,191.314,191.123,196.874,213.035z"/>
		</g>
		<g>
			<path fill="#E88D51" d="M196.261,202.912c2.463,6.411,9.158,15.275,14.316,22.39c-0.715,1.076-2.358,3.145-3,4.168     c-2.763-3.313-10.316-10.243-20.139-11.856c-2.626,2.028-4.824,4.392-6.527,6.526c-0.904,13.914,12.834,32.282,20.158,44.45     c31.896-9.396,69.153-51.139,69.153-51.139l-55.361-40.96C214.861,176.489,198.392,186.735,196.261,202.912z"/>
		</g>
		<g>
			<path fill="#CAD4B4" d="M173.252,220.867c22.488,11.427,12.52,47.981,12.533,55.864c8.919,16.468,26.691,13.229,33.031-5.064     C228.827,242.785,182.513,204.808,173.252,220.867z"/>
		</g>
		<g>
			<path fill="#ADAC87" d="M205.432,231.611c-3.612,8.637-9.804,18.074-17.575,25.075c-0.455,8.996-2.077,16.861-2.072,20.046     c8.919,16.468,26.691,13.229,33.031-5.064C223.502,258.15,215.849,242.641,205.432,231.611z"/>
		</g>
		<g>
			<path fill="#824211" d="M181.509,223.216c-11.572-6.599-21.245,2.998-33.051-8.792c-8.328-8.316-34.454,15.262-12.49,35.48     c22.521,20.73,36.565,31.489,60.913,27.107C210.667,267.053,202.585,235.235,181.509,223.216z"/>
		</g>
		<g>
			<path fill="#6B290D" d="M181.509,223.216c-11.572-6.599-21.245,2.998-33.051-8.792c-7.005-6.995-26.598,8.575-19.577,25.73     c1.137,2.103,2.415,4.212,3.837,6.316c0.942,1.151,2.016,2.298,3.25,3.434c4.709,4.335,9.045,8.227,13.185,11.642     c7.517,0.14,21.113-1.821,14.86-24.22c1.104-1.798,4.587-8.921,5.028-12.283c2.048-0.655,3.213-1.882,8.548-0.629     c19.356,10.629,32.454,43.12,13.046,53.404c2.011-0.154,4.087-0.418,6.247-0.807     C210.667,267.053,202.585,235.235,181.509,223.216z"/>
		</g>
		<g>
			<path fill="#824211" d="M140.052,194.722c-3.561-2.1-6.489-1.152-9.802,6.098c-14.12-9.722-16.373,5.901-23.399,19.185     c-0.761,1.439,2.34,4.803,4.06,8.383c-4.973,9.158-0.437,11.524,2.164,15.093c-1.609,2.721-4.122,4.3-5.461,5.46     c-3.693,7.552-2.352,20.192,10.813,16.981c14.547-3.548,22.334,0.706,35.963-4.625c13.629-5.331,8.542-19.548,7.5-24.386     C175.98,208.323,145.137,212.711,140.052,194.722z"/>
		</g>
		<g>
			<path fill="#6B290D" d="M143.617,216.316c2.291,3.194,2.665,6.414,0.734,7.572c-2.934,0.654-16.116-4.106-22.186-9.94     c-3.664,1.009-8.941,6.494-12.578,12.056c0.472,0.771,0.934,1.571,1.325,2.385c-0.937,1.726-1.535,3.209-1.874,4.506     c3.968-6.629,10.091-13.597,13.232-14.566c8.768,6.444,15.902,6.826,22.352,7.208c0.969,9.097-5.656,19.752-20.338,10.769     c0.293,0.365,0.588,0.709,0.884,1.034c-1.554,1.712-2.456,3.037-2.88,4.063c-2.699-2.601-5.064-3.339-9.213,2.078c0,0,0,0,0,0     c-1.609,2.721-4.122,4.299-5.461,5.46c2.154-0.168,5.81-3.644,8.443-6.764c2.787-3.351,14.024,5.191,3.628,15.919     c0.747,4.061-1.242,5.34,2.576,7.049c1.108-0.187,2.185-0.34,3.223-0.451c2.376-18.11,2.649-19.699,1.112-20.362     c4.251-0.429,10.179-2.462,12.085-3.295c5.15-2.251,8.998-8.416,7.442-16.349c1.547-3.21,1.012-6.69-2.488-10.13     c-2.183-0.27-12.496-0.246-13.385-13.738C130.132,213.181,136.133,214.812,143.617,216.316z"/>
		</g>
		<g>
			<path fill="#6B290D" d="M143.639,234.117c8.757-2.27,15.284,1.172,18.593,4.226c-0.133-0.536-0.252-1.02-0.341-1.432     c0.349-0.709,0.663-1.391,0.958-2.06C157.276,231.48,149.945,230.814,143.639,234.117z"/>
		</g>
		<g>
			<path fill="#6B290D" d="M142.688,236.329l-3.092,3.559l0.477,24.309c2.117-0.087,4.271-0.28,6.539-0.689L142.688,236.329z"/>
		</g>
		<g>
			<path fill="#5E1B0B" d="M145.62,406.079l-3.304-167.51c0,0-6.506,7.602-15.872,0.085c-0.943,1.596-1.924,2.258-3.29,3.623     c5.849,7.732-1.159,16.118-1.159,16.118l2.04,148.175L145.62,406.079z"/>
		</g>
		<g>
			<path fill="#401308" d="M130.761,246.376c1.751,2.445,9.269,0.278,11.699-0.502l-0.144-7.306c0,0-6.506,7.602-15.872,0.085     c-0.943,1.596-1.924,2.258-3.29,3.623c5.849,7.732-1.159,16.118-1.159,16.118l0.056,4.083     C125.53,260.06,128.948,255.354,130.761,246.376z"/>
		</g>
	</g>
	<g>
		<path fill="#066EBD" d="M497.025,229.915c7.522,40.716-94.351,44.662-96.803,94.155c-99.197-13.816-57.324-60.138-165.863-76.566    c10.571-9.183,102.17-31.406,144.685-53.645C390.987,188.718,439.002,217.674,497.025,229.915z"/>
	</g>
	<g>
		<path fill="#5C250B" d="M442.324,336.562c-2.979-7.677-3.878-16.023-3.642-23.903c-10.748-8.636-15.31-6.947-20.486-2.903    c5.197,6.29,4.71,11.743,4.922,17.763C423.426,336.258,428.408,342.057,442.324,336.562z"/>
	</g>
	<g>
		<path fill="#F7B67C" d="M362.025,216.538c-13.818-47.582-44.67-13.663-24.767,9.076c-0.042,8.458,7.298,42.476,12.214,51.531    c19.029,0.479,33.49-20.692,37.649-38.475C386.601,228.539,372.354,220.289,362.025,216.538z"/>
	</g>
	<g>
		<path fill="#E88D51" d="M354.174,256.158c-1.472-5.871-9.013-21.118-11.053-24.547c3.273-5.647,7.097-10.674,6.165-13.657    c3.607-1.761,7.544-3.054,12.066-3.629c-14.116-44.289-43.679-11.087-24.093,11.289c-0.041,8.225,6.899,40.615,11.802,50.72    c5.529-1.592,16.17-7.382,27.238-14.572c5.245-6.962,9.012-15.347,10.824-23.092c-0.136-2.648-1.216-5.165-2.912-7.509    C370.636,236.754,363.054,245.027,354.174,256.158z"/>
	</g>
	<g>
		<path fill="#824211" d="M455.219,322.966c-18-11.243-27.597-34.319-30.128-43.972c-17.881-14.794-16.414-28.213-30.57-36.796    c-6.456,1.566-40.054,26.812-34.4,38.046c9.185,18.251,28.438,15.71,33.695,18.634c-3.987,19.281,11.659,18.539,7.665,33.783    c5.618,2.826,14.754-1.586,16.508-5.298c2.259-4.782-2.932-11.271,1.852-11.405c4.651-0.131,7.988,3.45,11.764,8.143    C437.087,330.913,445.718,337.558,455.219,322.966z"/>
	</g>
	<g>
		<path fill="#6B290D" d="M394.521,242.198c-6.456,1.566-40.054,26.812-34.4,38.046c8.571,17.032,25.906,15.958,32.457,18.115    c-12.907-5.089-12.736-6.976-18.77-13.912c7.339-13.367,19.402-23.352,32.278-30.11    C403.227,249.685,400.079,245.568,394.521,242.198z"/>
	</g>
	<g>
		<path fill="#CAD4B4" d="M392.054,229.013c-13.926,5.232-22.265,12.495-26.128,17.116c-14.193,16.976-21.575,44.124-4.701,36.125    c2.626-21.557,30.736-34.557,37.88-37.891C410.379,231.834,396.99,227.159,392.054,229.013z"/>
	</g>
	<g>
		<path fill="#ADAC87" d="M361.832,251.577c-11.344,16.688-15.765,37.863-0.607,30.677c0.973-7.985,5.446-14.793,11.051-20.374    C369.233,257.799,365.456,254.036,361.832,251.577z"/>
	</g>
	<g>
		<g>
			<path fill="#824211" d="M342.76,393.423c-3.783,13.15,11.403,7.419,21.709,10.341c6.095,1.728,9.366,4.509,15.215,5.167     c10.481,1.179,17.162-5.556,19.451-14.925c-20.315-0.064-24.094-3.04-30.491-6.145     C363.45,388.592,346.328,392.425,342.76,393.423z"/>
		</g>
		<g>
			<path fill="#524769" d="M239.984,414.565c1.486,3.256,4.041,5.474,4.691,8.652c-11.095,5.233-27.719,3.965-33.497-0.45     c2.146-3.291,4.354-6.602,5.887-9.975C220.564,405.094,237.199,408.463,239.984,414.565z"/>
		</g>
		<g>
			<path fill="#824211" d="M244.675,425.138c-3.27-3.597-7.474-5.755-16.235-8.176c-5.08,1.308-13.42,6.132-16.854,7.522     c2.616,5.233,12.344,14.771,18.56,14.471C236.932,438.629,242.763,431.517,244.675,425.138z"/>
		</g>
		<g>
			<path fill="#524769" d="M368.597,383.165c1.811,3.087,3.697,3.707,4.333,6.494c-14.215,0.164-16.085,10.943-34.014,2.719     c2.501-3.03,5.064-6.074,6.965-9.254C350.219,375.864,366.043,378.812,368.597,383.165z"/>
		</g>
		<g>
			<path fill="#CAD4B4" d="M217.882,375.837c-3.744,2.935-8.743,7.762-9.664,16.169c-0.669,6.105,6.557,12.12,8.847,20.787     c8.339-0.327,9.962-1.682,24.088,2.079c-0.65-3.178-0.495-6.794,2.565-10.909c2.753-3.701,10.629-4.824,1.962-22.566     C238.454,376.819,224.305,373.906,217.882,375.837z"/>
		</g>
		<g>
			<g>
				<path fill="#97A184" d="M211.672,382.355l37.88,13.344c0.076-0.624,0.102-1.305,0.06-2.059l-36.739-12.942      C212.458,381.219,212.057,381.772,211.672,382.355z"/>
			</g>
			<g>
				<path fill="#97A184" d="M211.436,401.275c9.152-0.61,25.588-1.677,37.091-2.42c0.183-0.315,0.349-0.652,0.493-1.015      c-21.203,1.368-32.314,2.098-38.142,2.49C211.059,400.643,211.246,400.958,211.436,401.275z"/>
			</g>
			<g>
				<path fill="#97A184" d="M240.942,410.419c-7.239-1.366-17.419-3.238-27.044-4.995c0.405,0.716,0.795,1.455,1.169,2.209      c8.693,1.589,18.689,3.431,25.782,4.764C240.828,411.754,240.854,411.095,240.942,410.419z"/>
			</g>
		</g>
		<g>
			<path fill="#CAD4B4" d="M356.47,351.277c-4.049,2.498-12.557,5.411-14.412,13.662c-1.347,5.992,3.98,8.86,5.286,17.728     c2.874,4.437,15.497,4.129,20.553,1.606c-0.291-3.231-1.869-10.499,5.025-19.123c2.88-3.603,1.718-10.712,1.165-12.264     C367.417,347.528,363.069,350.075,356.47,351.277z"/>
		</g>
		<g>
			<g>
				<path fill="#97A184" d="M374.591,360.931l-32.72,5.376c-0.044,0.687-0.002,1.339,0.112,1.969l32.089-5.272      C374.307,362.343,374.478,361.645,374.591,360.931z"/>
			</g>
			<g>
				<path fill="#97A184" d="M346.918,380.528l20.883,2.84c-0.066-0.586-0.14-1.256-0.194-2.007l-21.283-2.894      C346.544,379.113,346.742,379.802,346.918,380.528z"/>
			</g>
			<g>
				<path fill="#97A184" d="M344.372,374.015c0.15,0.292,0.3,0.589,0.451,0.895l26.147-6.993c0.253-0.407,0.512-0.816,0.802-1.23      L344.372,374.015z"/>
			</g>
		</g>
		<g>
			<path fill="#524769" d="M215.838,329.153c-6.463,5.066-11.038,18.396,2.453,43.414c-10.117,4.906,3.284,8.884,14.226,11.16     c9.906,2.06,21.094,3.924,15.698-2.085c8.585-1.226,14.717-13.736,19.132-30.415     C262.441,342.152,234.234,323.021,215.838,329.153z"/>
		</g>
		<g>
			<path fill="#453C5C" d="M262.037,366.924c2.002-4.516,3.762-9.848,5.31-15.696c-4.906-9.075-33.113-28.207-51.508-22.075     c-3.262,2.557-6.039,7.222-6.259,14.429C228.365,353.885,247.001,362.556,262.037,366.924z"/>
		</g>
		<g>
			<path fill="#524769" d="M371.352,348.566c17.512-26.708-25.289-30.878-32.436-26.96c-18.935-4.179-42.147,18.466-46.078,28.004     c6.132,16.127,41.035,10.782,49.701,11.105c-4.739,6.54,6.193,3.518,15.83,0.435     C369.014,357.744,381.926,352.389,371.352,348.566z"/>
		</g>
		<g>
			<path fill="#453C5C" d="M338.916,321.606c-18.935-4.179-42.147,18.466-46.078,28.004c1.847,4.858,6.313,7.759,11.879,9.462     c6.599-1.777,14.456-4.768,21.561-7.499c1.036,2.988,0.879,3.292,1.472,5.112c17.985-5.209,31.671-17.865,41.192-30.692     C359.586,319.796,343.111,319.306,338.916,321.606z"/>
		</g>
	</g>
	<g>
		<g>
			<path fill="#CAD4B4" d="M334.511,305.612c-0.144-6.43-0.24-12.929-0.637-20.169c-40.394,15.303-75.433,11.714-107.639-2.335     c-1.591,6.236-2.749,12.314-2.972,20.594c-5.595,4.385-15.095,15.992-19.957,21.443c15.711,16.348,49.813,33.597,75.926,39.329     c23.141-3.822,69.079-25.741,78.42-40.815C353.406,315.802,340.668,308.442,334.511,305.612z"/>
		</g>
		<g>
			<path fill="#6B5A4D" d="M280.179,364.308c-0.191-3.257-0.405-6.297-0.608-9.161c-1.003-14.235-1.728-24.52,2.304-36.57     l-2.792-0.935c-4.218,12.607-3.475,23.136-2.447,37.711c0.191,2.716,0.394,5.59,0.577,8.657c0.678,0.161,1.351,0.316,2.018,0.462     C279.543,364.421,279.859,364.366,280.179,364.308z"/>
		</g>
		<g>
			<g>
				<path fill="#6B5A4D" d="M284.033,351.307c-0.191,0-0.387-0.038-0.575-0.117l-11.857-5.046c-0.748-0.319-1.096-1.183-0.778-1.931      c0.318-0.747,1.177-1.097,1.931-0.778l11.857,5.046c0.748,0.318,1.096,1.183,0.778,1.931      C285.149,350.972,284.606,351.307,284.033,351.307z"/>
			</g>
		</g>
		<g>
			<g>
				<path fill="#6B5A4D" d="M272.558,352.907c-0.439,0-0.874-0.196-1.163-0.57c-0.499-0.641-0.383-1.567,0.26-2.064l10.178-7.901      c0.643-0.5,1.569-0.383,2.064,0.26c0.499,0.641,0.383,1.567-0.26,2.064l-10.178,7.901      C273.19,352.805,272.873,352.907,272.558,352.907z"/>
			</g>
		</g>
		<g>
			<path fill="#87B337" d="M342.902,302.908c-0.167-7.429-0.277-14.937-0.736-23.302c-46.667,17.68-87.148,13.533-124.356-2.698     c-1.838,7.205-3.176,14.227-3.434,23.792c-6.464,5.066-17.44,18.475-23.056,24.773c8.417,8.758,23.744,17.358,40.771,24.724     c9.054-18.101,13.469-30.365,19.601-34.383c5.612-0.927,49.061-6.794,55.188,2.055c8.66,12.509,17.278,24.331,22.596,36.851     c17.791-9.217,34.035-21.079,40.162-30.965C364.732,314.681,350.015,306.178,342.902,302.908z"/>
		</g>
		<g>
			<path fill="#578723" d="M217.784,308.728c-5.613,4.399-13.9,13.743-20.869,21.781c3.511,2.792,7.636,5.546,12.2,8.226     c4.333-8.548,10.652-17.805,18.609-24.688C221.483,302.5,218.113,296.558,217.784,308.728z"/>
		</g>
		<g>
			<path fill="#578723" d="M337.284,308.213c-0.328-12.17-3.699-6.228-9.941,5.319c9.623,8.324,16.849,20.118,21.065,29.934     c4.802-3.286,9.142-6.66,12.762-9.983C353.716,324.854,343.734,313.268,337.284,308.213z"/>
		</g>
		<g>
			<path fill="#6F9628" d="M332.168,353.3c-5.196-12.868-16.332-31.213-25.055-35.224c-0.207-9.205-0.346-18.506-0.892-28.816     c-0.08,0.012-0.16,0.024-0.241,0.037c-2.302,10.249-3.65,18.58-4.221,25.488c2.394,0.734,4.188,1.74,5.12,3.085     c8.66,12.509,17.278,24.331,22.596,36.851C330.378,354.254,331.275,353.78,332.168,353.3z"/>
		</g>
		<g>
			<path fill="#6F9628" d="M251.211,287.771c-0.139-0.03-0.278-0.059-0.418-0.089c-2.202,8.808-3.791,17.522-4.106,29.231     c-2.617,2.278-11.725,19.415-17.009,32.227c0.8,0.355,1.605,0.708,2.413,1.057c9.054-18.101,13.469-30.365,19.601-34.383     c0.609-0.101,1.664-0.259,3.067-0.451C254.086,308.289,252.812,299.425,251.211,287.771z"/>
		</g>
		<g>
			<path fill="#5C250B" d="M347.562,279.852c-46.667,17.68-97.633,14.75-134.842-1.482c-1.838,7.205-4.376,15.708-1.986,25.566     c26.502,21.047,82.736,37.971,138.393,2.185C351.257,296.04,350.015,287.946,347.562,279.852z"/>
		</g>
		<g>
			<path fill="#AAADBF" d="M312.885,299.94c-22.104,2.704-49.575,3.213-68.216-6.107c-2.821,11.038-1.9,22.641,0.49,32.499     c15.453,9.075,51.876,12.019,69.291-0.123C316.579,316.128,315.337,308.034,312.885,299.94z"/>
		</g>
		<g>
			<path fill="#5C250B" d="M298.648,297.499c-16.439,2.758-26.662,3.462-42.574-1.786c-2.821,11.037-3.755,18.765-1.365,28.623     c18.453,5.143,37.666,4.437,46.251-0.662C303.088,313.594,301.532,305.688,298.648,297.499z"/>
		</g>
		<g>
			<path fill="#BAC0CC" d="M308.809,309.714c-3.681,0.724-6.189,1.615-11.099,2.575c-2.821,0.552-2.705,5.752-0.123,6.193     c3.81,0.651,9.058,0.876,12.08,0.484C312.978,318.538,312.549,308.978,308.809,309.714z"/>
		</g>
		<g>
			<path fill="#87B337" d="M349.28,280.588c8.094-13.981-3.434-37.037-9.321-50.282c18.886-17.905-2.766-30.014-16.624-39.396     c-40.96-27.729-27.196-30.801-75.243-11.326c-16.989,6.886-50.64,0.932-35.024,45.653c-5.597,15.706-15.073,31.242-9.239,44.068     c10.445,22.961,46.646,38.345,76.241,38.345C304.396,307.65,340.547,295.671,349.28,280.588z"/>
		</g>
		<g>
			<path fill="#578723" d="M217.426,286.209c-4.599-18.71,6.968-38.294,17.163-55.904c-8.769-41.893,0.123-33.113-17.399-24.663     c0.53,5.595,2.059,12.231,4.819,20.134c-6.668,18.713-16.878,36.869-12.324,52.758     C211.924,281.247,214.529,283.812,217.426,286.209z"/>
		</g>
		<g>
			<path fill="#578723" d="M341.964,288.508c7.809-19.778,1.822-37.58-5.065-56.652c5.734-9.031,6.31-16.33,5.451-22.005     c-17.557-8.376-9.418-15.343-18.012,26.587c10.644,18.209,15.812,38.06,9.435,57.378     C336.815,292.15,339.578,290.373,341.964,288.508z"/>
		</g>
		<g>
			<path fill="#6F9628" d="M327.439,296.953c7.787-22.247-8.298-61.554-12.834-71.761c-10.286-18.512-52.798-32.456-73.026,1.738     c-8.943,21.95-21.576,45.159-16.848,64.593c15.758,10.116,36.839,16.127,55.339,16.127     C294.43,307.65,312.91,303.476,327.439,296.953z"/>
		</g>
		<g>
			<path fill="#CAD4B4" d="M321.617,299.363c0.007-0.01,0.014-0.02,0.021-0.031c12.893-19.137-4.721-62.266-9.376-72.74     c-4.723-19.404-43.098-19.914-68.521,1.631c-9.174,22.516-22.485,46.442-14.129,65.61c0.117,0.269,0.237,0.534,0.359,0.796     c15.007,8.227,33.582,13.019,50.1,13.019C292.572,307.65,308.196,304.486,321.617,299.363z"/>
		</g>
		<g>
			<path fill="#6B5A4D" d="M283.033,237.835c0,0-1.616-1.173-2.935-0.596c-8.616,21.242-16.116,45.839-9.132,69.951     c1.055,0.104,2.105,0.191,3.151,0.26C266.778,283.645,274.399,259.027,283.033,237.835z"/>
		</g>
		<g>
			<g>
				<path fill="#6B5A4D" d="M274.242,290.399c-0.355,0-0.711-0.127-0.992-0.386l-10.197-9.321c-0.6-0.548-0.642-1.48-0.094-2.079      c0.551-0.604,1.482-0.641,2.078-0.094l10.197,9.321c0.6,0.548,0.642,1.48,0.094,2.078      C275.037,290.238,274.639,290.399,274.242,290.399z"/>
			</g>
		</g>
		<g>
			<g>
				<path fill="#6B5A4D" d="M264.392,289.663c-0.478,0-0.947-0.233-1.23-0.662c-0.448-0.678-0.26-1.591,0.419-2.038l10.792-7.113      c0.677-0.448,1.59-0.262,2.038,0.418c0.448,0.678,0.26,1.592-0.419,2.038L265.2,289.42      C264.951,289.585,264.67,289.663,264.392,289.663z"/>
			</g>
		</g>
		<g>
			<g>
				<path fill="#6B5A4D" d="M277.307,267.812c-0.265,0-0.534-0.072-0.776-0.222l-11.178-6.95c-0.69-0.429-0.901-1.337-0.473-2.027      c0.43-0.688,1.336-0.901,2.027-0.473l11.178,6.95c0.69,0.429,0.901,1.337,0.473,2.027      C278.279,267.565,277.799,267.812,277.307,267.812z"/>
			</g>
		</g>
		<g>
			<g>
				<path fill="#6B5A4D" d="M265.904,267.588c-0.557,0-1.088-0.316-1.337-0.854c-0.341-0.738-0.02-1.612,0.719-1.954l11.364-5.254      c0.738-0.341,1.612-0.02,1.953,0.719c0.341,0.738,0.02,1.612-0.719,1.953l-11.364,5.254      C266.32,267.544,266.11,267.588,265.904,267.588z"/>
			</g>
		</g>
	</g>
	<g>
		<path fill="#0BC2F0" d="M283.287,163.993c1.33-14.359-72.615,8.132-83.185,17.314c-20.349,17.677,16.576,51.1,66.513,74.363    c61.01-8.79,72.676-49.621,123.633-50.724c37.773-0.818,23.056,9.026,106.778,24.969c-64.569-17.107-74.565-28.534-145.425-59.74    C325.486,158.674,291.759,160.346,283.287,163.993z"/>
	</g>
	<g>
		<g>
			<g>
				<path fill="#E85320" d="M340.998,222.484c9.926-10.848,17.967-23.353,23.495-37.518c-20.767-0.654-30.087-38.182-43.946-47.564      c-13.858-9.382-22.722-19.989-31.273-23.117c-10.056-3.679-26.981,4.906-43.97,11.792      c-16.989,6.886-22.256,39.431-46.048,45.726c0.569,1.943,1.374,4.441,2.458,7.378c3.364,0.267,7.003,0.185,11.622-1.328      c-2.417,1.669-8.993,3.025-10.867,3.324c0.485,1.254,1.017,2.574,1.598,3.954c2.973,0.53,4.909,0.461,7.321-0.193      c-1.527,1.704-3.571,3.103-5.958,3.33c6.014,13.433,16.361,31.425,33.215,48.304c1.639-3.401,3.034-5.889,6.039-11.223      c-1.472,9.014-1.368,15.723-0.299,16.69c8.759,7.933,19.064,15.47,31.153,21.988c4.17-1.461,8.275-3.057,12.3-4.788      c0.37-0.159,3.306-6.984,2.946-12.136c1.472,3.127,2.146,6.316,1.964,9.939c16.72-7.782,31.906-17.974,44.455-30.582      c-2.167-1.963-4.579-6.664-5.233-11.079C336.427,219.919,338.952,221.655,340.998,222.484z"/>
			</g>
			<g>
				<path fill="#BA3918" d="M235.138,149.835c-7.662,11.478-15.553,23.299-34.257,27.017c0.209,0.602,0.432,1.229,0.669,1.877      c19.256-3.891,27.355-16.024,35.219-27.806c7.206-10.796,14.012-20.994,29.235-23.424l-0.309-1.937      C249.626,128.128,242.589,138.672,235.138,149.835z"/>
			</g>
			<g>
				<path fill="#BA3918" d="M333.477,173.686c-5.937-12.037-11.543-23.407-27.141-28.04l-0.559,1.881      c14.777,4.39,20.199,15.386,25.94,27.027c5.317,10.784,10.769,21.84,23.661,28.828c0.345-0.567,0.686-1.138,1.023-1.712      C343.94,194.906,338.642,184.163,333.477,173.686z"/>
			</g>
			<g>
				<path fill="#BA3918" d="M289.032,180.411l-0.987,1.696c19.448,11.318,32.997,36.376,35.813,56.124      c0.59-0.458,1.177-0.92,1.759-1.387C322.353,216.75,308.601,191.8,289.032,180.411z"/>
			</g>
			<g>
				<path fill="#BA3918" d="M275.997,172.761c-25.571,4.138-36.692,12.855-53.744,44.565c0.422,0.583,0.851,1.166,1.287,1.751      c16.94-31.691,27.752-40.331,52.77-44.379L275.997,172.761z"/>
			</g>
			<g>
				<path fill="#BA3918" d="M278.197,181.723l-1.728-0.928c-9.442,17.562-17.481,47.332-17.503,72.949      c0.648,0.46,1.303,0.916,1.964,1.37C260.644,229.542,268.703,199.384,278.197,181.723z"/>
			</g>
			<g>
				<path fill="#BA3918" d="M287.38,259.436c5.69-23.923,2.903-55.706-7.959-76.439l-1.737,0.911      c10.891,20.787,13.521,52.867,7.463,76.464C285.893,260.065,286.638,259.753,287.38,259.436z"/>
			</g>
			<g>
				<path fill="#BA3918" d="M237.722,166.897c-5.519,10.934-11.2,22.187-26.653,32.727c0.768,1.407,1.577,2.839,2.428,4.292      c16.709-11.245,22.743-23.198,28.604-34.808c5.156-10.213,10.026-19.86,22.353-28.201l-2.748-4.064      C248.322,145.899,242.933,156.574,237.722,166.897z"/>
			</g>
			<g>
				<path fill="#BA3918" d="M320.686,187.827c-1.981-11.393-4.03-23.175-14.196-35.733l-3.813,3.087      c9.365,11.568,11.216,22.214,13.176,33.485c2.231,12.834,4.528,26.048,17.293,41.701c1.209-1.117,2.396-2.255,3.561-3.413      C324.949,212.347,322.786,199.91,320.686,187.827z"/>
			</g>
			<g>
				<path fill="#BA3918" d="M284.909,181.314l-3.813,3.087c15.221,18.799,22.514,45.22,22.598,67.075      c1.613-0.894,3.208-1.812,4.783-2.755C307.782,226.342,300.152,200.142,284.909,181.314z"/>
			</g>
			<g>
				<path fill="#BA3918" d="M272.327,176.89c-18.691,16.482-26.005,42.888-27.275,65.75c1.524,1.365,3.095,2.717,4.712,4.054      c0.558-22.578,7.167-49.689,25.807-66.126L272.327,176.89z"/>
			</g>
		</g>
		<g>
			<path fill="#04070D" d="M288.539,185.907c-8.234,1.962-21.863,0.368-22.688-2.453c3.434-3.834,9.455-10.376,15.085-9.919     C282.632,173.672,286.944,181.492,288.539,185.907z"/>
		</g>
		<g>
			<path fill="#F5AB6C" d="M285.636,184.149c-5.355,1.839-8.707,2.126-13.156,0.181c-4.15-1.814-6.549,3.408-8.388,5.461     c6.95,4.497,10.923,0.077,15.657,0.409c3.27,0.229,5.143,3.352,15.657,1.145C293.812,186.929,287.246,183.596,285.636,184.149z"/>
		</g>
		<g>
			<path fill="#F5AB6C" d="M247.7,125.568c-1.786,4.192-4.578,10.629-3.066,12.877c2.547,3.786,5.954,9.517,5.519,16.311     c21.258,6.868,49.571,22.88,57.763,8.953c1.588-2.7,4.354-6.071,10.24-11.099c1.769-1.511,1.472-7.604,1.042-16.699     C318.578,122.763,256.374,105.207,247.7,125.568z"/>
		</g>
		<g>
			<path fill="#E88D51" d="M319.198,135.911c-0.62-13.148-62.824-30.704-71.499-10.343c-0.936,2.196-2.147,5.008-2.871,7.511     c40.245-6.255,58.657,3.051,74.697,11.959C319.511,142.508,319.365,139.435,319.198,135.911z"/>
		</g>
		<g>
			<path fill="#F27C21" d="M330.495,193.793c-1.778-2.085-28.779-46.911-37.494-48.152c-26.981-3.843-28.439,22.619-19.132,31.927     c4.292,4.292,23.862,21.79,25.632,23.302c5.887,5.028,16.417,9.626,23.179,8.217c13.736-2.862,16.025-9.484,16.025-15.453     C334.862,197.312,332.273,195.878,330.495,193.793z"/>
		</g>
		<g>
			<path fill="#E3641B" d="M290.374,179.981c-0.952-8.732-1.852-16.979-8.673-24.455l-1.45,1.322     c6.389,7.004,7.255,14.942,8.173,23.346c0.435,3.986,0.895,8.196,1.976,12.56c0.935,0.84,1.84,1.653,2.694,2.418     C291.467,189.994,290.916,184.945,290.374,179.981z"/>
		</g>
		<g>
			<path fill="#E3641B" d="M336.953,195.025c-1.393,2.642-2.831,4.017-4.287,4.094c-4.089,0.185-9.461-9.191-15.118-19.153     c-9.217-16.229-20.679-36.429-35.938-32.744l0.461,1.907c13.807-3.325,24.879,16.151,33.77,31.807     c6.382,11.237,11.443,20.15,16.685,20.149c0.081,0,0.163-0.002,0.245-0.007c2.142-0.113,4.04-1.709,5.767-4.86     c0.12-0.867,0.167-1.733,0.167-2.585C338.089,194.222,337.506,194.68,336.953,195.025z"/>
		</g>
		<g>
			<path fill="#E3641B" d="M320.392,209.338c-6.182-3.71-9.993-12.981-14.612-25.41c-4.94-13.291-10.538-28.354-22.575-35.111     l-2.4,4.277c10.466,5.876,15.505,19.433,20.377,32.543c2.99,8.046,6.026,16.214,10.409,22.059     C314.635,208.771,317.7,209.406,320.392,209.338z"/>
		</g>
		<g>
			<path fill="#F27C21" d="M260.577,145.64c-8.715,1.241-35.716,46.067-37.494,48.152c-1.778,2.085-4.367,3.52-8.209-0.16     c0,5.968,2.289,12.591,16.025,15.453c6.762,1.409,17.292-3.189,23.179-8.217c1.769-1.511,21.339-19.009,25.632-23.302     C289.016,168.26,287.557,141.798,260.577,145.64z"/>
		</g>
		<g>
			<path fill="#E3641B" d="M263.981,180.022c-0.723,4.851-1.459,9.786-3.156,14.846c0.887-0.795,1.823-1.636,2.787-2.503     c1.137-4.185,1.739-8.223,2.309-12.054c1.253-8.41,2.438-16.352,8.85-23.381l-1.45-1.322     C266.507,163.077,265.28,171.307,263.981,180.022z"/>
		</g>
		<g>
			<path fill="#E3641B" d="M278.329,178.905c1.294-6.992,1.49-14.214,1.49-22.472h-1.963c0,9.207-0.247,17.098-2.044,24.832     C276.768,180.379,277.62,179.58,278.329,178.905z"/>
		</g>
		<g>
			<path fill="#E3641B" d="M236.029,179.966c-5.658,9.963-11.102,19.339-15.118,19.153c-1.455-0.078-2.893-1.453-4.287-4.095     c-0.553-0.345-1.136-0.803-1.751-1.391c0,0.853,0.047,1.72,0.167,2.587c1.726,3.15,3.624,4.745,5.766,4.859     c0.081,0.004,0.163,0.007,0.245,0.007c5.241,0,10.302-8.912,16.685-20.149c8.89-15.657,19.95-35.133,33.77-31.807l0.461-1.907     C256.714,143.541,245.246,163.737,236.029,179.966z"/>
		</g>
		<g>
			<path fill="#E3641B" d="M247.798,183.929c-4.618,12.425-8.425,21.697-14.604,25.41c2.691,0.067,5.752-0.568,8.793-1.643     c4.383-5.844,7.42-14.013,10.41-22.058c4.872-13.111,9.911-26.668,20.377-32.544l-2.4-4.277     C258.336,155.573,252.738,170.637,247.798,183.929z"/>
		</g>
		<g>
			<g>
				<path fill="#E05C58" d="M299.946,141.389c0.857-4.17,2.901-6.132-3.803-21.912c-1.914-4.505-8.912-10.956-19.868,2.126      c-4.141,4.944-6.377,4.415-6.459,12.509c-4.906-8.503-12.398,6.74-10.465,8.639c12.264,12.046,11.177,13.962,12.821,16.721      c1.697,2.847,15.266,9.329,19.555,4.564c2.096-2.328,5.069-6.868,12.918-9.484C306.853,153.816,307.507,141.389,299.946,141.389      z"/>
			</g>
			<g>
				<path fill="#C9354A" d="M269.816,134.112c-4.906-8.503-12.398,6.74-10.465,8.639c12.264,12.046,11.177,13.962,12.821,16.721      c1.697,2.847,15.266,9.329,19.555,4.564c2.096-2.328,5.069-6.868,12.918-9.484c2.208-0.736,2.862-13.163-4.7-13.163      c5.541,2.251,5.333,9.462,2.074,11.778c-3.037,2.158-7.208,4.625-12.206,8.254c-3.652,2.651-13.659,1.095-15.134-3.685      c-0.854-2.768-5.19-8.524-10.586-13.499C260.284,140.725,263.751,132.84,269.816,134.112z"/>
			</g>
		</g>
	</g>
	<g>
		<path fill="#646678" d="M318.224,128.201c-1.019-0.153-4.075-0.648-5.743-0.912c2.456,18.827-0.649,18.344-14.439,14.481    c-6.73-1.885-20.191-3.345-26.23-4.729c-4.537-1.04-21.734-1.798-11.318-20.392c-2.662-0.823-4.862-1.639-6.405-2.427    c-2.933,7.333-6.898,13.622-7.757,21.409c2.632,4.824,18.93,10.662,35.117,6.439c10.705,6.913,32.17,12.087,37.362,5.519    C320.82,137.286,320.82,134.506,318.224,128.201z"/>
	</g>
	<g>
		<path fill="#4D5069" d="M300.243,142.379c-0.703-0.192-1.433-0.394-2.201-0.609c-6.73-1.885-20.191-3.345-26.23-4.729    c-0.686-0.157-1.663-0.309-2.788-0.516l-2.165,6.904c4.606,0.285,9.603-0.058,14.591-1.36c4.858,3.137,11.931,5.911,18.694,7.397    L300.243,142.379z"/>
	</g>
	<g>
		<path fill="#4D5069" d="M250.805,121.652c-1.176,2.583-2.289,5.146-3.133,7.818l9.754-0.706c-0.434-1.911-0.266-4.298,0.821-7.308    L250.805,121.652z"/>
	</g>
	<g>
		<path fill="#4D5069" d="M313.226,137.408l6.755,3.282c0.399-3.189,0.353-5.46-0.189-7.813l-7.095-3.86    C313.114,132.518,313.301,135.267,313.226,137.408z"/>
	</g>
	<g>
		<path fill="#9295A8" d="M298.263,149.768c0-12.392-1.607-20.966-1.825-27.795c-9.648-1.45-7.501,1.416-18.189-4.039    c-2.933,7.333-6.727,20.376-9.489,28.591c2.632,4.824,6.38,10.638,12.516,12.784C286.857,159.57,293.07,156.336,298.263,149.768z"/>
	</g>
	<g>
		<path fill="#B0AFBF" d="M281.275,159.308c5.582,0.261,11.795-2.973,16.988-9.541c0-10.476-1.146-18.217-1.633-24.488    c-2.005,9.674-1.156,18.474-0.608,23.972c-2.719,3.159-7.26,6.254-14.029,7.282c-7.336-2.096-8.476-4.859-13.233-10.01l0,0    C271.391,151.349,275.139,157.163,281.275,159.308z"/>
	</g>
	<g>
		<g>
			<path fill="#F5E5D8" d="M250.16,98.185c2.107,1.485,5.129-5.625,7.986-7.847c3.546-3.704,9.84-8.458,7.184-9.65     c-23.123-10.375-9.723-19.559-13.824-22.201c-6.258-4.032-17.766,9.131-16.498,19.801     C235.952,86.236,242.151,92.541,250.16,98.185z"/>
		</g>
		<g>
			<path fill="#A9ADB9" d="M265.541,78.813c-7.523-0.545-19.153,16.398-17.298,21.584c1.855,5.186,5.146,5.338,16.302-3.338     C277.141,83.901,271.863,79.271,265.541,78.813z"/>
		</g>
	</g>
	<g>
		<g>
			<path fill="#F5E5D8" d="M327.824,72.919c-4.15,1.389,5.465,12.341-16.935,16.238c-2.574,0.448,1.845,5.975,4.107,9.98     c1.991,2.564,3.044,9.414,5.204,8.59c8.212-3.132,14.998-7.241,17.58-13.941C341.246,84.791,334.157,70.799,327.824,72.919z"/>
		</g>
		<g>
			<path fill="#A9ADB9" d="M311.12,87.481c-5.597-1.002-11.211,1.853-3.175,16.082c7.777,10.013,10.672,10.61,13.433,6.512     C324.138,105.978,317.781,88.674,311.12,87.481z"/>
		</g>
	</g>
	<g>
		<path fill="#686B7D" d="M288.499,73.729c-10.301-0.855-30.551,8.37-42.196,37.527c37.443-6.055,63.664,3.478,73.302,4.992    C319.101,99.412,298.8,74.584,288.499,73.729z"/>
	</g>
	<g>
		<path fill="#9295A8" d="M289.782,71.875c-6.497,0.204-14.83,3.828-17.575,5.094c2.152,4.257,8.529,18.038,0.715,30.42    c11.832-1.994,16.361,0.401,25.999,1.915c1.128-16.185,2.988-22.719,6.257-25.134C300.787,77.857,295.185,73.302,289.782,71.875z"/>
	</g>
	<g>
		<path fill="#B0AFBF" d="M289.782,71.875c-6.497,0.204-14.83,3.828-17.575,5.094c0.056,0.111,0.115,0.228,0.176,0.352    c5.8-1.886,12.951-3.668,18.22-3.527c6.148,3.013,9.805,7.609,12.283,10.194c-2.545,5.947-4.741,13.417-4.525,25.226    c0.185,0.03,0.372,0.06,0.561,0.09c1.128-16.185,2.988-22.719,6.257-25.134C300.787,77.857,295.185,73.302,289.782,71.875z"/>
	</g>
	<g>
		<path fill="#A9ADB9" d="M319.605,116.249c-3.435-2.232-13.608-8.695-33.376-10.804c-16.281-1.737-27.553-0.343-39.225,3.162    c-4.951,1.487-8.018,19.568-5.332,19.214c17.209-2.265,29.222-2.34,43.329-0.103c18.173,2.881,25.675,5.988,35.313,7.502    C322.614,135.581,323.144,118.548,319.605,116.249z"/>
	</g>
	<g>
		<path fill="#B7BBC7" d="M301.796,131c6.964,1.631,11.944,3.103,17.498,4.053l-4.125-21.434c-3.003-1.595-7.258-3.5-12.957-5.133    L301.796,131z"/>
	</g>
	<g>
		<path fill="#BEC8CF" d="M320.828,117.933c0.002,0.001,0.004,0.003,0.007,0.004c-0.338-0.783-0.745-1.374-1.229-1.688    c-3.435-2.232-13.608-8.695-33.376-10.804c-16.281-1.737-27.553-0.343-39.225,3.162c-0.528,0.159-1.034,0.506-1.515,1    C269.714,104.742,295.467,103.309,320.828,117.933z"/>
	</g>
	<g>
		<path fill="#A9ADB9" d="M295.631,83.421c0.076,1.727-2.207,3.231-5.1,3.358c-2.893,0.128-5.299-1.169-5.376-2.896    s2.207-3.231,5.1-3.358C293.148,80.397,295.555,81.694,295.631,83.421z"/>
	</g>
	<g>
		<path fill="#A9ADB9" d="M291.256,100.279c-0.268,0.884-1.685,1.238-3.166,0.789c-1.481-0.448-2.464-1.529-2.197-2.413    c0.268-0.884,1.685-1.238,3.166-0.789C290.54,98.315,291.523,99.395,291.256,100.279z"/>
	</g>
	<g>
		<g>
			<path fill="#E8BE38" d="M118.575,423.56l4.087-17.429c0,0-5.525-3.514,1.865-8.103c4.375-2.717,17.364-1.398,21.677,1.4     c5.958,3.865,0.383,7.512,0.383,7.512l3.713,15.051c0,0-0.226,8.994-15.077,10.773     C124.579,434.039,118.886,428.707,118.575,423.56z"/>
		</g>
		<g>
			<path fill="#D18B2A" d="M135.224,432.764c-6.22,0.745-10.749-0.766-13.501-3.177c-0.002-0.003-0.004-0.007-0.007-0.01     c34.925,5.051,21.324-16.285,16.299-22.685c-0.018,0-0.036-0.002-0.055-0.002c-4.073-0.056-8.143,0.085-12.094,0.603     c-1.231,0.156-2.473,0.367-3.676,0.646l0.471-2.009c0,0-1.055-0.671-1.626-1.809c1.496-0.26,2.985-0.409,4.447-0.536     c4.252-0.299,8.446-0.186,12.603,0.117c0.781,0.059,1.556,0.149,2.335,0.219c4.521-2.245,1.515-5.44-0.066-6.764     c2.427,0.505,4.539,1.219,5.849,2.069c5.958,3.865,0.383,7.512,0.383,7.512l3.713,15.051     C150.301,421.991,150.075,430.985,135.224,432.764z"/>
		</g>
		<g>
			<path fill="#FAD55F" d="M125.772,427.138c2.625-0.413,4.556-2,4.313-3.545c-0.243-1.545-2.568-2.462-5.193-2.049     c-2.625,0.413-4.556,2-4.313,3.545C120.821,426.634,123.146,427.551,125.772,427.138z"/>
		</g>
	</g>
	<g>
		<path fill="#AB3316" d="M254.795,119.705c3.311-2.367,6.261-3.207,11.212-3.035c4.287,0.149,13.887,4.009,15.129,6.161    c2.066,3.58-8.662,10.445-10.547,8.655C267.261,128.327,256.959,120.652,254.795,119.705z"/>
	</g>
	<g>
		<path fill="#AB3316" d="M316.549,127.919c-2.637-3.1-5.295-4.632-10.139-5.668c-4.195-0.897-14.445,0.516-16.172,2.301    c-2.874,2.971,5.865,12.236,8.129,10.958C302.362,133.255,314.22,128.312,316.549,127.919z"/>
	</g>
</g>
</svg>
