<?xml version="1.0" encoding="UTF-8"?>
<svg xmlns="http://www.w3.org/2000/svg" xmlns:xlink="http://www.w3.org/1999/xlink" version="1.1" id="character" x="0px" y="0px" viewBox="0 0 512 512" xml:space="preserve" width="512" height="512">
<g>
	<g id="square_30_">
		<polygon fill="none" points="327.484,353.732 112.684,326.612 115.094,143.952 376.855,109.813   "/>
	</g>
	<g id="shadow_49_">
		<ellipse fill="none" cx="211.021" cy="421.194" rx="117.861" ry="28.408"/>
	</g>
	<g>
		<g>
			<polygon fill="#B4C1D4" points="53.685,119.338 37.699,123.968 33.318,126.347 35.996,162.514 38.431,195.399 100.252,196.067      100.419,188.338 95.089,186.522 100.527,183.322 100.614,179.313 98.338,175.898 100.749,173.043 102.359,98.433 82.441,101.859         "/>
		</g>
		<g>
			<g>
				<polygon fill="#CCDBE8" points="37.699,123.968 33.318,126.347 35.996,162.514 38.431,195.399 44.395,195.463 38.382,123.77           "/>
			</g>
			<g>
				<polygon fill="#CCDBE8" points="91.783,195.975 100.252,196.067 100.419,188.338 95.089,186.522 100.527,183.322       100.614,179.313 98.338,175.898 100.749,173.043 102.359,98.433 97.32,99.3     "/>
			</g>
		</g>
		<g>
			<polygon fill="#919CB0" points="82.441,101.859 53.685,119.338 55.776,195.586 82.219,195.872    "/>
		</g>
		<g>
			<g>
				<defs>
					<path id="SVGID_1_" d="M110.134,194.654c-4.174-0.436-70.524-3.423-85.069-3.58c-7.404-0.08-5.369,22.97,6.271,23.095       c11.64,0.126,70.578-1.786,76.264-1.967C113.286,212.021,114.308,195.09,110.134,194.654z"/>
				</defs>
				<clipPath id="SVGID_2_">
					<use xlink:href="#SVGID_1_" overflow="visible"/>
				</clipPath>
				<polygon clip-path="url(#SVGID_2_)" fill="#7A7D8C" points="20.803,190.994 20.551,214.295 17.661,214.295 17.661,190.994           "/>
				<polygon clip-path="url(#SVGID_2_)" fill="#7A7D8C" points="33.945,190.994 33.693,214.295 20.551,214.295 20.803,190.994           "/>
				<polygon clip-path="url(#SVGID_2_)" fill="#797C8D" points="47.087,190.994 46.835,214.295 33.693,214.295 33.945,190.994           "/>
				<polygon clip-path="url(#SVGID_2_)" fill="#787B8D" points="60.228,190.994 59.977,214.295 46.835,214.295 47.087,190.994           "/>
				<polygon clip-path="url(#SVGID_2_)" fill="#777A8E" points="73.37,190.994 73.119,214.295 59.977,214.295 60.228,190.994           "/>
				<polygon clip-path="url(#SVGID_2_)" fill="#75788E" points="86.512,190.994 86.26,214.295 73.119,214.295 73.37,190.994     "/>
				<polygon clip-path="url(#SVGID_2_)" fill="#74778F" points="99.654,190.994 99.402,214.295 86.26,214.295 86.512,190.994           "/>
				<polygon clip-path="url(#SVGID_2_)" fill="#73768F" points="112.796,190.994 112.544,214.295 99.402,214.295 99.654,190.994           "/>
				<polygon clip-path="url(#SVGID_2_)" fill="#73768F" points="112.544,214.295 112.796,190.994 114.308,190.994 114.308,214.295           "/>
			</g>
		</g>
	</g>
	<g>
		<path fill="#F5AB6C" d="M136.025,213.831c-12.707,2.675-20.551,17.629-20.551,17.629l-3.525,16.494    c0,0-19.376,23.231,15.08,24.564c34.456,1.332,83.992-54.172,83.992-54.172l-56.605-41.88    C154.416,176.464,130.34,191.427,136.025,213.831z"/>
	</g>
	<g>
		<path fill="#E88D51" d="M139.427,192.028c1.294,2.717,2.876,5.644,4.798,8.81c-0.054,6.276,1.13,12.935,4.204,19.743    c-14.79,22.257-13.909,33.041-7.89,47.838c0.263,0.646,0.474,1.296,0.645,1.947c32.416-10.097,69.837-52.021,69.837-52.021    l-56.605-41.88C154.416,176.464,145.101,182.258,139.427,192.028z"/>
	</g>
	<g>
		<path fill="#CAD4B4" d="M120.913,219.668c24.58,7.812,20.565,46.343,21.881,54.296c11.722,15.142,29.119,8.936,32.492-10.57    C180.613,232.594,127.603,201.932,120.913,219.668z"/>
	</g>
	<g>
		<path fill="#ADAC87" d="M149.447,221.275c-3.344,4.817-7.576,9.646-12.387,13.85c6.36,14.359,4.851,33.496,5.735,38.839    c11.722,15.142,29.119,8.936,32.492-10.57C178.158,246.794,164.083,230.239,149.447,221.275z"/>
	</g>
	<g>
		<path fill="#824211" d="M129.633,220.672c-12.767-4.745-19.16,8.397-33.022-1.547c-9.778-7.014-38.396,20.387-12.891,37.156    c26.151,17.194,46.474,24.576,70.317,16.129C166.301,260.083,152.887,229.314,129.633,220.672z"/>
	</g>
	<g>
		<path fill="#6B290D" d="M135.968,275.886c5.895-0.16,11.863-1.277,18.07-3.476c12.263-12.327-1.151-43.096-24.405-51.738    c-12.767-4.745-19.16,8.397-33.022-1.547c-6.938-4.977-23.356,7.374-23.199,20.959c4.994,7.355,12.181,14.68,22.125,21.217    c10.14-3.72,9.997-14.344,7.866-21.973c1.892-2.375,3.755-5.505,4.992-11.614c3.731-3.045,10.955-5.096,21.987-2.852    c3.15,1.535,6.945,4.66,10.556,8.684C130.812,250.876,127.709,265.579,135.968,275.886z"/>
	</g>
	<g>
		<g>
			<path fill="#824211" d="M149.563,393.819c-6.855,2.424-11.035,5.016-31.683,2.759c1.254,9.781,7.273,17.388,18.057,17.388     c6.019,0,9.66-2.452,16.051-3.511c10.805-1.79,25.58,5.768,23.24-8.025C171.716,401.008,154.757,395.156,149.563,393.819z"/>
		</g>
		<g>
			<path fill="#524769" d="M263.705,415.772c-1.519,3.329-4.132,5.597-4.797,8.846c11.344,5.35,28.342,4.054,34.25-0.46     c-2.194-3.365-4.452-6.75-6.019-10.199C283.561,406.089,266.552,409.533,263.705,415.772z"/>
		</g>
		<g>
			<path fill="#824211" d="M275.507,418.224c-8.957,2.476-13.256,4.681-16.599,8.36c1.955,6.522,7.917,13.794,14.855,14.128     c6.355,0.306,16.301-9.446,18.976-14.797C289.229,424.493,280.702,419.561,275.507,418.224z"/>
		</g>
		<g>
			<path fill="#524769" d="M150.148,389.054c-2.193,2.929-4.18,3.344-5.145,6.103c14.424,1.791,15.093,12.957,34.25,6.65     c-2.194-3.365-4.452-6.75-6.019-10.199C169.656,383.736,153.241,384.922,150.148,389.054z"/>
		</g>
		<g>
			<path fill="#CAD4B4" d="M296.184,392.707c-0.942-8.595-6.053-13.531-9.881-16.532c-6.567-1.975-21.034,1.003-28.423,5.684     c-8.861,18.14-0.808,19.289,2.006,23.073c3.129,4.207,3.288,7.905,2.623,11.154c14.444-3.845,16.103-2.46,24.629-2.126     C289.479,405.099,296.868,398.949,296.184,392.707z"/>
		</g>
		<g>
			<path fill="#97A184" d="M291.425,381.145l-37.564,13.233c-0.043,0.771-0.017,1.467,0.061,2.105l38.731-13.644     C292.259,382.243,291.849,381.677,291.425,381.145z"/>
		</g>
		<g>
			<path fill="#97A184" d="M254.97,399.71c11.761,0.759,28.567,1.85,37.924,2.474c0.194-0.325,0.385-0.647,0.57-0.966     c-5.959-0.401-17.319-1.147-38.999-2.546C254.613,399.044,254.783,399.388,254.97,399.71z"/>
		</g>
		<g>
			<path fill="#97A184" d="M262.82,413.556c7.252-1.363,17.473-3.246,26.362-4.871c0.382-0.771,0.781-1.526,1.195-2.259     c-9.841,1.796-20.25,3.71-27.651,5.107C262.815,412.224,262.842,412.898,262.82,413.556z"/>
		</g>
		<g>
			<path fill="#CAD4B4" d="M159.345,357.622c-6.817-0.752-13.984-1.333-20.401,4.611c-0.452,1.623-1.206,4.561,1.99,8.029     c7.65,8.3,9.19,18.518,9.125,21.834c5.338,2.211,18.234,1.618,20.847-3.114c0.696-9.139,5.923-12.446,4.119-18.461     C172.541,362.24,163.654,359.879,159.345,357.622z"/>
		</g>
		<g>
			<g>
				<path fill="#97A184" d="M140.934,370.262c0.153,0.166,0.288,0.337,0.436,0.504l33.971,3.154c0.071-0.651,0.066-1.32-0.028-2.017      l-35.65-3.309C139.995,369.133,140.407,369.69,140.934,370.262z"/>
			</g>
			<g>
				<path fill="#97A184" d="M150.038,391.178l21.149-4.407c0.127-0.753,0.279-1.47,0.458-2.144l-21.804,4.543      C149.946,389.933,150.01,390.608,150.038,391.178z"/>
			</g>
			<g>
				<path fill="#97A184" d="M173.316,379.945l-29.221-5.652c0.261,0.389,0.517,0.778,0.757,1.168l28.067,5.429      C173.052,380.567,173.184,380.253,173.316,379.945z"/>
			</g>
		</g>
		<g>
			<path fill="#524769" d="M285.885,372.831c13.793-25.581,9.117-39.21,2.508-44.39c-18.809-6.27-47.65,13.292-52.666,22.571     c4.514,17.054,10.784,29.844,19.562,31.098c-5.517,6.144,5.922,4.239,16.05,2.132     C282.527,381.914,296.229,377.847,285.885,372.831z"/>
		</g>
		<g>
			<path fill="#453C5C" d="M288.393,328.441c-18.809-6.27-47.65,13.292-52.666,22.571c1.254,4.737,2.644,9.143,4.185,13.067     c15.864-2.708,35.168-8.554,54.634-15.735C295.769,337.989,292.449,331.62,288.393,328.441z"/>
		</g>
		<g>
			<path fill="#524769" d="M194.114,347.039c-2.235-10.308-24.493-37.123-44.304-36.336c-7.789,3.136-16.074,14.925-9.944,43.334     c-8.809,1.475-5.77,11.005,15.768,13.98c10.248,1.416,24.327,3.671,19.06-1.345C180.337,367.174,185.032,362.163,194.114,347.039     z"/>
		</g>
		<g>
			<path fill="#453C5C" d="M149.81,310.704c-5.983,2.409-12.251,9.934-12.061,26.164c14.216,8.652,34.727,15.185,52.074,17.042     c1.323-2.017,2.739-4.285,4.291-6.871C191.879,336.731,169.621,309.916,149.81,310.704z"/>
		</g>
	</g>
	<g>
		<g>
			<path fill="#CAD4B4" d="M277.626,304.371c-0.148-6.575-0.245-13.22-0.651-20.622c-41.301,15.647-77.127,11.977-110.057-2.388     c-1.626,6.376-2.811,12.591-3.039,21.056c-5.72,4.483-15.434,16.351-20.405,21.925c16.064,16.715,50.932,34.352,77.632,40.213     c23.661-3.908,70.631-26.32,80.182-41.732C296.946,314.791,283.922,307.266,277.626,304.371z"/>
		</g>
		<g>
			<path fill="#6B5A4D" d="M222.074,364.387c-0.195-3.33-0.414-6.438-0.621-9.367c-1.026-14.555-1.767-25.071,2.355-37.391     l-2.854-0.956c-4.313,12.89-3.554,23.656-2.502,38.558c0.196,2.777,0.403,5.716,0.59,8.851c0.693,0.165,1.381,0.323,2.064,0.473     C221.424,364.502,221.747,364.446,222.074,364.387z"/>
		</g>
		<g>
			<g>
				<path fill="#6B5A4D" d="M226.015,351.094c-0.196,0-0.396-0.039-0.588-0.12l-12.123-5.16c-0.765-0.326-1.12-1.209-0.796-1.974      c0.326-0.764,1.204-1.121,1.974-0.796l12.123,5.16c0.765,0.326,1.12,1.209,0.796,1.974      C227.156,350.75,226.6,351.094,226.015,351.094z"/>
			</g>
		</g>
		<g>
			<g>
				<path fill="#6B5A4D" d="M214.282,352.729c-0.449,0-0.894-0.2-1.189-0.582c-0.51-0.656-0.391-1.602,0.266-2.111l10.407-8.078      c0.657-0.511,1.604-0.391,2.111,0.266c0.51,0.656,0.391,1.602-0.266,2.111l-10.407,8.079      C214.929,352.625,214.604,352.729,214.282,352.729z"/>
			</g>
		</g>
		<g>
			<path fill="#87B337" d="M286.207,301.607c-0.171-7.596-0.284-15.273-0.752-23.825c-47.716,18.077-89.105,13.837-127.15-2.759     c-1.879,7.367-3.247,14.547-3.511,24.327c-6.609,5.18-17.831,18.89-23.574,25.33c8.606,8.955,24.278,17.748,41.687,25.279     c9.257-18.508,13.772-31.047,20.041-35.155c5.738-0.948,50.164-6.947,56.428,2.101c8.855,12.79,17.666,24.877,23.104,37.679     c18.191-9.424,34.8-21.552,41.064-31.66C308.527,313.645,293.479,304.951,286.207,301.607z"/>
		</g>
		<g>
			<path fill="#578723" d="M158.278,307.558c-5.739,4.498-14.212,14.052-21.337,22.27c3.59,2.855,7.807,5.671,12.474,8.411     c4.43-8.74,10.891-18.205,19.027-25.242C162.06,301.19,158.613,295.114,158.278,307.558z"/>
		</g>
		<g>
			<path fill="#578723" d="M280.462,307.031c-0.336-12.444-3.782-6.368-10.164,5.439c9.839,8.511,17.228,20.57,21.538,30.606     c4.91-3.36,9.348-6.81,13.048-10.207C297.263,324.046,287.057,312.2,280.462,307.031z"/>
		</g>
		<g>
			<path fill="#6F9628" d="M275.231,353.131c-5.313-13.157-16.699-31.914-25.618-36.015c-0.212-9.412-0.353-18.922-0.912-29.463     c-0.082,0.013-0.164,0.025-0.246,0.037c-2.354,10.479-3.732,18.997-4.316,26.061c2.447,0.751,4.283,1.779,5.235,3.155     c8.855,12.79,17.666,24.877,23.104,37.679C273.4,354.106,274.318,353.622,275.231,353.131z"/>
		</g>
		<g>
			<path fill="#6F9628" d="M192.455,286.13c-0.142-0.03-0.285-0.061-0.427-0.091c-2.252,9.006-3.876,17.916-4.199,29.888     c-2.676,2.329-11.988,19.852-17.391,32.951c0.818,0.363,1.641,0.724,2.468,1.081c9.257-18.508,13.772-31.047,20.041-35.155     c0.623-0.103,1.701-0.265,3.136-0.461C195.395,307.109,194.092,298.046,192.455,286.13z"/>
		</g>
		<g>
			<path fill="#5C250B" d="M290.971,278.033c-47.716,18.077-99.827,15.081-137.871-1.515c-1.879,7.367-4.475,16.061-2.031,26.14     c27.098,21.52,84.595,38.824,141.502,2.234C294.748,294.585,293.479,286.309,290.971,278.033z"/>
		</g>
		<g>
			<path fill="#AAADBF" d="M255.515,298.572c-22.601,2.764-50.689,3.285-69.749-6.245c-2.884,11.286-1.943,23.15,0.502,33.229     c15.8,9.279,53.042,12.289,70.848-0.125C259.292,315.124,258.022,306.848,255.515,298.572z"/>
		</g>
		<g>
			<path fill="#5C250B" d="M240.958,296.076c-16.809,2.82-27.261,3.54-43.531-1.826c-2.884,11.285-3.84,19.187-1.396,29.266     c18.867,5.259,38.512,4.537,47.29-0.677C245.498,312.533,243.907,304.449,240.958,296.076z"/>
		</g>
		<g>
			<path fill="#BAC0CC" d="M251.347,308.566c-3.763,0.74-6.328,1.651-11.348,2.633c-2.884,0.564-2.765,5.881-0.125,6.332     c3.895,0.665,9.262,0.896,12.351,0.495C255.61,317.588,255.171,307.814,251.347,308.566z"/>
		</g>
		<g>
			<path fill="#87B337" d="M292.727,278.785c8.276-14.295-3.511-37.869-9.53-51.412c19.311-18.308-2.828-30.688-16.997-40.281     c-41.88-28.352-27.807-31.493-76.933-11.58c-17.371,7.041-51.778,0.952-35.811,46.678c-5.722,16.059-15.412,31.944-9.447,45.058     c10.679,23.477,47.694,39.207,77.954,39.207C246.836,306.455,283.798,294.208,292.727,278.785z"/>
		</g>
		<g>
			<path fill="#578723" d="M157.911,284.533c-4.702-19.13,7.124-39.154,17.548-57.159c-8.966-42.834,0.125-33.856-17.79-25.217     c0.542,5.72,2.105,12.506,4.927,20.586c-6.818,19.133-17.257,37.697-12.6,53.943C152.286,279.46,154.949,282.082,157.911,284.533     z"/>
		</g>
		<g>
			<path fill="#578723" d="M285.247,286.883c7.985-20.222,1.862-38.425-5.178-57.925c5.863-9.234,6.452-16.697,5.573-22.499     c-17.951-8.564-9.63-15.687-18.417,27.184c10.883,18.618,16.168,38.915,9.647,58.667     C279.982,290.607,282.808,288.79,285.247,286.883z"/>
		</g>
		<g>
			<path fill="#6F9628" d="M270.396,295.518c7.962-22.747-8.484-62.937-13.123-73.373c-10.517-18.928-53.984-33.185-74.666,1.777     c-9.144,22.444-22.061,46.173-17.227,66.044c16.112,10.343,37.667,16.49,56.583,16.49     C236.645,306.455,255.541,302.187,270.396,295.518z"/>
		</g>
		<g>
			<path fill="#CAD4B4" d="M264.443,297.983c0.007-0.01,0.014-0.021,0.021-0.031c13.183-19.567-4.827-63.664-9.587-74.374     c-4.83-19.84-44.066-20.361-70.061,1.667c-9.38,23.022-22.99,47.486-14.446,67.084c0.12,0.275,0.242,0.546,0.367,0.814     c15.344,8.412,34.337,13.312,51.226,13.312C234.745,306.455,250.72,303.221,264.443,297.983z"/>
		</g>
		<g>
			<path fill="#6B5A4D" d="M224.992,235.072c0,0-1.652-1.2-3.001-0.609c-8.809,21.719-16.478,46.869-9.337,71.522     c1.078,0.106,2.153,0.195,3.222,0.266C208.372,281.912,216.164,256.74,224.992,235.072z"/>
		</g>
		<g>
			<g>
				<path fill="#6B5A4D" d="M216.003,288.817c-0.363,0-0.727-0.13-1.015-0.395l-10.426-9.53c-0.614-0.56-0.657-1.513-0.096-2.125      c0.564-0.618,1.515-0.656,2.125-0.096l10.426,9.53c0.614,0.56,0.657,1.513,0.096,2.125      C216.817,288.652,216.41,288.817,216.003,288.817z"/>
			</g>
		</g>
		<g>
			<g>
				<path fill="#6B5A4D" d="M205.932,288.064c-0.489,0-0.968-0.238-1.257-0.677c-0.458-0.694-0.266-1.627,0.428-2.084l11.034-7.273      c0.692-0.458,1.626-0.268,2.084,0.428c0.458,0.694,0.266,1.627-0.428,2.084l-11.034,7.273      C206.504,287.984,206.217,288.064,205.932,288.064z"/>
			</g>
		</g>
		<g>
			<g>
				<path fill="#6B5A4D" d="M219.138,265.722c-0.271,0-0.546-0.073-0.794-0.227l-11.43-7.106c-0.706-0.439-0.921-1.367-0.483-2.073      c0.44-0.704,1.366-0.921,2.073-0.483l11.43,7.106c0.706,0.439,0.921,1.367,0.484,2.073      C220.132,265.47,219.64,265.722,219.138,265.722z"/>
			</g>
		</g>
		<g>
			<g>
				<path fill="#6B5A4D" d="M207.478,265.493c-0.569,0-1.113-0.323-1.367-0.874c-0.349-0.755-0.02-1.648,0.735-1.997l11.62-5.372      c0.755-0.349,1.648-0.02,1.997,0.735c0.349,0.755,0.02,1.648-0.735,1.997l-11.62,5.372      C207.904,265.449,207.689,265.493,207.478,265.493z"/>
			</g>
		</g>
	</g>
	<g>
		<g>
			<path fill="#E85320" d="M169.161,223.833c-10.846-10.411-19.879-22.637-26.458-36.723c21.146-2.043,28.169-40.951,41.687-51.441     c13.518-10.491,21.859-21.9,30.377-25.659c10.017-4.42,27.854,3.218,45.644,9.118c17.79,5.9,25.32,38.757,50.012,43.605     c-0.452,2.021-1.107,4.622-2.02,7.691c-3.415,0.495-7.133,0.653-11.946-0.585c2.576,1.543,9.377,2.491,11.308,2.672     c-0.412,1.311-0.867,2.694-1.369,4.14c-2.999,0.737-4.978,0.795-7.483,0.288c1.671,1.638,3.849,2.929,6.3,3.003     c-5.246,14.105-14.612,33.147-30.689,51.486c-1.898-3.362-3.486-5.807-6.905-11.051c2.099,9.1,2.437,15.952,1.411,17.01     c-8.412,8.675-18.427,17.047-30.329,24.498c-4.352-1.215-8.645-2.571-12.867-4.071c-0.388-0.138-3.836-6.907-3.81-12.187     c-1.294,3.288-1.771,6.586-1.346,10.271c-17.575-6.832-33.745-16.225-47.384-28.259c2.081-2.146,4.23-7.103,4.605-11.651     C173.655,220.913,171.193,222.852,169.161,223.833z"/>
		</g>
		<g>
			<path fill="#BA3918" d="M272.359,142.695c8.578,11.204,17.412,22.742,36.743,25.297c-0.174,0.629-0.36,1.282-0.558,1.96     c-19.905-2.694-28.972-14.537-37.777-26.037c-8.068-10.538-15.688-20.492-31.381-21.963l0.187-1.997     C256.138,121.507,264.017,131.798,272.359,142.695z"/>
		</g>
		<g>
			<path fill="#BA3918" d="M173.602,173.545c5.26-12.675,10.227-24.647,25.835-30.408l0.695,1.882     c-14.786,5.458-19.59,17.036-24.677,29.295c-4.711,11.355-9.541,22.997-22.232,30.981c-0.39-0.556-0.776-1.116-1.157-1.679     C164.331,195.889,169.026,184.577,173.602,173.545z"/>
		</g>
		<g>
			<path fill="#BA3918" d="M219.395,177.462l1.12,1.665c-19.094,12.837-31.257,39.301-32.823,59.637     c-0.633-0.428-1.261-0.861-1.887-1.298C187.805,216.747,200.183,190.379,219.395,177.462z"/>
		</g>
		<g>
			<path fill="#BA3918" d="M232.188,168.793c26.365,2.528,38.289,10.686,57.788,41.91c-0.392,0.622-0.791,1.246-1.197,1.872     c-19.383-31.212-30.988-39.311-56.782-41.785L232.188,168.793z"/>
		</g>
		<g>
			<path fill="#BA3918" d="M230.537,178.083l1.702-1.062c10.797,17.294,20.972,47.136,22.691,73.272     c-0.631,0.512-1.268,1.021-1.913,1.528C251.615,225.711,241.394,195.474,230.537,178.083z"/>
		</g>
		<g>
			<path fill="#BA3918" d="M226.316,257.983c-7.391-24.033-6.653-56.646,3.057-78.519l1.833,0.814     c-9.735,21.931-10.293,54.837-2.549,78.512C227.875,258.526,227.094,258.257,226.316,257.983z"/>
		</g>
		<g>
			<path fill="#BA3918" d="M270.853,160.275c6.356,10.79,12.897,21.896,29.363,31.626c-0.691,1.486-1.421,3.001-2.193,4.54     c-17.794-10.366-24.742-22.163-31.491-33.62c-5.937-10.079-11.546-19.599-24.675-27.293l2.535-4.328     C258.646,139.552,264.851,150.087,270.853,160.275z"/>
		</g>
		<g>
			<path fill="#BA3918" d="M187.589,187.126c1.266-11.755,2.576-23.912,12.117-37.399l4.095,2.897     c-8.789,12.423-9.973,23.408-11.226,35.039c-1.426,13.243-2.894,26.877-14.882,43.694c-1.307-1.06-2.594-2.142-3.86-3.246     C184.864,212.427,186.247,199.594,187.589,187.126z"/>
		</g>
		<g>
			<path fill="#BA3918" d="M223.662,178.111l4.096,2.897c-14.284,20.19-19.976,47.63-18.613,69.935     c-1.705-0.805-3.393-1.637-5.063-2.495C203.307,225.569,209.356,198.331,223.662,178.111z"/>
		</g>
		<g>
			<path fill="#BA3918" d="M236.206,172.763c20.163,15.578,29.374,42.037,32.185,65.279c-1.465,1.493-2.977,2.977-4.54,4.449     c-2.065-23-10.604-50.224-30.712-65.759L236.206,172.763z"/>
		</g>
	</g>
	<g>
		<path fill="#04070D" d="M216.703,156.772c-4.992,0.694-18.543,17.419-22.506,30.736c11.545,9.742,20.179,13.35,33.993,10.389    c20.842,5.013,30.968-2.907,33.113-21.112C250.506,166.037,233.261,154.47,216.703,156.772z"/>
	</g>
	<g>
		<path fill="#F7F7D9" d="M254.694,193.547c-1.774-2.868-4.303-5.742-7.802-8.278c-9.204-1.949-16.959-2.263-31.068-1.538    c-3.907,2.491-8.987,6.006-13.836,9.63c8.115,5.212,15.648,6.797,26.202,4.535C240.676,200.9,249.312,199.257,254.694,193.547z"/>
	</g>
	<g>
		<path fill="#F5AB6C" d="M261.465,179.327c-1.997-1.988-1.691-4.383-2.754,0.124c-3.309,14.039-11.152,19.639-29.476,16.046    c-5.425-1.064-16.507,5.087-32.413-7.218c-1.95-1.508-0.815-0.739-1.137,0.345c11.76,16.713,32.703,11.505,35.957,12.308    C251.717,205.885,262.283,193.598,261.465,179.327z"/>
	</g>
	<g>
		<g>
			<path fill="#824211" d="M44.695,250.134c1.37-1.186,3.94-2.798,5.587-5.579c-2.657-3.65-7.294-6.073-2.204-15.433     c-1.756-3.663-4.925-7.104-4.146-8.574c7.193-13.579,9.506-29.551,23.937-19.602c3.392-7.411,6.386-8.379,10.026-6.229     c5.188,18.397,36.726,13.929,22.302,43.152c1.062,4.948,6.255,19.487-7.684,24.929c-13.939,5.442-21.898,1.087-36.774,4.706     C42.277,270.778,40.915,257.853,44.695,250.134z"/>
		</g>
		<g>
			<path fill="#6B290D" d="M59.623,266.703c-3.882-1.746-1.831-3.054-2.591-7.2c10.636-10.963-0.848-19.704-3.7-16.279     c-2.694,3.188-6.434,6.741-8.636,6.911c1.37-1.186,3.94-2.798,5.587-5.579c4.246-5.536,6.663-4.78,9.421-2.119     c0.434-1.049,1.358-2.403,2.947-4.153c-0.303-0.332-0.604-0.685-0.903-1.058c15.006,9.194,21.786-1.696,20.801-10.998     c-6.594-0.394-13.889-0.79-22.85-7.384c-3.211,0.988-9.476,8.104-13.537,14.876c0.347-1.324,0.96-2.838,1.917-4.598     c-0.399-0.832-0.871-1.653-1.354-2.442c3.722-5.684,9.122-11.286,12.869-12.316c6.203,5.969,19.678,10.844,22.678,10.178     c1.976-1.183,1.594-4.475-0.746-7.742c-7.651-1.543-13.785-3.214-13.657-15.853c0.901,13.796,11.445,13.778,13.677,14.055     c3.576,3.519,4.122,7.078,2.537,10.359c1.586,8.112-2.399,14.521-7.666,16.819c-1.949,0.85-7.964,2.818-12.311,3.254     c1.572,0.679,1.292,2.298-1.148,20.81C61.882,266.359,60.772,266.508,59.623,266.703z"/>
		</g>
		<g>
			<path fill="#6B290D" d="M100.545,239.329c-3.383-3.124-10.054-6.645-19.007-4.33c6.451-3.374,13.955-2.7,19.651,0.751     c-0.303,0.686-0.633,1.391-0.991,2.117C100.289,238.289,100.409,238.78,100.545,239.329z"/>
		</g>
		<g>
			<path fill="#6B290D" d="M80.565,237.26l3.997,27.805c-2.323,0.418-4.521,0.607-6.688,0.695l-0.472-24.863L80.565,237.26z"/>
		</g>
		<g>
			<path fill="#5E1B0B" d="M60.588,243.329c1.397-1.395,2.4-2.071,3.366-3.702c9.572,7.692,16.229-0.077,16.229-0.077l1.155,58.135     L58.62,298.82l0.773-39.012C59.393,259.808,66.564,251.238,60.588,243.329z"/>
		</g>
		<g>
			<path fill="#401308" d="M59.308,264.09l0.085-4.282c0,0,7.171-8.569,1.195-16.479c1.397-1.395,2.4-2.071,3.366-3.702     c9.572,7.692,16.229-0.077,16.229-0.077l0.148,7.469c-2.502,0.8-10.183,3.002-11.968,0.506     C66.479,256.824,62.914,261.649,59.308,264.09z"/>
		</g>
		<g>
			<path fill="#E8BE38" d="M55.234,312.126l2.514-18.131c0,0-5.957-3.056,1.134-8.426c4.198-3.179,17.546-3.063,22.202-0.622     c6.431,3.372,1.1,7.612,1.1,7.612l5.202,14.973c0,0,0.619,9.178-14.332,12.391C62.337,322.227,56.037,317.337,55.234,312.126z"/>
		</g>
		<g>
			<path fill="#D18B2A" d="M73.054,319.924c-6.262,1.346-11.015,0.236-14.046-1.959c-0.002-0.003-0.005-0.006-0.008-0.009     c36.034,1.844,20.172-18.594,14.452-24.634c-0.019,0.001-0.037,0.002-0.056,0.003c-4.152,0.328-8.282,0.856-12.256,1.756     c-1.239,0.275-2.483,0.608-3.681,1.005l0.29-2.09c0,0-1.137-0.583-1.826-1.688c1.499-0.406,3-0.698,4.477-0.965     c4.301-0.706,8.581-0.987,12.843-1.071c0.801-0.014,1.598,0.005,2.398,0.002c4.391-2.713,1.028-5.682-0.706-6.88     c2.519,0.285,4.736,0.812,6.15,1.554c6.431,3.372,1.1,7.612,1.1,7.612l5.202,14.973C87.386,307.532,88.005,316.71,73.054,319.924     z"/>
		</g>
		<g>
			<path fill="#FAD55F" d="M62.899,315.089c2.634-0.669,4.45-2.467,4.056-4.016c-0.393-1.55-2.847-2.264-5.481-1.595     c-2.634,0.669-4.45,2.467-4.057,4.016C57.811,315.043,60.265,315.757,62.899,315.089z"/>
		</g>
	</g>
	<g>
		<path fill="#F5AB6C" d="M255.231,149.489c-0.648-6.931,2.664-12.89,5.153-16.835c1.479-2.343-1.567-8.838-3.518-13.069    c-9.474-20.551-72.523-0.751-72.765,12.705c-0.167,9.309-0.289,15.544,1.564,17.036c6.166,4.963,9.094,8.326,10.797,11.038    C205.251,174.353,233.71,157.143,255.231,149.489z"/>
	</g>
	<g>
		<path fill="#E88D51" d="M256.866,119.585c-9.474-20.551-72.523-0.751-72.765,12.705c-0.073,4.087-0.138,7.581-0.031,10.341    c17.066-10.424,41.085-21.431,73.608-21.276C257.398,120.737,257.122,120.14,256.866,119.585z"/>
	</g>
	<g>
		<g>
			<path fill="#F27C21" d="M213.829,146.942c-8.535-2.859-53.755,25.741-56.336,26.832s-5.604,1.216-7.431-3.908     c-2.735,5.455-3.677,12.558,7.566,21.467c5.535,4.386,17.267,5.009,24.951,3.111c2.31-0.571,28.215-7.597,34.106-9.553     C229.459,180.649,240.251,155.793,213.829,146.942z"/>
		</g>
		<g>
			<path fill="#E3641B" d="M217.269,161.227c-0.067,12.966-5.833,21.236-15.688,28.048c1.735-0.483,3.452-0.964,5.084-1.426     c7.876-6.603,12.55-14.78,12.61-26.612L217.269,161.227z"/>
		</g>
		<g>
			<path fill="#E3641B" d="M175.663,167.069c-9.736,6.513-18.931,12.664-22.596,10.579c-1.292-0.736-1.966-2.664-2.032-5.707     c-0.35-0.571-0.678-1.248-0.973-2.074c-0.386,0.769-0.733,1.572-1.018,2.408c0.132,3.677,1.122,6.031,3.03,7.117     c0.858,0.489,1.849,0.696,2.964,0.663c5.043-0.148,12.606-5.207,21.74-11.318c15.302-10.236,34.345-22.975,45.443-13.598     l1.295-1.533C211.264,143.253,191.524,156.459,175.663,167.069z"/>
		</g>
		<g>
			<path fill="#E3641B" d="M159.618,192.605c2.431,1.296,5.517,2.12,8.794,2.531c6.681-3.335,13.196-9.404,19.612-15.384     c10.461-9.751,21.279-19.833,33.538-20.408l-0.235-5.011c-14.098,0.661-26.118,11.865-36.723,21.749     C174.692,185.321,166.965,192.04,159.618,192.605z"/>
		</g>
	</g>
	<g>
		<g>
			<path fill="#F27C21" d="M292.031,158.924c-2.711-0.708-51.581-22.493-59.614-18.434c-24.871,12.566-10.609,35.607,2.641,37.965     c6.111,1.087,32.758,4.307,35.126,4.539c7.878,0.771,19.397-1.536,24.243-6.674c9.842-10.437,7.887-17.329,4.394-22.334     C297.752,159.32,294.742,159.631,292.031,158.924z"/>
		</g>
		<g>
			<path fill="#E3641B" d="M249.681,171.309c-6.188-6.546-12.032-12.729-22.118-15.005l-0.441,1.957     c9.488,2.141,15.129,8.108,21.101,14.426c2.722,2.88,5.601,5.912,9.006,8.757c1.313,0.163,2.588,0.32,3.793,0.467     C256.636,178.661,253.127,174.955,249.681,171.309z"/>
		</g>
		<g>
			<path fill="#E3641B" d="M237.579,178.857c1.095,0.163,2.379,0.346,3.803,0.541c-8.412-6.757-14.537-14.039-19.082-19.451     l-0.102-0.121l-1.537,1.29l0.102,0.122C224.903,166.167,230.331,172.622,237.579,178.857z"/>
		</g>
		<g>
			<path fill="#E3641B" d="M225.294,149.811c9.633-10.878,30.311-1.017,46.927,6.907c9.442,4.503,17.337,8.268,22.397,8.12     c1.431-0.042,2.636-0.397,3.585-1.137c1.731-1.35,2.372-3.821,1.973-7.478c-0.403-0.786-0.863-1.531-1.355-2.237     c-0.172,0.86-0.4,1.577-0.664,2.192c0.374,3.021-0.016,5.027-1.188,5.941c-3.328,2.59-13.312-2.17-23.885-7.212     c-17.225-8.214-38.66-18.436-49.293-6.427L225.294,149.811z"/>
		</g>
		<g>
			<path fill="#E3641B" d="M284.322,181.631c3.177-0.878,6.104-2.136,8.319-3.766c-7.351,0.499-15.966-5.036-27.106-12.75     c-11.918-8.254-25.428-17.604-39.473-16.23l0.49,4.992c12.216-1.203,24.372,7.22,36.128,15.362     C269.897,174.237,277.225,179.297,284.322,181.631z"/>
		</g>
	</g>
	<g>
		<g>
			<path fill="#E05C58" d="M203.69,138.306c-1-4.236-3.148-6.18,3.233-22.508c1.822-4.661,8.781-11.463,20.369,1.579     c4.379,4.929,6.65,4.322,6.975,12.592c4.76-8.837,12.873,6.519,10.954,8.517c-12.174,12.677-11.006,14.603-12.604,17.472     c-1.649,2.96-15.324,9.99-19.85,5.249c-2.212-2.317-5.386-6.868-13.486-9.307C197.002,151.214,195.962,138.532,203.69,138.306z"/>
		</g>
		<g>
			<path fill="#C9354A" d="M234.266,129.97c4.76-8.837,12.873,6.519,10.954,8.517c-12.174,12.677-11.006,14.603-12.604,17.472     c-1.649,2.96-15.324,9.99-19.85,5.249c-2.212-2.317-5.386-6.868-13.486-9.307c-2.278-0.686-3.318-13.368,4.41-13.594     c-5.596,2.466-5.168,9.829-1.768,12.099c3.168,2.115,7.505,4.512,12.722,8.071c3.812,2.6,13.993,0.711,15.358-4.218     c0.79-2.854,5.05-8.866,10.416-14.112C244.205,136.444,240.426,128.489,234.266,129.97z"/>
		</g>
	</g>
	<g>
		<g>
			<path fill="#F5E5D8" d="M237.541,63.524c-1.428,3.041-4.624,6.617-11.006,10.813c-2.488,1.636,4.64,5.41,8.822,8.572     c3.246,1.777,7.454,8.463,9.338,6.621c7.165-7,12.397-14.375,12.056-22.552C251.23,61.508,242.787,61.759,237.541,63.524z"/>
		</g>
		<g>
			<path fill="#A9ADB9" d="M226.015,72.48c-6.307,1.491-10.881,7.024,3.976,18.256c12.674,6.941,15.972,6.252,16.999,0.715     C248.018,85.914,233.521,70.705,226.015,72.48z"/>
		</g>
		<g>
			<path fill="#F5E5D8" d="M181.924,90.304c-23.245-0.288-15.322-12.908-19.738-13.634c-6.738-1.108-11.615,14.17-6.653,22.685     c3.697,6.344,11.216,9.386,20.015,11.211c2.315,0.48,2.262-6.606,3.855-9.518C181.034,96.636,184.595,90.337,181.924,90.304z"/>
		</g>
		<g>
			<path fill="#A9ADB9" d="M181.418,88.65c-6.529,2.288-10.129,20.791-6.676,24.477c3.454,3.687,6.279,2.613,12.499-8.761     C193.036,88.695,186.905,86.727,181.418,88.65z"/>
		</g>
		<g>
			<path fill="#686B7D" d="M177.536,119.069c9.482-3.098,34.399-16.989,73.18-16.973c-16.501-27.536-38.444-33.552-48.703-31.011     C191.754,73.626,175.304,101.992,177.536,119.069z"/>
		</g>
		<g>
			<path fill="#646678" d="M183.084,148.087c4.451,3.429,22.107,2.175,35.514-8.449c12.866,2.056,35.084-1.949,37.235-10.235     c-2.367-10.467-3.513-13.068-8.54-17.898c-1.017,0.277-4.08,1.073-5.75,1.514c10.057,16.605,6.953,17.432-7.542,19.501     c-7.074,1.01-20.272,5.192-26.493,6.385c-4.674,0.897-21.078,7.275-18.995-14.417c-2.831,0.327-5.225,0.47-6.994,0.369     C181.796,132.928,180.678,140.447,183.084,148.087z"/>
		</g>
		<g>
			<path fill="#4D5069" d="M236.311,132.183c-0.736,0.11-1.503,0.222-2.311,0.337c-7.074,1.01-20.272,5.192-26.493,6.385     c-0.706,0.135-1.683,0.396-2.821,0.666l0.819,7.353c4.427-1.631,8.961-4.012,13.092-7.286c5.839,0.933,13.6,0.614,20.542-0.783     L236.311,132.183z"/>
		</g>
		<g>
			<path fill="#4D5069" d="M188.392,129.913l-6.883,3.251c-0.036,2.901-0.021,5.759,0.291,8.607l8.836-4.681     C189.442,135.48,188.616,133.178,188.392,129.913z"/>
		</g>
		<g>
			<path fill="#4D5069" d="M250.688,115.235l-8.23-0.688c1.833,3.104,3.141,5.599,3.953,7.633l7.674,0.287     C253.144,119.319,252.164,117.213,250.688,115.235z"/>
		</g>
		<g>
			<path fill="#9295A8" d="M224.34,114.657c-9.625,2.62-6.435,4.416-18.684,3.717c0.278,8.07,2.104,21.839,2.904,30.664     c4.451,3.429,10.354,7.325,16.98,6.804c5.331-2.056,9.812-7.643,11.963-15.929C232.396,128.317,227.358,120.957,224.34,114.657z"/>
		</g>
		<g>
			<path fill="#B0AFBF" d="M225.883,117.673c2.111,9.879,6.532,17.763,9.311,22.681c-1.242,4.077-4.216,8.844-10.126,12.596     c-7.728,1.062-9.934-1.053-16.508-3.912c4.451,3.429,10.354,7.325,16.98,6.803c5.331-2.056,9.812-7.643,11.963-15.929     C233.186,130.111,228.923,123.34,225.883,117.673z"/>
		</g>
		<g>
			<path fill="#9295A8" d="M223.217,102.526c-9.904-11.227-5.71-26.176-4.231-30.823c-2.977-0.831-11.978-3.132-18.57-2.28     c-5.222,2.32-10.135,7.83-13.54,14.916c3.693,1.906,6.634,8.198,10.408,24.353C206.767,105.594,210.949,102.44,223.217,102.526z"/>
		</g>
		<g>
			<path fill="#B0AFBF" d="M200.416,69.423c-5.222,2.32-10.135,7.83-13.54,14.916c3.693,1.906,6.634,8.198,10.408,24.353     c0.19-0.062,0.365-0.124,0.55-0.186c-1.705-11.952-5.137-19.134-8.674-24.723c2.08-3.013,5.023-8.247,10.739-12.29     c5.297-1,12.804-0.366,18.966,0.594c0.042-0.133,0.083-0.264,0.121-0.384C216.009,70.873,207.008,68.572,200.416,69.423z"/>
		</g>
		<g>
			<path fill="#A9ADB9" d="M258.087,118.063c2.769-0.081-3.27-17.832-8.51-18.527c-12.352-1.638-23.958-1.21-40.109,3.194     c-19.61,5.347-28.827,13.528-31.931,16.339c-3.198,2.897,0.11,20.005,2.372,19.266c9.482-3.098,16.55-7.455,34.424-13.322     C228.209,120.459,240.347,118.578,258.087,118.063z"/>
		</g>
		<g>
			<path fill="#B7BBC7" d="M180.912,137.995c5.448-1.863,10.245-4.155,17.003-6.934l-4.086-22.656     c-5.497,2.582-9.472,5.194-12.244,7.295L180.912,137.995z"/>
		</g>
		<g>
			<path fill="#BEC8CF" d="M251.26,100.301c-0.562-0.416-1.127-0.691-1.683-0.765c-12.352-1.638-23.958-1.21-40.109,3.194     c-19.61,5.347-28.827,13.528-31.931,16.339c-0.435,0.394-0.746,1.059-0.96,1.899C199.793,102.08,226.019,99.336,251.26,100.301z"/>
		</g>
		<g>
			<path fill="#A9ADB9" d="M196.392,82.03c0.204,1.756,2.754,2.902,5.695,2.56c2.941-0.342,5.159-2.043,4.955-3.799     c-0.204-1.756-2.754-2.902-5.695-2.56C198.406,78.573,196.188,80.274,196.392,82.03z"/>
		</g>
		<g>
			<path fill="#A9ADB9" d="M203.553,98.335c0.414,0.849,1.902,0.975,3.324,0.281c1.422-0.694,2.239-1.944,1.824-2.793     s-1.902-0.975-3.324-0.281S203.139,97.486,203.553,98.335z"/>
		</g>
	</g>
	<g>
		<path fill="#AB3316" d="M251.612,118.12c-2.605-3.246-5.277-4.888-10.198-6.088c-4.262-1.039-14.779,0.107-16.596,1.881    c-3.024,2.953,5.638,12.676,7.989,11.436C236.957,123.161,249.22,118.455,251.612,118.12z"/>
	</g>
	<g>
		<path fill="#AB3316" d="M182.851,132.538c1.49-3.886,3.533-6.265,7.853-8.91c3.741-2.29,14.106-4.408,16.378-3.273    c3.781,1.889-1.501,13.792-4.118,13.329C198.345,132.866,185.231,132.127,182.851,132.538z"/>
	</g>
	<g>
		<polygon fill="#7E8799" points="82.441,101.859 53.685,119.338 37.699,123.968 33.318,126.347 38.662,127.099 53.857,125.626     82.536,108.802 97.124,103.782 102.342,100.011 102.342,100.011 102.359,98.433   "/>
	</g>
	<g>
		<defs>
			<path id="SVGID_3_" d="M331.854,292.135c3.966,7.34,2.396,12.713,1.416,18.793c-1.424,8.828,2.424,15.632,17.473,12.879     c-1.466-8.291-0.713-16.841,1.085-24.699C342.758,288.315,337.848,289.105,331.854,292.135z"/>
		</defs>
		<clipPath id="SVGID_4_">
			<use xlink:href="#SVGID_3_" overflow="visible"/>
		</clipPath>
		<g clip-path="url(#SVGID_4_)">
			<path fill="#6B290D" d="M327.488,284.504c4.832,5.07-2.81,17.515-4.253,26.466c-2.096,12.996,6.17,24.237,32.061,20.161     c-2.159-12.206-1.05-24.793,1.597-36.361C343.541,278.88,336.313,280.043,327.488,284.504z"/>
		</g>
	</g>
	<g>
		<path fill="#ACBAD1" d="M294.006,172.632c-11.439,0-22.434,1.9-32.69,5.398l1.282,61.789l-9.765-24.499l-19.121,9.795l-2.03,9.39    l-11.016,7.978l1.931,13.207l-19.981-25.397c-6.299,13.193-9.83,27.963-9.83,43.557c0,23.857,8.259,45.782,22.066,63.084    l20.71-13.95l-13.564,21.994c18.35,18.576,43.832,30.09,72.006,30.09c55.901,0,101.218-45.317,101.218-101.218    C395.224,217.949,349.908,172.632,294.006,172.632z"/>
	</g>
	<g>
		<path fill="#71778F" d="M294.006,184.966c-11.444,0-22.371,2.187-32.419,6.126l1.011,48.727l-9.765-24.499l-19.121,9.795    l-2.03,9.39l-11.016,7.978l1.931,13.207l-11.306-14.371c-3.967,10.078-6.17,21.044-6.17,32.531    c0,21.306,7.504,40.854,20.003,56.165l10.438-7.031l-6.868,11.136c16.239,17.588,39.483,28.613,65.31,28.613    c49.089,0,88.883-39.795,88.883-88.883C382.89,224.761,343.095,184.966,294.006,184.966z"/>
	</g>
	<g>
		<defs>
			<path id="SVGID_5_" d="M310.574,313.375c4.681,4.408,14.921,2.748,17.722-0.378c3.608-4.027,0.414-11.901,5.141-10.637     c4.596,1.228,6.822,5.711,9.154,11.411c3.386,8.276,9.906,17.304,23.473,5.776c-14.361-16.267-17.036-41.68-16.702-51.879     c-13.208-19.713-7.858-32.435-19.227-44.975c-6.783-0.349-47.072,14.595-44.808,27.252c3.678,20.565,23.288,23.689,27.587,28.088     C303.384,295.765,318.933,299.601,310.574,313.375z"/>
		</defs>
		<clipPath id="SVGID_6_">
			<use xlink:href="#SVGID_5_" overflow="visible"/>
		</clipPath>
		<g clip-path="url(#SVGID_6_)">
			<path fill="#824211" d="M302.174,335.397c29.013,3.849,59.715,24.076,86.408,9.609c-22.362-25.33-26.528-64.903-26.007-80.784     c-20.567-30.696-12.236-50.507-29.94-70.033c-10.563-0.543-73.298,22.726-69.773,42.436     c5.728,32.023,36.263,36.888,42.957,43.738C290.979,307.976,315.191,313.948,302.174,335.397z"/>
		</g>
		<g clip-path="url(#SVGID_6_)">
			<path fill="#6B290D" d="M304.973,249.944c7.774-8.778,39.875-15.44,61.091-13.543c-22.362-25.33-30.707-52.509-30.186-68.39     c-20.567-30.696-12.236-50.507-29.94-70.033c-10.563-0.543-73.298,22.726-69.773,42.436     c5.728,32.023,42.376,139.545,49.07,146.395C297.274,285.556,315.235,272.517,304.973,249.944z"/>
		</g>
	</g>
	<g>
		<defs>
			<path id="SVGID_7_" d="M334.691,218.094c-15.173,1.066-25.463,5.752-30.596,9.154c-18.859,12.498-23.282,20.021-16.427,36.74     c8.22-24.447,41.484-27.611,49.457-28.795C351.828,226.203,340.07,217.716,334.691,218.094z"/>
		</defs>
		<clipPath id="SVGID_8_">
			<use xlink:href="#SVGID_7_" overflow="visible"/>
		</clipPath>
		<g clip-path="url(#SVGID_8_)">
			<path fill="#CAD4B4" d="M348.407,203.628c-9.458,0-110.56,25.154-119.722,30.876c-21.268,13.281,27.691,53.415,37.666,66.832     c22.717-36.953,83.738-58.845,97.724-60.922C370.871,232.49,357.866,203.628,348.407,203.628z"/>
		</g>
		<g clip-path="url(#SVGID_8_)">
			<path fill="#ADAC87" d="M290.615,226.169c-9.458,0-110.56,25.154-119.722,30.876c-21.268,13.281,27.691,53.415,37.666,66.832     c22.717-36.953,83.738-58.845,97.724-60.922C313.079,255.031,300.074,226.169,290.615,226.169z"/>
		</g>
	</g>
	<g>
		<path fill="#16A7B8" d="M294.006,188.143c-11.449,0-22.364,2.262-32.348,6.336l0.941,45.34l-9.765-24.499l-19.121,9.795    l-2.03,9.39l-11.016,7.978l1.931,13.207l-9.031-11.479c-3.405,9.237-5.268,19.22-5.268,29.64c0,20.649,7.305,39.59,19.468,54.386    l7.797-5.252l-5.139,8.333c15.684,17.341,38.358,28.24,63.581,28.24c47.334,0,85.707-38.372,85.707-85.707    C379.713,226.515,341.341,188.143,294.006,188.143z"/>
	</g>
	<g>
		<path fill="#0E6285" d="M273.695,357.114c0.794,0.193,1.589,0.381,2.391,0.552l-5.702-166.199    c-0.519,0.148-1.043,0.284-1.558,0.442L273.695,357.114z"/>
	</g>
	<g>
		<path fill="#0E6285" d="M309.672,358.102c0.678-0.125,1.358-0.244,2.031-0.385l5.251-166.442    c-1.159-0.322-2.328-0.617-3.507-0.891L309.672,358.102z"/>
	</g>
	<g>
		<path fill="#0E6285" d="M344.996,342.736c0.8-0.593,1.579-1.211,2.357-1.831l11.686-122.846c-0.981-1.143-1.992-2.258-3.031-3.347    L344.996,342.736z"/>
	</g>
	<g>
		<circle fill="#919CB0" cx="294.006" cy="273.85" r="32.155"/>
	</g>
	<g>
		
			<ellipse transform="matrix(0.7071 -0.7071 0.7071 0.7071 -107.5285 288.1026)" fill="#A9BDC9" cx="294.006" cy="273.85" rx="25.685" ry="25.685"/>
	</g>
	<g>
		<path fill="#BBD0D9" d="M295.114,272.85l-25.6-6.746c-0.772,2.445-1.191,5.046-1.191,7.746c0,4.246,1.036,8.247,2.86,11.775    l24.266-9.933L295.114,272.85z"/>
	</g>
	<g>
		<path fill="#BBD0D9" d="M275.77,291.933c1.258,1.269,2.65,2.404,4.149,3.39l15.031-15.496l-0.944-1.626L275.77,291.933z"/>
	</g>
	<g>
		<g>
			<polygon fill="#E8D1BA" points="444.431,130.143 444.502,110.077 422.818,130.661 413.397,152.684    "/>
		</g>
		<g>
			<polygon fill="#BF8A6A" points="421.515,146.602 427.297,126.409 424.45,129.112    "/>
		</g>
		<g>
			<polygon fill="#BF8A6A" points="432.256,121.702 428.977,141.241 433.548,120.475    "/>
		</g>
		<g>
			<polygon fill="#BF8A6A" points="439.585,133.663 439.699,133.58 440.843,113.55 439.819,114.522    "/>
		</g>
		<g>
			<polygon fill="#E8D1BA" points="462.196,134.966 442.462,131.589 416.086,150.965 436.485,150.228    "/>
		</g>
		<g>
			<polygon fill="#BF8A6A" points="425.241,144.24 442.92,146.408 445.399,144.937 425.632,143.952    "/>
		</g>
		<g>
			<polygon fill="#BF8A6A" points="435.35,136.813 453.741,139.985 455.828,138.746 435.956,136.368    "/>
		</g>
		<g>
			<polygon fill="#3B0F05" points="449.467,122.851 332.677,213.418 334.359,215.536 452.077,126.646    "/>
		</g>
		<g>
			<path fill="#0E6285" d="M329.286,214.657c1.129,4.65,4.711,4.507,6.353,2.466C335.854,220.499,328.826,221.01,329.286,214.657z"/>
		</g>
	</g>
	<g>
		<g>
			<polygon fill="#E8D1BA" points="438.576,273.309 475.552,283.506 491.281,271.046 461.665,266.936    "/>
		</g>
		<g>
			<polygon fill="#BF8A6A" points="463.895,267.245 448.393,275.861 467.783,267.785    "/>
		</g>
		<g>
			<polygon fill="#BF8A6A" points="474.556,268.725 457.238,278.35 476.321,268.969    "/>
		</g>
		<g>
			<polygon fill="#BF8A6A" points="484.885,270.158 469.778,281.914 469.914,281.951 486.283,270.352    "/>
		</g>
		<g>
			<polygon fill="#E8D1BA" points="473.193,282.869 441.597,274.338 454.896,289.823 482.862,300.4    "/>
		</g>
		<g>
			<polygon fill="#BF8A6A" points="452.564,277.299 461.896,292.471 464.593,293.49 453.033,277.426    "/>
		</g>
		<g>
			<polygon fill="#BF8A6A" points="464.674,280.569 473.666,296.922 475.936,297.78 465.4,280.765    "/>
		</g>
		<g>
			<polygon fill="#3B0F05" points="484.393,282.894 368.946,254.927 367.964,257.852 483.054,287.301    "/>
		</g>
		<g>
			<path fill="#0E6285" d="M365.828,253.813c-1.611,4.506,1.461,6.354,3.955,5.55C368.107,262.302,361.954,258.869,365.828,253.813z     "/>
		</g>
	</g>
	<g>
		<g>
			<g>
				<polygon fill="#E8D1BA" points="343.927,368.445 373.395,392.997 392.865,388.141 367.588,372.172     "/>
			</g>
			<g>
				<polygon fill="#BF8A6A" points="369.491,373.374 351.815,374.822 372.809,375.471     "/>
			</g>
			<g>
				<polygon fill="#BF8A6A" points="378.59,379.123 358.843,380.74 380.096,380.074     "/>
			</g>
			<g>
				<polygon fill="#BF8A6A" points="387.406,384.692 368.794,389.163 368.902,389.254 388.6,385.446     "/>
			</g>
			<g>
				<polygon fill="#E8D1BA" points="371.51,391.443 346.253,370.629 351.974,390.224 373.08,411.402     "/>
			</g>
			<g>
				<polygon fill="#BF8A6A" points="355.02,377.854 357.257,395.525 359.292,397.567 355.394,378.163     "/>
			</g>
			<g>
				<polygon fill="#BF8A6A" points="364.7,385.831 366.139,404.438 367.852,406.157 365.28,386.31     "/>
			</g>
			<g>
				<polygon fill="#3B0F05" points="381.701,396.089 288.095,322.958 285.993,325.216 378.662,399.55     "/>
			</g>
		</g>
		<g>
			<path fill="#0E6285" d="M285.819,320.804c-3.855,2.834-2.342,6.084,0.174,6.813C282.961,329.117,279.78,322.83,285.819,320.804z"/>
		</g>
	</g>
	<g>
		<path fill="#0E6285" d="M231.684,234.504L231.684,234.504l8.695,106.18c0.539,0.433,1.081,0.861,1.63,1.281l-8.295-116.85    L231.684,234.504z"/>
	</g>
</g>
</svg>
