<?xml version="1.0" encoding="UTF-8"?>
<svg xmlns="http://www.w3.org/2000/svg" xmlns:xlink="http://www.w3.org/1999/xlink" version="1.1" id="character" x="0px" y="0px" viewBox="0 0 512 512" xml:space="preserve" width="512" height="512">
<g>
	<polygon fill="none" points="433.475,386.019 125.445,442.686 53.99,171.439 427.936,232.106  "/>
	<ellipse fill="none" cx="271.251" cy="473.018" rx="120.656" ry="24.06"/>
	<g>
		<path fill="#C9D7DB" d="M174.422,149c-5.86,14.954,5.697,37.74-4.747,51.032c-10.444,13.292-15.666,5.459-12.58-2.136    c-8.782,5.222-14.004,23.261,15.903,27.059s29.231-40.157,27.208-49.608C194.36,148.051,174.422,149,174.422,149z"/>
		<path fill="#A5B6C9" d="M181.417,150.274c-3.127,0.076-5.715,0.212-7.545,0.332c-1.854,6.126-1.202,13.381-0.478,20.696    c1.504,8.337,11.814,10.751,17.96,13.495c2.35,4.785,2.535,9.862,0.588,13.599c-13.599,0.504-15.446,7.807-9.99,15.362    c-8.105,5.36-27.702,6.683-31.459-2.041c1.215,5.722,7.338,11.31,22.504,13.236c29.907,3.798,29.231-40.157,27.208-49.608    C196.623,158.618,187.753,152.506,181.417,150.274z"/>
	</g>
	<path fill="#333466" d="M117.07,203.189c0,0,42.489,18.637,127.683-33.263c55.669-33.913,78.539-62.704,77.134-69.567   C291.831,102.951,199.742,114.489,117.07,203.189z"/>
	<path fill="#6E82BA" d="M243.154,169.303c55.822-33.9,74.563-58.181,77.918-67.854c3.725-2.211,5.951-5.159,8.042-0.958   c-5.729,12.297-41.994,45.457-83.379,71.282c-49.291,30.759-98.865,42.806-132.949,35.944c-1.691-4.098-0.146-7.687,7.674-6.725   C141.894,203.627,177.946,208.903,243.154,169.303z"/>
	<g>
		<path fill="#F5AB6C" d="M135.466,380.246c-0.788,5.531,8.204,5.88,9.038,3.077c2.003-6.733,2.175-9.979,3.615-12.224    c3.233-5.04,6.553-6.678,5.86-4.772c-2.709,7.446-1.436,11.213,5.238,11.672c1.625-9.301,7.585-14.149,3.553-22.414    c-3.234-16.888-25.328-24.069-32.109-13.008c-2.237,3.648-3.383,5.579-4.587,9.603c-0.604,9.136-5.518,16.11,2.494,19.544    C127.328,376.495,130.651,381.116,135.466,380.246z"/>
		<path fill="#E88D51" d="M138.61,365.881c-1.29,2.993-3.567,11.24-4.396,14.456c0.405,0.006,0.82-0.013,1.251-0.091    C136.214,377.05,138.501,367.707,138.61,365.881z"/>
		<path fill="#E88D51" d="M128.568,371.723L128.568,371.723c1.054-3.727,2.053-8.513,2.69-11.562    c-1.139,2.056-2.418,7.518-3.924,10.944C127.708,371.322,128.115,371.529,128.568,371.723z"/>
		<path fill="#E88D51" d="M162.77,355.585c-3.234-16.888-25.328-24.069-32.109-13.008c-2.234,3.644-3.38,5.575-4.582,9.589    c14.925,13.305,31.259,8.787,38.005,7.815C163.94,358.603,163.536,357.156,162.77,355.585z"/>
		<path fill="#554594" d="M162.858,243.967c-15.443,35.05-30.234,38.245-32.915,49.459c-2.899,12.125,18.409,21.514,30.298,23.365    c23.319,3.629,23.062,3.003,34.858-5.079c3.862-18.471-0.194-34.148,2.951-66.31C200.108,224.358,167.114,242.278,162.858,243.967    z"/>
		<path fill="#433380" d="M162.238,245.357c-0.891,1.976-8.922,16.468-9.806,18.242c6.459,6.882,20.724,11.875,25.294,13.701    c1.466,13.765,3.586,27.202-5.129,27.094c-22.063-16.496-41.401-5.116-41.967-13.098c-0.28,0.682-0.51,1.388-0.688,2.129    c-2.899,12.125,18.409,21.514,30.298,23.365c23.319,3.629,23.062,3.003,34.858-5.079c3.862-18.471-0.194-34.148,2.951-66.31    C200.108,224.358,169.588,243.759,162.238,245.357z"/>
		<path fill="#554594" d="M131.474,337.33c-2.597,0.292-9.145,2.713-6.173,8.698c4.266,8.591,25.101,17.433,39.065,12.351    c5.118-5.053,7.389-10.802,1.175-12.417C159.415,344.371,131.474,337.33,131.474,337.33z"/>
		<path fill="#3E2869" d="M165.098,347.924c2.707-14.105,7.283-6.33,16.054-32.625c-15.178-15.443-43.612-16.236-43.612-16.236    c-7.128,15.546-1.196,25.754-7.152,41.483C139.884,351.96,153.666,354.416,165.098,347.924z"/>
		<path fill="#261D54" d="M181.152,315.299c-15.178-15.443-43.612-16.236-43.612-16.236c-0.186,0.406-0.358,0.806-0.527,1.205    c14.305,1.936,30.209,7.286,33.007,12.802c5.192,10.233-3.786,14.96-8.568,29.672c-1.999,6.15-20.978,4.806-30.791-2.957    c-0.091,0.254-0.176,0.505-0.274,0.761c9.495,11.415,23.278,13.871,34.71,7.378C167.805,333.819,172.381,341.594,181.152,315.299z    "/>
		<path fill="#261D54" d="M174.91,322.496c-9.612-7.341-18.779-14.339-39.141-18.904c0,0.001-0.001,0.002-0.001,0.003    c-0.15,0.459-0.289,0.914-0.419,1.366c20.15,4.505,29.204,11.418,38.697,18.667c0.695,0.531,1.398,1.068,2.11,1.607L134.9,306.672    c-0.115,0.477-0.22,0.95-0.315,1.42l42.001,18.899c0.14-0.295,0.282-0.608,0.425-0.924c0.044-0.097,0.088-0.191,0.132-0.29    c0.172-0.384,0.345-0.78,0.521-1.188c0-0.001,0.001-0.001,0.001-0.002C176.732,323.885,175.813,323.186,174.91,322.496z"/>
		<path fill="#261D54" d="M133.719,314.831c-0.053,0.821-0.092,1.638-0.122,2.452c11.198,5.837,27.15,11.957,39.701,15.63    c0.316-0.475,0.641-0.99,0.975-1.55L133.719,314.831z"/>
		<g>
			<path fill="#261D54" d="M131.865,335.881c-0.119,0.463-0.248,0.931-0.386,1.403c5.246,2.381,9.857,3.871,14.242,4.788     c6.86,1.434,13.182,1.471,20.533,1.347c0.179-0.519,0.364-0.995,0.557-1.434C154.624,342.2,145.381,342.042,131.865,335.881z"/>
			<path fill="#261D54" d="M167.108,341.348c0.232-0.471,0.474-0.903,0.727-1.307l-35.321-7.095     c-0.086,0.461-0.18,0.926-0.283,1.396L167.108,341.348z"/>
		</g>
	</g>
	<g>
		<path fill="#822C0F" d="M228.795,464.422c-6.537,3.69-31.007,16.501-52.481,0.26c0.51-12.012,10.204-19.997,28.146-29.694    C214.058,429.802,228.144,458.714,228.795,464.422z"/>
		<path fill="#63200B" d="M219.288,463.907c-5.163-13.147-21.281-21.646-25.053-22.968c3.037-1.943,6.447-3.908,10.224-5.95    c9.599-5.188,23.685,23.725,24.336,29.433c-6.537,3.69-31.007,16.501-52.481,0.26    C196.956,473.651,208.938,467.903,219.288,463.907z"/>
	</g>
	<g>
		<path fill="#822C0F" d="M310.235,462.182c5.655,4.935,36.831,25.894,61.754,9.279c-1.397-8.892-10.681-17.001-21.878-24.232    C340.946,441.309,312.027,456.723,310.235,462.182z"/>
		<path fill="#63200B" d="M371.989,471.46c-12.817,4.094-30.877,8.593-50.473-6.524c12.194-9.992,22.036-19.888,44.13-5.212    c-3.992-4.411-9.477-8.583-15.535-12.496c-9.165-5.919-38.084,9.495-39.876,14.954C315.89,467.117,347.066,488.076,371.989,471.46    z"/>
	</g>
	<g>
		<path fill="#F5AB6C" d="M177.185,159.458c-4.747,6.212,1.038,16.793,10.206,19.374c8.153,2.296,8.565-10.057,3.298-15.244    C185.422,158.402,179.23,156.781,177.185,159.458z"/>
		<path fill="#E07950" d="M178.132,161.94c2.085-1.254,7.029,1.048,9.705,5.669c1.217,2.101-2.876,0.779-4.126,3.743    c-0.559,1.325,1.626,4.727-0.545,3.346C178.003,171.414,175.663,163.425,178.132,161.94z"/>
	</g>
	<path fill="#F5AB6C" d="M408.487,139.101c0.007,7.963-0.049,15.9-1.167,27.753c-9.328-1.487-31.485-12.776-31.697-20.05   c4.024-5.98,7.174-20.478,10.447-25.016C394.482,118.016,408.481,131.821,408.487,139.101z"/>
	<path fill="#E88D51" d="M418.332,113.578c-1.462-2.427-3.783-5.028-6.151-7.199c-5.154,0.152-12.509,3.591-22.947,12.403   c0.011,5.71,4.7,12.65,6.858,15.487c2.509,15.713,17.68,12.347,25.645,4.16C421.162,130.02,420.85,117.758,418.332,113.578z"/>
	<path fill="#F5AB6C" d="M395.434,132.645c0.469,1.887,2.601,7.697,8.105,10.181c5.668,2.559,13.989-0.548,19.968-7.504   c1.095-1.274-7.826-6.503-9.268-6.856c-3.517-0.862-3.544-4.806-4.902-7.436C409.01,120.397,394.965,130.758,395.434,132.645z"/>
	<path fill="#554594" d="M385.572,176.714c-14.412-13.31-31.905-13.467-36.67,2.121c-2.91,9.52-6.311,13.095-12.388,17.219   c-22.981,4.069-43.215,9.105-56.956,30.03c-16.124,24.555,52.578,55.493,52.578,55.493c14.856-27.852,28.308-34.157,68.21-55.55   C413.3,219.081,397.535,187.763,385.572,176.714z"/>
	<path fill="#433380" d="M385.572,176.714c-11.226-10.368-24.32-12.752-31.814-5.933c10.856,36.3,60.604,63.817,3.458,38.948   c28.504,31.535-1.364,16.036-12.31,12.769c2.95-7.451,3.139-18.624-1.693-32.182c-1.834,2.182-4.003,3.908-6.701,5.738   c-2.519,0.446-5.003,0.906-7.452,1.395c-17.961,14.206-43.858,32.403-51.345,40.775c5.974,21.535,54.419,43.354,54.419,43.354   c14.856-27.852,28.308-34.157,68.21-55.55C413.3,219.081,397.535,187.763,385.572,176.714z"/>
	<path fill="#554594" d="M365.53,144.926c-3.419,0.552-1.248,8.451,0.508,10.906c5.439,7.602,31.459,8.611,43.413,3.281   c4.216-1.88,5.832-6.763,2.675-7.903C406.143,149.048,375.82,143.265,365.53,144.926z"/>
	<g>
		<path fill="#3E2869" d="M370.408,157.527c-1.465,9.36-7.484,7.676-9.549,14.729c11.684,19.663,25.525,45.809,43.635,37.457    c11.375-20.508,9.229-40.422,6.586-51.064C402.882,152.293,371.858,154.715,370.408,157.527z"/>
		<g>
			<path fill="#261D54" d="M407.184,204.262c0.24-0.537,0.487-1.075,0.71-1.609l-42.866-23.338c0.583,0.984,1.171,1.97,1.765,2.957     L407.184,204.262z"/>
			<path fill="#261D54" d="M408.72,200.538c-8.79-10.031-29.56-19.354-46.067-25.246c0.448,0.761,0.899,1.526,1.354,2.297     c18.597,6.74,36.803,15.928,43.999,24.809C408.262,201.775,408.486,201.158,408.72,200.538z"/>
		</g>
		<g>
			<path fill="#261D54" d="M364.514,166.871c-0.558,0.473-1.1,0.975-1.604,1.556l50.253,6.675c-0.008-0.599-0.019-1.191-0.041-1.775     L364.514,166.871z"/>
			<path fill="#261D54" d="M369.344,161.316c-0.334,0.766-0.713,1.421-1.126,1.99c16.015-2.604,33.005-1.314,44.567,5.147     c-0.079-0.761-0.173-1.494-0.271-2.217C400.858,160.133,384.686,158.987,369.344,161.316z"/>
		</g>
		<g>
			<path fill="#261D54" d="M410.833,194.017c0.307-1.152,0.586-2.295,0.826-3.425l-50.177-17.285     c0.902,1.525,1.816,3.081,2.746,4.655L410.833,194.017z"/>
			<path fill="#261D54" d="M412.795,183.358c-13.455-8.503-31.757-15.61-47.957-16.758c-1.115,0.923-2.195,1.892-3.035,3.38     c16.598,0.458,36.595,8.134,50.491,17.218C412.503,185.897,412.664,184.62,412.795,183.358z"/>
		</g>
		<path fill="#261D54" d="M370.408,157.527c-0.031,0.197-0.075,0.362-0.11,0.55c13.314-2.382,32.363-1.723,39.505,7.841    c1.656,20.201-1.936,27.009-8.371,39.19c-12.826,1.535-30.014-25.843-37.152-38.034c-1.39,1.206-2.668,2.613-3.42,5.182    c11.684,19.663,25.525,45.809,43.635,37.457c11.375-20.508,9.229-40.422,6.586-51.064    C402.882,152.293,371.858,154.715,370.408,157.527z"/>
	</g>
	<path fill="#6857AB" d="M307.32,464.435c31.936-16.59,37.346-15.901,53.984-11.481c13.181,3.502,7.981-9.536,0.424-7.297   c9.888-46.599,4.776-48.976-0.735-61.058c-5.311-11.646-17.41-30.984-26.169-51.234c-6.445-14.899-90.123-21.551-104.677-9.796   s-19.943,23.479-18.752,37.925c2.317,28.128,2.057,38.007-11.074,70.909c-9.289-1.978-10.455,4.281-5.878,6.283   c22.403,9.799,22.256,18.785,35.999,28.39C242.949,475.818,267.747,474.894,307.32,464.435z"/>
	<path fill="#4A458F" d="M307.32,464.435c31.936-16.59,37.346-15.901,53.984-11.481c13.181,3.502,7.981-9.536,0.424-7.297l0,0   c-30.096-9.713-51.327,15.513-69.932,19.205c-37.918,7.525-57.246,9.59-82.959-28.933c-1.779-13.559,11.008-27.92,8.713-93.677   c-0.069-1.981-0.348-3.321-0.803-4.101c-4.435,7.21-6.056,14.799-5.352,23.344c2.317,28.128,2.057,38.007-11.074,70.909   c-9.289-1.978-10.455,4.281-5.878,6.283c22.403,9.799,22.256,18.785,35.999,28.39C242.949,475.818,267.747,474.894,307.32,464.435z   "/>
	<path fill="#4A458F" d="M241.622,427.966c10.812-23.168,10.973-89.271,8.416-120.317c42.153-17.563,51.562-10.122,64.914-4.232   c7.353,21.315,10.654,96.054,21.831,117.832C308.617,445.743,269.347,441.635,241.622,427.966z"/>
	<path fill="#46C2E3" d="M246.859,425.417c9.796-20.991,9.457-83.989,7.139-112.118c38.193-15.913,53.456-13.079,65.554-7.743   c6.662,19.312,7.844,91.522,17.971,111.254C312.003,439.004,271.979,437.802,246.859,425.417z"/>
	<path fill="#95EDEC" d="M263.788,418.779c6.612-14.169,6.383-56.691,4.819-75.677c25.779-10.741,36.081-8.828,44.247-5.227   c4.497,13.035,5.294,61.776,12.13,75.094C307.759,427.95,280.744,427.139,263.788,418.779z"/>
	<path fill="#4A458F" d="M259.927,320.982c-1.726-0.986-3.801-2.034-6.265-3.077c-10.89,0.714-19.645,2.538-23.514,5.663   c-14.554,11.755-19.943,23.479-18.752,37.925c0.059,0.713,0.115,1.407,0.17,2.098c11.897,6.212,24.783,8.884,32.268,9.345   c3.923-0.708,7.232-3.343,9.581-5.63C257.298,354.811,262.568,330.931,259.927,320.982z"/>
	<path fill="#2F2C42" d="M238.264,328.467c23.23,4.404,59.895,7.137,87.884,4.338c7.557-2.239,14.064-3.883,13.525,4.828   c-4.008,7.347-13.277,19.194-44.732,19.382c-39.604,0.237-62.276-11.053-77.39-22.388   C218.252,316.992,231.127,320.35,238.264,328.467z"/>
	<path fill="#6857AB" d="M192.424,272.283c8.484,18.853,19.711,41.656,22.184,56.146s37.967,24.877,76.895,23.197   c27.802-1.2,40.798-7.331,46.259-29.661c-4.368-21.818-19.996-58.782-20.278-83.713   C317.202,213.322,192.424,272.283,192.424,272.283z"/>
	<path fill="#4A458F" d="M308.432,232.138c-28.719-1.098-116.008,40.145-116.008,40.145c1.409,3.131,2.896,6.375,4.403,9.668   c9.048,3.15,18.003,5.718,23.462,6.494c4.229,15.669,10.677,32.774,23.856,53.977c0.696,2.117,1.72,4.004,3.021,5.679   c12.813,2.855,28.279,4.219,44.336,3.526c20.39-0.88,32.809-4.422,40.14-15.052C324.574,305.02,312.143,266.021,308.432,232.138z"/>
	<path fill="#46C2E3" d="M302.909,232.354c-20.523,2.058-58.289,17.016-83.895,28.026c5.93,26.615,14.096,59.686,32.286,88.573   c11.944,2.267,25.836,3.294,40.202,2.674c3.26-0.141,6.309-0.353,9.174-0.647c10-2.515,19.327-6.258,26.479-11.549   c-5.925-29.591-18.88-68.298-22.447-101.473C304.465,235.684,303.84,233.841,302.909,232.354z"/>
	<path fill="#95EDEC" d="M299.491,232.787c-8.658,1.316-19.68,4.443-31.349,8.397c-14.309,8.337-27.278,19.105-27.278,19.105   c5.931,27.244,14.065,61.489,30.789,91.153c6.41,0.397,13.075,0.477,19.849,0.185c9.079-0.392,16.57-1.316,22.744-3.152   c4.619-1.894,8.824-4.367,12.275-7.533c-5.751-28.722-17.236-66.513-21.342-98.585C304.531,237.292,302.48,234.278,299.491,232.787   z"/>
	<path fill="#318CC4" d="M259.055,335.129c-8.377-4.481-25.075-6.211-25.075-6.211c-0.336,4.042-2.454,8.699-4.826,13.378   c7.51,3.451,17.448,6.129,28.75,7.752C259.102,344.421,260.523,335.914,259.055,335.129z"/>
	<path fill="#8C4712" d="M341.33,190.056c-12.036-7.487-31.125-5.884-43.961-3.437c0.329-6.465,1.901-23.298-12.38-10.508   c-14.281,12.789-68.071,30.327-80.038,27.585c-11.967-2.742-29.751-4.604-15.257,12.189c-15.928,8.042-28.593,22.566-39.1,42.081   c37.082,20.549,71.061,29.159,119.056,14.412C327.483,254.607,346.444,224.844,341.33,190.056z"/>
	<path fill="#70310D" d="M229.187,279.665c-3.4-34.127-7.738-46.842-11.431-76.783c-5.674,1.05-10.217,1.406-12.804,0.813   c-2.757-0.632-5.82-1.213-8.728-1.534c-1.312,25.75-6.34,51.087,0.671,74.508C207.229,279.018,217.875,280.097,229.187,279.665z"/>
	<g>
		<path fill="#60E0A7" d="M435.415,221.444c20.827-6.118,22.573-12.859,22.573-12.859s-1.042-44.364-5.364-49.446    c-4.322-5.082-22.212-22.901-22.212-22.901s-6.503-30.103-7.308-44.799c12.248-3.879,12.461-10.364,5.916-12.914    c-7.398-2.882-16.907-4.201-28.396-1.286c-13.126,3.33-8.735,14.489,1.796,15.005c0.157,1.766,3.58,41.116,1.816,45.656    c-1.764,4.54-8.956,22.785-12.176,33.359s16.119,49.838,16.119,49.838S414.135,227.695,435.415,221.444z"/>
		
			<ellipse transform="matrix(0.9695 -0.2453 0.2453 0.9695 -39.3949 112.7727)" fill="#60E0A7" cx="433.037" cy="214.54" rx="25.699" ry="8.356"/>
		<path fill="#801846" d="M396.095,174.241c-2.339,7.612,7.667,35.438,13.439,44.862s45.464-2.751,46.197-11.173    s-1.868-43.648-6.725-47.64c-4.469-3.672-12.35,5.562-27.062-0.918c-0.659-0.29-2.698-2.946-0.749-4.259    c1.527-1.029,5.943-5.461,3.38-7.965c-2.762-2.699-5.166,2.523-5.91,5.101c-0.737,2.552-5.671,3.156-7.706,4.21    C400.094,162.091,397.86,168.498,396.095,174.241z"/>
		<polygon fill="#DBE6C3" points="404.478,174.596 411.804,197.622 448.399,192.655 442.841,165.819   "/>
		<path fill="#77F2B5" d="M406.035,140.774c-1.2,3.249-4.996,12.11-5.871,15.268c-1.083,3.907,5.372,4.42,6.32,0.006    c0.805-3.747,1.608-8.377,2.362-14.377s-1.546-10.732-1.722-11.197C407.201,133.311,407.235,137.524,406.035,140.774z"/>
		<path fill="#3AAB86" d="M432.095,137.918c-1.052-1.052-1.681-1.68-1.681-1.68s-6.503-30.103-7.308-44.799    c-5.169,1.092-11.182,1.393-20.684,0.805c0.123,1.391,2.272,26.09,2.317,38.74c0.038-0.016,0.076-0.026,0.114-0.046    c2.564-1.135,4.628-3.961,4.994-5.89c0.898,3.482,2.538,5.912,7.218,4.855C413.861,141.124,425.656,139.534,432.095,137.918z"/>
		<path fill="#3AAB86" d="M401.854,81.523c-6.787,2.646-4.922,5.765,3.631,6.203c8.679,0.444,12.718-0.155,17.737-1.219    c3.095-0.656,4.624-4.575-0.684-5.788S408.641,78.877,401.854,81.523z"/>
	</g>
	<g>
		<g>
			<path fill="#F5AB6C" d="M417.594,119.762c2.274,0.894,9.179-0.603,12.029-1.323c4.684-1.184,4.035-12.617,0.274-11.735     c-3.761,0.882-8.039,2.588-12.675,3.406C413.221,110.815,414.996,118.741,417.594,119.762z"/>
			<path fill="#E88D51" d="M424.401,118.442c-0.483-3.465,1.859-5.705-0.02-10.162c-1.056,0.321-2.139,0.64-3.249,0.938     c-2.442,2.046-4.49,6.076-4.941,9.233c0.411,0.632,0.889,1.109,1.402,1.311c2.274,0.894,9.179-0.603,12.029-1.323     c0.791-0.2,1.427-0.697,1.925-1.374C428.685,117.947,426.253,118.715,424.401,118.442z"/>
		</g>
		<g>
			<path fill="#F5AB6C" d="M432.16,118.294c-3.86,0.156-8.382,1.024-13.091,0.953c-4.062-0.061-3.814,8.056-1.456,9.549     c2.064,1.307,9.128,1.14,12.063,0.971C434.499,129.488,436.02,118.138,432.16,118.294z"/>
			<path fill="#E88D51" d="M416.086,125.889c0-0.001-0.001-0.001-0.001-0.002c0.256,1.317,0.788,2.44,1.528,2.909     c2.064,1.307,9.128,1.14,12.063,0.971c0.858-0.049,1.609-0.454,2.247-1.077C422.653,129.263,420.493,128.913,416.086,125.889z"/>
		</g>
		<g>
			<path fill="#F5AB6C" d="M434.12,128.778c-3.159,0.133-6.859,0.85-10.713,0.798c-3.324-0.045-3.11,6.599-1.179,7.818     c1.691,1.067,7.472,0.921,9.874,0.778C436.049,137.937,437.279,128.645,434.12,128.778z"/>
			<path fill="#E88D51" d="M433.937,137.281c-7.901,0.455-11.786-0.04-12.947-2.194c0.217,1.046,0.646,1.932,1.238,2.306     c1.691,1.067,7.472,0.921,9.874,0.778C432.804,138.13,433.416,137.792,433.937,137.281z"/>
		</g>
		<g>
			<path fill="#F5AB6C" d="M422.184,109.77c0.36-4.431-6.286-6.429-8.381-5.539c-7.733,3.284-12.083-1.396-18.861,4.28     c-4.918,6.597-9.636,12.654-10.175,15.576c-0.494,2.675,2.725,2.221,8.105,7.549c3.978,3.939,7.968,1.691,11.305-1.818     c2.982-3.137,3.184-6.3,2.208-10.302c2.309-0.078,4.451-0.872,6.264-1.364c-1.187,3.095-1.407,8.277,1.549,9.374     c2.771,1.028,5.749-0.717,7.571-2.803C421.197,119.263,421.767,114.901,422.184,109.77z"/>
			<path fill="#E88D51" d="M414.341,116.507c-2.697,0.667-5.946,1.663-9.154,2.386c1.471,7.92-2.631,13.393-7.363,14.789     c2.251-0.22,4.413-1.823,6.353-3.864c2.982-3.137,3.184-6.3,2.208-10.302c2.309-0.078,4.451-0.872,6.264-1.364     c-1.187,3.095-1.407,8.277,1.549,9.374c2.771,1.028,5.749-0.717,7.571-2.803C413.568,129.291,412.568,124.976,414.341,116.507z"/>
		</g>
	</g>
	<g>
		<path fill="#A15834" d="M253.299,331.64c-6.094-2.247-32.694-7.492-32.694-7.492s-7.427,5.327-8.59,33.537    c4.68,4.492,30.599,11.345,30.599,11.345s5.925-1.227,6.73-3.722c2.194-6.796,5.891-20.276,7.8-28.228    C257.649,334.977,254.471,332.833,253.299,331.64z"/>
		<path fill="#803320" d="M213.793,340.842c-0.072,0.382-0.143,0.771-0.212,1.17c6.722,6.925,24.305,6.804,33.515,5.88    c-1.872,6.424-3.53,13.029-4.536,16.757c-11.037-1.28-24.645-3.803-30.306-11.243c-0.095,1.368-0.177,2.785-0.239,4.279    c4.68,4.492,30.599,11.345,30.599,11.345s5.925-1.227,6.73-3.722c2.194-6.796,5.891-20.276,7.8-28.228    c0.505-2.104-2.673-4.248-3.845-5.441c-1.699,2.357-3.623,7.717-5.414,13.602C243.653,347.613,221.418,349.532,213.793,340.842z"/>
		<path opacity="0.5" fill="#3B1A15" d="M226.481,352.393c0,0,2.087-5.069,3.532-7.728    c-0.096-0.132-6.908-1.735-6.908-1.735s-0.454,2.357-1.481,7.791C221.968,350.918,226.481,352.393,226.481,352.393z"/>
		<path opacity="0.5" fill="#3B1A15" d="M253.449,332.7c-1.024,2.655-2.504,7.059-4.296,12.945    c-4.198,2.352-27.448,4.163-35.45-4.306c-0.028,0.154-0.056,0.306-0.084,0.463c6.854,6.922,25.851,6.488,35.074,5.563    c1.302-2.682,2.886-7.922,4.836-13.54c1.706,1.192,2.302,1.561,3.283,2.363C256.502,335.521,253.655,332.164,253.449,332.7z"/>
		<path fill="#9DC7C4" d="M226.026,351.771c0,0,2.087-5.069,3.532-7.728c-0.096-0.132-6.908-1.735-6.908-1.735    s-0.454,2.357-1.481,7.791C221.512,350.296,226.026,351.771,226.026,351.771z"/>
	</g>
	<g>
		<path fill="#DBE5E6" d="M346.466,247.915c-16.08-42.247-35.911-50.87-70.281-77.402c-16.292-12.577-41.336-61.963-41.336-61.963    s-57.72-20.923-60.993,42.288c10.879,8.476,22.995,26.022,23.812,43.212s-7.986,67.477,5.121,94.64    c8.081,16.748,26.56,35.791,65.513,46.568c18.476,5.112,39.809,18.388,26.25,30.35    C330.351,357.262,363.035,291.449,346.466,247.915z"/>
		<path fill="#CBC8DE" d="M227.406,195.866c-3.511,3.399-31.313,43.371-27.99,83.764c0.463,1.624,0.979,3.197,1.547,4.719    c-3.505-37.058,18.447-72.773,27.654-87.475C229.367,195.876,228.523,195.547,227.406,195.866z"/>
		<path fill="#CBC8DE" d="M341.974,315.789c0.777-1.864,1.507-3.753,2.194-5.659c7.507-71.751-74.266-116.936-78.474-119.957    c-0.835,0.114-1.44,0.65-1.051,1.174C275.116,198.645,350.067,239.715,341.974,315.789z"/>
		<path fill="#CBC8DE" d="M247.733,192.698c-0.049-0.651-0.857-0.661-1.563-0.202c-1.207,5.027-33.422,92.336,18.724,141.781    c1.118,0.334,2.252,0.661,3.406,0.981c0.002,0,0.004,0.001,0.005,0.002C215.514,282.962,244.621,204.897,247.733,192.698z"/>
		<path fill="#CBC8DE" d="M301.624,189.532c-24.176-10.128-48.16-11.708-51.495-11.307c-0.245,0.633-0.563,1.195,0.02,1.576    c11.671,1.435,32.986,2.523,54.438,11.998C303.615,191.047,302.626,190.292,301.624,189.532z"/>
		<path fill="#CBC8DE" d="M220.986,169.117c-1.991,1.02-15.037,10.895-23.465,23.267c0.049,0.556,0.12,1.111,0.146,1.666    c0.006,0.124,0.007,0.266,0.011,0.393c7.822-11.246,17.768-19.412,23.767-24.628C221.815,169.487,221.636,169.13,220.986,169.117z    "/>
		<path fill="#CBC8DE" d="M186.618,164.669c0.271,0.39,0.542,0.779,0.808,1.176c10.635-5.007,21.172-7.42,27.95-9.152    c0.497-0.118,0.467-0.535-0.096-0.831C213.196,155.879,199.109,158.449,186.618,164.669z"/>
		<path fill="#CBC8DE" d="M208.405,144.379c-2.181-0.688-19.08-2.919-34.019,0.253c-0.053,0.44-0.1,0.888-0.147,1.337    c13.39-2.45,26.111-1.274,34.001-0.77C208.749,145.24,208.849,144.834,208.405,144.379z"/>
		<path fill="#CBC8DE" d="M178.963,126.941c-0.206,0.462-0.401,0.942-0.597,1.423c13.659-2.632,26.704-1.433,34.738-0.92    c0.509,0.042,0.609-0.365,0.165-0.82C211.074,125.931,193.972,123.679,178.963,126.941z"/>
		<path fill="#CBC8DE" d="M190.468,112.254c-0.424,0.31-0.843,0.633-1.258,0.968c11.63,4.822,21.047,11.734,27.131,15.958    c0.414,0.299,0.71,0.003,0.565-0.617C215.494,126.959,203.772,117.564,190.468,112.254z"/>
		<path fill="#CBC8DE" d="M306.469,320.309c-76.322,3.26-97.905-38.359-100.695-47.689c-17.052-57.02,8.874-73.732-19.802-113.779    c-23.156-17.717,1.729-50.047,18.183-51.091c-23.908,13.41-25.684,32.298-3.521,55.728c10.908,11.532,37.189-8.892,51.071-24.857    c-9.412-15.391-16.857-30.072-16.857-30.072s-57.72-20.923-60.993,42.288c10.879,8.476,22.995,26.022,23.812,43.212    s-7.986,67.477,5.121,94.64c8.081,16.748,26.56,35.791,65.513,46.568c18.476,5.112,39.809,18.388,26.25,30.35    c27.362-6.379,52.901-46.324,56.025-84.237C338.818,303.362,322.086,319.642,306.469,320.309z"/>
		<path fill="#9895AB" d="M269.593,332.571c-50.871-16.782-61.529-36.97-64.639-46.199c-22.352-66.342,10.727-79.175-18.336-124.771    c-5.53-5.02-6.554-7.381-12.763-10.763c10.879,8.476,22.995,26.022,23.812,43.212s-7.986,67.477,5.121,94.64    c8.081,16.748,26.56,35.791,65.513,46.568c18.476,5.112,39.809,18.388,26.25,30.35c18.006-4.198,35.223-22.932,45.782-46.058    c-13.32,19.205-26.416,34.312-37.749,38.219C301.314,348.325,296.568,341.47,269.593,332.571z"/>
		<path fill="#AEB1BF" d="M287.666,179.17c-1.978-1.465-4.012-2.981-6.1-4.556c-3.853,2.432-8.969,2.35-12.881,2.553    c-6.927,0.358-30.704,2.065-34.888,8.731c-3.041,4.845-19.505,18.42-21.784,5.902c-5.728,21.712,14.315,21.7,26.391,16.147    c14.442,5.267,26.206,9.859,37.107,5.391c11.319-4.639,9.108-19.682,6.548-28.738C284.906,183.731,287.028,180.939,287.666,179.17    z"/>
	</g>
	<path fill="#F5AB6C" d="M187.47,140.617c5.686,12.947,13.161,23.126,20.993,30.549c6.509,2.386,14.871,3.869,20.794,10.466   c19.503,0.022,18.283,14.867,31.882-12.913c-0.729-8.81,0.534-12.987,1.521-20c-1.924-5.002-5.531-9.706-8.643-12.188   c-0.786-9.629-4.259-18.509-7.409-21.324C216.647,86.935,178.031,119.123,187.47,140.617z"/>
	<g>
		<path fill="#C95E31" d="M227.079,141.671c2.833,5.392,1.338,11.754-3.338,14.211s-10.764,0.078-13.596-5.314    c-2.833-5.392-1.338-11.754,3.338-14.211C218.159,133.9,224.247,136.279,227.079,141.671z"/>
		<path fill="#F2F2F2" d="M226.742,142.768c2.396,4.56,1.132,9.941-2.823,12.019s-9.104,0.066-11.499-4.495    c-2.396-4.56-1.132-9.941,2.823-12.019C219.198,136.196,224.346,138.208,226.742,142.768z"/>
		<path fill="#1F315C" d="M223.848,140.135c1.997,2.511,1.851,5.951-0.327,7.683s-5.562,1.101-7.559-1.41    c-1.997-2.511-1.851-5.951,0.327-7.683C218.466,136.992,221.851,137.624,223.848,140.135z"/>
		<path fill="#EB834B" d="M228.228,144.799c-1.815,2.309-6.593,6.782-16.216,8.428c3.755,5.309,8.297,7.911,12.739,5.9    C229.999,156.752,229.888,148.965,228.228,144.799z"/>
	</g>
	<g>
		<path fill="#C95E31" d="M251.797,134.462c1.009,5.008-1.694,9.777-6.038,10.651c-4.343,0.875-8.682-2.475-9.691-7.483    c-1.009-5.008,1.694-9.777,6.038-10.651S250.788,129.454,251.797,134.462z"/>
		<path fill="#F2F2F2" d="M251.266,135.265c0.853,4.235-1.433,8.269-5.106,9.009s-7.343-2.094-8.196-6.329s1.433-8.269,5.106-9.009    C246.744,128.196,250.413,131.03,251.266,135.265z"/>
		<path fill="#1F315C" d="M246.651,135.247c-0.248,2.679-2.333,4.677-4.657,4.462s-4.006-2.562-3.758-5.242    c0.248-2.679,2.333-4.677,4.657-4.462C245.217,130.221,246.899,132.567,246.651,135.247z"/>
		<path fill="#EB834B" d="M252,136.845c-2.669,2.304-7.657,4.122-14.534,4.3c0.774,3.864,3.982,9.145,9.716,8.282    C251.959,148.709,253.508,144.379,252,136.845z"/>
	</g>
	<path fill="#E27844" d="M236.478,204.494c3.966-5.867,41.304-27.919,42.241-23.504c2.384,11.237,5.442,24.319-6.681,29.153   C259.761,215.039,248.203,208.896,236.478,204.494z"/>
	<g>
		<path fill="#04070D" d="M275.912,178.588c-5.288,3.495-8.573,3.359-17.447,7.169c-7.919,3.4-16.371,8.835-17.49,17.895    c7.477,1.859,18.524,6.551,28.22,2.248C278.572,201.738,278.969,199.602,275.912,178.588z"/>
		<path fill="#F7F7D9" d="M241.351,194.931c0.744,1.078,2.892,3.241,9.025,4.826c4.657,1.203,20.152-5.698,21.921-9.987    c1.047-2.537,1.944-6.829,1.739-9.25C273.944,179.423,241.351,194.931,241.351,194.931z"/>
		<path fill="#D4D4B0" d="M241.351,194.931c0.402,0.583,2.32,3.091,7.426,4.387c6.942-4.176,11.125-8.302,12.465-10.917    c2.682,0.637,8.356,0.518,11.861-1.008c0.917-2.693,1.015-5.907,0.933-6.873C273.944,179.423,241.351,194.931,241.351,194.931z"/>
	</g>
	<g>
		<path fill="#BCCAD1" d="M279.799,159.687c3.846,9.582-4.301,7.349-11.613,1.898c-18.504-13.794-45.684,3.755-45.867,20.796    c-0.1,9.328-7.954,16.678-10.195,5.82c-6.754,28.761,30.673,24.308,48.161-1.769C280.572,189.715,296.001,171.38,279.799,159.687z    "/>
		<path fill="#ADB2C4" d="M225.821,171.656c16.472,23.399,51.465,2.347,31.232-14.739    C244.808,155.051,231.869,162.225,225.821,171.656z"/>
		<path fill="#ADB2C4" d="M284.619,164.618c-0.175-0.273-0.368-0.544-0.568-0.814c-0.422,11.773-19.774,2.929-26.411-4.761    c-1.472-1.045-0.302,1.801-1.222,1.456C271.998,175.545,284.514,173.321,284.619,164.618z"/>
		<path fill="#ADB2C4" d="M275.868,184.6c0.182-0.081,0.358-0.168,0.537-0.252c-8.385-2.571-15.022-10.409-21.064-17.41    c-1.472-1.045-0.302,1.801-1.222,1.456C257.507,173.216,266.322,182.126,275.868,184.6z"/>
		<path fill="#ADB2C4" d="M242.532,170.899c4.18,5.828,11.381,14.155,8.351,26.118c0.476-0.409,0.945-0.833,1.411-1.263    c3.383-9.243,1.298-16.214-3.271-24.561C248.078,169.654,243.243,171.577,242.532,170.899z"/>
		<g>
			<path fill="#ADB2C4" d="M238.363,173.069c-0.02-0.869,0.022-1,0.041-1.009c-0.015-0.021-0.051-0.1-0.128-0.367     c-7.675,0.184-8.515,3.585-9.994,7.705c-4.668,13.004-12.112,24.715-16.852,17.225c0.043,0.397,0.101,0.781,0.169,1.156     c5.279,9.185,15.461-4.055,19.936-15.797C233.439,176.984,234.276,174.637,238.363,173.069z"/>
			<path fill="#9FA6BD" d="M238.404,172.06C238.416,172.077,238.413,172.055,238.404,172.06L238.404,172.06z"/>
		</g>
	</g>
	<path fill="#EB673B" d="M232.64,155.582c-4.378-0.836-15.993,14.569,5.914,21.34s27.607-9.966,23.22-16.612   c-4.388-6.646-19.502-24.347-27.724-22.28C225.828,140.098,231.721,154.196,232.64,155.582z"/>
	<path fill="#CC4B2B" d="M232.64,155.582c-4.378-0.836-15.993,14.569,5.914,21.34s27.607-9.966,23.22-16.612   c3.975,9.519-7.093,19.885-22.645,14.849c-5.743-1.86-8.106-3.463-9.597-5.518c-5.408-7.452,0.364-14.22,2.779-13.383   c1.594,0.552,2.102,1.142,3.172,2.746C235.275,157.364,233.878,156.06,232.64,155.582z"/>
	<path fill="#DBE5E6" d="M203.85,142.584c4.212-9.193,9.618-16.224,16.977-24.235c-2.97-5.713-11.28-11.702-15.146-5.537   C201.51,119.463,200.142,135.737,203.85,142.584z"/>
	<path fill="#DBE5E6" d="M253.676,136.117c-3.744-2.191-12.25-5.55-20.443-7.01c-0.731-6.398,1.895-14.728,8.911-11.207   C249.759,121.722,251.636,126.779,253.676,136.117z"/>
	<path fill="#4D5399" d="M163.584,35.034c-20.049,5.721-36.079-1.506-35.199-13.003c0.946-12.368,36.774-7.402,46.428,5.731   c13.177,17.927,30.964,37.417,41.804,47.704s-48.329,39.559-48.675,20.878S172.982,56.046,163.584,35.034z"/>
	<path fill="#8C4712" d="M222.08,77.479c4.224,2.369,0.651,6.637-1.242,8.742c2.354,1.135,14.843,10.805,16.272,13.342   c3.643-1.453,6.56-0.535,3.737,6.409c-2.822,6.944-61.706,32.741-68.074,32.731c-6.368-0.01-13.139-7.415-0.467-8.696   c1.326-7.345-0.552-18.985,0.349-21.494c-3.494,0.21-12.289-4.254-0.599-12.306S217.857,75.111,222.08,77.479z"/>
	<polygon fill="#C1D1D6" points="205.768,122.735 212.144,121.031 201.734,82.077 201.734,82.077 201.734,82.077 200.653,78.033    194.277,79.737 172.992,92.886 183.75,133.143 186.938,132.291 176.559,93.454 195.639,84.832  "/>
	
		<rect x="193.516" y="99.681" transform="matrix(0.9151 -0.4033 0.4033 0.9151 -23.988 88.7512)" fill="#C1D1D6" width="10.427" height="3.3"/>
	<path fill="#4D5399" d="M117.989,197.926c0,0,39.953-64.003,88.971-83.727s105.86-14.752,114.112-12.751   C287.952,103.745,215.8,110.93,117.989,197.926z"/>
	<path fill="#778CC9" d="M220.036,130.342c58.355-29.325,97.771-24.278,103.91-25.842s9.452-9.472-3.841-7.774   c-14.221,1.817-57.241,7.998-101.091,29.37c-52.227,25.456-96.73,62.167-105.748,72.797c-6.769,7.979,0.517,12.102,5.449,5.959   C126.686,194.924,151.869,164.597,220.036,130.342z"/>
</g>
</svg>
