<?xml version="1.0" encoding="UTF-8"?>
<svg xmlns="http://www.w3.org/2000/svg" xmlns:xlink="http://www.w3.org/1999/xlink" version="1.1" id="character" x="0px" y="0px" viewBox="0 0 512 512" xml:space="preserve" width="512" height="512">
<g>
	<polygon fill="none" points="401.587,408.45 114.638,417.255 72.611,167.692 385.206,183.496  "/>
	<ellipse fill="#D5E9ED" cx="238.268" cy="471.723" rx="108.623" ry="24.629"/>
	<path fill="#333466" d="M102.13,195.622c0,0,37.888,26.78,131.759-6.978c61.34-22.059,89.519-45.678,89.519-52.683   C293.444,132.472,200.913,125.305,102.13,195.622z"/>
	<path fill="#6E82BA" d="M232.448,187.712c61.487-22.015,84.717-42.044,89.944-50.848c4.093-1.419,6.864-3.861,8.071,0.674   c-8.079,10.898-50.258,36.111-95.981,53.111c-54.458,20.248-105.442,22.107-137.457,8.548c-0.835-4.353,1.399-7.56,8.867-5.049   C126.362,201.03,160.623,213.429,232.448,187.712z"/>
	<g>
		<path fill="#C9D7DB" d="M172.965,149.04c-6.518,16.631,6.336,41.974-5.28,56.757c-11.615,14.783-17.423,6.072-13.991-2.376    c-9.767,5.808-15.575,25.871,17.687,30.094s32.511-44.662,30.26-55.173C195.14,147.984,172.965,149.04,172.965,149.04z"/>
		<path fill="#A5B6C9" d="M180.745,150.458c-3.478,0.084-6.356,0.235-8.391,0.369c-2.062,6.813-1.337,14.883-0.532,23.018    c3.075,5.663,7.778,11.324,14.298,15.849c0.25,5.176-0.967,9.916-3.133,14.073c-10.92-2.49-14.014,4.137-11.586,12.586    c-9.014,5.962-20.87,12.144-25.049,2.442c1.352,6.364,8.161,12.579,25.029,14.721c33.262,4.224,32.511-44.662,30.26-55.173    C197.657,159.738,187.791,152.939,180.745,150.458z"/>
	</g>
	<g>
		<path fill="#F5AB6C" d="M140.139,409.284c0.401,6.2,10.27,4.534,10.539,1.292c0.648-7.786,0.096-11.358,1.154-14.13    c2.373-6.222,5.614-8.762,5.293-6.529c-1.255,8.723,0.989,12.534,8.359,11.515c-0.348-10.495,5.037-17.129-1.234-25.21    c-7.365-17.649-33.052-20.438-37.917-6.853c-1.604,4.48-2.413,6.844-2.807,11.498c1.422,10.083-2.34,18.795,7.163,20.708    C130.425,407.053,135.095,411.326,140.139,409.284z"/>
		<path fill="#E88D51" d="M140.292,392.93c-0.723,3.552-1.325,13.048-1.495,16.738c0.443-0.085,0.89-0.201,1.342-0.384    C140.226,405.634,140.589,394.943,140.292,392.93z"/>
		<path fill="#E88D51" d="M130.689,401.575L130.689,401.575c0.298-4.298,0.297-9.734,0.297-13.199    c-0.772,2.497-0.921,8.735-1.78,12.807C129.662,401.334,130.152,401.467,130.689,401.575z"/>
		<path fill="#E88D51" d="M164.25,376.222c-7.365-17.649-33.052-20.438-37.917-6.853c-1.603,4.475-2.411,6.839-2.806,11.482    c19.277,11.087,36.03,2.451,43.152-0.143C166.211,379.24,165.442,377.757,164.25,376.222z"/>
		<path fill="#554594" d="M140.951,243.824c-8.249,51.464-26.191,58.341-26.587,72.201c-0.396,13.859,24.938,19.231,38.302,18.539    c26.212-1.357,25.79-1.98,36.792-13.463c0-20.987-7.983-37.131-11.881-72.86C175.028,224.863,140.951,243.824,140.951,243.824z"/>
		<path fill="#433380" d="M140.951,243.824c-1.162,7.253-2.518,13.619-3.989,19.245c8.598,6.022,23.767,12,29.157,12.948    c4.729,14.651,6.69,40.374-2.823,42.24c-27.773-12.937-46.235,3.854-48.668-4.707c-0.149,0.807-0.24,1.627-0.264,2.474    c-0.396,13.859,24.938,19.231,38.302,18.539c26.212-1.357,25.79-1.98,36.792-13.463c0-20.987-7.983-37.131-11.881-72.86    C175.028,224.863,140.951,243.824,140.951,243.824z"/>
		<path fill="#554594" d="M126.025,363.472c-2.76,0.909-9.338,5.035-4.74,10.875c6.6,8.382,31.294,13.265,45.339,4.554    c4.422-6.666,5.585-13.442-1.548-13.785C158.045,364.777,126.025,363.472,126.025,363.472z"/>
		<path fill="#3E2869" d="M165.04,367.351c-0.264-15.971,6.488-8.549,10.051-39.171c-20.038-13.357-51.173-7.749-51.173-7.749    c-4.222,18.547,4.56,28.309,1.656,46.788C138.51,377.485,154.073,377.022,165.04,367.351z"/>
		<path fill="#261D54" d="M175.092,328.18c-20.038-13.357-51.173-7.749-51.173-7.749c-0.11,0.484-0.207,0.959-0.299,1.431    c16.013-1.149,34.545,1.056,38.847,6.424c7.981,9.958-0.716,17.147-2.574,34.252c-0.776,7.15-21.744,10.007-34.193,3.79    c-0.041,0.297-0.077,0.59-0.125,0.891c12.935,10.265,28.499,9.802,39.466,0.132C164.776,351.38,171.528,358.802,175.092,328.18z"/>
		<path fill="#261D54" d="M169.934,337.437c-12.135-5.804-23.707-11.336-46.914-11.671c0,0.001,0,0.002,0,0.004    c-0.059,0.534-0.107,1.061-0.145,1.582c22.961,0.318,34.392,5.782,46.376,11.514c0.878,0.42,1.765,0.844,2.663,1.269    l-49.138-10.818c-0.016,0.545-0.023,1.085-0.02,1.617l50.026,11.014c0.085-0.353,0.168-0.727,0.252-1.102    c0.026-0.116,0.052-0.228,0.078-0.346c0.1-0.457,0.198-0.928,0.297-1.412c0-0.001,0-0.002,0-0.002    C172.234,338.534,171.074,337.982,169.934,337.437z"/>
		<path fill="#261D54" d="M123.347,338.468c0.129,0.906,0.272,1.804,0.425,2.697c13.519,3.805,32.278,6.837,46.778,7.979    c0.236-0.589,0.472-1.224,0.708-1.909L123.347,338.468z"/>
		<g>
			<path fill="#261D54" d="M126.12,361.806c-0.024,0.531-0.058,1.07-0.101,1.616c6.253,1.398,11.612,1.97,16.594,1.97     c7.794,0,14.685-1.399,22.659-3.207c0.077-0.605,0.17-1.166,0.28-1.688C152.335,363.505,142.237,365.436,126.12,361.806z"/>
			<path fill="#261D54" d="M165.731,359.735c0.146-0.566,0.311-1.091,0.494-1.588l-40.067,0.316c0.012,0.522,0.015,1.05,0.01,1.584     L165.731,359.735z"/>
		</g>
	</g>
	<g>
		<path fill="#822C0F" d="M180.499,471.688c5.512,6.269,24.509,26.476,53.009,17.29c3.866-12.8-3.388-24.737-18.676-41.494    C206.654,438.52,183.274,465.932,180.499,471.688z"/>
		<path fill="#63200B" d="M188.665,472.417c8.53-15.676,29.6-7.725,41.812-4.411c-3.316-5.262-9.868-14.19-15.644-20.521    c-8.179-8.964-31.559,18.447-34.334,24.203c5.512,6.269,24.509,26.476,53.009,17.29    C208.546,490.832,198.07,480.406,188.665,472.417z"/>
	</g>
	<g>
		<path fill="#822C0F" d="M252.679,462.53c6.29,5.489,40.963,28.799,68.682,10.32c-1.554-9.89-11.879-18.908-24.332-26.951    C286.835,439.315,254.671,456.459,252.679,462.53z"/>
		<path fill="#63200B" d="M321.36,472.85c-14.255,4.554-34.341,5.93-45.735-4.752c13.562-11.113,20.341-15.425,38.681-8.301    c-4.44-4.906-10.54-9.546-17.278-13.898c-10.194-6.584-42.357,10.56-44.35,16.631C258.968,468.019,293.642,491.329,321.36,472.85z    "/>
	</g>
	<g>
		<path fill="#F5AB6C" d="M173.648,162.201c-5.28,6.909,1.155,18.677,11.351,21.548c9.068,2.553,9.526-11.186,3.668-16.954    C182.809,161.026,175.923,159.224,173.648,162.201z"/>
		<path fill="#E07950" d="M174.701,164.961c2.319-1.395,7.817,1.165,10.793,6.305c1.353,2.337-3.198,0.867-4.589,4.162    c-0.621,1.473,1.808,5.257-0.606,3.722C174.558,175.498,171.955,166.613,174.701,164.961z"/>
	</g>
	<g>
		<path fill="#6857AB" d="M265.341,467.057c23.828-18.223,31.67-20.426,47.427-8.555c10.249-2.05,9.736-11.017,2.818-8.968    c-12.042-8.711-17.967-48.478-18.736-66.221c-0.769-17.743,5.765-23.508-5.893-36.575c-9.893-11.089-82.501-19.729-95.825-8.968    c-13.323,10.761-18.256,21.493-17.166,34.717c2.122,25.75-4.099,66.232-13.067,85.448c-13.579,1.025,3.859,13.804,16.289,14.742    c7.015,0.53,14.781-22.335,47.797-7.696C241.757,470.644,253.198,471.287,265.341,467.057z"/>
		<path fill="#4A458F" d="M252.737,460.731c-30.598-0.285-32.785-18.232-71.549,1.561c-17.613-3.267,3.524-27.479,2.413-107.418    c-0.026-1.889-0.268-3.137-0.685-3.836c-4.098,6.624-5.597,13.597-4.95,21.451c2.122,25.75-4.099,66.232-13.067,85.448    c-13.579,1.025,3.859,13.804,16.289,14.742c7.015,0.53,14.781-22.335,47.797-7.696c12.772,5.663,24.212,6.306,36.355,2.075    c23.828-18.223,31.67-20.426,47.427-8.555c10.249-2.05,9.736-11.017,2.818-8.968C276.566,435.004,270.1,460.892,252.737,460.731z"/>
		<path fill="#4A458F" d="M205.638,433.339c9.897-21.209,10.045-81.722,7.704-110.142c38.588-16.078,47.201-9.266,59.425-3.874    c6.731,19.512,9.753,87.931,19.985,107.867C266.967,449.613,231.018,445.852,205.638,433.339z"/>
		<path fill="#46C2E3" d="M210.431,431.006c8.968-19.216,8.657-76.886,6.536-102.636c34.963-14.567,48.935-11.973,60.01-7.088    c6.098,17.679,7.18,83.783,16.451,101.846C270.066,443.443,233.427,442.343,210.431,431.006z"/>
		<path fill="#95EDEC" d="M225.929,424.929c6.053-12.97,5.843-51.896,4.411-69.277c23.599-9.832,33.03-8.082,40.505-4.785    c4.116,11.933,4.847,56.551,11.104,68.744C266.182,433.324,241.451,432.582,225.929,424.929z"/>
		<path fill="#4A458F" d="M213.555,382.578c3.556-11.438,8.38-33.299,5.962-42.406c-3.376-1.929-8.186-4.112-14.895-5.969    c-4.205,0.798-7.506,1.966-9.488,3.567c-13.323,10.761-18.256,21.493-17.166,34.717c0.214,2.602,0.34,5.361,0.389,8.227    c9.967,4.601,20.225,6.636,26.429,7.018C208.376,387.084,211.405,384.673,213.555,382.578z"/>
	</g>
	<path fill="#F5AB6C" d="M394.954,186.914c-1.468,7.366-2.99,14.696-6.218,25.451c-8.351-3.103-26.753-17.645-25.602-24.412   c4.829-4.785,10.427-17.611,14.294-21.201C385.906,164.82,396.296,180.18,394.954,186.914z"/>
	<path fill="#E88D51" d="M408.785,165.132c-0.902-2.516-2.568-5.351-4.356-7.797c-4.795-0.813-12.234,1.005-23.519,7.222   c-1.048,5.283,2.004,12.57,3.475,15.593c-0.589,14.997,14.065,14.693,22.947,8.596   C408.358,180.862,410.339,169.464,408.785,165.132z"/>
	<path fill="#F5AB6C" d="M384.077,178.526c0.085,1.833,0.98,7.6,5.611,10.917c4.769,3.416,13.039,2.084,19.857-3.243   c1.249-0.976-6.034-7.463-7.302-8.057c-3.093-1.448-2.387-5.101-3.157-7.784C398.901,169.712,383.993,176.694,384.077,178.526z"/>
	<polygon fill="#92D0E6" points="399.405,221.458 410.188,221.458 417.849,136.731 395.072,135.885  "/>
	<g>
		<polygon fill="#B9F3F9" points="400.351,222.456 408.738,225.4 413.859,133.855 399.573,134.964   "/>
		<path fill="#709CB8" d="M415.76,159.835l-19.555-1.591l0.951,18.778c1.49,1.198,3.296,2.229,5.502,2.99    c-4.496,8.263,4.841,11.072,10.194,11.987L415.76,159.835z"/>
		<path fill="#709CB8" d="M395.072,135.885l0.414,8.164c6.526,2.912,14.946,3.633,21.415,3.167l0.948-10.485L395.072,135.885z"/>
	</g>
	<path fill="#85C2DE" d="M387.79,140.351c0,0,2.648,1.574,16.421,1.995c16.699,0.51,19.513-1.039,19.513-1.039l4.53-16.853   l-42.969,3.372L387.79,140.351z"/>
	<path fill="#B2E4F7" d="M387.79,140.351c0,0,0.304-6.161,0.118-9.64c26.765,1.716,40.097-5.327,40.097-5.327l0.25-0.93   l-42.969,3.372L387.79,140.351z"/>
	<path fill="#8CD4E6" d="M385.285,127.827c2.134,3.848,40.171,0.186,42.969-3.372c2.785-3.541-18.874-2.186-21.485-1.904   C401.12,123.16,383.903,125.335,385.285,127.827z"/>
	<path fill="#B05623" d="M396.607,126.646c0,0,1.991,1.367,10.247,0.712c10.321-0.818,11.19-2.904,11.19-2.904l4.183-13.591   l-29.816,0.893L396.607,126.646z"/>
	<path fill="#963F1A" d="M396.607,126.646c0,0,1.991,1.367,10.247,0.712c10.321-0.818,11.19-2.904,11.19-2.904l4.183-13.591   l-4.379,0.131c0,0-0.209,10.222-3.618,12.588C409.456,126.896,396.607,126.646,396.607,126.646z"/>
	<path fill="#CF6F2A" d="M392.501,111.962c2.134,3.848,26.791,2.893,29.522-0.716c1.997-2.64-7.236-4.224-14.861-3.844   C399.83,107.767,391.119,109.471,392.501,111.962z"/>
	<path fill="#554594" d="M332.489,212.628c-4.454,8.265-8.261,10.942-14.646,13.631c-22.007-0.492-41.653,0.418-58.235,17.226   c-19.459,19.724,38.35,61.058,38.35,61.058c18.897-23.008,32.505-26.348,73.369-38.744c13.268-4.025,4.487-35.909-4.531-48.343   C355.932,202.478,339.783,199.094,332.489,212.628z"/>
	<path fill="#433380" d="M338.472,206.079c3.319,35.582,44.232,70.243-4.013,36.661c20.522,34.443-4.231,14.578-13.749,9.529   c4.108-6.344,6.352-16.643,4.393-30.076c-2.1,1.679-4.425,2.873-7.26,4.066c-2.413-0.054-4.795-0.089-7.15-0.09   c-19.241,9.812-46.561,21.847-55.036,28.202c1.538,21.022,42.301,50.172,42.301,50.172c18.897-23.008,32.505-26.348,73.369-38.744   c13.268-4.025,4.487-35.909-4.531-48.343C358.334,205.788,346.665,201.159,338.472,206.079z"/>
	<path fill="#554594" d="M354.147,184.347c-3.265-0.123-2.719,7.585-1.55,10.18c3.622,8.038,27.5,13.789,39.542,11.073   c4.247-0.958,6.646-5.175,3.937-6.814C390.943,195.68,363.97,184.716,354.147,184.347z"/>
	<path fill="#3E2869" d="M374.549,248.163c14.166-15.75,16.309-33.714,16.137-43.617c-5.93-7.256-33.73-11.405-35.576-9.223   c-3.185,7.943-10.074,10.067-13.32,15.857C348.094,230.855,361.112,248.684,374.549,248.163z"/>
	<g>
		<path fill="#261D54" d="M378.977,242.642l-36.601-32.405c-0.205,0.305-0.403,0.616-0.586,0.943    c0.099,0.31,0.205,0.618,0.308,0.927l35.939,31.819C378.359,243.499,378.671,243.071,378.977,242.642z"/>
		<path fill="#261D54" d="M343.575,208.685c-0.339,0.392-0.663,0.797-0.965,1.222c16.014,10.01,31.699,22.682,36.513,32.533    c0.348-0.492,0.686-0.984,1.015-1.477C374.282,230.052,357.106,217.229,343.575,208.685z"/>
	</g>
	<g>
		<path fill="#261D54" d="M352.403,199.994c14.495,1.005,29.01,5.571,37.801,13.53c0.084-0.683,0.154-1.35,0.214-2.003    c-9.006-7.72-22.974-12.005-36.924-13.072C353.147,198.993,352.783,199.507,352.403,199.994z"/>
		<path fill="#261D54" d="M389.517,217.883l-39.855-14.917c-0.435,0.411-0.873,0.811-1.312,1.201l40.847,15.288    C389.312,218.925,389.418,218.402,389.517,217.883z"/>
	</g>
	<g>
		<path fill="#261D54" d="M349.948,202.692c-0.903,0.871-1.827,1.68-2.736,2.476c13.918,4.231,28.892,14.491,38.763,24.758    c0.447-1.102,0.851-2.195,1.221-3.278C377.453,216.817,363.494,207.223,349.948,202.692z"/>
		<path fill="#261D54" d="M384.73,232.784l-40.232-25.102c-0.749,0.763-1.449,1.563-2.056,2.451l40.871,25.5    C383.817,234.681,384.29,233.731,384.73,232.784z"/>
	</g>
	<path fill="#261D54" d="M374.549,248.163c14.166-15.75,16.309-33.714,16.137-43.617c-5.93-7.256-33.73-11.405-35.576-9.223   c-0.065,0.161-0.139,0.305-0.207,0.462c12.202,0.599,28.837,5.036,33.186,14.902c-2.633,18.118-7.173,23.383-15.304,32.804   c-10.438-1.121-23.139-22.103-29.15-34.874c-0.688,0.787-1.317,1.625-1.844,2.565C348.094,230.855,361.112,248.684,374.549,248.163   z"/>
	<path fill="#2F2C42" d="M200.036,339.242c21.911,4.153,56.493,6.732,82.891,4.092c7.128-2.112,13.265-3.663,12.756,4.554   c-3.781,6.93-12.523,18.103-42.191,18.281c-37.354,0.224-58.739-10.425-72.994-21.116   C181.161,328.418,193.304,331.586,200.036,339.242z"/>
	<g>
		<path fill="#6857AB" d="M296.116,342.787c0-20.987-7.609-58.066-3.253-81.176c4.356-23.109-121.961,8.316-121.961,8.316    c4.356,19.007,9.504,46.725,9.108,60.585c-0.396,13.859,21.779,23.363,58.091,29.017    C264.035,363.567,285.113,354.27,296.116,342.787z"/>
		<path fill="#4A458F" d="M285.627,254.281c-17.946-4.314-64.637,4.497-92.616,10.564c0.263,22.595-0.265,44.829,12.737,79.525    c0.411,3.406,1.742,6.405,3.784,9.03c8.109,2.396,17.7,4.436,28.568,6.128c20.316,3.163,37.65-1.857,49.497-9.7    C286.588,320.278,282.948,284.464,285.627,254.281z"/>
		<path fill="#46C2E3" d="M197.696,263.789c0.594,27.52,2.178,62.367,16.017,94.23c19.796,5.302,50.112,8.002,69.36-1.044    c0-28.464-4.814-66.661-1.97-98.002S197.696,263.789,197.696,263.789z"/>
		<path fill="#95EDEC" d="M282.2,357.363c-0.075-27.532-3.595-64.133-1.476-94.234c2.142-30.422-62.801,4.675-62.801,4.675    c0.447,26.712,0.935,62.493,11.354,93.422C246.91,363.885,267.557,363.87,282.2,357.363z"/>
		<path fill="#318CC4" d="M207.393,340.656c1.758,5.844,3.839,11.652,6.32,17.363c1.261,0.338,2.565,0.664,3.905,0.979    c1.459-5.21,3.186-12.671,1.895-13.478C216.307,343.515,211.677,341.879,207.393,340.656z"/>
	</g>
	<path fill="#8C4712" d="M273.886,198.274c-15.575,9.183-68.57,15.443-79.13,10.691c-10.559-4.752-26.662-9.767-16.367,8.448   c-16.22,4.488-30.622,15.575-43.954,31.678c30.49,25.871,60.321,40.126,107.439,35.374c56.776-5.726,79.823-29.741,81.535-62.861   c-9.745-9.153-27.696-11.205-40.02-11.319C284.891,204.367,289.461,189.091,273.886,198.274z"/>
	<path fill="#70310D" d="M206.751,210.582c-5.441-0.08-9.712-0.59-11.994-1.617c-2.432-1.095-5.158-2.2-7.788-3.035   c-5.982,23.572-15.323,46.073-13.176,69.032c9.122,4.086,18.767,7.055,29.309,8.75   C206.276,251.527,204.623,238.945,206.751,210.582z"/>
	<circle fill="#92D0E6" cx="405.263" cy="227.042" r="34.125"/>
	<circle fill="#B9F3F9" cx="405.263" cy="227.042" r="29.841"/>
	<path fill="#F0C417" d="M435.104,227.042c0,16.481-13.36,29.841-29.841,29.841s-29.841-13.36-29.841-29.841   c0-2.358,0.273-4.652,0.79-6.852c9.706,1.267,16.125-3.023,30.247-3.023c12.095,0,13.893-9.254,25.998-2.428   C434.158,218.491,435.104,222.656,435.104,227.042z"/>
	<circle opacity="0.7" fill="#FFDD59" cx="398.093" cy="252.269" r="1.386"/>
	<circle opacity="0.7" fill="#FFDD59" cx="408.894" cy="254.292" r="1.032"/>
	<circle opacity="0.7" fill="#FFDD59" cx="416.248" cy="245.083" r="1.032"/>
	<circle opacity="0.7" fill="#FFDD59" cx="426.355" cy="244.358" r="1.032"/>
	<circle opacity="0.7" fill="#FFDD59" cx="413.778" cy="237.762" r="1.032"/>
	<circle opacity="0.7" fill="#FFDD59" cx="396.707" cy="245.083" r="1.757"/>
	<circle opacity="0.7" fill="#FFDD59" cx="408.508" cy="246.115" r="1.757"/>
	<circle opacity="0.7" fill="#FFDD59" cx="422.433" cy="238.794" r="1.757"/>
	<circle opacity="0.7" fill="#FFDD59" cx="413.988" cy="253.26" r="0.823"/>
	<circle opacity="0.7" fill="#FFDD59" cx="403.739" cy="250.237" r="0.646"/>
	<circle opacity="0.7" fill="#FFDD59" cx="390.695" cy="249.242" r="0.646"/>
	<circle opacity="0.7" fill="#FFDD59" cx="405.909" cy="240.361" r="0.646"/>
	<circle opacity="0.7" fill="#FFDD59" cx="420.284" cy="248.596" r="1.757"/>
	<circle opacity="0.7" fill="#FFDD59" cx="406.879" cy="233.877" r="2.553"/>
	<circle opacity="0.7" fill="#FFDD59" cx="399.84" cy="237.536" r="1.747"/>
	<path fill="#FFDD59" d="M407.203,223.013c-7.472,4.351-31.78,9.811-30.99-2.822c0.932-4.136,11.786-1.214,29.051-8.728   c11.09-4.827,22.187-1.594,27.195,3.278C423.681,212.365,418.196,216.611,407.203,223.013z"/>
	<path fill="#E6FDFF" d="M419.881,212.229c-7.376-5.788-13.673-9.324-9.817-11.575c2.702-1.577,9.024-0.337,14.67,6.401   c11.504,13.73,7.734,27.349,4.082,33.306C429.204,231.276,429.889,220.083,419.881,212.229z"/>
	<g>
		<path fill="#A15834" d="M212.199,341.248c-6.904-2.124-36.764-6.325-36.764-6.325s-7.923,6.368-7.494,37.767    c5.471,4.703,34.673,10.733,34.673,10.733s6.505-1.724,7.247-4.544c2.022-7.681,5.306-22.876,6.94-31.824    C217.234,344.689,213.574,342.502,212.199,341.248z"/>
		<path fill="#803320" d="M168.889,353.878c-0.057,0.428-0.112,0.865-0.164,1.312c7.887,7.28,27.406,6.073,37.577,4.486    c-1.687,7.248-3.126,14.684-4.015,18.885c-12.335-0.749-27.601-2.72-34.341-10.637c-0.022,1.525-0.027,3.103-0.004,4.767    c5.471,4.703,34.673,10.733,34.673,10.733s6.505-1.724,7.247-4.544c2.022-7.681,5.306-22.876,6.94-31.824    c0.432-2.367-3.227-4.554-4.602-5.808c-1.743,2.721-3.552,8.79-5.183,15.436C202.462,359.575,177.887,363.062,168.889,353.878z"/>
		<path opacity="0.5" fill="#3B1A15" d="M183.684,365.931c0,0,2.008-5.756,3.451-8.798    c-0.115-0.141-7.777-1.506-7.777-1.506s-0.361,2.645-1.17,8.743C178.582,364.568,183.684,365.931,183.684,365.931z"/>
		<path opacity="0.5" fill="#3B1A15" d="M212.431,342.416c-0.975,3.011-2.35,7.992-3.981,14.638    c-4.519,2.868-30.228,6.297-39.63-2.62c-0.022,0.173-0.044,0.344-0.065,0.519c8.034,7.269,29.103,5.628,39.29,4.038    c1.282-3.058,2.722-8.973,4.545-15.332c1.968,1.22,2.652,1.593,3.79,2.424C215.993,345.363,212.627,341.809,212.431,342.416z"/>
		<path fill="#9DC7C4" d="M183.14,365.268c0,0,2.008-5.756,3.451-8.798c-0.115-0.141-7.777-1.506-7.777-1.506    s-0.361,2.645-1.17,8.743C178.038,363.905,183.14,365.268,183.14,365.268z"/>
	</g>
	<g>
		<path fill="#F5AB6C" d="M409.174,167.945c2.529,0.994,10.209-0.671,13.379-1.472c5.209-1.316,4.488-14.033,0.305-13.052    s-8.94,2.878-14.097,3.788C404.311,157.995,406.286,166.809,409.174,167.945z"/>
		<path fill="#E88D51" d="M416.745,166.477c-0.537-3.854,2.068-6.345-0.022-11.303c-1.174,0.357-2.379,0.712-3.613,1.044    c-2.716,2.275-4.994,6.757-5.495,10.269c0.457,0.703,0.989,1.234,1.559,1.458c2.529,0.994,10.209-0.671,13.379-1.472    c0.88-0.222,1.587-0.775,2.141-1.528C421.51,165.927,418.805,166.781,416.745,166.477z"/>
		<path fill="#F5AB6C" d="M418.106,167.024c-4.293,0.174-9.323,1.139-14.559,1.059c-4.517-0.068-4.242,8.96-1.619,10.621    c2.296,1.454,10.152,1.268,13.416,1.08C420.707,179.474,422.399,166.85,418.106,167.024z"/>
		<path fill="#E88D51" d="M400.229,175.471c0-0.001-0.001-0.002-0.001-0.002c0.285,1.465,0.876,2.714,1.7,3.235    c2.296,1.454,10.152,1.268,13.416,1.08c0.954-0.055,1.79-0.505,2.499-1.198C407.532,179.223,405.13,178.835,400.229,175.471z"/>
		<path fill="#F5AB6C" d="M417.965,180.259c-3.484-0.479-7.675-0.427-11.882-1.246c-3.63-0.706-4.71,6.607-2.836,8.323    c1.64,1.502,7.996,2.485,10.653,2.804C418.265,190.665,421.449,180.738,417.965,180.259z"/>
		<path fill="#E88D51" d="M416.083,189.529c-8.737-1.065-12.891-2.376-13.736-4.962c0.03,1.187,0.324,2.242,0.899,2.769    c1.64,1.502,7.996,2.485,10.653,2.804C414.676,190.234,415.412,189.986,416.083,189.529z"/>
		<path fill="#F5AB6C" d="M415.12,155.139c0.4-4.928-6.991-7.151-9.321-6.161c-8.6,3.653-13.439-1.553-20.977,4.761    c-2.733,6.671-14.822,13.321-2.303,25.719c4.424,4.381,8.862,1.881,12.574-2.022c3.317-3.489,3.542-7.007,2.456-11.457    c2.568-0.087,4.951-0.97,6.966-1.517c-1.32,3.442-1.565,9.206,1.723,10.426c3.082,1.143,6.394-0.797,8.421-3.118    C414.023,165.697,414.657,160.846,415.12,155.139z"/>
		<path fill="#E88D51" d="M406.397,162.631c-3,0.742-6.613,1.849-10.18,2.653c1.636,8.808-2.926,14.895-8.189,16.448    c2.503-0.244,4.908-2.028,7.065-4.297c3.317-3.489,3.542-7.007,2.456-11.457c2.568-0.087,4.951-0.97,6.966-1.517    c-1.32,3.442-1.565,9.206,1.723,10.426c3.082,1.143,6.394-0.797,8.421-3.118C405.537,176.85,404.426,172.051,406.397,162.631z"/>
	</g>
	<g>
		<path fill="#DBE5E6" d="M320.443,274.517c-7.671-42.359-24.73-53.896-52.269-84.739c-13.055-14.621-25.079-54.249-25.079-54.249    s-22.64,4.151-67.279,17.951c8.704,9.835,16.98,28.378,14.741,44.613s-19.266,61.773-11.742,89.491    c4.639,17.091,18.611,38.146,53.193,55.041c16.403,8.014,34.054,24.169,19.271,32.998    C286.252,374.066,328.348,318.166,320.443,274.517z"/>
		<path fill="#CBC8DE" d="M270.351,335.3c-23.843-3.185-80.563-11.805-85.933-62.237c-6-56.358,21.19-67.473,1.342-109.974    c15.476-14.177,28.665-8.86,32.319-6.704c12.997,7.668,22.636,9.692,32.763,1.046c-4.696-11.847-7.748-21.902-7.748-21.902    s-22.64,4.151-67.279,17.951c8.704,9.835,16.98,28.378,14.741,44.613s-19.266,61.773-11.742,89.491    c4.639,17.091,18.611,38.146,53.193,55.041c16.403,8.014,34.054,24.169,19.271,32.998c26.729-1.19,57.617-34.123,67.165-69.069    C303.595,325.088,285.106,337.271,270.351,335.3z"/>
		<path fill="#CBC8DE" d="M237.663,205.575c0.068-0.618-0.687-0.768-1.428-0.462c-2.008,4.495-47.421,80.6-7.244,135.999    c0.989,0.508,1.992,1.013,3.017,1.513c0.002,0.001,0.003,0.002,0.005,0.002C191.729,284.446,232.618,216.452,237.663,205.575z"/>
		<path fill="#CBC8DE" d="M218.08,204.989c-3.88,2.569-36.891,35.131-40.838,73.525c0.15,1.601,0.358,3.164,0.624,4.688    c3.194-35.304,29.984-64.903,41.172-77.058C219.914,205.341,219.181,204.886,218.08,204.989z"/>
		<path fill="#CBC8DE" d="M185.347,168.658c0.186,0.412,0.372,0.824,0.551,1.242c10.831-2.829,21.117-3.247,27.764-3.684    c0.486-0.023,0.53-0.419,0.055-0.795C211.764,165.073,198.128,165.017,185.347,168.658z"/>
		<path fill="#CBC8DE" d="M216.743,178.826c-2.042,0.607-15.98,7.572-26.032,17.681c-0.051,0.529-0.082,1.061-0.155,1.586    c-0.016,0.117-0.04,0.25-0.058,0.37c9.287-9.161,20.025-15.068,26.552-18.902C217.455,179.318,217.35,178.952,216.743,178.826z"/>
		<path fill="#CBC8DE" d="M288.665,212.028c-20.862-13.706-43.039-19.375-46.231-19.583c-0.34,0.55-0.736,1.02-0.257,1.479    c10.675,3.383,30.439,8.125,48.865,20.743C290.265,213.794,289.471,212.914,288.665,212.028z"/>
		<path fill="#CBC8DE" d="M304.378,337.272c1.053-1.609,2.066-3.25,3.043-4.915c19.564-65.858-49.092-122.445-52.503-126.008    c-0.801-0.039-1.461,0.357-1.189,0.916C262.257,215.926,325.247,267.47,304.378,337.272z"/>
		<path fill="#9895AB" d="M230.886,338.502c-15.252-6.652-44.285-27.146-49.237-52.168c-6.985-35.297,4.636-58.964,9.418-83.793    c3.082-16,0.168-28.766-11.005-47.989c-0.994-1.642-2.396-1.642-4.246-1.072c8.704,9.835,16.98,28.378,14.741,44.613    s-19.266,61.773-11.742,89.491c4.639,17.091,18.611,38.146,53.193,55.041c16.403,8.014,34.054,24.169,19.271,32.998    c20.511-0.913,43.47-20.518,57.357-45.38c-10.052,15.111-26.342,32.521-47.021,38.671    C261.615,356.871,248.219,346.061,230.886,338.502z"/>
		<path fill="#AEB1BF" d="M272.495,194.557c-4.032,1.603-8.807,0.633-12.505,0.139c-6.547-0.875-29.104-3.432-34.186,2.077    c-3.693,4.004-22.339,12.709-22.286,0.592c-9.986,25.116,19.331,26.237,25.404,20.654c11.385,13.612,39.394,13.985,39.488-11.673    c6.442-1.79,8.638-4.57,8.814-6.658C275.686,198.033,274.11,196.326,272.495,194.557z"/>
	</g>
	<path fill="#F5AB6C" d="M190.268,147.39c1.386,13.265,7.889,23.825,13.758,32.14c5.578,3.412,13.037,6.332,17.293,13.529   c18.033,3.631,14.156,17.135,31.876-6.039c0.957-8.283,2.899-11.912,5.11-18.215c-0.853-4.983-3.318-10.001-5.737-12.872   c1.056-9.051-0.511-17.906-2.904-21.094C238.02,134.103,189.379,138.88,190.268,147.39z"/>
	<g>
		<path fill="#C95E31" d="M226.705,155.699c1.621,5.511-0.939,11.119-5.719,12.525c-4.78,1.406-9.969-1.921-11.59-7.432    s0.939-11.119,5.719-12.525S225.084,150.188,226.705,155.699z"/>
		<path fill="#F2F2F2" d="M226.19,156.652c1.371,4.661-0.794,9.404-4.837,10.593s-8.431-1.625-9.803-6.286    c-1.371-4.661,0.794-9.404,4.837-10.593C220.43,149.176,224.819,151.991,226.19,156.652z"/>
		<path fill="#1F315C" d="M225.431,156.075c1.382,2.692,0.61,5.846-1.725,7.045s-5.348-0.012-6.73-2.704    c-1.382-2.692-0.61-5.846,1.725-7.045C221.036,152.173,224.049,153.383,225.431,156.075z"/>
		<path fill="#EB834B" d="M227.188,158.805c-2.107,1.8-7.353,5.051-16.557,4.791c2.49,5.605,6.209,8.852,10.689,7.816    C226.612,170.188,227.952,162.966,227.188,158.805z"/>
	</g>
	<g>
		<path fill="#C95E31" d="M250.9,153.609c0.006,4.818-3.377,8.728-7.556,8.733s-7.571-3.897-7.576-8.715    c-0.006-4.818,3.377-8.728,7.556-8.733S250.894,148.791,250.9,153.609z"/>
		<path fill="#F2F2F2" d="M250.26,154.254c0.005,4.075-2.856,7.382-6.391,7.386s-6.403-3.296-6.408-7.371s2.856-7.382,6.391-7.386    S250.256,150.179,250.26,154.254z"/>
		<path fill="#1F315C" d="M249.85,153.919c0.478,2.493-0.888,4.849-3.049,5.264c-2.162,0.414-4.302-1.271-4.779-3.763    s0.888-4.849,3.049-5.264C247.233,149.742,249.373,151.426,249.85,153.919z"/>
		<path fill="#EB834B" d="M250.646,155.851c-2.895,1.637-7.845,2.395-14.238,1.286c0,3.717,1.99,9.195,7.452,9.459    C248.412,166.815,250.646,163.098,250.646,155.851z"/>
	</g>
	<path fill="#E27844" d="M227.268,213.285c4.755-4.691,35.628-14.931,38.353-11.661s0.283,16.839-10.569,20.344   C243.189,225.798,232.886,220.234,227.268,213.285z"/>
	<g>
		<path fill="#04070D" d="M265.032,198.884c-5.538,2.254-8.551,1.519-17.463,3.399c-7.953,1.678-11.995,4.478-22.477,5.922    c6.624,8.837,15.025,13.692,24.789,11.508C259.323,217.602,263.423,211.328,265.032,198.884z"/>
		<path fill="#F7F7D9" d="M230.042,207.6c0.488,1.134,2.074,3.533,7.453,6.134c4.084,1.975,19.692-1.539,22.123-5.177    c1.438-2.152,3.062-5.956,3.321-8.233C263.057,199.292,230.042,207.6,230.042,207.6z"/>
		<path fill="#D4D4B0" d="M230.042,207.6c0.264,0.613,2.97,3.99,7.453,6.134c7.193-2.576,12.292-6.985,14.016-9.156    c2.362,1.085,6.155,1.881,9.679,1.119c1.347-2.32,1.646-4.465,1.75-5.374C263.057,199.292,230.042,207.6,230.042,207.6z"/>
	</g>
	<g>
		<path fill="#BCCAD1" d="M275.232,179.999c2.069,10.038-5.495,6.422-11.679-0.191c-15.646-16.734-45.287-4.379-48.468,12.235    c-1.741,9.094-10.708,14.89-10.984,3.89c-11.663,26.905,25.681,29.147,47.357,6.754    C270.697,209.469,288.998,194.276,275.232,179.999z"/>
		<path fill="#ADB2C4" d="M220.395,182.183c11.969,25.758,49.86,11.358,33.105-8.897    C241.867,169.307,227.964,174.037,220.395,182.183z"/>
		<path fill="#ADB2C4" d="M279.071,185.665c-0.123-0.298-0.264-0.596-0.411-0.895c-2.486,11.426-19.832-0.622-24.961-9.303    c-1.254-1.28-0.612,1.706-1.45,1.207C264.818,194.116,277.436,194.149,279.071,185.665z"/>
		<path fill="#ADB2C4" d="M267.003,203.643c0.192-0.047,0.38-0.101,0.569-0.152c-7.738-3.989-12.84-12.814-17.509-20.717    c-1.254-1.28-0.612,1.706-1.45,1.207C251.073,189.288,258.115,199.545,267.003,203.643z"/>
		<path fill="#ADB2C4" d="M236.852,184.388c3.056,6.43,8.624,15.832,3.557,26.984c0.537-0.316,1.07-0.647,1.601-0.985    c4.933-8.433,4.124-15.61,1.131-24.568C242.489,184.149,237.428,185.175,236.852,184.388z"/>
		<g>
			<path fill="#ADB2C4" d="M232.398,185.773c0.133-0.852,0.198-0.973,0.218-0.979c-0.011-0.023-0.032-0.107-0.061-0.381     c-7.529-1.172-8.949,2.002-11.119,5.766c-6.851,11.881-16.184,22.01-19.495,13.858c-0.028,0.395-0.039,0.78-0.038,1.159     c3.539,9.902,15.817-1.238,22.256-11.92C226.898,188.73,228.129,186.585,232.398,185.773z"/>
			<path fill="#9FA6BD" d="M232.615,184.794C232.624,184.813,232.625,184.792,232.615,184.794L232.615,184.794z"/>
		</g>
	</g>
	<path fill="#EB673B" d="M229.272,169.595c-3.894-1.584-17.489,10.513,1.518,20.832s27.378-4.105,24.551-11.064   s-13.528-26.128-21.515-25.739S228.678,168.143,229.272,169.595z"/>
	<path fill="#CC4B2B" d="M229.272,169.595c-3.894-1.584-17.489,10.513,1.518,20.832s27.378-4.105,24.551-11.064   c1.914,9.54-10.242,17.077-23.693,9.54c-4.967-2.784-6.855-4.704-7.854-6.88c-3.622-7.893,2.97-13.084,5.049-11.863   c1.372,0.806,1.732,1.445,2.425,3.127C231.379,171.731,230.328,170.266,229.272,169.595z"/>
	<path fill="#DBE5E6" d="M205.673,162.943c5.598-7.722,11.899-13.224,20.188-19.269c-1.689-5.834-8.266-12.911-12.982-7.925   C207.791,141.126,203.512,155.924,205.673,162.943z"/>
	<path fill="#DBE5E6" d="M254.084,152.44c-3.44-2.216-11.32-5.724-18.981-7.43c-0.431-6.058,2.38-13.802,8.849-10.201   C250.973,138.717,252.538,143.558,254.084,152.44z"/>
	<path fill="#4D5399" d="M181.425,40.212c-20.789,1.584-35.044-8.712-31.876-19.799c3.408-11.927,37.512,0.124,44.335,14.926   c9.313,20.206,22.83,42.867,31.386,55.119s-55.282,29.062-51.873,10.691S186.417,62.682,181.425,40.212z"/>
	<path fill="#8C4712" d="M230.22,93.528c3.663,3.168-0.693,6.633-2.97,8.316c2.079,1.584,12.374,13.562,13.265,16.334   c3.861-0.693,6.534,0.792,2.376,7.029c-4.158,6.237-67.019,19.7-73.256,18.413s-11.384-9.899,1.287-8.613   c2.772-6.93,3.267-18.71,4.653-20.987c-3.465-0.495-11.186-6.633,1.881-12.176S226.557,90.36,230.22,93.528z"/>
	<polygon fill="#C1D1D6" points="205.162,134.592 211.75,134.202 209.117,89.773 202.529,90.163 179.039,98.776 181.504,140.372    184.798,140.177 182.42,100.047 202.841,95.428  "/>
	
		<rect x="192.053" y="113.308" transform="matrix(0.9889 -0.1484 0.1484 0.9889 -14.8477 30.9255)" fill="#C1D1D6" width="15.513" height="3.3"/>
	<path fill="#4D5399" d="M104.086,190.65c0,0,51.978-54.69,103.955-64.181s106.667,6.78,114.351,10.396   C289.484,132.472,217.358,125.039,104.086,190.65z"/>
	<path fill="#778CC9" d="M217.614,144.906c63.051-17.025,100.654-4.175,106.982-4.476s11.16-7.384-2.204-8.386   c-14.297-1.072-57.682-3.645-104.927,8.498c-56.271,14.463-107.233,41.503-118.2,50.109c-8.232,6.459-1.921,11.96,4.143,6.931   C113.208,189.453,143.962,164.793,217.614,144.906z"/>
</g>
</svg>
